<?xml version="1.0" encoding="UTF-8"?>
<svg xmlns="http://www.w3.org/2000/svg" viewBox="0 0 3600.1 2401.738">
  <defs>
    <style>
      .cls-1 {
        fill: #fff;
      }

      .cls-1, .cls-2, .cls-3 {
        stroke-width: 0px;
      }

      .cls-2 {
        fill: #2f304e;
        fill-rule: evenodd;
      }

      .cls-3 {
        fill: #d13a43;
      }
    </style>
  </defs>
  <g id="background">
    <path id="jp01" class="cls-2" d="M400,.1h2800c220,0,400,180,400,400v1600c0,220-180,400-400,400H400C180,2400.1,0,2220.1,0,2000.1V400.1C0,180.1,180,.1,400,.1Z"/>
  </g>
  <g id="country">
    <g id="jp">
      <g id="_01" data-name="01">
        <path id="a" class="cls-1" d="M1800,442.831l171.429-82.556v839.825h-342.857V360.275l171.429,82.556Z"/>
        <g id="a3">
          <path id="a-2" data-name="a" class="cls-1" d="M2392.057,727.95l171.429,82.556-656.602,523.622-213.768-268.056,656.602-523.622,42.339,185.501Z"/>
          <path id="a-3" data-name="a" class="cls-1" d="M2538.283,1368.608l42.339,185.501-818.769-186.879,76.293-334.261,818.769,186.879-118.632,148.76Z"/>
          <path id="a-4" data-name="a" class="cls-1" d="M2128.567,1882.376l-118.632,148.76-364.386-756.656,308.904-148.76,364.386,756.656h-190.271Z"/>
        </g>
        <g id="a3-2" data-name="a3">
          <path id="a-5" data-name="a" class="cls-1" d="M1471.433,1882.376h-190.271s364.386-756.656,364.386-756.656l308.904,148.76-364.387,756.656-118.632-148.76Z"/>
          <path id="a-6" data-name="a" class="cls-1" d="M1061.717,1368.608l-118.632-148.76,818.769-186.879,76.293,334.261-818.769,186.879,42.339-185.501Z"/>
          <path id="a-7" data-name="a" class="cls-1" d="M1207.943,727.95l42.339-185.501,656.602,523.622-213.768,268.056-656.602-523.623,171.429-82.556Z"/>
        </g>
        <path id="b" class="cls-3" d="M1800,442.831l93.437,757.269h-186.875l93.437-757.269Z"/>
        <g id="b3">
          <path id="b-2" data-name="b" class="cls-3" d="M2392.057,727.95l-533.8,545.202-116.515-146.105,650.314-399.097Z"/>
          <path id="b-3" data-name="b" class="cls-3" d="M2538.283,1368.608l-759.075-77.413,41.584-182.19,717.491,259.603Z"/>
          <path id="b-4" data-name="b" class="cls-3" d="M2128.567,1882.376l-412.751-641.735,168.369-81.082,244.383,722.817Z"/>
        </g>
        <g id="b3-2" data-name="b3">
          <path id="b-5" data-name="b" class="cls-3" d="M1471.433,1882.376l244.383-722.817,168.368,81.082-412.751,641.735Z"/>
          <path id="b-6" data-name="b" class="cls-3" d="M1061.717,1368.608l717.491-259.603,41.584,182.19-759.075,77.413Z"/>
          <path id="b-7" data-name="b" class="cls-3" d="M1207.943,727.95l650.314,399.098-116.515,146.105-533.8-545.202Z"/>
        </g>
      </g>
    </g>
  </g>
</svg>