<?xml version="1.0" encoding="UTF-8"?>
<svg xmlns="http://www.w3.org/2000/svg" viewBox="0 0 3600.1 2401.738">
  <defs>
    <style>
      .cls-1 {
        fill: #04773d;
        stroke: #04773d;
        stroke-width: 8.571px;
      }

      .cls-1, .cls-2 {
        fill-rule: evenodd;
      }

      .cls-2 {
        fill: #eee;
        stroke-width: 0px;
      }
    </style>
  </defs>
  <g id="background">
    <path id="bg" class="cls-2" d="M400,.1h2800c220,0,400,180,400,400v1600c0,220-180,400-400,400H400C180,2400.1,0,2220.1,0,2000.1V400.1C0,180.1,180,.1,400,.1Z"/>
  </g>
  <g id="country">
    <g id="jp">
      <g id="_02" data-name="02">
        <path class="cls-1" d="M1765.714,368.671c116.126,101.323,264.617,218.846,445.714,222.857,178.929,4.011,240-60.069,360-111.429,0,0-126.84,326.803-137.143,437.143-10.32,110.58-6.6,104.237,0,197.143,6.592,92.734,103.723,593.82,445.714,814.286H651.429c289.671-258.171,466.697-582.043,462.857-1011.429h342.857c23.451,203.417,11.777,495.523,137.143,565.714,120.677,67.56,175.046-115.963,171.429-180h154.286c-8.22,91.466,51.686,182.889,137.143,180,94.2-3.189,154.071-227.94,154.286-368.571.214-137.571-28.834-176.074-102.857-197.143-74.023-21.069-250.851,105.96-342.857,197.143V368.671Z"/>
      </g>
    </g>
  </g>
</svg>