<?xml version="1.0" encoding="UTF-8"?>
<svg xmlns="http://www.w3.org/2000/svg" viewBox="0 0 3600.1 2401.738">
  <defs>
    <style>
      .cls-1 {
        fill-rule: evenodd;
      }

      .cls-1, .cls-2 {
        fill: #145e70;
      }

      .cls-1, .cls-2, .cls-3 {
        stroke-width: 0px;
      }

      .cls-3 {
        fill: #fff;
      }
    </style>
  </defs>
  <g id="background">
    <path id="jp03" class="cls-1" d="M400,.1h2800c220,0,400,180,400,400v1600c0,220-180,400-400,400H400C180,2400.1,0,2220.1,0,2000.1V400.1C0,180.1,180,.1,400,.1Z"/>
  </g>
  <g id="country">
    <g id="jp">
      <g id="_03" data-name="03">
        <path id="b" class="cls-3" d="M1233.147,872.827h151.161l113.371,196.364h151.161l-75.58-130.909,226.741-392.727,226.741,392.727-75.58,130.909h151.161l113.371-196.364h151.161l-188.951,327.273h-755.804l-188.951-327.273ZM1800,1069.191l75.58-130.909-75.58-130.909-75.58,130.909,75.58,130.909Z"/>
        <path id="b-2" data-name="b" class="cls-3" d="M1233.147,1527.373h151.161l113.371-196.364h151.161l-75.58,130.909,226.741,392.727,226.741-392.727-75.58-130.909h151.161l113.371,196.364h151.161l-188.951-327.273h-755.804l-188.951,327.273ZM1800,1331.009l75.58,130.909-75.58,130.909-75.58-130.909,75.58-130.909Z"/>
        <path class="cls-2" d="M1233.147,1192.542h1133.706v15.116h-1133.706v-15.116Z"/>
      </g>
    </g>
  </g>
</svg>