<?xml version="1.0" encoding="UTF-8"?>
<svg xmlns="http://www.w3.org/2000/svg" viewBox="0 0 3600.1 2401.738">
  <defs>
    <style>
      .cls-1 {
        fill: none;
        stroke: #fff;
        stroke-miterlimit: 40;
        stroke-width: 216px;
      }

      .cls-2 {
        fill: #00594c;
        fill-rule: evenodd;
      }

      .cls-2, .cls-3 {
        stroke-width: 0px;
      }

      .cls-3 {
        fill: #fff;
      }
    </style>
  </defs>
  <g id="background">
    <path id="jp04" class="cls-2" d="M400,.1h2800c220,0,400,180,400,400v1600c0,220-180,400-400,400H400C180,2400.1,0,2220.1,0,2000.1V400.1C0,180.1,180,.1,400,.1Z"/>
  </g>
  <g id="country">
    <g id="jp">
      <g id="_04" data-name="04">
        <path class="cls-1" d="M1791.647,1967.664c59.46-255.975,185.697-491.619,365.856-682.934,79.736-84.674,182.552-144.107,295.722-170.944,96.729-22.938,193.738,36.881,216.676,133.61,12.1,51.024,1.347,104.788-29.447,147.233-118.344,163.168-311.3,255.262-512.587,244.648-258.495-14.272-499.801-134.024-667.499-331.258-81.298-96.35-191.115-164.368-313.592-194.234-96.729-22.938-193.738,36.881-216.676,133.61-12.1,51.024-1.347,104.788,29.447,147.233,80.367,110.626,196.409,190.17,328.575,225.228,97.072,25.749,200.575,6.583,281.99-52.217,179.699-129.782,317.433-309.373,396.18-516.578,51.337-134.269,52.226-282.603,2.503-417.478-34.327-93.296-137.787-141.1-231.084-106.773-49.269,18.128-88.168,56.862-106.506,106.053-49.532,133.471-49.532,280.283,0,413.753,18.505,49.964,58.195,89.163,108.386,107.044"/>
        <path class="cls-3" d="M1896.846,1992.1h-240.309c22.298-113.467,62.955-222.536,120.37-322.913l119.939,322.913ZM1732.482,1009.107c13.549,36.581,53.766,55.719,90.698,43.16-31.811,72.19-72.035,140.372-119.834,203.13l29.136-246.29Z"/>
      </g>
    </g>
  </g>
</svg>