<?xml version="1.0" encoding="UTF-8"?>
<svg xmlns="http://www.w3.org/2000/svg" viewBox="0 0 3600.1 2401.738">
  <defs>
    <style>
      .cls-1 {
        fill: #fff;
      }

      .cls-1, .cls-2 {
        stroke-width: 0px;
      }

      .cls-2 {
        fill: #900;
        fill-rule: evenodd;
      }
    </style>
  </defs>
  <g id="background">
    <path id="jp05" class="cls-2" d="M400,.1h2800c220,0,400,180,400,400v1600c0,220-180,400-400,400H400C180,2400.1,0,2220.1,0,2000.1V400.1C0,180.1,180,.1,400,.1Z"/>
  </g>
  <g id="country">
    <g id="jp">
      <g id="_05" data-name="05">
        <path class="cls-1" d="M600,308.671l1457.143,582.857c172.613,76.116,239.429,109.711,353.808,170.454,116.456,61.846,245.607,124.77,342.857,209.748,79.104,69.121,159.521,166.182,160.477,271.226,1.027,112.836-85.379,220.179-160.477,236.454l-1776.665,312.117c82.17-25.632,148.259-48.852,198.266-91.37-121.92-70.38-163.702-226.269-93.322-348.189,70.38-121.92,226.269-163.702,348.189-93.322,121.92,70.38,163.702,226.269,93.322,348.189-30.029,52.02-77.464,91.764-133.938,112.223,35.834-7.521,64.845-21.865,117.736-54.971l549.747-350.157c64.836-43.202,120.75-132.34,110.469-211.087-18.006-137.912-163.81-227.592-281.898-307.617L600,308.671Z"/>
      </g>
    </g>
  </g>
</svg>