<?xml version="1.0" encoding="UTF-8"?>
<svg xmlns="http://www.w3.org/2000/svg" viewBox="0 0 3600.1 2401.738">
  <defs>
    <style>
      .cls-1 {
        fill: #006bbd;
        fill-rule: evenodd;
      }

      .cls-1, .cls-2 {
        stroke-width: 0px;
      }

      .cls-2 {
        fill: #fff;
      }
    </style>
  </defs>
  <g id="background">
    <path id="jp06" class="cls-1" d="M400,.1h2800c220,0,400,180,400,400v1600c0,220-180,400-400,400H400C180,2400.1,0,2220.1,0,2000.1V400.1C0,180.1,180,.1,400,.1Z"/>
  </g>
  <g id="country">
    <g id="jp">
      <g id="_06" data-name="06">
        <path class="cls-2" d="M612,1582.9l413.208-799.2,388.548,745.2,386.244-745.2,386.244,745.2,388.548-745.2,413.208,799.2h-432l-144.216-278.1-143.784,278.1h-486l-144.216-278.1-143.784,278.1h-486l-144.216-278.1-143.784,278.1h-108Z"/>
      </g>
    </g>
  </g>
</svg>