<?xml version="1.0" encoding="UTF-8"?>
<svg xmlns="http://www.w3.org/2000/svg" viewBox="0 0 3600.1 2401.738">
  <defs>
    <style>
      .cls-1 {
        fill: #d84b24;
        fill-rule: evenodd;
      }

      .cls-1, .cls-2 {
        stroke-width: 0px;
      }

      .cls-2 {
        fill: #fff;
      }
    </style>
  </defs>
  <g id="background">
    <path id="jp07" class="cls-1" d="M400,.1h2800c220,0,400,180,400,400v1600c0,220-180,400-400,400H400C180,2400.1,0,2220.1,0,2000.1V400.1C0,180.1,180,.1,400,.1Z"/>
  </g>
  <g id="country">
    <g id="jp">
      <g id="_07" data-name="07">
        <g>
          <path class="cls-2" d="M1553.45,128.811c-51.213,60.845-43.404,151.686,17.441,202.899,16.144,13.588,35.077,23.462,55.459,28.924,384.096,102.918,612.035,497.721,509.117,881.816-102.918,384.096-497.721,612.035-881.816,509.117-384.096-102.918-612.035-497.721-509.117-881.816,62.15-231.946,235.841-417.642,463.123-495.131,42.201,82.548,104.944,152.84,182.188,204.109-263.645,27.7-454.917,263.883-427.216,527.528,27.7,263.645,263.883,454.917,527.528,427.216,263.645-27.7,454.917-263.883,427.216-527.528-20.766-197.644-161.179-362.053-353.139-413.488-209.848-56.229-355.767-246.394-355.767-463.644h344.984Z"/>
          <path id="a" class="cls-2" d="M2143.866,1392.214c41.125,104.833,149.607,166.974,260.841,149.417-41.491,82.438-93.377,159.219-154.392,228.464-101.203-25.429-191.363-83.145-256.825-164.406,61.764-62.203,112.602-134.372,150.375-213.475h0Z"/>
          <path id="a-2" data-name="a" class="cls-2" d="M736.134,1392.214c-41.125,104.833-149.607,166.974-260.841,149.417,41.491,82.438,93.377,159.219,154.392,228.464,101.203-25.429,191.363-83.145,256.825-164.406-61.764-62.203-112.602-134.372-150.375-213.475h0Z"/>
        </g>
      </g>
    </g>
  </g>
</svg>