<?xml version="1.0" encoding="UTF-8"?>
<svg xmlns="http://www.w3.org/2000/svg" viewBox="0 0 3600.1 2401.738">
  <defs>
    <style>
      .cls-1 {
        fill: #3b4aa8;
        fill-rule: evenodd;
      }

      .cls-1, .cls-2 {
        stroke-width: 0px;
      }

      .cls-2 {
        fill: #fff;
      }
    </style>
  </defs>
  <g id="background">
    <path id="jp08" class="cls-1" d="M400,.1h2800c220,0,400,180,400,400v1600c0,220-180,400-400,400H400C180,2400.1,0,2220.1,0,2000.1V400.1C0,180.1,180,.1,400,.1Z"/>
  </g>
  <g id="country">
    <g id="jp">
      <g id="_08" data-name="08">
        <path id="path2492" class="cls-2" d="M2077.199,793.787c0,163.723-127.779,290.782-292.813,290.782-139.717,0-232.783-119.441-232.783-229.361,0-112.306,76.798-199.517,189.197-205.911,106.272-6.034,166.004,66.127,166.004,140.193,0,78.847-58.675,118.67-119.595,118.67-70.424,0-116.817-64.913-99.999-140.174,7.186,43.018,38.618,70.204,71.981,74.066,34.408,3.989,66.397-18.321,66.397-56.551s-30.382-62.119-78.405-62.119c-58.382,0-105.571,46.198-105.571,111.501,0,88.817,64.498,149.349,145.199,149.349,105.706,0,194.388-77.092,194.388-197.124,0-128.15-111.172-214.853-240.991-214.853s-285.927,109.709-285.927,288.907,148.607,326.242,328.245,326.242c217.934,0,398.022-159.569,398.022-376.542,0-139.325-55.904-293.767-198.152-429.946,393.602,186.367,537.603,514.221,537.603,807.187,0,395.885-322.358,716.813-720,716.813s-720-320.928-720-716.813c0-360.621,272.903-658.065,602.411-706.932,246.404-36.528,394.789,146.643,394.789,312.619Z"/>
      </g>
    </g>
  </g>
</svg>