<?xml version="1.0" encoding="UTF-8"?>
<svg xmlns="http://www.w3.org/2000/svg" viewBox="0 0 3600.1 2401.738">
  <defs>
    <style>
      .cls-1 {
        fill: #fff;
      }

      .cls-1, .cls-2 {
        stroke-width: 0px;
      }

      .cls-2 {
        fill: #76b138;
        fill-rule: evenodd;
      }

      .cls-3 {
        fill: none;
        stroke: #76b138;
        stroke-miterlimit: 8.4;
        stroke-width: 8px;
      }
    </style>
  </defs>
  <g id="background">
    <path id="jp09" class="cls-2" d="M400,.1h2800c220,0,400,180,400,400v1600c0,220-180,400-400,400H400C180,2400.1,0,2220.1,0,2000.1V400.1C0,180.1,180,.1,400,.1Z"/>
  </g>
  <g id="country">
    <g id="jp">
      <g id="_09" data-name="09">
        <g>
          <path class="cls-1" d="M1400,800.1h400v320h-400v-320ZM1960,800.1h320v200c-4.041,111.123-90.314,201.786-201.1,211.333l-248.757,21.435c-107.555,9.268-190.143,99.278-190.143,207.232v160h-320v-200c4.041-111.123,90.314-201.786,201.1-211.333l248.758-21.435c107.554-9.269,190.142-99.279,190.141-207.232v-160ZM2280,1280.1l-227.634,31.35c-88.307,12.162-158.283,80.628-172.366,168.65v120h-192v-160c0-88.366,71.634-160,160-160h432Z"/>
          <path class="cls-3" d="M1360,986.978l240-192,240,192M1840,1066.978l-240-192-240,192M1360,1146.978l240-192,240,192M1600,792.1v336"/>
          <circle class="cls-1" cx="2080" cy="1480.1" r="126.491"/>
        </g>
      </g>
    </g>
  </g>
</svg>