<?xml version="1.0" encoding="UTF-8"?>
<svg xmlns="http://www.w3.org/2000/svg" xmlns:xlink="http://www.w3.org/1999/xlink" viewBox="0 0 3600.1 2401.738">
  <defs>
    <style>
      .cls-1 {
        fill-rule: evenodd;
      }

      .cls-1, .cls-2 {
        fill: #4c0f7b;
      }

      .cls-1, .cls-2, .cls-3, .cls-4 {
        stroke-width: 0px;
      }

      .cls-5, .cls-3 {
        fill: none;
      }

      .cls-5, .cls-6 {
        stroke: #fff;
        stroke-miterlimit: 1.35;
        stroke-width: 10.313px;
      }

      .cls-4, .cls-6 {
        fill: #fff;
      }

      .cls-7 {
        clip-path: url(#clippath);
      }
    </style>
    <clipPath id="clippath">
      <circle class="cls-3" cx="1800" cy="1200.1" r="108"/>
    </clipPath>
  </defs>
  <g id="background">
    <path id="jp10" class="cls-1" d="M400,.1h2800c220,0,400,180,400,400v1600c0,220-180,400-400,400H400C180,2400.1,0,2220.1,0,2000.1V400.1C0,180.1,180,.1,400,.1Z"/>
  </g>
  <g id="country">
    <g id="jp">
      <g id="_10" data-name="10">
        <g id="a">
          <circle class="cls-4" cx="1800" cy="768.1" r="306"/>
          <circle class="cls-2" cx="1800" cy="372.1" r="306"/>
        </g>
        <g id="a-2" data-name="a">
          <circle class="cls-4" cx="2174.123" cy="1416.1" r="306"/>
          <circle class="cls-2" cx="2517.069" cy="1614.1" r="306"/>
        </g>
        <g id="a-3" data-name="a">
          <circle class="cls-4" cx="1425.877" cy="1416.1" r="306"/>
          <circle class="cls-2" cx="1082.931" cy="1614.1" r="306"/>
        </g>
        <g>
          <path class="cls-4" d="M1732.354,1117.883c.909-2.056,2.346-3.835,4.165-5.157,37.853-27.502,89.109-27.502,126.962,0,5.696,4.138,6.958,12.11,2.82,17.806-.786,1.082-1.738,2.034-2.82,2.82-37.853,27.502-89.109,27.502-126.962,0-1.819-1.321-3.256-3.1-4.165-5.157h14.891c33.874,21.735,77.612,20.47,110.174-3.187,1.088-.79,1.329-2.313.539-3.401-.15-.207-.332-.388-.539-.539-32.561-23.657-76.299-24.922-110.174-3.187h-14.891ZM1769.061,1117.883h61.878v10.313h-61.878v-10.313Z"/>
          <g class="cls-7">
            <g>
              <circle id="b" class="cls-5" cx="1736.519" cy="1112.726" r="61.591"/>
              <circle id="b-2" data-name="b" class="cls-5" cx="1863.481" cy="1112.726" r="61.591"/>
              <path class="cls-4" d="M1841.07,1175.599c2.14,22.682-14.513,42.805-37.195,44.945-22.682,2.14-42.805-14.513-44.945-37.195-.243-2.577-.243-5.172,0-7.749h82.14ZM1769.738,1185.912c3.556,16.713,19.987,27.379,36.7,23.824,11.948-2.542,21.282-11.876,23.824-23.824h-60.524ZM1748.838,1185.912c3.556,28.256,29.344,48.279,57.6,44.724,23.374-2.941,41.782-21.35,44.724-44.724h10.381c-3.556,33.989-33.992,58.66-67.981,55.104-29.08-3.042-52.062-26.024-55.104-55.104h10.381Z"/>
              <path class="cls-6" d="M1690.65,1225.883h76.95M1832.4,1225.883h76.95M1698.75,1251.665h202.5M1712.25,1277.448h175.5M1800,1233.85v81"/>
            </g>
          </g>
        </g>
      </g>
    </g>
  </g>
</svg>