<?xml version="1.0" encoding="UTF-8"?>
<svg xmlns="http://www.w3.org/2000/svg" viewBox="0 0 3600.1 2401.738">
  <defs>
    <style>
      .cls-1 {
        fill: #ed1c24;
      }

      .cls-1, .cls-2 {
        stroke-width: 0px;
      }

      .cls-2 {
        fill: #eee;
        fill-rule: evenodd;
      }
    </style>
  </defs>
  <g id="background">
    <path id="bg" class="cls-2" d="M400,.1h2800c220,0,400,180,400,400v1600c0,220-180,400-400,400H400C180,2400.1,0,2220.1,0,2000.1V400.1C0,180.1,180,.1,400,.1Z"/>
  </g>
  <g id="country">
    <g id="jp">
      <g id="_11" data-name="11">
        <g id="c">
          <g id="b">
            <path id="a" class="cls-1" d="M1810.926,749.468c-145.006-68.762-176.19-275.806-64.053-374.998,23.2-20.678,59.768-34.8,92.465-30.85,63.718,7.566,110.289,62.541,101.463,128.865-5.886,43.208-33.79,77.505-71.116,93.394-59.768,25.638-76.998,110.202-17.737,159.798,16.476,15.048,39.429,14.29,33.71,33.12-5.463,18.914-44.217,4.96-74.731-9.333M2126.156,423.395c86.495,127.101,23.787,312.286-115.752,346.248-29.086,7.059-65.147,2.438-91.124-15.89-50.438-34.971-67.669-105.749-31.524-159.124,26.48-38.59,58.762-51.531,104.236-52.206,53.044-.67,93.897-55.817,89.189-106.419-1.68-19.505-28.076-47.916-10.339-59.429,12.777-8.663,37.41,19.92,55.314,46.819"/>
            <path id="a-2" data-name="a" class="cls-1" d="M1816.107,1650.732c145.006,68.762,176.19,275.806,64.053,374.998-23.2,20.678-59.768,34.8-92.465,30.85-63.718-7.566-110.289-62.541-101.463-128.865,5.886-43.208,33.79-77.505,71.116-93.394,59.768-25.638,76.998-110.202,17.737-159.798-16.476-15.048-39.429-14.29-33.71-33.12,5.463-18.914,44.217-4.96,74.731,9.333M1500.876,1976.805c-86.495-127.101-23.787-312.286,115.752-346.248,29.086-7.059,65.147-2.438,91.124,15.89,50.438,34.971,67.669,105.749,31.524,159.124-26.48,38.59-58.762,51.531-104.236,52.206-53.044.67-93.897,55.817-89.189,106.419,1.68,19.505,28.076,47.916,10.339,59.429-12.777,8.663-37.41-19.92-55.314-46.819"/>
          </g>
          <g id="b-2" data-name="b">
            <path id="a-3" data-name="a" class="cls-1" d="M2264.149,1197.51c68.762-145.006,275.806-176.19,374.998-64.053,20.678,23.2,34.8,59.768,30.85,92.465-7.566,63.718-62.541,110.289-128.865,101.463-43.208-5.886-77.505-33.79-93.394-71.116-25.638-59.768-110.202-76.998-159.798-17.737-15.048,16.476-14.29,39.429-33.12,33.71-18.914-5.463-4.96-44.217,9.333-74.731M2590.221,1512.74c-127.101,86.495-312.286,23.787-346.248-115.752-7.059-29.086-2.438-65.147,15.89-91.124,34.971-50.438,105.749-67.669,159.124-31.524,38.59,26.48,51.531,58.762,52.206,104.236.67,53.044,55.817,93.897,106.419,89.189,19.505-1.68,47.916-28.076,59.429-10.339,8.663,12.777-19.92,37.41-46.819,55.314"/>
            <path id="a-4" data-name="a" class="cls-1" d="M1362.884,1202.69c-68.762,145.006-275.806,176.19-374.998,64.053-20.678-23.2-34.8-59.768-30.85-92.465,7.566-63.718,62.541-110.289,128.865-101.463,43.208,5.886,77.505,33.79,93.394,71.116,25.638,59.768,110.202,76.998,159.798,17.737,15.048-16.476,14.29-39.429,33.12-33.71,18.914,5.463,4.96,44.217-9.333,74.731M1036.811,887.46c127.101-86.495,312.286-23.787,346.248,115.752,7.059,29.086,2.438,65.147-15.89,91.124-34.971,50.438-105.749,67.669-159.124,31.524-38.59-26.48-51.531-58.762-52.206-104.236-.67-53.044-55.817-93.897-106.419-89.189-19.505,1.68-47.916,28.076-59.429,10.339-8.663-12.777,19.92-37.41,46.819-55.314"/>
          </g>
        </g>
        <g id="c-2" data-name="c">
          <g id="b-3" data-name="b">
            <path id="a-5" data-name="a" class="cls-1" d="M2130.33,879.623c-53.912-151.157,70.439-319.61,219.871-310.456,31.026,1.783,66.869,17.655,87.196,43.569,39.706,50.405,33.763,122.21-19.376,162.866-34.714,26.391-78.698,30.911-116.326,15.753-60.391-24.133-132.37,23.479-125.536,100.452,1.01,22.291,17.776,37.984.418,47.256-17.237,9.512-34.773-27.759-46.243-59.443M2583.799,871.957c-28.713,151.035-204,237.639-326.683,162.985-25.558-15.575-47.79-44.342-53.199-75.67-10.937-60.394,26.927-122.624,90.227-134.808,46.012-8.563,77.989,5.113,110.621,36.791,37.982,37.034,105.864,26.927,138.315-12.184,12.604-14.98,14.029-53.735,34.712-49.333,15.16,2.909,12.367,40.538,6.007,72.219"/>
            <path id="a-6" data-name="a" class="cls-1" d="M1496.703,1520.577c53.912,151.157-70.439,319.61-219.871,310.456-31.026-1.783-66.869-17.655-87.196-43.569-39.706-50.405-33.763-122.21,19.376-162.866,34.714-26.391,78.698-30.911,116.326-15.753,60.391,24.133,132.37-23.479,125.536-100.452-1.01-22.291-17.776-37.984-.418-47.256,17.237-9.512,34.773,27.759,46.243,59.443M1043.233,1528.243c28.713-151.035,204-237.639,326.683-162.985,25.558,15.575,47.79,44.342,53.199,75.67,10.937,60.394-26.927,122.624-90.227,134.808-46.012,8.563-77.989-5.113-110.621-36.791-37.982-37.034-105.864-26.927-138.315,12.184-12.604,14.98-14.029,53.735-34.712,49.333-15.16-2.909-12.367-40.538-6.007-72.219"/>
          </g>
          <g id="b-4" data-name="b">
            <path id="a-7" data-name="a" class="cls-1" d="M2133.993,1516.913c151.157-53.912,319.61,70.439,310.456,219.871-1.783,31.026-17.655,66.869-43.569,87.196-50.405,39.706-122.21,33.763-162.866-19.376-26.391-34.714-30.911-78.698-15.753-116.326,24.133-60.391-23.479-132.37-100.452-125.536-22.291,1.01-37.984,17.776-47.256.418-9.512-17.237,27.759-34.773,59.443-46.243M2141.659,1970.383c-151.035-28.713-237.639-204-162.985-326.683,15.575-25.558,44.342-47.79,75.67-53.199,60.394-10.937,122.624,26.927,134.808,90.227,8.563,46.012-5.113,77.989-36.791,110.621-37.034,37.982-26.927,105.864,12.184,138.315,14.98,12.604,53.735,14.029,49.333,34.712-2.909,15.16-40.538,12.367-72.219,6.007"/>
            <path id="a-8" data-name="a" class="cls-1" d="M1493.039,883.287c-151.157,53.912-319.61-70.439-310.456-219.871,1.783-31.026,17.655-66.869,43.569-87.196,50.405-39.706,122.21-33.763,162.866,19.376,26.391,34.714,30.911,78.698,15.753,116.326-24.133,60.391,23.479,132.37,100.452,125.536,22.291-1.01,37.984-17.776,47.256-.418,9.512,17.237-27.759,34.773-59.443,46.243M1485.373,429.817c151.035,28.713,237.639,204,162.985,326.683-15.575,25.558-44.342,47.79-75.67,53.199-60.394,10.937-122.624-26.927-134.808-90.227-8.563-46.012,5.113-77.989,36.791-110.621,37.034-37.982,26.927-105.864-12.184-138.315-14.98-12.604-53.735-14.029-49.333-34.712,2.909-15.16,40.538-12.367,72.219-6.007"/>
          </g>
        </g>
      </g>
    </g>
  </g>
</svg>