<?xml version="1.0" encoding="UTF-8"?>
<svg xmlns="http://www.w3.org/2000/svg" viewBox="0 0 3600.1 2401.738">
  <defs>
    <style>
      .cls-1 {
        fill: #fff;
      }

      .cls-1, .cls-2, .cls-3 {
        stroke-width: 0px;
      }

      .cls-2 {
        fill: #323b97;
        fill-rule: evenodd;
      }

      .cls-3 {
        fill: #d9c95d;
      }
    </style>
  </defs>
  <g id="background">
    <path id="jp12" class="cls-2" d="M400,.1h2800c220,0,400,180,400,400v1600c0,220-180,400-400,400H400C180,2400.1,0,2220.1,0,2000.1V400.1C0,180.1,180,.1,400,.1Z"/>
  </g>
  <g id="country">
    <g id="jp">
      <g id="_12" data-name="12">
        <path class="cls-3" d="M1800,376.1l160,240-160,160-160-160,160-240,115.6,600,577.2-200-462,400,462,400-577.2-200-115.6,600-115.6-600-577.2,200,462-400-462-400,577.2,200,115.6-600Z"/>
        <path class="cls-1" d="M1800,440.9l113.6,170.4-88,88,62.4,324,440-152.4-422.4,365.6-105.6,549.2-105.6-548.4-422.4-366,440,152.4,62.4-324-88-88,113.6-170.8ZM1938.4,1256.1l64.8-56,324.4,280.8-405.6-140.4,16.4-84.4h0ZM1661.6,1256.1l-64.8-56-324.8,280.8,405.6-140.4-16-84.4h0Z"/>
      </g>
    </g>
  </g>
</svg>