<?xml version="1.0" encoding="UTF-8"?>
<svg xmlns="http://www.w3.org/2000/svg" viewBox="0 0 3600.1 2401.738">
  <defs>
    <style>
      .cls-1 {
        fill: none;
        stroke: red;
        stroke-miterlimit: 75;
        stroke-width: 150px;
      }

      .cls-2 {
        fill: #eee;
        fill-rule: evenodd;
        stroke-width: 0px;
      }
    </style>
  </defs>
  <g id="background">
    <path id="bg" class="cls-2" d="M400,.1h2800c220,0,400,180,400,400v1600c0,220-180,400-400,400H400C180,2400.1,0,2220.1,0,2000.1V400.1C0,180.1,180,.1,400,.1Z"/>
  </g>
  <g id="country">
    <g id="jp">
      <g id="_14" data-name="14">
        <path class="cls-1" d="M975,2025.1c207.107,0,375-167.893,375-375v-900M1374,1332.1c-238.587-69.588-375.588-319.413-306-558,69.588-238.587,319.413-375.588,558-306,192,56,324,232,324,432v975c0,82.843-67.157,150-150,150s-150-67.157-150-150v-975c0-248.528,201.472-450,450-450s450,201.472,450,450c0,200-132,376-324,432M2250,750.1v900c0,207.107,167.893,375,375,375M1500,300.1v150M2100,300.1v150"/>
      </g>
    </g>
  </g>
</svg>