<?xml version="1.0" encoding="UTF-8"?>
<svg xmlns="http://www.w3.org/2000/svg" viewBox="0 0 3600.1 2401.738">
  <defs>
    <style>
      .cls-1 {
        fill: #ffda00;
      }

      .cls-1, .cls-2 {
        stroke-width: 0px;
      }

      .cls-2 {
        fill: #ec1a24;
        fill-rule: evenodd;
      }
    </style>
  </defs>
  <g id="background">
    <path id="jp15" class="cls-2" d="M400,.1h2800c220,0,400,180,400,400v1600c0,220-180,400-400,400H400C180,2400.1,0,2220.1,0,2000.1V400.1C0,180.1,180,.1,400,.1Z"/>
  </g>
  <g id="country">
    <g id="jp">
      <g id="_15" data-name="15">
        <path class="cls-1" d="M1475.867,572.167c-346.798,179.026-482.804,605.292-303.778,952.09,117.98,228.543,350.815,374.939,607.911,382.227v60.022c-423.274-11.046-757.451-363.132-746.406-786.406,7.282-279.063,165.673-532.111,413.497-660.612l28.776,52.679ZM1403.133,750.1c-248.528,219.181-272.318,598.335-53.137,846.863,109.294,123.928,264.858,197.297,430.004,202.804v60.033c-364.341-11.046-650.742-315.358-639.695-679.698,4.852-160.046,67.722-312.871,176.895-430.002l-120.367-125c13.721-14.393,27.952-28.291,42.667-41.667l163.633,166.667ZM1527.033,665.8c-13.058,6.673-25.866,13.822-38.4,21.433l-30.533-51.667c13.113-7.942,26.499-15.424,40.133-22.433l28.8,52.667ZM1458.667,706.633c-12.556,8.686-24.776,17.848-36.633,27.467l-37.433-46.9c12.183-9.865,24.713-19.294,37.567-28.267l36.5,47.7ZM2082.7,487.458c393.581,156.131,586.073,601.761,429.942,995.342-113.206,285.374-385.738,475.697-692.642,483.706v-60.022c390.125-11.047,697.428-336.262,686.381-726.386-5.337-188.474-85.773-367-223.414-495.864l-31.433,34.5c265.853,249.375,279.211,667.051,29.836,932.904-120.014,127.944-286.027,202.847-461.369,208.163v-60.033c331.186-11.071,590.69-288.526,579.618-619.712-8.063-241.186-159.837-454.071-385.218-540.322l68.3-152.275ZM2093.033,608.733c39.884,19.77,77.665,43.524,112.767,70.9l32.1-34.133c-38.644-30.51-80.37-56.898-124.5-78.733l-20.367,41.967ZM1700.767,467c20.667-4.067,40.1-8.133,61.6-10.933v60.8c-21.333,2.067-41.433,7.233-61.6,11.833v-61.7ZM1680.633,901.833c30.033-9.733,22.567-61.5,21.3-100.667-23.567,13.8-51.667,24.467-64.167,44.433-15.233,32,11.467,66.467,42.867,56.233ZM1935.3,582c15-49.667-64.9-63.133-73.433-16.6-4.333,23.6.2,54.867,1.167,78.2,19.733-11.467,64.667-36.333,72.267-61.6M1679.467,473.267v63.733c-26.533,11.3-69.567,21.967-67.533,60.433,2,38.1,46.5,32.933,91.2,31.933v-41.433h59.233v111.333l40.267-20.133c-3.533-98.767-6.333-190.933,80.567-199,62.4-5.833,112.533,32.167,112.533,92.433,0,48.467-33.033,72.5-62.8,94.733-22.933,17.1-46.933,32.233-71.067,46.2v48.567c20.9-6.333,39.767-17.4,66.333-17.8,71-1,125.7,67.267,91.2,137.467-33.533,68.2-119.533,109.566-215.567,116.033v-59.233c38.6-1.567,70.433-11.433,101.833-28.433,24.7-13.333,58.667-36.9,63.967-66.333,4.567-25.4-19.233-44.067-47.4-39.1-46,8.2-86,46.3-119.667,61.633v-118.433l-40.233,20.1c.567,69.333,6.3,128.6-24.9,164.667-8.9,10.333-23.533,21.833-37.867,27.233-32.333,12.233-74.567-.767-94.767-20.133-30-28.733-42.7-94.833-9.467-137.4,24.533-31.5,72.433-46.633,107.767-68.667v-43.9c-87.767,5.1-150.233-10.833-150.433-91.2-.2-78.933,66.267-100.8,124.367-124.367l2.433-.933Z"/>
      </g>
    </g>
  </g>
</svg>