<?xml version="1.0" encoding="UTF-8"?>
<svg xmlns="http://www.w3.org/2000/svg" viewBox="0 0 3600.1 2401.738">
  <defs>
    <style>
      .cls-1 {
        fill: #1a9431;
      }

      .cls-1, .cls-2 {
        stroke-width: 0px;
      }

      .cls-2 {
        fill: #eee;
        fill-rule: evenodd;
      }
    </style>
  </defs>
  <g id="background">
    <path id="bg" class="cls-2" d="M400,.1h2800c220,0,400,180,400,400v1600c0,220-180,400-400,400H400C180,2400.1,0,2220.1,0,2000.1V400.1C0,180.1,180,.1,400,.1Z"/>
  </g>
  <g id="country">
    <g id="jp">
      <g id="_16" data-name="16">
        <path class="cls-1" d="M1599.092,401.235l-968.884,1597.901h2339.583L2020.82,401.064l-211.715,349.567-210.013-349.397ZM1480.471,702.468l186.016,292.724-583.747,954.077h-355.694l753.425-1246.802ZM2127.188,702.468l749.851,1246.802h-357.396l-533.711-890.597-142.958,243.88,201.503,339.867h-476.528l559.24-939.952Z"/>
      </g>
    </g>
  </g>
</svg>