<?xml version="1.0" encoding="UTF-8"?>
<svg xmlns="http://www.w3.org/2000/svg" viewBox="0 0 3600.1 2401.738">
  <defs>
    <style>
      .cls-1 {
        fill: #08b;
        fill-rule: evenodd;
      }

      .cls-1, .cls-2 {
        stroke-width: 0px;
      }

      .cls-2 {
        fill: #fff;
      }
    </style>
  </defs>
  <g id="background">
    <path id="jp17" class="cls-1" d="M400,.1h2800c220,0,400,180,400,400v1600c0,220-180,400-400,400H400C180,2400.1,0,2220.1,0,2000.1V400.1C0,180.1,180,.1,400,.1Z"/>
  </g>
  <g id="country">
    <g id="jp">
      <g id="_17" data-name="17">
        <path id="path2220" class="cls-2" d="M545.806,1927.842l843.231-1377.814c54.887-95.179,155.797-170.573,278.954-170.573h1045.256l-287.158,458.068c-57.99,100.559-152.96,160.468-314.772,160.468h-226.726l-118.007,184.332h301.788c103.572,0,143.08,49.749,96.814,129.978l-375.573,615.542h-270.037l325.48-532.514h-382.177c-46.3,0-62.821-32.202-34.459-81.385l297.004-469.849c20.489-35.529,65.72-63.206,119.786-63.206h318.335c28.586,0,62.142-24.611,78.763-53.435l70.393-118.608h-562.664c-74.014,0-154.895,45.133-184.95,97.251l-749.243,1221.745h-270.037Z"/>
        <g id="use3589">
          <path id="path5133" class="cls-2" d="M2861.576,1190.515l-441.878,737.327h270.037l441.878-737.327h-270.037Z"/>
        </g>
        <path id="path5133-2" data-name="path5133" class="cls-2" d="M2411.515,1190.515l-441.878,737.327h270.037l441.878-737.327h-270.037Z"/>
      </g>
    </g>
  </g>
</svg>