<?xml version="1.0" encoding="UTF-8"?>
<svg xmlns="http://www.w3.org/2000/svg" viewBox="0 0 3600.1 2401.738">
  <defs>
    <style>
      .cls-1 {
        fill: #fff;
      }

      .cls-1, .cls-2 {
        stroke-width: 0px;
      }

      .cls-2 {
        fill: #00006b;
        fill-rule: evenodd;
      }
    </style>
  </defs>
  <g id="background">
    <path id="jp18" class="cls-2" d="M400,.1h2800c220,0,400,180,400,400v1600c0,220-180,400-400,400H400C180,2400.1,0,2220.1,0,2000.1V400.1C0,180.1,180,.1,400,.1Z"/>
  </g>
  <g id="country">
    <g id="jp">
      <g id="_18" data-name="18">
        <path class="cls-1" d="M1902.857,1180.322c-51.569,74.598-86.635,159.336-102.857,248.561-16.222-89.225-51.288-173.963-102.857-248.561v-528.793h205.714v528.793ZM2457.167,905.937c-73.51-3.432-147.06,5.886-217.392,27.541-147.252-242.881-463.517-320.404-706.398-173.152-70.817,42.934-130.218,102.335-173.152,173.152-70.332-21.655-143.881-30.972-217.392-27.541,162.462-362.943,588.387-525.465,951.33-363.003,161.493,72.288,290.715,201.51,363.003,363.003h0ZM1810.286,1542.957c0-340.839,276.304-617.143,617.143-617.143,12.937,0,25.87.407,38.781,1.22,150.81,367.937-25.206,788.465-393.143,939.275-83.456,34.207-172.595,52.429-262.78,53.717v-205.744c283.975-5.681,509.578-240.493,503.897-524.469-.278-13.915-1.121-27.814-2.527-41.661-210.208,61.642-335.254,277.182-284.428,490.263-67.126,34.799-141.348,53.715-216.942,55.29v-150.75ZM1789.714,1542.957c0-340.839-276.304-617.143-617.143-617.143-12.937,0-25.87.407-38.781,1.22-150.81,367.937,25.206,788.465,393.143,939.275,83.456,34.207,172.595,52.429,262.78,53.717v-205.744c-283.975-5.681-509.578-240.493-503.897-524.469.278-13.915,1.121-27.814,2.527-41.661,210.208,61.642,335.254,277.182,284.428,490.263,67.126,34.799,141.348,53.715,216.942,55.29v-150.75Z"/>
      </g>
    </g>
  </g>
</svg>