<?xml version="1.0" encoding="UTF-8"?>
<svg xmlns="http://www.w3.org/2000/svg" viewBox="0 0 3600.1 2401.738">
  <defs>
    <style>
      .cls-1 {
        fill: #906;
        fill-rule: evenodd;
      }

      .cls-1, .cls-2 {
        stroke-width: 0px;
      }

      .cls-3 {
        stroke-miterlimit: 4;
        stroke-width: 68.571px;
      }

      .cls-3, .cls-4 {
        stroke: #ffb300;
      }

      .cls-4 {
        stroke-width: 68.571px;
      }

      .cls-2 {
        fill: #fff;
      }
    </style>
  </defs>
  <g id="background">
    <path id="jp19" class="cls-1" d="M400,.1h2800c220,0,400,180,400,400v1600c0,220-180,400-400,400H400C180,2400.1,0,2220.1,0,2000.1V400.1C0,180.1,180,.1,400,.1Z"/>
  </g>
  <g id="country">
    <g id="jp">
      <g id="_19" data-name="19">
        <path class="cls-2" d="M909.055,1542.957h1544.352l-348.608-603.807c-35.387-61.293-100.786-99.05-171.56-99.05h-266.477c-70.775,0-136.173,37.758-171.56,99.05l-325.385,569.521h-237.573l388.198-672.378c71.525-123.897,203.265-200.702,346.32-201.908h266.477c144.269,0,277.58,76.967,349.714,201.908l449.619,778.763c24.598,42.605,10,97.083-32.604,121.681-13.541,7.818-28.902,11.934-44.538,11.934H790.286l118.769-205.714Z"/>
        <g>
          <path class="cls-4" d="M1800,908.671v428.571M1971.429,977.243v222.857M1628.571,977.243v222.857"/>
          <g id="a">
            <path class="cls-3" d="M1791.681,1280.436l169.706,169.706"/>
            <path class="cls-3" d="M1967.269,1198.882l96.975,96.975"/>
            <path class="cls-3" d="M1987.71,1186.76l-109.096,109.096"/>
          </g>
          <g id="a-2" data-name="a">
            <path class="cls-3" d="M1808.319,1280.436l-169.706,169.706"/>
            <path class="cls-3" d="M1632.731,1198.882l-96.975,96.975"/>
            <path class="cls-3" d="M1612.29,1186.76l109.096,109.096"/>
          </g>
        </g>
      </g>
    </g>
  </g>
</svg>