<?xml version="1.0" encoding="UTF-8"?>
<svg xmlns="http://www.w3.org/2000/svg" viewBox="0 0 3600.1 2401.738">
  <defs>
    <style>
      .cls-1 {
        fill: #00693f;
      }

      .cls-1, .cls-2 {
        stroke-width: 0px;
      }

      .cls-3 {
        fill: none;
        stroke: #00693f;
        stroke-width: 97.079px;
      }

      .cls-2 {
        fill: #eee;
        fill-rule: evenodd;
      }
    </style>
  </defs>
  <g id="background">
    <path id="bg" class="cls-2" d="M400,.1h2800c220,0,400,180,400,400v1600c0,220-180,400-400,400H400C180,2400.1,0,2220.1,0,2000.1V400.1C0,180.1,180,.1,400,.1Z"/>
  </g>
  <g id="country">
    <g id="jp">
      <g id="_21" data-name="21">
        <path id="circ" class="cls-3" d="M2471.461,1200.248c-.164,370.838-300.92,671.328-671.757,671.164-370.606-.164-671-300.558-671.164-671.164-.164-370.837,300.327-671.593,671.164-671.757s671.593,300.327,671.757,671.164v.593Z"/>
        <path id="rect3143" class="cls-1" d="M1906.888,695.438v84.135h-178.18v718.382h-232.989v-588.944h51.775v540.303h129.438v-669.843l-310.652.101v847.82h491.865v-718.382h48.742v181.213h177.775v407.73h-48.337v-355.955h-129.438v485.393h307.214v-666.607h-177.775v-51.775h177.775v-129.438h-177.775v-84.135h-129.438Z"/>
      </g>
    </g>
  </g>
</svg>