<?xml version="1.0" encoding="UTF-8"?>
<svg xmlns="http://www.w3.org/2000/svg" viewBox="0 0 3600.1 2401.738">
  <defs>
    <style>
      .cls-1 {
        fill: #004a8f;
        fill-rule: evenodd;
        stroke-width: 0px;
      }

      .cls-2 {
        fill: #f98f00;
        stroke: #fff;
        stroke-linecap: round;
        stroke-linejoin: round;
        stroke-width: 133.333px;
      }
    </style>
  </defs>
  <g id="background">
    <path id="jp22" class="cls-1" d="M400,.1h2800c220,0,400,180,400,400v1600c0,220-180,400-400,400H400C180,2400.1,0,2220.1,0,2000.1V400.1C0,180.1,180,.1,400,.1Z"/>
  </g>
  <g id="country">
    <g id="jp">
      <g id="_22" data-name="22">
        <path class="cls-2" d="M1866.05,666.767c47.842,0,88.982,33.886,98.148,80.841,45.156,231.33,172.858,438.36,359.32,582.529,99.323,76.794,218.224,124.137,343.149,136.629-232.687,14.101-455.366,99.611-637.685,244.877-43.194,34.416-106.11,27.299-140.525-15.895-34.416-43.194-27.299-106.11,15.895-140.525,29.552-23.546,60.092-45.826,91.537-66.778,45.96-30.624,58.393-92.708,27.769-138.668-2.813-4.222-5.944-8.224-9.365-11.971-108.042-118.351-291.569-126.708-409.92-18.666-111.83,102.089-126.354,273.008-33.354,392.504-182.319-145.265-404.998-230.776-637.685-244.877,124.925-12.492,243.827-59.835,343.149-136.629,186.462-144.169,314.164-351.199,359.32-582.529,9.166-46.956,50.306-80.841,98.148-80.841h132.099ZM1635.803,747.608c3.374-17.287,6.278-34.662,8.708-52.107,2.295-16.474,16.382-28.735,33.015-28.735h56.425M1866.05,666.767h56.425c16.633,0,30.72,12.261,33.015,28.735,2.43,17.445,5.334,34.82,8.708,52.107M1995.889,1488.445c9.373-6.245,18.825-12.372,28.353-18.378,31.148-19.633,40.483-60.799,20.85-91.947-.037-.059-.074-.118-.112-.176-9.042-14.247-19.31-27.677-30.687-40.139"/>
      </g>
    </g>
  </g>
</svg>