<?xml version="1.0" encoding="UTF-8"?>
<svg xmlns="http://www.w3.org/2000/svg" viewBox="0 0 3600.1 2401.738">
  <defs>
    <style>
      .cls-1 {
        fill: #fff;
      }

      .cls-1, .cls-2 {
        stroke-width: 0px;
      }

      .cls-2 {
        fill: #a63c47;
        fill-rule: evenodd;
      }
    </style>
  </defs>
  <g id="background">
    <path id="jp23" class="cls-2" d="M400,.1h2800c220,0,400,180,400,400v1600c0,220-180,400-400,400H400C180,2400.1,0,2220.1,0,2000.1V400.1C0,180.1,180,.1,400,.1Z"/>
  </g>
  <g id="country">
    <g id="jp">
      <g id="_23" data-name="23">
        <path class="cls-1" d="M2146.286,881.243c-86.172,50.963-156.82,124.455-204.343,212.571,0,0,146.4,80.229,144.686,250.286,0,13.029-1.029,26.057-2.743,38.057-17.44,270.784-251.093,476.16-521.877,458.72-23.498-1.513-46.856-4.714-69.894-9.577,267.996,172.446,625.045,94.987,797.491-173.01,164.875-256.231,102.117-596.495-143.319-777.047Z"/>
        <path class="cls-1" d="M1592.571,1816.557c200.804.032,379.756-126.692,446.4-316.114-32.542,47.146-77.359,84.494-129.6,108-131.829-265.9-39.758-588.444,212.571-744.686,54.857-34.286,115.543-59.314,180.686-73.371,0,0-152.914-70.629-362.743-27.429,0,0-40.114-190.629-137.143-278.743l-3.429-4.114-2.743,4.114c-97.371,88.114-137.143,279.086-137.143,279.086-210.171-43.543-363.086,27.086-363.086,27.086,310.487,67.487,507.478,373.897,439.991,684.384-10.041,46.195-25.737,90.976-46.734,133.33,0,0-175.2-69.257-177.257-264.686-1.714-169.714,144.686-250.286,144.686-250.286-47.449-87.765-117.839-160.999-203.657-211.886-254.828,190.422-307.039,551.369-116.617,806.196,28.106,37.612,60.706,71.647,97.074,101.347,49.371,17.829,102.857,27.429,158.743,27.429v.343Z"/>
      </g>
    </g>
  </g>
</svg>