<?xml version="1.0" encoding="UTF-8"?>
<svg xmlns="http://www.w3.org/2000/svg" viewBox="0 0 3600.1 2401.738">
  <defs>
    <style>
      .cls-1 {
        fill: none;
        stroke: #fff;
        stroke-width: 368.155px;
      }

      .cls-2 {
        fill: #090;
        fill-rule: evenodd;
      }

      .cls-2, .cls-3 {
        stroke-width: 0px;
      }

      .cls-3 {
        fill: #fff;
      }
    </style>
  </defs>
  <g id="background">
    <path id="jp24" class="cls-2" d="M400,.1h2800c220,0,400,180,400,400v1600c0,220-180,400-400,400H400C180,2400.1,0,2220.1,0,2000.1V400.1C0,180.1,180,.1,400,.1Z"/>
  </g>
  <g id="country">
    <g id="jp">
      <g id="_24" data-name="24">
        <path class="cls-3" d="M2746.52,502.709l297.419-68.665-1063.317,1490.715h-342.524c75.98-34.937,143.896-85.24,199.463-147.737l908.959-1274.314ZM2642.083,526.821l-555.608,778.934,291.39,296.52-215.954,302.756-282.98-287.963-44.296-559.134,38.47-53.933c-83.321-109.61-201.127-187.967-334.425-222.44l1103.403-254.741Z"/>
        <circle class="cls-1" cx="1385.243" cy="1374.857" r="365.825"/>
      </g>
    </g>
  </g>
</svg>