<?xml version="1.0" encoding="UTF-8"?>
<svg xmlns="http://www.w3.org/2000/svg" viewBox="0 0 3600.1 2401.738">
  <defs>
    <style>
      .cls-1 {
        fill: #3e88c0;
        fill-rule: evenodd;
      }

      .cls-1, .cls-2 {
        stroke-width: 0px;
      }

      .cls-2 {
        fill: #fff;
      }
    </style>
  </defs>
  <g id="background">
    <path id="jp25" class="cls-1" d="M400,.1h2800c220,0,400,180,400,400v1600c0,220-180,400-400,400H400C180,2400.1,0,2220.1,0,2000.1V400.1C0,180.1,180,.1,400,.1Z"/>
  </g>
  <g id="country">
    <g id="jp">
      <g id="_25" data-name="25">
        <path class="cls-2" d="M2978.182,585.555l-106.027,280.658-428.722,142.907c-26.934-75.029-66.783-144.769-117.745-206.068l652.494-217.498ZM2858.902,901.295l-106.026,316.952-269.981,53.7c3.711-79.576-6.515-159.189-30.216-235.244l406.224-135.408ZM621.818,585.555l993.278,331.093c-41.661,8.34-79.493,29.967-107.818,61.635-32.216,36.019-57.508,77.675-74.605,122.874l-704.828-234.943-106.027-280.658ZM741.098,901.295l682.298,227.433c-24.087,81.451-21.119,168.515,8.46,248.136l-584.731-194.91-106.026-280.658ZM1447.207,1412.645c63.601,130.042,193.585,214.551,338.247,219.912v261.926c-327.494-7.279-599.178-255.536-635.879-581.049l297.631,99.21ZM1325.344,789.399c77.346-81.457,174.353-141.638,281.688-174.753,83.008-25.61,152.429-83.17,192.967-160,40.539,76.83,109.959,134.39,192.967,160,345.429,106.573,539.06,472.993,432.487,818.422-83.078,269.277-329.178,455.154-610.909,461.417v-261.926c216.748-8.033,385.946-190.255,377.912-407.003-3.392-91.533-38.672-179.001-99.736-247.273-72.299-80.833-196.437-87.751-277.27-15.452-5.433,4.86-10.592,10.018-15.452,15.452-22.139-26.445-50.853-46.593-83.253-58.415l-391.403-130.468Z"/>
      </g>
    </g>
  </g>
</svg>