<?xml version="1.0" encoding="UTF-8"?>
<svg xmlns="http://www.w3.org/2000/svg" viewBox="0 0 3600.1 2401.738">
  <defs>
    <style>
      .cls-1 {
        fill: #fff;
      }

      .cls-1, .cls-2, .cls-3 {
        stroke-width: 0px;
      }

      .cls-2 {
        fill: #942b9d;
        fill-rule: evenodd;
      }

      .cls-3 {
        fill: #fc0;
      }
    </style>
  </defs>
  <g id="background">
    <path id="jp26" class="cls-2" d="M400,.1h2800c220,0,400,180,400,400v1600c0,220-180,400-400,400H400C180,2400.1,0,2220.1,0,2000.1V400.1C0,180.1,180,.1,400,.1Z"/>
  </g>
  <g id="country">
    <g id="jp">
      <g id="_26" data-name="26">
        <g>
          <g id="b">
            <path id="a" class="cls-1" d="M1540.172,750.065c10.102-72.112,49.718-136.782,109.371-178.539,58.756-41.129,109.706-92.407,150.457-151.426,40.751,59.019,91.701,110.297,150.457,151.426,59.653,41.757,99.269,106.427,109.371,178.539l-259.828,568.217-259.828-568.217Z"/>
            <path id="a-2" data-name="a" class="cls-1" d="M2059.828,1650.135c-10.102,72.112-49.718,136.782-109.371,178.539-58.756,41.129-109.706,92.407-150.457,151.426-40.751-59.019-91.701-110.297-150.457-151.426-59.653-41.757-99.269-106.427-109.371-178.539l259.828-568.217,259.828,568.217Z"/>
          </g>
          <g id="b-2" data-name="b">
            <path id="a-3" data-name="a" class="cls-1" d="M2059.828,750.065c67.502-27.307,143.316-25.334,209.305,5.449,64.997,30.319,134.88,48.804,206.367,54.586-30.736,64.801-49.669,134.564-55.91,206.012-6.336,72.54-42.534,139.183-99.934,183.988l-622.005,59.091,362.177-509.126Z"/>
            <path id="a-4" data-name="a" class="cls-1" d="M1540.172,1650.135c-67.502,27.307-143.316,25.334-209.305-5.449-64.997-30.319-134.88-48.804-206.367-54.586,30.736-64.801,49.669-134.564,55.91-206.012,6.336-72.54,42.534-139.183,99.934-183.988l622.005-59.091-362.177,509.126Z"/>
          </g>
          <g id="b-3" data-name="b">
            <path id="a-5" data-name="a" class="cls-1" d="M2319.656,1200.1c57.4,44.804,93.597,111.448,99.934,183.988,6.241,71.448,25.174,141.211,55.91,206.012-71.487,5.782-141.37,24.267-206.367,54.586-65.989,30.783-141.803,32.756-209.305,5.449l-362.177-509.126,622.005,59.091Z"/>
            <path id="a-6" data-name="a" class="cls-1" d="M1280.344,1200.1c-57.4-44.804-93.597-111.448-99.934-183.988-6.241-71.448-25.174-141.211-55.91-206.012,71.487-5.782,141.37-24.267,206.367-54.586,65.989-30.783,141.803-32.756,209.305-5.449l362.177,509.126-622.005-59.091Z"/>
          </g>
          <g id="d">
            <path id="c" class="cls-3" d="M1691.072,918.637l-36.376-105.899c-27.565-80.249,15.144-167.649,95.392-195.214,80.249-27.565,167.649,15.144,195.214,95.392,11.111,32.346,11.111,67.475,0,99.822l-36.376,105.899c-8.482,24.692,4.659,51.584,29.351,60.066,18.201,6.252,38.375.846,51.011-13.668l-189.29,258.702-108.928-305.099Z"/>
            <path id="c-2" data-name="c" class="cls-3" d="M1908.928,1481.563l36.376,105.899c27.565,80.249-15.144,167.649-95.392,195.214-80.249,27.565-167.649-15.144-195.214-95.392-11.111-32.346-11.111-67.475,0-99.822l36.376-105.899c8.482-24.692-4.659-51.584-29.351-60.066-18.201-6.252-38.375-.846-51.011,13.668l189.29-258.702,108.928,305.099Z"/>
          </g>
          <g id="d-2" data-name="d">
            <path id="c-3" data-name="c" class="cls-3" d="M1989.29,965.034l73.523-84.452c55.715-63.996,152.76-70.71,216.757-14.995,63.996,55.715,70.71,152.76,14.995,216.757-22.457,25.795-52.88,43.36-86.448,49.911l-109.899,21.447c-25.625,5.001-42.344,29.827-37.343,55.452,3.686,18.888,18.455,33.657,37.343,37.343l-318.688-34.579,209.76-246.884Z"/>
            <path id="c-4" data-name="c" class="cls-3" d="M1610.71,1435.166l-73.523,84.452c-55.715,63.996-152.76,70.71-216.757,14.995-63.996-55.715-70.71-152.76-14.995-216.757,22.457-25.795,52.88-43.36,86.448-49.911l109.899-21.447c25.625-5.001,42.344-29.827,37.343-55.452-3.686-18.888-18.455-33.657-37.343-37.343l318.688,34.579-209.76,246.884Z"/>
          </g>
          <g id="d-3" data-name="d">
            <path id="c-5" data-name="c" class="cls-3" d="M2098.218,1246.497l109.899,21.447c83.28,16.252,137.617,96.939,121.364,180.219-16.252,83.28-96.939,137.617-180.219,121.364-33.568-6.551-63.991-24.115-86.448-49.911l-73.523-84.452c-17.143-19.691-47.003-21.757-66.694-4.614-14.515,12.636-19.92,32.811-13.668,51.011l-129.397-293.281,318.688,58.216Z"/>
            <path id="c-6" data-name="c" class="cls-3" d="M1501.782,1153.703l-109.899-21.447c-83.28-16.252-137.617-96.939-121.364-180.219,16.252-83.28,96.939-137.617,180.219-121.364,33.568,6.551,63.991,24.115,86.448,49.911l73.523,84.452c17.143,19.691,47.003,21.757,66.694,4.614,14.515-12.636,19.92-32.811,13.668-51.011l129.397,293.281-318.688-58.216Z"/>
          </g>
          <g id="f">
            <path id="e" class="cls-1" d="M1752.095,985.955l-22.372-166.407c-5.218-38.813,22.016-74.507,60.829-79.725,38.813-5.218,74.507,22.016,79.725,60.829.843,6.271.843,12.626,0,18.896l-22.372,166.407c-5.218,38.813,22.016,74.507,60.829,79.725,18.772,2.524,37.774-2.568,52.769-14.139l-161.503,219.468-47.905-285.054Z"/>
            <path id="e-2" data-name="e" class="cls-1" d="M1847.905,1414.245l22.372,166.407c5.218,38.813-22.016,74.507-60.829,79.725-38.813,5.218-74.507-22.016-79.725-60.829-.843-6.271-.843-12.626,0-18.896l22.372-166.407c5.218-38.813-22.016-74.507-60.829-79.725-18.772-2.524-37.774,2.568-52.769,14.139l161.503-219.468,47.905,285.054Z"/>
          </g>
          <g id="f-2" data-name="f">
            <path id="e-3" data-name="e" class="cls-1" d="M1961.503,1051.541l132.927-102.578c31.004-23.925,75.533-18.187,99.458,12.817,23.925,31.004,18.187,75.533-12.817,99.458-5.009,3.865-10.513,7.043-16.365,9.448l-155.299,63.829c-36.222,14.887-53.517,56.32-38.629,92.542,7.2,17.519,21.11,31.429,38.629,38.629l-270.817-30.131,222.912-184.014Z"/>
            <path id="e-4" data-name="e" class="cls-1" d="M1638.497,1348.659l-132.927,102.578c-31.004,23.925-75.533,18.187-99.458-12.817-23.925-31.004-18.187-75.533,12.817-99.458,5.009-3.865,10.513-7.043,16.365-9.448l155.299-63.829c36.222-14.887,53.517-56.32,38.629-92.542-7.2-17.519-21.11-31.429-38.629-38.629l270.817,30.131-222.912,184.014Z"/>
          </g>
          <g id="f-3" data-name="f">
            <path id="e-5" data-name="e" class="cls-1" d="M2009.408,1265.686l155.299,63.829c36.222,14.887,53.517,56.32,38.63,92.542-14.887,36.222-56.32,53.517-92.542,38.63-5.852-2.405-11.356-5.583-16.365-9.448l-132.927-102.578c-31.004-23.925-75.533-18.187-99.458,12.817-11.572,14.995-16.663,33.997-14.139,52.769l-109.314-249.6,270.817,101.04Z"/>
            <path id="e-6" data-name="e" class="cls-1" d="M1590.592,1134.514l-155.299-63.829c-36.222-14.887-53.517-56.32-38.63-92.542,14.887-36.222,56.32-53.517,92.542-38.63,5.852,2.405,11.356,5.583,16.365,9.448l132.927,102.578c31.004,23.925,75.533,18.187,99.458-12.817,11.572-14.995,16.663-33.997,14.139-52.769l109.314,249.6-270.817-101.04Z"/>
          </g>
          <circle class="cls-3" cx="1800" cy="1200.1" r="118.182"/>
        </g>
      </g>
    </g>
  </g>
</svg>