<?xml version="1.0" encoding="UTF-8"?>
<svg xmlns="http://www.w3.org/2000/svg" viewBox="0 0 3600.1 2401.738">
  <defs>
    <style>
      .cls-1 {
        stroke-miterlimit: 120;
        stroke-width: 240px;
      }

      .cls-1, .cls-2 {
        fill: none;
        stroke: #fff;
      }

      .cls-3 {
        fill: #fff;
      }

      .cls-3, .cls-4 {
        stroke-width: 0px;
      }

      .cls-2 {
        stroke-miterlimit: 120;
        stroke-width: 240px;
      }

      .cls-4 {
        fill: #33419a;
        fill-rule: evenodd;
      }
    </style>
  </defs>
  <g id="background">
    <path id="jp27" class="cls-4" d="M400,.1h2800c220,0,400,180,400,400v1600c0,220-180,400-400,400H400C180,2400.1,0,2220.1,0,2000.1V400.1C0,180.1,180,.1,400,.1Z"/>
  </g>
  <g id="country">
    <g id="jp">
      <g id="_27" data-name="27">
        <g id="b">
          <circle id="a" class="cls-2" cx="2520" cy="1200.1" r="240"/>
          <circle id="a-2" data-name="a" class="cls-1" cx="1800" cy="1615.792" r="240"/>
        </g>
        <g id="b-2" data-name="b">
          <circle id="a-3" data-name="a" class="cls-2" cx="1080" cy="1200.1" r="240"/>
          <circle id="a-4" data-name="a" class="cls-1" cx="1800" cy="784.408" r="240"/>
        </g>
        <path id="c" class="cls-3" d="M2340,1511.869c-57.395-33.137-130.786-13.472-163.923,43.923-10.532,18.242-16.077,38.936-16.077,60l-180-311.769c57.395,33.137,130.786,13.472,163.923-43.923,10.532-18.242,16.077-38.936,16.077-60l180,311.769Z"/>
        <path id="c-2" data-name="c" class="cls-3" d="M1620,1304.023c57.395-33.137,77.06-106.528,43.923-163.923-10.532-18.242-25.681-33.391-43.923-43.923h360c-57.395,33.137-77.06,106.528-43.923,163.923,10.532,18.242,25.681,33.391,43.923,43.923h-360Z"/>
        <path id="c-3" data-name="c" class="cls-3" d="M1260,1511.869c57.395-33.137,130.786-13.472,163.923,43.923,10.532,18.242,16.077,38.936,16.077,60l180-311.769c-57.395,33.137-130.786,13.472-163.923-43.923-10.532-18.242-16.077-38.936-16.077-60l-180,311.769Z"/>
      </g>
    </g>
  </g>
</svg>