<?xml version="1.0" encoding="UTF-8"?>
<svg xmlns="http://www.w3.org/2000/svg" viewBox="0 0 3600.1 2401.738">
  <defs>
    <style>
      .cls-1 {
        fill: #01a0c7;
        fill-rule: evenodd;
      }

      .cls-1, .cls-2 {
        stroke-width: 0px;
      }

      .cls-2 {
        fill: #fff;
      }
    </style>
  </defs>
  <g id="background">
    <path id="jp28" class="cls-1" d="M400,.1h2800c220,0,400,180,400,400v1600c0,220-180,400-400,400H400C180,2400.1,0,2220.1,0,2000.1V400.1C0,180.1,180,.1,400,.1Z"/>
  </g>
  <g id="country">
    <g id="jp">
      <g id="_28" data-name="28">
        <g>
          <path class="cls-2" d="M197.852,496.6c671.738,58.933,1124.919-97.534,1737.72-225.298,579.409-120.803,883.721-144.689,1460.882,240.543-567.778-108.252-847.782-34.383-1635.821,121.32-307.365,60.73-541.278,135.559-758.599,147.929-278.28,15.84-648.421-133.909-804.183-284.498v.004Z"/>
          <path class="cls-2" d="M210.494,1839.57c658.31,127.707,1124.919-50.09,1737.72-177.853,579.408-120.803,784.687-194.191,1460.882,257.155-508.467-127.229-1050.438-40.705-1628.704,122.508-108.72,30.684-495.938,117.091-765.715,117.091-239.419,0-648.421-168.305-804.183-318.901h0Z"/>
          <path class="cls-2" d="M2558.692,639.139c-275.939-.386-550.23,72.942-840.609,130.091-600.927,118.273-944.4,244.064-1507.627,100.525,105.021,201.87,457.077,354.56,788.751,335.663,14.892-.848,29.916-1.872,45.041-3.01l95.861,213.032c-231.872,43.204-461.122,59.602-942.302,27.968,171.444,152.057,603.006,303.394,934.698,284.517,217.32-12.369,311.466-39.898,641.136-113.02,859.356-190.614,1071.788-229.231,1622.786-137.747-258.822-268.204-560.606-333.434-874.656-318.808l-97.35-216.347c413.59-78.162,577.779-68.282,984.646,9.291-296.877-237.696-574.446-311.785-850.385-312.178l.009.023ZM2066.275,1016.153l84.759,188.367c-149.51,27.345-299.087,61.735-445.578,90.567-77.049,15.165-145.412,29.697-208.387,43.503l-83.531-185.644c111.775-20.013,234.269-45.223,372.763-75.624,104.319-22.899,194.36-42.616,279.966-61.166l.007-.004Z"/>
        </g>
      </g>
    </g>
  </g>
</svg>