<?xml version="1.0" encoding="UTF-8"?>
<svg xmlns="http://www.w3.org/2000/svg" viewBox="0 0 3600.1 2401.738">
  <defs>
    <style>
      .cls-1 {
        fill: #29437f;
      }

      .cls-1, .cls-2 {
        stroke-width: 0px;
      }

      .cls-2 {
        fill: #eee;
        fill-rule: evenodd;
      }
    </style>
  </defs>
  <g id="background">
    <path id="bg" class="cls-2" d="M400,.1h2800c220,0,400,180,400,400v1600c0,220-180,400-400,400H400C180,2400.1,0,2220.1,0,2000.1V400.1C0,180.1,180,.1,400,.1Z"/>
  </g>
  <g id="country">
    <g id="jp">
      <g id="_30" data-name="30">
        <path class="cls-1" d="M1025.435,1400.092c-110.452-427.781,146.793-864.105,574.574-974.557,427.781-110.452,864.105,146.793,974.557,574.574,33.87,131.177,33.87,268.807,0,399.984l-774.565,599.976-356.383-276.053,676.37-523.914c0-176.724-143.263-319.987-319.987-319.987s-319.987,143.263-319.987,319.987l293.088,227.025-356.383,276.053-391.283-303.086Z"/>
      </g>
    </g>
  </g>
</svg>