<?xml version="1.0" encoding="UTF-8"?>
<svg xmlns="http://www.w3.org/2000/svg" viewBox="0 0 3600.1 2401.738">
  <defs>
    <style>
      .cls-1 {
        fill: #fff;
      }

      .cls-1, .cls-2 {
        stroke-width: 0px;
      }

      .cls-2 {
        fill: #2e328c;
        fill-rule: evenodd;
      }
    </style>
  </defs>
  <g id="background">
    <path id="jp31" class="cls-2" d="M400,.1h2800c220,0,400,180,400,400v1600c0,220-180,400-400,400H400C180,2400.1,0,2220.1,0,2000.1V400.1C0,180.1,180,.1,400,.1Z"/>
  </g>
  <g id="country">
    <g id="jp">
      <g id="_31" data-name="31">
        <path class="cls-1" d="M1242.848,394.341c50.125-34.325,118.585-21.518,152.911,28.607,12.534,18.303,19.241,39.968,19.241,62.152v257.81c70.655-25.003,145.052-37.789,220-37.81h990l-412.5,275h-577.5c-200.826,0-363.629,162.802-363.629,363.629,0,7.128.21,14.255.629,21.371,0,200.479,162.521,363,363,363s363-162.521,363-363c0-141.944-82.735-270.866-211.775-330h420.352c182.254,315.673,74.096,719.323-241.577,901.577-315.673,182.254-719.323,74.096-901.577-241.577-86.511-149.841-110.722-327.663-67.419-495.178l170.562-659.822h-136.565l212.848-145.759Z"/>
      </g>
    </g>
  </g>
</svg>