<?xml version="1.0" encoding="UTF-8"?>
<svg xmlns="http://www.w3.org/2000/svg" viewBox="0 0 3600.1 2401.738">
  <defs>
    <style>
      .cls-1 {
        fill: gold;
      }

      .cls-1, .cls-2 {
        stroke-width: 0px;
      }

      .cls-2 {
        fill: #950017;
        fill-rule: evenodd;
      }
    </style>
  </defs>
  <g id="background">
    <path id="jp32" class="cls-2" d="M400,.1h2800c220,0,400,180,400,400v1600c0,220-180,400-400,400H400C180,2400.1,0,2220.1,0,2000.1V400.1C0,180.1,180,.1,400,.1Z"/>
  </g>
  <g id="country">
    <g id="jp">
      <g id="_32" data-name="32">
        <g id="b">
          <path id="a" class="cls-1" d="M1800,1200.1l240-214.663c48.323-43.222,109.817-68.874,174.53-72.807v193.073c-52.134,9.648-86.575,59.733-76.927,111.867,9.648,52.134,59.733,86.575,111.867,76.927,52.134-9.648,86.575-59.733,76.927-111.867-7.236-39.099-37.828-69.691-76.927-76.927v-193.073c158.765,9.648,279.648,146.175,269.999,304.94-9.648,158.765-146.175,279.648-304.94,269.999-151.993-9.237-270.53-135.196-270.53-287.47h-144Z"/>
          <path id="a-2" data-name="a" class="cls-1" d="M1800,1200.1l-240,214.663c-48.323,43.222-109.817,68.874-174.53,72.807v-193.073c52.134-9.648,86.575-59.733,76.927-111.867-9.648-52.134-59.733-86.575-111.867-76.927-52.134,9.648-86.575,59.733-76.927,111.867,7.236,39.099,37.828,69.691,76.927,76.927v193.073c-158.765-9.648-279.648-146.175-269.999-304.94,9.648-158.765,146.175-279.648,304.94-269.999,151.993,9.237,270.53,135.196,270.53,287.47h144Z"/>
        </g>
        <g id="b-2" data-name="b">
          <path id="a-3" data-name="a" class="cls-1" d="M1800,1200.1l214.663,240c43.222,48.323,68.874,109.817,72.807,174.53h-193.073c-9.648-52.134-59.733-86.575-111.867-76.927-52.134,9.648-86.575,59.733-76.927,111.867,9.648,52.134,59.733,86.575,111.867,76.927,39.099-7.236,69.691-37.828,76.927-76.927h193.073c-9.648,158.765-146.175,279.648-304.94,269.999-158.765-9.648-279.648-146.175-269.999-304.94,9.237-151.993,135.196-270.53,287.47-270.53v-144Z"/>
          <path id="a-4" data-name="a" class="cls-1" d="M1800,1200.1l-214.663-240c-43.222-48.323-68.874-109.817-72.807-174.53h193.073c9.648,52.134,59.733,86.575,111.867,76.927,52.134-9.648,86.575-59.733,76.927-111.867s-59.733-86.575-111.867-76.927c-39.099,7.236-69.691,37.828-76.927,76.927h-193.073c9.648-158.765,146.175-279.648,304.94-269.999,158.765,9.648,279.648,146.175,269.999,304.94-9.237,151.993-135.196,270.53-287.47,270.53v144Z"/>
        </g>
      </g>
    </g>
  </g>
</svg>