<?xml version="1.0" encoding="UTF-8"?>
<svg xmlns="http://www.w3.org/2000/svg" viewBox="0 0 3600.1 2401.738">
  <defs>
    <style>
      .cls-1 {
        fill: #650065;
        fill-rule: evenodd;
      }

      .cls-1, .cls-2 {
        stroke-width: 0px;
      }

      .cls-2 {
        fill: #fed61c;
      }
    </style>
  </defs>
  <g id="background">
    <path id="jp33" class="cls-1" d="M400,.1h2800c220,0,400,180,400,400v1600c0,220-180,400-400,400H400C180,2400.1,0,2220.1,0,2000.1V400.1C0,180.1,180,.1,400,.1Z"/>
  </g>
  <g id="country">
    <g id="jp">
      <g id="_33" data-name="33">
        <path id="path5" class="cls-2" d="M2686.521,859.674l-313.053.469c-132.638-215.878-305.69-323.899-573.47-326.71-244.001,0-457.293,131.12-573.456,326.71l-313.063-.469,886.523,524.824,886.523-524.824h-.003ZM1470.66,814.712l246.191,145.752v-260.57c27.061-4.474,54.822-6.885,83.147-6.885s56.086,2.411,83.138,6.885v260.57l246.204-145.752c42.109,36.054,78.222,78.872,106.691,126.8l-436.034,258.132-436.038-258.132c28.474-47.928,64.583-90.745,106.7-126.8Z"/>
        <path id="path7" class="cls-2" d="M2304.262,1146.578c1.842,17.589,2.826,35.436,2.826,53.522,0,234.028-158.579,430.918-374.11,489.366l-132.98-248.231-132.971,248.227c-215.536-58.443-374.119-255.333-374.119-489.361,0-18.09.984-35.932,2.831-53.522l-147.378-87.255c-9.765,45.395-15.029,92.461-15.029,140.777,0,368.187,298.475,666.667,666.667,666.667s666.667-298.48,666.667-666.667c0-48.316-5.264-95.382-15.029-140.777l-147.373,87.255h0Z"/>
      </g>
    </g>
  </g>
</svg>