<?xml version="1.0" encoding="UTF-8"?>
<svg xmlns="http://www.w3.org/2000/svg" viewBox="0 0 3600.1 2401.738">
  <defs>
    <style>
      .cls-1 {
        fill: #fff;
      }

      .cls-1, .cls-2 {
        stroke-width: 0px;
      }

      .cls-2 {
        fill: #ab3748;
        fill-rule: evenodd;
      }
    </style>
  </defs>
  <g id="background">
    <path id="jp34" class="cls-2" d="M400,.1h2800c220,0,400,180,400,400v1600c0,220-180,400-400,400H400C180,2400.1,0,2220.1,0,2000.1V400.1C0,180.1,180,.1,400,.1Z"/>
  </g>
  <g id="country">
    <g id="jp">
      <g id="_34" data-name="34">
        <path class="cls-1" d="M1917.431,489.741c-199.473,46.485-323.494,245.873-277.009,445.346,46.485,199.473,245.873,323.494,445.346,277.009,199.473-46.485,323.494-245.873,277.009-445.346-1.843-7.91-3.946-15.757-6.304-23.528,93.269,307.332-80.263,632.082-387.595,725.351-163.034,49.477-339.564,24.97-482.954-67.047,202.495,265.643,581.996,316.835,847.639,114.34,77.194-58.844,139.091-135.402,180.463-223.208-51.119,394.346-412.239,672.586-806.584,621.467-394.346-51.119-672.586-412.239-621.468-806.584,51.119-394.346,412.239-672.586,806.584-621.467,8.312,1.077,16.604,2.3,24.873,3.667Z"/>
      </g>
    </g>
  </g>
</svg>