<?xml version="1.0" encoding="UTF-8"?>
<svg xmlns="http://www.w3.org/2000/svg" viewBox="0 0 3600.1 2401.738">
  <defs>
    <style>
      .cls-1 {
        fill: #693c34;
        fill-rule: evenodd;
      }

      .cls-1, .cls-2 {
        stroke-width: 0px;
      }

      .cls-2 {
        fill: #fff;
      }
    </style>
  </defs>
  <g id="background">
    <path id="jp35" class="cls-1" d="M400,.1h2800c220,0,400,180,400,400v1600c0,220-180,400-400,400H400C180,2400.1,0,2220.1,0,2000.1V400.1C0,180.1,180,.1,400,.1Z"/>
  </g>
  <g id="country">
    <g id="jp">
      <g id="_35" data-name="35">
        <path class="cls-2" d="M1346.158,1679.295c254.541,241.073,653.143,241.073,907.683,0l596.558-564.995h-396c-47.386-361.415-378.785-615.985-740.199-568.599-296.443,38.867-529.732,272.156-568.599,568.599h-396l596.558,564.995ZM1800,1134.1l-170.979,423.187c-197.269-94.429-280.637-330.896-186.208-528.165,94.429-197.269,330.896-280.637,528.165-186.208,197.269,94.429,280.637,330.896,186.208,528.165-39.01,81.494-104.714,147.198-186.208,186.208l-170.979-423.187Z"/>
      </g>
    </g>
  </g>
</svg>