<?xml version="1.0" encoding="UTF-8"?>
<svg xmlns="http://www.w3.org/2000/svg" viewBox="0 0 3600.1 2401.738">
  <defs>
    <style>
      .cls-1 {
        fill: #fff;
      }

      .cls-1, .cls-2 {
        stroke-width: 0px;
      }

      .cls-2 {
        fill: #005933;
        fill-rule: evenodd;
      }
    </style>
  </defs>
  <g id="background">
    <path id="jp37" class="cls-2" d="M400,.1h2800c220,0,400,180,400,400v1600c0,220-180,400-400,400H400C180,2400.1,0,2220.1,0,2000.1V400.1C0,180.1,180,.1,400,.1Z"/>
  </g>
  <g id="country">
    <g id="jp">
      <path id="_37" data-name="37" class="cls-1" d="M1462.537,752.925c-4.857,5.838-9.671,11.713-14.462,17.607-80.727-54.362-166.965-101.101-256.373-138.917-62.218-26.316-126.396-48.488-191.702-66.272v335.324c94.844,33.634,184.248,78.866,266.487,133.997-19.446,33.79-37.909,68.144-55.341,103.009-68.664,137.328-121.474,282.66-156.963,431.961-23.617,99.356-39.585,200.586-47.763,302.466h321.344c21.069-217.213,84.593-427.395,184.624-618.612,146.491,171.408,245.63,384.429,276.973,618.612h322.278c-5.15-49.174-12.661-98.002-22.517-146.163-19.985-97.667-49.807-193.736-88.636-285.539-38.109-90.101-85.271-176.99-140.172-258.256-49.322-73.006-105.302-142.037-166.606-205.562,33.435-41.532,68.892-81.549,106.293-119.864,267.007,273.536,435.214,633.599,472.243,1015.383h321.339c-8.178-101.88-24.147-203.11-47.764-302.466-35.488-149.301-88.299-294.633-156.963-431.961s-153.244-266.776-251.392-384.748c-99.43-119.513-212.968-227.454-337.463-320.825-124.495,93.371-238.033,201.312-337.463,320.825Z"/>
    </g>
  </g>
</svg>