<?xml version="1.0" encoding="UTF-8"?>
<svg xmlns="http://www.w3.org/2000/svg" viewBox="0 0 3600.1 2401.738">
  <defs>
    <style>
      .cls-1 {
        fill: #fff;
      }

      .cls-1, .cls-2, .cls-3, .cls-4 {
        stroke-width: 0px;
      }

      .cls-2 {
        fill: #0e6d46;
      }

      .cls-3, .cls-4 {
        fill: #ffa600;
      }

      .cls-4 {
        fill-rule: evenodd;
      }
    </style>
  </defs>
  <g id="background">
    <path id="jp38" class="cls-4" d="M400,.1h2800c220,0,400,180,400,400v1600c0,220-180,400-400,400H400C180,2400.1,0,2220.1,0,2000.1V400.1C0,180.1,180,.1,400,.1Z"/>
  </g>
  <g id="country">
    <g id="jp">
      <g id="_38" data-name="38">
        <path class="cls-2" d="M0,480.1h3600v1440H0V480.1Z"/>
        <path class="cls-1" d="M1439.988,600.1s-132.828,89.412-141.06,436.836c-332.952-99.528-458.94-1.296-458.94-1.296,0,0,43.968,153.936,371.832,269.124-197.628,285.984-142.368,436.188-142.368,436.188,0,0,159.54,6.12,370.524-270.42,210.996,276.54,370.524,270.42,370.524,270.42,0,0,55.152-150.312-142.368-436.188,327.864-115.2,371.832-268.476,371.832-268.476,0,0-125.988-98.868-458.94.648-8.232-347.424-141.06-436.836-141.06-436.836h.024Z"/>
        <path class="cls-3" d="M1439.988,1038.232c-106.476,0-193.068,85.944-193.068,192.42.139,106.571,86.497,192.929,193.068,193.068,106.571-.139,192.929-86.497,193.068-193.068,0-106.476-86.592-192.42-193.068-192.42ZM1568.052,1230.652c0,70.752-57.312,128.712-128.064,128.712s-128.064-57.96-128.064-128.712c-.013-70.714,57.302-128.051,128.016-128.064h.048c70.714-.013,128.051,57.301,128.064,128.016v.048Z"/>
      </g>
    </g>
  </g>
</svg>