<?xml version="1.0" encoding="UTF-8"?>
<svg xmlns="http://www.w3.org/2000/svg" viewBox="0 0 3600.1 2401.738">
  <defs>
    <style>
      .cls-1 {
        fill: #7b171c;
        fill-rule: evenodd;
      }

      .cls-1, .cls-2 {
        stroke-width: 0px;
      }

      .cls-2 {
        fill: #fff;
      }
    </style>
  </defs>
  <g id="background">
    <path id="jp39" class="cls-1" d="M400,.1h2800c220,0,400,180,400,400v1600c0,220-180,400-400,400H400C180,2400.1,0,2220.1,0,2000.1V400.1C0,180.1,180,.1,400,.1Z"/>
  </g>
  <g id="country">
    <g id="jp">
      <g id="_39" data-name="39">
        <path class="cls-2" d="M1800,293.433l214.61,951.6c26.731,118.526-47.684,236.279-166.21,263.01-118.526,26.731-236.279-47.684-263.01-166.21-7.187-31.866-7.187-64.933,0-96.8l214.61-951.6ZM1000.25,1273.433c11.046-441.69,378.06-790.796,819.75-779.75,426.152,10.657,769.093,353.598,779.75,779.75h-340.185c-11.046-253.811-225.754-450.611-479.565-439.565-238.337,10.372-429.193,201.228-439.565,439.565h-340.185ZM1000.25,1313.433c11.046,441.69,378.06,790.796,819.75,779.75,426.152-10.657,769.093-353.598,779.75-779.75h-340.185c-11.046,253.811-225.754,450.611-479.565,439.565-238.337-10.372-429.193-201.228-439.565-439.565h-340.185Z"/>
      </g>
    </g>
  </g>
</svg>