<?xml version="1.0" encoding="UTF-8"?>
<svg xmlns="http://www.w3.org/2000/svg" viewBox="0 0 3600.1 2401.738">
  <defs>
    <style>
      .cls-1 {
        fill: #fff;
      }

      .cls-1, .cls-2 {
        stroke-width: 0px;
      }

      .cls-2 {
        fill: #0068b2;
        fill-rule: evenodd;
      }
    </style>
  </defs>
  <g id="background">
    <path id="jp40" class="cls-2" d="M400,.1h2800c220,0,400,180,400,400v1600c0,220-180,400-400,400H400C180,2400.1,0,2220.1,0,2000.1V400.1C0,180.1,180,.1,400,.1Z"/>
  </g>
  <g id="country">
    <g id="jp">
      <g id="_40" data-name="40">
        <g>
          <path id="a" class="cls-1" d="M1584.886,775.488c-31.28-129.16,48.067-259.222,177.227-290.502,129.16-31.28,259.222,48.067,290.502,177.227,9.014,37.22,9.014,76.055,0,113.275-38.929,160.743-135.337,301.684-271.037,396.233-19.567-50.531-44.965-98.606-75.679-143.248,95.28-71.961,162.702-174.696,190.806-290.743,10.427-43.053-16.022-86.407-59.076-96.834-43.053-10.427-86.407,16.022-96.834,59.076-3.005,12.407-3.005,25.352,0,37.759,13.409,55.367,35.88,108.136,66.505,156.172-30.758,45.71-68.894,85.995-112.851,119.211-51.622-71.332-88.838-152.047-109.563-237.625h0Z"/>
          <g id="b">
            <path id="a-2" data-name="a" class="cls-1" d="M2150.312,846.469c113.172-69.662,261.388-34.389,331.05,78.783,69.662,113.172,34.389,261.388-78.783,331.05-32.613,20.075-69.547,32.075-107.731,35.004-164.906,12.649-328.74-35.488-460.595-135.329,42.012-34.224,79.885-73.235,112.851-116.241,97.883,68.379,216.423,100.754,335.475,91.623,44.168-3.388,77.227-41.939,73.839-86.108-3.388-44.168-41.939-77.227-86.108-73.839-12.728.976-25.039,4.976-35.91,11.668-48.514,29.862-91.756,67.54-127.977,111.51-52.978-15.128-103.076-38.948-148.249-70.49,51.889-71.139,117.153-131.475,192.138-177.631Z"/>
            <path id="a-3" data-name="a" class="cls-1" d="M2257.531,1406.157c101.224,86.106,113.48,237.968,27.373,339.192-86.106,101.224-237.968,113.48-339.192,27.373-29.17-24.814-51.996-56.231-66.581-91.641-62.988-152.926-67.835-323.616-13.626-479.871,45.531,29.38,94.337,53.344,145.425,71.407-34.785,114.222-28.945,236.966,16.529,347.369,16.871,40.959,63.751,60.487,104.711,43.617,40.959-16.871,60.487-63.751,43.617-104.711-4.862-11.803-12.47-22.276-22.194-30.547-43.392-36.911-92.589-66.394-145.599-87.255-1.984-55.06,5.19-110.067,21.228-162.776,83.691,27.366,161.242,70.791,228.311,127.843Z"/>
          </g>
          <g id="b-2" data-name="b">
            <path id="a-4" data-name="a" class="cls-1" d="M1758.369,1681.081c-50.612,122.878-191.254,181.462-314.132,130.85-122.878-50.612-181.462-191.254-130.85-314.132,14.585-35.41,37.411-66.828,66.581-91.641,125.977-107.162,286.815-164.518,452.173-161.248-13.872,52.382-21.582,106.204-22.974,160.373-119.381,2.214-234.312,45.698-325.26,123.063-33.741,28.702-37.827,79.323-9.125,113.064,28.702,33.741,79.323,37.827,113.064,9.125,9.723-8.271,17.332-18.744,22.194-30.547,21.696-52.675,34.533-108.574,37.992-165.437,51.752-18.901,106.283-29.077,161.369-30.112-.165,88.052-17.5,175.226-51.034,256.642Z"/>
            <path id="a-5" data-name="a" class="cls-1" d="M1342.651,1291.306c-132.504-10.163-231.681-125.819-221.518-258.323,10.163-132.504,125.819-231.681,258.323-221.518,38.184,2.929,75.118,14.929,107.731,35.004,140.846,86.696,245.097,221.939,293.085,380.214-54.105,2.994-107.675,12.293-159.623,27.709-38.996-112.854-115.868-208.722-217.551-271.312-37.724-23.221-87.129-11.463-110.35,26.261-23.221,37.724-11.463,87.129,26.261,110.35,10.871,6.692,23.182,10.692,35.91,11.668,56.801,4.357,113.931-.708,169.08-14.99,33.968,43.378,60.497,92.096,78.504,144.166-83.793,27.053-172.058,37.505-259.852,30.771Z"/>
          </g>
        </g>
      </g>
    </g>
  </g>
</svg>