<?xml version="1.0" encoding="UTF-8"?>
<svg xmlns="http://www.w3.org/2000/svg" viewBox="0 0 3600.1 2401.738">
  <defs>
    <style>
      .cls-1 {
        fill: #006462;
        fill-rule: evenodd;
      }

      .cls-1, .cls-2, .cls-3 {
        stroke-width: 0px;
      }

      .cls-2 {
        fill: #df4133;
      }

      .cls-3 {
        fill: #fff;
      }
    </style>
  </defs>
  <g id="background">
    <path id="jp41" class="cls-1" d="M400,.1h2800c220,0,400,180,400,400v1600c0,220-180,400-400,400H400C180,2400.1,0,2220.1,0,2000.1V400.1C0,180.1,180,.1,400,.1Z"/>
  </g>
  <g id="country">
    <g id="jp">
      <g id="_41" data-name="41">
        <g id="b">
          <g id="a">
            <path class="cls-3" d="M2035.302,792.545c75.029-129.954,241.2-174.479,371.154-99.45l135.852,78.434v156.868c0,150.058-121.646,271.703-271.703,271.703h0s-527.747,28.571-527.747,28.571l292.445-436.127Z"/>
            <path class="cls-2" d="M2090.806,784.785c24.177,16.929,46.83,35.937,67.701,56.808l-172.93,172.93c-27.462,27.462-27.462,71.988,0,99.45,17.765,17.765,43.658,24.703,67.926,18.201l236.227-63.297c7.639,28.509,12.774,57.631,15.346,87.034l-259.766,22.727c-63.176,5.527-118.87-41.207-124.397-104.383-2.353-26.893,4.845-53.755,20.329-75.869l149.564-213.601Z"/>
          </g>
          <g id="a-2" data-name="a">
            <path class="cls-3" d="M1564.698,792.545c-75.029-129.954-241.2-174.479-371.154-99.45l-135.852,78.434v156.868c0,150.058,121.646,271.703,271.703,271.703h0s527.747,28.571,527.747,28.571l-292.445-436.127Z"/>
            <path class="cls-2" d="M1509.194,784.785c-24.177,16.929-46.83,35.937-67.701,56.808l172.93,172.93c27.462,27.462,27.462,71.988,0,99.45-17.765,17.765-43.658,24.703-67.926,18.201l-236.227-63.297c-7.639,28.509-12.774,57.631-15.346,87.034l259.766,22.727c63.176,5.527,118.87-41.207,124.397-104.383,2.353-26.893-4.845-53.755-20.329-75.869l-149.564-213.601Z"/>
          </g>
          <g id="a-3" data-name="a">
            <path class="cls-3" d="M1564.698,792.545c-75.029-129.954-30.503-296.125,99.45-371.154l135.852-78.434,135.852,78.434c129.954,75.029,174.479,241.2,99.45,371.154h0s-239.13,471.328-239.13,471.328l-231.474-471.328Z"/>
            <path class="cls-2" d="M1585.73,740.597c26.75-12.474,54.538-22.588,83.047-30.227l63.297,236.227c10.052,37.514,48.612,59.777,86.127,49.725,24.268-6.502,43.223-25.458,49.725-49.725l63.297-236.227c28.509,7.639,56.297,17.753,83.047,30.227l-110.201,236.327c-26.802,57.475-95.121,82.341-152.597,55.54-24.466-11.409-44.131-31.074-55.54-55.54l-110.202-236.327Z"/>
          </g>
        </g>
        <g id="b-2" data-name="b">
          <g id="a-4" data-name="a">
            <path class="cls-3" d="M2035.302,1607.655c75.029,129.954,241.2,174.479,371.154,99.45l135.852-78.434v-156.868c0-150.058-121.646-271.703-271.703-271.703h0s-527.747-28.571-527.747-28.571l292.445,436.127Z"/>
            <path class="cls-2" d="M2090.806,1615.415c24.177-16.929,46.83-35.937,67.701-56.808l-172.93-172.93c-27.462-27.462-27.462-71.988,0-99.45,17.765-17.765,43.658-24.703,67.926-18.201l236.227,63.297c7.639-28.509,12.774-57.631,15.346-87.034l-259.766-22.727c-63.176-5.527-118.87,41.207-124.397,104.383-2.353,26.893,4.845,53.755,20.329,75.869l149.564,213.601Z"/>
          </g>
          <g id="a-5" data-name="a">
            <path class="cls-3" d="M1564.698,1607.655c-75.029,129.954-241.2,174.479-371.154,99.45l-135.852-78.434v-156.868c0-150.058,121.646-271.703,271.703-271.703h0s527.747-28.571,527.747-28.571l-292.445,436.127Z"/>
            <path class="cls-2" d="M1509.194,1615.415c-24.177-16.929-46.83-35.937-67.701-56.808l172.93-172.93c27.462-27.462,27.462-71.988,0-99.45-17.765-17.765-43.658-24.703-67.926-18.201l-236.227,63.297c-7.639-28.509-12.774-57.631-15.346-87.034l259.766-22.727c63.176-5.527,118.87,41.207,124.397,104.383,2.353,26.893-4.845,53.755-20.329,75.869l-149.564,213.601Z"/>
          </g>
          <g id="a-6" data-name="a">
            <path class="cls-3" d="M1564.698,1607.655c-75.029,129.954-30.503,296.125,99.45,371.154l135.852,78.434,135.852-78.434c129.954-75.029,174.479-241.2,99.45-371.154h0s-239.13-471.328-239.13-471.328l-231.474,471.328Z"/>
            <path class="cls-2" d="M1585.73,1659.603c26.75,12.474,54.538,22.588,83.047,30.227l63.297-236.227c10.052-37.514,48.612-59.777,86.127-49.725,24.268,6.502,43.223,25.458,49.725,49.725l63.297,236.227c28.509-7.639,56.297-17.753,83.047-30.227l-110.201-236.327c-26.802-57.475-95.121-82.341-152.597-55.54-24.466,11.409-44.131,31.074-55.54,55.54l-110.202,236.327Z"/>
          </g>
        </g>
        <circle class="cls-2" cx="1800" cy="1200.1" r="70.322"/>
      </g>
    </g>
  </g>
</svg>