<?xml version="1.0" encoding="UTF-8"?>
<svg xmlns="http://www.w3.org/2000/svg" viewBox="0 0 3600.1 2401.738">
  <defs>
    <style>
      .cls-1 {
        fill: #0a92d4;
      }

      .cls-1, .cls-2 {
        stroke-width: 0px;
      }

      .cls-2 {
        fill: #eee;
        fill-rule: evenodd;
      }
    </style>
  </defs>
  <g id="background">
    <path id="bg" class="cls-2" d="M400,.1h2800c220,0,400,180,400,400v1600c0,220-180,400-400,400H400C180,2400.1,0,2220.1,0,2000.1V400.1C0,180.1,180,.1,400,.1Z"/>
  </g>
  <g id="country">
    <g id="jp">
      <g id="_42" data-name="42">
        <path id="path826" class="cls-1" d="M2034.954,740.121c111.299-31.523,191.282-21.015,238.824,33.853,60.269,71.213,45.198,184.455-46.377,339.723-31.297,52.542-69.552,106.232-112.451,159.953-34.781,42.039-60.282,70.033-76.518,82.899,23.18-133.092,38.268-262.683,44.064-391.1,4.617-99.234-18.558-177.453-67.248-233.487-66.083-74.718-163.445-105.075-292.136-93.402-126.351,12.843-256.194,63.05-388.346,154.107,63.756,4.671,118.242,31.518,162.293,78.215,45.212,47.871,68.396,103.905,70.718,169.286,1.161,49.032-5.791,115.578-19.706,199.629-18.553,98.069-27.828,163.44-30.146,194.972-6.953,98.059,16.231,175.113,68.396,233.487,37.098,42.043,86.949,71.217,148.388,85.226,59.126,13.999,126.356,13.999,200.547,0,155.345-30.375,306.05-109.755,450.954-239.346,143.748-129.6,239.963-270.846,287.514-423.788,23.18-72.378,30.141-138.929,24.34-199.634-6.961-63.041-30.141-116.739-67.234-158.774-57.964-66.542-142.592-98.069-253.877-95.724-107.829,2.335-221.432,37.363-342,103.905h0Z"/>
        <path id="path828" class="cls-1" d="M1318.536,862.701c-51.003-2.335-93.902,14.009-129.834,46.697-135.635,128.421-223.74,265.019-266.63,412.119-20.866,70.038-26.663,134.253-18.549,193.784,6.952,60.71,28.98,112.073,66.078,152.942,57.96,66.541,142.587,98.06,253.877,95.733,107.811-2.344,221.423-37.368,341.982-103.901-47.525,12.843-86.94,19.84-118.238,18.675-51.012-1.166-90.423-18.675-119.408-52.537-45.212-51.368-48.686-126.09-11.592-224.15,27.824-72.387,74.196-152.937,141.431-239.342,33.62-44.357,46.372-92.228,37.098-143.591-6.961-42.03-25.506-77.054-55.652-107.402-32.463-30.348-71.874-47.858-120.564-49.028h0Z"/>
      </g>
    </g>
  </g>
</svg>