<?xml version="1.0" encoding="UTF-8"?>
<svg xmlns="http://www.w3.org/2000/svg" viewBox="0 0 3600.1 2401.738">
  <defs>
    <style>
      .cls-1 {
        fill: #fff;
      }

      .cls-1, .cls-2 {
        stroke-width: 0px;
      }

      .cls-2 {
        fill: #931d23;
        fill-rule: evenodd;
      }
    </style>
  </defs>
  <g id="background">
    <path id="jp43" class="cls-2" d="M400,.1h2800c220,0,400,180,400,400v1600c0,220-180,400-400,400H400C180,2400.1,0,2220.1,0,2000.1V400.1C0,180.1,180,.1,400,.1Z"/>
  </g>
  <g id="country">
    <g id="jp">
      <g id="_43" data-name="43">
        <path class="cls-1" d="M648,400.1h1152c441.828,0,800,358.172,800,800s-358.172,800-800,800c-318.098,0-605.973-188.459-733.212-480,106.093,242.941,389.041,353.879,631.982,247.786,242.865-106.059,353.823-388.874,247.872-631.786-106.093-242.941-389.041-353.879-631.982-247.786-242.865,106.059-353.823,388.874-247.872,631.786H360L648,400.1Z"/>
      </g>
    </g>
  </g>
</svg>