<?xml version="1.0" encoding="UTF-8"?>
<svg xmlns="http://www.w3.org/2000/svg" viewBox="0 0 3600.1 2401.738">
  <defs>
    <style>
      .cls-1, .cls-2 {
        fill: #eee;
      }

      .cls-1, .cls-2, .cls-3 {
        stroke-width: 0px;
      }

      .cls-4 {
        fill: none;
        stroke: #be0428;
        stroke-width: 133.333px;
      }

      .cls-2 {
        fill-rule: evenodd;
      }

      .cls-3 {
        fill: #be0428;
      }
    </style>
  </defs>
  <g id="background">
    <path id="bg" class="cls-2" d="M400,.1h2800c220,0,400,180,400,400v1600c0,220-180,400-400,400H400C180,2400.1,0,2220.1,0,2000.1V400.1C0,180.1,180,.1,400,.1Z"/>
  </g>
  <g id="country">
    <g id="jp">
      <g id="_44" data-name="44">
        <circle class="cls-4" cx="1800.183" cy="1200.1" r="466.667"/>
        <g id="a">
          <path class="cls-1" d="M1786.849,590.576h26.667v304.762h-26.667v-304.762Z"/>
          <path class="cls-3" d="M1800.183,1306.767l439.118,562.045-439.118-135.379-439.118,135.379,439.118-562.045Z"/>
        </g>
        <g id="a-2" data-name="a">
          <path class="cls-1" d="M2334.713,1493.315l-13.333,23.094-263.932-152.381,13.333-23.094,263.932,152.381Z"/>
          <path class="cls-3" d="M1707.807,1146.767l-706.304,99.265,336.8-312.598,102.318-447.976,267.187,661.31Z"/>
        </g>
        <g id="a-3" data-name="a">
          <path class="cls-1" d="M1278.986,1516.409l-13.333-23.094,263.932-152.381,13.333,23.094-263.932,152.381Z"/>
          <path class="cls-3" d="M1892.559,1146.767l267.187-661.31,102.318,447.976,336.8,312.598-706.304-99.265Z"/>
        </g>
      </g>
    </g>
  </g>
</svg>