<?xml version="1.0" encoding="UTF-8"?>
<svg xmlns="http://www.w3.org/2000/svg" viewBox="0 0 3600.1 2401.738">
  <defs>
    <style>
      .cls-1 {
        fill: #bd0227;
      }

      .cls-1, .cls-2, .cls-3 {
        stroke-width: 0px;
      }

      .cls-3 {
        fill: #eee;
        fill-rule: evenodd;
      }
    </style>
  </defs>
  <g id="background">
    <path id="bg" class="cls-3" d="M400,.1h2800c220,0,400,180,400,400v1600c0,220-180,400-400,400H400C180,2400.1,0,2220.1,0,2000.1V400.1C0,180.1,180,.1,400,.1Z"/>
  </g>
  <g id="country">
    <g id="jp">
      <g id="_46" data-name="46">
        <g>
          <path class="cls-2" d="M1584,1886.936c-379.329-119.294-590.13-523.507-470.836-902.836,119.294-379.329,523.507-590.13,902.836-470.836,379.329,119.294,590.13,523.507,470.836,902.836-12.69,40.351-28.911,79.506-48.475,117.009-34.292-20.131-78.411-8.652-98.542,25.64-18.722,31.891-10.24,72.778,19.621,94.591-89.047,109.912-208.499,191.159-343.44,233.596l148.869-352.932c84.999-201.512-9.453-433.774-210.965-518.773-201.512-84.999-433.774,9.453-518.773,210.965-41.508,98.405-41.508,209.404,0,307.809l148.869,352.932Z"/>
          <circle class="cls-1" cx="1800" cy="1380.1" r="288"/>
        </g>
      </g>
    </g>
  </g>
</svg>