<?xml version="1.0" encoding="utf-8"?>
<!-- Generator: Adobe Illustrator 28.1.0, SVG Export Plug-In . SVG Version: 6.00 Build 0)  -->
<svg version="1.1" id="_레이어_1" xmlns="http://www.w3.org/2000/svg" xmlns:xlink="http://www.w3.org/1999/xlink" x="0px"
	 y="0px" viewBox="0 0 425.2 332.8" style="enable-background:new 0 0 425.2 332.8;" xml:space="preserve">
<style type="text/css">
	.st0{fill:#FCFCFC;}
	.st1{display:none;fill:#FCFCFC;}
</style>
<path class="st0" d="M144.5,324.9c4.9-10.3,6.5-20.3,3.6-30.7c-0.5-1.8,0.1-2.8,1.8-3.8c11.5-6.9,19.4-16.8,23.9-29.9
	c8.1,6,17,9,26.9,9.3c8.9,0.2,16.8-2.5,23.9-7.8c3.5-2.6,7-5.1,11-7c9.9-4.7,19.7-2.9,27.2,5.2c3.2,3.5,5.6,7.6,8.3,11.4
	c9.9,14,24.1,18.9,40.4,16.6c15.4-2.2,26.4-11.3,30-26.9c3.9-16.6-1-31.3-11.8-44.3c-17.9-21.6-41.7-31.8-68.7-36.5
	c-25.6-4.4-50-2.5-73,10.5c-7.7,4.3-14.1,10.1-19.6,17.8c-1.6-5.1-2.9-9.4-4.3-13.7c-5.2-15.9-15.5-27.1-30.9-33.4
	c-4.2-1.7-3.9-3.1-1.8-6.1c3.5-5,6.3-10.5,10.3-15.2c14.1-16.7,20.7-36.5,24.3-57.6c3.3-19.3,6.9-38.5,10.5-57.7
	c1.6-8.8,4.5-16.9,12.8-21.8c11.9-7,26.1-3.2,34.2,9.1c9.8,15.1,19,30.5,30.4,44.5C270.4,77.9,293,81.8,315.9,68
	c15-9,28.8-19.7,42.8-30.2c8.8-6.6,18.3-8.5,28.4-3c10,5.5,14.3,15.1,12.1,27.7c-3.3,18.9-6.3,37.9-10.2,56.6
	c-5,23.7-5.2,46.8,2.4,70.2c6.8,21.2,7.6,43.2,4.3,65.3c-0.5,3.6-1.5,5.2-5.6,5.5c-22,1.7-38.6,14.6-44.1,33.5
	c-3.1,10.6-1.5,20.7,3.1,30.5c-1.2,1.4-2.7,0.8-3.9,0.8c-21.9,0-43.7,0-65.5,0.1c-3.1,0-5.2-0.9-7.3-3.1c-24.2-24-62-23.9-86,0.2
	c-2.1,2.1-4,2.9-6.8,2.9C168,324.8,156.7,324.9,144.5,324.9L144.5,324.9z M179.4,155.8c0.1,7,6.1,13,13,13c7.1,0,13.3-6.5,13-13.6
	c-0.2-7-6.2-12.7-13.3-12.6C185.1,142.8,179.3,148.8,179.4,155.8z M337.9,195.1c7-0.1,12.8-6.1,12.7-13.2c-0.1-7.1-5.9-12.9-13-12.8
	c-7.2,0-13.4,6.4-13.1,13.5C324.7,189.5,330.8,195.2,337.9,195.1L337.9,195.1z"/>
<path class="st0" d="M83.3,183.2c7-2,14-4.2,21.1-5.9c17.3-4.3,35.5,5.2,41.3,22.1c4.2,12.2,7.7,24.6,10.9,37.1
	c3.7,14.4-3.3,30.3-15.5,37.6c-2.4,1.4-3.9,1.4-5.7-0.6c-3.2-3.5-7.4-5.7-11.7-8.5c2.3-0.9,4.3-1.5,6.1-2.3
	c9.5-4,14.6-13.4,11.9-23.4c-3.1-11.4-6.4-22.8-10.1-34.1c-3.4-10.4-13.6-16.1-24.1-13.1c-26.3,7.5-52.5,15.4-78.6,23.4
	c-10.4,3.2-15.9,14.1-12.9,24.8c3,10.7,6.2,21.4,9.6,32c3.7,11.7,14.1,17.2,25.9,14c1.3-0.4,2.5-1.2,4.3-0.6c-1.7,4.7-3.6,9.2-4,14
	c-0.2,2.4-1.9,2.4-3.7,2.6c-16.2,1.4-31.4-8.4-36.5-23.9C7.9,267,4.4,255.5,1.3,243.9c-5-18.6,5.3-37.2,23.8-43.1
	c6.6-2.1,13.3-4,20.6-6.1c-4.5-3.6-9.3-5.5-13.7-8c-6.4-3.6-8.3-7.3-5.7-11.9c2.5-4.4,6.7-4.9,13.2-1.4c6.6,3.5,13.3,6.9,19.7,10.7
	c3.1,1.8,4.2,1.1,5.7-1.8c3.6-7.2,7.5-14.2,11.4-21.2c2.8-5.1,6.9-6.8,11.1-4.5c4.2,2.2,5,6.5,2.3,11.8c-2.4,4.6-4.9,9.2-7.3,13.9
	c-0.1,0.4-0.1,0.8-0.2,1.2C82.5,183.3,82.9,183.2,83.3,183.2L83.3,183.2z"/>
<path class="st0" d="M124.6,243.1c-0.2,4.6-3,6.4-6.8,7.6c-20,5.9-40,11.9-60.1,17.9c-13.3,4-13.7,3.7-17.7-9.8c-2-6.7-4-13.3-6-20
	c-1.7-6-0.2-8.8,5.8-10.6c21.9-6.6,43.7-13,65.6-19.5c6.2-1.8,8.8-0.5,10.6,5.6c2.7,8.7,5.2,17.3,7.8,26
	C124.1,241.3,124.3,242.3,124.6,243.1L124.6,243.1z"/>
<path class="st0" d="M101.2,332.7c-17,0.1-30.2-10.1-32.4-25c-1.4-9.5,2.5-17.1,9.5-23.1c11.4-9.8,30.2-10.4,42.4-1.6
	c9.2,6.6,13.5,15.7,11.3,26.9c-2.4,11.8-10.8,18.3-21.9,21.7C107.1,332.4,104,333,101.2,332.7L101.2,332.7z"/>
<path class="st0" d="M393.2,277c5.5-0.4,10.8,0.9,15.7,3.3c9.9,5,16.2,12.8,16.3,24.2c0.1,11.2-5.8,19.1-15.5,24.1
	c-9.9,5.2-20.1,5.4-30.4,1.2c-11.5-4.8-19-15.7-18.2-26.2c0.9-11.9,9.4-21.9,21.7-25.4C386.2,277.3,389.6,276.7,393.2,277L393.2,277
	z"/>
<path class="st1" d="M322.1,392.1c0,6.8-0.1,13.6,0,20.4c0.1,4.4-1.4,7.7-6.2,8c-3.8,0.3-6.2-2.9-6.2-8c0-12.9,0-25.9,0-38.8
	c0-6-2.6-9.4-7.2-9.6c-4.7-0.2-7.6,2.8-7.8,8.9c-0.3,13.3-0.3,26.5-0.3,39.8c0,2.9-0.3,5.6-3.4,7c-4.5,2.1-8.6-0.8-8.6-6.2
	c-0.1-12.2,0-24.5,0-36.7c0-1.6,0-3.1-0.1-4.7c-0.4-5.1-3.3-8.2-7.8-8.1c-4.3,0-7.5,3.3-7.7,8.3c-0.2,7,0,14-0.1,21
	c0,6.8-0.1,13.6,0,20.4c0,4-1.9,6.5-5.7,6.7c-3.9,0.2-6.3-2.1-6.3-6.1c-0.2-15.4-1.2-30.8,0.4-46.1c1.4-13.7,17.8-20.8,29.8-13.5
	c2.5,1.5,3.9,1.9,6.7,0.2c13.4-8.4,30.1,0.7,30.6,16.6C322.2,378.5,322.1,385.3,322.1,392.1L322.1,392.1z"/>
<path class="st0" d="M253.6,186.7c10.1-0.1,18.4,2.7,25.5,8.6c13.5,11.2,10.7,29.6-5.6,36c-11.8,4.7-23.3,3.1-34.1-3.4
	c-9.6-5.7-14.2-15.2-12.1-24c2.1-9.1,10.7-15.9,21.5-17.1C250.6,186.7,252.5,186.7,253.6,186.7L253.6,186.7z"/>
<path class="st1" d="M141.6,386.4c0-6.8,0-13.6,0-20.4c0.1-7,3.7-11.8,10.6-12.8c5.8-0.9,11.9-1.1,17.7,0.3
	c12.2,2.8,18.7,15.2,13.9,26.7c-1.1,2.5-1.3,3.9,1,6.1c6.3,6.1,7.4,13.8,4,21.7c-3.3,7.7-9.6,11.7-18.1,11.8c-5.2,0-10.5,0.1-15.7,0
	c-8.4-0.2-13.2-5-13.3-13.4C141.6,399.7,141.6,393.1,141.6,386.4L141.6,386.4z M163.5,392.5c0-0.1,0-0.1,0-0.2c-1.9,0-3.9,0.2-5.8,0
	c-3.3-0.4-4.1,0.9-4.1,4.1c0,11.3-0.2,11.3,11.3,11.3c2.1,0,4.2,0.1,6.3-0.1c4.2-0.5,6.8-3,7-7.2c0.1-4.4-2.5-7.2-6.9-7.8
	C168.7,392.2,166.1,392.5,163.5,392.5L163.5,392.5z M153.7,372.4c0.2,9.1-1.6,7.9,7.9,8c1.9,0,3.9-0.1,5.7-0.5
	c5-1.2,7.3-6.9,4.6-11.2c-2.1-3.4-10.1-5.4-16-3.5C151.7,366.5,154.7,370.3,153.7,372.4L153.7,372.4z"/>
<path class="st1" d="M334.8,393.4c0-6.3-0.2-12.6,0-18.8c0.5-12.6,10.3-22,23-22.6c12.5-0.5,23.2,8.5,24.4,21
	c1.2,13.7,0.4,27.6,0.4,41.3c0,3.8-2.5,6.3-6.4,6.2c-3.8-0.2-6-2.5-6-6.5c0-3.3-0.1-6.6,0-9.9c0.1-2.3-0.2-3.5-3-3.4
	c-5.8,0.2-11.5,0.2-17.3,0c-2.8-0.1-3.1,1.2-3,3.4c0.1,3,0,5.9,0.1,8.9c0.1,4.3-1.6,7.2-6,7.6c-3.9,0.3-6.3-2.7-6.4-7.8
	c-0.1-6.5,0-12.9,0-19.4C334.7,393.4,334.8,393.4,334.8,393.4L334.8,393.4z M358.4,388.3c8.2,0,12.2-3.9,11.9-11.7
	c-0.3-7.5-4.7-12.3-11.4-12.5c-6.7-0.2-11.5,4.9-11.9,12.4C346.7,384.4,350.5,388.3,358.4,388.3L358.4,388.3z"/>
<path class="st1" d="M81,393.5c0-5.9-0.1-11.9,0-17.8c0.2-13.2,9.7-23,23-23.7c12.3-0.7,23.6,8.2,24.4,20.9
	c0.9,13.9,0.5,27.9,0.4,41.9c0,3.6-2.6,5.9-6.2,5.8c-3.8-0.1-6.1-2.3-6.1-6.4c0-0.2,0-0.3,0-0.5c-0.1-4.2,1.4-10-0.8-12
	c-2.8-2.8-8.6-0.8-13-0.9c-9.4-0.1-9.4,0-9.4,9.4c0,7.5-1.9,10.6-6.3,10.4c-4.3-0.2-5.9-3-5.9-10.3C81,404.7,81,399.1,81,393.5
	L81,393.5z M104.9,388.3c8,0,11.9-4,11.6-12c0-0.2,0-0.3,0-0.5c-0.4-6.9-5.1-11.6-11.6-11.6c-6.4,0-11.1,4.8-11.4,11.7
	C92.9,384.2,96.8,388.3,104.9,388.3L104.9,388.3z"/>
<path class="st1" d="M201.4,386.3c0-6.5-0.1-12.9,0-19.4c0.2-9,5.2-13.9,14.1-14c6.6-0.1,13.3,0,19.9,0c4,0,6.9,1.5,7,5.9
	c0.1,4.5-2.9,6.1-6.8,6.3c-5.8,0.2-11.5,0.2-17.3,0c-3.2-0.1-4.7,0.5-4.7,4.2c-0.1,11.2-0.2,11.2,11,11.2c2.6,0,5.3-0.1,7.9,0
	c3.4,0.2,5.5,2.2,5.6,5.7c0.1,3.7-2,6-5.7,6.1c-5.2,0.2-10.5,0.1-15.7,0c-2.2-0.1-2.9,0.6-3,2.9c-0.7,12.5-0.8,12.5,11.6,12.5
	c3.7,0,7.3-0.1,11,0.1c3.8,0.3,6.4,2.1,6.1,6.3c-0.2,4.1-2.8,5.7-6.7,5.7c-7,0-14,0.1-21,0c-8.1-0.1-13-4.9-13.3-13.1
	C201.3,399.9,201.5,393.1,201.4,386.3C201.5,386.3,201.5,386.3,201.4,386.3L201.4,386.3z"/>
<path d="M83.3,183.2c-0.4,0.1-0.8,0.2-1.2,0.3c0.1-0.4,0.1-0.8,0.2-1.2C82.6,182.5,83,182.8,83.3,183.2L83.3,183.2z"/>
</svg>
