<?xml version="1.0" encoding="utf-8"?>
<!-- Generator: Adobe Illustrator 28.1.0, SVG Export Plug-In . SVG Version: 6.00 Build 0)  -->
<svg version="1.1" id="Livello_1" xmlns="http://www.w3.org/2000/svg" xmlns:xlink="http://www.w3.org/1999/xlink" x="0px" y="0px"
	 viewBox="0 0 193.2 145.6" style="enable-background:new 0 0 193.2 145.6;" xml:space="preserve">
<style type="text/css">
	.st0{fill:#FFFFFF;}
</style>
<path id="_256" class="st0" d="M173.2,22.7C159.6,8.1,140.6-0.2,120.6,0c-19.4,0-39.2,8.3-51.9,21.8c-2.3-0.3-4.7-0.4-7-0.4
	C23.6,21.4,0,53.5,0,83.2c0.1,16,6.3,31.4,17.3,43.1c11.6,12.4,27.7,19.3,44.5,19.3h58.9c40,0,72.5-32.8,72.5-73
	C193,54.1,185.9,36.3,173.2,22.7z M60.7,135.1c-28.3,0-51.2-23-51.1-51.2c0-28.1,22.8-51,50.9-51.1c12.5,0,24.7,4.6,34,12.9l0.3,0.2
	l21.1,21.7c3.5,3.6,3.4,9.4-0.2,12.9c-3.6,3.5-9.4,3.4-12.9-0.2l-21-21.6c-13.7-11.8-34.3-10.2-46.1,3.5c-5.1,5.9-7.9,13.4-7.9,21.2
	c0,17.9,15.3,33.1,33.4,33.1h4.2v0.1c6,8.3,22.8,18.5,22.8,18.5H60.7z M165.6,116.6c-11.4,12-27.3,18.7-43.8,18.8
	c-15.7,0-31.7-7-44-19.3L49.8,88c-3.5-3.6-3.5-9.4,0.1-12.9c1.7-1.7,4-2.6,6.4-2.6c2.5,0,4.8,1,6.5,2.8l27.8,27.9
	c8.8,8.9,20.2,13.9,31.1,13.9c11.7,0,22.8-4.8,30.8-13.3c8.2-8.5,12.8-19.8,12.8-31.6c0-24.2-19.6-43.7-43.8-43.8
	c-9.2,0-16.8,1.8-24.2,7.1c-0.1-0.1-2.1-1.4-4.4-2.8c-1.4-0.9-2.9-1.7-4.1-2.4c-1.3-0.7-5.1-2.6-7.4-3.5c-0.6-0.2-1.3-0.5-1.6-0.6
	h0.1c11.5-10.8,25.9-16,41.7-16c34.3,0,62,27.8,62.1,62C183.6,88.8,177.2,104.8,165.6,116.6z"/>
</svg>
