<?xml version="1.0" encoding="UTF-8"?>
<svg id="Layer_2" data-name="Layer 2" xmlns="http://www.w3.org/2000/svg" xmlns:xlink="http://www.w3.org/1999/xlink" viewBox="0 0 90.58 102.65">
  <defs>
    <style>
      .cls-1 {
        fill: #1ac62f;
      }

      .cls-1, .cls-2, .cls-3, .cls-4, .cls-5, .cls-6, .cls-7 {
        stroke-width: 0px;
      }

      .cls-2 {
        fill: none;
      }

      .cls-3 {
        fill: #fff;
      }

      .cls-4 {
        fill: #1a1919;
      }

      .cls-8 {
        clip-path: url(#clippath);
      }

      .cls-5 {
        fill: #0545b1;
      }

      .cls-6 {
        fill: #00bbed;
      }

      .cls-7 {
        fill: #f2338a;
      }
    </style>
    <clipPath id="clippath">
      <path class="cls-2" d="M7.71,85.15c-1.78-8.7-2.69-17.7-2.69-26.92,0-7.16.46-14.2,1.64-21.04.29-1.71.88-3.4.88-3.4,1.23-3.92,4.13-6.63,7.82-8.3,0,0,1.87-.93,6.06-2.04,11.39-3,23.6-2.92,23.6-2.92h.55c8.04.02,15.84,1.05,23.3,2.94,0,0,4.33,1.18,6.34,2.07,0,0,6.26,2.46,7.91,8.22.06.21.58,1.99.78,3.27,1.05,6.91,1.67,13.99,1.67,21.2,0,9.25-.93,18.28-2.71,27.01v.06c-.99,4.75-4.71,8.5-9.44,9.54-.15.03-.3.06-.44.09-8.95,1.78-18.21,2.71-27.68,2.71s-18.65-.93-27.57-2.69c-.21-.04-.41-.08-.62-.12-2.87-.65-5.36-2.29-7.09-4.55,0,0-1.6-1.67-2.3-5.13h-.01Z"/>
    </clipPath>
  </defs>
  <g id="White-Dark">
    <g id="afreecaTV_logo_rgb_dark_symbol" data-name="afreecaTV logo rgb dark symbol">
      <path class="cls-3" d="M90.4,51.44c-.23-4.52-.69-9.21-1.38-13.94l-.17-1.21c-.19-1.29-.6-2.82-.91-3.87-2.22-7.74-9.92-11.13-10.76-11.47-2.22-.98-6.23-2.09-7.09-2.33-2.34-.59-4.7-1.07-7.07-1.5l4.11-1.87c2.06-.78,3.72-2.39,4.55-4.41.85-2.09.77-4.45-.24-6.49-1.33-2.68-4.03-4.35-7.05-4.35-1.4,0-2.78.37-4.01,1.07l-14.99,9.62-7.46-5.99c-1.42-1.27-3.25-1.97-5.16-1.97-2.36,0-4.58,1.04-6.18,2.95-1.43,1.78-2.01,4.21-1.56,6.5.38,1.93,1.49,3.59,3.11,4.77-2.61.42-5.34.96-8.02,1.67-4.2,1.11-6.37,2.08-6.9,2.34-4.63,2.11-8.04,5.46-9.85,9.67-.19.43-.42,1-.61,1.61-.12.35-.73,2.19-1.06,4.13-1.14,6.64-1.7,13.79-1.7,21.83,0,9.51.94,18.91,2.8,27.96.84,4.12,2.65,6.52,3.33,7.29,2.47,3.17,5.97,5.39,9.99,6.29l.63.13c9.35,1.85,18.95,2.78,28.54,2.78s19.27-.94,28.82-2.84l.38-.08c6.68-1.46,11.89-6.73,13.28-13.5,1.87-9.16,2.81-18.58,2.81-28.01,0-2.18-.06-4.4-.18-6.8v.02Z"/>
      <g>
        <path class="cls-5" d="M66.95,6.58c.79,1.59,0,3.43-1.68,4l-17.38,7.9c-2.04.92-3.42.75-5.39-.12l-11.23-5.32c-1.56-.87-1.75-3-.75-4.24h0c1.05-1.25,2.94-1.45,4.13-.33l8.65,6.95c.94.77,1.92.81,2.7.64.32-.07.58-.21,1.01-.45l15.87-10.19c1.47-.83,3.33-.36,4.08,1.16h-.01Z"/>
        <g class="cls-8">
          <g>
            <path class="cls-5" d="M81.66,39.03c-.06-.45,7.37-1.16,7.31-1.59-1.27-8.31-3.73-13.14-15.01-15.7-10.7-2.43-18.46-2.9-24.81-3.19-1.35-.06-2.7-.06-4.05,0-6.35.28-14.1.76-24.81,3.19-11.87,2.69-12.62,5.15-13.37,10.31-.08.53,2.22.46,2.16,1-.64,5.52-2.19,18.75-2.24,22.36-.03,2.03-2.86,3.33-2.86,3.44,0,.32-.1,11.11,1.11,20.09,1.23,9.12,3.33,14.32,15.2,17.01,10.7,2.43,18.46,2.26,24.81,2.54,1.35.06,2.7.06,4.05,0,6.35-.28,14.1-.12,24.81-2.54,11.87-2.69,13.97-7.89,15.2-17.01,1.21-8.98,1.11-19.78,1.11-20.09,0-.12-6.07-7.74-6.11-10.01-.07-4.01-1.72-4.07-2.49-9.81h-.01Z"/>
            <path class="cls-6" d="M59.13,46.52c-.12-3.14-.19-6.25-.15-9.37.04-4.25,3.12-5.94,3.12-5.94,2.04-1.25,4.77-1.48,7.18-.43,3.69,1.6,8.45,4.06,8.45,4.06,2.74,1.44,5.04,2.67,7.92,4.5l.04.02c.15.08.29.16.44.25,3.06,1.9,4.18,5.88,2.47,9.12-.55,1.05-1.34,1.91-2.27,2.53h-.02c-2.68,1.84-5.02,3.58-7.78,5.33-4.46,2.83-7.27,4.16-7.27,4.16-1.99,1.14-5.41,1.65-7.78.47-3.59-1.79-3.78-6.04-3.78-6.04,0,0-.36-3.47-.56-8.66h-.01Z"/>
            <path class="cls-3" d="M63.91,71.46c-9.01,8.38-28.54,8.39-37.31,0-.7-.68-1.83-.64-2.5.06-.68.7-.65,1.82.05,2.49,10.12,9.65,31.79,9.66,42.15.02.73-.66.77-1.78.11-2.5-.67-.72-1.78-.76-2.5-.09v.02Z"/>
            <path class="cls-1" d="M56.71,57.5v-.08l-.05-.53-1.2-13.27-.03-.37c-.03-.29-.09-.58-.16-.85-.65-2.61-2.79-4.62-5.46-5.09-.37-.06-.75-.1-1.14-.1h-6.82c-.34,0-.67.03-.99.08-2.74.41-4.95,2.45-5.61,5.1-.06.22-.1.45-.13.68l-.07.71-1.21,13.19-.03.31c0,.07,0,.15-.01.23v.26c0,3.18,2.16,5.85,5.1,6.62.55.15,1.14.23,1.74.23h9.26c.38,0,.75-.03,1.12-.09,3.24-.54,5.72-3.36,5.72-6.76v-.26l-.03-.01Z"/>
            <path class="cls-7" d="M31.09,50.2c-2.62,8.76-10.47,13.22-19.15,11.72-9.01-1.56-15.51-14.3-11.03-22.15,3.84-6.73,12.23-11.7,20.97-9.01,9.27,2.85,11.85,10.59,9.2,19.44h.01Z"/>
            <path class="cls-4" d="M77.51,46c0,3.19-2.59,5.78-5.78,5.78s-5.78-2.59-5.78-5.78,2.59-5.78,5.78-5.78,5.78,2.59,5.78,5.78Z"/>
            <path class="cls-4" d="M23.74,46c0,3.19-2.59,5.78-5.78,5.78s-5.78-2.59-5.78-5.78,2.59-5.78,5.78-5.78,5.78,2.59,5.78,5.78Z"/>
          </g>
        </g>
      </g>
    </g>
  </g>
</svg>