<?xml version="1.0" encoding="utf-8"?>
<!-- Generator: Adobe Illustrator 28.2.0, SVG Export Plug-In . SVG Version: 6.00 Build 0)  -->
<svg version="1.1" id="레이어_1" xmlns="http://www.w3.org/2000/svg" xmlns:xlink="http://www.w3.org/1999/xlink" x="0px"
	 y="0px" viewBox="0 0 52.8 45" style="enable-background:new 0 0 52.8 45;" xml:space="preserve">
<style type="text/css">
	.st0{fill:#FFFFFF;}
</style>
<g id="alipaySquare_x5F_svg_x5F__x5F_prefix_x5F__x5F__x5C_u56FE_x5C_u5C42_x5F_2">
	<g id="alipaySquare_svg__prefix__Alipay_Logo_Blue_RGB">
		<path class="st0" d="M43.7,7.1H29.4V0.4C29.4,0.2,29.2,0,29,0c0,0,0,0,0,0c-5.8,0-7.1,1.4-7.1,3.3v3.8H8.2c-0.8,0-1.2,1.9-1.2,3.2
			c0,0.2,0.2,0.4,0.4,0.4c0,0,0,0,0,0h14.4v4.8h-9.6c-0.8,0-1.2,1.9-1.2,3.2c0,0.2,0.2,0.4,0.4,0.4c0,0,0,0,0,0h27.3
			c0.7,0,1.1-1.5,1.1-2.8c0-0.4-0.3-0.8-0.7-0.8c0,0,0,0-0.1,0h-9.8v-4.8H43c0.8,0,1.2-1.8,1.2-3.2C44.1,7.3,44,7.1,43.7,7.1
			C43.8,7.1,43.8,7.1,43.7,7.1z"/>
		<path class="st0" d="M40,16.3c0-0.4-0.3-0.8-0.8-0.8c0,0,0,0,0,0h-8.3c0,4.9-1.1,9.2-2.8,12.7c2.4,1.1,4.7,2.3,7.2,3.4
			C38.2,27,40,21.6,40,16.3z"/>
		<path class="st0" d="M3.2,34.5c0,7.8,16.1,10.9,23.5,6.1c1.5-1,2.9-2.1,4.1-3.4c-0.4-0.3-4.1-2.8-6.1-3.9
			C15.8,43.6,3.2,40.9,3.2,34.5z"/>
		<path class="st0" d="M28.1,28.2c-4.9-2.3-9.9-4.3-15.9-4.3C5,23.9,0,28.6,0,34.5C0,40.3,5.1,45,12.2,45c5.2,0,10.2-1.5,14.5-4.4
			c-7.5,4.8-23.5,1.7-23.5-6.1c0-3.3,3.7-5.7,8.1-5.7c4.6,0,9.1,2,13.4,4.5c2.1,1.2,4.1,2.6,6.1,3.9c5.4,3.6,10.7,7.2,16,7.7
			C38.6,44,35.3,34.4,28.1,28.2z"/>
		<path class="st0" d="M48.1,45c3.6,0,4.5-4.5,4.7-8c0-0.7-0.5-1.3-1.2-1.3c0,0,0,0,0,0c-9.9-0.3-16.7-4.2-23.5-7.4
			C35.6,34.7,38.9,45,48.1,45z"/>
	</g>
</g>
</svg>
