<?xml version="1.0" encoding="utf-8"?>
<!-- Generator: Adobe Illustrator 28.2.0, SVG Export Plug-In . SVG Version: 6.00 Build 0)  -->
<svg version="1.1" id="레이어_1" xmlns="http://www.w3.org/2000/svg" xmlns:xlink="http://www.w3.org/1999/xlink" x="0px"
	 y="0px" viewBox="0 0 185 185" style="enable-background:new 0 0 185 185;" xml:space="preserve">
<style type="text/css">
	.st0{fill:#FFFFFF;}
</style>
<g>
	<g transform="translate(0.210000, 0.295006)">
		<path class="st0" d="M183.8,110.5h-73.6C90,110.5,73.6,94,73.6,73.8h92.5c4.7,0,9.2,1.9,12.5,5.2c3.3,3.3,5.2,7.8,5.2,12.5V110.5z
			"/>
		<path class="st0" d="M0,73.8h55.7v36.7h-38C8,110.5,0,102.5,0,92.8L0,73.8L0,73.8z"/>
		<path class="st0" d="M110.2,17.9v92.5l0,0c-9.7,0-19.1-3.8-25.9-10.7c-6.9-6.9-10.7-16.2-10.8-25.9V0.2h19
			C102.3,0.3,110.2,8.2,110.2,17.9z"/>
		<path class="st0" d="M110.2,128.4V184h-19c-9.8,0-17.7-7.9-17.7-17.7v-37.9H110.2z"/>
	</g>
</g>
</svg>
