<?xml version="1.0" encoding="utf-8"?>
<!-- Generator: Adobe Illustrator 28.1.0, SVG Export Plug-In . SVG Version: 6.00 Build 0)  -->
<svg version="1.1"
	 id="svg13982" xmlns:sodipodi="http://sodipodi.sourceforge.net/DTD/sodipodi-0.dtd" xmlns:svg="http://www.w3.org/2000/svg" xmlns:inkscape="http://www.inkscape.org/namespaces/inkscape" xmlns:dc="http://purl.org/dc/elements/1.1/" xmlns:cc="http://creativecommons.org/ns#" xmlns:rdf="http://www.w3.org/1999/02/22-rdf-syntax-ns#" sodipodi:docname="Amazon Arrows.svg"
	 xmlns="http://www.w3.org/2000/svg" xmlns:xlink="http://www.w3.org/1999/xlink" x="0px" y="0px" viewBox="0 0 1000 225.3"
	 style="enable-background:new 0 0 1000 225.3;" xml:space="preserve">
<style type="text/css">
	.st0{fill-rule:evenodd;clip-rule:evenodd;fill:#FFFFFF;}
</style>
<g id="layer1" transform="translate(0,-237.40101)" inkscape:groupmode="layer" inkscape:label="Layer 1">
	<path id="path8" inkscape:connector-curvature="0" class="st0" d="M903.9,338.9C794.4,419.6,635.7,462.7,499,462.7
		c-191.6,0-364.1-70.9-494.6-188.7c-10.3-9.3-1.1-21.9,11.2-14.7c140.8,81.9,315,131.2,494.9,131.2c121.3,0,254.8-25.1,377.5-77.2
		C906.5,305.4,922,325.4,903.9,338.9"/>
	<path id="path10" inkscape:connector-curvature="0" class="st0" d="M949.4,286.8c-13.9-17.9-92.5-8.4-127.8-4.3
		c-10.7,1.3-12.4-8-2.7-14.8c62.6-44,165.3-31.3,177.3-16.6c12,14.8-3.1,117.8-61.9,166.9c-9,7.5-17.6,3.5-13.6-6.5
		C933.9,378.7,963.5,304.8,949.4,286.8"/>
</g>
</svg>
