<?xml version="1.0" encoding="utf-8"?>
<!-- Generator: Adobe Illustrator 28.2.0, SVG Export Plug-In . SVG Version: 6.00 Build 0)  -->
<svg version="1.1" id="레이어_1" xmlns="http://www.w3.org/2000/svg" xmlns:xlink="http://www.w3.org/1999/xlink" x="0px"
	 y="0px" viewBox="0 0 70 44" style="enable-background:new 0 0 70 44;" xml:space="preserve">
<style type="text/css">
	.st0{fill-rule:evenodd;clip-rule:evenodd;fill:#FF9900;}
	.st1{fill-rule:evenodd;clip-rule:evenodd;fill:#FFFFFF;}
</style>
<g id="Symbols">
	<g id="amazonpay-secondary-logo-rgb_clr">
		<path id="Shape" class="st0" d="M63.1,35c-7.6,5.6-18.7,8.6-28.2,8.6c-13.4,0-25.4-4.9-34.5-13.2c-0.7-0.6-0.1-1.5,0.8-1
			c9.8,5.7,22,9.2,34.5,9.2c8.5,0,17.8-1.8,26.3-5.4C63.3,32.7,64.4,34.1,63.1,35 M66.3,31.4c1,1.3-1.1,6.4-2,8.7
			c-0.3,0.7,0.3,1,1,0.4c4.1-3.4,5.2-10.6,4.3-11.6c-0.8-1-8-1.9-12.4,1.2c-0.7,0.5-0.6,1.1,0.2,1C59.9,30.8,65.3,30.1,66.3,31.4"/>
		<g id="Group" transform="translate(9.067358, 0.000000)">
			<path id="Path" class="st1" d="M46.2,22.2L54.1,2c0.2-0.4,0.3-0.7,0.3-0.9c0-0.3-0.2-0.4-0.5-0.4h-2c-0.4,0-0.6,0.1-0.8,0.2
				C51,1,50.8,1.3,50.7,1.7l-4.9,14l-5.1-14c-0.1-0.4-0.3-0.7-0.4-0.8c-0.1-0.1-0.4-0.2-0.8-0.2h-2.2c-0.3,0-0.5,0.1-0.5,0.4
				c0,0.2,0.1,0.5,0.3,0.9l7,17.2L43.3,21c-0.4,1.2-0.9,2-1.4,2.4S40.7,24,39.8,24c-0.4,0-0.7,0-1-0.1c-0.2,0-0.4-0.1-0.5-0.1
				c-0.4,0-0.5,0.2-0.5,0.7v0.9c0,0.3,0.1,0.6,0.2,0.7c0.1,0.2,0.3,0.3,0.6,0.3c0.6,0.2,1.3,0.3,2.1,0.3c1.4,0,2.5-0.4,3.3-1.1
				C44.8,25,45.5,23.8,46.2,22.2"/>
			<path id="Shape_00000062887434300459506120000015019014567254133642_" class="st1" d="M16.5,5.6c-0.4-1.2-0.8-2.2-1.5-3
				c-0.6-0.8-1.4-1.4-2.4-1.9c-0.9-0.4-2-0.6-3.1-0.6S7.4,0.3,6.3,0.7c-1,0.4-2,1-2.9,1.8L3.2,1.4C3.1,0.9,2.9,0.6,2.4,0.6H0.8
				c-0.5,0-0.7,0.2-0.7,0.7v24.3c0,0.5,0.2,0.7,0.7,0.7h2.1c0.5,0,0.7-0.2,0.7-0.7v-8.5c1.6,1.4,3.4,2.1,5.6,2.1
				c1.2,0,2.3-0.2,3.2-0.7c1-0.5,1.8-1.1,2.5-2c0.7-0.8,1.2-1.9,1.6-3.1s0.6-2.6,0.6-4C17.1,8.1,16.9,6.8,16.5,5.6z M8.4,16.5
				c-1.6,0-3.2-0.6-4.8-1.7V4.7C5.2,3.5,6.8,3,8.5,3c3.3,0,4.9,2.3,4.9,6.8C13.4,14.2,11.7,16.5,8.4,16.5z"/>
			<path id="Shape_00000050651850151162508320000000488103525808427663_" class="st1" d="M32.8,1.5c-1.1-0.9-2.8-1.4-5.1-1.4
				c-1.1,0-2.3,0.1-3.4,0.3s-2.1,0.5-2.9,0.8c-0.3,0.1-0.5,0.2-0.6,0.4c-0.1,0.1-0.1,0.4-0.1,0.7v1c0,0.4,0.2,0.7,0.5,0.7
				c0.1,0,0.2,0,0.3-0.1s0.2-0.1,0.3-0.1C23.7,3.2,25.5,3,27.1,3c1.4,0,2.5,0.3,3,0.8C30.8,4.3,31,5.2,31,6.5v2.4
				c-1.7-0.4-3.2-0.6-4.6-0.6c-2.1,0-3.8,0.5-5.1,1.6c-1.3,1-1.9,2.4-1.9,4.2c0,1.6,0.5,2.9,1.5,3.9s2.4,1.5,4.1,1.5
				c1,0,2.1-0.2,3.1-0.6s2-1,2.9-1.7l0.2,1.2c0.1,0.5,0.3,0.7,0.8,0.7h1.6c0.5,0,0.7-0.2,0.7-0.7V5.9C34.4,3.9,33.9,2.5,32.8,1.5z
				 M31,14.9c-0.8,0.6-1.6,1.1-2.5,1.4s-1.7,0.5-2.5,0.5c-0.9,0-1.7-0.2-2.2-0.7S23,14.9,23,14c0-2.1,1.4-3.1,4.1-3.1
				c0.6,0,1.3,0,1.9,0.1c0.7,0.1,1.3,0.2,1.9,0.3v3.6H31z"/>
		</g>
	</g>
</g>
</svg>
