<?xml version="1.0" encoding="utf-8"?>
<!-- Generator: Adobe Illustrator 28.1.0, SVG Export Plug-In . SVG Version: 6.00 Build 0)  -->
<svg version="1.1" id="레이어_1" xmlns="http://www.w3.org/2000/svg" xmlns:xlink="http://www.w3.org/1999/xlink" x="0px"
	 y="0px" viewBox="0 0 1000 624" style="enable-background:new 0 0 1000 624;" xml:space="preserve">
<style type="text/css">
	.st0{fill:#FFFFFF;}
</style>
<g id="g19438">
	<path id="path18849" class="st0" d="M14.4,365.1c-2.7,0.1-5.3-0.8-7.4-2.5c-1.7-2.1-2.6-4.8-2.2-7.5V100.2
		c-0.3-2.7,0.5-5.4,2.2-7.5c2.1-1.6,4.6-2.3,7.2-2.1H42c5.2-0.5,10,3.2,10.7,8.4l2.7,10c8-7.7,17.4-13.8,27.7-17.9
		c10.6-4.3,21.8-6.5,33.2-6.5c22.7-0.7,44.4,9.4,58.5,27.2c15.5,21.3,23.2,47.3,21.7,73.6c0.4,19.1-3.2,38-10.7,55.6
		c-6.2,14.6-16.3,27.3-29.1,36.6c-12.4,8.5-27.2,12.8-42.2,12.5c-10.2,0-20.4-1.6-30-5c-8.9-3-17-7.6-24.1-13.7v84
		c0.3,2.7-0.5,5.4-2.1,7.5c-2.1,1.6-4.8,2.4-7.5,2.1L14.4,365.1z M98.5,248.1c12.3,0.9,24.3-4.6,31.6-14.6
		c7.8-14,11.3-29.9,10.1-45.9c1.2-16.1-2.3-32.2-10-46.4c-7.3-10.1-19.4-15.6-31.9-14.6c-13.2,0-26.2,3.6-37.5,10.4v100.6
		c11.2,7,24.2,10.7,37.5,10.6L98.5,248.1z"/>
	<path id="path18851" class="st0" d="M244.2,286.1c-4.5,0.8-8.8-2.1-9.6-6.6c-0.2-1-0.2-2,0-3V100.2c-0.3-2.7,0.5-5.4,2.2-7.5
		c2.1-1.6,4.6-2.3,7.2-2.1h27.6c5.2-0.5,10,3.2,10.7,8.4l5,20.5c8.2-9.6,18-17.7,29-24c8.9-4.7,18.9-7.1,29-7.1h5.4
		c2.7-0.2,5.4,0.5,7.6,2.1c1.7,2.1,2.6,4.8,2.2,7.5v32.2c0.2,2.6-0.5,5.2-2.1,7.2c-2.1,1.7-4.8,2.6-7.5,2.2h-6.9
		c-2.8,0-6.4,0-10.7,0c-7.2,0.1-14.4,1-21.5,2.5c-7.4,1.4-14.6,3.5-21.5,6.4v128.1c0.2,2.6-0.5,5.2-2.1,7.2
		c-2.1,1.7-4.8,2.6-7.5,2.2H244.2z"/>
	<path id="path18853" class="st0" d="M416,60.1c-8.5,0.4-16.9-2.4-23.4-8c-6-5.6-9.3-13.6-8.9-21.9c-0.4-8.3,2.8-16.3,8.9-22
		c13.7-11,33.2-11,46.9,0c6,5.6,9.3,13.6,8.9,21.9c0.4,8.2-2.8,16.2-8.9,21.9C433,57.6,424.6,60.5,416,60.1z M397.6,286.2
		c-4.5,0.8-8.8-2.1-9.6-6.6c-0.2-1-0.2-2,0-3V100.2c-0.3-2.7,0.5-5.4,2.2-7.5c2.1-1.6,4.6-2.3,7.2-2.1h36.9c2.7-0.3,5.4,0.5,7.5,2.1
		c1.6,2.1,2.4,4.8,2.1,7.5v176.4c0.2,2.6-0.5,5.2-2.1,7.2c-2.1,1.7-4.8,2.6-7.5,2.2L397.6,286.2z"/>
	<path id="path18855" class="st0" d="M501.1,286.1c-4.5,0.8-8.8-2.1-9.6-6.6c-0.2-1-0.2-2,0-3V100.2c-0.3-2.7,0.5-5.4,2.2-7.5
		c2.1-1.6,4.6-2.3,7.2-2.1h27.6c5.2-0.5,10,3.2,10.7,8.4l3.1,10.4c11.4-7.8,23.7-14.2,36.6-19c10.7-3.7,21.9-5.7,33.2-5.7
		c19.7-1.7,38.6,8,48.7,25c11.4-7.8,23.8-14.1,36.9-18.7c11.5-3.8,23.6-5.8,35.7-5.7c15.3-0.9,30.4,4.5,41.6,15
		c10.3,11.3,15.7,26.4,14.7,41.7v134.8c0.2,2.6-0.5,5.2-2.1,7.2c-2.1,1.7-4.8,2.6-7.5,2.2H744c-4.5,0.8-8.8-2.1-9.6-6.6
		c-0.2-1-0.2-2,0-3V153.5c0-17.4-7.8-26.1-23.4-26.1c-14.5,0.2-28.8,3.6-41.9,10v139.2c0.2,2.6-0.5,5.2-2.1,7.2
		c-2.1,1.7-4.8,2.6-7.5,2.2h-36.7c-4.5,0.8-8.8-2.1-9.6-6.6c-0.2-1-0.2-2,0-3V153.5c0-17.4-7.8-26.1-23.4-26.1
		c-14.7,0.1-29.2,3.6-42.2,10.4v138.7c0.2,2.6-0.5,5.2-2.1,7.2c-2.1,1.7-4.8,2.6-7.5,2.2L501.1,286.1z"/>
	<path id="path18857" class="st0" d="M923.6,291.8c-26.9,1.8-53.4-7.7-73.1-26.1c-18-20.6-27-47.6-25-75
		c-1.8-28.3,7.3-56.3,25.5-78.1c18.9-19.5,45.4-29.9,72.6-28.4c20.1-1.2,39.9,4.9,55.9,17.2c13.5,11.5,20.9,28.5,20.1,46.2
		c0.9,17.3-7.3,33.8-21.7,43.5c-19.4,11.1-41.6,16.2-63.8,14.7c-12.6,0.1-25.2-1.3-37.5-4.2c0.1,13.8,5.6,27,15.5,36.7
		c11.7,8.3,25.9,12.2,40.1,11.1c7,0,13.9-0.5,20.9-1.4c9.5-1.5,18.9-3.5,28.2-6h2.2h1.9c4.3,0,6.5,3,6.5,8.9v17.6
		c0.2,3-0.4,6-1.7,8.6c-1.8,2.1-4.1,3.6-6.7,4.4C964.3,288.7,944,292.2,923.6,291.8z M911.1,171.5c9.8,0.7,19.7-1.4,28.4-6
		c6-4.1,9.3-11,8.9-18.2c0-16.1-9.6-24.1-28.7-24.1c-24.6,0-38.8,15.1-42.6,45.2c11.2,2.1,22.5,3.2,33.9,3.1H911.1z"/>
	<path id="path18859" class="st0" d="M903.5,501.4c-109.5,80.7-268.1,123.6-404.7,123.6c-182.5,1-358.8-66.2-494.4-188.3
		c-10.2-9.2-1.1-21.9,11.2-14.7c150.7,86,321.2,131.2,494.7,131.1c129.5-0.7,257.5-26.9,376.8-77.1
		C906.2,468,921.6,487.5,903.5,501.4z"/>
	<path id="path18861" class="st0" d="M949.6,450c-14-17.9-92.5-8.5-127.8-4.2c-10.7,1.2-12.5-8-2.7-14.7
		c62.5-44,165.3-31.2,177.2-16.5c11.9,14.7-3.1,117.6-62.5,166.7c-9,7.5-17.6,3.5-13.6-6.5C933.5,541.1,963.1,467.4,949.6,450z"/>
</g>
</svg>
