<?xml version="1.0" encoding="utf-8"?>
<!-- Generator: Adobe Illustrator 28.1.0, SVG Export Plug-In . SVG Version: 6.00 Build 0)  -->
<svg version="1.1" id="Camada_1" xmlns="http://www.w3.org/2000/svg" xmlns:xlink="http://www.w3.org/1999/xlink" x="0px" y="0px"
	 viewBox="0 0 539.6 530.4" style="enable-background:new 0 0 539.6 530.4;" xml:space="preserve">
<style type="text/css">
	.st0{fill:#FFFFFF;}
</style>
<path class="st0" d="M335.1,79.2c-4,41.9-6.4,85.6,17,123.1c31,50.2,53.9,112.8,116.9,129.5c100.6,29.3,91.5,181.3-13,196.6
	c-57.6,13-93.4-41.4-146.4-51.5c-74.6-17.6-155.8-16-227.8,11.2c-68.6,29.7-115.4-61.9-51.5-98.7c62.7-41.3,83-122.2,125.6-181.1
	c22.4-35.4,25-73.4,21.7-112.5c-1.3-16.1-1.6-31.2,4.1-46C211.9-31.3,336.7-7.7,335.1,79.2z M257.3,422.8c23.4,0.4,47.7-1.7,72-2.9
	c38.7-2.1,67.2-41.4,48.4-79.5c-23.1-46.9-47-93.4-78.9-135.1c-14.9-19.5-38.4-27.5-63.1-18.2c-41.7,23-82.1,114.5-103.6,158.5
	c-10.5,24.2,1.9,56,25.5,67.6c15,7.4,31.4,7.3,47.2,8.6C221.8,423.2,239.1,424,257.3,422.8z"/>
</svg>
