<?xml version="1.0" encoding="UTF-8"?>
<svg id="_레이어_1" data-name="레이어 1" xmlns="http://www.w3.org/2000/svg" version="1.1" viewBox="0 0 19.9 26">
  <defs>
    <style>
      .cls-1 {
        fill: #ffffff;
        fill-rule: evenodd;
        stroke-width: 0px;
      }
    </style>
  </defs>
  <path class="cls-1" d="M19.8,20.1c-.3-.6-.7-.9-1.5-1.5h0c-.6-.5-1.1-1.1-1.2-2.3,0-.8,0-1.4,0-2.1,0-.7.1-1.6,0-2.7,0-1.7-.6-3-1-3.8-.4-.9-.5-1.5-.5-2.6,0-.5,0-1.4,0-2.2h0c0-.6,0-1.2,0-1.5,0-.7-.3-1.1-.7-1.3-.5-.3-1.1-.2-1.5.4-.4.5-1.2,1.4-1.7,1.9-.7.7-1.1.8-1.8.8s-1.1-.1-1.8-.8c-.5-.5-1.3-1.4-1.7-1.9C6,0,5.5-.1,4.9.1c-.4.2-.7.6-.7,1.3,0,.3,0,.9,0,1.5h0c0,.8,0,1.7,0,2.2,0,1-.1,1.7-.5,2.6-.4.8-1,2.1-1,3.8,0,1.2,0,2,0,2.7,0,.7.1,1.3,0,2.1,0,1.2-.5,1.8-1.2,2.2h0c-.8.6-1.2.9-1.5,1.5-.2.5-.2,1.1.3,1.4.3.2.7.1,1.1,0,0,0,.2,0,.2-.1h0c.2-.1.5-.2.7-.2.2,0,.4.2.5.6,0,.4.2.6.5.6s.5-.2.6-.7c0,0,0-.2,0-.3h0s0,0,0,0h0c.1-.4.2-.7.5-.7.3,0,.4.4.4.9,0,.7-.2,1.3-.7,1.8-.6.6-1,1.1-.9,1.8.1.5.6.8,1.4.9.8,0,2.2,0,3.1,0,.9,0,1.4-.4,1.5-.9,0-.3,0-.5,0-.7,0-.2-.1-.3,0-.6,0-.3.3-.4.5-.4s.5.1.5.4c0,.2,0,.4,0,.6,0,.2-.1.4,0,.7.1.5.6.9,1.5.9.9,0,2.3,0,3.1,0,.8,0,1.3-.4,1.4-.9.2-.7-.3-1.2-.9-1.8-.5-.5-.8-1-.7-1.8,0-.5,0-.9.4-.9.2,0,.3.3.5.7h0s0,0,0,0h0c0,0,0,.2,0,.3.2.5.4.7.6.7s.5-.2.5-.6.2-.6.5-.6c.2,0,.5,0,.7.2,0,0,.2,0,.2.1.4.2.8.2,1.1,0,.5-.3.5-.9.4-1.4ZM6.2,9.1c.4,0,.7-.3.7-.7s-.3-.7-.7-.7-.7.3-.7.7c0,.4.3.7.7.7ZM14.4,8.4c0,.4-.3.7-.7.7s-.7-.3-.7-.7c0-.4.3-.7.7-.7s.7.3.7.7ZM10,9c1.6,0,2.7.4,3.8,1.4.7.7,1.2,2,.6,3-.3.5-.8.9-1.5,1-.9,0-1.4-.2-1.8-.7-.3-.4-.7-.7-1.2-.7s-.9.4-1.2.7c-.3.4-.9.7-1.8.7-.6,0-1.2-.5-1.5-1-.6-1,0-2.3.7-3,1.1-1,2.2-1.4,3.8-1.4ZM8.4,10.6c0-.7.7-1.3,1.5-1.3s1.5.6,1.5,1.3-.7,1.3-1.5,1.3-1.5-.6-1.5-1.3ZM6.9,19.1c0-1.8,1.4-3.3,3.1-3.3s3.1,1.5,3.1,3.3-1.4,3.3-3.1,3.3-3.1-1.5-3.1-3.3Z"/>
</svg>