<?xml version="1.0" encoding="utf-8"?>
<!-- Generator: Adobe Illustrator 28.1.0, SVG Export Plug-In . SVG Version: 6.00 Build 0)  -->
<svg version="1.1"
	 id="Layer_1" xmlns:inkscape="http://www.inkscape.org/namespaces/inkscape" xmlns:sodipodi="http://sodipodi.sourceforge.net/DTD/sodipodi-0.dtd" xmlns:cc="http://creativecommons.org/ns#" xmlns:svg="http://www.w3.org/2000/svg" xmlns:dc="http://purl.org/dc/elements/1.1/" xmlns:rdf="http://www.w3.org/1999/02/22-rdf-syntax-ns#" sodipodi:docname="AMEX.svg"
	 xmlns="http://www.w3.org/2000/svg" xmlns:xlink="http://www.w3.org/1999/xlink" x="0px" y="0px" viewBox="0 0 811.7 186.2"
	 style="enable-background:new 0 0 811.7 186.2;" xml:space="preserve">
<style type="text/css">
	.st0{fill:#FFFFFF;}
</style>
<path id="path7" inkscape:connector-curvature="0" class="st0" d="M125.1,156.8l-12.6,29.4H0L88.8,0h212.1l21.4,41.1l20-41.1h75.3
	h38h172.6l24.4,25.6L679,0h132.8l-94.3,92.9l90.2,93.3H679.2l-28.7-27.4l-28.5,27.4H455.6h-38H163.2l-13.8-29.4 M149.5,158.8H125
	H149.5z M421.3,26.6h-55.9l-42,89.1l-45.2-89.1h-55.9v129l-57.7-129h-52.4l-61.7,133h37.8l12.5-30.3h71.8l14.4,30.3h69.4V51.3
	l49.2,108.2H338L387,53.2v106.4h34.3L421.3,26.6L421.3,26.6z M651.9,69.7L612,26.6H451.9v133h154.8l43.9-43.6l44.1,43.6h41.2
	l-63-67.3l64.9-65.7h-43.1L651.9,69.7z M567.5,133h-81.4v-29.3h81.4V77.1h-81.4V53.2h81.4V30.6L627.9,91l-60.4,60.6V133z
	 M137.5,48.4l23.4,54h-48.7L137.5,48.4z"/>
</svg>
