<?xml version="1.0" encoding="utf-8"?>
<!-- Generator: Adobe Illustrator 28.1.0, SVG Export Plug-In . SVG Version: 6.00 Build 0)  -->
<svg version="1.1" id="레이어_1" xmlns="http://www.w3.org/2000/svg" xmlns:xlink="http://www.w3.org/1999/xlink" x="0px"
	 y="0px" viewBox="0 0 266.9 155.4" style="enable-background:new 0 0 266.9 155.4;" xml:space="preserve">
<style type="text/css">
	.st0{fill:#FFFFFF;}
</style>
<path class="st0" d="M266.1,149.6L266.1,149.6c-0.1-0.6-0.2-1.1-0.2-1.6c-0.6-3.3-1.2-6.6-2-9.9c-2.6-10.4-6.3-20.5-11.3-30
	c-2.9-5.5-6.1-10.8-9.7-15.9c-4.4-6.2-9.3-12-14.7-17.3c-7.2-7.1-15.1-13.4-23.7-18.8c0.1-0.1,0.1-0.2,0.1-0.3
	c2.7-4.7,5.4-9.3,8.1-13.9l7.9-13.6c1.9-3.3,3.8-6.5,5.7-9.8c1.9-3.3,2.2-7.4,0.7-10.9c-1-2.4-2.8-4.4-5-5.8
	c-1.6-0.9-3.4-1.5-5.2-1.7c-0.8-0.1-1.5-0.1-2.3,0c-3.9,0.4-7.4,2.6-9.3,6c-1.9,3.3-3.8,6.5-5.7,9.8l-7.9,13.6
	c-2.7,4.7-5.4,9.3-8.1,13.9c-0.3,0.5-0.6,1-0.9,1.5c-0.4-0.2-0.8-0.3-1.2-0.5c-14.8-5.7-30.9-8.8-47.8-8.8c-0.5,0-0.9,0-1.4,0
	c-15,0.1-29.3,2.8-42.8,7.4c-1.6,0.5-3.1,1.1-4.6,1.7c-0.3-0.5-0.6-1-0.8-1.4c-2.7-4.7-5.4-9.3-8.1-13.9l-7.9-13.6
	c-1.9-3.3-3.8-6.5-5.7-9.8C59.8,2,55.3-0.4,50.6,0c-1.8,0.2-3.6,0.7-5.2,1.7c-1.7,1-3.2,2.5-4.2,4.2c-0.3,0.5-0.6,1-0.8,1.5
	c-1.1,2.7-1.3,5.7-0.4,8.5c0.3,0.8,0.6,1.6,1.1,2.4c1.9,3.3,3.8,6.5,5.7,9.8c2.6,4.5,5.3,9.1,7.9,13.6c2.7,4.7,5.4,9.3,8.1,13.9
	c0,0,0,0.1,0.1,0.1c-5.4,3.4-10.6,7.1-15.5,11.2c-8.7,7.3-16.5,15.7-23.1,25c-3.6,5.1-6.9,10.4-9.7,15.9c-5,9.5-8.8,19.6-11.3,30
	c-0.8,3.3-1.5,6.6-2,9.9c-0.1,0.5-0.2,1.1-0.3,1.6c-0.3,2-0.6,3.9-0.8,5.9h266.9C266.7,153.5,266.4,151.5,266.1,149.6z M81.9,113.1
	c-4.4,6.6-12.3,9-17.6,5.5c-5.3-3.6-6.1-11.8-1.7-18.4c4.4-6.6,12.3-9,17.6-5.5C85.5,98.3,86.2,106.5,81.9,113.1z M202.9,118.5
	L202.9,118.5c-5.3,3.6-13.2,1.1-17.6-5.5c-4.4-6.6-3.6-14.8,1.7-18.4c5.3-3.6,13.2-1.1,17.6,5.5C209,106.8,208.2,115,202.9,118.5z"
	/>
</svg>
