<?xml version="1.0" encoding="UTF-8"?>
<svg id="_레이어_1" data-name="레이어 1" xmlns="http://www.w3.org/2000/svg" viewBox="0 0 990.944 896.448">
  <defs>
    <style>
      .cls-1 {
        fill: #020201;
      }

      .cls-1, .cls-2, .cls-3 {
        stroke-width: 0px;
      }

      .cls-2 {
        fill: #fee500;
      }

      .cls-3 {
        fill: #fff;
      }
    </style>
  </defs>
  <path class="cls-2" d="M64.401,547.187c-.36,7.297-.887,14.592-1.014,21.893-.072,4.105-2.089,6.186-5.78,6.799-6.484,1.077-12.846,2.465-19.085,4.644-3.131,1.094-6.744.738-9.335-1.865-2.957-2.97-1.307-6.584.12-9.266,4.445-8.356,7.163-17.702,14.385-24.546,2.551-2.418,4.107-5.92,4.828-9.644,1.035-5.338,3.886-9.807,7.486-13.796,1.299-1.439,2.626-3.354,4.888-2.631,2.494.797,3.357,3.117,3.544,5.505.208,2.642.117,5.309.125,7.965.014,4.982.004,9.963.004,14.945-.055,0-.111-.002-.166-.003Z"/>
  <path class="cls-2" d="M964.418,569.626c-.662-1.846-1.614-3.706-2.861-5.205-9.148-10.999-15.628-23.756-23.64-35.492-3.629-5.316-8.016-10.248-14.445-13.75-3.225,8.051-.194,14.629.275,21.096-.213,10.4.839,20.879,2.446,31.338.662,4.31,2.098,9.041,7.031,9.856,8.072,1.333,16.166,4.038,24.511,1.543,7.411-1.483,8.833-3.392,6.682-9.386Z"/>
  <path class="cls-2" d="M897.229,503.992c-1.263-26.341-4.859-52.252-8.627-78.243-1.397-9.633-6.119-18.089-7.881-27.615-2.353-12.718-4.402-25.563-8.288-37.98-2.96-9.461-8.81-17.761-10.926-27.547-1.037-10.989-5.352-20.926-10.558-30.39-.362-.659-.748-1.324-1.137-1.992l-3.902-12.178c.001-7.135-3.071-12.843-6.288-18.753-.082.45-.145.893-.188,1.33.043-.437.106-.88.188-1.33-3.052-5.734-6.1-11.47-9.148-17.205-1.723-10.811-6.768-19.994-13.819-28.194.002.005.003.01.005.015-.634-1.373-1.268-2.746-1.901-4.119.001,0,.024.236.024.236-.251-1.509-.667-2.937-1.281-4.267h7.793v-17.806h-8.774v-9.29h-6.194v-9.806h-2.839v-5.677h-7.226v-10.839h-9.548v-11.613h-7.097v-6.968h-8.387v-9.806h-11.879v-13.161h-12.379v-12.903h-9.29v-8.774h-6.968v-9.29h-25.577c-17.974-12.285-36.815-23.221-56.503-32.684-19.177-9.217-39.247-16.081-59.789-21.463-21.392-5.605-43.083-9.767-65.142-11.785-21.95-2.721-43.902-3.233-65.855-.029-23.051.004-44.788,7.071-65.911,14.706-30.023,10.853-58.663,24.968-85.703,42.403-38.21,24.637-71.679,54.463-99.344,90.272-32.746,42.386-57.433,89.44-75.681,139.873-14.071,38.89-24.512,78.66-31.537,119.424-2.104,12.212-2.509,24.463-3.896,36.671-1.577,13.882-3.304,27.708-3.302,41.725.008,54.282.925,108.544,3.854,162.75.63,11.65,2.719,23.538,8.159,33.789,5.914,11.146,9.29,23.12,13.87,34.655,5.856,14.745,15.546,26.462,26.24,37.434,9.729,9.981,19.127,20.302,30.962,28.287,4.644,3.133,8.78,7.878,13.984,10.428,17.487,8.57,35.39,16.286,53.644,23.05,10.267,3.805,20.373,8.225,31.528,9.467v11.092h31.613v8.258h17.935v10.323h58.065v-5.805c7.757.648,15.55,1.016,23.385.961,6.326.094,12.653.312,18.978.26,28.309-.232,56.595.249,84.896,1.211,11.169.38,22.348.699,33.515.642v7.118h93.161v-18.374c8.007-.377,15.946-1.316,23.75-3.215,8.711-2.119,18.216-1.094,26.151-5.231,15.808-8.242,33.385-7.363,50.096-10.598,11.522-2.231,22.701-4.17,32.9-10.332,4.487-2.711,9.349-4.658,14.846-5.359,6.972-.889,13.506-3.491,17.543-9.998.88-1.417,1.99-2.43,3.617-3.196,6.08-2.864,10.751-7.648,15.701-12.047,12.439-11.053,23.479-23.374,33.428-36.693,4.567-2.211,5.864-4.261,7.836-12.372,2.399-.315,2.824-2.642,3.854-4.136,12.99-18.854,18.913-40.642,24.225-62.366,6.82-27.892,7.103-56.67,8.308-85.211,1.403-33.25.308-66.473-1.287-99.738ZM176.348,333.657c-1.504,4.452-1.604,9.064-1.896,13.675-.166,2.621-.292,5.321-1.019,7.815-1.505,5.157-4.498,6.781-9.702,6.188-5.627-.641-4.193-4.835-4.441-8.391.891-9.011,3.66-17.288,10.967-23.432,1.793-1.508,3.937-3.007,6.17-1.289,1.979,1.522.519,3.662-.079,5.434ZM210.511,333.271c-1.145,6.516-2.23,13.046-3.561,19.525-.629,3.063-2.088,5.761-5.916,5.467-3.452-.265-5.174-2.559-6.098-5.664-1.06-3.562-.861-7.22-.922-10.861.014-.995-.011-1.99.018-2.984.242-8.157,7.12-12.616,14.55-9.472,1.869.791,2.234,2.25,1.928,3.99ZM315.963,260.885c-18.765,16.896-40.433,26.523-65.847,27.021-9.141.24-18.068-.671-26.574-4.021-32.012-12.605-39.148-38.126-21.891-66.091,17.743-28.753,46.577-41.711,80.149-43.628,15.088-.862,28.993,2.694,41.61,11.355,8.583,5.892,12.52,13.398,13.623,24.034,2.21,21.305-5.786,37.567-21.07,51.33ZM545.346,354.408c-14.257,11.338-30.448,19.113-48.846,17.928-16.623.565-30.875-4.833-43.964-13.187-13.638-8.705-19.504-21.625-16.983-37.693,1.826-11.641,5.371-22.704,14.953-30.724,1.517-1.27,2.816-2.842,4.046-4.407,2.536-3.228,3.471-6.159-.651-9.263-3.158-2.378-5.39-5.986-8.548-8.363-9.361-7.045-12.01-16.839-13.306-27.866-3.188-27.119,16.35-52.848,40.343-57.753,23.127-4.727,43.327.892,59.24,19.608,9.054,10.648,14.743,22.776,19.135,35.797,2.304,6.831,2.189,13.791,1.775,20.747-.323,5.426-4.378,9.385-9.401,10.138-4.156.623-8.124-2.393-9.956-8.061-1.121-3.47-1.628-7.135-2.514-10.686-4.174-16.73-12.785-30.498-26.725-40.936-11.127-8.332-22.433-5.393-32.897.153-9.612,5.095-14.946,13.994-14.517,25.475.381,10.196,8.077,20.662,17.888,24.309,8.459,3.144,17.333,4.596,26.133,6.377,3.889.787,7.934,1.695,10.148,5.555,4.172,7.271.934,14.371-7.5,16.676-5.124,1.4-10.3,2.564-15.418,4.038-13.041,3.755-21.735,12.361-28.536,23.51-4.119,6.751-3.903,10.393,1.341,16.055,21.971,23.725,56.592,17.253,69.823-2.561,2.806-4.202,6.473-7.599,10.445-10.661,3.576-2.757,7.601-3.998,12.154-3.341,5.744.828,7.442,2.494,7.907,8.323,1.068,13.398-6.147,23.322-15.569,30.815ZM734.833,346.622c-.178,2.057-1.11,4.083-3.309,4.434-2.019.322-3.919-.783-5.107-2.487-.927-1.331-1.69-2.857-2.166-4.406-2.279-7.422-2.148-15.007-1.165-22.602.371-2.865,1.845-5.12,4.989-5.214,3.023-.09,4.723,1.857,5.681,4.63,1.665,4.817.901,9.841,1.583,15.908-.12,2.484-.195,6.121-.508,9.737ZM764.177,348.214c-2.649-.784-4.834-1.979-6.082-4.619-2.274-4.811-4.102-9.792-4.853-15.044-.776-5.42,2.319-10.235,6.565-10.569,5.118-.403,7.059,3.241,7.837,7.296,1.18,6.149,1.792,12.408,2.645,18.62.063,4.764-1.361,5.723-6.112,4.317ZM768.82,278.521c-10.35,5.764-21.317,9.213-33.532,9.231-33.145-4.871-63.543-14.986-82.328-45.737-9.483-15.523-10.836-32.341-2.776-48.714,5.267-10.699,15.614-16.08,27.047-18.817,19.793-4.739,38.883-2.18,57.768,5.036,11.726,4.481,21.867,11.159,31.342,19.097,11.65,9.76,18.922,22.225,22.106,37.02,3.698,17.187-4.226,34.308-19.627,42.885ZM799.882,349.582c-7.488-3.309-15.632-18.741-14.141-26.793.944-5.094,5.41-7.016,9.603-4.048,1.058.749,2.211,1.712,2.711,2.846,3.465,7.853,5.711,16.108,7.695,23.618-.019,4.77-2.109,6.038-5.868,4.376Z"/>
  <path class="cls-1" d="M987.58,565.569c-2.63-4.233-4.841-8.742-7.648-12.849-17.844-26.106-35.835-52.111-53.703-78.201-5.849-8.541-11.612-17.366-13.152-27.751-2.397-16.156-6.438-31.969-10.044-47.812-7.009-30.799-16.245-61.011-26.843-90.844-14.046-39.537-29.845-78.171-50.863-114.595-26.461-45.859-60.358-85.141-102.701-116.938-26.142-19.631-54.373-35.58-84.839-47.771C596.275,12.198,553.271,2.492,508.752.416c-48.424-2.259-95.485,4.585-140.763,23.117-48.835,19.987-93.123,47.162-132.058,82.546-29.388,26.707-53.896,57.764-75.037,91.478-30.508,48.651-51.611,101.167-66.604,156.466-8.209,30.276-13.167,61.16-19.561,91.774-1.313,6.286-3.121,12.288-6.532,17.695-8.349,13.233-16.814,26.394-25.262,39.565-12.914,20.132-26.025,40.14-38.722,60.407-8.146,13.002-4.1,28.309,8.858,36.213,6.99,4.264,14.315,6.902,22.668,6.341,4.98-.334,10.006.014,14.986-.323,17.125-1.159,17.121-1.223,17.984,16.551.065,1.332.023,2.673.157,3.997,1.646,16.238,2.663,32.574,5.133,48.686,3.645,23.773,10.382,46.703,20.694,68.6,11.903,25.275,26.768,48.354,47.756,67,29.681,26.367,64.822,42.773,102.316,54.463,27.042,8.431,54.654,14.575,82.586,19.393,28.275,4.877,56.758,7.848,85.322,10.08,30.929,2.416,61.947,1.568,92.935,1.94,41.087.493,81.885-3.089,122.579-8.018,17.839-2.161,35.537-5.535,53.267-8.548,37.154-6.315,73.727-14.985,108.711-29.238,28.254-11.511,52.011-29.343,71.618-52.84,15.114-18.114,25.371-38.892,34.176-60.468,3.255-7.976,6.753-15.921,8.769-24.393,3.463-14.556,7.585-28.926,10.613-43.623,4.301-20.877,5.958-41.968,8.057-63.872,1.587,0,2.923-.127,4.225.03,1.977.238,3.955.57,5.889,1.041,20.23,4.93,36.914-2.204,50.632-16.346,8.566-8.831,8.24-16.828,3.437-24.559ZM64.567,547.189c-.055,0-.111-.002-.166-.003-.36,7.297-.887,14.592-1.014,21.893-.072,4.105-2.089,6.186-5.78,6.799-6.484,1.077-12.845,2.465-19.085,4.644-3.131,1.094-6.744.738-9.335-1.865-2.957-2.97-1.307-6.584.12-9.266,4.446-8.356,7.163-17.702,14.385-24.546,2.551-2.418,4.107-5.92,4.828-9.644,1.035-5.338,3.886-9.807,7.486-13.796,1.299-1.439,2.625-3.354,4.888-2.631,2.494.797,3.356,3.117,3.544,5.505.208,2.642.117,5.309.125,7.965.014,4.982.004,9.963.004,14.945ZM762.926,141.757c8.538,9.215,16.203,19.066,22.027,30.258.488.652,1.069,1.051,1.89,1.913,4.519,5.259,8.07,10.085,11.682,17.054.022.042,1.097,1.134,1.112,1.156.501.731.549.803.997,1.505.496.52.532.544,1.016,1.113.266.351.343.359.542.674,3.305,5.241,7.294,10.163,8.615,16.446,2.255,2.26,3.459,5.037,3.977,8.152l-.023-.236c.652,1.413,1.304,2.826,1.955,4.24l-.06-.136c7.05,8.2,12.095,17.383,13.818,28.194,3.048,5.735,6.096,11.471,9.143,17.206,3.458,6.344,6.749,12.454,6.244,20.349-.267,4.187,2.837,8.483,5.087,12.573,5.206,9.464,9.521,19.401,10.558,30.39,2.116,9.786,7.966,18.087,10.926,27.547,3.886,12.417,5.935,25.262,8.288,37.98,1.762,9.526,6.484,17.982,7.881,27.615,3.768,25.991,7.364,51.902,8.627,78.243,1.595,33.265,2.691,66.487,1.287,99.738-1.204,28.54-1.488,57.319-8.308,85.211-5.312,21.724-11.235,43.512-24.225,62.366-1.029,1.494-1.454,3.821-3.856,4.134-1.969,8.113-3.266,10.162-7.833,12.373-9.949,13.318-20.989,25.64-33.428,36.693-4.95,4.398-9.621,9.183-15.701,12.047-1.627.766-2.737,1.778-3.617,3.196-4.037,6.507-10.571,9.11-17.543,9.998-5.496.701-10.359,2.649-14.846,5.359-10.199,6.162-21.378,8.102-32.9,10.332-16.711,3.235-34.288,2.356-50.096,10.598-7.935,4.137-17.44,3.111-26.151,5.231-14.215,3.459-29.308-.343-43.582,3.221-7.482,1.868-13.048,3.333-17.135,4.916-30.247,6.432-59.149,6.731-89.708,5.692-28.301-.962-56.587-1.443-84.896-1.211-6.325.052-12.652-.166-18.978-.26-16.286.114-32.393-1.566-48.368-3.892-12.21-3.587-17.34-5.974-24.055-7.138-12.641-2.192-25.192-4.728-37.48-8.892-6.252-2.119-12.748-4.216-19.258-4.725-11.889-.93-22.536-5.635-33.365-9.647-18.255-6.764-36.157-14.48-53.644-23.05-5.204-2.55-9.34-7.295-13.984-10.428-11.835-7.985-21.233-18.306-30.962-28.287-10.694-10.972-20.385-22.69-26.24-37.434-4.581-11.534-7.956-23.508-13.87-34.655-5.439-10.251-7.529-22.139-8.159-33.789-2.929-54.206-3.846-108.468-3.854-162.75-.002-14.017,1.726-27.843,3.302-41.725,1.386-12.208,1.791-24.459,3.896-36.671,7.025-40.764,17.466-80.535,31.537-119.424,18.248-50.433,42.935-97.487,75.681-139.873,27.665-35.809,61.134-65.636,99.344-90.272,27.04-17.435,55.68-31.55,85.703-42.403,21.123-7.635,42.86-14.702,65.911-14.706,21.953-3.204,43.904-2.692,65.855.03,22.06,2.017,43.75,6.18,65.142,11.785,20.543,5.382,40.613,12.247,59.789,21.463,27.74,13.332,53.807,29.574,78.118,48.421,2.316,1.795,4.253,3.489,6.195,6.181,18.155,18.469,29.978,30.015,29.978,30.015ZM957.739,579.011c-8.348,2.496-16.442-.209-24.514-1.542-4.933-.815-6.369-5.546-7.031-9.856-1.607-10.459-1.43-20.494-2.446-31.338-.247-6.896-1.693-13.161-.275-21.096,6.429,3.502,10.816,8.434,14.445,13.75,8.012,11.736,14.492,24.493,23.64,35.492,1.246,1.498,2.198,3.359,2.861,5.205,2.151,5.993.729,7.903-6.679,9.385Z"/>
  <g>
    <path class="cls-1" d="M496.5,372.336c-16.623.565-30.875-4.833-43.964-13.187-13.638-8.705-19.504-21.625-16.983-37.693,1.826-11.641,5.371-22.704,14.953-30.724,1.517-1.27,2.816-2.842,4.046-4.407,2.536-3.228,3.471-6.159-.651-9.263-3.158-2.378-5.39-5.986-8.548-8.363-9.361-7.045-12.01-16.839-13.306-27.866-3.188-27.119,16.35-52.848,40.343-57.753,23.127-4.727,43.327.892,59.24,19.608,9.054,10.648,14.743,22.776,19.135,35.797,2.304,6.831,2.189,13.791,1.775,20.747-.323,5.426-4.378,9.385-9.401,10.138-4.156.623-8.124-2.393-9.956-8.061-1.121-3.47-1.628-7.135-2.514-10.686-4.174-16.73-12.785-30.498-26.725-40.936-11.127-8.332-22.433-5.393-32.897.153-9.612,5.095-14.946,13.994-14.517,25.475.381,10.196,8.077,20.662,17.888,24.309,8.459,3.144,17.333,4.596,26.133,6.377,3.889.787,7.933,1.695,10.148,5.555,4.172,7.271.934,14.371-7.5,16.676-5.124,1.4-10.3,2.564-15.418,4.038-13.041,3.755-21.735,12.361-28.536,23.51-4.119,6.751-3.903,10.393,1.341,16.055,21.971,23.725,56.592,17.253,69.823-2.561,2.806-4.202,6.473-7.599,10.445-10.661,3.576-2.757,7.601-3.998,12.154-3.341,5.744.828,7.442,2.494,7.907,8.323,1.068,13.398-6.147,23.322-15.569,30.815-14.257,11.338-30.448,19.113-48.846,17.928Z"/>
    <g>
      <path class="cls-1" d="M805.749,345.206c-.019,4.77-2.109,6.037-5.868,4.376-7.488-3.309-15.632-18.741-14.141-26.793.944-5.093,5.41-7.016,9.603-4.048,1.058.749,2.211,1.712,2.711,2.846,3.465,7.853,5.711,16.108,7.695,23.618Z"/>
      <path class="cls-1" d="M159.29,352.944c.891-9.011,3.66-17.288,10.967-23.432,1.793-1.508,3.937-3.007,6.17-1.288,1.979,1.522.519,3.662-.079,5.434-1.504,4.452-1.605,9.064-1.896,13.675-.166,2.621-.292,5.321-1.019,7.815-1.505,5.157-4.498,6.781-9.702,6.188-5.627-.641-4.193-4.835-4.441-8.391Z"/>
      <path class="cls-1" d="M770.288,343.897c.063,4.764-1.362,5.723-6.112,4.317-2.649-.784-4.834-1.979-6.082-4.619-2.274-4.811-4.102-9.792-4.853-15.044-.776-5.42,2.319-10.235,6.565-10.569,5.118-.403,7.059,3.241,7.837,7.296,1.18,6.149,1.792,12.408,2.645,18.62Z"/>
      <path class="cls-1" d="M735.341,336.885c-.12,2.485-.195,6.121-.508,9.737-.178,2.057-1.11,4.083-3.309,4.434-2.019.322-3.919-.783-5.107-2.487-.927-1.33-1.69-2.857-2.166-4.406-2.279-7.422-2.148-15.007-1.165-22.602.371-2.865,1.845-5.12,4.989-5.214,3.023-.09,4.723,1.857,5.681,4.63,1.665,4.817.901,9.841,1.583,15.908Z"/>
      <path class="cls-1" d="M194.021,341.738c.007-.995-.018-1.99.011-2.984.242-8.157,7.12-12.616,14.55-9.472,1.869.791,2.234,2.25,1.928,3.99-1.145,6.516-2.23,13.046-3.561,19.525-.629,3.063-2.087,5.761-5.916,5.467-3.452-.265-5.174-2.559-6.098-5.664-1.06-3.562-.861-7.22-.915-10.861Z"/>
    </g>
    <g>
      <path class="cls-1" d="M735.288,287.752c-33.145-4.871-63.543-14.986-82.328-45.737-9.483-15.523-10.837-32.341-2.776-48.714,5.267-10.699,15.613-16.08,27.047-18.817,19.793-4.739,38.883-2.18,57.768,5.036,11.726,4.481,21.867,11.159,31.342,19.097,11.65,9.76,18.922,22.225,22.106,37.02,3.698,17.187-4.226,34.308-19.627,42.886-10.35,5.764-21.317,9.213-33.532,9.231ZM735.775,258.132c3.974-.231,7.991-.169,11.912-.753,8.623-1.286,12.285-5.735,11.581-14.338-.666-8.13-3.551-15.179-9.646-21.187-12.429-12.254-28.091-17.145-44.378-20.871-9.191-2.102-17.806.028-25.923,4.377-7.034,3.769-8.43,7.389-5.529,14.659,1.215,3.044,2.895,5.995,4.835,8.644,14.129,19.295,34.186,27.16,57.148,29.471Z"/>
      <path class="cls-1" d="M250.116,287.906c-9.141.24-18.068-.671-26.574-4.021-32.012-12.605-39.148-38.126-21.891-66.091,17.743-28.753,46.577-41.711,80.149-43.628,15.088-.862,28.993,2.694,41.61,11.355,8.583,5.892,12.52,13.398,13.623,24.034,2.21,21.305-5.786,37.567-21.07,51.33-18.765,16.897-40.433,26.523-65.847,27.021ZM243.992,260.183c23.821-.257,42.76-9.231,58.172-25.891,3.397-3.672,6.07-7.914,7.124-12.939,1.707-8.138-.548-12.509-8.307-15.696-5.56-2.283-11.348-4.13-17.424-3.387-14.994,1.833-29.3,5.923-41.917,14.568-7.784,5.334-14.285,12.025-18.002,20.836-4.585,10.868-.076,19.208,11.396,21.515,3.236.651,6.584.744,8.959.995Z"/>
      <path class="cls-3" d="M735.775,258.132c-22.961-2.31-43.019-10.175-57.148-29.471-1.939-2.649-3.62-5.599-4.835-8.644-2.902-7.27-1.506-10.89,5.529-14.659,8.117-4.349,16.731-6.479,25.923-4.377,16.288,3.726,31.949,8.617,44.378,20.871,6.095,6.009,8.98,13.057,9.646,21.187.704,8.603-2.958,13.052-11.581,14.338-3.921.585-7.938.522-11.912.753Z"/>
      <path class="cls-3" d="M243.992,260.183c-2.375-.251-5.723-.345-8.959-.995-11.472-2.306-15.981-10.646-11.396-21.515,3.717-8.811,10.218-15.502,18.002-20.836,12.617-8.645,26.923-12.735,41.917-14.568,6.076-.743,11.864,1.104,17.424,3.387,7.759,3.186,10.014,7.558,8.307,15.696-1.054,5.025-3.726,9.267-7.124,12.939-15.413,16.66-34.351,25.634-58.172,25.891Z"/>
    </g>
  </g>
</svg>