<?xml version="1.0" encoding="utf-8"?>
<!-- Generator: Adobe Illustrator 28.1.0, SVG Export Plug-In . SVG Version: 6.00 Build 0)  -->
<svg version="1.1" id="레이어_1" xmlns="http://www.w3.org/2000/svg" xmlns:xlink="http://www.w3.org/1999/xlink" x="0px"
	 y="0px" viewBox="0 0 136 102.6" style="enable-background:new 0 0 136 102.6;" xml:space="preserve">
<style type="text/css">
	.st0{fill-rule:evenodd;clip-rule:evenodd;fill:#02A9FF;}
	.st1{fill-rule:evenodd;clip-rule:evenodd;fill:#FEFEFE;}
</style>
<g>
	<path class="st0" d="M93,76.4V6.2c0-4-2.2-6.2-6.2-6.2H73c-4,0-6.2,2.2-6.2,6.2c0,0,0,15.3,0,33.3c0,0.9,14.1,43.5,27.7,57.3
		c0.1,0.1,2.8,5.7,3,5.7c15.3,0,32.2,0,32.2,0c4,0,6.2-2.2,6.2-6.2V82.6c0-4-2.2-6.2-6.2-6.2H93z"/>
	<path class="st1" d="M36,0L0,102.6h28l6.1-17.7h30.5l6,17.7h27.9L62.5,0H36z M40.5,62.1l8.7-28.4l9.6,28.4H40.5z"/>
</g>
</svg>
