<?xml version="1.0" encoding="utf-8"?>
<!-- Generator: Adobe Illustrator 28.1.0, SVG Export Plug-In . SVG Version: 6.00 Build 0)  -->
<svg version="1.1" id="레이어_1" xmlns="http://www.w3.org/2000/svg" xmlns:xlink="http://www.w3.org/1999/xlink" x="0px"
	 y="0px" viewBox="0 0 58.2 44.2" style="enable-background:new 0 0 58.2 44.2;" xml:space="preserve">
<style type="text/css">
	.st0{fill:#FFFFFF;}
</style>
<g id="Symbols">
	<g id="PC_x2F_Header" transform="translate(-42.000000, -17.000000)">
		<g id="Group" transform="translate(32.000000, 0.000000)">
			<g>
				<path class="st0" d="M39.5,17c3.1,0,6.5,0,10,0.1c3.5,0.1,7,0.3,10.6,0.8c3.7,0.5,6.6,3,7.2,6.6c0.3,1.6,0.4,3.3,0.5,4.9
					c0.2,2.7,0.4,5.3,0.3,8c-0.1,3.6-0.2,7.3-0.5,10.9c-0.1,1.6-0.2,3.2-0.3,4.8c-0.3,3.4-3.1,6.4-6.5,7c-2.2,0.4-4.3,0.5-6.5,0.7
					c-5.8,0.4-11.6,0.4-17.4,0.4c-4.5,0-8.9-0.1-13.4-0.4c-2.2-0.1-4.4-0.3-6.6-0.7c-3.2-0.6-6.1-3.6-6.3-7.5
					c-0.2-4.4-0.5-8.8-0.6-13.2c-0.2-4.9,0.1-9.8,0.7-14.7c0.4-3.3,3.4-6.2,6.7-6.7c2.6-0.4,5.2-0.6,7.9-0.7
					C29.9,17.1,34.5,17,39.5,17z M39.3,21.4c-3.7,0-7.1,0-10.6,0.2c-3.1,0.2-6.3,0.3-9.4,0.8c-2.2,0.3-3.9,1.9-4.1,4.1
					c-0.3,2.7-0.5,5.4-0.6,8.2c-0.1,3.5,0,7,0.7,10.4c0.3,1.8,1.8,3.3,3.6,3.6c0.9,0.2,1.7,0.3,2.6,0.4c4,0.5,8,0.6,12,0.7
					c5.1,0.1,10.1,0.1,15.2-0.1c3.3-0.1,6.6-0.3,9.9-0.8c2.3-0.4,3.8-1.8,4.2-4c0.5-2.5,0.6-5.1,0.7-7.7c0-3.6-0.2-7.1-0.7-10.6
					c-0.2-2-1.7-3.6-3.7-4c-2.8-0.5-5.6-0.7-8.5-0.9C46.8,21.4,42.9,21.3,39.3,21.4z M60.6,54.8c0-1.9-1.5-3.4-3.3-3.4
					c-1.9,0-3.4,1.5-3.4,3.3c0,1.9,1.5,3.4,3.3,3.4C59.1,58.2,60.6,56.7,60.6,54.8z"/>
				<path class="st0" d="M24.9,36.3c0,1.6-0.1,3.1-0.2,4.5c0,0.3-0.1,0.5-0.1,0.8c-0.1,1.1-0.1,1.1-1.3,1.1c-0.5,0-1.1,0-1.6,0
					c-0.3,0-0.4-0.1-0.4-0.4c0.1-2,0.3-4,0.4-6c0.1-1,0.1-2,0.2-2.9c0-0.3,0.1-0.4,0.4-0.4c0.7,0,1.4,0,2.1,0c0.4,0,0.6,0.1,0.5,0.5
					c0,0.2,0,0.4,0,0.7c0.7-0.6,1.4-1.3,1.8-2c0.2-0.3-0.1-0.3-0.2-0.2c-1.6,0.1-3.2,0.1-4.7,0.2c-1.2,0.1-2.3,0.2-3.5,0.3
					c-0.3,0-0.4-0.1-0.4-0.4c-0.1-0.8-0.2-1.6-0.3-2.3c-0.1-0.4,0.1-0.5,0.4-0.5c1.2-0.1,2.5-0.2,3.7-0.3c2.5-0.2,5-0.3,7.5-0.2
					c0.4,0,0.5,0.1,0.5,0.5c0.1,0.9,0.2,1.8,0.4,2.8c0,0.3,0,0.6-0.2,0.9c-1.1,1.5-2.1,3.1-3.5,4.4c-0.5,0.4-0.5,0.4-0.9-0.1
					C25.3,36.8,25.1,36.6,24.9,36.3z"/>
				<path class="st0" d="M53.3,30.4c-0.1,0.1-0.1,0.3-0.2,0.4c-0.8,1.5-1.6,3-2.6,4.4c-0.2,0.4-0.2,0.5,0.2,0.8
					c0.9,0.6,1.8,1.2,2.7,1.9c0.3,0.2,0.3,0.3,0.1,0.5c-0.5,0.7-0.9,1.4-1.4,2.1c-0.2,0.3-0.3,0.3-0.5,0.1c-0.9-0.7-1.9-1.3-2.8-2
					c-0.3-0.2-0.4-0.2-0.6,0.1c-1,1.4-2.1,2.7-3.3,4c-0.2,0.2-0.4,0.2-0.6,0c-0.7-0.6-1.5-1.3-2.2-1.9c-0.3-0.2-0.3-0.4-0.1-0.7
					c1.1-1.2,2-2.5,2.9-3.7c0.2-0.3,0.2-0.4-0.1-0.6c-0.8-0.6-1.6-1.2-2.5-1.8c-0.3-0.2-0.3-0.3-0.1-0.6c0.5-0.6,0.9-1.3,1.3-2
					c0.2-0.3,0.3-0.3,0.6-0.1c0.8,0.6,1.7,1.2,2.6,1.8c0.3,0.2,0.5,0.2,0.7-0.1c0.9-1.4,1.8-2.8,2.7-4.1c0.2-0.3,0.3-0.3,0.6-0.2
					c0.8,0.5,1.6,1,2.4,1.5C53.1,30.1,53.3,30.2,53.3,30.4z"/>
				<path class="st0" d="M37.5,41.2c-2.4,0-4.8,0-7.2,0c-0.4,0-0.5-0.1-0.5-0.4c0-0.9,0-1.8,0-2.7c0-0.4,0.2-0.3,0.4-0.3
					c1.8,0,3.7,0.1,5.5,0.1c1.5,0,2.9,0,4.4,0c0.4,0,0.4,0.1,0.4,0.5c0,0.8,0,1.7,0,2.5c0,0.3-0.1,0.5-0.4,0.5
					C39.2,41.3,38.4,41.3,37.5,41.2C37.5,41.3,37.5,41.2,37.5,41.2z"/>
				<path class="st0" d="M58.4,38.6c-1-0.2-2-0.4-3.1-0.6c-0.3-0.1-0.2-0.2-0.1-0.4c0.3-1.8,0.7-3.6,1-5.4c0.2-0.9,0.3-1.9,0.5-2.8
					c0.1-0.3,0.2-0.4,0.5-0.3c1,0.2,2,0.4,2.9,0.6c0.3,0,0.4,0.1,0.3,0.4c-0.6,2.7-1.1,5.5-1.6,8.2C58.8,38.4,58.8,38.7,58.4,38.6z"
					/>
				<path class="st0" d="M37.1,34.2c-1.8,0-3.6,0-5.4,0c-0.3,0-0.4-0.1-0.4-0.4c0-0.8,0.1-1.7,0.1-2.5c0-0.3,0.1-0.4,0.4-0.4
					c1.9,0.1,3.9,0.1,5.8,0.2c0.4,0,0.9,0,1.3,0c0.2,0,0.3,0.1,0.3,0.3c-0.1,0.8-0.1,1.7-0.1,2.5c0,0.3-0.1,0.4-0.4,0.4
					c-0.5,0-1,0-1.5,0C37.1,34.3,37.1,34.2,37.1,34.2z"/>
				<path class="st0" d="M57.8,42.5c-1.1-0.2-2.1-0.4-3.2-0.5c-0.2,0-0.2-0.1-0.2-0.3c0.2-0.8,0.4-1.6,0.5-2.3
					c0-0.2,0.1-0.2,0.4-0.2c0.9,0.2,1.9,0.4,2.8,0.6c0.2,0,0.3,0.1,0.3,0.4c-0.1,0.7-0.3,1.4-0.4,2.2C58,42.5,58,42.6,57.8,42.5z"/>
				<path class="st0" d="M58.8,53.1c-0.1,0.1-0.1,0.2-0.2,0.3c-0.6,1.1-1.3,2.2-1.9,3.4c-0.2,0.4-0.4,0.3-0.7,0.2
					c-0.3-0.2-0.5-0.3-0.2-0.7c0.7-1.1,1.3-2.3,2-3.4c0.1-0.2,0.2-0.3,0.4-0.2C58.4,52.7,58.7,52.8,58.8,53.1z"/>
				<path class="st0" d="M57.6,57.1c0.6-1.1,1.2-2.1,1.8-3.1C60.1,55.3,59.1,57,57.6,57.1z"/>
				<path class="st0" d="M56.9,52.5c-0.6,1.1-1.2,2.1-1.8,3.2C54.4,54.3,55.4,52.7,56.9,52.5z"/>
			</g>
		</g>
	</g>
</g>
</svg>
