<?xml version="1.0" encoding="utf-8"?>
<!-- Generator: Adobe Illustrator 28.1.0, SVG Export Plug-In . SVG Version: 6.00 Build 0)  -->
<svg version="1.1" id="레이어_1" xmlns="http://www.w3.org/2000/svg" xmlns:xlink="http://www.w3.org/1999/xlink" x="0px"
	 y="0px" viewBox="0 0 361 361" style="enable-background:new 0 0 361 361;" xml:space="preserve">
<style type="text/css">
	.st0{fill-rule:evenodd;clip-rule:evenodd;fill:#FFFFFF;}
</style>
<path class="st0" d="M295.8,0.1c-1.3,0.1-12.7,2.1-14,2.4L124.1,34.3l-0.1,0c-4.1,0.9-7.3,2.3-9.8,4.4c-3,2.5-4.7,6.1-5.3,10.2
	c-0.1,0.9-0.4,2.7-0.4,5.3v197.4c0,4.6-0.4,9.1-3.5,12.9c-3.1,3.8-7,5-11.5,5.9l-10.3,2.1c-13,2.6-21.5,4.4-29.2,7.4
	c-7.3,2.8-12.8,6.5-17.2,11.1c-8.7,9.1-12.2,21.4-11,33c1,9.9,5.5,19.3,13.1,26.3c5.1,4.7,11.6,8.3,19.1,9.8
	c7.9,1.6,16.2,1,28.5-1.4c6.5-1.3,12.6-3.4,18.4-6.8c5.7-3.4,10.7-7.9,14.5-13.4c3.9-5.5,6.4-11.7,7.7-18.2
	c1.4-6.7,1.8-12.8,1.8-19.5V129.5c0-9.2,2.6-11.6,10-13.4c0,0,131.1-26.4,137.2-27.6c8.5-1.6,12.6,0.8,12.6,9.7v116.9
	c0,4.6,0,9.3-3.2,13.1c-3.1,3.8-7,5-11.5,5.9l-10.3,2.1c-13,2.6-21.5,4.4-29.2,7.4c-7.3,2.8-12.8,6.5-17.2,11.1
	c-8.7,9.1-12.5,21.4-11.3,33c1,9.9,5.8,19.3,13.4,26.3c5.1,4.7,11.6,8.2,19.1,9.7c7.9,1.6,16.2,1,28.5-1.4
	c6.5-1.3,12.6-3.3,18.4-6.7c5.7-3.4,10.7-7.9,14.5-13.4c3.9-5.5,6.4-11.7,7.7-18.2c1.4-6.7,1.5-12.8,1.5-19.5V14
	C309.1,4.9,304.3-0.7,295.8,0.1L295.8,0.1z"/>
</svg>
