<?xml version="1.0" encoding="utf-8"?>
<!-- Generator: Adobe Illustrator 28.1.0, SVG Export Plug-In . SVG Version: 6.00 Build 0)  -->
<svg version="1.1" id="레이어_1" xmlns="http://www.w3.org/2000/svg" xmlns:xlink="http://www.w3.org/1999/xlink" x="0px"
	 y="0px" viewBox="0 0 361 361" style="enable-background:new 0 0 361 361;" xml:space="preserve">
<style type="text/css">
	.st0{fill:#FFFFFF;}
</style>
<path class="st0" d="M336.8,285.4c-10.8,5.1-77.2,35-98.8,44.8c-21.6,9.8-36.3,13.7-57.4,13.7s-37.3-4.7-51.2-10.9
	c-11.5-5.1-94.5-42.5-105.2-47.5C10.7,279.1,5.9,274.9,3,271c-1.8-2.4-3-5.7-3-8.6V248c0,0,0-8.6,8.4-4.7c0,0,107.2,48.4,120.9,54.6
	c14.4,6.5,31.3,11,51.1,11s34.5-3.6,51.3-11c16.8-7.4,120.9-54.6,120.9-54.6c8.4-3.9,8.4,4.7,8.4,4.7v14.4l0,0c0,2.9-1.1,6.1-3,8.6
	C354.4,275.6,350.3,279,336.8,285.4L336.8,285.4z M361,204.1c0,11.6-15.2,18.8-24.2,23.1l-105.1,47.7c-16.8,7.4-31.4,11-51.3,11
	c-19.8,0-36.7-4.5-51.1-11L24.2,227.2C15.2,223,0,215.8,0,204.1c0-11.7,15.5-19,24.2-23.1l105.1-47.4c9.8-4.4,20.8-7.7,33-9.5v83
	c0,7.9,8.1,13.2,18.2,13.2c10,0,18.2-5.2,18.2-13.2v-83.2c11.5,1.6,21.8,4.8,33,9.7L336.8,181C345.5,185.1,361,192.5,361,204.1
	L361,204.1z M88.7,193.5c-10.2-5.9-26.8-5.9-37,0c-10.2,5.9-10.1,15.5,0.1,21.4c10.2,5.9,26.7,5.9,36.9,0
	C99,209,98.9,199.4,88.7,193.5z M130.1,60.4c0-27.8,22.6-50.4,50.4-50.4s50.4,22.6,50.4,50.4s-22.6,50.4-50.4,50.4
	S130.1,88.3,130.1,60.4z"/>
</svg>
