<?xml version="1.0" encoding="utf-8"?>
<!-- Generator: Adobe Illustrator 28.1.0, SVG Export Plug-In . SVG Version: 6.00 Build 0)  -->
<svg version="1.1" id="레이어_1" xmlns="http://www.w3.org/2000/svg" xmlns:xlink="http://www.w3.org/1999/xlink" x="0px"
	 y="0px" viewBox="0 0 800.1 800" style="enable-background:new 0 0 800.1 800;" xml:space="preserve">
<style type="text/css">
	.st0{fill:#FFFFFF;}
</style>
<path class="st0" d="M398.6,104.9l22.3-38.5c13.8-24,44.5-32.2,68.4-18.4c24,13.8,32.2,44.5,18.4,68.4l0,0L293.2,487.8h155.2
	c50.3,0,78.5,59.1,56.6,100.1H50.1c-27.6,0-50-22.4-50.1-50c0-27.6,22.4-50,50-50.1c0,0,0,0,0.1,0h127.5l163.3-283l-51-88.5
	c-13.8-24-5.6-54.6,18.4-68.4c24-13.8,54.6-5.6,68.4,18.4L398.6,104.9L398.6,104.9z M205.6,639.4l-48.1,83.4
	c-13.8,24-44.5,32.2-68.4,18.4c-24-13.8-32.2-44.5-18.4-68.4l0,0l35.7-61.9C146.8,598.4,179.7,608.1,205.6,639.4z M619.9,488.1
	h130.2c27.6,0,50,22.4,50,50c0,27.6-22.4,50-50,50h-72.3l48.8,84.7c13.8,24,5.6,54.6-18.4,68.4c-24,13.8-54.6,5.6-68.4-18.4
	c-82.2-142.5-143.8-249.3-184.9-320.2c-41.9-72.3-12-144.9,17.6-169.5C505.3,289.5,554.4,374.5,619.9,488.1L619.9,488.1z"/>
</svg>
