<?xml version="1.0" encoding="utf-8"?>
<!-- Generator: Adobe Illustrator 28.3.0, SVG Export Plug-In . SVG Version: 6.00 Build 0)  -->
<svg version="1.1" id="레이어_1" xmlns="http://www.w3.org/2000/svg" xmlns:xlink="http://www.w3.org/1999/xlink" x="0px"
	 y="0px" viewBox="0 0 21.4 21.3" style="enable-background:new 0 0 21.4 21.3;" xml:space="preserve">
<style type="text/css">
	.st0{fill:#FFFFFF;}
</style>
<path class="st0" d="M20.7,10.5l-7.5-3.4l-0.4-0.2c1-0.7,1.7-1.8,1.7-3.1c0-2.1-1.7-3.8-3.8-3.8C8.7,0,7,1.7,7,3.8
	c0,1.3,0.7,2.5,1.7,3.1l-7.9,3.6C0.3,10.7,0,11.2,0,11.7v0.1v0.1v4c0,0.5,0.3,1,0.8,1.2l8.8,4c0.4,0.2,0.7,0.2,1.1,0.2
	s0.8-0.1,1.1-0.2l8.8-4c0.5-0.2,0.8-0.7,0.8-1.2v-4v-0.1v-0.1C21.5,11.2,21.2,10.7,20.7,10.5z M10.5,7.5c0.1,0,0.2,0,0.2,0h0.2v4.3
	c0,0.3-0.5,0.3-0.5,0V7.5H10.5z M10.8,1.5c1.2,0,2.2,1,2.2,2.2S12,6,10.8,6C9.5,6,8.5,5,8.5,3.8S9.5,1.5,10.8,1.5z M8.8,8.4H9v3.4
	c0,1,0.8,1.8,1.8,1.8s1.8-0.8,1.8-1.8V8.4l7.4,3.3l-8.7,3.9c-0.3,0.1-0.7,0.1-1,0l-8.7-3.9L8.8,8.4z M20,15.8l-8.7,3.9
	c-0.3,0.1-0.7,0.1-1,0l-8.7-3.9v-2.4l8.1,3.7c0.4,0.2,0.8,0.2,1.1,0.2s0.8-0.1,1.1-0.2l8.1-3.7C20,13.4,20,15.8,20,15.8z"/>
<path class="st0" d="M15.8,12.5h-1c-0.4,0-0.8-0.3-0.8-0.8s0.3-0.8,0.8-0.8h1c0.4,0,0.8,0.3,0.8,0.8S16.2,12.5,15.8,12.5z"/>
</svg>
