<?xml version="1.0" encoding="UTF-8"?>
<svg id="_레이어_1" data-name="레이어 1" xmlns="http://www.w3.org/2000/svg" viewBox="0 0 581.871 518.315">
  <defs>
    <style>
      .cls-1 {
        fill: #ea5505;
      }

      .cls-1, .cls-2 {
        stroke-width: 0px;
      }

      .cls-2 {
        fill: #fefdfd;
      }
    </style>
  </defs>
  <path class="cls-2" d="M41.94,413.125c0-32.972.148-65.945-.146-98.914-.048-5.432,1.625-6.345,6.577-6.295,24.81.253,49.624.127,74.436.112,33.931-.021,62.498,22.03,70.99,54.822,10.867,41.962-17.469,84.459-60.464,90.272-16.05,2.17-32.253.65-48.381.729-4.564.022-5.46,1.339-5.407,5.574.231,18.148.026,36.301.193,54.45.03,3.286-.851,4.251-4.153,4.179-9.82-.213-19.654-.261-29.471.017-3.709.105-4.258-1.229-4.246-4.531.117-33.471.071-66.943.072-100.414ZM79.675,380.977h-.015c0,11.81.085,23.62-.061,35.428-.035,2.86.837,3.754,3.672,3.652,5.482-.197,10.98.073,16.465-.087,9.123-.268,18.295.908,27.368-.932,19.813-4.018,33.875-23.228,31.028-42.422-3.072-20.708-18.846-34.294-40.328-34.558-11.309-.139-22.624.082-33.932-.111-3.208-.055-4.309.8-4.261,4.102.169,11.641.066,23.285.066,34.928Z"/>
  <path class="cls-2" d="M355.656,517.976c-4.163,0-8.425-.572-12.465.134-6.052,1.058-7.9-2.057-9.444-6.988-3.223-10.295-7.017-20.409-10.35-30.671-.89-2.741-2.271-3.512-5.034-3.501-22.645.097-45.29.095-67.934-.015-2.826-.014-3.984.904-4.866,3.612-3.699,11.364-7.832,22.587-11.51,33.957-.898,2.775-2.132,3.562-4.901,3.526-10.821-.142-21.647-.166-32.467.017-3.376.057-3.92-.748-2.762-3.894,23.687-64.365,47.273-128.767,70.96-193.132,1.587-4.312,1.686-10.297,5.493-12.38,3.482-1.905,8.758-.538,13.244-.603,1.332-.019,2.664-.003,3.996-.004,11.987-.007,11.902.024,15.968,11.148,18.705,51.163,37.46,102.309,56.202,153.459,4.97,13.563,9.884,27.147,14.985,40.66,1.298,3.437,1.392,5.084-3.137,4.765-5.302-.374-10.65-.087-15.979-.088ZM285.651,368.992c-.876.492-1.103.54-1.143.654-8.388,23.78-16.718,47.581-25.196,71.329-1.043,2.922.232,3.039,2.418,3.035,15.31-.026,30.621-.072,45.93.029,3.204.021,3.511-.854,2.461-3.751-3.791-10.455-7.303-21.013-10.902-31.537-4.508-13.182-8.999-26.371-13.567-39.759Z"/>
  <path class="cls-2" d="M445.304,411.848c2.878-3.11,4.1-6.986,5.838-10.515,14.76-29.964,29.456-59.959,43.994-90.031,1.226-2.535,2.474-3.356,5.156-3.328,11.991.128,23.986.163,35.977-.004,3.892-.054,4.118.801,2.386,4.132-18.939,36.421-37.731,72.919-56.566,109.395-5.187,10.045-10.313,20.121-15.623,30.1-1.462,2.747-2.108,5.481-2.095,8.567.075,17.487-.083,34.976.125,52.461.052,4.346-1.193,5.654-5.626,5.466-9.145-.388-18.324-.318-27.475-.021-3.899.126-4.67-1.216-4.632-4.83.183-17.321.003-34.645.152-51.967.033-3.8-.799-7.125-2.532-10.466-23.791-45.881-47.518-91.795-71.248-137.707-2.607-5.044-2.572-5.066,3.28-5.068,10.827-.003,21.657.165,32.478-.088,3.974-.093,6.126.987,7.949,4.797,15.572,32.534,31.41,64.941,47.185,97.378.281.578.772,1.055,1.276,1.727Z"/>
  <path class="cls-1" d="M251.295,173.336c-11.129,13.225-23.769,23.042-38.983,29.162-16.532,6.65-33.394,8.893-50.456,1.852-12.036-4.967-19.627-13.928-22.921-26.513-.334-1.277-.567-2.556-1.885-3.849-6.834,7.991-14.55,14.976-23.405,20.598-25.536,16.209-52.989,19.773-81.825,11.383C11.732,200.124-.096,183.62,0,162.696c.107-23.31,7.851-44.684,17.464-65.459C40.278,47.938,79.51,19.628,131.875,8.227c20.869-4.544,41.975-6.748,63.31-7.608,11.494-.463,22.98-.035,34.446-.596,4.609-.225,5.112,1.188,4.025,5.217-13.463,49.888-26.806,99.808-40.182,149.72-1.381,5.154-2.511,10.365-2.543,15.718-.054,9.258,4.867,12.79,13.614,9.488,11.641-4.395,20.641-12.518,29.211-21.257,12.5-12.746,17.972-28.736,22.307-45.541,5.602-21.716,10.497-43.673,18.022-64.826,6.981-19.622,19.533-34.704,39.245-42.851,9.629-3.98,19.768-5.59,30.196-5.606,3.316-.005,4.286.65,3.308,4.277-12.893,47.81-25.623,95.664-38.383,143.51-1.415,5.306-2.502,10.675-3.058,16.152-1.743,17.153,10.383,20.739,21.375,18.605,19.972-3.877,34.88-15.669,47.421-31.01,11.565-14.146,17.12-30.905,21.745-48.248,5.219-19.573,9.113-39.574,16.758-58.421C424.153,16.701,448.759.137,478.647.173c6.659.008,6.899-1.62,4.78,6.332-12.963,48.642-26.021,97.259-39.048,145.884-1.508,5.628-2.947,11.271-3.105,17.14-.293,10.868,4.822,14.506,14.775,10.069,11.308-5.04,20.175-13.386,28.565-22.263,24.46-25.878,44.767-54.944,64.549-84.394,1.436-2.138,2.674-2.914,5.078-2.881,7.995.108,15.992.003,23.988.077,1.197.011,2.871-.801,3.53.827.488,1.205-.761,2.104-1.398,3.021-16.336,23.519-33.039,46.767-51.104,69.006-13.659,16.815-27.543,33.401-44.616,46.989-14.537,11.57-31.065,18.244-49.568,18.6-20.255.39-40.277-7.747-46.177-31.515-.235-.948-.087-2.227-1.134-2.618-1.504-.562-1.848,1.057-2.553,1.83-16.868,18.506-37.317,30.406-62.448,33.214-15.893,1.775-31.673.843-46.544-5.655-12.98-5.671-21.249-15.684-24.923-30.502ZM55.59,162.17c-.327,16.637,6.288,22.71,20.049,20.774,4.755-.669,9.453-1.862,13.892-3.852,23.086-10.35,38.311-28.231,48.281-50.928,6.044-13.76,8.671-28.607,12.678-43.007,5.166-18.566,10.005-37.222,15.082-55.813,1.056-3.866.353-4.548-3.674-3.449-16.594,4.527-31.743,11.799-45.237,22.498-24.522,19.443-39.987,45.106-50.569,74.028-5.024,13.731-9.679,27.612-10.502,39.75Z"/>
</svg>