<?xml version="1.0" encoding="utf-8"?>
<!-- Generator: Adobe Illustrator 28.3.0, SVG Export Plug-In . SVG Version: 6.00 Build 0)  -->
<svg version="1.1" id="레이어_1" xmlns="http://www.w3.org/2000/svg" xmlns:xlink="http://www.w3.org/1999/xlink" x="0px"
	 y="0px" viewBox="0 0 24 24" style="enable-background:new 0 0 24 24;" xml:space="preserve">
<style type="text/css">
	.st0{fill-rule:evenodd;clip-rule:evenodd;}
</style>
<path class="st0" d="M8,6.7c0-2.2,1.8-4,4-4s4,1.8,4,4H8z M5.3,6.7C5.3,3,8.3,0,12,0s6.7,3,6.7,6.7h4C23.4,6.7,24,7.3,24,8
	c0,0,0,0.1,0,0.1l-1.1,12.2c-0.2,2.1-1.9,3.6-4,3.6H5.1c-2.1,0-3.8-1.6-4-3.6L0,8.1c-0.1-0.7,0.5-1.4,1.2-1.4c0,0,0.1,0,0.1,0H5.3z"
	/>
</svg>
