<?xml version="1.0" encoding="utf-8"?>
<!-- Generator: Adobe Illustrator 28.1.0, SVG Export Plug-In . SVG Version: 6.00 Build 0)  -->
<svg version="1.1" id="레이어_1" xmlns="http://www.w3.org/2000/svg" xmlns:xlink="http://www.w3.org/1999/xlink" x="0px"
	 y="0px" viewBox="0 0 57 62.3" style="enable-background:new 0 0 57 62.3;" xml:space="preserve">
<style type="text/css">
	.st0{fill:#FFFFFF;}
</style>
<path class="st0" d="M8.5,32.8c6.8-1.4,5.9-9.5,5.7-11.2c-0.3-2.7-3.5-7.5-7.9-7.1c-5.5,0.4-6.2,8.4-6.2,8.4
	C-0.6,26.4,1.9,34.2,8.5,32.8z M37.2,19.9c5,0.7,8.2-4.7,8.8-8.7c0.7-4-2.6-8.7-6.1-9.5c-3.5-0.8-8,4.9-8.4,8.5
	C31.1,14.6,32.2,19.2,37.2,19.9L37.2,19.9z M27.9,9.6c0-5.3-3-9.6-6.8-9.6c-3.7,0-6.8,4.3-6.8,9.6c0,5.3,3,9.6,6.8,9.6
	C24.8,19.2,27.9,14.9,27.9,9.6L27.9,9.6z M57,26.6c0-2-1.6-7.8-7.5-7.8c-6,0-6.8,5.5-6.8,9.4c0,3.7,0.3,8.8,7.8,8.7
	C57.8,36.8,57,28.5,57,26.6L57,26.6z M15.7,46.9c-0.2,0.5-0.7,2.1-0.2,3.3c0.8,2.8,3.3,2.9,3.3,2.9h3.5v-8.6h-3.8
	C16.7,44.9,16,46.2,15.7,46.9z"/>
<path class="st0" d="M49.5,43.6c0,0-7.8-6-12.2-12.4c-6.1-9.5-14.8-5.7-17.7-0.8c-2.8,4.8-7.4,7.9-8.1,8.7
	c-0.7,0.8-9.3,5.5-7.4,14.1c2,8.5,8.7,8.4,8.7,8.4s5,0.4,10.8-0.8c5.8-1.3,10.8,0.3,10.8,0.3s13.5,4.5,17.2-4.1
	C55.3,48.1,49.5,43.6,49.5,43.6L49.5,43.6z M26.3,56.6h-8.7c-3.8-0.8-5.3-3.4-5.5-3.8c-0.2-0.4-1.3-2.5-0.7-6.1
	c1.6-5.4,6.3-5.7,6.3-5.7h4.7v-5.8l3.9,0.1v21.3H26.3z M42.7,56.5H32.6c-3.9-1-4.1-3.8-4.1-3.8V41.5l4.1-0.1v10.1
	c0.2,1.1,1.5,1.3,1.5,1.3h4.1V41.5h4.4v15L42.7,56.5z"/>
</svg>
