<?xml version="1.0" encoding="utf-8"?>
<!-- Generator: Adobe Illustrator 28.1.0, SVG Export Plug-In . SVG Version: 6.00 Build 0)  -->
<svg version="1.1" id="레이어_1" xmlns="http://www.w3.org/2000/svg" xmlns:xlink="http://www.w3.org/1999/xlink" x="0px"
	 y="0px" viewBox="0 0 174.6 169.3" style="enable-background:new 0 0 174.6 169.3;" xml:space="preserve">
<style type="text/css">
	.st0{fill:#fff;}
</style>
<g>
	<path class="st0" d="M132.8,10H41.9c-4.8,2.3-9.2,4.8-13.3,7.7h117.5C142,14.8,137.5,12.2,132.8,10z"/>
	<path class="st0" d="M87.3,0.1c-13.7,0-26.6,2.4-38.2,6.8h76.4C114,2.5,101,0.1,87.3,0.1z"/>
	<path class="st0" d="M124.3,129.1H50.4c11.2,4.1,23.7,6.3,37,6.3C100.5,135.4,113,133.1,124.3,129.1z"/>
	<path class="st0" d="M42.9,126h88.9c4.9-2.2,9.4-4.8,13.6-7.7H29.2C33.4,121.1,38,123.7,42.9,126z"/>
	<path class="st0" d="M86.2,146.9c-28.2,0-51.1,5-51.1,11.1c0,6.1,22.9,11.1,51.1,11.1c28.2,0,51.1-5,51.1-11.1
		C137.3,151.9,114.4,146.9,86.2,146.9z"/>
	<path class="st0" d="M109.2,47.2H83c-0.4,1-0.7,2-1,3h89.7c-0.9-2.7-2-5.2-3.3-7.7h-51.4C114.3,43.3,111.6,44.8,109.2,47.2z"/>
	<path class="st0" d="M157.1,101.3H90.6c-0.3-0.4-0.7-0.8-1-1.3c0.1,0.2,0.3,0.4,0.4,0.5c-0.7,1.3-1.5,2.5-2.4,3.7h73.1
		c2.1-2.5,3.9-5.1,5.5-7.7h-9.3V101.3z"/>
	<path class="st0" d="M3,50.2h12.8v-7.7H6.3C5,45,3.9,47.5,3,50.2z"/>
	<path class="st0" d="M110.6,90.5H84.1c0.4,1,0.9,2,1.4,3h82.5c1.3-2.5,2.5-5.1,3.4-7.7h-65.2C107.4,87.6,108.9,89.2,110.6,90.5z"/>
	<path class="st0" d="M6.6,93.5h9.2v-7.7H3.1C4.1,88.4,5.2,91,6.6,93.5z"/>
	<path class="st0" d="M103.7,58H80.3c-0.1,1-0.3,2-0.4,3h94.3c-0.3-2.6-0.9-5.2-1.6-7.7h-67.3C104.7,54.7,104.1,56.2,103.7,58z"/>
	<path class="st0" d="M157.1,36.3H88.7c-0.7,1-1.4,2-2,3h79.9c-1.6-2.7-3.4-5.3-5.4-7.7h-4.1V36.3z"/>
	<path class="st0" d="M2.1,82.7h13.6v-7.7H0.5C0.8,77.6,1.4,80.1,2.1,82.7z"/>
	<path class="st0" d="M8,39.4h7.7v-7.7h-2.3C11.5,34.1,9.6,36.7,8,39.4z"/>
	<path class="st0" d="M0.4,61h15.4v-7.7H2C1.3,55.8,0.8,58.4,0.4,61z"/>
	<path class="st0" d="M174.5,64.1h-71.8c-0.1,1.5-0.2,3-0.2,4.7H79.6c0,1,0.1,2,0.1,3h94.7c0.1-1.4,0.2-2.7,0.2-4.1
		C174.6,66.5,174.6,65.3,174.5,64.1z"/>
	<path class="st0" d="M52.3,57.9c9.4,0,15.7-1.9,15.7-9c0-7.8-4.8-10.4-12.4-10.4H38.8v57.7h15.9c13.4,0,15-6,15-10
		c0-11.8-11.1-10.5-17.8-10.5h-4.9V57.9H52.3z"/>
	<path class="st0" d="M103.7,79.7H80.9c0.2,1,0.4,2,0.7,3h91c0.7-2.5,1.3-5.1,1.6-7.7h-71.3C103,76.6,103.3,78.2,103.7,79.7z"/>
	<path class="st0" d="M13.9,104.3h1.9v-7.7H8.3C9.9,99.3,11.8,101.8,13.9,104.3z"/>
	<path class="st0" d="M0,67.7c0,1.4,0.1,2.7,0.2,4.1h15.6v-7.7H0.1C0,65.3,0,66.5,0,67.7z"/>
	<path class="st0" d="M92.8,31.6h-4.6c0.6,1,1.2,2,1.7,3.2L92.8,31.6z"/>
	<path class="st0" d="M157.1,108.4c0.3-0.3,0.7-0.7,1-1h-1V108.4z"/>
	<path class="st0" d="M97.1,107.4H84.9c-4.1,3.8-9.8,6.7-17.8,7.7h82.4c1.2-1,2.4-2,3.6-3h-47.6C102.4,110.8,99.6,109.3,97.1,107.4z
		"/>
	<path class="st0" d="M116.4,20.8H70.5c5,0.7,11,3.1,15.3,7.7h72.7c-0.9-1-1.9-2-3-3h-54.6C105.4,23,110.6,21.4,116.4,20.8z"/>
</g>
</svg>
