<?xml version="1.0" encoding="utf-8"?>
<!-- Generator: Adobe Illustrator 28.1.0, SVG Export Plug-In . SVG Version: 6.00 Build 0)  -->
<svg version="1.1" id="레이어_1" xmlns="http://www.w3.org/2000/svg" xmlns:xlink="http://www.w3.org/1999/xlink" x="0px"
	 y="0px" viewBox="0 0 256 256" style="enable-background:new 0 0 256 256;" xml:space="preserve">
<style type="text/css">
	.st0{fill:#FFFFFF;}
</style>
<path class="st0" d="M212.4,92.7c7.4-22.8,8.9-43.1,3.7-59.6c-0.3-0.9-1.1-2.9-2.1-2.9c-0.7,0-0.7,1.4-0.7,2
	c1.4,16.5-2.8,34.2-11.3,55.3c-32.4-15-79-24.5-122.8-20.9c2.2-14.5,7.6-24.6,16.5-26.7c12.2-3,25.6,5.1,38.3,19.8
	c8.3,1.1,18.2,3,25.1,4.6c-20.3-38.2-46.7-61.7-68.8-61c-3.1,0.1-6.3,0.7-9.2,1.8C63.1,12,53.9,36.8,55,70.1
	C31.6,75.1,13.3,84,1.6,96.8C1,97.4-0.4,99.2,0.1,100c0.4,0.6,1.6-0.1,2.1-0.4c13.6-9.5,31-14.6,53.6-17.9
	c3.2,35.6,18.3,80.6,43.1,116.8c-13.7,5.4-25.1,5.7-31.4-0.9c-8.7-9.2-8.4-24.7-2-43.1c-3.2-7.8-6.5-17.3-8.6-24
	c-26.2,41.9-31.8,81.1-12.1,97.1c15,12.2,41.1,7.7,69.3-9.9c16.2,17.8,32.9,29.2,49.8,33c0.8,0.2,3.1,0.5,3.5-0.4
	c0.4-0.6-0.8-1.3-1.3-1.6c-15-7-28.2-19.5-42.3-37.5c29.1-20.6,60.6-56.1,79.5-95.8c11.5,9.2,17.5,18.9,14.9,27.7
	c-3.6,12.1-17.2,19.6-36.3,23.3c-5.1,6.7-11.7,14.3-16.5,19.5c49.5,1.7,86.2-13,90.3-38C258.7,128.8,241.8,108.4,212.4,92.7z
	 M111,192.8c-20.9-33.5-32.9-73-32.9-113c39.5-1.3,79.7,8,114.3,28C173.8,142.7,145.7,173,111,192.8z"/>
</svg>
