<?xml version="1.0" encoding="utf-8"?>
<!-- Generator: Adobe Illustrator 28.1.0, SVG Export Plug-In . SVG Version: 6.00 Build 0)  -->
<svg version="1.1" id="레이어_1" xmlns="http://www.w3.org/2000/svg" xmlns:xlink="http://www.w3.org/1999/xlink" x="0px"
	 y="0px" viewBox="0 0 39.1 39.1" style="enable-background:new 0 0 39.1 39.1;" xml:space="preserve">
<style type="text/css">
	.st0{fill:#FFFFFF;}
</style>
<g>
	<path class="st0" d="M17.8,19.8l-1.2,4.7c1.5,0.4,5.9,1.8,6.6-0.9C24,20.9,19.3,20.2,17.8,19.8z"/>
	<path class="st0" d="M19.5,13.3l-1.1,4.3c1.2,0.3,4.9,1.5,5.6-0.9C24.6,14.2,20.7,13.6,19.5,13.3z"/>
	<path class="st0" d="M24.3,0.6C13.8-2,3.2,4.4,0.6,14.8C-2,25.3,4.3,35.9,14.8,38.5c10.5,2.6,21.1-3.8,23.7-14.2
		C41.1,13.8,34.8,3.2,24.3,0.6z M28.2,16.8L28.2,16.8c-0.3,1.9-1.3,2.8-2.7,3.2c1.9,1,2.9,2.5,2,5.2c-1.2,3.3-3.9,3.6-7.6,2.9
		L19,31.6l-2.1-0.5l0.9-3.5c-0.6-0.1-1.1-0.3-1.7-0.4l-0.9,3.5l-2.1-0.5l0.9-3.6c-0.5-0.1-1-0.3-1.5-0.4l-2.8-0.7l1.1-2.5
		c0,0,1.6,0.4,1.6,0.4c0.6,0.1,0.9-0.2,1-0.5l1.4-5.6l0.2,0.1c-0.1,0-0.2-0.1-0.2-0.1l1-4c0-0.5-0.1-1-1-1.2c0,0-1.6-0.4-1.6-0.4
		l0.6-2.3l3,0.7l0,0c0.5,0.1,0.9,0.2,1.4,0.3l0.9-3.5l2.1,0.5L20,10.8c0.6,0.1,1.1,0.3,1.7,0.4l0.9-3.4l2.1,0.5l-0.9,3.5
		C26.6,12.8,28.6,14.2,28.2,16.8z"/>
</g>
</svg>
