<?xml version="1.0" encoding="utf-8"?>
<!-- Generator: Adobe Illustrator 28.1.0, SVG Export Plug-In . SVG Version: 6.00 Build 0)  -->
<svg version="1.1" id="Layer_2" xmlns="http://www.w3.org/2000/svg" xmlns:xlink="http://www.w3.org/1999/xlink" x="0px" y="0px"
	 viewBox="0 0 39.9 41.5" style="enable-background:new 0 0 39.9 41.5;" xml:space="preserve">
<style type="text/css">
	.st0{fill:#00AEFF;}
	.st1{fill:#FFFFFF;}
	.st2{fill:url(#SVGID_1_);}
</style>
<path class="st0" d="M37.6,28H28v1.6h9.6c1.3,0,2.3-1,2.3-2.3v-1.6C39.9,27,38.9,28,37.6,28z M25.7,39.9H14.2c-1.3,0-2.3-1-2.3-2.3
	v1.6c0,1.3,1,2.3,2.3,2.3h11.5c1.3,0,2.3-1,2.3-2.3v-1.6C28,38.9,27,39.9,25.7,39.9z M11.9,28H2.3C1,28,0,27,0,25.7v1.6
	c0,1.3,1,2.3,2.3,2.3h9.6C11.9,29.6,11.9,28,11.9,28z"/>
<path class="st1" d="M37.6,11.9H28V2.3C28,1,27,0,25.7,0H14.2c-1.3,0-2.3,1-2.3,2.3v9.6H2.3c-1.3,0-2.3,1-2.3,2.3v11.5
	C0,27,1,28,2.3,28h9.6v9.6c0,1.3,1,2.3,2.3,2.3h11.5c1.3,0,2.3-1,2.3-2.3V28h9.6c1.3,0,2.3-1,2.3-2.3V14.2
	C39.9,12.9,38.9,11.9,37.6,11.9z"/>
<g>
	
		<linearGradient id="SVGID_1_" gradientUnits="userSpaceOnUse" x1="20.1" y1="39.6452" x2="20.1" y2="6.9279" gradientTransform="matrix(1 0 0 -1 0 43)">
		<stop  offset="0" style="stop-color:#0D88CD"/>
		<stop  offset="1" style="stop-color:#004362"/>
	</linearGradient>
	<path class="st2" d="M23.3,24.1c0,0.2,0.1,0.5,0.1,0.8c0,0.1,0,0.2,0,0.2c-0.1,0.3-0.2,0.7-0.2,0.7s-0.3,0.4-0.4,0.7
		c-0.1,0.4-0.2,1-0.2,1l0,0l0,0c0,0-0.6,0.3-0.9,0.5s-0.6,0.4-0.7,0.6l0,0l0,0c0,0-0.7,0.1-0.9,0.2l0,0c0,0.1-0.1,0.1-0.1,0.1
		c-0.2,0-0.2-0.2-0.3-0.2c0,0-0.1,0-0.2,0.1S19.2,29,19,29c-0.3,0-0.8-0.1-0.9-0.1c0,0-0.1,0-0.2,0c-0.2,0-0.4,0-0.5,0
		c0,0,0,0-0.1,0V29h-0.1c-0.1-0.1-0.1-0.1-0.2-0.1l-0.1-0.1H17c0,0,0.3-0.1,0.4-0.2l0,0l0,0l0,0v-0.1c0-0.1,0.1-0.2,0.1-0.3
		c0.1-0.3,0.1-0.6,0.2-0.8c0-0.8,0.1-1.3,0.1-1.7c0-0.2,0-0.4,0-0.7c0-0.1-0.1-0.9-0.1-1.4c0-0.9,0.1-1.8,0.1-2.4c0-0.1,0-0.2,0-0.3
		v-0.1h0.1c0.1,0,0.2-0.1,0.2-0.1V20l-0.4-0.3v-1c0-0.2,0.1-0.3,0.1-0.3s0-0.1,0-0.2s0-0.3,0-0.3l-0.1-0.4v-3.6l0,0
		c0.1-0.1,0.1-0.1,0.1-0.1s0-0.1,0-0.2c0-0.1,0-0.2,0-0.2l0,0c0,0,0,0-0.1-0.1h-0.1l0,0c0,0,0,0-0.1,0l0,0l0,0c0,0,0,0,0-0.1l0,0
		l-0.1-0.1l-0.5-0.5c-0.1-0.1-0.1-0.1-0.1-0.1s-0.1-0.1,0-0.1v-0.1c0-0.1,0-0.2,0-0.2s0,0,0.1-0.2l0,0h0.8c0.1-0.1,0.3-0.1,0.6-0.1
		c0.3,0,0.5-0.1,0.6-0.1h0.8c0.8,0,1-0.1,1.4-0.1c0.2,0,0.4,0,0.6,0.1l0,0l0,0c0.1,0.2,0.3,0.3,0.4,0.4c0,0,0,0,0.1,0s0.2,0,0.4,0.1
		c0.5,0.3,0.7,1.1,0.7,1.5s0.1,0.8,0.1,1.1c0,0.2,0,0.3-0.1,0.4l-0.5,1c-0.2,0.4-0.7,0.9-0.8,1.1c0,0,0.1,0.1,0.2,0.1
		c0.1,0.1,0.3,0.1,0.5,0.1c0.1,0,0.2,0.1,0.2,0.2c0,0.2-0.1,0.4-0.2,0.4l0,0v0.1l0.1,0.1l0,0v-0.1l0,0c0.2,0.2,0.2,0.3,0.3,0.3
		c0,0,0,0,0.1,0.1l0,0l0,0c0,0-0.1,0.5-0.1,1c0,0.2,0,0.5,0.1,0.7c0,0.1,0.3,0.2,0.3,0.4v0.1c0,0.1,0,0.2,0,0.3c0,0.1,0,0.2,0,0.3
		c0,0,0,0,0,0.1c0,0.4,0.1,0.9,0.1,1.3C23.6,23.4,23.5,23.7,23.3,24.1C23.3,24,23.3,24,23.3,24.1z M21.4,14.2L21.4,14.2l0.2-0.2
		c-0.2-0.1-0.4,0.1-0.6-0.3h-0.1l-0.6,0.1v-0.1l0,0c0,0,0,0-0.1,0c0,0.1,0,0.1,0,0.2c0,0.1,0,0.1-0.1,0.2v2.7c0.1,0,0.1,0,0.1,0l0,0
		c0.1,0,0.1,0,0.2,0c0.3-0.1,0.2-0.8,1-0.9c0-0.1,0-0.2,0-0.3c0-0.3,0-0.7,0.1-0.9C21.5,14.6,21.4,14.4,21.4,14.2z M21.5,23.9
		c0-0.1,0.1-0.2,0-0.2c0,0,0-0.1-0.1-0.1h-0.1h0.1l0.1-0.1c0-0.2-0.2-0.5-0.2-0.7c0-0.1,0-0.3,0.2-0.3c0-0.3-0.1-0.4-0.1-0.4
		c-0.1-0.1-0.1-0.1-0.1-0.4c0-0.2,0.1-0.4,0.1-0.6c0-0.1,0-0.1,0-0.1l0,0l0,0c0-0.1,0-0.1,0-0.2c0-0.2-0.1-0.3-0.1-0.3l-0.1-0.1h0.1
		l0,0c0,0-0.1-0.1-0.1-0.2v-0.1c0,0,0,0,0-0.1S21,19.7,21,19.7c-0.3-0.1-0.6-0.4-0.6-0.5l-0.3-0.7c0,0.2,0,0.5,0,0.8
		c0,0.2,0,0.4,0,0.6l0,0l0,0C20,20,20,20.1,20,20.2c0,0.3,0.1,0.6,0.1,0.6l0,0l-0.2,0.7l0,0c-0.1,0-0.1,0.1-0.1,0.1l0,0
		c0,0.1,0,0.1,0.1,0.2l0,0v2.7l0,0c-0.1,0.1-0.1,0.1-0.1,0.2s0,0.1,0,0.1l0,0c0,0.1,0,0.5,0,1.1c0,0,0,0.3,0,0.5l0,0l0,0
		c0,0.1-0.1,0.2-0.2,0.3c0,0.1-0.1,0.1-0.1,0.2c0.1,0,0.3,0,0.4-0.1l0.3-0.3l0,0c0.2,0,0.5-0.5,0.7-0.7s0.1-0.7,0.2-1.2l0,0l0,0l0,0
		l0,0v-0.1c0-0.1,0.1-0.2,0.1-0.3C21.4,24.3,21.5,24.1,21.5,23.9C21.5,24,21.5,24,21.5,23.9C21.5,24,21.5,24,21.5,23.9z M8.7,17.3
		c0-0.4-0.6-0.6-1-0.3l-3.5,2.6C4,19.8,4,20,4.2,20.2l3.5,2.6c0.4,0.3,1,0.1,1-0.3V17.3z M17.3,8.2h5.3c0.4,0,0.6-0.6,0.3-1
		l-2.6-3.5c-0.2-0.2-0.4-0.2-0.6,0l-2.6,3.5C16.7,7.6,16.9,8.2,17.3,8.2z M22.6,32h-5.3c-0.4,0-0.6,0.6-0.3,1l2.6,3.5
		c0.2,0.2,0.4,0.2,0.6,0l2.6-3.5C23.1,32.6,23,32,22.6,32z M36,19.6L32.5,17c-0.4-0.3-1-0.1-1,0.3v5.3c0,0.4,0.6,0.6,1,0.3l3.5-2.6
		C36.2,20.1,36.2,19.8,36,19.6z"/>
</g>
</svg>
