<?xml version="1.0" encoding="utf-8"?>
<!-- Generator: Adobe Illustrator 28.1.0, SVG Export Plug-In . SVG Version: 6.00 Build 0)  -->
<svg version="1.1" id="레이어_1" xmlns="http://www.w3.org/2000/svg" xmlns:xlink="http://www.w3.org/1999/xlink" x="0px"
	 y="0px" viewBox="0 0 99.4 143.9" style="enable-background:new 0 0 99.4 143.9;" xml:space="preserve">
<style type="text/css">
	.st0{fill:#0D0C22;}
	.st1{fill:#FFFFFF;}
</style>
<g transform="translate(-113.822 -92.471)">
	<g>
		<path class="st0" d="M159.3,92.5c-3.7,0.1-7.4,0.3-11.1,0.6c-5.5,0.5-11.3,1.1-16.5,3c-1.9,0.7-3.9,1.5-5.3,3
			c-1.8,1.8-2.4,4.6-1.1,6.9c0.9,1.6,2.5,2.7,4.1,3.5c2.2,1,4.4,1.7,6.7,2.2c6.5,1.4,13.1,2,19.7,2.2c7.3,0.3,14.6,0.1,21.9-0.7
			c1.8-0.2,3.6-0.4,5.4-0.7c2.1-0.3,3.5-3.1,2.8-5c-0.7-2.3-2.7-3.2-5-2.8l-1,0.2l-0.2,0c-2.3,0.3-4.7,0.5-7.1,0.7
			c-3.6,0.2-7.1,0.4-10.7,0.4c-3.5,0-7-0.1-10.5-0.3c-2.3-0.2-4.6-0.4-6.9-0.6l-0.7-0.1l-0.2,0l-0.7-0.1c-1.5-0.2-2.9-0.5-4.3-0.8
			c-0.4-0.1-0.6-0.4-0.5-0.8c0-0.1,0.1-0.2,0.1-0.3c0.1-0.1,0.2-0.2,0.4-0.2h0c1.2-0.3,2.5-0.5,3.8-0.7l1.3-0.2h0
			c0.8,0,1.6-0.2,2.4-0.3c6.8-0.7,13.7-1,20.5-0.7c4,0.1,8.1,0.4,12.1,0.9l0.8,0.1l0.6,0.1c1.6,0.2,3.2,0.5,4.8,0.9
			c2.4,0.5,5.4,0.7,6.4,3.3c0.3,0.8,0.5,1.7,0.7,2.6l0.2,1.1l0,0.1l1.7,7.7c0.1,0.6-0.1,1.2-0.6,1.5c-0.2,0.1-0.4,0.2-0.5,0.2h0
			l-0.3,0l-0.3,0c-3.2,0.4-6.3,0.7-9.5,1c-6.3,0.5-12.6,0.8-19,0.8c-9.4,0-18.8-0.6-28.2-1.8c0.7,0.1-0.5-0.1-0.8-0.1
			c-0.6-0.1-1.2-0.2-1.7-0.3c-2-0.3-3.9-0.7-5.8-1c-2.4-0.4-4.6-0.2-6.7,1c-1.7,1-3.2,2.4-4.1,4.2c-0.9,1.9-1.2,4-1.6,6
			c-0.4,2-1.1,4.2-0.8,6.3c0.5,4.5,3.7,8.2,8.2,9c22.4,4,45.4,4.8,68,2.3c1.6-0.2,3,1,3.2,2.6c0,0.2,0,0.4,0,0.6l-0.4,4.2l-2.6,25.3
			c-0.9,8.9-1.8,17.7-2.7,26.6l-0.8,7.5c-0.2,2.5-0.3,5-0.7,7.4c-0.7,3.8-3.3,6.2-7.1,7c-3.5,0.8-7,1.2-10.5,1.2
			c-3.9,0-7.9-0.2-11.8-0.1c-4.2,0-9.3-0.4-12.6-3.5c-2.8-2.7-3.2-7-3.6-10.7c-0.5-4.9-1-9.8-1.5-14.7l-2.8-27.3l-1.8-17.7
			c0-0.3-0.1-0.6-0.1-0.9c-0.2-2.1-1.7-4.2-4.1-4.1c-2,0.1-4.3,1.8-4.1,4.1l1.4,13.1l2.8,27.1l2.4,23.1c0.2,1.5,0.3,3,0.5,4.4
			c0.9,8.1,7,12.4,14.7,13.6c4.5,0.7,9,0.9,13.5,0.9c5.8,0.1,11.6,0.3,17.3-0.7c8.4-1.5,14.8-7.2,15.7-15.9l0.8-7.6l2.6-25.1
			l2.8-27.3l1.3-12.5c0.1-1.3,1.1-2.3,2.3-2.6c2.4-0.5,4.7-1.3,6.4-3.1c2.7-2.9,3.3-6.7,2.3-10.6l-0.8-4c-0.7-3.6-2.3-7-6-8.3
			c-1.2-0.4-2.5-0.6-3.4-1.5c-0.9-0.9-1.2-2.2-1.4-3.4c-0.4-2.3-0.7-4.5-1.1-6.8c-0.3-1.9-0.6-4.1-1.5-5.9c-1.2-2.4-3.6-3.8-6-4.7
			c-1.2-0.5-2.5-0.8-3.8-1.2c-6-1.6-12.3-2.2-18.4-2.5C166.7,92.5,163,92.4,159.3,92.5L159.3,92.5z M126.2,125.8c2.6,0,5.5,1,8,1.4
			c3.5,0.5,6.9,1,10.4,1.3c14.9,1.4,30,1.1,44.8-0.8c2.7-0.4,5.4-0.8,8.1-1.3c2.4-0.4,5-1.2,6.5,1.2c1,1.7,1.1,3.9,1,5.8
			c0,0.8-0.4,1.6-1,2.2c-0.9,0.8-2.2,1.2-3.5,1.4c-14.5,2.2-29.2,3.2-43.8,2.8c-10.5-0.4-20.9-1.5-31.2-3c-1-0.1-2.1-0.3-2.8-1.1
			c-1.3-1.4-0.7-4.3-0.3-6c0.3-1.6,0.9-3.6,2.8-3.9C125.4,125.8,125.8,125.8,126.2,125.8L126.2,125.8z M122.2,135.5
			c0,0,0.1,0.1,0.1,0.2C122.3,135.5,122.2,135.5,122.2,135.5z M122.9,136.1L122.9,136.1C122.9,136.1,122.9,136.2,122.9,136.1
			C122.9,136.2,122.9,136.1,122.9,136.1z"/>
		<path class="st1" d="M167,159c-5.2,2.2-11,4.7-18.6,4.7c-3.2,0-6.3-0.4-9.4-1.3l5.3,54c0.4,4.7,4.3,8.3,9,8.3c0,0,7.5,0.4,9.9,0.4
			c2.7,0,10.7-0.4,10.7-0.4c4.7,0,8.6-3.6,9-8.3l5.6-59.7c-2.5-0.9-5.1-1.4-7.9-1.4C175.6,155.3,171.6,157,167,159L167,159z"/>
	</g>
</g>
</svg>
