<?xml version="1.0" encoding="UTF-8"?>
<svg id="_레이어_1" data-name="레이어 1" xmlns="http://www.w3.org/2000/svg" viewBox="0 0 179.499 236.809">
  <defs>
    <style>
      .cls-1 {
        fill: #fbfbfb;
        stroke-width: 0px;
      }
    </style>
  </defs>
  <path class="cls-1" d="M113.112,193.928c-.802-1.054-1.59-2.106-2.396-3.143-.8-1.03-1.955-1.86-2.701-.306-2.229,4.645-4.35,3.066-6.3.006-1.997.842-1.556,3.084-3.021,4.045-2.257-.943-3.212-3.248-5.343-4.934-.693,1.748-1.321,3.332-1.991,5.022-2.618-.501-3.015-3.287-4.836-4.717-1.365.044-1.634,1.4-2.247,2.212-1.188,1.573-2.15,2.686-3.643.322-1.585-2.51-2.903-2.239-4.146.39-.914,1.934-2.304,1.942-3.174.018-2.173-4.804-3.713-3.29-5.225.362-.372.899-.617,1.937-1.77,2.352-1.772-1.457-1.829-3.751-2.505-5.686-1.177-3.37-2.4-6.272-6.238-7.697-4.118-1.529-4.185-5.849-4.414-9.34-.285-4.345-2.424-7.014-5.77-9.223-5.535-3.652-10.953-7.486-16.561-11.022-6.447-4.066-9.537-9.88-9.742-17.361-.196-7.145.018-14.278.867-21.382.387-3.236,1.603-6.023,4.274-8.1,2.485-1.933,4.923-3.936,7.282-6.019,5.814-5.135,12.306-6.038,20.115-5.831,22.588.599,45.205.526,67.819-.599,16.064-.799,32.094-1.763,48.075-3.496,2.452-.266,3.019.442,3.325,2.727,1.783,13.312,3.425,26.609,2.319,40.096-.539,6.57-3.341,11.652-8.867,15.274-5.965,3.91-11.877,7.901-17.828,11.833-3.525,2.329-5.649,5.283-5.774,9.784-.123,4.428-1.424,8.232-6.282,10.272-3.683,1.547-3.81,5.971-5.298,9.237-.995,2.183-.897,4.848-2.849,6.731q-2.935-7.661-7.933-2.739c-1.748-.876-1.193-2.833-1.911-4.273-2.766.685-2.863,4.026-5.31,5.186ZM113.622,146.177c13.923-3.173,27.034-6.593,37.708-16.057,5.493-4.87,8.368-10.945,8.984-18.181.307-3.607-.592-5.718-4.842-4.233-3.436,1.2-7.012,2.015-10.416,3.294-16.26,6.112-27.198,17.086-31.435,35.176ZM36.814,112.977c.289,6.953,2.555,12.112,6.59,16.551,8.594,9.456,20.337,12.572,31.977,15.881,1.413.402,3.246,1.095,4.225-.164.928-1.194-.145-2.792-.694-4.168-6.885-17.245-19.783-27.167-37.682-31.056-3.339-.725-5.209-.021-4.416,2.956ZM97.165,145.865c-.338.236-.839.435-1.115.802-3.601,4.794-6.582,9.93-8.25,15.729-.439,1.527.066,2.529,1.978,2.395,4.569-.319,9.131,5.186,13.751.017.222-.248.963-.061,1.459-.029,2.83.182,2.868-1.16,2.134-3.4-1.565-4.773-3.906-9.122-6.772-13.197-.725-1.032-1.576-2.181-3.185-2.316Z"/>
  <path class="cls-1" d="M70.909,33.307c-8.447,1.48-15.444,4.918-22.668,7.684-5.87,2.247-11.756,4.46-17.699,6.503-1.489.512-3.797.973-4.675-.289-1.183-1.702.891-2.953,2.064-3.969,15.608-13.521,29.653-29.12,49.614-36.827C90.241,1.508,103.158-1.391,116.835.674c2.778.419,5.539.907,7.938,2.508-.134.4-.174.754-.352,1.012-1.36,1.979-5.708,3.109-4.527,5.059,1.545,2.55,4.973-.222,7.563-.598,4.883-.709,9.541-2.448,14.514-3.047,8.327-1.003,15.494.987,21.059,7.208,7.694,8.6,13.851,18.122,16.11,29.749,1.239,6.375-2.224,12.731.238,19.167.623,1.628-1.287,1.832-2.736,1.336-4.735-1.621-5.376.565-4.765,4.708.989,6.701-2.161,10.986-8.848,11.573-11.052.97-22.138,1.675-33.225,2.096-7.362.28-9.403-1.877-10.108-9.134-.513-5.278-.876-10.608-3.131-15.509-4.088-8.885-15.056-11.759-21.306-4.361-12.386,14.66-29.59,20.815-45.945,28.682-3.587,1.725-7.122,3.561-10.648,5.407-3.323,1.74-6.276,3.927-10.551,3.555-2.972-.259-5.298,2.232-7.228,4.654-4.331,5.435-6.133,12.097-9.064,18.209-1.075,2.241-1.999,4.572-3.273,6.692-.795,1.324-1.563,3.125-3.713,2.77-2.033-.336-3.098-1.796-3.849-3.536-1.914-4.437-.63-8.917.358-13.184,2.91-12.567,8.237-24.124,15.689-34.677,3.24-4.589,7.74-7.617,12.502-10.43,12.28-7.255,24.751-14.203,36.522-22.291,1.708-1.174,3.807-2.013,4.85-4.983Z"/>
  <path class="cls-1" d="M101.619,206.622c1.424-2.54,2.29-4.086,3.387-6.042,1.41,1.827,2.322,3.997,3.937,4.876,2.637,1.435,2.14-2.847,4.461-2.98.843,1.117,1.797,2.383,2.922,3.875,1.331-1.525,2.505-2.869,3.925-4.496.875,1.412,1.676,2.703,2.654,4.28,2.446-1.784,1.668-5.251,4.455-6.789,1.633,3.334,3.258,6.651,4.883,9.968.297-.035.595-.069.892-.104.873-7.349,1.827-14.689,2.582-22.05.322-3.141,1.064-5.496,4.38-6.977,3.719-1.661,4.443-5.517,4.783-9.241.481-5.267,4.753-10.66,9.433-12.163,2.432-.781,1.967,1.236,2.266,2.181,2.809,8.88,1.467,17.306-3.145,25.265-2.328,4.018-4.753,7.985-7.255,11.897-3.12,4.879-4.56,9.723-1.724,15.409,1.982,3.973,1.909,8.028-2.198,11.13-2.071,1.564-3.629,3.99-3.261,6.405.574,3.774-1.408,3.906-3.971,3.768-9.746-.525-19.422-2.215-29.205-2-15.062.332-30.046,1.797-44.961,3.832-3.732.509-5.809-.247-5.971-4.197-.106-2.596-1.716-4.318-3.472-5.806-3.233-2.739-3.501-6.168-1.742-9.441,3.082-5.733,1.813-10.914-1.099-16.051-1.794-3.166-3.632-6.336-5.763-9.278-6.157-8.501-5.839-17.562-2.796-26.986.77-2.386,1.699-2.596,3.801-1.22,4.055,2.654,7.225,5.517,7.337,10.958.096,4.68,2.798,7.479,6.746,10.567,5.066,3.962,6.243,10.999,5.721,17.703-.166,2.127-.608,4.232-.189,6.677,1.588-3.057,3.176-6.113,4.691-9.031,3.234-.448,2.548,10.51,7.852,2.265,1.858.677,2,2.617,3.386,4.041,2.291-3.041,4.857-5.19,7.652-.402,1.466-1.818,2.69-3.336,3.928-4.872,2.037,1.063,1.877,3.312,3.525,4.694,1.975-1.515,3.756-8.81,7.153.333Z"/>
  <path class="cls-1" d="M107.125,60.38c5.073,4.997,8.268,10.488,10.336,16.692.969,2.905-.161,3.988-3.095,3.803-3.307-.208-6.625-.269-9.939-.337-.814-.017-1.816.145-1.661,1.258.07.501.745,1.196,1.253,1.306,1.771.384,3.589.766,5.389.768,20.238.026,40.49.461,60.651-1.968,1.978-.238,4.544-.384,4.8,2.23.26,2.656-2.193,2.653-4.224,2.874-18.265,1.985-36.57,3.276-54.925,4.222-16.11.83-32.205.936-48.31.833-7.252-.046-14.548-.117-21.967-1.351,1.394-3.896,4.467-4.584,7.652-3.967,4.487.87,7.932-.454,11.367-3.26,8.089-6.606,16.514-12.788,25.471-18.185,4.115-2.479,8.234-4.73,11.837,1.139,1.474,2.401,3.041,1.127,3.793-1.052.519-1.505.958-3.037,1.572-5.003Z"/>
</svg>