<?xml version="1.0" encoding="UTF-8"?>
<svg id="_레이어_1" data-name="레이어 1" xmlns="http://www.w3.org/2000/svg" viewBox="0 0 971.087 475.694">
  <defs>
    <style>
      .cls-1 {
        fill: #cd9d2c;
        stroke-width: 0px;
      }
    </style>
  </defs>
  <path class="cls-1" d="M262.921,391.618c-26.826,0-53.653.08-80.478-.081-4.24-.025-6.496,1.139-8.177,5.309-9.897,24.546-20.203,48.926-30.174,73.442-1.639,4.03-3.902,5.421-8.246,5.406-43.488-.149-86.977-.087-130.466-.095-5.77-.001-6.418-.733-4.2-5.95,10.422-24.51,20.975-48.964,31.476-73.44,8.069-18.808,16.144-37.614,24.193-56.431,15.709-36.724,31.387-73.461,47.107-110.18,16.115-37.641,32.32-75.243,48.383-112.906,15.802-37.052,31.546-74.13,47.104-111.285,1.801-4.301,4.187-5.629,8.637-5.376,41.935,2.377,83.912.446,125.867,1.055,1.33.019,2.676.036,3.992-.128,7.653-.949,7.732-.998,10.442,5.991,11.675,30.108,23.231,60.263,34.959,90.351,13.544,34.748,27.253,69.433,40.833,104.168,8.182,20.929,16.24,41.907,24.41,62.841.555,1.421.621,3.752,2.809,3.551,2.011-.185,2.028-2.416,2.533-3.922,9.472-28.245,18.849-56.523,28.368-84.752,11.229-33.298,22.657-66.529,33.845-99.841,8.374-24.932,16.533-49.937,24.704-74.937.962-2.944,2.485-4.361,5.718-4.355,35.824.066,71.648.078,107.472-.018,3.33-.009,4.677,1.469,5.625,4.368,9.473,28.955,18.919,57.92,28.599,86.807,12.432,37.101,25.131,74.112,37.599,111.201,6.89,20.496,13.531,41.076,20.328,61.604.546,1.648.607,4.279,2.859,4.143,2.166-.131,1.978-2.751,2.48-4.426,8.458-28.217,16.812-56.465,25.348-84.658,11.623-38.39,23.355-76.747,35.092-115.102,4.871-15.919,9.872-31.798,14.821-47.693.396-1.272.881-2.517,1.268-3.791q3.463-11.394,15.252-11.395c40.323,0,80.646,0,120.968,0,7.574,0,7.894.426,5.475,7.492-7.168,20.944-14.452,41.848-21.5,62.832-12.294,36.602-24.409,73.264-36.67,109.876-9.778,29.197-19.718,58.339-29.487,87.538-14.581,43.583-29.039,87.208-43.619,130.792-7.866,23.513-15.939,46.957-23.755,70.487-1.285,3.87-3.111,5.6-7.446,5.58-34.49-.159-68.982-.175-103.472.002-5.385.028-8.191-1.998-9.903-7.004-8.294-24.258-16.776-48.452-25.247-72.649-8.25-23.566-16.558-47.111-24.858-70.659-9.408-26.691-19.043-53.305-28.147-80.1-3.478-10.236-8.034-20.112-10.458-30.708-.257-1.123-.773-2.201-1.27-3.252-.576-1.219-1.282-2.571-2.867-2.357-1.553.21-1.894,1.727-2.283,2.991-16.647,54.117-37.337,106.83-55.687,160.356-8.962,26.142-18.323,52.146-27.504,78.213-2.484,7.054-5.664,13.869-7.236,21.238-.773,3.624-3.545,3.871-6.571,3.86-13.163-.047-26.326-.02-39.49-.02-21.994,0-43.989-.07-65.982.069-3.804.024-5.727-.837-7.219-4.85-9.464-25.447-16.742-51.65-26.506-76.97-9.041-23.448-18.827-46.609-28.268-69.903-10.631-26.229-21.957-52.168-32.156-78.58-10.374-26.867-21.313-53.517-32.047-80.245-.697-1.735-.781-4.458-3.404-4.274-2.384.167-2.673,2.738-3.304,4.542-9.627,27.515-21.592,54.119-31.666,81.463-4.538,12.317-9.848,24.35-14.39,36.665-1.929,5.23-1.367,5.518,4.428,5.52,26.66.006,53.32.11,79.978-.101,4.632-.036,6.809,1.684,8.483,5.811,8.443,20.822,17.114,41.552,25.765,62.29,4.228,10.135,8.55,20.232,12.909,30.312,1.407,3.253.08,4.275-2.999,4.268-7.331-.017-14.663-.002-21.994-.002-20.328,0-40.656,0-60.984,0Z"/>
</svg>