<?xml version="1.0" encoding="UTF-8"?>
<svg id="_레이어_1" data-name="레이어 1" xmlns="http://www.w3.org/2000/svg" viewBox="0 0 213.957 213.438">
  <defs>
    <style>
      .cls-1 {
        fill: #eae8d8;
        stroke-width: 0px;
      }
    </style>
  </defs>
  <path class="cls-1" d="M44.763,192.711c1.731-6.426,3.399-12.739,5.135-19.035,4.402-15.969,8.726-31.962,13.352-47.866.858-2.95.208-4.718-1.922-6.45-11.821-9.613-23.648-19.218-35.433-28.876-6.455-5.29-12.829-10.678-20.273-16.883,2.952,0,4.546,0,6.139,0,21.472,0,42.944-.075,64.415.082,3.175.023,4.755-.917,5.814-3.88,5.919-16.561,11.978-33.071,18.011-49.591,2.095-5.735,4.251-11.448,6.896-18.559,2.971,7.81,5.531,14.324,7.933,20.896,5.695,15.584,11.437,31.153,16.868,46.829,1.145,3.304,2.691,4.311,6.051,4.291,21.471-.132,42.943-.067,64.415-.067,1.614,0,3.227,0,6.051,0-8.627,7.132-16.314,13.525-24.043,19.865-10.115,8.297-20.228,16.598-30.42,24.801-3.234,2.603-3.979,5.224-2.741,9.466,6.126,20.983,11.814,42.094,17.635,63.165.162.587.083,1.24.159,2.66-8.049-5.174-15.59-9.913-23.02-14.821-11.497-7.595-22.991-15.2-34.326-23.032-3.215-2.221-5.587-2.247-8.868-.038-17.624,11.865-35.408,23.492-53.14,35.197-1.221.806-2.23,2.063-4.686,1.847Z"/>
  <path class="cls-1" d="M96.027.082c-1.482,4.056-2.875,7.419-3.918,10.887-.677,2.251-2.285,2.461-4.131,2.859-20.049,4.333-37.005,14.096-50.856,29.219-4.711,5.144-8.974,10.627-12.216,16.846-1.546,2.965-12.143,5.641-14.511,3.467-1.496-1.373-.094-3.081.598-4.438,4.31-8.451,9.517-16.402,15.845-23.395C45.185,15.254,67.866,3.059,96.027.082Z"/>
  <path class="cls-1" d="M118.007,0c26.813,3.157,48.826,14.254,66.845,33.137,7.353,7.706,13.113,16.625,17.967,26.125,1.648,3.226,1.001,4.221-2.713,4.458-5.681.363-9.559-.704-12.898-6.292-13.673-22.881-33.793-37.347-59.912-43.114-3.713-.82-5.845-2.451-6.643-6.191-.546-2.561-1.611-5.012-2.647-8.123Z"/>
  <path class="cls-1" d="M200.965,106.722c0-1.663.294-3.39-.051-4.977-1.501-6.899,3.816-9.676,7.917-12.971,2.891-2.323,3.686.395,4.018,2.589,2.816,18.623.123,36.683-6.511,54.097-5.312,13.944-13.67,26.057-24.31,36.597-2.812,2.786-3.541,2.392-5.197-1.231-3.182-6.963-.277-11.56,3.991-16.71,13.739-16.582,20.088-35.924,20.143-57.393Z"/>
  <path class="cls-1" d="M12.812,99.407c-1.431,23.666,4.776,45.081,19.202,64.065.501.659.845,1.557,1.499,1.962,6.873,4.256,5.156,9.993,3.123,16.048-1.082,3.224-1.979,3.114-4.228.984-11.294-10.694-19.677-23.314-25.157-37.823C.697,127.285-1.563,109.392,1.082,90.948c.418-2.914,1.504-4.213,4.081-1.855,3.211,2.939,8.816,4.094,7.649,10.314Z"/>
  <path class="cls-1" d="M107.73,213.438c-16.707-1.159-32.191-3.498-46.545-10.785-3.435-1.744-3.619-3.007-.177-4.734.438-.22.812-.581,1.19-.906,4.039-3.463,7.906-3.979,13.349-2,22.033,8.01,44.173,7.495,66.038-1.212,2.748-1.094,12.434,2.947,13.702,5.789,1.018,2.281-1.281,2.371-2.397,2.912-9.01,4.363-18.45,7.473-28.359,8.96-5.881.883-11.817,1.4-16.801,1.975Z"/>
</svg>