<?xml version="1.0" encoding="UTF-8"?>
<svg id="_레이어_1" data-name="레이어 1" xmlns="http://www.w3.org/2000/svg" viewBox="0 0 926.895 722.993">
  <defs>
    <style>
      .cls-1 {
        fill: #fefe02;
        stroke-width: 0px;
      }
    </style>
  </defs>
  <path class="cls-1" d="M320.928,511.773c0-10.545-.054-19.831.009-29.115.347-51.305.696-102.61,1.1-153.914.211-26.814.574-53.627.754-80.441.02-2.952,1.122-4.95,3.184-6.919,46.13-44.063,92.216-88.173,138.303-132.282,12.876-12.323,25.82-24.577,38.527-37.071,3.589-3.529,6.026-3.678,9.89-.166,40.55,36.852,81.24,73.551,121.938,110.24,93.778,84.541,187.52,169.123,281.495,253.446,7.494,6.725,10.847,13.354,10.767,23.827-.556,73.3-.305,146.606-.294,219.91.002,11.988.106,23.975.128,35.963.003,1.408.755,3.239-1.053,3.987-1.72.712-2.721-.926-3.734-1.914-9.534-9.293-19.035-18.621-28.514-27.971-4.982-4.914-9.944-9.848-14.839-14.847-11.189-11.425-22.997-22.072-35.602-32.003-13.012-10.25-24.124-22.735-35.83-34.489-7.986-8.019-15.531-16.638-24.367-23.6-7.823-6.163-15.505-12.389-22.825-19.137-10.043-9.257-19.901-18.72-29.184-28.708-16.153-17.381-35.653-31-52.514-47.582-8.066-7.933-15.744-16.236-23.951-24.05-17.354-16.522-36.71-30.798-53.111-48.402-10.42-11.185-20.961-22.56-32.975-31.882-14.808-11.489-27.78-24.769-41.365-37.47-4.734-4.426-9.005-9.342-13.598-13.925-3.841-3.833-8.409-3.679-12.219.106-58.735,58.353-117.479,116.696-176.231,175.033-.919.913-1.957,1.707-3.889,3.376Z"/>
  <path class="cls-1" d="M117.96,710.357c-1.351-1.171-.801-2.771-.791-4.191.278-39.143.639-78.285.883-117.429.2-31.983.214-63.967.406-95.95.285-47.471.654-94.942.988-142.413.332-47.138.667-94.276.999-141.413.334-47.471.659-94.942,1.012-142.413.038-5.161.186-10.322.403-15.479.058-1.382-.856-3.299.894-4.029,1.323-.552,2.36.947,3.395,1.709,14.214,10.477,28.406,20.984,42.603,31.485,32.679,24.172,65.328,48.384,98.081,72.455,3.019,2.219,4.169,4.55,4.174,8.29.078,62.47.297,124.939.486,187.408.144,47.312.272,94.624.445,141.936.078,21.487.171,42.974.435,64.458.053,4.3-1.195,7.4-4.384,10.492-40.06,38.844-79.963,77.85-119.913,116.808-9.063,8.838-18.15,17.652-27.237,26.466-.814.79-1.48,1.854-2.879,1.808Z"/>
  <path class="cls-1" d="M925.191,248.652c0,40.149.013,80.297-.044,120.446-.002,1.693,1.06,4.137-.982,4.944-1.574.622-2.762-1.514-3.975-2.577-44.713-39.212-89.418-78.434-134.077-117.707-4.619-4.062-8.942-8.462-13.418-12.687-2.226-2.101-2.883-4.676-2.838-7.681.729-48.627,1.382-97.255,2.102-145.882.409-27.639.897-55.277,1.404-82.914.028-1.541-.864-3.7,1.021-4.469,1.5-.612,2.559,1.218,3.672,2.126,40.523,33.049,81.033,66.114,121.526,99.201,7.601,6.211,15.027,12.641,22.727,18.725,2.841,2.245,2.874,5.025,2.873,8.031-.007,23.323-.025,46.646-.033,69.969-.006,16.826-.001,33.652-.001,50.477h.044Z"/>
  <path class="cls-1" d="M64.964,452.329c0,58.795.102,117.591-.043,176.386-.074,29.809-.63,59.617-.857,89.427-.025,3.224-.639,4.884-4.365,4.851-17.989-.159-35.98-.14-53.97-.099-4.038.009-6.295-.822-5.363-5.771C.964,713.953-.001,710.519,0,707.204c.056-139.265.069-278.531.262-417.796.07-50.303.574-100.605.922-150.908.012-1.735-.833-4.086,1.073-5.021,1.665-.817,2.928,1.186,4.196,2.145,18.999,14.361,37.931,28.81,56.96,43.132,3.548,2.67,4.679,5.856,4.639,10.263-.468,51.797-.84,103.595-1.06,155.394-.152,35.971-.029,71.944-.029,107.916-.666,0-1.332,0-1.998.001Z"/>
</svg>