<?xml version="1.0" encoding="UTF-8"?>
<svg id="_레이어_1" data-name="레이어 1" xmlns="http://www.w3.org/2000/svg" viewBox="0 0 679.99 1023.805">
  <defs>
    <style>
      .cls-1 {
        fill: #fe6600;
        stroke-width: 0px;
      }
    </style>
  </defs>
  <path class="cls-1" d="M.057,0h294.946c-.011,2.165-.032,4.33-.032,6.495-.001,330.942-.002,661.885,0,992.827,0,8.161.021,16.322.032,24.483H.057c.019-1.832.056-3.664.056-5.497.003-106.457.035-212.915-.113-319.372-.006-4.331,1.374-6.941,4.609-9.563,11.902-9.649,23.535-19.629,35.369-29.364,2.351-1.934,3.495-3.866,3.491-7.093-.1-98.461-.094-196.921-.022-295.382.002-2.939-.853-4.866-3.132-6.759-12.171-10.11-24.112-20.497-36.329-30.549-2.843-2.339-3.965-4.627-3.962-8.353C.119,207.916.077,103.958.057,0Z"/>
  <path class="cls-1" d="M679.933,1023.805h-294.946c.011-2.165.032-4.33.032-6.495.001-330.609.002-661.219,0-991.828,0-8.494-.021-16.988-.032-25.482C483.302,0,581.617,0,679.933,0c-.02,1.666-.056,3.331-.056,4.997-.003,102.292-.025,204.585.089,306.877.004,3.725-1.119,6.014-3.962,8.352-12.218,10.052-24.159,20.439-36.329,30.549-2.279,1.893-3.134,3.82-3.132,6.759.072,98.461.078,196.921-.022,295.382-.003,3.227,1.14,5.159,3.491,7.093,11.833,9.735,23.467,19.715,35.369,29.364,3.235,2.623,4.614,5.233,4.609,9.563-.128,108.289-.077,216.579-.057,324.869Z"/>
</svg>