<?xml version="1.0" encoding="utf-8"?>
<!-- Generator: Adobe Illustrator 28.1.0, SVG Export Plug-In . SVG Version: 6.00 Build 0)  -->
<svg version="1.1" id="MW2CR" xmlns="http://www.w3.org/2000/svg" xmlns:xlink="http://www.w3.org/1999/xlink" x="0px" y="0px"
	 viewBox="0 0 475 191.6" style="enable-background:new 0 0 475 191.6;" xml:space="preserve">
<style type="text/css">
	.st0{fill:#60BA46;}
	.st1{fill:#FFFFFF;}
</style>
<path id="_x32_" class="st0" d="M354.2,191H251.4v-28.6L354.2,102v39.5l-25.9,15.8c0,0-3.2,1.8-2,4.7c1.2,2.9,3.9,3,3.9,3h24
	 M475,69.9V29.3L426.3,0h-55v17.8h17.3c4.8,0,6.2,1.1,6.2,1.1L415,30.7c4.8,2.7,4.8,5.3,4.8,5.3v21.3c0,7-4.3,8.8-4.3,8.8
	l-44.3,25.5v40.2L475,69.9z M354.6,17.8V0h-55.2l-48,28.4v19H306V35.5c0,0,0.3-3.5,5.1-5.6L330,19.1c0,0,1.4-1.3,4.8-1.2L354.6,17.8
	L354.6,17.8z M371.2,191h103.3v-26H371.2V191z"/>
<path id="MW" class="st1" d="M167,75.2v115.7h-29.5v-73.6L85.4,176v0.2c0,0-2.6,3.1-4.1,3.1s-4.1-3.1-4.1-3.1l-52.6-64.4v79.1H0
	V75.2h24.6l58.9,69.4l57.8-69.4H167z M334.2,75.2L306.6,149L279,75.2h-27.8L223.6,149L196,75.2h-27.5l41.4,110.7l2.1,5.7h23.3l0,0
	l2.2-5.7l27.7-74.1l27.7,74.1l2.1,5.7h23.3l0,0l2.2-5.7l41.3-110.7L334.2,75.2L334.2,75.2z"/>
</svg>
