<?xml version="1.0" encoding="UTF-8"?>
<svg id="_레이어_1" data-name="레이어 1" xmlns="http://www.w3.org/2000/svg" viewBox="0 0 356.172 391.122">
  <defs>
    <style>
      .cls-1 {
        fill: #fe6600;
        stroke-width: 0px;
      }
    </style>
  </defs>
  <path class="cls-1" d="M113.613,195.59c0,63.295-.055,126.59.114,189.884.012,4.62-1.234,5.65-5.703,5.625-33.975-.193-67.953-.219-101.927.023-4.796.034-5.567-1.495-5.533-5.799.194-24.65.117-49.303.063-73.954-.006-2.881.463-5.518,1.618-8.196,5.202-12.052,12.219-23.775,14.774-36.388,2.56-12.644.625-26.203.629-39.36.01-35.312-.013-70.624.035-105.935.004-2.885-.49-5.494-1.707-8.158-5.176-11.336-12.136-22.347-14.642-34.276-2.548-12.129-.65-25.196-.67-37.852-.02-12.326.1-24.653-.076-36.976C.54,1.04,1.312.031,4.663.043,39.637.17,74.614.221,109.588,0c4.635-.029,4.038,2.373,4.037,5.205-.016,63.461-.012,126.923-.012,190.384Z"/>
  <path class="cls-1" d="M242.553,195.053c0-63.294.045-126.589-.102-189.883-.01-4.166,1.008-5.176,5.161-5.154,34.308.183,68.619.193,102.927-.009,4.31-.025,5.101,1.234,5.067,5.252-.199,23.317-.124,46.637-.061,69.956.007,2.736-.323,5.282-1.735,7.646-.168.282-.235.623-.37.927-4.931,11.083-11.806,21.755-14.256,33.362-2.492,11.805-.656,24.531-.662,36.854-.016,36.311.01,72.622-.038,108.933-.004,2.72.468,5.2,1.548,7.71,5.19,12.058,12.256,23.769,14.793,36.381,2.577,12.812.658,26.532.679,39.855.02,13.325-.087,26.651.072,39.975.038,3.135-.641,4.228-4.044,4.215-34.975-.132-69.951-.181-104.926.04-4.594.029-4.071-2.308-4.07-5.177.021-63.628.016-127.256.016-190.883Z"/>
  <path class="cls-1" d="M130.601,195.057c0-63.283.043-126.566-.099-189.849-.009-4.105.906-5.225,5.119-5.195,28.806.205,57.616.188,86.422.011,3.801-.023,4.608,1.009,4.605,4.684-.101,127.232-.101,254.465,0,381.697.003,3.675-.803,4.707-4.605,4.684-28.807-.177-57.616-.195-86.422.011-4.213.03-5.128-1.089-5.119-5.195.141-63.616.099-127.232.099-190.848Z"/>
</svg>