<?xml version="1.0" encoding="utf-8"?>
<!-- Generator: Adobe Illustrator 28.1.0, SVG Export Plug-In . SVG Version: 6.00 Build 0)  -->
<svg version="1.1" id="COD_x5F_MW3_x5F_ICON" xmlns="http://www.w3.org/2000/svg" xmlns:xlink="http://www.w3.org/1999/xlink"
	 x="0px" y="0px" viewBox="0 0 1440.4 321.9" style="enable-background:new 0 0 1440.4 321.9;" xml:space="preserve">
<style type="text/css">
	.st0{fill:#D80000;}
	.st1{fill-rule:evenodd;clip-rule:evenodd;fill:#FFFFFF;}
</style>
<path id="III_00000154409082969091041530000012956753807431131806_" class="st0" d="M1092.9,0.1h88.1v321.6h-102.2V25.2L1092.9,0.1z
	 M1338.1,0.1v321.4h88.6l13.6-24.5V0.1H1338.1z M1208.5,321.7h102.2V0.1h-102.2V321.7z"/>
<path id="MW" class="st1" d="M465.1,248.6l102.8-99.9V0H450.5L284,169.1L117.3,0.2H0v321.6h102.7l0.1-173.5h16.4l164.7,160
	L448.6,148H465L465.1,248.6z M930.2,0.3l-0.1,173.6h-16.4L748.9,13.5L465,289v32.7h117.3l166.7-169l166.5,169.2h117.4V0.3H930.2z"/>
</svg>
