<?xml version="1.0" encoding="utf-8"?>
<!-- Generator: Adobe Illustrator 28.1.0, SVG Export Plug-In . SVG Version: 6.00 Build 0)  -->
<svg version="1.1" id="레이어_1" xmlns="http://www.w3.org/2000/svg" xmlns:xlink="http://www.w3.org/1999/xlink" x="0px"
	 y="0px" viewBox="0 0 44 22.3" style="enable-background:new 0 0 44 22.3;" xml:space="preserve">
<style type="text/css">
	.st0{fill:#FB0A33;}
	.st1{fill:#FFFFFF;}
</style>
<path class="st0" d="M28.8,10.7c-0.5-0.4-1.2-0.7-2.2-0.7H17v12.3h3v-4.4h6.7c1,0,1.7-0.2,2.2-0.7c0.5-0.4,0.7-1.1,0.7-2v-2.5
	C29.5,11.8,29.3,11.1,28.8,10.7z M26.5,14.7c0,0.4-0.1,0.5-0.1,0.5c0,0-0.2,0.1-0.6,0.1h-5.9v-2.9h5.9c0.4,0,0.5,0.1,0.6,0.1
	c0,0,0.1,0.1,0.1,0.5V14.7z M43.2,17.4c-0.1-1-0.3-1.6-0.7-2c-0.5-0.5-1.3-0.7-2.4-0.7h-6.6v-2.1h6.9v1.2l2.7-0.8v-0.6
	c0-0.5-0.2-1.3-0.7-1.7c-0.5-0.5-1.3-0.7-2.4-0.7h-6c-1.2,0-2,0.2-2.5,0.7c-0.5,0.5-0.7,1.3-0.7,2.5v1c0,1.2,0.2,2,0.7,2.5
	c0.5,0.5,1.3,0.7,2.5,0.7h6.6v2.3h-7.3v-1.2l-2.8,0.7c0,1.2,0.2,2,0.7,2.5c0.5,0.5,1.3,0.7,2,0.7c0.4,0,0.7,0,1.1,0h6
	c1.2,0,2-0.2,2.5-0.7c0.5-0.5,0.7-1.3,0.7-2.5v-1C43.2,17.9,43.2,17.4,43.2,17.4z M12,10H4.2c-1.2,0-2,0.2-2.5,0.7
	C1.2,11.2,1,12,1,13.2v5.9c0,1.2,0.2,2,0.7,2.5c0.5,0.5,1.3,0.7,2.5,0.7H12c1.2,0,2-0.2,2.5-0.7c0.5-0.5,0.7-1.3,0.7-2.5v-5.9
	c0-1.2-0.2-2-0.7-2.5C14,10.2,13.2,10,12,10z M12.2,19.7H4v-7.1h8.3V19.7z"/>
<path class="st1" d="M7.1,3.6c0.1,0,0.1-0.1,0.2-0.1c0.2-0.2,0.4-0.6,0.4-1.1V1.7c0-0.6-0.1-1-0.4-1.3C6.9,0.1,6.5,0,5.9,0H0v7.5
	h5.5c0.7,0,1.2-0.1,1.6-0.4c0.3-0.2,0.6-0.6,0.6-1.3V5c0-0.5-0.1-0.9-0.4-1.1C7.3,3.7,7.2,3.7,7.1,3.6z M1.8,1.6h3.6
	c0.3,0,0.3,0,0.3,0c0,0,0,0.1,0,0.2v0.7c0,0.2,0,0.2,0,0.2c0,0-0.1,0.1-0.3,0.1H1.8V1.6z M5.9,5.4c0,0.3-0.1,0.4-0.1,0.4
	c0,0-0.1,0.1-0.4,0.1H1.8V4.4h3.6c0.3,0,0.3,0.1,0.4,0.1c0,0,0.1,0.1,0.1,0.4V5.4z M20.3,0l-4.1,7.5h1.9L19,5.8h4.3l0.9,1.7h2
	L21.9,0H20.3z M19.8,4.3l1.3-2.5l1.3,2.5H19.8z M38,3.6L43.4,0h-2.9l-3.9,2.6V0h-1.8v7.5h1.8V4.7l4.2,2.8H44L38,3.6z M34,1.9
	c0-0.7-0.1-1.2-0.4-1.5C33.3,0.1,32.8,0,32.1,0h-3.9c-0.7,0-1.2,0.1-1.5,0.4c-0.3,0.3-0.4,0.8-0.4,1.5v3.6c0,0.7,0.1,1.2,0.4,1.5
	c0.3,0.3,0.8,0.4,1.5,0.4h3.9c0.7,0,1.2-0.1,1.5-0.4C33.9,6.8,34,6.3,34,5.5l-1.8-0.4v0.7h-4.1V1.6h4.1v0.7L34,1.9z M10.4,0H8.6v7.5
	h7V5.9h-5.2V0z"/>
</svg>
