<?xml version="1.0" encoding="utf-8"?>
<!-- Generator: Adobe Illustrator 28.1.0, SVG Export Plug-In . SVG Version: 6.00 Build 0)  -->
<svg version="1.1" id="레이어_1" xmlns="http://www.w3.org/2000/svg" xmlns:xlink="http://www.w3.org/1999/xlink" x="0px"
	 y="0px" viewBox="0 0 30.2 44" style="enable-background:new 0 0 30.2 44;" xml:space="preserve">
<style type="text/css">
	.st0{fill:#FFFFFF;}
</style>
<g>
	<path class="st0" d="M25.5,13.8c0.5,0.5,1.3,0.5,1.8,0l2.5-2.6c0.5-0.5,0.5-1.4-0.1-1.9c-2-1.7-4.2-3-6.7-3.8l0.8-3.8
		C24,0.8,23.4,0,22.5,0h-4.8c-0.6,0-1.2,0.4-1.3,1.1l-0.7,3.4C9.3,4.8,3.8,8,3.8,14.7c0,5.8,4.5,8.3,9.3,10c4.5,1.7,6.9,2.4,6.9,4.8
		c0,2.5-2.4,4-5.9,4c-3.2,0-6.6-1.1-9.2-3.7c-0.5-0.5-1.3-0.5-1.8,0c0,0,0,0,0,0l-2.7,2.7c-0.5,0.5-0.5,1.4,0,1.9
		c2.1,2.1,4.8,3.6,7.8,4.4l-0.7,3.6C7.3,43.2,7.9,44,8.7,44l4.9,0c0.6,0,1.2-0.4,1.3-1.1l0.7-3.4c7.7-0.5,12.5-4.8,12.5-11
		c0-5.7-4.7-8.2-10.4-10.1c-3.3-1.2-6.1-2-6.1-4.5c0-2.4,2.6-3.4,5.3-3.4C20.2,10.5,23.4,11.9,25.5,13.8L25.5,13.8z"/>
</g>
</svg>
