<?xml version="1.0" encoding="UTF-8"?>
<svg id="_레이어_1" data-name="레이어 1" xmlns="http://www.w3.org/2000/svg" viewBox="0 0 381.326 483.235">
  <defs>
    <style>
      .cls-1 {
        fill: #fefefe;
      }

      .cls-1, .cls-2, .cls-3 {
        stroke-width: 0px;
      }

      .cls-2 {
        fill: #ef000f;
      }

      .cls-3 {
        fill: #8c8c8c;
      }
    </style>
  </defs>
  <path class="cls-2" d="M.066,305.87c-1.79-81.299,32.735-141.835,103.779-181.478,2.9-1.618,5.883-3.088,8.829-4.63,2.457-.506,4.748-1.402,6.83-2.8-.416-1.335-1.658-1.605-2.639-2.149-8.249-4.581-16.422-9.31-24.796-13.653-12.625-6.547-25.025-13.56-38.22-18.963-1.967-.975-1.842-2.266-.967-4.081,12.206-25.315,24.365-50.653,36.463-76.02.983-2.062,1.901-2.598,4.131-1.629,71.878,31.219,142.252,65.111,202.742,116.139,30.118,25.407,55.274,54.812,70.456,91.776,9.275,22.583,13.424,46.25,14.473,70.498.402,9.3.005,18.635-.026,27.959-.326,1.099-.879,2.179-.947,3.289-.958,15.694-4.46,30.889-9.808,45.579-18.471,50.738-52.155,87.667-101.191,110.484-23.398,10.887-48.097,16.298-73.784,16.977-33.738.892-65.508-7.015-95.416-22.542-20.395-10.588-37.494-25.248-52.609-42.42-23.308-26.48-37.873-57.143-44.206-91.764-1.247-6.817-2.072-13.712-3.092-20.571ZM309.879,176.162c-1.894.588-3.824,1.08-5.676,1.779-18.354,6.932-36.723,13.826-55.012,20.925-3.193,1.239-5.741,1.069-8.92-.23-27.019-11.041-54.92-13.189-82.42-3.545-12.181,4.272-22.07,3.643-33.4-1.253-15.379-6.646-31.38-11.855-47.115-17.679-.21-.165-.539-.511-.61-.465-.494.325-.325.705.026,1.052.196,1.482.285,2.987.604,4.441,4.378,19.968,8.698,39.95,13.26,59.876.972,4.244.691,7.827-1.283,11.827-5.966,12.096-9.02,25.069-9.051,38.537-.082,34.801,14.793,62.241,42.294,82.931,9.453,7.112,18.924,14.173,27.707,22.079,16.831,15.152,33.88,30.169,43.42,51.845,2.934-7.555,7.036-14.177,12.02-20.249,15.844-19.304,34.086-36.201,54.583-50.263,42.56-29.199,58.474-80.943,37.371-125.338-1.873-3.94-1.948-7.345-1.062-11.367,4.72-21.417,9.25-42.875,13.84-64.324.358-.343.524-.721.032-1.048-.069-.046-.399.301-.609.466Z"/>
  <path class="cls-1" d="M77.338,176.159c15.734,5.825,31.734,11.034,47.114,17.68,11.33,4.896,21.219,5.524,33.4,1.253,27.5-9.644,55.401-7.496,82.42,3.545,3.178,1.299,5.727,1.469,8.92.23,18.289-7.099,36.659-13.993,55.012-20.925,1.852-.699,3.782-1.191,5.676-1.779.191.199.385.394.583.587-4.596,21.444-9.125,42.903-13.846,64.32-.886,4.022-.811,7.427,1.062,11.367,21.103,44.394,5.19,96.139-37.371,125.338-20.496,14.061-38.738,30.959-54.583,50.263-4.984,6.073-9.085,12.694-12.02,20.249-9.541-21.676-26.589-36.693-43.42-51.845-8.783-7.907-18.254-14.968-27.707-22.079-27.501-20.69-42.376-48.13-42.294-82.931.032-13.468,3.085-26.441,9.051-38.537,1.973-4.001,2.254-7.583,1.283-11.827-4.562-19.926-8.882-39.908-13.26-59.876-.319-1.455-.408-2.96-.604-4.441.199-.192.394-.388.585-.588ZM115.104,281.357c-.137-.159-.273-.317-.41-.476.026.095.022.237.083.276.115.073.268.086.406.123.107.303.122.716.334.892,9.978,8.31,19.977,16.595,29.962,24.898.965.802,1.824,1.195,3.126.539,8.083-4.074,16.206-8.068,25.507-12.68-12.841-3.099-24.229-6.004-35.695-8.558-7.756-1.728-15.287-4.539-23.312-5.015ZM273.112,281.357c-1.316.077-2.679-.04-3.942.261-16.815,4.01-33.622,8.053-50.404,12.197-1.053.26-2.74-.163-3.263,1.835,4.324,2.15,9.009,3.752,12.841,6.529,8.953,6.488,16.262,5.681,23.792-2.59,6.215-6.827,14.671-11.339,20.897-18.308.137-.038.29-.051.406-.124.061-.038.057-.18.083-.276-.137.159-.273.318-.41.476Z"/>
  <path class="cls-3" d="M273.033,281.28c-6.225,6.969-14.681,11.481-20.896,18.308-7.53,8.272-14.839,9.078-23.792,2.59-3.833-2.777-8.517-4.38-12.841-6.529.523-1.998,2.21-1.575,3.263-1.835,16.782-4.143,33.589-8.186,50.404-12.197,1.263-.301,2.626-.184,3.942-.261l-.079-.077Z"/>
  <path class="cls-3" d="M115.103,281.357c8.025.476,15.556,3.286,23.312,5.014,11.466,2.555,22.854,5.46,35.695,8.558-9.301,4.612-17.424,8.606-25.507,12.68-1.302.656-2.161.263-3.126-.539-9.984-8.303-19.983-16.588-29.962-24.898-.212-.177-.227-.59-.334-.892l-.079.077Z"/>
</svg>