<?xml version="1.0" encoding="utf-8"?>
<!-- Generator: Adobe Illustrator 28.1.0, SVG Export Plug-In . SVG Version: 6.00 Build 0)  -->
<svg version="1.1" id="_레이어_1" xmlns="http://www.w3.org/2000/svg" xmlns:xlink="http://www.w3.org/1999/xlink" x="0px"
	 y="0px" viewBox="0 0 354.5 384" style="enable-background:new 0 0 354.5 384;" xml:space="preserve">
<style type="text/css">
	.st0{fill:#FEFEFD;}
</style>
<path class="st0" d="M201.7,0.1c0.6,1.2,1.8,1.1,2.8,1.5c9.3,4.3,16,11,19.4,20.7c0.5,1.4,0.9,2.6,2.4,3c2.5,0.5,2.7,2,2.1,4.2
	c-1,3.6-2,7.2-2.6,10.9c-0.5,2.8-1.5,3.9-4.4,3.4c-1.2-0.2-3.4-1.4-3.4,1.7c0,2.7,1.6,2.5,3.5,2.5c33,0,66-0.1,99,0.1
	c3.3,0,4.1-2.1,5.6-4c0.8-1.1,1.3-2.9,2.9-2.4c1.8,0.5,1.6,2.3,1.6,3.8c0,5.6,0,5.6,5.8,5.6c5.1,0,10.2,0.1,15.4-0.1
	c2.5-0.1,2.9,1,2.9,3.1c0,2.1-0.4,3.2-2.9,3.1c-5.9-0.2-11.7,0.1-17.6-0.1c-2.7-0.1-3.7,0.4-3.7,3.4c0.1,8.9,0,8.9-8.8,8.9
	c-16,0-32,0.1-48-0.2c-3.8-0.1-5.3,1.1-5.8,4.7c-0.6,4.2-1.1,8.4-3.8,12c-1.1,1.4-0.2,2.9,0.1,4.3c1.3,5.7,2.5,11.4,4,17.1
	c0.6,2.3,0.3,3.4-2.3,3.9c-6,1.2-11.9,2.7-17.8,4.2c-2.1,0.5-2.9-0.2-3.3-2.2c-0.5-2.3-0.5-6.4-1.8-6.3c-2.5,0.3-2.5,4-3.6,6.2
	c-0.7,1.3-1.3,2.7-1.7,4.2c-2.4,9.4-10.1,11-18,12.5c-1.8,0.3-3.4-0.4-4.9-1.4c-4.1-2.4-8.2-4.7-12.3-7.2c-1.6-1-2.7-0.9-3.7,0.6
	c-0.6,0.9-1.4,1.8-2.3,2.5c-2.7,2.2-2.9,4.4-0.3,6.7c2,1.8,1.9,3.5,0.6,5.9c-5.5,10.2-10.7,20.6-15.9,30.9c-1.1,2.1-2.2,3.5-4.8,3.2
	c-2.7-0.3-4,0.8-3.4,3.7c0.2,0.8,0.2,1.7,0.2,2.6c-0.2,8,2.2,14.8,6.4,21.9c10.4,17.1,19.7,35,29.2,52.7c4.8,8.8,5.1,17.9,1,27.3
	c-8.4,19.7-16.6,39.6-24.4,59.5c-2.9,7.3-6.7,13.6-12.6,18.6c-2.5,2-2.3,3.6-0.7,6.3c2.9,5,6.6,8.2,12.4,9.2c3,0.5,5.9,1.8,8.9,2.8
	c6.1,1.9,6.3,2.4,4.2,8.3h-63.7c0.1-6.3,1.4-12.2,3.2-18.3c4.8-16.3,9.7-32.6,12-49.4c1.4-10.1,4.7-19.3,10.1-27.8
	c2.9-4.6,5.2-9.7,8.1-14.4c1.5-2.5,1.4-4-1.5-5.2c-3.7-1.5-6.3-4.3-8.7-7.4c-8.8-11.6-16.2-24-23.9-36.2c-1-1.6-1.8-3.7-4.4-3.5
	c-2.6,0.3-3.7,2.1-4.6,4.3c-8.3,19.1-16.8,38.2-25.1,57.3c-1.8,4.2-4.1,8-6.9,11.6c-16.8,21.7-33.6,43.5-50.4,65.2
	c-1.9,2.5-2.9,5.2-3.1,8.2c-0.4,5.2-1,10.4-1.5,15.6H0c3.1-5.7,6.1-11.4,9.2-17.1c0.6-1.1,1.5-2.1,1.1-3.4c-1.9-6-0.3-11.6,2-17
	c8.3-19.5,17-38.9,24.9-58.5c3.2-8,8.1-14.2,14.8-19.3c1.7-1.3,3.3-2.7,5-3.9c1.9-1.3,2.6-3,3.1-5.3c3.1-16.1,3.6-32.5,5.2-48.8
	c0.5-5.1,0.7-5.6,5.8-5.5c2.4,0,3.5-0.8,4.3-3c2.5-7.1,5.3-14,7.9-21c0.6-1.5,1.2-3,2.6-4c4.5-3.1,7-7.5,8.2-12.9
	c0.7-3.1,3-6.4,2.5-9.2c-0.6-3.1-4.9-4.2-7.7-5.9c-2.3-1.4-2.5-2.9-1.7-5.2c3.9-11.2,7.7-22.4,11.6-33.6c3.1-8.8,1.1-7.2,9.9-7.2
	c2.8,0,4.2-0.9,5.3-3.5c3.7-8.6,7.6-17.1,11.6-25.6c4.1-8.6,9.6-16.4,17.3-22.3c4.3-3.3,8.9-5.5,14.5-5.2c1.9,0.1,3.8,0,5.6-0.2
	c2.9-0.3,3.1-3.2,4.3-5.1c0.7-1.1-0.7-1.5-1.4-1.7c-4.1-0.9-4.7-3.8-4.5-7.3c0.1-2.7-0.1-5.5-0.4-8.2c-0.5-4.4,0.7-8.4,2.8-12.2
	c2.8-5.1,7.3-8.4,12-11.5L201.7,0.1L201.7,0.1z"/>
</svg>
