<?xml version="1.0" encoding="UTF-8"?>
<svg id="_레이어_1" data-name="레이어 1" xmlns="http://www.w3.org/2000/svg" viewBox="0 0 983.31 1024">
  <defs>
    <style>
      .cls-1 {
        fill: #fff;
        stroke-width: 0px;
      }
    </style>
  </defs>
  <path class="cls-1" d="M85.591.019c10.898-.33,23.777,3.633,35.995,9.907,167.429,86.851,335.187,173.042,502.616,259.564,88.503,45.572,176.675,91.144,264.848,137.377,21.135,11.228,44.251,19.484,62.084,35.995,50.196,45.902,40.289,121.856-20.144,152.898-125.159,64.396-250.648,128.791-376.136,193.187-102.373,52.507-204.745,105.344-307.118,158.182-43.261,22.456-85.531,46.563-129.452,68.028C61.815,1043.227-2.251,1000.957.061,937.882c.66-15.191,6.935-28.4,12.879-41.609,30.051-67.368,64.726-132.754,83.219-204.745,42.6-166.107,25.428-326.271-45.572-481.811C34.075,173.722,14.261,138.717,3.363,100.41-10.837,49.554,29.782-.641,85.591.019Z"/>
</svg>