<?xml version="1.0" encoding="utf-8"?>
<!-- Generator: Adobe Illustrator 28.1.0, SVG Export Plug-In . SVG Version: 6.00 Build 0)  -->
<svg version="1.1" id="레이어_1" xmlns="http://www.w3.org/2000/svg" xmlns:xlink="http://www.w3.org/1999/xlink" x="0px"
	 y="0px" viewBox="0 0 114.8 114.8" style="enable-background:new 0 0 114.8 114.8;" xml:space="preserve">
<style type="text/css">
	.st0{fill:#FFFFFF;}
</style>
<path class="st0" d="M14.1,64.7c0-27.9,22.6-50.4,50.5-50.4c26.3,0.1,48.1,20.3,50.2,46.5v-3.2c0-31.7-25.7-57.4-57.4-57.4
	S0,26,0,57.7S25.7,115,57.4,115h3.8C34.8,113.2,14.2,91.2,14.1,64.7z"/>
<path class="st0" d="M91.8,67.2c-10.2,0-18.4-8.2-18.5-18.3c0-7.8,4.8-14.7,12.1-17.4c-5.7-3-12-4.6-18.5-4.5
	c-22.2,0-40.2,18-40.2,40.2s18,40.2,40.2,40.2s40.2-18,40.2-40.2c0.1-2.6-0.1-5.1-0.6-7.7C103.4,64.6,97.7,67.5,91.8,67.2z"/>
</svg>
