<?xml version="1.0" encoding="UTF-8"?>
<svg id="_레이어_2" data-name="레이어 2" xmlns="http://www.w3.org/2000/svg" viewBox="0 0 1502.13 1429.221">
  <defs>
    <style>
      .cls-1 {
        fill: #fff;
        stroke-width: 0px;
      }
    </style>
  </defs>
  <g>
    <path class="cls-1" d="M1502.13,1210.709c-2.546,6.475-2.345,13.467-3.806,20.161-13.306,60.952-52.331,95.728-111.769,109.395-7.021,1.615-11.022,4.268-14.24,10.996-19.555,40.882-53.713,63.338-96.746,75.092,0-11.705.119-22.865-.078-34.02-.054-3.054,1.871-3.592,3.874-4.41,13.493-5.51,25.982-12.662,36.844-22.477,20.934-18.917,30.453-43.327,34.076-70.601,1.695-12.76,1.732-25.585,1.527-38.407-.058-3.615.584-5.199,4.711-5.061,9.523.318,19.068.251,28.597.021,3.42-.083,4.374.96,4.324,4.321-.201,13.555.027,27.118-1.564,40.622-.23,1.952-.761,3.969.19,6.365,26.132-7.011,46.897-20.953,59.812-45.302,4.48-8.447,7.387-17.466,9.571-26.778.844-3.596.531-4.87-3.519-4.675-6.402.308-12.831.082-19.248.082-53.905,0-107.809-.096-161.713.146-5.509.025-6.708-1.537-6.419-6.671.453-8.038.409-16.134.008-24.177-.227-4.56,1.028-5.728,5.65-5.714,57.938.174,115.876.107,173.814.118,18.701.003,37.402.05,56.103.077v20.897Z"/>
    <path class="cls-1" d="M1017.035,1428.485c-4.634-.894-8.283-3.016-12.001-4.836-35.869-17.564-63.833-43.766-84.672-77.703-3.301-5.376-3.257-5.393-7.753-.64-36.49,38.571-80.45,64.758-131.423,79.432-4.634,1.334-6.339,1.125-6.041-4.397.485-8.956.358-17.965.027-26.934-.149-4.04,1.332-5.529,5.031-6.796,64.299-22.035,111.956-63.049,141.458-124.58,4.275-8.915,7.417-18.276,10.564-27.643,1.436-4.274.093-4.733-3.747-4.723-44.382.108-88.764-.041-133.144.211-5.421.031-6.792-1.395-6.472-6.622.48-7.853.403-15.77.022-23.633-.234-4.834.917-6.423,6.167-6.403,56.668.216,113.338.135,170.007.135,3.301,0,6.662.4,9.891-.085,6.385-.958,6.16,2.507,5.497,7.018-3.907,26.582-10.989,52.233-22.232,76.678-3.824,8.315-7.942,16.502-12.89,24.201-2.011,3.129-2.134,5.596-.531,8.996,14.919,31.639,38.279,55.603,67.417,74.261,3.734,2.391,5.029,4.899,4.923,9.201-.285,11.51-.097,23.032-.097,34.862Z"/>
    <path class="cls-1" d="M8.956,1426.38c0-11.771.149-22.762-.091-33.744-.072-3.288,1.894-3.879,4.108-4.792,20.367-8.398,38.129-20.271,50.987-38.567,13.822-19.668,19.235-42.069,20.776-65.595.61-9.315.578-18.683.502-28.025-.028-3.453,1.072-4.329,4.401-4.254,9.53.214,19.073.244,28.601-.011,3.615-.097,4.7.944,4.644,4.563-.214,13.924.051,27.871-1.799,41.708-.613,4.589.635,5.223,4.832,3.9,34.791-10.964,56.324-34.054,64.683-69.596,1.115-4.739.764-6.109-4.625-6.067-33.554.264-67.111.133-100.668.133-26.772,0-53.544-.069-80.314.081-3.674.021-5.13-.662-4.984-4.718.323-8.969.306-17.964.004-26.934-.131-3.893,1.017-4.842,4.852-4.82,29.338.165,58.677.09,88.016.09,45.658,0,91.317.102,136.975-.143,5.108-.027,5.953,1.514,5.795,6.093-1.214,35.223-9.289,68.164-32.066,96.102-21.781,26.715-50.833,41.196-83.859,48.708-1.606.365-3.212.967-4.828,1.001-3.892.081-5.545,2.255-7.058,5.624-19.301,42.978-53.957,66.923-98.885,79.263Z"/>
    <path class="cls-1" d="M740.651,1386.873c-16.672-11.323-32.596-22.016-49.226-31.571-11.576-6.651-23.405-12.86-35.039-19.411-2.457-1.383-3.867-1.648-5.663,1.101-30.105,46.069-74.072,72.201-125.814,87.068-8.093,2.325-8.109,2.27-8.109-6.124,0-8.062.196-16.13-.089-24.181-.128-3.61,1.214-4.972,4.528-6.062,31.595-10.398,60.131-25.852,82.814-50.802,4.567-5.023,8.645-10.425,12.734-15.834,2.016-2.667,1.519-3.595-1.418-4.945-23.458-10.786-47.378-20.351-72.275-27.263-4.574-1.27-6.038-3.235-5.815-7.881.395-8.226.108-16.484.112-24.729.003-6.626.014-6.651,6.552-4.685,29.802,8.962,58.877,19.912,87.401,32.307,3.731,1.621,5.098,1.219,6.692-2.581,12.363-29.464,18.825-60.33,22.086-91.942.408-3.955,1.335-5.274,5.45-5.132,9.521.329,19.077.438,28.586-.027,5.24-.257,6.34,1.378,5.76,6.302-4.283,36.338-12.257,71.724-27.138,105.291-2.103,4.744-1.538,6.496,3.171,8.82,21.01,10.371,41.37,21.943,61.119,34.578,2.339,1.496,3.707,2.902,3.663,5.989-.192,13.552-.083,27.108-.083,41.714Z"/>
    <path class="cls-1" d="M1065.783,1304.741c0-39.408.06-78.816-.088-118.223-.016-4.16.82-5.72,5.356-5.547,9.888.378,19.806.292,29.702.028,3.845-.102,4.941,1.01,4.912,4.875-.175,22.91.079,45.825-.218,68.732-.064,4.94,1.213,6.829,6.19,7.835,44.669,9.026,89.12,19.022,133.203,30.628,4.188,1.103,5.436,2.725,5.287,6.964-.347,9.886-.267,19.795-.033,29.688.092,3.915-.842,4.463-4.619,3.442-44.699-12.079-89.684-22.978-134.98-32.616-4.849-1.032-4.986.51-4.976,4.342.099,39.408-.032,78.816.179,118.223.026,4.866-1.19,6.283-6.076,6.069-9.335-.409-18.717-.459-28.046.015-5.177.263-5.91-1.667-5.89-6.233.17-39.407.098-78.815.098-118.223Z"/>
    <path class="cls-1" d="M363.687,1375.501c36.1,0,72.202.161,108.3-.163,5.835-.052,6.976,1.706,6.71,7.01-.439,8.77-.233,17.579-.058,26.367.062,3.114-.43,4.491-4.099,4.486-74.033-.113-148.066-.107-222.099-.012-3.334.004-3.858-1.225-3.811-4.13.155-9.522.292-19.056-.05-28.567-.15-4.186,1.097-5.107,5.157-5.089,36.649.166,73.3.097,109.95.097Z"/>
    <path class="cls-1" d="M362.671,1202.032c28.415,0,56.83.109,85.243-.112,4.488-.035,5.528,1.329,5.384,5.544-.306,8.968-.237,17.956-.021,26.929.083,3.466-.721,4.76-4.503,4.753-57.562-.116-115.125-.113-172.687-.004-3.551.007-4.266-1.218-4.201-4.442.187-9.341.282-18.695-.033-28.029-.138-4.081,1.38-4.734,5.025-4.716,28.597.138,57.195.077,85.793.077Z"/>
  </g>
  <path class="cls-1" d="M1071.008,0c-.158,5.944-.455,11.887-.455,17.831-.023,263.453-.111,526.906.286,790.358.017,11.568-3.615,17.462-13.438,23.002-51.787,29.207-103.333,58.855-154.589,88.984-39.42,23.172-81.588,37.881-126.757,44.313-2.351.335-5.065-.163-5.887,3.056h-83.401c-4.068-5.626-10.742-4.012-16.063-5.006-139.234-26.011-245.177-128.427-274.959-266.21-2.13-9.854-1.478-20.362-6.838-29.467v-77.404c2.715-1.31,2.531-3.911,2.857-6.316,31.172-229.994,270.879-361.971,481.823-265.374,3.826,1.752,7.375,5.49,12.747,3.329V0C947.892,0,1009.45,0,1071.008,0ZM572.497,627.219c.248,88.816,71.12,161.023,157.53,160.498,87.005-.529,156.767-72.404,156.632-161.374-.135-88.936-70.427-160.417-157.505-160.169-87.114.248-156.905,71.994-156.657,161.045Z"/>
</svg>