<?xml version="1.0" encoding="UTF-8"?>
<svg id="_레이어_1" data-name="레이어 1" xmlns="http://www.w3.org/2000/svg" viewBox="0 0 98.352 71.141">
  <defs>
    <style>
      .cls-1 {
        fill: #fff;
      }

      .cls-1, .cls-2 {
        stroke-width: 0px;
      }

      .cls-2 {
        fill: #eee563;
      }
    </style>
  </defs>
  <g id="layer_1" data-name="layer 1">
    <g>
      <path class="cls-1" d="M7.566,25.506c0-3.342,2.267-6.627,6.475-6.627s6.416,3.143,6.49,6.455v.344c-.074,3.309-2.278,6.458-6.49,6.458s-6.475-3.29-6.475-6.63M20.438,0v13.475c-1.821-1.061-4.013-1.696-6.555-1.696C4.823,11.779,0,18.845,0,25.515s4.823,13.718,13.883,13.718c6.813,0,9.361-3.29,14.109-5.472V0h-7.554"/>
      <path class="cls-1" d="M62.671,38.191c-.383-1.449-.762-2.794-1.14-4.034-3.657,1.24-7.997,2.205-15.38,3.308l-.925-4.415c.787-.067,1.785-.239,2.34-.306,2.585-7.832,4.691-16.279,6.242-25.25l4.553.761c-1.622,8.445-3.586,16.071-5.826,23.694,3.307-.594,5.687-1.207,7.654-1.896-.793-2.38-1.757-4.588-2.79-7.037l3.652-1.93c2.102,4.757,3.759,8.588,5.692,15.001l-4.072,2.104ZM36.944,33.606h.378c3.487,0,3.557-.039,3.557-1.83v-4.62c-1.312.378-2.862.756-4.347,1.101l-.932-4.243c1.862-.344,3.694-.826,5.279-1.274v-6.002h-4.414v-4.14h4.414v-5.305h4.099v5.305h3.827v4.14h-3.827v4.623c1.86-.691,3.21-1.309,3.827-1.587v4.173c-.655.345-1.996,1.001-3.827,1.724v6.383c0,4.722-.239,5.756-6.377,5.929l-1.657-4.377Z"/>
      <path class="cls-1" d="M93.664,33.879c0-8.794-1.004-15.589-5.999-23.177h5.201c3.414,5.447,5.486,12.141,5.486,23.177h-4.688ZM85.487,34.051c-1.24.932-4.313,2.864-7.449,2.864-4.52,0-7.996-3.654-7.996-13.863,0-5.002.753-9.937,1.344-13.145h4.688c-.932,4.588-1.479,9.111-1.479,13.662,0,5.411,1.375,8.725,4.028,8.725,2.417,0,5.037-2.103,6.864-3.621v5.378Z"/>
      <path class="cls-2" d="M30.225,62.488c0,4.774-3.872,8.653-8.653,8.653s-8.641-3.879-8.641-8.653,3.882-8.648,8.641-8.648,8.653,3.879,8.653,8.648"/>
      <path class="cls-2" d="M58.53,62.488c0,4.774-3.875,8.653-8.653,8.653s-8.646-3.879-8.646-8.653,3.875-8.648,8.646-8.648,8.653,3.879,8.653,8.648"/>
      <path class="cls-2" d="M86.833,62.488c0,4.774-3.879,8.653-8.65,8.653s-8.659-3.879-8.659-8.653,3.886-8.648,8.659-8.648,8.65,3.879,8.65,8.648"/>
    </g>
  </g>
</svg>