<?xml version="1.0" encoding="utf-8"?>
<!-- Generator: Adobe Illustrator 28.1.0, SVG Export Plug-In . SVG Version: 6.00 Build 0)  -->
<svg version="1.1" id="레이어_1" xmlns="http://www.w3.org/2000/svg" xmlns:xlink="http://www.w3.org/1999/xlink" x="0px"
	 y="0px" viewBox="0 0 777.4 582.2" style="enable-background:new 0 0 777.4 582.2;" xml:space="preserve">
<style type="text/css">
	.st0{fill-rule:evenodd;clip-rule:evenodd;fill:#FEFEFE;}
</style>
<g>
	<path class="st0" d="M680.6,353.6c1.6-13.3-4.3-23-15-30c-5.9-3.9-12.2-7.2-18.6-10.3c-27.7-13.4-55.6-26.4-83.1-40
		c-17.1-8.5-33.8-8.1-50.6,0.3c-10,5-19.2,11.3-27.9,18.4c-28.8,23.5-57.7,47.1-86.5,70.6c-2.8,2.3-5.7,4.4-8.6,6.7
		c-2.8-2.7-1.6-5.6-1.6-8c-0.1-44.7,0.1-89.3-0.2-134c0-6.5,1.9-10.6,6.9-14.5c9.1-7,18-14.4,26.4-22.2
		c31.2-28.9,67.5-34.9,107.6-24.4c12.8,3.3,25.1,8.1,37,13.8c68.2,32.1,136.4,64.3,204.6,96.2c6.9,3.2,9.3,4.7,1.8,10.6
		c-30.1,23.6-59.7,47.7-89.5,71.6C679.5,358.3,679.7,356.1,680.6,353.6z"/>
	<path class="st0" d="M484,507.7c-4.9,0.3-9.8,0.3-14.7,0.9c-18.3,2.2-35.8-1-52.6-8.1c-10-4.2-19.5-9.4-29.6-13.2
		c-7.8-2.9-9.4-7.5-9.3-15.2c1.4-130,2.4-260,3.9-389.9c0.1-8.9-2.7-12.9-10.6-16.6c-44-20.1-87.7-40.8-131.5-61.3
		c-2.9-1.4-5.9-2.6-9.9-4.3c18,60.3,6.6,120.8,8.5,180.8c-4.4-6.4-7.4-13.1-11-19.4c-6.7-11.6-15.1-21.4-27.7-27.3
		C162.6,117,126,99.7,89.2,82.6c-10.8-5-22-8.8-33.9-10c-19.1-1.9-33.7,5.8-42.7,22.9C6.1,108,3,121.6,2.5,135.5
		c-2,56.5-3.4,113.1-1.7,169.6c1.7,55,22.5,101.5,72.4,129.4c43.7,24.4,90.2,43.3,135.6,64.5c8.5,3.9,15.9,1.6,21.5-6
		c3.1-4.2,5.9-8.6,9.6-14.1c3.9,11.1,4.9,21.2,6.4,31.1c0.8,5.2,2.8,8.3,7.8,10.6c42.9,19.9,85.8,40,128.5,60.4
		c5.4,2.6,8.5,1,12.5-2.1c24.6-19.1,49.3-38.1,73.9-57.1c5.2-4,10.4-8.1,15.6-12.2L484,507.7L484,507.7z M237.8,322.9
		c0,4.7-2.8,7.3-5.5,10.4c-20.6,23.7-35.8,50-39,81.9c-0.6,5.7-3,4.8-6.5,3.1c-7-3.3-13.9-7.1-21.1-9.8
		c-18.2-6.8-24.8-20.5-24.7-38.9c0.2-27.1,1.6-133.3,1.7-159.3c0-3.4-0.1-6.8,0.3-10.1c1.5-14.9,7.2-18.3,20.9-12
		c18.1,8.3,36,17,54.2,25.3c13.2,6,19.8,16.4,19.9,30.4C238.2,270.2,237.7,296.5,237.8,322.9L237.8,322.9z"/>
</g>
</svg>
