<?xml version="1.0" encoding="UTF-8"?>
<svg id="Layer_1" data-name="Layer 1" xmlns="http://www.w3.org/2000/svg" version="1.1" xmlns:inkscape="http://www.inkscape.org/namespaces/inkscape" xmlns:sodipodi="http://sodipodi.sourceforge.net/DTD/sodipodi-0.dtd" xmlns:svg="http://www.w3.org/2000/svg" viewBox="0 0 277.7 277.7">
  <defs>
    <style>
      .cls-1 {
        fill: #fff;
        fill-rule: evenodd;
        stroke-width: 0px;
      }
    </style>
  </defs>
  <path id="path2" class="cls-1" d="M232.9,42.4c2.6-14.9,6.3-24.3,10.5-24.3h0c7.8,0,14.1,32.5,14.1,72.6s-6.3,72.6-14.1,72.6-6.1-5.5-8.5-14.8c-3.8,33.9-11.5,57.1-20.6,57.1s-13.2-14-17.4-36c-2.9,41.9-10.1,71.7-18.5,71.7s-10.1-11.8-13.7-31c-4.3,39.6-14.2,67.4-25.8,67.4s-21.5-27.8-25.8-67.4c-3.5,19.2-8.4,31-13.7,31-8.4,0-15.6-29.7-18.5-71.7-4.2,22-10.4,36-17.4,36s-16.8-23.3-20.6-57.1c-2.4,9.3-5.3,14.8-8.5,14.8-7.8,0-14.1-32.5-14.1-72.6s6.3-72.6,14.1-72.6,7.9,9.4,10.5,24.3C49,16.7,55.7,0,63.4,0s16.9,23.6,20.6,57.9c3.6-24.9,9.2-40.8,15.3-40.8s16,31.3,18.8,74.9c5.1-22.4,12.6-36.4,20.8-36.4s15.6,14,20.8,36.4c2.7-43.6,10.1-74.9,18.8-74.9s11.7,15.9,15.3,40.8c3.7-34.3,11.6-57.9,20.6-57.9s14.4,16.7,18.5,42.4ZM0,83.5c0-17.9,3.6-32.5,8-32.5s8,14.5,8,32.5-3.6,32.5-8,32.5S0,101.5,0,83.5ZM261.7,83.5c0-17.9,3.6-32.5,8-32.5s8,14.5,8,32.5-3.6,32.5-8,32.5-8-14.5-8-32.5Z"/>
</svg>