<?xml version="1.0" encoding="utf-8"?>
<!-- Generator: Adobe Illustrator 28.1.0, SVG Export Plug-In . SVG Version: 6.00 Build 0)  -->
<svg version="1.1" id="Layer_1" xmlns="http://www.w3.org/2000/svg" xmlns:xlink="http://www.w3.org/1999/xlink" x="0px" y="0px"
	 viewBox="0 0 195.5 195.6" style="enable-background:new 0 0 195.5 195.6;" xml:space="preserve">
<style type="text/css">
	.st0{fill:#ED1C24;}
	.st1{fill:#EDE6CA;}
</style>
<g id="Layer_1_00000041290065268955031760000004908605694924825523_">
	<path class="st0" d="M179.7,113.6l15.8-15.8L179.7,82c-3.5,0.5-7.1-0.7-9.6-3.2l-53.3-53.4c-2.5-2.5-3.7-6.1-3.2-9.6L97.8,0
		L82,15.9c0.5,3.5-0.7,7.1-3.2,9.6L25.4,78.8c-2.5,2.5-6.1,3.7-9.6,3.2L0,97.8l15.9,15.8c3.5-0.5,7.1,0.7,9.6,3.2l53.3,53.3
		c2.5,2.5,3.7,6.1,3.2,9.6l15.8,15.9l15.8-15.8c-0.5-3.5,0.7-7.1,3.2-9.6l53.3-53.3C172.7,114.3,176.2,113.1,179.7,113.6z"/>
	<path d="M88.3,113.9v40.5c0,1.1-12.3,8.3-12.3,8.3h43.4c0,0-9.6-7.2-9.6-8.3c0,0,0-39.8,0-41.4v-7.6c0-0.6,3.7-3.8,7.4-6.4l0.3-0.2
		l-0.3-0.2c-3.6-2.7-7.3-5.8-7.3-6.4c0-0.4,0.1-10.1,0.1-10.1c0-1.4,0-39.7,0-39.8c0-1.1,9.5-8.3,9.5-8.3H76.1
		c0,0,12.2,7.2,12.2,8.3c0,0,0,37.8,0,38.6c0,0,0.1,10.8,0.1,11.3s-7.6,6.5-7.6,6.5s7.6,6,7.6,6.6C88.4,105.4,88.3,113.9,88.3,113.9
		z"/>
	<path class="st1" d="M163.2,86.3c-0.2-0.5-0.4-1-0.7-1.4l0,0c0,0-3-8.7-17-20.4c-5.9-5-12.6-9-19.8-11.8c-9.2-4-20.1-5.6-37.5-5.6
		l-51.5-0.2H36l0.5,0.4c0.1,0.1,10.8,7.6,15,10.6c0.1,7.1,0,77.7,0,81l-15.7,9.6l61,0.1c17,0,29.3-4.2,39.7-13.7
		c7.8-6.7,13.3-15.7,15.5-25.8c0.4-1.6,0.6-3.3,0.8-5c0.1-1.5,0.2-3,0.2-4.5c0-9.1-2.7-18-7.8-25.6v-0.1c0.1,0,0.2,0.1,0.3,0.1
		c1.5,0.7,3,1.4,4.4,2.3l0.3,0.2c0.9,0.5,1.7,1.1,2.6,1.7c3.6,2.5,6.9,5.3,10,8.4l0.6,0.7L163.2,86.3z M91.1,138.3
		c-5.5,0-10.6,0-13.3,0H76c-1.1,0-1.3,0-1.3-1.7c0-1.1,0.1-73.4,0.1-77.4c2-0.3,23.6-1.3,34,3.6c4.4,1.9,8.4,4.9,11.4,8.6
		c4.6,5.6,6.9,13,6.9,22c0,25.7-10.4,36.6-19.9,41.9C103.1,137.5,96,138.3,91.1,138.3L91.1,138.3z"/>
</g>
</svg>
