<?xml version="1.0" encoding="utf-8"?>
<!-- Generator: Adobe Illustrator 28.1.0, SVG Export Plug-In . SVG Version: 6.00 Build 0)  -->
<svg version="1.1" id="DII_Icon" xmlns="http://www.w3.org/2000/svg" xmlns:xlink="http://www.w3.org/1999/xlink" x="0px" y="0px"
	 viewBox="0 0 447.6 382.4" style="enable-background:new 0 0 447.6 382.4;" xml:space="preserve">
<style type="text/css">
	.st0{fill:#FFCB05;}
	.st1{fill:#540000;}
	.st2{fill:#FFFFFF;}
</style>
<path class="st0" d="M440.4,4.7c1.8,9.2,1.7,16.4-8.2,20.7c-5.1,2.2,0.5,9.9-6.2,13c-7.9,3.6-10.6-16.1-10.6-16.1
	c-6.6,9-4.2,14.6-1.4,22.4c1.1,2.9,2.4,7-2.4,11c-3.5,3-11.9,6.4-20.4-0.6c-4.5-3.7-8.3-13.9-4.4-17.8c7.1-7.3,1.7-18.3,1.7-18.3
	c-0.1,7.6-4.4,11.3-10.1,13c-3.6,1.1-6.2,4.7-4,13.5s2.2,17-3.7,16c-10.2-1.7-3.8-16.7-8.7-19.8c-3.2-2-7.8,2.9-11.1,1.6
	s-4.4-4.7-2.9-10.4s0.2-14.2-2.7-17.4c-6.3-6.8,0.1-15.2,0.4-15.5c-11.7,5.4-6.6,12.2-9.7,24.9c-2.8,11.4-10.6,6.1-13.9,19.8
	s1.6,10.4,8.2,11.9s6.4,7,6.9,13s7.3,5.1,8,10.2s-4.4,9.8-8.6,10.2s-13.1-6.6-13.8-12.4s-6.3-9.9-13.2-11.1
	c-10.1-1.7-11.5-17.1-11.5-17.1c-0.8,6.4-6,16.9,3.8,26.2c3.9,3.4,4.8,9,2.3,13.5c-2.9,4.9-13.8-0.7-17.1-4s-8-1.1-12.4,3.3
	c-3.9,3.9-6.3-8.2-4-14.2c4-10.2-9.2-21.1-9.2-21.1c0.3,2.3,6,9.8-5.1,18.6c-6.7,5.4-0.2,10.8,0.5,20.5s-8.4,3.9-8.4,13.9
	c0,9,17.1,15.1,8.2,21.8c-5.4,4-16.2,0.9-17.1-7.8c-0.6-6.1-4.1-8.2-9-12.2c-10.4-8.2,8.2-30.3,8.6-30.8
	c-23.3,12.4-25.3,18.2-22.2,33.5c2.1,10.5-5.6,17.1-12.4,12.2c-3.7-2.7-6-7.2-3.5-14.6c2.6-7.9-2.4-20,6.4-28.2
	c12.2-11.6,5.5-28.8-10-36.2c-9.1-4.4-9.3-19.2-9.3-19.2c-12.9,20.4,2.5,28.4,2.9,38.8c0.7,19.9-15.2,27.1-15.2,27.1
	c0-1.8,7.9-10.9-0.3-19.4c-3.1-3.1-8.4-6.2-4.9-13.1c4.3-8.5-5.3-20.8-5.3-20.8c0.3,7.9,2.2,17.1-6.4,21.2c-5.9,2.9,0,13.8-2.4,17.7
	s-8.1,8.4-15.4,4.4c-8.6-4.8-3.2-15.2,0.4-20.2c5.6-7.9-2.4-20.1-2.9-20.8c0.1,0.6,1.6,7.7-6.3,13.8c-10.3,8-8,16.9-8.2,20.5
	s-2.8,11.1-7.6,11.4c-4.5,0.3-6.2-7.4-0.3-14.7c2.7-3.3,0-19.4,0-19.4c-1.4,4.6-2.6,8-8.9,10.5c-5.9,2.4-6.5,14.3-6.5,14.3
	s0.3-6.4-5.4-9.6c-9.2-5-4.2-16.8-4-17.2c-13.2,5.3-6.8,17-9.2,19.2c-2.9,2.7-7.5,0.9-12.9-4s-5.3-12.7-1.8-18.6
	c3.5-6,12.3-4.8,17.7-9.5s4.4-10.9,0.9-16.8C83,14.4,90.2,5,90.2,5c-8.9-0.3-14.3,4.3-15,14.4c-0.4,6.8-4.6,7.9-9.3,7.2
	c-11.7-1.8-5.8-15.5-5.8-15.5s-11.6,0.7-11.2,16.2c0.1,6.4-3.4,10-11.7,11.1s-10.2-10.6-6.2-15.6s1.8-13.2,1.8-13.2s-2,4.2-8.4,8.2
	s-5.7,5.8-6.8,11.1c-1.1,5.3,2.1,13.9-2.9,13.7c-10.9-0.4-4.5-23.4-4.5-23.4c-6.9,6.4-16.7,19.1-4,40.1C10.5,66.5,15.7,73,34,95.5
	l0,0c6.8,8.4,15.3,14.6,20,18.1s22.6,26.4,25,29.7s8.8,13.8,5.9,19.6c-2.9,5.8-0.1,169.7-1.4,174.6c-1,3.9-8.6,13.6-15.2,22.3l0,0
	c-3,4-5.9,7.7-7.9,10.6c-2.2,3.2-3.3,5.3-2.2,5.3c4.2-0.2,17.7,3.1,29.3,0.7c2.4-0.5,17.3-0.7,39.5-0.7c5,0,10.4,0,16,0
	c90.4,0.2,259.2,2.4,263,0.6c3.3-1.6,0.3-4.1-3.5-6.5c-3.4-2.1-7.5-4.2-8.6-5.5c-2.4-2.9-17.6-21-23-22.5
	c-7.5-2.1-0.1-172.8-0.3-183.2c-0.1-4,2.4-10.2,4-14.6s37.2-42.5,43.5-50c3.9-4.7,8.4-8.7,12.1-13.9c0,0,0.1-0.1,0.1-0.1
	c2.4-3.4,4.2-7.3,5.3-11.4c2.8-10.7-4.3-16.1,9.5-36.3C453.1,20.3,440.4,4.7,440.4,4.7z M209.8,175.8c21.9,0,33.2,6.3,38.8,11.6
	c12.4,11.8,12.8,35.3,13.1,49.3c0,1.1,0,2.2,0.1,3.2c0.3,12-2.3,36.6-13.7,52.8c-10.3,14.6-18.6,14.6-21.3,14.6h-23.5
	c0-11.3-0.2-120.8-0.2-131.6c1.3,0,2.8,0,4.2,0L209.8,175.8L209.8,175.8z"/>
<path class="st1" d="M31.3,70.8c-0.4-0.7-0.2-1.7,0.6-2.1c0.6-0.4,1.4-0.3,1.9,0.2c10.4,10.2,32,27.9,61.6,35.1
	c42.7,10.3,90.5,4.3,90.5,4.3s3.2-0.6,0.8,1.7s-14.1,11.6-18.4,18.1c-4.3,6.5-10,12.5-10,47.5s-0.3,132.6-0.3,139.6
	s0.3,31.5,12.8,40.3c12,8.5,20.5,9.8,21.2,9.8h0.1c0.6,0.1,6.2,1.4,7.2,3.6c0,0,1,1.5-2.6,1.5H52c-0.2,0-0.4,0-0.5-0.1
	c-0.6-0.2-1.8-0.8-1.7-1.7c0.1-1.2,4-2.6,9.2-4.4c8.3-3,15.8-7.8,22-14c7.6-7.8,9.3-10.2,9.3-26.5V163.8c0-7.9-0.6-15.7-6.6-25.8
	c-6.1-10.1-9.3-15.5-24.2-31.3C48.6,95.3,37.4,80.9,31.3,70.8z"/>
<path class="st0" d="M379.5,144.2l0.2-0.4c5.7-9.5,8.6-14.2,22.5-28.9c11.2-11.9,22.9-26.7,29.7-37.9c3.9-6.4,1.8-14.7-4.6-18.6
	c-5.3-3.2-12.1-2.4-16.5,1.9c-9.4,9.2-29.1,25.5-56,32c-15.7,3.8-34,5.7-54.5,5.7c-10.6,0-21.1-0.5-31.6-1.6
	c-0.8-0.1-1.6-0.2-2.4-0.2c-5.2-0.1-10,3-12,7.8c-0.8,1.9-2.7,8.4,3.6,14.6c0.8,0.8,2,1.8,3.6,3.2c3.2,2.8,10.9,9.4,13.2,12.9
	c0.3,0.5,0.6,0.9,0.9,1.4c3.3,4.9,7.1,10.4,7.1,39.5c0,24.3,0.1,79.1,0.2,111.9c0,14.8,0.1,25.5,0.1,27.7c0,18.5-4,27.9-7.7,30.5
	c-8.6,6.1-14.7,7.5-15.7,7.7l-0.7,0l-0.2,0.1c-3.4,0.6-6.7,1.8-9.6,3.6c-29.2-1.6-50.8-2.8-54.6-3.6c-0.3-0.1-0.6-0.1-1-0.2
	s-6.7-1.2-15.8-7.7c-3.7-2.6-7.7-12.1-7.7-30.5c0-2.1,0-12.8,0.1-27.7c0.1-32.8,0.2-87.6,0.2-111.9c0-29.1,3.8-34.7,7.1-39.5
	c0.3-0.5,0.6-0.9,0.9-1.4c2.4-3.6,16-15.3,16.8-16.1c6.3-6.2,4.3-12.7,3.6-14.6c-2-4.8-6.8-7.9-12-7.8c-0.8,0-1.6,0.1-2.4,0.2
	c-10.5,1.1-21,1.6-31.6,1.6c-20.4,0-38.8-1.9-54.5-5.7c-26.9-6.5-46.6-22.8-56-32c-2.5-2.5-5.9-3.9-9.5-3.9l0,0
	c-7.5,0-13.6,6.1-13.6,13.6c0,2.5,0.7,4.9,2,7c6.8,11.2,18.5,26.1,29.7,37.9c13.9,14.7,16.7,19.4,22.4,28.9l0.2,0.4
	c4.6,7.6,4.9,12.9,4.9,19.6v159.9c0,4.4-0.1,9.8-1,12.2c-0.5,1.2-1.5,2.5-4.8,5.9c-5,4.9-10.9,8.7-17.5,11.1
	c-3.1,1.1-5.4,1.9-7.4,2.8c-5.9,2.6-9.2,6.5-9.7,11.6c-0.7,6.2,3.1,12,9.5,14.3c1.5,0.5,3.1,0.8,4.6,0.8h350.6l1.5-0.4
	c7.1-1.9,11.5-7.9,10.8-14.7c-0.6-5.1-3.8-9-9.7-11.6c-2-0.9-4.3-1.7-7.4-2.8c-6.5-2.4-12.5-6.2-17.5-11.1c-3.3-3.4-4.4-4.6-4.8-5.9
	c-0.9-2.4-1-7.7-1-12.2V163.8C374.6,157.1,374.9,151.8,379.5,144.2z M196.5,370.4H52c-0.2,0-0.4,0-0.5-0.1c-0.6-0.2-1.8-0.8-1.7-1.7
	c0.1-1.2,4-2.6,9.2-4.4c8.3-3,15.8-7.8,22-14c7.6-7.8,9.3-10.2,9.3-26.5v-160c0-7.9-0.6-15.7-6.6-25.8c-6.1-10.1-9.3-15.5-24.2-31.3
	c-10.8-11.4-22-25.8-28.1-35.9c-0.4-0.7-0.2-1.7,0.5-2.2c0.2-0.1,0.5-0.2,0.8-0.2c0.4,0,0.8,0.2,1.1,0.5C44,79,65.6,96.8,95.2,103.9
	c19.8,4.7,40.6,6,57.3,6c11.1,0.1,22.2-0.5,33.3-1.7c0.2,0,0.5-0.1,0.7-0.1c0.8,0,1.7,0.3,0.1,1.8c-2.4,2.3-14.1,11.6-18.4,18.1
	c-4.3,6.5-10,12.5-10,47.5s-0.3,132.6-0.3,139.6s0.3,31.5,12.8,40.3c12,8.5,20.5,9.8,21.2,9.8h0.1c0.6,0.1,6.2,1.4,7.2,3.6
	C199.1,368.9,200.1,370.4,196.5,370.4L196.5,370.4z M371.9,350.2c6.2,6.2,13.7,11,22,14c5.1,1.8,9,3.2,9.1,4.4s-1.9,1.8-1.9,1.8
	h-86.5c0.2-2.4-0.2-4.7-1.3-6.8c-0.9-1.8-16.4-3.4-36.2-4.8c1.6-1,3.4-2.1,5.2-3.4c12.5-8.9,12.8-33.4,12.8-40.3
	s-0.3-104.5-0.3-139.6s-5.7-41-10-47.5c-4.3-6.5-16.1-15.8-18.4-18.1c-1.6-1.5-0.7-1.8,0.1-1.8c0.2,0,0.5,0,0.7,0.1
	c11,1.2,22.1,1.8,33.2,1.7c16.7,0,37.5-1.3,57.3-6c29.6-7.1,51.2-24.9,61.6-35.1c0.3-0.3,0.7-0.5,1.1-0.5c0.9,0,1.6,0.7,1.6,1.6
	c0,0.3-0.1,0.6-0.2,0.8c-6.2,10.1-17.3,24.5-28.1,35.9c-15,15.8-18.1,21.2-24.2,31.3c-6.1,10.1-6.7,17.9-6.7,25.8v159.9
	C362.6,339.9,364.2,342.4,371.9,350.2z"/>
<path class="st1" d="M421.6,70.8c0.4-0.7,0.2-1.7-0.6-2.1c-0.6-0.4-1.4-0.3-1.9,0.2c-10.4,10.2-32,27.9-61.6,35.1
	c-42.7,10.3-90.5,4.3-90.5,4.3s-3.2-0.6-0.8,1.7s14.1,11.6,18.4,18.1c4.3,6.5,10,12.5,10,47.5s0.3,132.6,0.3,139.6
	s-0.3,31.5-12.8,40.3s-21.2,9.8-21.2,9.8s-6.2,1.2-7.2,3.6c0,0-1,1.5,2.6,1.5h144.6c0,0,2.1-0.6,1.9-1.8s-4-2.6-9.1-4.4
	c-8.3-3-15.8-7.8-22-14c-7.6-7.8-9.3-10.2-9.3-26.5v-160c0-7.9,0.6-15.7,6.7-25.8c6.1-10.1,9.3-15.5,24.2-31.3
	C404.3,95.3,415.4,80.9,421.6,70.8z"/>
<path d="M294.6,179.1c-1.3-2.2-2.8-4.4-4.3-6.5c-2.5-3.3-5.1-6.5-7.9-9.6c-12.2-13.2-28.8-23.5-63.2-23.5h-68.9
	c-3.2,0-5.9,2.6-5.9,5.9v4c0,3,2.3,5.6,5.3,5.8c3.1,0.3,7.1,1.3,9.1,3.2c0.2,0.2,0.5,0.5,0.6,0.8c2.4,3.8,3.1,5.3,3.1,16v132.1
	c0,0.1,0.4,7.2-4.6,11.1l-0.2,0.2c-19.8,14.9-26.4,37.3-28.5,49.4c-0.1,0.8-0.1,1.6,0.1,2.4c0.2,0.9,0.6,1.7,1.2,2.4
	c2.1,2.5,5.8,2.8,8.3,0.7c0.4-0.3,0.8-0.7,1.1-1.1c0.4-0.6,0.9-1.3,1.4-2c4.2-5.7,11.4-14.1,20.4-18.7c1.3-0.6,2.6-1.2,3.8-1.7
	c4.3-1.7,8.8-2.9,13.4-3.5c2-0.3,4.1-0.4,6.2-0.4c0.6,0,1,0,1.2,0h47c9.2,0,23.5-1.8,41.2-17.1c3-2.6,5.8-5.5,8.3-8.7
	c4.8-6.1,8.9-12.7,12.1-19.7c7.9-17.3,12-36,12-55C306.9,217.7,304.7,196.3,294.6,179.1z M199.1,311.6c-0.3-1.1-0.4-2.3-0.3-3.4
	c0-5.5-0.2-131.9-0.2-133.2c0-1.1,0-2.2,0.2-3.3c1.3-0.4,5-0.4,8.5-0.4h2.6c23.4,0,35.7,7,41.9,12.9c13.8,13.1,14.2,37.8,14.5,52.5
	c0,1.1,0,2.2,0.1,3.2c0.3,12.5-2.4,38.4-14.5,55.5c-11.7,16.6-21.7,16.6-25,16.6h-25.1C200.8,312,199.9,311.9,199.1,311.6z"/>
<path class="st2" d="M294.6,170.9c-0.2-0.3-0.5-0.6-0.7-1c-3.6-4.9-7.6-9.5-12-13.8c-12.5-11.9-30.2-21.1-62.7-21.1h-68.9
	c-5.7,0-10.4,4.6-10.4,10.4v4c0,5.4,4.1,9.8,9.4,10.3c3.6,0.3,5.9,1.4,6.4,1.9c1.9,2.9,2.4,3.8,2.4,13.6v132.3v0.1
	c0,0.5,0,1-0.1,1.5c-0.2,1.7-0.9,4.4-2.9,5.9c-21.1,15.8-28,39.5-30.2,52.2c-0.2,1-0.2,2.1-0.1,3.1c0.2,1.9,1,3.7,2.2,5.2l0.1,0.1
	c3.7,4.4,10.2,5,14.6,1.3c0.5-0.4,0.9-0.9,1.4-1.4c0.2-0.2,0.4-0.4,0.5-0.7c0.9-1.3,2.1-2.9,3.4-4.6c4-5,9.9-11.1,16.8-14.6
	c1.6-0.8,3.2-1.5,4.8-2.1c5.3-1.9,10.9-3,16.5-3.1h0.9h0.6h46.8c9.9,0,25.3-1.9,44.1-18.2c1.6-1.4,3.2-2.9,4.7-4.5
	c4.9-5.3,9.2-11.2,12.8-17.5c10.3-18.2,16.5-41.6,16.5-64.7C311.4,213.6,308.6,189.9,294.6,170.9z M282.9,312.6
	c-3.2,4.8-7,9.2-11.4,13c-17.3,15-30.7,16-38.3,16h-46.9c-0.1,0-0.6,0-1.3,0c-3.4,0-6.8,0.4-10.1,1c-4,0.7-7.9,1.9-11.7,3.5
	c-1.2,0.5-2.4,1-3.6,1.7c-10.9,5.5-19.2,15.9-23.5,22.1c-0.2,0.3-0.5,0.5-0.9,0.6H135h-0.3c-0.7-0.1-1.2-0.8-1.1-1.5c0,0,0,0,0,0
	c1.9-10.5,7.5-30.8,24.5-44.8c0.7-0.6,1.4-1.2,2.2-1.8c7.3-5.5,6.6-15.2,6.6-15.2V175.2c0-11.2-0.8-13.7-3.8-18.5
	c-1-1.5-2.4-2.7-4-3.5c-2.9-1.4-6-2.3-9.2-2.5c-0.7-0.1-1.2-0.7-1.2-1.4v-4c0-0.8,0.6-1.4,1.4-1.4l0,0h68.9
	c36.6,0,51.9,12.2,63.5,26.1c1.4,1.7,2.8,3.5,4.1,5.2c3.3,4.3,5.9,8.9,8,13.9c5.9,14.1,7.7,31.9,7.7,56.4c0,14.7-2.6,29.3-7.5,43.2
	C291.9,297.2,287.9,305.2,282.9,312.6z M254.8,180.9c-14.1-13.4-36.4-14.1-45-14.1h-2.6c-11.8,0-13.2,0-13.2,8.2
	c0,0,0.2,127.6,0.2,133.2s1,8.2,7.4,8.2h25.1c4.8,0,16.1-0.6,28.7-18.5s15.7-44,15.3-58.2S271.1,196.3,254.8,180.9z M226.7,307.4
	h-23.5c0-11.3-0.2-120.8-0.2-131.6c1.3,0,2.8,0,4.2,0h2.6c21.9,0,33.2,6.3,38.8,11.6c12.4,11.8,12.8,35.2,13.1,49.3
	c0,1.1,0,2.2,0.1,3.2c0.3,12-2.3,36.6-13.7,52.8C237.7,307.4,229.5,307.4,226.7,307.4z M270.7,239.7c-0.3-14.2,0.4-43.4-15.9-58.9
	c-14.1-13.4-36.4-14.1-45-14.1h-2.6c-11.8,0-13.2,0-13.2,8.2c0,0,0.2,127.6,0.2,133.2s1,8.2,7.4,8.2h25.1c4.8,0,16.1-0.6,28.7-18.5
	S271.1,253.9,270.7,239.7z M226.7,307.4h-23.5c0-11.3-0.2-120.8-0.2-131.6c1.3,0,2.8,0,4.2,0h2.6c21.9,0,33.2,6.3,38.8,11.6
	c12.4,11.8,12.8,35.2,13.1,49.3c0,1.1,0,2.2,0.1,3.2c0.3,12-2.3,36.6-13.7,52.8C237.7,307.4,229.5,307.4,226.7,307.4z M282.9,312.6
	c-3.2,4.8-7,9.2-11.4,13c-17.3,15-30.7,16-38.3,16h-46.9c-0.1,0-0.6,0-1.3,0c-3.4,0-6.8,0.4-10.1,1c0.7,1.2,1.6,2.2,2.6,3.1
	c0.4,0.3,0.9,0.6,1.3,0.9c2-0.3,4.1-0.4,6.2-0.4c0.6,0,1,0,1.2,0h47c9.2,0,23.5-1.8,41.2-17.1c3-2.6,5.8-5.5,8.3-8.7
	c0.1-1.7,0.1-3.4,0.1-5.2C282.9,314.7,282.9,313.8,282.9,312.6L282.9,312.6z M201.6,316.4h25.1c4.8,0,16.1-0.6,28.7-18.5
	s15.7-44,15.3-58.2s0.4-43.4-15.9-58.9c-14.1-13.4-36.4-14.1-45-14.1h-2.6c-11.8,0-13.2,0-13.2,8.2c0,0,0.2,127.6,0.2,133.2
	S195.2,316.4,201.6,316.4L201.6,316.4z M208.3,175.8h1.5c21.9,0,33.2,6.3,38.8,11.6c12.4,11.8,12.8,35.3,13.1,49.3
	c0,1.1,0,2.2,0.1,3.2c0.3,12-2.3,36.6-13.7,52.8c-10.3,14.6-18.6,14.6-21.3,14.6h-23.5c0-11.3-0.2-120.8-0.2-131.6
	c1.3,0,2.8,0,4.2,0L208.3,175.8z M167,175.2c0-11.2-0.8-13.7-3.8-18.5c-1-1.5-2.4-2.7-4-3.5c-0.2,1.6-0.3,3.3-0.5,5.1
	c-0.4,4.8-0.6,10.4-0.6,17.1c0,22.5-0.1,70.6-0.2,104.1v27.9v0.1c0,0.5,0,1-0.1,1.5c0,3.1,0,5.1,0,5.9s0,2,0,3.4
	c0,1.6,0.1,3.5,0.3,5.5c0.7-0.6,1.4-1.2,2.2-1.8c7.3-5.5,6.6-15.2,6.6-15.2L167,175.2z"/>
</svg>
