<?xml version="1.0" encoding="utf-8"?>
<!-- Generator: Adobe Illustrator 28.1.0, SVG Export Plug-In . SVG Version: 6.00 Build 0)  -->
<svg version="1.1" id="diablo_4" xmlns="http://www.w3.org/2000/svg" xmlns:xlink="http://www.w3.org/1999/xlink" x="0px" y="0px"
	 viewBox="0 0 33.3 32.8" style="enable-background:new 0 0 33.3 32.8;" xml:space="preserve">
<style type="text/css">
	.st0{fill:#EBE9E8;}
	.st1{fill:#DD0707;}
</style>
<path class="st0" d="M12.8,8.7c1.2,0,5.3,0,8.8,0c1.5,0,2.8,0.2,3.7,0.2c0.3,0,0.3,0.2,0.2,0.3c-0.2,0.2-0.5,0.3-0.8,0.7
	c-0.3,0.3-0.2,0.8,0,1.2c0.2,0.5,0.8,2.5,1.3,3.7l0,0c-0.2,0.2-0.3,1-0.5,1.3c-0.2,0.3-0.3,1.8-0.7,2.8c-0.3,1-1.2,2.7-2.5,4
	c-1.3,1.2-3.2,2-4.8,2.3c-1.5,0.3-5.2,0.5-6.8,0.5c-0.2,0-0.2,0-0.3-0.2c0,0-0.2-0.2-0.3-0.2c-0.2,0-0.2,0.2-0.3,0.3
	c-0.3,0-1.7,0.2-2.2,0.2s-2.3,0-2.8,0c0.2-0.2,0.3-0.3,1-0.8c0.5-0.5,2.7-1,3.3-1c0.3-0.2,0.3-0.3,0.3-0.5c0-0.2,0-0.7-0.2-0.8
	C9,22.5,9,22,9,21.7s0-2.3,0-2.7c0-0.3,0.2-0.5,0.3-0.7c0.2-0.2,0-0.3-0.2-0.5C9,17.8,9,17.7,9,17.5c0-0.2,0-2.7,0-3.2
	c0-0.5,0.8-1.3,1.3-1.8c-0.2,0-0.5-0.2-0.8-0.2c-0.3,0-0.5,0-1-0.2C8,12,6.7,11,5.8,10.5C5.2,10,4,9.2,3.8,9C3.7,9,3.5,8.7,3.5,8.7
	C4.7,8.5,11,8.7,12.8,8.7z M11.7,10.3c0.3,0.3,1.3,1.3,1.7,1.5c0.3,0.2,0.7,0.8,0.7,1c-0.3,0-1.2,0-1.3,0c-0.2,0-0.3,0-0.3,0.2
	c0,0.5,0.2,3.5,0.2,3.8c0,0.2,0,0.3,0.2,0.5c0.2,0.2,0.8,0.8,0.8,1c-0.2,0.2-0.7,0.7-0.8,0.8c-0.2,0.2-0.2,0.2-0.2,0.5
	c0,0.3,0,1.8,0,2c0,0.3,0.2,1.3,0,1.5c0.7,0,2.7,0,3.7,0s2.2-0.5,3-1.3c1-1,1.2-2.5,1.3-3.5c0.2-0.7,0-1,0.3-1.8c0-0.7,0-1.5,0-1.7
	c0-0.2,0-0.8-0.2-1.2c-0.2-0.3-0.2-1.3-0.8-1.8c0.5,0,0.7-0.3,0.8-0.3c0.2-0.2,0.3-0.3,0-0.3c-0.8-0.3-3-0.5-4.3-0.7
	C15,10.3,12.5,10.3,11.7,10.3z"/>
<path class="st1" d="M3.2,5L0,3.5h0.2c0,0,2.8-0.2,3.3-0.2s0.7,0,0.7,0l0.5,0.2H6h0.7c0,0,0.3,0,0.5,0.2c0.2,0,1.7,0,1.7,0h0.5H10
	c0.2,0,0.3,0,0.3,0h0.5h0.7h0.2c0,0-1,0.8-1.2,1l-0.2,0.2L9.8,5.3L9.3,6.2c0,0,0,0.2,0,0.3c0,0,0,0.5,0,1c-1.5,0-3,0-4.2,0
	c-0.2,0-0.2,0-0.3,0c0-0.2,0-0.5,0-0.5s0,0,0-0.2L4.7,6.3V6.2L4,5.3L3.5,5C3.5,5,3.3,5,3.2,5z M8,13.3C7.3,13,5.8,12,5.2,11.5
	c0,0-0.2-0.2-0.3-0.2c0,0.5,0,1.2,0,1.3c0,0.2,0,0.3,0,0.3C5,13,5,13,5,13s0,0.2,0,0.3c0,0.2,0,0.2,0,0.3v0.2c0,0,0.5,1.8,0.5,2.2
	s0.3,1.7,0.3,1.7c0,0.2,0.3,3.2,0.5,3.7c0,0.2,0.2,1.2,0.3,2.2c0.2-0.3,0.7-0.3,1-0.5c0-0.3-0.2-0.7-0.2-1.2c0-0.2,0-1,0-2
	c0-0.3,0-0.7,0-0.8c0-0.3,0-0.7,0.2-0.8c-0.2-0.2-0.2-0.5-0.2-0.7c0-0.7,0-2.7,0-3.3C7.7,14,7.8,13.7,8,13.3z M9,27.2
	c-0.5,0-1.2,0-1.5,0c-0.2,0-0.2,0-0.3,0c0,0.5,0,0.8,0.2,0.8c0,0.2,0.2,2.2,0.2,2.2c0,0.2,0.2,0.5,0.2,0.5s0,0.3,0.2,0.5
	c0,0.2,0,0.7,0.2,1.2s0.2,0.5,0.2,0.5S8.7,30,9,28.5c0-0.5,0.2-0.8,0.2-0.8c0-0.2,0-0.2,0-0.2v-0.2C8.8,27.5,9,27.3,9,27.2z
	 M12.5,4.2c0,0.2,0.3,0.3,0.3,0.5L13,4.8l0.7,0.8l1.2,1c0,0,0.2,0.2,0.2,0.3c0,0,0,0.2,0.2,0.3c0,0,0,0,0,0.2c0.8,0,1.8,0,2.8,0
	c0.3,0,0.8,0,1.2,0c0,0,0-0.2,0-0.3c0-0.3,0.2-0.3,0.3-0.5c0.2-0.2,0.3-0.3,0.3-0.3c0.2-0.2,0.7-0.8,0.7-1c0,0,0.5-0.7,1-0.8
	c0.3-0.3,0.7-0.7,0.7-0.7c-0.3,0-0.7,0-0.7,0s-0.2,0-0.3,0c-0.2,0-0.5,0-0.7,0c-0.2,0-0.8,0.2-1,0.2c-0.3,0-0.8,0-0.8,0
	s-0.2,0-0.3,0s-0.5-0.2-0.5-0.2c-0.2,0-1,0-1.2,0c-0.2,0-0.5,0-0.5,0H16h-1.2L14.5,4c-0.2,0-0.7,0-0.7,0h-0.2l0,0
	c-0.2,0-0.3,0-0.3,0h-0.5c-0.2,0-0.7,0-0.7,0s0,0,0,0.2C12.2,3.8,12.3,4,12.5,4.2z M16.5,11.7C16.7,11.8,16.7,11.8,16.5,11.7
	c0.2,0.2,0.2,0.5,0.2,0.7c0,0.2,0.2,0.2,0.2,0.2v0.3l0.3,1.2l0.3,1.5c0,0.2,0.5,1.3,0.5,1.3l0.5,1.7c0,0,0.3,0.5,0.5,1.2
	c0.2-0.5,0.2-0.8,0.3-1.3v-0.2c0-0.2,0-0.2,0-0.3c0-0.3,0-0.8,0.3-1.5c0-0.5,0-1,0-1.3v-0.2c0-0.2,0-0.5-0.2-0.8c0-0.2,0-0.2,0-0.3
	c0-0.2-0.2-0.7-0.3-0.8l-1.2-1l0.3,0C17.7,11.8,17.2,11.8,16.5,11.7z M33.3,0L33.3,0L32,2.3c0,0.2,0,0.2-0.2,0.2v0.2c0,0,0,0,0,0.2
	s-1,2-1.2,2.3c-0.2,0.3-1.3,2.8-1.5,3.3c-0.2,0.3-1.2,2.8-1.5,3.2c-0.2,0.3-0.5,1.3-0.8,2c0.2,0.3,0.2,0.5,0.3,0.8v0.2l0.2,0.5
	L27,15.7c0,0.2-0.2,0.7-0.3,0.8c0,0,0,0.2,0,0.3c-0.2,0.7-0.3,1.7-0.7,2.5c-0.2,0.5-1,2.8-2.8,4.5c-0.7,0.7-1.3,1.2-2,1.5
	c0.2,0.7,0.3,1.3,0.5,1.5c0.2,0.3,0.7,1.8,0.8,2.3c0.2,0.5,0.5,1.7,0.5,1.7c0.2,0.3,0.2,0.7,0.2,0.7h0.2l0.2-0.2v-0.2l0.2-0.2
	c0,0,0.3-0.8,0.3-1l0.2-0.2l0,0l0.3-0.5l0.2-0.3l0.2-0.2l0,0c0,0,0.3-1.2,0.3-1.3c0-0.3,0.5-1.7,0.5-1.8c0-0.2,0.2-0.3,0.2-0.3
	s0.2-1,0.3-1v-0.2c0,0,0.7-1.2,0.8-1.3c0.2-0.2,0-0.3,0-0.3l0.2-0.2v-0.2l0.2-0.2l0.2-0.2c0,0,0.3-1.3,0.5-1.5
	c0-0.2,0.2-0.2,0.2-0.3s0.5-1.3,0.5-1.7c0.2-0.3,0.5-1.8,0.7-2.2c0.2-0.3,0.3-1.2,0.3-1.3c0-0.2,0-0.3,0-0.3s-0.2-0.2-0.2-0.3
	c-0.2-0.2,0-0.3,0-0.5s0-0.2,0-0.2v-0.2l0.2-0.3l0.2-0.8l0.5-1.8l0.2-0.7c0-0.2,0-0.2,0-0.2s0-0.2,0-0.3c0-0.2,0.3-1,0.3-1.2
	S31,7.7,31,7.5c0-0.2,0.2-0.5,0.3-0.8s0.2-0.3,0.2-0.5c0-0.2,0.2-0.3,0.2-0.3c0-0.2,0-0.3,0-0.3c0-0.7,0-1,0-1s0.2-0.3,0.2-0.5
	C32,3.8,32,3.5,32.2,3.3c0-0.2,0.2-0.3,0.2-0.5s0.2-0.3,0.2-0.5s0.2-0.5,0.2-0.5c0-0.2,0.2-0.3,0.2-0.3S33,1.3,33,1.2V0.8
	c0-0.2,0.2-0.2,0-0.2C33.2,0.7,33.3,0.2,33.3,0z"/>
</svg>
