<?xml version="1.0" encoding="utf-8"?>
<!-- Generator: Adobe Illustrator 28.1.0, SVG Export Plug-In . SVG Version: 6.00 Build 0)  -->
<svg version="1.1" id="Layer_1" xmlns="http://www.w3.org/2000/svg" xmlns:xlink="http://www.w3.org/1999/xlink" x="0px" y="0px"
	 viewBox="0 0 479.8 496" style="enable-background:new 0 0 479.8 496;" xml:space="preserve">
<style type="text/css">
	.st0{fill:#490005;}
	.st1{fill:#D80000;}
	.st2{fill:#F23F00;}
	.st3{fill:#E8DCC1;}
</style>
<g>
	<g>
		<path class="st0" d="M479.8,240.6c0,0-55.8-11.8-79.4-52.7c0,0-11.2,19.2-22.9,20.5c0,0,3.1-22.3,17.4-32.2l-17.4-16.7h-40.3
			c0,0,10.5-31,24.8-33.5c0,0-24.2-11.2-40.3,2.5c0,0-52.1,7.4-8.1-33.5c0,0-63.2-24.8-73.8-52.1C229.3,70.2,166,95,166,95
			c44,40.9-8.1,33.5-8.1,33.5c-16.1-13.6-40.3-2.5-40.3-2.5c14.3,2.5,24.8,33.5,24.8,33.5h-40.3l-17.2,16.6
			c14.3,10.5,17.4,32.2,17.4,32.2c-11.8-1.9-22.9-20.5-22.9-20.5C56.5,228.7,0,240.5,0,240.5l0,0c0,0,55.8,11.8,79.4,52.7
			c0,0,11.2-19.2,22.9-20.5c0,0-3.1,22.3-17.4,32.2l17.4,16.7h40.3c0,0-10.5,31-24.8,33.5c0,0,24.2,11.2,40.3-2.5
			c0,0,52.1-7.4,8.1,33.5c0,0,63.2,24.8,73.8,52.1c10.5-27.3,73.8-52.1,73.8-52.1c-44-40.9,8.1-33.5,8.1-33.5
			c16.1,13.6,40.3,2.5,40.3,2.5c-14.3-2.5-24.8-33.5-24.8-33.5h40.3l17.2-16.6c-14.3-10.5-17.4-32.2-17.4-32.2
			c11.8,1.9,22.9,20.5,22.9,20.5C423.4,253,479.8,241.2,479.8,240.6L479.8,240.6z"/>
		<g>
			<path class="st1" d="M241.1,2.5c6.2,40.9,9.9,81.2,12.4,122.1s3.1,81.2,3.1,122.1s-1.2,81.2-3.1,122.1
				c-2.5,40.9-5.6,81.2-12.4,122.1c-6.2-40.9-9.9-81.2-12.4-122.1s-3.1-81.2-3.1-122.1s1.2-81.2,3.1-122.1
				C231.8,83.7,234.9,42.8,241.1,2.5z"/>
		</g>
		<g>
			<path class="st2" d="M241.1,0c6.2,41.5,9.9,82.5,12.4,124s3.1,82.5,3.1,124s-1.2,82.5-3.1,124c-2.5,41.5-5.6,82.5-12.4,124
				c-6.2-41.5-9.9-82.5-12.4-124s-3.1-82.5-3.1-124s1.2-82.5,3.1-124C231.8,82.5,234.9,41.5,241.1,0z"/>
		</g>
		<g>
			<path class="st2" d="M156.2,50.2c6.2,32.9,9.9,65.7,12.4,98c2.5,32.9,3.1,65.7,3.1,98c0,32.9-1.2,65.7-3.1,98
				c-2.5,32.9-5.6,65.7-12.4,98c-6.2-32.9-9.9-65.7-12.4-98c-1.9-32.2-3.1-65.1-3.1-97.3c0-32.9,1.2-65.7,3.1-98
				C146.3,115.3,150,83.1,156.2,50.2z"/>
		</g>
		<g>
			<path class="st2" d="M321.7,50.2c6.2,32.9,9.9,65.7,12.4,98c2.5,32.9,3.1,65.7,3.1,98c0,32.9-1.2,65.7-3.1,98
				c-2.5,32.9-5.6,65.7-12.4,98c-6.2-32.9-9.9-65.7-12.4-98c-2.5-32.9-3.1-65.7-3.1-98c0-32.9,1.2-65.7,3.1-98
				C311.8,115.3,315.5,83.1,321.7,50.2z"/>
		</g>
	</g>
	<path class="st3" d="M381.9,190.3c-12.4-8.7-26-17.4-42.2-21.7c15.5,21.7,33.5,45.9,31,86.2c-1.9,31-16.7,52.7-32.9,70.1
		c-17.4,18-39.7,31.6-63.9,37.8c-14.3,5-28.5,7.4-43.4,8.1c-49,0-99.8-3.1-146.9,2.5c-0.6-4.3-1.2-8.7-2.5-13
		c19.2-5,45.3-11.2,47.7-33.5c1.2-12.4,1.2-154.4-1.2-164.9c-3.1-14.3-31-18.6-45.9-21.7c0-5,1.2-8.1,1.2-13
		c32.2-4.3,64.5-4.3,99.2-6.2C271.5,117.2,348.4,135.2,381.9,190.3z M194.6,155c-4.3,0.6-3.1,14.9-3.1,19.2
		c0.6,36-0.6,78.1-0.6,114.1c0,11.2-3.1,35.3,3.7,40.9c6.8,5.6,32.9,3.7,43.4,2.5c54.6-3.7,78.7-63.9,60.1-116.6
		c-11.8-34.1-38.4-57.7-82.5-60.8C210.1,153.8,195.9,155,194.6,155z"/>
</g>
</svg>
