<?xml version="1.0" encoding="utf-8"?>
<!-- Generator: Adobe Illustrator 28.1.0, SVG Export Plug-In . SVG Version: 6.00 Build 0)  -->
<svg version="1.1" id="레이어_1" xmlns="http://www.w3.org/2000/svg" xmlns:xlink="http://www.w3.org/1999/xlink" x="0px"
	 y="0px" viewBox="0 0 300.6 324" style="enable-background:new 0 0 300.6 324;" xml:space="preserve">
<style type="text/css">
	.st0{fill:#FFFFFF;}
</style>
<path class="st0" d="M275.7,62.7L172.3,6c-13.8-7.6-30.4-7.6-44.2,0L24.8,62.7C9.5,71.1,0,87.4,0,105.1v107.3
	c0,17.7,9.5,34,24.8,42.4l125.5,68.9l125.5-68.9c15.2-8.4,24.8-24.6,24.8-42.4V105.1C300.5,87.4,291,71.1,275.7,62.7L275.7,62.7z
	 M130.8,209.9v71l-29.7-16.3V223l-43.4-23.9v41.5l-20.2-11.1c-5.9-3.2-9.5-9.4-9.5-16.1v-104l29.7,16.3v41.5l43.4,23.9v-41.5
	l29.7,16.3V209.9z M272.6,199.9v13.6c0,6.7-3.6,12.8-9.5,16.1L169,281.3v-43.7c0-6.2,2-15.8,6.1-22.4c4-6.6,8.9-11.5,14.5-14.6
	l53-29.4l0.3-20.8l-73.5,40.5c-0.8-9.6,0.3-15.3,3.7-21.1c3.9-6.7,7.9-9.7,13.6-12.8l65.3-36.1c5.6-3.1,10.5-3.6,14.5-1.4
	s6.1,6.4,6.1,12.6v21.3c0,6.2-2,15.8-6.1,22.5c-4,6.7-9.6,12-14.5,14.6l-53,29.1v20.7L272.6,199.9z"/>
</svg>
