<?xml version="1.0" encoding="utf-8"?>
<!-- Generator: Adobe Illustrator 28.1.0, SVG Export Plug-In . SVG Version: 6.00 Build 0)  -->
<svg version="1.1"
	 id="svg8" xmlns:cc="http://creativecommons.org/ns#" xmlns:svg="http://www.w3.org/2000/svg" xmlns:dc="http://purl.org/dc/elements/1.1/" xmlns:rdf="http://www.w3.org/1999/02/22-rdf-syntax-ns#"
	 xmlns="http://www.w3.org/2000/svg" xmlns:xlink="http://www.w3.org/1999/xlink" x="0px" y="0px" viewBox="0 0 2342.4 399.7"
	 style="enable-background:new 0 0 2342.4 399.7;" xml:space="preserve">
<style type="text/css">
	.st0{fill:#FFFFFF;}
</style>
<g id="layer1" transform="translate(144.72307,-459.51076)">
	<path id="path22" class="st0" d="M48.4,752.4c-23,20.8-52.9,29.9-100.3,29.9h-19.7V533.9h19.7c47.3,0,76.1,8.5,100.3,30.4
		C73.8,586.8,89,621.8,89,657.8C89,693.8,73.8,729.9,48.4,752.4L48.4,752.4z M-37.2,470.2h-107.6v375.7h107c56.9,0,98-13.4,134-43.4
		c42.9-35.5,68.2-88.9,68.2-144.2C164.5,547.4,81.7,470.2-37.2,470.2"/>
	<path id="path24" class="st0" d="M198.2,845.9h73.3V470.2h-73.3V845.9z"/>
	<path id="path26" class="st0" d="M450.7,614.4c-44-16.3-56.9-27-56.9-47.3c0-23.7,23-41.6,54.6-41.6c22,0,40,9,59.1,30.4l38.3-50.2
		c-31.5-27.6-69.2-41.6-110.4-41.6c-66.5,0-117.2,46.2-117.2,107.6c0,51.8,23.6,78.3,92.4,103c28.7,10.1,43.3,16.9,50.7,21.4
		c14.6,9.6,22,23.1,22,38.9c0,30.4-24.2,53-56.9,53c-34.9,0-63.1-17.5-80-50.1l-47.3,45.6c33.8,49.6,74.3,71.5,130.1,71.5
		c76.2,0,129.6-50.6,129.6-123.4C558.7,671.9,534,644.9,450.7,614.4"/>
	<path id="path28" class="st0" d="M581.9,658.3c0,110.4,86.7,196,198.3,196c31.5,0,58.6-6.2,91.9-21.9v-86.3
		c-29.3,29.3-55.2,41.1-88.5,41.1c-73.8,0-126.2-53.5-126.2-129.6c0-72.1,54-129,122.8-129c34.9,0,61.4,12.5,91.9,42.3v-86.2
		c-32.2-16.3-58.6-23.1-90.1-23.1C670.9,461.7,581.9,549.1,581.9,658.3"/>
	<path id="path30" class="st0" d="M1453,722.6l-100.2-252.3h-80.1l159.4,385.3h39.4l162.3-385.3h-79.4L1453,722.6"/>
	<path id="path32" class="st0" d="M1667.1,845.9h207.8v-63.6h-134.6V680.9h129.6v-63.6h-129.6v-83.4h134.6v-63.6h-207.8V845.9"/>
	<path id="path34" class="st0" d="M2018,643.2h-21.4V529.4h22.6c45.6,0,70.4,19.1,70.4,55.7C2089.6,622.8,2064.8,643.2,2018,643.2z
		 M2165,581.1c0-70.3-48.4-110.9-133-110.9h-108.7v375.7h73.2V695h9.6l101.4,150.9h90.1l-118.3-158.3
		C2134.6,676.4,2165,638.6,2165,581.1"/>
	<path class="st0" d="M1095.7,459.5c-110.3,0-199.8,89.5-199.8,199.8c0,0.1,0,0.1,0,0.1c0,110.3,89.5,199.8,199.8,199.8
		c110.4,0,199.9-89.5,199.9-199.8c0,0,0,0,0-0.1C1295.6,549,1206.2,459.5,1095.7,459.5z"/>
</g>
</svg>
