<?xml version="1.0" encoding="utf-8"?>
<!-- Generator: Adobe Illustrator 28.2.0, SVG Export Plug-In . SVG Version: 6.00 Build 0)  -->
<svg version="1.1" id="레이어_1" xmlns="http://www.w3.org/2000/svg" xmlns:xlink="http://www.w3.org/1999/xlink" x="0px"
	 y="0px" viewBox="0 0 16 16" style="enable-background:new 0 0 16 16;" xml:space="preserve">
<style type="text/css">
	.st0{fill:#FFFFFF;}
</style>
<path class="st0" d="M0,3.8c0,0,0-2,2-2h12c0,0,2,0,2,2v6c0,0,0,2-2,2h-4c0,0.7,0.1,1.2,0.2,1.5H11c0.3,0,0.5,0.2,0.5,0.5
	s-0.2,0.5-0.5,0.5H5c-0.3,0-0.5-0.2-0.5-0.5s0.2-0.5,0.5-0.5h0.8C5.9,12.9,6,12.4,6,11.8H2c0,0-2,0-2-2V3.8z M1.4,2.9
	C1.3,3,1.2,3.1,1.1,3.2C1.1,3.4,1,3.6,1,3.8v6c0,0.3,0.1,0.5,0.1,0.6c0.1,0.1,0.2,0.2,0.3,0.3c0.2,0.1,0.4,0.1,0.5,0.1l0,0h12
	c0.3,0,0.5-0.1,0.6-0.1c0.1-0.1,0.2-0.2,0.3-0.3C14.9,10.1,15,10,15,9.8l0,0v-6c0-0.3-0.1-0.5-0.1-0.6C14.8,3,14.7,3,14.6,2.9
	c-0.2-0.1-0.4-0.1-0.6-0.1H2C1.7,2.8,1.5,2.8,1.4,2.9"/>
</svg>
