<?xml version="1.0" encoding="UTF-8"?>
<svg id="_레이어_1" data-name="레이어 1" xmlns="http://www.w3.org/2000/svg" viewBox="0 0 236.111 211.971">
  <defs>
    <style>
      .cls-1 {
        fill: #fff;
        stroke-width: 0px;
      }
    </style>
  </defs>
  <path class="cls-1" d="M153.109,0c7.232,3.406,8.807,7.538,5.808,15.224-1.867,4.785-3.728,9.573-5.58,14.364-.052.135.02.319.081,1.018,10.636-1.684,21.247-3.339,31.848-5.049,11.001-1.775,21.976-3.729,32.996-5.372,10.248-1.528,17.833,5.236,17.836,15.706.017,53.473.016,106.946,0,160.419-.003,10.201-6.072,16.611-16.256,15.546-14.043-1.468-27.986-3.95-41.94-6.193-38.428-6.175-76.84-12.454-115.259-18.687-9.162-1.486-13.965-7.009-14.094-16.384-.078-5.663.896-11.523-.265-16.938-1.272-5.93-8.631-6.307-12.438-10.37-4.114-4.39-8.119-8.782-11.412-13.828-2.491-3.818-3.245-7.666-.512-11.616,2.747-3.969,6.708-4.578,11.096-3.592,14.892,3.347,29.083,1.232,42.649-5.523,3.137-1.562,6.786-3.169,4.789-7.781-1.808-4.176-5.151-3.125-8.515-2.113-16.634,5.004-33.637,6.609-50.862,4.518C8.914,101.628.99,92.051.086,77.772c-1.547-24.418,18.075-42.457,41.239-45.748,15.961-2.268,31.515.673,46.674,5.599,4.837,1.572,9.412,2.57,14.521,1.38,5.648-1.316,11.444-1.998,17.728-3.049-2.314-5.591-4.533-10.85-6.67-16.141-2.448-6.064-.759-11.408,4.211-13.574,5.251-2.288,10.414.231,13.091,6.436,1.438,3.332,2.8,6.697,4.548,10.89,2.127-5.337,4.094-9.779,5.662-14.358,1.342-3.921,3.487-7.047,7.022-9.207h4.998ZM122.309,54.387c3.96,3.272,7.378,6.08,10.776,8.913,1.067.89,2.194.45,3.323.268,18.71-3.028,37.43-5.991,56.125-9.109,9.262-1.545,13.618,1.912,13.622,11.253.012,33.468.009,66.937.002,100.405-.002,9.941-3.706,13.266-13.655,11.715-21.519-3.355-43.01-6.899-64.509-10.383-19.201-3.111-38.406-6.202-57.591-9.415-2.812-.471-3.426.452-3.233,3.041.419,5.6,3.737,8.656,10.688,9.767,42.357,6.769,84.711,13.558,127.063,20.366,8.079,1.299,12.716-2.217,12.73-10.278.074-43.126.069-86.252.005-129.377-.012-7.929-4.208-11.542-12.123-10.541-6.264.793-12.481,1.963-18.718,2.969-21.259,3.429-42.519,6.859-64.505,10.406ZM149.1,80.229c16.906,22.247,25.809,46.792,26.958,74.106.041.985.066,1.856,1.219,2.422,4.958,2.429,10.13-.535,10.153-6.189.095-22.935.089-45.87.002-68.805-.02-5.339-2.767-7.386-8.126-6.513-9.826,1.6-19.646,3.237-30.207,4.98ZM39.18,74.006c.129-3.879-2.816-7.013-6.695-7.126-3.844-.111-7.108,2.894-7.241,6.666-.13,3.69,3.061,7.106,6.775,7.252,3.698.145,7.036-3.021,7.161-6.792ZM65.025,66.88c-3.942-.04-6.932,2.89-6.963,6.821-.029,3.818,3.097,7.072,6.823,7.102,3.706.03,7.034-3.234,7.091-6.955.057-3.71-3.155-6.93-6.951-6.969Z"/>
</svg>