<?xml version="1.0" encoding="utf-8"?>
<!-- Generator: Adobe Illustrator 28.1.0, SVG Export Plug-In . SVG Version: 6.00 Build 0)  -->
<svg version="1.1"
	 id="svg8" xmlns:svg="http://www.w3.org/2000/svg" xmlns:rdf="http://www.w3.org/1999/02/22-rdf-syntax-ns#" xmlns:dc="http://purl.org/dc/elements/1.1/" xmlns:cc="http://creativecommons.org/ns#"
	 xmlns="http://www.w3.org/2000/svg" xmlns:xlink="http://www.w3.org/1999/xlink" x="0px" y="0px" viewBox="0 0 38.1 37.8"
	 style="enable-background:new 0 0 38.1 37.8;" xml:space="preserve">
<style type="text/css">
	.st0{fill:#FFFFFF;}
</style>
<path id="path2430" class="st0" d="M15.6,37.3L15,36.8l-0.7-0.1c-0.9-0.1-1.4-0.2-1.9-0.4L12,36.2l-0.4,0.2c-0.4,0.2-1.3,0.3-2,0.3
	c0,0-0.1-0.1-0.1-0.2c0-0.1-0.1-0.2-0.2-0.2c-0.1,0-0.5,0.1-0.9,0.2l-0.8,0.3l-0.3-0.1c-0.4-0.2-0.5-0.2-1.2,0
	c-0.5,0.1-0.5,0.2-0.9,0.1c-0.6-0.1-1.1-0.1-2.1,0c-1.2,0.2-1.2,0.2-1.6-0.1c-0.2-0.2-0.4-0.2-0.6-0.2c-0.3,0-0.4,0-0.4-0.2
	c0-0.1,0-0.3,0.1-0.4c0.2-0.4,0.2-1.5,0.3-4.1l0-2.4l0.3,0l0.3,0l0.1-1.4c0-0.8,0.1-1.9,0.1-2.4l0-1l-0.2-0.1
	c-0.5-0.4-0.5-0.3-0.7-1.5c-0.1-0.6-0.2-1.5-0.2-2c0-0.8,0-0.9,0.1-1l0.2-0.2l0.4,0.3c0.2,0.2,0.4,0.3,0.4,0.3
	c0.1-0.2-0.1-2.3-0.2-2.6c-0.1-0.2-0.1-0.4-0.1-0.5c0-0.1-0.1-0.4-0.2-0.7l-0.2-0.5l0.1-0.8c0.1-1.1,0-1.9-0.5-2.8l-0.2-0.4l0.1-1.1
	L0.4,10L0.2,9.5L0.1,8.9l0.2-0.6l0.2-0.6L0.2,7.1L0,6.5l0.2-0.6c0.2-0.6,0.2-0.7,0.2-1.7C0.5,3,0.4,2.3,0.1,2
	C-0.1,1.8,0,1.6,0.3,1.3C0.4,1.2,0.5,1,0.5,0.9c0-0.1,0-0.1,0.3-0.1c0.2,0,0.8-0.1,1.3-0.1l1-0.1l1.3,0.2c1.3,0.2,1.3,0.2,3,0.1
	l1.7-0.1L9.5,1l0.4,0.2l1.7,0l1.7,0L13.8,1c0.3-0.1,0.8-0.3,1.1-0.4s0.8-0.3,1.2-0.4L16.7,0l0.8,0.3l0.8,0.3l0.7-0.2L19.8,0l0.8,0.2
	c0.4,0.1,1.2,0.5,1.7,0.7l1,0.5l1,0c0.8,0,1-0.1,1.1-0.1c0-0.1,0.1-0.3,0.2-0.6l0.2-0.6l1,0c0.7,0,1.4,0.1,2.5,0.3l1.6,0.3l0.4-0.2
	c0.2-0.1,0.7-0.2,0.9-0.2c0.5-0.1,0.6-0.1,1.3,0.1c0.6,0.2,0.8,0.2,1.7,0.2c0.5,0,1.1,0,1.3,0c0.3,0,0.3,0,0.8,0.4
	c0.3,0.2,0.6,0.4,0.6,0.5c0,0,0.1,0.3,0.1,0.5L38,2.4l-0.3,0.6c-0.2,0.3-0.3,0.7-0.3,0.7c0,0,0.1,0.1,0.2,0.1c0.1,0,0.2,0.2,0.3,0.3
	L38,4.5l0,3.6c0,2-0.1,3.8-0.1,4l0,0.3l-0.5,0l-0.5,0l0,0.3c0,0.2,0,0.5,0,0.7c0,0.3,0,0.5-0.3,0.9l-0.3,0.5l0.1,0.2
	c0.1,0.1,0.3,0.4,0.6,0.7l0.5,0.5l-0.1,0.5l-0.1,0.5l0.2,1.1c0.2,1.3,0.2,1.6-0.1,2.8c-0.1,0.5-0.2,0.9-0.2,0.9
	c0,0.1,0.1,0.1,0.7,0.2c0.3,0,0.3,0.1,0.3,0.2c0,0.1,0,1.8,0.1,3.7c0.2,6.5,0.2,7.9,0.1,9.3c0,0.8-0.1,1.4-0.1,1.4
	c0,0-0.5-0.2-1.2-0.5l-1.1-0.5L35.1,36c-0.5,0.2-0.6,0.3-0.6,0.7c0,0.3,0,0.3-1.3,0.5l-0.7,0.2l-0.7-0.2c-0.7-0.2-0.8-0.2-1.3-0.2
	c-0.4,0-0.7,0-0.9-0.1c-0.3-0.1-0.3-0.1-0.9,0.2l-0.6,0.3l-2.1,0c-2.2,0-2.6,0-4.1,0.3c-1,0.2-1.4,0.2-3.2,0l-1-0.1l-0.7,0.2
	c-0.4,0.1-0.7,0.2-0.8,0.2C16.2,37.8,15.9,37.6,15.6,37.3L15.6,37.3z M11.6,31.5c1.6-0.6,2.9-1.1,2.9-1.1c0,0-6.2-6.1-7-6.8
	C7.2,23.3,7,23.1,7,23.1c0,0-0.5,1.4-1.1,3c-0.7,1.8-1.1,3-1,3.1c0,0.1,3.8,3.3,3.8,3.3C8.7,32.5,10,32.1,11.6,31.5z M33,28.1
	c0.8-2,1.5-3.7,1.5-3.7c0,0-15.6-10.5-26.5-17.9L7.1,6L5.7,6.6C4.9,7,4.2,7.3,4.3,7.3c0,0,5.3,5.6,11.7,12.3l11.7,12.2l1.9,0l1.9,0
	L33,28.1z M30.8,10.9c0.3-1.5,0.5-2.8,0.5-2.9c0-0.1-0.4-0.4-1.1-0.9c-0.6-0.4-1.1-0.8-1.2-0.8C29,6.3,22.9,7.9,22.9,8
	c0,0,7.4,5.7,7.4,5.7C30.3,13.7,30.6,12.4,30.8,10.9z"/>
</svg>
