<?xml version="1.0" encoding="utf-8"?>
<!-- Generator: Adobe Illustrator 28.1.0, SVG Export Plug-In . SVG Version: 6.00 Build 0)  -->
<svg version="1.1"
	 id="Layer_1" xmlns:svg="http://www.w3.org/2000/svg" xmlns:rdf="http://www.w3.org/1999/02/22-rdf-syntax-ns#" xmlns:cc="http://creativecommons.org/ns#" xmlns:sodipodi="http://sodipodi.sourceforge.net/DTD/sodipodi-0.dtd" xmlns:inkscape="http://www.inkscape.org/namespaces/inkscape" xmlns:dc="http://purl.org/dc/elements/1.1/" inkscape:version="0.92.3 (2405546, 2018-03-11)" sodipodi:docname="Underlords_WordMark_Vertical.svg"
	 xmlns="http://www.w3.org/2000/svg" xmlns:xlink="http://www.w3.org/1999/xlink" x="0px" y="0px" viewBox="0 0 73.7 67.5"
	 style="enable-background:new 0 0 73.7 67.5;" xml:space="preserve">
<style type="text/css">
	.st0{fill:#FFFFFF;}
</style>
<path id="path4" class="st0" d="M71.6,20.3c0.4-0.4,1.3-1.3,1.7-1.7c0.2-0.1,0.3-0.4,0.3-0.6c0-2.3,0-4.5,0-6.8c0-0.2,0-0.5-0.1-0.7
	c-3.2,2.4-0.9-1.8-0.1-2.5c0.1-0.3,0.2-0.6,0.2-0.9c0-0.8-0.1-1.6,0-2.4c0.1-1.2,0-2.4,0-3.6c0-0.3-0.1-1.1-0.2-1.1
	c-0.2,0-0.7,0.4-0.9,0.6c-0.8,0.8-1.6,1.7-2.5,2.5c-1.6,1.6-3.3,3.1-4.9,4.7c-1.7,1.6-3.3,3.3-4.9,5c-1,1-1.9,1.8-2.8,2.8
	c-1.2,1.3-2.3,2.7-3.6,4c-1.3,1.2-2.7,2.3-4,3.6c-2,2-4.1,4.1-6.1,6.1c-0.9,1-1.9,1.9-2.8,2.9c-1.2,1.2-2.3,2.5-3.5,3.7
	c-0.9,0.9-2,1.7-2.9,2.6c-2.4,2.4-4.8,4.8-7.2,7.2c-1.5,1.5-3.1,3.1-4.6,4.6c-0.6,0.6-0.6,0.9,0,1.5c0.2,0.2,0.5,0.4,0.7,0.6
	c-0.2,0.2-0.2,0.4-0.3,0.5c0.1,0.1,0.1,0.1,0.2,0.2c1,1,2,1.9,2.9,2.9c0.4,0.3,1,0.6,0.7,1.3c0,0,0.1,0.1,0.2,0.2
	c1.7,1.6,2.4,2.4,4,4.1c0.3,0.4,0.4,0.3,0.7,0c0.4-0.4,4.2-4.1,4.7-4.5c0,0.1-2.9,3.7-2.9,3.7c-0.3,0.4-1,1.3-1.3,1.7
	c0,0.1,0.7,0.1,0.7,0.1c0.2-0.2,0.4-0.3,0.7-0.5c-0.2,0.7-1.1,0.9,0,1.7c0.6,0.6,1.3,1.2,1.8,1.8c0.6,0.7,0.9,0.6,1.5,0
	c11.9-11.9,24.4-24.1,36.3-36c0.2-0.2,0.3-0.6,0.3-0.9c0-2.2,0-4.4,0-6.6c0-0.2,0-0.3,0-0.6c-0.7,0.6-1.4,1.2-2.1,1.8l-1.8,1.4
	c0.5-0.6,2.8-2.7,3.4-3.2s0.6-1,0.5-1.6c-0.2,0.1-0.3,0.2-0.4,0.2c0.1-0.4,0.3-0.8,0.5-1.2c-0.1,0-0.1-0.1-0.2-0.1
	c-0.4,0.3-0.8,0.6-1.2,0.9C72.2,19.7,71.6,20.2,71.6,20.3z M36.4,2.5c-0.9,0.8-1.9,1.7-2.8,2.6c-0.6,0.5-1.1,1.2-1.7,1.8
	c-1.1,1.1-2.3,2-3.4,3.1c-1,0.9-1.8,2-2.7,2.9c-0.8,0.8-1.8,1.6-2.6,2.4C15.7,22.9,8.1,30.5,0.5,38c-0.2,0.2-0.2,0.4-0.2,0.6
	c0.2,0.9,0.1,1.8,0.1,2.7c0,0.2-0.1,2.1,0,2.3c10.1-8.6,6.3-5,0.4,1.7c0,0.1-0.1,0.1-0.1,0.1c-0.4,0.5-0.4,1.6-0.4,2.4
	c-0.1,6.6,0,12.3,0,18.8c0,0.3-0.1,0.5,0.3,0.7c0.3,0.2,0.5-0.1,0.7-0.3c4.7-4.7,9.4-9.5,14.1-14.2c1-0.9,1.9-1.9,2.8-2.9
	c0.8-0.9,1.5-1.7,2.3-2.5c0.3-0.3,0.7-0.5,1.1-0.8c2.2-1.8,3.9-4,5.8-6.1c1.1-1.2,2.4-2.4,3.6-3.6c0.7-0.7,1.7-1.3,2.4-2
	c5.6-5.5,11.2-11,16.7-16.6c0.6-0.6,1.2-1.2,1.8-1.9c0.5-0.4,0.1-0.3,0-0.5c-0.1-0.2-0.3-0.4-0.4-0.6c-0.4-0.6-0.6-0.7-1.3-0.4
	c-0.1-0.1-0.2-0.1-0.3-0.2c-0.3-1.3-1.3-2.4-2-2.8c-0.5-0.5-0.4-1-1.1-0.9c-0.1-0.1-0.1-0.3-0.2-0.4c-0.1-0.1-0.3,0-0.4,0.1
	c-0.3,0.3-2,2-2.4,2.3c-0.5,0.4,0.6-1.1,0.7-1.3c0-0.1,0-0.1,0-0.1c0.1-0.3,1-1,1.1-1.2L45.5,10c-0.3,0.2-0.6,0.6-0.9,0.9
	c-0.5,0.3-1,0.6-1,0.6c0.2-0.3,0.8-1.1,1-1.4s0.5-0.5,0.6-0.7c-0.1-0.2-0.4-0.3-0.4-0.5c-0.2-0.5-0.7-1-1.2-1.1
	c-0.7-0.1-1.5-0.1-1.4-1.1c0-0.1-0.1-0.1-0.1-0.2c-0.4-0.6-0.7-1.3-1.1-1.9c-0.1-0.1-0.3-0.2-0.4-0.2c-0.6,0-1.2,0.1-1.7,0.1
	C39,4.3,39.1,4,39.1,3.7s0-0.9-0.4-1.1l-1.4,0.8L37.2,2C36.7,1.7,36.3,2.4,36.4,2.5z M16.8,16.2C11.4,10.9,6.1,5.6,0.8,0.3
	C0.7,0.1,0.4,0,0.3,0.1C0.1,0.2,0,0.5,0,0.7C0,3.9,0,7,0,10.2c0,0.3,0.1,0.6,0.3,0.9c0.3,0.4,0.7,0.8,1,1.2c0,0.1-0.1,0.1-0.1,0.1
	c-0.3-0.3-0.6-0.6-0.9-0.9c0,0.1-0.1,0.1-0.1,0.1C0.5,12,0.7,12.4,1,12.8l-0.1,0.1c-0.3-0.3-0.5-0.7-0.8-1c-0.2,0.9,0,1.5,0.6,2.1
	c0.4,0.4,0.7,0.9,1.1,1.4l-0.1,0.1c-0.5-0.6-1.1-1.1-1.6-1.7C0,13.9,0,14,0,14c0,5,0,9.9,0,14.9c0,0.2,0,0.3,0.1,0.4
	c0.6,0.6,1.3,1.3,2,2c0.1-0.2,0.3-0.4,0.4-0.5c3.6-3.6,7.1-7.1,10.7-10.7c0.8-0.7,0.8-0.7,0.1-1.5c-0.4-0.4-0.7-0.9-1.1-1.4
	c0.1,0,0.1,0,0.1,0c0.7,0.7,1.3,1.3,2,1.9c0.9-0.9,1.8-1.8,2.7-2.7C16.9,16.3,16.9,16.3,16.8,16.2z M71,36.6
	c-4.8,4.8-9.7,9.7-14.6,14.6c0,0.1,0,0.2,0,0.2c3.3,3.2,6.6,6.5,9.9,9.8c1.9,1.9,3.9,3.8,5.8,5.8c0.3,0.3,0.9,0.6,1.1,0.5
	c0.2,0,0.1-0.1,0.2-1c0-0.7,0-1.4,0-2.1c0-0.1,0-0.3-0.1-0.4c-0.3-0.4-0.8-0.8-1.2-1.2c-0.4-0.5-0.9-0.9-1.3-1.4
	c0.1,0-1.6-1.8-1.6-1.8c0.8,0.7,3.7,3.1,4.4,3.7c0-5.3,0-10.2,0-15.4c0-0.1-0.2-0.4-0.3-0.5c-0.3-0.3-1.9-2.3-2.2-2.6
	c0,0,1.3,1.2,1.3,1.1c0.3,0.2,0.8,0.9,1.1,1.1c0.1-0.1,0.1-0.2,0.1-0.2c0-2.8,0-5.8,0-8.5v-0.1c-0.7-0.6-1.3-1.3-2-2
	C71.4,36.3,71.4,36.3,71,36.6z"/>
</svg>
