<?xml version="1.0" encoding="utf-8"?>
<!-- Generator: Adobe Illustrator 28.1.0, SVG Export Plug-In . SVG Version: 6.00 Build 0)  -->
<svg version="1.1" id="레이어_1" xmlns="http://www.w3.org/2000/svg" xmlns:xlink="http://www.w3.org/1999/xlink" x="0px"
	 y="0px" viewBox="0 0 177.4 85.5" style="enable-background:new 0 0 177.4 85.5;" xml:space="preserve">
<style type="text/css">
	.st0{fill:#FFFFFF;}
</style>
<path class="st0" d="M65,30.2H18.6v16H65L65,30.2z M9.1,21.8h65.3v32.8H9.1V21.8z M2.2,4.6h79V13h-79L2.2,4.6z M24.3,56
	c3.5,4.8,6.6,10.7,9.3,17.5h16.5c3.3-5.3,6.2-11.1,8.6-17.5l9.5,3.3c-2.5,5.4-5.2,10.1-8,14.2h23.2v8.3H0v-8.3h24.3
	c-2.2-4.4-5.1-9.1-8.7-14.2L24.3,56z M157.9,19.3c1.6,5.1,3.1,11.3,4.4,18.5h2.5c1.8-5.6,3.4-11.9,4.7-18.9l6.1,2.1
	c-1.3,6.3-2.9,11.9-4.5,16.8h6.3v7.6h-9.7v11.3h8.4V64h-8.4v21.5H160V64h-7.6v-7.3h7.6V45.4h-9.1v-7.6h5.2c-1-5-2.3-10.4-4.1-16.4
	L157.9,19.3z M165.1,0c0.9,3.1,1.7,6.6,2.5,10.5h9.1v7.3h-25.8v-7.3h9.8c-0.8-3.2-1.8-6.4-2.8-9.5L165.1,0z M146.6,0.7l5.1,5.9
	c-1.5,0.8-3.1,1.5-4.7,2c0.3,16,0.9,28.7,1.9,38.2c0.9,9.9,2.6,20.2,5.1,31.1l-5.5,5.4c-2.8-13-4.6-25.2-5.6-36.5
	c-1-10.9-1.6-22.9-1.7-36.2c-1.4,0.4-2.9,0.9-4.4,1.2v59.7c0.9-0.2,1.7-0.5,2.6-0.7c-0.4-2.9-0.7-5.6-1.1-8.2l4-1
	c1.1,6.2,2,13.3,2.9,21.4l-4.4,1.1c-0.3-2.4-0.5-4.7-0.8-7.1c-4.5,1.5-9.5,2.8-14.9,3.8l-0.8-6.9c2.2-0.2,4.4-0.5,6.5-1V12.8
	c-1.4,0.2-2.7,0.4-4,0.6v34.2c0,5.7-0.6,11.9-1.9,18.4c-1.2,6.1-3.1,12.3-5.7,18.7l-5.4-5.5c2.4-5.1,4.2-10.7,5.5-16.9
	c0.9-5.8,1.4-10.7,1.4-14.7V7.3C132.7,6,141.2,3.8,146.6,0.7 M108.1,0c0.9,3.5,1.7,7,2.3,10.5h8.9v7.3H93.6v-7.3h9.4
	c-0.8-3.3-1.6-6.5-2.5-9.5L108.1,0z M100.9,18.9c1.4,5.2,2.7,11.5,3.8,18.9h3c1.4-5.6,2.7-11.9,3.8-18.9l6.1,2.1
	c-1.1,6.3-2.4,11.9-3.7,16.8h4.5v7.3h-8.8c-0.1,3.1-0.2,6.1-0.4,9.2c3.2-0.5,6.1-1.1,8.8-2v6.9c-2.4,0.9-5.6,1.8-9.7,2.6
	c-0.3,2.5-0.7,4.7-1.2,6.6c-1.2,5.8-4.1,11.2-8.7,16.3l-5.1-6.2c3.3-3.7,5.5-7.6,6.7-11.7c0.3-1.1,0.6-2.3,0.8-3.6
	c-2.6,0.4-5.3,0.8-8.3,1.2l-1-8.4c3.6-0.1,7.1-0.3,10.3-0.6c0.2-3.1,0.4-6.5,0.5-10.2h-9v-7.3h5.2c-0.9-5.1-2.1-10.7-3.7-16.8
	L100.9,18.9z"/>
</svg>
