<svg xmlns="http://www.w3.org/2000/svg" xml:space="preserve" width="729.57703" height="729.578" x="0px" y="0px" version="1.0" viewBox="0 0 729.57703 729.578"><path fill="#fff" fill-rule="evenodd" d="M0 383.636V346.55c.84-.568.538-1.462.582-2.221 1.245-22.187 4.324-44.11 9.714-65.674 21.39-85.569 67.466-154.879 138.169-207.458C204.59 29.46 267.92 6.384 337.685.993c2.746-.21 5.625.289 8.256-.993h37.087c.438.818 1.24.536 1.894.57 22.497 1.198 44.717 4.379 66.573 9.832 75.571 18.86 139.097 57.641 189.841 116.661 52.043 60.53 80.944 130.94 87.245 210.587.25 3.163-.228 6.436.996 9.507v36.478c-.818.432-.556 1.228-.592 1.888-1.253 22.288-4.401 44.307-9.807 65.966-18.863 75.571-57.642 139.101-116.662 189.844-60.53 52.045-130.941 80.946-210.588 87.247-3.165.25-6.437-.228-9.508.998h-35.872c-.566-.843-1.46-.54-2.22-.582-22.187-1.248-44.109-4.325-65.674-9.716-85.569-21.389-154.88-67.465-207.459-138.168C29.46 524.987 6.383 461.657.992 391.891c-.212-2.745.289-5.623-.992-8.255Zm629.949 92.415c-1.04-1.691-1.72-2.811-2.412-3.918-44.597-71.33-89.198-142.658-133.797-213.986-7.137-11.417-14.331-22.799-21.366-34.278-1.49-2.433-2.318-2.172-3.379.106-.086.182-.199.353-.307.524-41.3 65.987-82.605 131.97-123.874 197.979-1.031 1.65-1.963 2.641-4.194 2.635-46.206-.081-92.409-.059-138.615-.083-.822 0-1.802.414-2.584-.57.506-.857.992-1.725 1.519-2.568 9.337-14.938 18.74-29.833 27.954-44.845 1.429-2.325 2.976-2.998 5.585-2.991 30.296.09 60.594.034 90.889.107 2.197.004 3.44-.679 4.591-2.547 9.395-15.257 18.903-30.444 28.352-45.669.447-.72 1.501-1.491.833-2.353-.344-.442-1.494-.339-2.281-.339-66.267-.014-132.533-.005-198.801-.054-1.879-.001-2.89.666-3.847 2.215-9.471 15.331-19.023 30.61-28.528 45.919-.45.727-1.488 1.478-.926 2.368.517.819 1.679.394 2.549.395 13.173.021 26.345.016 39.518.016.709 0 1.419.009 2.127.01 1.14.006 1.51.432.836 1.475-.439.679-.848 1.381-1.275 2.066-19.804 31.673-39.613 63.345-59.393 95.034-.611.978-1.629 1.818-1.533 3.353h3.043c85.924 0 171.849-.015 257.771.064 2.588.002 3.892-.877 5.213-3.002 31.432-50.431 62.938-100.809 94.433-151.202.849-1.355 1.697-2.712 2.64-4.22.459.536.752.803.957 1.127 11.12 17.762 22.21 35.542 33.363 53.281 1.344 2.136.368 2.239-1.444 2.23-7.903-.044-15.811.064-23.713-.07-2.194-.039-3.428.659-4.591 2.534-9.343 15.053-18.813 30.025-28.208 45.043-.563.898-1.835 1.838-1.265 2.873.565 1.027 2.033.451 3.089.451 28.371.025 56.744.066 85.115-.048 2.862-.011 4.493.776 6.027 3.271 9.329 15.18 18.899 30.207 28.269 45.363 1.126 1.817 2.324 2.354 4.354 2.344 16.819-.073 33.639-.04 50.458-.04h6.848zM187.625 272.302h2.47c68.26 0 136.521-.008 204.779.046 1.869.001 2.896-.613 3.854-2.157 9.713-15.647 19.497-31.249 29.237-46.875.338-.546 1.045-1.048.526-2.013h-1.737c-68.259 0-136.52.009-204.778-.039-1.848-.001-2.887.575-3.859 2.147-9.006 14.535-18.1 29.016-27.165 43.515-1.006 1.61-1.998 3.228-3.327 5.376z" clip-rule="evenodd"/></svg>