<?xml version="1.0" encoding="utf-8"?>
<!-- Generator: Adobe Illustrator 28.1.0, SVG Export Plug-In . SVG Version: 6.00 Build 0)  -->
<svg version="1.1" id="_레이어_1" xmlns="http://www.w3.org/2000/svg" xmlns:xlink="http://www.w3.org/1999/xlink" x="0px"
	 y="0px" viewBox="0 0 512 465.9" style="enable-background:new 0 0 512 465.9;" xml:space="preserve">
<style type="text/css">
	.st0{fill:#FEFEFE;}
</style>
<path class="st0" d="M153.1,465.8c0.7-2.2,2.8-3.2,4.4-4.5c12.8-10.6,25.8-21.1,38.6-31.6c1.2-0.9,2.3-1.9,3.3-3
	c6.5-7.3,5-14-4.1-17.9c-19.8-8.6-39.7-17-59.6-25.6c-15.5-6.7-16.5-8.8-9.9-24.4c23.4-55.4,48.5-110.1,72.5-165.3
	c3.6-8.2,8.1-9.7,17-5.9c56,24.2,112,48.4,168,72.7c39.3,17.1,78.7,34.2,118,51.4c3.6,1.6,7.1,3.5,10.7,5.3v15
	c-1,2.1-2.1,4.1-3.1,6.2c-18.7,42.6-37.3,85.2-55.9,127.8h-37c0.5-1.8,2.4-2.1,3.6-3.1c8.8-7.3,11.4-19.7,5.9-29.7
	c-5.5-10-17.4-14.6-28.2-10.9c-10.7,3.6-17.1,14.6-15.5,25.9c1.1,8.1,6.4,13.1,12.3,17.8H275c-0.4-6-0.5-11.9-1.1-17.9
	c-0.8-7.4-12.4-12.6-18.3-8c-10.7,8.4-21.1,17.2-31.6,25.8L153.1,465.8L153.1,465.8z"/>
<path class="st0" d="M0.1,265.9c2.7-2.7,3.4-6.3,4.8-9.6c17.7-40.5,35.3-81.1,52.9-121.6c1.4-3.2,3-6.3,5.7-8.7
	c6.2-5.4,13.7-5.2,19.1,0.9c26.6,30.3,53.1,60.6,79.6,90.9c6,6.9,7.2,13.9,3.3,22.5c-10.1,22.4-19.8,45-29.6,67.6
	c-2.8,6.4-7.1,9.8-14.4,10.3c-31.4,2-62.8,4.4-94.1,6.7c-9.1,0.7-18.3,1.3-27.4,2L0.1,265.9L0.1,265.9z"/>
<path class="st0" d="M511.9,294.9c-34.3-1-61.4-15.3-79.5-44.6c-34.7-56.4,1.4-130.4,67-138.4c4.1-0.5,8.3-0.6,12.4-0.9v52
	c-2,0.2-4,0.4-5.9,0.7c-19.5,2.7-34.1,18.7-34.9,38.2c-0.8,19.1,12.5,36.3,31.5,40.6c3.1,0.7,6.2,1,9.3,1.4L511.9,294.9L511.9,294.9
	z"/>
<path class="st0" d="M412.3,103c0,57.2-46,103.2-103.2,103.1c-56.9-0.1-103-46.1-103-102.9C206,46.3,252.4,0,309.4,0
	C366.2,0,412.3,46.1,412.3,103L412.3,103z M355.3,110c0.4-26.1-20.5-47.5-46.7-47.9c-25.5-0.4-47.2,20.6-47.6,46
	c-0.4,26.6,20.2,48.2,46.5,48.6C333.6,157.1,355,136.3,355.3,110z"/>
</svg>
