<?xml version="1.0" encoding="utf-8"?>
<!-- Generator: Adobe Illustrator 28.3.0, SVG Export Plug-In . SVG Version: 6.00 Build 0)  -->
<svg version="1.1" id="레이어_1" xmlns="http://www.w3.org/2000/svg" xmlns:xlink="http://www.w3.org/1999/xlink" x="0px"
	 y="0px" viewBox="0 0 1600 1600" style="enable-background:new 0 0 1600 1600;" xml:space="preserve">
<style type="text/css">
	.st0{fill:#FFFFFF;}
</style>
<path class="st0" d="M1600,800c0-441.8-358.2-800-800-800C358.2,0,0,358.2,0,800c0,375.2,258.3,690,606.7,776.5v-532H441.6V800
	h165.1V694.7c0-272.3,123.2-398.4,390.4-398.4c50.5,0,137.9,9.9,173.7,19.8v221.4c-18.9-1.9-51.8-2.9-92.5-2.9
	c-131.2,0-181.8,49.6-181.8,178.9V800h261.5l-44.8,244.5H897v549.7C1293.1,1546.3,1600,1209,1600,800z"/>
</svg>
