<?xml version="1.0" encoding="utf-8"?>
<!-- Generator: Adobe Illustrator 28.0.0, SVG Export Plug-In . SVG Version: 6.00 Build 0)  -->
<svg version="1.1" id="_레이어_1" xmlns="http://www.w3.org/2000/svg" xmlns:xlink="http://www.w3.org/1999/xlink" x="0px"
	 y="0px" viewBox="0 0 800 752" style="enable-background:new 0 0 800 752;" xml:space="preserve">
<style type="text/css">
	.st0{fill:#4AA1CD;}
	.st1{fill:#92C6E1;}
	.st2{fill:#132833;}
</style>
<path class="st0" d="M0.1,502c4.2-2.1,2.5-6.7,4-10c0.6-1.4,0.4-3.2,2-4.1c0.1,0.7,0.3,1.5,0.4,2.2c0.3-0.3,0.8-0.5,0.9-0.9
	c0.4-1.2-0.6-1.1-1.3-1.3c-0.1-1.5,0.7-2.4,2-3.1c2.1,0.1,3.2-1.1,4.4-2.7c3.7-4.7,6.6-9.9,11.6-13.4c1.7-1.2,0.8-2-0.1-3
	c8.2-5.5,16.8-9.9,27.1-9c1.8,0.1,2.9-0.6,3-2.5c0-1,0.1-2,0.1-3c-0.4-35.1,4.5-69.6,14-103.3c3.9-13.9,9.5-27.3,15.3-40.6
	c7.6-17.6,16.1-34.6,26.7-50.5c9.4-14.2,20-27.7,31-40.7c10.1-11.9,21.1-22.6,32.3-33.3c5.9-5.6,13-9.5,19.1-14.7
	c7-6,15.4-10,22.6-15.4c14.9-11.1,31.3-19.1,48.1-26.5c2.8-1.2,3.1-2.5,1.5-4.8c-7.7-11.3-9.2-23.9-8.7-37.2
	C257,67.9,276.9,52,293,55.6c6.4,1.4,12,0.5,17.4-2.8c1.8-1.1,4-1.4,6.3-1.4c6.9-0.1,13.3,2.1,18.7,6.1c3.6,2.6,6.5,2.3,10.1,1.1
	c8.9-3,17.5-6.9,26.7-9c5.7-1.3,11.4-2.1,17.2-3.1c10-1.7,20-2.6,30.2-2.3c12,0.4,23.8,2.4,35.5,4.5c12.9,2.3,25.9,5.3,37.7,11.1
	c10.3,5,21.3,8.1,30.9,14.9c6.1,4.3,13.4,7.2,19.7,11.5c6.3,4.2,11.9,9.1,17.4,14.4c4.7,4.5,10.7,7.6,14.1,13.6
	c4.5,8,5.8,16.3,2.9,24.9c-1.4,4.1-1,6.3,3.4,8.1c6.1,2.5,10.7,7.6,16.1,11.3c8.5,5.8,16.9,11.7,24.8,18.1
	c7.3,5.9,15.1,11.5,21,18.6c7.3,8.7,16.8,15.3,23,25.1c4,6.3,9.5,11.8,14,18c10.1,13.9,19.4,28.4,27.8,43.5
	c6,10.8,11,22.2,15.7,33.6c5.6,13.5,10.8,27.3,14.3,41.5c4.5,17.9,8.4,35.9,9.7,54.4c1,14,3.3,27.8,2.4,41.9
	c-0.1,1.8,0.1,2.9,2.5,3.3c6.8,1.1,13,3.3,19.4,6.4c10.5,5.1,16.5,13.5,22.7,22.4c0.7,1,1,2.4,1.4,3.7c1,3.1-1.4,7.8,3.9,9.1v166
	c-1.5,0.1-2.6,0.5-3.1,2.4c-0.7,2.9-1,5.7-0.9,8.7c-2.1,4-3.7,8.4-6.5,11.9c-11.1,13.9-25.4,20.6-43.7,20.6
	c-172.6-0.3-345.2-0.2-517.8-0.2c-58.3,0-116.6-0.1-174.9,0c-10.9,0-20.7-2.5-29.4-9.1c0.5-0.4,1-0.8,1.4-1.2c0.5,0.8,0.9,1.7,2,1.6
	c0.1,0,0.3-0.3,0.3-0.3c-0.4-1-1.4-1.1-2.3-1.3c-0.7-3.2-3.6-4.6-5.5-6.9c-4.8-5.6-10.3-10.8-12.6-18.2c-1.1-3.7-1.9,0.6-3,0.2
	c-2.1-3-0.4-7.6-3.9-10.1L0.1,502L0.1,502z M400.5,685.1L400.5,685.1c114.1,0,228.2,0,342.4,0c5.4,0,10.6-0.2,15.9-2.5
	c10.2-4.5,18.8-15.8,18.8-27c0-47.8-0.1-95.6,0-143.5c0-4.9-1.1-9.3-2.4-14c-3.1-10.7-16.2-19.7-27.6-19.2c-5.7,0.2-11.4-0.2-17,0.2
	c-4.7,0.4-6.5-1.1-5.5-5.8c2.6-12.1,0.5-24.4,0.9-36.6c0.7-21.8-3.1-43.4-7.9-64.7c-3.4-15.1-7.6-29.9-13.4-44.1
	c-5.3-13.1-11.2-26-17.9-38.5c-10.4-19.7-22.8-37.9-37.1-54.7c-29.4-34.5-64.5-61.8-105.4-81.5c-1.5-0.7-3.2-1.4-3.2-3.5
	c0-2,1.5-2.8,3-3.6c4.2-2.2,7.3-5.9,9.9-9.7c4.2-6.1,3.7-8.6-1.3-14c-5.7-6.1-12.5-10.9-19.3-15.6c-10.1-6.9-20.6-13.3-31.6-18.8
	c-11.3-5.7-23.1-9.7-35-13.5c-10.4-3.3-21.3-4.7-32.1-6.2c-24.2-3.3-47.7-0.3-70.8,6.8c-9.3,2.8-18,7.4-26.2,12.7
	c-1.8,1.2-2.9,1.2-3.9-0.9c-2.3-5.1-6.8-8.2-11-11.4c-4.3-3.3-10.6-2-12.8,3c-1.9,4.4-4.7,4.5-7.9,2.5c-4.1-2.6-8.5-2.7-12.9-3
	c-5.9-0.3-10.2,4.3-10.3,10.2c-0.2,13.9,4.9,25.3,16.4,33.4c1.9,1.3,2.3,2.7,0.9,4.6c-2.9,3.6-5.5,7.5-7.6,11.7
	c-0.9,1.8-2.5,3.5-4.7,4.3c-11.6,4.5-22.8,9.6-33.9,15.4c-19,9.9-36.6,21.8-53.1,35.3c-20,16.4-38.1,34.7-53.6,55.5
	c-15.1,20.2-27.9,41.6-38.2,64.6c-3,6.7-5.1,13.7-7.9,20.3c-4.4,10.1-7.1,20.6-9.9,31c-3.1,11.7-5.5,23.7-7,35.7
	c-3,24.5-4.2,49.1-1.3,73.7c0.5,4.2-0.4,5.7-4.8,5.4c-7.3-0.4-14.7-0.3-22-0.2c-14.7,0.1-28.3,14-28.3,28.8c0,49.5,0,99,0,148.4
	c0,4.3,0.5,8.9,2.7,12.4c6.1,9.9,14.9,16.5,27.1,16.5C169.3,685.2,284.9,685.1,400.5,685.1L400.5,685.1z"/>
<path class="st1" d="M799.9,670.9c-2.8-0.1-2.5,2.8-4,4c-0.2-2.9,0.1-5.8,0.9-8.7c0.5-1.9,1.5-2.2,3.1-2.4V670.9L799.9,670.9z"/>
<path class="st1" d="M799.9,498c-5.4-1.3-2.9-5.9-3.9-9.1c1.1,1.2,1.1,4,3.9,3.1V498z"/>
<path class="st1" d="M24,465.9c0.9,0.9,1.8,1.8,0.1,3c-5,3.5-8,8.7-11.6,13.4c-1.2,1.5-2.4,2.7-4.4,2.7c1.1-5.6,5.9-8.7,9-12.9
	C18.8,469.5,21.6,467.9,24,465.9L24,465.9z"/>
<path class="st2" d="M400.5,685.1c-115.6,0-231.2,0-346.9,0c-12.2,0-21-6.6-27.1-16.5c-2.1-3.4-2.7-8.1-2.7-12.4
	c0-49.5,0-99,0-148.5c0-14.8,13.6-28.7,28.3-28.8c7.3-0.1,14.7-0.2,22,0.2c4.4,0.2,5.3-1.3,4.8-5.4c-3-24.6-1.7-49.2,1.3-73.7
	c1.5-12,3.8-24,7-35.7c2.8-10.5,5.5-21,9.9-31c2.9-6.6,5-13.6,7.9-20.3c10.2-23,23.1-44.4,38.2-64.6c15.5-20.8,33.6-39.1,53.6-55.5
	c16.5-13.5,34.1-25.4,53.1-35.3c11-5.8,22.3-10.9,33.9-15.4c2.2-0.8,3.7-2.5,4.7-4.3c2.1-4.2,4.7-8,7.6-11.7c1.5-1.8,1-3.2-0.9-4.6
	c-11.5-8.1-16.6-19.4-16.4-33.4c0.1-5.9,4.4-10.5,10.3-10.2c4.4,0.2,8.9,0.4,12.9,3c3.1,2,6,1.8,7.9-2.5c2.2-5,8.5-6.3,12.8-3
	c4.2,3.2,8.6,6.3,11,11.4c1,2.1,2.1,2,3.9,0.9c8.2-5.3,17-9.8,26.2-12.7c23-7.1,46.6-10.1,70.8-6.8c10.9,1.5,21.8,2.9,32.1,6.2
	c11.9,3.8,23.7,7.8,35,13.5c11,5.5,21.5,11.9,31.6,18.8c6.8,4.7,13.6,9.4,19.3,15.6c5,5.4,5.4,8,1.3,14c-2.6,3.8-5.6,7.4-9.9,9.7
	c-1.5,0.8-3,1.6-3,3.6c0,2,1.7,2.8,3.2,3.5c40.9,19.7,76,47,105.4,81.5c14.3,16.8,26.7,35.1,37.1,54.7c6.7,12.6,12.6,25.4,17.9,38.5
	c5.8,14.2,10,29.1,13.4,44.1c4.8,21.3,8.7,42.8,7.9,64.7c-0.4,12.2,1.7,24.5-0.9,36.6c-1,4.7,0.8,6.1,5.5,5.8c5.6-0.4,11.3,0,17-0.2
	c11.3-0.5,24.5,8.5,27.6,19.2c1.4,4.6,2.5,9.1,2.4,14c-0.1,47.8,0,95.6,0,143.5c0,11.1-8.6,22.4-18.8,27c-5.4,2.4-10.5,2.5-15.9,2.5
	C628.7,685.1,514.6,685.1,400.5,685.1L400.5,685.1L400.5,685.1z M424.7,346.4c1.1-0.7,2.2-1.4,3.3-2.2c5.2,3.6,10.4,7.6,13.1,13.3
	c2.2,4.5,3.7,3.1,6.4,1.1c11.9-9.2,22.5-19.6,30.4-32.6c1.5-2.6,5.4-5.6,2.4-8.1c-2.8-2.4-5.5,1.6-7.7,3.5
	c-11.3,9.2-24,15.6-37.7,20.3c-0.4,0-0.7,0-1.1,0c-2,0.3-4.1,0.3-5.9,1.3c-1.6-0.1-3,0.4-3.8,1.9c-8,0.6-15.8,2.5-23.8,2.1
	c-1-0.1-2.5-0.7-3.1,0.7c-0.6,1.4,0.2,2.6,1.1,3.6c3.2,3.6,6.5,7.1,9.8,10.7c1.4,1.5,3.5,2.2,4.7,0.2
	C416.1,356.5,421.6,352.4,424.7,346.4L424.7,346.4z M465.4,372.5c-0.6-0.8-1.3-1.3-2.4-0.9c-1.7-0.6-3.3-0.5-5,0
	c-1.1-0.5-1.8,0.1-2.5,0.9c-10.3,4.2-10.6,16.1-3.3,22.1c3.7,3.1,8,4.7,12.9,2.2c5.1-2.6,8.6-6.6,8.5-12.4
	C473.6,378.8,470.9,374.5,465.4,372.5z M400.5,667L400.5,667c115.3,0,230.6,0,345.9,0c9.8,0,13.7-4.5,13.7-14.8
	c-0.1-46.6-0.1-93.3,0-139.9c0-11.4-3.6-15.4-15.1-15.4c-30.5,0-61,0-91.5,0c-33.1,0-66.3-0.1-99.4-0.3c-2.9,0-4.3,1.5-5.4,3.6
	c-4.5,8-10.2,14.7-18.8,18.5c-1.4,0.6-2.9,1.6-2.4,3.2c0.4,1.4,2.4,1,3.6,0.8c7.1-0.6,14,0.4,20.7,2.3c12.4,3.5,21.8,11.5,25.2,23.6
	c4.6,16.1,2,32.5-16.1,43.4c-2.9,1.8-3.3,3-1.2,6.2c8.5,12.7,16.5,25.7,24.6,38.7c1.6,2.6,0.9,4-2.4,4c-11.3,0-22.7,0-34-0.1
	c-2.4,0-4.6-0.5-5.7-3.1c-4.7-10.6-9.5-21.2-14.3-31.8c-0.9-2.1-1.8-5.5-4.2-4.8c-2.9,0.7-1.7,4.2-1.4,6.5c0.9,9.5,0.1,19,0.4,28.5
	c0.1,3.5-1.5,4.9-5.2,4.8c-8-0.2-16,0-24,0c-6,0-6.5-0.6-6.5-6.7c0-34.2,0-68.3,0-102.5c0-2.3-0.4-4.8,0.9-6.9c1.9-3,0.2-4-2.1-5.2
	c-8.3-4.3-15-10.5-19.8-18.5c-2-3.3-4.1-4.5-8-4.4c-24.3,0.2-48.6,0.2-73-0.1c-3.8,0-6,1-8.3,4c-10.9,14.6-26.8,19.9-43.8,19.7
	c-14.5-0.2-28-6.1-38-17.4c-4.2-4.8-8.5-6.3-14.9-6.3C206.9,497,133.8,497,60.6,497c-3.3,0-6.7-0.2-10,0.2c-5,0.6-9,4.4-9.2,9
	c-0.7,17.4,0.8,34.8-0.8,52.3c-0.7,7.2,0.5,14.6,0.6,21.9c0.5,24.3,0.4,48.7-0.1,73c-0.2,8.6,4.5,13.8,14,13.8
	C170.3,667,285.4,667,400.5,667L400.5,667z M636.5,479.4c0-0.1,0-0.1,0-0.2c22.3,0,44.6,0,67,0c2.5,0,5.3,0.8,5.6-3.6
	c2.4-35.6,0.6-70.8-8-105.5c-3.9-16-9.6-31.7-15.9-46.9c-10.1-24.4-24.7-46.2-40.3-67.3c-13.3-18-29.2-33.7-46.4-48
	c-23-19.2-47.9-35.2-75.8-46.5c-4.7-1.9-7.8,1.6-11.7,2.3c-1.5,0.3-0.7,2.2-0.1,3.4c7.7,14.4,12.4,29.8,13.8,46
	c1.3,15.3,1.1,30.9-3.3,45.6c-4.9,16.2-12.7,31.4-23.5,44.8c-6.3,7.8-6.1,8,2.1,14.3c0.1,0.1,0.3,0.2,0.4,0.3
	c27.3,19.5,44.2,46,53.1,78c3.6,13,5.6,26.3,7.4,39.6c1.7,12.8,2.2,25.9,3.1,38.8c0.2,3.3,1.1,5.1,5,5.1
	C591.5,479.3,614,479.4,636.5,479.4L636.5,479.4z M162.1,479.1c0,0,0,0.1,0,0.1c20.8,0,41.7-0.1,62.5,0.1c3.6,0,5.2-1,5.2-4.7
	c0.1-11.3,1.5-22.5,3.3-33.7c1.5-9.4,3.7-18.6,6.2-27.7c2.6-9.5,6.1-18.9,9.8-28.1c9.8-24,23.4-45.1,44.4-60.9
	c3.3-2.5,6.9-4.7,10.1-7.3c3.8-3,3.5-4.8,0.2-8.4c-11.4-12.4-19.5-26.7-25.1-42.6c-4.2-12.1-6-24.5-7-37.1
	c-1.7-21.2-1.4-42.2,5.8-62.6c0.3-0.9,0.9-1.9,0.1-2.8c-1-1.1-2.2-0.4-3.1,0.2c-4.6,3-9.9,4.7-14.7,7.3c-25.6,13.8-49,30.7-70,50.8
	c-17,16.3-32.1,34.2-45.2,53.8c-14.2,21.4-25.4,44.4-33.9,68.6c-1.6,4.6-3.7,9.2-4.6,14.1c-1.5,7.6-3.8,15.1-5.4,22.7
	c-2.3,11.4-4.4,22.9-5.6,34.4c-1.9,19.6-1.1,39.3-0.3,58.9c0.2,4.1,1.6,4.9,5.3,4.9C120.7,479,141.4,479.1,162.1,479.1L162.1,479.1z
	 M511.8,227.8c-0.8-15.4-2.1-26.9-6.3-37.9c-3-8-5.8-16.2-11-23.2c-1.2-1.6-2.2-2.2-4.1-1.7c-15.3,4.2-31.1,5.4-46.8,6.9
	c-26.7,2.6-53.1,0.7-79.4-4.8c-12.9-2.7-25.4-6.1-37.3-11.7c-2.6-1.2-4-0.8-4.3,2.4c-1.1,14.8-5.3,28.5-12.4,41.6
	c-6,11-13,21.2-22.1,29.8c-1.8,1.8-2.3,3.3-2.2,5.6c0.4,7.3,1.8,14.4,3.8,21.5c3.8,13.8,9.7,26.6,18.4,37.8
	c19.9,25.8,45.9,41,78.6,44.8c16.6,1.9,32.6-0.6,48.1-5.7c9.3-3.1,17.8-8.4,26.2-13.9c19.4-12.6,33.3-29.5,43.7-49.8
	c1.2-2.4,0.8-4.3-2.6-4.1c-20,0.9-39.9,1.4-59.9,2.6c-26.6,1.6-53.2,2-79.8,4.5c-5.7,0.5-9.5,1.9-11.7,7c-1.2,2.8-3.4,2.2-5.5,1.6
	c-2.3-0.7-2.8-2.9-1.9-4.5c3.7-7.4,7.3-15,14-20.4c1.8-1.5,4.8-0.9,5,0.7c0.7,6.1,4.9,4.4,8.2,4.2c13.3-0.9,26.5-2.8,39.8-3.3
	c31.8-1.1,63.6-2.5,95.3-3.7c2.4-0.1,3.7-0.7,3.8-3.3C509.9,242,512.3,233.2,511.8,227.8L511.8,227.8z M335.5,513
	c6.8,0.7,13.3-1.5,18.9-4.1c15.3-7.2,24.1-20,26.5-36.8c1.2-8.7-0.9-17.1-5.7-24.2c-9.6-14.1-24.6-17-40.2-17.7
	c-5.7-0.3-5.9-0.3-5.6-5.9c0.4-7.8-0.1-15.6-3.8-22.8c-3.6-7-11.3-11-18.6-9.4c-8.5,1.8-12.4,6.7-12.6,15.9c-0.1,2.3-0.1,4.7,0,7
	c0.4,15.4,0,30.6-5.1,45.4c-2.8,8.3-1.2,16.5,2,23.9C299.7,503.1,315.7,511.2,335.5,513L335.5,513z M547,475.1
	c0.9-7.7-3-15.4-4-23.7c-2.1-16-2.2-32.2-3.2-48.3c-0.5-7.8-4-12.3-11.1-14c-8.3-2-15,0.6-19.2,6.7c-4.6,6.7-4.5,14.1-4,21.6
	c0.2,3.5-0.6,4.8-4.2,4.7c-4.6,0-8.8,2.2-12.5,4.5c-28.3,17.2-31.1,54.7-13,75.2c11.1,12.6,29.1,20.2,46.4,12.9
	C534.7,509.4,547.6,492.5,547,475.1L547,475.1z M323.9,321.2c-2.9,0.7-4.8,0.5-5.5,2.6c-0.6,1.8,0.1,3.1,1.7,4
	c0.8,0.5,1.5,1.3,2.1,2.1c12.4,16.5,27.7,29.4,46.7,37.8c3.4,1.5,5.6,1.4,7.3-2c2.8-5.5,5.8-10.8,10-15.4c0.8-0.9,1.6-2,1.2-3.1
	c-0.6-1.5-2.2-1.3-3.5-1.3c-4.2,0-8.4,0-12.4-1.2c-15.8-5.1-31.7-10.1-44.6-21.5C325.9,322.3,324.4,321.1,323.9,321.2L323.9,321.2z
	 M522.6,561.9c0,9.8,0,9.8,9.3,9.4c1.8-0.1,3.6-0.4,5.4-0.8c1.7-0.3,2.9-1.4,3.9-2.8c3.3-4.8,2.2-10.4-3-13.2
	c-4.6-2.5-10-2.2-14.5-0.8C520.7,554.7,523,559.5,522.6,561.9L522.6,561.9z M406.3,410c0,3.3,3.5,7.2,6.6,6.8
	c3.7-0.5,5.9-2.9,6.3-6.7c0.3-2.9-3.3-6.8-6.1-6.9C409.9,403.1,406.3,406.7,406.3,410L406.3,410z M419.1,384.5
	c-0.3-3.8-1.8-6.4-5.7-6.5c-4.2-0.1-7.1,2.8-7,6.6c0.2,3.5,3.5,6.7,6.9,6.4C417.3,390.7,418.8,387.9,419.1,384.5z"/>
<path class="st1" d="M23.7,698.1c-2.5-3.1-6-5.5-8.9-8c-4.9-4.2-5.9-10.5-10.1-14.8C4,674.7,4.2,673.2,4,672c1,0.4,1.8-3.8,3-0.2
	c2.3,7.4,7.8,12.6,12.6,18.2c1.9,2.2,4.9,3.6,5.5,6.9l0,0C24.6,697.3,24.2,697.7,23.7,698.1L23.7,698.1z"/>
<path class="st1" d="M6,487.9c0.7,0.2,1.7,0.1,1.3,1.3c-0.1,0.4-0.6,0.6-0.9,0.9C6.3,489.4,6.2,488.6,6,487.9L6,487.9L6,487.9z"/>
<path class="st1" d="M25.1,696.9c0.9,0.1,1.9,0.2,2.3,1.3c0,0.1-0.2,0.3-0.3,0.3C26,698.6,25.6,697.7,25.1,696.9
	C25.1,696.9,25.1,696.9,25.1,696.9z"/>
<path class="st1" d="M400.5,667c-115.1,0-230.2-0.1-345.4,0.1c-9.5,0-14.1-5.2-14-13.8c0.4-24.3,0.5-48.7,0.1-73
	c-0.1-7.3-1.3-14.7-0.6-21.9c1.7-17.4,0.2-34.9,0.8-52.3c0.2-4.6,4.2-8.5,9.2-9c3.3-0.4,6.6-0.2,10-0.2c73.1,0,146.3,0.1,219.4-0.3
	c6.4,0,10.7,1.5,14.9,6.3c10,11.3,23.4,17.2,38,17.4c17,0.2,32.9-5.1,43.8-19.7c2.3-3,4.5-4,8.3-4c24.3,0.2,48.6,0.2,73,0.1
	c3.8,0,6,1.1,8,4.4c4.8,8,11.5,14.2,19.8,18.5c2.3,1.2,4,2.2,2.1,5.2c-1.3,2-0.9,4.5-0.9,6.9c0,34.2,0,68.3,0,102.5
	c0,6,0.5,6.6,6.5,6.7c8,0,16-0.2,24,0c3.7,0.1,5.3-1.3,5.2-4.8c-0.3-9.5,0.5-19-0.4-28.5c-0.2-2.3-1.5-5.8,1.4-6.5
	c2.4-0.6,3.3,2.8,4.2,4.8c4.8,10.6,9.6,21.2,14.3,31.8c1.2,2.6,3.3,3.1,5.7,3.1c11.3,0.1,22.7,0,34,0.1c3.2,0,4-1.4,2.4-4
	c-8.1-12.9-16.1-26-24.6-38.7c-2.1-3.2-1.7-4.4,1.2-6.2c18-11,20.6-27.4,16.1-43.4c-3.4-12.1-12.8-20.1-25.2-23.6
	c-6.7-1.9-13.6-2.9-20.7-2.3c-1.2,0.1-3.1,0.6-3.6-0.8c-0.5-1.5,1-2.5,2.4-3.2c8.6-3.8,14.4-10.5,18.8-18.5c1.1-2,2.4-3.6,5.4-3.6
	c33.1,0.2,66.3,0.3,99.4,0.3c30.5,0,61,0,91.5,0c11.5,0,15.1,4,15.1,15.4c-0.1,46.6-0.1,93.3,0,139.9c0,10.3-3.9,14.8-13.7,14.8
	C631.1,667.1,515.8,667.1,400.5,667L400.5,667L400.5,667z M404.1,640.8C404.1,640.8,404.1,640.8,404.1,640.8c4.5,0,9,0,13.5,0
	c5.3,0,6.3-0.9,4.1-5.7c-3.7-8.2-5.7-17-8.7-25.5c-9.5-27.2-18.8-54.4-28.1-81.7c-1.4-4-3.4-5.9-7.9-5.9c-10.3,0-20.6,1.2-30.9,0.3
	c-2.4-0.2-4.1,1-4.9,3.3c-1.8,4.8-3.9,9.5-5.5,14.4c-10.7,32.1-21.3,64.3-32.9,96.1c-1.1,3-0.6,4.7,3.2,4.6c9.7-0.2,19.3-0.2,29,0
	c4.5,0.1,6.7-2,7.7-6.1c0.8-3.4,1.7-6.8,2.6-10.2c0.7-3,2.4-4.4,5.7-4.2c4.3,0.3,8.6,0.3,13,0.3c9.7,0,15.9,4.6,18.6,13.9
	c1.2,4.1,3.3,6.7,8.2,6.3C395,640.5,399.6,640.8,404.1,640.8L404.1,640.8z M230,581.5L230,581.5c0,18,0,36-0.1,54
	c0,3.9,0.7,5.7,5.2,5.5c8.1-0.4,16.3-0.2,24.5,0c3.8,0.1,5.5-1.2,5.4-5.2c-0.2-11,0.1-22-0.4-33c-0.2-4.4,1.3-5.5,5.3-5.4
	c8,0.3,16,0.2,24,0.4c2.4,0.1,4.5-0.4,4.9-3.1c1-7.1,1.9-14.2,2.8-21.3c0.3-2.8-0.9-4.3-4-4.3c-8,0.2-16,0.1-24,0.2
	c-8.4,0.2-8.4,0.2-8.7-7.7c0-0.7-0.2-1.3-0.2-2c-0.4-6.3-0.2-6.5,6-6.4c11.7,0.1,23.3,0,35,0.3c3.7,0.1,5-1.3,4.9-4.9
	c-0.2-7.2-0.1-14.3,0-21.5c0-3.6-1.4-4.9-5.1-4.9c-23.5,0.1-47,0.1-70.4,0c-3.8,0-5.2,0.8-5.1,5C230.1,545.2,230,563.3,230,581.5
	L230,581.5z M467.8,580.9C467.8,580.9,467.8,580.9,467.8,580.9c0-17.6-0.2-35.3,0.1-52.9c0.1-4.9-1.9-6-6.1-5.9
	c-8,0.1-16,0.1-24-0.1c-3.4-0.1-4.8,1.1-4.8,4.6c0.1,36.3,0.1,72.6,0,108.9c0,4.3,1.8,5.4,5.7,5.3c7.5-0.2,15-0.1,22.5-0.1
	c6.2,0,6.5-0.3,6.5-6.4L467.8,580.9L467.8,580.9z"/>
<path class="st0" d="M636.5,479.4c-22.5,0-45-0.1-67.5,0.1c-3.9,0-4.8-1.7-5-5.1c-0.9-12.9-1.4-26-3.1-38.8
	c-1.8-13.3-3.8-26.7-7.4-39.6c-8.9-31.9-25.8-58.5-53.1-78c-0.1-0.1-0.3-0.2-0.4-0.3c-8.2-6.3-8.4-6.5-2.1-14.3
	c10.9-13.4,18.6-28.6,23.5-44.8c4.5-14.7,4.6-30.3,3.3-45.6c-1.3-16.2-6-31.6-13.8-46c-0.7-1.2-1.4-3.2,0.1-3.4
	c3.9-0.7,7.1-4.2,11.7-2.3c27.9,11.3,52.8,27.4,75.8,46.5c17.2,14.3,33.1,30,46.4,48c15.5,21.1,30.1,42.9,40.3,67.3
	c6.3,15.3,12,30.9,15.9,46.9c8.5,34.7,10.4,69.9,8,105.5c-0.3,4.3-3.1,3.6-5.6,3.6c-22.3,0-44.6,0-67,0
	C636.5,479.2,636.5,479.3,636.5,479.4L636.5,479.4z"/>
<path class="st0" d="M162.1,479.1c-20.7,0-41.3-0.1-62,0.1c-3.7,0-5.2-0.8-5.3-4.9c-0.8-19.7-1.6-39.3,0.3-58.9
	c1.1-11.5,3.2-23,5.6-34.4c1.6-7.6,3.9-15.1,5.4-22.7c0.9-4.9,3-9.5,4.6-14.1c8.5-24.2,19.7-47.2,33.9-68.6
	c13-19.6,28.2-37.5,45.2-53.8c21-20.1,44.4-37,70-50.8c4.8-2.6,10.1-4.3,14.7-7.3c0.9-0.6,2.1-1.4,3.1-0.2c0.8,0.9,0.2,1.9-0.1,2.8
	c-7.2,20.4-7.5,41.4-5.8,62.6c1,12.6,2.8,25.1,7,37.1c5.6,15.9,13.7,30.2,25.1,42.6c3.3,3.6,3.5,5.3-0.2,8.4
	c-3.2,2.6-6.8,4.8-10.1,7.3c-21,15.8-34.6,36.9-44.4,60.9c-3.8,9.2-7.2,18.6-9.8,28.1c-2.5,9.1-4.7,18.3-6.2,27.7
	c-1.8,11.2-3.2,22.4-3.3,33.7c0,3.7-1.6,4.7-5.2,4.7c-20.8-0.2-41.7-0.1-62.5-0.1C162.1,479.1,162.1,479.1,162.1,479.1L162.1,479.1z
	"/>
<path class="st1" d="M511.9,227.8c0.5,5.3-1.9,14.2-2.3,23.1c-0.1,2.6-1.4,3.2-3.8,3.3c-31.8,1.2-63.5,2.6-95.3,3.7
	c-13.3,0.5-26.5,2.4-39.8,3.3c-3.3,0.2-7.5,1.9-8.2-4.2c-0.2-1.6-3.1-2.1-5-0.7c-6.7,5.4-10.3,12.9-14,20.4
	c-0.8,1.6-0.3,3.8,1.9,4.5c2.1,0.7,4.3,1.2,5.5-1.6c2.3-5.1,6.1-6.5,11.7-7c26.5-2.5,53.2-2.9,79.8-4.5c19.9-1.2,39.9-1.8,59.9-2.6
	c3.4-0.1,3.8,1.7,2.6,4.1c-10.4,20.2-24.4,37.2-43.7,49.8c-8.4,5.5-16.9,10.8-26.2,13.9c-15.5,5.2-31.5,7.7-48.1,5.7
	c-32.7-3.8-58.7-19-78.6-44.8c-8.7-11.3-14.6-24-18.4-37.8c-2-7.1-3.4-14.2-3.8-21.5c-0.1-2.3,0.3-3.9,2.2-5.6
	c9.1-8.6,16.1-18.8,22.1-29.8c7.1-13.1,11.3-26.8,12.4-41.6c0.2-3.2,1.7-3.6,4.3-2.4c11.9,5.7,24.4,9,37.3,11.7
	c26.3,5.5,52.7,7.5,79.4,4.8c15.7-1.5,31.5-2.8,46.8-6.9c1.9-0.5,2.9,0.1,4.1,1.7c5.3,7,8,15.1,11,23.2
	C509.8,200.9,511,212.5,511.9,227.8L511.9,227.8z M416.9,226.8c-1.9-9.4-2.5-18.9-5.3-28c-1-3.4-3.2-5.7-7-4.6
	c-3.7,1.1-6.1,4.1-5.2,7.9c2,7.9,3.5,15.8,4.1,24c0.1,1.4,0.9,2.8,1.7,4.1c1.5,2.4,3.3,4.8,6.8,3.7
	C415.5,232.8,416.5,229.9,416.9,226.8L416.9,226.8z M461.8,212.3c0.2,0,0.3,0,0.5,0c0-4.6,0.1-9.3,0-13.9c-0.1-3.9-2.3-6.4-6.2-6.4
	c-3.8,0-6.2,2.2-6.3,6.2c-0.3,9.1-0.5,18.2-0.6,27.4c0,3.4,1.4,5.9,5.3,5.7c3.4-0.2,6.7-0.8,6.7-5.5
	C461.3,221.2,461.6,216.8,461.8,212.3L461.8,212.3z"/>
<path class="st1" d="M335.5,513c-19.8-1.8-35.9-9.9-44.2-28.8c-3.2-7.3-4.9-15.6-2-23.9c5.1-14.7,5.5-30,5.1-45.4
	c-0.1-2.3,0-4.7,0-7c0.2-9.2,4.1-14.1,12.6-15.9c7.3-1.6,15,2.5,18.6,9.4c3.7,7.2,4.1,15,3.8,22.8c-0.3,5.6-0.1,5.6,5.6,5.9
	c15.7,0.7,30.6,3.6,40.2,17.7c4.8,7.1,6.9,15.5,5.7,24.2c-2.4,16.8-11.1,29.6-26.5,36.8C348.8,511.5,342.3,513.7,335.5,513
	L335.5,513z"/>
<path class="st1" d="M547,475.1c0.6,17.3-12.3,34.2-24.9,39.6c-17.3,7.4-35.2-0.3-46.4-12.9c-18.2-20.5-15.3-58,13-75.2
	c3.7-2.2,7.9-4.5,12.5-4.5c3.6,0,4.4-1.2,4.2-4.7c-0.5-7.5-0.6-14.9,4-21.6c4.2-6.1,10.9-8.8,19.2-6.7c7.1,1.7,10.6,6.2,11.1,14
	c1,16.1,1.1,32.2,3.2,48.3C544.1,459.7,547.9,467.4,547,475.1L547,475.1z"/>
<path class="st1" d="M323.9,321.2c0.5-0.1,2,1.1,3.1,2c12.8,11.4,28.8,16.4,44.6,21.5c3.9,1.3,8.2,1.2,12.4,1.2
	c1.3,0,2.9-0.2,3.5,1.3c0.4,1.1-0.4,2.3-1.2,3.1c-4.2,4.6-7.2,9.9-10,15.4c-1.7,3.4-3.9,3.5-7.3,2c-19-8.5-34.3-21.3-46.7-37.8
	c-0.6-0.8-1.2-1.6-2.1-2.1c-1.7-1-2.3-2.2-1.7-4C319.1,321.7,320.9,321.9,323.9,321.2L323.9,321.2z"/>
<path class="st1" d="M427.9,343.1c1.8-1,3.9-1,5.9-1.3c0.4,0,0.7,0,1.1,0c13.7-4.7,26.4-11.1,37.7-20.3c2.3-1.9,5-5.9,7.7-3.5
	c3,2.6-0.9,5.5-2.4,8.1c-7.8,13-18.5,23.3-30.4,32.6c-2.7,2.1-4.2,3.4-6.4-1.1c-2.8-5.7-7.9-9.7-13.1-13.3
	C428,343.9,428,343.5,427.9,343.1L427.9,343.1z"/>
<path class="st1" d="M458,371.6c1.7-0.5,3.3-0.6,5,0c0.4,1.3,1.3,1.4,2.4,0.9c5.5,2.1,8.2,6.4,8.3,11.8c0.1,5.8-3.4,9.8-8.5,12.4
	c-4.9,2.5-9.2,0.9-12.9-2.2c-7.3-6-7-18,3.3-22.1C456.6,373,457.5,372.8,458,371.6L458,371.6z"/>
<path class="st1" d="M522.6,561.9c0.4-2.5-1.9-7.2,1.1-8.2c4.5-1.5,9.9-1.7,14.5,0.8c5.2,2.8,6.3,8.4,3,13.2c-1,1.4-2.2,2.5-3.9,2.8
	c-1.8,0.4-3.6,0.7-5.4,0.8C522.6,571.8,522.6,571.7,522.6,561.9L522.6,561.9z"/>
<path class="st1" d="M424.7,346.4c-3.1,5.9-8.6,10.1-12,15.8c-1.2,2-3.2,1.3-4.7-0.2c-3.3-3.5-6.5-7.1-9.8-10.7
	c-0.9-1-1.7-2.2-1.1-3.6c0.6-1.4,2-0.7,3.1-0.7c8,0.4,15.9-1.6,23.8-2.1C424.3,345.5,424.5,346,424.7,346.4L424.7,346.4z"/>
<path class="st1" d="M406.3,410c0-3.3,3.7-6.9,6.8-6.8c2.8,0.1,6.4,4,6.1,6.9c-0.3,3.8-2.6,6.2-6.3,6.7
	C409.8,417.2,406.2,413.3,406.3,410L406.3,410z"/>
<path class="st1" d="M419.1,384.5c-0.3,3.4-1.7,6.2-5.8,6.5c-3.5,0.3-6.7-2.9-6.9-6.4c-0.2-3.9,2.8-6.7,7-6.6
	C417.3,378.1,418.7,380.7,419.1,384.5z"/>
<path class="st0" d="M424.7,346.4c-0.2-0.5-0.4-1-0.7-1.4c0.8-1.5,2.2-2,3.8-1.9c0.1,0.4,0.1,0.8,0.2,1.2
	C427,345,425.8,345.7,424.7,346.4z"/>
<path class="st0" d="M465.4,372.5c-1.1,0.5-2,0.4-2.4-0.9C464.1,371.1,464.8,371.6,465.4,372.5z"/>
<path class="st0" d="M458,371.6c-0.5,1.2-1.3,1.4-2.5,0.9C456.2,371.7,456.9,371.1,458,371.6z"/>
<path class="st0" d="M434.9,341.7c-0.4,0-0.7,0-1.1,0C434.2,341.8,434.5,341.8,434.9,341.7z"/>
<path class="st2" d="M404.1,640.8c-4.5,0-9-0.3-13.5,0.1c-4.8,0.4-7-2.2-8.2-6.3c-2.7-9.3-8.9-13.9-18.6-13.9c-4.3,0-8.7,0-13-0.3
	c-3.3-0.2-5,1.2-5.7,4.2c-0.8,3.4-1.8,6.8-2.6,10.2c-1,4.1-3.2,6.2-7.7,6.1c-9.7-0.2-19.3-0.2-29,0c-3.8,0.1-4.3-1.6-3.2-4.6
	c11.7-31.8,22.2-64,32.9-96.1c1.6-4.9,3.7-9.6,5.5-14.4c0.9-2.4,2.5-3.6,4.9-3.3c10.3,0.9,20.6-0.3,30.9-0.3c4.5,0,6.6,1.9,7.9,5.9
	c9.3,27.3,18.6,54.5,28.1,81.7c3,8.5,5,17.2,8.7,25.5c2.2,4.8,1.2,5.7-4.1,5.7C413.1,640.8,408.6,640.8,404.1,640.8
	C404.1,640.8,404.1,640.8,404.1,640.8L404.1,640.8z M362.2,596.4c1.5,0,3-0.1,4.5,0c3.8,0.4,4.8-0.6,3.9-4.7
	c-1.5-7.1-4.8-13.6-6.1-20.7c-0.2-1.2-0.2-3-1.9-3c-1.2,0-2.3,1.3-2.7,2.7c-0.5,1.6-0.9,3.1-1.2,4.8c-0.7,3.6-1.3,7.1-2.9,10.5
	C351.8,594.8,352.9,596.3,362.2,596.4L362.2,596.4z"/>
<path class="st2" d="M230,581.5c0-18.2,0.1-36.3-0.1-54.5c-0.1-4.2,1.4-5,5.1-5c23.5,0.1,47,0.2,70.4,0c3.7,0,5.1,1.3,5.1,4.9
	c-0.1,7.2-0.1,14.3,0,21.5c0.1,3.7-1.2,5-4.9,4.9c-11.7-0.2-23.3-0.2-35-0.3c-6.3,0-6.5,0.1-6,6.4c0,0.7,0.2,1.3,0.2,2
	c0.4,8,0.4,7.9,8.7,7.7c8-0.1,16-0.1,24-0.2c3.1-0.1,4.4,1.4,4,4.3c-0.8,7.1-1.8,14.2-2.8,21.3c-0.4,2.7-2.4,3.2-4.9,3.1
	c-8-0.2-16-0.1-24-0.4c-4-0.1-5.5,1-5.3,5.4c0.4,11,0.2,22,0.4,33c0.1,3.9-1.6,5.3-5.4,5.2c-8.2-0.2-16.3-0.3-24.5,0
	c-4.5,0.2-5.2-1.6-5.2-5.5C230,617.4,230,599.4,230,581.5L230,581.5L230,581.5z"/>
<path class="st2" d="M467.8,580.9v53.4c0,6.1-0.4,6.4-6.5,6.4c-7.5,0-15-0.1-22.5,0.1c-3.9,0.1-5.7-1-5.7-5.3
	c0.1-36.3,0.1-72.6,0-108.9c0-3.5,1.4-4.7,4.8-4.6c8,0.2,16,0.2,24,0.1c4.2-0.1,6.2,1,6.1,5.9C467.7,545.6,467.8,563.3,467.8,580.9
	C467.8,580.9,467.8,580.9,467.8,580.9L467.8,580.9z"/>
<path class="st2" d="M416.9,226.8c-0.3,3.1-1.4,6-4.9,7.2c-3.4,1.1-5.2-1.3-6.8-3.7c-0.8-1.2-1.6-2.7-1.7-4.1
	c-0.6-8.1-2.1-16.1-4.1-24c-1-3.8,1.5-6.8,5.2-7.9c3.8-1.2,5.9,1.1,7,4.6C414.3,207.9,414.9,217.4,416.9,226.8L416.9,226.8z"/>
<path class="st2" d="M461.8,212.3c-0.2,4.5-0.6,8.9-0.6,13.4c0,4.7-3.3,5.3-6.7,5.5c-3.9,0.2-5.4-2.3-5.3-5.7
	c0.1-9.1,0.4-18.2,0.6-27.4c0.1-4,2.5-6.2,6.3-6.2c3.9,0,6.1,2.5,6.2,6.4c0.1,4.6,0,9.3,0,13.9C462.2,212.3,462,212.3,461.8,212.3
	L461.8,212.3z"/>
<path class="st1" d="M362.2,596.4c-9.3-0.1-10.4-1.6-6.4-10.4c1.5-3.4,2.2-6.9,2.9-10.5c0.3-1.6,0.8-3.2,1.2-4.8
	c0.4-1.4,1.4-2.6,2.7-2.7c1.6-0.1,1.6,1.7,1.9,3c1.3,7.1,4.6,13.6,6.1,20.7c0.9,4.2-0.1,5.1-3.9,4.7
	C365.2,596.3,363.7,596.4,362.2,596.4L362.2,596.4z"/>
</svg>
