<?xml version="1.0" encoding="UTF-8"?>
<svg id="_레이어_1" data-name="레이어 1" xmlns="http://www.w3.org/2000/svg" viewBox="0 0 752.524 340.49">
  <defs>
    <style>
      .cls-1 {
        fill: #fff;
        stroke-width: 0px;
      }
    </style>
  </defs>
  <path class="cls-1" d="M752.524,291.897v2.244c-1.396.608-.812,1.955-.978,2.934-1.07,6.316-2.922,12.346-6.425,17.756-11.095,17.133-26.776,25.596-47.328,25.587-164.024-.073-328.048-.04-492.072-.04-50.805,0-101.612-.285-152.414.111C24.957,340.709-.152,317.736,0,288.144.406,209.498.14,130.849.133,52.201c0-9.379,1.688-18.353,6.795-26.372C17.966,8.499,33.614-.012,54.42,0c214.454.12,428.909.073,643.363.076,1.622,0,3.245.027,4.867.066,21.863.529,42.376,16.918,47.806,38.014.719,2.796.434,5.842,2.068,8.405v2.244c-.958.635-.464,1.578-.464,2.384-.008,78.824-.006,157.647.043,236.471,0,1.395-.763,2.936.421,4.237ZM564.869,289.314c38.202,0,76.405.002,114.607-.007,1.62,0,3.248-.022,4.858-.181,9.396-.93,15.774-7.682,15.782-17.109.051-62.204.027-124.407.032-186.611,0-3.026-.433-5.957-1.803-8.69-3.702-7.387-10.006-9.673-17.885-9.665-77.403.076-154.807.045-232.21.045-.499,0-1.006.054-1.497-.009-2.112-.271-2.787.592-2.747,2.726.126,6.604-.032,13.214.088,19.819.041,2.259-.312,3.237-2.988,3.233-54.806-.087-109.613-.088-164.42.001-2.691.004-3.013-.993-2.97-3.235.121-6.23-.134-12.472.117-18.695.125-3.098-.732-3.917-3.879-3.913-66.167.098-132.335.066-198.502.081-12.725.003-19.385,6.636-19.388,19.324-.018,61.456-.01,122.911.003,184.367,0,1.858-.021,3.707.481,5.557,2.296,8.465,8.754,12.955,18.947,12.957,65.793.011,131.586.006,197.379.006,4.877,0,5.098-.014,4.806-4.994-.184-3.152.759-3.833,3.853-3.827,53.932.105,107.865.12,161.798-.017,3.837-.01,5.46.863,4.727,4.769-.6,3.195.547,4.168,3.959,4.156,38.951-.138,77.902-.088,116.853-.088Z"/>
  <path class="cls-1" d="M359.259,199.286c26.953,0,53.906.075,80.858-.093,3.431-.021,4.039.971,4.013,4.138-.153,18.937-.135,37.877-.014,56.814.017,2.7-.514,3.517-3.408,3.511-54.53-.101-109.06-.1-163.589-.002-2.852.005-3.447-.743-3.428-3.483.129-19.062.155-38.126-.016-57.188-.029-3.256.999-3.78,3.977-3.767,27.202.119,54.405.07,81.607.07ZM396.747,244.666c6.741,0,13.483-.088,20.221.036,3.5.064,5.131-1.612,5.186-4.885.093-5.482.053-10.968.015-16.452-.018-2.695-1.379-4.156-4.162-4.154-14.23.007-28.46.013-42.69.009-2.963,0-4.307,1.496-4.294,4.398.022,5.235-.058,10.471.025,15.704.064,4.061,1.371,5.303,5.477,5.33,6.74.044,13.481.012,20.222.013ZM322.164,219.247c-6.857,0-13.714-.042-20.57.017-3.769.032-5.214,1.484-5.25,5.148-.046,4.73-.045,9.461-.001,14.19.04,4.308,1.796,6.035,6.176,6.043,13.215.024,26.429.024,39.644-.001,3.891-.008,5.214-1.21,5.299-5.079.116-5.226.005-10.456.04-15.684.022-3.244-1.418-4.726-4.77-4.669-6.855.117-13.713.035-20.569.035Z"/>
  <path class="cls-1" d="M114.589,169.367c6.491,0,12.985-.123,19.47.063,2.403.069,2.86-.698,2.84-2.931-.108-12.462-.064-24.926-.047-37.389.01-7.598,3.091-10.709,10.594-10.737,4.743-.018,9.487-.05,14.229.008,6.184.077,9.518,3.337,9.545,9.463.056,12.837.086,25.675-.04,38.51-.024,2.45.636,3.094,3.078,3.069,12.481-.125,24.963-.075,37.445-.052,7.532.014,10.666,3.151,10.708,10.666.026,4.611.052,9.223-.009,13.834-.087,6.625-3.295,9.84-9.919,9.863-12.606.043-25.214.105-37.819-.058-2.801-.036-3.535.662-3.498,3.479.167,12.461.083,24.925.068,37.388-.008,6.827-3.194,10.162-9.931,10.284-4.866.088-9.737.098-14.603-.003-6.535-.136-9.823-3.504-9.842-10.034-.036-12.463-.096-24.927.053-37.388.034-2.828-.563-3.782-3.618-3.735-12.354.194-24.713.097-37.07.074-7.359-.014-10.451-3.112-10.476-10.426-.016-4.736-.035-9.472.004-14.208.05-6.211,3.435-9.637,9.74-9.722,6.365-.085,12.731-.019,19.097-.02Z"/>
  <path class="cls-1" d="M358.877,143.046c-26.963,0-53.926-.091-80.888.105-3.766.027-4.43-1.06-4.318-4.507.269-8.342.177-16.701.032-25.049-.043-2.486.455-3.387,3.207-3.383,54.674.086,109.349.078,164.023.018,2.355-.003,3.23.472,3.181,3.041-.167,8.846-.234,17.703.028,26.544.092,3.109-1.136,3.284-3.629,3.277-27.212-.075-54.425-.047-81.637-.047Z"/>
  <path class="cls-1" d="M359.264,159.914c27.076,0,54.153.054,81.229-.076,3.017-.014,3.743.855,3.623,3.712-.224,5.348-.159,10.714-.019,16.068.058,2.192-.421,2.995-2.845,2.992-54.901-.072-109.803-.073-164.704.001-2.43.003-2.892-.802-2.835-2.987.141-5.354.289-10.729-.043-16.065-.209-3.363,1.098-3.72,3.99-3.709,27.201.108,54.402.064,81.603.064Z"/>
  <path class="cls-1" d="M519.802,254.789c-14.822-.303-25.399-11.361-25.065-26.207.308-13.733,12.098-25.103,25.672-24.759,13.972.354,25.731,12.466,25.341,26.101-.401,14.021-12.015,25.149-25.948,24.864Z"/>
  <path class="cls-1" d="M613.292,254.775c-14.859-.416-25.181-11.467-24.951-26.34.176-11.426,9.879-24.875,25.851-24.551,14.112.287,25.66,12.547,25.191,26.187-.483,14.03-12.167,25.093-26.09,24.703Z"/>
</svg>