<?xml version="1.0" encoding="utf-8"?>
<!-- Generator: Adobe Illustrator 28.3.0, SVG Export Plug-In . SVG Version: 6.00 Build 0)  -->
<svg version="1.1" id="레이어_1" xmlns="http://www.w3.org/2000/svg" xmlns:xlink="http://www.w3.org/1999/xlink" x="0px"
	 y="0px" viewBox="0 0 999.5 1000" style="enable-background:new 0 0 999.5 1000;" xml:space="preserve">
<style type="text/css">
	.st0{fill:#FFFFFF;}
</style>
<path class="st0" d="M7.2,415H719c3,0,5.5-1.8,6.8-4.2l64.8-140c1.8-3.8,0-8.2-3.8-10c-1-0.5-2-0.8-3.2-0.8H61.2
	C146,105,310.8,0,499.8,0c276,0,499.8,223.8,499.8,500s-223.8,500-499.8,500S0,776.2,0,500C0,471,2.5,442.8,7.2,415z M314.8,820
	c0,5.5,4.5,10,10,10h13l157-197.5h123.5c3,0,5.5-1.8,6.8-4.2l64.5-140c0.5-1,0.8-2,0.8-3.2c0-4.2-3.2-7.5-7.5-7.5h-368V820z"/>
</svg>
