<?xml version="1.0" encoding="UTF-8"?>
<svg xmlns="http://www.w3.org/2000/svg" xmlns:xlink="http://www.w3.org/1999/xlink" width="px" height="1000px" viewBox="0 0 1000 1000" version="1.1">
<g id="surface1">
<path style=" stroke:none;fill-rule:nonzero;fill:rgb(100%,100%,100%);fill-opacity:1;" d="M 7.5 415 L 719.25 415 C 722.25 415 724.75 413.25 726 410.75 L 790.75 270.75 C 792.5 267 790.75 262.5 787 260.75 C 786 260.25 785 260 783.75 260 L 61.5 260 C 146.25 105 311 0 500 0 C 776 0 999.75 223.75 999.75 500 C 999.75 776.25 776 1000 500 1000 C 224 1000 0.25 776.25 0.25 500 C 0.25 471 2.75 442.75 7.5 415 Z M 315 820 C 315 825.5 319.5 830 325 830 L 338 830 L 495 632.5 L 618.5 632.5 C 621.5 632.5 624 630.75 625.25 628.25 L 689.75 488.25 C 690.25 487.25 690.5 486.25 690.5 485 C 690.5 480.75 687.25 477.5 683 477.5 L 315 477.5 Z M 315 820 "/>
</g>
</svg>
