<?xml version="1.0" encoding="utf-8"?>
<!-- Generator: Adobe Illustrator 28.1.0, SVG Export Plug-In . SVG Version: 6.00 Build 0)  -->
<svg version="1.1" id="레이어_1" xmlns="http://www.w3.org/2000/svg" xmlns:xlink="http://www.w3.org/1999/xlink" x="0px"
	 y="0px" viewBox="0 0 803.2 775.5" style="enable-background:new 0 0 803.2 775.5;" xml:space="preserve">
<style type="text/css">
	.st0{fill:#FFFFFF;}
</style>
<path class="st0" d="M125,223.2c3.6-9.2-6.8-19.4,0.7-28.9c10.5-13.5,22.3-25.6,32-39.8c9.6-14.2,22.2-26.1,36.8-34.9
	c48.3-29.1,102.2-47.7,157.9-57.8c39-7.1,79.2-7.7,118.5-2.6c14.7,1.9,27.6,20.7,41.2,14.9c16-6.8,18-26.3,30-37.6
	c9.9-9.3,19-23.1,32.5-24.5c13-1.3,21.7,11.2,23.7,23c2,11.8,4.9,24.5,1,35.7c-5.6,15.9-40,26.2-30,39.1
	c7.9,10.2,18.4,19.1,25.7,30.3c10.4,15.9,20.4,31.9,32.7,46.7c7.6,9.1,11.9,20.2,19.8,29.2c10.8,12.3,8.2,33.8,22.2,42.5
	c9.3,5.8,8.1,24.4,18.5,24.9c8.3,0.4,13.7-13.5,20.9-18.9c8.3-6.2,20-10.6,29.7-7.5c11.4,3.7,13.4,17.1,16.4,27.1
	c5.7,19.2,3.3,39.8-0.9,59c-4.2,19.4-36.7,37.8-24.2,54.7c5.1,6.9,9.9,15.5,15.2,22.9c6.4,9,10.7,19.2,13,30
	c2.2,10.2,6.6,19.5,10.6,29.2c7.9,19,9.7,39.6,14.3,59.5c6.7,29,16.1,60.9,4.5,89.3c-4.7,11.6-9,25.9-20.8,31.7
	c-12.1,6-28.6-15.8-35.8-1c-6.9,14-4.1,32.3-16.4,43.6c-8.6,7.9-20.6,12-32,12.6c-15.3,0.8-35.6-30-41-16.4
	c-3.5,8.9-3.8,18.4-8.2,28.1c-5.4,11.8-16.8,19.7-29.7,20.7c-12.5,0.9-27,6.5-37.9-0.4c-14-8.9-26.8-47.6-35.6-33.9
	c-8.3,13-9.2,32.4-22.7,40.6c-12.2,7.4-27.6,3-40.1-1.5c-15.6-5.6-31.6-12.7-41.9-25.8c-5.7-7.2-10-5.4-15.7,2
	c-6.5,8.5-8.8,27.4-19.4,25.7c-10.3-1.7-20.7,3.5-31.1,2.1c-11.6-1.5-20.9-9.8-27.6-18.6c-9-11.9-18.9,3.3-23.8,10.9
	c-5.9,9.2-14,15.3-25.3,18.3c-16.8,4.5-34.2-0.6-48.7-10c-12.4-7.9-23.7-17.3-33.9-27.9c-10.9-11.4-18.4-25.2-23.9-40
	c-5.6-15.2-11.3-30.3-18.6-45.1c-8.6-17.6-10.5-37.6-19.9-55c-14.8-27.7-17.4-59.6-21.9-90.1c-4.9-33-12.1-65.9-13.8-99.3
	c-1.6-32.2-8.6-66.4,2.9-96.3c3.7-9.6,3.5-19.2-10.2-21.2c-17-2.5-35.2-3.4-49.5-14.7c-10.2-8-21.8-14.7-29.7-24.9
	C7.4,232.5,4.9,217.7,8,205.4c3-11.5,15.8-14.6,26.1-15.7c19.6-2.1,39,4.5,55.9,13.4c11,5.8,18.9,17,31.1,20.5l2,0.1L125,223.2z"/>
<path d="M254.9,774.5c-20.5-3-39.5-11.8-51.3-23.8c-3.9-3.9-16-19.1-20.2-25.2c-1.6-2.4-3-5-4.4-7.6c-2.5-5-12.7-31-18.4-46.8
	c-3.5-9.6-7-19.1-10.5-28.7c-24.5-66-25.9-70.2-30.6-91.8c-1.4-6.4-3.6-15.1-4.9-19.3c-4.6-15.1-7.3-27.4-8.4-38.9
	c-0.6-6.1-2-18.8-3.1-28.1c-1-8.1-1.9-16.2-2.8-24.3c-0.8-6.4-1.7-12.8-2.7-19.1c-3.3-19.6-3.7-28.6-3.3-60.7
	c0.5-31.5,1.2-41.1,4.7-59.3c1.1-6.1,1.9-11.2,1.7-11.5c-0.2-0.2-6.1-0.6-13.1-0.9c-18-0.6-26.3-2.6-38.7-9.1
	c-4.1-2.2-8.1-4.7-11.9-7.4c-8.6-6.5-21.3-18.1-24.6-22.6c-9.4-12.7-13.4-27.5-12.4-45.2c0.7-12.5,1.9-14.7,9.3-17
	c15.7-4.9,45.3-2.7,71.7,5.3c11.9,3.6,18,6.2,26.6,11.3l7.8,4.6l0.8-3.5c1.6-7.4,5.7-16.8,10.7-24.6c5.6-8.7,37.8-42,49.7-51.5
	c13.6-10.9,47.2-31.5,62.8-38.7c23.8-11,28.7-12.8,56.3-21.1c23.8-7.2,36.6-10.5,51.1-13.1c5.7-1,11.4-2.1,17-3.2
	c4.2-0.9,12.6-1.2,44.1-1.5c56-0.6,67.7,0.5,88.9,7.8c5,1.7,10.5,3.6,12.3,4.3l3.3,1.1l2.1-2c3.4-3.3,11.6-14.2,21.3-28.8
	c9.8-14.7,18.7-25.7,24.3-30.3c4.6-3.7,8.2-4.4,14.5-2.7c18.8,5.1,31.1,28,31,57.6c0,10.6-1.4,16.9-5.7,25.9
	c-4.2,8.8-8.6,15.1-14.5,20.7l-5.4,5.1l5,4.7c12.2,11.5,42.4,52.3,58.8,79.5c3.5,5.8,20.2,38,34,65.4l8.4,16.6l5.6-6.2
	c7.8-8.7,17.3-18,21.1-20.6c5.2-3.6,9.2-4.8,16.1-4.8c7.2,0,9.8,1.1,16.9,6.8c8.3,6.7,11.8,12.8,15.2,26.3
	c3.5,13.8,4.2,19.7,4.2,37.9c0.1,17-0.4,22.4-3.3,34.1c-2.2,8.9-6.9,20.7-13.5,34.1c-3.8,7.7-6.9,14.2-6.9,14.4
	c0,0.3,2.2,3.9,4.9,7.9c11.8,17.8,26.8,54.2,34.6,83.5c1.2,4.4,4,13.5,6.2,20.1c6.7,19.7,12.5,38.6,13.6,44.6
	c2.7,14,3.1,47.6,0.7,56.4c-2.1,7.9-10.6,26.2-16.2,34.7c-3.9,6-13.1,15.2-18.6,18.4c-9.2,5.5-16.4,6.6-28.7,4.4
	c-5.6-1-6.6-1-7.1-0.2c-0.3,0.5-0.6,4.7-0.6,9.1c0,11.7-1.7,15.5-11.3,25.9c-5.2,5.6-9.8,8.3-18.5,11c-10.4,3.1-17.8,4-30.8,3.8
	c-11.2-0.2-12.1-0.3-15.9-2.1c-2.2-1-4.3-1.7-4.7-1.5c-1.3,0.8-4.1,6.5-6.5,13.5c-1.4,4-3.3,8.6-4.3,10.2
	c-4.2,7.3-17.6,16.5-30.4,20.8c-12.5,4.3-22.4,3.7-40.4-2.2c-12.8-4.2-18.8-7.3-27.8-14.6c-3.1-2.5-6-4.4-6.4-4.2s-2.2,2.7-4.1,5.5
	c-7.1,10.6-16.2,16.7-30.3,20.3c-12.9,3.3-19.7,3.1-32.6-1.2c-11.9-4-24.8-12-35.5-22.3c-3.1-3-5.9-5.4-6.3-5.4
	c-0.3,0-1.5,1.5-2.6,3.3c-8.3,13.4-19.7,22-33.1,24.9c-4.3,0.9-8,1-21.5,0.7c-9-0.2-18.2-0.7-20.4-1.1c-5.4-0.9-13.1-4.6-19.5-9.5
	c-2.9-2.2-5.3-3.8-5.4-3.7c-0.1,0.1-2,3-4.1,6.3c-2.1,3.3-5.4,7.5-7.2,9.2c-4.1,3.9-11.5,7.6-17.9,9
	C286.4,775.8,264,775.8,254.9,774.5L254.9,774.5z M291.5,755.9c4.7-1.7,10.5-7.3,12.9-12.4c1.4-3,1.7-4.8,1.7-9.4
	c0-9.2,2.1-12.7,7.7-12.7c3.6,0,6.2,1.6,13.8,8.6c5.7,5.2,14.5,11.6,18.4,13.4c2.8,1.3,5.6,1.8,14.1,2.4c15,1.1,25.3,0.6,28.9-1.3
	c7.6-4,15.8-13.3,21.1-23.8c4.1-8.1,5.8-9.7,10.6-9.7c5.3,0,8.7,2.1,18.4,11.4c12,11.4,24.6,19.7,35.5,23.4
	c3.7,1.3,5.7,1.5,11.5,1.3c6.6-0.2,7.4-0.4,12.8-3.2c6.3-3.2,12.4-8.1,15.6-12.7c2-2.9,2.1-3.3,2.4-13.3l0.4-10.3l2.2-2.2
	c1.9-1.9,2.7-2.2,5.6-2.2c4.2,0,5.7,1.3,10.8,9c3.8,5.9,8.8,10.9,16.8,16.9c7.1,5.3,11.6,7.5,23.5,11.3c15.6,5,18.9,4.7,34.3-2.9
	c7.9-3.9,13.7-8.7,16.7-13.7c1.8-3.1,1.9-3.7,2.3-16.8c0.4-13.9,0.9-16.2,3.4-18.6c3.8-3.5,9.7-2.1,18.5,4.4
	c10.6,7.8,10.1,7.6,22.1,7.6c15.4-0.1,24.5-3,32.3-10.5c7.4-7.1,7.2-6.3,7.6-26.7c0.2-12,0.6-18.2,1.2-19.2c0.5-0.8,1.8-1.9,3-2.3
	c3.7-1.5,7.3-0.5,14,4.1c3.4,2.3,7.4,4.7,9,5.3c9.4,3.3,19.1-1.4,28.4-13.7c4.4-5.9,14.1-24.5,16.2-31.2c2.4-7.8,1.2-41.8-2-54.3
	c-0.6-2.3-4.2-13.8-7.9-25.4c-3.8-11.7-8.1-26-9.7-31.9c-5.2-19.7-14.9-46.6-23.1-64.2c-2.2-4.8-4.4-9.6-6.4-14.4
	c-1.2-3-2.4-5.6-2.6-5.7c-0.2-0.2-3.5,2.6-7.3,6.1c-7.9,7.2-19.5,14.9-24.9,16.4c-3.2,0.9-3.8,0.9-5.9-0.2c-3.2-1.6-5-4.2-5.3-8.1
	c-0.4-4.4,1.3-7.2,6.5-10.4c11.1-6.8,14.3-9.3,19.5-14.7c8.4-9,11.7-13.7,17.7-25.7c5.9-11.8,9.8-21.4,11.4-27.9
	c4-16.1,4.2-40.6,0.3-58.3c-2.4-11.2-8.7-21-15.5-24.2c-2.3-1.1-2.7-1.1-4.8,0c-3.7,1.8-27.9,26.8-37.7,38.8
	c-5.7,7.1-11.3,14.2-16.7,21.5c-7.6,10.4-10.9,13.6-13.9,13.6c-2.3,0-5.5-3-6.8-6.3c-1.2-3.1-0.8-5.9,1.6-9.6
	c2.6-4.2,15.9-23,19-26.7c1.8-2.3,3.3-4.5,3.3-4.9c0-0.4-2.4-5.1-5.4-10.4c-3-5.3-11.6-21.9-19.2-36.8
	c-16.4-32.2-17.2-33.7-30.2-54.2c-11.3-17.9-15.9-24.3-33-46.9c-4.9-6.4-9.7-12.8-14.5-19.3c-1.5-2-3.1-3.6-3.7-3.6
	c-0.6,0-3.7,1.4-7,3.1c-6.8,3.6-10.1,4-13.1,1.6c-2.3-1.8-3.8-5.2-3.8-8.5c0-3.6,3.8-7.4,10.3-10.6c15.6-7.4,26.2-17.9,31.7-31.3
	c1.8-4.3,2-5.6,2.2-15.6c0.3-12.3-0.3-15.6-4.5-23.6c-2.7-5.1-7.9-11.9-10.9-14.1c-1.5-1.1-2.2-1.3-3.1-0.7
	c-1.6,1-12.2,15-20.3,26.6c-10.3,14.9-17,23.1-28.4,34.8c-12,12.3-16.2,15.2-22.4,15.2c-3.2,0-6.1-1.6-6.1-3.4
	c0-1.6,1.7-4.7,3.9-7.5c1.4-1.7,2.4-3.1,2.2-3.2c-1.8-1.5-14.7-5.9-23.5-8c-10.6-2.5-23.7-3.6-47.6-4c-49.9-0.9-76.3,2.4-115.8,14.4
	c-35.1,10.7-51.7,16.9-69.9,26.5c-20.4,10.7-43.1,24.9-54.5,34.1c-12.9,10.4-30.4,30.8-44.7,52.1c-4.9,7.2-12.8,21.8-12.5,23
	c0.1,0.6,2.4,2.5,5,4.4c6.3,4.4,9.1,7.8,9.1,11.3c0,1.6-0.5,3.2-1.2,3.9c-2.6,2.6-6.3,1.1-25.5-10.5c-23.6-14.2-30.9-17.6-47.6-21.8
	c-18-4.6-22.4-5.2-35.1-5.2c-11.7,0-16.5,0.7-18.9,2.9c-1.6,1.4-1.6,5.7,0.1,13.9c2.4,11.5,7.3,19.9,17.5,29.8
	c10.9,10.5,18.9,15,35.8,20.1c4,1.2,8,2.5,12,3.9c13.5,5,26.3,6.6,36.1,4.4c5.9-1.3,10-1.3,11.1,0c2.2,2.7-1.5,7.7-8.3,11.1
	c-1.9,1-3.7,2.3-4.1,3c-0.8,1.5-3.3,19.2-4.2,30.7c-3.6,42.4-2.9,69,2.7,104.1c2.2,13.6,4.1,29,5.9,46.2c1.4,14.1,3.6,30.3,5.3,38.8
	c0.7,3.9,2.1,12.4,3.1,18.9c2.7,18.8,9.2,40.8,20.9,70.1c15.5,39,18.1,45.7,20.9,53.5c7.6,21.5,18.4,48.4,23.2,57.9
	c7.9,15.7,22,31.1,33.9,37.1c12.8,6.4,23.8,9.2,39.9,10.1C280.5,758.1,286.7,757.7,291.5,755.9L291.5,755.9z M264.1,606.9
	c-3.3-0.7-7.3-6.4-7.3-10.5c0-2.8,3-6.2,7.8-8.7c16.5-8.8,25.3-16,32.5-26.8c5.6-8.4,7.8-13.3,10.8-24.2c2.5-9.1,2.6-9.8,2.9-24.1
	c0.4-16-0.1-21.6-3-32.8c-3.4-13-12-27.2-19.6-32c-4-2.5-5.5-2.5-9,0c-3.2,2.3-22.4,24.2-40.2,45.9c-13.9,16.9-40.1,44.7-46.8,49.7
	c-1.8,1.3-4.6,2.7-6.4,3.2c-2.8,0.7-3.4,0.7-5-0.3c-2-1.3-2.9-4.7-2.2-8.1c0.3-1.3,2.7-4.6,6.4-8.6c4-4.4,8-8.9,11.9-13.4
	c3.3-3.8,9.3-10.5,13.3-14.9c4-4.4,17-19.9,28.9-34.5c11.9-14.6,23.5-28.1,25.7-30.1c5.2-4.6,9.8-6.8,15.5-7.4
	c10.9-1.1,19.2,2.7,27.3,12.6c8.2,10,13.7,21.9,16.9,36.8c1.9,8.7,1.9,9.5,1.9,31.2c0,20.5-0.1,22.8-1.6,29.7
	c-1.9,9-3.8,14.3-8.9,24.4c-4.5,9-8.9,15.1-16.4,22.5C289.1,597.2,270,608.1,264.1,606.9L264.1,606.9z M389.4,378.3
	c-5.7-1-11.7-4.6-17.7-10.7c-6.1-6.2-8.9-10.8-11.9-19.9c-1.8-5.6-1.9-6.6-1.9-17.4l0.1-11.5l-5-0.7c-9.9-1.4-17.4-6.6-21.4-14.7
	c-2.1-4.4-2.3-5.1-2.3-12.1c0-6.4,0.2-7.7,1.4-9.4c2.2-3,4.7-4,7.6-3c3.5,1.2,4.9,3.4,5.8,9.5c0.9,6.2,2.3,9,5.6,11.2
	c2.6,1.7,7.1,2.1,10,0.8c2-0.9,4.7-4.7,5.9-8.2c0.4-1.3,1.2-5.8,1.8-10c1.2-9.1,2.3-10.9,7.2-10.9c4.2,0,6.5,1.4,10.2,6.1
	c3.8,4.9,5.6,6.2,10,7c4.8,0.9,8.3-0.1,11.1-3.1c3-3.3,3-6.2-0.2-14.4c-2.2-5.6-2.4-6.6-1.6-8.3c1.1-2.6,4.5-5.4,6.4-5.4
	c2.6,0,7,2.4,9.3,5.1c3,3.5,3.9,7.1,3.9,16.1c0,6.6-0.2,8.3-1.9,12.4c-1,2.6-1.9,5.2-1.9,5.7c0,0.5,1.1,2.7,2.4,5
	c2.8,4.7,6.6,14.8,8.8,23.1c1.3,5,1.6,7.7,1.6,17.4l0,11.5l-3.1,6.2c-2.5,5-4.2,7.3-9,12.1c-6.8,6.8-11.4,9.4-18.2,10.4
	C397.5,379.1,393.9,379.1,389.4,378.3L389.4,378.3z M402.5,360.6c4.3-2.1,12-9.6,13.7-13.2c1-2.1,1.2-4.3,1.2-10.4
	c0-4.3-0.4-9.2-0.9-10.8c-1.4-5.2-7.6-20.5-9.1-22.4c-1.3-1.7-1.8-1.8-7.9-1.8c-4,0-8-0.4-11.9-1.4l-5.5-1.4l-2,1.9
	c-1.1,1.1-3.1,4.2-4.6,7.1c-2.5,5.1-2.6,5.2-2.8,15.1c-0.1,5.5,0.1,12,0.5,14.6c1.4,9.2,8.1,18.7,16,22.6
	C394.3,362.9,397.9,362.9,402.5,360.6L402.5,360.6z M250.7,356.8c-4.5-4.5-3.9-8,3.9-22.4c3.4-6.2,7.2-14.1,8.4-17.5
	c1.3-3.4,2.8-7.1,3.3-8.1c1.5-2.6,1.3-3.1-0.5-1.5c-0.9,0.8-6.2,3.8-12,6.8c-5.7,3-13.3,6.9-16.8,8.8c-8.1,4.3-10.8,4.4-14.6,1
	c-2.1-1.9-2.6-2.8-2.6-5c0-4.8,3.7-8.2,17-15.1c8.6-4.5,12.1-7,11.4-8.1c-0.6-1-7.2-2.6-15.2-3.7c-9.4-1.3-11.7-2-13.5-4.3
	c-1.5-2-1.9-7.6-0.7-10c1-1.9,4.3-3.4,7.6-3.4c3.4,0,28.4,4.8,39.9,7.7c14,3.5,17.2,6,18.1,14.1c1,9.2-2.5,21.2-11.4,39.7
	c-8.4,17.5-8.6,17.8-11.8,20.7C257.3,359.7,253.8,359.9,250.7,356.8L250.7,356.8z M524.6,262.1c-4.2-1.4-20.5-9-30.2-14.1
	c-15.2-7.9-17.5-10.3-17.5-18.9c0-5.6,1.1-8.1,6.9-15c5.3-6.3,10.2-12.9,14.8-19.7c5-7.5,9.1-12.2,12-13.7c4.1-2.1,8.7,2.7,8,8.6
	c-0.4,3.7-2.7,8.1-11.2,21.9c-3.6,5.8-6.5,10.6-6.4,10.7c0.1,0.1,5-2.3,10.9-5.2c17.2-8.5,23-10,27-6.6c4,3.4,4.4,8.6,0.9,12.4
	c-2.5,2.7-4.1,3.4-15.1,7c-6.6,2.2-10.4,3.8-12,5.2c-3,2.5-3.1,2.4,8,6.8c13.4,5.2,16.8,8.3,16.1,14.6
	C535.9,261.7,530.9,264.3,524.6,262.1L524.6,262.1z"/>
</svg>
