<?xml version="1.0" encoding="utf-8"?>
<!-- Generator: Adobe Illustrator 28.1.0, SVG Export Plug-In . SVG Version: 6.00 Build 0)  -->
<svg version="1.1" id="레이어_1" xmlns="http://www.w3.org/2000/svg" xmlns:xlink="http://www.w3.org/1999/xlink" x="0px"
	 y="0px" viewBox="0 0 242 242" style="enable-background:new 0 0 242 242;" xml:space="preserve">
<style type="text/css">
	.st0{fill:#FA005A;}
	.st1{fill:#FFC500;}
</style>
<symbol  id="a" viewBox="-87 -121 174 242">
	<path class="st0" d="M79.9-2.9L-36.9-119.7c-1.2-1.2-3.1-1.6-4.7-0.9c-1.6,0.7-2.7,2.2-2.7,4v98.3l-35.4-35.4
		c-1.2-1.2-3.1-1.6-4.7-0.9c-1.6,0.7-2.7,2.2-2.7,4V50.7c0,6.4,2.5,12.5,7.1,17.1l46,46.1c4.5,4.5,10.7,7.1,17.1,7.1h33.7
		c6.4,0,12.5-2.5,17.1-7.1l46-46.1c4.5-4.5,7.1-10.7,7.1-17.1V14.2c0-3.2-0.6-6.3-1.8-9.2C84,2,82.2-0.6,79.9-2.9z"/>
	<path class="st1" d="M44.3,39.9c0,1.9-0.8,3.8-2.1,5.1L5.1,82.3C3,84.4-0.1,85-2.8,83.9c-0.9-0.4-1.7-0.9-2.4-1.6l-37-37.3
		c-1.4-1.4-2.1-3.2-2.1-5.1V25.7c0-1.9,0.8-3.8,2.1-5.1l13.3-13.3c2.8-2.8,7.4-2.8,10.2,0c0,0,0,0,0,0L0,25.9L18.6,7.3
		c1.4-1.4,3.2-2.1,5.1-2.1c1.9,0,3.8,0.8,5.1,2.1l13.3,13.3c1.4,1.4,2.1,3.2,2.1,5.1V39.9L44.3,39.9z"/>
</symbol>
<g>
	
		<use xlink:href="#a"  width="174" height="242" x="-87" y="-121" transform="matrix(1 0 0 1 120.9917 120.6764)" style="overflow:visible;"/>
</g>
</svg>
