<?xml version="1.0" encoding="utf-8"?>
<!-- Generator: Adobe Illustrator 28.1.0, SVG Export Plug-In . SVG Version: 6.00 Build 0)  -->
<svg version="1.1" id="레이어_1" xmlns="http://www.w3.org/2000/svg" xmlns:xlink="http://www.w3.org/1999/xlink" x="0px"
	 y="0px" viewBox="0 0 37.5 39" style="enable-background:new 0 0 37.5 39;" xml:space="preserve">
<style type="text/css">
	.st0{fill-rule:evenodd;clip-rule:evenodd;fill:#FFE100;}
	.st1{fill-rule:evenodd;clip-rule:evenodd;}
</style>
<g>
	<path class="st0" d="M16.8,3.6l2,0.9l2-0.9l-2-3.6L16.8,3.6z M18.7,5.2l-5.2-2.4l-3.1,5.6L4.7,9.5l0.7,5.4L1,19.5l4.3,4.6l-0.7,5.4
		l5.8,1.1l3.1,5.7l5.2-2.4l5.2,2.4l3.1-5.6l5.8-1.1l-0.7-5.4l4.3-4.6l-4.3-4.6l0.7-5.4L27,8.4l-3.1-5.7L18.7,5.2L18.7,5.2z
		 M26.1,5.4l1.4,2.5l2.3,0.4l0.6-4.9L26.1,5.4L26.1,5.4z M7.8,8.3l2.3-0.4l1.4-2.5l-4.3-2L7.8,8.3z M32.8,14.7l1.9,2l2.8-3L33,12.8
		L32.8,14.7z M0,13.6l2.8,3l1.9-2l-0.2-1.9L0,13.6L0,13.6z M0,25.4l4.5,0.9l0.2-1.9l-1.9-2L0,25.4z M32.8,24.3l0.2,1.9l4.5-0.9
		l-2.8-3L32.8,24.3L32.8,24.3z M27.4,31.2l-1.4,2.5l4.3,2l-0.6-4.9L27.4,31.2L27.4,31.2z M7.2,35.7l4.3-2l-1.4-2.5l-2.3-0.4
		L7.2,35.7z M16.8,35.5l2,3.6l2-3.6l-2-0.9L16.8,35.5L16.8,35.5z"/>
	<path class="st1" d="M15.3,15c-0.5,0-1-0.4-1-1s0.4-1,1-1c0.5,0,1,0.4,1,1v1H15.3z M25.1,13.4c-0.3,0-0.6,0.3-0.6,0.6
		c0,0.5-0.4,1-1,1h-6.1v-1c0-1.2-1-2.2-2.2-2.2c-1.2,0-2.2,1-2.2,2.2s1,2.2,2.2,2.2h1v3.3h-1c-0.3,0-0.6,0.3-0.6,0.6
		s0.3,0.6,0.6,0.6h1v3.3c0,0.5-0.4,1-1,1c-0.3,0-0.6,0.3-0.6,0.6c0,0.3,0.3,0.6,0.6,0.6c1.2,0,2.2-1,2.2-2.2v-3.3h5.1
		c0.3,0,0.6-0.3,0.6-0.6s-0.3-0.6-0.6-0.6h-5.1v-3.3h6.1c1.2,0,2.2-1,2.2-2.2C25.7,13.7,25.4,13.4,25.1,13.4z"/>
</g>
</svg>
