<?xml version="1.0" encoding="utf-8"?>
<!-- Generator: Adobe Illustrator 28.1.0, SVG Export Plug-In . SVG Version: 6.00 Build 0)  -->
<svg version="1.1" id="레이어_1" xmlns="http://www.w3.org/2000/svg" xmlns:xlink="http://www.w3.org/1999/xlink" x="0px"
	 y="0px" viewBox="0 0 200 71.7" style="enable-background:new 0 0 200 71.7;" xml:space="preserve">
<style type="text/css">
	.st0{fill:#FFFFFF;}
</style>
<path class="st0" d="M0,70.5V1h55v15.2H15.3V30h32.5v15.2H15.3v25.2L0,70.5z"/>
<path class="st0" d="M92.9,71.7c-19.8-0.1-35.8-16.2-35.7-36S73.4-0.1,93.2,0c19.8,0.1,35.7,16.1,35.7,35.9
	c0,19.8-16.1,35.9-35.8,35.9C93,71.7,92.9,71.7,92.9,71.7z M92.9,15.6c-5.4-0.1-10.5,2.1-14.3,5.9c-7.9,7.9-7.9,20.6,0,28.5
	c0,0,0,0,0,0c7.9,7.9,20.7,7.9,28.5,0s7.9-20.7,0-28.5C103.4,17.7,98.2,15.6,92.9,15.6z"/>
<path class="st0" d="M136.3,70.4V1.3h29.2c9.4-0.2,18.6,3.5,25.3,10.1c6.2,6.2,9.3,14.4,9.3,24.5s-3.1,18.3-9.3,24.4
	c-6.7,6.7-15.8,10.3-25.3,10.1L136.3,70.4z M165.5,55.2c11.7,0,19.2-7.6,19.2-19.4c0-11.6-7.8-19.4-19.4-19.4h-13.9v38.8H165.5z"/>
</svg>
