<?xml version="1.0" encoding="utf-8"?>
<!-- Generator: Adobe Illustrator 28.1.0, SVG Export Plug-In . SVG Version: 6.00 Build 0)  -->
<svg version="1.1" id="_레이어_1" xmlns="http://www.w3.org/2000/svg" xmlns:xlink="http://www.w3.org/1999/xlink" x="0px"
	 y="0px" viewBox="0 0 179.3 176.2" style="enable-background:new 0 0 179.3 176.2;" xml:space="preserve">
<style type="text/css">
	.st0{fill:#FEFDFC;}
	.st1{fill:#E3E3E3;}
	.st2{fill:#E0E0E0;}
	.st3{fill:#FEFEFE;}
</style>
<path d="M174.4,59.8c7.5-7.1,6.2-19.2-2.9-24.1c-4.6-2.5-6.1-5.6-5.6-10.3c0.2-1.6,0-3.3,0-5c0-15.4-8.1-20.8-22.3-15.3
	c-0.5,0.2-0.9,0.4-1.4,0.6c-6.9,3.2-13.9,3.1-20.8,0.5C102.3-1,82.8-2,63.1,3.7C27.6,13.9,0.7,46.1,0,85.8
	c-0.3,17.1,3.9,33.3,13.2,47.7c17,26.3,40.3,42.1,73.2,42.7v0c2.2,0.3,4.9-0.4,7.7-0.8c38.1-5.2,64.4-25.6,77.9-61.7
	c5.9-15.8,5.5-32.2,1.7-48.5C173.3,63.4,172.4,61.8,174.4,59.8z M168.5,56.1c-1.5,1.1-3,2.1-4.4,3.3c-1.3,1.1-1.9,3,0.2,3.5
	c2.9,0.7,2.9,2.9,3.4,4.8c9.6,35.9-9.7,74.9-44.6,92.7c-53.5,27.2-108.6-9.9-116.1-63c-5.6-39.3,21-78.1,60.2-88.3
	c7-1.8,14-3.1,20.3-3c11.7-0.1,22.2,1.9,31.9,6.5c8,3.8,15.4,2.9,23.1,0.2c1.1-0.4,2.1-0.9,3.2-1.3c8.9-3.5,12.7-1.3,13.9,8.5
	c0.5,4.3,0.6,8.7,0.2,13c-0.4,4.3,1,6.6,5.4,7.2c2.8,0.4,5.4,1.4,6.7,4.5C174.6,51.3,174.5,51.8,168.5,56.1z"/>
<path d="M81.4,75c-4.7,7.5-11.2,10.6-18.8,11.7C53.7,88,46.3,83.8,43,75.6c-2.4-6-4.2-12.2-5.4-18.7c-1-5.5-0.1-10.8,3.4-15
	c9.2-11,21-17.3,35.4-17.7c7.7-0.2,11.8,3.2,13.2,10.3c0.6,2.8,2.1,6.7-0.9,8.3c-3.3,1.8-7.4,1.5-10.9-0.8c-0.4-0.3-0.8-0.6-1.1-1
	c-4.2-5.1-9.4-4.9-15-3.1c-5.8,1.9-9,5.8-9.6,12c-0.7,6.8,0.4,13.2,3.5,19.3c1.7,3.3,4.2,4.7,7.7,3.8c3.7-0.9,5-4.1,6.1-7.3
	c0.5-1.6-1.1-1.7-1.9-2.4c-3.5-2.9-3.2-6.9,0.9-8.8c7-3.3,14.4-5.3,22.2-4.8c7.6,0.5,9.8,5.2,5.8,11.6c-0.9,1.4-0.5,2.9-0.4,4.3
	c0.3,4.6,0.9,9.3,0.8,13.9c-0.1,5.9-6.3,10.1-11.9,8.5c-2.5-0.7-3.4-2.4-3.5-4.8C81.4,80.8,81.4,78.4,81.4,75L81.4,75z"/>
<path d="M142.6,73.1c-7.7,9.3-16.9,10.8-26.9,9c-5.6-1-8.5-5.7-10.4-10.6c-3.5-8.6-5.1-17.8-4.2-26.9c0.8-7.5,6.2-13.3,12.7-16.9
	c7.7-4.2,16.2-5.9,25.1-5.3c7.5,0.5,13.2,7.2,12.7,14.5c-0.2,2-0.7,4.2-3.2,4.4c-3.5,0.3-7.4,1.7-10.3-1.6
	c-4.1-4.6-8.6-5.8-15.2-3.6c-6.2,2-8.3,4.5-8.5,11.2c-0.2,6,0.5,11.9,2,17.8c0.8,3.2,2.7,4.9,6.1,4.7c3.6-0.2,7.1-0.5,8.3-4.8
	c0.3-1.1,0.7-2.1-0.2-3.3c-2.9-3.4-2.1-7.2,2.3-8.6c7.6-2.3,15.5-3.7,23.5-4c2.2-0.1,3.3,1,3.9,3c0.6,2,0.6,3.9-1.3,4.8
	c-3.5,1.6-3.1,4.1-2.7,7c0.4,3.1,0.7,6.3,0.8,9.4c0.2,8.4,0.1,8.4-7.8,10.5c-5.1,1.4-6.4,0.5-6.6-4.7
	C142.5,77.5,142.6,75.9,142.6,73.1L142.6,73.1z"/>
<path d="M94,145.3c-18.2-0.2-29.9-9.9-38.3-24.4c-1.6-2.7-3-5.5-4.6-8.3c-0.7-1.2-1.3-2.3-3.1-1.7c-1.7,0.5-1.7,1.7-1.7,3.1
	c0.1,1.2,1.1,3-0.7,3.4c-2,0.4-2.8-1.6-3.3-3.1c-1.2-3.4-0.8-6.7,1.9-9.2c2.4-2.2,4.9-4.7,8.6-1.7c1.3,1.1,3.2-0.1,4.8-0.4
	c28.8-6.4,58.2-8.5,87.5-11.1c3-0.3,5.9-1,8.8-1.6c1.3-0.2,2.9-0.7,3.5,0.9c0.6,1.5-0.5,2.4-1.9,2.9c-1.8,0.6-2.6,1.8-2.7,3.7
	c-1.1,17.8-11.7,29-26.2,37.5C116.4,141.5,105.4,145,94,145.3L94,145.3z"/>
<path class="st0" d="M39.6,35.4c-3.2-0.1-4.6-2.7-2.6-5.2c5.5-7,12.8-11.4,21.4-13.9c1.6-0.5,3.5-0.3,4.3,1.6
	c0.7,1.5,0.4,3.2-0.8,4.1c-6.5,4.8-13.2,9.5-20.5,13.1C40.8,35.4,40.1,35.4,39.6,35.4z"/>
<path class="st1" d="M41.2,48.2c-0.8-2.8,6-10.4,8.6-11.6c0.4-0.2,1.4,0.1,1.7,0.5c0.3,0.4,0.3,1.5,0,1.8c-3.5,3.4-6.4,7.2-7.9,11.9
	c-0.2,0.5-0.9,1.1-1.6,0.6C40.8,50.6,41.3,49.3,41.2,48.2L41.2,48.2z"/>
<path class="st2" d="M114.8,34.5c-2.8,2.8-4.9,6.4-7.5,9.5c-1,1.2-2-0.6-1.7-1.7c1-4,3.3-7.1,6.8-9.3
	C113.6,32.2,114.6,32.7,114.8,34.5z"/>
<path class="st3" d="M138.4,118.5c-0.1,0.6,0,1-0.2,1.2c-16.1,15.4-34.7,23.7-57.4,19.3c-2.4-0.5-5.8-0.6-5.8-4.8
	c0.1-3.8,0.6-6.5,5.5-5.8c2.1,0.3,4.3,0,6.5-0.4c1.2-0.2,3.5,0.4,3.3-1.8c-0.2-1.7-2.1-1.8-3.6-1.9c-2.8-0.3-5.6-0.7-8.4-1
	c-2.3-0.3-4-1.4-5.3-3.3c-2.1-3.1-4.9-5.4-8.4-6.8c-0.9-0.4-2.1-0.5-2-1.8c0.1-1.2,1.4-1.3,2.3-1.5c5.5-1.1,11.1-2.2,16.6-3.2
	c20.1-3.6,40.3-6.9,60.7-8.1c-3.1,9.1-8.1,16.2-17.7,19c-1.6,0.5-2.9,1.5-4.4,2.4c-0.9,0.5-2.5,0.8-1.8,2.4c0.6,1.4,1.9,1.5,3.4,1
	C127.2,121.6,132.6,119.4,138.4,118.5L138.4,118.5z"/>
</svg>
