<?xml version="1.0" encoding="utf-8"?>
<!-- Generator: Adobe Illustrator 28.1.0, SVG Export Plug-In . SVG Version: 6.00 Build 0)  -->
<svg version="1.1" id="레이어_1" xmlns="http://www.w3.org/2000/svg" xmlns:xlink="http://www.w3.org/1999/xlink" x="0px"
	 y="0px" viewBox="0 0 440.1 460.6" style="enable-background:new 0 0 440.1 460.6;" xml:space="preserve">
<style type="text/css">
	.st0{fill:#FFFFFF;}
</style>
<path class="st0" d="M338.7,126.7v-7.5C338.7,53.5,285.5,0,220.1,0S101.6,53.5,101.6,119.2v7.5H20.2C9,126.7,0,135.8,0,146.9
	c0,0.8,0.1,1.6,0.2,2.5l28.4,223.2c5.1,49.9,47.1,87.9,97.3,88h188.4c50,0,92-38,97.3-88L440,149.4c1.4-11.1-6.5-21.2-17.5-22.5
	c-0.8-0.1-1.6-0.1-2.4-0.2h-81.5L338.7,126.7L338.7,126.7z M153.1,126.7l0.1-7.5c-2-36.9,26.3-68.5,63.2-70.6
	c36.9-2,68.5,26.3,70.6,63.2c0.1,2.4,0.1,4.9,0,7.3l0.1,7.5H153.1L153.1,126.7z"/>
</svg>
