<?xml version="1.0" encoding="UTF-8"?>
<svg id="_레이어_1" data-name="레이어 1" xmlns="http://www.w3.org/2000/svg" viewBox="0 0 560.16 963.802">
  <defs>
    <style>
      .cls-1 {
        fill: #fff;
        stroke-width: 0px;
      }
    </style>
  </defs>
  <path class="cls-1" d="M560.12,44.149v843.63c.194,1.285-.383,2.487-.408,3.746-.088,4.441-1.095,8.718-2.491,12.891-5.924,17.71-17.683,29.056-36.199,32.98-10.001,2.119-20.047,4.006-30.109,5.806-12.188,2.18-24.398,4.234-36.65,6.025-9.408,1.375-18.819,2.733-28.243,3.991-8.475,1.132-16.962,2.188-25.458,3.147-8.419.95-16.85,1.797-25.287,2.578-8.836.819-17.679,1.569-26.527,2.232-9.408.706-18.832,1.182-28.256,1.655-13.901.697-27.811.952-41.722.971-14.393.019-28.784-.329-43.156-1.176-8.061-.475-16.124-.952-24.174-1.593-10.837-.863-21.666-1.842-32.461-3.146-9.6-1.159-19.208-2.257-28.787-3.57-11.95-1.638-23.867-3.51-35.758-5.543-14.802-2.53-29.547-5.345-44.245-8.417-13.053-2.728-26.019-5.837-38.962-9.04-9.379-2.321-16.966-7.275-22.422-15.319-3.923-5.784-6.129-12.24-7.389-19.069-.474-2.57-.437-5.234-1.418-7.71V40.79c.972.298.79-.535.83-.954.215-2.226.614-4.419,1.111-6.592,2.06-8.991,5.628-17.246,12.044-24.049C18.37,4.545,23.592,1.369,30.029.456c.309-.044.634-.039.689-.456h499.164c.185.65.763.428,1.179.498,3.843.647,7.35,2.104,10.547,4.321,3.05,2.114,5.652,4.699,7.859,7.667,6.987,9.393,9.995,20.136,10.653,31.664ZM277.906,370.62c50.551,0,101.103,0,151.654-.001.8,0,1.602.025,2.398-.034,3.774-.282,6.28-2.966,6.343-6.765.011-.64.002-1.28.002-1.919,0-90.128,0-180.257,0-270.385,0-.56.009-1.12-.002-1.679-.064-3.2-1.721-5.389-4.756-6.43-1.328-.455-2.678-.395-4.031-.395-101.023-.004-202.045-.004-303.068-.001-.879,0-1.771-.05-2.635.076-2.914.424-5.043,1.902-6.021,4.779-.368,1.084-.207,2.22-.207,3.334-.006,90.448-.006,180.896-.006,271.345,0,.48-.009.96.002,1.439.084,3.533,2.518,6.205,6.037,6.568.951.098,1.917.067,2.876.067,50.471.003,100.943.002,151.414.002ZM115.436,701.184c5.839,0,11.682-.127,17.516.051,3.165.096,5.166-1.333,6.601-3.869,1.447-2.557,2.043-5.349,2.04-8.284-.01-9.357-.004-18.714-.003-28.071,0-.56.024-1.121-.004-1.679-.035-.695.247-1.037.962-1.015.559.017,1.12,0,1.68,0,9.199,0,18.397-.002,27.596.001,2.751.001,5.414-.44,7.925-1.597,3.274-1.509,4.991-3.86,4.943-7.692-.138-11.115-.152-22.234.005-33.348.057-4.059-1.823-6.448-5.278-7.965-2.458-1.08-5.066-1.391-7.729-1.388-9.039.008-18.077.003-27.116.003-.56,0-1.124-.044-1.679.007-1.094.1-1.404-.445-1.312-1.427.045-.476.007-.959.007-1.439,0-9.277-.01-18.554.006-27.831.005-2.933-.566-5.725-1.983-8.298-1.455-2.642-3.533-4.074-6.764-4.043-11.437.111-22.877.122-34.314-.005-3.44-.038-5.577,1.498-7.064,4.345-1.365,2.613-1.814,5.419-1.806,8.344.025,9.197.009,18.394.009,27.591,0,.48-.032.962.006,1.439.069.886-.232,1.378-1.202,1.32-.558-.033-1.119-.004-1.679-.004-9.119,0-18.237,0-27.356,0-3.161,0-6.209.479-8.991,2.099-2.546,1.483-3.876,3.54-3.851,6.642.095,11.436.11,22.873-.006,34.308-.035,3.43,1.497,5.585,4.355,7.065,2.689,1.392,5.585,1.869,8.58,1.87,9.439.003,18.877-.005,28.316.006,1.799.002,1.819.031,1.825,1.836.013,4.159.002,8.317.005,12.476.003,5.758-.024,11.516.028,17.274.026,2.932.806,5.685,2.431,8.156,1.363,2.073,3.16,3.203,5.787,3.154,5.837-.108,11.678-.034,17.517-.034ZM516.682,612.975c-.017-17.871-14.467-32.252-32.319-32.383-16.493-.122-32.39,12.981-32.528,32.447-.127,17.876,14.694,32.469,32.591,32.399,17.816-.07,32.274-14.62,32.256-32.463ZM351.097,648.435c-.074,17.67,14.426,32.376,32.018,32.475,18.122.102,32.84-14.395,32.87-32.378.029-17.801-14.445-32.342-32.292-32.443-17.95-.101-32.521,14.358-32.596,32.345ZM324.373,807.129c4.587-.075,8.882-.448,13.097-1.441,4.063-.958,8.019-2.234,11.281-4.987,3.669-3.097,3.653-6.818.015-9.968-2.025-1.753-4.397-2.904-6.916-3.724-10.134-3.302-20.393-3.449-30.727-1.073-3.845.884-7.527,2.198-10.586,4.796-3.692,3.136-3.679,6.787-.015,9.956,1.961,1.696,4.273,2.775,6.691,3.648,5.631,2.033,11.489,2.646,17.16,2.794ZM241.566,784.366c-8.543-.001-15.262,1.213-20.461,3.488-2.217.97-4.288,2.158-5.896,4.005-2.137,2.455-2.153,5.069-.094,7.588.87,1.064,1.939,1.896,3.102,2.613,1.913,1.181,3.956,2.084,6.109,2.713,10.785,3.153,21.578,3.137,32.354-.027,2.538-.745,4.947-1.825,7.089-3.409,4.758-3.52,4.73-7.808-.068-11.31-1.82-1.328-3.847-2.266-5.966-3.008-5.568-1.948-11.333-2.628-16.169-2.653ZM59.843,216.178c-.161,5.204,3.879,10.556,10.586,10.701,5.842.127,10.64-4.774,10.648-10.66.009-5.894-4.771-10.859-10.602-10.715-6.975.171-10.792,5.702-10.633,10.674Z"/>
</svg>