<?xml version="1.0" encoding="UTF-8"?>
<svg id="_레이어_1" data-name="레이어 1" xmlns="http://www.w3.org/2000/svg" viewBox="0 0 603.458 989.769">
  <defs>
    <style>
      .cls-1 {
        fill: #fff;
        stroke-width: 0px;
      }
    </style>
  </defs>
  <path class="cls-1" d="M0,961.279C0,651.251,0,341.223,0,31.195c.303-1.061.705-2.105.894-3.186C3.286,14.299,13.877,3.528,27.532.845c1.372-.27,2.855-.066,4.123-.845h541.012c.343.641.983.393,1.493.465,9.671,1.363,17.454,5.926,23.181,13.848,4.357,6.027,6.122,12.79,6.117,20.259-.07,101.569-.047,203.139-.047,304.708,0,172.348-.008,344.696.025,517.045.002,8.343-.508,16.623-2.108,24.805-5.826,29.787-19.924,54.974-42.653,75.071-24.588,21.74-53.446,33.402-86.297,33.449-146.185.206-292.37.071-438.554.12-13.881.005-27.756-9.142-32.103-24.177-.376-1.3-.589-2.647-.895-3.968-.107-.461-.358-.692-.826-.345ZM301.528,419.857c51.629,0,103.258.003,154.887-.008,3.459,0,2.986.504,2.986-3.087.009-92.126.007-184.252.007-276.378,0-.32-.002-.64,0-.96.014-2.173.108-2.111-2.083-2.088-.24.002-.48,0-.719,0-103.338,0-206.675-.002-310.013.007-3.212,0-2.87-.516-2.87,2.97-.005,92.206-.006,184.412,0,276.618,0,3.453-.364,2.917,2.918,2.918,51.629.011,103.258.008,154.886.008ZM86.385,697.882c5.835,0,11.67,0,17.505,0,.56,0,1.119.009,1.679.003.583-.007.891.269.899.855.009.64.008,1.28.008,1.919,0,11.517-.015,23.034.007,34.552.011,5.702,3.761,9.583,9.384,9.608,11.27.05,22.541.053,33.811-.001,5.229-.025,8.863-3.531,9.267-8.742.062-.796.048-1.598.048-2.398.003-11.037.002-22.074.002-33.112,0-.56.01-1.12.008-1.679-.002-.685.312-1.028,1.018-1.005.559.019,1.119,0,1.678,0,11.51,0,23.023-.143,34.529.065,5.173.093,9.695-4.102,9.616-9.663-.158-11.035-.045-22.074-.049-33.111,0-.958.007-1.916-.242-2.858-1.097-4.161-4.553-6.845-8.987-6.853-11.59-.023-23.18-.008-34.77-.008-.56,0-1.121-.028-1.678.004-.829.048-1.151-.348-1.124-1.138.019-.559,0-1.12,0-1.679,0-10.957.001-21.915-.003-32.872,0-.879.009-1.762-.066-2.636-.425-4.977-3.957-8.542-8.921-8.588-11.509-.105-23.02-.057-34.53-.022-2.495.008-4.68.965-6.426,2.779-1.872,1.945-2.599,4.3-2.59,6.991.039,11.437.017,22.874.017,34.312,0,.48-.035.963.007,1.439.085.979-.214,1.532-1.316,1.42-.554-.057-1.118-.009-1.678-.009-11.43,0-22.86-.009-34.29.005-5.711.007-9.543,3.716-9.567,9.387-.048,11.197-.043,22.395-.002,33.592.021,5.733,3.78,9.425,9.491,9.441,5.755.016,11.51.004,17.265.004ZM451.078,684.149c-.125-19.753-16.08-35.584-35.781-35.541-19.897.044-35.766,16.595-35.472,36.325.288,19.347,16.42,35.089,36.135,34.945,19.314-.141,35.241-16.345,35.119-35.729ZM513.597,605.365c-21.171.28-35.75,17.731-35.5,36.09.264,19.351,16.16,35.244,35.626,35.228,19.694-.017,35.611-15.992,35.586-35.715-.025-19.696-16.071-35.693-35.713-35.603ZM358.755,801.001c-.014-4.141-2.202-7.325-5.53-8.61-2.787-1.076-5.432-.607-8.087.638-16.238,7.616-32.498,15.182-48.749,22.77-.721.337-1.456.668-2.119,1.101-3.054,1.996-4.733,5.732-3.967,9.112.836,3.688,3.163,5.966,6.869,6.853,2.322.555,4.398-.092,6.462-1.057,11.554-5.402,23.117-10.786,34.676-16.177,4.984-2.324,9.969-4.644,14.948-6.978,3.512-1.646,5.285-4.458,5.496-7.651ZM191.23,823.782c-.032,4.477,2.497,7.795,6.27,8.916,2.45.728,4.709.271,6.952-.777,16.463-7.696,32.933-15.377,49.403-23.056.944-.44,1.875-.899,2.657-1.593,2.581-2.29,3.767-5.116,3.066-8.561-.703-3.456-2.891-5.618-6.214-6.606-2.409-.716-4.708-.227-6.957.828-11.041,5.178-22.098,10.321-33.148,15.479-5.56,2.595-11.127,5.176-16.672,7.803-3.404,1.613-5.2,4.339-5.357,7.569ZM454.153,935.285c.097-1.197-.532-2.148-1.071-3.122-13.97-25.218-27.944-50.433-41.921-75.646-.386-.697-.745-1.43-1.247-2.038-1.49-1.806-3.67-1.984-6.037-.57-2.18,1.302-2.937,3.305-2.014,5.486.34.805.795,1.564,1.22,2.331,13.852,25.009,27.707,50.016,41.562,75.023.232.419.447.851.717,1.245,1.165,1.703,2.914,2.349,4.784,1.791,2.459-.734,3.97-2.43,4.008-4.501ZM425.786,950.974c-.032-1.146-.645-2.176-1.227-3.227-12.729-22.98-25.451-45.962-38.175-68.945-1.392-2.515-2.789-5.027-4.171-7.547-.876-1.598-2.162-2.575-4.024-2.544-3.925.064-6.151,3.813-4.35,7.274.184.354.395.694.588,1.043,12.965,23.396,25.929,46.793,38.893,70.19,1.161,2.095,2.275,4.218,3.496,6.278,1.144,1.93,2.876,2.609,4.88,2.066,2.34-.634,4.02-2.476,4.09-4.587ZM435.075,837.198c-3.935.052-6.202,3.744-4.427,7.214.218.427.446.848.678,1.267,13.852,25.004,27.705,50.008,41.56,75.011.348.629.659,1.29,1.091,1.858,1.247,1.64,3.223,2.112,5.135,1.295,3.402-1.455,4.26-3.872,2.525-7.117-.151-.282-.312-.558-.466-.837-13.842-25.01-27.684-50.02-41.528-75.029-.348-.628-.691-1.263-1.09-1.858-.823-1.228-2.048-1.721-3.477-1.802ZM520.682,789.921c-4.281.045-6.592,3.771-4.83,7.205.182.355.391.696.585,1.045,13.932,25.144,27.863,50.288,41.797,75.431.309.558.598,1.138.985,1.64,1.206,1.565,3.087,2.085,4.933,1.417,2.265-.819,3.698-2.603,3.675-4.545-.014-1.18-.627-2.127-1.167-3.101-13.928-25.147-27.858-50.292-41.79-75.436-.348-.628-.668-1.279-1.082-1.863-.839-1.184-2.012-1.781-3.107-1.794ZM539.42,887.894c-.031-1.154-.646-2.181-1.229-3.233-13.969-25.211-27.93-50.425-41.896-75.637-.309-.558-.607-1.132-.99-1.638-1.176-1.55-3.121-2.093-4.931-1.425-3.445,1.271-4.458,3.978-2.71,7.241.151.281.301.563.456.842,12.801,23.119,25.603,46.238,38.405,69.357,1.315,2.375,2.579,4.78,3.961,7.114,1.12,1.891,2.979,2.586,4.913,2.02,2.321-.68,3.975-2.55,4.021-4.641ZM510.936,903.579c.086-1.118-.605-2.128-1.183-3.172-10.981-19.835-21.966-39.667-32.948-59.501-3.055-5.517-6.114-11.032-9.147-16.562-.675-1.231-1.465-2.324-2.882-2.693-2.165-.565-3.941.3-5.401,1.801-1.304,1.341-1.366,3.144-.372,5.119.179.356.381.701.574,1.051,13.853,24.997,27.705,49.995,41.559,74.992.348.628.664,1.28,1.065,1.873,1.153,1.703,2.976,2.375,4.781,1.808,2.481-.779,3.938-2.457,3.954-4.716ZM90.303,225.54c-5.152.048-9.218,4.203-9.176,9.376.041,5.095,4.326,9.323,9.377,9.254,5.086-.07,9.229-4.335,9.185-9.454-.045-5.141-4.222-9.225-9.386-9.176Z"/>
</svg>