<?xml version="1.0" encoding="UTF-8"?>
<svg id="_레이어_1" data-name="레이어 1" xmlns="http://www.w3.org/2000/svg" viewBox="0 0 807.93 450.208">
  <defs>
    <style>
      .cls-1 {
        fill: #fff;
        stroke-width: 0px;
      }
    </style>
  </defs>
  <path class="cls-1" d="M0,349.292C0,266.767,0,184.242,0,101.717c.409-2.177.809-4.355,1.228-6.53,2.323-12.065,8.401-22.005,17.422-30.159,12.623-11.41,27.676-17.139,44.501-18.504,5.173-.42,10.387-.132,15.542-.932,8.551-1.327,16.629-3.953,23.753-8.976,9.925-6.997,19.881-13.961,29.61-21.224,12.644-9.439,26.842-14.169,42.475-15.002.668-.036,1.443.261,2.007-.39h458.136c.315.524.846.349,1.292.366,3.279.125,6.529.499,9.767,1.024,12.605,2.042,24.109,6.654,34.222,14.563,8.058,6.303,16.223,12.472,24.198,18.877,9.637,7.74,20.686,11.543,32.884,12.249,6.855.397,13.732.381,20.493,1.857,13.823,3.017,26.09,8.958,36.051,19.18,7.503,7.699,12.411,16.776,14.01,27.503.533,3.575.281,7.181.281,10.774.006,59.248.006,118.497.003,177.745,0,20.949-.024,41.898-.009,62.846.002,3.301-.447,6.531-1.228,9.721-2.939,12.007-9.529,21.72-18.936,29.543-12.658,10.527-27.41,15.783-43.738,16.791-4.861.3-9.747.153-14.582.919-9.629,1.524-18.48,4.847-26.216,10.942-8.538,6.726-17.148,13.361-25.729,20.032-5.782,4.495-12.117,7.982-18.997,10.502-9.574,3.508-19.485,4.773-29.634,4.772-149.577-.02-299.155-.014-448.732-.011-5.201,0-10.38-.226-15.523-1.088-12.419-2.081-23.815-6.55-33.811-14.341-8.636-6.731-17.285-13.446-25.925-20.172-2.402-1.87-4.946-3.51-7.658-4.898-8.785-4.497-18.181-6.401-27.971-6.503-5.453-.057-10.854-.495-16.186-1.618-13.166-2.773-24.963-8.325-34.853-17.565-9.401-8.783-15.552-19.36-17.32-32.273-.116-.844-.168-1.762-.824-2.448ZM404.993,382.154c40.371,0,80.743.193,121.113-.08,20.934-.141,36.603-9.953,46.902-28.129,5.33-9.407,6.606-19.68,5.905-30.365-.769-11.722-1.226-23.465-1.801-35.2-.544-11.097-1.053-22.195-1.6-33.291-.724-14.689-1.481-29.375-2.202-44.064-.557-11.336-1.071-22.674-1.621-34.01-.764-15.727-1.489-31.456-2.347-47.178-.291-5.336-.216-10.693-1.219-15.996-4.989-26.374-26.72-44.502-53.502-44.505-73.307-.006-146.615-.005-219.922.007-2.875,0-5.739.186-8.597.61-24.947,3.704-44.165,24.478-45.677,49.526-.457,7.578-.69,15.17-1.045,22.754-.523,11.177-1.052,22.355-1.598,33.531-.737,15.088-1.5,30.175-2.237,45.263-.542,11.097-1.051,22.195-1.589,33.291-.756,15.567-1.523,31.134-2.29,46.7-.385,7.823-.671,15.654-1.2,23.468-.476,7.038.337,13.879,2.514,20.56,7.24,22.221,27.692,37.081,51.139,37.099,40.291.03,80.582.008,120.873.008ZM60.497,212.577c-.03.45-.087.922-.088,1.394-.006,7.433-.009,14.866,0,22.299.002,1.92.023,1.942,1.969,1.944,9.27.009,18.54-.003,27.809.013,1.115.002,2.247.024,3.342.212,3.607.618,6.062,2.644,7.282,6.14.568,1.625.549,3.3.55,4.975.009,9.191,0,18.383.008,27.574.002,2.053.021,2.069,2.101,2.071,7.272.008,14.544.003,21.816.003.32,0,.64-.018.959.001.698.042,1.035-.268,1.021-.974-.011-.559.004-1.119.004-1.678,0-9.031.113-18.065-.036-27.094-.115-6.971,3.66-11.444,11.365-11.284,9.266.192,18.539.052,27.809.04,1.858-.002,1.887-.033,1.889-1.794.012-7.433.012-14.866,0-22.299-.003-1.769-.031-1.8-1.88-1.803-7.911-.013-15.822.001-23.734-.01-2.076-.003-4.16.038-6.228-.114-5.247-.384-8.335-3.319-9.044-8.509-.129-.944-.135-1.911-.136-2.867-.009-9.271,0-18.543-.012-27.814-.002-1.676-.037-1.706-1.703-1.709-7.352-.012-14.704-.009-22.056-.003-2.125.002-2.136.016-2.137,2.272-.005,9.031.001,18.063-.006,27.094,0,1.038-.01,2.081-.106,3.113-.422,4.539-3.638,7.839-8.153,8.351-1.187.135-2.39.179-3.587.181-8.79.015-17.581.001-26.371.018-.861.002-1.757-.204-2.649.256ZM659.229,281.19c1.401.068,3.058-.191,4.702-.539,11.765-2.487,19.349-15.292,15.831-26.67-1.433-4.633-4.485-8.032-8.165-10.976-10.334-8.268-27.214-5.465-32.514,7.523-.881,2.158-1.519,4.377-1.813,6.683-.919,7.193,1.395,17.421,11.901,21.914,3.119,1.334,6.36,2.098,10.058,2.064ZM725.709,169.323c-4.396.131-9.948,1.737-13.882,6.366-6.074,7.146-7.514,15.426-3.971,24.18,4.131,10.208,16.04,15.207,26.758,11.544,10.713-3.661,16.448-14.488,13.495-25.476-2.703-10.058-10.86-16.565-22.4-16.614Z"/>
</svg>