<?xml version="1.0" encoding="utf-8"?>
<!-- Generator: Adobe Illustrator 28.3.0, SVG Export Plug-In . SVG Version: 6.00 Build 0)  -->
<svg version="1.1" id="레이어_1" xmlns="http://www.w3.org/2000/svg" xmlns:xlink="http://www.w3.org/1999/xlink" x="0px"
	 y="0px" viewBox="0 0 220 160" style="enable-background:new 0 0 220 160;" xml:space="preserve">
<style type="text/css">
	.st0{fill:#FFFFFF;}
</style>
<path class="st0" d="M160,0c33.1,0,60,26.9,60,60v40c0,33.1-26.9,60-60,60H60c-33.1,0-60-26.9-60-60V60C0,26.9,26.9,0,60,0H160z
	 M160,20H60c-21.4,0-38.9,16.8-40,38l0,2v40c0,21.4,16.8,38.9,38,40l2,0h100c21.4,0,38.9-16.8,40-38l0-2V60c0-21.4-16.8-38.9-38-40
	L160,20z M90,50v20h20v20H90l0,20H70l0-20H50V70h20V50H90z M170,90v20h-20V90H170z M150,50v20h-20V50H150z"/>
</svg>
