<?xml version="1.0" encoding="UTF-8"?>
<svg id="_레이어_1" data-name="레이어 1" xmlns="http://www.w3.org/2000/svg" viewBox="0 0 749.929 451.373">
  <defs>
    <style>
      .cls-1 {
        fill: #fff;
        stroke-width: 0px;
      }
    </style>
  </defs>
  <path class="cls-1" d="M0,383.892V67.481c1.596-1.922,1.323-4.362,1.778-6.587C7.481,33.015,33.047,7.792,61.242,2.309c4.295-.835,8.614-1.543,12.922-2.309,200.517,0,401.035,0,601.552,0,.187.841.866.706,1.461.737,10.738.562,20.984,3.174,30.348,8.421,26.633,14.923,42.149,37.258,42.243,68.3.298,98.315.078,196.631.148,294.946.01,13.247-2.488,25.818-8.993,37.382-9.901,17.602-24.093,30.259-43.282,37.158-5.464,1.965-11.293,2.319-16.681,4.428H67.422c-1.111-1.426-2.826-1.204-4.314-1.536-29.31-6.529-48.894-24.086-59.419-52.124-1.699-4.524-1.539-9.467-3.688-13.821ZM375.317,350.287c47.307,0,94.616-.212,141.92.144,12.312.093,21.704-9.728,21.657-21.493-.273-68.211-.255-136.424-.016-204.635.041-11.663-8.665-21.553-21.638-21.535-94.364.128-188.729.065-283.093.085-2.984,0-5.986.14-8.82,1.269-8.601,3.426-12.697,9.94-12.703,20.372-.019,34.606-.007,69.212-.007,103.817,0,33.356.019,66.713-.022,100.069-.006,4.573.484,8.966,3.031,12.9,4.45,6.874,10.969,9.081,18.892,9.062,46.932-.112,93.865-.055,140.798-.055ZM160.834,335.79c5.24,0,10.489-.174,15.718.071,2.75.129,3.228-.821,3.186-3.338-.154-9.238-.154-18.482-.002-27.721.043-2.623-.374-3.669-3.371-3.605-10.102.217-20.214-.071-30.315.171-3.255.078-3.847-.943-3.786-3.95.198-9.861-.035-19.731.146-29.593.049-2.696-.734-3.258-3.299-3.216-9.729.161-19.464.152-29.194.002-2.362-.036-2.878.624-2.849,2.9.13,10.238-.022,20.48.114,30.719.032,2.438-.601,3.145-3.08,3.11-10.229-.144-20.462.006-30.692-.112-2.265-.026-2.968.529-2.934,2.887.141,9.614.138,19.231,0,28.845-.033,2.301.533,2.924,2.868,2.891,9.979-.142,19.964.061,29.942-.135,2.978-.058,4.01.479,3.93,3.755-.251,10.234-.018,20.479-.148,30.717-.03,2.321.605,2.939,2.91,2.909,9.73-.13,19.465-.16,29.194.013,2.713.048,3.26-.826,3.225-3.359-.141-10.363.009-20.73-.112-31.093-.026-2.239.428-3.024,2.832-2.93,5.232.205,10.478.063,15.718.063ZM566.082,318.644c-.633,12.257,9.391,22.999,22.036,23.612,12.27.596,23.193-9.447,23.876-21.951.653-11.954-9.787-23.417-21.93-24.077-12.737-.692-23.3,9.18-23.983,22.415ZM686.516,319.106c-.389-12.661-11.1-23.152-23.419-22.937-12.501.218-23.079,11.305-22.574,23.66.51,12.476,11.062,22.74,23.039,22.413,13.078-.357,23.336-10.696,22.954-23.136Z"/>
</svg>