<?xml version="1.0" encoding="utf-8"?>
<!-- Generator: Adobe Illustrator 28.1.0, SVG Export Plug-In . SVG Version: 6.00 Build 0)  -->
<svg version="1.1" id="Badges" xmlns="http://www.w3.org/2000/svg" xmlns:xlink="http://www.w3.org/1999/xlink" x="0px" y="0px"
	 viewBox="0 0 102.9 68.3" style="enable-background:new 0 0 102.9 68.3;" xml:space="preserve">
<style type="text/css">
	.st0{fill:#76B900;}
</style>
<g id="g434">
	<path id="NVIDIA_Logo" class="st0" d="M38.4,20.3v-6.1c0.6,0,1.2-0.1,1.8-0.1C57,13.6,68,28.5,68,28.5S56.1,45,43.4,45
		c-1.8,0-3.5-0.3-5-0.8V25.6c6.5,0.8,7.9,3.7,11.8,10.2l8.7-7.4c0,0-6.4-8.4-17.2-8.4C40.6,20.1,39.5,20.2,38.4,20.3 M38.4,0v9.2
		c0.6,0,1.2-0.1,1.8-0.1c23.4-0.8,38.6,19.2,38.6,19.2S61.3,49.6,43.1,49.6c-1.7,0-3.2-0.2-4.7-0.4v5.7c1.3,0.2,2.6,0.3,3.9,0.3
		c17,0,29.2-8.7,41.1-18.9c2,1.6,10,5.4,11.7,7.1c-11.3,9.5-37.6,17.1-52.5,17.1c-1.4,0-2.8-0.1-4.2-0.2v8h64.5v-68
		C102.9,0.3,38.4,0,38.4,0z M38.4,44.2V49c-15.7-2.8-20-19.1-20-19.1s7.5-8.3,20-9.7v5.3l0,0c-6.6-0.8-11.7,5.3-11.7,5.3
		S29.6,41.3,38.4,44.2 M10.5,29.3c0,0,9.3-13.7,27.9-15.1v-5C17.8,10.8,0,28.3,0,28.3s10.1,29.1,38.4,31.8v-5.3
		C17.6,52.2,10.5,29.3,10.5,29.3z"/>
</g>
</svg>
