<?xml version="1.0" encoding="UTF-8"?>
<svg xmlns="http://www.w3.org/2000/svg" xmlns:xlink="http://www.w3.org/1999/xlink" width="1000px" height="1000px" viewBox="0 0 1000 1000" version="1.1">
<g id="surface1">
<path style=" stroke:none;fill-rule:nonzero;fill:rgb(100%,100%,100%);fill-opacity:1;" d="M 912.5 956.25 L 87.5 956.25 C 37.5 956.25 0 915.625 0 868.75 L 0 131.25 C 0 81.25 40.625 43.75 87.5 43.75 L 912.5 43.75 C 962.5 43.75 1000 84.375 1000 131.25 L 1000 865.625 C 1000 915.625 959.375 956.25 912.5 956.25 Z M 118.75 765.625 C 118.75 790.625 137.5 809.375 162.5 809.375 L 325 809.375 L 325 750 L 190.625 750 C 181.25 750 175 743.75 175 734.375 L 175 646.875 C 175 637.5 181.25 631.25 190.625 631.25 L 321.875 631.25 L 321.875 571.875 L 162.5 571.875 C 137.5 571.875 118.75 590.625 118.75 615.625 Z M 353.125 234.375 C 353.125 209.375 334.375 190.625 309.375 190.625 L 162.5 190.625 C 137.5 190.625 118.75 209.375 118.75 234.375 L 118.75 381.25 C 118.75 406.25 137.5 425 162.5 425 L 265.625 425 L 265.625 365.625 L 190.625 365.625 C 181.25 365.625 175 359.375 175 350 L 175 265.625 C 175 256.25 184.375 250 190.625 250 L 278.125 250 C 287.5 250 293.75 256.25 293.75 265.625 L 293.75 440.625 C 293.75 450 287.5 456.25 278.125 456.25 L 118.75 456.25 L 118.75 515.625 L 309.375 515.625 C 334.375 515.625 353.125 496.875 353.125 471.875 Z M 353.125 618.75 L 353.125 765.625 C 353.125 790.625 371.875 809.375 396.875 809.375 L 543.75 809.375 C 568.75 809.375 587.5 790.625 587.5 765.625 L 587.5 618.75 C 587.5 593.75 568.75 575 543.75 575 L 396.875 575 C 371.875 575 353.125 593.75 353.125 618.75 Z M 618.75 234.375 C 618.75 209.375 600 190.625 575 190.625 L 428.125 190.625 C 403.125 190.625 384.375 209.375 384.375 234.375 L 384.375 381.25 C 384.375 406.25 403.125 425 428.125 425 L 575 425 C 600 425 618.75 406.25 618.75 381.25 Z M 881.25 234.375 C 881.25 209.375 862.5 190.625 837.5 190.625 L 690.625 190.625 C 665.625 190.625 646.875 209.375 646.875 234.375 L 646.875 381.25 C 646.875 406.25 665.625 425 690.625 425 L 793.75 425 L 793.75 365.625 L 718.75 365.625 C 709.375 365.625 703.125 359.375 703.125 350 L 703.125 265.625 C 703.125 256.25 709.375 250 718.75 250 L 806.25 250 C 815.625 250 821.875 256.25 821.875 265.625 L 821.875 440.625 C 821.875 450 815.625 456.25 806.25 456.25 L 643.75 456.25 L 643.75 515.625 L 834.375 515.625 C 859.375 515.625 878.125 496.875 878.125 471.875 L 878.125 234.375 Z M 881.25 575 L 659.375 575 C 634.375 575 615.625 593.75 615.625 618.75 L 615.625 809.375 L 675 809.375 L 675 646.875 C 675 637.5 681.25 631.25 690.625 631.25 L 718.75 631.25 L 718.75 806.25 L 778.125 806.25 L 778.125 631.25 L 821.875 631.25 L 821.875 806.25 L 881.25 806.25 Z M 543.75 368.75 L 456.25 368.75 C 446.875 368.75 440.625 362.5 440.625 353.125 L 440.625 265.625 C 440.625 256.25 446.875 250 456.25 250 L 543.75 250 C 553.125 250 559.375 256.25 559.375 265.625 L 559.375 353.125 C 559.375 362.5 553.125 368.75 543.75 368.75 Z M 425 631.25 L 512.5 631.25 C 521.875 631.25 528.125 637.5 528.125 646.875 L 528.125 734.375 C 528.125 743.75 521.875 750 512.5 750 L 425 750 C 415.625 750 409.375 743.75 409.375 734.375 L 409.375 646.875 C 412.5 637.5 418.75 631.25 425 631.25 Z M 425 631.25 "/>
</g>
</svg>
