<?xml version="1.0" encoding="utf-8"?>
<!-- Generator: Adobe Illustrator 28.3.0, SVG Export Plug-In . SVG Version: 6.00 Build 0)  -->
<svg version="1.1" id="레이어_1" xmlns="http://www.w3.org/2000/svg" xmlns:xlink="http://www.w3.org/1999/xlink" x="0px"
	 y="0px" viewBox="0 0 220 125" style="enable-background:new 0 0 220 125;" xml:space="preserve">
<style type="text/css">
	.st0{fill:#FFFFFF;}
</style>
<path class="st0" d="M27.2,41.5C22.9,47,20,54.5,20,65c0,10.2,3.7,20.5,9.6,28.2C35.6,101,42.9,105,50,105c7.6,0,15.1-4.3,25.4-10.9
	C85.9,87.4,97.1,80,110,80s24.1,7.4,34.6,14.1c10.2,6.6,17.8,10.9,25.4,10.9c7.1,0,14.4-4,20.4-11.8c5.9-7.7,9.6-18.1,9.6-28.2
	c0-10.5-2.9-18-7.2-23.5c-4.4-5.7-11-10.1-19.6-13.4C155.8,21.3,132.5,20,110,20c-22.5,0-45.8,1.3-63.3,8.1
	C38.2,31.4,31.6,35.8,27.2,41.5z M39.5,9.4C60.8,1.2,87.5,0,110,0c22.5,0,49.2,1.2,70.5,9.4c10.8,4.2,20.8,10.4,28.1,19.7
	C216,38.6,220,50.5,220,65c0,14.7-5.2,29.3-13.8,40.4C197.7,116.5,185,125,170,125c-14.2,0-26.6-7.9-35.7-13.8
	c-7.1-4.5-15.4-11.2-24.3-11.2s-17.2,6.7-24.3,11.2C76.6,117.1,64.2,125,50,125c-15,0-27.7-8.5-36.2-19.6C5.2,94.3,0,79.7,0,65
	c0-14.5,4-26.4,11.4-35.8C18.7,19.8,28.7,13.6,39.5,9.4z"/>
</svg>
