<?xml version="1.0" encoding="utf-8"?>
<!-- Generator: Adobe Illustrator 28.1.0, SVG Export Plug-In . SVG Version: 6.00 Build 0)  -->
<svg version="1.1" id="Шар_1" xmlns="http://www.w3.org/2000/svg" xmlns:xlink="http://www.w3.org/1999/xlink" x="0px" y="0px"
	 viewBox="0 0 478.6 540.1" style="enable-background:new 0 0 478.6 540.1;" xml:space="preserve">
<style type="text/css">
	.st0{fill:#FFFFFF;}
</style>
<path class="st0" d="M449.1,218.2L245.5,99.5v0l0.7,0.4v193.6c0,1.5-0.4,2.9-1.2,4.2c-0.8,1.2-1.9,2.2-3.3,2.8
	c-1.3,0.6-2.8,0.7-4.2,0.4c-1.4-0.3-2.7-1-3.7-2.1l-69.8-69.7l-69.7,69.7c-1,1-2.3,1.7-3.7,1.9c-1.4,0.2-2.8,0.1-4.1-0.5
	s-2.4-1.5-3.2-2.7c-0.8-1.2-1.2-2.6-1.2-4.1L82.1,4.8c1,0.4,1.9,0.9,2.9,1.3L85,6l-2.9-1.3C44-11.6,0,16.4,0,59.9v420.3
	c0,46,49.3,74.8,88.8,51.8l360.3-210.1C488.5,298.8,488.5,241.2,449.1,218.2z"/>
</svg>
