<?xml version="1.0" encoding="utf-8"?>
<!-- Generator: Adobe Illustrator 28.1.0, SVG Export Plug-In . SVG Version: 6.00 Build 0)  -->
<svg version="1.1" id="Шар_1" xmlns="http://www.w3.org/2000/svg" xmlns:xlink="http://www.w3.org/1999/xlink" x="0px" y="0px"
	 viewBox="0 0 478.6 534.5" style="enable-background:new 0 0 478.6 534.5;" xml:space="preserve">
<style type="text/css">
	.st0{fill:#FFFFFF;}
</style>
<g>
	<path class="st0" d="M169.2,295.2c15.3,0,27.8-12.5,27.8-28c0-15.3-12.5-27.8-27.8-27.8c-15.5,0-28,12.5-28,27.8
		C141.2,282.7,153.7,295.2,169.2,295.2z"/>
	<path class="st0" d="M115.6,378.5H0v96.7c0,45.6,49.3,74,88.8,51.3l110.8-64L115.6,378.5z"/>
	<path class="st0" d="M115.4,292.6c-15.5,0-28,12.5-28,27.8c0,15.5,12.5,27.8,28,27.8c15.3,0,27.8-12.3,27.8-27.8
		C143.2,305.1,130.7,292.6,115.4,292.6z"/>
	<path class="st0" d="M62.1,239.4c-15.3,0-27.8,12.5-27.8,27.8c0,15.5,12.5,28,27.8,28c15.5,0,28-12.5,28-28
		C90.1,251.9,77.6,239.4,62.1,239.4z"/>
	<path class="st0" d="M115.4,186c-15.5,0-28,12.5-28,28c0,15.3,12.5,27.8,28,27.8c15.3,0,27.8-12.5,27.8-27.8
		C143.2,198.5,130.7,186,115.4,186z"/>
	<path class="st0" d="M449.1,216L88.8,8C49.3-14.8,0,13.7,0,59.2v96.7h162.5c47.2,0,87.5,33.8,95.5,80.3l30.6,174.9l160.4-92.6
		C488.5,295.7,488.5,238.8,449.1,216z"/>
</g>
</svg>
