<?xml version="1.0" encoding="utf-8"?>
<!-- Generator: Adobe Illustrator 28.1.0, SVG Export Plug-In . SVG Version: 6.00 Build 0)  -->
<svg version="1.1"
	 id="Layer_1" xmlns:sodipodi="http://sodipodi.sourceforge.net/DTD/sodipodi-0.dtd" xmlns:svg="http://www.w3.org/2000/svg" xmlns:inkscape="http://www.inkscape.org/namespaces/inkscape" xmlns:dc="http://purl.org/dc/elements/1.1/" xmlns:cc="http://creativecommons.org/ns#" xmlns:rdf="http://www.w3.org/1999/02/22-rdf-syntax-ns#" sodipodi:docname="Google_Drive_2020.svg"
	 xmlns="http://www.w3.org/2000/svg" xmlns:xlink="http://www.w3.org/1999/xlink" x="0px" y="0px" viewBox="0 0 481 429.8"
	 style="enable-background:new 0 0 481 429.8;" xml:space="preserve">
<style type="text/css">
	.st0{fill:#0066DA;}
	.st1{fill:#00AC47;}
	.st2{fill:#00832D;}
	.st3{fill:#2684FC;}
	.st4{fill:#EA4335;}
	.st5{fill:#FFBA00;}
</style>
<g id="g23">
	<path id="path11" inkscape:connector-curvature="0" class="st0" d="M36.4,368.3L57.6,405c4.4,7.5,10.6,13.8,18.2,18.2L151.6,292H0
		c0,8.7,2.3,17.2,6.6,24.8L36.4,368.3z"/>
	<path id="path13" inkscape:connector-curvature="0" class="st1" d="M240.5,137.7L164.7,6.6c-7.6,4.4-13.8,10.7-18.2,18.2L6.6,267.2
		C2.3,274.8,0,283.3,0,292h151.6L240.5,137.7z"/>
	<path id="path15" inkscape:connector-curvature="0" class="st2" d="M240.5,137.7L316.3,6.6c-7.5-4.4-16.1-6.7-24.8-6.6H189.5
		c-8.7,0.1-17.2,2.3-24.8,6.6L240.5,137.7z"/>
	<path id="path17" inkscape:connector-curvature="0" class="st3" d="M329.5,292H151.6L75.8,423.1c7.5,4.4,16.1,6.7,24.8,6.6h279.9
		c8.7-0.1,17.2-2.3,24.8-6.6L329.5,292z"/>
	<path id="path19" inkscape:connector-curvature="0" class="st4" d="M405.3,423.1c7.5-4.4,13.8-10.7,18.1-18.2l8.8-15.2l42.2-73
		c4.3-7.5,6.6-16.1,6.6-24.8H329.8L405.3,423.1z"/>
	<path id="path21" inkscape:connector-curvature="0" class="st5" d="M404.4,146l-70-121.2c-4.4-7.6-10.6-13.9-18.2-18.2l-75.8,131.1
		l89,154.3h151.3c0-8.7-2.3-17.2-6.6-24.8L404.4,146z"/>
</g>
</svg>
