<?xml version="1.0" encoding="utf-8"?>
<!-- Generator: Adobe Illustrator 28.1.0, SVG Export Plug-In . SVG Version: 6.00 Build 0)  -->
<svg version="1.1" id="레이어_1" xmlns="http://www.w3.org/2000/svg" xmlns:xlink="http://www.w3.org/1999/xlink" x="0px"
	 y="0px" viewBox="0 0 561.1 561.1" style="enable-background:new 0 0 561.1 561.1;" xml:space="preserve">
<style type="text/css">
	.st0{fill:#EA4335;}
	.st1{fill:#FBBC04;}
	.st2{fill:#4285F4;}
	.st3{fill:#34A853;}
</style>
<path class="st0" d="M288.1,267.9L51.2,514.4l0,0.2c7.3,26.8,32.2,46.5,61.8,46.5c11.8,0,22.9-3.1,32.5-8.6l0.8-0.4l266.6-150.9
	L288.1,267.9z"/>
<path class="st1" d="M527.7,226l-0.2-0.1l-115.1-65.4L282.7,273.5l130.1,127.6l114.5-64.8c20.1-10.6,33.7-31.4,33.7-55.3
	C561.1,257.3,547.6,236.6,527.7,226L527.7,226z"/>
<path class="st2" d="M51.2,46.6c-1.4,5.3-2.2,10.7-2.2,16.1v435.6c0.2,6.3,0.7,11,2.2,16.1l245-240.2L51.2,46.6z"/>
<path class="st3" d="M289.9,280.5l122.6-120.1L146.1,9c-10-5.9-21.4-9-33.1-9C83.5,0,58.5,19.7,51.2,46.5l0,0.1L289.9,280.5z"/>
</svg>
