<?xml version="1.0" encoding="utf-8"?>
<!-- Generator: Adobe Illustrator 28.1.0, SVG Export Plug-In . SVG Version: 6.00 Build 0)  -->
<svg version="1.1"
	 id="svg4532" xmlns:svg="http://www.w3.org/2000/svg" xmlns:inkscape="http://www.inkscape.org/namespaces/inkscape" xmlns:sodipodi="http://sodipodi.sourceforge.net/DTD/sodipodi-0.dtd" xmlns:cc="http://creativecommons.org/ns#" xmlns:dc="http://purl.org/dc/elements/1.1/" xmlns:rdf="http://www.w3.org/1999/02/22-rdf-syntax-ns#"
	 xmlns="http://www.w3.org/2000/svg" xmlns:xlink="http://www.w3.org/1999/xlink" x="0px" y="0px" viewBox="0 0 139.5 102.6"
	 style="enable-background:new 0 0 139.5 102.6;" xml:space="preserve">
<style type="text/css">
	.st0{fill:#4285F4;}
	.st1{fill:#34A853;}
	.st2{fill:#FBBC05;}
	.st3{fill:#EA4335;}
</style>
<g id="g9367">
	<path id="path4524" sodipodi:nodetypes="cccccccc" class="st0" d="M121.4,0H38.9c-7.2,0-13,5.9-13,13.1v13.1h100.5
		c7.2,0,13,5.9,13,13.1v-21C139.5,8.1,131.3,0,121.4,0z"/>
	<path id="path4526" sodipodi:nodetypes="cccccccc" class="st1" d="M18.1,0C8.1,0,0,8.2,0,18.2v45.1c0,7.2,5.8,13.1,13,13.1h13V13.1
		C26,5.9,31.8,0,38.9,0L18.1,0z"/>
	<path id="path4528" sodipodi:nodetypes="cccccccc" class="st2" d="M18.1,102.6h82.5c7.2,0,13-5.9,13-13.1V76.4H13
		c-7.2,0-13-5.9-13-13.1v21.2C0,94.4,8,102.6,18.1,102.6z"/>
	<path id="path4530" sodipodi:nodetypes="cccccccc" class="st3" d="M121.4,102.6c9.9,0,18.1-8.2,18.1-18.2V39.3
		c0-7.2-5.8-13.1-13-13.1h-13v63.3c0,7.2-5.8,13.1-13,13.1L121.4,102.6z"/>
</g>
</svg>
