<?xml version="1.0" encoding="utf-8"?>
<!-- Generator: Adobe Illustrator 28.1.0, SVG Export Plug-In . SVG Version: 6.00 Build 0)  -->
<svg version="1.1" id="Layer_1" xmlns="http://www.w3.org/2000/svg" xmlns:xlink="http://www.w3.org/1999/xlink" x="0px" y="0px"
	 viewBox="0 0 343.9 343.9" style="enable-background:new 0 0 343.9 343.9;" xml:space="preserve">
<style type="text/css">
	.st0{fill:#FFFFFF;}
</style>
<path class="st0" d="M213.1,262.5l-38.6-97.8l-56.6,89.2H82.4l79.1-127.7l-8.9-25.2h-30.8V70.9h52.7L235,224.8l26.6-8.7l8.9,29.8
	L213.1,262.5z"/>
<path class="st0" d="M171.9,343.9C77.1,343.9,0,266.7,0,171.9C0,77.1,77.1,0,171.9,0c94.8,0,171.9,77.1,171.9,171.9
	C343.9,266.7,266.7,343.9,171.9,343.9z M171.9,34C95.9,34,34,95.9,34,171.9s61.9,137.9,137.9,137.9c76.1,0,137.9-61.9,137.9-137.9
	S248,34,171.9,34z"/>
</svg>
