<?xml version="1.0" encoding="utf-8"?>
<!-- Generator: Adobe Illustrator 28.2.0, SVG Export Plug-In . SVG Version: 6.00 Build 0)  -->
<svg version="1.1" id="레이어_1" xmlns="http://www.w3.org/2000/svg" xmlns:xlink="http://www.w3.org/1999/xlink" x="0px"
	 y="0px" viewBox="0 0 16 16" style="enable-background:new 0 0 16 16;" xml:space="preserve">
<style type="text/css">
	.st0{fill:#FFFFFF;}
</style>
<path class="st0" d="M8,3.2c1.9,0,3.5,0.6,4.6,1.8c0.9,0.1,1.8,0.5,2.5,1.1C13.9,3.5,11.3,2,8,2C4.8,2,2.1,3.5,0.8,6.1
	c0.7-0.5,1.4-0.9,2.3-1C4.2,3.9,6,3.2,8,3.2"/>
<path class="st0" d="M12,14c-1,0-2-0.4-2.8-1.1l0,0c-0.1-0.1-0.2-0.1-0.3-0.2c-0.3-0.1-0.6-0.2-0.9-0.2c-0.4,0-0.7,0.1-0.9,0.2
	c-0.1,0-0.2,0.1-0.3,0.2l0,0c-1.6,1.5-4.1,1.5-5.7-0.1s-1.5-4.1,0.1-5.7C2,6.4,3,6,4,6h8c2.2,0,4,1.8,4,4S14.2,14,12,14"/>
</svg>
