<?xml version="1.0" encoding="utf-8"?>
<!-- Generator: Adobe Illustrator 28.1.0, SVG Export Plug-In . SVG Version: 6.00 Build 0)  -->
<svg version="1.1" id="Layer_1" xmlns="http://www.w3.org/2000/svg" xmlns:xlink="http://www.w3.org/1999/xlink" x="0px" y="0px"
	 viewBox="0 0 373 420" style="enable-background:new 0 0 373 420;" xml:space="preserve">
<style type="text/css">
	.st0{fill:#418AF2;}
	.st1{fill:#FFFFFF;}
	.st2{fill:#36AEEA;}
</style>
<g>
	<g>
		<polygon class="st0" points="353.1,306.8 186.5,403.6 19.9,306.8 19.9,114.6 186.5,17.8 353.1,114.6 		"/>
		<polygon class="st1" points="186.5,0 0,104.6 0,314.6 186.5,420 373,314.6 373,104.6 		"/>
	</g>
	<path class="st2" d="M34.9,193.6C47,93.9,133.8,66.9,133.8,66.9C17.8,190.8,156.6,279,156.6,279l-94,20.6
		C63.3,299.7,29.9,259.8,34.9,193.6z"/>
	<path class="st2" d="M246.3,351.7c-99.7,36.3-158-27.1-158-27.1c163,41.3,174.4-123.9,174.4-123.9l62.6,71.9
		C325.3,272.6,307.5,323.9,246.3,351.7z"/>
	<path class="st2" d="M335.3,238.5c-49.8-163-190.1-85.4-190.1-85.4l29.9-94.7c0,0,59.8-7.8,113.9,38.4
		C355.2,154.5,335.3,238.5,335.3,238.5z"/>
</g>
</svg>
