<?xml version="1.0" encoding="utf-8"?>
<!-- Generator: Adobe Illustrator 28.1.0, SVG Export Plug-In . SVG Version: 6.00 Build 0)  -->
<svg version="1.1" id="_레이어_1" xmlns="http://www.w3.org/2000/svg" xmlns:xlink="http://www.w3.org/1999/xlink" x="0px"
	 y="0px" viewBox="0 0 600.1 600.2" style="enable-background:new 0 0 600.1 600.2;" xml:space="preserve">
<style type="text/css">
	.st0{fill:#FFFFFF;}
</style>
<path class="st0" d="M303,600.2c-53.4-0.2-100.7-11.9-145-35.8c-46.3-24.9-83.7-59.5-111.6-104C7.5,398.6-6.8,331.1,2.9,258.7
	c6.5-48.6,24.4-92.7,52.8-132.7c26.1-36.6,58.9-65.9,98-87.9c34.6-19.5,71.8-31.6,111.3-36c23.3-2.6,46.6-2.9,70-0.4
	c21.9,2.3,43.6,5.5,64.5,12.6c8.3,2.8,16.3,6.7,24.4,10c37.6,15.4,68.7,39.5,95.2,70.2c13.8,16,27,32.3,38,50.4
	c2.2,3.6,1.6,5.8-1.4,7.7c-3.1,2.1-5.7,0.8-7.6-2c-13.5-19.3-32.2-29.4-55.4-32.5c-27.4-3.7-52.6-13.8-76.5-27.4
	c-27.7-15.8-57.6-25-89.4-28.4c-54.1-5.8-104.6,5-151.2,33.2c-37.3,22.6-66.3,53.3-86.9,91.7c-24.2,45.3-32.6,93.6-26.1,144.5
	c5.2,40.5,19.8,77.3,44.1,110c37.5,50.6,87.2,82.1,149.2,94.2c22.1,4.3,44.4,5,66.7,3c40.7-3.6,77.8-17.3,111.7-40
	c28.9-19.4,52.4-44,70.7-73.6c10.9-17.6,19.2-36.5,25.1-56.3c1.1-3.6,2.7-6.4,6.9-5.2c4.1,1.2,4.2,4.3,3,8.1
	c-6,19.5-14.2,37.9-24.3,55.6c-12.5,21.9-20,45.6-23.6,70.6c-4.4,29.9-20.9,51.1-47.2,65.3c-18.3,9.9-37.4,18.3-57.3,24.3
	c-20.4,6.1-41.3,10.4-62.6,11.7C316.5,599.8,308.2,600,303,600.2L303,600.2z"/>
<path class="st0" d="M525,300.4C524.4,427,425.4,517,318.5,524.8c-140.9,10.3-245-102.7-243.6-226.5C76.2,175.9,175.4,75,301,75.1
	C424.6,75.2,525.8,176.4,525,300.4L525,300.4z M299.6,85.3C181.7,85.2,85.2,181.9,85.2,300.1c0,118.1,96.2,214.8,213.7,214.9
	c119.4,0.1,215.8-95.8,215.8-214.8C514.8,181.9,418.2,85.4,299.6,85.3L299.6,85.3z"/>
<path class="st0" d="M542.5,241.7c8.7-9.4,17.9-13.6,29.2-11.8c12.7,2,22.9,12,24.8,24.6c5.9,38.5,4.4,76.7-4.4,114.6
	c-11.7,50-35.1,93.9-69.3,132.2c-2,2.2-4.2,4.3-6.3,6.4c-2.5,2.7-5.4,3.6-8.2,0.8c-2.7-2.7-1.5-5.2,0.9-7.8
	c16.4-17.1,30.9-35.8,42.4-56.6c11.2-20.2,12.9-41.6,4.5-63.1c-6-15.4-10.7-31.2-14.1-47.3c-2.1-9.8-2-20.2-1.9-30.3
	c0.1-8.3-0.8-16.6-1.4-24.7c-2.7-32.6-11.8-63.6-27.5-92.4c-1.8-3.4-2.6-6.4,1.1-8.6c3.9-2.3,6.1,0.3,7.9,3.5
	c8.8,16.3,15.9,33.2,20.6,51.1C541.4,235.1,542.9,237.6,542.5,241.7L542.5,241.7z M571,401.2c0.6-0.3,1-0.3,1.1-0.5
	c11.1-29.7,16.2-60.6,17.6-92.2c0.7-16.6-0.2-33.1-3.1-49.5c-0.8-4.5-1.4-9.3-5.2-12.9c-6.5-6.1-15.5-8-23-4.3
	c-8,3.9-12.1,11.7-11,21.1c1.5,12.9,2.5,25.8,2.6,38.8c0.2,21.6,3.5,42.7,10.7,63C565,376.5,570.6,388.1,571,401.2L571,401.2z"/>
<path class="st0" d="M564.3,180.7c0.2-2.9,1.3-4.7,3.5-5.5c2.1-0.7,4.2-0.2,5.3,1.6c3.4,5.3,5.4,11.4,7.3,17.3
	c0.7,2-0.6,3.9-2.6,4.9c-2.1,1.2-4.6,1.2-5.9-0.7C568.5,192.7,566.5,186.3,564.3,180.7L564.3,180.7z"/>
<path class="st0" d="M497.7,160.9c-1.3-0.1-2.7-0.6-3.7-1.9c-2.5-3.1-5-6.2-7.3-9.4c-1.9-2.6-1.3-5,1.1-7c2.3-1.9,4.7-1.7,6.6,0.4
	c2.7,3.1,5.3,6.4,7.6,9.8C504.2,156.3,501.7,160.8,497.7,160.9L497.7,160.9z"/>
</svg>
