<?xml version="1.0" encoding="utf-8"?>
<!-- Generator: Adobe Illustrator 28.1.0, SVG Export Plug-In . SVG Version: 6.00 Build 0)  -->
<svg version="1.1" id="레이어_1" xmlns="http://www.w3.org/2000/svg" xmlns:xlink="http://www.w3.org/1999/xlink" x="0px"
	 y="0px" viewBox="0 0 80 80" style="enable-background:new 0 0 80 80;" xml:space="preserve">
<style type="text/css">
	.st0{fill:#FFFFFF;}
</style>
<path class="st0" d="M7.7,12.3c1.3-0.1,2.6,0.2,3.7,0.7l10.2,4.5c1.2,0.5,2.6,0.6,3.9,0.3l12.1-3.2c1.3-0.3,2.4-1.1,3.2-2.2l6.6-9
	c2.6-3.6,7.7-4.4,11.3-1.8c1,0.8,1.9,1.8,2.5,2.9l17.3,34c3,6.1,0.6,13.4-5.4,16.5c-0.8,0.4-1.6,0.7-2.4,0.9l-1,0.3L73.1,68
	c0.8,2.9-1,5.8-3.8,6.6c-2.9,0.8-5.8-1-6.6-3.8L59.5,59l-17.3,4.6L41.8,62c-1-3.7-4.8-5.8-8.4-4.8s-5.8,4.8-4.8,8.4l0,0l0.5,1.6
	l-1.9,0.5l0.3,1.2c0.3,1.1,1.3,1.7,2.4,1.4c1.1-0.3,1.7-1.3,1.4-2.4l0,0v0L30.5,65c-0.7-2.6,0.8-5.3,3.5-6c2.6-0.7,5.3,0.8,6,3.5
	l0.8,2.9c1.6,6.3-2.2,12.7-8.5,14.3c-6.1,1.6-12.4-2-14.2-8l0-0.2l-0.4-1.2l-0.1,0c-6.5,1.8-13.3-2.1-15-8.7
	c-0.2-0.8-0.3-1.6-0.4-2.5L0,20.9C-0.2,16.4,3.2,12.5,7.7,12.3L7.7,12.3L7.7,12.3z M42.7,65.4L59,61.1c0.2,4.1-2.9,7.5-7,7.7
	c-0.2,0-0.4,0-0.6,0c-1.7,3.2-5.5,4.7-8.9,3.5C43.1,70.1,43.2,67.7,42.7,65.4L42.7,65.4z M35.1,29c-3.4,0.9-6.4,1.9-9.1,2.8
	c-5.1,1.9-8.4,6.7-8.3,12.1l0,0l0.1,6.1c0,0.5,0.1,1.1,0.2,1.6c0.9,4.2,5.1,6.9,9.3,6l0,0c4.4-1,9.2-2.1,14.5-3.6
	c5.3-1.4,10.1-2.8,14.4-4.2c0.5-0.2,1-0.4,1.5-0.6c3.8-2.1,5.1-6.9,3-10.7l0,0l0,0l-3-5.3c-2.7-4.7-8-7.2-13.3-6.3
	C41.5,27.4,38.4,28.1,35.1,29L35.1,29z M28.8,39.6c1.6-0.4,3.2,0.5,3.6,2.1l1.3,4.7c0.4,1.6-0.5,3.2-2.1,3.6
	c-1.6,0.4-3.2-0.5-3.6-2.1l0,0l-1.3-4.7C26.3,41.6,27.2,40,28.8,39.6L28.8,39.6z M45.8,35.1c1.6-0.4,3.2,0.5,3.6,2.1l1.3,4.7
	c0.4,1.6-0.5,3.2-2.1,3.6C47,45.9,45.4,45,45,43.4l0,0l-1.3-4.7C43.3,37.1,44.3,35.5,45.8,35.1z M37,9.7c1.1-0.3,2.1,0.3,2.4,1.4
	s-0.3,2.1-1.4,2.4L24.8,17c-1.1,0.3-2.1-0.4-2.4-1.4s0.3-2.1,1.4-2.4L37,9.7L37,9.7z"/>
</svg>
