<?xml version="1.0" encoding="utf-8"?>
<!-- Generator: Adobe Illustrator 28.1.0, SVG Export Plug-In . SVG Version: 6.00 Build 0)  -->
<svg version="1.1" id="레이어_1" xmlns="http://www.w3.org/2000/svg" xmlns:xlink="http://www.w3.org/1999/xlink" x="0px"
	 y="0px" viewBox="0 0 283.2 249.7" style="enable-background:new 0 0 283.2 249.7;" xml:space="preserve">
<style type="text/css">
	.st0{fill:#FFFFFF;}
</style>
<path class="st0" d="M191.4,208c-15.7,4.9-32.5,7.6-49.8,7.6s-34.1-2.7-49.8-7.6c-18.4-6-29.8-24.4-26-43.3
	c7-34.7,24.9-65,50.4-88.3c14.6-13.5,36.8-13.5,51.4,0c24.9,22.7,42.8,53.6,50.4,88.3C221.2,183.6,210.4,202.5,191.4,208
	 M280.8,190.6L175.7,9.2c-3.2-6-9.2-9.2-15.7-9.2h-36.3c-6.5,0-12.5,3.2-15.7,9.2L2.4,190.6c-3.2,6-3.2,13,0,18.4l18.4,31.4
	c3.2,6,9.2,9.2,15.7,9.2h209.6c6.5,0,12.5-3.2,15.7-9.2l18.4-31.4C284,203.1,284,196,280.8,190.6"/>
</svg>
