<svg xmlns="http://www.w3.org/2000/svg" viewBox="0 0 27.63 8.7"><path d="M2.94 2.71h1.41c1.38 0 2.5.61 2.5 2.2V8.7h-2.2V5.19a.59.59 0 0 0-.59-.56H2.78a.57.57 0 0 0-.59.56v3.5H0V0h2.2v2.83a1.79 1.79 0 0 1 .74-.12Zm16.19 6h-2.2V0h2.2Zm-6.65-1.93a.59.59 0 0 0 .59-.56V2.71h2.21V6.4a2.12 2.12 0 0 1-2.21 2.29H10.9A2.21 2.21 0 0 1 8.41 6.4V2.71h2.2v3.51a.58.58 0 0 0 .59.56Zm13-4.07v3.51a.57.57 0 0 1-.59.56h-1.32a.57.57 0 0 1-.57-.56V2.71h-2.2v3.68a2.21 2.21 0 0 0 2.49 2.3h2.15a2.11 2.11 0 0 0 2.2-2.3V2.71Z" style="fill:#1ce783;fill-rule:evenodd"/></svg>