<?xml version="1.0" encoding="UTF-8"?>
<svg id="Laag_1" data-name="Laag 1" xmlns="http://www.w3.org/2000/svg" viewBox="0 0 1999.971 1601.876">
  <defs>
    <style>
      .cls-1 {
        fill: #fff;
        stroke-width: 0px;
      }
    </style>
  </defs>
  <g id="Page-1">
    <path id="Shape" class="cls-1" d="M1345.772,901.201c7.94,3.97,17.864,13.497,29.774,28.781s22.43,32.751,31.759,52.6c21.239,50.218,31.759,120.484,31.759,210.401,0,137.555-47.043,240.175-140.929,307.662s-230.25,101.231-408.892,101.231c-194.522,0-343.39-37.713-446.606-113.14-109.766-81.977-164.748-225.685-164.748-430.726,0-156.213,47.042-280.468,140.929-373.164,31.759-31.759,60.143-56.967,85.351-75.427,25.208-18.46,58.158-38.309,99.246-59.547,51.608-25.208,96.864-45.256,135.967-60.54s60.54-23.422,64.51-24.811c174.672-67.487,287.217-146.288,337.435-236.205,17.269-30.369,25.804-61.929,25.804-94.283s-8.535-56.967-25.804-73.442-19.849-26.201-7.94-28.781c23.819,3.97,44.661,19.849,62.525,47.638s26.796,52.997,26.796,75.427-.595,41.286-1.985,56.57-4.367,33.744-8.932,55.578-11.512,43.668-20.842,65.502-21.239,46.05-35.728,72.449c-29.178,52.997-78.801,117.11-148.869,192.537-66.098,70.067-107.781,117.705-125.05,142.914l-55.578,75.427-39.698,67.487-23.819,65.502-11.909,65.502,9.925,55.578c11.909,37.118,46.248,67.487,103.216,91.306-14.49-11.909-27.789-32.354-39.698-61.532s-17.864-63.517-17.864-103.216,27.392-90.909,82.374-153.831,96.268-100.238,124.057-111.155.992,0,0,0l333.466,169.71ZM903.136,135.024c0,58.158,27.193,113.736,81.382,166.733l-97.261,53.593c-26.399-59.547-39.698-124.454-39.698-194.522,0-34.339,6.55-59.547,19.849-75.427,19.849-25.208,37.316-41.286,52.6-48.63,15.284-7.344,22.827-7.543,22.827-.992s-3.97,13.894-11.909,21.834c-17.269,17.269-26.399,43.073-27.789,77.412ZM833.664,387.108l-184.597,71.457L33.744,137.009C11.314,122.519,0,104.853,0,84.408s3.573-37.713,10.917-51.608c7.344-13.894,18.46-23.422,33.744-28.781,15.284-5.359,33.347-5.359,54.585,0l734.418,383.089ZM1141.326,547.886l833.664,430.726c27.789,26.399,32.354,58.158,13.894,95.276-6.55,14.49-16.475,25.208-29.774,31.759s-29.774,9.329-49.623,7.94l-863.438-448.591,95.276-117.11Z"/>
  </g>
</svg>