<?xml version="1.0" encoding="UTF-8"?>
<svg width="40px" height="46px" viewBox="0 0 40 46" version="1.1" xmlns="http://www.w3.org/2000/svg" xmlns:xlink="http://www.w3.org/1999/xlink">
    <!-- Generator: Sketch 60.1 (88133) - https://sketch.com -->
    <title>Bindle_Red</title>
    <desc>Created with Sketch.</desc>
    <g id="Page-1" stroke="none" stroke-width="1" fill="none" fill-rule="evenodd">
        <g id="Artboard" transform="translate(-191.000000, -302.000000)" fill="#CB272C">
            <path d="M202.421891,302 L211.16685,312.551204 L211.221427,316.302961 L212.063057,316.193201 L213.14984,316.38714 L215.262265,317.37111 L216.28433,317.884511 L216.696198,320.699593 L224.623982,327.475839 L229.097564,339.076452 L218.360967,348 L206.431414,348 L195.694816,339.076452 L200.168697,327.475839 L207.281394,321.592543 L210.600196,322.995027 L213.173699,321.780532 L210.307922,321.84032 L208.194303,320.619876 L208.37951,318.580845 L205.766938,317.275925 L200.819752,311.334329 L202.421891,302 Z M204.551972,319.128632 L206.081937,319.71015 L205.571949,321.526687 L198.067365,323.561256 L192.675804,325.594933 L191,324.942027 L191,322.253659 L195.694876,321.672141 L204.551972,319.128632 Z M228.523127,315.11839 L231,317.007802 L230.125862,319.128632 L226.409806,319.128632 L218.832452,319.987078 L219.415211,318.654792 L221.309624,317.794562 L223.495416,317.153256 L228.523127,315.11839 Z M227.138612,304.598716 L225.280883,313.88575 L218.527563,317.664575 L217.201593,317.794562 L216.555608,317.135706 L219.56096,315.035996 L221.414515,310.92105 L217.399624,313.083821 L215.432142,316.20855 L213.428275,315.752259 L215.183411,311.323799 L227.138612,304.598716 Z" id="Bindle_Red"></path>
        </g>
    </g>
</svg>