<?xml version="1.0" encoding="UTF-8"?>
<svg id="_레이어_1" data-name="레이어 1" xmlns="http://www.w3.org/2000/svg" viewBox="0 0 387.845 306.023">
  <defs>
    <style>
      .cls-1 {
        fill: #946f38;
      }

      .cls-1, .cls-2 {
        stroke-width: 0px;
      }

      .cls-2 {
        fill: #e40112;
      }
    </style>
  </defs>
  <path class="cls-2" d="M301.638,88.038c28.399,0,51.381-.019,74.362.01,8.601.011,11.834,3.238,11.838,11.674.009,19.318.008,38.637,0,57.955-.003,8.462-2.89,11.442-11.329,11.447-41.633.025-83.265.012-124.898.004-2.501,0-4.973.038-7.424.717-7.381,2.044-11.872,8.393-11.295,16.103.536,7.155,6.686,13.311,14.008,13.949,1.488.13,2.996.052,4.494.052,41.299.002,82.599,0,123.898.003,9.83,0,12.545,2.668,12.546,12.297.002,19.152.01,38.304-.004,57.455-.006,7.84-3.299,11.514-11.252,11.027-6.78-.415-10.256,1.635-12.98,8.296-4.623,11.302-14.054,17.079-26.438,16.823-12.052-.25-20.6-6.567-25.001-17.468-2.32-5.747-5.188-8.061-11.369-7.644-7.626.515-15.336.497-22.965.008-5.956-.382-8.897,1.692-11.024,7.373-5.837,15.585-24.213,22.402-38.831,14.76-8.11-4.24-13.387-10.988-14.934-20.065-.8-4.69-3.054-7.212-7.373-8.971-40.392-16.451-63.901-54.595-60.657-98.116,3.294-44.199,40.558-82.633,84.657-86.746,25.74-2.401,51.594-.229,71.969-.944ZM240.695,294.951c9.648-.028,17.587-7.795,17.612-17.231.026-9.377-8.039-17.344-17.576-17.361-9.584-.017-17.594,7.882-17.56,17.317.035,9.579,7.87,17.303,17.524,17.275ZM355.175,277.847c.094-9.651-7.633-17.488-17.248-17.49-9.468-.002-17.107,7.5-17.258,16.95-.157,9.81,7.277,17.536,16.971,17.636,9.815.101,17.44-7.333,17.535-17.095Z"/>
  <path class="cls-1" d="M119.099,184.625c.004,27.978.01,55.956,0,83.934-.003,9.488-2.763,12.293-12.073,12.296-21.482.007-42.965.018-64.447-.01-8.335-.011-11.532-3.175-11.534-11.445-.014-56.622-.011-113.245.008-169.867.003-7.801,3.503-11.44,11.182-11.46,21.982-.057,43.964-.057,65.946-.003,7.517.019,10.888,3.474,10.899,11.12.039,28.478.016,56.955.02,85.433Z"/>
  <path class="cls-1" d="M75.57.023c4.61-.145,8.865,1.245,12.964,3.147,18.238,8.461,36.428,17.027,54.705,25.401,4.557,2.088,7.418,5.197,7.301,10.24-.113,4.862-3.196,7.635-7.494,9.608-18.271,8.387-36.477,16.916-54.686,25.437-8.849,4.141-17.655,4.13-26.486.006-18.216-8.506-36.414-17.051-54.666-25.481C2.91,46.395.087,43.551.002,38.607c-.089-5.215,2.927-8.127,7.374-10.176C25.786,19.95,44.157,11.383,62.536,2.834,66.674.909,70.98-.175,75.57.023ZM136.711,38.537c-.468-1.286-1.676-1.619-2.697-2.101-16.961-8.01-33.916-16.032-50.917-23.957-5.609-2.614-11.224-2.266-16.825.392-16.348,7.759-32.743,15.419-49.111,23.135-1.314.619-3.317.917-3.356,2.57-.041,1.723,2,1.958,3.306,2.568,16.091,7.52,32.236,14.925,48.267,22.571,6.658,3.176,12.973,3.107,19.6-.048,15.884-7.563,31.868-14.917,47.812-22.356,1.482-.692,3.18-1.082,3.921-2.773Z"/>
</svg>