<?xml version="1.0" encoding="utf-8"?>
<!-- Generator: Adobe Illustrator 28.2.0, SVG Export Plug-In . SVG Version: 6.00 Build 0)  -->
<svg version="1.1" id="레이어_1" xmlns="http://www.w3.org/2000/svg" xmlns:xlink="http://www.w3.org/1999/xlink" x="0px"
	 y="0px" viewBox="0 0 162.8 76.6" style="enable-background:new 0 0 162.8 76.6;" xml:space="preserve">
<g id="レイヤー_2">
	<g id="mark">
		<path d="M7.6,10c0-5.5,4.5-10,10-10s10,4.5,10,10s-4.5,10-10,10S7.6,15.6,7.6,10"/>
		<path d="M26.3,68.5c3.1,0.6,6.2,1.4,9.1,2.6l-1,2.7c-10.7-4.2-22.7-4.2-33.4,0l-1-2.7c3-1.2,6-2,9.1-2.6v-37
			C6,30.9,2.9,30.1,0,28.9l1-2.7c2.6,1,5.3,1.8,8.1,2.3s5.7,0.8,8.6,0.8c2.9-0.1,5.8-0.5,8.6-1.2L26.3,68.5L26.3,68.5z"/>
		<path d="M100.4,5.6c-27.7,8.2-46-0.3-46.2-0.4L53,7.8c3.8,1.7,7.7,2.8,11.8,3.4v56.6c-4.1,0.6-8,1.7-11.8,3.4l1.2,2.6
			c0.2-0.1,18.4-8.7,46.2-0.4c18.7,5.6,37,3.7,48.8-5.2c8.9-6.7,13.6-16.6,13.6-28.8s-4.7-22.1-13.6-28.7
			C137.4,1.9,119.1,0,100.4,5.6 M137.3,10.7c1.1,1.1,2.1,2.3,3,3.7s1.6,2.8,2.2,4.4c2.2,5.4,2.7,11.5,2.9,17.3c0,1.2,0,2.3,0,3.5
			s0,2.3,0,3.5c-0.2,5.8-0.7,11.8-2.9,17.3c-0.6,1.5-1.3,3-2.2,4.4c-0.9,1.3-1.9,2.6-3,3.7c-3.7,3.6-8.6,5.1-13.6,5.3
			c-1.8,0.1-3.6,0.1-5.4,0s-3.7-0.2-5.6-0.5s-3.8-0.6-5.7-1c-1.9-0.4-3.9-0.9-5.8-1.5C95,68.9,88.5,67.7,82,67.2V11.9
			c6.5-0.5,12.9-1.7,19.2-3.6c1.9-0.6,3.8-1.1,5.8-1.5c1.9-0.4,3.8-0.7,5.7-1s3.7-0.4,5.6-0.5s3.6-0.1,5.4,0
			C128.7,5.6,133.5,7.1,137.3,10.7"/>
	</g>
</g>
</svg>
