<?xml version="1.0" encoding="utf-8"?>
<!-- Generator: Adobe Illustrator 28.1.0, SVG Export Plug-In . SVG Version: 6.00 Build 0)  -->
<svg version="1.1" id="레이어_1" xmlns="http://www.w3.org/2000/svg" xmlns:xlink="http://www.w3.org/1999/xlink" x="0px"
	 y="0px" viewBox="0 0 440.7 178.3" style="enable-background:new 0 0 440.7 178.3;" xml:space="preserve">
<path id="d" d="M277.4,38.1c0.5,2.2,0.8,7.3,0.8,15.3v68.1c0,11.7-0.8,18.9-2.3,21.5c-1.5,2.6-5.6,3.9-12.1,3.9V31.6
	c5,0,8.4,0.5,10.2,1.6C275.7,34.2,276.9,35.8,277.4,38.1L277.4,38.1z M298,175.4c5.4-1.2,10-3.3,13.7-6.3c3.7-3,6.3-7.1,7.8-12.5
	c1.5-5.3,2.4-15.8,2.4-31.6V63.4c0-16.6-0.6-27.8-1.7-33.4c-1-5.7-3.5-10.8-7.6-15.4c-4.1-4.6-10-7.9-17.8-10c-7.8-2-20.5-3-42.6-3
	h-34v175.6h55.3C286.2,176.8,294.4,176.2,298,175.4L298,175.4z"/>
<path id="c" d="M131.9,83.6c-3.9-26.8-6.1-41.7-6.5-44.6c-1.9-14.3-3.7-26.8-5.5-37.4H60.7v175.6h40l0.1-116l16.8,116h28.5l16-118.6
	l0.1,118.6H202V1.5h-59.6L131.9,83.6L131.9,83.6z"/>
<path id="b" d="M0,2.7h45.6v175.6H0V2.7z"/>
<path id="e" d="M395.4,149.1c-0.8,2.2-4.5,3.4-7.3,3.4c-2.7,0-4.5-1.1-5.5-3.2c-0.9-2.2-1.4-7.1-1.4-14.8V88c0-8,0.4-13,1.2-15
	c0.8-2,2.6-3,5.3-3c2.8,0,6.5,1.1,7.5,3.4c1,2.3,1.4,7.1,1.4,14.6v45C396.4,142.3,396,147.6,395.4,149.1z M337.3,175.6h41.1
	c1.7-6.7,2.6-10.4,2.8-11.2c3.7,4.5,7.8,7.9,12.3,10.1c4.5,2.2,11.2,3.4,16.3,3.4c7.2,0,13.4-1.9,18.7-5.7c5.2-3.8,8.6-8.3,10-13.4
	c1.4-5.2,2.1-13,2.1-23.5V86c0-10.6-0.2-17.5-0.7-20.8c-0.5-3.3-1.9-6.6-4.2-10c-2.3-3.4-5.7-6-10.2-7.9c-4.4-1.9-9.7-2.8-15.7-2.8
	c-5.2,0-12,1.1-16.5,3.1c-4.5,2.1-8.5,5.2-12.2,9.4V0h-44L337.3,175.6L337.3,175.6z"/>
</svg>
