<?xml version="1.0" encoding="UTF-8"?>
<svg id="_레이어_1" data-name="레이어 1" xmlns="http://www.w3.org/2000/svg" viewBox="0 0 191.855 191.842">
  <defs>
    <style>
      .cls-1 {
        fill: #fff;
        stroke-width: 0px;
      }
    </style>
  </defs>
  <path class="cls-1" d="M110.916,191.842h-28.978c-1.514-1.924-3.848-1.533-5.845-1.988-17.686-4.031-33.454-11.606-46.243-24.764,1.291-1.498,2.536-3.04,3.881-4.487,7.091-7.626,14.207-15.229,21.314-22.839,5.253,2.176,1.881-2.724,3.139-3.826,5.68-3.372,9.688-8.487,13.934-13.354,10.707,13.128,24.227,19.865,41.437,18.356,22.691-1.99,41.08-23.026,40.185-45.749-.161-4.084-1.489-5.379-5.596-5.204-7.806.333-15.636.082-23.455.11-1.459.005-3.019-.351-4.259.853-5.174,5.023-10.353,10.04-15.53,15.059,9.056,1.121,17.482,1.194,25.905,1.081,2.942-.039,3.659.721,2.011,3.331-5.576,8.829-13.482,13.775-23.981,13.677-10.581-.099-18.868-4.571-23.934-14.211,10.497-10.98,21.002-21.953,31.484-32.948,1.59-1.668,3.072-3.44,4.604-5.164,2.543.568,4.583,2.124,6.215,3.944,2.305,2.57,3.794,2.444,6.254-.052,9.32-9.46,9.421-9.361-.806-17.491,1.023-.522,2.283-.817,3.032-1.601,8.823-9.24,18.838-17.354,26.358-27.825,14.789,13.391,23.482,30.205,27.87,49.466.373,1.637-.133,3.743,1.945,4.716v28.976c-1.923,1.115-1.475,3.202-1.807,4.854-7.631,37.925-36.88,67.308-74.906,75.229-1.469.306-3.449-.184-4.225,1.849Z"/>
  <path class="cls-1" d="M55.046,137.764c-7.107,7.611-14.224,15.213-21.314,22.839-1.346,1.447-2.59,2.989-3.881,4.487-14.831-13.247-23.402-30.031-27.853-49.166-.336-1.444.292-3.496-1.997-4.016v-31.974c2.334-.5,1.65-2.582,2.015-4.027C12.035,36.212,36.876,11.505,76.703,1.873c1.48-.358,3.456.158,4.236-1.873h27.979c1.735,1.937,4.248,1.41,6.395,1.889,17.878,3.994,33.777,11.639,46.727,24.862-7.52,10.471-17.535,18.585-26.358,27.825-.748.784-2.009,1.079-3.032,1.6-1.489-.723-2.974-1.454-4.467-2.167-24.085-11.49-52.848.429-61.627,25.618-5.073,14.555-2.41,28.135,5.564,40.956-4.247,4.867-8.255,9.982-13.934,13.353-.069-22.139-.093-44.277-.242-66.414-.032-4.771.601-9.573-.408-14.319-5.015.941-8.659,4.642-13.183,6.544-2.741,1.153-3.424,2.996-3.4,5.842.13,15.15.783,30.347-.176,45.437-.721,11.357,1.472,20.08,12.487,25.057.704.318,1.193,1.109,1.782,1.68Z"/>
  <path class="cls-1" d="M84.901,107.89c-6.346-10.335-4.823-23.5,3.766-32.544,8.57-9.024,21.699-11.286,32.322-5.568-1.532,1.724-3.014,3.496-4.604,5.164-10.481,10.995-20.986,21.968-31.484,32.948Z"/>
</svg>