<?xml version="1.0" encoding="utf-8"?>
<!-- Generator: Adobe Illustrator 28.1.0, SVG Export Plug-In . SVG Version: 6.00 Build 0)  -->
<svg version="1.1" id="레이어_1" xmlns="http://www.w3.org/2000/svg" xmlns:xlink="http://www.w3.org/1999/xlink" x="0px"
	 y="0px" viewBox="0 0 330 331" style="enable-background:new 0 0 330 331;" xml:space="preserve">
<style type="text/css">
	.st0{fill:#FFFFFF;}
</style>
<g>
	<path class="st0" d="M180.5,60.1c-16.4,1.1-25.6,8.1-25.6,20.5c0,0.7,0,1.5,0.1,2.2c1.2,11.4,11.4,19.6,22.8,18.3
		c8.3,0.4,16.2-3.8,20.7-10.9h1.1v9.7h13.1V53.1c0-14.4-9.7-23-27-23c-15.6,0-26.7,7.5-28.1,19.1h13.1c1.5-5,6.8-7.8,14.3-7.8
		c9.2,0,14.1,4.2,14.1,11.8V59L180.5,60.1z M199.1,74.7c0,0.2,0,0.4,0,0.6c-0.8,9-8.7,15.7-17.7,14.9c-7.4,0-12.8-3.8-12.8-10.1
		c0-6.3,4.3-9.6,13.8-10.2l16.8-1.1L199.1,74.7z"/>
	<path class="st0" d="M257.1,101.1c8.9,0.3,17.2-4.3,21.6-12h1.1V100h12.9V4.5h-13.6v37.8h-1c-4.1-7.7-12.3-12.4-21-12.1l0,0
		c-17.4,0-28.6,13.6-28.6,35.3C228.5,87.4,239.6,101.1,257.1,101.1z M261,41.8c11.4,0,18.5,9.1,18.5,23.9c0,14.8-7.1,23.8-18.5,23.8
		c-11.5,0-18.4-9-18.4-23.9S249.6,41.8,261,41.8z"/>
	<path class="st0" d="M194.6,187.4c0,26.7,16.3,43.8,54,52l20.8,4.6c26.1,5.7,36.5,16.2,36.5,31.9c0,18.5-18.5,31.9-44,31.9
		c-27,0-45.8-12.3-48.5-32.5h-23.4c2.2,32.5,29.6,53.6,70.6,53.6l0,0.1c42.1,0,69.5-21.8,69.5-56.6c0-26.6-15.5-42.2-54.7-50.8
		l-20.8-4.6c-25.7-5.6-35.7-15.8-35.7-30.6c0-19.1,18.1-30.6,41.6-30.6l0.3,0c20.9-2.6,40,12.3,42.6,33.3h23.5
		c-1-31.9-28.2-54.3-65.7-54.3C222,134.6,194.6,156.4,194.6,187.4z"/>
	<path class="st0" d="M93.1,68.9h21c0.4,0,0.9,0,1.3,0c16.6-0.2,29.8-13.9,29.6-30.4c-0.2-16.6-13.9-29.8-30.4-29.6H78.9V100h14.2
		V68.9z M93,20.8h17.8c1.3-0.2,2.7-0.2,4-0.1c9.3,0.8,16.2,9,15.4,18.4h0c0.1,1.2,0,2.4-0.1,3.6c-1.3,9.3-10,15.7-19.3,14.4H93V20.8
		z"/>
	<path class="st0" d="M50.6,19.1c0.1,0,0.1,0,0.2,0c4.7,0,8.5-3.9,8.5-8.6c0-4.7-3.9-8.5-8.6-8.5C45.9,2,42,5.9,42,10.6
		C42.1,15.3,45.9,19.1,50.6,19.1z"/>
	<rect x="43.9" y="31.4" class="st0" width="13.5" height="68.6"/>
	<path class="st0" d="M86.6,329c53.3,0,86.7-37.3,86.7-97s-33.4-97.2-86.7-97.2C33.4,134.7,0,172.3,0,231.9S33.4,329,86.6,329z
		 M86.6,156.3c38.4,0,62.5,29.3,62.5,75.6c0,46.3-24.1,75.4-62.5,75.4c-38.4,0-62.5-29-62.5-75.4C24.1,185.4,48.2,156.3,86.6,156.3z
		"/>
</g>
</svg>
