<?xml version="1.0" encoding="utf-8"?>
<!-- Generator: Adobe Illustrator 28.1.0, SVG Export Plug-In . SVG Version: 6.00 Build 0)  -->
<svg version="1.1" id="_레이어_1" xmlns="http://www.w3.org/2000/svg" xmlns:xlink="http://www.w3.org/1999/xlink" x="0px"
	 y="0px" viewBox="0 0 259 300" style="enable-background:new 0 0 259 300;" xml:space="preserve">
<style type="text/css">
	.st0{fill:#DC0000;}
	.st1{fill:#FFFFFF;}
</style>
<path class="st0" d="M259,150.6c0,24.7-0.1,49.3,0.1,74c0,3.2-0.9,5-3.8,6.6c-40.6,22.4-81.2,45-121.8,67.6c-2.8,1.6-5,1.6-7.8,0
	c-40.4-22.5-80.8-45-121.3-67.4c-3.2-1.8-4.3-3.7-4.3-7.3c0.1-49.5,0.1-99,0-148.4c0-3.5,1.1-5.3,4.1-7
	c40.6-22.4,81.2-45,121.8-67.6c2.7-1.5,4.6-1.5,7.2,0c40.7,22.7,81.4,45.3,122.2,67.8c2.7,1.5,3.7,3.2,3.7,6.2
	C258.9,100.3,259,125.5,259,150.6z M215.9,150c0-14.7-0.2-29.3,0.1-43.9c0.1-4.5-1.2-7.1-5.2-9.4c-25.8-14.8-51.6-29.8-77.2-44.9
	c-3.1-1.8-5.2-1.6-8.1,0.1c-26.2,15.4-52.5,30.8-78.9,46c-2.8,1.6-3.5,3.5-3.5,6.4c0.1,30.6,0.1,61.3,0,91.9c0,3.1,1,4.8,3.6,6.3
	c26.4,15.4,52.8,30.9,79.1,46.6c2.8,1.7,4.8,1.6,7.6-0.1c26.2-15.6,52.4-31,78.7-46.3c2.8-1.6,3.9-3.4,3.9-6.7
	C215.8,180.6,215.9,165.3,215.9,150L215.9,150z"/>
<path class="st1" d="M129.7,79.4c1.9-0.7,2.9,0.5,4,1.1c19.1,10.5,38,21.1,57.1,31.6c2.5,1.4,3.5,2.9,3.5,5.8
	c-0.1,21.5-0.1,43,0,64.5c0,2.7-0.9,4.1-3.2,5.4c-19.5,10.7-39,21.5-58.4,32.4c-2,1.1-3.6,1.4-5.9,0.2
	c-19.8-11.2-39.8-22.2-59.7-33.2c-0.4-0.2-0.8-0.6-1.6-1.2c2.7-1.6,5.2-3,7.7-4.4c17.3-9.6,34.5-19.3,51.9-28.7
	c3.7-2,4.6-4.2,4.6-8.1c-0.2-20.2-0.1-40.3-0.1-60.5L129.7,79.4L129.7,79.4z"/>
</svg>
