<?xml version="1.0" encoding="utf-8"?>
<!-- Generator: Adobe Illustrator 28.1.0, SVG Export Plug-In . SVG Version: 6.00 Build 0)  -->
<svg version="1.1" id="Layer_1" xmlns="http://www.w3.org/2000/svg" xmlns:xlink="http://www.w3.org/1999/xlink" x="0px" y="0px"
	 viewBox="0 0 727.6 533.8" style="enable-background:new 0 0 727.6 533.8;" xml:space="preserve">
<style type="text/css">
	.st0{fill-rule:evenodd;clip-rule:evenodd;fill:#FFFFFF;}
	.st1{fill:#FFFFFF;}
</style>
<g>
	<path class="st0" d="M224.4,0.6h-0.9h-0.9h-0.9h-0.9h-0.9H219h-0.6h-0.9h-0.9h-0.9h-0.9h-0.9H213h-0.6h-0.9h-0.9h-0.9h-0.9h-0.9
		H207h-0.6h-0.9h-0.9h-0.9h-0.9h-0.9H201h-0.6h-0.9h-0.9h-0.9h-0.9h-0.9H195h-0.6h-0.9h-0.9h-0.9h-0.9h-0.9H189h-0.6h-0.9h-0.9h-0.9
		h-0.9h-0.9H183h-0.6h-0.9h-0.9h-0.9h-0.9h-0.9H177h-0.6h-0.9h-0.9h-0.9h-0.9h-0.9H171h-0.6h-0.9h-0.9h-0.9h-0.9h-0.9H165h-0.6h-0.9
		h-0.9h-0.9h-0.9h-0.9H159h-0.6h-0.9h-0.9h-0.9h-0.9h-0.9H153h-0.6h-0.9h-0.9h-0.9h-0.9h-0.9H147h-0.6h-0.9h-0.9h-0.9h-0.9h-0.9H141
		h-0.6h-0.9h-0.9h-0.9h-0.9h-0.9H135h-0.6h-0.9h-0.9h-0.9h-0.9h-0.9H129h-0.6h-0.9h-0.9h-0.9h-0.9h-0.9H123h-0.6h-0.9h-0.9h-0.9
		h-0.9h-0.9H117h-0.9h-0.9h-0.9h-0.9h-0.9h-0.9h-0.9h-0.9h-0.9H108h-0.9h-0.9h-0.9h-0.9h-0.9h-0.9h-0.9h-0.9h-0.9H99h-0.9h-0.9h-0.9
		h-0.9h-0.9h-0.9h-0.5h-0.4c-0.3,0-0.6,0-0.9,0c-0.3,0-0.6,0-0.9,0c-0.3,0-0.6,0-0.9,0h-0.9c-0.3,0-0.6,0-0.9,0s-0.6,0-0.9,0.1
		c-0.3,0-0.6,0-0.9,0.1c-0.3,0-0.6,0-0.9,0.1L84.6,1c-0.3,0-0.6,0-0.9,0.1c-0.3,0-0.6,0.1-0.9,0.1l-0.9,0.1L81,1.4
		c-0.3,0-0.6,0.1-0.9,0.1s-0.6,0.1-0.9,0.1s-0.6,0.1-0.9,0.1l-0.9,0.1c-0.3,0-0.6,0.1-0.9,0.1C76.2,2,75.9,2,75.6,2.1
		c-0.3,0.1-0.6,0.1-0.9,0.2c-0.3,0.1-0.6,0.1-0.9,0.2l-0.9,0.2c-0.3,0.1-0.6,0.1-0.9,0.2C71.7,3,71.4,3,71.1,3.1s-0.6,0.1-0.9,0.2
		c-0.3,0.1-0.6,0.1-0.9,0.2l-0.9,0.2c-0.3,0.1-0.6,0.2-0.9,0.2c-0.3,0.1-0.6,0.2-0.9,0.3S66,4.4,65.7,4.5s-0.6,0.2-0.9,0.3l-0.9,0.3
		L63,5.4c-0.3,0.1-0.6,0.2-0.9,0.3S61.5,5.9,61.2,6s-0.6,0.2-0.9,0.3l-0.9,0.3l-0.9,0.3l-0.9,0.3c-0.3,0.1-0.6,0.2-0.9,0.4
		c-0.3,0.1-0.6,0.2-0.9,0.4c-0.3,0.1-0.6,0.2-0.9,0.4c-0.3,0.1-0.6,0.3-0.9,0.4c-0.3,0.1-0.6,0.3-0.9,0.4c-0.3,0.1-0.6,0.3-0.9,0.4
		L51.3,10c-0.3,0.1-0.6,0.3-0.9,0.4c-0.3,0.1-0.6,0.3-0.9,0.5s-0.6,0.3-0.9,0.5s-0.6,0.3-0.9,0.5s-0.6,0.3-0.9,0.5s-0.6,0.3-0.9,0.5
		s-0.6,0.3-0.9,0.5s-0.6,0.4-0.9,0.5c-0.3,0.2-0.6,0.4-0.9,0.5c-0.3,0.2-0.6,0.4-0.9,0.6c-0.3,0.2-0.6,0.4-0.9,0.6
		c-0.3,0.2-0.6,0.4-0.9,0.6c-0.3,0.2-0.6,0.4-0.9,0.6c-0.3,0.2-0.6,0.4-0.9,0.6L37.8,18c-0.3,0.2-0.6,0.4-0.9,0.6
		c-0.3,0.2-0.6,0.4-0.9,0.7c-0.3,0.2-0.6,0.4-0.9,0.7c-0.3,0.2-0.6,0.5-0.9,0.7s-0.6,0.5-0.9,0.7s-0.6,0.5-0.9,0.7s-0.6,0.5-0.9,0.8
		s-0.6,0.5-0.9,0.8c-0.3,0.3-0.6,0.5-0.9,0.8s-0.6,0.5-0.9,0.8s-0.6,0.6-0.9,0.8c-0.3,0.3-0.6,0.6-0.9,0.8c-0.3,0.3-0.6,0.6-0.9,0.9
		s-0.6,0.6-0.9,0.9c-0.3,0.3-0.6,0.6-0.9,0.9c-0.3,0.3-0.6,0.6-0.9,1c-0.3,0.3-0.6,0.6-0.9,1c-0.3,0.3-0.6,0.7-0.9,1
		c-0.3,0.3-0.6,0.7-0.9,1c-0.3,0.4-0.6,0.7-0.9,1.1c-0.3,0.4-0.6,0.7-0.9,1.1c-0.3,0.4-0.6,0.8-0.9,1.1c-0.3,0.4-0.6,0.8-0.9,1.2
		c-0.3,0.4-0.6,0.8-0.9,1.2c-0.3,0.4-0.6,0.8-0.9,1.3c-0.3,0.4-0.6,0.9-0.9,1.3c-0.3,0.5-0.6,0.9-0.9,1.4c-0.3,0.5-0.6,1-0.9,1.4
		c-0.3,0.5-0.6,1-0.9,1.5c-0.3,0.5-0.6,1-0.9,1.6c-0.3,0.5-0.6,1.1-0.9,1.6C9.6,50,9.3,50.6,9,51.1c-0.3,0.6-0.6,1.2-0.9,1.8
		c-0.3,0.6-0.6,1.3-0.9,2c-0.3,0.7-0.6,1.4-0.9,2.1c-0.3,0.8-0.6,1.5-0.9,2.3c-0.3,0.8-0.6,1.7-0.9,2.5c-0.3,0.9-0.6,1.8-0.9,2.8
		c-0.3,1-0.6,2.1-0.9,3.1c-0.3,1.2-0.6,2.5-0.9,3.7C0.6,77.2,0,83.3,0,89.5V309c0.6,0.3,1.2,0.6,1.8,0.9l0,0l0.9,0.4l0.9,0.4
		l0.9,0.4l0.9,0.4l0.9,0.4l0.9,0.4l0.9,0.4l0.9,0.4l0.9,0.4l0.9,0.4l0.9,0.4l0.9,0.4l0.9,0.4l0.9,0.4l0.9,0.4l0.9,0.3l0.9,0.3
		l0.9,0.3l0.9,0.3l0.9,0.3l0.9,0.3l0.9,0.3l0.9,0.3l0.9,0.3l0.9,0.3l0.9,0.3l0.9,0.3l0.9,0.3l0.9,0.3l0.9,0.3l0.9,0.3l0.9,0.3
		l0.9,0.3l0.9,0.3l0.9,0.3l0.9,0.3l0.9,0.3l0.9,0.3l0.9,0.2l0.9,0.2l0.9,0.2l0.9,0.2l0.9,0.2l0.9,0.2l0.9,0.2l0.9,0.2l0.9,0.2
		l0.9,0.2l0.9,0.2l0.9,0.2l0.9,0.2l0.9,0.2l0.9,0.2l0.9,0.2l0.9,0.2l0.9,0.2l0.9,0.2l0.9,0.2l0.9,0.2l0.9,0.1l0.9,0.1l0.9,0.1
		l0.9,0.1l0.9,0.1l0.9,0.1l0.9,0.1l0.9,0.1l0.9,0.1l0.9,0.1l0.9,0.1l0.9,0.1l0.9,0.1l0.9,0.1l0.9,0.1l0.9,0.1l0.9,0.1l0.9,0.1
		l0.9,0.1l0.9,0.1h0.9h0.9h0.9h0.9h0.9h0.9h0.9h0.9h0.5h0.3c0.3,0,0.6,0,0.9,0h0.9c0.3,0,0.6,0,0.9,0s0.6,0,0.9,0s0.6,0,0.9,0
		s0.6,0,0.9-0.1c0.3,0,0.6,0,0.9-0.1c0.3,0,0.6-0.1,0.9-0.1l0.9-0.1c0.3,0,0.6-0.1,0.9-0.1c0.3,0,0.6-0.1,0.9-0.1l0.9-0.1
		c0.3,0,0.6-0.1,0.9-0.1c0.3-0.1,0.6-0.1,0.9-0.2c0.3-0.1,0.6-0.1,0.9-0.2c0.3-0.1,0.6-0.1,0.9-0.2c0.3-0.1,0.6-0.1,0.9-0.2
		c0.3-0.1,0.6-0.1,0.9-0.2c0.3-0.1,0.6-0.2,0.9-0.2c0.3-0.1,0.6-0.2,0.9-0.2c0.3-0.1,0.6-0.2,0.9-0.3c0.3-0.1,0.6-0.2,0.9-0.3
		c0.3-0.1,0.6-0.2,0.9-0.3c0.3-0.1,0.6-0.2,0.9-0.3c0.3-0.1,0.6-0.2,0.9-0.3c0.3-0.1,0.6-0.2,0.9-0.3c0.3-0.1,0.6-0.2,0.9-0.4
		c0.3-0.1,0.6-0.3,0.9-0.4c0.3-0.1,0.6-0.3,0.9-0.4c0.3-0.1,0.6-0.3,0.9-0.4c0.3-0.2,0.6-0.3,0.9-0.5c0.3-0.2,0.6-0.3,0.9-0.5
		c0.3-0.2,0.6-0.3,0.9-0.5c0.3-0.2,0.6-0.4,0.9-0.5c0.3-0.2,0.6-0.4,0.9-0.6c0.3-0.2,0.6-0.4,0.9-0.6c0.3-0.2,0.6-0.4,0.9-0.6
		c0.3-0.2,0.6-0.5,0.9-0.7c0.3-0.2,0.6-0.5,0.9-0.7c0.3-0.3,0.6-0.5,0.9-0.8c0.3-0.3,0.6-0.5,0.9-0.8c0.3-0.3,0.6-0.6,0.9-0.9
		c0.3-0.3,0.6-0.6,0.9-0.9c0.3-0.3,0.6-0.7,0.9-1c0.3-0.3,0.6-0.7,0.9-1.1c0.3-0.4,0.6-0.8,0.9-1.1c0.3-0.4,0.6-0.8,0.9-1.2
		c0.3-0.4,0.6-0.9,0.9-1.4c0.3-0.5,0.6-1,0.9-1.5c0.3-0.5,0.6-1.1,0.9-1.7c0.3-0.6,0.6-1.2,0.9-1.9c0.3-0.7,0.6-1.4,0.9-2.2
		c0.3-0.9,0.6-1.7,0.9-2.6c0.3-1.1,0.6-2.3,0.9-3.4c0.4-1.9,0.7-3.8,0.9-5.8c0.1-1.6,0.2-3.1,0.2-4.8V181.8h0.6h0.9h0.9h0.9h0.9h0.9
		h0.9h0.9h0.9h0.9h0.9h0.9h0.9h0.9h0.9h0.9h0.9h0.9h0.9h0.9h0.9h0.9h0.9h0.9h0.9h0.9h0.9h0.9h0.9h0.9h0.9h0.9h0.9h0.9h0.9h0.9h0.9
		h0.9h0.9h0.9h0.9h0.9h0.9h0.9h0.9h0.9h0.9h0.9h0.9h0.9h0.9h0.9h0.9h0.9h0.9h0.9h0.9h0.9h0.9h0.9h0.9h0.9h0.9h0.9h0.9h0.9h0.9h0.9
		h0.9h0.9h0.9h0.9h0.9h0.9h0.9h0.9h0.9h0.9h0.9h0.9h0.9h0.9h0.9h0.9h0.9h0.9h0.9h0.9h0.9h0.4v103.1c0,3-0.1,5.9-0.4,8.8
		c-0.2,2.1-0.5,4.1-0.9,6.1c-0.2,1.4-0.5,2.7-0.9,4c-0.3,1.1-0.5,2.1-0.9,3.2c-0.3,0.9-0.6,1.8-0.9,2.7c-0.3,0.8-0.6,1.5-0.9,2.3
		c-0.3,0.7-0.6,1.4-0.9,2.1c-0.3,0.6-0.6,1.2-0.9,1.9c-0.3,0.6-0.6,1.1-0.9,1.7c-0.3,0.5-0.6,1.1-0.9,1.6c-0.3,0.5-0.6,1-0.9,1.5
		c-0.3,0.5-0.6,0.9-0.9,1.4c-0.3,0.4-0.6,0.9-0.9,1.3c-0.3,0.4-0.6,0.8-0.9,1.2c-0.3,0.4-0.6,0.8-0.9,1.2c-0.3,0.4-0.6,0.7-0.9,1.1
		c-0.3,0.3-0.6,0.7-0.9,1c-0.3,0.3-0.6,0.7-0.9,1c-0.3,0.3-0.6,0.6-0.9,1c-0.3,0.3-0.6,0.6-0.9,0.9c-0.3,0.3-0.6,0.6-0.9,0.9
		c-0.3,0.3-0.6,0.6-0.9,0.8c-0.3,0.3-0.6,0.5-0.9,0.8c-0.3,0.3-0.6,0.5-0.9,0.8c-0.3,0.2-0.6,0.5-0.9,0.7c-0.3,0.2-0.6,0.5-0.9,0.7
		c-0.3,0.2-0.6,0.5-0.9,0.7c-0.3,0.2-0.6,0.4-0.9,0.7c-0.3,0.2-0.6,0.4-0.9,0.6c-0.3,0.2-0.6,0.4-0.9,0.6c-0.3,0.2-0.6,0.4-0.9,0.6
		c-0.3,0.2-0.6,0.4-0.9,0.6c-0.3,0.2-0.6,0.4-0.9,0.6c-0.3,0.2-0.6,0.4-0.9,0.5c-0.3,0.2-0.6,0.4-0.9,0.5c-0.3,0.2-0.6,0.3-0.9,0.5
		c-0.3,0.2-0.6,0.3-0.9,0.5c-0.3,0.2-0.6,0.3-0.9,0.5c-0.3,0.2-0.6,0.3-0.9,0.5c-0.3,0.2-0.6,0.3-0.9,0.5c-0.3,0.1-0.6,0.3-0.9,0.4
		s-0.6,0.3-0.9,0.4c-0.3,0.1-0.6,0.3-0.9,0.4c-0.3,0.1-0.6,0.3-0.9,0.4l-0.9,0.4l-0.9,0.4c-0.3,0.1-0.6,0.3-0.9,0.4
		c-0.3,0.1-0.6,0.2-0.9,0.4l-0.9,0.4l-0.9,0.3c-0.3,0.1-0.6,0.2-0.9,0.3c-0.3,0.1-0.6,0.2-0.9,0.3c-0.3,0.1-0.6,0.2-0.9,0.3
		l-0.9,0.3c-0.3,0.1-0.6,0.2-0.9,0.3c-0.3,0.1-0.6,0.2-0.9,0.3l-0.9,0.3l-0.9,0.3c-0.3,0.1-0.6,0.2-0.9,0.3l-0.9,0.3l-0.9,0.3
		c-0.3,0.1-0.6,0.2-0.9,0.2l-0.9,0.2c-0.3,0.1-0.6,0.2-0.9,0.2c-0.3,0.1-0.6,0.2-0.9,0.2l-0.9,0.2c-0.3,0.1-0.6,0.2-0.9,0.2
		c-0.3,0.1-0.6,0.1-0.9,0.2l-0.9,0.2c-0.3,0.1-0.6,0.1-0.9,0.2c-0.3,0.1-0.6,0.1-0.9,0.2l-0.9,0.2c-0.3,0.1-0.6,0.1-0.9,0.2
		l-0.9,0.2l-0.9,0.2c-0.3,0.1-0.6,0.1-0.9,0.2l-0.9,0.2l-1.6,0.2l-0.9,0.2c-0.3,0.1-0.6,0.1-0.9,0.2c-0.3,0-0.6,0.1-0.9,0.1
		l-0.9,0.1c-0.3,0-0.6,0.1-0.9,0.1l-0.9,0.1l-0.6,0.2l-0.9,0.1c-0.3,0-0.6,0.1-0.9,0.1l-0.9,0.1l-0.9,0.1l-0.9,0.1l-0.9,0.1
		l-0.9,0.1l-0.9,0.1l-0.9,0.1l-0.9,0.1l-0.9,0.1l-0.9,0.1l-0.9,0.1l-0.9,0.1l-0.9,0.1l-0.9,0.1l-0.9,0.1l-0.9,0.1l-0.9,0.1l-0.9,0.1
		l-0.9,0.1l-0.9,0.1h-0.9h-0.9h-0.9H111h-0.9h-0.9h-0.9h-0.9h-0.9h-0.9h-0.9h-0.9h-0.9H102h-0.9h-0.9h-0.9h-0.9h-0.9h-0.9h-0.9h-0.5
		h-0.3H94h-0.9h-0.9h-0.9h-0.9h-0.9h-0.9h-0.9h-0.9h-0.9H85h-0.9h-0.9h-0.9h-0.9h-0.9h-0.9h-0.9h-0.9h-0.9H76h-0.9h-0.9h-0.9
		l-0.9-0.1l-0.9-0.1l-0.9-0.1l-0.9-0.1l-0.9-0.1l-0.9-0.1l-0.9-0.1l-0.9-0.1l-0.9-0.1l-0.9-0.1l-0.9-0.1l-0.9-0.1l-0.9-0.1l-0.9-0.1
		l-0.9-0.1l-0.9-0.1l-0.9-0.1l-0.9-0.1l-0.9-0.1l-0.9-0.1l-0.9-0.1l-0.9-0.1l-0.9-0.1l-0.9-0.1l-0.9-0.1l-0.9-0.1l-0.9-0.1l-0.9-0.1
		l-0.9-0.1l-0.9-0.1l-0.9-0.1l-0.9-0.1l-0.9-0.1l-0.9-0.1l-0.9-0.1l3.6,0.3l-0.9-0.1l-0.9-0.1l-0.9-0.1l-0.9-0.1l-0.9-0.1l-0.9-0.1
		l-0.9-0.1l-0.9-0.1l-0.9-0.1l-0.9-0.1l-0.9-0.1l-0.9-0.1l-0.9-0.1l-0.9-0.1l-0.9-0.1l-0.9-0.1l-0.9-0.1l-0.9-0.1l-0.9-0.2l-0.9-0.2
		l-0.9-0.2l-0.9-0.2l-0.9-0.2l-0.9-0.2l-0.9-0.2l-0.9-0.2l-0.9-0.2l0.3-0.4l-0.9-0.2l-0.9-0.2l-0.9-0.2l-0.9-0.2l-0.9-0.2l-0.9-0.2
		l-0.9-0.2l-0.9-0.2l-0.9-0.2l-0.9-0.2l-0.9-0.2l-0.9-0.2l-0.9-0.2l-0.9-0.2l-0.9-0.2L7,346.9c-1.2-0.3-1.8-0.5-1.8-0.5v187.3H7h0.9
		h1.5h0.9h0.9h0.9H13h0.9h0.9h0.6h0.9h0.9h0.9H19h0.9h0.9h0.6h0.9h0.9h0.9H25h0.9h0.9h0.6h0.9h0.9h0.9H31h0.9h0.9h0.6h0.9h0.9h0.9
		H37h0.9h0.9h0.6h0.9h0.9h0.9H43h0.9h0.9h0.6h0.9h0.9h0.9H49h0.9h0.9h0.6h0.9h0.9h0.9H55h0.9h0.9h0.6h0.9h0.9h0.9H61h0.9h0.9h0.9
		h0.9h0.9h0.9h0.9h0.9h0.9H70h0.9h0.9h0.9h0.9h0.9h0.9h0.9h0.9h0.9H79h0.9h0.9h0.9h0.9h0.9h0.9h0.9h0.9h0.9H88h0.9h0.9h0.9h0.9h0.9
		h0.9h0.9h0.9h0.9H97h0.9h0.9h0.9h0.9h0.9h0.9h0.9h0.9h0.9h0.9h0.9h0.9h0.9h0.9h0.9h0.9h0.9h0.9h0.9h0.9h0.9h0.9h0.9h0.9h0.9h0.9
		h0.9h0.9h0.9h0.9h0.9h0.9h0.9h0.9h0.9h0.9h0.9h0.9h0.9h0.9h0.9h0.9h0.9h0.9h0.9h0.9h0.9h0.9h0.1c0.3,0,0.5,0,0.8,0h0.9
		c0.3,0,0.6,0,0.9,0c0.3,0,0.6,0,0.9,0c0.3,0,0.6,0,0.9,0h0.9l0.9-0.1c0.3,0,0.6,0,0.9-0.1c0.3,0,0.6-0.1,0.9-0.1l0.9-0.1
		c0.3,0,0.6-0.1,0.9-0.1c0.3,0,0.6-0.1,0.9-0.1c0.3,0,0.6-0.1,0.9-0.1c0.3,0,0.6-0.1,0.9-0.1l0.9-0.1c0.3,0,0.6-0.1,0.9-0.1
		c0.3,0,0.6-0.1,0.9-0.1c0.3,0,0.6-0.1,0.9-0.1l0.9-0.2c0.3-0.1,0.6-0.1,0.9-0.2s0.6-0.1,0.9-0.2c0.3-0.1,0.6-0.1,0.9-0.2l0.9-0.2
		l0.9-0.2c0.3-0.1,0.6-0.1,0.9-0.2c0.3-0.1,0.6-0.1,0.9-0.2c0.3-0.1,0.6-0.2,0.9-0.2c0.3-0.1,0.6-0.2,0.9-0.2l0.9-0.2l0.9-0.3
		c0.3-0.1,0.6-0.2,0.9-0.3c0.3-0.1,0.6-0.2,0.9-0.3c0.3-0.1,0.6-0.2,0.9-0.3l0.9-0.3l0.9-0.3c0.3-0.1,0.6-0.2,0.9-0.3
		c0.3-0.1,0.6-0.2,0.9-0.3c0.3-0.1,0.6-0.2,0.9-0.3c0.3-0.1,0.6-0.2,0.9-0.3c0.3-0.1,0.6-0.2,0.9-0.3l0.9-0.4l0.9-0.4
		c0.3-0.1,0.6-0.3,0.9-0.4c0.3-0.1,0.6-0.3,0.9-0.4c0.3-0.1,0.6-0.3,0.9-0.4c0.3-0.1,0.6-0.3,0.9-0.4c0.3-0.1,0.6-0.3,0.9-0.4
		c0.3-0.1,0.6-0.3,0.9-0.4l0.9-0.5c0.3-0.2,0.6-0.3,0.9-0.5c0.3-0.2,0.6-0.3,0.9-0.5c0.3-0.2,0.6-0.3,0.9-0.5
		c0.3-0.2,0.6-0.3,0.9-0.5c0.3-0.2,0.6-0.3,0.9-0.5c0.3-0.2,0.6-0.4,0.9-0.5c0.3-0.2,0.6-0.4,0.9-0.5c0.3-0.2,0.6-0.4,0.9-0.6
		c0.3-0.2,0.6-0.4,0.9-0.6c0.3-0.2,0.6-0.4,0.9-0.6c0.3-0.2,0.6-0.4,0.9-0.6c0.3-0.2,0.6-0.4,0.9-0.6c0.3-0.2,0.6-0.4,0.9-0.6
		c0.3-0.2,0.6-0.4,0.9-0.7c0.3-0.2,0.6-0.4,0.9-0.7c0.3-0.2,0.6-0.5,0.9-0.7c0.3-0.2,0.6-0.5,0.9-0.7c0.3-0.2,0.6-0.5,0.9-0.7
		c0.3-0.2,0.6-0.5,0.9-0.7c0.3-0.2,0.6-0.5,0.9-0.8c0.3-0.3,0.6-0.5,0.9-0.8c0.3-0.3,0.6-0.5,0.9-0.8c0.3-0.3,0.6-0.5,0.9-0.8
		c0.3-0.3,0.6-0.6,0.9-0.8c0.3-0.3,0.6-0.6,0.9-0.9c0.3-0.3,0.6-0.6,0.9-0.9c0.3-0.3,0.6-0.6,0.9-0.9c0.3-0.3,0.6-0.6,0.9-0.9
		c0.3-0.3,0.6-0.6,0.9-1c0.3-0.3,0.6-0.7,0.9-1c0.3-0.3,0.6-0.7,0.9-1c0.3-0.3,0.6-0.7,0.9-1.1c0.3-0.4,0.6-0.7,0.9-1.1
		c0.3-0.4,0.6-0.7,0.9-1.1c0.3-0.4,0.6-0.8,0.9-1.2c0.3-0.4,0.6-0.8,0.9-1.2c0.3-0.4,0.6-0.8,0.9-1.2c0.3-0.4,0.6-0.9,0.9-1.3
		c0.3-0.4,0.6-0.9,0.9-1.3c0.3-0.5,0.6-0.9,0.9-1.4s0.6-1,0.9-1.5s0.6-1,0.9-1.5s0.6-1.1,0.9-1.6c0.3-0.6,0.6-1.1,0.9-1.7
		c0.3-0.6,0.6-1.2,0.9-1.8s0.6-1.2,0.9-1.9s0.6-1.3,0.9-2s0.6-1.4,0.9-2.2s0.6-1.6,0.9-2.3c0.3-0.8,0.6-1.7,0.9-2.6
		c0.3-0.9,0.6-1.9,0.9-2.9c0.3-1.1,0.6-2.2,0.9-3.3c0.3-1.3,0.6-2.7,0.9-4c0.3-1.8,0.6-3.5,0.9-5.3c0.5-3.7,0.7-7.5,0.7-11.4V0.6
		H224.4z"/>
	<path class="st0" d="M470.3,0.6h-0.9h-0.9h-0.9h-0.9h-0.9h-0.9H464h-0.9h-0.9h-0.9h-0.9h-0.9h-0.9h-0.9h-0.9h-0.9H455h-0.9h-0.9
		h-0.9h-0.9h-0.9h-0.9h-0.9h-0.9h-0.9H446h-0.9h-0.9h-0.9h-0.9h-0.9h-0.9h-0.9h-0.9h-0.9H437h-0.9h-0.9h-0.9h-0.9h-0.9h-0.9h-0.9
		h-0.9h-0.9H428h-0.9h-0.9h-0.9h-0.9h-0.9h-0.9h-0.9h-0.9h-0.9H419h-0.9h-0.9h-0.9h-0.9h-0.9h-0.9h-0.9h-0.9h-0.9H410h-0.9h-0.9
		h-0.9h-0.9h-0.9h-0.9h-0.9h-0.9h-0.9h2.5h-0.9h-0.9h-0.9h-0.9h-0.9H399h-0.6h-0.9h-0.9h-0.9h-0.9h-0.9H393h-0.6h-0.9h-0.9h-0.9
		h-0.9h-0.9H387h-0.6h-0.9h-0.9h-0.9h-0.9h-0.9H381h-0.6h-0.9h-0.9h-0.9h-0.9h-0.9H375h-0.6h-0.9h-0.9h-0.9h-0.9h-0.9H369h-0.6h-0.9
		h-0.9h-0.9h-0.9h-0.9H363h-0.6h-0.9h-0.9h-0.9h-0.9h-0.9H357h-0.6h-0.9h-0.9h-0.9h-0.9h-0.9H351h-0.6h-0.9h-0.9h-0.9h-0.9h-0.9H345
		h-0.6h-0.9h-0.9h-0.9h-0.9h-0.5h-0.4c-0.3,0-0.6,0-0.9,0s-0.6,0-0.9,0s-0.6,0-0.9,0h-0.9c-0.3,0-0.6,0-0.9,0s-0.6,0-0.9,0.1
		c-0.3,0-0.6,0-0.9,0.1c-0.3,0-0.6,0-0.9,0.1L331.8,1c-0.3,0-0.6,0-0.9,0.1c-0.3,0-0.6,0.1-0.9,0.1l-0.9,0.1l-0.9,0.1
		c-0.3,0-0.6,0.1-0.9,0.1s-0.6,0.1-0.9,0.1s-0.6,0.1-0.9,0.1l-0.9,0.1l-0.9,0.1c-0.3,0.1-0.6,0.1-0.9,0.2c-0.3,0.1-0.6,0.1-0.9,0.2
		c-0.3,0.1-0.6,0.1-0.9,0.2l-0.9,0.2c-0.3,0.1-0.6,0.1-0.9,0.2c-0.3,0.1-0.6,0.1-0.9,0.2c-0.3,0.1-0.6,0.1-0.9,0.2
		c-0.3,0.1-0.6,0.1-0.9,0.2l-0.9,0.2c-0.3,0.1-0.6,0.2-0.9,0.2c-0.3,0.1-0.6,0.2-0.9,0.3s-0.6,0.2-0.9,0.3s-0.6,0.2-0.9,0.3
		l-0.9,0.3c-0.3,0.1-0.6,0.2-0.9,0.3s-0.6,0.2-0.9,0.3s-0.6,0.2-0.9,0.3s-0.6,0.2-0.9,0.3s-0.6,0.2-0.9,0.3s-0.6,0.2-0.9,0.3
		l-0.9,0.3c-0.3,0.1-0.6,0.2-0.9,0.4c-0.3,0.1-0.6,0.2-0.9,0.4c-0.3,0.1-0.6,0.2-0.9,0.4c-0.3,0.1-0.6,0.3-0.9,0.4
		c-0.3,0.1-0.6,0.3-0.9,0.4c-0.3,0.1-0.6,0.3-0.9,0.4l-0.9,0.4l-0.9,0.4c-0.3,0.1-0.6,0.3-0.9,0.5s-0.6,0.3-0.9,0.5
		s-0.6,0.3-0.9,0.5s-0.6,0.3-0.9,0.5s-0.6,0.3-0.9,0.5s-0.6,0.3-0.9,0.5s-0.6,0.4-0.9,0.5c-0.3,0.2-0.6,0.4-0.9,0.5
		c-0.3,0.2-0.6,0.4-0.9,0.6c-0.3,0.2-0.6,0.4-0.9,0.6c-0.3,0.2-0.6,0.4-0.9,0.6c-0.3,0.2-0.6,0.4-0.9,0.6c-0.3,0.2-0.6,0.4-0.9,0.6
		c-0.3,0.2-0.6,0.4-0.9,0.6c-0.3,0.2-0.6,0.4-0.9,0.6c-0.3,0.2-0.6,0.4-0.9,0.7c-0.3,0.2-0.6,0.4-0.9,0.7c-0.3,0.2-0.6,0.5-0.9,0.7
		s-0.6,0.5-0.9,0.7s-0.6,0.5-0.9,0.7s-0.6,0.5-0.9,0.8s-0.6,0.5-0.9,0.8c-0.3,0.3-0.6,0.5-0.9,0.8s-0.6,0.5-0.9,0.8
		s-0.6,0.6-0.9,0.8c-0.3,0.3-0.6,0.6-0.9,0.8c-0.3,0.3-0.6,0.6-0.9,0.9s-0.6,0.6-0.9,0.9s-0.6,0.6-0.9,0.9s-0.6,0.6-0.9,1
		c-0.3,0.3-0.6,0.6-0.9,1c-0.3,0.3-0.6,0.7-0.9,1s-0.6,0.7-0.9,1c-0.3,0.4-0.6,0.7-0.9,1.1s-0.6,0.7-0.9,1.1s-0.6,0.8-0.9,1.1
		c-0.3,0.4-0.6,0.8-0.9,1.2c-0.3,0.4-0.6,0.8-0.9,1.2c-0.3,0.4-0.6,0.8-0.9,1.3c-0.3,0.4-0.6,0.9-0.9,1.3c-0.3,0.5-0.6,0.9-0.9,1.4
		s-0.6,1-0.9,1.4c-0.3,0.5-0.6,1-0.9,1.5s-0.6,1-0.9,1.6c-0.3,0.5-0.6,1.1-0.9,1.6c-0.3,0.6-0.6,1.2-0.9,1.7
		c-0.3,0.6-0.6,1.2-0.9,1.8c-0.3,0.6-0.6,1.3-0.9,2s-0.6,1.4-0.9,2.1c-0.3,0.8-0.6,1.5-0.9,2.3s-0.6,1.7-0.9,2.5
		c-0.3,0.9-0.6,1.8-0.9,2.8s-0.6,2.1-0.9,3.1c-0.3,1.2-0.6,2.5-0.9,3.7c-1.2,5.8-1.8,11.9-1.8,18.1v116.4c0.6-0.5,1.2-1,1.8-1.5l0,0
		c0.3-0.2,0.6-0.5,0.9-0.7s0.6-0.4,0.9-0.7c0.3-0.2,0.6-0.4,0.9-0.7c0.3-0.2,0.6-0.4,0.9-0.6c0.3-0.2,0.6-0.4,0.9-0.6
		c0.3-0.2,0.6-0.4,0.9-0.6l0.9-0.6c0.3-0.2,0.6-0.4,0.9-0.6l0.9-0.6c0.3-0.2,0.6-0.4,0.9-0.5c0.3-0.2,0.6-0.4,0.9-0.5
		c0.3-0.2,0.6-0.3,0.9-0.5s0.6-0.3,0.9-0.5s0.6-0.3,0.9-0.5s0.6-0.3,0.9-0.5l0.9-0.5l0.9-0.5c0.3-0.2,0.6-0.3,0.9-0.5
		c0.3-0.1,0.6-0.3,0.9-0.4l0.9-0.4l0.9-0.4l0.9-0.4c0.3-0.1,0.6-0.3,0.9-0.4l0.9-0.4l0.9-0.4l0.9-0.4l0.9-0.4l0.9-0.4l0.9-0.4
		l0.9-0.4l0.9-0.3l0.9-0.3c0.3-0.1,0.6-0.2,0.9-0.3l0.9-0.3c0.3-0.1,0.6-0.2,0.9-0.3s0.6-0.2,0.9-0.3l0.9-0.3l0.9-0.3
		c0.3-0.1,0.6-0.2,0.9-0.3l0.9-0.3c0.3-0.1,0.6-0.2,0.9-0.3l0.9-0.3l0.9-0.3l0.9-0.3l0.9-0.3l0.9-0.3l0.9-0.2l0.9-0.2l0.9-0.2
		l0.9-0.2l0.9-0.2l0.9-0.2l0.9-0.2l0.9-0.2l0.9-0.2l0.9-0.2l0.9-0.2l0.9-0.2l0.9-0.2l0.9-0.2l0.9-0.2l0.9-0.2l0.9-0.2l0.9-0.2
		l0.9-0.2l0.9-0.2l0.9-0.2l0.9-0.1l0.9-0.1l0.9-0.1l0.9-0.1l0.9-0.1l0.9-0.1l0.9-0.1l0.9-0.1l0.9-0.1l0.9-0.1l0.9-0.1l0.9-0.1
		l0.9-0.1l0.9-0.1l0.9-0.1l0.9-0.1l0.9-0.1l0.9-0.1l0.9-0.1l0.9-0.1l0.9-0.1l0.9-0.1l0.9-0.1l0.9-0.1l0.9-0.1l0.9-0.1l0.9-0.1
		l0.9-0.1l0.9-0.1l0.9-0.1l0.9-0.1l0.9-0.1h0.9h0.9h0.9h0.9h0.9h0.9h0.9h0.9h0.9h0.9h0.9h0.9h0.9h0.9h0.9h0.9h0.9h0.9h0.9h0.9h0.9
		h0.9h0.9h0.9h0.9h0.9h0.9h0.9h0.9h0.9h0.9h0.9h0.9h0.9h0.9h0.9h0.9h0.9h0.9h0.9h0.9h0.9h0.9h0.9h0.4h0.4h0.9h0.9h0.9l0.9,0.1
		l0.9,0.1l0.9,0.1l0.9,0.1l0.9,0.1l0.9,0.1l0.9,0.1l0.9,0.1l0.9,0.1l0.9,0.1l0.9,0.1l0.9,0.1l0.9,0.1l0.9,0.1l0.9,0.1l0.9,0.1
		l0.9,0.1l0.9,0.1l0.9,0.1l0.9,0.1l0.9,0.1l0.9,0.1l0.9,0.1l0.9,0.1l0.9,0.1l0.9,0.1l0.9,0.1l0.9,0.1l0.9,0.1l0.9,0.1l0.9,0.1
		l0.9,0.1l0.9,0.1l0.9,0.1l0.9,0.1l0.9,0.1l0.9,0.1l0.9,0.1l0.9,0.1l0.9,0.1l0.9,0.1l0.9,0.1l0.9,0.1l0.9,0.1l0.9,0.1l0.9,0.1
		l0.9,0.2l0.9,0.2l0.9,0.2l0.9,0.2l0.9,0.2l0.9,0.2l0.9,0.2l0.9,0.2l0.9,0.2l0.9,0.2l0.9,0.2l0.9,0.2l0.9,0.2l0.9,0.2l0.9,0.2
		l0.9,0.2l0.9,0.2l0.9,0.2l0.9,0.2l0.9,0.2l0.9,0.2l0.9,0.2l0.9,0.2l0.9,0.2l0.9,0.2l0.9,0.2l0.9,0.2l0.9,0.2l0.9,0.2l0.9,0.2
		l0.9,0.2l0.9,0.2v37.6l-0.9-0.4l-0.9-0.4l-0.9-0.4l-0.9-0.4l-0.9-0.4l-0.9-0.4l-0.9-0.4l-0.9-0.4l-0.9-0.4l-0.9-0.4l-0.9-0.4
		l-0.9-0.4l-0.9-0.4l-0.9-0.4l-0.9-0.4l-0.9-0.4l-0.9-0.4l-0.9-0.4l-0.9-0.4l-0.9-0.3l-0.9-0.3l-0.9-0.3l-0.9-0.3l-0.9-0.3l-0.9-0.3
		l-0.9-0.3l-0.9-0.3l-0.9-0.3l-0.9-0.3l-0.9-0.3l-0.9-0.3l-0.9-0.3l-0.9-0.3l-0.9-0.3l-0.9-0.3l-0.9-0.3l-0.9-0.3l-0.9-0.3l-0.9-0.3
		l-0.9-0.2l-0.9-0.2l-0.9-0.2l-0.9-0.2l-0.9-0.2l-0.9-0.2l-0.9-0.2l-0.9-0.2l-0.9-0.2l-0.9-0.2l-0.9-0.2l-0.9-0.2l-0.9-0.2l-0.9-0.2
		l-0.9-0.2l-0.9-0.2l-0.9-0.2l-0.9-0.2l-0.9-0.2l-0.9-0.2l-0.9-0.2l-0.9-0.1l-0.9-0.1l-0.9-0.1l-0.9-0.1l-0.9-0.1l-0.9-0.1l-0.9-0.1
		l-0.9-0.1l-0.9-0.1l-0.9-0.1l-0.9-0.1l-0.9-0.1l-0.9-0.1l-0.9-0.1l-0.9-0.1l-0.9-0.1l-0.9-0.1l-0.9-0.1h-0.5h-0.3l-0.9-0.1
		l-0.9-0.1h-0.9h-0.9h-0.9H375h-0.9h-0.9h-0.9h-0.9c-0.3,0-0.6,0-0.9,0h-0.9h-0.9h-0.9h-0.9c-0.3,0-0.6,0-0.9,0s-0.6,0-0.9,0h-0.9
		l-0.9,0.1l-0.9,0.1l-0.9,0.1c-0.3,0-0.6,0-0.9,0.1c-0.3,0-0.6,0.1-0.9,0.1l-0.9,0.1l-0.9,0.1l-0.9,0.1l-0.9,0.1l-0.9,0.1l-0.9,0.1
		c-0.3,0-0.6,0.1-0.9,0.1s-0.6,0.1-0.9,0.1c-0.3,0.1-0.6,0.1-0.9,0.2c-0.3,0.1-0.6,0.1-0.9,0.2c-0.3,0.1-0.6,0.1-0.9,0.2
		c-0.3,0.1-0.6,0.1-0.9,0.2c-0.3,0.1-0.6,0.1-0.9,0.2l-0.9,0.2c-0.3,0.1-0.6,0.1-0.9,0.2c-0.3,0.1-0.6,0.1-0.9,0.2
		c-0.3,0.1-0.6,0.2-0.9,0.2l-0.9,0.2c-0.3,0.1-0.6,0.2-0.9,0.3s-0.6,0.2-0.9,0.3s-0.6,0.2-0.9,0.3s-0.6,0.2-0.9,0.3
		s-0.6,0.2-0.9,0.3s-0.6,0.2-0.9,0.3s-0.6,0.2-0.9,0.3s-0.6,0.2-0.9,0.3s-0.6,0.2-0.9,0.4c-0.3,0.1-0.6,0.2-0.9,0.4
		c-0.3,0.1-0.6,0.3-0.9,0.4c-0.3,0.1-0.6,0.3-0.9,0.4c-0.3,0.1-0.6,0.3-0.9,0.4c-0.3,0.1-0.6,0.3-0.9,0.4c-0.3,0.2-0.6,0.3-0.9,0.5
		s-0.6,0.3-0.9,0.5s-0.6,0.3-0.9,0.5s-0.6,0.3-0.9,0.5s-0.6,0.4-0.9,0.5c-0.3,0.2-0.6,0.4-0.9,0.6s-0.6,0.4-0.9,0.6
		s-0.6,0.4-0.9,0.6s-0.6,0.4-0.9,0.6s-0.6,0.4-0.9,0.7c-0.3,0.2-0.6,0.5-0.9,0.7s-0.6,0.5-0.9,0.7s-0.6,0.5-0.9,0.8
		s-0.6,0.5-0.9,0.8s-0.6,0.5-0.9,0.8s-0.6,0.6-0.9,0.9s-0.6,0.6-0.9,0.9s-0.6,0.6-0.9,0.9s-0.6,0.7-0.9,1s-0.6,0.7-0.9,1
		c-0.3,0.4-0.6,0.7-0.9,1.1s-0.6,0.8-0.9,1.2c-0.3,0.4-0.6,0.8-0.9,1.3c-0.3,0.4-0.6,0.9-0.9,1.3c-0.3,0.5-0.6,1-0.9,1.4
		c-0.3,0.5-0.6,1-0.9,1.5c-0.3,0.6-0.6,1.1-0.9,1.7s-0.6,1.2-0.9,1.8c-0.3,0.7-0.6,1.3-0.9,2c-0.3,0.8-0.6,1.5-0.9,2.3
		c-0.3,0.9-0.6,1.7-0.9,2.6c-0.3,1-0.6,2.1-0.9,3.1c-0.3,1.3-0.6,2.7-0.9,4.1c-0.4,2-0.7,4.1-0.9,6.3c-0.2,2.5-0.3,5.1-0.3,7.7
		s0.1,5.2,0.3,7.7c0.2,2.2,0.5,4.3,0.9,6.3c0.2,1.4,0.5,2.7,0.9,4.1c0.3,1.1,0.5,2.1,0.9,3.1c0.3,0.9,0.6,1.8,0.9,2.6
		c0.3,0.8,0.6,1.5,0.9,2.3c0.3,0.7,0.6,1.4,0.9,2s0.6,1.2,0.9,1.8c0.3,0.6,0.6,1.1,0.9,1.7c0.3,0.5,0.6,1,0.9,1.5s0.6,1,0.9,1.4
		c0.3,0.5,0.6,0.9,0.9,1.3s0.6,0.8,0.9,1.2c0.3,0.4,0.6,0.8,0.9,1.2c0.3,0.4,0.6,0.7,0.9,1.1s0.6,0.7,0.9,1s0.6,0.7,0.9,1
		s0.6,0.6,0.9,0.9s0.6,0.6,0.9,0.9s0.6,0.6,0.9,0.9s0.6,0.5,0.9,0.8s0.6,0.5,0.9,0.8s0.6,0.5,0.9,0.8c0.3,0.2,0.6,0.5,0.9,0.7
		s0.6,0.5,0.9,0.7s0.6,0.4,0.9,0.7c0.3,0.2,0.6,0.4,0.9,0.6s0.6,0.4,0.9,0.6s0.6,0.4,0.9,0.6s0.6,0.4,0.9,0.6s0.6,0.4,0.9,0.5
		c0.3,0.2,0.6,0.3,0.9,0.5s0.6,0.3,0.9,0.5s0.6,0.3,0.9,0.5s0.6,0.3,0.9,0.5c0.3,0.1,0.6,0.3,0.9,0.4s0.6,0.3,0.9,0.4
		s0.6,0.3,0.9,0.4s0.6,0.3,0.9,0.4s0.6,0.2,0.9,0.4c0.3,0.1,0.6,0.2,0.9,0.4c0.3,0.1,0.6,0.2,0.9,0.3c0.3,0.1,0.6,0.2,0.9,0.3
		c0.3,0.1,0.6,0.2,0.9,0.3c0.3,0.1,0.6,0.2,0.9,0.3c0.3,0.1,0.6,0.2,0.9,0.3c0.3,0.1,0.6,0.2,0.9,0.3c0.3,0.1,0.6,0.2,0.9,0.3
		c0.3,0.1,0.6,0.2,0.9,0.3c0.3,0.1,0.6,0.2,0.9,0.2c0.3,0.1,0.6,0.2,0.9,0.2c0.3,0.1,0.6,0.1,0.9,0.2s0.6,0.1,0.9,0.2l0.9,0.2
		c0.3,0.1,0.6,0.1,0.9,0.2s0.6,0.1,0.9,0.2s0.6,0.1,0.9,0.2s0.6,0.1,0.9,0.2s0.6,0.1,0.9,0.2s0.6,0.1,0.9,0.1s0.6,0.1,0.9,0.1
		s0.6,0.1,0.9,0.1l0.9,0.1l0.9,0.1l0.9,0.1l0.9,0.1l0.9,0.1c0.3,0,0.6,0.1,0.9,0.1s0.6,0,0.9,0.1l0.9,0.1l0.9,0.1l0.9,0.1h0.9
		c0.3,0,0.6,0,0.9,0s0.6,0,0.9,0h0.9h0.9h0.9h0.9c0.3,0,0.6,0,0.9,0h0.9h0.9h0.9h0.9h0.9h0.9h0.9h0.9l0.9-0.1l0.9-0.1h0.3h0.5
		l0.9-0.1l0.9-0.1l0.9-0.1l0.9-0.1l0.9-0.1l0.9-0.1l0.9-0.1l0.9-0.1l0.9-0.1l0.9-0.1l0.9-0.1l0.9-0.1l0.9-0.1l0.9-0.1l0.9-0.1
		l0.9-0.1l0.9-0.1l0.9-0.1l0.9-0.2l0.9-0.2l0.9-0.2l0.9-0.2l0.9-0.2l0.9-0.2l0.9-0.2l0.9-0.2l0.9-0.2l0.9-0.2l0.9-0.2l0.9-0.2
		l0.9-0.2l0.9-0.2l0.9-0.2l0.9-0.2l0.9-0.2l0.9-0.2l0.9-0.2l0.9-0.2l0.9-0.2l0.9-0.3l0.9-0.3l0.9-0.3l0.9-0.3l0.9-0.3l0.9-0.3
		l0.9-0.3l0.9-0.3l0.9-0.3l0.9-0.3l0.9-0.3l0.9-0.3l0.9-0.3l0.9-0.3l0.9-0.3l0.9-0.3l0.9-0.3l0.9-0.3l0.9-0.3l0.9-0.3l0.9-0.3
		l0.9-0.4l0.9-0.4l0.9-0.4l0.9-0.4l0.9-0.4l0.9-0.4l0.9-0.4l0.9-0.4l0.9-0.4l0.9-0.4l0.9-0.4l0.9-0.4l0.9-0.4l0.9-0.4l0.9-0.4
		l0.9-0.4l0.9-0.4l0.9-0.4V347l-0.9,0.2l-0.9,0.2l-0.9,0.2l-0.9,0.2l-0.9,0.2l-0.9,0.2l-0.9,0.2l-0.9,0.2l-0.9,0.2l-0.9,0.2
		l-0.9,0.2l-0.9,0.2l-0.9,0.2l-0.9,0.2l-0.9,0.2l-0.9,0.2l-0.9,0.2l-0.9,0.2l-0.9,0.2l-0.9,0.2l-0.9,0.2l-0.9,0.2l-0.9,0.2l-0.9,0.2
		l-0.9,0.2l-0.9,0.2l-0.9,0.2l-0.9,0.2l-0.9,0.2l-0.9,0.2l-0.9,0.2l-0.9,0.2l-0.9,0.1l-0.9,0.1l-0.9,0.1l-0.9,0.1l-0.9,0.1l-0.9,0.1
		l-0.9,0.1l-0.9,0.1l-0.9,0.1l-0.9,0.1l-0.9,0.1l-0.9,0.1l-0.9,0.1l-0.9,0.1l-0.9,0.1l-0.9,0.1l-0.9,0.1l-0.9,0.1l-0.9,0.1l-0.9,0.1
		l-0.9,0.1l-0.9,0.1l-0.9,0.1l-0.9,0.1l-0.9,0.1l-0.9,0.1l-0.9,0.1l-0.9,0.1l-0.9,0.1l-0.9,0.1l-0.9,0.1l-0.9,0.1l-0.9,0.1l-0.9,0.1
		l-0.9,0.1l-0.9,0.1l-0.9,0.1l-0.9,0.1l-0.9,0.1l-0.9,0.1l-0.9,0.1l-0.9,0.1l-0.9,0.1l-0.9,0.1l-0.9,0.1l-0.9,0.1h-0.9h-0.9h-0.9
		h-0.4h-0.4h-0.9h-0.9H375h-0.9h-0.9h-0.9h-0.9h-0.9h-0.9h-0.9h-0.9h-0.9H366h-0.9h-0.9h-0.9h-0.9h-0.9h-0.9h-0.9h-0.9h-0.9H357
		h-0.9h-0.9h-0.9h-0.9h-0.9h-0.9h-0.9h-0.9h-0.9H348h-0.9h-0.9h-0.9h-0.9h-0.9h-0.9h-0.9h-0.9h-0.9H339h-0.9l-0.9-0.1l-0.9-0.1
		l-0.9-0.1l-0.9-0.1l-0.9-0.1l-0.9-0.1l-0.9-0.1l-0.9-0.1l-0.9-0.1l-0.9-0.1l-0.9-0.1l-0.9-0.1l-0.9-0.1l-0.9-0.1l-0.9-0.1l-0.9-0.1
		l-0.9-0.1l-0.9-0.1l-0.9-0.1l-0.9-0.1l-0.9-0.1l-0.9-0.1l-0.9-0.1l-0.9-0.1l-0.9-0.1l-0.9-0.1l-0.9-0.1l-0.9-0.1l-0.9-0.1l-0.9-0.1
		l-0.9-0.1l-0.9-0.1l-0.9-0.2l-0.9-0.2l-0.9-0.2l-0.9-0.2l-0.9-0.2l-0.9-0.2l-0.9-0.2l-0.9-0.2l-0.9-0.2l1.2-0.9l-0.9-0.2l-0.9-0.2
		l-0.9-0.2l-0.9-0.2l-0.9-0.2l-0.9-0.2l-0.9-0.2l-0.9-0.2l-0.9-0.2l-0.9-0.2l-0.9-0.2l-0.9-0.3l-0.9-0.3l-0.9-0.3l-0.9-0.3l-0.9-0.3
		c-0.3-0.1-0.6-0.2-0.9-0.3c-0.3-0.1-0.6-0.2-0.9-0.3l-0.9-0.3l-0.9-0.3c-0.3-0.1-0.6-0.2-0.9-0.3c-0.3-0.1-0.6-0.2-0.9-0.3
		l-0.9-0.3c-0.3-0.1-0.6-0.2-0.9-0.3l-0.9-0.3l-0.9-0.3l-0.9-0.3l-0.9-0.4l-0.9-0.4l-0.9-0.4l-0.9-0.4l-0.9-0.4l-0.9-0.4l-0.9-0.4
		c-0.3-0.1-0.6-0.3-0.9-0.4l-0.9-0.4l-0.9-0.4l-0.9-0.4c-0.3-0.1-0.6-0.3-0.9-0.4c-0.3-0.2-0.6-0.3-0.9-0.5l-0.9-0.5l-0.9-0.5
		l-0.9-0.5c-0.3-0.2-0.6-0.3-0.9-0.5s-0.6-0.3-0.9-0.5l-0.9-0.5c-0.3-0.2-0.6-0.4-0.9-0.5c-0.3-0.2-0.6-0.4-0.9-0.5l-0.9-0.6
		c-0.3-0.2-0.6-0.4-0.9-0.6l-0.9-0.6c-0.3-0.2-0.6-0.4-0.9-0.6s-0.6-0.4-0.9-0.6s-0.6-0.4-0.9-0.6s-0.6-0.4-0.9-0.7
		c-0.3-0.2-0.6-0.4-0.9-0.7c-0.3-0.2-0.6-0.5-0.9-0.7c-0.6-0.5-1.2-1-1.8-1.5v205.2h1.8h0.9h0.9h0.9h0.9h0.9h0.9h0.9h0.9h0.9h0.9
		h0.9h0.9h0.9h0.9h0.9h0.9h0.9h0.9h0.9h0.9h0.9h0.9h0.9h0.9h0.9h0.9h0.9h0.9h0.9h0.9h0.9h0.9h0.9h0.9h0.9h0.9h0.9h0.9h0.9h0.9h0.9
		h0.9h0.9h0.9h0.9h0.9h0.9h0.9h0.9h0.9h0.9h0.9h0.9h0.9h0.9h0.9h0.9h0.9h0.9h0.9h0.9h0.9h0.9h0.9h0.9h0.9h0.9h0.9h0.9h0.9h0.9h0.9
		h0.9h0.9h0.9h0.9h0.9h0.9h0.9h0.9h0.9h0.9h0.9h0.9h0.9h0.9h0.9h0.9h0.9h0.9h0.9h0.9h0.9h0.9h0.9h0.9h0.9h0.9h0.9h0.9h0.9h0.9h0.9
		h0.9h0.9h0.9h0.9h0.9h0.9h0.9h0.9h0.9h0.9h0.9h0.9h0.9h0.9h0.9h0.9h0.9h0.9h0.9h0.9h0.9h0.9h0.9h0.9h0.9h0.9h0.9h0.9h0.9h0.9h0.9
		h0.9h0.9h0.9h0.9h0.9h0.9h0.9h0.9h0.9h0.9h0.9h0.9h0.9h0.9h0.9h0.9h0.1c0.3,0,0.5,0,0.8,0h0.9c0.3,0,0.6,0,0.9,0s0.6,0,0.9,0
		s0.6,0,0.9,0h0.9l0.9-0.1c0.3,0,0.6,0,0.9-0.1c0.3,0,0.6-0.1,0.9-0.1l0.9-0.1c0.3,0,0.6-0.1,0.9-0.1s0.6-0.1,0.9-0.1
		s0.6-0.1,0.9-0.1s0.6-0.1,0.9-0.1l0.9-0.1c0.3,0,0.6-0.1,0.9-0.1s0.6-0.1,0.9-0.1s0.6-0.1,0.9-0.1l0.9-0.2l0.9-0.2
		c0.3-0.1,0.6-0.1,0.9-0.2c0.3-0.1,0.6-0.1,0.9-0.2l0.9-0.2l0.9-0.2c0.3-0.1,0.6-0.1,0.9-0.2c0.3-0.1,0.6-0.1,0.9-0.2
		c0.3-0.1,0.6-0.2,0.9-0.2c0.3-0.1,0.6-0.2,0.9-0.2l0.9-0.2l0.9-0.3c0.3-0.1,0.6-0.2,0.9-0.3s0.6-0.2,0.9-0.3s0.6-0.2,0.9-0.3
		l0.9-0.3l0.9-0.3c0.3-0.1,0.6-0.2,0.9-0.3s0.6-0.2,0.9-0.3s0.6-0.2,0.9-0.3s0.6-0.2,0.9-0.3l0.9-0.4l0.9-0.4l0.9-0.4
		c0.3-0.1,0.6-0.3,0.9-0.4c0.3-0.1,0.6-0.3,0.9-0.4c0.3-0.1,0.6-0.3,0.9-0.4c0.3-0.1,0.6-0.3,0.9-0.4c0.3-0.1,0.6-0.3,0.9-0.4
		c0.3-0.1,0.6-0.3,0.9-0.4l0.9-0.5l0.9-0.5l0.9-0.5c0.3-0.2,0.6-0.3,0.9-0.5s0.6-0.3,0.9-0.5s0.6-0.3,0.9-0.5s0.6-0.4,0.9-0.5
		c0.3-0.2,0.6-0.4,0.9-0.5c0.3-0.2,0.6-0.4,0.9-0.6c0.3-0.2,0.6-0.4,0.9-0.6c0.3-0.2,0.6-0.4,0.9-0.6c0.3-0.2,0.6-0.4,0.9-0.6
		c0.3-0.2,0.6-0.4,0.9-0.6c0.3-0.2,0.6-0.4,0.9-0.6c0.3-0.2,0.6-0.4,0.9-0.7c0.3-0.2,0.6-0.4,0.9-0.7c0.3-0.2,0.6-0.5,0.9-0.7
		s0.6-0.5,0.9-0.7s0.6-0.5,0.9-0.7s0.6-0.5,0.9-0.7s0.6-0.5,0.9-0.8s0.6-0.5,0.9-0.8s0.6-0.5,0.9-0.8s0.6-0.5,0.9-0.8
		s0.6-0.6,0.9-0.8c0.3-0.3,0.6-0.6,0.9-0.9c0.3-0.3,0.6-0.6,0.9-0.9c0.3-0.3,0.6-0.6,0.9-0.9c0.3-0.3,0.6-0.6,0.9-0.9
		c0.3-0.3,0.6-0.6,0.9-1c0.3-0.3,0.6-0.7,0.9-1s0.6-0.7,0.9-1s0.6-0.7,0.9-1.1c0.3-0.4,0.6-0.7,0.9-1.1c0.3-0.4,0.6-0.7,0.9-1.1
		c0.3-0.4,0.6-0.8,0.9-1.2s0.6-0.8,0.9-1.2s0.6-0.8,0.9-1.2s0.6-0.9,0.9-1.3c0.3-0.4,0.6-0.9,0.9-1.3c0.3-0.5,0.6-0.9,0.9-1.4
		s0.6-1,0.9-1.4c0.3-0.5,0.6-1,0.9-1.5s0.6-1.1,0.9-1.6c0.3-0.6,0.6-1.1,0.9-1.7c0.3-0.6,0.6-1.2,0.9-1.8s0.6-1.2,0.9-1.9
		s0.6-1.3,0.9-2s0.6-1.4,0.9-2.1c0.3-0.8,0.6-1.6,0.9-2.3c0.3-0.8,0.6-1.7,0.9-2.6c0.3-0.9,0.6-1.9,0.9-2.9c0.3-1.1,0.6-2.2,0.9-3.3
		c0.3-1.3,0.6-2.7,0.9-4c0.3-1.8,0.6-3.5,0.9-5.3c0.5-3.7,0.7-7.5,0.7-11.4V0.6H470.3z"/>
	<g>
		<path class="st1" d="M716.6,0.6L716.6,0.6h-0.9h-0.9h-0.9H713h-0.9h-0.9h-0.9h-0.9h-0.9h-0.9h-0.9h-0.9h-0.9H704h-0.9h-0.9h-0.9
			h-0.9h-0.9h-0.9h-0.9h-0.9h-0.9H695h-0.9h-0.9h0.2h-0.9h-0.9h-0.9h-0.9h-0.9H688h-0.6h-0.9h-0.9h-0.9h-0.9h-0.9H682h-0.6h-0.9
			h-0.9h-0.9h-0.9h-0.9H676h-0.6h-0.9h-0.9h-0.9h-0.9h-0.9H670h-0.6h-0.9h-0.9h-0.9h-0.9h-0.9H664h-0.6h-0.9h-0.9h-0.9h-0.9h-0.9
			H658h-0.6h-0.9h-0.9h-0.9h-0.9h-0.9H652h-0.6h-0.9h-0.9h-0.9h-0.9h-0.9H646h-0.6h-0.9h-0.9h-0.9h-0.9h-0.9H640h-0.6h-0.9h-0.9
			h-0.9h-0.9h-0.9H634h-0.6h-0.9h-0.9h-0.9h-0.9h-0.9H628h-0.6h-0.9h-0.9h-0.9h-0.9h-0.9H622h-0.6h-0.9h-0.9h-0.9h-0.9h-0.9H616
			h-0.6h-0.9h-0.9h-0.9h-0.9h-0.9H610h-0.6h-0.9h-0.9h-0.9h-0.9h-0.9H604h-0.6h-0.9h-0.9h-0.9h-0.9h-0.9H598h-0.6h-0.9h-0.9h-0.9
			h-0.9h-0.9H592h-0.9h-0.9h-0.9h-0.9h-0.9h-0.9h-0.2h-0.2c-0.3,0-0.6,0-0.9,0c-0.3,0-0.6,0-0.9,0c-0.3,0-0.6,0-0.9,0h-0.9
			c-0.3,0-0.6,0-0.9,0c-0.3,0-0.6,0-0.9,0.1c-0.3,0-0.6,0-0.9,0.1L579,0.9L578.1,1c-0.3,0-0.6,0-0.9,0.1c-0.3,0-0.6,0.1-0.9,0.1
			l-0.9,0.1c-0.3,0-0.6,0.1-0.9,0.1c-0.3,0-0.6,0.1-0.9,0.1c-0.3,0-0.6,0.1-0.9,0.1c-0.3,0-0.6,0.1-0.9,0.1l-0.9,0.1
			c-0.3,0-0.6,0.1-0.9,0.1c-0.3,0.1-0.6,0.1-0.9,0.2c-0.3,0.1-0.6,0.1-0.9,0.2l-0.9,0.2l-0.9,0.2c-0.3,0.1-0.6,0.1-0.9,0.2
			c-0.3,0.1-0.6,0.1-0.9,0.2c-0.3,0.1-0.6,0.1-0.9,0.2l-0.9,0.2c-0.3,0.1-0.6,0.2-0.9,0.2c-0.3,0.1-0.6,0.2-0.9,0.2
			c-0.3,0.1-0.6,0.2-0.9,0.3c-0.3,0.1-0.6,0.2-0.9,0.3c-0.3,0.1-0.6,0.2-0.9,0.3l-0.9,0.3c-0.3,0.1-0.6,0.2-0.9,0.3
			c-0.3,0.1-0.6,0.2-0.9,0.3c-0.3,0.1-0.6,0.2-0.9,0.3c-0.3,0.1-0.6,0.2-0.9,0.3l-0.9,0.3L552,6.9c-0.3,0.1-0.6,0.2-0.9,0.4
			c-0.3,0.1-0.6,0.2-0.9,0.4c-0.3,0.1-0.6,0.2-0.9,0.4c-0.3,0.1-0.6,0.2-0.9,0.4c-0.3,0.1-0.6,0.3-0.9,0.4c-0.3,0.1-0.6,0.3-0.9,0.4
			l-0.9,0.4c-0.3,0.1-0.6,0.3-0.9,0.4c-0.3,0.1-0.6,0.3-0.9,0.4c-0.3,0.1-0.6,0.3-0.9,0.5c-0.3,0.2-0.6,0.3-0.9,0.5
			c-0.3,0.2-0.6,0.3-0.9,0.5c-0.3,0.2-0.6,0.3-0.9,0.5c-0.3,0.2-0.6,0.3-0.9,0.5c-0.3,0.2-0.6,0.3-0.9,0.5c-0.3,0.2-0.6,0.4-0.9,0.5
			l-0.9,0.5c-0.3,0.2-0.6,0.4-0.9,0.6l-0.9,0.6l1.5,0.4c-0.3,0.2-0.6,0.4-0.9,0.6l-0.9,0.6c-0.3,0.2-0.6,0.4-0.9,0.6
			c-0.3,0.2-0.6,0.4-0.9,0.6l-0.9,0.7l-0.9,0.7c-0.3,0.2-0.6,0.5-0.9,0.7c-0.3,0.2-0.6,0.5-0.9,0.7c-0.3,0.2-0.6,0.5-0.9,0.7
			c-0.3,0.2-0.6,0.5-0.9,0.7c-0.3,0.3-0.6,0.5-0.9,0.8c-0.3,0.3-0.6,0.5-0.9,0.8c-0.3,0.3-0.6,0.5-0.9,0.8c-0.3,0.3-0.6,0.6-0.9,0.8
			c-0.3,0.3-0.6,0.6-0.9,0.8c-0.3,0.3-0.6,0.6-0.9,0.9c-0.3,0.3-0.6,0.6-0.9,0.9c-0.3,0.3-0.6,0.6-0.9,0.9c-0.3,0.3-0.6,0.6-0.9,1
			c-0.3,0.3-0.6,0.6-0.9,1c-0.3,0.3-0.6,0.7-0.9,1c-0.3,0.3-0.6,0.7-0.9,1c-0.3,0.4-0.6,0.7-0.9,1.1c-0.3,0.4-0.6,0.7-0.9,1.1
			c-0.3,0.4-0.6,0.8-0.9,1.1c-0.3,0.4-0.6,0.8-0.9,1.2c-0.3,0.4-0.6,0.8-0.9,1.2c-0.3,0.4-0.6,0.8-0.9,1.3c-0.3,0.4-0.6,0.9-0.9,1.3
			c-0.3,0.5-0.6,0.9-0.9,1.4c-0.3,0.5-0.6,1-0.9,1.4c-0.3,0.5-0.6,1-0.9,1.5c-0.3,0.5-0.6,1-0.9,1.6c-0.3,0.5-0.6,1.1-0.9,1.6
			c-0.3,0.6-0.6,1.2-0.9,1.7c-0.3,0.6-0.6,1.2-0.9,1.8c-0.3,0.6-0.6,1.3-0.9,2c-0.3,0.7-0.6,1.4-0.9,2.1c-0.3,0.8-0.6,1.5-0.9,2.3
			c-0.3,0.8-0.6,1.7-0.9,2.5c-0.3,0.9-0.6,1.8-0.9,2.8c-0.3,1-0.6,2.1-0.9,3.1c-0.3,1.2-0.6,2.5-0.9,3.7c-1.2,5.9-1.9,11.9-1.9,18.1
			v92.3h1.9h0.9h0.9h0.9h0.9h0.9h0.9h0.9h0.9h0.9h0.9h0.9h0.9h0.9h0.9h0.9h0.9h0.9h0.9h0.9h0.9h0.9h0.9h0.9h0.9h0.9h0.9h0.9h0.9h0.9
			h0.9h0.9h0.9h0.9h0.9h0.9h0.9h0.9h0.9h0.9h0.9h0.9h0.9h0.9h0.9h0.9h0.9h0.9h0.9h0.9h0.9h0.9h0.9h0.9h0.9h0.9h0.9h0.9h0.9h0.9h0.9
			h0.9h0.9h0.9h0.9h0.9h0.9h0.9h0.9h0.9h0.9h0.9h0.9h0.9h0.9h0.9h0.9h0.9h0.9h0.9h0.9h0.9h0.9h0.9h0.9h0.9h0.9h0.9h0.9h0.9h0.9h0.9
			h0.9h0.9h0.9h0.9h0.9h0.9h0.9h0.9h0.9h0.9h0.9h0.9h0.9h0.9h0.9h0.9h0.9h0.9h0.9h0.9h0.9h0.9h0.9h0.9h0.9h0.9h0.9h0.9h0.9h0.9h0.9
			h0.9h0.9h0.9h0.9h0.9h0.9h0.9h0.9h0.9h0.9h0.9h0.9h0.9h0.9h0.9h0.9h0.9h0.9h0.9h0.9h0.9h0.9h0.4h0.5h0.9h0.9h0.9h0.9h0.9h0.9h0.9
			h0.9l0.9,0.1h0.5h0.3h0.9l0.9,0.1l0.9,0.1l0.9,0.1l0.9,0.1l0.9,0.1l0.9,0.1l0.9,0.1l0.9,0.1l0.9,0.1c0.3,0,0.6,0.1,0.9,0.1
			l0.9,0.2c0.3,0.1,0.6,0.1,0.9,0.2c0.3,0.1,0.6,0.1,0.9,0.2l0.9,0.2c0.3,0.1,0.6,0.1,0.9,0.2c0.3,0.1,0.6,0.1,0.9,0.2l0.9,0.2
			c0.3,0.1,0.6,0.2,0.9,0.2c0.3,0.1,0.6,0.2,0.9,0.2c0.3,0.1,0.6,0.2,0.9,0.3c0.3,0.1,0.6,0.2,0.9,0.3c0.3,0.1,0.6,0.2,0.9,0.3
			c0.3,0.1,0.6,0.2,0.9,0.3c0.3,0.1,0.6,0.2,0.9,0.3c0.3,0.1,0.6,0.2,0.9,0.3c0.3,0.1,0.6,0.2,0.9,0.3c0.3,0.1,0.6,0.2,0.9,0.4
			c0.3,0.1,0.6,0.2,0.9,0.4c0.3,0.1,0.6,0.3,0.9,0.4c0.3,0.1,0.6,0.3,0.9,0.4c0.3,0.1,0.6,0.3,0.9,0.4c0.3,0.1,0.6,0.3,0.9,0.5
			c0.3,0.2,0.6,0.3,0.9,0.5c0.3,0.2,0.6,0.3,0.9,0.5c0.3,0.2,0.6,0.3,0.9,0.5c0.3,0.2,0.6,0.4,0.9,0.5c0.3,0.2,0.6,0.4,0.9,0.6
			c0.3,0.2,0.6,0.4,0.9,0.6c0.3,0.2,0.6,0.4,0.9,0.6c0.3,0.2,0.6,0.4,0.9,0.7c0.3,0.2,0.6,0.5,0.9,0.7c0.3,0.2,0.6,0.5,0.9,0.7
			c0.3,0.3,0.6,0.5,0.9,0.8c0.3,0.3,0.6,0.6,0.9,0.8c0.3,0.3,0.6,0.6,0.9,0.9c0.3,0.3,0.6,0.6,0.9,1c0.3,0.3,0.6,0.7,0.9,1
			c0.3,0.4,0.6,0.7,0.9,1.1c0.3,0.4,0.6,0.8,0.9,1.2c0.3,0.4,0.6,0.9,0.9,1.3c0.3,0.5,0.6,1,0.9,1.5c0.3,0.5,0.6,1.1,0.9,1.7
			c0.3,0.6,0.6,1.3,0.9,1.9c0.3,0.8,0.6,1.5,0.9,2.3c0.3,1,0.6,2,0.9,3.1c0.4,1.7,0.7,3.4,0.9,5.2c0.1,1.4,0.2,2.8,0.2,4.3
			c0,1.4-0.1,2.8-0.2,4.1c-0.2,1.7-0.5,3.4-0.9,5.1c-0.2,1-0.5,2-0.9,3c-0.3,0.8-0.5,1.6-0.9,2.3c-0.3,0.7-0.6,1.3-0.9,2
			c-0.3,0.6-0.6,1.1-0.9,1.7c-0.3,0.5-0.6,1-0.9,1.5c-0.3,0.5-0.6,0.9-0.9,1.4c-0.3,0.4-0.6,0.8-0.9,1.2c-0.3,0.4-0.6,0.8-0.9,1.2
			c-0.3,0.4-0.6,0.7-0.9,1.1c-0.3,0.3-0.6,0.7-0.9,1c-0.3,0.3-0.6,0.6-0.9,0.9c-0.3,0.3-0.6,0.6-0.9,0.9c-0.3,0.3-0.6,0.6-0.9,0.8
			c-0.3,0.3-0.6,0.5-0.9,0.8c-0.3,0.2-0.6,0.5-0.9,0.7c-0.3,0.2-0.6,0.5-0.9,0.7c-0.3,0.2-0.6,0.4-0.9,0.7c-0.3,0.2-0.6,0.4-0.9,0.6
			c-0.3,0.2-0.6,0.4-0.9,0.6c-0.3,0.2-0.6,0.4-0.9,0.6c-0.3,0.2-0.6,0.4-0.9,0.5c-0.3,0.2-0.6,0.3-0.9,0.5c-0.3,0.2-0.6,0.3-0.9,0.5
			c-0.3,0.2-0.6,0.3-0.9,0.5c-0.3,0.2-0.6,0.3-0.9,0.4c-0.3,0.1-0.6,0.3-0.9,0.4c-0.3,0.1-0.6,0.3-0.9,0.4c-0.3,0.1-0.6,0.3-0.9,0.4
			c-0.3,0.1-0.6,0.2-0.9,0.4c-0.3,0.1-0.6,0.2-0.9,0.3c-0.3,0.1-0.6,0.2-0.9,0.3c-0.3,0.1-0.6,0.2-0.9,0.3c-0.3,0.1-0.6,0.2-0.9,0.3
			c-0.3,0.1-0.6,0.2-0.9,0.3c-0.3,0.1-0.6,0.2-0.9,0.3c-0.3,0.1-0.6,0.2-0.9,0.3c-0.3,0.1-0.6,0.2-0.9,0.2c-0.3,0.1-0.6,0.2-0.9,0.2
			c-0.3,0.1-0.6,0.1-0.9,0.2c-0.3,0.1-0.6,0.1-0.9,0.2l-0.9,0.2c-0.3,0.1-0.6,0.1-0.9,0.2l-0.9,0.2c-0.3,0.1-0.6,0.1-0.9,0.2
			l-0.9,0.1l-0.8,0.1v1l0.8,0.1l0.9,0.1l0.9,0.1l0.9,0.1l0.9,0.1l0.9,0.1l0.9,0.1c0.3,0,0.6,0.1,0.9,0.1l0.9,0.1
			c0.3,0,0.6,0.1,0.9,0.1l0.9,0.2l0.9,0.2c0.3,0.1,0.6,0.1,0.9,0.2c0.3,0.1,0.6,0.1,0.9,0.2c0.3,0.1,0.6,0.1,0.9,0.2
			c0.3,0.1,0.6,0.1,0.9,0.2c0.3,0.1,0.6,0.1,0.9,0.2c0.3,0.1,0.6,0.1,0.9,0.2c0.3,0.1,0.6,0.2,0.9,0.2l0.9,0.3
			c0.3,0.1,0.6,0.2,0.9,0.3c0.3,0.1,0.6,0.2,0.9,0.3c0.3,0.1,0.6,0.2,0.9,0.3c0.3,0.1,0.6,0.2,0.9,0.3c0.3,0.1,0.6,0.2,0.9,0.3
			c0.3,0.1,0.6,0.2,0.9,0.3c0.3,0.1,0.6,0.2,0.9,0.3c0.3,0.1,0.6,0.2,0.9,0.4c0.3,0.1,0.6,0.2,0.9,0.4c0.3,0.1,0.6,0.3,0.9,0.4
			c0.3,0.1,0.6,0.3,0.9,0.4c0.3,0.1,0.6,0.3,0.9,0.4c0.3,0.1,0.6,0.3,0.9,0.4c0.3,0.2,0.6,0.3,0.9,0.5c0.3,0.2,0.6,0.3,0.9,0.5
			c0.3,0.2,0.6,0.3,0.9,0.5c0.3,0.2,0.6,0.3,0.9,0.5c0.3,0.2,0.6,0.4,0.9,0.6c0.3,0.2,0.6,0.4,0.9,0.6c0.3,0.2,0.6,0.4,0.9,0.6
			c0.3,0.2,0.6,0.4,0.9,0.6c0.3,0.2,0.6,0.4,0.9,0.7c0.3,0.2,0.6,0.5,0.9,0.7c0.3,0.2,0.6,0.5,0.9,0.7c0.3,0.3,0.6,0.5,0.9,0.8
			c0.3,0.3,0.6,0.5,0.9,0.8c0.3,0.3,0.6,0.6,0.9,0.9c0.3,0.3,0.6,0.6,0.9,0.9c0.3,0.3,0.6,0.6,0.9,1c0.3,0.3,0.6,0.7,0.9,1
			c0.3,0.4,0.6,0.7,0.9,1.1c0.3,0.4,0.6,0.8,0.9,1.2c0.3,0.4,0.6,0.9,0.9,1.3c0.3,0.5,0.6,1,0.9,1.5c0.3,0.5,0.6,1.1,0.9,1.6
			c0.3,0.6,0.6,1.2,0.9,1.9c0.3,0.7,0.6,1.5,0.9,2.2c0.3,0.9,0.6,1.9,0.9,2.8c0.4,1.4,0.7,2.8,0.9,4.3c0.3,1.8,0.4,3.7,0.4,5.6
			c0,2-0.1,3.9-0.4,5.7c-0.2,1.5-0.5,3-0.9,4.5c-0.3,1-0.5,2-0.9,2.9c-0.3,0.8-0.5,1.5-0.9,2.3c-0.3,0.7-0.6,1.3-0.9,1.9
			c-0.3,0.6-0.6,1.1-0.9,1.7c-0.3,0.5-0.6,1-0.9,1.5c-0.3,0.5-0.6,0.9-0.9,1.4c-0.3,0.4-0.6,0.8-0.9,1.3c-0.3,0.4-0.6,0.8-0.9,1.2
			c-0.3,0.4-0.6,0.7-0.9,1.1c-0.3,0.3-0.6,0.7-0.9,1c-0.3,0.3-0.6,0.6-0.9,0.9c-0.3,0.3-0.6,0.6-0.9,0.9c-0.3,0.3-0.6,0.6-0.9,0.8
			c-0.3,0.3-0.6,0.5-0.9,0.8c-0.3,0.3-0.6,0.5-0.9,0.8c-0.3,0.2-0.6,0.5-0.9,0.7c-0.3,0.2-0.6,0.5-0.9,0.7c-0.3,0.2-0.6,0.4-0.9,0.7
			c-0.3,0.2-0.6,0.4-0.9,0.6c-0.3,0.2-0.6,0.4-0.9,0.6c-0.3,0.2-0.6,0.4-0.9,0.6c-0.3,0.2-0.6,0.4-0.9,0.5c-0.3,0.2-0.6,0.3-0.9,0.5
			c-0.3,0.2-0.6,0.3-0.9,0.5c-0.3,0.2-0.6,0.3-0.9,0.5c-0.3,0.2-0.6,0.3-0.9,0.5c-0.3,0.1-0.6,0.3-0.9,0.4c-0.3,0.1-0.6,0.3-0.9,0.4
			c-0.3,0.1-0.6,0.3-0.9,0.4c-0.3,0.1-0.6,0.3-0.9,0.4c-0.3,0.1-0.6,0.2-0.9,0.4c-0.3,0.1-0.6,0.2-0.9,0.4c-0.3,0.1-0.6,0.2-0.9,0.3
			c-0.3,0.1-0.6,0.2-0.9,0.3c-0.3,0.1-0.6,0.2-0.9,0.3c-0.3,0.1-0.6,0.2-0.9,0.3c-0.3,0.1-0.6,0.2-0.9,0.3l-0.9,0.3
			c-0.3,0.1-0.6,0.2-0.9,0.3c-0.3,0.1-0.6,0.2-0.9,0.2c-0.3,0.1-0.6,0.2-0.9,0.2c-0.3,0.1-0.6,0.1-0.9,0.2c-0.3,0.1-0.6,0.1-0.9,0.2
			c-0.3,0.1-0.6,0.1-0.9,0.2l-0.9,0.2c-0.3,0.1-0.6,0.1-0.9,0.2c-0.3,0.1-0.6,0.1-0.9,0.2l-0.9,0.2l-0.9,0.1c-0.3,0-0.6,0.1-0.9,0.1
			c-0.3,0-0.6,0.1-0.9,0.1c-0.3,0-0.6,0.1-0.9,0.1l-0.9,0.1c-0.3,0-0.6,0.1-0.9,0.1c-0.3,0-0.6,0.1-0.9,0.1l-0.9,0.1l-0.9,0.1
			l-0.9,0.1l-0.9,0.1h-0.9c-0.3,0-0.6,0-0.9,0c-0.3,0-0.6,0-0.9,0h-0.9h-0.9h-0.4h-0.5h-0.9h-5.5h-0.9h-0.9h-0.9h-0.9h-0.9H628h-0.6
			h-0.9h-0.9h-0.9h-0.9h-0.9H622h-0.6h-0.9h-0.9h-0.9h-0.9h-0.9H616h-0.6h-0.9h-0.9h-0.9h-0.9h-0.9H610h-0.6h-0.9h-0.9h-0.9h-0.9
			h-0.9H604h-0.6h-0.9h-0.9h-0.9h-0.9h-0.9H598h-0.6h-0.9h-0.9h-0.9h-0.9h-0.9H592h-0.9h-0.9h-0.9h-0.9h-0.9h-0.9h-0.9h-0.9h-0.9
			H583h-0.9h-0.9h-0.9h-0.9h-0.9h-0.9h-0.9h-0.9h-0.9H574h-0.9h-0.9h-0.9h-0.9h-0.9h-0.9h-0.9h-0.9h-0.9H565h-0.9h-0.9h-0.9h-0.9
			h-0.9h-0.9h-0.9h-0.9h-0.9H556h-0.9h-0.9h-0.9h-0.9h-0.9h-0.9h-0.9h-0.9h-0.9H547h1.4h-0.9h-0.9h-0.9h-0.9h-0.9H543h-0.6h-0.9
			h-0.9h-0.9h-0.9h-0.9H537h-0.6h-0.9h-0.9h-0.9h-0.9h-0.9H531h-0.6h-0.9h-0.9h-0.9h-0.9h-0.9H525h-0.6h-0.9h-0.9h-0.9h-0.9h-0.9
			H519h-0.6h-0.9h-0.9h-0.9h-0.9h-0.9H513h-0.6h-0.9h-0.9h-0.9h-0.9h-0.9H507h-0.6h-0.9h-0.9h-0.9h-0.9h-0.9H501h-0.6h-0.9h-1.9
			v181.2h1.9h0.9h0.9h0.9h0.9h0.9h0.9h0.9h0.9h0.9h0.9h0.9h0.9h0.9h0.9h0.9h0.9h0.9h0.9h0.9h0.9h0.9h0.9h0.9h0.9h0.9h0.9h0.9h0.9
			h0.9h0.9h0.9h0.9h0.9h0.9h0.9h0.9h0.9h0.9h0.9h0.9h0.9h0.9h0.9h0.9h0.9h0.9h0.9h0.9h0.9h0.9h0.9h0.9h0.9h0.9h0.9h0.9h0.9h0.9h0.9
			h0.9h0.9h0.9h0.9h0.9h0.9h0.9h0.9h0.9h0.9h0.9h0.9h0.9h0.9h0.9h0.9h0.9h0.9h0.9h0.9h0.9h0.9h0.9h0.9h0.9h0.9h0.9h0.9h0.9h0.9h0.9
			h0.9h0.9h0.9h0.9h0.9h0.9h0.9h0.9h0.9h0.9h0.9h0.9h0.9h0.9h0.9h0.9h0.9h0.9h0.9h0.9h0.9h0.9h0.9h0.9h0.9h0.9h0.9h0.9h0.9h0.9h0.9
			h0.9h0.9h0.9h0.9h0.9h0.9h0.9h0.9h0.9h0.9h0.9h0.9h0.9h0.9h0.9h0.9h0.9h0.9h0.9h0.9h0.9h0.9h0.9h0.9h0.9h0.9h0.9h0.9h0.7h0.2h0.9
			c0.3,0,0.6,0,0.9,0h0.9h0.9c0.3,0,0.6,0,0.9,0c0.3,0,0.6,0,0.9-0.1l0.9-0.1c0.3,0,0.6,0,0.9-0.1c0.3,0,0.6-0.1,0.9-0.1
			c0.3,0,0.6,0,0.9-0.1c0.3,0,0.6-0.1,0.9-0.1c0.3,0,0.6-0.1,0.9-0.1c0.3,0,0.6-0.1,0.9-0.1c0.3,0,0.6-0.1,0.9-0.1l0.9-0.1l0.9-0.1
			l0.9-0.1c0.3,0,0.6-0.1,0.9-0.1c0.3-0.1,0.6-0.1,0.9-0.2l0.9-0.2l0.9-0.2c0.3-0.1,0.6-0.1,0.9-0.2c0.3-0.1,0.6-0.1,0.9-0.2
			l0.9-0.2l0.9-0.2l0.9-0.2c0.3-0.1,0.6-0.2,0.9-0.2c0.3-0.1,0.6-0.2,0.9-0.2c0.3-0.1,0.6-0.2,0.9-0.3l0.9-0.3
			c0.3-0.1,0.6-0.2,0.9-0.3l0.9-0.3c0.3-0.1,0.6-0.2,0.9-0.3c0.3-0.1,0.6-0.2,0.9-0.3c0.3-0.1,0.6-0.2,0.9-0.3l0.9-0.3
			c0.3-0.1,0.6-0.2,0.9-0.3c0.3-0.1,0.6-0.2,0.9-0.3c0.3-0.1,0.6-0.2,0.9-0.4c0.3-0.1,0.6-0.2,0.9-0.4c0.3-0.1,0.6-0.2,0.9-0.4
			c0.3-0.1,0.6-0.2,0.9-0.4l0.9-0.4l0.9-0.4c0.3-0.1,0.6-0.3,0.9-0.4c0.3-0.1,0.6-0.3,0.9-0.4c0.3-0.1,0.6-0.3,0.9-0.4
			c0.3-0.1,0.6-0.3,0.9-0.5c0.3-0.2,0.6-0.3,0.9-0.5c0.3-0.2,0.6-0.3,0.9-0.5c0.3-0.2,0.6-0.3,0.9-0.5c0.3-0.2,0.6-0.3,0.9-0.5
			l0.9-0.5c0.3-0.2,0.6-0.3,0.9-0.5c0.3-0.2,0.6-0.4,0.9-0.5c0.3-0.2,0.6-0.4,0.9-0.5c0.3-0.2,0.6-0.4,0.9-0.6
			c0.3-0.2,0.6-0.4,0.9-0.6c0.3-0.2,0.6-0.4,0.9-0.6c0.3-0.2,0.6-0.4,0.9-0.6c0.3-0.2,0.6-0.4,0.9-0.6c0.3-0.2,0.6-0.4,0.9-0.6
			c0.3-0.2,0.6-0.4,0.9-0.7c0.3-0.2,0.6-0.4,0.9-0.7c0.3-0.2,0.6-0.5,0.9-0.7c0.3-0.2,0.6-0.5,0.9-0.7c0.3-0.2,0.6-0.5,0.9-0.7
			c0.3-0.2,0.6-0.5,0.9-0.7c0.3-0.3,0.6-0.5,0.9-0.8c0.3-0.3,0.6-0.5,0.9-0.8c0.3-0.3,0.6-0.5,0.9-0.8c0.3-0.3,0.6-0.6,0.9-0.8
			c0.3-0.3,0.6-0.6,0.9-0.8c0.3-0.3,0.6-0.6,0.9-0.9c0.3-0.3,0.6-0.6,0.9-0.9c0.3-0.3,0.6-0.6,0.9-0.9c0.3-0.3,0.6-0.6,0.9-0.9
			c0.3-0.3,0.6-0.6,0.9-1c0.3-0.3,0.6-0.7,0.9-1c0.3-0.3,0.6-0.7,0.9-1c0.3-0.4,0.6-0.7,0.9-1.1c0.3-0.4,0.6-0.7,0.9-1.1
			c0.3-0.4,0.6-0.7,0.9-1.1c0.3-0.4,0.6-0.8,0.9-1.2c0.3-0.4,0.6-0.8,0.9-1.2c0.3-0.4,0.6-0.8,0.9-1.3c0.3-0.4,0.6-0.9,0.9-1.3
			c0.3-0.5,0.6-0.9,0.9-1.4c0.3-0.5,0.6-0.9,0.9-1.4c0.3-0.5,0.6-1,0.9-1.5c0.3-0.5,0.6-1,0.9-1.5c0.3-0.5,0.6-1.1,0.9-1.6
			c0.3-0.6,0.6-1.1,0.9-1.7c0.3-0.6,0.6-1.2,0.9-1.8c0.3-0.6,0.6-1.3,0.9-1.9c0.3-0.7,0.6-1.4,0.9-2.1c0.3-0.7,0.6-1.5,0.9-2.2
			c0.3-0.8,0.6-1.6,0.9-2.4c0.3-0.9,0.6-1.8,0.9-2.7c0.3-1,0.6-2,0.9-3c0.3-1.2,0.6-2.4,0.9-3.6c0.3-1.5,0.6-3,0.9-4.5
			c0.4-2.2,0.7-4.5,0.9-6.8c0.2-2.6,0.4-5.2,0.4-7.9V0h-11V0.6z"/>
		<path class="st1" d="M541.2,278.1V325h0.4h0.9h0.9h0.9h0.9h0.9h0.9h0.9h0.9h0.9h0.9h0.9h0.9h0.9h0.9h0.9h0.9h0.9h0.9h0.9h0.9h0.9
			h0.9h0.9h0.9h0.9h0.9h0.9h0.9h0.9h0.9h0.9h0.9h0.9h0.9h0.9h0.9h0.9h0.9h0.9h0.9h0.9h0.9h0.9h0.9h0.9h0.9h0.9h0.9h0.9h0.9h0.9h0.9
			h0.9h0.9h0.9h0.9h0.9h0.9h0.9h0.4h0.5c0.3,0,0.6,0,0.9,0c0.3,0,0.6,0,0.9-0.1c0.3,0,0.6,0,0.9-0.1c0.3,0,0.6-0.1,0.9-0.1
			c0.3,0,0.6-0.1,0.9-0.1c0.3,0,0.6-0.1,0.9-0.1c0.2,0,0.4-0.1,0.5-0.1l0.3-0.1c0.3-0.1,0.6-0.1,0.9-0.2c0.3-0.1,0.6-0.2,0.9-0.3
			c0.3-0.1,0.6-0.2,0.9-0.3c0.3-0.1,0.6-0.2,0.9-0.3c0.3-0.1,0.6-0.2,0.9-0.4c0.3-0.1,0.6-0.3,0.9-0.4c0.3-0.1,0.6-0.3,0.9-0.5
			c0.3-0.2,0.6-0.3,0.9-0.5c0.3-0.2,0.6-0.4,0.9-0.6c0.3-0.2,0.6-0.4,0.9-0.6c0.3-0.2,0.6-0.4,0.9-0.7c0.3-0.2,0.6-0.5,0.9-0.7
			c0.3-0.3,0.6-0.5,0.9-0.8c0.3-0.3,0.6-0.6,0.9-0.9c0.3-0.3,0.6-0.7,0.9-1c0.3-0.4,0.6-0.8,0.9-1.2c0.3-0.4,0.6-0.9,0.9-1.4
			c0.3-0.5,0.6-1.1,0.9-1.6c0.3-0.7,0.6-1.3,0.9-2c0.3-0.9,0.6-1.9,0.9-2.9c0.4-1.7,0.6-3.6,0.6-5.5s-0.2-3.7-0.6-5.5
			c-0.2-1-0.5-2-0.9-2.9c-0.3-0.7-0.5-1.4-0.9-2c-0.3-0.6-0.6-1.1-0.9-1.6c-0.3-0.5-0.6-0.9-0.9-1.4c-0.3-0.4-0.6-0.8-0.9-1.2
			c-0.3-0.4-0.6-0.7-0.9-1c-0.3-0.3-0.6-0.6-0.9-0.9c-0.3-0.3-0.6-0.6-0.9-0.8c-0.3-0.3-0.6-0.5-0.9-0.8c-0.3-0.2-0.6-0.5-0.9-0.7
			c-0.3-0.2-0.6-0.4-0.9-0.6c-0.3-0.2-0.6-0.4-0.9-0.6c-0.3-0.2-0.6-0.3-0.9-0.5c-0.3-0.2-0.6-0.3-0.9-0.5c-0.3-0.1-0.6-0.3-0.9-0.4
			c-0.3-0.1-0.6-0.3-0.9-0.4c-0.3-0.1-0.6-0.2-0.9-0.3c-0.3-0.1-0.6-0.2-0.9-0.3c-0.3-0.1-0.6-0.2-0.9-0.3c-0.3-0.1-0.6-0.2-0.9-0.2
			l-0.3-0.1c-0.2,0-0.3-0.1-0.5-0.1c-0.3,0-0.6-0.1-0.9-0.1c-0.3,0-0.6-0.1-0.9-0.1c-0.3,0-0.6-0.1-0.9-0.1c-0.3,0-0.6-0.1-0.9-0.1
			c-0.3,0-0.6,0-0.9-0.1c-0.3,0-0.6,0-0.9,0h-0.1h-0.7h-3.4h-0.9h-0.9h-0.9h-0.9h-0.9H586h-0.9h-0.9h-0.9h-0.9h-0.9h-0.9h-0.9h-0.9
			h-0.9H577h-0.9h-0.9h-0.9h-0.9h-0.9h-0.9h-0.9h-0.9h-0.9H568h-0.9h-0.9h-0.9h-0.9h-0.9h-0.9h-0.9h-0.9h-0.9H559h-0.9h-0.9h-0.9
			h-0.9h-0.9h-0.9h-0.9h-0.9h-0.9H550h-0.9h-0.9h-0.9h-0.9h-0.9h-0.9h-0.9h-0.9h-0.9H541h-0.9h-0.9L541.2,278.1L541.2,278.1z"/>
		<path class="st1" d="M609.4,222.1c-0.3-0.7-0.5-1.3-0.9-2c-0.3-0.5-0.6-1-0.9-1.5c-0.3-0.4-0.6-0.9-0.9-1.3
			c-0.3-0.4-0.6-0.7-0.9-1.1c-0.3-0.3-0.6-0.7-0.9-1c-0.3-0.3-0.6-0.6-0.9-0.9c-0.3-0.3-0.6-0.5-0.9-0.8c-0.3-0.2-0.6-0.5-0.9-0.7
			c-0.3-0.2-0.6-0.4-0.9-0.6c-0.3-0.2-0.6-0.4-0.9-0.6c-0.3-0.2-0.6-0.3-0.9-0.5c-0.3-0.2-0.6-0.3-0.9-0.5c-0.3-0.1-0.6-0.3-0.9-0.4
			c-0.3-0.1-0.6-0.2-0.9-0.4c-0.3-0.1-0.6-0.2-0.9-0.3c-0.3-0.1-0.6-0.2-0.9-0.3c-0.3-0.1-0.6-0.2-0.9-0.2c-0.3-0.1-0.6-0.1-0.9-0.2
			c-0.3-0.1-0.6-0.1-0.9-0.2h-0.2c-0.2,0-0.4-0.1-0.7-0.1s-0.5-0.1-0.9-0.1c-0.3,0-0.6-0.1-0.9-0.1c-0.3,0-0.6,0-0.9-0.1
			c-0.3,0-0.6,0-0.9,0h-0.5h-0.4H586h-0.9h0.3h-0.9h-0.9h-0.9h-0.9h-0.9H580h-0.9h-0.9h-0.9h-0.9h-0.9h-0.9h-0.9h-0.9h-0.9H571h-0.9
			h-0.9h-0.9h-0.9h-0.9h-0.9h-0.9h-0.9h-0.9H562h-0.9h-0.9h-0.9h-0.9h-0.9h-0.9h-0.9h-0.9h-0.9H553h-0.9h-0.9h-0.9h-0.9h-0.9h-0.9
			h-0.9h-0.9h-0.9H544h-0.9h-0.9h-0.9h-0.9h-0.9h-0.4v43.3h0.4h0.9h0.9h0.9h0.9h0.9h0.9h0.9h0.9h0.9h0.9h0.9h0.9h0.9h0.9h0.9h0.9
			h0.9h0.9h0.9h0.9h0.9h0.9h0.9h0.9h0.9h0.9h0.9h0.9h0.9h0.9h0.9h0.9h0.9h0.9h0.9h0.9h0.9h0.9h0.9h0.9h0.9h0.9h0.9h0.9h0.9h0.9h0.9
			h0.9h0.9h0.9h0.9h0.9h0.9h0.7h0.1c0.3,0,0.6,0,0.9,0c0.3,0,0.6,0,0.9,0c0.3,0,0.6,0,0.9-0.1c0.3,0,0.6-0.1,0.9-0.1
			c0.3,0,0.6-0.1,0.9-0.1c0.3,0,0.5-0.1,0.7-0.1h0.2c0.3-0.1,0.6-0.1,0.9-0.2c0.3-0.1,0.6-0.1,0.9-0.2c0.3-0.1,0.6-0.2,0.9-0.2
			c0.3-0.1,0.6-0.2,0.9-0.3c0.3-0.1,0.6-0.2,0.9-0.3c0.3-0.1,0.6-0.2,0.9-0.4c0.3-0.1,0.6-0.3,0.9-0.4c0.3-0.1,0.6-0.3,0.9-0.5
			c0.3-0.2,0.6-0.3,0.9-0.5c0.3-0.2,0.6-0.4,0.9-0.6c0.3-0.2,0.6-0.4,0.9-0.6c0.3-0.2,0.6-0.4,0.9-0.7c0.3-0.2,0.6-0.5,0.9-0.8
			c0.3-0.3,0.6-0.6,0.9-0.9c0.3-0.3,0.6-0.6,0.9-1c0.3-0.4,0.6-0.7,0.9-1.1c0.3-0.4,0.6-0.8,0.9-1.3c0.3-0.5,0.6-1,0.9-1.5
			c0.3-0.6,0.6-1.3,0.9-2c0.3-0.9,0.6-1.9,0.9-2.9c0.3-1.6,0.5-3.2,0.5-5s-0.2-3.4-0.5-5l0,0C610,224,609.7,223,609.4,222.1z"/>
	</g>
</g>
</svg>
