<svg xmlns="http://www.w3.org/2000/svg" width="74" height="24" viewBox="0 0 74 24">
    <g fill="#fff" fill-rule="evenodd">
        <path d="M53.976 1.168c.903 0 1.807-.01 2.7.01.118 0 .265.179.353.298l5.508 8.175c.04.05.089.1.118.13.864-1.388 1.718-2.766 2.582-4.133.864-1.378 1.757-2.735 2.612-4.123.166-.277.363-.386.687-.376.815.02 1.62.01 2.454.01v17.064h-3.033V6.47c-.03-.01-.06-.01-.089-.02-.56.882-1.11 1.764-1.669 2.656a274.172 274.172 0 0 0-2.513 4.004c-.197.317-.422.376-.756.426-.815.119-1.247-.238-1.679-.902-1.335-2.07-2.74-4.102-4.114-6.144-.01-.02-.049-.03-.117-.06v11.793h-3.054c.01-5.648.01-11.317.01-17.055zM31.67 14.814c.256.763.491 1.477.727 2.2-2.062 1.309-4.27 1.913-6.676 1.695-2.072-.178-3.917-.872-5.41-2.398-1.286-1.318-1.983-2.934-2.228-4.737-.354-2.636.167-5.054 1.865-7.135 1.453-1.784 3.377-2.755 5.606-3.092 1.895-.297 3.78-.188 5.616.456.471.168.697.366.648.921-.07.714-.02 1.437-.02 2.15-.942-.326-1.748-.713-2.592-.871-2.16-.417-4.241-.208-5.92 1.417-1.473 1.417-1.826 3.25-1.689 5.232.177 2.676 1.964 4.797 4.566 5.272 1.708.317 3.338-.05 4.899-.802l.608-.308zM5.045 1.198h3.171v.535c0 5.411.01 10.832-.01 16.243 0 .664-.108 1.338-.275 1.982-.412 1.575-1.443 2.517-3.024 2.864a7.01 7.01 0 0 1-3.878-.218c.226-.803.442-1.566.648-2.27.501 0 .943.03 1.385-.01 1.227-.089 1.718-.555 1.875-1.783.059-.446.088-.902.088-1.358.01-5.143.02-10.297.02-15.44v-.545zM13.468 8.77c-1.02-.01-1.757-.793-1.747-1.844.01-1.04.785-1.843 1.787-1.823.991.01 1.767.842 1.757 1.873 0 1.02-.776 1.803-1.797 1.793zM13.498 14.834c-1.021 0-1.767-.773-1.767-1.833 0-1.05.756-1.833 1.767-1.843.982-.01 1.767.802 1.777 1.843.01 1.02-.776 1.833-1.777 1.833zM42.47 1.01c-4.88-.01-8.718 3.895-8.728 8.85 0 4.905 4.114 8.83 8.905 8.72 4.663-.099 8.492-3.984 8.482-8.78 0-4.905-3.829-8.78-8.66-8.79zm3.848 13.031c-2.228 2.785-6.784 2.29-8.325-.95-1.03-2.161-1.021-4.41-.01-6.581.982-2.11 2.906-2.884 4.82-2.735 2.347.178 3.938 1.546 4.527 3.825.186.714.245 1.457.314 1.863-.06 1.863-.334 3.34-1.326 4.578z"/>
    </g>
</svg>
