<?xml version="1.0" encoding="utf-8"?>
<!-- Generator: Adobe Illustrator 28.2.0, SVG Export Plug-In . SVG Version: 6.00 Build 0)  -->
<svg version="1.1" id="레이어_1" xmlns="http://www.w3.org/2000/svg" xmlns:xlink="http://www.w3.org/1999/xlink" x="0px"
	 y="0px" viewBox="0 0 16 16" style="enable-background:new 0 0 16 16;" xml:space="preserve">
<style type="text/css">
	.st0{fill:#FFFFFF;}
</style>
<path class="st0" d="M10,2.1C10,3,9.4,3.8,8.5,4.1v5.1C9.4,9.2,10,9.5,10,9.9c0,0.4-0.9,0.8-2,0.8s-2-0.3-2-0.8
	c0-0.4,0.6-0.6,1.5-0.7V4.1C6.4,3.8,5.8,2.7,6.1,1.6c0.3-1.1,1.4-1.7,2.4-1.4C9.4,0.4,10,1.2,10,2.1"/>
<path class="st0" d="M0,9.8v1.7c0,0.4,0.2,0.7,0.6,0.9l6.6,3.3c0.6,0.3,1.2,0.3,1.8,0l6.6-3.3c0.3-0.2,0.6-0.5,0.6-0.9V9.8
	c0-0.1-0.1-0.2-0.2-0.2L9.5,6.8v1l5.2,2.2c0.1,0,0.1,0.1,0.1,0.2c0,0,0,0.1-0.1,0.1l-5.9,2.5c-0.5,0.2-1.1,0.2-1.6,0l-5.9-2.5
	c-0.1,0-0.1-0.1-0.1-0.2c0,0,0-0.1,0.1-0.1l5.2-2.2l0-1L0.2,9.6C0.1,9.6,0,9.7,0,9.8"/>
</svg>
