<?xml version="1.0" encoding="utf-8"?>
<!-- Generator: Adobe Illustrator 28.2.0, SVG Export Plug-In . SVG Version: 6.00 Build 0)  -->
<svg version="1.1" id="레이어_1" xmlns="http://www.w3.org/2000/svg" xmlns:xlink="http://www.w3.org/1999/xlink" x="0px"
	 y="0px" viewBox="0 0 300 162.6" style="enable-background:new 0 0 300 162.6;" xml:space="preserve">
<style type="text/css">
	.st0{fill:#FFFFFF;}
</style>
<path class="st0" d="M0.1,64.9h40.8v49.7c0,11.1,27.8,11.5,34.1,11.5s41.6-0.4,41.6-14.5V0h151.5c27.1,0,32,38.7,32,48.6
	c0,9.5-4.5,52-29.7,52h-15.9l45.5,57.3h-51L175,65h76.7c8.9,0,9.3-12.3,9.3-14.8c0-2.6-0.4-13.4-8.9-13.4h-95.4v82.4
	c0,36.4-57.2,43.4-78.7,43.4c-29.7,0-78-10-78-40.8L0.1,64.9z"/>
</svg>
