<?xml version="1.0" encoding="UTF-8"?>
<svg id="_레이어_1" data-name="레이어 1" xmlns="http://www.w3.org/2000/svg" xmlns:xlink="http://www.w3.org/1999/xlink" viewBox="0 0 276.775 278.08">
  <defs>
    <style>
      .cls-1 {
        fill: url(#_무제_그라디언트_5);
        stroke-width: 0px;
      }
    </style>
    <linearGradient id="_무제_그라디언트_5" data-name="무제 그라디언트 5" x1="0" y1="139.04" x2="276.775" y2="139.04" gradientUnits="userSpaceOnUse">
      <stop offset="0" stop-color="#fbd445"/>
      <stop offset="1" stop-color="#e5b613"/>
    </linearGradient>
  </defs>
  <path class="cls-1" d="M72.355,89.293c-.044-8.156-.009-16.313-.009-24.47.054,0,.108,0,.162,0,0-8.823-.084-17.647.027-26.469.086-6.894,3.104-8.816,9.22-5.712,17.196,8.725,34.321,17.59,51.446,26.454,1.458.755,2.799,1.808,4.039,2.899,2.227,1.958,2.179,4.065-.197,5.836-1.857,1.384-3.829,2.661-5.884,3.726-15.488,8.033-31.01,16.002-46.523,23.987-.443.228-.914.399-1.363.614-8.273,3.954-10.868,2.345-10.918-6.865ZM134.611,208.443c-.54-.385-1.095-.763-1.684-1.065-16.695-8.587-33.345-17.262-50.116-25.699-7.562-3.805-10.28-1.916-10.31,6.642-.029,8.321-.006,16.643-.006,24.964-.072,0-.143,0-.215,0,0,8.654-.023,17.309.007,25.963.025,7.157,2.814,9.154,9.375,6.269,5.466-2.404,10.717-5.305,16.026-8.058,12.244-6.348,24.551-12.582,36.658-19.182,5.95-3.244,5.83-5.862.265-9.834ZM.068,102.776c0,8.153-.025,16.307.007,24.46.035,8.972,2.972,10.807,11.017,6.751,11.122-5.607,22.191-11.32,33.273-17.006,6.055-3.107,12.22-6.03,18.097-9.446,5.31-3.086,5.317-6.834.011-9.625-17.637-9.276-35.341-18.428-53.13-27.408-6.188-3.124-9.122-1.145-9.222,5.821-.126,8.816-.03,17.636-.03,26.454-.008,0-.015,0-.023,0ZM.02,201.414c.033,7.384,2.59,9.478,9.183,6.23,17.888-8.813,35.604-17.988,53.213-27.35,5.618-2.987,5.562-6.385-.064-9.377-17.612-9.365-35.33-18.539-53.163-27.476-6.1-3.057-9.125-.81-9.162,6-.047,8.662-.011,17.324-.014,25.987-.003,8.662-.032,17.325.006,25.987ZM207.802,173.041c-3.531-2.436-7.513-4.233-11.344-6.217-13.868-7.183-27.693-14.453-41.663-21.433-7.408-3.701-10.157-1.72-10.053,6.407.106,8.32.024,16.643.024,24.965.011,0,.022,0,.033,0,0,9.154-.138,18.31.048,27.46.124,6.118,2.183,7.438,7.883,5.232,3.397-1.315,6.66-3.008,9.9-4.691,15.031-7.808,30.393-15.001,44.945-23.701,4.666-2.79,4.723-4.92.228-8.021ZM153.57,133.368c17.833-8.858,35.537-17.987,53.13-27.314,5.853-3.103,5.811-6.693.036-9.731-17.631-9.275-35.363-18.361-53.156-27.321-5.713-2.877-8.54-1.058-8.674,5.36-.187,8.976-.047,17.958-.047,26.938h-.056c0,8.648-.036,17.296.011,25.944.039,7.249,2.483,9.24,8.757,6.123ZM135.504,135.157c-4.137-2.719-8.725-4.759-13.14-7.047-13.113-6.795-26.165-13.715-39.39-20.285-7.852-3.901-10.246-2.259-10.272,6.297-.026,8.314-.006,16.628-.006,24.942-.077,0-.153,0-.23,0,0,8.479-.027,16.959.008,25.438.035,8.547,2.636,10.246,10.404,6.378,13.225-6.585,26.346-13.379,39.485-20.137,4.424-2.275,8.933-4.45,13.105-7.133,4.795-3.083,4.838-5.297.036-8.454ZM.276,35.187c0,7.486-.149,14.976.054,22.456.129,4.747,1.969,5.867,6.374,4.113,2.607-1.038,5.026-2.547,7.535-3.834,16.542-8.481,33.094-16.942,49.617-25.459,1.874-.966,4.044-1.814,4.177-4.483.106-2.119-1.559-2.83-2.996-3.559-14.81-7.509-29.475-15.334-44.527-22.326C8.559-3.457.415,2.344.253,15.721c-.078,6.488-.013,12.977-.013,19.465.012,0,.024,0,.036,0ZM66.063,247.309c-2.276-1.621-4.863-2.821-7.362-4.111-16.816-8.678-33.597-17.425-50.493-25.944C1.63,213.938.049,215.094.026,222.553-.005,233.03,0,243.508.097,253.984c.045,4.805-.469,9.642.711,14.405,1.446,5.836,5.768,9.713,12.146,9.691.94-.201,3.179-.322,5.114-1.15,16.345-6.991,31.781-15.819,47.63-23.814,3.086-1.557,3.037-3.904.365-5.807ZM269.965,130.46c-14.964-8.245-30.256-15.905-45.529-23.574-5.358-2.691-7.386-1.259-7.433,4.617-.074,9.144-.02,18.288-.02,27.432h-.028c0,9.477-.078,18.954.033,28.43.056,4.771,2.027,6.531,5.543,4.809,16.093-7.883,32.378-15.448,47.802-24.573,8.741-5.171,8.555-12.224-.368-17.141Z"/>
</svg>