<?xml version="1.0" encoding="utf-8"?>
<!-- Generator: Adobe Illustrator 28.1.0, SVG Export Plug-In . SVG Version: 6.00 Build 0)  -->
<svg version="1.1" id="레이어_1" xmlns="http://www.w3.org/2000/svg" xmlns:xlink="http://www.w3.org/1999/xlink" x="0px"
	 y="0px" viewBox="0 0 300 300" style="enable-background:new 0 0 300 300;" xml:space="preserve">
<style type="text/css">
	.st0{fill:#3b1e1e;}
</style>
<g id="Layer_2">
	<g id="Layer_1-2">
		<path class="st0" d="M118.4,112.4l-10.7,32.7l21.9-0.1l-10.9-32.6C118.6,112.4,118.5,112.3,118.4,112.4
			C118.4,112.4,118.4,112.4,118.4,112.4z"/>
		<path class="st0" d="M149.7,15.1C66.8,15.4-0.2,68.6,0,134.1c0.1,42.1,28,79,69.9,99.9l-14,52.9c-0.8,2.3,0.4,4.7,2.7,5.5
			c1.4,0.5,2.9,0.2,4.1-0.7l60.7-41.2c8.9,1.2,18,1.9,27,1.8c82.8-0.2,149.8-53.5,149.7-118.9S232.5,14.9,149.7,15.1z M74.4,165.2
			c0,4.6-2.7,7.5-7.2,7.5c-4.4,0-7.2-2.9-7.2-7.5l-0.1-52.1l-15.1,0c-4.7,0-6.4-3.5-6.4-6.5c-0.1-3.5,2.6-6.4,6.1-6.6
			c0.1,0,0.2,0,0.3,0l44.5-0.1c3.5-0.1,6.4,2.8,6.4,6.3c0,0.1,0,0.2,0,0.3c0,3-1.7,6.5-6.4,6.5l-15.1,0L74.4,165.2z M143.8,172.5
			c-3.2,0.3-6.2-1.8-7-5l-3.2-9.8l-30,0.1l-3.2,9.7c-0.7,3.2-3.6,5.4-6.9,5.1c-3.7,0.2-6.9-2.7-7.1-6.5c0,0,0-0.1,0-0.1
			c0-1.1,0.2-2.2,0.7-3.2l20.7-55.2c1.5-4,5.1-8.4,10.6-8.4c4.9,0,8.8,3,10.7,8.3l20.3,55c0.5,1.2,0.7,2.4,0.8,3.7
			c0,3.5-2.9,6.3-6.4,6.2C143.9,172.5,143.9,172.5,143.8,172.5L143.8,172.5z M198.9,165.3c-0.1,3.6-3.2,6.4-6.8,6.3c0,0,0,0,0,0
			l-26.7,0.1c-4.7,0-7.5-2.9-7.5-7.9l-0.2-57.1c0-4.6,2.7-7.5,7.2-7.5c4.4,0,7.2,2.8,7.2,7.5l0.1,52l19.9-0.1c1.9-0.1,3.8,0.6,5.2,2
			C198.4,161.8,199,163.5,198.9,165.3z M258.7,166.6c-0.5,5.2-5.6,5.6-7.1,5.7c-0.4,0-0.7,0-1.1-0.1c-2.7-0.3-4.1-1.9-6.9-5.7
			l-18.9-25.6l-5.1,5.3l0.1,19.3c0,3.8-3.1,6.9-6.8,6.9c-0.1,0-0.2,0-0.3,0c-4.3,0-7.2-2.7-7.2-6.8l-0.2-59.4
			c-0.1-3.8,2.9-7,6.7-7.1c0.2,0,0.3,0,0.5,0c3.7-0.3,6.9,2.6,7.2,6.3c0,0.3,0,0.5,0,0.8l0.1,23l25.2-26.4c1.5-1.6,3.5-2.6,5.7-2.6
			c3.5,0.1,7,2.4,6.9,6.6c0,2-1.2,3.3-3.5,5.9c-0.5,0.6-1.1,1.2-1.7,2l-17.2,17.5l20.5,26.7C257.3,161.4,259,163.6,258.7,166.6
			L258.7,166.6z"/>
	</g>
</g>
</svg>
