<?xml version="1.0" encoding="utf-8"?>
<!-- Generator: Adobe Illustrator 28.3.0, SVG Export Plug-In . SVG Version: 6.00 Build 0)  -->
<svg version="1.1" id="레이어_1" xmlns="http://www.w3.org/2000/svg" xmlns:xlink="http://www.w3.org/1999/xlink" x="0px"
	 y="0px" viewBox="0 0 25.6 26" style="enable-background:new 0 0 25.6 26;" xml:space="preserve">
<path d="M10.2,7.4c0,0.8,0,1.6,0.3,2.3C7.8,13,0,21.9,0,21.9l0.2,2.3c0,0,2.2,2.1,2.5,1.8c1-0.9,1.5-1.6,1.5-1.6l0.5-2.7l2.9-0.2
	l0.2-2.9l3.1-0.1l0-3.1l3.3,0.1l0.6-1.2c1,0.4,1.9,0.6,3,0.6c4.3,0,7.8-3.3,7.8-7.4S22.1,0,17.8,0S10.2,3.3,10.2,7.4 M22,6
	c0,1.3-1.1,2.4-2.4,2.4S17.2,7.3,17.2,6s1.1-2.4,2.4-2.4C20.9,3.6,22,4.7,22,6C22,6,22,6,22,6"/>
</svg>
