<?xml version="1.0" encoding="utf-8"?>
<!-- Generator: Adobe Illustrator 28.1.0, SVG Export Plug-In . SVG Version: 6.00 Build 0)  -->
<svg version="1.1" id="레이어_1" xmlns="http://www.w3.org/2000/svg" xmlns:xlink="http://www.w3.org/1999/xlink" x="0px"
	 y="0px" viewBox="0 0 41.4 40" style="enable-background:new 0 0 41.4 40;" xml:space="preserve">
<style type="text/css">
	.st0{fill:#00A378;}
	.st1{fill:#E53D40;}
</style>
<path class="st0" d="M20.8,10C20.8,9.9,20.8,9.9,20.8,10c0-2,0.5-3.7,1.3-5.2c0.9-1.5,2.1-2.7,3.7-3.5C27.4,0.4,29.1,0,31.1,0
	c2,0,3.7,0.4,5.3,1.3c1.6,0.8,2.8,2,3.7,3.6c0.8,1.6,1.3,3.3,1.3,5.2s-0.5,3.7-1.3,5.2c-0.9,1.5-2.1,2.7-3.7,3.5
	c-1.6,0.9-3.4,1.3-5.2,1.3L25.2,20h-4.5L20.8,10z"/>
<path class="st1" d="M20.6,30c0,2-0.5,3.7-1.3,5.2c-0.9,1.5-2.1,2.7-3.7,3.5C14,39.6,12.2,40,10.3,40c-2,0-3.7-0.4-5.3-1.3
	c-1.5-0.8-2.8-2.1-3.7-3.6C0.4,33.6,0,31.8,0,29.9s0.5-3.7,1.3-5.2C2.2,23.2,3.5,22,5,21.2c1.6-0.9,3.4-1.3,5.2-1.3l5.9,0.1h4.5
	L20.6,30z"/>
</svg>
