<?xml version="1.0" encoding="utf-8"?>
<!-- Generator: Adobe Illustrator 28.1.0, SVG Export Plug-In . SVG Version: 6.00 Build 0)  -->
<svg version="1.1" id="_레이어_1" xmlns="http://www.w3.org/2000/svg" xmlns:xlink="http://www.w3.org/1999/xlink" x="0px"
	 y="0px" viewBox="0 0 570 374.2" style="enable-background:new 0 0 570 374.2;" xml:space="preserve">
<style type="text/css">
	.st0{fill:#FFFFFF;}
	.st1{fill:#010101;}
	.st2{fill:#FE5050;}
</style>
<path class="st0" d="M537.1,114.7c-4.3-17.9-11.6-34.4-24.4-47.9c-23.3-24.5-52.2-37.4-86-37.6c-64.3-0.4-128.6-0.1-192.9-0.1l0,0
	c-66.1,0-132.1,0-198.2,0c-3.3,0-4.6,1-5.8,4.2c-0.4,1.1-0.5,2.3-0.5,3.4c-0.1,19.6-0.2,39.1-0.2,58.7c0,49.1-0.1,98.3,0.4,147.4
	c0.2,20.6,0.3,41.3,1,61.9c0.3,8.5,2.6,16.5,7.8,23.3C47.2,340,60,344.7,74.4,345c23.6,0.4,47.1,0.1,70.7,0
	c29.7-0.1,59.5-0.2,89.2-0.3c33.8-0.2,67.6-0.4,101.4-0.6c3.7,0,7.5,0.2,11.2-0.7c18.7-4.8,31.3-16.2,37.5-34.5
	c3.8-11.1,4.9-22.5,5-34.2c0-6.4,3.9-11.9,9.8-13.9c2.4-0.8,4.9-0.7,7.4-0.6c23.6,0.7,46.5-2.8,68.1-12.6
	c27-12.2,47.2-31.4,58.4-59.2C542.8,164.4,543.1,139.6,537.1,114.7z M493.7,184.7c-8.8,17-23.3,27.5-40.8,34.5
	c-8.9,3.5-18.2,3.4-27.5,3.9c-6.4,0.3-12.8,0.1-19.2,0c-9.8-0.2-15.5-6.1-15.5-16c0-20.9,0-41.8,0-62.7l0,0c0-20.8,0-41.7,0-62.5
	c0-10.1,5.8-15.9,16-15.9c9.7,0,19.3-0.2,29,0.2c32.1,1.2,60.3,25.4,66.2,57.1C505.6,144.5,503.7,165.3,493.7,184.7z"/>
<path class="st1" d="M232.6,0.2c64.8,0,129.6-0.6,194.4,0.2c44.6,0.5,82.3,17.9,111.3,52.2c15.1,17.9,23.7,39.1,28.2,61.9
	c5.3,26.7,4.6,53.2-4.6,79c-11.9,33.6-34.2,58.4-65.3,75.3c-22.1,12-45.9,18.2-71,19.8c-0.4,0-0.8,0-1.2,0.1
	c-2.3,0.4-5.3-0.7-6.6,0.9c-1.3,1.5-0.8,4.4-1.1,6.7c-2.6,19.7-9,37.9-23.1,52.5c-14.9,15.3-33,23.8-54.6,24
	c-19.4,0.2-38.8,0.4-58.2,0.5c-17.6,0.1-35.1,0.3-52.7,0.3c-22,0.1-44,0.1-66,0.2c-29.4,0.1-58.8,0.7-88.2,0
	c-24-0.5-44.8-9.2-59.7-29.1c-8.7-11.6-12.5-25.1-12.9-39.4c-0.9-31.6-1-63.3-1.2-94.9C0,173.4,0,136.3,0,99.2c0-22,0-44,0.5-65.9
	c0.3-15,13-33.3,34.4-33.2C100.8,0.4,166.7,0.2,232.6,0.2z M233.7,29.1c-66.1,0-132.1,0-198.2,0c-3.3,0-4.6,1-5.8,4.2
	c-0.4,1.1-0.5,2.3-0.5,3.4c-0.1,19.6-0.2,39.1-0.2,58.7c0,49.1-0.1,98.3,0.4,147.4c0.2,20.6,0.3,41.3,1,61.9
	c0.3,8.5,2.6,16.5,7.8,23.3C47.2,340,60,344.8,74.4,345c23.6,0.4,47.1,0.1,70.7,0c29.7-0.1,59.5-0.2,89.2-0.3
	c33.8-0.2,67.6-0.4,101.4-0.6c3.7,0,7.5,0.2,11.2-0.7c18.7-4.8,31.3-16.2,37.5-34.5c3.8-11.1,4.9-22.5,5-34.2
	c0-6.4,3.9-11.9,9.8-13.9c2.4-0.8,4.9-0.7,7.4-0.6c23.6,0.7,46.5-2.8,68.1-12.6c27-12.2,47.2-31.4,58.4-59.2
	c9.7-24.1,10-48.8,4-73.7c-4.3-17.9-11.6-34.4-24.4-47.9c-23.3-24.5-52.2-37.4-86-37.6C362.3,28.8,298,29.1,233.7,29.1L233.7,29.1z"
	/>
<path class="st2" d="M97.8,150.5c0.1-14.9,3.6-27.3,13.3-37.4c8.7-9.1,19.6-14.2,32-15.9c25.8-3.7,47.4,5.1,65.4,23.4
	c1.2,1.3,1.7,1.1,2.9,0c11.5-11.1,24.6-19.4,40.3-23.2c25.8-6.1,53.8,6.5,64.8,29.5c6.5,13.6,6.6,27.7,2.7,42.1
	c-3.6,13.6-11.3,24.8-20.8,35c-20.5,22-42.1,42.9-64,63.5c-6.7,6.3-13.5,12.6-20.3,18.8c-3.5,3.2-5.7,3.2-9.1,0.1
	c-17.4-15.4-34.5-31.1-51.3-47.2c-11.2-10.7-22.2-21.6-32.8-32.9c-12.5-13.3-19.5-29.1-22.3-47C98,156,97.6,152.6,97.8,150.5
	L97.8,150.5z"/>
<path class="st1" d="M390.6,144.4c0-20.8,0-41.7,0-62.5c0-10.1,5.8-15.9,16-15.9c9.7,0,19.3-0.2,29,0.2
	c32.1,1.2,60.3,25.4,66.2,57.1c3.9,21.2,2,42-8.1,61.4c-8.8,17-23.3,27.5-40.8,34.5c-8.9,3.5-18.2,3.4-27.5,3.9
	c-6.4,0.3-12.8,0.1-19.2,0c-9.8-0.2-15.5-6.1-15.5-16C390.6,186.2,390.6,165.3,390.6,144.4L390.6,144.4z M419.4,144.6v45
	c0,4.7,0,4.9,4.8,4.6c6.6-0.3,13.3,0.1,19.7-2.5c14.3-5.8,24.4-15.4,28.3-30.6c2.5-9.8,3.2-19.7,1.6-29.7
	c-2.7-16.8-12.4-28.1-28.2-34.2c-7.7-3-15.9-2.4-23.9-2.5c-1.9,0-2.3,0.5-2.3,2.4C419.5,112.9,419.4,128.8,419.4,144.6L419.4,144.6z
	"/>
</svg>
