<?xml version="1.0" encoding="utf-8"?>
<!-- Generator: Adobe Illustrator 28.2.0, SVG Export Plug-In . SVG Version: 6.00 Build 0)  -->
<svg version="1.1" id="레이어_1" xmlns="http://www.w3.org/2000/svg" xmlns:xlink="http://www.w3.org/1999/xlink" x="0px"
	 y="0px" viewBox="0 0 38.6 31.6" style="enable-background:new 0 0 38.6 31.6;" xml:space="preserve">
<style type="text/css">
	.st0{fill:#FFFFFF;}
	.st1{fill-rule:evenodd;clip-rule:evenodd;fill:#FFFFFF;}
</style>
<g>
	<g>
		<path class="st0" d="M26.3,10.7c3,0,5.4-2.4,5.4-5.4c0-3-2.4-5.4-5.4-5.4c-3,0-5.4,2.4-5.4,5.4C20.9,8.3,23.4,10.7,26.3,10.7z"/>
		<path class="st0" d="M14.9,0.3H0v31.3h14.9V0.3L14.9,0.3z"/>
		<path class="st1" d="M24.6,31.5h11.1l1.9-1.4c1-0.8,1.3-2.3,0.5-3.3L28.1,13.4c-0.8-1-2.3-1.2-3.3-0.5l-7.1,5.3
			c-1,0.8-1.3,2.3-0.5,3.3L24.6,31.5z"/>
	</g>
</g>
</svg>
