<?xml version="1.0" encoding="UTF-8"?>
<svg id="_레이어_1" data-name="레이어 1" xmlns="http://www.w3.org/2000/svg" viewBox="0 0 721.67 473.227">
  <defs>
    <style>
      .cls-1 {
        fill: #fefefe;
      }

      .cls-1, .cls-2, .cls-3, .cls-4 {
        stroke-width: 0px;
      }

      .cls-2 {
        fill: #020203;
      }

      .cls-3 {
        fill: #806afd;
      }

      .cls-4 {
        fill: #643efe;
      }
    </style>
  </defs>
  <path class="cls-2" d="M360.885,473.129c-82.306,0-164.613.279-246.917-.106-48.321-.226-82.028-24.274-103.296-66.718C.512,386.029-1.557,364.059.992,341.985,12.824,239.518,57.608,153.616,133.991,84.714,185.15,38.566,245.742,11.573,314.244,3.1c67.546-8.355,132.771-.2,194.71,29.085,58.976,27.885,105.481,70.299,142.159,123.761,32.648,47.587,55.105,99.617,65.808,156.456,4.263,22.641,6.851,45.479,2.509,68.472-9.214,48.791-50.243,86.655-99.639,92.017-2.64.287-5.324.23-7.988.23-83.639.011-167.278.009-250.917.009ZM361,457.9c81.795,0,163.59.06,245.385-.023,47.188-.048,86.499-31.553,97.137-77.319,4.96-21.34,2.131-42.469-1.704-63.436-10.489-57.34-32.888-109.913-67.028-157.002C554.227,48.998,445.344,1.581,309.213,19.617c-68.793,9.114-127.997,39.75-177.43,88.323-60.715,59.66-98.132,131.878-112.841,215.704-2.904,16.547-4.545,33.301-1.951,50.196,6.772,44.121,45.551,84.815,101.125,84.265,80.954-.801,161.922-.206,242.884-.206Z"/>
  <path class="cls-3" d="M361,457.9c-80.962,0-161.93-.595-242.884.206-55.574.55-94.354-40.144-101.125-84.265-2.593-16.896-.952-33.649,1.951-50.196,14.709-83.826,52.126-156.044,112.841-215.704,49.433-48.574,108.638-79.209,177.43-88.323,136.131-18.035,245.014,29.381,325.577,140.503,34.14,47.09,56.539,99.663,67.028,157.002,3.835,20.967,6.664,42.096,1.704,63.436-10.638,45.766-49.949,77.272-97.137,77.319-81.795.082-163.59.023-245.385.023ZM501.284,357.169c-15.945-1.65-31.864-3.647-47.843-4.86-18.497-1.404-37.037-2.747-55.574-3.003-38.213-.528-76.446-.666-114.613,1.911-9.725.657-19.413,1.856-29.118,2.798-10.861,1.053-21.723,2.097-32.584,3.145,2.012-9.091.549-17.425-5.051-25.038-10.914-14.836-28.311-20.283-47.138-14.175-3.771,1.223-5.422.423-7.41-2.804-7.341-11.913-13.927-24.193-19.463-37.042-4.277-9.928-7.978-20.062-10.962-30.454-1.103-3.842-3.729-5.951-7.607-6.044-3.221-.077-5.808,1.55-7.13,4.587-1.122,2.578-.497,5.185.285,7.795,7.388,24.67,17.899,47.909,31.811,69.59,1.28,1.994,2.7,3.417.038,5.794-14.027,12.526-17.878,27.84-11.811,45.644-1.094.394-2.206.744-3.279,1.19-9.639,4.013-19.673,7.331-27.132,15.227-4.472,4.734-4.483,8.867.067,13.496,6.292,6.4,14.811,8.135,22.95,10.133,27.954,6.864,56.645,7.916,85.183,10.059,15.06,1.131,30.173,1.226,45.254,1.811,26.09,1.012,52.221-.132,78.344,1.049,27.267,1.233,54.553-.866,81.838-.809,25.431.053,50.83-.546,76.238-1.859,19.204-.992,38.363-2.178,57.5-4.067,13.041-1.287,26.007-3.024,38.651-6.302,8.247-2.138,17.012-3.839,23.148-10.788,3.354-3.799,3.632-8.04.23-11.676-8.334-8.907-19.024-13.584-30.663-16.405,6.217-18.232,2.856-34.101-11.859-46.996-2.603-2.281-.808-3.696.296-5.419,13.808-21.559,24.334-44.62,31.627-69.155.516-1.735.997-3.561,1.011-5.348.03-3.783-1.966-6.259-5.647-7.223-3.661-.959-6.628.229-8.548,3.43-.92,1.534-1.373,3.372-1.904,5.113-7.077,23.195-17.065,45.04-30.17,65.461-1.493,2.326-2.706,3.774-5.859,2.275-3.764-1.789-8.005-2.177-12.144-2.622-23.783-2.556-47.086,19.195-40.965,41.581ZM366.864,188.465c10.417.17,20.03-2.844,29.2-7.438,4.245-2.127,5.801-6.573,4.01-10.491-1.754-3.836-6.152-5.341-10.626-3.581-3.088,1.216-6.076,2.733-9.23,3.729-15.344,4.848-28.871,2.074-40.069-9.925-4.012-4.299-8.651-5.02-12.18-1.84-3.566,3.213-3.504,7.858.542,12.314,10.26,11.298,23.025,17.172,38.353,17.232ZM279.995,142.378c11.476-.934,23.316-3.932,34.16-10.219,4.226-2.45,5.42-6.769,3.298-10.647-2.023-3.696-6.346-5.345-10.266-3.169-9.973,5.534-20.741,7.824-31.931,8.891-4.185.399-6.624,3.043-6.814,7.276-.189,4.231,1.983,6.958,6.143,7.821,1.43.297,2.973.047,5.41.047ZM443.275,142.403c6.659.399,10.303-1.831,10.912-6.704.609-4.877-2.808-7.911-9.694-8.718-9.629-1.128-18.986-3.177-27.624-7.871-4.987-2.71-9.438-1.756-11.709,2.203-2.425,4.227-.814,8.699,4.337,11.519,10.523,5.76,21.883,8.633,33.778,9.571Z"/>
  <path class="cls-4" d="M585.446,376.073c11.639,2.821,22.328,7.498,30.663,16.405,3.402,3.636,3.124,7.877-.23,11.676-6.136,6.949-14.901,8.65-23.148,10.788-12.644,3.278-25.61,5.014-38.651,6.302-19.138,1.889-38.297,3.074-57.5,4.067-25.408,1.313-50.808,1.912-76.238,1.859-27.285-.057-54.57,2.042-81.838.809-26.123-1.181-52.254-.037-78.344-1.049-15.081-.585-30.194-.68-45.254-1.811-28.539-2.143-57.23-3.195-85.183-10.059-8.139-1.999-16.658-3.733-22.95-10.133-4.551-4.629-4.539-8.762-.067-13.496,7.459-7.896,17.492-11.214,27.132-15.227,1.072-.446,2.185-.796,3.279-1.19,7.893,16.236,21.698,21.708,38.37,15.142,1.441-.568,2.794-.735,4.332-.667,10.269.453,18.363-3.662,24.413-11.91.872-1.188,1.373-2.657,2.828-3.39,7.219-3.637,11.685-9.631,14.495-17.028,10.861-1.048,21.723-2.091,32.584-3.145,9.706-.941,19.394-2.141,29.118-2.798,38.167-2.577,76.4-2.439,114.613-1.911,18.537.256,37.077,1.599,55.574,3.003,15.978,1.213,31.897,3.21,47.843,4.859,2.488,6.526,6.143,12.195,12.336,15.754,2.245,1.29,3.799,2.99,5.296,5.037,5.803,7.932,13.727,11.787,23.569,11.598,1.479-.028,2.856-.173,4.37.38,17.526,6.402,28.672,2.359,38.59-13.865Z"/>
  <path class="cls-2" d="M585.446,376.073c-9.917,16.224-21.063,20.267-38.59,13.865-1.514-.553-2.891-.409-4.37-.38-9.842.189-17.766-3.666-23.569-11.598-1.497-2.047-3.052-3.747-5.296-5.037-6.193-3.558-9.849-9.228-12.336-15.754-6.121-22.385,17.182-44.136,40.965-41.58,4.14.445,8.38.833,12.144,2.622,3.153,1.499,4.367.051,5.859-2.275,13.105-20.421,23.093-42.266,30.17-65.461.531-1.741.984-3.579,1.904-5.113,1.919-3.201,4.887-4.389,8.548-3.43,3.68.964,5.677,3.44,5.647,7.223-.014,1.787-.495,3.613-1.011,5.348-7.292,24.535-17.819,47.596-31.627,69.155-1.104,1.723-2.899,3.138-.296,5.419,14.715,12.895,18.076,28.764,11.859,46.996ZM541.156,331.145c-11.119-.211-18.002,3.845-22.886,11.336-5.044,7.738-1.057,17.077,8.023,18.693,2.147.382,2.823.936,3.378,3.148,1.986,7.922,9.005,11.584,16.52,8.58,2.346-.938,3.331-.399,4.997,1.081,6.858,6.094,16.799,3.632,19.883-4.999,2.91-8.146,2.397-16.095-3.127-23.142-7.298-9.31-17.069-13.95-26.789-14.698Z"/>
  <path class="cls-2" d="M221.552,357.159c-2.81,7.397-7.276,13.391-14.495,17.028-1.455.733-1.956,2.202-2.828,3.39-6.05,8.248-14.144,12.362-24.413,11.91-1.537-.068-2.89.099-4.332.667-16.672,6.566-30.477,1.094-38.37-15.142-6.067-17.804-2.216-33.117,11.811-45.643,2.662-2.377,1.241-3.8-.038-5.794-13.912-21.681-24.423-44.92-31.811-69.59-.782-2.61-1.407-5.217-.285-7.795,1.321-3.037,3.909-4.664,7.13-4.587,3.878.093,6.503,2.203,7.607,6.044,2.984,10.392,6.685,20.525,10.962,30.454,5.535,12.85,12.121,25.13,19.463,37.042,1.989,3.227,3.639,4.027,7.41,2.804,18.827-6.108,36.224-.66,47.138,14.175,5.6,7.612,7.064,15.946,5.051,25.038ZM184.134,331.112c-10.43-.001-22.184,5.727-28.71,13.926-5.538,6.958-6.689,14.676-3.979,23.005,3.122,9.594,12.993,12.336,20.508,5.553,1.735-1.567,2.739-1.374,4.649-.648,7.586,2.883,14.445-.644,16.542-8.632.568-2.162,1.213-2.769,3.386-3.151,9.058-1.594,13.037-10.967,7.999-18.704-4.768-7.322-11.492-11.358-20.395-11.349Z"/>
  <path class="cls-2" d="M366.864,188.465c-15.329-.06-28.094-5.934-38.353-17.232-4.046-4.456-4.108-9.101-.542-12.314,3.529-3.179,8.168-2.458,12.18,1.84,11.198,11.999,24.725,14.774,40.069,9.925,3.154-.997,6.141-2.514,9.23-3.729,4.474-1.761,8.871-.255,10.626,3.581,1.792,3.918.236,8.364-4.01,10.491-9.17,4.594-18.782,7.608-29.2,7.438Z"/>
  <path class="cls-2" d="M279.995,142.378c-2.436,0-3.98.249-5.41-.047-4.16-.863-6.333-3.59-6.143-7.821.189-4.233,2.628-6.876,6.814-7.276,11.189-1.067,21.957-3.358,31.931-8.891,3.921-2.175,8.244-.527,10.266,3.169,2.122,3.878.928,8.198-3.298,10.647-10.844,6.286-22.684,9.284-34.16,10.219Z"/>
  <path class="cls-2" d="M443.275,142.403c-11.895-.938-23.255-3.811-33.778-9.571-5.152-2.82-6.762-7.292-4.337-11.519,2.271-3.96,6.722-4.913,11.709-2.203,8.638,4.694,17.995,6.743,27.624,7.871,6.886.806,10.303,3.84,9.694,8.718-.609,4.873-4.253,7.103-10.912,6.704Z"/>
  <path class="cls-1" d="M541.156,331.145c9.72.747,19.491,5.388,26.789,14.698,5.524,7.047,6.037,14.997,3.127,23.142-3.084,8.632-13.025,11.093-19.883,4.999-1.667-1.481-2.651-2.019-4.997-1.081-7.515,3.003-14.534-.658-16.52-8.58-.554-2.212-1.231-2.766-3.378-3.148-9.08-1.616-13.067-10.955-8.023-18.693,4.884-7.491,11.767-11.547,22.886-11.336Z"/>
  <path class="cls-1" d="M184.134,331.112c8.904-.009,15.627,4.028,20.395,11.349,5.038,7.736,1.059,17.11-7.999,18.704-2.173.382-2.818.989-3.386,3.151-2.097,7.987-8.956,11.514-16.542,8.632-1.91-.726-2.913-.919-4.649.648-7.515,6.784-17.386,4.041-20.508-5.553-2.71-8.329-1.559-16.047,3.979-23.005,6.526-8.199,18.28-13.927,28.71-13.926Z"/>
</svg>