<?xml version="1.0" encoding="UTF-8"?>
<svg id="_레이어_1" data-name="레이어 1" xmlns="http://www.w3.org/2000/svg" viewBox="0 0 265.444 287.976">
  <defs>
    <style>
      .cls-1 {
        fill: #fefefe;
        stroke-width: 0px;
      }
    </style>
  </defs>
  <path class="cls-1" d="M54.054.577c4.329-.975,7.989-.419,11.624-.424,19.321-.026,38.644.121,57.963-.082,4.195-.044,5.664.77,5.654,5.39-.162,73.128-.115,146.257-.117,219.386,0,.833.073,1.678-.042,2.496-.543,3.859.972,4.97,4.921,4.949,34.644-.188,69.289-.144,103.934-.168,1.159,0,2.318,0,4.095,0-3.587,11.334-6.713,22.386-9.533,33.523-1.54,6.08-3.663,12.011-5.414,18.04-.686,2.362-1.77,3.505-4.506,3.546-25.976.387-51.951.012-77.926.077-27.471.068-54.952-.917-82.415.507-8.799.456-8.77.442-4.845-7.388,3.037-6.059,5.921-12.197,9.003-18.233,1.32-2.585,1.897-5.187,1.893-8.105-.099-72.963-.151-145.926-.137-218.888,0-3.925-.709-7.403-2.584-10.939-4.02-7.581-7.565-15.414-11.568-23.687Z"/>
  <path class="cls-1" d="M213.873,211.106c7.781-9.94,13.735-19.944,17.814-31.056,17.307-47.145-1.112-99.65-44.354-125.908-10.677-6.483-22.018-11.341-34.531-13.006-1.99-.265-2.797-1.22-2.756-3.325.148-7.489.257-14.983.106-22.47-.059-2.921,1.114-3.372,3.557-2.924,20.283,3.72,39.092,11.242,55.93,23.065,27.945,19.621,46.136,46.241,52.731,79.773,6.242,31.739,3.355,62.726-12.183,91.836-1.492,2.796-3.009,4.196-6.414,4.106-9.645-.255-19.3-.089-29.901-.089Z"/>
  <path class="cls-1" d="M47.171,42.597c0,13.501.015,26.103-.012,38.705-.005,2.489-1.755,4.249-2.929,6.212-22.812,38.149-22.576,76.146.647,114.034,1.02,1.665,2.224,3.286,2.219,5.428-.024,12.6-.012,25.2-.012,37.905C28.051,236.362,3.073,189.093.553,158.463c-4.558-55.396,19.768-93.898,46.618-115.866Z"/>
</svg>