<?xml version="1.0" encoding="utf-8"?>
<!-- Generator: Adobe Illustrator 28.1.0, SVG Export Plug-In . SVG Version: 6.00 Build 0)  -->
<svg version="1.1" id="Layer_1" xmlns="http://www.w3.org/2000/svg" xmlns:xlink="http://www.w3.org/1999/xlink" x="0px" y="0px"
	 viewBox="0 0 58.2 98.7" style="enable-background:new 0 0 58.2 98.7;" xml:space="preserve">
<style type="text/css">
	.st0{fill:#FFFFFF;}
</style>
<g>
	<polygon class="st0" points="37.4,71.2 43.6,86.8 53.7,86.8 58.2,71.2 	"/>
	<path class="st0" d="M27,56.9c-3.7-9.1-8.2-21.3-6.9-22.3c0.5-0.5,3,1.7,6.7,8.2c0.5,0.7,0.2-0.2,0.2-0.7c0-4.9,0-34.9,0-34.9
		s-13.4,0-14.6,0c-0.7,0-1,0-1,0.2c-0.2,0.2,0,0.5,0,1c4.7,14.1,6.7,22,5.7,22.7c-0.5,0.5-3-3.2-6.9-11.6C4.3,6.7,0.6-0.5,0.1,0
		c-0.7,0.5,3.5,13.6,14.1,43c3.5,9.6,4.7,14.6,4,15.1s-2.7-2.7-5.7-8.7C9,42.6,7.5,39.8,7,39.8c-0.5,0.2,0.7,4.7,3,11.1
		c3.2,10.1,8.7,27.7,7.7,28.4c-0.5,0.2-2.2-2.5-5.7-10.1c-0.7-1.7-1.2-2.5-1.2-2.5s-0.2,0.2-0.2,0.7c0,1,0,11.4,0,11.4l-4,8.2h18.3
		c-4.7-13.6-6.2-19.8-5.4-20c1-0.5,4.9,7.4,9.9,20C34,89.3,39.9,95,43.4,98.2c0.7,0.7,1,0.7,0.7,0C39.9,88.3,34.5,75.2,27,56.9z"/>
</g>
</svg>
