<?xml version="1.0" encoding="utf-8"?>
<!-- Generator: Adobe Illustrator 28.1.0, SVG Export Plug-In . SVG Version: 6.00 Build 0)  -->
<svg version="1.1"
	 id="Layer_1" xmlns:svg="http://www.w3.org/2000/svg" xmlns:rdf="http://www.w3.org/1999/02/22-rdf-syntax-ns#" xmlns:cc="http://creativecommons.org/ns#" xmlns:dc="http://purl.org/dc/elements/1.1/"
	 xmlns="http://www.w3.org/2000/svg" xmlns:xlink="http://www.w3.org/1999/xlink" x="0px" y="0px" viewBox="0 0 2599.8 2275"
	 style="enable-background:new 0 0 2599.8 2275;" xml:space="preserve">
<style type="text/css">
	.st0{fill:#FFFFFF;}
</style>
<path id="path530" class="st0" d="M1003,302.1c13.8-16.1-30.4-17.7-30.4-17.7C1000.9,290,989.1,318.1,1003,302.1z"/>
<path id="path532" class="st0" d="M146.1,1933.1c-13.2-8.1-31-4.5-19.4,9.3C137.6,1955.5,159.4,1941.2,146.1,1933.1z"/>
<path id="path534" class="st0" d="M79.8,1955.7c23.6,15.7,26.6-26.4,13.3-22.3C93.1,1933.4,56.2,1940,79.8,1955.7z"/>
<path id="path536" class="st0" d="M924.1,359.9c32.9,3.2,53.8-40.2,37.8-49c-16.1-8.8-15.3,27.3-15.3,27.3
	C940.2,336.6,891.2,356.7,924.1,359.9z"/>
<path id="path538" class="st0" d="M933.7,316.5c13.7-5.6-26.1-31.5-17.7-16.1C916.1,300.5,920.1,322.2,933.7,316.5z"/>
<path id="path540" class="st0" d="M984.3,257.1c6.4-18.5-8-23.3-8-23.3C966.7,250.7,977.9,275.6,984.3,257.1z"/>
<path id="path542" class="st0" d="M961.1,278.8c15.2-2.4-14.4-30.9-12.9-18.4C948.2,260.3,945.8,281.2,961.1,278.8z"/>
<path id="path544" class="st0" d="M1096.8,143.8c19.3-11.2,15.3-42.6,0-21.7C1096.8,122.1,1077.5,155.1,1096.8,143.8z"/>
<path id="path546" class="st0" d="M1461.3,66.9c23.5,0,0.2-26.8-5.4-18.7C1455.9,48.2,1437.8,66.9,1461.3,66.9z"/>
<path id="path548" class="st0" d="M1516.1,19.9c16.9-10.8-11.6-27.3-12.1-16.3C1504.1,3.7,1499.3,30.8,1516.1,19.9z"/>
<path id="path550" class="st0" d="M1023.6,268.1c-7.3-8.3-30.5,0-30.5,0C981.6,271,1030.9,276.3,1023.6,268.1z"/>
<path id="path552" class="st0" d="M1245,127.6c39.8-16.7,1.5-22.1-5.4-15.5c0,0-10.8,12.4-22.9,15.5
	C1204.6,130.8,1205.3,144.4,1245,127.6z"/>
<path id="path554" class="st0" d="M27.4,1955.7c-16.9,1.2-12.7,21.7-12.7,21.7c-13.9,4.8-15.7,11.4-14.5,18.1
	c1.2,6.6,18.1,13.9,30.1,0C42.5,1981.6,44.3,1954.5,27.4,1955.7z"/>
<path id="path556" class="st0" d="M1041.4,183.2c8.8-19.3-23.4-36.4-16.9-17.7C1024.5,165.5,1032.5,202.5,1041.4,183.2z"/>
<path id="path558" class="st0" d="M998,221.7c15.5-0.3-20.6-49.8-18.7-28.1C979.3,193.6,982.5,222,998,221.7z"/>
<path id="path560" class="st0" d="M1596.9,1600.2c3.6-15.1,14.5-31,27.8-33.4c-1.2-0.1-2.3-0.1-3.6-0.1
	c-43.5-1.9-86.9-3.7-130.4-5.6c-17.6-0.7-50.7-65.8-49.3-82.8c2.9-35.8,0.7-73.6-14.8-106.7c-8.2-17.6-34-58-56.5-59.4
	c-78.4-5-156.9-9.9-235.3-14.9c-40.7-2.6-81.3-8.7-121.8-13.1c-48.4-5.3-84.5-5.6-126.2-29.7c-24.2-14-20.4-15.5-20.4-43.6
	c0-28.7,0-57.4,0-86.1c0-40.3,36.1-86.3,53.6-121.6c19-38.2,44.1-69.4,69.8-103.6c12.8-17,28.7-33.9,39.5-52.4
	c9.1-15.6,11-42.4,23.7-55.1c14.8-14.8,26.4-27.6,36.6-40.8c1.5-11,5.4-21,14.6-20.6c7.1-11.1,14-23.3,21.2-37.8
	c1.4-2.7,2.7-5.6,4-8.4c-0.8-17.3,2.2-38.7,20.4-44.9c9.6-20.8,20.1-41.1,33.9-57.9c30.7-37.7,66.7-74.2,93.5-114.7
	c10.7-16.1,14.6-37.5,28.4-51.3c19-19,38-38,57-57c22.2-22.2,85.7-21.8,116.6-24.1c48.5-3.7,98.6,0,147.2,0c4.5,0,9.7-0.3,15-0.7
	c-6.4-9.6-11.6-17.9,6.1-21.8c23-5,24-23.8,21.2-38.1c-12.4-4.7-23.6-7.7-23.6-7.7c2.4-38.5,13.3-85.5-37.4-125.3
	c-50.6-39.8-122.9,44.6-122.9,44.6c-5.6,8.8-23.3-6.9-23.3-6.9c-30.5-44.7-63.5,2.1-61.1-7.8c0.8-3.5,0.2-7.5-1.4-10.9
	c-3.6,0.7-6.5,1.4-8.6,2c0.2,1.8-0.4,4.6-2.4,8.9c-8.4,17.5-23,0-23,0c9.7-6.7,11.9-13.4,10.7-19.4c-2.4-2.2-4.9-4.2-7.5-6.1
	c-7.2,2.1-14.9,2.4-21.2-0.8c-6.7-3.4-7.2-8.2-5.3-13.2c-4.5-1.6-9.2-2.8-13.9-3.7c1,4.5,2.7,9.1,5.1,13.7
	c10.5,20.1-21.7,20.1-16.1,0c1.8-6.6-0.4-11.7-4.2-15.6c-7.1-0.4-14.3-0.2-21.7,0.5c-22.2,17.8-22.3,6.2-23.3,24
	c-1,19.3-34.3,15.3-10.6-13.7c1.4-1.7,2.6-3.3,3.7-4.8c-13.4,3.5-27,8.4-40.7,14.3c16.2-6.4,10,16.9-18.1,32.2
	c-71.9,39.1-61.9,13.5-61.8,13.2c-78.7,57.9-164.5,173-164.5,173c-27.7,3.6-34.3,16.9-21.1,23.5c13.3,6.6-3.6,13.2-3.6,13.2
	c-35.5,12.7-21.7,56-21.7,56c-19.9,13.9-13.9,59.7-13.9,59.7c-14.5,1.8-31.9,15.7-15.1,20.5c16.9,4.8,12.7,21.1,12.7,21.1
	c-33.1,31.3-30.7,88-30.7,88c-60.9,42.8-50.6,118.7-50.6,118.7s-15.7-4.2-60.9,41.6c-45.2,45.8-18.7,138-18.7,138
	c83.1,68.7-48.8,123.5-61.4,69.3c-12.7-54.2-60.9-25.3-47.6,9c13.2,34.3-12.7,50.6-12.7,50.6c-1.8-75.3-20.5-60.2-44.6-45.8
	c-24.1,14.5-33.7-8.4-65.1-27.7c-31.3-19.3-122.1,3.9-122.1,3.9s-17.6-81.3-83.5-103.6c-82.7-28-155.8,24.9-183.2,105.2
	c-27.3,80.3,57,151.8,79.5,165.5c22.5,13.7,91.6,4.8,91.6,4.8c-2.4,39.4,34.5,44.2,34.5,44.2c-0.9,28.8,16.9,45.3,26.9,62.6
	c27.1-8.2-2.8-15.5-1.6-30.8c1.2-15.7,44.4-7.7,39.1,32.3c0,0,14.2-2.6,9.7-21.3s36.8-8.6,33.7,8.3c-3,16.9,9,18.1-28.3,27.7
	c-37.3,9.6,3.6-3.6,2.4,16.9c0,0-8.2,12.8-22.6,0c-10.4-9.3-13.1-6.3-34.3,13.3c-17.2,35,34.4,11.3,14.3,44.5
	c-20.9,34.5-3.2,62.7-3.2,62.7c32.9,6.4,35.3,33.7,35.3,33.7s-28.9,0-27.3,16.1c1.6,16.1,20.9,19.3,20.9,19.3
	c-20.9,46.6,41,32.9,8,69.9c-32.9,37,22.5,29.7,22.5,29.7c4,26.5,36.3,51.2,36.3,51.2c104.2,1.8,28.3,45.8,28.3,45.8
	s41.6,53.6,95.8,55.4c54.2,1.8,33.7,18.1,56,25.9c22.3,7.8,44.6-20.5,68.7,56.6c24.1,77.1,94.6,78.3,167.5,29.5
	c72.9-48.8,10.2-87.4-22.9-82.5c-33.1,4.8-68.7,34.9-80.1,18.7c-11.5-16.3,44.6-30.1,44.6-30.1c70.5-9.6,93.4-62.1,93.4-62.1
	c32.5-3,160.9-39.8,118.1-77.7c-42.8-38,31.9-50.6,31.9-50.6c-13.3,28.3,47,25.9,47,25.9c23.5,48.8,82.5,23.5,61.4,14.5
	s7.2-54.8,33.1-2.4c25.9,52.4,63.3-0.6,63.3-0.6c44,55.4,113.3,82.5,113.3,82.5s-28.3,3.7-35.5,12.1c-24.9,28.5,30.7,24.7,65.1,20.5
	c34.3-4.2,51.2-43.4,58.4-22.3s28.3,13.2,27.7,0c-0.6-13.3,13.9-12.7,13.9-12.7c-28.9-28.9,22.9-33.7,22.9-33.7
	c32.5-37.4,44.6,9.6,60.2,21.7c15.7,12.1,48.2,7.2,33.7-26.5C1621,1630.3,1590.8,1625.5,1596.9,1600.2L1596.9,1600.2z M1367.5,200
	c0,0,19.3,27.3-12.1,26.5S1367.5,200,1367.5,200L1367.5,200z M1377.2,318.1c1.6,20.9-13.7,8-16.1,0c-2.4-8-15.3-14.5-44.2-8.8
	C1316.9,309.3,1375.5,297.2,1377.2,318.1z M1297.6,141.4c10.4,6.4,16.1,16.9,0,24.1C1281.6,172.7,1297.6,141.4,1297.6,141.4z
	 M1243.8,487.6c-25.7,20.1,0-24.1,0-24.1C1251.5,448.6,1269.5,467.5,1243.8,487.6z M1232.4,162.1c11.9-2.6,27.5,11.5,8.2,17.1
	C1221.3,184.8,1232.4,162.1,1232.4,162.1z M1009.2,368.4c10.5,2,16.9,16.5,0,16C992.4,383.9,1009.2,368.4,1009.2,368.4z
	 M1037.4,395.3c0,0,39.4,8.8-15.3,8.8C967.5,404.1,1037.4,395.3,1037.4,395.3z M982.3,446.7c13.9,11.2-0.6,19.3-12,14.7
	C970.3,461.3,968.5,435.4,982.3,446.7z M957,481.6c15.1,8.3-12,25.2-16.9,24.6C940.2,506.1,942,473.2,957,481.6z M639.5,1284.6
	c8.1,7.5-18.7,41.2-33.1-2.2C606.4,1282.4,631.4,1277.1,639.5,1284.6z M602.8,1323.1c9.1-7.7,18.7,5.4,18.7,5.4
	s-22.6-12.1-15.1,13.6C606.4,1342.1,593.4,1330.9,602.8,1323.1L602.8,1323.1z M481.7,1263.1c15.1-26.6,92.5,19.6,81.3,30.8
	c-11.1,11.3-30.1-16.7-41.3-23.9c-11.1-7.2-25.6-5.4-25.6-5.4C487.4,1255.6,466.6,1289.7,481.7,1263.1L481.7,1263.1z M508.5,1308.9
	c0,0-1.8-28.3,12.7-22.3C535.6,1292.6,527.8,1307.7,508.5,1308.9L508.5,1308.9z M467.5,1275.2c9.6,0-5.4,24.7-6,17.5
	C461.5,1292.6,457.9,1275.2,467.5,1275.2z M591.6,1385.7c-9.6-8.4-36.8-17.8-28.6-0.3c8.1,17.5-9.9,16.9-9,9.6
	c0.9-7.2-3.6-33.7-20.8-23.8c-17.2,9.9,13.6,37.3,13.6,37.3c15.1,43.1-24.7-7.8-24.7-7.8c9-18.7-14.8-26.5-31.3-23.8
	c-16.6,2.7-3.6-18.4-3.6-18.4c-24.4-2.4-16.6-12.7-44.3-19.6c-27.7-6.9-40.7,24.7-32.5,21.4c8.1-3.3,34.3,3,38.9,8.7
	c4.5,5.7-9.7,16-37.4,7.8c-27.7-8.1-24.7-23.5-4.8-43.7c19.9-20.2,61.8-11.4,61.8-11.4c7.8,3,24.4-3.9,24.4-3.9s13.9-3.9-4.8,12.4
	c-18.7,16.3,18.1,26.2,30.7,17.5c12.7-8.7,49.7-25.9,35.8-16.9c-13.9,9-12.4,28-3,30.7c9.3,2.7,20.2,16.3,36.5,4.7
	c16.3-11.6,20.5-1.7,21.4,13.7C610.6,1395.4,601.3,1394.2,591.6,1385.7L591.6,1385.7z M609.8,1331.4c8.4-9.8,24.7,24.3,24.7,24.3
	S601.4,1341.2,609.8,1331.4z M641,1386.9c-32.5,1.7,9.6-5.7,3.9-13.3C644.9,1373.7,673.5,1385.2,641,1386.9z M684.1,1335.1
	c-6.9,9-15.4,3-19.3,0c-3.9-3-8.3-6.9-8.3-6.9S691,1326.1,684.1,1335.1z M701,1314.6c-6,10.2-14.8,2.7-19.9-1.5
	C681.1,1313.1,707,1304.4,701,1314.6z M713.6,1378.2c-5.1-8.7,17.5-31.9,21.7-3c0,0-4.8-14.8-11.8-9.6c-6.9,5.1-6.9,8.1-6.9,11.4
	c0,3.3,2.7,19.6-14.8,21.7C701.9,1398.7,718.8,1386.9,713.6,1378.2L713.6,1378.2z M713.6,1455.3c-22-35.8,0-43.1,0-43.1
	C729,1434.2,713.6,1455.3,713.6,1455.3z M725.7,1373.7c0,0-5.1-1.5,1.2,0c6.3,1.5,12.4,18.7,12.4,18.7s0,0-13.6-5.2
	C712.1,1382,725.7,1373.7,725.7,1373.7L725.7,1373.7z M742.6,1436c0,0-25-28.6-9.6-37.3C752.3,1387.7,742.6,1436,742.6,1436z"/>
<path id="path562" class="st0" d="M1220.1,146.1c0,0-0.1,0-0.1,0c-12.2,4.9-47-5.4-18-21.6c54.6-30.5,0-16.9,0-16.9
	c-45-67.5-69.9-4-77.1,16.9c-7.2,20.9-16.9,45.8-31.3,36.1c-14.5-9.6-27.3-23.3-37,3.7s-4,52.6-26.5,34.9
	c-22.5-17.7-31.3-4.8-20.1,4.8c11.3,9.6,6.4,16.1,6.4,16.1c-34.5,13.7,8,40.2,8,40.2c-4.8-28.1,16.1-16.1,16.1-16.1
	c7.2,22.5,10.4,0,10.4,0c-17.7-22.5,7.2-20.1,7.2-20.1c22.5-12.1-22.5-15.3,15.3-20.1c37.8-4.8-0.8-4,48.2-31.3
	c49-27.3,18.5,18.8,18.5,18.8v0c5.7-4.2,11.3-8,16.8-11.6C1177.7,166.9,1199,155.3,1220.1,146.1L1220.1,146.1z"/>
<path id="path564" class="st0" d="M1557.7,1710.5c-9.6-6.6-30.4-4.8-30.4-4.8s1.5,7.2-4.5,16.3c-6,9-11.4,39,12.1,44.8
	c23.5,5.8,34.9-7.5,36.2-20.1C1572.2,1734,1567.3,1717.1,1557.7,1710.5L1557.7,1710.5z"/>
<path id="path566" class="st0" d="M1450.4,901.2c-15.1-34.5-2.6-66.8-39.4-91.6c-37.9-25.6-39.8-8.8-65.4,20.7
	c-21.1,24.3-42.1,48.5-63.2,72.7c-13.8,15.9-17.1,42.2-23.6,61.8c-12.4,37.7,19.4,57.1,49.8,75.8c61.1,3.3,123.4,0.1,182.6-16.6
	c25.2-7.1,49.8-16.7,72.9-29.2c7.3-18.5-37.6-23.2-45.1-25.7C1479.1,956.2,1466,937,1450.4,901.2z"/>
<ellipse id="ellipse568" transform="matrix(0.9209 -0.3898 0.3898 0.9209 -414.8834 1130.598)" class="st0" cx="2578.3" cy="1587.6" rx="21.1" ry="23.5"/>
<path id="path570" class="st0" d="M2105.3,653.1c1.2-37.4-21.7-83.1-62-122.9c-40.3-39.8-5.5-73.5-5.5-73.5
	c4.8-12.1,21.7-91.6-44.6-88c-66.3,3.6-109.6,45.8-109.6,45.8c0-8.4-19.3-72.3-50.6-84.3c-31.3-12.1,79.5-80.7,12.1-118.6
	c-67.5-37.9-112.1,74-112.1,74c-13.3-9.6-33.7,7.2-33.7,7.2c-2.9-5-10.4-9.7-18.9-13.8c-1.1,4.9-1.8,10.3-1.6,16.2
	c1.2,42.2-7.2,26.5-7.2,26.5c-10.2-4.8-9.9,2-6.4,11c5.7,0.1,11.2,0.5,15.9,1.8c20.9,5.7,43.4,24.4,62.3,35c3.1,1.7,5.6,5.3,7.6,9.9
	v-0.2c0,0,2.4,6.6,27.7,50.8c25.3,44.2,8.4-53,6-68.7c-2.4-15.7,35,39.8,20.6,76.1c-14.4,36.3,18,67.3,18,67.3
	c-9.6-73.5,65.1-12,39.4-13.2c-25.7-1.2-17.7,16.9-17.7,16.9c39.8,32.5,0,45.8,0,45.8c-26.5-53-20.5,14.5-14.5,44.6
	c4.1,20.3-37.2,53.1-64.6,72.4c1.5,63.7,2.1,127.4,1.8,191.1c-0.1,30.9-0.4,61.8-1,92.7c-0.3,16.9-7,40.3,4.6,53.8
	c22.2,25.9,35.1,43.7,65.9,57.3c34.9,15.3,68.6,41.7,68.6,83.1c9.6,33.9-0.1,70.5-13.2,102.1c-11.3,27.5-14.9,35.6-42.9,43.5
	c-17.3,4.9-34.2,11.8-49,22.1c-29.1,20.3-41.5,51.6-47.6,85.5c-3.9,21.8-5,44.1-4.4,66.2c0.8,30.4-3.8,40.2-24,63.4
	c-30.4,35-53.5,36.4-91.8,34.9c6.6,1.7,13.5,7,20.3,17.4c24.1,37.3,44.6,30.1,67.5-4.8s63.9,18.1,86.8,38.6
	c22.9,20.5,94-14.5,94-14.5c2.4-54.2-34.9-53-34.9-53c-45.8-94,25.3-85.6,45.8-86.8c20.5-1.2,18.1-14.5,50.6-28.9
	c32.5-14.5,83.1,1.2,96.4-16.9c13.3-18.1,49.4-97.6,44.6-138.6c-4.8-41-3.6-65.1,14.5-101.2c18.1-36.1,48.2-127.7,27.7-184.4
	c-20.5-56.6,24.1-84.3,36.1-95.2c12-10.8,15.7-44.6-6-85.6C2154.7,772.4,2104.1,690.5,2105.3,653.1L2105.3,653.1z M1831.8,457.7
	c-45.8,2.6-6-20.1-6-20.1S1877.6,455.1,1831.8,457.7z"/>
<path id="path572" class="st0" d="M92.5,2015.9c17.5-16.9-5.9-21.7-20.1-15.7C56.6,2006.9,75,2032.8,92.5,2015.9z"/>
<path id="path574" class="st0" d="M1702.9,1736.8c0,0-55.4-2.2-49.4,24.3s39.8,41.6,54.2,12.7
	C1722.2,1744.8,1706.5,1740.2,1702.9,1736.8z"/>
<path id="path576" class="st0" d="M98.7,1970.1c-13.7-0.1-38.5,16.9-12.8,13.3C111.8,1979.8,107.6,1970.2,98.7,1970.1z"/>
<path id="path578" class="st0" d="M149.1,1983.9c-4.8-9.5-11.5-11.4-19.3-6.9c-6.6,3.9-13.2,21.4,0,23.8
	C143.1,2003.3,153.9,1993.4,149.1,1983.9z"/>
<path id="path580" class="st0" d="M78,2054.5c-17.1,19.8,9,44,18.7,19.9C106.3,2050.3,89.5,2041.2,78,2054.5z"/>
<path id="path582" class="st0" d="M1477,1786.4c-10.8,33.7,22.9,56.6,22.9,56.6s0,0,3.6-14.5c3.6-14.5,26.5-1.8,23.5-31.9
	C1524,1766.5,1487.8,1752.6,1477,1786.4L1477,1786.4z"/>
<ellipse id="ellipse584" class="st0" cx="243.1" cy="2067.1" rx="109.1" ry="111.5"/>
<ellipse id="ellipse586" transform="matrix(0.9836 -0.1803 0.1803 0.9836 -311.2593 293.8005)" class="st0" cx="1460.5" cy="1859.1" rx="20.2" ry="26.2"/>
<ellipse id="ellipse588" class="st0" cx="1323" cy="2236.4" rx="38.9" ry="38.6"/>
</svg>
