<?xml version="1.0" encoding="UTF-8"?>
<svg id="_레이어_1" data-name="레이어 1" xmlns="http://www.w3.org/2000/svg" viewBox="0 0 646.76 745">
  <defs>
    <style>
      .cls-1 {
        fill: #fff;
        stroke-width: 0px;
      }
    </style>
  </defs>
  <path class="cls-1" d="M325.329,0c19.254,11.198,38.494,22.419,57.765,33.587,26.609,15.421,53.232,30.816,79.866,46.194,24.906,14.381,49.84,28.715,74.75,43.089,22.319,12.879,44.618,25.793,66.936,38.675,12.381,7.146,24.727,14.357,37.211,21.319,3.463,1.931,4.907,4.199,4.904,8.277-.101,121.135-.09,242.27-.037,363.406.001,3.292-.785,5.411-3.924,7.203-22.665,12.94-45.183,26.139-67.773,39.211-22.735,13.155-45.497,26.263-68.254,39.38-27.366,15.773-54.747,31.52-82.108,47.301-22.178,12.792-44.334,25.62-66.504,38.425-10.939,6.319-21.887,12.622-32.832,18.933h-4c-9.565-5.67-19.082-11.423-28.705-16.992-22.299-12.906-44.655-25.713-66.977-38.58-25.921-14.941-51.842-29.879-77.74-44.859-39.853-23.052-79.681-46.147-119.534-69.2-7.627-4.412-15.266-8.808-22.999-13.027C1.66,560.316-.005,557.791,0,553.272c.128-120.448.124-240.897.015-361.345-.004-4.426,1.478-6.708,5.351-8.918,31.179-17.797,62.172-35.92,93.262-53.875,31.235-18.039,62.534-35.968,93.771-54.004,31.09-17.952,62.134-35.985,93.207-53.966,12.228-7.076,24.482-14.11,36.723-21.163,1,0,2,0,3,0ZM596.1,373.188c0-50.493-.024-100.987.047-151.48.005-3.793-.728-6.647-4.356-8.701-15.048-8.52-29.969-17.265-44.953-25.898-37.748-21.75-75.524-43.452-113.253-65.237-33.263-19.206-66.584-38.315-99.625-57.895-7.107-4.212-12.307-5.037-19.974-.332-24.506,15.042-49.729,28.914-74.638,43.302-30.956,17.88-61.863,35.844-92.812,53.735-30.086,17.392-60.152,34.82-90.364,51.993-3.644,2.071-4.696,4.375-4.683,8.28.114,34.329.065,68.658.065,102.986,0,66.658.017,133.316-.043,199.974-.003,3.736.472,6.585,4.29,8.628,10.407,5.569,20.635,11.479,30.851,17.397,36.834,21.335,73.598,42.793,110.458,64.083,38.158,22.039,76.638,43.536,114.429,66.186,9.229,5.531,15.595,5.962,24.859.32,28.527-17.371,57.756-33.589,86.689-50.293,27.061-15.624,54.08-31.319,81.141-46.943,28.934-16.705,57.869-33.407,86.874-49.987,3.755-2.147,5.121-4.715,5.106-9.137-.172-50.326-.109-100.653-.11-150.98Z"/>
  <path class="cls-1" d="M350.556,467.653c0,12.499.252,25.005-.122,37.492-.154,5.132,1.537,8.04,5.929,10.706,19.452,11.81,29.569,29.768,29.976,52.101.612,33.555-25.174,60.295-57.861,63.652-34.864,3.58-65.224-25.008-67.567-56.247-1.999-26.661,8.684-46.736,31.022-60.815,2.885-1.818,4.253-3.513,4.236-7.001-.128-26.33-.123-52.661-.014-78.991.018-4.223-.566-5.388-4.784-2.885-20.589,12.218-41.331,24.18-62.005,36.255-20.672,12.075-41.257,24.302-62.04,36.184-5.652,3.232-12.155,4.397-18.665,5.057-14.383,1.458-28.763,2.939-43.139,4.469-2.545.271-5.231.745-6.722-1.841-1.434-2.489.611-4.403,1.925-6.253,9.54-13.422,19.038-26.874,28.723-40.191,5.353-7.36,13.443-11.251,21.047-15.693,38.042-22.223,76.071-44.469,114.166-66.6,4.441-2.58,1.486-3.612-.656-4.855-15.246-8.843-30.519-17.637-45.784-26.446-6.912-3.989-14.14-7.53-20.634-12.111-4.913-3.466-8.729-2.723-13.635-.287-21.564,10.708-42.899,9.611-63.167-3.204-21.841-13.81-32.827-41.13-27.301-65.921,5.778-25.923,26.12-45.59,52.242-49.229,39.312-5.477,68.167,22.116,72.005,53.855.139,1.151.804,2.353.602,3.413-1.663,8.737,4.105,12.105,10.463,15.701,21.131,11.951,42.088,24.21,63.065,36.43,3.004,1.75,4.305,1.817,4.289-2.289-.102-26.83-.125-53.661.029-80.49.021-3.633-1.717-5.431-4.42-7.056-16.637-10.005-27.064-24.497-30.18-43.674-6.277-38.632,21.357-70.069,55.522-73.333,19.49-1.862,36.375,3.938,50.248,17.056,15.023,14.206,21.455,32.419,18.93,53.02-2.565,20.927-13.236,36.995-31.723,47.502-2.457,1.396-3.025,3.156-3.021,5.679.041,26.83.078,53.661-.027,80.491-.018,4.578,1.757,4.134,4.717,2.396,19.642-11.54,39.309-23.04,58.967-34.553,20.23-11.849,40.437-23.738,60.703-35.526,7.399-4.303,15.783-4.878,24.035-5.801,12.046-1.347,24.099-2.639,36.151-3.937,1.158-.125,2.33-.191,3.494-.166,1.611.034,3.607-.529,4.494,1.292.914,1.876.601,3.856-.678,5.646-9.947,13.929-19.676,28.019-29.882,41.754-5.6,7.537-14.339,11.193-22.201,15.802-35.85,21.015-71.747,41.948-107.613,62.936-1.541.901-3.965,1.556-4.068,3.305-.138,2.349,2.651,2.58,4.301,3.537,22.426,13.016,44.887,25.971,67.276,39.051,3.371,1.969,5.949,2.687,9.944.487,23.924-13.175,50.543-10.382,71.659,7.077,26.418,21.843,28.809,62.952,6.503,88.448-19.305,22.066-51.695,27.209-75.439,14.907-22.335-11.573-33.41-30.668-34.645-55.518-.211-4.252-1.696-6.43-5.336-8.496-22.549-12.8-44.933-25.891-67.374-38.882-1.56-.903-3.207-2.651-4.905-1.905-1.987.872-1.004,3.282-1.014,4.997-.077,13.165-.042,26.33-.042,39.495Z"/>
</svg>