<?xml version="1.0" encoding="utf-8"?>
<!-- Generator: Adobe Illustrator 28.1.0, SVG Export Plug-In . SVG Version: 6.00 Build 0)  -->
<svg version="1.1" id="레이어_1" xmlns="http://www.w3.org/2000/svg" xmlns:xlink="http://www.w3.org/1999/xlink" x="0px"
	 y="0px" viewBox="0 0 309.6 400" style="enable-background:new 0 0 309.6 400;" xml:space="preserve">
<style type="text/css">
	.st0{fill:#FFFFFF;}
</style>
<path class="st0" d="M154.8,400L29.6,349.6l-9.9-105.3l5.2-5.5c5.9-6.2,9.1-14.3,9.1-22.8c0-10.7-5.1-20.6-13.9-26.9l-6.1-4.4L0,34
	L74.3,0h161l74.3,34l-14.1,150.7l-6.1,4.4c-8.8,6.4-13.8,16.2-13.8,26.9c0,8.5,3.2,16.6,9.1,22.8l5.2,5.5L280,349.6L154.8,400z
	 M59.9,326.1l94.9,38.2l94.9-38.2l6.6-70.3c-8.5-11.4-13.1-25.3-13.1-39.8c0-18.7,7.9-36.5,21.5-49.1l10.5-112.3l-46.7-21.4H81.2
	L34.5,54.6L45,166.9c13.5,12.5,21.5,30.3,21.5,49.1c0,14.5-4.6,28.3-13.1,39.8L59.9,326.1z"/>
<path class="st0" d="M229,320l-10.6-26.5l-33.8-96.6c24.7-28.5,31.1-56.7,31.1-78.3c0-40.3-29.1-58.1-50.7-58.1l-31.4-0.1v0H96.5
	H80.6l15.9,31.8v201.4L85.9,320h10.6h37.1h10.6l-10.6-26.5v-54.9c1.3-0.9,2.4-1.7,2.8-1.9c7.3-4.5,14-9.1,20.1-13.7l24.9,70.5
	L176,320H229z M133.6,200.4V90h27.7c9.4,0,22.6,6.2,22.6,26.5C183.9,146.8,167,176.4,133.6,200.4z"/>
</svg>
