<?xml version="1.0" encoding="utf-8"?>
<!-- Generator: Adobe Illustrator 28.1.0, SVG Export Plug-In . SVG Version: 6.00 Build 0)  -->
<svg version="1.1" id="레이어_1" xmlns="http://www.w3.org/2000/svg" xmlns:xlink="http://www.w3.org/1999/xlink" x="0px"
	 y="0px" viewBox="0 0 2676 1176" style="enable-background:new 0 0 2676 1176;" xml:space="preserve">
<style type="text/css">
	.st0{fill:#FFFFFF;}
</style>
<path class="st0" d="M2594.4,0.2H590c-53.4,0-104.3,43.3-113.7,96.7l-16.7,94.6c-1.1,6.4,3.1,11.5,9.5,11.5h58.2
	c6.4,0,12.4-5.1,13.5-11.5l11.7-66.3c4.3-24.1,27.3-43.7,51.4-43.7h1947.9c24.1,0,40.2,19.6,36,43.7l-122.8,696.2
	c-4.3,24.1-27.3,43.7-51.4,43.7h-288.9c-14.1,0-28.6,5.5-40.4,15.4l-192.1,161c-2.7,2.2-6.2,0.6-5.7-2.6l23.3-132.3
	c4-22.9-11.3-41.5-34.2-41.5H831c-6.4,0-12.4,5.1-13.5,11.5l-10.3,58.2c-1.1,6.4,3.1,11.5,9.5,11.5h985.7c10.7,0,17.8,8.6,15.9,19.3
	l-28.4,160.9c-2.9,16.2,1.8,31.8,13.7,40.8c7.3,5.5,16.1,8.2,25.3,8.2c12.2,0,25-4.7,35.7-13.7l246.6-206.7c6.7-5.6,15-8.8,23.1-8.8
	h293.4c53.4,0,104.3-43.3,113.7-96.7l132.7-752.7C2683.5,43.5,2647.9,0.2,2594.4,0.2L2594.4,0.2z M296.9,664.3H121.7
	c-25.5,0-42.5-20.6-38-46.1l60.9-345.6c1.1-6.4-3.1-11.5-9.5-11.5H77.6c-6.4,0-12.4,5.2-13.5,11.5L2.6,621.4
	c-4.1,23.1-2.3,45.1,5.2,63.5c4.3,10.7,10.5,20.4,18.2,28.8c26.7,28.9,62.8,32,77.1,32h179.6c6.4,0,12.4-5.2,13.5-11.5l10.3-58.2
	C307.5,669.5,303.3,664.4,296.9,664.3L296.9,664.3z M775,543.5c-3.9-77-62.6-134.4-144.8-134.4s-160.4,56.9-191.8,133.2h-45.6
	c-6.4,0-12.4,5.2-13.5,11.5l-10,56.5c-1.1,6.4,3.1,11.5,9.5,11.5h45.7c4.5,76.3,63,133.1,144.8,133.1c49.6,0,98.1-20.9,135.5-54.4
	c5.4-4.8,6.1-12.5,1.7-16.7L668.9,648c-3.8-3.7-10.5-3.4-15.3,0.6c-19.8,16.7-44.8,27-70.5,27c-37.5,0-66-22.1-75.3-53.9h237.5
	c0.8,0,1.5,0,2.3-0.1c8.9-1,16.8-8.5,19.5-17.2c2.3-7.3,4.1-14.8,5.5-22.4c1.3-7.2,2-14.3,2.4-21.2c0-0.2,0-0.3,0-0.5
	c0.1-2.6,0.2-5.2,0.2-7.7c0-1,0-2.1-0.1-3.1C775.1,547.5,775.1,545.5,775,543.5L775,543.5z M521.8,542.3
	c20.6-31.9,56.8-53.9,94.3-53.9c37.5,0,66,22.1,75.3,53.9H521.8z M1489.2,429.9l-53.6,304.1c-1.1,6.4,3.1,11.5,9.5,11.5h96.9
	c6.3,0,12.4-5.2,13.5-11.5l10-56.4c1.1-6.4-3.1-11.5-9.5-11.5h-29.1l41.6-236.2c1.1-6.4-3.1-11.5-9.5-11.5h-56.2
	C1496.4,418.4,1490.3,423.6,1489.2,429.9L1489.2,429.9z M1331.4,543.2c13.1-74.3-36.5-134.6-110.9-134.6c-37.1,0-73.2,15-101.9,39.2
	c-20.8-25-53.1-40.2-91.8-39.1c-73.5,2-142,63.5-154.9,136.7l-33.3,188.7c-1.1,6.4,3.1,11.5,9.5,11.5h56.3c6.4,0,12.4-5.2,13.5-11.5
	l33.7-190.9c5.4-30.5,34.5-55.3,65.1-55.3s50.7,24.5,45.6,54.8c0,0.2-33.7,191.4-33.7,191.4c-1.1,6.4,3.1,11.5,9.5,11.5h56.2
	c6.4,0,12.4-5.2,13.5-11.5c0,0,33.7-191.2,33.8-191.4c5.6-30.3,34.6-54.8,65-54.8s51,24.8,45.6,55.3l-33.7,190.9
	c-1.1,6.3,3.1,11.5,9.5,11.5h96.9c6.3,0,12.4-5.2,13.5-11.5l9.9-56.4c1.1-6.4-3.1-11.5-9.5-11.5h-29.1v0l0,0
	C1309.7,666.2,1331.4,543.2,1331.4,543.2L1331.4,543.2z M2211.4,754.9c95.5,0,186.6-77.4,203.4-172.9
	c16.8-95.5-46.9-172.9-142.4-172.9S2085.8,486.5,2069,582C2052.1,677.5,2115.9,754.9,2211.4,754.9z M2148.2,582
	c9.1-51.7,58.4-93.7,110.2-93.7c51.7,0,86.3,41.9,77.2,93.7c-9.1,51.7-58.4,93.7-110.2,93.7C2173.6,675.7,2139.1,633.7,2148.2,582z
	 M1662.1,745.6h56.3c6.3,0,12.4-5.2,13.5-11.5l31.9-181.2c6.3-35.6,40.3-64.5,75.9-64.5c35.6,0,59.4,28.9,53.2,64.5h0
	c-3.1,17.5-25.1,142.4-32,181.2c-1.1,6.3,3.1,11.5,9.5,11.5h96.9c6.3,0,12.4-5.2,13.5-11.5l9.9-56.5c1.1-6.3-3.1-11.5-9.4-11.5
	c-11.8,0-28.5,0-29.1,0l19.5-110.3c14.2-80.7-39.9-148.2-120.8-146.7c-78.4,1.5-152.6,65.3-166.4,143.8h0
	c-4,22.8-25.2,143.2-32,181.2C1651.5,740.4,1655.8,745.6,1662.1,745.6L1662.1,745.6z M1572.6,340.8c6.4,0,12.4-5.2,13.6-11.5
	l10-56.6c1.1-6.4-3.1-11.5-9.5-11.5h-56.2c-6.4,0-12.4,5.2-13.6,11.5l-10,56.6c-1.1,6.4,3.1,11.5,9.5,11.5H1572.6z"/>
</svg>
