<?xml version="1.0" encoding="utf-8"?>
<!-- Generator: Adobe Illustrator 28.1.0, SVG Export Plug-In . SVG Version: 6.00 Build 0)  -->
<svg version="1.1" id="레이어_1" xmlns="http://www.w3.org/2000/svg" xmlns:xlink="http://www.w3.org/1999/xlink" x="0px"
	 y="0px" viewBox="0 0 113.5 42" style="enable-background:new 0 0 113.5 42;" xml:space="preserve">
<style type="text/css">
	.st0{fill-rule:evenodd;clip-rule:evenodd;fill:#40BCF4;}
	.st1{fill-rule:evenodd;clip-rule:evenodd;fill:#00E054;}
	.st2{fill-rule:evenodd;clip-rule:evenodd;fill:#FF8000;}
</style>
<g>
	<g transform="matrix(1.16722 0 0 1.16722 0 12.004)">
		<g>
			<path class="st0" d="M79.2-10.3c-6.5,0-12.1,3.4-15.3,8.5c1.8,2.9,2.7,6.1,2.7,9.5c0,3.5-1,6.8-2.7,9.5c3.2,5.1,8.8,8.5,15.3,8.5
				c10,0,18-8.1,18-18C97.2-2.2,89.2-10.3,79.2-10.3z"/>
		</g>
		<g>
			<path class="st1" d="M61.2,7.7c0-3.5,1-6.8,2.7-9.5c-3.2-5.1-8.8-8.5-15.3-8.5c-6.5,0-12.1,3.4-15.3,8.5c1.8,2.9,2.7,6.1,2.7,9.5
				c0,3.5-1,6.8-2.7,9.5c3.2,5.1,8.8,8.5,15.3,8.5s12.1-3.4,15.3-8.5C62.1,14.4,61.2,11.1,61.2,7.7z"/>
		</g>
		<g>
			<path class="st2" d="M30.6,7.7c0-3.5,1-6.8,2.7-9.5c-3.2-5.1-8.8-8.5-15.3-8.5c-10,0-18,8.1-18,18c0,9.9,8.1,18,18,18
				c6.5,0,12.1-3.4,15.3-8.5C31.5,14.4,30.6,11.1,30.6,7.7z"/>
		</g>
	</g>
</g>
</svg>
