<?xml version="1.0" encoding="utf-8"?>
<!-- Generator: Adobe Illustrator 28.1.0, SVG Export Plug-In . SVG Version: 6.00 Build 0)  -->
<svg version="1.1" id="레이어_1" xmlns="http://www.w3.org/2000/svg" xmlns:xlink="http://www.w3.org/1999/xlink" x="0px"
	 y="0px" viewBox="0 0 182 114.2" style="enable-background:new 0 0 182 114.2;" xml:space="preserve">
<style type="text/css">
	.st0{fill:#FFFFFF;}
</style>
<g>
	<path class="st0" d="M47.5,37.7c-0.1,0-0.2,0-0.3,0h-7.9v13.6h7.9c3.6,0,6.4-2.9,6.4-6.5c0-0.1,0-0.2,0-0.3
		C53.7,41,51,37.9,47.5,37.7z"/>
	<path class="st0" d="M90.1,51.2c-5.2,0-9,3.6-9,9.2s3.8,9.2,9,9.2c5.2,0,9-3.6,9-9.2C99.1,54.7,95.4,51.2,90.1,51.2z"/>
	<path class="st0" d="M175.4,0H6.6C3,0,0,3,0,6.6v100.9c0,3.7,3,6.6,6.6,6.6h168.8c3.7,0,6.6-3,6.6-6.6V6.6C182,3,179.1,0,175.4,0z
		 M47.5,62.6c-0.1,0-0.2,0-0.3,0h-7.9v14.8c0,1-0.8,1.8-1.8,1.8h-8.5c-1,0-1.8-0.8-1.8-1.8V28.2c0-1,0.8-1.8,1.8-1.8h18.2
		c10-0.2,18.3,7.8,18.5,17.8c0,0.1,0,0.2,0,0.3C65.6,54.5,57.5,62.7,47.5,62.6z M110.4,42.5v35.8c0,0.5-0.4,0.9-0.9,0.9h-9.4
		c-0.5,0-0.9-0.4-0.9-0.9v-2.6c-2.5,2.9-6.2,4.6-11.2,4.6c-9.9,0-18-8.7-18-19.9s8.1-19.9,18-19.9c5.1,0,8.8,1.7,11.2,4.6v-2.6
		c0-0.5,0.4-0.9,0.9-0.9h9.4C110,41.5,110.4,41.9,110.4,42.5C110.4,42.4,110.4,42.4,110.4,42.5z M160,42.7L140,93.3
		c-0.2,0.6-0.8,1-1.5,1h-9.6c-0.1,0-0.2,0-0.4-0.1c-0.5-0.2-0.7-0.7-0.5-1.2l5.5-13.8l-15-36.5c0-0.1-0.1-0.2-0.1-0.4
		c0-0.5,0.4-0.9,0.9-0.9h9.6c0.6,0,1.2,0.4,1.4,1l9,21.9l8.7-21.9c0.2-0.6,0.8-1,1.5-1h9.6c0.1,0,0.2,0,0.3,0.1
		C160,41.7,160.2,42.3,160,42.7z"/>
</g>
</svg>
