<?xml version="1.0" encoding="utf-8"?>
<!-- Generator: Adobe Illustrator 28.1.0, SVG Export Plug-In . SVG Version: 6.00 Build 0)  -->
<svg version="1.1" id="svg7898" xmlns="http://www.w3.org/2000/svg" xmlns:xlink="http://www.w3.org/1999/xlink" x="0px" y="0px"
	 viewBox="0 0 300 300" style="enable-background:new 0 0 300 300;" xml:space="preserve">
<style type="text/css">
	.st0{fill:#FFFFFF;}
</style>
<path class="st0" d="M300,131C300,63.9,232.7,9.3,150,9.3C67.3,9.3,0,63.9,0,131c0,60.2,53.4,110.6,125.4,120.1
	c4.9,1.1,11.5,3.2,13.2,7.4c1.5,3.8,1,9.7,0.5,13.6c0,0-1.8,10.6-2.1,12.8c-0.7,3.8-3,14.8,13,8.1c16-6.7,86.4-50.9,117.9-87.1h0
	C289.6,182.1,300,157.9,300,131z M97.1,166.9c0,1.6-1.3,2.9-2.9,2.9h-42h0c-0.8,0-1.5-0.3-2-0.8c0,0,0,0,0,0c0,0,0,0,0,0
	c-0.5-0.5-0.8-1.2-0.8-2v0v-65.3c0-1.6,1.3-2.9,2.9-2.9h10.5c1.6,0,2.9,1.3,2.9,2.9v51.9h28.6c1.6,0,2.9,1.3,2.9,2.9V166.9z
	 M122.4,166.9c0,1.6-1.3,2.9-2.9,2.9H109c-1.6,0-2.9-1.3-2.9-2.9v-65.4c0-1.6,1.3-2.9,2.9-2.9h10.5c1.6,0,2.9,1.3,2.9,2.9V166.9z
	 M194.9,166.9c0,1.6-1.3,2.9-2.9,2.9h-10.5c-0.3,0-0.5,0-0.7-0.1c0,0,0,0,0,0c-0.1,0-0.1,0-0.2-0.1c0,0-0.1,0-0.1,0
	c-0.1,0-0.1,0-0.1-0.1c0,0-0.1,0-0.1-0.1c0,0-0.1,0-0.1,0c-0.1,0-0.1-0.1-0.2-0.1c0,0,0,0,0,0c-0.3-0.2-0.5-0.4-0.7-0.7l-30-40.5
	v38.8c0,1.6-1.3,2.9-2.9,2.9h-10.5c-1.6,0-2.9-1.3-2.9-2.9v-65.4c0-1.6,1.3-2.9,2.9-2.9h10.5c0,0,0.1,0,0.1,0c0.1,0,0.1,0,0.1,0
	c0.1,0,0.1,0,0.2,0c0,0,0.1,0,0.1,0c0.1,0,0.1,0,0.2,0c0,0,0.1,0,0.1,0c0.1,0,0.1,0,0.2,0.1c0,0,0.1,0,0.1,0c0.1,0,0.1,0,0.2,0.1
	c0,0,0.1,0,0.1,0c0.1,0,0.1,0.1,0.2,0.1c0,0,0.1,0,0.1,0.1c0.1,0,0.1,0.1,0.2,0.1c0,0,0.1,0,0.1,0.1c0.1,0,0.1,0.1,0.2,0.1
	c0,0,0,0,0.1,0c0.1,0.1,0.1,0.1,0.2,0.2l0,0c0.1,0.1,0.2,0.2,0.2,0.3l30,40.4v-38.8c0-1.6,1.3-2.9,2.9-2.9h10.5
	c1.6,0,2.9,1.3,2.9,2.9V166.9z M253,112c0,1.6-1.3,2.9-2.9,2.9h-28.6v11H250c1.6,0,2.9,1.3,2.9,2.9v10.5c0,1.6-1.3,2.9-2.9,2.9
	h-28.6v11H250c1.6,0,2.9,1.3,2.9,2.9v10.5c0,1.6-1.3,2.9-2.9,2.9h-42h0c-0.8,0-1.5-0.3-2-0.8c0,0,0,0,0,0c0,0,0,0,0,0
	c-0.5-0.5-0.8-1.2-0.8-2v0v-65.3v0c0-0.8,0.3-1.5,0.8-2c0,0,0,0,0-0.1c0,0,0,0,0,0c0.5-0.5,1.2-0.8,2-0.8h0h42
	c1.6,0,2.9,1.3,2.9,2.9V112z"/>
</svg>
