<?xml version="1.0" encoding="UTF-8"?>
<svg id="_레이어_1" data-name="레이어 1" xmlns="http://www.w3.org/2000/svg" version="1.1" viewBox="0 0 34.1 40">
  <defs>
    <style>
      .cls-1 {
        fill: #fff;
        stroke-width: 0px;
      }
    </style>
  </defs>
  <g id="_レイヤー_2" data-name="レイヤー 2">
    <g id="line">
      <path class="cls-1" d="M10.3,25.8h-3.1c-4,0-7.2,3.1-7.3,7.1,0,3.9,3.2,7.1,7.1,7.1,4,0,7.1-3.3,7.1-7.3V15.1l16.2-2.9v10.6h-3.1c-4,0-7.2,3.1-7.3,7.1,0,3.9,3.2,7.1,7.1,7.1,4,0,7.1-3.3,7.1-7.3V8.7c0-.5-.4-1-1-1,0,0-.1,0-.2,0l-21.6,3.9c-.6.1-1,.6-1,1.3v12.9ZM27.1,33.1c-1.8,0-3.3-1.4-3.3-3.2,0-1.8,1.4-3.3,3.2-3.3,0,0,0,0,0,0h3.3v3.3c0,1.8-1.5,3.3-3.3,3.3h0ZM7.1,36.2c-1.8,0-3.3-1.5-3.2-3.3,0-1.8,1.5-3.2,3.2-3.2h3.3v3.3c0,1.8-1.5,3.3-3.3,3.3Z"/>
      <path class="cls-1" d="M10.3,5.2v1.6c0,.5.4,1,1,1,0,0,.1,0,.2,0l21.6-3.9c.6-.1,1-.6,1-1.3V1c0-.5-.4-1-1-1,0,0-.1,0-.2,0L11.4,4c-.6.1-1,.6-1,1.3Z"/>
    </g>
  </g>
</svg>