<?xml version="1.0" encoding="utf-8"?>
<!-- Generator: Adobe Illustrator 28.1.0, SVG Export Plug-In . SVG Version: 6.00 Build 0)  -->
<svg version="1.1" id="레이어_1" xmlns="http://www.w3.org/2000/svg" xmlns:xlink="http://www.w3.org/1999/xlink" x="0px"
	 y="0px" viewBox="0 0 250 250" style="enable-background:new 0 0 250 250;" xml:space="preserve">
<style type="text/css">
	.st0{fill-rule:evenodd;clip-rule:evenodd;fill:#FFFFFF;}
</style>
<g>
	<path class="st0" d="M31.2,0.4C14.4,0,0.4,13.3,0,30.1c0,0.5,0,0.9,0,1.4c0.4,16.8,14.4,30.2,31.2,29.8C48,60.9,61.4,47,61,30.1
		C60.6,13.8,47.5,0.7,31.2,0.4z"/>
	<rect x="6.1" y="87" class="st0" width="48.8" height="162.6"/>
	<path class="st0" d="M187.2,85c-25.6,0-46.3,12.8-53.3,25.5h-0.5V87h-46v162.6h48.8v-78.1c0-27.3,11.7-43.9,36.2-43.9
		c20.2,0,28.8,19,28.8,40.6v81.4H250v-90.2C250,111.1,236.3,85,187.2,85z"/>
</g>
</svg>
