<?xml version="1.0" encoding="utf-8"?>
<!-- Generator: Adobe Illustrator 28.2.0, SVG Export Plug-In . SVG Version: 6.00 Build 0)  -->
<svg version="1.1" id="레이어_1" xmlns="http://www.w3.org/2000/svg" xmlns:xlink="http://www.w3.org/1999/xlink" x="0px"
	 y="0px" viewBox="0 0 1436.6 1698" style="enable-background:new 0 0 1436.6 1698;" xml:space="preserve">
<style type="text/css">
	.st0{fill:#FFFFFF;}
</style>
<path class="st0" d="M1003,1205.7c-5.5,2.8-9.3,8.1-12.3,13.4c-35,60.9,1.3,136.4,2.1,206.6c0.4,37.3-9.5,74-10,111.2
	c-0.4,37.3,11.6,78.4,43.6,97.4c28,16.6,64.4,11.8,93.8-2.3c29.4-14.1,54-36.3,80.4-55.4c39.9-28.9,84.8-51,132-65.1
	c27-8,56.8-14.8,74.4-36.7c17.5-22,9.1-64.4-19-65.5c-36.1-1.5-70.8-23-88.2-54.7c-17.4-31.7-16.9-72.4,1.3-103.7
	c7.5,64.9,51.7,124.3,111.8,150.1c33.1,14.2,29,66.3,2.9,91.2c-26.1,24.8-63.6,32.4-96.5,47.3c-45.7,20.6-82.9,55.8-121.6,87.7
	c-38.6,31.9-81.6,62.1-131.2,69.4c-49.6,7.4-106.9-14.8-124.8-61.7c-7.4-19.4-32.8-23.1-53.6-23.6c-66.7-1.5-133.3-1.6-200-0.3
	c-55.2,1.1-113.7,4.3-159.2,35.5c-18.5,12.7-34.3,29.7-54.7,39.1c-43.7,20.2-94.4,0.1-139.3-17.3c-79.8-30.9-162.7-53.7-247.1-68
	c-34.3-5.8-75.6-15.6-85.7-48.9c-9.4-30.9,15-61.3,19.4-93.3c4.3-31.8-11.6-62.8-14.5-94.8c-3-31.9,18.6-72,50.2-65.9
	c54.6,10.5,113.9-30.1,123.9-84.8c22.9,46.1-18.2,109.7-69.7,107.6c-26.5-1-59.2-13.8-75.5,7.1c-16,20.6,3.4,48.7,14.5,72.2
	c18.4,39.3,10.8,89.3-18.5,121.2c-8.4,9.1-4.8,24.6,4.2,33.1c9,8.4,21.6,11.6,33.6,14.4c102.4,24.4,204.8,48.7,307.2,73.1
	c16.4,3.9,33,7.8,49.9,7.3c44.9-1.2,86.3-37.8,93.1-82.3c7.1-47.4-20.8-92.1-47.5-131.9c-40.8-60.7-81.6-121.5-122.4-182.2
	c-17.3-25.8-35.4-52.4-61.3-69.6c-26-17.2-62.1-22.9-87.8-5.4c-16.4-55.2,7-113.5,30-166.3c58.7-134.6,119-271.8,217.6-380.5
	c35.2-38.9,34.4-97.4,31.5-149.7c-3.3-59.1-6.5-118.1-9.8-177.2c-3.9-69.9-6.5-145,31-204.1c24-37.8,62.4-64.9,104.1-81
	C682-11.3,771.8-4.8,843.4,35.7c71.6,40.4,123.6,114,137.7,195c8,45.7,4.4,92.6,7.2,138.9c5,84.7,31.3,168,75.9,240.2
	c30.4,49,68.7,92.6,101.8,139.8c53.9,77.1,93.6,164.1,116.5,255.4c9.4,37.6,16.1,76.5,11.7,115c-8.2,73.6-59.6,140.8-128.4,168.1
	c-38.1,15.1-90.2,13.9-110.2-21.9c-7.4-13.2-8.9-29-15.8-42.6C1032.9,1210.1,1016.5,1198.8,1003,1205.7 M1124.3,1020.5
	c0.9,20.7,0.4,42.1-7.8,61.2c-8.1,19.1-25.5,35.4-46.2,36.9c-20.7,1.6-42.4-16-40.6-36.7c8.6-101.3-15.9-205.3-69-292.1
	c-30.4-49.8-36-111.7-65.6-162c-19.5-33-50.1-64.7-45.7-102.8c2-17,11.1-32.5,13.8-49.4c2.7-16.8-4.5-38-21.4-40.9
	c-35.7-6.1-74-16.3-95.9-45.1c-21.9-28.9-13.5-80.9,21.9-88.6c22.7-4.9,46.5,11.3,55,33c8.5,21.6,4,46.6-6.6,67.3
	c9.3,14.5,33.8,9.6,43.1-4.9s7.7-33.2,5.2-50.2c-5.2-34.8-15.1-72.5-44-92.5c-26.7-18.6-65.6-15.8-91,4.6s-36.6,56-29.9,87.8
	c1.7,8,4,17.5-1.8,23.2c-3.5,3.5-8.8,4.2-13.7,4.7c-12.8,1.3-26,2.5-38.1-1.6c-12.2-4-23-15-22.7-27.8c0.7-22.9-1.3-47-13.5-66.4
	c-12.1-19.4-37-32.5-58.6-24.6c-19.4,7.1-30.1,28-34.7,48.2c-8.7,38.7-1.2,80.7,20.5,113.9c9.8-0.9,18.6-8.9,20.5-18.6
	c-17.7-11.2-31.3-30.5-31.1-51.4s17.1-41.6,38-42c25.6-0.4,43.8,29.4,39.3,54.7c-4.6,25.2-25.1,44.7-47,57.9
	c-10.6,6.4-22.2,12-29.7,21.8c-17.9,23.2-4.4,58.8,18.7,76.9c52.1,40.8,127.4,19.3,189.3-4c21.2-7.9,42.5-15.9,63.7-23.9
	c12.8-4.8,26.1-9.7,39.7-8.7c-77.6,54.5-172.6,83.8-267.5,82.5c10.5,23,36.4,36,61.7,37.5c25.2,1.4,49.9-6.8,73.4-16.2
	c35.8-14.4,70.3-31.9,103-52.4c5-3.1,11.5,3.8,10.4,9.7c-1.2,5.8-6.5,9.8-11.5,13.2c-39.7,27.2-79.5,54.5-119.2,81.7
	c-23.6,16.1-51.4,33-78.8,24.9c-39.6-11.8-48.2-65.6-81.2-90.5c-16.3,35.9-32.5,71.9-48.8,107.8c-10.8,23.8-21.8,48.8-20.7,75
	c0.6,13.3,4.4,26.7,2.1,39.8c-2.3,13.8-11,25.5-19,37c-60.5,87.9-89,197.2-79,303.4c1,10.4-12.5,17.3-22.3,13.9
	c-9.9-3.4-16.1-13-20.9-22.3c-22.7-44.2-29.4-96.4-18.6-145c-39.9,65.6-6.4,153.4,46.9,208.7c53.2,55.3,123.5,91.7,177.5,146.2
	c9.7,9.8,19,20.4,24.1,33.2c13.7,34.2-12,77.9-48.6,82.5c36.9,45.3,76.2,101.6,58.7,157.3c29.5-35.6,20.1-96.2-18.7-121.3
	c16.1-12.4,38.8-1.1,57.1,7.8c97.2,47.7,220.9,15.4,298.8-59.7c12.2-11.9,24-24.9,39.6-31.9c10.5,43.7,6,90.9-12.6,131.8
	c-5.2,11.5-11.6,23.5-10,36s16.2,23.8,26.7,16.8c7.9-112.3,15.7-224.7,23.5-337.1c1.2-16.6,2.6-34,11.6-47.9
	c9.1-14,28.5-22.8,42.9-14.4c3.5-32.7,35.6-56.7,68.2-60.8c32.7-4.2,65.2,7.3,95.1,20.8c-12.7-18.8-31.3-33.6-52.5-41.6
	c35.8-132.3-12.9-283.7-119.3-370.1C1078.7,813.8,1119.4,916.1,1124.3,1020.5 M917,524.9c2.1,4.1,4.2,8.3,6.3,12.4
	c2.7,5.4,5.5,10.8,9.2,15.5c5,6.3,11.7,11.2,19.2,14.2c5.4,2,7.9,9.5,13.7,10c4,0.3,7.4-3.2,9.1-6.8c1.8-3.7,2.7-7.8,5.2-11
	c3.7-4.6,3.2-12-1-16.1c-1.8-1.7-4-2.9-6.1-4c-5-2.5-9.9-5-14.9-7.5c-3.5-1.8-7.1-3.6-10.9-4.8c-2.1-0.6-3.8-2.3-5.4-3.9l-15.7-16
	c-1.5-1.5-4.2-0.5-5.7,1C915.5,512.1,914.2,519.4,917,524.9 M838.6,103.4c-2-0.5-4.5-0.2-5.8-1.8c-3.2-4.1-9.3-5.6-14.2-3.8
	c-4.9,1.8-8.4,6.6-9.1,11.8c-1,7.1,2.6,15.5-2.3,20.7c-1.6,1.8-4.3,3.5-3.5,5.8c1.2,3.7-4.2,6-5.4,9.7c-1.4,3.9,2.9,8,7.1,7.9
	c4.2,0,7.8-2.8,10.9-5.6c3.1-2.8,6.3-5.9,10.4-7c1.4-0.3,3.1-0.5,4.1-1.6c2.5-3,6.8-3.7,10.7-3.6c3.9,0.2,7.8,1,11.6,0.3
	c4.1-0.7,7.9-3.3,10.1-6.8c1-1.6-0.5-3.8-1.9-5.2c-5.6-5.5-11.2-11.1-16.8-16.7C842.8,105.8,840.9,104,838.6,103.4 M357.3,830.2
	c-1.9,5.8-10.1,8-11.3,14c-0.5,2.6-0.3,6.3-2.9,6.5c-1.9,0.2-2.8,3-1.6,4.6c1.2,1.5,3.5,1.8,5.3,1.1c1.9-0.7,3.3-2.1,4.7-3.4
	c4.9-4.9,9.8-9.7,14.7-14.5c0.8-0.9,1.8-2,1.5-3.2c-0.9-3.1,0-6.5,1.5-9.5c1.4-2.9,3.3-5.6,4.2-8.8c1-3.1,1-6.8-1.1-9.3
	c-2.2-2.4-6.7-2.7-8.4,0.1c-1.7,2.8-0.3,7.4-3.2,8.8C356.3,818.8,358.7,825.5,357.3,830.2 M565.1,321.2c-2,2.4-1.7,6.2,0,8.9
	c1.6,2.7,4.3,4.6,6.9,6.4c3.9,2.8,2.3,8.8,2.3,13.6c0,6.5,4.3,12.7,10.3,15.1c0.7-2.4,1.2-4.9,1.4-7.4c0.9-9.8-1.4-19.8-6.5-28.3
	C576.4,324.4,570.8,319.3,565.1,321.2 M797.8,317.8c-4.7-2.7-10.3-3.7-15.5-2.3c-1.1,0.8-1,2.6-0.1,3.8c0.8,1.1,2.1,1.7,3.3,2.5
	c6.3,3.8,10.2,10.6,13.7,17.2c0.8,1.4,1.6,2.8,2.4,4.3c1.6,2.9,3.3,6.4,1.9,9.5c3.3,1.1,6.5-1.8,8.7-4.4c0.6-0.7,1.3-1.4,1.4-2.4
	c0.2-2.1-2.5-3.4-3.6-5.2c-0.9-1.5-0.9-3.3-1-5C808.5,328.5,804.2,321.5,797.8,317.8"/>
<path class="st0" d="M699.2,404.1c-1.2-0.5-1.3-2.2-2.1-3.3c-1.4-2-4.4-1.5-6.8-1.4c-5.4,0.3-10.9-2.6-13.8-7.2
	c-0.5-0.8-0.9-1.8-0.7-2.7c0.5-1.5,2.3-1.9,3.8-2.1c5.3-0.6,10.8-1.2,16.1-0.2c5.3,0.9,10.6,3.8,13.1,8.6c-2,2.3-4,4.5-6,6.7
	C701.8,403.6,700.5,404.7,699.2,404.1 M597.7,407.8c-4.6-2.6-7.2-8.4-5.9-13.6c4,0.1,8.1-1.6,10.9-4.5c2.8-3,7.5-2.9,11.7-2.7
	c2.8,0.2,6.7,2.1,5.4,4.6c-1.1,2-4.1,1.1-6.3,1.6c-3.7,0.7-5.2,4.9-6.3,8.4c-1.2,3.5-3.7,7.6-7.3,7.1
	C599.1,408.5,598.4,408.2,597.7,407.8"/>
</svg>
