<?xml version="1.0" encoding="UTF-8"?>
<svg id="_레이어_1" data-name="레이어 1" xmlns="http://www.w3.org/2000/svg" viewBox="0 0 158.586 158.882">
  <defs>
    <style>
      .cls-1 {
        fill: #fbfcfc;
        stroke-width: 0px;
      }
    </style>
  </defs>
  <path class="cls-1" d="M19.069,158.664c2.725-6.674,1.676-13.072,1.977-19.343.131-2.727-2.087-2.453-3.836-2.807-8.425-1.705-8.668-1.777-6.725-10.133,1.607-6.911,2.302-13.486-2.069-19.691-.85-1.206-.066-2.564.172-3.853,1.807-9.813,4.805-19.323,7.399-28.933.722-2.673.563-4.2-2.434-5.168-5.047-1.631-8.279-5.997-12.463-8.951-1.352-.955-1.077-2.332-1.05-3.624C.376,39.86.716,23.558,1.103,7.256,1.174,4.294,7.138-.053,12.051,0c16.47.181,32.935.75,49.404,1.043,3.385.06,3.126,2.429,3.235,4.453.489,9.137.917,18.279,1.229,27.424.385,11.307.438,22.63,1.041,33.924.219,4.102-1.159,5.262-4.943,4.962-2.135-.169-4.318.371-6.471.311-4.266-.12-4.968,2.186-4.403,5.765,1.089,6.893,2.132,13.796,3.025,20.717.726,5.621.096,11.132-.727,16.782-.771,5.292.572,10.894,1.008,16.357.217,2.714.748,5.472-3.424,5.637-2.32.092-2.219,2.094-2.23,3.752-.033,4.825-.292,9.673.072,14.47.296,3.893-2.209,2.869-4.131,2.869-1.955,0-4.482.941-4.256-2.875.255-4.306-.473-8.692,0-12.957.684-6.17-3.614-4.911-6.96-5.311-4.423-.529-4.767,2.218-4.711,5.587.058,3.489-.499,7.003-.258,10.469.303,4.346-1.23,6.117-5.605,5.316-1.12-.205-2.309-.031-3.879-.031ZM59.425,48.34c-.009-4.071-2.982-7.493-6.5-7.482-3.478.011-6.537,3.523-6.538,7.506,0,4.039,2.981,7.403,6.561,7.402,3.618-.001,6.485-3.289,6.477-7.426ZM32.027,47.596c.036-3.974-2.878-7.459-6.358-7.604-3.656-.152-6.81,3.438-6.746,7.679.063,4.161,2.867,7.244,6.571,7.223,3.665-.021,6.497-3.184,6.534-7.298Z"/>
  <path class="cls-1" d="M124.963,148.853c0-1.165-.005-2.33,0-3.494.026-5.23-2.841-7.456-8-6.353-2.066.441-1.939,1.913-2.001,3.414-.171,4.156-.329,8.312-.553,12.465-.278,5.137-4.213,2.489-6.436,2.674-3.428.284-1.175-2.269-1.033-3.412,2.162-17.376,2.487-14.617-11.855-19.348-3.031-1-4.78-1.623-2.334-5.043,7.672-10.728,6.132-23.877,9.336-35.772,2.81-10.431.125-17.612-8.551-23.698-4.836-3.392-9.07-7.778-12.469-12.828-1.568-2.33-2.029-4.262-.333-6.721,1.975-2.865,3.397-6.125,5.479-8.898,8.881-11.837,17.304-23.96,24.867-36.7,3.834-6.46,4.034-6.156,9.325-1.191,14.292,13.412,24.861,29.84,36.887,45.091,1.82,2.309,1.677,4.037-.161,6.06-6.258,6.886-12.314,13.964-18.765,20.663-4.543,4.719-6.767,9.518-5.595,16.433,2.394,14.124.405,28.593,2.549,42.793.121.803.294,2.015-.137,2.421-4.937,4.643-2.372,10.588-2.753,15.951-.211,2.966-.557,4.348-4.101,4.347-3.704-.001-3.517-1.919-3.413-4.36.064-1.495.012-2.995.012-4.492.012,0,.024,0,.035,0ZM119.453,81.999c1.679-.121,2.425-1.329,3.273-2.297,4.926-5.626,9.683-11.405,14.755-16.894,2.466-2.669,1.541-4.135-.925-5.807-5.495-3.726-11.002-7.444-16.347-11.379-2.237-1.646-3.765-1.334-5.514.55-4.522,4.87-9.051,9.739-13.727,14.459-2.094,2.114-1.226,3.676.214,5.553,4.624,6.027,10.818,10.265,16.706,14.854.512.399,1.112.686,1.566.96Z"/>
  <path class="cls-1" d="M133.336,61.288c-3.919,4.44-7.644,8.633-11.334,12.857-1.231,1.408-2.38,1.961-4.241.813-3.959-2.441-7.767-4.98-10.879-8.529-1.847-2.107-2.344-3.891-.043-5.871.125-.107.229-.239.338-.363q9.207-10.414,20.509-2.745c1.764,1.197,3.526,2.395,5.65,3.838Z"/>
</svg>