<?xml version="1.0" encoding="UTF-8"?>
<svg id="_레이어_1" data-name="레이어 1" xmlns="http://www.w3.org/2000/svg" viewBox="0 0 600.573 369.711">
  <defs>
    <style>
      .cls-1 {
        fill: #fff;
        stroke-width: 0px;
      }
    </style>
  </defs>
  <g id="layer101">
    <path class="cls-1" d="M281.158,368.443c-.3-.8,0-3.1.6-5.3.6-2.1,1.4-9.8,1.7-17l.6-13.3-6.4-2.9c-3.5-1.5-10.2-3.8-14.9-5.1-7.3-1.9-11.5-3.4-12.8-4.6-.2-.1,1.8-4.2,4.4-9.1,8.8-16.1,10.5-20.2,11.5-28.1,2.5-19.2,5-35.9,7.5-49.8,1.5-8.3,2.4-16.2,2.1-17.5-.4-1.4-5.7-7-12.4-12.9-20.7-18.5-28-25.9-32.9-33.1l-4.8-7,2.8-5.5c4.6-8.8,13.5-21.9,24.7-36.4,12.7-16.6,20.7-28.2,28.7-42,7.8-13.3,16.2-24.5,18.4-24.5,2.4,0,33.4,30,38.8,37.5,7.1,10,21.6,28.6,30.6,39.5,8.9,10.8,19.3,25.3,19.4,27.1,0,1.9-10.5,15.3-15.5,19.7-5.4,4.8-28.1,29.6-34.3,37.5-3.8,4.9-4.2,5.9-4.2,11,0,3.2.7,10.2,1.5,15.7s1.5,16.5,1.5,24.5c.1,13.8,1.1,34.5,2.6,54.7q.7,9.2-1.8,10.2c-1.4.5-2.8,1.7-3.2,2.6-.3.9-.6,9.1-.6,18.1v16.4h-16v-17.5c0-20.1,1.1-18.2-11.5-18.7l-7-.3-.8,15.5c-.4,8.5-1.1,16.9-1.5,18.5q-.8,3-8.5,3.3c-6,.2-7.9,0-8.3-1.2ZM312.058,215.643c1.3-1.3,7.1-7.7,12.8-14.2,5.7-6.6,13.2-15.1,16.6-19,3.5-3.9,6.2-7.8,6-8.6-.1-.8-9.8-8.1-21.6-16.2-16.8-11.6-21.7-14.5-23.1-13.8-2.1,1.1-31.6,31.5-33.7,34.7-1.5,2.2-1.3,2.6,2.7,7.8,2.3,3,6.1,7.2,8.3,9.5,4.8,4.5,27.5,22,28.8,22,.4,0,1.9-1,3.2-2.2Z"/>
    <path class="cls-1" d="M299.758,201.643c-10.4-6.3-21-16.7-21-20.4,0-2,2.4-5.1,9.8-12.6,5.3-5.5,11-10.9,12.5-12l2.8-2,8.5,5.8c4.6,3.3,11.7,7.9,15.7,10.4,4.2,2.7,7.2,5.3,7.2,6.2,0,2.3-24.5,29.8-26.5,29.8-.3,0-4.4-2.3-9-5.2Z"/>
    <path class="cls-1" d="M212.258,316.443c-25-9.6-68-34.1-104.9-59.6-17.7-12.3-49.3-36.6-68.7-53-15.3-12.9-33.6-29-36.3-31.8-4.5-4.8-7.2-2,37.4-38.9,40.3-33.3,44.5-36.7,60.5-48.8C150.458,46.243,207.058,16.343,249.758,5.443,268.258.743,281.158-.457,307.858.143c27.5.5,35.8,1.9,58.8,9.6,17.9,6,43.6,17.7,61.4,28,4.9,2.8,9.1,5.1,9.3,5.1,2.5,0,47.3,29.3,67.4,44.1,36.7,27.1,94.3,76.1,95.6,81.5.8,3.2.4,3.6-20.1,21.4-45.2,38.9-83.2,67.2-122,90.6-23.1,13.9-73.5,36.4-82.3,36.7-4,.2-4.8-.2-7.7-3.6-1.8-2.1-3.5-5.2-3.9-6.9-.9-4.3-.7-37.1.2-38.3.4-.6,3.7-3.4,7.4-6.3,8.7-6.9,21.3-20.4,27.2-29.2,8.6-12.8,16.1-32.4,19.2-50.3,2.5-14.3,1.5-36.8-2.4-51.2-9.4-34.6-25.8-58.8-50.9-75.2-23.8-15.5-47.4-21.3-73.5-17.9-19.6,2.5-35,8.4-51.5,19.8-49.9,34.4-66.7,108.4-37.2,163.6,7.1,13.5,13.8,22,28,36l12.4,12.1-.3,9.6c-.5,14.8-4.1,26.6-11.4,37.3-3.7,5.4-5,5.3-19.3-.2Z"/>
  </g>
</svg>