<?xml version="1.0" encoding="utf-8"?>
<!-- Generator: Adobe Illustrator 28.3.0, SVG Export Plug-In . SVG Version: 6.00 Build 0)  -->
<svg version="1.1" id="레이어_1" xmlns="http://www.w3.org/2000/svg" xmlns:xlink="http://www.w3.org/1999/xlink" x="0px"
	 y="0px" viewBox="0 0 21.3 28" style="enable-background:new 0 0 21.3 28;" xml:space="preserve">
<path d="M2.7,28c-0.7,0-1.4-0.3-1.9-0.8S0,26.1,0,25.3V12c0-0.7,0.3-1.4,0.8-1.9c0.5-0.5,1.2-0.8,1.9-0.8H4V6.7C4,4.8,4.7,3.3,6,2
	S8.8,0,10.7,0c1.8,0,3.4,0.7,4.7,2s2,2.9,1.9,4.7v2.7h1.3c0.7,0,1.4,0.3,1.9,0.8c0.5,0.5,0.8,1.2,0.8,1.9v13.3
	c0,0.7-0.3,1.4-0.8,1.9C20,27.7,19.4,28,18.7,28H2.7z M10.7,21.3c0.7,0,1.4-0.3,1.9-0.8c0.5-0.5,0.8-1.1,0.8-1.9
	c0-0.7-0.3-1.4-0.8-1.9C12,16.3,11.4,16,10.7,16c-0.7,0-1.4,0.3-1.9,0.8C8.3,17.3,8,17.9,8,18.7c0,0.7,0.3,1.4,0.8,1.9
	S9.9,21.3,10.7,21.3 M6.7,9.3h8V6.7c0-1.1-0.4-2.1-1.2-2.8c-0.8-0.8-1.7-1.2-2.8-1.2S8.6,3.1,7.8,3.8S6.7,5.6,6.7,6.7V9.3z"/>
</svg>
