<?xml version="1.0" encoding="utf-8"?>
<!-- Generator: Adobe Illustrator 28.1.0, SVG Export Plug-In . SVG Version: 6.00 Build 0)  -->
<svg version="1.1" id="레이어_1" xmlns="http://www.w3.org/2000/svg" xmlns:xlink="http://www.w3.org/1999/xlink" x="0px"
	 y="0px" viewBox="0 0 330 330" style="enable-background:new 0 0 330 330;" xml:space="preserve">
<style type="text/css">
	.st0{fill:#FFFFFF;}
</style>
<g>
	<path class="st0" d="M0,221.2c0,59.6,33.3,97,86.7,97c53.4,0,86.7-37.5,86.7-97c0-59.6-33.3-97.1-86.7-97.1
		C33.3,124.1,0,161.6,0,221.2z M86.7,145.7c38.5,0,62.6,29.1,62.6,75.5c0,46.2-24.1,75.3-62.6,75.3c-38.5,0-62.6-29.2-62.6-75.3
		C24.1,174.8,48.2,145.7,86.7,145.7z"/>
	<path class="st0" d="M264.7,31c9.1,0,14.7,5.2,16.2,11.8h13.3c-1.8-13.3-12.1-23.3-29.4-23.3c-20-0.2-32.3,13.4-32.3,35.2
		c0,22.3,12.3,35.9,32.3,35.9c17,0,27.6-9.5,29.4-23.1h-13.3c-1.8,7.4-7.6,11.5-16.2,11.5c-11.3,0-18.3-9.2-18.3-24.2
		C246.4,39.9,253.4,31,264.7,31z"/>
	<path class="st0" d="M47.5,20.8v68.5h13.6v-42c0-8.9,6.3-16,14.6-16c8.1,0,13.3,4.8,13.3,12.6v45.4h13.3V46
		c0-8.2,5.7-14.7,14.6-14.7c8.9,0,13.3,4.5,13.3,14.1v44h13.6V42c0-14.2-8.1-22.6-22-22.6c-9.5,0-17.5,4.8-20.9,12.3h-1.1
		c-3.1-7.4-9.5-12.3-18.9-12.3c-9.2,0-16.2,4.5-19.1,12.3h-1v-11L47.5,20.8z"/>
	<path class="st0" d="M202.4,79.6h1.1v9.7h13.1V42.5c0-14.4-9.7-22.9-27-22.9c-15.7,0-26.7,7.6-28.1,19.1h13.1
		c1.5-5,6.8-7.8,14.4-7.8c9.2,0,14.1,4.2,14.1,11.8v6l-18.6,1.1c-16.3,1-25.5,8.1-25.5,20.5c-0.2,12.3,9.5,20.2,22.8,20.2
		C190.8,90.5,198.2,86.6,202.4,79.6z M172.4,69.4c0-6.1,4.2-9.5,13.7-10.2l16.8-1.1V64c0,8.9-7.6,15.5-17.8,15.5
		C177.7,79.5,172.4,75.9,172.4,69.4z"/>
	<path class="st0" d="M262.1,297.1c-27,0-45.8-12.3-48.5-32.5h-23.4c2.3,32.5,29.6,53.5,70.7,53.5c41.9,0,69.2-21.8,69.2-56.6v0
		c0-26.7-15.5-42.2-54.6-50.7l-20.9-4.5c-25.7-5.7-35.7-15.8-35.7-30.5c0-19.1,18.1-30.5,41.6-30.5c24.6,0,40.7,12.6,42.8,33.3h23.4
		c-1.1-31.8-28.1-54.3-65.6-54.3c-39,0-66.3,21.8-66.3,52.7c0,26.7,16.3,43.8,54,52l20.9,4.5c26,5.7,36.5,16.2,36.5,31.8
		C306.1,283.7,287.5,297.1,262.1,297.1z"/>
</g>
</svg>
