<?xml version="1.0" encoding="utf-8"?>
<!-- Generator: Adobe Illustrator 28.1.0, SVG Export Plug-In . SVG Version: 6.00 Build 0)  -->
<svg version="1.1" id="레이어_1" xmlns="http://www.w3.org/2000/svg" xmlns:xlink="http://www.w3.org/1999/xlink" x="0px"
	 y="0px" viewBox="0 0 175.4 186.9" style="enable-background:new 0 0 175.4 186.9;" xml:space="preserve">
<style type="text/css">
	.st0{fill:#FFFFFF;}
</style>
<path class="st0" d="M174.7,41.4c-2.7-20.1-20.2-35.9-41-39C130.2,1.9,117,0,86.3,0H86C55.3,0,48.7,1.9,45.2,2.4
	C25,5.4,6.6,19.6,2.1,39.9C0,49.9-0.2,61,0.2,71.2c0.6,14.6,0.7,29.2,2,43.7c0.9,9.7,2.5,19.2,4.8,28.7
	c4.2,17.4,21.4,31.9,38.3,37.8c18,6.2,37.4,7.2,56,3c2-0.5,4.1-1,6.1-1.7c4.5-1.4,9.8-3,13.7-5.9c0.1-0.1,0.2-0.2,0.2-0.3v-14.1
	c0-0.1-0.1-0.2-0.2-0.3c-0.1-0.1-0.2-0.1-0.4-0.1c-11.9,2.8-24.1,4.3-36.4,4.2c-21.1,0-26.7-10-28.4-14.2c-1.3-3.6-2.1-7.4-2.5-11.2
	c0-0.2,0.2-0.4,0.4-0.4c0,0,0.1,0,0.1,0c11.7,2.8,23.7,4.3,35.8,4.2c2.9,0,5.8,0,8.7-0.1c12.1-0.3,24.9-1,36.8-3.3
	c0.3-0.1,0.6-0.1,0.8-0.2c18.8-3.6,36.7-14.9,38.5-43.6c0.1-1.1,0.2-11.8,0.2-13C174.9,80.6,176.2,56.3,174.7,41.4z M144.9,113.8
	h-19.8V65.4c0-10.2-4.2-15.4-12.9-15.4C102.7,50,98,56.2,98,68.3v26.5H78.3V68.3c0-12.1-4.8-18.3-14.3-18.3
	c-8.6,0-12.9,5.2-12.9,15.4v48.4H31.4V63.9c0-10.2,2.6-18.3,7.8-24.3c5.4-6,12.4-9.1,21.2-9.1c10.1,0,17.8,3.9,22.9,11.7l4.9,8.3
	l4.9-8.3c5.1-7.8,12.7-11.7,22.8-11.7c8.7,0,15.8,3.1,21.2,9.1c5.2,6,7.8,14.1,7.8,24.3V113.8z"/>
</svg>
