<?xml version="1.0" encoding="utf-8"?>
<!-- Generator: Adobe Illustrator 28.1.0, SVG Export Plug-In . SVG Version: 6.00 Build 0)  -->
<svg version="1.1"
	 id="svg3409" xmlns:cc="http://creativecommons.org/ns#" xmlns:inkscape="http://www.inkscape.org/namespaces/inkscape" xmlns:sodipodi="http://sodipodi.sourceforge.net/DTD/sodipodi-0.dtd" xmlns:svg="http://www.w3.org/2000/svg" xmlns:rdf="http://www.w3.org/1999/02/22-rdf-syntax-ns#" xmlns:dc="http://purl.org/dc/elements/1.1/" inkscape:version="0.92.2 5c3e80d, 2017-08-06"
	 xmlns="http://www.w3.org/2000/svg" xmlns:xlink="http://www.w3.org/1999/xlink" x="0px" y="0px" viewBox="0 0 1000 618"
	 style="enable-background:new 0 0 1000 618;" xml:space="preserve">
<style type="text/css">
	.st0{fill:#FF5F00;}
	.st1{fill:#EB001B;}
	.st2{fill:#F79E1B;}
</style>
<g id="XMLID_328_" transform="translate(-502.86126,-22.613497)">
	<rect id="rect19" x="867.7" y="88.7" class="st0" width="270.4" height="485.8"/>
	<path id="XMLID_330_" inkscape:connector-curvature="0" class="st1" d="M884.8,331.6c0-98.7,46.4-186.3,117.6-242.9
		C950.1,47.5,884,22.6,811.9,22.6c-170.8,0-309,138.2-309,309s138.2,309,309,309c72.1,0,138.2-24.9,190.6-66.1
		C931.2,518.8,884.8,430.3,884.8,331.6z"/>
	<path id="path22" inkscape:connector-curvature="0" class="st2" d="M1502.9,331.6c0,170.8-138.2,309-309,309
		c-72.1,0-138.2-24.9-190.6-66.1c72.1-56.7,117.6-144.2,117.6-242.9s-46.4-186.3-117.6-242.9c52.4-41.2,118.5-66.1,190.6-66.1
		C1364.7,22.6,1502.9,161.7,1502.9,331.6z"/>
</g>
</svg>
