<?xml version="1.0" encoding="UTF-8"?>
<svg id="_레이어_1" data-name="레이어 1" xmlns="http://www.w3.org/2000/svg" version="1.1" viewBox="0 0 44 24.8">
  <defs>
    <style>
      .cls-1 {
        fill: #fff;
        stroke-width: 0px;
      }
    </style>
  </defs>
  <path class="cls-1" d="M24.8,12.5c0,6.9-5.6,12.4-12.5,12.3C5.5,24.8,0,19.2,0,12.3,0,5.5,5.6,0,12.4,0c6.9,0,12.4,5.6,12.4,12.5M38.5,12.5c0,6.5-2.8,11.8-6.2,11.8s-6.2-5.3-6.2-11.8S28.8.7,32.2.7s6.2,5.3,6.2,11.8M44,12.5c0,5.8-1,10.5-2.2,10.5s-2.2-4.7-2.2-10.5,1-10.5,2.2-10.5,2.2,4.7,2.2,10.5"/>
</svg>