<?xml version="1.0" encoding="utf-8"?>
<!-- Generator: Adobe Illustrator 28.1.0, SVG Export Plug-In . SVG Version: 6.00 Build 0)  -->
<svg version="1.1"
	 id="Layer_1" xmlns:sodipodi="http://sodipodi.sourceforge.net/DTD/sodipodi-0.dtd" xmlns:svg="http://www.w3.org/2000/svg" xmlns:inkscape="http://www.inkscape.org/namespaces/inkscape" xmlns:dc="http://purl.org/dc/elements/1.1/" xmlns:cc="http://creativecommons.org/ns#" xmlns:rdf="http://www.w3.org/1999/02/22-rdf-syntax-ns#" sodipodi:docname="01_mega_logo.svg"
	 xmlns="http://www.w3.org/2000/svg" xmlns:xlink="http://www.w3.org/1999/xlink" x="0px" y="0px" viewBox="0 0 361.4 361.4"
	 style="enable-background:new 0 0 361.4 361.4;" xml:space="preserve">
<style type="text/css">
	.st0{fill:#FFFFFF;}
</style>
<path id="path3" inkscape:connector-curvature="0" class="st0" d="M180.7,0C80.9,0,0,80.9,0,180.7s80.9,180.7,180.7,180.7
	s180.7-80.9,180.7-180.7S280.5,0,180.7,0z M274.5,244.6c0,3.1-2.5,5.6-5.6,5.6h-23.6c-3.1,0-5.6-2.5-5.6-5.6v-72.7
	c0-0.6-0.7-0.9-1.2-0.5l-50,50c-4.3,4.3-11.4,4.3-15.7,0l-50-50c-0.4-0.4-1.2-0.1-1.2,0.5v72.7c0,3.1-2.5,5.6-5.6,5.6H92.4
	c-3.1,0-5.6-2.5-5.6-5.6V116.8c0-3.1,2.5-5.6,5.6-5.6h16.2c2.9,0,5.8,1.2,7.9,3.3l62.2,62.2c1.1,1.1,2.8,1.1,3.9,0l62.2-62.2
	c2.1-2.1,4.9-3.3,7.9-3.3h16.2c3.1,0,5.6,2.5,5.6,5.6V244.6z"/>
</svg>
