<?xml version="1.0" encoding="utf-8"?>
<!-- Generator: Adobe Illustrator 28.2.0, SVG Export Plug-In . SVG Version: 6.00 Build 0)  -->
<svg version="1.1" id="Layer_1" xmlns="http://www.w3.org/2000/svg" xmlns:xlink="http://www.w3.org/1999/xlink" x="0px" y="0px"
	 viewBox="0 0 40 40" style="enable-background:new 0 0 40 40;" xml:space="preserve">
<style type="text/css">
	.st0{fill:#FF0211;}
	.st1{fill-rule:evenodd;clip-rule:evenodd;fill:#4DC9FF;}
	.st2{fill:#FFFFFF;}
</style>
<path class="st0" d="M20.2,39.7l15.5-7.7c1.1-0.5,1.8-1.7,1.8-2.9V11c0-1.2-0.7-2.3-1.8-2.9L20.2,0.3c-0.9-0.5-2-0.5-2.9,0L1.8,8.1
	C0.7,8.6,0,9.8,0,11V29c0,1.2,0.7,2.3,1.8,2.9l15.5,7.7C18.2,40.1,19.2,40.1,20.2,39.7z"/>
<circle class="st1" cx="31.6" cy="11.2" r="8.4"/>
<path class="st2" d="M5.1,26.5l-1.6-0.8c0,0,0-3.8,0-4.9c0-1.4,0.8-2.8,2.5-2.7c1.5,0.2,2.7,1.5,3.1,2.4c0.6-0.5,1.1-0.6,1.9-0.5
	c0.8,0.1,4,1.3,4,5.6c0,1.3,0,5.7,0,5.7l-1.8-0.9c0,0,0-5,0-5.4c0-1.6-1-2.9-2.3-3c-0.5-0.1-1,0.4-1,1.3c0,0.9,0,5.5,0,5.5l-1.6-0.8
	c0-4.4,0-4.4,0-5.1c0-2.2-1.4-3-2.1-3c-0.4,0-1,0.2-1,1.3C5.1,22.3,5.1,26.5,5.1,26.5z"/>
</svg>
