<?xml version="1.0" encoding="utf-8"?>
<!-- Generator: Adobe Illustrator 28.1.0, SVG Export Plug-In . SVG Version: 6.00 Build 0)  -->
<svg version="1.1" id="Layer_1" xmlns="http://www.w3.org/2000/svg" xmlns:xlink="http://www.w3.org/1999/xlink" x="0px" y="0px"
	 viewBox="0 0 800 800" style="enable-background:new 0 0 800 800;" xml:space="preserve">
<style type="text/css">
	.st0{fill-rule:evenodd;clip-rule:evenodd;fill:#FFFFFF;}
</style>
<path class="st0" d="M400,0C174.7,0,0,165.1,0,388c0,116.6,47.8,217.4,125.6,287c6.5,5.8,10.5,14,10.7,22.8l2.2,71.2
	c0.7,22.7,24.1,37.5,44.9,28.3l79.4-35c6.7-3,14.3-3.5,21.4-1.6c36.5,10,75.3,15.4,115.8,15.4c225.3,0,400-165.1,400-388
	S625.3,0,400,0z M640.3,298.6L522.7,484.9c-18.7,29.7-58.7,37-86.8,16l-93.5-70.1c-8.6-6.4-20.4-6.4-28.9,0.1l-126.2,95.8
	c-16.8,12.8-38.8-7.3-27.5-25.2l117.5-186.4c18.7-29.7,58.7-37,86.8-16l93.5,70.1c8.6,6.4,20.4,6.4,28.9-0.1l126.2-95.8
	C629.5,260.5,651.5,280.7,640.3,298.6z"/>
</svg>
