<?xml version="1.0" encoding="utf-8"?>
<!-- Generator: Adobe Illustrator 28.1.0, SVG Export Plug-In . SVG Version: 6.00 Build 0)  -->
<svg version="1.1" id="Layer_1" xmlns="http://www.w3.org/2000/svg" xmlns:xlink="http://www.w3.org/1999/xlink" x="0px" y="0px"
	 viewBox="0 0 1000 1000" style="enable-background:new 0 0 1000 1000;" xml:space="preserve">
<style type="text/css">
	.st0{fill:#FFFFFF;}
</style>
<g>
	<path class="st0" d="M500,0C223.9,0,0,223.9,0,500c0,276.1,223.9,500,500,500c276.1,0,500-223.9,500-500C1000,223.9,776.1,0,500,0z
		 M500,895.3C282,895.3,104.6,718,104.6,500c0-218,177.4-395.3,395.4-395.3c218,0,395.3,177.3,395.3,395.3
		C895.3,718,718,895.3,500,895.3z"/>
	<path class="st0" d="M239.4,631.9c-35.4-35.4-67-64.6-90.6-86.1l-3.9-3.5l79.5-79.5l37,29.9c-6.3-46.5,8.2-87.7,43.2-122.7
		c24.8-24.8,55.6-38.4,86.8-38.4c12,0,23.7,2,35.1,5.9c-2.8-21.9-1.6-44.1,3.3-64.4c6.5-25.6,19.8-48.1,40.5-68.8
		c25.9-25.9,57-39.6,89.8-39.6c42.5,0,87.8,22.9,131.2,66.3l167,167l-91,91L612.9,334.5c-24.5-24.5-46.6-36.9-65.7-36.9
		c-11.6,0-22.3,4.8-31.7,14.2c-19.8,19.8-17.5,46.1-8.7,64.1c3.9,8.4,11.7,18.2,17.8,24.2l165.8,165.8l-91,91l-159-159
		c-21.6-21.6-42.6-33-60.7-33c-11.5,0-21.9,4.6-31,13.7c-19.6,19.6-17,46.9-8.1,65.9c4,9.8,11.7,18.1,17.2,23.6L523,733.3l-91,91
		L239.4,631.9z"/>
</g>
</svg>
