<svg xmlns="http://www.w3.org/2000/svg" version="2.0" viewBox="0 0 256 256"><path fill="url(#a)" d="M252 46c0-5.523-4.477-10-10-10H14C8.477 36 4 40.477 4 46v166c0 22.091 17.909 40 40 40h168c22.091 0 40-17.909 40-40V46Z"/><path fill="#F25022" d="M124 92H76v48h48V92Z"/><path fill="#7FBA00" d="M180 92h-48v48h48V92Z"/><path fill="#00A4EF" d="M124 148H76v48h48v-48Z"/><path fill="#FFB900" d="M180 148h-48v48h48v-48Z"/><path fill="url(#b)" d="M115.336 36H20.664A48.322 48.322 0 0 0 20 44c0 26.51 21.49 48 48 48s48-21.49 48-48c0-2.726-.227-5.398-.664-8Z" opacity="0.872629"/><path fill="url(#c)" d="M235.336 36h-94.672a48.268 48.268 0 0 0-.664 8c0 26.51 21.49 48 48 48s48-21.49 48-48c0-2.726-.227-5.398-.664-8Z" opacity="0.872629"/><path fill="url(#d)" d="M60 20c0-8.837 7.163-16 16-16h104c8.837 0 16 7.163 16 16v24a8 8 0 0 1-16 0V20H76v24a8 8 0 1 1-16 0V20Z"/><path fill="url(#e)" d="M180 4H76v16h104V4Z"/><defs><linearGradient id="a" x1="148.256" x2="190.681" y1="66.9537" y2="225.572" gradientUnits="userSpaceOnUse"><stop stop-color="#fff"/><stop offset="0.714703" stop-color="#EBEBEB"/><stop offset="1" stop-color="#DFDFDF"/></linearGradient><linearGradient id="d" x1="187.417" x2="187.417" y1="11.2011" y2="47.502" gradientUnits="userSpaceOnUse"><stop stop-color="#30DAFF"/><stop offset="1" stop-color="#0194D4"/></linearGradient><linearGradient id="e" x1="129.115" x2="129.115" y1="6.53933" y2="18.0768" gradientUnits="userSpaceOnUse"><stop stop-color="#1FB8FD"/><stop offset="1" stop-color="#0591F2"/></linearGradient><radialGradient id="b" cx="0" cy="0" r="1" gradientTransform="rotate(134.891 24.795 36.055) scale(30.7098 32.2922)" gradientUnits="userSpaceOnUse"><stop stop-color="#BFBFBF"/><stop offset="1" stop-color="#fff" stop-opacity="0"/></radialGradient><radialGradient id="c" cx="0" cy="0" r="1" gradientTransform="rotate(134.891 84.795 60.975) scale(30.7098 32.2922)" gradientUnits="userSpaceOnUse"><stop stop-color="#BFBFBF"/><stop offset="1" stop-color="#fff" stop-opacity="0"/></radialGradient></defs></svg>