<?xml version="1.0" encoding="utf-8"?>
<!-- Generator: Adobe Illustrator 28.3.0, SVG Export Plug-In . SVG Version: 6.00 Build 0)  -->
<svg version="1.1" id="레이어_1" xmlns="http://www.w3.org/2000/svg" xmlns:xlink="http://www.w3.org/1999/xlink" x="0px"
	 y="0px" viewBox="0 0 256 256" style="enable-background:new 0 0 256 256;" xml:space="preserve">
<style type="text/css">
	.st0{fill:#FFFFFF;}
</style>
<path class="st0" d="M242,36H14C8.5,36,4,40.5,4,46v166c0,22.1,17.9,40,40,40h168c22.1,0,40-17.9,40-40V46C252,40.5,247.5,36,242,36
	z M124,196H76v-48h48V196z M124,140H76V92h48V140z M180,196h-48v-48h48V196z M180,140h-48V92h48V140z"/>
<path class="st0" d="M60,20c0-8.8,7.2-16,16-16h104c8.8,0,16,7.2,16,16v24c0,4.4-3.6,8-8,8s-8-3.6-8-8V20H76v24c0,4.4-3.6,8-8,8
	s-8-3.6-8-8V20z"/>
</svg>
