<?xml version="1.0" encoding="utf-8"?>
<!-- Generator: Adobe Illustrator 28.0.0, SVG Export Plug-In . SVG Version: 6.00 Build 0)  -->
<svg version="1.1" id="_레이어_1" xmlns="http://www.w3.org/2000/svg" xmlns:xlink="http://www.w3.org/1999/xlink" x="0px"
	 y="0px" viewBox="0 0 800 752" style="enable-background:new 0 0 800 752;" xml:space="preserve">
<style type="text/css">
	.st0{fill:#F9440B;}
	.st1{fill:#FC7C54;}
	.st2{fill:#B73107;}
	.st3{fill:#3E1002;}
</style>
<path class="st0" d="M106,282c-0.5-2.4-1.5-4.7,0-7c0.6-0.3,0.8-0.7,0.7-1.3l0.1,0.3c0,0-0.1-0.3-0.1-0.3c0.8,0.1,1.1-0.3,1.2-1.1
	c0,0-0.1,0.2-0.1,0.2c0.4-0.2,0.9-0.5,1.3-0.7c1.2-1.3,3-1.4,4.5-1.9c4.1-1.1,4.4-2.4,2-5.9c-12-17.7-16.3-36.9-11.5-58.1
	c3.2-14.1,9.6-26.3,19.4-36.6c11.5-12.1,25.5-19.9,41.9-23.6c13.1-3,26.3-3.8,39.5-1.8c10.4,1.6,20.8,3.9,30.2,9.1
	c1.3,0.7,2.5,1.6,3.8,2.3c1.9,1.1,2.8,4.3,5.7,3.2c3.4-1.3,6.1-3.9,7.1-7.3c6-19,16.5-35.3,29.5-50.2c11.5-13.2,24.8-24.1,40.2-32.3
	c19-10.1,38.7-18.1,60.4-20c3.6-0.3,4.5-2.5,5.3-5.5c2.5-10.3,9.1-17.4,18.2-22.5c1.5-0.8,3.1-1,4.8-1.2c7.9-0.8,14.3-4.3,20.3-9.5
	c4.6-3.9,10.7-4.9,16.9-4.6c8,0.4,15.9,0.6,23.4,4c2.1,1,4-0.4,5.3-1.9c3.1-3.4,7-4.9,11.3-5.7C492.4,1,497.7,0.5,503,2
	c2.7,0.7,5.6,1.1,8.1,2.2c15.7,7.1,29.1,17,38.5,31.9c6.7,10.7,12.4,21.7,14.4,34.3c1,8.3,2.2,16.6,1.1,25c-0.3,2,0.4,3.9,1.7,5.6
	c0,0.7-0.1,1.3-0.1,2c-3.4,2.6-0.8,6.2-1.5,9.3c-1.6,7.2-3.8,14.1-8,20.2c-0.5,0.8-2.4,1.2-1.3,2.7c1,1.3,2.2,0.2,3.1-0.2
	c8.2-2.9,16.4-5.1,25-6.4c18.1-2.7,35.4-1.6,52.3,6.1c11.5,5.2,21.9,11.6,30.1,21.2c11.6,13.5,18.1,29.2,18.6,47
	c0.4,14.4-2,28.2-10.5,40.4c-0.8,1.1-1.7,3.2-1.2,4c2.6,4.3,1.7,9.1,2.4,13.6c0.4,2.6,1.8,3.4,4,4.3c5.5,2.1,11.1,4,16.8,5.4
	c4.2,1.1,5.9,3.5,5.7,7.9c-0.3,6,0,12-0.1,18c0,2.4,0.6,4.1,3.1,5c7.4,2.4,13.5,7.5,20.6,10.3c1,0.4,1.2,0.8,1,1.7
	c-0.9,5.3-2.1,10.5-2.4,15.8c-0.2,3.7-2.3,8.7,1.9,11c5.9,3.3,10.7,8.1,16.5,11.5c2,1.1,4,2.9,3.2,5.3c-1.9,5.8-2.2,12-4.6,17.5
	c-1.8,4-0.9,5.7,1.9,8.3c4.3,4.2,9,8,13.8,11.5c3.1,2.3,3.7,4.9,2.1,8.6c-2.6,6-5.5,11.8-7.3,18.2c-0.4,1.2-1.6,2.6-0.3,3.5
	c5.9,4.1,9.5,10.5,15,14.9c3.2,2.6,3.3,5.1,1.3,7.8c-3.7,4.9-5.4,10.8-8.9,15.6c-2.4,3.3-1.4,6.4,0.7,8.8
	c4.2,4.8,7.3,10.4,11.2,15.4c1.4,1.8,1.1,2.8-0.1,5c-2.4,4.1-6.9,7-7.7,12.6c3-0.3,5.7,0.2,7.9,1.4c11.9,6.8,21.9,15.4,25.2,29.6
	c0.4,1.9,1.7,3.2,3.9,3.1v167c-2-0.1-3.1,0.7-3,2.8c0.1,2,0,3.9-0.1,5.9l-0.1,0.3c-1.3,1.1-1,2.6-0.8,4c0,3.2-2.3,5.4-3.9,7.8
	c-6.4,9.3-13.6,17.8-25,21.3c-3.5-0.9-6.8,1-10.3,1c-1.9,0-1.8,1.5-1.8,2.9H36.1c-0.6-2.2-2.1-3.1-4.2-4.1
	c-14.3-6.8-24.5-17.3-29-32.9c-0.6-2.1-0.5-4.6-2.8-6V545c3.4-5.3,3.5-11.8,6.9-17.1c6.8-10.8,15.2-19.3,27.5-23.4
	c1.5-0.5,2.9-1.8,4.5-1.9c6.6-0.5,3.3-3.6,1.6-6c-5-7-5.1-7-0.3-13.9c2.7-3.9,5.5-7.8,8.5-11.5c2-2.6,2-4.9,0.3-7.7
	c-3-5.1-5.9-10.3-8.8-15.5c-1.7-3.1-1.8-5.4,1.5-8.4c4.8-4.5,9-9.6,13.7-14.3c1.8-1.8,1-3.6,0.2-4.9c-3.2-5.6-4.3-12.1-7.2-17.8
	c-1.5-2.9-1.4-4.9,1.6-7.1c5.2-3.8,9.9-8.3,14.9-12.4c2.6-2.2,3.3-4.4,1.7-7.8c-2.7-5.7-2.1-12.4-5.2-18c-1.2-2.1,0.9-3.7,2.6-4.8
	c5.5-3.7,10.9-7.5,16.6-10.9c2.6-1.5,3.7-3.2,3.2-6c-1-6.4-0.9-12.9-2.5-19.2c-0.4-1.5-0.9-3.3,1.5-4.6c7.2-4,14.4-7.8,22.1-10.5
	C108,294.8,107.9,288.5,106,282L106,282z M400.1,729.1c116,0,231.9-0.1,347.9,0.1c16.4,0,29.1-16.9,29-29.2
	c-0.2-49.2-0.1-98.3-0.1-147.5c0-2.2-0.1-4.3-0.8-6.4c-5.2-15.2-15.1-22.2-31.1-22c-2,0-4,0.1-6,0.1c-1.6,0-3.3-0.4-3.6-2
	c-0.7-3.7-2.8-6.8-4.6-9.9c-0.9-1.5-0.6-2.7,0.4-4.1c3.8-5.1,7.4-10.2,11.1-15.3c1.6-2.1,1.9-3.9,0.1-6.3c-3.8-5-7.2-10.4-11-15.4
	c-1.3-1.8-1.3-3.2-0.1-5c3.4-4.9,5-10.9,8.7-15.7c1.5-2,1.7-4.2-0.4-6.3c-4.5-4.6-8.8-9.5-13.3-14.1c-1.5-1.6-2-3.1-0.8-4.9
	c3.3-5.1,4.2-11.2,7-16.5c1.3-2.5,1-4.7-1.9-6.7c-4.9-3.4-9.2-7.6-13.9-11.4c-1.8-1.5-2.3-3-1.5-5.2c2-5.6,2.3-11.7,4.6-17.3
	c1-2.4,0.4-4.3-2.2-5.8c-5.1-3.1-10-6.6-15.1-9.7c-3-1.8-3.8-4-2.7-7.1c1.9-5.3,1.2-10.9,2-16.3c0.5-3-1-4.9-3.9-6.2
	c-5.2-2.2-10.2-5-15.4-7.2c-2.8-1.2-3.5-3.1-3.4-5.9c0.2-5.7,0.1-11.3,0.1-17c0-1.6,0.3-3.3-1.9-4.1c-4.2-1.4-8.2-3.4-12.5-4.5
	c-6.6-1.7-10.8-5-10.6-12.5c0.1-2.9-1.1-5.9-1.4-8.9c-0.8-7.2-1.6-8-8.7-8.3c-0.8,0-1.7,0-2.5-0.1c-1.7-0.2-4.1,0.6-4.6-1.8
	c-0.5-2.2,1.6-3.1,3.1-4.1c2.9-2,5.8-3.9,8-6.7c14.3-18.3,19-38.1,8.2-59.6c-9-18-24.2-28.3-44.1-31.5c-8.6-1.4-17.3-1.1-25.9,0.1
	c-18.6,2.6-33.9,10.3-42.5,28.1c-0.8,1.6-1.4,3.7-3.7,3.5c-4.5-0.4-8.5,1.5-12.7,2.5c-2.2,0.5-3.7,0.3-5.1-1.7
	c-3.3-4.8-6.8-9.5-10.3-14.1c-0.8-1-1.8-2.7-2.7-2.7c-5.3,0-6.9-4.5-9.9-7.4c-3.2-3.2-2.5-5,1.4-6.3c7.3-2.5,13.8-6.6,19.8-11.5
	c12.1-9.8,20.3-22.2,22.8-37.5c2.9-18.4-1.6-35.7-10.8-51.8c-6-10.5-14.5-18.6-25.2-24.3c-3.3-1.8-7-3.2-10.6-4.3
	c-5.8-1.7-11.5,5.5-10.2,12.6c0.4,2.1,1.4,4.6-0.2,6.2c-1.3,1.3-3.2-0.1-4.4-1.2c-9.5-8.5-21.1-11.5-33.4-12.6
	c-8-0.7-12.6,4.9-10.6,12.6c0.3,1.2,1.7,2.6,0.2,3.6c-1.2,0.9-2.6,0.1-3.7-0.7c-5-3.6-10.8-3.2-16.4-3c-7,0.3-10.9,7.7-7.6,13.8
	c1.6,3.1,3.8,5.8,5,9.2c1.1,3.2,0.2,4.8-3.2,5c-1.7,0.1-3.3,0-5,0.1c-15.5,0.8-30.9,2.5-45.7,7.1c-30.2,9.4-55,26.4-72.9,52.8
	c-9.8,14.5-16.8,30.3-20.4,47.4c-0.9,4.3-2.2,6.4-6.6,6c-2.7-0.3-4,0.9-5.3,3.3c-2.4,4.4-5,8.6-7,13.2c-0.4,1.1-0.9,2.3-2.3,2.4
	c-1.5,0.1-1.7-1.3-2.2-2.3c-0.5-1-1.1-2-1.5-3c-3.2-10-9.8-17.1-18.6-22.5c-7.9-4.8-16.7-6.6-25.7-7.3c-18.5-1.4-36.1,0.4-51.5,12.4
	c-30.8,23.8-28.6,65.6,0.5,87.1c1.2,0.9,1.8,1.6,1.4,3.3c-2.1,9.2-7.7,15.4-16.6,18.5c-0.2,0.1-0.3,0.1-0.5,0.2
	c-3.3,0.5-4.3,2.6-4.2,5.7c0.1,5.7,0,11.3,0.1,17c0.1,2.6-0.6,4.3-3.3,5.4c-5.4,2.2-10.5,4.9-15.8,7.3c-2.9,1.3-4.4,3.1-3.7,6.6
	c1,5.2,1,10.6,2.4,15.8c0.8,2.7,0.3,5.1-2.6,6.8c-5.3,3.1-10.4,6.6-15.6,9.8c-2,1.2-3.3,2.8-2.1,4.9c3.1,5.9,2.2,12.8,5.1,18.7
	c1.1,2.2-0.1,3.4-1.6,4.7c-4.4,3.8-8.6,8-13.3,11.2c-3.5,2.4-3.4,4.9-2.1,8c2.1,5.1,4.2,10.1,6.4,15.1c0.8,1.8,1.2,3.4-0.3,5
	c-4.4,4.6-8.4,9.4-13.1,13.7c-2.9,2.7-2.6,4.8-0.8,7.8c3,4.8,5.7,9.8,8.6,14.6c1.3,2.2,0.7,4-0.7,5.9c-3.3,4.6-6.3,9.4-9.8,13.9
	c-2,2.6-2.5,4.7-0.2,7.5c3.5,4.2,6.6,8.8,9.8,13.2c1.1,1.6,2.7,3.7,1.9,5.5c-1.9,4-4.1,8-7,11.2c-2.1,2.3-5.7,0.7-8.6,0.9
	c-3.5,0.2-7,0-10.5,0c-17.1,0.2-27.9,14.3-28.1,28.2c-0.6,49.1-0.4,98.3-0.1,147.5c0.1,14.2,12.7,29.3,29.5,29.3
	C168.5,729,284.3,729.1,400.1,729.1L400.1,729.1z"/>
<path class="st1" d="M767,748c-1,1.3-1.1,2.6-0.1,3.9h-12c0-1.4-0.1-2.9,1.8-2.9C760.2,749,763.5,747.1,767,748z"/>
<path class="st1" d="M799.9,716.9c-1-0.8-2.1-1.5-3.1-2.3c0-2,0.1-3.9,0.1-5.9c-0.1-2.2,1-3,3-2.8V716.9L799.9,716.9z"/>
<path class="st1" d="M502,0.1c0.3,0.6,0.7,1.3,1,1.9c-5.3-1.5-10.5-1.1-15.8,0.2c0.5-0.6,1.2-1.2,0.8-2.1
	C492.6,0.1,497.3,0.1,502,0.1L502,0.1z"/>
<path class="st2" d="M106,282c1.9,6.5,2,12.8-1.2,18.9C106.4,294.7,104.5,288.3,106,282z"/>
<path class="st2" d="M107.8,272.6c0,0.8-0.4,1.2-1.2,1.1C107,273.3,107.4,273,107.8,272.6z"/>
<path class="st2" d="M109,272.1c-0.4,0.2-0.9,0.5-1.3,0.7C108.1,272.5,108.6,272.3,109,272.1z"/>
<path class="st2" d="M106.7,273.7c0.2,0.6-0.1,1.1-0.7,1.3C106.2,274.5,106.5,274.1,106.7,273.7z"/>
<path class="st3" d="M400.1,729.1c-115.8,0-231.6-0.1-347.4,0.1c-16.8,0-29.4-15.1-29.5-29.3c-0.2-49.2-0.4-98.3,0.1-147.5
	c0.2-13.9,11-28,28.1-28.2c3.5,0,7,0.2,10.5,0c2.9-0.2,6.6,1.5,8.6-0.9c2.9-3.3,5.1-7.3,7-11.2c0.8-1.7-0.8-3.9-1.9-5.5
	c-3.2-4.5-6.3-9-9.8-13.2c-2.3-2.8-1.9-4.8,0.2-7.5c3.5-4.5,6.5-9.3,9.8-13.9c1.4-1.9,2-3.7,0.7-5.9c-2.9-4.9-5.6-9.8-8.6-14.6
	c-1.8-2.9-2.2-5.1,0.8-7.8c4.6-4.3,8.7-9.1,13.1-13.7c1.6-1.6,1.1-3.2,0.3-5c-2.2-5-4.3-10.1-6.4-15.1c-1.3-3.2-1.5-5.6,2.1-8
	c4.8-3.3,8.9-7.4,13.3-11.2c1.5-1.2,2.7-2.4,1.6-4.7c-2.9-5.9-2-12.8-5.1-18.7c-1.1-2.1,0.1-3.6,2.1-4.9c5.3-3.2,10.3-6.7,15.6-9.8
	c2.9-1.7,3.4-4.1,2.6-6.8c-1.4-5.2-1.4-10.6-2.4-15.8c-0.7-3.5,0.8-5.3,3.7-6.6c5.3-2.4,10.5-5.1,15.8-7.3c2.7-1.1,3.4-2.8,3.3-5.4
	c-0.1-5.7,0-11.3-0.1-17c-0.1-3.1,0.9-5.2,4.2-5.7c0.2,0,0.3-0.1,0.5-0.2c8.9-3.2,14.4-9.3,16.6-18.5c0.4-1.7-0.3-2.4-1.4-3.3
	c-29.1-21.5-31.3-63.4-0.5-87.1c15.4-11.9,33.1-13.8,51.5-12.4c9,0.7,17.7,2.5,25.7,7.3c8.9,5.4,15.4,12.5,18.6,22.5
	c0.3,1.1,1,2,1.5,3c0.5,1,0.7,2.4,2.2,2.3c1.4,0,1.8-1.3,2.3-2.4c1.9-4.6,4.6-8.8,7-13.2c1.3-2.4,2.6-3.6,5.3-3.3
	c4.3,0.4,5.7-1.7,6.6-6c3.6-17.1,10.5-32.9,20.4-47.4c17.9-26.4,42.7-43.5,72.9-52.8c14.8-4.6,30.2-6.3,45.7-7.1
	c1.7-0.1,3.3,0,5-0.1c3.4-0.2,4.3-1.8,3.2-5c-1.1-3.4-3.3-6.1-5-9.2c-3.2-6.1,0.6-13.6,7.6-13.8c5.6-0.2,11.4-0.6,16.4,3
	c1.1,0.8,2.5,1.6,3.7,0.7c1.4-1.1,0.1-2.4-0.2-3.6c-2-7.7,2.6-13.3,10.6-12.6c12.3,1,23.8,4.1,33.4,12.6c1.2,1.1,3.1,2.5,4.4,1.2
	c1.6-1.6,0.6-4.1,0.2-6.2c-1.3-7.1,4.4-14.4,10.2-12.6c3.6,1.1,7.3,2.5,10.6,4.3c10.7,5.7,19.2,13.9,25.2,24.3
	c9.2,16,13.7,33.4,10.8,51.8c-2.5,15.3-10.7,27.7-22.8,37.5c-6,4.9-12.4,8.9-19.8,11.5c-3.9,1.4-4.6,3.1-1.4,6.3
	c3,2.9,4.6,7.4,9.9,7.4c0.9,0,1.9,1.7,2.7,2.7c3.5,4.7,7,9.3,10.3,14.1c1.4,2,2.9,2.2,5.1,1.7c4.2-1,8.2-2.8,12.7-2.5
	c2.3,0.2,2.9-1.9,3.7-3.5c8.6-17.8,23.9-25.6,42.5-28.1c8.6-1.2,17.2-1.5,25.9-0.1c19.9,3.2,35.1,13.5,44.1,31.5
	c10.7,21.4,6,41.3-8.2,59.6c-2.2,2.8-5.1,4.8-8,6.7c-1.5,1-3.6,1.9-3.1,4.1c0.5,2.4,2.9,1.6,4.6,1.8c0.8,0.1,1.7,0,2.5,0.1
	c7.1,0.3,7.9,1.1,8.7,8.3c0.3,3,1.5,5.9,1.4,8.9c-0.2,7.6,4,10.8,10.6,12.5c4.3,1.1,8.3,3.1,12.5,4.5c2.2,0.8,1.9,2.5,1.9,4.1
	c0,5.7,0.1,11.3-0.1,17c-0.1,2.8,0.6,4.7,3.4,5.9c5.2,2.3,10.2,5,15.4,7.2c2.9,1.2,4.3,3.1,3.9,6.2c-0.8,5.4-0.1,11-2,16.3
	c-1.1,3.1-0.3,5.3,2.7,7.1c5.1,3.1,10,6.6,15.1,9.7c2.5,1.5,3.1,3.4,2.2,5.8c-2.3,5.6-2.6,11.7-4.6,17.3c-0.8,2.2-0.3,3.8,1.5,5.2
	c4.7,3.8,9,8,13.9,11.4c2.9,2,3.2,4.2,1.9,6.7c-2.8,5.3-3.7,11.4-7,16.5c-1.2,1.8-0.7,3.3,0.8,4.9c4.5,4.7,8.8,9.5,13.3,14.1
	c2.1,2.1,1.9,4.3,0.4,6.3c-3.7,4.8-5.3,10.8-8.7,15.7c-1.2,1.7-1.2,3.2,0.1,5c3.8,5.1,7.2,10.4,11,15.4c1.8,2.3,1.5,4.1-0.1,6.3
	c-3.7,5.1-7.4,10.3-11.1,15.3c-1,1.4-1.3,2.5-0.4,4.1c1.9,3.1,3.9,6.2,4.6,9.9c0.3,1.6,2,2.1,3.6,2c2,0,4-0.1,6-0.1
	c16-0.2,25.9,6.8,31.1,22c0.7,2.1,0.8,4.2,0.8,6.4c0,49.2-0.2,98.3,0.1,147.5c0.1,12.3-12.6,29.2-29,29.2
	C632,728.9,516,729.1,400.1,729.1L400.1,729.1z M101.7,413.2c-0.9,7.6-4.6,14.8-3.6,22.8c-1.8,3.3-2.7,6.9-3,10.5
	c-2.3,24.5-2.5,49.1-2.3,73.7c0,2.6,0.7,4,3.6,4c26.6-0.1,53.3-0.1,79.9,0c3.1,0,4.7-1.3,5.2-4.2c2-11.1,4.2-22.3,3.2-33.6
	c-0.8-9.1,0.1-18.3-1.6-27.3c0-0.7,0.2-1.3,0.1-2c-1.4-18.8-1.8-37.6,1.9-56.2c0.4-2.1-0.1-4-1.9-5.3C167,383.2,156.4,366.8,149,348
	c-1.6-7.7-3.2-15.5-4.9-23.2c-0.2-1.2,0.6-3.1-1.3-3.2c-1.3-0.1-2.2,1.3-2.9,2.5c-2.7,4.9-5.4,9.8-8.2,14.7c-0.8,0.8-1.4,1.7-2,2.8
	c-7.5,13.9-13.9,28.2-19.3,43c-0.9,0.6-1.5,1.4-0.9,2.6c-0.1,0.6-0.2,1.2-0.3,1.9c-1.4,1-2.1,2.4-1.7,4.1c-0.3,0.8-0.6,1.7-0.9,2.5
	c-1,0.6-1.7,1.3-0.9,2.5c-1.1,4.1-2.2,8.3-3.3,12.4C101.6,411.2,101,412,101.7,413.2L101.7,413.2z M609.4,378.2
	c-0.1,1.3-0.4,2.7-0.2,4c3,21.6,1.6,43.2,0.2,64.8c-0.3,5-1.7,10.2,0.4,15.2c-0.5,3.1-1.4,6.2-1.6,9.3c-0.6,10.3-0.2,20.6,1.1,30.8
	c0.8,6.2,1.1,12.5,4.1,18.3c1.4,2.7,2.9,3.6,5.7,3.6c28.8-0.1,57.5-0.1,86.3,0c4.1,0,5.6-1.3,5.4-5.5c-0.5-12.3-0.2-24.6-0.6-36.9
	c-0.5-15.8-1.6-31.4-5.3-46.8c0.5-2.3,0.6-4.7-0.1-6.9c-4.8-15.7-7.8-31.8-13.9-47.1c-6.3-15.6-12.7-31-21.7-45.2
	c-1.5-2.8-2.6-5.7-4.4-8.3c-7.6-10.9-15.3-21.7-23-32.6c-1-1.4-2.1-3.7-4-3.3c-1.9,0.5-1.6,3-1.8,4.7c-2.6,22.2-10.3,42.6-23,60.9
	C608.3,364.1,606,370.4,609.4,378.2L609.4,378.2z M749,541.4c-1.6-0.9-3.3-0.6-4.9-0.6c-229.6,0-459.1,0-688.7,0
	c-2.1,0-4.4-0.5-6.3,1c-6.1,2.3-8.3,6.5-8.2,13.1c0.2,48.3,0,96.6-0.1,145c0,5.8,2.9,9.5,8.6,11.3c3.3,1,6.6,0.7,9.9,0.7
	c203.3,0,406.5,0,609.8,0c25.2,0,50.3,0.1,75.5,0.1c10.4,0,14.6-4.3,14.6-14.5c-0.1-46.7-0.2-93.3,0.1-140
	C759.4,549.1,757.3,543.7,749,541.4L749,541.4z M158.1,308.8c-1.1,19.6,3.3,37.6,13.7,53.6c15.7,24.3,38.8,37.5,66.9,42.8
	c9.6,1.8,19.3,1.2,28.9,1c2.5-0.1,4.9-0.1,7.1,1.6c16.8,13.1,30,29.2,39.9,48.1c5.6,10.8,10.1,22.1,12.7,34.1c0.5,2.4,1.3,5,4.6,3.3
	c7.1-3.7,14.9-5.5,22.3-8.4c11-4.3,22.4-7.2,33.8-10.2c12.2-3.2,24.8-4.9,37.3-6.4c2.3-0.3,3.9-1,5.4-2.9
	c15.6-19.4,44.2-18.7,58.9,1.4c2.6,3.6,5.8,5.8,10.1,6.7c10.7,2.2,20.4,7,29.6,12.7c6,3.7,6,3.8,10.1-2.3
	c9.1-13.7,15.8-28.4,20.3-44.2c4.3-15.1,7.6-30.3,5.9-46.2c-0.3-3.1,0.6-5.2,3.1-7.2c26.5-20.7,44.8-47.2,52.8-80
	c3.7-14.9,3.1-30.3,1-45.6c-0.9-6.9-1.1-7.4-8.2-5.6c-12.3,3.1-24.1,1.7-35.4-3.8c-3.7-1.8-4.3,1-4.6,3c-0.7,4.8-2.6,9.1-4.4,13.4
	c-5.9,14.6-15.8,26.1-27.6,36.2c-2,1.7-4,1.9-6.4,0.3c-6-4-12.6-6.6-19.7-8.2c-10.3-2.4-10.3-2.6-16,6.2
	c-10.6,16.2-23.3,30.1-40.7,39.3c-1.1,0.6-3,1.4-2.4,3.3c0.4,1.2,1.9,1.2,3.1,1.2c9.1-0.6,16.1,4.4,23.5,8.4
	c2.7,1.4,2.4,3.3,0.9,5.3c-5.1,6.6-6,6.8-13.3,2.5c-0.8-0.5-1.8-0.8-2.7-1.2c-17.9-8.3-42.4,0.7-49.2,23.9
	c-6.1,20.7,7.8,39.4,25.6,44.4c10.2,2.8,20.9,1.7,29.9-5.4c1.2-1,2.7-2,4-0.9c2.3,2.1,4.5,4.4,6.4,6.8c1.2,1.5,0.9,3.1-1,4.2
	c-1.5,0.8-2.8,1.7-4.3,2.5c-17,9.2-34.2,10-50.8-0.2c-16-9.8-24-24.7-23.9-43.4c0.1-11.7,4.3-22.1,12.4-30.8c0.9-1,2.9-2,2-3.6
	c-0.9-1.5-2.7-0.3-4.1-0.3c-0.5,0-1,0.2-1.5,0.3c-21,4.4-41.6,1.7-61.3-5.5c-24.2-8.8-44.1-23.8-58.7-45.4c-1.3-1.9-2.4-2.2-4.5-1.6
	c-7.9,2.4-15.6,5.7-21.4,11.4c-5,4.9-8.9,4.4-14.4,1.7c-19.7-9.5-34.1-24-42.4-44.3c-2.7-6.6-2.4-6.9-9.2-4.7
	c-10.5,3.5-20.8,4.1-31.3,0.2c-1.2-0.5-2.6-0.6-3.9-0.9c-2.4-0.5-3.5,0.3-4.1,2.8C159.8,284.4,157.1,296.6,158.1,308.8L158.1,308.8z
	 M389,151.3c-16.4-0.7-32.2,2.4-47.2,8.8c-22.6,9.7-40.1,25.6-51.6,47.4c-6.2,11.8-12.7,23.8-11.2,38.1c1.8,16.9,6.5,32.8,14.9,47.6
	c16.2,28.6,40.7,46.9,71.9,55.5c21.5,5.9,43.3,5.3,64.8-2.1c14-4.8,26.8-11.2,38.2-20.6c20.5-16.7,33.9-38.1,39.8-63.6
	c4.7-20.1,4.3-40.4-2.2-60.6c-4.5-14-10.7-26.7-19.7-38.3c-4.9-6.2-10-9.5-18.7-8.8c-18.4,1.4-37,1.5-55.3-1.7
	C404.9,151.7,397,151,389,151.3L389,151.3z M258,524.3L258,524.3c19,0,38,0,57,0c6.3,0,6.4,0,5.4-6c-0.8-4.7-1.9-9.4-3-14.2
	c-0.5-2-0.9-4,1.2-5.4c2.7-1.7,2.5-3.9,1.4-6.5c-0.8-2-1.5-4.1-2-6.2c-7.3-27.6-22.2-50.2-43.8-68.8c-3.2-2.7-6.1-3.7-10.2-3.5
	c-16.5,0.6-32.8-0.2-48.5-6.7c-4.2-1.7-8-4.1-12.2-5.6c-2.2-0.8-3.8-0.9-4.2,2.1c-2.2,15.6-3,31.2-1.7,46.8
	c1.3,16.8,2.3,33.6,1.6,50.4c-0.2,5.8-0.8,11.5-3.3,16.9c-1.9,4.1-0.1,6.5,4.4,6.5C219.4,524.3,238.7,524.3,258,524.3L258,524.3z
	 M234.2,216.8c0.9-20.9-8.3-28.8-21-33.5c-17.5-6.4-35.4-5.8-52.1,3.6c-20.7,11.7-29.1,36.5-13.9,58.6c6.2,9,14.9,13.9,25.7,17.2
	c10.7,3.3,20.6,2.7,30.2-0.9C219.5,255.5,235.4,239.1,234.2,216.8L234.2,216.8z M553.7,200.7c-0.2,16.6,7.1,29.5,20.4,39
	c12,8.6,25.3,10.4,39.9,7.5c17.1-3.4,31.9-17.6,34.8-35.5c3.3-20.5-10.9-38.7-29-44.7c-13-4.3-25.7-3.7-38.8-0.3
	C563.1,171.2,553.7,182.4,553.7,200.7L553.7,200.7z M596.8,442.7c0.2-21.3,1.2-42.6-0.6-63.9c-0.1-1.6,0.7-3.8-1.1-4.5
	c-2-0.8-3.2,1.3-4.5,2.5c-5.1,5-9.6,10.6-15.8,14.5c-1.2,0.8-1.9,2-1.7,3.4c1.7,12.4-0.7,24.5-3.2,36.6c-2.1,10.3-5.9,20-9.4,29.8
	c-5.3,15-17.2,26.5-21.2,42.3c-1.5,5.9-4.9,11.7-8.7,17c-2,2.8-2.3,4.5,2.4,4.4c20.6-0.2,41.3-0.1,61.9-0.2c5.2,0,6-0.8,4.4-5.8
	c-2.4-7.6-2.8-15.3-3.2-23.2C595.2,477.9,596,460.3,596.8,442.7L596.8,442.7z M381.9,524.8c15.8,0,31.6,0,47.4,0
	c1.3,0,2.9,0.6,3.6-0.8c0.7-1.4-0.8-2.4-1.5-3.4c-3.6-4.7-7.7-9.2-9.3-15c-2.1-8.1-2.1-16.4,0.4-24.5c0.8-2.4,0.8-4.6-2.7-3.9
	c-6.7,1.3-13.5,1.1-20.1,3.2c-7.1,2.2-14.5,3.4-21.7,5.4c-7.2,2-14.3,4.2-21.4,6.3c-9.4,2.8-18.2,7.3-27.5,10.1
	c-2.6,0.8-3.5,1.9-2.9,4.6c0.8,3.7,1.7,7.5,1.9,11.3c0.2,4.8,2.1,6.8,7,6.5C350.7,523.7,366.3,524.7,381.9,524.8L381.9,524.8z
	 M459.3,524.6c18.7,0.1,30.5-13.2,31.6-33.1c0.8-14.9-17.8-33.7-32.9-32.7c-15.1,1-28.8,15.8-29.4,32.9
	C428,509.4,442.9,527.6,459.3,524.6z M264,227.3c0-1.5,0.1-1.8,0-2.1c-0.8-3.8,2.2-9.5-1-11.1c-3.3-1.7-7.1,3.1-10.8,4.9
	c-3.2,1.5-5.6,3.4-6,7.2c-1.8,15.9-10.1,28.2-22,38.3c-1.8,1.6-2.9,3.1-1.7,5.6c5.3,10.9,12.2,20.5,21.5,28.4
	c1.7,1.4,3.4,2.4,5.2,0.5c6.1-6.1,14-9.5,21.6-13.1c2.8-1.3,2.6-2.4,1.8-4.9c-2.2-6.2-4.3-12.5-5.7-19.1
	C264.4,250,265.1,238,264,227.3L264,227.3z M524.8,236.4c-0.3,9.3-0.2,18.6-3.8,27.2c-2.5,6.2-2.4,7.4,4.2,9.3
	c6.5,1.9,13,3.7,19.2,6.4c1.9,0.8,2.6,0,3.6-1.3c6.1-8.3,10.2-17.5,13.6-27.1c0.6-1.8,0.7-3.2-1-4.4c-9.9-7.4-15.1-17.9-18.6-29.4
	c-0.7-2.2-1.9-3.9-3.9-4.9c-4.3-2.2-8.6-4.3-13-6.3c-1.1-0.5-2.5-1.5-3.7-0.2c-1,1.1-0.7,2.6-0.2,3.8
	C524.6,218.2,524.4,227.4,524.8,236.4L524.8,236.4z M501.8,524.8v-0.1c4.5,0,9,0,13.5,0c1.9,0,3.6-0.1,4.8-2c4-6.8,8-13.7,12-20.5
	c1.5-2.5,1-4.2-1.6-5.7c-5.4-3-10.5-6.3-16-9.1c-3.8-2-7.8-3.6-11.9-5c-3.3-1.1-5.6-0.4-4.7,4c0.4,2.1,0.5,4.3,0.6,6.4
	c0.2,11-4.5,20.1-11.2,28.4c-0.7,0.9-2,1.7-1.5,2.9c0.6,1.3,2.1,0.7,3.1,0.7C493.1,524.8,497.5,524.8,501.8,524.8L501.8,524.8z
	 M511.7,282.2c-1.3-0.2-2.3,0.4-2.6,1.7c-0.5,2,1.2,2.5,2.6,3.1c8.6,3.4,18.1,4.4,26,9.8c1.4,1,2.8,0.4,3.6-1.3
	c0.8-1.8-0.1-2.9-1.5-3.7C531.2,286.3,521.4,284.4,511.7,282.2L511.7,282.2z M286.8,297c-0.3-1.5-0.8-3-2.9-2
	c-8.3,4.2-17.4,6.9-24.5,13.2c-1.3,1.1-3.4,2.4-1.7,4.5c1.3,1.6,3.3,0.7,4.5-0.4c6.5-5.6,14-9.5,21.9-12.6
	C285.3,299.3,286.7,298.7,286.8,297L286.8,297z"/>
<path class="st2" d="M563.9,70.4c4,9.9,3.1,20.3,2.8,30.6c-1.3-1.6-2-3.5-1.7-5.6C566.1,87,564.9,78.7,563.9,70.4L563.9,70.4z"/>
<path class="st2" d="M566.5,103c0,3.2,0.1,6.4-1.5,9.3C565.8,109.2,563.2,105.6,566.5,103z"/>
<path class="st1" d="M796.7,714.9c0.3,1.5-0.2,2.7-0.8,4C795.7,717.5,795.4,716,796.7,714.9z"/>
<path class="st1" d="M749,541.5c8.3,2.2,10.4,7.7,10.4,16c-0.3,46.7-0.2,93.3-0.1,140c0,10.1-4.2,14.5-14.6,14.5
	c-25.2,0-50.3-0.1-75.5-0.1c-203.3,0-406.5,0-609.8,0c-3.3,0-6.6,0.4-9.9-0.7c-5.7-1.8-8.6-5.4-8.6-11.3c0.1-48.3,0.3-96.6,0.1-145
	c0-6.6,2.2-10.8,8.2-13.1c4.5,0,9,0,13.5,0c225.6,0,451.3,0,676.9,0C742.7,541.9,745.8,541.6,749,541.5L749,541.5z M110.9,639.9
	c1-0.6,1.4-2.1,2.9-2.2c0.1,3.4,2.3,6.2,3.3,9.3c3.8,11.7,8,23.2,12.1,34.8c0.8,2.3,2.5,3.5,4.9,3.5c5.5,0,11,0.1,16.5,0.1
	c3.6,0,6-1.7,7-5.2c3.5-12.1,8.7-23.7,11.6-36c0.6-2.6,1.4-5.3,4.1-7.5c1.2,3.4,1.2,6.4,1.1,9.3c-0.2,11.3-0.2,22.6-0.5,34
	c-0.1,4.1,1.4,5.7,5.5,5.6c8.3-0.2,16.7,0,25,0c6.3,0,6.7-0.4,6.7-6.8c0-36,0-72,0.1-107.9c0-4.1-1.6-5.2-5.3-5.1
	c-8.7,0.2-17.3,0.2-26,0.2c-7.5,0-12.7,3.5-15.5,10.6c-0.1,0.3-0.3,0.6-0.4,0.9c-3.2,9.1-6.5,18.1-9.7,27.2
	c-3.2,9.1-6.3,18.2-9.4,27.3c-0.7,2.2-1.9,2.2-3.2,0.7c-0.8-1-1.4-2.3-1.9-3.5c-6.7-18.8-13.2-37.6-19.9-56.4
	c-1.3-3.7-3.4-6.9-8.1-6.9c-11,0.1-22,0.1-33,0c-3,0-4.1,1-4.1,4c0.1,37,0.1,74,0,110.9c0,3.4,1.2,4.8,4.6,4.8
	c8.8-0.1,17.7,0,26.5,0c3.6,0,5.5-1.3,5.4-5.3C111.1,666.8,111.1,653.3,110.9,639.9L110.9,639.9z M411.9,625.4
	C412,625.4,412,625.4,411.9,625.4c0,18,0.2,36-0.1,54c-0.1,4.7,1.6,6.2,6,6.1c8.5-0.2,17-0.3,25.5,0c4.5,0.1,6.2-1.3,6.1-6
	c-0.3-10.2-0.1-20.3-0.3-30.5c-0.1-3.6,1.1-5.1,4.9-4.9c4.8,0.3,9.7,0.4,14.5,0c4.7-0.4,5.6,1.6,5.5,5.8c-0.3,9.8-0.1,19.7-0.3,29.5
	c-0.1,4.5,1.3,6.3,6,6.1c8.3-0.3,16.7-0.6,25,0.1c5.2,0.4,6.1-1.9,6.2-6c0-1,0-2,0-3c0-35.1,0-70.3,0.1-105.4c0-3.8-1.3-5.5-5.3-5.4
	c-8.7,0.2-17.3,0.3-26,0c-4.8-0.2-6,1.6-5.9,6.1c0.3,12.7,0.1,25.3,0.3,38c0.1,3.4-1.1,4.3-4.3,4.2c-5.3-0.2-10.7-0.2-16,0
	c-3.9,0.2-4.7-1.3-4.6-5c0.3-12.7,0.2-25.3,0.4-38c0.1-3.8-1.2-5.5-5.2-5.4c-9,0.2-18,0.2-27,0c-4.1-0.1-5.5,1.4-5.5,5.6
	C412,589.4,411.9,607.4,411.9,625.4L411.9,625.4z M368.5,612C368.5,612,368.5,612,368.5,612c-7,0.1-14,0.2-21,0
	c-3.7-0.1-5.2,1.3-4.8,5c0.6,6.5,1,12.9,1.4,19.4c0.2,3.3,1.8,4.8,5.1,4.7c3-0.1,6-0.1,9-0.1c2.3,0,5.2-0.3,5,3.2
	c-0.1,3.4,1.7,8.1-3.4,9.2c-6,1.3-12.5,1.9-18.3-0.3c-10.4-3.9-16.4-11.7-17.4-22.9c-1.1-12.4,1.7-23.2,13.5-29.8
	c11.2-6.3,22.5-3.7,33.2,1c5.9,2.6,7.5,3.1,10.1-5.4c1.8-5.8,3-11.8,5.9-17.3c1.2-2.3,0.7-3.8-1.5-5.4c-4.8-3.4-10.3-5.6-15.8-6.9
	c-15.9-4-31.7-4-47.4,2.6c-15.7,6.6-25.7,18.3-31.1,33.7c-6.5,18.5-5.2,37,3.9,54.6c6.1,12,15.7,20.5,28.2,25.7
	c11.1,4.6,22.6,4.9,34.3,4.2c12.1-0.6,22.9-5,33-11.6c3.1-2.1,4.5-5,4.3-8.9c-0.7-16.3-0.7-32.6-0.1-48.9c0.1-3.9-1.3-5.9-5.6-5.8
	C382.2,612.1,375.4,612,368.5,612L368.5,612z M664.6,662.5c-0.2,0-0.3,0-0.5,0c0,6,0.2,12-0.1,18c-0.2,4,1.5,5.3,5.2,5.3
	c8.2-0.1,16.3-0.1,24.5,0c4.1,0.1,5.5-1.7,5.4-5.7c-0.3-12.8-0.2-25.6-0.3-38.5c0-1.9,0.2-3.6,1.2-5.3c6.5-11.6,12.8-23.3,19.3-34.9
	c5.7-10.3,11.6-20.5,17.2-30.8c2.2-4.1,1.6-4.9-3-4.8c-10.3,0.1-20.6,0.2-31,0.1c-4,0-6.3,1.4-7.8,5.3c-3.4,8.5-7.3,16.7-11,25.1
	c-0.5,1.2-1.1,2.7-2.7,2.5c-1.4-0.2-1.4-1.7-1.8-2.8c-3.3-8.9-7.7-17.3-11.7-25.9c-1.5-3.3-3.6-4.3-7-4.2c-8.5,0.2-17,0.2-25.5,0.2
	c-10.6,0-10.6-0.1-5.5,9.2c11.3,20.4,22.5,40.8,33.7,61.1c0.8,1.5,1.3,3,1.3,4.7C664.6,648.2,664.6,655.3,664.6,662.5L664.6,662.5z
	 M574.9,565.9c-14.3,0-28.6,0.1-43-0.1c-4.1-0.1-5.6,1.4-5.5,5.5c0.2,7,0.2,14,0,21c-0.1,3.4,1.2,4.8,4.7,4.8c7-0.1,14,0.3,21-0.2
	c5.1-0.3,6,1.6,6,6.2c-0.3,25.8-0.1,51.6-0.3,77.4c0,3.7,1.3,5,5,5c7.8-0.2,15.7-0.1,23.5-0.1c6.4,0,6.6-0.2,6.6-6.8
	c-0.1-25.6-0.2-51.3-0.3-76.9c0-3.3,0.9-4.9,4.5-4.7c6.3,0.2,12.7-0.1,19,0.2c4.4,0.2,5.9-1.7,6-5.8c0.2-6.3,0.5-12.6,1-18.9
	c0.5-6.1,0.3-6.5-5.7-6.5C603.3,565.9,589.1,565.9,574.9,565.9L574.9,565.9z M271.6,625.6C271.5,625.6,271.5,625.6,271.6,625.6
	c0-18.3-0.1-36.6,0-54.9c0-3.1-0.8-5-4.5-4.9c-8.5,0.2-17,0.2-25.5,0c-4.1-0.1-5.5,1.5-5.5,5.6c0.1,36,0.2,71.9,0,107.9
	c0,5.1,2.1,6.4,6.5,6.3c7.7-0.1,15.3-0.3,23,0.1c4.8,0.2,6.1-1.9,6.1-6.2C271.5,661.6,271.6,643.6,271.6,625.6L271.6,625.6z"/>
<path class="st1" d="M158.1,308.8c-0.9-12.2,1.7-24.4,4.7-36.5c0.6-2.6,1.7-3.4,4.1-2.8c1.3,0.3,2.7,0.4,3.9,0.9
	c10.5,4,20.8,3.3,31.3-0.2c6.8-2.2,6.5-1.9,9.2,4.7c8.3,20.3,22.7,34.8,42.4,44.3c5.5,2.6,9.4,3.2,14.4-1.7
	c5.8-5.7,13.5-9,21.4-11.4c2.1-0.6,3.2-0.3,4.5,1.6c14.5,21.6,34.5,36.5,58.7,45.4c19.7,7.2,40.3,9.9,61.3,5.5
	c0.5-0.1,1-0.3,1.5-0.3c1.4,0,3.3-1.2,4.1,0.3c0.9,1.6-1,2.6-2,3.6c-8,8.7-12.3,19.2-12.4,30.8c-0.1,18.7,7.8,33.7,23.9,43.4
	c16.7,10.1,33.9,9.4,50.8,0.2c1.5-0.8,2.9-1.7,4.3-2.5c1.9-1.1,2.1-2.7,1-4.2c-1.9-2.4-4.1-4.7-6.4-6.8c-1.3-1.2-2.8-0.1-4,0.9
	c-9,7-19.6,8.2-29.9,5.4c-17.9-5-31.7-23.7-25.6-44.4c6.9-23.3,31.3-32.3,49.2-23.9c0.9,0.4,1.9,0.7,2.7,1.2
	c7.3,4.3,8.2,4.1,13.3-2.5c1.6-2,1.8-3.9-0.9-5.3c-7.4-4-14.5-9-23.5-8.4c-1.2,0.1-2.7,0.1-3.1-1.2c-0.6-1.9,1.3-2.7,2.4-3.3
	c17.3-9.2,30.1-23.2,40.7-39.3c5.7-8.7,5.7-8.6,16-6.2c7.1,1.6,13.7,4.2,19.7,8.2c2.3,1.6,4.4,1.4,6.4-0.3
	c11.8-10.1,21.6-21.6,27.6-36.2c1.8-4.4,3.7-8.7,4.4-13.4c0.3-2,0.9-4.7,4.6-3c11.3,5.5,23.1,6.9,35.4,3.8c7-1.8,7.2-1.4,8.2,5.6
	c2.1,15.3,2.6,30.7-1,45.6c-8,32.8-26.3,59.3-52.8,80c-2.6,2-3.5,4.1-3.1,7.2c1.6,15.9-1.6,31.1-5.9,46.2
	c-4.5,15.8-11.2,30.6-20.3,44.2c-4.1,6.1-4,6-10.1,2.3c-9.2-5.7-18.9-10.5-29.6-12.7c-4.3-0.9-7.5-3.1-10.1-6.7
	c-14.7-20.2-43.2-20.9-58.9-1.4c-1.5,1.9-3.1,2.7-5.4,2.9c-12.5,1.5-25.1,3.2-37.3,6.4c-11.3,3-22.7,5.9-33.8,10.2
	c-7.4,2.9-15.2,4.7-22.3,8.4c-3.3,1.7-4-0.9-4.6-3.3c-2.7-11.9-7.1-23.2-12.7-34.1c-9.8-18.9-23-35-39.9-48.1
	c-2.2-1.7-4.5-1.7-7.1-1.6c-9.6,0.2-19.3,0.8-28.9-1c-28.1-5.2-51.2-18.5-66.9-42.8C161.4,346.4,157,328.4,158.1,308.8L158.1,308.8z
	 M490.7,394.8c0.3,7.2-1.8,13.5-6.3,19c-1.4,1.7-2.1,3.7-0.5,4.8c3,2.2,3.9,6.9,8.5,7c1,0,1.6-1.1,2-2c0.6-1.2,1.3-2.3,1.9-3.5
	c10.5-18.7,9.7-37-2-55c-1.2-1.8-2.4-3.1-4.3-1.5c-2.4,2-4.5,4.4-6.5,6.8c-1,1.1-0.4,2.4,0.6,3.6
	C488.9,380.2,491.1,387.1,490.7,394.8L490.7,394.8z M435,404.2c3.9,0.5,6.6-1.1,9.1-3.6c6.3-6.3,6.3-6.2,0.2-12.5
	c-3.8-3.9-10-5.8-13.4-3.4c-4,2.9-4,7.6-3.4,12.1C428.2,401.3,429.4,405.3,435,404.2L435,404.2z M454.2,421.2c9.1,0,10.5-1,10.5-8.3
	c0-3.5-7.8-14.1-10.3-14c-2.5,0.1-9.6,10.1-9.6,13.5C444.9,420.3,445.8,421.2,454.2,421.2z M445,374.6c-1.5,7.3,4.2,11.2,8.4,14.1
	c3.7,2.6,5.1-4.3,8.3-6c0.1-0.1,0.2-0.2,0.4-0.4c3.7-3.3,3.1-7.7,2.2-11.6c-0.7-3.5-4.6-2.4-7.2-3c-2-0.4-4-0.1-5.9-0.1
	C446.3,367.7,444,369.6,445,374.6L445,374.6z M481.3,394.9c0.2-8.5-1.3-10.5-7.8-10.7c-4-0.1-13.5,6.6-13.7,9.7
	c-0.3,3.3,8.6,10.2,13.3,10.3C479.8,404.3,481.2,402.7,481.3,394.9L481.3,394.9z"/>
<path class="st1" d="M389,151.3c8-0.2,15.9,0.5,23.8,1.9c18.3,3.3,36.9,3.1,55.3,1.7c8.7-0.7,13.8,2.6,18.7,8.8
	c9,11.6,15.2,24.3,19.7,38.3c6.5,20.2,6.9,40.5,2.2,60.6c-5.9,25.4-19.3,46.8-39.8,63.6c-11.5,9.3-24.3,15.8-38.2,20.6
	c-21.5,7.4-43.4,8-64.8,2.1c-31.2-8.6-55.7-26.9-71.9-55.5c-8.4-14.9-13.1-30.7-14.9-47.6c-1.5-14.4,5-26.3,11.2-38.1
	c11.4-21.8,28.9-37.7,51.6-47.4C356.7,153.7,372.6,150.5,389,151.3L389,151.3z M455.1,225.2c-37.2-0.8-62,1.4-99.6,14
	c-3.2,1.1-5,2.6-5.6,6.1c-3.7,22.4-5.5,44.9-5.9,67.5c-0.1,4.4,1.7,7.1,5.3,9.3c14.5,9,30.3,13.4,47.2,14.1
	c13.3,0.6,26.3-1.6,38.5-6.2c9.6-3.6,18.6-9.2,26.7-15.8c7.9-6.5,14.6-14,20.8-22.1c6.4-8.2,8-18.3,10.9-27.6
	c3-9.7,4.5-20.1,3.7-30.6c-0.6-7.1-1.6-8.6-8.5-8.8C477.3,225,466.2,225.2,455.1,225.2L455.1,225.2z M403.9,173.5
	c-15.1-0.2-27.3,1.3-39,5.4c-4.5,1.6-8.9,3.4-13.1,5.5c-2.2,1.1-3.8,3-2,6c1.7,2.9,3.9,3.2,6.2,1.4c3.1-2.3,6.9-2.4,10.1-4
	c11.5-5.7,23.8-6.4,36.3-6.5c4.3,0,5.6,1.6,5.5,5.6c-0.1,3.7,0.2,7.3,0.3,11c0.2,4.1,4,8.2,7.2,7.8c3.7-0.4,6.8-4.7,6.3-8.9
	c-0.3-3-0.8-5.9-1.3-8.9c-1-5.3-0.6-5.7,4.4-4.2c2.9,0.9,5.6,0.5,6.5-2.2c1.1-3.1-1.3-4.7-4.3-5.5
	C418.4,173.7,409.7,174,403.9,173.5L403.9,173.5z M468.7,169.9c-10.2-1.2-19.2,3-28.5,5.9c-2.7,0.8-4.3,2.9-3.8,5.6
	c0.7,3.3,3.6,2.8,6.1,2.5c1.1-0.1,2.2-0.7,3.3-0.9c1.7-0.3,3.2,0.2,3.2,2.1c0,4.5,2.8,8.3,3.2,12.8c0.3,3.2,2.8,5.8,6.3,5.9
	c4,0.1,6.4-2.9,6.4-7.1c0-4.5-0.8-8.9-2.9-13c-2.4-4.7-1.8-5.6,3.6-5.7c5.5-0.1,11-0.2,16.4,1.3c1.6,0.4,2.9,0.3,3.8-1.3
	c0.8-1.4,0.7-2.8,0.1-4.2c-0.9-2.2-2.9-2.8-4.8-3C477,170.5,472.8,170.2,468.7,169.9L468.7,169.9z"/>
<path class="st1" d="M258,524.3c-19.3,0-38.6,0-58,0c-4.5,0-6.3-2.4-4.4-6.5c2.6-5.4,3.1-11.2,3.3-16.9c0.6-16.8-0.3-33.6-1.6-50.4
	c-1.2-15.6-0.5-31.3,1.7-46.8c0.4-3.1,2.1-2.9,4.2-2.1c4.2,1.6,8,3.9,12.2,5.6c15.7,6.5,32,7.2,48.5,6.7c4.1-0.1,7,0.8,10.2,3.5
	c21.5,18.6,36.4,41.2,43.8,68.8c0.6,2.1,1.2,4.2,2,6.2c1.1,2.6,1.3,4.7-1.4,6.5c-2.1,1.3-1.7,3.3-1.2,5.4c1.1,4.7,2.2,9.4,3,14.2
	c1,5.9,0.9,6-5.4,6C296,524.3,277,524.3,258,524.3L258,524.3L258,524.3z"/>
<path class="st0" d="M669.2,335.8c9,14.2,15.4,29.6,21.7,45.2c6.2,15.3,9.1,31.5,13.9,47.1c0.7,2.2,0.6,4.6,0.1,6.9
	c-2.9,0.5-6,0.6-8.7,1.5c-28.6,9.2-57.9,15.9-86.4,25.6c-2.1-5-0.7-10.2-0.4-15.2c1.3-21.6,2.8-43.2-0.2-64.8
	c-0.2-1.3,0.1-2.6,0.2-4c5.5-3.1,10.7-6.4,15.8-10.2c11.7-8.9,23.7-17.4,35.7-25.8C663.7,340.2,664.9,335.9,669.2,335.8L669.2,335.8
	z"/>
<path class="st2" d="M609.8,462.1c28.4-9.7,57.8-16.4,86.4-25.6c2.8-0.9,5.8-1,8.7-1.5c3.7,15.4,4.8,31,5.3,46.8
	c0.4,12.3,0.1,24.6,0.6,36.9c0.2,4.2-1.3,5.5-5.4,5.5c-28.8-0.1-57.5-0.1-86.3,0c-2.9,0-4.4-0.9-5.7-3.6c-2.9-5.8-3.3-12.2-4.1-18.3
	c-1.3-10.2-1.7-20.5-1.1-30.8C608.4,468.3,609.2,465.2,609.8,462.1L609.8,462.1z"/>
<path class="st2" d="M183.1,459.1c1.7,9,0.8,18.2,1.6,27.3c1,11.3-1.2,22.5-3.2,33.6c-0.5,2.9-2.1,4.2-5.2,4.2
	c-26.6-0.1-53.3-0.1-79.9,0c-3,0-3.6-1.4-3.6-4c-0.2-24.6,0-49.2,2.3-73.7c0.3-3.6,1.2-7.2,3-10.5c2.3,0,4.6,0.1,6.9,0.8
	c19.4,5.7,38.7,11.4,58.2,16.7C169.8,455.3,176.1,458.8,183.1,459.1L183.1,459.1z"/>
<path class="st0" d="M183.1,459.1c-7.1-0.3-13.3-3.8-20-5.6c-19.5-5.3-38.8-11-58.2-16.7c-2.3-0.7-4.6-0.8-6.9-0.8
	c-1-7.9,2.6-15.1,3.6-22.8c1.1-0.6,1.5-1.4,0.9-2.6c1.1-4.1,2.2-8.3,3.3-12.4c1-0.6,1.3-1.4,0.9-2.5c0.3-0.8,0.6-1.7,0.9-2.5
	c1.5-1,2.7-2.1,1.7-4.1c0.1-0.6,0.2-1.2,0.3-1.9c1.1-0.6,1.5-1.4,0.9-2.6c5.4-14.8,11.8-29.1,19.3-43c0.6-1,1.1-2,2-2.8
	c2.4-0.2,4.1,1.3,5.8,2.5c3.6,2.5,7.4,4.8,11.4,6.7c7.4,18.7,18,35.2,34.3,47.5c1.8,1.4,2.3,3.3,1.9,5.3
	c-3.7,18.6-3.3,37.4-1.9,56.2C183.3,457.7,183.2,458.4,183.1,459.1L183.1,459.1z"/>
<path class="st1" d="M234.2,216.8c1.1,22.4-14.7,38.7-31.2,44.9c-9.6,3.6-19.5,4.2-30.2,0.9c-10.8-3.3-19.6-8.2-25.7-17.2
	c-15.1-22.1-6.8-47,13.9-58.6c16.7-9.4,34.6-10,52.1-3.6C226,187.9,235.1,195.9,234.2,216.8L234.2,216.8z"/>
<path class="st1" d="M553.7,200.7c0-18.3,9.4-29.5,27.3-34.1c13.1-3.4,25.8-4,38.8,0.3c18,6,32.3,24.2,29,44.7
	c-2.9,17.9-17.8,32.1-34.8,35.5c-14.6,2.9-27.9,1.1-39.9-7.5C560.9,230.2,553.6,217.3,553.7,200.7L553.7,200.7z"/>
<path class="st1" d="M596.8,442.7c-0.8,17.6-1.6,35.3-0.7,52.9c0.4,7.8,0.8,15.6,3.2,23.2c1.6,5,0.7,5.8-4.4,5.8
	c-20.6,0-41.3-0.1-61.9,0.2c-4.7,0.1-4.4-1.6-2.4-4.4c3.7-5.2,7.1-11,8.7-17c4-15.8,16-27.2,21.2-42.3c3.5-9.9,7.3-19.5,9.4-29.8
	c2.5-12.1,5-24.1,3.2-36.6c-0.2-1.4,0.4-2.6,1.7-3.4c6.1-3.9,10.7-9.5,15.8-14.5c1.2-1.2,2.4-3.3,4.5-2.5c1.8,0.7,1,3,1.1,4.5
	C597.9,400.1,597,421.4,596.8,442.7L596.8,442.7z"/>
<path class="st1" d="M381.9,524.8c-15.6-0.1-31.3-1.1-46.9-0.1c-4.9,0.3-6.8-1.7-7-6.5c-0.2-3.8-1.1-7.6-1.9-11.3
	c-0.6-2.7,0.3-3.8,2.9-4.6c9.3-2.9,18.1-7.3,27.5-10.1c7.1-2.2,14.2-4.3,21.4-6.3c7.2-2.1,14.6-3.2,21.7-5.4
	c6.6-2.1,13.5-1.9,20.1-3.2c3.5-0.7,3.4,1.4,2.7,3.9c-2.5,8.1-2.5,16.4-0.4,24.5c1.5,5.8,5.7,10.3,9.3,15c0.8,1,2.2,2,1.5,3.4
	c-0.7,1.5-2.4,0.8-3.6,0.8C413.5,524.8,397.7,524.8,381.9,524.8L381.9,524.8z"/>
<path class="st1" d="M459.3,524.6c-16.4,2.9-31.3-15.3-30.7-32.8c0.6-17.1,14.2-32,29.4-32.9c15.1-1,33.8,17.8,32.9,32.7
	C489.8,511.4,478,524.7,459.3,524.6z"/>
<path class="st0" d="M264,227.3c1.1,10.8,0.4,22.8,2.9,34.6c1.4,6.6,3.5,12.8,5.7,19.1c0.9,2.4,1,3.5-1.8,4.9
	c-7.6,3.6-15.5,7-21.6,13.1c-1.8,1.9-3.5,0.9-5.2-0.5c-9.3-7.9-16.2-17.5-21.5-28.4c-1.2-2.4-0.1-4,1.7-5.6
	c11.9-10.1,20.2-22.4,22-38.3c0.4-3.8,2.8-5.7,6-7.2c3.7-1.8,7.5-6.5,10.8-4.9c3.1,1.6,0.2,7.3,1,11.1
	C264.1,225.4,264,225.8,264,227.3L264,227.3z"/>
<path class="st2" d="M669.2,335.8c-4.3,0.1-5.5,4.4-8.4,6.4c-12,8.4-24,17-35.7,25.8c-5,3.8-10.3,7.1-15.8,10.2
	c-3.4-7.8-1.1-14,3.7-20.9c12.6-18.3,20.3-38.7,23-60.9c0.2-1.7,0-4.3,1.8-4.7c1.8-0.5,2.9,1.8,4,3.3c7.7,10.8,15.4,21.6,23,32.6
	C666.6,330,667.8,333,669.2,335.8L669.2,335.8z"/>
<path class="st0" d="M524.8,236.4c-0.4-8.9-0.2-18.1-3.6-26.9c-0.5-1.2-0.8-2.7,0.2-3.8c1.2-1.2,2.6-0.3,3.7,0.2
	c4.4,2,8.7,4.1,13,6.3c2,1,3.2,2.7,3.9,4.9c3.5,11.5,8.7,22,18.6,29.4c1.6,1.2,1.6,2.7,1,4.4c-3.4,9.6-7.5,18.8-13.6,27.1
	c-1,1.4-1.7,2.2-3.6,1.3c-6.2-2.7-12.7-4.5-19.2-6.4c-6.6-2-6.7-3.2-4.2-9.3C524.6,255,524.6,245.7,524.8,236.4L524.8,236.4z"/>
<path class="st1" d="M501.8,524.8c-4.3,0-8.6,0-13,0c-1.1,0-2.6,0.6-3.1-0.7c-0.5-1.2,0.8-2,1.5-2.9c6.8-8.3,11.5-17.4,11.2-28.4
	c0-2.1-0.2-4.3-0.6-6.4c-0.9-4.4,1.5-5.1,4.7-4c4.1,1.4,8.1,3,11.9,5c5.4,2.8,10.6,6.2,16,9.1c2.6,1.4,3.1,3.1,1.6,5.7
	c-4,6.8-8.1,13.6-12,20.5c-1.1,1.9-2.9,2-4.8,2c-4.5,0-9,0-13.5,0L501.8,524.8L501.8,524.8z"/>
<path class="st2" d="M749,541.5c-3.1,0.1-6.3,0.4-9.4,0.4c-225.6,0-451.3,0-676.9,0c-4.5,0-9,0-13.5,0c1.9-1.5,4.2-1,6.3-1
	c229.6,0,459.1,0,688.7,0C745.7,540.9,747.4,540.6,749,541.5z"/>
<path class="st2" d="M149,348c-4-1.9-7.8-4.2-11.4-6.7c-1.7-1.2-3.4-2.8-5.8-2.5c2.7-4.9,5.4-9.8,8.2-14.7c0.7-1.2,1.5-2.6,2.9-2.5
	c1.9,0.2,1.1,2.1,1.3,3.2C145.8,332.6,147.4,340.3,149,348L149,348z"/>
<path class="st2" d="M511.7,282.2c9.7,2.2,19.5,4.2,28.1,9.5c1.3,0.8,2.3,1.9,1.5,3.7c-0.8,1.7-2.2,2.3-3.6,1.3
	c-7.9-5.4-17.3-6.5-26-9.8c-1.3-0.5-3-1-2.6-3.1C509.4,282.6,510.4,281.9,511.7,282.2L511.7,282.2z"/>
<path class="st0" d="M286.8,297c-0.1,1.8-1.5,2.3-2.6,2.8c-7.9,3.1-15.4,7-21.9,12.6c-1.2,1.1-3.2,1.9-4.5,0.4
	c-1.7-2,0.5-3.3,1.7-4.5c7.1-6.4,16.2-9,24.5-13.2C286,294,286.5,295.4,286.8,297L286.8,297z"/>
<path class="st2" d="M109.4,389.1c1,2-0.3,3.1-1.7,4.1C107.3,391.4,108,390.1,109.4,389.1z"/>
<path class="st2" d="M106.7,395.7c0.4,1.1,0.1,1.9-0.9,2.5C105.1,397,105.7,396.3,106.7,395.7z"/>
<path class="st2" d="M102.6,410.6c0.6,1.2,0.3,2-0.9,2.6C101,412,101.6,411.2,102.6,410.6z"/>
<path class="st2" d="M110.6,384.6c0.6,1.2,0.3,2-0.9,2.6C109,386,109.6,385.3,110.6,384.6z"/>
<path class="st3" d="M110.9,639.9c0.2,13.5,0.2,27,0.5,40.5c0.1,4-1.8,5.3-5.4,5.3c-8.8-0.1-17.7-0.1-26.5,0c-3.5,0-4.6-1.4-4.6-4.8
	c0.1-37,0-74,0-110.9c0-3,1.1-4,4.1-4c11,0.1,22,0.1,33,0c4.7,0,6.8,3.1,8.1,6.9c6.7,18.8,13.3,37.6,19.9,56.4
	c0.4,1.2,1,2.5,1.9,3.5c1.3,1.5,2.4,1.5,3.2-0.7c3.1-9.1,6.2-18.2,9.4-27.3c3.2-9.1,6.5-18.1,9.7-27.2c0.1-0.3,0.3-0.6,0.4-0.9
	c2.8-7,8-10.6,15.5-10.6c8.7,0,17.3,0,26-0.2c3.7-0.1,5.3,1,5.3,5.1c-0.2,36-0.1,72-0.1,107.9c0,6.4-0.3,6.8-6.7,6.8
	c-8.3,0-16.7-0.2-25,0c-4.1,0.1-5.6-1.5-5.5-5.6c0.3-11.3,0.4-22.6,0.5-34c0-3,0.1-5.9-1.1-9.3c-2.7,2.2-3.5,4.8-4.1,7.5
	c-2.8,12.3-8.1,23.9-11.6,36c-1,3.5-3.4,5.2-7,5.2c-5.5,0-11-0.1-16.5-0.1c-2.5,0-4.1-1.2-4.9-3.5c-4.1-11.6-8.3-23.1-12.1-34.8
	c-1-3.2-3.2-5.9-3.3-9.3c0.5-1.7,0.2-3.3-1.6-3.4c-2-0.1-2,1.9-1.9,3.3C110.2,638.3,110.7,639.1,110.9,639.9L110.9,639.9z"/>
<path class="st3" d="M411.9,625.4c0-18,0.1-36-0.1-54c0-4.1,1.3-5.7,5.5-5.6c9,0.2,18,0.1,27,0c3.9-0.1,5.2,1.6,5.2,5.4
	c-0.2,12.7-0.1,25.3-0.4,38c-0.1,3.6,0.7,5.2,4.6,5c5.3-0.3,10.7-0.2,16,0c3.2,0.1,4.4-0.8,4.3-4.2c-0.2-12.7-0.1-25.3-0.3-38
	c-0.1-4.5,1.2-6.3,5.9-6.1c8.6,0.3,17.3,0.2,26,0c4-0.1,5.3,1.6,5.3,5.4c-0.1,35.1-0.1,70.3-0.1,105.4c0,1,0.1,2,0,3
	c-0.1,4-1,6.4-6.2,6c-8.3-0.7-16.6-0.5-25-0.1c-4.7,0.2-6.1-1.6-6-6.1c0.3-9.8,0-19.7,0.3-29.5c0.1-4.1-0.8-6.2-5.5-5.8
	c-4.8,0.4-9.7,0.3-14.5,0c-3.8-0.2-4.9,1.3-4.9,4.9c0.2,10.2,0,20.3,0.3,30.5c0.2,4.7-1.6,6.1-6.1,6c-8.5-0.3-17-0.2-25.5,0
	c-4.4,0.1-6.1-1.4-6-6.1C412.1,661.3,412,643.4,411.9,625.4C412,625.4,412,625.4,411.9,625.4L411.9,625.4z"/>
<path class="st3" d="M368.5,612c6.8,0,13.7,0.1,20.5,0c4.2-0.1,5.7,1.9,5.6,5.8c-0.6,16.3-0.6,32.6,0.1,48.9
	c0.2,3.9-1.2,6.8-4.3,8.9c-10,6.6-20.8,11-33,11.6c-11.7,0.6-23.3,0.3-34.3-4.2c-12.5-5.2-22-13.6-28.2-25.7
	c-9-17.6-10.3-36.1-3.9-54.6c5.4-15.5,15.4-27.1,31.1-33.7c15.6-6.6,31.4-6.6,47.4-2.6c5.4,1.4,10.9,3.6,15.8,6.9
	c2.3,1.6,2.7,3.1,1.5,5.4c-2.9,5.4-4.1,11.5-5.9,17.3c-2.6,8.5-4.2,8-10.1,5.4c-10.6-4.7-21.9-7.3-33.2-1
	c-11.8,6.6-14.6,17.4-13.5,29.8c1,11.2,7,19.1,17.4,22.9c5.8,2.2,12.3,1.6,18.3,0.3c5.2-1.1,3.3-5.8,3.4-9.2c0.1-3.5-2.7-3.1-5-3.2
	c-3,0-6,0-9,0.1c-3.3,0.1-4.9-1.4-5.1-4.7c-0.4-6.5-0.8-13-1.4-19.4c-0.3-3.7,1.1-5.1,4.8-5C354.6,612.2,361.6,612,368.5,612
	C368.5,612,368.5,612,368.5,612L368.5,612z"/>
<path class="st3" d="M664.6,662.5c0-7.2,0-14.3,0-21.4c0-1.7-0.5-3.2-1.3-4.7c-11.3-20.4-22.5-40.8-33.7-61.1
	c-5.1-9.3-5.2-9.2,5.5-9.2c8.5,0,17,0,25.5-0.2c3.4-0.1,5.4,0.9,7,4.2c4,8.6,8.3,17,11.7,25.9c0.4,1,0.4,2.6,1.8,2.8
	c1.7,0.2,2.2-1.3,2.7-2.5c3.7-8.3,7.7-16.6,11-25.1c1.6-3.9,3.8-5.3,7.8-5.3c10.3,0.1,20.6,0,31-0.1c4.6,0,5.3,0.7,3,4.8
	c-5.6,10.4-11.5,20.5-17.2,30.8c-6.5,11.6-12.8,23.3-19.3,34.9c-0.9,1.7-1.2,3.4-1.2,5.3c0.1,12.8,0,25.6,0.3,38.5
	c0.1,4.1-1.3,5.8-5.4,5.7c-8.2-0.2-16.3-0.2-24.5,0c-3.8,0-5.4-1.3-5.2-5.3c0.3-6,0.1-12,0.1-18
	C664.2,662.5,664.4,662.5,664.6,662.5L664.6,662.5z"/>
<path class="st3" d="M574.9,565.9c14.2,0,28.3,0,42.5,0c6.1,0,6.3,0.4,5.7,6.5c-0.6,6.3-0.9,12.6-1,18.9c-0.1,4.1-1.6,6-6,5.8
	c-6.3-0.3-12.7,0-19-0.2c-3.6-0.1-4.5,1.4-4.5,4.7c0.2,25.6,0.2,51.3,0.3,76.9c0,6.6-0.2,6.8-6.6,6.8c-7.8,0-15.7-0.1-23.5,0.1
	c-3.7,0.1-5-1.3-5-5c0.1-25.8,0-51.6,0.3-77.4c0-4.6-0.9-6.6-6-6.2c-7,0.5-14,0.1-21,0.2c-3.4,0.1-4.8-1.4-4.7-4.8
	c0.1-7,0.2-14,0-21c-0.1-4.1,1.4-5.6,5.5-5.5C546.3,566,560.6,565.9,574.9,565.9L574.9,565.9z"/>
<path class="st3" d="M271.6,625.6c0,18,0,36,0,53.9c0,4.3-1.3,6.4-6.1,6.2c-7.6-0.3-15.3-0.1-23-0.1c-4.4,0-6.5-1.2-6.5-6.3
	c0.2-36,0.1-71.9,0-107.9c0-4.1,1.4-5.7,5.5-5.6c8.5,0.2,17,0.2,25.5,0c3.7-0.1,4.5,1.7,4.5,4.9C271.5,589,271.5,607.3,271.6,625.6
	C271.5,625.6,271.5,625.6,271.6,625.6L271.6,625.6z"/>
<path class="st2" d="M110.9,639.9c-0.2-0.8-0.7-1.5-0.7-2.3c0-1.5-0.1-3.5,1.9-3.3c1.8,0.1,2.1,1.8,1.6,3.4
	C112.3,637.8,111.9,639.2,110.9,639.9L110.9,639.9z"/>
<path class="st3" d="M490.7,394.8c0.4-7.7-1.8-14.7-6.6-20.8c-0.9-1.2-1.5-2.5-0.6-3.6c2-2.4,4.1-4.7,6.5-6.8
	c1.9-1.7,3.1-0.3,4.3,1.5c11.7,17.9,12.5,36.2,2,55c-0.6,1.2-1.3,2.3-1.9,3.5c-0.5,0.9-1,2-2,2c-4.6,0-5.5-4.8-8.5-7
	c-1.6-1.1-0.8-3.2,0.5-4.8C488.9,408.3,491,402,490.7,394.8L490.7,394.8z"/>
<path class="st3" d="M435,404.2c-5.6,1.1-6.8-2.9-7.4-7.3c-0.6-4.5-0.6-9.2,3.4-12.1c3.4-2.5,9.6-0.5,13.4,3.4
	c6.1,6.2,6,6.2-0.2,12.5C441.6,403.1,438.9,404.6,435,404.2L435,404.2z"/>
<path class="st3" d="M454.2,421.2c-8.4,0-9.4-0.9-9.4-8.8c0-3.4,7.1-13.4,9.6-13.5c2.5-0.1,10.4,10.5,10.3,14
	C464.7,420.2,463.4,421.3,454.2,421.2z"/>
<path class="st3" d="M445,374.6c-1.1-5,1.3-6.9,6.2-6.9c2,0,4-0.4,5.9,0.1c2.6,0.6,6.5-0.6,7.2,3c0.8,3.9,1.5,8.4-2.2,11.6
	c-0.1,0.1-0.2,0.3-0.4,0.4c-3.2,1.7-4.6,8.5-8.3,6C449.2,385.8,443.5,381.9,445,374.6L445,374.6z"/>
<path class="st3" d="M481.3,394.9c-0.2,7.8-1.6,9.4-8.2,9.3c-4.7-0.1-13.6-6.9-13.3-10.3c0.3-3.1,9.7-9.8,13.7-9.7
	C480,384.3,481.5,386.4,481.3,394.9L481.3,394.9z"/>
<path class="st3" d="M455.1,225.2c11.1,0,22.3-0.1,33.4,0c7,0.1,7.9,1.6,8.5,8.8c0.9,10.5-0.7,20.9-3.7,30.6
	c-2.9,9.3-4.5,19.4-10.9,27.6c-6.2,8.1-12.9,15.6-20.8,22.1c-8.1,6.6-17.1,12.3-26.7,15.8c-12.2,4.5-25.3,6.7-38.5,6.2
	c-16.9-0.7-32.7-5.1-47.2-14.1c-3.6-2.2-5.4-4.9-5.3-9.3c0.5-22.6,2.2-45.2,5.9-67.5c0.6-3.5,2.4-5,5.6-6.1
	C393.1,226.5,417.9,224.3,455.1,225.2L455.1,225.2z M464.1,270.9c6,0.2,11.9,0.5,17.9-0.1c2.2-0.1,3.3-1.6,3.7-3.5
	c2.1-10.2,5.1-20.4,4.6-31c-0.1-2.6-0.9-4.1-3.7-4.2c-22.5-1.1-45-2-67.4,0.5c-18.8,2.1-37.5,4.9-55.3,11.7c-7.8,3-8,2.4-9,11
	c-1,8.4-1.6,16.9-2.8,25.3c-0.7,4.9,1.5,5.1,5,4c16.3-4.9,33.3-6.5,49.9-9.5c3.9-0.7,7.9-1.1,11.9-1.3c2.2-0.1,4.6,0,4.8,3
	c0.2,3-1.8,4.3-4.4,4.3c-9.4,0.1-18.5,2.1-27.7,3.3c-12.7,1.7-25.2,4.5-37.6,7.9c-2.4,0.7-3.1,2.1-3.1,4.3c0,4.7,0.1,9.3-0.2,14
	c-0.2,3,0.9,5,3.5,6.5c6.4,4,13.5,6.7,20.6,8.8c21.9,6.3,43.3,3.7,63.9-5.7c18.3-8.4,31.8-22,42.6-38.7c2.2-3.4,0.3-3.9-2.4-3.9
	c-4.8,0-9.7,0.2-14.5,0.2c-2.1,0-3.9-0.3-4.2-3.1C460,271.8,461.6,271,464.1,270.9L464.1,270.9z"/>
<path class="st3" d="M403.9,173.5c5.9,0.5,14.6,0.2,23,2.5c3,0.8,5.3,2.3,4.3,5.5c-0.9,2.7-3.6,3.1-6.5,2.2c-5-1.5-5.4-1-4.4,4.2
	c0.5,2.9,1,5.9,1.3,8.9c0.5,4.2-2.7,8.5-6.3,8.9c-3.2,0.4-7-3.7-7.2-7.8c-0.2-3.7-0.5-7.3-0.3-11c0.1-4-1.2-5.6-5.5-5.6
	c-12.5,0.1-24.8,0.8-36.3,6.5c-3.2,1.6-7.1,1.6-10.1,4c-2.3,1.8-4.5,1.4-6.2-1.4c-1.8-3-0.2-4.8,2-6c4.2-2.1,8.7-3.9,13.1-5.5
	C376.6,174.8,388.7,173.3,403.9,173.5L403.9,173.5z"/>
<path class="st3" d="M468.7,169.9c4.1,0.3,8.3,0.5,12.4,1c2,0.2,3.9,0.9,4.8,3c0.6,1.5,0.7,2.8-0.1,4.2c-0.9,1.6-2.3,1.7-3.8,1.3
	c-5.4-1.5-10.9-1.4-16.4-1.3c-5.4,0.1-6,1-3.6,5.7c2.1,4.1,3,8.4,2.9,13c0,4.3-2.5,7.2-6.4,7.1c-3.6-0.1-6-2.8-6.3-5.9
	c-0.4-4.5-3.2-8.3-3.2-12.8c0-2-1.5-2.4-3.2-2.1c-1.1,0.2-2.2,0.7-3.3,0.9c-2.5,0.2-5.4,0.8-6.1-2.5c-0.5-2.7,1.1-4.8,3.8-5.6
	C449.5,172.9,458.5,168.7,468.7,169.9L468.7,169.9z"/>
<path class="st1" d="M464.1,270.9c-2.5,0.1-4.1,0.9-3.8,3.9c0.3,2.8,2.1,3.1,4.2,3.1c4.8,0,9.7-0.2,14.5-0.2c2.7,0,4.6,0.5,2.4,3.9
	c-10.8,16.7-24.3,30.3-42.6,38.7c-20.7,9.4-42,12-63.9,5.7c-7.1-2-14.2-4.8-20.6-8.8c-2.6-1.6-3.7-3.5-3.5-6.5
	c0.2-4.7,0.2-9.3,0.2-14c0-2.3,0.7-3.7,3.1-4.3c12.4-3.4,24.8-6.2,37.6-7.9c9.2-1.3,18.4-3.3,27.7-3.3c2.6,0,4.6-1.4,4.4-4.3
	c-0.2-3-2.7-3.1-4.8-3c-4,0.3-8,0.6-11.9,1.3c-16.7,3.1-33.6,4.7-49.9,9.5c-3.5,1-5.7,0.9-5-4c1.2-8.4,1.9-16.9,2.8-25.3
	c1-8.5,1.2-8,9-11c17.9-6.9,36.5-9.7,55.3-11.7c22.4-2.5,44.9-1.6,67.4-0.5c2.7,0.1,3.6,1.5,3.7,4.2c0.5,10.7-2.4,20.8-4.6,31
	c-0.4,1.9-1.5,3.4-3.7,3.5C476,269.9,470,269.6,464.1,270.9L464.1,270.9z"/>
<path class="st2" d="M464.1,270.9c6-1.2,11.9-0.9,17.9-0.1C476,271.4,470,271.1,464.1,270.9z"/>
</svg>
