<?xml version="1.0" encoding="UTF-8"?>
<svg id="_레이어_1" data-name=" 레이어 1" xmlns="http://www.w3.org/2000/svg" viewBox="0 0 173.889 110.106">
  <defs>
    <style>
      .cls-1 {
        fill: #8bc53f;
      }

      .cls-1, .cls-2 {
        stroke-width: 0px;
      }

      .cls-2 {
        fill: #f3901d;
      }
    </style>
  </defs>
  <path class="cls-2" d="M.027,46.201c0-5.831-.07-11.664.015-17.494C.208,17.177,5.425,8.504,15.635,3.322,25.841-1.858,35.931-.874,45.348,5.676c1.35.939,2.085,1.121,3.547.081,9.368-6.664,19.499-7.601,29.708-2.508,10.15,5.064,15.481,13.761,15.744,25.105.28,12.073.093,24.158.05,36.237-.022,6.139-4.246,10.461-10.042,10.436-5.828-.025-9.855-4.322-9.858-10.537-.005-11.746.048-23.493-.023-35.239-.039-6.463-5.771-10.733-11.502-8.723-3.682,1.291-5.871,4.589-5.876,8.96-.015,11.913.023,23.826-.024,35.739-.016,4.138-2.005,7.185-5.757,8.896-3.734,1.703-7.337,1.217-10.533-1.369-2.566-2.076-3.553-4.882-3.541-8.165.044-11.413.014-22.826.018-34.239,0-2.719-.337-5.306-2.336-7.41-2.532-2.666-6.049-3.585-9.347-2.363-3.366,1.247-5.615,4.385-5.624,8.076-.03,11.663-.021,23.326,0,34.989.002,1.428-.096,2.835-.462,4.207-1.283,4.816-5.975,7.782-11.167,7.092C3.701,74.326.064,70.206.036,65.445c-.037-6.414-.009-12.829-.009-19.244Z"/>
  <path class="cls-1" d="M100.566,67.696c0-10.245-.002-20.49,0-30.734.004-18.709,14.402-34.929,32.395-36.496,20.03-1.745,37.003,10.981,40.391,30.283,3.85,21.939-13.5,42.734-35.624,42.695-5.958-.01-10.368-4.087-10.496-9.703-.128-5.608,4.114-9.904,10.081-10.211,7.638-.393,13.495-4.583,15.691-11.384,2.188-6.778.586-12.762-4.571-17.529-5.177-4.787-11.363-5.891-17.837-3.037-6.422,2.832-10.032,8.003-10.073,15.085-.121,20.989-.025,41.979-.054,62.968-.01,7.484-6.726,12.324-13.478,9.796-3.939-1.475-6.407-5.062-6.417-9.5-.025-10.744-.008-21.489-.009-32.233h.001Z"/>
</svg>