<?xml version="1.0" encoding="utf-8"?>
<!-- Generator: Adobe Illustrator 28.1.0, SVG Export Plug-In . SVG Version: 6.00 Build 0)  -->
<svg version="1.1" id="레이어_1" xmlns="http://www.w3.org/2000/svg" xmlns:xlink="http://www.w3.org/1999/xlink" x="0px"
	 y="0px" viewBox="0 0 297.1 297.1" style="enable-background:new 0 0 297.1 297.1;" xml:space="preserve">
<style type="text/css">
	.st0{fill:#6DBBFF;}
	.st1{fill:#A9DEFF;}
	.st2{fill:#3F8EFF;}
</style>
<path class="st0" d="M295,295c-1.3,1.4-3.1,2.1-5,2.1H7.1c-1.9,0-3.7-0.8-5.1-2.1l0.6-150.7h291.6L295,295z"/>
<path class="st1" d="M291.7,0c-1.8-0.2-3.6,0.5-4.8,1.8L148.5,144.2l0,0.1L295,295c-1.3,1.4-3.1,2.1-5,2.1l0.1,0
	c1.9,0,3.7-0.8,5-2.1c1.3-1.3,2.1-3.1,2.1-5V6.1c0-1.2-0.3-2.4-1-3.4C295.2,1.2,293.5,0.2,291.7,0L291.7,0z"/>
<path class="st2" d="M148.5,144.3L2.1,295c-1.3-1.3-2.1-3.1-2.1-5V6.1c0-3.3,2.7-6,6-6c1.5,0,2.9,0.6,4,1.6L148.5,144.3z"/>
</svg>
