<?xml version="1.0" encoding="utf-8"?>
<!-- Generator: Adobe Illustrator 28.2.0, SVG Export Plug-In . SVG Version: 6.00 Build 0)  -->
<svg version="1.1" id="레이어_1" xmlns="http://www.w3.org/2000/svg" xmlns:xlink="http://www.w3.org/1999/xlink" x="0px"
	 y="0px" viewBox="0 0 1345.9 985" style="enable-background:new 0 0 1345.9 985;" xml:space="preserve">
<style type="text/css">
	.st0{fill-rule:evenodd;clip-rule:evenodd;fill:#FFFFFF;}
</style>
<path class="st0" d="M166.6,5.5c-19.1-0.1-38.1,3.4-56,10.2C78.8,27.4,52.7,48.2,32.1,78.4C12.5,107.5,2.7,140.1,2.7,176v638.5
	c0,46.7,15.9,87,47.6,121c33,33,71.5,49.6,116.3,49.6c45.8,0,84.5-16.5,116.3-49.6c32.7-34,49-74.3,49-121V698.4
	c0.4-25.1,25.2-18.6,37.8,0c23.6,42.5,73.5,78.9,131.7,78.7c58.2-0.2,106.5-30.1,131.7-78.7c9.6-11.7,36.5-31.7,39.2,0v116.1
	c0,46.7,15.9,87,47.6,121c32.7,33,71.4,49.6,116.3,49.6c46.4,0,84.5-16.5,116.3-49.6c32.7-34,49-74.3,49-121V176
	c0-36-10.3-68.5-30.8-97.7c-19.6-30.1-45.3-51-77-62.7c-17.9-6.7-36.9-10.1-56-10.2c-50.4,0-92.9,20.4-127.5,61.2L543.8,269.3
	c-2.9,2.9-16.1,25.2-42.4,25.2c-26.3,0-37.3-22.3-41-25.2L292.6,66.7C259.8,25.9,217.5,5.5,166.6,5.5L166.6,5.5z"/>
<path class="st0" d="M1203.7,5.5c-39.9,0-73.5,14.6-101.5,43.7c-27.1,28.2-40.6,62.7-40.6,103.5s13.5,75.8,40.6,105
	c28,28.2,61.6,42.3,101.5,42.3c38.5,0,72.2-14.1,100.2-42.3c28-29.2,42-64.2,42-105s-14-75.3-42-103.5
	C1275.9,20.1,1242.2,5.5,1203.7,5.5z"/>
<path class="st0" d="M1204.4,329.1c-39.2,0-72.9,14.6-100.9,43.7c-28,29.2-42,64.2-42,105v360c0,40.8,14,76.5,42,105
	c28,28.2,61.6,42.3,100.9,42.3s72.4-14.1,99.5-42.3c28-28.4,42-64.1,42-105v-360c0-40.8-14-75.8-42-105
	C1276.8,343.7,1243.6,329.1,1204.4,329.1z"/>
</svg>
