<?xml version="1.0" encoding="UTF-8"?>
<svg id="_레이어_1" data-name="레이어 1" xmlns="http://www.w3.org/2000/svg" version="1.1" viewBox="0 0 52.2 48">
  <defs>
    <style>
      .cls-1 {
        fill: #fff;
        stroke-width: 0px;
      }
    </style>
  </defs>
  <path class="cls-1" d="M39.6,46.4c1.4,1.1,3.1,1.6,4.8,1.6s2.4-.3,3.5-.9c2.8-1.3,4.4-4,4.3-7V8c0-3.1-1.7-5.8-4.4-7.1C46.8.4,45.8,0,44.6,0,42.9,0,41.2.5,39.7,1.6l-13.4,10.2h0c0,0,0,0,0,0L12.7,1.6c-1.4-1.2-3.2-1.6-4.9-1.6-1.2,0-2.2.4-3.2.9-1.4.7-2.6,1.6-3.4,2.9h0c0,0,0,.2-.2.3-.7,1.2-1.1,2.5-1.1,3.9v32.1c0,3.1,1.7,5.8,4.4,7.1,1.2.6,2.4.9,3.5.9,1.7,0,3.4-.6,4.8-1.6l13.4-10.3s13.5,10.3,13.5,10.3ZM47.8,40.1h0c0,1.3-.7,2.5-1.8,3.1s-2.5.4-3.6-.4l-12.5-9.5h0c0,0,0,0,0,0l1-.8,7.3-5.6,9.6,7.4s0,5.9,0,5.9ZM47.8,19.5v9l-5.9-4.5h0,0l5.9-4.5c0,0,0,0,0,0ZM42.4,5.3c1.1-.8,2.4-.9,3.6-.3.3,0,.6.3.8.5.7.6,1.1,1.4,1.1,2.5v5.8l-9.6,7.4-8.3-6.4s12.5-9.4,12.5-9.4ZM4.5,13.6v-5.7c0-1.3.8-2.5,1.9-3.1.5-.3,1.1-.4,1.5-.4s1.3.3,1.9.7l12.5,9.4-8.3,6.5s-9.6-7.5-9.6-7.5ZM4.5,28.4v-9l5.9,4.5h0,0l-5.9,4.5c0,0,0,0,0,0ZM13,40.4l-3.1,2.3c-1.1.9-2.4,1-3.6.4s-1.8-1.6-1.8-3v-5.9h0c0,0,2.1-1.7,2.1-1.7,2.6-2,7.4-5.8,7.4-5.8h0l8.3,6.4s-6,4.6-9.5,7.2ZM26.1,30.3h0l-.7-.6-7.6-5.9,8.4-6.4,4,3.2,4.2,3.3-7.8,6-.3.2s-.2.2-.2.2Z"/>
</svg>