<?xml version="1.0" encoding="UTF-8"?>
<svg id="_레이어_1" data-name="레이어 1" xmlns="http://www.w3.org/2000/svg" viewBox="0 0 194.18 77.868">
  <defs>
    <style>
      .cls-1 {
        fill: #fdfdfe;
        stroke-width: 0px;
      }
    </style>
  </defs>
  <path class="cls-1" d="M17.473,26.281c-.218.605-.142,1.199-.144,1.777-.043,12.979-.079,25.959-.116,38.939q-.004,1.547-1.527,1.548c-4.873,0-9.747-.019-14.62.019-.838.007-1.066-.228-1.065-1.067C.024,45.531.024,23.565,0,1.599,0,.72.2.445,1.118.453c5.232.045,10.465.039,15.698.003.744-.005,1.151.294,1.557.848,4.82,6.562,9.658,13.112,14.499,19.675.461-.102.609-.501.839-.789,5.002-6.276,10.003-12.552,14.978-18.85.488-.618.981-.891,1.792-.885,5.113.04,10.226.043,15.338-.002.906-.008,1.13.244,1.129,1.136-.025,21.966-.024,43.932-.002,65.898,0,.833-.214,1.072-1.058,1.065-4.873-.04-9.747-.052-14.619.007-1.043.013-1.33-.236-1.326-1.305.04-13.06.026-26.12.026-39.179v-1.77c-.529.599-.834.931-1.125,1.276-4.862,5.772-9.734,11.536-14.57,17.33-.604.724-.889.786-1.523-.007-4.689-5.862-9.429-11.682-14.163-17.508-.314-.387-.546-.873-1.114-1.117Z"/>
  <path class="cls-1" d="M89.491,77.868c-1.467-2.66-2.684-5.386-3.833-8.139-3.393-8.126-6.014-16.478-7.18-25.235-.905-6.792-.868-13.553,1.157-20.169,3.039-9.927,9.855-16.267,19.31-20.026,6.296-2.503,12.898-3.569,19.611-4.058,5.228-.381,10.458-.254,15.689-.007.942.044,1.385.36,1.658,1.282,1.164,3.936,2.374,7.86,3.649,11.762.325.995.059,1.1-.847,1.097-8.069-.023-16.138.005-24.207,0-7.998-.004-14.138,4.178-17.001,11.632-.542,1.41-1.094,2.816-1.243,4.354-.087.897.074,1.352,1.085,1.364,6.59.078,13.18.173,19.769.303.894.018.813-.479.825-1.057.081-4.193.201-8.385.244-12.578.009-.906.211-1.217,1.187-1.208,5.473.051,10.946.047,16.419.002.898-.007,1.117.225,1.119,1.12.035,16.216.109,32.431.168,48.647.006,1.702.185,1.505-1.561,1.507-5.393.008-10.787-.025-16.179.027-1.019.01-1.256-.298-1.25-1.276.04-6.91,0-13.82.044-20.73.006-1.023-.217-1.366-1.309-1.358-6.791.052-13.583.038-20.374.012-.895-.003-1.258.114-1.091,1.179.86,5.495,2.108,10.881,4.233,16.036.853,2.07,1.878,4.056,3.253,5.837.342.443.472.695-.132,1.083-4.397,2.827-8.766,5.697-13.21,8.596Z"/>
  <path class="cls-1" d="M151.999,34.205c0-10.984.013-21.969-.022-32.953-.003-.995.24-1.272,1.256-1.238,4.91.166,9.823.277,14.735.336,1.01.012,1.234.328,1.232,1.299-.03,16.936-.025,33.872-.017,50.808,0,1.618-.295,1.496,1.553,1.51,7.51.058,15.019.131,22.529.147.952.002,1.025.298.826,1.099-1.018,4.102-2.019,8.208-2.963,12.327-.17.742-.449.955-1.187.953-12.305-.021-24.609-.028-36.914.009-1.029.003-1.039-.461-1.038-1.224.015-11.024.011-22.049.011-33.073Z"/>
</svg>