<?xml version="1.0" encoding="UTF-8"?>
<svg id="_레이어_1" data-name="레이어 1" xmlns="http://www.w3.org/2000/svg" viewBox="0 0 467.799 169.736">
  <defs>
    <style>
      .cls-1 {
        fill: #fff;
        stroke-width: 0px;
      }
    </style>
  </defs>
  <path class="cls-1" d="M39.017,73.945c0,1.884,0,3.768,0,5.651.003,28.316-.086,56.633.112,84.947.029,4.198-1.093,5.319-5.241,5.181-9.649-.32-19.318-.206-28.976-.037C1.503,169.748-.011,169.179,0,165.129.152,111.495.132,57.861.03,4.227.023.92.976-.014,4.213.045,14.203.227,24.204.297,34.188.006c3.655-.106,5.654,1.11,7.502,4.176,13.482,22.372,27.133,44.641,40.747,66.933.757,1.24,1.205,2.78,3.054,3.436,10.742-17.561,21.587-35.097,32.214-52.763,3.844-6.39,8.431-12.369,11.217-19.371.841-2.113,2.52-2.3,4.442-2.297,10.992.019,21.986.089,32.976-.079,2.973-.045,3.563,1.09,3.56,3.778-.061,53.967-.069,107.934.016,161.901.005,3.043-.828,4.025-3.918,3.973-10.157-.172-20.323-.254-30.475.031-3.964.111-4.618-1.369-4.603-4.907.129-28.815.075-57.631.076-86.447,0-1.654,0-3.308,0-5.026-1.998-.077-2.238,1.526-2.832,2.498-12.922,21.154-25.781,42.347-38.664,63.525-3.192,5.247-5.764,5.26-8.98-.011-12.216-20.026-24.398-40.074-36.604-60.107-1.157-1.899-2.397-3.747-3.599-5.618-.434.105-.867.209-1.301.314Z"/>
  <path class="cls-1" d="M199.705,169.199c50.11-53.236,99.513-105.72,148.956-158.248,1.959,1.921.667,2.888-.018,3.897-3.833,5.643-7.517,11.401-11.616,16.846-1.915,2.544-1.901,4.27-.278,6.999,18.617,31.306,16.96,70.52-4.318,98.753-14.298,18.972-33.537,30.317-57.187,31.481-24.739,1.218-49.584.272-75.539.272ZM268.456,132.139c34.86-.994,49.202-32.736,41.587-60.936-13.875,20.331-27.511,40.311-41.587,60.936Z"/>
  <path class="cls-1" d="M368.391,84.094c0-26.305.069-52.611-.077-78.915-.021-3.767.768-5.208,4.884-5.063,9.311.329,18.658.433,27.957-.034,5.091-.256,5.85,1.549,5.828,6.138-.186,39.623-.017,79.249-.225,118.872-.025,4.752,1.433,5.751,5.863,5.686,16.81-.248,33.628-.003,50.44-.194,3.733-.042,4.836,1.008,4.731,4.77-.27,9.649-.194,19.312-.027,28.965.052,3.011-.789,3.982-3.904,3.971-30.464-.108-60.93-.139-91.394.028-3.976.022-4.13-1.773-4.122-4.809.076-26.471.044-52.943.044-79.415Z"/>
  <path class="cls-1" d="M173.25,100.044c8.316,1.123,14.928,3.405,21.561,5.426,3.879,1.182,4.722.467,4.703-3.562-.152-31.981-.012-63.963-.171-95.944-.021-4.298.743-5.948,5.595-5.877,21.148.307,42.304.022,63.456.164,21.033.141,39.297,7.436,54.888,21.625,2.747,2.5,2.694,3.721-.272,5.879-7.935,5.776-15.696,11.796-23.421,17.854-1.838,1.442-3.112,1.765-5.139.237-8.015-6.041-17.299-8.329-27.171-8.46-8.16-.108-16.329.17-24.48-.119-3.705-.131-4.867.852-4.816,4.668.206,15.155-.013,30.315.138,45.472.031,3.142-.819,5.164-3.422,7.071-10.871,7.966-21.631,16.09-32.266,24.37-2.348,1.828-3.734,1.707-5.925-.115-7.261-6.041-14.712-11.854-23.258-18.689Z"/>
</svg>