<?xml version="1.0" encoding="utf-8"?>
<!-- Generator: Adobe Illustrator 28.1.0, SVG Export Plug-In . SVG Version: 6.00 Build 0)  -->
<svg version="1.1" id="레이어_1" xmlns="http://www.w3.org/2000/svg" xmlns:xlink="http://www.w3.org/1999/xlink" x="0px"
	 y="0px" viewBox="0 0 220 220" style="enable-background:new 0 0 220 220;" xml:space="preserve">
<style type="text/css">
	.st0{fill:#FFFFFF;}
	.st1{display:none;}
	.st2{display:inline;fill:#FFFFFF;}
</style>
<path class="st0" d="M194.4,84.7c-14,0.1-25.3,11.6-25.2,25.6c0,1.7,0.2,3.4,0.5,5.1l-43.2,18.3l-13.8-32.5
	c5.8-4.7,9.4-11.9,9.4-19.9c-0.1-14-11.6-25.3-25.6-25.2c-14,0.1-25.3,11.6-25.2,25.6c0.1,14,11.6,25.3,25.6,25.2
	c1.2,0,2.3-0.1,3.4-0.3l4.7,11.1l-36.2,15.3L47,81.5c6.2-4.7,10.2-12.1,10.2-20.5c-0.1-14-11.6-25.3-25.6-25.2
	c-14,0.1-25.3,11.6-25.2,25.6c0.1,14,11.6,25.4,25.6,25.2c0.8,0,1.6-0.1,2.5-0.1l22,51.9L45.3,143c-4.7-5.9-12-9.7-20.1-9.7
	C11.2,133.5-0.1,145,0,159c0.1,14,11.6,25.3,25.6,25.2c14-0.1,25.3-11.6,25.2-25.6c0-1-0.1-2.1-0.2-3.1l59.7-25.3l15.1,35.6
	c1.5,3.4,5.4,5.1,8.9,3.6c3.4-1.5,5.1-5.4,3.6-8.9l-6.1-14.4l44.2-18.7c4.7,5,11.4,8.2,18.8,8.1l0,0c14-0.1,25.3-11.6,25.2-25.6
	C219.9,95.9,208.4,84.6,194.4,84.7z M31.8,71.6c-5.8,0-10.6-4.6-10.6-10.4c0-5.8,4.6-10.6,10.4-10.6c5.8,0,10.6,4.6,10.6,10.4
	C42.3,66.8,37.6,71.6,31.8,71.6z M25.5,169.3c-5.8,0-10.6-4.6-10.6-10.5c0-5.8,4.6-10.5,10.4-10.6c5.8,0,10.6,4.7,10.6,10.5
	C36,164.5,31.3,169.2,25.5,169.3z M96.8,91.9c-5.8,0-10.6-4.6-10.6-10.4c0-5.8,4.6-10.6,10.4-10.6c5.8,0,10.6,4.7,10.6,10.4
	C107.3,87.2,102.6,91.9,96.8,91.9z M194.6,120.6c-5.8,0-10.6-4.6-10.6-10.4c0-5.8,4.6-10.6,10.4-10.6c5.8,0,10.6,4.6,10.6,10.4
	C205.1,115.8,200.4,120.6,194.6,120.6z"/>
<g class="st1">
	<path class="st2" d="M110,0C49.2,0,0,49.2,0,110c0,60.8,49.2,110,110,110c60.8,0,110-49.2,110-110C220,49.2,170.8,0,110,0z
		 M181.8,129.1c-5.5,0-10.6-2.3-14.1-6.1l-33.1,14l4.6,10.8c1.1,2.6-0.1,5.6-2.7,6.7c-2.6,1.1-5.6-0.1-6.7-2.7l-11.3-26.7
		l-44.8,18.9c0.1,0.8,0.2,1.6,0.2,2.3c0.1,10.5-8.4,19.1-18.9,19.2c-10.5,0.1-19.1-8.4-19.2-18.9c-0.1-10.5,8.4-19.1,18.9-19.2
		c6.1,0,11.5,2.8,15.1,7.2l8.3-3.5L61.6,92.3c-0.6,0.1-1.2,0.1-1.8,0.1C49.3,92.5,40.7,84,40.6,73.5C40.5,63,49,54.4,59.5,54.3
		c10.5-0.1,19.1,8.4,19.2,18.9c0,6.3-3,11.8-7.6,15.4l16.4,38.7l27.1-11.5l-3.5-8.3c-0.8,0.1-1.7,0.2-2.6,0.2
		c-10.5,0.1-19.1-8.4-19.2-18.9c-0.1-10.5,8.4-19.1,18.9-19.2c10.5-0.1,19.1,8.4,19.2,18.9c0,6-2.7,11.4-7,14.9l10.3,24.3L163,114
		c-0.3-1.2-0.4-2.5-0.4-3.8c-0.1-10.5,8.4-19.1,18.9-19.2c10.5-0.1,19.1,8.4,19.2,18.9C200.8,120.4,192.3,129,181.8,129.1z"/>
	<path class="st2" d="M67.5,73.3c0-4.3-3.6-7.9-7.9-7.8c-4.4,0-7.9,3.6-7.8,7.9c0,4.4,3.6,7.9,7.9,7.8C64,81.2,67.6,77.6,67.5,73.3z
		"/>
	<path class="st2" d="M54.9,138.6c-4.4,0-7.9,3.6-7.8,7.9c0,4.4,3.6,7.9,7.9,7.8c4.3,0,7.9-3.6,7.8-7.9
		C62.8,142.1,59.2,138.6,54.9,138.6z"/>
	<path class="st2" d="M116.2,88.5c0-4.3-3.6-7.9-7.9-7.8c-4.4,0-7.9,3.6-7.8,7.9c0,4.3,3.6,7.9,7.9,7.8
		C112.7,96.4,116.3,92.9,116.2,88.5z"/>
	<path class="st2" d="M181.6,102.2c-4.3,0-7.9,3.6-7.8,8c0,4.3,3.6,7.9,7.9,7.8c4.3,0,7.9-3.6,7.8-7.9
		C189.5,105.7,186,102.1,181.6,102.2z"/>
</g>
</svg>
