<?xml version="1.0" encoding="utf-8"?>
<!-- Generator: Adobe Illustrator 28.1.0, SVG Export Plug-In . SVG Version: 6.00 Build 0)  -->
<svg version="1.1" id="aside_cafe_logo" xmlns="http://www.w3.org/2000/svg" xmlns:xlink="http://www.w3.org/1999/xlink" x="0px"
	 y="0px" viewBox="0 0 21.2 21.2" style="enable-background:new 0 0 21.2 21.2;" xml:space="preserve">
<style type="text/css">
	.st0{fill-rule:evenodd;clip-rule:evenodd;fill:#FFFFFF;}
	.st1{fill:#FFFFFF;}
</style>
<path class="st0" d="M10.8,6.7H6.3C6.4,4.2,8.5,2.3,11,2.3h4.5C15.4,4.7,13.3,6.7,10.8,6.7L10.8,6.7z"/>
<path class="st1" d="M17.8,8.2h-1.9v0H3.7c-0.5,0-0.9,0.4-0.9,0.9v3.9c0,3.9,3.2,7.1,7.1,7.1c3.1,0,5.8-2.1,6.7-4.9h1.2
	c1.9,0,3.5-1.6,3.5-3.5S19.7,8.2,17.8,8.2z M17.8,14h-0.7V9.5h0.7c1.3,0,2.3,1,2.3,2.3S19,14,17.8,14z"/>
</svg>
