<?xml version="1.0" encoding="utf-8"?>
<!-- Generator: Adobe Illustrator 28.2.0, SVG Export Plug-In . SVG Version: 6.00 Build 0)  -->
<svg version="1.1" id="레이어_1" xmlns="http://www.w3.org/2000/svg" xmlns:xlink="http://www.w3.org/1999/xlink" x="0px"
	 y="0px" viewBox="0 0 15.5 15.5" style="enable-background:new 0 0 15.5 15.5;" xml:space="preserve">
<style type="text/css">
	.st0{fill:#00DE5A;}
</style>
<g>
	<ellipse class="st0" cx="8" cy="7.6" rx="1" ry="1.1"/>
	<path class="st0" d="M7.7,0C3.5,0,0,3.5,0,7.7c0,4.3,3.5,7.7,7.7,7.7c4.3,0,7.7-3.5,7.7-7.7C15.5,3.5,12,0,7.7,0z M4,9.4
		C3.6,9.4,3.3,9.3,3,9v1.4H2.2V5.9H3v0.3C3.3,6,3.6,5.8,4,5.8c1,0,1.7,0.8,1.7,1.8S5,9.4,4,9.4z M9.7,9.3H8.9V9
		C8.6,9.2,8.3,9.4,7.9,9.4c-1,0-1.7-0.8-1.7-1.8c0-1,0.8-1.8,1.7-1.8c0.4,0,0.8,0.1,1.1,0.4V5.9h0.8V9.3z M11.9,10.4h-0.8L11.8,9
		l-1.6-3.1h0.8l1.1,2.2l1-2.2H14L11.9,10.4z"/>
	<path class="st0" d="M3.9,6.5c-0.6,0-1,0.5-1,1.1c0,0.6,0.5,1.1,1,1.1C4.5,8.7,5,8.3,5,7.6C5,7,4.5,6.5,3.9,6.5z"/>
</g>
</svg>
