<?xml version="1.0" encoding="utf-8"?>
<!-- Generator: Adobe Illustrator 28.1.0, SVG Export Plug-In . SVG Version: 6.00 Build 0)  -->
<svg version="1.1" id="Layer_1" xmlns="http://www.w3.org/2000/svg" xmlns:xlink="http://www.w3.org/1999/xlink" x="0px" y="0px"
	 viewBox="0 0 350 350" style="enable-background:new 0 0 350 350;" xml:space="preserve">
<style type="text/css">
	.st0{fill:#FFFFFF;}
</style>
<g>
	<path class="st0" d="M350,186.1v126.4c0,20.7-17.5,37.5-39.1,37.5H39.1C17.5,350,0,333.2,0,312.5V186.1L350,186.1L350,186.1z
		 M115.6,227.6v77.5c0,2.2,1.4,4,3.1,4h112.5c1.7,0,3.1-1.8,3.1-4v-77.5c0-2.2-1.4-4-3.1-4H118.7C117,223.6,115.6,225.4,115.6,227.6
		z M36.5,232.9c0,11.7,9.5,21.3,21.3,21.3c11.7,0,21.2-9.5,21.2-21.3c0-11.7-9.5-21.3-21.2-21.3C46,211.6,36.5,221.1,36.5,232.9z
		 M300.4,225.1c0-5.4-4.4-9.8-9.8-9.8c-5.4,0-9.8,4.4-9.8,9.8c0,5.4,4.4,9.8,9.8,9.8C296,234.9,300.4,230.5,300.4,225.1z
		 M280.8,262.6c0,5.4,4.4,9.8,9.8,9.8c5.4,0,9.8-4.4,9.8-9.8s-4.4-9.8-9.8-9.8C285.2,252.7,280.8,257.1,280.8,262.6z M262,243.8
		c0,5.4,4.4,9.8,9.8,9.8c5.4,0,9.8-4.4,9.8-9.8s-4.4-9.8-9.8-9.8C266.4,234,262,238.4,262,243.8z M309.3,253.7
		c5.4,0,9.8-4.4,9.8-9.8s-4.4-9.8-9.8-9.8c-5.4,0-9.8,4.4-9.8,9.8S303.9,253.7,309.3,253.7z M37.2,301.9h14.7v14.6h11.9v-14.6h14.6
		V290H63.8v-14.6H51.9V290H37.2V301.9z"/>
	<path class="st0" d="M0,170.8V39.1C0,17.5,17.5,0,39.1,0h271.9C332.5,0,350,17.5,350,39.1v131.7H0z M89.3,49v88.1
		c0,2.5,2,4.6,4.5,4.6h162c2.5,0,4.5-2.1,4.5-4.6V49c0-2.5-2-4.6-4.5-4.6h-162C91.4,44.4,89.3,46.5,89.3,49z M321.6,115.4
		c0,8.2,2.7,14.8,6,14.8c3.3,0,6-6.6,6-14.8c0-8.2-2.7-14.8-6-14.8C324.3,100.6,321.6,107.2,321.6,115.4z"/>
</g>
</svg>
