<?xml version="1.0" encoding="utf-8"?>
<!-- Generator: Adobe Illustrator 28.1.0, SVG Export Plug-In . SVG Version: 6.00 Build 0)  -->
<svg version="1.1" id="레이어_1" xmlns="http://www.w3.org/2000/svg" xmlns:xlink="http://www.w3.org/1999/xlink" x="0px"
	 y="0px" viewBox="0 0 300 300" style="enable-background:new 0 0 300 300;" xml:space="preserve">
<style type="text/css">
	.st0{fill-rule:evenodd;clip-rule:evenodd;fill:#FFFFFF;}
</style>
<path class="st0" d="M273.2,55.9H186l35.8-34.1c4.9-4.8,5.2-12.6,0.6-17.7c-4.4-4.9-12-5.4-17-0.9c-0.1,0.1-0.2,0.2-0.3,0.3
	L150,55.9L94.9,3.4c-4.8-4.6-12.4-4.5-17,0.3c-0.1,0.1-0.2,0.2-0.3,0.3c-4.6,5.1-4.3,13,0.6,17.7L114,55.9H26.8
	C11.9,56-0.1,68.1,0,83V246c0,15,12,27.2,26.8,27.2h34L81.1,297c2.6,3.4,7.5,4,10.9,1.3c0.5-0.4,0.9-0.8,1.3-1.3l20.2-23.8h72.9
	l20.2,23.8c2.6,3.4,7.5,4,10.9,1.3c0.5-0.4,0.9-0.8,1.3-1.3l20.2-23.8h34C288,273.1,300,261,300,246V83C300,68,288,55.9,273.2,55.9"
	/>
</svg>
