<?xml version="1.0" encoding="utf-8"?>
<!-- Generator: Adobe Illustrator 28.1.0, SVG Export Plug-In . SVG Version: 6.00 Build 0)  -->
<svg version="1.1" id="레이어_1" xmlns="http://www.w3.org/2000/svg" xmlns:xlink="http://www.w3.org/1999/xlink" x="0px"
	 y="0px" viewBox="0 0 300 297.4" style="enable-background:new 0 0 300 297.4;" xml:space="preserve">
<style type="text/css">
	.st0{fill-rule:evenodd;clip-rule:evenodd;fill:#FFFFFF;}
</style>
<g>
	<path class="st0" d="M238.3,128.3l-0.9-1.9l-2.8-2.8c-0.9-0.9-2.8-2.8-4.7-2.8v-0.9h-9.3l-0.9,0.9h-1.9v0.9l-2.8,1.9l-1.9,0.9v0.9
		l-1.9,1.9v9.3l0.9,1.9v1.9l0.9,0.9v0.9l1.9,1.9v0.9h0.9l1.9,2.8h7.5l1.9-0.9h4.7l2.8-2.8h1.9v-0.9h0.9v-0.9l1.9-3.7v-1.9v-0.9v-2.8
		l-0.9-2.8V128.3z"/>
	<path class="st0" d="M167.3,209.6l-1.9-1.9c-1.2-1.3-2.4-2.6-3.7-3.7l-1.9-2.8l-5.6-5.6l-4.7-0.9h-2.8l-1.9,2.8l-3.7,2.8l-3.7,3.7
		l-1.9,2.8l-2.8,1.9l-1.9,2.8l-2.8,2.8v4.7l1.9,1.9H171l1.9-3.7v-1.9l-1.9-2.8L167.3,209.6z"/>
	<path class="st0" d="M87.9,155.4l-1.9-2.8c-1.4-1.1-3-2.1-4.7-2.8l-1.9-0.9h-3.7l-3.7,0.9H71l-1.9,0.9l-2.8,1.9h-1.9v0.9h-0.9v0.9
		c-0.9,0-1.9,0.9-1.9,2.8l-0.9,1.9v6.5l3.7,7.5c1.9,0.9,2.8,2.8,4.7,2.8l1.9,0.9h9.3c1.7-0.7,3.3-1.6,4.7-2.8l1.9-2.8l0.9-1.9v-0.9
		h0.9v-3.7h0.9v-5.6l-1.9-2.8V155.4z"/>
	<path class="st0" d="M299.1,248.8v-24.3l-0.9-4.7v-19.6l0.9-3.7v-77.6l-0.9-6.5v-10.3l0.9-1.9c-0.1-2.2-0.1-4.4,0-6.5V68.4
		c0-2.8-0.9-6.5-2.8-9.3l-1.9-1.9l-7.5-0.9h-9.3l-4.7,0.9h-12.1l-7.5-0.9h-43l-4.7,0.9h-29.9l2.8-1.9l0.9-0.9l1.9-2.8l2.8-1.9h0.9
		l4.7-3.7l2.8-2.8l3.7-2.8l1.9-2.8l2.8-2.8l3.7-3.7l2.8-2.8l3.7-3.7l1.9-1.9l3.7-2.8l2.8-3.7l0.9-1.9l1.9-1.9l1.9-1.9l0.9-1.9V4.9
		c0-1.9-0.9-3.7-2.8-3.7c-2-1.1-4.3-1.4-6.5-0.9c-0.9,0-1.9,0-2.8,1.9L211.2,4h-0.9l-0.9,1.9l-3.7,1.9l-1.9,2.8l-1.9,1.9l-1.9,1.9
		l-1.9,2.8l-3.7,1.9l-1.9,2.8l-2.8,2.8l-2.8,2.8l-3.7,3.7l-1.9,0.9c-1,0.5-1.9,1.2-2.8,1.9l-2.8,2.8l-3.7,2.8l-2.8,2.8h-0.9
		l-2.8,2.8l-1.9,1.9l-1.9,1.9l-4.7,4.7c-1.4,0.8-2.6,1.7-3.7,2.8l-1.9,0.9h-0.9l-1.9-0.9l-2.8-2.8l-2.8-1.9l-1.9-1.9l-2.8-2.8
		l-2.8-1.9l-5.6-3.7l-1.9-1.9l-3.7-3.7l-1.9-0.9c0-1.9-1.9-2.8-2.8-3.7l-1.9-1.9l-3.7-3.7l-2.8-1.9l-2.8-2.8l-3.7-3.7l-1.9-1.9
		l-3.7-2.8v-0.9l-1.9-1.9l-3.7-2.8L89.7,4L88.8,3l-0.9-0.9L85,1.2h-6.5L75.7,3v6.5l0.9,1.9l2.8,2.8l2.8,1.9l4.7,4.7l2.8,2.8l0.9,0.9
		l1.9,2.8l1.9,0.9l1.9,1.9v0.9l2.8,1.9l1.9,1.9l3.7,2.8l2.8,1.9l1.9,1.9l1.9,1.9L114,46h0.9l2.8,2.8l1.9,3.7l3.7,3.7l0.9,0.9h-3.7
		l-6.5,0.9H85c-1.8-0.6-3.7-0.9-5.6-0.9H66.4c-0.9,0-1.9,0-2.8,0H21.5l-4.7,0.9h-6.5c-2.1,0.3-4.1,1.3-5.6,2.8l-3.7,3.7v73.8
		L0,143.2l0.9,8.4V261l0.9,2.8c0,1.9,1.9,3.7,3.7,4.7h1.9c0.9,1.9,2.8,1.9,4.7,1.9H57v0.9l3.7,6.5l3.7,3.7l1.9,4.7l1.9,2.8l1.9,0.9
		l3.7,2.8l0.9,1.9l2.8,0.9l5.6,1.9h4.7l3.7-0.9c2.8,0,4.7-1.9,5.6-3.7l3.7-3.7h0.9l1.9-2.8l1.9-3.7l1.9-1.9l4.7-7.5v-2.8h36.4
		l2.8-0.9l7.5,0.9h19.6c1.9,0,4.7-0.9,7.5,0l2.8-0.9c0,1.9,0.9,3.7,2.8,4.7c2.2,2.2,4.1,4.8,5.6,7.5l2.8,3.7l1.9,1.9l2.8,2.8
		l1.9,1.9c0.9,1.9,2.8,2.8,5.6,2.8l4.7,1.9h0.9l7.5-0.9l3.7-1.9l2.8-1.9v-0.9l3.7-5.6l0.9-1.9l4.7-4.7l0.9-1.9l0.9-3.7l2.8-2.8h30.8
		c0,0,0.9-0.9,1.9,0l3.7-0.9h9.3c0,0,1.9,0,2.8-1.9l1.9-1.9l1.9-1.9l1.9-4.7v-1.9l0,0.9v-3.7L299.1,248.8z M98.1,274.1l-1.9,2.8
		l-1.9,2.8l-4.7,4.7v0c-1.9,1.9-3.7,1.9-5.6,1.9c-2.8-0.9-2.8,0-5.6-3.7l-3.7-3.7v-0.9l-1.9-3.7l-1.9-1.9c0.9-0.9,1.9-0.9,1.9,0
		h15.9c1.9-0.3,3.7-0.3,5.6,0h2.8c0.9,0,1.9,0,2.8,0L98.1,274.1z M232.7,271.3v0.9l-2.8,3.7l-2.8,4.7l-2.8,1.9l-0.9,0.9l-1.9,0.9
		c-2.8,1.9-5.6,1.9-7.5,0l-1.9-0.9l-5.6-6.5l-2.8-5.6H232.7v-0.9h0.9L232.7,271.3z M288.8,207.7l-0.9,5.6v9.3l0.9,0.9v31.8l-1.9,4.7
		H286l-4.7,1.9h-23.4l-1.9-1.9h-3.7l-3.7,1.9h-44.9h-43.9c0,0-1.9,0.9-1.9,0H87.8L85,261H74.8l-4.7,0.9H43l-3.7-0.9h-9.3l-3.7-0.9
		c-3.1,0.8-6.3,0.8-9.3,0l-3.7-1.9v-3.7l-0.9-4.7V247l0.9-2.8v-65.4l-0.9-4.7V161l0.9-5.6v-57l0.9-5.6V74.1c0-1.9,0.9-3.7,2.8-4.7
		h3.7c0.9,0.1,1.9,0.1,2.8,0H28c1.2-0.3,2.5-0.3,3.7,0h37.4c1.2,0.3,2.5,0.3,3.7,0h6.5c1.9,0.9,3.7,0,5.6-0.9h25.2l2.8,0.9H143
		l4.7-0.9c1.9-0.2,3.7-0.2,5.6,0h4.7l4.7,0.9h2.8c0.9,0.1,1.9,0.1,2.8,0h24.3c1.2,0.3,2.5,0.3,3.7,0h10.3c1.2-0.1,2.5-0.1,3.7,0
		h20.6c0.9,0.9,2.8,0,3.7,0h9.3c1.9-0.1,3.8-0.4,5.6-0.9h11.2l5.6,0.9h1.9l8.4,0.9h6.5c1.3-0.1,2.6,0.2,3.7,0.9l1.9,2.8V207.7z"/>
	<path class="st0" d="M275.7,87.1c0-1.9,0-2.8-1.9-3.7h-3.7l-7.5,0.9h-44.9l-7.5-0.9h-12.2c-3.4,0.4-6.9,0.4-10.3,0h-53.3l-4.7,0.9
		H77.6c-3.1-0.4-6.2-0.4-9.3,0H29.9c-1.9,0-3.7,0.9-3.7,2.8v6.5l-0.9,4.7v57l0.9,12.2v75.7c0,0.1,0,0.2-0.1,0.2
		c-0.4,2,0.8,4,2.9,4.4h27.1l3.7-0.9H71l5.6,0.9h3.7c2.8-0.9,5.6-0.9,7.5,0h2.8l12.2-0.9h4.7c2.2-0.2,4.4-0.2,6.5,0h3.7l6.5,0.9
		h31.8c2.5,0.5,5,0.5,7.5,0l2.8-0.9h23.4c0.9,0.9,2.8,0.9,3.7,0h43c2.5-0.2,5-0.2,7.5,0l2.8,0.9h5.6c3.1,0.7,6.3,0.7,9.3,0h11.2
		c0.9-0.9,2.8-0.9,2.8-2.8v-8.4l0.9-6.5V111.4l-0.9-7.5V87.1z M268.2,199.3v14l0-0.9v18.7l-0.9,3.7c-0.9,0.9-0.9,2.8-2.8,2.8v0.9
		l-3.7,1.9H139.3c-0.9,0-0.9,0.9-0.9,0H40.2l-7.5-4.7V232l-0.9-7.5v-97.2l0.9-5.6V99.3l1.9-5.6l2.8-1.9l3.7-1.9
		c2.2-0.4,4.4-0.4,6.5,0h26.2c0-0.9,1.9-0.9,1.9,0h13.1c0-0.9,0.9,0,0.9,0h2.8c0.9-0.9,1.9-0.9,3.7,0h57.9c3.1,0.5,6.3,0.5,9.3,0
		h30.8c1.6,0.2,3.1,0.2,4.7,0h53.3l5.6,0.9c1.6-0.1,3.1-0.1,4.7,0l3.7,2.8c1.9,1.9,1.9,4.7,1.9,7.5v23.4l0.9,4.7v39.3
		c0.1,3.5-0.2,6.9-0.9,10.3v4.7C268.8,188.7,268.8,194,268.2,199.3z"/>
</g>
</svg>
