<?xml version="1.0" encoding="utf-8"?>
<!-- Generator: Adobe Illustrator 28.1.0, SVG Export Plug-In . SVG Version: 6.00 Build 0)  -->
<svg version="1.1" id="레이어_1" xmlns="http://www.w3.org/2000/svg" xmlns:xlink="http://www.w3.org/1999/xlink" x="0px"
	 y="0px" viewBox="0 0 400 400" style="enable-background:new 0 0 400 400;" xml:space="preserve">
<style type="text/css">
	.st0{fill:#FFFFFF;}
</style>
<g>
	<path class="st0" d="M185.5,390.1c-6-0.3-11.9-1.1-13.1-1.8c-1.2-0.7-6.6-1.5-12-1.8c-5.4-0.4-12.6-1.5-15.9-2.6
		c-3.3-1-8.3-2.3-11.2-2.9c-2.9-0.5-7.4-2-10-3.3c-2.6-1.4-5.9-2.8-7.3-3.2c-2.5-0.8-16.2-6.9-19-8.5c-13.4-7.8-27.8-18.5-31.7-23.4
		c-1.2-1.4-2.5-2.6-3-2.6c-1.2,0-15-18.4-17.1-22.7c-0.9-1.8-1.9-3.3-2.3-3.3c-0.4,0-1-1.5-1.4-3.2c-0.4-1.8-1.4-4.4-2.3-5.8
		c-2.1-3.2-4.2-8.7-4.8-12.3c-0.2-1.5-1-4.1-1.9-5.7c-3-5.7-4.1-14.4-4.2-31c-0.1-20.8,1-31.3,4.1-38.2c0.9-2.1,1.9-5.7,2.1-8
		c0.3-2.3,1.7-6.9,3.1-10.3c3.5-8.2,10.5-22.9,11.3-23.5c0.3-0.3,2.4-3.4,4.5-7c2.2-3.6,5.6-8.5,7.5-10.9c5.9-7.2,23.7-24.7,30-29.6
		l6-4.5h45c36.6,0.1,45.1,0.3,45.1,1.4c0,0.7-1.1,4.2-2.4,7.7c-13.2,35.4-15.9,42.6-16.3,44.1c-0.5,1.5-3.5,1.7-33.2,2
		c-34.4,0.3-34.6,0.3-39.9,5.2c-6,5.3-5.7,1.3-6,83.1c-0.1,51.6,0.1,76.5,0.9,79.7c0.6,2.7,2.4,6.2,4.2,8.2c6.4,7,0.2,6.7,109.1,6.4
		c91.2-0.3,98.3-0.4,101.3-2c5.5-3.1,8.2-7.6,9.2-15.9c0.6-4.4,0.9-36.5,0.8-79l-0.3-71.5l-3-5c-5.9-9.4-1.5-8.9-69.8-9.2
		c-33-0.1-60.1-0.4-60.4-0.6c-0.3-0.4,5.5-16.7,14.4-40.1c1.9-4.9,3.4-9.5,3.4-10.2c0-0.6,0.7-1.8,1.5-2.7c1.3-1.3,8.7-1.5,56.3-1.5
		h54.7l2.5,2.7c1.4,1.5,4.5,4.3,6.9,6.2c2.5,1.9,8.6,7.8,13.7,13c11.9,12.2,13.6,14,12.8,14c-0.4,0,0.2,0.8,1.2,1.8
		c3.3,2.9,6.4,8.1,14.1,23.4c7.7,15.4,9.1,18.7,10.3,25.8c0.7,3.6,1.6,7,2.2,7.7c2.3,2.8,3.8,21.5,3.3,41.1
		c-0.3,15-0.6,17.2-3.6,26.5c-1.7,5.6-3.8,11.8-4.6,13.7c-4.4,10.3-10.8,22.2-14.8,27.5c-4.7,6.3-20.4,22.5-21.8,22.5
		c-0.4,0-2.1,1.4-3.7,3c-1.6,1.7-3.2,3-3.6,3s-1.6,0.8-2.6,1.7c-2.1,1.9-8.1,5.1-21.3,11.6c-12.2,6-18.6,8.5-28,11.2
		c-4.4,1.3-10.5,3-13.5,3.9s-7.8,1.6-10.5,1.6c-2.8,0-8.2,0.9-12,1.9C230.6,390,204.3,391.1,185.5,390.1L185.5,390.1z"/>
	<path class="st0" d="M108.2,349.3c-1.3-0.3-3.2-1.9-4.3-3.6c-1.8-3-1.9-5.4-1.9-37.9c0-19.1,0.4-35,0.9-35.2
		c0.7-0.5,127.7-0.9,182.6-0.7l16,0.1l-0.2,35.9c-0.1,27.9-0.4,36.6-1.5,38.8l-1.3,2.8l-94,0.1C152.8,349.7,109.5,349.5,108.2,349.3
		L108.2,349.3z M102.6,259.3c-0.3-0.4-0.6-14.1-0.6-30.6c0.1-33.8,0.4-36,6.2-37.3c4.4-1,176.7-1.2,183.8-0.2
		c9.7,1.3,9.5,0.6,9.4,33.8c-0.1,15.7-0.2,29.9-0.3,31.7l-0.1,3.1l-98.9,0.1C147.7,259.9,103,259.6,102.6,259.3z M119.4,111.8
		c-0.4-0.6,12.1-7.3,13.7-7.3c0.3,0,2.1-0.8,4-1.7c1.9-1,6-2.3,9.3-2.9c5-0.9,6.7-1.9,12-6.7c8.9-8.2,9.2-8.8,10-21.3
		c0.5-7.2,1.6-13.6,3.2-18.7c1.3-4.2,2.4-8.8,2.4-10.2s0.4-3,0.9-3.6c0.5-0.5,2.1-4,3.6-7.8C183.3,19.4,191,9.9,200,5.1l4.5-2.4
		l6.4,3.2c3.5,1.8,8.3,5.3,10.7,7.9c4,4.2,10.2,15.2,11.9,21.2c0.4,1.4,1.8,4.6,3.1,7.2c1.4,2.8,2.6,7.2,2.8,10.6
		c0.3,3.2,1.5,8.7,2.7,12.2c1.2,3.5,2.3,7.3,2.4,8.4c0.1,1.2,0.3,2.6,0.4,3.3c0.1,1.6,5.2,6.3,6.8,6.3c2.2,0,4.3,4.4,4.3,9.1
		c0,4.9,1.3,6.9,4.9,7.2c1.2,0.1,2.1,0.5,2.1,0.9s0.7,0.8,1.5,0.8c1.9,0,14.3,5,17.5,7c1.4,0.9,3.4,2,4.4,2.4c1,0.3,1.6,0.9,1.3,1.2
		C286.8,112.5,119.9,112.6,119.4,111.8L119.4,111.8z"/>
</g>
</svg>
