<?xml version="1.0" encoding="UTF-8"?>
<svg id="_레이어_1" data-name="레이어 1" xmlns="http://www.w3.org/2000/svg" viewBox="0 0 752.499 340.428">
  <defs>
    <style>
      .cls-1 {
        fill: #fff;
        stroke-width: 0px;
      }
    </style>
  </defs>
  <path class="cls-1" d="M752.499,46.57v247.58c-1.454.737-.855,2.21-1.044,3.304-1.066,6.195-2.931,12.089-6.36,17.387-11.092,17.135-26.775,25.593-47.327,25.587-214.455-.065-428.911-.04-643.366-.04-.749,0-1.498-.01-2.247-.001C24.699,340.708-.121,317.721,0,288.528.327,209.631.123,130.733.101,51.835c-.004-12.701,3.784-23.973,12.264-33.552C23.527,5.673,37.476-.01,54.394,0c214.455.123,428.911.081,643.366.084,1.622,0,3.245.027,4.867.067,21.864.531,42.375,16.917,47.806,38.014.72,2.796.436,5.841,2.067,8.406ZM375.696,289.321c78.396,0,156.792-.023,235.187.077,3.442.004,4.573-.574,4.567-4.355-.131-76.657-.118-153.315-.027-229.973.004-3.14-.536-4.107-3.967-4.105-156.916.105-313.833.104-470.749.002-3.406-.002-3.984.927-3.98,4.092.094,76.657.106,153.315-.024,229.973-.006,3.762,1.095,4.372,4.555,4.367,78.146-.102,156.292-.078,234.438-.078ZM58.673,91.184c-.078,15.186,12.595,27.953,27.722,27.927,14.913-.026,27.622-12.638,27.799-27.588.181-15.355-12.133-27.758-27.652-27.85-15.621-.093-27.789,11.919-27.869,27.511ZM694.207,199.41c.078-15.434-12.273-27.82-27.702-27.781-14.929.038-27.817,12.825-27.818,27.6-.001,14.607,12.989,27.741,27.636,27.942,15.016.206,27.807-12.528,27.884-27.761ZM666.413,135.692c7.793.056,13.095-4.961,13.282-12.567.177-7.223-5.633-12.884-13.159-12.823-6.936.057-12.292,5.378-12.399,12.318-.117,7.573,4.999,13.019,12.277,13.071ZM666.583,62.161c-7.106.004-12.506,5.41-12.445,12.462.064,7.435,5.391,13.041,12.419,13.069,7.491.03,13.196-5.715,13.148-13.238-.045-7.067-5.627-12.296-13.122-12.293ZM642.572,86.216c-7.029-.032-12.677,5.522-12.684,12.473-.007,7.342,5.471,13.03,12.564,13.044,7.543.015,12.965-5.354,13.051-12.924.081-7.126-5.497-12.559-12.931-12.593ZM99.462,215.109c-.07-7.127-6.015-12.904-13.2-12.827-6.967.075-12.466,5.939-12.349,13.171.113,6.96,5.851,12.573,12.693,12.416,7.168-.164,12.923-5.877,12.856-12.76ZM678.277,98.326c-.124,7.549,4.916,13.179,11.992,13.395,7.31.223,13.478-5.665,13.528-12.914.047-6.75-5.962-12.551-13.045-12.592-6.872-.04-12.362,5.29-12.475,12.111ZM110.484,203.738c7.034.026,13.265-5.856,13.213-12.473-.054-6.841-6.35-13.063-13.203-13.047-6.713.016-12.52,6.189-12.424,13.208.092,6.714,5.712,12.288,12.415,12.313ZM75.348,191.492c.077-6.939-5.998-13.186-12.906-13.271-6.769-.084-12.554,5.876-12.6,12.978-.043,6.815,5.343,12.384,12.122,12.532,7.03.154,13.31-5.589,13.384-12.239ZM99.461,167.322c.013-6.943-6.16-13.157-13.069-13.158-6.599,0-12.567,6.324-12.483,13.228.08,6.601,5.962,12.358,12.566,12.298,6.811-.061,12.975-5.932,12.987-12.368Z"/>
</svg>