<?xml version="1.0" encoding="UTF-8"?>
<svg id="_레이어_1" data-name="레이어 1" xmlns="http://www.w3.org/2000/svg" viewBox="0 0 752.444 752.138">
  <defs>
    <style>
      .cls-1 {
        fill: #fff;
        stroke-width: 0px;
      }
    </style>
  </defs>
  <path class="cls-1" d="M752.444,59.059v638.955c-1.498,1.137-1.061,2.92-1.285,4.386-1.402,9.18-4.842,17.515-10.444,24.862-12.903,16.921-29.979,24.888-51.371,24.876-208.853-.125-417.706-.075-626.559-.08-1.997,0-3.996-.021-5.989-.126-20.574-1.084-36.136-10.894-47.539-27.656C2.048,713.68.007,701.681.011,689.069c.053-176.511.036-353.022.036-529.533,0-32.456.124-64.913-.046-97.368C-.1,42.928,6.716,26.956,21.256,14.327,32.799,4.301,46.345-.002,61.511,0c209.727.028,419.454.019,629.181.021.998,0,1.997.017,2.995.05,28.817.956,52.141,21.198,57.431,49.602.583,3.128-.173,6.417,1.325,9.386ZM376.191,99.506c-55.684,0-111.367-.024-167.051.014-18.36.013-30.516,11.791-30.557,29.989-.117,52.185-.121,104.37.001,156.555.044,18.68,12.452,30.794,31.131,30.798,110.868.024,221.736.011,332.604.016,3.511,0,6.99-.341,10.352-1.318,12.649-3.677,20.763-14.965,20.787-29.508.085-52.185.037-104.37.027-156.555,0-4.654-.608-9.209-2.747-13.427-5.865-11.563-15.501-16.596-28.246-16.585-55.434.05-110.868.021-166.302.021ZM376.251,455.18c-25.215,0-50.43-.016-75.645.007-11.982.011-23.967-.037-35.945.207-5.335.109-10.141,2.098-14.442,5.413-8.646,6.663-12.511,15.379-12.49,26.25.099,51.301.323,102.605-.105,153.903-.153,18.359,13.647,31.559,31.422,31.528,71.276-.126,142.553-.051,213.829-.054,3.125,0,6.241-.261,9.255-1.071,14.004-3.762,22.116-14.701,22.123-29.924.025-51.301-.29-102.606.175-153.903.16-17.645-13.267-32.932-32.576-32.551-35.188.693-70.399.197-105.6.197ZM84.176,519.446c-.029,27.484,22.133,49.699,49.611,49.729,27.253.029,49.224-22.177,49.151-49.678-.073-27.653-21.951-49.85-49.11-49.825-27.376.025-49.623,22.326-49.652,49.774ZM662.383,541.447c12.285.166,22.096-9.37,22.355-21.729.251-11.949-9.797-22.198-21.882-22.318-12.353-.123-22.488,9.441-22.741,21.46-.265,12.622,9.387,22.413,22.268,22.587ZM596.127,519.795c.219-12.342-9.318-21.988-22.122-22.375-11.845-.359-22.129,9.475-22.343,21.365-.225,12.468,9.077,22.343,21.339,22.655,12.927.328,22.902-9.008,23.126-21.644ZM618.016,452.951c-12.167.051-21.712,9.634-21.78,21.868-.072,12.757,9.433,22.56,21.872,22.558,12.515-.001,21.982-9.679,21.971-22.46-.011-12.416-9.655-22.019-22.062-21.967ZM618.115,585.998c12.167.01,21.88-9.6,21.962-21.729.087-12.939-9.54-22.883-22.08-22.808-12.371.074-21.928,10.047-21.783,22.728.14,12.166,9.813,21.798,21.901,21.808Z"/>
</svg>