<?xml version="1.0" encoding="UTF-8"?>
<svg id="_레이어_1" data-name="레이어 1" xmlns="http://www.w3.org/2000/svg" viewBox="0 0 649.548 752.16">
  <defs>
    <style>
      .cls-1 {
        fill: #fff;
        stroke-width: 0px;
      }
    </style>
  </defs>
  <path class="cls-1" d="M324.83,365.834c-87.128,0-174.255-.041-261.383.049-11.716.012-22.915-1.739-32.909-8.093C10.816,345.25.059,327.609.082,303.771c.075-80.277.03-160.554.026-240.831,0-7.662,1.059-15.113,3.576-22.408C11.373,18.246,33.378,1.463,56.867.199c2.242-.121,4.491-.146,6.737-.146C237.735.047,411.865.093,585.996,0c26.839-.014,45.787,12.273,57.967,35.68,3.371,6.478,4.788,13.604,5.337,20.87.178,2.362.227,4.74.228,7.11.011,79.903-.01,159.805.02,239.708.01,26.714-12.763,45.39-36.041,57.351-8.509,4.373-17.837,5.146-27.294,5.141-87.128-.045-174.256-.027-261.384-.027ZM324.947,304.96c36.312,0,72.625.017,108.937-.03,3.08-.004,6.155.097,9.247-.633,14.229-3.36,23.654-16.273,23.637-31.723-.066-59.658-.029-119.316-.022-178.973,0-3.25-.379-6.484-1.219-9.58-3.904-14.395-15.293-22.484-31.527-22.487-72.749-.014-145.499-.009-218.248.003-3.353,0-6.731.189-9.961,1.082-14.558,4.024-22.868,15.226-22.874,30.863-.024,59.658-.013,119.316-.001,178.974,0,3.363.409,6.698,1.234,9.958,3.045,12.045,14.86,22.854,30.74,22.677,36.682-.408,73.372-.13,110.058-.13Z"/>
  <path class="cls-1" d="M324.445,752.139c-87.127,0-174.253-.03-261.38.018-26.806.015-45.743-12.471-57.667-36.053-3.462-6.847-5.101-14.341-5.169-22.023-.155-17.727-.113-35.455-.116-53.183-.009-64.171.242-128.343-.112-192.512-.163-29.483,19.461-51.101,41.533-58.879,5.072-1.787,10.352-2.705,15.729-2.973,1.744-.087,3.494-.074,5.241-.074,174.877-.003,349.754-.011,524.631.006,26.646.003,45.387,12.732,57.234,36.142,3.473,6.863,5.04,14.355,5.071,22.034.112,27.466.088,54.932.093,82.398.009,54.183.031,108.366-.01,162.55-.02,26.617-12.594,45.46-36.068,57.293-8.534,4.302-17.802,5.281-27.257,5.277-87.251-.035-174.503-.021-261.754-.021ZM324.918,690.732c36.193,0,72.386.002,108.578-.007,1.745,0,3.499-.016,5.234-.18,13.59-1.287,23.877-9.781,27.074-22.52,1.537-6.126.923-12.423.926-18.651.027-56.546.037-113.092.004-169.638-.011-19.779-12.844-32.6-32.5-32.601-73.134-.005-146.269-.012-219.403.004-18.556.004-31.843,12.808-31.883,31.296-.129,60.54-.056,121.081-.034,181.621.002,4.909.762,9.746,3.129,14.099,6.267,11.529,16.188,16.637,29.172,16.607,36.567-.084,73.134-.029,109.701-.029ZM127.402,586.182c0-4.491.197-8.994-.066-13.47-.19-3.223.508-4.438,4.108-4.32,9.22.303,18.458.039,27.687.148,2.117.025,2.736-.582,2.709-2.707-.112-8.856-.149-17.717.019-26.572.049-2.552-.78-3.07-3.149-3.037-9.353.13-18.711-.043-28.064.116-2.545.043-3.373-.483-3.318-3.203.189-9.353.001-18.713.123-28.069.03-2.341-.444-3.25-3.03-3.201-8.728.166-17.463.156-26.192.004-2.465-.043-3.133.648-3.095,3.102.143,9.48-.02,18.964.115,28.443.033,2.285-.516,2.954-2.865,2.919-9.603-.141-19.21.031-28.812-.122-2.375-.038-2.875.649-2.84,2.908.136,8.856.148,17.716-.006,26.572-.041,2.348.603,2.892,2.891,2.858,9.353-.138,18.713.092,28.063-.142,3.091-.078,3.625.951,3.576,3.739-.165,9.354.091,18.717-.149,28.067-.08,3.104.976,3.605,3.732,3.548,8.229-.17,16.467-.194,24.695.01,2.949.073,4.197-.421,3.953-3.748-.337-4.591-.084-9.226-.084-13.842ZM547.562,534.9c8.972.012,16.343-7.086,16.461-15.852.112-8.325-7.556-15.487-16.711-15.608-8.848-.117-15.38,6.468-15.453,15.578-.072,8.942,6.778,15.869,15.703,15.881ZM513.322,568.487c8.904.056,16.289-7.177,16.309-15.973.018-8.02-7.755-15.49-16.108-15.48-8.28.01-15.272,7.123-15.332,15.597-.065,9.235,6.2,15.8,15.131,15.856ZM581.481,568.488c7.83-.011,15.449-7.538,15.464-15.277.016-8.347-7.454-16.161-15.458-16.169-8.635-.008-15.895,7.264-15.947,15.973-.049,8.256,7.399,15.485,15.941,15.473ZM546.996,602.196c8.334.043,16.26-7.452,16.177-15.909-.061-6.248-5.965-14.822-15.892-14.808-8.887.012-15.344,6.362-15.409,15.245-.066,8.894,6.32,15.426,15.124,15.472Z"/>
</svg>