<?xml version="1.0" encoding="UTF-8"?>
<svg id="_레이어_1" data-name="레이어 1" xmlns="http://www.w3.org/2000/svg" viewBox="0 0 632.444 752.297">
  <defs>
    <style>
      .cls-1 {
        fill: #fff;
        stroke-width: 0px;
      }
    </style>
  </defs>
  <path class="cls-1" d="M632.444,694.371v2.247c-1.703,3.864-1.514,8.123-2.584,12.142-5.766,21.655-27.341,43.588-58.867,43.536-169.998-.277-339.997-.131-509.995-.13-5.878,0-11.7-.472-17.41-1.971C21.828,744.483-.133,722.818,0,690.949c.356-84.767.121-169.536.119-254.305,0-6.894.674-13.694,2.893-20.266,8.218-24.336,29.97-39.918,56.327-40.214,11.856-.133,23.716-.132,35.571.048,3.019.046,4.02-.604,3.955-3.81-.215-10.607-.262-21.226.021-31.831.094-3.528-1.097-4.002-4.204-3.991-30.33.112-60.66.057-90.99.089-2.119.002-3.65.227-3.646-2.93.094-91.01.079-182.021.076-273.032,0-13.899,3.802-26.522,12.475-37.533C25.413,6.908,42.268-.022,62.851,0c149.154.16,298.309.086,447.463.086,20.47,0,40.939.006,61.409,0,10.664-.003,20.9,1.98,30.053,7.609,20.514,12.616,30.221,31.092,30.18,55.214-.15,89.887-.085,179.774.034,269.661.005,3.619-1.151,4.158-4.361,4.146-30.205-.113-60.411-.017-90.615-.141-3.155-.013-3.915.89-3.862,3.942.187,10.733.181,21.474,0,32.207-.048,2.847.742,3.51,3.525,3.484,13.104-.121,26.225-.387,39.311.135,18.255.729,32.927,8.83,44.123,23.255,8.803,11.343,11.85,24.355,11.834,38.498-.095,84.394-.05,168.788-.015,253.182,0,1.016-.677,2.241.515,3.092ZM315.79,277.527c38.185,0,76.37-.044,114.554.076,3.358.01,4.326-.756,4.318-4.251-.12-56.541-.119-113.082-.002-169.623.007-3.43-.868-4.236-4.252-4.231-76.245.102-152.49.099-228.734.01-3.25-.004-4.331.592-4.322,4.158.131,56.541.122,113.082.017,169.623-.006,3.359.748,4.337,4.242,4.325,38.06-.137,76.12-.085,114.18-.085ZM316.014,494.96c-38.195,0-76.39.034-114.585-.066-3.019-.008-3.952.664-3.946,3.846.103,56.556.104,113.112-.004,169.669-.006,3.299.791,4.131,4.115,4.126,76.265-.103,152.531-.102,228.796-.002,3.286.004,4.147-.769,4.14-4.103-.111-56.556-.108-113.112-.007-169.669.006-3.154-.876-3.876-3.924-3.868-38.195.103-76.39.068-114.585.068ZM104.294,605.231c3.994,0,7.995-.138,11.98.052,2.396.114,3.191-.519,3.127-3.046-.182-7.237.082-14.485-.135-21.72-.089-2.953.429-4.088,3.74-3.956,7.353.295,14.726.027,22.089.134,2.039.03,2.831-.427,2.796-2.656-.129-8.238-.12-16.48-.004-24.719.03-2.116-.567-2.743-2.697-2.709-7.612.123-15.23-.062-22.84.11-2.528.057-3.118-.737-3.069-3.148.152-7.488-.032-14.982.109-22.471.042-2.25-.473-3.012-2.857-2.967-8.111.152-16.227.141-24.338.004-2.252-.038-2.984.466-2.93,2.853.17,7.487-.064,14.984.129,22.47.07,2.727-.844,3.309-3.385,3.254-7.486-.161-14.978.002-22.466-.097-1.983-.026-2.832.34-2.795,2.599.137,8.238.16,16.481-.009,24.718-.052,2.548,1.005,2.784,3.091,2.756,7.488-.102,14.981.069,22.466-.101,2.504-.057,3.137.703,3.088,3.132-.152,7.613.018,15.232-.104,22.846-.033,2.088.494,2.801,2.658,2.711,4.112-.171,8.236-.05,12.355-.05ZM559.717,564.147c9.74-.029,16.589-6.932,16.605-16.735.014-9.041-7.672-16.41-16.9-16.204-8.911.2-16.848,7.942-16.719,16.309.144,9.357,7.614,16.657,17.015,16.629ZM523.551,599.984c9.125.05,16.792-7.162,16.901-15.897.116-9.298-7.446-16.933-16.749-16.912-9.164.021-16.808,7.544-16.833,16.567-.025,8.657,7.715,16.193,16.681,16.242ZM540.446,511.952c-.153-9.26-7.532-16.472-16.797-16.416-9.397.056-16.914,7.651-16.765,16.937.137,8.526,8.302,16.116,17.102,15.897,9.085-.225,16.604-7.725,16.46-16.418ZM487.584,564.145c9.339.058,16.233-6.962,16.33-16.628.088-8.772-7.274-16.243-16.058-16.295-9.185-.055-16.711,7.141-16.754,16.02-.048,9.808,6.812,16.843,16.482,16.903Z"/>
</svg>