<?xml version="1.0" encoding="UTF-8"?>
<svg id="_레이어_1" data-name="레이어 1" xmlns="http://www.w3.org/2000/svg" viewBox="0 0 902.4 873.21">
  <defs>
    <style>
      .cls-1 {
        fill: #fff;
        stroke-width: 0px;
      }
    </style>
  </defs>
  <path class="cls-1" d="M902.4,407.371v39.819c-.548.306-.346.837-.351,1.28-.039,3.198-.087,6.395-.074,9.593.047,11.754-.105,23.501-1.133,35.22-1.264,14.408-2.897,28.77-5.079,43.072-2.796,18.324-6.348,36.491-11.188,54.387-4.236,15.664-9.347,31.023-16.581,45.602-4.673,9.418-10.12,18.323-17.467,25.935-4.536,4.7-9.656,8.62-15.741,11.125-6.271,2.582-12.761,3.55-19.464,2.138-5.596-1.178-10.382-4.023-14.789-7.561-5.592-4.49-10.216-9.88-14.425-15.645-7.091-9.712-12.838-20.21-18.023-31.028-9.192-19.18-16.575-39.071-23.161-59.269-13.751-42.171-24.243-85.179-32.933-128.646-.833-4.168-.775-4.217-4.983-4.364-9.35-.327-18.694-.349-28.038.335-11.98.876-23.805,2.626-35.393,5.832-11.38,3.148-22.2,7.566-31.893,14.432-13.718,9.717-22.464,22.675-25.565,39.323-1.726,9.265-3.133,18.58-4.559,27.892-3.094,20.209-6.097,40.431-9.156,60.645-2.963,19.58-6.252,39.107-9.784,58.591-4.358,24.037-9.165,47.984-14.786,71.762-5.896,24.94-12.555,49.666-21.069,73.86-5.836,16.584-12.44,32.838-21.035,48.219-5.751,10.292-12.246,20.049-20.744,28.329-7.353,7.164-15.683,12.567-26.032,14.303-.435.073-1.194-.203-1.278.659h-12.473c-.205-1.003-1.136-.687-1.69-.782-6.261-1.067-11.868-3.647-17.064-7.207-5.921-4.057-10.912-9.099-15.416-14.648-8.104-9.986-14.4-21.085-19.959-32.624-8.401-17.436-14.955-35.588-20.719-54.036-10.39-33.256-18.138-67.164-24.914-101.308-4.492-22.633-8.45-45.361-12.142-68.138-2.772-17.105-5.377-34.234-7.957-51.368-2.675-17.765-5.144-35.562-8.252-53.26-2.683-15.274-10.055-27.786-22.155-37.495-9.548-7.661-20.463-12.636-32.086-16.157-16.324-4.945-33.086-6.983-50.09-7.333-6.315-.13-12.627-.089-18.93.343-2.066.141-2.061.209-2.413,2.126-.202,1.099-.392,2.201-.611,3.296-5.242,26.141-11.202,52.115-18.087,77.875-7.11,26.606-15.065,52.946-24.922,78.682-6.173,16.116-13.034,31.92-21.668,46.898-4.919,8.533-10.371,16.694-17.165,23.885-3.417,3.617-7.118,6.894-11.385,9.485-4.214,2.558-8.695,4.354-13.686,4.645-9.558.557-17.887-2.629-25.339-8.388-7.383-5.705-12.968-12.973-17.773-20.875-8.016-13.181-13.576-27.439-18.221-42.08-7.067-22.272-11.759-45.088-15.279-68.151-2.955-19.358-5.133-38.806-6-58.383-.106-2.394-.177-4.79-.304-7.183-.041-.764-.364-1.065-.975-.331v-7.676c.623.33.893.006.89-.561-.021-3.824-.06-7.647-.116-11.471-.007-.47-.28-.706-.774-.442v-46.056c.201.002.534.319.582-.018.405-2.824.409-5.665.185-8.503-.029-.369-.475-.27-.767-.115v-2.879c.251.35.658.62.864.135.206-.483.118-1.097.136-1.654.678-21.491,1.722-42.96,3.7-64.378,1.161-12.572,2.558-25.112,4.302-37.617,2.439-17.489,5.566-34.847,9.728-52.01,4.54-18.723,10.223-37.074,18.19-54.657,6.426-14.182,14.145-27.569,24.518-39.287,10.019-11.318,21.771-20.146,36.219-25.076.29-.099.543-.303.903-.509-1.077-2.514-1.601-5.037-.682-7.681.697-2.003,1.848-3.707,3.292-5.231,2.556-2.698,5.609-4.734,8.821-6.544,5.651-3.183,11.636-5.613,17.756-7.71,21.741-7.449,44.204-11.875,66.769-15.859,9.752-1.722,19.536-3.247,29.344-4.602,9.178-1.268,18.371-2.434,27.567-3.557,6.344-.775,12.698-1.489,19.064-2.044,1.89-.165,2.717-.991,3.412-2.621,2.941-6.9,5.976-13.761,9.047-20.605,1.102-2.456,1.599-5.337,3.589-7.209,2.019-1.899,4.631-3.101,7.085-4.442,10.754-5.879,22.131-10.258,33.804-13.889,24.204-7.529,49.065-11.61,74.25-13.891,13.057-1.183,26.15-1.82,39.263-1.973,18.391-.215,36.772.053,55.114,1.518,14.658,1.17,29.241,2.949,43.711,5.626,16.507,3.053,32.733,7.139,48.466,13.04,9.353,3.508,18.446,7.575,26.914,12.943,1.333.845,2.227,1.892,2.863,3.364,3.761,8.72,7.64,17.389,11.407,26.107.542,1.254,1.215,1.824,2.598,1.939,4.219.35,8.432.793,12.637,1.291,14.119,1.672,28.223,3.451,42.287,5.558,18.639,2.793,37.198,6.002,55.58,10.183,12.453,2.832,24.796,6.068,36.766,10.575,6.132,2.309,12.125,4.925,17.577,8.626,2.661,1.806,5.103,3.853,6.912,6.561,1.954,2.926,2.344,6.044,1.184,9.368-.145.416-.617.794-.193,1.382.379.143.822.317,1.269.478,8.031,2.883,15.397,6.972,22.135,12.201,9.9,7.684,17.888,17.091,24.705,27.535,9.043,13.854,15.738,28.84,21.238,44.393,6.025,17.04,10.475,34.502,14.07,52.2,3.66,18.016,6.322,36.184,8.392,54.441,1.053,9.289,1.884,18.601,2.624,27.923.961,12.113,1.618,24.242,2.205,36.376.514,10.622.54,21.254.65,31.885.006.604-.253,1.291.349,1.792ZM555.463,465.456c-.305-58.254-46.939-103.28-102.61-103.941-58.293-.692-105.241,46.481-105.194,103.934.047,57.311,46.453,103.298,102.907,103.833,56.353.534,104.517-44.649,104.896-103.826ZM78.759,255.205c.268,51.964,41.773,93.778,93.73,93.887,52.26.109,94.002-41.953,94.062-93.732.06-52.09-41.794-93.589-93.067-94.015-51.771-.43-94.406,41.046-94.725,93.86ZM451.502,233.649c-21.905-.191-42.068,17.465-42.166,42.232-.092,23.121,18.926,42.177,42.1,42.105,24.623-.077,42.293-20.012,42.27-42.157-.023-23.318-18.864-42.185-42.205-42.18ZM695.285,377.209c18.736.335,35.825-15.095,35.841-35.704.016-19.631-15.99-35.816-35.633-35.742-20.896.079-35.864,16.934-35.849,35.774.016,19.683,15.952,35.654,35.641,35.671ZM627.934,309.701c19.712-.018,35.617-15.93,35.633-35.65.016-19.804-16.099-35.939-35.774-35.821-19.693.118-35.673,16.106-35.707,35.724-.034,19.735,16.04,35.765,35.849,35.747ZM754.769,201.544c14.732.037,27.259-11.353,28.552-26.031.18-2.05.536-4.206-.354-6.155-.767-1.681-1.285-3.426-1.865-5.161-3.591-10.75-13.273-18.22-24.467-18.872-11.463-.668-21.946,5.517-26.811,15.801-1.404,2.967-1.943,6.244-3.331,9.219-.223.478-.17,1.098-.19,1.654-.588,16.018,12.409,29.504,28.466,29.543ZM833.941,224.555c.078-12.846-8.407-23.792-20.92-27.015-1.075-.277-2.154-.596-3.166-1.043-1.278-.565-2.578-.746-3.956-.721-1.523.028-3.021.2-4.523.445-12.77,2.084-22.873,13.281-23.652,26.242-.846,14.085,8.528,26.672,22.268,29.785,2.553.579,5.182,1.197,7.788.208,1.203-.456,2.446-.686,3.69-.926,13.029-2.515,22.389-13.745,22.469-26.977ZM675.802,224.193c-.024,7.642,2.68,14.18,7.995,19.649,5.282,5.436,11.966,7.742,19.299,8.494,1.416.145,2.8.576,4.274.369,13.403-1.881,23.725-13.042,24.629-26.679.866-13.074-7.934-25.561-20.692-29.12-4.406-1.229-8.909-2.046-13.303.289-.547.291-1.231.319-1.846.486-11.998,3.249-20.309,14.08-20.356,26.513ZM754.805,303.463c12.596.031,23.537-8.432,26.796-20.644.621-2.326.597-4.754,1.309-7.049.461-1.487.391-2.952.145-4.486-2.163-13.495-13.687-23.671-27.362-24.096-13.582-.422-25.853,9.102-28.753,22.424-.57,2.616-1.323,5.322.248,7.933.223.371.113.939.173,1.413,1.775,14.071,13.422,24.471,27.444,24.505Z"/>
  <path class="cls-1" d="M451.428,517.438c-28.723-.022-51.833-23.215-51.964-51.973-.125-27.417,21.746-52.112,52.054-52.149,29.229-.036,52.139,23.395,52.086,52.117-.056,30.015-24.521,52.231-52.175,52.006Z"/>
  <path class="cls-1" d="M150.24,300.627c0-6.875.006-13.75-.004-20.624-.003-1.935-.023-1.957-1.958-1.958-13.509-.007-27.019,0-40.528-.006-3.103-.001-2.637.234-2.64-2.719-.015-12.87-.006-25.74-.006-38.611,0-.56.012-1.119.002-1.679-.011-.607.308-.856.878-.858.639-.002,1.279-.005,1.918-.005,13.11,0,26.22,0,39.329,0,.4,0,.799.005,1.199,0,1.779-.026,1.804-.028,1.805-1.831.007-13.27.004-26.54.004-39.81,0-.56-.008-1.119.002-1.679.03-1.783.032-1.812,1.855-1.813,13.35-.009,26.699-.001,40.049-.008,2.312-.001,2.072.014,2.072,2.085-.002,13.27,0,26.54,0,39.81,0,.48.003.959,0,1.439-.016,1.878-.08,1.813,1.834,1.812,13.509-.009,27.019-.005,40.528-.004.639,0,1.279.003,1.918.005.585.002.871.286.854.882-.013.479,0,.959,0,1.439,0,13.03,0,26.06,0,39.09,0,.48-.02.96.002,1.439.033.709-.295,1.026-.995,1.013-.639-.011-1.279.005-1.918.005-13.19,0-26.379,0-39.569,0-.56,0-1.12.017-1.679,0-.723-.022-.994.348-.977,1.026.014.559,0,1.119,0,1.679,0,13.19,0,26.38,0,39.57,0,.56-.036,1.122.007,1.678.074.943-.361,1.306-1.264,1.253-.478-.028-.959-.003-1.439-.003-12.87,0-25.74,0-38.61,0-.32,0-.64.008-.959-.002-1.669-.05-1.702-.051-1.705-1.753-.014-6.395-.006-12.79-.006-19.185,0-.56,0-1.119,0-1.679Z"/>
</svg>