<?xml version="1.0" encoding="utf-8"?>
<!-- Generator: Adobe Illustrator 28.3.0, SVG Export Plug-In . SVG Version: 6.00 Build 0)  -->
<svg version="1.1" id="레이어_1" xmlns="http://www.w3.org/2000/svg" xmlns:xlink="http://www.w3.org/1999/xlink" x="0px"
	 y="0px" viewBox="0 0 1101.5 1100.5" style="enable-background:new 0 0 1101.5 1100.5;" xml:space="preserve">
<style type="text/css">
	.st0{fill:#FFFFFF;}
</style>
<g>
	<path class="st0" d="M207.3,350.7c0-51.9,41.7-93.5,93.5-93.5s93.5,41.7,93.5,93.5s-41.7,93.5-93.5,93.5S207.3,402.6,207.3,350.7z
		 M452.6,131.3H307.3c-46.3,0-91.7,18.5-124.1,51.9c-33.3,32.4-51.9,77.8-51.9,124.1v487c0,47.2,18.5,90.7,51.9,124.1
		c32.4,33.3,77.8,51.9,124.1,51.9h145.4V131.3z M525.8,1049.8H307.3c-141.7,0-256.5-114.8-256.5-256.5V307.2
		c0-141.7,114.8-256.5,256.5-256.5h218.5c3.7,0,7.4,3.7,7.4,7.4v984.3C533.2,1047,529.5,1049.8,525.8,1049.8L525.8,1049.8z
		 M831.3,499.8c-55.6,0-100.9,45.4-100.9,100.9c0,55.6,45.4,100.9,100.9,100.9c55.6,0,100.9-45.4,100.9-100.9
		C932.3,545.2,886.9,499.8,831.3,499.8z M794.3,1049.8H640.6c-3.7,0-7.4-3.7-7.4-7.4V57.2c0-3.7,2.8-6.5,6.5-6.5h154.6
		c141.7,0,256.5,114.8,256.5,256.5v487C1050.8,935.9,936,1049.8,794.3,1049.8L794.3,1049.8z"/>
</g>
</svg>
