<svg xmlns="http://www.w3.org/2000/svg" width="1000" height="999.07397" viewBox="0 0 1000 999.07398"><g style="fill:#000;fill-opacity:1"><path d="M16.9 32.4c0-5.6 4.5-10.1 10.1-10.1s10.1 4.5 10.1 10.1S32.6 42.5 27 42.5 16.9 38 16.9 32.4ZM43.4 8.7H27.7c-5 0-9.9 2-13.4 5.6-3.6 3.5-5.6 8.4-5.6 13.4v52.6c0 5.1 2 9.8 5.6 13.4 3.5 3.6 8.4 5.6 13.4 5.6h15.7V8.7zm7.9 99.2H27.7C12.4 107.9 0 95.5 0 80.2V27.7C0 12.4 12.4 0 27.7 0h23.6c.4 0 .8.4.8.8v106.3c0 .5-.4.8-.8.8zm33-59.4c-6 0-10.9 4.9-10.9 10.9s4.9 10.9 10.9 10.9 10.9-4.9 10.9-10.9-4.9-10.9-10.9-10.9zm-4 59.4H63.7c-.4 0-.8-.4-.8-.8V.7c0-.4.3-.7.7-.7h16.7C95.6 0 108 12.4 108 27.7v52.6c0 15.3-12.4 27.6-27.7 27.6z" class="white" style="fill:#fff;fill-opacity:1" transform="matrix(9.25926 0 0 9.25926 0 0)"/></g></svg>