<?xml version="1.0" encoding="UTF-8"?>
<svg id="_레이어_1" data-name="레이어 1" xmlns="http://www.w3.org/2000/svg" viewBox="0 0 366.817 260.832">
  <defs>
    <style>
      .cls-1 {
        fill: #fff;
        stroke-width: 0px;
      }
    </style>
  </defs>
  <path class="cls-1" d="M38.981,260.832h-6.997c-11.029-4.831-16.603-14.221-20.574-24.852-5.505-14.735-7.804-30.144-9.484-45.696-.519-4.805.079-9.786-1.925-14.397v-53.965c1.983-6.506,2.098-13.268,1.633-19.879C-.526,71.333,18.246,43.236,47.547,33.856c2.045-.655,4.082-1.401,6.017-2.326C88.395,14.891,125.145,5.441,163.502,1.741c5.798-.559,11.763.33,17.408-1.741h4.998c.418,1.343,1.564.959,2.476.985,28.076.789,55.362,6.114,82.251,13.977,18.225,5.329,35.292,13.495,52.667,20.898,20.246,8.627,33.372,23.697,38.788,45.051,2.653,10.459,2.748,21.327,3.756,32.039.126,1.336-.89,3.037.972,3.974v63.959c-1.841.901-.949,2.642-1.079,3.961-1.249,12.715-2.511,25.45-5.948,37.786-4.264,15.304-8.358,30.883-24.957,38.202h-6.997c-13.634-5.923-20.908-16.848-23.829-30.925-1.791-8.632-2.56-17.437-3.159-26.238-.603-8.865-1.181-17.732-1.785-26.839-2.303.756-2.994,2.369-3.925,3.64-3.692,5.041-5.406,10.943-7.336,16.793-5.472,16.589-17.012,26.885-33.981,30.324-17.649,3.576-33.112-1.347-45.02-15.055-16.032-18.457-15.171-44.59,1.657-62.568,5.586-5.968,10.969-12.014,14.574-19.49,1.54-3.193,1.273-4.31-2.486-5.115-26.782-5.734-53.469-5.512-80.196.359-3.42.751-2.975,1.97-1.872,4.337,3.282,7.04,7.99,12.99,13.428,18.453,11.908,11.963,16.589,26.368,13.301,42.888-4.275,21.477-22.544,36.657-44.068,37.291-21.947.647-39.943-12.541-46.101-33.857-1.75-6.059-4.101-11.763-8.801-17.073-1.135,13.852-2.072,27.033-3.326,40.184-1.754,18.404-6.841,34.91-25.931,42.89ZM274.862,182.417c.675-20.137-15.112-31.059-29.736-30.659-15.358.42-30.823,9.342-29.812,34.809.456,11.476,16.491,27.063,29.637,26.217,13.782-.887,30.871-10.978,29.911-30.368ZM99.45,97.386c.944-22.034-16.342-32.098-31.81-33.217-14.112-1.02-30.548,15.658-31.958,27.836-1.513,13.075,3.777,22.868,12.307,30.865,5.013,4.7,13.196,7.359,19.824,6.807,15.167-1.264,32.705-11.743,31.636-32.291ZM90.793,182.016c-.039,17.232,13.746,31.232,30.831,31.313,16.948.08,31.185-14.018,31.297-30.992.112-16.965-14.005-31.214-30.977-31.265-17.178-.052-31.112,13.79-31.151,30.944ZM298.998,118.086c11.924.032,21.296-9.155,21.339-20.918.043-11.729-9.359-21.279-21.038-21.368-11.632-.088-21.339,9.451-21.434,21.064-.095,11.622,9.433,21.19,21.132,21.222ZM272.647,60.901c-.114,3.598,3.784,7.314,8.136,5.264,7.161-3.372,14.593-5.018,22.475-5.482,5.89-.346,8.019-5.473,4.768-10.414-1.433-2.178-3.457-3.573-5.95-4.188-8.29-2.045-16.126-.745-23.375,3.654-3.347,2.031-5.917,4.823-6.054,11.166ZM352.377,91.358c-.345-3.232-.468-6.556-1.604-9.71-1.761-4.89-3.798-9.626-8.932-11.961-3.468-1.577-6.823-1.241-9.678,1.399-2.789,2.579-1.578,5.305-.156,8.104,3.044,5.993,4.536,12.431,4.778,19.118.127,3.525,1.249,6.309,4.854,7.147,3.427.797,6.067-.979,8.118-3.605,2.403-3.077,2.209-6.829,2.62-10.491ZM258.726,131.406c6.971.133,12.803-5.398,13.003-12.331.197-6.824-5.493-12.778-12.396-12.972-6.898-.194-12.755,5.403-12.945,12.37-.19,6.973,5.37,12.801,12.339,12.933ZM183.902,107.072c4.709.004,8.437-3.857,8.319-8.614-.109-4.394-3.961-8.148-8.36-8.148-4.583,0-8.475,4.044-8.343,8.666.126,4.433,3.916,8.092,8.384,8.095Z"/>
  <path class="cls-1" d="M329.789,32.844c-17.219-6.618-33.098-15.306-50.956-20.686,22.484-10.318,45.727-3.284,50.956,20.686Z"/>
  <path class="cls-1" d="M36.831,32.706c6.465-24.906,29.594-30.341,51.523-20.395-17.979,5.487-33.859,14.415-51.523,20.395Z"/>
  <path class="cls-1" d="M245.259,199.372c-9.486.066-17.185-7.4-17.369-16.846-.188-9.622,7.56-17.586,17.151-17.629,9.445-.042,17.139,7.463,17.325,16.901.193,9.746-7.361,17.505-17.107,17.573Z"/>
  <path class="cls-1" d="M67.895,73.786c13.175.06,23.142,10.265,23.06,23.611-.078,12.753-10.609,23.136-23.306,22.978-12.887-.16-23.123-10.425-23.171-23.235-.049-13.123,10.27-23.414,23.417-23.354ZM67.995,108.09c6.141-.063,10.982-5,10.963-11.182-.019-6.044-5.105-11.11-11.149-11.106-5.996.005-11.21,5.117-11.282,11.062-.077,6.332,4.989,11.291,11.467,11.225Z"/>
  <path class="cls-1" d="M121.803,156.731q8.637,0,8.637,8.842c0,8.147.002,8.058,8.178,8.17,9.55.131,8.735-1.903,8.812,8.652.01,1.332-.099,2.673.018,3.994.308,3.5-1.24,4.642-4.691,4.571-3.947-.082-9.094-1.78-11.554.707-2.441,2.466-.731,7.596-.697,11.544.028,3.368-1.045,4.67-4.595,4.732-12.731.222-12.863.34-12.719-12.407.04-3.563-.616-4.828-4.549-4.77-13.073.191-12.957.01-12.607-12.963.093-3.439,1.472-4.119,4.532-4.162,4.084-.057,9.529,1.916,11.872-.96,1.989-2.441.751-7.659.611-11.637-.112-3.188.9-4.714,4.259-4.34,1.48.165,2.994.028,4.493.027Z"/>
</svg>