<svg xmlns="http://www.w3.org/2000/svg" xml:space="preserve" width="1514.6" height="1432.2" x="0px" y="0px" viewBox="0 0 1514.6 1432.2"><path fill="#fff" d="M1074.1 634V217.4C1074.1 97.3 976.3 0 855.7 0H658.9C538.3 0 440.6 97.3 440.6 217.4V634c0 4.3 3.5 7.7 7.8 7.7h93.4c4.3 0 7.8-3.4 7.8-7.7V217.4c0-60.2 49-108.9 109.4-108.9h196.7c60.4 0 109.4 48.8 109.4 108.9V634c0 4.3 3.5 7.7 7.8 7.7h93.4c4.3 0 7.8-3.4 7.8-7.7m368.4-314.8H72.1L0 1432.2h1514.6zm-102.1 108.5 58.1 896.1H116.2l58.1-896.1z"/></svg>