<?xml version="1.0" encoding="utf-8"?>
<!-- Generator: Adobe Illustrator 28.1.0, SVG Export Plug-In . SVG Version: 6.00 Build 0)  -->
<svg version="1.1" id="레이어_1" xmlns="http://www.w3.org/2000/svg" xmlns:xlink="http://www.w3.org/1999/xlink" x="0px"
	 y="0px" viewBox="0 0 155.2 93.7" style="enable-background:new 0 0 155.2 93.7;" xml:space="preserve">
<style type="text/css">
	.st0{fill:#FFFFFF;}
</style>
<path class="st0" d="M137.8,10.7c-5.4-4.3-11.7-7.4-18.5-9.1c-3.9-0.9-7.8-1.4-11.8-1.5c-3-0.1-5.9-0.1-8.9-0.1h-42
	c-3,0-5.9,0-8.9,0.1c-4,0.1-7.9,0.6-11.8,1.5c-6.8,1.6-13.1,4.7-18.5,9.1C12,15,7.6,20.5,4.6,26.8S0,39.9,0,46.9S1.6,60.7,4.6,67
	c3,6.3,7.4,11.8,12.8,16.1c5.4,4.3,11.7,7.4,18.5,9.1c3.9,0.9,7.8,1.4,11.8,1.5c3,0.1,5.9,0.1,8.9,0.1h42c3,0,5.9,0,8.9-0.1
	c4-0.1,7.9-0.6,11.8-1.5c6.8-1.6,13.1-4.7,18.5-9.1c5.4-4.3,9.8-9.9,12.8-16.1c3-6.3,4.6-13.1,4.6-20.1s-1.6-13.8-4.6-20.1
	S143.2,15,137.8,10.7z M117.3,59.5c-2.1,1.4-4.4,2.3-6.9,2.7c-2.5,0.4-4.9,0.3-7.4,0.3H52.1c-2.5,0-4.9,0.1-7.4-0.3
	s-4.8-1.3-6.9-2.7c-2-1.4-3.7-3.3-4.9-5.5s-1.8-4.6-1.8-7.1s0.6-4.9,1.8-7.1c1.2-2.2,2.8-4.1,4.9-5.5c2.1-1.4,4.4-2.3,6.9-2.7
	s4.9-0.3,7.4-0.3H103c2.5,0,4.9-0.1,7.4,0.3s4.8,1.3,6.9,2.7c2,1.4,3.7,3.3,4.9,5.5c1.2,2.2,1.8,4.6,1.8,7.1s-0.6,4.9-1.8,7.1
	C121,56.2,119.4,58.1,117.3,59.5z"/>
</svg>
