<?xml version="1.0" encoding="utf-8"?>
<!-- Generator: Adobe Illustrator 28.1.0, SVG Export Plug-In . SVG Version: 6.00 Build 0)  -->
<svg version="1.1" id="레이어_1" xmlns="http://www.w3.org/2000/svg" xmlns:xlink="http://www.w3.org/1999/xlink" x="0px"
	 y="0px" viewBox="0 0 125.6 125.7" style="enable-background:new 0 0 125.6 125.7;" xml:space="preserve">
<style type="text/css">
	.st0{fill:#FFFFFF;}
</style>
<path class="st0" d="M58.3,125.6c-9.9-0.9-18.4-3.5-26.3-7.9c-16.2-9.2-27.5-24.9-31-42.9c-0.9-4.5-1-6.2-1-11.8
	c0-6,0.2-7.9,1.2-12.8C5,31.4,17.5,15.3,34.6,6.7c6.6-3.3,13.2-5.3,20.9-6.3C58.6,0,66.2-0.1,69.2,0.3c10.7,1.2,20,4.6,28.5,10.3
	c2,1.3,5.6,4.1,6.1,4.7c0.3,0.4,0.3,0.4-5.7,6.4c-3.3,3.3-6.1,6-6.2,6c-0.1,0-1-0.7-2-1.4c-6.5-4.9-14.3-7.9-22.6-8.8
	c-3.2-0.3-9.1-0.1-12.3,0.4c-11.4,2-21.7,8.3-28.6,17.4C21.6,41.8,18.6,49,17.5,57c-0.4,2.7-0.4,8.3-0.1,10.9
	c1.9,15.7,11.3,28.9,25.2,35.8c6.7,3.3,12.8,4.7,20.3,4.6c10.1,0,19.1-3.1,27.3-9.2c0.8-0.6,1.6-1.2,1.7-1.2c0.1,0,2.9,2.7,6.2,6
	l6.1,6.1l-0.9,0.8c-1.4,1.3-4.8,3.8-7.2,5.3c-7.7,4.8-16.1,7.8-25.5,9.1C68.6,125.5,60.2,125.7,58.3,125.6L58.3,125.6z"/>
<path class="st0" d="M60.1,103.2c-3.9-0.3-7.8-1.1-11.3-2.4l-0.9-0.4V83.5l7.5-7.5l7.5-7.5l7.5,7.6l7.5,7.6v16.7l-0.9,0.4
	C71.8,102.6,65.4,103.6,60.1,103.2L60.1,103.2z M25.1,77.4c-1.1-3.1-1.9-6.3-2.4-9.5c-0.3-2.2-0.3-7.9,0-10c0.5-3.4,1.2-6.3,2.2-9.1
	l0.4-0.9l8.4,0h8.4l7.5,7.5l7.5,7.5l-7.5,7.5l-7.5,7.5H25.2L25.1,77.4L25.1,77.4z M55.3,49.6l-7.5-7.5V25.3l1.3-0.5
	c4.1-1.5,8.8-2.3,13.6-2.3c4.7,0,8.2,0.5,12.6,2l2.5,0.8v16.9l-7.5,7.5c-4.1,4.1-7.5,7.4-7.5,7.4C62.8,57,59.4,53.7,55.3,49.6z
	 M76,70.3l-7.5-7.5l7.5-7.5l7.5-7.5h16.8l0.7,2.2c1.5,4.4,2,7.9,2,12.7c0,4.9-0.5,8.1-1.9,12.6l-0.8,2.5H83.5L76,70.3z"/>
<path class="st0" d="M103.8,98.2l-6-6l1.3-1.7c5.1-6.7,8.2-14.7,9.1-23.1c0.3-2.7,0.1-8.7-0.3-11.2c-1.2-7.7-4.5-15.4-9.2-21.3
	c-0.5-0.6-0.8-1.1-0.8-1.2c0-0.1,2.7-2.8,6.1-6.2l6.1-6l0.7,0.8c3,3.4,6.7,9.1,8.9,13.7c8.3,17.6,8.1,37.9-0.6,55.2
	c-1.2,2.4-2.5,4.5-4.3,7.2c-2,3-4.4,6-4.7,6C109.9,104.2,107.2,101.5,103.8,98.2L103.8,98.2z"/>
</svg>
