<?xml version="1.0" encoding="utf-8"?>
<!-- Generator: Adobe Illustrator 28.1.0, SVG Export Plug-In . SVG Version: 6.00 Build 0)  -->
<svg version="1.1" id="_레이어_1" xmlns="http://www.w3.org/2000/svg" xmlns:xlink="http://www.w3.org/1999/xlink" x="0px"
	 y="0px" viewBox="0 0 1045 1045" style="enable-background:new 0 0 1045 1045;" xml:space="preserve">
<style type="text/css">
	.st0{fill:#FDFDFD;}
</style>
<path class="st0" d="M522.1,1045c-291-0.9-523-236.3-522.1-524C0.9,231.2,235.9-0.6,523.4,0c290.1,0.6,522.6,235.8,521.6,524.4
	C1043.9,813.1,810,1044.8,522.1,1045L522.1,1045z M992.6,492.9c-1.6-99.7-46.4-211.3-137.7-302.6C763.5,99,651.9,52.9,522.5,52.5
	c-258.4-0.9-470,209.4-470.2,469.8c-0.2,259,210.8,470.9,471.5,470.3C782.2,991.9,993,781.6,992.6,492.9z"/>
<path class="st0" d="M358.5,527.1c0.6,17.8-2.1,35.2-9.3,51.6c-11.5,26.5-31.5,43.5-59.7,49.9c-21.8,5-43.7,4.8-65-2.8
	c-27.6-9.9-45.2-29.6-53.5-57.5c-10.1-33.9-9.1-67.5,6.5-99.7c14.1-29.1,38.6-43.7,70.3-47.5c13.6-1.6,27.2-1.3,40.2,1.7
	c20.4,4.6,37.8,15.4,50.5,32.6c12.8,17.3,17.9,37.2,19.8,58.2C358.8,518.1,358.5,522.7,358.5,527.1L358.5,527.1z M221.3,526.6
	c-0.1,15.6,1,31,8.4,45.1c7.1,13.6,19,18.2,33.6,17.8c14-0.3,24.9-5.8,31.2-18.6c2.8-5.8,4.7-12,6-18.3c2.7-12.8,2.7-25.8,1.7-38.8
	c-0.8-10.7-2.8-21.4-7.6-31.2c-6.7-13.5-18.3-18.9-32.6-18.9c-14.3-0.1-25.9,5.2-32.7,18.7C222.4,496.4,221.2,511.4,221.3,526.6
	L221.3,526.6z"/>
<path class="st0" d="M755.5,522.6c0,30.6-0.1,61.3,0.1,91.9c0,3.6-1,5.2-4.5,6.3c-37.8,11.3-76.1,14.7-114.9,6.6
	c-20.3-4.2-35.5-15.7-45.5-34.3c-5.4-10.1-8.4-20.7-10-31.8c-2.9-21.1-1.1-42.4-1.4-63.5c-0.3-22.5,0-45-0.2-67.5c0-3.9,1-5.4,5.1-6
	c15.6-2.2,31-1.6,46.6,0.1c4,0.4,3.7,3,3.6,5.7c0,32.8-0.1,65.6,0,98.4c0,12,0.4,23.8,4.4,35.4c4.4,13.1,13.8,19.1,26.6,21.4
	c10.1,1.8,20.1,0.6,30.2-0.9c3.9-0.6,5.1-2.2,5-6.1c-0.2-49.1-0.1-98.3-0.2-147.4c0-4.6,1.1-6.2,5.9-6.8c14.8-1.8,29.5-1.8,44.3,0
	c4.2,0.5,5.1,2,5.1,5.9C755.5,461,755.6,491.8,755.5,522.6L755.5,522.6L755.5,522.6z"/>
<path class="st0" d="M449.5,631.5c-18.6,0.7-36.9-3.1-54.9-9.2c-3.2-1.1-3.9-1.9-3.4-5.7c1.7-11.6,5-22.6,9.1-33.5
	c1.3-3.5,2.9-4.1,6.3-2.7c16.4,6.5,33.5,9.4,51.2,8.1c7.9-0.6,15.5-2.5,22-7.2c11.5-8.4,10.5-23.7-2.1-30.2
	c-11.2-5.7-23.6-8-35.5-11.6c-6.9-2.1-13.6-4.5-19.9-8c-13.6-7.6-24.1-17.3-26-34c-1.8-15.6-1.7-30.7,6.8-44.8
	c8.5-14,21.1-22.4,36.3-27.2c25.8-8.1,51.6-5.8,77.3,0.3c5,1.2,9.8,3.2,14.7,4.5c2.5,0.7,3.2,2.1,2.9,4.4
	c-1.4,12.1-4.8,23.7-10,34.7c-1.1,2.2-2.5,1.6-4.1,0.9c-12.7-5.1-26-7.9-39.7-8.5c-7.2-0.3-14.3,0.5-21,3.4
	c-5.8,2.6-8.8,7.2-8.9,13.3c-0.1,6.1,1.9,11.2,8.1,14.2c10.9,5.3,22.6,7.8,34,11.4c6.5,2.1,12.9,4.3,19.1,7.3
	c19.3,9.2,28.1,25,29.4,45.7c2.2,34.2-17.6,56.4-45.4,67.1C481.2,630.1,465.8,632.1,449.5,631.5L449.5,631.5z"/>
<path class="st0" d="M807.2,370c0-6.7,0.1-13.3-0.1-20c-0.1-2.9,1-4.1,3.9-4.5c17.4-2,34.8-2,52.2,0c3.9,0.4,4.3,2.4,4.2,5.7
	c-1,42.4-1.9,84.8-2.9,127.3c-0.4,18.1-0.8,36.3-1,54.4c0,3.3-0.8,4.7-4.2,5.2c-14.9,2-29.8,2.1-44.7-0.1c-3.6-0.5-4.1-2.1-4.1-5.2
	c-0.3-25.8-0.7-51.6-1.3-77.4c-0.6-28.4-1.3-56.9-1.9-85.3C807.3,370,807.2,370,807.2,370L807.2,370z"/>
<path class="st0" d="M806.4,597.6c-0.4-6.8,0.5-14.4,1.2-22c0.3-3.7,1.2-6.2,5.9-6.7c16.6-1.8,33.1-2.1,49.7,0.5
	c2.3,0.4,2.9,1.5,3.2,3.6c2.4,17.1,2.3,34.1,0,51.2c-0.4,2.8-2.1,3.9-4.1,4.1c-16.9,1.2-33.8,2.3-50.7-0.6c-2.2-0.4-3-1.1-3.4-3.3
	C806.8,615.7,806.2,607.1,806.4,597.6L806.4,597.6z"/>
</svg>
