<?xml version="1.0" encoding="utf-8"?>
<!-- Generator: Adobe Illustrator 28.1.0, SVG Export Plug-In . SVG Version: 6.00 Build 0)  -->
<svg version="1.1" id="Layer_1" xmlns="http://www.w3.org/2000/svg" xmlns:xlink="http://www.w3.org/1999/xlink" x="0px" y="0px"
	 viewBox="0 0 420.2 420.1" style="enable-background:new 0 0 420.2 420.1;" xml:space="preserve">
<style type="text/css">
	.st0{fill:#ED6516;}
	.st1{fill:#FFFFFF;}
</style>
<g>
	<path class="st0" d="M104,104c27.2-27.2,64.7-44,106.1-44s79,16.8,106.1,44l42.5-42.5C320.7,23.5,268.2,0,210.1,0
		S99.6,23.5,61.5,61.5L104,104z"/>
	<path class="st1" d="M371,74.9l-42.7,42.7c20,25.5,31.9,57.6,31.9,92.5c0,28.3-7.8,54.7-21.4,77.3l-77.3-77.3l-42.1-98.9h-0.2
		v133.6l83.4,83.4c-25.5,20-57.6,31.9-92.5,31.9s-67-11.9-92.5-31.9l83.4-83.4V111.7l-42.3,98.4l-77.3,77.3
		c-13.6-22.6-21.4-49-21.4-77.3c0-34.9,11.9-67,31.9-92.5L49.2,74.9C18.5,111.4,0,158.6,0,210c0,116,94.1,210.1,210.1,210.1
		s210.1-94,210.1-210.1C420.2,158.6,401.7,111.4,371,74.9z"/>
	<g>
		<g>
			<g>
				<g>
					<path class="st1" d="M365.2,385.1h-1.5v2.2h-0.8v-5.9h2.4c1.1,0,1.8,0.7,1.8,1.9c0,0.9-0.5,1.6-1.3,1.8l1.4,2.3h-0.9
						L365.2,385.1z M363.7,384.4h1.6c0.7,0,1.2-0.5,1.2-1.2s-0.4-1.2-1.2-1.2h-1.6V384.4z"/>
				</g>
				<path class="st1" d="M365,389.8c-3.1,0-5.5-2.5-5.5-5.5c0-3.1,2.5-5.5,5.5-5.5s5.5,2.5,5.5,5.5C370.5,387.4,368,389.8,365,389.8
					z M365,379.5c-2.7,0-4.8,2.1-4.8,4.8s2.1,4.8,4.8,4.8s4.8-2.1,4.8-4.8C369.8,381.7,367.6,379.5,365,379.5z"/>
			</g>
		</g>
	</g>
</g>
</svg>
