<?xml version="1.0" encoding="utf-8"?>
<!-- Generator: Adobe Illustrator 28.1.0, SVG Export Plug-In . SVG Version: 6.00 Build 0)  -->
<svg version="1.1"
	 id="svg3960" xmlns:rdf="http://www.w3.org/1999/02/22-rdf-syntax-ns#" xmlns:cc="http://creativecommons.org/ns#" xmlns:dc="http://purl.org/dc/elements/1.1/" xmlns:svg="http://www.w3.org/2000/svg"
	 xmlns="http://www.w3.org/2000/svg" xmlns:xlink="http://www.w3.org/1999/xlink" x="0px" y="0px" viewBox="0 0 300 300"
	 style="enable-background:new 0 0 300 300;" xml:space="preserve">
<style type="text/css">
	.st0{fill:#FA9C1E;}
	.st1{fill:#4A4C4E;}
</style>
<path id="path3961" class="st0" d="M148.3,0C114.9,0.2,81.9,12.1,56,33l28.3,32.9c23.9-18.8,56.1-26.5,86-20.6
	c16.4,3.1,32,10.3,45.2,20.6L244,33C217.1,11.4,182.9-0.5,148.3,0z"/>
<path id="path4052" class="st1" d="M46.8,41.1C16.9,69.1-0.6,109.9,0,151c0,42.7,19.5,84.6,51.8,112.3
	c29.9,26.1,70.5,39.4,110.2,36.1c43-3.2,83.8-26.1,109-61c24.5-33.1,34.2-76.9,26-117.4c-6-31-22.2-59.8-45.4-81.2l-28.3,32.9
	c22.8,21.5,35.3,53.3,32.9,84.6c-1,15.5-5.5,30.8-13.1,44.5L185.4,146l-29.1-62.8l-0.1,95.1l58.3,56.4c-26,20.2-61.7,26.9-93.3,17.9
	c-12.8-3.6-25-9.6-35.6-17.7l58.7-56.7c-0.1-30.9,0.3-64.3,0-95.2L115.2,146L57,202.2c-17.7-31-18.2-71.1-1.1-102.4
	c5.3-10,12.4-19.2,20.6-27.1L48.2,39.7C47.7,40.2,47.3,40.6,46.8,41.1z"/>
</svg>
