<?xml version="1.0" encoding="UTF-8"?>
<svg id="_레이어_1" data-name="레이어 1" xmlns="http://www.w3.org/2000/svg" viewBox="0 0 1632.006 1631.959">
  <defs>
    <style>
      .cls-1 {
        fill: #fefefe;
        stroke-width: 0px;
      }
    </style>
  </defs>
  <path class="cls-1" d="M927.604,314.518c-3.024-1.791-4.544-4.822-6.508-7.401-32.112-42.156-65.022-83.673-99.172-124.201-5.978-7.094-6.675-5.097-1.074-13.196,60.021-86.799,141.455-142.364,245.157-161.962,128.216-24.232,241.954,8.431,338.483,96.177,64.998,59.084,105.055,133.072,118.014,220.192,17.306,116.346-10.702,221.718-83.515,314.047-51.507,65.313-120.209,104.019-201.146,121.374-46.609,9.994-93.738,12.793-141.135,7.499-55.829-6.235-107.343-25.143-154.955-54.803-42.981-26.775-81.359-59.025-115.27-96.665-57.825-64.181-111.305-131.92-164.135-200.184-25.927-33.501-52.484-66.415-82.821-96.091-21.795-21.321-45.523-40.069-73.059-53.506-45.877-22.389-93.628-24.566-142.147-11.147-78.553,21.726-131.95,72.318-163.738,146.4-17.974,41.889-25.441,86.19-25.522,131.54-.294,165.664-.184,331.33-.036,496.995.021,22.999,2.046,45.902,5.557,68.681,5.352,34.717,22.316,63.049,47.143,87.124,13.906,13.485,28.853,25.681,45.51,35.708,111.822,67.316,223.776,134.412,337.545,198.408,59.827,33.653,124.226,44.127,191.992,36.544,40.588-4.542,78.501-17.278,114.078-37.162,57.277-32.011,113.092-66.473,168.967-100.834,89.074-54.777,177.725-110.233,265.86-166.508,23.78-15.184,44.322-34.13,61.652-56.434,19.366-24.924,30.459-52.934,30.993-84.775.022-1.332.071-2.668.21-3.991.064-.61.374-1.195.786-2.434,59.419,25.396,118.368,23.484,177.005-4.838,1.873,17.668,1.011,34.28-1.049,50.792-8.971,71.927-42.667,131.602-91.749,183.474-26.469,27.974-56.309,51.847-88.853,72.462-123.218,78.053-246.289,156.344-371.904,230.523-35.538,20.987-70.996,42.226-109.139,58.331-56.159,23.711-114.745,36.13-175.739,37.196-64.797,1.132-128.265-6.478-189.648-28.229-30.829-10.925-60.413-24.578-88.597-41.132-93.881-55.14-187.683-110.415-281.469-165.717-26.953-15.894-54.472-30.856-79.958-49.168-28.276-20.316-54.613-42.658-76.165-70.242-30.397-38.905-47.557-83.645-57.723-131.397-7.525-35.347-9.877-71.221-9.909-107.282C.276,870.687.142,702.691,0,534.695c-.068-80.101,15.36-156.892,50.209-229.26,37.039-76.916,90.613-139.238,164.576-183.07,39.999-23.704,83.601-37.592,128.869-46.786,27.825-5.651,55.919-8.514,84.362-8.385,88.169.401,165.716,29.558,232.879,86.262,40.087,33.845,75.28,72.595,109.601,112.147,28.857,33.256,54.261,69.227,81.69,103.606,35.751,44.809,71.15,89.913,110.392,131.781,23.36,24.923,49.34,46.816,79.01,63.896,77.216,44.451,178.347,31.94,242.462-30.039,48.601-46.981,70.115-104.696,63.777-171.732-8.43-89.166-70.655-165.536-167.237-183.061-58.204-10.561-110.945,3.232-158.858,37.259-33.517,23.804-61.149,53.378-85.444,86.296-2.746,3.72-4.92,7.935-8.685,10.909Z"/>
  <path class="cls-1" d="M648.336,572.925c3.583,4.102,5.732,6.444,7.752,8.893,35.406,42.919,69.153,87.195,105.647,129.223,17.053,19.638,34.723,38.705,54.164,56.008,4.629,4.12,6.505,8.273,6.497,14.521-.086,67.983.098,135.967.292,203.95.165,57.649.444,115.299.662,172.948.118,31.208-11.942,56.627-37.805,74.187-28.539,19.377-59.384,21.393-89.949,5.615-30.624-15.809-47.046-42.153-47.103-76.742-.319-193.623-.156-387.248-.158-580.871,0-1.87,0-3.74,0-7.731Z"/>
  <path class="cls-1" d="M1632.004,824.29c.318,56.024-45.697,102.5-101.93,102.951-56.924.456-103.553-45.393-103.731-101.999-.179-56.779,45.82-102.91,102.742-103.035,56.022-.123,102.601,46.077,102.919,102.083Z"/>
</svg>