<?xml version="1.0" encoding="utf-8"?>
<!-- Generator: Adobe Illustrator 28.1.0, SVG Export Plug-In . SVG Version: 6.00 Build 0)  -->
<svg version="1.1" id="레이어_1" xmlns="http://www.w3.org/2000/svg" xmlns:xlink="http://www.w3.org/1999/xlink" x="0px"
	 y="0px" viewBox="0 0 492.2 392" style="enable-background:new 0 0 492.2 392;" xml:space="preserve">
<style type="text/css">
	.st0{fill:#FFFFFF;}
</style>
<path class="st0" d="M192.1,319.9c-2.5-1-6.5-5.5,0.2-18.1l15.6-32.6c0.5-1-0.7-2.2-1.4-1.4l-13.6,13.7
	c-6.4,6.7-17.4,25.6-19.5,29.1L156.8,338c1.2,0,2.3,0.9,2.3,2.2c0,0.4-0.1,0.8-0.3,1.2l-15.1,25.4c-3.7,6.3,2.9,10.7,3.8,9.3
	c23.8-38.3,37.6-35.2,37.6-35.2l7.9-18.4c0.4-0.9,0-2-0.9-2.4c0,0,0,0,0,0C192.1,320,192.1,320,192.1,319.9L192.1,319.9z M246.1,0
	C110.2,0,0,110.1,0,246C-0.1,298.6,16.8,349.8,48.1,392c10.3-4.5,16.1-11.1,20.2-16.2l45.8-58.6c1-1.2,2.2-2.2,3.7-2.8l6.9-3
	l75.3-95.5l10.9-8.5l22.5-31.2c0.6-0.8,1.3-1.5,2.1-2.1l9.8-7.1c2.4-1.8,5.7-1.8,8.1-0.1l11.9,8.3c6.3,4.4,11.4,10.3,14.9,17.2
	l47.6,83.6c0.8,1.6,2.1,2.9,3.7,3.6c9.3,4.6,15,5.5,27.3,18.7c5.7,6.2,30.7,34.1,65.7,77.5c5.1,7,11.9,12.5,19.8,16
	c31.2-42.2,48-93.4,48-145.9C492.2,110.1,382,0,246.1,0L246.1,0z M66.4,259.5l-16-5.2l-9.9,13.6v-16.8l-16-5.2l16-5.2V224l9.9,13.6
	l16-5.2L56.5,246L66.4,259.5L66.4,259.5z M62.6,314.4l-5.2,15.9l-5.2-15.9H35.4l13.6-9.9l-5.2-15.9l13.6,9.9l13.6-9.9l-5.2,15.9
	l13.6,9.9H62.6z M65.8,187.4l5.2,15.9l-13.6-9.9l-13.6,9.9l5.2-15.9l-13.6-9.9h16.8l5.2-15.9l5.2,15.9h16.8L65.8,187.4z M92.7,151.4
	l-9.9-13.6l-16,5.2l9.9-13.6l-9.9-13.6l16,5.2l9.9-13.6v16.8l16,5.2l-16,5.2L92.7,151.4C92.7,151.3,92.7,151.4,92.7,151.4z
	 M134.7,92.7l-5.2,15.9l-5.2-15.9h-16.8l13.6-9.9l-5.2-15.9l13.6,9.9l13.6-9.9l-5.2,16l13.6,9.9L134.7,92.7L134.7,92.7L134.7,92.7z
	 M187.5,65.8l-9.9,13.6V62.6l-16-5.2l16-5.2V35.4l9.9,13.6l16-5.2l-9.9,13.6l9.9,13.6L187.5,65.8L187.5,65.8z M254.5,50.4l5.2,15.9
	l-13.6-9.9l-13.6,9.9l5.2-15.9l-13.6-9.9h16.8l5.2-15.9l5.2,15.9h16.8L254.5,50.4L254.5,50.4z M314.5,62.6v16.8l-9.9-13.6l-16,5.2
	l9.9-13.6l-9.9-13.6l16,5.2l9.9-13.6v16.8l16,5.2L314.5,62.6L314.5,62.6z M425.8,232.4l16,5.2l9.9-13.6v16.8l16,5.2l-16,5.2v16.8
	l-9.9-13.6l-16,5.2l9.9-13.6L425.8,232.4L425.8,232.4z M362.7,108.6l-5.2-15.9h-16.8l13.6-9.9l-5.2-15.9l13.6,9.9l13.6-9.9
	l-5.2,15.9l13.6,9.9h-16.8L362.7,108.6z M399.5,151.4v-16.8l-16-5.2l16-5.2v-16.8l9.9,13.6l16-5.2l-9.9,13.6l9.9,13.6l-16-5.2
	L399.5,151.4L399.5,151.4z M429.6,177.6l5.2-15.9l5.2,15.9h16.8l-13.6,9.9l5.2,15.9l-13.6-9.9l-13.6,9.9l5.2-15.9l-13.6-9.9H429.6
	L429.6,177.6z M440,314.4l-5.2,15.9l-5.2-15.9h-16.8l13.6-9.9l-5.2-15.9l13.6,9.9l13.6-9.9l-5.2,15.9l13.6,9.9H440L440,314.4z
	 M335.2,388.1c1.2-1.7,3.1-6.4-0.5-15.2l-10.9-29.3c-1.5-3.7,1.8-6,3.9-3.5c0,0,20.6,23.7,25.9,33.6l10.1,16.8
	c8.7,0.6,32.8,1.2,56,1.2c-2.3-2.3-4.5-4.8-6.5-7.5c-39.6-49.1-64.7-76.3-64.9-76.6c-8-8.7-11.7-10.4-17.8-13.2
	c-0.9-0.4-1.8-0.8-2.8-1.3v7.4c0.1,0.5-0.3,1-0.8,1c-0.4,0.1-0.8-0.2-1-0.6L267.8,199l-0.2-0.3c-2.4-4.8-6-9-10.4-12.1l-5.7-4
	l-27.8,64c3.3,0,6,2.7,6,6c0,0.8-0.2,1.6-0.5,2.4l-25.7,59.3h23.5c9.1,0,18.1,1.8,26.5,5.2l6.2,2.5c0,0-18.7,38.5-18.7,58.8
	c0,3.7,0.5,7.4,1.5,10.9h43.2l-2-12.2C300.9,383.5,318,386.3,335.2,388.1L335.2,388.1L335.2,388.1z"/>
</svg>
