<?xml version="1.0" encoding="utf-8"?>
<!-- Generator: Adobe Illustrator 28.2.0, SVG Export Plug-In . SVG Version: 6.00 Build 0)  -->
<svg version="1.1"
	 id="Art" xmlns:inkscape="http://www.inkscape.org/namespaces/inkscape" xmlns:svg="http://www.w3.org/2000/svg" xmlns:sodipodi="http://sodipodi.sourceforge.net/DTD/sodipodi-0.dtd" xmlns:rdf="http://www.w3.org/1999/02/22-rdf-syntax-ns#" xmlns:dc="http://purl.org/dc/elements/1.1/" xmlns:cc="http://creativecommons.org/ns#"
	 xmlns="http://www.w3.org/2000/svg" xmlns:xlink="http://www.w3.org/1999/xlink" x="0px" y="0px" viewBox="0 0 303.7 303.7"
	 style="enable-background:new 0 0 303.7 303.7;" xml:space="preserve">
<style type="text/css">
	.st0{fill:#FFFFFF;}
</style>
<g id="g1452" transform="scale(0.60738581)">
	<g id="g1450">
		<path id="path1448" inkscape:connector-curvature="0" class="st0" d="M200,300v-50.3h100.1c27.5,0,49.9-22.3,49.9-49.9l0,0
			c0-27.5-22.3-49.9-49.9-49.9H0l0,0C0,67.2,67.2,0,150,0h150c110.5,0,200,89.5,200,200l0,0c0,110.5-89.5,200-200,200l0,0
			C244.8,400,200,355.2,200,300z M150,350V200l0,0C67.2,200,0,267.2,0,350v150l0,0C82.8,500,150,432.8,150,350z"/>
	</g>
</g>
</svg>
