<?xml version="1.0" encoding="utf-8"?>
<!-- Generator: Adobe Illustrator 28.2.0, SVG Export Plug-In . SVG Version: 6.00 Build 0)  -->
<svg version="1.1" id="레이어_1" xmlns="http://www.w3.org/2000/svg" xmlns:xlink="http://www.w3.org/1999/xlink" x="0px"
	 y="0px" viewBox="0 0 160 31.4" style="enable-background:new 0 0 160 31.4;" xml:space="preserve">
<style type="text/css">
	.st0{fill:#FFFFFF;}
</style>
<path class="st0" d="M7.6,30.8H0V12.3C0,5.8,5.3,0,13.2,0c7.9,0,13.2,5.8,13.2,12.3c0,6.6-5.3,12.3-13.2,12.3
	c-2.4,0-3.5-0.3-4.7-0.7c-0.6-0.1-0.9,0-0.9,0.7L7.6,30.8L7.6,30.8z M18.5,12.3c0-2.6-1.9-5.3-5.3-5.3c-3.4,0-5.3,2.7-5.3,5.3
	c0,2.6,1.9,5.3,5.3,5.3C16.6,17.6,18.5,14.9,18.5,12.3z M39.7,30.3h-7.6V11.9c0-6.1,5.1-11.5,12.7-11.5c7.6,0,12.7,5.4,12.7,11.5
	v18.4H50V21c0-0.5-0.3-0.8-0.8-0.8h-8.8c-0.5,0-0.8,0.3-0.8,0.8V30.3z M50,13.3V12c0-2.4-1.8-5-5.2-5c-3.3,0-5.2,2.6-5.2,5v1.3
	c0,0.5,0.3,0.8,0.8,0.8h8.8C49.8,14,50,13.7,50,13.3z M87,5.8l-5.4,3.5c-0.2-0.2-0.3-0.4-1-1c-1.6-1.3-3.3-1.9-4.7-1.9
	c-3.5,0-4.6,1.8-4.6,2.8c0,2.9,4.7,2.9,4.7,2.9c6.8,0.3,12.6,3,12.6,9.3c0,5.6-4.7,10-12.7,10c-5.8,0-9.9-3-12.1-5.9
	c0,0-0.6-0.8-0.7-1.1l5.3-3.3c0.2,0.5,0.8,1.1,0.8,1.1v0c1.5,1.5,4,3.1,6.6,3.1c3.7,0,5.2-2,5.2-3.9c0-3.3-5.2-3.2-5.2-3.2
	C68.2,17.8,64,14.4,64,9.3c0-4.2,3.9-8.9,11.9-8.9c3.9,0,7.8,1.5,10.2,4.2C86.7,5.2,86.9,5.5,87,5.8L87,5.8z M160,19
	c0,6.2-5.1,11.7-12.8,11.7c-7.7,0-12.8-5.4-12.8-11.7v-7.3c0-6.2,5.1-11.7,12.8-11.7c7.7,0,12.8,5.4,12.8,11.7V19z M152.4,19v-7.3
	c0-2.4-1.8-5-5.2-5c-3.3,0-5.2,2.6-5.2,5V19c0,2.4,1.8,5,5.2,5C150.6,24,152.4,21.4,152.4,19L152.4,19z M118.2,0
	c6.1,0,10.2,4.2,10.2,9.3v21.5H121V9.3c0-1.6-1.3-2.6-2.8-2.6c-1.5,0-2.8,1-2.8,2.6v13.5h-7.5V9.3c0-1.6-1.3-2.6-2.8-2.6
	c-1.5,0-2.8,1-2.8,2.6v21.5h-7.5V9.3c0-5,4-9.3,10.2-9.3c2.7,0,5.5,1,6.6,2.7C112.7,1,115.5,0,118.2,0z"/>
</svg>
