<?xml version="1.0" encoding="utf-8"?>
<!-- Generator: Adobe Illustrator 28.1.0, SVG Export Plug-In . SVG Version: 6.00 Build 0)  -->
<svg version="1.1" id="레이어_1" xmlns="http://www.w3.org/2000/svg" xmlns:xlink="http://www.w3.org/1999/xlink" x="0px"
	 y="0px" viewBox="0 0 214.2 263.6" style="enable-background:new 0 0 214.2 263.6;" xml:space="preserve">
<style type="text/css">
	.st0{fill:#B2C1DB;}
	.st1{fill:#738DBD;}
	.st2{fill:#FFFFFF;}
</style>
<path class="st0" d="M182.3,60.4c0.6-33.1-26.7-58.5-64.2-58.5H40.4c-3.7,0-6.9,2.7-7.5,6.4L1.7,202.8c-0.5,3.4,1.8,6.5,5.1,7.1
	c0.3,0.1,0.6,0.1,1,0.1h46l-7.2,45c-0.5,3.4,1.8,6.5,5.1,7.1c0.3,0.1,0.6,0.1,1,0.1h37.5c1.8,0,3.4-0.6,4.8-1.8
	c1.4-1.2,1.6-2.8,1.9-4.6l11-64.7c0.3-1.8,1.2-4.1,2.6-5.3s2.6-1.8,4.4-1.8h22.9c36.8,0,68-26.1,73.7-62.5
	C215.5,95.6,204.5,72.1,182.3,60.4L182.3,60.4z"/>
<path class="st1" d="M63.8,138.2l-11.5,72.7l-7.2,45.6c-0.5,3.4,1.8,6.5,5.1,7.1c0.3,0,0.6,0.1,1,0.1h39.7c3.7,0,6.9-2.7,7.5-6.4
	l10.5-66.3c0.6-3.7,3.8-6.4,7.5-6.4h23.4c36.8,0,68-26.8,73.7-63.2c4-25.8-8.9-49.3-31.2-60.9c-0.1,2.7-0.3,5.5-0.7,8.2
	c-5.7,36.3-36.9,63.2-73.7,63.2H71.3C67.6,131.8,64.4,134.5,63.8,138.2"/>
<path class="st2" d="M52.3,210.9H6.2c-3.4,0-6.2-2.8-6.2-6.2c0-0.3,0-0.6,0.1-1L31.2,6.4C31.8,2.7,35,0,38.7,0H118
	c37.6,0,64.9,27.3,64.2,60.4c-9.3-4.9-20.3-7.7-32.4-7.7H83.8c-3.7,0-6.9,2.7-7.5,6.4l-12.5,79.1L52.3,210.9L52.3,210.9z"/>
</svg>
