<?xml version="1.0" encoding="utf-8"?>
<!-- Generator: Adobe Illustrator 28.1.0, SVG Export Plug-In . SVG Version: 6.00 Build 0)  -->
<svg version="1.1" id="레이어_1" xmlns="http://www.w3.org/2000/svg" xmlns:xlink="http://www.w3.org/1999/xlink" x="0px"
	 y="0px" viewBox="0 0 312.5 312.5" style="enable-background:new 0 0 312.5 312.5;" xml:space="preserve">
<style type="text/css">
	.st0{fill:#FFFFFF;}
</style>
<g>
	<path class="st0" d="M281.4,113.2C281.4,48.5,228.6,0,160.6,0C76,0,31.1,56.8,31.1,118.6c0,28.8,15.3,64.5,39.8,75.9
		c3.7,1.7,5.7,1,6.6-2.6c0.6-2.7,4-16,5.4-22.2c0.5-2,0.2-3.7-1.4-5.6c-8.1-9.8-14.6-27.9-14.6-44.7c0-43.2,32.7-85.1,88.5-85.1
		c48.2,0,81.9,32.8,81.9,79.8c0,53-26.8,89.8-61.6,89.8c-19.2,0-33.6-15.9-29-35.4c5.5-23.3,16.2-48.4,16.2-65.3
		c0-15.1-8.1-27.6-24.8-27.6c-19.7,0-35.5,20.3-35.5,47.6c0,17.4,5.9,29.1,5.9,29.1s-19.4,82.1-23,97.4c-3.9,16.9-2.4,40.8-0.7,56.3
		c6.5,2.5,13.1,4.7,19.9,6.6c-2.2-0.6-4.3-1.2-6.5-1.9c8-13,19.9-34.4,24.4-51.4c2.4-9.2,12.2-46.6,12.2-46.6
		c6.4,12.2,25.1,22.5,44.9,22.5C238.8,235.1,281.4,180.8,281.4,113.2z"/>
</g>
</svg>
