<?xml version="1.0" encoding="utf-8"?>
<!-- Generator: Adobe Illustrator 28.1.0, SVG Export Plug-In . SVG Version: 6.00 Build 0)  -->
<svg version="1.1" id="레이어_1" xmlns="http://www.w3.org/2000/svg" xmlns:xlink="http://www.w3.org/1999/xlink" x="0px"
	 y="0px" viewBox="0 0 710.3 640.5" style="enable-background:new 0 0 710.3 640.5;" xml:space="preserve">
<style type="text/css">
	.st0{fill:#FFFFFF;}
</style>
<path class="st0" d="M622.8,76.4L622.8,76.4C566.9,28,488.8,0,397.9,0C161.1,0,0,181.6,0,181.6l45.4,71.6c0,0,22,2.1,8.7-40.1
	c11.5-21.5,37.7-50.6,74.7-84v476.6c-12,5.3-37.8,13.8-20.7,34.8h130.4c17.2-21-10.7-30-31.7-34.8V493.2c0,0,92,34.9,188.4,34.9
	c84.7,0,163-25,220.3-70.2c57.3-44.9,94.9-112,94.7-188.7C710.4,193.8,678.6,124.7,622.8,76.4z M552.9,420.2L552.9,420.2
	c-37,38.9-99.5,63.4-166,63.4c-74.2,0-135-14.2-180-34.4V91.7c50-31.9,121.2-51.6,180.4-51.5c72,0.1,129.8,27.1,168,68.1
	c38.1,41.2,59.2,96,59.4,159.7C614.5,329.9,589.9,381.1,552.9,420.2z"/>
</svg>
