<?xml version="1.0" encoding="UTF-8"?>
<svg id="_레이어_1" data-name="레이어 1" xmlns="http://www.w3.org/2000/svg" viewBox="0 0 1500 1400">
  <defs>
    <style>
      .cls-1 {
        fill: #a24c2d;
      }

      .cls-1, .cls-2, .cls-3, .cls-4, .cls-5, .cls-6, .cls-7, .cls-8, .cls-9, .cls-10 {
        stroke-width: 0px;
      }

      .cls-2 {
        fill: #a1a7ae;
      }

      .cls-3 {
        fill: #bb946b;
      }

      .cls-4 {
        fill: none;
      }

      .cls-5 {
        fill: #fff;
      }

      .cls-6 {
        fill: #ab7d68;
      }

      .cls-7 {
        fill: #6e9cba;
      }

      .cls-8 {
        fill: #c6c8cc;
      }

      .cls-9 {
        fill: #3f95d5;
      }

      .cls-10 {
        fill: #336e97;
      }
    </style>
  </defs>
  <polygon class="cls-10" points="100 100 100 1300 200 1300 200 1400 1400 1400 1400 1300 1500 1300 1500 100 100 100"/>
  <rect class="cls-9" x="400" y="100" width="1000" height="1100"/>
  <rect class="cls-7" x="850" y="-450" width="100" height="1000" transform="translate(850 950) rotate(-90)"/>
  <rect class="cls-1" x="300" width="100" height="1200"/>
  <rect class="cls-3" x="200" width="100" height="1200"/>
  <rect class="cls-6" x="100" width="100" height="1200"/>
  <polygon class="cls-8" points="300 300 300 200 100 200 0 200 0 1200 100 1200 100 1100 300 1100 300 1000 100 1000 100 900 300 900 300 800 100 800 100 700 300 700 300 600 100 600 100 500 300 500 300 400 100 400 100 300 300 300"/>
  <g>
    <rect class="cls-2" y="800" width="100" height="100"/>
    <rect class="cls-2" y="1000" width="100" height="100"/>
    <rect class="cls-2" y="200" width="100" height="100"/>
    <rect class="cls-2" y="400" width="100" height="100"/>
    <rect class="cls-2" y="600" width="100" height="100"/>
  </g>
  <g>
    <rect class="cls-4" x="800" y="400" width="200" height="300"/>
    <path class="cls-5" d="M1000,300h-400v700h200v-200h400v-500h-200ZM1000,700h-200v-300h200v300Z"/>
  </g>
</svg>