<svg xmlns="http://www.w3.org/2000/svg" width="2474.8706" height="1910.875" version="1.0" viewBox="0 0 1979.8965 1528.7"><g fill="#fff"><path d="m740.096 713.2.3 713.3 161 51.1 161 51.1.5-607.1c.6-573.2.7-607.6 2.3-615.6 2.4-11.7 4.5-18.4 7.7-25.7 11.1-24.6 30.2-34.8 53.5-28.3 34.1 9.4 53.7 34.2 60.9 77 3.3 19.9 3.6 40.2 3.6 282.3v240.8l9.5 4.5c20.7 9.6 48.2 19.3 69.8 24.4 134.6 31.7 234.6-32.6 268.2-172.4 9.4-39.2 13.3-81.4 12.1-132.9-1.6-72.3-9.6-127.7-25.5-176.2-25.1-77.1-70.5-136.4-141.1-184.4-60.1-40.8-129.6-71.8-242-107.9-141.1-45.3-279.1-83-375.8-102.7-12.3-2.5-23.3-4.5-24.3-4.5-1.9 0-1.9 13-1.7 713.2zM504.896 922.7c-94.9 33.7-198.6 70.6-230.5 81.9-83.9 29.8-92.1 32.8-112 40.9-56.9 23.1-105.6 49.3-131.7 70.9-9.5 7.9-18.1 18.6-23.3 29.1-6.5 13-7.8 19.3-7.3 34.5.4 10.7.9 13.7 3.5 20.7 5.7 15.7 17.5 31.9 33.1 45.6 21.6 18.9 60.1 38.6 97.7 50.2 6.6 2 19 5.9 27.5 8.5 161 50.6 326.5 62.1 493 34.2l22.5-3.8.3-84.2c.1-47.1-.2-84.2-.7-84.2-.4 0-17 5.9-36.7 13.1-139 50.6-143.8 52.1-172.9 57.3-59.3 10.7-122.2 7.6-153-7.4-18.2-8.8-23.4-18.6-16.5-30.6 5.1-9 18.1-18.5 35-25.6 4.1-1.7 83.3-30.2 175.8-63.4 92.6-33.1 168.6-60.4 168.8-60.7.2-.2.3-42.7.2-94.4l-.3-94-172.5 61.4z"/><path d="M1439.896 943.6c-94.7 5.2-202.4 25.2-292.2 54.1l-23.8 7.7v97.3c0 62.3.3 97.3 1 97.3.9 0 35-12 238-83.5 112.2-39.6 117.1-41.3 131.5-45 73.2-19.2 164.7-14.6 191 9.6 7.6 7 9.3 13.4 5.5 20.9-4.7 9.2-14.5 17-31.1 24.9-5.7 2.7-52 19.8-102.9 37.9-50.9 18.2-132.5 47.2-181.5 64.7-148.5 52.9-247.9 88.3-249.7 89-1.7.7-1.8 6.1-1.8 94.7 0 89.1.1 94 1.8 93.3 2-.8 277.2-99.6 606.6-217.9 56-20.2 108.2-39.4 116-42.7 42.8-18.4 82.1-42.8 103.5-64 19.8-19.6 28.1-37 28.1-58.4 0-22.8-8.5-40.2-29.6-60.4-18-17.4-50.1-36.4-83.4-49.4-17.2-6.7-73.3-25.9-91-31.1-66.1-19.4-133.4-31-218-37.7-13-1-104.6-2-118-1.3z"/></g></svg>