<?xml version="1.0" encoding="utf-8"?>
<!-- Generator: Adobe Illustrator 28.1.0, SVG Export Plug-In . SVG Version: 6.00 Build 0)  -->
<svg version="1.1" id="Layer_1" xmlns="http://www.w3.org/2000/svg" xmlns:xlink="http://www.w3.org/1999/xlink" x="0px" y="0px"
	 viewBox="0 0 283.5 283.5" style="enable-background:new 0 0 283.5 283.5;" xml:space="preserve">
<style type="text/css">
	.st0{fill:#FFFFFF;}
</style>
<g>
	<path class="st0" d="M240.7,194.8c5.3,5.3,8,11.6,8.3,19c5,31.6,7.7,50.6,7.9,57.1c0.5,6.2-1.3,9.9-5.4,11c-4.1,1.1-7.1,1.6-9,1.6
		c-2.4,0-5.2-0.5-8.4-1.6c-3.2-1.1-5.8-2.8-7.7-5.2c-3.6-4.5-6.6-8.9-9-13.1c-2.4-4.2-4.7-8.4-6.8-12.7H161c-2.2,4.3-4.5,8.6-7,12.7
		c-2.5,4.2-5.4,8.6-8.8,13.1c-1.9,2.4-4.6,4.1-7.9,5.2c-3.4,1.1-6.1,1.6-8.3,1.6c-1.9,0-4.9-0.5-9-1.6c-4.1-1.1-5.9-4.7-5.4-11
		c0.2-6.5,2.7-25.5,7.5-57.1c0.5-7.4,3.4-13.8,8.6-19c5.3-5.3,11.3-7.9,18-7.9c4.3,0,8.3,1.3,12,3.8c3.7,2.5,7.4,5,10.9,7.4h28
		c3.6-2.4,7.2-4.8,11-7.4c3.7-2.5,7.6-3.8,11.7-3.8C229.4,186.9,235.5,189.5,240.7,194.8z"/>
	<path class="st0" d="M26.5,0v250.5h74.9c1.1-8.6,2.9-20.8,5.5-38.4c0.9-10.9,5.2-20.4,13-28.2c8.1-8.1,18.1-12.4,28.8-12.4
		c7.4,0,14.4,2.2,20.6,6.4c1.4,0.9,2.7,1.8,4,2.7V0H26.5z"/>
</g>
</svg>
