<?xml version="1.0" encoding="utf-8"?>
<!-- Generator: Adobe Illustrator 28.1.0, SVG Export Plug-In . SVG Version: 6.00 Build 0)  -->
<svg version="1.1" id="레이어_1" xmlns="http://www.w3.org/2000/svg" xmlns:xlink="http://www.w3.org/1999/xlink" x="0px"
	 y="0px" viewBox="0 0 1000 1241" style="enable-background:new 0 0 1000 1241;" xml:space="preserve">
<style type="text/css">
	.st0{fill:#FFFFFF;}
</style>
<path class="st0" d="M959.3,309.9c-0.3-4.6-4.5-8.3-9.7-8.3l-98.8-14.2c-0.9-0.2-1.9-0.3-2.9-0.4c-19.8,0-66.8-0.1-137.5-0.2
	c0-0.1,0-0.2,0-0.2c-8.4-64.4-32.8-171.5-78.9-233.7c-25.6-34.7-55.5-52.2-88.6-52c-21.2,0-40.2,6.5-57,19.3
	C468,9.7,449.4,5.4,430.2,7.3c-93,9.5-122.1,146.1-128.3,279.3c0,0.2,0,0.3,0,0.5c-81.6,0.4-163.3,1.4-245,3
	c-5.9,0.1-10.7,4.3-11,9.7C43.6,337.2,35,483.9,22.8,709.4c-12.9,238.5-20.3,368.6-22.1,403c-0.3,4.9,3.6,9.2,9,10l393.4,59.6
	l389,59c3.2,0.5,3-0.2,9-2v0.1l192-122.8c5.4-3.4,7.8-8.3,7.6-14.7L959.3,309.9L959.3,309.9z M543,38.3c17.3-0.1,33.4,8.1,49,25.2
	c47.1,51.5,71.5,161.3,80.7,223.1c0,0.1,0,0.1,0,0.2l-59-0.1c0,0,0-0.1,0-0.1C600.4,204.4,567.4,99.5,516.3,45
	C524.4,40.8,533.4,38.3,543,38.3z M488.5,69.8c44.6,46.1,74.7,141.3,87.5,216.8c0,0,0.1,0.1,0.1,0.1c-37.6-0.1-144.2-0.1-144.2-0.1
	v0C438,217.5,450.9,119.5,488.5,69.8L488.5,69.8z M206.7,868.4c15.5,5.2,43.6,3.7,62.4-3.2l51.9-18.5v53.7c-6,0.6-7.6,1.1-11,1.7
	c-51,8.5-105.8,5-159.5-12.7c-50-14-58.5-43.5-35.7-60.4c21-15.6,57.5-27.2,57.5-27.2L321,748.9v62.6h-0.5l-106.9,36.9
	C194.7,855.2,191.5,863.4,206.7,868.4L206.7,868.4z M339.2,286.6c7-149.2,40.6-236.5,94.8-242.1c8.3-0.8,16.5,0.5,24.5,3.7
	c-46.6,63.5-60,175.6-63.9,238.3c0,0,0,0.1,0,0.1c-19.2,0.1-37.7,0.1-55.4,0.2C339.2,286.8,339.2,286.7,339.2,286.6L339.2,286.6z
	 M444,579.3v383l-105-32.7V472.8c47,8.1,108.3,27.5,142.8,39c87.4,30.1,117.7,67.6,117.7,151.6c0,82.2-50.5,113.4-114.5,82.2V592.6
	c0-17.9-3.2-34.5-20.1-39.2C452,549.3,444,561.2,444,579.3L444,579.3z M731.4,847.5c-12.5,15.6-43.8,26.8-43.8,26.8L461,955.4v-59.9
	l167-59.1c18.9-6.9,22.2-16.4,6.9-21.4c-15.4-5-43.6-3.6-62.7,3.2l-111.3,39V795l7.3-2.1c0,0,32.5-11.3,77.4-16.1
	c44.9-5,100.3,0.6,143.7,16.9C738,809.2,743.8,831.8,731.4,847.5L731.4,847.5z"/>
</svg>
