<?xml version="1.0" encoding="utf-8"?>
<!-- Generator: Adobe Illustrator 28.1.0, SVG Export Plug-In . SVG Version: 6.00 Build 0)  -->
<svg version="1.1" id="Layer_1" xmlns="http://www.w3.org/2000/svg" xmlns:xlink="http://www.w3.org/1999/xlink" x="0px" y="0px"
	 viewBox="0 0 283.5 283.5" style="enable-background:new 0 0 283.5 283.5;" xml:space="preserve">
<style type="text/css">
	.st0{fill:#FFFFFF;}
</style>
<g>
	<path class="st0" d="M43.6,148.7c3.7,8.8,8.9,16.5,15.4,23c6.5,6.5,14.2,11.6,23,15.4c8.6,3.7,17.9,5.6,27.8,5.6
		c6,0,11.6-0.7,16.9-2c5.3-1.3,10.5-3.2,15.5-5.6c-0.2,1.8-0.6,4.1-1.2,6.9c-0.6,2.9-1,5.8-1.5,8.9h-126c-3.8,0-6.9-1.4-9.6-4.1
		c-2.6-2.8-4-6.1-4-10.1V54.4c0-4,1.3-7.3,4-10.1c2.6-2.8,5.8-4.1,9.6-4.1H206c4,0,7.3,1.4,9.9,4.1c2.6,2.8,4,6.1,4,10.1v95.9H209
		c-3.1-2-6.7-4-10.7-6c-4.1-2-8.7-3-13.7-3c-1.3,0-2.5,0.1-3.6,0.3c-1.1,0.2-2.2,0.3-3.3,0.3c1.3-3.7,2.4-7.2,3.3-10.4
		c0.9-3.2,1.3-6.9,1.3-11.1c0-10.1-2-19.5-6-28.1c-3.8-8.8-8.9-16.5-15.4-23c-6.5-6.5-14.2-11.6-23-15.4c-8.8-3.7-18.2-5.6-28.1-5.6
		c-9.9,0-19.2,1.9-27.8,5.6c-8.8,3.8-16.5,8.9-23,15.4c-6.5,6.5-11.6,14.2-15.4,23c-3.8,8.6-5.6,18-5.6,28.1
		C38,130.7,39.9,140.1,43.6,148.7z M25.1,188.4c3.5,0,6.6-1.3,9.1-3.8c2.5-2.5,3.8-5.6,3.8-9.1c0-3.5-1.3-6.5-3.8-8.9
		c-2.5-2.4-5.6-3.6-9.1-3.6c-3.5,0-6.5,1.2-8.9,3.6c-2.4,2.4-3.6,5.4-3.6,8.9c0,3.5,1.2,6.6,3.6,9.1
		C18.6,187.1,21.6,188.4,25.1,188.4z M151.9,162.4c-11.6,11.6-25.6,17.4-42.2,17.4c-16.3,0-30.3-5.8-41.8-17.4
		c-11.6-11.6-17.4-25.5-17.4-41.8S56.4,90.3,68,78.7c11.6-11.6,25.5-17.4,41.8-17.4c16.5,0,30.6,5.8,42.2,17.4
		c11.6,11.6,17.4,25.5,17.4,41.8S163.5,150.8,151.9,162.4z M268.5,161.6c4.8,4.9,7.4,10.7,7.6,17.5c4.6,29.1,7.1,46.6,7.3,52.6
		c0.4,5.7-1.2,9.1-5,10.1c-3.8,1-6.5,1.5-8.3,1.5c-2.2,0-4.8-0.5-7.8-1.5c-3-1-5.3-2.6-7.1-4.8c-3.3-4.2-6.1-8.2-8.3-12.1
		c-2.2-3.9-4.3-7.8-6.3-11.7h-45.6c-2,4-4.1,7.9-6.4,11.7c-2.3,3.9-5,7.9-8.1,12.1c-1.8,2.2-4.2,3.8-7.3,4.8c-3.1,1-5.6,1.5-7.6,1.5
		c-1.8,0-4.5-0.5-8.3-1.5c-3.8-1-5.4-4.4-5-10.1c0.2-6,2.5-23.5,6.9-52.6c0.4-6.8,3.1-12.7,7.9-17.5c4.8-4.8,10.4-7.3,16.5-7.3
		c4,0,7.7,1.2,11.1,3.5c3.4,2.3,6.8,4.6,10.1,6.8h25.8c3.3-2.2,6.7-4.5,10.1-6.8c3.4-2.3,7-3.5,10.7-3.5
		C258,154.3,263.7,156.7,268.5,161.6z"/>
</g>
</svg>
