<?xml version="1.0" encoding="UTF-8"?>
<svg xmlns="http://www.w3.org/2000/svg" xmlns:xlink="http://www.w3.org/1999/xlink" width="px" height="100px" viewBox="0 0 100 100" version="1.1">
<g id="surface1">
<path style=" stroke:none;fill-rule:nonzero;fill:rgb(100%,100%,100%);fill-opacity:1;" d="M 39.964844 95.097656 L 39.929688 94.78125 L 39.929688 94.671875 C 39.824219 94.144531 39.789062 93.582031 39.789062 92.980469 C 39.683594 91.992188 39.648438 90.96875 39.71875 89.910156 C 39.753906 88.960938 39.859375 87.9375 39.964844 86.878906 L 39.964844 86.738281 C 40.492188 82.539062 41.375 78.835938 42.539062 75.835938 C 43.527344 73.296875 44.199219 71.605469 44.65625 70.617188 C 44.972656 69.734375 45.503906 68.996094 46.03125 68.253906 C 46.703125 67.300781 47.265625 66.632812 47.761719 66.136719 L 47.902344 65.996094 L 48.042969 65.890625 C 49.03125 65.042969 50.125 64.304688 51.289062 63.738281 C 52.59375 63.070312 54.003906 62.679688 55.484375 62.503906 L 55.765625 62.46875 L 56.578125 62.46875 C 56.191406 57.8125 55.800781 53.085938 55.449219 48.253906 C 54.992188 42.082031 54.710938 37.144531 54.601562 33.472656 C 54.425781 28.429688 54.320312 23 54.285156 17.214844 C 54.25 11.429688 54.214844 7.371094 54.214844 5.078125 L 54.214844 4.054688 C 54.214844 3.878906 54.179688 3.738281 54.074219 3.597656 C 54.003906 3.457031 53.863281 3.421875 53.6875 3.421875 C 52.980469 3.351562 51.675781 3.140625 49.699219 2.785156 C 47.726562 2.433594 45.503906 2.046875 43 1.621094 C 40.246094 1.269531 37.53125 0.953125 34.851562 0.601562 C 32.132812 0.246094 30.335938 0.0351562 29.382812 -0.0351562 C 29.207031 -0.0351562 29.066406 0 28.925781 0.105469 C 28.78125 0.175781 28.746094 0.316406 28.746094 0.492188 C 28.640625 0.742188 28.570312 1.058594 28.535156 1.375 C 28.5 1.726562 28.464844 2.152344 28.464844 2.644531 L 9.3125 0.601562 C 9.136719 0.601562 8.996094 0.671875 8.855469 0.777344 C 8.710938 0.917969 8.675781 1.058594 8.675781 1.234375 C 8.746094 2.433594 8.960938 5.007812 9.3125 8.960938 C 9.664062 12.804688 10.054688 17.285156 10.476562 22.328125 C 10.898438 27.371094 11.289062 32.664062 11.640625 38.128906 C 11.992188 43.597656 12.238281 48.5 12.417969 52.769531 C 12.59375 57.320312 12.699219 62.011719 12.804688 66.914062 C 12.875 71.886719 12.945312 76.472656 12.980469 80.742188 C 13.015625 84.972656 13.085938 88.605469 13.15625 91.605469 C 13.15625 94.601562 13.15625 96.402344 13.15625 97 L 13.15625 97.636719 C 13.15625 97.882812 13.226562 98.058594 13.402344 98.09375 C 13.582031 98.128906 13.6875 98.164062 13.792969 98.164062 C 13.96875 97.988281 14.320312 97.777344 14.816406 97.53125 L 14.957031 97.53125 C 14.957031 96.507812 14.957031 94.53125 14.957031 91.605469 C 14.957031 88.78125 14.921875 85.503906 14.886719 81.761719 C 14.851562 78.023438 14.78125 74.039062 14.710938 69.734375 C 14.710938 65.46875 14.671875 61.375 14.566406 57.53125 C 14.566406 54.886719 14.496094 51.570312 14.320312 47.617188 C 14.144531 43.773438 14.003906 39.894531 13.863281 35.980469 C 13.722656 32.0625 13.582031 28.535156 13.402344 25.363281 C 13.226562 22.1875 13.15625 19.964844 13.15625 18.695312 C 12.980469 13.828125 14.074219 10.195312 16.367188 7.902344 C 18.660156 5.609375 20.882812 4.375 22.925781 4.304688 C 23.351562 4.304688 24.089844 4.339844 25.113281 4.375 C 26.136719 4.410156 27.160156 4.445312 28.183594 4.445312 C 27.9375 6.703125 27.617188 9.523438 27.195312 12.945312 C 26.84375 16.472656 26.453125 20.246094 26.03125 24.269531 C 25.609375 28.289062 25.183594 32.488281 24.761719 36.859375 C 24.339844 41.128906 23.949219 45.253906 23.597656 49.207031 C 23.070312 55.027344 22.609375 60.742188 22.1875 66.3125 C 21.835938 71.78125 21.515625 76.824219 21.164062 81.339844 C 20.8125 85.890625 20.5625 89.734375 20.386719 92.910156 C 20.210938 96.085938 20.070312 98.164062 20 99.222656 C 20 99.472656 20.070312 99.683594 20.175781 99.789062 C 20.316406 99.929688 20.457031 99.929688 20.636719 99.859375 C 22.082031 99.683594 24.9375 99.257812 29.171875 98.589844 C 32.910156 97.988281 36.578125 97.285156 40.175781 96.472656 C 40.105469 96.015625 40.035156 95.589844 39.964844 95.097656 Z M 39.964844 95.097656 "/>
<path style=" stroke:none;fill-rule:nonzero;fill:rgb(100%,100%,100%);fill-opacity:1;" d="M 88.78125 77.671875 C 87.761719 75.027344 87.019531 73.261719 86.632812 72.34375 C 86.527344 72.238281 86.453125 72.132812 86.417969 71.992188 C 86.382812 71.851562 86.277344 71.710938 86.207031 71.640625 C 85.503906 70.476562 84.550781 69.488281 83.246094 68.675781 C 81.976562 67.902344 80.601562 67.511719 79.117188 67.511719 C 78.128906 67.511719 77.214844 67.726562 76.332031 68.183594 C 75.449219 68.640625 74.566406 69.136719 73.6875 69.734375 C 72.804688 69.628906 71.851562 69.59375 70.898438 69.59375 C 69.910156 69.59375 68.996094 69.59375 68.113281 69.59375 C 67.125 69.59375 66.136719 69.59375 65.148438 69.59375 C 64.164062 69.59375 63.246094 69.628906 62.363281 69.734375 C 61.480469 69.136719 60.601562 68.640625 59.71875 68.183594 C 58.835938 67.726562 57.847656 67.511719 56.753906 67.511719 C 56.648438 67.511719 56.542969 67.511719 56.472656 67.511719 C 56.367188 67.511719 56.261719 67.511719 56.191406 67.511719 L 56.050781 67.511719 C 55.167969 67.617188 54.320312 67.867188 53.546875 68.253906 C 52.769531 68.640625 52.027344 69.136719 51.324219 69.734375 C 51.039062 70.019531 50.617188 70.511719 50.160156 71.21875 C 49.664062 71.921875 49.417969 72.308594 49.417969 72.382812 C 49.03125 73.261719 48.324219 75.027344 47.265625 77.707031 C 46.242188 80.351562 45.46875 83.597656 44.972656 87.441406 C 44.867188 88.429688 44.796875 89.347656 44.761719 90.230469 C 44.726562 91.109375 44.726562 91.957031 44.832031 92.734375 C 44.832031 92.839844 44.832031 92.945312 44.832031 93.015625 C 44.832031 93.296875 44.867188 93.582031 44.902344 93.828125 C 44.9375 94.074219 44.972656 94.285156 44.972656 94.496094 C 45.183594 96.085938 45.574219 97.179688 46.136719 97.8125 C 46.738281 98.449219 47.054688 98.835938 47.160156 98.90625 C 47.441406 99.1875 48.253906 99.4375 49.59375 99.648438 C 50.933594 99.859375 51.921875 99.929688 52.628906 99.929688 C 52.839844 99.929688 53.015625 99.929688 53.226562 99.929688 C 53.828125 99.542969 54.425781 98.273438 55.0625 96.15625 C 55.695312 94.039062 56.472656 92.308594 57.355469 90.933594 L 57.355469 90.792969 C 57.460938 90.6875 57.566406 90.582031 57.636719 90.511719 C 57.742188 90.40625 57.847656 90.300781 57.917969 90.230469 C 58.023438 90.019531 58.128906 89.875 58.199219 89.699219 C 58.308594 89.558594 58.449219 89.417969 58.660156 89.347656 C 58.871094 89.242188 59.152344 89.171875 59.542969 89.136719 C 59.929688 89.101562 60.386719 89.066406 60.882812 89.066406 L 75.203125 89.066406 C 75.695312 89.066406 76.121094 89.101562 76.472656 89.136719 C 76.824219 89.171875 77.144531 89.277344 77.425781 89.347656 C 77.53125 89.453125 77.636719 89.558594 77.777344 89.699219 C 77.917969 89.839844 78.058594 90.019531 78.128906 90.230469 C 78.238281 90.335938 78.34375 90.441406 78.414062 90.511719 C 78.519531 90.617188 78.625 90.722656 78.695312 90.792969 L 78.695312 90.933594 C 79.578125 92.308594 80.351562 94.074219 80.988281 96.15625 C 81.621094 98.273438 82.257812 99.542969 82.820312 99.929688 C 83.035156 99.929688 83.175781 99.929688 83.28125 99.929688 C 83.949219 99.929688 85.007812 99.824219 86.382812 99.648438 C 87.761719 99.4375 88.605469 99.1875 88.890625 98.90625 C 88.996094 98.800781 89.347656 98.449219 89.910156 97.8125 C 90.511719 97.179688 90.898438 96.085938 91.074219 94.496094 C 91.183594 93.722656 91.253906 92.699219 91.289062 91.464844 C 91.324219 90.230469 91.253906 88.890625 91.074219 87.40625 C 90.582031 83.597656 89.839844 80.351562 88.78125 77.671875 Z M 88.78125 77.671875 "/>
</g>
</svg>
