<?xml version="1.0" encoding="UTF-8"?>
<svg id="_레이어_1" data-name="레이어 1" xmlns="http://www.w3.org/2000/svg" viewBox="0 0 538.198 547.299">
  <defs>
    <style>
      .cls-1 {
        fill: #fff;
        stroke-width: 0px;
      }
    </style>
  </defs>
  <path class="cls-1" d="M538.198,282.184v2.995c-1.29,3.008-2.046,6.222-4.129,8.91-12.07,15.572-24.086,31.185-36.076,46.818-2.004,2.612-4.598,4.333-7.734,4.799-9.481,1.409-19,2.568-28.502,3.838-24.683,3.299-49.357,6.662-74.055,9.847-3.555.458-4.367,1.828-3.816,5.23,1.61,9.939,2.963,19.922,4.323,29.9,3.14,23.037,6.211,46.083,9.344,69.12.595,4.374.015,8.51-2.639,12.073-11.692,15.693-23.406,31.371-35.27,46.935-2.191,2.874-5.386,4.735-8.882,5.994-5.348,1.926-10.994,2.059-16.518,2.839-19.11,2.701-38.253,5.175-57.374,7.798-18.997,2.606-37.977,5.345-56.98,7.903-6.883.927-14.95-3.791-17.651-10.165-1.27-2.998-1.177-6.309-1.615-9.497-3.164-23.034-6.419-46.056-9.553-69.095-3.084-22.668-6.069-45.35-9.059-68.031-.218-1.655-.637-2.354-2.577-2.073-8.873,1.284-17.782,2.325-26.661,3.568-16.645,2.331-33.277,4.756-49.918,7.114-15.162,2.149-30.316,4.366-45.501,6.344-7.766,1.011-15.441,2.959-23.355,2.642-9.268-.371-15.969-6.895-17.005-16.104-.889-7.906-2.087-15.777-3.18-23.66-2.151-15.517-4.338-31.029-6.485-46.546-2.198-15.885-4.221-31.796-6.605-47.653-1.295-8.613-1.446-16.45,4.691-23.886,11.029-13.363,21.471-27.221,31.845-41.105,3.138-4.2,6.868-6.804,11.857-7.635,5.401-.899,10.851-1.514,16.28-2.247,28.011-3.785,56.014-7.629,84.042-11.276,3.55-.462,4.499-1.611,3.935-5.147-1.86-11.663-3.438-23.372-5.064-35.071-2.739-19.702-5.366-39.419-8.177-59.11-1.143-8.008.103-15.057,5.336-21.671,10.52-13.296,20.672-26.89,30.71-40.556,4.186-5.7,9.809-8.235,16.426-9.146,13.693-1.884,27.411-3.579,41.105-5.455,28.125-3.853,56.239-7.782,84.361-11.659,5.969-.823,16.6,6.364,17.603,12.115.982,5.63,1.572,11.328,2.335,16.996,1.859,13.802,3.712,27.605,5.581,41.406,2.135,15.77,4.293,31.537,6.424,47.308,1.782,13.183,3.559,26.368,5.288,39.558.225,1.716,1.053,1.91,2.561,1.693,10.72-1.548,21.453-3.006,32.177-4.526,18.613-2.638,37.221-5.315,55.835-7.949,17.257-2.442,34.542-4.704,51.771-7.325,10.573-1.608,20.923,4.441,22.382,13.831,1.241,7.984,2.125,16.022,3.21,24.031,1.835,13.554,3.703,27.104,5.559,40.656,2.142,15.642,4.185,31.299,6.48,46.919.854,5.815.864,11.788,2.92,17.406ZM181.252,314.425c-1.584-11.507-3.109-22.843-4.712-34.168-2.893-20.431-5.959-40.839-8.632-61.298-.464-3.554-1.84-3.53-4.546-3.147-13.932,1.975-27.876,3.865-41.826,5.71-17.653,2.335-35.315,4.61-52.977,6.875-2.089.268-3.015,1.011-2.669,3.357,1.866,12.667,3.597,25.354,5.376,38.034,2.695,19.203,5.457,38.397,8.015,57.618.385,2.892,1.337,3.831,4.209,3.406,10.961-1.621,21.944-3.093,32.915-4.644,20.711-2.927,41.413-5.916,62.137-8.742,2.24-.305,3.255-.883,2.711-3.002ZM389.519,226.871c-.71,31.973,23.025,57.917,54.372,58.441,35.13.587,57.421-25.918,58.247-54.675.898-31.259-23.532-57.409-54.053-57.994-36.177-.693-58.783,27.862-58.565,54.227ZM208.33,148.886c41.905-5.789,83.142-11.486,125.15-17.29-26.312-33.347-52.144-66.085-78.402-99.364-15.673,39.112-31.103,77.614-46.747,116.654ZM310.378,426.07c.663.511,1.35,1.041,2.036,1.57,12.935,9.985,25.914,19.916,38.762,30.012,2.043,1.606,2.896,1.351,4.289-.643,2.638-3.778,5.467-7.439,8.441-10.96,1.729-2.047,1.298-3.015-.749-4.512-13.183-9.649-26.221-19.495-39.401-29.146-1.934-1.416-2.134-2.252-.674-4.184,9.845-13.029,19.521-26.186,29.369-39.212,1.563-2.068,1.978-3.199-.589-4.808-3.475-2.178-6.767-4.706-9.878-7.385-2.177-1.875-3.24-1.476-4.849.716-9.589,13.065-19.404,25.964-28.949,39.06-1.731,2.375-2.656,2.209-4.768.566-12.898-10.031-25.955-19.86-38.865-29.876-2.144-1.663-3.235-1.719-4.776.715-2.194,3.464-4.733,6.736-7.365,9.889-1.778,2.129-1.536,3.258.706,4.932,13.092,9.779,26.015,19.783,39.104,29.567,2.09,1.562,2.312,2.42.641,4.529-10.068,12.706-19.921,25.583-29.973,38.302-1.621,2.051-1.557,3.133.567,4.65,3.346,2.39,6.695,4.86,9.626,7.722,2.638,2.576,3.863,1.509,5.653-.866,9.756-12.944,19.638-25.793,29.501-38.656.565-.736.871-1.822,2.143-1.982Z"/>
  <path class="cls-1" d="M87.928,246.996c-.491-2.042,1.164-1.449,2.064-1.585,9.845-1.484,19.691-2.972,29.55-4.359,9.738-1.37,19.515-2.481,29.222-4.034,2.441-.391,2.675.555,2.918,2.292,1.104,7.877,2.258,15.747,3.346,23.626,1.616,11.697,3.017,23.428,4.912,35.079.465,2.859-.715,3.181-2.655,3.453-9.492,1.332-18.99,2.62-28.485,3.929-10.111,1.395-20.224,2.778-30.329,4.216-1.425.203-2.484.7-2.762-1.567-2.488-20.238-5.113-40.459-7.7-60.686-.016-.123-.054-.243-.082-.365Z"/>
  <path class="cls-1" d="M482.905,229.557c-.136,21.112-16.315,36.65-38.022,36.515-19.611-.122-36.587-16.887-36.464-36.01.14-21.845,16.646-38.412,37.947-38.087,20.327.31,36.671,17.12,36.539,37.582Z"/>
  <path class="cls-1" d="M238.802,125.323c7.323-18.694,14.373-36.694,21.602-55.149,12.442,15.685,24.709,31.149,37.277,46.993-19.777,2.74-38.941,5.394-58.879,8.156Z"/>
</svg>