<?xml version="1.0" encoding="UTF-8"?>
<svg xmlns="http://www.w3.org/2000/svg" xmlns:xlink="http://www.w3.org/1999/xlink" width="px" height="100px" viewBox="0 0 100 100" version="1.1">
<g id="surface1">
<path style=" stroke:none;fill-rule:nonzero;fill:rgb(100%,100%,100%);fill-opacity:1;" d="M 94.144531 66.101562 C 96.050781 68.007812 97.035156 70.300781 97.144531 72.980469 C 98.941406 84.375 99.894531 91.253906 100 93.582031 C 100.175781 95.835938 99.542969 97.144531 98.058594 97.53125 C 96.578125 97.917969 95.519531 98.128906 94.816406 98.128906 C 93.933594 98.128906 92.945312 97.917969 91.78125 97.53125 C 90.617188 97.144531 89.699219 96.507812 88.996094 95.660156 C 87.691406 94.003906 86.632812 92.453125 85.75 90.933594 C 84.867188 89.417969 84.054688 87.902344 83.28125 86.3125 L 65.398438 86.3125 C 64.621094 87.867188 63.773438 89.417969 62.855469 90.933594 C 61.941406 92.453125 60.882812 94.039062 59.683594 95.660156 C 58.976562 96.542969 58.023438 97.144531 56.824219 97.53125 C 55.625 97.917969 54.636719 98.128906 53.828125 98.128906 C 53.121094 98.128906 52.0625 97.917969 50.582031 97.53125 C 49.101562 97.144531 48.464844 95.835938 48.640625 93.582031 C 48.710938 91.253906 49.628906 84.375 51.359375 72.980469 C 51.535156 70.300781 52.558594 68.007812 54.460938 66.101562 C 56.367188 64.199219 58.519531 63.246094 60.953125 63.246094 C 62.503906 63.246094 63.949219 63.703125 65.289062 64.621094 C 66.632812 65.539062 67.9375 66.417969 69.242188 67.265625 L 79.363281 67.265625 C 80.671875 66.417969 81.976562 65.503906 83.316406 64.621094 C 84.65625 63.703125 86.066406 63.246094 87.511719 63.246094 C 90.019531 63.246094 92.238281 64.199219 94.144531 66.101562 Z M 94.144531 66.101562 "/>
<path style=" stroke:none;fill-rule:nonzero;fill:rgb(100%,100%,100%);fill-opacity:1;" d="M 0 1.835938 L 84.019531 1.835938 L 84.019531 29.207031 L 0 29.207031 Z M 0 1.835938 "/>
<path style=" stroke:none;fill-rule:nonzero;fill:rgb(100%,100%,100%);fill-opacity:1;" d="M 46.492188 72.453125 C 46.773438 68.675781 48.289062 65.363281 51.003906 62.679688 C 53.828125 59.894531 57.25 58.414062 60.953125 58.414062 C 63.492188 58.414062 65.890625 59.152344 68.042969 60.601562 C 68.960938 61.234375 69.839844 61.835938 70.757812 62.433594 L 77.917969 62.433594 C 78.800781 61.835938 79.71875 61.234375 80.601562 60.636719 C 81.726562 59.894531 82.890625 59.328125 84.089844 58.941406 L 84.089844 34.074219 L 0 34.074219 L 0 83.949219 L 44.796875 83.949219 C 45.183594 81.058594 45.75 77.320312 46.492188 72.453125 Z M 46.492188 72.453125 "/>
</g>
</svg>
