<?xml version="1.0" encoding="UTF-8"?>
<svg id="_레이어_1" data-name="레이어 1" xmlns="http://www.w3.org/2000/svg" viewBox="0 0 920.603 625.01">
  <defs>
    <style>
      .cls-1 {
        fill: #fff;
        stroke-width: 0px;
      }
    </style>
  </defs>
  <path class="cls-1" d="M1.97,344.54c.117,1.223.08,2.487.39,3.659.404,1.529.741,3.357,2.728,3.62,1.82.241,2.487-1.368,3.208-2.596,3.189-5.425,4.766-11.472,6.27-17.483,3.333-13.323,5.477-26.824,4.779-40.63-.132-2.602-.414-5.227-.975-7.764-.297-1.342-.575-3.32-2.307-3.519-1.704-.196-2.932,1.148-3.798,2.605-1.055,1.775-2.085,3.565-3.772,5.126,2.22-8.532,3.785-17.315,6.912-25.501,1.807-4.729,6.783-7.764,11.218-10.642,12.423-8.062,26.318-12.238,40.617-15.146,18.81-3.825,37.853-5.793,57.024-6.944,20.829-1.25,41.661-1.639,62.5-1.263,20.33.367,40.643,1.29,60.946,2.657,27.24,1.834,54.284,5.277,81.229,9.383,70.466,10.737,138.651,29.745,204.34,57.523,17.041,7.206,32.714,16.713,45.781,29.794,20.129,20.149,35.378,43.427,41.596,71.676,3.165,14.378,2.913,28.96.235,43.43-4.677,25.273-16.334,47.072-33.528,65.993-32.279,35.52-71.716,60.238-116.553,76.689-33.329,12.229-67.62,20.82-102.543,27.107-22.531,4.057-45.151,7.529-67.877,10.103-23.197,2.627-46.527,3.116-69.885,2.104-14.333-.621-28.653-1.391-42.941-2.634-29.378-2.556-58.703-5.519-86.898-14.941-7.116-2.378-14.126-5.251-19.704-10.361-4.953-4.537-9.113-9.935-12.909-15.476-15.555-22.711-30.687-45.672-41.309-71.263-8.514-20.511-14.365-41.773-18.578-63.526C3.067,419.983.047,393.42,0,366.578c-.013-7.32.772-14.642,1.19-21.963.26-.025.52-.05.779-.075ZM354.472,355.514c22.686.027,41.005-18.306,41.001-41.033-.004-22.473-18.333-40.6-40.847-40.855-23.138-.262-41.248,18.724-41.252,40.881-.004,22.315,17.987,41.28,41.098,41.007ZM291.849,608.645c1.742-.09,3.497-.07,5.223-.288,13.315-1.676,24.77-12.673,21.474-28.342-1.885-8.962-6.244-16.454-12.704-22.761-11.297-11.031-24.399-17.012-40.578-13.976-12.661,2.376-22.812,13.608-19.064,29.307,4.372,18.316,24.666,36.662,45.65,36.059ZM56.836,544.034c.013.257-.035,1.27.14,2.243.218,1.218.513,2.443.956,3.596,7.093,18.469,18.962,33.421,34.223,45.75,2.838,2.293,6.184,4.214,10.052,4.597,3.081.305,4.662-1.097,4.835-4.212.134-2.419-.462-4.708-1.186-6.941-5.79-17.841-17.354-31.683-30.9-44.081-3.3-3.021-7.058-5.577-11.434-6.864-4.822-1.418-6.699.116-6.685,5.912Z"/>
  <path class="cls-1" d="M888.872,312.296c2.487-3.667,3.837-7.755,6.57-11.054,3.134-3.783,6.164-4.394,10.39-1.91,4.335,2.548,6.705,6.655,8.336,11.14,5.3,14.576,7.363,29.576,6.052,45.102-2.178,25.801-12.614,48.328-26.918,69.382-1.828,2.69-4.008,5.035-7.305,6.114-4.135,1.353-6.594.339-7.593-3.891-1.6-6.771-2.668-13.645-3.407-20.574-.974-9.14-1.403-18.347-3.603-27.343-.651-2.662-2.054-4.824-3.505-6.938-16.703-24.343-34.941-47.429-57.504-66.672-23.491-20.035-48.899-37.382-76.135-51.971-38.389-20.563-78.441-37.125-120.413-48.812-22.491-6.263-45.331-11.116-68.356-15.079-18.636-3.208-37.342-5.92-56.13-8.001-13.989-1.549-28.039-2.54-42.038-4.001-15.882-1.658-31.831-2.33-47.749-3.414-13.194-.898-26.427-1.349-39.651-1.635-24.837-.537-49.68-.862-74.521-1.177-17.727-.225-35.457-.222-53.184-.453-9.275-.121-13.495-3.708-15.181-12.927-2.132-11.66-3.534-23.399-2.085-35.276.747-6.125,4.036-11.108,7.445-16.037,6.837-9.887,14.897-18.772,23.212-27.362,17.623-18.206,36.007-35.581,55.993-51.277,13.555-10.645,29.101-16.008,45.494-19.537,15.664-3.372,31.384-6.739,47.353-8.165,10.537-.941,21.199-.601,31.753.861,70.085,9.708,135.935,33.429,200.41,61.301,41.957,18.137,80.213,42.602,115.89,71.166,24.208,19.382,46.993,40.245,68.051,63.008,31.47,34.018,56.54,72.372,77.329,113.643.278.552.603,1.082,1,1.79Z"/>
</svg>