<?xml version="1.0" encoding="utf-8"?>
<!-- Generator: Adobe Illustrator 28.1.0, SVG Export Plug-In . SVG Version: 6.00 Build 0)  -->
<svg version="1.1" id="Layer_1" xmlns="http://www.w3.org/2000/svg" xmlns:xlink="http://www.w3.org/1999/xlink" x="0px" y="0px"
	 viewBox="0 0 283.5 283.5" style="enable-background:new 0 0 283.5 283.5;" xml:space="preserve">
<style type="text/css">
	.st0{fill:#FFFFFF;}
</style>
<g>
	<path class="st0" d="M266.9,186.7c5.4,5.4,8.2,11.8,8.4,19.4c5.1,32.2,7.8,51.5,8,58.1c0.5,6.3-1.3,10-5.5,11.1
		c-4.1,1.1-7.2,1.6-9.1,1.6c-2.4,0-5.3-0.6-8.6-1.6c-3.3-1.1-5.9-2.9-7.9-5.3c-3.7-4.6-6.7-9.1-9.1-13.3c-2.4-4.3-4.8-8.6-6.9-13
		h-50.4c-2.2,4.4-4.6,8.7-7.1,13c-2.6,4.3-5.5,8.7-9,13.3c-2,2.4-4.6,4.2-8,5.3c-3.4,1.1-6.2,1.6-8.4,1.6c-2,0-5-0.6-9.1-1.6
		c-4.1-1.1-6-4.8-5.5-11.1c0.2-6.6,2.8-25.9,7.7-58.1c0.5-7.5,3.4-14,8.8-19.4c5.4-5.4,11.5-8,18.3-8c4.4,0,8.5,1.3,12.2,3.8
		c3.8,2.6,7.5,5.1,11.1,7.5h28.5c3.7-2.4,7.4-4.9,11.1-7.5c3.8-2.6,7.7-3.8,11.9-3.8C255.4,178.7,261.6,181.4,266.9,186.7z"/>
	<path class="st0" d="M130.8,204.3c0.9-11.1,5.3-20.8,13.3-28.7c8.3-8.3,18.4-12.6,29.3-12.6c7.5,0,14.6,2.2,21,6.5
		c1.4,0.9,2.7,1.8,4.1,2.8V17.8c0,0-43.3-11.3-99.3-11.3C51.7,6.5,0,17.8,0,17.8v225.6h125.2C126.3,234.6,128.1,222.2,130.8,204.3z"
		/>
</g>
</svg>
