<?xml version="1.0" encoding="UTF-8"?>
<svg id="_레이어_1" data-name="레이어 1" xmlns="http://www.w3.org/2000/svg" xmlns:xlink="http://www.w3.org/1999/xlink" viewBox="0 0 922.134 935.574">
  <defs>
    <style>
      .cls-1 {
        fill: url(#_무제_그라디언트_8);
      }

      .cls-1, .cls-2, .cls-3 {
        stroke-width: 0px;
      }

      .cls-2 {
        fill: #c58930;
      }

      .cls-3 {
        fill: url(#_무제_그라디언트_6);
      }
    </style>
    <linearGradient id="_무제_그라디언트_6" data-name="무제 그라디언트 6" x1="148.002" y1="252.821" x2="741.034" y2="660.046" gradientUnits="userSpaceOnUse">
      <stop offset="0" stop-color="#c58930"/>
      <stop offset="1" stop-color="#9b6c21"/>
    </linearGradient>
    <linearGradient id="_무제_그라디언트_8" data-name="무제 그라디언트 8" x1="195.518" y1="205.875" x2="773.066" y2="640.972" gradientUnits="userSpaceOnUse">
      <stop offset="0" stop-color="#ffe850"/>
      <stop offset="1" stop-color="#ffc20e"/>
    </linearGradient>
  </defs>
  <path class="cls-3" d="M919.863,463.036c-1.034-9.523-2.496-18.969-3.869-28.434-1.035-7.137-2.157-14.289-2.935-21.431-1.58-14.5-4.046-28.869-5.902-43.324-1.106-8.616-2.397-17.263-3.571-25.87-1.797-13.18-3.908-26.334-5.236-39.591-1.076-10.742-2.678-21.439-4.341-32.111-1.01-6.479-1.703-13.062-5.071-18.995-4.391-7.736-11.035-12.319-19.38-14.736-7.427-2.151-14.867-.535-22.151.568-8.594,1.301-17.22,2.585-25.817,3.679-13.569,1.726-27.14,3.519-40.676,5.452-8.858,1.265-17.763,2.221-26.602,3.745-12.383,2.135-24.949,3.188-37.392,5.006-21.535,3.147-43.127,5.884-64.661,9.054-12.647,1.862-25.354,3.535-38.063,5.07-2.493.301-3.184-.282-3.66-2.689-1.282-6.485-1.677-13.084-2.773-19.57-1.43-8.465-2.568-17.004-3.543-25.486-.908-7.897-2.019-15.828-3.138-23.658-2.165-15.152-4.156-30.344-6.505-45.479-2.533-16.322-4.256-32.765-6.798-49.107-1.773-11.401-2.919-22.915-4.668-34.348-2.181-14.26-3.6-28.635-5.562-42.932-.503-3.669-1.475-7.344-3.269-10.674-7.306-13.56-19.568-18.781-34.539-16.755-16.031,2.17-32.03,4.58-48.03,6.974-10.214,1.528-20.501,2.458-30.69,4.25-8.925,1.57-18.035,2.074-26.98,3.552-7.841,1.295-15.74,2.352-23.589,3.357-12.952,1.659-25.867,3.64-38.842,5.156-13.717,1.602-27.363,3.807-41.057,5.622-9.223,1.222-17.912,3.481-24.078,11.173-3.016,3.762-6.262,7.358-8.661,11.583-2.028,2.353-4.163,4.625-5.553,7.454-.161.783-.607,1.316-1.368,1.568-.293.471-.589.945-.886,1.419-.154.812-.601,1.36-1.411,1.578-.288.437-.581.877-.873,1.317-.059.907-.552,1.453-1.406,1.693-.257.468-.518.939-.778,1.41-.243.312-.487.625-.727.936-.896.365-1.364,1.064-1.533,1.994-.097.755-.504,1.281-1.182,1.603-.359.455-.721.913-1.083,1.37-.136.904-.608,1.504-1.529,1.692-.848,1.532-2.598,2.443-2.984,4.301-.268,1.215-1.058,1.966-2.163,2.43-.774.976-1.552,1.954-2.329,2.933-.19.272-.38.543-.566.812-.585.752-1.174,1.507-1.764,2.261-.206.892-.482,1.741-1.332,2.244-1.382,1.599-3.215,2.859-3.844,5.04-.091.914-.575,1.495-1.462,1.731-.734.573-1.296,1.267-1.492,2.208-.212.747-.65,1.29-1.395,1.55-5.404,6.188-10.309,12.772-14.989,19.515-4.983,7.178-6.458,15.068-5.001,23.748,1.068,6.363,2.031,12.78,2.746,19.177.925,8.281,2.326,16.495,3.128,24.799,1.015,10.508,2.985,20.921,4.435,31.391,1.741,12.572,3.223,25.18,5.094,37.732,1.247,8.365,2.406,16.751,3.639,25.115,1.739,11.802,2.665,23.727,5.015,35.451.005,0,.009,0,.013,0h0s-.009,0-.013,0c-4.162,2.535-8.977,1.706-13.462,2.588-8.903,1.751-17.944,2.735-26.919,3.89-7.756.998-15.462,2.411-23.266,3.171-9.024.879-17.956,2.674-26.954,3.874-13.181,1.757-26.396,3.258-39.576,5.016-11.091,1.479-22.159,3.14-33.228,4.776-7.853,1.161-15.971,1.285-23.341,4.557-6.471,2.874-11.853,7.213-14.642,14.078-.073.159-.136.319-.205.478h0c.069-.159.132-.319.205-.478-.845-.509-1.019.287-1.389.711-6.482,7.413-12.236,15.385-18.142,23.253-10.912,14.535-21.679,29.22-33.367,43.119-9.563,11.372-11.37,23.788-8.987,37.725,1.615,9.44,2.367,19.028,3.985,28.468,1.16,6.77,1.413,13.66,2.672,20.35,1.546,8.214,2.79,16.508,3.699,24.741,2.244,20.33,5.583,40.502,8.171,60.777,1.794,14.055,3.42,28.165,5.909,42.155,1.958,11.005,2.54,22.246,4.786,33.231,2.227,10.893,12.186,19.287,22.12,21.935,7.274,1.939,14.435.518,21.474-.74,9.082-1.623,18.272-2.366,27.383-3.57,8.247-1.09,16.448-2.66,24.779-3.36,8.046-.675,15.958-2.897,24.003-3.649,19.971-1.868,39.693-5.55,59.618-7.738,10.526-1.156,20.972-3.031,31.467-4.49,12.204-1.697,24.428-3.252,36.632-4.947,9.243-1.284,18.454-2.808,27.708-3.998,5.637-.724,5.654-.529,6.119,5.348.059.74.18,1.487.376,2.202,2.184,7.963,2.269,16.249,3.733,24.347,1.988,11.001,2.732,22.234,4.438,33.318,1.572,10.211,2.852,20.466,4.269,30.701,1.024,7.397,2.454,14.764,2.989,22.195.574,7.987,2.037,15.836,3.18,23.713,1.361,9.368,2.818,18.743,3.839,28.139.889,8.184,2.517,16.239,3.382,24.419.968,9.152,2.468,18.248,3.73,27.37,1.109,8.012,2.11,16.04,3.335,24.034,2.265,14.786,17.198,26.18,32.22,25.255,6.283-.387,12.302-1.873,18.48-2.588,8.901-1.029,17.785-2.212,26.664-3.422,8.136-1.109,16.248-2.392,24.383-3.507,9.514-1.304,19.07-2.325,28.553-3.814,7.494-1.177,15.036-2.117,22.544-3.005,7.79-.921,15.525-2.275,23.269-3.371,8.866-1.255,17.798-2.002,26.652-3.533,16.305-2.819,32.846-4.141,49.192-6.865,8.922-1.487,15.725-6.026,21.058-12.957,15.419-20.037,30.792-40.112,46.006-60.306,3.333-4.424,7.26-8.467,9.642-13.581h0c1.254-.389,1.864-1.322,2.142-2.536.194-.303.389-.607.58-.907,1.81-1.532,2.906-3.465,3.232-5.825.384-.78.768-1.561,1.149-2.337.863-1.166.924-2.465.608-3.823,1.143-4.172.66-8.346.012-12.515.275-2.07.509-4.141-.575-6.087-.725-.997-.162-2.157-.408-3.212-.083-.652-.167-1.307-.251-1.963-.452-1.985-1.294-3.9-1.089-6,.37-1.798.457-3.576-.453-5.268-.625-3.683-1.249-7.367-1.874-11.044.4-1.407.349-2.769-.465-4.043-.104-1.28-.208-2.561-.31-3.836-.145-.982-.291-1.97-.437-2.957-.36-1.988-.72-3.976-1.078-5.958-.132-.991-.266-1.986-.401-2.982-.695-1.306-.177-2.716-.343-4.063.139-1.155.096-2.293-.368-3.385-.382-2.182-.764-4.364-1.147-6.54.26-.868.152-1.688-.353-2.452-.796-1.295-.174-2.73-.398-4.078.185-1.196.065-2.355-.448-3.464-.067-.162-.153-.319-.192-.487-.017-.072.065-.167.101-.247.302-1.08.274-2.109-.494-3.017-.862-.846-.171-1.954-.486-2.886-.126-.796-.255-1.598-.384-2.4-.486-.648-.318-1.362-.205-2.064.572-1.624-.033-3.125-.509-4.64-.597-.669-.379-1.426-.234-2.171.271-.81.165-1.568-.338-2.267-.351-2.002-.702-4.005-1.052-6.002.489-2.348.325-4.632-.713-6.825-.067-.15-.15-.296-.192-.452-.019-.069.046-.161.073-.239.355-1.09.284-2.122-.444-3.058-.359-2.2-.718-4.399-1.078-6.594.635-2.114.242-4.141-.559-6.13-.083-.715-.167-1.43-.251-2.14.234-.825.159-1.606-.36-2.319-.488-1.964-1.292-3.87-1.104-5.956.48-1.59.437-3.125-.522-4.555-.502-.72-.409-1.482-.161-2.252.365-1.353.295-2.646-.568-3.821-.33-1.686-.66-3.373-.99-5.054.191-3.883-.04-7.724-1.283-11.451-.331-1.945-.661-3.891-.993-5.832.385-1.029.372-2.069.041-3.113-.003-.02-.006-.04-.01-.06h0c.003.02.006.04.01.06.049-.018.098-.041.147-.06h.005v-.002c1.449-.572,2.88-1.486,4.354-1.563,7.376-.384,14.51-2.368,21.846-3.047,8.055-.746,16.072-1.931,24.094-3.012,9.137-1.232,18.258-2.59,27.393-3.838,8.15-1.114,16.384-1.777,24.447-3.33,8.337-1.606,16.78-2.265,25.138-3.637,8.468-1.39,17.104-1.779,25.55-3.268,7.841-1.382,15.761-2.223,23.614-3.416,9.353-1.421,16.794-5.233,22.424-12.505,12.209-15.768,24.181-31.719,36.295-47.56,6.242-8.163,12.645-16.206,18.161-24.896h0c6.219-4.945,9.959-11.331,10.663-19.258.747-8.403-1.204-16.603-2.104-24.897Z"/>
  <path class="cls-1" d="M919.863,463.036c-1.034-9.523-2.496-18.969-3.869-28.434-1.035-7.137-2.157-14.289-2.935-21.431-1.58-14.5-4.046-28.869-5.902-43.324-1.106-8.616-2.397-17.263-3.571-25.87-1.797-13.18-3.908-26.334-5.236-39.591-1.076-10.742-2.678-21.439-4.341-32.111-1.01-6.479-1.703-13.062-5.071-18.995-4.391-7.736-11.035-12.319-19.38-14.736-7.427-2.151-14.867-.535-22.151.568-8.594,1.301-17.22,2.585-25.817,3.679-13.569,1.726-27.14,3.519-40.676,5.452-8.858,1.265-17.763,2.221-26.602,3.745-12.383,2.135-24.949,3.188-37.392,5.006-21.535,3.147-43.127,5.884-64.661,9.054-12.647,1.862-25.354,3.535-38.063,5.07-2.493.301-3.184-.282-3.66-2.689-1.282-6.485-1.677-13.084-2.773-19.57-1.43-8.465-2.568-17.004-3.543-25.486-.908-7.897-2.019-15.828-3.138-23.658-2.165-15.152-4.156-30.344-6.505-45.479-2.533-16.322-4.256-32.765-6.798-49.107-1.773-11.401-2.919-22.915-4.668-34.348-2.181-14.26-3.6-28.635-5.562-42.932-.503-3.669-1.475-7.344-3.269-10.674-7.306-13.56-19.568-18.781-34.539-16.755-16.031,2.17-32.03,4.58-48.03,6.974-10.214,1.528-20.501,2.458-30.69,4.25-8.925,1.57-18.035,2.074-26.98,3.552-7.841,1.295-15.74,2.352-23.589,3.357-12.952,1.659-25.867,3.64-38.842,5.156-13.717,1.602-27.363,3.807-41.057,5.622-9.223,1.222-17.912,3.481-24.078,11.173-3.016,3.762-6.262,7.358-8.661,11.583,1.628.55,1.35,1.935,1.288,3.136-.722,14.035,2.813,27.617,4.213,41.419,1.504,14.826,4.278,29.458,5.87,44.27.784,7.293,1.692,14.725,3.242,22.023,1.693,7.974,2.114,16.212,3.216,24.318,1.286,9.458,3.031,18.866,3.982,28.355.917,9.144,2.346,18.229,3.738,27.272,1.321,8.578,1.949,17.238,3.505,25.791,1.663,9.141,2.613,18.416,3.72,27.651.414,3.452,1.793,6.722,1.582,10.304-.128,2.179-.556,3.615-3.031,3.775-6.936.447-13.736,1.908-20.607,2.836-9.092,1.228-18.255,1.987-27.304,3.46-5.659.922-11.27,1.873-17.009,1.862-4.162,2.535-8.977,1.706-13.462,2.588-8.903,1.751-17.944,2.735-26.919,3.89-7.756.998-15.462,2.411-23.266,3.171-9.024.879-17.956,2.674-26.954,3.874-13.181,1.757-26.396,3.258-39.576,5.016-11.091,1.479-22.159,3.14-33.228,4.776-7.853,1.161-15.971,1.285-23.341,4.557-6.471,2.874-11.853,7.213-14.642,14.078-2.85,6.214-2.853,12.844-2.15,19.362,1.449,13.441,3.174,26.859,5.164,40.231.986,6.627.918,13.536,2.527,19.838,2.03,7.951,2.244,16.073,3.515,24.013,1.533,9.573,2.448,19.434,3.971,29.027,1.164,7.333,1.775,14.783,3.104,22.122,1.506,8.316,2.033,16.87,3.257,25.291,1.445,9.939,2.747,19.899,4.11,29.851,1.128,8.235,1.682,16.602,3.541,24.668,1.901,8.248,6.088,15.481,14.03,19.72,5.557,2.966,11.5,5.819,17.754,4.404,7.034-1.592,14.294-1.234,21.215-3.271,2.135-.628,4.326-1.03,6.619-1.027,9.099.011,17.939-2.207,26.861-3.57,4.433-.677,8.941-.567,13.306-1.62,7.491-1.808,15.322-1.335,22.778-3.452,2.624-.745,5.418-.527,8.135-.961,9.769-1.561,19.594-2.995,29.394-4.056,7.649-.828,15.247-2.146,22.864-3.089,8.708-1.077,17.586-1.452,26.124-3.796,3.413-.937,6.909-.366,10.383-1.008,14.395-2.658,29.098-3.167,43.481-6.078,4.848-.981,9.865-1.142,14.811-1.617,2.31-.222,3.922.632,4.144,3.19.653,7.523,2.109,14.965,3.285,22.385,1.258,7.939,1.061,16.135,3.711,23.877,1.175,3.433.228,7.163,1.104,10.74,2.303,9.407,2.929,19.115,4.086,28.678.921,7.616,2.203,15.232,3.126,22.843.89,7.343,1.405,14.777,2.639,22.094.661,3.921.677,8.046,1.712,11.763,2.072,7.444.834,15.345,3.688,22.59.137.348.38.712.361,1.057-.404,7.142,1.648,13.99,2.42,20.984,1.082,9.805,2.243,19.57,4.284,29.233.689,3.262.45,6.715,1.085,9.994,1.502,7.759,1.216,15.881,4.204,23.312,2.766,6.877,7.604,11.867,14.453,15.173,5.89,2.842,11.803,2.216,17.986,2.317,8.813.144,17.275-2.08,25.83-3.095,7.635-.907,15.497-1.489,23.164-3.303,6.43-1.521,13.244-2.165,19.878-2.692,7.207-.572,14.135-2.725,21.355-2.899,7.205-.173,14.336-1.687,21.311-2.957,7.389-1.345,15.196-.438,22.236-3.706.333-.155.732-.329,1.073-.284,8.702,1.131,17.079-1.731,25.493-2.84,7.856-1.035,16.146-.397,23.703-3.645.229-.098.479-.251.707-.232,7.917.686,15.508-1.891,23.281-2.334,8.589-.489,16.334-2.809,23.165-8.031.721-.551,1.424-.976,2.3-1.132,1.254-.389,1.864-1.322,2.142-2.536.194-.303.389-.607.58-.907,1.81-1.532,2.906-3.465,3.232-5.825.384-.78.768-1.561,1.149-2.337.863-1.166.924-2.465.608-3.823,1.143-4.172.66-8.346.012-12.515.275-2.07.509-4.141-.575-6.087-.725-.997-.162-2.157-.408-3.212-.083-.652-.167-1.307-.251-1.963-.452-1.985-1.294-3.9-1.089-6,.37-1.798.457-3.576-.453-5.268-.625-3.683-1.249-7.367-1.874-11.044.4-1.407.349-2.769-.465-4.043-.104-1.28-.208-2.561-.31-3.836-.145-.982-.291-1.97-.437-2.957-.36-1.988-.72-3.976-1.078-5.958-.132-.991-.266-1.986-.401-2.982-.695-1.306-.177-2.716-.343-4.063.139-1.155.096-2.293-.368-3.385-.382-2.182-.764-4.364-1.147-6.54.26-.868.152-1.688-.353-2.452-.796-1.295-.174-2.73-.398-4.078.185-1.196.065-2.355-.448-3.464-.067-.162-.153-.319-.192-.487-.017-.072.065-.167.101-.247.302-1.08.274-2.109-.494-3.017-.862-.846-.171-1.954-.486-2.886-.126-.796-.255-1.598-.384-2.4-.486-.648-.318-1.362-.205-2.064.572-1.624-.033-3.125-.509-4.64-.597-.669-.379-1.426-.234-2.171.271-.81.165-1.568-.338-2.267-.351-2.002-.702-4.005-1.052-6.002.489-2.348.325-4.632-.713-6.825-.067-.15-.15-.296-.192-.452-.019-.069.046-.161.073-.239.355-1.09.284-2.122-.444-3.058-.359-2.2-.718-4.399-1.078-6.594.635-2.114.242-4.141-.559-6.13-.083-.715-.167-1.43-.251-2.14.234-.825.159-1.606-.36-2.319-.488-1.964-1.292-3.87-1.104-5.956.48-1.59.437-3.125-.522-4.555-.502-.72-.409-1.482-.161-2.252.365-1.353.295-2.646-.568-3.821-.33-1.686-.66-3.373-.99-5.054.191-3.883-.04-7.724-1.283-11.451-.331-1.945-.661-3.891-.993-5.832.385-1.029.372-2.069.041-3.113-2.359-13.703-3.622-27.567-5.824-41.275-1.219-7.594-1.441-15.324-3.346-22.826-1.238-4.872-.217-5.663,4.767-6.215,4.412-.489,8.785-1.436,13.155-2.306,4.132-.823,8.501-.687,12.753-1.332,13.493-2.049,27.009-4.11,40.549-5.63,11.728-1.317,23.239-3.857,34.959-5.238,8.404-.991,16.958-2.186,25.386-3.469,7.542-1.148,15.106-2.769,22.862-3.092,7.768-.324,15.474-2.077,23.214-3.153,10.072-1.4,20.216-2.393,30.205-4.232,8.544-1.573,17.229-2.008,25.732-3.832,5.428-1.164,11.049-.75,16.521-2.531,3.99-1.299,7.853-2.413,11.151-5.074.268-.216.914.037,1.384.071,6.219-4.945,9.959-11.331,10.663-19.258.747-8.403-1.204-16.603-2.104-24.897Z"/>
  <g>
    <path class="cls-2" d="M311.031,538.589c.182,2.363-.704,3.237-2.756,3.464-13.444,1.485-26.815,3.579-40.213,5.399-8.095,1.1-16.256,1.908-24.331,3.367-9.755,1.763-19.718,2.349-29.504,3.97-13.224,2.189-26.552,3.611-39.804,5.575-9.052,1.341-18.125,3.113-27.346,3.411-1.834.059-3.704.533-5.46,1.111-2.569.847-3.439-.413-3.794-2.604-2.496-15.433-4.304-30.965-6.57-46.433-2.409-16.442-4.583-32.935-6.689-49.417-1.855-14.518-4.189-28.982-5.634-43.561-.855-8.634-2.402-17.2-3.69-25.789-.525-3.502.603-5.195,4.408-5.589,8.511-.881,16.982-2.154,25.461-3.327,9.466-1.309,18.892-3.015,28.395-3.926,7.672-.735,15.234-2.178,22.881-3.058,7.618-.876,15.263-1.885,22.869-3.034,8.459-1.277,16.95-2.344,25.422-3.531,9.219-1.292,18.431-2.629,27.65-3.924,4.175-.587,8.357-1.125,12.538-1.674,2.228-.292,2.732,1.17,2.983,2.929,2.208,15.474,4.853,30.901,6.52,46.433,1.537,14.325,4.065,28.5,5.612,42.821,1.412,13.065,4.035,25.998,5.506,39.059.987,8.764,2.867,17.394,3.458,26.215.28,4.185,1.407,8.314,2.087,12.114ZM168.849,528.785c8.314-.862,14.791-2.125,21.311-2.95,10.327-1.307,20.645-2.838,30.973-4.246,16.725-2.281,33.396-4.96,50.125-7.214,2.794-.377,3.365-1.44,3.044-3.783-1.482-10.819-2.983-21.635-4.437-32.457-1.272-9.47-2.477-18.95-3.738-28.422-1.262-9.47-2.527-18.941-3.853-28.402-.654-4.67-1.489-9.314-2.158-13.982-.223-1.555-.663-2.82-2.504-2.437-5.602,1.164-11.269,1.769-16.944,2.448-9.486,1.135-18.912,2.762-28.379,4.068-8.853,1.221-17.731,2.267-26.591,3.438-10.091,1.333-20.156,2.887-30.27,3.994-3.63.397-4.474,2.182-4.099,5.208,1.101,8.868,2.21,17.735,3.439,26.586,1.263,9.097,2.758,18.162,3.998,27.261,2.079,15.25,4.066,30.512,6.022,45.778.454,3.547,1.79,5.718,4.06,5.114Z"/>
    <path class="cls-2" d="M763.65,487.259c-52.972.119-95.803-42.84-95.556-96.052.251-54.303,42.85-95.773,95.951-95.735,53.362.039,95.717,41.4,95.872,96.244.15,52.758-42.135,95.781-96.267,95.542ZM827.776,391.241c-.9-36.337-28.431-63.02-62.954-63.538-36.596-.55-63.557,28.384-64.491,61.979-1.021,36.715,28.881,65.346,63.47,65.386,35.848.042,63.737-29.081,63.975-63.826Z"/>
    <path class="cls-2" d="M361.609,253.866c-2.385.142-2.834-.942-2.238-2.576,1.232-3.381,2.54-6.736,3.857-10.085,3.727-9.471,7.46-18.939,11.217-28.397,7.123-17.93,14.062-35.936,21.47-53.748,4.785-11.504,9.16-23.159,13.781-34.722,4.73-11.834,9.434-23.681,14.196-35.498,3.825-9.491,7.398-19.085,11.378-28.514.376-.89.441-1.98,1.794-2.075,1.4-.099,2.21.506,3.08,1.618,5.44,6.953,11.016,13.799,16.511,20.71,11.452,14.403,22.911,28.801,34.313,43.244,12.785,16.195,25.283,32.623,38.325,48.608,13.206,16.187,25.947,32.738,39.121,48.945,2.075,2.553,1.394,3.5-1.392,4.374-4.702,1.476-9.618,1.025-14.392,1.888-13.434,2.43-27.04,3.684-40.536,5.746-10.046,1.535-20.168,2.755-30.264,4.048-15.385,1.971-30.768,3.962-46.134,6.077-9.218,1.269-18.361,3.216-27.611,4.072-8.675.802-17.191,2.576-25.852,3.39-6.42.603-12.728,2.163-19.191,2.532-.606.035-1.2.301-1.434.363ZM411.792,213.933c8.113-.758,16.034-2.483,24.036-3.285,12.735-1.276,25.315-3.59,38.035-4.97,10.591-1.149,21.082-3.275,31.719-4.227,1.153-.103,2.472-.162,3.031-1.145.632-1.111-.412-2.106-1.086-2.961-4.002-5.077-8.053-10.115-12.069-15.181-15.371-19.392-30.739-38.786-46.088-58.197-.687-.868-1.064-2.149-2.486-1.841-1.347.292-1.908,1.352-2.342,2.631-1.076,3.167-2.193,6.331-3.51,9.403-3.614,8.428-7.045,16.943-10.432,25.45-3.643,9.152-7.223,18.345-10.792,27.535-3.086,7.948-6.375,15.818-9.469,23.764-.507,1.302-.964,3.064,1.452,3.024Z"/>
    <path class="cls-2" d="M606.298,782.735c-1.921.106-3.121-1.183-4.351-2.128-10.443-8.025-20.648-16.37-31.254-24.17-12.521-9.208-24.769-18.763-37.061-28.264-2.398-1.854-3.478-.1-4.523,1.308-2.889,3.892-5.447,8.033-8.395,11.878-7.92,10.329-16.038,20.506-23.959,30.835-6.505,8.482-12.876,17.067-19.234,25.66-3.087,4.172-3.503,4.169-7.694.864-5.759-4.541-11.684-8.871-17.537-13.292-2.078-1.569-3.242-2.784-1.038-5.669,17.582-23.016,34.863-46.261,52.462-69.263,2.267-2.963.86-4.215-1.061-5.696-6.599-5.087-13.279-10.069-19.918-15.103-16.443-12.469-32.858-24.974-49.348-37.38-2.038-1.534-1.853-2.767-.651-4.68,3.307-5.264,7.601-9.762,11.198-14.794,1.157-1.619,2.292-3.255,3.438-4.883,1.623-2.304,3.417-2.464,5.673-.74,14.62,11.168,29.284,22.279,43.929,33.415,8.412,6.396,16.825,12.791,25.215,19.216,2.127,1.629,3.519,1.817,5.422-.769,9.728-13.217,19.699-26.256,29.615-39.334,7.359-9.705,14.789-19.357,22.137-29.071,1.97-2.605,3.804-3.484,6.753-1.079,6.255,5.101,12.708,9.962,19.152,14.826,2.33,1.759.988,3.32-.087,4.772-4.588,6.198-9.256,12.337-13.922,18.477-12.713,16.727-25.417,33.462-38.188,50.145-1.855,2.423-1.591,4.153.793,5.963,22.584,17.148,45.139,34.334,67.696,51.516,3.66,2.788,3.807,3.72.989,7.504-4.381,5.882-8.79,11.744-13.277,17.545-.776,1.003-1.304,2.571-2.975,2.392Z"/>
  </g>
</svg>