<?xml version="1.0" encoding="utf-8"?>
<!-- Generator: Adobe Illustrator 28.1.0, SVG Export Plug-In . SVG Version: 6.00 Build 0)  -->
<svg version="1.1" id="Layer_1" xmlns="http://www.w3.org/2000/svg" xmlns:xlink="http://www.w3.org/1999/xlink" x="0px" y="0px"
	 viewBox="0 0 283.5 283.5" style="enable-background:new 0 0 283.5 283.5;" xml:space="preserve">
<style type="text/css">
	.st0{fill:#FFFFFF;}
</style>
<path class="st0" d="M27.3,203.9c0.7,0.8,1.6,1.1,2.5,1.1c66.4,0,157.4,0,223.8,0c1,0,1.9-0.3,2.5-1.1
	c18.3-20.7,27.4-46.5,27.4-72.2c0-25.7-9.1-51.4-27.4-72.2c-0.6-0.8-1.4-1.1-2.5-1.1c-66.4,0-157.3,0-223.8,0c-1,0-1.8,0.3-2.5,1.1
	C9.1,80.3,0,106,0,131.7C0,157.4,9.1,183.1,27.3,203.9z M52.5,83.7c0-0.4,0.2-0.9,0.4-1.2c0.3-0.3,0.7-0.5,1.2-0.5h175.2
	c0.4,0,0.8,0.2,1.2,0.5c0.3,0.3,0.4,0.8,0.4,1.2v96c0,0.5-0.1,0.9-0.4,1.2c-0.3,0.3-0.7,0.5-1.2,0.5H54.2c-0.5,0-0.9-0.2-1.2-0.5
	c-0.3-0.3-0.4-0.8-0.4-1.2L52.5,83.7L52.5,83.7z"/>
</svg>
