<?xml version="1.0" encoding="utf-8"?>
<!-- Generator: Adobe Illustrator 28.1.0, SVG Export Plug-In . SVG Version: 6.00 Build 0)  -->
<svg version="1.1" id="Layer_1" xmlns="http://www.w3.org/2000/svg" xmlns:xlink="http://www.w3.org/1999/xlink" x="0px" y="0px"
	 viewBox="0 0 283.5 283.5" style="enable-background:new 0 0 283.5 283.5;" xml:space="preserve">
<style type="text/css">
	.st0{fill:#FFFFFF;}
</style>
<g>
	<path class="st0" d="M266.5,185.1c-5.1,6-11,10.4-17.8,13.3c-6.8,2.9-14.1,4.3-22,4.3c-24.2,1.4-52.5,2.1-85,2.1
		c-32.5,0-60.8-0.7-85-2.1c-7.8,0-15.2-1.4-22-4.3c-6.8-2.9-12.7-7.3-17.8-13.3c-5.3-5.8-9.5-13.1-12.4-22c-3-8.9-4.5-19.3-4.5-31.3
		c0-12.2,1.5-22.8,4.5-31.6c3-8.9,7.1-16.2,12.4-22c5.1-6,11-10.4,17.8-13.3c6.8-2.9,14.1-4.3,22-4.3c24.2-1.4,52.5-2.1,85-2.1
		c32.5,0,60.8,0.7,85,2.1c7.8,0,15.2,1.4,22,4.3c6.8,2.9,12.7,7.3,17.8,13.3c5.3,5.8,9.4,13.1,12.4,22c3,8.9,4.5,19.4,4.5,31.6
		c0,12-1.5,22.4-4.5,31.3C276,172.1,271.8,179.4,266.5,185.1z M13.5,138.5c0,3.7,1.3,6.8,3.8,9.3c2.5,2.5,5.6,3.8,9.3,3.8
		c3.7,0,6.9-1.3,9.5-3.8c2.6-2.5,4-5.6,4-9.3c0-3.7-1.3-6.9-4-9.5c-2.7-2.6-5.8-4-9.5-4c-3.7,0-6.8,1.3-9.3,4
		C14.7,131.6,13.5,134.8,13.5,138.5z M53.2,182.7h177v-102h-177V182.7z M243.4,138.5c0,3.7,1.3,6.8,3.8,9.3c2.5,2.5,5.6,3.8,9.3,3.8
		c3.7,0,6.9-1.3,9.5-3.8c2.6-2.5,4-5.6,4-9.3c0-3.7-1.3-6.9-4-9.5c-2.7-2.6-5.8-4-9.5-4c-3.7,0-6.8,1.3-9.3,4
		C244.6,131.6,243.4,134.8,243.4,138.5z"/>
</g>
</svg>
