<?xml version="1.0" encoding="UTF-8"?>
<svg id="_레이어_1" data-name="레이어 1" xmlns="http://www.w3.org/2000/svg" viewBox="0 0 303.964 237.3">
  <defs>
    <style>
      .cls-1 {
        fill: #fff;
        stroke-width: 0px;
      }
    </style>
  </defs>
  <path class="cls-1" d="M130.07,237.3h-8.995c-5.024-1.396-10.168-2.466-15.052-4.246-18.584-6.771-36.795-14.471-54.084-24.11-15.252-8.503-30.48-17.159-42.279-30.494-5.114-5.779-8.047-12.443-8.682-20.227-1.533-18.788-.908-37.595-.493-56.385.201-9.084.213-18.301,3.624-27.042,1.972-5.051,5.173-8.219,10.684-9.265,11.264-2.138,22.471-4.574,33.704-6.871,3.674-.751,7.138-.547,10.621,1.287,4.249,2.238,8.8,3.895,13.137,5.976,1.773.851,2.712.573,3.41-1.23,2.71-6.996,4.397-13.929.25-21.069-1.573-2.709-2.681-5.702-3.853-8.626-1.7-4.242-1.437-8.273.796-12.437,3.371-6.287,6.475-12.735,9.33-19.272,1.515-3.468,2.916-4.084,6.523-2.367,62.219,29.621,124.497,59.118,186.808,88.543,9.415,4.446,18.541,9.551,28.445,12.929v1.999c-3.648,4.752-6.119,10.21-8.735,15.513-1.895,3.841-3.474,4.272-7.311,2.459-25.503-12.05-50.965-24.268-77.687-33.445-19.377-6.654-39.187-11.929-59.84-12.208-10.329-.14-20.055,2.532-27.472,11.25,1.834.853,3.285,1.588,4.78,2.215,16.274,6.827,33.208,11.625,50.23,16.105,7.441,1.958,13.832,5.556,19.287,10.897,21.301,20.858,23.258,57.26,2.96,80.903-16.752,19.512-38.843,31.273-63.658,37.906-2.142.573-4.662-.831-6.448,1.311ZM18.792,83.048c-1.048,2.904-1.53,5.092-1.69,7.425-1.284,18.61-.408,37.26-1.028,55.862-.475,14.272,5.533,24.157,16.744,31.793,2.198,1.497,4.333,3.088,6.538,4.574,22.451,15.135,46.98,26.048,72.227,35.496,10.611,3.971,21.449,3.9,31.639-.537,13.548-5.9,26.795-12.714,37.999-22.562,13.992-12.299,19.538-28.034,15.657-46.266-4.581-21.521-21.953-30.381-42.091-22.194-8.959,3.642-17.97,6.738-27.853,6.982-14.336.354-26.902-5.249-39.511-10.867-24.038-10.71-47.025-23.269-68.63-39.706Z"/>
  <path class="cls-1" d="M47.6,148.763c.014-3.049.486-5.986,2.425-8.453,1.936-2.462,4.358-3.555,7.416-2.075,7.604,3.679,15.322,7.146,22.75,11.153,5.781,3.119,7.306,14.591,2.973,19.525-2.124,2.418-4.742,2.954-7.633,1.576-7.471-3.561-14.974-7.065-22.343-10.829-4.325-2.209-5.577-6.312-5.589-10.898Z"/>
</svg>