<?xml version="1.0" encoding="UTF-8"?>
<svg id="_레이어_1" data-name="레이어 1" xmlns="http://www.w3.org/2000/svg" viewBox="0 0 566.943 519.172">
  <defs>
    <style>
      .cls-1 {
        fill: #fff;
        stroke-width: 0px;
      }
    </style>
  </defs>
  <path class="cls-1" d="M6.613,193.89c0-13.238-.195-26.48.037-39.715.7-39.969,1.554-79.935,2.378-119.901.165-7.993.434-15.984.704-23.975C9.959,3.556,13.595.007,20.307.007c133.57-.009,267.141-.009,400.711,0,7.565,0,11.497,3.967,11.632,11.472.802,44.592,1.599,89.184,2.443,133.776.683,36.097,1.404,72.193,2.158,108.289.379,18.11.803,36.219,1.38,54.323.09,2.815-.574,3.547-3.41,3.507-11.993-.17-23.99-.115-35.984-.03-1.994.014-3.577-.552-5.149-1.685-7.093-5.11-14.62-9.552-22.225-13.826-15.101-8.485-31.35-9.805-47.837-5.817-29.028,7.021-48.837,25.226-60.884,52.237-3.477,7.796-5.161,16.026-6.059,24.507-.534,5.05-2.009,9.992-2.296,15.107-.091,1.625-.911,2.494-2.671,2.271-.738-.094-1.497-.014-2.247-.014-79.093,0-158.185,0-237.278-.004-1.874,0-3.761.069-5.618-.124-3.598-.374-5.544-2.556-5.463-6.145.638-28.099,1.337-56.197,1.959-84.297.395-17.86.663-35.723,1.042-53.583.326-15.361.728-30.721,1.097-46.082.335,0,.67.002,1.005.003Z"/>
  <path class="cls-1" d="M269.175,493.606c.264-10.857,1.878-21.586,3.324-32.323,2.027-15.046,4.21-30.072,6.427-45.091,2.052-13.902,4.416-27.76,6.292-41.685,1.119-8.303,2.428-16.452,6.439-23.952,8.923-16.681,21.831-28.354,40.846-32.022,12.196-2.353,23.457.375,33.735,7.354,6.601,4.482,13.308,8.808,19.929,13.26,1.715,1.153,3.456,1.708,5.568,1.7,17.74-.069,35.481-.056,53.222-.015,1.957.005,3.566-.481,5.206-1.617,6.146-4.26,12.501-8.221,18.598-12.548,18.792-13.336,40.463-10.888,57.618,2.05,11.747,8.859,19.793,20.351,22.795,34.857,1.634,7.897,2.269,15.998,3.452,23.993,2.331,15.752,4.842,31.478,7.07,47.245,2.368,16.763,4.882,33.509,6.519,50.371.472,4.857.874,9.698.675,14.57-.361,8.868-4.856,14.171-13.184,16.754-13.237,4.105-25.972,3.397-38.455-2.711-5.04-2.466-9.204-5.886-12.675-10.229-12.211-15.281-21.733-32.219-30.383-49.671-1.379-2.783-2.955-3.888-6.197-3.874-32.108.14-64.217.14-96.324-.003-3.131-.014-4.586,1.094-5.89,3.72-8.216,16.545-17.875,32.171-28.43,47.381-9.527,13.729-31.778,20.975-46.484,16.942-1.675-.459-3.348-.953-5.049-1.289-10.547-2.082-13.688-8.271-14.621-17.923-.167-1.733-.024-3.495-.024-5.244Z"/>
  <path class="cls-1" d="M1.211,447.47c2.683,4.047,6.636,4.783,11.078,4.78,75.943-.044,151.887-.031,227.83-.031,4.495,0,4.367-.015,3.729,4.627-.916,6.66-1.707,13.339-2.378,20.028-.25,2.492-.891,3.645-3.792,3.642-75.319-.086-150.637-.055-225.956-.086C2.899,480.427-.014,477.305,0,468.352c.011-6.862.002-13.723.002-20.585.403-.099.806-.198,1.209-.297Z"/>
  <path class="cls-1" d="M1.907,400.516c2.991,3.353,6.889,3.633,10.905,3.633,77.949-.011,155.898-.008,233.847-.008,4.622,0,4.549-.01,3.856,4.435-1.054,6.759-2.17,13.516-2.901,20.312-.316,2.941-1.661,3.277-4.142,3.267-19.862-.08-39.724-.045-59.586-.045-57.213,0-114.425.002-171.638-.008-1.746,0-3.549.135-5.227-.236-4.036-.892-6.273-4.045-6.271-8.373.003-7.558,0-15.116,0-22.674.385-.101.77-.202,1.155-.304Z"/>
</svg>