<?xml version="1.0" encoding="utf-8"?>
<!-- Generator: Adobe Illustrator 28.1.0, SVG Export Plug-In . SVG Version: 6.00 Build 0)  -->
<svg version="1.1"
	 id="Layer_1" xmlns:svg="http://www.w3.org/2000/svg" xmlns:rdf="http://www.w3.org/1999/02/22-rdf-syntax-ns#" xmlns:dc="http://purl.org/dc/elements/1.1/" xmlns:cc="http://creativecommons.org/ns#"
	 xmlns="http://www.w3.org/2000/svg" xmlns:xlink="http://www.w3.org/1999/xlink" x="0px" y="0px" viewBox="0 0 3318.9 5337.8"
	 style="enable-background:new 0 0 3318.9 5337.8;" xml:space="preserve">
<style type="text/css">
	.st0{fill:#FFFFFF;}
</style>
<path id="path47" class="st0" d="M933.3,502.3C807.1,811.4,609.7,1049.4,527.1,1402c333-686.9,1129.4-1771.2,2031.5-1277
	c496.2,271.8,713.7,991.7,754.6,1712.3c80.3,1413.6-699.4,3126.1-1712.4,3453.7c-640.5,207.1-1125.7-316.6-1335-725.5
	C-380.5,3302.7,273.3,1232.6,933.3,502.3z M1658.9,531.3C742,1026.4,16.9,3547,759.3,4652.6c189.4,282.1,712.4,588.3,1044.8,261.2
	c-765.6,115.5-1056.1-645.1-1102.9-1247.9c115,541.1,510.5,1194.3,1131.9,928.7C2755.8,4200,3213,2219.7,2819.8,1053.8
	c82,493,57,1163.5-174.1,1509.2C2963,1718.4,2674.6-17,1658.9,531.3L1658.9,531.3z"/>
</svg>
