<?xml version="1.0" encoding="UTF-8" standalone="no"?>
<svg
   xmlns:dc="http://purl.org/dc/elements/1.1/"
   xmlns:cc="http://creativecommons.org/ns#"
   xmlns:rdf="http://www.w3.org/1999/02/22-rdf-syntax-ns#"
   xmlns:svg="http://www.w3.org/2000/svg"
   xmlns="http://www.w3.org/2000/svg"
   xmlns:sodipodi="http://sodipodi.sourceforge.net/DTD/sodipodi-0.dtd"
   xmlns:inkscape="http://www.inkscape.org/namespaces/inkscape"
   inkscape:version="1.0.1 (3bc2e813f5, 2020-09-07)"
   sodipodi:docname="Prime Video 2017 (Stacked).svg"
   viewBox="0 0 1000 1007.0095"
   height="1007.0095"
   width="1000"
   id="svg545"
   version="1.1">
  <metadata
     id="metadata551">
    <rdf:RDF>
      <cc:Work
         rdf:about="">
        <dc:format>image/svg+xml</dc:format>
        <dc:type
           rdf:resource="http://purl.org/dc/dcmitype/StillImage" />
        <dc:title></dc:title>
      </cc:Work>
    </rdf:RDF>
  </metadata>
  <defs
     id="defs549" />
  <sodipodi:namedview
     inkscape:current-layer="g553"
     inkscape:window-maximized="1"
     inkscape:window-y="-8"
     inkscape:window-x="-8"
     inkscape:cy="562.52945"
     inkscape:cx="503.21914"
     inkscape:zoom="0.37512071"
     inkscape:snap-global="true"
     inkscape:snap-page="true"
     inkscape:snap-text-baseline="true"
     inkscape:snap-center="true"
     inkscape:snap-object-midpoints="true"
     inkscape:snap-midpoints="true"
     inkscape:snap-smooth-nodes="true"
     inkscape:snap-intersection-paths="true"
     inkscape:object-paths="true"
     inkscape:snap-bbox-midpoints="true"
     inkscape:snap-bbox-edge-midpoints="true"
     inkscape:bbox-nodes="true"
     inkscape:bbox-paths="true"
     inkscape:snap-bbox="true"
     showgrid="false"
     id="namedview547"
     inkscape:window-height="837"
     inkscape:window-width="1600"
     inkscape:pageshadow="2"
     inkscape:pageopacity="0"
     guidetolerance="10"
     gridtolerance="10"
     objecttolerance="10"
     borderopacity="1"
     bordercolor="#666666"
     pagecolor="#ffffff"
     inkscape:document-rotation="0" />
  <g
     id="g553"
     inkscape:label="Image"
     inkscape:groupmode="layer">
    <g
       transform="matrix(3.0067728,0,0,3.0067728,-4005.1636,-1337.9496)"
       id="g1892">
      <path
         style="stroke-width:0.682441"
         fill-rule="evenodd"
         clip-rule="evenodd"
         fill="#ffffff"
         d="m 1369.5791,473.77209 c -3.808,0 -7.494,0.73362 -11.1738,2.21742 -3.6724,1.48244 -6.7219,3.49283 -9.2903,6.02842 l -0.901,-3.40931 c -0.4884,-1.9124 -1.6674,-2.88273 -3.679,-2.88273 h -9.229 c -1.1108,0 -1.9448,0.24293 -2.4253,0.7281 -0.5561,0.47067 -0.8334,1.323 -0.8334,2.55629 v 87.27345 c 0,1.21947 0.2773,2.0718 0.8334,2.54317 0.4805,0.48517 1.3139,0.7212 2.4253,0.7212 h 12.3534 c 1.1722,0 2.0116,-0.23603 2.5003,-0.7212 0.4804,-0.47137 0.6842,-1.3237 0.6842,-2.54317 v -28.65544 c 2.2964,2.00969 5.0005,3.57631 8.1242,4.7123 3.1852,1.13044 6.5863,1.69153 10.0556,1.69153 5.3392,0 10.0624,-1.44929 14.2294,-4.37343 4.086,-2.92414 7.3454,-7.08916 9.7775,-12.50816 2.3579,-5.40521 3.6049,-11.72484 3.6049,-18.97342 0,-10.55435 -2.4259,-18.92511 -7.2773,-25.12052 -4.8649,-6.19472 -11.4443,-9.2845 -19.7791,-9.2845 m 4.5807,50.90496 c -2.291,3.30579 -5.8345,4.96835 -10.6859,4.96835 -4.5732,0 -8.8091,-1.17808 -12.6307,-3.53353 v -34.42021 c 3.9639,-2.35615 8.1925,-3.53422 12.6307,-3.53422 4.933,0 8.4698,1.65634 10.754,4.97524 2.2223,3.32027 3.327,8.59297 3.327,15.84155 0,7.14505 -1.1728,12.38462 -3.3951,15.70282"
         id="path1854" />
      <path
         style="stroke-width:0.682441"
         fill-rule="evenodd"
         clip-rule="evenodd"
         fill="#ffffff"
         d="m 1448.0518,475.0737 h -1.8024 c -3.4699,0 -6.7293,0.81851 -9.7849,2.41895 -3.0557,1.62185 -6.2475,4.34514 -9.7162,8.17752 l -1.66,-7.06155 c -0.4205,-1.9124 -1.6676,-2.88273 -3.6124,-2.88273 h -9.2964 c -1.1107,0 -1.87,0.24293 -2.426,0.7281 -0.4879,0.47137 -0.766,1.32369 -0.766,2.55697 v 60.31646 c 0,1.12977 0.2781,1.96069 0.766,2.48727 0.556,0.52728 1.3146,0.78401 2.426,0.78401 h 12.4201 c 1.179,0 2.0125,-0.25673 2.5003,-0.78401 0.4819,-0.52658 0.6911,-1.3575 0.6911,-2.48727 v -43.96281 c 1.9447,-0.87304 4.3707,-1.60045 7.2165,-2.16222 2.8458,-0.56799 5.2036,-0.84543 7.2159,-0.84543 1.4569,0 2.6358,0.042 3.6049,0.11801 0.9759,0.0904 1.7343,0.13803 2.2904,0.13803 1.2532,0 2.0873,-0.25604 2.5684,-0.78262 0.4204,-0.53348 0.6978,-1.3589 0.6978,-2.49487 v -10.99053 c 0,-1.22018 -0.2774,-2.0718 -0.766,-2.54386 -0.5547,-0.4838 -1.3881,-0.72742 -2.5671,-0.72742"
         id="path1856" />
      <path
         style="stroke-width:0.682441"
         fill-rule="evenodd"
         clip-rule="evenodd"
         fill="#ffffff"
         d="m 1469.0781,444.97863 c -3.2594,0 -5.902,0.92133 -7.9151,2.75021 -1.9374,1.83648 -2.9131,4.31754 -2.9131,7.46322 0,3.13945 0.9757,5.62742 2.9131,7.45009 2.0123,1.83578 4.6551,2.75092 7.9151,2.75092 3.2587,0 5.8271,-0.91514 7.8394,-2.75092 1.9449,-1.82267 2.9815,-4.31064 2.9815,-7.45009 0,-3.14637 -1.0366,-5.62674 -2.9815,-7.46322 -2.0129,-1.82888 -4.5807,-2.75021 -7.8394,-2.75021 m 6.1726,30.74726 h -12.3533 c -1.1047,0 -1.9374,0.24293 -2.4928,0.7281 -0.4886,0.47137 -0.7659,1.32369 -0.7659,2.55697 v 60.31646 c 0,1.12977 0.2773,1.96069 0.7659,2.48727 0.5554,0.52728 1.3888,0.78401 2.4928,0.78401 h 12.3533 c 1.179,0 2.0118,-0.25673 2.5002,-0.78401 0.4879,-0.52658 0.6911,-1.3575 0.6911,-2.48727 v -60.31646 c 0,-1.23328 -0.2038,-2.0856 -0.6911,-2.55697 -0.4884,-0.48586 -1.3212,-0.7281 -2.5002,-0.7281"
         id="path1858" />
      <path
         style="stroke-width:0.682441"
         fill-rule="evenodd"
         clip-rule="evenodd"
         fill="#ffffff"
         d="m 1509.7337,542.59801 c 1.1857,0 2.0123,-0.25674 2.5002,-0.784 0.4886,-0.52658 0.766,-1.35752 0.766,-2.48728 v -47.37282 c 4.5807,-2.35545 9.2963,-3.53353 14.1551,-3.53353 5.2042,0 7.8394,2.96625 7.8394,8.89802 v 42.00833 c 0,1.12976 0.2781,1.9607 0.7592,2.48728 0.5553,0.52726 1.3213,0.784 2.4321,0.784 h 12.4202 c 1.1789,0 2.0123,-0.25674 2.4934,-0.784 0.4879,-0.52658 0.6978,-1.35752 0.6978,-2.48728 v -47.49635 c 4.7158,-2.27333 9.4388,-3.40931 14.087,-3.40931 5.2042,0 7.8402,2.96624 7.8402,8.89801 v 42.00834 c 0,1.12977 0.2031,1.96069 0.7584,2.48727 0.4886,0.52728 1.3213,0.78401 2.4328,0.78401 h 12.3452 c 1.2539,0 2.088,-0.25673 2.5691,-0.78401 0.4198,-0.52658 0.6977,-1.3575 0.6977,-2.48727 v -46.19474 c 0,-6.09741 -1.6674,-10.85803 -5.0011,-14.26112 -3.2586,-3.3955 -7.9075,-5.10016 -13.9446,-5.10016 -4.1603,0 -8.1175,0.6508 -11.9997,1.9538 -3.8148,1.3168 -7.9826,3.45071 -12.3534,6.41695 -3.1912,-5.58533 -8.6054,-8.37075 -16.378,-8.37075 -3.8823,0 -7.6296,0.63769 -11.2405,1.89099 -3.6724,1.26159 -7.766,3.43071 -12.346,6.47976 l -1.044,-3.53423 c -0.413,-1.91238 -1.5919,-2.88272 -3.5368,-2.88272 h -9.2963 c -1.1108,0 -1.9449,0.24293 -2.5003,0.7281 -0.4879,0.47136 -0.7658,1.32369 -0.7658,2.55698 v 60.31645 c 0,1.12976 0.2779,1.9607 0.7658,2.48728 0.5554,0.52726 1.3895,0.784 2.5003,0.784 z"
         id="path1860" />
      <path
         style="stroke-width:0.682441"
         fill-rule="evenodd"
         clip-rule="evenodd"
         fill="#ffffff"
         d="m 1658.2898,509.10674 c 0.488,-0.45757 2.3579,-2.13462 3.605,-4.78822 1.8024,-3.92277 1.7343,-6.7358 1.7343,-9.4384 0,-7.85176 -4.6415,-12.75108 -5.4134,-13.52749 -4.6416,-4.70471 -10.6792,-7.05465 -20.8772,-7.05465 -8.1856,0 -16.8585,2.89653 -22.5506,9.08505 -5.6922,6.19541 -9.1608,14.73248 -9.1608,25.90315 0,13.84634 3.9573,21.91895 8.1849,26.2772 6.4575,6.63158 14.4333,9.12714 24.9086,9.12714 6.7961,0 12.9013,-1.19877 19.4336,-3.64464 1.1046,-0.42997 1.8639,-0.98485 2.2835,-1.55283 0.3524,-0.56108 0.5555,-1.53832 0.5555,-2.94553 v -6.0077 c 0,-1.90617 -0.7659,-2.57147 -1.4563,-2.8068 -0.4818,-0.13735 -1.0439,-0.0752 -1.1789,-0.0545 -0.2781,0.0344 -0.9016,0.21463 -1.2471,0.29814 -6.2483,1.66256 -11.1737,2.40377 -14.778,2.40377 -7.359,0 -10.8957,-1.01175 -14.1619,-3.42311 -3.4625,-2.56388 -5.0618,-7.06776 -5.5431,-12.81251 l 8.1176,1.26779 c 5.0618,0.29056 19.908,0.74812 27.5443,-6.30583 m -31.0811,-17.71253 c 2.4259,-2.6398 5.8953,-3.95659 9.4327,-3.95659 5.4742,0 9.92,1.82266 9.92,8.21131 0,5.12088 -3.47,7.16576 -7.081,7.77516 -6.9318,1.16497 -16.5744,-0.6094 -16.5744,-0.6094 0.5553,-4.92762 2.0124,-8.84279 4.3027,-11.42048"
         id="path1862" />
      <path
         style="stroke-width:0.721536"
         fill-rule="evenodd"
         clip-rule="evenodd"
         fill="#ffffff"
         d="m 1558.3302,602.78795 c -8.6686,0 -17.8447,3.06006 -23.7884,9.59797 -6.023,6.54521 -9.6932,15.56428 -9.6932,27.36562 0,14.6281 4.1865,23.15647 8.6607,27.76079 6.7541,7.00601 15.1999,9.64246 26.3632,9.64246 7.1911,0 13.6518,-1.26646 20.5488,-3.85042 1.1824,-0.45424 1.9857,-1.04044 2.4298,-1.6405 0.3585,-0.59276 0.5091,-1.62517 0.5091,-3.11183 v -6.34688 c 0,-2.01381 -0.8026,-2.71666 -1.5487,-2.96529 -0.437,-0.14509 -1.0896,-0.0795 -1.2403,-0.0576 -0.2286,0.0364 -0.9604,0.22676 -1.2468,0.31498 -6.6891,1.75642 -11.8295,2.53948 -15.7089,2.53948 -7.7074,0 -11.4575,-1.06887 -14.9063,-3.61637 -3.6709,-2.70864 -5.3561,-7.4668 -5.9509,-13.5359 l 8.6684,1.33938 c 5.284,0.30768 21.0722,0.79035 29.1445,-6.66186 0.5169,-0.4834 2.4948,-2.25513 3.8222,-5.05856 1.9073,-4.14425 1.8352,-7.11609 1.8352,-9.97128 0,-8.29506 -4.9248,-13.471 -5.7352,-14.29125 -4.9127,-4.97032 -11.3726,-7.45294 -22.1632,-7.45294 m 2.3449,30.76981 c -7.4139,1.23074 -17.6169,-0.6438 -17.6169,-0.6438 0.6605,-5.20583 2.2021,-9.34206 4.6248,-12.06528 2.4956,-2.78883 6.1665,-4.17997 9.9817,-4.17997 5.8001,0 10.5035,1.92557 10.5035,8.67493 -6e-4,5.41071 -3.6715,7.57106 -7.4931,8.21412"
         id="path1864" />
      <path
         style="stroke-width:0.721536"
         fill-rule="evenodd"
         clip-rule="evenodd"
         fill="#ffffff"
         d="m 1351.8773,605.13058 c -0.7383,-0.55632 -1.7643,-0.83484 -3.2331,-0.83484 h -13.659 c -1.8344,0 -2.7098,0.70287 -2.7098,2.07942 0,0.46881 0.072,0.96607 0.2935,1.52311 0.1435,0.55631 0.3663,1.20011 0.6597,1.93214 l 23.345,61.51849 c 0.3656,0.92232 0.7312,1.63247 1.1046,2.14431 0.4363,0.51329 0.9532,0.87931 1.5409,1.09949 0.5877,0.23332 1.3196,0.35071 2.2015,0.35071 h 11.8938 c 1.026,0 1.7572,-0.11739 2.3448,-0.35071 0.5163,-0.22018 1.0319,-0.5862 1.3981,-1.09949 0.437,-0.51184 0.8098,-1.22271 1.1753,-2.14431 l 23.2729,-61.51849 c 0.2942,-0.73203 0.5162,-1.37657 0.7319,-1.93214 0.1499,-0.55704 0.222,-1.0543 0.222,-1.52311 0,-1.37655 -0.8817,-2.07942 -2.7176,-2.07942 h -13.2141 c -1.4702,0 -2.4948,0.27852 -3.2332,0.83484 -0.6597,0.55703 -1.1689,1.47862 -1.5416,2.76769 l -14.3109,48.94065 -14.0238,-48.94065 c -0.372,-1.28833 -0.8811,-2.21066 -1.5409,-2.76769"
         id="path1866" />
      <path
         style="stroke-width:0.721536"
         fill-rule="evenodd"
         clip-rule="evenodd"
         fill="#ffffff"
         d="m 1414.3547,604.29648 c -1.176,0 -2.0579,0.25664 -2.5741,0.7692 -0.5091,0.49798 -0.8026,1.39844 -0.8026,2.70135 v 63.72186 c 0,1.19355 0.2935,2.0714 0.8026,2.62771 0.5169,0.55703 1.3981,0.82826 2.5741,0.82826 h 13.0706 c 1.3195,0 2.2014,-0.27123 2.7105,-0.82826 0.4441,-0.55631 0.7383,-1.43416 0.7383,-2.62771 v -63.72186 c 0,-1.30291 -0.2942,-2.20337 -0.7383,-2.70135 -0.5091,-0.51256 -1.391,-0.7692 -2.7105,-0.7692 z m -4.919,-21.69243 c 0,3.31671 1.0967,5.94515 3.1546,7.87072 2.1293,1.93943 4.8469,2.90623 8.2958,2.90623 3.4552,0 6.245,-0.9668 8.3742,-2.90623 2.0508,-1.92557 3.0826,-4.55401 3.0826,-7.87072 0,-3.324 -1.0318,-5.94441 -3.0826,-7.88457 -2.1285,-1.93214 -4.919,-2.9055 -8.3742,-2.9055 -3.4489,0 -6.1665,0.97336 -8.2958,2.9055 -2.0571,1.93942 -3.1546,4.56057 -3.1546,7.88457"
         id="path1868" />
      <path
         style="stroke-width:0.721536"
         fill-rule="evenodd"
         clip-rule="evenodd"
         fill="#ffffff"
         d="m 1508.1064,572.64005 h -13.0633 c -1.1753,0 -2.0579,0.26321 -2.5734,0.76922 -0.5877,0.49798 -0.8034,1.39842 -0.8034,2.68749 v 32.35854 c -5.291,-4.1581 -11.5289,-6.2222 -18.7279,-6.2222 -8.8041,0 -15.8525,3.43337 -21.2149,10.30084 -5.3561,6.86674 -8.073,16.00319 -8.073,27.43852 0,7.18974 1.1682,13.53006 3.4481,19.00493 2.3514,5.48362 5.6496,9.7737 10.0594,12.86366 4.33,3.08923 9.4711,4.62035 15.4148,4.62035 7.7074,0 14.3894,-2.57739 20.0461,-7.73145 l 0.804,3.17672 c 0.2935,1.09877 0.6669,1.88911 1.2475,2.34408 0.5869,0.46808 1.4694,0.69484 2.5734,0.69484 h 10.8626 c 1.3261,0 2.2087,-0.27123 2.7177,-0.82827 0.4442,-0.55631 0.7383,-1.43415 0.7383,-2.62771 v -95.39358 c 0,-1.28906 -0.2941,-2.18951 -0.7383,-2.6875 -0.509,-0.50527 -1.3916,-0.76848 -2.7177,-0.76848 m -16.4401,84.7406 c -4.0436,2.59197 -8.2236,3.87958 -12.5543,3.87958 -5.2125,0 -9.0333,-1.80089 -11.5289,-5.39467 -2.4949,-3.58794 -3.743,-9.07813 -3.743,-16.44357 0,-7.37931 1.1696,-12.8848 3.5209,-16.52305 2.3521,-3.64627 5.9516,-5.46904 10.7906,-5.46904 5.069,0 9.5497,1.15709 13.5147,3.46254 z"
         id="path1870" />
      <path
         style="stroke-width:0.721536"
         fill-rule="evenodd"
         clip-rule="evenodd"
         fill="#ffffff"
         d="m 1655.5236,612.10813 c -6.0936,-6.58895 -14.5329,-9.87576 -25.4021,-9.87576 -10.7899,0 -19.2363,3.28681 -25.3306,9.87576 -6.0952,6.59625 -9.1706,15.74801 -9.1706,27.43926 0,11.80134 3.0754,21.00415 9.1706,27.5931 6.0935,6.58895 14.54,9.8765 25.3306,9.8765 10.8699,0 19.3085,-3.28755 25.4021,-9.8765 6.0944,-6.58895 9.1062,-15.79176 9.1062,-27.5931 0,-11.69198 -3.0118,-20.84374 -9.1062,-27.43926 m -25.4021,49.43062 c -9.5431,0 -14.318,-7.33628 -14.318,-21.99209 0,-14.54644 4.7749,-21.83825 14.318,-21.83825 9.5432,0 14.318,7.29181 14.318,21.83825 0,14.65653 -4.7748,21.99209 -14.318,21.99209"
         id="path1872" />
      <g
         transform="matrix(0.63709719,0,0,0.64750402,1178.3603,515.30946)"
         id="g1878">
        <path
           fill-rule="evenodd"
           clip-rule="evenodd"
           fill="#ffffff"
           d="M 705.736,325.731 C 641.784,354.8 572.17,368.869 508.84,368.869 c -93.764,0 -184.655,-27.563 -258.075,-73.28 -1.336,-0.834 -2.57,-1.194 -3.695,-1.194 -2.37,0 -4.117,1.646 -4.428,3.785 v 1.546 c 0.211,1.335 0.924,2.762 2.269,4.037 68.059,65.798 158.017,105.341 257.966,105.341 71.251,0 154.12,-23.999 211.193,-69.083 9.459,-7.491 1.335,-18.657 -8.334,-14.29"
           id="path1874" />
        <path
           fill-rule="evenodd"
           clip-rule="evenodd"
           fill="#ffffff"
           d="m 724.864,288.399 c -18.616,0 -41.027,4.237 -57.887,16.879 -2.059,1.536 -3.093,3.283 -3.293,4.77 v 0.924 c 0.2,1.727 1.847,2.882 4.729,2.53 18.304,-2.35 59.332,-7.581 66.632,2.41 7.3,9.961 -8.123,51.089 -15.012,69.414 -2.059,5.512 2.36,7.781 7.089,3.554 30.646,-27.301 38.559,-84.555 32.283,-92.809 -2.981,-3.976 -17.059,-7.672 -34.541,-7.672"
           id="path1876" />
      </g>
    </g>
  </g>
</svg>
