<svg xmlns="http://www.w3.org/2000/svg" xml:space="preserve" width="840.92px" height="1000px" x="0px" y="0px" viewBox="0 0 840.92 1000"><path fill="#FBAD29" d="M420.491 988.518c-87.109 0-167.058-29.147-218.541-72.688-26.143 7.804-59.582 20.366-80.698 35.964-18.054 13.322-15.804 26.913-12.546 32.41 14.294 24.104 245.147 15.387 311.785 7.889v-3.575zM420.491 988.518c87.113 0 167.063-29.147 218.535-72.688 26.143 7.804 59.593 20.366 80.683 35.964 18.069 13.322 15.814 26.913 12.562 32.41-14.293 24.104-245.132 15.387-311.779 7.889v-3.575z"/><path d="M421.002 466.46c143.841-.977 259.125-28.804 298.178-39.491 9.32-2.556 14.299-7.118 14.299-7.118.032-1.305.586-23.413.586-34.824C734.065 192.989 643.403.016 420.458 0 197.52.016 106.852 192.989 106.852 385.028c0 11.411.57 33.519.592 34.824 0 0 4.07 4.271 11.479 6.336 36.081 10.043 153.52 39.27 301.019 40.273h1.06zM811.875 626.453c-8.907-28.704-21.078-62.159-33.408-94.306 0 0-7.086-.877-10.671.174-110.596 32.115-244.651 52.603-346.805 51.356h-1.051c-101.587 1.225-234.725-19.009-344.945-50.828-4.219-1.215-12.529-.702-12.529-.702-12.324 32.146-24.496 65.602-33.419 94.306C-13.475 763.292.295 819.918 10.783 821.18c22.521 2.725 87.626-103.003 87.626-103.003 0 107.433 96.988 272.384 319.119 273.915.978-.011 4.89-.011 5.872 0 222.126-1.531 319.119-166.482 319.119-273.915 0 0 65.116 105.728 87.616 103.003 10.492-1.262 24.258-57.888-18.26-194.727"/><path fill="#FFF" d="M341.127 283.731c-30.24 1.357-56.076-33.092-57.697-76.886-1.647-43.832 21.518-80.456 51.763-81.829 30.214-1.347 56.05 33.091 57.682 76.902 1.653 43.832-21.517 80.445-51.748 81.813M557.503 206.839c-1.621 43.8-27.458 78.254-57.698 76.892-30.224-1.362-53.41-37.981-51.757-81.813 1.642-43.805 27.479-78.249 57.687-76.907 30.246 1.372 53.405 38.007 51.768 81.828"/><path fill="#FBAD29" d="M611.241 345.584c-8.068-17.905-89.469-37.854-190.232-37.854h-1.088c-100.759 0-182.154 19.949-190.238 37.854a5.842 5.842 0 0 0-.597 2.55c0 1.294.438 2.445 1.114 3.438 6.812 9.932 97.184 58.992 189.721 58.992h1.088c92.521 0 182.914-49.06 189.721-58.992.676-.987 1.104-2.16 1.104-3.443a5.71 5.71 0 0 0-.593-2.545"/><path d="M378.306 207.483c1.395 17.298-8.1 32.669-21.163 34.354-13.085 1.679-24.802-10.983-26.195-28.297-1.357-17.319 8.11-32.696 21.163-34.349 13.1-1.7 24.828 10.984 26.195 28.292"/><path fill-rule="evenodd" d="M461.402 213.265c2.672-4.784 20.878-29.971 58.563-20.799 9.906 2.413 14.484 5.951 15.45 7.35 1.432 2.06 1.816 4.985.364 8.939-2.861 7.815-8.775 7.599-12.049 6.067-2.123-.993-28.371-18.465-52.545 7.619-1.679 1.806-4.646 2.418-7.471.285-2.808-2.142-3.975-6.461-2.312-9.461" clip-rule="evenodd"/><path fill="#FFF" d="M420.998 577.389h-1.057c-69.478.851-153.709-8.364-235.289-24.453-6.986 40.447-11.199 91.265-7.577 151.893 9.15 153.187 100.125 249.479 240.564 250.877h5.703c140.429-1.398 231.413-97.69 240.564-250.877 3.611-60.633-.597-111.451-7.583-151.893-81.585 16.088-165.837 25.303-235.325 24.453"/><path fill="#EE3137" d="M223.103 564.573v150.752s69.061 13.936 138.259 4.288v-139.05c-43.837-2.488-91.112-8.016-138.259-15.99"/><path fill="#EE3137" d="M733.479 419.852s-134.336 42.411-312.477 43.62h-1.062c-177.86-1.209-312.038-43.478-312.497-43.62L62.466 532.147c112.527 33.937 252.012 55.797 357.475 54.529h1.057c105.458 1.277 244.921-20.593 357.47-54.529l-44.989-112.295z"/></svg>