<?xml version="1.0" encoding="UTF-8"?>
<svg id="_레이어_1" data-name="레이어 1" xmlns="http://www.w3.org/2000/svg" viewBox="0 0 284.429 228.8">
  <defs>
    <style>
      .cls-1 {
        fill: #e30612;
      }

      .cls-1, .cls-2 {
        stroke-width: 0px;
      }

      .cls-2 {
        fill: #032081;
      }
    </style>
  </defs>
  <path class="cls-2" d="M190.986,194.068c-6.232,7.794-14.625,12.856-23.168,17.465-61.965,33.433-138.64,3.564-161.793-62.883C-16.235,84.766,25.566,13.595,92.222,1.891c63.233-11.104,120.307,27.68,132.973,90.637,2.88,14.318,2.353,28.797-.622,43.129-.227,1.095-.905,2.096-1.373,3.139-3.318-1.631-6.635-3.259-9.953-4.887-3.953-2.367-7.981-4.619-11.829-7.146-2.249-1.477-3.173-.419-4.214,1.382-9.427,16.327-18.834,32.666-28.4,48.911-1.487,2.525-.494,3.47,1.511,4.566,4.05,2.214,8.045,4.527,12.063,6.8,2.869,1.882,5.739,3.765,8.608,5.647ZM174.466,111.108c2.373-31.296-17.232-59.826-46.735-68.949-30.154-9.324-62.578,3.449-78.626,30.975-15.268,26.187-9.958,60.76,12.686,81.706,22.904,21.187,56.071,22.719,77.783,9.495-1.923-1.178-3.716-2.339-5.567-3.398-15.85-9.074-31.71-18.131-47.569-27.191-1.852-1.058-3.818-1.588-1.978-4.7,9.718-16.437,19.215-33.004,28.681-49.589,1.207-2.115,2.185-2.332,4.203-1.096,4.525,2.772,9.195,5.308,13.803,7.946,14.239,8.15,28.476,16.303,43.32,24.801Z"/>
  <path class="cls-1" d="M213.246,133.907c3.318,1.628,6.635,3.256,9.953,4.887q7.713,4.85,2.929,13.02c-7.717,13.27-15.433,26.542-23.08,39.852-3.641,6.337-3.564,6.368-9.739,3.238-.728-.369-1.546-.562-2.322-.837-2.869-1.883-5.739-3.765-8.608-5.647.51-1.209.899-2.487,1.547-3.616,9.754-16.977,19.541-33.935,29.321-50.897Z"/>
  <path class="cls-1" d="M226.144,213.775c-3.117-1.857-6.364-3.552-9.3-5.677-.985-.713.286-2.103.853-3.082,9.395-16.228,18.834-32.431,28.15-48.705,1.435-2.507,2.51-3.019,5.25-1.425,7.604,4.424,7.652,4.221,3.091,12.052-8.521,14.63-16.967,29.303-25.472,43.943-.627,1.08-.889,2.56-2.572,2.894Z"/>
  <path class="cls-1" d="M281.948,172.847c2.206.777,3.315,1.598,1.746,4.223-6.367,10.655-12.494,21.453-18.721,32.192-3.406,5.875-6.852,11.726-10.238,17.613-.789,1.371-1.346,2.689-3.334,1.398-1.851-1.202-1.16-2.271-.337-3.686,9.572-16.452,19.09-32.936,28.646-49.397.549-.945.833-2.238,2.239-2.343Z"/>
</svg>