<?xml version="1.0" encoding="UTF-8"?>
<svg id="_레이어_1" data-name="레이어 1" xmlns="http://www.w3.org/2000/svg" version="1.1" viewBox="0 0 397.9 317.7">
  <defs>
    <style>
      .cls-1 {
        fill: #fff;
        fill-rule: evenodd;
        stroke-width: 0px;
      }
    </style>
  </defs>
  <path class="cls-1" d="M158.4,254.1l24.5-29.5h-20.1l-17.2,21.9v-42.7h-14.7v83.7h14.7v-25.8l21.1,25.8h20l-28.5-33.4ZM271.2,274.1c1.9,0,3.5-.7,4.8-1.5l9.4,12.5c-4.5,2.7-10,4-14,4-10.7,0-21.3-8.4-21.3-22.4v-27.1h-7.6v-14.9h7.6v-15.7h14.3v15.7h12.2v14.9h-12.2v26.9c0,5.9,4.4,7.7,6.7,7.7ZM25.1,223.9h9.8c6.7,0,12.2,5.4,12.2,12.2s-5.5,12.2-12.2,12.2h-9.8v-24.3ZM25.1,287.5v-24.3h10.6l18.3,24.3h18.7l-22.1-29.4c6.9-4.9,11.4-13,11.4-22.1,0-14.9-12.2-27.1-27.2-27.1H10.2v78.5h15ZM356.4,250.5v36.9h-14.3v-62.8h14.3v2.3s5.1-3.9,12.2-3.9c15.2,0,25.6,12.3,25.6,27.5v36.9h-14.3v-36.9c0-6.9-4.8-12.8-11.7-12.8s-11.7,5.8-11.7,12.8ZM95,273.9c-8,0-13.9-7.9-13.9-17.8s5.9-17.8,13.9-17.8,13.7,7.9,13.7,17.8-5.7,17.8-13.7,17.8ZM108.5,224.6v2.8c-4.3-2.7-8.2-4.3-13.5-4.3-16.3,0-28.6,14.8-28.6,33s12.4,33,28.6,33,9.2-1.6,13.5-4.3v2.8h14.3v-62.8h-14.3ZM223.1,224.6v36.9c0,6.9-4.8,12.8-11.7,12.8s-11.7-5.8-11.7-12.8v-36.9h-14.3v36.9c0,15.1,10.4,27.5,25.6,27.5s12.2-3.9,12.2-3.9v2.3h14.3v-62.8h-14.3ZM321.5,247.9h-25.8c3-14.7,23-15.6,25.8,0ZM280.6,256c0-18.5,11.9-33,28.4-33s30.9,14.8,27.4,37.4h-41.2c1.9,14.3,18.2,21.6,27.9,7.3l12.6,7.3c-8.1,11.5-17.8,14.1-25.3,14.1-14.9,0-29.9-13.6-29.9-33Z"/>
  <path class="cls-1" d="M319.3,299.2H87l18.5,18.4,213.8-18.4Z"/>
  <path class="cls-1" d="M158.4,60.1v116.7c0,2,1.6,3.5,3.5,3.5h33.6c2,0,3.5-1.6,3.5-3.5V60.1c0-2-1.6-3.5-3.5-3.5h-33.6c-2,0-3.5,1.6-3.5,3.5ZM162,38.8c4.5,4.4,10.1,6.6,16.8,6.6s12.3-2.2,16.8-6.6c4.5-4.4,6.7-9.8,6.7-16.1s-2.2-11.7-6.7-16.1c-4.5-4.4-10.1-6.6-16.8-6.6s-12.3,2.2-16.8,6.6c-4.5,4.4-6.7,9.8-6.7,16.1s2.2,11.7,6.7,16.1ZM97.9,177L143.9,31.3c.5-1.7-.7-3.3-2.5-3.3h-34.5c-2,0-3.8,1.4-4.3,3.3l-28.6,104.6c-.3.9-1.6.9-1.9,0L43.6,31.3c-.5-2-2.3-3.3-4.3-3.3H2.6c-1.7,0-3,1.7-2.5,3.3l46,145.7c.6,2,2.5,3.4,4.6,3.4h42.5c2.1,0,4-1.4,4.6-3.4ZM218.4,176.8V14.3c0-1.9,1.6-3.5,3.5-3.5h33.6c2,0,3.5,1.6,3.5,3.5v85.2c0,1.1,1.4,1.5,2.1.6l27.4-40.6c1.2-1.8,3.3-2.9,5.5-2.9h40.1c1.5,0,2.3,1.7,1.4,2.8l-39.8,51.5c-1.2,1.6-1.2,3.8,0,5.5l46.8,61.1c.9,1.2,0,2.8-1.4,2.8h-43c-2.2,0-4.2-1.1-5.5-2.8l-31.4-44c-.6-.9-2-.4-2,.7v42.6c0,2-1.6,3.5-3.5,3.5h-33.6c-2,0-3.5-1.6-3.5-3.5ZM354,60.1v116.7c0,2,1.6,3.5,3.6,3.5h33.6c2,0,3.5-1.6,3.5-3.5V60.1c0-2-1.6-3.5-3.5-3.5h-33.6c-2,0-3.6,1.6-3.6,3.5ZM357.6,38.8c4.5,4.4,10.1,6.6,16.8,6.6s12.3-2.2,16.8-6.6c4.5-4.4,6.7-9.8,6.7-16.1s-2.2-11.7-6.7-16.1c-4.5-4.4-10.1-6.6-16.8-6.6s-12.3,2.2-16.8,6.6c-4.5,4.4-6.7,9.8-6.7,16.1s2.2,11.7,6.7,16.1Z"/>
</svg>