<?xml version="1.0" encoding="UTF-8"?>
<svg id="_레이어_1" data-name="레이어 1" xmlns="http://www.w3.org/2000/svg" viewBox="0 0 406.238 612.727">
  <defs>
    <style>
      .cls-1 {
        fill: #fff;
        stroke-width: 0px;
      }
    </style>
  </defs>
  <path class="cls-1" d="M247.463,198.134c29.683,39.506,59.221,78.821,89.054,118.528-1.125,0-1.806,0-2.487,0-23.505,0-47.011-.019-70.516.04-1.691.004-2.737-.467-3.76-1.835-20.525-27.443-41.101-54.848-61.666-82.261-3.165-4.218-6.374-8.405-9.469-12.674-.846-1.167-1.744-1.543-3.169-1.536-12.792.061-25.584.035-38.376.036-2.43,0-2.155-.134-2.156,2.217-.003,31.021.002,62.041-.008,93.062-.001,3.35.432,2.942-2.906,2.944-18.229.012-36.457.011-54.686,0-2.579-.001-2.631.498-2.631-2.532.003-103.855.003-207.709.003-311.564,0-.16-.002-.32,0-.48.027-2.053.027-2.07,2.126-2.071,16.15-.005,32.3-.003,48.45-.003,16.31,0,32.62.035,48.929-.007,43.727-.11,82.936,26.207,100.146,65.618,4.182,9.577,7.169,19.534,8.194,29.907,4.117,41.663-10.497,75.42-43.356,101.315-.499.394-1.015.766-1.716,1.293ZM144.916,108.812c0,15.748-.002,31.497.003,47.245,0,2.107.017,2.13,2.029,2.131,12.471.007,24.941.01,37.412.001,8.483-.006,16.396-2.149,23.816-6.26,28.84-15.979,33.75-56.1,9.569-78.47-9.567-8.85-20.885-13.311-33.925-13.333-12.151-.021-24.302-.004-36.453-.004-.48,0-.96.018-1.439,0-.681-.025-1.044.237-1.012.966.025.558,0,1.119,0,1.678,0,15.349,0,30.697,0,46.046Z"/>
  <path class="cls-1" d="M224.22,556.402c-.668.072-.707.759-.955,1.193-6.415,11.222-16.095,18.198-28.642,20.534-22.089,4.113-39.887-3.499-53.374-21.227-7.266-9.55-11.23-20.531-12.679-32.41-1.466-12.021-1.062-23.965,2.499-35.601,5.099-16.663,14.571-30.101,30.605-37.751,15.133-7.219,30.541-7.432,45.565.72,6.818,3.699,12.138,9.037,15.921,15.853.231.416.488.818.741,1.222.04.064.123.101.197.159.714-.147.406-.755.453-1.144.693-5.71,1.345-11.426,2.031-17.137.229-1.909.26-1.929,2.205-1.932,7.515-.01,15.03-.01,22.544,0,2.021.003,2.037.025,2.038,2.143.006,11.432.003,22.864.003,34.296,0,29.499.004,58.999-.006,88.498-.001,3.006.407,2.634-2.698,2.642-7.275.018-14.55.011-21.825.003-2.045-.002-2.054-.02-2.297-2.098-.679-5.792-1.348-11.586-2.028-17.378-.024-.206.063-.482-.297-.586ZM222.82,512.904c.066-8.48-1.499-16.451-5.93-23.69-7.862-12.845-20.622-16.933-33.554-13.596-8.722,2.251-14.61,8.175-18.763,15.948-2.868,5.369-4.183,11.171-4.562,17.21-.549,8.745.37,17.258,4.589,25.095,6.799,12.628,17.942,18.54,32.183,16.365,8.911-1.361,15.442-6.53,20.123-14.091,4.424-7.145,5.974-15.049,5.914-23.243Z"/>
  <path class="cls-1" d="M.011,497.32c0-25.504-.003-51.008.004-76.512,0-2.777-.374-2.609,2.527-2.61,17.029-.003,34.059-.035,51.088.012,9.641.027,19.125,1.199,28.214,4.605,12.064,4.521,21.871,11.794,27.999,23.418,2.827,5.363,4.468,11.124,5.1,17.124.774,7.343.667,14.67-.982,21.933-3.066,13.504-10.906,23.41-22.706,30.348-7.11,4.181-14.855,6.56-22.956,7.885-5.064.828-10.167,1.087-15.288,1.088-6.156.001-12.312-.005-18.468.003-2.564.003-2.484-.332-2.483,2.43.002,14.871.001,29.741.001,44.612,0,1.119-.069,2.244.018,3.356.094,1.202-.431,1.509-1.537,1.484-2.477-.057-4.956-.018-7.435-.018-6.956,0-13.911,0-20.867,0-2.442,0-2.226.144-2.227-2.165-.002-10.393,0-20.787,0-31.18,0-15.27,0-30.541,0-45.811ZM32.06,471.438c0,7.826-.007,15.651.006,23.477.003,1.686.035,1.718,1.688,1.719,6.468.003,12.938.081,19.404-.058,5.124-.111,10.158-.969,14.968-2.828,6.209-2.4,11.204-6.144,13.359-12.757,1.743-5.348,1.873-10.794.733-16.31-1.417-6.853-5.388-11.568-11.653-14.519-5.288-2.491-10.889-3.663-16.671-3.814-6.624-.173-13.254-.065-19.882-.085-2.1-.006-1.951-.068-1.951,1.938,0,7.746,0,15.492,0,23.238Z"/>
  <path class="cls-1" d="M271.541,449.269c.731-.507,1.388-.305,1.995-.306,10.552-.016,21.105.027,31.657-.052,1.608-.012,2.373.461,3.012,1.953,7.413,17.312,14.905,34.59,22.372,51.879,3.037,7.032,6.064,14.069,9.091,21.105.159.37.301.741.801,1.082,1.496-3.421,2.991-6.807,4.458-10.204,9.208-21.317,18.414-42.635,27.598-63.962.465-1.081.812-1.865,2.31-1.853,10.152.082,20.305.043,30.457.049.227,0,.454.07.946.151-1.055,2.211-2.053,4.337-3.08,6.449-17.233,35.462-34.473,70.92-51.703,106.383-7.952,16.366-15.889,32.74-23.822,49.115-.47.97-.895,1.677-2.244,1.668-10.15-.068-20.301-.037-30.556-.037.029-1.247.758-2.139,1.24-3.093,8.717-17.238,17.446-34.469,26.229-51.674.651-1.275.665-2.248.04-3.536-16.547-34.11-33.051-68.24-49.558-102.369-.439-.907-.831-1.835-1.244-2.749Z"/>
  <path class="cls-1" d="M32.094,349.964h368.022l.013.186c-5.048.703-10.096,1.398-15.143,2.109-8.695,1.226-17.386,2.476-26.082,3.689-8.539,1.191-17.084,2.334-25.622,3.526-8.698,1.215-17.388,2.48-26.086,3.693-8.461,1.181-16.93,2.308-25.392,3.488-11.071,1.543-22.137,3.121-33.207,4.67-9.412,1.316-18.827,2.608-28.239,3.918-9.807,1.365-19.612,2.746-29.42,4.108-11.153,1.548-22.309,3.067-33.46,4.625-9.489,1.325-18.972,2.698-28.46,4.031-8.617,1.21-17.239,2.392-25.857,3.592-5.14.716-10.289,1.373-15.411,2.201-2.029.328-3.553.008-5.207-1.391-16.16-13.678-32.405-27.256-48.625-40.864-.524-.44-1.034-.897-1.822-1.581Z"/>
</svg>