<?xml version="1.0" encoding="utf-8"?>
<!-- Generator: Adobe Illustrator 28.1.0, SVG Export Plug-In . SVG Version: 6.00 Build 0)  -->
<svg version="1.1" id="Layer_1" xmlns="http://www.w3.org/2000/svg" xmlns:xlink="http://www.w3.org/1999/xlink" x="0px" y="0px"
	 viewBox="0 0 204.4 179.2" style="enable-background:new 0 0 204.4 179.2;" xml:space="preserve">
<style type="text/css">
	.st0{fill:#FFFFFF;}
</style>
<path class="st0" d="M128.5,26.2c2.2,9.4,10.7,16.4,20.8,16.4c11.8,0,21.3-9.6,21.3-21.3S161,0,149.3,0c-10.3,0-18.9,7.3-20.9,17
	c-17.2,1.8-30.7,16.5-30.7,34.2c0,0,0,0.1,0,0.1c-18.8,0.8-35.9,6.1-49.5,14.6c-5.1-3.9-11.4-6.2-18.3-6.2C13.4,59.7,0,73,0,89.5
	c0,12,7,22.3,17.2,27.1c1,34.7,38.8,62.6,85.3,62.6s84.4-27.9,85.3-62.7c10.1-4.8,17.1-15.1,17.1-27c0-16.5-13.4-29.9-29.9-29.9
	c-6.9,0-13.2,2.3-18.2,6.2c-13.7-8.5-31-13.8-50-14.5c0,0,0-0.1,0-0.1C106.8,38.5,116.3,28,128.5,26.2L128.5,26.2z M47,108.5
	c0.5-10.8,7.7-19.2,16.1-19.2s14.8,8.8,14.3,19.6c-0.5,10.8-6.8,14.8-15.1,14.8S46.5,119.4,47,108.5z M142,89.4
	c8.4,0,15.6,8.3,16.1,19.2c0.5,10.8-6.8,15.2-15.2,15.2s-14.6-3.9-15.1-14.8C127.3,98.1,133.6,89.4,142,89.4z M132.1,133.6
	c1.6,0.2,2.6,1.8,2,3.2c-5.1,12.3-17.3,21-31.5,21s-26.3-8.6-31.5-21c-0.6-1.5,0.4-3.1,2-3.2c9.2-0.9,19.2-1.4,29.5-1.4
	S122.9,132.7,132.1,133.6L132.1,133.6z"/>
</svg>
