<?xml version="1.0" encoding="utf-8"?>
<!-- Generator: Adobe Illustrator 28.1.0, SVG Export Plug-In . SVG Version: 6.00 Build 0)  -->
<svg version="1.1" id="레이어_1" xmlns="http://www.w3.org/2000/svg" xmlns:xlink="http://www.w3.org/1999/xlink" x="0px"
	 y="0px" viewBox="0 0 154.9 154.9" style="enable-background:new 0 0 154.9 154.9;" xml:space="preserve">
<style type="text/css">
	.st0{fill:#FFFFFF;}
</style>
<path class="st0" d="M142.4,100.2h-17.9l-3.1-19.5L109.9,100H91.8l11,11.6l-9,19.5l19.8-11.8l15.5,12l-2.9-19.7"/>
<path d="M154.9,96.3h-27.1l-4.3-27l-15.8,26.8h-3c-1.8-3.1-2.5-7.6-2.5-10.4c0-4.6,0.3-9.1,0.3-15c0-7.8-2.3-11.9-8.4-13.4v-0.2
	c12.9-1.8,18.8-10.4,18.8-22.4c0-17.1-11.4-20.8-26.3-20.8H46.5l-17,80.4h21.3L57,65h14.2c7.6,0,10.7,3.7,10.7,10.8
	c0,5.4-0.6,9.7-0.6,13.8c0,1.5,0.3,5.1,1.4,6.5l15.4,16.3l-13.3,28.5l28.4-16.9l21.2,16.3l-3.9-26.9L154.9,96.3L154.9,96.3z
	 M77.6,50h-17l4.1-19.4h15.8c5.6,0,11.5,1.5,11.5,8.3C92,47.6,85.3,50,77.6,50 M113.6,119.3l-19.8,11.8l9.1-19.4l-11-11.6H110
	l11.4-19.3l3.1,19.5h18l-16.2,11.3l2.9,19.8L113.6,119.3L113.6,119.3z"/>
</svg>
