<?xml version="1.0" encoding="utf-8"?>
<!-- Generator: Adobe Illustrator 28.2.0, SVG Export Plug-In . SVG Version: 6.00 Build 0)  -->
<svg version="1.1" id="레이어_1" xmlns="http://www.w3.org/2000/svg" xmlns:xlink="http://www.w3.org/1999/xlink" x="0px"
	 y="0px" viewBox="0 0 32 31" style="enable-background:new 0 0 32 31;" xml:space="preserve">
<style type="text/css">
	.st0{fill:#FFFFFF;}
</style>
<path class="st0" d="M29.7,16.5c0-0.1,0-0.2-0.1-0.2c-0.4-1.4-2.1-3.1-4.7-3.6c-0.7-0.1-1.7,0-2.3,0.5c-0.2-0.1-0.3-0.1-0.5-0.1
	c0.1-0.1,0.2-0.2,0.4-0.3c0.3-0.2,0.8-0.5,1-0.6c0,0,0.2-0.1,0.3-0.1c0-0.1,0-0.2-0.5-0.5c-0.4-0.2-1.3-0.2-1.3-0.2
	c-1.3,0-2,0.6-2,0.6s0,0.1,0,0.2c0,0,0.2,0.1,0.2,0.1c0.3,0.1,1.3,0.5,1.6,0.7c0,0-0.5,0.1-0.8,0.3l-1.4-0.4c-0.2,0-0.1-0.1-0.1-0.1
	l0.5-0.4c-0.1,0-0.1-0.1-0.1-0.1c0,0,0-0.2,0.1-0.3c0.1-0.1,0.6-0.3,0.8-0.4c0.3-0.1,0.9-0.2,0.9-0.2c0-0.1,0.1-0.1,0.1-0.2
	c0-0.1,0-0.1,0-0.1l-0.1-0.1c0,0,0,0,0,0c0,0,0.4,0,0.6,0c0-0.1-0.1-0.1-0.1-0.2c0,0,0-0.1,0.1-0.2l0.7-0.7c0,0,0-0.1,0-0.1L23,9.4
	l0.9,0.4c0-0.1,0-0.2,0.1-0.3L22.7,9l-0.1-0.1c0,0-0.1-0.1-0.1-0.1c0,0-0.1-0.1-0.2-0.1l-1.3-0.4c0,0-0.1,0-0.1,0
	c-0.1,0-0.1,0-0.2,0c-0.2-0.1-0.4-0.2-0.6-0.2c0,0.1,0,0.2-0.1,0.2l0.2,0.1l0.1,0.1l0,0.1c0,0,0,0,0,0c0,0-0.1,0.1-0.1,0.1l-0.1-0.1
	C20.1,8.5,20,8.5,20,8.5s0.1-0.3,0.2-0.4C20.1,8,20.1,8,20.1,8c0,0-0.7-0.4-0.8-0.5c-0.2-0.1-0.4-0.1-0.7-0.2
	c-0.2,0-0.2,0.1-0.2,0.1s0,0.1-0.1,0.3c0,0,0,0.1,0.1,0.2c0.1,0,0.3,0.1,0.4,0.1l-0.1,0.2c-2.2-0.8-4.6-0.9-4.6-0.9
	c-0.1,0-0.3,0-0.9,0.2c-0.6,0.2-1,0.4-1.3,0.4c-0.2,0-0.7,0-1,0c-0.1-0.2-1.5-0.7-2-0.9c-0.2-0.1-0.2,0-0.3,0c0,0-0.1,0.1-0.1,0.2
	l0,0.1c0.1,0.1,0.1,0.2,0.1,0.2c0,0,0,0,0,0C8.3,7.6,8,7.5,7.7,7.4C8.5,6.4,9,5.3,9,4c0-1-0.3-1.9-0.8-2.8c2.2-0.4,4.8-0.7,8-0.7
	c9.2,0,13.8,2.4,15.7,3.7C32.1,6.1,32.3,10.4,29.7,16.5z M22.2,10.9c-0.1,0-0.3,0-0.4,0l0.1,0.1c0,0,0,0,0,0.1l-0.1,0.2
	c0.1,0,0.2,0,0.3,0c0,0,0.1,0,0.2,0C22.5,10.9,22.2,10.9,22.2,10.9z M25.6,9.7c0,0-0.4-0.1-0.7-0.1c-0.3,0-0.5,0-0.8,0
	c0,0.1,0,0.2,0,0.3c0,0,0,0.1,0.1,0.1l0.2,0c0,0,0.1,0,0.1,0c0,0,0.3,0.1,0.5,0.2c0,0,0.2,0.1,0.3,0c0.1-0.1,0.3-0.4,0.4-0.5
	C25.7,9.7,25.6,9.7,25.6,9.7z M5.9,18.9c-0.8,0-1.7,0.3-1.2,1.2c4.6,7.9,9.5,9.8,11.6,10.8c0.9-0.5,2.4-1.1,4.3-2.4
	c1-0.7,1-1.7,0.7-2.5C19.8,22.8,12.7,19.2,5.9,18.9z M20.6,13.6l-0.4-0.1l-0.9,1l0.6,0.2C20.1,14.2,20.6,13.6,20.6,13.6L20.6,13.6z
	 M19.2,13l-1,1l0.8,0.2l0.8-0.9l-0.5-0.2C19.2,13.1,19.2,13,19.2,13z M13.6,14.6l-0.4-0.9l-0.1,0l-0.6,0.8
	C12.9,14.8,13.6,14.6,13.6,14.6z M18.3,8.5c-0.2,0-0.5-0.1-0.7-0.1c-0.5-0.1-1-0.1-1.5-0.1c-0.1,0-0.1,0-0.2,0.1
	c0,0-0.4,0.2-0.7,0.4c-0.3,0.2-0.5,0.3-0.5,0.4c0,0,0,0.1,0.1,0.2c0.2,0.2,0.4,0.3,0.6,0.5c0,0,0.2,0.2,0.6,0.2
	c0.4,0,0.8-0.1,1.2-0.1c0.2,0,0.4,0,0.7,0L18,9.8c0,0,0.1-0.1,0.1-0.1c0.2,0,0.5,0,0.6,0c-0.2-0.5-0.4-1.2-0.4-1.2
	C18.4,8.5,18.3,8.5,18.3,8.5z M15.5,8c-0.7-0.4-1.6-0.5-1.6-0.5c-0.7,0.2-1.2,0.4-1.7,0.6c0,0,0,0,0,0l0,0c0,0,0,0,0,0l-0.2,0.1
	c0,0-0.1,0,0,0C12,8.4,12.5,8.6,13,8.9c0.1,0.1,0.4,0.1,0.5,0c0.1,0,0.1-0.1,0.2-0.1c0,0,0,0,0.1,0L14,8.9c0,0,0.1,0,0.1,0
	c0.2-0.1,0.9-0.5,1.3-0.7C15.5,8.1,15.6,8.1,15.5,8z M16.4,10.7L15.3,11c0,0,0.6,0.6,1,1.4c-0.1-0.4-0.2-0.8-0.3-1
	c0-0.1,0-0.1,0-0.1l0.6-0.3c0.1,0,0.1,0,0.2,0c0,0,1.3,0.1,3.3,0.2l-3.4-0.5C16.5,10.6,16.5,10.7,16.4,10.7z M8.8,7.8
	C9,7.8,9.3,7.9,9.5,8c0,0,0.2,0.1,0.5,0c0,0,0.4,0,0.6,0c-0.3-0.3-1.7-0.7-1.7-0.7S8.8,7.6,8.8,7.8z M26.6,17.9
	c-1.3,0-2.6-0.5-3.5-1.6l0,0c-0.5,0.7-1.2,0.8-1.4,0.7c-0.2,0-1.1-0.4-1.4-0.8c-0.3-0.4-0.3-1.1-0.3-1.1L19.1,15
	c-0.4-0.1-0.7-0.3-1-0.5L17,13.9c-0.5,0.3-1.2,0.1-1.8-0.4c-0.1,0.2-0.4,0.9-0.7,1.2c-0.4,0.3-1.1,0.8-1.7,0.7
	c-0.6,0-1.8-0.6-2.2-1.5c-0.4-0.9,0-1.8,0-1.8l-0.4-0.1C10,12,9.8,12,9.7,11.9c0,0-0.7,0.6-1.6,0.4c-0.8-0.2-1.5-0.9-1.7-1.5
	c-0.1-0.4-0.1-0.8,0.1-1.2c0,0-0.1,0-0.1-0.1c0-0.1,0-0.9,0-0.9C5.6,8.9,4.6,9.1,3.7,9.1C3.5,9.1,3.2,9.1,3,9C2.9,9,2.8,9,2.7,9
	C2,8.8,1.2,8.4,0.6,8c0.1,1.4,0.5,3.4,1,5.2c0.7,2.5,2.9,3.3,6.3,3.8c7.4,1.2,14.6,6.9,14.1,10.4c1.8-1.6,3.9-3.9,5.8-7.3
	C28.6,18.8,27.8,17.9,26.6,17.9z M19.3,9.1l-0.2,0.1c0,0-0.1,0.1,0,0.2l0.1,0.4c0.7,0.1,1.1,0.3,1.2,0.4c0,0,0.1,0.1,0,0
	C19.9,9.2,19.3,9.1,19.3,9.1z M20.8,9.4c0,0,0.4,0.4,0.8,0.7c0,0,0,0,0,0c0,0,0.3,0,0.3,0c0,0,0,0,0,0c0,0,0.3-0.3,0.6-0.5
	c0.1-0.1,0.1-0.1,0.2-0.2c0,0,0,0,0,0l0.1-0.1l-0.3-0.1l-0.2-0.1c-0.1,0-0.2-0.1-0.2-0.2c0,0-0.1-0.1-0.1-0.1l-1-0.4
	c0,0-0.1,0-0.1,0c-0.1,0-0.2,0-0.2,0l0,0.1c0,0,0,0,0,0l-0.1,0.1c0.1,0.1,0.2,0.1,0.2,0.2c0.2,0.1,0.1,0.3,0.1,0.3L20.8,9.4z
	 M10.6,9.7c0.1,0,0.1,0,0.2,0c0,0-0.1-0.1-0.2-0.1c-0.1,0-0.1,0-0.2,0c-0.2,0.1-0.4,0.5-0.3,0.8c0,0.3,0.1,0.3,0.2,0.3
	c0,0,0,0,0.1,0l0.1,0l-0.1,0c-0.1,0-0.1-0.1-0.2-0.2c-0.1-0.2,0-0.5,0.2-0.7C10.4,9.8,10.5,9.7,10.6,9.7z M12.4,12.8
	c-0.4,0.8-0.1,1.3-0.1,1.3l0.6-0.8l0-0.1L12.4,12.8L12.4,12.8z M21.8,16.4c0.3,0.2,0.6,0,0.6,0l-0.3-0.8l-0.1,0L21.8,16.4L21.8,16.4
	z M22.1,14.7l0.1,0.2l0.1,0l0.5-0.6l0,0C22.5,14.1,22.1,14.7,22.1,14.7z M28.5,17.1c-0.2-2.4-3.7-4.8-5.6-3.9c0.1,0,0.1,0.1,0.2,0.1
	c0.4,0.2,0.5,0.4,0.6,0.9c0.1,0.4,0,1-0.4,1.6C25.1,17.1,27.5,16.2,28.5,17.1z M21.7,16.1l0.3-0.7l0-0.1c0,0-0.1-0.1-0.1-0.3
	C21.6,15.6,21.7,16.1,21.7,16.1z M22.5,15.5l0.2,0.8c0.1-0.1,0.3-0.3,0.4-0.4c0.2-0.3,0.2-0.5,0.2-0.5L22.5,15.5L22.5,15.5z
	 M13.6,13.5l0.3,1c0.6-0.5,0.8-1.1,0.8-1.1l-1,0.1L13.6,13.5L13.6,13.5z M12.7,12.4l0.5,0.3l0.1-0.1l0.6-0.9
	C13.2,11.8,12.7,12.4,12.7,12.4z M14.2,12l-0.5,0.8l0.1,0.1l1,0C14.7,12.3,14.2,12,14.2,12z M22.6,14.9L22.6,14.9l0.7,0.1
	c0.1-0.3,0-0.6-0.2-0.8L22.6,14.9L22.6,14.9z M7.2,7.2C6.9,7.6,6.7,8.3,6.7,8.3s0,0.8,0,0.9c0,0.1,0.1,0.1,0.1,0.1l-0.1,0.7l0.2,0
	c0,0,0.1,0,0.1-0.1l0.1-1.5C7.1,8.4,7,8.4,6.9,8.3C7,7.7,7.4,7.3,7.4,7.3L7.2,7.2z M7.8,7.8l1.3,0.4c0,0-0.6,0.1-0.9,0.2
	C8.1,8.3,8,8.4,8,8.5c0,0.1-0.1,0.2-0.1,0.3c0.4,0.2,0.7,0.4,1,0.7c0.5,0.4,0.6,0.8,0.7,0.9c0,0,0,0,0,0c0,0,0,0,0,0
	c0.1-0.1,0.2-0.1,0.3-0.1c0,0-0.1,0.6,0.2,0.7l0.3,0.1c0,0,0.1,0,0.1,0c0,0,0.4-0.2,0.5-0.4c0.1-0.2,0.1-0.4,0-0.6
	c1-0.1,1.9,0,1.9,0c0-0.1-0.1-0.1-0.1-0.2c0,0-0.4-0.1-1.4-0.4c0,0,0.8,0,1.6,0.3c0.1,0.1,0.3,0.2,0.3,0.3c0,0,0.2,0.4,0.5,0.4
	c0.2,0,0.5,0.1,0.5,0.1s1.4,1.1,1.8,2.5l0.5,0.5l-1.4-0.4c0,0,0.2-1-0.5-1.8c-0.7-0.7-1.6-0.9-2.2-0.9c-0.6,0-1.3,0.6-1.6,1
	c-0.4,0-0.8-0.1-1.1-0.1c0,0-0.1,0-0.1,0c-0.2,0.3-0.4,0.3-0.4,0.3c0,0-0.1-0.1-0.1-0.1c-1.1,0.4-1.5-0.4-1.5-0.4l0-0.4
	c0-0.1,0.1-0.1,0.1-0.1l0.1,0l0.7,0.5c0,0,0.1,0,0,0c0,0,0-0.1,0-0.1c0-0.2,0.1-0.4,0.3-0.4c0.1,0,0.2,0,0.3,0c0,0,0.1,0,0,0
	C9.2,10.4,9,10,8.6,9.7C8.4,9.5,8.2,9.3,7.9,9.2c0,0-0.1-0.1-0.1,0.1l-0.1,1.2c0,0.1,0,0.1-0.1,0.1l-0.3,0l0.1-0.8l0,0
	C7.3,9.6,7.3,9.4,7.3,9.4c0-0.3,0-0.5,0-0.8C7.3,8.6,7.5,8.2,7.8,7.8z M9.3,10.7c-0.1-0.1-0.2-0.1-0.3-0.1c-0.1,0-0.2,0.2-0.2,0.4
	c0,0.1,0,0.1,0.1,0.2c0.1,0.1,0.2,0.1,0.2,0.1c0,0,0.1,0,0.1,0c0,0,0.2-0.1,0.3-0.2c0.1-0.1,0.1-0.2,0-0.3
	C9.5,10.8,9.4,10.7,9.3,10.7z M9,10.7c-0.1,0.1-0.1,0.2-0.1,0.4c0,0.1,0.1,0.1,0.2,0.1l0,0l0.1,0l-0.1,0c0,0-0.1,0-0.1,0
	C8.9,11,8.9,10.9,9,10.7C9,10.8,9,10.8,9,10.7c0.1,0,0.2,0,0.2,0C9.1,10.7,9.1,10.7,9,10.7C9,10.7,9,10.7,9,10.7z M3.8,7.7
	C6,7.7,7.7,6,7.7,3.8S6,0,3.8,0S0,1.7,0,3.8S1.7,7.7,3.8,7.7z"/>
</svg>
