<?xml version="1.0" encoding="utf-8"?>
<!-- Generator: Adobe Illustrator 28.1.0, SVG Export Plug-In . SVG Version: 6.00 Build 0)  -->
<svg version="1.1"
	 id="svg3390" xmlns:cc="http://creativecommons.org/ns#" xmlns:rdf="http://www.w3.org/1999/02/22-rdf-syntax-ns#" xmlns:dc="http://purl.org/dc/elements/1.1/"
	 xmlns="http://www.w3.org/2000/svg" xmlns:xlink="http://www.w3.org/1999/xlink" x="0px" y="0px" viewBox="0 0 130.1 134.6"
	 style="enable-background:new 0 0 130.1 134.6;" xml:space="preserve">
<style type="text/css">
	.st0{fill:#FFFFFF;}
</style>
<g id="layer1">
	<path id="path3412" class="st0" d="M16.6,37.5c-28.1,27.6-13.7,61-5.7,71.9c35.3,42,92.8,25.3,111.9-5.9c4.8-8.2,22.6-53.5-24-78
		L16.6,37.5z"/>
	<path id="path3471" class="st0" d="M36,36l4.8-8.9l28.4-5l11.1,9.2L36,36z"/>
</g>
<g id="layer2">
	<path id="path3437" class="st0" d="M35.9,5.3l9-5.3l6.8,15.5c3.8-6.3,13.8-16.3,24.9-4.7c-4.7,1.3-7.5,3.9-7.7,8.5
		c15.1-4.2,31.3,3.2,33.5,9.1c-11-4.3-27.7,10.4-41.8,2.3c0,15-12.6,16.6-19.9,17.1c2.1-5,5.6-10,1.5-15C34.5,41,28.3,43.5,9,37.5
		c4.9-1.7,14.8-11.4,24.4-11.4c-6.8-2.5-12.3-2.1-17.8-1.5c2.9-4,12.1-15.2,28.6-8.5L35.9,5.3z"/>
</g>
</svg>
