<?xml version="1.0" encoding="utf-8"?>
<!-- Generator: Adobe Illustrator 28.1.0, SVG Export Plug-In . SVG Version: 6.00 Build 0)  -->
<svg version="1.1"
	 id="svg5" xmlns:sodipodi="http://sodipodi.sourceforge.net/DTD/sodipodi-0.dtd" xmlns:svg="http://www.w3.org/2000/svg" xmlns:inkscape="http://www.inkscape.org/namespaces/inkscape" sodipodi:docname="Samsung Pay 2022.svg"
	 xmlns="http://www.w3.org/2000/svg" xmlns:xlink="http://www.w3.org/1999/xlink" x="0px" y="0px" viewBox="0 0 26.6 14.8"
	 style="enable-background:new 0 0 26.6 14.8;" xml:space="preserve">
<style type="text/css">
	.st0{fill:#FFFFFF;}
</style>
<g>
	<path class="st0" d="M2,7.7h1.7c0.6,0,1.1-0.1,1.6-0.3C5.7,7.2,6.1,7,6.5,6.6c0.3-0.3,0.6-0.8,0.8-1.2c0.2-0.5,0.3-1,0.3-1.5
		c0-0.5-0.1-1-0.3-1.5C7.1,1.9,6.8,1.5,6.5,1.2C6.1,0.8,5.7,0.5,5.3,0.3C4.8,0.1,4.3,0,3.7,0H0v10.8h2V7.7z M2,1.9h1.5
		c0.3,0,0.6,0.1,0.8,0.2C4.6,2.2,4.8,2.3,5,2.5c0.2,0.2,0.3,0.4,0.4,0.6c0.1,0.2,0.1,0.5,0.1,0.8c0,0.3,0,0.5-0.1,0.8
		C5.3,4.9,5.2,5.1,5,5.3C4.8,5.5,4.6,5.6,4.4,5.7C4.1,5.8,3.8,5.9,3.6,5.9H2V1.9z"/>
	<polygon class="st0" points="19.4,14.8 21.5,14.8 26.6,2.2 24.5,2.2 22.2,8.1 19.8,2.2 17.7,2.2 21.2,10.5 	"/>
	<path class="st0" d="M9.3,9.7c0.4,0.4,0.9,0.7,1.4,0.8c0.5,0.2,1,0.3,1.5,0.3c0.6,0,1.1-0.1,1.6-0.3c0.5-0.2,0.9-0.5,1.2-0.9v1.2h2
		V2.2h-2v1.1c-0.3-0.4-0.7-0.6-1.2-0.8c-0.5-0.2-1-0.3-1.6-0.3c-0.5,0-1.1,0.1-1.6,0.3c-0.5,0.2-1,0.5-1.4,0.8
		c-0.4,0.4-0.7,0.8-1,1.4C8.1,5.2,8,5.8,8,6.5c0,0.7,0.1,1.3,0.4,1.8C8.6,8.9,8.9,9.3,9.3,9.7z M10.1,5.5c0.1-0.3,0.3-0.6,0.6-0.8
		c0.2-0.2,0.5-0.4,0.8-0.5c0.3-0.1,0.7-0.2,1-0.2c0.4,0,0.7,0.1,1,0.2c0.3,0.1,0.6,0.3,0.8,0.5c0.2,0.2,0.4,0.5,0.5,0.8
		c0.1,0.3,0.2,0.6,0.2,1c0,0.4-0.1,0.7-0.2,1c-0.1,0.3-0.3,0.6-0.5,0.8c-0.2,0.2-0.5,0.4-0.8,0.5C13.3,9,12.9,9,12.6,9
		c-0.4,0-0.7-0.1-1-0.2c-0.3-0.1-0.6-0.3-0.8-0.5c-0.2-0.2-0.4-0.5-0.6-0.8c-0.1-0.3-0.2-0.6-0.2-1C9.9,6.1,10,5.8,10.1,5.5z"/>
</g>
</svg>
