<?xml version="1.0" encoding="utf-8"?>
<!-- Generator: Adobe Illustrator 28.1.0, SVG Export Plug-In . SVG Version: 6.00 Build 0)  -->
<svg version="1.1" id="_레이어_1" xmlns="http://www.w3.org/2000/svg" xmlns:xlink="http://www.w3.org/1999/xlink" x="0px"
	 y="0px" viewBox="0 0 357.5 383.9" style="enable-background:new 0 0 357.5 383.9;" xml:space="preserve">
<style type="text/css">
	.st0{fill:#01DF64;}
	.st1{fill:#011542;}
</style>
<path class="st0" d="M303.4,239.9c-5.4,4.2-11.6,7-17.5,10.4c-45.3,25.7-90.6,51.3-136,77c-1.6-1.7-3.8-1-5.7-1
	c-22.1-0.1-44.3,0.1-66.4-0.3c-12.3-0.2-22.8-6-30.8-14.6c-8.2-8.9-12.9-20-12.7-32.7c0.2-13.8,0-27.6,0-41.5c0-6,0.7-6.7,6.7-6.4
	c10,0.6,19.9,1.4,29.9,2.1c15.3,1.2,30.5,2.5,45.8,3.6c4,0.3,5.3,2,4.9,5.7c-0.1,1.2,0,2.3,0,3.5c0,8.4,2.4,10.7,11,11.2
	c12.5,0.7,24.9,1.8,37.3,2.6c13.4,0.9,26.9,1.8,40.4,2.4c6.1,0.3,8.3-1.9,8.3-7.8c0.1-7.3-0.1-14.7,0.1-22c0.1-4.9-2.3-6.9-6.9-7.3
	c-25.4-1.9-50.8-4-76.1-5.9c-28.2-2.1-56.4-4.1-84.6-6.3c-9.6-0.7-16.6-7.5-16.6-16.7c-0.1-31.1-0.1-62.3,0.2-93.4
	c0-5,0.9-9.9,3.2-14.7c10-20.9,26.5-30.7,49.4-30.6c19,0.1,38,0,57,0c1.9,0,4,0.6,5.8-0.9c2,1.3,4.2,0.9,6.3,0.9
	c32.6,0,65.3-0.1,97.9,0c23.4,0.1,42.2,14.8,47.7,37.1c1,4.2,1.5,8.5,1.5,12.9c0,12.2,0.1,24.3,0.1,36.5c-0.1,1.8,0.1,3.7-0.2,5.5
	c-0.5,3.3-2.5,6-5.9,5.5c-10.6-1.7-21.3-1.5-31.9-2.8c-12.9-1.5-25.9-1.9-38.8-3.1c-12.3-1.2-11,0.6-11.1-12.1
	c-0.1-6.7-2.6-9.3-9.3-9.7c-7.8-0.5-15.6-1.1-23.4-1.6c-18.6-1.2-37.2-2.4-55.8-3.4c-6.4-0.3-8.6,2.1-8.6,8.6c0,6,0,12,0,18
	c0,7.2,2.1,9.6,9.2,10.2c22.2,1.8,44.5,3.4,66.7,5.1c30.2,2.3,60.4,4.6,90.6,7c12.5,1,18.3,7.5,18.3,20.2
	C303.3,207.3,303.4,223.6,303.4,239.9L303.4,239.9z"/>
<path class="st1" d="M149.9,56.4c-1.7,1.5-3.8,0.8-5.8,0.9c-19,0-38,0.1-57,0C64.3,57.2,47.7,67,37.8,87.9
	c-2.3,4.8-3.1,9.7-3.2,14.7c-0.3,31.1-0.3,62.3-0.2,93.4c0,9.2,7,15.9,16.6,16.7c28.2,2.2,56.4,4.2,84.6,6.3
	c25.4,1.9,50.8,3.9,76.1,5.9c4.5,0.3,7,2.4,6.9,7.3c-0.2,7.3,0,14.7-0.1,22c-0.1,5.9-2.3,8.1-8.3,7.8c-13.5-0.7-26.9-1.6-40.4-2.4
	c-12.4-0.8-24.9-1.9-37.3-2.6c-8.6-0.5-11-2.8-11-11.2c0-1.2-0.1-2.3,0-3.5c0.4-3.7-1-5.4-4.9-5.7c-15.3-1-30.5-2.4-45.8-3.6
	c-10-0.8-19.9-1.5-29.9-2.1c-6-0.4-6.7,0.4-6.7,6.4c0,13.8,0.1,27.6,0,41.5c-0.1,12.7,4.5,23.8,12.7,32.7c8,8.6,18.5,14.4,30.8,14.6
	c22.1,0.4,44.3,0.2,66.4,0.3c1.9,0,4-0.7,5.7,1c-30.3,17.2-60.5,34.8-91.1,51.5c-26.9,14.7-58.6-4-58.7-34.6
	C0,242.7-0.1,141.1,0.1,39.5c0.1-31.2,32.4-49.3,60-34C90.2,22.3,120,39.4,149.9,56.4L149.9,56.4z"/>
<path class="st1" d="M303.4,239.9c0-16.3,0-32.6-0.1-49c0-12.7-5.9-19.2-18.3-20.2c-30.2-2.4-60.4-4.6-90.6-7
	c-22.2-1.7-44.5-3.3-66.7-5.1c-7.2-0.6-9.2-3-9.2-10.2c0-6,0-12,0-18c0-6.5,2.2-8.9,8.6-8.6c18.6,1,37.2,2.2,55.8,3.4
	c7.8,0.5,15.6,1.1,23.4,1.6c6.7,0.4,9.2,3,9.3,9.7c0.1,12.7-1.3,11,11.1,12.1c12.9,1.2,25.9,1.6,38.8,3.1c10.6,1.3,21.3,1,31.9,2.8
	c3.4,0.6,5.4-2.2,5.9-5.5c0.3-1.8,0.1-3.7,0.2-5.5c9.6,5.5,19,11.2,28.9,16.1c11,5.5,21.6,11.5,24.4,25c2.6,12.5-0.5,23.7-11,31
	C332.3,225,317.9,232.6,303.4,239.9L303.4,239.9z"/>
</svg>
