<?xml version="1.0" encoding="utf-8"?>
<!-- Generator: Adobe Illustrator 28.1.0, SVG Export Plug-In . SVG Version: 6.00 Build 0)  -->
<svg version="1.1" id="레이어_1" xmlns="http://www.w3.org/2000/svg" xmlns:xlink="http://www.w3.org/1999/xlink" x="0px"
	 y="0px" viewBox="0 0 4096 4096" style="enable-background:new 0 0 4096 4096;" xml:space="preserve">
<style type="text/css">
	.st0{fill:url(#SVGID_1_);}
</style>
<linearGradient id="SVGID_1_" gradientUnits="userSpaceOnUse" x1="3270.0439" y1="-68.764" x2="3314.459" y2="-145.6923">
	<stop  offset="0" style="stop-color:#FFFFFF"/>
	<stop  offset="0.1413" style="stop-color:#FFFFFF"/>
	<stop  offset="1" style="stop-color:#FFFFFF"/>
</linearGradient>
<path class="st0" d="M4077.2,2903.7c0-212.2-55.6-411.4-153.1-584c12-85.9,18.2-173.6,18.2-262.8v0
	c0-1042.6-848-1887.8-1894.1-1887.8c-68.2,0-135.6,3.6-201.9,10.6C1663,65.8,1446.5,0,1214.7,0C554.2,0,18.8,533.6,18.8,1191.9
	c0,213.9,56.5,414.6,155.5,588.2c-13.3,90.3-20.2,182.8-20.2,276.8c0,1042.6,848,1887.8,1894.1,1887.8c76.4,0,151.8-4.5,225.9-13.3
	C2452,4036,2659.4,4096,2880.9,4096C3541.6,4096,4077.2,3562.2,4077.2,2903.7L4077.2,2903.7z M2682.7,2858.2
	c-69.6,94.5-165.9,165.9-276.5,205.2c-133.3,47.6-274.1,70.6-415.6,67.7c-194.4,6.8-388-29.8-566.5-107.2
	c-45.6-20.3-85.7-51.4-116.6-90.7c-25.7-35.9-39-79.3-38-123.4c-2.6-47.1,15.6-93.1,49.8-125.6c35.4-31,81.4-47.3,128.5-45.3
	c52.4,0.7,103.9,14,150.2,38.6c57.5,28.8,102.9,50.3,136.1,64.7c37.9,15.9,77.2,28.3,117.4,37.1c49.5,10.9,100.2,16.1,150.9,15.6
	c89.7,6.4,178.9-17.4,253.5-67.6c56.7-44.3,88.5-113.3,85.5-185.1c0.1-50.2-19.1-98.6-53.5-135.2c-45.5-47-98.8-85.8-157.6-114.7
	c-69.4-36.6-167.1-81.2-293-133.8c-112.6-44.9-220.4-100.9-321.8-167.3h0c-76.5-50.4-140.4-117.8-186.6-196.9
	c-44.6-83.6-66.7-177.4-63.9-272.1c-3.4-120.2,37.6-237.4,115.2-329.3c80.6-92.3,184.3-161.5,300.4-200.7
	c126.3-44.6,259.3-67,393.2-66.2c87.6-0.8,175.1,5.9,261.6,20.1c61.9,9.6,122.7,25.2,181.5,46.8c54,18.3,102.7,49.4,142,90.7
	c28.9,34,44.5,77.3,43.8,121.9c2.1,46.8-14.5,92.5-46.1,127.1c-30,31.9-72.2,49.5-115.9,48.3c-29.8-0.2-59.1-6.9-86.2-19.4
	c-66.6-29.8-135.1-54.9-205.2-75.1c-64.5-17-131-25.3-197.7-24.6c-86.9-3.2-172.9,18.8-247.7,63.4c-64.2,39-102.1,109.9-98.8,185
	c-0.5,48.4,18,95.1,51.3,130.1c39.7,41.2,86.5,74.7,138.3,99c58,28.8,144.5,66.9,259.4,114.4c12.7,4,25.1,9,37.1,14.9
	c112.2,44.4,219.7,99.7,321.1,165.1c80.1,52.2,147.6,121.5,197.7,202.9c49.3,85.5,74.1,183.1,71.4,281.8
	C2785.7,2639.4,2751,2758.4,2682.7,2858.2z"/>
</svg>
