<?xml version="1.0" encoding="UTF-8"?>
<svg id="_레이어_1" data-name="레이어 1" xmlns="http://www.w3.org/2000/svg" version="1.1" viewBox="0 0 125.7 125.6">
  <defs>
    <style>
      .cls-1 {
        fill: #e01e5a;
      }

      .cls-1, .cls-2, .cls-3, .cls-4 {
        stroke-width: 0px;
      }

      .cls-2 {
        fill: #36c5f0;
      }

      .cls-3 {
        fill: #ecb22e;
      }

      .cls-4 {
        fill: #2eb67d;
      }
    </style>
  </defs>
  <path class="cls-1" d="M26.5,79.4c0,7.3-5.9,13.2-13.2,13.2S.1,86.7.1,79.4s5.9-13.2,13.2-13.2h13.2v13.2ZM33.1,79.4c0-7.3,5.9-13.2,13.2-13.2s13.2,5.9,13.2,13.2v33c0,7.3-5.9,13.2-13.2,13.2s-13.2-5.9-13.2-13.2v-33Z"/>
  <path class="cls-2" d="M46.3,26.4c-7.3,0-13.2-5.9-13.2-13.2S39,0,46.3,0s13.2,5.9,13.2,13.2v13.2h-13.2ZM46.3,33.1c7.3,0,13.2,5.9,13.2,13.2s-5.9,13.2-13.2,13.2H13.2c-7.3,0-13.2-5.9-13.2-13.2s5.9-13.2,13.2-13.2h33.1Z"/>
  <path class="cls-4" d="M99.2,46.3c0-7.3,5.9-13.2,13.2-13.2s13.2,5.9,13.2,13.2-5.9,13.2-13.2,13.2h-13.2v-13.2ZM92.6,46.3c0,7.3-5.9,13.2-13.2,13.2s-13.2-5.9-13.2-13.2V13.2c0-7.3,5.9-13.2,13.2-13.2s13.2,5.9,13.2,13.2v33.1Z"/>
  <path class="cls-3" d="M79.4,99.2c7.3,0,13.2,5.9,13.2,13.2s-5.9,13.2-13.2,13.2-13.2-5.9-13.2-13.2v-13.2h13.2ZM79.4,92.6c-7.3,0-13.2-5.9-13.2-13.2s5.9-13.2,13.2-13.2h33.1c7.3,0,13.2,5.9,13.2,13.2s-5.9,13.2-13.2,13.2h-33.1Z"/>
</svg>