<?xml version="1.0" encoding="utf-8"?>
<!-- Generator: Adobe Illustrator 28.1.0, SVG Export Plug-In . SVG Version: 6.00 Build 0)  -->
<svg version="1.1" id="레이어_1" xmlns="http://www.w3.org/2000/svg" xmlns:xlink="http://www.w3.org/1999/xlink" x="0px"
	 y="0px" viewBox="0 0 298 298" style="enable-background:new 0 0 298 298;" xml:space="preserve">
<style type="text/css">
	.st0{fill:#FFFFFF;}
</style>
<path class="st0" d="M288.8,220.1c-1.2-4.1-7.1-6.9-7.1-6.9c-0.5-0.3-1-0.5-1.5-0.8c-9.7-4.7-18.4-10.4-25.7-16.8
	c-5.7-5-10.7-10.7-14.9-16.9c-4.9-7.4-7.2-13.6-8.2-16.9c-0.6-2.2-0.5-3.1,0-4.2c0.4-1,1.5-1.9,2-2.3c3.9-2.7,7.8-5.3,11.8-7.9
	c2.8-1.8,5.2-3.4,6.7-4.4c4.6-3.2,7.7-6.5,9.5-10c2.4-4.5,2.7-9.5,0.8-14.5c-2.5-6.6-8.7-10.6-16.6-10.6c-1.7,0-3.6,0.2-5.4,0.6
	c-4.5,1-8.8,2.6-12.4,4c-0.2,0.1-0.4,0-0.5-0.2c0-0.1,0-0.1,0-0.2c0.4-8.9,0.8-20.8-0.2-32.1c-0.9-10.2-3-18.9-6.4-26.4
	c-3.5-7.6-8-13.2-11.5-17.2c-3.3-3.8-9.3-9.5-18.2-14.6C178.9,14.7,164.6,11,149,11s-29.8,3.6-42.3,10.8
	c-9.4,5.4-15.5,11.5-18.2,14.6C85,40.5,80.5,46,77,53.6c-3.5,7.5-5.6,16.1-6.4,26.4c-1,11.4-0.6,22.4-0.2,32.1
	c0,0.3-0.3,0.5-0.6,0.4c-3.6-1.4-7.9-3-12.4-4c-1.8-0.4-3.6-0.6-5.4-0.6c-7.9,0-14.1,4-16.6,10.6c-1.9,4.9-1.6,9.9,0.8,14.5
	c1.9,3.5,5,6.8,9.5,10c1.4,1,3.8,2.6,6.7,4.4c3.2,2.1,8.3,5.4,11.6,7.7c0.4,0.3,1.8,1.3,2.2,2.4c0.5,1.2,0.6,2-0.1,4.4
	c-1,3.4-3.3,9.5-8.2,16.7c-4.2,6.3-9.2,12-14.9,16.9c-7.3,6.4-15.9,12.1-25.7,16.8c-0.5,0.2-1,0.5-1.6,0.8c0,0-5.8,3-6.9,6.8
	c-1.6,5.7,2.7,11,7.1,13.9c7.2,4.7,16,7.2,21.1,8.5c1.4,0.4,2.7,0.7,3.9,1.1c0.7,0.2,2.6,0.9,3.3,1.9c1,1.3,1.1,2.9,1.5,4.6
	c0.6,3,1.8,6.7,5.5,9.3c4.1,2.8,9.2,3,15.8,3.3c6.8,0.3,15.3,0.6,25.1,3.8c4.5,1.5,8.6,4,13.3,6.9c9.9,6.1,22.2,13.7,43.2,13.7
	s33.4-7.6,43.4-13.7c4.7-2.9,8.8-5.4,13.2-6.8c9.8-3.2,18.2-3.6,25.1-3.8c6.5-0.3,11.7-0.4,15.8-3.3c4-2.7,5.1-6.8,5.6-9.9
	c0.3-1.5,0.5-2.9,1.3-4c0.8-1,2.4-1.6,3.2-1.9c1.2-0.4,2.5-0.7,4-1.1c5.1-1.4,11.5-3,19.3-7.4C289.2,229.8,289.8,223.3,288.8,220.1
	L288.8,220.1z"/>
<path d="M296.9,217c-2.1-5.6-6-8.6-10.5-11.1c-0.7-0.4-1.5-0.8-2.3-1.2c-1.3-0.7-2.7-1.4-4.1-2.1c-14-7.4-24.9-16.8-32.5-27.9
	c-2.1-3.1-4-6.4-5.6-9.9c-0.6-1.9-0.6-2.9-0.1-3.9c0.4-0.7,1.3-1.5,1.8-1.9c2.4-1.6,4.9-3.2,6.6-4.3c3-1.9,5.4-3.5,6.9-4.5
	c5.8-4,9.8-8.3,12.3-13.1c3.6-6.7,4-14.4,1.2-21.6c-3.8-10-13.3-16.2-24.7-16.2c-2.4,0-4.8,0.3-7.2,0.8c-0.6,0.1-1.3,0.3-1.9,0.4
	c0.1-7.1-0.1-14.1-0.7-21.2c-2.2-25-10.9-38.2-20.1-48.6c-3.8-4.4-10.4-10.7-20.4-16.4c-13.9-8-29.6-12-46.7-12s-32.8,4-46.7,12
	c-10,5.7-16.6,12.1-20.4,16.4c-9.1,10.4-17.8,23.6-20,48.6c-0.6,7-0.8,14.1-0.7,21.2l-1.9-0.4c-2.4-0.5-4.8-0.8-7.2-0.8
	c-11.5,0-21,6.2-24.7,16.2c-2.7,7.2-2.3,14.9,1.3,21.6c2.5,4.8,6.5,9.1,12.3,13.1c1.5,1.1,3.9,2.6,6.9,4.5c1.6,1,4,2.6,6.3,4.1
	c0.4,0.2,1.6,1.2,2,2c0.5,1,0.5,2.1-0.2,4c-1.2,2.7-3,6-5.5,9.7c-7.4,10.9-18,20.1-31.6,27.4c-7.2,3.8-14.6,6.3-17.8,14.9
	c-2.4,6.5-0.8,13.8,5.2,20c2,2.1,4.5,4,7.6,5.8c7.4,4.1,13.7,6.1,18.6,7.4c0.9,0.3,2.9,0.9,3.8,1.7c2.2,1.9,1.9,4.8,4.8,9.1
	c1.8,2.6,3.8,4.5,5.5,5.6c6.1,4.3,13.1,4.5,20.4,4.8c6.6,0.3,14.1,0.6,22.7,3.4c3.6,1.2,7.2,3.4,11.5,6.1
	c10.2,6.3,24.3,14.9,47.8,14.9s37.6-8.7,48-15c4.2-2.6,7.9-4.9,11.3-6c8.6-2.8,16.1-3.1,22.7-3.4c7.3-0.3,14.2-0.6,20.4-4.8
	c1.9-1.3,4.4-3.5,6.3-6.8c2.1-3.6,2.1-6.1,4.1-7.8c0.8-0.7,2.6-1.3,3.5-1.6c5-1.4,11.4-3.4,18.9-7.5c3.3-1.8,5.9-3.8,8-6.1l0.1-0.1
	C297.8,230.4,299.3,223.3,296.9,217L296.9,217z M276.1,228.2c-12.8,7-21.2,6.3-27.8,10.5c-5.6,3.6-2.3,11.4-6.3,14.2
	c-5,3.5-19.8-0.2-38.8,6c-15.7,5.2-25.8,20.1-54.1,20.1c-28.4,0-38.1-14.9-54.1-20.1c-19.1-6.3-33.8-2.6-38.8-6
	c-4-2.8-0.8-10.6-6.3-14.2c-6.6-4.3-15-3.5-27.8-10.5c-8.1-4.5-3.5-7.2-0.8-8.6c46.2-22.3,53.5-56.8,53.8-59.4
	c0.4-3.1,0.8-5.5-2.6-8.7c-3.3-3.1-17.9-12.1-22-14.9c-6.7-4.7-9.7-9.4-7.5-15.1c1.5-4,5.2-5.5,9.2-5.5c1.2,0,2.5,0.1,3.7,0.4
	c7.4,1.6,14.5,5.3,18.7,6.3c0.6,0.1,1.1,0.2,1.5,0.2c2.2,0,3-1.1,2.8-3.6c-0.5-8.1-1.6-23.8-0.4-38.5c1.7-20.2,8.3-30.2,16-39.1
	c3.7-4.3,21.2-22.7,54.6-22.7c33.5,0,50.8,18.5,54.6,22.7c7.7,8.8,14.3,18.9,16,39.1c1.3,14.7,0.2,30.4-0.3,38.5
	c-0.2,2.6,0.6,3.6,2.8,3.6c0.4,0,1-0.1,1.5-0.2c4.1-1,11.3-4.7,18.7-6.3c1.2-0.3,2.4-0.4,3.7-0.4c3.9,0,7.7,1.5,9.2,5.5
	c2.2,5.8-0.8,10.4-7.5,15.1c-4,2.8-18.7,11.9-22,14.9c-3.4,3.1-3,5.6-2.6,8.7c0.3,2.6,7.7,37.1,53.8,59.4
	C279.6,220.9,284.2,223.7,276.1,228.2L276.1,228.2z"/>
</svg>
