<?xml version="1.0" encoding="utf-8"?>
<!-- Generator: Adobe Illustrator 28.1.0, SVG Export Plug-In . SVG Version: 6.00 Build 0)  -->
<svg version="1.1" id="레이어_1" xmlns="http://www.w3.org/2000/svg" xmlns:xlink="http://www.w3.org/1999/xlink" x="0px"
	 y="0px" viewBox="0 0 48 48" style="enable-background:new 0 0 48 48;" xml:space="preserve">
<style type="text/css">
	.st0{fill:#FFFFFF;}
</style>
<path class="st0" d="M0.5,26c-0.1,0-0.2,0.1-0.2,0.2L0,28.9l0.4,2.6c0,0.1,0.1,0.2,0.2,0.2l0,0c0.1,0,0.2-0.1,0.2-0.2l0.4-2.6
	l-0.4-2.7C0.7,26.1,0.6,26,0.5,26 M2.5,24.6c0-0.1-0.1-0.2-0.2-0.2s-0.2,0.1-0.2,0.2l-0.5,4.3l0.5,4.2c0,0.1,0.1,0.2,0.2,0.2
	c0.1,0,0.2-0.1,0.2-0.2L3,28.9L2.5,24.6z M10,20.6c-0.2,0-0.4,0.2-0.4,0.4l-0.4,7.9L9.6,34c0,0.2,0.2,0.4,0.4,0.4s0.4-0.2,0.4-0.4
	l0.4-5.1L10.3,21C10.3,20.8,10.1,20.6,10,20.6 M6.1,23.4c-0.2,0-0.3,0.1-0.3,0.3L5.4,29l0.4,5c0,0.2,0.1,0.3,0.3,0.3
	c0.2,0,0.3-0.1,0.3-0.3l0.5-5.1l-0.5-5.3C6.4,23.5,6.3,23.4,6.1,23.4 M13.9,34.4c0.2,0,0.4-0.2,0.4-0.4l0.4-5l-0.4-10.6
	c0-0.2-0.2-0.4-0.4-0.4s-0.4,0.2-0.4,0.4L13.2,29l0.3,5C13.4,34.2,13.6,34.4,13.9,34.4L13.9,34.4z M21.9,34.4c0.3,0,0.6-0.3,0.6-0.6
	l0,0l0,0l0.3-4.9l-0.3-12.2c0-0.3-0.3-0.6-0.6-0.6c-0.3,0-0.6,0.3-0.6,0.6L21,28.9l0.2,4.9C21.3,34.1,21.5,34.4,21.9,34.4
	 M17.8,34.4c0.3,0,0.5-0.2,0.5-0.5l0,0l0.3-5l-0.3-10.6c0-0.3-0.2-0.5-0.5-0.5s-0.5,0.2-0.5,0.5L17,28.9l0.3,5
	C17.3,34.2,17.5,34.4,17.8,34.4 M8,34.3c0.2,0,0.3-0.1,0.3-0.3l0.5-5.1L8.3,24c0-0.2-0.1-0.3-0.3-0.3S7.7,23.8,7.7,24l-0.4,4.9
	L7.7,34C7.7,34.2,7.8,34.3,8,34.3 M4.2,34.1c0.1,0,0.2-0.1,0.2-0.2l0.6-5l-0.5-5.1c0-0.1-0.1-0.2-0.2-0.2s-0.2,0.1-0.2,0.2l-0.4,5.1
	L4,33.8C4,34,4.1,34.1,4.2,34.1 M19.8,18.1c-0.3,0-0.6,0.3-0.6,0.6L19,28.9l0.3,4.9c0,0.3,0.3,0.6,0.6,0.6c0.3,0,0.6-0.3,0.6-0.6
	l0,0l0,0l0.3-4.9l-0.3-10.2C20.4,18.3,20.2,18.1,19.8,18.1 M11.9,34.4c0.2,0,0.4-0.2,0.4-0.4l0.4-5.1l-0.4-9.7
	c0-0.2-0.2-0.4-0.4-0.4s-0.4,0.2-0.4,0.4l-0.4,9.7l0.4,5.1C11.5,34.2,11.7,34.4,11.9,34.4 M16.3,33.9L16.3,33.9l0.3-5L16.3,18
	c0-0.3-0.2-0.5-0.5-0.5c-0.3,0-0.5,0.2-0.5,0.5L15,28.9l0.3,5c0,0.3,0.2,0.5,0.5,0.5C16.1,34.4,16.3,34.2,16.3,33.9L16.3,33.9z
	 M42.1,22.6c-0.8,0-1.6,0.2-2.3,0.5c-0.5-5.3-4.9-9.5-10.4-9.5c-1.3,0-2.6,0.2-3.8,0.7C25.2,14.5,25,14.6,25,15v18.7
	c0,0.4,0.3,0.7,0.6,0.7H42c3.3,0,5.9-2.6,5.9-5.9S45.4,22.6,42.1,22.6L42.1,22.6 M23.9,15c-0.4,0-0.6,0.3-0.7,0.6L23,28.9l0.3,4.8
	c0,0.4,0.3,0.6,0.7,0.6c0.4,0,0.6-0.3,0.7-0.6l0,0l0.3-4.8l-0.3-13.3C24.5,15.3,24.2,15,23.9,15"/>
</svg>
