<?xml version="1.0" encoding="utf-8"?>
<!-- Generator: Adobe Illustrator 28.1.0, SVG Export Plug-In . SVG Version: 6.00 Build 0)  -->
<svg version="1.1" id="레이어_1" xmlns="http://www.w3.org/2000/svg" xmlns:xlink="http://www.w3.org/1999/xlink" x="0px"
	 y="0px" viewBox="0 0 28.3 28.3" style="enable-background:new 0 0 28.3 28.3;" xml:space="preserve">
<style type="text/css">
	.st0{fill:#FFFFFF;}
</style>
<path class="st0" d="M14.2,0C6.3,0,0,6.3,0,14.2s6.3,14.2,14.2,14.2S28.3,22,28.3,14.2S22,0,14.2,0 M20.7,20.4
	c-0.3,0.4-0.8,0.5-1.2,0.3c0,0,0,0,0,0c-3.3-2-7.5-2.5-12.5-1.4c-0.5,0.1-0.9-0.2-1.1-0.7c-0.1-0.5,0.2-0.9,0.7-1.1l0,0
	c5.4-1.2,10-0.7,13.8,1.6C20.8,19.5,20.9,20,20.7,20.4 M22.4,16.6c-0.3,0.5-1,0.7-1.5,0.4c-3.8-2.3-9.6-3-14.1-1.7
	c-0.6,0.1-1.2-0.2-1.3-0.8c-0.1-0.5,0.2-1.1,0.7-1.3c5.1-1.6,11.5-0.8,15.9,1.9C22.6,15.4,22.7,16.1,22.4,16.6
	C22.4,16.6,22.4,16.6,22.4,16.6 M22.6,12.6c-4.6-2.7-12.1-3-16.5-1.6c-0.7,0.2-1.4-0.2-1.7-0.9C4.2,9.4,4.6,8.6,5.3,8.4c0,0,0,0,0,0
	c5-1.5,13.3-1.2,18.6,1.9c0.6,0.4,0.8,1.2,0.5,1.8C24,12.7,23.2,12.9,22.6,12.6"/>
</svg>
