<?xml version="1.0" encoding="utf-8"?>
<!-- Generator: Adobe Illustrator 28.1.0, SVG Export Plug-In . SVG Version: 6.00 Build 0)  -->
<svg version="1.1"
	 id="svg8" xmlns:svg="http://www.w3.org/2000/svg" xmlns:cc="http://creativecommons.org/ns#" xmlns:dc="http://purl.org/dc/elements/1.1/" xmlns:rdf="http://www.w3.org/1999/02/22-rdf-syntax-ns#"
	 xmlns="http://www.w3.org/2000/svg" xmlns:xlink="http://www.w3.org/1999/xlink" x="0px" y="0px" viewBox="0 0 204.9 135.9"
	 style="enable-background:new 0 0 204.9 135.9;" xml:space="preserve">
<style type="text/css">
	.st0{fill-rule:evenodd;clip-rule:evenodd;fill:#FFFFFF;}
</style>
<g id="layer1" transform="translate(-318.38117,-152.85313)">
	<g id="stadia-logo-mark" transform="matrix(1.168671,0,0,1.1625631,302.30026,152.85313)">
		<path id="Fill-1" class="st0" d="M15.2,34.1c-0.9,0.7-1.5,1.8-1.5,2.8l0,0V37c0,0.5,0.1,0.9,0.3,1.4l0,0l16.8,38
			c0.7,1.7,2.7,2.5,4.4,1.9l0,0c11-3.9,49-16.3,73.7-9.6l0,0c0,0-24.7,1.4-47.1,18.9l0,0c-1.2,1-1.7,2.7-1,4.2l0,0
			c1.8,4.1,5.4,12.3,7.5,17l0,0l2.9,6.8c0.7,1.6,2.9,1.8,3.9,0.3l0,0c5.2-7.9,14-11.8,22.5-15.2l0,0c8.6-3.5,17.7-6.1,26.9-7.7l0,0
			c9.8-1.7,19.8-2.1,29.7-1.2l0,0c1.6,0.1,3.2-0.9,3.7-2.4l0,0l7.6-24.2c0.5-1.4-0.1-3-1.3-3.9l0,0c-8.4-6.1-42-26.7-100.9-18.4l0,0
			c0,0,50.3-28.9,114.1,2.8l0,0c1.9,1,4.3-0.1,4.9-2.1l0,0l6.7-21.4c0.1-0.3,0.1-0.7,0.2-1l0,0v-0.1c0-1.2-0.7-2.4-1.8-3l0,0
			c-8-4.5-35.1-18.1-72.4-18.1l0,0C86.4,0,51.8,8,15.2,34.1"/>
	</g>
</g>
</svg>
