<?xml version="1.0" encoding="utf-8"?>
<!-- Generator: Adobe Illustrator 28.1.0, SVG Export Plug-In . SVG Version: 6.00 Build 0)  -->
<svg version="1.1" id="_레이어_1" xmlns="http://www.w3.org/2000/svg" xmlns:xlink="http://www.w3.org/1999/xlink" x="0px"
	 y="0px" viewBox="0 0 816.5 716.1" style="enable-background:new 0 0 816.5 716.1;" xml:space="preserve">
<style type="text/css">
	.st0{fill:#FFFFFF;}
</style>
<path class="st0" d="M604.4,706.2c-10.3,2.1-20,1-29.5-1.7c-19.5-5.4-36.4-15.2-50.6-29.7c-2.9-2.9-7.1-6.6-5.4-10.5
	c1.8-4.1,7.4-3.2,11.4-2.6c27.6,3.9,51.7,14.6,69.6,36.9C601.6,700.8,603.3,703.1,604.4,706.2L604.4,706.2z"/>
<path class="st0" d="M211.8,706.1c6.3-11.7,15.3-20,25.7-26.7c14-9,29.2-15,45.7-17.4c1.3-0.2,2.7-0.3,4-0.3c3.8,0.1,8.8-1,10.4,2.8
	c1.5,3.5-2.1,7.1-4.8,9.8c-19.1,19.2-41.8,31-69,33.1C220.1,707.5,216.3,707,211.8,706.1L211.8,706.1z"/>
<path class="st0" d="M168.3,679.1c5-7.2,11.1-12.5,18.1-16.7c18.8-11.5,39.3-16.8,61.3-16c3.8,0.1,8.9,0.1,10.2,3.8
	c1.3,3.8-2.8,6.8-5.8,9c-22.7,16.7-47.6,26.2-76.3,22.2C173.3,681.1,170.9,680.6,168.3,679.1L168.3,679.1z"/>
<path class="st0" d="M574.8,646.4c25.6,1.4,49.1,8.2,68,26.7c1.8,1.7,4.8,3.8,4.3,5.7c-0.7,2.5-4.4,2.2-7,2.6
	c-29.2,4-54.4-5.6-77.1-23.1c-2.6-2-6-4.8-4.9-8.1c1.2-3.5,5.7-3.5,9.2-3.8C569.8,646.2,572.3,646.4,574.8,646.4L574.8,646.4z"/>
<path class="st0" d="M686,647.6c-9.6,4.9-18.6,6.6-28,6.9c-20.2,0.6-39.2-4.2-56.8-14c-3.6-2-8.8-4.5-8.1-8.5
	c0.7-4.5,6.5-5,10.7-5.6c24-3.6,47-0.5,68.4,11.3c3.2,1.8,6,4.2,9,6.3C682.6,645,684.1,646.1,686,647.6z"/>
<path class="st0" d="M131.1,647.9c4.9-5.6,10.6-9.4,16.7-12.3c20.9-10.1,42.8-12.8,65.6-9.1c3.7,0.6,8.8,1.2,9.6,5.1
	c0.9,4.1-3.7,6.3-6.9,8.1c-24,13.3-49.2,18.8-76.4,11.8C136.9,650.8,134.1,649.8,131.1,647.9L131.1,647.9z"/>
<path class="st0" d="M719.6,613c-9.9,6.7-20.9,9.7-32.4,10.9c-17.3,1.7-34.2-0.4-50.5-6.6c-4.1-1.6-10-3.2-9.7-8
	c0.3-4.2,6.1-5.6,10.3-6.7c23.6-6.6,46.9-6.6,69.9,2.8C711.6,607.2,715.8,609.5,719.6,613L719.6,613z"/>
<path class="st0" d="M96.6,612.5c8.9-6.7,18.7-10.3,29.2-12.4c18.3-3.6,36.4-2.7,54.2,2.9c3.7,1.2,9.1,2.4,9.3,6.4
	c0.2,4.4-5.1,6.1-8.9,7.5c-24.1,9-48.5,10.7-73,1.5C103.6,617.1,100.1,615.3,96.6,612.5L96.6,612.5z"/>
<path class="st0" d="M750.3,574c-3.2,3.7-7.1,6.2-11.3,8.3c-22.5,11.3-46.1,12.9-70.4,7.2c-3.7-0.9-8.6-1.8-9.1-5.8
	c-0.5-4.1,4.2-6.1,7.6-7.7c23.5-11.1,47.9-14.2,73.2-6.7c2.1,0.6,4,1.5,6,2.4C747.6,572.3,748.8,573.1,750.3,574L750.3,574z"/>
<path class="st0" d="M66,574c8.3-5.2,17.4-7.4,26.6-8.3c18.4-1.7,36.2,1,53.2,8.4c3.4,1.5,6.5,3.3,9.2,5.9c2.9,2.7,2.3,4.7-0.9,6.6
	c-4,2.3-8.3,3.4-12.7,4.2c-21.4,3.6-42.1,2.1-62-7.3C74.5,581.1,69.8,578.4,66,574z"/>
<path class="st0" d="M40.4,532.1c12.4-5.5,23.8-5.7,35.3-4.5c15.9,1.7,30.7,7,44.4,15.3c3,1.8,5.8,4,8.1,6.6c2.6,3,2.4,5.4-1.6,6.8
	c-2.3,0.8-4.8,1.7-7.2,1.9c-23.9,1.8-46.3-2.6-66.5-16.1c-2.2-1.5-4.2-3.3-6.2-5C44.8,535.8,43,534.3,40.4,532.1L40.4,532.1z"/>
<path class="st0" d="M774.7,531.7c-5.4,7-12.1,11.8-19.5,15.5c-19.5,9.8-40.1,13.6-61.9,10.3c-2.6-0.4-5.8-1-6.7-3.6
	c-1-2.9,1.7-5,3.8-6.4c24.1-17.2,50.4-24.7,79.9-17.6C771.7,530.2,773,531,774.7,531.7L774.7,531.7z"/>
<path class="st0" d="M780.2,484.5c3.2,0.4,7,0.9,10.7,1.4c2.9,0.4,3.1,1.5,1.4,3.8c-8.2,11-18.9,18.5-31.3,24
	c-12.9,5.7-26.3,9.4-40.4,9.7c-3.6,0.1-8.4,0.6-9.9-2.9c-1.6-3.6,2.3-6.7,4.9-9C733.8,495.2,755,485.8,780.2,484.5L780.2,484.5z"/>
<path class="st0" d="M22.4,486.6c11.6-2.7,22.6-1.9,33.5,0.8c17.3,4.3,32.6,12.3,45.5,24.7c2.3,2.2,5.7,5.1,4.2,8.3
	c-1.4,3.1-5.7,3-9,2.9c-25.1-1-47.5-9.2-66.2-26.4C27.4,494.2,24.7,491,22.4,486.6L22.4,486.6z"/>
<path class="st0" d="M737.1,485c-2.2-0.3-5,0.4-6.3-1.9c-1.3-2.2,0.4-4.5,1.6-6.4c1.2-2,2.5-3.9,4.1-5.6
	c15.4-16.4,33.6-27.9,56-32.1c4-0.7,7.9-0.6,11.9-0.6c3-0.1,3.5,1,2,3.4c-1.9,2.9-3.4,6.1-5.6,8.8c-15.8,19.1-36.4,29.9-60.7,34.2
	C739.1,484.9,738.1,484.9,737.1,485L737.1,485z"/>
<path class="st0" d="M16.6,438.3c11.6,0.5,22.3,3.9,32.4,9.2c12.8,6.7,24.2,15.2,33.3,26.6c2,2.6,5,5.8,3.5,8.8
	c-1.8,3.3-6.2,2.4-9.6,1.8c-26.2-4.9-48.2-16.6-63.7-39c-1.4-2-3.9-4.5-2.8-6.5C10.8,437.2,14.2,438.7,16.6,438.3L16.6,438.3z"/>
<path class="st0" d="M749.4,446.6c-4,0.2-5.3-1.6-4.1-5.3c0.6-1.9,1.2-3.9,2.3-5.5c13.8-21.5,31.9-37.3,57.2-43.6
	c3-0.8,7.3-2.5,9-0.4s-1.1,5.8-2.5,8.5c-12.7,23.5-32.7,37.9-58,45.7C752.1,446.3,750.7,446.3,749.4,446.6L749.4,446.6z"/>
<path class="st0" d="M65.5,446.4c-0.6-0.1-2.1-0.3-3.5-0.7c-24.7-7.9-44.4-22.1-57-45.2c-1.5-2.7-4.2-6.8-2.8-8.5
	c1.9-2.3,6.2-0.5,9.3,0.3c25,6.4,43.2,21.9,57,43.1c1.1,1.6,1.7,3.6,2.3,5.5C72.1,445.4,71.3,446.5,65.5,446.4L65.5,446.4z"/>
<path class="st0" d="M61.6,404.4c0,2.4-1.1,3.5-3.4,3.4c-2-0.1-4-0.3-5.8-1.2c-24.2-11.7-42.4-28.9-51.1-55
	c-0.7-2.2-2.2-5.1-0.7-6.5c1.5-1.4,4.3,0.4,6.5,1.1c25.4,9.4,42.1,27.7,53,51.8C60.9,400.1,61.1,402.3,61.6,404.4z"/>
<path class="st0" d="M816.5,343.9c-0.4,7.1-2.4,12.5-5,17.7c-10.1,20-25.8,34.4-45.8,44.2c-3.1,1.5-7.1,3.6-9.8,1.1
	c-2.4-2.3-0.7-6.5,0.7-9.4C768.9,371.5,787.3,352.3,816.5,343.9L816.5,343.9z"/>
<path class="st0" d="M55.7,358.5c0.1,7.5-1.1,8.3-6.6,6.2c-1.7-0.7-3.4-1.4-4.9-2.5c-20.7-15-35.2-34-40.2-59.6
	c-0.4-2.3-1.5-5.5-0.1-6.7c1.9-1.6,4.6,0.7,6.7,1.8c18.9,9.8,30.7,26,39.7,44.6C53.2,348,55.5,353.9,55.7,358.5L55.7,358.5z"/>
<path class="st0" d="M812.5,300.3c-0.4,4.7-1.7,10.2-3.7,15.5c-7.4,19.2-19.9,34.5-36.6,46.2c-3,2.1-7,5.4-10.3,3
	c-3.1-2.2-1.4-6.9-0.3-10.3c8.1-25.4,22.1-46,46.8-58C812.5,294.5,812.7,294.8,812.5,300.3L812.5,300.3z"/>
<path class="st0" d="M54.4,315.7c0,1,0.1,2,0,3c-0.6,4.9-2.2,5.8-6.6,3.5c-1.2-0.6-2.4-1.3-3.3-2.2c-19.7-18-32-39.6-32.8-66.9
	c-0.1-1.8-0.7-4.2,1-5.1c1.6-0.8,3.2,1.1,4.7,2.1c17.1,11.5,26.7,28.3,33.3,47.1C52.7,303.2,54.3,309.3,54.4,315.7L54.4,315.7z"/>
<path class="st0" d="M803.6,248c1.7,8,0.5,15.7-1.6,23.2c-4.8,17.9-14.2,33.2-27.3,46.3c-1.2,1.2-2.5,2.3-3.8,3.2
	c-2.3,1.5-4.8,4.2-7.5,2.5c-2.3-1.4-2.1-4.8-1.7-7.4c3.6-26.3,14.3-48.6,36-64.8C799.4,249.7,801.1,248.4,803.6,248L803.6,248z"/>
<path class="st0" d="M57.7,263.4c-0.3,3.4-0.6,6.7-1.9,9.8c-1,2.4-2.5,3.1-4.6,1.6c-1.6-1.1-3.4-2.2-4.7-3.7
	c-16.3-19.9-25.9-42-22.9-68.4c0.2-2.1,0.5-5.4,1.7-5.9c2.2-0.9,4,1.8,5.6,3.3c13.9,13,21.1,29.6,24.7,47.9
	C56.5,253.2,56.9,258.3,57.7,263.4L57.7,263.4z"/>
<path class="st0" d="M791,195.9c3.3,10.6,2.7,20.7,0.6,30.9c-3.3,16.1-10.2,30.5-20.7,43.1c-2.2,2.6-5,6.4-8.4,5.3
	c-3.8-1.3-3.3-6.1-3.3-9.7c0.2-22.1,6.4-42.2,20.4-59.6C782.6,202.2,786.2,198.9,791,195.9L791,195.9z"/>
<path class="st0" d="M770.1,150.2c3.5,7,4.7,14,4.8,21.2c0.4,18.8-4,36.6-13.5,52.9c-2,3.5-4.4,8.6-8.7,7.8
	c-4.1-0.8-4.2-6.3-4.6-10.2c-2.3-23,1.7-44.7,15-64.1C764.9,155.1,767,152.5,770.1,150.2L770.1,150.2z"/>
<path class="st0" d="M46.2,150c10.9,10.3,16.7,22.8,19.8,36.7c2.9,13.1,4.1,26.3,1.3,39.5c-0.5,2.4-1.1,5.5-3.7,6
	c-2.6,0.6-4.4-2-5.9-3.9C44.5,211.5,35.2,173.8,46.2,150L46.2,150z"/>
<path class="st0" d="M72.9,109.4c4.6,4.8,7.4,10.6,9.6,16.6c6.9,18.7,6.7,37.8,1.8,56.9c-0.9,3.6-1.8,8.7-5.9,8.9
	c-3.6,0.2-5.4-4.5-6.8-7.9c-9-22.5-11.6-45.2-2.3-68.4C70.2,113.4,71.1,111.3,72.9,109.4L72.9,109.4z"/>
<path class="st0" d="M743.6,109.2c5.2,7.6,7.5,15.9,8.5,24.5c2.1,17.5-0.6,34.4-7.7,50.6c-1.4,3.2-3.1,7.7-6.4,7.6
	c-3.8-0.2-4.8-5-5.8-8.5c-5.7-20.8-5.1-41.4,3.2-61.5C737.3,117.4,739.8,113.3,743.6,109.2L743.6,109.2z"/>
<path class="st0" d="M140.9,30.8c5.7,13,6.1,25.4,4.2,37.9c-2.1,13.8-6.4,26.8-14.5,38.3c-1.6,2.3-3.7,5.4-6.4,4.9
	c-2.9-0.5-3.6-4.2-4-6.9c-3.7-25.3,0.8-48.6,16.7-69.2C137.8,34.4,139,33,140.9,30.8L140.9,30.8z"/>
<path class="st0" d="M675.1,31.5c9.2,8.4,14.3,18.5,17.7,29.6c4.3,14,6.1,28.3,3.6,42.9c-0.5,3.1-1,7.1-4.2,7.9
	c-3,0.7-5-2.8-6.7-5.1C670.8,87.2,665.9,52.4,675.1,31.5L675.1,31.5z"/>
<path class="st0" d="M104.2,69.2c4.7,6.8,6.9,14.1,7.9,21.7c2.5,17.8,0.6,35.1-6.5,51.7c-1.5,3.5-3.2,8.4-7,8.2
	c-4-0.2-5-5.3-5.9-8.9c-5.2-20.6-4.6-40.8,3.8-60.5C98.3,77.1,100.7,73.1,104.2,69.2L104.2,69.2z"/>
<path class="st0" d="M182.8,1.7c3.7,11.4,2.9,21.6,0.5,31.7c-3.1,13.4-8.8,25.7-17,36.7c-1.5,2-3.2,3.9-5,5.5
	c-1.8,1.7-3.8,4-6.4,2.9c-2.3-0.9-2.6-3.8-2.6-6.1C151.7,44.6,160.6,20.9,182.8,1.7L182.8,1.7z"/>
<path class="st0" d="M712,69.4c4,4.3,6.7,9.3,8.7,14.6c7.3,19.2,7.7,38.7,2.6,58.4c-0.9,3.5-1.9,8.4-5.6,8.6
	c-3.7,0.2-5.4-4.5-6.8-7.8c-8.6-21.2-11-42.7-3.5-64.8C708.5,75.2,709.7,72.1,712,69.4L712,69.4z"/>
<path class="st0" d="M633.3,2.4c8.7,6,14.7,13.6,19.3,22.4c7.9,15,12.1,30.9,11,47.9c-0.1,2.3-0.3,5.2-2.7,6s-4.4-1.3-6-2.9
	c-12-12.6-19-27.9-22.5-44.8C630.2,19.7,630.7,11.1,633.3,2.4L633.3,2.4z"/>
<path class="st0" d="M589.6,43.4c-0.3,0.3-0.7,0.6-1,1c-10.1-5.8-20.3-11.7-30.4-17.5C569.2,31.3,579.8,36.6,589.6,43.4L589.6,43.4z
	"/>
<path class="st0" d="M239.3,36.3c2.6-2.2,5.7-3.3,8.8-4.6c-2.6,2.1-5.2,4-8.4,5C239.6,36.6,239.4,36.5,239.3,36.3z"/>
<path class="st0" d="M745.2,262.9c-17.6-96.7-73.2-168-155.7-219.5c-1.1-0.4-1.2,0.1-1,1c0.8,0.6,1.7,1.1,2.5,1.7
	c50.2,33.6,89.4,77,116,131.2c31.9,64.9,39.7,133.4,28.5,204.4C721,473,675.2,544.8,598.8,596.8c-56.3,38.3-119.4,57.4-186.3,66.1
	c-2.6,0.3-2.8-0.5-2.8-2.5c0.2-5.8,0.6-11.7,0.5-17.5c-0.1-3.4,0.9-4.5,4.4-4.5c18.9-0.1,37.6-2.3,56-6.1
	c165-34.1,274.3-192.3,245.7-358.1C698.2,169,639.5,92.5,544.6,44.1C503.8,23.3,460,13.5,414.2,12.8c-3.8-0.1-5.5-0.9-5-4.9
	c0.3-2.6,0.1-5.3,0.1-7.9c-1.1,0.6-1.4,1.2-1.4,1.8c-0.2,2.2-0.6,4.4-0.3,6.5c0.5,3.9-1.2,4.5-4.7,4.5c-21.1,0.1-41.9,2.6-62.4,7.2
	c-165.2,36.6-271,196.8-240.1,363.6c21.9,118.3,112.5,215.1,228.9,244.9c23.8,6.1,48,9.5,72.6,9.8c3.5,0,4.5,1,4.5,4.5
	c-0.1,6,0,12,0.3,18c0.1,2.3-0.6,2.9-2.8,2.5c-3.4-0.7-6.9-1.2-10.3-1.7c-36.9-5.1-72.8-14-107.4-28.1
	c-62.3-25.4-115.1-63.4-153.4-119.4c-51.1-74.6-65.9-157.6-52.4-245.8c12.6-82.3,53.7-149,117.5-202c13.2-10.9,27.6-20.2,41.9-29.6
	c-0.1-0.1-0.3-0.3-0.4-0.4c-1.1,0.4-2.2,0.8-3.2,1.3c-36.7,20.8-68.9,47.1-96.1,79.4c-40.3,48-65,102.9-72.7,165.2
	c-4.8,38.7-2.9,77.1,4.2,115.4c12,64.7,40.1,121.2,86.5,168.2c45.9,46.6,101.8,76.3,163.8,95.5c13,4,26.2,7.4,40.5,10.7
	c-11.7,3.1-22.3,5.8-32.8,8.7c-6.5,1.8-7.4,3.7-5.5,10.1c2.1,7,5,8.7,10.9,6.8c22.4-7.1,45.3-12,68.4-16.4c3-0.6,4-0.2,4,3.2
	c-0.2,10.6-0.1,21.1-0.1,31.7c2.6-10.6,2.2-21.2,2.3-31.9c0-3,0.3-3.9,3.8-3.2c23.5,4.8,47,9.5,69.8,17c3.1,1,5.1,0.2,6.8-2.3
	c5.3-7.8,3.6-13.1-5.1-15.7c-0.8-0.2-1.6-0.4-2.4-0.7c-9.3-2.4-18.6-4.8-28.6-7.5c2.5-0.6,4.1-1,5.7-1.4
	c36.9-8.6,72.5-20.8,106.3-38.1c59-30.2,107.6-72,140.4-130.1C748.3,427.5,760.5,346.8,745.2,262.9L745.2,262.9z M595.4,318.2
	c-27.3-2.6-54.8-4.6-81.6-10.8c-19.7-4.5-38.1-11.6-53.7-25c-15.1-13-22.3-30.3-27.5-48.8c-7.8-27.3-12-55.3-15-83.4
	c-0.4-3.6-0.5-7.3-1.1-10.9c-0.6-3.9,0.3-5.7,4.1-4.6c78.7,4,149.9,62.2,170.9,139.2c3.6,13.4,5.8,27,6.8,40.8
	C598.3,316.8,598.9,318.6,595.4,318.2L595.4,318.2z M598.2,335.7c-4,83.5-63.6,155.7-145,175.4c-9.7,2.4-19.6,4-29.5,4.6
	c-7.7,0.6-7.8,0.6-7-7.1c3.3-31.6,8.2-62.9,16.4-93.7c9.6-36.2,33.1-57.6,67.8-68.4c20.8-6.5,42.3-8.5,63.8-11
	c9.9-1.1,19.9-2,29.8-2.9C596.7,332.4,598.4,332,598.2,335.7L598.2,335.7z M418.3,533.3c91.5-3.7,171.1-69.5,192.2-158.7
	c2.8-11.7,4.8-23.5,5.1-35.5c0.1-4,1.5-5.3,5.5-5.6c21.7-2.1,43.4-4.4,65.7-6.8c-0.5,50.3-12.7,97.1-38.5,139.7
	c-45.5,75.2-111.8,120.2-198.5,134.8c-11.5,1.9-23.2,2.5-34.8,3.1c-2.5,0.1-4.4,0.3-4.2-3.5c1.1-21,2.1-41.9,2.9-62.9
	C413.8,534.6,414.8,533.5,418.3,533.3L418.3,533.3z M682.1,323.7c-20.9-2.2-41.7-4.3-62.6-6.3c-3.5-0.3-3.2-2.6-3.4-4.9
	c-1.9-33-10.8-64-28-92.1c-38.7-62.9-94.8-97.7-168.9-102.5c-3.7-0.2-4.6-1.2-4.8-4.8c-0.9-16.6-2.2-33.2-3.4-49.8
	c0.1,0,0.2,0,0.3,0c-0.2-4-0.2-8-0.7-12c-0.5-3.7,0.7-4.8,4.5-4.7c28.3,1.1,56.1,5.1,82.7,15c103.6,39,165.4,113.3,185.4,222.2
	c2.2,11.8,2.7,23.8,3.2,35.8C686.6,323.2,685.5,324,682.1,323.7L682.1,323.7z M414.4,17.3c30.9,0.6,61.2,5.1,90.2,15.6
	c113,41.1,183.8,120.5,206.2,238.7c31.2,165.2-78.6,323.5-244.1,356.6c-17.2,3.4-34.6,5.3-52.1,5.5c-3.2,0.1-4.4-0.6-4.1-4
	c0.4-4.8,0.4-9.7,0.3-14.5c0-3,1-3.8,4-3.9c31-0.6,61.4-5.6,90.3-16.9c103-40.4,165-115,185.5-223.8c2.4-13,3.2-26.1,3.6-39.3
	c0.1-3.2,0.1-5.8,4.8-5.7c-4.6-0.4-5.3-2.6-5.3-6.4c-1.6-129.7-96.3-245.3-223.1-272.8c-18.5-4-37.1-6.4-55.9-6.8
	c-3-0.1-4.1-0.7-4-3.9c0.1-4.7,0.1-9.4-0.5-14C409.4,17.8,410.8,17.2,414.4,17.3L414.4,17.3z M407.2,21.7c-0.5,4.5-0.7,9-0.6,13.5
	c0.1,3.3-0.8,4.5-4.4,4.6c-40.8,0.8-80,9.3-116.6,27.6c-90.2,45.2-143.9,117.7-160.3,217.4c-1.9,11.5-2.8,23.1-2.8,34.8
	c0,3.1,0.1,5.9-4.6,6c4.5,0,4.6,2.5,4.7,5.6c1.3,128.1,93.5,242.8,218.7,272.3c19.8,4.7,39.9,7.5,60.3,7.8c3.3,0.1,4.3,1,4.2,4.2
	c-0.2,4.5-0.3,9,0.3,13.5c0.6,4.3-1.2,4.8-4.9,4.7c-64.6-1.7-123.3-21.4-175.1-60c-68-50.7-109-118.1-122.3-201.8
	C78.5,213,184.7,58.2,341.8,24.4c20.2-4.4,40.7-6.9,61.4-7.2C406.9,17.2,407.6,18.3,407.2,21.7L407.2,21.7z M405.8,67.1
	c-0.2,0-0.4,0-0.6,0c-1,15-2,29.9-2.8,44.9c-0.2,4-1,5.8-5.8,6.1C302.7,124,227,187.5,205.2,278.3c-2.6,11-4.4,22.2-4.8,33.6
	c-0.1,3.8-0.9,5.6-5.5,6c-20.4,1.7-40.8,3.9-61.1,6.2c-3.5,0.4-4-0.7-4-3.8c1.9-129,96.6-242.7,222.9-267.8
	c15.9-3.2,31.9-4.7,48-5.7c4.6-0.3,5.6,1.1,5.2,5.4C405.4,57,405.8,62.1,405.8,67.1L405.8,67.1z M400,137.2
	c-3.8,38.6-8.5,77.1-22.1,113.7c-10,26.9-30.8,42-56.7,51.5c-19.6,7.2-40,9.6-60.5,12c-12.1,1.4-24.2,2.4-36.3,3.7
	c-6.4,0.7-6.4,0.8-6-5.8c5.2-87.1,71.3-160.6,157.3-175c7.1-1.2,14.2-1.8,21.3-2.4C398.6,134.7,400.2,134.3,400,137.2L400,137.2z
	 M400.1,511.7c0.4,3.2-1.1,4.7-4.5,4.6c-81.4-4.3-153.2-65.1-172.1-145.6c-2.7-11.4-4.5-22.8-5-34.5c-0.1-1.7-1-3.7,2.4-3.4
	c29.1,2.8,58.4,4.8,86.9,12c18.2,4.6,35.2,11.9,49.5,24.6c13.2,11.7,20.3,26.9,25.2,43.4c9.2,30.4,13.7,61.6,17,93.1
	C399.7,507.8,399.9,509.8,400.1,511.7L400.1,511.7z M246.7,457.9c39.2,46.8,89.3,72.4,150.6,75.5c3.3,0.2,4.2,1.1,4.3,4.2
	c0.5,12.1,1.3,24.3,2,36.4c0.3,0,0.5,0,0.8,0c0,8.7-0.2,17.3,0.1,26c0.1,3.5-0.6,4.5-4.3,4.3c-51.9-1.9-100-16.3-143.3-45.1
	c-69.5-46.3-110.8-111-124.2-193.5c-1.8-11.3-2.3-22.8-3-34.3c-0.2-3,0.4-4.2,3.8-3.8c21,2.3,42,4.5,63.1,6.5c3.3,0.3,3,2.1,3.2,4.3
	C202.5,383.2,217.8,423.4,246.7,457.9L246.7,457.9z"/>
</svg>
