<?xml version="1.0" encoding="utf-8"?>
<!-- Generator: Adobe Illustrator 28.1.0, SVG Export Plug-In . SVG Version: 6.00 Build 0)  -->
<svg version="1.1" id="Layer_1" xmlns="http://www.w3.org/2000/svg" xmlns:xlink="http://www.w3.org/1999/xlink" x="0px" y="0px"
	 viewBox="0 0 467 225.1" style="enable-background:new 0 0 467 225.1;" xml:space="preserve">
<style type="text/css">
	.st0{fill:#CCE1FF;}
</style>
<g>
	<path class="st0" d="M35.5,38.7h129.3l17.1,15.7c0.7,0.7,0.7,0.7,1.4,0.7l0,0c0.7,0,1.4,0,1.4-0.7l45.7-50c0.7-0.7,0.7-1.4,0.7-2.9
		c-0.7-0.7-1.4-1.4-2.1-1.4H61.2c-7.1-0.7-13.6,1.4-19.3,5c-5,4.3-9.3,11.4-9.3,24.3v5.7C32.7,37.3,34.1,38.7,35.5,38.7L35.5,38.7
		L35.5,38.7L35.5,38.7z M464.8,2.3H280.5L279.1,3l-33.6,31.4c-0.7,0.7-0.7,2.9,0,3.6s1.4,0.7,1.4,0.7h147.8l7.9,10.7
		c0.7,0.7,2.1,1.4,3.6,0.7l60-42.9c0.7-0.7,1.4-2.1,0-3.6C466.2,3,465.5,2.3,464.8,2.3L464.8,2.3L464.8,2.3z M403.3,198.7
		c-5,0.7-10,1.4-15,1.4c-43.6-1.4-79.3-35-82.9-78.6c-0.7-5.7-0.7-10.7-0.7-16.4c0-14.3,0.7-29.3,3.6-43.6c0-0.7,0-1.4-0.7-2.1
		c-0.7-0.7-1.4-0.7-2.1-0.7h-65.7c-0.7,0-2.1,0.7-2.1,1.4c-5.7,16.4-8.6,34.3-8.6,52.1c0,14.3,2.1,21.4,7.1,38.6
		c12.9,39.3,60,77.1,97.9,77.1c57.1,0,71.4-20,72.1-26.4C406.2,200.1,405.5,198.7,403.3,198.7L403.3,198.7L403.3,198.7L403.3,198.7z
		 M126.2,60.9l-2.1-0.7H49.8c-1.4,0-2.1,1.4-2.1,2.1c0,0.7,0,1.4,0.7,1.4c0,0,100.7,116.4,102.9,119.3c0,0,0,0.7,0.7,0.7l-0.7,0.7
		H92c-8.6,0-17.1-2.9-24.3-7.9c-2.9-2.1-5-5-7.1-7.9c-1.4,0-1.4,0-2.1,0s-1.4,0-2.1,0.7L0.5,220.8c-0.7,0.7-0.7,2.9,0,3.6
		s0.7,0.7,1.4,0.7h207.8c12.1,0,20-12.9,20.7-25c0-5-1.4-10-4.3-13.6C217.6,175.9,126.2,60.9,126.2,60.9z"/>
</g>
</svg>
