<?xml version="1.0" encoding="UTF-8"?>
<svg xmlns="http://www.w3.org/2000/svg" xmlns:xlink="http://www.w3.org/1999/xlink" width="px" height="1000px" viewBox="0 0 988 999" version="1.1">
<g id="surface1">
<path style=" stroke:none;fill-rule:nonzero;fill:rgb(100%,100%,100%);fill-opacity:1;" d="M 493.148438 0 C 233.183594 0 20.222656 202.160156 0 459.054688 L 265.230469 569.652344 C 288.390625 553.632812 315.894531 545.066406 344.0625 545.097656 C 346.695312 545.097656 349.296875 545.171875 351.859375 545.316406 L 469.824219 372.863281 L 469.824219 370.449219 C 469.824219 266.679688 553.535156 182.234375 656.4375 182.234375 C 759.335938 182.234375 843.046875 266.679688 843.046875 370.449219 C 843.046875 474.210938 759.335938 558.691406 656.4375 558.691406 C 655.007812 558.691406 653.621094 558.65625 652.199219 558.621094 L 483.957031 679.648438 C 484.066406 681.894531 484.136719 684.132812 484.136719 686.339844 C 484.136719 764.269531 421.292969 827.648438 344.0625 827.648438 C 276.269531 827.648438 219.546875 778.828125 206.730469 714.203125 L 17.019531 635.09375 C 75.769531 844.585938 266.617188 998.175781 493.148438 998.175781 C 766.460938 998.175781 988 774.699219 988 499.085938 C 988 223.445312 766.460938 0 493.148438 0 Z M 310.109375 757.28125 L 249.328125 731.945312 C 260.082031 754.578125 278.738281 773.507812 303.484375 783.902344 C 356.964844 806.390625 418.632812 780.804688 440.925781 726.820312 C 451.71875 700.863281 451.78125 671.691406 441.101562 645.6875 C 430.421875 619.496094 410.230469 599.066406 384.347656 588.179688 C 358.605469 577.398438 331.046875 577.789062 306.832031 587.007812 L 369.644531 613.195312 C 409.09375 629.78125 427.75 675.46875 411.300781 715.257812 C 394.886719 755.039062 349.558594 773.867188 310.109375 757.28125 Z M 780.785156 370.449219 C 780.785156 301.308594 724.992188 245.011719 656.449219 245.011719 C 587.871094 245.011719 532.078125 301.308594 532.078125 370.449219 C 532.078125 439.589844 587.871094 495.851562 656.449219 495.851562 C 724.992188 495.851562 780.785156 439.589844 780.785156 370.449219 Z M 563.234375 370.234375 C 563.234375 318.210938 605.070312 276.042969 656.628906 276.042969 C 708.222656 276.042969 750.058594 318.210938 750.058594 370.234375 C 750.058594 422.261719 708.222656 464.429688 656.625 464.429688 C 605.070312 464.429688 563.230469 422.261719 563.230469 370.238281 Z M 563.234375 370.234375 "/>
</g>
</svg>
