<?xml version="1.0" encoding="UTF-8"?>
<svg id="_레이어_1" data-name="레이어 1" xmlns="http://www.w3.org/2000/svg" viewBox="0 0 327.995 425.197">
  <defs>
    <style>
      .cls-1 {
        fill: #fff;
        stroke-width: 0px;
      }
    </style>
  </defs>
  <path class="cls-1" d="M173.198,0c26.252.669,57.834,4.316,88.016,16.015,9.527,3.693,18.377,8.603,25.943,15.626,18.746,17.4,21.964,49.468,6.568,68.459-10.339,12.754-24.392,17.269-39.998,14.371-18.083-3.357-35.76-8.858-53.802-12.494-22.395-4.514-45.024-6.027-67.569-.636-8.39,2.006-15.753,5.784-17.64,15.291-1.898,9.56,2.992,16.392,9.955,21.991,10.003,8.043,22.113,11.536,34.137,14.978,28.581,8.182,57.793,14.257,85.435,25.563,25.097,10.265,47.936,23.793,63.651,46.702,39.817,58.043,18.141,143.492-44.408,176.077-40.397,21.045-83.7,25.742-128.209,22.165-34.905-2.805-68.622-10.615-99.179-28.795-9.207-5.478-17.515-12.068-24.23-20.511-14.586-18.337-15.854-44.049-3.108-62.838,10.658-15.711,27.33-22.026,45.784-16.98,16.89,4.618,32.454,12.832,48.991,18.453,29.798,10.129,60.172,14.261,91.484,9.3,4.69-.743,9.202-2.089,13.461-4.238,13.104-6.61,15.936-20.738,6.328-31.929-6.182-7.2-14.4-11.365-22.937-14.962-23.331-9.833-47.991-15.738-71.79-24.192-25.015-8.886-49.008-19.505-70.283-35.957C-5.957,168.341-9.726,66.013,66.384,23.455,97.819,5.878,131.888-.041,173.198,0Z"/>
</svg>