<?xml version="1.0" encoding="UTF-8"?>
<svg id="_레이어_1" data-name="레이어 1" xmlns="http://www.w3.org/2000/svg" viewBox="0 0 1692.074 1016.341">
  <defs>
    <style>
      .cls-1 {
        fill: #fefefe;
      }

      .cls-1, .cls-2, .cls-3 {
        stroke-width: 0px;
      }

      .cls-2 {
        fill: #010101;
      }

      .cls-3 {
        fill: #80b946;
      }
    </style>
  </defs>
  <path class="cls-3" d="M543.712,2.303C563.707-.047,583.8.106,603.875.088c86.309-.076,172.619-.049,258.928-.058,116.479-.011,232.958-.021,349.436-.031,9.593,3.885,19.959.847,29.864,3.519,6.011,1.621,12.672,1.255,19.047,2.315,9.856,1.639,19.701,3.261,29.443,5.478,6.649,1.513,13.331,2.834,19.957,4.51,12.471,3.156,24.831,6.603,37.044,10.629,29.998,9.889,58.514,23.129,86.136,38.318,14.371,7.902,28.249,16.631,41.612,26.192,11.058,7.912,21.744,16.289,32.574,24.488,7.969,6.033,14.088,13.962,21.935,19.868,5.362,4.036,9.96,8.701,14.805,13.195,9.762,9.054,17.674,19.808,26.985,29.314,6.744,6.885,11.588,15.589,17.905,22.944,9.674,11.263,16.709,24.305,25.334,36.267,4.682,6.494,8.534,13.618,12.424,20.643,5.092,9.195,10.361,18.347,14.639,27.926,7.004,15.681,14.464,31.194,19.902,47.54,3.916,11.773,8.673,23.342,11.547,35.362,2.299,9.615,4.664,19.275,6.814,28.941,2.701,12.145,5.009,24.395,7.074,36.603,1.275,7.534,1.967,15.415,2.825,23.113,2.975,26.7,1.785,53.441,1.46,80.136-.131,10.764-1.235,21.729-3.209,32.501-1.152,6.287-1.185,12.756-2.24,19.14-.804,4.867-1.779,9.752-2.947,14.47-1.969,7.954-3.168,16.052-5.094,24.014-2.149,8.889-4.457,17.711-7.1,26.453-6.68,22.099-14.579,43.768-24.19,64.753-7.899,17.246-16.55,34.164-26.591,50.269-9.048,14.513-17.983,29.222-28.472,42.671-7.912,10.146-16.05,20.237-24.515,30.027-12.408,14.351-26.143,27.3-39.566,40.547-9.774,9.646-20.668,18.237-31.585,26.695-25.528,19.776-52.643,37.077-81.442,51.596-22.903,11.547-46.532,21.511-71.016,29.346-14.667,4.694-29.42,8.941-44.489,12.247-10.437,2.29-20.881,4.246-31.413,6.021-10.243,1.726-20.647,2.228-30.751,4.156-10.158,1.938-20.202.948-30.268,1.65-63.846,4.45-127.766,1.514-191.646,1.761-135.969.525-271.942.132-407.913.305-13.17.017-26.202-1.026-39.253-2.355.316-.525.635-1.509.949-1.508,7.401.036,14.23-2.788,21.347-4.11,10.969-2.037,22.042-3.862,32.818-6.497,11.349-2.776,22.728-5.727,33.951-9.248,23.056-7.234,45.445-16.009,67.327-26.143,20.606-9.543,40.022-21.158,59.149-33.407,17.214-11.024,33.469-23.303,49.278-36.105,8.733-7.072,17.132-14.733,25.262-22.639,16.471-16.019,31.883-32.989,46.266-50.825,7.302-9.054,13.991-18.696,20.709-28.265,8.933-12.724,16.862-26.044,24.703-39.396,8.32-14.168,15.407-29.05,22.087-44.069,4.438-9.979,8.182-20.272,12.056-30.493.729-1.923,2.046-4.781-2.246-4.766-22.328.079-44.656.099-66.983.181-2.127.008-3.683.864-4.571,3.115-8.524,21.62-19.755,41.813-32.022,61.514-9.778,15.704-20.611,30.672-32.175,45.004-6.936,8.596-14.436,16.887-22.258,24.853-19.715,20.078-40.62,38.69-63.62,54.894-14.307,10.08-29.215,19.254-44.422,27.904-7.282,4.142-14.96,7.583-22.398,11.458-2.221,1.157-4.374,1.139-5.992-.484-1.794-1.801.148-3.275,1.22-4.651,6.578-8.439,12.906-17.057,19.241-25.682,14.675-19.979,25.578-41.996,36.196-64.188,10.305-21.538,18.004-44.081,24.984-66.889,6.357-20.773,11.389-41.868,15.975-63.085.608-2.813-.447-3.556-2.941-3.641-20.991-.717-41.985-.283-62.978-.121-1.936.015-4.13.238-4.749,2.758-1.368,5.573-2.97,11.105-3.99,16.743-1.634,9.031-4.529,17.719-7.032,26.491-3.132,10.972-7.198,21.68-10.827,32.507-7.162,21.368-15.887,42.057-26.412,61.909-8.584,16.188-17.717,32.096-28.852,46.817-6.862,9.072-13.499,18.341-21.164,26.71-13.707,14.964-29.196,27.999-45.853,39.584-6.116,4.254-12.514,8.137-19.362,11.167-5.04,2.23-7.874.314-7.527-5.061.236-3.651.808-7.296.806-10.943-.026-58.484-.139-116.967-.19-175.451-.02-22.303.044-44.606.122-66.909.018-5.15-1.179-6.446-7.594-6.463-18.829-.048-37.659.008-56.488.147-6.217.046-6.639.62-6.592,7.096.609,83.801-1.292,167.611.831,251.408.188,7.434-2.188,9.056-9.013,5.797-9.581-4.575-18.767-10.089-26.899-16.79-10.465-8.623-21.13-17.067-30.837-26.628-3.61-3.555-5.954-7.961-9.47-11.521-11.451-11.596-20.772-24.898-29.362-38.629-12.139-19.404-22.522-39.764-31.665-60.786-11.664-26.816-20.744-54.502-28.454-82.64-3.8-13.866-6.867-27.954-9.645-42.065-.85-4.316-2.286-8.598-2.472-12.998-.238-5.641-1.749-11.074-2.585-16.582-1.333-8.773-2.218-17.596-3.553-26.357-1.223-8.026-1.372-16.164-2.52-24.143-1.768-12.293-2.867-24.76-3.03-36.984-.395-29.723-2.168-59.538,1.541-89.231.674-5.399.282-10.908.994-16.385,1.34-10.321,1.624-20.792,3.263-31.055.939-5.881.813-11.984,2.258-17.578,2.381-9.219,3.571-18.658,5.142-27.926,1.89-11.148,4.579-22.132,6.869-33.145,2.377-11.43,5.862-22.746,9.278-34.011,5.871-19.359,12.372-38.452,20.053-57.154,9.725-23.68,21.427-46.347,34.941-68.083,7.259-11.675,15.267-22.863,24.401-33.091,10.186-11.407,20.931-22.352,32.411-32.488,11.985-10.582,25.138-19.578,39.39-26.841,6.525-3.325,8.362-1.925,8.359,5.232-.029,70.312-.034,140.623-.035,210.935,0,7.663.009,15.327.146,22.988.046,2.577.452,4.555,4.211,4.51,20.325-.241,40.654-.241,60.98-.078,3.928.032,4.939-1.578,4.841-5.014-.113-3.988-.029-7.982-.017-11.974.172-60.964.364-121.929.506-182.893.031-13.161-.201-26.324-.143-39.485.024-5.44,1.869-6.803,6.22-4.796,13.485,6.217,25.671,14.593,36.988,24.041,11.081,9.251,22.192,18.577,31.22,30.042,5.532,7.026,11.734,13.548,16.969,20.778,7.252,10.016,13.717,20.572,20.183,31.14,12.022,19.648,21.283,40.624,30.112,61.725,6.033,14.419,11.657,29.152,15.462,44.436,2.134,8.573,5.594,16.76,7.2,25.519.588,3.206,1.297,6.809,6.775,6.458,20.454-1.309,40.952-.366,61.43-.182,3.657.033,4.152-.998,3.658-4.025-1.006-6.173-2.719-12.237-4.376-18.188-4.965-17.83-10.389-35.571-16.583-53.009-8.365-23.552-18.288-46.433-30.493-68.37-11.612-20.871-24.675-40.604-40.253-58.683-1.451-1.684-3.345-3.776-1.987-5.67,1.452-2.025,4.166-1.11,6.332-.155.454.2.874.476,1.317.703,24.26,12.409,47.887,25.768,70.032,41.836,14.124,10.248,27.519,21.326,40.27,33.056,21.531,19.806,41.158,41.459,58.042,65.503,12.651,18.017,25.121,36.134,34.135,56.302,3.271,7.319,6.4,11.084,16.169,10.475,21.512-1.341,43.201-1.231,65.143.287-2.284-4.936-4.719-9.649-6.69-14.548-9.323-23.175-21.683-44.759-34.829-65.881-7.429-11.938-15.598-23.404-23.968-34.757-8.859-12.016-18.044-23.847-28.045-34.733-13.23-14.402-27.127-28.284-41.995-41.207-16.039-13.941-32.868-26.742-50.11-39.035-13.96-9.954-28.918-18.387-43.872-26.775-27.15-15.228-55.878-26.789-85.37-36.512-9.147-3.015-18.445-5.55-27.83-7.853-8.439-2.071-16.866-4.089-25.376-5.858-8.075-1.678-16.252-2.657-24.329-4.143-11.179-2.057-22.205-4.697-33.668-4.937-2.62-.055-6.076.89-7.959-2.378ZM1179.412,264.62c-64.662,2.017-125.592,27.371-173.339,80.557-47.457,52.864-68.917,115.489-61.854,186.34,6.155,61.74,33.095,114.29,79.459,155.514,53.922,47.945,117.531,69.016,189.633,60.699,62.209-7.176,114.133-35.42,154.786-82.671,45.819-53.256,65.474-115.492,57.741-185.708-12.11-109.957-106.337-212.808-246.426-214.731ZM519.698,601.662c8.158,0,16.424.818,24.445-.232,7.865-1.031,15.785-2.503,23.375-5.431,14.462-5.579,27.948-12.368,36.68-25.899,5.646-8.749,10.211-18.155,11.588-28.487.981-7.367-.47-15.047.392-22.445.859-7.365-3.134-14.451-.572-21.769.151-.432-.982-1.251-1.404-1.958-3.33-5.578-7.424-10.533-11.645-15.478-8.518-9.98-18.813-17.45-31.036-21.7-10.686-3.716-21.444-7.222-32.847-8.963-8.832-1.348-17.825-2.822-26.49-5.405-8.2-2.445-16.942-3.153-23.595-9.892-4.49-4.549-6.683-15.861-2.982-21.178,5.984-8.594,14.892-12.406,24.596-12.629,11.665-.268,23.378-1.346,35.161,1.414,7.593,1.779,15.472,3.152,23.07,4.909,9.314,2.153,18.523,5.412,27.46,9.226,10.532,4.494,11.107,3.85,10.083-7.744-.029-.332.011-.676-.064-.996-2.247-9.682-1.202-19.405-.128-29.08.617-5.561-2.309-12.893-6.484-13.814-6.237-1.375-12.482-2.892-18.738-3.967-10.381-1.784-20.696-4.062-31.287-4.762-21.042-1.389-42.053-2.939-62.807,2.41-19.534,5.034-38.111,11.664-50.056,29.638-3.46,5.207-6.222,10.667-8.482,16.476-3.743,9.621-2.613,19.643-2.986,29.574-.287,7.64,1.437,14.766,4.136,21.793,3.856,10.039,10.965,18.072,16.52,27.062.281.454.221,1.26,1.2,1.178,3.985-.334,6.804,2.481,10.159,3.855,6.928,2.838,13.639,6.551,20.829,8.326,9.817,2.422,19.654,4.896,29.615,6.858,7.789,1.535,15.678,3.139,23.306,5.471,9.793,2.994,20.707,4.059,24.072,17.044,2.207,8.517-.001,19.26-8.882,23.032-9.259,3.933-19.008,3.834-28.499,5.665-4.924.95-9.812-1.354-14.637-1.615-8.991-.486-17.637-2.087-26.404-3.963-16.112-3.448-31.513-8.609-46.142-16.127-2.911-1.496-4.313-1.577-4.399,2.528-.11,5.216,2.335,9.847,2.18,15.176-.338,11.625.444,23.28.693,34.924.068,3.189,1.448,4.843,4.41,6.35,8.22,4.182,17.423,5.08,26.04,6.36,11.418,1.696,22.851,4.152,34.703,4.039,8.547-.081,17.247-.157,25.856.226ZM724.248,425.553c-.158,1.708-.3,2.523-.3,3.338-.014,40.31.008,80.621-.052,120.931-.007,4.906,1.516,9.449,3.332,13.769,3.189,7.586,6.931,14.882,12.87,20.931,3.272,3.333,4.359,8.322,10.397,9.321,6.675,1.104,12.559,5.01,19.474,6.416,13.781,2.802,27.203,2.568,40.517-1.434,10.251-3.08,19.621-8.175,28.647-13.938,10.351-6.609,12.126-5.973,13.329,6.301.412,4.2,2.313,4.61,5.004,4.643,13.055.161,26.113.128,39.169.108,3.129-.005,3.816-2.352,3.857-4.794.071-4.155-.184-8.315-.19-12.473-.053-38.921-.243-77.843.011-116.762.055-8.386-1.294-16.814,1.165-25.274,1.612-5.545-2.711-9.627-8.647-9.654-13.316-.061-26.631-.166-39.947-.176-9.016-.007-8.98.052-8.993,8.895-.053,35.135-.232,70.271-.065,105.405.02,4.243-1.645,7.186-4.487,9.301-10.428,7.759-22.389,12.151-35.242,13.084-4.433.322-9.268-1.176-13.45-4.237-8.808-6.448-11.937-15.078-11.84-25.544.115-12.49-.101-24.984-.119-37.476-.032-21.565-.079-43.13.022-64.694.017-3.678-1.974-3.966-4.769-3.939-13.325.126-26.65.154-39.975.285-3.176.031-6.302.04-9.719-2.333ZM1537.652,491.776l-.015-.367c-5.442.543-10.874,1.313-16.33,1.584-15.1.75-30.016,2.536-44.121,8.299-19.275,7.876-34.602,19.032-38.152,41.872-1.342,8.636,1.057,16.212,1.993,24.256.863,7.416,6.22,12.655,9.259,19.017,1.134,2.373,2.781,5.292,4.949,6.246,10.293,4.529,20.616,9.188,32.258,9.246,12.41.061,24.705.118,36.777-3.881,10.865-3.599,21.348-7.881,31.323-13.446,6.914-3.858,7.829-3.717,11.509,3.005,1.813,3.312,3.581,6.538,6.652,8.903,3.201,2.465,7.079,3.523,10.691,5.005,1.882.772,3.909-1.412,5.546-2.707,5.889-4.657,11.275-9.885,16.423-15.337,2.407-2.549,4.873-4.722,8.139-6.292,6.199-2.98,6.374-6.01,1.573-10.877-1.176-1.192-2.472-1.899-3.754-2.803-3.777-2.664-6.576-5.629-6.683-11.264-.55-29.222,2.393-58.537-1.89-87.653-.732-4.975,1.647-11.143-4.33-14.533-2.335-1.325-3.514-3.348-4.517-5.622-2.082-4.717-5.882-8.185-9.823-10.96-13.008-9.158-27.773-13.298-43.645-13.676-2.309-.055-4.702-.231-6.893-.893-5.745-1.736-11.699-1.61-17.31-.652-12.157,2.075-24.661,1.802-36.555,5.642-8.009,2.586-16.166,4.717-23.557,8.921-1.955,1.112-2.578,2.139-1.772,4.723,2.543,8.151,4.43,16.505,6.74,24.732,1.983,7.065,3.308,7.354,9.411,2.518.641-.508,1.403-.866,2.126-1.264,12.517-6.895,26.534-8.606,40.186-11.53,6.353-1.361,12.315,1.825,18.536,2.458,3.718.378,7.911,2.476,11.26,5.556,6.979,6.419,9.022,14.495,9.364,23.399.21,5.451-1.935,7.955-7.382,8.343-2.649.189-5.322.033-7.985.033Z"/>
  <path class="cls-2" d="M543.712,2.303c1.884,3.267,5.339,2.323,7.959,2.378,11.463.24,22.489,2.881,33.668,4.937,8.077,1.486,16.254,2.465,24.329,4.143,8.511,1.769,16.938,3.787,25.376,5.858,9.385,2.303,18.684,4.838,27.83,7.853,29.492,9.723,58.22,21.283,85.37,36.512,14.954,8.388,29.912,16.821,43.872,26.775,17.241,12.293,34.071,25.094,50.11,39.035,14.868,12.924,28.765,26.806,41.995,41.207,10.001,10.886,19.186,22.718,28.045,34.733,8.37,11.353,16.538,22.819,23.968,34.757,13.145,21.123,25.506,42.706,34.829,65.881,1.971,4.899,4.405,9.613,6.69,14.548-21.942-1.518-43.631-1.628-65.143-.287-9.769.609-12.898-3.156-16.169-10.475-9.015-20.169-21.484-38.286-34.135-56.302-16.883-24.044-36.51-45.696-58.042-65.503-12.751-11.729-26.146-22.808-40.27-33.056-22.145-16.067-45.772-29.427-70.032-41.836-.443-.227-.863-.503-1.317-.703-2.166-.955-4.88-1.871-6.332.155-1.358,1.894.536,3.985,1.987,5.67,15.578,18.079,28.641,37.812,40.253,58.683,12.205,21.937,22.128,44.818,30.493,68.37,6.194,17.439,11.619,35.179,16.583,53.009,1.657,5.951,3.37,12.015,4.376,18.188.494,3.028-.001,4.058-3.658,4.025-20.478-.184-40.976-1.127-61.43.182-5.479.351-6.187-3.253-6.775-6.458-1.607-8.759-5.066-16.946-7.2-25.519-3.805-15.284-9.43-30.017-15.463-44.436-8.828-21.101-18.09-42.077-30.112-61.725-6.466-10.568-12.931-21.124-20.183-31.14-5.235-7.23-11.437-13.752-16.969-20.778-9.028-11.465-20.138-20.791-31.22-30.042-11.317-9.448-23.504-17.824-36.989-24.041-4.351-2.006-6.196-.643-6.22,4.796-.058,13.161.173,26.323.143,39.485-.142,60.964-.334,121.929-.506,182.893-.011,3.992-.096,7.986.017,11.974.098,3.436-.913,5.046-4.841,5.014-20.326-.163-40.655-.164-60.98.078-3.759.045-4.165-1.933-4.211-4.51-.137-7.661-.146-15.325-.146-22.988,0-70.312.006-140.623.035-210.935.003-7.157-1.834-8.557-8.359-5.232-14.252,7.263-27.405,16.258-39.39,26.841-11.48,10.136-22.226,21.081-32.411,32.488-9.134,10.229-17.142,21.416-24.401,33.091-13.514,21.736-25.215,44.403-34.941,68.083-7.681,18.702-14.183,37.795-20.053,57.154-3.416,11.266-6.901,22.581-9.278,34.011-2.29,11.013-4.979,21.998-6.869,33.145-1.571,9.268-2.761,18.707-5.142,27.926-1.445,5.594-1.319,11.696-2.258,17.578-1.639,10.262-1.922,20.734-3.263,31.055-.711,5.477-.319,10.986-.994,16.385-3.708,29.693-1.936,59.508-1.541,89.231.162,12.224,1.262,24.691,3.03,36.984,1.148,7.979,1.297,16.117,2.52,24.143,1.335,8.761,2.221,17.584,3.553,26.357.837,5.508,2.347,10.942,2.585,16.582.186,4.4,1.622,8.682,2.472,12.998,2.778,14.11,5.845,28.199,9.645,42.065,7.711,28.138,16.791,55.824,28.454,82.64,9.143,21.021,19.525,41.382,31.665,60.786,8.59,13.731,17.911,27.033,29.362,38.629,3.516,3.561,5.86,7.966,9.47,11.521,9.707,9.561,20.372,18.005,30.838,26.628,8.132,6.7,17.317,12.215,26.899,16.79,6.825,3.259,9.201,1.637,9.013-5.797-2.123-83.797-.222-167.606-.831-251.408-.047-6.476.375-7.05,6.592-7.096,18.829-.139,37.659-.195,56.488-.147,6.414.016,7.612,1.312,7.594,6.463-.078,22.303-.141,44.606-.122,66.909.051,58.484.164,116.967.19,175.451.002,3.647-.57,7.292-.806,10.943-.348,5.375,2.487,7.292,7.527,5.061,6.849-3.031,13.246-6.914,19.362-11.167,16.657-11.585,32.146-24.62,45.853-39.584,7.665-8.368,14.302-17.638,21.164-26.71,11.135-14.721,20.268-30.629,28.852-46.817,10.526-19.851,19.251-40.541,26.412-61.909,3.629-10.827,7.695-21.535,10.827-32.507,2.504-8.772,5.398-17.46,7.032-26.491,1.02-5.637,2.621-11.17,3.99-16.743.619-2.52,2.814-2.743,4.749-2.758,20.992-.163,41.986-.597,62.978.121,2.494.085,3.549.828,2.941,3.641-4.586,21.217-9.618,42.312-15.975,63.085-6.98,22.807-14.679,45.351-24.984,66.889-10.618,22.192-21.522,44.21-36.196,64.188-6.335,8.624-12.663,17.243-19.241,25.682-1.072,1.376-3.015,2.85-1.22,4.651,1.618,1.623,3.771,1.641,5.992.484,7.438-3.875,15.116-7.316,22.398-11.458,15.207-8.65,30.115-17.825,44.422-27.904,23-16.204,43.905-34.817,63.62-54.894,7.822-7.966,15.323-16.257,22.258-24.853,11.564-14.332,22.397-29.3,32.175-45.004,12.267-19.701,23.499-39.894,32.022-61.514.888-2.251,2.444-3.107,4.571-3.115,22.328-.083,44.656-.103,66.983-.181,4.292-.015,2.975,2.843,2.246,4.766-3.874,10.221-7.618,20.514-12.056,30.493-6.68,15.019-13.767,29.901-22.087,44.069-7.841,13.353-15.77,26.672-24.703,39.396-6.717,9.569-13.407,19.21-20.709,28.265-14.383,17.836-29.796,34.807-46.266,50.825-8.13,7.906-16.528,15.567-25.262,22.639-15.809,12.802-32.064,25.08-49.278,36.105-19.126,12.249-38.542,23.865-59.149,33.407-21.883,10.134-44.272,18.909-67.327,26.143-11.223,3.521-22.602,6.473-33.951,9.248-10.776,2.635-21.849,4.46-32.818,6.497-7.117,1.322-13.947,4.146-21.347,4.11-.314-.002-.633.983-.949,1.508-27.236,2.027-54.539,2.665-81.806,1.888-13.359-.381-26.775-1.435-40.153-3.101-11.159-1.39-22.202-3.601-33.406-4.753-7.904-.812-15.618-3.407-23.442-5.085-8.293-1.778-16.396-4.254-24.586-6.391-12.732-3.321-25.071-7.736-37.283-12.446-21.534-8.305-42.681-17.512-62.908-28.759-14.789-8.224-29.253-16.994-43.385-26.243-9.439-6.178-17.742-14.063-26.97-20.597-11.061-7.832-20.893-17.111-31.111-25.887-10.049-8.63-19.962-17.642-27.639-28.674-.283-.407-.605-.802-.97-1.135-10.776-9.834-19.677-21.347-28.408-32.898-5.98-7.911-11.747-16.044-17.387-24.245-7.722-11.227-14.597-22.897-21.553-34.568-6.821-11.444-12.822-23.304-18.513-35.307-10.426-21.992-18.526-44.923-25.98-68.05-3.942-12.231-7.535-24.665-9.993-37.259-2.638-13.52-4.755-27.171-6.544-40.877-2.148-16.457-2.738-32.97-4.244-49.415-.877-9.58-2.171-19.209-1.295-28.639,1.357-14.604,1.578-29.27,3.132-43.86.871-8.179,1.185-16.472,2.782-24.516,1.237-6.232,1.364-12.622,3.268-18.771,1.286-4.154,1.317-8.624,2.339-12.954,1.782-7.553,4.194-14.942,5.829-22.494,2.911-13.452,7.67-26.27,11.958-39.281,4.408-13.374,9.885-26.272,15.389-39.192,5.394-12.661,11.524-24.993,18.206-36.963,10.292-18.436,21.574-36.291,34.298-53.229,7.524-10.016,15.569-19.591,23.259-29.429,12.918-16.527,27.619-31.222,42.712-45.576,7.839-7.455,16.133-14.588,24.702-21.13,13.346-10.189,26.698-20.406,40.817-29.641,20.186-13.204,41.195-24.814,62.882-35.188,22.35-10.691,45.599-19.32,69.307-26.423,11.631-3.485,23.552-6.257,35.506-8.786,7.542-1.596,15.17-3.279,22.706-5.107,5.321-1.291,10.988-1.597,16.498-2.393,9.991-1.444,20.226-1.355,30.199-2.472,25.393-2.845,50.775-.812,76.141-1.571.495-.015.993.1,1.49.155ZM72.061,507.334c-.236,20.391,1.616,38.792,3.678,57.262,1.843,16.511,5.031,32.696,8.673,48.785,4.043,17.86,9.592,35.39,16.242,52.453,10.134,26,22.579,50.91,37.384,74.616,7.345,11.761,15.555,22.864,23.84,33.976,9.539,12.795,20.457,24.323,30.936,36.249,8.769,9.98,19.012,18.506,28.904,27.38,5.567,4.994,11.289,9.906,17.149,14.383,12.851,9.819,25.793,19.656,39.796,27.846,14.434,8.441,28.748,17.142,44.145,23.814.913.396,1.867.695,2.787,1.077,1.282.533,2.578.955,3.646-.319,1.027-1.226.745-2.633-.162-3.672-2.511-2.878-3.555-6.82-6.703-9.204-4.614-3.493-7.205-8.667-10.488-13.17-7.006-9.61-13.072-19.868-19.238-30.068-11.1-18.364-20.157-37.727-28.177-57.467-7.452-18.343-13.717-37.214-19.008-56.391-5.137-18.618-9.969-37.262-13.718-56.22-.823-4.162-.951-8.53-2.351-12.495-2.056-5.823-1.903-11.971-3.05-17.905-.767-3.967-2.495-7.836-2.36-12.033.239-7.457-1.394-14.847-2.494-22.076-2.381-15.645-3.993-31.461-4.997-47.085-1.824-28.372-.92-56.929-.841-85.409.043-15.588.499-31.17,2.262-46.707.93-8.196,1.782-16.452,2.62-24.643.593-5.801.49-11.895,2.103-17.58,1.991-7.014,1.614-14.308,3.107-21.406.763-3.63,2.084-7.253,2.252-11.028.389-8.733,2.783-17.176,4.63-25.589,2.231-10.16,4.588-20.352,7.188-30.463,3.949-15.361,8.118-30.649,13.145-45.667,4.944-14.771,10.535-29.306,16.787-43.622,9.229-21.133,19.619-41.621,32.132-60.943,6.761-10.44,13.535-20.974,22.309-30.02,2.535-2.614,4.002-6.273,5.902-9.487.486-.823,1.008-1.688.131-2.722-.977-1.152-1.754-.238-2.62.036-1.412.447-2.858.804-4.236,1.336-11.116,4.295-21.175,10.697-31.41,16.594-16.622,9.576-32.664,20.106-48.009,31.749-10.974,8.327-21.474,17.185-31.519,26.495-10.464,9.698-20.487,19.893-29.861,30.788-9.169,10.657-18.202,21.329-26.61,32.613-9.863,13.237-18.775,27.018-27,41.304-9.965,17.308-18.873,35.123-25.964,53.789-4.518,11.893-8.728,23.917-12.646,36.021-2.509,7.751-4.403,15.716-6.266,23.658-1.852,7.899-3.335,15.885-4.952,23.839-1.049,5.157-2.831,10.314-2.892,15.487-.096,8.144-2.833,15.897-2.552,24.138.119,3.502.919,7.447-.08,10.735-2.902,9.547-.748,19.213-1.543,26.967ZM527.985,814.993c0-16.481-.129-32.963.093-49.441.053-3.968-1.187-5.251-5.046-5.2-9.317.125-18.643.104-27.955-.188-4.339-.136-5.777,1.377-5.764,5.73.056,18.141-.338,36.284-.287,54.425.043,15.306-.565,30.622.568,45.923.223,3.018,1.244,3.751,4.189,3.687,9.651-.211,19.317-.293,28.963.017,4.365.141,5.351-1.511,5.309-5.512-.171-16.479-.072-32.961-.071-49.441ZM471.48,20.323c-6.064-1.483-11.564.833-17.247,1.564-2.343.302-1.853,1.298-1.625,3.021,1.259,9.512,2.507,19.037,3.304,28.596.507,6.089,1.533,7.399,7.529,6.448,6.022-.955,12.242-1.385,18.163-1.601,23.286-.85,46.64-1.066,69.894,1.527,7.997.892,8.008.759,8.786-7.323.079-.821.257-1.633.372-2.451,1.108-7.858,2.297-15.707,3.24-23.585.17-1.42,1.103-4.142-.836-4.303-3.225-.268-5.903-2.38-9.094-2.2-11.633.656-23.167-1.345-34.803-1.094-15.951.344-31.924-.382-47.683,1.401ZM527.985,201.942c0-16.818-.066-33.637.064-50.455.022-2.81-.724-3.627-3.562-3.579-10.155.171-20.318.198-30.472-.007-3.345-.068-4.764.756-4.725,4.323.116,10.652-.109,21.307-.054,31.96.115,22.472.363,44.944.449,67.416.012,3.192.66,4.58,4.377,4.462,9.982-.317,19.984-.265,29.97-.021,3.371.083,4.055-.984,4.026-4.144-.155-16.651-.072-33.304-.072-49.956ZM530.351,998.532c10.289,1.155,19.33-2.007,28.66-1.874,2.649.038,5.303-.823,4.335-5.656-1.871-9.34-2.504-18.95-3.273-28.479-.293-3.632-1.56-4.737-5.151-4.814-3.465-.075-6.183,2.298-9.514,2.118-11.291-.609-22.529.593-33.781,1.078-12.857.554-25.598-1.878-38.447-1.092-3.13.191-6.118-.071-9.169-1.497-4.074-1.904-7.917-.398-7.928,2.812-.036,10.646-2.681,21.081-2.318,31.75.082,2.397.752,3.785,3.306,3.956,14.645.981,29.279,2.138,43.933,2.946,10.104.558,20.206-.157,29.346-1.247ZM254.215,559.906c-4.161,0-8.327-.131-12.481.028-8.334.319-10.215,2.061-9.598,10.163.936,12.28,2.434,24.516,3.546,36.784.375,4.134-.134,8.378.515,12.452,2.44,15.317,5.133,30.596,7.899,45.859.352,1.943.413,4.806,4.16,3.86,10.802-2.727,21.955-3.872,32.649-7.135.879-.268,2.626-.076,1.959-1.31-1.535-2.84-.233-5.906-1.291-8.736-2.349-6.281-1.729-13.111-3.51-19.536-1.891-6.825-1.334-14.04-2.502-20.9-1.453-8.538-2.667-17.099-3.421-25.684-.679-7.735-.771-15.508-2.01-23.218-.352-2.192-.882-2.729-2.934-2.667-4.323.132-8.653.04-12.981.041ZM231.714,445.954c.101.011.203.022.304.034,0,1.996.165,4.009-.038,5.985-.314,3.061.412,4.274,3.938,4.099,5.273-.262,10.715-.983,15.851.821,4.9,1.721,9.871.762,14.806.982,2.167.097,3.196-1.201,3.462-3.385.923-7.577,2.112-15.127,1.975-22.795-.139-7.769,1.459-15.464,2.602-23.001,1.19-7.843,1.164-15.907,3.366-23.622,2.001-7.01,1.243-14.499,3.684-21.498.812-2.328,1.49-6.512-.499-7.213-2.45-.864-4.972-2.109-7.751-2.548-7.472-1.182-14.907-2.749-22.236-4.63-5.41-1.389-6.433-.887-7.208,4.586-.748,5.279-1.96,10.491-2.842,15.753-1.106,6.599-2.047,13.225-3.123,19.829-1.45,8.899-2.197,17.869-3.009,26.842-.899,9.939-2.172,19.843-3.282,29.763ZM53.051,559.904c-10.003,1.094-19.839,3.428-29.909,4.024-.854.051-1.653.178-1.568,1.348.275,3.788-.006,7.715.915,11.338,2.447,9.627,3.376,19.512,5.3,29.227,2.042,10.312,4.371,20.566,6.822,30.758,2.395,9.959,6.495,19.497,9.227,29.391.907,3.283,1.585,2.895,4.165,2.038,9.292-3.085,18.715-5.772,28.069-8.672,3.462-1.073,5.384-2.672,3.867-7.027-6.124-17.586-11.296-35.42-14.103-53.921-.675-4.449-1.193-9.015-2.282-13.384-1.737-6.969-2.951-14.009-3.389-21.126-.196-3.19-.844-4.552-4.123-4.019-.973.158-1.993.024-2.991.024ZM769.005,94.283c-5.314-3.388-10.589-6.945-16.046-10.197-23.773-14.167-48.998-25.261-74.826-35.053-2.108-.799-4.348-2.04-6.444-1.894-3.302.23-1.699,3.78-2.484,5.671-3.63,8.746-6.514,17.799-9.723,26.722-.764,2.124-1.152,3.908,1.82,4.445,7.224,1.304,13.818,4.595,20.372,7.508,21.787,9.682,43.623,19.375,63.435,32.915,2.534,1.732,4.191,1.478,6.051-1.709,5.587-9.574,11.756-18.809,17.845-28.408ZM923.406,769.642c-.656-.546-1.147-1.186-1.793-1.457-10.559-4.44-19.42-11.717-29.149-17.538-2.266-1.356-2.354-.014-3.114,1.197-7.678,12.23-15.626,24.341-24.805,35.445-10.845,13.117-21.373,26.602-34.002,38.134-3.076,2.809-2.62,4.453.207,6.999,7.218,6.502,14.403,13.073,21.131,20.069,2.332,2.425,3.005,2.768,5.434.242,15.844-16.475,30.538-33.832,44.138-52.257,7.073-9.582,13.939-19.264,20.577-29.133.362-.538.816-1.013,1.376-1.7ZM343.584,970.845c1.734-.11,2.063-1.148,2.495-2.59,1.248-4.165,2.815-8.235,4.284-12.332,2.113-5.892,4.263-11.771,6.371-17.665.757-2.116.623-3.638-2.056-4.438-16.755-5.008-32.368-12.699-47.9-20.581-12.211-6.196-24.492-12.247-35.945-19.825-2.072-1.371-3.624-1.008-5.141,1.599-4.774,8.206-10.253,15.981-15.161,24.13-2.849,4.729-1.592,5.827,1.977,7.835,9.391,5.283,18.769,10.592,28.055,16.055,17.291,10.172,36.094,17.008,54.538,24.594,2.755,1.133,5.541,2.627,8.482,3.219ZM81.179,360.412c-2.076-.956-4.033-.54-5.952-1.318-8.729-3.539-17.628-6.664-26.503-9.834-2.296-.82-3.759-.98-4.886,2.469-3.59,10.992-6.529,22.16-9.735,33.252-2.218,7.675-4.54,15.376-5.916,23.223-1.21,6.901-2.881,13.806-3.502,20.701-.674,7.478-3.262,14.696-2.725,22.32.154,2.185.976,2.262,2.806,2.844,9.02,2.87,18.585.733,27.685,3.642,6.296,2.013,7.209.305,7.689-6.278.447-6.134,1.483-12.269,2.8-18.286,1.857-8.487,2.711-17.152,5.03-25.563,2.601-9.435,4.544-19.051,7.117-28.494,1.717-6.3,4.034-12.437,6.093-18.678ZM768.355,923.229c-1.112-1.943-2.16-3.941-3.363-5.842-4.311-6.816-8.849-13.495-12.96-20.429-2.838-4.786-4.455-5.228-9.053-2.08-4.834,3.31-9.726,6.622-14.916,9.308-21.398,11.074-42.813,22.146-65.794,29.727-2.666.879-4.058,1.765-2.615,5.237,3.938,9.481,7.514,19.127,10.798,28.855.98,2.904,1.719,2.939,4.251,1.912,8.946-3.629,18.089-6.777,27.02-10.443,22.02-9.039,42.425-21.224,63.157-32.763,1.502-.836,2.586-2.024,3.475-3.483ZM188.039,828.386c-.499-.655-1.085-1.665-1.893-2.446-13.469-13.043-25.339-27.461-36.748-42.3-7.78-10.12-15.512-20.281-22.025-31.255-1.505-2.536-2.642-1.981-4.107-1.077-9.182,5.668-18.22,11.571-27.474,17.116-2.383,1.428-2.075,2.282-.678,4.062,3.804,4.848,7.061,10.116,10.456,15.226,8.679,13.062,18.518,25.234,28.248,37.447,7.93,9.954,17.317,18.74,25.863,28.219,1.717,1.905,2.827,2.035,4.278.237,6.691-8.294,15.376-14.582,22.504-22.432.654-.72,1.621-1.233,1.576-2.796ZM855.259,163.636c-8.416,8.14-16.504,16.06-24.724,23.841-1.864,1.765-2.088,2.853-.14,4.771,10.525,10.362,19.952,21.673,29.428,33.01,10.74,12.849,19.982,26.617,29.037,40.579,1.332,2.054,1.921,2.419,4.064,1.102,8.827-5.424,17.162-11.625,26.325-16.531,2.207-1.181,3.631-2.872,1.318-5.955-4.716-6.286-8.885-12.989-13.327-19.478-9.005-13.155-19.082-25.342-29.468-37.382-7.281-8.442-14.666-16.711-22.514-23.955ZM342.866,47.134c-6.256,3.341-13.208,5.038-19.691,7.877-16.959,7.426-34.041,14.616-50.075,23.976-6.361,3.713-12.747,7.391-18.967,11.33-2.11,1.337-5.765,1.662-5.86,4.547-.079,2.372,2.694,4.175,3.972,6.452,4.243,7.562,9.131,14.762,13.771,22.1,1.384,2.189,3.185,2.071,5.109.856,2.75-1.736,5.401-3.637,8.203-5.283,24.166-14.195,49.176-26.567,75.935-35.189,1.156-.373,3.419-.756,2.349-3.392-4.286-10.554-8.44-21.163-12.592-31.771-.419-1.07-.868-1.761-2.153-1.505ZM187.458,189.948c-7.951-8.116-15.779-16.047-23.52-24.061-1.548-1.603-2.658-2.766-4.861-.735-9.177,8.462-16.073,18.995-25.157,27.53-.116.109-.157.293-.252.43-5.624,8.161-12.165,15.625-18.174,23.491-7.304,9.561-13.642,19.766-20.909,29.325-1.085,1.426-.704,2.277,1.042,3.351,9.463,5.825,18.818,11.832,28.091,17.957,2.24,1.48,3.026.211,3.771-1.304,4.468-9.085,10.824-16.844,16.798-24.934,10.162-13.762,20.719-27.14,32.541-39.512,3.755-3.929,7.884-7.529,10.63-11.537ZM307.979,761.874c-.329.04-.682.017-.984.13-9.935,3.726-19.873,7.444-29.79,11.216-3.009,1.144-2.818,3.136-1.697,5.772,6.868,16.152,13.873,32.203,22.197,47.71,7.701,14.345,16.413,28.015,25.275,41.619,1.081,1.659,2.342,3.574,5.199,1.681,7.808-5.175,15.757-10.148,23.797-14.955,2.107-1.26,1.99-2.347.88-3.912-7.993-11.262-13.673-23.805-19.91-36.032-8.308-16.289-15.175-33.216-21.778-50.248-.654-1.688-1.021-3.151-3.19-2.981ZM741.921,241.44c-.173-.402-.631-1.265-.925-2.182-3.115-9.7-7.958-18.674-12.141-27.893-9.93-21.881-21.921-42.646-35.894-62.254-1.661-2.331-2.609-2.304-4.629-.988-7.502,4.886-14.935,9.902-22.666,14.402-3.184,1.853-2.705,3.283-1.048,5.638,3.824,5.436,6.962,11.335,10.202,17.089,8.087,14.358,15.088,29.301,21.163,44.649,2.894,7.312,6.473,14.342,8.544,22,.587,2.17,1.457,5.523,5.273,3.697,9.902-4.74,20.388-7.933,30.703-11.569,1.288-.454,1.51-.961,1.418-2.59ZM707.351,761.227c-1.952,1.021-2.629,3.436-3.153,5.325-3.405,12.278-8.657,23.874-13.985,35.302-7.746,16.615-15.272,33.447-25.999,48.519-.703.987-2.537,2.849.014,4.062,8.791,4.18,15.966,10.921,24.56,15.409,1.776.928,2.875,1.157,4.213-1.071,3.37-5.612,7.217-10.937,10.853-16.391,7.856-11.784,14.395-24.336,20.696-36.965,5.752-11.528,10.244-23.681,15.901-35.26,2.047-4.189,1-5.872-2.645-7.226-7.395-2.747-14.829-5.389-22.214-8.161-2.695-1.012-5.299-2.269-8.24-3.543ZM354.338,165.016c-.877-.623-1.53-1.134-2.226-1.574-7.124-4.504-14.286-8.947-21.37-13.514-3.329-2.146-5.132-3.5-8.516,1.33-7.794,11.122-15.043,22.518-21.431,34.448-9.186,17.157-17.564,34.71-24.796,52.805-1.476,3.694-.813,5.06,2.924,6.569,9.075,3.664,18.701,5.884,27.39,10.552,2.526,1.357,3.817-.332,4.683-2.506,2.616-6.566,5.514-13.034,7.808-19.71,2.945-8.57,7.896-16.224,11.037-24.631,4.785-12.809,12.211-24.125,18.943-35.846,1.516-2.639,2.788-5.462,5.554-7.923Z"/>
  <path class="cls-1" d="M1179.412,264.62c140.089,1.922,234.316,104.774,246.426,214.731,7.733,70.216-11.922,132.452-57.741,185.708-40.653,47.251-92.577,75.495-154.786,82.671-72.102,8.318-135.711-12.754-189.633-60.699-46.363-41.224-73.304-93.775-79.459-155.514-7.063-70.85,14.397-133.476,61.854-186.34,47.747-53.186,108.677-78.54,173.339-80.557ZM1293.299,609.621c6.142-.333,12.303.525,18.444-.604,9.909-1.821,19.832-3.578,29.786-5.13,10.67-1.663,12.297-3.382,12.356-14.032.012-2.163-.056-4.354.247-6.484,2.032-14.298,3.687-28.618,3.822-43.09.066-7.087-1.772-8.394-8.383-5.334-5.849,2.708-11.382,6.045-17.704,7.771-14.397,3.931-28.456,9.174-43.953,5.349-10.738-2.65-19.185-8.075-22.909-18.314-4.431-12.18-4.981-25.087-.621-37.503,2.604-7.415,7.111-13.602,15.051-16.995,13.518-5.776,26.894-3.555,40.366-.505,11.012,2.493,21.261,7.181,31.726,11.258,5.174,2.016,7.66-.109,6.897-5.754-2.417-17.884-1.784-36.012-4.41-53.891-.495-3.369-2.079-5.196-4.769-6.28-7.506-3.027-15.528-4.363-23.376-5.915-7.406-1.464-15.052-2.068-22.678-2.565-21.679-1.414-42.616,1.509-62.672,9.767-16.725,6.886-29.794,18.281-39.635,33.515-6.658,10.306-11.078,21.692-12.445,33.539-1.836,15.911-2.184,31.943,1.188,48.053,3.392,16.209,10.691,30.313,21.448,42.035,8.198,8.934,18.603,16.236,29.971,21.304,16.591,7.396,34.098,10.44,52.253,9.804ZM1029.821,513.631c-.043,0-.087,0-.13,0,0,27.633,0,55.266,0,82.899,0,4.982,2.181,7.152,7.341,7.173,19.469.08,38.937.143,58.406.184,6.774.014,8.416-1.74,8.302-8.581-.202-12.141-.409-24.283-.561-36.425-.543-43.346,1.723-86.715-1.124-130.049-.262-3.989-1.512-5.023-5.329-4.983-16.647.178-33.296.087-49.945.056-1.794-.003-3.532.024-5.361-.653-7.417-2.745-12.448,1.147-12.001,8.991.217,3.818.378,7.644.384,11.467.035,23.307.017,46.613.017,69.92ZM1066.798,413.835v.045c9.318,0,18.637.031,27.955-.01,7.312-.033,8.987-1.889,9.027-9.198.076-14.005-1.198-27.974-1.003-41.993.045-3.268-1.842-6.677-6.487-6.363-4.477.302-8.966.525-13.452.563-14.794.126-29.584.399-44.377-.571-6.949-.456-9.559,2.656-9.52,9.591.072,12.974.062,25.948.11,38.922.022,5.83,2.951,8.927,8.798,8.988,9.65.102,19.301.028,28.951.028Z"/>
  <path class="cls-1" d="M519.698,601.662c-8.609-.383-17.308-.307-25.856-.226-11.851.113-23.285-2.343-34.703-4.039-8.617-1.28-17.82-2.178-26.04-6.36-2.962-1.507-4.342-3.161-4.41-6.35-.248-11.644-1.031-23.3-.693-34.924.155-5.328-2.29-9.959-2.18-15.176.086-4.105,1.489-4.024,4.399-2.528,14.629,7.518,30.03,12.679,46.142,16.127,8.767,1.876,17.413,3.477,26.404,3.963,4.825.261,9.713,2.565,14.637,1.615,9.492-1.831,19.24-1.732,28.499-5.665,8.881-3.772,11.09-14.515,8.882-23.032-3.365-12.984-14.28-14.05-24.072-17.044-7.628-2.332-15.517-3.936-23.306-5.471-9.961-1.963-19.798-4.436-29.615-6.858-7.19-1.774-13.9-5.487-20.829-8.326-3.355-1.374-6.174-4.19-10.159-3.855-.979.082-.919-.723-1.2-1.178-5.556-8.99-12.665-17.023-16.52-27.062-2.699-7.027-4.423-14.154-4.136-21.793.373-9.931-.757-19.953,2.986-29.574,2.26-5.809,5.021-11.269,8.482-16.476,11.945-17.974,30.522-24.604,50.056-29.638,20.754-5.349,41.765-3.799,62.807-2.41,10.591.699,20.906,2.978,31.287,4.762,6.257,1.075,12.501,2.592,18.738,3.967,4.175.921,7.101,8.253,6.484,13.814-1.074,9.675-2.119,19.398.128,29.08.074.32.034.664.064.996,1.024,11.594.449,12.238-10.083,7.744-8.937-3.814-18.146-7.072-27.46-9.226-7.598-1.757-15.476-3.13-23.07-4.909-11.783-2.76-23.495-1.682-35.161-1.414-9.704.223-18.612,4.035-24.596,12.629-3.702,5.316-1.509,16.629,2.982,21.178,6.653,6.739,15.395,7.448,23.595,9.892,8.665,2.583,17.658,4.057,26.49,5.405,11.403,1.741,22.161,5.247,32.847,8.963,12.223,4.25,22.518,11.72,31.036,21.7,4.221,4.945,8.314,9.899,11.645,15.478.422.707,1.555,1.525,1.404,1.958-2.562,7.319,1.431,14.405.572,21.769-.862,7.397.589,15.077-.392,22.445-1.376,10.331-5.942,19.737-11.588,28.487-8.732,13.531-22.218,20.32-36.68,25.899-7.59,2.928-15.509,4.4-23.375,5.431-8.021,1.051-16.286.232-24.445.232Z"/>
  <path class="cls-1" d="M724.248,425.553c3.418,2.373,6.543,2.364,9.719,2.333,13.325-.131,26.65-.159,39.975-.285,2.795-.026,4.787.262,4.769,3.939-.101,21.564-.055,43.13-.022,64.694.019,12.492.234,24.985.119,37.476-.096,10.466,3.033,19.096,11.84,25.544,4.182,3.061,9.017,4.559,13.45,4.237,12.853-.934,24.814-5.325,35.242-13.084,2.842-2.114,4.507-5.058,4.487-9.301-.167-35.134.012-70.27.065-105.405.013-8.843-.023-8.901,8.993-8.895,13.316.01,26.631.114,39.947.176,5.936.027,10.259,4.109,8.647,9.654-2.459,8.459-1.11,16.888-1.165,25.274-.253,38.919-.063,77.841-.011,116.762.006,4.158.26,8.318.19,12.473-.042,2.442-.729,4.789-3.857,4.794-13.057.02-26.114.053-39.169-.108-2.692-.033-4.593-.443-5.004-4.643-1.203-12.274-2.977-12.911-13.329-6.301-9.026,5.763-18.396,10.857-28.647,13.938-13.315,4.001-26.736,4.236-40.517,1.434-6.915-1.406-12.8-5.312-19.474-6.416-6.038-.999-7.125-5.988-10.397-9.321-5.939-6.049-9.681-13.344-12.87-20.931-1.816-4.32-3.339-8.862-3.332-13.769.06-40.31.037-80.62.052-120.931,0-.815.142-1.63.3-3.338Z"/>
  <path class="cls-1" d="M1537.652,491.776c2.662,0,5.336.156,7.985-.033,5.447-.388,7.592-2.892,7.382-8.343-.343-8.904-2.385-16.98-9.364-23.399-3.349-3.08-7.542-5.178-11.26-5.556-6.221-.632-12.183-3.818-18.536-2.458-13.651,2.924-27.669,4.635-40.186,11.53-.722.398-1.485.757-2.126,1.264-6.103,4.835-7.428,4.547-9.411-2.518-2.31-8.228-4.196-16.581-6.74-24.732-.806-2.583-.182-3.611,1.772-4.723,7.391-4.204,15.548-6.335,23.557-8.921,11.893-3.84,24.398-3.567,36.555-5.642,5.611-.958,11.565-1.083,17.31.652,2.191.662,4.584.838,6.893.893,15.872.378,30.637,4.518,43.645,13.676,3.941,2.774,7.741,6.242,9.823,10.96,1.003,2.273,2.182,4.297,4.517,5.622,5.977,3.39,3.598,9.558,4.33,14.533,4.283,29.116,1.34,58.431,1.89,87.653.106,5.634,2.905,8.6,6.683,11.264,1.282.904,2.578,1.611,3.754,2.803,4.801,4.867,4.626,7.897-1.573,10.877-3.266,1.57-5.732,3.743-8.139,6.292-5.148,5.452-10.534,10.679-16.423,15.337-1.638,1.295-3.665,3.48-5.546,2.707-3.612-1.482-7.49-2.54-10.691-5.005-3.071-2.365-4.839-5.591-6.652-8.903-3.68-6.722-4.595-6.863-11.509-3.005-9.975,5.566-20.459,9.847-31.323,13.446-12.071,3.999-24.367,3.942-36.777,3.881-11.642-.058-21.965-4.717-32.258-9.246-2.168-.954-3.815-3.873-4.949-6.246-3.038-6.362-8.395-11.601-9.259-19.017-.937-8.044-3.336-15.62-1.993-24.256,3.55-22.84,18.878-33.996,38.152-41.872,14.104-5.763,29.02-7.549,44.121-8.299,5.456-.271,10.887-1.042,16.33-1.584l.015.367ZM1536.905,521.913c-7.697-.683-15.707,1.798-23.842,3.864-8.634,2.192-14.756,7.241-18.137,15.237-4.328,10.234,2.088,21.426,14.575,22.917,13.184,1.574,25.586-2.079,37.697-6.487,3.496-1.272,6.953-4.581,6.196-9.12-.67-4.011-.544-7.927-.482-11.907.215-13.621-.672-14.506-14.164-14.503-.333,0-.666,0-1.843,0Z"/>
  <path class="cls-3" d="M72.062,507.334c.795-7.754-1.359-17.42,1.543-26.967.999-3.287.2-7.233.08-10.735-.281-8.241,2.456-15.994,2.552-24.138.061-5.173,1.843-10.33,2.892-15.487,1.618-7.953,3.1-15.94,4.952-23.839,1.862-7.941,3.757-15.907,6.266-23.658,3.918-12.104,8.127-24.127,12.646-36.021,7.092-18.666,15.999-36.481,25.964-53.789,8.225-14.286,17.136-28.067,27-41.304,8.408-11.284,17.441-21.957,26.61-32.613,9.373-10.894,19.396-21.089,29.861-30.788,10.045-9.309,20.545-18.168,31.519-26.495,15.344-11.642,31.387-22.173,48.009-31.749,10.235-5.896,20.294-12.299,31.41-16.594,1.378-.533,2.824-.889,4.236-1.336.866-.274,1.643-1.189,2.62-.036.876,1.033.355,1.899-.131,2.722-1.899,3.214-3.366,6.873-5.902,9.487-8.774,9.046-15.548,19.58-22.309,30.02-12.512,19.322-22.903,39.809-32.132,60.943-6.252,14.316-11.843,28.852-16.787,43.622-5.027,15.018-9.196,30.306-13.145,45.667-2.6,10.111-4.957,20.303-7.188,30.463-1.847,8.413-4.241,16.856-4.63,25.589-.168,3.776-1.489,7.399-2.252,11.028-1.493,7.098-1.116,14.392-3.107,21.406-1.613,5.684-1.51,11.779-2.103,17.58-.838,8.19-1.69,16.446-2.62,24.643-1.763,15.537-2.219,31.12-2.262,46.707-.079,28.479-.982,57.037.841,85.409,1.004,15.624,2.616,31.44,4.997,47.085,1.1,7.228,2.733,14.618,2.494,22.076-.135,4.197,1.593,8.067,2.36,12.033,1.147,5.935.994,12.082,3.05,17.905,1.4,3.965,1.528,8.333,2.351,12.495,3.749,18.957,8.58,37.601,13.718,56.22,5.291,19.177,11.556,38.048,19.008,56.391,8.02,19.739,17.077,39.102,28.177,57.467,6.165,10.2,12.232,20.458,19.238,30.068,3.282,4.502,5.874,9.677,10.488,13.17,3.149,2.384,4.193,6.326,6.703,9.204.906,1.039,1.189,2.446.162,3.672-1.068,1.275-2.364.852-3.646.319-.919-.382-1.874-.682-2.787-1.077-15.397-6.672-29.711-15.372-44.145-23.814-14.003-8.189-26.945-18.027-39.796-27.846-5.86-4.478-11.583-9.39-17.149-14.383-9.891-8.874-20.135-17.401-28.904-27.38-10.479-11.926-21.397-23.454-30.936-36.249-8.285-11.112-16.495-22.215-23.84-33.976-14.805-23.706-27.25-48.616-37.384-74.616-6.65-17.063-12.2-34.593-16.242-52.453-3.642-16.09-6.83-32.275-8.673-48.785-2.061-18.47-3.914-36.871-3.678-57.262Z"/>
  <g>
    <path class="cls-1" d="M527.985,814.993c0,16.481-.099,32.963.072,49.441.041,4.001-.944,5.653-5.309,5.512-9.646-.311-19.312-.228-28.963-.017-2.945.064-3.966-.668-4.189-3.687-1.133-15.301-.525-30.617-.568-45.923-.051-18.141.343-36.284.287-54.425-.013-4.353,1.425-5.866,5.764-5.73,9.312.292,18.638.312,27.955.188,3.859-.052,5.099,1.232,5.046,5.2-.222,16.478-.093,32.96-.093,49.441Z"/>
    <path class="cls-1" d="M471.48,20.323c15.758-1.783,31.732-1.057,47.683-1.401,11.636-.251,23.17,1.75,34.803,1.094,3.192-.18,5.869,1.932,9.094,2.2,1.939.161,1.006,2.883.836,4.303-.944,7.878-2.132,15.727-3.24,23.585-.115.818-.293,1.63-.372,2.451-.778,8.082-.789,8.214-8.786,7.323-23.254-2.593-46.608-2.377-69.894-1.527-5.92.216-12.14.646-18.163,1.601-5.997.951-7.022-.359-7.529-6.448-.797-9.559-2.045-19.083-3.304-28.596-.228-1.723-.718-2.72,1.625-3.021,5.683-.732,11.182-3.047,17.247-1.564Z"/>
    <path class="cls-1" d="M527.985,201.942c0,16.652-.082,33.305.072,49.956.029,3.16-.654,4.227-4.026,4.144-9.986-.245-19.988-.297-29.97.021-3.716.118-4.364-1.27-4.377-4.462-.086-22.472-.334-44.944-.449-67.416-.055-10.653.17-21.308.054-31.96-.039-3.567,1.381-4.391,4.725-4.323,10.154.205,20.317.178,30.472.007,2.838-.048,3.583.769,3.562,3.579-.13,16.817-.064,33.636-.064,50.455Z"/>
    <path class="cls-1" d="M530.351,998.532c-9.14,1.09-19.242,1.805-29.346,1.247-14.654-.809-29.289-1.965-43.933-2.946-2.554-.171-3.225-1.559-3.306-3.956-.363-10.669,2.282-21.104,2.318-31.75.011-3.21,3.854-4.716,7.928-2.812,3.051,1.426,6.039,1.689,9.169,1.497,12.849-.785,25.589,1.646,38.447,1.092,11.252-.485,22.49-1.687,33.781-1.078,3.331.18,6.049-2.193,9.514-2.118,3.591.077,4.858,1.182,5.151,4.814.768,9.529,1.402,19.139,3.273,28.479.968,4.833-1.686,5.694-4.335,5.656-9.33-.134-18.371,3.029-28.66,1.874Z"/>
    <path class="cls-1" d="M254.216,559.905c4.327,0,8.657.091,12.981-.041,2.053-.063,2.582.474,2.934,2.667,1.239,7.71,1.332,15.483,2.01,23.218.753,8.585,1.967,17.146,3.421,25.684,1.168,6.86.611,14.076,2.502,20.9,1.78,6.425,1.161,13.255,3.51,19.536,1.058,2.83-.244,5.896,1.291,8.736.667,1.234-1.08,1.042-1.959,1.31-10.694,3.264-21.847,4.409-32.649,7.135-3.747.946-3.808-1.917-4.16-3.86-2.766-15.263-5.458-30.541-7.899-45.859-.649-4.074-.141-8.318-.515-12.452-1.113-12.268-2.61-24.504-3.546-36.784-.618-8.102,1.264-9.844,9.598-10.163,4.155-.159,8.321-.028,12.481-.028Z"/>
    <path class="cls-1" d="M231.715,445.954c1.11-9.919,2.383-19.824,3.282-29.763.812-8.973,1.559-17.943,3.009-26.842,1.076-6.604,2.017-13.23,3.123-19.829.882-5.262,2.094-10.474,2.842-15.753.776-5.474,1.798-5.975,7.208-4.586,7.33,1.881,14.764,3.448,22.236,4.63,2.779.44,5.302,1.684,7.751,2.548,1.988.701,1.311,4.885.499,7.213-2.441,6.998-1.684,14.488-3.684,21.498-2.202,7.715-2.176,15.779-3.366,23.622-1.143,7.537-2.741,15.231-2.602,23.001.137,7.669-1.052,15.218-1.975,22.795-.266,2.184-1.294,3.482-3.462,3.385-4.936-.22-9.906.739-14.806-.982-5.136-1.804-10.578-1.083-15.851-.821-3.526.175-4.253-1.038-3.938-4.099.203-1.975.038-3.988.038-5.985-.101-.011-.203-.022-.304-.034Z"/>
    <path class="cls-1" d="M53.051,559.904c.998,0,2.019.134,2.991-.024,3.279-.534,3.927.829,4.123,4.019.438,7.117,1.652,14.157,3.389,21.126,1.089,4.369,1.607,8.935,2.282,13.384,2.807,18.501,7.979,36.335,14.103,53.921,1.516,4.355-.406,5.954-3.867,7.027-9.354,2.9-18.777,5.587-28.069,8.672-2.58.857-3.258,1.244-4.165-2.038-2.732-9.894-6.832-19.432-9.227-29.391-2.451-10.191-4.78-20.445-6.822-30.758-1.923-9.714-2.853-19.6-5.3-29.227-.921-3.623-.64-7.55-.915-11.338-.085-1.171.714-1.298,1.568-1.348,10.07-.596,19.906-2.93,29.909-4.024Z"/>
    <path class="cls-1" d="M769.005,94.283c-6.089,9.599-12.258,18.834-17.845,28.408-1.86,3.187-3.517,3.441-6.051,1.709-19.812-13.54-41.647-23.233-63.435-32.915-6.555-2.913-13.148-6.203-20.372-7.508-2.972-.537-2.584-2.321-1.82-4.445,3.209-8.923,6.093-17.976,9.722-26.722.785-1.892-.818-5.442,2.484-5.671,2.097-.146,4.337,1.095,6.444,1.894,25.828,9.792,51.052,20.886,74.826,35.053,5.457,3.252,10.732,6.809,16.046,10.197Z"/>
    <path class="cls-1" d="M923.406,769.642c-.56.687-1.014,1.163-1.376,1.7-6.638,9.869-13.504,19.551-20.577,29.133-13.6,18.425-28.294,35.782-44.138,52.257-2.429,2.525-3.102,2.182-5.434-.242-6.728-6.996-13.913-13.567-21.131-20.069-2.827-2.546-3.283-4.19-.207-6.999,12.629-11.532,23.157-25.016,34.002-38.134,9.179-11.103,17.127-23.215,24.805-35.445.76-1.21.848-2.553,3.114-1.197,9.729,5.821,18.59,13.097,29.149,17.538.646.272,1.137.912,1.793,1.457Z"/>
    <path class="cls-1" d="M343.584,970.845c-2.941-.592-5.727-2.086-8.482-3.219-18.444-7.586-37.247-14.422-54.538-24.594-9.286-5.463-18.665-10.773-28.055-16.055-3.569-2.007-4.826-3.106-1.977-7.835,4.908-8.148,10.387-15.924,15.161-24.13,1.517-2.607,3.069-2.969,5.141-1.599,11.453,7.578,23.734,13.629,35.945,19.825,15.532,7.881,31.145,15.573,47.9,20.581,2.679.801,2.813,2.322,2.056,4.438-2.108,5.894-4.258,11.773-6.371,17.665-1.469,4.097-3.036,8.167-4.284,12.332-.432,1.443-.761,2.48-2.495,2.59Z"/>
    <path class="cls-1" d="M81.18,360.412c-2.059,6.241-4.376,12.378-6.093,18.678-2.573,9.444-4.516,19.059-7.117,28.494-2.319,8.411-3.173,17.076-5.03,25.563-1.316,6.017-2.353,12.152-2.8,18.286-.48,6.582-1.393,8.29-7.689,6.278-9.1-2.909-18.665-.771-27.685-3.642-1.829-.582-2.652-.659-2.806-2.844-.537-7.624,2.051-14.842,2.725-22.32.621-6.895,2.293-13.801,3.502-20.701,1.376-7.847,3.698-15.548,5.916-23.223,3.206-11.093,6.145-22.26,9.735-33.252,1.126-3.449,2.589-3.289,4.886-2.469,8.875,3.17,17.774,6.295,26.503,9.834,1.919.778,3.876.361,5.952,1.318Z"/>
    <path class="cls-1" d="M768.355,923.229c-.889,1.46-1.973,2.647-3.475,3.483-20.733,11.54-41.138,23.724-63.157,32.763-8.93,3.666-18.073,6.813-27.02,10.443-2.531,1.027-3.27.992-4.251-1.912-3.284-9.728-6.86-19.374-10.798-28.855-1.442-3.472-.051-4.358,2.615-5.237,22.981-7.581,44.396-18.653,65.794-29.727,5.19-2.686,10.083-5.998,14.916-9.308,4.597-3.148,6.214-2.707,9.053,2.08,4.111,6.933,8.648,13.613,12.96,20.429,1.202,1.901,2.25,3.899,3.363,5.842Z"/>
    <path class="cls-1" d="M188.04,828.386c.045,1.563-.921,2.076-1.576,2.796-7.129,7.85-15.813,14.138-22.504,22.432-1.451,1.798-2.561,1.668-4.278-.237-8.546-9.479-17.933-18.265-25.863-28.219-9.729-12.213-19.568-24.385-28.248-37.447-3.395-5.11-6.653-10.377-10.456-15.226-1.397-1.78-1.705-2.635.678-4.062,9.254-5.544,18.293-11.448,27.474-17.116,1.465-.904,2.602-1.458,4.107,1.077,6.513,10.973,14.245,21.135,22.025,31.255,11.409,14.839,23.279,29.257,36.748,42.3.807.782,1.393,1.791,1.893,2.446Z"/>
    <path class="cls-1" d="M855.259,163.636c7.848,7.244,15.233,15.514,22.514,23.955,10.385,12.041,20.463,24.228,29.468,37.382,4.442,6.49,8.611,13.193,13.327,19.478,2.313,3.083.889,4.774-1.318,5.955-9.163,4.906-17.498,11.107-26.325,16.531-2.143,1.317-2.732.951-4.064-1.102-9.055-13.962-18.297-27.73-29.037-40.579-9.476-11.337-18.903-22.648-29.428-33.01-1.948-1.918-1.724-3.006.14-4.771,8.22-7.781,16.308-15.701,24.724-23.841Z"/>
    <path class="cls-1" d="M342.866,47.134c1.285-.256,1.734.435,2.153,1.505,4.152,10.608,8.306,21.216,12.592,31.771,1.07,2.636-1.192,3.019-2.349,3.392-26.759,8.623-51.769,20.994-75.935,35.189-2.802,1.646-5.453,3.546-8.203,5.283-1.924,1.215-3.726,1.332-5.109-.856-4.64-7.339-9.528-14.539-13.771-22.1-1.278-2.277-4.051-4.081-3.972-6.452.096-2.885,3.75-3.21,5.86-4.547,6.219-3.94,12.606-7.617,18.967-11.33,16.034-9.36,33.115-16.55,50.075-23.976,6.483-2.839,13.435-4.536,19.691-7.877Z"/>
    <path class="cls-1" d="M187.459,189.948c-2.746,4.008-6.875,7.608-10.63,11.537-11.822,12.372-22.379,25.75-32.541,39.512-5.974,8.09-12.33,15.849-16.798,24.934-.745,1.515-1.53,2.783-3.771,1.304-9.273-6.125-18.628-12.131-28.091-17.957-1.745-1.074-2.126-1.925-1.042-3.351,7.267-9.558,13.605-19.764,20.909-29.325,6.009-7.866,12.55-15.33,18.174-23.491.094-.137.136-.321.252-.43,9.084-8.535,15.98-19.067,25.157-27.53,2.203-2.031,3.313-.868,4.861.735,7.741,8.014,15.569,15.945,23.52,24.061Z"/>
    <path class="cls-1" d="M307.981,761.875c2.167-.171,2.534,1.293,3.188,2.98,6.603,17.031,13.47,33.959,21.778,50.248,6.236,12.227,11.917,24.77,19.91,36.032,1.11,1.564,1.226,2.652-.88,3.912-8.04,4.807-15.989,9.781-23.797,14.955-2.857,1.893-4.118-.022-5.199-1.681-8.862-13.603-17.574-27.274-25.275-41.619-8.325-15.506-15.329-31.558-22.197-47.71-1.121-2.636-1.312-4.628,1.697-5.772,9.917-3.772,19.856-7.49,29.79-11.216.302-.113.655-.09.985-.129Z"/>
    <path class="cls-1" d="M741.921,241.44c.091,1.628-.13,2.135-1.418,2.59-10.315,3.636-20.801,6.829-30.703,11.569-3.816,1.827-4.686-1.527-5.273-3.697-2.071-7.658-5.649-14.688-8.544-22-6.075-15.349-13.076-30.291-21.163-44.649-3.241-5.754-6.378-11.654-10.202-17.089-1.656-2.354-2.135-3.784,1.048-5.638,7.731-4.5,15.164-9.516,22.666-14.402,2.02-1.316,2.968-1.342,4.629.988,13.973,19.608,25.964,40.373,35.894,62.254,4.183,9.219,9.026,18.193,12.141,27.893.294.916.752,1.78.925,2.182Z"/>
    <path class="cls-1" d="M707.351,761.227c2.941,1.274,5.545,2.531,8.24,3.543,7.385,2.772,14.819,5.414,22.214,8.161,3.645,1.354,4.691,3.037,2.645,7.226-5.657,11.579-10.149,23.733-15.901,35.26-6.301,12.628-12.841,25.181-20.696,36.965-3.636,5.454-7.482,10.779-10.853,16.391-1.338,2.228-2.437,1.999-4.213,1.071-8.593-4.488-15.768-11.229-24.56-15.409-2.55-1.213-.716-3.075-.014-4.062,10.728-15.072,18.253-31.904,25.999-48.519,5.328-11.429,10.58-23.024,13.985-35.302.524-1.889,1.201-4.304,3.153-5.325Z"/>
    <path class="cls-1" d="M354.338,165.016c-2.766,2.461-4.038,5.284-5.554,7.923-6.733,11.721-14.158,23.037-18.943,35.846-3.141,8.407-8.091,16.061-11.037,24.631-2.294,6.676-5.192,13.144-7.808,19.71-.866,2.174-2.157,3.863-4.683,2.506-8.689-4.668-18.315-6.888-27.39-10.552-3.737-1.509-4.4-2.875-2.924-6.569,7.232-18.094,15.611-35.648,24.796-52.805,6.387-11.931,13.637-23.327,21.431-34.448,3.385-4.83,5.187-3.476,8.516-1.33,7.083,4.566,14.246,9.01,21.37,13.514.696.44,1.349.951,2.226,1.574Z"/>
  </g>
  <path class="cls-3" d="M1536.905,521.913c1.177,0,1.51,0,1.843,0,13.492-.003,14.379.882,14.164,14.503-.063,3.981-.188,7.896.482,11.907.758,4.539-2.699,7.847-6.196,9.12-12.111,4.408-24.514,8.061-37.697,6.487-12.487-1.491-18.903-12.682-14.575-22.917,3.381-7.996,9.503-13.045,18.137-15.237,8.135-2.066,16.144-4.548,23.842-3.864Z"/>
  <path class="cls-3" d="M1349.572,534.946c-5.849,2.708-11.382,6.045-17.704,7.771-14.397,3.931-28.456,9.174-43.953,5.349-10.738-2.65-19.185-8.075-22.909-18.314-4.431-12.18-4.981-25.087-.621-37.503,2.604-7.415,7.111-13.602,15.051-16.995,13.518-5.776,26.894-3.555,40.366-.505,11.012,2.493,21.261,7.181,31.726,11.258,5.174,2.016,7.66-.109,6.897-5.754-2.417-17.884-1.784-36.012-4.41-53.891-.495-3.369-2.079-5.196-4.769-6.28-7.506-3.027-15.528-4.363-23.376-5.915-7.406-1.464-15.052-2.068-22.678-2.565-21.679-1.414-42.616,1.509-62.672,9.767-16.725,6.886-29.794,18.281-39.635,33.515-6.658,10.306-11.078,21.692-12.445,33.539-1.836,15.911-2.184,31.943,1.188,48.053,3.392,16.209,10.691,30.313,21.448,42.035,8.198,8.934,18.603,16.236,29.971,21.304,16.591,7.396,34.098,10.44,52.253,9.804,6.142-.333,12.303.525,18.444-.604,9.909-1.821,19.833-3.578,29.786-5.13,10.67-1.663,12.297-3.382,12.356-14.032.012-2.163-.056-4.354.247-6.484,2.032-14.298,3.687-28.618,3.822-43.09.066-7.087-1.772-8.394-8.382-5.334Z"/>
  <path class="cls-3" d="M1103.18,558.882c-.543-43.346,1.723-86.715-1.124-130.049-.262-3.989-1.512-5.023-5.329-4.983-16.647.178-33.296.087-49.945.056-1.794-.003-3.532.024-5.361-.653-7.417-2.745-12.448,1.147-12.001,8.991.217,3.818.378,7.644.384,11.467.035,23.307.017,46.613.017,69.92-.043,0-.087,0-.13,0,0,27.633,0,55.266,0,82.899,0,4.982,2.181,7.152,7.341,7.174,19.469.08,38.937.143,58.406.184,6.774.014,8.416-1.74,8.302-8.581-.202-12.141-.409-24.283-.561-36.425Z"/>
  <path class="cls-3" d="M1102.777,362.678c.045-3.268-1.842-6.677-6.487-6.363-4.477.302-8.966.525-13.452.563-14.794.126-29.584.399-44.377-.571-6.949-.456-9.559,2.656-9.52,9.591.072,12.974.062,25.948.11,38.922.022,5.83,2.951,8.927,8.798,8.988,9.649.102,19.301.028,28.951.028v.045c9.318,0,18.637.031,27.955-.01,7.312-.033,8.987-1.889,9.027-9.198.076-14.005-1.198-27.974-1.003-41.993Z"/>
</svg>