<?xml version="1.0" encoding="UTF-8"?>
<svg id="_레이어_1" data-name="레이어 1" xmlns="http://www.w3.org/2000/svg" viewBox="0 0 519.83 236.17">
  <defs>
    <style>
      .cls-1 {
        fill: #fff;
        stroke-width: 0px;
      }
    </style>
  </defs>
  <path class="cls-1" d="M0,138.878v-24.983c1.986-1.73,1.417-4.264,1.777-6.393C10.468,56.124,55.936,17.162,108.276,17.059c101.093-.197,202.187-.185,303.28-.006,50.259.089,94.404,36.063,105.42,85.077.955,4.252.756,8.772,2.855,12.764v23.984c-2.054,1.694-1.374,4.243-1.801,6.363-8.208,40.739-31.42,69.441-70.362,83.682-39.172,14.324-75.577,7.128-108.067-19.05-2.498-2.012-4.817-2.955-8.005-2.95-47.791.085-95.583.084-143.375.001-3.179-.005-5.541.845-8.001,2.943-62.226,53.052-159.57,20.476-177.383-59.232-.877-3.923-.564-8.166-2.836-11.757ZM486.074,127.305c-.262-8.975-5.07-17.251-14.656-22.405-8.254-4.437-16.793-4.636-24.469,1.12-18.231,13.67-36.343,27.507-54.262,41.583-10.229,8.035-11.161,22.975-2.71,34.039,8.591,11.248,23.468,14.19,33.983,6.278,17.943-13.502,35.685-27.27,53.477-40.971,5.779-4.45,8.55-10.446,8.637-19.644ZM362.733,153.114c4.466.12,8.969-1.745,13.057-4.883,17.282-13.267,34.631-26.448,51.864-39.778,11.243-8.696,12.677-23.795,3.569-35.422-8.94-11.413-23.679-13.559-34.882-5.008-16.922,12.916-33.816,25.869-50.705,38.828-9.438,7.243-12.498,16.938-8.829,27.756,3.766,11.103,13.969,18.607,25.927,18.506ZM91.814,96.252c0,2.995-.207,6.009.055,8.981.299,3.399-.731,4.714-4.353,4.546-6.146-.286-12.315-.148-18.473-.054-4.869.075-6.957,2.155-7.039,7.011-.098,5.822-.049,11.648-.017,17.471.035,6.277,2.008,8.234,8.435,8.296,5.659.055,11.327.195,16.975-.057,3.372-.151,4.692.697,4.501,4.337-.313,5.974-.133,11.977-.068,17.966.057,5.303,1.941,7.265,7.16,7.347,5.991.094,11.985.076,17.977.006,5.494-.064,7.565-2.048,7.668-7.484.113-5.988.186-11.986-.037-17.968-.117-3.13.616-4.385,4.042-4.218,5.978.293,11.982.157,17.973.056,5.581-.093,7.559-2.05,7.638-7.513.087-5.989.092-11.982,0-17.97-.081-5.301-1.999-7.22-7.228-7.286-6.158-.077-12.323-.177-18.474.047-3.019.11-4.074-.703-3.956-3.846.237-6.314.19-12.647.027-18.966-.124-4.82-2.376-6.969-7.132-7.038-6.324-.091-12.651-.057-18.976-.009-4.487.034-6.693,2.4-6.695,6.859-.002,3.162,0,6.323-.003,9.485ZM222.506,125.693c-1.021.059-2.735.067-4.129,1.132-8.444,6.454-17.052,12.715-25.205,19.519-3.352,2.798-3.56,7.088-1.136,10.93,2.217,3.515,7.359,5.014,11.069,2.403,8.82-6.208,17.36-12.838,25.736-19.638,2.908-2.361,3.347-6.145,1.864-9.659-1.348-3.194-4.038-4.733-8.199-4.687ZM289.119,133.64c.055-3.126-1.292-5.516-4.031-6.929-3.584-1.85-7.144-1.415-10.31.966-7.439,5.594-14.858,11.219-22.152,17-4.589,3.637-5.565,8.836-2.751,12.705,2.997,4.121,8.328,4.654,13.28.985,7.345-5.441,14.543-11.081,21.783-16.663,2.631-2.028,4.293-4.602,4.181-8.064Z"/>
  <path class="cls-1" d="M442.899,17.305c-14.988-4.343-29.786-3.999-44.565-3.964-14.298.035-28.599-.126-42.893.092-4.055.062-4.92-1.53-4.274-5.027,1.087-5.876,4.913-8.929,10.946-8.29,24.119,2.555,48.231,5.179,72.341,7.815,5.087.556,7.46,3.115,8.444,9.373Z"/>
  <path class="cls-1" d="M77.789,16.912c1.341-5.739,4.167-8.559,9.682-9.123,23.507-2.406,46.993-5.025,70.478-7.647,4.293-.479,7.971.097,10.353,4.153,1.493,2.543,2.533,5.522,1.242,8.071-1.059,2.092-3.978.912-6.051.943-22.311.339-44.631-.544-66.937.545-6.141.3-12.114,1.659-18.767,3.057Z"/>
  <path class="cls-1" d="M460.81,148.047c-11.13.001-19.941-8.742-19.986-19.83-.044-11.066,8.751-20.075,19.736-20.214,11.123-.141,20.329,9.035,20.279,20.212-.05,11.038-8.93,19.832-20.029,19.833Z"/>
  <path class="cls-1" d="M411.297,146.756c11.133.074,19.807,8.838,19.784,19.99-.023,11.056-8.874,19.977-19.872,20.027-11.059.05-20.367-9.349-20.169-20.368.198-11.018,9.172-19.723,20.257-19.649Z"/>
  <path class="cls-1" d="M431.079,89.168c.043,11.159-8.576,19.944-19.709,20.089-11.214.146-20.412-8.947-20.33-20.097.081-10.883,9.248-19.987,20.096-19.959,11.012.029,19.9,8.927,19.943,19.967Z"/>
  <path class="cls-1" d="M361.463,147.021c-11.134-.082-19.784-8.857-19.754-20.038.03-11.083,8.873-19.971,19.901-20.002,11.075-.031,20.357,9.37,20.145,20.402-.212,11.037-9.184,19.72-20.292,19.638Z"/>
</svg>