<?xml version="1.0" encoding="utf-8"?>
<!-- Generator: Adobe Illustrator 28.1.0, SVG Export Plug-In . SVG Version: 6.00 Build 0)  -->
<svg version="1.1" id="Layer_1" xmlns="http://www.w3.org/2000/svg" xmlns:xlink="http://www.w3.org/1999/xlink" x="0px" y="0px"
	 viewBox="0 0 500 500" style="enable-background:new 0 0 500 500;" xml:space="preserve">
<style type="text/css">
	.st0{fill:#FFFFFF;}
</style>
<path class="st0" d="M312,7.8C420.1,35.4,500,133.3,500,250c0,2.7-0.1,5.3-0.1,8L331.7,234c-4.9-25.3-21.3-46.6-43.6-58L312,7.8z
	 M176,211.9c11.5-22.3,32.7-38.7,58-43.6L258,0.1c-2.6-0.1-5.3-0.1-8-0.1C133.3,0,35.4,79.9,7.8,188L176,211.9z M211.9,324
	c-22.3-11.5-38.7-32.7-43.6-58L0.1,242c-0.1,2.6-0.1,5.3-0.1,8c0,116.6,79.9,214.6,188,242.2L211.9,324z M324,288.1
	c-11.5,22.3-32.7,38.7-58,43.6L242,499.9c2.6,0.1,5.3,0.1,8,0.1c116.7,0,214.6-79.9,242.2-188L324,288.1z"/>
</svg>
