<?xml version="1.0" encoding="utf-8"?>
<!-- Generator: Adobe Illustrator 28.1.0, SVG Export Plug-In . SVG Version: 6.00 Build 0)  -->
<svg version="1.1" id="Layer_2" xmlns="http://www.w3.org/2000/svg" xmlns:xlink="http://www.w3.org/1999/xlink" x="0px" y="0px"
	 viewBox="0 0 74.1 76.4" style="enable-background:new 0 0 74.1 76.4;" xml:space="preserve">
<style type="text/css">
	.st0{fill:#FFFFFF;}
</style>
<g>
	<path class="st0" d="M54,37.9c10.6,9.8,10.6,19.9,10.6,19.9c-4-8.5-8.9-10.6-8.9-10.6c11.1,14.5,0.4,16.2,0.4,16.2
		s-16.9,4-37.5-15.1c-20.7-19.1-0.5-24.2-0.5-24.2S-2.6,25.5,7.8,43.9c11.6,18.7,34.7,26,34.7,26s-13.8-0.1-25.4-9
		c0,0,14.7,14.6,37.5,15.4S71,58,71,58S65.7,45.2,54,37.9L54,37.9z"/>
	<path class="st0" d="M27.8,15.4l-0.1,34.5c7.3,5.2,13.8,7.5,18.7,8.4l0.1-42.9h19.9L74.1,0H0l7.8,15.4H27.8z"/>
</g>
</svg>
