<?xml version="1.0" encoding="utf-8"?>
<!-- Generator: Adobe Illustrator 28.1.0, SVG Export Plug-In . SVG Version: 6.00 Build 0)  -->
<svg version="1.1" id="레이어_1" xmlns="http://www.w3.org/2000/svg" xmlns:xlink="http://www.w3.org/1999/xlink" x="0px"
	 y="0px" viewBox="0 0 128 128" style="enable-background:new 0 0 128 128;" xml:space="preserve">
<style type="text/css">
	.st0{fill:#FFFFFF;}
</style>
<g>
	<path class="st0" d="M8.8,60c34.4-15,57.3-24.8,68.7-29.6c32.7-13.6,39.5-16,44-16.1c1,0,3.2,0.2,4.6,1.4c1.2,1,1.5,2.3,1.7,3.2
		c0.2,0.9,0.4,3,0.2,4.6c-1.8,18.6-9.4,63.9-13.4,84.7c-1.7,8.8-4.9,11.8-8.1,12.1c-6.8,0.6-12-4.5-18.7-8.9
		c-10.4-6.8-16.2-11-26.3-17.7c-11.6-7.7-4.1-11.9,2.5-18.8c1.7-1.8,31.9-29.2,32.5-31.7c0.1-0.3,0.1-1.5-0.5-2.1
		c-0.7-0.6-1.7-0.4-2.4-0.2c-1,0.2-17.6,11.2-49.7,32.9c-4.7,3.2-9,4.8-12.8,4.7c-4.2-0.1-12.3-2.4-18.3-4.3
		C5.4,71.8-0.5,70.5,0,66.5C0.3,64.3,3.2,62.2,8.8,60L8.8,60z"/>
</g>
</svg>
