<?xml version="1.0" encoding="utf-8"?>
<!-- Generator: Adobe Illustrator 28.1.0, SVG Export Plug-In . SVG Version: 6.00 Build 0)  -->
<svg version="1.1" id="레이어_1" xmlns="http://www.w3.org/2000/svg" xmlns:xlink="http://www.w3.org/1999/xlink" x="0px"
	 y="0px" viewBox="0 0 1000 1000" style="enable-background:new 0 0 1000 1000;" xml:space="preserve">
<style type="text/css">
	.st0{fill:#25F4EE;}
	.st1{fill:#FE2C55;}
	.st2{fill:#FFFFFF;}
</style>
<path class="st0" d="M402.4,399.8l-0.2-44.9c-13.3-1.8-26.9-2.9-40.9-2.9C194.4,351.7,58.6,487.7,58.6,655
	c0,102.5,51.1,193.3,129.4,248.3c-11.2-41-77.2-126.3-77.2-206C110.8,532.4,238.8,403.6,402.4,399.8L402.4,399.8z"/>
<path class="st0" d="M411.5,838c85-5.3,137.4-61.1,139.2-135.7l1-656.5c38.8-1.3,117.4-0.2,116.5-4c-2.4-13.6-3.8-27.6-3.8-41.8H500
	l-0.2,660.1c-2.7,73.9-63.6,133.2-138,133.2c-23.1,0-44.9-5.8-64.2-16C297.2,797.5,365,840.9,411.5,838L411.5,838z M893.5,265.9
	v-36.7c-46,0-88.7-13.6-124.7-37.2C783.1,246.4,851.9,294.1,893.5,265.9L893.5,265.9z"/>
<path class="st1" d="M768.8,192c-35.1-40.3-56.2-92.8-56.2-150.2h-47.3C676.6,104.6,705.4,186,768.8,192L768.8,192z M361.5,516.4
	c-76.2,0-138.3,62.1-138.3,138.4c0,53.1,37.8,133.4,74.2,122.6c-16.4-22.7-26.2-50.5-26.2-80.7c0-76.3,62-138.4,138.3-138.4
	c14.2,0,28,2.5,40.9,6.4V396.4c-13.3-1.8-26.9-2.9-40.9-2.9c-2.4,0-4.7,0.2-7.1,0.2l-4.8,123.8C384.5,513.6,375.7,516.4,361.5,516.4
	L361.5,516.4z"/>
<path class="st1" d="M893.5,265.9L888,390.6c-85.3,0-160.3-30.6-224.8-76.9L659,655c-2,167-126.6,299-293.7,299
	c-64.4,0-150-47.8-177.3-50.8c55.3,59.4,134.3,96.8,221.6,96.8c166.9,0,303-135.9,303-303.2V362c64.5,46.3,143.6,73.6,228.9,73.6
	V271C924.8,271,908.8,269.2,893.5,265.9L893.5,265.9z"/>
<path class="st2" d="M664.6,655V320.2c64.5,46.3,143.6,73.6,228.9,73.6V265.9c-49.4-10.5-92.7-37.2-124.7-73.9
	c-51.6-33.6-88.7-87.4-100.5-150.2H547.9l-0.2,660.1c-2.7,73.9-63.6,133.3-138,133.3c-46.2,0-86.9-22.9-112.3-57.6
	c-44-23.3-74.2-69.4-74.2-122.6c0-76.3,62-138.4,138.3-138.4c14.2,0,28,2.5,40.9,6.5V394c-163.7,3.6-295.7,138-295.7,302.8
	c0,79.7,30.9,152.2,81.4,206.4c49.1,34.5,109.1,55,173.6,55C528.5,958.2,664.6,822,664.6,655L664.6,655z"/>
</svg>
