<?xml version="1.0" encoding="UTF-8"?>
<svg id="_레이어_1" data-name="레이어 1" xmlns="http://www.w3.org/2000/svg" viewBox="0 0 4990.847 1833.924">
  <defs>
    <style>
      .cls-1 {
        fill: #a7cdff;
      }

      .cls-1, .cls-2 {
        stroke-width: 0px;
      }

      .cls-2 {
        fill: #519cff;
      }
    </style>
  </defs>
  <path class="cls-2" d="M3317.245,913.074c-1.227-445.189,360.758-829.573,831.163-833.316,456.947-3.636,839.208,365.952,842.418,832.207,3.219,467.426-373.89,835.727-825.992,841.816-466.007,6.276-851.207-376.707-847.59-840.708ZM4152.575,544.009c-212.748,1.411-380.284,179.955-370.922,389.346,8.874,198.481,176.26,365.104,390.006,355.669,203.96-9.003,364.411-185.877,354.329-389.112-9.626-194.039-168.89-355.604-373.413-355.903Z"/>
  <path class="cls-1" d="M2556.334,1753.19c-13.332,0-26.713.732-39.983-.172-19.841-1.352-39.671-2.949-59.466-5.197-27.427-3.115-54.381-8.468-81.334-14.095-34.237-7.147-67.625-17.303-100.492-29.056-32.604-11.659-64.434-25.331-95.141-41.37-49.344-25.773-96.202-55.357-139.967-89.992-35.898-28.41-69.019-59.697-100.033-93.134-40.605-43.777-75.649-91.84-105.755-143.494-30.282-51.956-55.027-106.381-73.508-163.582-12.875-39.85-23.131-80.375-29.299-121.884-3.414-22.973-6.489-45.932-8.3-69.126-1.039-13.304-1.201-26.556-1.629-39.837-.342-10.624.212-21.234-1.463-31.863-1.826-11.591,1.491-23.165,1.501-34.81.024-26.961,3.825-53.555,7.477-80.211,4.607-33.622,11.709-66.67,20.572-99.364,10.018-36.959,22.749-72.969,37.706-108.247,22.179-52.309,49.828-101.515,82.179-148.148,16.315-23.518,33.82-46.11,52.491-67.808,17.597-20.45,35.739-40.414,55.366-58.918,41.971-39.567,86.955-75.269,136.077-105.719,23.791-14.747,48.007-28.684,73.053-41.102,57.144-28.333,116.948-49.469,178.958-64.248,24.84-5.92,49.926-10.996,75.281-14.066,16.119-1.951,32.276-3.811,48.536-4.884,24.208-1.597,48.385-4.005,72.653-3.361,29.2.775,58.36,2.154,87.459,5.397,40.986,4.567,81.416,11.819,121.261,22.29,42.846,11.259,84.51,25.894,125.015,43.949,47.576,21.207,92.899,46.328,135.703,75.996,29.276,20.292,57.204,42.248,83.721,66.089,12.897,11.595,25.212,23.729,37.515,35.903,30.582,30.263,57.754,63.416,83.115,98.118,13.757,18.823,26.032,38.615,38.813,58.079,2.84,4.325,3.091,7.635.258,12.591-31.153,54.485-56.877,111.391-75.372,171.472-11.84,38.461-21.09,77.549-27.308,117.267-3.124,19.954-5.524,40.055-6.842,60.303-1.533,23.542-3.896,47.043-3.359,70.65.679,29.877,2.102,59.7,5.374,89.467,2.648,24.099,5.917,48.075,10.607,71.813,10.003,50.637,24.353,100.039,43.595,147.993,11.793,29.391,25.445,57.9,40.1,85.942,3.85,7.366,7.893,14.667,12.4,21.642,3.216,4.977,3.773,8.656.353,14.321-21.369,35.391-45.244,68.922-71.636,100.736-20.636,24.876-42.171,48.913-65.64,71.12-29.737,28.137-61.098,54.355-94.437,78.192-43.474,31.083-89.64,57.57-138.149,79.794-42.071,19.275-85.615,34.691-130.367,46.782-30.5,8.241-61.39,14.481-92.526,19.241-21.929,3.353-44.064,5.585-66.291,7.118-19.644,1.355-39.231,1.07-58.839,1.423ZM2185.195,916.835c-1.89,203.57,165.969,371.179,369.363,372.616,207.774,1.468,374.747-169.571,375.019-368.214.146-106.42-37.52-197.802-113.661-272.043-71.579-69.793-158.983-105.023-258.519-105.026-104.981-.003-195.367,38.874-268.325,114.9-68.911,71.809-103.779,157.964-103.877,257.766Z"/>
  <path class="cls-2" d="M1619.683,647.544c-53.495,179.609-53.303,358.369-.599,536.945-4.553,1.738-8.593,1.028-12.541,1.029-135.984.042-271.967.022-407.951.054-14.192.003-12.778-1.653-12.781,12.855-.03,120.985-.208,241.971.081,362.956.105,44.145-8.578,86.175-29.178,125.169-41.32,78.214-105.36,127.276-192.673,142.743-83.549,14.8-158.696-5.937-223.237-61.498-49.916-42.971-79.381-97.669-89.497-162.77-2.46-15.83-3.416-31.756-3.413-47.764.021-119.652.02-239.305,0-358.957-.003-14.403,1.202-12.729-12.945-12.734-120.985-.035-241.971-.174-362.956.064-38.893.076-76.145-7.084-111.661-22.817-52.158-23.105-92.91-59.331-122.236-108.189-21.6-35.986-33.291-75.046-37.076-116.97-9.091-100.697,43.135-202.413,134.381-254.304,34.668-19.715,71.724-31.51,111.626-34.548,9.984-.76,19.926-1.245,29.909-1.247,119.652-.025,239.304-.006,358.957-.03,13.112-.003,11.998,1.219,12.001-11.633.02-120.985.078-241.971-.024-362.956-.034-40.547,7.588-79.386,24.645-116.264,23.955-51.792,60.711-92.022,109.951-120.694,34.75-20.234,72.196-31.969,112.458-35.074,73.735-5.687,138.977,15.337,195.442,62.545,51.995,43.47,82.057,99.748,92.659,166.483,2.406,15.143,2.817,30.485,2.808,45.837-.068,119.652-.052,239.304-.017,358.957.004,14.144-1.645,12.795,12.84,12.798,135.984.025,271.967.015,407.951.015h13.078Z"/>
</svg>