<?xml version="1.0" encoding="utf-8"?>
<!-- Generator: Adobe Illustrator 28.3.0, SVG Export Plug-In . SVG Version: 6.00 Build 0)  -->
<svg version="1.1" id="레이어_1" xmlns="http://www.w3.org/2000/svg" xmlns:xlink="http://www.w3.org/1999/xlink" x="0px"
	 y="0px" viewBox="0 0 25.3 29.3" style="enable-background:new 0 0 25.3 29.3;" xml:space="preserve">
<g>
	<path d="M12.7,29.3C5.7,29.3,0,23.7,0,16.7S5.7,4,12.7,4s12.7,5.7,12.7,12.7S19.7,29.3,12.7,29.3z M12.7,6.7c-5.5,0-10,4.5-10,10
		c0,5.5,4.5,10,10,10c5.5,0,10-4.5,10-10C22.7,11.2,18.2,6.7,12.7,6.7z"/>
	<path d="M12.7,18c-0.7,0-1.3-0.6-1.3-1.3v-6c0-0.7,0.6-1.3,1.3-1.3S14,9.9,14,10.7v6C14,17.4,13.4,18,12.7,18z M20,8.7
		c-0.3,0-0.7-0.1-0.9-0.4c-0.5-0.5-0.5-1.4,0-1.9l2-2c0.5-0.5,1.4-0.5,1.9,0c0.5,0.5,0.5,1.4,0,1.9l-2,2C20.7,8.5,20.3,8.7,20,8.7z
		 M17.3,2.7H8c-0.7,0-1.3-0.6-1.3-1.3S7.3,0,8,0h9.3c0.7,0,1.3,0.6,1.3,1.3S18.1,2.7,17.3,2.7z"/>
</g>
</svg>
