<?xml version="1.0" encoding="utf-8"?>
<!-- Generator: Adobe Illustrator 28.3.0, SVG Export Plug-In . SVG Version: 6.00 Build 0)  -->
<svg version="1.1" id="레이어_1" xmlns="http://www.w3.org/2000/svg" xmlns:xlink="http://www.w3.org/1999/xlink" x="0px"
	 y="0px" viewBox="0 0 29.3 16" style="enable-background:new 0 0 29.3 16;" xml:space="preserve">
<style type="text/css">
	.st0{fill:#000000;}
</style>
<path class="st0" d="M26.7,0h-24C1.2,0,0,1.2,0,2.7v10.7C0,14.8,1.2,16,2.7,16h24c1.5,0,2.7-1.2,2.7-2.7V2.7C29.3,1.2,28.1,0,26.7,0
	 M13.3,9.3h-4v4H6.7v-4h-4V6.7h4v-4h2.7v4h4 M19.3,12c-1.1,0-2-0.9-2-2s0.9-2,2-2c1.1,0,2,0.9,2,2S20.4,12,19.3,12 M24.7,8
	c-1.1,0-2-0.9-2-2s0.9-2,2-2s2,0.9,2,2S25.8,8,24.7,8"/>
</svg>
