<?xml version="1.0" encoding="utf-8"?>
<!-- Generator: Adobe Illustrator 28.1.0, SVG Export Plug-In . SVG Version: 6.00 Build 0)  -->
<svg version="1.1" id="レイヤー_1" xmlns="http://www.w3.org/2000/svg" xmlns:xlink="http://www.w3.org/1999/xlink" x="0px"
	 y="0px" viewBox="0 0 100 52.9" style="enable-background:new 0 0 100 52.9;" xml:space="preserve">
<style type="text/css">
	.st0{fill:#FFFFFF;}
</style>
<g>
	<g>
		<path class="st0" d="M35.5,0.3v10.1H22.9v40.3h-10V10.3H0.3v-10H35.5z"/>
		<polygon class="st0" points="52.4,50.6 29.8,0.3 40.5,0.3 52.4,26.8 64.3,0.3 75.1,0.3 		"/>
	</g>
	<path class="st0" d="M74.2,46.9c-5,3.4-8.1-0.3-7.7-3.5c5.5,2.6,12.7-0.9,12.7-7c0-4.8-3.5-9.2-9.9-8.3c-5.7,0.9-8.4,7.6-8.4,14.8
		c0,5.2,3.2,9.7,8.9,9.9c5.3,0.2,10.5-2.9,9.9-5.8C79.5,45.4,77.4,44.8,74.2,46.9z M69.6,39.7c-1.2,0-2.5-1-2.5-2.5
		c0-2,1.1-4.5,3.6-4.5c1.7,0,2.7,1.6,2.7,3.8C73.5,38.5,72.2,39.7,69.6,39.7z"/>
	<path class="st0" d="M91.9,30c-2.1,0.1-3.9,1.1-4.6,2.5c0.1-1.7,0.3-5-2.2-4.8c-2.1,0.1-3.4,1.1-3.3,3.2c0.2,4.5,0.5,8.8,0.6,15.4
		c0,1.5-0.2,3-0.3,3.5c-0.1,1.8,1.1,2.8,3.2,2.8c1.9,0,3.2-1,2.9-2.8c-0.6-3.2-0.9-6.1-0.4-9.6s1.7-5,3.2-5.3
		c1.9-0.4,3.7,0.5,4.6,1.8c0.7,1,2.1,1.6,3.3,0.4c1.1-1.2,0.6-2.5,0-3.4C97.6,31.5,95.2,29.8,91.9,30z"/>
</g>
</svg>
