<?xml version="1.0" encoding="utf-8"?>
<!-- Generator: Adobe Illustrator 28.1.0, SVG Export Plug-In . SVG Version: 6.00 Build 0)  -->
<svg version="1.1" id="레이어_1" xmlns="http://www.w3.org/2000/svg" xmlns:xlink="http://www.w3.org/1999/xlink" x="0px"
	 y="0px" viewBox="0 0 57.4 68.1" style="enable-background:new 0 0 57.4 68.1;" xml:space="preserve">
<style type="text/css">
	.st0{fill:#FFFFFF;}
</style>
<g>
	<path class="st0" d="M51.6,39.5c0,12.7-10.3,23-23,23s-23-10.3-23-23V12.3c0-1.2,0.9-2.2,2.1-2.3l41.3-4.1c1.3-0.1,2.4,0.8,2.5,2.1
		c0,0.1,0,0.2,0,0.2L51.6,39.5L51.6,39.5z M50.5,0c-0.2,0-0.5,0-0.7,0L6.2,4.4C2.7,4.8,0,7.8,0,11.3v28.2
		c0,15.8,12.8,28.7,28.7,28.7c15.8,0,28.7-12.8,28.7-28.7V6.9C57.4,3.1,54.3,0,50.5,0 M40.7,14.5c-0.1,0-0.2,0-0.2,0l-24.1,2.4
		c-1.2,0.1-2.1,1.1-2.1,2.3v20.3c0,7.9,6.4,14.3,14.3,14.3c7.9,0,14.3-6.4,14.3-14.3V16.8C43,15.5,42,14.5,40.7,14.5"/>
</g>
</svg>
