<?xml version="1.0" encoding="utf-8"?>
<!-- Generator: Adobe Illustrator 28.1.0, SVG Export Plug-In . SVG Version: 6.00 Build 0)  -->
<svg version="1.1" id="레이어_1" xmlns="http://www.w3.org/2000/svg" xmlns:xlink="http://www.w3.org/1999/xlink" x="0px"
	 y="0px" viewBox="0 0 207.3 86.2" style="enable-background:new 0 0 207.3 86.2;" xml:space="preserve">
<style type="text/css">
	.st0{fill:#FEFEFE;}
</style>
<g>
	<path class="st0" d="M38,0.2c-6.6,0.1-8.5,0-9.1-0.1c-0.2,1.1-4.7,21.5-4.7,21.6c-1,4.1-1.6,7.1-4,9c-1.3,1.1-2.9,1.6-4.7,1.6
		c-2.9,0-4.6-1.4-4.9-4.2l-0.1-0.9c0,0,0.9-5.5,0.9-5.6c0,0,4.6-18.6,5.5-21.1C17,0.4,17,0.3,17,0.2c-9,0.1-10.6,0-10.8-0.1
		C6.2,0.3,5.9,1.4,5.9,1.4l-4.7,21l-0.4,1.8L0,30c0,1.7,0.3,3.1,1,4.3c2.2,3.8,8.3,4.3,11.8,4.3c4.5,0,8.7-1,11.6-2.7
		c4.9-2.9,6.2-7.5,7.4-11.5l0.5-2.1c0,0,4.8-19.3,5.6-21.8C37.9,0.4,37.9,0.3,38,0.2z M54.3,15.8c-1.2,0-3.3,0.3-5.2,1.2
		c-0.7,0.4-1.3,0.8-2,1.2l0.6-2.2l-0.3-0.4c-4,0.8-4.9,0.9-8.6,1.4l-0.3,0.2c-0.4,3.6-0.8,6.3-2.4,13.3c-0.6,2.6-1.2,5.2-1.9,7.8
		l0.2,0.3c3.8-0.2,5-0.2,8.3-0.1l0.3-0.3c0.4-2.1,0.5-2.7,1.4-7c0.4-2.1,1.3-6.6,1.8-8.2c0.8-0.4,1.6-0.8,2.4-0.8
		c1.9,0,1.6,1.6,1.6,2.3c-0.1,1.1-0.8,4.6-1.4,7.6l-0.5,2c-0.3,1.4-0.7,2.8-1,4.3l0.1,0.3c3.7-0.2,4.9-0.2,8.1-0.1l0.4-0.3
		c0.6-3.4,0.7-4.3,1.8-9.1l0.5-2.2c1-4.4,1.5-6.6,0.7-8.4C58,16.3,56,15.8,54.3,15.8z M72.5,20.4c-2,0.4-3.3,0.6-4.5,0.8
		c-1.3,0.2-2.5,0.4-4.4,0.6L63.4,22l-0.1,0.1c-0.2,1.4-0.3,2.7-0.6,4.1c-0.2,1.5-0.6,3.2-1.1,5.7c-0.4,1.9-0.7,2.5-0.9,3.2
		c-0.2,0.7-0.5,1.3-1,3.2l0.1,0.2l0.1,0.2c1.8-0.1,3-0.1,4.2-0.2c1.2,0,2.5,0,4.4,0l0.2-0.1l0.2-0.2c0.3-1.7,0.3-2.1,0.5-2.9
		c0.2-0.9,0.5-2.1,1.2-5.3c0.3-1.5,0.7-3,1.1-4.6c0.4-1.5,0.7-3.1,1.1-4.6l-0.1-0.2L72.5,20.4z M72.5,14.2c-1.8-1.1-5-0.7-7.1,0.7
		c-2.1,1.4-2.4,3.5-0.6,4.6c1.8,1,5,0.7,7.1-0.8C74,17.3,74.3,15.3,72.5,14.2z M83.4,38.9c3.7,0,7.4-1,10.2-4c2.2-2.4,3.2-6,3.5-7.5
		c1.1-4.9,0.2-7.2-0.9-8.6c-1.7-2.1-4.6-2.8-7.7-2.8c-1.8,0-6.2,0.2-9.6,3.3c-2.5,2.3-3.6,5.4-4.3,8.3c-0.7,3-1.5,8.5,3.5,10.5
		C79.8,38.8,82,38.9,83.4,38.9z M83.2,27.8C84,24.1,85,21,87.5,21c2,0,2.1,2.3,1.3,6.1c-0.2,0.8-0.9,3.9-1.9,5.2
		c-0.7,1-1.5,1.6-2.4,1.6c-0.3,0-1.9,0-1.9-2.4C82.6,30.3,82.9,29.1,83.2,27.8z M106.3,38.5l0.3-0.3c0.4-2.1,0.5-2.7,1.4-7
		c0.4-2.1,1.4-6.6,1.8-8.2c0.8-0.4,1.6-0.8,2.4-0.8c1.8,0,1.6,1.6,1.5,2.3c-0.1,1.1-0.7,4.6-1.4,7.6l-0.4,2c-0.3,1.4-0.7,2.8-1,4.3
		l0.1,0.3c3.8-0.2,4.9-0.2,8.1-0.1l0.4-0.3c0.6-3.4,0.7-4.3,1.8-9.1l0.5-2.2c1-4.4,1.5-6.6,0.8-8.4c-0.8-2-2.8-2.5-4.5-2.5
		c-1.2,0-3.3,0.3-5.2,1.2c-0.7,0.4-1.3,0.8-2,1.2l0.6-2.2l-0.3-0.4c-4,0.8-4.9,0.9-8.6,1.4l-0.3,0.2c-0.4,3.6-0.8,6.3-2.4,13.3
		c-0.6,2.6-1.2,5.2-1.9,7.8l0.2,0.3C101.9,38.4,103,38.4,106.3,38.5z M134,38.6c0.2-1.2,1.6-8,1.7-8c0,0,1.2-5,1.3-5.2
		c0,0,0.4-0.5,0.8-0.7h0.6c5.2,0,11.1,0,15.7-3.4c3.1-2.3,5.3-5.8,6.3-10c0.2-1,0.4-2.2,0.4-3.5c0-1.6-0.3-3.2-1.3-4.4
		c-2.4-3.3-7-3.4-12.5-3.4c0,0-2.7,0-2.7,0c-6.9,0.1-9.7,0.1-10.9-0.1c-0.1,0.5-0.3,1.4-0.3,1.4s-2.5,11.5-2.5,11.5
		c0,0-5.9,24.5-6.2,25.6C130.4,38.5,132.9,38.5,134,38.6z M138.6,18.2c0,0,2.6-11.5,2.6-11.4l0.1-0.6l0-0.4l1.1,0.1
		c0,0,5.4,0.5,5.6,0.5c2.1,0.8,3,3,2.4,5.8c-0.6,2.6-2.2,4.7-4.4,5.7c-1.8,0.9-3.9,1-6.1,1h-1.4L138.6,18.2z M155,28.1
		c-0.7,3-1.5,8.4,3.5,10.3c1.6,0.7,3,0.9,4.5,0.8c1.5-0.1,2.9-0.8,4.2-1.9c-0.1,0.5-0.2,0.9-0.4,1.4l0.2,0.3
		c3.6-0.2,4.7-0.2,8.6-0.1l0.4-0.3c0.6-3.3,1.1-6.6,2.6-12.9c0.7-3,1.4-6.1,2.2-9.1l-0.1-0.3c-4,0.7-5.1,0.9-8.9,1.4l-0.3,0.2
		c0,0.3-0.1,0.6-0.1,0.9c-0.6-1-1.5-1.8-2.8-2.3c-1.7-0.7-5.7,0.2-9.2,3.3C156.8,22,155.7,25.1,155,28.1z M163.4,28.2
		c0.9-3.7,1.8-6.8,4.4-6.8c1.6,0,2.5,1.5,2.3,4c-0.1,0.6-0.3,1.3-0.5,2.1c-0.3,1.1-0.5,2.2-0.8,3.3c-0.3,0.7-0.6,1.4-0.9,1.9
		c-0.7,0.9-2.2,1.5-3.1,1.5c-0.3,0-1.8,0-1.9-2.3C162.9,30.7,163.1,29.5,163.4,28.2z M207.3,16.1l-0.3-0.4c-4,0.8-4.7,0.9-8.3,1.4
		l-0.3,0.3c0,0,0,0.1,0,0.2l0-0.1c-2.7,6.2-2.6,4.9-4.8,9.8c0-0.2,0-0.4,0-0.6l-0.6-10.7l-0.3-0.4c-4.1,0.8-4.2,0.9-8.1,1.4
		l-0.3,0.3c0,0.1,0,0.3-0.1,0.4l0,0.1c0.5,2.4,0.4,1.9,0.8,5.8c0.2,1.9,0.5,3.8,0.7,5.7c0.4,3.1,0.6,4.7,1.1,9.5
		c-2.6,4.3-3.2,5.9-5.7,9.6l0,0l-1.8,2.8c-0.2,0.3-0.4,0.5-0.6,0.6c-0.3,0.1-0.6,0.2-1.1,0.2h-1l-1.4,4.8l5,0.1
		c2.9,0,4.7-1.4,5.7-3.2l3.1-5.3h0l0.3-0.4C191.4,43.5,207.3,16.1,207.3,16.1z M155,79.2h-2.1l7.8-25.7h2.6l0.8-2.7l0.1,2.9
		c-0.1,1.8,1.3,3.4,5.1,3.2h4.4l1.5-5h-1.6c-0.9,0-1.4-0.2-1.3-0.7l-0.1-3H164v0c-2.6,0.1-10.4,0.3-12,0.7c-1.9,0.5-3.9,1.9-3.9,1.9
		l0.8-2.7h-7.5l-1.6,5.3l-7.9,26.1h-1.5l-1.5,4.9h15l-0.5,1.6h7.4l0.5-1.6h2.1L155,79.2z M148.8,58.7c-1.2,0.3-3.5,1.3-3.5,1.3
		l2-6.6h6l-1.4,4.8C151.9,58.3,150.1,58.4,148.8,58.7z M149,68.1c0,0-1.9,0.2-3.1,0.5c-1.2,0.4-3.5,1.5-3.5,1.5l2.1-6.8h6L149,68.1z
		 M145.6,79.3h-6l1.7-5.8h6L145.6,79.3z M160.1,63.3h8.7l-1.2,4h-8.8l-1.3,4.4h7.7l-5.8,8.2c-0.4,0.6-0.8,0.8-1.2,1
		c-0.4,0.2-0.9,0.4-1.6,0.4h-2.1l-1.5,4.8h5.6c2.9,0,4.6-1.3,5.9-3l4-5.5l0.9,5.5c0.2,1,0.9,1.6,1.4,1.9c0.6,0.3,1.1,0.8,1.9,0.8
		c0.9,0,1.5,0.1,1.9,0.1h2.7l1.6-5.4h-1.1c-0.6,0-1.7-0.1-1.9-0.3c-0.2-0.2-0.2-0.6-0.3-1.2l-0.9-5.6h-3.6l1.6-1.9h8.8l1.3-4.4h-8.1
		l1.3-4h8.1l1.5-5h-24.1L160.1,63.3z M86.9,80.4l2-6.7h8.3l1.5-5h-8.3l1.3-4.1h8.1l1.5-4.8H81l-1.5,4.8h4.6l-1.2,4.1h-4.6l-1.5,5.1
		h4.6l-2.7,8.9c-0.4,1.2,0.2,1.6,0.5,2.2c0.3,0.5,0.7,0.9,1.5,1.1c0.8,0.2,1.4,0.3,2.1,0.3h9.4l1.7-5.5l-4.2,0.6
		C88.9,81.2,86.7,81.1,86.9,80.4z M87.8,48.2L85.7,52c-0.5,0.8-0.9,1.3-1.2,1.6c-0.3,0.2-1,0.3-1.9,0.3h-1.1l-1.5,4.9h3.7
		c1.8,0,3.1-0.6,3.7-1c0.7-0.4,0.9-0.2,1.4-0.7l1.2-1.1h11.4L103,51h-8.3l1.5-2.8H87.8z M104.7,80.5c-0.2-0.3-0.1-0.8,0.2-1.8
		l3.1-10.3h11.1c1.6,0,2.8,0,3.5-0.1c0.8-0.1,1.7-0.4,2.7-0.9c1-0.5,1.5-1.1,1.9-1.8c0.5-0.7,1.3-2.1,1.9-4.3l3.9-13l-11.5,0.1
		c0,0-3.5,0.5-5.1,1.1c-1.6,0.6-3.8,2.4-3.8,2.4l1-3.6h-7.1l-9.9,33c-0.4,1.3-0.6,2.2-0.6,2.8c0,0.6,0.8,1.2,1.3,1.6
		c0.6,0.4,1.5,0.4,2.3,0.4c0.9,0.1,2.1,0.1,3.9,0.1h5.5l1.7-5.7l-4.9,0.5C105.2,81,104.8,80.7,104.7,80.5z M110,61.4h11.6l-0.7,2.3
		c-0.1,0.1-0.4-0.1-1.5,0h-10.1L110,61.4z M112.4,53.7h11.7l-0.8,2.8c0,0-5.5-0.1-6.4,0.1c-3.9,0.7-6.2,2.8-6.2,2.8L112.4,53.7z
		 M121.2,71.5c-0.1,0.3-0.2,0.6-0.5,0.7c-0.2,0.2-0.6,0.2-1.2,0.2h-1.7l0.1-2.8h-6.9l-0.3,13.8c0,1,0.1,1.6,0.8,2
		c0.7,0.6,3,0.6,6,0.6h4.3l1.6-5.2l-3.8,0.2l-1.3,0.1c-0.2-0.1-0.3-0.1-0.5-0.3c-0.2-0.2-0.4-0.1-0.4-1.1l0-3.5l3.9-0.2
		c2.1,0,3-0.7,3.8-1.4c0.7-0.6,1-1.4,1.3-2.3l0.7-3.1h-5.4L121.2,71.5z"/>
</g>
</svg>
