<?xml version="1.0" encoding="utf-8"?>
<!-- Generator: Adobe Illustrator 28.3.0, SVG Export Plug-In . SVG Version: 6.00 Build 0)  -->
<svg version="1.1" id="레이어_1" xmlns="http://www.w3.org/2000/svg" xmlns:xlink="http://www.w3.org/1999/xlink" x="0px"
	 y="0px" viewBox="0 0 29.2 28" style="enable-background:new 0 0 29.2 28;" xml:space="preserve">
<path d="M14.6,21.3c0.7,0,1.4-0.3,1.9-0.8c0.5-0.5,0.8-1.1,0.8-1.9c0-0.7-0.3-1.4-0.8-1.9c-0.5-0.5-1.1-0.8-1.9-0.8
	c-0.7,0-1.4,0.3-1.9,0.8c-0.5,0.5-0.8,1.2-0.8,1.9c0,0.7,0.3,1.4,0.8,1.9S13.8,21.3,14.6,21.3 M6.6,28c-0.7,0-1.4-0.3-1.9-0.8
	s-0.8-1.1-0.8-1.9V12c0-0.7,0.3-1.4,0.8-1.9c0.5-0.5,1.2-0.8,1.9-0.8h9.3V6.7c0-1.8,0.7-3.4,2-4.7c1.3-1.3,2.9-1.9,4.7-2
	c1.7,0,3.1,0.5,4.4,1.6s2,2.4,2.2,4c0,0.3-0.1,0.5-0.3,0.8c-0.2,0.2-0.6,0.3-0.9,0.3c-0.4,0-0.7-0.1-0.9-0.2
	c-0.2-0.2-0.4-0.4-0.5-0.8c-0.2-0.8-0.7-1.6-1.4-2.1c-0.7-0.6-1.5-0.9-2.5-0.9c-1.1,0-2.1,0.4-2.8,1.2s-1.2,1.7-1.2,2.8v2.7h4
	c0.7,0,1.4,0.3,1.9,0.8c0.5,0.5,0.8,1.2,0.8,1.9v13.3c0,0.7-0.3,1.4-0.8,1.9c-0.5,0.5-1.1,0.8-1.9,0.8H6.6z"/>
</svg>
