<?xml version="1.0" encoding="utf-8"?>
<!-- Generator: Adobe Illustrator 28.3.0, SVG Export Plug-In . SVG Version: 6.00 Build 0)  -->
<svg version="1.1" id="레이어_1" xmlns="http://www.w3.org/2000/svg" xmlns:xlink="http://www.w3.org/1999/xlink" x="0px"
	 y="0px" viewBox="0 0 21.3 28" style="enable-background:new 0 0 21.3 28;" xml:space="preserve">
<style type="text/css">
	.st0{fill:#FFFFFF;}
</style>
<path class="st0" d="M2.7,28c-0.7,0-1.4-0.3-1.9-0.8S0,26.1,0,25.3V12c0-0.7,0.3-1.4,0.8-1.9S2,9.3,2.7,9.3h12V6.7
	c0-1.1-0.4-2.1-1.2-2.8c-0.8-0.8-1.7-1.2-2.8-1.2c-1,0-1.8,0.3-2.5,0.8C7.5,4.1,7,4.8,6.8,5.6C6.7,5.9,6.5,6.2,6.2,6.4
	C6,6.6,5.7,6.7,5.3,6.7C5,6.7,4.6,6.5,4.4,6.3S4,5.8,4.1,5.4c0.2-1.5,1-2.8,2.2-3.9S9,0,10.7,0c1.8,0,3.4,0.7,4.7,2s2,2.9,1.9,4.7
	v2.7h1.3c0.7,0,1.4,0.3,1.9,0.8s0.8,1.2,0.8,1.9v13.3c0,0.7-0.3,1.4-0.8,1.9C20,27.7,19.4,28,18.7,28H2.7z M10.7,21.3
	c0.7,0,1.4-0.3,1.9-0.8s0.8-1.1,0.8-1.9c0-0.7-0.3-1.4-0.8-1.9C12,16.3,11.4,16,10.7,16s-1.4,0.3-1.9,0.8S8,17.9,8,18.7
	c0,0.7,0.3,1.4,0.8,1.9S9.9,21.3,10.7,21.3"/>
</svg>
