<?xml version="1.0" encoding="UTF-8"?>
<svg id="_레이어_1" data-name="레이어 1" xmlns="http://www.w3.org/2000/svg" viewBox="0 0 379.172 357.77">
  <defs>
    <style>
      .cls-1 {
        fill: #fff;
        stroke-width: 0px;
      }
    </style>
  </defs>
  <path class="cls-1" d="M234.163,60.012c30.998,0,60.976-.124,90.952.052,14.909.087,28.072,5.078,38.545,15.969,7.906,8.221,12.309,17.997,14.305,29.443,1.453,8.333,1.168,16.506,1.179,24.733.076,57.476-.02,114.952-.124,172.428-.043,23.88-13.248,43.607-34.451,51.666-6.127,2.329-12.49,3.443-19.065,3.441-90.62-.014-181.24.114-271.86-.099-22.053-.052-38.116-10.534-48.353-30.246-3.935-7.577-5.186-15.358-5.18-23.728.041-63.14-.184-126.281-.086-189.421.048-30.835,23.662-54.152,54.482-54.224,28.152-.066,56.304.027,84.456.008,1.743-.001,3.578.49,5.836-.736-10.136-12.602-18.039-26.562-28.284-38.856-2.398-2.877-4.007-6.191-4.543-9.746-.704-4.669,1.857-7.956,6.036-9.838,4.375-1.97,8.735-.543,12.076,4.211,10.34,14.713,20.551,29.516,30.808,44.288,3.418,4.923,6.837,9.847,10.228,14.79,4.419,6.441.793,14.32-7.004,15.167-1.648.179-3.328.098-4.993.098-34.314.002-68.631.222-102.942-.112-14.161-.138-24.831,5.774-32.665,16.869-3.861,5.468-4.123,12.359-4.125,19.031-.014,47.314-.066,94.627-.108,141.941-.014,15.327-.104,30.654-.029,45.981.093,18.975,9.833,29.068,26.074,35.239,3.726,1.416,7.983.418,12.003.417,88.455-.02,176.909-.055,265.363.053,7.128.009,13.856-.922,19.986-4.59,11.353-6.793,17.243-16.949,17.25-30.133.035-63.473-.003-126.947-.174-190.421-.054-19.845-14.91-34.197-35.191-34.252-34.815-.094-69.631-.02-104.446-.022-1.665,0-3.344.082-4.993-.094-7.751-.826-11.563-8.809-7.148-15.191,13.531-19.565,27.096-39.108,40.764-58.578,5.149-7.335,13.637-7.308,17.449-.166,2.281,4.273.892,7.977-1.69,11.604-9.056,12.723-18.048,25.491-27.059,38.246-.932,1.319-1.829,2.664-3.278,4.779Z"/>
  <path class="cls-1" d="M111.659,206.676c0-23.91-.022-47.82.013-71.731.011-7.247,11.073-19.116,20.251-21.863,8.315-2.488,16.108-1.152,23.508,3.197,12.329,7.246,24.632,14.538,37.027,21.67,20.086,11.556,40.239,22.996,60.36,34.491,6.611,3.777,13.212,7.572,19.819,11.357,20.922,11.984,21.108,38.361.207,50.454-31.776,18.385-63.663,36.58-95.499,54.862-7.751,4.451-15.438,9.015-23.238,13.378-13.975,7.817-33.842,3.482-40.704-15.177-1.402-3.812-1.531-7.756-1.536-11.712-.034-22.976-.017-45.951-.017-68.927-.064,0-.127,0-.191,0ZM203.793,208.971c-11.527-6.385-22.226-12.262-32.859-18.256-1.605-.905-2.488-1.085-2.493,1.032-.032,12.175-.016,24.351-.016,37.423,12.064-6.889,23.232-13.267,35.368-20.198Z"/>
</svg>