<?xml version="1.0" encoding="utf-8"?>
<!-- Generator: Adobe Illustrator 28.1.0, SVG Export Plug-In . SVG Version: 6.00 Build 0)  -->
<svg version="1.1" id="레이어_1" xmlns="http://www.w3.org/2000/svg" xmlns:xlink="http://www.w3.org/1999/xlink" x="0px"
	 y="0px" viewBox="0 0 216.4 177.8" style="enable-background:new 0 0 216.4 177.8;" xml:space="preserve">
<style type="text/css">
	.st0{fill:#FFFFFF;}
</style>
<g>
	<path class="st0" d="M0.7,0.2C2-0.6,2.9,1,3.6,1.9c46.2,57.9,92.5,115.7,138.8,173.5c0.9,0.8,0.2,2.6-1.1,2.4
		c-22.1,0-44.3,0-66.4,0c-1.8,0-3.5-0.9-4.6-2.2c-23-28.7-45.9-57.4-68.9-86.1c-1-1.2-1.5-2.7-1.4-4.2C0,57.5,0,29.8,0,2.1
		C0,1.4,0,0.6,0.7,0.2z M214.6,0.1c0.9-0.4,2,0.5,1.8,1.5c0,27.7,0,55.5,0,83.2c0.1,1.6-0.3,3.2-1.3,4.4c-7,8.7-14,17.5-21,26.2
		c-1.2,1.5-3.1,2.3-5,2.3c-22,0-44,0-66,0c-1.3,0.2-2-1.6-1.1-2.4c30.5-38.2,61-76.3,91.5-114.5C213.9,0.5,214.2,0.3,214.6,0.1
		L214.6,0.1z"/>
</g>
</svg>
