<?xml version="1.0" encoding="utf-8"?>
<!-- Generator: Adobe Illustrator 28.1.0, SVG Export Plug-In . SVG Version: 6.00 Build 0)  -->
<svg version="1.1" id="레이어_1" xmlns="http://www.w3.org/2000/svg" xmlns:xlink="http://www.w3.org/1999/xlink" x="0px"
	 y="0px" viewBox="0 0 140.3 70.3" style="enable-background:new 0 0 140.3 70.3;" xml:space="preserve">
<style type="text/css">
	.st0{fill-rule:evenodd;clip-rule:evenodd;fill:#FFFFFF;}
</style>
<path class="st0" d="M35,35c0,4.7,0.9,9.3,2.8,13.6c1.8,4.2,4.3,7.9,7.5,11.1c3.2,3.2,7,5.7,11.1,7.5c4.3,1.8,8.9,2.8,13.6,2.8V36.2
	c0.1,4.6,1.2,9.1,3,13.3c1.8,4.1,4.4,7.7,7.6,10.8c3.2,3.1,6.9,5.6,11,7.3c4.3,1.8,8.8,2.7,13.4,2.7c7,0,13.8-2.1,19.6-6
	c5.6-3.8,10.1-9.2,12.7-15.5c1.8-4.3,2.8-9,2.8-13.7c0-7-2.1-13.8-6-19.6c-3.8-5.6-9.2-10.1-15.5-12.7c-4.3-1.8-9-2.8-13.7-2.8
	c-4.6,0-9.2,0.9-13.4,2.7c-4.1,1.7-7.9,4.2-11,7.3c-3.2,3.1-5.8,6.8-7.6,10.8c-1.9,4.2-2.9,8.7-3,13.3V0c-7,0-13.8,2.1-19.6,6
	c-5.6,3.8-10,9.2-12.7,15.4C36,25.7,35,30.3,35,35L35,35z"/>
<path class="st0" d="M35,0c-7,0-13.8,2.1-19.6,6c-5.6,3.8-10,9.2-12.7,15.4C0.9,25.7,0,30.3,0,35c0,4.7,0.9,9.3,2.8,13.6
	c1.8,4.2,4.3,7.9,7.5,11.1c3.2,3.2,7,5.7,11.1,7.5c4.3,1.8,9,2.8,13.6,2.8V35V0z"/>
</svg>
