<?xml version="1.0" encoding="utf-8"?>
<!-- Generator: Adobe Illustrator 28.1.0, SVG Export Plug-In . SVG Version: 6.00 Build 0)  -->
<svg version="1.1" id="레이어_1" xmlns="http://www.w3.org/2000/svg" xmlns:xlink="http://www.w3.org/1999/xlink" x="0px"
	 y="0px" viewBox="0 0 430.1 453.2" style="enable-background:new 0 0 430.1 453.2;" xml:space="preserve">
<style type="text/css">
	.st0{fill:#FFFFFF;}
</style>
<path class="st0" d="M212.2,81.1c-3.2,0.1-5.7,2.7-5.6,5.9c0,0,0,0,0,0c0.1,3.2,2.7,5.7,5.9,5.6c28.3-0.6,55.7,10.2,75.9,30
	c21.1,21.8,32.2,51.3,30.8,81.5c-0.1,3.2,2.3,5.9,5.5,6c3.2,0.2,5.9-2.3,6-5.5c0,0,0,0,0,0c1.5-33.5-10.8-66.1-34.1-90.1
	c0,0-0.1-0.1-0.1-0.1C274,92.4,243.6,80.4,212.2,81.1L212.2,81.1z"/>
<path class="st0" d="M223.1,110.9c-3.2-0.1-5.8,2.4-5.9,5.6c-0.1,3.2,2.4,5.8,5.6,5.9c0,0,0,0,0,0c18.5,0.5,36.1,8.1,49.1,21.2
	c11.9,13.2,18,30.5,17,48.2c-0.2,3.2,2.2,5.9,5.4,6.1c0,0,0,0,0,0c3.2,0.2,5.9-2.2,6.1-5.4c1.2-20.8-6-41.3-20-56.7
	c-0.1-0.1-0.1-0.1-0.2-0.2C265.2,120.3,244.7,111.4,223.1,110.9L223.1,110.9z"/>
<path class="st0" d="M230.8,141.6c-3.2,0.2-5.6,2.9-5.5,6c0.1,3.2,2.8,5.6,6,5.5c0,0,0,0,0,0c16.4-0.8,29.6,12.8,28.3,29.1
	c-0.3,3.2,2.1,6,5.3,6.2c0,0,0,0,0,0c3.2,0.2,5.9-2.1,6.2-5.3C273,160.1,253.9,140.5,230.8,141.6z M232.3,259.6
	c4.6,0.3,9.1-1.4,12.3-4.7l8.5-10.7c6-6.6,15.9-7.9,23.5-3.2c7.3,4.2,14.3,8.8,21.1,13.7c6.4,4.8,19.5,15.6,19.5,15.8
	c6.4,5.1,7.8,14.2,3.4,21.1c-4.7,8.1-10.6,15.4-17.6,21.7c-5,4.6-11.3,7.6-18,8.6c-0.9,0.1-1.7,0.1-2.6,0c-2.6,0-5.1-0.3-7.5-1.1
	c-17.1-5.9-33.5-13.5-49.1-22.8c-14.5-7.9-28.2-17.1-41.1-27.4c-6.5-5.1-12.7-10.6-18.5-16.5h-0.7c-5.8-5.9-11.3-12.2-16.5-18.7
	c-10.3-12.9-19.4-26.7-27.4-41.1c-9.2-15.5-16.8-32-22.6-49.1c-0.8-2.5-1.2-5.1-1.2-7.7c-0.1-0.9-0.1-1.7,0-2.6
	c1.1-6.7,4.1-12.9,8.6-17.8c5.3-8,11.8-15.1,19.3-21c6.9-4.4,16.1-2.9,21.3,3.4c0,0,11,13.7,15.6,19.5c4.7,5.8,10.4,15.8,13.7,21.1
	c4.7,7.6,3.3,17.5-3.3,23.6l-10.7,8.4c-3.3,3.3-5,7.8-4.7,12.5C168.3,220.6,196.4,248.8,232.3,259.6L232.3,259.6z"/>
<path class="st0" d="M381.8,44.2C370.6,33.8,325.1,0.7,223.7,0.3c0,0-119.6-7.3-178.3,46.2c-32.5,32.5-43.9,80-45.1,138.8
	c-1.2,58.8-2.7,169.1,103.5,199V430c0,0,0,18.5,11.5,22.2c14.7,4.7,23.3-9.5,37.4-24.5c7.7-8.4,18.4-20.6,26.3-29.9
	c45.2,4.2,90.8,0.9,135-9.9c14.7-4.8,97.8-15.4,111.4-125.8C439.8,148.5,419.1,76.6,381.8,44.2L381.8,44.2z M394.2,254.1
	c-11.5,92-78.9,97.8-91.2,101.8c-38,9.4-77.2,12.7-116.2,10c0,0-46.1,54.9-60.5,69.9c-1.6,1.9-4.1,2.9-6.6,2.7
	c-2.5-0.7-3.2-3.6-3.2-7.8v-75.8c-90-25.1-84.8-118.9-83.7-168C34,137.8,43.2,97.4,70.6,70.3c49.2-44.6,150.9-38,150.9-38
	c85.7,0,126.9,26.2,136.3,34.8C389.8,94.3,405.8,159,394.2,254.1L394.2,254.1z"/>
</svg>
