<?xml version="1.0" encoding="utf-8"?>
<!-- Generator: Adobe Illustrator 28.1.0, SVG Export Plug-In . SVG Version: 6.00 Build 0)  -->
<svg version="1.1" id="레이어_1" xmlns="http://www.w3.org/2000/svg" xmlns:xlink="http://www.w3.org/1999/xlink" x="0px"
	 y="0px" viewBox="0 0 722.6 625" style="enable-background:new 0 0 722.6 625;" xml:space="preserve">
<style type="text/css">
	.st0{fill:#FFFFFF;}
</style>
<path class="st0" d="M722.3,144.6c-3.2,70.3-52.3,166.6-147.4,288.9C476.7,561.1,393.5,625,325.6,625c-42.1,0-77.8-38.9-106.9-116.6
	c-19.4-71.3-38.9-142.6-58.3-213.9c-21.6-77.7-44.8-116.6-69.6-116.6c-5.4,0-24.3,11.4-56.7,34L0,168.1
	c35.7-31.3,70.8-62.7,105.4-94C153,33,188.7,11.4,212.5,9.2c56.2-5.4,90.8,33,103.8,115.3c14,88.8,23.8,144,29.2,165.6
	c16.2,73.7,34.1,110.5,53.5,110.5c15.1,0,37.8-23.9,68.1-71.7c30.2-47.8,46.5-84.1,48.6-109.1c4.3-41.2-11.9-61.9-48.6-61.9
	c-17.3,0-35.1,4-53.5,11.9C449.3,53.4,517.2-3.1,617.3,0.1C691.6,2.3,726.6,50.5,722.3,144.6L722.3,144.6z"/>
</svg>
