<?xml version="1.0" encoding="UTF-8"?>
<svg id="_레이어_1" data-name="레이어 1" xmlns="http://www.w3.org/2000/svg" viewBox="0 0 600.075 599.737">
  <defs>
    <style>
      .cls-1 {
        fill: #fff;
        stroke-width: 0px;
      }
    </style>
  </defs>
  <path class="cls-1" d="M190.204,566.052c4.964-1.365,9.651-2.649,14.335-3.944,13.989-3.867,27.986-7.706,41.959-11.63,4.23-1.188,7.962-.559,10.987,2.674,5.076,5.423,2.609,14.243-4.599,16.365-6.578,1.936-13.216,3.67-19.827,5.494-28.903,7.977-57.8,15.979-86.712,23.921-13.169,3.618-26.007-5.894-26.32-19.548-.147-6.41,2.319-11.821,7.118-16.131,4.519-4.059,9.026-8.132,13.54-12.197,35.695-32.145,71.391-64.289,107.084-96.436.472-.425.923-.875,1.479-1.405-6.215-7.294-9.629-15.575-9.06-25.257.564-9.591,4.946-17.354,11.697-24.02-.965-.892-1.86-1.667-2.698-2.501-5.951-5.917-9.034-13.045-9.034-21.47,0-22.461.004-44.923-.005-67.384-.001-2.827.406-2.576-2.523-2.581-5.196-.01-10.391-.01-15.587.001-1.84.004-1.84.025-1.951,1.743-.925,14.258-11.458,25.771-25.559,27.93-.473.072-.954.115-1.432.126-7.352.173-14.749.624-22.046-.094-12.311-1.212-20.796-8.017-25.265-19.534-4.617-11.899-8.994-23.89-13.472-35.843-2.743-7.321-5.446-14.657-8.236-21.96-.995-2.604-.312-2.368-3.326-2.369-17.106-.006-34.211-.003-51.317-.003-13.029,0-26.058.038-39.087-.013-8.84-.035-16.357-3.272-22.364-9.783-5.269-5.712-7.829-12.568-7.874-20.294-.078-13.268-.219-26.542.035-39.806.248-12.948,6.474-22.278,18.276-27.703,1.455-.669,1.739-1.419,1.736-2.842-.041-20.063-.028-40.126-.028-60.19,0-6.315-.003-12.629,0-18.944.009-15.477,10.741-27.944,26.026-30.192,1.258-.185,2.55-.184,3.827-.187,6.874-.017,13.749-.055,20.622.027,1.553.018,2.333-.365,3.012-1.894,8.294-18.672,22.33-30.747,42.032-36.189,5.031-1.39,10.186-1.98,15.399-1.982,33.012-.01,66.025-.018,99.037.03,1.837.003,2.952-.506,4.102-2.048,3.854-5.169,9.127-7.864,15.626-7.942,4.316-.052,8.633-.01,12.949-.01,28.616,0,57.232.064,85.848-.043,7.712-.029,13.832,2.658,18.228,9.043.454.66.937,1.028,1.752.972.636-.044,1.278-.007,1.918-.007,32.773,0,65.545-.001,98.318,0,25.209.001,47.794,14.869,57.745,38.088.625,1.458,1.298,2.025,2.955,1.995,6.472-.12,12.96.201,19.421-.099,15.638-.726,31.371,11.718,31.24,31.303-.17,25.338-.041,50.677-.041,76.016,0,.56.068,1.129-.012,1.677-.276,1.894.46,2.839,2.273,3.713,11.313,5.45,17.405,14.509,17.585,27.125.191,13.346-.1,26.699.081,40.045.207,15.191-12.064,30.103-30.162,30.122-29.975.032-59.95.001-89.925.019-3.631.002-2.752-.501-3.981,2.769-7.159,19.041-14.248,38.108-21.446,57.134-4.119,10.889-11.994,17.43-23.428,19.666-1.497.293-3.019.322-4.537.325-5.595.01-11.191.026-16.786,0-15.695-.073-28.552-12.183-29.613-27.871-.136-2.015-.136-2.03-2.185-2.031-11.99-.005-23.98-.006-35.97.001-1.937.001-1.958.023-1.959,1.948-.007,11.99-.006,23.98,0,35.97,0,1.971.018,1.993,1.9,1.997,5.435.012,10.871-.022,16.306.025,1.189.01,1.732-.143,1.971-1.573.966-5.788,5.735-8.645,10.318-8.426,5.35.256,9.418,4.392,9.53,9.841.139,6.791.141,13.59-.002,20.381-.112,5.351-4.138,9.419-9.327,9.801-5.111.376-9.64-3.174-10.535-8.467-.211-1.249-.608-1.538-1.764-1.528-5.595.046-11.191.049-16.786-.002-1.211-.011-1.692.292-1.643,1.597.098,2.634.011,5.275.032,7.912.075,9.449-3.551,17.214-10.621,23.421-.299.263-.596.529-.886.802-.048.045-.057.132-.084.199,15.384,15.18,14.706,35.193,2.598,49.238.34.791,1.107,1.236,1.727,1.794,40.024,36.057,80.058,72.102,120.078,108.164,8.505,7.664,9.748,19.697,3.011,28.511-5.08,6.645-13.718,9.62-21.806,7.4-21.378-5.868-42.746-11.776-64.116-17.672-13.683-3.775-27.364-7.557-41.044-11.342-.844-.233-1.695-.466-2.508-.786-4.951-1.948-7.48-7.316-5.853-12.371,1.594-4.954,6.687-7.964,11.733-6.638,9.255,2.432,18.464,5.039,27.69,7.583,9.302,2.565,18.601,5.144,27.903,7.708.609.168,1.238.267,1.832.393.454-.641.277-1.301.278-1.923.012-9.512-.018-19.024.037-28.536.008-1.393-.387-2.35-1.436-3.292-24.198-21.741-48.378-43.502-72.506-65.319-1.449-1.31-2.576-1.479-4.388-.808-14.509,5.37-29.06,5.289-43.548-.102-1.547-.576-2.523-.474-3.778.66-24.252,21.913-48.548,43.778-72.848,65.638-.937.843-1.472,1.68-1.463,3.05.068,9.751.036,19.504.039,29.255,0,.388.04.777.082,1.544ZM134.593,219.948c-37.084,0-74.169,0-111.253,0-.559,0-1.123.046-1.677-.009-1.091-.109-1.588.222-1.556,1.44.078,2.955-.049,5.916.053,8.87.143,4.172,2.81,7.761,6.638,9.129,1.526.546,3.114.605,4.723.605,70.572-.012,141.145-.016,211.717.014,2.731.001,5.151-.644,7.485-2.053,12.707-7.672,25.449-15.283,38.174-22.925,1.165-.699,2.328-1.394,3.598-1.886,6.383-2.473,12.514-1.916,18.37,1.593,12.732,7.63,25.471,15.249,38.164,22.943,2.614,1.585,5.294,2.34,8.371,2.338,70.253-.045,140.505-.035,210.758-.035.559,0,1.119.007,1.678-.001,5.861-.093,10.069-4.258,10.202-10.144.052-2.317.011-4.635.01-6.953q0-2.927-2.918-2.927c-73.609,0-147.219-.013-220.828.023-6.087.003-11.635-1.535-16.827-4.672-12.5-7.552-25.053-15.018-37.541-22.59-1.351-.819-2.284-.809-3.632.008-12.421,7.53-24.912,14.946-37.34,22.465-5.333,3.227-11.017,4.805-17.274,4.795-36.365-.061-72.73-.03-109.095-.03ZM133.404,199.939c36.607,0,73.214-.012,109.821.024,2.81.003,5.294-.662,7.706-2.123,12.561-7.608,25.197-15.092,37.756-22.705,7.64-4.631,15.148-4.664,22.8-.026,12.423,7.529,24.933,14.914,37.347,22.458,2.695,1.638,5.434,2.407,8.588,2.406,73.214-.043,146.428-.033,219.642-.033.559,0,1.121-.029,1.678.004.867.051,1.33-.221,1.312-1.198-.058-3.275.139-6.568-.14-9.822-.362-4.219-2.825-6.978-6.799-8.424-1.552-.565-3.147-.472-4.739-.472-70.416-.004-140.833-.018-211.249.021-6.574.004-12.562-1.615-18.184-5.038-12.339-7.513-24.774-14.867-37.132-22.35-1.264-.765-2.135-.761-3.403.007-12.424,7.527-24.918,14.938-37.339,22.469-5.479,3.322-11.333,4.911-17.739,4.908-70.336-.033-140.673-.021-211.009-.021-.639,0-1.279-.007-1.918.002-5.976.085-10.18,4.304-10.265,10.327-.032,2.238-.027,4.476,0,6.714.038,3.222-.515,2.867,2.969,2.868,36.767.008,73.534.005,110.3.005ZM135.448,89.927c-8.387,0-16.776.124-25.159-.044-5.507-.111-10.252,4.755-10.273,10.048-.022,5.354,4.743,10.217,10.16,10.182,16.693-.108,33.387-.058,50.08-.029,5.162.009,9.889-3.984,10.01-10.046.114-5.681-4.39-10.101-10.138-10.108-8.227-.01-16.454-.003-24.681-.003ZM205.217,110.073c1.678,0,3.358-.046,5.034.009,5.232.172,9.973-4.62,9.995-10.074.019-4.74-4.081-10.195-9.984-10.092-3.435.06-6.872.004-10.307.017-.634.002-1.287.004-1.898.146-5.673,1.32-8.376,5.973-8.058,10.63.376,5.507,4.685,9.33,10.186,9.362,1.678.01,3.356.002,5.034.001Z"/>
</svg>