<?xml version="1.0" encoding="utf-8"?>
<!-- Generator: Adobe Illustrator 28.1.0, SVG Export Plug-In . SVG Version: 6.00 Build 0)  -->
<svg version="1.1" id="_레이어_1" xmlns="http://www.w3.org/2000/svg" xmlns:xlink="http://www.w3.org/1999/xlink" x="0px"
	 y="0px" viewBox="0 0 229.7 231.5" style="enable-background:new 0 0 229.7 231.5;" xml:space="preserve">
<style type="text/css">
	.st0{fill:#FFFFFF;}
</style>
<path class="st0" d="M198.9,10.1c-28,0-55.9,0-83.9,0c-28.1,0-56.3,0-84.4,0c-13.6,0-20.5,7-20.6,20.6c0,37,0,73.9,0,110.9
	c0,14.8,6.5,21.4,21.2,21.4c35.1,0,70.3,0.1,105.4-0.1c5,0,8.1,1.5,11.1,5.5c12.3,16.3,25,32.4,37.6,48.5c1.7,2.2,3.8,5.2,6.7,4.3
	c3.3-1,2.4-4.7,2.4-7.4c0-15.2,0.2-30.3-0.2-45.5c-0.1-4.5,1.1-5.5,5.5-5.5c13,0.2,19.9-6.9,19.9-20v0c0-37.3,0-74.6,0-111.9
	C219.7,16.9,212.9,10.1,198.9,10.1z"/>
<path d="M199.2,0c-28.1,0-56.3,0-84.4,0C86.3,0,57.9,0,29.4,0C11.8,0.1,0,11.8,0,29.5c0,38.1,0,76.3,0,114.4c0,2,0.1,4,0.4,6
	c2.7,14.3,13.4,23.1,28.7,23.2c34.5,0.1,68.9,0.1,103.4-0.1c4.5,0,7.2,1.5,9.9,5c11.3,14.8,22.8,29.5,34.2,44.2
	c2.5,3.2,5.2,6.1,8.9,7.9c7.9,3.8,16,0.1,18.4-8.4c0.6-2.3,0.7-4.6,0.7-6.9c0-12.7,0-25.3-0.1-38c0-2-0.2-3.5,2.7-4.2
	c14.6-3.4,22.5-13.7,22.5-28.7c0-37.8,0-75.6,0-113.4C229.7,11.4,218.3,0,199.2,0L199.2,0z M219.7,142.8c0,13.1-6.9,20.2-19.9,20
	c-4.4-0.1-5.6,1-5.5,5.5c0.3,15.1,0.2,30.3,0.2,45.5c0,2.7,0.9,6.4-2.4,7.4c-3,0.8-5-2.1-6.7-4.3c-12.6-16.1-25.2-32.2-37.6-48.5
	c-3-4-6.1-5.5-11.1-5.5c-35.1,0.2-70.3,0.1-105.4,0.1c-14.7,0-21.2-6.6-21.2-21.4c0-37,0-73.9,0-110.9c0-13.6,6.9-20.6,20.6-20.6
	c28.1,0,56.3,0,84.4,0c28,0,55.9,0,83.9,0c14,0,20.8,6.8,20.8,20.8C219.7,68.2,219.7,105.5,219.7,142.8L219.7,142.8z"/>
<path d="M73.2,112c6.4-22.8,12.5-44.7,18.6-66.6c1.5-5.3,4.2-6.7,9.7-5.1c6.2,1.8,7.9,4.5,6.2,10c-7.7,25.4-15.5,50.8-23.2,76.1
	c-1.7,5.6-5.1,7.8-11.7,7.7c-6.4-0.1-9.4-2.1-11.1-7.8C53.9,101,46.1,75.6,38.3,50.3c-1.7-5.5-0.2-8,5.8-9.8
	c5.8-1.8,8.6-0.5,10.1,5.1c6,21.1,11.9,42.2,17.8,63.2C72.2,109.5,72.6,110.2,73.2,112L73.2,112z"/>
<path d="M179,121.7c-4.7-8.8-9.3-17.5-14.2-26.2c-1.3-2.3-1.4-3.3,1.4-4.7c10.7-5.2,15.5-16.4,13.3-30c-1.9-11.4-8.8-18.2-20.8-20.2
	c-10.9-1.8-21.9-0.6-32.9-0.8c-5.4-0.1-7,1.7-7.1,7.2c0,13.1,0,26.3,0,39.5c0,13.2,0,26.3,0,39.5c0,5.2,2.5,7.5,8.2,7.6
	c5.8,0.1,8.6-2.3,8.6-7.7c0-9.2,0-18.3,0-27.5c0-1.2-0.7-2.7,1-3.5c3.3-1.6,9.9,0.6,11.7,4.1c5.3,10.3,10.5,20.6,15.9,30.9
	c2.4,4.6,6.3,5.4,11,2.9C180.1,129.8,181.4,126.3,179,121.7L179,121.7z M153.1,81.3c-5.1,0.6-10.3,0.2-15.4,0.3
	c-1.9,0.1-2.1-1-2.1-2.5c0-3.8,0-7.6,0-11.5c0-3.3,0.1-6.7,0-10c-0.1-2.1,0.2-3.4,2.9-3.3c4.5,0.2,9-0.1,13.4,0.2
	c7.1,0.4,10.8,4.6,11.2,12C163.5,75.4,160.4,80.4,153.1,81.3L153.1,81.3z"/>
</svg>
