<svg xmlns="http://www.w3.org/2000/svg" xml:space="preserve" width="81.982727" height="66.416145" viewBox="0 0 21.691263 17.572605"><g style="display:inline;fill:#fff"><path d="M304.603 82.852c-51.108-.937-128.13 39.574-196.606 108.05C39.697 259.201 0 331.695 0 394.395c0 119.8 153.698 192.703 303.998 192.703 197.1 0 328.205-114.494 328.205-205.394.1-55-46.196-86.205-87.796-99.105-10.2-3.1-17.214-5.092-11.914-18.492 11.6-29.1 12.808-54.205.208-72.205-23.5-33.6-87.894-31.798-161.694-.898 0 0-23.214 10.099-17.214-8.201 11.3-36.5 9.606-67.006-7.994-84.706-10-10.025-24.16-14.933-41.196-15.246zm-6.596 174.125c7.409-.356 14.037.392 21.116.518.669.021 1.336.027 2.003.052 59.752 1.449 107.357 19.115 139.542 45.185 2.002 1.55 3.685 3.252 5.577 4.869 5.274 4.7 10.32 9.423 14.624 14.52 3.369 3.876 6.151 7.96 8.926 12.103 2.539 3.838 4.95 7.639 6.958 11.603 2.105 4.183 3.807 8.453 5.3 12.846 1.875 5.33 3.185 10.641 4.093 16.057.282 1.805 1.167 3.434 1.347 5.266.144 1.445-.304 2.841-.225 4.282.157 2.612.991 5.214.915 7.821-.11 3.804-1.315 7.756-1.934 11.637-.437 2.937-.768 5.853-1.467 8.754-1.272 5.006-3.26 9.975-5.335 15.004-1.752 4.336-3.28 8.672-5.594 12.88-2.119 3.847-5.036 7.556-7.615 11.344-3.038 4.402-5.674 8.903-9.306 13.105-32.02 37.988-88.209 69.436-163.697 77.834-2.974.373-5.724 1.154-8.736 1.45-.676.067-1.31.006-1.986.07-.863.067-1.6.283-2.469.344-3.598.256-6.668-.09-10.186.07-12.438.68-24.675.9-36.587.207-6.821-.348-13.02-1.282-19.475-2.003-6.59-.808-13.208-1.463-19.545-2.676-11.623-2.074-22.346-4.857-32.598-8.098-.512-.167-1.044-.297-1.554-.466-24.83-8.035-45.476-19.08-61.898-32.442l-.172-.139c-7.711-6.293-14.444-12.953-20.236-20.062-1.138-1.366-2.265-2.71-3.332-4.11a116.422 116.422 0 0 1-12.276-20.477c-.767-1.65-1.639-3.239-2.314-4.92-4.558-11.133-7.85-22.502-8.339-34.1-.631-25.866 10.657-51.973 30.647-75.504.07-.084.119-.175.19-.259 6.244-7.32 13.561-14.218 21.547-20.909 1.359-1.144 2.515-2.367 3.92-3.487 6.952-5.519 14.752-10.542 22.842-15.47 3.054-1.87 5.886-3.845 9.082-5.612 7.092-3.9 14.8-7.282 22.618-10.67 5.062-2.206 9.982-4.486 15.298-6.44 7.011-2.563 14.44-4.648 21.927-6.768 6.706-1.905 13.357-3.775 20.357-5.266 8.014-1.72 16.355-2.942 24.81-4.127 3.876-.522 7.49-1.508 11.43-1.899 2.433-.241 4.73-.037 7.148-.225 4.98-.439 9.55-1.446 14.66-1.692z" style="display:inline;fill:#fff;fill-opacity:1" transform="scale(.02993)"/><path d="M311.1 401.5c-4.2 7.2-13.5 10.6-20.7 7.6-7.2-2.9-9.4-11-5.3-18 4.2-7 13.1-10.4 20.2-7.6 7.2 2.6 9.8 10.7 5.8 18m-38.3 49c-11.6 18.5-36.5 26.6-55.2 18.1-18.4-8.4-23.9-29.9-12.3-48 11.5-18 35.5-26 54.1-18.2 18.8 8.1 24.8 29.4 13.4 48.1m43.6-131c-57.1-14.9-121.6 13.6-146.4 63.9-25.3 51.3-.8 108.3 56.8 126.9 59.8 19.3 130.2-10.3 154.7-65.6 24.2-54.2-6-109.9-65.1-125.2" style="display:inline;fill:#fff" transform="scale(.02993)"/><path fill="#f93" d="M675.3 63.3C627.7 10.5 557.5-9.6 492.7 4.2c-15 3.2-24.5 18-21.3 32.9 3.2 15 17.9 24.5 32.9 21.3 46.1-9.8 96 4.5 129.8 42 33.8 37.5 43 88.6 28.5 133.4-4.7 14.6 3.3 30.2 17.9 34.9 14.6 4.7 30.2-3.3 34.9-17.8v-.1c20.4-62.9 7.5-134.8-40.1-187.5" style="display:inline;fill:#fff;fill-opacity:1" transform="scale(.02993)"/><path fill="#f93" d="M602.2 129.3c-23.2-25.7-57.4-35.5-88.9-28.7-12.9 2.7-21.1 15.5-18.4 28.4 2.8 12.9 15.5 21.1 28.3 18.3 15.4-3.3 32.2 1.5 43.5 14 11.3 12.6 14.4 29.7 9.5 44.7-4 12.5 2.8 26 15.4 30.1 12.6 4 26-2.8 30.1-15.4 9.9-30.7 3.7-65.7-19.5-91.4" style="display:inline;fill:#fff" transform="scale(.02993)"/></g></svg>