<?xml version="1.0" encoding="utf-8"?>
<!-- Generator: Adobe Illustrator 28.1.0, SVG Export Plug-In . SVG Version: 6.00 Build 0)  -->
<svg version="1.1" id="Layer_1" xmlns="http://www.w3.org/2000/svg" xmlns:xlink="http://www.w3.org/1999/xlink" x="0px" y="0px"
	 viewBox="0 0 150 135.9" style="enable-background:new 0 0 150 135.9;" xml:space="preserve">
<style type="text/css">
	.st0{fill:#F1BE37;}
	.st1{fill:#1C75BC;}
</style>
<path class="st0" d="M21.2,11.9c2,2,16.5,110,21,110s82,3.5,82,0s15.5-110,15.5-110S21.2,11.9,21.2,11.9z"/>
<path class="st1" d="M149.8,2.9V1.6l0,0c0-0.1,0-0.2,0-0.2c-0.2,0-0.5,0-0.7,0.1c-0.1,0-0.3,0-0.4,0c-0.1,0-0.2,0-0.4,0
	c-0.3,0-0.6,0-1,0c-0.5,0-1,0-1.5,0c-1.2,0-2.4,0.1-3.4,0.3l-1.6,0c-0.7,0.1-3.5,0.5-4.6,0.5c-0.2,0-0.3,0-0.4,0c-0.2,0-0.5,0-0.8,0
	c-0.6,0-1.1-0.1-1.7-0.2c-0.2,0-0.4,0-0.7-0.1c-0.3,0-2,0.8-2.3,0.7c-0.1,0-0.1,0-0.2,0c-0.2,0-0.8-0.2-0.9-0.2l0,0
	c-0.5,0-1.1,0.1-1.6,0.1c-0.3,0-0.6,0-0.9,0c-0.2,0-0.4-0.1-0.6-0.1c-0.2,0-0.3,0-0.5-0.1c-0.1,0-0.1,0-0.1,0c-0.1,0-0.1,0-0.2,0
	c-0.3,0-0.5-0.1-0.8-0.1c-0.1,0-0.2,0-0.3,0c-0.1,0-0.3,0-0.4-0.1c-0.2,0-0.5-0.1-0.7-0.1c-0.7-0.1-1.4-0.2-2.1-0.3
	c-0.1,0-0.2,0-0.3,0c0,0-0.1,0-0.1,0c-0.1,0-0.3,0-0.4,0c-0.2,0-0.4,0-0.7,0c-0.1,0-0.1,0-0.2,0c-0.1,0-0.2,0-0.3,0
	c-0.1,0-0.1,0-0.2,0c-0.1,0-0.3,0-0.4,0c-0.2,0-0.4,0-0.6,0c-1.1,0-3-0.1-3.8-0.1h-5c-0.1,0-0.1,0-0.2,0c0,0-0.1,0-0.1,0
	c0,0-0.1,0-0.1,0c0,0-0.1,0-0.1,0s-0.1,0-0.1,0c-0.1,0-0.1,0-0.2-0.1c-0.2-0.1-0.5-0.1-0.7-0.2c-0.1,0-0.2-0.1-0.3-0.1
	s-0.2-0.1-0.3-0.1c-0.2,0-0.5-0.1-0.8-0.2c-0.1,0-0.2,0-0.4-0.1c-0.9-0.2-2-0.3-2.5-0.4l-1.9,0c-1.2,0-2.3,0-3.3-0.1
	c-0.5,0-1,0-1.6,0l-2.2,0C93,0.5,89.8,0,87.8,0c-0.3,0-0.6,0-0.9,0c-0.1,0-0.2,0-0.2,0c0,0,0,0,0,0c-0.1,0-0.2,0-0.2,0
	c-0.2,0-0.5,0.1-0.7,0.1c-0.1,0-0.1,0-0.2,0c-0.1,0-0.2,0-0.4,0c-0.4,0-0.7,0-1.1,0c-0.1,0-0.2,0-0.4,0l-0.3,0c0,0-0.1,0-0.1,0
	c-0.1,0-0.2,0-0.3,0s-0.2,0-0.3,0c-0.2,0-0.4,0-0.6,0.1l-1.2,0c0,0-0.1,0-0.1,0.1c0,0-0.1,0.1-0.1,0.1c-0.1,0-0.1,0.1-0.1,0.2
	c-0.1,0.1-0.1,0.1-0.1,0.2c0,0,0,0,0,0c-0.1,0.1-0.1,0.2-0.2,0.3c-0.1,0.1-0.1,0.2-0.2,0.2C80,1.5,80,1.6,79.9,1.7c0,0,0,0,0,0
	c-0.1,0.1-0.1,0.2-0.2,0.2c-0.1,0-0.1,0.1-0.2,0.1c-0.3,0.2-0.9,0.3-1.1,0.5c-0.1,0.2-0.1,0.3-0.2,0.5c-0.1,0.2-0.2,0.5-0.2,0.7
	c-0.2,0.2-0.5,0.6-0.8,1c-0.1,0.2-0.1,0.4-0.3,0.5c0,0,0,0-0.1,0s0,0,0,0c0,0,0,0,0,0h0c0,0,0,0-0.1,0c-0.2,0-0.3,0-0.4-0.1
	c-0.1,0-0.1,0-0.2,0c-0.1,0-0.1,0-0.1,0c-0.1,0-0.3-0.1-0.4-0.1c-0.6-0.2-1.1-0.5-1.8-0.6c-0.1,0-0.1,0-0.2,0c0,0-0.1,0-0.1,0
	c-0.1,0-0.1,0-0.2,0c0,0,0,0,0,0c-0.2,0-0.3,0-0.4,0c-0.1,0-0.2,0-0.3,0c-0.1,0-0.2,0-0.2,0c-0.2,0-0.3,0-0.4,0
	c-0.6-0.1-1.1-0.4-1.6-0.5c-0.4,0-0.8,0-1.1,0c0,0,0,0,0,0c-0.1,0-0.2-0.1-0.3-0.1c-0.1,0-0.1,0-0.2-0.1c-0.2-0.1-0.3-0.1-0.5-0.2
	c-0.1,0-0.2-0.1-0.3-0.2c-0.1,0-0.2-0.1-0.3-0.2c-0.3-0.2-0.5-0.3-0.7-0.5c-0.2-0.1-0.4-0.2-0.7-0.3c-0.7-0.5-1.5-1-2-1.5L62.8,1
	c-0.2,0.1-0.5,0.3-0.7,0.3c-0.1,0-0.3,0.1-0.5,0.1c-0.2,0-0.4,0-0.6,0c-0.1,0-0.1,0-0.2,0c0,0-0.1,0-0.1,0c-0.1,0-0.1,0-0.1,0
	c-0.1,0-0.1,0-0.2,0c-0.2,0-0.3,0-0.4,0c0,0-0.1,0-0.1,0c-0.1,0-0.2,0-0.3,0.1c-0.1,0-0.1,0-0.2,0c0,0,0,0,0,0c-0.1,0-0.1,0-0.2,0
	c0,0-0.1,0-0.1,0s-0.1,0-0.1,0c-0.1,0-0.1,0-0.2,0c-0.1,0-0.2,0-0.3,0.1c0,0,0,0,0,0c0,0-0.1,0-0.1,0c0,0,0,0,0,0
	c-0.1,0-0.1,0-0.2,0c-0.1,0-0.2,0-0.3,0c-0.2,0-0.4,0-0.5-0.1c-0.2,0-0.3,0-0.5,0c-0.1,0-0.2,0-0.3,0c-0.3,0-0.6,0-0.8,0
	c-0.4,0-0.8,0-1.2,0c-0.2,0-0.4,0-0.5,0c-0.2,0-0.5,0-0.7,0c-0.1,0-0.1,0-0.2,0c-0.6,0-1.2,0-1.8-0.1c-0.6,0.1-1.4,0.1-2.1,0.2
	l-2.7-0.1c-0.2,0-0.4,0.2-0.6,0.2c-0.4,0-0.8,0-1.2,0c-0.4,0-0.8,0.2-1.3,0.2c0,0-0.1,0-0.1,0c-0.2,0-0.7-0.1-1-0.1c0,0,0,0,0,0
	c-0.9,0-1.8-0.1-2.8-0.1c-0.2,0-0.4,0-0.6,0c-0.1,0-0.2,0-0.3,0c-0.2,0-0.3,0-0.5,0c-0.1,0-0.2,0-0.2,0c-0.1,0-0.1,0-0.2,0
	c-0.1,0-0.1,0-0.2,0c-0.1,0-0.2,0-0.2,0c0,0-0.1,0-0.1,0c-0.1,0-0.1,0-0.2,0s-0.1,0-0.2,0c-0.3,0-0.6,0-1,0c-0.7,0-1.4-0.1-1.8-0.2
	c-0.6,0-1.2,0-1.9,0c-1.3-0.2-2.4-0.3-3.9-0.3c-1.4,0-4,0-5.7,0c-1,0-2,0-2.8,0.1c-0.2,0-0.4,0-0.7,0.1c-0.2,0-0.4,0.1-0.6,0.1
	c-0.4,0.1-0.8,0.2-1.1,0.3c-0.3,0.1-0.5,0.1-0.9,0.1c-0.9,0-1.9-0.3-2.5-0.4h-3.9L10,1.6c-0.1,0-0.3,0.1-0.4,0.1
	c-0.8,0-1.8-0.6-2.5-0.6c0,0,0,0,0,0c0,0-0.1,0-0.1,0C6.5,1.2,5.9,1.4,5.4,1.6H2.2C1.4,1.8,0.8,2.5,0,2.7c0.1,1.2,1.4,2.1,2,2.9
	c0.4,0.5,0.7,1.1,1.1,1.7c0.4,0.5,1.1,0.8,1.6,1.5c0.4,0.7,0.6,1.6,1,2.3c0.1,0.1,0.3,0.3,0.4,0.4c0.3,0.2,0.6,0.5,0.8,0.7
	c0.2,0.2,0.3,0.7,0.5,0.9c0,0,0.1,0,0.1,0c0,0,0.1,0,0.1,0c0.1,0,0.1,0,0.1,0.1c0.1,0.2,0,0.3,0,0.5c0,0,0,0.1,0,0.1c0,0,0,0,0,0.1
	c0,0,0,0.1,0,0.2c0.1,0.2,0.5,0.5,0.6,0.7C8.7,15,8.7,15.5,9,15.9c0.2,0.3,0.6,0.4,0.7,0.8c0,0.2,0,0.3,0,0.4c0.1,1,0.1,1.9,0.2,2.9
	c0.1,0.3,0.5,0.4,0.6,0.7c0.2,0.6,0,1,0.3,1.5h0c0.1,0.1,0.2,0.1,0.4,0.2c0.2,0.4,0.1,0.8,0,1.2c0,0.1-0.1,0.2-0.1,0.4
	c0,0,0,0,0,0.1c0,0,0,0,0,0.1c0,0,0,0,0,0.1s0,0,0,0.1c0,0,0,0,0,0v0.1c0,0.1,0,0.1,0,0.2c0,0,0,0,0,0.1c0,0,0,0.1,0,0.1
	c0.3,1,0.7,1.9,1.1,2.8c0.3,0.6,0.5,1.2,0.8,1.9c0.1,0.2,0.1,0.3,0.2,0.5c0.1,0.2,0.1,0.4,0.2,0.6c0,0.2,0.1,0.3,0.1,0.5
	c0,0.2,0.1,0.3,0.1,0.5c0.1,0.3,0.1,0.6,0.1,0.9c0,1.3-0.6,2.5-0.3,3.8c0,0.2,0.1,0.4,0.1,0.6c0,0.2,0.1,0.4,0.1,0.6
	c0,0.2,0.1,0.4,0.1,0.6c0,0.2,0.1,0.3,0.1,0.5c0,0.2,0.1,0.4,0.1,0.5s0.1,0.4,0.1,0.5c0,0.1,0,0.1,0,0.2c0,0.1,0,0.2,0.1,0.2
	c0,0.1,0.1,0.3,0.1,0.4c0,0.2,0.1,0.3,0.2,0.4c0,0.2,0.1,0.3,0.2,0.4c0.2,0.4,0.8,0.5,1,0.9c0,0,0,0,0,0.1c0,0,0,0,0,0.1
	c0,0.1,0,0.3,0,0.4l0,0c0,0.1,0,0.2-0.1,0.2c0,0,0,0.1,0,0.1c0,0.1,0,0.2,0,0.2c0,0.1,0,0.2,0,0.2c0.2,0.6,0.8,1.3,1.1,1.8
	c0.6,0.9,1,2.1,1.5,3c0.5,1.5,1,2.9,1.5,4.4h1c0.1,0,0.2,0.1,0.3,0.1c0.2,0.1,0.4,0.2,0.6,0.2c0.1,0.1,0.2,0.1,0.3,0.2
	c0,0,0,0.1,0,0.1c0,0,0,0,0,0c0,0,0,0,0,0c0,0,0,0,0,0c0,0,0,0,0,0c-0.2,1.8-1.3,3.6-1.8,5.2c0,0.2-0.1,0.4-0.1,0.6
	c0,0.1,0,0.2,0,0.3c0,0.1,0,0.1,0,0.2c0,0.1,0,0.1,0,0.2c0,0.1,0,0.2,0,0.3c0,0.2,0.1,0.3,0.1,0.5c0,0.1,0,0.2,0.1,0.3
	c0,0.1,0,0.1,0,0.2c0,0.1,0,0.1,0,0.1c0,0,0,0.1,0,0.1c0,0.1,0,0.1,0,0.2c0,0.1,0,0.3,0,0.4l0,0c0,0.1,0,0.2,0,0.3
	c0,0.1,0,0.2,0,0.3v0c0,0,0,0.1,0,0.1c0,0,0,0.1,0,0.1c0,0.1,0,0.2,0.1,0.2c0,0,1.8,1.1,1.8,1.2c0,0.3-0.2,0.5-0.3,0.7
	c-0.1,0.1-0.2,0.2-0.2,0.3c0,0.1-0.1,0.1-0.1,0.2c0,0.1-0.1,0.1-0.1,0.2c0,0,0,0.1,0,0.1c0,0,0,0,0,0.1c0,0,0,0.1,0,0.2
	c0,0.1,0,0.2,0.1,0.3c0,0.2,0.1,0.3,0.2,0.5c0.1,0.2,0.2,0.5,0.3,0.7c0,0.1,0.1,0.2,0.1,0.3c0.1,0.3,0.2,0.5,0.2,0.6
	c0.1,0.4,0.2,0.8,0.2,1.3c0,0.1,0,0.2,0,0.2c0,0.1,0,0.2,0,0.2c0,0.1,0,0.2,0,0.3c0,0.1,0,0.2,0,0.3c0,0.1,0,0.2-0.1,0.3
	c0,0.1,0,0.2-0.1,0.2c-0.1,0.2-0.2,0.5-0.3,0.7c0,0.1-0.1,0.1-0.1,0.2c0,0.1-0.1,0.1-0.1,0.2c0,0.1-0.1,0.1-0.1,0.2
	c0,0-0.1,0.1-0.1,0.1c-0.1,0.1-0.2,0.3-0.3,0.4c0.2,1,1,1.8,1.5,2.6c0.2,0.3,0.3,0.5,0.5,0.8c0,0.1,0.1,0.2,0.1,0.3
	c0.2,0.4,0.4,0.9,0.6,1.3c0,0.1,0.1,0.3,0.2,0.4c0.1,0.2,0.1,0.3,0.2,0.4c0.1,0.3,0.2,0.6,0.3,0.9c0,0.1,0,0.1,0,0.2
	c0,0.1,0,0.1,0,0.2s0,0.1,0,0.2c0,0.1,0,0.1,0,0.2c0,0,0,0.1,0,0.1c0,0.1,0,0.1,0,0.2c0,0.2,0,0.4,0,0.7c0,0.2,0,0.4,0,0.5
	c0,0.1,0,0.2,0,0.3c0,0.2,0,0.4,0,0.6c0,0.1,0,0.2,0,0.3c0,0.1,0,0.1,0,0.2c0,0.1,0,0.2,0,0.3c0,0.5,0,1.1-0.1,1.5
	c0,0.3-0.1,0.6-0.1,0.8c0,0.2,0,0.3-0.1,0.5c0,0.1,0,0.1,0,0.2c0,0,0,0.1,0,0.1c0,0.1,0,0.1,0,0.2c0,0,0,0.1,0,0.1
	c0,0.1-0.1,0.3-0.1,0.4c0,0.1,0,0.1,0,0.2c0,0.1-0.1,0.3-0.1,0.4c0,0.1,0,0.2,0,0.2c0,0.2,0,0.3,0.1,0.5c0.2,0.9,1,1.6,1.2,2.3
	c0.4,1,0.6,2,1,3c0.2,0.4,0.5,0.7,0.7,1c0,0.1,0.1,0.2,0.2,0.3c0,0.1,0.1,0.1,0.1,0.2c0.1,0.3,0.3,0.6,0.5,0.9
	c0.1,0.1,0.2,0.3,0.3,0.4c0,0.1,0.1,0.1,0.1,0.1c0,0,0.1,0.1,0.2,0.1c-0.1,1-0.4,1.6-0.6,2.3c-0.5,1.8-0.8,3.9-0.6,6
	c0,0.1,0,0.2,0,0.3c0,0.1,0.1,0.2,0.1,0.4c0,0.2,0.1,0.3,0.2,0.5c0,0.1,0,0.1,0.1,0.2c0.3,0.6,0.6,1.1,0.7,1.5
	c0,0.2,0.1,0.4,0.1,0.7l0,0c0,0.1,0,0.1,0,0.2c0,0.1,0,0.3,0,0.5c0,0.1,0,0.2,0,0.3c0,0.1,0,0.2,0,0.3c0,0.2-0.1,0.5-0.1,0.7
	c-0.2,1-0.4,2-0.6,2.5c-0.1,0.4-0.1,0.9-0.2,1.3c0,0.1,0,0.1,0,0.1c0,0,0,0.1,0,0.1s0,0.1,0,0.1c0,0,0,0.1-0.1,0.1
	c0,0.4,0.4,0.9,0.9,1.2c0.5,0.4,1.1,0.7,1.4,0.9c0,0.4-0.1,0.9-0.2,1.2c0,0.1,0,0.1,0,0.2c0,0.1-0.1,0.3-0.1,0.4c0,0.1,0,0.1,0,0.2
	c0,0.1,0,0.1,0,0.2c0,0.1-0.1,0.2-0.1,0.4c-0.1,0.2-0.1,0.5-0.2,0.7c0,0.1-0.1,0.3-0.1,0.4c0,0,0,0.1,0,0.1
	c-0.2,0.9-0.6,1.9-0.9,2.9c-0.3,1-0.7,2.1-1,3c-0.1,0.4-0.2,0.9-0.3,1.3c-0.1,1.5-0.6,3.1-0.8,4.8c0,0.1,0,0.3,0,0.4
	c-0.1,0.1-0.2,0.1-0.2,0.1l0.4,0.7c1.5,0,3.7-0.6,5-0.9c0.7,0,1.3-0.1,1.9-0.1c0.4-0.1,1.2-0.2,1.8-0.2c0.1,0,0.2,0,0.3,0
	c0.1,0,0.3,0.1,0.5,0.1c0.1,0,0.2,0,0.2,0.1c0.3,0.1,0.7,0.2,1.1,0.2c0.3,0.1,0.6,0.1,0.8,0.2c0.1,0,0.2,0,0.3,0.1c0,0,0,0,0.1,0
	c0.3,0.1,0.6,0.1,0.8,0.1c0.2,0,0.3,0,0.3-0.1c1.2,0,3.6-0.5,5.2-0.5c0.1,0,0.2,0,0.3,0c0.1,0,0.1,0,0.2,0c0.7,0.1,1.1,0.2,1.3,0.6
	h0c0.3,0,0.7,0,1,0c0.1,0,0.1,0,0.2,0c0.2,0,0.4,0,0.6,0c1.1,0,2.2,0.1,3.4,0.1c0.7,0,1.4,0.1,2.1,0.1c0.4,0,0.7,0,1.1,0
	c0.8,0,1.5,0,2.3-0.1c2.4-0.2,4-0.2,4.9-0.2h0.1c0,0,0,0.1,0,0.1c0.1,0,0.1,0,0.2,0c0.3,0,0.7-0.1,1.1-0.1c0,0,0,0,0,0
	c0.2,0,0.2,0,0.2,0c0.4,0,0.8,0,1.3,0c0.2,0,0.3,0,0.4,0.1c1.3,0.3,3.1-0.2,3.1-0.2l2.6,0.9l0.6-0.2c0.1,0,0.1,0,0.2,0
	c0.1,0.1,0.2,0.1,0.4,0.1c0.1,0,0.1,0,0.1,0c0.1,0,0.1,0,0.2,0.1c0,0,0.1,0,0.1,0c0.1,0,0.2,0,0.2,0.1c0.9,0.2,1.9,0.4,2.8,0.6
	l1.5-0.1c1.4,0.3,3.4,0.3,4.7,0.6c0.3,0,0.7-0.1,1-0.1c0.2,0,0.7,0.2,0.8,0.3l2.1,0c0.4,0.1,0.9,0.2,1.4,0.2c0.2,0,0.3,0,0.5-0.1
	c0.1,0,0.3-0.1,0.4-0.1c0.1,0,0.2,0,0.3-0.1c0.1,0,0.2,0,0.3,0c0.1,0,0.2,0,0.3,0c0.5,0,1-0.1,1.4-0.1c1,0,1.9,0,2.8-0.1
	c0.6,0,1.2,0,1.9,0c0.1,0,0.2-0.1,0.4-0.1l0,0c0.2-0.1,0.4-0.1,0.6-0.2c0.1-0.1,0.3-0.1,0.4-0.1c0.1,0,0.1-0.1,0.2-0.1
	c0.3-0.1,0.5-0.2,0.8-0.3c0.2-0.1,0.5-0.2,0.8-0.3c0.8-0.3,1.6-0.4,2.3-0.7c0.1,0,0.1-0.1,0.2-0.1c0.1,0,0.1-0.1,0.2-0.1
	c0.2-0.1,0.3-0.2,0.5-0.2c0.1,0,0.1-0.1,0.2-0.1l0,0c0.1,0,0.1-0.1,0.2-0.1c0.1,0,0.1,0,0.2-0.1c0.1,0,0.2,0,0.3,0
	c0.1,0,0.1,0,0.2,0c0.1,0,0.1,0,0.2,0c0.1,0,0.1,0,0.2,0.1c0.1,0,0.1,0,0.2,0.1c0.1,0,0.1,0,0.2,0.1c0.1,0,0.2,0.1,0.3,0.1
	c0.1,0,0.2,0.1,0.3,0.1c0.7,0.3,1.4,0.7,1.8,0.8c0.4,0.1,0.8,0.2,1.1,0.2c0.2,0,0.3,0,0.5,0c0.2,0,0.4,0,0.7-0.1c0,0,0.1,0,0.1,0h0
	c0.2,0,0.5-0.1,0.7-0.1c0,0,0,0,0,0c0.4,0,0.7,0,1.2,0.1c0.6-0.1,0.6-0.4,1.3-0.8c0.7-0.4,0.8-0.5,2.2-0.7c1.4-0.2,1.9-0.2,2.2,0.2
	c0.4,0.4,0.9,0.6,1.3,0.2c-0.1,0.1,0,0.1,0.6-0.4c1.3-0.9,1.1-0.6,1.1-0.6l0.5-0.4l1.3,0l0.4-0.5c0,0,0.2,0,0.4,0.2s0.7-0.2,0.9-0.1
	c0.1,0.1,0.2,0,0.4,0c0.5,0,0.9-0.2,1.3-0.3c0.2-0.1,0.4-0.1,0.6-0.1c0.8,0,2.4,0.4,4,0.7c1.9,0.3,5.2,0.4,6.8,0.9
	c0.3,0,0.6,0.1,0.9,0.1c0.1,0,0.3,0,0.4,0c0.3,0,0.5,0,0.7,0c0.1,0,0.2,0,0.3,0c0.1,0,0.3,0,0.4,0c0.1-0.3-0.1-0.9-0.1-1.2
	c0-0.2,0-0.5,0-0.7c0-0.4,0.1-0.9,0.1-1.6c-0.1-0.5-0.1-1-0.2-1.5c0-0.2-0.1-0.6-0.2-1.1c0-0.1,0-0.1-0.1-0.2c0-0.1-0.1-0.2-0.1-0.3
	l0,0c0-0.1-0.1-0.1-0.1-0.2c-0.4-0.8-0.8-1.5-1.1-2.3l-1.3,0l0.6-1.5c-0.2-0.4-0.3-0.7-0.5-1.1c0-0.1-0.1-0.2-0.1-0.2
	c-0.2-0.3-0.5-0.9-0.6-1.4c0-0.1-0.1-0.2-0.1-0.3c-0.3-1.5-0.7-3.2-0.4-4.6l0-1c0-0.1,0-0.1,0.1-0.2c0.1-0.3,0.2-0.7,0.3-1.1
	c0.1-0.3,0.2-0.6,0.3-1c0.1-0.2,0.1-0.3,0.1-0.5c0-0.1,0-0.2,0.1-0.3c0-0.1,0-0.2,0.1-0.3c0-0.1,0-0.1,0-0.2c0,0,0,0,0,0
	c0-0.1,0-0.2,0.1-0.3c0-0.1,0-0.2,0-0.2c0-0.1,0-0.1,0-0.2c0-0.1,0-0.2,0-0.3c0,0,0-0.1,0-0.1l0-0.2c0,0,0-0.1,0-0.1
	c0-0.2,0.2-0.5,0.2-0.7c-0.1-0.1-0.2-0.2-0.3-0.4c0.9-1.4,0.8-3.7,0.7-4.8c0-0.3,0-0.8-0.1-1.2c0-0.4,0-0.8-0.1-1.3l0.1-0.3
	c0-0.1,0-0.2,0-0.3c0,0,0-0.1,0-0.1c0-0.1,0-0.2-0.1-0.4c0-0.3-0.1-0.6-0.1-0.9c0-0.1,0-0.2,0-0.3c0-0.1,0-0.2,0-0.3
	c0-0.1,0-0.1,0-0.2c0-0.1,0-0.1,0-0.2c0-0.1,0-0.1,0-0.2c0-0.1,0-0.2,0-0.2c0.2-0.1,0.3-0.2,0.4-0.4c0-0.1,0.1-0.1,0.1-0.1
	s0.1-0.1,0.1-0.1l0.2-2c0,0-0.2-0.7-0.5-1.3s-0.6-0.9-0.8-1.3c-0.2-0.4,0.1-0.6,0.3-0.8c0.1-0.3,0.2-0.5,0.3-0.7
	c-0.1-1.2,0.2-3.2,0.2-3.2s0.3-4.4,0.7-5.6s1-3.2,1.3-3.9c0.3-0.7,0.1-2.1,0.5-2.8c0.4-0.7,0.7-0.9,1.1-1.6
	c-0.1-0.6-0.3-1.2-0.4-1.8l-0.2-0.3l-1.7-1.5l-0.1-1.6c0,0-0.1-0.4,0.7-1.9c0.8-1.5,0.9-2.9,0.9-2.9l0.4-1c0,0,0-0.8,1.4-1.1
	c0.1,0,0.2,0,0.3-0.1c0-0.6,0-1.1,0-1.1c0.1-0.2,0.2-0.4,0.4-0.6c0,0,0,0,0.1-0.1c0.1-0.3,0.1-0.6,0.1-1.1c0.1-0.8,0.3-3.2,0.2-4.1
	c0-0.8-0.3-1.4-0.2-2.4c-0.1-0.4-0.2-0.8-0.2-1.1c0-0.1,0-0.2,0-0.2c0.1-0.6,0.5-1.3,0.6-2c0-0.2,0-0.3,0-0.5c0-0.9,1.2-5.4,1.3-6.3
	c0-0.2-0.1-0.8,0-1.1c0,0,0-0.1,0-0.1c0-0.1,0.1-0.2,0.1-0.3c0-0.1,0.1-0.2,0.1-0.2c0,0,0-0.1,0.1-0.1c0,0,0-0.1,0.1-0.1
	c0-0.1,0.1-0.1,0.1-0.2c0.1-0.1,0.1-0.2,0.2-0.3c0-0.1,0.1-0.1,0.1-0.2c0.2-0.3,0.4-0.7,0.5-1.1c0-0.1,0-0.1,0.1-0.2c0,0,0,0,0,0
	c0-0.1,0-0.2,0.1-0.2s0-0.2,0.1-0.2c0-0.1,0-0.2,0-0.2c0-0.1,0-0.3,0-0.4c0,0,0,0,0,0c0-0.1,0-0.1,0-0.2c0-0.1,0-0.2-0.1-0.3
	c0-0.2-0.5-1.5-0.5-1.7c-0.1-1.2,0.6-3.7,1.3-6.6c0.1-0.7,0.3-1.4,0.4-2.1l-0.8-2.8l1.8-1.5c0.2-1,0.1-2.4,0.3-3.1
	c0-0.1,0-0.1,0.1-0.2c0.4-0.8,1-1.3,1.3-2.4l0-0.1c0,0,0-0.1,0-0.2c0.1-0.5,0.1-1.2,0.1-1.7c0-0.2,0-0.4,0.1-0.6
	c0-0.1,0.1-0.3,0.1-0.4c0.1-0.2,0.1-0.3,0.2-0.4c0,0,0.1-0.1,0.1-0.2c0,0,0.1-0.1,0.1-0.1c0,0,0.1-0.1,0.1-0.1
	c0.1-0.2,0.2-0.3,0.4-0.5c0-0.1,0.1-0.1,0.1-0.2c0.1-0.1,0.1-0.2,0.1-0.3c0-0.1,0.1-0.1,0.1-0.2c0.3-0.7,0.3-1.7,0.5-2.6
	c0.1-0.4,0.4-0.7,0.5-1.1c0-0.1,0-0.2,0-0.3C150.1,5.7,149.9,3.4,149.8,2.9z M126.4,21.1c-5.6,8-7.3,12.8-7.3,12.8
	c-1,2.8-2.3,11.4-2.3,11.4l-9,54.8c-0.7,6.5,3.1,10.7,3.1,10.7c0.5,0.6-0.1,0.6-0.1,0.6l-27.2,0.3c-0.9,0.1-0.5-0.6-0.5-0.6l1.4-4.5
	c0.5-1.6,0.4-2.4,0.4-2.4c-0.1-2.1-1.4-8-1.4-8l-3.8-18.9c-0.1-0.3-0.2,0-0.2,0c-2.2,8.2-5.3,23.9-5.3,23.9c-0.4,2.7,0,4.2,0,4.2
	c1.1,4.4,1.8,5.7,1.8,5.7c0.4,0.8-0.1,0.6-0.1,0.6c-0.6,0-27.7,0.1-27.7,0.1c-0.3,0-0.2-0.2-0.2-0.2c0.1-0.2,0.9-1.2,0.9-1.2
	c2.4-3,3.1-4.9,3.1-4.9c1.2-2.6,0.4-4.9,0.4-4.9c-1.5-6.9-6-26.7-6-26.7c-3.2-13.7-8.7-36.8-8.7-36.8c-2-7.9-3.3-10.8-3.3-10.8
	c-1.4-3.5-3.9-4.8-3.9-4.8c-0.5-0.3-1.4-1.1-1.4-1.1c24.1,0,26.2,0,26.2,0c0.7,0,0.4,0.7,0.4,0.7c-0.4,1.7-0.7,7.3-0.7,7.3
	c-0.1,1.9,0.5,4.5,0.5,4.5l9.7,47.5c0.9-3.2,13.5-53.7,13.5-53.7c0.2-0.4,0.2-0.2,0.2-0.2L84,47.2l8.8,34.2c0.3,0.9,0.5-0.2,0.5-0.2
	c0.6-3.2,7.4-46.4,7.4-46.4l1.3-8.3c0.4-3.7-1.7-5.6-1.7-5.6c-0.7-0.7,0.1-0.5,0.1-0.5c2.6,0.2,25.6,0,25.6,0
	C127.2,20.3,126.4,21.1,126.4,21.1z"/>
</svg>
