<?xml version="1.0" encoding="utf-8"?>
<!-- Generator: Adobe Illustrator 28.1.0, SVG Export Plug-In . SVG Version: 6.00 Build 0)  -->
<svg version="1.1" id="Warcraft_Arclight_Rumble_Icon"
	 xmlns="http://www.w3.org/2000/svg" xmlns:xlink="http://www.w3.org/1999/xlink" x="0px" y="0px" viewBox="0 0 44 44.3"
	 style="enable-background:new 0 0 44 44.3;" xml:space="preserve">
<style type="text/css">
	.st0{fill:#1783FC;}
	.st1{fill:#65FAFF;}
	.st2{fill:#CA9A2D;}
	.st3{clip-path:url(#SVGID_00000098199458192451517120000003729429858283570310_);fill:#F3C029;}
	.st4{fill:#CB9B2E;}
	.st5{clip-path:url(#SVGID_00000052069636507798045580000013028216437885843857_);fill:#F3C029;}
</style>
<g id="Color_Icon">
	<g id="Color">
		<g>
			<polygon id="Bolt_Outer_00000084510211084760089520000005978577460333269168_" class="st0" points="0,38.3 21.8,9.9 23.5,17.7 
				42.1,5.8 19.6,36 18,28 			"/>
			<polygon id="Bolt_Inner_00000057110097004243105640000016286091061572752517_" class="st1" points="5.9,33.2 20.9,14.1 
				22.4,20.8 36.5,10.9 20.7,32 19.2,25.3 			"/>
		</g>
	</g>
	<g id="Gear_Bottom">
		<path class="st2" d="M40.8,17.2l3.2-2.8l-2.7-4.8l-6.1,8.5c0,0,2.8,6.5-3.4,13.2c-4.1,4.5-9.9,3.7-9.9,3.7l-2.7,3.2l-1.3-4
			c0,0-0.8-0.4-2.5-1.6c-1.2-1-1.2-0.9-1.2-1l-5.1,3.1l9.1,5.3l0.6,4.3h8l0.7-4.3l8.6-4.9l4.7,0.5L44,30l-3.2-3
			C40.8,26.9,40.8,17.2,40.8,17.2z M22.8,42.5c-1.2,0-2.1-0.9-2.1-2.1s0.9-2.1,2.1-2.1c1.1,0,2.1,0.9,2.1,2.1S23.9,42.5,22.8,42.5z
			 M38,32.8c-1.2,0-2.1-0.9-2.1-2.1s0.9-2.1,2.1-2.1s2.1,0.9,2.1,2.1S39.2,32.8,38,32.8z"/>
		<g>
			<g>
				<defs>
					
						<rect id="SVGID_1_" x="23" y="18.6" transform="matrix(0.6011 -0.7992 0.7992 0.6011 -10.3502 38.7762)" width="21.3" height="22.3"/>
				</defs>
				<clipPath id="SVGID_00000054981737056940383190000007030161974656547500_">
					<use xlink:href="#SVGID_1_"  style="overflow:visible;"/>
				</clipPath>
				<path style="clip-path:url(#SVGID_00000054981737056940383190000007030161974656547500_);fill:#F3C029;" d="M40.8,17.2l3.2-2.8
					l-2.7-4.8l-6.1,8.5c0,0,2.8,6.5-3.4,13.2c-4.1,4.5-9.9,3.7-9.9,3.7l-2.7,3.2l-1.3-4c0,0-0.8-0.4-2.5-1.6c-1.2-1-1.2-0.9-1.2-1
					l-5.1,3.1l9.1,5.3l0.6,4.3h8l0.7-4.3l8.6-4.9l4.7,0.5L44,30l-3.2-3C40.8,26.9,40.8,17.2,40.8,17.2z M22.8,42.5
					c-1.2,0-2.1-0.9-2.1-2.1s0.9-2.1,2.1-2.1c1.1,0,2.1,0.9,2.1,2.1S23.9,42.5,22.8,42.5z M38,32.8c-1.2,0-2.1-0.9-2.1-2.1
					s0.9-2.1,2.1-2.1s2.1,0.9,2.1,2.1S39.2,32.8,38,32.8z"/>
			</g>
		</g>
	</g>
	<g id="Gear_Top">
		<path class="st4" d="M12.7,14.2c4.1-4.9,9.4-5.2,12.1-4.9c2.7,0.3,5.6,2.3,5.6,2.3l4.7-3l-7.5-4.4L27,0h-7.7l-1.2,4.5L10,9.3
			L5.3,8.6L2,14.3l3,2.8l0.3,9.2L1.6,29l1.5,3.1l7.3-9.2C10.4,22.8,9.4,18.1,12.7,14.2z M22.8,2c1.2,0,2.1,0.9,2.1,2.1
			S24,6.2,22.8,6.2c-1.1,0-2.1-0.9-2.1-2.1S21.6,2,22.8,2z M7.3,15.3c-1.1,0-2.1-0.9-2.1-2.1s0.9-2.1,2.1-2.1s2.1,0.9,2.1,2.1
			S8.4,15.3,7.3,15.3z"/>
		<g>
			<g>
				<defs>
					
						<rect id="SVGID_00000047040242980543963830000009947522884362766013_" x="3.2" y="3.4" transform="matrix(0.6011 -0.7992 0.7992 0.6011 -6.0768 16.8579)" width="21.3" height="22.3"/>
				</defs>
				<clipPath id="SVGID_00000165938603418205784760000005555060862023810181_">
					<use xlink:href="#SVGID_00000047040242980543963830000009947522884362766013_"  style="overflow:visible;"/>
				</clipPath>
				<path style="clip-path:url(#SVGID_00000165938603418205784760000005555060862023810181_);fill:#F3C029;" d="M12.7,14.2
					c4.1-4.9,9.4-5.2,12.1-4.9s5.6,2.3,5.6,2.3l4.7-3l-7.5-4.4L27,0h-7.7l-1.2,4.5L10,9.3L5.3,8.6L2,14.3l3,2.8l0.3,9.2L1.6,29
					l1.5,3.1l7.3-9.2C10.4,22.8,9.4,18.1,12.7,14.2z M22.8,2c1.2,0,2.1,0.9,2.1,2.1S24,6.2,22.8,6.2c-1.1,0-2.1-0.9-2.1-2.1
					S21.6,2,22.8,2z M7.3,15.3c-1.1,0-2.1-0.9-2.1-2.1s0.9-2.1,2.1-2.1s2.1,0.9,2.1,2.1S8.4,15.3,7.3,15.3z"/>
			</g>
		</g>
	</g>
</g>
</svg>
