<?xml version="1.0" encoding="utf-8"?>
<!-- Generator: Adobe Illustrator 28.1.0, SVG Export Plug-In . SVG Version: 6.00 Build 0)  -->
<svg version="1.1" id="Layer_2" xmlns="http://www.w3.org/2000/svg" xmlns:xlink="http://www.w3.org/1999/xlink" x="0px" y="0px"
	 viewBox="0 0 149.5 142.2" style="enable-background:new 0 0 149.5 142.2;" xml:space="preserve">
<style type="text/css">
	.st0{fill:#603913;}
	.st1{fill:#DC482B;}
	.st2{fill:#F1BE37;}
</style>
<path class="st0" d="M149.3,10.9V9.7l0,0c0-0.1,0-0.1,0-0.2c-0.2,0-0.5,0-0.7,0.1c-0.1,0-0.3,0-0.4,0c-0.1,0-0.2,0-0.4,0
	c-0.3,0-0.6,0-1,0c-0.5,0-1,0-1.5,0c-1.2,0-2.4,0.1-3.4,0.3l-1.6,0c-0.6,0.1-3.5,0.5-4.6,0.5c-0.2,0-0.3,0-0.4,0c-0.2,0-0.5,0-0.8,0
	c-0.6,0-1.1-0.1-1.7-0.2c-0.2,0-0.4,0-0.7-0.1c-0.3,0-2,0.7-2.3,0.7c-0.1,0-0.1,0-0.2,0c-0.2,0-0.8-0.2-0.9-0.2l0,0
	c-0.5,0-1.1,0.1-1.6,0.1c-0.3,0-0.6,0-0.9,0c-0.2,0-0.4-0.1-0.6-0.1c-0.2,0-0.3,0-0.5-0.1c-0.1,0-0.1,0-0.1,0c-0.1,0-0.1,0-0.2,0
	c-0.2,0-0.5-0.1-0.8-0.1c-0.1,0-0.2,0-0.3,0c-0.1,0-0.3,0-0.4-0.1c-0.2,0-0.5-0.1-0.7-0.1c-0.7-0.1-1.4-0.2-2.1-0.3
	c-0.1,0-0.2,0-0.3,0c0,0-0.1,0-0.1,0c-0.1,0-0.3,0-0.4,0c-0.2,0-0.4,0-0.7,0c-0.1,0-0.1,0-0.2,0c-0.1,0-0.2,0-0.3,0
	c-0.1,0-0.1,0-0.2,0c-0.1,0-0.3,0-0.4,0c-0.2,0-0.4,0-0.6,0c-1.1,0-2.9-0.1-3.8-0.1h-5c-0.1,0-0.1,0-0.2,0c0,0-0.1,0-0.1,0
	c0,0-0.1,0-0.1,0c0,0-0.1,0-0.1,0c0,0-0.1,0-0.1,0c-0.1,0-0.1,0-0.2,0c-0.2-0.1-0.4-0.1-0.7-0.2c-0.1,0-0.2-0.1-0.3-0.1
	c-0.1,0-0.2,0-0.3-0.1c-0.2,0-0.5-0.1-0.8-0.2c-0.1,0-0.2,0-0.4-0.1c-0.9-0.1-2-0.3-2.5-0.3l-1.9,0c-1.2,0-2.2,0-3.3,0
	c-0.5,0-1,0-1.5,0l-2.2,0c-1.3-0.1-4.4-0.5-6.5-0.6c-0.3,0-0.6,0-0.9,0c-0.1,0-0.2,0-0.2,0c0,0,0,0,0,0c-0.1,0-0.2,0-0.2,0
	c-0.2,0-0.5,0.1-0.7,0.1c-0.1,0-0.1,0-0.2,0c-0.1,0-0.2,0-0.4,0c-0.4,0-0.7,0-1.1,0c-0.1,0-0.2,0-0.4,0l-0.3,0c0,0-0.1,0-0.1,0
	c-0.1,0-0.2,0-0.3,0s-0.2,0-0.3,0c-0.2,0-0.4,0-0.6,0.1l-1.2,0c0,0-0.1,0-0.1,0.1c0,0-0.1,0.1-0.1,0.1c-0.1,0-0.1,0.1-0.1,0.2
	c-0.1,0-0.1,0.1-0.1,0.2c0,0,0,0,0,0c-0.1,0.1-0.1,0.2-0.2,0.3c-0.1,0.1-0.1,0.2-0.2,0.2c-0.1,0.1-0.1,0.2-0.2,0.2c0,0,0,0,0,0
	c-0.1,0.1-0.1,0.1-0.2,0.2c-0.1,0-0.1,0.1-0.2,0.1c-0.3,0.2-0.9,0.3-1.1,0.4C78,10.7,78,10.9,77.9,11c-0.1,0.2-0.2,0.5-0.2,0.7
	c-0.2,0.2-0.5,0.6-0.8,0.9c-0.1,0.2-0.1,0.3-0.3,0.5c0,0,0,0-0.1,0s0,0,0,0c0,0,0,0,0,0h0c0,0,0,0-0.1,0c-0.2,0-0.3,0-0.4,0
	c-0.1,0-0.1,0-0.2,0c-0.1,0-0.1,0-0.1,0c-0.1,0-0.3-0.1-0.4-0.1c-0.6-0.2-1.1-0.5-1.8-0.6c-0.1,0-0.1,0-0.2,0c0,0-0.1,0-0.1,0
	c-0.1,0-0.1,0-0.2,0c0,0,0,0,0,0c-0.2,0-0.3,0-0.4,0c-0.1,0-0.2,0-0.3,0c-0.1,0-0.2,0-0.2,0c-0.2,0-0.3,0-0.4,0
	c-0.6-0.1-1.1-0.3-1.6-0.4c-0.4,0-0.8,0-1.1,0c0,0,0,0,0,0c-0.1,0-0.2,0-0.3-0.1c-0.1,0-0.1,0-0.2-0.1c-0.2,0-0.3-0.1-0.4-0.2
	c-0.1,0-0.2-0.1-0.3-0.2c-0.1,0-0.2-0.1-0.3-0.2c-0.3-0.2-0.5-0.3-0.7-0.4c-0.2-0.1-0.4-0.2-0.7-0.3C65.3,10,64.5,9.5,64,9l-1.4,0.1
	c-0.2,0-0.5,0.2-0.7,0.3c-0.1,0-0.3,0-0.5,0.1c-0.2,0-0.4,0-0.6,0c-0.1,0-0.1,0-0.2,0c0,0-0.1,0-0.1,0c-0.1,0-0.1,0-0.1,0
	c-0.1,0-0.1,0-0.2,0c-0.2,0-0.3,0-0.4,0c0,0-0.1,0-0.1,0c-0.1,0-0.2,0-0.3,0c-0.1,0-0.1,0-0.2,0c0,0,0,0,0,0c-0.1,0-0.1,0-0.2,0
	c0,0-0.1,0-0.1,0s-0.1,0-0.1,0c-0.1,0-0.1,0-0.2,0c-0.1,0-0.2,0-0.3,0c0,0,0,0,0,0c0,0-0.1,0-0.1,0c0,0,0,0,0,0c-0.1,0-0.1,0-0.2,0
	c-0.1,0-0.2,0-0.3,0c-0.2,0-0.4,0-0.5-0.1c-0.2,0-0.3,0-0.5,0c-0.1,0-0.2,0-0.3,0c-0.3,0-0.6,0-0.8,0c-0.4,0-0.8,0-1.2,0
	c-0.2,0-0.4,0-0.5,0c-0.2,0-0.5,0-0.7,0c-0.1,0-0.1,0-0.2,0c-0.6,0-1.2,0-1.8-0.1c-0.6,0.1-1.4,0.1-2,0.2l-2.7-0.1
	c-0.2,0-0.4,0.2-0.6,0.2c-0.4,0-0.8,0-1.2,0c-0.4,0-0.8,0.1-1.3,0.1c0,0-0.1,0-0.1,0c-0.2,0-0.7-0.1-0.9-0.1c0,0,0,0,0,0
	c-0.9,0-1.8-0.1-2.8-0.1c-0.2,0-0.4,0-0.6,0c-0.1,0-0.2,0-0.3,0c-0.2,0-0.3,0-0.5,0c-0.1,0-0.2,0-0.2,0c-0.1,0-0.1,0-0.2,0
	c-0.1,0-0.1,0-0.2,0c-0.1,0-0.2,0-0.2,0c0,0-0.1,0-0.1,0c-0.1,0-0.1,0-0.2,0s-0.1,0-0.2,0c-0.3,0-0.6,0-1,0c-0.7,0-1.4-0.1-1.8-0.2
	c-0.6,0-1.2,0-1.9,0c-1.2-0.2-2.4-0.3-3.9-0.3c-1.4,0-4,0-5.7,0c-1,0-2,0-2.8,0.1c-0.2,0-0.4,0-0.7,0.1c-0.2,0-0.4,0.1-0.6,0.1
	c-0.4,0.1-0.8,0.2-1.1,0.3c-0.2,0.1-0.5,0.1-0.9,0.1c-0.9,0-1.9-0.3-2.4-0.4h-3.9L10,9.7c-0.1,0-0.3,0.1-0.4,0.1
	c-0.8,0-1.8-0.5-2.4-0.5c0,0,0,0,0,0c0,0-0.1,0-0.1,0C6.5,9.3,5.9,9.5,5.4,9.7H2.2C1.4,9.9,0.8,10.5,0,10.7c0.1,1.1,1.4,1.9,2,2.7
	c0.4,0.5,0.7,1,1.1,1.5c0.4,0.5,1.1,0.7,1.5,1.3c0.4,0.7,0.5,1.5,1,2.1c0.1,0.1,0.3,0.2,0.4,0.4c0.3,0.2,0.6,0.4,0.8,0.6
	c0.2,0.2,0.3,0.6,0.5,0.8c0,0,0.1,0,0.1,0c0,0,0.1,0,0.1,0c0.1,0,0.1,0,0.1,0.1c0.1,0.2,0,0.3,0,0.4c0,0,0,0.1,0,0.1c0,0,0,0,0,0.1
	c0,0,0,0.1,0,0.1c0.1,0.2,0.5,0.4,0.6,0.6c0.3,0.4,0.3,0.9,0.6,1.3c0.2,0.3,0.6,0.4,0.7,0.7c0,0.1,0,0.3,0,0.4
	c0.1,0.9,0.1,1.8,0.2,2.7c0.1,0.2,0.5,0.4,0.6,0.6c0.2,0.5,0,1,0.3,1.3h0c0.1,0.1,0.2,0.1,0.4,0.2c0.2,0.4,0.1,0.7,0,1.1
	c0,0.1-0.1,0.2-0.1,0.3c0,0,0,0,0,0c0,0,0,0,0,0.1s0,0,0,0.1c0,0,0,0,0,0s0,0,0,0v0c0,0,0,0.1,0,0.1c0,0,0,0,0,0c0,0,0,0.1,0,0.1
	c0.3,0.9,0.7,1.8,1.1,2.6c0.3,0.6,0.5,1.2,0.8,1.7c0.1,0.1,0.1,0.3,0.2,0.4c0.1,0.2,0.1,0.3,0.2,0.5c0,0.1,0.1,0.3,0.1,0.4
	c0,0.2,0.1,0.3,0.1,0.5c0.1,0.3,0.1,0.5,0.1,0.8c0,1.2-0.6,2.3-0.3,3.5c0,0.2,0.1,0.4,0.1,0.6c0,0.2,0.1,0.4,0.1,0.6
	c0,0.2,0.1,0.3,0.1,0.5c0,0.2,0.1,0.3,0.1,0.5c0,0.2,0.1,0.3,0.1,0.5s0.1,0.3,0.1,0.5c0,0.1,0,0.1,0,0.2c0,0.1,0,0.2,0.1,0.2
	c0,0.1,0.1,0.2,0.1,0.4c0,0.1,0.1,0.3,0.2,0.4c0,0.1,0.1,0.3,0.2,0.4c0.2,0.4,0.8,0.5,1,0.8c0,0,0,0,0,0.1c0,0,0,0,0,0.1
	c0,0.1,0,0.3,0,0.4l0,0c0,0.1,0,0.2-0.1,0.2c0,0,0,0.1,0,0.1c0,0.1,0,0.1,0,0.2c0,0.1,0,0.1,0,0.2c0.2,0.5,0.8,1.2,1.1,1.6
	c0.6,0.8,1,1.9,1.5,2.8c0.5,1.3,1,2.7,1.5,4h1c0.1,0,0.2,0.1,0.3,0.1c0.2,0.1,0.4,0.2,0.6,0.2c0.1,0,0.2,0.1,0.3,0.1
	c0,0,0,0.1,0,0.1c0,0,0,0,0,0c0,0,0,0,0,0c0,0,0,0,0,0c0,0,0,0,0,0c-0.2,1.7-1.3,3.3-1.7,4.8c0,0.2-0.1,0.3-0.1,0.5
	c0,0.1,0,0.2,0,0.3c0,0.1,0,0.1,0,0.2c0,0.1,0,0.1,0,0.2c0,0.1,0,0.2,0,0.2c0,0.2,0.1,0.3,0.1,0.5c0,0.1,0,0.2,0.1,0.2
	c0,0.1,0,0.1,0,0.2c0,0,0,0.1,0,0.1c0,0,0,0.1,0,0.1s0,0.1,0,0.1c0,0.1,0,0.3,0,0.4l0,0c0,0.1,0,0.2,0,0.2c0,0.1,0,0.2,0,0.2v0
	c0,0,0,0.1,0,0.1c0,0,0,0.1,0,0.1c0,0.1,0,0.1,0.1,0.2c0,0,1.8,1,1.8,1.1c0,0.3-0.2,0.5-0.3,0.7c-0.1,0.1-0.2,0.2-0.2,0.3
	c0,0-0.1,0.1-0.1,0.1c0,0.1-0.1,0.1-0.1,0.2c0,0,0,0.1,0,0.1c0,0,0,0,0,0.1c0,0,0,0.1,0,0.1c0,0.1,0,0.2,0.1,0.2
	c0,0.1,0.1,0.3,0.2,0.4c0.1,0.2,0.2,0.4,0.3,0.6c0,0.1,0.1,0.2,0.1,0.3c0.1,0.2,0.2,0.4,0.2,0.6c0.1,0.4,0.2,0.8,0.2,1.2
	c0,0.1,0,0.2,0,0.2c0,0.1,0,0.2,0,0.2c0,0.1,0,0.2,0,0.2c0,0.1,0,0.2,0,0.2c0,0.1,0,0.2-0.1,0.2c0,0.1,0,0.2-0.1,0.2
	c-0.1,0.2-0.2,0.4-0.3,0.6c0,0.1-0.1,0.1-0.1,0.2c0,0.1-0.1,0.1-0.1,0.2c0,0.1-0.1,0.1-0.1,0.2c0,0-0.1,0.1-0.1,0.1
	c-0.1,0.1-0.2,0.2-0.3,0.3c0.2,0.9,1,1.7,1.5,2.4c0.2,0.2,0.3,0.5,0.5,0.8c0,0.1,0.1,0.2,0.1,0.2c0.2,0.4,0.4,0.8,0.6,1.2
	c0,0.1,0.1,0.2,0.2,0.4c0.1,0.1,0.1,0.3,0.2,0.4c0.1,0.3,0.2,0.5,0.3,0.8c0,0,0,0.1,0,0.2c0,0.1,0,0.1,0,0.2c0,0.1,0,0.1,0,0.2
	c0,0.1,0,0.1,0,0.2c0,0,0,0.1,0,0.1c0,0.1,0,0.1,0,0.2c0,0.2,0,0.4,0,0.6c0,0.2,0,0.3,0,0.5c0,0.1,0,0.2,0,0.3c0,0.2,0,0.4,0,0.6
	c0,0.1,0,0.2,0,0.3c0,0.1,0,0.1,0,0.2c0,0.1,0,0.2,0,0.3c0,0.5,0,1-0.1,1.4c0,0.3-0.1,0.5-0.1,0.7c0,0.2,0,0.3-0.1,0.4
	c0,0.1,0,0.1,0,0.2c0,0,0,0.1,0,0.1c0,0,0,0.1,0,0.1c0,0,0,0,0,0.1c0,0.1-0.1,0.2-0.1,0.4c0,0.1,0,0.1,0,0.2c0,0.1-0.1,0.3-0.1,0.4
	c0,0.1,0,0.1,0,0.2c0,0.1,0,0.3,0.1,0.4c0.2,0.8,1,1.5,1.2,2.1c0.4,0.9,0.6,1.8,1,2.8c0.2,0.4,0.5,0.6,0.7,1c0,0.1,0.1,0.2,0.2,0.2
	c0,0.1,0.1,0.1,0.1,0.2c0.1,0.3,0.3,0.6,0.5,0.8c0.1,0.1,0.2,0.3,0.3,0.4c0,0.1,0.1,0.1,0.1,0.1c0,0,0.1,0.1,0.2,0.1
	c-0.1,0.9-0.4,1.5-0.6,2.1c-0.5,1.7-0.8,3.6-0.6,5.5c0,0.1,0,0.2,0,0.3c0,0.1,0.1,0.2,0.1,0.3c0,0.1,0.1,0.3,0.2,0.4
	c0,0.1,0,0.1,0.1,0.2c0.3,0.5,0.6,1,0.7,1.4c0,0.2,0.1,0.4,0.1,0.6l0,0c0,0.1,0,0.1,0,0.2c0,0.1,0,0.3,0,0.4c0,0.1,0,0.2,0,0.2
	c0,0.1,0,0.2,0,0.3c0,0.2-0.1,0.4-0.1,0.7c-0.2,0.9-0.4,1.9-0.6,2.3c-0.1,0.4-0.1,0.8-0.2,1.2c0,0.1,0,0.1,0,0.1c0,0,0,0.1,0,0.1
	c0,0,0,0.1,0,0.1c0,0,0,0.1-0.1,0.1c0,0.4,0.4,0.8,0.9,1.1s1.1,0.6,1.4,0.8c0,0.4-0.1,0.8-0.2,1.1c0,0.1,0,0.1,0,0.2
	c0,0.1-0.1,0.3-0.1,0.4c0,0.1,0,0.1,0,0.2c0,0.1,0,0.1,0,0.2c0,0.1-0.1,0.2-0.1,0.3c-0.1,0.2-0.1,0.4-0.2,0.6c0,0.1-0.1,0.3-0.1,0.4
	c0,0,0,0.1,0,0.1c-0.2,0.8-0.6,1.7-0.9,2.7c-0.3,0.9-0.7,1.9-1,2.8c-0.1,0.4-0.2,0.8-0.3,1.2c-0.1,1.4-0.6,2.9-0.8,4.4
	c0,0.1,0,0.3,0,0.4c-0.1,0.1-0.2,0.1-0.2,0.1l0.4,0.6c1.5,0,3.7-0.6,5-0.9c0.7,0,1.3-0.1,1.9-0.1c0.4-0.1,1.2-0.2,1.7-0.2
	c0.1,0,0.2,0,0.3,0c0.1,0,0.3,0.1,0.5,0.1c0.1,0,0.2,0,0.2,0.1c0.3,0.1,0.7,0.1,1.1,0.2c0.3,0.1,0.6,0.1,0.8,0.2c0.1,0,0.2,0,0.3,0
	c0,0,0,0,0.1,0c0.3,0.1,0.6,0.1,0.8,0.1c0.2,0,0.3,0,0.3-0.1c1.2,0,3.6-0.5,5.2-0.5c0.1,0,0.2,0,0.3,0c0.1,0,0.1,0,0.2,0
	c0.7,0.1,1.1,0.2,1.3,0.5h0c0.3,0,0.7,0,1,0c0.1,0,0.1,0,0.2,0c0.2,0,0.4,0,0.6,0c1.1,0,2.2,0.1,3.4,0.1c0.7,0,1.4,0.1,2.1,0.1
	c0.4,0,0.7,0,1.1,0c0.8,0,1.5,0,2.3-0.1c2.4-0.2,3.9-0.2,4.9-0.2h0.1c0,0,0,0.1,0,0.1c0.1,0,0.1,0,0.2,0c0.3,0,0.7-0.1,1.1-0.1
	c0,0,0,0,0,0c0.2,0,0.2,0,0.2,0c0.4,0,0.8,0,1.3,0c0.2,0,0.3,0,0.4,0.1c1.3,0.3,3-0.2,3-0.2l2.6,0.9l0.5-0.2c0.1,0,0.1,0,0.2,0
	c0.1,0.1,0.2,0.1,0.4,0.1c0.1,0,0.1,0,0.1,0c0.1,0,0.1,0,0.2,0.1c0,0,0.1,0,0.1,0c0.1,0,0.2,0,0.2,0.1c0.9,0.2,1.9,0.4,2.8,0.5
	l1.5-0.1c1.4,0.2,3.3,0.2,4.7,0.5c0.3,0,0.7-0.1,1-0.1c0.2,0,0.7,0.2,0.8,0.2l2.1,0c0.4,0.1,0.9,0.2,1.4,0.2c0.2,0,0.3,0,0.5-0.1
	c0.1,0,0.3-0.1,0.4-0.1c0.1,0,0.2,0,0.3-0.1c0.1,0,0.2,0,0.3,0c0.1,0,0.2,0,0.3,0c0.5,0,0.9,0,1.4,0c0.9,0,1.9,0,2.8-0.1
	c0.6,0,1.2,0,1.9,0c0.1,0,0.2-0.1,0.4-0.1l0,0c0.2-0.1,0.4-0.1,0.6-0.2c0.1,0,0.3-0.1,0.4-0.1c0.1,0,0.1-0.1,0.2-0.1
	c0.3-0.1,0.5-0.2,0.8-0.3c0.2-0.1,0.5-0.2,0.7-0.3c0.8-0.3,1.6-0.3,2.3-0.6c0.1,0,0.1-0.1,0.2-0.1c0.1,0,0.1-0.1,0.2-0.1
	c0.2-0.1,0.3-0.1,0.5-0.2c0.1,0,0.1-0.1,0.2-0.1l0,0c0.1,0,0.1,0,0.2-0.1c0.1,0,0.1,0,0.2-0.1c0.1,0,0.2,0,0.3,0c0.1,0,0.1,0,0.2,0
	c0.1,0,0.1,0,0.2,0c0.1,0,0.1,0,0.2,0.1c0.1,0,0.1,0,0.2,0.1c0.1,0,0.1,0,0.2,0.1c0.1,0,0.2,0.1,0.3,0.1c0.1,0,0.2,0.1,0.3,0.1
	c0.7,0.3,1.4,0.6,1.8,0.7c0.4,0.1,0.8,0.2,1.1,0.2c0.2,0,0.3,0,0.5,0c0.2,0,0.4,0,0.7-0.1c0,0,0.1,0,0.1,0h0c0.2,0,0.4,0,0.7-0.1
	c0,0,0,0,0,0c0.4,0,0.7,0,1.2,0.1c0.6-0.1,0.6-0.4,1.3-0.8c0.7-0.4,0.8-0.4,2.2-0.6c1.4-0.2,1.9-0.2,2.2,0.1
	c0.4,0.3,0.9,0.6,1.3,0.2c-0.1,0.1,0,0.1,0.6-0.3c1.3-0.8,1.1-0.5,1.1-0.5l0.5-0.4l1.3,0l0.4-0.4c0,0,0.2,0,0.4,0.2s0.7-0.1,0.9-0.1
	c0.1,0.1,0.2,0,0.4,0c0.5,0,0.9-0.2,1.3-0.3c0.2-0.1,0.4-0.1,0.6-0.1c0.8,0,2.4,0.4,3.9,0.6c1.9,0.3,5.2,0.3,6.8,0.8
	c0.3,0,0.6,0.1,0.9,0.1c0.1,0,0.3,0,0.4,0c0.3,0,0.5,0,0.7,0c0.1,0,0.2,0,0.3,0c0.1,0,0.3,0,0.4,0c0.1-0.3-0.1-0.9-0.1-1.1
	c0-0.2,0-0.4,0-0.7c0-0.4,0.1-0.9,0.1-1.5c-0.1-0.5-0.1-0.9-0.2-1.4c0-0.2-0.1-0.6-0.2-1c0-0.1,0-0.1-0.1-0.2c0-0.1-0.1-0.2-0.1-0.3
	l0,0c0-0.1-0.1-0.1-0.1-0.2c-0.4-0.7-0.8-1.4-1.1-2.1l-1.3,0l0.6-1.4c-0.2-0.3-0.3-0.7-0.5-1c0-0.1-0.1-0.1-0.1-0.2
	c-0.2-0.3-0.5-0.9-0.6-1.3c0-0.1-0.1-0.2-0.1-0.3c-0.3-1.4-0.7-3-0.4-4.3l0-0.9c0-0.1,0-0.1,0.1-0.2c0.1-0.3,0.2-0.6,0.3-1
	c0.1-0.3,0.2-0.6,0.3-0.9c0.1-0.1,0.1-0.3,0.1-0.5c0-0.1,0-0.2,0.1-0.2c0-0.1,0-0.2,0.1-0.2c0-0.1,0-0.1,0-0.2c0,0,0,0,0,0
	c0-0.1,0-0.2,0.1-0.3c0-0.1,0-0.1,0-0.2c0-0.1,0-0.1,0-0.2c0-0.1,0-0.2,0-0.3c0,0,0-0.1,0-0.1l0-0.2c0,0,0-0.1,0-0.1
	c0-0.2,0.2-0.5,0.2-0.6c-0.1-0.1-0.2-0.2-0.3-0.4c0.9-1.3,0.8-3.4,0.7-4.4c0-0.3,0-0.7-0.1-1.1c0-0.4,0-0.8-0.1-1.2l0.1-0.3
	c0-0.1,0-0.2,0-0.3c0,0,0-0.1,0-0.1c0-0.1,0-0.2,0-0.3c0-0.3-0.1-0.6-0.1-0.9c0-0.1,0-0.2,0-0.3c0-0.1,0-0.2,0-0.3
	c0-0.1,0-0.1,0-0.2c0-0.1,0-0.1,0-0.1c0-0.1,0-0.1,0-0.2c0-0.1,0-0.1,0-0.2c0.2-0.1,0.3-0.2,0.4-0.3c0,0,0.1-0.1,0.1-0.1
	c0,0,0.1-0.1,0.1-0.1l0.2-1.8c0,0-0.2-0.7-0.5-1.2s-0.6-0.8-0.8-1.2c-0.2-0.3,0.1-0.6,0.3-0.8c0.1-0.3,0.2-0.5,0.3-0.7
	c-0.1-1.1,0.2-3,0.2-3s0.3-4.1,0.7-5.1c0.4-1.1,1-2.9,1.3-3.6s0.1-1.9,0.5-2.6c0.4-0.6,0.7-0.9,1.1-1.5c-0.1-0.6-0.3-1.1-0.4-1.7
	l-0.2-0.3l-1.7-1.4l-0.1-1.5c0,0-0.1-0.4,0.7-1.8s0.9-2.7,0.9-2.7l0.4-0.9c0,0,0-0.8,1.4-1c0.1,0,0.2,0,0.3-0.1c0-0.5,0-1,0-1
	c0.1-0.2,0.2-0.4,0.4-0.6c0,0,0,0,0.1-0.1c0.1-0.3,0.1-0.6,0.1-1c0.1-0.7,0.3-2.9,0.2-3.7c0-0.7-0.3-1.3-0.2-2.2
	c-0.1-0.4-0.2-0.8-0.2-1c0-0.1,0-0.1,0-0.2c0.1-0.5,0.5-1.2,0.6-1.9c0-0.1,0-0.3,0-0.4c0-0.9,1.2-5,1.3-5.8c0-0.2-0.1-0.7,0-1
	c0,0,0,0,0-0.1c0-0.1,0.1-0.2,0.1-0.3c0-0.1,0.1-0.1,0.1-0.2c0,0,0-0.1,0.1-0.1c0,0,0-0.1,0.1-0.1c0-0.1,0.1-0.1,0.1-0.2
	c0.1-0.1,0.1-0.2,0.2-0.3c0-0.1,0.1-0.1,0.1-0.2c0.2-0.3,0.4-0.7,0.5-1c0-0.1,0-0.1,0.1-0.2c0,0,0,0,0,0c0-0.1,0-0.1,0.1-0.2
	c0-0.1,0-0.2,0.1-0.2c0-0.1,0-0.2,0-0.2c0-0.1,0-0.2,0-0.4c0,0,0,0,0,0c0-0.1,0-0.1,0-0.2c0-0.1,0-0.2-0.1-0.3
	c0-0.2-0.5-1.4-0.5-1.5c-0.1-1.1,0.6-3.4,1.3-6.1c0.1-0.6,0.3-1.3,0.4-1.9l-0.8-2.6l1.8-1.4c0.2-1,0.1-2.2,0.3-2.9
	c0-0.1,0-0.1,0.1-0.2c0.4-0.7,1-1.2,1.3-2.2l0-0.1c0,0,0-0.1,0-0.2c0.1-0.5,0.1-1.1,0.1-1.6c0-0.2,0-0.4,0.1-0.6
	c0-0.1,0.1-0.2,0.1-0.4c0.1-0.1,0.1-0.3,0.2-0.4c0,0,0.1-0.1,0.1-0.2c0,0,0.1-0.1,0.1-0.1s0.1-0.1,0.1-0.1c0.1-0.2,0.2-0.3,0.4-0.5
	c0-0.1,0.1-0.1,0.1-0.2c0.1-0.1,0.1-0.2,0.1-0.2c0,0,0.1-0.1,0.1-0.2c0.3-0.7,0.3-1.6,0.5-2.4c0.1-0.4,0.4-0.7,0.5-1
	c0-0.1,0-0.2,0-0.3C149.5,13.5,149.4,11.4,149.3,10.9z M125.9,27.7c-5.6,7.3-7.2,11.8-7.2,11.8c-1,2.6-2.3,10.6-2.3,10.6l-9,50.7
	c-0.7,6,3.1,9.9,3.1,9.9c0.5,0.6-0.1,0.5-0.1,0.5l-27.1,0.3c-0.9,0-0.5-0.5-0.5-0.5l1.4-4.1c0.5-1.5,0.4-2.2,0.4-2.2
	c-0.1-2-1.4-7.4-1.4-7.4l-3.8-17.4c-0.1-0.3-0.2,0-0.2,0c-2.2,7.6-5.3,22.1-5.3,22.1c-0.4,2.5,0,3.9,0,3.9c1.1,4.1,1.8,5.3,1.8,5.3
	c0.4,0.8-0.1,0.5-0.1,0.5c-0.6,0-27.6,0.1-27.6,0.1c-0.3,0-0.2-0.2-0.2-0.2c0.1-0.2,0.9-1.1,0.9-1.1c2.4-2.8,3.1-4.6,3.1-4.6
	c1.2-2.4,0.4-4.6,0.4-4.6c-1.4-6.4-6-24.6-6-24.6c-3.2-12.7-8.7-34-8.7-34c-2-7.3-3.3-9.9-3.3-9.9c-1.4-3.3-3.9-4.4-3.9-4.4
	c-0.5-0.3-1.3-1-1.3-1c24,0,26.1,0,26.1,0c0.7,0,0.4,0.6,0.4,0.6c-0.4,1.5-0.7,6.7-0.7,6.7c-0.1,1.7,0.5,4.1,0.5,4.1l9.7,43.9
	c0.9-3,13.4-49.6,13.4-49.6c0.2-0.4,0.2-0.2,0.2-0.2l5.2,19.1l8.8,31.6c0.3,0.8,0.5-0.2,0.5-0.2c0.6-2.9,7.3-42.9,7.3-42.9l1.3-7.7
	c0.4-3.5-1.7-5.2-1.7-5.2c-0.7-0.6,0.1-0.4,0.1-0.4c2.6,0.2,25.5,0,25.5,0C126.7,27,125.9,27.7,125.9,27.7z"/>
<g>
	<path class="st1" d="M69,10.3c0-2.2,6.4-7.4,9.1-8.9V0h-0.6H55.3H55h-1.2H53h-0.3H30.4h-0.6v1.5c2.3,1.5,9.1,6.7,9.1,8.9
		c0,0.5,0.3,120,0.3,121.5c0,2.2-6.4,7.4-9.1,8.9v1.5h0.6H53l0,0h1.2h1.2h0.3h22.2h0.6v-1.5c-2.3-1.5-9.1-6.6-9.1-8.9
		C69,130.9,69,12.8,69,10.3z"/>
</g>
<g>
	<path class="st1" d="M120.7,10.3c0-2.2,6.4-7.4,9.1-8.9V0h-0.6h-22.2h-0.3h-1.2h-0.9h-0.3H82h-0.6v1.5c2.3,1.5,9.1,6.7,9.1,8.9
		c0,0.5,0.3,120,0.3,121.5c0,2.2-6.4,7.4-9.1,8.9v1.5h0.6h22.2l0,0h1.2h1.2h0.3h22.2h0.6v-1.5c-2.3-1.5-9.1-6.6-9.1-8.9
		C120.7,130.9,120.7,12.8,120.7,10.3z"/>
</g>
<g>
	<path class="st2" d="M83.7,120.3c-0.9,0-1.7-0.4-2.2-1.1c-0.5-0.7-0.7-1.6-0.4-2.4c0.6-2,0.9-4.3,0.9-7.1c0-2.2-1.1-8.8-2.2-15.3
		c-1.6,7-2.9,13.7-2.9,15.5c0,2.1,0.5,4.1,1.7,6.4c0.4,0.8,0.4,1.8-0.1,2.6s-1.4,1.3-2.3,1.3H46c-1.2,0-2.2-0.8-2.6-1.9
		c-0.3-1.1,0.1-2.4,1-3c1.8-1.3,4.4-3.9,4.3-5.5c-0.7-10.5-15.6-66.4-17.2-72.1c0-0.1,0-0.2-0.1-0.3c-0.6-3.8-2.8-7.3-5.8-9.6
		c-0.9-0.7-1.3-1.9-1-3c0.4-1.1,1.4-1.9,2.6-1.9h29.6c0.8,0,1.6,0.4,2.1,1s0.7,1.5,0.5,2.3c-0.6,2.6-0.9,5.7-0.9,9.4
		c0.8,8.3,4.6,26.1,7.2,37.8l11.3-45.5c0.3-1.2,1.4-2,2.6-2c0,0,0,0,0,0c1.2,0,2.3,0.8,2.6,2l10.9,43c3-17,6.2-36.2,6.4-38.8
		c-0.2-1.7-1-3.1-2.4-4.1c-0.9-0.7-1.3-1.9-0.9-3c0.4-1.1,1.4-1.8,2.6-1.8h31.1c1.1,0,2.1,0.7,2.5,1.7s0.1,2.2-0.7,3
		c-3.8,3.6-6.6,7.9-8.1,12.8c-2.6,10.3-12,63-12.2,67.2c0.2,3,1.3,5.8,3.1,8c0.7,0.8,0.8,1.9,0.4,2.9c-0.4,0.9-1.4,1.6-2.4,1.6
		L83.7,120.3L83.7,120.3z"/>
	<path class="st0" d="M56.9,25.6c-0.7,3.2-1,6.6-1,10.1C57.1,48.8,65.7,85,65.7,85l14.1-56.4l14.1,55.2c0,0,8.6-48.6,8.6-51.8
		c-0.2-2.5-1.5-4.7-3.4-6.2h31.1c-4.2,3.9-7.1,8.6-8.9,14c-2.7,10.6-12.3,64.6-12.3,68c0.2,3.4,1.5,6.9,3.7,9.6H83.7
		c0.7-2.5,1-5.2,1-7.9c0-4.9-4.7-28.3-4.7-28.3s-5.9,24.1-5.9,28.6c0,2.7,0.7,5.2,2,7.6H46c0,0,5.7-3.9,5.4-7.9
		c-0.7-11.1-16-68.3-17.2-72.7c-0.7-4.4-3.2-8.6-6.9-11.3L56.9,25.6 M130.1,25.9L130.1,25.9 M56.9,20.2H27.3c-2.3,0-4.4,1.5-5.2,3.7
		c-0.7,2.2,0.1,4.7,1.9,6c2.5,1.8,4.2,4.7,4.8,7.9c0,0.2,0.1,0.4,0.1,0.6c2.7,9.8,16.2,61.1,17,71.4c-0.3,0.8-1.8,2.4-3.1,3.3
		c-1.9,1.4-2.8,3.8-2,6.1c0.7,2.2,2.8,3.8,5.2,3.8h30.1c1.4,0,2.8-0.6,3.8-1.6c1,1,2.4,1.6,3.8,1.6h28.8c2.1,0,4-1.2,4.9-3.1
		c0.9-1.9,0.6-4.1-0.7-5.8c-1.4-1.7-2.2-3.9-2.5-6.3c0.5-5.2,9.3-55.2,12.1-66.4c1.4-4.5,3.8-8.3,7.3-11.5c1.1-1,1.8-2.4,1.8-4
		c0-3-2.4-5.4-5.4-5.4h0H99c-2.3,0-4.4,1.5-5.1,3.7s0,4.6,1.9,6c0.7,0.5,1.1,1.2,1.3,2c-0.3,2.6-2.1,13.6-4.2,25.7L85,27.2
		c-0.6-2.4-2.8-4.1-5.2-4.1h0c-2.5,0-4.6,1.7-5.2,4.1L66,61.5c-2.1-9.7-4.1-20.2-4.7-26c0-3.4,0.3-6.2,0.8-8.6c0.4-1.6,0-3.3-1-4.6
		C60.1,21,58.5,20.2,56.9,20.2L56.9,20.2z M56.9,31L56.9,31L56.9,31L56.9,31z"/>
</g>
</svg>
