<?xml version="1.0" encoding="utf-8"?>
<!-- Generator: Adobe Illustrator 28.1.0, SVG Export Plug-In . SVG Version: 6.00 Build 0)  -->
<svg version="1.1" id="Layer_1" xmlns="http://www.w3.org/2000/svg" xmlns:xlink="http://www.w3.org/1999/xlink" x="0px" y="0px"
	 viewBox="0 0 464.7 374" style="enable-background:new 0 0 464.7 374;" xml:space="preserve">
<style type="text/css">
	.st0{fill:#2C2F32;}
	.st1{fill:#F1BD37;}
	.st2{fill:#D94020;}
</style>
<g>
	<path class="st0" d="M449.7,94c4.5-7.1,0-19.4,0.6-27.9c1.3-8.4,15.6-29.2,14.3-37.6c-7.1,0.6-18.8,1.9-31.1,0
		c-13-1.3-45.4,4.5-57,9.7c-11.7,5.2,2.6-4.5-6.5-8.4c-9.1-3.2-46,11.7-46,11.7l-35.6-2.6l-55.7,5.8l0,0l0,0l0,0l0,0l0,0l0,0
		l-56.4-5.2l-35.6,2.6c0,0-36.9-15.6-46-11.7c-9.1,3.2,5.8,13-6.5,8.4c-11.7-5.2-44.1-11-57-9.7s-24,0.6-31.1,0
		c-1.3,7.8,13.6,29.2,14.3,37.6c1.3,8.4-3.9,20.7,0.6,27.9c4.5,7.1-3.2,11-3.2,19.4s17.5,20.7,15.6,27.9c-1.9,6.5-2.6,21.4,0,33.7
		s9.1,34.4,7.1,44.7c-1.9,9.7-8.4,29.8-7.1,34.4c1.3,4.5,1.9,8.4,1.9,14.9c0,5.8,6.5,22.7,5.2,30.5s1.9,20.7,0.6,24.6
		c-1.3,3.9-9.1,22-1.9,20.1c6.5-1.9,48-3.2,61.6-3.2c6.5,0,35.6,3.2,68.1,3.2c18.1,0,15.6-0.6,31.8-2.6c5.8,2.6,32.4,2.6,35,1.9
		c0.6,0,1.9-0.6,3.2-0.6c1.3,0,1.9,0.6,3.2,0.6c2.6,0.6,28.5,0.6,35-1.9c16.2,1.9,13.6,2.6,31.8,2.6c32.4,0.6,61.6-3.2,68.1-3.2
		c14.3,0,55.1,0.6,61.6,3.2c6.5,1.9-1.3-15.6-1.9-20.1c-1.3-3.9,2.6-16.9,0.6-24.6c-1.3-7.8,5.2-24.6,5.2-30.5
		c0-5.8,0.6-10.4,1.9-14.9s-5.8-24.6-7.1-34.4c-1.9-9.7,4.5-31.8,7.1-44.7c2.6-12.3,1.9-27.2,0-33.7S454,122.5,454,114
		C453.6,105,445.1,101.1,449.7,94z"/>
	<path class="st1" d="M96.4,67.4h77.8c-1.9,8.4-2.6,17.5-2.6,26.6c3.2,34.4,25.9,129.6,25.9,129.6l36.9-148.4l36.9,145.2
		c0,0,22.7-127.7,22.7-136.1c-0.6-6.5-3.9-12.3-9.1-16.2h81.7c-11,10.4-18.8,22.7-23.3,36.9c-7.1,27.9-32.4,169.8-32.4,178.9
		c0.6,9.1,3.9,18.1,9.7,25.3h-75.8c1.9-6.5,2.6-13.6,2.6-20.7c0-13-12.3-74.5-12.3-74.5s-15.6,63.5-15.6,75.2
		c0,7.1,1.9,13.6,5.2,20.1h-79.1c0,0,14.9-10.4,14.3-20.7c-1.9-29.2-42.1-179.5-45.4-191.2C112.6,85.6,106.1,74.5,96.4,67.4z"/>
	<g>
		<path class="st2" d="M125.6,346.8c0-2.6,0-71.3,0-114.1l0,0c0,0,0-15.6,0-38.9c-7.1-29.2-14.9-57.7-18.8-74.5
			c-2.6-11-4.5-17.5-5.2-19.4v-0.6c-1.3-8.4-6.5-15.6-13-20.7c-5.2-3.2-7.1-9.7-5.2-15.6c1.9-5.8,7.1-9.7,13.6-9.7h29.2
			c0-14.9,0-24.6,0-25.9c0-5.8,14.3-19.4,20.1-23.3V0H145H95.7h-0.6h-2.6h-2.6h-0.6H40h-1.9v3.9c5.2,3.9,20.1,17.5,20.1,23.3
			c0,2.6,0,41.5,0,84.3l0,0c0,0,0,228.8,0,235.3c0,5.8-14.3,19.4-20.1,23.3v3.9h1.3h49.3h0.6h2.6h2.6h0.6h49.3h1.3v-3.9
			C139.8,366.2,125.6,352.6,125.6,346.8z"/>
		<g>
			<path class="st2" d="M264.9,346.8c0-1.3,0-10.4,0-23.3h-20.1c-3.9,0-7.1-5.2-9.7-7.8c-2.6,2.6-6.5,7.8-9.7,7.8h-26.6
				c0,13.6,0,22,0,23.3c0,5.8-14.3,19.4-20.1,23.3v3.9h1.3h49.3h0.6h2.6h2.6h0.6H285h1.3v-3.9C279.8,366.2,264.9,352.6,264.9,346.8z
				"/>
			<path class="st2" d="M197.5,27.2c0,2.6,0,41.5,0,84.3l0,0c0,0,0,20.7,0,49.9l22-90.1c1.3-6.5,7.1-10.4,13.6-10.4l0,0
				c6.5,0,11.7,4.5,13.6,10.4l22,90.1c0-52.5-4.5-130.9-4.5-134.2c0-5.8,14.3-19.4,20.1-23.3V0H283h-49.3h-0.5h-2.6H228h-0.6h-49.3
				h-1.3v3.9C183.3,8.4,197.5,22,197.5,27.2z"/>
		</g>
		<path class="st2" d="M404.3,232.7c0,0,0-199,0-205.5c0-5.8,14.3-19.4,20.1-23.3V0h-1.3h-49.3h-0.6h-2.6h-1.9h-0.6h-49.3h-1.3v3.9
			c5.2,3.9,20.1,17.5,20.1,23.3c0,1.3,0,11,0,25.9h29.2c5.8,0,11,3.2,13,9.1c1.9,5.2,0.6,11.7-3.2,15.6
			c-9.1,8.4-15.6,18.8-18.8,30.5c-3.9,15.6-12.3,60.3-19.4,101.1c0,62.9,0,133.5,0,137.4c0,5.8-14.3,19.4-20.1,23.3v3.9h1.3h49.3
			l0,0h2.6h2.6h0.6H424h1.3v-3.9c-5.2-3.9-20.1-17.5-20.1-23.3C404.3,344.2,404.3,275.5,404.3,232.7L404.3,232.7z"/>
	</g>
</g>
</svg>
