<?xml version="1.0" encoding="UTF-8"?>
<svg id="_레이어_1" data-name="레이어 1" xmlns="http://www.w3.org/2000/svg" viewBox="0 0 340.636 260.513">
  <defs>
    <style>
      .cls-1 {
        fill: #fef9fa;
        stroke-width: 0px;
      }
    </style>
  </defs>
  <path class="cls-1" d="M156.872,192.655c-.001-20.805.083-41.61-.079-62.413-.029-3.767.767-5.292,4.893-5.063,10.785.599,21.645-.811,32.393.908,15.376,2.459,25.595,12.294,26.913,27.793,2.202,25.887,2.54,51.894.009,77.775-1.682,17.199-13.922,27.884-31.152,28.468-9.643.327-19.309-.026-28.954.266-3.518.107-4.089-1.273-4.075-4.322.097-21.137.051-42.275.05-63.412ZM174.062,192.634c0,15.803-.022,31.605.033,47.408.006,1.637-.823,4.092,2.056,4.224,15.708.723,27.21-.999,28.168-20.681.939-19.289.793-38.581.146-57.871-.667-19.889-5.954-24.724-25.964-24.503-3.473.038-4.549,1.028-4.512,4.515.163,15.635.071,31.272.073,46.908Z"/>
  <path class="cls-1" d="M304.597,125.264c3.518.394,8.83-1.777,11.842.84,2.979,2.589,2.225,8.079,2.985,12.309,6.942,38.634,13.804,77.282,20.68,115.928,1.059,5.951,1.037,5.955-4.849,5.963-10.913.016-10.813-.003-12.865-10.884-1.009-5.349.314-12.671-3.636-15.494-3.567-2.551-10.257-.759-15.57-.835-3.329-.048-6.708.353-9.976-.096-4.5-.618-5.671,1.469-6.099,5.428-.661,6.117-1.909,12.169-2.716,18.273-.343,2.594-1.297,3.591-4.091,3.683-13.798.452-13.777.546-11.32-13.084,6.965-38.64,14.028-77.263,20.735-115.948.878-5.064,2.758-6.822,7.628-6.134,2.122.3,4.321.05,7.252.05ZM304.195,140.426c-.234.01-.468.019-.702.029-4.092,24.684-8.16,49.372-12.307,74.047-.47,2.795.613,3.476,3.176,3.427,6.15-.116,12.313-.235,18.453.04,3.63.162,4.165-1.189,3.596-4.379-1.84-10.308-3.46-20.655-5.178-30.984-2.339-14.061-4.692-28.12-7.038-42.18Z"/>
  <path class="cls-1" d="M28.272,75.234c1.971-.827,1.614-2.709,1.857-4.205,2.456-15.101,4.941-30.199,7.199-45.33.475-3.182,1.777-3.987,4.846-3.982,10.36.015,10.362-.108,12.632,9.947,2.785,12.336,5.559,24.675,8.359,37.007.353,1.553.208,3.351,2.388,4.715.51-6.746,1.04-13.168,1.472-19.597,1.104-16.439,2.279-32.875,3.15-49.327.182-3.437,1.093-4.67,4.593-4.432,4.308.293,8.656.181,12.979.032,2.761-.095,3.335.87,2.904,3.543-4.906,30.392-9.714,60.799-14.498,91.21-.379,2.408-1.158,3.623-3.947,3.972-16.074,2.012-16.082,2.109-19.026-13.578-1.934-10.304-3.792-20.622-5.709-30.929-.201-1.08.048-2.783-1.401-2.848-1.942-.087-1.438,1.83-1.594,2.982-1.912,14.176-3.852,28.349-5.586,42.547-.392,3.211-1.453,4.528-4.896,4.439-4.307-.111-8.642.393-12.946.825-2.436.244-3.547-.542-4.097-3.006C11.445,74.555,5.855,49.912.217,25.279c-.595-2.599-.063-3.845,2.778-3.489.164.021.333-.002.499.002,5.145.099,11.512-1.618,15.099.796,3.756,2.528,2.38,9.51,3.201,14.54,1.877,11.498,3.431,23.048,5.175,34.568.18,1.191-.254,2.702,1.303,3.538Z"/>
  <path class="cls-1" d="M21.383,192.903c.001-20.824.113-41.648-.092-62.47-.041-4.203,1.212-5.438,5.343-5.246,11.468.532,22.982-.639,34.436.89,10.842,1.447,17.407,7.939,18.584,18.904,1.122,10.458,1.217,20.973.127,31.427-1.415,13.572-8.602,20.132-22.3,20.733-4.656.204-9.35.336-13.985-.029-4.066-.32-5.33.774-5.266,5.07.269,17.821.01,35.649.199,53.472.039,3.639-.764,4.804-4.614,4.755-12.43-.159-12.433.016-12.433-12.532,0-18.325,0-36.649.001-54.974ZM63.073,160.506c0-2.996.157-6.002-.032-8.986-.436-6.925-3.587-10.341-10.497-11.043-3.793-.385-7.651-.082-11.474-.237-2.297-.093-2.759,1.037-2.75,3.036.053,11.653.056,23.307-.002,34.959-.01,2.065.599,3.091,2.827,2.988,4.319-.198,8.655-.113,12.962-.432,4.52-.335,7.16-2.997,8.321-7.368,1.135-4.275.559-8.61.644-12.917Z"/>
  <path class="cls-1" d="M92.894,192.666c0-20.815.087-41.63-.08-62.444-.03-3.805.844-5.147,4.922-5.061,12.983.275,25.976.198,38.962.034,3.208-.04,4.312.817,4.361,4.154.175,11.941.297,11.939-11.531,11.94-5.329,0-10.659.088-15.985-.03-2.543-.056-3.567.836-3.546,3.451.086,10.823.121,21.648-.02,32.47-.039,3.022,1.301,3.613,3.914,3.578,7.492-.101,14.989.093,22.478-.092,3.104-.077,3.884.992,3.917,4.016.131,12.018.241,12.016-11.863,12.017-4.996,0-9.993.099-14.986-.029-2.615-.067-3.46.957-3.444,3.518.085,13.487.092,26.976-.007,40.463-.021,2.823.997,3.786,3.785,3.739,7.658-.128,15.322.095,22.977-.103,3.265-.084,4.265.972,4.308,4.251.154,11.768.274,11.766-11.625,11.766-10.657,0-21.319-.188-31.969.099-3.886.105-4.675-1.185-4.647-4.793.158-20.98.077-41.962.077-62.943Z"/>
  <path class="cls-1" d="M273.046,60.592c0,11.49-.074,22.98.05,34.469.031,2.906-.676,4.044-3.87,4.11-12.692.263-12.689.382-12.69-12.257,0-4.996-.128-9.995.045-14.985.099-2.87-.99-3.735-3.775-3.669-10.99.263-8.813-1.266-9.008,8.879-.118,6.159-.098,12.323.008,18.482.043,2.488-.701,3.414-3.381,3.538-13.074.603-13.07.691-13.07-12.361,0-19.816.101-39.632-.085-59.446-.037-3.944.708-5.525,5.099-5.43,11.403.247,11.407.027,11.408,11.478,0,4.996.127,9.995-.041,14.985-.103,3.067,1.108,4.313,4.097,3.968.329-.038.665,0,.998-.003,8.818-.065,7.627.74,7.695-7.786.05-6.161.121-12.325-.038-18.482-.074-2.878.623-4.061,3.839-4.133,12.721-.284,12.719-.405,12.719,12.165,0,8.825,0,17.651,0,26.476Z"/>
  <path class="cls-1" d="M319.519,99.089c-.499,0-1.017-.087-1.494.014-5.474,1.163-7.609-1.525-7.409-6.595.191-4.84-2.076-6.545-6.656-5.754-.646.112-1.328.015-1.994.015-7.052,0-7.328-.028-8.061,6.902-.465,4.396-2.19,5.665-6.559,5.529-10.474-.325-10.54-.103-8.824-10.079,3.582-20.816,7.325-41.604,10.77-62.442.614-3.714,2.004-4.953,5.729-4.727,5.304.322,10.644.185,15.963.038,2.423-.067,3.53.657,3.962,3.179,4.018,23.439,8.112,46.864,12.304,70.273.538,3.005-.358,3.96-3.243,3.672-1.482-.148-2.992-.026-4.489-.025ZM301.651,39.627c-1.535,10.31-2.959,19.691-4.297,29.083-.173,1.211-.941,3.251.573,3.532,2.721.505,5.649.528,8.388.096,2.097-.33,1.056-2.496.897-3.773-.942-7.566-1.999-15.119-3.115-22.662-.271-1.831-.141-3.885-2.445-6.277Z"/>
  <path class="cls-1" d="M128.412,99.087c-1.332.002-2.682-.138-3.993.03-3.134.4-4.352-.877-4.789-4.029-1.158-8.345-1.338-7.878-9.882-8.477-5.63-.395-7.533,1.888-7.316,6.809.222,5.033-2.26,5.907-6.732,5.771-10.189-.309-10.176-.087-8.397-10.304,3.654-20.991,7.341-41.976,10.856-62.99.472-2.824,1.343-4.04,4.373-3.924,5.654.217,11.326.186,16.982.009,2.692-.084,3.788.863,4.241,3.512,4.016,23.453,8.124,46.891,12.271,70.321.412,2.327-.002,3.5-2.62,3.295-1.655-.13-3.329-.024-4.994-.022ZM111.012,40.753c-.979.359-1.251,1.134-1.369,1.965-1.288,9.036-2.511,18.081-3.879,27.104-.294,1.943.104,2.842,2.164,2.769,1.659-.059,3.334-.131,4.98.026,3.12.297,3.52-1.109,3.069-3.853-1.265-7.699-2.23-15.446-3.415-23.159-.257-1.671.46-3.761-1.551-4.852Z"/>
  <path class="cls-1" d="M177.623,60.225c-.004-5.825-.066-11.651.009-17.474.191-14.798,9.189-22.695,24.331-21.425,13.954,1.17,21.668,11.11,19.676,25.226-.249,1.765-.786,2.797-2.718,2.734-1.496-.049-2.995.008-4.493.009-8.564.004-8.598.006-9.313-8.532-.29-3.461-1.604-5.617-5.502-5.588-3.856.028-5.349,1.98-5.342,5.604.024,13.148.032,26.295-.004,39.443-.01,3.663,1.636,5.629,5.351,5.694,3.823.067,5.362-2.195,5.461-5.655.109-3.825.161-7.66.005-11.481-.107-2.612.85-3.509,3.452-3.409,15.988.619,13.298-3.349,12.879,13.26-.464,18.399-19.776,27.826-35.444,17.788-6.238-3.996-8.148-10.277-8.312-17.222-.149-6.321-.032-12.648-.035-18.972Z"/>
  <path class="cls-1" d="M254.163,193.196c0,20.803-.085,41.607.079,62.409.029,3.69-.947,4.822-4.734,4.794-12.506-.093-12.507.065-12.507-12.299,0-39.11.064-78.22-.092-117.329-.017-4.211.785-5.751,5.392-5.626,11.856.32,11.863.074,11.863,12.134,0,18.64,0,37.279,0,55.919Z"/>
  <path class="cls-1" d="M145.225,68.22c0-8.66-.114-17.321.058-25.977.063-3.183-.843-4.352-4.199-4.373-9.038-.058-9.037-.214-9.034-9.158q.002-6.676,6.526-6.677c10.658,0,21.317.073,31.973-.049,2.719-.031,4.132.633,3.729,3.598-.134.981-.02,1.995-.019,2.995.003,9.074.003,9.272-8.472,9.278-3.587.003-4.037,1.555-4.022,4.515.089,16.986-.102,33.974.139,50.957.063,4.453-.977,6.032-5.725,5.881-10.945-.346-10.953-.088-10.953-11.006,0-6.661,0-13.322,0-19.984Z"/>
</svg>