<?xml version="1.0" encoding="utf-8"?>
<!-- Generator: Adobe Illustrator 28.1.0, SVG Export Plug-In . SVG Version: 6.00 Build 0)  -->
<svg version="1.1" id="레이어_1" xmlns="http://www.w3.org/2000/svg" xmlns:xlink="http://www.w3.org/1999/xlink" x="0px"
	 y="0px" viewBox="0 0 512 512" style="enable-background:new 0 0 512 512;" xml:space="preserve">
<style type="text/css">
	.st0{fill-rule:evenodd;clip-rule:evenodd;fill:#FFFFFF;}
</style>
<g>
	<g>
		<path class="st0" d="M425.8,434.9c-7.4-109.5,23-218.1,86.2-307.8H383.5c-29.7,52.6-46.4,111.5-48.8,171.8
			c-25.6-67.3-33.1-140.2-21.8-211.3H209.2c-38.5,63.7-59,136.7-59.2,211.2c-27.8-80.6-33.9-167-17.6-250.7H6.2
			C-15.3,191.6,19,341.9,109,464h127.2c-11.6-57.4-10.9-116.7,2-173.8c10.5,51.7,31,100.8,60.3,144.7H425.8L425.8,434.9L425.8,434.9
			z"/>
	</g>
</g>
</svg>
