<?xml version="1.0" encoding="utf-8"?>
<!-- Generator: Adobe Illustrator 28.0.0, SVG Export Plug-In . SVG Version: 6.00 Build 0)  -->
<svg version="1.1" id="_레이어_1" xmlns="http://www.w3.org/2000/svg" xmlns:xlink="http://www.w3.org/1999/xlink" x="0px"
	 y="0px" viewBox="0 0 800 752" style="enable-background:new 0 0 800 752;" xml:space="preserve">
<style type="text/css">
	.st0{fill:#80B06A;}
	.st1{fill:#B2CFA5;}
	.st2{fill:#202C1B;}
</style>
<path class="st0" d="M795.9,645.9c-2,9-7.5,15.9-14.3,21.6c-10.2,8.6-21.9,12.4-35.5,12.4c-231.7-0.1-463.5-0.1-695.2-0.1
	c-9.3,0-17.6-2.8-25.3-7.7c2-1.1,4,0.4,6.2-0.3c-4.5-1.8-7.3-5.9-11.5-8c-3.8-5.8-9.5-10.1-12.7-16.3c-0.6-1.1-1.7-0.1-2.4,0.7
	c-2.6-5.2-2.2-11.2-5-16.3V478c2.6-4,1.9-8.9,3.6-13.2c5.1-12.7,13.1-22.3,25.4-29.3c7.5-4.3,15.4-5.6,23.1-8.1
	c1.8-0.6,1.8-1.6,1.8-2.9c0-4-0.1-8-0.1-12c0.5-24.2,3.9-48,9-71.7c3.3-15.2,8-30,13.2-44.7c1.2-3.5,3.1-6.8,4.7-10.2
	c2.8,1.8,3.8,0,4.7-2.2c1.6-4.2,2.6-8.7,5-12.4c7.4-11.6,12.4-24.5,20.1-35.9c10.2-15.1,20.5-30,32.3-44.1c4-4.8,9.5-8.3,12.1-14.3
	c0.8,0,1.6-0.2,2-1c0.3-0.3,0.7-0.7,1-1c0.3-0.3,0.7-0.7,1-1c0.3-0.3,0.7-0.7,1-1c0.4-0.3,1.3-0.5,0.4-1.2c-0.1,0.4-0.2,0.8-0.4,1.2
	c-0.3,0.3-0.7,0.7-1,1c-0.3,0.3-0.7,0.7-1,1c-0.3,0.3-0.7,0.7-1,1c-0.8,0-1.5,0.2-2,1c-1.1,0-2.1-0.1-3.2-0.1
	c4.1-5.2,8.6-10.1,14-14.1c1.4,2.6-3.1,3.2-1.7,6.5c6.7-7.4,14.2-13.2,21.3-19.4c1.8-1.6,4.1-3.1,3.5-6.1c1.4-2.4,4.1-3.2,6.1-4.9
	c1.2,0.3,2.4,1.7,3.6,0.3c0.8-1,0-1.8-0.9-2.3c1.9-2.7,5.1-3.5,7.6-5.4c18.5-14.1,39-24.6,60.1-34.2c7.9-3.6,15.9-6.8,24-9.5
	c22.8-7.4,46-13.6,69.9-16.4c6.1-0.7,12.5-1.3,18.8-0.7c3.2,0.3,6.8-0.9,10-1.6c10.6-2.3,21.1-0.6,31.6,0.3c6.7,0.6,13.5,1,20.2,1.5
	c2.1,0.2,3.7-1.2,5.6-1.6c14.3-3.1,28.5-0.5,42.6,1.1c23.1,2.5,45,9.1,65.1,20.7c14.1,8.1,27.2,18,36.9,31.1
	c7.2,9.8,17.8,14.8,26.9,21.8c9.9,7.7,19.5,15.6,27.8,24.9c3.5,4,8,6.8,11.3,10.9c1,1.3,2.6,2,2.7,3.9c-1.1,0.4-2.4-1.3-3.2-0.3
	c-1,1.3,0.6,2,1.3,2.8c4.7,5.5,9.7,10.8,14,16.6c6.5,8.9,14,17.1,19.6,26.7c0.9,1.5,2.8,4,3.7-0.3c7.9,13.1,15.8,26.2,21.9,40.2
	c2.8,6.5,6.6,12.5,9,19.2c4,11.4,7.9,22.7,11.4,34.3c4.5,15.2,7.3,30.7,10,46.2c1.7,9.4,0,19.2,2.6,28.6c2.3,8.1,0.4,16.4,0.8,24.6
	c0.2,3,0.3,4.9,4.1,6c6.3,1.7,13.1,2.6,18.8,6.4c-1.1,0.3-2.7-0.3-3.2,0.9c-0.6,1.6,1,2.3,2.1,2.9c6.4,3.3,10.7,8.9,15.3,14.1
	c2.6,2.9,6.5,5.6,6,10.5c-0.3,2.7,0.6,5.1,1.5,8.4c0.5-2.2,0.3-4,2.1-5c0.6,1.9,0.7,4.2,3.3,4.3v169
	C795.3,639.8,797.1,643.9,795.9,645.9L795.9,645.9z M400.9,657.3L400.9,657.3c115.8,0,231.6,0,347.3,0c4.3,0,8.2-0.6,12.3-2.7
	c10.8-5.7,16.5-14.7,16.6-26.3c0.3-49.6,0.1-99.3,0.2-148.9c0-5.8-2.2-10.8-5.5-15.1c-6.8-8.8-15.9-13.6-27.4-13.2
	c-5,0.2-10-0.2-15,0.2c-3.9,0.3-4.9-1.1-4.5-4.8c2.7-26.1,1.7-52.1-2-78.1c-2.2-15.1-5.7-30.1-10-44.6c-2.8-9.5-6.5-19.2-10.2-28.6
	c-5.2-13.2-11.2-25.9-18.2-38.1c-21.8-38.1-50.1-70.9-84.9-97.8c-7-5.4-14.8-9.9-21-16c-7.5-7.5-14.4-15.7-22.6-22.5
	c-12.6-10.4-27.4-16.8-42.6-22c-9.3-3.2-19.1-4.9-29.1-5.7c-9.1-0.6-18.1-1.3-27.3-1.3c-10.5,0-20.7,3.5-31.3,1.4
	c-3.6-0.7-7.3-0.9-10.9-1c-30.5-0.8-60.6,1.6-90.4,9.4c-11,2.9-22,6-32.7,9.6c-18.4,6.2-35.8,14.7-52.5,24.5
	c-38,22.4-70.5,51.1-97,86.5c-14.2,19-26.5,39.1-36.1,60.8c-4.1,9.2-8.7,18.3-11.2,28c-3,11.6-7.4,22.8-9.6,34.8
	c-3.1,16.7-6.3,33.3-7.2,50.2c-0.9,16.8-1.2,33.6,0.9,50.3c0.5,3.7-0.5,5.2-4.4,5c-5.8-0.3-11.7-0.1-17.5-0.2
	c-4.5-0.1-8.7,0.7-13.1,2.2c-12.2,4.1-20.3,16.3-20.2,28.9c0.2,48.3,0.4,96.6-0.1,144.9c-0.2,15.3,14.4,30.5,30.3,30.4
	C169.7,657.1,285.3,657.2,400.9,657.3L400.9,657.3z"/>
<path class="st1" d="M799.9,471c-2.7-0.1-2.8-2.4-3.3-4.3c-1.7,1-1.6,2.8-2.1,5c-0.9-3.3-1.7-5.8-1.5-8.4c0.5-4.9-3.4-7.5-6-10.5
	c-4.6-5.2-8.9-10.8-15.3-14.1c-1.1-0.6-2.7-1.3-2.1-2.9c0.5-1.2,2.1-0.5,3.2-0.9c2.8,0.7,3.6,3.7,6,4.9c0.1,0.7,0.4,1.1,1.2,1l0,0
	c0.3,1.7,1.1,2.6,3,2l0,0c-0.1,0.8,0.2,1.1,1,1l0,0c-0.2,0.8,0.1,1.2,1,1l0,0c-0.2,0.8,0.1,1.2,1,1l0,0c-0.2,0.9,0.1,1.2,1,1l0,0
	c-0.1,0.8,0.2,1.1,1,1l0,0c-0.4,1-0.2,1.8,1,2l0,0c0,0.9,0.5,1.1,1.2,1c1.2,1.7,2.4,3.4,3.6,5.1c-0.2,0.2-0.4,0.4-0.6,0.6l0.8,0.4
	l0,0c-0.1,0.9,0,1.7,1,2.1l0-0.1c0,1.7,0,3.4,0,5.1l0.8,0c0.2-0.7,0.4-1.5,0.5-2.2c1,1,2.2,1.6,3.7,1.2L799.9,471L799.9,471z"/>
<path class="st1" d="M795.9,645.9c1.2-2.1-0.5-6.1,4-6v6C798.5,645.9,797.2,645.9,795.9,645.9z"/>
<path class="st1" d="M155.1,177c-2.6,5.9-8.1,9.5-12.1,14.3c-11.7,14-22.1,28.9-32.3,44.1c-7.7,11.4-12.7,24.3-20.1,35.9
	c-2.4,3.7-3.3,8.3-5,12.4c-0.9,2.2-2,4-4.7,2.2c0.1-0.7,0-1.5,0.8-1.9c1.2-0.3,1.4-1.2,1.3-2.2c-0.1-0.3,0-0.6,0.1-0.8
	c0.3-0.4,0.6-0.8,0.9-1.2c-0.1-0.3,0-0.5,0.1-0.8c3.2-1,2.6-3.8,2.9-6.1c5-12,10.8-23.5,17.7-34.5c5-8.1,11-15.6,15.3-24.1
	c1-1.9,3.3-2.3,4-4.2c1-0.4,1.4-1,0.9-2l0,0c0.8,0.1,1.1-0.2,1-1l0,0c0.8,0.1,1.1-0.2,1-1l0,0c0.8,0.1,1.1-0.3,0.9-1c0,0,0,0,0,0
	c1.3-0.2,1.4-0.9,1.1-2l0,0c0.7,0.1,1.1-0.3,1-1l0,0c0.7,0,1-0.3,1-1l0,0c0.8-0.1,1-0.6,1-1.2c4.9-6.1,9.1-12.8,15.2-17.8
	c1.3,0,2.2-0.3,1.7-1.9c0,0,0,0,0,0c2.2,0.2,3.3-0.7,3-3l-0.1,0C153,177,154,177,155.1,177L155.1,177L155.1,177z"/>
<path class="st1" d="M694.1,229.5c-0.9,4.3-2.8,1.8-3.7,0.3c-5.5-9.6-13.1-17.8-19.6-26.7c-4.2-5.9-9.3-11.1-14-16.6
	c-0.7-0.8-2.3-1.5-1.3-2.8c0.8-1,2.1,0.7,3.2,0.3c11.8,12,21.5,25.7,31.3,39.3c0.1,0.4,0.2,0.9,0.3,1.3c0.2-0.2,0.4-0.4,0.6-0.6
	C692,225.8,693,227.7,694.1,229.5L694.1,229.5z"/>
<path class="st1" d="M189,143.9c0.6,3-1.7,4.5-3.5,6.1c-7.2,6.2-14.7,12-21.3,19.4c-1.4-3.3,3.1-3.9,1.7-6.5c0,0,0.1,0.1,0.1,0.1
	c0.8,0.2,1.1-0.1,1-1l0,0c0.8,0.2,1.1-0.2,1-1l0,0c0.8,0.1,1.1-0.2,1-1l0,0c0.8,0.1,1.1-0.2,1-1l0,0c0.8,0.1,1.1-0.2,1-1l0,0
	c0.8,0.1,1.1-0.2,1-1l0,0c0.8,0.1,1.1-0.2,1-1l0,0c1.8,0.3,2.9-0.5,3-2.4c2.6-2.4,6.1-3.6,8.1-6.7c1.1-0.2,2.8,0.3,1.9-1.9
	C186.7,143.8,187.9,144,189,143.9L189,143.9z"/>
<path class="st1" d="M197.6,137c1,0.5,1.7,1.3,0.9,2.3c-1.2,1.5-2.4,0.1-3.6-0.3C195.2,137.4,196.1,136.8,197.6,137L197.6,137z"/>
<path class="st0" d="M87.1,272.8c-0.3,2.4,0.4,5.2-2.9,6.1C84.8,276.7,84.7,274.2,87.1,272.8z"/>
<path class="st0" d="M152,177c0.3,2.3-0.8,3.2-3,3C149,178,150,176.9,152,177z"/>
<path class="st0" d="M796.2,461.8c-0.2,0.7-0.4,1.5-0.5,2.2l-0.8,0c0-1.7,0-3.4,0-5.1C796.2,459.5,795.8,460.8,796.2,461.8
	L796.2,461.8z"/>
<path class="st0" d="M782.9,442.9c-1.9,0.6-2.7-0.3-3-2C781.9,440.2,782.3,441.7,782.9,442.9z"/>
<path class="st0" d="M176,153.6c-0.2,1.9-1.2,2.6-3,2.4C173.5,154.6,174.7,153.9,176,153.6z"/>
<path class="st0" d="M186.1,145.1c0.9,2.2-0.8,1.7-1.9,1.9C184.8,146.4,185.5,145.7,186.1,145.1z"/>
<path class="st0" d="M149,180c0.5,1.6-0.4,1.9-1.7,1.9C147.1,180.6,147.6,179.9,149,180z"/>
<path class="st0" d="M129,203c0.4,1,0.2,1.8-1.1,2C127.1,203.7,128.2,203.4,129,203z"/>
<path class="st0" d="M125,208c0.5,1,0.1,1.7-0.9,2C124,209.2,123.6,208.2,125,208z"/>
<path class="st0" d="M691,224c-0.2,0.2-0.4,0.4-0.6,0.6c-0.1-0.4-0.2-0.9-0.3-1.3C690.4,223.5,690.7,223.8,691,224L691,224z"/>
<path class="st0" d="M83.1,281.8c0.1,1.1-0.1,1.9-1.3,2.2C82.2,283.3,82.6,282.5,83.1,281.8z"/>
<path class="st0" d="M789,449.9c-1.2-0.2-1.4-0.9-1-2C788.9,448.3,789.6,448.8,789,449.9z"/>
<path class="st0" d="M794.9,459c-1.1-0.3-1.2-1.1-1-2.1C794.9,457.3,795,458.1,794.9,459z"/>
<path class="st0" d="M168,161c0.1,0.8-0.2,1.1-1,1C167,161.3,167.3,161,168,161z"/>
<path class="st0" d="M169,160c0.1,0.8-0.2,1.1-1,1C168,160.3,168.4,160,169,160z"/>
<path class="st0" d="M170,159c0.1,0.8-0.2,1.1-1,1C169,159.3,169.3,159,170,159z"/>
<path class="st0" d="M171,158c0.1,0.8-0.2,1.1-1,1C170,158.3,170.3,158,171,158z"/>
<path class="st0" d="M172,157c0.1,0.8-0.2,1.1-1,1C171,157.3,171.4,157,172,157z"/>
<path class="st0" d="M173,156c0.1,0.8-0.3,1.1-1,1C172,156.3,172.4,156,173,156z"/>
<path class="st0" d="M127,206c0.1,0.8-0.2,1.1-1,1C126,206.3,126.4,206,127,206z"/>
<path class="st0" d="M128,205c0.1,0.7-0.2,1.1-0.9,1C127.1,205.4,126.9,204.6,128,205z"/>
<path class="st0" d="M167,162c0.2,0.8-0.2,1.1-1,1C165.9,162.2,166.3,162,167,162z"/>
<path class="st0" d="M130,202c0.1,0.7-0.3,1.1-1,1C129.1,202.4,129.4,202,130,202z"/>
<path class="st0" d="M131,201c0,0.7-0.3,1.1-1,1C130.1,201.4,130.3,200.9,131,201z"/>
<path class="st0" d="M132.1,199.8c0,0.7-0.3,1.2-1,1.2C131,200.2,131.5,200,132.1,199.8z"/>
<path class="st0" d="M779.9,440.9c-0.8,0.1-1.1-0.3-1.2-1C779.3,440,780.3,439.7,779.9,440.9z"/>
<path class="st0" d="M783.9,443.9c-0.8,0.1-1.1-0.2-1-1C783.6,442.9,784,443.2,783.9,443.9z"/>
<path class="st0" d="M784.9,444.9c-0.8,0.2-1.1-0.1-1-1C784.7,443.9,785,444.1,784.9,444.9z"/>
<path class="st0" d="M785.9,445.9c-0.8,0.2-1.2-0.1-1-1C785.7,444.8,786,445.2,785.9,445.9z"/>
<path class="st0" d="M786.9,446.9c-0.8,0.2-1.2-0.1-1-1C786.7,445.9,787,446.2,786.9,446.9z"/>
<path class="st0" d="M787.9,447.9c-0.8,0.1-1.1-0.2-1-1C787.6,446.9,787.9,447.3,787.9,447.9z"/>
<path class="st0" d="M84.1,279.7c-0.3,0.4-0.6,0.8-0.9,1.2C83.5,280.5,83.8,280.1,84.1,279.7z"/>
<path class="st0" d="M790.2,450.9c-0.7,0.1-1.3-0.2-1.2-1C790,449.5,790,450.3,790.2,450.9z"/>
<path class="st0" d="M793.9,457l-0.8-0.4c0.2-0.2,0.4-0.4,0.6-0.6C794,456.3,794,456.6,793.9,457L793.9,457z"/>
<path class="st0" d="M126,207c0.1,0.8-0.2,1.1-1,1C125.1,207.3,125.4,207,126,207z"/>
<path class="st1" d="M5.1,648.3c0.7-0.8,1.8-1.8,2.4-0.7c3.2,6.2,8.9,10.5,12.7,16.3L20,664c-1.3,0.1-2.6-0.8-3.9,0c0,0,0,0,0,0
	c0.5-1.1,0.2-1.8-1-1.9c0,0,0,0,0,0c0.1-0.7-0.2-1.1-0.9-1c0,0,0,0,0,0c-0.1-0.9-0.7-1-1.4-1C9.5,656.4,6.8,652.7,5.1,648.3
	L5.1,648.3z"/>
<path class="st1" d="M20.2,663.9c4.2,2,7,6.1,11.5,8c-2.2,0.7-4.2-0.9-6.2,0.3c0,0-0.2,0-0.2,0c-0.1-0.7-0.5-1.1-1.2-1.1l0,0
	c0.1-0.7-0.3-1.1-1-1v0c0.1-0.8-0.3-1.1-1-1l0,0c0.1-0.7-0.3-1-1-1l0,0c0-0.7-0.3-1-1-1l0,0c0-1,0-2,0-3L20.2,663.9L20.2,663.9z"/>
<path class="st0" d="M20,664c0,1,0,2,0,3c-2.3,0.3-3-1.5-3.9-3C17.4,663.3,18.7,664.1,20,664z"/>
<path class="st0" d="M15,662c1.3,0.2,1.6,0.8,1,1.9C15.2,663.6,14.1,663.3,15,662z"/>
<path class="st0" d="M12.6,660c0.7,0,1.3,0.1,1.4,1C13.1,661.3,13,660.5,12.6,660z"/>
<path class="st0" d="M14.1,661c0.7-0.1,1.1,0.3,0.9,1C13.9,662.4,13.9,661.8,14.1,661z"/>
<path class="st0" d="M20,667c0.7-0.1,1,0.3,1,1C20.3,668.1,19.7,668.1,20,667z"/>
<path class="st0" d="M21.1,668c0.7,0,1.1,0.3,1,1C21.4,669,20.9,668.8,21.1,668z"/>
<path class="st0" d="M22.1,669c0.7-0.1,1.1,0.2,1,1C22.4,670,22,669.7,22.1,669z"/>
<path class="st0" d="M23.1,670c0.8-0.1,1.1,0.3,1,1C23.5,670.9,23.1,670.6,23.1,670z"/>
<path class="st0" d="M24.1,671c0.8,0,1.1,0.4,1.2,1.1C24.6,672,24.2,671.7,24.1,671z"/>
<path class="st2" d="M400.9,657.3c-115.6,0-231.2-0.1-346.8,0.2c-15.9,0-30.5-15.2-30.3-30.4c0.5-48.3,0.4-96.6,0.1-144.9
	c-0.1-12.6,8-24.8,20.2-28.9c4.4-1.5,8.6-2.3,13.1-2.2c5.8,0.1,11.7-0.1,17.5,0.2c3.9,0.2,4.9-1.3,4.4-5
	c-2.2-16.7-1.9-33.5-0.9-50.3c0.9-17,4.1-33.5,7.2-50.2c2.2-12,6.6-23.1,9.6-34.8c2.5-9.7,7.1-18.8,11.2-28
	c9.7-21.7,22-41.8,36.1-60.8c26.4-35.4,58.9-64.1,97-86.5c16.7-9.8,34.1-18.3,52.5-24.5c10.7-3.6,21.7-6.7,32.7-9.6
	c29.7-7.8,59.8-10.2,90.4-9.4c3.6,0.1,7.3,0.3,10.9,1c10.5,2,20.8-1.4,31.3-1.4c9.2,0,18.2,0.7,27.3,1.3c10,0.7,19.8,2.5,29.1,5.7
	c15.2,5.2,30,11.6,42.6,22c8.3,6.8,15.1,14.9,22.6,22.5c6.1,6.2,14,10.6,21,16c34.8,26.9,63,59.7,84.9,97.8
	c7,12.2,13,24.9,18.2,38.1c3.7,9.4,7.4,19.1,10.2,28.6c4.3,14.5,7.8,29.4,10,44.6c3.7,26,4.8,52,2,78.1c-0.4,3.7,0.5,5.1,4.5,4.8
	c5-0.4,10,0,15-0.2c11.5-0.4,20.6,4.4,27.4,13.2c3.3,4.2,5.5,9.2,5.5,15.1c-0.1,49.6,0.2,99.3-0.2,148.9
	c-0.1,11.6-5.7,20.6-16.6,26.3c-4.1,2.2-8,2.7-12.3,2.7C632.5,657.2,516.7,657.2,400.9,657.3L400.9,657.3L400.9,657.3z M400.8,469.2
	c-115.4,0-230.9,0-346.3,0c-8.6,0-13.1,4-13.1,12c-0.1,49.1,0,98.3,0,147.4c0,3,1.1,5.2,3.3,7.5c4.6,4.7,10.3,3.6,15.8,3.6
	c102.3,0,204.5,0,306.8,0.1c126.3,0,252.5,0.1,378.8,0.1c8.9,0,14.1-5.6,14-13.7c-0.1-48-0.1-95.9-0.1-143.9c0-8.1-4.9-13-13-13
	C631.6,469.2,516.2,469.2,400.8,469.2L400.8,469.2z M165.9,451.1C165.9,451.1,165.9,451.1,165.9,451.1c22,0,44,0,66,0
	c2.6,0,5.3,0.7,5.6-3.6c1.2-16.3,5.8-31.8,11.6-47.1c10.4-27.7,26.4-51.4,48.3-71.2c2.3-2,3.2-3.8,1.7-6.8
	c-5.8-11.3-8.7-23.6-10.9-36c-2-11.2-1.4-22.6-2.2-33.8c-1.8-25.1,1.3-49.2,11.9-72.3c8.7-18.9,19.6-35.9,36.4-48.8
	c8.9-6.8,18.2-12.8,28.2-17.6c1.3-0.6,3.6-0.5,3.3-2.3c-0.3-2.2-2.7-1.6-4.2-1.3c-4.7,0.9-9.4,2.7-14.1,3c-8.7,0.6-17,3.4-25.2,5.7
	c-13.5,3.7-26.7,8.3-39.7,13.9c-17.9,7.7-34.9,16.9-51,27.8c-12.4,8.4-24.3,17.4-35.5,27.4c-27.9,24.7-49.9,53.9-67.3,86.7
	c-10.4,19.5-18.1,40.1-24.1,61.5c-4.4,15.6-7.2,31.4-9.3,47.3c-2.7,20.5-1.5,41.2-0.7,61.9c0.2,4.8,1.8,5.8,6.2,5.8
	C122.6,451,144.3,451.1,165.9,451.1L165.9,451.1z M596.7,178.7c-0.7,1.8,0.2,2.9,0.5,4.2c1.8,7.4,5,14.5,5.6,22.2
	c0.5,5.6,1,11.2,2.3,16.8c0.9,4-2.5,9-6.6,10.8c-4,1.7-7.1,0-9.8-2.8c-0.9-1-1.8-1.9-2.8-2.9c-2-2.1-3.3-2.1-4.7,0.8
	c-3.7,7.8-9.1,9-16,4.1c-7.8-5.6-15.8-11.1-23.7-16.7c-1-0.7-2-1.5-3.1-0.7c-1.1,0.8-0.8,2.2-0.3,3.2c0.8,1.8,2,3.5,2.6,5.4
	c9.5,26.3,11,52.8,2.9,79.7c-0.7,2.2-0.9,4.2,0.2,6.2c1.9,3.5,1,6.6-0.9,9.9c-3.1,5.5-6.3,10.9-8.8,16.6
	c-7.1,15.8-17.3,29.3-31.9,38.5c-9.4,5.9-13.7,14.1-16,24.2c-3.5,15.7-3.6,31.7-3.5,47.7c0,4.1,1.2,5.3,5.3,5.3
	c70-0.1,139.9-0.1,209.9-0.1c10.5,0,10.5,0,11.2-10.5c0-0.7,0.2-1.3,0.2-2c0.2-21.3,1.3-42.5-2.4-63.7c-1.9-11.3-3.7-22.6-6.4-33.7
	c-3.4-14.1-8.4-27.7-13.7-41.2c-6.2-15.9-14.3-30.8-23.2-45.2c-17.1-27.7-38.6-51.7-62.6-73.5C599.9,180,598.7,178.8,596.7,178.7
	L596.7,178.7z M425.4,386.6c15-0.1,33.7-3.3,51.8-11.7c15.8-7.3,28-18,38.2-31.7c5.2-7,6.9-15.7,12.2-22.6c1.4-1.8-0.8-2.5-2.3-2.8
	c-5.8-1.4-11.6-3-17.5-3.9c-19.9-3-39.9-2.9-59.7-0.6c-12.4,1.4-24.3,5.2-35.8,10.5c-12.5,5.9-23.4,13.9-33.1,23.7
	c-2.4,2.4-5.4,4.4-8.8,1.8c-2.5-1.9-1.8-6.4,1.2-9.7c3.6-4.1,7.6-7.9,11.9-11.3c13.4-10.7,28.5-18.3,45.1-22.8
	c13.1-3.5,26.5-4.6,40-4.8c16.6-0.2,33.3-0.7,49.6,3.9c11.1,3.2,12,2.2,14.2-9.9c6.2-33.5,0.4-64.5-18.9-92.8c-2-3-4-6.3-8.1-7
	c-8.2-1.4-16-3.9-24.2-5.4c-18.5-3.3-36.7-3-55.1-0.6c-27.5,3.6-54.1,9.9-78.2,24.6c-6.8,4.2-13.2,8.9-19.1,14.2
	c-9.2,8.1-15.9,18.2-22.2,28.5c-4,6.4-6.1,13.3-5.6,21.3c1.2,19.2,7.1,36.7,16.9,53c14.6,24.5,36.1,40.9,62.7,50.6
	C393.4,385.8,407,387,425.4,386.6L425.4,386.6z M320.9,450.2c-0.5-1.7-0.7-2.9-1.1-3.9c-4.2-9.1-2.7-18.9-3.1-28.5
	c-0.1-2.7,0.9-5,4.3-4.9c3.3,0.1,4.1,2.3,4,5.1c-0.1,1.8-0.1,3.7-0.2,5.5c0,7.8,0.1,15.6,3.1,23.1c1.1,2.8,2.5,3.8,5.5,3.8
	c22.5-0.1,45-0.2,67.4-0.1c3.5,0,4.1-1.4,4-4.4c-0.3-5.5-0.4-11-0.2-16.5c0.1-2.6-0.7-6.4,3.4-6.6c4.3-0.2,5,3,4.9,6.5
	c-0.1,5.7-0.1,11.3-0.3,17c-0.1,2.9,0.8,4.1,3.9,4c16-0.2,32-0.2,48,0c4.1,0,4.9-1.7,4.3-5.1c-0.8-4.1-0.8-8.3-0.5-12.4
	c1.1-14.1,1.9-28.2,6.1-41.9c0.5-1.7,1.8-3.7,0-4.9c-1.6-1-3.9-0.7-5.7,0.5c-3.1,2-6.5,3.4-9.9,4.1c-10.9,2.1-21.9,3.4-33,4
	c-23,1.2-45.1-2.6-65.4-13.6c-18.9-10.2-35.2-23.9-46.6-42.6c-1.4-2.4-2.5-2.4-4.5-0.5c-16.2,15.5-30.3,32.5-40.5,52.6
	c-8.9,17.7-14,36.5-17.7,55.8c-0.7,3.4,0.8,3.9,3.7,3.8c9.2-0.2,18.3-0.1,27.5-0.2C295,450.2,307.6,450.2,320.9,450.2L320.9,450.2z"
	/>
<path class="st1" d="M160.1,173.1c0.1-0.4,0.2-0.8,0.4-1.2C161.3,172.5,160.4,172.7,160.1,173.1L160.1,173.1L160.1,173.1z"/>
<path class="st1" d="M155.1,177.1c0.5-0.8,1.2-1,2-1l0,0C156.6,176.9,155.9,177.1,155.1,177.1L155.1,177.1L155.1,177.1z"/>
<path class="st1" d="M159.1,174.1c0.3-0.3,0.7-0.7,1-1l0,0C159.7,173.4,159.4,173.7,159.1,174.1L159.1,174.1L159.1,174.1z"/>
<path class="st1" d="M157.1,176.1c0.3-0.3,0.7-0.7,1-1l0,0C157.7,175.4,157.4,175.7,157.1,176.1L157.1,176.1z"/>
<path class="st1" d="M159.1,174c-0.3,0.3-0.7,0.7-1,1l0,0C158.4,174.7,158.8,174.4,159.1,174L159.1,174z"/>
<path class="st1" d="M400.8,469.2c115.4,0,230.9,0,346.3,0c8.1,0,13,4.9,13,13c0,48-0.1,95.9,0.1,143.9c0,8.2-5.1,13.7-14,13.7
	c-126.3,0-252.5,0-378.8-0.1c-102.3,0-204.5,0-306.8-0.1c-5.5,0-11.2,1.1-15.8-3.6c-2.2-2.2-3.3-4.5-3.3-7.5c0-49.1,0-98.3,0-147.4
	c0-8.1,4.5-12,13.1-12C169.9,469.2,285.3,469.2,400.8,469.2L400.8,469.2z M418.4,599.6c-0.1-0.1-0.2-0.2-0.3-0.2
	c-0.1,0-0.3,0.1-0.4,0.1C417.9,599.5,418.1,599.5,418.4,599.6c0.2,3.7-1.3,7-2.9,10.2c-1.5,0.7-1.6,1.9-1,3.2c0.3,0.7,1,0.7,1.5,0.1
	c11,0,22,0,33,0.1c2.6,0,4.6-0.5,5.5-3.2c2.3-2.2,3.9-4.7,2.6-8.1c1.6-9.2,1.6-9.1,10.6-9.1c5.5,0.1,11,0.1,16.5,0
	c8-0.1,9.5,1.2,10.2,9.2c0.1,1-0.1,2,0,3c0.5,5.2,4,8.2,9.2,8.2c8.8,0,17.6,0,26.5,0c6.1,0,6.5-0.5,4.5-6.2
	c-6.1-17.9-12.2-35.9-18.3-53.8c-2.7-7.8-5.1-15.8-7.8-23.6c-3.2-9.5-6.9-18.9-9.8-28.6c-1.3-4.5-3.6-6.4-8.1-6.3
	c-9.8,0.1-19.6,0.2-29.5,0c-4.6-0.1-6.9,1.7-8.2,6.1c-2.5,8.5-5.6,16.9-8.4,25.4c-2.8,0.2-3,2.4-3,4.3c0.2,4.8-4.3,8.4-3.4,13.4
	l-0.4,1.9c-1.2,0.6-1.4,1.5-0.7,2.6c-0.3,0.5-0.5,1-0.8,1.6c-2.5,0.9-3.4,2.4-2.1,4.9c-0.1,0.6-0.2,1.3-0.3,1.9c-2,2-3.9,4.5-4.1,7
	c-0.7,7-4.4,12.9-6.3,19.4c-1.2,4-2.1,8-2.6,12.2c-0.1,0.3-0.2,0.5-0.4,0.7c-2.4,0.1-2.2,1.5-1.5,3.1L418.4,599.6L418.4,599.6z
	 M585.5,576.1c5.3,10.7,10.8,21.4,15.7,32.2c2,4.4,4.8,5.2,9,5.1c10.5-0.2,21,0,31.5,0c1.7,0,4.1,1,5-1.1c0.8-2-0.8-3.7-1.9-5.4
	c-3.7-5.7-7.5-11.3-11-17.1c-7.3-12.2-14.3-24.7-22.5-36.3c-1.3-1.9-0.6-3,0.3-4.4c10.7-16.9,21.4-33.9,32.2-50.8
	c2-3.1,0.9-3.7-2.2-3.6c-11.3,0.1-22.7,0.1-34,0c-2.8,0-4.7,0.7-6.1,3.3c-5.5,10.3-11.2,20.5-16.9,30.8c-0.5,0.9-0.1,2.7-1.9,2.4
	c-1.7-0.2-1.7-1.8-1.8-3.1c0-1.2-0.1-2.4,0-3.5c1.4-8.3,0.2-16.6,0.8-24.9c0.2-3.5-1.1-5.1-4.9-5c-8.3,0.2-16.7,0.3-25,0
	c-4.4-0.2-5.9,1.2-5.8,5.6c0.2,11.8,0.1,23.7,0.2,35.5c0,23.8,0,47.6,0,71.5c0,3.8,0.6,6.3,5.4,6.1c8.1-0.3,16.3-0.3,24.5,0
	c4.5,0.2,5.7-1.6,5.6-5.8c-0.3-10.8-0.3-21.6-0.4-32.4C583.2,573.5,584.2,575.2,585.5,576.1L585.5,576.1z M202.7,528.5
	c-0.3,1.2-0.5,2.3-0.8,3.5c-0.4,0.2-0.8,0.4-1.2,0.6c0.3,0.1,0.6,0.3,0.9,0.4c-0.4,0.8-0.8,1.7-1.1,2.5c-0.2,0-0.3,0.1-0.5,0.1
	c0.2,0,0.3-0.1,0.5-0.1c0,0.5,0.1,1,0.1,1.5c-1.6,0.8-3.2,1.6-5.1,0.9c-2.2-11.9-4.6-23.8-6.7-35.8c-0.7-4.2-2.1-7.4-7.1-7.3
	c-11.5,0.1-23,0.2-34.5,0.1c-3.9,0-5,1.9-3.7,4.9c4.7,10.6,5.9,22.1,9.6,32.9c2,5.9,3.5,12.1,5,18.2c1.7,6.7,3.4,13.5,5.3,20.2
	c3.3,12,7.1,23.8,10,35.9c1.1,4.6,3.1,6.5,7.7,6.4c8-0.2,16-0.2,24,0c3.8,0.1,6-1.3,7-4.9c2-7.4,4-14.7,5.9-22.2
	c2.7-10.6,5.3-21.3,7.9-31.9c0.2-1,0.4-2.2,1.6-2.3c1.2-0.1,1.7,1,1.9,2c0.5,1.9,1.1,3.9,1.2,5.9c0.5,7,3.1,13.5,4.6,20.3
	c1.9,8.7,5.1,17.1,6.6,26c0.9,5.3,2.9,7,8.4,7c7.3,0,14.7-0.1,22,0c6.7,0,7.9-0.8,9.7-7.4c0.5-1.8,0.8-3.6,1.3-5.3
	c2.7-10.1,5.3-20.2,8.1-30.3c3.2-11.3,7-22.5,9.7-33.9c3-12.2,6.8-24.2,10.1-36.4c1-3.6,0.4-5.1-3.3-5.1c-11.7-0.1-23.3-0.1-35-0.1
	c-3.3,0-5.2,1.5-5.8,4.9c-2.2,12.6-4.5,25.2-6.8,37.8c-0.5,2.4-1.1,4.9-1.8,7.2c-0.1,0.5-0.9,1-1.5,1c-0.9,0.1-1-0.8-1.1-1.4
	c-3.4-14-6.9-28-10-42.1c-1.3-5.6-3-7.6-8.6-7.6c-6.7,0-13.3,0.1-20,0c-3.9,0-6.2,1.5-7.1,5.4c-1.7,6.9-3.7,13.8-5.6,20.7
	C202.3,523,202.1,525.6,202.7,528.5L202.7,528.5z M322.9,553.4C322.9,553.4,322.9,553.4,322.9,553.4c-0.1,17.8,0,35.6-0.2,53.5
	c0,4.7,1.7,6.5,6.4,6.5c24.3-0.1,48.6-0.1,72.9,0c3.8,0,5.4-1.2,5.3-5.2c-0.2-6.8-0.2-13.7,0.1-20.5c0.2-4.2-1.3-5.7-5.4-5.6
	c-11.3,0.2-22.6,0.1-34,0.2c-10.3,0.1-10.2,0.1-10-10.1c0.1-3.5,0.8-4.9,4.9-4.7c8.6,0.5,17.3,0.3,26,0.5c3.7,0.1,5.5-1.6,5.9-5.2
	c0.6-6.1,1.2-12.2,2-18.4c0.5-4-0.8-5.7-5.1-5.6c-9.8,0.3-19.6,0.1-29.5,0.3c-3,0.1-4.4-0.9-4.2-3.9c0.1-1.3,0.2-2.7,0-4
	c-0.9-4.7,1.3-5.6,5.6-5.5c12.1,0.3,24.3,0.1,36.5,0.3c4.2,0.1,6.1-1.3,6-5.8c-0.3-6.5-0.3-13,0-19.5c0.2-4.7-1.7-6.1-6.1-6
	c-23.8,0.1-47.6,0.2-71.4,0c-4.4,0-5.8,1.4-5.7,5.7C323,518.1,322.9,535.8,322.9,553.4L322.9,553.4z"/>
<path class="st0" d="M165.9,451.1c-21.7,0-43.3-0.1-65,0.1c-4.4,0-6-1.1-6.2-5.8c-0.8-20.6-2-41.4,0.7-61.9
	c2.1-15.9,4.9-31.7,9.3-47.3c6-21.4,13.7-41.9,24.1-61.5c17.4-32.8,39.4-62,67.3-86.7c11.2-9.9,23.1-19,35.5-27.4
	c16.2-10.9,33.1-20,51-27.8c12.9-5.6,26.2-10.3,39.7-13.9c8.2-2.2,16.5-5.1,25.2-5.7c4.7-0.3,9.4-2.1,14.1-3
	c1.4-0.3,3.8-0.9,4.2,1.3c0.3,1.8-2,1.7-3.3,2.3c-10.1,4.8-19.4,10.8-28.2,17.6c-16.8,12.8-27.7,29.8-36.4,48.8
	c-10.6,23.1-13.7,47.2-11.9,72.3c0.8,11.3,0.2,22.6,2.2,33.8c2.2,12.4,5.1,24.7,10.9,36c1.6,3,0.6,4.8-1.7,6.8
	c-21.8,19.8-37.9,43.5-48.3,71.2c-5.7,15.3-10.3,30.8-11.6,47.1c-0.3,4.3-3,3.6-5.6,3.6C209.9,451.1,187.9,451.1,165.9,451.1
	C165.9,451.1,165.9,451.1,165.9,451.1L165.9,451.1z M229.6,293.8c3.3,0.3,6.8-0.1,10-2.3c3.5-2.3,3.7-6.2,0.2-8.5
	c-2.5-1.6-5-3.2-7.8-4.3c-4.6-1.8-8.7-0.4-12.2,3c-2.2,2.1-2.5,4.7-1.3,7.3c2,4.3,5.9,4.9,10.1,4.7
	C228.8,293.8,229,293.8,229.6,293.8L229.6,293.8z M233.3,266.8c-0.2,7.7,2.3,10.3,6,7.7c5.2-3.7,10.4-7.6,12.1-14.6
	c0.8-3.4-0.5-5.6-2.7-7.4c-2.2-2-4.9-1.7-7.4,0C235.7,256.3,233,261.7,233.3,266.8L233.3,266.8z M223.8,274.7c4.3,0.7,4.6-1,3.2-3.8
	c-2-3.9-4.9-7-7.9-10.1c-2.6-2.7-5.5-2.9-8.1,0.1c-2.7,3.1-2.4,6.9,0.7,9.1C215.5,272.6,219.5,275,223.8,274.7L223.8,274.7z
	 M217.1,375.5c0.4,3.5-1.4,7.5,4,7.5c3.8,0,3.9-3.2,3.5-5.3c-0.7-3.6,0-6.8,1.1-10.1c0.8-2.3,0.5-4.8-2.6-5.4
	c-2.9-0.6-4.4,1-4.8,3.7C217.8,369.3,217.5,372.8,217.1,375.5L217.1,375.5z M272.9,308.4c-0.4-1.7-0.7-4-1.4-6.2
	c-0.6-2-1.8-3.8-4.3-3.2c-2.3,0.6-3.3,2.6-2.7,4.7c1.1,3.8,1,7.5-0.3,11.2c-0.7,2,0.5,3.7,2.3,4.5c2.2,1,3.5-0.5,4.3-2.2
	C272.1,314.7,272.6,311.9,272.9,308.4L272.9,308.4z M245.2,335.1c-0.1,3.6,2.4,5.1,5.6,3c3.8-2.5,7.4-5.6,11-8.5
	c1.9-1.5,1.6-3.5,0.4-5.3c-1.3-1.9-3.1-0.9-4.4-0.1c-3.9,2.4-6.9,6.2-11.3,7.9C245.1,332.5,245.2,333.9,245.2,335.1L245.2,335.1z
	 M228.4,357.2c1.6-0.3,2.6-1.3,3.5-2.5c2.4-3.2,4.9-6.3,8.1-8.6c2.3-1.6,1.7-3.5,0.6-5.2c-1.2-1.7-3.4-1.8-4.9-0.6
	c-3.9,3.3-7.5,7-10.2,11.4C224,354.3,225.9,357.3,228.4,357.2z M232.8,398.3c1.7-0.1,3-0.3,3.8-1.5c0.8-1.4,0.1-2.7-0.9-3.5
	c-2.1-1.8-4.3-3.5-6.7-5c-1.3-0.8-2.9-0.6-4.1,0.7c-1,1-1.5,2.5-0.6,3.6C226.7,395.3,229.2,397.9,232.8,398.3L232.8,398.3z
	 M253.1,285.9c-1.4,0-3.2,0.3-3.3,2.8c-0.1,2.4,6.4,7.3,9.6,7.3c2.4,0,3.1-1.8,3.3-3.6C262.9,289.8,257.4,286,253.1,285.9z"/>
<path class="st0" d="M596.7,178.7c2.1,0,3.2,1.3,4.4,2.4c24,21.8,45.5,45.8,62.6,73.5c8.9,14.4,17,29.3,23.2,45.2
	c5.3,13.5,10.3,27.2,13.7,41.2c2.7,11.1,4.5,22.4,6.4,33.7c3.7,21.2,2.6,42.5,2.4,63.7c0,0.7-0.2,1.3-0.2,2
	c-0.8,10.6-0.8,10.5-11.2,10.5c-70,0-139.9,0-209.9,0.1c-4.2,0-5.3-1.2-5.3-5.3c-0.1-16,0-32,3.5-47.7c2.2-10.1,6.5-18.3,16-24.2
	c14.7-9.2,24.8-22.6,31.9-38.5c2.6-5.7,5.7-11.2,8.8-16.6c1.9-3.3,2.8-6.4,0.9-9.9c-1.1-2-0.9-4-0.2-6.2c8.1-26.9,6.6-53.5-2.9-79.7
	c-0.7-1.9-1.9-3.5-2.6-5.4c-0.4-1-0.8-2.4,0.3-3.2c1.1-0.8,2.2,0,3.1,0.7c7.9,5.6,15.8,11,23.7,16.7c6.9,5,12.3,3.7,16-4.1
	c1.4-2.9,2.7-3,4.7-0.8c0.9,1,1.8,1.9,2.8,2.9c2.7,2.9,5.8,4.5,9.8,2.8c4.1-1.7,7.5-6.7,6.6-10.8c-1.3-5.6-1.8-11.1-2.3-16.8
	c-0.7-7.7-3.8-14.8-5.6-22.2C596.9,181.6,595.9,180.5,596.7,178.7L596.7,178.7z M607.9,358.6c0.2-1.7,0.2-3.1-1.2-3.9
	c-1.8-1-3.4-0.1-4.5,1c-2,2-3.6,3.1-6.1,0.6c-1-1-2.9-2.2-4.4-0.5c-1.4,1.7-0.6,3.7,0.8,4.9c2.1,1.9,2.5,3.6,0.7,5.9
	c-0.9,1.1-1.7,2.8,0.1,3.9c1.5,1,3.4,0.9,4.5-0.5c2-2.6,3.7-3.1,6.3-0.7c1.2,1.1,3.2,1.2,4.5-0.3c1.2-1.2,1.2-2.8,0.2-4.1
	C606.9,362.8,606.3,360.7,607.9,358.6L607.9,358.6z M584.9,373.6c-0.6,0.2-1.6,0.4-2.4,0.9c-3.7,2.5-7.3,5-10.9,7.5
	c-2.4,1.6-1.8,3.5-0.6,5.4c1.4,2.1,3.4,2,5.2,0.8c3.8-2.6,7.5-5.4,11-8.3c1.1-1,2.2-2.5,1.4-4.4C587.9,374,586.6,373.7,584.9,373.6
	L584.9,373.6z M621.2,335.9c-0.4-2.1-0.1-3.8-1.8-4.4c-1.7-0.6-3.8-0.3-4.5,1.2c-2.1,4.8-4,9.8-5.7,14.8c-0.4,1.4,0.5,3,1.9,3.8
	c1.6,0.8,3-0.2,3.9-1.3C618.5,345.6,618.9,340.1,621.2,335.9L621.2,335.9z M551.1,402.5c1.9-0.1,13.7-6.8,14.7-8.3
	c0.7-1.1,1.4-2.4,0.5-3.7c-1.1-1.7-2.9-2-4.4-1.3c-4.5,2.3-8.9,4.9-13.2,7.6c-1.2,0.7-2.2,2.2-1.2,3.9
	C548.3,402.3,549.8,402.5,551.1,402.5L551.1,402.5z M576,335.3c-2.3-0.2-4.3,2.8-3.2,5.4c2,5.1,5.7,8.9,9.7,12.4
	c2.4,2.1,4.3,0,5.2-2.4C588.2,349.4,577.5,335.5,576,335.3L576,335.3z M567,323.3c-0.1,1.9,0.3,3.7,1.2,5.3c0.9,1.5,2.4,1.7,3.9,1.4
	c1.4-0.2,2.2-1.1,2.1-2.4c-0.6-4.6,0.5-8.8,3-12.7c1.2-1.9,0-3.6-1.8-4.5c-2-0.9-4.3-0.9-5.1,1.4C569.1,315.7,566.9,319.2,567,323.3
	L567,323.3z M525.6,414.7c5.9-0.4,9.7-4.2,14.4-5.8c2.1-0.7,3.2-2.5,2.4-4.7c-0.9-2.3-3.1-2.8-5-2c-4.4,2-8.5,4.3-12.7,6.6
	c-1.4,0.8-1.9,2.3-1.4,3.9C523.7,414.2,525,414.7,525.6,414.7L525.6,414.7z M619.1,319.5c-0.8-4.5-4.5-8.7-8.6-12.6
	c-1.3-1.2-3.2-0.9-4.5,0.6c-1.3,1.4-1.3,3.3-0.1,4.6c3,3.3,5.8,6.8,7.7,10.9c0.7,1.4,2.1,2.2,3.8,1.6
	C619,324,619.2,322.5,619.1,319.5L619.1,319.5z M502.7,423.3c3.2-1.1,7.6-2.5,11.9-4.2c1.8-0.7,3.1-2,2.2-4.3
	c-0.9-2.3-2.7-2.3-4.5-1.8c-4.2,1.1-8.2,2.5-12.4,3.7c-2.1,0.6-2.3,2.1-2.1,3.9C498.1,422.9,499.6,423.3,502.7,423.3L502.7,423.3z
	 M593.6,299.7c-4.3-0.2-7.1,0.9-10,1.8c-2.1,0.7-3.6,1.9-2.8,4.4c0.9,2.6,3.1,3.1,5.2,2c3-1.5,5.8-1.8,9-1.1
	c1.9,0.4,4.3,0.3,4.8-2.2c0.5-2.7-1.7-3.7-3.7-4.4C595,299.7,593.6,299.7,593.6,299.7L593.6,299.7z M618.9,369.8
	c-2.1,0-3.5-0.1-4.2,1.3c-0.9,1.6-0.1,3.1,1,4c3,2.7,6.9,3.9,10.6,5c1.6,0.5,2.8-0.7,3.4-2.2c0.6-1.3,0.7-2.9-0.6-3.6
	C625.6,372.5,622.3,370.2,618.9,369.8L618.9,369.8z"/>
<path class="st1" d="M425.4,386.6c-18.4,0.4-32-0.8-44.9-5.5c-26.5-9.7-48-26.1-62.7-50.6c-9.7-16.3-15.7-33.8-16.9-53
	c-0.5-8.1,1.6-14.9,5.6-21.3c6.3-10.3,13-20.3,22.2-28.5c6-5.3,12.3-10,19.1-14.2c24-14.6,50.6-20.9,78.2-24.6
	c18.5-2.4,36.7-2.7,55.1,0.6c8.2,1.4,16.1,3.9,24.2,5.4c4,0.7,6,4,8.1,7c19.3,28.3,25.1,59.3,18.9,92.8c-2.3,12.1-3.1,13.1-14.2,9.9
	c-16.3-4.6-33-4.1-49.6-3.9c-13.5,0.1-26.9,1.2-40,4.8c-16.7,4.5-31.7,12-45.1,22.8c-4.3,3.4-8.3,7.2-11.9,11.3
	c-2.9,3.3-3.7,7.9-1.2,9.7c3.5,2.6,6.4,0.6,8.8-1.8c9.7-9.8,20.6-17.8,33.1-23.7c11.4-5.4,23.4-9.1,35.8-10.5
	c19.9-2.3,39.9-2.4,59.7,0.6c5.9,0.9,11.7,2.5,17.5,3.9c1.5,0.3,3.6,1.1,2.3,2.8c-5.3,6.9-7,15.6-12.2,22.6
	c-10.2,13.7-22.5,24.4-38.2,31.7C459.1,383.2,440.3,386.5,425.4,386.6L425.4,386.6z M441,281.6c-3.4-7.5-2.8-16-4.5-24.1
	c-0.4-1.9-1.1-3.8-1.9-5.6c-1.2-2.5-3-4.9-6.1-3.9c-3.2,1.1-6.7,3.1-5.9,7c1.8,9.3,3.5,18.5,4.8,27.9c0.4,3.1,2.7,7,7.1,6.3
	C438.2,288.6,440.3,285.8,441,281.6L441,281.6z M486.6,265.9c0.2,0,0.4,0,0.6,0c0-4.6,0.1-9.3,0-13.9c-0.1-3.6-1.7-6.2-5.6-6.3
	c-3.7,0-6.4,1.7-6.6,5.9c-0.4,9.5-0.7,18.9-1,28.4c-0.1,4.1,1.7,6.7,6.1,6.9c4.4,0.1,6.4-2.4,6.5-6.5
	C486.7,275.6,486.6,270.8,486.6,265.9L486.6,265.9z M400.6,241.9c0,2.3,0.9,4.1,3.4,4.6c2.3,0.5,3.7-0.8,4.3-3.1
	c0.8-2.9,1.6-5.7,2.5-8.6c2.2-7,4.9-13.7,9.7-19.4c1.5-1.8,2.7-3.8,0.5-5.6c-2-1.6-4.7-2-6.6,0.4C407,219.6,403,230.4,400.6,241.9
	L400.6,241.9z M471.8,328.7c1.7,0,3.3-0.1,5,0c3.1,0.2,6.3,0.2,6.7-4c0.4-4.5-3.2-4.5-6.1-4.5c-9.3-0.1-18.5,0.6-27.5,3.7
	c-3.1,1.1-5.2,2.5-4.2,5.9c1.1,3.8,4.1,2.6,6.6,1.8C458.6,329.6,465.1,328.5,471.8,328.7L471.8,328.7z M491.7,229.5
	c-0.4-0.9-0.7-2-1.3-3c-5.5-8.6-12.2-16.2-20.7-22c-2.3-1.5-4.7-2.6-6.4,0.3c-1.6,2.5-1.5,5.2,1.4,6.8c8.2,4.6,14.3,11,18.6,19.3
	c0.8,1.6,2.8,3.5,5.3,2.8C490.6,233.4,491.4,231.7,491.7,229.5L491.7,229.5z"/>
<path class="st1" d="M320.9,450.2c-13.3,0-25.9,0-38.5,0c-9.2,0-18.3,0-27.5,0.2c-2.9,0-4.4-0.4-3.7-3.8
	c3.7-19.3,8.8-38.2,17.7-55.8c10.2-20.1,24.3-37.2,40.5-52.6c2-1.9,3.1-1.9,4.5,0.5c11.4,18.7,27.6,32.4,46.6,42.6
	c20.3,10.9,42.3,14.8,65.4,13.6c11.1-0.6,22.1-1.9,33-4c3.5-0.6,6.9-2,9.9-4.1c1.8-1.2,4.1-1.4,5.7-0.5c1.8,1.1,0.5,3.1,0,4.9
	c-4.1,13.6-5,27.8-6.1,41.9c-0.3,4.1-0.3,8.3,0.5,12.4c0.7,3.4-0.2,5.1-4.3,5.1c-16-0.2-32-0.1-48,0c-3.2,0-4-1.1-3.9-4
	c0.2-5.7,0.2-11.3,0.3-17c0.1-3.5-0.6-6.8-4.9-6.5c-4.1,0.2-3.4,4-3.4,6.6c-0.1,5.5-0.1,11,0.2,16.5c0.1,3.1-0.5,4.5-4,4.4
	c-22.5-0.1-45-0.1-67.4,0.1c-3,0-4.3-1-5.5-3.8c-3.1-7.5-3.1-15.3-3.1-23.1c0-1.8,0.1-3.7,0.2-5.5c0.1-2.8-0.7-5-4-5.1
	c-3.4-0.1-4.4,2.2-4.3,4.9c0.4,9.5-1.1,19.3,3.1,28.5C320.2,447.3,320.4,448.5,320.9,450.2L320.9,450.2z"/>
<path class="st2" d="M204.6,520.9c1.9-6.9,3.9-13.8,5.6-20.7c1-4,3.2-5.5,7.1-5.4c6.7,0.1,13.3,0,20,0c5.7,0,7.4,1.9,8.6,7.6
	c3.1,14.1,6.6,28.1,10,42.1c0.1,0.6,0.2,1.5,1.1,1.4c0.5-0.1,1.3-0.6,1.5-1c0.7-2.4,1.4-4.8,1.8-7.2c2.3-12.6,4.6-25.2,6.8-37.8
	c0.6-3.4,2.6-4.9,5.8-4.9c11.7,0,23.3,0,35,0.1c3.6,0,4.3,1.5,3.3,5.1c-3.3,12.1-7.1,24.1-10.1,36.4c-2.8,11.4-6.6,22.6-9.7,33.9
	c-2.8,10.1-5.4,20.2-8.1,30.3c-0.5,1.8-0.8,3.6-1.3,5.3c-1.8,6.7-3,7.5-9.7,7.4c-7.3,0-14.7,0-22,0c-5.5,0-7.6-1.7-8.4-7
	c-1.4-8.9-4.7-17.3-6.6-26c-1.5-6.8-4-13.3-4.6-20.3c-0.2-2-0.7-3.9-1.2-5.9c-0.2-1-0.7-2.1-1.9-2c-1.2,0.1-1.3,1.3-1.6,2.3
	c-2.6,10.6-5.2,21.3-7.9,31.9c-1.9,7.4-3.9,14.8-5.9,22.2c-1,3.6-3.1,5-7,4.9c-8-0.2-16-0.2-24,0c-4.6,0.1-6.6-1.8-7.7-6.4
	c-3-12.1-6.7-23.9-10-35.9c-1.9-6.7-3.6-13.4-5.3-20.2c-1.5-6.1-3-12.3-5-18.2c-3.7-10.9-5-22.4-9.6-32.9c-1.3-3-0.3-5,3.7-4.9
	c11.5,0.1,23,0,34.5-0.1c5,0,6.3,3.1,7.1,7.3c2.1,12,4.4,23.9,6.7,35.8c0,2.1-0.1,4.2,0,6.3c0,1.2,0.2,2.4,1.7,2.5
	c1.4,0.1,2.1-1,2.3-2.1c0.5-2.5,1.6-5,1.1-7.6c0-0.5-0.1-1-0.1-1.5c0,0,0,0,0,0c0.4-0.8,0.8-1.7,1.1-2.5c0.1-0.3,0.2-0.7,0.3-1
	c0.3-1.2,0.5-2.3,0.8-3.5C204.3,526.2,204.6,523.6,204.6,520.9L204.6,520.9z"/>
<path class="st2" d="M581.3,575.1c0.1,10.8,0.1,21.6,0.4,32.4c0.1,4.2-1.1,6-5.6,5.8c-8.2-0.3-16.3-0.3-24.5,0
	c-4.9,0.2-5.4-2.3-5.4-6.1c0.1-23.8,0-47.6,0-71.5c0-11.8,0.1-23.7-0.2-35.5c-0.1-4.3,1.3-5.8,5.8-5.6c8.3,0.4,16.7,0.2,25,0
	c3.8-0.1,5.1,1.4,4.9,5c-0.6,8.3,0.5,16.6-0.8,24.9c-0.2,1.1-0.1,2.3,0,3.5c0,1.3,0,2.8,1.8,3.1c1.8,0.2,1.4-1.5,1.9-2.4
	c5.7-10.2,11.4-20.5,16.9-30.8c1.4-2.6,3.3-3.3,6.1-3.3c11.3,0.1,22.7,0.1,34,0c3,0,4.2,0.5,2.2,3.6c-10.8,16.9-21.4,33.9-32.2,50.8
	c-0.9,1.4-1.7,2.5-0.3,4.4c8.3,11.6,15.2,24.1,22.5,36.3c3.5,5.8,7.3,11.4,11,17.1c1.1,1.7,2.7,3.4,1.9,5.4c-0.9,2.1-3.2,1.1-5,1.1
	c-10.5,0-21-0.2-31.5,0c-4.3,0.1-7.1-0.7-9-5.1c-4.9-10.9-10.4-21.5-15.7-32.2c-0.1-2.4-0.7-5.3-3.2-5.3
	C580,570.8,581.2,573.5,581.3,575.1L581.3,575.1z"/>
<path class="st2" d="M436,550c0.3-0.5,0.5-1,0.8-1.6c0.7-0.7,1.1-1.6,0.7-2.6c0.1-0.6,0.3-1.3,0.4-1.9c3.8-5.3,4-11.9,6.4-17.7
	c2.8-8.5,5.9-16.9,8.4-25.4c1.3-4.4,3.6-6.2,8.2-6.1c9.8,0.2,19.6,0.1,29.5,0c4.5,0,6.7,1.8,8.1,6.3c2.9,9.6,6.5,19,9.8,28.6
	c2.7,7.8,5.2,15.7,7.8,23.6c6.1,18,12.2,35.9,18.3,53.8c2,5.7,1.6,6.2-4.5,6.2c-8.8,0-17.6,0-26.5,0c-5.1,0-8.7-3.1-9.2-8.2
	c-0.1-1,0.1-2,0-3c-0.7-8-2.2-9.3-10.2-9.2c-5.5,0.1-11,0.1-16.5,0c-9-0.1-9-0.1-10.6,9.1c-1.3,2.6-2.1,5.3-2.6,8.1
	c-0.9,2.7-2.9,3.3-5.5,3.2c-11-0.1-22-0.1-33-0.1c-0.1-1.1-0.3-2.2-0.5-3.3c1.6-3.2,3.1-6.5,2.9-10.2c0,0,0,0,0,0s0.3-0.3,0.3-0.3
	c1-0.8,1.4-1.9,1.5-3.1c0.2-0.2,0.3-0.4,0.4-0.7c4.2-9.1,6.9-18.8,9.9-28.3c1.1-3.4,3.9-6.3,3.1-10.3c0.1-0.6,0.2-1.3,0.3-1.9
	C434.7,553.3,435.4,551.7,436,550L436,550z M475.2,569.1c2,0,4-0.1,6,0c2.9,0.2,4-0.7,3.1-3.7c-2.3-7.8-5-15.5-6.4-23.6
	c-0.2-1.3-0.6-2.9-2.1-3.1c-2-0.2-2.1,1.9-2.5,3.2c-1.7,5.7-2.9,11.6-4.9,17.3C465,568.9,464.8,569,475.2,569.1L475.2,569.1z"/>
<path class="st2" d="M322.9,553.4c0-17.7,0.1-35.3-0.1-53c0-4.4,1.4-5.8,5.7-5.7c23.8,0.2,47.6,0.1,71.4,0c4.4,0,6.4,1.4,6.1,6
	c-0.3,6.5-0.2,13,0,19.5c0.2,4.5-1.8,5.8-6,5.8c-12.2-0.2-24.3,0-36.5-0.3c-4.2-0.1-6.4,0.8-5.6,5.5c0.2,1.3,0.1,2.7,0,4
	c-0.2,3.1,1.1,4,4.2,3.9c9.8-0.2,19.6,0,29.5-0.3c4.4-0.1,5.6,1.6,5.1,5.6c-0.7,6.1-1.4,12.2-2,18.4c-0.4,3.6-2.2,5.3-5.9,5.2
	c-8.7-0.2-17.3,0.1-26-0.5c-4-0.2-4.8,1.1-4.9,4.7c-0.2,10.3-0.3,10.2,10,10.1c11.3-0.1,22.6,0,34-0.2c4.1-0.1,5.6,1.4,5.4,5.6
	c-0.4,6.8-0.3,13.6-0.1,20.5c0.1,3.9-1.5,5.2-5.3,5.2c-24.3-0.1-48.6-0.1-72.9,0c-4.7,0-6.4-1.7-6.4-6.5
	C322.9,589,322.8,571.2,322.9,553.4C322.9,553.4,322.9,553.4,322.9,553.4L322.9,553.4z"/>
<path class="st0" d="M433.6,556.9c0.8,3.9-2,6.9-3.1,10.3c-3,9.5-5.7,19.2-9.9,28.3c0.5-4.1,1.5-8.1,2.6-12.2
	c1.9-6.5,5.6-12.4,6.3-19.4C429.8,561.4,431.6,558.8,433.6,556.9L433.6,556.9z"/>
<path class="st0" d="M200.6,537c0.4,2.7-0.6,5.1-1.1,7.6c-0.2,1.1-0.9,2.2-2.3,2.1c-1.5-0.1-1.7-1.4-1.7-2.5c-0.1-2.1,0-4.2,0-6.3
	C197.4,538.6,199,537.8,200.6,537L200.6,537z"/>
<path class="st0" d="M444.3,526.2c-2.4,5.8-2.6,12.4-6.4,17.7c-0.9-5,3.6-8.6,3.4-13.4C441.2,528.6,441.5,526.4,444.3,526.2
	L444.3,526.2z"/>
<path class="st0" d="M581.3,575.1c-0.1-1.6-1.3-4.3,1-4.3c2.5,0,3.1,2.9,3.2,5.3C584.2,575.2,583.2,573.5,581.3,575.1z"/>
<path class="st0" d="M454.4,610c0.5-2.8,1.3-5.5,2.6-8.1C458.3,605.4,456.8,607.8,454.4,610z"/>
<path class="st0" d="M204.6,520.9c0,2.7-0.3,5.3-1.9,7.6C202.1,525.6,202.3,523,204.6,520.9z"/>
<path class="st0" d="M436,550c-0.7,1.6-1.4,3.3-2.1,4.9C432.6,552.4,433.6,550.9,436,550z"/>
<path class="st0" d="M415.5,609.8c0.2,1.1,0.3,2.2,0.5,3.3c-0.5,0.6-1.2,0.6-1.5-0.1C413.9,611.8,414,610.5,415.5,609.8L415.5,609.8
	z"/>
<path class="st0" d="M420.2,596.1c-0.1,1.3-0.5,2.4-1.5,3.1C418,597.7,417.8,596.3,420.2,596.1z"/>
<path class="st0" d="M437.5,545.8c0.4,1,0.1,1.9-0.7,2.6C436.1,547.4,436.3,546.5,437.5,545.8z"/>
<path class="st0" d="M201.9,531.9c-0.1,0.3-0.2,0.7-0.3,1c-0.3-0.1-0.6-0.3-0.9-0.4C201.1,532.4,201.5,532.2,201.9,531.9
	L201.9,531.9z"/>
<path class="st0" d="M200.5,535.5C200.5,535.5,200.5,535.5,200.5,535.5c-0.2,0-0.3,0.1-0.5,0.1C200.2,535.5,200.3,535.5,200.5,535.5
	L200.5,535.5z"/>
<path class="st0" d="M418.4,599.6C418.4,599.6,418.4,599.6,418.4,599.6c-0.2-0.1-0.5-0.1-0.7-0.1c0.1,0,0.3-0.1,0.4-0.1
	C418.2,599.4,418.3,599.5,418.4,599.6L418.4,599.6z"/>
<path class="st2" d="M229.6,293.8c-0.6,0-0.8,0-1,0c-4.2,0.1-8.1-0.5-10.1-4.7c-1.2-2.6-0.9-5.2,1.3-7.3c3.5-3.4,7.6-4.8,12.2-3
	c2.7,1.1,5.3,2.7,7.8,4.3c3.4,2.3,3.3,6.2-0.2,8.5C236.5,293.6,232.9,294.1,229.6,293.8L229.6,293.8z"/>
<path class="st2" d="M233.3,266.8c-0.3-5.1,2.4-10.5,8.1-14.4c2.5-1.7,5.2-1.9,7.4,0c2.1,1.8,3.5,4,2.7,7.4
	c-1.7,7-6.9,10.9-12.1,14.6C235.6,277.1,233.1,274.5,233.3,266.8L233.3,266.8z"/>
<path class="st2" d="M223.8,274.7c-4.3,0.3-8.3-2-12.1-4.7c-3.1-2.2-3.4-5.9-0.7-9.1c2.6-3,5.5-2.8,8.1-0.1c3,3.1,5.9,6.2,7.9,10.1
	C228.5,273.7,228.1,275.4,223.8,274.7L223.8,274.7z"/>
<path class="st2" d="M217.1,375.5c0.3-2.8,0.7-6.2,1.2-9.6c0.4-2.7,2-4.3,4.8-3.7c3.1,0.6,3.4,3.2,2.6,5.4
	c-1.2,3.4-1.8,6.5-1.1,10.1c0.4,2,0.3,5.2-3.5,5.3C215.7,383.1,217.5,379.1,217.1,375.5L217.1,375.5z"/>
<path class="st2" d="M272.9,308.4c-0.3,3.5-0.7,6.3-2.1,8.8c-0.9,1.7-2.2,3.2-4.3,2.2c-1.8-0.8-3-2.5-2.3-4.5
	c1.3-3.8,1.4-7.4,0.3-11.2c-0.6-2,0.3-4.1,2.7-4.7c2.5-0.6,3.7,1.2,4.3,3.2C272.1,304.4,272.5,306.7,272.9,308.4L272.9,308.4z"/>
<path class="st2" d="M245.2,335.1c0-1.2-0.1-2.6,1.2-3c4.5-1.7,7.4-5.5,11.3-7.9c1.3-0.8,3.1-1.8,4.4,0.1c1.2,1.8,1.5,3.8-0.4,5.3
	c-3.6,2.9-7.1,5.9-11,8.5C247.5,340.2,245,338.6,245.2,335.1L245.2,335.1z"/>
<path class="st2" d="M228.4,357.2c-2.5,0.1-4.4-2.9-2.8-5.5c2.7-4.4,6.2-8.1,10.2-11.4c1.4-1.2,3.7-1.2,4.9,0.6
	c1.1,1.6,1.7,3.5-0.6,5.2c-3.3,2.3-5.8,5.4-8.1,8.6C231,355.9,230,356.9,228.4,357.2z"/>
<path class="st2" d="M232.8,398.3c-3.6-0.4-6.2-3-8.4-5.8c-0.9-1.1-0.4-2.6,0.6-3.6c1.2-1.2,2.8-1.5,4.1-0.7c2.3,1.5,4.5,3.2,6.7,5
	c1,0.8,1.7,2.2,0.9,3.5C235.9,398,234.5,398.1,232.8,398.3L232.8,398.3z"/>
<path class="st2" d="M253.1,285.9c4.3,0.1,9.8,3.9,9.5,6.4c-0.2,1.8-0.9,3.6-3.3,3.6c-3.2,0.1-9.7-4.9-9.6-7.3
	C250,286.2,251.7,285.9,253.1,285.9L253.1,285.9z"/>
<path class="st2" d="M607.9,358.6c-1.6,2.1-1,4.3,0.9,6.4c1.1,1.3,1,2.9-0.2,4.1c-1.4,1.4-3.4,1.3-4.5,0.3c-2.6-2.3-4.4-1.8-6.3,0.7
	c-1.1,1.4-3,1.5-4.5,0.5c-1.7-1.1-1-2.7-0.1-3.9c1.9-2.3,1.4-4-0.7-5.9c-1.3-1.2-2.2-3.2-0.8-4.9c1.5-1.7,3.4-0.6,4.4,0.5
	c2.5,2.5,4.1,1.4,6.1-0.6c1.1-1.1,2.8-2,4.5-1C608.1,355.5,608.1,356.9,607.9,358.6L607.9,358.6z"/>
<path class="st2" d="M584.9,373.6c1.8,0.1,3,0.4,3.7,1.8c0.9,1.9-0.2,3.4-1.4,4.4c-3.5,3-7.2,5.7-11,8.3c-1.8,1.2-3.8,1.4-5.2-0.8
	c-1.3-1.9-1.8-3.8,0.6-5.4c3.7-2.5,7.2-5.1,10.9-7.5C583.3,374,584.3,373.8,584.9,373.6L584.9,373.6z"/>
<path class="st2" d="M621.2,335.9c-2.3,4.2-2.7,9.7-6.2,13.9c-0.9,1.2-2.3,2.2-3.9,1.3c-1.4-0.7-2.3-2.4-1.9-3.8
	c1.7-5,3.5-9.9,5.7-14.8c0.7-1.5,2.8-1.8,4.5-1.2C621.2,332.1,620.8,333.9,621.2,335.9L621.2,335.9z"/>
<path class="st2" d="M551.1,402.5c-1.3-0.1-2.8-0.3-3.7-1.8c-0.9-1.7,0.1-3.2,1.2-3.9c4.3-2.7,8.7-5.3,13.2-7.6
	c1.5-0.8,3.3-0.4,4.4,1.3c0.8,1.3,0.2,2.6-0.5,3.7C564.9,395.7,553,402.5,551.1,402.5L551.1,402.5z"/>
<path class="st2" d="M576,335.3c1.5,0.1,12.2,14.1,11.7,15.4c-0.9,2.4-2.8,4.5-5.2,2.4c-4-3.5-7.7-7.3-9.7-12.4
	C571.8,338.1,573.7,335.1,576,335.3L576,335.3z"/>
<path class="st2" d="M567,323.3c-0.1-4.2,2.1-7.7,3.3-11.4c0.8-2.3,3.1-2.3,5.1-1.4c1.9,0.8,3,2.6,1.8,4.5c-2.5,3.9-3.6,8.1-3,12.7
	c0.2,1.3-0.7,2.2-2.1,2.4c-1.6,0.2-3.1,0.1-3.9-1.4C567.3,327,567,325.2,567,323.3L567,323.3z"/>
<path class="st2" d="M525.6,414.7c-0.6,0-1.9-0.5-2.3-1.9c-0.5-1.6,0-3.1,1.4-3.9c4.2-2.3,8.4-4.7,12.7-6.6c1.9-0.8,4.1-0.3,5,2
	c0.9,2.3-0.2,4-2.4,4.7C535.3,410.5,531.6,414.3,525.6,414.7L525.6,414.7z"/>
<path class="st2" d="M619.1,319.5c0.2,3-0.1,4.5-1.8,5.1c-1.7,0.6-3.1-0.2-3.8-1.6c-1.9-4.1-4.7-7.6-7.7-10.9
	c-1.2-1.3-1.1-3.1,0.1-4.6c1.3-1.5,3.2-1.8,4.5-0.6C614.6,310.8,618.3,315,619.1,319.5L619.1,319.5z"/>
<path class="st2" d="M502.7,423.3c-3.1,0-4.6-0.4-4.8-2.6c-0.2-1.8,0-3.3,2.1-3.9c4.1-1.2,8.2-2.6,12.4-3.7c1.8-0.5,3.7-0.5,4.5,1.8
	c0.8,2.3-0.4,3.6-2.2,4.3C510.3,420.8,505.9,422.2,502.7,423.3L502.7,423.3z"/>
<path class="st2" d="M593.6,299.7c0,0,1.4,0,2.6,0.4c2.1,0.7,4.3,1.7,3.7,4.4c-0.5,2.5-2.9,2.7-4.8,2.2c-3.2-0.7-6.1-0.4-9,1.1
	c-2.1,1.1-4.3,0.5-5.2-2c-0.9-2.5,0.7-3.7,2.8-4.4C586.5,300.6,589.3,299.6,593.6,299.7L593.6,299.7z"/>
<path class="st2" d="M618.9,369.8c3.4,0.3,6.7,2.7,10.2,4.5c1.3,0.7,1.2,2.3,0.6,3.6c-0.6,1.5-1.8,2.7-3.4,2.2
	c-3.8-1.2-7.6-2.3-10.6-5c-1.1-1-1.9-2.5-1-4C615.4,369.7,616.8,369.8,618.9,369.8L618.9,369.8z"/>
<path class="st2" d="M441,281.6c-0.7,4.2-2.8,7-6.6,7.6c-4.4,0.7-6.7-3.2-7.1-6.3c-1.3-9.4-3-18.6-4.8-27.9c-0.7-3.8,2.7-5.9,5.9-7
	c3.1-1,4.9,1.3,6.1,3.9c0.8,1.8,1.5,3.7,1.9,5.6C438.2,265.6,437.6,274.1,441,281.6L441,281.6z"/>
<path class="st2" d="M486.6,265.9c0,4.8,0.1,9.6,0,14.4c-0.1,4.1-2.1,6.6-6.5,6.5c-4.4-0.1-6.2-2.8-6.1-6.9c0.3-9.5,0.6-18.9,1-28.4
	c0.2-4.2,2.8-5.9,6.6-5.9c3.9,0,5.5,2.7,5.6,6.3c0.1,4.6,0,9.3,0,13.9C487,265.9,486.8,265.9,486.6,265.9L486.6,265.9z"/>
<path class="st2" d="M400.6,241.9c2.5-11.6,6.5-22.4,13.9-31.6c1.9-2.4,4.6-2,6.6-0.4c2.2,1.8,1,3.7-0.5,5.6
	c-4.8,5.7-7.5,12.4-9.7,19.4c-0.9,2.8-1.7,5.7-2.5,8.6c-0.6,2.3-2,3.5-4.3,3.1C401.5,246.1,400.5,244.2,400.6,241.9L400.6,241.9z"/>
<path class="st2" d="M471.8,328.7c-6.7-0.3-13.2,0.8-19.6,2.9c-2.5,0.8-5.5,2-6.6-1.8c-1-3.4,1.1-4.8,4.2-5.9
	c8.9-3.1,18.1-3.8,27.5-3.7c2.9,0,6.5,0,6.1,4.5c-0.3,4.2-3.5,4.2-6.7,4C475.2,328.7,473.5,328.7,471.8,328.7L471.8,328.7z"/>
<path class="st2" d="M491.7,229.5c-0.4,2.2-1.1,3.9-3.1,4.4c-2.5,0.6-4.5-1.3-5.3-2.8c-4.3-8.3-10.4-14.8-18.6-19.3
	c-3-1.7-3-4.4-1.4-6.8c1.8-2.8,4.2-1.8,6.4-0.3c8.5,5.8,15.2,13.3,20.7,22C491.1,227.5,491.4,228.7,491.7,229.5L491.7,229.5z"/>
<path class="st1" d="M475.2,569.1c-10.4-0.1-10.2-0.1-6.8-9.9c2-5.6,3.2-11.5,4.9-17.3c0.4-1.3,0.5-3.3,2.5-3.2
	c1.5,0.1,1.9,1.7,2.1,3.1c1.4,8,4.1,15.8,6.4,23.6c0.9,3-0.2,4-3.1,3.7C479.2,569,477.2,569.1,475.2,569.1L475.2,569.1z"/>
</svg>
