<?xml version="1.0" encoding="utf-8"?>
<!-- Generator: Adobe Illustrator 28.1.0, SVG Export Plug-In . SVG Version: 6.00 Build 0)  -->
<svg version="1.1" id="레이어_1" xmlns="http://www.w3.org/2000/svg" xmlns:xlink="http://www.w3.org/1999/xlink" x="0px"
	 y="0px" viewBox="0 0 512 512" style="enable-background:new 0 0 512 512;" xml:space="preserve">
<style type="text/css">
	.st0{fill:#FFFFFF;}
</style>
<path class="st0" d="M459,414.7c32.1-23.7,53-58.6,53-97.7c0-71.1-69.8-128.3-154.9-128.3S203.7,245.9,203.7,317
	S272,445.4,357.1,445.4c18.1,0,34.9-2.8,50.2-7c5.6-1.4,11.2,0,12.6,1.4l34.9,19.5c4.2,2.8,8.4,0,7-5.6l-8.4-30.7
	C453.4,418.9,456.2,416.1,459,414.7 M305.5,296.1c-11.2,3-22.6-3.7-25.6-14.9c-3-11.2,3.7-22.6,14.9-25.6c3.5-0.9,7.2-0.9,10.7,0
	c11.2,3,17.8,14.4,14.9,25.6C318.5,288.5,312.8,294.2,305.5,296.1 M408.8,296.1c-11.2,3-22.6-3.7-25.6-14.9s3.7-22.6,14.9-25.6
	c3.5-0.9,7.2-0.9,10.7,0c11.2,3,17.8,14.4,14.9,25.6C421.7,288.5,416,294.2,408.8,296.1"/>
<path class="st0" d="M184.2,46.4C82.3,46.4,0,116.1,0,201.2c0,46,23.7,87.9,62.8,115.8c4.2,2.8,7,7,5.6,14l-9.8,33.5
	c-1.4,7,4.2,9.8,8.4,8.4l41.9-23.7c4.2-2.8,9.8-4.2,15.3-2.8c36.3,11.2,67,8.4,71.1,8.4c-33.5-117.2,82.3-184.2,171.6-178.6
	C353,103.6,276.2,46.4,184.2,46.4 M122.8,176.1c-13.5,3.2-27-5.1-30.3-18.5s5.1-27,18.5-30.3c3.9-0.9,7.9-0.9,11.8,0
	c13.5,3.2,21.8,16.8,18.5,30.3C139.1,166.7,131.9,173.9,122.8,176.1 M246.9,176.1c-13.5,3.2-27-5.1-30.3-18.5s5.1-27,18.5-30.3
	c3.9-0.9,7.9-0.9,11.8,0c13.5,3.2,21.8,16.8,18.5,30.3C263.3,166.7,256.1,173.9,246.9,176.1"/>
</svg>
