<?xml version="1.0" encoding="utf-8"?>
<!-- Generator: Adobe Illustrator 28.1.0, SVG Export Plug-In . SVG Version: 6.00 Build 0)  -->
<svg version="1.1" id="레이어_1" xmlns="http://www.w3.org/2000/svg" xmlns:xlink="http://www.w3.org/1999/xlink" x="0px"
	 y="0px" viewBox="0 0 37.8 33.6" style="enable-background:new 0 0 37.8 33.6;" xml:space="preserve">
<style type="text/css">
	.st0{fill-rule:evenodd;clip-rule:evenodd;fill:#FFFFFF;}
</style>
<path id="XMLID_81_" class="st0" d="M13.8,21.2c-0.2,0.1-0.4,0.1-0.6,0.1c-0.5,0-0.9-0.3-1.1-0.7L12,20.5l-3.5-7.6
	c0-0.1,0-0.2,0-0.3c0-0.4,0.3-0.6,0.6-0.6c0.1,0,0.3,0,0.4,0.1l4.1,2.9c0.3,0.2,0.7,0.3,1.1,0.3c0.2,0,0.4,0,0.7-0.1l19.1-8.6
	C31,2.6,25.3,0,18.9,0C8.5,0,0,7.1,0,15.9c0,4.8,2.5,9.1,6.5,12c0.3,0.2,0.5,0.6,0.5,1c0,0.1,0,0.3-0.1,0.4
	c-0.3,1.2-0.8,3.1-0.8,3.2c0,0.1-0.1,0.3-0.1,0.5c0,0.4,0.3,0.6,0.6,0.6c0.1,0,0.3,0,0.4-0.1l4.1-2.4c0.3-0.2,0.7-0.3,1-0.3
	c0.2,0,0.4,0,0.6,0.1c1.9,0.6,4,0.9,6.2,0.9c10.4,0,18.9-7.1,18.9-15.9c0-2.6-0.8-5.2-2.1-7.4L13.9,21.2L13.8,21.2z"/>
</svg>
