<?xml version="1.0" encoding="UTF-8"?>
<svg id="_레이어_1" data-name="레이어 1" xmlns="http://www.w3.org/2000/svg" viewBox="0 0 460.543 752.225">
  <defs>
    <style>
      .cls-1 {
        fill: #fff;
        stroke-width: 0px;
      }
    </style>
  </defs>
  <path class="cls-1" d="M204.639,282.503c0,84.507-.058,169.015.069,253.522.017,11.522-4.692,19.812-14.57,25.396-3.582,2.025-7.508,2.64-11.522,2.643-45.156.028-90.312.099-135.467-.026-15.132-.042-25.929-11.231-26.347-26.672-.017-.624-.003-1.248-.003-1.872,0-168.64.021-337.28-.046-505.92-.005-11.857,4.11-21.092,14.817-26.843C35.52.607,39.873.085,44.236.081,88.519.031,132.802.146,177.084,0c16.433-.054,27.795,12.554,27.688,28.607-.353,52.799-.133,105.602-.133,158.404,0,31.831,0,63.661,0,95.492ZM137.043,282.324c0,67.14,0,134.279.002,201.419,0,1.622-.03,3.248.068,4.865.214,3.54,2.908,6.221,6.387,6.447,6.856.446,10.06-2.761,10.06-10.136.004-134.903.002-269.806.016-404.709,0-1.76-.152-3.459-.694-5.149-1.2-3.742-5.151-6.574-8.738-6.17-3.893.439-6.798,3.668-7.034,7.897-.09,1.618-.066,3.243-.066,4.865-.003,66.89-.002,133.78-.002,200.67Z"/>
  <path class="cls-1" d="M290.304,469.711c0-84.516.047-169.032-.056-253.547-.014-11.253,4.185-19.751,14.057-25.289,4.044-2.269,8.544-2.753,13.014-2.762,38.673-.075,77.346-.1,116.02-.017,16.53.036,27.173,10.738,27.175,27.186.021,169.656.005,339.312.031,508.968.002,11.158-4.223,19.788-14.204,25.257-3.725,2.041-7.796,2.573-11.928,2.577-39.297.033-78.594.107-117.891-.024-15.077-.05-25.13-9.942-26.085-25.059-.11-1.742-.126-3.492-.126-5.238-.006-84.016-.005-168.033-.005-252.049ZM364.005,252.618c0,2.494-.193,5.006.054,7.475.248,2.48-.779,2.863-2.949,2.792-4.729-.155-9.468-.106-14.202-.029-3.733.061-5.407,1.783-5.464,5.54-.058,3.864-.1,7.733.029,11.594.124,3.704,1.922,5.397,5.625,5.444,4.734.06,9.472.11,14.202-.029,2.078-.061,2.824.512,2.752,2.682-.154,4.608-.124,9.226-.023,13.837.095,4.326,1.864,6.094,6.185,6.242,3.236.111,6.479.069,9.717.012,5.09-.089,6.714-1.664,6.811-6.727.083-4.362.132-8.731-.028-13.089-.084-2.271.568-3.063,2.921-2.968,4.478.182,8.969.094,13.454.04,4.509-.054,6.26-1.789,6.368-6.364.085-3.614.087-7.233,0-10.846-.107-4.43-1.763-6.062-6.19-6.124-4.609-.064-9.223-.112-13.828.029-2.049.063-2.807-.431-2.732-2.637.166-4.856.072-9.723.016-14.585-.04-3.432-1.776-5.354-5.28-5.393-4.11-.045-8.224-.079-12.332.029-3.282.086-4.991,1.963-5.082,5.217-.074,2.616-.015,5.236-.024,7.854ZM353.902,362.327c.012,12.344,9.251,21.879,21.178,21.859,12.092-.02,21.834-9.759,21.824-21.817-.01-11.68-9.983-21.307-21.973-21.21-11.761.095-21.042,9.437-21.03,21.168ZM392.496,597.809c-.065-9.276-7.874-16.749-17.46-16.71-9.063.037-17.007,8.074-16.83,17.028.187,9.49,7.953,17.25,17.149,17.136,9.726-.12,17.209-7.739,17.141-17.454ZM392.478,649.532c.146-9.41-7.728-17.33-17.279-17.38-8.862-.046-16.97,8.067-16.984,16.993-.014,8.984,7.861,17.259,16.599,17.443,9.375.197,17.518-7.666,17.664-17.056Z"/>
  <path class="cls-1" d="M111.016,581.086c27.812,0,55.625-.036,83.437.016,13.126.025,21.785,6.119,25.873,17.977.944,2.738,1.245,5.582,1.246,8.46.005,38.939-.04,77.879.025,116.818.027,16.571-11.463,27.956-27.818,27.865-55.374-.309-110.751-.319-166.125.003-17.059.099-27.742-12.563-27.654-27.611.227-38.688.071-77.379.079-116.069.004-17.054,10.358-27.425,27.5-27.449,27.812-.038,55.625-.01,83.437-.01Z"/>
</svg>