<?xml version="1.0" encoding="UTF-8"?>
<svg id="_레이어_1" data-name="레이어 1" xmlns="http://www.w3.org/2000/svg" viewBox="0 0 752.511 631.858">
  <defs>
    <style>
      .cls-1 {
        fill: #fff;
        stroke-width: 0px;
      }
    </style>
  </defs>
  <path class="cls-1" d="M752.511,114.943v184.979c-1.659,4.691-1.28,9.678-2.069,14.507-5.775,35.362-24.861,61.913-53.996,81.718-19.729,13.411-41.975,18.365-65.56,18.363-169.915-.015-339.831.004-509.746-.04-9.358-.002-18.692-.694-27.891-2.636-22.106-4.666-40.835-15.517-56.827-31.238C14.248,358.798,1.372,332.501.544,301.269c-.787-29.684-.409-59.402-.41-89.104,0-32.823-.489-65.664.406-98.465C1.528,77.521,17.904,48.581,45.582,25.779,67.604,7.637,93.225-.003,121.457,0c169.791.017,339.581.004,509.372.014,17.513.001,34.446,2.903,50.54,10.116,16.943,7.594,31.042,18.929,42.929,32.981,13.879,16.406,22.707,35.238,26.097,56.586.806,5.075.589,10.283,2.117,15.246ZM375.973,315.785c64.535,0,129.07-.026,193.605.077,3.212.005,4.076-.644,4.071-3.997-.116-69.634-.117-139.268-.002-208.902.006-3.543-.735-4.481-4.407-4.478-128.82.111-257.64.107-386.461.013-3.406-.002-4.256.829-4.251,4.241.107,69.634.107,139.268,0,208.901-.005,3.383.808,4.232,4.214,4.226,64.41-.111,128.82-.082,193.23-.082ZM376.215,78.857c29.197,0,58.394.002,87.592-.001,6.539,0,10.719-3.725,10.849-9.645.129-5.847-4.069-9.943-10.56-9.947-58.644-.036-117.288-.035-175.932-.002-6.556.004-10.764,4.016-10.662,9.846.105,5.987,4.239,9.748,10.747,9.749,29.322.004,58.644.002,87.966.002ZM125.697,125.911c1.321-12.275-8.792-26.57-25.257-27.19-13.92-.524-26.368,9.741-27.17,25.089-.695,13.31,10.616,25.919,24.86,26.604,15.525.746,27.611-11.876,27.566-24.503ZM110.405,197.074c0,.082,0,.164-.001.247-1.997,0-3.999.089-5.99-.02-3.344-.183-4.862,1.499-4.915,4.659-.058,3.493-.059,6.989.028,10.48.078,3.144,1.693,4.798,4.947,4.766,4.119-.041,8.24.071,12.356-.04,1.933-.052,2.633.554,2.574,2.548-.125,4.239.034,8.485-.036,12.726-.046,2.807,1.431,4.27,4,4.396,3.735.183,7.492.165,11.227-.017,2.847-.138,4.58-1.542,4.471-4.771-.139-4.113.066-8.238-.07-12.351-.064-1.956.534-2.609,2.51-2.536,3.739.138,7.488.085,11.232.026,4.941-.079,5.972-1.093,6.063-5.895.054-2.869.054-5.741.002-8.61-.077-4.303-1.082-5.315-5.308-5.353-4.119-.037-8.239-.07-12.356.022-1.598.036-2.216-.407-2.136-2.09.13-2.739.035-5.489.035-8.234q0-9.311-9.16-9.314c-11.067-.019-10.553-.965-10.553,10.512,0,2.945,1.345,6.868-.622,8.562-1.635,1.409-5.45.288-8.299.288ZM657.811,149.004c13.752-.078,24.783-10.791,24.825-24.108.042-13.298-11.365-24.701-24.806-24.798-13.488-.097-25.302,11.694-25.017,24.967.29,13.448,11.326,24.017,24.998,23.94ZM589.059,204.077c.045,7.669,6.141,13.757,13.79,13.774,7.539.017,13.868-6.221,13.944-13.743.079-7.748-6.193-14.122-13.911-14.139-7.765-.017-13.87,6.214-13.824,14.108ZM648.295,203.712c-.067,7.567,5.87,14.015,13.014,14.133,7.5.123,13.884-6.112,13.987-13.66.106-7.787-6.088-14.169-13.805-14.224-7.496-.054-13.125,5.812-13.195,13.751ZM619.044,230.321c.025,7.691,5.895,13.82,13.217,13.801,7.656-.02,13.732-6.075,13.797-13.749.06-7.124-6.407-13.245-13.933-13.188-7.023.053-13.103,6.159-13.08,13.136ZM632.377,190.698c7.571-.044,13.797-6.142,13.672-13.39-.13-7.537-6.516-13.697-14.045-13.548-7.123.141-12.968,6.328-12.967,13.727,0,7.238,6.075,13.254,13.34,13.211ZM365.91,345.878c-.008,5.764,4.362,10.178,10.107,10.208,5.905.031,10.286-4.438,10.245-10.449-.038-5.603-4.242-9.429-10.298-9.369-6.078.06-10.046,3.853-10.054,9.611Z"/>
  <path class="cls-1" d="M376.462,454.082c78.402,0,156.805.036,235.207-.02,26.251-.019,44.368,12.554,55.781,35.59,3.19,6.439,4.702,13.456,4.757,20.601.165,21.715.475,43.442-.036,65.146-.724,30.722-25.648,55.256-56.403,56.289-1.871.063-3.744.11-5.616.11-156.056.005-312.111-.033-468.167.06-16.528.01-31.238-4.281-43.425-15.789-11.584-10.939-18.26-24.364-18.559-40.314-.408-21.709-.49-43.439-.026-65.145.653-30.568,26.543-56.258,57.162-56.397,65.292-.297,130.587-.117,195.88-.131,14.482-.003,28.964,0,43.446,0ZM375.892,532.967h100.738c35.452,0,70.904-.022,106.355.041,2.932.005,5.421-.628,7.4-2.812,2.947-3.251,3.868-6.954,2-11.028-2.007-4.378-5.677-5.84-10.338-5.839-137.313.035-274.627.027-411.94.032-6.769,0-11.181,3.851-11.274,9.773-.092,5.806,4.443,9.831,11.089,9.831,68.657.001,137.313,0,205.97,0Z"/>
  <path class="cls-1" d="M376.123,61.432c4.016.023,7.211,3.353,7.167,7.471-.039,3.672-3.561,7.113-7.252,7.086-3.73-.027-7.153-3.457-7.158-7.173-.005-4.137,3.202-7.407,7.243-7.384Z"/>
</svg>