<?xml version="1.0" encoding="utf-8"?>
<!-- Generator: Adobe Illustrator 28.1.0, SVG Export Plug-In . SVG Version: 6.00 Build 0)  -->
<svg version="1.1" id="Layer_1" xmlns="http://www.w3.org/2000/svg" xmlns:xlink="http://www.w3.org/1999/xlink" x="0px" y="0px"
	 viewBox="0 0 420 420.1" style="enable-background:new 0 0 420 420.1;" xml:space="preserve">
<style type="text/css">
	.st0{fill:#2B374C;}
	.st1{fill:#F4BF2A;}
</style>
<g>
	<circle class="st0" cx="209.7" cy="210.6" r="168"/>
	<path class="st1" d="M420,210.6c0-42.3-13.2-84-36.8-119.4V39.8c0-1.4-1.4-2.8-2.8-2.8H329c-71.5-49.3-165.9-49.3-237.4,0H40.3
		c-0.7,0-1.4,0-2.1,0.7s-0.7,1.4-0.7,2.1v50.7c-50,72.2-50,167.3,0,239.5v50.7c0,1.4,1.4,2.8,2.8,2.8h51.4
		c72.2,49.3,166.6,48.6,238.8-0.7h50.7c1.4,0,2.8-1.4,2.8-3.5l0,0v-50.7C407.5,294.6,420,253,420,210.6z M27.8,210.6
		c0-100.7,81.2-181.9,181.9-181.9s181.9,81.2,181.9,181.9s-81.2,181.9-181.9,181.9l0,0l0,0C109,392.5,27.8,311.3,27.8,210.6z"/>
	<path class="st1" d="M88.9,112h68.7c-1.4,7.6-2.1,15.3-2.1,23.6c2.8,30.5,22.9,115.2,22.9,115.2L211,119l33.4,129.1
		c0,0,20.1-113.9,20.1-121.5c-0.7-5.6-3.5-11.1-8.3-14.6h72.9c-9.7,9-16.7,20.1-20.8,33.3c-6.2,25-28.5,151.3-28.5,159
		c0.7,8.3,3.5,16,8.3,22.9h-68c1.4-6.2,2.1-12.5,2.1-18.7c0-11.8-10.4-66.6-10.4-66.6s-13.9,56.9-13.9,67.3c0,6.2,1.4,12.5,4.2,18
		h-68.7c0,0,13.2-9.7,13.2-18.7c-1.4-25.7-37.5-159.7-40.3-170.1C104.1,128,97.9,118.3,88.9,112z"/>
</g>
</svg>
