<?xml version="1.0" encoding="utf-8"?>
<!-- Generator: Adobe Illustrator 28.1.0, SVG Export Plug-In . SVG Version: 6.00 Build 0)  -->
<svg version="1.1" id="레이어_1" xmlns="http://www.w3.org/2000/svg" xmlns:xlink="http://www.w3.org/1999/xlink" x="0px"
	 y="0px" viewBox="0 0 46 44.8" style="enable-background:new 0 0 46 44.8;" xml:space="preserve">
<style type="text/css">
	.st0{fill:#20222C;}
	.st1{fill:#F4BF2A;}
</style>
<g>
	<g>
		<path class="st0" d="M23.1,34.9C32.4,34.9,40,27.3,40,18S32.4,1.1,23.1,1.1S6.2,8.7,6.2,18S13.7,34.9,23.1,34.9z"/>
		<path class="st1" d="M38.7,9V4.3h-3.9C31.6,1.6,27.6,0,23.1,0s-8.6,1.6-11.7,4.3H7.5V9c-1.5,2.7-2.4,5.7-2.4,9s0.9,6.3,2.4,9v4.7
			h3.9c3.1,2.7,7.2,4.3,11.7,4.3s8.5-1.6,11.7-4.3h3.9V27c1.5-2.6,2.4-5.7,2.4-9C41.1,14.7,40.2,11.7,38.7,9z M23.1,33.3
			c-8.5,0-15.3-6.8-15.3-15.3c0-8.4,6.9-15.3,15.3-15.3S38.4,9.5,38.4,18C38.4,26.4,31.5,33.3,23.1,33.3z"/>
		<path class="st1" d="M26.6,22.8c0,0-0.1,0,0-0.1l-3.2-12.6c-1.1,4.2-2,8.4-3.2,12.6v-0.1c0,0-2.1-10.1-2.4-11.3s0.4-2.5,0.4-2.5
			h-6.3c0.8,0.4,1.2,1.3,1.5,2l3.9,16.9c0.1,0.7-0.5,1.4-1,2.1h6.3c-0.2-0.6-0.4-1.2-0.4-1.9l1.4-6.2c0.4,1.8,0.8,3.7,1.2,5.5
			c0.2,0.8,0.1,1.8-0.3,2.5h6.3c-0.3-0.6-0.8-1.4-0.7-2.3l2.4-14.9c0.3-1.7,1.1-2.6,2-3.7c-2,0-4,0-6.2,0c0.8,0.7,0.3,1.9,0.3,2.8
			L26.6,22.8z"/>
		<path class="st1" d="M12.6,43v-0.2c0,0,0-0.2-0.1-0.2c0-0.1-0.1-0.2-0.1-0.2l-0.1-0.2c0,0,0,0.2,0,0.5s-0.1,0.3-0.1,0.4
			c0,0.1,0,0.1,0,0.1v0.1c0,0,0,0-0.1,0.1v0.1c0,0,0,0-0.1,0c0,0.1,0,0.1-0.1,0.1s-0.1,0-0.1,0s-0.1,0-0.2,0.1s-0.2,0.1-0.2,0.1
			s-0.2,0.1-0.3,0.1s-0.1,0-0.1,0V44l0,0l0,0h-0.2c-0.1,0-0.2,0-0.2,0s-0.2,0-0.3,0s-0.1,0-0.1,0v-0.1v-0.1v-0.1l0,0l0,0l0,0v-0.1
			v-0.1v-0.1H9.9H9.8l0,0H9.7l0,0c0,0-0.1-0.1,0-0.1h0.1c0,0,0.1,0.1,0.1,0H10l0.1-0.1l0,0c0,0,0-0.3,0-0.4S10,42.3,10,42.2
			s0-0.3,0-0.4s0-0.5,0-0.6s0-0.1,0.1-0.1s0-0.2,0-0.2v-0.1c0-0.1,0-0.1,0-0.1s0-0.3,0-0.5s0.1-0.2,0.2-0.3c0.1-0.1,0.1-0.1,0.2-0.1
			l0.1-0.1v-0.1l0,0c0,0,0.1,0,0.1-0.1s0.1-0.1,0.1-0.1l0,0c0,0-0.3,0-0.4,0c-0.1,0-0.1,0.1-0.2,0c-0.1,0-0.3,0-0.3,0h0H9.8l0,0v0.1
			H9.7l-0.1,0.1v0.1v-0.1v-0.1l0,0c0,0-0.1,0-0.2,0c-0.1,0-0.2,0-0.2,0l-0.1,0.1H9v-0.1H8.9H8.6H8.5H8.4c0,0,0,0-0.1,0s-0.2,0-0.2,0
			l0.1,0.1l0,0c0,0,0,0,0.1,0.1c0.1,0,0.1,0.1,0.1,0.1l0.1,0.1c0,0,0.1,0,0.1,0.1s0.1,0.1,0.1,0.3s0,0.3,0,0.3v0.1v0.1
			c0,0,0,0,0,0.2s0,0.3,0,0.3v0.4c0,0.1,0,0.3,0,0.3v0.2c0,0,0,0.3,0,0.4c0,0.1,0,0.2,0,0.2s0,0.1,0,0.2c0,0,0,0.4,0,0.5
			s0,0.4,0,0.5s-0.1,0.3-0.1,0.3l-0.2,0.3c0,0-0.1,0-0.2,0.1C8.1,44.8,8,44.8,8,44.8l-0.1,0.1c0,0,0,0,0.1,0c0.1,0,0.2,0,0.2,0
			c0.1,0,0.2,0,0.2,0h0.1c0,0,0.2-0.1,0.2,0h0.1h0.4h0.6c0.1,0,0.2,0,0.2,0h0.1h0.1c0,0,0.2,0.1,0.2,0s0-0.1,0.1-0.1h0.1l0,0h-0.1
			l0.1,0.1c0,0,0.1,0,0.2,0c0.1,0,0.3,0,0.4,0c0.1,0,0.3,0,0.3,0s0.1-0.1,0.1,0h0.3h0.2c0,0,0.2,0.1,0.2,0.2c0,0,0.1-0.2,0.2-0.4
			c0.1-0.2,0.1-0.4,0.1-0.5s0-0.2,0-0.2s0,0,0-0.1C12.7,43.1,12.7,42.9,12.6,43L12.6,43z M20.2,44c0,0-0.1-0.1-0.2-0.2
			s-0.2-0.2-0.2-0.2l-0.1-0.1v-0.1l-0.1-0.1v-0.1l0,0l-0.1-0.1c0,0-0.1-0.4-0.2-0.5c-0.1-0.2-0.2-0.4-0.2-0.4S19,42,19,41.9
			s-0.1-0.1-0.1-0.1l-0.1-0.1h-0.1h-0.1v-0.1l0.1-0.1v-0.1l-0.1-0.1c0,0-0.2-0.2-0.2-0.3s-0.1-0.3-0.1-0.3l-0.1-0.2
			c0,0-0.1-0.3-0.1-0.4c0,0-0.1-0.3-0.1-0.4l-0.1-0.2c0,0,0-0.2-0.1-0.2s-0.1,0-0.1,0v-0.1c0,0-0.1-0.2-0.1-0.3c0,0-0.2,0.2-0.3,0.3
			l-0.2,0.1l-0.2,0.1c-0.1,0.1-0.1,0.1-0.1,0.1l-0.3,0.2c-0.1,0-0.1,0.1-0.1,0.1l0.1,0.2h-0.1c0,0-0.2,0.1-0.2,0.2
			c0,0.1-0.2,0.1-0.2,0.2c0,0,0.2-0.1,0.3-0.1s0.2,0,0.2,0h0.1h0.2h0.1c0.1,0,0.1,0,0.2,0s0.1,0.1,0.1,0.1l0,0c0,0,0,0,0.1,0.1
			l0.1,0.1c0,0,0,0.1-0.1,0.1l-0.1,0.1l-0.1,0.1c0,0,0,0-0.1,0S16.9,41,16.9,41l0,0c0,0-0.1,0-0.1,0.1c0,0,0,0.1-0.1,0.1
			c0,0.1,0,0.1,0,0.1s0,0-0.1,0.1c0,0.1,0,0.1-0.1,0.2h-0.1c0,0,0,0.1,0,0.2c0,0.1-0.1,0.2-0.1,0.2v0v0.1h-0.1c0,0-0.1,0.2-0.1,0.3
			l0,0h-0.2c0,0-0.2,0-0.3,0s0,0,0,0h-0.1c0,0-0.1,0-0.2,0c-0.1,0-0.2,0.1-0.2,0.1s0,0.1,0.1,0.1s0.3,0.1,0.3,0.1s0.1,0,0.2,0.1
			c0.1,0,0,0,0,0h0.1l0,0l0,0.2H16c0,0-0.2,0.4-0.2,0.6c-0.1,0.1-0.2,0.2-0.2,0.2s0,0-0.1,0.1s-0.3,0.3-0.4,0.3
			c-0.1,0-0.2,0.1-0.2,0.1s-0.1,0-0.1,0.1c0,0,0.2,0,0.3,0.1c0.1,0,0.2,0,0.2,0s0.1,0,0.2,0s0.2,0,0.2,0h0.2H16c0,0,0.1,0,0.2,0
			s0.4,0,0.4,0H17h0.1c0,0-0.1-0.1-0.2-0.1s-0.2-0.1-0.2-0.1l-0.1-0.1c0-0.1,0-0.3,0-0.3v-0.1c0,0,0-0.1,0-0.2s0-0.2,0-0.2l0.1-0.3
			l0.1,0.1H17c0.1,0,0.2,0,0.3,0s0.4,0,0.5,0s0.2,0,0.2,0h0.1c0.1,0,0.1,0,0.2,0s0.2,0,0.2,0h0.1c0,0,0,0.1,0,0.2c0,0.1,0,0.2,0,0.3
			V44c0,0,0.1,0.1,0,0.2c-0.1,0.1-0.2,0.2-0.2,0.2l-0.1,0.1h-0.1c0,0,0.1,0,0.2,0s0.2,0,0.2,0h0.2c0.1,0,0.4,0.1,0.4,0.1h0.2
			c0,0,0.2-0.1,0.3,0c0.1,0,0.2,0,0.2,0s0.1,0,0.2,0h0.1h0.1h0.2h0.2h0.1c0,0-0.3-0.2-0.4-0.3C20.4,44.1,20.2,44,20.2,44L20.2,44z
			 M17.9,42.2c-0.1,0-0.2,0-0.2,0h-0.2l-0.1,0.1h-0.1l0,0h-0.1h-0.1L17,42.2h-0.1v-0.1H17c0,0,0.1-0.3,0.2-0.4
			c0.1-0.1,0.2-0.4,0.2-0.4l0.1-0.2c0.1-0.1,0.1-0.2,0.1-0.2s0.2,0.3,0.2,0.4c0,0.1,0.1,0.1,0.1,0.1s0,0.1,0.1,0.2
			c0,0.1,0.1,0.2,0.1,0.2l0.1,0.2l0.1,0.2C18.1,42.2,18,42.2,17.9,42.2L17.9,42.2z M38.2,39.7c0.2-0.1,0.4-0.2,0.6-0.4
			c0,0,0,0,0-0.1c-0.2,0-0.5,0-0.7,0l0,0c-0.1,0-0.2,0-0.3,0s-0.3,0-0.4,0c-0.2,0-0.4,0-0.6,0.1c-0.2,0-0.3,0-0.5,0
			c0.1,0.1,0.2,0.2,0.3,0.3s0.2,0.2,0.2,0.4s0.1,0.2,0.2,0.4c-0.1,0.2-0.2-0.2-0.2,0.1c0,0.1,0,0.7,0,0.8c0,0.4,0,0.8,0,1.2
			c0,0.3,0,0.7,0.1,1c0,0.5-0.1,0.6-0.4,0.8c-0.1,0.1-0.2,0.1-0.3,0.2l0,0c0.3,0,0.6,0.1,0.9,0c0.3-0.1,0.6,0.1,0.9,0h0.4
			c0.2,0-0.1-0.1,0.1-0.1l0.2,0.1l0,0c-0.1-0.1-0.2-0.2-0.2-0.3c-0.1-0.1-0.2-0.2-0.2-0.3c-0.1-0.1-0.2-0.3-0.1-0.5
			c0.1-0.2,0.1-0.4,0-0.6c0-0.3,0-0.7,0-1c0-0.4,0-0.8,0-1.2C38.2,40.3,38.3,40,38.2,39.7C38,39.8,38.1,39.7,38.2,39.7L38.2,39.7z
			 M25.9,41.8c-0.1-0.1-0.2-0.2-0.4-0.3c-0.1,0-0.2-0.1-0.4-0.1c-0.1,0-0.2-0.2-0.3-0.2c0-0.2-0.1-0.1-0.2-0.1c0,0,0,0,0-0.1
			c-0.1,0-0.3-0.2-0.4-0.3s-0.3-0.2-0.5-0.2c0-0.2,0.2-0.6,0.4-0.7c0.1,0,0.2-0.1,0.3-0.1c0.1,0,0.3,0,0.4,0c0,0,0.1-0.1,0.1,0
			c0.1,0,0.3,0,0.5,0.1c0.1,0,0.1,0.1,0.2,0.1c0.1,0.1,0.1,0.1,0.2,0.1c0.1,0.1,0.2,0.3,0.3,0.5c0.1,0.1,0.2,0.2,0.2,0.4
			c0-0.3,0-0.6-0.1-0.8c0-0.1,0-0.2-0.1-0.4c0-0.2,0-0.4,0-0.6c-0.2,0.3-0.6,0.1-0.9,0.2c-0.4,0-0.7-0.1-1,0c-0.1,0-0.1,0.1-0.2,0.1
			s-0.1,0-0.2,0c-0.2,0-0.3,0.1-0.5,0.2c-0.2,0.2-0.4,0.4-0.6,0.7c-0.1,0.1-0.1,0.2-0.2,0.4c0,0.1,0,0.3-0.1,0.4l-0.1,0.1
			c0.1,0.1,0.2,0.1,0.3,0.1c0.1,0,0.2,0.1,0.3,0.1c0.1,0,0.1,0,0.2,0c0,0.2,0.2,0.3,0.4,0.4c0.1,0.1,0.2,0.1,0.2,0.2
			c0.1,0,0.1,0.2,0.2,0.2l0,0c0.1,0,0.2,0.1,0.3,0.1c0.1,0,0.2,0,0.2,0.2c0.2,0,0.3,0.2,0.5,0.3c0.1,0.1,0.3,0.3,0.5,0.3
			c-0.1,0.3-0.3,0.5-0.5,0.7c-0.2,0.1-0.3,0.1-0.5,0.1L24.3,44c0,0-0.1-0.1-0.1,0c-0.1,0-0.1,0,0,0.1c0,0,0,0-0.1,0
			c0,0.1,0,0.2,0,0.2c0-0.1,0-0.3,0-0.3c-0.1,0-0.4,0-0.5-0.2c-0.1-0.1-0.3-0.3-0.5-0.5c-0.1-0.1-0.2-0.1-0.2-0.2c0,0,0-0.1-0.1-0.1
			c0,0-0.1,0-0.1-0.1c-0.1-0.1-0.1-0.4-0.1-0.5c0,0.2,0,0.3-0.1,0.5s0,0.3,0,0.5c0,0.3-0.1,0.7-0.2,0.9c0.1-0.1,0.1-0.2,0.3-0.3
			c0.2,0,0.3,0.1,0.4,0.1c0.2,0.1,0.5,0.2,0.7,0.3c0.1,0,0.2,0,0.4,0.1l0,0c0.2,0,0.4,0,0.6,0c0.3,0,0.5-0.2,0.8-0.3
			c0.1-0.1,0.2-0.2,0.3-0.3c0.1-0.1,0.1-0.1,0.2-0.2c0.1-0.2,0.3-0.3,0.3-0.6c0.1,0,0.2-0.2,0.2-0.3s0-0.2,0.1-0.2
			c0-0.1,0.2-0.1,0.2-0.1c-0.1-0.1-0.3-0.2-0.4-0.3C26.3,42.1,26,42,25.9,41.8L25.9,41.8z M22.4,41.2L22.4,41.2L22.4,41.2L22.4,41.2
			L22.4,41.2z M32.4,41.8c-0.1-0.1-0.2-0.2-0.3-0.3c-0.1,0-0.2-0.1-0.4-0.1c-0.1,0,0,0-0.1,0c0-0.2-0.1-0.1-0.2-0.1c0,0,0,0,0-0.1
			c-0.1,0-0.5-0.3-0.6-0.4c-0.1-0.1-0.3-0.2-0.5-0.2c0-0.2,0.2-0.6,0.4-0.7c0.1,0,0.2-0.1,0.3-0.1c0.1,0,0.3,0,0.4,0l-0.1-0.2
			c0.1,0,0.2,0.1,0.2,0.2c0.1,0,0.3,0,0.4,0.1c0.1,0,0.1,0.1,0.2,0.1c0.1,0.1,0.1,0.1,0.2,0.1c0.1,0.1,0.2,0.3,0.3,0.5
			c0.1,0.1,0.3,0.2,0.3,0.4c0-0.3-0.1-0.6-0.2-0.9c0-0.1,0-0.2-0.1-0.4c0-0.2,0-0.4,0-0.6c-0.2,0.3-0.6,0.2-0.9,0.2
			c-0.4,0-0.7-0.1-1,0c-0.1,0-0.1,0.1-0.1,0.2s-0.2-0.1-0.2-0.1c-0.2,0-0.3,0.1-0.5,0.2c-0.2,0.2-0.4,0.4-0.6,0.7
			c-0.1,0.1-0.1,0.2-0.2,0.4c0,0.1,0,0.3-0.1,0.4c0,0-0.1,0-0.1,0.1c0.1,0.1,0.2,0.2,0.3,0.2c0.1,0,0.5,0.3,0.6,0.3s0.1,0,0.2,0
			c0,0.2-0.1,0.1,0.1,0.2c0.1,0.1,0.2,0.1,0.2,0.2c0.1,0,0.1,0.2,0.2,0.2L30.4,42c0.1,0,0.3,0.4,0.4,0.4s0.2,0,0.2,0.2
			c0.2,0,0.3,0.2,0.5,0.3c0.1,0.1,0.3,0.3,0.5,0.3c-0.1,0.3-0.3,0.5-0.5,0.7C31.3,44,31.2,44,31,44l-0.1,0.1h-0.1c0,0-0.1,0.1-0.1,0
			c-0.2,0-0.3,0-0.5-0.2c-0.1-0.1-0.3-0.3-0.5-0.5c-0.1-0.1-0.2,0-0.2-0.1c0,0,0-0.1-0.1-0.1c0,0,0-0.2-0.1-0.2
			c-0.1-0.1-0.1-0.4-0.1-0.5c0,0.2-0.1,0.3-0.1,0.5s0,0.3,0,0.5c0,0.3-0.1,0.7-0.2,0.9c0.1-0.1,0.1-0.2,0.3-0.3
			c0.2,0,0.3,0.1,0.4,0.1c0.2,0.1,0.5,0.2,0.7,0.3c0.1,0,0.3,0,0.4,0.1l0,0c0.2,0,0.4-0.1,0.6-0.1c0.3,0,0.5-0.2,0.8-0.3
			c0.1-0.1,0.2-0.2,0.3-0.3s0.1-0.1,0.2-0.2c0.1-0.2,0.3-0.3,0.3-0.6c0.1,0,0.2-0.2,0.2-0.3s0,0,0.1-0.1c0-0.1,0.2-0.3,0.2-0.3
			c-0.1-0.1-0.3-0.2-0.4-0.3C32.8,42,32.6,42,32.4,41.8L32.4,41.8z M29,41.2L29,41.2C29,41.2,29,41.1,29,41.2L29,41.2L29,41.2z
			 M0,41.5L0,41.5L0,41.5z M5.1,43.4c-0.1,0.1-0.2,0.2-0.3,0.3c-0.1,0-0.1,0.1-0.2,0.1s-0.1,0-0.2,0v0.1c-0.1,0-0.1,0-0.2,0H3.9l0,0
			H3.8l0,0H3.6c-0.2,0-0.5-0.1-0.7-0.2c-0.1-0.1-0.2-0.2-0.3-0.3c-0.1,0-0.2,0-0.2-0.1v-0.1c-0.2-0.3-0.5-0.5-0.6-0.9
			c-0.1-0.3-0.1-0.6-0.2-0.8c0.1-0.1,0.1-0.2,0.1-0.3c-0.1-0.2,0-0.2,0.1-0.3c0.2-0.3,0.4-0.4,0.7-0.6C2.7,40.1,2.9,40,3.1,40
			c0.1,0,0.1,0,0.1,0c0.1,0,0.1-0.1,0.1-0.1c0.1,0,0.3,0,0.4,0V40c0.1,0,0.1,0,0.2,0C4,40,4,40.1,4.1,40.1c0.1,0.1,0.2,0.2,0.3,0.3
			c0.1,0.1,0.2,0.3,0.3,0.4C4.9,40.9,5,40.9,5.1,41c-0.1-0.4-0.2-0.7-0.2-1.1c0-0.2-0.1-0.4-0.2-0.5c0-0.1-0.1-0.5-0.2-0.6
			c-0.2,0.3-0.2,0.5-0.4,0.5c-0.2,0-0.5-0.1-0.7-0.1s-0.4,0-0.7,0c-0.1,0-0.2,0.1-0.3,0.1s-0.2,0-0.2,0c-0.2,0-0.4,0.3-0.6,0.4
			c0,0.1,0,0.2,0.2,0.3l-0.4-0.1L1.3,40c-0.2,0.1-0.2,0.3-0.4,0.5c-0.1,0.1-0.1,0.1-0.2,0.2c-0.1,0.1-0.1,0.2-0.1,0.4
			c-0.1,0.2-0.3,0.3-0.5,0.5c0.1,0.1,0.2,0.3,0.3,0.4c0,0.1,0.1,0.2,0.1,0.3c0,0.2,0,0.2,0.1,0.4c0.1,0.1,0.1,0.2,0.2,0.4
			S1,43.5,1,43.6c0.1,0.2,0.2,0.2,0.3,0.3C1.5,44,1.7,44.2,2,44.3c0.1,0.2,0.5,0.3,0.7,0.3s0.5,0,0.7,0s0.3-0.1,0.4-0.1l0,0
			c0.1,0,0.2,0,0.3,0c0.1,0,0.2,0,0.3,0c0.1,0,0.2,0,0.3-0.1c0.2,0,0.2,0.1,0.3,0.3c0.1-0.1,0.1-0.3,0.2-0.4v-0.1c0,0,0,0,0.1,0l0,0
			c0.1-0.1,0.1-0.3,0.1-0.4c0-0.4,0.1-0.7,0.2-1.1c-0.1,0.1-0.2,0.2-0.3,0.2C5.2,43.1,5.2,43.2,5.1,43.4L5.1,43.4z M45.7,43.2
			c-0.1,0.1-0.2,0-0.3,0.2c-0.1,0.1-0.2,0.2-0.3,0.3c-0.1,0-0.1,0.1-0.2,0.1c-0.1,0-0.1,0-0.2,0v0.1c-0.1,0-0.1,0-0.2,0h-0.3l0,0
			h-0.1l0,0H44c-0.2,0-0.5-0.1-0.7-0.2c-0.1-0.1-0.2-0.2-0.3-0.3c-0.1,0-0.2,0-0.2-0.1v-0.1c-0.2-0.3-0.5-0.4-0.6-0.8
			c-0.1-0.3-0.1-0.6-0.2-0.8c0.1-0.1,0.1-0.2,0.2-0.3c0.1-0.1,0.1-0.2,0.2-0.3c0.2-0.3,0.4-0.4,0.7-0.6c0.2-0.1,0.4-0.2,0.7-0.3
			c0.1,0,0.1,0,0.1,0s0-0.1,0.1-0.1s0.5,0,0.6,0l-0.2,0.1c0.1,0,0.1,0,0.1,0c0.1,0,0.1,0.1,0.2,0.1c0.1,0.1,0.2,0.2,0.3,0.3
			s0.2,0.3,0.3,0.4c0.1,0.1,0.2,0.1,0.3,0.2c-0.1-0.4-0.2-0.7-0.2-1.1c0-0.2-0.1-0.4-0.2-0.5c0-0.1-0.1-0.4-0.2-0.4
			c-0.1,0.3-0.2,0.3-0.5,0.3c-0.2,0-0.5-0.1-0.7-0.1s-0.4,0-0.7,0c-0.1,0-0.2,0.1-0.3,0.1s-0.2,0-0.2,0c-0.2,0-0.4,0.3-0.6,0.4
			c0,0.1-0.2,0.1-0.2,0.1L41.7,40c-0.2,0.1-0.2,0.7-0.3,0.9c-0.1,0.1,0-0.5,0-0.5c-0.1,0.1-0.3,0.5-0.3,0.7
			c-0.1,0.2-0.2,0.4-0.3,0.6l-0.1,0.1c0.1,0.1,0.2,0.1,0.2,0.2c0,0.1,0.1,0.2,0.2,0.3c0,0.2,0,0.2,0.1,0.3s0.1,0.2,0.2,0.4
			c0.1,0.2,0.2,0.4,0.2,0.5c0.1,0.2,0.2,0.2,0.3,0.3c0.2,0.2,0.4,0.3,0.7,0.4c0.1,0.2,0.5,0.4,0.7,0.3c0.2,0,0.5,0,0.7,0
			s0.3-0.1,0.4-0.1l0,0c0.1,0,0.2,0,0.3,0s0.2,0,0.3,0s0.2,0,0.2-0.1c0.2,0,0.2,0.1,0.3,0.3c0.1-0.1,0.1-0.3,0.1-0.4v-0.1
			c0,0,0,0,0.1,0l0,0c0.1-0.1,0.1-0.3,0.1-0.4c0-0.4,0.1-0.7,0.2-1.1C45.9,42.9,45.8,43.1,45.7,43.2L45.7,43.2z"/>
	</g>
</g>
</svg>
