<?xml version="1.0" encoding="utf-8"?>
<!-- Generator: Adobe Illustrator 28.1.0, SVG Export Plug-In . SVG Version: 6.00 Build 0)  -->
<svg version="1.1" id="_레이어_1" xmlns="http://www.w3.org/2000/svg" xmlns:xlink="http://www.w3.org/1999/xlink" x="0px"
	 y="0px" viewBox="0 0 244.3 302" style="enable-background:new 0 0 244.3 302;" xml:space="preserve">
<style type="text/css">
	.st0{fill:url(#SVGID_1_);}
	.st1{fill:url(#SVGID_00000170989153225927599580000012589999515321760947_);}
	.st2{fill:#0155A6;}
	.st3{fill:#C60952;}
	.st4{fill:#02A172;}
</style>
<linearGradient id="SVGID_1_" gradientUnits="userSpaceOnUse" x1="78.9074" y1="268.6664" x2="93.0364" y2="110.9245">
	<stop  offset="0" style="stop-color:#9C0849"/>
	<stop  offset="1" style="stop-color:#290F2F"/>
</linearGradient>
<path class="st0" d="M99.7,175.8c-0.2-2.2,0.3-4.7-1.5-6.7c-0.7-18.7-1.8-37.3,0.6-56c1-7.4,3-14.7,2.5-22.3c-0.4,0.3-1,0.6-1.2,0.9
	c-6.5,19-13,38-19.5,56.9c-6.7,19.1-13.3,38.3-20,57.4c-0.6,1.7,0,4.2-3,4.9c0.3,0.8,0.6,1.5,0.8,2.3c4.5,22.7,12.2,44.5,22.3,65.6
	c0.9-1.6,1.9-3.2,2.7-4.9c8.7-17.1,17.3-34.2,26-51.3C106.3,207.1,100.9,191.8,99.7,175.8z"/>
<linearGradient id="SVGID_00000094587094868843290920000003637864063687818924_" gradientUnits="userSpaceOnUse" x1="168.0005" y1="228.1369" x2="188.1295" y2="115.4917">
	<stop  offset="0" style="stop-color:#00855C"/>
	<stop  offset="1" style="stop-color:#0A2C25"/>
</linearGradient>
<path style="fill:url(#SVGID_00000094587094868843290920000003637864063687818924_);" d="M196.1,182.1c-1.9-8.4-4.5-16.7-5-25.3
	c-0.9-10.3-1.1-20.5-0.3-30.8c0.7-9.1,3-18,3.6-27.1c-0.5,0.4-1.3,0.8-1.5,1.3c-5.9,13.5-11.7,27.1-17.5,40.7
	c-1.1,2.3-2.3,4.5-3.3,6.8c-6.3,13.9-12.5,27.9-18.8,41.9c3,16,8.7,31.3,15.6,46.2c9.4-16,18.8-32.1,28.2-48.1
	C197,185.6,196.5,183.9,196.1,182.1L196.1,182.1z"/>
<path class="st2" d="M0,145.5C-0.1,93.3,6.3,47.8,20.8,3.4c1.2-3.7,2.5-4.1,5.8-2.8c15.2,6,30.5,11.9,45.8,17.7
	c2.6,1,3.9,1.7,2.7,5.1c-9,24.9-14.8,50.6-18.1,77c-3,23.9-3.8,47.7-1.7,71.6c3.2,35.8,11,70.6,24.5,103.9c1.7,4.1,0.8,5.5-3,7
	c-14.4,5.9-28.7,12-42.9,18.2c-3.2,1.4-4.5,0.8-5.7-2.4C17.9,272.1,10.5,244.6,6,216.2C2,190.9-0.3,165.5,0,145.5z"/>
<path class="st3" d="M97,140.2c-1-30.9,5.6-63.8,16-96.1c1.3-4,2.6-4.7,6.8-3c14.6,6.1,29.5,11.7,44.3,17.1c3.8,1.4,4.1,3,2.9,6.4
	c-7,19.5-11.6,39.6-13.9,60.1c-4.1,36.8,0.9,72.5,14.5,106.9c1.9,4.9,1.1,6.8-3.6,8.6c-13.6,5.4-27.1,11.3-40.6,17.1
	c-2.5,1.1-3.9,1.3-5.1-1.8c-10.7-28-18.6-56.6-20.6-86.7C97.1,160.3,97.2,151.9,97,140.2z"/>
<path class="st4" d="M189.1,142.2c0.1-21.8,3-41.2,9.6-60.1c1.1-3.2,2.1-3.6,5.1-2.4c12.2,5,24.5,9.9,36.8,14.7
	c2.9,1.1,3.9,2.2,2.8,5.8c-4.3,14.2-6.8,28.6-6.4,43.6c0.3,12.7,2.5,25,6.8,36.9c1.1,3.1,0.5,4.4-2.5,5.7
	c-12,5.1-23.9,10.4-35.8,15.7c-2.4,1.1-3.3,0.8-4.6-1.8C191.1,181.4,189.5,161,189.1,142.2z"/>
</svg>
