<?xml version="1.0" encoding="UTF-8"?>
<svg id="_레이어_1" data-name="레이어 1" xmlns="http://www.w3.org/2000/svg" viewBox="0 0 176.1 486.118">
  <defs>
    <style>
      .cls-1 {
        fill: #fff;
        stroke-width: 0px;
      }
    </style>
  </defs>
  <path class="cls-1" d="M88.021,486.105c-28.911,0-57.821,0-86.732,0-1.432,0-1.345.006-1.233-1.415.253-3.216.405-6.441.61-9.661.285-4.484.588-8.967.871-13.452.199-3.137.371-6.275.569-9.412.285-4.528.589-9.056.872-13.584.199-3.182.367-6.365.568-9.547.281-4.448.586-8.895.869-13.343.2-3.137.372-6.275.57-9.412.286-4.526.588-9.051.874-13.577.196-3.101.369-6.204.565-9.305.286-4.529.588-9.057.872-13.586.199-3.18.367-6.362.569-9.542.281-4.443.586-8.884.871-13.326.194-3.021.38-6.042.555-9.064.251-4.335.694-8.671.684-13.005-.016-7.098-.323-14.195-.52-21.292-.149-5.381-.319-10.762-.477-16.143-.162-5.501-.318-11.003-.481-16.504-.156-5.26-.324-10.519-.478-15.778-.166-5.659-.318-11.317-.482-16.976-.156-5.38-.321-10.76-.478-16.141-.162-5.541-.319-11.083-.481-16.624-.158-5.379-.321-10.759-.479-16.138-.162-5.537-.318-11.075-.481-16.613-.157-5.34-.322-10.68-.478-16.02-.163-5.581-.318-11.163-.482-16.744-.156-5.341-.322-10.682-.478-16.023-.163-5.577-.318-11.155-.482-16.732-.156-5.3-.322-10.601-.478-15.901-.165-5.621-.317-11.241-.482-16.862-.155-5.261-.323-10.522-.477-15.783-.165-5.619-.318-11.238-.482-16.857-.156-5.339-.322-10.678-.478-16.017-.163-5.58-.24-11.164-.517-16.739-.129-2.593.038-5.192-.223-7.773C.455.167.842-.125,1.789.046c.077.014.16.002.24.002,57.381,0,114.763.005,172.144-.033,1.247,0,1.475.329,1.436,1.495-.217,6.378-.283,12.761-.528,19.138-.202,5.257-.332,10.516-.483,15.774-.163,5.661-.332,11.321-.489,16.982-.144,5.181-.326,10.361-.469,15.543-.158,5.74-.34,11.479-.493,17.22-.132,4.978-.337,9.955-.459,14.935-.145,5.901-.355,11.8-.503,17.701-.132,5.26-.308,10.521-.465,15.781-.168,5.661-.338,11.321-.492,16.982-.143,5.259-.329,10.517-.473,15.777-.154,5.659-.334,11.318-.489,16.977-.139,5.101-.327,10.201-.463,15.304-.156,5.82-.345,11.64-.499,17.46-.125,4.701-.336,9.401-.445,14.104-.143,6.178-.371,12.353-.514,18.531-.124,5.341-.321,10.681-.471,16.023-.156,5.581-.324,11.161-.485,16.742-.154,5.34-.323,10.68-.475,16.021-.158,5.578-.292,11.158-.512,16.732-.126,3.183-.256,6.379-.264,9.553-.011,4.289.482,8.579.756,12.868.099,1.55.198,3.099.286,4.649.277,4.883.533,9.766.943,14.641.243,2.895.32,5.804.503,8.705.298,4.729.628,9.456.934,14.184.177,2.742.351,5.484.498,8.227.263,4.926.55,9.849.946,14.767.236,2.935.315,5.881.502,8.82.298,4.685.637,9.368.938,14.052.184,2.862.316,5.728.5,8.591.305,4.765.693,9.526.929,14.295.138,2.781.332,5.558.498,8.336.292,4.886.588,9.77.931,14.653.195,2.78.323,5.567.511,8.349.123,1.829.157,3.664.28,5.493.036.529-.082.74-.623.688-.317-.031-.639-.005-.959-.005-28.831,0-57.661,0-86.492,0ZM88.283,27.434c-19.235,0-38.47,0-57.705,0-.24,0-.483.025-.719-.005-.654-.081-.914.117-.876.844.077,1.51.183,3.026.204,4.532.077,5.502.34,10.998.482,16.497.139,5.379.34,10.755.477,16.133.141,5.502.341,11.002.482,16.503.139,5.422.335,10.842.48,16.263.148,5.502.326,11.003.481,16.504.152,5.382.334,10.763.476,16.144.146,5.501.339,11,.482,16.501.139,5.381.342,10.76.478,16.141.14,5.539.341,11.075.483,16.613.137,5.339.342,10.675.476,16.013.139,5.582.34,11.161.485,16.742.138,5.342.334,10.683.478,16.024.151,5.582.334,11.162.482,16.744.141,5.302.348,10.602.473,15.903.138,5.859.335,11.715.489,17.573.132,5.019.355,10.035.462,15.051.137,6.456.377,12.909.53,19.364.035,1.461.141,2.934.163,4.381.06,3.894.134,7.791-.107,11.698-.254,4.109-.591,8.214-.795,12.327-.142,2.863-.356,5.722-.497,8.586-.225,4.562-.633,9.115-.924,13.674-.198,3.097-.26,6.203-.505,9.296-.393,4.959-.653,9.925-.951,14.89-.165,2.744-.357,5.485-.494,8.231-.245,4.891-.62,9.776-.929,14.664-.178,2.822-.323,5.646-.501,8.468-.305,4.843-.627,9.685-.938,14.527-.184,2.858-.377,5.714-.514,8.575-.232,4.846-.584,9.688-.947,14.527-.081,1.084.227,1.336,1.309,1.335,34.431-.032,68.862-.026,103.292-.026,3.959,0,7.918-.014,11.877.014.645.004.926-.118.878-.836-.142-2.145-.202-4.296-.338-6.442-.278-4.403-.598-8.803-.875-13.206-.206-3.261-.358-6.524-.56-9.785-.283-4.569-.596-9.136-.883-13.705-.197-3.142-.356-6.286-.559-9.428-.279-4.327-.599-8.651-.872-12.978-.211-3.339-.314-6.685-.574-10.019-.467-5.995-.547-12.011-1.072-18.004-.213-2.43-.35-4.876-.486-7.314-.217-3.902-.491-7.799-.723-11.698-.143-2.402-.36-4.801-.47-7.199-.189-4.104-.498-8.198-.74-12.297-.091-1.537.15-3.089.171-4.619.065-4.735.275-9.463.444-14.194.197-5.497.328-10.996.489-16.494.159-5.416.321-10.833.479-16.249.161-5.496.319-10.992.481-16.488.158-5.379.321-10.758.479-16.137.162-5.5.32-11,.481-16.5.159-5.421.32-10.842.479-16.263.161-5.461.32-10.923.48-16.384.159-5.421.32-10.842.48-16.263.161-5.461.32-10.922.48-16.383.16-5.457.319-10.915.48-16.372.159-5.418.32-10.835.48-16.253.161-5.46.32-10.92.48-16.38.16-5.46.32-10.92.48-16.381.159-5.422.321-10.843.479-16.265.161-5.501.319-11.003.481-16.504.158-5.381.322-10.761.479-16.142.163-5.581.287-11.163.509-16.741.045-1.128-.281-1.35-1.351-1.348-19.275.033-38.55.024-57.825.024Z"/>
  <path class="cls-1" d="M74.327,155.867V61.141q0-1.591,1.65-1.591c8.236,0,16.473.016,24.709-.022.94-.004,1.261.136,1.261,1.191-.031,63.431-.031,126.862,0,190.293,0,1.047-.309,1.201-1.258,1.197-8.356-.039-16.713-.05-25.069.009-1.152.008-1.315-.36-1.315-1.383.026-31.655.021-63.311.021-94.966Z"/>
  <path class="cls-1" d="M101.919,325.57c.441,7.559-6.109,14.532-14.947,13.927-5.998-.41-13.429-5.552-12.666-15.246.551-6.996,6.253-12.573,13.875-12.559,7.755.014,14.024,6.111,13.738,13.877Z"/>
</svg>