<?xml version="1.0" encoding="utf-8"?>
<!-- Generator: Adobe Illustrator 28.2.0, SVG Export Plug-In . SVG Version: 6.00 Build 0)  -->
<svg version="1.1" id="레이어_1" xmlns="http://www.w3.org/2000/svg" xmlns:xlink="http://www.w3.org/1999/xlink" x="0px"
	 y="0px" viewBox="0 0 12 12" style="enable-background:new 0 0 12 12;" xml:space="preserve">
<style type="text/css">
	.st0{fill:#FFFFFF;}
</style>
<path class="st0" d="M1.5,1.9c0-0.1,0-0.2,0.1-0.3s0.2-0.1,0.3-0.1s0.2,0,0.3,0.1s0.1,0.2,0.1,0.3s0,0.2-0.1,0.3S2,2.2,1.9,2.2
	s-0.2,0-0.3-0.1S1.5,2,1.5,1.9z M12,10.8c0,0.2,0,0.4-0.1,0.6s-0.2,0.3-0.4,0.5c-0.1,0-0.1,0.1-0.2,0.1s-0.1,0-0.2,0
	c-0.1,0-0.3,0-0.4-0.1s-0.2-0.2-0.3-0.3s-0.2-0.2-0.3-0.4s-0.2-0.2-0.3-0.2c0,0-0.1,0-0.1,0s-0.1,0-0.1,0H8.1c-0.1,0-0.2,0-0.3,0.1
	s-0.2,0.1-0.2,0.2s-0.2,0.2-0.2,0.3s-0.2,0.2-0.2,0.3s-0.2,0.2-0.3,0.2S6.7,12,6.6,12c-0.1,0-0.2,0-0.2,0s-0.1-0.1-0.2-0.1
	c-0.2-0.1-0.3-0.3-0.4-0.5S5.6,11,5.6,10.8v-0.1c0,0,0-0.1,0-0.1c0-0.1,0-0.2,0.1-0.3s0.1-0.3,0.1-0.4S5.9,9.4,6,9.3
	s0.1-0.3,0.2-0.5s0.1-0.3,0.2-0.4s0.1-0.2,0.2-0.3c0-0.1,0.1-0.2,0.2-0.3c0.1,0,0.1-0.1,0.2-0.1s0.2-0.1,0.3-0.1s0.2,0,0.3-0.1
	s0.2,0,0.2,0s0.1,0,0.2,0s0.1,0,0.1,0s0.1,0,0.1,0.1s0.1,0,0.1,0.1h1c0.1,0,0.1-0.1,0.1-0.1s0.1,0,0.1-0.1s0.1,0,0.1,0s0.1,0,0.2,0
	c0.1,0,0.2,0,0.3,0s0.2,0,0.3,0s0.2,0,0.3,0.1s0.2,0.1,0.2,0.1c0.1,0,0.1,0.1,0.1,0.1s0,0.1,0.1,0.2c0,0,0.1,0.1,0.2,0.2
	s0.1,0.2,0.2,0.4s0.1,0.3,0.2,0.4s0.1,0.3,0.2,0.5s0.1,0.3,0.1,0.4s0.1,0.2,0.1,0.3C12,10.4,12,10.6,12,10.8z M11.2,10.8
	c0-0.1,0-0.3,0-0.4c0-0.1-0.1-0.2-0.1-0.4S11,9.7,11,9.6s-0.1-0.3-0.2-0.4s-0.1-0.3-0.2-0.3l0-0.1c0,0,0-0.1-0.1-0.1
	c0,0-0.1-0.1-0.1-0.1s0,0-0.1,0s0,0-0.1-0.1s0-0.1,0-0.1c-0.1,0-0.2,0-0.2-0.1s-0.2,0-0.3,0c-0.1,0-0.1,0-0.1,0.1s-0.1,0-0.1,0.1
	s-0.1,0-0.1,0s-0.1,0-0.2,0h-1c-0.1,0-0.1,0-0.2,0s-0.1,0-0.1,0S8,8.3,7.9,8.3S7.9,8.3,7.8,8.2c-0.1,0-0.2,0-0.3,0s-0.2,0-0.3,0.1
	c0,0.1,0,0.1-0.1,0.2S7.1,8.6,7.1,8.6c0,0,0,0.1,0,0.1s0,0.1,0,0.1C6.9,8.9,6.9,9.1,6.8,9.2S6.7,9.6,6.6,9.8s-0.1,0.4-0.2,0.6
	s-0.1,0.3-0.1,0.5c0,0.1,0,0.2,0,0.2s0.1,0.1,0.1,0.2c0.1-0.1,0.2-0.2,0.3-0.3S7,10.7,7,10.7s0.1-0.2,0.2-0.2s0.2-0.1,0.2-0.2
	s0.2-0.1,0.3-0.1s0.3,0,0.5,0h1.1c0.2,0,0.3,0,0.5,0s0.2,0.1,0.3,0.1s0.2,0.1,0.2,0.2s0.1,0.1,0.2,0.2s0.1,0.2,0.2,0.3
	s0.2,0.2,0.3,0.3c0.1,0,0.1-0.1,0.1-0.2S11.2,10.9,11.2,10.8z M5.2,9.1V0.8H0.8v10.5h0.8V6h0.8v5.2h2.7c0,0.3,0.1,0.5,0.3,0.8H0V0h6
	v7.4c0,0.1-0.1,0.1-0.1,0.2s0,0.1-0.1,0.2l0,0.1c0,0,0,0.1-0.1,0.1C5.6,8.1,5.6,8.3,5.5,8.5S5.3,8.9,5.2,9.1z M8.8,8.6
	c0.1,0,0.1,0,0.1,0.1S9,8.8,9,8.8s0,0.1-0.1,0.1S8.9,9,8.8,9S8.7,9,8.7,8.9S8.6,8.9,8.6,8.8s0-0.1,0.1-0.1S8.8,8.6,8.8,8.6z"/>
</svg>
