<?xml version="1.0" encoding="UTF-8"?>
<svg xmlns="http://www.w3.org/2000/svg" xmlns:xlink="http://www.w3.org/1999/xlink" width="px" height="1000px" viewBox="0 0 1000 1000" version="1.1">
<g id="surface1">
<path style=" stroke:none;fill-rule:nonzero;fill:rgb(100%,100%,100%);fill-opacity:1;" d="M 451.136719 987.5 C 376.136719 980.683594 300 953.410156 234.089844 910.226562 C 179.546875 873.863281 167.046875 860.226562 167.046875 830.683594 C 167.046875 771.589844 231.816406 668.183594 343.183594 550 C 405.683594 482.953125 494.316406 404.546875 503.410156 406.816406 C 521.589844 411.363281 669.316406 554.546875 725 622.726562 C 812.5 730.683594 852.273438 818.183594 831.816406 856.816406 C 815.910156 886.363281 720.453125 944.316406 648.863281 967.046875 C 590.910156 986.363281 514.773438 993.183594 451.136719 987.5 Z M 93.183594 769.316406 C 47.726562 698.863281 25 630.683594 13.636719 530.683594 C 9.089844 497.726562 11.363281 479.546875 21.589844 411.363281 C 35.226562 327.273438 82.953125 229.546875 140.910156 170.453125 C 165.910156 145.453125 168.183594 144.316406 197.726562 154.546875 C 234.089844 167.046875 272.726562 193.183594 332.953125 247.726562 L 368.183594 279.546875 L 348.863281 303.410156 C 260.226562 412.5 165.910156 567.046875 130.683594 663.636719 C 111.363281 715.910156 103.410156 768.183594 112.5 789.773438 C 117.046875 803.410156 111.363281 797.726562 93.183594 769.316406 Z M 893.183594 781.816406 C 897.726562 760.226562 892.046875 719.316406 878.410156 678.410156 C 850 589.773438 752.273438 426.136719 663.636719 314.773438 L 636.363281 278.410156 L 667.046875 251.136719 C 706.816406 214.773438 734.089844 193.183594 763.636719 175 C 787.5 160.226562 820.453125 147.726562 834.089844 147.726562 C 843.183594 147.726562 873.863281 180.683594 898.863281 214.773438 C 937.5 269.316406 965.910156 335.226562 980.683594 404.546875 C 989.773438 448.863281 990.910156 544.316406 981.816406 588.636719 C 975 625 960.226562 672.726562 945.453125 704.546875 C 934.089844 728.410156 906.816406 775 895.453125 790.910156 C 889.773438 797.726562 889.773438 797.726562 893.183594 781.816406 Z M 459.089844 130.683594 C 418.183594 110.226562 354.546875 87.5 320.453125 81.816406 C 307.953125 79.546875 287.5 78.410156 273.863281 79.546875 C 245.453125 80.683594 246.589844 79.546875 292.046875 57.953125 C 330.683594 39.773438 362.5 29.546875 405.683594 20.453125 C 454.546875 10.226562 546.589844 10.226562 594.316406 20.453125 C 646.589844 31.816406 707.953125 54.546875 742.046875 75 L 752.273438 81.816406 L 730.683594 79.546875 C 684.089844 77.273438 615.910156 96.589844 542.046875 131.816406 C 520.453125 142.046875 501.136719 151.136719 498.863281 151.136719 C 497.726562 150 479.546875 140.910156 459.089844 130.683594 Z M 459.089844 130.683594 "/>
</g>
</svg>
