<?xml version="1.0" encoding="UTF-8"?>
<svg xmlns="http://www.w3.org/2000/svg" xmlns:xlink="http://www.w3.org/1999/xlink" width="px" height="100px" viewBox="0 0 100 100" version="1.1">
<g id="surface1">
<path style=" stroke:none;fill-rule:nonzero;fill:rgb(100%,100%,100%);fill-opacity:1;" d="M 100 25 L 100 68.332031 L 0 68.332031 L 0 25 Z M 93.332031 31.667969 L 6.667969 31.667969 L 6.667969 44.167969 L 44.167969 44.167969 L 44.167969 50 L 6.667969 50 L 6.667969 62.5 L 94.167969 62.5 L 94.167969 31.667969 Z M 78.332031 50 C 77.5 50 76.667969 50 75.832031 49.167969 C 75 48.332031 75 47.5 75 46.667969 C 75 45.832031 75 45 75.832031 44.167969 C 76.667969 43.332031 77.5 43.332031 78.332031 43.332031 C 79.167969 43.332031 80 43.332031 80.832031 44.167969 C 81.667969 45 81.667969 45.832031 81.667969 46.667969 C 81.667969 47.5 81.667969 48.332031 80.832031 49.167969 C 80 50 79.167969 50 78.332031 50 Z M 78.332031 50 "/>
</g>
</svg>
