<?xml version="1.0" encoding="utf-8"?>
<!-- Generator: Adobe Illustrator 28.1.0, SVG Export Plug-In . SVG Version: 6.00 Build 0)  -->
<svg version="1.1" id="_레이어_1" xmlns="http://www.w3.org/2000/svg" xmlns:xlink="http://www.w3.org/1999/xlink" x="0px"
	 y="0px" viewBox="0 0 1124.3 491.5" style="enable-background:new 0 0 1124.3 491.5;" xml:space="preserve">
<style type="text/css">
	.st0{fill:#FFFFFF;}
</style>
<path class="st0" d="M562,0.1c185.8,0,371.7,0,557.5-0.1c3.9,0,4.8,1,4.8,4.8c-0.1,160.7-0.1,321.5,0,482.2c0,3.5-0.6,4.5-4.4,4.5
	c-325-0.1-649.9-0.1-974.9,0c-3.7,0-4.4-1-4.4-4.5c0.1-43.8,0-87.6,0.2-131.4c0-4-1.2-4.6-4.8-4.6c-44.1,0.1-88.2,0-132.3,0.2
	c-3.2,0-3.8-0.9-3.8-3.9C0.1,232.9,0.1,118.5,0,4c0-3.4,0.9-4,4.1-4C190.1,0.1,376,0.1,562,0.1L562,0.1z M561.9,280.9
	c162.6,0,325.2,0,487.8,0.1c3.3,0,4.3-0.7,4.3-4.2c-0.1-67.3-0.1-134.5,0-201.8c0-3.6-0.6-4.7-4.6-4.7c-325,0.1-650,0.1-974.9,0
	c-3.4,0-4.2,0.8-4.2,4.2c0.1,67.1,0.1,134.3,0.1,201.4c0,3.3,1.6,5,4.8,5C237.5,280.9,399.7,280.9,561.9,280.9L561.9,280.9z
	 M632.5,351.2c-139,0-278,0-417-0.1c-3.9,0-4.6,1.1-4.6,4.7c0.2,20.5,0.2,40.9,0,61.4c0,3.4,0.9,4.2,4.3,4.2
	c89.8-0.1,179.6-0.1,269.4-0.1c188.5,0,376.9,0,565.4,0.1c3.4,0,4.3-0.9,4.2-4.3c-0.2-20.5-0.2-40.9,0-61.4c0-3.7-0.8-4.7-4.7-4.7
	C910.5,351.2,771.5,351.2,632.5,351.2L632.5,351.2z"/>
<path class="st0" d="M878.4,140.6c19,0.1,35.1,16.3,35.1,35.1c0,19-16.6,35.2-35.7,34.9c-18.9-0.3-34.9-16.5-34.6-35.1
	C843.5,156.3,859.5,140.4,878.4,140.6L878.4,140.6z"/>
</svg>
