<?xml version="1.0" encoding="utf-8"?>
<!-- Generator: Adobe Illustrator 28.1.0, SVG Export Plug-In . SVG Version: 6.00 Build 0)  -->
<svg version="1.1" id="_레이어_1" xmlns="http://www.w3.org/2000/svg" xmlns:xlink="http://www.w3.org/1999/xlink" x="0px"
	 y="0px" viewBox="0 0 436.8 221.3" style="enable-background:new 0 0 436.8 221.3;" xml:space="preserve">
<style type="text/css">
	.st0{fill:#FFFFFF;}
</style>
<path class="st0" d="M218.3,221.3c-72.4,0-144.8,0-217.2,0c-0.9,0-1.1-0.2-1.1-1.1c0-73,0-146.1,0-219.1C0,0.2,0.2,0,1.1,0
	C146,0,290.8,0,435.7,0c0.9,0,1.1,0.2,1.1,1.1c0,73,0,146.1,0,219.1c0,0.9-0.2,1.1-1.1,1.1C363.2,221.3,290.8,221.3,218.3,221.3
	L218.3,221.3z M218.8,189.1c61.4,0,122.9,0,184.3,0c1.2,0,1.4-0.3,1.4-1.4c0-51,0-102.1,0-153.1c0-1.2-0.3-1.4-1.4-1.4
	c-122.8,0-245.7,0-368.5,0c-1.2,0-1.5,0.3-1.5,1.5c0,50.9,0,101.9,0,152.8c0,1.1,0.6,1.6,1.7,1.6
	C96.2,189.1,157.5,189.1,218.8,189.1L218.8,189.1z"/>
<path class="st0" d="M280.9,86.4c-33.9,0-67.7,0.2-101.6-0.1c-41.5-0.3-82.9,0-124.4-0.2c-0.9,0-1.2-0.2-1.2-1.1c0-10,0-19.9,0-29.9
	c0-1.1,0.4-1.2,1.3-1.2c55.3,0,110.7-0.2,166,0.1c50.6,0.2,101.2,0,151.8,0.1c3.3,0,6.6,0,9.8,0c0.9,0,1,0.3,1,1.1c0,10,0,20,0,30
	c0,1-0.2,1.2-1.2,1.2C348.7,86.4,314.8,86.4,280.9,86.4L280.9,86.4z"/>
<path class="st0" d="M218.7,110.7c7.7-0.4,16.4,7,16.3,15.7c-0.1,7.6-6.6,16.5-16.3,16.4c-9.1-0.1-16.2-7.2-16.2-16.3
	C202.6,117.5,210.5,110.3,218.7,110.7z"/>
<path class="st0" d="M141.7,127.7c-2.9-0.1-5.1,0-8,0c-2.8,0-5.4,0-8.2,0c-8.3-0.3-16.1,6.9-16.1,15.8c0,9.1,7.1,16.3,16.2,16.3
	c3,0,5.4,0,8.2,0c3.1,0,5.1,0,8.1,0c9.7,0.1,16.2-8.8,16.3-16.4C158.1,134.7,149.4,127.3,141.7,127.7z"/>
<path class="st0" d="M86.1,127.7c-2.9-0.1-5.1,0-8,0c-2.8,0-5.4,0-8.2,0c-8.3-0.3-16.1,6.9-16.1,15.8c0,9.1,7.1,16.3,16.2,16.3
	c3,0,5.4,0,8.2,0c3.1,0,5.1,0,8.1,0c9.7,0.1,16.2-8.8,16.3-16.4C102.5,134.7,93.8,127.3,86.1,127.7z"/>
<path class="st0" d="M312,127.7c-2.9-0.1-5.1,0-8,0c-2.8,0-5.4,0-8.2,0c-8.3-0.3-16.1,6.9-16.1,15.8c0,9.1,7.1,16.3,16.2,16.3
	c3,0,5.4,0,8.2,0c3.1,0,5.1,0,8.1,0c9.7,0.1,16.2-8.8,16.3-16.4C328.4,134.7,319.7,127.3,312,127.7z"/>
<path class="st0" d="M367.4,127.7c-2.9-0.1-5.1,0-8,0c-2.8,0-5.4,0-8.2,0c-8.3-0.3-16.1,6.9-16.1,15.8c0,9.1,7.1,16.3,16.2,16.3
	c3,0,5.4,0,8.2,0c3.1,0,5.1,0,8.1,0c9.7,0.1,16.2-8.8,16.3-16.4C383.9,134.7,375.1,127.3,367.4,127.7z"/>
</svg>
