<?xml version="1.0" encoding="UTF-8"?>
<svg id="_레이어_1" data-name="레이어 1" xmlns="http://www.w3.org/2000/svg" viewBox="0 0 624.751 846.339">
  <defs>
    <style>
      .cls-1 {
        fill: #fdfefd;
        stroke-width: 0px;
      }
    </style>
  </defs>
  <path class="cls-1" d="M297.266,458.122c-40.888.36-88.022-17.101-130.41-48.867-13.15-9.855-17.159-22.132-13.044-37.72,4.617-17.489,13.308-32.992,23.179-47.868,27.161-40.931,60.715-76.273,96.554-109.572,9.761-9.069,19.74-17.885,30.43-25.887,3.838-2.873,6.851-2.831,10.622.149,15.719,12.422,30.032,26.369,44.265,40.395,28.377,27.965,56.058,56.55,78.331,89.848,8.065,12.058,15.546,24.441,21.352,37.767,3.068,7.04,5.337,14.314,6.65,21.922,1.902,11.018-1.314,19.838-9.925,27.086-14.124,11.888-29.935,21.015-46.267,29.385-31.176,15.977-64.531,22.556-111.74,23.362Z"/>
  <path class="cls-1" d="M491.276,367.131c4.634-26.669-2.868-50.138-12.907-72.781-24.501-55.262-56.992-105.728-94.035-153.351-3.477-4.47-6.996-8.91-10.592-13.285-1.271-1.546-1.498-2.604.166-4.119,18.344-16.714,36.274-33.931,57.575-47.016,7.118-4.372,14.802-7.516,22.551-10.611,7.992-3.193,14.044-1.645,20.076,4.597,16.135,16.695,29.433,35.34,39.383,56.231,30.59,64.231,31.826,129.301,4.534,194.893-6.093,14.644-14.458,28.114-23.297,41.261-.808,1.202-1.847,2.25-3.453,4.18Z"/>
  <path class="cls-1" d="M127.201,367.406c-2.889-1.619-3.866-3.98-5.263-5.945-23.725-33.385-37.095-70.835-40.69-111.313-6.039-67.989,14.888-127.256,60.615-177.929,6.877-7.621,13.918-9.3,23.516-5.624,13.241,5.071,25.086,12.266,36.27,20.75,14.622,11.092,27.913,23.733,41.671,35.833,3.026,2.661,1.25,4.096-.358,6.032-28.595,34.434-53.756,71.255-75.967,110.078-15.06,26.324-29.451,53.014-37.455,82.545-1.737,6.409-3.139,12.947-4.125,19.511-1.286,8.566-1.823,17.209,1.785,26.06Z"/>
  <path class="cls-1" d="M192.821,30.944c28.733-15.909,57.932-26.602,89.695-29.663,50.505-4.867,98.128,3.931,142.159,29.813-.376,1.324-1.292,1.146-2.042,1.081-25.656-2.233-49.42,5.201-72.838,14.304-10.71,4.164-21.233,8.845-31.292,14.358-7.27,3.984-13.419,3.999-20.789-.181-17.714-10.044-36.726-17.207-56.169-23.267-13.507-4.209-27.221-6.256-41.358-5.471-1.935.107-3.937.47-7.365-.975Z"/>
  <path class="cls-1" d="M238.503,752.931c0,3.884-.008,7.768.001,11.652.061,24.989.073,49.979.257,74.968.023,3.183-.707,4.343-4.106,4.349-9.046.016-9.054.183-9.059-8.724-.017-32.487-.031-64.974-.036-97.461,0-6.639.097-5.991,6.322-6.729,8.923-1.058,12.697,2.471,16.044,10.823,9.188,22.929,19.84,45.27,29.901,67.85,1.803,4.046,2.59,8.548,5.659,12.855,4.071-9.228,7.871-17.953,11.76-26.637,9.304-20.774,18.656-41.527,27.965-62.298.682-1.521,1.664-2.425,3.391-2.425,3.831-.001,7.663.011,11.493-.06,2.599-.048,2.915,1.543,2.898,3.598-.048,5.997-.037,11.995-.036,17.993.005,28.822-.079,57.644.125,86.464.03,4.243-1.522,4.894-5.197,4.786-7.882-.232-7.901-.059-7.892-7.81.028-25.823.067-51.646.102-77.469.002-1.823,0-3.645,0-6.361-2.819,3.222-3.837,6.488-5.171,9.509-11.534,26.116-22.989,52.267-34.458,78.412-1.098,2.503-2.635,3.833-5.696,3.765-2.802-.063-3.662-1.556-4.594-3.647-9.931-22.279-19.931-44.527-29.869-66.802-3.073-6.888-6.011-13.836-9.011-20.756-.265.052-.53.104-.795.157Z"/>
  <path class="cls-1" d="M494.741,826.193c0-22.283-.002-43.064,0-63.846.001-8.995.102-17.99-.036-26.983-.044-2.836.488-4.109,3.756-4.181,9.823-.217,9.811-.373,9.813,9.58.007,32.647-.059,65.294.131,97.94.024,4.148-1.099,4.956-5.18,5.346-8.379.802-13.435-1.708-17.9-9.432-9.873-17.08-21.032-33.423-31.841-49.952-7.251-11.088-14.69-22.051-21.418-33.473-.304-.516-.881-1.226-1.332-1.227-.991-.003-1.255.906-1.274,1.788-.033,1.498-.049,2.997-.046,4.495.045,27.316-.01,54.632.243,81.946.042,4.546-1.145,5.98-5.759,5.726-6.871-.379-6.916-.057-6.915-7.19.002-33.48.084-66.959-.051-100.438-.017-4.102,1.066-4.928,5.252-5.283,8.855-.75,13.86,2.286,18.397,10.284,9.635,16.986,20.785,33.113,31.349,49.57,7.302,11.375,14.663,22.713,22.812,35.329Z"/>
  <path class="cls-1" d="M233.58,606.021c-.24-11.113,1.343-21.777,6.544-31.848,10.681-20.684,33.013-29.575,55.477-26.669,15.974,2.066,28.215,10.09,36.425,24.07,3.145,5.356,5.521,11.106,6.412,17.181,2.243,15.292,2.439,30.475-4.152,45.035-9.868,21.799-29.532,31.486-53.072,29.777-11.219-.814-21.358-4.236-29.899-11.947-11.778-10.633-17.394-23.913-17.728-39.608-.043-1.996-.006-3.994-.006-5.991ZM287.453,559.133c-16.172.006-29.247,7.956-35.346,21.645-6.968,15.639-7.523,31.549-.979,47.386,5.369,12.995,14.659,21.698,29.186,23.267,16.407,1.772,30.513-2.281,39.167-17.636,8.039-14.264,8.186-29.449,4.589-45.043-4.295-18.623-17.71-29.626-36.617-29.618Z"/>
  <path class="cls-1" d="M477.684,605.373c.004-16.985.168-33.973-.105-50.953-.074-4.573,1.46-5.501,5.694-5.406,13.644.307,27.37-.768,40.917,1.104,25.457,3.518,40.582,17.287,43.797,43.926,2.529,20.96-1.825,39.733-18.494,54.143-9.904,8.563-21.699,12.785-34.628,13.377-10.97.502-21.979.097-32.962.407-3.739.106-4.311-1.382-4.286-4.644.136-17.317.064-34.636.068-51.954ZM490.602,605.05c.014,0,.027,0,.041,0,0,6.655.003,13.311,0,19.966-.004,6.821-.029,13.643-.011,20.464.006,2.32-.353,4.78,3.372,4.674,8.311-.236,16.719.575,24.912-.9,13.262-2.388,24.248-8.367,30.666-21.103,5.331-10.58,5.663-21.637,4.423-33.04-1.931-17.748-13.668-30.148-31.28-33.026-9.095-1.486-18.247-.978-27.38-1.29-3.757-.129-4.878,1.085-4.82,4.826.204,13.141.079,26.286.079,39.43Z"/>
  <path class="cls-1" d="M624.672,811.178c0,6.998-.073,13.998.036,20.994.043,2.755-.591,4.523-3.406,5.856-19.449,9.216-39.521,11.618-59.397,2.846-16.66-7.352-25.768-21.709-28.617-39.46-2.049-12.768-1.451-25.563,4.038-37.727,7.82-17.328,20.813-28.182,39.319-32.828,13.263-3.33,26.045-1.326,38.941,1.798,4.83,1.17,7.501,3.269,6.486,8.547-.093.482-.011.997-.008,1.497.046,7.019.25,6.502-6.247,3.939-17.449-6.883-35.004-8.839-51.505,2.509-9.267,6.373-14.966,15.608-16.642,26.744-2.055,13.656-2.158,27.196,5.271,39.739,7.079,11.951,18.01,17.167,31.272,18.422,7.742.732,15.224-.72,22.597-3.079,2.99-.956,4.352-2.52,4.297-5.742-.134-7.828-.168-15.665.052-23.49.09-3.213-.782-4.466-4.147-4.321-5.489.237-11.001-.087-16.492.127-3.147.122-4.885-.597-4.201-4.11.031-.161.007-.333.009-.499.091-7.483.091-7.434,7.356-7.436,8.83-.002,17.663.041,26.487-.219,3.407-.1,4.73.687,4.566,4.401-.315,7.151-.092,14.326-.092,21.491.009,0,.017,0,.026,0Z"/>
  <path class="cls-1" d="M92.263,811.097c-.002,7.332-.069,14.665.036,21.995.035,2.459-.73,3.725-3.121,4.878-18.197,8.771-36.953,11.078-56.135,4.259-13.897-4.94-23.409-15.082-28.5-28.81-5.872-15.833-6.222-32.05-.041-47.89,7.203-18.462,20.756-29.805,40.08-34.714,12.427-3.157,24.468-1.647,36.523,1.226,9.138,2.177,9.093,2.367,9.021,11.647-.047,6.029.016,5.894-5.393,3.388-14.2-6.58-29.027-7.874-43.753-2.813-11.793,4.053-19.573,13.203-23.625,24.823-4.45,12.763-4.186,25.98-.209,38.833,4.773,15.426,19.001,25.444,35.888,26.216,7.592.347,14.893-.889,22.065-3.311,3.07-1.037,4.532-2.601,4.406-6.153-.261-7.32-.21-14.67.149-21.986.209-4.261-1.319-5.51-5.407-5.27-5.314.312-10.665-.062-15.99.138-2.925.11-4.447-.599-4.064-3.826.176-1.477.124-3.008-.036-4.492-.296-2.756.664-3.85,3.591-3.816,10.329.121,20.664.126,30.991-.074,3.005-.058,3.627,1.066,3.575,3.76-.14,7.329-.048,14.663-.05,21.995Z"/>
  <path class="cls-1" d="M155.523,812.408c-6.495.006-12.995.173-19.481-.065-3.212-.118-4.66.931-5.665,4.049-2.546,7.901-5.695,15.606-8.308,23.487-1.088,3.281-2.84,4.093-6.177,4.009-9.553-.243-9.85-.178-6.429-9.219,8.214-21.706,16.767-43.284,25.11-64.942,4.358-11.314,8.762-22.618,12.716-34.074,1.305-3.781,3.317-4.377,6.899-4.71,6.639-.617,9.757,1.821,12.048,8.197,8.189,22.785,17.036,45.335,25.725,67.939,4.345,11.303,8.829,22.554,13.388,33.772.91,2.24.629,3.03-1.837,2.97-3.161-.076-6.33-.091-9.489.045-1.832.079-2.606-.69-3.223-2.345-3.128-8.386-6.536-16.67-9.523-25.104-1.072-3.027-2.574-4.179-5.773-4.078-6.655.21-13.32.064-19.982.069ZM155.721,746.696c-2.137,6.026-3.844,10.995-5.658,15.926-4.177,11.354-8.411,22.687-12.61,34.033-.777,2.1-1.147,4.103,2.094,4.097,10.815-.021,21.63-.092,32.445-.148,2.943-.015,3.223-1.306,2.156-3.816-1.682-3.957-3.049-8.05-4.529-12.092-4.485-12.246-8.96-24.496-13.897-38Z"/>
  <path class="cls-1" d="M434.287,589.268c0-11.821.115-23.643-.069-35.461-.057-3.642.925-4.95,4.781-4.82,8.803.295,8.791.093,8.774,8.755-.041,20.811.139,41.625-.183,62.431-.153,9.874-2.349,19.399-7.781,27.955-2.856,4.498-6.644,8.013-11.315,10.261-15.076,7.253-30.64,7.751-45.733.705-13.182-6.153-17.896-18.69-18.71-32.011-1.512-24.758-.501-49.595-.511-74.399,0-2.48.761-3.503,3.41-3.658,9.758-.571,9.739-.665,9.736,9.137-.005,18.813.038,37.626-.008,56.439-.013,5.353.451,10.664,1.431,15.896,1.816,9.696,9.231,19.365,20.658,20.7,12.596,1.472,24.019.593,31.316-11.692,2.697-4.54,3.82-9.611,3.901-14.783.184-11.815.058-23.636.058-35.454.082,0,.163,0,.245,0Z"/>
  <path class="cls-1" d="M59.853,608.234c-.535-18.055,4.727-33.124,16.922-45.209,13.713-13.59,30.77-17.628,49.553-15.629,2.478.264,4.946.722,7.382,1.259,10.161,2.242,10.078,2.265,10.044,12.811-.009,2.878-.095,3.834-3.45,2.399-10.456-4.471-21.398-6.06-32.69-3.817-17.976,3.571-28.586,14.991-32.363,32.361-2.818,12.961-2.986,26.19,3.471,38.464,6.581,12.509,16.887,19.835,31.194,20.687,10.543.628,21.031.227,30.491-5.391,2.805-1.666,3.251-.556,3.451,2.086.695,9.153-.099,10.468-9.185,12.745-14.823,3.716-29.727,4.604-44.126-1.358-13.389-5.544-22.275-15.552-27.178-29.37-2.675-7.537-3.797-15.097-3.516-22.037Z"/>
  <path class="cls-1" d="M169.412,605.642c0-16.807-.039-33.614.051-50.42.011-2.01-1.003-5.195,1.35-5.779,3.266-.811,6.953-.635,10.316-.052,1.769.306,1.002,2.911,1.005,4.474.05,24.961.032,49.921.04,74.882.002,5.657.243,11.323.001,16.969-.149,3.478.881,4.524,4.454,4.451,12.143-.246,24.295-.001,36.44-.187,3.705-.057,5.356.646,5.068,4.915-.474,7.013-.168,6.993-7.352,6.988-15.642-.01-31.285-.08-46.924.125-3.531.046-4.404-.972-4.366-4.45.188-17.304.086-34.611.086-51.916h-.167Z"/>
  <path class="cls-1" d="M385.19,787.76c.004,17.142-.103,34.286.089,51.426.041,3.642-.734,4.881-4.621,4.737-8.106-.3-8.139-.056-8.145-8.126-.022-33.119.067-66.239-.147-99.358-.03-4.632,1.472-5.606,5.73-5.313,7.063.485,7.086.24,7.088,7.204.004,16.477.001,32.953.005,49.43Z"/>
</svg>