<?xml version="1.0" encoding="utf-8"?>
<!-- Generator: Adobe Illustrator 28.1.0, SVG Export Plug-In . SVG Version: 6.00 Build 0)  -->
<svg version="1.1" id="Icon" xmlns="http://www.w3.org/2000/svg" xmlns:xlink="http://www.w3.org/1999/xlink" x="0px" y="0px"
	 viewBox="0 0 71 113.5" style="enable-background:new 0 0 71 113.5;" xml:space="preserve">
<style type="text/css">
	.st0{fill:#FFFFFF;}
</style>
<path class="st0" d="M35.5,65.3c-2.8,0-5.4-0.5-7.9-1.6c-2.5-1.1-4.6-2.5-6.4-4.3s-3.3-4-4.4-6.5s-1.6-5.1-1.6-7.9s0.5-5.4,1.6-7.9
	c1.1-2.4,2.5-4.6,4.3-6.5s4-3.3,6.5-4.4s5.1-1.6,7.9-1.6s5.4,0.5,7.9,1.6c2.4,1.1,4.6,2.5,6.5,4.3s3.3,4,4.4,6.5s1.6,5.1,1.6,7.9
	s-0.5,5.4-1.6,7.9c-1.1,2.4-2.5,4.6-4.3,6.5c-1.8,1.9-4,3.3-6.5,4.4C40.9,64.7,38.3,65.3,35.5,65.3z M0,0.4h71v113.5H0
	C0,113.9,0,0.4,0,0.4z M63.9,106.8V7.5H7.1v99.3C7.1,106.8,63.9,106.8,63.9,106.8z"/>
</svg>
