<?xml version="1.0" encoding="UTF-8"?>
<svg id="_레이어_1" data-name="레이어 1" xmlns="http://www.w3.org/2000/svg" viewBox="0 0 466.248 291.133">
  <defs>
    <style>
      .cls-1 {
        fill: #fff;
        stroke-width: 0px;
      }
    </style>
  </defs>
  <path class="cls-1" d="M246.612,291.109c-42.981,0-85.961.066-128.942-.017-56.323-.108-102.267-36.831-114.831-91.64C-11.804,135.575,31.799,70.921,96.871,59.943c12.596-2.125,25.187-2.504,37.741-.084,3.005.579,4.088-.78,5.498-2.806,19.216-27.615,44.879-46.124,77.828-53.619,71.434-16.249,140.052,26.615,157.29,97.961,1.131,4.681.694,10.489,3.393,13.83,2.609,3.23,8.678,1.395,13.179,2.157,45.046,7.617,75.315,44.154,74.428,89.867-.79,40.729-33.813,77.55-74.239,82.935-5.146.685-10.273.925-15.436.925-43.314,0-86.627,0-129.941,0ZM246.785,262.009c43.321,0,86.642-.003,129.963.005,3.835,0,7.633-.209,11.444-.791,27.528-4.203,48.374-28.282,48.948-56.66.551-27.255-19.43-52.24-46.004-57.535-11.887-2.369-23.92-1.38-35.882-1.274-4.792.043-5.768-1.473-5.606-5.859.351-9.487.142-19.004-1.7-28.37-7.341-37.316-38.41-77.397-92.828-82.161-41.751-3.655-83.99,22.059-100.887,62.505-1.132,2.711-1.955,3.426-4.884,2.171-13.091-5.609-26.768-7.511-40.985-6.179-52.902,4.956-89.422,56.642-76.27,108.088,9.984,39.055,44.345,65.934,84.73,66.035,43.321.108,86.642.024,129.963.026Z"/>
</svg>