<?xml version="1.0" encoding="utf-8"?>
<!-- Generator: Adobe Illustrator 28.3.0, SVG Export Plug-In . SVG Version: 6.00 Build 0)  -->
<svg version="1.1" id="레이어_1" xmlns="http://www.w3.org/2000/svg" xmlns:xlink="http://www.w3.org/1999/xlink" x="0px"
	 y="0px" viewBox="0 0 1050.1 1050" style="enable-background:new 0 0 1050.1 1050;" xml:space="preserve">
<style type="text/css">
	.st0{fill:#FFFFFF;}
</style>
<g id="surface1">
	<path class="st0" d="M476.4,1011.4c-75-6.8-151.1-34.1-217-77.3c-54.5-36.4-67-50-67-79.5c0-59.1,64.8-162.5,176.1-280.7
		c62.5-67,151.1-145.5,160.2-143.2c18.2,4.5,165.9,147.7,221.6,215.9c87.5,108,127.3,195.5,106.8,234.1
		c-15.9,29.5-111.4,87.5-183,110.2C616.2,1010.3,540.1,1017.1,476.4,1011.4z M118.5,793.2C73,722.8,50.3,654.6,38.9,554.6
		c-4.5-33-2.3-51.1,8-119.3c13.6-84.1,61.4-181.8,119.3-240.9c25-25,27.3-26.1,56.8-15.9c36.4,12.5,75,38.6,135.2,93.2l35.2,31.8
		l-19.3,23.9C285.5,436.4,191.2,591,156,687.5c-19.3,52.3-27.3,104.5-18.2,126.1C142.3,827.3,136.7,821.6,118.5,793.2z M918.5,805.7
		c4.5-21.6-1.1-62.5-14.8-103.4C875.3,613.7,777.6,450,688.9,338.7l-27.3-36.4l30.7-27.3c39.8-36.4,67-58,96.6-76.1
		c23.9-14.8,56.8-27.3,70.5-27.3c9.1,0,39.8,33,64.8,67c38.6,54.5,67,120.5,81.8,189.8c9.1,44.3,10.2,139.8,1.1,184.1
		c-6.8,36.4-21.6,84.1-36.4,115.9c-11.4,23.9-38.6,70.5-50,86.4C915.1,821.6,915.1,821.6,918.5,805.7z M484.4,154.6
		c-40.9-20.5-104.5-43.2-138.6-48.9c-12.5-2.3-33-3.4-46.6-2.3c-28.4,1.1-27.3,0,18.2-21.6C356,63.7,387.8,53.5,431,44.4
		c48.9-10.2,140.9-10.2,188.6,0c52.3,11.4,113.6,34.1,147.7,54.5l10.2,6.8l-21.6-2.3c-46.6-2.3-114.8,17-188.6,52.3
		C545.7,166,526.4,175,524.2,175C523,173.9,504.8,164.8,484.4,154.6z"/>
</g>
</svg>
