<?xml version="1.0" encoding="utf-8"?>
<!-- Generator: Adobe Illustrator 28.1.0, SVG Export Plug-In . SVG Version: 6.00 Build 0)  -->
<svg version="1.1" id="_레이어_1" xmlns="http://www.w3.org/2000/svg" xmlns:xlink="http://www.w3.org/1999/xlink" x="0px"
	 y="0px" viewBox="0 0 407.3 217.3" style="enable-background:new 0 0 407.3 217.3;" xml:space="preserve">
<style type="text/css">
	.st0{fill:#FFFFFF;}
</style>
<path class="st0" d="M174.5,109c19.4-18.3,41.6-33,59.9-52.2c2.7-2.9,7.2-6.1,6.2-9.6c-1-3.4-6.6-2.2-10.2-2.8
	c-8.9-1.4-17.8-2.6-26.7-3.7c-2.3-0.3-3.4-0.8-3.9-3.4c-2.4-11.7-2.5-11.7,9.2-11.7h122.8c-3.3,5-6.1,9.2-8.9,13.5
	c-0.8,1.3-2.1,1.4-3.4,1.6c-9.6,1.9-19.2,4-28.8,5.9c-4.5,0.9-8.6,2.3-12.4,4.9c-28,19.3-54.6,40.4-79.2,63.9
	c-0.7,0.7-1.4,1.4-2.1,2.1c-6.7,6-9.6,13.2-9.1,22.5c0.8,14.4,0.4,29,0.3,43.5c0,3.7,0.7,5.1,4.8,5.3c13.1,0.6,26.2,1.7,39.3,2.5
	c2.6,0.2,3.8,0.7,3.1,3.8c-1,4.5,0.4,10.5-2.6,13.3c-3,2.9-8.9,0.9-13.5,0.9c-42.8,0.1-85.6,0-128.4,0.1c-4.6,0-5.4-1.2-3.9-5.2
	c1.3-3.4,1.2-7.8,3.4-10.3c2.1-2.4,6.5-0.5,9.9-0.9c7.6-0.8,15.3-1.3,22.6-3.7c9.2-2.9,12.1-6.9,12.1-16.4c0-12.2-0.3-24.3,0.1-36.5
	c0.2-6-1.5-10.9-5-15.6c-19.6-26.8-40.6-52.4-62.5-77.3C62,37.3,56,31.4,50.2,25.2c-2.5-2.7-5.5-4.1-9.1-4.6C29,19,17,17.2,5,15.7
	c-3.8-0.5-5.4-1.4-4.9-5.8c1.3-9.7,1.1-9.8,11-9.8C57.7,0.1,104.4,0.2,151,0c4.7,0,5.7,1.2,4.8,5.6c-1.9,8.6-1.7,8.5-10.7,9.1
	c-11.4,0.8-22.9,1.9-34.3,2.7c-4.3,0.3-4,1.6-1.9,4.5c15.2,21.9,31.6,42.8,47.9,63.9C162.7,93.5,168.5,101.1,174.5,109L174.5,109z"
	/>
<path class="st0" d="M333.4,165c-7.6-2.3-15.2-4.6-22.8-7.1c-2.5-0.8-0.7-2.9-0.3-4.2c5.6-18.6,11.3-37.2,17-55.8
	c7.2-23.3,14.4-46.7,21.4-70.1c1-3.3,1.9-4.5,5.6-3.3c16.6,5.3,33.3,10.4,50,15.3c3.5,1,3.5,2,1.8,4.9
	c-23.1,38.9-46.1,77.8-69.2,116.7C336.2,163,336,165.3,333.4,165L333.4,165z"/>
<path class="st0" d="M327.5,190.5c-0.3,0.9-0.6,1.5-0.8,2.1c-3.3,7.4-6.6,14.9-9.8,22.3c-0.8,1.8-1.3,3-3.9,2.1
	c-9.4-3.3-18.9-6.2-28.6-8.4c-2.2-0.5-2.7-1.3-1.8-3.4c3.5-7.9,7-15.8,10.3-23.7c0.9-2.1,2-2.3,3.9-1.6c9.3,3.6,18.7,6.7,28.4,9
	C326,189.1,327.6,189,327.5,190.5L327.5,190.5z"/>
</svg>
