<?xml version="1.0" encoding="UTF-8"?>
<svg xmlns="http://www.w3.org/2000/svg" viewBox="0 0 3600.1 2401.738">
  <defs>
    <style>
      .cls-1 {
        fill: #f9d90f;
      }

      .cls-1, .cls-2, .cls-3, .cls-4, .cls-5, .cls-6 {
        stroke-width: 0px;
      }

      .cls-2 {
        fill: #d50032;
      }

      .cls-3 {
        fill: #012a87;
      }

      .cls-4 {
        fill: #fff;
      }

      .cls-5 {
        fill: #101820;
      }

      .cls-6 {
        fill: #eee;
        fill-rule: evenodd;
      }
    </style>
  </defs>
  <g id="background">
    <path id="bg" class="cls-6" d="M400,.1h2800c220,0,400,180,400,400v1600c0,220-180,400-400,400H400C180,2400.1,0,2220.1,0,2000.1V400.1C0,180.1,180,.1,400,.1Z"/>
  </g>
  <g id="country">
    <g id="nl">
      <g id="bq-bo">
        <path class="cls-3" d="M3457.822,94.885L142.178,2305.315c69.752,59.064,159.818,94.785,257.822,94.785h2800c220,0,400-180,400-400V400.1c0-121.996-55.35-231.691-142.178-305.215Z"/>
        <path class="cls-1" d="M400,.1C180,.1,0,180.1,0,400.1v600L1500,.1H400Z"/>
        <g>
          <path class="cls-5" d="M1000,433.433l346.41,600-346.41,600-346.41-600,346.41-600ZM1600,1033.433l-600,346.41-600-346.41,600-346.41,600,346.41Z"/>
          <circle class="cls-5" cx="1000" cy="1033.433" r="519.615"/>
          <circle class="cls-4" cx="1000" cy="1033.433" r="450"/>
          <path class="cls-2" d="M1000,1333.433l-259.808-450h519.615l-259.808,450ZM1000,733.433l259.808,450h-519.615l259.808-450Z"/>
        </g>
      </g>
    </g>
  </g>
</svg>