<?xml version="1.0" encoding="UTF-8"?>
<svg xmlns="http://www.w3.org/2000/svg" viewBox="0 0 3600.1 2401.738">
  <defs>
    <style>
      .cls-1 {
        fill: #f9d90f;
      }

      .cls-1, .cls-2, .cls-3, .cls-4, .cls-5, .cls-6 {
        stroke-width: 0px;
      }

      .cls-2 {
        fill: #012a87;
      }

      .cls-3 {
        fill-rule: evenodd;
      }

      .cls-3, .cls-5 {
        fill: #dc171f;
      }

      .cls-4 {
        fill: #fff;
      }

      .cls-6 {
        fill: #008830;
      }
    </style>
  </defs>
  <g id="background">
    <path id="bq-se" class="cls-3" d="M400,.1h2800c220,0,400,180,400,400v1600c0,220-180,400-400,400H400C180,2400.1,0,2220.1,0,2000.1V400.1C0,180.1,180,.1,400,.1Z"/>
  </g>
  <g id="country">
    <g id="nl">
      <g id="bq-se-2" data-name="bq-se">
        <path class="cls-4" d="M1800,675.248l-937.236,524.852,937.236,524.852,937.236-524.852-937.236-524.852Z"/>
        <path class="cls-5" d="M1125.909,1347.508v156.592h279.844l1162.907-209.597v209.597h-374.674l-1068.077-156.592Z"/>
        <g>
          <path class="cls-2" d="M752,1152.1l1000-560V80.1H160.716c-30.564,22.947-57.77,50.152-80.716,80.716v991.284h672Z"/>
          <path class="cls-2" d="M1848,592.1l1000,560h672V160.816c-22.947-30.564-50.152-57.77-80.716-80.716h-1591.284v512Z"/>
          <path class="cls-2" d="M1752,1808.1l-1000-560H80v991.284c22.947,30.564,50.152,57.77,80.716,80.716h1591.284v-512Z"/>
          <path class="cls-2" d="M2848,1248.1l-1000,560v512h1591.284c30.564-22.947,57.77-50.152,80.716-80.716v-991.284h-672Z"/>
        </g>
        <path class="cls-1" d="M1800,798.1l32.271,99.307,104.419.004-84.474,61.379,32.264,99.31-84.479-61.373-84.479,61.373,32.264-99.31-84.474-61.379,104.419-.004,32.271-99.307Z"/>
        <path class="cls-6" d="M1125.909,1347.508c10.845-35.393,34.457-51.077,66.377-43.98,19.755-74.923,110.952-88.284,147.143-51.429l89.09,89.481c19.351,9.003,48.83,12.379,69.306,12.379,25.316.398,22.485,12.021,43.638,12.426,56.386,1.077,204.571,1.831,231.429,0,10.996-.75,256.536-271.429,256.536-271.429,20.476-25.238,73.809-33.333,102.857-12.857,27.143,25.714,55.714,28.571,75.714,11.429,17.619-26.191,57.569-29.236,82.857-14.286l277.803,215.26-374.674,209.597h-788.233l-279.844-156.592Z"/>
        <path id="_테두리" data-name="테두리" class="cls-5" d="M400,100.1c-170,0-300,130-300,300v1600c0,170,130,300,300,300h2800c170,0,300-130,300-300V400.1c0-170-130-300-300-300H400ZM400,.1h2800c220,0,400,180,400,400v1600c0,220-180,400-400,400H400C180,2400.1,0,2220.1,0,2000.1V400.1C0,180.1,180,.1,400,.1Z"/>
      </g>
    </g>
  </g>
</svg>