<svg xmlns="http://www.w3.org/2000/svg" width="200" height="200" version="1.0"><path d="M253.99 472.317c0 2.02-1.651 3.58-3.67 3.58h-36.162c-1.928 0-3.58-1.56-3.58-3.58v-36.162c0-1.927 1.652-3.58 3.58-3.58h36.161c2.02 0 3.672 1.653 3.672 3.58v36.162z" style="fill:none;stroke:#fff;stroke-width:4.31371" transform="translate(-873.402 -1803.31) scale(4.19056)"/><path d="M254.037 472.317c0 2.02-1.653 3.58-3.58 3.58h-36.162c-2.019 0-3.58-1.56-3.58-3.58v-36.162c0-1.927 1.561-3.58 3.58-3.58h36.162c1.928 0 3.58 1.653 3.58 3.58v36.162z" style="fill:#000;stroke:none;stroke-width:4.31371" transform="translate(-873.402 -1803.31) scale(4.19056)"/><path d="M254.037 472.317c0 2.02-1.653 3.58-3.58 3.58h-36.162c-2.019 0-3.58-1.56-3.58-3.58v-36.162c0-1.927 1.561-3.58 3.58-3.58h36.162c1.928 0 3.58 1.653 3.58 3.58v36.162z" style="fill:none;stroke:#000;stroke-width:.275344" transform="translate(-873.402 -1803.31) scale(4.19056)"/><path d="M210.624 466.26v6.057c0 2.02 1.652 3.58 3.671 3.58h36.07c2.02 0 3.672-1.56 3.672-3.58v-6.058h-43.413z" style="fill:#000;stroke:#000;stroke-width:.275344" transform="translate(-873.402 -1803.31) scale(4.19056)"/><path d="M215.764 468.921h-1.193v1.56h1.193c.459 0 .826-.275.826-.826 0-.459-.367-.734-.826-.734zm.826 4.314-1.01-2.111h-1.01v2.11h-.734v-5.047h1.928c1.01 0 1.56.642 1.56 1.468 0 .735-.459 1.193-1.01 1.377l1.194 2.203h-.918zM218.242 473.235v-5.048h3.212v.734h-2.386v1.469h2.02v.642h-2.02v1.469h2.386v.734h-3.212zM223.657 473.235c-.734 0-1.285-.184-1.744-.643l.46-.459c.366.368.733.46 1.284.46.642 0 1.01-.276 1.01-.827 0-.183 0-.367-.184-.459-.092-.183-.275-.183-.55-.183l-.551-.092c-.46-.092-.735-.275-1.01-.459a1.402 1.402 0 0 1-.367-.918c0-.917.642-1.468 1.744-1.468.642 0 1.101.183 1.56.55l-.55.46c-.276-.276-.643-.368-1.102-.368-.55 0-.918.367-.918.826 0 .184.092.276.276.46.091.091.275.183.55.183l.55.092c.46.091.735.183.919.367.275.275.367.642.367 1.01 0 .917-.734 1.468-1.744 1.468zM227.97 468.921v4.314h-.734v-4.314h-1.376v-.734h3.487v.734h-1.376zM231.917 468.921h-1.101v1.56h1.101c.46 0 .826-.275.826-.826 0-.459-.367-.734-.826-.734zm.918 4.314-1.101-2.111h-.918v2.11h-.826v-5.047h2.02c.917 0 1.468.642 1.468 1.468 0 .735-.368 1.193-.918 1.377l1.101 2.203h-.826zM234.487 473.235h.734v-5.048h-.734v5.048zM237.975 473.235c-.55 0-1.01-.184-1.377-.55-.459-.46-.459-1.01-.459-1.928 0-1.01 0-1.56.46-2.02.366-.367.825-.55 1.376-.55.918 0 1.56.55 1.744 1.56h-.735c-.183-.55-.458-.918-1.01-.918-.274 0-.55.184-.733.367-.276.184-.368.551-.368 1.56 0 .918.092 1.286.368 1.47.183.275.459.366.734.366.55 0 .918-.367 1.01-.918h.734c-.184 1.01-.826 1.56-1.744 1.56zM242.105 468.921v4.314h-.734v-4.314h-1.377v-.734h3.488v.734h-1.377zM244.216 473.235v-5.048h3.12v.734h-2.386v1.469h2.02v.642h-2.02v1.469h2.387v.734h-3.121zM250.732 469.196c-.183-.183-.458-.275-.826-.275h-.917v3.58h.917c.368 0 .643-.092.826-.276.276-.275.276-.826.276-1.56 0-.643 0-1.101-.276-1.469zm.551 3.58c-.367.275-.826.459-1.285.459h-1.744v-5.048h1.744c.46 0 .918.183 1.285.459.55.55.459 1.285.459 2.019 0 .734.092 1.56-.459 2.11z" style="fill:#fff" transform="translate(-873.402 -1803.31) scale(4.19056)"/><path d="M210.532 466.26h43.505" style="fill:none;stroke:#fff;stroke-width:.550687" transform="translate(-873.402 -1803.31) scale(4.19056)"/><path d="M236.14 453.777v-7.526l-1.653 1.377v-.918l1.652-1.377h.826v8.444h-.826zM240.728 445.976c-.918 0-1.56.642-1.56 1.56s.642 1.469 1.56 1.469c.826 0 1.469-.551 1.469-1.469s-.643-1.56-1.469-1.56zm0 3.855c-1.01 0-1.652.642-1.652 1.652 0 .917.643 1.652 1.652 1.652.918 0 1.56-.735 1.56-1.652 0-1.01-.642-1.652-1.56-1.652zm0 4.038c-1.468 0-2.57-1.01-2.57-2.386 0-1.01.551-1.652 1.285-2.111-.642-.367-1.101-1.01-1.101-1.836 0-1.377 1.01-2.294 2.386-2.294 1.285 0 2.295.917 2.295 2.294 0 .826-.46 1.469-1.102 1.836.735.459 1.285 1.101 1.285 2.11 0 1.377-1.101 2.387-2.478 2.387zM247.337 451.024v2.11h-.826v-2.11H244.4v-.826h2.11v-2.02h.827v2.02h2.019v.826h-2.02zM226.135 455.246l-2.203-4.039-2.202 4.039h-2.57l3.58-5.966-3.397-5.599h2.57l2.02 3.763 2.019-3.763h2.478l-3.305 5.599 3.58 5.966h-2.57z" style="fill:#fff" transform="translate(-873.402 -1803.31) scale(4.19056)"/><path d="M231.826 441.387v15.97h-15.879v-15.97h15.879zm.458-.735h-17.07v17.439h17.438v-17.439h-.368z" style="fill:#fff" transform="translate(-873.402 -1803.31) scale(4.19056)"/></svg>