<?xml version="1.0" encoding="UTF-8"?>
<svg id="_레이어_1" data-name=" 레이어 1" xmlns="http://www.w3.org/2000/svg" version="1.1" viewBox="0 0 135.8 108.1">
  <defs>
    <style>
      .cls-1 {
        fill: #fff;
        stroke-width: 0px;
      }
    </style>
  </defs>
  <path class="cls-1" d="M44.8,1.7v105h-19.1v-60.1c0-10,0-12.9-8.6-12.9H0v-12h2c9.8,0,23-.3,27.2-20.1h15.6,0ZM135.8,76.5c0,19.1-16.5,31.6-39.4,31.6s-38.8-13.4-38.8-31.6,12-22.3,17.3-24.7c-11.2-5.3-13.5-16.6-13.5-22.9C61.4,12.6,74.9,0,97.5,0s35.8,11.7,35.8,29.9-3.7,17.1-13.7,21.9c12.1,6.1,16.2,15.1,16.2,24.7M79.6,75.9c0,8.9,6.2,14.9,17.7,14.9s17.6-5.3,17.6-15.1-.3-14.9-17.6-14.9-17.7,11.8-17.7,15.1M81.3,31.3c0,4.7,2,13.8,16.2,13.8s15.4-7.9,15.4-13.8c0-12-9.5-14.2-15.6-14.2-13.2-.2-16,8.4-16,14.2"/>
</svg>