<?xml version="1.0" encoding="UTF-8"?>
<svg xmlns="http://www.w3.org/2000/svg" version="1.1" xmlns:cc="http://creativecommons.org/ns#" xmlns:dc="http://purl.org/dc/elements/1.1/" xmlns:inkscape="http://www.inkscape.org/namespaces/inkscape" xmlns:rdf="http://www.w3.org/1999/02/22-rdf-syntax-ns#" xmlns:sodipodi="http://sodipodi.sourceforge.net/DTD/sodipodi-0.dtd" xmlns:svg="http://www.w3.org/2000/svg" viewBox="0 0 262.5 262.5">
  <defs>
    <style>
      .cls-1 {
        fill: #eb5791;
      }

      .cls-1, .cls-2 {
        stroke-width: 0px;
      }

      .cls-2 {
        fill: #fff;
      }
    </style>
  </defs>
  <g id="svg8" sodipodi:docname="BBFC 15 2019.svg">
    <g id="layer1" inkscape:groupmode="layer" inkscape:label="Layer 1">
      <g id="g339">
        <path id="path215" class="cls-1" d="M131.2,0C58.8,0,0,58.8,0,131.2s58.8,131.2,131.2,131.2,131.3-58.8,131.3-131.2S203.7,0,131.2,0" inkscape:connector-curvature="0"/>
        <path id="path217" class="cls-2" d="M102,77.1v105h-19.1v-60.1c0-10,0-12.9-8.6-12.9h-17.1v-12h2c9.8-.2,23-.3,27.2-20.1h15.6Z" inkscape:connector-curvature="0"/>
        <path id="path219" class="cls-2" d="M183.5,94.4h-40.9l-3.6,23.2c4.7-4.7,12.1-7.8,20.2-7.8,18.7,0,31.9,13.9,31.9,35s-14.2,38.8-39,38.8-13.8-1.3-19.9-4.4c-14.6-7.8-15.7-21.3-16.2-26.5l21.8-1.6c.5,10.8,7.2,15.6,15.1,15.6s6.7-.8,9.2-2.5c4.7-3.1,7.9-10.4,7.9-18.7,0-13.1-8.1-19.8-17.4-19.8s-13.2,3.3-15.7,9.8l-17.6-1.1,7.5-57.7h58.4l-1.6,17.6Z" inkscape:connector-curvature="0"/>
      </g>
    </g>
  </g>
</svg>