<?xml version="1.0" encoding="UTF-8"?>
<svg xmlns="http://www.w3.org/2000/svg" version="1.1" xmlns:cc="http://creativecommons.org/ns#" xmlns:dc="http://purl.org/dc/elements/1.1/" xmlns:inkscape="http://www.inkscape.org/namespaces/inkscape" xmlns:rdf="http://www.w3.org/1999/02/22-rdf-syntax-ns#" xmlns:sodipodi="http://sodipodi.sourceforge.net/DTD/sodipodi-0.dtd" xmlns:svg="http://www.w3.org/2000/svg" viewBox="0 0 262.5 262.5">
  <defs>
    <style>
      .cls-1 {
        fill: #ee7817;
      }

      .cls-1, .cls-2 {
        stroke-width: 0px;
      }

      .cls-2 {
        fill: #fff;
      }
    </style>
  </defs>
  <g id="svg508" sodipodi:docname="BBFC 12A 2019.svg">
    <g id="layer1" inkscape:groupmode="layer" inkscape:label="Layer 1">
      <g id="g451">
        <path id="path239" class="cls-1" d="M131.3,0C58.8,0,0,58.8,0,131.2s58.8,131.3,131.2,131.3,131.2-58.8,131.2-131.3S203.7,0,131.3,0" inkscape:connector-curvature="0"/>
        <path id="path241" class="cls-2" d="M57,77.1v105h-19.1v-60.1c0-10,0-12.9-8.6-12.9H12.2v-12h2c9.8-.2,23-.3,27.2-20.1h15.6Z" inkscape:connector-curvature="0"/>
        <path id="path243" class="cls-2" d="M145.7,165.9v16.2h-71.4v-15.1c13.4-9.2,26.6-21.8,32.8-28.2,5.8-5.9,15.4-16,15.4-29.9s-4.1-15.7-13.8-15.7c-15.4,0-14.9,16.8-14.8,24.3l-19.6-1.7c0-14.8,4.8-24.3,8.9-29.1,5.7-6.7,15.7-11.3,27.1-11.3,19.9,0,33.8,12.9,33.8,32.8s-10.4,29.1-21.9,39.5c-2.3,2-16.3,13.8-22.3,18.2h45.9Z" inkscape:connector-curvature="0"/>
        <path id="path245" class="cls-2" d="M218.3,161.7h-39.3l-6.1,20.5h-20.9l35.3-104.6h22.2l35.7,104.6h-20.9l-6.1-20.5ZM213.1,144.6l-14.4-48.1-14.5,48.1h28.9Z" inkscape:connector-curvature="0"/>
      </g>
    </g>
  </g>
</svg>