<?xml version="1.0" encoding="UTF-8"?>
<svg id="_레이어_1" data-name="레이어 1" xmlns="http://www.w3.org/2000/svg" version="1.1" xmlns:cc="http://creativecommons.org/ns#" xmlns:dc="http://purl.org/dc/elements/1.1/" xmlns:inkscape="http://www.inkscape.org/namespaces/inkscape" xmlns:rdf="http://www.w3.org/1999/02/22-rdf-syntax-ns#" xmlns:sodipodi="http://sodipodi.sourceforge.net/DTD/sodipodi-0.dtd" xmlns:svg="http://www.w3.org/2000/svg" viewBox="0 0 133.6 106.8">
  <defs>
    <style>
      .cls-1 {
        fill: #fff;
        stroke-width: 0px;
      }
    </style>
  </defs>
  <path id="path205" class="cls-1" d="M44.8,1.8v105h-19.1v-60.1c0-10,0-12.9-8.6-12.9H0v-12h2c9.8-.2,23-.3,27.3-20.1h15.5Z" inkscape:connector-curvature="0"/>
  <path id="path207" class="cls-1" d="M133.5,90.6v16.2H62.1v-15.1c13.4-9.2,26.6-21.8,32.8-28.2,5.7-5.9,15.4-16,15.4-29.9s-4-15.7-13.8-15.7c-15.4,0-14.9,16.8-14.8,24.3l-19.6-1.7c0-14.8,4.8-24.3,8.9-29.1,5.8-6.7,15.7-11.4,27.1-11.4,19.9,0,33.8,12.9,33.8,32.8s-10.4,29.1-21.9,39.5c-2.3,2-16.3,13.8-22.3,18.2h45.9,0Z" inkscape:connector-curvature="0"/>
</svg>