<?xml version="1.0" encoding="UTF-8"?>
<svg xmlns="http://www.w3.org/2000/svg" version="1.1" xmlns:cc="http://creativecommons.org/ns#" xmlns:dc="http://purl.org/dc/elements/1.1/" xmlns:inkscape="http://www.inkscape.org/namespaces/inkscape" xmlns:rdf="http://www.w3.org/1999/02/22-rdf-syntax-ns#" xmlns:sodipodi="http://sodipodi.sourceforge.net/DTD/sodipodi-0.dtd" xmlns:svg="http://www.w3.org/2000/svg" viewBox="0 0 262.5 233.8">
  <defs>
    <style>
      .cls-1 {
        fill: #2ea635;
      }

      .cls-1, .cls-2 {
        stroke-width: 0px;
      }

      .cls-2 {
        fill: #fff;
      }
    </style>
  </defs>
  <g id="svg508" sodipodi:docname="BBFC U 2019.svg">
    <g id="layer1" inkscape:groupmode="layer" inkscape:label="Layer 1">
      <g id="g434">
        <path id="path181" class="cls-1" d="M141.2,7.5c-2.2-3.8-6.1-5.7-9.9-5.7s-7.7,1.9-9.9,5.7L1.5,214.9c-4.4,7.7,1.1,17.2,10,17.2h239.5c8.8,0,14.4-9.5,9.9-17.2L141.2,7.5Z" inkscape:connector-curvature="0"/>
        <path id="path183" class="cls-2" d="M168.2,112.1v57.9c-.1,10.4-.1,19-9.9,27.3-9.3,8.2-21.4,9-27.7,9s-11.1-.6-16.3-2.5c-10.9-3.8-16.8-11.7-18.9-18.6-1.2-4-1.2-6.9-1.3-18.3v-54.7h17.2v56.4c0,3.9-.1,7.7,1.2,11.2,3.5,8.8,13.1,9.9,18.6,9.9s9.6-.1,14.7-4.5c5.1-4.6,5.1-9.8,5.1-17.4v-55.5h17.3Z" inkscape:connector-curvature="0"/>
      </g>
    </g>
  </g>
</svg>