<?xml version="1.0" encoding="UTF-8"?>
<svg id="_레이어_1" data-name=" 레이어 1" xmlns="http://www.w3.org/2000/svg" version="1.1" xmlns:svg="http://www.w3.org/2000/svg" viewBox="0 0 192.5 142.5">
  <defs>
    <style>
      .cls-1 {
        fill: #fff;
        stroke-width: 0px;
      }
    </style>
  </defs>
  <path class="cls-1" d="M147.8,69.6h44.7v-10h-31.5c1.5-9.2,12.7-16.4,12.7-16.4,8.7-5.7,12.9-10.4,12.9-10.4,6.9-7.4,5.2-16.3,5.2-16.3-1.5-10.4-10.7-13.8-10.7-13.8-13.8-6.2-28.9-1.7-34.7,14.6,1.3.6,9.7,4.6,9.7,4.6,6.1-16.8,20.2-9.6,20.2-9.6,5.8,2.8,4.3,9.4,4.3,9.4-.6,5-8.5,9.7-8.5,9.7-9.6,6.7-14.2,12.5-14.2,12.5-6.8,7.2-9.2,15.7-10,25.6M24.5,36.8h-13.6V12.6h13.6s9.7,0,9.7,12.2-9.7,12-9.7,12M45.1,23.5c0-2.4-.7-8.2-3.7-12.9,0,0-4.8-8.7-17.4-8.6H0v67.7h10.8v-22.1h13.6c12.6,0,17-8.6,17-8.6,3.8-6.2,3.6-14,3.6-14v-1.5M115.9,1.9v10.3h9.1v57.5h11.4V1.9h-20.5ZM63.2,5.7c-7.2,5.6-11.3,16.3-11.3,29.4s2.4,19.8,6.6,25.6c4.4,6.2,11.2,9.4,20.1,9.4s7.2-.6,10.3-1.5c3.6-1.1,6.2-2.4,11.2-5.6v-30.2h-20.7v10.5h10.9v12.8h0c-3.4,2.4-6.9,3.5-11.5,3.5s-9.1-1.7-11.9-5.5c-3.1-4.2-4.7-10.6-4.7-19s1.8-14.9,5.1-19c2.6-3.1,6.3-4.8,10.3-4.8s6.5.8,8.5,2.6c1.8,1.4,3.3,3.7,4.5,6.9v.4c.1,0,8.8-4.9,8.8-4.9v-.2c-.9-3-2.4-5.7-4.5-8.2-4-4.4-9.7-6.8-16-6.8s-11.3,1.5-15.7,4.9M43.8,137.6v-9.1h8.3c-.7,4.8-4.6,7.5-8.3,9.1M50.1,112.8h3.6v10.6h-3.6v-10.6ZM61.2,123.4h-3.6v-10.6h3.6v10.6ZM36.5,125.4h3.8v11.3h-3.8v-11.3ZM40.3,120.8h-3.8v-9.9h3.8v9.9ZM59.2,128.5h8.3v-5.1h-2.8v-15.2h-7v-3.8h-4v3.8h-7.1v15.2h-2.8v-17.1h-10.7v35h10.7v-2.1l2.8,3.3c5.4-3.1,7.9-8,8.9-13.2h.3c1.1,5.2,3.5,10.1,8.9,13.2l3.8-4.5c-4-1.5-8.5-4.3-9.3-9.5M129.7,125.5h3.1v4.1h-3.1v-4.1ZM135.9,125.5h3v4.1h-3v-4.1ZM142,125.5h3.1v4.1h-3.1v-4.1ZM126.3,141.9h3.5v-7.5h3.1v7.5h3.1v-7.5h3v7.5h3.1v-7.5h3.1v1.7c0,1.7-.3,2.7-2.5,3.1l2,3.3c2.1-.6,4-1.8,4-6.4v-15.5h-22.3v21.2h-.1ZM137,106.9h.7c1.1,2.6,2.8,4.9,4.7,6.8h-10.1c1.9-1.9,3.6-4.2,4.7-6.8M130.6,115.4v3h13.7v-3c1.3,1.1,2.7,2.1,4,2.8l3.1-4.2c-5-1.6-9.8-5.3-12-9.5h-4c-2.1,4-6.4,7.5-11.1,9.2,1-2.8,1.7-5.8,2.2-9.2h-3.6c-1.2,5.2-3.5,11.3-9.3,16.4l3,4.9c.9-.9,1.8-1.9,2.6-2.9v19.1h4v-25.5c.3-.6.5-1.2.7-1.8l2.7,3.5c1.3-.7,2.7-1.6,4-2.8"/>
</svg>