<?xml version="1.0" encoding="UTF-8"?>
<svg id="_레이어_1" data-name=" 레이어 1" xmlns="http://www.w3.org/2000/svg" version="1.1" xmlns:svg="http://www.w3.org/2000/svg" viewBox="0 0 232.1 162.3">
  <defs>
    <style>
      .cls-1 {
        fill: #fff;
        stroke-width: 0px;
      }
    </style>
  </defs>
  <path class="cls-1" d="M36,33.9c-3,1.3-7.2,1.4-7.2,1.4h-15.8V12.4h16c6,0,8.6,2.1,8.6,2.1,2.8,1.9,3.5,4.4,3.5,4.4,2,5,0,10.2,0,10.2-1.4,3.3-5.1,4.8-5.1,4.8M47.7,52.1c-3.5-7.1-6.9-9.1-7-9.1,9.5-2.3,12.4-11.4,12.4-11.4,2.8-8.6.4-15.6.4-15.6-2.2-8.7-10.1-11.8-10.1-11.8-5.5-2.5-15-2.4-15-2.4H0v77.4h12.9v-32h10.2c8.8,0,10.6,6,10.6,6,0,0,4.2,7.5,9.8,25.9h16c-5.5-15.1-11.8-26.9-11.8-26.9M232.1,34.3h-23.2V11.1h-11.7v23.2h-23.2v11.7h23.2v24.6h11.7v-24.6h23.2s0-11.7,0-11.7ZM70.9,3.3v11.7h9.4v64h12.8V3.3h-22.2ZM136.3,71.3c-9.9,0-14.9-4.4-14.9-12.4s3.2-10.2,8.9-11.9c3.7-1.2,6.7-1.3,10.6-.4,6.8,1.3,10.5,5.7,10.5,12.2s-4.9,12.5-15.2,12.5M136.5,10c8,0,12.3,4.3,12.3,11.4s-3.6,10.7-10.2,11.5h-2.7c-7.7-.3-11.7-4.6-11.7-11.7s4.4-11.3,12.4-11.3M158,43.3c-2.6-2.4-4.8-3.8-6.8-4.5,6.7-2.6,10-8.4,10-17.9s-.9-7.1-2.5-10c-4-7.1-11.3-10.9-22.1-10.9-15.4,0-24.5,8-24.5,20.9s1.6,10,4.5,13.2l.7.8c1.8,2.1,3.1,3.4,5.1,4.3-2.6.9-4.1,1.8-6.1,3.6-4.9,4.2-7.3,9.7-7.3,16.6s2,11.4,5.3,15c5.4,5.6,11.6,8,22.1,8s15.9-2,20.7-5.9,7.2-9.7,7.2-17.1-2.1-12.2-6.2-15.8M55.6,156.8v-10.1h9.2c-.8,5.3-5.1,8.3-9.2,10.1M62.6,129.4h4v11.7h-4v-11.7ZM75,141.1h-4v-11.7h4v11.7ZM47.6,143.3h4.2v12.5h-4.2v-12.5ZM51.8,138.2h-4.2v-10.9h4.2v10.9ZM72.8,146.7h9.2v-5.6h-3.1v-16.9h-7.8v-4.2h-4.4v4.2h-7.8v16.8h-3.1v-18.9h-11.9v38.7h11.9v-2.3l3.1,3.7c6-3.4,8.7-8.9,9.9-14.6h.4c1.2,5.7,3.9,11.1,9.9,14.6l4.2-5c-4.4-1.6-9.4-4.8-10.3-10.5M150.7,143.4h3.4v4.5h-3.4v-4.5ZM157.6,143.4h3.3v4.5h-3.3v-4.5ZM164.3,143.4h3.5v4.5h-3.5v-4.5ZM146.9,161.6h3.9v-8.3h3.4v8.3h3.4v-8.3h3.3v8.3h3.4v-8.3h3.5v1.9c0,1.8-.3,3-2.8,3.4l2.2,3.7c2.3-.7,4.4-2,4.4-7.1v-17.1h-24.7v23.5h0ZM158.8,122.9h.8c1.2,2.9,3.1,5.4,5.2,7.5h-11.2c2.1-2.1,4-4.7,5.2-7.5M151.7,132.2v3.4h15.1v-3.4c1.5,1.2,3,2.3,4.4,3.1l3.5-4.6c-5.6-1.9-10.8-5.9-13.3-10.6h-4.4c-2.3,4.4-7.1,8.2-12.3,10.2,1.1-3.1,1.9-6.5,2.4-10.2h-4c-1.3,5.7-3.8,12.4-10.3,18.2l3.4,5.4c1-1,2-2.1,2.8-3.2v21.1h4.4v-28.2c.3-.7.5-1.3.8-2l2.9,3.9c1.4-.8,3-1.8,4.4-3.1"/>
</svg>