<?xml version="1.0" encoding="UTF-8"?>
<svg id="_레이어_1" data-name="레이어 1" xmlns="http://www.w3.org/2000/svg" version="1.1" xmlns:svg="http://www.w3.org/2000/svg" viewBox="0 0 300 210.8">
  <defs>
    <style>
      .cls-1 {
        fill: #fff;
        stroke-width: 0px;
      }
    </style>
  </defs>
  <path class="cls-1" d="M77.6,62.1c-3,1.4-7.2,1.4-7.2,1.4h0s-15.8,0-15.8,0v-22.9h16c6,0,8.6,2.1,8.6,2.1,2.8,1.9,3.5,4.4,3.5,4.4,2,5,0,10.2,0,10.2-1.4,3.3-5.1,4.9-5.1,4.9M89.3,80.3c-3.5-7-6.9-9.1-7-9.1,9.5-2.3,12.4-11.4,12.4-11.4,2.8-8.6.4-15.6.4-15.6-2.2-8.7-10-11.8-10-11.8-5.5-2.5-15-2.4-15-2.4h0s-28.4,0-28.4,0v77.4h12.9v-32h10.2c8.8,0,10.6,6,10.6,6,0,0,4.2,7.5,9.8,25.9h16c-5.5-15.1-11.8-26.9-11.8-27M273.7,62.5h-23.2v-23.2h-11.7v23.2h-23.2v11.7h23.2v24.6h11.7v-24.6h23.2v-11.7ZM203,69.3s-5.8-12.4-23-12.2c0,0-6.9-.3-13,3.8l1.6-17.7h33.8v-11.6h-44.7l-3.6,44,11.4,1.2s1-4.4,5.8-7c0,0,5.8-3.6,13.4-.9,0,0,4.8,1.7,7.6,7.4,0,0,2.9,6.1.5,13.1,0,0-1.5,5.4-7.2,8,0,0-4.5,2.5-12.1.5,0,0-6.9-2-9.9-9.4l-10.5,6.1s10.1,21.2,34.8,14.2c0,0,11.5-2.6,15.9-12.7,0,0,6.2-13.4-.9-27M112.5,31.5v11.7h9.4v64h12.8V31.5h-22.2ZM273.8,200.6H26.1c-8.8,0-16-7.2-16-16v-46h279.7v46c0,8.8-7.2,16-16,16M26.1,10.2h247.7c8.8,0,16,7.2,16,16v103.2H10.1V26.2c0-8.8,7.2-16,16-16M273.8,0H26.1C11.7,0,0,11.7,0,26.2v158.5c0,14.4,11.7,26.1,26.1,26.1h247.7c14.4,0,26.1-11.7,26.1-26.1V26.2C300,11.7,288.2,0,273.8,0M97.6,185v-10.1h9.2c-.8,5.3-5.1,8.3-9.2,10.1M104.6,157.5h4v11.7h-4v-11.7ZM117,169.3h-4v-11.7h4v11.7ZM89.6,171.5h4.2v12.5h-4.2v-12.5ZM93.8,166.4h-4.2v-11h4.2v11ZM114.8,174.9h9.2v-5.6h-3.1v-16.9h-7.8v-4.2h-4.4v4.2h-7.8v16.9h-3.1v-18.9h-11.9v38.7h11.9v-2.4l3.1,3.7c6-3.4,8.7-8.9,9.8-14.6h.4c1.2,5.7,3.9,11.1,9.9,14.6l4.2-5c-4.4-1.6-9.4-4.8-10.3-10.5M192.7,171.6h3.4v4.5h-3.4v-4.5ZM199.5,171.6h3.3v4.5h-3.3v-4.5ZM206.3,171.6h3.5v4.5h-3.5v-4.5ZM188.9,189.7h3.9v-8.3h3.4v8.3h3.4v-8.3h3.3v8.3h3.4v-8.3h3.5v1.9c0,1.8-.3,3-2.8,3.4l2.2,3.7c2.3-.7,4.4-2,4.4-7.1v-17.1h-24.7v23.5h0ZM200.8,151h.8c1.2,2.9,3.1,5.4,5.2,7.5h-11.2c2.1-2.1,4-4.7,5.3-7.5M193.6,160.4v3.4h15.1v-3.4c1.5,1.3,3,2.3,4.4,3l3.5-4.6c-5.5-1.8-10.8-5.8-13.2-10.5h-4.4c-2.3,4.4-7.1,8.2-12.3,10.2,1.1-3.1,1.9-6.5,2.4-10.2h-4c-1.3,5.7-3.8,12.4-10.3,18.2l3.4,5.4c1-1,2-2.1,2.8-3.2v21.1h4.4v-28.2c.3-.7.5-1.4.8-2l3,3.9c1.4-.8,2.9-1.8,4.4-3"/>
</svg>