<?xml version="1.0" encoding="UTF-8"?>
<svg id="_레이어_1" data-name=" 레이어 1" xmlns="http://www.w3.org/2000/svg" version="1.1" xmlns:svg="http://www.w3.org/2000/svg" viewBox="0 0 118.3 149">
  <defs>
    <style>
      .cls-1 {
        fill: #fff;
        stroke-width: 0px;
      }
    </style>
  </defs>
  <path class="cls-1" d="M86.4,69.9v-33.5h-27v11.2h14.5v14.7c-4.8,3-9.5,4.2-15.9,4.2s-12.5-2-16.4-6.5c-4.2-5-6.4-11.8-6.4-21.5s2.3-16.6,6.9-21.5c3.6-3.7,8.8-5.8,14.3-5.8s9,.9,11.8,3.1c1.7,1.2,4.1,3.4,6.2,8.2l10.9-5.3c-1.3-4-3.8-7.2-6-9.4-5.3-5-13-7.8-21.4-7.8s-15,1.7-20.9,5.6c-9.8,6.6-15.1,18.1-15.1,33s3.1,21.9,8.8,28.7c5.9,7.2,15,10.8,26.7,10.8s9.6-.7,13.9-1.8c5-1.3,8.2-2.8,14.9-6.5h.2ZM10.7,144.1v-9.1h8.3c-.7,4.8-4.6,7.5-8.3,9.1M17,119.3h3.6v10.6h-3.6v-10.6ZM28.2,129.9h-3.6v-10.6h3.6v10.6ZM3.5,131.9h3.8v11.3h-3.8v-11.3ZM7.3,127.3h-3.8v-9.9h3.8v9.9ZM26.2,135h8.3v-5.1h-2.8v-15.2h-7v-3.8h-4v3.8h-7.1v15.2h-2.8v-17.1H0v35h10.8v-2.1l2.8,3.3c5.4-3.1,7.9-8,8.9-13.2h.3c1,5.1,3.5,10,8.9,13.2l3.8-4.5c-4-1.5-8.5-4.3-9.3-9.5M96.7,131.9h3.1v4.1h-3.1v-4.1ZM102.8,131.9h3v4.1h-3v-4.1ZM108.9,131.9h3.1v4.1h-3.1v-4.1ZM93.2,148.4h3.5v-7.5h3.1v7.5h3.1v-7.5h3v7.5h3.1v-7.5h3.1v1.7c0,1.7-.3,2.7-2.5,3.1l2,3.3c2.1-.6,4-1.8,4-6.4v-15.4h-22.3v21.2h-.1ZM104,113.4h.7c1.1,2.6,2.8,4.9,4.7,6.8h-10.2c1.9-1.9,3.6-4.2,4.7-6.8M97.5,121.8v3h13.7v-3c1.4,1.1,2.7,2.1,4,2.8l3.1-4.2c-5-1.7-9.8-5.3-12-9.5h-4c-2.1,4-6.5,7.4-11.1,9.2,1-2.8,1.7-5.8,2.2-9.2h-3.6c-1.2,5.2-3.5,11.3-9.3,16.4l3,4.9c.9-.9,1.8-1.9,2.6-2.9v19h4v-25.5c.3-.6.5-1.2.7-1.8l2.7,3.5c1.3-.7,2.7-1.6,4-2.8"/>
</svg>