<svg xmlns="http://www.w3.org/2000/svg" width="250" height="250" version="1.0"><path d="M110.37 241.703c-27.132-3.396-50.69-15.361-70.214-35.663C18.377 183.393 7.958 157.41 7.958 125.75c0-33.378 12.01-61.277 36.382-84.518C66.797 19.82 92.851 9.46 124.25 9.46c31.397 0 57.452 10.36 79.908 31.773 24.373 23.241 36.383 51.14 36.383 84.518 0 33.379-12.01 61.277-36.383 84.518-16.43 15.667-34.873 25.296-57.34 29.936-9.375 1.937-27.118 2.666-36.448 1.498z" style="fill:#ffcb00;fill-opacity:1;stroke:#fff;stroke-width:6;stroke-opacity:1"/><path d="M119.465 106.438v19.192h56.244L128.586 228.8h27.554l45.215-102.033v-20.33h-81.89z" style="font-size:11px;font-style:normal;font-variant:normal;font-weight:700;font-stretch:normal;writing-mode:lr-tb;text-anchor:start;fill:#000;fill-opacity:1;stroke:none;stroke-width:1px;stroke-linecap:butt;stroke-linejoin:miter;stroke-opacity:1;font-family:UnDotum" transform="translate(-33.617 -36.972)"/></svg>