<?xml version="1.0" encoding="UTF-8"?>
<svg id="_레이어_1" data-name="레이어 1" xmlns="http://www.w3.org/2000/svg" version="1.1" viewBox="0 0 162.9 126.7">
  <defs>
    <style>
      .cls-1 {
        fill: #000;
        stroke-width: 0px;
      }
    </style>
  </defs>
  <path class="cls-1" d="M37,4L0,32.7l12.7,16,21.5-16.9v94.6h25.1V4h-22.2Z"/>
  <path class="cls-1" d="M137.4,40.1c0,3-.3,6-.9,8.7-.6,2.8-1.6,5.3-2.9,7.4-1.4,2.1-3.2,3.9-5.4,5.1-2.2,1.3-4.9,1.9-8.1,1.9s-5.6-.7-7.8-2-3.9-3-5.3-5c-1.4-2.2-2.4-4.6-3.1-7.4-.7-2.8-1-5.7-1-8.5,0-2.8.3-5.5,1-8.1s1.7-4.9,2.9-6.9c1.4-2.2,3.2-3.8,5.3-5,2.2-1.2,4.7-1.8,7.6-1.8s5.9.6,8.1,1.7c2.2,1.1,4,2.7,5.4,4.8,1.4,2,2.4,4.3,3.1,6.9.7,2.6,1,5.4,1,8.3h0ZM87.1,102.6l-3.2,19.8c4.4,1.5,8.8,2.6,13.2,3.3s8.9,1,13.6,1c10.3,0,18.8-2.1,25.6-6.3,6.8-4.2,12.1-9.6,16.1-16.1,3.9-6.7,6.7-14.2,8.3-22.4,1.6-8.1,2.4-16.4,2.4-24.7,0-7.2-.6-14.3-1.7-21.1-1.1-6.8-3.3-13-6.5-18.4-3.2-5.3-7.6-9.6-13.2-12.8-5.6-3.2-12.9-4.8-21.8-4.8s-13.5,1-18.8,3.1c-5.3,2.1-9.7,5-13.1,8.8-3.5,3.9-6.2,8.6-7.9,14-1.7,5.4-2.6,11.4-2.6,18.1s.8,10.7,2.5,15.3,4.1,8.6,7.2,11.9c3.2,3.2,7.1,5.7,11.7,7.5,4.6,1.8,9.9,2.8,15.9,2.8s10-1,14-2.9c4-2,7.5-5.1,10.5-9.4l.4.4c-.1,4.6-.8,9.1-1.9,13.6-1.1,4.5-2.9,8.6-5.1,12.3-2.4,3.5-5.5,6.5-9.2,8.7-3.7,2.3-8.4,3.4-14,3.4s-8.2-.5-11.8-1.4c-3.6-1-7-2.1-10.5-3.5h0Z"/>
</svg>