<svg xmlns="http://www.w3.org/2000/svg" width="250" height="250" version="1.2"><path d="M110.37 241.703c-27.132-3.396-50.69-15.361-70.214-35.663C18.377 183.393 7.958 157.41 7.958 125.75c0-33.378 12.01-61.277 36.382-84.518C66.797 19.82 92.851 9.46 124.25 9.46c31.397 0 57.452 10.36 79.908 31.773 24.373 23.241 36.383 51.14 36.383 84.518 0 33.379-12.01 61.277-36.383 84.518-16.43 15.667-34.873 25.296-57.34 29.936-9.375 1.937-27.118 2.666-36.448 1.498z" style="fill:#ffcb00;fill-opacity:1;stroke:#fff;stroke-width:6;stroke-opacity:1"/><path d="m76.27 69.466-37.046 28.69 12.728 15.963 21.471-16.914v94.623h25.078V69.466H76.27zM117.9 191.828h84.36v-19.192h-51.873a2794.13 2794.13 0 0 0 16.247-15.58c5.636-5.447 10.797-11.083 15.482-16.908 4.689-5.83 8.553-11.847 11.594-18.054 3.04-6.206 4.56-12.538 4.56-18.998 0-6.08-.919-11.368-2.757-15.864s-4.466-8.265-7.883-11.307c-3.548-2.91-7.793-5.095-12.733-6.552-4.94-1.457-10.45-2.186-16.531-2.186-6.46 0-12.919.76-19.378 2.279-6.46 1.52-12.54 3.736-18.242 6.65l2.094 20.33c4.178-2.66 8.738-4.972 13.678-6.935 4.94-1.964 10.133-2.946 15.58-2.946 5.195 0 9.946 1.362 14.252 4.085 4.306 2.723 6.46 6.872 6.46 12.446s-2.312 11.75-6.935 18.526c-4.623 6.776-9.975 13.394-16.056 19.853-6.208 6.46-12.352 12.35-18.433 17.67-6.08 5.322-10.576 9.376-13.487 12.163v20.52z" style="font-size:11px;font-style:normal;font-variant:normal;font-weight:700;font-stretch:normal;writing-mode:lr-tb;text-anchor:start;fill:#000;fill-opacity:1;stroke:none;font-family:UnDotum"/></svg>