<?xml version="1.0" encoding="UTF-8"?>
<svg id="_레이어_1" data-name="레이어 1" xmlns="http://www.w3.org/2000/svg" version="1.1" viewBox="0 0 160.5 124.7">
  <defs>
    <style>
      .cls-1 {
        fill: #000;
        stroke-width: 0px;
      }
    </style>
  </defs>
  <path class="cls-1" d="M37,0L0,28.7l12.7,16,21.5-16.9v94.6h25.1V0h-22.2Z"/>
  <path class="cls-1" d="M160.5,83.1c-.1-6.6-1.2-12.2-3.1-16.8-2-4.6-4.6-8.5-7.9-11.5-3.2-2.9-6.8-5.1-10.9-6.7-4.1-1.5-8.2-2.3-12.3-2.5-4.3-.3-8.1,0-11.4.9s-5.8,1.7-7.6,2.6l.2-29.6h48.8V.3h-73l-.6,69.7h19.8c.6-1.3,3-2.8,7.2-4.6,4.2-1.8,8.9-1.5,14.1.9,1.8.8,3.3,1.7,4.7,2.8,1.3,1.1,2.5,2.3,3.5,3.7,1,1.5,1.8,3.2,2.3,5,.5,1.8.8,3.8.8,6,.1,3.9-.4,7.2-1.7,9.9-1.3,2.7-3,4.9-5.3,6.7-2.4,1.8-5.3,3.1-8.6,3.9-3.3.8-7,1.2-11.2,1.2s-10.5-.7-14.9-2.2-8.1-2.8-11.3-4.1l-.2,22c4.2.9,9,1.7,14.3,2.4s10.5,1,15.5,1c9,0,16.6-1.1,22.9-3.3s11.4-5.2,15.3-9c3.8-3.7,6.6-8,8.3-13.1,1.7-5.1,2.5-10.4,2.4-16.1h0Z"/>
</svg>