<?xml version="1.0" encoding="UTF-8"?>
<svg id="Layer_1" data-name="Layer 1" xmlns="http://www.w3.org/2000/svg" version="1.1" viewBox="0 0 537 257.1">
  <defs>
    <style>
      .cls-1 {
        fill: #000;
        stroke-width: 0px;
      }
    </style>
  </defs>
  <path class="cls-1" d="M46.3,28.6c0,6.8.6,12.8,1.8,18.1,1.2,5.3,3.3,10,6.3,14.1s7.1,7.8,12.3,11.1l-8.5,11c-1.8-1.1-3.6-2.6-5.6-4.5-1.9-1.9-3.8-4-5.7-6.3-1.8-2.3-3.5-4.8-4.9-7.3s-2.4-5-3.1-7.5c-.5,2.4-1.5,5-2.9,7.7-1.4,2.7-3.1,5.4-5.1,8.1-2,2.6-4.1,5-6.4,7.2-2.3,2.2-4.5,3.9-6.6,5.1l-8.4-10.5c5.6-3.8,10-8,13.2-12.6,3.2-4.6,5.5-9.7,6.8-15.3s2-11.7,2-18.3v-5.5H13.9v-12.1h48.7v12.1h-16.2v5.5h0ZM68.6,36.5V2h14.1v101.5h-14.1v-53.6h-12.8v-13.4h12.8ZM90.7,0h14.2v108.5h-14.2V0Z"/>
  <path class="cls-1" d="M178.2,19.5v11.8h-63.2v-11.8h63.2ZM172.8,53.9c0,2.9-.6,5.5-1.9,8s-3.1,4.6-5.4,6.4c-2.3,1.8-5.1,3.2-8.3,4.3s-6.7,1.5-10.5,1.5-7.4-.5-10.6-1.5c-3.2-1-5.9-2.4-8.3-4.3-2.3-1.8-4.1-3.9-5.4-6.4s-1.9-5.1-1.9-8,1.1-7.4,3.3-10.4c2.2-3,5.2-5.5,9.2-7.2s8.5-2.7,13.6-2.7,7.4.5,10.5,1.5,5.9,2.4,8.3,4.3c2.3,1.8,4.1,4,5.4,6.4,1.3,2.5,1.9,5.1,1.9,8.1ZM144.5,77.8v16.5h58.7v12.2h-74.4v-28.7h15.7ZM163.1,3.3v11.2h-32.4V3.3h32.4ZM135.8,53.9c0,1.6.5,3.1,1.4,4.4.9,1.3,2.2,2.4,3.9,3.2,1.6.8,3.5,1.2,5.6,1.2s4-.4,5.7-1.2c1.7-.8,3-1.9,3.9-3.2.9-1.3,1.4-2.8,1.4-4.4s-.5-3.1-1.4-4.5-2.2-2.5-3.9-3.3c-1.7-.8-3.6-1.3-5.7-1.3s-4,.4-5.6,1.3c-1.6.8-2.9,2-3.9,3.3s-1.4,2.9-1.4,4.5ZM200.8,0v36.6h14.8v12.5h-14.8v32.3h-15.2V0h15.2Z"/>
  <path class="cls-1" d="M258.6,6.3v9.1c0,4.4.6,8.3,1.9,11.7,1.3,3.5,3,6.5,5.3,9.1,2.2,2.6,4.8,4.9,7.8,6.7,3,1.9,6.1,3.4,9.5,4.6l-8.3,12c-2.2-.8-4.4-1.9-6.8-3.3-2.4-1.4-4.7-3.1-6.9-5-2.2-1.9-4.2-4-6-6.2-1.8-2.2-3.2-4.5-4.1-6.9-.8,2.6-2.1,5.1-3.9,7.6-1.8,2.5-3.9,4.9-6.4,7.1-2.5,2.2-5,4.1-7.7,5.8-2.7,1.7-5.4,3-8.1,3.9l-7.7-11.9c5.4-2,10-4.7,13.8-8,3.8-3.4,6.8-7.3,8.9-11.8,2.1-4.5,3.1-9.4,3.1-14.8V6.3h15.6ZM305.6,86.4c0,4.5-1.5,8.3-4.6,11.6-3,3.2-7.4,5.7-13.1,7.5s-12.5,2.6-20.5,2.6-14.7-.9-20.3-2.6c-5.7-1.8-10.1-4.3-13.1-7.5-3-3.2-4.6-7.1-4.6-11.6s1.5-8.4,4.6-11.7,7.4-5.8,13.1-7.6c5.7-1.8,12.5-2.7,20.3-2.7s14.8.9,20.5,2.7,10.1,4.3,13.1,7.6,4.6,7.2,4.6,11.7ZM245,86.4c0,3,2,5.3,6,7,4,1.7,9.5,2.6,16.5,2.6s12.8-.9,16.8-2.6c3.9-1.7,5.9-4.1,5.9-7s-2-5.3-5.9-7-9.5-2.6-16.8-2.6-12.5.9-16.5,2.6c-4,1.7-6,4.1-6,7ZM304.6,0v26.5h15.3v12.5h-15.3v24.8h-15.3V0h15.3Z"/>
  <path class="cls-1" d="M380.3,33c0,3.8-.7,7.3-2.2,10.4-1.4,3.1-3.4,5.8-6,8.1-2.6,2.2-5.6,4-9,5.2-3.4,1.2-7.2,1.8-11.1,1.8s-7.8-.6-11.3-1.8c-3.5-1.2-6.5-3-9-5.2-2.6-2.2-4.6-4.9-6-8.1-1.4-3.1-2.2-6.6-2.2-10.4s.7-7.3,2.2-10.4c1.4-3.1,3.4-5.8,6-8.1,2.6-2.3,5.6-4,9-5.2,3.4-1.2,7.2-1.8,11.3-1.8s7.7.6,11.1,1.8c3.4,1.2,6.5,3,9,5.2,2.6,2.3,4.6,5,6,8.1,1.4,3.1,2.2,6.6,2.2,10.4ZM413.7,86.6c0,4.4-1.5,8.2-4.6,11.4-3,3.2-7.4,5.7-13.1,7.5s-12.6,2.6-20.6,2.6-14.8-.9-20.4-2.6c-5.7-1.8-10-4.3-13.1-7.5-3-3.2-4.6-7-4.6-11.4s1.5-8.5,4.6-11.8c3-3.3,7.4-5.9,13.1-7.6,5.7-1.8,12.5-2.7,20.4-2.7s14.9.9,20.6,2.7,10.1,4.3,13.1,7.6c3,3.3,4.6,7.3,4.6,11.8ZM338.3,33c0,2.7.6,5,1.8,6.9,1.2,1.9,2.8,3.4,4.9,4.5,2.1,1.1,4.4,1.6,7,1.6s4.8-.5,6.9-1.6c2.1-1.1,3.7-2.6,4.9-4.5,1.2-1.9,1.8-4.3,1.8-6.9s-.6-5-1.8-7c-1.2-2-2.8-3.5-4.9-4.6-2.1-1.1-4.3-1.6-6.9-1.6s-4.9.5-7,1.6c-2.1,1.1-3.7,2.6-4.9,4.6-1.2,2-1.8,4.3-1.8,7ZM352.9,86.6c0,1.9.9,3.5,2.7,4.9,1.8,1.4,4.4,2.5,7.7,3.3,3.4.8,7.4,1.2,12.1,1.2,7.3,0,12.9-.9,16.8-2.6,3.9-1.7,5.9-4,5.9-6.8s-2-5.4-5.9-7.1c-3.9-1.8-9.5-2.6-16.8-2.6s-12.5.9-16.5,2.6c-4,1.7-6,4.1-6,7.2ZM413,0v64.9h-15.5v-14.2h-14.6l.4-12.9h14.2v-11.7h-14.2l-.4-12.9h14.6V0h15.5Z"/>
  <path class="cls-1" d="M483.3,11.3c-.3,10.7-2.1,20.9-5.5,30.4-3.4,9.5-8.6,18.3-15.7,26.3s-16.4,15.2-27.8,21.4l-8.6-11.9c6-2.8,11.4-6.2,16.3-10.2,4.9-3.9,9.1-8.2,12.6-12.9s6.4-9.6,8.5-14.7c2.1-5.1,3.5-10.4,4-15.6h-35.2v-12.7h51.3ZM511.4,0v41.4h16v12.6h-16v54.3h-15.2V0h15.2Z"/>
  <path class="cls-1" d="M16.6,257.1C5.5,242.4,0,224.2,0,202.4s5.5-40,16.6-54.7h8.6c-4.3,5.4-7.8,13.3-10.6,23.7s-4.2,20.7-4.2,30.9,1.4,20.5,4.2,30.9c2.8,10.4,6.3,18.3,10.6,23.7h-8.6Z"/>
  <path class="cls-1" d="M63.8,180.2c0,9.3,1.6,17.2,4.7,23.7,3.1,6.5,8.2,12,15.3,16.4l-5.7,7.3c-2.1-1.3-4.1-2.9-6.1-4.8s-3.9-4.1-5.7-6.4-3.3-4.8-4.6-7.3-2.2-5-2.8-7.4c-.5,2.5-1.4,5.2-2.7,7.9-1.3,2.7-2.9,5.4-4.7,7.9s-3.9,5-6.2,7.1c-2.2,2.2-4.6,4-7,5.4l-5.6-7c7.5-5,12.9-11,16.2-18.1,3.3-7.1,5-15.3,5-24.6v-8.6h-18v-8.1h44.7v8.1h-16.9v8.6h0ZM88.8,187v-32.6h9.4v92h-9.4v-50.5h-14.6v-8.9h14.6ZM108.8,152.3h9.4v99.1h-9.4v-99.1Z"/>
  <path class="cls-1" d="M186,170.7v8h-57.2v-8h57.2ZM181.1,200.9c0,3.4-1,6.4-2.9,9.1s-4.6,4.8-8.1,6.4c-3.4,1.6-7.4,2.3-12,2.3s-8.5-.8-12-2.3c-3.5-1.6-6.2-3.7-8.1-6.4s-2.9-5.7-2.9-9.1,1-6.5,2.9-9.2c1.9-2.7,4.6-4.9,8.1-6.4,3.5-1.6,7.5-2.3,12-2.3s8.5.8,12,2.3c3.4,1.6,6.1,3.7,8.1,6.4,2,2.7,2.9,5.8,2.9,9.2ZM152.9,223.4v17.2h56.4v8.2h-66.8v-25.4h10.4ZM172.6,155.9v7.6h-29.1v-7.6h29.1ZM145.1,200.9c0,1.9.6,3.6,1.7,5.1,1.1,1.5,2.6,2.8,4.6,3.7,2,.9,4.2,1.4,6.7,1.4s4.8-.5,6.7-1.4c2-.9,3.5-2.1,4.6-3.7,1.1-1.5,1.7-3.3,1.7-5.1s-.6-3.6-1.7-5.2-2.6-2.9-4.6-3.8c-2-1-4.2-1.4-6.7-1.4s-4.7.5-6.7,1.4c-2,1-3.5,2.2-4.6,3.8s-1.7,3.3-1.7,5.2ZM205.7,152.3v34.4h14.5v8.4h-14.5v31.1h-10v-73.8h10Z"/>
  <path class="cls-1" d="M285.6,208.6c-2.7.4-5.8.8-9.3,1.2-3.4.4-7,.7-10.8.9-3.8.3-7.5.5-11.2.7-5.6.3-11,.5-16.1.6-5.1.2-9.9.3-14.2.3l-1.3-8.3c3.3,0,6.7,0,10.1,0s6.8-.1,10.3-.3v-21.3h9.7v21c2.4,0,5-.2,7.9-.4,2.9-.2,5.8-.3,8.7-.6,2.9-.2,5.8-.4,8.5-.7,2.7-.3,5.1-.5,7.1-.9l.7,7.7ZM265.8,192.8c.7-2.7,1.3-6.2,1.7-10.5.4-4.3.6-9.2.6-14.7h-39.6v-8.1h49.7c0,4.3,0,8.6-.3,12.8s-.5,8.2-.9,11.9c-.4,3.7-.9,7-1.6,9.7l-9.7-1.1ZM248.1,219.8v20.5h55.7v8.1h-65.9v-28.7h10.2ZM301.1,183h13.9v8.6h-13.9v34.2h-10v-73.7h10v30.8Z"/>
  <path class="cls-1" d="M366.2,157.8v27.8h-33.5v13.1c4.6,0,9.5,0,14.6-.1,5.1-.2,10.1-.5,15-.9,4.9-.5,9.4-1.1,13.5-1.9l.9,7.9c-3.1.7-6.7,1.2-10.7,1.6-4.1.4-8.5.8-13.2,1s-9.7.4-14.8.5c-5.1,0-10.3,0-15.5,0v-28.7h33.5v-12h-33.4v-8.1h43.7ZM395.2,217v33h-63.3v-33h63.3ZM342,242.1h43v-17.3h-43v17.3ZM395.2,152.3v25h14.8v8.4h-14.8v25.5h-10.1v-59h10.1Z"/>
  <path class="cls-1" d="M464.1,162.9c-.2,10.4-2,19.9-5.6,28.5-3.6,8.7-8.7,16.5-15.3,23.4-6.6,6.9-14.7,12.9-24.1,17.9l-5.7-7.9c6-2.9,11.4-6.3,16.1-10.2,4.8-3.9,8.9-8.2,12.3-12.8,3.4-4.7,6.1-9.6,8.1-14.7,2-5.1,3.2-10.4,3.5-15.7h-35.1v-8.5h45.8ZM489.5,152.3v39.7h15.5v8.4h-15.5v51h-10.1v-99.1h10.1Z"/>
  <path class="cls-1" d="M520.4,257.1h-8.6c4.3-5.4,7.8-13.3,10.6-23.7,2.8-10.4,4.2-20.7,4.2-30.9s-1.4-20.5-4.2-30.9-6.3-18.3-10.6-23.7h8.6c11.1,14.6,16.6,32.9,16.6,54.7s-5.5,39.9-16.6,54.7Z"/>
</svg>