<?xml version="1.0" encoding="UTF-8"?>
<svg id="Layer_1" data-name="Layer 1" xmlns="http://www.w3.org/2000/svg" version="1.1" viewBox="0 0 488.4 496.2">
  <defs>
    <style>
      .cls-1 {
        fill: #fff;
        stroke-width: 0px;
      }
    </style>
  </defs>
  <polygon class="cls-1" points="39.6 496.2 39.6 138.3 0 138.3 0 138.3 51.3 0 150.7 0 150.7 496.2 39.6 496.2"/>
  <path class="cls-1" d="M487.1,292.9c-.9-6-2.4-11.2-4.5-15.6-2.2-4.3-5.1-8-8.8-11-3.7-3-8.3-6-13.9-9.1l-33.1-15.6,33.1-17.6c9.9-6,17-12.8,21.1-20.1,4.1-7.4,6.2-18.4,6.2-33.1V11.1c0-6.1-5-11.1-11.1-11.1H200.1c-6.1,0-11.1,5-11.1,11.1v159.7c0,14.3,2.1,25.2,6.2,32.8,4.1,7.6,11.2,14.4,21.1,20.5l33.1,17.6-33.1,15.6c-11.3,6-18.7,13.2-22.4,21.4-3.7,8.2-5.5,20.4-5.5,36.4v170.1c0,6.1,5,11.1,11.1,11.1h277.9c6.1,0,11.1-5,11.1-11.1v-170.1c0-8.7-.4-16-1.3-22.1ZM378,393.5c0,6.1-5,11.1-11.1,11.1h-57c-6.1,0-11.1-5-11.1-11.1v-99.3c0-6.1,5-11.1,11.1-11.1h57c6.1,0,11.1,5,11.1,11.1v99.3ZM378,189.2c0,6.1-5,11.1-11.1,11.1h-57c-6.1,0-11.1-5-11.1-11.1v-86.8c0-6.1,5-11.1,11.1-11.1h57c6.1,0,11.1,5,11.1,11.1v86.8Z"/>
</svg>