<?xml version="1.0" encoding="UTF-8"?>
<svg id="Layer_1" data-name="Layer 1" xmlns="http://www.w3.org/2000/svg" version="1.1" viewBox="0 0 481.9 496.1">
  <defs>
    <style>
      .cls-1 {
        fill: #fff;
        stroke-width: 0px;
      }
    </style>
  </defs>
  <polygon class="cls-1" points="39.6 496.1 39.6 138.3 0 138.3 0 138.3 51.3 0 150.7 0 150.7 496.1 39.6 496.1"/>
  <path class="cls-1" d="M470.8,0H199.4c-6.1,0-11.1,5-11.1,11.1v150h108.5v-67.5h76.6v59.7l-189,269.5v72.8h296.2v-96.8h-158.5l138.3-194.2c4.3-6.1,7.8-11.4,10.4-15.9,2.6-4.5,4.8-9,6.5-13.3,1.7-4.3,2.9-9.1,3.6-14.3.7-5.2,1-11.5,1-18.8V11.1c0-6.1-5-11.1-11.1-11.1Z"/>
</svg>