<?xml version="1.0" encoding="UTF-8"?>
<svg id="Layer_1" data-name="Layer 1" xmlns="http://www.w3.org/2000/svg" version="1.1" viewBox="0 0 629.9 366.2">
  <defs>
    <style>
      .cls-1 {
        fill: #fff;
        stroke-width: 0px;
      }
    </style>
  </defs>
  <path class="cls-1" d="M162,366.2l-8.6-54.6h-63.2s-8.6,54.6-8.6,54.6H0s0-1,0-1L77.2,0h89.1s77.2,365.3,77.2,365.3v1s-81.5,0-81.5,0h0ZM121.7,117.9l-20.1,124.7h40.3l-20.1-124.7Z"/>
  <polygon class="cls-1" points="257.9 366.2 257.9 0 339.4 0 339.4 292.9 435.2 292.9 435.2 366.2 257.9 366.2"/>
  <polygon class="cls-1" points="452.5 366.2 452.5 0 534 0 534 292.9 629.9 292.9 629.9 366.2 452.5 366.2"/>
</svg>