<?xml version="1.0" encoding="UTF-8"?>
<svg id="_레이어_1" data-name="레이어 1" xmlns="http://www.w3.org/2000/svg" version="1.1" xmlns:inkscape="http://www.inkscape.org/namespaces/inkscape" xmlns:sodipodi="http://sodipodi.sourceforge.net/DTD/sodipodi-0.dtd" xmlns:svg="http://www.w3.org/2000/svg" viewBox="0 0 729.9 608.1">
  <defs>
    <style>
      .cls-1 {
        fill: #000;
        stroke-width: 0px;
      }
    </style>
  </defs>
  <path id="path53" class="cls-1" d="M464,399.5c-5.4-23.1-24.5-23.2-52.6-31.5-55.7-7.3-69.3-53.1-7.4-56.4h91.3c48.8-.5,156.8-2.2,187.7-.7,56.2,1.1,68.5,38.5.4,55.2-17.9,4.4-47.3,19.6-47.8,52.2-.2,17.3,0,123.5,0,123.5,0,0-29.9,70.9-321.8,66.1C133.9,604.1,7.3,599.4,0,323.6-.9-33.9,241.8,6.6,336.2,0c133.9,1.9,204.1,17.3,243,30.7,60.2,19.7,62.8,46.7,63.6,95.5.8,49.1-10.9,95.1-70.6,97.4-83.6,6.6-90-27.8-95.9-58.9-12.4-91.9-18.9-96.9-125.9-97.7-155.2-1-172.4,74.9-168.7,246.1,2.8,129.2,5.4,222.9,157,221,81,.2,126.8-5.3,126.8-59.9,0,0,4.2-49.1-1.6-74.7"/>
</svg>