<?xml version="1.0" encoding="UTF-8"?>
<svg xmlns="http://www.w3.org/2000/svg" version="1.1" xmlns:inkscape="http://www.inkscape.org/namespaces/inkscape" xmlns:sodipodi="http://sodipodi.sourceforge.net/DTD/sodipodi-0.dtd" xmlns:svg="http://www.w3.org/2000/svg" viewBox="0 0 1000 433.2">
  <defs>
    <style>
      .cls-1 {
        fill: #000;
        stroke-width: 0px;
      }
    </style>
  </defs>
  <g id="svg79" sodipodi:docname="Rated NC-17.svg">
    <g id="g1277">
      <path id="path51" class="cls-1" d="M15.9,15.3h967.2v402.5H15.9V15.3ZM0,433.2h1000V0S0,0,0,0v433.2Z" sodipodi:nodetypes="cccccccccc"/>
      <path id="path55" class="cls-1" d="M872.3,114.6c-34.3,0-65.9,1.6-80.6,13.1-10.4,7.7-11.6,14.6-11.9,33.1,1.1,10-3.9,30.1,33.9,25.1,31.2-7-1.2-24.7,44-27.8,17.4-.4,29.3-.8,37-.4-22.3,48.2-44.3,96.8-73.6,159.3-3.1,7-8.5,18.5,3.9,18.5h40.9c11.2-.4,12.7-6.1,16.2-15.4,23.2-54.4,40.2-92.9,71-161.1,4.6-8.9,4.7-18.2,2.7-29.3-3.1-12.1-16.6-14.7-27.8-15.1h-55.5ZM430.1,114.8c-5.6,0-11.6,0-18,.1-45.8,1.2-65.7,16.5-81.7,45.7-16,32.7-19.2,99.6-5.5,133.1,4.6,9.1,5.1,28,46.6,40,30.7,6.8,96.6,6.7,132.6-6.5,0,0,24.4-8.5,24.4-35.4.2-6.4-11.2-17.1-36.4.4-21.8,16.8-68.2,19-87.6,10.6-10.9-4.6-16.3-12.3-20.9-28.7-2.4-7.8-10.4-90.5,6.8-114.3,10.8-19.5,47.2-20.1,64.7-16,17.6,6.6,15.6,13.2,22.5,41.8,6.4,12.1,15.9,11.9,29.7,11.5,22.4-1.2,20.8-17.1,20.8-34.4.2-26.2-5.6-29.3-19.1-37.2-20.5-8.5-39.6-10.7-78.7-10.7h0ZM82,117.5c-6.7,0-14.1.2-22.9.6-16.6.4-16.9,17.4-6.1,20.4,17.3,5,28.3,1.3,29.4,22.6v126.1c.2,25.5-20.5,26.3-20.6,26.3-21.2,3.2-21.3,21.5-3.9,22.1,0,0,86.8,0,86.8,0,13.9-.4,21.7-18-3.9-21.5-18.5-2.6-22.9-6.7-22.2-28.6l-.2-92.5c-.7-2.5.5-2,1.3-.2,0,0,101.9,134.7,101.9,134.7,4.9,5.4,9.5,8.5,17.4,8.1,0,0,27.3,0,27.5,0,14.5,0,12.7-21.2,12.7-21.2l-.6-148.2c.4-25.3,18.2-25.2,22.5-27.1,19.4-7.2,14.1-20.5-.9-21.1-8.7-.3-73.2.2-82.2,0-14.9.5-19,18.1,3.4,21.8,7.6,2.6,20.4,1.1,20.8,26.4,0,0-.1,84.2-.1,84.2.8,5.9-1.5,1.6-1.5,1.6l-101.1-130c-4.7-5.5-24.8-4.2-38.6-4.5-6.2,0-12.3,0-19,0h0ZM729.1,118.8c-8.2,0-18.7.3-26.9.5-16.1,2.2-28.6,7.1-54.9,16.1-15.3,6.1-10.5,29.1,16.7,23.4,18.5-2.1,14.9,7.7,15.3,16.6l-.6,114.2c-.6,21.6-5.7,22.3-16,23.9h-5.1c-16.5,1.4-13.9,20.9-.6,20.4h49.3c22.9,0,45.3.2,58.6.2,12.8-.2,13-20.1-1.6-20.3h-2.8c-16.3-.2-20.8-7-20.7-24.2v-130.7c0-17-.3-27,0-34.8.1-2.5.1-5.1-3.5-5.1-2,0-4.5,0-7.3,0h0ZM569.1,207.1c-13.1,1.1-20.5,7.7-20.2,23.1.2,12.2,7.1,18.5,20.2,18.7l39.3.2c13.3,0,17.4-14.5,17.6-18.9.4-8.8-3.2-23-17.6-23.1h-39.3Z"/>
    </g>
  </g>
</svg>