<?xml version="1.0" encoding="UTF-8"?>
<svg xmlns="http://www.w3.org/2000/svg" version="1.1" xmlns:inkscape="http://www.inkscape.org/namespaces/inkscape" xmlns:sodipodi="http://sodipodi.sourceforge.net/DTD/sodipodi-0.dtd" xmlns:svg="http://www.w3.org/2000/svg" viewBox="0 0 1000 887.2">
  <defs>
    <style>
      .cls-1 {
        fill: #000;
        stroke-width: 0px;
      }
    </style>
  </defs>
  <g id="svg63" sodipodi:docname="Rated R.svg">
    <g id="g1203">
      <path id="path51" class="cls-1" d="M24,23h950.7v841.2H24V23ZM0,887.2h1000V0H0v887.2Z" sodipodi:nodetypes="cccccccccc"/>
      <path id="path55" class="cls-1" d="M604.3,324c-2.1,98.1-19.3,90.5-110.7,92.7-11,.3-63.7,0-83.1,0,.7-30.4.7-159.2.7-159.2,0-21.3,12-36.7,34.8-37.5,155.6-4.9,160.3,12.9,158.4,103.9M485.5,518.9c14.9,19.9,26.4,35.9,26.4,35.9,20.4,27,117.2,188.4,160.5,192.1l216.3.3c35.5-.6,43.3-47.5,3.3-57.7-17.1-5.7-71.4-9.7-142.7-99.3-41.5-51.1-79.4-98-97-122.4,99.2,0,133.6-29.5,134.8-142.1,1.1-196.5-77.2-163.1-291.7-167.8,0,0-334.5-1.1-342.5-1.6-72.6-2.3-94.5,59.2,4.9,63.9,51.1,3.7,77.8,30.7,81.6,105.4v266.3c-3.1,77-4.5,94.4-96.5,101.7-50.2.6-56.8,53.3,11.9,53.7,9.4-.3,332.5-.5,332.8-.5,74.1,2.9,67.1-50.8,18.4-53.3-64.7-4.9-95.1,5.4-97.4-76.5-.4-8.8-1.9-57.5-1.9-73.2.2-70,52.4-63.1,78.6-25"/>
    </g>
  </g>
</svg>