<?xml version="1.0" encoding="UTF-8"?>
<svg id="_레이어_1" data-name="레이어 1" xmlns="http://www.w3.org/2000/svg" version="1.1" xmlns:inkscape="http://www.inkscape.org/namespaces/inkscape" xmlns:sodipodi="http://sodipodi.sourceforge.net/DTD/sodipodi-0.dtd" xmlns:svg="http://www.w3.org/2000/svg" viewBox="0 0 912.5 231.5">
  <defs>
    <style>
      .cls-1 {
        fill: #000;
        stroke-width: 0px;
      }
    </style>
  </defs>
  <path id="path55" class="cls-1" d="M808.7,0c-30.7,0-53,1.6-65.9,11.7-10.7,7.9-11.6,14.4-12,33.2,1,10.1-3.8,29.9,34,24.9,31-6.8,1.9-39.1,47.1-41.9,19.4-1.3,41.7-.7,42.9,31.2.5,23.5-3.6,32.2-19.1,35.4-28.3,6-46.6-6-43.6,20.6,4.5,16.3,31.7,4.2,51.5,12.5,10.9,6.7,13.9,13.7,12,35.6-1.9,31-23.2,35-40.2,35s-25.7,1.8-29.8-11c-7.4-33.6-27.7-32.5-39.4-27.9-14.3,5.7-15.4,18.3-14.8,32.7.5,21.1,5.6,31.3,54.3,33.8,54.8,2.4,120.1,7,125.6-62.2,1.2-35.2-10.7-46.6-25.5-57.8,23.1-12.4,29.1-21.9,25.9-56.5C904.1-.5,843.6.4,822.3.2h-13.7v-.2ZM370.3,3.5c-32.8,2.4-117.4-12.8-117,121.3,2.5,103.5,46.6,105.2,109.3,106.6,101.7,1.9,112.1-24.7,112.1-24.7v-46.3c.1-12.3,10.4-17.9,16.7-19.6,23.7-6.3,19.4-20.3-.2-20.7-10.8-.5-48.4.1-65.4.2h-31.8c-21.5,1.3-16.8,18.5,2.6,21.2,9.8,3,16.5,3.2,18.3,11.8,2.1,9.6.6,28.1.6,28.1,0,20.5-15.9,22.5-44.2,22.4-52.8.7-53.7-34.4-54.7-83-1.2-64.2,4.7-92.7,58.8-92.3,31.5,0,39.5,6.3,43.8,36.6,2.1,11.7,4.3,24.6,33.5,22.1,20.8-.9,24.8-18.1,24.6-36.5-.3-18.4-1.2-28.5-22.2-35.9-13.6-5.1-38-10.8-84.7-11.5v.2ZM672.9,8.2c-8.1,0-18.5.2-26.6.4-15.9,2.2-28.2,7-54.3,15.9-15.1,6-10.3,28.9,16.5,23.2,18.3-2,14.7,7.7,15.1,16.5l-.6,112.9c-.6,21.4-5.6,21.9-15.8,23.6h-5c-16.4,1.4-13.7,20.6-.6,20.3h106.8c12.7,0,12.9-19.9-1.6-20.1h-2.8c-16.1-.2-20.6-6.9-20.4-23.9V47.6c0-16.7-.3-26.6,0-34.4,0-2.4,0-5-3.4-5h-7.3ZM117.8,8.7c-28.5,0-50.8.7-67.2.7s-20.6-.5-37.7.4c-16.1.4-17.2,14.9-2.6,19.7,16.1,6.9,29.4,1.9,30.5,22.6v122.7c-.4,24.5-16,22.9-23.9,26.2-21.5,1.8-19,20.5-4.5,21,8.4.3,23.4.1,41.4.1,36.7,0,80.4.4,90.1.1,13.8-.5,15.6-20.2-9.1-22-20.5-3.6-31.3-5.8-30.5-27l-.4-36.2c6.7.4,13.7.1,19.6.1,79,0,121.8,7.6,116.5-74.4-1-56.3-39.5-54-122-54h-.2ZM124.9,32.9c34.2-.4,44.5,7.1,47.1,32.5.7,49.6-15.9,47.1-57.3,47.1s-7,0-10.6-.3V41.7c0-7.1,5.1-8.8,20.8-8.8ZM540.6,89.2c-12.9,1.1-20.2,7.6-19.9,22.8.3,12,7,18.2,19.8,18.4h38.7c13.1.1,17.1-14.1,17.2-18.4.4-8.7-3.1-22.6-17.2-22.8h-38.6Z"/>
</svg>