<?xml version="1.0" encoding="UTF-8"?>
<svg id="Layer_1" data-name="Layer 1" xmlns="http://www.w3.org/2000/svg" version="1.1" viewBox="0 0 60 44.3">
  <defs>
    <style>
      .cls-1 {
        fill: #fff;
        stroke-width: 0px;
      }
    </style>
  </defs>
  <path class="cls-1" d="M28,0v2h-10.3v9.5h-7.3V2H0V0s28,0,28,0Z"/>
  <path class="cls-1" d="M52.5,0h7.5l-11.8,11.5h-6.8L29.7,0h7.7l7.5,8.7L52.5,0Z"/>
  <path class="cls-1" d="M38.5,23.7c-.6-2-2-3.3-4.2-4.1-1.2-.4-2.6-.6-4.1-.6-2.9,0-5.3.9-7.1,2.6-1.9,1.7-2.8,4.4-2.8,7.9s1,6,3,7.5c2,1.5,4.3,2.2,6.9,2.2s4.6-.6,6.2-1.7,2.6-2.7,3-4.6h-8.3v-4.8h15v15.4h-5l-.8-3.6c-1.4,1.4-2.8,2.3-3.9,2.9-2,1-4.4,1.5-7.3,1.5-4.8,0-8.7-1.3-11.7-4-3.2-2.7-4.8-6.3-4.8-10.9s1.6-8.4,4.8-11.2c3.2-2.8,7.4-4.2,12.7-4.2s8.2.9,11,2.8c2.8,1.9,4.4,4.2,4.8,6.9h-7.4Z"/>
</svg>