<?xml version="1.0" encoding="UTF-8"?>
<svg id="Layer_1" data-name="Layer 1" xmlns="http://www.w3.org/2000/svg" version="1.1" viewBox="0 0 66.6 43.5">
  <defs>
    <style>
      .cls-1 {
        fill: #fff;
        stroke-width: 0px;
      }
    </style>
  </defs>
  <path class="cls-1" d="M29.1,0v2h-10.3v9.5h-7.3V2H1.2V0s28,0,28,0Z"/>
  <path class="cls-1" d="M53.6,0h7.5l-11.8,11.5h-6.8L30.8,0h7.7l7.5,8.7L53.6,0Z"/>
  <path class="cls-1" d="M22.6,14.7h10.2v28.8h-6.6v-19.5c0-.6,0-1.3,0-2.4,0-1,0-1.8,0-2.3l-6.4,24.2h-6.9l-6.4-24.2c0,.5,0,1.3,0,2.3,0,1,0,1.8,0,2.4v19.5H0V14.7h10.3l6.2,22.6,6.1-22.6Z"/>
  <path class="cls-1" d="M46.6,14.7h8l12,28.8h-7.7l-2.2-5.9h-12.5l-2.3,5.9h-7.4l12.1-28.8ZM46.1,32.6h8.7l-4.3-11.3-4.4,11.3Z"/>
</svg>