<?xml version="1.0" encoding="utf-8"?>
<!-- Generator: Adobe Illustrator 28.2.0, SVG Export Plug-In . SVG Version: 6.00 Build 0)  -->
<svg version="1.1" id="레이어_1" xmlns="http://www.w3.org/2000/svg" xmlns:xlink="http://www.w3.org/1999/xlink" x="0px"
	 y="0px" viewBox="0 0 125.8 106.7" style="enable-background:new 0 0 125.8 106.7;" xml:space="preserve">
<style type="text/css">
	.st0{fill:#FFFFFF;}
</style>
<path class="st0" d="M78.9,90.9c-4.6,5-10,6.6-16.2,6.6c-6.5,0-11.5-1.9-15.8-6.2c-5.8-5.8-5.8-13.1-5.8-23.1c0-10,0-17.3,5.8-23.1
	c4.2-4.2,9.2-6.6,15.8-6.6c13.5,0,20,8.9,21.5,18.9H73.1c-1.5-5.8-4.6-8.5-10.4-8.5c-3.1,0-5.8,1.2-7.3,3.1c-2.3,2.3-2.7,5-2.7,16.2
	s0.4,13.9,2.7,16.2c1.5,1.9,4.2,3.1,7.3,3.1c3.1,0,6.2-1.2,8.1-3.1c1.5-2.3,2.3-4.6,2.3-7.7v-2.3H62.7v-9.2h21.5v8.5
	C84.2,81.7,83.1,86.7,78.9,90.9L78.9,90.9z"/>
<path class="st0" d="M62.7,7.3c3.1,5,53.5,90.2,56.5,95.6H6.5C9.6,97.5,60,12.3,62.7,7.3L62.7,7.3z M61.2,2.7L0,106.7h125.8L62.7,0
	L61.2,2.7z"/>
</svg>
