<?xml version="1.0" encoding="utf-8"?>
<!-- Generator: Adobe Illustrator 28.2.0, SVG Export Plug-In . SVG Version: 6.00 Build 0)  -->
<svg version="1.1" id="레이어_1" xmlns="http://www.w3.org/2000/svg" xmlns:xlink="http://www.w3.org/1999/xlink" x="0px"
	 y="0px" viewBox="0 0 100.4 100.2" style="enable-background:new 0 0 100.4 100.2;" xml:space="preserve">
<style type="text/css">
	.st0{fill:#FFFFFF;}
</style>
<path class="st0" d="M51,34.7h-8.9v12.7H51c4.2,0,7-2.7,7-6.6C57.9,37.4,55.2,34.7,51,34.7z M58.3,74.4L49,55.1h-7v19.3h-9.3V26.2
	h18.9c9.7,0,15.8,6.5,15.8,14.6c0,6.9-4.2,11.2-8.9,12.7l10.8,20.8H58.3L58.3,74.4z"/>
<path class="st0" d="M50.2,4.2c1.9,2.3,43.6,43.5,45.6,45.8L50.2,95.5C48.3,93.6,6.6,52,4.2,50.1C6.6,47.8,48.3,6.5,50.2,4.2
	L50.2,4.2z M49,1.2L0,50.1l50.2,50.1l50.2-50.1L50.2,0L49,1.2z"/>
</svg>
