<?xml version="1.0" encoding="utf-8"?>
<!-- Generator: Adobe Illustrator 28.2.0, SVG Export Plug-In . SVG Version: 6.00 Build 0)  -->
<svg version="1.1" id="레이어_1" xmlns="http://www.w3.org/2000/svg" xmlns:xlink="http://www.w3.org/1999/xlink" x="0px"
	 y="0px" viewBox="0 0 106.5 106.5" style="enable-background:new 0 0 106.5 106.5;" xml:space="preserve">
<style type="text/css">
	.st0{fill:#EC1F25;}
</style>
<path class="st0" d="M53.3,0C23.9,0,0,23.9,0,53.3c0,29.4,23.9,53.3,53.3,53.3s53.3-23.9,53.3-53.3C106.5,23.9,82.6,0,53.3,0z
	 M53.3,9.1c9.7,0,18.6,3.1,25.9,8.4L17.5,79.1c-5.3-7.3-8.4-16.2-8.4-25.9C9.1,28.9,28.9,9.1,53.3,9.1L53.3,9.1z M53.3,97.5
	c-11.5,0-21.9-4.4-29.8-11.6l62.4-62.4c7.2,7.9,11.6,18.3,11.6,29.8C97.5,77.6,77.6,97.5,53.3,97.5z"/>
<path d="M45.1,54.3c2-1.1,3.6-2.6,4.6-4.6c1.1-2,1.6-4.2,1.6-6.7c0-2.5-0.5-4.8-1.6-6.7c-1.1-2-2.7-3.5-4.6-4.6
	C43.2,30.6,41,30,38.4,30H21.1v43h8.2V55.9h6.4L44.3,73h9.6l-9.6-18.3C44.6,54.6,44.9,54.5,45.1,54.3z M42.3,40.2
	c0.4,0.8,0.6,1.7,0.6,2.8s-0.2,2-0.6,2.8c-0.4,0.7-0.8,1.3-1.5,1.7c-0.6,0.4-1.4,0.6-2.2,0.6h-9.4V37.9h9.4c0.9,0,1.6,0.2,2.2,0.6
	C41.5,38.9,42,39.5,42.3,40.2L42.3,40.2z M79.6,59.9c-0.3,1.2-0.8,2.2-1.5,3c-0.7,0.8-1.5,1.5-2.5,1.9c-0.9,0.4-1.9,0.6-2.9,0.6
	c-1.4,0-2.6-0.3-3.7-1c-1-0.7-1.8-1.6-2.4-2.8c-0.6-1.3-0.9-2.8-0.9-4.5V46c0-1.7,0.3-3.2,0.9-4.5c0.6-1.2,1.4-2.2,2.4-2.8
	c1-0.7,2.2-1,3.7-1c1,0,2,0.2,2.9,0.7c1,0.5,1.8,1.1,2.5,2c0.7,0.9,1.2,1.8,1.5,2.9l0.3,0.9h8.3l-0.3-1.5c-0.5-2.6-1.5-4.9-2.9-6.8
	c-1.4-1.9-3.2-3.5-5.3-4.6c-2.1-1.1-4.5-1.6-7-1.6c-3,0-5.7,0.7-8,2.1c-2.3,1.4-4.1,3.3-5.4,5.8C58,40,57.3,42.8,57.3,46v11.1
	c0,3.2,0.6,6.1,1.9,8.5c1.3,2.5,3.1,4.4,5.4,5.8c0,0,2,1.1,3.4,1.5c1.1,0.3,2.1,0.5,4.6,0.5c2.5,0,4.8-0.5,6.9-1.6
	c2.1-1.1,3.9-2.6,5.3-4.6c1.4-2,2.4-4.2,2.9-6.8l0.3-1.5h-8.3L79.6,59.9L79.6,59.9z"/>
</svg>
