<?xml version="1.0" encoding="utf-8"?>
<!-- Generator: Adobe Illustrator 28.2.0, SVG Export Plug-In . SVG Version: 6.00 Build 0)  -->
<svg version="1.1" id="Capa_1" xmlns="http://www.w3.org/2000/svg" xmlns:xlink="http://www.w3.org/1999/xlink" x="0px" y="0px"
	 viewBox="0 0 121.4 66.3" style="enable-background:new 0 0 121.4 66.3;" xml:space="preserve">
<style type="text/css">
	.st0{fill:#F70D1A;}
</style>
<g>
	<path class="st0" d="M30.3,23h-0.1l-8.4,5.7v-6.1l8.5-5.9h6.9v33h-6.8V23H30.3z"/>
	<path class="st0" d="M62.3,22.2v-0.1H45.5v-5.5h23.6v5.6L55.3,49.6H48L62.3,22.2z"/>
	<path class="st0" d="M90.8,48.7h-6v-9.3h-8.9v-5.8h8.9v-9.4h6v9.4h8.9v5.8h-8.9V48.7z"/>
	<path class="st0" d="M108,4.2c5,0,9.2,4.1,9.2,9.2v39.5c0,5-4.1,9.2-9.2,9.2H13.4c-5,0-9.2-4.1-9.2-9.2V13.4c0-5,4.1-9.2,9.2-9.2
		H108 M108,0H13.4C6,0,0,6,0,13.4v39.5c0,7.4,6,13.4,13.4,13.4H108c7.4,0,13.4-6,13.4-13.4V13.4C121.4,6,115.4,0,108,0L108,0z"/>
</g>
</svg>
