<?xml version="1.0" encoding="utf-8"?>
<!-- Generator: Adobe Illustrator 28.2.0, SVG Export Plug-In . SVG Version: 6.00 Build 0)  -->
<svg version="1.1" id="Capa_1" xmlns="http://www.w3.org/2000/svg" xmlns:xlink="http://www.w3.org/1999/xlink" x="0px" y="0px"
	 viewBox="0 0 98.6 67.3" style="enable-background:new 0 0 98.6 67.3;" xml:space="preserve">
<style type="text/css">
	.st0{fill:#FDD017;}
</style>
<g>
	<path class="st0" d="M20.9,41.8h6.8c0.7,2.4,2.8,3.6,5.5,3.6c5,0,7.2-4.8,7.1-11.9h-0.1c-1.2,3.2-4.5,5.4-8.8,5.4
		c-6.1,0-11-4.3-11-10.8c0-6.8,5.4-11.7,12.7-11.7s13.8,4.9,13.8,17c0,10.9-5.2,17.5-13.8,17.5C26.8,50.9,21.8,47.2,20.9,41.8z
		 M39.4,28c0-3.4-2.7-6-6.1-6s-6.1,2.6-6.1,5.9c0,3.5,2.6,5.9,6,5.9C36.7,33.8,39.4,31.3,39.4,28z"/>
	<path class="st0" d="M69.1,49.2h-6v-9.3h-8.9V34h8.9v-9.4h6V34H78v5.8h-8.9V49.2z"/>
	<path class="st0" d="M85.2,4.2c5,0,9.2,4.1,9.2,9.2v40.5c0,5-4.1,9.2-9.2,9.2H13.4c-5,0-9.2-4.1-9.2-9.2V13.4c0-5,4.1-9.2,9.2-9.2
		H85.2 M85.2,0H13.4C6,0,0,6,0,13.4v40.5c0,7.4,6,13.4,13.4,13.4h71.8c7.4,0,13.4-6,13.4-13.4V13.4C98.6,6,92.6,0,85.2,0L85.2,0z"/>
</g>
</svg>
