<?xml version="1.0" encoding="utf-8"?>
<!-- Generator: Adobe Illustrator 28.2.0, SVG Export Plug-In . SVG Version: 6.00 Build 0)  -->
<svg version="1.1" id="레이어_1" xmlns="http://www.w3.org/2000/svg" xmlns:xlink="http://www.w3.org/1999/xlink" x="0px"
	 y="0px" viewBox="0 0 108.8 110.4" style="enable-background:new 0 0 108.8 110.4;" xml:space="preserve">
<style type="text/css">
	.st0{fill:#FFFFFF;}
</style>
<path class="st0" d="M49.3,110.4H0V0h49.3c22.6,0,34.1,6.6,43.1,13.7c14.9,11.7,16.5,33.6,16.5,42.5c0,17.2-5.1,30.8-15.1,40.4
	C81.8,108,63,110.4,49.3,110.4z M21.1,89.3h6.3V21.1h-6.3V89.3z M62.4,22.3c11.2,4.4,18.2,16.3,18.2,32.5c0,17.1-7.1,29.4-18.6,33.6
	c7.7-1.2,13.7-3.6,17.2-7c5.7-5.5,8.6-13.9,8.6-25.2c0-9.6-2.6-21.3-8.4-25.9C75.8,27.5,71.3,24,62.4,22.3z M48.6,68.8h3.8
	c6.5,0,7-10.7,7-14c0-4-0.7-13.2-7-13.2h-3.8V68.8z"/>
<path d="M49.3,105.1h-44V5.3h44c22,0,32.1,6.5,39.8,12.6c13.4,10.5,14.5,32,14.5,38.3c0,15.7-4.5,28-13.5,36.6
	C79.4,103,62,105.1,49.3,105.1z M15.9,94.5h33.4c8.8,0,25-1.2,33.5-9.4c6.8-6.5,10.2-16.2,10.2-29c0-3.6-0.5-22.2-10.4-30
	c-6.6-5.2-14.6-10.3-33.3-10.3H15.9V94.5z M52.4,84.6H32.7V25.7h19.7c13.9,0,22.8,11.4,22.8,29C75.2,69.2,69.2,84.6,52.4,84.6z
	 M43.3,74.1h9.1c11.1,0,12.2-13.5,12.2-19.3c0-5.5-1.2-18.4-12.2-18.4h-9.1V74.1z"/>
<path d="M10.6,99.8h38.7c7.5,0,26.6-0.8,37.1-10.9c10.1-9.7,11.8-23.4,11.8-32.8c0-5.8-1-25.1-12.4-34.2
	c-6.9-5.4-15.9-11.4-36.5-11.4H10.6V99.8z M38,31h14.4c12.2,0,17.5,11,17.5,23.7c0,10-3.4,24.6-17.5,24.6H38C38,79.4,38,31,38,31z"
	/>
<path class="st0" d="M8.8,99.8h38.7c7.5,0,26.6-0.8,37.1-10.9c10.1-9.7,11.9-23.4,11.9-32.8c0-5.8-1-25.1-12.5-34.2
	c-6.9-5.4-15.8-11.4-36.5-11.4H8.8V99.8z M36.3,31h14.4c12.2,0,17.5,11,17.5,23.7c0,10-3.4,24.6-17.5,24.6H36.3L36.3,31L36.3,31z"/>
</svg>
