<?xml version="1.0" encoding="utf-8"?>
<!-- Generator: Adobe Illustrator 28.2.0, SVG Export Plug-In . SVG Version: 6.00 Build 0)  -->
<svg version="1.1" id="svg3105" xmlns:svg="http://www.w3.org/2000/svg"
	 xmlns="http://www.w3.org/2000/svg" xmlns:xlink="http://www.w3.org/1999/xlink" x="0px" y="0px" viewBox="0 0 204.4 198.7"
	 style="enable-background:new 0 0 204.4 198.7;" xml:space="preserve">
<style type="text/css">
	.st0{fill-rule:evenodd;clip-rule:evenodd;fill:#FFFFFF;}
</style>
<g id="layer1" transform="translate(0,-652.36218)">
	<g id="g3115" transform="matrix(0.2951006,0,0,0.2951006,-3138.8375,-2336.2691)">
		<g id="text70">
			<path id="path2892" class="st0" d="M10732.8,10127.5h114.2v673.4h-130.2v-500.7c-11.3,11.6-23.6,21.7-36.8,30.2
				c-13.2,8.5-27.7,15.6-43.4,21.2v-120.8c23.3-13.2,43-28.5,59.2-45.8C10711.9,10167.8,10724.3,10148.6,10732.8,10127.5z"/>
		</g>
		<g id="text72">
			<path id="path2889" class="st0" d="M11123.4,10225.6l-86.4,327h87.3l7.6-327H11123.4z M11063.4,10127.5h184.5v425.2h81.2v100.5
				h-81.2v147.7h-127.9v-147.7h-182.6v-115.1L11063.4,10127.5z"/>
		</g>
	</g>
</g>
</svg>
