<?xml version="1.0" encoding="utf-8"?>
<!-- Generator: Adobe Illustrator 28.2.0, SVG Export Plug-In . SVG Version: 6.00 Build 0)  -->
<svg version="1.1" id="svg3166" xmlns:svg="http://www.w3.org/2000/svg"
	 xmlns="http://www.w3.org/2000/svg" xmlns:xlink="http://www.w3.org/1999/xlink" x="0px" y="0px" viewBox="0 0 193.8 205.4"
	 style="enable-background:new 0 0 193.8 205.4;" xml:space="preserve">
<style type="text/css">
	.st0{fill-rule:evenodd;clip-rule:evenodd;fill:#FFFFFF;}
</style>
<g id="layer1" transform="translate(0,-652.36218)">
	<g id="g3159" transform="matrix(0.2951006,0,0,0.2951006,-3612.71,-2336.2691)">
		<g id="text78">
			<path id="path2898" class="st0" d="M12338.6,10138.3h114.2v673.4h-130.2v-500.7c-11.3,11.6-23.6,21.7-36.8,30.2
				c-13.2,8.5-27.7,15.6-43.4,21.2v-120.8c23.3-13.2,43-28.5,59.2-45.8C12317.7,10178.6,12330.1,10159.4,12338.6,10138.3z"/>
		</g>
		<g id="text80">
			<path id="path2895" class="st0" d="M12761.6,10563.5c0-34.6-2.3-57.1-6.8-67.5c-4.6-10.4-12.8-15.6-24.8-15.6s-20.3,5.9-25,17.7
				c-4.7,11.8-7.1,33.6-7.1,65.4v93.4c0,34.6,2.3,57.1,6.8,67.5c4.6,10.4,13,15.6,25.2,15.6c11.6,0,19.8-5.7,24.5-17
				s7.1-33.3,7.1-66.1V10563.5z M12898,10292.7v7.1h-136.4v-7.1c0-34.6-2.3-57.1-6.8-67.5c-4.6-10.4-12.8-15.6-24.8-15.6
				c-12,0-20.3,6-25,17.9c-4.7,12-7.1,33.7-7.1,65.1v136.4c12-15.7,25.4-27.4,40.3-34.9c14.9-7.6,32.2-11.3,51.7-11.3
				c37.8,0,65.4,12,82.8,36.1c17.5,24.1,26.2,62.5,26.2,115.4v72.7c0,82.1-12.3,138.7-37,169.9c-24.7,31.1-68.3,46.7-131,46.7
				c-62.9,0-106.7-15.5-131.4-46.5c-24.7-31-37-87.7-37-170.1v-263.8c0-82.1,12.3-138.6,37-169.4c24.7-30.8,68.5-46.2,131.4-46.2
				c63.2,0,106.9,11.7,131,35.2C12886,10186.1,12898,10229.4,12898,10292.7L12898,10292.7z"/>
		</g>
	</g>
</g>
</svg>
