<?xml version="1.0" encoding="utf-8"?>
<!-- Generator: Adobe Illustrator 28.2.0, SVG Export Plug-In . SVG Version: 6.00 Build 0)  -->
<svg version="1.1" id="svg3220" xmlns:svg="http://www.w3.org/2000/svg"
	 xmlns="http://www.w3.org/2000/svg" xmlns:xlink="http://www.w3.org/1999/xlink" x="0px" y="0px" viewBox="0 0 194.1 205.4"
	 style="enable-background:new 0 0 194.1 205.4;" xml:space="preserve">
<style type="text/css">
	.st0{fill-rule:evenodd;clip-rule:evenodd;fill:#FFFFFF;}
</style>
<g id="layer1" transform="translate(0,-652.36218)">
	<g id="g3176" transform="matrix(0.2951006,0,0,0.2951006,-4086.5531,-2336.2691)">
		<g id="text82">
			<path id="path2904" class="st0" d="M13944.3,10138.3h114.2v673.4h-130.2v-500.7c-11.3,11.6-23.6,21.7-36.8,30.2
				c-13.2,8.5-27.7,15.6-43.4,21.2v-120.8c23.3-13.2,43-28.5,59.2-45.8C13923.4,10178.6,13935.8,10159.4,13944.3,10138.3z"/>
		</g>
		<g id="text84">
			<path id="path2901" class="st0" d="M14299.1,10592.3v64.7c0,34.3,2.7,56.7,8,67.2c5.3,10.5,14.9,15.8,28.8,15.8
				c13.5,0,23-5.9,28.3-17.7s8-33.6,8-65.4v-64.7c0-34-2.6-56.2-7.8-66.5s-14.7-15.6-28.6-15.6s-23.4,5.6-28.8,16.8
				C14301.8,10538.1,14299.1,10559.9,14299.1,10592.3L14299.1,10592.3z M14301.9,10292.7v34c0,34.9,2.4,57.5,7.3,67.7
				c4.9,10.2,13.8,15.3,26.7,15.3c12.3,0,20.8-5.6,25.5-16.8c4.7-11.2,7.1-33.3,7.1-66.3v-34c0-33.7-2.4-55.9-7.3-66.8
				c-4.9-10.9-13.6-16.3-26.2-16.3c-12.3,0-20.8,5.7-25.7,17C14304.4,10237.9,14301.9,10259.9,14301.9,10292.7z M14259.4,10456.9
				c-28.3-8.2-50.6-23.4-66.8-45.5c-16.2-22.2-24.3-48.8-24.3-80v-38.7c0-58.2,13.1-100.3,39.4-126.2c26.3-26,69-38.9,128.1-38.9
				c58.8,0,101.2,12.9,127.2,38.7c26,25.8,38.9,68,38.9,126.5v38.7c0,31.1-7.9,57.9-23.8,80.2c-15.9,22.3-38,37.4-66.3,45.3
				c30.5,8.8,53.8,25,69.8,48.6c16,23.6,24.1,53.5,24.1,89.7v62.8c0,58.2-13.5,100.4-40.6,126.5c-27.1,26.1-70.5,39.2-130.2,39.2
				c-60.1,0-103.3-12.9-129.8-38.7s-39.6-68.1-39.6-126.9v-62.8c0-36.5,7.9-66.5,23.8-89.9
				C14205.3,10481.8,14228.6,10465.7,14259.4,10456.9L14259.4,10456.9z"/>
		</g>
	</g>
</g>
</svg>
