<?xml version="1.0" encoding="utf-8"?>
<!-- Generator: Adobe Illustrator 28.2.0, SVG Export Plug-In . SVG Version: 6.00 Build 0)  -->
<svg version="1.1" id="레이어_1" xmlns="http://www.w3.org/2000/svg" xmlns:xlink="http://www.w3.org/1999/xlink" x="0px"
	 y="0px" viewBox="0 0 42.8 48" style="enable-background:new 0 0 42.8 48;" xml:space="preserve">
<path d="M13.1,29.8L13,14.1l8.6,13.6L13.1,29.8z M33.2,23.8c-0.7,0.3-1.4,0.6-2.1,0.8c-5.4,1.3-9.2-1.6-10.7-6.7
	c-1.1-3.8-0.4-7.1,2.1-9.1L16.3,0L2.7,3.4L0,48l13.1-3.2l0-5.8l13.3-3.3l3.2,5l13.3-3.3L33.2,23.8"/>
<path d="M23.7,17.1c1,3.5,3.1,6.2,6.8,5.3c0.5-0.1,0.9-0.3,1.3-0.5L24.1,11C22.9,12.5,23,14.7,23.7,17.1"/>
<path d="M26.7,9.4c3.7-0.9,5.8,1.7,6.8,5.3c0.9,3,0.7,5.9-1.7,7.2l1.4,2c3.7-1.8,4.8-5.6,3.5-10c-1.5-5.1-5.3-8-10.7-6.7
	c-1.3,0.3-2.5,0.9-3.5,1.6l1.6,2.2C24.7,10.2,25.7,9.6,26.7,9.4"/>
</svg>
