<?xml version="1.0" encoding="UTF-8"?>
<svg id="_레이어_1" data-name="레이어 1" xmlns="http://www.w3.org/2000/svg" viewBox="0 0 512.146 511.996">
  <defs>
    <style>
      .cls-1 {
        fill: #fea002;
        stroke-width: 0px;
      }
    </style>
  </defs>
  <path class="cls-1" d="M255.688,511.991C114.461,512.58-3.281,395.341.07,249.809,3.26,111.244,118.72-3.411,262.719.078c138.441,3.354,253.092,118.844,249.337,263.014-3.595,138.047-117.506,249.727-256.368,248.9ZM38.598,255.651c-.35,119.693,96.032,214.732,211.181,217.866,122.66,3.338,220.681-94.571,223.757-211.268,3.223-122.242-94.194-220.306-210.915-223.63-122.873-3.499-224.08,95.48-224.023,217.032Z"/>
  <path class="cls-1" d="M313.859,321.061c23.627,0,46.272.107,68.914-.099,4.021-.037,5.065,1.137,4.913,5.003-.293,7.482-.195,14.986-.031,22.476.062,2.839-.862,3.658-3.688,3.652-39.466-.083-78.931-.081-118.397-.002-2.764.006-3.787-.678-3.703-3.591.197-6.822.164-13.655.008-20.479-.056-2.437,1.15-4.023,2.496-5.743,19.587-25.034,39.959-49.456,58.853-75.026,7.132-9.652,13.16-20.012,16.34-31.769,2.369-8.759,2.176-17.509-.658-26.069-2.463-7.439-7.136-12.646-15.546-13.541-8.628-.918-15.324,1.974-19.884,9.471-3.812,6.268-5.563,13.166-5.765,20.409-.108,3.864-1.252,5.427-5.486,5.283-9.98-.338-19.983-.264-29.968-.026-3.606.086-4.372-1.166-4.399-4.543-.287-35.096,26.481-62.158,61.662-62.193,15.138-.015,29.512,2.605,41.724,12.345,12.312,9.819,18.059,23.095,19.759,38.406,2.091,18.831-2.462,35.877-13.462,51.331-16.88,23.713-35.439,46.213-51.139,70.777-.691,1.081-1.394,2.155-2.542,3.928Z"/>
  <path class="cls-1" d="M200.249,248.542c0,32.802-.081,65.605.101,98.406.023,4.158-1.008,5.333-5.19,5.193-9.813-.328-19.652-.331-29.465,0-4.299.145-5.551-.863-5.535-5.4.184-52.949.047-105.9.237-158.849.017-4.78-1.026-6.281-5.924-5.907-8.779.67-17.614.561-26.415,1.003-3.609.181-5.429-.401-5.19-4.74.402-7.304.257-14.651.041-21.971-.092-3.105.766-4.25,3.998-4.563,23.506-2.278,46.999-4.705,70.479-7.242,3.555-.384,2.84,1.813,2.846,3.666.035,11.822.018,23.644.018,35.466,0,21.646,0,43.292,0,64.939Z"/>
</svg>