<?xml version="1.0" encoding="utf-8"?>
<!-- Generator: Adobe Illustrator 28.2.0, SVG Export Plug-In . SVG Version: 6.00 Build 0)  -->
<svg version="1.1" id="레이어_1" xmlns="http://www.w3.org/2000/svg" xmlns:xlink="http://www.w3.org/1999/xlink" x="0px"
	 y="0px" viewBox="0 0 110.4 120.8" style="enable-background:new 0 0 110.4 120.8;" xml:space="preserve">
<style type="text/css">
	.st0{fill:#9CA1AB;}
	.st1{fill:#FFFFFF;}
</style>
<path class="st0" d="M36.4,0C21.8,18.7,2.6,19.9,0,20v17c0,0,1.7,0,13.6,0.1c7.8,0,7.7,7.8,7.7,7.8v76h81c4.4,0,8-3.6,8-8.1V0H36.4z
	"/>
<path class="st1" d="M110.4,30.7V8H50.7v66.7h30.7V68c0-3.7,2.8-6.7,6-6.7s6,3,6,6.7v41.7c0,3.7-2.8,6.7-6,6.7s-6-3-6-6.7V88H50.7
	v6.4c0,13.2,0.2,21.4,3.1,26.5h48.6c4.4,0,8-3.6,8-8.1V44.2c-2.1-2.5-5.3-3.3-10.3-3.3c-9.9,0-14.7,3.8-18.7,8.3V30.7H110.4z"/>
</svg>
