<?xml version="1.0" encoding="utf-8"?>
<!-- Generator: Adobe Illustrator 28.2.0, SVG Export Plug-In . SVG Version: 6.00 Build 0)  -->
<svg version="1.1" id="레이어_1" xmlns="http://www.w3.org/2000/svg" xmlns:xlink="http://www.w3.org/1999/xlink" x="0px"
	 y="0px" viewBox="0 0 110.4 120.8" style="enable-background:new 0 0 110.4 120.8;" xml:space="preserve">
<style type="text/css">
	.st0{fill:#9CA1AB;}
	.st1{fill:#FFFFFF;}
</style>
<path class="st0" d="M36.4,0C21.8,18.7,2.7,19.9,0,20v17c0,0,1.7,0,13.6,0.1c7.8,0,7.7,7.8,7.7,7.8v76h81c0,0,0,0,0,0
	c4.4,0,8-3.6,8-8.1V0H36.4z"/>
<path class="st1" d="M108.7,117.6c1-1.4,1.6-3,1.6-4.9V10.1C104.7,8,97.4,7,88.4,7c-12.9,0-22.6,2.7-29.1,8.2
	c-6.5,5.5-9.7,13.7-9.7,24.6c0,6.3,1.1,11.6,3.2,15.7c2.1,4.1,6.8,9.4,12.2,11.9c0,0,2.6,1.5,6.8,2.4c2.2,0.7,8.9,2.5,23.4,1.7
	c0,12.1,0.1,40.1,0,41c-0.1,1.1-0.7,2.2-1.7,3.2c-1.1,1-2.4,1.5-4.1,1.5c-3.7,0-5.9-1.7-6.5-5.2c-0.6-3.5-0.9-9.3-0.9-17.5v-7.9
	H49.6v6.9c0,11.8,1.4,20.5,4.2,26.2c0.2,0.5,0.5,0.9,0.7,1.2h47.9c0,0,0,0,0,0c1.7,0,3.3-0.5,4.6-1.4L108.7,117.6z M94.5,45.8
	c0,4.5-0.4,7.5-1.2,8.9c-0.8,1.4-2.3,2.2-4.6,2.2c-2.1,0-3.7-0.7-4.6-2.2c-0.9-1.5-1.3-4.1-1.3-8v-9.7c0-4.1,0.4-6.9,1.2-8.4
	c0.8-1.5,2.3-2.2,4.6-2.2c2.3,0,3.9,0.7,4.7,2.1c0.8,1.4,1.2,4.2,1.2,8.5V45.8z"/>
</svg>
