<?xml version="1.0" encoding="utf-8"?>
<!-- Generator: Adobe Illustrator 28.2.0, SVG Export Plug-In . SVG Version: 6.00 Build 0)  -->
<svg version="1.1" id="레이어_1" xmlns="http://www.w3.org/2000/svg" xmlns:xlink="http://www.w3.org/1999/xlink" x="0px"
	 y="0px" viewBox="0 0 213.2 272.4" style="enable-background:new 0 0 213.2 272.4;" xml:space="preserve">
<path d="M143.6,153c10.2-7.2,10-7,18.3-12.1c8.3-5.2,15.5-11.3,21.3-18.4c5.9-7.1,10.4-15.1,13.6-23.9c3.2-8.9,4.8-18.6,4.8-29.1
	c0-54.4-50.1-69.5-99.9-69.5H0v272.4h62.2v-110h18.2c42.4,3.4,61.2,70.9,66.8,110h66C203,223.2,193.9,187,143.6,153z M126.4,109.5
	c-8.8,8.4-20.4,12.6-34.9,12.6H62.2V38.5h30.5c31.4,0,47.1,13.1,47.1,39.3C139.8,90.4,135.4,101,126.4,109.5z"/>
</svg>
