<?xml version="1.0" encoding="utf-8"?>
<!-- Generator: Adobe Illustrator 28.2.0, SVG Export Plug-In . SVG Version: 6.00 Build 0)  -->
<svg version="1.1"
	 id="Layer_1" xmlns:svg="http://www.w3.org/2000/svg" xmlns:sodipodi="http://sodipodi.sourceforge.net/DTD/sodipodi-0.dtd" xmlns:inkscape="http://www.inkscape.org/namespaces/inkscape" sodipodi:docname="GSRR_General.svg"
	 xmlns="http://www.w3.org/2000/svg" xmlns:xlink="http://www.w3.org/1999/xlink" x="0px" y="0px" viewBox="0 0 384.9 297.5"
	 style="enable-background:new 0 0 384.9 297.5;" xml:space="preserve">
<style type="text/css">
	.st0{fill:#FFFFFF;}
</style>
<g id="g40" transform="scale(3.9206462)">
	<g id="g18">
		<g id="g16">
			<g id="g14">
				<polygon id="polygon12" class="st0" points="80,0 80,7 73,7 73,18.1 80,18.1 80,25.1 91.1,25.1 91.1,18.1 98.2,18.1 98.2,7 
					91.1,7 91.1,0 				"/>
			</g>
		</g>
	</g>
	<g id="g26">
		<g id="g24">
			<path id="path22" class="st0" d="M37,1.9c-20.4,0-37,16.6-37,37s16.6,37,37,37s37-16.6,37-37S57.4,1.9,37,1.9z M37,61.6
				c-12.5,0-22.7-10.2-22.7-22.7S24.5,16.2,37,16.2s22.7,10.2,22.7,22.7S49.5,61.6,37,61.6L37,61.6z"/>
		</g>
	</g>
</g>
</svg>
