<?xml version="1.0" encoding="utf-8"?>
<!-- Generator: Adobe Illustrator 28.2.0, SVG Export Plug-In . SVG Version: 6.00 Build 0)  -->
<svg version="1.1"
	 id="Layer_1" xmlns:svg="http://www.w3.org/2000/svg" xmlns:sodipodi="http://sodipodi.sourceforge.net/DTD/sodipodi-0.dtd" xmlns:inkscape="http://www.inkscape.org/namespaces/inkscape" sodipodi:docname="GSRR_182+.svg"
	 xmlns="http://www.w3.org/2000/svg" xmlns:xlink="http://www.w3.org/1999/xlink" x="0px" y="0px" viewBox="0 0 461.2 313.4"
	 style="enable-background:new 0 0 461.2 313.4;" xml:space="preserve">
<style type="text/css">
	.st0{fill:#FFFFFF;}
</style>
<g id="g44" transform="scale(2.9071795)">
	<g id="g30">
		<g id="g16">
			<g id="g14">
				<polygon id="polygon12" class="st0" points="124.6,9.5 124.6,24.5 134.1,24.5 134.1,34 149.1,34 149.1,24.5 158.6,24.5 
					158.6,9.5 149.1,9.5 149.1,0 134.1,0 134.1,9.5 				"/>
			</g>
		</g>
		<g id="g28">
			<g id="g26">
				<g id="g24">
					<path id="path20" class="st0" d="M27,4.8c-0.3,4.7-3,15.8-22.8,15.8H0v16.5h23.5v68.1h22.4V3.4H27.1L27,4.8z"/>
					<path id="path22" class="st0" d="M111.9,50.5c6.5-4.3,9.9-11.1,9.9-19.8c0-13.1-10.3-27.2-32.8-27.2c-19,0-32.2,11.7-32.2,28.5
						c0,8.5,3.5,15,10.4,19.3c-13.4,7.6-13.4,20.2-13.4,25.1c0,14.5,9.4,31.5,35.7,31.5c28.2,0,35.7-21.9,35.7-33.5
						C125.1,62.9,121.2,55.8,111.9,50.5L111.9,50.5z M89.6,43.5c-7.3,0-11.2-5.6-11.2-10.8c0-6.9,4.3-10.8,11.9-10.8
						c5.9,0,10,4.4,10,10.8C100.2,39.4,96.1,43.5,89.6,43.5z M89.1,61.2c12.4,0,13,11.7,13,14c0,4.9-2.6,14.1-12.6,14.1
						c-8,0-12.9-5.5-12.9-14.3C76.7,64.8,83.1,61.2,89.1,61.2z"/>
				</g>
			</g>
		</g>
	</g>
</g>
</svg>
