<?xml version="1.0" encoding="utf-8"?>
<!-- Generator: Adobe Illustrator 28.2.0, SVG Export Plug-In . SVG Version: 6.00 Build 0)  -->
<svg version="1.1" id="Ebene_1" xmlns="http://www.w3.org/2000/svg" xmlns:xlink="http://www.w3.org/1999/xlink" x="0px" y="0px"
	 viewBox="0 0 342.3 315.9" style="enable-background:new 0 0 342.3 315.9;" xml:space="preserve">
<style type="text/css">
	.st0{fill:#FFFFFF;}
</style>
<path class="st0" d="M109.8,310.8H43.4V80H0V40.9C29.8,41.3,49.4,28.9,60,0h49.8V310.8z"/>
<path class="st0" d="M171.1,222.2c0-30.7,6.8-52.4,31.9-71.5c-20.9-20.9-28.5-39.2-28.5-67.3c0-49,31.1-83.4,82.2-83.4
	c51.1,0,82.2,34.5,82.2,83.4c0,28.1-7.7,46.4-28.5,67.3c25.1,19.2,31.9,40.9,31.9,71.5c0,55.8-17.4,93.7-85.6,93.7
	C188.6,315.9,171.1,278,171.1,222.2 M256.7,178.8c-15.3,0-19.2,10.6-19.2,39.6c0,29.4,3.8,39.6,19.2,39.6
	c15.3,0,19.2-10.2,19.2-39.6C275.9,189.5,272,178.8,256.7,178.8 M256.7,56.2c-14,0-17.5,6.8-17.5,36.2c0,29.4,3.4,36.2,17.5,36.2
	c14,0,17.5-6.8,17.5-36.2C274.2,63,270.7,56.2,256.7,56.2"/>
</svg>
