<?xml version="1.0" encoding="utf-8"?>
<!-- Generator: Adobe Illustrator 28.2.0, SVG Export Plug-In . SVG Version: 6.00 Build 0)  -->
<svg version="1.1" id="Capa_1" xmlns="http://www.w3.org/2000/svg" xmlns:xlink="http://www.w3.org/1999/xlink" x="0px" y="0px"
	 viewBox="0 0 63.4 71.6" style="enable-background:new 0 0 63.4 71.6;" xml:space="preserve">
<style type="text/css">
	.st0{fill:#FFFFFF;}
</style>
<g>
	<g>
		<path class="st0" d="M32.5,8.6l1-0.6l-6.7-8l-0.6,0.2C19.7,2,13.6,7.3,8.2,15.9C2.8,24.4,0,33,0,41.3c0,20.1,7.3,30.3,21.7,30.3
			c5.6,0,10.2-2.2,13.9-6.5c3.6-4.3,5.4-9.9,5.4-16.7c0-6.9-1.8-12.5-5.3-16.6c-3.6-4.1-8.3-6.2-14.2-6.2c-1.6,0-3.5,0.4-5.5,1.3
			c1.3-3,3.2-6,5.8-9C25,14.1,28.6,11,32.5,8.6z M21,37.7c2.1,0,3.9,0.9,5.2,2.9c1.4,2,2.1,4.8,2.1,8.3c0,3.4-0.7,6.1-2,7.9
			s-3,2.7-5.2,2.7c-5.5,0-8.2-3.7-8.2-11.3C12.9,41,15.5,37.7,21,37.7z"/>
		<polygon class="st0" points="63.4,32.3 54.9,32.3 54.9,23.9 50.4,23.9 50.4,32.3 41.9,32.3 41.9,36.7 50.4,36.7 50.4,45.1 
			54.9,45.1 54.9,36.7 63.4,36.7 		"/>
	</g>
</g>
</svg>
