<?xml version="1.0" encoding="utf-8"?>
<!-- Generator: Adobe Illustrator 28.2.0, SVG Export Plug-In . SVG Version: 6.00 Build 0)  -->
<svg version="1.1" id="Capa_1" xmlns="http://www.w3.org/2000/svg" xmlns:xlink="http://www.w3.org/1999/xlink" x="0px" y="0px"
	 viewBox="0 0 90.4 72" style="enable-background:new 0 0 90.4 72;" xml:space="preserve">
<style type="text/css">
	.st0{fill:#FFFFFF;}
</style>
<g>
	<g>
		<path class="st0" d="M20.5,0.4C16,6.6,9.7,11.8,1.8,16L0,16.8v12.8l13.7-7.5v48h12.9V0h-5.9L20.5,0.4z"/>
		<path class="st0" d="M62.8,33.2c1.7-1.4,3.3-3.3,4.8-5.9c1.8-3.2,2.8-6.3,2.8-9.2c0-5.5-1.7-9.9-5-13.2C62.1,1.7,57.4,0,51.5,0
			C46,0,41.5,1.6,38,4.9s-5.3,7.7-5.3,13.2c0,2.9,0.8,5.8,2.3,8.7c1.3,2.4,2.8,4.5,4.7,6.1c-2.5,1.9-4.7,4.3-6.3,7.3
			c-1.9,3.4-2.9,6.9-2.9,10.5c0,6.8,1.8,12.1,5.5,15.8c3.6,3.7,8.8,5.5,15.4,5.5c6.5,0,11.8-1.9,15.6-5.6c3.8-3.7,5.8-9,5.8-15.7
			c0-3.3-1.2-6.8-3.5-10.5C67.2,37,65.1,34.7,62.8,33.2z M51.5,12.2c1.8,0,3.3,0.5,4.4,1.5c1.1,1,1.6,2.4,1.6,4.1
			c0,1.6-0.6,3.4-1.7,5.4c-1,1.8-2.1,3.1-3.3,3.8c-1.6-0.8-3.1-2-4.6-3.8c-1.5-1.9-2.3-3.7-2.3-5.4C45.5,14,47.4,12.2,51.5,12.2z
			 M57.4,57.4c-1.6,1.5-3.6,2.2-6.2,2.2c-2.4,0-4.2-0.8-5.7-2.5s-2.2-3.9-2.2-6.6c0-4.7,2.3-8.6,7-11.7c6.3,4.2,9.5,8.4,9.5,12.6
			C59.8,54,59,55.9,57.4,57.4z"/>
		<polygon class="st0" points="90.4,32.8 81.8,32.8 81.8,24.4 77.4,24.4 77.4,32.8 68.9,32.8 68.9,37.2 77.4,37.2 77.4,45.7 
			81.8,45.7 81.8,37.2 90.4,37.2 		"/>
	</g>
</g>
</svg>
