<?xml version="1.0" encoding="utf-8"?>
<!-- Generator: Adobe Illustrator 28.2.0, SVG Export Plug-In . SVG Version: 6.00 Build 0)  -->
<svg version="1.1" id="Capa_1" xmlns="http://www.w3.org/2000/svg" xmlns:xlink="http://www.w3.org/1999/xlink" x="0px" y="0px"
	 viewBox="0 0 70.4 69.7" style="enable-background:new 0 0 70.4 69.7;" xml:space="preserve">
<g>
	<g>
		<path d="M23.6,69.7c7.5,0,13.4-3.3,17.5-9.8c4-6.3,6.1-14.9,6.1-25.5c0-22.8-7.7-34.4-23-34.4C16.8,0,10.9,3.3,6.5,9.7
			C2.2,16,0,23.8,0,32.9c0,12.5,1.9,21.7,5.7,27.6C9.6,66.6,15.6,69.7,23.6,69.7z M24,11.4c3.4,0,5.7,1.5,7.2,4.5
			c1.6,3.2,2.4,9.3,2.4,18c0,9.3-0.8,15.9-2.5,19.5c-1.6,3.4-4.1,5-7.8,5c-3.3,0-5.7-1.8-7.2-5.6c-1.6-4-2.4-10.4-2.4-19
			C13.7,18.9,17.2,11.4,24,11.4z"/>
		<polygon points="70.4,31.8 61.9,31.8 61.9,23.4 57.4,23.4 57.4,31.8 48.9,31.8 48.9,36.2 57.4,36.2 57.4,44.6 61.9,44.6 
			61.9,36.2 70.4,36.2 		"/>
	</g>
</g>
</svg>
