<?xml version="1.0" encoding="utf-8"?>
<!-- Generator: Adobe Illustrator 28.2.0, SVG Export Plug-In . SVG Version: 6.00 Build 0)  -->
<svg version="1.1" id="Capa_1" xmlns="http://www.w3.org/2000/svg" xmlns:xlink="http://www.w3.org/1999/xlink" x="0px" y="0px"
	 viewBox="0 0 89.6 71" style="enable-background:new 0 0 89.6 71;" xml:space="preserve">
<style type="text/css">
	.st0{fill:#FFFFFF;}
</style>
<g>
	<g>
		<path class="st0" d="M20.5,1.3C16,7.5,9.7,12.7,1.8,16.9L0,17.7v12.8L13.7,23v48h12.9V1h-5.9L20.5,1.3z"/>
		<path class="st0" d="M69.6,18.9c0-5.9-1.9-10.6-5.7-13.9C60.2,1.7,55,0,48.5,0c-4,0-7.6,1.1-10.9,3.4c-3.3,2.2-5.7,5.1-7.2,8.5
			l-0.3,0.6l8.9,7.7l0.6-1.1c2.4-4.7,5.5-6.9,9.4-6.9c5,0,7.3,2.1,7.3,6.7c0,4.1-1.9,9.3-5.7,15.4L31,66.1v4.8h39.9V58.3h-20
			L63.2,39C67.8,31.1,69.6,24.2,69.6,18.9z"/>
		<polygon class="st0" points="81,32.7 81,24.4 76.6,24.4 76.6,32.7 68.1,32.7 68.1,37.2 76.6,37.2 76.6,45.6 81,45.6 81,37.2 
			89.6,37.2 89.6,32.7 		"/>
	</g>
</g>
</svg>
