<?xml version="1.0" encoding="utf-8"?>
<!-- Generator: Adobe Illustrator 28.2.0, SVG Export Plug-In . SVG Version: 6.00 Build 0)  -->
<svg version="1.1" id="레이어_1" xmlns="http://www.w3.org/2000/svg" xmlns:xlink="http://www.w3.org/1999/xlink" x="0px"
	 y="0px" viewBox="0 0 104.9 104.9" style="enable-background:new 0 0 104.9 104.9;" xml:space="preserve">
<style type="text/css">
	.st0{fill:#13A538;}
</style>
<g transform="translate(1182.41 184.584)">
	<g>
		<path class="st0" d="M-1125.2-182l45,45c2.7,2.7,2.7,7,0,9.6l-45,45c-2.7,2.7-7,2.7-9.6,0l-45-45c-2.7-2.7-2.7-7,0-9.6l45-45
			C-1132.1-184.6-1127.8-184.6-1125.2-182z"/>
		<path d="M-1130-79.7c-2,0-3.9-0.8-5.3-2.2l-45-45c-1.4-1.4-2.2-3.3-2.2-5.3c0-2,0.8-3.9,2.2-5.3l45-45c2.9-2.9,7.6-2.9,10.5,0
			l45,45c1.4,1.4,2.2,3.3,2.2,5.3c0,2-0.8,3.9-2.2,5.3l-45,45C-1126.1-80.5-1128-79.7-1130-79.7z M-1130-183.3
			c-1.6,0-3.2,0.6-4.4,1.8l-45,45c-1.2,1.2-1.8,2.7-1.8,4.4c0,1.7,0.6,3.2,1.8,4.4l45,45c1.2,1.2,2.7,1.8,4.4,1.8
			c1.7,0,3.2-0.6,4.4-1.8l45-45c1.2-1.2,1.8-2.7,1.8-4.4c0-1.7-0.6-3.2-1.8-4.4l-45-45C-1126.8-182.7-1128.4-183.3-1130-183.3z"/>
	</g>
	<path d="M-1143.9-170h2v5.3c0,0.8,0,1.4,0.1,1.6c0.1,0.4,0.3,0.7,0.6,1c0.3,0.2,0.8,0.4,1.3,0.4c0.6,0,1-0.1,1.3-0.3
		c0.3-0.2,0.5-0.5,0.5-0.8c0.1-0.3,0.1-0.9,0.1-1.7v-5.4h2v5.1c0,1.2-0.1,2-0.2,2.5c-0.1,0.5-0.3,0.9-0.6,1.2
		c-0.3,0.3-0.7,0.6-1.1,0.8c-0.5,0.2-1.1,0.3-1.9,0.3c-0.9,0-1.6-0.1-2.1-0.3c-0.5-0.2-0.9-0.5-1.1-0.8c-0.3-0.3-0.5-0.7-0.6-1.1
		c-0.1-0.6-0.2-1.4-0.2-2.5L-1143.9-170z M-1134.5-163.4l1.9-0.2c0.1,0.6,0.3,1.1,0.7,1.4c0.4,0.3,0.8,0.5,1.4,0.5
		c0.6,0,1.1-0.1,1.4-0.4c0.3-0.3,0.5-0.6,0.5-0.9c0-0.2-0.1-0.4-0.2-0.6c-0.1-0.2-0.4-0.3-0.7-0.4c-0.2-0.1-0.8-0.2-1.6-0.4
		c-1.1-0.3-1.8-0.6-2.2-1c-0.6-0.5-0.9-1.2-0.9-2c0-0.5,0.1-1,0.4-1.4c0.3-0.4,0.7-0.8,1.2-1c0.5-0.2,1.2-0.3,1.9-0.3
		c1.2,0,2.1,0.3,2.8,0.8c0.6,0.5,0.9,1.3,1,2.1l-2,0.1c-0.1-0.5-0.3-0.9-0.5-1.1c-0.3-0.2-0.7-0.3-1.2-0.3c-0.6,0-1,0.1-1.3,0.4
		c-0.2,0.1-0.3,0.4-0.3,0.6c0,0.2,0.1,0.4,0.3,0.6c0.2,0.2,0.9,0.4,1.8,0.7s1.7,0.5,2.1,0.7c0.5,0.2,0.8,0.6,1.1,1
		c0.3,0.4,0.4,0.9,0.4,1.6c0,0.6-0.2,1.1-0.5,1.6c-0.3,0.5-0.8,0.9-1.3,1.1c-0.6,0.2-1.3,0.4-2.1,0.4c-1.2,0-2.2-0.3-2.8-0.9
		C-1134-161.5-1134.4-162.3-1134.5-163.4L-1134.5-163.4z M-1124.9-160.2v-9.8h2v4.3l4-4.3h2.6l-3.7,3.8l3.9,6h-2.5l-2.7-4.6
		l-1.6,1.6v2.9H-1124.9z"/>
	<path d="M-1133-155.2l-0.9-0.2c0.1-0.4,0.3-0.6,0.5-0.8s0.6-0.3,1.1-0.3c0.5,0,0.8,0.1,1,0.2s0.4,0.2,0.5,0.4
		c0.1,0.2,0.1,0.5,0.1,0.9l0,1.2c0,0.3,0,0.6,0,0.8c0,0.2,0.1,0.3,0.2,0.5h-1c0-0.1-0.1-0.2-0.1-0.3l0-0.1c-0.2,0.2-0.4,0.3-0.6,0.4
		c-0.2,0.1-0.4,0.1-0.6,0.1c-0.4,0-0.7-0.1-0.9-0.3c-0.2-0.2-0.4-0.5-0.3-0.8c0-0.2,0.1-0.4,0.2-0.6c0.1-0.2,0.2-0.3,0.4-0.4
		c0.2-0.1,0.5-0.2,0.8-0.2c0.5-0.1,0.8-0.2,1-0.2v-0.1c0-0.2,0-0.3-0.1-0.4c-0.1-0.1-0.3-0.1-0.5-0.1c-0.2,0-0.3,0-0.4,0.1
		C-1132.9-155.5-1133-155.4-1133-155.2L-1133-155.2z M-1131.6-154.4c-0.1,0-0.3,0.1-0.6,0.2c-0.3,0.1-0.5,0.1-0.6,0.2
		c-0.1,0.1-0.2,0.2-0.2,0.4c0,0.1,0.1,0.3,0.2,0.4c0.1,0.1,0.3,0.2,0.4,0.2c0.2,0,0.4-0.1,0.5-0.2c0.1-0.1,0.2-0.2,0.2-0.3
		c0-0.1,0-0.3,0-0.5L-1131.6-154.4z M-1129.7-152.5v-5.3h1v1.9c0.3-0.4,0.7-0.5,1.1-0.5c0.5,0,0.9,0.2,1.2,0.5s0.5,0.8,0.5,1.5
		c0,0.7-0.2,1.2-0.5,1.5c-0.3,0.4-0.7,0.5-1.1,0.5c-0.2,0-0.4-0.1-0.7-0.2c-0.2-0.1-0.4-0.3-0.6-0.5v0.6H-1129.7z M-1128.7-154.6
		c0,0.4,0.1,0.7,0.2,0.9c0.2,0.3,0.4,0.4,0.7,0.4c0.2,0,0.4-0.1,0.6-0.3c0.2-0.2,0.2-0.5,0.2-0.9c0-0.4-0.1-0.8-0.2-1
		c-0.1-0.2-0.4-0.3-0.6-0.3c-0.2,0-0.5,0.1-0.6,0.3C-1128.6-155.2-1128.7-154.9-1128.7-154.6L-1128.7-154.6z"/>
	<path d="M-1138.7-113.1h-6.8v-25.5c-2.5,2.3-5.4,4-8.7,5.1v-6.1c1.8-0.6,3.7-1.7,5.8-3.3s3.5-3.5,4.3-5.6h5.5L-1138.7-113.1z
		 M-1105.7-119.4v6.3h-23.7c0.3-2.4,1-4.6,2.3-6.8c1.3-2.1,3.8-4.9,7.6-8.5c3-2.8,4.9-4.8,5.6-5.8c0.9-1.4,1.4-2.8,1.4-4.1
		c0-1.5-0.4-2.7-1.2-3.5s-1.9-1.2-3.4-1.2c-1.4,0-2.5,0.4-3.4,1.3c-0.8,0.9-1.3,2.3-1.4,4.2l-6.7-0.7c0.4-3.7,1.7-6.4,3.8-8
		c2.1-1.6,4.8-2.4,7.9-2.4c3.5,0,6.2,0.9,8.2,2.8c2,1.9,3,4.2,3,7c0,1.6-0.3,3.1-0.9,4.5s-1.5,2.9-2.7,4.5c-0.8,1-2.3,2.5-4.4,4.5
		s-3.5,3.3-4.1,3.9c-0.6,0.6-1,1.3-1.4,1.9L-1105.7-119.4z"/>
	<path d="M-1150.8-105h0.6v-0.3c0-0.3,0-0.6,0.1-0.7c0.1-0.2,0.2-0.3,0.4-0.4c0.2-0.1,0.4-0.2,0.7-0.2c0.3,0,0.6,0,0.9,0.1l-0.1,0.7
		c-0.2,0-0.3-0.1-0.5-0.1c-0.1,0-0.3,0-0.3,0.1c-0.1,0.1-0.1,0.2-0.1,0.4v0.3h0.8v0.8h-0.8v3.1h-1v-3.1h-0.6L-1150.8-105z
		 M-1146.9-101.2h-1v-3.9h0.9v0.5c0.2-0.3,0.3-0.4,0.4-0.5c0.1-0.1,0.3-0.1,0.4-0.1c0.2,0,0.5,0.1,0.7,0.2l-0.3,0.9
		c-0.2-0.1-0.3-0.2-0.5-0.2c-0.1,0-0.3,0-0.4,0.1c-0.1,0.1-0.2,0.2-0.2,0.4s-0.1,0.6-0.1,1.3L-1146.9-101.2z M-1142.7-102.4l1,0.2
		c-0.1,0.4-0.3,0.7-0.6,0.9s-0.6,0.3-1.1,0.3c-0.7,0-1.2-0.2-1.5-0.7c-0.3-0.4-0.4-0.8-0.4-1.3c0-0.6,0.2-1.1,0.5-1.5
		c0.3-0.4,0.8-0.6,1.3-0.5c0.6,0,1,0.2,1.4,0.6s0.5,1,0.5,1.7h-2.6c0,0.3,0.1,0.5,0.2,0.7c0.2,0.2,0.4,0.3,0.6,0.3
		c0.2,0,0.3,0,0.4-0.1C-1142.9-102.1-1142.8-102.2-1142.7-102.4L-1142.7-102.4z M-1142.7-103.4c0-0.3-0.1-0.5-0.2-0.7
		c-0.1-0.1-0.3-0.2-0.5-0.2c-0.2,0-0.4,0.1-0.6,0.2c-0.1,0.2-0.2,0.4-0.2,0.7H-1142.7z M-1140.8-105.6v-0.9h1v0.9H-1140.8z
		 M-1140.8-101.2v-3.9h1v3.9L-1140.8-101.2z M-1138.8-100.9l1.2,0.1c0,0.1,0.1,0.2,0.1,0.3c0.1,0.1,0.2,0.1,0.5,0.1
		c0.3,0,0.5,0,0.6-0.1c0.1-0.1,0.2-0.2,0.2-0.3c0-0.1,0-0.2,0-0.5v-0.6c-0.3,0.4-0.7,0.6-1.2,0.6c-0.5,0-0.9-0.2-1.2-0.7
		c-0.2-0.3-0.4-0.8-0.4-1.3c0-0.6,0.2-1.1,0.5-1.5c0.3-0.3,0.7-0.5,1.2-0.5c0.5,0,0.9,0.2,1.2,0.6v-0.5h1v3.5c0,0.5,0,0.8-0.1,1
		c-0.1,0.2-0.2,0.4-0.3,0.5c-0.2,0.1-0.3,0.2-0.5,0.3c-0.3,0.1-0.6,0.1-0.9,0.1c-0.7,0-1.1-0.1-1.4-0.3c-0.3-0.2-0.4-0.5-0.4-0.9
		L-1138.8-100.9L-1138.8-100.9z M-1137.9-103.2c0,0.4,0.1,0.7,0.2,0.9c0.2,0.2,0.4,0.3,0.6,0.3c0.2,0,0.5-0.1,0.6-0.3
		c0.2-0.2,0.3-0.5,0.3-0.9c0-0.4-0.1-0.7-0.2-0.9c-0.2-0.2-0.4-0.3-0.6-0.3c-0.2,0-0.5,0.1-0.6,0.3
		C-1137.9-103.9-1137.9-103.6-1137.9-103.2L-1137.9-103.2z M-1132-102.4l1,0.2c-0.1,0.4-0.3,0.7-0.6,0.9c-0.3,0.2-0.6,0.3-1.1,0.3
		c-0.7,0-1.2-0.2-1.5-0.7c-0.3-0.4-0.4-0.8-0.4-1.3c0-0.6,0.2-1.1,0.5-1.5c0.3-0.4,0.8-0.6,1.3-0.5c0.6,0,1,0.2,1.4,0.6
		c0.3,0.4,0.5,1,0.5,1.7h-2.6c0,0.3,0.1,0.5,0.2,0.7c0.2,0.2,0.4,0.3,0.6,0.3c0.2,0,0.3,0,0.4-0.1S-1132-102.2-1132-102.4
		L-1132-102.4z M-1131.9-103.4c0-0.3-0.1-0.5-0.2-0.7c-0.1-0.1-0.3-0.2-0.5-0.2c-0.2,0-0.4,0.1-0.6,0.2c-0.1,0.2-0.2,0.4-0.2,0.7
		L-1131.9-103.4z M-1130.2-100.9l1.2,0.1c0,0.1,0.1,0.2,0.1,0.3c0.1,0.1,0.2,0.1,0.5,0.1c0.3,0,0.5,0,0.6-0.1
		c0.1-0.1,0.2-0.2,0.2-0.3c0-0.1,0-0.2,0-0.5v-0.6c-0.3,0.4-0.7,0.6-1.2,0.6c-0.5,0-0.9-0.2-1.2-0.7c-0.2-0.3-0.4-0.8-0.4-1.3
		c0-0.6,0.2-1.1,0.5-1.5c0.3-0.3,0.7-0.5,1.2-0.5c0.5,0,0.9,0.2,1.2,0.6v-0.5h1v3.5c0,0.5,0,0.8-0.1,1c-0.1,0.2-0.2,0.4-0.3,0.5
		c-0.2,0.1-0.3,0.2-0.5,0.3c-0.3,0.1-0.6,0.1-0.9,0.1c-0.7,0-1.1-0.1-1.4-0.3c-0.3-0.2-0.4-0.5-0.4-0.9L-1130.2-100.9L-1130.2-100.9
		z M-1129.2-103.2c0,0.4,0.1,0.7,0.2,0.9c0.2,0.2,0.4,0.3,0.6,0.3c0.2,0,0.5-0.1,0.6-0.3c0.2-0.2,0.3-0.5,0.3-0.9
		c0-0.4-0.1-0.7-0.2-0.9c-0.2-0.2-0.4-0.3-0.6-0.3c-0.2,0-0.5,0.1-0.6,0.3C-1129.2-103.9-1129.2-103.6-1129.2-103.2L-1129.2-103.2z
		 M-1123.3-102.4l1,0.2c-0.1,0.4-0.3,0.7-0.6,0.9c-0.3,0.2-0.6,0.3-1.1,0.3c-0.7,0-1.2-0.2-1.5-0.7c-0.3-0.4-0.4-0.8-0.4-1.3
		c0-0.6,0.2-1.1,0.5-1.5c0.3-0.4,0.8-0.6,1.3-0.5c0.6,0,1,0.2,1.4,0.6c0.3,0.4,0.5,1,0.5,1.7h-2.6c0,0.3,0.1,0.5,0.2,0.7
		c0.2,0.2,0.4,0.3,0.6,0.3c0.2,0,0.3,0,0.4-0.1S-1123.3-102.2-1123.3-102.4L-1123.3-102.4z M-1123.2-103.4c0-0.3-0.1-0.5-0.2-0.7
		c-0.1-0.1-0.3-0.2-0.5-0.2c-0.2,0-0.4,0.1-0.6,0.2c-0.1,0.2-0.2,0.4-0.2,0.7L-1123.2-103.4z M-1121.4-101.2v-5.3h1v1.9
		c0.3-0.4,0.7-0.5,1.1-0.5c0.5,0,0.9,0.2,1.2,0.5c0.3,0.3,0.5,0.8,0.5,1.5c0,0.7-0.2,1.2-0.5,1.5c-0.3,0.4-0.7,0.5-1.1,0.5
		c-0.2,0-0.4-0.1-0.7-0.2c-0.2-0.1-0.4-0.3-0.6-0.5v0.6H-1121.4z M-1120.4-103.2c0,0.4,0.1,0.7,0.2,0.9c0.2,0.3,0.4,0.4,0.7,0.4
		c0.2,0,0.4-0.1,0.6-0.3c0.2-0.2,0.2-0.5,0.2-0.9c0-0.4-0.1-0.8-0.2-1c-0.1-0.2-0.4-0.3-0.6-0.3c-0.2,0-0.5,0.1-0.6,0.3
		C-1120.3-103.9-1120.4-103.6-1120.4-103.2z M-1114.6-102.4l1,0.2c-0.1,0.4-0.3,0.7-0.6,0.9s-0.6,0.3-1.1,0.3
		c-0.7,0-1.2-0.2-1.5-0.7c-0.3-0.4-0.4-0.8-0.4-1.3c0-0.6,0.2-1.1,0.5-1.5c0.3-0.4,0.8-0.6,1.3-0.5c0.6,0,1,0.2,1.4,0.6
		c0.3,0.4,0.5,1,0.5,1.7h-2.6c0,0.3,0.1,0.5,0.2,0.7c0.2,0.2,0.4,0.3,0.6,0.3c0.2,0,0.3,0,0.4-0.1S-1114.7-102.2-1114.6-102.4
		L-1114.6-102.4z M-1114.5-103.4c0-0.3-0.1-0.5-0.2-0.7c-0.1-0.1-0.3-0.2-0.5-0.2c-0.2,0-0.4,0.1-0.6,0.2c-0.1,0.2-0.2,0.4-0.2,0.7
		H-1114.5z M-1109.2-101.2h-1v-2c0-0.4,0-0.7-0.1-0.8c0-0.1-0.1-0.2-0.2-0.3c-0.1-0.1-0.2-0.1-0.4-0.1c-0.2,0-0.3,0-0.5,0.1
		c-0.1,0.1-0.2,0.2-0.3,0.4c-0.1,0.2-0.1,0.5-0.1,0.9v1.7h-1v-3.9h0.9v0.6c0.3-0.4,0.8-0.7,1.3-0.7c0.2,0,0.4,0,0.6,0.1
		c0.2,0.1,0.3,0.2,0.4,0.3c0.1,0.1,0.2,0.3,0.2,0.4c0,0.2,0.1,0.4,0.1,0.7V-101.2z"/>
</g>
</svg>
