<?xml version="1.0" encoding="utf-8"?>
<!-- Generator: Adobe Illustrator 28.2.0, SVG Export Plug-In . SVG Version: 6.00 Build 0)  -->
<svg version="1.1" id="레이어_1" xmlns="http://www.w3.org/2000/svg" xmlns:xlink="http://www.w3.org/1999/xlink" x="0px"
	 y="0px" viewBox="0 0 104.9 104.9" style="enable-background:new 0 0 104.9 104.9;" xml:space="preserve">
<style type="text/css">
	.st0{fill:#FFE500;}
</style>
<g transform="translate(1088.97 173.966)">
	<g>
		<path class="st0" d="M-1031.7-171.3l45,45c2.7,2.7,2.7,7,0,9.6l-45,45c-2.7,2.7-7,2.7-9.6,0l-45-45c-2.7-2.7-2.7-7,0-9.6l45-45
			C-1038.7-174-1034.4-174-1031.7-171.3z"/>
		<path d="M-1036.5-69.1c-2,0-3.9-0.8-5.3-2.2l-45-45c-1.4-1.4-2.2-3.3-2.2-5.3c0-2,0.8-3.9,2.2-5.3l45-45c1.4-1.4,3.3-2.2,5.3-2.2
			s3.9,0.8,5.3,2.2l45,45c2.9,2.9,2.9,7.6,0,10.5l-45,45C-1032.7-69.9-1034.6-69.1-1036.5-69.1z M-1036.5-172.7
			c-1.7,0-3.2,0.6-4.4,1.8l-45,45c-1.2,1.2-1.8,2.7-1.8,4.4c0,1.7,0.6,3.2,1.8,4.4l45,45c1.2,1.2,2.7,1.8,4.4,1.8s3.2-0.6,4.4-1.8
			l45-45c2.4-2.4,2.4-6.3,0-8.8l-45-45C-1033.3-172.1-1034.9-172.7-1036.5-172.7z"/>
	</g>
	<path d="M-1050.4-159.3h2v5.3c0,0.8,0,1.4,0.1,1.6c0.1,0.4,0.3,0.7,0.6,1c0.3,0.2,0.8,0.4,1.3,0.4c0.6,0,1-0.1,1.3-0.3
		c0.3-0.2,0.5-0.5,0.5-0.8c0.1-0.3,0.1-0.9,0.1-1.7v-5.4h2v5.1c0,1.2-0.1,2-0.2,2.5c-0.1,0.5-0.3,0.9-0.6,1.2
		c-0.3,0.3-0.7,0.6-1.1,0.8c-0.5,0.2-1.1,0.3-1.9,0.3c-0.9,0-1.6-0.1-2.1-0.3c-0.5-0.2-0.9-0.5-1.1-0.8c-0.3-0.3-0.5-0.7-0.6-1.1
		c-0.1-0.6-0.2-1.4-0.2-2.5L-1050.4-159.3z M-1041.1-152.8l1.9-0.2c0.1,0.6,0.3,1.1,0.7,1.4c0.4,0.3,0.8,0.5,1.4,0.5
		c0.6,0,1.1-0.1,1.4-0.4c0.3-0.3,0.5-0.6,0.5-0.9c0-0.2-0.1-0.4-0.2-0.6c-0.1-0.2-0.4-0.3-0.7-0.4c-0.2-0.1-0.8-0.2-1.6-0.4
		c-1.1-0.3-1.8-0.6-2.2-1c-0.6-0.5-0.9-1.2-0.9-2c0-0.5,0.1-1,0.4-1.4c0.3-0.4,0.7-0.8,1.2-1c0.5-0.2,1.2-0.3,1.9-0.3
		c1.2,0,2.1,0.3,2.8,0.8c0.6,0.5,0.9,1.3,1,2.1l-2,0.1c-0.1-0.5-0.3-0.9-0.5-1.1s-0.7-0.3-1.2-0.3c-0.6,0-1,0.1-1.3,0.4
		c-0.2,0.1-0.3,0.4-0.3,0.6c0,0.2,0.1,0.4,0.3,0.6c0.2,0.2,0.9,0.4,1.8,0.7c1,0.2,1.7,0.5,2.1,0.7c0.5,0.2,0.8,0.6,1.1,1
		c0.3,0.4,0.4,0.9,0.4,1.6c0,0.6-0.2,1.1-0.5,1.6c-0.3,0.5-0.8,0.9-1.3,1.1c-0.6,0.2-1.3,0.4-2.1,0.4c-1.2,0-2.2-0.3-2.8-0.9
		C-1040.5-150.8-1040.9-151.7-1041.1-152.8L-1041.1-152.8z M-1031.4-149.6v-9.8h2v4.3l4-4.3h2.6l-3.7,3.8l3.9,6h-2.5l-2.7-4.6
		l-1.6,1.6v2.9L-1031.4-149.6z"/>
	<path d="M-1039.6-144.6l-0.9-0.2c0.1-0.4,0.3-0.6,0.5-0.8c0.3-0.2,0.6-0.3,1.1-0.3c0.5,0,0.8,0.1,1,0.2c0.2,0.1,0.4,0.2,0.5,0.4
		c0.1,0.2,0.1,0.5,0.1,0.9l0,1.2c0,0.3,0,0.6,0,0.8c0,0.2,0.1,0.3,0.2,0.5h-1c0-0.1-0.1-0.2-0.1-0.3l0-0.1c-0.2,0.2-0.4,0.3-0.6,0.4
		c-0.2,0.1-0.4,0.1-0.6,0.1c-0.4,0-0.7-0.1-0.9-0.3c-0.2-0.2-0.4-0.5-0.3-0.8c0-0.2,0.1-0.4,0.2-0.6c0.1-0.2,0.2-0.3,0.4-0.4
		c0.2-0.1,0.5-0.2,0.8-0.2c0.5-0.1,0.8-0.2,1-0.2v-0.1c0-0.2,0-0.3-0.1-0.4c-0.1-0.1-0.3-0.1-0.5-0.1c-0.2,0-0.3,0-0.4,0.1
		C-1039.4-144.9-1039.5-144.8-1039.6-144.6L-1039.6-144.6z M-1038.2-143.8c-0.1,0-0.3,0.1-0.6,0.2s-0.5,0.1-0.6,0.2
		c-0.1,0.1-0.2,0.2-0.2,0.4c0,0.1,0.1,0.3,0.2,0.4c0.1,0.1,0.3,0.2,0.4,0.2c0.2,0,0.4-0.1,0.5-0.2c0.1-0.1,0.2-0.2,0.2-0.3
		c0-0.1,0-0.3,0-0.5L-1038.2-143.8z M-1036.2-141.9v-5.3h1v1.9c0.3-0.4,0.7-0.5,1.1-0.5c0.5,0,0.9,0.2,1.2,0.5
		c0.3,0.3,0.5,0.8,0.5,1.5c0,0.7-0.2,1.2-0.5,1.5c-0.3,0.4-0.7,0.5-1.1,0.5c-0.2,0-0.4-0.1-0.7-0.2c-0.2-0.1-0.4-0.3-0.6-0.5v0.6
		H-1036.2z M-1035.2-143.9c0,0.4,0.1,0.7,0.2,0.9c0.2,0.3,0.4,0.4,0.7,0.4c0.2,0,0.4-0.1,0.6-0.3c0.2-0.2,0.2-0.5,0.2-0.9
		c0-0.4-0.1-0.8-0.2-1c-0.1-0.2-0.4-0.3-0.6-0.3c-0.2,0-0.5,0.1-0.6,0.3C-1035.1-144.6-1035.2-144.3-1035.2-143.9L-1035.2-143.9z"/>
	<path d="M-1025.4-129.1l-6.5,0.7c-0.2-1.3-0.6-2.3-1.3-3c-0.7-0.6-1.5-1-2.6-1c-1.4,0-2.6,0.6-3.6,1.9c-1,1.3-1.6,4-1.9,8
		c1.7-2,3.8-3,6.3-3c2.8,0,5.2,1.1,7.3,3.2c2,2.2,3,4.9,3,8.3c0,3.6-1.1,6.5-3.2,8.7c-2.1,2.2-4.8,3.3-8.2,3.3
		c-3.6,0-6.5-1.4-8.8-4.2c-2.3-2.8-3.4-7.3-3.4-13.6c0-6.5,1.2-11.1,3.6-14c2.4-2.9,5.5-4.3,9.3-4.3c2.7,0,4.9,0.8,6.7,2.2
		C-1027-134.2-1025.9-132-1025.4-129.1z M-1040.7-114.4c0,2.2,0.5,3.9,1.5,5.1c1,1.2,2.2,1.8,3.5,1.8c1.2,0,2.3-0.5,3.1-1.5
		c0.8-1,1.3-2.6,1.3-4.8c0-2.3-0.4-4-1.3-5c-0.9-1.1-2-1.6-3.4-1.6c-1.3,0-2.4,0.5-3.3,1.5C-1040.3-117.9-1040.7-116.4-1040.7-114.4
		L-1040.7-114.4z"/>
	<path d="M-1057.3-94.4h0.6v-0.3c0-0.3,0-0.6,0.1-0.7c0.1-0.2,0.2-0.3,0.4-0.4c0.2-0.1,0.4-0.2,0.7-0.2c0.3,0,0.6,0,0.9,0.1
		l-0.1,0.7c-0.2,0-0.3-0.1-0.5-0.1c-0.1,0-0.3,0-0.3,0.1c-0.1,0.1-0.1,0.2-0.1,0.4v0.3h0.8v0.8h-0.8v3.1h-1v-3.1h-0.6L-1057.3-94.4z
		 M-1053.4-90.6h-1v-3.9h0.9v0.5c0.2-0.3,0.3-0.4,0.4-0.5c0.1-0.1,0.3-0.1,0.4-0.1c0.2,0,0.5,0.1,0.7,0.2l-0.3,0.9
		c-0.2-0.1-0.3-0.2-0.5-0.2c-0.1,0-0.3,0-0.4,0.1c-0.1,0.1-0.2,0.2-0.2,0.4s-0.1,0.6-0.1,1.3V-90.6z M-1049.3-91.8l1,0.2
		c-0.1,0.4-0.3,0.7-0.6,0.9c-0.3,0.2-0.6,0.3-1.1,0.3c-0.7,0-1.2-0.2-1.5-0.7c-0.3-0.4-0.4-0.8-0.4-1.3c0-0.6,0.2-1.1,0.5-1.5
		c0.3-0.4,0.8-0.6,1.3-0.5c0.6,0,1,0.2,1.4,0.6c0.3,0.4,0.5,1,0.5,1.7h-2.6c0,0.3,0.1,0.5,0.2,0.7c0.2,0.2,0.4,0.3,0.6,0.3
		c0.2,0,0.3,0,0.4-0.1S-1049.3-91.6-1049.3-91.8L-1049.3-91.8z M-1049.2-92.8c0-0.3-0.1-0.5-0.2-0.7c-0.1-0.1-0.3-0.2-0.5-0.2
		c-0.2,0-0.4,0.1-0.6,0.2c-0.1,0.2-0.2,0.4-0.2,0.7H-1049.2z M-1047.4-94.9v-0.9h1v0.9H-1047.4z M-1047.4-90.6v-3.9h1v3.9
		L-1047.4-90.6z M-1045.4-90.3l1.2,0.1c0,0.1,0.1,0.2,0.1,0.3c0.1,0.1,0.2,0.1,0.5,0.1c0.3,0,0.5,0,0.6-0.1c0.1-0.1,0.2-0.2,0.2-0.3
		c0-0.1,0-0.2,0-0.5v-0.6c-0.3,0.4-0.7,0.6-1.2,0.6c-0.5,0-0.9-0.2-1.2-0.7c-0.2-0.3-0.4-0.8-0.4-1.3c0-0.6,0.2-1.1,0.5-1.5
		c0.3-0.3,0.7-0.5,1.2-0.5c0.5,0,0.9,0.2,1.2,0.6v-0.5h1v3.5c0,0.5,0,0.8-0.1,1c-0.1,0.2-0.2,0.4-0.3,0.5c-0.2,0.1-0.3,0.2-0.5,0.3
		c-0.3,0.1-0.6,0.1-0.9,0.1c-0.7,0-1.1-0.1-1.4-0.3c-0.3-0.2-0.4-0.5-0.4-0.9L-1045.4-90.3L-1045.4-90.3z M-1044.5-92.6
		c0,0.4,0.1,0.7,0.2,0.9c0.2,0.2,0.4,0.3,0.6,0.3c0.2,0,0.5-0.1,0.6-0.3c0.2-0.2,0.3-0.5,0.3-0.9c0-0.4-0.1-0.7-0.2-0.9
		c-0.2-0.2-0.4-0.3-0.6-0.3c-0.2,0-0.5,0.1-0.6,0.3C-1044.4-93.2-1044.5-93-1044.5-92.6L-1044.5-92.6z M-1038.5-91.8l1,0.2
		c-0.1,0.4-0.3,0.7-0.6,0.9s-0.6,0.3-1.1,0.3c-0.7,0-1.2-0.2-1.5-0.7c-0.3-0.4-0.4-0.8-0.4-1.3c0-0.6,0.2-1.1,0.5-1.5
		c0.3-0.4,0.8-0.6,1.3-0.5c0.6,0,1,0.2,1.4,0.6s0.5,1,0.5,1.7h-2.6c0,0.3,0.1,0.5,0.2,0.7c0.2,0.2,0.4,0.3,0.6,0.3
		c0.2,0,0.3,0,0.4-0.1C-1038.7-91.5-1038.6-91.6-1038.5-91.8L-1038.5-91.8z M-1038.5-92.8c0-0.3-0.1-0.5-0.2-0.7
		c-0.1-0.1-0.3-0.2-0.5-0.2c-0.2,0-0.4,0.1-0.6,0.2c-0.1,0.2-0.2,0.4-0.2,0.7L-1038.5-92.8z M-1036.7-90.3l1.2,0.1
		c0,0.1,0.1,0.2,0.1,0.3c0.1,0.1,0.2,0.1,0.5,0.1c0.3,0,0.5,0,0.6-0.1c0.1-0.1,0.2-0.2,0.2-0.3c0-0.1,0-0.2,0-0.5v-0.6
		c-0.3,0.4-0.7,0.6-1.2,0.6c-0.5,0-0.9-0.2-1.2-0.7c-0.2-0.3-0.4-0.8-0.4-1.3c0-0.6,0.2-1.1,0.5-1.5c0.3-0.3,0.7-0.5,1.2-0.5
		c0.5,0,0.9,0.2,1.2,0.6v-0.5h1v3.5c0,0.5,0,0.8-0.1,1c-0.1,0.2-0.2,0.4-0.3,0.5c-0.2,0.1-0.3,0.2-0.5,0.3c-0.3,0.1-0.6,0.1-0.9,0.1
		c-0.7,0-1.1-0.1-1.4-0.3c-0.3-0.2-0.4-0.5-0.4-0.9L-1036.7-90.3L-1036.7-90.3z M-1035.8-92.6c0,0.4,0.1,0.7,0.2,0.9
		c0.2,0.2,0.4,0.3,0.6,0.3c0.2,0,0.5-0.1,0.6-0.3c0.2-0.2,0.3-0.5,0.3-0.9c0-0.4-0.1-0.7-0.2-0.9c-0.2-0.2-0.4-0.3-0.6-0.3
		c-0.2,0-0.5,0.1-0.6,0.3C-1035.7-93.2-1035.8-93-1035.8-92.6L-1035.8-92.6z M-1029.8-91.8l1,0.2c-0.1,0.4-0.3,0.7-0.6,0.9
		s-0.6,0.3-1.1,0.3c-0.7,0-1.2-0.2-1.5-0.7c-0.3-0.4-0.4-0.8-0.4-1.3c0-0.6,0.2-1.1,0.5-1.5c0.3-0.4,0.8-0.6,1.3-0.5
		c0.6,0,1,0.2,1.4,0.6c0.3,0.4,0.5,1,0.5,1.7h-2.6c0,0.3,0.1,0.5,0.2,0.7c0.2,0.2,0.4,0.3,0.6,0.3c0.2,0,0.3,0,0.4-0.1
		C-1030-91.5-1029.9-91.6-1029.8-91.8L-1029.8-91.8z M-1029.8-92.8c0-0.3-0.1-0.5-0.2-0.7c-0.1-0.1-0.3-0.2-0.5-0.2
		c-0.2,0-0.4,0.1-0.6,0.2c-0.1,0.2-0.2,0.4-0.2,0.7L-1029.8-92.8z M-1028-90.6v-5.3h1v1.9c0.3-0.4,0.7-0.5,1.1-0.5
		c0.5,0,0.9,0.2,1.2,0.5c0.3,0.3,0.5,0.8,0.5,1.5c0,0.7-0.2,1.2-0.5,1.5c-0.3,0.4-0.7,0.5-1.1,0.5c-0.2,0-0.4-0.1-0.7-0.2
		c-0.2-0.1-0.4-0.3-0.6-0.5v0.6H-1028z M-1027-92.6c0,0.4,0.1,0.7,0.2,0.9c0.2,0.3,0.4,0.4,0.7,0.4c0.2,0,0.4-0.1,0.6-0.3
		c0.2-0.2,0.2-0.5,0.2-0.9c0-0.4-0.1-0.8-0.2-1c-0.1-0.2-0.4-0.3-0.6-0.3c-0.2,0-0.5,0.1-0.6,0.3C-1026.9-93.2-1027-93-1027-92.6z
		 M-1021.2-91.8l1,0.2c-0.1,0.4-0.3,0.7-0.6,0.9c-0.3,0.2-0.6,0.3-1.1,0.3c-0.7,0-1.2-0.2-1.5-0.7c-0.3-0.4-0.4-0.8-0.4-1.3
		c0-0.6,0.2-1.1,0.5-1.5c0.3-0.4,0.8-0.6,1.3-0.5c0.6,0,1,0.2,1.4,0.6s0.5,1,0.5,1.7h-2.6c0,0.3,0.1,0.5,0.2,0.7
		c0.2,0.2,0.4,0.3,0.6,0.3c0.2,0,0.3,0,0.4-0.1C-1021.3-91.5-1021.2-91.6-1021.2-91.8z M-1021.1-92.8c0-0.3-0.1-0.5-0.2-0.7
		c-0.1-0.1-0.3-0.2-0.5-0.2c-0.2,0-0.4,0.1-0.6,0.2c-0.1,0.2-0.2,0.4-0.2,0.7H-1021.1z M-1015.7-90.6h-1v-2c0-0.4,0-0.7-0.1-0.8
		c0-0.1-0.1-0.2-0.2-0.3c-0.1-0.1-0.2-0.1-0.4-0.1c-0.2,0-0.3,0-0.5,0.1c-0.1,0.1-0.2,0.2-0.3,0.4c-0.1,0.2-0.1,0.5-0.1,0.9v1.7h-1
		v-3.9h0.9v0.6c0.3-0.4,0.8-0.7,1.3-0.7c0.2,0,0.4,0,0.6,0.1s0.3,0.2,0.4,0.3c0.1,0.1,0.2,0.3,0.2,0.4c0,0.2,0.1,0.4,0.1,0.7V-90.6z
		"/>
</g>
</svg>
