<?xml version="1.0" encoding="utf-8"?>
<!-- Generator: Adobe Illustrator 28.2.0, SVG Export Plug-In . SVG Version: 6.00 Build 0)  -->
<svg version="1.1" id="레이어_1" xmlns="http://www.w3.org/2000/svg" xmlns:xlink="http://www.w3.org/1999/xlink" x="0px"
	 y="0px" viewBox="0 0 104.9 104.9" style="enable-background:new 0 0 104.9 104.9;" xml:space="preserve">
<style type="text/css">
	.st0{fill:#FFFFFF;}
</style>
<g transform="matrix(1 0 0 1 1161.17 185.292)">
	<g>
		<path class="st0" d="M-1103.9-182.7l45,45c2.7,2.7,2.7,7,0,9.6l-45,45c-2.7,2.7-7,2.7-9.6,0l-45-45c-2.7-2.7-2.7-7,0-9.6l45-45
			C-1110.9-185.3-1106.6-185.3-1103.9-182.7z"/>
		<path d="M-1108.7-80.4c-1.9,0-3.8-0.7-5.3-2.2l-45-45c-2.9-2.9-2.9-7.6,0-10.5l45-45c2.9-2.9,7.6-2.9,10.5,0l45,45
			c1.4,1.4,2.2,3.3,2.2,5.3s-0.8,3.9-2.2,5.3l-45,45C-1104.9-81.2-1106.8-80.4-1108.7-80.4z M-1108.7-184c-1.6,0-3.2,0.6-4.4,1.8
			l-45,45c-2.4,2.4-2.4,6.3,0,8.8l45,45c2.4,2.4,6.3,2.4,8.8,0l45-45c1.2-1.2,1.8-2.7,1.8-4.4s-0.6-3.2-1.8-4.4l-45-45
			C-1105.6-183.4-1107.2-184-1108.7-184z"/>
	</g>
	<path d="M-1122.6-170.7h2v5.3c0,0.8,0,1.4,0.1,1.6c0.1,0.4,0.3,0.7,0.6,1s0.8,0.4,1.3,0.4c0.6,0,1-0.1,1.3-0.3
		c0.3-0.2,0.5-0.5,0.5-0.8c0.1-0.3,0.1-0.9,0.1-1.7v-5.4h2v5.1c0,1.2-0.1,2-0.2,2.5c-0.1,0.5-0.3,0.9-0.6,1.2
		c-0.3,0.3-0.7,0.6-1.1,0.8c-0.5,0.2-1.1,0.3-1.9,0.3c-0.9,0-1.6-0.1-2.1-0.3c-0.5-0.2-0.9-0.5-1.1-0.8c-0.3-0.3-0.5-0.7-0.6-1.1
		c-0.1-0.6-0.2-1.4-0.2-2.5L-1122.6-170.7z M-1113.3-164.1l1.9-0.2c0.1,0.6,0.3,1.1,0.7,1.4c0.4,0.3,0.8,0.5,1.4,0.5
		c0.6,0,1.1-0.1,1.4-0.4c0.3-0.3,0.5-0.6,0.5-0.9c0-0.2-0.1-0.4-0.2-0.6c-0.1-0.2-0.4-0.3-0.7-0.4c-0.2-0.1-0.8-0.2-1.6-0.4
		c-1.1-0.3-1.8-0.6-2.2-1c-0.6-0.5-0.9-1.2-0.9-2c0-0.5,0.1-1,0.4-1.4c0.3-0.4,0.7-0.8,1.2-1c0.5-0.2,1.2-0.3,1.9-0.3
		c1.2,0,2.1,0.3,2.8,0.8c0.6,0.5,0.9,1.3,1,2.1l-2,0.1c-0.1-0.5-0.3-0.9-0.5-1.1c-0.3-0.2-0.7-0.3-1.2-0.3c-0.6,0-1,0.1-1.3,0.4
		c-0.2,0.1-0.3,0.4-0.3,0.6c0,0.2,0.1,0.4,0.3,0.6c0.2,0.2,0.9,0.4,1.8,0.7s1.7,0.5,2.1,0.7c0.5,0.2,0.8,0.6,1.1,1
		c0.3,0.4,0.4,0.9,0.4,1.6c0,0.6-0.2,1.1-0.5,1.6c-0.3,0.5-0.8,0.9-1.3,1.1c-0.6,0.2-1.3,0.4-2.1,0.4c-1.2,0-2.2-0.3-2.8-0.9
		C-1112.8-162.2-1113.1-163-1113.3-164.1L-1113.3-164.1z M-1103.6-160.9v-9.8h2v4.3l4-4.3h2.6l-3.7,3.8l3.9,6h-2.5l-2.7-4.6
		l-1.6,1.6v2.9H-1103.6z"/>
	<path d="M-1111.8-155.9l-0.9-0.2c0.1-0.4,0.3-0.6,0.5-0.8s0.6-0.3,1.1-0.3c0.5,0,0.8,0.1,1,0.2s0.4,0.2,0.5,0.4
		c0.1,0.2,0.1,0.5,0.1,0.9l0,1.2c0,0.3,0,0.6,0,0.8c0,0.2,0.1,0.3,0.2,0.5h-1c0-0.1-0.1-0.2-0.1-0.3l0-0.1c-0.2,0.2-0.4,0.3-0.6,0.4
		c-0.2,0.1-0.4,0.1-0.6,0.1c-0.4,0-0.7-0.1-0.9-0.3c-0.2-0.2-0.4-0.5-0.3-0.8c0-0.2,0.1-0.4,0.2-0.6c0.1-0.2,0.2-0.3,0.4-0.4
		c0.2-0.1,0.5-0.2,0.8-0.2c0.5-0.1,0.8-0.2,1-0.2v-0.1c0-0.2-0.1-0.3-0.1-0.4c-0.1-0.1-0.3-0.1-0.5-0.1c-0.2,0-0.3,0-0.4,0.1
		C-1111.6-156.2-1111.7-156.1-1111.8-155.9L-1111.8-155.9z M-1110.4-155.1c-0.1,0-0.3,0.1-0.6,0.2c-0.3,0.1-0.5,0.1-0.6,0.2
		c-0.1,0.1-0.2,0.2-0.2,0.4c0,0.1,0.1,0.3,0.2,0.4c0.1,0.1,0.3,0.2,0.4,0.2c0.2,0,0.4-0.1,0.5-0.2c0.1-0.1,0.2-0.2,0.2-0.3
		c0-0.1,0-0.3,0-0.5L-1110.4-155.1z M-1108.4-153.2v-5.3h1v1.9c0.3-0.4,0.7-0.5,1.1-0.5c0.5,0,0.9,0.2,1.2,0.5
		c0.3,0.3,0.5,0.8,0.5,1.5c0,0.7-0.2,1.2-0.5,1.5c-0.3,0.4-0.7,0.5-1.1,0.5c-0.2,0-0.4-0.1-0.7-0.2c-0.2-0.1-0.4-0.3-0.6-0.5v0.6
		L-1108.4-153.2z M-1107.4-155.3c0,0.4,0.1,0.7,0.2,0.9c0.2,0.3,0.4,0.4,0.7,0.4c0.2,0,0.4-0.1,0.6-0.3c0.2-0.2,0.2-0.5,0.2-0.9
		c0-0.4-0.1-0.8-0.2-1c-0.1-0.2-0.4-0.3-0.6-0.3c-0.2,0-0.5,0.1-0.6,0.3C-1107.4-155.9-1107.4-155.6-1107.4-155.3L-1107.4-155.3z"/>
	<path d="M-1108.7-149.3c3.4,0,6.1,1.2,8,3.7c2.3,2.9,3.4,7.7,3.4,14.4c0,6.7-1.2,11.5-3.5,14.4c-1.9,2.4-4.6,3.6-8,3.6
		c-3.4,0-6.2-1.3-8.3-4c-2.1-2.6-3.2-7.3-3.2-14.1c0-6.6,1.2-11.4,3.5-14.3C-1114.8-148.1-1112.2-149.3-1108.7-149.3z
		 M-1108.7-143.6c-0.8,0-1.5,0.3-2.2,0.8c-0.6,0.5-1.1,1.5-1.5,2.8c-0.5,1.7-0.7,4.7-0.7,8.8c0,4.1,0.2,7,0.6,8.5
		c0.4,1.5,0.9,2.6,1.6,3.1s1.4,0.8,2.2,0.8s1.5-0.3,2.2-0.8c0.6-0.5,1.1-1.5,1.5-2.8c0.5-1.7,0.7-4.7,0.7-8.8c0-4.1-0.2-7-0.6-8.5
		c-0.4-1.5-0.9-2.6-1.6-3.1C-1107.2-143.4-1107.9-143.7-1108.7-143.6z"/>
	<path d="M-1129.5-105.7h0.6v-0.3c0-0.3,0-0.6,0.1-0.7c0.1-0.2,0.2-0.3,0.4-0.4c0.2-0.1,0.4-0.2,0.7-0.2c0.3,0,0.6,0,0.9,0.1
		l-0.1,0.7c-0.2,0-0.3-0.1-0.5-0.1c-0.1,0-0.3,0-0.3,0.1c-0.1,0.1-0.1,0.2-0.1,0.4v0.3h0.8v0.8h-0.8v3.1h-1v-3.1h-0.6L-1129.5-105.7
		z M-1125.6-101.9h-1v-3.9h0.9v0.5c0.2-0.3,0.3-0.4,0.4-0.5c0.1-0.1,0.3-0.1,0.4-0.1c0.2,0,0.5,0.1,0.7,0.2l-0.3,0.9
		c-0.2-0.1-0.3-0.2-0.5-0.2c-0.1,0-0.3,0-0.4,0.1c-0.1,0.1-0.2,0.2-0.2,0.4s-0.1,0.6-0.1,1.3L-1125.6-101.9z M-1121.5-103.1l1,0.2
		c-0.1,0.4-0.3,0.7-0.6,0.9s-0.6,0.3-1.1,0.3c-0.7,0-1.2-0.2-1.5-0.7c-0.3-0.3-0.4-0.8-0.4-1.3c0-0.6,0.2-1.1,0.5-1.5
		c0.3-0.4,0.8-0.6,1.3-0.5c0.6,0,1,0.2,1.4,0.6c0.3,0.4,0.5,1,0.5,1.7h-2.6c0,0.3,0.1,0.5,0.2,0.7c0.2,0.2,0.4,0.3,0.6,0.3
		c0.2,0,0.3,0,0.4-0.1C-1121.6-102.8-1121.5-102.9-1121.5-103.1L-1121.5-103.1z M-1121.4-104.1c0-0.3-0.1-0.5-0.2-0.7
		c-0.1-0.1-0.3-0.2-0.5-0.2c-0.2,0-0.4,0.1-0.6,0.2c-0.1,0.2-0.2,0.4-0.2,0.7L-1121.4-104.1z M-1119.6-106.3v-0.9h1v0.9H-1119.6z
		 M-1119.6-101.9v-3.9h1v3.9L-1119.6-101.9z M-1117.6-101.6l1.2,0.1c0,0.1,0.1,0.2,0.1,0.3c0.1,0.1,0.2,0.1,0.5,0.1
		c0.3,0,0.5,0,0.6-0.1c0.1-0.1,0.2-0.2,0.2-0.3c0-0.1,0-0.2,0-0.5v-0.6c-0.3,0.4-0.7,0.6-1.2,0.6c-0.5,0-0.9-0.2-1.2-0.7
		c-0.2-0.3-0.4-0.8-0.4-1.3c0-0.6,0.2-1.1,0.5-1.5c0.3-0.3,0.7-0.5,1.2-0.5c0.5,0,0.9,0.2,1.2,0.6v-0.5h1v3.5c0,0.5,0,0.8-0.1,1
		c-0.1,0.2-0.2,0.4-0.3,0.5c-0.2,0.1-0.3,0.2-0.5,0.3c-0.3,0.1-0.6,0.1-0.9,0.1c-0.7,0-1.1-0.1-1.4-0.3c-0.3-0.2-0.4-0.5-0.4-0.9
		L-1117.6-101.6L-1117.6-101.6z M-1116.7-103.9c0,0.4,0.1,0.7,0.2,0.9c0.2,0.2,0.4,0.3,0.6,0.3c0.2,0,0.5-0.1,0.6-0.3
		c0.2-0.2,0.3-0.5,0.3-0.9c0-0.4-0.1-0.7-0.2-0.9c-0.2-0.2-0.4-0.3-0.6-0.3c-0.2,0-0.5,0.1-0.6,0.3
		C-1116.6-104.6-1116.7-104.3-1116.7-103.9z M-1110.7-103.1l1,0.2c-0.1,0.4-0.3,0.7-0.6,0.9c-0.3,0.2-0.6,0.3-1.1,0.3
		c-0.7,0-1.2-0.2-1.5-0.7c-0.3-0.3-0.4-0.8-0.4-1.3c0-0.6,0.2-1.1,0.5-1.5c0.3-0.4,0.8-0.6,1.3-0.5c0.6,0,1,0.2,1.4,0.6
		c0.3,0.4,0.5,1,0.5,1.7h-2.6c0,0.3,0.1,0.5,0.2,0.7c0.2,0.2,0.4,0.3,0.6,0.3c0.2,0,0.3,0,0.4-0.1
		C-1110.9-102.8-1110.8-102.9-1110.7-103.1L-1110.7-103.1z M-1110.7-104.1c0-0.3-0.1-0.5-0.2-0.7c-0.1-0.1-0.3-0.2-0.5-0.2
		c-0.2,0-0.4,0.1-0.6,0.2c-0.1,0.2-0.2,0.4-0.2,0.7L-1110.7-104.1z M-1108.9-101.6l1.2,0.1c0,0.1,0.1,0.2,0.1,0.3
		c0.1,0.1,0.2,0.1,0.5,0.1c0.3,0,0.5,0,0.6-0.1c0.1-0.1,0.2-0.2,0.2-0.3c0-0.1,0-0.2,0-0.5v-0.6c-0.3,0.4-0.7,0.6-1.2,0.6
		c-0.5,0-0.9-0.2-1.2-0.7c-0.2-0.3-0.4-0.8-0.4-1.3c0-0.6,0.2-1.1,0.5-1.5c0.3-0.3,0.7-0.5,1.2-0.5c0.5,0,0.9,0.2,1.2,0.6v-0.5h1
		v3.5c0,0.5,0,0.8-0.1,1c-0.1,0.2-0.2,0.4-0.3,0.5c-0.2,0.1-0.3,0.2-0.5,0.3c-0.3,0.1-0.6,0.1-0.9,0.1c-0.7,0-1.1-0.1-1.4-0.3
		c-0.3-0.2-0.4-0.5-0.4-0.9L-1108.9-101.6L-1108.9-101.6z M-1108-103.9c0,0.4,0.1,0.7,0.2,0.9c0.2,0.2,0.4,0.3,0.6,0.3
		c0.2,0,0.5-0.1,0.6-0.3c0.2-0.2,0.3-0.5,0.3-0.9c0-0.4-0.1-0.7-0.2-0.9c-0.2-0.2-0.4-0.3-0.6-0.3c-0.2,0-0.5,0.1-0.6,0.3
		C-1107.9-104.6-1108-104.3-1108-103.9z M-1102.1-103.1l1,0.2c-0.1,0.4-0.3,0.7-0.6,0.9c-0.3,0.2-0.6,0.3-1.1,0.3
		c-0.7,0-1.2-0.2-1.5-0.7c-0.3-0.3-0.4-0.8-0.4-1.3c0-0.6,0.2-1.1,0.5-1.5c0.3-0.4,0.8-0.6,1.3-0.5c0.6,0,1,0.2,1.4,0.6
		c0.3,0.4,0.5,1,0.5,1.7h-2.6c0,0.3,0.1,0.5,0.2,0.7c0.2,0.2,0.4,0.3,0.6,0.3c0.2,0,0.3,0,0.4-0.1
		C-1102.2-102.8-1102.1-102.9-1102.1-103.1L-1102.1-103.1z M-1102-104.1c0-0.3-0.1-0.5-0.2-0.7c-0.1-0.1-0.3-0.2-0.5-0.2
		c-0.2,0-0.4,0.1-0.6,0.2c-0.1,0.2-0.2,0.4-0.2,0.7L-1102-104.1z M-1100.2-101.9v-5.3h1v1.9c0.3-0.4,0.7-0.5,1.1-0.5
		c0.5,0,0.9,0.2,1.2,0.5c0.3,0.3,0.5,0.8,0.5,1.5c0,0.7-0.2,1.2-0.5,1.5c-0.3,0.4-0.7,0.5-1.1,0.5c-0.2,0-0.4-0.1-0.7-0.2
		c-0.2-0.1-0.4-0.3-0.6-0.5v0.6H-1100.2z M-1099.2-103.9c0,0.4,0.1,0.7,0.2,0.9c0.2,0.3,0.4,0.4,0.7,0.4c0.2,0,0.4-0.1,0.6-0.3
		c0.2-0.2,0.2-0.5,0.2-0.9c0-0.4-0.1-0.8-0.2-1c-0.1-0.2-0.4-0.3-0.6-0.3c-0.2,0-0.5,0.1-0.6,0.3
		C-1099.1-104.6-1099.2-104.3-1099.2-103.9z M-1093.4-103.1l1,0.2c-0.1,0.4-0.3,0.7-0.6,0.9c-0.3,0.2-0.6,0.3-1.1,0.3
		c-0.7,0-1.2-0.2-1.5-0.7c-0.3-0.3-0.4-0.8-0.4-1.3c0-0.6,0.2-1.1,0.5-1.5c0.3-0.4,0.8-0.6,1.3-0.5c0.6,0,1,0.2,1.4,0.6
		c0.3,0.4,0.5,1,0.5,1.7h-2.6c0,0.3,0.1,0.5,0.2,0.7c0.2,0.2,0.4,0.3,0.6,0.3c0.2,0,0.3,0,0.4-0.1
		C-1093.5-102.8-1093.4-102.9-1093.4-103.1L-1093.4-103.1z M-1093.3-104.1c0-0.3-0.1-0.5-0.2-0.7c-0.1-0.1-0.3-0.2-0.5-0.2
		c-0.2,0-0.4,0.1-0.6,0.2c-0.1,0.2-0.2,0.4-0.2,0.7L-1093.3-104.1z M-1088-101.9h-1v-2c0-0.4,0-0.7-0.1-0.8c0-0.1-0.1-0.2-0.2-0.3
		c-0.1-0.1-0.2-0.1-0.4-0.1c-0.2,0-0.3,0-0.5,0.1c-0.1,0.1-0.2,0.2-0.3,0.4c-0.1,0.2-0.1,0.5-0.1,0.9v1.7h-1v-3.9h0.9v0.6
		c0.3-0.4,0.8-0.7,1.3-0.7c0.2,0,0.4,0,0.6,0.1c0.2,0.1,0.3,0.2,0.4,0.3c0.1,0.1,0.2,0.3,0.2,0.4c0,0.2,0.1,0.4,0.1,0.7V-101.9z"/>
</g>
</svg>
