<?xml version="1.0" encoding="utf-8"?>
<!-- Generator: Adobe Illustrator 28.2.0, SVG Export Plug-In . SVG Version: 6.00 Build 0)  -->
<svg version="1.1" id="레이어_1" xmlns="http://www.w3.org/2000/svg" xmlns:xlink="http://www.w3.org/1999/xlink" x="0px"
	 y="0px" viewBox="0 0 104.9 104.9" style="enable-background:new 0 0 104.9 104.9;" xml:space="preserve">
<style type="text/css">
	.st0{fill:#00A0DE;}
</style>
<g transform="translate(1157.811 174.674)">
	<g>
		<path class="st0" d="M-1100.6-172.1l45,45c2.7,2.7,2.7,7,0,9.6l-45,45c-2.7,2.7-7,2.7-9.6,0l-45-45c-2.7-2.7-2.7-7,0-9.6l45-45
			C-1107.5-174.7-1103.2-174.7-1100.6-172.1z"/>
		<path d="M-1105.4-69.8c-1.9,0-3.8-0.7-5.3-2.2l-45-45c-1.4-1.4-2.2-3.3-2.2-5.3s0.8-3.9,2.2-5.3l45-45c1.4-1.4,3.3-2.2,5.3-2.2
			s3.9,0.8,5.3,2.2l45,45c2.9,2.9,2.9,7.6,0,10.5l-45,45C-1101.6-70.5-1103.5-69.8-1105.4-69.8z M-1105.4-173.4
			c-1.7,0-3.2,0.6-4.4,1.8l-45,45c-1.2,1.2-1.8,2.7-1.8,4.4s0.6,3.2,1.8,4.4l45,45c2.4,2.4,6.3,2.4,8.8,0l45-45
			c2.4-2.4,2.4-6.3,0-8.8l-45-45C-1102.2-172.8-1103.7-173.4-1105.4-173.4z"/>
	</g>
	<path d="M-1119.3-160h2v5.3c0,0.8,0,1.4,0.1,1.6c0.1,0.4,0.3,0.7,0.6,1c0.3,0.2,0.8,0.4,1.3,0.4c0.6,0,1-0.1,1.3-0.3
		c0.3-0.2,0.5-0.5,0.5-0.8c0.1-0.3,0.1-0.9,0.1-1.7v-5.4h2v5.1c0,1.2-0.1,2-0.2,2.5c-0.1,0.5-0.3,0.9-0.6,1.2
		c-0.3,0.3-0.7,0.6-1.1,0.8c-0.5,0.2-1.1,0.3-1.9,0.3c-0.9,0-1.6-0.1-2.1-0.3c-0.5-0.2-0.9-0.5-1.1-0.8c-0.3-0.3-0.5-0.7-0.6-1.1
		c-0.1-0.6-0.2-1.4-0.2-2.5L-1119.3-160z M-1109.9-153.5l1.9-0.2c0.1,0.6,0.3,1.1,0.7,1.4c0.4,0.3,0.8,0.5,1.4,0.5
		c0.6,0,1.1-0.1,1.4-0.4c0.3-0.3,0.5-0.6,0.5-0.9c0-0.2-0.1-0.4-0.2-0.6c-0.1-0.2-0.4-0.3-0.7-0.4c-0.2-0.1-0.8-0.2-1.6-0.4
		c-1.1-0.3-1.8-0.6-2.2-1c-0.6-0.5-0.9-1.2-0.9-2c0-0.5,0.1-1,0.4-1.4s0.7-0.8,1.2-1c0.5-0.2,1.2-0.3,1.9-0.3c1.2,0,2.1,0.3,2.8,0.8
		c0.6,0.5,0.9,1.3,1,2.1l-2,0.1c-0.1-0.5-0.3-0.9-0.5-1.1c-0.3-0.2-0.7-0.3-1.2-0.3c-0.6,0-1,0.1-1.3,0.4c-0.2,0.1-0.3,0.4-0.3,0.6
		c0,0.2,0.1,0.4,0.3,0.6c0.2,0.2,0.9,0.4,1.8,0.7s1.7,0.5,2.1,0.7c0.5,0.2,0.8,0.6,1.1,1c0.3,0.4,0.4,0.9,0.4,1.6
		c0,0.6-0.2,1.1-0.5,1.6c-0.3,0.5-0.8,0.9-1.3,1.1c-0.6,0.2-1.3,0.4-2.1,0.4c-1.2,0-2.2-0.3-2.8-0.9
		C-1109.4-151.5-1109.8-152.4-1109.9-153.5L-1109.9-153.5z M-1100.3-150.3v-9.8h2v4.3l4-4.3h2.6l-3.7,3.8l3.9,6h-2.5l-2.7-4.6
		l-1.6,1.6v2.9H-1100.3z"/>
	<path d="M-1108.4-145.3l-0.9-0.2c0.1-0.4,0.3-0.6,0.5-0.8c0.3-0.2,0.6-0.3,1.1-0.3c0.5,0,0.8,0.1,1,0.2c0.2,0.1,0.4,0.2,0.5,0.4
		c0.1,0.2,0.1,0.5,0.1,0.9l0,1.2c0,0.3,0,0.6,0,0.8c0,0.2,0.1,0.3,0.2,0.5h-1c0-0.1-0.1-0.2-0.1-0.3l0-0.1c-0.2,0.2-0.4,0.3-0.6,0.4
		c-0.2,0.1-0.4,0.1-0.6,0.1c-0.4,0-0.7-0.1-0.9-0.3c-0.2-0.2-0.4-0.5-0.3-0.8c0-0.2,0.1-0.4,0.2-0.6c0.1-0.2,0.2-0.3,0.4-0.4
		c0.2-0.1,0.5-0.2,0.8-0.2c0.5-0.1,0.8-0.2,1-0.2v-0.1c0-0.2,0-0.3-0.1-0.4c-0.1-0.1-0.3-0.1-0.5-0.1c-0.2,0-0.3,0-0.4,0.1
		C-1108.3-145.6-1108.4-145.5-1108.4-145.3L-1108.4-145.3z M-1107.1-144.5c-0.1,0-0.3,0.1-0.6,0.2c-0.3,0.1-0.5,0.1-0.6,0.2
		c-0.1,0.1-0.2,0.2-0.2,0.4c0,0.1,0.1,0.3,0.2,0.4c0.1,0.1,0.3,0.2,0.4,0.2c0.2,0,0.4-0.1,0.5-0.2c0.1-0.1,0.2-0.2,0.2-0.3
		c0-0.1,0-0.3,0-0.5L-1107.1-144.5z M-1105.1-142.6v-5.3h1v1.9c0.3-0.4,0.7-0.5,1.1-0.5c0.5,0,0.9,0.2,1.2,0.5
		c0.3,0.3,0.5,0.8,0.5,1.5c0,0.7-0.2,1.2-0.5,1.5c-0.3,0.4-0.7,0.5-1.1,0.5c-0.2,0-0.4-0.1-0.7-0.2c-0.2-0.1-0.4-0.3-0.6-0.5v0.6
		L-1105.1-142.6z M-1104.1-144.6c0,0.4,0.1,0.7,0.2,0.9c0.2,0.3,0.4,0.4,0.7,0.4c0.2,0,0.4-0.1,0.6-0.3c0.2-0.2,0.2-0.5,0.2-0.9
		c0-0.4-0.1-0.8-0.2-1c-0.1-0.2-0.4-0.3-0.6-0.3c-0.2,0-0.5,0.1-0.6,0.3C-1104-145.3-1104.1-145-1104.1-144.6z"/>
	<path d="M-1114.5-103.2h-6.8v-25.5c-2.5,2.3-5.4,4-8.7,5.1v-6.1c1.8-0.6,3.7-1.7,5.8-3.3c2.1-1.6,3.5-3.5,4.3-5.6h5.5V-103.2z
		 M-1081.4-129.9l-6.5,0.7c-0.2-1.3-0.6-2.3-1.3-3c-0.7-0.6-1.5-1-2.6-1c-1.4,0-2.6,0.6-3.6,1.9c-1,1.3-1.6,4-1.9,8
		c1.7-2,3.8-3,6.3-3c2.8,0,5.2,1.1,7.3,3.2c2,2.2,3,4.9,3,8.3c0,3.6-1.1,6.5-3.2,8.7c-2.1,2.2-4.8,3.3-8.2,3.3
		c-3.6,0-6.5-1.4-8.8-4.2c-2.3-2.8-3.4-7.3-3.4-13.6c0-6.5,1.2-11.1,3.6-14c2.4-2.9,5.5-4.3,9.3-4.3c2.7,0,4.9,0.8,6.7,2.2
		C-1083-134.9-1081.9-132.7-1081.4-129.9L-1081.4-129.9z M-1096.8-115.1c0,2.2,0.5,3.9,1.5,5.1c1,1.2,2.2,1.8,3.5,1.8
		c1.2,0,2.3-0.5,3.1-1.5c0.8-1,1.3-2.6,1.3-4.8c0-2.3-0.4-4-1.3-5c-0.9-1.1-2-1.6-3.4-1.6c-1.3,0-2.4,0.5-3.3,1.5
		C-1096.3-118.6-1096.8-117.1-1096.8-115.1L-1096.8-115.1z"/>
	<path d="M-1126.2-95.1h0.6v-0.3c0-0.3,0-0.6,0.1-0.7c0.1-0.2,0.2-0.3,0.4-0.4c0.2-0.1,0.4-0.2,0.7-0.2c0.3,0,0.6,0,0.9,0.1
		l-0.1,0.7c-0.2,0-0.3-0.1-0.5-0.1c-0.1,0-0.3,0-0.3,0.1c-0.1,0.1-0.1,0.2-0.1,0.4v0.3h0.8v0.8h-0.8v3.1h-1v-3.1h-0.6L-1126.2-95.1z
		 M-1122.3-91.3h-1v-3.9h0.9v0.5c0.2-0.3,0.3-0.4,0.4-0.5c0.1-0.1,0.3-0.1,0.4-0.1c0.2,0,0.5,0.1,0.7,0.2l-0.3,0.9
		c-0.2-0.1-0.3-0.2-0.5-0.2c-0.1,0-0.3,0-0.4,0.1c-0.1,0.1-0.2,0.2-0.2,0.4s-0.1,0.6-0.1,1.3V-91.3z M-1118.1-92.5l1,0.2
		c-0.1,0.4-0.3,0.7-0.6,0.9c-0.3,0.2-0.6,0.3-1.1,0.3c-0.7,0-1.2-0.2-1.5-0.7c-0.3-0.3-0.4-0.8-0.4-1.3c0-0.6,0.2-1.1,0.5-1.5
		c0.3-0.4,0.8-0.6,1.3-0.5c0.6,0,1,0.2,1.4,0.6c0.3,0.4,0.5,1,0.5,1.7h-2.6c0,0.3,0.1,0.5,0.2,0.7c0.2,0.2,0.4,0.3,0.6,0.3
		c0.2,0,0.3,0,0.4-0.1C-1118.3-92.2-1118.2-92.3-1118.1-92.5L-1118.1-92.5z M-1118.1-93.5c0-0.3-0.1-0.5-0.2-0.7
		c-0.1-0.1-0.3-0.2-0.5-0.2c-0.2,0-0.4,0.1-0.6,0.2c-0.1,0.2-0.2,0.4-0.2,0.7L-1118.1-93.5z M-1116.2-95.6v-0.9h1v0.9H-1116.2z
		 M-1116.2-91.3v-3.9h1v3.9L-1116.2-91.3z M-1114.2-91l1.2,0.1c0,0.1,0.1,0.2,0.1,0.3c0.1,0.1,0.2,0.1,0.5,0.1c0.3,0,0.5,0,0.6-0.1
		c0.1-0.1,0.2-0.2,0.2-0.3c0-0.1,0-0.2,0-0.5v-0.6c-0.3,0.4-0.7,0.6-1.2,0.6c-0.5,0-0.9-0.2-1.2-0.7c-0.2-0.3-0.4-0.8-0.4-1.3
		c0-0.6,0.2-1.1,0.5-1.5c0.3-0.3,0.7-0.5,1.2-0.5c0.5,0,0.9,0.2,1.2,0.6v-0.5h1v3.5c0,0.5,0,0.8-0.1,1c-0.1,0.2-0.2,0.4-0.3,0.5
		c-0.2,0.1-0.3,0.2-0.5,0.3c-0.3,0.1-0.6,0.1-0.9,0.1c-0.7,0-1.1-0.1-1.4-0.3c-0.3-0.2-0.4-0.5-0.4-0.9L-1114.2-91L-1114.2-91z
		 M-1113.3-93.3c0,0.4,0.1,0.7,0.2,0.9c0.2,0.2,0.4,0.3,0.6,0.3c0.2,0,0.5-0.1,0.6-0.3c0.2-0.2,0.3-0.5,0.3-0.9
		c0-0.4-0.1-0.7-0.2-0.9c-0.2-0.2-0.4-0.3-0.6-0.3c-0.2,0-0.5,0.1-0.6,0.3C-1113.3-94-1113.3-93.7-1113.3-93.3L-1113.3-93.3z
		 M-1107.4-92.5l1,0.2c-0.1,0.4-0.3,0.7-0.6,0.9s-0.6,0.3-1.1,0.3c-0.7,0-1.2-0.2-1.5-0.7c-0.3-0.3-0.4-0.8-0.4-1.3
		c0-0.6,0.2-1.1,0.5-1.5c0.3-0.4,0.8-0.6,1.3-0.5c0.6,0,1,0.2,1.4,0.6c0.3,0.4,0.5,1,0.5,1.7h-2.6c0,0.3,0.1,0.5,0.2,0.7
		c0.2,0.2,0.4,0.3,0.6,0.3c0.2,0,0.3,0,0.4-0.1C-1107.5-92.2-1107.4-92.3-1107.4-92.5L-1107.4-92.5z M-1107.3-93.5
		c0-0.3-0.1-0.5-0.2-0.7c-0.1-0.1-0.3-0.2-0.5-0.2c-0.2,0-0.4,0.1-0.6,0.2c-0.1,0.2-0.2,0.4-0.2,0.7L-1107.3-93.5z M-1105.6-91
		l1.2,0.1c0,0.1,0.1,0.2,0.1,0.3c0.1,0.1,0.2,0.1,0.5,0.1c0.3,0,0.5,0,0.6-0.1c0.1-0.1,0.2-0.2,0.2-0.3c0-0.1,0-0.2,0-0.5v-0.6
		c-0.3,0.4-0.7,0.6-1.2,0.6c-0.5,0-0.9-0.2-1.2-0.7c-0.2-0.3-0.4-0.8-0.4-1.3c0-0.6,0.2-1.1,0.5-1.5c0.3-0.3,0.7-0.5,1.2-0.5
		c0.5,0,0.9,0.2,1.2,0.6v-0.5h1v3.5c0,0.5,0,0.8-0.1,1c-0.1,0.2-0.2,0.4-0.3,0.5c-0.2,0.1-0.3,0.2-0.5,0.3c-0.3,0.1-0.6,0.1-0.9,0.1
		c-0.7,0-1.1-0.1-1.4-0.3c-0.3-0.2-0.4-0.5-0.4-0.9L-1105.6-91L-1105.6-91z M-1104.7-93.3c0,0.4,0.1,0.7,0.2,0.9
		c0.2,0.2,0.4,0.3,0.6,0.3c0.2,0,0.5-0.1,0.6-0.3c0.2-0.2,0.3-0.5,0.3-0.9c0-0.4-0.1-0.7-0.2-0.9c-0.2-0.2-0.4-0.3-0.6-0.3
		c-0.2,0-0.5,0.1-0.6,0.3C-1104.6-94-1104.7-93.7-1104.7-93.3L-1104.7-93.3z M-1098.7-92.5l1,0.2c-0.1,0.4-0.3,0.7-0.6,0.9
		c-0.3,0.2-0.6,0.3-1.1,0.3c-0.7,0-1.2-0.2-1.5-0.7c-0.3-0.3-0.4-0.8-0.4-1.3c0-0.6,0.2-1.1,0.5-1.5c0.3-0.4,0.8-0.6,1.3-0.5
		c0.6,0,1,0.2,1.4,0.6c0.3,0.4,0.5,1,0.5,1.7h-2.6c0,0.3,0.1,0.5,0.2,0.7c0.2,0.2,0.4,0.3,0.6,0.3c0.2,0,0.3,0,0.4-0.1
		C-1098.8-92.2-1098.7-92.3-1098.7-92.5L-1098.7-92.5z M-1098.6-93.5c0-0.3-0.1-0.5-0.2-0.7c-0.1-0.1-0.3-0.2-0.5-0.2
		c-0.2,0-0.4,0.1-0.6,0.2c-0.1,0.2-0.2,0.4-0.2,0.7L-1098.6-93.5z M-1096.8-91.3v-5.3h1v1.9c0.3-0.4,0.7-0.5,1.1-0.5
		c0.5,0,0.9,0.2,1.2,0.5c0.3,0.3,0.5,0.8,0.5,1.5c0,0.7-0.2,1.2-0.5,1.5c-0.3,0.4-0.7,0.5-1.1,0.5c-0.2,0-0.4-0.1-0.7-0.2
		c-0.2-0.1-0.4-0.3-0.6-0.5v0.6H-1096.8z M-1095.8-93.3c0,0.4,0.1,0.7,0.2,0.9c0.2,0.3,0.4,0.4,0.7,0.4c0.2,0,0.4-0.1,0.6-0.3
		c0.2-0.2,0.2-0.5,0.2-0.9c0-0.4-0.1-0.8-0.2-1c-0.1-0.2-0.4-0.3-0.6-0.3c-0.2,0-0.5,0.1-0.6,0.3
		C-1095.7-94-1095.8-93.7-1095.8-93.3z M-1090-92.5l1,0.2c-0.1,0.4-0.3,0.7-0.6,0.9c-0.3,0.2-0.6,0.3-1.1,0.3
		c-0.7,0-1.2-0.2-1.5-0.7c-0.3-0.3-0.4-0.8-0.4-1.3c0-0.6,0.2-1.1,0.5-1.5c0.3-0.4,0.8-0.6,1.3-0.5c0.6,0,1,0.2,1.4,0.6
		c0.3,0.4,0.5,1,0.5,1.7h-2.6c0,0.3,0.1,0.5,0.2,0.7c0.2,0.2,0.4,0.3,0.6,0.3c0.2,0,0.3,0,0.4-0.1
		C-1090.1-92.2-1090.1-92.3-1090-92.5L-1090-92.5z M-1089.9-93.5c0-0.3-0.1-0.5-0.2-0.7c-0.1-0.1-0.3-0.2-0.5-0.2
		c-0.2,0-0.4,0.1-0.6,0.2c-0.1,0.2-0.2,0.4-0.2,0.7L-1089.9-93.5z M-1084.6-91.3h-1v-2c0-0.4,0-0.7-0.1-0.8c0-0.1-0.1-0.2-0.2-0.3
		c-0.1-0.1-0.2-0.1-0.4-0.1c-0.2,0-0.3,0-0.5,0.1c-0.1,0.1-0.2,0.2-0.3,0.4c-0.1,0.2-0.1,0.5-0.1,0.9v1.7h-1v-3.9h0.9v0.6
		c0.3-0.4,0.8-0.7,1.3-0.7c0.2,0,0.4,0,0.6,0.1c0.2,0.1,0.3,0.2,0.4,0.3c0.1,0.1,0.2,0.3,0.2,0.4c0,0.2,0.1,0.4,0.1,0.7
		L-1084.6-91.3z"/>
</g>
</svg>
