<?xml version="1.0" encoding="utf-8"?>
<!-- Generator: Adobe Illustrator 28.2.0, SVG Export Plug-In . SVG Version: 6.00 Build 0)  -->
<svg version="1.1" id="_레이어_1" xmlns="http://www.w3.org/2000/svg" xmlns:xlink="http://www.w3.org/1999/xlink" x="0px"
	 y="0px" viewBox="0 0 1000 1000" style="enable-background:new 0 0 1000 1000;" xml:space="preserve">
<style type="text/css">
	.st0{fill:#222222;}
	.st1{fill:#2F2F2F;}
</style>
<rect class="st0" width="1000" height="1000"/>
<g>
	<path class="st1" d="M408.7,250h182.7c12.8,0,23.2,10.4,23.2,23.2v172.7c0,12.8-10.4,23.2-23.2,23.2H408.7
		c-12.8,0-23.2-10.4-23.2-23.2V273.2C385.5,260.4,395.8,250,408.7,250z"/>
	<path class="st1" d="M409,508.7h182.3c12.8,0,23.2,10.4,23.2,23.2v195c0,12.8-10.4,23.2-23.2,23.2H409c-12.8,0-23.2-10.4-23.2-23.2
		v-195C385.8,519,396.2,508.7,409,508.7z"/>
</g>
</svg>
