<?xml version="1.0" encoding="utf-8"?>
<!-- Generator: Adobe Illustrator 28.2.0, SVG Export Plug-In . SVG Version: 6.00 Build 0)  -->
<svg version="1.1" id="_레이어_1" xmlns="http://www.w3.org/2000/svg" xmlns:xlink="http://www.w3.org/1999/xlink" x="0px"
	 y="0px" viewBox="0 0 1920 1080" style="enable-background:new 0 0 1920 1080;" xml:space="preserve">
<style type="text/css">
	.st0{fill:#222222;}
	.st1{fill:#2F2F2F;}
</style>
<rect class="st0" width="1920" height="1080"/>
<g>
	<path class="st1" d="M868.7,290h182.7c12.8,0,23.2,10.4,23.2,23.2v172.7c0,12.8-10.4,23.2-23.2,23.2H868.7
		c-12.8,0-23.2-10.4-23.2-23.2V313.2C845.5,300.4,855.8,290,868.7,290z"/>
	<path class="st1" d="M869,548.7h182.3c12.8,0,23.2,10.4,23.2,23.2v195c0,12.8-10.4,23.2-23.2,23.2H869c-12.8,0-23.2-10.4-23.2-23.2
		v-195C845.8,559,856.2,548.7,869,548.7z"/>
</g>
</svg>
