<?xml version="1.0" encoding="utf-8"?>
<!-- Generator: Adobe Illustrator 28.2.0, SVG Export Plug-In . SVG Version: 6.00 Build 0)  -->
<svg version="1.1" id="_레이어_1" xmlns="http://www.w3.org/2000/svg" xmlns:xlink="http://www.w3.org/1999/xlink" x="0px"
	 y="0px" viewBox="0 0 2000 3000" style="enable-background:new 0 0 2000 3000;" xml:space="preserve">
<style type="text/css">
	.st0{fill:#222222;}
	.st1{fill:#2F2F2F;}
</style>
<rect class="st0" width="2000" height="3000"/>
<g>
	<path class="st1" d="M863,1125h274c19.2,0,34.8,15.6,34.8,34.8v259.1c0,19.2-15.6,34.8-34.8,34.8H863c-19.2,0-34.8-15.6-34.8-34.8
		v-259.1C828.2,1140.6,843.8,1125,863,1125z"/>
	<path class="st1" d="M863.4,1513h273.5c19.2,0,34.8,15.6,34.8,34.8v292.5c0,19.2-15.6,34.8-34.8,34.8H863.4
		c-19.2,0-34.8-15.6-34.8-34.8v-292.5C828.7,1528.6,844.2,1513,863.4,1513z"/>
</g>
</svg>
