<?xml version="1.0" encoding="UTF-8"?>
<svg id="_레이어_1" data-name=" 레이어 1" xmlns="http://www.w3.org/2000/svg" viewBox="0 0 66.169 107.825">
  <defs>
    <style>
      .cls-1 {
        fill: #eee;
        stroke-width: 0px;
      }
    </style>
  </defs>
  <g id="_레이어_1-2" data-name=" 레이어 1-2">
    <path class="cls-1" d="M66.133,54.046v48.444c0,3.022-.444,5.333-4.178,5.333s-4.267-2.133-4.267-5.244c.089-14.222-.089-28.444.089-42.667,0-3.289-.8-4.267-4.178-4.267-13.778.178-27.556.178-41.333,0-3.556-.089-4.089,1.244-4,4.356.178,13.956.089,27.822.089,41.778,0,3.111.267,6.133-4.267,6.044C-.089,107.735,0,104.979,0,101.957V5.513C0,2.402.178-.087,4.356.002c3.911.089,4,2.489,4,5.333-.089,12.711,0,25.511-.089,38.222,0,2.756.533,3.822,3.644,3.822,14.044-.178,28.089-.178,42.222,0,3.111,0,3.644-1.156,3.644-3.822-.089-12.444-.089-24.889,0-37.333C57.777,3.291,57.155.091,61.866.002c4.622-.089,4.356,2.844,4.267,5.956v48.089h0Z"/>
  </g>
</svg>