<?xml version="1.0" encoding="UTF-8"?>
<svg id="_레이어_1" data-name=" 레이어 1" xmlns="http://www.w3.org/2000/svg" viewBox="0 0 2832.077 700.223">
  <defs>
    <style>
      .cls-1 {
        fill: #000;
        stroke-width: 0px;
      }
    </style>
  </defs>
  <path class="cls-1" d="M858,670h310L810,51v649h-30V0h35l374,647V0h30v700h-361v-30Z"/>
  <path class="cls-1" d="M2389.077.223v700h-30V.223h30ZM2800.077.223l-336,334,368,366h-43l-368-366L2757.077.223h43Z"/>
  <path class="cls-1" d="M420,700.001h-30v-350H30v350H0V0h30v320h360V0h30v700h0Z"/>
  <path class="cls-1" d="M780,700h-360v-30h360v30Z"/>
  <path class="cls-1" d="M1579,700h-360v-30h360v30Z"/>
  <path class="cls-1" d="M1579,30h-360V0h360v30Z"/>
  <path class="cls-1" d="M1609,700h-30v-350h30v350Z"/>
  <path class="cls-1" d="M1969,700h-360v-30h360v30Z"/>
  <path class="cls-1" d="M1969,30h-360V0h360v30Z"/>
  <path class="cls-1" d="M1969,365h-180v-30h180v30Z"/>
  <path class="cls-1" d="M1609,365h-180v-30h180v30Z"/>
  <path class="cls-1" d="M1999,700.001h-30V0h30v700h0Z"/>
  <path class="cls-1" d="M2359,700h-360v-30h360v30Z"/>
  <path class="cls-1" d="M2359,30h-360V0h360v30Z"/>
  <path class="cls-1" d="M1609,30h-30V0h30v30Z"/>
</svg>