<?xml version="1.0" encoding="UTF-8"?>
<svg id="_레이어_1" data-name=" 레이어 1" xmlns="http://www.w3.org/2000/svg" viewBox="0 0 2832 700.001">
  <defs>
    <style>
      .cls-1 {
        fill: #000;
        stroke-width: 0px;
      }
    </style>
  </defs>
  <path class="cls-1" d="M2832,700h-43l-368-366L2757,0h43l-336,334,368,366ZM2389,0v700H858v-30h310L810,51v649h-420s0-349.999,0-349.999H30v350H0V0h30v320h360V0h30v670h360V0h35l374,647V0h1200ZM1969,30h-750v640h360v-305h-150v-30h180v335h360v-305h-180v-30h180V30ZM2359,30h-360v640h360V30Z"/>
</svg>