<?xml version="1.0" encoding="UTF-8"?>
<svg id="_레이어_1" data-name=" 레이어 1" xmlns="http://www.w3.org/2000/svg" viewBox="0 0 2000 3000">
  <defs>
    <style>
      .cls-1 {
        fill: #e6c300;
      }

      .cls-1, .cls-2 {
        stroke-width: 0px;
      }

      .cls-2 {
        fill: #2d2d2f;
      }
    </style>
  </defs>
  <rect class="cls-1" width="2000" height="3000"/>
  <g>
    <path class="cls-2" d="M729.438,1422.566v10.816c0,58.656.021,117.312.064,175.968,0,5.312-.2,10.18-6.2,12.066-7.58,2.38-13-1.684-13.084-10-.146-16.662-.038-33.326-.038-50,0-56.323-.005-112.645-.016-168.968,0-5.334-1-11.556,6.2-12.76,6.82-1.14,12.758-1.068,17.376,7.06,34.546,60.812,69.738,121.258,104.734,181.814,1.816,3.144,3.682,6.26,5.934,10.088,3.2-3.6,1.968-7.314,1.974-10.564.088-58.653.091-117.309.01-175.966-.012-6.89.186-12.756,9.516-12.812,9.146-.056,9.836,5.426,9.826,12.528-.109,72.32-.084,144.639.076,216.958.034,9.448-3.074,13.02-12.712,12.914-34.988-.384-69.986-.224-104.978-.086-6.8.026-11.862-1.084-12-9.434-.154-9,5.28-10.012,12.468-9.968,28.6.174,57.21.072,87.6.072-35.27-60.976-69.812-120.688-104.352-180.4l-2.398.674Z"/>
    <path class="cls-2" d="M1261.828,1493.24c30.048,21.388,40.066,44.6,32.634,75.182-6.876,28.282-26.862,42.688-53.556,49.046-28.854,6.87-58.346,3.426-87.576,4.04-5.4.114-7.492-3.6-7.646-8.512-.126-4-.02-8-.02-11.986v-208.776c0-12.31.484-12.942,13.11-12.732,24.57.4,49.294-1.916,73.532,4.448,39,10.238,58.284,40.6,49.44,78.102-2.698,11.442-7.578,19.16-19.918,31.188ZM1164.228,1500.538v76.876q0,24.894,24.552,24.902c19.296.026,38.612.566,57.148-6.444,21.094-7.976,31.428-22.042,31.58-43.516.152-21.4-9.984-35.974-30.838-44.2-5.566-2.2-11.338-3.892-16.8-6.292-5.546-2.432-6.098-7.972-1.058-11.334,5.246-3.498,10.968-6.27,16.4-9.504,10.614-6.324,17.228-15.364,18.826-27.854,3.4-26.574-8.886-43.978-36.334-50.932-17.6-4.458-35.6-3.938-53.574-4.31-7.622-.158-10.244,1.536-10.102,9.758.528,30.942.21,61.898.208,92.85h-.008Z"/>
    <path class="cls-2" d="M647.3,1471.152c-.712,25.4,1.65,55.086-3.22,84.568-9.864,59.694-67.108,88.2-120.968,59.906-23.928-12.566-32.342-35.026-37.094-59.626-2.066-11.483-3.055-23.133-2.956-34.8-.2-43.644.014-87.29-.24-130.934-.048-8.342,3.29-11.516,11.352-10.856,7.488.614,7.8,5.578,7.782,11.348-.08,42.978.012,85.958-.068,128.936.007,11.663.998,23.304,2.964,34.8,7.018,41.74,33.07,54.988,72.032,50.4,29.498-3.478,43.7-22.462,47.774-52.178,6.646-48.47,1.2-96.948,3.542-145.342.364-7.536-1.85-9.528-9.366-9.426-31.978.43-63.966.09-95.95.256-7.122.036-12.662-.72-12.462-9.854.2-8.756,5.836-8.936,12.326-8.92,37.648.102,75.298.23,112.944-.086,8.678-.072,11.844,3.032,11.728,11.664-.338,25.3-.12,50.624-.12,80.144Z"/>
    <path class="cls-2" d="M943.188,1500.742c.2,20.636-.582,41.32,4.55,61.612,7.072,27.964,24.6,42.38,53.474,43.278,18.62.58,36.6-1.642,52.078-13.512,9.294-7.13,14.6-15.88,14-28.168-.6-12.636-.4-25.33-.02-37.98.182-5.954-1.362-8.47-7.758-8.026-7.628.528-15.326-.058-22.984.182-6.856.214-10.766-2.08-10.648-9.636.108-6.97,3.646-9.2,10.122-9.116,14,.2,28,.252,41.986-.018,7.306-.142,10.11,2.888,10,10.13-.264,18-.492,36,.012,53.98.6,21.182-8.714,37.27-26.27,47.31-31.478,18-64.83,19.2-97.8,4.41-19.294-8.654-29.366-26.31-33.6-46.104-9.997-45.387-9.945-92.411.15-137.776,7.282-32.28,28.686-51.334,62.248-54.4,49.178-4.502,72.368,9.45,88.642,40.522,5.43,10.37,4.178,12.678-6.524,17.068-4.514,1.852-6.038,1.05-8.152-3.2-16.93-34.072-56.886-47.254-91.424-30.4-15.246,7.438-23.162,20.428-27.29,36.27-5.438,20.898-4.662,42.268-4.792,63.574Z"/>
    <path class="cls-2" d="M1504.074,1493.216c.114,30.4.506,53.382-5.884,75.83-10.134,35.6-31.344,52.94-68.092,55.154-10.305.764-20.665.131-30.8-1.882-24.538-5.186-40.91-19.624-49.788-42.942-4.952-13.104-7.81-26.907-8.466-40.9-1.624-31.938-3.034-63.914,2.574-95.65,8.484-48.02,37.342-71,90.042-66.084,40.414,3.762,61.902,27.418,68.132,71.05,2.508,17.584,2.164,35.208,2.282,45.424ZM1359.136,1499.964c.2,17.962-.6,35.976,2.664,53.786,3.13,17.112,8.676,32.786,24.18,43.046,37.526,24.828,87.698,4.564,95.64-39.372,6.442-35.638,5.342-71.658,1.276-107.472-2.02-17.8-7.648-34.54-23.654-45.5-12.832-8.788-27.372-9.732-42.156-9.092-30.244,1.304-46.38,14.8-53.63,44.012-4.958,19.978-4.088,40.308-4.32,60.592Z"/>
    <path class="cls-2" d="M420,1500.724c0,36.316-.076,72.634.066,108.952.028,6.786-.928,11.904-9.378,11.962-8.388.058-9.616-4.858-9.582-11.764.162-31.986-.14-63.976.228-95.956.084-7.338-1.822-9.672-9.428-9.566-30.982.434-61.976.49-92.954-.034-8.048-.136-9.118,2.784-9.042,9.744.338,31.316.106,62.638.178,93.958.016,6.956.53,13.768-9.648,13.622-9.474-.138-9.174-6.432-9.17-13.11.06-72.301.05-144.603-.03-216.906,0-7.078.496-12.524,9.844-12.308,8.86.2,9.058,5.562,9.03,12.098-.128,28.652.098,57.308-.178,85.96-.06,6.214,1.236,8.63,8.146,8.544,31.648-.391,63.299-.396,94.954-.016,6.906.078,8.288-2.53,8.238-8.672-.23-27.986-.106-55.974-.09-83.962,0-6.6-1.44-13.8,9.158-13.94,10.322-.142,9.712,6.458,9.696,13.44-.085,35.984-.098,71.969-.038,107.954Z"/>
    <path class="cls-2" d="M1705.846,1380.138c3.642.494,8.446-1.964,10.63,2.942,2.458,5.526-2.876,7.6-5.664,10.4-31.8,31.812-63.6,63.632-95.772,95.058-5.388,5.264-5.286,7.8.034,13.014,35.466,34.738,70.582,69.83,105.702,104.918,3.4,3.4,10.526,6.898,4.718,12.674-5.016,5-12.154,3.4-18.284.504-1.65-1.131-3.107-2.518-4.318-4.11-37.089-36.887-74.176-73.776-111.26-110.668-9.328-9.284-9.31-10.464.268-19.986,33.076-32.891,66.137-65.796,99.182-98.716,4.25-4.26,8.318-7.624,14.764-6.03Z"/>
    <path class="cls-2" d="M1581.816,1500.292c0,36.616-.088,73.234.078,109.848.032,7.074-1.614,11.646-9.83,11.496-7.782-.144-9.072-4.7-9.062-11.224.097-73.232.092-146.465-.016-219.698-.012-7.068,1.422-11.544,9.814-11.362,7.898.17,9.108,4.556,9.084,11.094-.137,36.616-.065,73.23-.068,109.846Z"/>
  </g>
</svg>