<?xml version="1.0" encoding="UTF-8"?>
<svg xmlns="http://www.w3.org/2000/svg" xmlns:xlink="http://www.w3.org/1999/xlink" viewBox="0 0 3600.818 2401.738">
  <defs>
    <style>
      .cls-1 {
        fill: #ffc718;
      }

      .cls-1, .cls-2, .cls-3, .cls-4, .cls-5, .cls-6, .cls-7, .cls-8, .cls-9, .cls-10, .cls-11, .cls-12, .cls-13, .cls-14, .cls-15, .cls-16, .cls-17, .cls-18, .cls-19, .cls-20, .cls-21, .cls-22, .cls-23, .cls-24, .cls-25, .cls-26, .cls-27, .cls-28, .cls-29, .cls-30, .cls-31, .cls-32, .cls-33, .cls-34, .cls-35, .cls-36, .cls-37, .cls-38, .cls-39, .cls-40, .cls-41, .cls-42, .cls-43, .cls-44, .cls-45, .cls-46, .cls-47, .cls-48, .cls-49, .cls-50, .cls-51 {
        stroke-linecap: round;
      }

      .cls-1, .cls-2, .cls-3, .cls-4, .cls-6, .cls-7, .cls-8, .cls-9, .cls-10, .cls-13, .cls-14, .cls-16, .cls-17, .cls-18, .cls-19, .cls-20, .cls-22, .cls-24, .cls-25, .cls-27, .cls-28, .cls-29, .cls-30, .cls-33, .cls-34, .cls-37, .cls-38, .cls-39, .cls-40, .cls-41, .cls-43, .cls-44, .cls-45, .cls-49, .cls-50, .cls-51 {
        stroke: #000;
      }

      .cls-1, .cls-2, .cls-3, .cls-4, .cls-6, .cls-7, .cls-8, .cls-9, .cls-10, .cls-13, .cls-14, .cls-16, .cls-17, .cls-18, .cls-20, .cls-27, .cls-30, .cls-31, .cls-33, .cls-34, .cls-36, .cls-38, .cls-40, .cls-41, .cls-42, .cls-43, .cls-45, .cls-50 {
        stroke-width: 2.865px;
      }

      .cls-1, .cls-4, .cls-52, .cls-10, .cls-53, .cls-11, .cls-18, .cls-54, .cls-30, .cls-33, .cls-39, .cls-45, .cls-48, .cls-55 {
        stroke-miterlimit: 5.296;
      }

      .cls-2, .cls-3, .cls-6, .cls-7, .cls-8, .cls-9, .cls-12, .cls-13, .cls-14, .cls-15, .cls-16, .cls-17, .cls-19, .cls-20, .cls-21, .cls-22, .cls-23, .cls-24, .cls-25, .cls-27, .cls-28, .cls-29, .cls-31, .cls-32, .cls-34, .cls-35, .cls-36, .cls-37, .cls-56, .cls-38, .cls-40, .cls-41, .cls-42, .cls-43, .cls-44, .cls-46, .cls-47, .cls-49, .cls-50, .cls-51 {
        stroke-linejoin: round;
      }

      .cls-2, .cls-11, .cls-57 {
        fill: #012169;
      }

      .cls-3 {
        fill: #940010;
      }

      .cls-4 {
        fill: #fec717;
      }

      .cls-52, .cls-6, .cls-58 {
        fill: #fef600;
      }

      .cls-52, .cls-15 {
        stroke-width: 1.907px;
      }

      .cls-52, .cls-32, .cls-35, .cls-56, .cls-46 {
        stroke: #694a02;
      }

      .cls-5 {
        fill: #424242;
        stroke: #424242;
      }

      .cls-5, .cls-26 {
        stroke-width: .347px;
      }

      .cls-7, .cls-59 {
        fill: #ef1818;
      }

      .cls-60, .cls-61, .cls-62, .cls-63, .cls-64, .cls-65, .cls-66, .cls-67, .cls-68, .cls-69, .cls-70, .cls-71, .cls-72, .cls-73, .cls-74, .cls-75, .cls-76, .cls-58, .cls-77, .cls-78, .cls-79, .cls-59, .cls-80, .cls-81, .cls-82, .cls-83, .cls-84, .cls-85, .cls-86, .cls-87, .cls-88, .cls-89, .cls-57, .cls-90 {
        stroke-width: 0px;
      }

      .cls-60, .cls-48 {
        fill: #003994;
      }

      .cls-91, .cls-92 {
        stroke-width: 1.295px;
      }

      .cls-91, .cls-92, .cls-93, .cls-94 {
        stroke-miterlimit: 10;
      }

      .cls-91, .cls-93 {
        stroke: #c8102e;
      }

      .cls-61 {
        fill: url(#_무제_그라디언트_43);
      }

      .cls-62 {
        fill: #936100;
      }

      .cls-8 {
        fill: #ffc918;
      }

      .cls-9, .cls-53, .cls-54, .cls-72, .cls-24 {
        fill: #fff;
      }

      .cls-10 {
        fill: #f01818;
      }

      .cls-53, .cls-54 {
        stroke: #847b7b;
      }

      .cls-53, .cls-55 {
        stroke-width: 4.481px;
      }

      .cls-63 {
        fill: url(#_무제_그라디언트_46);
      }

      .cls-63, .cls-28, .cls-29, .cls-85, .cls-49, .cls-51 {
        isolation: isolate;
        opacity: .99;
      }

      .cls-11 {
        stroke: #012169;
      }

      .cls-11, .cls-21, .cls-48 {
        stroke-width: .958px;
      }

      .cls-64 {
        fill: #797979;
      }

      .cls-12 {
        stroke: #a5d371;
      }

      .cls-12, .cls-15, .cls-67, .cls-18, .cls-23, .cls-25, .cls-27, .cls-31, .cls-37, .cls-42, .cls-44, .cls-46, .cls-47, .cls-49 {
        fill: none;
      }

      .cls-12, .cls-44 {
        stroke-width: 5.248px;
      }

      .cls-13 {
        fill: #01640b;
      }

      .cls-65 {
        fill: #ca1214;
      }

      .cls-92, .cls-94 {
        stroke: #fff;
      }

      .cls-14 {
        fill: url(#_무제_그라디언트_42);
      }

      .cls-15 {
        stroke: #878383;
      }

      .cls-66 {
        fill: url(#_무제_그라디언트_48);
      }

      .cls-17 {
        fill: #008c8d;
      }

      .cls-68 {
        fill: #00c0dd;
      }

      .cls-54 {
        stroke-width: 4.471px;
      }

      .cls-69 {
        fill: url(#_무제_그라디언트_40);
      }

      .cls-70 {
        fill: #494949;
      }

      .cls-71 {
        fill: #efad10;
      }

      .cls-93 {
        stroke-width: .863px;
      }

      .cls-19 {
        stroke-width: .483px;
      }

      .cls-73, .cls-32, .cls-35, .cls-56 {
        fill: #fff700;
      }

      .cls-20 {
        fill: url(#_무제_그라디언트_44);
      }

      .cls-21 {
        stroke: #008e8e;
      }

      .cls-21, .cls-22 {
        fill: #008e8e;
      }

      .cls-22 {
        stroke-width: 4.771px;
      }

      .cls-74 {
        fill: url(#_무제_그라디언트_45);
      }

      .cls-23 {
        stroke: #ffb400;
        stroke-width: 3.813px;
      }

      .cls-24, .cls-25 {
        stroke-width: 3.474px;
      }

      .cls-26 {
        fill: #949494;
        stroke: #949494;
      }

      .cls-28 {
        stroke-width: .049px;
      }

      .cls-28, .cls-39 {
        fill: #020200;
      }

      .cls-75 {
        fill: url(#_무제_그라디언트_41);
      }

      .cls-76 {
        fill: #00247d;
      }

      .cls-76, .cls-81, .cls-89 {
        fill-rule: evenodd;
      }

      .cls-29 {
        stroke-width: 4.982px;
      }

      .cls-94 {
        stroke-width: 2.158px;
      }

      .cls-77, .cls-89 {
        fill: #eee;
      }

      .cls-30, .cls-80 {
        fill: #ffc618;
      }

      .cls-95 {
        clip-path: url(#clippath);
      }

      .cls-78 {
        fill: #d6f7ff;
      }

      .cls-31 {
        stroke: #959595;
      }

      .cls-32 {
        stroke-width: 6.673px;
      }

      .cls-33 {
        fill: #ee1d17;
      }

      .cls-34 {
        fill: #ffca18;
      }

      .cls-35 {
        stroke-width: 4.767px;
      }

      .cls-36 {
        fill: #5a5a5a;
      }

      .cls-36, .cls-42 {
        stroke: #5a5a5a;
      }

      .cls-37 {
        stroke-width: 6.201px;
      }

      .cls-79, .cls-81 {
        fill: #cf1b2b;
      }

      .cls-56, .cls-46 {
        stroke-width: 2.383px;
      }

      .cls-38 {
        fill: url(#_무제_그라디언트_50);
      }

      .cls-39 {
        stroke-width: 1.912px;
      }

      .cls-40 {
        fill: #fff231;
      }

      .cls-41 {
        fill: #adeff7;
      }

      .cls-82 {
        fill: #ceefef;
      }

      .cls-43 {
        fill: url(#_무제_그라디언트_42-2);
      }

      .cls-83 {
        fill: #ebb927;
      }

      .cls-84 {
        fill: #02bed7;
      }

      .cls-45 {
        fill: #fec617;
      }

      .cls-47 {
        stroke: #ffe600;
        stroke-width: 7.627px;
      }

      .cls-85 {
        fill: url(#_무제_그라디언트_49);
      }

      .cls-48 {
        stroke: #003994;
      }

      .cls-55 {
        fill: #fff6c7;
        stroke: #514b4b;
      }

      .cls-86 {
        fill: #de1010;
      }

      .cls-87 {
        fill: url(#_무제_그라디언트_40-2);
      }

      .cls-88 {
        fill: #a5e7e7;
      }

      .cls-49, .cls-51 {
        stroke-width: 4.967px;
      }

      .cls-50 {
        fill: url(#_무제_그라디언트_42-3);
      }

      .cls-90 {
        fill: #adadad;
      }
    </style>
    <linearGradient id="_무제_그라디언트_50" data-name="무제 그라디언트 50" x1="2058.159" y1="1224.657" x2="2078.46" y2="1244.226" gradientTransform="translate(67.786 2686.512) scale(1.324 -1.324)" gradientUnits="userSpaceOnUse">
      <stop offset="0" stop-color="#de1010"/>
      <stop offset="1" stop-color="#8e1116"/>
    </linearGradient>
    <linearGradient id="_무제_그라디언트_49" data-name="무제 그라디언트 49" x1="1642.905" y1="777.74" x2="1689.288" y2="777.74" gradientTransform="translate(333.051 2733.166) scale(1.22 -1.34)" gradientUnits="userSpaceOnUse">
      <stop offset="0" stop-color="#5a2118"/>
      <stop offset="1" stop-color="#bb1e1e"/>
    </linearGradient>
    <linearGradient id="_무제_그라디언트_48" data-name="무제 그라디언트 48" x1="1843.909" y1="640.84" x2="2112.322" y2="703.843" gradientTransform="translate(-92.081 2577.203) scale(1.324 -1.324)" gradientUnits="userSpaceOnUse">
      <stop offset="0" stop-color="#fff231"/>
      <stop offset="1" stop-color="#fff"/>
    </linearGradient>
    <linearGradient id="_무제_그라디언트_46" data-name="무제 그라디언트 46" x1="2108.959" y1="791.935" x2="2158.826" y2="791.935" gradientTransform="translate(153.837 2745.693) scale(1.364 -1.352)" gradientUnits="userSpaceOnUse">
      <stop offset="0" stop-color="#5d241b"/>
      <stop offset="1" stop-color="#ba1d1d"/>
    </linearGradient>
    <linearGradient id="_무제_그라디언트_45" data-name="무제 그라디언트 45" x1="2148.882" y1="673.051" x2="2318.434" y2="661.487" gradientTransform="translate(-92.081 2577.203) scale(1.324 -1.324)" gradientUnits="userSpaceOnUse">
      <stop offset="0" stop-color="#fff"/>
      <stop offset="1" stop-color="#fff231"/>
    </linearGradient>
    <linearGradient id="_무제_그라디언트_44" data-name="무제 그라디언트 44" x1="2179.54" y1="1120.393" x2="2193.447" y2="1100.14" gradientTransform="translate(67.786 2686.512) scale(1.324 -1.324)" gradientUnits="userSpaceOnUse">
      <stop offset="0" stop-color="#000"/>
      <stop offset="1" stop-color="#fff"/>
    </linearGradient>
    <linearGradient id="_무제_그라디언트_43" data-name="무제 그라디언트 43" x1="1819.948" y1="1016.671" x2="1860.699" y2="997.503" gradientTransform="translate(-90.252 2721.176) scale(1.324 -1.324)" gradientUnits="userSpaceOnUse">
      <stop offset="0" stop-color="#e5aa12"/>
      <stop offset="1" stop-color="#ffc718" stop-opacity="0"/>
    </linearGradient>
    <linearGradient id="_무제_그라디언트_42" data-name="무제 그라디언트 42" x1="2327.551" y1="1396.414" x2="2347.265" y2="1388.201" gradientTransform="translate(-462.696 2666.625) scale(1.324 -1.324)" gradientUnits="userSpaceOnUse">
      <stop offset="0" stop-color="#003994"/>
      <stop offset="1" stop-color="#012169"/>
    </linearGradient>
    <linearGradient id="_무제_그라디언트_42-2" data-name="무제 그라디언트 42" x1="2392.768" y1="1400.351" x2="2412.932" y2="1389.776" xlink:href="#_무제_그라디언트_42"/>
    <linearGradient id="_무제_그라디언트_42-3" data-name="무제 그라디언트 42" x1="2458.993" y1="1386.208" x2="2477.088" y2="1378.837" xlink:href="#_무제_그라디언트_42"/>
    <clipPath id="clippath">
      <rect class="cls-67" x="2668.793" y="591.12" width="362.593" height="168.347" transform="translate(-10.422 45.607) rotate(-.915)"/>
    </clipPath>
    <linearGradient id="_무제_그라디언트_41" data-name="무제 그라디언트 41" x1="1984.215" y1="1651.502" x2="1984.215" y2="1612.245" gradientTransform="translate(-14.825 2814.346) scale(1.324 -1.324)" gradientUnits="userSpaceOnUse">
      <stop offset="0" stop-color="#ba9117"/>
      <stop offset=".5" stop-color="#7f670c"/>
      <stop offset="1" stop-color="#ffce18"/>
    </linearGradient>
    <linearGradient id="_무제_그라디언트_40" data-name="무제 그라디언트 40" x1="2084.09" y1="1605.489" x2="2084.09" y2="1531.981" gradientTransform="translate(-204.631 2862.406) scale(1.395 -1.398)" gradientUnits="userSpaceOnUse">
      <stop offset="0" stop-color="#caa11c"/>
      <stop offset="1" stop-color="#ffce18"/>
    </linearGradient>
    <linearGradient id="_무제_그라디언트_40-2" data-name="무제 그라디언트 40" x1="2164.1" y1="1609.182" x2="2164.1" y2="1535.674" gradientTransform="translate(-71.717 2539.523) scale(1.324 -1.176)" xlink:href="#_무제_그라디언트_40"/>
  </defs>
  <g id="background">
    <path id="gb-aq" class="cls-89" d="M400,.1h2800c220,0,400,180,400,400v1600c0,220-180,400-400,400H400C180,2400.1,0,2220.1,0,2000.1V400.1C0,180.1,180,.1,400,.1Z"/>
  </g>
  <g id="country">
    <g id="gb-aq-2" data-name="gb-aq">
      <g>
        <path class="cls-38" d="M2749.328,1044.186c15.09,6.039,31.294,7.061,42.132,32.231l53.929.843-9.48-38.129-47.188-13.061-39.393,18.117Z"/>
        <path class="cls-72" d="M3262.764,1660.016l.843,32.02h-5.898l-.843,8.426h-26.122v4.213h-10.112v5.898l-6.694-.843.074,21.14-5.177-.917v5.898h-8.426v3.371l-25.279-1.685v6.741h-10.954v23.594l-165.157-.843-.843,10.954-8.426-.843v5.056h-13.482v-6.741l-28.65-.843v7.584h-6.741l-1.685,9.269-46.345.843-15.167,14.325-6.741-7.584-18.538.843-1.685-5.056-15.167-.843-12.64,12.64h-21.909l-4.213-6.741-19.381,16.853h-8.426l-6.425-2.107h-18.801l-.263-2.897-36.865-.685-.843-177.165,556.984,26.121Z"/>
        <path class="cls-78" d="M2843.135,1756.035l4.368-.297,4.027-.783,14.356-2.922v47.504l-12.522.331-5.446-5.041-4.574.392-.211-39.183Z"/>
        <path class="cls-84" d="M2769.188,1753.549c7.907,2.681,15.915,4.037,23.285,13.693l.309,36.023-15.56,13.165-8.034.318v-63.198Z"/>
        <path class="cls-27" d="M2795.731,1746.597c40.418,24.925,48.191,3.1,80.893,6.32"/>
        <g>
          <path class="cls-84" d="M2817.219,1755.866l12.008-9.901,11.586,9.901v37.919l-4.634-.421-11.553,12.686-7.406,1.007v-51.19Z"/>
          <path class="cls-84" d="M2873.676,1748.282h20.434v43.607l-6.32,5.267-10.112,9.269-4.002-3.16v-54.982Z"/>
          <path class="cls-84" d="M2928.026,1737.117h27.175v37.708l-7.73-.135-.485,7.087-5.802-.092-1.993,9.782h-11.165v-54.351Z"/>
        </g>
        <path class="cls-27" d="M2746.226,1757.551c17.441-5.318,26.504-9.149,48.452,10.006"/>
        <g>
          <path class="cls-84" d="M3092.104,1722.529h39.323v44.688h-39.323v-44.688Z"/>
          <path class="cls-84" d="M3162.707,1682.608h30.988v56.306l-17.904-.946-.833,6.461-10.381.145-1.87,10.427v-72.394Z"/>
          <path class="cls-84" d="M3213.055,1668.01h23.839v32.771l-5.511-.596-.499,4.732-10.072-.542-.008,5.046h-7.749v-41.411Z"/>
        </g>
        <path class="cls-78" d="M2899.591,1733.705h22.33v57.299h-22.33v-57.299Z"/>
        <path class="cls-27" d="M3262.764,1660.016v32.02h-5.056l-.843,8.426h-26.122v4.213h-10.112v5.898l-5.056-.843v21.066l-6.741-.843v5.898h-8.426v3.371l-25.279-1.685v6.741h-10.954v23.594l-165.157-.843-.843,10.954-8.426-.843v5.056h-13.482v-6.741l-28.65-.843v7.584h-6.741l-1.685,9.269-46.345.843-15.167,14.325-6.741-7.584-18.538.843-1.685-5.056-15.167-.843-12.64,12.64h-21.909l-4.213-6.741-19.381,16.853h-8.426l-6.741-2.107h-18.538l-.211-2.949-37.076-.421-.632-177.376,556.984,26.121Z"/>
        <path class="cls-41" d="M2894.583,1516.654l23.238,1.192,1.788,6.554,14.3-1.788,4.767,15.492,11.023,6.852,25.323.298.596,7.15,24.429-1.192.596,5.958h13.704l.596,9.533,9.533,3.575h23.238l123.934,36.942,5.363,11.321h19.067l4.171,4.767h14.896l7.746,5.958,5.958,3.575,9.533-1.192,1.192,7.746,13.108-2.979,2.383,7.15,7.884-1.192-.138,23.833-26.813.596-1.192,4.171h-14.896v4.767h-8.342v14.3l-32.771.596.596,3.575h-12.513v16.683l-4.767-1.788v14.3l-26.217-1.192-.596,6.554-32.175.596-376.568-42.304c-66.188-113.828,106.888-116,168.026-170.409Z"/>
        <path class="cls-72" d="M2759.328,1619.138c161.146-2.023,199.952.891,252.039,74.479l-292.555-26.813-4.171-35.154,44.688-12.513Z"/>
        <path class="cls-78" d="M2907.99,1564.618c-7.267.504-51.207,33.581-39.921,33.367,71.149-1.349,108.864-8.846,97.717-1.192-59.061,40.555,29.251,22.956,44.39,30.686-15.602,9.732-3.836,10.522,16.088,17.875l89.375,52.434c27.663,1.851,39.221-11.615,41.709-25.025,18.573,11.237,15.154,2.848,69.415-16.683,10.851-3.906-23.876-26.964-31.281-9.831-7.384,17.082-13.275-19.727-47.667.596l-18.471-44.39-86.087-30.747-18.668.006c-45.284,33.255-28.344-13.211-116.598-7.094Z"/>
        <g>
          <path class="cls-34" d="M2200.793,1710.502c5.741,18.713,2.656,35.091,43.845,32.873,8.255,10.916,9.822,30.75,27.059,29.69h29.792c8.039,10.338,16.08,20.671,27.408,24.429,6.029-1.693,9.846-6.336,12.513-12.513l3.575,7.15,128.105-.596,28.6,5.363c26.415,18.904,52.866,17.743,79.246,14.3,11.158-1.456,22.244-1.711,33.367-1.192,13.191,10.917,27.703,15.178,46.475,1.541,13.425,9.062,28.488,8.845,45.284-1.192l2.262-14.078,8.172-8.115-.026-13.31-34.838-38.729-480.84-25.621Z"/>
          <path class="cls-27" d="M2200.793,1710.502c5.741,18.713,2.656,35.091,43.845,32.873,8.255,10.916,9.822,30.75,27.059,29.69h29.792c8.039,10.338,16.08,20.671,27.408,24.429,6.029-1.693,9.846-6.336,12.513-12.513l3.575,7.15,128.105-.596,28.6,5.363c26.415,18.904,52.866,17.743,79.246,14.3,11.158-1.456,22.244-1.711,33.367-1.192,13.191,10.917,27.703,15.178,46.475,1.541,13.425,9.062,28.488,8.845,45.284-1.192l2.262-14.078,8.172-8.115-.026-13.31-34.838-38.729-480.839-25.621Z"/>
          <path class="cls-13" d="M2543.636,1531.55l-66.138-1.788-106.059,31.579,2.979,27.408c-10.71-9.028-22.26-13.017-34.558-12.513,7.533,7.349,9.137,14.697,7.15,22.046-13.506-12.363-27.011-11.915-40.517-11.917,12.476,8.143,19.091,16.286,22.046,24.429-14.411-7.786-29.884-10.266-45.879-10.129,6.364,5.555,13.67,10.483,15.492,19.067-9.136-5.876-18.272-6.439-27.408-7.746l2.979,20.258-63.159,32.771c-11.802,2.016-24.024,3.194-32.771,11.321,12.381,16.312,26.66,29.372,50.05,26.813-2.949,4.952-10.577,8.149-26.217,8.342,11.932,11.472,27.561,19.556,58.392,13.704-.19,3.178-4.799,6.356-11.321,9.533,26.034,14.655,37.282,6.311,49.454-.596l-5.958,16.088,66.734-2.979,159.088,11.917,31.579,13.704h84.013c5.164,5.347,10.328,4.154,15.492,0,10.15-4.219,21.648-5.067,33.367-5.363,13.345,2.217,24.683,5.371,34.261,8.342v-134.659l-173.09-109.634Z"/>
        </g>
        <path class="cls-44" d="M3071.974,1637.368c106.355,3.598,12.789,129.622,8.342,149.121-79.281-5.402-136.227-71.846-367.816-69.119"/>
        <g>
          <path class="cls-62" d="M2253.822,1736.123h20.854v37.24c-6.552,1.171-12.166-1.175-17.13-5.958l-3.724-6.703v-24.578Z"/>
          <path class="cls-62" d="M2294.786,1747.741h18.024v39.176l-11.768-14.002-6.256.298v-25.472Z"/>
          <path class="cls-62" d="M2341.571,1748.838l33.801-.948v44.688h-29.494l-4.171-6.107-.137-37.632Z"/>
          <path class="cls-62" d="M2458.285,1752.98l74.363,5.267v52.665c-11.037-3.069-21.545-7.725-31.458-14.165l-20.364-3.741-22.751-1.896.21-38.129Z"/>
          <path class="cls-62" d="M2575.303,1768.78h28.762v41.079h-12.893l-15.869,2.212v-43.291Z"/>
          <path class="cls-62" d="M2643.033,1765.205h23.594v49.394l-5.793-2.955-17.853,8.163.053-54.602Z"/>
          <path class="cls-62" d="M2682.427,1763.935h34.127v22.962l-9.058,11.481-1.264,11.902-23.699,8.005-.105-54.35Z"/>
        </g>
        <g>
          <g>
            <path class="cls-44" d="M2711.628,1717.339c-141.939,1.701-190.362,76.007-334.264,75.816-90.195-101.373-60.055-140.884-1.438-141.52"/>
            <path class="cls-44" d="M2306.929,1655.253c.84,6.354,7.788,5.221,8.342,12.513"/>
            <path class="cls-44" d="M2311.695,1647.06c10.715,2.509,27.979-6.988,30.239,11.023"/>
            <path class="cls-44" d="M2331.656,1623.227c10.427-1.737,17.577,11.412,31.281,11.023"/>
            <path class="cls-44" d="M2352.361,1609.224c12.989-2.478,21.69,4.476,28.749,15.045-2.727-6.497-2.381-14.838-8.64-19.216"/>
            <path class="cls-44" d="M2399.581,1595.222c10.429,6.732,14.872,15.514,17.13,24.727"/>
            <path class="cls-44" d="M2433.246,1594.031c7.144,5.837,5,16.319,5.511,25.472"/>
            <path class="cls-44" d="M2470.486,1609.075l11.023,9.831"/>
            <path class="cls-44" d="M2446.354,1661.211c4.497-.026,24.859-2.143,24.727,4.767"/>
            <path class="cls-44" d="M2466.464,1646.539c10.72-.59,21.754-.923,23.61,10.725"/>
            <path class="cls-44" d="M2503.555,1637.378c4.99,1.137,9.558,3.023,11.023,10.427"/>
            <path class="cls-44" d="M2536.325,1636.484c-.596,5.065,3.178,7.15,11.321,6.256"/>
            <path class="cls-44" d="M2565.224,1642.144c4.953,1.855,9.779,3.901,11.619,10.427"/>
            <path class="cls-44" d="M2585.184,1626.95c-.208,6.167,4.568,6.64,9.831,6.554"/>
          </g>
          <g>
            <path class="cls-12" d="M2245.855,1699.345c15.821-.403,31.75-.902,44.092,1.788"/>
            <path class="cls-12" d="M2294.118,1680.278c.519,7.795,10.275,8.848,9.384,14.747"/>
            <path class="cls-12" d="M2322.569,1632.462c.397,2.427-3.441,5.342,15.954,7.756,3.042.379,12.056,2.821,16.668,10.864"/>
            <path class="cls-12" d="M2342.083,1614.14c10.097-.606,28.869,9.204,29.494,14.896"/>
            <path class="cls-12" d="M2385.579,1596.861c10.046,4.663,4.891,20.728,10.427,31.728"/>
            <path class="cls-12" d="M2418.499,1590.009c16.227,14.473,8.764,41.847,4.171,38.282"/>
            <path class="cls-12" d="M2446.801,1598.35c5.579,9.836,4.047,17.894,5.363,26.664"/>
            <path class="cls-12" d="M2445.907,1637.08c11.844.463,5.385,6.688,16.832,6.107"/>
            <path class="cls-12" d="M2426.543,1647.06c.603,6.046,12.672,4.798,19.365,5.214"/>
            <path class="cls-12" d="M2455.143,1679.682c7.871.736,15.589,1.523,25.77,1.49"/>
            <path class="cls-12" d="M2483.892,1665.531c8.296.895,22.354-1.205,21.748,4.32"/>
            <path class="cls-12" d="M2508.321,1651.38c-.475,8.371,12.5,8.218,15.194,15.492"/>
            <path class="cls-12" d="M2532.155,1651.678c-.276,8.171,5.877-1.409,10.129,5.958"/>
            <path class="cls-12" d="M2474.359,1603.415l7.448,6.852"/>
            <path class="cls-12" d="M2490.148,1590.009c6.705,12.252,17.363,23.288,29.196,33.963"/>
            <path class="cls-12" d="M2527.984,1570.942c9.275,13.828,20.846,42.224,8.64,43.198"/>
            <path class="cls-12" d="M2565.521,1574.368c1.934,3.035.611,25.619-.596,25.77"/>
            <path class="cls-12" d="M2604.549,1619.205c5.108-1.659,9.17-5.605,9.533-10.427"/>
            <path class="cls-12" d="M2603.953,1628.142c-.501,5.797,4.421,6.773,11.023,6.256"/>
            <path class="cls-12" d="M2590.398,1597.903c.488,12.371-5.562,11.713-5.065,21.748"/>
          </g>
          <g>
            <path class="cls-44" d="M2499.086,1590.307c31.702,2.034,26.988-12.869,33.814,4.618"/>
            <path class="cls-44" d="M2547.646,1560.962c8.093-1.539,4.21,14.887,5.214,23.982-4.463-6.808-8.248-14.295-15.343-18.471"/>
            <path class="cls-44" d="M2265.505,1727.806c5.363-6.513,18.306-2.215,19.802-8.426"/>
            <path class="cls-44" d="M2288.889,1737.707c6.085.654,10.593-.124,10.533-5.056"/>
            <path class="cls-44" d="M2587.183,1752.664c5.567-.664,12.219-3.062,12.429,4.845l.421-22.751"/>
            <path class="cls-44" d="M2608.67,1747.187c7.209-.663,15.905,5.992,20.757,4.84,3.203-.76,4.73-5.991,3.048-15.163"/>
            <path class="cls-44" d="M2647.642,1737.707c9.9,7.588,14.671,2.209,19.381,10.533"/>
            <path class="cls-44" d="M2689.564,1737.497c5.923-1.987,8.05.092,6.109,6.53"/>
            <path class="cls-44" d="M2699.043,1730.966l6.741,1.896"/>
          </g>
          <g>
            <path class="cls-12" d="M2603.614,1751.821c4.184-1.083,1.642,6.099,11.586,7.373"/>
            <path class="cls-12" d="M2637.741,1739.814c6.013,1.525,2.144,18.52,9.69,17.695"/>
            <path class="cls-12" d="M2670.815,1738.129c.416,7.009-1.417,16.909,2.528,19.381"/>
            <path class="cls-12" d="M2699.465,1746.555c.223,4.865-1.756,11.734,4.213,11.376"/>
          </g>
        </g>
        <path class="cls-22" d="M3121.113,1606.828c-14.05,9.593-25.97,20.605-36.655,32.442l20.223,15.378c12.774-14.883,21.882-28.346,36.854-45.73.654-.759-5.713-.791-4.524-2.27l-35.68,45.69,15.778,13.897,46.345-64.672c-8.561,24.457-34.67,49.158-6.109,73.099-2.974-37.902,15.008-42.262,17.274-72.888l-53.508,5.056Z"/>
        <g>
          <path class="cls-85" d="M2414.332,1690.662c0,20.238-17.206,36.644-38.431,36.644s-38.431-16.406-38.431-36.644,17.206-36.644,38.431-36.644,38.431,16.406,38.431,36.644Z"/>
          <path class="cls-40" d="M2375.603,1662.062c45.932.859,24.604,40.427-14.3,28.302l14.002,38.133,39.623-4.469c9.861-7.678,31.938-80.179-39.623-76.267"/>
          <path class="cls-66" d="M2375.603,1647.762c3.502,6.514,3.531,10.548,0,14.3-46.432,1.071-46.458,57.79.596,63.159,37.843,4.317,181.704-78.21,331.881-82.225.75,16.839,1.826,41.66,3.226,70.471-141.939,1.701-190.362,76.007-334.264,75.816-90.195-101.373-60.055-140.884-1.438-141.52h0Z"/>
          <path class="cls-63" d="M3109.971,1675.17c0,20.073-18.073,36.346-40.368,36.346s-40.368-16.273-40.368-36.346,18.073-36.346,40.368-36.346,40.368,16.273,40.368,36.346Z"/>
          <path class="cls-40" d="M3071.241,1647.78c-36.781-1.403-53.888,35.073,8.938,41.113l-8.938,29.476-52.731-20.854c-9.153-38.219-6.517-67.353,52.592-64.042"/>
          <path class="cls-74" d="M3070.943,1647.762c-4.409-3.712-3.73-10.199,0-14.3,106.355,3.598,12.789,129.622,8.342,149.121-79.281-5.402-137.567-72.441-369.157-69.715-.715-25.919-.915-36.136-2.496-69.877,197.87-5.253,356.761,66.016,369.865,66.142,24.165.232,43.537-60.455-6.554-61.371Z"/>
          <path class="cls-67" d="M2381.276,1789.081c79.337,1.43,217.593-74.693,292.814-85.949"/>
          <path class="cls-65" d="M2393.375,1776.835l-.39-40.866,14.685-.773c2.952-.155,5.2.094,6.743.747,1.543.653,2.783,1.885,3.72,3.695.937,1.81,1.415,3.839,1.437,6.088.028,2.899-.71,5.383-2.212,7.451-1.502,2.069-3.84,3.456-7.013,4.162,1.166.627,2.054,1.259,2.663,1.896,1.294,1.382,2.524,3.13,3.689,5.244l5.867,10.82-5.513.29-4.464-8.272c-1.304-2.386-2.376-4.207-3.217-5.465-.841-1.257-1.591-2.129-2.251-2.615s-1.33-.813-2.01-.982c-.498-.104-1.312-.126-2.442-.067l-5.083.267.173,18.147-4.383.23ZM2397.54,1753.774l9.421-.496c2.003-.105,3.567-.443,4.692-1.014,1.125-.571,1.975-1.433,2.552-2.589.577-1.155.859-2.393.846-3.712-.018-1.933-.602-3.492-1.751-4.677s-2.951-1.713-5.406-1.584l-10.483.552.129,13.52ZM2426.805,1773.752l-5.112-40.199,23.663-5.464.603,4.744-19.332,4.464,1.566,12.312,18.105-4.18.6,4.716-18.105,4.18,1.74,13.683,20.091-4.639.603,4.744-24.422,5.639ZM2453.398,1753.967l3.955-1.706c.555,1.921,1.297,3.407,2.229,4.456.931,1.049,2.203,1.734,3.817,2.054,1.613.32,3.338.189,5.176-.39,1.631-.515,3.017-1.267,4.157-2.256,1.14-.989,1.92-2.097,2.34-3.326s.517-2.455.293-3.68c-.228-1.243-.721-2.235-1.479-2.977-.758-.742-1.871-1.215-3.339-1.419-.943-.141-2.979-.179-6.108-.116s-5.36-.104-6.692-.503c-1.725-.504-3.1-1.37-4.127-2.599-1.026-1.229-1.706-2.753-2.04-4.573-.367-1.999-.247-4.014.36-6.045.607-2.03,1.717-3.777,3.33-5.239,1.613-1.462,3.507-2.536,5.682-3.223,2.395-.756,4.595-.95,6.598-.582s3.666,1.315,4.987,2.842,2.233,3.44,2.732,5.74l-4.031,1.673c-.68-2.434-1.773-4.09-3.279-4.968-1.506-.877-3.501-.924-5.984-.14-2.587.817-4.365,1.993-5.334,3.528s-1.304,3.123-1.004,4.762c.261,1.423.895,2.462,1.901,3.116.992.659,3.313.922,6.966.788,3.652-.134,6.191-.044,7.617.268,2.076.469,3.712,1.377,4.907,2.724,1.196,1.347,1.988,3.084,2.379,5.209.387,2.108.259,4.249-.384,6.424-.643,2.175-1.791,4.072-3.445,5.69-1.654,1.618-3.635,2.791-5.942,3.52-2.924.923-5.471,1.175-7.639.754s-4.007-1.503-5.516-3.247c-1.509-1.744-2.536-3.93-3.081-6.559h0ZM2487.383,1756.425l-8.346-39.247,23.178-8.331.985,4.632-18.936,6.806,2.556,12.021,17.733-6.374.979,4.605-17.733,6.374,2.841,13.359,19.679-7.073.985,4.631-23.921,8.598ZM2513.673,1746.88l3.551-43.711,4.556-1.708,21.799,34.206-4.817,1.806-6.369-10.447-13.362,5.01-.868,13.161-4.49,1.684ZM2519.312,1727.363l10.833-4.062-5.75-9.581c-1.751-2.909-3.109-5.329-4.075-7.26.152,2.66.134,5.365-.056,8.115l-.951,12.787ZM2547.06,1734.275l-8.417-39.222,14.204-5.147c2.855-1.035,5.102-1.469,6.739-1.303,1.637.166,3.091.98,4.363,2.442,1.272,1.462,2.139,3.272,2.602,5.43.597,2.783.365,5.395-.697,7.836-1.062,2.442-3.074,4.478-6.037,6.109,1.263.253,2.255.596,2.976,1.026,1.537.942,3.083,2.256,4.638,3.942l7.863,8.656-5.332,1.932-5.991-6.624c-1.744-1.906-3.15-3.338-4.219-4.296s-1.974-1.572-2.715-1.842-1.46-.384-2.158-.343c-.508.049-1.308.272-2.4.668l-4.917,1.782,3.738,17.417-4.239,1.536ZM2546.598,1710.827l9.113-3.302c1.938-.702,3.4-1.496,4.387-2.383s1.649-1.972,1.986-3.257c.336-1.285.369-2.561.097-3.827-.398-1.855-1.275-3.181-2.632-3.977-1.356-.796-3.222-.764-5.597.096l-10.14,3.674,2.785,12.976ZM2599.952,1701.55l4.519.014c-.133,4.588-1.166,8.372-3.097,11.351s-4.583,4.986-7.953,6.018c-3.488,1.069-6.48,1.067-8.974-.005s-4.605-3.084-6.331-6.037c-1.726-2.953-2.925-6.324-3.597-10.114-.733-4.132-.728-7.934.015-11.406.742-3.471,2.161-6.37,4.255-8.695,2.094-2.325,4.569-3.925,7.424-4.8,3.238-.992,6.14-.816,8.707.529s4.608,3.716,6.126,7.113l-4.001,2.51c-1.263-2.657-2.725-4.426-4.386-5.306-1.661-.88-3.574-.989-5.738-.326-2.488.762-4.437,2.13-5.849,4.103-1.411,1.974-2.237,4.296-2.478,6.966s-.129,5.315.335,7.931c.598,3.375,1.522,6.198,2.77,8.469,1.249,2.272,2.829,3.771,4.743,4.497s3.856.788,5.829.184c2.399-.735,4.28-2.206,5.643-4.411,1.363-2.206,2.042-5.068,2.039-8.587h0ZM2612.178,1712.513l-3.316-40.552,4.361-.708,1.362,16.653,17.131-2.78-1.362-16.653,4.361-.708,3.316,40.552-4.361.708-1.563-19.114-17.131,2.78,1.563,19.114-4.361.708Z"/>
          <path class="cls-65" d="M2662.667,1703.272l15.724-40.945h5.837l16.758,40.945h-6.172l-4.776-12.401h-17.121l-4.497,12.401h-5.754ZM2674.481,1686.459h13.881l-4.273-11.34c-1.303-3.445-2.272-6.275-2.905-8.491-.521,2.625-1.257,5.232-2.206,7.82l-4.497,12.01ZM2705.315,1703.272v-40.945h5.558l21.506,32.147v-32.147h5.195v40.945h-5.558l-21.506-32.175v32.175h-5.195ZM2746.707,1703.272v-40.945h14.105c3.184,0,5.614.196,7.29.587,2.346.54,4.348,1.518,6.005,2.933,2.16,1.825,3.775,4.157,4.846,6.996,1.071,2.84,1.606,6.084,1.606,9.734,0,3.11-.363,5.865-1.089,8.267-.726,2.402-1.657,4.39-2.793,5.963-1.136,1.573-2.379,2.812-3.729,3.715s-2.979,1.587-4.888,2.053-4.101.698-6.577.698h-14.775ZM2752.126,1698.441h8.742c2.7,0,4.818-.251,6.354-.754s2.76-1.21,3.673-2.123c1.285-1.285,2.286-3.012,3.002-5.181s1.075-4.799,1.075-7.89c0-4.283-.703-7.574-2.109-9.873s-3.114-3.84-5.125-4.622c-1.452-.559-3.789-.838-7.01-.838h-8.602v31.281Z"/>
          <path class="cls-27" d="M2376.687,1662.095c-46.432,1.071-46.458,57.79.596,63.159,37.843,4.317,181.704-78.21,331.881-82.225M2712.39,1713.499c-141.939,1.701-190.362,76.007-334.264,75.816-90.195-101.373-60.018-140.959-1.401-141.594"/>
          <path class="cls-27" d="M3069.654,1633.381c106.355,3.598,12.789,129.622,8.342,149.121-79.281-5.402-138.238-71.622-369.827-68.896M2705.151,1643.134c197.87-5.253,357.953,65.792,371.057,65.918,24.165.232,43.537-60.455-6.554-61.371"/>
          <path class="cls-65" d="M2797.073,1702.153l1.968-39.634,12.263.825c2.768.186,4.872.518,6.31.994,2.014.66,3.707,1.723,5.08,3.19,1.79,1.893,3.082,4.244,3.877,7.055.794,2.811,1.104,5.983.929,9.516-.15,3.01-.598,5.656-1.344,7.939-.747,2.282-1.652,4.152-2.715,5.609-1.063,1.457-2.203,2.583-3.42,3.378-1.217.795-2.667,1.362-4.348,1.701-1.682.339-3.599.436-5.752.292l-12.846-.864ZM2802.017,1697.793l7.601.511c2.347.158,4.201.038,5.561-.358s2.458-1.01,3.295-1.84c1.179-1.168,2.132-2.782,2.859-4.839.727-2.058,1.165-4.583,1.314-7.575.206-4.146-.247-7.372-1.359-9.68-1.112-2.308-2.523-3.899-4.234-4.774-1.236-.626-3.254-1.033-6.055-1.221l-7.479-.503-1.503,30.279ZM2833.782,1705.114l3.51-39.492,4.695.544-3.51,39.492-4.695-.544ZM2846.729,1693.694l4.462.282c-.038,1.999.246,3.691.85,5.073s1.661,2.592,3.169,3.629,3.266,1.716,5.273,2.04c1.782.287,3.393.246,4.832-.124,1.439-.37,2.556-1.014,3.351-1.935.795-.92,1.269-1.988,1.422-3.203.155-1.233-.031-2.362-.558-3.385-.527-1.024-1.49-1.968-2.888-2.831-.896-.564-2.911-1.54-6.046-2.93-3.135-1.39-5.304-2.573-6.509-3.551-1.563-1.255-2.666-2.677-3.31-4.267s-.853-3.287-.627-5.092c.249-1.984.987-3.756,2.215-5.317s2.869-2.632,4.925-3.213c2.055-.58,4.271-.679,6.647-.296,2.617.422,4.867,1.263,6.748,2.524s3.246,2.889,4.093,4.885c.847,1.996,1.166,4.153.957,6.472l-4.527-.347c.071-2.523-.509-4.53-1.738-6.023s-3.202-2.458-5.915-2.895c-2.826-.456-4.958-.211-6.395.733-1.437.944-2.258,2.229-2.462,3.855-.177,1.412.135,2.647.936,3.706.785,1.056,3.016,2.369,6.694,3.937,3.678,1.568,6.178,2.824,7.502,3.766,1.923,1.386,3.273,2.966,4.049,4.741.777,1.775,1.033,3.717.768,5.826-.262,2.091-1.048,3.974-2.355,5.65-1.308,1.676-3.034,2.865-5.178,3.568-2.144.703-4.477.851-6.998.444-3.195-.515-5.808-1.465-7.838-2.85-2.03-1.385-3.528-3.217-4.495-5.497s-1.318-4.738-1.053-7.376h0ZM2907.022,1704.035l4.402,2.334c-1.713,4.015-4.026,6.852-6.938,8.511-2.912,1.659-6.19,2.082-9.834,1.269-3.771-.841-6.689-2.38-8.752-4.615s-3.428-5.111-4.092-8.626c-.665-3.515-.671-7.131-.019-10.849.711-4.054,2.028-7.435,3.95-10.143,1.922-2.708,4.305-4.559,7.15-5.552,2.845-.994,5.811-1.146,8.898-.457,3.501.781,6.271,2.429,8.31,4.944,2.039,2.515,3.213,5.675,3.521,9.478l-4.769.178c-.315-3.014-1.13-5.339-2.447-6.975-1.317-1.637-3.145-2.716-5.484-3.238-2.689-.6-5.063-.384-7.121.647-2.058,1.031-3.665,2.673-4.821,4.927-1.156,2.253-1.959,4.663-2.41,7.231-.581,3.311-.654,6.298-.22,8.961s1.459,4.81,3.074,6.44,3.49,2.682,5.622,3.158c2.594.579,4.936.237,7.026-1.027,2.09-1.263,3.741-3.461,4.952-6.594h0ZM2917.66,1701.082c1.4-6.395,4.04-10.975,7.92-13.738,3.88-2.763,8.261-3.469,13.145-2.117,3.198.886,5.894,2.533,8.09,4.944,2.196,2.411,3.634,5.322,4.315,8.735.681,3.413.6,7.047-.244,10.902-.855,3.907-2.33,7.206-4.423,9.898-2.093,2.691-4.613,4.47-7.559,5.336-2.946.866-5.924.882-8.933.049-3.261-.903-5.983-2.586-8.167-5.049-2.184-2.463-3.606-5.393-4.265-8.791-.66-3.398-.619-6.787.121-10.169h0ZM2922.369,1702.47c-1.017,4.643-.695,8.612.965,11.905s4.183,5.409,7.57,6.347c3.45.955,6.585.392,9.405-1.689,2.82-2.081,4.773-5.601,5.858-10.56.687-3.136.81-6.006.369-8.609s-1.438-4.802-2.991-6.599c-1.553-1.796-3.472-3.01-5.756-3.643-3.245-.898-6.309-.432-9.191,1.399-2.882,1.832-4.958,5.647-6.228,11.447h0ZM2962.336,1733.947l-3.906-42.381,4.926,1.53,2.096,30.558c.171,2.449.259,4.723.264,6.822,1.045-1.922,2.177-3.816,3.395-5.685l16.13-24.895,4.644,1.443-22.881,34.059-4.668-1.45ZM2984.643,1740.996l9.777-38.128,24.791,8.014-1.154,4.499-20.254-6.547-2.994,11.678,18.968,6.131-1.147,4.473-18.968-6.131-3.328,12.978,21.049,6.804-1.154,4.499-25.586-8.27ZM3016.614,1751.386l9.641-38.171,15.219,4.847c3.059.974,5.299,2.058,6.718,3.251,1.419,1.193,2.385,2.809,2.899,4.848s.505,4.109-.025,6.209c-.684,2.708-2.049,4.74-4.094,6.095-2.046,1.355-4.779,1.76-8.2,1.214,1.04,1.025,1.793,1.95,2.259,2.773.985,1.776,1.814,3.869,2.487,6.278l3.346,12.291-5.713-1.82-2.537-9.388c-.748-2.714-1.398-4.815-1.95-6.304-.552-1.488-1.106-2.584-1.662-3.286-.556-.702-1.162-1.261-1.816-1.675-.484-.285-1.312-.615-2.483-.988l-5.268-1.678-4.281,16.95-4.542-1.447ZM3026.543,1731.507l9.764,3.11c2.076.661,3.76.939,5.051.835s2.374-.585,3.248-1.441c.874-.856,1.467-1.901,1.778-3.133.456-1.805.241-3.477-.643-5.015-.885-1.538-2.599-2.713-5.144-3.523l-10.864-3.46-3.19,12.629ZM3060.909,1765.276l3.85-16.242-8.049-26.077,5.55,1.661,4.056,13.594c.742,2.538,1.397,5.049,1.967,7.535,1.51-1.696,3.299-3.578,5.368-5.648l9.351-9.274,5.315,1.591-18.996,17.983-3.85,16.242-4.562-1.365Z"/>
        </g>
        <path class="cls-4" d="M2534.016,1061.956l3.023,56.568-97.121,69.117-11.842-84.795c29.901-25.883,58.752-55.228,96.945-64.274"/>
        <path class="cls-20" d="M2919.013,1210.394c43.02-5.401,72.418-45.411,96.823-102.186l-34.261,205.861c-19.243,10.549-37.513,22.07-56.009,33.367l-6.554-137.042Z"/>
        <g>
          <path class="cls-24" d="M2706.38,1646.381c-29.657-1.75-233.866-85.24-231.949-288.306v-288.306h463.899v288.306c1.916,203.066-202.292,286.556-231.95,288.306Z"/>
          <path class="cls-25" d="M2706.38,1646.381c-29.657-1.75-233.866-85.24-231.949-288.306v-288.306h463.899v288.306c1.916,203.066-202.292,286.556-231.949,288.306Z"/>
          <g>
            <g>
              <path class="cls-57" d="M2937.155,1344.563c.822-8.89,1.542-25.254.421-42.283-40.147,30.638-54.895-41.821-97.978-1.074-28.914,27.346-38.321-8.143-57.666-5.467s-17.334,44.713,2.011,42.036c19.345-2.677,26.741,32.216,55.655,4.871,43.083-40.746,57.409,32.555,97.557,1.917Z"/>
              <path class="cls-57" d="M2474.762,1296.299c-.822,8.89-.278,24.412.843,41.44,40.148-30.638,52.788,43.716,95.871,2.97,28.914-27.346,38.321,8.143,57.666,5.467s17.334-44.713-2.011-42.036c-19.345,2.677-26.741-32.216-55.655-4.871-43.083,40.746-56.566-33.609-96.714-2.97h0Z"/>
            </g>
            <g>
              <path class="cls-57" d="M2938.457,1221.12c.822,14.645.226,17.761,0,40.653-40.147,30.638-52.909-42.951-96.693-5.056-8.46,6.083-18.06,17.91-27.136,6.476-9.076-11.434-4.713,5.386-8.64-31.418-3.926-36.804,4.857,10.357,35.776-15.711,43.784-37.895,56.545,35.694,96.693,5.056Z"/>
              <path class="cls-57" d="M2475.989,1253.263c-.822-14.645-.226-17.761,0-40.653,40.148-30.638,52.909,42.951,96.693,5.056,8.46-6.083,18.06-17.91,27.136-6.476,9.076,11.434,4.713-5.386,8.64,31.418s-4.857-10.357-35.776,15.711c-43.784,37.895-56.545-35.694-96.693-5.056h0Z"/>
            </g>
            <g>
              <path class="cls-57" d="M2937.521,1134.926c1.176,9.808.754,28.726.211,39.984-40.147,30.638-52.909-42.951-96.693-5.056-43.784,37.895-43.995-2.088-.211-39.984s56.545,35.694,96.693,5.056Z"/>
              <path class="cls-57" d="M2475.45,1168.946c-1.176-9.808-.333-28.515.211-39.773,40.148-30.638,53.962,42.74,97.746,4.845,43.784-37.895,43.995,2.088.211,39.984-43.784,37.895-58.02-35.694-98.167-5.056Z"/>
            </g>
          </g>
          <path class="cls-86" d="M2706.945,1070.545h-155.662l155.662,548.02,155.811-548.02h-155.811Z"/>
          <g>
            <g>
              <path class="cls-47" d="M2741.339,1241.781l41.152,48.648"/>
              <path class="cls-47" d="M2753.447,1222.18l51.563,32.042"/>
              <path class="cls-47" d="M2758.937,1203.472l52.159,14.541"/>
              <path class="cls-47" d="M2760.827,1183.586l64.344-8.904"/>
              <path class="cls-47" d="M2756.58,1163.696l80.687-37.686"/>
            </g>
            <g>
              <path class="cls-23" d="M2751.349,1234.95l22.013,15.71"/>
              <path class="cls-23" d="M2760.18,1213.272l24.745,10.677"/>
              <path class="cls-23" d="M2764.13,1193.084h24.447"/>
              <path class="cls-23" d="M2761.798,1172.902l27.997-7.716"/>
            </g>
            <g>
              <path class="cls-47" d="M2750.928,1151.595l104.388-74.5"/>
              <path class="cls-47" d="M2742.576,1135.489l42.619-50.57"/>
              <path class="cls-47" d="M2731.282,1117.525l19.675-38.206"/>
            </g>
            <g>
              <path class="cls-23" d="M2741.723,1121.253l15.748-24.4"/>
              <path class="cls-23" d="M2752.919,1138.239l22.022-18.931"/>
              <path class="cls-23" d="M2721.804,1104.658l8.747-27.692"/>
            </g>
            <g>
              <path class="cls-47" d="M2674.263,1234.816l-44.429,55.202"/>
              <path class="cls-47" d="M2665.134,1218.789l-55.436,33.233"/>
              <path class="cls-47" d="M2659.047,1202.763l-57.819,14.839"/>
              <path class="cls-47" d="M2654.179,1183.175l-66.429-8.904"/>
              <path class="cls-47" d="M2657.83,1164.774l-82.773-39.176"/>
              <path class="cls-47" d="M2665.793,1151.708l-104.09-74.202"/>
            </g>
            <g>
              <path class="cls-23" d="M2665.742,1229.473l-26.779,20.775"/>
              <path class="cls-23" d="M2656.613,1211.073l-29.214,12.465"/>
              <path class="cls-23" d="M2652.961,1192.672h-29.214"/>
              <path class="cls-23" d="M2650.527,1172.49l-27.997-7.716"/>
            </g>
            <path class="cls-47" d="M2674.631,1138.028l-47.595-45.888"/>
          </g>
          <g>
            <path class="cls-52" d="M2723.546,1260.166c-2.157-14.419,42.74-45.907,10.273-90.105-7.205,18.907,8.336,31.637-11.37,57.919,16.693-39.207-.547-31.061,10.138-62.134,5.063-24.692-5.01-43.089-22.149-54.341,4.609,43.331-29.174,33.125-24.429,78.054-2.757-11.718-3.391-23.436-2.979-35.154-37.367,61.11,1.41,52.701,4.767,105.463,2.231-.369,3.679,1.461,3.879-1.795.789-18.388-3.512-25.87-9.659-52.656,5.025,17.217,16.646,32.544,14.895,54.614,3.053.464,4.704.399,8.84-.502,1.251-34.63-20.526-51.65-4.37-85.261-8.755,35.52,9.816,55.083,9.234,85.846l3.129.009c.274-17.481,1.041-27.891,5.881-33.267-1.959,13.366-1.841,20.286-1.413,33.289l5.335.022Z"/>
            <g>
              <g>
                <g>
                  <path class="cls-56" d="M2707.02,1514.876l-12.464-.053c-4.54-78.998-5.835-157.996-29.345-236.994l41.809.053,41.809.053c-23.51,78.998-24.804,157.996-29.345,236.994l-12.464-.053Z"/>
                  <path class="cls-56" d="M2707.02,1277.625l45.904.392c-9.586-19.831-26.704-21.886-45.904-21.842-19.201-.232-36.319,1.823-45.904,21.654l45.904-.204Z"/>
                  <path class="cls-56" d="M2707.02,1566.591c14.246-15.373,18.47-34.828,11.224-35.349-3.289-.237-7.74-.288-11.224-.401-3.484.065-7.935.117-11.224.353-7.246.521-3.022,20.024,11.224,35.397Z"/>
                  <path class="cls-56" d="M2707.02,1534.041c15.965-.174,23.696-11.348,15.559-17.873-2.717-2.179-12.687-1.525-15.559-1.554-2.872-.029-12.842-.63-15.559,1.549-8.137,6.525-.406,17.703,15.559,17.877Z"/>
                </g>
                <g>
                  <path class="cls-46" d="M2685.525,1286.31c3.938,25.78,6.174,44.357,5.66,81.034"/>
                  <path class="cls-46" d="M2728.515,1286.31c-3.938,25.78-6.174,44.357-5.66,81.034"/>
                </g>
              </g>
              <g>
                <path class="cls-32" d="M2707.02,1287.664v192.573"/>
                <path class="cls-35" d="M2668.002,1269.476h6.499"/>
                <path class="cls-35" d="M2739.262,1269.476h6.499"/>
              </g>
            </g>
          </g>
          <path class="cls-24" d="M2706.38,1646.381c-29.657-1.75-233.866-85.24-231.949-288.306v-288.306h463.899v288.306c1.916,203.066-202.292,286.556-231.95,288.306Z"/>
          <g>
            <g>
              <path class="cls-57" d="M2937.155,1344.563c.822-8.89,1.542-25.254.421-42.283-40.147,30.638-54.895-41.821-97.978-1.074-28.914,27.346-38.321-8.143-57.666-5.467s-17.334,44.713,2.011,42.036c19.345-2.677,26.741,32.216,55.655,4.871,43.083-40.746,57.409,32.555,97.557,1.917Z"/>
              <path class="cls-57" d="M2474.762,1296.299c-.822,8.89-.278,24.412.843,41.44,40.148-30.638,52.788,43.716,95.871,2.97,28.914-27.346,38.321,8.143,57.666,5.467s17.334-44.713-2.011-42.036c-19.345,2.677-26.741-32.216-55.655-4.871-43.083,40.746-56.566-33.609-96.714-2.97h0Z"/>
            </g>
            <g>
              <path class="cls-57" d="M2938.457,1221.12c.822,14.645.226,17.761,0,40.653-40.147,30.638-52.909-42.951-96.693-5.056-8.46,6.083-18.06,17.91-27.136,6.476-9.076-11.434-4.713,5.386-8.64-31.418-3.926-36.804,4.857,10.357,35.776-15.711,43.784-37.895,56.545,35.694,96.693,5.056Z"/>
              <path class="cls-57" d="M2475.989,1253.263c-.822-14.645-.226-17.761,0-40.653,40.148-30.638,52.909,42.951,96.693,5.056,8.46-6.083,18.06-17.91,27.136-6.476,9.076,11.434,4.713-5.386,8.64,31.418s-4.857-10.357-35.776,15.711c-43.784,37.895-56.545-35.694-96.693-5.056h0Z"/>
            </g>
            <g>
              <path class="cls-57" d="M2937.521,1134.926c1.176,9.808.754,28.726.211,39.984-40.147,30.638-52.909-42.951-96.693-5.056-43.784,37.895-43.995-2.088-.211-39.984s56.545,35.694,96.693,5.056Z"/>
              <path class="cls-57" d="M2475.45,1168.946c-1.176-9.808-.333-28.515.211-39.773,40.148-30.638,53.962,42.74,97.746,4.845,43.784-37.895,43.995,2.088.211,39.984-43.784,37.895-58.02-35.694-98.167-5.056Z"/>
            </g>
          </g>
          <path class="cls-86" d="M2706.945,1070.545h-155.662l155.662,548.02,155.811-548.02h-155.811Z"/>
          <path class="cls-25" d="M2706.38,1646.381c-29.657-1.75-233.866-85.24-231.949-288.306v-288.306h463.899v288.306c1.916,203.066-202.292,286.556-231.949,288.306Z"/>
          <g>
            <g>
              <path class="cls-47" d="M2741.339,1241.781l41.152,48.648"/>
              <path class="cls-47" d="M2753.447,1222.18l51.563,32.042"/>
              <path class="cls-47" d="M2758.937,1203.472l52.159,14.541"/>
              <path class="cls-47" d="M2760.827,1183.586l64.344-8.904"/>
              <path class="cls-47" d="M2756.58,1163.696l80.687-37.686"/>
            </g>
            <g>
              <path class="cls-23" d="M2751.349,1234.95l22.013,15.71"/>
              <path class="cls-23" d="M2760.18,1213.272l24.745,10.677"/>
              <path class="cls-23" d="M2764.13,1193.084h24.447"/>
              <path class="cls-23" d="M2761.798,1172.902l27.997-7.716"/>
            </g>
            <g>
              <path class="cls-47" d="M2750.928,1151.595l104.388-74.5"/>
              <path class="cls-47" d="M2742.576,1135.489l42.619-50.57"/>
              <path class="cls-47" d="M2731.282,1117.525l19.675-38.206"/>
            </g>
            <g>
              <path class="cls-23" d="M2741.723,1121.253l15.748-24.4"/>
              <path class="cls-23" d="M2752.919,1138.239l22.022-18.931"/>
              <path class="cls-23" d="M2721.804,1104.658l8.747-27.692"/>
            </g>
            <g>
              <path class="cls-47" d="M2674.263,1234.816l-44.429,55.202"/>
              <path class="cls-47" d="M2665.134,1218.789l-55.436,33.233"/>
              <path class="cls-47" d="M2659.047,1202.763l-57.819,14.839"/>
              <path class="cls-47" d="M2654.179,1183.175l-66.429-8.904"/>
              <path class="cls-47" d="M2657.83,1164.774l-82.773-39.176"/>
              <path class="cls-47" d="M2665.793,1151.708l-104.09-74.202"/>
            </g>
            <g>
              <path class="cls-23" d="M2665.742,1229.473l-26.779,20.775"/>
              <path class="cls-23" d="M2656.613,1211.073l-29.214,12.465"/>
              <path class="cls-23" d="M2652.961,1192.672h-29.214"/>
              <path class="cls-23" d="M2650.527,1172.49l-27.997-7.716"/>
            </g>
            <path class="cls-47" d="M2674.631,1138.028l-47.595-45.888"/>
          </g>
          <g>
            <path class="cls-52" d="M2723.546,1260.166c-2.157-14.419,42.74-45.907,10.273-90.105-7.205,18.907,8.336,31.637-11.37,57.919,16.693-39.207-.547-31.061,10.138-62.134,5.063-24.692-5.01-43.089-22.149-54.341,4.609,43.331-29.174,33.125-24.429,78.054-2.757-11.718-3.391-23.436-2.979-35.154-37.367,61.11,1.41,52.701,4.767,105.463,2.231-.369,3.679,1.461,3.879-1.795.789-18.388-3.512-25.87-9.659-52.656,5.025,17.217,16.646,32.544,14.895,54.614,3.053.464,4.704.399,8.84-.502,1.251-34.63-20.526-51.65-4.37-85.261-8.755,35.52,9.816,55.083,9.234,85.846l3.129.009c.274-17.481,1.041-27.891,5.881-33.267-1.959,13.366-1.841,20.286-1.413,33.289l5.335.022Z"/>
            <g>
              <g>
                <g>
                  <path class="cls-56" d="M2707.02,1514.876l-12.464-.053c-4.54-78.998-5.835-157.996-29.345-236.994l41.809.053,41.809.053c-23.51,78.998-24.804,157.996-29.345,236.994l-12.464-.053Z"/>
                  <path class="cls-56" d="M2707.02,1277.625l45.904.392c-9.586-19.831-26.704-21.886-45.904-21.842-19.201-.232-36.319,1.823-45.904,21.654l45.904-.204Z"/>
                  <path class="cls-56" d="M2707.02,1566.591c14.246-15.373,18.47-34.828,11.224-35.349-3.289-.237-7.74-.288-11.224-.401-3.484.065-7.935.117-11.224.353-7.246.521-3.022,20.024,11.224,35.397Z"/>
                  <path class="cls-56" d="M2707.02,1534.041c15.965-.174,23.696-11.348,15.559-17.873-2.717-2.179-12.687-1.525-15.559-1.554-2.872-.029-12.842-.63-15.559,1.549-8.137,6.525-.406,17.703,15.559,17.877Z"/>
                </g>
                <g>
                  <path class="cls-46" d="M2685.525,1286.31c3.938,25.78,6.174,44.357,5.66,81.034"/>
                  <path class="cls-46" d="M2728.515,1286.31c-3.938,25.78-6.174,44.357-5.66,81.034"/>
                </g>
              </g>
              <g>
                <path class="cls-32" d="M2707.02,1287.664v192.573"/>
                <path class="cls-35" d="M2668.002,1269.476h6.499"/>
                <path class="cls-35" d="M2739.262,1269.476h6.499"/>
              </g>
            </g>
          </g>
        </g>
        <g>
          <g>
            <path class="cls-33" d="M2220.987,1670.402c9.636,2.248,17.966,12.155,22.962,29.492,2.751-15.233,7.865-28.679.421-44.449-17.557-4.262-22.501,4.767-23.383,14.957h0Z"/>
            <path class="cls-33" d="M2245.635,1656.077c.878-1.239,14.58,17.121,17.695,40.025,12.663-8.78,8.997-25.648,4.845-44.449-5.659,1.176-14.285,1.69-22.541,4.424Z"/>
            <path class="cls-33" d="M2271.125,1650.811c5.414,12.001,13.192,24.586,15.799,39.393,5.866-12.693,8.852-26.643,2.739-43.817l-18.538,4.424Z"/>
            <path class="cls-33" d="M2446.21,1346.378c.89,8.606,7.957,24.311-24.675,20.253,24.879,15.439,41.19,17.772,40.448-15.449l-15.774-4.805Z"/>
            <path class="cls-33" d="M2466.906,1359.264c2.648,18.491-.241,31.724-8.505,40.862,18.29-2.469,31.261-10.651,28.228-36.023l-19.724-4.839Z"/>
            <path class="cls-33" d="M2493.145,1364.596l-4.662,19.883c14.345-1.735,13.606-8.497,20.266-12.793l-15.604-7.09Z"/>
          </g>
          <path class="cls-1" d="M2183.709,1162.616c-131.264-35.661-7.682-114.195-52.434-142.405,79.2,36.261-11.502,61.275,52.434,142.405Z"/>
          <path class="cls-30" d="M2238.051,1619.001c23.075,1.775,55.265-14.885,55.404,33.284-8.958-2.3-15.738,1.078-20.223,5.477-2.886-29.785-22.326-27.418-35.18-38.761h0Z"/>
        </g>
        <g>
          <g>
            <g>
              <path class="cls-33" d="M2497.645,1537.601c6.298,8.793,12.342,15.058,16.683,25.025-1.584-12.295-.11-26.435-7.597-30.983l-9.086,5.958Z"/>
              <path class="cls-33" d="M2452.808,1566.201c12.842,2.441,21.003,13.464,29.196,24.429.622-15.144.638-30.369-10.427-47.071-11.252,3.176-20.112,8.445-18.769,22.642Z"/>
              <path class="cls-33" d="M2480.664,1550.709l18.62,25.621c3.418-11.92,2.143-23.433-3.575-34.558l-15.045,8.938Z"/>
            </g>
            <path class="cls-1" d="M2316.01,1345.3c38.689,2.026,26.094-8.164,54.221-3.575,44.824,13.083,49.242,43.432,38.154,86.403-26.151,64.893-19.284,54.337,11.705,64.927,23.321,7.97,26.582,26.85,55.604,14.312,13.581-5.867,30.59,12.801,34.41,27.706-4.314,1.1-7.453,3.766-9.384,8.044-7.165-14.658-15.857-15.585-24.131-20.258,10.449,5.34,22.403,9.177,22.94,24.429-6.937-.956-12.328,2.148-16.088,9.533-15.254-19.344.215-30.329-47.071-25.621,7.353,1.724,42.576-11.261,39.325,20.258-14.833-2.948-20.212,4.25-18.769,18.769-8.224,11.64-51.21,7.427-32.771-19.961-6.073,11.194-8.252,24.04-23.238,30.09-20.065-19.365-11.336-22.805-5.66-39.623-14.192,48.488-53.44,20.271-29.792-9.831-24.56,35.249-45.753,23.415-57.796,1.788,42.612-4.145,22.494-15.958,44.688-14.598-28.474,3.306-46.146-35.812-14.002-57.2-.833-30.997,3.909-39.011-24.429-31.281l-27.111-98.909,29.196,14.598Z"/>
          </g>
          <path class="cls-61" d="M2329.143,1347.13c6.95-1.59,35.827-9.937,38.058-5.319l-29.014,88.802c-14.485-6.646-35.226-5.307-43.454-11.536,11.871-16.054,4.913-72.419,34.41-71.948h0Z"/>
          <g>
            <path class="cls-18" d="M2356.203,1475.132c-20.941,4.785-6.02,29.633,14.896,24.429-4.891,36.667,12.368,16.788,37.538,28.6"/>
            <path class="cls-18" d="M2316.01,1345.3c38.689,2.026,26.094-8.164,54.221-3.575,44.824,13.083,49.242,43.432,38.154,86.403-26.151,64.893-19.284,54.337,11.705,64.927,23.321,7.97,26.582,26.85,55.604,14.312,13.581-5.867,30.59,12.801,34.41,27.706-4.314,1.1-7.453,3.766-9.384,8.044-7.165-14.658-15.857-15.585-24.131-20.258,10.449,5.34,22.403,9.177,22.94,24.429-6.937-.956-12.328,2.148-16.088,9.533-15.254-19.344.215-30.329-47.071-25.621,7.353,1.724,42.576-11.261,39.325,20.258-14.833-2.948-20.212,4.25-18.769,18.769-8.224,11.64-51.21,7.427-32.771-19.961-6.073,11.194-8.252,24.04-23.238,30.09-20.065-19.365-11.336-22.805-5.66-39.623-14.192,48.488-53.44,20.271-29.792-9.831-24.56,35.249-45.753,23.415-57.796,1.788,42.612-4.145,22.494-15.958,44.688-14.598-28.474,3.306-46.146-35.812-14.002-57.2-.833-30.997,3.909-39.011-24.429-31.281l-27.111-98.909,29.196,14.598Z"/>
            <path class="cls-1" d="M2347.383,1403.918c-4.242-71.475,55.278-97.479,54.772-63.619-.406,26.75-37.758,14.844-40.447,112.492"/>
          </g>
        </g>
        <g>
          <g>
            <path class="cls-1" d="M2273.084,1165.595c11.213,64.5-14.057,141.161-54.221,194.838-56.354,75.315-122.808-10.508-51.838-19.067,33.24-4.009,50.153-4.751,57.2-23.701-24.042-5.028-53.452-4.289-72.168.71,62.999-11.739,80.966-16.981,90.639-48.51-23.003,2.673-46.368,6.43-72.692,19.067,22.753-32.162,41.551,12.389,95.611-68.419-23.296-36.567-44.715,15.084-67.01,25.519,46.317-74.822,11.332-121.597-38.729-153.726-4.469,26.763.344,47.693,16.088,64.35-56.151-33.941-83.863,52.901-18.471,52.434-22.423-45.036,55.49-34.705-.596,36.942-34.497,44.068-94.047,148.548-34.558,176.367-25.804,1.395-47.546,26.011-32.771,69.117,49.574-72.686,33.211-14.544,57.796-74.479-22.594,49.521-1.026,53.852,23.833,54.817-25.915-59.599,33.711-10.663,72.692-111.421-39.338,81.206-18.09,47.147-23.833,105.463-34.335,22.043-64.647,8.761-58.988,52.434-14.876,10.103-47.426,36.759-17.875,61.967,10.706-26.993,25.409-32.407,41.709-29.196-52.016-5.935-52.922,74.667-17.875,72.692,4.394-13.576,9.592-24.709,19.067-34.558-31.189,39.034-17.783,57.936,8.342,61.371.846-14.608,6.774-24.916,14.896-33.367-22.661,27.157-18.33,42.888,16.683,57.796,1.25-11.885,7.26-17.495,20.854-13.108,3.171-14.068-8.664-22.365-19.663-30.983,9.087,8.301,21.325,14.701,22.046,30.845,7.79-3.421,15.109-4.158,22.344-2.81.108-43.949-43.829-26.806-43.198-95.364.758-82.726,83.915-47.729,95.159-148.363,2.808-25.135-20.726-30.901-19.488-70.309-1.201,49.708,39.343,50.737,20.258-13.108-10.976-36.717,58.489-43.497,76.863-112.613l-111.421-108.442-16.684,54.817Z"/>
            <path class="cls-18" d="M2375.568,1220.114c-14.46,28.337-41.086,53.479-76.863,74.777"/>
            <path class="cls-4" d="M2418.468,1121.503c56.435,94.135,131.472,246.704,85.205,255.018-21.276,3.823-5.971-28.04-7.15-44.688,0,0-1.158,13.722-2.979,23.238-4.251,22.217-23.86,20.941-28.898,3.277-.726-2.547,10.427-47.369,10.427-47.369,0,0-7.657,31.766-12.81,40.666-6.003,10.365-26.922-3.579-30.09-16.237-3.553-14.199,22.642-42.304,22.642-42.304-13.91,16.027-23.335,29.421-37.538,10.725-20.075-26.425,13.124-33.476,26.217-48.859-19.934,15.743-35.383,33.748-50.646,15.492-16.665-19.932,15.768-28.997,30.983-43.496l-38.133,28.004c-4.121-13.341,1.051-21.555,8.342-28.6l-48.263,1.192c2.148-20.645-14.809-35.832-22.642-53.625l2.979-79.842,76.863,4.767,15.492,22.642Z"/>
            <path class="cls-45" d="M2375.249,960.168c-1.572,23.618,21.761,17.232,21.627,5.964-.119-9.53-4.167-17.359-23.691-13.847-16.91,3.041-13.165-25.968-42.9-20.854-36.208,3.259-42.503-13.957-51.838-25.025-12.025,9.66-12.778,20.93,2.979,34.558-10.073-1.796-17.331-7.345-22.642-15.492-17.383,16.244-12.785,38.407,11.321,35.154-17.459-1.646-33.498,1.58-37.207,4.199-24.336,17.186-5.542,82.388,40.186,53.001-41.117,14-27.104,47.223-64.35,62.563,11.718,34.563,31.753,7.034,49.454,3.575-40.56,27.253-19.996,44.211-20.258,77.459,18.168-7.069,21.221-27.095,29.196-42.9-3.074,29.158-3.969,63.763-16.088,70.309,42.379,19.204,55.648-30.589,43.496-57.796,17.375,38.713,12.543,61.932-4.171,76.863,76.899,17.786,46.477-49.867,47.667-92.355,7.483,61.634,58.068,44.416,46.475,92.95,30.997-6.491,63.911-44.918.596-97.717,26.706,15.793,47.562,38.995,66.444,69.653,14.481-83.57-28.655-109.55-75.382-116.277v-50.497c27.517-42.688-4.118-31.113-.915-53.489h0Z"/>
            <g>
              <path class="cls-18" d="M2267.754,1441.415c33.862,14.333-4.958,36.817-27.807,57.51"/>
              <path class="cls-18" d="M2219.934,1465.641c7.5,53.03-43.785.443-29.703,67.622"/>
              <path class="cls-18" d="M2165.479,1552.854c5.506-2.456,11.721-2.78,20.118-1.633-2.356,43.35-.468,38.107,29.914,52.191"/>
              <path class="cls-18" d="M2185.333,1550.853c3.986-2.428,5.85-4.794,4.793-10.164"/>
              <path class="cls-18" d="M2271.296,1322.449c11.678.042,3.234,13.429,8.789,18.918"/>
            </g>
          </g>
          <path class="cls-39" d="M2275.765,992.207c-26.619-31.765-41.082,26.9.074.223l-.074-.223Z"/>
          <path class="cls-18" d="M2296.024,951.839c14.76,22.068,19.913-7.725,38.853-7.582,21.474.162,14.045,21.026-1.911,20.69-14.521.884,11.688-12.938-9.831.447"/>
          <path class="cls-18" d="M2376.61,1063.856c-8.765,2.992-13.601-.352-16.325-4.772-1.775-2.88-2.411-5.855-3.487-9.081,1.46,4.205,4.425,10.587,2.159,9.498-2.346-1.127-10.578,2.037-15.085-.458-2.556-1.415-4.14-5.318-6.737-9.041,2.835,4.524,6.185,9.203,5.647,9.168-2.986-.193-10.872,2.298-14.773-.548-2.929-2.137-2.657-4.402-4.876-9.216,2.053,5.355,1.915,5.646,2.732,7.564,3.749,8.807-36.346-.391-32.871-10.875,1.161-3.501,13.769-7.852,18.912-12.079-2.939,3.509-15.687,7.684-17.918,10.759-3.993,2.377-1.471-17.811,2.36-21.9,1.703-1.818,14.384-2.857,18.61-3.683-4.935.578-19.897,5.404-19.109,2.16,1.094-4.506,2.914-15.526,3.669-20.334.441-2.808,4.994-1.74,8.916-2.854-3.971-.695-7.834,2.622-8.135.591-.958-6.471-1.622-28.458-11.375-35.388"/>
          <path class="cls-29" d="M2371.018,1019.764c.298,17.962-14.085,17.13-24.199,17.13s-18.62-2.445-18.62-12.066,13.49-26.068,28.37-26.068c10.114,0,14.747,9,14.449,21.003Z"/>
          <path class="cls-10" d="M2354.284,1015.146c23.246-.213,15.456,12.085,17.575,3.087-5.2,14.334,32.818-3.473,36.183-19.175,4.711,38.013-35.784,42.376-37.395,30.93-7.358,5.098-13.387,6.373-19.495,3.083-5.368-2.891-2.964-17.871,3.133-17.926h0Z"/>
          <path class="cls-28" d="M2346.207,955.103c.318,3.922-5.037,8.628-11.961,10.509s-12.795.228-13.113-3.695,5.037-8.628,11.961-10.509,12.795-.228,13.113,3.695Z"/>
        </g>
        <path class="cls-72" d="M2630.802,1006.687c-8.102,19.713-18.214,38.011-41.289,47.188.719-16.414-2.58-33.924,9.69-47.188-11.65,16.863-27.125,27.352-48.873,27.386-.752-16.363,7.214-29.419,22.751-39.604-13.461,5.598-21.203,12.706-32.442,5.056,2.204-13.101,15.755-15.611,25.701-21.487-15.344,7.875-31.143,12.341-47.609,11.797l-54.772,38.761-34.969-10.954c-14.981-41.902,18.717-46.237,50.558-57.721-39.848-11.72-104.712-10.617-119.655-37.497,5.896-2.817,12.642-3.082,20.223-.843-28.508-22.641-27.1-34.362-20.645-44.238,20.679-.998,37.242,16.529,53.508,35.391-10.122-16.659-31.041-30.511-15.167-53.929,18.222,3.944,30.056,35.997,45.081,54.35-21.111-36.034-33.905-76.904-77.523-99.853l13.061-28.65,36.655,2.528c48.096,31.031,45.601,74.488,65.305,112.492-7.032-37.511-10.38-74.415,18.117-88.899,6.956,8.857,5.97,20.158,5.898,31.178,3.502-22.443,18.23-31.502,36.233-36.655,14.21,29.631-.014,45.593-14.325,61.513,12.488-9.075,24.068-25.416,39.183-13.482.086,13.194-12.797,20.705-24.858,29.071l-19.802,10.533,1.264,21.909,21.909,10.954,50.558,19.802,36.233,61.091Z"/>
        <g>
          <path class="cls-78" d="M2397.767,829.327c-59.05-36.992,36.235-61.557,28.302-6.852-1.143,7.84-20.892,11.494-28.302,6.852Z"/>
          <path class="cls-78" d="M2415.94,847.798c-7.197-9.588,12.92-16.977,15.492-13.108,2.653,3.992-11.833,17.983-15.492,13.108Z"/>
          <path class="cls-78" d="M2390.319,897.848c-9.571,8.157-2.873,42.177,7.15,35.154,10.475-7.339-.328-40.969-7.15-35.154Z"/>
          <path class="cls-78" d="M2462.713,904.998c-42.536,16.703-37.106,37.083,6.554,11.619,8.201-4.783,60.885-38.101-6.554-11.619Z"/>
          <path class="cls-78" d="M2507.997,929.726c-9.335-2.383-20.561-16.242-25.621-16.683-3.481-.304-25.008,17.179-24.727,20.258.244,2.674,19.156,2.445,25.919,20.556,15.607-8.044,16.286-16.088,24.429-24.131Z"/>
          <path class="cls-78" d="M2503.528,947.303c-18.673,10.92-28.657,20.925-27.296,25.666,1.374,4.786,20.824-8.27,30.871,2.934,17.371-17.577,32.312-35.75-3.575-28.6Z"/>
          <path class="cls-78" d="M2578.305,946.409l51.54,59.584c-12.009,14.718-44.031,26.177-25.025-7.15-6.185,15.764-41.752,9.911-12.513-23.833-29.368,37.588-37.47-5.341-14.002-28.6Z"/>
        </g>
        <g>
          <g>
            <g>
              <path class="cls-27" d="M2594.095,982.457l-5.363,6.256"/>
              <path class="cls-27" d="M2419.813,917.809l7.15,5.065"/>
              <path class="cls-27" d="M2388.201,924.71l8.109,3.476"/>
              <path class="cls-27" d="M2503.578,849.622l-.993,6.184"/>
              <path class="cls-27" d="M2501.145,862.694l-1.49,8.342"/>
            </g>
            <g>
              <path class="cls-31" d="M2499.059,877.59l-.894,6.852"/>
              <path class="cls-31" d="M2523.786,870.142c-1.723,2.063-4.045,8.171-4.201,11.902"/>
            </g>
          </g>
          <g>
            <path class="cls-36" d="M2492.193,916.033l-8.016-9.26"/>
            <path class="cls-36" d="M2413.869,932.743c-2.317.7-4.633,1.321-6.88-2.161"/>
            <path class="cls-36" d="M2424.58,936.876l8.044,2.085"/>
            <path class="cls-36" d="M2459.436,934.492l5.958,5.363"/>
            <path class="cls-36" d="M2473.736,949.09c3.466.643,6.85,1.7,9.533,6.256"/>
          </g>
        </g>
        <path class="cls-78" d="M2406.705,886.23c-.995-17.203-7.765-14.53-7.15-.596,1.159,26.239,7.63,8.901,7.15.596Z"/>
        <path class="cls-27" d="M2630.802,1006.687c-8.102,19.713-18.214,38.011-41.289,47.188.719-16.414-2.58-33.924,9.69-47.188-11.65,16.863-27.125,27.352-48.873,27.386-.752-16.363,7.214-29.419,22.751-39.604-13.461,5.598-21.203,12.706-32.442,5.056,2.204-13.101,15.755-15.611,25.701-21.487-15.344,7.875-31.143,12.341-47.609,11.797l-54.772,38.761-34.969-10.954c-14.981-41.902,18.717-46.237,50.558-57.721-39.848-11.72-104.712-10.617-119.655-37.497,5.896-2.817,12.642-3.082,20.223-.843-28.508-22.641-27.1-34.362-20.645-44.238,20.679-.998,37.242,16.529,53.508,35.391-10.122-16.659-31.041-30.511-15.167-53.929,18.222,3.944,30.056,35.997,45.081,54.35-21.111-36.034-33.905-76.904-77.523-99.853l13.061-28.65,36.655,3.055c32.397,11.593,45.601,73.961,65.305,111.966-7.032-37.511-10.38-74.415,18.117-88.899,6.956,8.857,5.97,20.158,5.898,31.178,3.502-22.443,18.23-31.502,36.233-36.655,14.21,29.631-.014,45.593-14.325,61.513,12.488-9.075,24.068-25.416,39.183-13.482.086,13.194-12.797,20.705-24.858,29.071l-19.802,10.533,1.264,21.909,21.909,10.954,50.558,19.802,36.233,61.091Z"/>
        <g>
          <g>
            <path class="cls-33" d="M2559.202,1083.925l13.588,20.645-.421-26.964-13.166,6.32Z"/>
            <path class="cls-33" d="M2579.846,1081.819c-1.132,8.813,2.268,15.097,6.109,23.91,2.682-9.726,3.7-19.451,4.74-29.176l-10.849,5.267Z"/>
            <path class="cls-33" d="M2597.647,1076.342c-.653,6.917-.822,13.623.211,20.539,10.726-6.337,12.554-13.096,10.428-15.799l-10.638-4.74Z"/>
          </g>
          <path class="cls-4" d="M2524.72,1038.671c21.415-4.991,45.768-3.597,74.882,8.352,15.566,6.389,10.672,22.394,9.533,35.75-2.977-2.322-6.569-3.208-11.917,0,.356-12.217-7.931-21.965-12.513-32.771,3.595,11.519,11.657,23.039,6.554,34.558-4.431-4.125-8.276-2.986-11.917,0-2.574-22.287-13.233-24.81-22.642-30.388,11.664,7.664,21.078,16.044,15.492,29.196-4.915-.521-9.919-1.091-10.185,5.363-8.541-11.847-17.188-23.494-28.06-26.794"/>
        </g>
        <path class="cls-72" d="M2864.422,919.919c51.881-30.372-19.1-46.591-14.402-81.332,10.431.544,21.069.196,29.196,10.725-16.804-16.784-23.409-34.066-7.746-52.434,12.785.837,23.924,6.818,30.388,27.408,2.838-10.49,8.125-17.862,19.663-17.279,27.572,19.384,11.112,39.38,3.575,76.267,16.751-58,24.981-126.397,107.25-113.683-35.154,34.814-53.406,79.76-78.65,120.237,24.611-18.297,46.534-40.388,84.013-40.517,2.446,9.155,3.382,18.527-21.45,31.579,18.054-4.498,36.321-16.053,53.625,4.171-14.474,18.87-31.489,17.408-48.263,17.875,17.337,1.611,28.329,10.521,29.792,30.388-55.01-15.906-65.076,2.555-139.575,3.798,17.464,7.805,43.645,17.425,53.029,39.921l.149,27.781-11.917,19.663-68.521-20.854c-12.513-2.262-25.025-10.586-37.538-19.067.648,22.036-9.396,36.052-17.875,51.242l-67.329-60.775,46.475-44.092,56.11-11.022Z"/>
        <g>
          <path class="cls-78" d="M2854.59,935.59c4.603-.22,27.557,9.763,27.557,9.763-3.477-19.673,19.836-3.955,26.679,3.972,3.448,3.995,10.653.438,10.312,5.748-.587,9.137-28.518,7.367-42.304,11.023-8.252,2.188-55.094-28.934-22.243-30.506h0Z"/>
          <path class="cls-78" d="M2926.585,876.125c-57.69-17.49-19.779,33.028-53.478,50.821,21.794-3.273,31.608,11.125,56.457-11.495,13.1-11.925-30.213,1.395-2.979-39.325Z"/>
          <path class="cls-78" d="M3017.45,879.998c5.891-9.073,7.993-21.719-7.746-17.577-18.979,4.995-6.655,14.773.596,20.556-13.723,15.955,5.646,31.687,11.023,36.346,4.001,3.466-1.192-16.088-1.192-16.088,9.695-8.97,14.817-22.745-2.681-23.238Z"/>
          <path class="cls-78" d="M2970.677,809.987c-3.901-4.637,12.378-12.539,26.392-19.478,47.955-25.659,11.788-23.198-10.845-13.666-7.192,2.788-13.216,7.37-22.994,18.844-14.61,17.145-13.62,33.525.596,32.175,23.975-2.276,17.068-5.733,6.852-17.875h0Z"/>
        </g>
        <g>
          <g>
            <g>
              <path class="cls-27" d="M2904.313,833.247l.483,7.432"/>
              <path class="cls-27" d="M2905.361,848.295l-.149,7.299"/>
              <path class="cls-27" d="M2883.521,856.452l2.234,8.789"/>
              <path class="cls-27" d="M3008.732,884.675l-7.096,2.758"/>
              <path class="cls-27" d="M2991.997,891.402l-6.592,2.217"/>
              <path class="cls-27" d="M2920.612,891.979l-3.669,5.407"/>
              <path class="cls-27" d="M2921.819,920.514l-6.256,4.767"/>
            </g>
            <g>
              <path class="cls-36" d="M2905.535,863.525l-.596,6.852"/>
              <path class="cls-42" d="M2992.565,904.919c3.174,3.008,6.824,1.888,10.652-.767"/>
              <g>
                <path class="cls-36" d="M2890.239,922.898l7.746-8.044"/>
                <path class="cls-36" d="M2903.537,910.608l6.392-7.392"/>
              </g>
            </g>
            <path class="cls-27" d="M2864.422,919.919c51.881-30.372-19.1-46.591-14.402-81.332,10.431.544,21.069.196,29.196,10.725-16.804-16.784-23.409-34.066-7.746-52.434,12.785.837,23.924,6.818,30.388,27.409,2.838-10.49,8.125-17.862,19.663-17.279,27.571,19.384,11.112,39.381,3.575,76.267,16.751-58,25.244-124.501,107.514-114.736-35.154,34.814-53.67,80.813-78.914,121.29,24.611-18.296,46.534-40.388,84.013-40.517,2.446,9.156,3.382,18.527-21.45,31.579,18.054-4.498,36.321-16.053,53.625,4.171-14.474,18.87-31.489,17.408-48.263,17.875,17.337,1.611,28.329,10.521,29.792,30.388-55.01-15.906-65.075,2.555-139.575,3.798,17.464,7.805,45.647,17.425,52.924,39.921l.254,27.781-11.917,19.663-68.521-20.854c-12.513-2.262-25.025-10.586-37.538-19.067.648,22.036-9.396,36.052-17.875,51.242l-67.329-60.775,46.475-44.092,56.11-11.022Z"/>
          </g>
          <g>
            <path class="cls-22" d="M3058.758,1589.554c-74.462,3.212-66.53,12.985-80.051,27.386,8.642-10.476,42.94-8.908,65.305-18.117-25.942,11.284-39.413,26.087-46.766,42.764,20.892-14.451,37.319-25.952,59.827-37.708-7.374,4.798-34.694,18.084-30.967,34.127,23.594-21.017,59.617-30.131,78.576-35.601l-45.924-12.85Z"/>
            <path class="cls-9" d="M3048.518,1508.597c-17.344-.298-30.196,114.012,65.726,93.954-5.263-40.566-11.064-80.833-65.726-93.954Z"/>
          </g>
        </g>
        <path class="cls-90" d="M3051.046,1512.389c-4.818,81.657,5.538,78.53,55.825,80.472-4.048-40.77-20.904-70.014-55.825-80.472Z"/>
        <path class="cls-9" d="M3103.038,1391.267c-54.481,66.092-20.937,178.764,11.917,219.863,18.884-.348,39.854-.546,57.2.447,13.826-8.127,26.908-22.058,37.538-36.197l-13.704-164.451-92.95-19.663Z"/>
        <path class="cls-90" d="M3101.996,1592.958c65.274,10.364,43.331-52.042,50.416-91.465.635-10.235-7.667-36.896-4.388-41.704l20.854-36.346,17.279,17.577,10.725,150.151-25.025,21.45-57.796-.596-12.066-19.067Z"/>
        <path class="cls-27" d="M3103.038,1391.312c-54.481,66.092-20.937,178.764,11.917,219.863,18.884-.348,39.854-.546,57.2.447,13.826-8.127,26.908-22.058,37.538-36.197l-13.704-164.451-92.95-19.663Z"/>
        <path class="cls-72" d="M3023.745,1050.251c-15.862,124.905-53.579,85.033-51.346,206.159,2.31,125.331,44.046,262.654,107.25,278.255,61.173-126.732,39.722-260.976,59.584-391.464l-27.467-92.865-49.716-11.797-38.305,11.712Z"/>
        <path class="cls-73" d="M3024.622,1048.501c-3.089,27.922-8.158,54.288-17.854,78.366,7.735-3.639,16.546-4.503,26.494-5.376,42.593,2.039,27.377,51.962,55.485,12.57,5.82-8.157,40.445-28.36,40.445-28.36-6.753-19.43-13.506-41.979-20.258-63.457l-84.311,6.256Z"/>
        <path class="cls-82" d="M2976.065,1306.812c44.353-34.153,41.008,30.616,117.548-10.954l-.843,147.883c-28.79,14.597-57.58,2.796-86.37,2.949-14.664-46.626-27.859-93.252-30.335-139.878Z"/>
        <path class="cls-88" d="M3105.831,1394.867c-47.928,83.16-80.393,55.176-101.538-6.741-.744,18.307.152,34.063,0,50.98,12.769,43.935,44.729,87.326,75.416,97.746,18.072-43.115,46.366-94.656,26.122-141.985Z"/>
        <path class="cls-37" d="M2989.968,1308.497c27.61,57.818,56.382,59.796,80.051,29.492"/>
        <path class="cls-80" d="M3031.171,1121.647c13.375-7.34,12.305-52.339,18.959-44.818,29.615,33.471,26.373-.515,32.875,36.557.885,5.018,2.002,9.963,7.361,18.425-30.41,44.39-14.08-8.968-59.195-10.164h0Z"/>
        <path class="cls-71" d="M3032.014,1121.384c46.77-9.683,21.778,15.569,58.353,10.322-28.197,43.253-15.181-5.371-58.353-10.322Z"/>
        <g>
          <g>
            <path class="cls-27" d="M3023.814,1049.406c-15.862,124.905-53.052,87.666-50.82,208.792,2.31,125.331,44.046,262.654,107.25,278.255,61.173-126.732,39.722-260.976,59.584-391.464l-27.993-94.761-49.189-9.901-38.832,9.079Z"/>
            <path class="cls-17" d="M3033.383,971.823c79.074,10.788,77.254,42.858,78.529,78.764-7.328-.507-16.421-1.128-25.621-.894-4.995,43.34-25.096,38.634-33.963.298h-28.6c-.78-11.119-.433-24.558-2.851-36.489"/>
            <path class="cls-7" d="M3020.814,1013.284c-15.902-40.018-48.619-74.05-75.736-107.337,51.66,17.125,68.966,56.214,88.611,65.939"/>
          </g>
          <path class="cls-51" d="M3051.386,998.82c-6.566.345-6.799-6.776-11.12,2.936-3.305,7.428,6.818,8.841,7.892,12.396,2.474,8.186,4.911,19.067,16.981,19.067,9.538,0,26.664-10.813,26.813-18.62-2.234-6.019-18.172-14.821-27.706-15.103-3.777-.112-11.377-.754-12.859-.676h0ZM3066.131,1003.562c6.66,0,13.433,2.933,13.606,8.357.298,9.598-7.789,12.81-14.449,12.81s-12.066-7.384-12.066-12.81,6.248-8.357,12.908-8.357Z"/>
          <path class="cls-16" d="M3086.691,987.916c5.419,19.411,8.594,41.364,5.26,61.777l20.258,1.192c.834-26.21-7.812-47.434-25.519-62.969Z"/>
        </g>
        <path class="cls-59" d="M3021.624,1011.522c34.962-2.795,17.395-32.437,11.619-38.264-15.71,9.663-15.001,29.686-11.619,38.264Z"/>
        <path class="cls-16" d="M3051.925,1049.982c11.519,35.169,24.411,41.471,35.036-.363-10.478,3.482-24.961,3.439-35.036.363Z"/>
        <path class="cls-49" d="M3045.365,1041.843c.855,4.483,2.736,6.729-1.759,6.698-2.832-.019-1.319-2.772-2.174-7.255-.855-4.483-1.353-4.855.703-5.247,2.056-.392,2.375,1.32,3.23,5.804h0Z"/>
        <path class="cls-86" d="M3015.176,978.089c5.77,9.418,9.191,20.85,12.215,32.622,8.484-6.823,10.369-7.85,15.343-16.832-2.332-14.674-5.923-13.782-9.985-15.176-5.706-1.958-10.654-1.257-17.572-.614Z"/>
        <g>
          <path class="cls-16" d="M3128.908,1108.16c-14.825,1.986-25.745,10.612-34.97,22.119,9.14,20.385-.599,20.121-8.848,21.487,1.413,10.393,5.899,20.785,15.167,31.178-8.426-2.285-16.853-3.332-25.279-3.37,13.911,12.78,18.379,25.56,24.858,38.34-6.741-3.893-13.482-4.639-20.223-4.635,8.444,11.154,12.827,24.846,16.853,38.761l-16.431-.843c5.414,17.924,10.298,39.242,4.893,58.233-9.832,34.547-4.602,60.873,3.515,82.976,20.875,56.846,48.082,90.428,62.373,127.593,8.574-26.646,17.893-52.4,21.066-85.528,15.423,28.376,14.233,68.994,14.57,108.695.489,57.643,7.669,68.333,49.05,81.742-27.245-21.909,15.728-390.087-106.594-516.748Z"/>
          <g>
            <path class="cls-21" d="M3121.745,1163.142c14.712,109.88-18.941,122.453-14.307,182.87,2.883,37.584,17.323,74.703,35.794,110.789,5.317-67.503.339-204.928-3.371-224.142,14.275,2.827,16.53,7.714,18.959,110.375.999,42.645-2.807,139.608-11.375,146.63,0,0-56.849-86.353-56.878-137.771-.012-21.499,12.358-70.017,15.839-112.935,3.322-40.552-8.237-63.602,15.339-75.816h0Z"/>
            <path class="cls-21" d="M3222.02,1611.427c-7.154-18.978-6.869-47.689-7.974-106.121-.465-24.591-.931-54.026-2.98-91.056-5.607-101.352-30.779-249.169-87.634-289.868.058,9.283.791,18.982,15.167,37.076-4.634-3.779-9.269-2.649-13.904-2.107,49.404,46.54,51.231,110.314,58.985,170.213,5.892,45.516,11.602,100.143,15.703,148.77,6.546,77.618-3.03,122.543,22.637,133.093h0Z"/>
          </g>
        </g>
        <g>
          <path class="cls-60" d="M3021.243,767.618c28.968,33.688,14.9,46.249-17.695,49.716,9.512,13.823,30.345,22.236,42.975,0,13.752,8.949,14.635,26.477,18.959,41.711,8.552-12.093,26.803-13.644,13.482-47.188,21.422,5.317,23.845-7.235,27.386-16.01-34.689,9.243-37.778-30.821-85.106-28.228h0Z"/>
          <g>
            <path class="cls-11" d="M3023.139,813.963c8.839-2.978,17.299-6.511,22.541-14.746,7.576,4.611,14.062,15.762,20.855,25.069-1.392-6.39-5.221-12.78-3.37-19.17l17.063,8.848c-5.133-7.454-14.564-13.19-6.53-25.911l-15.589-11.586-16.853-7.162c-6.443-1.14-12.885-1.416-19.328-1.738l9.216,13.535c2.337,3.825,4.954,7.464,5.267,12.64l-.843,7.584c.194,2.262-.342,4.266-2.528,5.688l-9.901,6.952Z"/>
            <path class="cls-27" d="M3021.243,767.618c28.968,33.688,14.9,46.249-17.695,49.716,9.512,13.823,30.345,22.236,42.975,0,13.752,8.949,14.635,26.477,18.959,41.711,8.552-12.093,26.803-13.644,13.482-47.188,21.422,5.317,23.845-7.235,27.386-16.01-34.689,9.243-37.778-30.821-85.106-28.228h0Z"/>
          </g>
        </g>
        <g>
          <path class="cls-60" d="M2948.312,973.528c-13.684-.348-26.745.705-31.599,20.223-10.397-12.908-23.33-18.206-37.076-21.066.983,12.078,2.789,23.333,1.685,37.498-8.57,3.095-18.552,2.697-28.228.421,29.899,50.652,131.622,45.085,112.914-34.127.326,80.501-54.31,27.61-17.695-2.949h0Z"/>
          <g>
            <path class="cls-11" d="M2935.251,998.597c-7.63,23.853-17.458,30.489-31.81,1.685-2.151,14.657-9.599,14.011-16.642,14.536l37.708,28.018,10.954-2.423,8.015-3.247,9.049-5.706c4.762-4.485,6.412-10.245,9.799-15.28l4.547-17.372-2.441-22.962.313,21.487-2.949,9.901c-1.233,2.876-2.57,5.683-4.635,8.005-2.043,1.863-4.207,3.122-6.53,3.581l-6.53-2.107-5.688-6.32-3.16-11.797Z"/>
            <path class="cls-27" d="M2948.312,973.528c-13.684-.348-26.745.705-31.599,20.223-10.397-12.908-23.33-18.206-37.076-21.066.983,12.078,2.789,23.333,1.685,37.498-8.57,3.095-18.552,2.697-28.228.421,29.899,50.652,130.132,45.085,111.424-34.127.326,80.501-52.821,27.61-16.206-2.949h0Z"/>
          </g>
        </g>
        <path class="cls-2" d="M2793.099,983.83l-1.685,18.959,28.018,13.482c-4.512-26.262-5.032-52.525,0-78.787-15.534,10.218-28.039,22.78-26.332,46.345h0Z"/>
        <g>
          <path class="cls-57" d="M2533.732,921.225c-18.626-14.167-3.588-33.652,8.044-40.219-26.237-3.834-46.648,31.963-14.896,46.177-35.884-2.122-45.146,2.952-52.136,8.64,6.847,20.065,48.34,17.997,73.288,7.448-8.359,6.242-13.091,15.307-14.3,27.111,28.408.38,36.844-14.608,47.667-28.302l-47.667-20.854Z"/>
          <g>
            <path class="cls-48" d="M2475.288,935.225c18.404,9.245,62.274,3.621,97.471,3.576l-31.579-13.704-14.449,1.936-24.28-.596c-7.576.837-14.609,2.759-21.599,4.767l-5.563,4.02Z"/>
            <path class="cls-48" d="M2517.198,921.076c-6.339-22.517,5.191-36.489,24.28-40.455l-11.619.683c-5.459,2.37-10.026,5.781-14.3,9.533l-4.618,10.725-.596,8.193,6.852,11.321Z"/>
            <path class="cls-27" d="M2533.732,921.225c-18.626-14.167-3.588-33.652,8.044-40.219-26.237-3.834-46.648,31.963-14.896,46.177-35.884-2.122-45.146,2.952-52.136,8.64,6.847,20.065,48.34,17.997,73.288,7.448-8.359,6.243-13.091,15.307-14.3,27.111,28.408.38,36.844-14.608,47.667-28.302l-47.667-20.854Z"/>
          </g>
        </g>
        <g>
          <path class="cls-16" d="M2632.178,1021.666l-10.375,66.147,72.046,16.853,34.97-58.985,34.127-15.589,43.61-3.332,33.936,19.514c-11.751-27.907-16.225-43.76-44.066-57.051l-1.192-122.146-36.942-32.771-128.105-.596c-28.424,32.588-65.739,56.585-102.186,81.034-9.158,6.144-4.611,12.324.292,13.864,41.483,13.029,85.605,37.513,103.885,93.059h0Z"/>
          <path class="cls-88" d="M2675.053,1050.731c17.088-16.838,35.294-32.68,58.511-43.389l-32.771-72.692h-67.329l38.133,64.946-14.164,6.492"/>
          <path class="cls-82" d="M2657.148,946.232c10.179-.099,20.358.285,30.537.186l23.833,59.435-23.536,14.598c-5.629-26.238-20.275-49.741-30.835-74.219Z"/>
          <path class="cls-72" d="M2672.193,946.306l15.79-.037,23.833,59.286-12.81,8.044c-7.693-24.309-15.971-47.705-26.813-67.292Z"/>
          <path class="cls-82" d="M2677.528,1053.524c9.147-9.303,22.379-22.303,36.233-31,7.183,2.13,12.754,6.237,19.391,10.551-17.087,10.747-31.144,23.67-39.815,41.711-6.123-6.83-11.346-12.773-15.81-21.262Z"/>
          <path class="cls-82" d="M2782.448,993.087l-30.967-.037c.292,11.104,6.252,19.791,17.695,25.701,19.648-4.807,33.792-2.693,45.503.632-10.571-9.8-21.114-19.768-32.231-26.295Z"/>
          <path class="cls-68" d="M2803.514,993.471l-22.311-.403c11.613,6.925,20.847,16.192,29.684,25.893,9.18,2.812,17.186,10.323,25.279,17.485-9.503-24.687-20.3-35.553-32.652-42.975Z"/>
          <path class="cls-58" d="M2769.91,1018.961c-28.803-29.023-30.481-100.49-34.558-112.017l-15.194,1.936c9.342,44.543,15.665,97.976,36.048,114.549l13.704-4.469Z"/>
          <path class="cls-58" d="M2736.096,882.068v21.003l13.555-5.66.149-20.556-13.704,5.214Z"/>
          <path class="cls-64" d="M2734.457,857.788l-6.256,43.496-37.538,2.979,19.067-47.071,24.727.596Z"/>
          <path class="cls-82" d="M2679.224,883.507l-63.198-.579c9.081-18.693,27.659-30.765,52.069-36.787,1.996-1.094,1.357-3.264,0-3.681l-49.33,2.918,11.586-11.797,52.454.211.023,24.437-3.604,25.279Z"/>
          <path class="cls-72" d="M2630.782,864.118l16.683,16.907-31.803-.149c5.195-8.127,8.87-11.795,15.119-16.758Z"/>
          <path class="cls-72" d="M2714.795,860.171c-.311,18.399-5.56,31.458-17.875,40.815l-19.365,2.085-1.49-40.815,38.729-2.085Z"/>
          <path class="cls-3" d="M2563.453,898.304l106.655,2.085-1.49,6.852-121.848,9.533,16.683-18.471Z"/>
          <path class="cls-70" d="M2580.806,879.982l95.706.074-.149,8.565-98.015.149,2.458-8.789Z"/>
          <g>
            <path class="cls-6" d="M2527.702,928.096c69.397-2.138,136.549-11.015,202.584-23.238l-.149-14.449c-11.237,2.742-30.792,5.747-44.241,6.703l-.596-30.09,47.667-3.575,5.958-13.108-74.182,5.363.57,12.216c5.331,4.764,6.168,17.871,1.042,22.337l.473,10.135c-37.209,5.667-73.54,8.7-109.634,11.023l40.219-32.622-16.754-.254c-17.451,12.675-36.266,25.445-53.754,36.867-1.18.992-1.761,1.641-2.769,2.791-1.178,1.316-1.39,3.113-.904,4.837.968,2.21,2.67,3.686,4.469,5.065h0Z"/>
            <path class="cls-27" d="M2631.194,994.946l6.741,19.381-16.431,73.731,72.046,16.853,34.97-58.985,34.127-15.589,43.61-3.332,33.936,19.514c-11.751-27.907-16.225-43.76-44.066-57.051l-1.192-122.146-36.942-32.771-128.105-.596c-28.291,32.257-65.395,56.505-102.186,81.034-7.547,5.031-4.15,11.034.186,12.81,19.327,7.92,51.112,6.825,76.975,23.536,25.837,16.694,26.331,43.612,26.331,43.612h0Z"/>
            <path class="cls-6" d="M2631.676,1020.451c-9.726,2.509-29.996,57.103-25.231,72.587,3.539,5.748,12.492,12.364,29.402,13.214-8.023,7.305-13.689,17.516-17.237,25.94,15.321,11.691,21.215,14.27,49.153,17.135,2.045-8.324,4.691-21.281,3.834-35.925,9.732,2.407,19.464,4.645,29.196,2.383,9.956-63.265,113.752-119.319,142.754-46.307,1.173-99.677-142.291-48.763-154.671,23.069l-56.604-7.15c8.449-21.649,9.988-43.297-.596-64.946h0Z"/>
            <path class="cls-8" d="M2656.962,1004.736l-42.267-69.191c-14.84.15-51.993.222-67.26-.568-12.876-4.226,2.362.016-18.838-6.88,102.479,36.193,96.143,92.859,122.146,147.171,8.194-8.043,16.662-15.249,24.838-23.309"/>
            <g>
              <path class="cls-27" d="M2647.684,1087.793c-1.274,14.505-5.698,28.28-10.322,40.552"/>
              <path class="cls-27" d="M2663.589,1090.11c.298,12.236-4.418,31.297-8.216,42.764"/>
            </g>
          </g>
        </g>
        <g>
          <path class="cls-60" d="M2811.636,845.216c1.172,89.394,72.587,47.064,82.579,94.797-18.545,11.001-38.193,6.273-58.985-14.746,18.383,17.602,25.153,38.715,19.381,63.619-17.42-5.176-38.092-3.646-38.34-44.239-3.459,18.518-4.879,38.161-24.015,48.031-15.633-25.681-18.331-56.907-2.528-96.061-10.495,14.981-20.627,30.481-38.761,34.548-2.849-28.725-3.477-46.06,30.335-81.315-12.462,14.24-23.496,30.623-46.766,28.65-1.879-19.433,2.33-36.026,17.274-47.609l59.828,14.325Z"/>
          <path class="cls-57" d="M2737.062,851.747c13.58,1.194,43.586-10.771,41.289,24.226-.529,8.062-3.022,15.799-8.216,22.119,11.274-7.977,17.628,1.421,24.015,21.066,4.084,12.559,1.896,31.599,1.896,31.599,2.871-11.978,4.775-21.785,21.887-14.126,7.13,3.191,12.998,16.421,22.983,28.872-6.329-13.412-13.029-26.824-5.688-40.236,15.585,17.158,39.898,26.344,58.564,14.746-7.047-8.422-36.33-.693-48.873-17.906,7.616-6.437,16.605-6.014,25.279-7.162l-23.594-7.584-10.954-5.477-12.85-11.165-7.163-14.536-5.056-31.178-59.406-14.114c-9.352,7.667-11.925,14.291-14.114,20.855Z"/>
          <path class="cls-27" d="M2811.636,845.216c1.172,89.394,72.587,47.064,82.579,94.797-18.545,11.001-38.193,6.273-58.985-14.746,18.383,17.602,25.153,38.715,19.381,63.619-17.42-5.176-38.092-3.646-38.34-44.238-3.459,18.518-4.879,38.161-24.015,48.03-15.633-25.681-18.331-56.907-2.528-96.061-10.495,14.981-20.627,30.481-38.761,34.548-2.849-28.725-3.477-46.06,30.335-81.315-12.462,14.24-23.496,30.623-46.766,28.65-1.879-19.433,2.33-36.026,17.274-47.609l59.828,14.325Z"/>
        </g>
        <g>
          <path class="cls-72" d="M2615.333,806.143c-53.155,2.423-55.291,79.856,8.342,41.411,31.932-19.324,113.123-9.522,153.13-.298,62.65,14.444,61.117-21.428,18.173-37.836-38.145-14.574-136.195-5.258-179.645-3.277Z"/>
          <g>
            <path class="cls-14" d="M2666.277,836.829l-20.258-32.175c-14.19-.562-30.906-.959-44.539,4.022l26.366,36.793"/>
            <path class="cls-43" d="M2745.821,841.447l-14.3-40.07-45.135.298,19.365,35.601"/>
            <path class="cls-50" d="M2774.719,804.356c31.795,3.859,51.207,22.489,50.868,33.956-.282,9.529-16.667,17.21-48.782,8.875l-2.085-42.831Z"/>
            <path class="cls-27" d="M2615.333,806.143c-53.155,2.423-55.291,79.856,8.342,41.411,31.932-19.324,113.123-9.522,153.13-.298,62.65,14.444,61.117-21.428,18.173-37.836-38.145-14.574-136.195-5.258-179.645-3.277Z"/>
          </g>
        </g>
        <g>
          <path class="cls-15" d="M2705.663,785.311c36.82-42.732,69.908-92.747,88.056-135.665,12.007,14.607,28.05,22.56,50.558,20.645-6.605,40.563-18.572,78.652-32.442,115.863"/>
          <path class="cls-83" d="M2577.377,785.587l-1.919,3.959-91.63-44.419c-.71-2.254.049-3.492,1.919-3.959l91.63,44.419Z"/>
          <path class="cls-53" d="M2736.128,764.11h42.325v19.91h-42.325v-19.91Z"/>
          <path class="cls-55" d="M2740.655,740.478h14.451v23.716h-14.451v-23.716Z"/>
          <path class="cls-54" d="M2659.97,764.1h42.782v20.475h-42.782v-20.475Z"/>
          <path class="cls-83" d="M2871.169,734.588c1.657.434,2.303,2.422,1.428,3.75l-78.857,30.481-1.428-3.75,78.857-30.481Z"/>
          <path class="cls-83" d="M2846.317,667.464c1.023.326,1.583,1.421,1.378,2.529l-54.424,28.61-1.378-2.529,54.424-28.61Z"/>
          <path class="cls-15" d="M2531.207,764.846l80.713-64.219"/>
          <g>
            <path class="cls-83" d="M2655.054,758.806c.388,1.701.038,3.368-1.061,4.27l-92.504-22.944c-.445-1.445-.119-3.177,1.061-4.27l92.504,22.944Z"/>
            <path class="cls-83" d="M2641.379,672.883c.119,1.546-.363,3.166-1.34,4.191l-61.596-19.64c-.363-1.628-.125-2.957,1.34-4.191l61.596,19.64Z"/>
            <path class="cls-83" d="M2737.529,660.385c.443,1.664-.153,3.394-1.153,4.246l-75.037-20.321c-.408-1.706-.089-3.26,1.153-4.246l75.037,20.321Z"/>
          </g>
          <g>
            <path class="cls-15" d="M2503.874,751.908c43.745-26.235,77.936-55.258,108.256-85.409"/>
            <path class="cls-15" d="M2612.551,679.981c17.508,35.573,30.708,71.974,61.934,104.909"/>
            <path class="cls-15" d="M2613.815,669.448c23.857,39.708,42.598,81.384,80.051,115.863"/>
          </g>
          <path class="cls-83" d="M2641.379,707.442c.106,1.62-.293,3.39-1.34,4.191l-61.596-19.64c-.418-1.891.239-3.232,1.34-4.191l61.596,19.64Z"/>
          <path class="cls-15" d="M2633.618,783.205c23.655-24.559,47.944-48.938,67.832-74.574"/>
          <path class="cls-83" d="M2641.379,727.104c.039,1.488-.263,3.641-1.34,4.191l-61.596-19.64c-.251-1.555.185-3.328,1.34-4.191l61.596,19.64Z"/>
          <path class="cls-15" d="M2701.45,655.545c-13.121,24.757-51.115,61.031-87.845,83.421"/>
          <path class="cls-83" d="M2737.529,696.433c.654,1.774.033,3.418-1.153,4.246l-75.037-20.321c-.71-1.62-.173-3.381,1.153-4.246l75.037,20.321Z"/>
          <path class="cls-15" d="M2701.871,689.672c-26.678,27.953-57.378,52.386-88.477,76.47"/>
          <path class="cls-83" d="M2737.529,714.606c.773,1.889.162,3.51-1.153,4.246l-75.037-20.321c-.695-1.376-.414-3.396,1.153-4.246l75.037,20.321Z"/>
          <g>
            <path class="cls-57" d="M2876.211,677.783c.288,5.267.767,11.059.891,16.795-11.404-11.383-19.343-3.702-33.369-5.577-.281-3.465.096-14.193-.086-16.784,32.492.186,22.018-4.937,32.564,5.566Z"/>
            <g class="cls-95">
              <g>
                <circle class="cls-57" cx="2850.089" cy="675.293" r="8.633"/>
                <path class="cls-92" d="M2841.388,671.115l17.402,8.356M2841.526,679.747l17.126-8.908"/>
                <path class="cls-93" d="M2841.388,671.115l17.402,8.356M2841.526,679.747l17.126-8.908"/>
                <path class="cls-72" d="M2850.089,675.293l8.701,4.178-1.295.021-8.701-4.178M2850.089,675.293l8.563-4.454,1.295-.021-8.563,4.454M2850.089,675.293l-8.563,4.454-1.295.021,8.563-4.454M2850.089,675.293l-8.701-4.178,1.295-.021,8.701,4.178"/>
                <path class="cls-94" d="M2841.457,675.431l17.264-.276M2850.021,670.977l.138,8.632"/>
                <path class="cls-91" d="M2841.457,675.431l17.264-.276M2850.021,670.977l.138,8.632"/>
              </g>
            </g>
          </g>
          <path class="cls-75" d="M2610.235,628.716c1.164-.99,3.066-1.124,4.4,0v157.521h-4.4v-157.521Z"/>
          <g>
            <path class="cls-15" d="M2823.633,784.047c-42.464-49.911-81.819-101.205-119.233-153.36,28.815,52.882,57.478,105.786,93.954,157.573"/>
            <path class="cls-15" d="M2703.557,630.266c22.961,52.52,42.089,105.759,73.31,156.731"/>
            <path class="cls-15" d="M2844.277,669.87c3.466,23.535,5.404,47.452,13.061,69.939"/>
          </g>
          <path class="cls-69" d="M2700.425,619.61c1.227-1.045,3.23-1.187,4.636,0v166.276h-4.636v-166.276Z"/>
          <path class="cls-87" d="M2791.525,648.375c1.164-.879,3.066-.998,4.4,0v139.883h-4.4v-139.883Z"/>
          <g>
            <path class="cls-19" d="M2557.732,780.957h300.368v28.15l-271.327-.293-29.04-27.856Z"/>
            <g>
              <path class="cls-5" d="M2579.147,795.308h273.488v4.434h-273.488v-4.434Z"/>
              <path class="cls-26" d="M2579.147,790.395h273.488v4.434h-273.488v-4.434Z"/>
            </g>
          </g>
        </g>
        <g>
          <path class="cls-60" d="M2425.914,992.29c3.639,53.018,70.18,12.02,23.238-3.277,10.376-8.021,27.235-9.172,35.452,4.469,7.279-20.143,24.311-24.03,48.263-16.385-5.952,10.543-10.094,21.364-25.919,30.388,9.132-.195,15.768,2.107,21.748,5.065-30.585,40.268-124.601,30.039-102.782-20.258Z"/>
          <g>
            <path class="cls-11" d="M2449.896,988.622c12.54,2.255,29.965,11.438,38.133,22.884,10.378-16.137,25.726-26.558,44.837-33.963l-3.724,7.001-5.511,8.938-5.958,6.405-5.66,4.618-3.575,2.532,9.086.745,11.768,4.469-16.981,14.598-17.13,7.448-21.599,3.128-25.025-2.681-11.172-5.363-12.364-11.917-2.979-9.235,1.341-10.576,2.681-5.66,2.383,12.215,7.001,10.874,7.001,3.575h9.235l8.789-4.022,4.171-5.809.447-8.938-3.724-4.618-11.47-6.647Z"/>
            <path class="cls-27" d="M2425.914,992.29c3.639,53.019,70.18,12.02,23.238-3.277,10.376-8.021,27.235-9.172,35.452,4.469,7.279-20.143,24.311-24.03,48.263-16.385-5.952,10.543-10.094,21.364-25.919,30.388,9.132-.195,15.768,2.107,21.748,5.065-30.585,40.268-124.601,30.039-102.782-20.258Z"/>
          </g>
        </g>
        <g>
          <path class="cls-60" d="M2418.862,788.544c-68.72-30.195-114.387,13.217-123.447,53.086,9.528-2.323,16.575-6.69,22.751-14.746-.791,15.032,1.253,25.041,7.584,41.711,11.641-7.979,20.956-11.734,24.015-32.863,21.409,21.744,34.342-1.375,39.604-5.056-39.013-31.8,3.634-47.144,29.492-42.132Z"/>
          <g>
            <path class="cls-11" d="M2337.336,787.491c.108,10.393-1.236,20.785-3.37,31.178,8.274-15.089,24.771-10.993,39.394-11.27l2.949-8.848,11.692-7.373,12.008-2.844,18.959.843-15.589-6.32-21.803-4.003-18.854.316-16.221,4.003-9.164,4.319Z"/>
            <path class="cls-27" d="M2417.914,788.86c-68.72-30.195-113.439,12.901-122.499,52.77,9.528-2.323,16.575-6.69,22.751-14.746-.791,15.032,1.253,25.041,7.584,41.711,11.641-7.979,20.956-11.734,24.015-32.863,21.409,21.744,34.342-1.375,39.604-5.056-39.013-31.8,2.686-46.828,28.544-41.816h0Z"/>
          </g>
        </g>
        <g>
          <path class="cls-27" d="M3016.502,903.227l-6.95.263"/>
          <path class="cls-27" d="M2570.525,975.674l5.958-3.575"/>
          <path class="cls-27" d="M2601.806,1003.678l2.979-4.171"/>
        </g>
      </g>
    </g>
    <g id="mini-gb">
      <path class="cls-76" d="M1600,.1v1200H0V400.1C0,180.1,180,.1,400,.1h1200Z"/>
      <path id="Path" class="cls-89" d="M1534.9.1h65.1v255.8l-545.5,354.3,545.5,354.2v235.7h-96l-679-440.9-679,440.9H0v-203.2l595.5-386.7L31.6,243.9C65.5,164.1,124.5,97.6,198.7,54.3l626.3,406.7L1534.9.1Z"/>
      <path id="Path-2" class="cls-81" d="M0,1189.3v-119.2l708.2-460L60,189.3c17.8-28.7,39.2-54.9,63.4-78.2l676.6,439.4L1600,31.1v119.3l-708.2,459.7,708.2,460v119.2l-800-519.5L0,1189.3Z"/>
      <polygon id="Shape" class="cls-77" points="1000 400.1 1600 400.1 1600 800.1 1000 800.1 1000 1200.1 600 1200.1 600 800.1 0 800.1 0 400.1 600 400.1 600 .1 1000 .1 1000 400.1"/>
      <polygon id="Shape-2" class="cls-79" points="900 500.1 900 .1 700 .1 700 500.1 0 500.1 0 700.1 700 700.1 700 1200.1 900 1200.1 900 700.1 1600 700.1 1600 500.1 900 500.1"/>
    </g>
  </g>
</svg>