<?xml version="1.0" encoding="UTF-8"?>
<svg xmlns="http://www.w3.org/2000/svg" viewBox="0 0 3600.818 2401.738">
  <defs>
    <style>
      .cls-1 {
        stroke-width: .387px;
      }

      .cls-1, .cls-2, .cls-3, .cls-4, .cls-5, .cls-6, .cls-7, .cls-8, .cls-9, .cls-10, .cls-11, .cls-12, .cls-13, .cls-14, .cls-15, .cls-16, .cls-17, .cls-18, .cls-19, .cls-20, .cls-21, .cls-22, .cls-23, .cls-24, .cls-25, .cls-26, .cls-27, .cls-28, .cls-29, .cls-30, .cls-31, .cls-32, .cls-33 {
        fill-rule: evenodd;
      }

      .cls-1, .cls-2, .cls-3, .cls-4, .cls-5, .cls-7, .cls-8, .cls-9, .cls-10, .cls-12, .cls-13, .cls-34, .cls-14, .cls-16, .cls-17, .cls-18, .cls-19, .cls-20, .cls-21, .cls-22, .cls-23, .cls-25, .cls-26, .cls-27, .cls-35, .cls-36, .cls-28, .cls-29, .cls-30, .cls-31, .cls-32, .cls-37 {
        stroke: #000;
      }

      .cls-1, .cls-4, .cls-5, .cls-10, .cls-13, .cls-34, .cls-14, .cls-16, .cls-17, .cls-20, .cls-21, .cls-26, .cls-36, .cls-28, .cls-30 {
        stroke-miterlimit: 10;
      }

      .cls-1, .cls-4, .cls-10, .cls-13, .cls-34, .cls-27, .cls-31 {
        fill: #fff;
      }

      .cls-2 {
        fill: #082900;
      }

      .cls-2, .cls-7, .cls-12, .cls-18, .cls-19, .cls-22, .cls-23, .cls-24, .cls-25, .cls-38, .cls-39, .cls-35, .cls-29, .cls-31, .cls-32, .cls-37 {
        stroke-linecap: round;
        stroke-linejoin: round;
      }

      .cls-2, .cls-18, .cls-19, .cls-22, .cls-23, .cls-24, .cls-25, .cls-38, .cls-27, .cls-29, .cls-31, .cls-32, .cls-37 {
        stroke-width: 5.212px;
      }

      .cls-3 {
        stroke-width: 7.68px;
      }

      .cls-4 {
        stroke-width: .599px;
      }

      .cls-5 {
        stroke-width: .45px;
      }

      .cls-5, .cls-14, .cls-16, .cls-17, .cls-20, .cls-26, .cls-30 {
        fill: #f7d917;
      }

      .cls-6 {
        stroke: #960a18;
        stroke-width: 2.606px;
      }

      .cls-6, .cls-23 {
        fill: #c61021;
      }

      .cls-6, .cls-27 {
        stroke-miterlimit: 4.344;
      }

      .cls-7 {
        stroke-width: 5.212px;
      }

      .cls-7, .cls-12, .cls-18 {
        fill: #ffff18;
      }

      .cls-8 {
        fill: #3e8225;
        stroke-width: 7.2px;
      }

      .cls-9 {
        stroke-width: 4.8px;
      }

      .cls-10 {
        stroke-width: .595px;
      }

      .cls-11, .cls-15, .cls-40, .cls-33 {
        stroke-width: 0px;
      }

      .cls-12 {
        stroke-width: 5.213px;
      }

      .cls-13 {
        stroke-width: .386px;
      }

      .cls-34 {
        stroke-width: .946px;
      }

      .cls-14 {
        stroke-width: .552px;
      }

      .cls-15, .cls-24, .cls-29 {
        fill: #ffde08;
      }

      .cls-16 {
        stroke-width: .45px;
      }

      .cls-17 {
        stroke-width: .501px;
      }

      .cls-20 {
        stroke-width: .45px;
      }

      .cls-21 {
        stroke-width: .6px;
      }

      .cls-21, .cls-36 {
        fill: #c00;
      }

      .cls-22 {
        fill: aqua;
      }

      .cls-24 {
        stroke: #ffde08;
      }

      .cls-25 {
        fill: #fdff18;
      }

      .cls-38 {
        stroke: aqua;
      }

      .cls-38, .cls-39, .cls-35, .cls-37 {
        fill: none;
      }

      .cls-26 {
        stroke-width: .429px;
      }

      .cls-40 {
        fill: #cf1b2b;
      }

      .cls-39 {
        stroke: #ffff18;
        stroke-width: 15.637px;
      }

      .cls-35 {
        stroke-width: 23.455px;
      }

      .cls-36 {
        stroke-width: .899px;
      }

      .cls-28 {
        fill: #002b7f;
        stroke-width: .465px;
      }

      .cls-30 {
        stroke-width: .3px;
      }

      .cls-32 {
        fill: #188400;
      }

      .cls-33 {
        fill: #eee;
      }
    </style>
  </defs>
  <g id="background">
    <path id="gb-gg" class="cls-33" d="M400,.1h2800c220,0,400,180,400,400v1600c0,220-180,400-400,400H400C180,2400.1,0,2220.1,0,2000.1V400.1C0,180.1,180,.1,400,.1Z"/>
  </g>
  <g id="country">
    <g id="gb-gg-2" data-name="gb-gg">
      <polygon id="Path-6" class="cls-40" points="2100.1 900 3600.1 900 3600.1 1500 2100.1 1500 2100.1 2400 1500.1 2400 1500.1 1500 .1 1500 .1 900 1500.1 900 1500.1 0 2100.1 0 2100.1 900"/>
      <g>
        <path class="cls-12" d="M2411.329,1200.078c0,329.929-273.709,597.389-611.346,597.389s-611.346-267.46-611.346-597.389,273.709-597.389,611.346-597.389,611.346,267.46,611.346,597.389h0Z"/>
        <path class="cls-32" d="M2401.22,1200.078c0,323.229-269.183,585.258-601.237,585.258s-601.237-262.029-601.237-585.258,269.183-585.258,601.237-585.258,601.237,262.029,601.237,585.258h0Z"/>
        <path class="cls-27" d="M1674.32,950.836l14.477,28.955,1.956-32.868"/>
        <path class="cls-27" d="M1697.797,948.88l16.825,23.477,7.043-30.129"/>
        <path class="cls-27" d="M1685.276,1031.44l5.478-24.651,10.956,21.912"/>
        <path class="cls-27" d="M1710.71,1027.527l7.434-19.173,7.826,19.564"/>
        <path class="cls-2" d="M1482.878,923.809c34.998-35.049,54.391-71.399,22.198-112.047-47.288,37.349-48.073,74.698-22.198,112.047Z"/>
        <path class="cls-2" d="M1481.821,930.151c57.992,17.367,83.25-17.786,107.819-64.48-44.239,5.357-87.93-.4-107.819,64.48Z"/>
        <path class="cls-2" d="M1419.456,854.043c-5.988,37.759,16.577,64.414,61.309,82.45-.343-40.174-8.073-75.682-61.309-82.45Z"/>
        <path class="cls-37" d="M1431.083,869.899c21.227,19.254,36.948,37.763,49.681,57.081,42.792-14.935,59.945-43.68,96.191-52.852M1480.764,926.98l19.027-88.792"/>
        <path class="cls-35" d="M1480.904,930.39l-30.643,143.928,30.643-143.928Z"/>
        <path class="cls-39" d="M1480.904,930.39l-30.643,143.928,30.643-143.928Z"/>
        <path class="cls-37" d="M1999.067,1618.031c-31.319,25.088-21.35-4.413-57.886,24.808"/>
        <path class="cls-7" d="M2010.626,845.124c-1.627.651-4.174-1.386-6.68-5.343-2.505-3.957-4.588-9.232-5.461-13.834-.873-4.602-.405-7.829,1.229-8.465,1.627-.651,4.174,1.386,6.68,5.343,2.505,3.957,4.588,9.232,5.461,13.834.873,4.602.405,7.829-1.229,8.465h0Z"/>
        <path class="cls-7" d="M2002.695,855.419c-2.259.902-5.826-2.01-9.356-7.637-3.53-5.627-6.485-13.113-7.751-19.634-1.266-6.521-.649-11.084,1.616-11.968,2.259-.902,5.826,2.01,9.356,7.637,3.53,5.627,6.485,13.113,7.751,19.634s.649,11.084-1.616,11.968Z"/>
        <path class="cls-7" d="M1991.763,868.631c-4.937,1.961-13.376-7.681-18.844-21.532-5.468-13.85-5.891-26.657-.945-28.598,4.937-1.961,13.376,7.681,18.844,21.532,5.468,13.85,5.891,26.657.945,28.598h0Z"/>
        <path class="cls-18" d="M2000.515,1407.03c6.097,2.651,4.355,9.786,8.48,10.611,2.463.493,8.463,1.651,12.054.753,2.841-.71,4.52-10.462,4.52-7.534,0,2.146.115,6.027,2.26,6.027,4.283,0,12.936,1.819,16.574,0,2.728-1.364,3.552-6.886,3.767-6.027,1.068,4.273,2.384,3.767,7.534,3.767h9.047c2.338,0,11.466.723,7.534-4.52-3.021-4.028-5.205-4.52-3.773-4.52,3.425,0,9.664,1.257,12.807,0,1.256-.502,2.511-1.004,3.767-1.507,1.326-13.131,22.601-15.891,22.601-42.188,0-35.209-73.129-139.202-73.129-184.901,0-17.874,8.791-25.891,25.498-25.842,19.575.057,42.414,28.825,37.067,56.514,6.145-4.179,12.858-8.081,15.71-17.897,17.082,40.91,44.734,39.8,73.643,33.665-38.134-28.494-44.104-112.19-115.633-112.479-23.769-.096-62.413,8.207-62.413,77.619,0,49.479,67.881,129.316,67.881,168.354,0,15.714-13.795,28.687-35.673,28.687-41.832,0-39.948-27.246-75.071-56.994-23.795-20.154-67.192-38.402-70.844-66.409-2.209-16.94-2.259-33.969-1.868-50.953,5.122,6.373,10.243,11.997,15.365,16.121,3.946-39.625,8.736-61.248,12.682-76.091,5.355,4.959,10.709,7.154,16.064,7.609-3.972-33.389-1.629-68.357,3.382-103.991,1.607,27.702,19.438,39.181,36.355,51.573-1.917-24.011-7.825-52.402-19.446-75.246,7.614,11.822,16.37,18.528,26.209,23.673-.172-20.291,3.054-35.509-5.918-55.8l27.453,11.925c-11.172-25.131-20.835-52.274-40.205-66.473,13.58,4.125,27.161,3.152,40.741,3.216-22.722-12.177-42.975-26.471-55.751-47.174l13.938-10.185c-27.716-.588-47.769-34.082-141.519-34.082-64.437,0-130.196,34.082-140.99,34.082-10.196,0-19.517,10.09-13.987,24.972,5.374,14.462-4.223,44.94,19.678,38.462,80.285-21.758,82.739,19.306,87.211,37.568,4.203,19.148-2.486,32.818-30.412,33.543-10.728.278-19.547-2.813-26.834-2.683-55.189.987-31.656,25.584-28.433,37.568,15.816,0,34.37-13.501,43.639-13.864,16.662-.653,20.546,10.666,45.171,11.181-15.432,56.303-122.397,12.005-137.375,86.047-.127,1.076-.253,2.152-.38,3.229-.341,2.897-4.096-.726-5.808-.726-3.817,0,1.451,6.442-6.534,0-1.565-1.262-2.844,4.451-4.175,5.782-2.782,2.782-5.947-1.421-6.715-2.956-1.706-3.412-5.082,4.26-5.082,5.886v1.452c-134.516,65.734-169.568-88.97-238.125-13.068l1.106,11.609,8.447,23.354,20.373,21.367c44.819-18.5,60.103,10.873,75.032,39.255l1.988-1.491c1.071-.803,1.205-7.8,1.491-8.944.785-3.141,2.783-7.122,4.969-3.478,4.142,6.904,6.681,11.581,10.932,16.895,1.719,2.148,6.021,4.969,8.944,4.969.475,0,4.169-4.665,4.472-4.969,1.729-1.729,3.478-4.014,3.478-6.46,0-.535,2.19,9.119,9.441,10.932,2.555.639,3.664,4.844,4.472,6.46.818,1.635,5.466,3.438,5.466-.497,0-3.753,1.491-7.814,1.491-11.926,3.491,4.505,9.377,3.847,11.926,8.944.991,1.981,4.231,4.6,5.963,5.466,3.098,1.549,4.472,4.159,4.472-.994,0-2.992.497-6.343.497-9.938,0-3.085,5.326,4.047,8.944,6.46,3.279,2.186,8.188,2.182,11.429,3.478,2.873,1.149,4.064,3.478,7.454,3.478.843,0,2.856-4.636,3.478-5.466.96-1.28,2.076-4.33,2.484-5.963,0-.003,6.666,3.281,7.454,3.478,2.381.595,5.571,3.562,7.95,5.466,1.574,1.259,4.17,1.912,6.46,2.484h1.988c1.103,0,3.851-4.72,4.472-5.963.861-1.721,0-5.955,0-7.951,0-.914.354,5.963,6.46,5.963,2.69,0,5.692,1.084,7.951,1.988,2.541,1.016,4.299,4.241,5.963,6.46,1.95,2.6,6.957,2.475,6.957-.497,0-2.742-.994-4.35-.994-7.454,0-3.557-.022-6.007,1.988-1.988,1.145,2.291,6.388,1.988,8.944,1.988,2.272,0,5.89,1.312,7.454,2.485,2.034,1.526,3.332,2.411,5.466,3.478,1.842.921,1.55-6.578,2.484-8.447,1.379-2.759-1.23-.863,2.484.994,2.23,1.115,5.293.454,7.454.994,1.799.45,2.269.07,3.975.497l.497,2.485c.77,3.852-.268,8.1.497,11.926.504,2.521.497,6.025.497,8.447,0,1.657,5.526,5.029,6.46,5.963,2.295,2.295,4.926,4.936,6.957,6.46,1.568,1.176,3.756-5.339,4.969-6.957,1.347-1.796.41-6.396,0-8.447-1.158-5.788-.685-4.727.497,0,.677,2.709,1.509,6.056,1.988,8.447.182.909,8.183,5.698,8.944,6.46,3.12,3.12,4.97,1.985,6.957-1.988.77-1.54,4.167-9.92,1.988-4.472-1.268,3.17-.994,6.566-.994,9.938,0,2.281,3.92,6.681,4.472,9.441.662,3.311.697,5.865,1.988,8.447,1.756,3.512,4.367-1.28,5.466-3.478.945-1.891,1.09-6.846,1.491-8.447.18-.719.663-1.325.994-1.988.18-.361,1.154,5.609,2.484,10.932.781,3.124.497,6.158.497,9.441,0,2.253.98,4.445,1.988,6.46,1.259,2.519,1.984-5.463,3.975-7.454,4.434-4.434,3.975.301,3.975,3.975,0,3.497,4.247,7.981,6.46,10.932,1.398,1.864,2.497,4.157,3.478,5.466,1.886,2.514,2.569,2.024,3.975-1.491.989-2.471,2.293-5.58,3.478-7.951,1.483-2.967-.307,6.72.497,9.938.756,3.024,2.881,4.869,4.969,6.957,1.95,1.95,4.81,2.942,6.957,3.478,3.31.827,2.484-6.235,2.484-7.951,0-2.233.141,3.122,1.491,4.472l5.466,5.466,6.035-8.257c4.294,32.106,63.058,54.495,64.383,88.96,1.176,30.573,5.275,55.018,17.906,69.257,32.222,36.325,92.449,21.706,97.169,58.03,1.417,10.901,14.197,13.044,14.197,35.075,0,7.181-2.058,14.197-10.401,14.197-6.872,0-14.491-5.513-21.363-5.513-44.48,0-35.834,57.886-35.834,57.886,64.07,16.202,121.286.193,121.286-69.602,0-46.045,15.161-41.141,15.161-57.887,0-16.507-49.172-10.981-60.573-119.347h0Z"/>
        <path class="cls-29" d="M2329.614,1254.269c-75.342-1.697-134.502,104.423-122.49,226.573l.163.489c.738-.147,1.495-.31,2.28-.326,13.475-.269,33.457,18.437,40.721,43.327.055-.333.129-.617.163-.977-27.998-96.493,61.23-220.872,99.686-220.872.537,0,.962.13,1.466.163.091-.278.23-.537.326-.814-27.895-2.148-31.433-35.643-14.985-47.074-2.462-.282-4.899-.434-7.33-.489Z"/>
        <path class="cls-29" d="M2031.046,659.739l-1.14.652c-5.443,31.092,27.77,48.344,27.528,75.09-39.612-16.236-65.119-.855-99.36,5.375,10.39,14.877,25.827,14.887,43.002,19.546-16.803,8.897-35.182,13.181-53.752,16.777,7.151,13.064,18.445,22.752,36.323,26.876-8.781,4.7-8.687,9.308-10.75,14.008,9.019-1.074,18.119-1.3,25.41-9.284-1.701,16.524,9.669,22.037,18.08,30.134,1.705-12.89,3.524-25.832,12.216-36.975,4.776,7.079,14.974,13.443,21.501,13.519-38.95,17.795-18.849,46.623-12.868,61.082,8.066-17.653,43.506-35.305,47.725-59.127.354,16.384.637,32.882,7.981,45.771,54.126-50.103,107.91-102.727,184.712-16.777l.489.977.652-1.14c-63.81-81.673-149.13-146.47-247.748-186.503Z"/>
        <path class="cls-29" d="M1362.729,937.295c-78.968,31.735-97.667,176.815-78.022,303.292-22.986-17.609-46.206-34.26-71.669-40.721l-.977-.326h-13.357c0,.164,0,.324,0,.489,0,130.874,44.249,251.877,118.906,349.388-21.337-62.032-9.797-139.171,29.319-150.017l.326-.652c-47.717-153.499-41.342-296.455,25.084-427.573-5.772-7.082-9.61-18.021-9.61-33.88Z"/>
        <path class="cls-29" d="M1765.055,615.923c-302.218,16.918-544.99,251.307-565.039,544.79l.969.223c26.291,5.383,45.369,19.754,62.711,36.323-18.479-125.783,7.03-268.226,83.397-294.333l.489-.652c-2.896-34.491,10.779-58.321,40.721-76.393,2.056,10.262,1.867,16.125.652,26.387,51.281-66.998,121.323-86.64,203.769-78.185l2.28.326c-.039-.168-.125-.321-.163-.489-.257-1.134-.439-2.299-.652-3.421-.269-1.428-.454-2.837-.652-4.235-.136-.937-.22-1.848-.326-2.769-.167-1.49-.396-2.96-.489-4.398-.019-.282.016-.535,0-.814-.094-1.688-.163-3.292-.163-4.887,0-1.846.034-3.686.163-5.538.011-.161-.012-.327,0-.489.407-5.398,1.462-10.895,2.932-16.288.177-.645.297-1.311.489-1.955.291-.982.652-1.952.977-2.932.11-.33.212-.648.326-.977.581-1.691,1.272-3.367,1.955-5.049,2.238-5.517,5.01-10.919,8.307-16.288,25.296-41.194,81.04-76.842,157.347-86.981v-.977h0Z"/>
        <path class="cls-29" d="M1373.153,898.691c-96.426,0-129.893,159.474-109.459,298.568-17.342-16.57-36.419-30.94-62.711-36.323-.583-.583-.525,36.287-.163,36.649,30.367,3.482,57.275,22.616,83.886,43.002-19.645-126.477-.946-271.557,78.022-303.292,0,57.086,49.538,50.41,61.245,30.134,12.402-21.481,11.339-68.737-50.82-68.737Z"/>
        <path class="cls-18" d="M1418.598,1465.368c-47.376,0-62.407,86.67-38.115,153.926.533.505,1.095.963,1.629,1.466-.04-6.871-.044-53.635,7.004-88.935,3.783-18.945,15.698-32.834,30.622-37.789,0,10.121,18.794,5.385,19.546-10.75.421-9.037-8.392-17.917-20.686-17.917Z"/>
        <path class="cls-29" d="M1860.47,1690.574c97.76,66.567,269.445-8.078,298.82-123.969-33.463,10.609-51.686-9.852-51.686-30.068,0-23.464,23.842-36.802,40.147-36.802,12.087,0,35.129,7.833,35.129,39.311,0,103.211-86.057,201.571-249.246,201.571-34.03,0-208.262-22.338-208.262-118.768,0-59.729,71.651-3.252,91.167-50.184,0,35.638-22.588,35.266-26.516,49.924-2.128,7.943-5.257,41.126,7.524,41.126,10.901-23.161,26.443-32.753,50.056-32.753,20.746,0,40.168,13.565,40.168,32.753,0,12.847-14.413,25.165-27.301,27.858h0Z"/>
        <path class="cls-18" d="M1405.242,833.211c-5.618,5.872-11.055,12.22-16.288,19.058-13.202,11.802-19.283,27.835-23.618,44.956l-.652,1.955c2.755-.301,5.574-.489,8.47-.489,7.012,0,13.206.694,18.732,1.792.682-16.613,4.401-32.011,12.216-45.771.736-6.178,3.598-15.308,1.14-21.501ZM1389.768,837.935c.05,1.36.037,2.854,0,4.235.047-1.405.046-2.851,0-4.235Z"/>
        <path class="cls-29" d="M1644.709,739.962c43.251-26.56,72.303,9.804,72.303,40.168,0,22.455-13.714,50.88-54.897,50.88-53.296,0-69.625-48.084-69.625-77.659,0-64.292,78.45-133.267,200.842-138.932-95.759,5.337-134.695,56.165-148.623,125.543Z"/>
        <path class="cls-24" d="M2242.751,1589.184c0-.6,1.725-4.472,3.833-8.604,5.072-9.942,8.063-21.604,8.404-32.762.42-13.763,5.752-51.217,10.342-72.646,11.944-55.761,31.298-97.708,60.874-131.932,8.942-10.347,10.439-11.31,14.93-9.603,8.284,3.15,16.346,2.16,21.599-2.651,6.242-5.717,7.835-12.92,4.58-20.704-2.467-5.899-2.341-6.131,5.153-9.486,11.013-4.93,15.835-13.926,15.845-29.552.004-7.409-1.267-15.201-3.04-18.629-2.611-5.049-2.737-10.072-.88-35.082,5.222-70.343-9.161-159.806-37.586-233.782-16.183-42.115-41.484-90.015-64.407-121.933-6.238-8.685-11.341-16.302-11.341-16.927,0-3.001,7.75,6.026,20.207,23.536,47.796,67.183,80.514,143.072,95.919,222.477,7.874,40.591,10.148,65.052,10.148,109.174,0,22.795-1.18,50.999-2.623,62.674-14.415,116.668-58.428,218.01-133.685,307.811-15.497,18.492-18.272,21.319-18.272,18.621h0Z"/>
        <path class="cls-29" d="M2163.292,1534.071c0,11.202-9.081,20.282-20.282,20.282s-20.282-9.081-20.282-20.282,9.081-20.282,20.282-20.282,20.282,9.081,20.282,20.282Z"/>
        <path class="cls-37" d="M1860.47,1690.574c-24.922-12.926-21.111-34.26-12.123-34.26,11.54,0,4.938,9.956,14.314,9.956,12.258,0,17.264-23.81-11.464-23.81-24.864,0-25.139,18.996-25.139,35.748M2163.371,1533.993c0,11.431-1.43,22.562-4.111,33.32"/>
        <path class="cls-37" d="M1816.538,1571.665c-4.209,58.364-71.315,18.936-58.501,76.858,10.857.374,16.689,2.221,37.62,14.191"/>
        <path class="cls-37" d="M1766.893,1616.602c9.475-.497,17.03.927,22.726,4.209"/>
        <path class="cls-37" d="M1761.001,1624.177c9.885-1.993,18.066,1.693,26.093,5.892"/>
        <path class="cls-37" d="M1756.792,1633.436c11.553-2.755,21.254.506,30.302,5.892"/>
        <path class="cls-37" d="M1757.634,1641.012c11.361-2.095,20.773,2.955,30.302,7.575"/>
        <path class="cls-38" d="M1747.654,1739.982c-26.768-4.956-54.419-15.505-85.542-48.041"/>
        <path class="cls-38" d="M1658.854,1626.461c26.978,25.533,63.891,29.901,86.604,46.548"/>
        <path class="cls-18" d="M2196.443,1501.878c44.535,29.032,35.694,79.428,6.746,118.17-28.948,38.741-78.004,65.828-113.899,87.206l-36.862,16.708c39.63-19.283,78.534-50.443,101.645-86.287,31.745-49.235,35.173-111.773,20.301-124.982l22.069-10.816Z"/>
        <path class="cls-29" d="M1419.739,1494.036c-14.925,4.955-26.84,18.844-30.622,37.789-7.048,35.301-7.041,82.061-7.004,88.935,60.747,57.194,133.864,101.966,215.008,130.308,28.662-45.128,48.432,1.351,81.768-.326,6.186-25.297-17.679-11.427-31.763-54.241-72.771-17.982-199.757-108.152-213.216-201-5.805,5.453-14.171,5.293-14.171-1.466Z"/>
        <path class="cls-37" d="M1419.683,1494.044c-1.435-6.068-.13-10.017,2.29-10.017"/>
        <path class="cls-18" d="M1357.679,1426.764c-8.325-.324-28.794,30.083-32.577,49.028-6.608,33.095-5.603,67.65-5.212,76.556,18.476,23.819,38.83,46.158,60.756,66.946-19.505-53.946-13.812-120.285,13.682-144.479-10.452-14.263-21.8-28.202-23.13-46.096-5.765,4.888-13.519,4.57-13.519-1.955Z"/>
        <path class="cls-37" d="M1405.34,1504.103c48.14,111.683,142.085,183.139,264.699,225.484"/>
        <path class="cls-37" d="M1392.813,1525.303c15.352,37.259,41.846,74.519,75.161,111.778"/>
        <path class="cls-37" d="M1386.068,1551.32c14.439,27.623,33.755,55.247,55.889,82.87"/>
        <path class="cls-37" d="M1383.177,1585.046c10.34,15.77,21.214,31.806,36.617,50.107"/>
        <path class="cls-37" d="M1556.562,1715.396c7.434,3.666,14.803,7.283,22.478,10.588"/>
        <path class="cls-37" d="M1501.507,1682.656c11.114,7.834,22.639,15.16,34.532,21.827"/>
        <path class="cls-37" d="M1460.623,1649.754c7.752,7.393,15.812,14.27,24.107,20.849"/>
        <path class="cls-18" d="M1269.676,1275.758c24.402,23.73,18.433,152.992,38.953,179.99-2.472-36.376-4.533-95.592-9.385-137.928-4.375-38.174-23.244-62.983,2.962-69.597-19.005-10.3-19.753-.185-23.8,16.79-13.006-16.965-34.553-10.116-39.543-4.667-18.39,20.084,17.338,50.48,30.812,15.413h0Z"/>
        <path class="cls-18" d="M1320.017,1556.103c-26.441-67.78-11.84-158.016,36.509-158.016,12.295,0,21.134,8.892,20.712,17.929-.752,16.135-19.588,20.836-19.588,10.715-8.325-.324-28.845,30.13-32.627,49.075-7.601,38.069-5.006,80.297-5.006,80.297h0Z"/>
        <path class="cls-37" d="M1284.73,1240.537c-19.443-20.385-52.782-50.278-83.149-53.76"/>
        <path class="cls-37" d="M1332.955,1457.054c9.391,9.76,16.151,17.766,21.908,25.103"/>
        <path class="cls-37" d="M1325.652,1478.049c10.177,4.969,17.728,13.878,25.56,22.365"/>
        <path class="cls-37" d="M1322.457,1498.588l21.908,22.821"/>
        <path class="cls-37" d="M1321.088,1525.061c7.017,6.372,13.815,12.962,19.626,20.539"/>
        <path class="cls-37" d="M1320.631,1543.318l20.995,19.626"/>
        <path class="cls-37" d="M1364.001,957.872c-88.967,149.078-65.93,298.157-30.412,447.235"/>
        <path class="cls-18" d="M2252.801,1530.863c9.617-76.127,26.842-148.851,84.04-203.691,0,0,4.419,5.698,14.244,5.698,10.251,0,15.194-7.86,15.194-14.321s-3.247-16.067-16.143-16.067c-39.452,0-132.411,130.978-97.335,228.381Z"/>
        <path class="cls-18" d="M2335.804,1234.071c-61.594,0-104.473,44.255-127.213,101.152-21.615,54.081-24.673,119.477-23.13,171.192l.326.652,10.588-5.212c0-12.986,4.502-19.244,10.913-20.524l-.163-.489c-12.4-126.091,51.028-235.116,129.819-226.084-16.994,11.811-12.755,47.237,17.754,47.237s31.111-23.088,31.111-30.459c0-9.095,1.862-37.464-50.006-37.464Z"/>
        <path class="cls-37" d="M1233.423,1272.931c-10.421,91.746,32.648,181.424,78.159,268.635"/>
        <path class="cls-37" d="M1231.686,1298.984c16.211,17.543,32.422,9.76,48.632,0"/>
        <path class="cls-37" d="M1232.844,1319.826c17.176,15.636,38.404,5.595,50.948-.579"/>
        <path class="cls-37" d="M1239.332,1120.237l-2.518,36.091"/>
        <path class="cls-37" d="M1237.234,1223.894v25.6"/>
        <path class="cls-37" d="M1289.272,1164.721l3.777-41.127"/>
        <path class="cls-37" d="M1298.086,1092.539c1.351-13.385,3.548-25.078,7.134-33.993"/>
        <path class="cls-37" d="M1315.307,1025.962l16.542-42.273"/>
        <path class="cls-37" d="M1398.321,922.424c19.883,3.028,20.984,42.473-4.901,40.741"/>
        <path class="cls-37" d="M1235.077,1340.632c18.55,12.653,35.578,9.315,51.83-2.159"/>
        <path class="cls-37" d="M1239.829,1364.387c16.922,6.129,33.465,6.202,49.239-6.047"/>
        <path class="cls-37" d="M1247.171,1390.302c16.104.739,32.033,1.041,43.624-9.502"/>
        <path class="cls-37" d="M1253.218,1410.171c16.243,3.613,29.383.244,41.032-6.479"/>
        <path class="cls-37" d="M1260.992,1431.766c13.147,3.589,24.559-.631,35.417-7.343"/>
        <path class="cls-37" d="M1269.199,1451.203c14.194,4.201,24.369.363,32.826-6.911"/>
        <path class="cls-37" d="M1276.404,1469.444c12.051,5.401,22.255,1.936,31.245-7.352"/>
        <path class="cls-37" d="M1284.215,1485.297c8.198,4.004,15.292,1.388,22.285-1.838"/>
        <path class="cls-37" d="M1291.797,1500.23c5.328,1.928,10.446,1.965,15.163-1.608"/>
        <path class="cls-37" d="M1296.851,1509.879c3.523,1.128,7.046,1.809,10.568-.689"/>
        <path class="cls-37" d="M1301.676,1520.678c2.906,1.36,5.518,1.244,7.811-.459"/>
        <path class="cls-37" d="M1776.433,1057.188c10.832-1.626,22.145-3.205,38.487-.423"/>
        <path class="cls-29" d="M1823.44,1028.857c-12.355,14.982-20.772,32.917-23.495,55.123,22.065-5.4,35.468-13.275,40.665-23.495"/>
        <path class="cls-18" d="M1388.302,825.881c-29.943,18.072-43.617,41.902-40.721,76.393l-.489.652c5.584-1.904,11.467-3.123,17.592-3.746l.652-1.955c4.336-17.122,10.417-33.154,23.618-44.956,1.215-10.262,1.405-16.125-.652-26.387Z"/>
        <path class="cls-37" d="M1622.76,780.111c17.585,42.324,54.564,35.049,66.141,21.7,11.448-13.199,14.175-56.65-34.02-46.916"/>
        <path class="cls-37" d="M1313.071,911.497l20.842-26.053"/>
        <path class="cls-37" d="M1403.14,811.751l28.286-24.564"/>
        <path class="cls-29" d="M1595.003,774.41l-2.28-.326c-74.032-7.592-138.054,7.466-187.481,59.127,2.458,6.192-.337,15.387-1.073,21.565,40.914-52.539,115.846-66.034,196.047-64.566-1.906-5.208-3.697-10.465-5.212-15.8Z"/>
        <path class="cls-25" d="M1450.461,772.408c35.555-31.038,81.633-55.762,131.527-78.196-19.163,21.861-42.362,43.722-43.242,65.583-32.858-2.655-62.154,1.815-88.286,12.612Z"/>
        <path class="cls-37" d="M2028.552,802.017l-14.863-11.108c85.475-67.199,191.916-14.269,235.883,20.925"/>
        <path class="cls-37" d="M2050.037,815.445c29.862-.674,63.235-37.136,93.642-20.098"/>
        <path class="cls-37" d="M2057.422,735.55c22.388,8.143,59.32.188,97.671,14.143"/>
        <path class="cls-29" d="M1799.912,614.782c-4.921,0-9.767.177-14.66.326-.213.018-.439-.019-.652,0-89.356,7.899-126.425,57.723-139.918,124.933,23.428-14.387,42.646-10.281,55.381,1.303,105.09-81.191,228.314-27.494,286.026-7.167,22.12-5.772,43.171-10.244,71.344,1.303.243-26.745-32.971-43.998-27.528-75.09l1.14-.652c-71.17-28.912-149.244-44.956-231.134-44.956Z"/>
        <path class="cls-37" d="M1679.611,729.967c113.298-84.188,247.22-40.254,329.646-1.44"/>
        <path class="cls-37" d="M1653.7,708.854c34.892-20.699,71.966-35.723,113.241-39.826"/>
        <path class="cls-37" d="M1664.736,684.383c36.594-17.921,75.061-26.476,114.2-31.669"/>
        <path class="cls-37" d="M1687.768,654.153c18.572-6.963,37.728-11.59,57.58-13.435"/>
        <path class="cls-37" d="M2004.982,686.305c4.25,2.105,8.472,4.277,12.668,6.512"/>
        <path class="cls-37" d="M1950.998,664.064c12.377,4.046,24.487,8.739,36.368,13.986"/>
        <path class="cls-37" d="M1884.888,649.43c11.731,1.367,23.206,3.35,34.453,5.887"/>
        <path class="cls-37" d="M1815.016,648.753c12.169-1.145,24.064-1.626,35.706-1.494"/>
        <path class="cls-29" d="M2198.655,800.634c-1.608-.024-3.134.077-4.724.163-22.722,1.231-43.615,13.516-63.851,29.645,98.5,103.256,151.807,275.089,138.452,424.641,19.102-13.156,41.525-21.012,67.272-21.012,24.503,0,36.945,6.369,43.327,14.008,21.552-167.94-53.473-353.259-145.131-437.835-12.305-6.46-24.089-9.444-35.346-9.61Z"/>
        <path class="cls-29" d="M2227.974,807.313c55.32,103.955,128.929,279.39,103.269,426.922,1.529-.057,3.007-.163,4.561-.163,4.043,0,7.663.328,11.076.652,13.024-119.984-5.976-256.133-118.58-427.247-.111-.049-.215-.114-.326-.163Z"/>
        <path class="cls-37" d="M2285.771,1244.519c6.248-148.221-27.532-302.406-140.579-424.567"/>
        <path class="cls-37" d="M2309.075,1195.439c.274,9.942.37,20.011.283,30.21"/>
        <path class="cls-37" d="M2298.876,1089.805c3.377,19.823,5.975,40.253,7.743,61.298"/>
        <path class="cls-37" d="M2275.885,996.22c5.199,15.915,9.843,32.302,13.895,49.165"/>
        <path class="cls-37" d="M2227.247,886.01c10.486,18.408,20.114,37.65,28.797,57.741"/>
        <path class="cls-37" d="M2184.818,821.839c5.997,7.88,11.82,15.948,17.459,24.206"/>
        <path class="cls-37" d="M2347.14,1264.632c-12.096,14.275,4.736,27.765,16.504,23.842,10.72-3.573,16.931-23.435-.743-34.199"/>
        <path class="cls-37" d="M2329.006,1337.14c6.901,7.902,18.128,10.399,29.579,12.614"/>
        <path class="cls-37" d="M2316.391,1348.884c6.771,10.361,17.277,10.766,27.404,12.179"/>
        <path class="cls-37" d="M2305.517,1366.718c16.832,11.332,25.917,8.72,37.409,10.44"/>
        <path class="cls-37" d="M2297.252,1378.463c8.908,8.22,19.677,10.856,30.884,12.179"/>
        <path class="cls-37" d="M2289.422,1392.817c6.555,9.752,16.355,14.314,28.709,14.789"/>
        <path class="cls-37" d="M2280.723,1413.261c9.158,10.345,20.306,12.733,31.754,13.919"/>
        <path class="cls-37" d="M2275.068,1430.661c8.265,7.847,16.529,9.438,24.794,10.44"/>
        <path class="cls-37" d="M2268.978,1448.93c9.897,8.977,20.706,10.667,31.754,10.44"/>
        <path class="cls-37" d="M2264.193,1466.764c11.31,11.942,22.619,9.354,33.929,10.44"/>
        <path class="cls-37" d="M2261.148,1482.859c9.715,9.866,19.429,9.379,29.144,7.83"/>
        <path class="cls-37" d="M2257.669,1498.518c4.785,4.888,18.269,9.753,27.404,8.265"/>
        <path class="cls-37" d="M2255.487,1516.567c7.77,6.527,18.549,5.226,29.585,6.31"/>
        <path class="cls-37" d="M1357.65,1426.731c-1.435-6.068-.13-10.017,2.29-10.017"/>
        <path class="cls-37" d="M2232.224,1413.496c2.621-11.203,5.996-21.964,10.125-32.283"/>
        <path class="cls-37" d="M2258.358,1349.336c6.005-9.768,12.83-19.055,20.475-27.86"/>
        <path class="cls-37" d="M2295.909,1303.864c6.318-5.855,13.061-11.461,20.228-16.817"/>
        <path class="cls-37" d="M2225.477,1468.366c.17-7.07.578-13.999,1.225-20.789"/>
        <path class="cls-37" d="M1782.429,919.569c5.602.093,16.43.956,24.212.956,2.217,0,8.401,1.163,4.141,2.867-5.149,2.06-9.451,3.611-13.699,7.009-2.709,2.167-7.893,1.929-2.867,3.186,4.388,1.097,8.628.345,11.787,3.504.174.174-6.388,3.831-10.832,6.053-9.81,4.905-6.884,3.823,1.593,3.823,4.959,0,13.3,4.878,4.779,7.009-5.617,1.404-10.19.791-12.106,3.186-1.702,2.128,11.652-2.047,15.292,1.593,1.708,1.708-12.889,6.72-13.699,7.327-2.471,1.853,12.201,1.994,14.973,2.549,1.716.343,3.327,1.186,4.779,1.912"/>
        <path class="cls-29" d="M1879.467,1003.554c-17.624,3.08-29.579,42.927-50.605,48.798,1.658-16.266.786-32.532,16.266-48.798"/>
        <path class="cls-29" d="M1862.931,972.673c-28.058,11.709-51.2,26.512-58.226,51.463,27.79-15.863,67.766-17.305,69.107-49.698"/>
        <path class="cls-29" d="M1849.649,931.993l-12.106-21.026c-.451,19.953-4.116,40.365-10.513,61.167,12.606-4.633,18.195-15.406,24.212-25.805-5.26,18.128,3.91,24.45,17.203,27.398,25.619-22.4,48.705-45.811,47.15-74.866-1.924-35.937-45.248,9.74-58.937,27.716"/>
        <path class="cls-15" d="M1919.044,925.407l-4.926,27.502,22.166,32.017-11.083,9.031c.342,18.155,10.578,32.6,19.292,47.615,13.468-48.129,7.036-87.73-25.45-116.165h0Z"/>
        <path class="cls-37" d="M1925.201,993.957c.342,18.155,10.578,32.6,19.292,47.615,13.468-48.129,7.036-87.73-25.45-116.165M1914.119,952.909l22.166,32.017"/>
        <path class="cls-29" d="M1507.96,1186.392c-8.044,5.653-19.995,4.796-30.878,5.718,19.315,8.668,38.63,6.035,57.944,4.956-4.848,5.291-13.676,7.596-22.491,9.911,23.382,5.724,43.138-1.247,62.519-9.53-.046,3.939-4.164,7.878-10.293,11.818,18.714,1.067,35.41-3.247,51.082-10.293-.541,6.735-7.253,13.47-13.724,20.204,20.399-4.142,34.966-12.659,47.27-22.873.525,6.226-.923,12.453-6.481,18.679,14.71-.711,28.612-10.315,42.314-22.11l-.762,17.154c13.819-2.7,26.391-6.647,33.165-16.392"/>
        <path class="cls-29" d="M1888.516,971.497c-3.239,23.153,6.353,34.461,12.645,48.816,3.193-20.357,5.473-41.235,3.235-64.696"/>
        <path class="cls-29" d="M1802.732,1177.017c-8.882,15.036-8.84,29.329-7.468,43.51,12.456-18.254,33.153-15.378,44.16-41.562"/>
        <path class="cls-29" d="M1832.409,1131.362c-23.878,16.116-64.504,29.812-60.395,69.891,17.666-11.109,33.927-22.92,57.356-31.147"/>
        <path class="cls-29" d="M1887.192,1022.372c-47.997,27.587-26.008,52.702-38.602,79.461-10.117,21.496-27.237,43.952-23.154,71.84,22.349-2.67,40.733-24.339,42.79-51.832,1.711-22.874,21.393-49.347,18.965-60.357"/>
        <path class="cls-37" d="M1639.388,1146.65c23.738-1.871,48.216-21.564,67.025-21.754"/>
        <path class="cls-29" d="M1741.332,1102.752c-49.539,5.894-30.974,40.388-60.53,68.494,25.875-4.437,47.327-19.196,68.176-35.362"/>
        <path class="cls-29" d="M1730.231,1153.179c-9.441,10.424-9.089,33.312-9.686,54.992,40.109-16.944,58.259-50.723,73.739-86.549"/>
        <path class="cls-29" d="M1815.613,1089.677c-3.247,27.303-50.225,38.006-75.05,47.48,1.783-16.211,11.764-29.689,22.592-42.886h0"/>
        <path class="cls-29" d="M1789.193,1076.276c-15.652,5.26-29.019,13.377-40.588,23.74,14.844,13.793,30.474,9.524,46.332,0"/>
        <path class="cls-29" d="M1846.567,1177.017c-3.164,35.355-40.886,45.071-25.652,93.84,13.423-34.396,38.184-49.475,37.341-78.579"/>
        <path class="cls-29" d="M1858.269,1192.903c2.234,36.313-25.426,54.673.309,86.938,13.521-22.021,9.514-53.322,9.901-82.297"/>
        <path class="cls-29" d="M1894.722,1262.209c-16.133-9.125-27.996-26.177-26.243-61.571"/>
        <path class="cls-23" d="M1649.244,945.439c-29.294,74.46,82.581,47.795,118.255,72.972,2.671-2.072,4.616-4.605,5.864-7.493l1.955-9.284c0-.052,0-.11,0-.163.031-3.111-.365-6.568-1.14-10.099-.511-2.088-1.051-4.448-1.629-7.004-52.987-14.175-89.939,32.566-123.304-38.93Z"/>
        <path class="cls-37" d="M2112.889,1189.793c2.931-9.86-1.191-26.222-5.285-39.333"/>
        <path class="cls-37" d="M1892.853,1211.256c-11.333-19.853-6.944-41.951-6.298-63.515"/>
        <path class="cls-37" d="M1920.9,1151.286c-10.902-13.705-11.617-27.41-11.803-41.115"/>
        <path class="cls-37" d="M1964.794,944.556c-12.943-2.704-14.014-27.531-30.77-30.17"/>
        <path class="cls-37" d="M1977.546,999.103c-11.918-10.852-14.386-21.704-18.232-32.556"/>
        <path class="cls-29" d="M1914.982,998.699c-7.412,36.71-2.501,73.42,9.263,110.13,14.41-14.41,19.213-31.564,14.41-51.463"/>
        <path class="cls-37" d="M1859.844,900.773c12.794-6.686,26.146-14.488,43.964-31.221"/>
        <path class="cls-37" d="M1787.208,858.72c27.881,4.748,41.662,14.623,50.973,26.123"/>
        <path class="cls-37" d="M1731.775,907.781l-43.327,19.752c18.89,12.13,45.314,9.193,70.724,8.283M1688.448,927.533c24.236-1.268,45.001-3.404,62.441-6.372"/>
        <path class="cls-29" d="M1894.29,1087.224c-11.448,20.224-15.311,43.294-16.962,67.192,20.574-13.548,30.609-36.229,32.689-65.805"/>
        <path class="cls-31" d="M1746.621,898.925c20.774,5.473,27.075,11.27,38.266,11.096,14.476-.225,25.309-9.722,39.78-11.426-19.47-.271-23.382-15.536-37.971-18.493-10.76-2.181-18.056,5.715-40.074,18.823Z"/>
        <path class="cls-19" d="M1786.221,901.235c0,4.192-3.398,7.59-7.59,7.59s-7.59-3.398-7.59-7.59,3.398-7.59,7.59-7.59,7.59,3.398,7.59,7.59Z"/>
        <path class="cls-37" d="M1700.514,1218.071c3.109,21.586-8.768,16.668-12.789,36.321"/>
        <path class="cls-37" d="M1754.229,1234.952c-13.072,14.362-17.11,33.554-13.812,58.83"/>
        <path class="cls-37" d="M1761.391,1254.392c-10.463,15.206-11.444,34.626-9.72,55.249"/>
        <path class="cls-37" d="M1771.11,1276.901c-5.525,14.276-8.503,29.061-.512,46.041"/>
        <path class="cls-22" d="M1413.347,1140.386c-14.8,6.163-26.218,14.862-35.04,25.509"/>
        <path class="cls-29" d="M1395.406,1181.033c27.776-35.717,45.906-12.677,65.876-.841"/>
        <path class="cls-23" d="M1392.615,1217.403c-3.423-16.412-11.298-31.722,15.255-39.663,9.885,8.426,13.038,14.328,10.538,18.343-9.45,3.097-23.992,7.946-25.793,21.32Z"/>
        <path class="cls-23" d="M1368.206,1201.385c8.853-16.361,32.321-12.84,25.934-35.595-28.887-1.017-25.821,18.301-25.934,35.595Z"/>
        <path class="cls-23" d="M1356.257,1178.248c4.154-15.198.255-37.105,27.205-33.307,8.207,21.054-13.54,18.368-27.205,33.307Z"/>
        <path class="cls-18" d="M1935.758,1605.286c-33.23,5.136-31.26,26.449-31.763,46.585l20.361-1.466c-.727-8.566-1.468-31.894,11.402-45.119Z"/>
        <path class="cls-23" d="M1929.664,1682.44c-8.847-29.911,5.741-46.4-18.379-46.358-20.075,26.726,4.646,38.888,18.379,46.358Z"/>
        <path class="cls-23" d="M1950.25,1686.347c-10.591-12.644-37.538-15.563-18.308-45.938,23.759-.306,11.605,17.304,18.308,45.938Z"/>
        <path class="cls-23" d="M1972.869,1688.345c-11.763-12.387-36.582-15.175-20.639-47.935,33.91,5.308,13.152,20.431,20.639,47.935Z"/>
        <path class="cls-37" d="M1785.614,1334.158c-5.306-15.509-9.018-31.177-1.787-48.25"/>
        <path class="cls-37" d="M1798.123,1336.541c-4.235-9.118-5.097-19.078-2.978-29.784"/>
        <path class="cls-37" d="M1818.376,1366.325c-2.706-13.105-4.963-26.21-2.978-39.315"/>
        <path class="cls-37" d="M1827.312,1374.665c-1.95-6.631-3.893-13.263-1.191-21.445"/>
        <path class="cls-37" d="M1852.33,1398.492c-6.048-24.224-12.757-27.004-9.531-40.507"/>
        <path class="cls-29" d="M1991.878,1413.396c9.361,26.532,1.124,51.76-4.059,77.118-.234-22.021-3.521-40.586-18.671-51.953,12.447-1.082,21.106-11.094,22.729-25.165h0Z"/>
        <path class="cls-18" d="M1801.215,1344.996c-47.326,13.066-121.186,22.957-121.186,47.725,0,15.299,11.076,15.384,11.076,35.183,0,25.143-31.885,42.06-59.29,57.824-10.567-6.539-21.196-14.629-31.763-12.379-3.022-9.788-9.728-13.838-21.989-13.845-17.365,0-33.936,15.507-39.255,40.721l22.641,33.066,40.721,15.474c.825.413,1.781.89,2.606,1.303,3.762,1.881,7.328-2.483,9.773-3.095,1.314-.329,4.086-4.253,5.049-5.538,1.762-2.349,3.421-4.236,4.887-5.701,1.774-1.774,2.872-4.441,3.746-6.19.331-.663,8.713,0,9.936,0,3.793,0,7.46-.072,11.076.652,4.686.937,6.095-.952,7.493-3.746,1.022-2.043,3.605-4.246,6.19-5.538,2.332-1.166,5.863-.652,8.633-.652,2.583,0,4.091-3.512,6.841-4.887,2.332-1.166,5.863-.652,8.633-.652,2.461,0,4.05-3.049,6.841-3.746,3.711-.928,4.715-1.787,7.33-3.095,3.597-1.799,6.627-.458,9.936-2.443,1.678-1.007,7.25,0,9.284,0,3.121,0,4.933-2.374,6.19-4.887.621-1.242,3.872-.263,5.049-.652,12.172-4.016,12.483-21.594,14.171-35.346,2.26-18.408,7.647-31.511,47.725-33.391,46.49-2.155,44.685,14.477,71.018,16.614-.823-7.15-1.318-14.722-1.629-22.804-1.199-31.182-49.378-52.425-61.733-79.977Z"/>
        <path class="cls-37" d="M1552.176,1510.34c2.409-2.834,5.671-5.235,6.632-9.013,2.951-4.762,7.851-8.311,11.683-11.532,2.935-.244,5.897.156,8.819-.172,2.656-.824,3.921-3.603,4.848-5.99,1.714-3.483,6.263-3.515,8.735-6.161"/>
        <path class="cls-37" d="M1573.761,1523.936c3.098-1.428,6.785-1.936,9.108-4.692,2.186-2.062,4.723-4.432,4.622-7.7-.242-2.809,1.36-5.907,4.292-6.493,3.977-.645,8.032.152,12.021.38,4.474.334,9.002.611,13.476.154,2.812-1.064,5.753-1.425,8.747-.847,2.928.762,4.319-2.327,5.884-4.124.777-.937-.283.316.718-.225"/>
        <path class="cls-23" d="M1539.299,1542.578c4.293-24.228,34.403-28.394,1.84-49.302-17.179,15.459-18.018,31.88-1.84,49.302Z"/>
        <path class="cls-23" d="M1565.421,1563.181c-3.558-23.056,31.354-36.179-4.415-49.302-22.97,15.582-9.512,42.872,4.415,49.302Z"/>
        <path class="cls-23" d="M1591.176,1573.851c-15.975-12.297-22.739-43.7-.368-47.462,34.116,12.659,3.077,23.951.368,47.462Z"/>
        <path class="cls-37" d="M1746.708,1456.764l-20.347-19.173"/>
        <path class="cls-37" d="M1751.403,1446.591l-14.086-20.738"/>
        <path class="cls-37" d="M1758.837,1437.591l-16.043-26.607"/>
        <path class="cls-37" d="M1771.358,1432.505l-17.608-27.39"/>
        <path class="cls-37" d="M1785.053,1431.331l-19.564-34.824"/>
        <path class="cls-37" d="M1801.487,1429.374l-17.608-39.911"/>
        <path class="cls-37" d="M1819.095,1430.939l-14.086-37.954"/>
        <path class="cls-37" d="M1833.181,1435.243c-.587-12.782-2.588-25.564-9.391-38.346"/>
        <path class="cls-18" d="M1447.032,962.814c-12.859,19.735,31.376,20.491,45.868,26.981,0,0,.23-10.902-6.84-15.171-7.52-4.541-39.028-11.81-39.028-11.81Z"/>
        <path class="cls-23" d="M1434.441,970.908c4.052-12.283,10.043-20.686,18.887-23.384,12.107,5.133,7.784,11.471,8.708,18.842-13.007-9.341-19.13.255-27.594,4.542Z"/>
        <path class="cls-18" d="M1450.035,978.179l-9.447.652c-3.388,11.966,4.643,18.408,22.478,21.854,20.417,3.944,45.472,5.857,35.509-7.194l-37.952-11.891c-.723-.213-1.422-.425-2.118-.652l-8.47-2.769Z"/>
        <path class="cls-18" d="M1441.103,999.632c-13.908,23.061,26.642,17.71,43.374,24.785-12.282-10.924,22.26-22.477-43.374-24.785Z"/>
        <path class="cls-18" d="M1490.268,936.969c-15.249,1.215-22.811,10.526-35.346,11.402,9.848,4.969,6.293,10.944,7.167,17.917-3.501-2.514-6.448-3.536-9.122-3.746v1.792c7.335,1.76,26.821,6.491,33.066,10.262,7.07,4.269,6.841,15.148,6.841,15.148-7.044-3.155-21.125-4.861-32.251-8.144l37.952,11.891c9.963,13.051-15.092,11.111-35.509,7.167-3.851-.744-7.178-1.722-10.099-2.769v2.28c49.321,3.265,19.978,14.077,31.437,24.27,11.695,6.666,16.033,17.015,19.058,28.016,5.21-6.185,9.607-9.764,13.357-11.565,5.382,11.134,6.175,25.372,7.167,39.418,4.457-5.047,12.383-9.712,14.171-17.429,2.359,13.426,7.791,14.151,9.284,32.251,3.245-5.551,7.053-10.358,13.194-11.565-2.404,10.053,5.142,15.309,5.049,30.297l11.402-18.732c4.928,9.572,5.955,18.919,5.049,28.505,7.024-2.715,12.477-7.777,13.682-19.22,1.397,10.118.97,22.047.977,33.554,4.484-1.525,8.865-3.71,11.076-12.053-1.204,6.648,1.637,15.291,5.375,23.293,1.013-1.502,2.297-2.248,3.095-.652.768,1.535,3.896,5.714,6.678,2.932,1.331-1.331,2.508-6.963,4.072-5.701,7.985,6.442,2.698,0,6.515,0,1.712,0,5.523,3.549,5.864.652.127-1.076.199-2.181.326-3.258,5.217-25.793,21.751-37.163,41.536-43.49-31.9-35.057-68.105-55.853-106.853-79.651-11.066-6.797-17.995-15.33-24.759-21.175-22.925-19.813-29.721-32.19-34.532-44.305-5.132-12.925-14.159-17.592-21.501-17.592-1.146,0-2.354-.085-3.421,0Z"/>
        <path class="cls-11" d="M1690.291,887.941c-4.089,1.378-7.453,2.443-9.122,2.443-10.196,0-19.538,10.04-14.008,24.921.703,1.893,1.167,4.192,1.466,6.515,12.576-6.249,21.349-18.967,21.664-33.88Z"/>
        <path id="a" class="cls-6" d="M1479.152,892.021c0,6.812-5.522,12.334-12.334,12.334s-12.334-5.522-12.334-12.334,5.522-12.334,12.334-12.334,12.334,5.522,12.334,12.334Z"/>
        <path id="a-2" data-name="a" class="cls-6" d="M1517.696,898.188c0,6.812-5.522,12.334-12.334,12.334s-12.334-5.522-12.334-12.334,5.522-12.334,12.334-12.334,12.334,5.522,12.334,12.334Z"/>
        <path id="a-3" data-name="a" class="cls-6" d="M1496.042,908.28c0,6.812-5.522,12.334-12.334,12.334s-12.334-5.522-12.334-12.334,5.522-12.334,12.334-12.334,12.334,5.522,12.334,12.334Z"/>
        <g>
          <path class="cls-36" d="M1856.782,770.512c-2.464-.213-5.384-.134-8.474.124-4.498-.437-9.624-.2-15.876,2.37-.029.012-.061.012-.09.024-3.335.658-6.197,1.298-8.108,1.747-.005-.002-.012,0-.017-.002-6.896-3.123-26.862-9.871-31.539,14.094-.029.147.002.4.089.723.001.005-.003.012-.002.017-1.126,3.721-.467,10.559-.467,10.559.779.709,1.237,2.121,1.35,2.572.001.007-.004.026-.004.034-.044.484-2.009,2.203-1.796,3.039.001.004.014.016.015.019.005.014.005.04.011.053.002.003.013.016.015.019.004.007.009.03.013.036.002.003.013.016.015.019.002.003.013.016.015.019.002.003.013.016.015.019.008.009.023.013.032.021.561.539.869,2.581,1.089,4.366.001.011-.005.023-.004.034-.002.007,0,.011-.002.017-.209.649-.23,1.235.1,1.679.05.067.088.131.132.207.231,2.196,2.678,23.231,2.275,24.29-.4,1.063,1.352,2.66,3.025,3.41.196.088.673.21,1.418.356.023.011.043.014.067.025,9.831,4.816,18.92,3.447,38.035,4.834,4.97.536,10.293,1.091,15.911,1.647.067.007.139.017.206.024.12.012.241.03.36.042,5.596.752,10.903,1.437,15.863,2.058,18.922,3.047,27.452,6.471,38.127,4.046.023,0,.048-.01.071-.009.758.029,1.251.02,1.462-.021,1.8-.345,3.872-1.496,3.728-2.623-.148-1.123.986-5.331,1.167-6.882s1.486-3.24,2.209-3.894c.213-.193.491-.628.763-1.179.857.435,1.937,1.186,2.303,1.259.003,0,.014.002.017.002.003,0,.014.002.017.002.003,0,.015.002.017.002.002,0,.015.002.017.002.002,0,.015.003.017.002.004-.002.016-.013.019-.015.001-.001,0-.016.002-.017.002-.003.018-.011.019-.015,0-.002.002-.015.002-.017,0-.008-.012-.027-.013-.036-.001-.006.006-.027.004-.034-.001-.004-.014-.015-.015-.019-.071-.2-.344-.606-.908-1.304-.003-.004-.012-.015-.015-.019-.666-.994,1.45-8.866,2.18-10.95.061-.063.112-.117.176-.171.423-.356.538-.932.483-1.611.002-.005,0-.012.002-.017-.001-.014.005-.02.004-.034.625-1.686,1.394-3.603,2.064-3.998.011-.006.026-.006.036-.013.003-.002.016-.013.019-.015.003-.002.016-.013.019-.015.003-.003.016-.012.019-.015.005-.005.016-.027.021-.032.002-.003.017-.012.019-.015.014-.018.031-.045.042-.065.4-.764-1.118-2.889-1.049-3.371.003-.012.016-.023.021-.032.214-.413.967-1.684,1.889-2.194,0,0,2.215-6.504,1.975-10.384,0-.005.002-.012.002-.017.16-.294.247-.533.253-.683.962-24.398-20.021-22.424-27.451-20.971-.005-.002-.012,0-.017-.002-1.756-.877-4.394-2.158-7.488-3.566-.023-.016-.042-.026-.065-.042-5.493-3.942-10.427-5.349-14.905-5.959-5.306-1.732-10.219-2.769-13.235-2.099-.488.108-.983.189-1.47.245-.456-.166-.913-.36-1.357-.575-1.236-.598-2.901-.954-4.872-1.124Z"/>
          <path class="cls-20" d="M1824.152,786.461c-1.52.35-4.45,12.718-3.661,16.91.546,2.902,1.376,4.917,1.847,6.153-1.031-2.084-3.442-6.126-6.692-6.213-4.086-.109-4.53,13.024-4.424,13.873,0,.003,0,.011,0,.014,0,.002.009.012.009.014,0,0,.009,0,.009,0,.181-.309,1.8-5.699,5.841-5.592,2.66.071,4.753,3.214,5.523,4.55.002.415.012.816.017,1.221-.591,1.226-.954,4.158-2.781,7.813-2.207,4.416-9.05,4.693-10.2,4.708.29.008,11.221.298,14.811.394.014,0,.033.002.047.001.007.001.012,0,.019,0,.014.002,14.568.387,14.858.395-1.151-.076-2.907-3.159-9.298-5.653-3.27-3.496-3.241-6.305-3.849-7.562,0-.405.004-.806.002-1.221.753-1.295,2.806-4.328,5.466-4.258,4.041.107,5.729,5.586,5.915,5.904,0,0,.009,0,.009,0,0-.002.009-.011.009-.013,0-.003,0-.011,0-.014.095-.843-.518-14.004-4.603-14.113-3.25-.086-5.61,3.829-6.615,5.859.455-1.211,1.259-3.73,1.671-6.059.746-4.218-2.334-17.067-3.856-17.11-.024,0-.051-.008-.075-.002ZM1822.375,809.607c.107.218.201.406.275.57.002.003.17,1.311.172,1.314,0,.028.814,4.492.814,4.52-.08-.174-1.157-6.138-1.26-6.404ZM1826.375,809.714c-.1.261-1.166,6.168-1.244,6.338,0-.028.978-5.741.977-5.769,0-.005-.122,1.298-.122,1.293.072-.16.286-1.649.39-1.862ZM1897.976,795.815c-1.56.026-6.997,11.515-7.097,15.78-.07,2.952.324,5.096.528,6.402-.575-2.253-2.093-6.708-5.254-7.468-3.974-.956-7.139,11.798-7.211,12.65,0,.003-.003.011-.003.013,0,.002.006.014.006.016,0,0,.008.003.009.002.242-.264,2.945-5.2,6.876-4.255,2.587.622,3.981,4.132,4.456,5.598-.084.406-.158.801-.237,1.198-.833,1.076-4.094,5.276-8.383,6.441-4.764,1.294-5.79,3.332-6.918,3.107.282.068,10.914,2.625,14.406,3.464.014.003.032.009.045.011.006.002.012.002.018.004.013.005.032.008.045.011,3.492.84,14.123,3.397,14.406,3.464-1.11-.313-4.225-2.364-7.192-6.473-2.625-3.635-2.587-7.83-2.919-9.186.084-.396.172-.788.255-1.194,1.006-1.11,3.645-3.65,6.232-3.028,3.931.945,4.443,6.655,4.558,7.005,0,0,.009.002.009.002,0-.002.011-.009.012-.011,0-.002.002-.011.003-.013.268-.805,2.405-13.806-1.568-14.761-3.161-.76-6.283,2.579-7.688,4.356.697-1.09,2.007-3.387,2.894-5.579,1.607-3.971,1.265-17.179-.215-17.538-.023-.006-.048-.018-.073-.017ZM1891.426,818.086c.059.235.112.439.15.614,0,.004-.106,1.318-.105,1.321-.006.027-.138,4.563-.144,4.591-.042-.187.145-6.245.099-6.526ZM1895.316,819.022c-.152.234-2.423,5.791-2.534,5.941.005-.028,2.15-5.412,2.155-5.44,0-.005-.389,1.244-.389,1.239.104-.142.622-1.554.768-1.74Z"/>
          <path class="cls-26" d="M1795.047,805.105l6.59-6.362s.457.758,0,0c-10.046-16.671-9.621-25.514-7.772-29.802,1.85-4.288,5.074-8.79,12.866-13.886,7.792-5.096,12.309-1.232,18.966-.456,6.658.776,8.26,2.464,13.944,3.877,5.684,1.413,21.131,3.965,21.131,3.965l.475-4.073s.599.186,0,0c-6.71-2.078-15.534-1.811-21.131-3.965s-10.436-3.093-16.65-3.818c-6.214-.724-10.459-3.056-14.756-.93-4.297,2.126-9.697,5.999-13.679,9.288-3.982,3.288-6.621,10.486-6.738,15.351-.117,4.865,1.183,9.144,3.414,13.157s1.442,6.923,2.028,9.618c.585,2.695,1.269,8.404,1.313,8.034ZM1923.038,820.028l-4.95-7.707s-.619.633,0,0c13.612-13.913,15.233-22.616,14.42-27.214-.813-4.598-2.915-9.722-9.326-16.473s-11.695-4.031-18.353-4.807c-6.658-.776-8.606.498-14.462.565-5.856.068-21.477-1.003-21.477-1.003l.475-4.073s-.626.043,0,0c7.008-.479,15.534,1.811,21.477,1.003,5.943-.808,10.868-.609,17.082.115s10.882-.567,14.574,2.49,8.057,8.069,11.176,12.186c3.119,4.116,4.031,11.728,3.026,16.489-1.005,4.761-3.255,8.627-6.35,12.019-3.095,3.392-2.996,6.405-4.186,8.894-1.19,2.488-3.169,7.886-3.126,7.516Z"/>
          <path class="cls-17" d="M1856.035,754.36l20.581,2.4-4.922,42.214-20.581-2.4,4.922-42.214Z"/>
          <path class="cls-30" d="M1862.833,717.431s2.005,2.061,3.435,4.578c1.43,2.517,2.284,5.488,2.284,5.488,0,0-2.695-1.515-4.816-3.486-2.12-1.97-3.665-4.396-3.665-4.396l-1.826,15.662s2.061-2.005,4.578-3.435c2.517-1.43,5.488-2.284,5.488-2.284,0,0-1.186,2.232-2.103,4.977-.826,2.469-5.849,7.807-5.849,7.807l12.585,2.33s-1.328-6.94-1.883-9.57c-.597-2.832-.689-5.302-.689-5.302,0,0,2.695,1.515,4.816,3.486,2.12,1.97,3.665,4.396,3.665,4.396l1.826-15.662s-2.061,2.005-4.578,3.435c-2.517,1.43-5.488,2.284-5.488,2.284,0,0,1.515-2.695,3.486-4.816,1.97-2.12,4.396-3.665,4.396-3.665,0,0-15.662-1.826-15.662-1.826Z"/>
          <path class="cls-16" d="M1877.618,747.446c-.655,5.64-5.759,9.68-11.399,9.023s-9.677-5.764-9.017-11.403c.655-5.64,5.759-9.68,11.399-9.023s9.677,5.764,9.017,11.403Z"/>
          <path class="cls-30" d="M1857.259,746.556l20.306,2.368s.752-3.893-.546-5.534l-6.308-.736.58-5.9-5.979-.697-.793,5.875s-4.269-.282-6.224-.51c-1.167,2.303-1.054,2.521-1.054,2.521,0,0,.019,2.613.019,2.613Z"/>
          <path class="cls-16" d="M1848.493,794.836s3.348,3.442,5.735,7.644c2.387,4.202,3.814,9.164,3.814,9.164,0,0-4.5-2.53-8.04-5.82-3.54-3.29-6.119-7.34-6.119-7.34l-3.049,26.15s3.442-3.348,7.644-5.735c4.202-2.387,9.164-3.814,9.164-3.814,0,0-2.53,4.5-5.82,8.04-3.29,3.54-7.34,6.119-7.34,6.119l26.15,3.049s-3.348-3.442-5.735-7.644c-2.387-4.202-3.814-9.164-3.814-9.164,0,0,4.5,2.53,8.04,5.82,3.54,3.29,6.119,7.34,6.119,7.34l3.049-26.15s-3.442,3.348-7.644,5.735c-4.202,2.387-9.164,3.814-9.164,3.814,0,0,2.53-4.5,5.82-8.04,3.29-3.54,7.34-6.119,7.34-6.119,0,0-26.15-3.049-26.15-3.049ZM1793.514,833.426l13.141-.769s-3.895-2.808-6.975-6.532c-3.081-3.724-5.347-8.362-5.347-8.362,0,0,4.871,1.71,8.929,4.336,4.057,2.625,7.301,6.166,7.301,6.166l-1.538-26.282s-2.808,3.895-6.532,6.975c-3.724,3.081-8.362,5.347-8.362,5.347,0,0,1.71-4.871,4.336-8.929,2.625-4.057,6.166-7.301,6.166-7.301l-13.141.769s2.024,34.582,2.024,34.582ZM1916.582,811.128s2.699,3.971,4.321,8.524c1.621,4.553,2.165,9.687,2.165,9.687,0,0-3.993-3.273-6.908-7.128-2.915-3.855-4.752-8.291-4.752-8.291l-7.544,25.223s3.971-2.699,8.524-4.321c4.553-1.621,9.687-2.165,9.687-2.165,0,0-3.273,3.993-7.128,6.908-3.855,2.915-8.291,4.752-8.291,4.752l12.612,3.772,9.926-33.189s-12.612-3.772-12.612-3.772Z"/>
          <path class="cls-5" d="M1793.527,831.85l-2.098,18.772s32.595-7.02,63.945-3.365c31.35,3.655,61.456,17.986,61.456,17.986l2.187-18.761s-30.128-14.334-61.501-17.991-63.99,3.36-63.99,3.36Z"/>
          <g>
            <path class="cls-10" d="M1795.216,794.995c-.307,2.636-2.693,4.525-5.329,4.218s-4.524-2.693-4.217-5.33c.307-2.636,2.693-4.525,5.329-4.218s4.524,2.693,4.217,5.33Z"/>
            <path class="cls-10" d="M1790.363,783.395c-.307,2.636-2.693,4.525-5.329,4.218s-4.524-2.693-4.217-5.33c.307-2.636,2.693-4.525,5.329-4.218s4.524,2.693,4.217,5.33Z"/>
            <path class="cls-10" d="M1790.575,770.486c-.307,2.636-2.693,4.525-5.329,4.218s-4.524-2.693-4.217-5.33c.307-2.636,2.693-4.525,5.329-4.218s4.524,2.693,4.217,5.33Z"/>
            <path class="cls-10" d="M1795.792,759.023c-.307,2.636-2.693,4.525-5.329,4.218s-4.524-2.693-4.217-5.33c.307-2.636,2.693-4.525,5.329-4.218s4.524,2.693,4.217,5.33Z"/>
            <path class="cls-10" d="M1805.014,750.182c-.307,2.636-2.693,4.525-5.329,4.218s-4.524-2.693-4.217-5.33c.307-2.636,2.693-4.525,5.329-4.218s4.524,2.693,4.217,5.33Z"/>
            <path class="cls-10" d="M1816.866,744.667c-.307,2.636-2.693,4.525-5.329,4.218-2.636-.307-4.524-2.693-4.217-5.33.307-2.636,2.693-4.525,5.329-4.218s4.524,2.693,4.217,5.33Z"/>
            <path class="cls-10" d="M1829.102,746.956c-.307,2.636-2.693,4.525-5.329,4.218s-4.524-2.693-4.217-5.33c.307-2.636,2.693-4.525,5.329-4.218s4.524,2.693,4.217,5.33Z"/>
            <path class="cls-10" d="M1841.198,750.436c-.307,2.636-2.693,4.525-5.329,4.218s-4.524-2.693-4.217-5.33c.307-2.636,2.693-4.525,5.329-4.218s4.524,2.693,4.217,5.33Z"/>
            <path class="cls-10" d="M1853.384,753.15c-.307,2.636-2.693,4.525-5.329,4.218-2.636-.307-4.524-2.693-4.217-5.33.307-2.636,2.693-4.525,5.329-4.218s4.524,2.693,4.217,5.33Z"/>
            <path class="cls-10" d="M1925.265,810.16c-.308,2.636,1.58,5.023,4.217,5.33s5.022-1.581,5.329-4.218c.308-2.636-1.58-5.023-4.217-5.33-2.636-.307-5.022,1.581-5.329,4.218Z"/>
            <path class="cls-10" d="M1932.657,799.987c-.308,2.636,1.58,5.023,4.217,5.33s5.022-1.581,5.329-4.218c.308-2.636-1.58-5.023-4.217-5.33-2.636-.307-5.022,1.581-5.329,4.218Z"/>
            <path class="cls-10" d="M1935.421,787.376c-.308,2.636,1.58,5.023,4.217,5.33s5.022-1.581,5.329-4.218c.308-2.636-1.58-5.023-4.217-5.33-2.636-.307-5.022,1.581-5.329,4.218Z"/>
            <path class="cls-10" d="M1932.982,775.021c-.308,2.636,1.58,5.023,4.217,5.33s5.022-1.581,5.329-4.218c.308-2.636-1.58-5.023-4.217-5.33-2.636-.307-5.022,1.581-5.329,4.218Z"/>
            <path class="cls-10" d="M1926.041,764.295c-.308,2.636,1.58,5.023,4.217,5.33s5.022-1.581,5.329-4.218c.308-2.636-1.58-5.023-4.217-5.33s-5.022,1.581-5.329,4.218Z"/>
            <path class="cls-10" d="M1915.776,756.201c-.308,2.636,1.58,5.023,4.217,5.33s5.022-1.581,5.329-4.218c.308-2.636-1.58-5.023-4.217-5.33-2.636-.307-5.022,1.581-5.329,4.218Z"/>
            <path class="cls-10" d="M1903.342,755.613c-.308,2.636,1.58,5.023,4.217,5.33s5.022-1.581,5.329-4.218c.308-2.636-1.58-5.023-4.217-5.33-2.636-.307-5.022,1.581-5.329,4.218Z"/>
            <path class="cls-10" d="M1890.769,756.216c-.308,2.636,1.58,5.023,4.217,5.33s5.022-1.581,5.329-4.218c.308-2.636-1.58-5.023-4.217-5.33-2.636-.307-5.022,1.581-5.329,4.218Z"/>
            <path class="cls-10" d="M1878.285,756.054c-.308,2.636,1.58,5.023,4.217,5.33s5.022-1.581,5.329-4.218c.308-2.636-1.58-5.023-4.217-5.33-2.636-.307-5.022,1.581-5.329,4.218Z"/>
            <path class="cls-10" d="M1866.891,792.488c-.307,2.636-2.693,4.525-5.329,4.218s-4.524-2.693-4.217-5.33c.307-2.636,2.693-4.525,5.329-4.218s4.524,2.693,4.217,5.33Z"/>
            <path class="cls-10" d="M1867.883,783.984c-.307,2.636-2.693,4.525-5.329,4.218s-4.524-2.693-4.217-5.33c.307-2.636,2.693-4.525,5.329-4.218s4.524,2.693,4.217,5.33Z"/>
            <path class="cls-10" d="M1868.676,777.179c-.307,2.636-2.693,4.525-5.329,4.218s-4.524-2.693-4.217-5.33c.307-2.636,2.693-4.525,5.329-4.218s4.524,2.693,4.217,5.33Z"/>
            <path class="cls-10" d="M1869.4,770.969c-.307,2.636-2.693,4.525-5.329,4.218s-4.524-2.693-4.217-5.33c.307-2.636,2.693-4.525,5.329-4.218s4.524,2.693,4.217,5.33Z"/>
            <path class="cls-10" d="M1871.721,751.063c-.307,2.636-2.693,4.525-5.329,4.218s-4.524-2.693-4.217-5.33c.307-2.636,2.693-4.525,5.329-4.218s4.524,2.693,4.217,5.33Z"/>
            <path class="cls-10" d="M1871.622,751.914c-.307,2.636-2.693,4.525-5.329,4.218s-4.524-2.693-4.217-5.33c.307-2.636,2.693-4.525,5.329-4.218s4.524,2.693,4.217,5.33Z"/>
            <path class="cls-10" d="M1871.106,756.337c-.307,2.636-2.693,4.525-5.329,4.218s-4.524-2.693-4.217-5.33c.307-2.636,2.693-4.525,5.329-4.218s4.524,2.693,4.217,5.33Z"/>
            <path class="cls-10" d="M1870.402,762.377c-.307,2.636-2.693,4.525-5.329,4.218s-4.524-2.693-4.217-5.33c.307-2.636,2.693-4.525,5.329-4.218s4.524,2.693,4.217,5.33Z"/>
          </g>
          <g>
            <path class="cls-28" d="M1848.004,832.116l19.064,2.223-.969,8.31-19.064-2.223.969-8.31Z"/>
            <path class="cls-8" d="M1877.928,842.067c-.228,2.489,3.371,5.342,8.038,6.372,4.667,1.03,8.634-.153,8.862-2.642.228-2.489-3.371-5.342-8.038-6.372-4.667-1.03-8.634.153-8.862,2.642Z"/>
            <path class="cls-21" d="M1793.111,836.382l-5.333,4.22,5.167,3.844,13.287-1.95-1.446-7.564-11.675,1.45ZM1919.506,851.119l4.22,5.333-5.913,2.553-12.482-4.954,3.147-7.028s11.028,4.097,11.028,4.097Z"/>
            <path class="cls-8" d="M1836.261,837.203c-.351,2.475-4.51,4.423-9.29,4.351-4.779-.071-8.369-2.136-8.018-4.61s4.51-4.423,9.29-4.351,8.369,2.136,8.018,4.61Z"/>
            <path class="cls-13" d="M1843.808,832.256c-.151,1.296-1.324,2.224-2.62,2.073s-2.224-1.324-2.073-2.62c.151-1.296,1.324-2.224,2.62-2.073s2.224,1.324,2.073,2.62Z"/>
            <path class="cls-13" d="M1843.669,839.817c-.151,1.296-1.324,2.224-2.62,2.073s-2.224-1.324-2.073-2.62c.151-1.296,1.324-2.224,2.62-2.073s2.224,1.324,2.073,2.62Z"/>
            <path class="cls-13" d="M1813.868,834.114c-.151,1.296-1.324,2.224-2.62,2.073s-2.224-1.324-2.073-2.62c.151-1.296,1.324-2.224,2.62-2.073s2.224,1.324,2.073,2.62Z"/>
            <path class="cls-13" d="M1815.981,841.493c-.151,1.296-1.324,2.224-2.62,2.073s-2.224-1.324-2.073-2.62,1.324-2.224,2.62-2.073,2.224,1.324,2.073,2.62Z"/>
            <path class="cls-1" d="M1871.282,835.686c-.151,1.296.777,2.469,2.073,2.62s2.469-.777,2.62-2.073-.777-2.469-2.073-2.62-2.469.777-2.62,2.073Z"/>
            <path class="cls-1" d="M1869.677,843.079c-.151,1.296.777,2.469,2.073,2.62s2.469-.777,2.62-2.073-.777-2.469-2.073-2.62-2.469.777-2.62,2.073Z"/>
            <path class="cls-1" d="M1899.994,844.385c-.151,1.296.777,2.469,2.073,2.62s2.469-.777,2.62-2.073-.777-2.469-2.073-2.62-2.469.777-2.62,2.073Z"/>
            <path class="cls-1" d="M1896.241,851.082c-.151,1.296.777,2.469,2.073,2.62s2.469-.777,2.62-2.073-.777-2.469-2.073-2.62-2.469.777-2.62,2.073Z"/>
          </g>
          <g>
            <path class="cls-14" d="M1918.627,835.659l1.407.887c-.643.674-4.992,8.542-16.862,4.563-11.987-4.018-11.488-15.948-11.488-15.948l2.184,1.095s.269,9.284,9.625,12.998c9.261,3.676,15.133-3.596,15.133-3.596Z"/>
            <path class="cls-14" d="M1891.88,825.289l-2.317.045s-3.355,8.321-15.47,5.133c-11.915-3.136-11.354-12.254-11.574-13.856-2.505.864-2.048,1.338-2.048,1.338,0,0,.118,11.157,12.95,14.227,12.728,3.058,17.957-3.477,18.459-6.886Z"/>
            <path class="cls-20" d="M1894.512,824.462s-.978-1.037-2.15-1.282-2.536.305-2.536.305l-.514,2.113s1.364-.549,2.536-.305c1.171.244,2.15,1.282,2.15,1.282,0,0,.514-2.113.514-2.113Z"/>
            <path class="cls-4" d="M1916.314,830.423c-.399,3.407,2.04,6.493,5.448,6.89s6.492-2.044,6.887-5.452c.399-3.407-2.04-6.493-5.448-6.89-3.408-.397-6.492,2.044-6.887,5.452Z"/>
            <path class="cls-14" d="M1795.98,821.359l-1.574.539c.471.804,2.893,9.461,15.36,8.32,12.59-1.153,14.849-12.877,14.849-12.877l-2.378.564s-2.398,8.974-12.357,10.435c-9.859,1.447-13.9-6.981-13.9-6.981Z"/>
            <path class="cls-14" d="M1824.396,817.42l2.245.577s1.35,8.87,13.874,8.554c12.317-.311,13.868-9.313,14.452-10.822,2.239,1.417,1.685,1.773,1.685,1.773,0,0-2.681,10.83-15.876,10.866-13.09.048-16.675-7.514-16.38-10.948Z"/>
            <path class="cls-20" d="M1822.024,816.01s1.191-.784,2.387-.753,2.397.88,2.397.88l.014,2.174s-1.201-.848-2.397-.88-2.387.753-2.387.753l-.014-2.174Z"/>
            <path class="cls-4" d="M1800.041,816.862c-.395,3.408-3.479,5.849-6.887,5.452-3.408-.397-5.847-3.483-5.448-6.89.395-3.408,3.479-5.849,6.887-5.452s5.847,3.483,5.448,6.89Z"/>
          </g>
          <path class="cls-4" d="M1865.809,813.193c-.395,3.408-3.479,5.849-6.887,5.452-3.408-.397-5.847-3.483-5.448-6.89.395-3.408,3.479-5.849,6.887-5.452s5.847,3.483,5.448,6.89Z"/>
          <g>
            <path class="cls-34" d="M1806.632,847.13c-1.828.102-13.695,2.809-16.13,3.919,0,.009-.005.027-.004.036.056,1.207-2.759,6.469.122,9.632,9.664-1.967,36.861-8.018,64.912-4.747,28.706,3.347,51.423,15.217,60.375,19.355,3.531-2.415,2.003-8.184,2.334-9.345.003-.009.001-.028.004-.036-2.115-1.64-13.04-7.005-14.796-7.525-8.249-2.444-16.328-8.897-46.734-12.442-28.127-3.28-41.494.673-50.084,1.153Z"/>
            <path class="cls-3" d="M1797.646,853.021c.003.395-.345.712-.775.706s-.782-.331-.785-.726.345-.712.775-.706.782.331.785.726Z"/>
            <path class="cls-3" d="M1796.543,854.849c.003.395-.345.712-.775.706s-.782-.331-.785-.726.345-.712.775-.706.782.331.785.726Z"/>
            <path class="cls-3" d="M1798.113,856.098c.003.395-.345.712-.775.706s-.782-.331-.785-.726.345-.712.775-.706.782.331.785.726Z"/>
            <path class="cls-9" d="M1796.773,854.629l7.097-2.332-3.479,1.787,2.24-.035-2.073.868,3.34.254s-7.124-.542-7.124-.542Z"/>
            <path class="cls-3" d="M1823.241,848.821c.003.395-.345.712-.775.706s-.782-.331-.785-.726.345-.712.775-.706.782.331.785.726Z"/>
            <path class="cls-3" d="M1822.138,850.65c.003.395-.345.712-.775.706s-.782-.331-.785-.726.345-.712.775-.706.782.331.785.726Z"/>
            <path class="cls-3" d="M1823.708,851.899c.003.395-.345.712-.775.706s-.782-.331-.785-.726.345-.712.775-.706.782.331.785.726Z"/>
            <path class="cls-9" d="M1822.368,850.43l7.097-2.332-3.479,1.787,2.24-.035-2.073.868,3.34.254s-7.124-.542-7.124-.542Z"/>
            <g>
              <path class="cls-3" d="M1854.364,849.078c-.092.385-.505.608-.922.5s-.68-.508-.588-.893.505-.608.922-.5.68.508.588.893Z"/>
              <path class="cls-3" d="M1852.855,850.589c-.092.385-.505.608-.922.5s-.68-.508-.588-.893.505-.608.922-.5.68.508.588.893Z"/>
              <path class="cls-3" d="M1854.081,852.177c-.092.385-.505.608-.922.5s-.68-.508-.588-.893.505-.608.922-.5.68.508.588.893Z"/>
              <path class="cls-9" d="M1853.138,850.435l7.449-.565-3.806.902,2.184.503-2.221.346,3.182,1.046s-6.788-2.232-6.788-2.232Z"/>
            </g>
            <g>
              <path class="cls-3" d="M1882.175,858.298c.094-.384-.171-.772-.592-.865s-.837.142-.931.526.171.772.592.865.837-.142.931-.526Z"/>
              <path class="cls-3" d="M1881.522,856.265c.094-.384-.171-.772-.592-.865s-.837.142-.931.526.171.772.592.865.837-.142.931-.526Z"/>
              <path class="cls-3" d="M1883.337,855.411c.094-.384-.171-.772-.592-.865s-.837.142-.931.526.171.772.592.865.837-.142.931-.526Z"/>
              <path class="cls-9" d="M1881.696,856.536l6.37,3.902-2.975-2.539,2.172.549-1.818-1.322,3.309.521s-7.058-1.112-7.058-1.112Z"/>
            </g>
            <g>
              <path class="cls-3" d="M1906.411,867.741c.094-.384-.171-.772-.592-.865s-.837.142-.931.526.171.772.592.865.837-.142.931-.526Z"/>
              <path class="cls-3" d="M1905.758,865.708c.094-.384-.171-.772-.592-.865s-.837.142-.931.526.171.772.592.865.837-.142.931-.526Z"/>
              <path class="cls-3" d="M1907.573,864.853c.094-.384-.171-.772-.592-.865s-.837.142-.931.526.171.772.592.865.837-.142.931-.526Z"/>
              <path class="cls-9" d="M1905.932,865.979l6.37,3.902-2.975-2.539,2.172.549-1.818-1.322,3.309.521s-7.058-1.112-7.058-1.112Z"/>
            </g>
          </g>
        </g>
        <path class="cls-37" d="M2401.22,1200.078c0,323.229-269.183,585.258-601.237,585.258s-601.237-262.029-601.237-585.258,269.183-585.258,601.237-585.258,601.237,262.029,601.237,585.258h0Z"/>
        <path class="cls-29" d="M2209.568,1481.005c-7.604.151-13.194,6.368-13.194,20.849,44.535,29.032,35.79,79.513,6.841,118.255-28.948,38.741-77.962,65.765-113.857,87.143l-.163-6.353c-39.706,24.534-91.677,39.744-155.555,39.744-32.382,0-191.675-20.336-207.027-105.387-13.214-21.117-41.402-1.258-67.76-8.796,12.796,42.613,82.094,47.613,82.094,63.199,0,7.605-.828,13.979-17.429,14.171-20.947.243-48.551-34.561-61.408-11.891-5.137-6.967-8.99-10.498-17.754-5.375,13.392,55.002,41.157,37.084,34.532,64.177-33.336,1.677-53.107-44.803-81.768.326,63.397,22.143,131.598,34.206,202.792,34.206,155.57,0,297.491-57.485,404.281-151.972.316-.28.662-.534.977-.814.22-.22.433-.432.652-.652,29.948-30.148,47.237-60.994,47.237-88.609,0-33.721-26.762-62.555-43.49-62.222Z"/>
        <path class="cls-29" d="M1662.111,1691.941c24.825,27.072,41.63,41.609,85.379,47.632"/>
        <path class="cls-37" d="M1659.609,1627.205c26.032,21.631,49.31,29.924,78.677,39.327"/>
      </g>
    </g>
  </g>
</svg>