<?xml version="1.0" encoding="UTF-8"?>
<svg xmlns="http://www.w3.org/2000/svg" viewBox="0 0 3600.818 2401.738">
  <defs>
    <style>
      .cls-1 {
        fill: #472b1f;
      }

      .cls-1, .cls-2, .cls-3, .cls-4, .cls-5, .cls-6, .cls-7, .cls-8, .cls-9, .cls-10, .cls-11, .cls-12, .cls-13, .cls-14, .cls-15, .cls-16, .cls-17, .cls-18, .cls-19 {
        stroke-width: 0px;
      }

      .cls-20 {
        stroke-width: 1.5px;
      }

      .cls-20, .cls-21, .cls-22, .cls-23, .cls-24, .cls-25, .cls-26, .cls-27, .cls-28, .cls-29, .cls-30, .cls-31, .cls-32 {
        stroke: #000;
      }

      .cls-20, .cls-23, .cls-33, .cls-24, .cls-27, .cls-28, .cls-30, .cls-32 {
        fill: none;
      }

      .cls-2 {
        fill: #666;
      }

      .cls-21 {
        stroke-width: 1.182px;
      }

      .cls-21, .cls-34, .cls-22, .cls-35, .cls-36, .cls-37, .cls-38, .cls-39, .cls-40, .cls-41, .cls-42, .cls-43, .cls-44, .cls-45, .cls-33, .cls-46, .cls-47, .cls-48, .cls-49, .cls-50, .cls-51, .cls-52, .cls-53, .cls-25, .cls-54, .cls-55, .cls-56, .cls-57, .cls-58, .cls-27, .cls-59, .cls-60, .cls-61, .cls-62, .cls-63, .cls-64, .cls-65, .cls-66, .cls-67, .cls-68, .cls-69, .cls-70, .cls-71 {
        stroke-miterlimit: 5.252;
      }

      .cls-34 {
        stroke-width: 1.671px;
      }

      .cls-34, .cls-35, .cls-36, .cls-37, .cls-38, .cls-39, .cls-40, .cls-41, .cls-42, .cls-43, .cls-44, .cls-45, .cls-33, .cls-46, .cls-47, .cls-48, .cls-49, .cls-50, .cls-51, .cls-52, .cls-53, .cls-54, .cls-55, .cls-56, .cls-57, .cls-58, .cls-59, .cls-72, .cls-60, .cls-61, .cls-62, .cls-63, .cls-64, .cls-73, .cls-65, .cls-66, .cls-67, .cls-68, .cls-69, .cls-70, .cls-71 {
        stroke: #472b1f;
      }

      .cls-34, .cls-35, .cls-36, .cls-37, .cls-38, .cls-39, .cls-40, .cls-41, .cls-42, .cls-43, .cls-44, .cls-45, .cls-46, .cls-47, .cls-48, .cls-49, .cls-50, .cls-51, .cls-52, .cls-8, .cls-53, .cls-54, .cls-55, .cls-56, .cls-57, .cls-58, .cls-59, .cls-72, .cls-60, .cls-61, .cls-62, .cls-63, .cls-64, .cls-73, .cls-65, .cls-66, .cls-67, .cls-68, .cls-69, .cls-70, .cls-71 {
        fill: #bca76b;
      }

      .cls-22 {
        stroke-width: 2.757px;
      }

      .cls-35 {
        stroke-width: 1.565px;
      }

      .cls-3 {
        fill: #128bbf;
      }

      .cls-36 {
        stroke-width: 1.13px;
      }

      .cls-37 {
        stroke-width: 1.586px;
      }

      .cls-38 {
        stroke-width: 1.886px;
      }

      .cls-39 {
        stroke-width: 1.647px;
      }

      .cls-40 {
        stroke-width: 1.056px;
      }

      .cls-41 {
        stroke-width: 1.367px;
      }

      .cls-42 {
        stroke-width: 1.693px;
      }

      .cls-43 {
        stroke-width: 2.083px;
      }

      .cls-23 {
        stroke-width: 6px;
      }

      .cls-44 {
        stroke-width: 1.913px;
      }

      .cls-4 {
        fill: #d7c99c;
      }

      .cls-5 {
        fill: #69522b;
      }

      .cls-45 {
        stroke-width: 1.574px;
      }

      .cls-33, .cls-25 {
        stroke-width: 3.939px;
      }

      .cls-46 {
        stroke-width: 1.633px;
      }

      .cls-47 {
        stroke-width: 1.638px;
      }

      .cls-48 {
        stroke-width: 2.252px;
      }

      .cls-49 {
        stroke-width: 1.804px;
      }

      .cls-50 {
        stroke-width: 2.042px;
      }

      .cls-51 {
        stroke-width: 1.748px;
      }

      .cls-52 {
        stroke-width: 1.141px;
      }

      .cls-7, .cls-25 {
        fill: #333;
      }

      .cls-24 {
        stroke-width: 3px;
      }

      .cls-9 {
        fill: #fff;
      }

      .cls-53 {
        stroke-width: 2.093px;
      }

      .cls-10 {
        fill: #cfa763;
      }

      .cls-54 {
        stroke-width: 1.589px;
      }

      .cls-55 {
        stroke-width: 1.135px;
      }

      .cls-56 {
        stroke-width: 1.735px;
      }

      .cls-11 {
        fill: #00247d;
      }

      .cls-11, .cls-17, .cls-19 {
        fill-rule: evenodd;
      }

      .cls-57 {
        stroke-width: 1.705px;
      }

      .cls-12, .cls-29 {
        fill: #69737c;
      }

      .cls-13, .cls-19 {
        fill: #eee;
      }

      .cls-26 {
        fill: #66452b;
      }

      .cls-26, .cls-29, .cls-31, .cls-32 {
        stroke-miterlimit: 1.943;
      }

      .cls-26, .cls-29, .cls-32 {
        stroke-width: 2.186px;
      }

      .cls-58 {
        stroke-width: 1.361px;
      }

      .cls-14 {
        fill: #e8ece9;
      }

      .cls-27 {
        stroke-width: 1.969px;
      }

      .cls-59 {
        stroke-width: .822px;
      }

      .cls-72 {
        stroke-width: .9px;
      }

      .cls-15 {
        fill: #c8102e;
      }

      .cls-60 {
        stroke-width: 1.317px;
      }

      .cls-61 {
        stroke-width: 1.713px;
      }

      .cls-16, .cls-17 {
        fill: #cf1b2b;
      }

      .cls-62 {
        stroke-width: .965px;
      }

      .cls-28 {
        stroke-width: 1.5px;
      }

      .cls-63 {
        stroke-width: 1.367px;
      }

      .cls-64 {
        stroke-width: 1.784px;
      }

      .cls-18 {
        fill: #7fb8c1;
      }

      .cls-30 {
        stroke-width: 3px;
      }

      .cls-73 {
        stroke-width: .768px;
      }

      .cls-31 {
        stroke-width: 1.458px;
      }

      .cls-65 {
        stroke-width: .894px;
      }

      .cls-66 {
        stroke-width: 1.536px;
      }

      .cls-67 {
        stroke-width: .846px;
      }

      .cls-68 {
        stroke-width: .979px;
      }

      .cls-69 {
        stroke-width: 1.301px;
      }

      .cls-70 {
        stroke-width: 1.502px;
      }

      .cls-71 {
        stroke-width: 1.793px;
      }
    </style>
  </defs>
  <g id="background">
    <path id="hl" class="cls-11" d="M400,.1h2800c220,0,400,180,400,400v1600c0,220-180,400-400,400H400C180,2400.1,0,2220.1,0,2000.1V400.1C0,180.1,180,.1,400,.1Z"/>
  </g>
  <g id="country">
    <g id="hl-2" data-name="hl">
      <path class="cls-3" d="M2998.425,1071.13c-.576,203.547-32.94,422.835-298.419,527.286-265.494-104.451-297.855-323.739-298.431-527.289l596.85.003Z"/>
      <path class="cls-14" d="M2700.006,1598.416c120.351-47.346,194.898-124.611,238.185-207.006-6.825-2.301-20.418-2.511-25.92-.537-6.531-.42-256.656-18.849-286.029-29.541-25.554-9.3-123.051,7.902-168.561,24.042,42.459,87.639,115.995,163.341,242.325,213.042h0Z"/>
      <path class="cls-5" d="M2514.468,1472.23c4.056-1.311,11.802-.999,14.856-.45,3.591.648,4.242.972,5.55-2.916,1.305-3.888,4.245-2.916,6.528-.972,2.286,1.944,8.151.972,10.437-2.268,2.286-3.228,2.94-2.904,5.223-.648,2.286,2.268,3.264,1.62,5.55.972,2.286-.636,6.204-3.228,8.163-6.792,1.959-3.567,4.884-4.86,6.519-2.919,1.632,1.944,3.264,2.919,5.55,2.595,2.286-.324,2.94,1.944,2.61,4.848-.324,2.916.981,3.564,6.531-.96,4.899,4.848,6.519,2.904,6.519-2.268s-1.296-24.291-3.255-26.883c-1.959-2.592-3.918-10.047-4.242-15.879-.618-11.004-.654-11.652-14.04-18.459,0-3.888-.981-5.508-10.437-4.86.33-1.296-1.305-5.184-3.264-6.804s-2.286-2.268-1.305-6.792c3.918.324,8.16-.324,10.446-3.564,2.274-3.24,9.783-2.595,14.355-.648,4.569,1.944,10.446,2.268,19.251.972,3.264-2.595,8.814-5.511,14.691-8.751,5.865-3.24,7.5-4.536,7.824-9.072.84-11.628-3.264-24.939-6.531-31.083-3.252-6.156-4.23-13.935-8.802-23.655-4.974-10.581-4.899-13.275-10.449-19.755-1.518-1.782-3.264-3.24-3.591-6.792-.327-3.564-1.632-8.424-5.538-11.988-9.87-8.988-13.71-37.902-17.631-59.277-2.25-12.249-.651-41.127-5.865-45.663-8.814-7.131-13.059-5.832-18.936-8.1-4.245-5.835-6.192-17.49-10.11-27.858-6.201.972-10.446,7.455-14.691,9.72-4.245,2.271-4.896,2.271-4.896,8.103s-3.267,13.92-9.132,22.995c-5.877,9.06-15.672,6.48-23.82,20.079-17.958-21.699-18.285-27.855-19.59-34.014-1.308-6.144-4.245-7.44-14.355-16.188,0-2.592-1.305-12.951-.324-18.78-7.512-6.159-13.062-5.187-16.641-.651-3.591,4.536-6.204,11.331-11.754,13.92-3.327,4.2-13.362,14.796-21.573,27.408,7.47,112.716,33.102,224.61,110.169,314.094v.003Z"/>
      <path class="cls-8" d="M2998.425,1071.13c.225-76.674-4.068-151.116-2.109-216.348-99.207-44.058-229.74-53.118-296.31-53.118s-197.118,9.06-296.322,53.118c1.959,65.232-2.325,139.674-2.109,216.345l596.85.003Z"/>
      <path class="cls-10" d="M2417.709,1159.879c3.267,5.184,9.144,14.094,9.795,18.942,2.286-4.698,4.08-6.792,4.572-9.708.489-2.916,3.918-8.586,2.61-11.664-1.305-3.081-2.283-5.511,1.308-3.24,3.579,2.268,2.889,6.192,2.109,11.988-2.109,15.867-8.802,19.107-9.78,29.799,9.63,22.509,2.448,30.609,12.882,52.632,1.632.972,5.991-.759,7.296-.435,5.538-3.891,9.684-2.481,17.505-.861,7.836,1.62,12.081,7.116,12.081,11.976s0,6.159,1.632,9.075,4.899,7.452,4.245,10.692c-.654,3.228.654,5.172,1.632,6.792.981,1.62-.327,5.184-1.305,7.455-.981,2.268-.654,5.184,3.264,10.044,3.918,4.848,13.05,25.26,13.05,37.239s.651,17.499,5.55,19.755c4.896,2.268,6.528,4.212,5.877,9.396-.654,5.187,2.283,32.07,2.937,36.282.654,4.212,2.286,3.24,4.245,5.508,1.947,2.256,3.252,4.848,9.78,4.848s12.837-.861,17.079-.21c5.88,8.1,9.471,19.104,10.776,25.908,1.305,6.807,1.194,16.092,3.48,16.092s4.569.324,3.915-8.1c-.651-8.43-1.305-9.723-4.242-13.923-2.94-4.212-4.572-6.156-2.94-8.751,1.632-2.592,1.959-6.804,1.305-10.044-.651-3.24-1.632-8.088,3.918-1.62,5.55,6.48,7.185,8.1,8.817,10.368,1.632,2.268,2.274,6.48,1.959,10.371-.327,3.876.315,5.496,2.598,3.552,2.286-1.932,5.226,1.296,3.918,5.508-1.305,4.212.33,6.804,4.245,8.1,3.918,1.296,5.55,2.268,6.531,5.187.978,2.916,4.245,4.2,4.245-1.62s-2.286-18.15-3.918-22.023c-1.632-3.888-2.94-12.315-3.267-17.175-.324-4.86-1.305-6.144-3.591-7.116s-4.245-2.592-4.569-4.86c-.33-2.268-2.286-3.078-3.756-3.078s-2.76-1.134-3.579-2.757c-.816-1.62-1.632-1.782-3.264-1.944-1.632-.162-4.245.81-5.061-1.782-.816-2.592-1.959-6.318-3.591-8.424-1.635-2.106-3.102-2.754-3.267-10.032-.162-7.29-.327-8.265-2.61-10.857-2.286-2.592-6.204-9.384-7.836-12.3-1.62-2.916-3.255-5.832-3.255.324s0,9.384,3.906,11.652c3.918,2.268,4.899,2.268,3.267,5.508-1.635,3.24,0,5.511.651,7.779.654,2.268,1.959,4.536,0,6.792-1.959,2.268-3.918,1.62-3.591-1.932.327-3.564-.978-7.776-2.598-10.692-1.635-2.919-2.94-4.86-4.899-3.24-1.959,1.62-3.591-.327-2.286-1.62,1.308-1.299.981-2.271,0-3.24-.978-.975-1.305-1.947.33-3.891,1.629-1.944,1.629-2.916.651-7.44-.981-4.536-8.163-27.21-11.43-32.391-3.264-5.187-2.937-9.075,1.308-3.891,4.245,5.187,7.836,9.72,8.16,13.92.33,4.215,1.308,6.81,2.616,8.43,1.305,1.62,2.283.969,2.937-2.595s3.264-2.268-1.305-9.06c-4.572-6.804-13.062-18.147-16.326-38.55-3.264-20.4-4.572-34.011-7.836-39.507-3.252-5.508-4.23-6.804-4.56-11.988-.324-5.187,0-10.371-2.283-14.247-2.286-3.888-3.918-4.536-4.245,1.296-.327,5.82.327,18.78,1.959,21.051,1.632,2.268.654,8.088.327,11.328-.33,3.24-5.463,6.444,5.223,12.96,4.245,2.595,3.579,6.159,2.94,8.43-.654,2.253-1.308,1.929-3.594-1.62-2.283-3.57-4.569-6.483-6.855-8.43-2.286-1.941-2.61-3.24-2.286-7.776.327-4.536,1.305-7.776,0-9.384-1.305-1.62-1.959-.324-2.61,2.256-.654,2.592-1.308,9.72-2.613,11.667-1.308,1.944-1.959.648-2.94-3.567-.978-4.212.33-10.68,2.61-18.132,2.289-7.452,3.594-15.231,1.635-24.939-1.959-9.72-.978-12.639-8.49-20.727-7.497-8.1-15.984-15.876-19.575-25.911-3.594-10.044-4.245-18.792-8.163-23.331-3.906-4.524-9.456-10.356-13.05-11.976v-14.892c0-3.567-1.629-5.835-5.874-5.187s-6.858,4.212-9.456,9.06c-2.61,4.86-4.572,2.595-8.163,11.019s-8.817,12.624-8.817,21.699h0Z"/>
      <path class="cls-10" d="M2441.205,1254.772c2.61,1.62,5.112,2.706,9.03.759,3.918-1.944,8.601-7.551,13.824-2.04,5.214,5.493,8.151,14.568,8.151,21.696s0,20.4,8.163,27.855c8.16,7.44,12.393,15.216,12.72,24.939.33,9.708,3.918,24.615,4.899,28.5.978,3.879,3.264,8.415,5.877,11.01,2.61,2.589,4.569,10.044,4.896,17.808.33,7.776-.978,13.284,0,17.175.981,3.888,0,7.128-2.94,5.184-2.937-1.944-3.588-2.916-5.22-6.159-1.635-3.24-3.594-2.592-1.962,2.271,1.635,4.86,6.531,9.384,10.776,9.384s5.55.648,8.16,3.24c2.601,2.592,2.928,3.888,7.5,3.888s5.223,0,9.468,1.296,4.245.648,6.528,0c2.286-.648,4.56,1.296,6.192,5.508,1.632,4.215,5.55,15.867,5.55,19.107s0,6.48,2.286,9.72c2.286,3.24,1.632,6.48-.978,4.539-2.613-1.944-2.613-1.296-4.572-.972s-3.264-.648-5.865-2.271c-2.61-1.62-.978-1.296-3.591-5.184-2.61-3.888-4.245-5.184-4.245-2.268s-.327,6.48-2.286,4.86c-1.959-1.62-2.94-1.62-4.569,0-1.635,1.62-2.286,2.919-4.245-.324-1.959-3.24-4.245-3.24-6.204-3.888s-1.959-.648-2.925-3.564c-.981-2.916-3.918-3.564-6.531-3.564s-3.918-1.296-4.245-3.24c-.327-1.932-1.959-3.228-3.264-4.2-1.305-.972-.654-3.24-.981-5.508-.324-2.271-2.283-1.299-3.591-1.947-1.305-.648-2.286-.324-2.286-3.564s-1.305-4.212-2.283-6.48c-.969-2.268,0-4.536.651-7.116.654-2.592.33-4.212-1.62-6.48-1.959-2.268-.327-4.539-5.55-9.075-5.223-4.536-7.836-.648-9.468-11.328-1.632-10.695-4.899-32.715-7.836-36.279-2.94-3.567-4.884-6.159-7.824-7.131s-4.896-.324-5.223-6.48c-.327-6.144-2.286-13.92-6.204-17.811-3.918-3.888-5.55-5.184-7.509-6.804s-2.61-4.536,0-10.032c2.61-5.508,1.632-12.96,1.305-16.527-.327-3.552-1.305-8.088-.651-11.976.651-3.888.324-8.751-.654-11.34-.981-2.595-2.286-3.24-.654-5.187h0Z"/>
      <path class="cls-4" d="M2540.424,1431.949c-1.959,3.888-4.245,2.592-6.204.648-1.959-1.947-4.245-1.947-3.264-5.511.978-3.564.651-4.212-1.959-6.156-.3-.225-.603-.423-.906-.624-.816-.024-1.77-.024-3.012-.024-4.572,0-4.899-1.296-7.5-3.888-.511-.508-1.046-.991-1.605-1.446-.051.624-.024,1.446-.024,2.418,0,3.564,0,2.916-3.591,3.888-3.591.975-2.94-3.564-3.591-6.48-.139-.596-.328-1.179-.567-1.743-3.93-.75-8.073-4.86-9.555-9.261-1.632-4.86.327-5.508,1.959-2.268,1.632,3.24,2.286,4.212,5.223,6.156,2.94,1.944,3.918-1.296,2.94-5.184-.315-1.248-.39-2.694-.354-4.299-.702-1.26-1.656-2.28-2.91-2.829-5.226-2.271-3.594-2.919-3.267-7.131.327-4.2-.654-4.2-3.918-1.944-3.264,2.268-3.591-.324-3.591-6.792s-4.245-6.48-5.211-1.944c-.981,4.536-2.613,1.62-4.572-4.86s-4.572-8.1-4.896-1.944c-.279,5.208-1.734,6.456-5.151,3.564.603,3.762,1.131,7.278,1.56,10.044,1.632,10.68,4.242,6.792,9.468,11.331,5.22,4.536,3.591,6.804,5.55,9.072,1.944,2.268,2.271,3.888,1.62,6.48-.654,2.58-1.62,4.848-.654,7.116.978,2.268,2.286,3.24,2.286,6.48s.978,2.919,2.286,3.567c.816.399,1.869.174,2.637.498.84-1.098,1.605-2.442,2.586-3.414,3.918-3.891,9.795.324,11.754,5.184s4.23,6.156,7.17,2.268c2.94-3.888,1.959-3.24,5.223.324,3.267,3.564,4.572,2.916,4.572,2.916,0,0,3.264-1.296,5.55.648s3.591,1.62,7.824-4.536c4.245-6.156-1.947-4.212-3.906-.324h0Z"/>
      <g>
        <path class="cls-18" d="M2543.361,1477.288c7.824-.648,29.046-6.804,31.32-8.748,5.223,3.564,14.367,8.424,18.285,8.424-7.512,1.62-12.408.648-14.37-.648.981,2.268,3.594,5.832,5.226,6.156-7.182-.324-15.33-1.944-17.943-4.536-6.204,2.592-16.65,3.24-22.518-.648h0ZM2557.389,1487.011c2.775.81,16.638,3.078,18.435,3.078-4.572,3.876-.654,7.602,7.02,6.954-3.756.486-7.848,1.893-5.061,2.43,6.69,1.296,24.801-3.564,28.392-5.508-6.204,7.938-36.378,15.228-48.786-6.954ZM2569.797,1506.763c3.741-1.944,13.047-1.296,17.454.81-4.899,1.782-14.517,1.782-17.454-.81Z"/>
        <path class="cls-18" d="M2583.822,1506.439c6.693-1.134,25.62,3.402,32.31-.648-2.283,5.994-14.202,6.807-18.282,5.508-4.068-1.296-7.986-2.916-10.761-2.754,1.47-.81-.981-.972-3.267-2.106h0ZM2590.68,1515.676c5.061.798,23.169-1.458,28.719-3.567,5.865,1.947,17.454,5.01,20.067,4.689-5.55,3.402-16.161,1.458-19.578,0-9.795,3.24-17.793,4.212-29.208-1.122Z"/>
        <path class="cls-18" d="M2599.332,1518.703c7.245,1.62,13.422.462,20.556-1.905,2.22.945,7.458,2.106,12.381,1.869,3.279,1.857,7.686,4.449,11.931,4.77-4.41,1.785-20.571,0-23.82-1.779-8.166.162-22.203,1.944-25.62,4.698-.162-2.268,1.32-5.421,4.572-7.65v-.003ZM2590.68,1482.148c5.649,1.872,26.106.972,36.54-3.888,4.122-1.92,6.669,1.296,1.962,2.916-16.968,5.835-30.354,8.1-40.134,2.916-3.87-2.04-4.245-3.888,1.632-1.944h0ZM2690.865,1454.62c-25.128,11.652-41.781,15.216-76.692,4.536-3.252-.999-5.55,0-1.959,2.268,3.594,2.256,22.845,7.44,27.414,7.764,4.572.324,2.94,2.43.165,3.24s-3.594,2.754.162,1.296,24.726-2.007,33.291,2.43c3.741,1.944,4.722,1.62,4.395.162-.327-1.458,1.632-2.43,4.41-2.754,2.772-.324,4.404-1.296,2.28-2.106-2.121-.81-2.445-1.296-.813-2.106s1.794-1.62-.654-2.106c-2.448-.486-4.08-1.134-1.794-2.268,2.283-1.122,5.712-1.944,8.325-2.256.651-1.782-.489-6.48,1.47-8.1h0Z"/>
        <path class="cls-18" d="M2649.084,1457.536c14.367,1.008,40.8-5.511,54.84-19.11,4.884,2.907,11.742,6.147,15.33,6.795,3.594.648,6.858,3.888,1.308,3.888s-13.386-2.268-16.965-3.888c-18.609,11.34-40.386,15.069-54.186,13.935-3.906-.324-4.884-1.947-.327-1.62h0ZM2626.404,1417.042c-1.932.336-10.272,2.268-12.555,2.106-2.286-.162-4.572.486-4.41,2.106.165,1.62.816,2.592-2.61,2.268-3.429-.324-6.369.972-7.185,1.944-.816.972-1.47,1.944,1.959,2.268,3.429.324,5.226.648,9.144-1.134s7.671-4.536,11.916-4.698c4.23-.162,8.478-5.67,3.741-4.86h0Z"/>
        <path class="cls-18" d="M2614.665,1427.086c3.564,2.295,21.21,8.265,27.576,7.779,6.366-.486,5.172,2.529.327,3.564-9.96,2.094-22.116-2.205-30.354-8.751-4.08-3.24-.324-4.374,2.451-2.592h0Z"/>
        <path class="cls-18" d="M2698.209,1435.675c-13.5,4.275-27.249,2.754-32.799,1.296-5.55-1.458-10.611-1.782-6.858,1.782,3.756,3.552,15.837,5.982,22.68,4.2-24.312,5.508-30.678,5.022-36.705,4.05-6.042-.972-17.382-.759-22.191-.324-3.591.324-8.49-.162-10.611-1.458s-2.775-3.726,3.591-3.078c6.354.648,7.185-.648,1.635-1.458-5.55-.81-13.224,1.458-5.715,6.156,7.509,4.698,23.985-.324,34.434,2.592,10.434,2.916,32.625,5.022,53.682-11.826,1.08-.861,2.94-3.228-1.14-1.932h-.003ZM2666.715,1422.226c-2.775.162-7.671-1.62-10.284-2.754-2.61-1.134-6.354-1.296-3.579,2.43,2.76,3.726,14.844,5.832,19.089,4.05,4.242-1.782,2.448-3.726,6.678-1.134,4.245,2.592,8.652,4.374,11.754,4.374s4.245,0,.816-1.944c-3.426-1.944-5.058-2.43-5.385-4.05-.33-1.62-.816-2.592,2.286-1.62,3.099.972,6.69,2.754,9.141,1.458,2.448-1.296,7.008-4.212,11.088-4.212l.978-2.43c-5.877-.486-9.618,1.296-11.25,1.944s-4.572.972-7.674.486c-3.102-.486-7.182-.81-8.16-1.62-.981-.81-.981-1.458,1.632-1.944,2.61-.486,3.426-2.268-.165-1.62-3.591.648-13.209.324-18.27-1.296-5.061-1.608-7.182-1.77-9.306-.972-2.121.81-1.794,3.078,1.305,3.24,3.102.162,10.122.81,12.57,3.078,2.451,2.268,2.124,2.43-.651,1.296-2.775-1.134-7.836-.486-2.61,3.24h-.003ZM2784.846,1413.478c-9.783,7.128-21.54,8.748-35.565,9.72-4.08.288-2.826,1.434.654,1.782,14.679,1.458,31.659-3.888,37.197-9.72,1.605-1.683,1.431-4.476-2.286-1.782ZM2718.114,1430.005c4.245.162,18.924,3.888,23.658,5.508,3.591-.324,4.572-1.134,3.918-2.43-.654-1.296-1.14-2.754,5.388-2.43,6.516.324,21.537.162,24.312.162,2.286-.975,7.332-4.86,9.618-5.025-5.865.324-30.339,1.62-33.441,1.296s-4.734,0-6.69,1.134c-1.962,1.134-3.105,1.62-5.553.648-2.448-.972-6.858-2.268-9.294-.81-2.448,1.458-7.509.162-11.916,1.944v.003Z"/>
        <path class="cls-18" d="M2775.39,1430.815c2.286-.975,7.332-4.86,9.618-5.025,4.245-.324,9.141,1.458,11.43,1.782,2.283.324,4.731-.162,3.099-1.944s-.162-4.86,6.531-4.05c6.681.81,10.11,1.944,16.638,1.296,6.531-.648,9.468,4.212,21.864-.648-.981,4.86,1.305,5.184,3.591,4.212s4.896-.648,8.814,2.268c3.918,2.919,27.741,3.24,33.291,2.271,5.538-.972,8.478,1.944,4.23,3.24-4.23,1.296-5.22,3.24-4.23,4.536.966,1.284,1.947,2.904-3.264,2.256-5.223-.648-6.204.972-8.817,2.916-2.61,1.944-3.264,2.592-10.446,1.296-7.17-1.296-8.478-.324-12.396.324-3.918.648-4.896.648-8.814-.648-3.918-1.296-12.396-2.592-17.619-.972-5.223,1.62-9.141,3.24-13.713,1.944-4.572-1.296-4.899-.648-1.959-3.564,2.94-2.916,3.591-2.592,9.141-3.24,5.55-.636,9.795-2.256,5.88-4.524-3.921-2.268-5.226-1.944-10.449.648-5.226,2.592-7.836,4.2-13.701.972-5.88-3.24-8.817-2.592-12.735-1.62-3.918.972-10.434-1.296-15.984-3.726h0ZM2794.968,1440.52c-7.473,1.062-9.48-3.711-17.292-2.739-2.613.324-7.02,3.552-.981,3.066,6.03-.486,12.558,2.754,18.435,2.268,5.877-.486,3.264-3.078-.162-2.592v-.003ZM2786.313,1446.193c3.93-1.422,12.081,1.296,15.51.648,3.429-.648,6.693,1.458,3.102,2.592-3.591,1.134-12.243-2.106-16.161-.972-3.918,1.134-7.824-.324-2.451-2.268h0ZM2708.319,1467.082c5.388.174,24.801-.648,32.475-16.839.588-1.245,1.14-1.782,3.591-.162,2.448,1.62,11.427,6.966,28.23,8.427,4.71.411,9.795,2.754.327,2.106-9.471-.648-24.477-3.24-29.538-6.321-8.49,13.275-23.733,14.844-35.085,14.571-6.843-.162-5.211-1.944,0-1.782Z"/>
        <path class="cls-18" d="M2750.262,1445.059c-2.61,3.564-11.592,9.72-15.672,10.044-4.068.324-16.314-.81-19.416-1.944-3.099-1.134-6.855-.81-2.448,2.268,4.41,3.081,15.345,5.187,19.74,4.215,4.41-.972,9.471-2.43,12.9-.324,3.426,2.106,9.792,6.144,13.536,5.334,3.753-.798,11.427-.798,13.875.324,2.448,1.134,6.693,4.536.327,2.592-6.366-1.944-11.592-.324-14.529-1.62,3.264,4.536,10.674,11.826,16.98,11.826,1.467,0,2.445,2.592-.657,4.05,3.102,1.458,10.275,2.592,14.028-.81-.978,1.296-.489,2.106,1.143,2.916s3.591,1.947.654,2.271c-2.94.324-9.621,1.134-11.58.324,6.354,4.038,22.842,10.518,39.645,7.278,3.204-.612,4.899-1.932-.327-1.782-10.773.324-11.415.162-13.374-.96-1.959-1.146-1.632-2.106,1.47-3.078,3.09-.972,10.926-2.106,14.19-2.106s6.531-1.299-.162-1.299-14.844,0-18.108-1.134c-3.267-1.134-5.715-2.592-2.286-4.86,3.429-2.268,7.02-1.62,8.652-3.726-10.776-.162-24-5.832-16.65-11.004,1.707-1.209,1.14-1.296-1.635-1.62s-10.923-2.592-14.352-4.536c-3.429-1.947-1.143-3.567,1.632-4.05-6.366,1.131-19.101-2.271-27.576-8.589h0ZM2846.04,1444.735c-5.88,4.374-16.968,6.156-21.702,6.156s-5.385,1.62-1.632,2.106c3.756.486,7.836.972,9.468.486s2.61-.648,5.049.486c2.448,1.134,7.674,1.782,12.243.324,4.572-1.458,12.069-2.106,15.171-1.944s6.528.324.327-1.458c-6.192-1.782-16.314-.486-18.762.162-2.448.648-9.141.162-5.55-.972s6.69-2.916,8.49-4.374c-1.308-.324-2.124-.648-3.105-.972h.003ZM2842.938,1457.371c-5.061,3.729-12.396,7.281-19.905,7.605,6.855,2.43,12.57,9.396,16.965,9.072-2.121,1.296-4.722,3.24-7.497,3.564,4.245,1.134,11.415-.162,17.292-3.402,9.795,2.754,22.515.972,26.76-2.592-6.366,0-14.025-2.268-17.454-5.184,3.102,0,6.027-1.944,7.497-3.714-7.335,1.284-19.905-2.268-23.658-5.349h0Z"/>
        <path class="cls-18" d="M2832.501,1477.612c2.775-.324,5.376-2.268,7.5-3.564-5.376,1.782-28.884-1.944-35.892-8.1-7.02-6.144-7.02-1.458-2.124,2.916,4.899,4.374,13.539,11.016,30.516,8.748h0ZM2849.793,1492.507c-2.94,1.62-16.965,2.592-21.537,1.62-4.569-.972-6.528-.486-5.385,1.296,1.14,1.782,1.632,3.402-2.124,2.916-3.753-.486-10.449.324-13.209,1.296-2.778.972-6.204,3.402-.33,2.43,5.868-.972,11.253-2.106,15.66-.972,4.41,1.134,20.07,1.458,23.172.162,3.099-1.296.978-1.296-.492-1.296s-2.121-.972,0-1.944c2.124-.972,3.756-3.726,4.245-5.508h0ZM2714.034,1473.724c-5.88,2.592-25.455,7.776-30.681,8.1-6.528,2.916-11.739,4.539-15.006,4.539,2.286,1.944,11.088,3.876,14.682,2.916-1.959,1.932-6.519,4.2-8.151,5.172,5.211-.648,11.415.648,14.028.972-6.858,3.888-16.314,5.184-21.21,4.536,1.632,2.268,3.918,4.536,6.855,4.536-6.204,1.62-13.71,1.62-17.631.324,1.632,3.24,3.267,5.184,5.55,5.508-5.223.648-11.754,1.62-17.292-1.62,4.233,5.511,13.701,7.44,27.741,5.835,14.028-1.62,25.782-7.779,29.046-10.371-5.88.648-13.713.972-17.631.324,7.836-1.944,24.801-9.072,27.741-11.988-3.267,0-6.519-.972-8.817-2.592,4.572.648,20.571-1.284,25.467-3.228-5.877-1.296-9.468-4.86-11.1-7.131,20.556,6.48,43.437,4.362,54.498,1.62,2.613-.648,2.928-3.936-2.283-3.564-9.144.648-26.76-1.944-31.332-4.212,4.245,3.24,9.468,5.184,13.059,5.832-8.49,2.268-20.229,3.888-37.533-5.508Z"/>
        <path class="cls-18" d="M2674.878,1494.451c1.632-.972,6.192-3.24,8.151-5.172-3.594.96-12.396-.972-14.682-2.916,3.267,0,8.478-1.62,15.006-4.539-11.739-.324-19.902-.324-24.147-2.592-4.245-2.268-12.069-1.62-15.006-.972-2.94.648-1.959,5.508,10.434,4.212-5.223,3.567-19.251,4.86-24.474,3.567,1.305,4.2,2.286,8.412.981,10.68,6.855,3.888,24.801,8.748,33.615,8.1-7.836-2.916-12.081-6.156-5.55-6.804,6.531-.648,10.122-1.944,15.672-3.564h0ZM2654.634,1515.514c15.624-1.296,36.543-1.572,53.196-15.555,4.245-3.564,7.095-2.37,2.94,1.296-8.805,7.776-30.681,18.459-51.564,18.78-8.502.138-12.393-3.888-4.572-4.521h0ZM2771.634,1489.915c-3.918,1.458-14.856,3.24-18.108,2.754-3.264-.486-7.998-.648-10.611.972-2.61,1.62-2.775,2.592.816,2.916,3.591.324,8.163.648,10.449.486-2.94,1.62-4.899,3.888-5.55,4.86,5.223-1.296,14.841.972,17.616,2.592-2.121.648-4.569-.162-6.366-1.134,8.817,9.237,34.923,9.237,39.168,7.614-1.959,1.458-3.756,2.919-5.715,3.405,7.35,1.296,15.825,1.134,24.15-3.729-2.775.486-11.088-.324-13.212-.486,1.792-1.729,3.97-3.006,6.354-3.726-3.252-.648-13.536-.324-15.984.972.978-1.944,2.775-4.374,4.734-5.184-12.9,0-28.557-.162-34.269-3.24,9.141.972,19.26-4.374,23.493-4.374-7.17-.162-15.006-1.782-16.965-4.698h0ZM2738.835,1497.04c-6.369,1.299-15.987,3.891-18.6,5.349-2.61,1.458-5.385,2.268.33,2.268s21.21.648,24.636,1.134c-8.652-1.296-20.394-1.62-22.68-1.62s-4.896-.162-.651-1.458c4.242-1.296,9.795-4.212,16.965-5.67v-.003ZM2725.95,1512.109c2.274,0,12.231,0,16.149-3.402,4.08,3.078,11.916,7.44,16.965,7.44s4.572,1.299.162,1.785c-4.395.486-13.047-2.094-17.454-5.334-5.877,2.106-10.761.324-15.822-.489h0ZM2650.404,1555.669c10.11,3.888,23.493,6.804,33.276,3.564,5.55,4.86,16.98,5.184,23.169,3.888,6.204-1.296,11.754-1.944,18.612.324,6.843,2.268,20.88,2.43,24.801,5.658-3.591.177-11.265,0-13.059.501-1.8.471-.819,1.605,2.448,3.39-11.088-.648-30.189,4.05-36.054,9.072,2.109-5.022,8.64-11.829,18.924-11.829-5.877-2.091-24.636-2.253-30.678,1.461-1.794-1.947-3.918-5.175-4.08-6.471-9.948,5.658-29.535-2.43-37.359-9.558h0ZM2624.445,1537.534c12.045-1.707,20.244-5.508,23.835-9.072,2.124,1.944,10.926,3.888,20.559.972-1.959,1.458-2.124,4.212-1.308,5.67-6.366.162-18.447,3.24-22.515,5.349-4.08,2.091-15.999,3.552-19.905,1.443-3.918-2.094-4.08-3.876-.666-4.362h0Z"/>
        <path class="cls-18" d="M2667.531,1535.104c-6.366.162-18.447,3.24-22.515,5.349.816,1.62,1.305,4.2,1.47,5.982,11.742-4.215,38.664-6.795,48.948-5.172-4.896.324-14.202,5.334-19.413,5.982,12.72-.972,25.128,1.62,28.38,2.43,3.264.81,3.918,3.24,1.47,5.508-2.448,2.268-3.579,2.592,1.632,2.754,5.223.162,15.999-.486,20.895-5.184-1.959-2.106-7.02-1.296-8.49-2.754,3.429-1.134,7.35-3.564,8.817-5.346-8.814-.162-12.081-.324-15.018-.975-2.94-.633-5.061-1.458-1.47-3.39,3.591-1.944,5.223-3.564,6.366-4.86-6.366,1.782-16.311,3.24-24.636-3.24,3.099.81,10.434.324,13.047-.81-2.775-1.458-5.049-2.592-7.335-2.592,6.681-3.24,19.905-6.156,36.216.324,8.163-.648,16.98-.324,23.169,1.296,2.61-2.592,8.16-8.748,11.1-10.368-19.251,1.62-53.847-1.944-53.19-11.979-6.207,8.088-20.559,12.627-26.763,11.331-.654,2.916,1.959,6.48,4.245,8.424-6.531,1.296-17.631,2.268-22.842,1.296,2.94,2.916,8.475,5.508,11.739,5.184-6.84,0-10.434,1.296-15.822.81h0Z"/>
        <path class="cls-18" d="M2707.5,1557.94c5.226.159,16.002-.489,20.898-5.19-1.959-2.103-7.02-1.293-8.49-2.751,3.429-1.134,7.35-3.564,8.817-5.346,13.701-1.122,25.944-.474,31.809-2.256,5.877-1.782,20.895-.81,23.835-1.62-13.062,2.091-15.672,3.228-16.326,5.334-.654,2.106,4.245,3.888,7.347,3.888-5.88-.324-13.224,5.832-13.878,8.262-7.821-4.536-11.577.81-12.393,2.592-3.264-1.296-14.04-.972-19.59,3.726-7.17-2.106-11.904-3.24-19.089-2.106,4.41-.972,3.594-3.888-2.94-4.536v.003ZM2770.164,1520.038c4.41-.162,14.028.324,17.457-.162-2.286,1.134-5.211,3.24-5.865,4.212,11.088-1.296,26.259-2.106,30.666-1.458-5.376-.81-10.926,2.592-13.701,4.374s-1.14,2.916,2.61,3.402c3.756.486,8.82,3.402,1.962,2.43-6.858-.972-20.394-.972-23.658-.486-3.267.486-5.061-1.134-.33-1.782,4.737-.648,7.989-2.268,10.275-3.564-3.918.972-11.415.972-13.701.324s-3.756-1.944-1.14-2.592c2.61-.648.813-1.62-1.962-1.296-2.775.324-9.795,3.24-13.71,6.966,4.242-4.374,7.998-8.262,11.1-10.368h-.003ZM2720.4,1527.328c5.388,5.994,11.742,9.396,21.861,9.72,2.124.063,6.078,2.892.981,3.081-13.713.486-20.556-2.757-26.598-11.505-1.242-1.794,1.056-4.299,3.756-1.296ZM2894.334,1453.645c-4.068,2.754-9.456,7.617-5.877,14.409.429-.225.831-.486,1.245-.723,15.607-18.768,29.442-38.941,41.328-60.261.138-.72.261-1.407.351-2.004-4.572,3.888-11.754,7.764-14.694,8.736,1.959,5.184-7.17,11.988-12.066,13.932,1.959,3.24,1.305,8.1-2.94,9.075.981,2.904-2.286,2.904-6.204,4.524-3.918,1.62-5.877,2.916-7.17,4.86,2.109-1.134,5.049-2.106,6.681-1.62s1.959,2.916-.978,3.564c-2.94.648-4.887,2.268-5.88,3.564,4.245-1.62,10.287-.81,6.204,1.944h0ZM2606.664,1379.8c4.899,3.405,13.551,9.06,24.801,8.25,5.55,4.38,14.205,8.103,18.12,8.913-7.509,3.078-15.669,5.67-17.79,8.1-3.432-3.24-7.827-2.754-8.97-4.374-3.264,2.595-2.775,4.215-.651,5.511,2.121,1.296,18.6,4.05,22.68,2.916,4.08-1.134,5.172,2.22,1.794,3.39-8.814,3.078-25.944.162-31.821-9.222-5.877-9.399-10.938-12.963-26.922-4.377-1.797-4.536-1.797-5.67-4.899-5.67s-8.814-4.05-4.41-3.888c4.41.162,17.469-1.782,28.068-9.546v-.003Z"/>
        <path class="cls-18" d="M2610.582,1400.689c-2.724.675-10.446,4.86-13.209,5.187-2.775.324-7.674,4.212-2.61,4.374,5.046.162,11.574-5.346,15.168-5.832,3.591-.486,3.918-4.539.651-3.729ZM2631.957,1415.908c.489,1.62.489,3.402,0,4.536-.492,1.134-.492,2.592,1.632.972,2.121-1.62,3.429-3.564,5.55-2.43s7.509.972,9.945.648c2.46-.324,3.267-.81-.312-2.268-3.594-1.458-7.185-1.944-9.144-1.782-1.959.162-4.407-.324-6.039-.972s-2.124-.324-1.632,1.296ZM2709.3,1416.394l-.981,2.43c6.039-.162,20.73,1.296,25.455,4.212,4.569-3.564,3.753-4.698,7.02-4.05,3.264.648,7.344,1.782,9.141.81s3.102-.81,5.061-.486c1.947.324,6.192-.486,8.64-1.944,2.448-1.458,7.509-3.402,10.446-3.402s6.519-.648,1.143-1.458c-5.385-.81-13.548.81-16.323,1.782-2.763.972-11.088,1.62-15.987,1.62s-11.58,2.43-17.13.972c-5.55-1.458-13.221-.486-16.488-.486h.003ZM2802.15,1414.126c7.209,3.378,21.699,6.318,32.964,5.832,1.959-.087,5.901,1.995.966,2.43-12.72,1.134-24.15-.636-34.746-6.48-2.94-1.62-1.959-3.078.816-1.782ZM2809.497,1413.964c11.088-.324,19.41-.162,22.842,3.078,6.354-1.944,17.781-3.078,20.394-2.592,2.61.486,5.55-.648-.492-2.106-6.039-1.446-20.067-1.932-24.474-1.122-4.41.798-18.12,1.284-22.68.798,1.959.324,3.252.648,4.41,1.944h0ZM2852.568,1418.338c5.223-2.754,20.232-.162,24.801-2.106-3.264,3.888,10.449,4.212,22.353,1.134-4.572,2.916-14.352,3.402-18.6,5.184-4.242,1.782-6.528.486-9.792-.972-3.264-1.458-11.58-4.374-18.762-3.24Z"/>
        <path class="cls-18" d="M2899.722,1417.366c-11.904,3.078-25.62,2.754-22.35-1.134-4.572,1.944-19.581-.648-24.804,2.106,5.388-3.24,9.468-.648,13.374-7.29,2.448.498,8.16.822,10.122-1.77,3.429.81,9.468,2.268,11.265,4.038,1.794,1.782,4.56-.486,2.271-3.228,5.388-1.944,1.971,2.304,14.529-.81,2.613-.648,8.979-1.782,11.1-1.944-4.242,3.402-9.303,7.116-15.507,10.032h0Z"/>
      </g>
      <path class="cls-23" d="M2998.425,1071.13c-.576,203.547-32.94,422.835-298.419,527.286-265.494-104.451-297.855-323.739-298.431-527.289l596.85.003Z"/>
      <g>
        <path class="cls-10" d="M2519.853,1162.684c-4.419,5.646-9.129,10.368-15.219,14.682-6.09,4.323-13.926,7.776-9.582,15.117,4.359,7.341,7.836,8.214,8.703,13.821.879,5.61,2.184,10.368,6.531,11.664,4.356,1.284,6.09.426,6.09,9.498s0,12.525,3.918,15.978c3.918,3.45,3.48,6.906,5.223,15.12,1.734,8.199,1.734,25.908,6.96,37.998,5.22,12.09,16.977,34.983,15.669,39.732-1.305,4.749-3.051,8.202,2.172,13.809,5.226,5.622,8.703,13.821,9.144,18.57.426,4.761,1.305,6.48,6.516,4.761,5.223-1.731,7.836-3.465,9.582-5.622,1.734-2.154,5.211-1.719,10.008.861,4.785,2.592,12.18,5.184,16.527,2.592,4.356-2.592,6.528-6.468,10.446-6.468,6.09-4.323,8.265-13.398,9.57-15.978,1.305-2.592.441-2.592-2.172-5.184-2.61-2.592-1.305-6.918-1.746-11.229-.426-4.326-2.172-10.794-7.395-20.304-5.214-9.495-8.265-21.162-11.742-24.177-3.48-3.03-5.226-10.368-5.664-13.821-.426-3.453-4.344-6.48-6.96-9.075-2.61-2.58-5.22-6.468-8.259-21.585-3.054-15.12-5.226-25.911-5.226-28.503s-.438-3.03-3.051-3.888c-2.61-.861-3.918-5.184-3.039-7.341.867-2.157-.879-4.314-1.746-6.906-.864-2.592,0-7.341,1.746-9.93,1.734-2.595,1.308-9.936-.438-15.981-1.746-6.042-3.48-11.229-10.449-12.099-6.957-.861-8.262-2.58-10.875-8.202-2.61-5.61-5.223-15.54-6.09-17.709-.867-2.16-2.172-2.595-7.398,1.731-5.22,4.311-6.957,5.745-6.957,13.821,0,5.184.87,6.906,2.601,9.933,1.746,3.018,2.184,3.888,3.492,12.09,1.305,8.202,8.7,21.162-.879,28.503-9.57,7.341-8.265,9.072-7.824,14.247.426,5.184-2.61,8.634-4.359,1.296-1.731-7.341,0-11.655,5.226-15.108,5.22-3.462,10.008-7.776,6.528-12.525-3.489-4.746-4.785-15.978-5.223-21.162-.441-5.184-1.305-6.915-4.359-3.03v.003Z"/>
        <path class="cls-4" d="M2442.336,1272.793c-.24,3.516.552,7.38.828,10.482.327,3.564,1.308,11.019-1.305,16.527-2.61,5.496-1.959,8.412,0,10.032.114.09.213.174.315.261,5.322-1.77,6.015-7.665,4.581-10.518-1.518-3.015-1.08-6.69.654-9.708,1.746-3.03,1.746-4.749.225-6.918q-1.53-2.157.216-8.199c1.53-5.322-2.337-5.286-5.514-1.959h0ZM2497.992,1356.484c-.981-3.888-4.572-18.795-4.899-28.503-.327-9.72-4.56-17.499-12.72-24.939-6.366-5.82-7.761-15.168-8.061-22.383-4.785-2.904-6.81-1.584-6.405,3.81.426,5.823,6.303,8.64,5.436,17.052-.867,8.424-.867,6.27,3.267,10.371,4.131,4.098,5.649,7.989,3.48,9.72-2.175,1.719-2.4,4.749.651,5.82,3.039,1.083,3.264,4.326,2.826,7.341-.441,3.03,2.4,3.678,4.131,5.832,1.746,2.157,1.959,7.341.225,10.371-1.746,3.015-1.959,7.764,1.08,5.184,3.051-2.592,4.359-.225,6.744,3.876,2.07,3.54,3.804,2.43,6.054,1.359-.76-1.575-1.365-3.22-1.809-4.911h0ZM2472.537,1176.616c-3.228.237-5.439,3.042-3.591,12.849,1.155,6.069-3.48,4.749-5.211,1.719-1.746-3.015-3.054-9.495-6.531-15.117-3.492-5.61-1.746,3.888-2.172,9.075-.441,5.184,3.039,5.184,6.09,9.495,3.039,4.326.426,6.06-3.051,6.06s-1.734,6.9-.867,11.652c.867,4.746-.867,5.619-3.492,1.731-2.598-3.888-.864-9.933-.426-17.274.426-7.341.867-5.622-3.918-7.341-4.785-1.731-3.918-2.592-2.172-6.915,1.734-4.314,3.48-6.48,1.305-8.64-2.184-2.154-1.746-3.45,1.734-3.888,3.48-.42,2.184-3.015,5.223-3.888,3.051-.858,4.359.438,4.785-5.172.363-4.686,1.947-7.566,5.49-6.144,2.13,7.215,4.908,18.447,6.804,21.798h0ZM2552.064,1254.235c1.293-9.495.426-18.99,4.344-22.458,3.918-3.45,8.703-10.356,8.265,4.326-.429,14.682-.87,13.821-3.906,17.274-3.051,3.45-5.664,4.311-2.61,9.93,3.036,5.61,3.477,6.048,3.036,14.685-.426,8.637-.426,12.09,3.051,16.413,3.48,4.311,4.347,4.749,5.226,9.498.867,4.746,3.906,11.229,7.824,14.679,3.918,3.453,8.274,13.386,8.7,20.304.441,6.903,6.531,8.637,12.18,13.386,5.667,4.749-1.29,8.199-5.649,6.045-4.344-2.16-2.61,0-5.223,3.015-2.613,3.03-3.48,3.465-5.652-1.719-2.172-5.187-9.582-8.64-13.059-9.933-3.48-1.296-6.519-6.918-9.57-12.528-2.61-4.821-7.785-8.349-12.507-8.709,1.305,3.639,2.01,6.492,1.632,7.851-1.305,4.749-3.051,8.199,2.172,13.809,5.226,5.619,8.703,13.821,9.144,18.57.426,4.761,1.305,6.48,6.516,4.761,5.223-1.734,7.836-3.465,9.582-5.622,1.734-2.154,5.211-1.719,10.008.861,4.785,2.592,12.18,5.184,16.527,2.592,4.356-2.592,6.528-6.468,10.446-6.468,6.09-4.326,8.265-13.398,9.57-15.978,1.305-2.592.438-2.592-2.172-5.184s-1.308-6.918-1.746-11.229c-.426-4.326-2.172-10.794-7.398-20.304-5.211-9.495-8.262-21.162-11.739-24.18-3.48-3.027-5.226-10.368-5.664-13.818-.426-3.453-4.344-6.48-6.96-9.075-2.61-2.58-5.22-6.468-8.259-21.585-2.388-11.817-4.233-20.976-4.923-25.662-3.129,4.95-5.262,6.156-6.39,2.766-1.308-3.876-3.054-6.045-4.788-3.45-1.746,2.592-2.184-2.16-2.184-4.314,0-2.169-.426-2.592-2.61-2.592s-.429-3.45-1.308-9.933c-.867-6.48-2.172-7.341-3.039.435-.867,7.764-5.223,12.513-3.48,14.247,1.734,1.731.87,5.184-.879,10.368-1.731,5.172-.864,8.202.441,11.652,1.305,3.453-.867,9.936-1.746,15.555-.867,5.61,3.492,11.22,4.8,1.719h-.003ZM2516.376,1227.466c0,9.072,0,12.525,3.918,15.978,3.918,3.45,3.48,6.903,5.223,15.117,1.734,8.202,1.734,25.911,6.96,38.001,1.554,3.6,3.702,8.175,5.901,12.936,2.886-2.256,5.4-6.132,6.291-8.19,1.29-3.027-2.613-9.072-5.664-14.244-3.039-5.184.438-6.918,3.48-13.398,3.048-6.468-.429-6.903-5.214-8.637-4.797-1.719-4.797-6.045-7.41-12.948-2.61-6.906-2.172-9.933-.426-13.821,1.734-3.891.429-6.906-3.051-7.779-3.48-.858-2.61-3.45-1.305-7.764,1.305-4.326,2.172-5.184-3.039-3.888-3.957.972-4.911,1.707-6.09,3.129.288,1.245.426,2.979.426,5.508Z"/>
      </g>
      <path class="cls-28" d="M2598.585,1223.95l-10.431,114.105M2629.824,1293.847c-4.26,19.302-9.873,41.229-15.561,59.82M2766.345,1238.902c7.911,7.35,18.534,9.069,30.291,14.772M2818.731,1289.362l-5.784,43.965M2813.079,1291.306l-10.371,45.138M2622.999,1295.212c-4.899,18.762-11.457,35.871-17.748,53.241"/>
      <path class="cls-2" d="M2849.351,1401.352c-.285.085-.576.149-.87.189-.307.047-.63.079-.957.102l-.997.067c-.329.019-.657.045-.985.079-.315.039-.627.079-.914.146-.275.058-.543.145-.8.26-.234.106-.447.253-.63.433-.183.184-.323.406-.41.65-.258.353-.535.691-.831,1.012l-.461.496c-.319.335-.634.674-.945,1.016l-.449.536c-.146.185-.285.376-.417.571-.134.197-.256.398-.37.611-2.319,1.896-5.127,3.098-8.098,3.47-2.131.591-7.145.74-9.256,0-4.077.055-8.354-.244-10.8-1.93-2.868-1.477-6.602-.508-8.87.772-1.812,1.02-2.167,2.887-4.246,3.47-1.245,1.646-6.759,1.453-8.87.772-4.805.307-7.748-1.249-11.186-2.312-2.265-1.607-5.901-2.785-8.485-.386-1.615,1.725-3.821,2.867-6.558,3.47-4.703-.189-10.032.614-13.499-1.158-3.86-.323-5.333-2.43-8.87-3.466-4.037-.685-5.908,1.41-8.485,2.312-2.304,1.918-5.574,2.123-9.642,1.93-4.203-.173-9.312.563-11.955-1.162-3.407-.378-5.593-2.336-8.098-3.466-2.478-1.954-7.094.087-9.256,1.154-3.707.575-5.089,3.47-9.757,3.084-3.801-.465-6.389-2.021-9.914-3.084-3.317-1.481-6.294-3.797-11.569-3.47-1.576,2.08-4.975,2.946-8.465,3.084-3.132.039-6.228.043-8.508-.772-6.302-.189-9.335-6.822-13.896-10.363l-22.802-22.605c1.308-4.041,1.772-4.746-.327-7.385.866-4.03-1.891-4.581-.772-8.622,1.709-3.1-3.076-2.56-4.242-4.238-2.737-.536-3.899-2.545-6.558-3.474-2.158-1.505-4.246-2.505-6.94-3.856-2.363-.973-4.404-2.281-6.558-3.466-1.623-1.465-3.777-2.399-5.396-3.86-2.107-.969-3.821-2.245-5.404-3.466-2.214-.701-3.289-2.351-5.404-3.474-1.528-1.43-3.998-2.651-5.786-3.856-2.808-.926-5.369-2.757-8.485-3.466-2.111-.079-2.757-4.794,1.138-4.632,2.785.087,4.498,1.851,6.578,3.084,3.281,1.351,6.487,2.769,10.415,3.474,2.273,1.347,4.305,2.056,6.94,3.084,2.281,1.765,5.282,2.072,8.102,3.856,2.623,1.194,5.755,2.611,7.33,3.856,2.233.945,3.384,2.56,5.79,3.466.827,1.008,2.529,1.465,3.86,2.702,2.359.882,4.487,1.895,6.168,3.084,2.198,1.442,3.411,1.603,5.014,3.088,1.985.614,14.534,6.925,13.901,6.18,12.352,2.375,17.812,3.124,30.231,4.892l90.078,1.418,32.657-13.644,9.922-15.708,48.275-8.823c-.914-.977,84.733-3.013,86.537,4.175.764,3.033,3.084,9.126.303,10.564-1.82.941-80.881-10.064-82.102-2.962-.532,3.08.118,22.263.559,25.358l1.324,9.284,1.324,9.284,1.324,9.284,1.328,9.288h0Z"/>
      <g>
        <path class="cls-28" d="M2604.585,1279.855c-14.556,16.566-29.046,29.784-44.58,42.423M2684.619,1212.406l46.929-40.596M2663.562,1252.531c9.402,6.591,19.914,12.519,34.248,16.152M2656.929,1191.175c5.841,9.249,12.696,18.225,33.168,23.571M2643.588,1098.808c-6.339,8.424-16.47,16.275-29.733,22.719M2660.412,1155.793c6.684,6.474,16.086,10.233,25.698,13.782M2660.406,1297.123c4.725,23.25,8.805,41.718,14.196,60.969"/>
        <path class="cls-28" d="M2656.68,1357.612c24.384-25.035,45.21-51.936,58.737-82.662M2765.172,1184.422c7.812,8.37,15.957,14.445,28.692,17.895M2799.06,1154.455c6.621,11.871,14.775,20.67,22.416,30.507M2726.994,1117.348c-.819,11.802-7.98,23.661-12.99,33.891"/>
        <path class="cls-28" d="M2743.86,1123.168c-8.688,9.669-17.079,20.028-28.959,25.971M2745.351,1081.078c-5.961,4.056-14.262,8.808-20.778,11.202M2834.31,1170.877c-7.2,8.55-14.403,18.603-26.259,25.98M2835.645,1242.088c-9.21,8.721-17.475,18.858-28.041,25.545M2888.94,1292.446c-16.5,12.942-33.396,25.092-51.687,34.458M2846.037,1328.593c15.492-9.663,29.16-22.98,42.903-36.147M2841.555,1172.656c2.976,7.776,9.915,16.284,16.788,21.831"/>
      </g>
      <path class="cls-36" d="M2831.409,1095.135l-1.347,233.721,17.016-1.008-7.141-233.461-8.527.748Z"/>
      <g>
        <path class="cls-25" d="M2842.741,1396.507c4.057,2.442,6.389,4.628,9.733,7.874,7.452,6.846,12.439,6.873,23.074-.063,3.966.457,7.98,2.525,12.282,1.737,3.797.118,7.488-.555,11.198-1.359,4.541-1.091,5.191-6.562,6.798-10.225,2.08-4.254,4.349-8.646,7.338-12.321,3.931-2.643,8.181-5.373,10.903-9.312,3.112-3.655,2.58-8.421,1.93-12.813-.358-4.175-.693-8.063-.658-12.274-1.036-5.318,3.565-9.43,3.167-14.653-2.627-2.336-6.968-2.962-10.497-3.978-6.211-1.356-12.511-2.267-18.852-2.726-5.176-.417-10.34-.973-15.495-1.355-5.093-.402-10.174-.748-15.283-.764-5.727.158-11.635-.552-17.245.374-4.014.941-9.075.579-12.38,2.422-1.485,3.888-2.434,7.913-2.6,11.943-.543,3.47-.744,7.078-.74,10.714.201,6.629-.681,13.372,1.158,19.801,1.221,5.176,1.655,10.442,2.631,15.559.142,4.085.642,8.287,3.541,11.419h-.003Z"/>
        <path class="cls-28" d="M2862.165,1282.675l23.154,43.314M2920.02,1328.257c-6.828-7.167-12.189-15.801-16.32-25.668"/>
      </g>
      <path class="cls-1" d="M2918.448,1260.679l7.623,5.361.531.201c-2.496-2.334-4.926-4.869-8.094-5.556,0,0-.042,0-.06-.006h0ZM2902.362,1262.941l-.861.261-10.719,41.91,11.58-42.171ZM2953.482,1264.462c-2.64.219-5.151,1.332-7.647,2.517l4.5-1.569,5.856-.87c-.899-.1-1.805-.126-2.709-.078h0ZM2903.7,1302.589l-2.1.408c.879,0,1.719.045,2.415.225,1.062.273,2.004.69,2.901,1.161l-3.216-1.794ZM2907.894,1304.929c2.745,1.653,5.064,3.78,8.316,4.647l-8.316-4.647ZM2932.68,1307.068l-14.301,2.862c5.007.444,9.495-1.524,14.301-2.862Z"/>
      <path class="cls-9" d="M2903.085,1260.371l-12.289,44.746,12.92-2.521,13.55,7.559,20.482-4.096,10.399,1.576c3.21-14.377,2.269-31.346,10.71-43.481l-8.508,1.26-13.55,4.727-10.714-4.096-8.504-5.987-14.495.315Z"/>
      <path class="cls-15" d="M2922.626,1265.728c-2.147,4.124-4.234,8.283-4.735,13.235,0,0-5.999-2.096-9.13-2.521-3.332-.449-10.084,0-10.084,0l-.087.288-2.911,10.584c.307-.039,8.248-1.02,11.817-.473,2.663.402,7.563,2.836,7.563,2.836l-3.962,17.04,2.521,1.41,5.491,1.658.158-.031,2.316-.469c1.06-5.826,1.914-11.852,4.502-16.149,0,0,8.311,2.233,12.92,1.895,3.171-.232,9.717-.93,11.328-1.107.457-3.604.929-7.212,1.564-10.753-1.615.433-8.634,2.159-12.581,1.773-3.572-.343-10.076-3.773-10.076-3.773.945-3.679,2.627-7.358,4.408-11.033l-11.021-4.407Z"/>
      <path class="cls-27" d="M2894.136,1260.162c-5.448-14.909-12.21-39.33-14.976-58.697"/>
      <g>
        <path class="cls-33" d="M2899.044,1263.617s13.471-3.183,19.068-1.969c5.869,1.268,9.595,7.968,15.539,8.807,6.842.965,12.959-5.42,19.852-5.987,3.269-.272,9.764,1.26,9.764,1.26l-4.412,16.386-3.781,13.865v12.285s-11.533-2.773-17.331-2.206c-7.271.709-13.266,4.963-20.478,3.781-5.326-.874-8.008-5.266-13.235-6.617-4.313-1.115-15.291,1.753-15.291,1.753l10.304-41.358Z"/>
        <g>
          <path class="cls-72" d="M2901.501,1263.202l-5.364.315-17.01,60.18,7.878.318,14.496-60.813Z"/>
          <path class="cls-72" d="M2896.14,1263.517c-2.355-1.308-4.047-5.157-2.835-7.56,1.377-2.73,5.889-3.384,8.82-2.52,3.213.948,7.695,4.389,6.618,7.56-1.38,4.059-8.862,4.602-12.606,2.52h.003Z"/>
        </g>
      </g>
      <path class="cls-1" d="M2958.194,1264.834c-8.201,11.884-7.523,28.116-10.639,42.075,3.923.634,7.121,1.355,7.121,1.355v-12.289l3.971-13.861,4.62-16.386s-2.415-.512-5.073-.894Z"/>
      <path class="cls-28" d="M2861.238,1216.105c8.439,5.757,17.07,21.078,29.085,33.099M2877.117,1194.244c-6.246-16.443-11.28-43.296-12.162-63.315M2852.25,1290.7l13.299,34.71M2865.48,1114.72c-11.445-2.931-22.296-11.04-24.009-17.55M2790.78,1126.126c7.425.567,33.384-18.849,37.359-28.959M2856.933,1285.729l18.306,39.099M2855.496,1298.878l13.332-5.019M2857.737,1306.18l14.22-5.946M2863.59,1320.844l15.492-6.585M2847.66,1243.87l18.693,20.025M2808.051,1292.38l-12.906,43.62M2804.481,1302.106l13.05-.189M2801.298,1312.855l15.21.444M2797.812,1323.982l16.47,3.114"/>
      <g>
        <path class="cls-52" d="M2841.556,1089.262c-3.037-1.052-11.072-1.257-14.266,1.312-1.714,1.379-.288,5.987,1.851,6.026,4.325.079,9.815.28,11.537-.985,1.788-1.312,2.946-5.641.882-6.353h-.004Z"/>
        <path class="cls-35" d="M2794.321,1125.732c5.581,22.845,29.817,19.037,28.699-1.816"/>
        <path class="cls-44" d="M2816.576,1124.665c7.259,26.237,38.767,21.861,37.309-2.088"/>
        <path class="cls-47" d="M2843.226,1124.165c7.098,19.218,17.095,15.488,29.03-1.969"/>
        <path class="cls-37" d="M2879.188,1115.042l-88.617,5.073.217,6.003,89.338-4.585-.938-6.491Z"/>
        <path class="cls-34" d="M2797.559,1203.935c5.365,25.13,30.636,21.396,29.869-1.473"/>
        <path class="cls-50" d="M2820.719,1203.167c7.039,28.88,39.881,24.657,38.826-1.615"/>
        <path class="cls-51" d="M2848.433,1203.1c7.011,21.183,17.477,17.28,30.211-1.631"/>
        <path class="cls-42" d="M2885.995,1193.757l-92.229,3.955.114,6.578,92.966-3.399-.851-7.133Z"/>
        <path class="cls-61" d="M2795.191,1274.768c5.955,25.65,31.811,21.372,30.613-2.04"/>
        <path class="cls-53" d="M2818.935,1273.57c6.361,38.27,41.351,24.547,39.798-2.344"/>
        <path class="cls-71" d="M2847.362,1273.003c7.571,21.581,18.237,17.394,30.96-2.206"/>
        <path class="cls-56" d="M2885.727,1262.762l-94.533,5.7.232,6.739,95.297-5.148-.996-7.291Z"/>
        <path class="cls-73" d="M2853.93,1160.689l-35.07,1.032.105,8.709,35.343-.12-.378-9.621ZM2854.17,1234.87l-35.07,1.032.105,8.709,35.343-.12-.378-9.621Z"/>
      </g>
      <g>
        <path class="cls-27" d="M2766.583,1275.536l25.867,62.242M2635.572,1294.943c-2.828,19.627-7.287,44.706-12.289,63.613"/>
        <path class="cls-21" d="M2925.73,1332.831c-14.731-2.375-29.522-4.805-44.431-5.455-11.746-.516-23.539.169-35.249,1.221-17.075,1.536-34.52,2.324-50.891,7.405-2.21.685-4.569,1.45-6.223,3.065-4.616,4.506-5.069,12.006-8.965,17.146-3.773,4.983-18.182,13.29-23.381,16.76-37.872.945-79.959.417-127.052-6.625l-6.625-7.405-2.726-2.73,7.405,2.73,16.756.39,40.925-1.56s34.571.039,51.832-.78c9.761-.461,19.537-1.044,29.227-2.336,2.095-.28,4.467-.012,6.235-1.17,2.895-1.891,3.836-5.763,5.845-8.575,1.891-2.639,3.08-6.093,5.849-7.795,7.382-5.53,16.748-5.03,24.783-6.566,9.639-1.843,18.513-2.214,28.222-3.643,11.226-1.65,22.57-2.43,33.902-3.041,7.267-.39,14.57-.926,21.822-.39,11.037.815,23.141-.047,32.74,5.455,1.761,1.012,4.936,2.934,3.899,4.679-.681,1.138-2.592-.571-3.899-.78h0Z"/>
        <path class="cls-28" d="M2753.394,1081.078c5.607,4.293,15.951,7.875,25.989,9.402M2741.769,1239.145c-11.859,8.535-24.39,14.394-37.362,18.48M2775.321,1350.22l-20.616-54.069M2758.788,1278.451l23.73,61.656M2755.872,1294.399l15.753-5.445"/>
      </g>
      <path class="cls-55" d="M2744.951,1073.101l-4.892,287.251,17.012-1.02-3.198-286.199-8.922-.031Z"/>
      <path class="cls-27" d="M2765.398,1117.5c6.645,12.628,17.272,22.767,32.827,29.829"/>
      <g>
        <path class="cls-34" d="M2709.785,1099.602c5.365,25.13,30.636,21.4,29.872-1.469"/>
        <path class="cls-50" d="M2732.945,1098.834c7.043,28.88,39.885,24.657,38.83-1.611"/>
        <path class="cls-51" d="M2760.659,1098.771c7.011,21.183,19.813,23.105,30.215-1.631"/>
        <path class="cls-42" d="M2798.224,1089.428l-92.229,3.951.11,6.582,92.969-3.403-.851-7.129Z"/>
        <path class="cls-34" d="M2709.785,1157.503c5.365,25.13,30.636,21.396,29.872-1.473"/>
        <path class="cls-50" d="M2732.945,1156.735c7.043,28.88,39.885,24.657,38.83-1.611"/>
        <path class="cls-51" d="M2760.659,1156.668c7.011,21.187,28.199,17.623,30.215-1.627"/>
        <path class="cls-42" d="M2798.224,1147.329l-92.229,3.951.11,6.582,92.969-3.403-.851-7.129Z"/>
      </g>
      <path class="cls-27" d="M2737.262,1189.779c-8.319,5.463-15.881,12.155-26.824,15.515"/>
      <g>
        <path class="cls-34" d="M2707.028,1211.86c5.369,25.13,30.636,21.396,29.872-1.473"/>
        <path class="cls-50" d="M2730.188,1211.092c7.043,28.88,39.885,24.657,38.83-1.611"/>
        <path class="cls-51" d="M2757.902,1211.025c7.011,21.187,25.741,14.527,30.215-1.627"/>
        <path class="cls-42" d="M2795.467,1201.686l-92.229,3.951.11,6.582,92.969-3.403-.851-7.129Z"/>
      </g>
      <path class="cls-28" d="M2718.672,1277.602c-2.379,28.371-13.746,54.048-21.435,80.826M2728.941,1277.824c-2.538,27.582-11.097,53.505-18.084,79.419M2737.425,1275.37c-3.303,30.642-6.996,56.229-13.842,81.72"/>
      <g>
        <path class="cls-34" d="M2708.209,1263.853c5.369,25.13,30.636,21.396,29.872-1.473"/>
        <path class="cls-50" d="M2731.37,1263.085c7.043,28.88,39.885,24.657,38.83-1.611"/>
        <path class="cls-51" d="M2759.084,1263.018c7.011,21.187,25.465,17.008,30.215-1.627"/>
        <path class="cls-42" d="M2796.649,1253.679l-92.229,3.951.11,6.582,92.969-3.403-.851-7.129Z"/>
        <path class="cls-68" d="M2767.347,1128.45l-33.103,1.032.095,8.709,33.362-.118-.354-9.623Z"/>
        <path class="cls-65" d="M2765.973,1184.418l-29.431.965.083,8.161,29.66-.11-.311-9.016Z"/>
        <path class="cls-62" d="M2767.82,1238.881l-31.996,1.036.102,8.748,32.248-.118-.354-9.666Z"/>
      </g>
      <path class="cls-28" d="M2718,1287.874l17.193,3.57M2713.98,1303.948l19.875.447M2710.857,1315.558l20.541,5.805M2705.274,1333.867l24.114-1.116M2701.032,1348.603l25.455-.669M2695.086,1276.921c-2.7,29.025,16.032,56.544,25.386,80.934M2772.792,1342.636l16.338-4.863M2768.904,1333.882l18.477-7.779M2763.069,1320.073l19.059-5.64M2758.788,1307.041l18.672-4.86"/>
      <path class="cls-6" d="M2658.888,1409.206c-2.166.048-4.239-.741-6.39-1.017-2.139-.687-4.305-1.332-6.318-2.361-1.989-.966-3.864-2.445-5.652-3.726-1.808-1.315-3.508-2.772-5.085-4.356-2.025-1.854-4.068-3.558-5.901-5.58-1.923-1.965-3.954-3.915-5.595-5.949-1.776-1.977-3.945-3.525-5.388-5.742-1.662-1.623-1.668-4.464-3.069-6.234-2.286-.45-5.658-.831-5.754-3.852-.753-1.821-1.08-4.053-3.363-3.804-.948.048-1.206,1.44-.621.573-1.173-.633-.861,2.163-1.014.66-.69,1.11-1.437,3.468-1.41,3.297-1.008,2.022-.894,4.302,1.746,4.578,2.517.372,2.811,3.126,4.95,4.245,1.71,1.659,3.801,3.855,5.7,5.358,1.818,2.22,3.213,3.462,4.62,5.991.876,1.779,3.195,3.027,4.524,4.5,1.11,1.836,2.37,3.462,3.81,5.085,1.59,1.626,3.63,3.348,5.532,4.398,1.716,1.041,3.441,1.983,5.22,2.982,1.947.966,3.789,2.286,5.928,2.691,2.268,1.269,5.082.87,7.578,1.41,2.493.15,4.95,0,7.02-1.584,2.061-1.389-.039-1.128-1.068-1.563h0ZM2793.54,1343.944c-3.039,7.2-7.875,17.196-13.902,23.4,19.761,3.822,35.67-1.695,53.478-4.719-1.998-7.617-1.929-16.062-1.182-24.78-14.154,1.443-24.234,4.659-38.391,6.099h-.003Z"/>
      <path class="cls-7" d="M2795.196,1345.916c-2.497,6.369-4.412,12.947-9.363,18.434,16.22,3.38,29.463-1.501,44.076-4.175-2.796-5.908-1.962-12.329-.969-18.777-11.62,1.272-22.129,3.246-33.744,4.518Z"/>
      <path class="cls-6" d="M2624.46,1374.616l57.381,4.335c46.095,1.419,98.961-.672,144.666-5.91,1.875-.219,4.944-.741,5.565,1.041.756,2.172-2.247,4.872-4.521,5.217-52.461,6.84-105.492,4.2-158.229,3.825l-31.299-3.291-13.563-5.217Z"/>
      <path class="cls-27" d="M2645.526,1245.927c-14.763,11.383-29.482,22.877-46.183,29.423M2647.763,1191.815c-13.487,9.745-26.895,21.77-41.342,27.671"/>
      <path class="cls-40" d="M2642.776,1093l-.378,268.431,14.731-1.016-8.543-268.959-5.81,1.544Z"/>
      <path class="cls-27" d="M2648.59,1091.46c11.958,13.235,21.483,20.384,31.574,28.951"/>
      <path class="cls-63" d="M2652.395,1083.803c-2.994-1.532-10.918-1.832-14.07,1.906-1.69,2.009-.288,8.721,1.831,8.776,4.262.114,9.674.414,11.371-1.43,1.765-1.91,2.903-8.213.866-9.252h0Z"/>
      <path class="cls-22" d="M2643.99,1396.113c.417-2.277,2.178-2.938,4.242-3.328,2.379.091,5.286-.343,6.81.603,1.828.461,2.757,1.386,4.392,2.123.989,1.209,2.702,2.04,3.939,2.726,4.817,1.851,2.206-3.718,4.947-3.939,2.324.209,4.766-.867,6.712,0,1.733.343,2.537,1.607,3.486,2.726,1.036.918,2.167,1.706,2.73,2.726.39,1.402,5.574,3.943,5.755.607,1.064-2.277.591-6.216,4.242-5.751,4.065-.225,7.196.788,10.903,1.209,1.946.796,3.525,1.052,5.144,2.726,1.406.839,1.292,2.505,2.576,2.422,3.691,2.722,2.922-2.324,4.092-3.939.918-1.461,3.585-1.056,4.845-2.119,2.34-.685,4.593-1.461,7.87-1.209,1.316.74,3.6,1.887,5.156,2.726,1.162,1.071,2.631,2.47,3.336,4.238.138,1.773,1.745,3.183,3.332,1.816.812-2.032,2.442-1.981,3.939-3.029,1.564-.347,2.588-1.339,3.632-2.419.918-.236,1.863-2.265,2.73-3.033,1.611-1.205,4.864-.918,7.571-1.209,2.67.788,5.148,1.107,6.665,2.422.926.993,1.603,2.237,3.033,2.726.851,1.757,2.895.291,4.242-.303,1.099-.815,2.777-1.702,4.242-2.422,1.276-1.276,3.1-2.009,5.546-2.119,2.982-.339,4.541,1.233,6.866,1.513,2.19.957,4.668,1.103,6.058,2.426,1.583,1.075,3.722,1.977,5.298.603,2.064.063.469-3.978,1.26-4.928,2.383-1.891,8.035-1.639,11.005-.52,2.509.067,5.443-.295,7.118.607,1.655.402,1.903,1.977,2.576,3.632.756,1.548,5.148,1.485,6.661.303,1.438.031-.323-2.048-.906-2.726-.929-.611-1.934-2.084-2.43-3.033,2.257-1.087,3.301.977,5.148,1.213,1.083.926,2.545,1.245,3.635,2.422,1.768.654,3.309,1.528,6.042,1.213,2.537.74,1.418,4.443-1.497,3.632-2.135.693-5.546.11-8.177.303-3.982-.473-8.252-.256-12.411-.303-2.076.772-5.475.571-7.878,1.213-2.58-.031-4.581.512-7.342.303-2.611.394-5.696.303-8.701.303-2.659.512-4.963.603-7.768.906-2.43.028-4.412.508-7.07.303-3.49.646-8.13.146-12.112.303-2.501.417-4.628.351-6.964.607-2.529.071-4.762.496-7.464.603-2.761-.075-4.849.524-7.756.303-4.305.654-9.051.142-13.542.303-2.158-.496-5.022-.288-7.362-.607-2.221-.063-4.077-.496-6.554-.303-1.879-.646-5.128.071-6.98-.603-3.675.213-6.468-.461-10.084-.303h-19.588c-1.674-.709-4.663-.098-6.838-.303-3.639-.063-7.988.126-11.218-.087-2.938-.512-6.141.043-8.587-1.123-3.911-.717-8.882-1.981-8.548-5.152h0Z"/>
      <g>
        <path class="cls-69" d="M2611.553,1126.044c4.695,17.398,26.808,14.81,26.138-1.024"/>
        <path class="cls-54" d="M2631.819,1125.512c6.16,19.994,34.898,17.071,33.977-1.115"/>
        <path class="cls-58" d="M2656.07,1125.465c6.133,14.668,17.331,16,26.438-1.127"/>
        <path class="cls-60" d="M2688.94,1118.997l-80.704,2.738.099,4.557,81.35-2.359-.744-4.936Z"/>
      </g>
      <path class="cls-27" d="M2633.528,1158.051c-7.078,6.192-20.443,14.29-26.312,13.499"/>
      <path class="cls-27" d="M2619.084,1135.682c-17.488,66.331-40.078,136.718-61.455,192.93"/>
      <g>
        <path class="cls-41" d="M2610.627,1176.178c4.829,18.69,27.56,15.913,26.871-1.095"/>
        <path class="cls-49" d="M2629.885,1175.807c6.338,25.059,35.883,21.396,34.93-1.398"/>
        <path class="cls-70" d="M2656.429,1175.583c6.995,15.689,19.761,17.11,30.136-1.205"/>
        <path class="cls-66" d="M2690.098,1166.712l-82.795,3.624.095,6.034,83.457-3.12-.756-6.539Z"/>
        <path class="cls-45" d="M2606.279,1224.015c5.231,22.885,29.857,19.486,29.116-1.339"/>
        <path class="cls-48" d="M2628.896,1223.759c7.334,33.725,41.54,28.793,40.44-1.883"/>
        <path class="cls-39" d="M2655.865,1223.255c6.834,19.297,19.308,21.045,29.451-1.481"/>
        <path class="cls-46" d="M2692.438,1214.747l-94.269,3.604.11,5.991,95.022-3.096-.863-6.499Z"/>
        <path class="cls-57" d="M2604.597,1279.857c5.664,24.787,32.338,21.105,31.531-1.45"/>
      </g>
      <path class="cls-27" d="M2674.343,1292.757c5.452,23.558,12.549,45.092,19.387,65.173M2667.245,1291.937c2.982,22.672,9.276,44.62,15.834,65.858"/>
      <g>
        <path class="cls-43" d="M2629.042,1279.101c6.81,32.874,41.279,30.085,40.988-1.587"/>
        <path class="cls-64" d="M2658.296,1279.038c7.401,20.892,20.911,22.79,31.893-1.607"/>
        <path class="cls-38" d="M2697.826,1268.686l-105.022,4.309.126,7.169,105.861-3.707-.965-7.771Z"/>
        <path class="cls-59" d="M2663.578,1150.516l-30.144.8.095,6.735,30.381-.094-.331-7.441ZM2663.578,1199.358l-30.144.8.095,6.735,30.381-.094-.331-7.441Z"/>
        <path class="cls-67" d="M2665.512,1252.545l-32.066.796.095,6.716,32.318-.094-.347-7.417Z"/>
      </g>
      <g>
        <path class="cls-28" d="M2677.308,1299.613l-17.19,3.57M2680.041,1312.72l-17.193,3.57M2683.86,1326.94l-17.46-.84M2689.05,1340.59l-18.012,2.709M2608.512,1337.839l18.09,3.57M2613.51,1323.094l16.29,3.57M2617.905,1311.736l15.093,3.87M2620.662,1301.524l13.593,2.67"/>
        <path class="cls-24" d="M2835.69,1361.668c30.132-1.344,66.159-4.824,90.399,4.632M2837.61,1371.703c27.78-4.095,60.132-6.411,83.85,2.7M2840.688,1391.77c20.025-4.485,46.827-5.532,65.82-.771M2842.728,1396.501c20.025,4.488,43.605,5.535,62.601.774"/>
      </g>
      <path class="cls-6" d="M2549.694,1326.439l65.031,39.297,1.389-1.74-20.517-14.256c-14.649-9.072-29.37-18-45.903-23.301Z"/>
      <g>
        <path class="cls-20" d="M2861.913,1358.521l-.51-21.687M2868.546,1337.089v22.197M2880.792,1359.541v-23.217M2894.316,1338.271v22.29M2902.479,1338.109l.255,22.71M2913.195,1340.449v21.132M2918.808,1340.152l-.255,23.727M2864.721,1367.962l-.258,20.409M2857.83,1368.982v19.389M2875.689,1368.472l-.765,19.389M2882.325,1368.217l-.258,19.389M2892.273,1367.962l-1.275,18.879M2901.714,1370.512l-3.57,17.349"/>
        <path class="cls-30" d="M2836.143,1338.223c29.766-3.528,59.532.732,89.298,3.693"/>
      </g>
      <path class="cls-23" d="M2998.425,1071.13c.225-76.674-4.068-151.116-2.109-216.348-99.207-44.058-229.74-53.118-296.31-53.118s-197.118,9.06-296.322,53.118c1.959,65.232-2.325,139.674-2.109,216.345l596.85.003Z"/>
      <g>
        <path class="cls-29" d="M2682.107,946.575s10.719,15.941,13.604,24.52c1.414,4.199,1.944,8.77,1.65,13.191-.539,8.082-3.663,15.802-6.184,23.5-1.749,5.335-5.593,9.382-3.467,14.578,1.025,2.505,2.03,4.801,4.705,4.384,1.634-.254,2.417-2.265,3.709-3.297.924-.738,1.793-1.609,2.886-2.062,1.545-.64,3.746.338,4.947-.824,1.006-.977,1.713-3.039.825-4.123-.784-.956-2.475-.047-3.711,0-1.79.068-3.8,1.296-5.359.412-1.603-.908-2.473-4.947-2.473-4.947,0,0,3.206-8.83,4.947-13.192,1.437-3.603,3.765-6.916,4.536-10.719.245-1.213-.088-2.478,0-3.711.137-1.938-.496-4.345.823-5.772.86-.928,3.247.356,3.711-.824,1.769-4.505-6.457-7.457-8.245-11.955-.668-1.681-.236-3.651-.825-5.359-1.281-3.724-5.772-10.306-5.772-10.306l-10.306-3.495Z"/>
        <path class="cls-26" d="M2715.549,958.968s9.515,11.879,10.5,19.064c.219,1.595-1.067,3.09-1.105,4.699-.061,2.527,1.497,4.934,1.382,7.46-.375,8.126-4.655,15.595-6.632,23.486-1.673,6.675-4.421,20.171-4.421,20.171l6.078-.554,1.105-10.223s3.186-11.59,4.698-17.407c1.051-4.043,1.619-8.229,3.039-12.157.939-2.596,2.944-4.778,3.593-7.461.845-3.492,1.866-7.553.277-10.775-.554-1.122-2.172-1.306-3.04-2.21-2.07-2.157-3.635-4.789-4.973-7.461-1.357-2.708-3.039-8.566-3.039-8.566-1.268.472-7.461,1.934-7.461,1.934h0Z"/>
        <path class="cls-9" d="M2670.607,937.336l6.789,5.407,11.745,7.091,5.416.331,6.117,2.204,7.636-.239,5.651,5.77,1.589,1.068,6.275-.869,2.315-2.568,11.978-18.263-2.874-30.112-57.078,3.695-5.557,26.485Z"/>
        <path class="cls-9" d="M2732.173,886.509c7.71,6.259,15.208,12.812,21.236,20.759,4.647,5.501,7.49,12.982,14.307,16.423,9.604,10.255,50.713,22.147,50.85,25.352-9.475-3.861-13.594,9.069-22.777,6.992-8.547,2.482-15.584-3.107-22.976-6.216-11.109-.396-22.682.179-32.57,5.816-5.403,2.937-11.832-1.595-16.106-.104l-.491.93-.638.573M2670.608,937.336c-6.584-3.268-11.401-9.404-17.528-13.1-4.737-6.67-10.821-13.347-10.531-22.122-.743-9.07-3.119-21.614,1.186-30.233-3.093-6.759-7.43-8.58-10.85-15.241-2.478-9.212-11.818-14.498-6.209-21.501,6.235-5.543,10.599-12.089,18.637-14.964,6.665-1.545,13.425-.895,19.822,1.39,8.28.972,12.822,8.037,17.19,14.155,5.311,8.269,8.822,17.563,10.305,27.277,3.817,7.983,13.966,9.608,21.407,13.014,6.413,3.035,12.819,5.622,18.134,10.499"/>
        <path class="cls-6" d="M2777.213,939.899c-3.228-.461-10.977,2.739-8.949-2.055-7.943-.576-16.285,1.128-23.927-1.535-7.914-3.883-16.511-6.273-24.979-8.58-8.292-.45-18.063,1.469-24.428-5.335-6.607-3.861-16.265-1.076-22.325-6.69-6.126-5.211-9.809-12.405-9.579-20.449-1.217-7.885-4.152-18.499,4.679-23.138,5.769-1.749,11.286-.248,14.771-6.039,7.343-1.211,14.084,1.475,20.411,5.059,7.425,3.676,15.617,5.953,22.835,10.082,6.915,4.565,12.797,10.51,19.283,15.693,5.093,5.843,11.026,11.239,14.323,18.414,3.906,7.696,11.987,11.751,18.911,16.211,4.148,1.07,14.033,5.664,4.645,6.897-1.936.313-3.731,1.259-5.671,1.465h0Z"/>
        <path class="cls-12" d="M2696.245,913.98c-4.037-.542-8.13-1.37-11.456-3.871-2.621-1.564-9.092-5.361-4.891-8.328,3.492-.414,7.483,1.326,10.599-1.077,4.692-.982,9.649-1.073,13.982-3.381,4.033-2.192,8.796-.726,13.001-2.073,3.131-1.662,2.691-7.939,7.473-6.875,4.389-1.121,3.103,7.302-.813,4.628-2.425,3.396,4.377,4.546,6.177,6.646,3.623,4.113-4.351,5.043-5.062,8.094-5.039,1.469-8.729-4.859-13.766-3.086-.931,1.691.12,5.148-3.53,4.304-4.206-2.57-7.852.316-11.998.834,1.214.918-1.428,4.289.286,4.185h0ZM2783.758,944.163c-2.37-1.252-5.41-.194-8.04-.036-1.764.022-3.521.114-5.174-.627-2.603-.066-7.547-2.886-8.304.864.172,1.619,4.435,2.307.904,2.817-3.578.51-6.785-1.111-10.057-2.266-1.338-1.253-4.176-2.833-3.472.194,1.135,2.621-1.679,3.832-3.932,3.747-3.198-.227-6.763-1.093-9.085-3.421-1.675,2.074,2.361,4.993,4.747,5.142,2.383,2.02-3.6,1.224-4.956.943-2.016-.344-4.288-.612-6.04.637-2.795.631-2.865,3.358.38,3.061,3.122,1.025,6.626,1.957,9.722.344,3.36-1.96,6.99-3.363,10.844-4.02,3.006-.666,6.053-1.134,9.121-1.399,4.072-.466,8.171-.411,12.288-.408,3.204,1.711,6.355.229,9.19-1.275,1.748-.539,7.03-2.533,3.183-4.052-.483.169-.885-.612-1.321-.245h0Z"/>
        <path class="cls-6" d="M2772.815,949.821c1.58.017,3.142-.02,4.547-.781,1.543-.854,3.228-1.131,4.868-1.729,2.105.023,3.075-2.817.857-3.403-1.162-.771-2.541-1.321-3.752-1.86-1.252-1.083-3.093-1.42-4.218-2.551.947-1.181,1.768-2.456,2.72-3.629,1.472-.59,3.259-.361,4.835-.758,1.166-.37,2.399-.189,3.6-.233,1.637.831,3.416,1.377,4.979,2.299,1.615.879,3.304,1.683,5.111,2.233,1.494.458,2.932.994,4.348,1.583,1.644.835,3.521,1.108,5.256,1.691,1.734.356,2.44,2.3,4.504,2.014,2.006.35,3.819.765,5.304,2.175,1.116.468,3.107,1.513,3.153,2.453-1.635.213-3.026-1.252-4.722-.924-1.325.287-2.189,1.583-3.741,1.345-.678,1.995-3.268,1.691-4.463,3.338-1.682,1.294-3.497,2.453-5.49,3.25-1.553.588-3.275.538-4.791-.138-1.797-.496-3.698-.048-5.511-.347-1.941.523-3.731.095-5.56-.542-1.608-.431-2.828-1.613-4.214-2.449-1.666-.678-4.682-1.475-6.337-2.167-.869-.42-.775-.685-1.72-.87h.439Z"/>
        <path class="cls-6" d="M2650.094,819.096c-1.688-.026-3.379,0-4.966.676-2.779.619-5.247,2.266-7.043,4.453-2.307,2.704-4.999,5.058-7.936,7.06-1.435,1.004-2.623,2.32-3.473,3.851,1.683,1.099,4.327,1.405,5.502-.589,1.819-2.248,4.189-4.072,6.894-5.101,2.392-.474,4.821.484,7.212.738,1.906,1.035,3.862,1.848,6.052,2.163,1.132.414,3.067.589,4.673,1.039,2.205.85,4.542,1.232,6.823,1.828,2.586.532,5.214.344,7.795-.071.579-.067,1.166-.087,1.751-.105-.369.837-.666,1.609-.612,2.001.051,1.571.735,2.985,1.428,4.361.835,1.363,1.676,2.718,2.489,4.056.666,1.56,1.439,3.064,2.038,4.655.783,1.21,1.221,2.53,1.765,3.841.357,1.482.95,2.93,1.982,4.01,1.045,1.367,2.283,2.612,3.224,4.066.856,1.256,1.498,2.676,2.147,3.991,1.135.956,2.331,2.345,3.892,2.18,1.615.207,3.145-.44,4.731-.612l-.544-.137c-1.485-.77-2.224-2.294-3.01-3.669-.362-1.535-.507-3.138-.783-4.638-.102-1.523-.638-2.984-1.156-4.424-.394-1.271-.911-2.485-1.249-3.755-.614-1.297-1.122-2.65-1.603-4.008-.539-1.42-.958-2.893-1.793-4.174-.768-1.372-1.373-2.822-2.218-4.169-.907-1.217-1.424-2.797-2.382-3.956-.472-.729-1.137-1.112-1.872-1.36.297-.724-.015-1.698-.84-2.472-1.1-1.306-2.602-2.54-3.44-4.23-1.793-2.23-4.698-2.944-7.186-4.107-2.896-1.318-6.03-1.944-9.13-2.554-2.436-.661-4.96-.938-7.482-.821-.558.001-1.121-.012-1.683-.02h.002Z"/>
        <path class="cls-12" d="M2678.953,859.761c-.088-2.213-3.109-1.341-4.039-.163-1.49,1.468-2.323,3.524-4.113,4.705-2.635,1.922-6.114,2.186-8.733,4.129-1.507,1.551-2.662,3.53-4.682,4.499-2.067,1.111-4.314,2.361-5.39,4.552-.475,1.608-1.564,3.839.122,5.12,2.157.81.089,2.769.208,4.171,1.009,1.482,3.447,2.065,4.974,1.01,2.032-1.223,4.238-2.358,5.563-4.413,1.937-2.355,4.113-4.679,6.903-6.002,1.847-.456,3.274-1.686,4.533-3.027,1.325-1.084.204-3.193,2.218-3.556,1.836-.697,2.81-2.434,3.98-3.878,1.084-1.679-.889-3.247-.627-5.04-.106-.775-.207-1.632-.918-2.105h-.001Z"/>
        <path class="cls-26" d="M2710.53,1035.386h-11.127c-1.841-.74-3.129-3.823-5.473-2.599-2.041.783-4.081,1.748-6.024,2.797-1.883,1.026-3.475,2.384-4.703,4.096-.23,1.178-3.673,2.504-.773,2.546,2.51.204,4.056-2.373,6.477-2.711,1.906-.765,4.008-.287,6.005-.42,1.625.389,3.454.402,5.214.391,1.976-.153,3.838.211,5.762.163,2.795.251-1.035,1.957-1.928,2.334-2.186.991-4.615,1.28-6.952,1.797-2.312.017-4.698-.079-6.823.952-2.143.991-4.297,2.041-6.275,3.396-1.079.598-3.829,2.042-1.114,2.07,2.02.248,3.976-.249,5.89-.853,3.335-1.252,6.791-2.068,10.303-2.624,2.291-.519,4.413-1.509,6.731-1.928,1.415,0,5.19-.698,4.004,1.793-1.447,1.737-3.504,2.953-5.547,3.858-1.726,1-3.329,2.571-5.499,2.511-1.635-.574-5.087.685-2.593,2.341,1.256,2.255,3.916.71,5.558-.127,1.93-.963,3.822-1.723,5.853-2.507,2.274-.845,4.606-1.726,6.785-2.71,1.817-1.149,4.084-1.552,5.75-2.813,1.976-1.154,4.323-2.087,5.266-4.37.593-1.854,2.004-2.998,3.785-3.618,2.026-.51,4.179-.192,6.231-.643,2.312-.012,1.647-4.183-.487-4.288-1.864-1.211-3.454-2.638-5.362-3.715-2.252-.816-4.623-1.401-7.069-1.172-2.02.146-3.607,1.421-4.601,3.087-1.256,1.472-1.542,4.058-4.018,3.476-1.119.306-2.215-.101-3.244-.51v-.002ZM2656.27,1049.244s2.106-7.774,4.851-10.466c5.575-5.472,21.445-9.446,21.445-9.446-6.773,2.638-14.896.675-21.445,2.552-5.461,1.705-14.808,8.681-14.808,8.681,0,0,3.463-7.428,6.129-10.468,7.859-8.589,20.408-9.593,29.869-8.169l10.723,1.53s1.828,1.108,1.02,2.739c-1.686,3.411-6.774,5.365-10.211,7.002-9.636,4.909-21.586,8.741-27.572,16.047h0Z"/>
        <path class="cls-29" d="M2688.949,1021.927c-8.64,5.845-28.575,16.291-27.828,16.849,0,0,16.99-3.886,24.763-7.658,2.698-1.309,6.479-2.255,7.404-5.106.474-1.46-.241-3.513-1.53-4.34-.791-.507-2.03-.271-2.809.255h0Z"/>
        <path class="cls-12" d="M2730.192,976.652c-2.099-.141-2.399,3.699-2.487,5.802-.061,1.455-.071,4.042,1.382,4.145,1.85.131,2.309-3.129,2.487-4.975.166-1.713.335-4.858-1.382-4.973Z"/>
        <path class="cls-29" d="M2721.351,1033.294c.067-1.688-2.077-.787-2.994-.49-2.092.48-3.892,1.666-5.724,2.726-1.427.933-2.97,1.676-4.435,2.542-2.895,1.386-5.509,3.284-8.41,4.661-1.224.598-2.492,1.166-3.823,1.444-1.079.21-.694.893.227.812,1.994.427,4.067.197,5.979-.481,2.13-.665,4.547-1.213,6.6-2.08,1.103-1.006,3.393-1.369,4.666-2.103,1.061-.685,3.827-1.1,4.973-1.632,1.901-.996,1.125-2.367,3.294-2.384,1.356-.003,1.549-2.064.205-2.325-.254-.16-.487-.386-.558-.689h0Z"/>
        <path class="cls-29" d="M2701.733,1051.531c1.53-.418,3.161-.342,4.663-.895,1.858-.481,3.688-1.079,5.496-1.708.864-.427,1.732-.85,2.591-1.283,1.526-1.076,2.57-2.686,3.58-4.224.691-1.307,1.341-2.641,2.003-3.962.306-1.073-1-1.548-1.656-.767-.984.707-1.886,1.516-2.905,2.176-.988.842-2.188,1.411-3.11,2.328-1.111,1.309-1.662,3.023-2.911,4.222-.587.598-1.264,1.057-2.03,1.39-1.573.86-3.32,1.321-4.918,2.128-.286.169-.592.331-.802.593h-.001Z"/>
        <path class="cls-32" d="M2722.578,938.907c.627.997.969,2.189,1.029,3.357.184,1.428.536,2.832.723,4.256-.093,1.482-1.641,2.379-1.886,3.839-.092.977.058,1.975-.175,2.947-.35,1.586.157,3.247-.445,4.795-.749,1.443-2.893.35-4.221.727-1.291.3-2.864.364-3.642-.928-1.1-1.181-2.068-2.492-3.307-3.54-1.495-1.458-3.046-2.917-4.027-4.789-.896-1.258-1.656-2.596-2.519-3.873-.29-.539-.59-1.218-.809-1.681M2708.311,952.13c-1.271.009-2.51.408-3.826.239h-3.81c-.933-.379-2.765-.386-3.653-.994-1.044-.204-1.546-.825-2.463-1.21-.678-.485-1.297.036-2.144-.095-.576-1.054-1.822-2.376-2.507-3.106-.729-.379-1.538-.652-2.103-1.463-.783-.192-1.388-1.478-1.688-1.893-.589-.689-.755-1.606-1.326-2.354-.542-.79-.737-1.554-1.301-2.385-.109-.175-.032-.399,0-.58"/>
        <path class="cls-32" d="M2692.415,950.069c-.287,1.828-2.352-.022-3.274-.235-.759-.378-1.44-.819-2.322-1.098-.641-.491-1.501-.829-2.169-1.137-.791-.496-1.8-.815-2.399-1.436-1.135-.257-1.973-1.37-3.052-1.67-.981-.926-2.078-1.608-3.158-2.328-1.124-.889-2.398-1.664-3.476-2.765-1.025-.889-1.895-1.835-1.975-3.192-.088-1.221-.4-2.415-.918-3.524.128-.691-.375-.93-.262-1.554"/>
        <path class="cls-8" d="M2777.243,951.07c1.175.079,2.355-.024,3.498-.305,1.2-.068,2.301-.548,3.45-.821,1.195-.503,2.164-1.697,3.571-1.58,1.269-.068,2.689.386,3.82-.396.714-.974,1.73-1.319,2.895-1.118,1.182-.172,2.312.216,3.453.452,1.063.38,2.166.615,3.23.988,1.026.536,2.032,1.144,3.112,1.56,1.071.548-.753,1.302-1.093,1.845-1.073.445-2.377.035-3.332.87-.982.525-1.869,1.23-2.328,2.269-.576,1.189-2.019.848-3.061,1.232-1.031.149-2.081.007-3.115.176-.882.029-1.828.347-2.647-.087-1.105-.344-2.252-.602-3.411-.631-.905-.622-1.63-1.63-2.813-1.72-1.593-.361-2.906-1.415-4.448-1.924-.365-.145-.65-.44-.781-.81h0Z"/>
        <path class="cls-31" d="M2633.709,848.261c-2.638-.558-5.228.675-7.881.622-2.434.544-4.995.146-7.484.267-2.6-.471-5.393-.233-8.035.187-3.934.638-7.671,2.183-11.631,2.781-5.346.344-10.752.051-16.123.149-3.766.316.37-4.562,2.504-4.358,4.897-1.321,9.681-3.097,14.76-3.593,3.775-.558,7.442-1.707,11.188-2.37,3.035-.863,6.101-1.545,9.128-2.419,3.145-.529,6.318-1.127,9.499-.583,3.282-.813,6.568-1.587,9.697-2.921,2.847-1.414,6.253-.469,8.924-2.229,1.689-2.492,4.848-2.405,7.534-2.176,2.854.525,5.98,1.571,7.729,4.103,2.099,3.043-4.327,2.65-2.404,5.837-1.138,1.173-3.329,1.449-5.072,1.361-1.504-.087-3.094.306-4.456-.51-2.441-.86-4.3-2.746-6.544-4.034-2.3-.357-2.417,3.887-5.326,3.432-3.679,1.409-7.702,1.049-11.571,1.112,2.437.891,5.098,1.759,7.047,3.472.762,1.181-.592,1.627-1.484,1.87h0Z"/>
        <path class="cls-9" d="M2649.287,837.579l2.449-1.112,1.334-2.226s2.103,3.158,1.114,4.227c-1.127,1.218-4.897-.889-4.897-.889h.001ZM2655.789,831.616c.501-.382-2.029-1.95-.141-2.364,1.997-2.393,5.139-.423,7.46.31,4.47,1.412,9.171,3.153,12.15,6.982,4.288,4.95,5.253,11.718,8.65,17.187,1.458,2.616,2.389,5.474,3.352,8.289.705,2.243,4.131,4.572,2.342,6.984-2.103,1.28-4.241-.434-6.228-.952-2.694-.281-1.385,2.727.379,3.078,1.914.761,2.507,3.807-.23,3.632-2.615-.31-5.212-.51-7.773-.912-2.041-1.106.547-3.148,1.691-3.89,1.529-.918,3.552-2.143,3.252-4.227.032-3.768-2.575-6.858-3.145-10.509-.679-2.736-1.332-5.524-2.694-8.016-1.178-5.875-6.455-9.924-11.879-11.723-2.323-1.194-4.803-2.224-7.025-3.53l-.16-.338h0Z"/>
        <path class="cls-8" d="M2675.339,834.563c.78.433,1.539.907,2.332,1.309.628.647,2.074,2.833,2.527,3.613.305.643.452,1.326.608,2.017.137.883.823,1.493,1.294,2.201.43,1.004.751,2.055,1.147,3.074.523.793,1.041,1.606,1.235,2.554.187.8.418,1.574.743,2.328.442.635.682,1.89-.42,1.949-.726-.187-1.495-.56-1.928-1.216-.845-.767-1.296-1.844-1.956-2.758-.394-.641-.638-1.42-.796-2.094-.452-.787-.563-1.723-.882-2.565-.398-.797-.539-1.685-1.004-2.449-.513-.866-.703-1.873-1.253-2.721-.461-1.025-2.14-3.562-1.743-4.743.038-.165.073-.329.096-.498ZM2657.743,828.01c-.612-.201-1.054-.67-1.463-1.137-.468-.275-1.316-.57-1.653-.902-1.14.453-.201-.749-.764-.568-.262-.437-.229-.755-.504-1.221-.354-.415-.809-.738-1.137-1.176.023-.24-.481-.555.02-.554.605-.019,1.246-.079,1.796.207.598-.105,1.052.344,1.641.251.837-.061,1.675.015,2.511-.022.405-.146.466.379.899.232.291.054.373.302.708.192.681.034.777.751,1.146,1.144.506.312.726.867.85,1.383.114.134.222.748.179.612.073-.136.079.598-.242.568-.415.431-1.007.485-1.471.758-.592.048-1.036.574-1.64.452-.297-.05-.582-.16-.878-.219h0Z"/>
        <path class="cls-9" d="M2656.28,826.875c-.851.373-1.778.714-2.723.577-.625.14-1.093.608-1.554,1.016-.544.348-1.198.456-1.817.576-.509-.105-.894-.514-1.399-.65-.44-.171-.423-.765-.898-.908-.474-.328-1.006-.531-1.533-.751-.455-.195-.302-.751-.357-1.146-.015-.45.051-.904.226-1.318-.022-.634.544-.875,1.093-.751,1.036.009,2.073.001,3.11.004.515-.273,1.1-.567,1.698-.471.574.191.856.786,1.322,1.132.959.88,1.885,1.796,2.832,2.688h0ZM2660.944,824.455c.686-.351,1.436-.692,2.195-.793.767-.034,1.472.293,2.207.449.793.239,1.593.436,2.31.867.832.273,1.565.727,2.366,1.087.719.394,1.425.819,2.166,1.172.681.334,1.345.717,1.956,1.16.656.517,1.312,1.068,1.804,1.746.461.525.015,1.504-.685.955-.688-.452-1.455-.727-2.23-.99-.72-.105-1.417-.223-2.07-.564-.753-.146-1.44-.637-2.207-.831-.974-.449-2.007-.74-2.973-1.201-.415-.315-.966-.364-1.414-.637-.896-.475-1.819-.896-2.717-1.366-.274-.291-.831-.571-.708-1.055Z"/>
        <path class="cls-6" d="M2672.053,840.269c-2.998-.236-6.002,1.159-8.967.208-2.236-.3-3.985,1.39-5.913,2.194-2.498-.246-3.013,3.332-5.23,3.154-1.899-.226-4.163-1.695-5.883-1.017,3.862,1.713,7.805,3.43,11.239,5.931,1.87,1.734,3.994,3.25,6.454,4.002,1.67.719,3.612,2.389,2.86,4.408-.749,2.363-4.281,2.779-4.421,5.454-.399,2.345-2.976,3.344-3.809,5.463-.911,1.647-3.026,2.634-3.189,4.649.51,2.516,3.434.619,3.354-1.229.437-1.611,1.87-4.1,3.865-3.074,1.631,2.304,3.631-1.616,5.59-.676.904,1.358,3.005,2.07,3.914.271,1.325-.52,3.411-1.385,2.147-3.274-.042-1.936,2.35-1.804,3.437-2.905,1.516-.685,3.105-2.645,1.452-4.066-1.487-2.068.109-5.023-1.751-6.941-1.414-2.201.041-4.951-1.137-7.232-.998-1.889-1.781-4.565-3.797-5.384l-.216.064Z"/>
        <path class="cls-12" d="M2752.613,921.917c-3.43-.063-6.194,2.559-9.588,2.803-4.107.576,1.071,2.434,2.338,3.326,3.265,2.166,7.155,2.912,10.783,4.174,3.396,1.618,7.231,2.624,10.977,1.968,3.491-.818.904-4.282-.073-6.2-2.089-2.988-5.633-4.501-8.255-6.961-1.898-1.686-4.744-1.079-6.181.889h0Z"/>
        <path class="cls-9" d="M2750.296,929.2c-1.258.155-2.491.564-3.774.423-1.469.127-3.035.431-4.387-.369-1.526-.388-3.087-.685-4.456-1.516-1.058-.7-2.488-.984-3.119-2.183-.898-1.274.921-1.382,1.759-1.523,1.529-.309,3.153-.609,4.702-.291,1.688.87,3.535,1.332,5.214,2.213,1.392.609,2.784,1.307,3.807,2.437-.015-.044.233.519.254.812h0Z"/>
        <path class="cls-9" d="M2767.12,928.18c.23,1.465-2.36.073-3.281.557-1.758.248-3.294-.302-4.9-.981-2.549-1.208-5.138-2.396-7.887-3.013-1.277-.332-3.883-1.509-2.003-2.969,1.478-1.14,3.387-2.055,5.2-2.293,1.938-.103,3.606,1.189,5.391,1.826,1.791.867,3.682,1.618,5.24,2.909,1.112.926,2.376,2.35,2.239,3.963h0Z"/>
        <path class="cls-12" d="M2720.631,911.577c-2.492,1.497-5.351,2.198-8.248,2.122-2.577.95-6.987-1.374-7.901,2.045-1.243,2.781,2.109,3.959,3.894,5.179,5.244,3.027,11.425,2.871,17.282,3.126,1.6.101,6.675-.602,3.986-2.562-2.936-2.243-5.119-5.232-7.458-8.043-.583-.563-1.224-1.103-1.555-1.866h0ZM2750.001,913.486c-1.172-.172-2.28-.663-3.405-.997-1.551-.519-2.867-1.551-4.348-2.272-1.995-1.134-3.953-2.357-6.02-3.335-1.01-.356-.818-1.453.29-1.321,1.102.035,1.482-1.721,2.555-.574,1.354.818,2.629,1.734,3.673,2.941,1.256,1.036,2.431,2.31,4.08,2.696,1.178.657,3.091,1.303,3.174,2.861h0ZM2746.037,918.921s-5.313,1.382-7.786.364c-1.822-.544-3.699-.896-5.397-1.793-2.074-1.042-4.317-1.979-5.95-3.688-1.315-1.657.315-4.271,2.424-3.588,1.293-.364.761-3.323,2.736-2.008,2.712,1.224,5.426,2.565,7.76,4.429,1.408,1.341,2.988,2.507,4.329,3.909.665.758,1.885,2.373,1.885,2.373h0ZM2706.406,881.575c3.548.909,7.667,2.568,9.838,5.695,3.116,3.79-2.965,5.856-5.718,3.714-4.511-2.21-9.053-4.483-13.893-5.856-4.633.598,2.052,3.279,3.346,4.501,2.043,1.213,3.798,3.539,3.768,5.865-3.053,2.37-6.974-.16-10.335-.49-3.677-.427-5.732-3.641-8.051-6.103-1.679-1.749-3.629-2.796-5.875-1.775-.001,3.08,2.245,3.843,3.666,6.442,1.258,1.564,6.132,5.541,1.427,5.572-3.432-.942-6.603-3.198-8.436-6.33-2.099-2.164-3.737-6.664.583-7.231,3.717-2.239,8.079-3.344,12.418-3.338,4.72-.434,9.507.328,14.141-.904.652.198,3.654-1.354,3.122.238h0Z"/>
        <path class="cls-9" d="M2670.514,884.272c-.583,1.012-1.006,1.984-1.013,3.054-.07,1.288.06,2.473.173,3.664.329.956.577,2.061.974,2.976.577,1.092,1.495,1.746,2.376,2.507.721.791,1.46,1.201,2.376,1.705.703.423,1.399.692,2.191.962.703.312,1.828.612,2.782.802,1.048.181,1.793.019,2.215-.864,1.064-.67.201-1.235-.52-1.453-.819-.155-1.533-.813-2.263-1.428-.786-.707-1.366-1.514-1.87-2.412-.296-.805-.854-1.549-1.395-2.322-.539-.638-.962-1.286-1.683-1.933-.779-.702-1.494-1.473-2.135-2.303-.513-.708-1.3-1.608-1.94-2.288-.146-.194-.283-.415-.267-.666h0ZM2701.688,896.572c-1.973-.185-5.139-1.014-7.498-1.694-2.658-.926-5.117-2.507-6.774-4.81-1.975-1.834-3.902-3.788-6.2-5.216-2.399-.729-3.381,2.647-1.851,4.11,1.312,2.102,3.233,3.741,4.712,5.725,1.73,1.829,3.88,3.16,6.089,4.346,2.793,1.716,6.157,2.252,9.375,2.463,1.874-.236,4.128-1.386,4.597-3.352.146-1.268-1.525-1.539-2.449-1.573h-.001ZM2694.779,912.412c-1.72.313-3.631.324-5.087-.787-1.465-.723-2.466-2.169-3.343-3.504-1.195-1.399-2.58-2.887-4.396-3.425-1.608-.458-3.545.668-3.037,2.495.22,1.522,1.382,2.715,2.412,3.775,1.713,1.698,4.031,2.452,6.193,3.396,1.081.579,2.396.703,3.613.724,1.242-.019,3.218.449,3.641-1.127.061-.516-.041-1.033,0-1.548h.004ZM2712.135,907.357c1.472.644,2.492,2.535,1.525,4.004-1.096,1.557-3.081,2.471-4.989,2.226-1.609-.055-3.236.181-4.807-.286-1.793-.541-3.467-1.36-5.101-2.25-1.815-.602-2.011-2.73-3.211-3.954-.743-1.385,1.753-2.055,2.79-1.659,1.752.568,2.816,2.23,4.512,2.86,1.344.707,2.704,1.382,4.241,1.548,1.301.309,3.032.579,3.881-.743.319-.621.737-1.189,1.159-1.745Z"/>
        <path class="cls-9" d="M2727.296,903.559c1.271,1.334.49,3.843-1.307,4.262-1.482.308-3.067.656-4.553.16-2.204-.533-4.16-1.729-6.049-2.931-1.14-.95-2.925-1.278-3.765-2.6-.51-1.8,1.46-3.231,3.131-2.59,2.4.787,4.967,1.087,7.203,2.344,1.624.689,3.277,1.417,5.04,1.475l.3-.12Z"/>
        <path class="cls-32" d="M2732.173,886.509c7.71,6.259,15.208,12.812,21.236,20.759,4.647,5.501,7.49,12.982,14.307,16.423,9.604,10.255,50.713,22.147,50.85,25.352-9.475-3.861-13.594,9.069-22.777,6.992-8.547,2.482-15.584-3.107-22.976-6.216-11.109-.396-22.682.179-32.57,5.816-5.403,2.937-11.832-1.595-16.106-.104l-.491.93-.638.573M2670.608,937.336c-6.584-3.268-11.401-9.404-17.528-13.1-4.737-6.67-10.821-13.347-10.531-22.122-.743-9.07-3.119-21.614,1.186-30.233-3.093-6.759-7.43-8.58-10.85-15.241-2.478-9.212-11.818-14.498-6.209-21.501,6.235-5.543,10.599-12.089,18.637-14.964,6.665-1.545,13.425-.895,19.822,1.39,8.28.972,12.822,8.037,17.19,14.155,5.311,8.269,8.822,17.563,10.305,27.277,3.817,7.983,13.966,9.608,21.407,13.014,6.413,3.035,12.819,5.622,18.134,10.499"/>
      </g>
    </g>
    <g id="mini-gb">
      <path class="cls-11" d="M1600,.1v1200H0V400.1C0,180.1,180,.1,400,.1h1200Z"/>
      <path id="Path" class="cls-19" d="M1534.9.1h65.1v255.8l-545.5,354.3,545.5,354.2v235.7h-96l-679-440.9-679,440.9H0v-203.2l595.5-386.7L31.6,243.9C65.5,164.1,124.5,97.6,198.7,54.3l626.3,406.7L1534.9.1Z"/>
      <path id="Path-2" class="cls-17" d="M0,1189.3v-119.2l708.2-460L60,189.3c17.8-28.7,39.2-54.9,63.4-78.2l676.6,439.4L1600,31.1v119.3l-708.2,459.7,708.2,460v119.2l-800-519.5L0,1189.3Z"/>
      <polygon id="Shape" class="cls-13" points="1000 400.1 1600 400.1 1600 800.1 1000 800.1 1000 1200.1 600 1200.1 600 800.1 0 800.1 0 400.1 600 400.1 600 .1 1000 .1 1000 400.1"/>
      <polygon id="Shape-2" class="cls-16" points="900 500.1 900 .1 700 .1 700 500.1 0 500.1 0 700.1 700 700.1 700 1200.1 900 1200.1 900 700.1 1600 700.1 1600 500.1 900 500.1"/>
    </g>
  </g>
</svg>