<?xml version="1.0" encoding="UTF-8"?>
<svg xmlns="http://www.w3.org/2000/svg" viewBox="0 0 3600.1 2401.738">
  <defs>
    <style>
      .cls-1, .cls-2, .cls-3, .cls-4, .cls-5, .cls-6, .cls-7, .cls-8, .cls-9, .cls-10, .cls-11, .cls-12, .cls-13, .cls-14, .cls-15, .cls-16, .cls-17 {
        fill-rule: evenodd;
      }

      .cls-1, .cls-3, .cls-4, .cls-6, .cls-18, .cls-19, .cls-20, .cls-8, .cls-21, .cls-9, .cls-10, .cls-11, .cls-22, .cls-12, .cls-23, .cls-13, .cls-14, .cls-15, .cls-24, .cls-16 {
        stroke: #000;
      }

      .cls-1, .cls-19, .cls-9 {
        stroke-width: 4.955px;
      }

      .cls-1, .cls-12 {
        fill: #f6ca1f;
      }

      .cls-25 {
        stroke-width: 5.849px;
      }

      .cls-25, .cls-26, .cls-27, .cls-19, .cls-28, .cls-29, .cls-30, .cls-21, .cls-31, .cls-32, .cls-23, .cls-33, .cls-34 {
        stroke-linejoin: round;
      }

      .cls-25, .cls-28, .cls-30 {
        stroke: #1e1e1e;
      }

      .cls-25, .cls-28, .cls-30, .cls-17 {
        fill: #eee;
      }

      .cls-35 {
        fill: #e2a494;
      }

      .cls-35, .cls-36, .cls-5, .cls-7, .cls-37, .cls-38, .cls-39, .cls-40, .cls-41, .cls-17 {
        stroke-width: 0px;
      }

      .cls-2, .cls-26, .cls-3, .cls-6, .cls-9, .cls-23, .cls-14, .cls-15 {
        fill: #fc0;
      }

      .cls-2, .cls-26, .cls-4, .cls-28, .cls-29, .cls-15 {
        stroke-width: 5.849px;
      }

      .cls-2, .cls-26, .cls-29, .cls-34 {
        stroke: #121116;
      }

      .cls-3, .cls-23 {
        stroke-width: 5.737px;
      }

      .cls-4 {
        fill: #b3a192;
      }

      .cls-36 {
        fill: #cecfc1;
      }

      .cls-27 {
        fill: #916c68;
        stroke: #4d3126;
      }

      .cls-27, .cls-34 {
        stroke-width: 2.981px;
      }

      .cls-5 {
        fill: #a3afb8;
      }

      .cls-6, .cls-10, .cls-24 {
        stroke-width: 5.998px;
      }

      .cls-18 {
        stroke-width: 5.476px;
      }

      .cls-18, .cls-20, .cls-42, .cls-32, .cls-22, .cls-33, .cls-24 {
        fill: none;
      }

      .cls-19 {
        fill: #1f2d86;
      }

      .cls-20 {
        stroke-width: 5.216px;
      }

      .cls-8 {
        fill: #9f1209;
      }

      .cls-8, .cls-11, .cls-14, .cls-16 {
        stroke-width: 2.608px;
      }

      .cls-42 {
        stroke-miterlimit: 4.238;
      }

      .cls-42, .cls-31, .cls-32, .cls-33, .cls-43 {
        stroke: #161111;
      }

      .cls-42, .cls-32 {
        stroke-width: 8.053px;
      }

      .cls-29 {
        fill: #121116;
      }

      .cls-30 {
        stroke-width: 22.658px;
      }

      .cls-37 {
        fill: #aa675d;
      }

      .cls-21 {
        fill: #0f6545;
        stroke-width: 3.483px;
      }

      .cls-31 {
        fill: #c00;
        stroke-width: 8.048px;
      }

      .cls-31, .cls-32, .cls-33 {
        stroke-linecap: round;
      }

      .cls-10 {
        fill: rgba(255, 204, 0, .941);
      }

      .cls-11 {
        fill: #cca715;
      }

      .cls-22 {
        stroke-width: 5.737px;
      }

      .cls-12 {
        stroke-width: 4.694px;
      }

      .cls-13 {
        fill: #b02320;
        stroke-width: 6.519px;
      }

      .cls-33 {
        stroke-width: 8.049px;
      }

      .cls-38 {
        fill: #cf1b2b;
      }

      .cls-39 {
        fill: #707c8b;
      }

      .cls-40 {
        fill: #f5d8bc;
      }

      .cls-41 {
        fill: #8f322f;
      }

      .cls-34 {
        fill: #f0ddcb;
      }

      .cls-16 {
        fill: #ebeae3;
      }

      .cls-43 {
        fill: #fff;
        stroke-width: 8px;
      }
    </style>
  </defs>
  <g id="background">
    <path id="bg" class="cls-17" d="M400,.1h2800c220,0,400,180,400,400v1600c0,220-180,400-400,400H400C180,2400.1,0,2220.1,0,2000.1V400.1C0,180.1,180,.1,400,.1Z"/>
  </g>
  <g id="country">
    <g id="gb">
      <g id="nir">
        <polygon id="Path-7" class="cls-38" points="1980.1 1000 3600.1 1000 3600.1 1400 1980.1 1400 1980.1 2400 1620.1 2400 1620.1 1400 .1 1400 .1 1000 1620.1 1000 1620.1 0 1980.1 0 1980.1 1000"/>
        <g>
          <path class="cls-16" d="M1976,733.148c15.4-24.096,6.192-39.664-17.104-44.472,0,0-74.336,23.832-154.616,26.44-80.28,2.616-175.664-20.184-175.664-20.184-17.104,10.728-12.928,36.2-4.448,52.104,0,0,84.04,27.92,179.712,25.176,60.768-1.736,118.352-17.248,150.656-27.52,18.56-5.904,21.464-11.272,21.456-11.544h.008Z"/>
          <path class="cls-43" d="M1800,1787.86l-154.288-320.528-354.728,26.64,200.44-293.872-200.44-293.88,354.728,26.64,154.288-320.52,154.288,320.528,354.728-26.648-200.44,293.88,200.44,293.88-354.728-26.648-154.288,320.528Z"/>
          <path class="cls-13" d="M1797.68,611.236c193.816,31.952,186.896,41,186.896,41l50.584-151.224s5.328-29.816-8.52-47.92c-13.848-18.104-52.72-7.992-52.72-7.992,0,0-5.32-24.488-22.36-30.344-17.04-5.864-80.4,22.896-100.104,29.28-19.696,6.392-29.816,12.784-57.504,12.248-27.68-.528-77.2-25.024-86.256-29.816-9.048-4.8-22.36-9.584-34.608-9.056-12.248.536-25.024,3.728-31.416,12.248s-6.392,19.168-6.392,19.168c0,0-10.112-6.384-26.088-6.384s-25.024,2.128-32.48,10.64c-7.456,8.528-17.04,32.48-17.04,32.48l18.104,41.008,1.064,56.44,37.808,59.632,181.04-31.408h-.008Z"/>
          <path class="cls-16" d="M1978.4,696.676s9.76,11.632,9.384,15.76c-.376,4.136-4.504,7.888-4.504,7.888,0,0,3,3,2.248,7.504-.744,4.504-6.752,4.88-6.752,4.88,0,0,1.12,4.128-2.624,6-3.76,1.88-19.144,5.264-19.144,5.264,0,0-75.072-21.4-155.392-21.4s-174.912,25.904-174.912,25.904c0,0-9.76-3.376-10.136-9.76-.376-6.384,1.12-10.88,1.12-10.88,0,0-5.336.552-6.752-4.136-1.976-6.552.752-11.632.752-11.632,0,0-3.72,1.2.376-7.512,3-6.376,7.504-8.632,7.504-8.632,0,0,84.08-30.024,179.792-30.4,95.712-.376,179.04,30.4,179.04,31.152h0Z"/>
          <path class="cls-22" d="M1581.12,507.58s-3.2-10.896,3.84-20.512c7.056-9.616,19.88-8.976,23.728-7.056,3.84,1.92,3.2,6.416,8.328,7.696,5.128,1.28,8.976-2.56,8.976-2.56"/>
          <path class="cls-10" d="M2049.12,533.092l-29.112,60.232-11.44,2s-6.984-4.192-26.904-2.8c-14.256,1-18.472,4.616-18.472,4.616l25.896-60.032s2.024,12.896,5.024,20.48c3.816,9.632,18.272,18.672,18.272,18.672,0,0,2-11.528-1.808-25.504-4.216-15.456-14.056-36.336-14.056-36.336l52.6,18.672Z"/>
          <path class="cls-29" d="M1782.48,345.9h32.584v138.472h-32.584v-138.472Z"/>
          <path class="cls-1" d="M1582.8,601.276l20.928,44.768s89.056-34.712,194.16-34.064c157.68.976,202.448,32.608,202.448,32.608l23.36-55.48-17.52,10.224-18.008,11.192-20.44,7.784-24.816-1.944-21.904-16.064-11.192-23.36-18.488,17.04-32.608,7.296-32.12-8.272-28.224-35.52s-21.024,39.48-47.688,41.84c-38.448,3.408-60.832-18.48-60.832-18.48,0,0-14.288,32.112-37.952,37.952-37.472,9.248-68.616-17.52-69.104-17.52h0Z"/>
          <g>
            <path class="cls-28" d="M1942.24,328.324c0,9.408-7.52,17.04-16.8,17.056s-16.816-7.584-16.856-16.992c-.04-9.408,7.448-17.064,16.728-17.12,9.28-.056,16.856,7.52,16.928,16.92"/>
            <path class="cls-5" d="M1917.6,337.084s13.6-.232,14.984-5.76c1.384-5.536-.92-12.68-.92-12.68,0,0,6.448,7.144,4.608,12.68-1.84,5.528-3.656,6.96-8.296,8.064-3.152.752-7.84-.464-10.376-2.304Z"/>
            <path class="cls-28" d="M1901.36,347.444c0,9.408-7.52,17.04-16.8,17.056s-16.816-7.584-16.848-16.992c-.032-9.408,7.44-17.064,16.72-17.12s16.856,7.52,16.928,16.92"/>
            <path class="cls-5" d="M1876.72,356.204s13.6-.232,14.984-5.76c1.384-5.536-.92-12.68-.92-12.68,0,0,6.448,7.144,4.608,12.68-1.84,5.528-3.656,6.96-8.296,8.064-3.152.752-7.84-.464-10.376-2.304Z"/>
            <path class="cls-28" d="M1989.68,317.124c0,9.408-7.52,17.04-16.8,17.056s-16.816-7.584-16.856-16.992c-.04-9.408,7.448-17.064,16.728-17.12s16.856,7.52,16.928,16.92"/>
            <path class="cls-5" d="M1965.04,325.884s13.6-.232,14.984-5.76c1.384-5.536-.92-12.68-.92-12.68,0,0,6.448,7.144,4.608,12.68-1.84,5.528-3.656,6.96-8.296,8.064-3.152.752-7.84-.464-10.376-2.304Z"/>
            <path class="cls-28" d="M2043.12,327.884c0,9.408-7.52,17.04-16.8,17.056-9.28.016-16.816-7.584-16.856-16.992-.04-9.408,7.448-17.064,16.728-17.12s16.856,7.52,16.928,16.92"/>
            <path class="cls-5" d="M2018.48,336.644s13.6-.232,14.984-5.76c1.384-5.536-.92-12.68-.92-12.68,0,0,6.448,7.144,4.608,12.68-1.84,5.528-3.656,6.96-8.296,8.064-3.152.752-7.84-.464-10.376-2.304Z"/>
            <path class="cls-28" d="M2083.92,361.452c0,9.408-7.52,17.04-16.8,17.056s-16.816-7.584-16.848-16.992c-.032-9.408,7.44-17.064,16.72-17.12s16.856,7.52,16.928,16.92"/>
            <path class="cls-5" d="M2059.2,370.212s13.6-.232,14.984-5.76c1.384-5.536-.92-12.68-.92-12.68,0,0,6.448,7.144,4.608,12.68-1.84,5.528-3.656,6.96-8.296,8.064-3.152.752-7.84-.464-10.376-2.304Z"/>
            <path class="cls-28" d="M2101.52,416.548c0,9.408-7.52,17.04-16.8,17.056-9.28.016-16.816-7.584-16.848-16.992-.032-9.408,7.44-17.064,16.72-17.12,9.28-.056,16.856,7.52,16.928,16.92"/>
            <path class="cls-5" d="M2076.8,425.308s13.6-.232,14.984-5.76c1.384-5.536-.92-12.68-.92-12.68,0,0,6.448,7.144,4.608,12.68-1.84,5.528-3.656,6.96-8.296,8.064-3.152.752-7.84-.464-10.376-2.304Z"/>
            <path class="cls-28" d="M2094.96,472.284c0,9.408-7.52,17.04-16.8,17.056-9.28.016-16.816-7.584-16.848-16.992-.032-9.408,7.44-17.064,16.72-17.12,9.28-.056,16.856,7.52,16.928,16.92"/>
            <path class="cls-5" d="M2070.32,481.044s13.6-.232,14.984-5.76c1.384-5.536-.92-12.68-.92-12.68,0,0,6.448,7.144,4.608,12.68-1.84,5.528-3.656,6.96-8.296,8.064-3.152.752-7.84-.464-10.376-2.304Z"/>
            <path class="cls-28" d="M2070.24,521.18c0,9.408-7.52,17.04-16.8,17.056s-16.816-7.584-16.856-16.992c-.04-9.408,7.448-17.064,16.728-17.12,9.28-.056,16.856,7.52,16.928,16.92"/>
            <path class="cls-5" d="M2045.52,529.94s13.6-.232,14.984-5.76c1.384-5.536-.92-12.68-.92-12.68,0,0,6.448,7.144,4.608,12.68-1.84,5.528-3.656,6.96-8.296,8.064-3.152.752-7.84-.464-10.376-2.304Z"/>
            <path class="cls-28" d="M1861.6,362.108c0,9.408-7.52,17.04-16.8,17.056s-16.816-7.584-16.856-16.992c-.04-9.408,7.448-17.064,16.728-17.12s16.856,7.52,16.928,16.92"/>
            <path class="cls-5" d="M1836.88,370.868s13.6-.232,14.984-5.76c1.384-5.536-.92-12.68-.92-12.68,0,0,6.448,7.144,4.608,12.68-1.84,5.528-3.656,6.96-8.296,8.064-3.152.752-7.84-.464-10.376-2.304Z"/>
            <g>
              <path class="cls-25" d="M1810.8,357.756c0,7.864-6.28,14.248-14.04,14.264-7.817-.031-14.131-6.391-14.104-14.208-.084-7.816,6.177-14.223,13.992-14.32,7.814.004,14.148,6.338,14.152,14.152"/>
              <path class="cls-5" d="M1790.16,365.076s11.376-.192,12.528-4.816c1.16-4.632-.768-10.608-.768-10.608,0,0,5.392,5.976,3.856,10.608-1.544,4.624-3.056,5.816-6.944,6.744-2.632.624-6.552-.384-8.672-1.928h0Z"/>
            </g>
            <g>
              <path class="cls-25" d="M1810.96,375.484c0,7.864-6.28,14.248-14.04,14.264-7.817-.031-14.131-6.391-14.104-14.208-.084-7.816,6.177-14.223,13.992-14.32,7.814.004,14.148,6.338,14.152,14.152"/>
              <path class="cls-5" d="M1790.32,382.804s11.376-.192,12.528-4.816c1.16-4.632-.768-10.608-.768-10.608,0,0,5.392,5.976,3.856,10.608-1.544,4.624-3.056,5.816-6.944,6.744-2.632.624-6.552-.384-8.672-1.928h0Z"/>
            </g>
            <g>
              <path class="cls-25" d="M1811.92,401.564c0,7.864-6.28,14.248-14.04,14.264-7.817-.031-14.131-6.391-14.104-14.208-.084-7.816,6.177-14.223,13.992-14.32,7.814.004,14.148,6.338,14.152,14.152"/>
              <path class="cls-5" d="M1791.28,408.884s11.376-.192,12.528-4.816c1.16-4.632-.768-10.608-.768-10.608,0,0,5.392,5.976,3.856,10.608-1.544,4.624-3.056,5.816-6.944,6.744-2.632.624-6.552-.384-8.672-1.928h0Z"/>
            </g>
            <g>
              <path class="cls-28" d="M1813.36,429.26c0,8.504-6.8,15.408-15.184,15.424-8.4.016-15.216-6.856-15.248-15.36-.032-8.512,6.736-15.44,15.12-15.488,8.4-.048,15.248,6.8,15.312,15.304"/>
              <path class="cls-5" d="M1791.04,437.18s12.296-.208,13.552-5.208c1.248-5.008-.84-11.472-.84-11.472,0,0,5.84,6.464,4.176,11.472-1.672,5-3.304,6.296-7.504,7.296-2.848.672-7.088-.424-9.384-2.088Z"/>
            </g>
            <path class="cls-28" d="M1814.96,466.42c0,9.408-7.52,17.04-16.8,17.056s-16.816-7.584-16.848-16.992c-.032-9.408,7.44-17.064,16.72-17.12,9.28-.056,16.856,7.52,16.928,16.92"/>
            <path class="cls-5" d="M1790.32,475.18s13.6-.232,14.984-5.76c1.384-5.536-.92-12.68-.92-12.68,0,0,6.448,7.144,4.608,12.68-1.84,5.528-3.656,6.96-8.296,8.064-3.152.752-7.84-.464-10.376-2.304Z"/>
            <g>
              <path class="cls-25" d="M1813.28,542.692c0,8.832-7.056,16-15.768,16.016-8.72.024-15.8-7.12-15.84-15.952-.032-8.832,7-16.032,15.712-16.08,8.72-.056,15.824,7.056,15.896,15.888"/>
              <path class="cls-5" d="M1790.16,550.916s12.776-.216,14.072-5.408-.864-11.912-.864-11.912c0,0,6.056,6.72,4.32,11.912-1.728,5.192-3.424,6.536-7.784,7.576-2.96.704-7.36-.44-9.744-2.168h0Z"/>
            </g>
            <path class="cls-28" d="M1767.76,361.652c0,9.408-7.52,17.04-16.8,17.056-9.28.016-16.816-7.584-16.848-16.992s7.44-17.064,16.72-17.12,16.856,7.52,16.928,16.92"/>
            <path class="cls-5" d="M1743.12,370.412s13.6-.232,14.984-5.76c1.384-5.536-.92-12.68-.92-12.68,0,0,6.448,7.144,4.608,12.68-1.84,5.528-3.656,6.96-8.296,8.064-3.152.752-7.84-.464-10.376-2.304Z"/>
            <path class="cls-28" d="M1726,345.204c0,9.408-7.52,17.04-16.8,17.056s-16.816-7.584-16.848-16.992c-.032-9.408,7.44-17.064,16.72-17.12s16.856,7.52,16.928,16.92"/>
            <path class="cls-5" d="M1701.36,353.964s13.6-.232,14.984-5.76c1.384-5.536-.92-12.68-.92-12.68,0,0,6.448,7.144,4.608,12.68-1.84,5.528-3.656,6.96-8.296,8.064-3.152.752-7.84-.464-10.376-2.304Z"/>
            <path class="cls-28" d="M1686.08,326.404c0,9.408-7.52,17.04-16.8,17.056-9.28.016-16.816-7.584-16.856-16.992-.04-9.408,7.448-17.064,16.728-17.12s16.856,7.52,16.928,16.92"/>
            <path class="cls-5" d="M1661.44,335.164s13.6-.232,14.984-5.76c1.384-5.536-.92-12.68-.92-12.68,0,0,6.448,7.144,4.608,12.68-1.84,5.528-3.656,6.96-8.296,8.064-3.152.752-7.84-.464-10.376-2.304Z"/>
            <path class="cls-28" d="M1640.24,316.412c0,9.408-7.52,17.04-16.8,17.056s-16.816-7.584-16.856-16.992c-.04-9.408,7.448-17.064,16.728-17.12s16.856,7.52,16.928,16.92"/>
            <path class="cls-5" d="M1615.6,325.172s13.6-.232,14.984-5.76c1.384-5.536-.92-12.68-.92-12.68,0,0,6.448,7.144,4.608,12.68-1.84,5.528-3.656,6.96-8.296,8.064-3.152.752-7.84-.464-10.376-2.304Z"/>
            <path class="cls-28" d="M1586.16,329.34c0,9.408-7.52,17.04-16.8,17.056s-16.816-7.584-16.856-16.992,7.448-17.064,16.728-17.12,16.856,7.52,16.928,16.92"/>
            <path class="cls-5" d="M1561.52,338.1s13.6-.232,14.984-5.76c1.384-5.536-.92-12.68-.92-12.68,0,0,6.448,7.144,4.608,12.68-1.84,5.528-3.656,6.96-8.296,8.064-3.152.752-7.84-.464-10.376-2.304Z"/>
            <path class="cls-28" d="M1548,367.524c0,9.408-7.52,17.04-16.8,17.056s-16.816-7.584-16.848-16.992,7.44-17.064,16.72-17.12,16.856,7.52,16.928,16.92"/>
            <path class="cls-5" d="M1523.36,376.284s13.6-.232,14.984-5.76c1.384-5.536-.92-12.68-.92-12.68,0,0,6.448,7.144,4.608,12.68-1.84,5.528-3.656,6.96-8.296,8.064-3.152.752-7.84-.464-10.376-2.304Z"/>
            <path class="cls-28" d="M1532.16,420.996c0,9.408-7.52,17.04-16.8,17.056s-16.816-7.584-16.856-16.992,7.448-17.064,16.728-17.12,16.856,7.52,16.928,16.92"/>
            <path class="cls-5" d="M1507.44,429.756s13.6-.232,14.984-5.76c1.384-5.536-.92-12.68-.92-12.68,0,0,6.448,7.144,4.608,12.68-1.84,5.528-3.656,6.96-8.296,8.064-3.152.752-7.84-.464-10.376-2.304Z"/>
            <path class="cls-28" d="M1539.2,476.82c0,9.408-7.52,17.04-16.8,17.056-9.28.016-16.816-7.584-16.856-16.992-.04-9.408,7.448-17.064,16.728-17.12,9.28-.056,16.856,7.52,16.928,16.92"/>
            <path class="cls-5" d="M1514.56,485.58s13.6-.232,14.984-5.76c1.384-5.536-.92-12.68-.92-12.68,0,0,6.448,7.144,4.608,12.68-1.84,5.528-3.656,6.96-8.296,8.064-3.152.752-7.84-.464-10.376-2.304Z"/>
            <path class="cls-28" d="M1565.04,527.348c0,9.408-7.52,17.04-16.8,17.056s-16.816-7.584-16.848-16.992,7.44-17.064,16.72-17.12,16.856,7.52,16.928,16.92"/>
            <path class="cls-5" d="M1540.4,536.108s13.6-.232,14.984-5.76c1.384-5.536-.92-12.68-.92-12.68,0,0,6.448,7.144,4.608,12.68-1.84,5.528-3.656,6.96-8.296,8.064-3.152.752-7.84-.464-10.376-2.304Z"/>
            <g>
              <path class="cls-30" d="M1594.278,591.019c2.435,9.086-.141,17.678-5.76,19.199-5.616,1.526-12.152-4.592-14.61-13.671s.094-17.695,5.703-19.254c5.606-1.561,12.153,4.522,14.633,13.598"/>
              <path class="cls-5" d="M1581.6,603.484s8.176-2.432,7.584-8-3.84-12.096-3.84-12.096c0,0,5.76,5.856,6.08,11.496.312,5.648-.416,7.32-2.944,9.144-1.712,1.232-4.864.824-6.88-.544Z"/>
            </g>
            <g>
              <path class="cls-30" d="M2028.865,594.274c-2.254,9.132-8.658,15.413-14.313,14.033-5.655-1.374-8.425-9.888-6.195-19.026,2.23-9.138,8.625-15.451,14.29-14.109,5.664,1.339,8.461,9.827,6.25,18.973"/>
              <path class="cls-5" d="M2011.76,599.068s8.336,1.824,10.504-3.344c2.168-5.168,2.48-12.448,2.48-12.448,0,0,2.216,7.912-.24,13.008-2.44,5.088-3.888,6.208-6.984,6.584-2.096.248-4.656-1.632-5.76-3.8Z"/>
            </g>
          </g>
          <path class="cls-4" d="M1783.6,269.156l1.216,28.496s-33.784,2.96-35.168,6.064c-6.56,14.712,7.88,34.56,7.88,34.56,0,0,11.36-8.496,40.016-8.496,27.28,0,41.224,6.672,41.224,6.672,0,0,7.28-11.52,7.28-20s-3.032-16.984-3.032-16.984c0,0-13.944-1.816-18.192-1.816h-12.12l-1.216-29.104s-27.888.608-27.888.608Z"/>
          <path class="cls-34" d="M1831.76,313.364c0,3.2-2.696,5.792-6.032,5.792-3.336.008-6.048-2.568-6.064-5.76-.008-3.2,2.68-5.808,6.016-5.824,3.328-.024,6.056,2.552,6.08,5.744M1845.68,316.468c0,3.336-2.808,6.04-6.288,6.048-3.48,0-6.312-2.688-6.32-6.024-.016-3.336,2.784-6.048,6.264-6.072,3.48-.016,6.32,2.664,6.352,6M1817.816,313.14c0,3.2-2.696,5.792-6.032,5.8-3.336,0-6.048-2.576-6.064-5.776-.008-3.192,2.68-5.792,6.016-5.816,3.328-.016,6.056,2.56,6.08,5.752M1789.872,313.46c0,3.32-2.808,6.016-6.28,6.024s-6.288-2.68-6.304-6c-.016-3.328,2.784-6.04,6.248-6.056,3.472-.024,6.304,2.656,6.336,5.984M1774.352,314.492c0,3.328-2.8,6.024-6.272,6.032-3.472,0-6.288-2.68-6.304-6-.016-3.336,2.784-6.04,6.248-6.064,3.472-.016,6.304,2.656,6.336,5.984M1802.832,297.044c-.061,2.866-2.43,5.142-5.296,5.088-2.866.067-5.246-2.198-5.32-5.064.048-2.869,2.411-5.157,5.28-5.112,2.866-.076,5.253,2.182,5.336,5.048M1802.832,273.404c-.061,2.866-2.43,5.142-5.296,5.088-2.869.067-5.25-2.203-5.32-5.072.052-2.866,2.414-5.149,5.28-5.104,2.863-.076,5.249,2.177,5.336,5.04M1802.832,286.132c-.061,2.866-2.43,5.142-5.296,5.088-2.866.067-5.246-2.198-5.32-5.064.048-2.869,2.411-5.157,5.28-5.112,2.866-.076,5.253,2.182,5.336,5.048M1758.64,318.716c0,3.208-2.712,5.816-6.056,5.816-3.352.008-6.08-2.584-6.08-5.792-.024-3.208,2.68-5.824,6.024-5.84,3.352-.024,6.08,2.56,6.112,5.768"/>
          <path class="cls-27" d="M1804.24,311.9c0,3.512-2.976,6.36-6.656,6.368-3.68,0-6.664-2.832-6.68-6.344s2.952-6.368,6.624-6.392c3.68-.016,6.68,2.8,6.712,6.32"/>
          <g>
            <path class="cls-25" d="M1810.32,227.356c0,6.96-5.56,12.608-12.432,12.624-6.917-.031-12.502-5.659-12.48-12.576-.071-6.916,5.469-12.584,12.384-12.672,6.917.004,12.524,5.611,12.528,12.528"/>
            <path class="cls-5" d="M1792.08,233.828s10.064-.168,11.088-4.264c1.024-4.096-.68-9.384-.68-9.384,0,0,4.776,5.288,3.408,9.384-1.36,4.096-2.704,5.152-6.136,5.968-2.336.56-5.8-.336-7.68-1.704Z"/>
          </g>
          <path class="cls-14" d="M1599.84,650.78s11.112,10.368,14.08,19.632c2.96,9.256,7.4,34.072,7.4,34.072,0,0,116.288-32.224,173.328-29.632,57.04,2.592,188.512,31.48,188.512,31.48,0,0,2.224-14.08,4.816-28.88,2.592-14.824,13.336-31.12,13.336-31.12,0,0-125.552-39.256-204.808-35.552-79.256,3.704-118.888,12.224-136.664,17.776-17.784,5.56-61.12,22.592-60,22.224h0Z"/>
          <path class="cls-15" d="M1773.28,180.34h50.016s-12.336,8.536-14.848,16.672c-2.16,7-1.52,18.488-1.52,18.488,0,0,13.64,0,19.704-5.152,6.064-5.152,18.8-14.24,18.8-14.24v63.656s-12.28-11.872-19.712-15.76c-8.92-4.68-17.88-6.368-17.88-6.368,0,0,0,10.304,4.24,16.368,4.24,6.064,21.224,29.104,21.224,29.104l-71.544,2.72s16.968-17.888,23.952-30.912c4.544-8.488,2.72-17.28,2.72-17.28,0,0-12.12,0-18.184,4.24s-16.672,16.976-16.672,16.976v-61.232s4.544,11.824,14.552,16.368c10.008,4.544,19.4,2.12,19.4,2.12,0,0,1.936-12.184-2.12-19.704-4.192-7.752-13.04-16.368-12.128-16.064h0Z"/>
          <path class="cls-2" d="M1769.36,382.34s-35.584-.432-66.024-18.432c-30.432-18.008-61.136-36.864-106.32-26.16-9.248,2.2-43.296,17.152-58.304,65.6-10.528,33.992,1.72,75.024,12.44,93.456,10.72,18.432,28,37.12,28,37.12l18.376-12.456s-46.808-39.672-41.232-91.12c5.568-51.44,31.288-63.44,31.288-63.44,0,0,31.728-24.872,74.168-1.288,42.44,23.576,84.024,34.296,84.024,34.296,0,0,39.016,9.432,42.44,9,3.432-.432-19.72-27.008-18.864-26.584l.008.008Z"/>
          <path class="cls-6" d="M1572.56,575.3l-18.904-37.16,56.72-22.16s-13.696,18.24-16.96,31.28c-3.976,15.936-2.6,29.344-2.6,29.344,0,0,5.216-3.912,11.736-14.344,4.944-7.92,13.04-36.504,13.04-36.504l25.424,81.496c.192.216-13.072-13.072-22.4-14.648-10.512-1.784-23.24,1.6-23.24,1.6l-14.992,4.568-7.824-23.464v-.008Z"/>
          <path class="cls-2" d="M1833.52,381.668s35.584-.432,66.024-18.432c30.432-18.008,61.136-36.864,106.32-26.16,9.248,2.2,43.296,17.152,58.304,65.6,10.528,33.992-1.72,75.024-12.432,93.456-10.72,18.432-18.008,29.28-18.008,29.28l-22.096-7.936s40.528-36.352,34.96-87.792c-5.576-51.44-31.296-63.448-31.296-63.448,0,0-31.728-24.864-74.168-1.28-42.44,23.568-84.024,34.288-84.024,34.288,0,0-39.016,9.432-42.44,9-3.432-.424,19.72-27.008,18.864-26.576h-.008Z"/>
          <path class="cls-26" d="M1815.12,346.46h14.856v138.536h-14.856v-138.536ZM1765.104,345.852h17.584v138.536h-17.584v-138.536Z"/>
          <path class="cls-26" d="M1846.08,313.716c0,24.576-21.656,44.512-48.4,44.56-26.752.056-48.496-19.808-48.6-44.384-.112-24.576,21.464-44.592,48.208-44.736,26.752-.144,48.576,19.632,48.792,44.208"/>
          <path class="cls-9" d="M1754.56,483.836l83.408-.688s-9.784,5.84-18.192,20.768-7.208,24.368-7.208,24.368c0,0,12.696-.168,21.624-6.688,8.92-6.528,18.88-18.712,18.88-18.712l-.344,76.888s-6-9.784-15.96-15.616c-9.952-5.84-24.032-5.84-24.032-5.84h-28.48s-13.04.776-18.88,4.64c-8.256,5.448-18.536,15.96-18.536,15.96l-1.376-72.6s4.12,12.704,17.504,17.848c13.384,5.152,20.936,4.464,20.936,4.464,0,0,0-16.304-6.864-24.712s-22.48-19.736-22.48-20.08h0Z"/>
          <path class="cls-12" d="M1801.04,544.204s12.2,28.48,26.4,41.04c8.256,7.32,33.088,12.832,44.32,9.96,25.224-6.44,42.568-26.624,42.568-26.624,0,0-.904,22.112,14.896,34.296,15.792,12.192,28.432,15.352,41.52,11.736,13.088-3.608,50.104-31.144,50.104-31.144l7.672,6.776s-21.224,20.608-43.536,31.552c-11.488,5.632-46.352,2.504-57.632-6.528-11.28-9.024-17.984-30.896-17.984-30.896,0,0-6.952,14.064-21.84,19.024-14.896,4.968-35.368,4.752-54.376-.8-12.792-3.736-29.4-21.384-32.56-27.248-3.16-5.872-2.256-9.024-2.256-9.024,0,0-9.376,26.864-28.888,34.192-18.432,6.92-39.44,6.976-57.28,1.84-18.048-5.184-19.448-15.28-19.448-15.28,0,0-1.36,28.44-40.624,36.56-39.264,8.128-70.408-20.76-70.408-20.76l5.416-8.12s22.12,24.824,55.968,22.56c33.848-2.248,45.136-45.576,45.136-45.576,0,0,14.888,22.56,54.608,23.016,39.72.448,51-51.456,51-51.456l7.224.904h0Z"/>
          <g>
            <path class="cls-3" d="M1703.12,560.764s.296-13.824,3.272-17.976c4.208-5.888,9.944-6.128,12.864-5.312,3.608,1.008,7.36,4.288,6.744,13.888-.616,9.6-3.272,14.304-.408,17.976,2.856,3.68,3.264,6.136,8.784,5.312,5.52-.816,7.968-2.656,6.744-7.76-1.232-5.104-2.864.408-3.888-3.88-1.016-4.288,5.336-22.824,4.296-34.32-1.024-11.232-5.312-20.224-13.896-22.472-8.064-2.112-14.912-2.04-22.472,3.472-7.248,5.288-16.544,22.68-16.544,22.68l-.208,37.176,15.12-.816-.408-7.968Z"/>
            <path class="cls-3" d="M1674.96,570.772s-5.784-12.56-10.16-15.184c-6.216-3.72-11.568-1.656-13.92.256-2.912,2.368-5.04,6.864-.648,15.432,4.392,8.56,8.696,11.808,7.536,16.32-1.152,4.512-.552,6.928-5.936,8.376-5.384,1.44-8.368.736-9.28-4.432-.912-5.176,2.792-.768,2.016-5.112s-13.992-18.8-17.616-29.76c-3.536-10.72-3.184-20.672,3.784-26.152,6.56-5.152,12.864-7.816,22-5.768,8.752,1.96,24.208,14.2,24.208,14.2l15.008,34.016-14.192,5.28-2.8-7.472h0Z"/>
            <path class="cls-3" d="M1672.08,460.668s-14.712,24.72-11.44,43.72c3.272,18.992,22.88,59.848,22.88,59.848l.2,5.52,10.584-1.144-2.408-5.6s5.28-48.912,2.04-64.352c-2.408-11.472-21.656-37.792-21.856-38v.008ZM1695.576,573.844s7.344,8.8,16.136,13.072c9.6,4.68,13.544,4.712,17.36,1.84,2.8-2.104,1.84-11.032-1.424-13.48-3.272-2.456-6.976-1.2-7.56,1.224-.984,4.104-2.32,3.832-5.312,2.24-4.368-2.304-14.504-8.576-14.504-8.576,0,0-4.696,3.68-4.696,3.68ZM1684.184,575.844s-3.088,11.032-9.352,18.544c-6.832,8.2-10.416,9.848-15.072,8.8-3.416-.768-6.208-9.304-4.24-12.88,1.984-3.576,5.872-3.968,7.4-1.984,2.584,3.336,3.696,2.536,5.768-.136,3.04-3.896,9.704-13.776,9.704-13.776l5.8,1.432h-.008Z"/>
            <path class="cls-23" d="M1711.92,567.004c.544,3.224-9.184,7.544-21.744,9.656-12.552,2.112-23.2,1.216-23.784-2-.592-3.208,9.096-7.528,21.648-9.656,12.56-2.128,23.232-1.248,23.872,1.952"/>
          </g>
          <g>
            <path class="cls-3" d="M1928.08,566.332s5.12-12.84,9.36-15.688c6.016-4.04,11.472-2.256,13.92-.464,3.024,2.216,5.384,6.6,1.44,15.376-3.936,8.776-8.08,12.24-6.688,16.688,1.392,4.448.912,6.888,6.368,8.056,5.448,1.168,8.392.312,9.04-4.904.64-5.216-2.824-.624-2.28-5,.552-4.376,13-19.496,16.056-30.64,2.984-10.88,2.112-20.8-5.136-25.904-6.8-4.808-13.248-7.144-22.256-4.632-8.64,2.416-23.448,15.44-23.448,15.44l-13.232,34.744,14.448,4.528,2.408-7.6h0Z"/>
            <path class="cls-3" d="M1898.24,565.828s-1.008-13.792-4.192-17.784c-4.512-5.664-10.248-5.608-13.128-4.64-3.552,1.2-7.12,4.664-6.016,14.224,1.112,9.552,4,14.112,1.336,17.928-2.664,3.824-2.944,6.288-8.496,5.76s-8.096-2.24-7.136-7.408c.96-5.16,2.88.264,3.68-4.08.8-4.328-6.512-22.512-6.056-34.048.44-11.272,4.256-20.472,12.712-23.152,7.944-2.528,14.784-2.816,22.616,2.304,7.52,4.912,17.696,21.792,17.696,21.792l2.128,37.12-15.144-.04v-7.976h0Z"/>
            <path class="cls-3" d="M1934.16,461.7s-22.44,17.992-26.04,36.928c-3.6,18.936.432,64.08.432,64.08l-1.744,5.232,10.32,2.64-.296-6.08s22.096-43.952,24.48-59.552c1.76-11.6-7.04-42.984-7.152-43.248ZM1916.48,575.924s3.792,10.816,10.52,17.904c7.36,7.744,11.04,9.16,15.624,7.808,3.352-.984,5.584-9.68,3.384-13.12-2.2-3.448-6.112-3.584-7.504-1.512-2.36,3.504-3.52,2.776-5.76.24-3.28-3.696-10.576-13.12-10.576-13.12l-5.696,1.8h.008ZM1905.12,573.804s-6.776,9.248-15.272,14.08c-9.28,5.288-13.216,5.576-17.2,2.96-2.928-1.92-2.552-10.888.552-13.544s6.88-1.656,7.624.736c1.24,4.032,2.56,3.672,5.44,1.896,4.208-2.592,13.92-9.496,13.92-9.496l4.928,3.36.008.008Z"/>
            <path class="cls-23" d="M1934.32,575.348c-.624,3.2-11.248,3.84-23.744,1.416-12.504-2.424-22.16-6.992-21.576-10.208.568-3.216,11.16-3.864,23.656-1.456,12.504,2.408,22.2,6.976,21.672,10.2"/>
          </g>
          <path class="cls-11" d="M1595.44,649.452s2.432,10.216,8.272,4.864,86.136-36.984,199.52-36.984,187.84,31.144,192.224,33.096c4.384,1.944,6.32,4.376,10.224,0,3.888-4.384-3.896-11.2-3.896-11.2,0,0-78.84-33.576-201.952-33.088-123.12.48-202.928,35.52-202.928,35.52,0,0-5.36,3.896-1.464,7.792h0Z"/>
          <path class="cls-7" d="M1739.2,696.62s3.616-10.056,9.936-11.992c5.04-1.544,12.992,3.408,12.992,3.408,0,0-9.584-.88-12.584.824-2.704,1.544-3.52,6.112-3.52,6.112,0,0,2.048-3.64,9.4-3.288,7.352.352,8.168.352,8.168.352,0,0-12.456.936-15.336,4.528-2.88,3.584,11.76,5.232,11.76,5.232,0,0-22.4.112-25.344-1.24-2.936-1.352-4.816-5.936-9.816-4.528-4.992,1.416-10.112,5.88-10.112,5.88,0,0,5.704-9.576,9.288-9.64,3.584-.056,5.704-.24,8.936,1.232s6.232,3.12,6.232,3.12ZM1655.456,714.764s1.696-10.56,7.544-13.624c4.664-2.448,13.4.944,13.4.944,0,0-9.576.912-12.208,3.136-2.376,2.016-2.336,6.664-2.336,6.664,0,0,1.344-3.96,8.632-4.976,7.28-1.008,8.096-1.16,8.096-1.16,0,0-12.08,3.224-14.24,7.28-2.168,4.056,12.52,2.968,12.52,2.968,0,0-21.992,4.256-25.128,3.472s-5.84-4.944-10.48-2.64c-4.656,2.32-8.856,7.656-8.856,7.656,0,0,3.84-10.472,7.344-11.2,3.52-.72,5.56-1.28,9.016-.432,3.44.848,6.696,1.912,6.696,1.912h0ZM1809.832,692.9s4.192-9.824,10.616-11.392c5.12-1.248,12.768,4.16,12.768,4.16,0,0-9.52-1.44-12.608.08-2.792,1.392-3.872,5.904-3.872,5.904,0,0,2.264-3.52,9.576-2.736,7.32.776,8.136.824,8.136.824,0,0-12.496.216-15.576,3.632-3.08,3.408,11.44,5.904,11.44,5.904,0,0-22.368-1.184-25.224-2.704-2.856-1.52-4.472-6.208-9.544-5.088-5.064,1.12-10.432,5.28-10.432,5.28,0,0,6.24-9.232,9.832-9.08,3.584.144,5.704.096,8.848,1.744s6.04,3.472,6.04,3.472ZM1880.552,700.9s5.312-9.272,11.864-10.08c5.232-.64,12.2,5.624,12.2,5.624,0,0-9.28-2.536-12.528-1.384-2.936,1.04-4.536,5.408-4.536,5.408,0,0,2.656-3.232,9.832-1.6,7.176,1.624,7.984,1.76,7.984,1.76,0,0-12.432-1.24-15.896,1.792-3.456,3.032,10.664,7.2,10.664,7.2,0,0-22.072-3.784-24.728-5.624-2.664-1.84-3.72-6.688-8.88-6.168-5.168.52-10.984,4.032-10.984,4.032,0,0,7.28-8.448,10.824-7.88,3.544.56,5.656.76,8.584,2.768s5.6,4.16,5.6,4.16v-.008ZM1950.768,713.436s4.952-7.064,10.28-7.232c4.248-.128,9.392,5.408,9.392,5.408,0,0-7.28-2.72-9.968-2.024-2.44.624-4.04,4.016-4.04,4.016,0,0,2.368-2.4,8.016-.568,5.648,1.832,6.288,2,6.288,2,0,0-9.904-1.904-12.904.272-3,2.184,8.04,6.568,8.04,6.568,0,0-17.456-4.656-19.464-6.328-2-1.68-2.488-5.648-6.68-5.608-4.192.04-9.12,2.432-9.12,2.432,0,0,6.48-6.248,9.28-5.536,2.8.72,4.48,1.024,6.696,2.856,2.2,1.832,4.184,3.744,4.184,3.744h0Z"/>
          <path class="cls-21" d="M1725.12,648.708c1.68,8.376-8.168,17.424-22.008,20.192-13.84,2.776-26.416-1.776-28.088-10.16-1.688-8.376,8.168-17.416,22.008-20.192,13.84-2.768,26.416,1.776,28.088,10.16Z"/>
          <path class="cls-36" d="M1693.76,647.34c.4,2.032-1.736,4.168-4.776,4.784-3.048.608-5.848-.544-6.256-2.576-.4-2.032,1.736-4.168,4.784-4.784,3.04-.608,5.84.544,6.248,2.576Z"/>
          <path class="cls-21" d="M1920.72,658.852c-2.552,8.16-15.544,11.344-29.008,7.12-13.472-4.24-22.304-14.272-19.736-22.424,2.552-8.16,15.544-11.344,29.008-7.12,13.464,4.24,22.304,14.272,19.736,22.424Z"/>
          <path class="cls-36" d="M1893.84,642.564c-.624,1.976-3.52,2.824-6.488,1.896-2.96-.936-4.864-3.288-4.24-5.264.616-1.976,3.52-2.824,6.48-1.896,2.968.928,4.872,3.288,4.248,5.264Z"/>
          <path class="cls-19" d="M1773.04,629.82h50.696v25.56h-50.696v-25.56Z"/>
          <path class="cls-39" d="M1794.4,635.26c0,1.16-2.16,2.096-4.816,2.096s-4.824-.936-4.824-2.096,2.16-2.096,4.824-2.096,4.816.936,4.816,2.096Z"/>
          <path class="cls-8" d="M1629.76,655.372l8.384,24.72-15.504,8.384s-7.12,5.024-14.248,1.256c-7.12-3.776-11.328-15.064-7.544-19.696,7.504-9.184,28.912-15.08,28.912-14.664h0Z"/>
          <path class="cls-41" d="M1616.72,672.972c0,4.16-3.184,7.544-7.12,7.544s-7.128-3.376-7.12-7.544c-.008-4.16,3.184-7.544,7.12-7.544s7.12,3.376,7.12,7.544Z"/>
          <path class="cls-35" d="M1610,670.02c.246,1.211-.052,2.469-.816,3.44-.662.794-1.805.984-2.688.448-1.036-.678-1.721-1.779-1.872-3.008-.249-1.213.05-2.475.816-3.448.72-.8,1.752-.968,2.688-.44.944.528,1.656,1.68,1.872,3.008Z"/>
          <path class="cls-8" d="M1969.36,658.596l-8.32,22.016,19.728,10.336s8.728,3.896,14.24-.936c4.696-4.136,5.76-13.696,2-18.528-3.552-4.576-27.92-13.024-27.648-12.888Z"/>
          <path class="cls-37" d="M1993.04,676.244c0,2.704-2.824,4.904-6.312,4.904s-6.304-2.2-6.304-4.904,2.824-4.904,6.304-4.904,6.312,2.2,6.312,4.904Z"/>
          <path class="cls-35" d="M1986.96,675.508c.038,1.223-.509,2.39-1.472,3.144-.879.651-2.081.651-2.96,0-.963-.754-1.51-1.921-1.472-3.144-.038-1.223.509-2.39,1.472-3.144.879-.651,2.081-.651,2.96,0,.963.754,1.51,1.921,1.472,3.144Z"/>
          <path class="cls-40" d="M1842.72,631.996c0,1.88-1.6,3.408-3.568,3.408-1.926.045-3.523-1.48-3.568-3.406v-.002c0-1.88,1.6-3.408,3.568-3.408s3.568,1.52,3.568,3.408ZM1864.288,633.244c0,1.88-1.6,3.408-3.568,3.408-1.926.045-3.523-1.48-3.568-3.406v-.002c0-1.88,1.6-3.408,3.568-3.408s3.568,1.52,3.568,3.408ZM1853.328,641.604c.008,2.36-2,4.28-4.48,4.28s-4.48-1.92-4.48-4.28,2-4.288,4.48-4.288,4.488,1.92,4.48,4.288ZM1863.76,655.7c0,1.88-1.6,3.408-3.568,3.408-1.926.045-3.523-1.48-3.568-3.406v-.002c0-1.88,1.6-3.408,3.568-3.408s3.568,1.52,3.568,3.408ZM1842.944,653.02c0,1.88-1.6,3.408-3.568,3.408-1.926.045-3.523-1.48-3.568-3.406v-.002c0-1.88,1.6-3.408,3.568-3.408s3.568,1.52,3.568,3.408ZM1738.504,635.684c.394,1.886-.816,3.734-2.701,4.127,0,0-.002,0-.003,0-1.866.479-3.767-.645-4.246-2.511,0-.003-.001-.006-.002-.009-.389-1.884.821-3.727,2.704-4.12,1.865-.48,3.767.643,4.247,2.509v.003ZM1759.8,632.028c.394,1.886-.816,3.734-2.701,4.127,0,0-.002,0-.003,0-1.866.479-3.767-.645-4.246-2.511,0-.003-.001-.006-.002-.009-.389-1.884.821-3.727,2.704-4.12,1.865-.48,3.767.643,4.247,2.509v.003ZM1751.16,642.668c.492,2.37-1.03,4.691-3.4,5.184-2.344.596-4.727-.818-5.328-3.16-.492-2.37,1.03-4.691,3.4-5.184,2.416-.56,4.8.856,5.336,3.16h-.008ZM1764.36,654.028c.389,1.887-.825,3.731-2.712,4.12-1.864.475-3.761-.649-4.24-2.512-.394-1.886.816-3.734,2.701-4.127,0,0,.002,0,.003,0,1.864-.475,3.761.649,4.24,2.512l.008.008ZM1743.472,656.108c.389,1.887-.825,3.731-2.712,4.12-1.864.475-3.761-.649-4.24-2.512-.432-1.832.784-3.68,2.704-4.128s3.824.688,4.24,2.52h.008ZM1647.632,655.308c.657,1.811-.277,3.812-2.088,4.469-.003,0-.005.002-.008.003-1.779.738-3.82-.105-4.559-1.885v-.003c-.659-1.811.276-3.812,2.086-4.469.003,0,.005-.002.008-.003,1.84-.712,3.88.136,4.56,1.888ZM1668.192,648.668c.653,1.811-.285,3.81-2.096,4.464-1.779.738-3.82-.105-4.559-1.885v-.003c-.659-1.811.276-3.812,2.086-4.469.003,0,.005-.002.008-.003,1.84-.712,3.88.136,4.56,1.888v.008ZM1661.104,660.404c.824,2.276-.353,4.79-2.629,5.615-.001,0-.002,0-.003.001-2.237.926-4.801-.137-5.727-2.374,0,0,0-.001,0-.002-.824-2.276.353-4.79,2.629-5.615.001,0,.002,0,.003-.001,2.304-.896,4.88.16,5.728,2.376ZM1675.824,669.78c.659,1.81-.274,3.812-2.084,4.471-.001,0-.002,0-.003.001-1.779.738-3.82-.105-4.559-1.885v-.003c-.655-1.811.283-3.81,2.094-4.464,1.84-.72,3.88.128,4.56,1.88h-.008ZM1655.448,674.82c.688,1.744-.256,3.752-2.088,4.464s-3.88-.136-4.56-1.888c-.654-1.809.28-3.806,2.088-4.464,1.84-.72,3.88.128,4.56,1.88v.008ZM1936.376,645.412c-.542,2.003-2.604,3.188-4.608,2.648-2.025-.45-3.302-2.455-2.856-4.48.542-2.003,2.604-3.188,4.608-2.648,2.025.45,3.302,2.455,2.856,4.48ZM1958.632,652.244c-.542,2.003-2.604,3.188-4.608,2.648-2.025-.45-3.302-2.455-2.856-4.48.539-2.006,2.601-3.195,4.606-2.656,0,0,0,0,.001,0,2.025.45,3.302,2.455,2.856,4.48v.008ZM1945.056,658.212c-.679,2.516-3.268,4.005-5.784,3.328-2.547-.557-4.16-3.073-3.603-5.619,0-.004.002-.008.003-.013.678-2.517,3.268-4.008,5.785-3.33.002,0,.005.001.007.002,2.547.557,4.16,3.073,3.603,5.619,0,.004-.002.008-.003.013h-.008ZM1952.336,675.604c-.537,2.006-2.599,3.196-4.605,2.659-.004,0-.007-.002-.011-.003-2.025-.45-3.302-2.455-2.856-4.48.539-2.006,2.601-3.195,4.606-2.656,0,0,0,0,.001,0,2.025.45,3.302,2.455,2.856,4.48h.008ZM1931.232,667.46c-.542,2.003-2.604,3.188-4.608,2.648-2.028-.446-3.31-2.452-2.864-4.48.542-2.003,2.604-3.188,4.608-2.648,2.028.446,3.31,2.452,2.864,4.48Z"/>
          <path class="cls-24" d="M1979.84,444.756s-10.256,9.616-22.432,9.616-19.232-5.128-23.08-7.696c-3.848-2.56,1.28-10.256,1.28-10.256"/>
          <path class="cls-18" d="M1764.48,463.988s-18.592-3.2-26.28-5.768c-7.696-2.56-5.768-7.696-14.744-7.056-8.976.64-17.952,7.056-16.032,16.032,1.92,8.968,8.336,10.256,14.744,8.328,6.416-1.92,4.488-12.816-3.84-12.176-8.336.64-1.28,7.688-1.28,7.688"/>
          <path class="cls-20" d="M1636.24,449.884s5.128,7.696,18.592,6.408c13.456-1.28,18.592-8.328,19.232-11.536.64-3.2,0-8.976-2.56-11.536-2.568-2.56-11.544-3.848-11.544-3.848"/>
          <path class="cls-31" d="M1897.535,1353.489c12.511-12.316,30.752-17.69,43.221-49.901,10.46-27.735,18.428-71.541,25.539-97.953,2.628-9.307,6.137-27.311,9.307-40.509,2.763-11.536,7.705-23.488,9.112-28.252,2.738-9.265,3.662-20.072,4.865-27.633,2.619-16.444,4.857-27.879-7.544-26.65-12.969,1.271-16.732,3.196-22.073,11.002-4.933,7.205-11.274,17.572-15.003,29.184-5.086,16.8-8.765,31.956-13.299,43.67-5.272,13.622-6.239,11.757-13.901,27.938-10.587-14.071-11.341-25.429-13.952-45.01-2.602-19.47-4.747-40.195-5.484-62.505-1.382-41.958-3.831-85.942-4.34-102.242-1.382-21.513.11-52.469-4.933-68.379-2.356-7.408-7.527-17.631-17.419-17.317-11.469.085-18.792,9.104-20.343,18.479-1.11,7.408-1.67,21.615-2.119,31.219-.603,13.199-.614,26.419-.034,39.619.593,15.088.136,61.344-.17,76.389-.551,27.786-4.001,29.32-9.155,28.964-3.984-3.323-1.966-56.75-3.543-102.87-.593-17.495-1.06-40.627-1.356-56.69-.254-12.994-.254-28.532-1.644-38.627-2.373-17.224-7.442-28.311-19.937-28.311-8.426,0-15.393.271-19.25,19.428-2.085,10.324-2.967,35.516-2.687,49.316.314,15.41.381,24.497.797,45.696.763,38.746,4.094,109.091-5.145,110.854-8.095-1.738-6.9-16.953-8.315-53.757-.559-14.495-1.78-39.314-2.551-56.029-.927-20.818-1.775-41.639-2.543-62.463-1.365-12.316-2.56-28.837-18.072-27.447-8.137-.992-14.105,5.213-17.58,27.158-1.933,12.223-.61,60.945.127,77.144,1.466,32.253,1,40.136,1.187,60.445.17,19.708,2.077,46.552-5.264,47.019-8.841-.127-6.298-14.368-7.756-36.94-1.424-22.149-2.323-50.401-2.145-43.908,0-11.409-1.407-28.167-2.433-42.17-.805-10.935-.305-23.013-12.164-22.039-12.045.975-19.436,5.043-21.928,25.658-1.611,13.359-2.06,42.229-2.407,52.698,1.288,26.616-5.213,80.78-8.434,98.42-.882,12.511-6.425,36.694-8.519,54.122-4.492,37.525-6.273,63.471-1.305,85.959,3.899,19.623,6.671,34.965,14.266,50.706,7.052,14.622,20.233,28.616,23.141,40.636,5.654,23.446,3.009,68.701,3.009,87.722s16.521,20.038,50.714,12.672c55.91-12.036,86.459,12.045,132.63-5.705-5.857-52.604,5.552-84.238,5.255-103.251l1.577-5.561Z"/>
          <path class="cls-42" d="M1821.18,1302.597c1.271-64.997,60.225-135.877,82.874-149.812"/>
          <path class="cls-42" d="M1737.195,1195.854c17.411-6.866,35.491-11.85,53.181-17.902,21.649-6.103,42.619-14.859,64.963-18.317,10.765-2.195,36.525-9.044,47.502-9.782"/>
          <path class="cls-32" d="M1703.561,1364.687c1.865,3.306,6.247,3.492,12.418,3.95,6.781.102,7.824.314,12.113.288,6.696-.117,13.393-.108,20.089.025,5.781-.178,25.336-3.941,39.89-5.111,8.146-.653,14.647,1.271,18.868,1.551"/>
          <path class="cls-33" d="M1796.802,1363.839c1.246,1.017,12.291.958,20.411,3.467,7.171,2.212,12.181,2.67,13.503,3.187,5.001.542,1.695,3.204,29.718.949,17.377,1.102,32.761-13.901,37.101-17.953"/>
        </g>
      </g>
    </g>
  </g>
</svg>