<?xml version="1.0" encoding="UTF-8"?>
<svg xmlns="http://www.w3.org/2000/svg" viewBox="0 0 3600.1 2401.738">
  <defs>
    <style>
      .cls-1 {
        fill: #0065bd;
      }

      .cls-1, .cls-2 {
        fill-rule: evenodd;
        stroke-width: 0px;
      }

      .cls-2 {
        fill: #eee;
      }
    </style>
  </defs>
  <g id="background">
    <path id="gb-sct" class="cls-1" d="M400,.1h2800c220,0,400,180,400,400v1600c0,220-180,400-400,400H400C180,2400.1,0,2220.1,0,2000.1V400.1C0,180.1,180,.1,400,.1Z"/>
  </g>
  <g id="country">
    <g id="gb">
      <g id="sct">
        <path id="Path" class="cls-2" d="M3229.5,1.1c172.8,12.6,315.1,134.9,357.6,297.6l-1380.4,901.4,1380.4,901.4c-42.5,162.7-184.8,285-357.6,297.6l-1429.4-933.4-1429.4,933.2c-172.8-12.6-315.1-134.9-357.6-297.6l1380.4-901.4L13.1,298.6C55.5,135.9,197.9,13.6,370.7,1.1l1429.4,933.4L3229.5,1.1Z"/>
      </g>
    </g>
  </g>
</svg>