<?xml version="1.0" encoding="UTF-8"?>
<svg xmlns="http://www.w3.org/2000/svg" viewBox="0 0 3600.1 2401.738">
  <defs>
    <style>
      .cls-1 {
        fill: none;
      }

      .cls-1, .cls-2 {
        stroke-linejoin: round;
      }

      .cls-1, .cls-2, .cls-3 {
        stroke: #000;
        stroke-width: 8.635px;
      }

      .cls-4 {
        fill: #00b140;
      }

      .cls-4, .cls-5 {
        fill-rule: evenodd;
        stroke-width: 0px;
      }

      .cls-3 {
        fill: #c8102e;
      }

      .cls-5 {
        fill: #eee;
      }
    </style>
  </defs>
  <g id="background">
    <path id="bg" class="cls-5" d="M400,.1h2800c220,0,400,180,400,400v1600c0,220-180,400-400,400H400C180,2400.1,0,2220.1,0,2000.1V400.1C0,180.1,180,.1,400,.1Z"/>
  </g>
  <g id="country">
    <g id="gb">
      <g id="wls">
        <path class="cls-4" d="M400,2400.1h2800c220,0,400-180,400-400v-800H0v800C0,2220.1,180,2400.1,400,2400.1Z"/>
        <g>
          <path class="cls-3" d="M2415.426,147.214c-.053.096-.091.211-.149.302.158-.086.293-.211.451-.302h-.302ZM2415.277,147.516c-250.628,138.584-474.962,282.786-695.481,466.552-105.832,92.447-75.958,166.14-80.055,249.165,3.411,55.737-12.046,107.588-46.324,138.829-78.438,15.86-156.948,31.817-235.377,47.677-7.513-21.704-14.973-43.379-22.486-65.068,7.172-33.294,34.695-49.663,92.648-28.785,4.567-42.808-29.874-60.232-70.163-75.109-13.841-10.775-31.03-19.051-28.785-56.073-6.774-83.797,127.684,5.997,128.931,5.997s-4.481-84.565-66.262-101.495c-33.688-11.922-47.946-47.456-35.084-73.761,26.952-53.775,77.69,4.212,116.492,6.294-1.458-35.098-11.451-60.117-41.68-88.451-16.273-10.012-56.236-17.544-57.272-34.331-.844-22.797,37.459-32.546,90.106-26.237-10.977-31.951-46.382-52.618-95.052-67.615l-28.785-50.071c-13.63-25.235-19.741-25.916,11.845-73.761,28.377-18.36,66.08-44.314,94.452-62.669l-31.337-3.747c4.169-34.211,4.649-45.72,12.593-102.545-30.445,41.603-68.484,34.163-102.694,51.27,0,0-97.532,17.319-128.931,58.769-1.252,0-245.27-12.44-245.27-12.44-52.004,7.244-96.424,21.982-105.093,72.561-118.938,12.003-243.494,1.386-334.176,115.139,61.743-2.922,115.791-17.626,185.153-8.698,0,0,59.109,1.118,71.362,63.715,1.252,2.504,20.092,2.552,20.092,2.552,7.513,5.839,14.973,11.701,22.486,17.539,2.922-7.925,5.776-15.913,8.698-23.839l20.087,13.793c2.082-8.76,4.217-17.472,6.299-26.237,6.678,4.591,13.26,9.206,19.938,13.793.417-10.43.936-20.902,1.348-31.327l26.237,18.734v-41.224s96.87-.225,126.384,61.316c1.257,1.252-271.847,50.196-535.669,27.585,25.455-12.517,50.863-25.115,76.313-37.631-96.189-19.554-186.626-37.233-271.507-103.894,32.033,120.593,197.564,262.243,231.477,261.61,0,1.252-32.532-58.769-32.532-58.769,95.546,4.174,191.106,8.276,286.648,12.445,10.434,31.711,5.819,67.26,31.332,95.201,0,0-15.827,52.412,19.339,73.761,1.257,2.499,41.978-106.297,41.978-106.297,0,0,12.473,29.269,25.038,48.728,18.206-93.589,120.085-108.845,120.085-108.845,0,0,21.291,48.819,21.291,50.076-31.836,4.606-71.434,69.496-50.076,105.093-21.349.408-59.253,63.259-47.524,97.599-17.947,17.861-62.645,41.671-51.275,116.487-35.184,7.542-56.015,71.919-45.125,140.177-54.446,50.68-41.081,143.712,7.498,181.401-20.164,17.942-32.579,31.74-32.532,53.823-19.171-7.124-36.844-1.171-45.13,11.394-23.498-24.088-57.238-45.182-81.254-22.639-6.218-28.497-43.331-59.843-83.955-56.216,2.38-30.051-13.217-67.251-56.221-80.209,0,0-8.703-140.843-51.424-186.501-4.188-25.551,2.447-42.928,37.631-63.868,35.132-18.739,42.597-33.27,40.03-86.354,13.85-35.482,24.371-71.655-18.739-96.246,1.295,42.194-11.658,62.516-28.785,81.254-20.466-2.979-27.614,20.907-41.383,31.337-19.267-25.973,40.644-66.2-3.747-123.985-2.499-2.509-30.987-75.43-101.346-73.761,33.443,19.583,47.591,52.537,47.524,86.354-22.183,62.583-33.453,110.951-11.24,182.749-29.231-43.791-45.811-127.046-70.014-141.525-21.214-4.135-31.577-54.312-113.939-40.025,35.53,9.557,46.809,36.686,56.37,61.316-21.785,11.236-10.962,40.869,4.946,61.316-3.022,48.046,25.762,76.116,68.815,94.001-7.091,65.5-14.2,130.889-21.291,196.393-17.098-2.178-43.417,64.406-53.818,66.416-16.738,10.415-45.964,38.428-12.445,46.324-9.959,35.943-19.195,57.613-72.71,65.068,0,0,56.548,33.539,103.443-23.838,50.248-1.257,33.726-61.177,58.02-87.553,0-1.247,13.788-9.912,33.88-62.664,8.789,47.106,57.128,191.361,166.414,262.958,95.258,101.975,173.548,198.278,172.708,334.171,37.18-34.58,59.383-89.348,76.462-141.525,51.697-17.981,125.65-24.846,191.596-21.886-11.312,23.8-23.973,46.636-7.647,62.069-46.022,15.803-56.106,49.203-37.626,82.602-48.512,32.944-51.707,54.115-52.475,108.844-89.751,115.067-145.118,111.243-234.024,81.403-29.197-17.136-74.384-41.805-95.201-28.785-38.399-25.59-93.608-29.389-102.694,28.785,28.813-23.882,46.017-19.276,68.963,3.752-4.615,11.687-8.472,23.325,8.693,29.984-7.513,8.343-14.973,16.695-22.486,25.033-41.32-6.352-96.88-5.997-111.392,53.823,21.224-17.583,68.316-21.708,106.292-4.946,7.095,2.504,14.196,4.989,21.291,7.494.835,9.595,1.717,19.19,2.547,28.785,0,0-56.284-8.688-71.362,82.607,52.772-56.14,90.101-41.378,90.101-41.378,20.336,29.768,95.186,25.287,149.023-23.685,75.617-42.275,97.662,18.475,146.471-21.291,40.471-30.186,88.355-10.113,121.284,25.038,37.972,14.244,77.719,25.969,108.993,0,0,0,38.202-24.376,76.308,14.992.417-44.391-31.039-67.975-73.761-68.815l-12.593-12.593c-40.054-8.348-85.059-4.961-120.085-25.033,16.513-62.683,40.572-119.476,87.553-167.762,57.992-62.165,100.684-90.432,173.907-185.604-2.826,53.784,38.394,113.589,60.117,168.213,0,0,43.734-69.827,50.076-126.533,1.247,0,54.801-27.873,77.656-51.573,48.243,29.922,126.873-23.958,177.659-68.512,31.298,11.85,55.065,10.996,91.449,0-29.207,59.44,16.892,114.577,90.101,137.624,6.769,52.474,59.771,63.465,140.177,63.868,3.387,30.876,51.275,35.079,51.275,35.079-30.262,14.105-46.036,28.238-44.981,60.117-31.011.211-54.499,8.016-62.664,43.777-42.582.729-85.98,3.996-122.632,25.038-39.224-6.088-86.939-22.342-117.691-53.823-15.86-13.351-19.818-32.603-47.524-40.03-17.559-20.754-38.567-16.119-45.125,3.752-18.149-14.176-86.22-20.763-97.599,43.777,31.778-23.258,60.275-32.124,80.209-3.747-10.861,19.698,26.463,30.967,58.769,38.826,22.913,1.42,63.552,22.294,76.308,57.569-29.552,8.966-74.341,6.011-103.894-16.34-26.271-21.982-61.753-19.363-81.259-4.946-27.058-17.252-91.492,15.318-93.996,67.462,27.144-24.87,51.846-36.897,76.457-21.138-12.248,2.907-7.594,4.102-6.299,11.245l62.52,36.278c-30.675,8.093-59.512,20.332-46.175,77.508,0,0,24.985-49.394,81.254-31.183,1.252-1.247,7.757,17.645,23.838,4.951,24.352-27.71,80.031-40.116,128.931-44.976,39.243-4.687,78.424-16.249,112.591,6.146,30.421-15.649,64.291-26.175,98.947-1.199,40.889,12.934,70.743,60.597,122.632,38.831,25.805-17.861,57.521-18.768,90.106,17.539.393-45.782-33.913-61.129-82.607-71.362-11.269-6.683-22.467-13.409-33.731-20.087-31.289-4.596-62.712.95-94.001-13.797,163.756-42.333,278.549-133.652,359.358-264.008,25.868,9.177,51.64,18.254,77.507,27.437,18.35,1.175,19.751,7.551,57.569,18.892,1.425-55.718-22.495-113.114-122.632-118.89l-131.479-50.071c-27.912-29.432-40.524-91.881-4.951-128.931,34.82-31.006,40.898-27.293,63.868-65.068,27.931-2.543,54.254,26.237,80.055,26.237,12.253,36.398,82.871,68.575,127.732,57.569,28.108,24.884,81.595,38.715,140.177,18.739,33.246,29.106,76.562,41.258,127.583,18.739,13.543,13.548,42.136,24.318,75.109,17.544,2.504,0,16.662,36.177,52.623,48.872-15.678,15.237-6.04,81.394,10.041,105.093-10.977,25.436-14.431,52.57-5.095,78.86-36.264,23.316-43.647,40.658-27.437,80.06-47.49,76.308-104.301,85.03-157.716,61.465-19.199-12.099-38.37-24.328-57.569-36.432-20.442-20.029-40.874-39.939-61.316-59.968-10.41-9.772-31.951-12.843-36.432,8.698,0,0-78.673-17.549-85.006,48.872,32.613-31.759,78.86-3.8,78.86-2.547s-11.015,8.746-2.547,21.44c1.904-1.588,57.44,20.725,106.892,41.978,26.866,10.18,32.771,13.366,44.525,19.641-14.766-6.717-29.609-13.264-44.525-19.641-30.104-11.413-59.431-20.528-68.066-18.293-28.017-2.615-57.732-6.093-71.357,14.992-30.118,12.742-77.162,22.946-75.114,78.86,20.336-33.294,48.238-31.889,83.807-28.785-.835,2.504-1.564,4.989-2.399,7.494,38.619,17.592,31.294-4.788,67.313-8.093,30.113-2.763,72.797,8.021,95.349,15.592-28.367,8.343-66.943,4.841-85.155,25.038-3.339,6.678-15.021,3.948-9.892,19.938,0,0-55.334-1.43-70.163,75.109,56.265-36.024,98.899-34.93,100.147-34.93s17.539,3.747,17.539,3.747c0,0,67.567-45.125,68.815-45.125,1.257,0,65.428-28.415,95.047,3.747,25.853,12.708,53.506,13.519,80.209-2.547,52.609-22.884,101.855-24.486,150.222,7.647l43.772,26.232c6.256-4.169,12.488-8.42,18.744-12.593,0,0,49.553-13.994,85.903,30.133-15.026-76.347-69.563-78.856-69.563-78.856-4.174-3.756-8.424-7.489-12.593-11.245-25.868-10.012-51.64-20.12-77.508-30.133-11.293-27.95-39.665-50.205-11.394-83.807,28.881-143.568,63.413-251.391,7.494-396.84,52.153,22.529,91.176,92.193,156.517,67.615,0-58.414-215.031-169.321-379.296-258.463,269.108-13.769,592.533-212.417,468.202-464.902,19.612-60.913,39.157-121.841,58.769-182.754,27.681,55.761,83.73,98.266,134.026,116.338-41.455-79.139-65.245-321.093-41.378-488.14-108.437,133.954-228.181,252.835-355.462,373.601,62.607,14.632,117.312,4.337,177.808-3.147-17.108,35.045-33.721,70.196-50.824,105.246-165.383-96.851-359.554-24.17-361.008,105.093,5.656,150.736,192.027,172.156,299.538,119.634-21.31,137.433-337.169,86.805-337.169,86.805-112.231-38.687-218.826-32.061-336.719-31.183,24.496-75.368,160.523-142.254,264.157-112.74-145.089-162.681,20.509-364.644,220.232-426.829-217.689-71.794-30.243-237.747,132.683-356.657,0,0-468.533,197.18-511.23,196.547-133.268-10.012-96.942-167.752-46.175-252.614h0ZM944.711,336.866c10.905.058,23.723,1.123,33.88,3.598,21.128,5.148,46.837,8.098,46.478,14.392-9.782,16.369-33.808,36.12-57.421,34.93-23.608-1.19-37.257-15.342-45.125-50.824,2.413-1.305,11.284-2.159,22.188-2.096ZM2916.913,892.771c30.718-.422,67.519,12.569,103.443,50.671-17.271,49.75-167.153,75.306-177.203,1.65-3.037-22.265,28.861-51.716,73.761-52.321h0Z"/>
          <path class="cls-1" d="M1099.477,771.736l22.726,33.059M1121.171,805.836s0,44.42,9.297,45.461M1109.806,875.054c1.031,1.036,23.767,39.262,23.767,39.262M1068.476,924.645c1.031,0,28.933,32.033,28.933,32.033M1121.641,931.827c0,1.031,26.391,50.685,28.458,50.685M1087.08,965.975s9.297,59.925,17.559,57.862M1048.024,1075.784l26.655,40.006M1097.409,1033.135s14.464,56.826,25.825,51.654M1134.575,999.015c1.036,1.031,26.894,38.255,34.119,33.088M1162.501,1046.563l24.793,49.596M1121.171,1084.789c1.031,2.073,20.663,58.898,20.663,58.898M1073.643,1114.758s18.6,63.024,35.132,52.686M1066.413,1198.445s1.031,33.059,17.564,35.122M1095.347,1181.913c0,1.031,16.527,23.767,16.527,23.767M1142.568,1142.598l13.73,21.752M1186.263,1102.362l20.667,25.825M1090.386,806.1c1.031,27.897,45.274-9.825,62.837-33.592M1071.58,902.951s48.56-34.095,85.754-85.754M1056.08,984.575c34.095-9.297,96.827-85.169,109.223-125.463M1048.845,1059.995c9.307,4.131,126.494-80.271,129.598-142.259M1045.751,1125.087c0-1.031,107.127-27.312,151.556-145.094M1039.999,1214.233s171.063-102.574,180.36-177.995M2375.44,1386.481s-11.029,88.527-99.883,101.955M2403.337,1544.562c1.032-1.036,84.718-92.989,63.024-120.886M2597.577,1455.703s-1.032,64.06-53.726,108.485M2701.926,1474.308s2.073,77.484-30.992,108.48M2798.009,1520.795s-37.07,72.566-50.498,79.801M2796.402,1649.4s48.776,12.157,64.271-19.876M2809.048,1754.661s45.091,8.141,65.754-35.247M2804.212,1835.916s36.494,30.66,61.292-9.628M2280.455,1238.888s-4.135,157.045,216.964,189.067c246.934,68.196,363.68,32.033,378.149,308.927-9.297,105.386-22.395,224.415-98.847,178.95M2045.975,1383.555s35.132,63.019,77.488,58.889c55.79-16.532,76.452,17.564,76.452,17.564M1895.134,1446.574s92.989,45.461,172.535-27.897M1905.463,1381.482c8.261,108.485-125.017,170.477-177.712,160.148M1911.781,1797.191c1.036,0,72.202-42.721,57.742-72.691M1770.112,1733.807c2.068-2.073,119.85-13.438,141.549-55.799M1715.354,1560.221c0-1.031,167.167.465,178.527,31.457M1937.491,1461.038s-163.248,278.962,138.445,278.962M1764.946,1456.903s-35.132,104.359-84.723,139.481M1591.374,1420.749s60.62,117.293-.341,175.15M1433.298,1453.808c1.031,2.063,19.626,166.342-21.704,212.834M1354.778,1458.975s6.193,104.349-24.798,141.544c-31.001,37.195,7.259,114.448,7.259,114.448M960.639,1765.134s22.183,38.927,53.184,25.489M998.323,1680.08s49.591,21.694,66.123,13.428M1052.05,1504.436s-73.358,20.663-45.461,107.448c42.357,34.1,83.687,28.929,83.687,28.929M907.402,1873.278c-1.031,0,8.266,68.196,55.794,16.532,33.059-69.218,137.413-264.493,161.18-331.652M1172.931,1526.135s-50.628-39.262-48.555,15.496c-1.041,34.091,15.491,42.357,15.491,42.357,2.063,24.798,23.767,59.92,41.325,27.897,7.235-30.996-5.162-44.429-5.162-44.429M1204.959,1511.661c-45.461-3.099-70.254,97.124,17.568,34.11M1252.487,1477.57s-11.36,15.505-28.929-1.031c-9.302-16.527-42.357,74.394,15.5,77.488,10.329-26.866,42.361-34.095,42.361-34.095M1308.286,1434.178s-25.834,12.397-35.132,10.329c-30.996,7.235-24.803,79.561,14.46,75.425,13.428-15.496,27.897-37.195,27.897-37.195M1064.653,1339.63c-1.036,0-102.531,159.602,56.581,201.963M2352.786,1099.388s-61.993,52.695-4.135,137.413c-192.176-3.094-295.484,85.754-303.75,145.674-244.867-17.559-200.437,54.768-279.998,78.525-106.417-88.854-262.43-39.258-252.096,49.591-71.295-100.219-180.806-51.654-194.234-26.861-13.433,24.798-8.266-122.949-8.266-122.949,0,0-71.29,32.033-120.891,90.921,1.041-39.258,0-103.318,0-123.98-59.575,12.051-117.091,12.732-178.739,11.365M849.501,1293.627s88.849,49.591,198.37-17.564M842.267,1114.888s69.227,61.983,199.411,42.357M885.664,972.303s15.491,50.627,164.279,53.727M936.052,855.222s56.029,68.522,131.45,58.193M983.82,757.402s21.694,37.195,104.349,43.393M1032.37,648.917s43.398,47.528,92.994,39.262M1290.545,262.655s19.219-19.214,51.246-9.609M1276.676,364.068s-59.791-2.135-55.521-25.618c4.279-26.688,62.991-45.907,62.991-45.907,0,0,77.925-50.172,89.669-67.255M1021.528,498.579l75.8,145.185,36.293-54.446,19.219,37.362,30.958-54.441,53.376,34.158-20.284-66.186,44.832-3.2s-11.744-32.028-52.311-38.428c10.679-8.539,48.042-33.098,48.042-33.098,0,0-21.344-24.553-54.441-25.618,10.674-11.744,25.618-40.567,24.553-40.567s-33.098-7.474-33.098-7.474c0,0,75.8,24.553,134.511-9.609M1183.855,264.838c1.065,1.07-4.274,29.893-20.288,46.972M891.35,344.907s46.89-12.905,81.979-5.589c34.757,7.139,81.355,19.463,81.355,19.463,0,0,55.507-7.47,73.66-20.284M774.983,375.865s-6.4,22.414-8.535,37.363c0,10.674-34.167,24.553-34.167,24.553M796.341,329.959s29.888,37.363,30.953,58.711c1.07,21.349-22.414,37.367-22.414,37.367M487.822,585.101l-30.963-50.172,27.758-9.609M1046.878,1277.176c-24.793-32.028,18.595-523.833,110.552-651.925-32.028,231.429,74.389,468.029,101.25,466.998M767.422,487.819s41.843,16.009,128.629-52.695M1013.315,601.48l62.247.768M2944.12,216.005s-1037.16,484.638-1052.272,510.305c175.131-52.844,917.896-176.642,936.03-166.068-43.781,10.569-945.097,217.396-987.363,267.218,224.948-7.546,696.014,72.47,769.942,149.464-160.033-36.23-638.636-107.189-785.054-75.488,107.194,25.666,517.837,291.383,517.837,333.653-61.897-58.874-555.592-262.694-575.214-243.063,113.22,67.932,273.263,320.057,273.253,381.958-33.213-52.839-318.551-359.319-335.154-339.693,30.195,42.28,90.029,404.051,59.44,420.818,0-43.782-110.773-360.432-119.831-369.485-22.649,6.035-163.842,386.329-135.869,421.691-18.115-126.811,3.013-391.491,37.737-380.927-61.892,9.058-259.436,269.521-238.304,310.285,6.04-64.919,14.872-107.976,126.585-323.876-123.798,7.546-380.447,169.096-424.238,226.463,34.729-102.656,252.13-276.285,347.244-288.36M1806.569,673.115c109.622-60.832,448.369-184.975,674.329-276.06M1593.802,1000.479s74.725-1.065,149.455-203.896c73.641-277.532,657.586-587.112,669.34-644.777M605.542,1279.541s-17.343,36.955-38.696,47.634M689.301,1335.542s-23.167,45.01-28.506,66.358M769.456,1357.557s19.439,61.422,3.425,90.25M546.255,1198.085c-58.711,33.098,33.409,242.242,312.031,262.526M813.449,1347.454s-7.47,37.362,44.837,112.092c-14.944,83.264,63.302,148.702,94.265,159.371M791.021,597.013c0-1.065,8.539-22.414,8.539-22.414l9.518,24.678,15.318-.398,10.108-24.745,8.3,24.836h15.222l9.389-27.576,14.186,26.108,12.051.614,9.485-31.807,19.559,22.788,7.105-2.754,6.093-31.817,19.324,22.251,5.541-3.248,8.962-31.356,16.047,23.316,8.084-2.639,7.498-26.348,14.92,24.218M773.846,599.815l116.453-1.732c37.051-.552,98.069-51.908,166.395-35.89M528.399,848.956s19.214,41.637,45.907,18.149M483.567,876.714s-37.367,100.348,7.47,123.822M430.185,765.691s0,23.484,49.107-12.809M277.448,1293.027s39.497,11.744,33.093,41.637M292.368,831.843s24.553,11.744,48.042-24.549M552.851,1986.939c38.428-2.135,46.703,15.217,81.667,15.217,40.279,1.228,79.527-15.217,130.778-29.097M1095.154,2065.938c-1.07,0-18.149,36.293-3.2,54.437M547.492,2069.138s60.856-50.181,92.879-19.214c30.963,10.679,48.037,8.539,48.037,8.539M579.553,1926.102s14.944,38.428-35.232,33.093M529.377,2014.702s32.023,20.293-4.27,46.977M548.591,2097.976s43.767,6.409,18.144,41.632M1962.36,1832.02s118.862,12.301,124.326,21.181c13.673-14.349,119.802-100.319-10.674-112.61-21.852,89.492-111.603,92.797-113.652,91.43h0ZM1920.008,1891.451c44.4,35.52,26.209,56.802,165.574-36.777M1856.476,1935.861s65.581,70.364,113.397-15.035M1731.464,1961.134l-88.801,46.449M1482.802,2073.164s53.971-46.449,79.244-21.857c25.273,24.592,132.525-21.171,132.525-21.171M1523.11,1871.642s18.446,36.888-17.079,41.671M1452.746,1987.093s18.715,34.686-17.491,44.247M1494.417,2081.367s56.02,2.73,36.206,45.082M2018.38,2073.85s-30.742,25.954-8.194,55.339M2464.461,1887.359s35.52,17.074-6.832,46.454M2422.109,1995.292s26.64,28.012,8.88,51.232M2496.57,2102.539s36.883,10.247,32.791,40.989M3012.992,2075.212s-30.742,22.543-14.344,51.923M2465.464,1177.384c73.785-8.885,179.664,155.063,233.626,187.172M3021.824,945.14s37.372,32.623,4.49,111.325M3091.103,819.634c10.396,8.089,50.565,29.524,77.095,79.139M3193.678,574.182c0,.681-51.918,140.042-51.918,140.042M3251.741,567.351s-10.247,124.326-25.273,149.604M3020.384,943.504c-17.271,49.754-167.143,75.214-177.194,1.564-5.109-37.497,88.767-95.335,177.194-1.564Z"/>
          <path class="cls-2" d="M943.56,337.269l57.665,10.674s-40.586,54.446-57.665-10.674Z"/>
        </g>
      </g>
    </g>
  </g>
</svg>