<?xml version="1.0" encoding="utf-8"?>
<!-- Generator: Adobe Illustrator 28.2.0, SVG Export Plug-In . SVG Version: 6.00 Build 0)  -->
<svg version="1.1" id="레이어_1" xmlns="http://www.w3.org/2000/svg" xmlns:xlink="http://www.w3.org/1999/xlink" x="0px"
	 y="0px" viewBox="0 0 138.3 101.7" style="enable-background:new 0 0 138.3 101.7;" xml:space="preserve">
<path d="M42.8,29.3H30.4v18.5h12.3c5.8,0,9.6-3.9,9.6-9.2C52.4,33.1,48.6,29.3,42.8,29.3z M43.5,59.7H30.4v25.4H17.3V17.7h26.2
	c13.9,0,22,9.6,22,20.8C65.5,50.1,57.4,59.7,43.5,59.7z M114.4,77.8c-5.4,5.8-11.9,7.7-18.9,7.7c-7.7,0-13.5-2.7-18.5-7.3
	c-6.6-6.9-6.6-15.4-6.6-27s0-20,6.6-27c5-4.6,10.8-7.3,18.5-7.3c15.4,0,23.5,10.4,25,21.6h-13.1c-1.5-6.2-5.4-9.6-11.9-9.6
	c-3.9,0-6.6,1.2-8.5,3.5c-2.7,2.7-3.5,6.2-3.5,18.9c0,13.1,0.8,16.2,3.5,18.9c1.9,2.3,4.6,3.5,8.5,3.5s6.9-1.2,9.2-3.5
	c2.3-2.7,3.1-5.8,3.1-9.2v-2.3H95.6V47.4H121v10C121,67,119.1,72.8,114.4,77.8L114.4,77.8z"/>
<path d="M134.1,4.2v92.9H4.2V4.2H134.1z M136,0H0v101.7h138.3V0H136L136,0z"/>
</svg>
