<?xml version="1.0" encoding="utf-8"?>
<!-- Generator: Adobe Illustrator 28.2.0, SVG Export Plug-In . SVG Version: 6.00 Build 0)  -->
<svg version="1.1" id="레이어_1" xmlns="http://www.w3.org/2000/svg" xmlns:xlink="http://www.w3.org/1999/xlink" x="0px"
	 y="0px" viewBox="0 0 108.9 81.7" style="enable-background:new 0 0 108.9 81.7;" xml:space="preserve">
<style type="text/css">
	.st0{fill:#FFFFFF;}
</style>
<path class="st0" d="M46.7,60.9V37.8l-7.3,15H34l-7.7-15v23.1h-7.7V21.6h7.7l10.4,21.2l10.4-21.2h7.3v39.3H46.7z M74.5,33.1l-5,14.3
	h10C79.5,47.4,74.5,33.1,74.5,33.1z M83.8,60.9l-2.3-6.9H67.6l-2.7,6.9h-8.1l14.7-39.3h6.2l14.3,39.3C91.9,60.9,83.8,60.9,83.8,60.9
	z"/>
<path class="st0" d="M81.9,2.3c0.8,1.2,23.2,37.4,23.9,38.5C105,42,82.6,78.2,81.9,79.4H26.6C26.3,78.2,3.9,42,2.7,40.8
	C3.9,39.7,26.3,3.5,26.6,2.3H81.9z M82.6,0H25.5L0,40.8l25.5,40.8h57.9l25.5-40.8L83.4,0C83.4,0,82.6,0,82.6,0z"/>
</svg>
