<?xml version="1.0" encoding="utf-8"?>
<!-- Generator: Adobe Illustrator 28.2.0, SVG Export Plug-In . SVG Version: 6.00 Build 0)  -->
<svg version="1.1" id="레이어_1" xmlns="http://www.w3.org/2000/svg" xmlns:xlink="http://www.w3.org/1999/xlink" x="0px"
	 y="0px" viewBox="0 0 105.8 105.6" style="enable-background:new 0 0 105.8 105.6;" xml:space="preserve">
<style type="text/css">
	.st0{fill:#FFFFFF;}
</style>
<path class="st0" d="M69.5,85.1V47.8L57.1,72h-8.5L36.3,47.8v37.4H23.9v-64h12.4l16.6,34.7l16.6-34.7h12.4v63.9L69.5,85.1L69.5,85.1
	z"/>
<path class="st0" d="M4.2,52.8c0-27,22-48.5,48.7-48.5c27,0,48.7,21.6,48.7,48.5c0,26.6-21.6,48.5-48.7,48.5
	C26.3,101.3,4.2,79.4,4.2,52.8L4.2,52.8z M0,52.8c0,28.9,23.9,52.8,52.9,52.8c29.3,0,52.9-23.9,52.9-52.8C105.8,23.5,82.2,0,52.9,0
	C23.9,0,0,23.5,0,52.8L0,52.8z"/>
</svg>
