<?xml version="1.0" encoding="utf-8"?>
<!-- Generator: Adobe Illustrator 28.2.0, SVG Export Plug-In . SVG Version: 6.00 Build 0)  -->
<svg version="1.1" id="Capa_1" xmlns="http://www.w3.org/2000/svg" xmlns:xlink="http://www.w3.org/1999/xlink" x="0px" y="0px"
	 viewBox="0 0 121.4 66.3" style="enable-background:new 0 0 121.4 66.3;" xml:space="preserve">
<style type="text/css">
	.st0{fill:#F77308;}
</style>
<g>
	<path class="st0" d="M29.6,23.3h-0.1L21.1,29v-6.1l8.5-5.9h6.9v33h-6.8V23.3H29.6z"/>
	<path class="st0" d="M57.4,16.2c7.1,0,11.7,4.1,11.7,9.6c0,4.1-2,6.5-7.6,11.9l-6.9,6.6v0.1h15V50h-24v-4.7l11.7-11.1
		c4.2-4,5.1-5.6,5.1-7.9c0-2.7-2-4.7-5-4.7c-3.3,0-5.8,2.2-5.8,5.4h-6.4C45.2,20.7,50.3,16.2,57.4,16.2z"/>
	<path class="st0" d="M91.4,49h-6v-9.3h-8.9v-5.8h8.9v-9.4h6v9.4h8.9v5.8h-8.9V49z"/>
	<path class="st0" d="M108,4.2c5,0,9.2,4.1,9.2,9.2v39.5c0,5-4.1,9.2-9.2,9.2H13.4c-5,0-9.2-4.1-9.2-9.2V13.4c0-5,4.1-9.2,9.2-9.2
		H108 M108,0H13.4C6,0,0,6,0,13.4v39.5c0,7.4,6,13.4,13.4,13.4H108c7.4,0,13.4-6,13.4-13.4V13.4C121.4,6,115.4,0,108,0L108,0z"/>
</g>
</svg>
