<?xml version="1.0" encoding="utf-8"?>
<!-- Generator: Adobe Illustrator 28.2.0, SVG Export Plug-In . SVG Version: 6.00 Build 0)  -->
<svg version="1.1" id="Capa_1" xmlns="http://www.w3.org/2000/svg" xmlns:xlink="http://www.w3.org/1999/xlink" x="0px" y="0px"
	 viewBox="0 0 98.6 67.3" style="enable-background:new 0 0 98.6 67.3;" xml:space="preserve">
<style type="text/css">
	.st0{fill:#52D017;}
</style>
<g>
	<path class="st0" d="M36.9,44.1H20.4v-5.8c2.9-5.5,6.5-11.2,13.3-21.2h9.8v21.4h4.3V44h-4.3v6.1h-6.6V44.1z M26.5,38.8H37V22.1
		h-0.1c-4.8,6.9-7.8,11.6-10.4,16.5C26.5,38.6,26.5,38.8,26.5,38.8z"/>
	<path class="st0" d="M69.2,49.2h-6v-9.3h-8.9V34h8.9v-9.4h6V34h8.9v5.8h-8.9V49.2z"/>
	<path class="st0" d="M85.2,4.2c5,0,9.2,4.1,9.2,9.2v40.5c0,5-4.1,9.2-9.2,9.2H13.4c-5,0-9.2-4.1-9.2-9.2V13.4c0-5,4.1-9.2,9.2-9.2
		H85.2 M85.2,0H13.4C6,0,0,6,0,13.4v40.5c0,7.4,6,13.4,13.4,13.4h71.8c7.4,0,13.4-6,13.4-13.4V13.4C98.6,6,92.6,0,85.2,0L85.2,0z"/>
</g>
</svg>
