<?xml version="1.0" encoding="utf-8"?>
<!-- Generator: Adobe Illustrator 28.2.0, SVG Export Plug-In . SVG Version: 6.00 Build 0)  -->
<svg version="1.1" id="레이어_1" xmlns="http://www.w3.org/2000/svg" xmlns:xlink="http://www.w3.org/1999/xlink" x="0px"
	 y="0px" viewBox="0 0 145.9 156.4" style="enable-background:new 0 0 145.9 156.4;" xml:space="preserve">
<style type="text/css">
	.st0{fill:#FFFFFF;}
</style>
<path class="st0" d="M51.3,14.4c-4.6-3.1-10.1-4.8-15.7-4.9c-12.9,0-16.6,10.3-16.6,21.7c0,13,6.3,23.5,20.3,23.5
	c7.3,0,14-2.7,20.3-6.1L55,62.3c-6.1,1.7-12.4,2.2-18.7,2.2c-9.6,0-17.7-1.6-25.2-8.1C3.9,50.3,0,41.5,0,31.9
	c0-8.6,3.7-17.7,10.3-23.6C17.4,2.3,27.3,0,36.5,0l14.2,1.2L51.3,14.4L51.3,14.4z M83.1,68.8c3.1,1.3,6.6,1.4,9.9,1.4
	c5.3,0,10.2-0.9,13.7-5.2h0.5l-3.8,14.2H61.8v-0.3c4.6-2.9,3.9-8.2,3.9-13V30.7c0-4.9,0.7-10.2-3.9-13v-0.3h32.9
	c1.4,0,2.9,0,3.9-0.5h0.3v13.6h-0.3c-2.5-4.4-7.9-3.9-12.5-3.9h-3v15.2h8.7c1.3,0,2.6-0.1,3.5-0.5h0.5v13.1h-0.5
	c-1.3-3.8-5.7-3.4-9.1-3.4h-3.1L83.1,68.8L83.1,68.8z"/>
<path class="st0" d="M43.2,111l10.9,20.5c3.3,5.8,6.3,6.7,12.6,6.3l13-0.9c-3.8-3.1-6.5-7.1-9-11.3l-11.2-18.7
	c6.2-2.7,11.2-7.8,11.2-14.8c0-6.3-2.8-11.3-8.4-14.3c-4.2-2.2-8-2.1-12.6-2.1H21.9v0.3c4.6,2.9,4,8.2,4,13.1v35
	c0,4.9,0.7,10.2-4,13.1v0.3h25.3v-0.3c-4.6-2.9-3.9-8.2-3.9-13.1L43.2,111L43.2,111z M44.2,84.8c1.9,0,3.9,0.2,5.5,1.3
	c2.5,1.8,3.8,5,3.8,8c0,5.9-4.4,10.9-10.1,11.9V84.8L44.2,84.8"/>
<path class="st0" d="M76.4,124.1c0,19.8,14.9,32.3,34.2,32.3c19.1,0,35.3-11.9,35.3-32.4c0-20.7-14.5-32.1-34.2-32.1
	C92.7,91.8,76.4,104.1,76.4,124.1L76.4,124.1z M94.6,121.5c0-9.7,4.9-20.3,16-20.3c12.9,0,17.1,15.3,17.1,26c0,4.6-0.6,9.4-3.5,13.1
	c-3,4-7.5,6.6-12.5,6.6c-5.3,0-10.1-3.6-12.7-8.1C96.4,134.2,94.6,127,94.6,121.5"/>
</svg>
