<?xml version="1.0" encoding="utf-8"?>
<!-- Generator: Adobe Illustrator 28.2.0, SVG Export Plug-In . SVG Version: 6.00 Build 0)  -->
<svg version="1.1" id="레이어_1" xmlns="http://www.w3.org/2000/svg" xmlns:xlink="http://www.w3.org/1999/xlink" x="0px"
	 y="0px" viewBox="0 0 105.9 110.3" style="enable-background:new 0 0 105.9 110.3;" xml:space="preserve">
<style type="text/css">
	.st0{fill:#FFFFFF;}
</style>
<path class="st0" d="M105.9,110.3H0V75.1l32.2-33.5H1.8V0h102.3v35.3L72,68.7h33.9V110.3z M21.1,89.2h2L83,26.8v-5.6h-1.8l-60,62.4
	V89.2z"/>
<path d="M100.6,105H5.3V77.2l39.3-40.9H7.1v-31h91.7v27.9L59.6,74h41V105z M15.9,94.5h74.2v-9.9H34.8l53.4-55.7v-13H17.7v9.9h51.7
	L15.9,81.4V94.5z"/>
<path d="M47.2,79.3h48.1v20.5H10.6V79.3L57,31H12.4V10.6h81.1V31L47.2,79.3z"/>
<path class="st0" d="M45.5,79.3h48.1v20.5H8.8V79.3L55.2,31H10.6V10.6h81.1V31L45.5,79.3z"/>
</svg>
