<?xml version="1.0" encoding="utf-8"?>
<!-- Generator: Adobe Illustrator 28.2.0, SVG Export Plug-In . SVG Version: 6.00 Build 0)  -->
<svg version="1.1" id="레이어_1" xmlns="http://www.w3.org/2000/svg" xmlns:xlink="http://www.w3.org/1999/xlink" x="0px"
	 y="0px" viewBox="0 0 155.7 136.8" style="enable-background:new 0 0 155.7 136.8;" xml:space="preserve">
<style type="text/css">
	.st0{fill:#FFFFFF;}
</style>
<path class="st0" d="M22.8,9.6c-0.3,0.5-0.7,1-1.2,1.5h-1.7V9.6H22.8z M15.2,28.3c-0.7,0-4.2,0.1-5.1,0.1c2.3-1.2,3.2-1.7,3.8-2.1
	h4.6c-0.5,0.5-0.8,0.8-1,1c-0.7,0.6-0.8,0.7-1,0.9C15.7,28.3,15.6,28.3,15.2,28.3 M44.2,14c0.1,1.4,0.2,4.5-1.5,8.9
	c-0.4-0.9-1.4-2.7-2.3-6.1c0.3-0.5,0.7-1.2,1.6-2.9H44.2 M29.2,19.7h-6.3c0.4-0.4,0.8-0.7,1.6-1.5h3.9L29.2,19.7 M32.9,44.3
	c1.9-1,5.2-2.8,9.3-6.3c2.8,3.1,5.6,5.1,7.6,6.4l5.9-8.7c-2.8-1.1-5.3-2.7-7.5-4.8c2-3.2,4-8.9,4.6-16.9h1.9V5.2h-10
	c0.5-1.9,0.6-3.1,0.9-4.7l-9.1-0.3c-0.6,4.3-2.1,8.5-4.3,12.2V11h-1.8c2.1-2.9,3.4-5.1,4.7-7.3l-7.8-3.4c-0.4,0.8-0.8,1.7-1.3,2.5
	H21V0.1h-8.9v2.7H5.7v7h6.5V11H4.9v7.2h6.9c-4,2.5-6.2,3.2-7.8,3.7l3.8,6.6H4.5l0.5,7.7c2.5,0,4.8-0.1,10.2-0.4c0,0.6,0,0.7-0.1,0.8
	c-0.2,0.3-0.8,0.5-1.4,0.5h-5l1.4,7.3h10.4c1.1-0.2,2.1-0.8,2.8-1.7c0.6-0.9,0.6-2.4,0.6-3.1v-4.3c1.1-0.1,6-0.4,7-0.5
	c0.4-0.1,0.7-0.1,0.9-0.1c-1.9,1-3.4,1.5-4.8,1.9L32.9,44.3 M33,26.5l1.5-1.6c1.1,3.3,2,5.1,2.6,6c-2,1.9-3.6,2.9-5.1,3.7v-7.1
	c-1.8,0.1-3.4,0.3-5.5,0.4c2.4-1.5,2.5-1.8,3-2.4v-5.2L33,26.5 M88.8,9.4c0.9,0.5,1.3,0.6,2.3,1.1c-2.7,0.1-6.2,0.2-7.8,0.2
	c1-1.3,1.2-1.5,1.7-2.1h5.5L88.8,9.4L88.8,9.4z M96.7,23.8v1.3H78.2v-1.3H96.7 M68.2,18.4v26h9.9v-8.2h18.5c0,0.9,0,1.2-1.1,1.2h-7
	l1.5,7h12.1c2.9,0,4.4-1.4,4.4-3.9V18.4h-1.7l7.1-4.1c-2.4-1.9-3.7-2.7-8.6-5.6h8.9V1.8H92.5V0H82.4v1.8H62.5v6.9h11.7
	c-0.4,0.6-0.5,0.7-1.5,2.1h-6.4c-0.6,0-1.1,0-2.7,0l0.5,7.1c3.4-0.1,19.5-0.4,20.9-0.5c4.1-0.2,10.8-0.5,15-0.7
	c1.2,1.1,1.5,1.4,1.9,1.8L68.2,18.4 M96.7,30v1.3H78.2V30H96.7 M142.1,22.2c0-4.4-4.1-8.1-9.1-8.1c-5.1,0-9.2,3.7-9.2,8.1
	c0,4.5,4.1,8.1,9.2,8.1C137.9,30.3,142.1,26.7,142.1,22.2z M46.2,55.4c-0.6-2.4-1.4-4.7-2.3-6.9l4.8-0.5c0.7,1.3,1.4,2.9,2.4,6.8
	L46.2,55.4L46.2,55.4z M48.4,62.3v8.5h-16v0.8c0,0.8-0.5,5.3-2,8.3c-2.3,4.7-6.4,7.3-12.8,9.3c-3.6,1.2-6.1,1.6-8.4,2L5,82.9
	c9.8-1.3,13.9-3,15.4-6.3c0.7-1.6,1.2-4,1.3-5l0.1-0.8H3.6v-8.5H48.4 M39.1,55.4c-0.4-2.3-1.1-4.5-1.9-6.7l4.6-0.4
	c1.1,2.1,1.8,4.3,2.3,6.6L39.1,55.4 M36.2,50.8c0.7,1.9,1.2,3.9,1.5,6l4.7-0.5V59H7.2v-8.2H36.2 M100.8,65.4v9.3h-46v-9.3H100.8z
	 M126.1,65.6c4.5,1.5,6.8,2.5,9.8,4.3c1.6-2.2,2.7-4.1,3.9-7.4H127c-6.7,7-11.3,9.2-14.3,10.6l-6.4-6.4c9.6-4.7,14.1-10,17.4-17.8
	l11.5,1c-0.7,2-1,2.7-1.9,4.4h19.1c-0.6,4.8-2,14.7-11,23.9c-6.5,6.7-16,10.8-26.6,13l-5.7-8.2c3.1-0.3,10.6-1,19.7-6.7
	c-2.2-1.4-6.3-3.1-9.5-4.6L126.1,65.6L126.1,65.6z M48.6,100.2c-1.5-2.2-3.3-4.2-5.3-5.9l-4.5,2.3c2,1.8,4,4.4,5.2,6.2L48.6,100.2
	L48.6,100.2z M7.6,124.3c0.6-0.7,1.4-1.4,2.4-2.7c0.2-0.2,5.2-6.6,5.9-7.4c2.8-3.6,3.1-3.7,3.9-3.7c0.8,0,1.5,0.7,2.7,1.9
	c0.2,0.1,16.6,18.1,19.8,21.5l7.8-8.8c-1.1-1-2.2-2-3.2-3c-2.5-2.5-14.7-15-17.6-17.7c-4.7-4.7-6.1-5.6-9-5.6c-4.1,0-5.9,2-13,9.7
	c-3.5,3.9-5.9,6.1-7.2,7.5L7.6,124.3 M41.8,103.7c-1.5-2.3-3.2-4.3-5.2-6.2l-4.3,2.1c2.2,2.6,4.2,5.7,4.9,6.7L41.8,103.7
	 M101.3,110.7v9.3h-46v-9.3H101.3z M107.1,128.8c2.6-0.8,8.9-2.7,17.1-10c6.7-6,8.8-10.8,10-13.4h-23.9v-8.6h37.5
	c-1.1,6.1-2.9,12-8.9,20.1c6,3.6,11.6,7.8,16.7,12.4l-8.7,7.4c-4.5-4.6-9.3-9-14.3-13c-9.4,8.7-16.5,11.4-19.9,12.6L107.1,128.8z"/>
</svg>
