<?xml version="1.0" encoding="utf-8"?>
<!-- Generator: Adobe Illustrator 28.2.0, SVG Export Plug-In . SVG Version: 6.00 Build 0)  -->
<svg version="1.1" id="레이어_1" xmlns="http://www.w3.org/2000/svg" xmlns:xlink="http://www.w3.org/1999/xlink" x="0px"
	 y="0px" viewBox="0 0 159.5 130.6" style="enable-background:new 0 0 159.5 130.6;" xml:space="preserve">
<style type="text/css">
	.st0{fill:#FFFFFF;}
</style>
<path class="st0" d="M36.8,9.5c-3.1-2.1-6.7-3.2-10.4-3.2c-8.5,0-11,6.8-11,14.4c0,8.6,4.2,15.6,13.4,15.6c4.9,0,9.3-1.8,13.4-4
	l-3.1,9.1c-4,1.1-8.2,1.6-12.4,1.5c-6.3,0-11.7-1.1-16.7-5.4c-4.8-4.1-7.3-9.9-7.3-16.2c0-5.7,2.4-11.8,6.8-15.6
	C14.3,1.5,20.9,0,27,0l9.4,0.8L36.8,9.5L36.8,9.5z M57.7,35c2.1,0.8,4.3,0.9,6.5,0.9c3.5,0,6.7-0.6,9.1-3.4h0.3l-2.5,9.4H43.5v-0.2
	c3-1.9,2.6-5.4,2.6-8.6V9.8c0-3.2,0.4-6.8-2.6-8.6V1h21.8c0.9,0,1.9,0,2.6-0.3h0.2v9h-0.2c-1.7-2.9-5.2-2.6-8.3-2.6h-2v10.1h5.8
	c0.8,0,1.6-0.1,2.3-0.3h0.3v8.7h-0.3c-0.9-2.5-3.7-2.2-6-2.2h-2.1V35L57.7,35z M88.8,24.4L96,38c2.2,3.9,4.2,4.4,8.3,4.2l8.6-0.6
	c-2.5-2.1-4.3-4.7-6-7.5l-7.4-12.4c4.1-1.8,7.4-5.2,7.4-9.8c0-4.2-1.9-7.5-5.5-9.5C98.6,0.9,96.1,1,93.1,1H74.6v0.2
	c3.1,1.9,2.6,5.5,2.6,8.7V33c0,3.2,0.4,6.8-2.6,8.7v0.2h16.8v-0.2c-3.1-1.9-2.6-5.5-2.6-8.7L88.8,24.4L88.8,24.4z M89.4,7
	c1.2,0,2.6,0.1,3.6,0.9c1.7,1.2,2.5,3.3,2.5,5.3c0,3.9-2.9,7.2-6.7,7.9V7H89.4z M133,0c-12.6,0-23.4,8.1-23.4,21.3
	c0,13.1,9.9,21.4,22.7,21.4c12.6,0,23.4-7.9,23.4-21.5C155.6,7.6,146,0,133,0z M141.2,32.2c-2,2.7-5,4.4-8.3,4.4
	c-3.6,0-6.7-2.4-8.4-5.4c-1.7-3.1-2.9-7.9-2.9-11.5c0,0,0,0,0,0v0v0c0-6.4,3.2-13.4,10.6-13.4c8.5,0,11.3,10.1,11.3,17.2
	C143.5,26.5,143.1,29.7,141.2,32.2z"/>
<path class="st0" d="M28.1,81.8v1.3h-6.5v-1.3H28.1z M17.3,81.8v1.3h-6.5v-1.3H17.3z M28.1,76.6v1.3h-6.5v-1.3H28.1z M17.3,76.6v1.3
	h-6.5v-1.3H17.3z M17,69v3.2h4.5v-3.1c1.2,1.1,2.6,2.3,4.2,3.6H12.5C14,71.8,15.5,70.5,17,69z M17,61.2v3.1h-2.9
	c-0.5-1-1.1-2-1.8-2.9C14.2,61.4,15.7,61.3,17,61.2z M25.9,60.9c-0.1,0.7-0.3,1.3-0.7,1.9c-0.2,0.5-0.5,1-0.8,1.5h-2.9v-3.2
	C23,61.1,24.4,61,25.9,60.9L25.9,60.9z M31.6,59.4l-2-2.8h2.9v3.9h4.5v-7.8H21.7v-1.5c0.3-0.2,0.5-0.4,0.6-0.7
	c0.2-0.5-0.2-0.8-1.3-0.8h-4.2v2.9H1.6v8.3h4.5v-2.6l0.7,3.1h3.4l-2.1,1c0.4,0.6,0.8,1.2,1.1,1.8H1.1v3.9H12
	c-2.7,2.4-5.9,4.3-9.4,5.3c-0.9,0.3-1.7,0.6-2.6,0.8l1.6,4.4c1.6-0.7,3.2-1.4,4.7-2.3v12.2h4.5V87H28v0.8h4.5V76.5
	c1.3,0.7,3,1.3,5,1.8l1.5-4.5c-5.9-1.4-10.1-3.2-12.5-5.5h11.2v-3.9H29c0.2-0.5,0.5-1,0.8-1.5c0.2,0,0.4-0.1,0.5-0.2
	c0.5-0.3,0.4-0.7-0.5-1.1l-2.1-0.8l2.6-0.5c0.6,0.3,1.1,0.4,1.3,0.2C31.9,60.2,31.9,59.9,31.6,59.4L31.6,59.4z M6.2,56.7h22.7
	c-7,1-14.6,1.3-22.7,1V56.7z M65.7,81.5v1.8H53.3v-1.8H65.7z M65.7,76.3v1.3H53.3v-1.3H65.7z M65.7,71.1v1.3H53.3v-1.3H65.7z
	 M61.1,50.2h-3.9v3.9H42.3v4.2h13.3c-4,4-9.2,7.1-15.6,9.4l1.9,4.2c2.7-1,5-2.1,6.8-3.4v14.8h-7.3v3.9H78v-3.9h-7.8V67.7
	c2.5,1.4,4.9,2.5,7.3,3.4l1.6-4.5c-4.1-1.2-8.1-3-11.7-5.4c-1.3-0.9-2.5-1.8-3.6-2.9h12.8v-4.2H61.8v-2.6
	C62.6,50.7,62.4,50.3,61.1,50.2L61.1,50.2z M61.8,61.6c2.5,2.3,4.9,4.2,7.3,5.7H50.9c2.4-1.6,4.5-3.4,6.3-5.2v4.7h4.5V61.6
	L61.8,61.6z M111.9,54c0.9,1,0.7,1.4-0.6,1.3l-9.1,6l2,1.3l-2,1.3h10.1l1-1l2.9,2.9c0.5,0.6,0.8,1.1,0.6,1.3
	c-0.1,0.2-0.3,0.3-0.5,0.2c-3.3,3.3-6.9,6.7-10.7,10l-3.4-2.9c3.4-2.7,5.8-4.8,7.5-6.3H101V84c0,0.4-0.1,0.9-0.2,1.3
	c-0.4,1.4-1.5,2.1-3.1,2.1h-4.7l-0.5-4.5h2.9c0.4,0,0.7-0.1,0.8-0.3c0.1-0.3,0.2-0.5,0.2-0.8V68.1H81.1v-4.2h16.5
	c-2.6-1.6-5.2-3.1-7.9-4.5l3.1-3.2l5.5,2.9l5-3.4H84.1v-4.2h23.7l0.8-0.8L111.9,54L111.9,54z M148.1,66.7h-9.4v4.9H150v4.2h-11.3
	v6.6c0.7,0.1,1.5,0.2,2.4,0.3h13.3l-0.6,4.5h-13c-1.1,0-2.1-0.1-3.1-0.3c-3.8-0.9-7.2-3-9.7-6c-1.5,3.1-4,5.7-7.5,7.8l-3.1-3.9
	c3.1-1.6,5.3-3.7,6.5-6.2c1.2-2.6,1.9-5.9,2.1-9.9l4.2,1.3c0.3,0.1,0.6,0.3,0.8,0.5c0.1,0.2,0.2,0.4,0.2,0.5
	c-0.1,0.2-0.4,0.4-0.8,0.6c-0.3,1.8-0.6,3.6-1,5.3c0.2,0.3,0.5,0.6,0.8,1c1.1,1.1,2.4,2,3.9,2.8V66.7h-10.1v-4.2h24L148.1,66.7
	L148.1,66.7z M139.2,50.8c-0.2,0.3-0.4,0.5-0.6,0.7v3.2h14.9V64h-4.5v-5h-25.6v5.3h-4.5v-9.6h14.9V50h4.2
	C138.9,50,139.4,50.3,139.2,50.8L139.2,50.8z"/>
<path class="st0" d="M27.8,109c-1.8,3.2-4.1,6.1-6.8,8.6c-3.6,3.4-8.3,6.6-14.3,9.9c-0.2,0.1-0.4,0.3-0.5,0.4
	c-0.3,0.3-0.5,0.4-0.6,0.4c-0.2,0-0.5-0.2-0.9-0.7l-3-3.9c-0.3-0.5-0.5-0.8-0.5-0.9c0-0.1,0.1-0.3,0.2-0.7c0.2-0.4,0.2-0.9,0.2-1.3
	l0.2-20.7c0-1.4-0.1-2.8-0.4-4.2l5.8,0.8c0.7,0.1,1,0.3,1,0.7c-0.1,0.2-0.1,0.5-0.3,0.7c-0.2,0.4-0.3,0.8-0.3,1.3
	c0,1.1,0,4.2-0.1,9.4c0,5.2-0.1,7.7-0.1,7.8c0,1,0.3,1.6,0.8,1.6c0.3,0,1.1-0.4,2.5-1.3c1.6-1,3.1-2.1,4.6-3.3
	c1.6-1.3,3.1-2.8,4.6-4.7c1.4-1.7,2.5-3.3,3.2-4.7L27.8,109L27.8,109z M48.6,119.2c-0.2,0-0.5,0-0.7,0H27.1c-0.3,0-0.7,0-1,0.1v-5.9
	c0.3,0,0.6,0.1,1,0.1h20.8c0.2,0,0.5,0,0.7,0V119.2L48.6,119.2z M79,111.2l-11.1,0.3c0.1,1.3,0.1,2.2,0.1,2.7
	c0,4.2-1.3,7.6-3.8,10.2c-1.8,1.8-4.5,3.6-8.1,5.4l-4.5-5.8c3.2-1,5.6-2.2,7.1-3.7c2-2.1,2.9-5,2.8-8.7l-11.4,0.7l-0.2-6.3l28.6-1
	L79,111.2L79,111.2z M74.6,101.9l-20.3,0.6l-0.1-6L74.4,96L74.6,101.9z M98.6,107.6c0,0.2-0.2,0.4-0.6,0.5c-0.3,0.1-0.6,0.3-0.9,0.5
	c-1.7,1.8-3.5,3.4-5.4,4.9v16.1l-4.6,0v-12.7c-2.5,1.6-5.1,3.1-7.9,4.2l-2.8-4.2c3.3-1.3,6.4-2.9,9.4-4.8c4.1-2.7,7.2-5.4,9.2-8.2
	l3.1,3.1C98.4,107.3,98.6,107.5,98.6,107.6L98.6,107.6z M127.1,108.3c-3.6,4.5-7.7,8.7-12.3,12.3c-4.2,3.3-8.2,5.7-12.1,7.2
	c-0.2,0.2-0.4,0.4-0.5,0.7c-0.2,0.4-0.4,0.6-0.6,0.6c-0.3,0-0.6-0.3-0.8-0.9l-2.6-6.5c3.7-0.4,7.9-2.5,12.7-6.2
	c4.7-3.8,9-8.1,12.6-12.9L127.1,108.3L127.1,108.3z M111.4,103.2l-3,5.3c-1.5-1.4-3.1-2.7-4.8-3.8c-1.7-1.2-3.4-2.4-5.2-3.4l2.8-5.3
	C103.6,97.3,107,99.7,111.4,103.2L111.4,103.2z M157,102c0,0.2-0.1,0.4-0.4,0.6c-0.2,0.2-0.4,0.4-0.4,0.6c-2.5,5.4-5.5,10.6-9,15.5
	c-3,4.1-6.7,8.1-11,12l-4.8-4.4c3.9-3.3,7.4-7,10.6-11c3.2-4.1,5.4-7.6,6.6-10.7l-8,0.9c-3,4.8-6.2,8.7-9.7,11.7l-4.2-4.3
	c2-1.6,4-3.9,6.3-6.9c2.8-3.8,5-7.8,6.5-12l5.6,2.2c0.4,0.2,0.6,0.4,0.6,0.7c0,0.2-0.2,0.4-0.6,0.6c-0.6,0.4-1,1-1.2,1.7l6.8-0.7
	c0.2,0,0.4-0.2,0.7-0.5c0.3-0.3,0.5-0.4,0.6-0.4c0.3,0,0.7,0.3,1.3,0.8l0.5,0.4c-0.5-0.8-1.1-1.6-1.7-2.5l1.8-1.5
	c0.6,0.7,1.6,2.2,3.1,4.4l-1.3,1.2l0.7,0.6C156.8,101.5,157,101.8,157,102L157,102z M159.5,97.1l-1.8,1.7c-0.9-1.6-2-3.1-3.1-4.6
	l1.8-1.5C157,93.4,158,94.9,159.5,97.1L159.5,97.1z"/>
</svg>
