<?xml version="1.0" encoding="utf-8"?>
<!-- Generator: Adobe Illustrator 28.2.0, SVG Export Plug-In . SVG Version: 6.00 Build 0)  -->
<svg version="1.1" id="레이어_1" xmlns="http://www.w3.org/2000/svg" xmlns:xlink="http://www.w3.org/1999/xlink" x="0px"
	 y="0px" viewBox="0 0 112.3 115.1" style="enable-background:new 0 0 112.3 115.1;" xml:space="preserve">
<style type="text/css">
	.st0{fill:#FFFFFF;}
</style>
<path class="st0" d="M57.2,115.1c-15.8,0-30.1-5.2-40.3-14.7C5.9,90.2,0,75.7,0,58.4C0,24,23.5,0,57.1,0c7.4,0,25.9,1.4,39.5,14.6
	c8,7.8,12.8,18.2,14.3,30.8l1.4,11.5l0,0.1l0,0.1h0l-0.8,11.1c-0.4,5.4-1.4,19.6-15.3,32.5C86,110.3,72.9,115.1,57.2,115.1z
	 M82.5,78.1c-0.6,1.7-1.4,3.5-2.7,5.3l-0.1,0.1c-4.6,6.4-10.4,8.9-15.2,9.9c6.9-1.1,12.5-3.7,17.2-8.1c2.6-2.4,4.4-4.9,5.7-7.2H82.5
	z M52.5,21.4C33,23.2,21.1,37.1,21.1,58.4c0,22.5,13.8,32.6,28.8,35c-6.5-1.4-11.5-4.8-15.6-10.7l-0.2-0.3
	c-3.5-5.3-5.8-14.3-5.8-23.2c0-4.3,0.4-18.9,6-26.8C38.7,26,44.9,22.3,52.5,21.4z M51.6,70.7c1.2,1.7,1.8,2.3,5.6,2.3
	c3.6,0,4.5-0.7,5.2-1.7c0.3-0.6,0.5-2.9,0.7-4.7l1-9.4h-0.2l-0.8-9.7c-0.3-3.2-1-4.4-1.3-4.6c-0.4-0.3-1.6-0.7-5.3-0.7
	c-3.2,0-4,0.9-4.9,2.3l-0.1,0.2c-1.1,1.8-2.1,8.9-2.1,14.6C49.4,64.8,50.9,69.5,51.6,70.7z M82.1,36.1h4.5c-1.2-2.4-2.8-4.5-4.6-6.3
	C76,24,67.7,22.1,62.1,21.4C73.6,22.9,79.4,29.1,82.1,36.1z"/>
<path d="M57.2,109.8c-31.1,0-52-20.7-52-51.4c0-31.8,20.8-53.1,51.8-53.1c6.7,0,23.6,1.3,35.8,13.1c7.1,6.9,11.4,16.2,12.7,27.7
	l0.7,5.9H68.8l-0.4-4.9C67.7,38.4,64.2,37,56.6,37c-4.4,0-7.1,1.3-9.3,4.6l-0.1,0.1c-1.9,2.7-3.1,11.3-3.1,17.7
	c0,6.6,1.8,12.3,3.1,14.3c2.6,3.6,4.9,4.7,10,4.7c4,0,7.2-0.7,9.6-4c0.9-1.3,1.1-2.8,1.6-7.1l0.5-4.9h37.7l-0.4,5.7
	c-0.4,5.3-1.3,17.6-13.6,29C83.4,105.5,71.5,109.8,57.2,109.8z M57.1,15.9c-25.1,0-41.3,16.7-41.3,42.6c0,24.8,16.2,40.8,41.4,40.8
	c11.5,0,20.9-3.4,28.1-10c6.2-5.8,8.6-11.8,9.6-16.4H78.4c-0.4,2.7-1.2,5.1-2.9,7.5c-5.5,7.6-13,8.5-18.2,8.5
	c-8.5,0-14.1-2.7-18.7-9.2l-0.1-0.1c-2.9-4.4-4.9-12.5-4.9-20.2c0-2.8,0.2-17,5.1-23.8c4.2-6.1,10.1-9.1,18-9.1c4.7,0,18,0,21.6,15
	h15.9C92.6,35.1,89.7,30,85.6,26C75.9,16.6,61.4,15.9,57.1,15.9z"/>
<path d="M73.7,46.7c-1.1-13.6-9.3-15-17-15c-6.1,0-10.4,2.1-13.7,6.9c-3.5,4.9-4.1,16.9-4.1,20.8c0,7,1.8,14,4,17.3
	c3.6,5.1,7.6,7,14.4,7c4.4,0,9.9-0.7,13.9-6.2c1.8-2.6,2.1-5.1,2.5-9.8h27.2c-0.4,4.9-1.2,15.6-12,25.6
	c-7.1,6.6-17.3,11.4-31.7,11.4c-26.1,0-46.7-16.2-46.7-46.1c0-28.5,18.4-47.9,46.6-47.9c9.9,0,23.1,2.8,32.2,11.6
	c9.1,8.8,10.6,20.3,11.1,24.5H73.7L73.7,46.7z"/>
<path class="st0" d="M71.9,46.7c-1.1-13.6-9.3-15-17.1-15c-6,0-10.4,2.1-13.7,6.9c-3.5,4.9-4.1,16.9-4.1,20.8c0,7,1.8,14,4,17.3
	c3.6,5.1,7.6,7,14.4,7c4.4,0,9.9-0.7,13.9-6.2c1.8-2.6,2.1-5.1,2.5-9.8h27.2c-0.4,4.9-1.2,15.6-12,25.6
	c-7.1,6.6-17.3,11.4-31.7,11.4c-26.1,0-46.7-16.2-46.7-46.1c0-28.5,18.4-47.9,46.6-47.9c9.9,0,23.1,2.8,32.2,11.6
	c9.1,8.8,10.6,20.3,11.1,24.5H71.9L71.9,46.7z"/>
</svg>
