<?xml version="1.0" encoding="utf-8"?>
<!-- Generator: Adobe Illustrator 28.2.0, SVG Export Plug-In . SVG Version: 6.00 Build 0)  -->
<svg version="1.1" id="레이어_1" xmlns="http://www.w3.org/2000/svg" xmlns:xlink="http://www.w3.org/1999/xlink" x="0px"
	 y="0px" viewBox="0 0 126.9 110.4" style="enable-background:new 0 0 126.9 110.4;" xml:space="preserve">
<style type="text/css">
	.st0{fill:#FFFFFF;}
</style>
<path class="st0" d="M126.8,110.4H76.7l-3.9-11.9H53.9l-3.8,11.9H0L41.9,0.2h21.3l0-0.2l0,0.2h21.6L126.8,110.4z M92,89.2h4.1
	l-25.8-68h-0.2l19.4,60.2h-0.1L92,89.2z M30.6,89.2h4l3.8-11.9h0.1l17.9-56.1h0L30.6,89.2z"/>
<path d="M119.1,105.1H80.5l-3.9-11.9H50l-3.8,11.9H7.7L45.5,5.4h35.7L119.1,105.1z M88.2,94.5h15.6L74,16H52.8L23,94.5h15.6
	l3.8-11.9h42.1L88.2,94.5z M82.3,76.2H44.5l18.8-58.9L82.3,76.2z M59,65.6h8.9l-4.5-13.8L59,65.6z"/>
<path d="M80.5,88l3.9,11.9h27.1L77.6,10.7H49.2L15.3,99.8h27.1L46.2,88H80.5 M51.7,70.9l11.6-36.3l11.7,36.3H51.7L51.7,70.9z"/>
<path class="st0" d="M78.8,88l3.9,11.9h27.1L75.8,10.7H47.4L13.6,99.8h27.1L44.4,88H78.8 M50,70.9l11.6-36.3l11.7,36.3H50L50,70.9z"
	/>
</svg>
