<?xml version="1.0" encoding="utf-8"?>
<!-- Generator: Adobe Illustrator 28.2.0, SVG Export Plug-In . SVG Version: 6.00 Build 0)  -->
<svg version="1.1" id="레이어_1" xmlns="http://www.w3.org/2000/svg" xmlns:xlink="http://www.w3.org/1999/xlink" x="0px"
	 y="0px" viewBox="0 0 108.8 110.3" style="enable-background:new 0 0 108.8 110.3;" xml:space="preserve">
<style type="text/css">
	.st0{fill:#FFFFFF;}
</style>
<path class="st0" d="M68.5,110.3H0V0h66.2c23,0,39,13.8,39,33.5c0,6.3-1.9,12.2-5.3,17c5.8,6,8.9,14,8.9,23
	C108.8,94.9,91.9,110.3,68.5,110.3z M21.1,89.2h6.3l0-68.1h-6.3V89.2z M78.9,62.1c1.3,2.8,1.9,5.8,1.9,8.7c0,8.4-4.6,15.2-11.8,18.5
	c9.4-0.2,18.7-5,18.7-15.6c0-6.4-3.4-8.9-4.5-9.7L83,63.8C82,63.1,81.5,62.7,78.9,62.1z M68.8,21.2c5.8,3.3,8.7,9.7,8.7,16
	c0,1.5-0.1,2.9-0.4,4.3l0.2-0.1c2.5-0.8,3.1-1.1,4-1.8c1.8-1.5,2.7-3.5,2.7-6.1C84.1,25.3,76.6,21.8,68.8,21.2z"/>
<path d="M68.5,105H5.3V5.3h60.9c19.8,0,33.7,11.6,33.7,28.2c0,8.9-4.3,14.5-7.5,17.5c0,0,0,0,0,0c9.2,6.6,11.1,15.9,11.1,22.5
	C103.5,91.8,88.8,105,68.5,105z M15.9,94.5h52.7c11.8,0,24.5-6.6,24.5-20.9c0-6.1-2.3-10.8-6.7-14c-1.9-1.4-3.2-2-7-2.9l-18.7-4.5
	l18.4-5.7c2.8-0.9,4.1-1.4,5.7-2.8c1.8-1.4,4.7-4.6,4.7-10.3c0-10.7-9.1-17.7-23.1-17.7H15.9V94.5z M58.5,86.1H32.7V56.4h25.7
	c15.8,0,17,11,17,14.3C75.5,79.9,68.6,86.1,58.5,86.1z M43.3,75.6h15.2c2.9,0,6.5-0.8,6.5-4.8c0-1.6,0-3.8-6.5-3.8H43.3V75.6z
	 M59.6,51.9H32.7V24.2h26.8c8.7,0,12.7,6.7,12.7,13C72.2,45.6,66.8,51.9,59.6,51.9z M43.3,41.3h16.2c1,0,2.1-1.6,2.1-4.1
	c0-2.4-1.3-2.4-2.1-2.4H43.3V41.3z"/>
<path d="M38,61.7h20.4c6.4,0,11.7,2.1,11.7,9c0,7.2-5.8,10.1-11.7,10.1H38V61.7 M68.5,99.8c15.8,0,29.7-9.6,29.7-26.2
	c0-5.9-1.8-13.2-8.9-18.3c-2.7-2-4.7-2.7-8.8-3.7c3.1-1,5.1-1.7,7.5-3.7c3.3-2.6,6.6-7.3,6.6-14.4c0-13.7-11.4-23-28.4-23H10.6v89.2
	L68.5,99.8 M38,29.5h21.5c6.2,0,7.4,5.2,7.4,7.7c0,5.5-3.3,9.4-7.4,9.4H38V29.5z"/>
<path class="st0" d="M36.3,61.7h20.5c6.4,0,11.7,2.1,11.7,9c0,7.2-5.8,10.1-11.7,10.1H36.3V61.7 M66.7,99.8
	c15.8,0,29.8-9.6,29.8-26.2c0-5.9-1.8-13.2-8.9-18.3c-2.7-2-4.7-2.7-8.8-3.7c3.2-1,5.1-1.7,7.5-3.7c3.3-2.6,6.7-7.3,6.7-14.4
	c0-13.7-11.4-23-28.4-23H8.8v89.2L66.7,99.8 M36.3,29.5h21.5c6.2,0,7.4,5.2,7.4,7.7c0,5.5-3.3,9.4-7.4,9.4H36.3V29.5z"/>
</svg>
