<?xml version="1.0" encoding="utf-8"?>
<!-- Generator: Adobe Illustrator 28.2.0, SVG Export Plug-In . SVG Version: 6.00 Build 0)  -->
<svg version="1.1" id="svg2997" xmlns:svg="http://www.w3.org/2000/svg"
	 xmlns="http://www.w3.org/2000/svg" xmlns:xlink="http://www.w3.org/1999/xlink" x="0px" y="0px" viewBox="0 0 194.1 205.4"
	 style="enable-background:new 0 0 194.1 205.4;" xml:space="preserve">
<style type="text/css">
	.st0{fill-rule:evenodd;clip-rule:evenodd;fill:#FFFFFF;}
</style>
<g id="layer1" transform="translate(0,-652.36218)">
	<g id="g3007" transform="matrix(0.2951006,0,0,0.2951006,-2143.7583,-2336.2691)">
		<g id="text66">
			<path id="path2871" class="st0" d="M7360.8,10138.3H7475v673.4h-130.2v-500.7c-11.3,11.6-23.6,21.7-36.8,30.2
				c-13.2,8.5-27.7,15.6-43.4,21.2v-120.8c23.3-13.2,43-28.5,59.2-45.8C7339.9,10178.6,7352.3,10159.4,7360.8,10138.3z"/>
		</g>
		<g id="text68">
			<path id="path2868" class="st0" d="M7922.3,10343.2v263.8c0,81.8-12.5,138.4-37.5,169.7c-25,31.3-69.1,47-132.4,47
				c-63.9,0-108.2-15.6-133.1-46.7c-24.9-31.1-37.3-87.8-37.3-169.9v-263.8c0-82.1,12.4-138.6,37.3-169.4
				c24.9-30.8,69.2-46.2,133.1-46.2c63.6,0,107.8,15.4,132.6,46.2C7909.8,10204.6,7922.3,10261,7922.3,10343.2L7922.3,10343.2z
				 M7785.9,10292.7c0-33.7-2.4-55.9-7.3-66.8c-4.9-10.9-13.6-16.3-26.2-16.3c-12.6,0-21.4,5.9-26.4,17.7c-5,11.8-7.6,33.6-7.6,65.4
				v364.3c0,34.9,2.4,57.5,7.3,67.7s13.8,15.3,26.7,15.3c12.3,0,20.9-5.7,26-17.2c5-11.5,7.6-33.4,7.6-65.8L7785.9,10292.7z"/>
		</g>
	</g>
</g>
</svg>
