<?xml version="1.0" encoding="utf-8"?>
<!-- Generator: Adobe Illustrator 28.2.0, SVG Export Plug-In . SVG Version: 6.00 Build 0)  -->
<svg version="1.1" id="svg3051" xmlns:svg="http://www.w3.org/2000/svg"
	 xmlns="http://www.w3.org/2000/svg" xmlns:xlink="http://www.w3.org/1999/xlink" x="0px" y="0px" viewBox="0 0 196.9 201.9"
	 style="enable-background:new 0 0 196.9 201.9;" xml:space="preserve">
<style type="text/css">
	.st0{fill-rule:evenodd;clip-rule:evenodd;fill:#FFFFFF;}
</style>
<g id="layer1" transform="translate(0,-652.36218)">
	<g id="g3061" transform="matrix(0.2951006,0,0,0.2951006,-2641.3037,-2336.2691)">
		<g id="text74">
			<path id="path2886" class="st0" d="M9046.8,10138.3H9161v673.4h-130.2v-500.7c-11.3,11.6-23.6,21.7-36.8,30.2
				c-13.2,8.5-27.7,15.6-43.4,21.2v-120.8c23.3-13.2,43-28.5,59.2-45.8C9025.9,10178.6,9038.3,10159.4,9046.8,10138.3z"/>
		</g>
		<g id="text76">
			<path id="path2883" class="st0" d="M9606.4,10310.1v9.9c0,31.1-4.6,60.2-13.7,87.1c-9.1,26.9-24.5,55.8-46.2,86.6l-152,215.7
				h223.2v102.4h-361v-125.5l157.1-229.4c18.2-26.1,32.2-50.9,41.8-74.3c9.6-23.4,14.4-44.3,14.4-62.5v-27.4
				c0-33.7-2.4-55.9-7.3-66.8c-4.9-10.9-13.8-16.3-26.7-16.3c-12,0-20.4,5.7-25.2,17c-4.9,11.3-7.3,33.3-7.3,66.1v27.4h-136.4v-9.9
				c0-68.9,12.4-116.6,37.3-143c24.9-26.4,69.2-39.6,133.1-39.6c63.6,0,107.6,13.1,132.1,39.2
				C9594.1,10192.8,9606.4,10240.6,9606.4,10310.1L9606.4,10310.1z"/>
		</g>
	</g>
</g>
</svg>
