<?xml version="1.0" encoding="utf-8"?>
<!-- Generator: Adobe Illustrator 28.2.0, SVG Export Plug-In . SVG Version: 6.00 Build 0)  -->
<svg version="1.1" id="레이어_1" xmlns="http://www.w3.org/2000/svg" xmlns:xlink="http://www.w3.org/1999/xlink" x="0px"
	 y="0px" viewBox="0 0 117 107" style="enable-background:new 0 0 117 107;" xml:space="preserve">
<g>
	<path d="M63.3,68.4c-2.1-7.7-6.2-12.2-12.1-13.8c3.7-4.3,5.7-10.9,2.9-21.3c-3.9-14.5-13.9-21.5-26-18.3L0.6,22.4L0,22.5L22.8,107
		l18.4-4.9c0,0-7.5-27.7-8.8-32.5l0.9-0.2c2.8-0.7,4.9-0.7,6.3,0.1c2.4,1.4,3.6,5.6,4.9,10.5l1,3.9c1.2,4.7,2.5,9.6,5.7,13.7
		l1.2,1.6l21.1-5.6l-2.8-3.6C69.3,88.1,65.7,77.3,63.3,68.4L63.3,68.4z M33.1,53.3c0,0-2.4,0.6-4.7,1.2c-1.4-5.1-4.5-16.8-5.9-21.9
		c2.3-0.6,4.7-1.2,4.7-1.2c2.2-0.6,6-1.6,8.7,8.5C36.4,41.9,38.8,51.7,33.1,53.3L33.1,53.3z M86.4,1L61.6,7.6l-3,0.8l22.8,84.5
		l18.9-5c0,0-7.3-27.2-8.7-32c3.2-0.9,8.1-2.1,8.1-2.1c14.7-3.9,20.3-15.3,15.8-32.1C109.6-0.2,96.4-1.7,86.4,1L86.4,1z M94.1,38.5
		c0,0-3.6,1-6.7,1.8c-1.3-5-4.6-16.9-5.9-21.9c2.7-0.7,5.7-1.5,5.7-1.5c3.2-0.9,7-0.9,9.9,10C98.5,32.1,97.1,37.7,94.1,38.5
		L94.1,38.5z"/>
</g>
</svg>
