<?xml version="1.0" encoding="UTF-8"?>
<svg id="_레이어_1" data-name="레이어 1" xmlns="http://www.w3.org/2000/svg" viewBox="0 0 511.995 512.148">
  <defs>
    <style>
      .cls-1 {
        fill: #05a9f3;
        stroke-width: 0px;
      }
    </style>
  </defs>
  <path class="cls-1" d="M511.991,256.225c.713,141.355-116.563,259.083-261.948,255.858C111.405,509.007-3.292,393.555.072,249.656,3.309,111.183,118.757-3.544,262.859.084c138.029,3.475,249.839,117.283,249.132,256.141ZM256.106,38.725c-120.212,0-217.028,96.496-217.485,216.926-.457,120.435,97.206,215.507,212.664,217.896,121.879,2.522,219.925-95.579,222.287-212.819,2.477-122.975-97.855-222.951-217.466-222.003Z"/>
  <path class="cls-1" d="M281.496,178.675h-6.426c-26.99,0-53.981-.089-80.97.096-4.039.028-5.095-1.179-4.929-5.054.3-6.985.348-14.005-.012-20.984-.222-4.301.859-5.623,5.417-5.591,32.153.221,64.309.117,96.464.117,8.33,0,16.669.213,24.987-.095,3.86-.143,4.805,1.122,4.69,4.789-.261,8.322,1.242,16.946-.476,24.907-1.697,7.863-8.886,13.38-13.645,19.921-23.497,32.297-35.658,68.403-37.782,108.183-.765,14.324-.667,28.63-.666,42.946,0,3.186-.746,4.269-4.103,4.203-10.825-.216-21.657-.116-32.486-.052-2.25.013-3.624-.124-3.691-3.086-.789-34.82,1.075-69.232,14.257-102.114,9.035-22.539,21.035-43.368,35.519-62.809,1.075-1.443,2.098-2.924,3.853-5.378Z"/>
</svg>