<?xml version="1.0" encoding="UTF-8"?>
<svg id="_레이어_1" data-name="레이어 1" xmlns="http://www.w3.org/2000/svg" viewBox="0 0 512.109 511.964">
  <defs>
    <style>
      .cls-1 {
        fill: #020202;
        stroke-width: 0px;
      }
    </style>
  </defs>
  <path class="cls-1" d="M256.185,511.96C114.653,512.786-3.409,395.46.075,249.551,3.382,111.078,118.716-3.4,262.691.077c138.472,3.344,252.942,118.742,249.335,262.728-3.456,137.977-117.052,249.663-255.841,249.155ZM255.827,473.46c118.153.644,214.971-94.911,217.704-212.052,2.854-122.324-95.077-220.296-212.497-222.858-121.441-2.649-222.555,95.158-222.487,217.395.067,120.37,97.262,217.514,217.279,217.514Z"/>
  <path class="cls-1" d="M356.606,245.729c9.065,4.582,16.751,10.255,22.606,18.209,23.754,32.268,5.419,79.833-34.547,88.892-18.962,4.298-37.728,3.366-55.484-5.441-20.778-10.306-30.862-27.318-31.33-50.418-.471-23.212,10.743-39.026,30.573-49.631.73-.391,1.47-.765,2.194-1.167.137-.076.222-.244.534-.606-3.999-2.564-8.068-4.994-11.498-8.286-16.246-15.591-18.644-34.782-13.174-55.251,5.445-20.373,20.404-31.211,40.217-35.868,12.333-2.899,24.81-2.809,37.092.387,24.225,6.304,38.557,25.313,39.115,50.834.461,21.07-7.715,37.288-26.298,48.347ZM348.966,292.773c.465-3.305-.096-6.969-1.132-10.461-2.941-9.918-8.181-18.107-19.141-20.175-10.963-2.068-19.84,2.229-25.471,11.627-7.288,12.163-7.501,25.099-.696,37.522,5.09,9.292,13.75,13.405,24.264,12.5,10.444-.899,16.686-7.466,20.18-16.886,1.629-4.392,2.336-9.004,1.995-14.127ZM342.912,203.238c-.115-5.997-.696-11.441-2.972-16.538-2.744-6.147-7.031-10.535-14.137-11.023-7.432-.51-13.272,2.477-17.314,8.748-6.605,10.247-5.471,29.618,2.225,39.176,7.719,9.586,21.223,8.74,27.604-1.697,3.606-5.899,4.186-12.488,4.594-18.666Z"/>
  <path class="cls-1" d="M200.255,248.048c0,33.132-.059,66.264.085,99.396.016,3.597-.636,4.813-4.534,4.688-10.146-.327-20.315-.324-30.461-.006-4.112.129-5.204-.894-5.191-5.116.162-53.111.023-106.222.244-159.333.021-4.977-1.297-6.022-5.96-5.695-9.111.638-18.271.548-27.398,1.003-3.256.162-4.284-.773-4.177-4.112.251-7.817.186-15.65.02-23.472-.054-2.539.656-3.327,3.238-3.581,23.83-2.343,47.647-4.817,71.456-7.37,2.049-.22,2.779.216,2.685,2.203-.055,1.163-.006,2.33-.006,3.496,0,32.633,0,65.265,0,97.898Z"/>
</svg>