<?xml version="1.0" encoding="UTF-8"?>
<svg id="_레이어_1" data-name="레이어 1" xmlns="http://www.w3.org/2000/svg" viewBox="0 0 512.144 511.994">
  <defs>
    <style>
      .cls-1 {
        fill: #44a048;
        stroke-width: 0px;
      }
    </style>
  </defs>
  <path class="cls-1" d="M255.816,511.991C114.501,512.641-3.216,395.382.067,249.937,3.196,111.301,118.665-3.346,262.59.075c138.513,3.292,253.154,118.799,249.468,262.887-3.532,138.057-117.393,249.785-256.242,249.029ZM256.004,38.722c-120.048,0-217.496,97.581-217.472,217.043.024,120.409,97.376,215.47,212.859,217.8,121.795,2.458,219.871-95.536,222.188-212.93,2.425-122.902-97.819-222.858-217.575-221.912Z"/>
  <path class="cls-1" d="M291.234,246.621c3.082,1.742,5.943,3.117,8.548,4.872,16.57,11.163,22.261,27.471,21.662,46.604-1.128,36.04-28.713,54.34-58.869,56.709-21.173,1.663-40.386-3.215-56.157-18.174-10.693-10.142-14.65-23.048-14.461-37.506.03-2.304.639-3.23,3.09-3.207,10.993.102,21.99.176,32.98-.032,3.604-.068,2.887,2.16,3.107,4.2,1.318,12.226,9.02,21.443,19.653,23.578,10.375,2.083,21.417-3.264,26.927-13.063,2.676-4.758,3.742-9.976,3.752-15.339.008-4.306-.167-8.625-1.174-12.892-3.009-12.749-10.918-19.42-23.979-19.761-6.326-.165-12.662-.135-18.988.016-2.752.066-3.857-.737-3.797-3.652.16-7.826.14-15.658.008-23.485-.044-2.586.756-3.49,3.401-3.414,5.992.171,11.992.087,17.989.046,11.065-.075,18.437-5.187,21.626-15.719,3.025-9.991,3.303-20.046-2.023-29.516-4.954-8.808-13.559-12.653-23.705-10.882-8.318,1.451-15.761,9.017-16.61,18.32-.503,5.506-2.528,6.67-7.645,6.406-8.971-.462-17.998-.436-26.973-.008-4.974.237-5.74-1.718-5.453-6.015.961-14.4,6.931-26.086,17.771-35.589,24.136-21.157,65.875-17.095,86.422-2.491,23.892,16.982,32.123,66.679-4.033,88.152-.855.507-1.704,1.023-3.068,1.843Z"/>
</svg>