<?xml version="1.0" encoding="UTF-8"?>
<svg id="_레이어_1" data-name="레이어 1" xmlns="http://www.w3.org/2000/svg" viewBox="0 0 511.993 512.144">
  <defs>
    <style>
      .cls-1 {
        fill: #f34437;
        stroke-width: 0px;
      }
    </style>
  </defs>
  <path class="cls-1" d="M511.989,256.368c.631,141.288-116.622,259.012-262.092,255.709C111.275,508.928-3.368,393.451.076,249.512,3.388,111.047,118.857-3.618,263,.087c138.056,3.548,249.767,117.426,248.99,256.281ZM255.918,38.715c-119.886,0-216.767,96.643-217.315,216.624-.55,120.346,96.974,215.907,212.868,218.213,121.754,2.422,219.831-95.615,222.106-213.014,2.38-122.847-97.89-222.836-217.658-221.823Z"/>
  <path class="cls-1" d="M298.757,233.792c7.524-6.849,15.113-11.437,23.971-13.617,28.667-7.054,50.605,4.527,60.233,32.464,6.729,19.523,7.578,39.556,1.442,59.402-7.58,24.515-27.737,40.681-52.363,42.842-27.538,2.416-50.596-9.884-62.952-33.498-6.206-11.861-9.603-24.57-9.89-37.822-.461-21.309-.894-42.67.078-63.944,1.198-26.207,11.072-48.84,33.738-63.633,24.189-15.787,49.895-14.944,75.883-4.2,2.263.935,2.46,2.314,1.974,4.326-1.836,7.595-3.761,15.172-5.368,22.816-.66,3.139-1.737,3.608-4.668,2.427-8.077-3.255-16.518-5.025-25.258-5.262-9.92-.269-18.334,3.037-24.75,10.701-11.231,13.413-12.221,29.46-12.071,47ZM298.637,274.853c.147,0,.294.001.441.002,0,3.482-.268,6.989.051,10.442.89,9.644,2.628,19.091,7.943,27.477,4.36,6.878,10.204,11.483,18.726,11.132,8.439-.348,13.616-5.623,17.041-12.733,6.494-13.482,6.804-27.635,3.218-41.825-5.891-23.311-23.929-23.703-38.955-15.782-5.695,3.002-9.719,7.483-8.518,14.813.345,2.105.053,4.314.053,6.475Z"/>
  <path class="cls-1" d="M200.256,248.588c0,32.809-.087,65.619.106,98.428.025,4.261-1.184,5.244-5.26,5.119-9.983-.306-19.988-.287-29.972-.007-3.922.11-4.971-.976-4.96-4.936.137-53.128.015-106.256.22-159.384.019-4.929-1.258-6.151-6.008-5.819-9.118.638-18.283.585-27.421.995-2.936.132-4.162-.578-4.071-3.812.219-7.821.187-15.656.009-23.48-.063-2.765.83-3.643,3.558-3.909,18.377-1.791,36.736-3.764,55.103-5.663,4.799-.496,9.667-.605,14.387-1.504,3.877-.739,4.381.666,4.37,4.045-.101,33.309-.061,66.618-.061,99.927Z"/>
</svg>