<?xml version="1.0" encoding="utf-8"?>
<!-- Generator: Adobe Illustrator 28.2.0, SVG Export Plug-In . SVG Version: 6.00 Build 0)  -->
<svg version="1.1" id="레이어_1" xmlns="http://www.w3.org/2000/svg" xmlns:xlink="http://www.w3.org/1999/xlink" x="0px"
	 y="0px" viewBox="0 0 110.4 120.8" style="enable-background:new 0 0 110.4 120.8;" xml:space="preserve">
<style type="text/css">
	.st0{fill:#9CA1AB;}
	.st1{fill:#FFFFFF;}
</style>
<path class="st0" d="M36.4,0C21.8,18.7,2.6,19.9,0,20v17c0,0,1.7,0,13.6,0.1c7.8,0,7.7,7.8,7.7,7.8v76h81c4.4,0,8-3.6,8-8.1V0H36.4z
	"/>
<path class="st1" d="M110.4,11c-5.1-2.5-12-4.1-22.5-4.1c-21.8,0-38,8.1-38,31.6c0,15.9,4,20.3,9.9,24.5
	c-5.1,3.9-12.2,11.1-12.2,33.3c0,15,1.7,21,5.1,24.4h49.7c4.4,0,8-3.6,8-8.1V11z M93.3,109.3c0,4.1-2.3,7.5-5.3,7.5
	c-3.1,0-5.3-3.4-5.3-7.5V84.9c0-4.1,2.3-7.5,5.3-7.5s5.3,3.4,5.3,7.5V109.3z M93.3,48.8c0,4.1-2.3,7.5-5.3,7.5
	c-3.1,0-5.3-3.4-5.3-7.5v-15c0-4.1,2.3-7.5,5.3-7.5s5.3,3.4,5.3,7.5V48.8z"/>
</svg>
