<?xml version="1.0" encoding="utf-8"?>
<!-- Generator: Adobe Illustrator 28.2.0, SVG Export Plug-In . SVG Version: 6.00 Build 0)  -->
<svg version="1.1" id="레이어_1" xmlns="http://www.w3.org/2000/svg" xmlns:xlink="http://www.w3.org/1999/xlink" x="0px"
	 y="0px" viewBox="0 0 111.7 122.1" style="enable-background:new 0 0 111.7 122.1;" xml:space="preserve">
<style type="text/css">
	.st0{fill:#9CA1AB;}
	.st1{fill:#FFFFFF;}
</style>
<path class="st0" d="M36.4,0C21.8,20,2.6,21.2,0,21.3v17c0,0,1.7,0,13.6,0.1c7.8,0,7.7,7.8,7.7,7.8v76h82.4c4.4,0,8-3.6,8-8.1V0
	H36.4z"/>
<path class="st1" d="M86.6,8.1C71.7,8.1,59.3,13.7,55,22c-4.7,9-5.6,14.3-5.6,28.9v3.7h32V43.5c0-4.8,0.9-13.7,7.6-13.7
	c6.9,0,7.3,6.1,6.2,14c-0.6,4.8-5.2,13.9-8.1,18.6c-3.5,5.7-25.7,41.6-36.4,57.1v2.6h53c3.3,0,6.1-2,7.3-4.8l-0.2-0.9l-21.3-0.6
	c5.7-8.9,17.4-27.2,22.1-36.1V14.8C104.4,9.5,97.8,8.1,86.6,8.1z"/>
</svg>
