<?xml version="1.0" encoding="utf-8"?>
<!-- Generator: Adobe Illustrator 28.2.0, SVG Export Plug-In . SVG Version: 6.00 Build 0)  -->
<svg version="1.1" id="레이어_1" xmlns="http://www.w3.org/2000/svg" xmlns:xlink="http://www.w3.org/1999/xlink" x="0px"
	 y="0px" viewBox="0 0 93.2 121.1" style="enable-background:new 0 0 93.2 121.1;" xml:space="preserve">
<style type="text/css">
	.st0{fill:#FFFFFF;}
	.st1{fill:#B3B3B3;}
</style>
<path class="st0" d="M63.9,45.9c-2,2.7-4.3,4.5-6.9,5.3s-6.7,1.2-12.4,1.2H27.2V21.5H44c6.5,0,11,0.3,13.3,0.9
	c2.4,0.6,4.6,2.3,6.6,4.9c2,2.7,3,5.7,3,9C66.9,40,65.9,43.1,63.9,45.9 M93.2,111v-0.6l-18-42.9c8.6-3.9,14.6-9.3,18-16.3V21
	c-0.8-1.8-1.7-3.5-2.7-5.1C86.6,9.8,81.7,5.6,75.7,3.4C69.7,1.1,61.9,0,52,0H0v121.1h27.1v-48h20.4l18.6,48H83
	C88.6,121.1,93.2,116.6,93.2,111"/>
<path class="st1" d="M80,70.7H48.7v13h28.7v10.7H48.7v15.9h32.7v10.8H36.5V59.8H80"/>
</svg>
