<?xml version="1.0" encoding="utf-8"?>
<!-- Generator: Adobe Illustrator 28.2.0, SVG Export Plug-In . SVG Version: 6.00 Build 0)  -->
<svg version="1.1"
	 id="Layer_1" xmlns:svg="http://www.w3.org/2000/svg" xmlns:sodipodi="http://sodipodi.sourceforge.net/DTD/sodipodi-0.dtd" xmlns:inkscape="http://www.inkscape.org/namespaces/inkscape" sodipodi:docname="GSRR_12+.svg"
	 xmlns="http://www.w3.org/2000/svg" xmlns:xlink="http://www.w3.org/1999/xlink" x="0px" y="0px" viewBox="0 0 455.7 302.1"
	 style="enable-background:new 0 0 455.7 302.1;" xml:space="preserve">
<style type="text/css">
	.st0{fill:#FFFFFF;}
</style>
<g id="g44" transform="scale(3.9206154)">
	<g id="g20">
		<g id="g18">
			<polygon id="polygon16" class="st0" points="98.1,0 98.1,7 91,7 91,18.1 98.1,18.1 98.1,25.2 109.2,25.2 109.2,18.1 116.2,18.1 
				116.2,7 109.2,7 109.2,0 			"/>
		</g>
	</g>
	<g id="g32">
		<g id="g30">
			<g id="g28">
				<path id="path24" class="st0" d="M19.7,2.5C19.5,6,17.5,14.2,3.1,14.2H0v12.3h17.1v50.6h16.3V1.4H19.7L19.7,2.5z"/>
				<path id="path26" class="st0" d="M58.8,62.1c2-2.4,5.9-5.3,12.2-9.7l2.6-1.8c7.5-5.2,15.5-11.8,15.5-24.8
					c0-14.5-10.4-24.3-25.8-24.3c-7.4,0-24.6,2.6-24.6,27v1.1h15.9l0-1.1c0.1-6.4,0.9-12.7,9.3-12.7c6.1,0,8.9,4.9,8.9,9.4
					c0,7.6-4.7,11.1-17.2,20.4L55,45.9c-16.1,11.9-16.7,21.5-17.2,30l-0.1,1.1h51.4v-15H58.8z"/>
			</g>
		</g>
	</g>
</g>
</svg>
