<?xml version="1.0" encoding="utf-8"?>
<!-- Generator: Adobe Illustrator 28.2.0, SVG Export Plug-In . SVG Version: 6.00 Build 0)  -->
<svg version="1.1"
	 id="Layer_1" xmlns:svg="http://www.w3.org/2000/svg" xmlns:sodipodi="http://sodipodi.sourceforge.net/DTD/sodipodi-0.dtd" xmlns:inkscape="http://www.inkscape.org/namespaces/inkscape" sodipodi:docname="GSRR_6+.svg"
	 xmlns="http://www.w3.org/2000/svg" xmlns:xlink="http://www.w3.org/1999/xlink" x="0px" y="0px" viewBox="0 0 349.4 305.9"
	 style="enable-background:new 0 0 349.4 305.9;" xml:space="preserve">
<style type="text/css">
	.st0{fill:#FFFFFF;}
</style>
<g id="g40" transform="scale(3.9206769)">
	<g id="g18">
		<g id="g16">
			<g id="g14">
				<polygon id="polygon12" class="st0" points="69.4,0.2 69.4,7.9 61.8,7.9 61.8,19.9 69.4,19.9 69.4,27.6 81.5,27.6 81.5,19.9 
					89.1,19.9 89.1,7.9 81.5,7.9 81.5,0.2 				"/>
			</g>
		</g>
	</g>
	<g id="g26">
		<g id="g24">
			<path id="path22" class="st0" d="M31.6,26.1c-6,0-10.5,1.5-13.9,4.6c1.1-11.5,4.9-16.9,11.9-16.9c4.9,0,7.7,2.1,8.1,6.1l0.1,1
				h17.8l-0.2-1.3c-1.5-7.9-3.1-10.3-7.7-14.5C43.1,0.9,33.1,0,30.7,0C0,0,0,29.9,0,39.8C0,65.5,9.8,78,29.9,78
				C45.8,78,57,66.5,57,50C57,38.1,48.3,26.1,31.6,26.1L31.6,26.1z M28.8,39.9c4.8,0,10.4,3,10.4,11.3c0,8.1-3.7,13-9.9,13
				c-6.8,0-11.4-5.1-11.4-12.7C17.8,40.8,26.2,39.9,28.8,39.9L28.8,39.9z"/>
		</g>
	</g>
</g>
</svg>
