<?xml version="1.0" encoding="utf-8"?>
<!-- Generator: Adobe Illustrator 28.2.0, SVG Export Plug-In . SVG Version: 6.00 Build 0)  -->
<svg version="1.1"
	 id="Layer_1" xmlns:svg="http://www.w3.org/2000/svg" xmlns:sodipodi="http://sodipodi.sourceforge.net/DTD/sodipodi-0.dtd" xmlns:inkscape="http://www.inkscape.org/namespaces/inkscape" sodipodi:docname="GSRR_15+.svg"
	 xmlns="http://www.w3.org/2000/svg" xmlns:xlink="http://www.w3.org/1999/xlink" x="0px" y="0px" viewBox="0 0 458.6 307.4"
	 style="enable-background:new 0 0 458.6 307.4;" xml:space="preserve">
<style type="text/css">
	.st0{fill:#FFFFFF;}
</style>
<g id="g44" transform="scale(3.9206462)">
	<g id="g20">
		<g id="g18">
			<polygon id="polygon16" class="st0" points="98.8,0 98.8,7 91.8,7 91.8,18.1 98.8,18.1 98.8,25.2 109.9,25.2 109.9,18.1 
				117,18.1 117,7 109.9,7 109.9,0 			"/>
		</g>
	</g>
	<g id="g32">
		<g id="g30">
			<g id="g28">
				<path id="path24" class="st0" d="M19.7,1.9c-0.2,3.5-2.2,11.7-16.6,11.7H0v12.3h17.1v50.6h16.3V0.8H19.7L19.7,1.9z"/>
				<path id="path26" class="st0" d="M66.8,26.2c-5.7,0-9.1,1.4-11.5,2.9l2-12.6h29.5V2.1H45.3l-5.2,42.4l14.5,0.7l0.3-0.6
					c2.2-4.2,6-4.7,8.6-4.7c7,0,9.5,6.2,9.5,12.1c0,7.7-3.8,12.7-9.7,12.7c-6.7,0-8.6-4.9-9-9.1l-0.1-1H37.9l0.1,1.1
					c0.7,15.6,12.8,22.6,24.5,22.6c20.1,0,27.2-14.8,27.2-27.5C89.7,34.7,78.2,26.2,66.8,26.2z"/>
			</g>
		</g>
	</g>
</g>
</svg>
