<?xml version="1.0" encoding="utf-8"?>
<!-- Generator: Adobe Illustrator 28.2.0, SVG Export Plug-In . SVG Version: 6.00 Build 0)  -->
<svg version="1.1" id="Layer_1" xmlns="http://www.w3.org/2000/svg" xmlns:xlink="http://www.w3.org/1999/xlink" x="0px" y="0px"
	 viewBox="0 0 38.9 43.2" style="enable-background:new 0 0 38.9 43.2;" xml:space="preserve">
<g>
	<path d="M27.1,6.8c-1.8,2.6-3.4,5.3-4.9,8.3c-1.4,2.9-2.7,6-3.8,9.1c-1.1,3.1-2,6.3-2.7,9.5s-1.2,6.4-1.6,9.5H4.8
		c0.3-2.6,0.8-5.4,1.5-8.4c0.6-3,1.5-6,2.6-9s2.4-6.1,4-9.1c1.6-3.1,3.4-6.1,5.6-9H0V0h27.1C27.1,0,27.1,6.8,27.1,6.8z"/>
</g>
<path d="M21.9,30v-4.8h6.4v-7.3h4.2v7.3h6.4V30h-6.4v7.3h-4.2V30H21.9z"/>
</svg>
