<?xml version="1.0" encoding="utf-8"?>
<!-- Generator: Adobe Illustrator 28.2.0, SVG Export Plug-In . SVG Version: 6.00 Build 0)  -->
<svg version="1.1" id="Layer_1" xmlns="http://www.w3.org/2000/svg" xmlns:xlink="http://www.w3.org/1999/xlink" x="0px" y="0px"
	 viewBox="0 0 43.1 44.6" style="enable-background:new 0 0 43.1 44.6;" xml:space="preserve">
<g>
	<path d="M9.4,37c0.6,1.3,1.9,2,3.9,2c1.1,0,1.9-0.2,2.6-0.6c0.6-0.4,1.1-0.9,1.5-1.5s0.6-1.4,0.7-2.3c0.1-0.9,0.2-1.8,0.2-2.7
		c0-1-0.1-1.9-0.2-2.8c-0.1-0.9-0.4-1.7-0.8-2.4c-0.4-0.7-1-1.3-1.7-1.7s-1.7-0.6-3-0.6h-3v-5.8h2.9c1,0,1.7-0.2,2.4-0.6
		c0.6-0.4,1.2-0.9,1.6-1.6c0.4-0.6,0.7-1.4,0.9-2.2s0.3-1.7,0.3-2.6c0-2.1-0.4-3.6-1.1-4.5c-0.7-0.9-1.8-1.3-3.2-1.3
		c-1,0-1.7,0.2-2.3,0.5C10.5,6.7,10,7.1,9.7,7.8C9.4,8.4,9.2,9.2,9,10.1C8.9,11,8.8,11.9,8.8,13H0.6c0-4.4,1.1-7.7,3.3-9.8
		S9.3,0,13.5,0c4,0,7.1,0.9,9.4,2.7c2.2,1.8,3.3,4.7,3.3,8.6c0,2.7-0.6,4.8-1.8,6.5s-2.8,2.7-4.9,3.2v0.1c2.9,0.5,4.9,1.6,6.1,3.4
		c1.2,1.8,1.8,4.2,1.8,6.9c0,1.5-0.2,3-0.6,4.6c-0.4,1.6-1.1,3-2.2,4.3c-1.1,1.3-2.6,2.3-4.4,3.1c-1.9,0.8-4.4,1.2-7.4,1.2
		c-4.3,0-7.5-1.2-9.6-3.5S0,35.5,0,31.2V31h8.6C8.4,33.7,8.8,35.7,9.4,37z"/>
</g>
<path d="M26.1,22.8V18h6.4v-7.3h4.2V18h6.4v4.8h-6.4v7.3h-4.2v-7.3H26.1z"/>
</svg>
