<?xml version="1.0" encoding="utf-8"?>
<!-- Generator: Adobe Illustrator 28.2.0, SVG Export Plug-In . SVG Version: 6.00 Build 0)  -->
<svg version="1.1" id="Layer_1" xmlns="http://www.w3.org/2000/svg" xmlns:xlink="http://www.w3.org/1999/xlink" x="0px" y="0px"
	 viewBox="0 0 64.5 44.6" style="enable-background:new 0 0 64.5 44.6;" xml:space="preserve">
<g>
	<path d="M8.7,13H0V7.2h0.8c3,0,5.3-0.6,7.1-1.7c1.7-1.1,2.8-2.9,3.3-5.4h6.6v44H8.9V13H8.7z"/>
	<path d="M38.2,7.3c-0.6-0.9-1.6-1.4-3.1-1.4c-1.2,0-2.1,0.3-2.8,0.8C31.6,7.3,31,8,30.6,9s-0.7,2.2-0.8,3.5
		c-0.1,1.4-0.2,2.9-0.2,4.5v2.2h0.1c0.7-1.2,1.8-2.1,3.2-2.8s3.1-1,5.1-1c1.9,0,3.6,0.3,5,1s2.5,1.6,3.3,2.9
		c0.8,1.2,1.5,2.7,1.9,4.3c0.4,1.7,0.6,3.5,0.6,5.5c0,5.1-1.1,9-3.4,11.6c-2.3,2.6-5.9,3.9-10.8,3.9c-3.1,0-5.5-0.5-7.3-1.6
		s-3.2-2.6-4.2-4.4c-1-1.9-1.6-4.1-1.9-6.6s-0.4-5.1-0.4-7.8c0-3.1,0.1-6.1,0.3-9c0.2-2.9,0.7-5.5,1.7-7.8c0.9-2.3,2.4-4.1,4.4-5.4
		c2-1.4,4.8-2,8.4-2c1.6,0,3.1,0.2,4.6,0.6c1.5,0.4,2.8,1,3.9,1.9c1.1,0.9,2,2,2.7,3.4s1,3.2,1.1,5.3h-8.6
		C39.1,9.5,38.8,8.2,38.2,7.3z M30.2,33.9c0.1,1.1,0.4,2,0.7,2.8c0.4,0.8,0.8,1.4,1.5,1.8c0.6,0.4,1.5,0.7,2.5,0.7
		c1.1,0,1.9-0.2,2.6-0.7c0.6-0.4,1.1-1,1.5-1.8c0.3-0.8,0.5-1.7,0.7-2.8c0.1-1.1,0.2-2.2,0.2-3.4c0-3-0.4-5.1-1.1-6.4
		c-0.7-1.3-2-1.9-3.7-1.9c-1.8,0-3,0.6-3.8,1.9c-0.7,1.3-1.1,3.4-1.1,6.4C30,31.6,30.1,32.8,30.2,33.9z"/>
</g>
<path d="M47.6,17.9v-4.8H54V5.8h4.2v7.3h6.3v4.8h-6.4v7.3h-4.2v-7.3H47.6z"/>
</svg>
