<?xml version="1.0" encoding="utf-8"?>
<!-- Generator: Adobe Illustrator 28.2.0, SVG Export Plug-In . SVG Version: 6.00 Build 0)  -->
<svg version="1.1" id="Layer_1" xmlns="http://www.w3.org/2000/svg" xmlns:xlink="http://www.w3.org/1999/xlink" x="0px" y="0px"
	 viewBox="0 0 63.6 44.1" style="enable-background:new 0 0 63.6 44.1;" xml:space="preserve">
<g>
	<path d="M8.7,12.9H0V7.1h0.8c3,0,5.3-0.6,7.1-1.7c1.7-1.1,2.8-2.9,3.3-5.4h6.6v44H8.9V12.9H8.7z"/>
	<path d="M20.9,43.9c0-1.9,0.2-3.8,0.6-5.5s1-3.3,1.8-4.8s1.8-3,3-4.5c1.2-1.5,2.6-3,4.3-4.4l3.6-3.4c1-0.9,1.8-1.7,2.4-2.4
		c0.6-0.7,1.1-1.5,1.4-2.2c0.3-0.7,0.5-1.6,0.7-2.4c0.1-0.9,0.2-1.9,0.2-3c0-3.6-1.5-5.5-4.3-5.5c-1.1,0-2,0.2-2.6,0.7
		c-0.6,0.5-1.1,1.1-1.5,1.9c-0.4,0.8-0.6,1.7-0.7,2.7c-0.1,1-0.2,2.1-0.2,3.3H21v-1.7c0-4.1,1.1-7.2,3.3-9.4S30,0,34.7,0
		c4.5,0,7.8,1,9.9,3.1c2.2,2.1,3.2,5,3.2,8.9c0,1.4-0.1,2.7-0.4,3.9c-0.2,1.2-0.6,2.4-1.2,3.5c-0.5,1.1-1.2,2.2-2.1,3.3
		c-0.9,1.1-1.9,2.1-3.2,3.3l-5,4.6c-1.3,1.2-2.4,2.4-3.1,3.5c-0.7,1.1-1.2,2.1-1.4,3H48v7H20.9V43.9z"/>
</g>
<path d="M46.6,33.4v-4.8H53v-7.3h4.2v7.3h6.4v4.8h-6.4v7.3H53v-7.3H46.6z"/>
</svg>
