<?xml version="1.0" encoding="utf-8"?>
<!-- Generator: Adobe Illustrator 28.2.0, SVG Export Plug-In . SVG Version: 6.00 Build 0)  -->
<svg version="1.1" id="Layer_1" xmlns="http://www.w3.org/2000/svg" xmlns:xlink="http://www.w3.org/1999/xlink" x="0px" y="0px"
	 viewBox="0 0 64.7 44.6" style="enable-background:new 0 0 64.7 44.6;" xml:space="preserve">
<g>
	<path d="M8.8,13H0V7.2h0.8c3,0,5.3-0.6,7.1-1.7c1.7-1.1,2.8-2.9,3.3-5.4h6.6v44H8.9V13H8.8z"/>
	<path d="M22.6,24.4c1.2-2,3.1-3.2,5.6-3.7v-0.1c-1.2-0.3-2.2-0.7-3-1.4c-0.8-0.6-1.5-1.3-2-2.1s-0.8-1.6-1.1-2.5
		c-0.2-0.9-0.3-1.7-0.3-2.5c0-4.3,1.1-7.4,3.4-9.3C27.5,0.9,30.7,0,34.7,0s7.2,0.9,9.5,2.8c2.3,1.9,3.4,5,3.4,9.3
		c0,0.8-0.1,1.6-0.3,2.5s-0.6,1.7-1.1,2.5s-1.1,1.5-2,2.1c-0.8,0.6-1.8,1.1-3,1.4v0.1c2.5,0.5,4.3,1.7,5.6,3.7
		c1.2,2,1.9,4.4,1.9,7.1c0,1.3-0.2,2.7-0.5,4.2s-1,3-2,4.3s-2.4,2.4-4.3,3.3c-1.8,0.9-4.3,1.3-7.4,1.3c-3.1,0-5.5-0.4-7.4-1.3
		c-1.8-0.9-3.3-2-4.3-3.3s-1.6-2.8-2-4.3c-0.3-1.5-0.5-2.9-0.5-4.2C20.7,28.8,21.3,26.4,22.6,24.4z M29.9,34.4
		c0.1,0.9,0.4,1.7,0.8,2.4c0.4,0.7,0.9,1.2,1.6,1.6c0.7,0.4,1.5,0.6,2.5,0.6s1.8-0.2,2.5-0.6s1.2-0.9,1.6-1.6
		c0.4-0.7,0.7-1.5,0.8-2.4s0.2-1.9,0.2-3s-0.1-2.1-0.2-3c-0.1-0.9-0.4-1.7-0.8-2.4c-0.4-0.7-0.9-1.2-1.6-1.6
		c-0.7-0.4-1.5-0.6-2.5-0.6S33,24,32.3,24.4c-0.7,0.4-1.2,0.9-1.6,1.6c-0.4,0.7-0.7,1.5-0.8,2.4s-0.2,1.9-0.2,3
		C29.7,32.5,29.7,33.5,29.9,34.4z M31.6,16.6c0.8,1,1.8,1.5,3.2,1.5c1.3,0,2.4-0.5,3.2-1.5s1.2-2.5,1.2-4.7c0-4-1.5-6-4.3-6
		c-2.9,0-4.4,2-4.4,6C30.4,14,30.8,15.6,31.6,16.6z"/>
</g>
<path d="M47.7,22.8V18h6.4v-7.3h4.2V18h6.4v4.8h-6.4v7.3h-4.2v-7.3H47.7z"/>
</svg>
