<?xml version="1.0" encoding="utf-8"?>
<!-- Generator: Adobe Illustrator 28.2.0, SVG Export Plug-In . SVG Version: 6.00 Build 0)  -->
<svg version="1.1" id="Ebene_1" xmlns="http://www.w3.org/2000/svg" xmlns:xlink="http://www.w3.org/1999/xlink" x="0px" y="0px"
	 viewBox="0 0 339.7 310.8" style="enable-background:new 0 0 339.7 310.8;" xml:space="preserve">
<style type="text/css">
	.st0{fill:#FFFFFF;}
</style>
<path class="st0" d="M109.8,310.8H43.4V80H0V40.9C29.8,41.3,49.4,28.9,60,0h49.8V310.8z"/>
<path class="st0" d="M336.3,247.8v63H173.7v-66c74.1-100.9,97.9-117.9,97.9-156.7c0-15.8-6-25.1-17.5-25.1
	C238.4,63,235,75.4,235,89.4v18.3h-62.2V87.3c0-48.1,23.4-87.3,81.3-87.3c55.3,0,85.6,34.9,85.6,90.7c0,66.4-56.2,109.8-94.5,157.1
	H336.3z"/>
</svg>
