<?xml version="1.0" encoding="utf-8"?>
<!-- Generator: Adobe Illustrator 28.2.0, SVG Export Plug-In . SVG Version: 6.00 Build 0)  -->
<svg version="1.1" id="Ebene_1" xmlns="http://www.w3.org/2000/svg" xmlns:xlink="http://www.w3.org/1999/xlink" x="0px" y="0px"
	 viewBox="0 0 344 315.9" style="enable-background:new 0 0 344 315.9;" xml:space="preserve">
<style type="text/css">
	.st0{fill:#FFFFFF;}
</style>
<path class="st0" d="M240.1,134.5c12.8-11.9,22.1-20.4,43.4-20.4c39.6,0,60.5,33.6,60.5,96.2c0,58.8-15.3,105.6-85.6,105.6
	c-49.4,0-74.5-25.1-83.4-72.8c-3.8-20.9-4.3-46.4-4.3-81.3c0.4-42.6,0.9-68.1,4.7-89c8.9-47.7,34-72.8,83.4-72.8
	c44.7,0,80.9,27.7,80.9,74.5v15.8h-62.2V83c0-21.3-8.1-26.8-18.7-26.8c-12.8,1.7-18.3,13.6-18.7,30.6L240.1,134.5L240.1,134.5z
	 M259.3,175.4c-13.2,0-19.2,13.2-19.2,41.3c0,28.5,6,41.3,19.2,41.3c14.1,0,20-12.8,20-41.3C279.3,188.6,273.3,175.4,259.3,175.4"/>
<path class="st0" d="M109.8,310.8H43.4V80H0V40.9C29.8,41.3,49.4,28.9,60,0h49.8V310.8z"/>
</svg>
