<?xml version="1.0" encoding="utf-8"?>
<!-- Generator: Adobe Illustrator 28.2.0, SVG Export Plug-In . SVG Version: 6.00 Build 0)  -->
<svg version="1.1" id="Ebene_1" xmlns="http://www.w3.org/2000/svg" xmlns:xlink="http://www.w3.org/1999/xlink" x="0px" y="0px"
	 viewBox="0 0 172 315.9" style="enable-background:new 0 0 172 315.9;" xml:space="preserve">
<style type="text/css">
	.st0{fill:#FFFFFF;}
</style>
<path class="st0" d="M59.6,124.3h14.5c23,0,27.2-11.9,27.2-32.8c0-26-5.1-34.5-17.9-34.5c-10.6,0-16.6,8.9-16.6,29.8v11.9H4.3
	C4.3,35.3,24.3,0,88.1,0c49,0,79.6,28.1,79.6,86c0,38.3-11.9,54.5-30.7,61.7c22.1,12.3,34.9,25.5,34.9,71.1
	c0,60.4-22.6,97.1-87.3,97.1c-75.4,0-85.2-49-84.7-113.7h65.6v28.1c0,17,6.8,24.3,16.6,24.3c12.8,0,20.9-8.9,20.9-37.5
	c0-31.5-6.8-42.6-30.6-42.6H59.6L59.6,124.3L59.6,124.3z"/>
</svg>
