<?xml version="1.0" encoding="utf-8"?>
<!-- Generator: Adobe Illustrator 28.2.0, SVG Export Plug-In . SVG Version: 6.00 Build 0)  -->
<svg version="1.1" id="Capa_1" xmlns="http://www.w3.org/2000/svg" xmlns:xlink="http://www.w3.org/1999/xlink" x="0px" y="0px"
	 viewBox="0 0 90.1 71.7" style="enable-background:new 0 0 90.1 71.7;" xml:space="preserve">
<style type="text/css">
	.st0{fill:#FFFFFF;}
</style>
<g>
	<g>
		<path class="st0" d="M61.7,8.8l1-0.6L56,0.1l-0.6,0.2c-6.5,1.8-12.6,7.1-18,15.7c-5.4,8.5-8.2,17.1-8.2,25.4
			c0,20.1,7.3,30.3,21.7,30.3c5.6,0,10.2-2.2,13.9-6.5c3.6-4.3,5.4-9.9,5.4-16.7c0-6.9-1.8-12.5-5.3-16.6c-3.6-4.1-8.3-6.2-14.2-6.2
			c-1.6,0-3.5,0.4-5.5,1.3c1.3-3,3.2-6,5.8-9C54.1,14.2,57.7,11.1,61.7,8.8z M50.2,37.8c2.1,0,3.9,0.9,5.2,2.9
			c1.4,2,2.1,4.8,2.1,8.3c0,3.4-0.7,6.1-2,7.9s-3,2.7-5.2,2.7c-5.5,0-8.2-3.7-8.2-11.3C42,41.1,44.6,37.8,50.2,37.8z"/>
		<path class="st0" d="M20,0.4C15.5,6.5,9.4,11.6,1.7,15.7L0,16.5V29l13.5-7.4v47.1h12.6V0h-5.8L20,0.4z"/>
		<polygon class="st0" points="90.1,32.4 81.5,32.4 81.5,24 77.1,24 77.1,32.4 68.6,32.4 68.6,36.8 77.1,36.8 77.1,45.3 81.5,45.3 
			81.5,36.8 90.1,36.8 		"/>
	</g>
</g>
</svg>
