<?xml version="1.0" encoding="utf-8"?>
<!-- Generator: Adobe Illustrator 28.2.0, SVG Export Plug-In . SVG Version: 6.00 Build 0)  -->
<svg version="1.1" id="레이어_1" xmlns="http://www.w3.org/2000/svg" xmlns:xlink="http://www.w3.org/1999/xlink" x="0px"
	 y="0px" viewBox="0 0 104.9 104.9" style="enable-background:new 0 0 104.9 104.9;" xml:space="preserve">
<style type="text/css">
	.st0{fill:#E30613;}
</style>
<g transform="translate(1173.03 192.902)">
	<g>
		<path class="st0" d="M-1115.8-190.3l45,45c2.7,2.7,2.7,7,0,9.6l-45,45c-2.7,2.7-7,2.7-9.6,0l-45-45c-2.7-2.7-2.7-7,0-9.6l45-45
			C-1122.8-192.9-1118.4-192.9-1115.8-190.3z"/>
		<path d="M-1120.6-88c-2,0-3.9-0.8-5.3-2.2l-45-45c-1.4-1.4-2.2-3.3-2.2-5.3c0-2,0.8-3.9,2.2-5.3l45-45c2.9-2.9,7.6-2.9,10.5,0h0
			l45,45c1.4,1.4,2.2,3.3,2.2,5.3c0,2-0.8,3.9-2.2,5.3l-45,45C-1116.7-88.8-1118.6-88-1120.6-88z M-1120.6-191.7
			c-1.6,0-3.2,0.6-4.4,1.8l-45,45c-1.2,1.2-1.8,2.7-1.8,4.4c0,1.7,0.6,3.2,1.8,4.4l45,45c1.2,1.2,2.7,1.8,4.4,1.8s3.2-0.6,4.4-1.8
			l45-45c1.2-1.2,1.8-2.7,1.8-4.4c0-1.7-0.6-3.2-1.8-4.4l-45-45C-1117.4-191-1119-191.7-1120.6-191.7z"/>
	</g>
	<path d="M-1134.5-177.7h2v5.3c0,0.8,0,1.4,0.1,1.6c0.1,0.4,0.3,0.7,0.6,1c0.3,0.2,0.8,0.4,1.3,0.4c0.6,0,1-0.1,1.3-0.3
		c0.3-0.2,0.5-0.5,0.5-0.8c0.1-0.3,0.1-0.9,0.1-1.7v-5.4h2v5.1c0,1.2-0.1,2-0.2,2.5c-0.1,0.5-0.3,0.9-0.6,1.2
		c-0.3,0.3-0.7,0.6-1.1,0.8c-0.5,0.2-1.1,0.3-1.9,0.3c-0.9,0-1.6-0.1-2.1-0.3c-0.5-0.2-0.9-0.5-1.1-0.8c-0.3-0.3-0.5-0.7-0.6-1.1
		c-0.1-0.6-0.2-1.4-0.2-2.5L-1134.5-177.7z M-1125.1-171.1l1.9-0.2c0.1,0.6,0.3,1.1,0.7,1.4c0.4,0.3,0.8,0.5,1.4,0.5
		c0.6,0,1.1-0.1,1.4-0.4c0.3-0.3,0.5-0.6,0.5-0.9c0-0.2-0.1-0.4-0.2-0.6c-0.1-0.2-0.4-0.3-0.7-0.4c-0.2-0.1-0.8-0.2-1.6-0.4
		c-1.1-0.3-1.8-0.6-2.2-1c-0.6-0.5-0.9-1.2-0.9-2c0-0.5,0.1-1,0.4-1.4c0.3-0.4,0.7-0.8,1.2-1c0.5-0.2,1.2-0.3,1.9-0.3
		c1.2,0,2.1,0.3,2.8,0.8c0.6,0.5,0.9,1.3,1,2.1l-2,0.1c-0.1-0.5-0.3-0.9-0.5-1.1s-0.7-0.3-1.2-0.3c-0.6,0-1,0.1-1.3,0.4
		c-0.2,0.1-0.3,0.4-0.3,0.6c0,0.2,0.1,0.4,0.3,0.6c0.2,0.2,0.9,0.4,1.8,0.7s1.7,0.5,2.1,0.7c0.5,0.2,0.8,0.6,1.1,1
		c0.3,0.4,0.4,0.9,0.4,1.6c0,0.6-0.2,1.1-0.5,1.6c-0.3,0.5-0.8,0.9-1.3,1.1c-0.6,0.2-1.3,0.4-2.1,0.4c-1.2,0-2.2-0.3-2.8-0.9
		C-1124.6-169.2-1125-170-1125.1-171.1L-1125.1-171.1z M-1115.5-167.9v-9.8h2v4.3l4-4.3h2.6l-3.7,3.8l3.9,6h-2.5l-2.7-4.6l-1.6,1.6
		v2.9H-1115.5z"/>
	<path d="M-1124.4-162l-1.2-0.2c0.1-0.5,0.4-0.8,0.7-1c0.3-0.2,0.8-0.3,1.4-0.3c0.6,0,1,0.1,1.3,0.2c0.3,0.1,0.5,0.3,0.6,0.5
		c0.1,0.2,0.2,0.6,0.2,1.2l0,1.5c0,0.4,0,0.7,0.1,0.9c0,0.2,0.1,0.4,0.2,0.7h-1.3c0-0.1-0.1-0.3-0.1-0.4c0-0.1,0-0.1,0-0.2
		c-0.2,0.2-0.5,0.4-0.7,0.5c-0.3,0.1-0.5,0.2-0.8,0.2c-0.5,0-0.9-0.1-1.2-0.4c-0.3-0.3-0.4-0.6-0.4-1c0-0.3,0.1-0.5,0.2-0.7
		c0.1-0.2,0.3-0.4,0.6-0.5c0.2-0.1,0.6-0.2,1-0.3c0.6-0.1,1-0.2,1.3-0.3v-0.1c0-0.2-0.1-0.4-0.2-0.5c-0.1-0.1-0.4-0.2-0.7-0.2
		c-0.2,0-0.4,0-0.5,0.1C-1124.2-162.4-1124.4-162.2-1124.4-162L-1124.4-162z M-1122.7-160.9c-0.2,0.1-0.4,0.1-0.8,0.2
		c-0.4,0.1-0.6,0.2-0.7,0.2c-0.2,0.1-0.3,0.3-0.3,0.5c0,0.2,0.1,0.3,0.2,0.5c0.1,0.1,0.3,0.2,0.5,0.2c0.2,0,0.5-0.1,0.7-0.2
		c0.1-0.1,0.3-0.3,0.3-0.4c0-0.1,0.1-0.3,0.1-0.6L-1122.7-160.9z M-1120.2-158.6v-6.7h1.3v2.4c0.4-0.5,0.9-0.7,1.4-0.7
		c0.6,0,1.1,0.2,1.5,0.6c0.4,0.4,0.6,1,0.6,1.9c0,0.8-0.2,1.5-0.6,1.9c-0.4,0.4-0.9,0.7-1.4,0.7c-0.3,0-0.6-0.1-0.8-0.2
		c-0.3-0.1-0.5-0.4-0.7-0.6v0.7L-1120.2-158.6z M-1118.9-161.1c0,0.5,0.1,0.9,0.2,1.1c0.2,0.3,0.5,0.5,0.9,0.5
		c0.3,0,0.5-0.1,0.7-0.4c0.2-0.2,0.3-0.6,0.3-1.1c0-0.6-0.1-1-0.3-1.2c-0.2-0.2-0.5-0.4-0.8-0.4c-0.3,0-0.6,0.1-0.8,0.4
		C-1118.8-162-1118.9-161.6-1118.9-161.1z"/>
	<path d="M-1129.5-116.3h-6.8v-25.5c-2.5,2.3-5.4,4-8.7,5.1v-6.1c1.8-0.6,3.7-1.7,5.8-3.3c2.1-1.6,3.5-3.5,4.3-5.6h5.5V-116.3z
		 M-1113.5-135.3c-1.7-0.7-3-1.8-3.8-3c-0.8-1.3-1.2-2.7-1.2-4.2c0-2.6,0.9-4.8,2.8-6.5c1.8-1.7,4.4-2.6,7.8-2.6
		c3.4,0,6,0.9,7.8,2.6c1.9,1.7,2.8,3.9,2.8,6.5c0,1.6-0.4,3.1-1.3,4.4c-0.8,1.3-2,2.2-3.6,2.9c2,0.8,3.4,1.9,4.5,3.4
		c1,1.5,1.5,3.2,1.5,5.2c0,3.3-1,5.9-3.1,7.9c-2.1,2-4.8,3.1-8.3,3.1c-3.2,0-5.9-0.8-8-2.5c-2.5-2-3.8-4.7-3.8-8.2
		c0-1.9,0.5-3.7,1.4-5.3C-1117.1-133.2-1115.6-134.5-1113.5-135.3L-1113.5-135.3z M-1112.1-142.2c0,1.3,0.4,2.4,1.1,3.2
		c0.8,0.8,1.8,1.1,3,1.1c1.3,0,2.3-0.4,3.1-1.1c0.8-0.8,1.2-1.8,1.2-3.2c0-1.3-0.4-2.3-1.1-3s-1.8-1.1-3-1.1c-1.3,0-2.3,0.4-3.1,1.2
		S-1112.1-143.4-1112.1-142.2L-1112.1-142.2z M-1112.8-127c0,1.9,0.5,3.3,1.4,4.4c1,1,2.1,1.6,3.6,1.6c1.4,0,2.6-0.5,3.5-1.5
		c0.9-1,1.4-2.4,1.4-4.3c0-1.7-0.5-3-1.4-4c-0.9-1-2.1-1.5-3.5-1.5c-1.7,0-2.9,0.6-3.7,1.7C-1112.4-129.6-1112.8-128.4-1112.8-127z"
		/>
</g>
</svg>
