<?xml version="1.0" encoding="UTF-8"?>
<svg id="_레이어_1" data-name="레이어 1" xmlns="http://www.w3.org/2000/svg" viewBox="0 0 156.874 73.984">
  <defs>
    <style>
      .cls-1 {
        stroke-width: 0px;
      }
    </style>
  </defs>
  <path class="cls-1" d="M17.355,11.503c-4.049,3.272-7.63,5.916-10.9,8.9-2.14,1.953-3.371,1.315-4.641-.723-1.009-1.619-3.396-2.838-.226-5.02,5.194-3.576,10.082-7.601,15.044-11.506,2.393-1.884,5.098-1.052,7.676-1.026,1.789.018,1.21,1.684,1.212,2.707.031,21.776-.031,43.552.069,65.328.02,4.323-3.002,2.342-4.864,2.709-2.717.535-3.708-.535-3.675-3.455.207-18.114.225-36.23.305-54.345.004-.919,0-1.838,0-3.567Z"/>
  <path class="cls-1" d="M129.409,23.275c0-1.994.128-3.997-.03-5.978-.23-2.873.153-4.448,3.839-4.428,3.651.019,3.503,1.82,3.455,4.304-.087,4.484.12,8.977-.079,13.454-.116,2.602.658,3.512,3.326,3.392,4.48-.201,8.979.046,13.464-.095,2.384-.074,3.662.326,3.473,3.178-.155,2.339.037,4.131-3.293,3.902-4.303-.295-8.658.167-12.958-.146-3.461-.252-4.182,1.126-4.017,4.235.237,4.473-.144,8.98.127,13.449.2,3.294-1.544,3.252-3.95,3.337-2.609.092-3.515-.719-3.407-3.369.188-4.644-.1-9.308.108-13.95.124-2.757-.605-3.844-3.547-3.688-4.477.237-8.988-.147-13.46.133-3.083.193-3.017-1.427-3.082-3.614-.07-2.367.296-3.66,3.176-3.491,4.308.252,8.65-.101,12.962.123,2.928.152,4.344-.517,3.947-3.775-.279-2.292-.054-4.645-.054-6.971Z"/>
  <path class="cls-1" d="M95.673,12.825C91.294,3.309,84.552-.607,73.191.076c-9.222.554-14.726,6.034-17.841,14.341-2.185,5.828-2.952,11.925-3.153,18.072-.321,9.837-.011,19.644,4.214,28.813,4.131,8.965,11.119,13.124,21.101,12.644,9.212-.443,15.186-5.076,18.655-13.301,3.096-7.34,3.6-15.127,3.687-22.967.024-8.525-.548-16.96-4.18-24.854ZM88.615,56.536c-2.227,6.756-6.566,10.268-12.508,10.366-6.094.101-10.877-3.477-12.791-10.554-3.495-12.923-3.491-25.996.045-38.914,1.862-6.802,6.477-10.311,12.415-10.411,5.841-.098,10.511,3.489,12.745,10.068,2.169,6.386,2.486,13.034,2.35,19.715.128,6.677-.144,13.325-2.255,19.73Z"/>
</svg>