<?xml version="1.0" encoding="UTF-8"?>
<svg id="_레이어_1" data-name="레이어 1" xmlns="http://www.w3.org/2000/svg" viewBox="0 0 156.624 73.4">
  <defs>
    <style>
      .cls-1 {
        stroke-width: 0px;
      }
    </style>
  </defs>
  <path class="cls-1" d="M83.412,34.79c1.113.569,1.66.952,2.267,1.144,8.831,2.807,12.424,6.851,13.131,14.827.735,8.298-3.146,15.787-10.769,19.13-11.171,4.899-22.635,4.298-34.016.476-2.014-.676-3.654-6.82-2.205-8.066,1.244-1.069,2.433.203,3.614.603,7.797,2.646,15.659,4.361,23.93,2.277,6.865-1.73,10.521-6.249,10.451-13.221-.062-6.225-3.791-10.417-10.722-11.778-4.411-.866-8.893-1.421-13.395-1.009-2.726.25-3.299-.837-3.304-3.375-.006-2.652.46-4.001,3.49-3.697,3.657.367,7.327.02,10.883-.953,4.891-1.338,8.853-3.834,10.344-9.065,2.285-8.015-2.462-14.325-11.347-14.847-5.97-.351-11.665,1.159-16.57,4.456-3.707,2.492-4.491-.445-6.008-2.349-2.361-2.965.942-3.332,2.22-4.116C63.568.219,72.544-1.051,81.789.822c9.294,1.882,14.152,7.417,14.762,15.735.647,8.831-3.3,14.503-13.139,18.233Z"/>
  <path class="cls-1" d="M16.9,10.857c-3.689,2.991-7.002,5.472-10.064,8.23-2.129,1.918-3.518,2.372-5.464-.354-1.615-2.263-2.225-3.484.551-5.365,4.808-3.258,9.416-6.846,13.86-10.589,2.542-2.142,5.303-1.446,8.043-1.545,1.815-.066,1.494,1.407,1.494,2.507.012,21.941-.009,43.883.024,65.824.007,4.409-3.25,2.034-5.06,2.466-3.036.724-3.441-1.076-3.429-3.661.085-18.926.046-37.853.046-57.512Z"/>
  <path class="cls-1" d="M129.2,22.686c0-1.993.034-3.986-.009-5.978-.054-2.524-.503-4.692,3.596-4.675,3.979.016,3.717,1.997,3.672,4.611-.077,4.482.101,8.972-.07,13.449-.092,2.411.723,3.175,3.103,3.096,4.648-.154,9.317.147,13.955-.115,2.902-.164,3.235,1.135,3.167,3.485-.063,2.174.048,3.834-3.072,3.621-4.301-.294-8.648.11-12.955-.134-3.13-.178-4.466.563-4.229,4.022.318,4.628-.082,9.301.134,13.941.143,3.061-1.559,2.98-3.729,3.025-2.314.049-3.751-.214-3.621-3.137.214-4.806-.08-9.634.112-14.443.103-2.588-.64-3.523-3.318-3.403-4.478.201-8.986-.157-13.455.125-3.27.206-3.204-1.485-3.346-3.887-.169-2.863,1.112-3.262,3.486-3.184,4.151.136,8.321-.156,12.46.1,3.175.197,4.6-.647,4.169-4.051-.269-2.125-.05-4.311-.05-6.47Z"/>
</svg>