<?xml version="1.0" encoding="UTF-8"?>
<svg id="_레이어_1" data-name="레이어 1" xmlns="http://www.w3.org/2000/svg" viewBox="0 0 156.888 73.184">
  <defs>
    <style>
      .cls-1 {
        stroke-width: 0px;
      }
    </style>
  </defs>
  <path class="cls-1" d="M17.162,10.791c-3.987,3.237-7.582,5.914-10.881,8.916-2.414,2.197-3.435.506-4.58-1.161-.994-1.446-3.149-2.615-.227-4.648,5.178-3.603,10.099-7.581,15.042-11.51,2.549-2.026,5.574-1.688,8.074-.96,2.112.615.944,3.482.952,5.305.081,20.279-.02,40.559.123,60.838.023,3.245-.408,4.674-4.185,4.585-3.44-.081-4.436-.904-4.403-4.422.181-18.741.085-37.484.085-56.943Z"/>
  <path class="cls-1" d="M129.463,50.569q0-10.526-10.545-10.526c-1.829,0-3.671-.137-5.484.032-2.784.259-4.056-.284-4.103-3.649-.053-3.765,1.981-3.388,4.345-3.364,4.156.042,8.32-.128,12.468.062,2.595.119,3.492-.673,3.377-3.34-.207-4.809.161-9.646-.13-14.446-.205-3.37,1.62-3.172,3.953-3.267,2.537-.103,3.541.563,3.418,3.293-.217,4.808.094,9.639-.118,14.448-.119,2.704.851,3.409,3.405,3.312,4.649-.176,9.316.1,13.962-.106,2.667-.118,2.989,1.127,2.852,3.266-.124,1.945.48,3.998-2.82,3.818-4.476-.243-8.984.109-13.462-.118-2.955-.149-4.161.567-3.955,3.797.296,4.633-.079,9.305.131,13.947.127,2.802-1.079,3.252-3.518,3.263-2.571.012-4.138-.339-3.823-3.449.234-2.302.046-4.647.045-6.973Z"/>
  <path class="cls-1" d="M84.748,28.513c-8.382-1.677-16.425-.503-22.786,7.062,1.38-22.94,11.33-31.284,32.431-27.624-.745-2.809,2.758-7.152-3.063-7.685-18.939-1.733-32.61,4.8-36.851,25.556-2.425,11.868-3.115,23.81,2.486,35.111,4.59,9.261,13.284,13.324,24.631,12.009,8.41-.974,15.255-7.046,17.524-15.546,3.751-14.051-2.184-26.445-14.371-28.884ZM77.642,66.016c-8.783.139-15.723-7.591-15.851-17.656-.097-7.619,6.498-13.431,15.395-13.567,9.282-.142,14.213,4.884,14.305,14.578.096,10.152-5.192,16.507-13.849,16.644Z"/>
</svg>