<?xml version="1.0" encoding="utf-8"?>
<!-- Generator: Adobe Illustrator 28.2.0, SVG Export Plug-In . SVG Version: 6.00 Build 0)  -->
<svg version="1.1" id="_레이어_1" xmlns="http://www.w3.org/2000/svg" xmlns:xlink="http://www.w3.org/1999/xlink" x="0px"
	 y="0px" viewBox="0 0 105 71" style="enable-background:new 0 0 105 71;" xml:space="preserve">
<path d="M9.5,70.8c9.8-21.1,19.4-41.6,29.3-63c-12,0-23.4,0-34.8,0c-2.5,0-3.9-0.2-4-3.4C-0.1,1.1,0.7-0.1,4.3,0
	c12.5,0.2,25,0.1,37.4,0.1c7.2,0,8.4,2,5.3,8.9c-4.1,9.2-8.4,18.5-12.5,27.7c-4.1,8.9-8.1,17.8-12.2,26.8
	C19.9,68.7,15.6,71.1,9.5,70.8L9.5,70.8z"/>
<path d="M84.8,49.3c0,2.2-0.1,4.3,0,6.5C85,58.2,85,60,81.4,60c-3.7,0-4-1.5-3.9-4.4c0.2-4.1-0.2-8.3,0.1-12.4
	c0.3-3.7-1.1-4.5-4.5-4.2c-4,0.3-8-0.1-12,0.1c-2.7,0.1-3.8-0.5-3.8-3.5c0-2.8,0.8-3.7,3.6-3.6c4.5,0.2,9-0.1,13.5,0.1
	c2.4,0.1,3.1-0.7,3.1-3.1c-0.2-5,0.2-10-0.1-14.9c-0.2-3.2,1.5-3,3.7-3c2,0,4-0.3,3.8,2.9c-0.2,4.5,0.3,9-0.1,13.4
	c-0.4,4.2,1.3,5,5,4.7c4.1-0.3,8.3,0.1,12.5-0.1c2.7-0.1,2.9,1.2,2.9,3.3c-0.1,2.1,0.2,3.9-2.9,3.8c-4.5-0.2-9,0.1-13.5-0.1
	c-3.1-0.2-4.2,0.7-3.8,3.8C85,44.9,84.8,47.1,84.8,49.3L84.8,49.3z"/>
</svg>
