<?xml version="1.0" encoding="UTF-8"?>
<svg id="_레이어_1" data-name="레이어 1" xmlns="http://www.w3.org/2000/svg" viewBox="0 0 156.805 73.289">
  <defs>
    <style>
      .cls-1 {
        stroke-width: 0px;
      }
    </style>
  </defs>
  <path class="cls-1" d="M17.072,10.927c-3.865,3.133-7.448,5.791-10.727,8.781-2.215,2.02-3.373,1.067-4.64-.852-1.093-1.654-3.166-2.911-.097-5.008,5.07-3.464,9.891-7.314,14.643-11.214,2.407-1.975,5.037-1.218,7.612-1.332,2.191-.097,1.621,1.672,1.623,2.869.024,21.613-.08,43.227.106,64.838.034,4.004-2.324,2.981-4.484,3.178-2.73.249-4.157-.15-4.123-3.602.187-18.947.089-37.896.089-57.659Z"/>
  <path class="cls-1" d="M129.383,22.459c0-1.993.053-3.988-.014-5.979-.081-2.423-.324-4.358,3.402-4.353,3.608.005,4.027,1.447,3.9,4.391-.192,4.476.109,8.975-.109,13.448-.133,2.718.877,3.395,3.414,3.301,4.648-.172,9.313.099,13.958-.105,2.673-.118,2.963,1.146,2.85,3.274-.105,1.985.403,3.974-2.856,3.807-4.642-.238-9.31.065-13.957-.109-2.547-.095-3.539.605-3.409,3.311.215,4.474-.02,8.968.088,13.45.061,2.548.088,4.256-3.503,4.323-3.843.072-3.871-1.782-3.797-4.535.12-4.481-.091-8.973.081-13.451.093-2.419-.738-3.183-3.112-3.093-4.149.158-8.31-.013-12.464.064-2.6.048-4.649.366-4.618-3.646.033-4.28,2.584-3.291,4.862-3.325,3.822-.056,7.659-.209,11.465.046,3.049.204,4.239-.705,3.872-3.851-.267-2.294-.052-4.644-.052-6.97Z"/>
  <path class="cls-1" d="M89.828,37.656c-1.645-1.069-3.385-1.991-5.385-3.157,2.409-1.74,4.777-3.232,6.891-5.022,4.979-4.217,7.001-9.639,5.708-16.064-1.278-6.352-5.633-9.975-11.499-11.976-5.166-1.762-10.597-1.731-15.802-.831-12.975,2.244-18.998,14.143-13.016,24.958,2.262,4.089,5.973,6.608,9.839,9.125-2.159,1.396-4.305,2.62-6.273,4.083-6.839,5.083-9.422,11.895-7.54,20.175,1.742,7.661,7.099,11.558,14.467,13.407,4.799,1.204,9.626,1.055,14.381.602,9.005-.859,15.892-6.833,17.611-14.584,1.894-8.54-1.19-15.389-9.383-20.716ZM63.101,17.231c.084-6.373,4.815-10.098,12.801-10.079,8.273.02,12.94,3.854,12.816,10.529-.104,5.566-7.255,13.132-12.454,13.177-5.538.047-13.239-7.925-13.164-13.626ZM75.908,66.276c-9.626-.009-15.042-4.341-15.073-12.057-.028-6.749,7.904-15.81,13.705-15.659,7.197.188,16.579,9.078,16.47,15.605-.129,7.714-5.623,12.119-15.102,12.11Z"/>
</svg>