<?xml version="1.0" encoding="UTF-8"?>
<svg id="_레이어_1" data-name="레이어 1" xmlns="http://www.w3.org/2000/svg" viewBox="0 0 165.492 72.004">
  <defs>
    <style>
      .cls-1 {
        stroke-width: 0px;
      }
    </style>
  </defs>
  <path class="cls-1" d="M36.865,2.815C35.825.103,34.195-.014,31.914.001c-2.237.015-4.092-.076-4.979,2.742-1.292,4.105-3.079,8.055-4.653,12.071C14.904,33.643,7.526,52.473,0,71.681q8.813.461,11.657-6.797c1.575-4.016,3.348-7.968,4.671-12.065.818-2.534,2.143-3.27,4.697-3.21,6.814.162,13.647.302,20.447-.046,3.545-.181,5.044,1.168,6.041,4.292,1.209,3.786,2.848,7.435,4.295,11.146q2.943,7.549,11.407,6.526c0-.326.096-.687-.014-.968C54.408,47.983,45.539,25.436,36.865,2.815ZM20.824,41.612c3.63-9.833,7.212-19.536,11.067-29.978,3.799,10.317,7.339,19.933,11.038,29.978h-22.104Z"/>
  <path class="cls-1" d="M109.354,63.953c-7.645.238-15.312-.164-22.949.176-3.885.173-4.634-1.108-4.596-4.735.189-18.113-.05-36.231.194-54.343.053-3.944-1.589-4.039-4.641-4.117-3.329-.085-4.605.628-4.512,4.297.264,10.464.093,20.938.093,31.408s.112,20.942-.071,31.409c-.052,3.006.658,3.997,3.824,3.939,10.975-.201,21.958-.19,32.934-.005,3.063.051,3.912-.76,3.912-3.861,0-3.258-.882-4.272-4.189-4.169Z"/>
  <path class="cls-1" d="M161.304,63.953c-7.645.238-15.312-.165-22.949.176-3.888.173-4.633-1.111-4.596-4.735.188-18.113-.051-36.231.194-54.343.053-3.944-1.591-4.038-4.641-4.116-3.33-.085-4.606.629-4.512,4.297.266,10.297.093,20.606.093,30.91,0,10.636.111,21.275-.071,31.908-.051,3.007.659,3.996,3.824,3.939,10.975-.201,21.958-.19,32.934-.005,3.063.052,3.912-.761,3.912-3.861,0-3.258-.883-4.272-4.189-4.169Z"/>
</svg>