<?xml version="1.0" encoding="UTF-8"?>
<svg id="_레이어_1" data-name="레이어 1" xmlns="http://www.w3.org/2000/svg" version="1.1" xmlns:cc="http://creativecommons.org/ns#" xmlns:dc="http://purl.org/dc/elements/1.1/" xmlns:inkscape="http://www.inkscape.org/namespaces/inkscape" xmlns:rdf="http://www.w3.org/1999/02/22-rdf-syntax-ns#" xmlns:sodipodi="http://sodipodi.sourceforge.net/DTD/sodipodi-0.dtd" xmlns:svg="http://www.w3.org/2000/svg" viewBox="0 0 133.9 106.9">
  <defs>
    <style>
      .cls-1 {
        fill: #fff;
        stroke-width: 0px;
      }
    </style>
  </defs>
  <path id="path217" class="cls-1" d="M44.8.4v105h-19.1v-60.1c0-10,0-12.9-8.6-12.9H0v-12h2c9.8-.2,23-.3,27.2-20.1h15.6,0Z" inkscape:connector-curvature="0"/>
  <path id="path219" class="cls-1" d="M126.3,17.7h-40.9l-3.6,23.2c4.7-4.7,12.1-7.8,20.2-7.8,18.7,0,31.9,13.9,31.9,35s-14.2,38.8-39,38.8-13.8-1.3-19.9-4.4c-14.6-7.8-15.7-21.3-16.2-26.5l21.8-1.6c.5,10.8,7.2,15.6,15.1,15.6s6.7-.8,9.2-2.5c4.7-3.1,7.9-10.4,7.9-18.7,0-13.1-8.1-19.8-17.4-19.8s-13.2,3.3-15.7,9.8l-17.6-1.1L69.6,0h58.4l-1.6,17.6h-.1Z" inkscape:connector-curvature="0"/>
</svg>