<?xml version="1.0" encoding="UTF-8"?>
<svg id="_레이어_1" data-name="레이어 1" xmlns="http://www.w3.org/2000/svg" version="1.1" xmlns:cc="http://creativecommons.org/ns#" xmlns:dc="http://purl.org/dc/elements/1.1/" xmlns:inkscape="http://www.inkscape.org/namespaces/inkscape" xmlns:rdf="http://www.w3.org/1999/02/22-rdf-syntax-ns#" xmlns:sodipodi="http://sodipodi.sourceforge.net/DTD/sodipodi-0.dtd" xmlns:svg="http://www.w3.org/2000/svg" viewBox="0 0 149 92.1">
  <defs>
    <style>
      .cls-1 {
        fill: #fff;
        stroke-width: 0px;
      }
    </style>
  </defs>
  <path id="path193" class="cls-1" d="M.1,2.3h29.5c4.8,0,9.9,0,15,1.4,8.6,2.4,20.6,10.1,20.6,27.8s-5.5,24.2-21.1,27.7c-4.9,1.1-9.4,1.1-14.8,1.1h-12.8v29.7H0V2.4h.1ZM16.6,16.3v30.4h11.8c3.5,0,6.5,0,9.3-.8,10.2-2.5,10.8-11.8,10.8-14.9,0-6.5-2.8-9.8-4.3-11.2-4.1-3.5-9.8-3.6-15.2-3.6h-12.4Z" inkscape:connector-curvature="0"/>
  <path id="path195" class="cls-1" d="M148.9,42v47.9h-14v-7.5c-7.8,7.7-16.6,9.7-24,9.7-27,0-41.3-21.6-41.3-45.2S87.8,0,111.9,0s31.7,11.2,37,25.8l-15.6,6.3c-1.6-4.8-6.3-17.4-21.2-17.4s-24.6,14.4-24.6,31.6,10.6,30.3,24.8,30.3,20.1-4.8,21.6-20.4h-21.8v-14.4h36.9v.2Z" inkscape:connector-curvature="0"/>
</svg>