<?xml version="1.0" encoding="UTF-8"?>
<svg xmlns="http://www.w3.org/2000/svg" version="1.1" xmlns:cc="http://creativecommons.org/ns#" xmlns:dc="http://purl.org/dc/elements/1.1/" xmlns:inkscape="http://www.inkscape.org/namespaces/inkscape" xmlns:rdf="http://www.w3.org/1999/02/22-rdf-syntax-ns#" xmlns:sodipodi="http://sodipodi.sourceforge.net/DTD/sodipodi-0.dtd" xmlns:svg="http://www.w3.org/2000/svg" viewBox="0 0 664.9 665.3">
  <defs>
    <style>
      .cls-1 {
        fill: #000;
      }

      .cls-1, .cls-2 {
        stroke-width: 0px;
      }

      .cls-2 {
        fill: #fff;
      }
    </style>
  </defs>
  <g id="svg4105" sodipodi:docname="FSK_ab_0.svg" sodipodi:version="0.32">
    <g id="layer1">
      <path id="path2808" class="cls-2" d="M332.3,661.5c181.6,0,328.8-147.2,328.8-328.8S513.9,3.9,332.3,3.9,3.5,151.1,3.5,332.7s147.2,328.8,328.8,328.8"/>
      <path id="path2824" class="cls-1" d="M331.7,123.5c-9,0-15.9-2-20.7-6.3-4.8-4.1-7.7-10.2-8.7-18.2l14-1.3c.9,4.6,2.6,8.2,5.1,10.3,2.6,2.2,6.1,3.3,10.5,3.3s8-1,10.3-3.1c2.3-1.9,3.5-4.2,3.5-6.8s-.4-3.1-1.5-4.2c-1-1.2-2.6-2.2-5.1-3.1-1.7-.6-5.5-1.6-11.5-3-7.7-1.9-13.1-4.4-16.2-7.1-4.4-3.8-6.5-8.6-6.5-14.3s1-7,3.1-10.1c2-3.2,5.1-5.5,8.9-7.3,3.9-1.6,8.4-2.5,14-2.5,8.9,0,15.6,2.1,20.1,5.9,4.5,3.9,6.8,9.2,7.1,15.7l-14.4.6c-.6-3.6-1.9-6.3-3.9-7.9-2-1.6-5-2.3-9-2.3s-7.4.9-9.8,2.5c-1.6,1.1-2.3,2.6-2.3,4.5s.7,3.1,2.2,4.2c1.7,1.6,6.1,3.2,13.1,4.8,7,1.6,12.2,3.3,15.6,5.1,3.2,1.8,5.8,4.1,7.7,7.2,1.9,3.1,2.9,6.9,2.9,11.4s-1.2,7.9-3.3,11.5c-2.3,3.5-5.5,6.1-9.6,7.9-4.2,1.7-9.3,2.6-15.4,2.6M436.4,122.2h-18.6l-19.5-33.3-11.6,11.9v21.4h-14.3V51.3h14.3v31.4l29-31.4h19.4l-26.8,27.5,28.2,43.4M259.7,122.2h-14.3V51.3h48.6v12h-34.4v16.7h29.7v12.1h-29.7v30.1"/>
      <path id="path2826" class="cls-1" d="M356.1,192.7c-2.2,0-4.4-.6-6.4-1.6-2-1.2-3.9-2.8-5.4-4.8v5.5h-9.3v-52.1h10v18.8c3.1-3.5,6.7-5.2,10.9-5.2s8.4,1.6,11.4,4.9c3.1,3.4,4.5,8.2,4.5,14.4s-1.5,11.4-4.5,14.8c-3.1,3.5-6.8,5.2-11.2,5.2M353.4,160.8c-2.5,0-4.5,1-6,2.8-1.6,1.9-2.5,4.8-2.5,8.6s.6,6.7,1.9,8.6c1.8,2.6,4.1,4.1,6.8,4.1s4.1-1,5.7-2.9c1.6-1.9,2.3-4.8,2.3-8.9s-.7-7.4-2.3-9.3c-1.6-1.9-3.6-2.9-6-2.9M304.9,192.7c-3.9,0-7-1-9.2-3.2-2.2-2-3.3-4.8-3.3-8s.4-4.1,1.5-5.6c1-1.8,2.5-2.9,4.4-3.8,1.8-1,4.5-1.7,7.9-2.3,4.7-.9,8-1.7,9.8-2.5v-1c0-1.9-.4-3.4-1.5-4.1-.9-.9-2.8-1.3-5.4-1.3s-3.1.4-4.1,1c-1,.7-1.9,2-2.5,3.8l-9-1.6c1-3.8,2.8-6.4,5.2-8.2,2.5-1.7,6.3-2.6,11.1-2.6s7.9.4,10.1,1.6c2.2,1,3.6,2.3,4.5,4,.9,1.6,1.3,4.6,1.3,9v11.7c0,3.2.1,5.7.4,7.3.3,1.6.9,3.4,1.8,5.1h-9.9l-.9-2.9-.4-1.1c-1.6,1.6-3.5,2.9-5.4,3.6-2,.9-4.1,1.3-6.3,1.3M315.8,173.7c-1.3.4-3.4,1-6.1,1.6-2.8.6-4.5,1.2-5.4,1.8l-2,3.5,1.6,3.6c1,1,2.3,1.5,4.1,1.5s3.5-.6,5.1-1.7l2.3-3.4c.3-.7.4-2.3.4-4.8v-2"/>
      <path id="path2830" class="cls-1" d="M346.2,571.9c-6.7,0-11.4-1.2-14.3-3.5-2.8-2.3-4.1-5.1-4.1-8.8v-1.1l11.9,1.5,1.3,2.8c1,.7,2.6,1.2,4.7,1.2s4.8-.5,6.1-1.2l2.2-2.8c.3-.7.4-2.3.4-4.7v-5.8c-3.1,4.2-7,6.4-11.8,6.4s-9.5-2.2-12.7-6.7c-2.3-3.7-3.6-8-3.6-13.3s1.6-11.6,4.8-15.1c3.2-3.5,7.1-5.3,11.9-5.3s8.9,2.2,12.1,6.4v-5.5h9.8v35.4c0,4.6-.4,8.2-1.2,10.5-.9,2.3-1.9,4.1-3.2,5.4-1.5,1.3-3.3,2.3-5.7,3.1-2.2.7-5.2,1.2-8.7,1.2M345.8,523.6c-2.5,0-4.5.9-6.1,2.9-1.8,1.9-2.5,4.9-2.5,8.9s.7,7.3,2.5,9.2c1.6,1.9,3.5,2.9,6,2.9s4.7-1,6.4-2.9c1.7-2,2.6-4.9,2.6-8.9s-.9-7.1-2.5-9.2c-1.7-1.9-3.8-2.9-6.4-2.9M257.6,571.9c-6.7,0-11.5-1.2-14.3-3.5-2.8-2.3-4.2-5.1-4.2-8.8v-1.1c.1,0,11.9,1.5,11.9,1.5l1.5,2.8c1,.7,2.5,1.2,4.7,1.2s4.8-.5,6.1-1.2l2-2.8c.3-.7.6-2.3.6-4.7v-5.8c-3.2,4.2-7.1,6.4-11.9,6.4s-9.5-2.2-12.5-6.7c-2.5-3.7-3.6-8-3.6-13.3s1.6-11.6,4.8-15.1c3.2-3.5,7.1-5.3,11.8-5.3s8.9,2.2,12.1,6.4v-5.5h9.8v35.4c0,4.6-.3,8.2-1.2,10.5-.7,2.3-1.7,4.1-3.2,5.4-1.3,1.3-3.2,2.3-5.5,3.1-2.3.7-5.2,1.2-8.7,1.2M257.1,523.6c-2.6,0-4.7.9-6.3,2.9-1.6,1.9-2.5,4.9-2.5,8.9s.9,7.3,2.5,9.2c1.6,1.9,3.6,2.9,6,2.9s4.8-1,6.6-2.9c1.7-2,2.6-4.9,2.6-8.9s-.9-7.1-2.6-9.2c-1.6-1.9-3.8-2.9-6.3-2.9M480.1,556.8c-6.8,0-11.9-2.2-15.1-6.7-2.6-3.6-3.9-8.2-3.9-13.7s1.8-11.5,5.1-15.3c3.5-3.6,7.7-5.5,13-5.5s10.5,1.9,14,5.9c3.3,3.8,5,9.7,4.8,17.8h-26.1c0,3,.9,5.5,2.5,7.3,1.6,1.7,3.6,2.5,6,2.5s3.1-.4,4.1-1.3c1.2-.9,2-2.3,2.6-4.2l10.3,1.8c-1.3,3.8-3.3,6.7-6.3,8.7-2.9,1.9-6.6,2.9-10.9,2.9M479.8,523.6c-2.3,0-4.2.7-5.7,2.5-1.5,1.6-2.2,3.9-2.2,6.7h15.6c-.2-2.9-.9-5.2-2.3-6.9-1.5-1.6-3.3-2.3-5.4-2.3M439.2,556.8c-2.2,0-4.5-.6-6.7-1.7-2.2-1-4.1-2.8-5.7-5v5.9h-9.6v-54.5h10.5v19.7c3.2-3.6,7-5.5,11.4-5.5s8.7,1.8,11.9,5.3c3.2,3.5,4.7,8.4,4.7,15s-1.6,12-4.8,15.4c-3.2,3.8-7,5.5-11.6,5.5M436.2,523.6c-2.5,0-4.5.9-6.3,2.9-1.6,1.9-2.5,4.8-2.5,8.9s.6,7,1.9,9c1.9,2.8,4.2,4.1,7.3,4.1s4.2-.9,5.8-2.9c1.6-1.9,2.5-5.1,2.5-9.3s-.9-7.7-2.5-9.8c-1.6-1.9-3.8-2.9-6.3-2.9M391.4,556.8c-6.8,0-11.9-2.2-15.3-6.7-2.5-3.6-3.8-8.2-3.8-13.7s1.6-11.5,5.1-15.3c3.3-3.6,7.7-5.5,13-5.5s10.5,1.9,13.8,5.9c3.3,3.8,5.1,9.7,5,17.8h-26.2c.1,3,.9,5.5,2.5,7.3,1.6,1.7,3.6,2.5,6.1,2.5s2.9-.4,4.1-1.3c1.2-.9,1.9-2.3,2.5-4.2l10.5,1.8c-1.3,3.8-3.5,6.7-6.4,8.7-2.9,1.9-6.4,2.9-10.8,2.9M390.9,523.6c-2.2,0-4.1.7-5.7,2.5-1.5,1.6-2.2,3.9-2.2,6.7h15.6c0-2.9-.7-5.2-2.3-6.9-1.5-1.6-3.2-2.3-5.4-2.3M302.6,556.8c-6.8,0-11.8-2.2-15.1-6.7-2.6-3.6-3.9-8.2-3.9-13.7s1.8-11.5,5.1-15.3c3.5-3.6,7.9-5.5,13-5.5s10.5,1.9,14,5.9c3.3,3.8,5,9.7,4.8,17.8h-26.1c0,3,.9,5.5,2.5,7.3,1.6,1.7,3.6,2.5,6,2.5s3.1-.4,4.2-1.3c1-.9,1.9-2.3,2.5-4.2l10.3,1.8c-1.3,3.8-3.4,6.7-6.3,8.7-2.9,1.9-6.6,2.9-10.9,2.9M302.3,523.6c-2.3,0-4.2.7-5.7,2.5-1.4,1.6-2.2,3.9-2.2,6.7h15.6c0-2.9-.9-5.2-2.3-6.9-1.5-1.6-3.3-2.3-5.4-2.3M192.8,556.8c-6.8,0-11.9-2.2-15.3-6.7-2.5-3.6-3.8-8.2-3.8-13.7s1.6-11.5,5.1-15.3c3.3-3.6,7.7-5.5,13-5.5s10.5,1.9,13.8,5.9c3.5,3.8,5.1,9.7,5,17.8h-26.2c.1,3,.9,5.5,2.5,7.3,1.7,1.7,3.6,2.5,6.1,2.5s2.9-.4,4.1-1.3c1.2-.9,2-2.3,2.5-4.2l10.5,1.8c-1.3,3.8-3.5,6.7-6.4,8.7-2.8,1.9-6.4,2.9-10.8,2.9M192.3,523.6c-2.2,0-4.1.7-5.7,2.5-1.5,1.6-2.2,3.9-2.2,6.7h15.6c0-2.9-.7-5.2-2.3-6.9-1.5-1.6-3.2-2.3-5.4-2.3M542.3,555.9h-10.5v-20.1c0-4.4-.2-7-.7-8.3l-2-2.9-3.6-1c-1.9,0-3.5.4-5,1.5-1.5,1-2.3,2.3-2.9,3.9-.6,1.6-.7,4.7-.7,9v17.9h-10.5v-39.5h9.6v5.8c3.5-4.5,7.9-6.7,13.1-6.7s4.4.5,6.3,1.3c1.9.7,3.3,1.9,4.4,3,.9,1.3,1.6,2.8,2,4.4.3,1.7.6,4.1.6,7.1v24.5M229.5,555.9h-10.5v-39.5h10.5v39.5M157.1,555.9h-10.5v-39.5h9.8v5.7c1.6-2.8,3.1-4.5,4.5-5.2,1.3-.9,2.8-1.3,4.5-1.3s4.7.6,6.8,2.1l-3.2,9c-1.9-1.1-3.5-1.7-5-1.7s-2.8.4-3.8,1.3c-1,.7-1.7,2.2-2.3,4.2-.6,2.2-.9,6.6-.9,13.3v12.2M133.5,555.9h-10.5v-31.3h-5.8v-8.2h5.8v-2.9c0-3.3.3-5.9,1-7.4.7-1.8,2-3.1,3.9-4.1,1.9-1,4.2-1.5,7.1-1.5s6,.4,8.7,1.3l-1.5,7.3c-1.6-.4-3.2-.6-4.7-.6s-2.6.3-3.3,1c-.6.7-.9,2.1-.9,4.1v2.8h7.7v8.2h-7.7v31.3M229.5,511h-10.5v-9.6h10.5v9.6"/>
      <path id="rect5557" class="cls-1" d="M332.4,0C148.8,0,0,149.2,0,332.8s148.8,332.4,332.4,332.4,332.4-148.8,332.4-332.4S516.1,0,332.4,0ZM332.4,7.6c89.8,0,171.1,36.5,229.9,95.3,58.8,58.8,94.9,140,94.9,229.9s-36.1,170.9-94.9,229.9c-58.8,58.8-140,94.9-229.9,94.9s-170.9-36.1-229.9-94.9C43.7,503.7,7.2,422.5,7.2,332.8S43.7,161.7,102.5,102.9C161.5,44.1,242.7,7.6,332.4,7.6ZM199.5,32c-7.8,3.5-15.7,7.2-23.2,11.2,7.6-4.1,15.3-7.7,23.2-11.2ZM157.4,54.1c-6.7,4.2-13.3,9-19.6,13.6,6.4-4.7,12.9-9.4,19.6-13.6ZM564.7,100.1c7.4,7.4,14.6,15.2,21.2,23.2-6.7-8.1-13.8-15.8-21.2-23.2ZM596,136.2c6.3,8.4,12.1,17,17.6,26-5.4-8.9-11.4-17.7-17.6-26ZM654.8,269.1c2.9,14.8,5.2,29.8,6,45.3-.8-15.4-3.1-30.5-6-45.3ZM660.8,349.6c-.9,16.8-3.1,33.2-6.4,49.3,3.3-16.1,5.6-32.5,6.4-49.3ZM628.8,475.4c-4.6,9.5-9.8,18.7-15.2,27.6,5.5-9,10.6-18.1,15.2-27.6ZM36,475.8c2.3,4.7,4.7,9.1,7.2,13.6-2.5-4.5-5-9-7.2-13.6ZM613.6,503.4c-27.5,45.2-65.3,83.1-110.5,110.5,45-27.4,83.1-65.6,110.5-110.5ZM148.6,605.2c4.4,3,8.7,6.1,13.2,8.8-4.5-2.7-8.8-5.9-13.2-8.8ZM502.6,614c-8.9,5.4-18.2,10.7-27.6,15.2,9.6-4.6,18.6-9.7,27.6-15.2ZM175.4,621.6c3.9,2.1,8,4.4,12,6.4-4.1-2-8-4.2-12-6.4ZM398.5,654.8c-21.4,4.4-43.4,6.8-66.1,6.8s-33.7-1.5-50.1-4c16.3,2.5,33,4,50.1,4s44.7-2.4,66.1-6.8Z"/>
      <path id="path2794" class="cls-1" d="M350.1,275.6c4.2,3.4,7.6,10.2,10.3,20.4,2.7,10.1,4.1,28.8,4.1,56s-1.5,46.4-4.6,57.8c-2.3,8.9-5.6,15-9.8,18.4-4.2,3.4-9,5.1-14.4,5.1s-10.1-1.7-14.3-5.1c-4.2-3.3-7.6-10.1-10.3-20.3-2.8-10.1-4.1-28.8-4.1-56s1.5-46.5,4.6-58c2.3-8.8,5.6-15,9.8-18.4,4.2-3.4,9-5.1,14.4-5.1s10.1,1.7,14.3,5.1M283.3,257.3c-15.2,19.2-22.8,50.6-22.8,94.2s6.9,75.3,20.7,92.6c13.8,17.4,32,26,54.5,26s39.9-7.9,52.4-23.7c15.2-19.2,22.7-50.7,22.7-94.5s-7.5-75.4-22.6-94.3c-12.7-16-30.2-24-52.6-24s-39.9,7.9-52.5,23.7"/>
    </g>
  </g>
</svg>