<?xml version="1.0" encoding="UTF-8"?>
<svg xmlns="http://www.w3.org/2000/svg" version="1.1" xmlns:cc="http://creativecommons.org/ns#" xmlns:dc="http://purl.org/dc/elements/1.1/" xmlns:inkscape="http://www.inkscape.org/namespaces/inkscape" xmlns:rdf="http://www.w3.org/1999/02/22-rdf-syntax-ns#" xmlns:sodipodi="http://sodipodi.sourceforge.net/DTD/sodipodi-0.dtd" xmlns:svg="http://www.w3.org/2000/svg" viewBox="0 0 664.9 665.3">
  <defs>
    <style>
      .cls-1 {
        fill: #000;
      }

      .cls-1, .cls-2 {
        stroke-width: 0px;
      }

      .cls-2 {
        fill: #ed1c24;
      }
    </style>
  </defs>
  <g id="svg4105" sodipodi:docname="FSK_ab_18.svg" sodipodi:version="0.32">
    <g id="layer1">
      <path id="path2808" class="cls-2" d="M332.3,661.5c181.6,0,328.8-147.2,328.8-328.8S513.9,3.9,332.3,3.9,3.5,151.1,3.5,332.7s147.2,328.8,328.8,328.8"/>
      <path id="path2824" class="cls-1" d="M331.7,147.8c-9,0-15.9-2-20.7-6.3-4.8-4.1-7.7-10.2-8.7-18.2l14-1.3c.9,4.6,2.6,8.2,5.1,10.3,2.6,2.2,6.1,3.3,10.5,3.3s8-1,10.3-3.1c2.3-1.9,3.5-4.2,3.5-6.8s-.4-3.1-1.5-4.2c-1-1.2-2.6-2.2-5.1-3.1-1.7-.6-5.5-1.6-11.5-3-7.7-1.9-13.1-4.4-16.2-7.1-4.4-3.8-6.5-8.6-6.5-14.3s1-7,3.1-10.1c2-3.2,5.1-5.5,8.9-7.3,3.9-1.6,8.4-2.5,14-2.5,8.9,0,15.6,2.1,20.1,5.9,4.5,3.9,6.8,9.2,7.1,15.7l-14.4.6c-.6-3.6-1.9-6.3-3.9-7.9-2-1.6-5-2.3-9-2.3s-7.4.9-9.8,2.5c-1.6,1.1-2.3,2.6-2.3,4.5s.7,3.1,2.2,4.2c1.7,1.6,6.1,3.2,13.1,4.8,7,1.6,12.2,3.3,15.6,5.1,3.2,1.8,5.8,4.1,7.7,7.1,1.9,3.1,2.9,6.9,2.9,11.4s-1.2,7.9-3.3,11.5c-2.3,3.5-5.5,6.1-9.6,7.9-4.2,1.7-9.3,2.6-15.4,2.6M436.4,146.5h-18.6l-19.5-33.3-11.6,11.9v21.4h-14.3v-70.9h14.3v31.4l29-31.4h19.4l-26.8,27.5,28.2,43.4M259.7,146.5h-14.3v-70.9h48.6v12h-34.4v16.7h29.7v12.1h-29.7v30.1"/>
      <path id="path2826" class="cls-1" d="M356.1,228.3c-2.2,0-4.4-.6-6.4-1.6-2-1.2-3.9-2.8-5.4-4.8v5.5h-9.3v-52.1h10v18.8c3.1-3.5,6.7-5.2,10.9-5.2s8.4,1.6,11.4,4.9c3.1,3.4,4.5,8.2,4.5,14.4s-1.5,11.4-4.5,14.8c-3.1,3.5-6.8,5.2-11.2,5.2M353.4,196.4c-2.5,0-4.5,1-6,2.8-1.6,1.9-2.5,4.8-2.5,8.6s.6,6.7,1.9,8.6c1.8,2.6,4.1,4.1,6.8,4.1s4.1-1,5.7-2.9c1.6-1.9,2.3-4.8,2.3-8.9s-.7-7.4-2.3-9.3c-1.6-1.9-3.6-2.9-6-2.9M304.9,228.3c-3.9,0-7-1-9.2-3.2-2.2-2-3.3-4.8-3.3-8s.4-4.1,1.5-5.6c1-1.8,2.5-2.9,4.4-3.8,1.8-1,4.5-1.7,7.9-2.3,4.7-.9,8-1.7,9.8-2.5v-1c0-1.9-.4-3.4-1.5-4.1-.9-.9-2.8-1.3-5.4-1.3s-3.1.4-4.1,1c-1,.7-1.9,2-2.5,3.8l-9-1.6c1-3.8,2.8-6.4,5.2-8.2,2.5-1.7,6.3-2.6,11.1-2.6s7.9.4,10.1,1.6c2.2,1,3.6,2.3,4.5,4,.9,1.6,1.3,4.6,1.3,9v11.7c0,3.2.1,5.7.4,7.3.3,1.6.9,3.4,1.8,5.1h-9.9l-.9-2.9-.4-1.1c-1.6,1.6-3.5,2.9-5.4,3.6-2,.9-4.1,1.3-6.3,1.3M315.8,209.3c-1.3.4-3.4,1-6.1,1.6-2.8.6-4.5,1.2-5.4,1.8l-2,3.5,1.6,3.6c1,1,2.3,1.5,4.1,1.5s3.5-.6,5.1-1.7l2.3-3.4c.3-.7.4-2.3.4-4.8v-2"/>
      <path id="rect5557" class="cls-1" d="M332.4,0C148.8,0,0,149.2,0,332.8s148.8,332.4,332.4,332.4,332.4-148.8,332.4-332.4S516.1,0,332.4,0ZM332.4,7.6c89.8,0,171.1,36.5,229.9,95.3,58.8,58.8,94.9,140,94.9,229.9s-36.1,170.9-94.9,229.9c-58.8,58.8-140,94.9-229.9,94.9s-170.9-36.1-229.9-94.9C43.7,503.7,7.2,422.5,7.2,332.8S43.7,161.7,102.5,102.9C161.5,44.1,242.7,7.6,332.4,7.6ZM199.5,32c-7.8,3.5-15.7,7.2-23.2,11.2,7.6-4.1,15.3-7.7,23.2-11.2ZM157.4,54.1c-6.7,4.2-13.3,9-19.6,13.6,6.4-4.7,12.9-9.4,19.6-13.6ZM564.7,100.1c7.4,7.4,14.6,15.2,21.2,23.2-6.7-8.1-13.8-15.8-21.2-23.2ZM596,136.2c6.3,8.4,12.1,17,17.6,26-5.4-8.9-11.4-17.7-17.6-26ZM654.8,269.1c2.9,14.8,5.2,29.8,6,45.3-.8-15.4-3.1-30.5-6-45.3ZM660.8,349.6c-.9,16.8-3.1,33.2-6.4,49.3,3.3-16.1,5.6-32.5,6.4-49.3ZM628.8,475.4c-4.6,9.5-9.8,18.7-15.2,27.6,5.5-9,10.6-18.1,15.2-27.6ZM36,475.8c2.3,4.7,4.7,9.1,7.2,13.6-2.5-4.5-5-9-7.2-13.6ZM613.6,503.4c-27.5,45.2-65.3,83.1-110.5,110.5,45-27.4,83.1-65.6,110.5-110.5ZM148.6,605.2c4.4,3,8.7,6.1,13.2,8.8-4.5-2.7-8.8-5.9-13.2-8.8ZM502.6,614c-8.9,5.4-18.2,10.7-27.6,15.2,9.6-4.6,18.6-9.7,27.6-15.2ZM175.4,621.6c3.9,2.1,8,4.4,12,6.4-4.1-2-8-4.2-12-6.4ZM398.5,654.8c-21.4,4.4-43.4,6.8-66.1,6.8s-33.7-1.5-50.1-4c16.3,2.5,33,4,50.1,4s44.7-2.4,66.1-6.8Z"/>
      <path id="path2940" class="cls-1" d="M416.4,555.1c-25.3,0-46.5-6.5-63.2-19.8-19.8-15.7-29.7-37.1-29.7-64.5s3.6-28.8,11-41.4c7.6-12.7,19.2-22.3,35.4-29.1-13.8-5.9-23.9-13.8-30.1-24-6.3-10.2-9.3-21.4-9.3-33.5,0-20.7,7.1-37.9,21.7-51.4,14.4-13.6,35.1-20.3,61.7-20.3s46.9,6.7,61.5,20.3c14.5,13.5,22,30.7,22,51.4s-3.3,24.3-10,34.4c-6.7,10-16.1,17.8-28.3,23.2,15.3,6.1,27.1,15.1,35.1,27.1,8,11.8,12.1,25.6,12.1,41.1,0,25.8-8.1,46.6-24.6,62.6-16.3,16-38.1,24-65.2,24M414.6,423c-13.1,0-22.7,4.5-29.1,13.4-6.4,9-9.6,18.8-9.6,29.3s3.8,26,11.4,34.4c7.4,8.2,16.9,12.2,28.1,12.2s20.1-3.9,27.4-11.8c7.2-7.9,10.8-19.4,10.8-34.2s-3.6-23.5-11.1-31.4c-7.3-7.9-16.6-11.8-27.8-11.8M414.5,313.4c-10.3,0-18.5,3-24.4,9.2-6.1,6-9.2,14.1-9.2,24s3.1,18.9,9,24.9c6,6,14,8.9,24,8.9s18.2-3,24.2-9c6.1-6,9.2-14.3,9.2-24.9s-3.1-18.1-9-24c-6-6-14-9-23.7-9M256.2,550.3h-53.3v-200.8c-19.5,18.2-42.4,31.6-68.9,40.3v-48.3c14-4.5,29.1-13.2,45.4-25.9,16.3-12.7,27.4-27.5,33.5-44.4h43.3v279.2"/>
    </g>
  </g>
</svg>