<?xml version="1.0" encoding="UTF-8"?>
<svg id="_레이어_1" data-name="레이어 1" xmlns="http://www.w3.org/2000/svg" version="1.1" viewBox="0 0 163 124.6">
  <defs>
    <style>
      .cls-1 {
        fill: #000;
        stroke-width: 0px;
      }
    </style>
  </defs>
  <path class="cls-1" d="M37,2.3L0,31l12.7,16,21.5-16.9v94.6h25.1V2.3h-22.2ZM78.7,124.6h84.4v-19.2h-51.9c5.4-5.2,10.9-10.4,16.2-15.6,5.6-5.4,10.8-11.1,15.5-16.9,4.7-5.8,8.6-11.8,11.6-18.1,3-6.2,4.6-12.5,4.6-19s-.9-11.4-2.8-15.9-4.5-8.3-7.9-11.3c-3.5-2.9-7.8-5.1-12.7-6.6s-10.4-2.2-16.5-2.2-12.9.8-19.4,2.3c-6.5,1.5-12.5,3.7-18.2,6.7l2.1,20.3c4.2-2.7,8.7-5,13.7-6.9,4.9-2,10.1-2.9,15.6-2.9s9.9,1.4,14.3,4.1,6.5,6.9,6.5,12.4-2.3,11.8-6.9,18.5c-4.6,6.8-10,13.4-16.1,19.9-6.2,6.5-12.4,12.4-18.4,17.7-6.1,5.3-10.6,9.4-13.5,12.2v20.5h0Z"/>
</svg>