<?xml version="1.0" encoding="UTF-8"?>
<svg id="_레이어_1" data-name="레이어 1" xmlns="http://www.w3.org/2000/svg" version="1.1" viewBox="0 0 85 86.1">
  <defs>
    <style>
      .cls-1 {
        fill: #fff;
        stroke-width: 0px;
      }
    </style>
  </defs>
  <path class="cls-1" d="M52.1,17.8c0-1.1.9-1.9,1.9-1.9h9.9c1.1,0,1.9.9,1.9,1.9v15.1c0,1.1-.9,1.9-1.9,1.9h-9.9c-1.1,0-1.9-.9-1.9-1.9v-15.1ZM83,0h-48.1c-1.1,0-1.9.9-1.9,1.9v43.4c0,2.1,1.7,3.9,3.9,3.9h29.3v20.7h-13.7v-11.3h-18.8v25.6c0,1.1.9,1.9,1.9,1.9h47.4c1.1,0,1.9-.9,1.9-1.9V1.9C85,.9,84.1,0,83,0"/>
  <path class="cls-1" d="M6.9,86.1V24H0L8.9,0h17.3v86.1H6.9Z"/>
</svg>