<?xml version="1.0" encoding="UTF-8"?>
<svg id="_레이어_1" data-name="레이어 1" xmlns="http://www.w3.org/2000/svg" version="1.1" xmlns:inkscape="http://www.inkscape.org/namespaces/inkscape" xmlns:sodipodi="http://sodipodi.sourceforge.net/DTD/sodipodi-0.dtd" xmlns:svg="http://www.w3.org/2000/svg" viewBox="0 0 861.5 384">
  <defs>
    <style>
      .cls-1 {
        fill: #000;
        stroke-width: 0px;
      }
    </style>
  </defs>
  <path id="path11" class="cls-1" d="M630.6,0c-55.4,4.2-197.7-21.5-197.1,204.4,4.2,174.2,78.5,177.1,184,179.5,171.2,3,188.7-41.7,188.7-41.7v-78c.3-20.5,17.6-30.2,28.1-33,39.9-10.6,32.6-34.1-.3-34.9-18.1-.9-81.5.1-110.1.5h-53.6c-36.2,2.1-28.2,31.1,4.4,35.7,16.5,5.3,27.7,5.3,30.9,19.9,3.4,16.2.8,47.1.8,47.1,0,34.5-26.8,37.9-74.3,37.8-88.9,1.2-90.4-58-92.1-139.5-2.1-108.2,7.9-156,99-155.4,62.7.5,66.5,3.6,73.8,61.7,3.5,19.7,7.2,41.3,56.3,37.2,35-1.5,41.9-30.5,41.4-61.6-.5-30.8-2-47.9-37.3-60.3-23-8.5-64.1-18.2-142.6-19.4h0ZM198.3,16.9c-48,0-85.5,1-113.2,1s-34.8-.7-63.4.8c-27.2.6-29,25.1-4.5,33,27.1,11.7,49.5,3.3,51.3,38.1v206.5c-.6,41.3-26.9,38.6-40.2,44-36.3,3-32.1,34.5-7.6,35.4,14.2.5,39.4.3,69.7.3,61.9,0,135.3.6,151.7.1,23.2-.8,26.2-34.1-15.5-37.1-34.5-6-52.6-9.7-51.3-45.5l-.7-60.9c11.2.5,23.1.2,33,.2,132.9,0,205,12.7,196.1-125.3-1.6-94.9-66.5-90.8-205.4-90.8v.2ZM210.2,57.7c57.7-.8,74.9,12,79.3,54.8,1.2,83.4-26.7,79.1-96.4,79.1s-11.9,0-17.7-.5v-118.7c0-12,8.5-14.7,34.8-14.7h0Z"/>
</svg>