<?xml version="1.0" encoding="UTF-8"?>
<svg id="Layer_1" data-name="Layer 1" xmlns="http://www.w3.org/2000/svg" version="1.1" viewBox="0 0 59.9 44.3">
  <defs>
    <style>
      .cls-1 {
        fill: #fff;
        stroke-width: 0px;
      }
    </style>
  </defs>
  <path class="cls-1" d="M28,0v2h-10.3v9.5h-7.3V2H0V0s28,0,28,0Z"/>
  <path class="cls-1" d="M52.4,0h7.5l-11.8,11.5h-6.8L29.6,0h7.7l7.5,8.7L52.4,0Z"/>
  <path class="cls-1" d="M23.4,31.1c-2,1.4-4.8,2.1-8.5,2.1h-7v10.4H.9V14.7h14.5c3.3,0,6,.7,8,2.2,2,1.5,3,3.8,3,6.9s-1,5.8-3,7.2ZM18,20.7c-.9-.6-2.1-1-3.8-1h-6.4v8.5h6.4c1.6,0,2.9-.3,3.8-1,.9-.7,1.3-1.8,1.3-3.3,0-1.5-.4-2.6-1.3-3.2Z"/>
  <path class="cls-1" d="M52.4,23.7c-.5-2-1.8-3.3-3.9-4.1-1.2-.4-2.5-.6-3.9-.6-2.7,0-5,.9-6.7,2.6-1.8,1.7-2.6,4.4-2.6,7.9s.9,6,2.8,7.5c1.9,1.5,4.1,2.2,6.5,2.2s4.3-.6,5.8-1.7,2.4-2.7,2.8-4.6h-7.8v-4.8h14.1v15.4h-4.7l-.7-3.6c-1.4,1.4-2.6,2.3-3.7,2.9-1.9,1-4.2,1.5-6.9,1.5-4.5,0-8.2-1.3-11-4-3-2.7-4.5-6.3-4.5-10.9s1.5-8.4,4.5-11.2c3-2.8,7-4.2,12-4.2s7.8.9,10.4,2.8c2.6,1.9,4.1,4.2,4.5,6.9h-7Z"/>
</svg>