<?xml version="1.0" encoding="UTF-8"?>
<svg id="Layer_1" data-name="Layer 1" xmlns="http://www.w3.org/2000/svg" version="1.1" viewBox="0 0 59.9 43.5">
  <defs>
    <style>
      .cls-1 {
        fill: #fff;
        stroke-width: 0px;
      }
    </style>
  </defs>
  <path class="cls-1" d="M28,0v2h-10.3v9.5h-7.3V2H0V0s28,0,28,0Z"/>
  <path class="cls-1" d="M52.4,0h7.5l-11.8,11.5h-6.8L29.6,0h7.7l7.5,8.7L52.4,0Z"/>
  <path class="cls-1" d="M23.7,14.7h8.5l-12,18v10.8h-7.5v-10.8L.2,14.7h8.9l7.5,12.5,7.2-12.5Z"/>
  <path class="cls-1" d="M59,19.9c-1,.8-2.5,2.3-4.4,4.4-1.9,2.1-3.4,4.3-4.7,6.5-1,1.8-1.9,3.9-2.7,6.4s-1.2,4.6-1.2,6.2h-7.2c.2-5.1,2.3-10.4,6.3-15.8,2.6-3.4,4.7-5.8,6.4-7.1h-17.6v-5h25.1s0,4.4,0,4.4Z"/>
</svg>