<?xml version="1.0" encoding="UTF-8"?>
<svg id="Layer_1" data-name="Layer 1" xmlns="http://www.w3.org/2000/svg" version="1.1" viewBox="0 0 59.9 43.5">
  <defs>
    <style>
      .cls-1 {
        fill: #fff;
        stroke-width: 0px;
      }
    </style>
  </defs>
  <path class="cls-1" d="M28,0v2h-10.3v9.5h-7.3V2H0V0s28,0,28,0Z"/>
  <path class="cls-1" d="M52.4,0h7.5l-11.8,11.5h-6.8L29.6,0h7.7l7.5,8.7L52.4,0Z"/>
  <path class="cls-1" d="M3.7,24v-3.8c2.6,0,4.5-.2,5.5-.4,1.7-.2,3-.7,4.1-1.5.7-.5,1.3-1.2,1.6-2,.2-.5.3-.9.3-1.1h7v28.3h-8.6v-19.5H3.7Z"/>
  <path class="cls-1" d="M58.3,37.4h-4.8v6.1h-8.2v-6.1h-16.8v-4.9l15.6-17.2h9.4v17.7h4.8v4.4ZM45.3,33.1v-12.2l-10.6,12.2h10.6Z"/>
</svg>