<?xml version="1.0" encoding="UTF-8"?>
<svg xmlns="http://www.w3.org/2000/svg" viewBox="0 0 3600.1 2401.738">
  <defs>
    <style>
      .cls-1, .cls-2, .cls-3, .cls-4, .cls-5, .cls-6, .cls-7, .cls-8, .cls-9, .cls-10, .cls-11, .cls-12, .cls-13, .cls-14, .cls-15, .cls-16, .cls-17, .cls-18, .cls-19, .cls-20, .cls-21, .cls-22, .cls-23, .cls-24 {
        stroke-miterlimit: 8;
      }

      .cls-1, .cls-2, .cls-3, .cls-4, .cls-6, .cls-7, .cls-8, .cls-9, .cls-10, .cls-13, .cls-14, .cls-15, .cls-16, .cls-17, .cls-19, .cls-20, .cls-21, .cls-22, .cls-23, .cls-24, .cls-25 {
        fill: none;
      }

      .cls-1, .cls-7, .cls-9, .cls-13, .cls-15, .cls-23, .cls-24 {
        stroke-width: 3.372px;
      }

      .cls-1, .cls-9, .cls-18 {
        stroke: #fedf00;
      }

      .cls-2 {
        stroke-width: 4.089px;
      }

      .cls-2, .cls-3, .cls-4, .cls-6, .cls-8, .cls-10, .cls-11, .cls-13, .cls-14, .cls-15, .cls-16, .cls-17, .cls-19, .cls-20, .cls-21, .cls-22, .cls-24, .cls-25 {
        stroke: #703d29;
      }

      .cls-26 {
        fill: #0020a8;
      }

      .cls-26, .cls-27, .cls-28, .cls-5, .cls-29, .cls-30, .cls-31, .cls-11, .cls-12, .cls-32, .cls-18, .cls-33 {
        fill-rule: evenodd;
      }

      .cls-26, .cls-27, .cls-28, .cls-29, .cls-30, .cls-31, .cls-32, .cls-33 {
        stroke-width: 0px;
      }

      .cls-3, .cls-21 {
        stroke-width: 3.83px;
      }

      .cls-4 {
        stroke-width: 3.406px;
      }

      .cls-27 {
        fill: #d01c3a;
      }

      .cls-28, .cls-5 {
        fill: #c7b37f;
      }

      .cls-5, .cls-7, .cls-23 {
        stroke: #c7b37f;
      }

      .cls-5, .cls-12, .cls-18 {
        stroke-width: 1.752px;
      }

      .cls-29, .cls-12 {
        fill: #d52b1e;
      }

      .cls-6, .cls-16 {
        stroke-width: 3.543px;
      }

      .cls-8 {
        stroke-width: 2.723px;
      }

      .cls-9, .cls-10, .cls-16, .cls-21, .cls-23, .cls-24 {
        stroke-linecap: round;
      }

      .cls-10, .cls-25 {
        stroke-width: 3.556px;
      }

      .cls-30 {
        fill: #0065bd;
      }

      .cls-31 {
        fill: #fedf00;
      }

      .cls-11 {
        stroke-width: .946px;
      }

      .cls-11, .cls-33 {
        fill: #703d29;
      }

      .cls-12 {
        stroke: #d52b1e;
      }

      .cls-13 {
        stroke-linecap: square;
      }

      .cls-14 {
        stroke-width: 3.611px;
      }

      .cls-32 {
        fill: #fff;
      }

      .cls-17 {
        stroke-width: 4.359px;
      }

      .cls-18 {
        fill: #fcd900;
      }

      .cls-19 {
        stroke-width: 4.633px;
      }

      .cls-20 {
        stroke-width: 3.174px;
      }

      .cls-22 {
        stroke-width: 3.01px;
      }

      .cls-25 {
        stroke-linejoin: round;
      }
    </style>
  </defs>
  <g id="background">
    <path id="ad" class="cls-31" d="M400,.1h2800c220,0,400,180,400,400v1600c0,220-180,400-400,400H400C180,2400.1,0,2220.1,0,2000.1V400.1C0,180.1,180,.1,400,.1Z"/>
  </g>
  <g id="country">
    <g id="ad-2" data-name="ad">
      <g>
        <path class="cls-28" d="M1694.726,649.18c41.151,0,57.98,35.253,99.131,35.253,25.406,0,40.214-8.286,62.359-20.758,15.448-8.736,25.304-13.39,43.045-13.39,18.162,0,29.297,5.484,38.59,21.03,5.25,8.796,9.609,26.011,7.301,35.889-4.379,18.731-7.073,26.875-14.555,44.169-3.562,8.315-6.925,13.292-6.925,22.392,0,21.809,29.725,29.303,49.931,29.614,4.407.07,41.455.674,64.252-22.369-12.37-.545-26.21-10.11-26.21-22.464,0-13.979,9.834-23.436,23.17-27.473,2.533-.725,6.849,1.51,9.141.307,3.258-1.688,1.735-5.348,4.632-7.64,6.636-5.3,10.952-8.609,19.46-8.609,5.55,0,8.805.779,13.266,3.974,2.359,1.688,3.22,3.774,6.114,3.774,6.098,0,9.119-3.853,15.211-3.853,4.946,0,7.963.662,12.307,2.891,3.619,1.868,3.54,8.011,7.643,8.011,2.052,0,12.902-4.42,18.576-4.42,11.766,0,18.048,4.255,25.653,13.172,2.048,2.413,3.363,7.289,5.449,7.289,4.202,0,13.881,2.701,19.915,8.726,2.596,2.59,3.743,3.818,5.737,6.95,1.387,2.229,3.518,7.672,5.968,8.612,2.875,1.105,5.288.89,9.068,3.312,8.622,5.522,15.258,15.898,14.944,25.954-.101,3.372-1.643,8.074-2.558,11.288-10.046,35.066-33.945,46.198-58.084,76.322-10.259,12.83-18.355,23.075-18.355,39.521,0,3.98,4.901,11.262,7.076,14.577-1.327-7.732,2.21-17.224,10.395-17.664,11.205-.605,19.862,7.903,21.372,18.988.301,2.59-.665,7.067-1.773,9.717,6.035-3.98,13.992-6.665,21.23-7.507,3.375-.412,6.776-.557,10.173-.443,17.911.443,37.681,10.502,49.678,20.679,36.706,31.13,41.145,76.695,39.141,89.351-4.458,28.116-1.653,79-73.624,99.287,13.308,5.595,22.366,15.594,22.366,27.888,0,13.377-10.262,24.823-23.655,24.823-7.666,0-12.975-1.868-18.345-7.228-14.964,14.938-17.858,30.184-17.858,51.334,0,12.649,2.409,20.121,7.719,31.567,5.614,12.114,9.654,19.222,19.792,27.961,5.373-8.077,11.044-13.979,20.758-13.979,9.413,0,17.379,3.011,21.239,11.566,1.149,2.593.12,4.702,1.447,7.228,1.691,3.258,4.528,3.98,6.279,7.232,2.713,5.003.06,9.28,2.413,14.46,1.507,3.375,4.825,3.86,6.275,7.232,2.292,5.183,2.897,8.736,2.897,14.46,0,16.027-14.606,27.477-30.655,27.477-4.825,0-7.479-1.928-12.307-1.447,9.172,9.16,16.17,13.137,23.17,24.101,10.135,15.847,12.668,27.112,14.964,45.793.424,3.496.484,5.604.484,9.16,0,23.978-3.743,38.321-14.482,59.769-10.259,20.546-19.007,31.935-37.653,45.309-29.082,20.907-50.267,26.935-85.437,33.743-22.572,4.338-35.481,6.266-58.414,7.713-29.326,1.868-46.04,1.925-75.306,3.853-38.375,2.59-64.984,8.014-92.201,35.189,12.858,9.397,21.727,18.621,21.727,34.464,0,16.265-10.078,27.894-25.586,33.021-3.619,1.203-6.275.117-9.654,1.925-4.043,2.109-3.863,6.747-7.723,9.16-6.82,4.338-12.13,5.303-20.276,5.303-14.359,0-24.136-3.378-34.274-13.501-11.763,9.762-15.749,18.56-28.961,26.033-4.347,2.409-6.579,5.781-11.585,5.781-7.906,0-11.525-4.999-17.861-9.641-10.078-7.352-15.448-12.231-23.655-21.685-12.006,7.168-19.371,13.013-33.309,13.013-8.568,0-14.001-1.21-21.242-5.788-3.8-2.349-4.404-5.845-8.204-8.194-3.983-2.47-7.301-1.564-11.585-3.375-16.11-6.928-26.549-18.858-26.549-36.389,0-15.366,9.714-25.127,23.655-31.577-26.732-26.688-53.041-31.327-90.754-33.736-29.148-1.868-45.739-1.928-74.824-3.856-23.113-1.57-35.962-3.92-58.892-7.713-17.322-2.831-27.575-3.736-43.444-11.088-54.608-25.428-89.427-60.31-96.548-120.022-.605-5.123-.484-8.074-.484-13.254,0-31.092,12.25-50.071,34.271-72.063-5.668-1.33-9.473.541-14.964-1.447-13.757-5.003-23.652-14.524-23.652-29.164,0-5.424.241-9.036,2.897-13.735,1.871-3.315,5.43-3.98,6.272-7.713,1.086-4.942-.361-8.438,1.935-13.016,1.507-3.068,4.341-3.676,5.791-6.75,4.765-9.879,10.743-17.832,21.72-17.832,9.416,0,15.451,4.939,20.273,13.016,9.173-4.221,11.709-11.091,16.898-19.767,8.631-14.4,12.551-24.462,12.551-41.212,0-11.69-1.146-18.557-4.825-29.642-2.656-7.957-3.743-13.377-9.654-19.279-5.373,5.36-10.683,7.228-18.345,7.228-15.328,0-27.033-13.137-27.033-28.439,0-11.389,5.611-19.824,15.932-24.586-8.27-7.108-15.451-7.71-24.624-13.494-13.935-8.796-18.823-18.076-27.993-31.814-5.978-8.979-7.548-15.242-10.623-25.548-3.679-12.412-5.794-19.821-5.794-32.777,0-3.375.06-5.364.481-8.675,3.442-26.15,8.147-42.541,24.621-63.147,9.774-12.231,16.414-19.76,30.896-26.03,12.307-5.3,19.669-9.157,33.065-9.157,4.043,0,6.396,0,10.382.484,6.149.782,10.075,1.32,15.445,4.338,2.049,1.143,5.791,4.578,5.791,2.166,0-2.77-1.447-4.217-1.447-6.988,0-11.085,7.963-21.211,19.07-21.211,8.023,0,11.281,7.051,15.204,13.979,2.536-4.217,3.86-7.108,3.86-12.051,0-18.317-9.834-27.654-21.242-41.933-24.858-31.032-55.992-45.552-55.992-85.317,0-11.867,5.731-19.947,15.929-26.03,2.954-1.748,6.934,0,9.825-1.852,2.476-1.567,2.194-4.756,3.761-7.285,2.476-3.917,4.664-5.601,8.102-8.612,5.671-4.939,10.654-3.461,16.927-7.798,3.138-2.169,3.879-4.987,6.294-7.874,7.001-8.438,13.282-12.513,24.323-12.513,5.55,0,8.669.035,13.798,2.071,1.748.665,5.018,3.296,5.443,2.789,1.102-1.327,4.097-4.499,7.659-6.184,4.645-2.229,6.532-3.093,11.721-3.093,5.915,0,9.787,3.312,15.701,3.312,2.172,0,2.672-2.166,4.42-3.312,5.25-3.552,8.27-5.563,14.669-5.563,6.155,0,9.553,2.033,14.745,5.341,4.882,3.078,5.588,7.19,10.594,10.084,2.777,1.627,5.129.902,8.21,1.928,13.754,4.578,24.136,13.738,24.136,28.198,0,7.833-1.871,13.434-7.722,18.557-4.648,4.094-9.052,3.375-14.967,5.303,19.191,15.302,35.886,19.099,60.383,19.099,22.445,0,49.9-9.163,49.9-31.577,0-10.423-5.772-16.027-9.879-25.605-7.362-17.05-11.354-27.081-11.354-45.638,0-14.701,1.605-23.62,10.173-35.554,8.812-12.288,19.571-15.157,34.721-15.157l.006.003Z"/>
        <path class="cls-25" d="M1548.285,769.205c1.365,5.972,5.535,11.573,12.067,13.941,3.929,1.422,13.016.855,18.909-7.973,4.781-7.156,4.414-16.018,2.634-23.06-1.159-4.559-4.331-8.957-8.523-12.7l-25.077,29.506-.006.288-.003-.003Z"/>
        <path class="cls-16" d="M2234.277,1180.612c-6.282-15.356-22.505-8.473-23.506,0-2.299,19.513,14.609,25.412,26.647,22.23,5.962-1.567,10.325-5.367,13.115-10.316,3.144-5.582,4.097-12.871,2.055-19.827-.928-3.157-2.232-5.813-4.464-8.789-2.238-2.989-4.559-5.037-6.728-6.434-4.629-2.989-9.676-3.287-17.585-3.287-29.313,0-54.959,35.031-63.575,71.421-2.834,11.984-6.735,38.71-1.333,64.059,5.756,26.998,17.297,45.692,30.836,59.873,7.327,7.672,17.322,14.511,30.26,21.907,3.989,2.283,14.543,7.013,21.866,9.135,7.529,2.175,14.476,1.855,20.732.484,17.37-3.812,25.447-20.156,16.699-36.874-7.168-13.684-28.268-21.173-38.213-3.705-.842,1.485-2.156,4.715-2.115,8.21.054,4.658,1.966,10.271,5.256,12.393,7.561,4.863,19.65,3.486,19.092-10.012"/>
        <path class="cls-17" d="M2142.434,1383.067c5.994-7.016,19.738-17.538,35.462-19.46,15.955-1.95,29.823,2.672,43.979,10.249,27.635,14.789,43.042,30.69,53.31,60.187,2.606,7.494,4.772,18.785,4.471,30.782-.478,19.118-5.357,40.021-10.601,50.125-4.572,8.815-16.525,47.744-82.097,74.609-38.267,15.673-97.029,19.285-137.547,20.881-55.732,2.188-107.155,4.243-137.009,40.847"/>
        <path class="cls-3" d="M2156.992,1444.406c-1.602-5.848-.12-11.455,4.537-17.81,6.231-8.501,19.488-11.43,31.504-4.787,4.018,2.223,9.059,5.151,13.618,11.167,1.722,2.273,4.635,5.946,6.139,8.508,3.635,6.187,5.129,11.256,5.848,13.289,13.206,37.365-7.779,77.858-35.215,94.103-21.312,12.614-46.73,18.244-77.158,21.796-13.675,1.599-21.486,1.494-35.243,2.131-11.069.51-20.631.326-29.636.218-7.409-.092-14.441-.054-21.625-.218-11.725-.275-23.864-.548-38.713.529-15.625,1.134-27.375,1.532-40.582,3.723-8.625,1.431-18.735,2.812-29.335,5.18-3.179.709-6.402,1.289-9.644,2.261-2.178.655-4.328,1.32-6.459,1.966-19.134,5.813-37.722,12.89-52.392,22.297-4.534,2.907-9.651,5.816-13.314,9.258-2.283,2.144-5.056,4.293-7.295,6.491-10.268,10.056-20.764,20.945-23.221,35.69-.453,2.717-.453,5.569-.453,8.571,0,9.565,7.824,22.594,28.914,26.846M1856.932,786.765c4.411,7.947,6.839,12.782,4.271,21.002-2.91,9.309-9.54,14.888-18.956,14.888-21.359,0-33.92-25.181-24.294-41.205,17.088-28.445,49.925-12.469,80.362,1.621-1.469-7.298-4.034-9.67-3.765-18.706.662-22.449,17.379-32.628,24.054-53.357,3.974-12.351,5.557-23.079-3.518-31.852-7.928-7.659-17.11-7.539-27.451-3.505-20.666,8.068-45.486,31.244-89.18,31.887-43.694-.643-68.723-23.82-89.389-31.887-10.341-4.034-19.523-4.151-27.451,3.505-9.074,8.774-7.494,19.501-3.518,31.852,6.674,20.736,23.392,30.909,24.054,53.357.266,9.036-2.295,11.408-3.765,18.703,30.437-14.087,64.553-31.494,80.362-1.618,8.808,16.648-2.935,41.202-24.294,41.202-9.416,0-16.027-5.975-18.956-14.884-2.609-7.944,0-14.888,4.274-21.002"/>
        <path class="cls-21" d="M1771.947,774.243c8.622,6.272,14.71,13.995,13.694,26.536-1.102,13.605-4.566,16.885-15.72,24.123M1783.355,804.654c-.503,8.201-4.053,13.507-12.678,16.882"/>
        <path class="cls-28" d="M1569.571,737.831l3.72,2.587,3.983,4.145,2.66,5.18,1.33,4.398.266,5.693-.266,3.885-1.33,4.404-2.66,3.103-3.188,3.366-4.515,2.33-5.842,1.295-5.05.776-5.316-2.33-4.781-3.363-2.922-4.145-2.125-5.18v-2.068l26.042-24.076h-.006Z"/>
        <path class="cls-10" d="M1562.365,760.077c-1.64-8.789-12.009-10.591-16.027-5.402-6.184,7.998-1.665,21.309,10.914,25.203,4.271,1.33,14.153.798,20.568-7.412,5.193-6.652,4.794-14.894,2.856-21.442-1.257-4.24-4.689-7.935-9.268-11.389-14.609-11.009-38.194-8.473-45.942,10.062-9.993,23.905,11.75,41.832,31.786,55.339,25.216,16.996,53.953,20.09,75.587,19.852,49.149-.526,86.539-23.829,110.846-37.064,5.661-3.084,11.49-2.454,14.419,1.058,3.309,3.967,3.255,10.363-1.336,14.561"/>
        <path class="cls-14" d="M1416.032,1420.153l-10.876,4.129-11.139,8.812-4.775,6.883-6.101,11.012-2.65,8.261-2.121,10.186-1.061,7.71M1478.628,1421.251l-.795,9.913-1.593,6.883-4.775,11.835-7.425,10.189-7.96,6.605-5.832,3.03-8.22,1.928"/>
        <path class="cls-2" d="M1798.417,1676.617c-1.973,9.6-10.224,20.577-28.173,24.545l-3.489.785"/>
        <path class="cls-19" d="M2252.574,1394.823c11.493,10.604,19.561,23.509,25.764,41.227,2.615,7.472,4.787,18.747,4.483,30.712-.481,19.08-5.373,39.939-10.635,50.023-4.591,8.799-16.585,47.645-82.391,74.454-38.403,15.644-97.371,19.251-138.035,20.837-55.127,2.153-106.05,4.176-136.192,39.21"/>
        <path class="cls-20" d="M2162.533,1430.047c4.138-6.364,19.213-14.419,31.396-6.792,4.008,2.511,8.764,5.69,12.931,12.728"/>
        <path class="cls-19" d="M2238.522,1381.126c2.619.982,5.224,1.868,7.517,2.504,7.488,2.09,14.527,2.248,20.625.465,14.815-4.335,24.32-17.832,16.613-35.376-1.789-4.065-5.212-7.966-9.1-10.889"/>
        <path class="cls-10" d="M1375.893,987.01c-10.183,6.269-17.769,7.754-25.688,16.873-7.887,15.534-10.984,23.873-14.058,36.323M1583.113,764.744c0,9.16-6.788,14.945-15.993,16.873"/>
        <path class="cls-4" d="M2213.193,945.228c25.001-.51,97.631,19.153,98.15,104.856.507,84.643-52.043,98.473-73.099,104.106"/>
        <path class="cls-6" d="M2219.525,945.298c44.181-1.884,89.769,30.022,91.779,109.653,1.567,62.213-43.396,90.431-64.977,96.073"/>
        <path class="cls-22" d="M2194.866,1246.593l.668-8.584,2.85-13.634,4.027-10.604,4.521-8.751,5.867-7.067M2254.354,1179.728l-.665,8.403-2.394,5.737-3.717,5.468-4.249,3.201-6.507,2.4-5.712.399-4.252-.668M2150.447,921.573l1.858-9.068,3.983-8.406,5.183-8.4,8.897-11.471,7.039-7.865,11.424-11.604,9.831-10.002,6.241-7.203,8.235-9.999,7.308-11.069,4.382-9.068,2.394-11.737.722-14.552-1.327-4.221M2161.073,1473.978l8.634-1.732,6.51-3.47,3.587-3.6,2.52-4.135,1.726-6.665.139-4.67M1339.314,1384.574l6.377.532,8.235-.665,8.232-2.932M1388.859,1185.596l-1.061,7.469-1.729,3.334-2.523,3.201-3.451,2.666-3.853,1.732-5.047.804-3.454.266M1420.601,1121.34l-1.859,11.601-2.258,5.069-4.648,6.402-6.244,4.803-6.377,3.195-12.351,3.068M1468.541,942.363l-2.391,6.931-2.922,5.072-3.983,5.598-5.582,5.069-6.636,3.204-5.582,1.33-3.451-.269M1440.01,936.084l.136,5.335"/>
        <path class="cls-24" d="M1451.766,1116.195c-3.259,2.977-7.031,5.338-11.132,6.969M2242.493,1363.696c.456.497,1.982.747,2.52,1.064,7.551,4.544,22.423-1.114,18.051-12.864"/>
        <path class="cls-15" d="M2216.634,1198.767c5.363,7.048,15.48,8.875,23.481,6.776,6.041-1.583,10.464-5.411,13.289-10.392,3.188-5.626,4.154-12.966,2.08-19.982-.934-3.176-2.258-5.851-4.518-8.85-2.273-3.011-5.091-6.215-7.276-7.65-.579-.38-1.156-.899-1.767-1.314M2276.166,1339.68c.231-1.254.352-2.539.352-3.86,0-6.209-2.584-11.895-6.855-15.733-1.457-1.304-2.869-3.337-4.639-4.227M2267.57,1318.378c-.25-9.989-8.381-17.136-18.459-18.912M2226.868,1314.673c-2.318-1.9-4.797-3.518-6.966-5.797-13.054-13.735-22.873-34.043-23.003-57.207-.127-22.202,8.755-44.805,19.099-53.601M1914.804,1651.759l9.549-8.802,6.63-5.066,12.469-7.735,11.668-5.598,8.223-2.134,16.445-3.736,19.099-2.932M1841.588,1719.539c-6.899,10.67-23.341,26.672-40.585,33.068-17.243-6.396-33.685-22.398-40.582-33.068"/>
        <path class="cls-24" d="M1773.087,1695.615c-2.315,8.071-6.519,15.895-12.665,22.164"/>
        <path class="cls-15" d="M1772.495,1684.748l-2.391,11.686M1757.645,1718.75l-5.044,5.05-9.024,5.047-10.35,3.192M1703.129,782.455c1.298-4.04,2.619-7.08,2.422-13.719-.659-22.436-17.272-32.609-23.911-53.332-3.948-12.345-5.522-23.069,3.502-31.836,7.874-7.656,17.003-7.536,27.286-3.505,20.542,8.068,45.429,31.229,88.863,31.871-43.434-.643-68.324-23.81-88.863-31.871-10.284-4.031-20.261-5.212-28.135,2.441-9.027,8.77-6.602,20.555-2.653,32.9,6.636,20.723,22.404,30.896,23.063,53.332.193,6.64-1.555,9.679-2.846,13.719M1801.169,710.414c42.728-2.258,79.349-31.001,91.165-33.344,10.534-2.093,16.417-1.149,24.139,5.88-7.729-7.029-16.528-6.811-26.524-2.888-20.542,8.061-45.217,31.229-88.651,31.871M2225.858,1314.733c-17.782-12.754-33.017-37.102-33.173-65.87-.123-22.122,8.755-44.634,19.105-53.405M1838.685,1716.496c-6.899,10.629-23.357,26.571-40.607,32.945-17.253-6.374-33.705-22.315-40.604-32.945"/>
        <path class="cls-24" d="M1728.76,793.034c4.654-2.574,8.973-5.028,12.956-7.216,5.896-3.239,12.978-2.558,16.027,1.13,3.442,4.164,3.971,11.379-.807,15.79"/>
        <path class="cls-15" d="M1665.521,824.139c29.405-6.127,53.361-19.276,71.474-29.395M1909.646,1671.878c2.432,1.656,3.993,5.104,3.993,5.104.674,1.599,1.542,3.116,1.786,4.534,1.38,8.134-3.958,13.197-10.556,13.966-9.068,1.054-15.872-4.325-18.773-10.838M1664.014,822.635c29.405-6.127,53.364-19.279,71.474-29.395M2257.52,1364.361c-5.592,2.153-8.647,1.859-15.603-1.225-2.856-1.263-6.12-3.223-9.951-5.395-13.627-7.729-29.816-19.912-44.989-48.355-4.056-7.547-7.13-15.581-9.147-23.908-1.45-5.933-2.454-11.797-2.672-17.819-.367-10.259.738-20.967,3.302-33.233,4.233-20.264,9.328-31.266,21.831-48.383,6.146-8.419,11.446-13.558,22.892-13.824M1454.435,962.237c9.518,8.077,14.105,18.076,14.105,30.567,0,16.556-13.868,43.593-47.94,53.167-13.057,3.666-25.979.709-33.793-4.034"/>
        <path class="cls-15" d="M1460.767,1018.042c6.01,4.122,8.362,8.748,8.362,16.803,0,5.512-3.616,12.665-9.768,19.437-10.078,11.088-27.163,20.514-46.097,20.745-10.274.13-20.938-1.988-31.665-9.062-11.471-7.564-17.509-17.782-20.121-27.828"/>
        <path class="cls-15" d="M1459.941,1052.339c6.944,6.383,9.074,14.372,9.074,24.437,0,14.704-5.968,26.049-19.703,38.068-3.219,2.813-6.698,5.313-10.392,7.466M2131.944,1004.079v18.915M2130.437,999.415v26.647M2131.944,941.73v34.911M2130.437,934.017v47.705M2120.261,1420.669c-6.614,13.146-11.902,20.052-22.379,30.38-10.575,10.423-17.905,15.201-31.175,21.85-12.924,6.478-21.068,8.542-35.167,11.725-14.096,3.185-22.338,3.879-36.773,4.534-13.228.598-20.739.048-33.955-.874-14.143-.978-21.989-2.948-36.114-4.189-11.664-1.029-18.25-1.969-29.959-1.941-12.035.035-18.934.108-30.785,2.204-11.047,1.957-17.31,3.518-27.708,7.729-14.387,5.829-30.64,15.989-34.103,20.52-3.464-4.531-19.719-14.688-34.107-20.52-10.392-4.211-16.661-5.772-27.704-7.729-11.858-2.096-18.747-2.172-30.788-2.204-11.709-.035-18.295.915-29.959,1.941-14.121,1.241-21.967,3.211-36.114,4.189-13.216.915-20.72,1.472-33.958.874-14.432-.652-22.676-1.339-36.763-4.534-14.102-3.188-22.236-5.256-35.17-11.721-13.279-6.64-20.6-11.43-31.175-21.853-1.092-1.077-2.175-2.166-3.249-3.268M1728.95,1733.609l9.59-1.2M1900.632,1719.795l9.682-.921,9.217-3.689,6.456-3.92,8.761-10.376,1.843-3.92,1.384-8.992.459-4.148M2189.62,951.738c4.154-14.15-.921-29.076-14.622-28.673M1468.474,1172.443c-3.473,11.75-10.946,19.776-19.257,24.997M1468.715,947.248c-3.426,9.901-9.695,16.977-19.615,21.458-9.891,4.471-21.34.294-27.464-4.43"/>
        <path class="cls-24" d="M1393.14,1000.872c8.631,4.217,17.392-1.963,15.594-12.437-.842-4.908-6.513-11.104-14.191-11.554"/>
        <path class="cls-15" d="M1427.531,1450.868c1.703,1.665,2.068,3.831,4.366,4.274,3.47.665,6.165,2.001,9.632-2.805,4.274-5.924,1.979-15.147-2.466-20.951-4.759-6.209-18.545-11.696-30.104-5.018-3.866,2.232-8.717,5.174-13.099,11.218-1.659,2.286-4.461,5.975-5.908,8.549-3.502,6.218-4.936,11.31-5.63,13.352-10.572,31.257,1.982,64.122,21.439,84.149"/>
        <path class="cls-24" d="M1910.482,1670.285c1.257,1.276,2.403,2.653,3.42,4.119.668,1.548,1.213,3.017,1.45,4.392,1.365,7.874-3.917,12.782-10.442,13.523-8.964,1.023-14.97-4.141-17.838-10.449"/>
        <path class="cls-15" d="M2171.303,745.746c17.769,2.188,33.255,19.295,33.255,37.684,0,23.725-7.922,32.558-20.305,49.529-13.251,18.158-56.549,51.442-56.549,89.291,0,22.923,6.342,37.583,22.724,45.049,10.563,4.813,22.914-.399,28.54-5.522,13.738-12.529,8.245-34.499-6.079-37.127-17.44-3.198-20.717,24.497-3.701,22.661M2263.852,1317.266c-1.564-9.499-9.559-16.73-19.197-16.73-10.752,0-19.469,9.008-19.469,20.124,0,5.443,2.09,10.385,5.487,14.004"/>
        <path class="cls-15" d="M2142.858,961.05c-9.515,8.068-14.102,18.06-14.102,30.538,0,16.54,13.865,43.551,47.93,53.117,13.054,3.66,25.529,3.315,33.34-1.425M1375.441,988.102c-8.14,2.713-18.31,7.779-25.843,18.431-6.355,8.983-10.059,21.47-12.351,32.4-1.007,4.781-2.204,19.919.861,35.557,2.264,11.547,7.042,22.297,12.332,30.082,1.89,2.789,3.61,4.667,5.544,6.598,1.773,1.77,4.29,3.331,6.073,4.689M1704.447,1607.125c25.934,11.474,44.948,20.068,61.067,45.464,5.056,7.969,6.389,19.39,6.389,26.03,0,14.337-5.854,30.538-17.835,40.629-11.11,9.366-22.088,12.215-35.661,10.889-10.293-1.007-19.96-8.498-21.559-13.811M1448.254,1115.856c14.637,11.421,20.758,22.496,20.758,40.103,0,20.185-9.844,32.666-21.293,39.834"/>
        <path class="cls-24" d="M1434.301,1182.686c22.293,27.201,34.122,43.349,34.8,75.739.633,30.402-9.245,51.201-27.73,73.073"/>
        <path class="cls-15" d="M1852.243,822.806c3.98-2.596,6.893-6.763,8.565-11.905,2.584-7.944,2.641-14.72-1.627-20.827,5.262,6.864,5.747,12.659,4.265,20.986-.94,5.3-4.335,8.093-8.565,11.905M2130.643,1282.906v86.235h.228c0,.063-.035,8.163-.725,13.279-.412,3.091-.903,6.17-1.472,9.236"/>
        <path class="cls-15" d="M2129.367,1276.181v93.372h.228c0,.06-.028,8.191-.725,13.33-.719,5.36-1.491,9.904-2.492,14.15M2129.367,1166.87v77.864M2130.871,1173.01v63.325M2130.871,1092.477v47.474M2129.367,1086.885v58.528M2130.871,1043.945v18.418M2129.367,1040.205v26.672M2119.52,1416.255c-.564,1.203-1.168,2.435-1.811,3.72-6.598,13.152-11.873,20.064-22.325,30.399-10.55,10.43-17.858,15.211-31.099,21.869-12.896,6.481-21.017,8.542-35.088,11.728-14.058,3.192-22.281,3.885-36.681,4.534-13.197.602-20.691.038-33.875-.874-14.112-.978-21.936-2.948-36.025-4.192-11.636-1.029-18.212-1.966-29.889-1.941-12.01.035-18.89.108-30.716,2.21-11.018,1.954-17.272,3.514-27.644,7.732-14.346,5.829-30.56,15.999-34.018,20.533-3.457-4.534-19.672-14.701-34.024-20.533-10.373-4.217-16.62-5.778-27.644-7.732-11.819-2.102-18.7-2.178-30.709-2.21-11.68-.035-18.256.915-29.889,1.941-14.093,1.244-21.914,3.214-36.029,4.192-13.184.915-20.672,1.475-33.879.874-14.4-.649-22.623-1.336-36.681-4.531-14.064-3.198-22.183-5.259-35.085-11.731-13.247-6.649-20.546-11.44-31.096-21.869-5.525-5.462-9.6-9.964-13.19-14.938M1481.379,1418.348c2.28,16.952-4.828,33.613-12.044,41.275-4.515,4.803-14.356,13.973-26.58,14.131-20.197.269-26.226-13.672-27.451-17.063"/>
        <path class="cls-15" d="M1458.377,1407.488c3.739,3.717,7.054,8.251,9.86,13.605,5.034,9.603,3.483,25.665-.503,33.078-.44.817-.982,1.681-1.618,2.571M1358.311,1553.318c11.978,12.652,30.089,26.394,57.907,37.922,38.039,15.768,96.453,19.4,136.73,21.002,53.56,2.125,102.906,4.341,132.956,37.735M1778.375,1628.155c8.856,8.771,17.886,18.168,21.698,30.187M1760.96,1719.735c-1.159,1.241-2.387,2.425-3.692,3.534-11.063,9.404-21.993,12.272-35.506,10.936-10.249-1.013-20.137-8.742-22.784-13.811M1670.473,1704.809c.494.678,1.01,1.339,1.558,1.979,6.434,7.542,16.591,12.272,27.188,13.152M1842.313,1719.529c-6.89,10.67-23.319,26.675-40.54,33.078-17.224-6.402-33.651-22.407-40.544-33.078l-1.608-2.495M1842.589,1719.459c1.225,1.346,2.542,2.615,3.939,3.806,11.063,9.404,21.993,12.272,35.506,10.936,10.249-1.01,18.386-7.903,21.676-13.871,0,0,1.843-1.995,2.359-3.901"/>
        <path class="cls-15" d="M1902.902,1717.778l-4.119,6.51-6.275,5.101-9.499,3.872-8.603.348"/>
        <path class="cls-15" d="M1925.056,1657.395c4.892,3.755,9.698,9.442,12.313,15.508,1.675,3.904,2.457,8.194,2.691,12.649.456,8.441-2.514,16.214-7.602,22.141-6.836,7.957-17.493,12.769-28.844,13.225-.842.032-1.681.035-2.511,0M1902.095,1719.406c-10.848.434-20.546-4.211-27.689-11.544M2214.839,1345.161c-8.463-7.798-17.231-18.608-25.684-34.468-4.055-7.549-7.128-15.586-9.144-23.915-1.447-5.937-2.451-11.804-2.669-17.823-.367-10.262.735-20.976,3.299-33.252,4.23-20.267,11.782-35.943,21.815-48.396,3.423-4.249,7.371-9.546,11.123-11.93M2206.217,770.212c13.567,1.061,26.14,15.663,25.973,29.975-.241,20.789-7.213,29.379-23.576,49.748-14.099,17.55-56.397,48.396-55.333,77.915.187,5.24,3.011,10.654,6.165,15.014M2142.538,961.37c3.005,2.967,6.64,5.417,10.974,7.374,7.738,3.492,16.43,1.694,22.768-1.513M2063.088,736.248c4.544,3.093,9.172,7.833,11.683,13.89,9.951,24.01-11.702,42.016-31.656,55.58-14.308,9.72-29.75,14.913-44.375,17.538"/>
        <path class="cls-15" d="M2039.05,783.428c-4.749-.051-10.395-1.437-16.525-8.058-1.412-1.52-3.068-3.537-3.717-5.341M1940.837,796.406c-2.479-1.273-5.142-3.131-6.928-5.177-4.658-5.338-7.76-12.567-4.173-23.595,3.315-10.202,19.301-38.815,20.087-58.623,1.194-30.263-10.16-48.12-27.923-55.086"/>
        <path class="cls-24" d="M1947.239,701.419l-.703,11.319-3.068,11.557-5.899,15.799-4.483,10.138-4.718,10.141-2.356,7.077-.947,5.189.709,4.952M2129.275,1453.401c.931,2.261,3.195,4.474,3.195,4.474,3.461,5.775,16.927,15.942,29.17,16.1,20.248.266,25.051-13.897,25.574-17.041,2.555-15.442-2.726-19.669-10.654-24.019,0,0-4.664-2.416-10.259-1.485"/>
        <path class="cls-15" d="M1356.896,1383.925c-7.203,1.824-13.969,1.868-19.884.114-15.277-4.534-27.654-19.013-21.344-37.007M1387.912,1177.113c1.529,1.523,2.023,3.787,2.254,5.709,2.359,19.586-14.989,25.292-27.34,22.107-6.117-1.58-13.409-7.203-16.268-12.168-2.155-3.743-3.301-7.982-3.324-12.301M1462.274,1054.093c2.905,2.597,5.185,5.819,6.668,9.423M1462.825,1018.042c2.614,1.806,4.772,4.195,6.304,6.978"/>
        <path class="cls-24" d="M1469.129,1045.091c-1.627,3.948-4.439,8.213-8.188,12.336-10.103,11.101-27.239,20.536-46.224,20.767-10.3.127-20.992-1.988-31.751-9.074-11.5-7.57-18.997-18.342-21.489-28.914"/>
        <path class="cls-15" d="M1456.464,961.05c5.924,5.278,10.48,12.009,12.665,18.997"/>
        <path class="cls-24" d="M1469.129,1005.377c-4.778,14.948-19.019,33.435-46.509,40.027-13.134,3.15-30.041-.788-35.813-5.436"/>
        <path class="cls-15" d="M1374.142,1001.961c1.409,14.419,10.734,25.228,28.407,25.577,24.855.481,39.964-37.004,17.88-63.321"/>
        <path class="cls-24" d="M1317.15,1124.459c3.648,4.635,7.935,8.812,12.323,12.513,8.897,7.507,19.39,14.115,31.475,17.731M1388.948,1157.356c22.297-2.713,34.866-19.561,32.378-39.264-1.903-15.014-15.492-26.558-24.731-27.226"/>
        <path class="cls-15" d="M1427.968,923.065c8.121-.355,12.738,8.422,12.665,15.822"/>
        <path class="cls-24" d="M1424.802,790.074c5.332,13.957,15.736,24.864,26.869,31.099M2221.795,986.535c9.182,12.573,3.169,37.365-21.806,37.836-9.758.184-18.564-5.224-23.721-13.412"/>
        <path class="cls-15" d="M2130.871,821.736v85.488"/>
        <path class="cls-24" d="M1394.957,1000.27c7.713,5.576,17.617-3.841,13.786-13.84-2.59-6.75-12.19-14.033-25.488-5-14.688,9.977-10.638,41.449,17.55,41.975,25.143.475,40.433-36.133,18.086-61.827-21.489-24.719-60.64-18.937-86.172,1.355-10.863,8.631-31.384,31.251-37.767,62.068-1.985,9.597-3.271,17.471-3.119,27.1.101,6.345.684,13.453,2.59,22.316,3.841,17.908,10.154,31.026,16.436,40.138,2.409,3.492,4.61,6.389,6.969,8.748,4.376,4.373,5.687,6.687,10.107,10.36,14.444,12.013,33.062,21.426,55.852,20.46,25.001-1.064,39.366-18.598,36.703-39.325-2.58-20.093-22.885-30.089-36.171-20.72-9.046,6.377-12.263,26.121,3.72,30.817,9.046,2.656,17.022-8.767,10.638-15.41M2091.214,725.321c14.429-7.827,25.555-6.38,33.777,5.022,8.941,12.393,10.217,28.885,8.245,38.546-2.926,14.349-7.073,20.305-18.497,30.716"/>
        <path class="cls-24" d="M2124.538,732.686c16.829-10.768,35.057-6.196,45.059,8.144,7.333,10.509,9.204,19.298,8.688,32.311-.887,22.3-15.305,39.977-31.216,48.595"/>
        <path class="cls-15" d="M2201.839,771.076c13.314,1.058,24.019,13.32,24.019,27.616,0,20.444-5.61,29.316-21.673,49.656-13.833,17.525-55.346,48.329-54.298,77.804.393,11.145,9.632,21.648,17.601,22.233"/>
        <path class="cls-24" d="M2204.28,1000.311c-7.691,5.573-17.497-3.432-13.254-12.991,2.929-6.598,11.661-14.869,24.921-5.842,14.637,9.974,10.604,41.433-17.5,41.959-25.064.475-42.003-35.17-18.028-61.802,21.879-24.307,62.457-19.548,87.907.731,10.832,8.631,32.622,32.334,37.292,63.442,5.655,37.643,4.93,83.943-33.885,112.455-15.606,11.465-37.232,16.677-56.324,15.841-24.918-1.096-39.236-18.592-36.586-39.306,2.571-20.087,21.879-28.585,36.06-20.717,14.729,8.172,12.155,28.917-3.711,30.807-9.331,1.108-16.971-8.767-10.607-15.407"/>
        <path class="cls-15" d="M2191.029,987.504c4.091-18.567,19.871-20.296,32.609-20.109,34.762.513,58.803,42.089,59.202,82.303.507,50.799-21.385,80.713-58.211,82.303-9.53.412-25.941-4.157-26.226-15.879"/>
        <path class="cls-13" d="M2213.155,980.047c37.523,8.134,50.698,41.104,50.698,72.57,0,25.669-2.606,60.741-53.826,73.076"/>
        <path class="cls-15" d="M2272.996,1337.723c2.093-11.56-5.269-22.686-16.439-24.855-11.17-2.163-21.92,5.452-24.016,17.012-1.406,7.77,1.463,15.704,7.45,20.615"/>
        <path class="cls-24" d="M2198.669,1306.169c7.032,10.357,15.543,21.875,33.521,31.555M2225.446,1394.022c-17.62-11.474-51.065-26.511-81.302-11.709-11.215,5.49-18.728,12.285-22.971,23.36-7.64,19.95.899,41.93,9.594,51.062,4.547,4.784,14.454,13.916,26.755,14.074,20.34.269,25.172-13.855,25.688-16.993,2.409-14.606-6.155-20.451-10.702-22.043-3.492-1.222-14.84-.909-17.25,7.054-.804,2.656-.947,7.285,1.197,10.74"/>
        <path class="cls-24" d="M1909.672,1674.091c5.62,11.446-.769,17.202-8.561,18.105-11.503,1.327-17.655-7.723-18.456-15.977-1.304-13.381,10.031-25.51,23.544-25.292,12.161.196,22.069,8.007,26.713,18.757,1.688,3.904,2.47,8.201,2.71,12.659.456,8.451-2.527,16.24-7.646,22.17-6.877,7.966-17.595,12.782-29.006,13.238-22.708.909-40.395-20.229-40.395-41.797,0-41.265,61.494-63.774,85.874-69.562,29.962-7.115,48.193-9.777,96.31-12.44,19.26-1.064,33.366-.522,54.573-2.71,18.978-1.96,28.892-2.878,48.418-7.403,24.374-5.652,47.088-15.714,67.415-34.081,15.657-14.147,24.614-24.228,31.862-43.662,6.253-16.771,9.131-49.982-6.712-74.549-14.004-21.711-33.442-32.983-55.643-36.177-20.058-2.888-37.65,5.725-48.155,25.532-5.082,9.587-3.514,25.615.51,33.011,3.477,6.393,13.409,15.818,25.707,15.977,20.333.269,25.165-13.89,25.684-17.038,2.406-14.644-6.152-20.505-10.702-22.1-3.489-1.225-14.837-.909-17.247,7.073-.801,2.663-.947,7.305,1.194,10.765"/>
        <path class="cls-24" d="M1892.362,1606.96c-25.162,11.49-43.612,20.096-59.25,45.527-4.908,7.979-6.199,19.412-6.199,26.061,0,14.356,5.68,30.579,17.307,40.683,10.781,9.378,21.429,12.231,34.597,10.904,9.99-1.01,19.371-8.511,20.919-13.827"/>
        <path class="cls-15" d="M2149.314,1116.195c-12.633,4.002-21.61,22.278-21.61,39.711,0,19.985,10.249,32.346,22.164,39.445"/>
        <path class="cls-24" d="M2162.533,1182.686c-22.29,27.201-34.122,43.349-34.8,75.739-.636,30.402,9.245,51.201,27.73,73.073"/>
        <path class="cls-15" d="M2045.383,732.338l1.871-2.679c9.043-12.855,25.007-16.24,36.697-7.71,14.09,10.284,17.648,27.784,13.824,46.278-2.394,11.573-10.509,21.207-21.632,28.179"/>
        <path class="cls-24" d="M1507.124,724.381c-13.247-6.453-24.152-5.212-32.356,5.085-9.426,11.832-9.784,29.24-7.897,39.017,2.802,14.524,6.776,20.552,17.718,31.089"/>
        <path class="cls-15" d="M1472.296,732.686c-15.838-10.768-32.995-6.196-42.408,8.144-6.899,10.509-8.663,19.298-8.175,32.311.836,22.3,14.406,39.977,29.379,48.595"/>
        <path class="cls-15" d="M1425.274,745.746c-17.87,2.169-32.134,17.237-32.134,35.478,0,23.531,5.823,33.046,19.111,51.024,13.32,18.019,56.878,51.024,56.878,88.566,0,22.733-6.38,37.273-22.857,44.679-10.626,4.771-23.047-.396-28.705-5.478-13.824-12.427-8.295-34.217,6.111-36.823,17.541-3.173,20.84,24.298,3.723,22.474"/>
        <path class="cls-15" d="M1395.334,771.076c-13.871,1.058-27.524,12.684-27.524,26.938,0,20.394,8.346,29.845,25.077,50.131,14.419,17.481,55.146,47.598,54.057,76.996-.408,11.113-8.08,24.706-15.701,23.117"/>
        <path class="cls-24" d="M1363.26,1180.59c6.478-15.344,23.215-8.467,24.247,0,2.371,19.498-15.071,25.39-27.489,22.211-6.149-1.567-10.651-5.364-13.526-10.306-3.245-5.579-4.227-12.858-2.118-19.811.953-3.154,2.302-5.807,4.604-8.78,2.311-2.989,4.702-5.037,6.94-6.431,4.775-2.986,9.98-3.283,18.139-3.283,30.237,0,56.694,35.003,65.579,71.36,2.929,11.975,6.95,38.679,1.377,64.005-5.94,26.976-17.842,45.654-31.808,59.823-7.561,7.669-17.87,14.498-31.216,21.891-4.116,2.276-15.002,7.007-22.556,9.125-7.767,2.175-15.062,2.34-21.385.484-15.356-4.515-25.216-18.573-17.221-36.842,6.222-14.22,29.158-21.157,39.413-3.701.868,1.482,2.223,4.708,2.182,8.201-.054,4.654-2.026,10.265-5.421,12.383-7.798,4.86-20.27,3.483-19.691-10.005"/>
        <path class="cls-15" d="M1339.9,1364.937c5.544,2.15,8.577,1.855,15.47-1.222,2.834-1.263,6.076-3.217,9.869-5.386,13.513-7.713,29.566-19.871,44.609-48.256,4.023-7.536,7.072-15.552,9.071-23.858,1.437-5.924,2.432-11.775,2.647-17.785.367-10.236-.728-20.922-3.271-33.166-4.198-20.219-9.252-31.2-21.648-48.282-6.095-8.403-11.351-13.532-22.699-13.795M1323.841,1337.945c-2.109-11.303,5.303-22.186,16.553-24.304,11.243-2.115,22.069,5.332,24.177,16.635,1.42,7.59-1.465,15.344-7.501,20.159"/>
        <path class="cls-15" d="M1332.982,1316.908c1.536-9.689,9.394-17.072,18.861-17.072,10.569,0,19.134,9.195,19.134,20.536.034,5.267-1.888,10.36-5.392,14.292"/>
        <path class="cls-15" d="M1370.976,1315.667c16.971-12.864,31.51-37.425,31.662-66.443.117-22.319-8.359-45.027-18.237-53.873"/>
        <path class="cls-24" d="M1399.472,1306.169c-7.305,10.392-16.148,21.948-34.828,31.662"/>
        <path class="cls-15" d="M1451.886,1382.247c-4.927-11.633-14.717-17.012-30.655-18.722-15.847-1.697-29.566,2.675-43.602,10.255-27.397,14.793-42.671,30.697-52.854,60.203-2.584,7.491-4.73,18.792-4.43,30.788.475,19.124,5.313,40.031,10.506,50.14,4.534,8.818,16.382,47.756,81.391,74.628,37.938,15.682,96.193,19.298,136.36,20.888,55.254,2.191,106.236,4.249,135.831,40.86"/>
        <path class="cls-24" d="M1370.976,1393.762c17.69-11.512,51.261-26.599,81.616-11.75,11.259,5.512,18.801,12.329,23.06,23.443,7.669,20.014-.906,42.07-9.632,51.233-4.566,4.8-14.511,13.963-26.862,14.121-20.41.269-25.263-13.9-25.783-17.05-2.416-14.656,6.177-20.52,10.746-22.116,3.502-1.228,14.897-.912,17.31,7.076.811,2.666.95,7.311-1.197,10.775"/>
        <path class="cls-15" d="M1442.467,1445.638c1.593-5.816.773-11.927-4.502-17.721-5.3-5.82-19.346-11.376-31.27-4.765-3.989,2.213-8.992,5.129-13.513,11.113-1.713,2.261-4.604,5.918-6.095,8.463-3.613,6.158-5.091,11.202-5.807,13.225-13.105,37.181,8.223,76.664,34.955,93.641,23.316,14.815,47.167,19.048,76.582,21.692,13.608,1.225,21.321,1.485,34.977,2.118,10.987.507,20.479.326,29.414.218,7.352-.092,14.327-.054,21.458-.218,11.642-.272,23.687-.545,38.425.529,15.508,1.124,27.172,1.523,40.278,3.705,8.561,1.422,18.595,2.796,29.117,5.155,3.157.703,6.358,1.282,9.572,2.248,2.162.652,4.293,1.314,6.412,1.957,18.988,5.785,37.441,12.826,51.999,22.186,4.499,2.894,9.682,5.683,13.216,9.214,2.713,2.707,5.015,4.274,7.235,6.459,10.192,10.005,20.612,20.843,23.05,35.512.45,2.707.45,5.544.45,8.533,0,9.518-7.764,22.48-28.695,26.713"/>
        <path class="cls-15" d="M1687.577,1674.091c-5.573,11.446.766,17.202,8.492,18.105,11.408,1.327,17.512-7.723,18.307-15.977,1.292-13.381-9.948-25.51-23.351-25.292-12.066.196-21.891,8.007-26.498,18.757-1.672,3.904-2.451,8.201-2.688,12.659-.453,8.451,2.508,16.24,7.586,22.17,6.814,7.966,17.449,12.782,28.768,13.238,22.525.909,40.065-20.229,40.065-41.797,0-41.265-60.997-63.774-85.175-69.562-29.721-7.115-47.8-9.777-95.528-12.44-19.102-1.064-33.093-.522-54.127-2.71-18.826-1.96-28.658-2.878-48.032-7.403-24.171-5.652-46.702-15.714-66.864-34.081-15.527-14.147-24.412-24.228-31.602-43.662-6.203-16.771-9.052-49.982,6.659-74.549,13.89-21.711,33.169-32.983,55.194-36.177,19.897-2.888,37.343,5.725,47.763,25.532,5.044,9.587,3.486,25.615-.507,33.011-3.445,6.393-13.298,15.818-25.498,15.977-20.166.269-24.956-13.89-25.472-17.038-2.391-14.644,6.101-20.505,10.613-22.1,3.461-1.225,14.717-.909,17.107,7.073.795,2.663.937,7.305-1.187,10.765"/>
        <path class="cls-24" d="M1551.451,732.338l-1.871-2.679c-9.043-12.855-25.007-16.24-36.697-7.71-14.09,10.284-17.645,27.784-13.824,46.278,2.394,11.573,10.512,21.207,21.628,28.179"/>
        <path class="cls-15" d="M2051.715,771.197c-21.499,23.117-42.994,30.494-75.112,31.523-10.031.32-29.196-3.154-40.344-11.009-7.162-5.047-15.128-13.681-10.084-28.658,3.369-10.005,19.615-38.087,20.416-57.527,1.21-29.696-10.331-45.967-28.379-52.271-33.366-11.658-69.188,20.983-90.769,28.107-11.281,3.717-17.034,4.16-27.337,4.198-10.303-.038-16.259-.475-27.543-4.198-21.584-7.124-57.404-39.768-90.773-28.11-18.048,6.307-29.588,22.578-28.373,52.274.798,19.437,17.041,47.519,20.413,57.527,5.044,14.973-2.926,23.611-10.088,28.654-11.145,7.859-30.313,11.329-40.344,11.012-32.112-1.029-53.614-8.406-75.112-31.523"/>
        <path class="cls-24" d="M1681.266,1597.462c4.268,1.684,1.039-1.019,28.078,11.069,25.957,11.611,44.381,21.774,60.516,47.474,5.06,8.058,6.393,19.615,6.393,26.334,0,4.328-.519,8.824-1.574,13.276"/>
        <path class="cls-15" d="M1681.266,1713.352c5.361,2.671,11.229,4.17,17.215,4.398,22.363.902,39.777-20.15,39.777-41.62,0-14.888-8.052-27.429-19.333-37.507"/>
        <path class="cls-24" d="M1686.32,1672.834c-5.633,12.066,2.391,18.592,10.385,19.485,11.813,1.32,18.462-7.659,19.285-15.841.896-8.903-4.046-17.56-11.582-22.024"/>
        <path class="cls-15" d="M2174.998,745.746c17.018,0,31.862,19.121,31.862,38.745,0,22.61-11.915,36.453-20.647,46.917-7.026,8.422-14.637,15.964-23.68,25.156"/>
        <path class="cls-24" d="M2153.956,729.497c5.829,2.698,10.952,7.273,14.853,13.051,7.175,10.629,9.002,19.523,8.501,32.685-.852,22.559-17.082,38.178-31.602,47.712M2120.219,729.497c1.232,1.059,2.375,2.217,3.416,3.464,9.834,11.693,10.597,28.977,8.238,38.558-3.537,14.4-8.295,20.606-19.982,29.218M2084.843,723.583c14.083,10.629,18.272,29.015,13.602,47.94-3.331,13.523-11.835,21.628-22.439,28.084M2135.43,1018.992c1.684,4.946,4.464,6.662,7.969,10.328,7.618,7.982,18.785,14.846,32.891,18.814,13.032,3.666,24.782.912,33.736-4.673M1339.482,1332.037c6.621-.12,13.225,4.35,17.547,11.851.852,1.488,2.185,4.727,2.144,8.238-.054,4.68-2.106,9.676-5.443,11.8-7.675,4.889-21.302,2.786-20.729-10.765"/>
        <path class="cls-15" d="M1381.779,1154.19c26.786,4.908,52.575,36.614,61.016,71.205,2.932,12.013,6.963,38.808,1.377,64.211-5.946,27.062-17.867,45.799-31.852,60.013-3.315,3.369-7.162,6.579-11.557,9.742l-5.715,3.8M1351.979,1298.446c11.003,0,20.634,10.347,20.634,21.407.01,5.2-2.003,10.199-5.614,13.941"/>
        <path class="cls-15" d="M1345.646,1312.501c11.36,0,22.164,10.648,22.164,21.948,0,6.503-3.119,12.298-7.979,16.046"/>
        <path class="cls-24" d="M1447.707,1198.517c10.892,13.887,18.079,25.846,21.423,41.256M1468.756,1285.097c-1.767,7.526-4.506,14.79-8.147,21.61-4.578,8.647-12.564,18.282-19.976,24.792"/>
        <path class="cls-15" d="M1450.132,1116.195c10.081,8.707,16.154,17.706,18.997,28.496"/>
        <path class="cls-24" d="M1469.129,1091.657c-2.606,9.074-8.514,15.945-17.892,24.538M1402.639,1024.621l11.446-3.024,6.776-5.145,4.366-6.199,3.765-9.676,1.507-7.865"/>
        <path class="cls-15" d="M1380.475,983.213c-3.809.918-8.631,2.276-13.697,4.594-6.782,3.109-13.982,7.944-19.722,15.771-6.649,9.065-10.525,21.666-12.925,32.691-1.051,4.825-2.305,20.099.902,35.88,2.368,11.649,7.368,22.496,12.899,30.355,1.985,2.815,3.787,5.246,5.807,7.194,7.244,6.966,13.928,11.253,25.064,9.109"/>
        <path class="cls-24" d="M1443.799,932.554c-1.811,7.491-5.389,16.768-15.831,15.755"/>
        <path class="cls-15" d="M1405.805,979.018c-10.623-10.132-33.128-12.773-55.501,1.035-2.878,1.776-5.753,4.056-8.603,6.374-3.078,2.504-5.531,5.383-7.903,8.511-2.584,3.401-5.753,9.185-7.665,13.026-2.634,5.297-3.723,8.77-5.18,14.197-4.084,15.274-4.069,29.468-3.584,33.514.621,5.186,1.124,9.951,1.995,14.337,2.967,14.986,7.51,25.504,12.206,33.103,4.946,7.998,17.237,26.362,42.364,28.787,9.875.953,26.742-3.464,27.29-15.993"/>
        <path class="cls-24" d="M2034.26,759.548c1.618-8.789,12.168-10.49,16.126-5.297,6.101,7.995,2.068,21.733-10.341,25.631-4.217,1.323-13.966.792-20.292-7.415-5.126-6.652-4.737-14.891-2.821-21.445,1.241-4.236,4.623-7.935,9.144-11.383,14.41-11.015,37.688-8.473,45.328,10.059,9.86,23.905-11.592,41.832-31.362,55.336-24.88,16.999-53.234,20.093-74.58,19.855-48.494-.529-85.387-23.826-109.368-37.064-5.585-3.087-11.338-2.451-14.229,1.054-3.264,3.967-3.21,10.366,1.317,14.565"/>
        <path class="cls-24" d="M2044.886,748.913c5.126.241,6.497,2.27,8.071,4.347,6.085,8.052,1.64,21.894-10.74,25.814M2136.453,1055.321c-18.427,20.353-1.475,55.279,12.298,63.176,4.768,3.765,6.807,1.767,10.616,4.031"/>
        <path class="cls-15" d="M2137.589,1017.282c-6.108,4.243-8.261,9.008-8.498,17.291-.199,6.928,1.01,14.622,7.526,21.388,10.154,10.547,30.016,19.726,49.263,19.969,10.442.13,21.283-2.052,32.188-9.331,11.661-7.783,17.801-18.294,20.454-28.639M2127.17,1367.22c0,.06-.028,8.147-.722,13.257-2.02,14.878-4.395,23.443-11.155,36.855-6.595,13.083-11.867,19.95-22.309,30.228-10.544,10.369-17.851,15.122-31.08,21.742-12.887,6.446-21.002,8.495-35.06,11.664-14.052,3.169-22.268,3.86-36.659,4.506-13.191.598-20.676.038-33.853-.864-14.099-.975-21.923-2.932-36-4.17-11.629-1.019-18.196-1.96-29.87-1.931-11.997.035-18.874.104-30.687,2.197-11.015,1.944-17.259,3.496-27.625,7.691-14.343,5.797-30.545,15.904-33.999,20.413-3.451-4.509-19.659-14.615-33.999-20.413-10.366-4.195-16.61-5.744-27.622-7.691-11.816-2.09-18.69-2.166-30.694-2.197-11.674-.035-18.244.912-29.867,1.931-14.08,1.235-21.901,3.195-36.003,4.17-13.178.906-20.656,1.466-33.856.864-14.381-.646-22.601-1.339-36.649-4.502-14.058-3.173-22.176-5.218-35.063-11.668-13.232-6.621-20.536-11.37-31.077-21.742-10.449-10.281-15.717-17.145-22.309-30.228-6.766-13.412-9.135-21.974-11.158-36.855-.693-5.113-.725-13.194-.725-13.257v-542.318h657.815v542.318h.231-.006Z"/>
        <path class="cls-5" d="M1416.573,1444.723c0-7.415,6.095-13.425,13.612-13.425s13.615,6.01,13.615,13.425-6.095,13.425-13.615,13.425-13.612-6.01-13.612-13.425ZM1332.982,1349.853c0-6.636,4.306-12.022,9.616-12.022s9.619,5.386,9.619,12.022-4.306,12.022-9.619,12.022-9.616-5.383-9.616-12.022Z"/>
        <path class="cls-28" d="M1378.892,1111.142c0-5.414,4.081-9.803,9.116-9.803s9.119,4.388,9.119,9.803-4.081,9.803-9.119,9.803-9.116-4.388-9.116-9.803ZM1542.611,761.242c-.576-5.433,2.695-10.227,7.305-10.708,4.607-.478,8.812,3.534,9.385,8.964.579,5.433-2.691,10.227-7.301,10.708-4.61.481-8.815-3.534-9.388-8.964Z"/>
        <path class="cls-23" d="M1370.036,1170.021c-1.95.852-3.024,1.555-4.49,3.103-1.399,1.479-1.691,2.014-2.774,4.426-.792,1.77-1.004,3.815-1.295,6.339M1386.516,1326.436c1.846-2.245,2.957-3.451,4.727-5.753,1.475-1.919,2.353-2.967,3.648-5.015,1.168-1.836,1.691-2.957,2.72-4.876,1.456-2.707,2.175-4.287,3.568-7.026M1394.467,1378.039c-3.141,1.45-5,2.087-8.055,3.711-2.324,1.238-3.584,2.026-5.81,3.423-2.634,1.65-4.103,2.615-6.608,4.458-2.609,1.916-3.945,3.169-6.472,5.193M1446.966,1192.906c-1.697-1.757-2.622-2.786-4.36-4.506-1.814-1.802-2.802-2.862-4.756-4.509-1.89-1.599-3.093-2.33-5.069-3.818"/>
        <path class="cls-7" d="M1450.132,1122.527c-2.77.785-4.224,1.412-7.105,2.02-3.299.69-5.538,1.054-8.726,1.146"/>
        <path class="cls-23" d="M1361.478,1033.208c.871,3.087,1.058,4.93,2.229,7.916,1.472,3.752,2.701,5.721,4.936,9.074,2.33,3.499,3.787,5.427,6.792,8.365,2.641,2.58,4.312,3.882,7.406,5.905,2.935,1.919,4.841,2.584,7.935,4.233M1385.506,1037.533c2.587,1.38,3.923,2.422,6.633,3.546,2.454,1.013,3.913,1.444,6.5,2.036,3.505.804,5.563,1.004,9.157,1.089,3.891.089,5.041,0,9.951-.798M1455.986,827.147c-4.255-2.479-6.855-3.562-10.911-6.355-4.119-2.837-6.393-4.578-9.974-8.071-2.587-2.52-4.031-3.986-6.184-6.883-1.922-2.587-2.653-4.281-4.35-7.013M1464.551,774.616c1.336,3.562,1.716,5.734,3.423,9.131,2.318,4.616,4.107,7.035,7.593,10.854,4.825,5.281,8.916,6.782,14.618,11.113M1497.932,774.243c1.323,3.201,1.729,5.167,3.394,8.204,1.475,2.685,2.492,4.113,4.433,6.488,2.476,3.021,4.088,4.601,7.165,7.01,3.581,2.805,6.117,3.635,10.031,5.959"/>
        <path class="cls-11" d="M1871.231,730.346c-.275-8.995-9.207-9.929-12.633-9.929-9.876,0-12.548,6.111-24.868,12.671-15.445,8.229-22.097,10.056-35.826,10.179-13.726-.123-20.555-1.954-36-10.179-12.323-6.56-14.394-12.475-24.275-12.475-5.36,0-12.288,4.594-12.022,13.01,0,0-.105,2.726.317,4.575.162.693,1.013.475,1.279,1.086-.127-4.084.709-6.196,2.739-8.938,2.603-3.527,6.931-4.458,8.694-4.458,9.876,0,13.532,6.282,25.855,12.845,15.445,8.229,22.091,10.059,35.819,10.179,13.726-.12,20.562-1.95,36.006-10.179,12.323-6.564,15.863-13.371,25.741-13.371,3.423,0,5.839,2.197,6.956,5.661.693,2.128.301,3.549.478,4.392.092.408.598.367.709.814.342-1.586,1.14-2.15,1.029-5.883h0Z"/>
        <path class="cls-33" d="M1503.087,1487.989c2.846-2.983,5-1.862,5.525-3.236.386-1.016-.456-1.121-1.615-1.542-1.545-.564-3.182-.887-4.73-1.45-1.605-.579-3.055-1.384-4.661-1.969-.662-.238-2.194-1.001-2.634.136-.801,2.087,5.626,1.909,3.47,7.526-.367.959-1.282,3.011-4.474,6.415l-14.546,15.416c-.326.358-.871,1.114-1.203.991-.332-.117-.288-1.054-.291-1.539l.212-21.857c.013-4.154.377-7.225,1.064-9.017.966-2.511,3.936-.408,4.556-2.02.389-1.019.092-1.061-1.675-1.703-.887-.32-2.577-.665-6.114-1.95-1.881-.687-3.666-1.608-5.49-2.273-.826-.301-2.359-1.403-2.907.035-.161.421.418,1.039.56,1.159,2.039,1.425,2.555,2.362,2.6,5.034l.402,39.803c.032,2.872.351,3.67.906,3.872.608.222,1.019-.038,2.223-1.368l28.822-30.459v-.003Z"/>
        <path class="cls-33" d="M1518.041,1495.297c1.821-5.731,5.231-2.273,5.883-4.325.228-.728-.003-.934-1.646-1.447-3.116-.975-5.161-1.349-7.127-1.966-1.912-.602-3.97-1.51-6.105-2.178-.494-.155-1.802-.763-2.128.263-.668,2.112,6.044,2.356,4.303,7.849l-9.195,28.968c-1.821,5.734-5.259,2.932-5.927,5.041-.095.307-.123.76.37.915,1.422.446,3.85.94,6.203,1.678,4.262,1.336,6.209,2.21,8.232,2.843,1.257.393,1.824.307,2.036-.358.614-1.935-6.393-1.073-4.034-8.498l9.135-28.784h0ZM1537.776,1501.097c1.086-3.638,2.789-3.141,4.825-2.543,5.55,1.637,7.289,7.029,5.516,12.978-1.067,3.578-2.409,6.877-10.765,4.42-1.646-.484-3.682-1.086-3.23-2.6l3.654-12.256h0ZM1522.639,1527.2c-2.28,7.643-6.136,4.335-6.712,6.275-.364,1.213.845,1.368,1.45,1.548,2.748.807,5.569,1.374,8.536,2.248,2.311.678,3.72,1.358,4.658,1.631,1.263.374,1.808.136,1.976-.405.649-2.185-5.535-1.298-3.6-7.792l3.131-10.496c.633-2.121.431-2.644,3.344-1.786,2.748.807,3.575,1.643,4.043,4.686l1.757,10.946c.655,4.021,1.276,8.359,5.617,9.638,2.201.643,6.228.38,6.788-1.504.143-.484-.079-.944-.573-1.092-.548-.161-1.206.038-1.757-.12-.443-.13-1.485-.437-1.688-1.555-1.678-8.808-3.73-18.978-3.622-19.346.184-.605,1.941-.681,3.948-1.608,2.03-.985,4.293-2.761,5.449-6.646.833-2.789,2.289-11.668-9.752-15.211-3.685-1.086-7.494-1.941-11.177-3.024-3.464-1.019-3.831-1.393-6.358-2.137-.659-.19-1.301-.051-1.482.554-.649,2.185,6.01,1.703,3.983,8.498l-7.96,26.698h0ZM1567.583,1540.27c-1.77,7.323-7.355,2.865-7.935,5.265-.329,1.355.633,1.517,1.64,1.76,2.229.529,4.129.722,7.862,1.612,3.736.893,5.516,1.577,7.748,2.112,1.615.383,2.685.833,3.043-.646.415-1.719-7.149-1.637-5.319-9.207l6.719-27.812c.716-2.951,1.349-3.125,3.632-2.58l4.74,1.13c6.469,1.282,3.036,7.688,5.265,8.216,1.45.345,1.415-2.197,1.485-2.964l.75-5.807c.095-.627.304-1.491-.532-1.688-5.183-1.238-8.979-1.884-17.12-3.822-8.14-1.944-11.813-3.081-16.996-4.316-.836-.203-1.045.662-1.251,1.263l-2.853,7.906c-.307.776-.966,2.049.203,2.327,2.508.598,2.783-7.862,9.084-6.358l4.683,1.118c2.286.545,2.767.985,2.052,3.939l-6.896,28.55h-.003ZM1635.321,1523.109c2.207-3.391,4.461-2.653,4.73-4.084.193-1.058-.627-1.016-1.811-1.235-1.58-.291-3.204-.332-4.781-.624-1.637-.301-3.169-.839-4.803-1.143-.674-.123-2.276-.611-2.498.57-.405,2.182,5.718.928,4.626,6.773-.184.997-.703,3.157-3.176,7.01l-11.25,17.497c-.247.402-.636,1.235-.975,1.168-.342-.06-.459-.982-.548-1.45l-3.591-21.385c-.7-4.053-.887-7.115-.538-8.983.488-2.609,3.695-1.054,4.012-2.736.193-1.058-.101-1.048-1.903-1.38-.902-.165-2.58-.215-6.19-.88-1.916-.355-3.79-.953-5.649-1.298-.845-.155-2.498-.975-2.777.516-.082.437.579.947.741,1.039,2.191,1.051,2.853,1.878,3.359,4.48l7.279,38.799c.529,2.799.975,3.524,1.539,3.628.621.117.972-.206,1.897-1.713l22.306-34.569h0ZM1638.497,1558.754c.032,1.545-.108,2.036,1.241,2.644,3.141,1.358,5.775,3.334,9.223,3.907,7.406,1.228,13.545-3.458,14.922-11.633,1.333-7.928-1.947-11.231-7.501-15.169-6.956-4.942-9.929-6.275-9.226-10.452.703-4.183,3.651-6.13,7.38-5.509,9.73,1.615,8.618,13.361,9.92,13.58,1.241.206,1.536-.513,1.659-1.906l.785-8.467c.13-1.453.459-2.362-.393-2.501-.735-.123-2.318.643-3.052.519-1.694-.282-3.66-3.112-8.295-3.882-6.617-1.102-12.022,3.394-13.232,10.569-1.105,6.554,1.821,9.54,6.282,12.719,8.359,5.946,11.788,7.349,10.892,12.655-.842,4.99-4.74,7.425-9.15,6.69-6.275-1.045-8.824-7.305-9.629-13.599-.085-.849-.101-1.425-1.01-1.577-1.412-.234-1.149,1.669-1.127,2.568l.31,8.843h0ZM1722.899,1535.115c1.836-3.603,4.154-3.103,4.271-4.556.085-1.07-.731-.944-1.931-1.035-1.599-.127-3.22,0-4.822-.123-1.656-.13-3.236-.51-4.892-.636-.687-.054-2.33-.374-2.425.823-.174,2.207,5.785.326,5.313,6.257-.079,1.007-.367,3.211-2.416,7.298l-9.353,18.567c-.206.427-.507,1.292-.845,1.27-.342-.035-.56-.934-.696-1.393l-5.82-20.891c-1.127-3.958-1.634-6.985-1.485-8.875.212-2.647,3.565-1.434,3.701-3.138.082-1.073-.206-1.032-2.036-1.175-.915-.066-2.593.054-6.247-.238-1.947-.149-3.869-.551-5.753-.7-.858-.07-2.593-.712-2.71.801-.038.443.678.883.842.959,2.295.814,3.04,1.567,3.818,4.103l11.319,37.827c.82,2.732,1.343,3.407,1.912,3.451.63.048.947-.31,1.704-1.9l18.551-36.697ZM1733.31,1567.113c-.054,6.579-5.569,5.37-5.588,7.954-.006,1.096,1.143.782,1.776.788,1.551,0,3.106-.231,4.946-.215,2.014.035,3.964.294,6.779.317.753,0,2.188.086,2.191-.817.028-3.033-7.368,1.289-7.257-11.101l.187-21.926c0-.583.123-1.035.469-1.032.288,0,.627.329,1.029.849l27.363,33.787c.399.519.687.909,1.488.915.69,0,.693-.507.703-1.928l.317-36.187c.051-6.769,4.93-5.18,4.949-7.115,0-.193.006-.839-1.086-.849-.513,0-2.533.238-6.155.206-3.967-.038-5.633-.313-6.551-.317-.747,0-.925.636-.928,1.086-.019,2.131,7.004,1.032,6.95,6.902l-.18,21.483c-.019,1.608-.139,2.384-.481,2.381-.345-.003-1.026-.785-1.77-1.694l-22.866-28.651c-1.026-1.238-.332-1.678-2.169-1.697-3.049-.035-4.544.218-6.041.206-1.092,0-2.125-.279-3.22-.288-.684,0-.978.503-.985,1.089-.032,3.093,6.45-1.042,6.342,11.345l-.209,24.513v-.003ZM1788.985,1538.069c.054-6.127,4.347-3.768,4.363-5.959.006-.776-.275-.906-2.004-.925-3.277-.035-5.348.212-7.415.193-2.014,0-4.255-.298-6.497-.31-.516-.006-1.95-.215-1.963.887-.016,2.258,6.171.507,6.124,6.377l.051,30.963c-.051,6.127-4.176,4.417-4.192,6.674-.006.32.105.773.621.776,1.498.035,3.974-.218,6.443-.199,4.487.038,6.611.317,8.732.336,1.327,0,1.846-.241,1.849-.95.022-2.064-6.443.845-6.374-7.089l.263-30.773h0ZM1813.089,1568.047c.07,7.675-6.456,4.635-6.437,7.153.019,1.418.994,1.349,2.026,1.336,2.299-.035,4.195-.294,8.049-.329,3.85-.035,5.75.209,8.049.187,1.669,0,2.821.174,2.809-1.38-.019-1.805-7.362.13-7.431-7.802l-.25-29.158c-.022-3.093.548-3.423,2.903-3.445l4.886-.038c6.611-.313,4.832,6.861,7.133,6.839,1.491,0,.839-2.523.719-3.293l-.684-5.93c-.063-.649-.07-1.548-.934-1.542-5.348.048-9.198.339-17.592.415-8.394.07-12.247-.152-17.595-.104-.864,0-.858.909-.909,1.555l-.845,8.523c-.105.842-.437,2.261.766,2.251,2.59-.035.792-8.457,7.289-8.511l4.825-.051c2.365-.035,2.938.298,2.967,3.388l.256,29.937h0ZM1846.575,1555.841c-1.029.082-1.827.212-1.878-.431-.07-.899.218-1.637.443-2.432l3.527-11.731c.231-.735.456-.817.57-.823.288-.035.117,0,.5.478l5.607,11.265c.342.747.744,1.428.814,2.327.044.646-.757.646-1.789.728l-7.795.617h0ZM1856.416,1558.552c1.494-.117,1.83.507,4.11,5.37.766,1.688,1.26,2.812,1.371,4.227.307,3.923-3.818,3.54-3.676,5.402.07.899.81.712,1.84.633,1.662-.13,3.761-.56,6.282-.76,3.784-.301,5.354-.165,7.419-.332,1.548-.12,2.071-.035,1.985-1.127-.165-2.121-3.065.633-5.256-3.79l-18.541-38.128c-.896-1.868-1.02-1.988-1.536-1.947-.744.063-.937,1.304-1.257,2.365l-12.503,40.141c-1.149,3.714-4.103,3.562-3.986,5.041.066.839.972.633,1.773.57,1.659-.13,3.302-.519,5.022-.655,1.836-.149,3.575-.035,5.411-.174,1.203-.095,3.011.215,2.91-1.137-.136-1.735-6.244-.215-6.608-4.844-.12-1.545.507-3.86.807-5.177.988-4.347,2.172-4.702,3.147-4.778l11.294-.899h-.007ZM1900.847,1531.813c-.576-4.414-.355-4.509,6.541-5.427,10.999-1.46,7.533,6.611,10.208,6.26,1.311-.174.753-2.248.586-3.074l-1.051-6.298c-.079-.579-.557-1.162-1.301-1.067-5.015.668-8.916,1.447-12.963,1.985-8.72,1.159-12.858,1.45-15.195,1.76-.798.104-1.19.678-1.114,1.254.336,2.558,6.51-.345,7.26,5.408l3.904,29.937c1.016,7.798-3.768,4.923-3.385,7.865.057.383.434.655,1.175.56,3.138-.415,5.5-.994,7.266-1.228,2.505-.336,4.651-.355,6.814-.643,1.428-.19,2.656-.092,2.489-1.371-.222-1.729-6.453.725-7.38-6.374l-1.235-9.467c-.484-3.711-.81-4.445,1.808-4.794l4.221-.56c5.93-.788,5.218,6.206,7.039,5.959,1.371-.184.725-2.438.56-3.258l-1.881-11.332c-.282-1.722-.893-1.51-1.292-1.456-1.14.152-.545,6.057-5.446,6.709l-3.594.481c-2.448.323-2.508-.123-2.866-2.875l-1.165-8.954h-.003ZM1921.871,1546.472c2.362,12.874,11.566,20.007,22.93,17.883,18.035-3.375,18.627-19.561,17-28.439-2.466-13.45-12.393-20.055-23.395-17.861-13.488,2.65-19.086,14.524-16.534,28.417h0ZM1928.162,1541.555c-1.691-9.198-.472-18.481,9.049-20.457,7.27-1.491,15.518,4.572,18.089,18.592,1.935,10.531.329,19.624-9.362,21.632-10.081,2.087-16.078-10.509-17.775-19.767ZM1972.752,1519.088c-.893-3.765.839-4.183,2.907-4.683,5.649-1.371,9.882,2.511,11.345,8.66.88,3.698,1.38,7.295-7.124,9.353-1.675.408-3.743.909-4.113-.659l-3.014-12.671h0ZM1972.784,1549.797c1.878,7.906-3.141,6.931-2.666,8.938.298,1.257,1.428.782,2.042.633,2.796-.678,5.531-1.608,8.552-2.337,2.346-.57,3.914-.684,4.866-.918,1.286-.31,1.643-.795,1.507-1.358-.535-2.261-5.459,1.653-7.054-5.056l-2.577-10.851c-.526-2.194-.963-2.555,1.998-3.274,2.796-.678,3.939-.358,5.88,2.093l7.054,8.77c2.593,3.22,5.323,6.738,9.743,5.671,2.235-.548,5.598-2.821,5.136-4.765-.12-.5-.545-.795-1.048-.674-.56.136-1.029.646-1.589.782-.446.108-1.507.367-2.251-.516-5.905-6.928-12.817-14.865-12.909-15.245-.149-.627,1.336-1.586,2.619-3.426,1.267-1.893,2.334-4.607,1.377-8.622-.684-2.888-3.904-11.459-16.151-8.492-3.746.909-7.488,2.08-11.234,2.986-3.521.855-4.031.712-6.602,1.336-.671.161-1.153.611-1.007,1.241.538,2.258,6.082-1.542,7.754,5.484l6.56,27.6ZM2018.907,1539.383c1.906,7.434-5.151,6.079-4.528,8.514.348,1.374,1.279,1.064,2.283.801,2.226-.579,3.999-1.311,7.729-2.283,3.733-.975,5.633-1.206,7.859-1.786,1.612-.421,2.774-.526,2.391-2.023-.446-1.751-7.108,1.922-9.074-5.759l-7.232-28.227c-.766-2.998-.291-3.458,1.988-4.053l4.733-1.238c6.336-1.919,6.332,5.478,8.558,4.895,1.447-.38.209-2.65-.092-3.375l-2.087-5.582c-.215-.614-.437-1.488-1.273-1.27-5.177,1.355-8.84,2.58-16.968,4.702-8.128,2.121-11.921,2.843-17.098,4.198-.836.218-.614,1.092-.507,1.729l1.219,8.476c.098.842.117,2.305,1.286,1.998,2.505-.655-1.26-8.4,5.028-10.043l4.673-1.219c2.286-.595,2.922-.431,3.689,2.568l7.422,28.977h0ZM2048.321,1499.761c-1.624-5.905,3.15-4.832,2.568-6.947-.206-.744-.513-.792-2.178-.329-3.16.887-5.085,1.694-7.08,2.251-1.938.545-4.167.899-6.329,1.504-.5.139-1.935.339-1.643,1.403.595,2.172,6.38-1.323,7.931,4.335l8.197,29.839c1.621,5.905-2.812,5.408-2.216,7.583.085.31.32.716.814.576,1.441-.405,3.758-1.32,6.142-1.988,4.319-1.209,6.437-1.536,8.489-2.109,1.273-.358,1.704-.744,1.514-1.428-.548-1.992-5.962,2.606-8.064-5.041l-8.144-29.649ZM2060.577,1514.18c4.116,12.418,14.21,18.19,25.175,14.486,17.395-5.876,15.752-21.989,12.912-30.551-4.297-12.969-15.033-18.117-25.627-14.403-12.988,4.528-16.895,17.069-12.459,30.469ZM2066.128,1508.424c-2.935-8.865-3.008-18.231,6.142-21.527,6.997-2.501,15.999,2.349,20.476,15.869,3.366,10.154,3.033,19.384-6.285,22.737-9.701,3.476-17.373-8.147-20.333-17.079h0ZM2106.94,1479.155c-1.403-3.6.253-4.262,2.232-5.05,5.405-2.15,10.135,1.102,12.431,6.985,1.377,3.54,2.368,7.029-5.763,10.262-1.608.64-3.587,1.425-4.173-.079l-4.727-12.124v.006ZM2111.202,1509.561c2.948,7.561-2.156,7.305-1.406,9.226.465,1.2,1.52.576,2.109.339,2.675-1.064,5.256-2.368,8.144-3.514,2.248-.896,3.787-1.228,4.692-1.593,1.235-.491,1.52-1.019,1.308-1.561-.842-2.163-5.177,2.409-7.681-4.012l-4.053-10.385c-.82-2.102-1.301-2.394,1.532-3.521,2.672-1.064,3.847-.909,6.108,1.244l8.194,7.694c3.017,2.821,6.203,5.921,10.43,4.243,2.14-.852,5.155-3.575,4.43-5.436-.187-.484-.649-.712-1.13-.522-.535.215-.931.785-1.463,1.001-.431.168-1.447.573-2.302-.193-6.801-6.032-14.745-12.925-14.884-13.289-.234-.598,1.105-1.757,2.121-3.752.988-2.061,1.672-4.895.171-8.736-1.073-2.767-5.443-10.8-17.161-6.142-3.584,1.428-7.127,3.112-10.714,4.54-3.369,1.343-3.888,1.27-6.351,2.248-.643.26-1.061.766-.823,1.368.842,2.163,5.807-2.378,8.428,4.344l10.303,26.41h0Z"/>
        <path class="cls-29" d="M1502.375,854.981h278.628v281.794h-278.628v-281.794Z"/>
        <path class="cls-32" d="M1632.19,1076.855s-.165,9.879-2.938,17.823q-3.207,9.173-6.174,13.631c-3.958,6-8.786,10.392-13.092,13.105-6.731,4.24-13.57,6.364-20.444,5.766-18.868-1.64-27.625-21.714-31.903-38.007-4.54-17.294-17.436-26.71-25.65-20.444-4.813,3.673-5.082,9.825-1.067,15.73,4.274,6.288,14.087,9.438,14.087,9.438l-10.081,12.579s-21.657-2.764-25.897-24.925c-1.602-8.387,2.552-24.051,16.809-28.73,18.206-5.981,29.854,6.754,35.462,17.5,7.719,14.78,11.034,41.918,32.409,37.726,11.63-2.283,17.101-18.874,17.101-26.473l8.479-8.913,12.56,3.936.339.263v-.003ZM1651.175,1076.855s.165,9.879,2.938,17.823q3.207,9.173,6.174,13.631c3.958,6,8.786,10.392,13.092,13.105,6.728,4.243,13.567,6.364,20.441,5.763,18.871-1.637,27.625-21.711,31.906-38.004,4.54-17.294,17.433-26.71,25.646-20.444,4.813,3.673,5.085,9.825,1.07,15.73-4.274,6.288-14.09,9.438-14.09,9.438l10.081,12.579s21.66-2.764,25.9-24.925c1.599-8.39-2.552-24.051-16.813-28.73-18.206-5.984-29.851,6.754-35.462,17.5-7.716,14.78-11.031,41.921-32.41,37.726-11.629-2.283-17.098-18.871-17.098-26.47l-8.482-8.916-12.557,3.936-.339.263v-.003Z"/>
        <path class="cls-31" d="M1667.341,956.592l37.134-39.97s5.607-4.499,5.557-11.677l-7.659,1.184-1.713-3.92-.38-3.939,10.287-2.163c.168-1.662.025-2.916.317-4.749.279-1.697.659-2.609,1.073-4.271l-11.265.747c.57-1.96.44-3.005,1.067-4.825.535-1.536.684-2.121,1.741-3.787,2.09-.313,3.996-.782,6.583-1.045,2.511-.25,3.942-.136,6.462-.291,6.146-11.402,31.719-21.879,49.887-3.103,13.146,13.586,10.309,38.514-6.731,45.106-9.663,3.736-17.443,1.526-23.683-3.812l6.801-13.27c9.394,5.579,17.17-1.361,16.639-8.568-.681-9.109-6.624-14.751-15.03-15.483-7.776-.674-13.361,3.752-16.901,10.677-2.162,4.227-1.162,7.327-1.878,12.016-.782,5.088-.348,7.931-1.855,13.077-1.102,3.736-3.986,8.356-8.178,12.332l-38.068,40.974-148.201,159.445-11.139-10.24,149.136-160.449v.003Z"/>
        <path class="cls-32" d="M1559.367,971.432s9.173,45.872,40.331,114.684c15.847-5.867,25.203-9.606,41.99-9.606s26.144,3.204,41.991,9.606c31.162-68.812,40.331-114.684,40.331-114.684l-82.322-106.952-82.322,106.952Z"/>
        <path class="cls-31" d="M1649.902,899.308l58.278,74.232s-7.773,36.089-31.453,90.412c-9.169-2.068-17.034-3.869-26.796-4.528l-.028-160.113v-.003ZM1633.475,899.308l-58.278,74.232s7.773,36.089,31.453,90.412c9.169-2.068,17.034-3.869,26.796-4.528l.028-160.113v-.003ZM1812.665,854.981h281.794v281.794h-281.794v-281.794Z"/>
        <path class="cls-29" d="M1850.66,854.981h41.934v281.794h-41.934v-281.794ZM1931.012,854.981h41.934v281.794h-41.934v-281.794ZM2011.365,854.981h41.934v281.794h-41.934v-281.794Z"/>
        <path class="cls-31" d="M1503.451,1379.571c.792,5.075,2.577,13.789,7.333,22.715,5.009,8.014,3.16,7.795,14.495,20.618,5.579,6.317,14.283,11.725,21.109,15.448,6.852,3.743,11.924,5.579,23.196,8.58,22.091,5.876,37.593,6.244,56.185,5.49,14.501-.586,25.574-2.394,34.743-3.648,13.073-1.783,22.813-2.843,37.688-3.473,7.232-.307,14.064-.377,20.821,0,8.153.459,16.208,1.735,24.776,3.473,18.446,3.743,37.159,10.955,37.159,10.955l.048-294.38-278.628-.079v201.204s.57,9.831,1.077,13.095h0Z"/>
        <path class="cls-12" d="M1535.623,1431.019l13.165,7.65,18.041,6.484-.016-278.292h-31.194l.003,264.158ZM1691.69,1443.684l.035-276.83h-31.251v281.256s21.388-2.739,31.209-3.372l.006-1.054ZM1754.033,1166.886h-31.149v277.792c10.534,1.111,20.967,3.033,31.206,5.744l-.057-283.536ZM1629.312,1166.886v284.448c-.31.035-20.853,1.073-31.355-.013l.006-284.387,31.349-.048Z"/>
        <path class="cls-31" d="M2093.37,1379.571c-.798,5.075-2.603,13.789-7.409,22.708-5.063,8.02-3.195,7.802-14.647,20.625-5.639,6.313-14.438,11.725-21.337,15.448-6.925,3.743-12.047,5.579-23.44,8.577-22.331,5.876-37.998,6.247-56.783,5.493-14.657-.586-25.846-2.397-35.117-3.648-13.216-1.783-23.06-2.843-38.09-3.473-7.308-.307-14.216-.377-21.043,0-8.242.456-16.382,1.735-25.042,3.473-18.643,3.742-37.798,10.955-37.798,10.955l.196-294.38,281.598-.079v201.201s-.576,9.828-1.089,13.095v.003Z"/>
        <path class="cls-29" d="M1884.367,1190.608s-1.257.583-2.042.937c-1.023,1.092-1.536,1.735-2.682,2.71-1.523,1.298-2.641,1.678-4.293,2.812-.792.545-1.444.719-2.042,1.46-.864,1.067-.272,2.099-.858,3.334-.64,1.349-1.27,1.992-2.254,3.128-1.257,1.447-2.232,2.033-3.651,3.334-1.437,1.317-2.017,2.419-3.755,3.334-.462.241-.684.472-1.184.624-.741.222-1.2-.038-1.935.206-1.333.446-1.751,1.878-2.679,2.397.38.728.364,1.241.75,1.982.541,1.077,2.422,4.05,2.789,4.791.722,1.016.928,2.334,1.827,2.603,1.846.56,2.948.513,4.509.418,2.72.605,4.395.526,6.975,1.561,2.105.849,2.967,1.919,5.05,2.815,1.627.7,2.65,1.134,4.398,1.456,1.33.247,2.09.44,3.435.313.861-.079,1.295-.399,2.15-.519.171-.032.275,0,.427,0l-.101,1.251c-.022,0,.013.092,0,.104v.206h.212l7.083,3.021c-.264.389-.48.809-.643,1.251-.336,1.067-.389,2.296-.215,2.815,2.166,6.294,3.986,10.23,5.047,10.629,2.112.785,2.77,2.881,3.971,5-.421.44-.779.668-1.181,1.042-2.109,1.966-3.958,3.366-5.69,6.044-2.558,3.961-4.287,4.008-1.07,9.268,1.884,3.087,2.796,3.666,5.256,8.026,1.247,2.201,1.935,3.91,2.685,6.564.712,2.508.956,3.967,1.077,6.564l3.324,1.251,2.258-2.191,2.147-3.958.105-3.021c-.817-.674-1.054-1.58-.858-2.606.241-1.228,1.767-.966,2.473-2.083.972-1.539-1.14-2.448-2.258-3.644-2.077-2.235-4.914-2.777-5.582-6.149-.18-.909.266-1.422,1.289-2.397,2.941-2.799,3.882-3.242,6.766-6.041.83.475,2.096.643,3.328.418.959-.177,1.821.415,4.829,1.251,2.096.576,2.998.285,4.189.098l1.289-.31c.171.703.38,1.384.427,2.292.184,3.534-.532,9.983.538,11.668.45.709.64,1.108.966,1.878.342.801.735,1.32.753,2.188.035,2.321.158,3.8,0,6.25-.152,2.305-.358,3.473-.753,5.835-.256,1.504-.567,2.381-1.504,3.54-.972,1.213-2.042,1.393-3.328,2.296l-.32,3.334,3.866,1.564,4.398,1.039,2.362-.937c0-.845.139-1.333.538-2.083.437-.823.795-1.463,1.612-1.77,1.244-.478,2.609.431,3.112-.313.548-.807.206-1.127.108-2.501-.158-2.207-.63-3.299-.969-5.525-.564-3.701-.722-5.62-.535-9.166.108-2.055.13-3.188.535-5.208.592-2.945,1.672-4.373,2.365-7.295.773-3.258.909-5.354,1.289-8.229,10.889,1.507,19.95,1.323,32.102-1.251.579-.123,2.574-.833,2.574-.833,2.748,2.296,5.864,4.214,9.34,5.417-.022.336-.054,2.818,0,3.226.127.962-.139,1.608.427,2.4.364.5.678.798,1.289.934.906.206,1.564.079,2.258-.519.776-.671.633-1.513.858-2.501.111-.465.025-1.881,0-2.289,1.26.184,1.684.206,3.008.206,1.225,0,1.821.048,3.005-.101.019.266.07,1.228.105,1.558.095.817-.26,1.45.108,2.191.383.766.861,1.197,1.719,1.355.625.152,1.285.039,1.824-.313,1.016-.617.909-1.662,1.077-2.815.044-.867.044-1.736,0-2.603.728-.225,2.84-.975,3.543-1.251-.035.91-.143,1.815-.323,2.707-.182,1.068-.471,2.115-.861,3.125-.706,1.897-1.514,2.856-2.577,4.585-1.292,2.115-1.963,3.287-3.537,5.208-.728.887-1.232,1.289-1.935,2.191-.88,1.124-1.175,1.887-2.042,3.021-1.111,1.46-1.751,2.413-3.22,3.54-2.381,1.833-3.951.367-7.19,2.815l-.757,3.439,4.939,1.773,4.404.833,1.501-.833c-.041-1.004.111-1.713.753-2.501.731-.899,1.517-1.171,2.682-1.355,1.241-.199,2.568.111,3.543-.728,1.203-1.039,1.2-3.046,2.147-4.901,2.951-5.744,5.569-8.542,10.309-13.02,2.105-1.992,3.907-2.527,5.693-4.794.842-1.073,1.786-1.564,1.821-2.919.028-.944-.494-1.384-.75-2.289-.358-1.257-.643-3.334-.643-3.334,5.227,2.479,3.334,2.153,4.297,4.689.773,2.049-.114,3.467.212,5.623.38,2.52,1.599,3.714,1.824,6.25.269,3.017-.491,4.737-1.073,7.713-.513,2.618-.446,4.259-1.608,6.668-1.108,2.296-1.96,3.591-3.974,5.208-.725.583-1.267.833-2.039,1.355l-.431,3.435,3.866,1.254,5.582,1.456,1.289-1.143c.564-2.185-.19-5.392,1.393-5.63,1.396-.206,2.381,0,2.688-1.039.123-.44.199-1.086.32-2.083.76-6.288,1.45-12.158,2.147-15.005.792-3.226.738-3.926,1.4-6.358.602-2.213-.298-.94,1.393-5.623,2.523-6.991-.712-7.919-3.651-12.19-1.589-2.311-2.137-3.147-2.362-5.003-.332-2.723.564-4.984.431-9.166-.114-3.195-.114-6.393,0-9.587.396-.177.763-.402,1.181-.627,4.021-2.14,5.62-2.786,8.159-8.232.724-1.528,1.091-3.201,1.073-4.892-.019-1.108-.225-2.175-.323-3.442-.105-1.33-.652-2.125-1.073-3.125-.446-1.061-1.114-1.862-1.935-2.812-2.65-3.081-6.111-3.774-9.337-4.898-5.098-1.77-8.606-1.447-14.172-1.874-5.747-.44-8.957-.526-14.71-.206-6.893.38-10.746,1.729-17.607,2.498-6.579.741-10.227,1.235-16.854,1.355-7.767.139-15.185-1.532-19.862-1.146-8.422.7-8.565,2.539-21.261,3.543-4.394.332-8.797.54-13.203.624l-7.409-2.292c2.945-1.019,3.667-1.624,5.05-3.435.931-1.222.798-2.264,1.931-3.543.912-1.042,1.52-2.074,2.679-3.233-.945-.73-2.048-1.228-3.22-1.456-1.247-.253-1.966-.139-3.217,0-1.697.187-2.653.415-4.189,1.146-1.238.592-2.144,1.191-2.9,1.979,0,0-4.414-2.761-7.513-4.062-3.844-1.618-5.497-2.375-10.306-3.024v.006ZM1891.13,1230.303h.215c-.041.035-.066.073-.105.104l-.111-.104Z"/>
        <path class="cls-9" d="M2035.884,1233.539l-2.539.868c-2.884,1.434-5.25,1.491-8.65,1.77-8.796.719-14.213-3.768-23.284-3.021-4.67.386-6.738,4.243-11.512,5.519-1.848.521-3.743.858-5.658,1.004l1.704-3.685s-4.271.934-7.039.94c-1.7.03-3.399-.125-5.066-.462l3.388-3.385s-2.71-.475-4.306-1.197c-1.29-.552-2.481-1.311-3.527-2.245,1.89-.336,3.768-.757,5.623-1.26,5.177-1.371,6.788-4.088,12.944-4.721,3.825-.396,10.088-.165,25.428,2.555,10.103,1.789,14.58.95,18.421-.921,2.527-1.228,3.359-3.597,3.67-6.37.307-2.764-1.346-5.003-2.91-6.45-.409-.38-1.475-1.194-3.701-1.295"/>
        <path class="cls-18" d="M1886.65,1204.891c-2.159-.12-3.6.019-5.459.532-1.957.538-2.204,1.27-3.619,2.083,1.814.184,2.85.659,4.654.462,1.412-.152,2.147-.434,3.1-.925,1.289-.662,1.761-1.235,1.745-2.109l-.421-.044Z"/>
        <path class="cls-9" d="M1923.537,1249.455s.887,1.529,1.368,2.552c.833,1.767,1.26,2.799,1.757,4.676.671,2.549.383,4.094.807,6.69.076.456.168.839.26,1.2l-.168,3.6M1950.396,1246.01s-.735,2.59-1.187,4.252c-1.184,4.312-2.27,6.655-3.169,11.034-.141.679-.257,1.364-.348,2.052M1909.235,1250.668c2.653.56,1.827,10.715,6.006,13.042"/>
        <path class="cls-1" d="M2007.388,1268.174l1.187-.773c3.114-1.28,5.94-3.17,8.311-5.56"/>
        <path class="cls-9" d="M1978.892,1261.841h.025c13.273-2.922,22.107-8.767,28.471-9.499"/>
        <path class="cls-9" d="M1991.557,1249.477c1.048-.035,2.052-.101,2.913-.206,5.148-.636,5.975,2.08,9.562,3.809,6.516,3.144,7.362,6.985,15.09,10.16.405.165.782.323,1.121.469l2.976,1.298"/>
        <path class="cls-18" d="M1861.741,1217.986c.972.155,1.564.184,2.562.123,1.203-.07,1.754-.554,2.957-.579.978-.022,1.675-.073,2.479.291.507.231.725.443,1.013.798.317.386.592.655.45,1.083-.215.662-1.175.975-2.223.978-.858,0-1.574-.143-1.973-.633-.25-.275-.304-.605-.139-.906-.92.248-1.888.261-2.815.038-.991-.18-1.827-.611-2.311-1.194h0Z"/>
        <path class="cls-30" d="M1884.567,1248.559c-2.732-.807-6.741-2.815-6.741-2.815,1.108-.852,2.014-.902,2.96-1.89,1.336-1.39,1.279-2.682,2.033-4.493.738-1.77.63-3.249,2.302-4.572.994-.785,2.612-.918,3.834-.564,1.21.386,2.603,1.368,2.907,2.609.472,1.912-.548,3.017-.842,4.952s-1.004,3.046-.668,4.974c.225,1.276.779,1.767,1.213,3.09,0,0-4.335-.507-6.997-1.295v.003ZM1881.172,1251.795c-.014-1.185.933-2.158,2.118-2.175,1.185-.021,2.164.921,2.188,2.106.014,1.183-.93,2.154-2.112,2.175-1.183.027-2.165-.91-2.194-2.093v-.013ZM1875.135,1195.563s-.307-.203-.494-.355c-1.311-1.054-1.437-2.223-2.061-3.78-.589-1.479-.88-2.353-1.08-3.929-.171-1.384,0-2.182,0-3.568,0-1.257.139-1.969,0-3.217-.136-1.276-.101-2.083-.719-3.214-.332-.614-1.352-1.149-1.077-1.431.323-.326.88-.07,1.441,0,1.368.165,2.159.564,3.233,1.431,1.292,1.042,1.805,1.944,2.305,3.571.57,1.868.852,3.059,1.396,5,.285,1.007.446,1.599.975,2.501.548.937,1.096,1.304,1.795,2.14l-.038.079c-1.023,1.114-1.523,1.84-2.663,2.84-1.048.921-1.922,1.374-2.903,1.954l-.114-.035.003.013ZM1887.483,1231.8l7.65,3.511c3.939-2.163,8.485-6.551,11.994-13.346,3.021-5.851,3.499-9.027,4.676-14.691l-6.136-1.979-1.222.25c-1.893,5.867-2.378,9.211-5.55,14.277-2.752,4.398-5.892,7.852-9.084,10.335l-2.327,1.643h0ZM1904.425,1293.516c1.235-1.678,1.761-2.758,3.163-4.306,1.564-1.719,2.745-2.391,4.499-3.917.532.051,1.149-.041,1.646.244-.092,1.855-.187,3.233-.617,5.246-.291,1.402-.688,2.78-1.187,4.122-.462,1.32-.545,2.175-1.336,3.334-.529.769-.994,1.077-1.634,1.764-1.748-2.527-4.559-4.417-4.534-6.491v.003ZM2017.643,1299.817c1.963.716,3.153.918,5.037,1.833,2.093,1.019,3.068,1.96,5.031,3.214.092.526.358,1.086.215,1.646-1.821.415-3.179.703-5.246.855-1.437.108-2.881.108-4.319,0-1.406-.079-2.258.082-3.594-.358-.893-.294-1.317-.655-2.162-1.07,1.966-2.371,3.021-5.576,5.037-6.12h0ZM1984.167,1292.87c1.966.712,3.157.918,5.037,1.83,2.093,1.023,3.071,1.963,5.034,3.217.092.522.355,1.086.215,1.64-1.821.421-3.179.709-5.246.858-1.438.108-2.881.108-4.319,0-1.406-.076-2.258.082-3.594-.358-.893-.291-1.317-.652-2.162-1.067,1.966-2.371,3.017-5.576,5.034-6.12h0ZM1924.696,1300.124c1.966.716,3.157.918,5.037,1.833,2.093,1.019,3.071,1.96,5.037,3.214.089.526.352,1.086.215,1.646-1.824.415-3.182.703-5.253.855-1.678.12-2.637.092-4.312,0-1.406-.076-2.261.079-3.6-.358-.89-.294-1.317-.652-2.159-1.07,1.966-2.371,3.017-5.576,5.034-6.12h0ZM1893.898,1198.628c-2.102-.947-3.603-3.559-2.264-5.43.532-.747,1.412-.592,1.938-1.343.652-.931.488-1.732.465-2.859-.022-1.282-.491-1.95-.719-3.214-.244-1.38-.475-2.166-.465-3.571.019-2.137-.13-3.663,1.184-5.357.842-1.08,2.264-2.014,2.831-2.083.503.462-.196,1.71-.114,2.799.123,1.574.45,2.441.988,3.926.693,1.919,1.643,2.758,2.413,4.645.712,1.757,1.371,2.751,1.437,4.642.054,1.555-.085,2.508-.719,3.929-.567,1.26-1.029,1.973-2.093,2.859-.779.691-1.717,1.18-2.729,1.425-.738.081-1.484-.046-2.153-.367h0Z"/>
        <path class="cls-29" d="M1884.367,1314.103s-1.257.598-2.042.962c-1.023,1.124-1.536,1.783-2.682,2.786-1.523,1.333-2.641,1.722-4.293,2.888-.792.564-1.444.741-2.042,1.501-.864,1.099-.272,2.159-.858,3.429-.64,1.387-1.27,2.045-2.254,3.214-1.257,1.485-2.232,2.09-3.651,3.426-1.437,1.355-2.017,2.489-3.755,3.426-.462.247-.684.488-1.184.643-.741.228-1.2-.038-1.935.212-1.333.459-1.751,1.928-2.679,2.463.38.747.364,1.273.75,2.036.541,1.105,2.422,4.164,2.789,4.923.722,1.045.928,2.4,1.827,2.675,1.846.576,2.948.529,4.509.431,2.72.621,4.395.541,6.975,1.605,2.105.871,2.967,1.969,5.05,2.894,1.627.719,2.65,1.162,4.398,1.494,1.33.256,2.09.453,3.435.323.861-.082,1.295-.412,2.15-.535.171-.035.275,0,.427,0l-.101,1.286c-.022,0,.013.095,0,.108v.212h.212l7.083,3.103c-.264.402-.48.833-.643,1.286-.336,1.099-.389,2.362-.215,2.894,2.166,6.469,3.986,10.515,5.047,10.924,2.112.807,2.77,2.964,3.971,5.139-.421.453-.779.687-1.181,1.07-2.109,2.02-3.958,3.461-5.69,6.212-2.558,4.072-4.287,4.122-1.07,9.527,1.884,3.173,2.796,3.768,5.256,8.248,1.247,2.261,1.935,4.018,2.685,6.747.712,2.574.956,4.075,1.077,6.747l3.324,1.282,2.258-2.251,2.147-4.065.105-3.106c-.817-.693-1.054-1.624-.858-2.679.241-1.26,1.767-.994,2.473-2.144.972-1.577-1.14-2.514-2.258-3.743-2.077-2.299-4.914-2.856-5.582-6.32-.18-.937.266-1.463,1.289-2.463,2.941-2.878,3.882-3.334,6.766-6.209.83.484,2.096.662,3.328.427.959-.18,1.821.427,4.829,1.286,2.096.592,2.998.294,4.189.101l1.289-.317c.171.722.38,1.422.427,2.353.184,3.632-.532,10.265.538,11.994.45.731.64,1.137.966,1.928.342.823.735,1.358.753,2.248.035,2.387.158,3.907,0,6.427-.152,2.365-.358,3.568-.753,5.994-.256,1.548-.567,2.448-1.504,3.641-.972,1.248-2.042,1.431-3.328,2.356l-.32,3.429,3.866,1.605,4.398,1.07,2.362-.962c0-.871.139-1.371.538-2.144.437-.845.795-1.504,1.612-1.817,1.244-.491,2.609.44,3.112-.323.548-.83.206-1.159.108-2.571-.158-2.267-.63-3.391-.969-5.677-.564-3.803-.722-5.778-.535-9.423.108-2.112.13-3.277.535-5.354.592-3.024,1.672-4.49,2.365-7.498.773-3.347.909-5.503,1.289-8.457,10.889,1.551,19.95,1.361,32.102-1.282.579-.13,2.574-.858,2.574-.858,2.748,2.362,5.864,4.331,9.34,5.569-.022.345-.054,2.894,0,3.315.127.988-.139,1.653.427,2.466.364.516.678.82,1.289.959.906.212,1.564.079,2.258-.532.776-.69.633-1.558.858-2.571.111-.481.025-1.931,0-2.356,1.26.19,1.684.215,3.008.215,1.225,0,1.821.048,3.005-.108.019.275.07,1.263.105,1.605.095.839-.26,1.488.108,2.251.383.785.861,1.228,1.719,1.39.627.158,1.289.041,1.824-.323,1.016-.633.909-1.707,1.077-2.891.044-.891.044-1.784,0-2.675.728-.231,2.84-1.001,3.543-1.286-.035.935-.143,1.865-.323,2.783-.182,1.097-.471,2.173-.861,3.214-.706,1.944-1.514,2.932-2.577,4.711-1.292,2.172-1.963,3.375-3.537,5.351-.728.912-1.232,1.323-1.935,2.251-.88,1.156-1.175,1.941-2.042,3.106-1.111,1.501-1.751,2.479-3.22,3.638-2.381,1.884-3.951.377-7.19,2.894l-.757,3.53,4.939,1.824,4.404.858,1.501-.858c-.041-1.032.111-1.76.753-2.571.731-.925,1.517-1.2,2.682-1.393,1.241-.203,2.568.117,3.543-.747,1.203-1.067,1.2-3.131,2.147-5.037,2.951-5.905,5.569-8.78,10.309-13.381,2.105-2.045,3.907-2.596,5.693-4.927.842-1.105,1.786-1.608,1.821-2.998.028-.972-.494-1.422-.75-2.356-.358-1.292-.643-3.426-.643-3.426,5.227,2.549,3.334,2.213,4.297,4.819.773,2.106-.114,3.562.212,5.778.38,2.593,1.599,3.818,1.824,6.424.269,3.103-.491,4.866-1.073,7.928-.513,2.688-.446,4.376-1.608,6.852-1.108,2.362-1.96,3.692-3.974,5.354-.725.598-1.267.855-2.039,1.393l-.431,3.53,3.866,1.289,5.582,1.498,1.289-1.175c.564-2.245-.19-5.541,1.393-5.785,1.396-.212,2.381,0,2.688-1.07.123-.453.199-1.118.32-2.14.76-6.462,1.45-12.494,2.147-15.42.792-3.318.738-4.037,1.4-6.535.602-2.276-.298-.969,1.393-5.781,2.523-7.187-.712-8.137-3.651-12.529-1.589-2.375-2.137-3.233-2.362-5.139-.332-2.799.564-5.123.431-9.423-.114-3.283-.114-6.57,0-9.853.396-.18.763-.415,1.181-.643,4.021-2.201,5.62-2.865,8.159-8.46.725-1.577,1.092-3.295,1.073-5.031-.019-1.137-.225-2.235-.323-3.537-.105-1.368-.652-2.182-1.073-3.211-.446-1.089-1.114-1.916-1.935-2.891-2.65-3.166-6.111-3.882-9.337-5.034-5.098-1.821-8.606-1.488-14.172-1.928-5.747-.45-8.957-.538-14.71-.212-6.893.393-10.746,1.779-17.607,2.571-6.579.76-10.227,1.266-16.854,1.39-7.767.146-15.185-1.574-19.862-1.178-8.422.719-8.565,2.612-21.261,3.644-4.394.34-8.797.553-13.203.64l-7.409-2.353c2.945-1.051,3.667-1.675,5.05-3.534.931-1.254.798-2.327,1.931-3.644.912-1.067,1.52-2.131,2.679-3.321-.939-.747-2.043-1.26-3.22-1.494-1.247-.263-1.966-.146-3.217,0-1.697.19-2.653.424-4.189,1.178-1.238.605-2.144,1.222-2.9,2.033,0,0-4.414-2.837-7.513-4.176-3.844-1.659-5.497-2.438-10.306-3.106v.006ZM1891.13,1354.9h.215c-.041.035-.066.076-.105.108l-.111-.108Z"/>
        <path class="cls-9" d="M2035.884,1360.2l-2.539.868c-2.884,1.434-5.25,1.491-8.65,1.77-8.796.719-14.213-3.768-23.284-3.021-4.67.386-6.738,4.243-11.512,5.519-1.848.521-3.743.858-5.658,1.004l1.704-3.685s-4.271.934-7.039.94c-1.7.03-3.399-.125-5.066-.462l3.388-3.385s-2.71-.475-4.306-1.197c-1.29-.552-2.482-1.312-3.527-2.248,1.89-.332,3.768-.754,5.623-1.257,5.177-1.371,6.788-4.088,12.944-4.721,3.825-.396,10.088-.165,25.428,2.555,10.103,1.789,14.58.95,18.421-.921,2.527-1.228,3.359-3.597,3.67-6.37.307-2.767-1.346-5.003-2.91-6.45-.409-.38-1.475-1.194-3.701-1.295"/>
        <path class="cls-18" d="M1886.65,1328.427c-2.159-.241-3.6.038-5.459,1.061-1.957,1.083-2.204,2.546-3.619,4.17,1.814.364,2.85,1.317,4.654.928,1.412-.307,2.147-.868,3.1-1.852,1.289-1.323,1.761-2.466,1.745-4.221l-.421-.086h0Z"/>
        <path class="cls-9" d="M1923.537,1373.441s.887,1.751,1.368,2.916c.833,2.02,1.26,3.201,1.757,5.348.671,2.913.383,4.68.807,7.646.076.519.168.959.26,1.371l-.168,4.113M1950.396,1369.506s-.735,2.96-1.187,4.86c-1.184,4.93-2.27,7.605-3.169,12.608-.152.839-.263,1.612-.348,2.349M1909.235,1374.828c2.653.64,1.827,12.244,6.006,14.907"/>
        <path class="cls-1" d="M2007.388,1394.836l1.187-.776c3.112-1.279,5.94-3.166,8.311-5.557"/>
        <path class="cls-9" d="M1978.892,1388.503h.025c13.273-2.922,22.107-8.767,28.471-9.499"/>
        <path class="cls-9" d="M1991.557,1373.033c1.048-.041,2.052-.12,2.913-.247,5.148-.763,5.975,2.495,9.562,4.569,6.516,3.777,7.362,8.381,15.09,12.193.405.199.782.389,1.121.564l2.976,1.558"/>
        <path class="cls-18" d="M1861.741,1341.953c.972.313,1.564.374,2.562.253,1.203-.146,1.754-1.108,2.957-1.159.978-.048,1.675-.149,2.479.583.507.459.725.883,1.013,1.589.317.776.592,1.314.45,2.172-.215,1.32-1.175,1.947-2.223,1.954-.858,0-1.574-.288-1.973-1.266-.253-.57-.303-1.209-.139-1.811-1.029.5-1.776.519-2.815.076-.991-.358-1.827-1.219-2.311-2.391h0Z"/>
        <path class="cls-30" d="M1884.567,1372.055c-2.732-.807-6.741-2.815-6.741-2.815,1.108-.852,2.014-.902,2.96-1.89,1.336-1.39,1.279-2.682,2.033-4.493.738-1.77.63-3.249,2.302-4.572.994-.785,2.612-.918,3.834-.564,1.21.386,2.603,1.365,2.907,2.609.472,1.912-.548,3.017-.842,4.952s-1.004,3.046-.668,4.974c.225,1.276.779,1.767,1.213,3.087,0,0-4.335-.503-6.997-1.292v.003ZM1881.172,1375.291c-.014-1.185.933-2.158,2.118-2.175,1.185-.021,2.164.921,2.188,2.106.016,1.183-.929,2.155-2.112,2.172-1.183.028-2.165-.907-2.194-2.09v-.013ZM1875.135,1319.058s-.307-.206-.494-.355c-1.311-1.054-1.437-2.223-2.061-3.78-.589-1.479-.88-2.353-1.08-3.929-.171-1.384,0-2.182,0-3.571,0-1.257.139-1.966,0-3.214-.136-1.276-.101-2.083-.719-3.217-.332-.611-1.352-1.146-1.077-1.428.323-.329.88-.07,1.441,0,1.368.165,2.159.564,3.233,1.428,1.292,1.045,1.805,1.947,2.305,3.575.57,1.865.852,3.059,1.396,5,.285,1.004.446,1.596.975,2.498.548.937,1.096,1.304,1.795,2.144l-.038.079c-1.023,1.114-1.523,1.84-2.663,2.84-1.048.918-1.922,1.374-2.903,1.95l-.114-.032.003.013ZM1887.483,1355.296l7.65,3.511c3.939-2.163,8.485-6.551,11.994-13.346,3.021-5.851,3.499-9.027,4.676-14.691l-6.136-1.979-1.222.25c-1.893,5.867-2.378,9.207-5.55,14.277-2.752,4.398-5.892,7.849-9.084,10.335l-2.327,1.643h0ZM1904.425,1417.012c1.235-1.678,1.761-2.761,3.163-4.306,1.564-1.719,2.745-2.391,4.499-3.917.532.051,1.149-.041,1.646.241-.092,1.859-.187,3.236-.617,5.25-.292,1.402-.689,2.78-1.187,4.122-.462,1.32-.545,2.175-1.336,3.334-.529.769-.994,1.077-1.634,1.764-1.748-2.527-4.559-4.417-4.534-6.491v.003ZM2017.643,1423.313c1.963.716,3.153.918,5.037,1.833,2.093,1.019,3.068,1.96,5.031,3.214.092.526.358,1.086.215,1.646-1.821.415-3.179.703-5.246.855-1.437.108-2.881.108-4.319,0-1.406-.079-2.258.079-3.594-.358-.893-.294-1.317-.655-2.162-1.07,1.966-2.371,3.021-5.576,5.037-6.12h0ZM1984.167,1416.363c1.966.716,3.157.921,5.037,1.833,2.093,1.023,3.071,1.963,5.034,3.217.092.522.355,1.086.215,1.64-1.821.418-3.179.709-5.246.858-1.438.108-2.881.108-4.319,0-1.406-.079-2.258.082-3.594-.358-.893-.291-1.317-.652-2.162-1.07,1.966-2.368,3.017-5.576,5.034-6.12h0ZM1924.696,1423.62c1.966.716,3.157.918,5.037,1.83,2.093,1.023,3.071,1.963,5.037,3.217.089.522.352,1.086.215,1.643-1.824.418-3.182.706-5.253.855-1.678.123-2.637.092-4.312,0-1.406-.073-2.261.082-3.6-.358-.89-.291-1.317-.649-2.159-1.067,1.966-2.371,3.017-5.576,5.034-6.12h0ZM1893.898,1322.123c-2.102-.947-3.603-3.559-2.264-5.43.532-.747,1.412-.592,1.938-1.343.652-.931.488-1.732.465-2.859-.022-1.286-.491-1.95-.719-3.214-.244-1.38-.475-2.169-.465-3.571.019-2.137-.13-3.663,1.184-5.357.842-1.08,2.264-2.017,2.831-2.083.503.462-.196,1.71-.114,2.799.123,1.574.45,2.441.988,3.926.693,1.919,1.643,2.758,2.413,4.642.712,1.76,1.371,2.755,1.437,4.645.054,1.555-.085,2.504-.719,3.929-.567,1.26-1.029,1.973-2.093,2.859-.779.691-1.717,1.18-2.729,1.425-.738.081-1.484-.046-2.153-.367h0Z"/>
        <path class="cls-8" d="M1503.986,856.564h281.015v281.066h-281.015v-281.066ZM1814.96,856.564h281.018v281.066h-281.018v-281.066ZM1505.044,1381.392c.798,5.06,2.6,13.748,7.399,22.645,5.05,7.992,3.185,7.776,14.622,20.561,5.623,6.298,14.406,11.687,21.293,15.404,6.912,3.73,12.025,5.56,23.395,8.552,22.287,5.858,37.925,6.225,56.679,5.474,14.628-.586,25.795-2.387,35.047-3.638,13.187-1.776,23.012-2.834,38.017-3.461,7.295-.31,14.188-.377,21.005,0,8.223.456,16.347,1.729,24.988,3.461,18.611,3.73,37.488,10.924,37.488,10.924l.048-293.509-281.066-.079v200.609s.576,9.803,1.086,13.057h0ZM2094.956,1381.322c-.798,5.063-2.599,13.748-7.396,22.645-5.053,7.992-3.188,7.776-14.618,20.561-5.63,6.294-14.413,11.69-21.299,15.404-6.912,3.73-12.022,5.56-23.392,8.549-22.29,5.861-37.928,6.231-56.676,5.481-14.631-.586-25.798-2.394-35.05-3.641-13.191-1.773-23.015-2.834-38.017-3.461-7.295-.307-14.191-.377-21.002,0-8.229.453-16.353,1.732-24.994,3.461-18.611,3.733-37.729,10.924-37.729,10.924l.196-293.509,281.063-.079v200.609s-.573,9.799-1.086,13.054v.003Z"/>
      </g>
      <path class="cls-26" d="M400,.1h800v2400H400C180,2400.1,0,2220.1,0,2000.1V400.1C0,180.1,180,.1,400,.1Z"/>
      <path class="cls-27" d="M2400,.1h800c220,0,400,180,400,400v1600c0,220-180,400-400,400h-800V.1Z"/>
    </g>
  </g>
</svg>