<?xml version="1.0" encoding="UTF-8"?>
<svg xmlns="http://www.w3.org/2000/svg" viewBox="0 0 3600.1 2401.738">
  <defs>
    <style>
      .cls-1, .cls-2 {
        stroke-width: 0px;
      }

      .cls-2 {
        fill: #eee;
        fill-rule: evenodd;
      }
    </style>
  </defs>
  <g id="background">
    <path id="bg" class="cls-2" d="M400,.1h2800c220,0,400,180,400,400v1600c0,220-180,400-400,400H400C180,2400.1,0,2220.1,0,2000.1V400.1C0,180.1,180,.1,400,.1Z"/>
  </g>
  <g id="country">
    <g id="af">
      <path class="cls-1" d="M478.708,679.414c-8.072,2.199-20.267,31.432-15.723,41.911,3.784,8.729,11.806,12.507,21.166,14.515-5.786,20.988-54.412,38.732-64.001,56.613-.692,13.216.126,39.06,23.447,42.898,50.391,8.294,95.646-38.743,112.294-93.721-12.704,13.665-45.985,47.449-64.674,59.765-22.882,14.599-44.739,12.636-58.601,5.939,3.317-5.344,18.039-14.523,38.142-28.371,20.103-13.844,22.052-17.542,27.835-38.438,11.664,4.391,28.236,2.116,31.561-.938,6.776-8.87,9.589-19.074,7.499-29.389-3.551-7.49-24.957-33.506-35.456-35.785.008-9.064-24.892-19.776-29.681-11.119-1.823,3.514,7.399,9.659,6.191,16.116v.004ZM493.95,695.107c2.79,6.015,2.247,12.716-1.162,16.254-29.879,1.327-16.415-20.675,1.162-16.254ZM505.286,703.573c7.025,1.41,14.485,10.017,19.973,15.102-11.794,1.612-15.635,1.105-21.869-.781-.615-4.852.191-9.834,1.896-14.321Z"/>
      <path class="cls-1" d="M1884.323,1219.15c-14.707,4.582-18.127,6.564-38.937,15.133-11.122-18.994-13.965-20.241-19.48-26.953,5.179-6.267,53.525-3.088,58.417,11.817v.004ZM1831.061,1451.951c-56.105,25.394-94.916,59.456-92.604,123.209-64.601-25.387-81.739-93.511-90.128-128.065-13.025-53.655-45.572-268.309-115.604-308.657l-1.693,85.053c24.254,40.428,66.012,155.445,80.08,221.923-24.75,61.103-162.946,171.226-226.446,167.59-45.316-2.596-39.759-60.562-9.287-168.771-46.979,48.143-72.413,206.939-4.342,234.102,43.034,14.889,103.863-24.681,161.547-70.373,85.151-67.457,76.648-97.411,85.943-132.841,17.604,77.62,70.013,184.041,227.341,187.186l1.234-59.422c-28.389-2.611-79.247-45.219-79.896-58.618,17.37-23.671,109.287-72.901,244.875-103.018,18.448-28.535,31.339-43.862,38.425-59.632-34.389,6.472-158.176,11.092-190.498,12.03-92.298-.133-94.507,1.483-151.442-.351,3.665-15.697,92.963-87.717,117.68-97.323,4.521,6.549,6.153,21.155,9.257,33.841,28.03-17.55,23.237-44.651,23.787-46.858.55-2.211,54.202-19.398,73.556-28.329l24.888-52.816c-28.374-34.855-87.899-58.347-111.194-51.204-74.485,22.817-46.245,71.334-36.105,101.485-73.334,65.517-159.384,87.843-161.922,206.836,30.747-7.837,139.357-5.763,182.544-6.976h.004ZM1238.517,1129.626l-10.243-.008c-30.606,47.922-40.321,88.929-85.075,99.534-33.927,8.039-70.246-1.807-56.067-87.809-40.627-9.758-146.737,53.03-176.364,60.104-8.687-48.284-35.926-75.455-64.081-92.166-91.133-54.089-140.618,168.573-58.035,170.952,31.431.903,41.685.576,90.292.08,6.841,11.973,21.028,40.279,17.084,62.296-44.047,63.36-165.698,159.467-244.841,149.88-91.419-11.069-141.41-73.648-100.236-225.163l-4.441-.038c-17.879,46.862-98.05,248.682,69.18,295.575,70.957,13.204,192.393-15.392,288.873-150.993,22.11-31.07,21.682-102.839,19.622-140.465,65.129-20.344,91.419-49.603,122.873-60.63,6.967,81.992,54.997,94.277,80.516,93.366,54.045-1.933,81.498-52.302,92.543-76.522,7.449,29.568,33.403,50.792,67.254,44.655,69.788-12.655,92.413-130.173,51.236-179.448l-29.428,59.182c34.592,48.055,7.82,51.196-7.453,54.837-47.315,11.264-59.835-39.768-63.206-77.235v.015ZM852.133,1209.315c-26.463,2.295-51.886,2.058-70.632.423-4.269-8.748,3.837-30.754,17.779-35.781,17.359-6.259,38.7,8.794,52.857,35.358h-.004ZM1438.745,684.731c42.939,25.878,91.312,96.919,37.431,203.219l-6.444.011c3.761-33.544,28.962-96.85-31.209-147.909l.222-55.321Z"/>
      <path class="cls-1" d="M1509.897,1237.553l-.738,18.339-38.44-15.32c24.735,53.335,51.97,94.685,41.146,159.958-11.771,70.995-228.759,226.044-305.693,246.456-61.892,16.417-143.886,17.511-231.51,18.64,180.595-42.986,405.532-175.19,522.841-282.34-18.804-23.858-55.035-74.204-61.448-120.018-15.15-28.379-27.525-49.351-27.525-49.351l10.919-66.813,90.449,90.45Z"/>
      <path class="cls-1" d="M2871.213,1556.044c.994,18.087,38.421,24.102,67.62-4.117,3.352-.919,10.013-.922,13.656-1.353-4.965,24.624-36.797,41.69-46.336,47.67-14.982,9.388-36.002,26.046-56.98,31.619l.287-15.834c5.45-3.877,9.073-6.415,18.116-14.252-24.804-12.975-25.335-28.394-19.943-39.136,14.829-29.541,47.017-62.353,73.483-41.785,3.256,15.838-8.163,45.212-24.288,22.81-11.405.839-23.612,7.025-25.614,14.378Z"/>
      <path class="cls-1" d="M1887.388,727.073c-7.124-6.126-37.928-1.616-48.542-4.296.329-14.725,4.158-30.921,21.326-41.4,25.064-7.181,72.509,7.765,78.723,16.173,6.214,8.413-17.508,35.476-28.332,41.949-37.458,22.398-61.219,25.486-73.128,27.262-5.477-1.506-10.636-4.021-15.8-6.385,30.866-7.803,65.01-25.76,65.752-33.304ZM2003.432,1542.554c-17.5-.412-35.073,56.643-88.973,105.663-59.151,47.617-88.591,57.985-136.789,79.362,84.1-4.658,165.323-51.547,196.338-129.735,6.941,5.908,26.982,17.34,40.21,12.285,26.887-34.249-3.937-67.415-10.785-67.576h0ZM2009.983,1584.206c-1.796,1.105-15.949-4.079-20.952-8.771.978-4.727,7.151-7.913,10.923-6.492,10.38,7.128,13.889,11.908,10.029,15.262ZM714.904,1245.287c-41.379-16.238-52.574,72.958-64.467,119.119-24.063-69.032-51.389-72.268-65.125-66.295-52.276,23.302,6.295,106.746,33.9,56.891,8.813,10.513,14.821,30.624,37.359,72.866,7.697-56.781,15.696-150.349,58.001-112.086,27.311-29.012,10.908-65.811.336-70.495h-.004Z"/>
      <path class="cls-1" d="M590.938,1056.21c-9.02-.717-20.715,15.411-26.631,34.779-6.551,21.449-8.595,33.956,30.537,56.472-28.435,66.649-137.385,138.349-163.768,156.181,92.394-7.99,169.5-104.657,175.982-146.51,10.965,9.594,20.271,10.383,16.365,47.945,4.571-7.067,18.058-20.66,13.453-46.592-8.381-28.024-18.383-28.024-23.149-35.637,4.013-25.962-2.97-65.064-22.798-66.638h.008ZM598.062,1111.603c-2.599-1.963-17.351-13.681-21.112-20.119,2.79-6.899,11.989-6.046,16.778-2.542,4.781,3.503,4.67,22.108,4.338,22.661h-.004Z"/>
      <path class="cls-1" d="M1620.159,741.699c5.114,2.257-6.765,48.943,10.892,47.884,16.358-2.44,6.501-29.854,5.297-43.714,2.457-5.489,5.14-9.442,8.706-12.514,3.7,5.321,5.156,9.217,8.615,17.012-.138,5.92-4.185,28.47,10.032,30.456,14.141,1.109,1.735-28.15.944-38.042,2.408-9.125,8.599-15.834,8.599-15.834,28.913,79.998-6.298,92.65-27.414,69.981-10.625,19.234-17.428,18.041-22.522,17.904-20.409-.537-14.645-40.279-16.086-41.263-3.463,1.921-5.706,3.861-9.066,7.959l-.634-11.371,22.637-28.459Z"/>
      <path class="cls-1" d="M870.134,681.739l-23.413,61.824,19.029,64.789,93.571,611.249c-26.088,35.358-165.931,201.842-317.808,190.209-240.339-18.403-128.656-293.455-131.496-318.945l-2.866-.091c-132.027,293.737,26.314,391.262,127.196,394.521,133.957,4.33,255.768-80.959,330.784-193.209,47.46-81.687,1.62-292.113-11.58-375.92-12.253-89.471-31.282-199.243-47.743-299.607,13.438,9.339,28.095,15.499,28.095,15.499v-19.57l-63.768-130.749Z"/>
      <path class="cls-1" d="M2058.93,835.747l-27.422-25.512c10.98,76.068,35.861,242.446,61.62,402.374,4.212,51.711,65.824,296.623,2.469,349.252,5.53-98.257-57.263-408.85-75.62-551.545-3.077-25.615-30.231-215.21-46.249-269.041l19.224-67.736,65.973,136.188.004,26.019Z"/>
      <path class="cls-1" d="M1948.84,900.99l-43.138-3.892c83.218,101.371,133.403,163.423,256.693,296.676,120.099,129.807,145.174,156.173,125.193,266.471-11.015-99.214-75.773-131.252-193.937-264.653-16.151-19.585-164.555-175.533-270.494-337.84l9.769-69.23,115.551,98.668.363,13.799ZM2507.657,844.198l-27.418-25.505c10.976,76.064,36.568,239.232,60.072,399.503,28.836,196.624,77.133,380.299,28.439,477.954-16.522-151.755-52.058-348.654-71.572-491.356-3.073-25.615-58.081-396.564-74.722-455.064l19.224-67.736,65.977,136.188v26.016ZM2929.699,844.351l-27.422-25.509c10.976,76.064,32.876,241.763,60.298,402.808,26.424,155.197,23.994,211.418.206,285.569-18.574-132.445-50.586-337.279-73.139-488.738-3.073-25.615-28.282-207.457-44.922-265.957l18.12-72.359,66.856,138.17.004,26.015Z"/>
      <path class="cls-1" d="M2302.154,841.736l-26.535-24.3c18.479,125.82,35.727,239.419,61.838,399.286,12.987,79.487,39.518,247.5-54.091,347.96-82.518,88.556-188.178,97.487-246.897,98.966,97.978-56.365,275.045-141.037,286.909-253.412-6.52-79.087-40.271-256.191-60.397-395.802-3.073-25.615-28.947-200.302-44.701-262.766l18.563-70.484,65.312,138.277v22.276ZM2665.554,794.843l-40.638-4.201c117.026,141.124,238.917,268.446,360.594,399.625,121.608,125.519,152.795,171.63,129.096,269.067,5.84-90.511-188.633-243.757-295.191-370.198-115.1-132.289-170.173-181.141-278.294-336.91l7.896-67.98c35.589,21.209,116.797,96.176,116.797,96.176l-.26,14.42ZM2665.898,1156.827c42.939,25.874,91.312,96.915,37.432,203.215l-6.444.011c3.761-33.544,28.962-96.846-31.209-147.905l.222-55.321ZM2995.634,911.514c42.939,25.875,91.312,96.915,37.432,203.215l-6.444.011c3.761-33.544,28.958-96.85-31.209-147.909l.222-55.317ZM683.083,695.385c42.935,25.878,91.312,96.919,37.432,203.218l-6.444.008c3.757-33.544,28.958-96.846-31.213-147.905l.225-55.321ZM2144.123,727.805c-7.124-6.126-37.928-1.616-48.546-4.296.333-14.725,4.162-30.921,21.326-41.4,25.068-7.181,72.509,7.765,78.727,16.173,6.214,8.413-17.508,35.476-28.332,41.949-37.458,22.398-61.223,25.486-73.132,27.266-5.473-1.506-10.632-4.025-15.796-6.389,30.866-7.803,65.006-25.76,65.752-33.304h0ZM2363.965,726.482c-7.12-6.126-37.928-1.616-48.538-4.296.329-14.721,4.154-30.918,21.322-41.396,25.064-7.185,72.509,7.761,78.723,16.173,6.218,8.409-17.504,35.473-28.328,41.945-37.462,22.402-61.223,25.486-73.132,27.266-5.473-1.506-10.636-4.025-15.796-6.385,30.866-7.803,65.006-25.764,65.748-33.308ZM2978.474,727.805c-7.124-6.126-37.928-1.616-48.542-4.296.329-14.725,4.158-30.921,21.326-41.4,25.064-7.181,72.509,7.765,78.723,16.173,6.214,8.413-17.508,35.476-28.332,41.949-37.458,22.398-61.223,25.486-73.132,27.266-5.473-1.506-10.633-4.025-15.796-6.389,30.865-7.803,65.01-25.76,65.752-33.304ZM490.472,1171.769c-7.12-6.126-37.928-1.616-48.542-4.296.329-14.721,4.158-30.918,21.326-41.396,25.064-7.185,72.509,7.761,78.723,16.173,6.214,8.409-17.508,35.473-28.332,41.945-37.454,22.402-61.219,25.486-73.128,27.266-5.473-1.506-10.636-4.025-15.8-6.385,30.869-7.803,65.01-25.764,65.752-33.308h0Z"/>
      <path class="cls-1" d="M944.668,669.591c16.621,25.68,45.251,61.961,61.169,90.427.222,7.49-.654,12.217-.306,19.143-28.209-16.246-7.693-4.612-25.045-14.104,20.443,40.317,62.339,131.042,57.351,187.815-6.589,74.97-87.204,130.844-166.309,96.24-41.953-18.346-58.177-83.036-58.177-83.036,0,0-8.928,33.41-18.047,54.528-22.301,51.635-121.647,87.946-171.973,31.714-70.2-78.432-15.547-179.917-31.844-219.369-58.395,112.521-26.36,240.654-101.903,241.409-41.177-5.718-92.929-121.699-52.459-231.548-3.631,78.222,8.316,166.747,53.483,168.706,11.061.48,17.393-9.48,29.669-36.963,26.444-67.076,31.309-190.399,112.963-229.173,5.756,36.521-.241,89.596-9.039,137.941-11.89,65.327,19.339,146.083,101.07,122.092,15.135-4.448,37.493-14.245,68.5-69.966,11.129-41.61-17.428-128.305-26.096-186.084,5.11-12.903,15.073-43.237,21.957-54.055,6.436,6.194,25.205,41.979,25.779,48.669,11.091,61.671,13.453,200.588,71.11,240.021,30.537,20.885,107.624,4.681,130.181-29.13-17.86-27.609-69.531-128.515-74.748-194.57-2.049-12.236-8.981-27.506-10.663-32.9l13.377-57.81ZM3130.233,843.352l-26.539-24.3c18.483,125.82,35.727,239.419,61.838,399.286,12.987,79.487,42.392,253.771-55.18,350.407-77.068,76.331-155.493,90.149-250.436,95.703,91.167-49.302,279.949-141.852,291.537-252.6-6.516-79.087-40.271-256.183-60.393-395.798-3.073-25.615-28.947-200.302-44.704-262.766l18.567-70.488,65.308,138.281.004,22.276ZM2794.748,842.102l-26.535-24.296c18.479,125.82,34.168,234.75,60.279,394.617,12.983,79.487,36.358,197.127,11.496,260.834-23.203,59.456-40.52,109.803-119.453,114.647-120.951,7.425-98.891-162.291-170.513-160.755-113.51,2.432-149.585,307.803-215.688,312.861-86.443,4.948-145.981-179.528-91.19-293.57-13.831,119.748,24.181,218.134,76.35,219.541,72.165,1.944,102.744-317.752,249.913-313.193,70.002,2.169,46.233,160.656,156.582,164.041,47.953,1.471,85.87-32.084,90.238-63.699-6.516-79.087-40.841-286.262-60.967-425.873-3.073-25.615-28.634-212.759-44.391-275.22l18.567-70.488,65.308,138.277.004,22.276Z"/>
      <path class="cls-1" d="M1303.382,684.861c-8.66-.454-22.369,24.434-20.837,34.028,1.617,10.139,3.86,11.108,11.779,14.005-60.493,59.197-85.251,54.493-146.451,74.559,111.851,9.453,143.416-48.28,158.428-69.066,9.639,5.26,29.952,7.338,33.227,5.077,7.002-6.907,10.736-15.632,10.178-24.891-2.175-6.968-16.331-31.928-25.213-35.202,1.12-7.909-19.289-20.298-24.533-13.334-2.026,2.847,5.274,9.335,3.421,14.82v.004ZM1314.752,700.417c1.697,5.592.397,11.371-3.012,14.043-26.233-2.497-11.783-20.05,3.012-14.043ZM1323.6,709.192c5.958,2.093,9.853,9.892,14.011,14.996-10.487-.034-12.219-.316-17.424-2.733.046-4.307,1.376-8.554,3.413-12.263Z"/>
      <path class="cls-1" d="M1856.974,972.442c-7.376-.583-16.946,12.606-21.785,28.451-5.358,17.542-7.032,27.773,24.98,46.191,5.79,25.326-87.009,90.073-118.066,109.909,86.745-16.391,115.581-62.857,128.056-102,8.966,7.848,16.579,8.493,13.384,39.22,3.742-5.783,14.772-16.898,11.007-38.114-6.856-22.924-15.039-22.924-18.937-29.149,3.287-21.236-2.427-53.22-18.647-54.509h.008ZM1862.802,1017.753c-2.129-1.605-14.198-11.191-17.271-16.456,2.282-5.641,9.807-4.944,13.721-2.081,3.917,2.866,3.822,18.083,3.551,18.537Z"/>
      <path class="cls-1" d="M1649.82,1181.748c4.594,4.643-7.969,57.673,12.834,56.426,19.274-2.874,7.663-35.175,6.241-51.509,2.901-6.469,6.061-11.127,10.262-14.744,4.357,6.267,6.073,10.864,10.147,20.042-.153,6.979-4.93,33.548,11.825,35.892,16.663,1.307,2.041-33.17,1.108-44.827,2.84-10.753,11.129-19.318,11.129-19.318,34.064,94.266-7.758,111.038-32.639,84.328-12.517,22.665-20.535,21.258-26.535,21.098-24.047-.637-17.921-48.673-19.618-49.832-4.078,2.264-6.941,5.985-10.9,10.806l.573-16.81,25.572-31.554ZM2122.113,878.028c4.586,4.643-7.972,57.673,12.83,56.426,19.274-2.874,7.663-35.175,6.241-51.509,2.905-6.472,6.061-11.127,10.262-14.744,4.357,6.267,6.077,10.864,10.151,20.042-.161,6.976-4.93,33.548,11.821,35.892,16.663,1.307,2.045-33.17,1.108-44.827,2.843-10.753,11.133-19.318,11.133-19.318,34.061,94.266-7.758,111.038-32.639,84.328-12.517,22.665-20.539,21.258-26.539,21.098-24.043-.637-17.921-48.673-19.618-49.832-4.078,2.264-6.941,5.981-10.9,10.806l.577-16.81,25.572-31.554Z"/>
      <path class="cls-1" d="M1135.552,831.162l-27.422-25.505c10.976,76.064,35.861,242.442,61.62,402.366,4.212,51.711,65.824,296.623,2.469,349.252,5.53-98.253-57.263-408.846-75.62-551.541-3.077-25.615-30.231-215.21-46.249-269.041l19.224-67.736,65.973,136.188.004,26.016ZM1709.396,669.564c16.621,25.68,45.251,61.961,61.169,90.427.222,7.49-.654,12.217-.306,19.143-28.213-16.246-7.693-4.612-25.045-14.104,20.439,40.317,62.335,131.042,57.347,187.815-6.585,74.97-87.2,130.844-166.309,96.24-41.949-18.346-58.173-83.036-58.173-83.036,0,0-8.928,33.41-18.051,54.528-22.297,51.635-121.643,87.946-171.969,31.714-70.204-78.432-15.551-179.917-31.844-219.369-58.395,112.521-26.36,240.654-101.903,241.409-41.181-5.718-92.704-111.495-51.687-243.071-3.631,78.218,7.541,178.27,52.711,180.23,11.061.48,17.39-9.476,29.665-36.963,26.447-67.076,31.309-190.399,112.963-229.173,5.76,36.521-.241,89.596-9.039,137.941-11.886,65.327,19.339,146.083,101.07,122.092,15.138-4.448,37.493-14.245,68.5-69.966,11.133-41.61-17.424-128.305-26.096-186.084,5.114-12.903,15.077-43.237,21.961-54.055,6.436,6.194,25.205,41.979,25.775,48.669,11.091,61.671,13.453,200.588,71.11,240.021,30.537,20.885,107.628,4.681,130.185-29.13-17.86-27.609-69.531-128.515-74.748-194.57-2.049-12.236-8.981-27.506-10.663-32.9l13.377-57.81Z"/>
      <path class="cls-1" d="M1981.338,1355.825c-64.02-7.12,21.173-148.382,56.312-151.698-52.054,60.47-48.951,82.377-48.771,90.492.206,9.286,10.728,22.585,24.349,8.363l5.014,3.332c-1.108,4.704-12.268,52.252-36.9,49.515l-.004-.004ZM2187.337,1155.016c-64.028-7.12,21.166-148.382,56.304-151.694-52.054,60.467-48.947,82.373-48.767,90.488.203,9.286,10.724,22.589,24.345,8.363l5.014,3.332c-1.108,4.704-12.268,52.252-36.9,49.515l.004-.004Z"/>
      <path class="cls-1" d="M2364.302,1085.294c-77.011-8.565,25.465-178.484,67.731-182.471-62.614,72.737-58.88,99.092-58.666,108.846.248,11.172,12.903,27.174,29.291,10.063l6.031,4.006c-1.338,5.661-14.756,62.857-44.387,59.559v-.004ZM2407.16,1373.543c-77.011-8.569,25.465-178.488,67.731-182.471-62.614,72.729-58.88,99.084-58.666,108.842.248,11.172,12.903,27.171,29.291,10.063l6.031,4.006c-1.338,5.661-14.756,62.857-44.387,59.556v.004ZM2590.939,1131.859c-77.015-8.565,25.465-178.484,67.728-182.471-62.614,72.737-58.876,99.088-58.666,108.846.248,11.169,12.907,27.171,29.295,10.063l6.027,4.002c-1.338,5.664-14.752,62.857-44.384,59.559ZM2464.53,1702.631c-77.011-8.569,25.465-178.488,67.731-182.471-62.618,72.733-58.88,99.088-58.666,108.846.248,11.169,12.903,27.171,29.291,10.063l6.027,4.002c-1.334,5.661-14.752,62.857-44.384,59.559h0ZM1286.264,1458.889c-77.015-8.569,25.465-178.488,67.728-182.471-62.614,72.729-58.872,99.088-58.666,108.842.248,11.172,12.906,27.174,29.295,10.063l6.027,4.006c-1.338,5.661-14.752,62.857-44.383,59.559Z"/>
      <path class="cls-1" d="M1580.744,1717.055c-64.028-7.124,21.169-148.386,56.308-151.698-52.054,60.47-48.951,82.377-48.771,90.492.203,9.286,10.724,22.585,24.349,8.363l5.01,3.332c-1.108,4.704-12.268,52.252-36.896,49.511ZM908.104,1720.874c-64.028-7.12,21.169-148.382,56.308-151.698-52.054,60.47-48.951,82.377-48.771,90.492.203,9.286,10.724,22.585,24.349,8.363l5.01,3.332c-1.108,4.704-12.268,52.252-36.896,49.515v-.004Z"/>
      <path class="cls-1" d="M1034.601,1590.175c-87.552-9.739,28.947-202.902,76.996-207.434-71.183,82.686-66.933,112.643-66.692,123.735.279,12.701,14.668,30.891,33.3,11.439l6.853,4.555c-1.517,6.434-16.774,71.452-50.456,67.705Z"/>
    </g>
  </g>
</svg>