<?xml version="1.0" encoding="UTF-8"?>
<svg xmlns="http://www.w3.org/2000/svg" viewBox="0 0 3600.1 2401.738">
  <defs>
    <style>
      .cls-1 {
        fill: #141414;
      }

      .cls-1, .cls-2, .cls-3, .cls-4, .cls-5 {
        stroke-width: 0px;
      }

      .cls-2 {
        fill: #0072c6;
      }

      .cls-3 {
        fill: #ce1126;
      }

      .cls-4 {
        fill: #fcd116;
      }

      .cls-5 {
        fill: #eee;
        fill-rule: evenodd;
      }
    </style>
  </defs>
  <g id="background">
    <path id="bg" class="cls-5" d="M400,.1h2800c220,0,400,180,400,400v1600c0,220-180,400-400,400H400C180,2400.1,0,2220.1,0,2000.1V400.1C0,180.1,180,.1,400,.1Z"/>
  </g>
  <g id="country">
    <g id="ag">
      <path class="cls-1" d="M3200,.1H400C180,.1,0,180.1,0,400.1v800h3600V400.1C3600,180.1,3420,.1,3200,.1Z"/>
      <g>
        <path id="a" class="cls-4" d="M2582.609,939.23l-782.609,149.791v-299.583l782.609,149.791Z"/>
        <path id="a-2" data-name="a" class="cls-4" d="M2523.036,639.739l-665.713,437.88-114.645-276.778,780.359-161.102Z"/>
        <path id="a-3" data-name="a" class="cls-4" d="M2353.388,385.843l-447.469,659.306-211.837-211.837,659.306-447.469Z"/>
        <path id="a-4" data-name="a" class="cls-4" d="M2099.491,216.194l-161.102,780.359-276.778-114.645,437.88-665.713Z"/>
        <path id="a-5" data-name="a" class="cls-4" d="M1800,156.622l149.791,782.609h-299.583l149.791-782.609Z"/>
        <path id="a-6" data-name="a" class="cls-4" d="M1246.612,385.843l659.306,447.469-211.837,211.837-447.469-659.306Z"/>
        <path id="a-7" data-name="a" class="cls-4" d="M1076.964,639.739l780.359,161.102-114.645,276.778-665.713-437.88Z"/>
        <path id="a-8" data-name="a" class="cls-4" d="M1017.391,939.23l782.609-149.791v299.583l-782.609-149.791Z"/>
        <path id="a-9" data-name="a" class="cls-4" d="M1500.509,216.194l437.88,665.713-276.778,114.645-161.102-780.359Z"/>
      </g>
      <path class="cls-2" d="M0,939.23h3600v521.739H0v-521.739Z"/>
      <path class="cls-3" d="M0,400.1v1600C0,2220.1,180,2400.1,400,2400.1h1400L101.14,134.954C38.293,205.669,0,298.629,0,400.1Z"/>
      <path class="cls-3" d="M1800,2400.1h1400c220,0,400-180,400-400V400.1c0-101.471-38.293-194.431-101.14-265.146l-1698.86,2265.146Z"/>
    </g>
  </g>
</svg>