<?xml version="1.0" encoding="UTF-8"?>
<svg xmlns="http://www.w3.org/2000/svg" viewBox="0 0 3600.1 2401.738">
  <defs>
    <style>
      .cls-1 {
        fill: #cc3;
      }

      .cls-1, .cls-2, .cls-3, .cls-4, .cls-5, .cls-6, .cls-7, .cls-8, .cls-9 {
        stroke-width: 0px;
      }

      .cls-2 {
        fill: #fff;
      }

      .cls-3 {
        fill: #00247d;
      }

      .cls-3, .cls-6, .cls-8 {
        fill-rule: evenodd;
      }

      .cls-4, .cls-8 {
        fill: #eee;
      }

      .cls-5, .cls-6 {
        fill: #cf1b2b;
      }

      .cls-7 {
        fill: #9cf;
      }

      .cls-9 {
        fill: #f90;
      }
    </style>
  </defs>
  <g id="background">
    <path id="gb" class="cls-3" d="M400,.1h2800c220,0,400,180,400,400v1600c0,220-180,400-400,400H400C180,2400.1,0,2220.1,0,2000.1V400.1C0,180.1,180,.1,400,.1Z"/>
  </g>
  <g id="country">
    <g id="ai">
      <path class="cls-1" d="M2341.749,736.892c0,446.481,35.619,605.025,157.818,727.437,122.202,122.412,168.498,141.693,202.572,160.449,39.303-21.636,84.591-45.402,195.345-156.156,109.539-109.545,162.519-267.45,162.519-739.356-79.68,34.11-119.358,45.351-189.036,45.15-51.606,5.058-131.22-28.011-178.827-49.641-31.11,19.806-76.245,43.428-157.353,46.08-93.675,3.93-123.36-11.205-193.035-33.966l-.003.003Z"/>
      <path class="cls-2" d="M2363.325,765.089c0,138.129-8.166,326.382,21.018,435.3,29.31,109.386,36.039,125.409,58.08,163.584l513.618-3.81c31.728-54.957,33.33-88.998,56.859-176.808,23.442-87.495,29.364-282.531,30.048-427.8-51.648,26.175-119.283,44.724-184.929,36.585-52.629-3.825-101.256-15.276-157.881-45.792-49.122,28.059-66.246,40.866-147.357,44.142-63.15,2.97-114.303,7.845-189.456-25.404v.003Z"/>
      <path class="cls-7" d="M2443.53,1360.943c36.555,73.344,208.896,213.909,259.299,243.009,57.504-33.201,209.544-172.104,251.919-243.009h-511.218Z"/>
      <path class="cls-9" d="M2712.663,969.593c16.242,36.42,68.31,76.635,82.623,96.342-18.219,19.71-21.861,17.562-19.47,54.18,31.68-31.605,32.25-34.899,52.626-30.105,44.64,42.465,7.989,133.671-28.902,153.498-36.882,21.153-30.186-.732-85.467,25.779,25.347,20.661,54.711-3.03,78.708,3.3,13.041,14.754-6.198,41.637,3.939,66.954,21.21-1.95,18.66-42.768,23.598-57.57,15.492-54.228,108.642-92.049,113.379-141.789,19.638-8.79,39.27-2.751,63.15,10.035-11.892-46.602-51.237-46.101-61.782-60.654-25.104-36.57-47.355-78.294-100.971-89.118-40.701-8.217-37.659,2.472-63.741-14.49-16.242-12.054-65.583-34.854-57.69-16.362h0Z"/>
      <path class="cls-9" d="M2582.517,1124.092c26.19-30.702,39.159-93.381,50.751-114.654,26.79,6.15,26.499,10.224,59.34-8.895-44.109-11.943-47.43-10.884-52.503-30.3,18.531-57.465,120.234-69.18,155.859-47.343,36.846,21.204,13.422,25.788,63.834,60,7.32-31.02-28.371-44.703-33.708-67.89,7.59-17.883,41.508-14.223,60.252-34.596-11.715-16.968-48.381,4.248-64.413,7.002-57.531,12.273-136.119-48.579-184.464-29.334-17.328-12.45-20.895-31.818-20.196-57.921-37.662,31.794-18.816,64.725-27.387,80.415-22.191,38.244-50.49,76.491-35.481,126.744,11.394,38.148,19.887,30.591,16.341,60.498-3.594,19.323-1.686,71.568,11.775,56.274h0Z"/>
      <path class="cls-9" d="M2795.289,1145.681c-41.109-5.484-104.082,16.353-129.177,17.901-8.334-25.041-4.53-26.91-38.679-43.815,12.096,42.165,14.766,44.328-.039,58.512-61.17,14.604-124.296-62.319-123.12-102.678-.027-41.034,16.203-24.291,20.838-83.121-31.629,10.071-25.455,46.272-43.506,62.622-19.98,3.06-34.239-26.511-62.22-31.266-9.174,18.333,28.839,37.278,39.603,48.933,40.776,40.59,26.805,136.191,69.087,165.681-2.214,20.58-17.754,33.51-41.55,46.44,48.027,14.28,67.839-18.129,86.355-19.251,45.81-1.68,94.782,1.626,132.129-36.615,28.35-29.028,17.172-32.046,45.855-44.625,19.203-7.065,65.115-35.646,44.424-38.718h0Z"/>
      <ellipse class="cls-2" cx="2821.249" cy="1011.011" rx="8.483" ry="8.088"/>
      <ellipse class="cls-2" cx="2570.197" cy="1013.209" rx="8.483" ry="8.088"/>
      <ellipse class="cls-2" cx="2702.122" cy="1213.096" rx="8.483" ry="8.088"/>
    </g>
    <g id="mini-gb">
      <path class="cls-3" d="M1600,.1v1200H0V400.1C0,180.1,180,.1,400,.1h1200Z"/>
      <path id="Path" class="cls-8" d="M1534.9.1h65.1v255.8l-545.5,354.3,545.5,354.2v235.7h-96l-679-440.9-679,440.9H0v-203.2l595.5-386.7L31.6,243.9C65.5,164.1,124.5,97.6,198.7,54.3l626.3,406.7L1534.9.1Z"/>
      <path id="Path-2" class="cls-6" d="M0,1189.3v-119.2l708.2-460L60,189.3c17.8-28.7,39.2-54.9,63.4-78.2l676.6,439.4L1600,31.1v119.3l-708.2,459.7,708.2,460v119.2l-800-519.5L0,1189.3Z"/>
      <polygon id="Shape" class="cls-4" points="1000 400.1 1600 400.1 1600 800.1 1000 800.1 1000 1200.1 600 1200.1 600 800.1 0 800.1 0 400.1 600 400.1 600 .1 1000 .1 1000 400.1"/>
      <polygon id="Shape-2" class="cls-5" points="900 500.1 900 .1 700 .1 700 500.1 0 500.1 0 700.1 700 700.1 700 1200.1 900 1200.1 900 700.1 1600 700.1 1600 500.1 900 500.1"/>
    </g>
  </g>
</svg>