<?xml version="1.0" encoding="UTF-8"?>
<svg xmlns="http://www.w3.org/2000/svg" viewBox="0 0 3600.1 2401.738">
  <defs>
    <style>
      .cls-1, .cls-2 {
        fill-rule: evenodd;
        stroke-width: 0px;
      }

      .cls-2 {
        fill: #e41e20;
      }
    </style>
  </defs>
  <g id="background">
    <path id="al" class="cls-2" d="M400,.1h2800c220,0,400,180,400,400v1600c0,220-180,400-400,400H400C180,2400.1,0,2220.1,0,2000.1V400.1C0,180.1,180,.1,400,.1Z"/>
  </g>
  <g id="country">
    <g id="al-2" data-name="al">
      <path class="cls-1" d="M1890.801,1810.07c-21.065-18.222-46.601-55.124-46.24-90.693,1.884-26.524,20.115-41.934,31.893-9.556,16.654,35.737,52.369,94.835,101.588,60.165,21.505-15.746,21.169-38.932-8.314-36.272-36.409-2.489-58.775-22.477-75.068-73.944-2.964-28.303,8.837-27.597,25.301-9.388,21.166,24.231,63.29,60.855,109.76,41.227,25.824-10.8,33.112-33.084-5.902-38.568-36.937.535-67.086-23.357-97.102-59.801-16.458-20.166,7.817-40.518,22.392-23.357,12.997,11.142,31.2,31.669,46.803,34.499,18.038,3.534,40.401,1.776,65.18-11.313,26.707-22.306,18.035-38.4-14.387-42.104-25.133,1.244-38.821,10.775-71.24-10.8-58.274-39.302-104.603-91.814-111.841-154.977-4.756-41.544,17.633-54.123,36.244-49.343,50.625,12.994,83.74,107.389,118.765,159.242,11.468,14.945,22.005,15.188,29.455,10.582,14.052-12.019,25.273-21.901,39.321-35.338,0,0,103.045,18.475,159.16,36.725l-62.482,22.157c-23.658-13.035-52.208,1.016-52.208,23.633-22.388,15.445-20.587,33.556-10.927,51.033,2.945-12.171,5.459-27.977,23.142-30.079,25.241,10.417,54.649-4.449,54.649-24.117l73.703-28.904,74.463,42.063c0,28.433,26.998,37.441,55.092,29.766,13.238,8.204,21.749,22.433,26.232,37.653,8.289-21.948,6.56-37.444-6.421-48.212,7.45-28.376-32.403-55.662-63.252-37.491l-53.569-30.69,91.691-2.561c10.642,18.795,49.105,19.83,60.326,0,9.59-2.622,17.696-4.29,36.393,9.578-5.892-22.439-17.357-32.033-34.559-32.033-13.07-23.107-60.371-22.999-67.2,3.014l-95.497,2.65,56.663-40.252c21.15,12.459,50.827-1.393,56.77-24.025,8.432-10.005,18.833-14.704,39.299-7.916-10.55-18.643-25.415-24.206-52.259-11.554-24.491-18.516-56.77,3.942-51.872,22.585l-75.385,51.179c-54.722-16.293-153.822-41.661-153.822-41.661,11.797-12.386,23.769-23.892,35.547-36.446,4.255-7.355-2.245-15.92-11.278-17.706-88.423-18.209-139.048-53.775-169.726-144.174-12.83-37.859,14.91-49.172,24.443-26.014,13.187,32.207,27.736,67.409,67.441,94.667,13.694,9.556,54.456,1.754,30.345-21.065-24.969-20.527-35.715-29.351-48.019-79.254,0-25.282,25.824-36.621,40.23-12.386,15.413,49.71,16.99,71.113,44.894,103.143,21.144,24.237,48.716,40.521,62.406,40.157,24.633-.342,49.431-26.897,16.483-46.176-48.38-19.282-66.06-45.635-73.181-70.771-7.789-43.855.719-65.091,27.239-43.517,37.605,42.64,109.396,122.068,147.005,159.049,42.146,32.207,90.5,33.252,128.989.535,22.031-25.304,14.213-52.534-20.28-46.708-77.838,6.557-136.781-32.011-201.454-136.23-12.662-23.525-16.132-57.315,11.797-32.178,32.232,43.513,79.225,80.495,122.929,96.415,43.862,15.727,80.08,7.042,94.126-6.725,16.93-16.889,12.478-59.44-16.819-49.178-24.104,8.489-58.078,10.607-93.435-3.021-35.386-13.798-72.133-43.513-111.144-93.929-13.358-28.477-9.008-52.54,18.032-37.868,63.983,54.152,146.511,98.011,188.628,71.655,31.038-19.282,31.564-68.821-7.789-65.63-79.247,10.775-109.228-6.725-185.351-73.77-17.322-12.921-16.122-45.66,11.443-24.769,63.98,41.227,151.355,57.312,185.687,35.74,30.871-19.285,26.353-78.209-25.656-57.34-41.62,25.304-87.565,24.598-179.62-41.031-23.221-19.282-5.902-44.416,13.165-33.616,74.042,42.104,181.887,60.139,209.962-25.475,10.917-32.72-8.837-51.831-37.798-29.186-63.625,58.73-135.755,29.889-176.128.342-11.563-6.801-32.78-41.224,4.487-34.835,96.405,21.939,191.756,2.827,209.101-65.288,10.062-22.113-9.727-61.216-44.913-28.474-46.281,45.638-95.354,47.221-157.064,46.879-31.396-6.557-31.729-41.053-5.379-46.173,48.716,1.045,96.741-20.188,135.233-41.763,37.627-21.575,68.831-51.831,78.722-93.761,6.063-37.498-30.174-77.303-52.015-37.498-32.254,58.195-103.688,113.047-183.106,122.948-4.135-6.902-14.549-24.598-27.382-19.627-23.316,9.024-51.1,21.093-79.707,34.651-61.665,29.218-87.366,43.298-79.96,93.777,7.729,52.676-32.97,85.963-66.586,76.768-29.319-7.871-45.492-34.297-40.236-80.131,4.208-36.519,40.952-80.694,82.36-103.859,26.805-14.97,67.276-23.158,115.991-33.958,29.649-5.826,44.748-17.335,46.471-29.376,0,0-20.267,14.796-52.705,12.576-15.337-1.095-25.612-7.827-29.484-14.698,11.278-2.289,31.732.367,50.102.367,24.44-.196,81.182-5.658,96.238-39.986,4.68-22.645-10.233-26.713-24.108-12.212-14.91,15.679-21.049,29.769-50.964,35.031-18.203,3.195-36.412,6.902-59.826,1.247,13.187-15.629,34.141-31.618,52.015-28.673,5.877.978,13.691,6.389,19.947,16.116,3.825-24.769-2.96-52.73-69.356-41.053,1.054-18.747-38.492-26.891-62.235-26.523-13.523.342-41.094,8.315-61.023,17.845-31.558,9.752-62.761,16.822-99.533,19.482,21.34,18.209,25.33,19.282,46.635,34.664-32.229,12.019-57.198,36.788-68.47,53.075,0,0,37.627-1.051,47.164,3.192-39.375,11.484-57.059,18.383-77.864,39.616,7.286,1.244,18.199,3.363,22.886,5.145,4.876,1.754,3.606,4.949-.336,7.947-8.479,6.459-43.526,47.075-53.753,56.802-10.227-9.727-45.274-50.343-53.753-56.802-3.942-2.998-5.209-6.193-.336-7.947,4.683-1.779,15.6-3.901,22.886-5.145-20.805-21.233-38.489-28.132-77.861-39.616,9.533-4.243,47.161-3.192,47.161-3.192-11.278-16.287-36.244-41.056-68.473-53.075,21.312-15.382,25.301-16.455,46.635-34.667-36.769-2.656-67.973-9.727-99.534-19.482-19.925-9.527-47.497-17.5-61.02-17.842-23.747-.367-63.29,7.776-62.232,26.52-66.396-11.674-73.181,16.287-69.359,41.056,6.257-9.727,14.071-15.138,19.947-16.113,17.873-2.948,38.824,13.042,52.015,28.67-23.414,5.655-41.623,1.947-59.826-1.244-29.911-5.262-36.054-19.355-50.967-35.028-13.874-14.508-28.784-10.439-24.101,12.209,15.052,34.325,71.788,39.787,96.234,39.983,18.37,0,38.824-2.66,50.102-.367-3.869,6.877-14.147,13.602-29.484,14.698-32.441,2.22-52.705-12.576-52.705-12.576,1.722,12.041,16.816,23.547,46.471,29.376,48.716,10.8,89.186,18.991,115.992,33.961,41.408,23.161,78.152,67.336,82.357,103.855,5.256,45.831-10.917,72.26-40.233,80.131-33.616,9.195-74.315-24.092-66.586-76.768,7.406-50.479-18.291-64.559-79.957-93.777-28.607-13.558-56.394-25.631-79.71-34.654-12.833-4.968-23.246,12.731-27.382,19.631-79.418-9.901-150.852-64.753-183.106-122.948-21.837-39.806-58.081,0-52.015,37.498,9.891,41.934,41.094,72.187,78.725,93.761,38.489,21.575,86.514,42.807,135.23,41.763,26.349,5.12,26.017,39.616-5.379,46.173-61.713.342-110.783-1.241-157.064-46.879-35.189-32.742-54.972,6.361-44.913,28.474,17.345,68.112,112.695,87.226,209.098,65.288,37.266-6.393,16.056,28.037,4.49,34.838-40.373,29.544-112.502,58.385-176.128-.342-28.955-22.648-48.719-3.537-37.795,29.183,28.072,85.615,135.917,67.58,209.959,25.475,19.067-10.8,36.389,14.334,13.165,33.616-92.055,65.63-137.997,66.336-179.62,41.031-52.008-20.869-56.527,38.055-25.656,57.34,34.328,21.578,121.703,5.487,185.683-35.74,27.575-20.891,28.765,11.848,11.443,24.769-76.116,67.045-106.1,84.545-185.348,73.77-39.353-3.192-38.827,46.341-7.789,65.63,42.117,26.353,124.638-17.503,188.622-71.652,27.046-14.675,31.393,9.388,18.041,37.865-39.014,50.416-75.765,80.131-111.147,93.929-35.357,13.627-69.331,11.509-93.435,3.024-29.297-10.265-33.749,32.286-16.822,49.175,14.055,13.767,50.267,22.452,94.132,6.725,43.697-15.92,90.693-52.904,122.926-96.415,27.926-25.137,24.462,8.653,11.797,32.178-64.67,104.219-123.613,142.787-201.454,136.23-34.496-5.826-42.31,21.404-20.283,46.708,38.492,32.717,86.846,31.672,128.989-.535,37.608-36.982,109.399-116.409,147.008-159.049,26.52-21.575,35.028-.339,27.239,43.517-7.124,25.137-24.798,51.489-73.181,70.771-32.951,19.285-8.153,45.831,16.483,46.173,13.691.367,41.262-15.917,62.406-40.151,27.904-32.033,29.484-53.436,44.894-103.146,14.406-24.234,40.23-12.896,40.23,12.383-12.301,49.906-23.053,58.73-48.019,79.254-24.114,22.822,16.654,30.621,30.342,21.068,39.708-27.258,54.253-62.46,67.441-94.667,9.537-23.158,37.276-11.845,24.446,26.014-30.674,90.396-81.302,125.965-169.726,144.177-9.03,1.779-15.534,10.347-11.281,17.702,11.782,12.554,23.753,24.057,35.55,36.446,0,0-99.103,25.368-153.825,41.661l-75.385-51.179c4.898-18.643-27.378-41.101-51.869-22.591-26.85-12.646-41.712-7.083-52.262,11.56,20.47-6.788,30.868-2.09,39.299,7.912,5.943,22.635,35.62,36.488,56.77,24.025l56.663,40.259-95.493-2.653c-6.833-26.011-54.133-26.121-67.206-3.014-17.196,0-28.667,9.594-34.559,32.033,18.7-13.868,26.808-12.199,36.396-9.578,11.221,19.83,49.684,18.795,60.323,0l91.694,2.561-53.569,30.69c-30.849-18.171-70.702,9.116-63.252,37.491-12.982,10.765-14.713,26.264-6.421,48.212,4.48-15.22,12.994-29.449,26.235-37.656,28.084,7.678,55.089-1.327,55.089-29.766l74.463-42.06,73.707,28.904c0,19.669,29.405,34.534,54.646,24.117,17.683,2.102,20.197,17.908,23.142,30.076,9.66-17.474,11.462-35.585-10.927-51.03,0-22.616-28.55-36.671-52.208-23.633l-62.479-22.157c56.112-18.25,159.16-36.722,159.16-36.722,14.045,13.431,25.267,23.316,39.321,35.338,7.453,4.604,17.987,4.36,29.455-10.585,35.025-51.853,68.14-146.248,118.765-159.242,18.611-4.784,40.999,7.798,36.244,49.342-7.241,63.163-53.569,115.678-111.837,154.977-32.419,21.575-46.11,12.044-71.243,10.8-32.422,3.705-41.094,19.798-14.387,42.104,24.779,13.089,47.142,14.846,65.18,11.313,15.603-2.831,33.806-23.357,46.806-34.499,14.574-17.161,38.846,3.192,22.385,23.357-30.01,36.443-60.161,60.336-97.102,59.801-39.011,5.484-31.722,27.768-5.899,38.568,46.474,19.627,88.591-16.993,109.76-41.227,16.461-18.209,28.265-18.915,25.301,9.388-16.296,51.467-38.656,71.455-75.068,73.944-29.481-2.66-29.816,20.527-8.315,36.272,49.219,34.67,84.934-24.428,101.588-60.165,11.778-32.375,30.003-16.968,31.893,9.556.361,35.569-25.175,72.472-46.236,90.693-21.059,18.231,90.791,134.093,90.791,134.093,0,0,111.853-115.868,90.798-134.096l.003.003ZM2040.693,497.929c-17.411,0-28.164,6.082-28.164,13.466,0,7.498,10.752,13.608,28.164,13.608,17.307,0,28.297-6.665,28.297-14.172,0-7.384-10.993-12.906-28.297-12.906v.003ZM1559.313,497.929c17.411,0,28.167,6.082,28.167,13.466,0,7.498-10.756,13.608-28.167,13.608-17.307,0-28.297-6.665-28.297-14.172,0-7.384,10.993-12.906,28.297-12.906v.003Z"/>
    </g>
  </g>
</svg>