<?xml version="1.0" encoding="UTF-8"?>
<svg xmlns="http://www.w3.org/2000/svg" viewBox="0 0 3600.1 2401.738">
  <defs>
    <style>
      .cls-1 {
        fill: #141414;
      }

      .cls-1, .cls-2, .cls-3 {
        fill-rule: evenodd;
        stroke-width: 0px;
      }

      .cls-2 {
        fill: #ce1b26;
      }

      .cls-3 {
        fill: #ffcb00;
      }
    </style>
  </defs>
  <g id="background">
    <path id="ao" class="cls-2" d="M400,.1h2800c220,0,400,180,400,400v1600c0,220-180,400-400,400H400C180,2400.1,0,2220.1,0,2000.1V400.1C0,180.1,180,.1,400,.1Z"/>
  </g>
  <g id="country">
    <g id="ao-2" data-name="ao">
      <path id="pl" class="cls-1" d="M400,2400.1h2800c220,0,400-180,400-400v-800H0v800C0,2220.1,180,2400.1,400,2400.1Z"/>
      <path class="cls-3" d="M1563.432,823.288h146.576l44.448-138.148,45.64,138.148h146.56l-117.732,87.704,45.636,140.54-120.104-85.296-118.924,85.296,45.64-140.54-117.74-87.704Z"/>
      <path class="cls-3" d="M2099.204,1578.924l-115.308-90.12c116.508-94.896,192.208-240.256,192.208-402.42,0-247.464-176.576-455.296-409.644-504.548l18.016-84.1c32.44,7.212,70.496,20.868,101.728,31.664l30.04-50.432c32.4,15.6,68.472,31.212,98.484,50.432l-22.812,54.072c30.04,19.232,66.3,49.004,86.464,72.448l45.108-35.236c24.032,26.416,52.872,54.028,73.292,82.884l-40.844,42.048c26.376,38.72,36.572,56.54,56.016,101.148l57.308-13.44c10.824,33.632,27.256,74.808,33.28,109.632l-54.264,21.328c6.48,27.064,14.872,74.336,14.332,114.1-.044,2.392-.224,5.104-.224,7.512l56.668,8.084c-2.4,34.848-3.588,74.5-10.816,109.332h-58.856c-8.4,36.02-19.24,80.08-32.44,113.7l49.232,28.852c-15.604,31.22-31.2,68.468-51.632,98.504l-54.056-22.812c-20.44,30.02-43.24,58.84-68.472,85.284l34.824,45.64c-9.592,8.4-18.008,16.82-27.632,26.44M1845.756,1568.104l87.088,52.48c-8.12,7.428-32.448,20.024-38.896,22.576l14.24,54.664c-33.628,10.832-69.68,26.432-106.896,33.648l-21.62-54.052c-34.84,7.2-69.664,12-105.708,12l-7.228,56.456c-33.624-2.392-74.468,0-111.712-8.408v-56.44c-33.644-6.024-66.076-14.424-97.296-25.248l-27.64,49.288c-28.828-12.04-67.264-26.46-98.512-45.664l20.432-54.056c-25.24-13.228-48.06-30.036-69.68-46.88l54.06-68.472c88.904,70.888,200.612,112.912,323.148,112.912,64.884,0,128.528-10.788,186.22-34.8"/>
      <path class="cls-3" d="M2208.768,1707.344l-574.92-437.524-5.24,7.464,573.44,438.292-34.036,42.588-559.012-358.56c-151.356-94.904-145.348-169.376-114.112-249.864l26.432-64.868c14.42,84.092,100.892,147.776,190.992,218.632l507.656,389.988-11.2,13.852ZM2353.104,1837.744c-4.926,0-8.92-3.994-8.92-8.92v-.032c-.004-4.926,3.986-8.924,8.912-8.928h.008c4.948,0,8.96,4,8.96,8.928.002,4.944-4.004,8.954-8.948,8.956h-.012M2318.744,1812.516c-4.936-.007-8.937-4.004-8.948-8.94-.002-4.94,4-8.946,8.94-8.948,4.94-.002,8.946,4,8.948,8.94.002,4.94-4,8.946-8.94,8.948h0M2283.584,1784.492c-4.928,0-8.944-4-8.944-8.924.149-4.937,4.272-8.819,9.209-8.671,4.728.142,8.528,3.942,8.67,8.671,0,4.924-4,8.924-8.936,8.924M2401.8,1834.092l-172.26-133.46-50.056,64.508,149.64,104.94c12.02,8.4,13.2,46.872,57.628,52.888,18.052,2.384,30.032-10.84,30.032-10.84,19.36-23.568,14.084-56.012-14.984-78.04"/>
    </g>
  </g>
</svg>