<?xml version="1.0" encoding="UTF-8"?>
<svg xmlns="http://www.w3.org/2000/svg" viewBox="0 0 3600.1 2401.738">
  <defs>
    <style>
      .cls-1 {
        fill: #fff;
      }

      .cls-1, .cls-2 {
        stroke-width: 0px;
      }

      .cls-2 {
        fill: #265fb5;
        fill-rule: evenodd;
      }

      .cls-3 {
        fill: none;
        stroke: #fff;
        stroke-linejoin: round;
        stroke-width: 12.097px;
      }
    </style>
  </defs>
  <g id="background">
    <path id="aq" class="cls-2" d="M400,.1h2800c220,0,400,180,400,400v1600c0,220-180,400-400,400H400C180,2400.1,0,2220.1,0,2000.1V400.1C0,180.1,180,.1,400,.1Z"/>
  </g>
  <g id="country">
    <g id="aq-2" data-name="aq">
      <path class="cls-1" d="M886.911,1154.321q-19.611-39.232-19.611-78.46c-9.808,0-11.647,1.844-17.318.3-5.671-1.529-7.815,36.174-26.206,28.815-3.063-3.677,13.181-30.948-4.442-42.285-5.671-3.692,1.379-26.061-1.074-35.869,0,0-22.369,11.642-39.227-29.419-8.279-10.732-19.616,9.803-19.616,9.803,0,0,4.902,12.566-3.982,15.634-12.566-9.198-21.765-4.374-37.698-17.013-15.939-12.644,3.373-27.121-26.971-37.848,19.616-49.035,19.616-39.232,68.652-58.844q-29.424-19.616-49.035-49.04c-29.424-9.808-39.232-19.611-68.656-39.227-39.227-49.04-58.844-147.111-58.844-215.763,24.827-22.989,58.844,78.46,107.884,107.879l68.652,29.424c39.227,19.616,49.035,39.227,78.46,58.844l88.268,29.424c39.227,29.419,58.844,68.652,88.268,78.46,31.873,0,38.013-18.358,48.232-19.5,57.658-2.956,87.082-10.384,98.574-27.702,11.642-13.79,39.532,7.969,117.992-21.45l-9.803-39.232s20.84-17.163,49.035-9.808c-.764-17.927-2.608-65.739,25.166-87.31-16.868-17.695-5.55-30.377-5.55-30.377,0,0,15.634-15.019,17.468-22.989-8.269-43.215,7.176-43.882,10.64-56.598,3.46-12.711-13.34-8.356-8.603-25.882,4.727-17.531,33.14-21.692,36.944-36.131,3.818-14.439-8.1-21.682-7.413-25.127,6.131-13.79.924-46.277,0-58.848,52.718-14.095,69.881-57,88.268-39.227,9.808-58.844,19.616-78.46,78.46-78.46,8.279-18.082-21.46-33.406-9.808-39.232,19.616-2.448,34.631-1.224,57.629,28.505,7.258,9.421,8.574-13.79,15.929-16.244,7.355-2.453,24.958-2.492,27.576-14.1,2.768-11.952,6.75-27.581,16.558-47.197,8.274-15.939,14.71,6.131,22.065,37.389,41.381,1.534,134.855,10.732,174.082,21.455,29.424,7.665,49.04-7.66,77.236-10.727,20.84,20.84,40.456,5.211,51.489,49.65,15.576,23.981,41.066,2.148,46.587,9.194,32.797,90.416,145.582,29.424,154.161,30.958,14.4,0,31.994,40.427,43.331,39.421,18.426-3.102,13.21-15.668,29.303-10.611-4.297,34.016,31.573,73.248,31.573,98.685,0,0,8.729,4.292,16.819-3.256,8.081-7.544,15.513-26.932,22.713-26.468,17.163,2.448,24.116,4.655,43.897,8.11,53.177,18.169,80.265,22.268,100.921,31.577,9.61,17.584,18.919,26.589,38.395,23.303,16.093,10.81,4.355,24.968,13.858,25.887,19.616-9.808,26.051-20.535,45.663-10.727,19.616,9.808,39.232,29.424,49.04,49.04,0,9.803-9.808,49.035,0,107.879,4.902,19.616,7.278,35.168,28.35,68.806-5.598,34.558,26.511,92.71,26.511,107.424,0,19.611-15.634,29.729-25.442,49.34,39.232,29.424,0,78.46-19.611,107.884,147.111,29.424,78.46,88.268,196.147,58.844-29.424,68.652-19.006,63.14,10.418,131.792-58.848,39.232-1.219,51.179-40.447,100.215-2.453,3.068,23.284,42.605,59.453,42.605-9.808,78.46-39.232,49.035-29.424,166.727-77.235-1.529-45.977,87.963-98.076,78.46,3.063,56.086,29.729,60.992,19.616,117.687q-39.227,9.808-58.844,39.232l-29.424-9.808c-9.808,49.035-29.419,58.844,0,107.884,0,0-38.003,1.224-49.035,0-.924,16.858,16.858,21.455,19.616,39.227-1.534,7.05-55.785,38.003-98.076,39.232-11.032,24.213,29.419,49.96,26.971,62.216-45.977,8.884-66.203,65.279-66.203,65.279,0,0,23.598,9.503,19.616,19.616-12.561-9.198-19.616-9.808-39.227-9.808-9.808,2.453-33.711-.6-56.632,38.081-25.156,8.298-37.031,5.298-56.115,30.532-8.448-24.039-20.598.227-35.458,9.552-14.845,9.339-34.843,32.55-37.529,31.563.615-6.75,9.198-31.268,9.198-31.268l-49.04,9.808s-2.187.213-6.039.605c-3.856.382-2.826-28.626-12.121-27.576-9.29,1.06-35.879,36.484-44.942,37.592-9.048,1.108-11.913-11.269-19.713-10.19-7.795,1.079-22.998,37.364-28.519,38.327-5.521.963-27.421-22.055-46.19-18.842-96.547,34.026-111.876-67.113-126.89-10.108-20.226-10.732-16.723-4.505-37.277.881-13.113,3.382-14.308-17.337-25.969-17.018-23.332.658-22.108,22.727-34.829,16.137-10.413-45.977-73.253-37.703-79.379-57.315-4.984-20.458,27.223-20.361,37.64-34.219,7.964-19.998-8.318-27.59,24-46.882,42.121-28.49,17.908-39.237,25.292-60.648,13.21-30.915,13.287-38.463,2.255-65.739,0,0-32.797-88.268-39.232-88.268-19.611-5.511-19.611,32.482-48.426,42.91-58.844,19.611-162.735-49.655-180.823-49.655-16.544.31-93.189,18.15-90.295-20.066-11.458,37.156-53.598,8.729-56.197,8.729-39.232,0-24.218,30.344-50.579,29.115-11.956-3.982-132.706-11.032-132.706-11.032v19.616l-78.46-39.232-68.652-19.611c-58.844-19.616-29.419-68.656-127.495-39.232v-58.844h-49.035c19.611-117.692,0-58.844-9.808-166.727l-39.232,9.808c-39.227-53.023,54.552-42.91-29.419-78.46,0,0,1.529-58.544-19.616-39.232-4.292,2.453,9.808,29.424,9.808,29.424-78.46-9.808-98.076-29.424-98.076-107.884,0,0,64.669,9.198,58.844,0-9.194-14.71-21.145-110.332-19.002-116.768-.919-12.876,60.073-45.358,48.271-76.321,7.51-2.758,29.574-3.058,29.574-3.058"/>
      <path class="cls-3" d="M2881.51,1439.96c-2.864,6.445-2.356,12.881.605,17.477,5.318-7.974.828-11.652-.605-17.477ZM578.284,716.969s-15.019-1.839-11.647,11.342c4.906-10.118,11.342-10.727,11.647-11.342ZM581.656,686.321c-8.274.31-18.392-1.224-15.019,11.952,4.906-10.113,14.715-11.337,15.019-11.952ZM638.168,861.937s12.876-.919,9.503,12.261c-4.906-10.118-9.194-11.647-9.503-12.261Z"/>
    </g>
  </g>
</svg>