<?xml version="1.0" encoding="UTF-8"?>
<svg xmlns="http://www.w3.org/2000/svg" viewBox="0 0 3600.1 2401.738">
  <defs>
    <style>
      .cls-1 {
        stroke-miterlimit: 4;
      }

      .cls-1, .cls-2, .cls-3, .cls-4, .cls-5, .cls-6 {
        fill: #f6b40e;
        stroke: #85340a;
      }

      .cls-1, .cls-4 {
        stroke-width: 5.336px;
      }

      .cls-2 {
        stroke-width: 7.2px;
      }

      .cls-3 {
        stroke-width: 5.336px;
      }

      .cls-7 {
        fill: #843511;
      }

      .cls-7, .cls-8, .cls-9, .cls-10 {
        stroke-width: 0px;
      }

      .cls-8 {
        fill: #75aadb;
      }

      .cls-8, .cls-10 {
        fill-rule: evenodd;
      }

      .cls-4 {
        stroke-miterlimit: 4;
      }

      .cls-5 {
        stroke-miterlimit: 4;
        stroke-width: 5.336px;
      }

      .cls-9 {
        fill: #85340a;
      }

      .cls-6 {
        stroke-miterlimit: 4;
        stroke-width: 5.336px;
      }

      .cls-10 {
        fill: #eee;
      }
    </style>
  </defs>
  <g id="background">
    <path id="bg" class="cls-10" d="M400,.1h2800c220,0,400,180,400,400v1600c0,220-180,400-400,400H400C180,2400.1,0,2220.1,0,2000.1V400.1C0,180.1,180,.1,400,.1Z"/>
  </g>
  <g id="country">
    <g id="ar">
      <path class="cls-8" d="M0,1600.1h3600v400c0,220-180,400-400,400H400C180,2400.1,0,2220.1,0,2000.1v-400Z"/>
      <path class="cls-8" d="M400,.1h2800c220,0,400,180,400,400v400H0v-400C0,180.1,180,.1,400,.1Z"/>
      <g>
        <g id="c">
          <path id="a" class="cls-3" d="M1784.832,1206.388l136.579,297.562s2.352,5.688,6.144,4.123c3.792-1.57,1.435-7.258,1.435-7.258l-113.832-306.989M1811.895,1309.603c-1.666,45.254,26.17,70.142,22.531,110.554-3.634,40.416,18.562,63.264,23.712,78.979,5.15,15.715-5.568,25.114-.95,27.35,4.622,2.237,14.736-10.176,11.438-32.52-3.298-22.344-20.256-28.978-16.272-78.336,3.984-49.358-20.189-60.854-14.304-105.878"/>
          <path id="a-2" data-name="a" class="cls-4" d="M1783.58,1200.105l12.311,327.178s-.004,6.155,4.098,6.161c4.104.001,4.103-6.156,4.103-6.156l12.312-327.182M1769.084,1305.819c-18.857,41.172-2.665,74.818-21.491,110.761-18.824,35.949-7.061,65.552-8.317,82.042-1.256,16.49-14.755,21.071-11.345,24.905,3.415,3.835,17.508-3.762,23.013-25.667,5.504-21.905-7.625-34.523,14.944-78.6,22.569-44.077,4.636-63.948,27.303-103.293"/>
          <path id="a-3" data-name="a" class="cls-5" d="M1784.828,1193.821l-113.832,306.984s-2.359,5.685,1.429,7.26c3.791,1.572,6.147-4.117,6.147-4.117l136.582-297.565M1730.981,1285.941c-33.177,30.822-31.094,68.103-62.241,94.105-31.148,26.009-31.609,57.859-39.08,72.614-7.47,14.754-21.695,13.821-20.012,18.668,1.687,4.85,17.615,3.224,31.083-14.907,13.468-18.131,6.167-34.813,43.886-66.898,37.719-32.085,28.755-57.306,64.753-84.982"/>
          <path id="a-4" data-name="a" class="cls-1" d="M1788.386,1188.493l-222.644,240.055s-4.355,4.35-1.458,7.254c2.901,2.903,7.254-1.451,7.254-1.451l240.059-222.647M1703.385,1252.994c-42.447,15.779-54.788,51.02-93.516,63.123-38.73,12.11-51.345,41.359-63.893,52.131-12.548,10.772-25.333,4.466-25.632,9.588-.298,5.127,15.041,9.72,34.422-1.877,19.381-11.597,19.02-29.803,66.146-45.011,47.126-15.208,48.496-41.94,92.345-53.733"/>
          <path id="b" class="cls-9" d="M1820.688,1317.268c2.174,43.459,26.818,62.702,21.979,102.307,10.622-31.32-14.995-55.598-13.536-101.856M1792.416,1203.686l93.538,204.37-78.379-210.658"/>
          <path id="b-2" data-name="b" class="cls-9" d="M1774.275,1316.266c-14.622,40.983.781,68.192-18.845,102.931,21.8-24.871,7.423-57.105,26.473-99.283M1791.621,1200.51l8.209,224.608,8.202-224.617"/>
          <path id="b-3" data-name="b" class="cls-9" d="M1731.778,1297.579c-29.193,32.268-25.374,63.3-56.8,87.884,29.658-14.635,28.711-49.917,62.452-81.594M1792.102,1197.273l-78.37,210.652,93.535-204.38"/>
          <path id="b-4" data-name="b" class="cls-9" d="M1699.668,1264.052c-39.319,18.64-47.667,48.771-86.108,59.457,33.001-2.172,45.628-35.13,88.923-51.484M1793.785,1194.466l-153.018,164.626,164.628-153.028"/>
        </g>
        <g id="c-2" data-name="c">
          <path id="a-5" data-name="a" class="cls-3" d="M1793.712,1184.932l-297.562,136.579s-5.688,2.352-4.123,6.144c1.57,3.792,7.258,1.435,7.258,1.435l306.989-113.832M1690.498,1211.995c-45.254-1.666-70.142,26.17-110.554,22.531-40.416-3.634-63.264,18.562-78.979,23.712-15.715,5.15-25.114-5.568-27.35-.95-2.237,4.622,10.176,14.736,32.52,11.438s28.978-20.256,78.336-16.272c49.358,3.984,60.854-20.189,105.878-14.304"/>
          <path id="a-6" data-name="a" class="cls-1" d="M1799.995,1183.68l-327.178,12.311s-6.155-.004-6.161,4.098c-.001,4.104,6.156,4.103,6.156,4.103l327.182,12.312M1694.281,1169.184c-41.172-18.857-74.818-2.665-110.761-21.491-35.949-18.824-65.552-7.061-82.042-8.317-16.49-1.256-21.071-14.755-24.905-11.345-3.835,3.415,3.762,17.508,25.667,23.013,21.905,5.504,34.523-7.625,78.6,14.944,44.077,22.569,63.948,4.636,103.293,27.303"/>
          <path id="a-7" data-name="a" class="cls-5" d="M1806.279,1184.928l-306.984-113.832s-5.685-2.359-7.26,1.429c-1.572,3.791,4.117,6.147,4.117,6.147l297.565,136.582M1714.159,1131.081c-30.822-33.177-68.103-31.094-94.105-62.241-26.009-31.148-57.859-31.609-72.614-39.08-14.754-7.47-13.821-21.695-18.668-20.012-4.85,1.687-3.224,17.615,14.907,31.083,18.131,13.468,34.813,6.167,66.898,43.886,32.085,37.719,57.306,28.755,84.982,64.753"/>
          <path id="a-8" data-name="a" class="cls-4" d="M1811.607,1188.486l-240.055-222.644s-4.35-4.355-7.254-1.458c-2.903,2.901,1.451,7.254,1.451,7.254l222.647,240.059M1747.106,1103.485c-15.779-42.447-51.02-54.788-63.123-93.516-12.11-38.73-41.359-51.345-52.131-63.893-10.772-12.548-4.466-25.333-9.588-25.632-5.127-.298-9.72,15.041,1.877,34.422,11.597,19.381,29.803,19.02,45.011,66.146,15.208,47.126,41.94,48.496,53.733,92.345"/>
          <path id="b-5" data-name="b" class="cls-9" d="M1682.832,1220.788c-43.459,2.174-62.702,26.818-102.307,21.979,31.32,10.622,55.598-14.995,101.856-13.536M1796.414,1192.516l-204.37,93.538,210.658-78.379"/>
          <path id="b-6" data-name="b" class="cls-9" d="M1683.834,1174.375c-40.983-14.622-68.192.781-102.931-18.845,24.871,21.8,57.105,7.423,99.283,26.473M1799.59,1191.721l-224.608,8.209,224.617,8.202"/>
          <path id="b-7" data-name="b" class="cls-9" d="M1702.521,1131.878c-32.268-29.193-63.3-25.374-87.884-56.8,14.635,29.658,49.917,28.711,81.594,62.452M1802.827,1192.202l-210.652-78.37,204.38,93.535"/>
          <path id="b-8" data-name="b" class="cls-9" d="M1736.049,1099.768c-18.64-39.319-48.771-47.667-59.457-86.108,2.172,33.001,35.13,45.628,51.484,88.923M1805.634,1193.885l-164.626-153.018,153.028,164.628"/>
        </g>
        <g id="c-3" data-name="c">
          <path id="a-9" data-name="a" class="cls-3" d="M1815.168,1193.812l-136.579-297.562s-2.352-5.688-6.144-4.123c-3.792,1.57-1.435,7.258-1.435,7.258l113.832,306.989M1788.105,1090.598c1.666-45.254-26.17-70.142-22.531-110.554,3.634-40.416-18.562-63.264-23.712-78.979-5.15-15.715,5.568-25.114.95-27.35-4.622-2.237-14.736,10.176-11.438,32.52,3.298,22.344,20.256,28.978,16.272,78.336-3.984,49.358,20.189,60.854,14.304,105.878"/>
          <path id="a-10" data-name="a" class="cls-4" d="M1816.42,1200.095l-12.311-327.178s.004-6.155-4.098-6.161c-4.104-.001-4.103,6.156-4.103,6.156l-12.312,327.182M1830.916,1094.381c18.857-41.172,2.665-74.818,21.491-110.761,18.824-35.949,7.061-65.552,8.317-82.042,1.256-16.49,14.755-21.071,11.345-24.905-3.415-3.835-17.508,3.762-23.013,25.667s7.625,34.523-14.944,78.6c-22.569,44.077-4.636,63.948-27.303,103.293"/>
          <path id="a-11" data-name="a" class="cls-5" d="M1815.172,1206.379l113.832-306.984s2.359-5.685-1.429-7.26c-3.791-1.572-6.147,4.117-6.147,4.117l-136.582,297.565M1869.019,1114.259c33.177-30.822,31.094-68.103,62.241-94.105,31.148-26.009,31.609-57.859,39.08-72.614,7.47-14.754,21.695-13.821,20.012-18.668-1.687-4.85-17.615-3.224-31.083,14.907-13.468,18.131-6.167,34.813-43.886,66.898-37.719,32.085-28.755,57.306-64.753,84.982"/>
          <path id="a-12" data-name="a" class="cls-1" d="M1811.614,1211.707l222.644-240.055s4.355-4.35,1.458-7.254c-2.901-2.903-7.254,1.451-7.254,1.451l-240.059,222.647M1896.615,1147.206c42.447-15.779,54.788-51.02,93.516-63.123,38.73-12.11,51.345-41.359,63.893-52.131,12.548-10.772,25.333-4.466,25.632-9.588.298-5.127-15.041-9.72-34.422,1.877-19.381,11.597-19.02,29.803-66.146,45.011-47.126,15.208-48.496,41.94-92.345,53.733"/>
          <path id="b-9" data-name="b" class="cls-9" d="M1779.312,1082.932c-2.174-43.459-26.818-62.702-21.979-102.307-10.622,31.32,14.995,55.598,13.536,101.856M1807.584,1196.514l-93.538-204.37,78.379,210.658"/>
          <path id="b-10" data-name="b" class="cls-9" d="M1825.725,1083.934c14.622-40.983-.781-68.192,18.845-102.931-21.8,24.871-7.423,57.105-26.473,99.283M1808.379,1199.69l-8.209-224.608-8.202,224.617"/>
          <path id="b-11" data-name="b" class="cls-9" d="M1868.222,1102.621c29.193-32.268,25.374-63.3,56.8-87.884-29.658,14.635-28.711,49.917-62.452,81.594M1807.898,1202.927l78.37-210.652-93.535,204.38"/>
          <path id="b-12" data-name="b" class="cls-9" d="M1900.332,1136.149c39.319-18.64,47.667-48.771,86.108-59.457-33.001,2.172-45.628,35.13-88.923,51.484M1806.215,1205.735l153.018-164.626-164.628,153.028"/>
        </g>
        <g id="c-4" data-name="c">
          <path id="a-13" data-name="a" class="cls-3" d="M1806.288,1215.268l297.562-136.579s5.688-2.352,4.123-6.144c-1.57-3.792-7.258-1.435-7.258-1.435l-306.989,113.832M1909.502,1188.206c45.254,1.666,70.142-26.17,110.554-22.531,40.416,3.634,63.264-18.562,78.979-23.712,15.715-5.15,25.114,5.568,27.35.95,2.237-4.622-10.176-14.736-32.52-11.438-22.344,3.298-28.978,20.256-78.336,16.272-49.358-3.984-60.854,20.189-105.878,14.304"/>
          <path id="a-14" data-name="a" class="cls-6" d="M1800.005,1216.52l327.178-12.311s6.155.004,6.161-4.098c.001-4.104-6.156-4.103-6.156-4.103l-327.182-12.312M1905.719,1231.016c41.172,18.857,74.818,2.665,110.761,21.491,35.949,18.824,65.552,7.061,82.042,8.317,16.49,1.256,21.071,14.755,24.905,11.345,3.835-3.415-3.762-17.508-25.667-23.013-21.905-5.504-34.523,7.625-78.6-14.944-44.077-22.569-63.948-4.636-103.293-27.303"/>
          <path id="a-15" data-name="a" class="cls-5" d="M1793.721,1215.272l306.984,113.832s5.685,2.359,7.26-1.429c1.572-3.791-4.117-6.147-4.117-6.147l-297.565-136.582M1885.841,1269.119c30.822,33.177,68.103,31.094,94.105,62.241,26.009,31.148,57.859,31.609,72.614,39.08,14.754,7.47,13.821,21.695,18.668,20.012,4.85-1.687,3.224-17.615-14.907-31.083-18.131-13.468-34.813-6.167-66.898-43.886-32.085-37.719-57.306-28.755-84.982-64.753"/>
          <path id="a-16" data-name="a" class="cls-4" d="M1788.393,1211.714l240.055,222.644s4.35,4.355,7.254,1.458c2.903-2.901-1.451-7.254-1.451-7.254l-222.647-240.059M1852.894,1296.715c15.779,42.447,51.02,54.788,63.123,93.516,12.11,38.73,41.359,51.345,52.131,63.893,10.772,12.548,4.466,25.333,9.588,25.632,5.127.298,9.72-15.041-1.877-34.422s-29.803-19.02-45.011-66.146c-15.208-47.126-41.94-48.496-53.733-92.345"/>
          <path id="b-13" data-name="b" class="cls-9" d="M1917.168,1179.412c43.459-2.174,62.702-26.818,102.307-21.979-31.32-10.622-55.598,14.995-101.856,13.536M1803.586,1207.684l204.37-93.538-210.658,78.379"/>
          <path id="b-14" data-name="b" class="cls-9" d="M1916.166,1225.825c40.983,14.622,68.192-.781,102.931,18.845-24.871-21.8-57.105-7.423-99.283-26.473M1800.41,1208.479l224.608-8.209-224.617-8.202"/>
          <path id="b-15" data-name="b" class="cls-9" d="M1897.479,1268.322c32.268,29.193,63.3,25.374,87.884,56.8-14.635-29.658-49.917-28.711-81.594-62.452M1797.173,1207.998l210.652,78.37-204.38-93.535"/>
          <path id="b-16" data-name="b" class="cls-9" d="M1863.951,1300.432c18.64,39.319,48.771,47.667,59.457,86.108-2.172-33.001-35.13-45.628-51.484-88.923M1794.366,1206.315l164.626,153.018-153.028-164.628"/>
        </g>
        <circle class="cls-2" cx="1800" cy="1200.1" r="133.334"/>
        <path id="h" class="cls-7" d="M1845.456,1171.588c-9.106,0-17.822,3.946-22.949,12.149,10.253,9.23,32.909,10.234,48.298-1.051-6.58-7.005-15.738-11.014-25.349-11.098h0ZM1845.307,1173.69c8.861-.163,17.141,3.907,18.298,7.949-10.253,11.28-26.64,10.301-36.898,2.098,4.488-7.176,11.707-9.922,18.6-10.051v.005Z"/>
        <path id="d" class="cls-9" d="M1847.184,1165.252c-13.33,0-16.411,3.082-22.56,8.208-6.163,5.126-9.235,4.099-10.258,5.126-1.022,1.032,0,4.099,2.045,3.072s6.163-3.072,12.307-8.198c6.158-5.136,12.302-5.131,18.461-5.131,18.461,0,28.718,15.384,30.768,14.357,2.045-1.027-10.258-17.434-30.768-17.434h.005Z"/>
        <path id="e" class="cls-9" d="M1884.096,1171.396c-23.592-20.51-53.328-23.592-69.744-8.203-4.018,5.381-6.59,11.136-7.646,17.136-2.064,11.678,1.584,24.298,10.733,37.229-1.032-.005-3.086,1.018-4.109,2.05-8.146-15.571-11.026-31.57-8.352-46.781.713-3.988,1.789-7.902,3.216-11.693,22.56-18.456,53.328-20.506,75.888,10.262h.014Z"/>
        <circle id="f" class="cls-9" cx="1845.13" cy="1181.62" r="9.23"/>
        <path id="g" class="cls-9" d="M1871.808,1187.812c-17.438,13.334-34.872,12.307-45.13,6.154-10.253-6.154-10.253-8.203-8.208-8.203s4.094,2.05,12.307,6.149c8.208,4.109,20.51,4.109,41.021-4.099h.01Z"/>
        <path class="cls-9" d="M1779.6,1218.532c-4.382.802-7.502,4.69-7.502,9.149,0,5.098,4.214,9.149,9.302,9.149,2.99.017,5.797-1.441,7.502-3.898,3.547,2.669,8.467,2.952,11.098,3,.403.01.926,0,1.2,0,2.63-.048,7.55-.331,11.102-3,1.728,2.477,4.488,3.898,7.498,3.898,5.088,0,9.302-4.051,9.302-9.149,0-4.459-3.12-8.352-7.502-9.149,2.462.864,4.051,3.245,4.051,5.851.003,3.393-2.746,6.146-6.139,6.149h-.01c-3.264,0-5.962-2.592-6.154-5.851-.998,2.002-4.963,7.944-12.749,8.251-7.786-.307-11.746-6.25-12.749-8.251-.192,3.259-2.88,5.851-6.149,5.851-3.393.003-6.146-2.746-6.149-6.139v-.01c0-2.602,1.584-4.982,4.046-5.851h0ZM1789.632,1245.844c-10.262,0-14.318,9.298-23.549,15.451,5.126-2.05,9.168-6.096,16.349-10.2s13.306.898,17.4.898h.149c4.094,0,10.224-4.997,17.4-.898,7.186,4.109,11.371,8.15,16.502,10.2-9.235-6.154-13.44-15.451-23.702-15.451-2.045,0-6.101,1.104-10.2,3.149h-.149c-4.094-2.045-8.15-3.149-10.2-3.149Z"/>
        <path class="cls-9" d="M1786.176,1257.988c-4.051.178-9.408.994-17.102,3.302,18.47-4.104,22.546,2.098,30.754,2.098h.144c8.208,0,12.288-6.202,30.754-2.102-20.515-6.154-24.595-2.098-30.749-2.098h-.149c-3.85,0-6.898-1.498-13.651-1.2h0Z"/>
        <path class="cls-9" d="M1770,1261.156c-1.19.014-2.491.024-3.902.149,21.542,2.054,11.189,14.4,33.754,14.4h.144c22.57,0,12.36-12.346,33.902-14.4-22.56-2.045-15.427,11.251-33.898,11.251h-.149c-17.318,0-11.981-11.621-29.856-11.4h.005ZM1818.48,1294.468c-.005-10.193-8.267-18.456-18.461-18.461-10.195.003-18.46,8.266-18.466,18.461,2.034-8.553,9.674-14.59,18.466-14.592,8.792-.001,16.432,6.038,18.461,14.592Z"/>
        <path id="e-2" data-name="e" class="cls-9" d="M1717.104,1171.396c23.592-20.51,53.328-23.592,69.744-8.203,4.018,5.381,6.59,11.136,7.646,17.136,2.064,11.678-1.584,24.298-10.733,37.229,1.032-.005,3.086,1.018,4.109,2.05,8.146-15.571,11.026-31.57,8.352-46.781-.713-3.988-1.789-7.902-3.216-11.693-22.56-18.456-53.328-20.506-75.888,10.262h-.014Z"/>
        <path id="d-2" data-name="d" class="cls-9" d="M1754.016,1165.252c13.33,0,16.411,3.082,22.56,8.208,6.163,5.126,9.235,4.099,10.258,5.126,1.022,1.032,0,4.099-2.045,3.072s-6.163-3.072-12.307-8.198c-6.158-5.136-12.302-5.131-18.461-5.131-18.461,0-28.718,15.384-30.768,14.357-2.045-1.027,10.258-17.434,30.768-17.434h-.005Z"/>
        <path id="h-2" data-name="h" class="cls-7" d="M1753.387,1171.588c-9.106,0-17.822,3.946-22.949,12.149,10.253,9.23,32.909,10.234,48.298-1.051-6.58-7.005-15.738-11.014-25.349-11.098h0ZM1753.238,1173.69c8.861-.163,17.141,3.907,18.298,7.949-10.253,11.28-26.64,10.301-36.898,2.098,4.488-7.176,11.707-9.922,18.6-10.051v.005Z"/>
        <circle id="f-2" data-name="f" class="cls-9" cx="1754.592" cy="1181.62" r="9.23"/>
        <path id="g-2" data-name="g" class="cls-9" d="M1729.392,1187.812c17.438,13.334,34.872,12.307,45.13,6.154,10.253-6.154,10.253-8.203,8.208-8.203s-4.094,2.05-12.307,6.149c-8.208,4.109-20.51,4.109-41.021-4.099h-.01Z"/>
      </g>
    </g>
  </g>
</svg>