<?xml version="1.0" encoding="UTF-8"?>
<svg xmlns="http://www.w3.org/2000/svg" viewBox="0 0 3600.1 2401.738">
  <defs>
    <style>
      .cls-1 {
        fill: #ffc221;
      }

      .cls-1, .cls-2, .cls-3, .cls-4, .cls-5, .cls-6, .cls-7, .cls-8, .cls-9, .cls-10 {
        fill-rule: evenodd;
        stroke-width: 0px;
      }

      .cls-2 {
        fill: #bd1721;
      }

      .cls-4 {
        fill: #aa5323;
      }

      .cls-5 {
        fill: #7b3c20;
      }

      .cls-6 {
        fill: #00247d;
      }

      .cls-7 {
        fill: #fff;
      }

      .cls-8 {
        fill: #5a3719;
      }

      .cls-9 {
        fill: #eee;
      }

      .cls-10 {
        fill: #999;
      }
    </style>
  </defs>
  <g id="background">
    <path id="as" class="cls-6" d="M400,.1h2800c220,0,400,180,400,400v1600c0,220-180,400-400,400H400C180,2400.1,0,2220.1,0,2000.1V400.1C0,180.1,180,.1,400,.1Z"/>
  </g>
  <g id="country">
    <g id="as-2" data-name="as">
      <path id="Path" class="cls-2" d="M3599.999,2000.338V399.862c-.069-118.044-51.271-224.128-132.657-297.302L0,1200.1l3467.341,1097.541c81.386-73.174,132.588-179.258,132.657-297.302Z"/>
      <path id="Path-2" data-name="Path" class="cls-9" d="M3532.073,177.031L300.001,1200.1l3232.072,1023.069c42.852-63.666,67.878-140.327,67.926-222.831V399.862c-.048-82.504-25.075-159.165-67.926-222.831Z"/>
      <g>
        <path class="cls-3" d="M2756.459,1301.553c23.983,1.841,23.162,25.58,23.162,25.58l84.933,1.892c10.867-29.567,22.139-26.141,42.775-11.542,19.603,13.871,40.998,20.066,40.998,20.066,8.201-42.43,68.466-33.851,68.466-33.851,25.694-61.27,27.878-60.455,12.575-68.216-15.306-7.758-21.549-20.887-21.549-20.887-14.527-17.506-22.183-42.832-23.825-58.367-1.638-15.535-19.68,7.774-22.956,2.871-3.28-4.902-30.068-2.041-30.068-2.041,6.56,6.943-15.851,2.858-15.851,2.858,2.19,1.635,0,8.17,0,8.17-2.187-2.858-19.135-5.72-19.135-5.72-1.638,3.676-5.466,7.761-5.466,7.761-9.292-4.085-27.878-3.27-27.878-3.27-27.33-.409-43.729,8.173-51.382,12.667-7.653,4.494-34.986,18.38-57.397,40.031-22.414,21.648-34.986,19.198-34.986,19.198-6.56,24.1-60.129,53.512-60.129,53.512-8.743,7.758-35.531,11.434-49.196,0-13.665-11.437,0-31.861,0-31.861,5.054-9.551,10.068-9.155,10.626-42.287.377-22.405,23.543-40.174,47.316-66.213,29.073-31.836,69.699-84.245,69.699-84.245.206,16.083,9.016,18.688,9.016,18.688,7.999-16.39,19.477-29.564,19.477-29.564.615,1.379,2.256,2.298,2.256,2.298,9.019-12.255,14.552-17.154,14.552-17.154-3.071-1.226-28.287,0-51.861,20.526-23.574,20.526-39.768,13.633-39.768,13.633-16.4-5.21-17.835-17.769-17.835-17.769-11.973-51.436,35.052-88.232,35.052-88.232-63.136-15.008-17.629-94.969,60.677-128.973,78.303-34.007,77.486-49.326,77.486-49.326,4.506,5.21,8.201,14.4,8.201,14.4.818-.615,6.56-9.19,51.655-29.104,45.098-19.917,66.828-37.071,66.828-37.071,5.739,11.031,4.506,18.995,4.506,18.995,123.405-43.197,244.978-142.301,244.978-142.301,3.454,8.271,1.616,20.83,1.616,20.83,20.092-18.532,92.662-61.729,92.662-61.729,1.236,27.57-21.518,38.139-21.518,38.139,2.472,3.987,3.898,11.183,3.898,11.183,11.884-6.436,67.246-45.038,67.246-45.038,20.282,17.461,1.838,46.106,1.838,46.106,7.162-1.068,12.486-7.349,12.486-7.349,5.134,29.716-27.856,55.911-27.856,55.911,5.736.152,15.37-5.517,15.37-5.517-6.148,32.476-67.849,68.47-67.849,68.47,9,7.967.412,18.536-6.972,23.286-7.384,4.75-20.503,15.164-16.416,19.455,4.12,4.291,31.373-14.859,31.373-14.859,4.722,13.633-30.327,40.44-30.327,40.44,24.37,3.217,92.218-27.57,92.218-27.57-5.514,26.195-31.151,46.565-62.715,58.361-31.563,11.795-29.915,13.633-29.915,13.633,5.514,4.443,49.183-8.268,49.183-8.268-13.12,29.253-58.627,49.323-58.627,49.323,12.517,10.572,29.535-1.686,46.521-13.326,17.018-11.64,40.183-21.6,65.82-30.175,25.605-8.579,43.669-2.145,43.669-2.145,21.296-6.737,39.359,2.757,39.359,2.757,40.976,3.369,45.095,18.228,45.095,18.228,4.5,1.071,7.986,2.912,18.443,10.572,10.458,7.659,9.824,31.399,9.412,43.045-.412,11.64-3.676,11.64-5.736,14.859-2.06,3.217-2.25,6.893-2.25,11.336s-10.236,32.013-73.584,32.318c-63.349.307-96.021,0-96.021,0-5.229,0-11.472,3.064-11.472,3.064-26.652,13.177-12.581-8.984-44.271,17.056-31.69,26.04-47.82,21.546-47.82,21.546-5.197,6.23-38.408,37.071-57.423,49.326-18.982,12.255-15.56,11.13.982,18.279,16.511,7.149,41.546,0,41.546,0-16.003,10.619-4.944,15.522-4.944,15.522,21.042-12.768,33.75-8.068,33.75-8.068,6.718,18.282-17.334,47.18-17.334,47.18,9.285,1.226,26.778,0,26.778,0-4.246,12.356-21.739,25.942-34.574,30.125-12.834,4.186-10.521,5.821-6.687,13.582,3.803,7.758.539,15.623.539,15.623-22.405-15.519-23.229-1.635-23.229-1.635-2.599,18.396-2.187,44.731-2.187,44.731-15.845-7.964-16.669,2.656-16.669,2.656-4.12,16.745-23.514,36.149-23.514,36.149-.824-10.413-10.391-13.069-10.391-13.069-10.109,19.401-28.695,31.044-28.695,31.044-2.462,16.745,2.187,40.237,2.187,40.237-12.026-2.453-16.4-2.247-18.314.612-1.914,2.862,2.735,4.291,2.735,4.291l156.613,3.879c2.186.206,11.472,1.226,11.757,18.177s-13.659,17.769-13.659,17.769l-171.383-4.085s.821,4.696-8.201,9.396-6.012-5.311-8.474,15.725c-2.462,21.036-36.627-1.635-36.627-1.635-5.466,8.17-18.859,18.789-18.859,18.789-7.653-23.08-15.579-30.223-27.878-10.211-12.302,20.016,22.139,16.545,22.139,16.545,0,0,201.179-29.614,212.08-30.635,10.933-1.02,22.975-.409,27.887,14.91,4.912,15.319-24.306,17.769-24.306,17.769l-206.369,22.465c-4.373,12.255-21.594,11.234-21.594,11.234,1.369,11.643-10.93,18.995-17.217,23.286-6.287,4.291-25.964,2.247-25.964,2.247-24.053,16.339-35.807,3.47-35.807,3.47-15.579,6.737-25.419,3.879-38.263-1.635-12.847-5.514-11.754-21.036-11.754-21.036l-130.237,13.481c-3.832,1.384-7.359,3.499-10.385,6.227,4.646,5.926-9.326,19.686-9.326,19.686,3.892,2.681,11.374,10.185,12.4,26.423,1.084,17.179-21.014,20.066-9.944,32.017s31.262,2.069,53.81-8.731c22.551-10.8,44.686-9.421,54.32-9.345,9.634.076,36.491,6.817,53.195,12.714,16.71,5.898,22.449,2.377,23.574-6.202,1.125-8.582,8.61-11.031,8.61-11.031-2.05,8.426,2.462,12.178,2.462,12.178,6.455.459,17.731-5.818,17.731-5.818-1.027,6.205-9.222,10.109-9.222,10.109-16.4,10.949,6.148,6.896,6.148,6.896,44.892-9.19,60.883-8.271,72.567-7.048,11.684,1.226,66.825,24.661,66.825,24.661,2.05-5.514.615-19.144.615-19.144,14.146,3.828,19.886,11.947,19.886,11.947,5.33-5.818,1.848-15.623,1.848-15.623,45.507,25.425-9.428,36.916-23.986,41.815-14.552,4.899-14.346,10.876-14.346,10.876,12.093-3.831,20.497-5.21,30.543-5.977,10.046-.764,6.56-.152,30.546-4.899,23.983-4.75,36.285,5.359,36.285,5.359-20.088,1.071-26.034,7.048-26.034,7.048,12.711,8.731.615,16.083.615,16.083-18.244-22.975-33.823.919-33.823.919,6.253-.919,24.601,2.912,29.827,6.205,4.044,2.548,13.528,7.2,25.314,12.638,16.653,7.675,13.516,2.754,26.445,7.659,12.898,4.902,7.986,17.309,7.986,17.309-5.514-10.109-17.43-13.636-17.43-13.636-1.014,13.636-14.745,15.931-14.745,15.931,16.805-18.688-19.474-26.804-36.488-26.499-17.014.304-29.725,11.18-29.725,11.18,34.235,32.017,58.012,21.6,58.012,21.6-4.303,11.64-32.59,7.045-32.59,7.045,13.12,9.957,11.684,17.005,11.684,17.005-6.972-6.741-18.45-3.369-43.048-19.299-24.595-15.931-46.534-10.721-46.534-10.721,23.986,25.58-8.813,40.744-8.813,40.744-12.093,6.896,5.127,16.235,5.127,16.235-15.17,2.757-17.22-12.404-17.22-12.404-7.995-1.531-19.477,8.119-19.477,8.119.821-15.627,21.318-7.812,21.933-24.05.618-16.238-19.065-28.797-77.077-20.83-58.012,7.964-75.026-10.572-75.026-10.572-4.918.155-5.945,5.054-5.945,5.054,9.634,9.19,13.94,13.022,12.299,19.455-1.638,6.436,3.074,8.582,3.074,8.582-10.657-.615-11.478-13.326-11.478-13.326-.206,5.21-2.462,5.669-5.945,11.18-3.483,5.514-.206,12.559-.206,12.559-4.509-3.984-12.711-8.731-4.918-20.063,5.999-8.731-12.505-19.917-12.505-19.917-7.178-7.349-26.24-.46-26.24-.46-39.562,7.812-62.724-17.154-62.724-17.154-4.509,0-13.123-2.45-13.123-2.45-41.818,18.688-78.509-21.752-78.509-21.752-31.567,5.977-45.919-9.19-55.55-24.05-9.634-14.859-11.481-16.083-24.192-23.739-12.708-7.659-24.588-29.329-12.914-40.747,10.179-9.954,7.175-12.255,7.175-12.255-16.397-27.52,29.247-36.393,30.068-42.978,1.195-9.612,10.727-15.687,20.976-16.301,10.249-.615,10.249.304,17.014-6.585,6.766-6.896,19.68,1.686,19.68,1.686,2.665-1.99,25.216-19.455,45.304-10.417,20.088,9.041,36.694,2.605,36.694,2.605,14.146-3.064,131.603-18.995,131.603-18.995,7.587-11.336,12.917-24.969,45.301-32.321,32.387-7.349,56.988-27.418,56.988-27.418-5.739-6.126-15.373-5.821-20.291-6.436-4.921-.612-15.17-9.342-15.17-9.342-5.945,2.605-8.99,1.328-51.452,27.111-37.92,23.029-39.014-22.668-39.014-22.668l-82.746.152c-1.436,17.458-14.758,24.354-14.758,24.354l-30.134,1.531c-16.809-8.886-17.014-38.446-17.014-38.446-91.017,1.382-141.649,33.851-141.649,33.851-103.11-52.694-183.875-64.641-183.875-64.641,125.249-13.633,191.459-48.403,191.459-48.403,69.081,41.359,134.065,42.43,134.065,42.43,2.462-24.969,19.271-31.094,19.271-31.094l19.058,1.033Z"/>
        <path class="cls-1" d="M2609.547,1506.471c-26.049,15.357-21.337,23.742-19.071,28.458,2.313,4.811,2.583,9.415-4.487,16.58-7.073,7.165-6.392,9.653-6.392,9.653,1.087,25.45,19.02,30.857,26.499,37.1,6.262,5.226,16.885,21.61,16.885,21.61,13.332,19.239,27.475,19.442,37.949,19.442s9.539-.894,4.215-5.628c-5.007-4.453-15.506-13.098-15.506-13.098,14.007,4.912,27.339,19.648,27.339,19.648,26.468,29.11,50.869,25.276,61.612,23.844,10.746-1.432,8.838-7.675,8.838-7.675-.564-1.036-11.016-1.844-11.016-1.844-39.717-3.787-51.684-29.982-51.684-29.982,23.939,23.638,61.476,28.448,73.036,28.014,11.561-.437,10.879,2.89,8.429,3.505-2.45.618-5.983,0-11.288-.409-5.305-.412-5.305.922-4.078,3.172,1.223,2.25,6.221,2.481,12.546,2.25s1.223.46,17.645,13.278c16.425,12.816,57.331,2.456,57.331,2.456-26.423-6.601-30.093-18.574-30.093-18.574-35.908,4.218-50.495-17.423-50.495-17.423-6.427-6.449-25.612-16.419-25.612-16.419-20.291-8.756-23.454-27.219-23.454-27.219,5.711,8.173,16.831,17.541,30.907,21.454,14.074,3.914,18.054,5.989,18.054,5.989-6.734.995-10.711-1.23-10.711-1.23-14.08-4.145-6.123,1.613-6.123,1.613,15.506,12.432,19.794,11.513,19.794,11.513,40.7,4.221,20.503-12.125,20.503-12.125,28.971,6.908,33.766-3.993,33.766-3.993,6.018,12.819,27.951,8.211,27.951,8.211-29.177,14.121-7.038,10.09-7.038,10.09,29.478-5.559,35.262,1.987,35.262,1.987,7.98,7.46,16.048,6.424,16.048,6.424,0,0,5.305.155,16.523,2.412,11.222,2.256,28.359,11.865,44.68,9.834,16.32-2.031,18.976,3.118,18.976,3.118-3.058-1.062-10.201-2.161-22.852,3.521-12.648,5.682-34.479,7.52-66.302,0-31.827-7.523-34.276-6.601-34.276-6.601,7.549,5.679,14.28,13.665,15.709,19.188s6.937,5.831,6.937,5.831c2.247-7.061,11.833-10.131,11.833-10.131,6.278,5.834,23.055,13.51,23.055,13.51,1.838-3.838,0-6.525,0-6.525,12.242,11.744,26.522,8.214,26.522,8.214,3.872-2.754,2.652-9.364,2.652-9.364,4.896-.155,5.714,2.915,9.181,5.219s14.482.767,14.482.767c-4.078-1.689-6.937-7.983-6.937-7.983,16.118-11.202,51.005-6.294,51.005-6.294,25.197,4.453,22.034,21.03,22.034,21.03,5.099,2.456,11.833,10.135,11.833,10.135,2.142-5.834.203-11.747.203-11.747,11.529,5.527,13.975,19.036,13.975,19.036,13.364-15.351-12.749-32.619-12.749-32.619,12.648-1.613,26.623-.463,35.09.767,8.468,1.226,20.605,5.682,30.499,13.969,9.897,8.287,27.646,12.125,27.646,12.125-.545-3.423-9.995-9.209-12.137-10.436-2.142-1.23-3.058-4.221-3.058-4.221,8.67,1.534,14.688.767,14.688.767-30.502-18.729-38.152-27.628-38.152-27.628,11.424,1.458,17.75-5.682,17.75-5.682-24.075.536-24.889-5.758-24.889-5.758,2.957.843,13.874,3.533,28.258.691,14.381-2.839,34.374.076,34.374.076-10.404-16.809-50.701-13.969-63.551-13.278-12.85.691-17.848-.995-17.848-.995,2.041-.998,4.183-3.147,14.28-3.223,10.1-.076,19.99.767,31.415-7.14,11.428-7.907,27.101-5.295,27.101-5.295-3.806-7.574-21.895-10.233-37.81,0-15.912,10.23-30.331,6.959-30.331,6.959,25.162-3.584,32.505-12.486,32.505-12.486-7.618-1.844-11.833.615-26.93,3.581-15.094,2.966-19.179-2.25-19.179-2.25,16.596-9.925,28.157-13.918,28.157-13.918-14.143-2.966-27.203-9.038-27.203-9.038-14.688,13.887-26.113,21.724-54.266,6.886-28.153-14.834-42.842-13.098-42.842-13.098,24.756-14.736,50.188-8.392,68.685,2.763,18.497,11.152,23.802,2.044,23.802,2.044-5.847-3.682-5.032-6.855-5.032-6.855,44.886,23.023,64.334,8.699,74.263,1.943,9.929-6.753-4.487-15.759-4.487-15.759-.951,14.638-19.315,21.286-33.731,16.377-14.416-4.912-27.745-11.155-48.486-19.854-20.741-8.699-46.721-4.196-70.932.922-24.211,5.115-27.336,2.659-29.516.716-2.177-1.946-3.397-7.881-15.775-2.763-12.378,5.118-41.213-8.493-59.165-12.79-17.956-4.3-47.345-1.949-72.767,12.074-25.422,14.026-37.946,10.543-45.564,7.061-7.618-3.48-12.378-13.098-4.215-21.695,8.163-8.598,8.838-10.949,8.163-23.333-.681-12.381-12.787-19.752-12.787-19.752,11.152-11.564,13.874-14.121,10.065-19.134-3.809-5.017,2.177-4.912,8.569-7.777,6.392-2.868,3.537-3.277,2.041-7.061-1.496-3.79-5.169-3.172-5.169-3.172-14.821.615-22.985-3.48-22.985-3.48-24.55-11.358-47.332,10.743-47.332,10.743-13.947-10.74-17.138-3.787-19.588-1.125-2.45,2.659-7.346,4.503-13.874,5.115-5.939.558-14.913,2.896-18.025,8.474,0,0-2.751,4.481.678,9.39,0,0,3.812,5.777-3.121,12.758-6.937,6.985-9.383,8.674-7.244,15.271,2.142,6.601,1.531,11.665-1.119,15.965,0,0-3.163-3.682-2.345-8.211.814-4.532.814-7.14-.206-9.596,0,0-6.832,6.753-8.059,11.589,0,0-2.852-7.447,7.038-17.423,9.894-9.976,14.4-14.945,11.63-18.805-2.041-2.839-9.282,1.759-11.022,2.782h0Z"/>
        <path class="cls-3" d="M2636.388,1618.41s-12.549-9.504-11.031-22.693c1.518-13.189,1.261-14.821-.127-17.582,0,0-2.288,1.312-2.221,6.439.067,4.814-.624,9.814-1.103,10.733,0,0-6.481-10.936-9.101-12.983,0,0,2.209-11.45-1.379-16.358-3.584-4.906-7.057-5.213-11.171-3.679-5.695,2.123-9.995,7.365,9.139,22.899,0,0,7.133,5.622,12.102,18.095,4.963,12.47,13.24,14.413,14.891,15.129h0ZM2698.593,1581.916s-.967-7.46,5.79-20.649c6.759-13.189,2.706-22.985,1.188-26.258-1.518-3.27-2.431-2.057,4.386-7.723,8.392-6.975-3.232-15.779,10.562-28.008,0,0,9.101-7.726,11.171-10.895,0,0-14.619,7.767-24.135,11.652-9.517,3.882-45.925,21.568-37.927,33.424,8.002,11.858,7.175,12.473,5.932,17.379,0,0-21.654-11.348-14.07-29.748,0,0,3.438-7.409,12.552-15.741,8.274-7.561,3.308,1.635,20.133-7.872,0,0,13.38-7.872,20.408-18.504,0,0-8.823,5.52-11.998,6.443,0,0-19.448,3.473-27.307,11.652-7.859,8.176-24.547,22.386-18.894,38.228,0,0-19.448-2.351-23.859-22.386,0,0-35.997,43.954,39.581,64.401.003.006,13.795,3.635,26.487,4.605h0Z"/>
        <path class="cls-1" d="M3025.73,1434.401c28.201-4.231,191.643-28.749,206.506-30.245,16.257-1.638,22.468-3.793,27.824,9.212,6.085,14.745-22.31,14.948-22.31,14.948l-194.863,21.93c-9.558,1.093-11.697-2.526-11.697-2.526-1.686-3.09-4.944-7.203-7.19-9.897,0-.003-2.567-2.779,1.73-3.422h0Z"/>
        <path class="cls-8" d="M2632.649,1521.986s-20.824,44.274,61.042,55.226c0,0,.206-4.934,3.47-11.877,3.264-6.943,10.413-20.979,3.673-30.083-6.737-9.105,5.514-4.319,7.352-16.2,1.838-11.877-1.226-10.182,4.49-17.895,0,0-25.723,9.412-35.525,20.827-9.799,11.415,13.272,20.057-.409,32.549,0,0-11.434-4.164-18.171-16.659.006.003-15.915.314-25.923-15.886h0Z"/>
        <path class="cls-3" d="M2712.682,1577.213s20.031,16.517,43.91,15.794c23.875-.719,33.994-6.779,40.066-15.794,0,0,4.643,6.988,4.652,11.611,0,0,20.64-16.301,56.253-2.164,35.613,14.134,24.69,10.249,32.578,11.253,0,0-15.138-2.564-49.779,12.546-35.61,15.535-128.491,10.242-127.68-33.246h0Z"/>
        <path class="cls-8" d="M2678.337,1497.499s9.247,1.401,18.494-9.019c0,0-12.47,2.336-18.494,9.019ZM2608.457,1580.382s-17.195-13.529-6.183-16.171c0,0,7.843-1.242,6.183,16.171Z"/>
        <path class="cls-3" d="M2978.873,1662.662s8.841-15.731,34.371-15.731,28.54,11.678,60.699,13.925c0,0-38.614,10.828-65.523.897-14.067-5.191-26.734-.875-29.548.909Z"/>
        <path class="cls-8" d="M2722.183,1587.157s38.95,23.482,73.597-1.981c0,0,2.871,2.741,5.33,8.994,0,0,26.24-25.162,73.185,1.981,0,0-5.768-.637-27.881,8.845-28.803,12.353-100.86,20.434-124.232-17.838Z"/>
        <path class="cls-3" d="M2871.127,1612.072s37.185,4.275,68.654,2.424c19.334-1.135,40.253-4.643,29.833,1.851-10.42,6.487-5.311,7.095,39.229,3.004,44.544-4.094-.409,8.338,30.242,12.277,0-.003-74.285,37.594-167.958-19.556h0Z"/>
        <path class="cls-8" d="M2969.306,1586.701s22.021-8.024,42.401,1.54c20.374,9.564,17.29,10.34,30.876,11.725,0,0-9.466,13.579-31.903,2.624-22.44-10.955-28.382-13.066-41.375-15.889h0ZM2993.799,1654.435s21.606-10.797,45.494.425c2.988,1.404,9.507,4.117,15.636,5.438,0,0-18.301,5.679-37.052-.158-7.793-2.424-13.994-4.316-24.078-5.704ZM2886.972,1615.707s48.166,4.472,74.304-.745c0,0-30.258,14.628,45.694,7.84,0,0,16.878-1.854,14.818.77-2.06,2.624-3.293,4.63,4.941,7.095.003.006-56.393,25.308-139.757-14.961h0Z"/>
        <path class="cls-3" d="M2648.491,1577.213s.399,3.651,10.816,8.366c10.417,4.716,16.026,13.158,18.228,17.721,2.206,4.563,7.511,11.393,16.127,13.567,0,0-36.748,7.783-53.214-11.611,0,0-12.486-13.972,7.644-28.043"/>
        <path class="cls-8" d="M2944.508,1663.407s-14.955-.922-35.239-8.011c-20.285-7.086-25.615-1.078-37.087-9.707-11.472-8.629-34.625-3.236-38.928-2.621-4.303.618-16.596,0-1.23-10.014,0,0-12.296-.307-17.008-6.471,0,0-5.53,5.39-26.224,3.391,0,0,9.219,14.549-27.865,10.356,0,0,11.063,12.907,24.382,15.528,13.319,2.621,18.875,1.752,27.456-.77,0,0-2.459,11.247,14.752,15.563,17.211,4.316,20.69,7.704,29.504,11.247,0,0,1.23-7.244-21.717-24.037,0,0,12.293-.618,29.916,3.698,17.613,4.313,57.568,14.638,79.289,1.848h0ZM2953.797,1680.665s3.689,8.629,15.024,6.677c11.339-1.949,29.985-5.289,48.017,3.955,0,0,3.071-15.411-33.126-16.488,0,0-22.674,1.233-29.916,5.856ZM2647.274,1581.744s-13.934,11.504-1.296,23.473c11.542,10.93,29.367,9.963,37.905,9.656,0,0-5.124-2.928-9.631-9.707-4.506-6.782-4.662-11.364-14.14-15.718-9.834-4.516-10.993-5.698-12.838-7.704h0ZM2632.659,1521.961s-20.9,44.22,61.263,55.16c0,0,.203-4.928,3.48-11.865,3.277-6.934,10.448-20.954,3.689-30.045-6.763-9.092,5.53-4.316,7.377-16.181,1.844-11.865-1.233-10.169,4.506-17.873,0,0-25.815,9.399-35.655,20.801-9.834,11.402,13.319,20.031-.409,32.511,0,0-11.475-4.158-18.238-16.641.009.003-15.972.314-26.014-15.867h0Z"/>
        <path class="cls-3" d="M2848.944,1624.913s16.821-2.592,59.676,12.822c42.855,15.414,60.677,11.522,67.085,11.092,0,0-24.173,12.137-61.612-3.708-33.103-14.01-35.309-8.683-65.149-20.206h0Z"/>
        <path class="cls-1" d="M3121.159,1612.858s10.017-.339,15.855,2.383c0,0,3.825-3.245,12.987-4.208,0,0-6.015-5.98-28.841,1.825ZM3091.154,1588.783s10.049-.456,13.056-5.219c0,0-5.058-6.389-12.781-9.428,0-.003,1.569,6.791-.276,14.647ZM2754,1477.674s-1.848-4.868,8.61-6.389c10.455-1.521,147.15-20.833,147.15-20.833,0,0,7.244-.009,8.271,4.716,1.109,5.108-.821,8.927-33.832,12.749-33.012,3.825-120.153,14.622-120.153,14.622,0,0-9.228,1.521-10.046-4.864h0Z"/>
        <path class="cls-1" d="M2886.972,1470.956s0,20.006,19.765,22.969c19.176,2.874,25.767-1.233,30.879-11.637,1.34-2.735,7.225-23.622-1.29-25.216-3.347-.624-9.285-.266-13.528,1.604-6.614,2.912-12.752,6.322-10.569,9.738,4.665,7.301,5.577,8.997,3.841,9.523-4.741,1.448-8.227-2.843-9.193-5.818-1.204-3.711,2.614-6.097-10.293-4.129-5.276.802-9.612.637-9.612,2.966ZM2969.03,1457.17c9.634,1.109,8.905,21.467-2.621,30.667-12.41,9.91-24.253,6.367-24.253,6.367-6.262-2.643-5.476-1.765-.631-9.105,4.586-6.95,6.747-16.301,4.19-22.807-.818-2.079,1.442-3.768,4.639-4.452.006-.003,8.724-1.816,18.675-.669h0Z"/>
        <path class="cls-1" d="M2978.29,1458.85s6.978,8.937-1.73,25.409c0,0-3.85,4.858,4.785,4.151,8.635-.71,27.9-10.125,25.907-22.174,0,0-.666-2.934-5.714-2.63-5.048.301-.932-2.836,1.195-3.442,2.13-.605,8.702-3.09-8.366-14.276,0,0-2.817-2.583-6.113-1.518-2.602.843-11.694,4.639-11.694,10.024.003,2.209,1.73,4.456,1.73,4.456ZM2997.973,1442.717s13.95,10.394,13.88,13.484c-.067,3.09-1.293,7.273,2.383,6.905,3.673-.371,18.78-3.708,14.625-14.086-4.148-10.379-8.3-14.029-15.306-16.571-7.007-2.542-8.772.9-14.761,5.609-.003,0-4.354,2.754-.821,4.658h0ZM2922.528,1457.386s2.313-7.732-10.204-10.588c0,0,5.305-4.554,15.918-2.117,10.54,2.418,9.415,9.637,9.333,10.588,0,0-8.243-.32-15.046,2.117h0ZM2949.744,1455.586s14.501-2.64,20.95-1.8c0,0-7.143-16.625-26.461-10.962,0,0,6.937,8.157,5.511,12.762h0ZM2974.573,1451.454s0-5.08,12.312-10.166c0,0-5.974-5.85-14.283-5.295-9.523.637-11.431,4.237-11.431,4.237,0,0,10.34,3.733,13.402,11.225ZM2979.402,1434.087s7.618,2.012,12.381,6.249c0,0,7.222-8.198,13.335-9.957,0,0-11.976-6.671-25.717,3.708Z"/>
        <path class="cls-8" d="M2577.391,1396.579s33.43-29.45,52.159-25.904c18.723,3.546,9.333,1.106,29.833-2.209,20.494-3.318,41.603-5.53,50.124-4.424,0,0-24.759-18.479-68.999-18.165,0,0-31.253,11.215-52.767,26.062,0,0-41.4-24.008-84.22-9.634,0,0,46.474,17.528,73.87,34.273Z"/>
        <path class="cls-1" d="M2937.365,1445.746l5.647-.951s9.532,11.855,2.605,11.992c-5.413.108-3.223-1.673-4.247-5.121-1.03-3.451-2.874-4.991-4.006-5.92ZM2894.843,1446.675s-3.391,4.234,2.979,3.242c7.758-1.207,6.265.26,14.79-5.536,0,0,5.238-5.584,14.993-2.107,0,0,8.22,2.703,14.894-.539,6.674-3.242,8.217-3.011,11.811-2.703,3.594.307,3.353,1.087,8.147-2.431,4.795-3.514,13.113-.814,18.352-5.213,5.242-4.402,11.811-.697,0-9.19,0,0-2.466-2.469-2.26-4.557,0,0,4.519,1.312,8.113,4.557,3.597,3.242,9.555,2.237,10.581,1.699,0,0,.618-10.578,11.092-20.307,10.477-9.729,10.581-10.499,4.418-10.578-6.16-.076-16.536-2.472-20.028,0-3.489,2.469-34.203,22.696-52.073,26.094-17.87,3.4-34.305,8.496-45.808,27.57h0ZM2417.958,1336.01s54.846,14.207,67.17,20.177c0,0,2.944-9.212-21.977-16.422,0,0,60.528-1.854,124.622,27.387,0,0,30.895-26.607,130.316-18.371,0,0,.193-8.819.878-15.604,0,0-69.842-2.057-133.935-41.175,0-.003-57.378,28.36-167.074,44.008h0ZM2722.801,1362.62c-3.835-56.313,17.667-61.355,17.667-61.355,0,0,10.125.06,21.087,1.749,0,0-16.979,20.278-12.461,60.531,0,0,1.781,6.487-12.6,6.487-14.153,0-13.693-7.412-13.693-7.412h0Z"/>
        <path class="cls-8" d="M2736.615,1399.748s-10.188-10.455-11.263-22.516c0,0-.266-3.115,10.055-2.817,10.325.301,11.675-.992,14.213,5.026,2.472,5.853,8.981,18.196,10.591,19.604l-23.596.703h0Z"/>
        <path class="cls-1" d="M2758.243,1373.122c-.974-7.233-1.37-14.532-1.182-21.828.7-32.02,5.993-29.177,8.087-25.184l10.908.2s-7.961-36.117-17.319-15.015c-9.193,20.728-8.518,34.225-7.403,50.603.643,9.434,1.882,15.306,2.931,18.837l3.977-7.612h0Z"/>
        <path class="cls-8" d="M2879.48,1371.737s20.269,3.106-10.794,10.527c0,0,1.512,37.651,38.225,11.282,0,0,21.686-13.909,36.71-19.562,0,0,7.561-2.627,6.655-8.306,0,0,.605-6.687-7.26-5.378,0,0-6.199.146-10.188-1.315,0,0-4.338-5.121-7.263-3.153-2.925,1.968-9.783.83-4.437,7.346,5.346,6.512,6.959,4.845,9.583,2.95,2.624-1.892,14.219-6.509,3.53,3.106-10.692,9.615-19.062-5.299-22.494-8.027l-32.267,10.531h0ZM2778.018,1376.006l-9.006-.203s-4.842,7.27-8.144-4.145l-3.825,7.317s11.161,40.43,20.976-2.969Z"/>
        <path class="cls-1" d="M2765.117,1328.461s-4.627,26.914,1.226,43.558l98.715,1.848s-1.226-19.312.273-45.402h-14.023s-1.908,21.673-.136,35.027l-2.313.048s-1.772-18.742.133-35.075h-11.573s-1.908,20.034-.409,35.233h-2.18s-1.635-17.563.273-35.233h-11.437s-2.101,18.143.149,34.986l-2.732-.06s-2.317-18.387.136-34.926h-12.663s-3.131,16.951-.136,35.132h-2.589s-2.858-17.36.273-35.132h-12.663s-2.995,19.211-.409,35.132h-2.453s-2.044-18.593.681-35.132h-11.846s-3.131,16.232-.545,35.132h-2.589s-1.908-14.07.545-35.132h-11.706v-.003ZM2869.412,1377.565s-2.732-48.695,6.538-61.222c9.269-12.524,11.164-10.068,26.959,0,15.791,10.068,36.219,20.957,39.483,22.186,3.267,1.233,7.9,2.466,7.9,11.304s1.635,11.504-11.982.412c-2.041-1.664-8.407-7.536-13.006-9.016-12.201-3.923,2.935,2.754,7.286,9.016,3.689,5.305,6.538,4.722-2.991,7.191-9.532,2.469-42.484,13.557-60.186,20.13Z"/>
        <path class="cls-3" d="M2902.51,1344.293s-6.927-8.886,1.879-10.92c8.807-2.031,9.498,14.064,10.984,23.768,1.486,9.7-11.082-9.805-12.863-12.847ZM2889.646,1385.722s-10.29,3.834-3.562,7.219c6.731,3.381,25.729-12.635,19.201-11.583-6.535,1.052-15.639,4.364-15.639,4.364h0ZM2903.6,1371.056s9.105-.903,7.324,3.083c-1.781,3.987-5.048,1.451-6.43.574-1.391-.875-7.821-3.131-.894-3.657Z"/>
        <path class="cls-1" d="M2953.911,1357.308s2.538,18.453,18.434,23.131c0,0,9.184,2.272,7.267-5.802,0,0-1.578-6.747-2.878-9.558-1.302-2.814-7.675-4.601-8.36-4.906-.688-.307-1.508-2.247,2.878-.818,4.386,1.432,5.07,1.588,4.728-1.48-.342-3.068-2.922-1.835-6.95-3.796-1.55-.754.165-1.775,1.813-1.417,1.645.358,5.549,1.534,5.619-4.804,0,0,.868-3.524-3.974-3.784-5.276-.282-4.864-2.633-3.22-2.988s7.168,3.457,8.702-2.814c1.575-6.439-7.609-2.732-6.373-6.056,1.233-3.321,7.739,1.898,8.281-2.041.523-3.834,5.783-5.505-3.172-6.741-4.247-.586-.32-2.466,4.449-1.794,5.108.713,8.189-5.571,11.139-7.618,2.947-2.044,19.597-11.96-2.602-8.689-22.208,3.27-28.714,14.004-30.153,16.153-1.448,2.142-7.615,14.815-5.628,35.822h0Z"/>
        <path class="cls-1" d="M3006.466,1373.242c2.795-.561,5.435.231,6.386,2.263,3.581,7.663-4.63,4.925-9.193,10.584s-4.696,4.506-11.142,2.526c-6.443-1.981-8.857-12.166-8.857-12.166-.723-3.128,2.063-3.394,5.4-2.995-.003.003,10.683,1.141,17.407-.212ZM2982.917,1369.167s.453,2.294,4.142,2.608c3.692.311,14.416,1.28,20.792-.865,0,0,2.351-.482,1.293-4.814,0,0-.082-2.811-5.825-1.67-5.739,1.138-14.045,0-16.812-.631-2.767-.627-5.02.054-3.59,5.372h0ZM2982.042,1355.442s-.2,5.97,5.571,6.756c5.774.786,12.958.757,15.953.139,2.285-.469,6.398-1.341,6.734-4.855.336-3.508,1.277-6.132-5.841-4.294-7.114,1.832-15.706.631-16.577.418-.875-.209-5.704-1.73-5.841,1.835h0ZM2984.663,1343.387s-1.41,2.725-1.211,5.346c.203,2.624,4.364,3.511,11.881,3.619,7.52.105,14.229-1.049,14.698-3.67.472-2.621,2.285-5.66-3.622-4.716s-13.357,1.204-16.311-.051c-2.954-1.261-4.941-1.695-5.435-.529h0Z"/>
        <path class="cls-8" d="M3263.165,1373.607s-.095,5.188,4.088,10.296l-212.324-5.932s3.099-1.867,3.892-9.913l204.345,5.549h0Z"/>
        <path class="cls-1" d="M2985.658,1333.547s-1.851,5.368,1.987,6.446c3.831,1.074,10.404,2.25,19.103.871,0,0,4.38.307,5.888-4.348,1.508-4.655,1.353-2.044-11.031-4.503,0,0-3.898-1.135,7.403-1.179,0,0,6.3.206,7.26-.871.957-1.071,9.311-7.672-1.508-7.263-10.816.412-5.476-1.892,0-1.892s7.19,1.125,8.968-.615c1.781-1.74.136-.564-2.808-3.533-2.944-2.966-.891-2.098,1.233-.459s3.423,2.149,5.818.051c2.399-2.101-1.848-5.166,0-4.811,1.851.358,2.741,3.863,9.723.485,6.981-3.375,16.431-1.61,18.998.307,2.567,1.917,9.859,4.373,14.276-.155,4.418-4.528-5.242-8.211-1.131-8.826,4.113-.615,6.988.843,8.629-2.456,1.645-3.299-6.366-6.446,1.334-8.515,7.704-2.076,1.236-23.638-1.439-25.631,0,0-8.623,5.064-18.076,20.336-9.45,15.268-14.993,24.17-27.83,19.493-18.52-6.753-27.986,2.954-30.854,4.703-4.443,2.713,9.285,4.044,1.277,4.196-8.011.152-8.011.84-8.832,2.073-.821,1.226-.105,2.304,1.334,2.38,1.439.076,4.519,3.147-.409,2.992-4.931-.155-8.423-.922-6.975,4.307,0,0,.092,1.141,2.969,1.448,2.871.307,3.901,3.302-1.439,3.302-3.426.006-3.768,1.331-3.869,1.67h0ZM3005.341,1386.825s-3.8,2.687,1.439,2.992c5.238.307,8.011,1.302,9.653-1.496,1.645-2.801,8.731-1.651,4.006-5.565-4.722-3.911-7.907-1.686-15.097,4.069Z"/>
        <path class="cls-1" d="M3026.462,1323.416s17.651-16.545,32.4-5.337c14.752,11.209,16.181,12.885,16.387,13.117.203.228,1.737,1.448-2.253,4.956-3.99,3.508-.101,3.429,4.297,1.293,4.399-2.133,4.703-.152,6.848,2.212,2.149,2.364,5.023,3.736-1.784,3.812-6.804.076-21.429,0-21.429,0,0,0-9.922.837-4.909-3.201,5.013-4.04,4.294-8.845,1.737-9.149-2.554-.304-.203,2.44-1.737,4.345-1.534,1.908-5.013,3.66-8.49,3.584-3.473-.076-6.544,2.507-1.024,4.497,5.524,1.984-.612,3.286-3.476,3.207-2.862-.079-16.669,1.065-2.656,2.741,14.01,1.68-1.264,1.274,9,7.114,11.348,6.458,3.169,20.183-1.125,21.404,0,0-4.703,2.548,1.226,1.844,5.932-.7,9.206-1.543,5.013,1.657-4.193,3.204-12.578,13.877-24.237,5.72,0,0-5.318-2.513,4.193-2.972,9.513-.456-7.774-2.481-10.635-4.405-2.862-1.924-13.807-13.053-6.956-11.681,6.851,1.372,4.399-2.592.304-4.04-4.091-1.448-4.906-7.701-.304-6.329,4.605,1.375,10.024,3.926,13.706,3.755,3.682-.171,2.662-1.699-5.216-4.136-7.875-2.44-11.149-2.824-9.307-9.453,1.841-6.633,10.429,2.592,8.388-2.364-2.044-4.956-9.513-2.516-5.524-9.073,3.99-6.557,4.909-3.739,6.75-2.9,1.844.843,4.788.215-.409-3.657-3.277-2.446.295-5.755,1.22-6.563h0Z"/>
        <path class="cls-3" d="M3039.084,1328.857s-.121-1.268,3.562-1.049c3.682.219,2.732-.656,3.8-.919s10.287,1.35,1.664,2.884c-3.185.567-8.192.162-9.025-.916Z"/>
        <path class="cls-1" d="M3057.753,1349.044s-5.961,3.014-.564,9.219c4.601,5.292,4.576,6.972,4.193,10.489-.387,3.518,203.844,5.644,203.844,5.644,0,0-.38-13.018,8.366-20.345,0,.003-111.597-2.58-215.838-5.007Z"/>
        <path class="cls-8" d="M3267.349,1370.834s.919-10.974,7.669-14.612c3.708-2.003,8.62-.837,10.743,8.011,3.074,12.584-8.778,23.286-14.292,18.507-5.229-4.548-4.12-11.906-4.12-11.906h0Z"/>
        <path class="cls-5" d="M3033.675,1418.762s13.608-11.589,15.655-16.808c0,0,36.837,26.151,34.584,2.139,0,0,.105-6.436,1.125-12.575,0,0,13.319,1.312,15.348-9.345l-34.381-1.014s-3.581-.767-8.902,4.988c-5.318,5.758-16.27,12.058-26.499,6.563,0,0-4.281-3.727-8.642-.58-4.357,3.147-4.56,4.069-.979,7.444,3.584,3.381,11.259,13.741,12.692,19.188ZM3112.77,1346.55l-20.158-.767s-7.368-10.36-21.692-21.873c0,0-4.196-1.844,3.888-8.287,8.081-6.449,10.436-13.351,10.743-16.498.311-3.147-.51-8.056,2.561-4.3,3.068,3.765,23.942,22.639,26.908,17.04,2.969-5.603,3.48-8.211,3.993-9.9.513-1.689,1.226-6.908,4.196-1.458,2.966,5.451,5.004,4.056,5.115,18.187,0,0,.51,13.966,2.662,19.033-.006,0-26.404-8.474-18.215,8.823h0ZM3025.283,1303.575s15.348,8.598,22.918-3.071c7.574-11.665,12.689-13.506,6.959-24.709-5.73-11.202.158-16.425,4.481-21.026,4.319-4.605,8.002-3.838,8.617-21.644.615-17.804,12.895-23.787,18.418-29.313,5.527-5.527,19.442-13.966-1.638-17.496-21.077-3.53-62.822-14.425-73.67-30.695-10.844-16.267-15.756-6.598-15.959-5.986-.206.615-3.682,12.584,7.162,34.229,10.847,21.641,20.054,35.556,30.492,42.563,10.436,7.01,19.854,10.848,14.53,25.276-5.324,14.425-14.533,40.208-22.31,51.874Z"/>
        <path class="cls-8" d="M3081.895,1257.621s2.659,37.014,29.621,50.226c0,0,6.129-14.438,3.676-28.724,0,0,8.781.767,11.234,4.763,0,0,.409-10.749-12.258-14.669-12.663-3.917-6.535-28.033-2.044-30.796,4.494-2.763,3.064-7.574,0-11.928-3.061-4.351-3.879-10.955,6.744-8.192,10.623,2.763,8.987-2.919,2.656-8.141-6.329-5.223-6.129-11.672,2.858-11.672s23.901-8.756,14.91-11.522c-8.984-2.763-11.846-5.682.409-9.215,12.258-3.533,18.181-7.986,8.987-9.06-9.19-1.074-15.319-4.304-6.332-5.837,8.984-1.534-1.635-10.749-12.055-11.212-10.417-.459-32.885,3.841-15.113-10.442,17.772-14.286-25.536-3.841-7.764-13.212,17.772-9.371-5.923-5.223-9.19-5.375s-3.232,0-2.028-4.763c1.211-4.763-2.469-6.915-7.577-3.996q-5.105,2.919-4.899-3.686c.203-6.601-6.129-1.689-10.011,0-3.879,1.689-13.687,9.06-17.566,5.07-3.882-3.993-6.129-8.141-18.181-.767-12.055,7.371-9.193.767-8.987-2.459.203-3.223,4.696-15.972-11.849-2.304-16.545,13.671-3.061-14.745-16.137-5.07-13.075,9.678-14.501,11.367-16.545,7.067-2.044-4.304-4.519-7.834-18.909,1.382-14.391,9.215-3.765-5.53-1.724-8.753,2.038-3.226,8.173-24.116-4.494-7.834,0,0-6.129,11.367-19.816-8.908,0,0-14.501,20.142-18.181,11.221-3.676-8.918-7.355-9.84-12.055-4.002-4.696,5.837-1.226-.307-3.267-5.223-2.038-4.918-3.264-13.979-27.371,3.686-24.104,17.661,8.376,4.76-10.008,12.749-18.387,7.986-62.712,33.176-22.063,27.339,40.652-5.834-19.816,15.975-5.717,19.971,14.096,3.993,9.599,16.279,62.506,1.689,52.907-14.59,44.328-2.307,71.29-13.979,26.962-11.672-6.129,3.996,30.03,3.223,36.158-.767,6.129.155,13.075,7.682,6.943,7.526,37.584,25.346,66.182,28.261,28.597,2.919,35.544-7.831,27.371,4.608-8.173,12.442-11.028,17.205-15.931,21.505-4.902,4.304-18.387,14.131-18.59,31.335-.206,17.205-22.471,19.971-14.299,39.014.006-.003,12.673-12.293,19.41-19.049h0Z"/>
        <path class="cls-8" d="M3127.931,1298.339s-6.55-4.598-6.414-12.774c0,0,4.636.818,6.414,3.784,0,0,16.504-18.704-3.21-25.447-19.711-6.744-9.894-24.626-3.207-24.731s7.85-1.943,2.218-9.402c-5.628-7.46-5.219-7.767,5.967-9.707,11.187-1.943,9.669-4.294,4.696-7.051-4.969-2.757-8.781-7.257-8.781-7.257,0,0,31.643-13.795,21.41-20.13-10.236-6.335,0-4.7,9.139-11.244,9.139-6.538,10.366-7.764,11.732-10.321,0,0-9.035.922-15.703-.409,0,0,7.897-3.885,0-10.321-7.9-6.443-11.174-12.264-23.723-9.304-12.552,2.963-8.461-1.223-3.546-6.439,4.909-5.213,2.589-8.173-6.278-9.501,0,0,1.093-5.314,7.777-11.96,0,0-17.052,1.226-22.782-1.737,0,0,6.823-4.696,7.368-10.321,0,0-9.412,3.068-21.28,1.943,0,0,6.956-6.031,6.956-11.345,0,0-20.599,4.598-30.15,11.855,0,0-2.047-.412-3.682-2.659-1.638-2.247-2.868-4.497-25.65,2.76,0,0,2.592-10.119,8.049-14.207s4.639-12.264-30.831,9.913c0,0-4.776-2.862-8.731-13.49,0,0-7.641,10.835-13.51,14.511,0,0-4.909,2.063-4.294-4.842.612-6.905-3.48-1.984-7.165,0-3.682,1.984-6.138,6.889-4.297-7.061,1.844-13.95-4.909-16.862-4.909-16.862,0,0-11.05,15.636-17.395,17.322,0,0-11.665-11.345-15.756-18.856-4.094-7.511-4.094-10.271-8.189,2.76-4.091,13.028-9.206,14.099-9.206,14.099,0,0-6.959-5.977-7.78-9.197,0,0-1.226,3.527-3.476,5.058,0,0-6.138-7.203-5.936-17.626,0,0-38.06,21.001-42.766,33.725,0,0-36.019-2.149-50.958.615,0,0,3.682-11.649,13.098-17.474,0,0-9.412-1.071-9.821-10.73,0,0,7.574,1.071,12.28-.152,4.706-1.226-6.55-14.872,5.321-15.176,11.868-.307,19.442,5.669,14.118-10.119-5.321-15.788-2.865-15.788-2.865-15.788,0,0,20.668,12.264,23.945,9.197,3.277-3.064-2.662-9.656,15.756-6.588,18.418,3.068,13.304-7.511,20.462-7.97,7.165-.463,11.05,4.598,6.55-28.819-4.503-33.414,22.304,16.558,4.091-33.874,0,0-4.605-15.252-15.554-21.768,0,0-2.456,11.038-14.834,1.302-12.381-9.738-36.735-13.186-26.502-20.846,10.23-7.666,15.04-17.937,12.074-24.373,0,0-12.068,12.622-33.05,3.6-16.577-7.127-20.054,5.98-37.039,2.149,0,0,.304-4.37,14.631-15.639,14.327-11.266-8.287,3.758-17.189,5.752-8.902,1.99-11.459.383,7.368-14.181,18.827-14.562,56.072-40.316,50.955-61.469,0,0,8.8,11.187,31.925,3.068,23.124-8.122,40.313-11.041,47.272-22.994,6.959-11.957,25.171-24.069,29.877-26.674,4.706-2.608,11.05-4.443,3.888,6.899-7.165,11.345-18.83,30.812-50.752,43.992-31.921,13.186-44.201,22.842-49.931,29.738-5.73,6.899-34.79,22.383-15.962,19.775,18.83-2.605,51.569.459,36.225-3.987-15.348-4.443-32.742,2.757-18.624-10.119,14.118-12.876,16.574-17.167,37.039-25.751,20.462-8.588,43.175-28.207,40.928-7.362-2.253,20.846-40.316,43.076-49.728,49.817-9.412,6.747-5.932,5.676-5.73,8.433.206,2.757-1.432,8.43-5.321,11.038-3.885,2.608-2.662,5.52-1.638,11.342,1.024,5.825-1.024,8.129,1.844,9.044,2.865.916,5.73,1.382,6.547,5.517.821,4.139,2.969,4.674,8.493,4.215,5.527-.459,9.003.076,9.412,3.296.412,3.22,5.628,7.587,6.243-2.221.612-9.811,4.196-11.728-5.831-7.203-10.027,4.522-12.175,2.912-11.973-1.762.206-4.674-.919-3.603-5.115-3.987-4.196-.387-5.628-6.287,1.844-10.195,7.466-3.907,7.368.076,16.679-7.666,9.311-7.739,9.311-9.887,10.746-13.49,1.432-3.6-13.304,10.502-20.364,13.722-7.057,3.217-5.219-2.221-3.99-10.274,1.23-8.049,18.827-18.548,26.911-18.7,8.084-.155,26.296,4.598,18.418,15.636-7.878,11.038-30.185,24.142-20.567,25.14,9.618.995,11.155-2.76,16.679,2.145,5.527,4.902.412,14.869-2.149,20.158-2.557,5.289-7.878,11.96-10.23,13.186,0,0-10.131-18.089-9.821-3.758.307,14.33-2.149,19.467,0,20.006,2.145.536,13.402,8.046,16.983,8.198,3.584.155-19.442,10.81-9.821,11.5,9.618.691,24.864-4.215,30.185-14.181,0,0-19.543-4.754-27.422-12.109,0,0,22.82-5.365,16.476-27.361,0,0,22.716,6.208,12.892,16.479-9.821,10.271-15.756,8.737-7.263,11.649s12.689,5.362,12.689,5.362c0,0,5.809,2.912,2.443,7.666-3.366,4.754-3.467,11.96-.605,11.805,2.865-.155,12.486-4.598,4.402-9.504-8.084-4.902,9.209-4.063,1.844-8.201-7.368-4.136-9.314-5.134-11.256-7.127s92.497-57.41,44.816-36.637c0,0,9.925-21.537,23.837-21.616,13.915-.079,14.939,10.958,7.061,19.312-7.878,8.357-12.993,21.388-31.513,24.449,0,0,26.464,12.98-4.811,34.187,0,0-6.785,3.217-4.332,5.568,2.456,2.351,21.007-8.176,23.603-14.102,2.592-5.929,6.547-10.527,13.643-14.001,7.095-3.473,42.021-27.285,52.526-45.273,10.505-17.987,13.37-18.599,33.832-35.049,20.462-16.453,16.919-13.186,19.512-17.17,2.595-3.983,3.682-10.527,13.098-15.842,9.415-5.311,45.973-25.647,57.445-33.927,11.44-8.277,34.923-23.505,45-36.383,10.109-12.876,37.299-29.323,44.081-26.265,6.782,3.061-.697,12.676-16.637,24.836-15.972,12.16-55.521,44.148-61.954,49.05-6.401,4.906-39.961,29.434-52.517,31.069-12.552,1.635-11.19,6.027-18.694,14.204-7.504,8.176-24.829,25.346-30.695,30.049-5.869,4.7-19.784,14.305-20.602,21.052-.818,6.744,2.459,7.558-8.728,18.086-11.187,10.527-43.929,34.336-55.8,38.12,0,0,21.011,6.95,8.458,21.156-12.552,14.204-11.735,12.16-12.689,13.079,0,0,31.899-4.7,9.276,20.13,0,0-4.364,7.156,5.73-.304,10.791-7.976,6.138-18.906,4.912-20.44,0,0,16.916-10.527,36.428-10.832,19.508-.307,18.827-1.638,1.363-6.645,0,0,12.416-15.126,22.921-7.666,10.505,7.46,7.095,11.754-3.955,17.68-11.05,5.929-27.422,8.379-39.565,15.126,0,0,23.058,4.497,35.474-4.906,12.413-9.402,12.961-4.7,14.593-3.068,1.638,1.638,3.004,4.7-2.456,12.572-5.46,7.869-6.002,8.277-5.73,10.017.273,1.737-.409,7.152-11.595,8.991-11.187,1.841-16.235,6.541-12.416,11.855,3.819,5.314,3.955,18.498-5.593,17.271s-6.959-8.788-10.641-11.754c-3.682-2.963-8.867-7.561-25.514,1.125-16.644,8.686-18.009-1.635-17.189-7.051,0,0-10.778,9.402-19.784.716-9.003-8.686-.821-12.058,4.364-16.45,5.184-4.395,26.328-13.592,13.646-11.96-12.686,1.632-31.652,2.453-36.019-7.355-4.364-9.811,9.412-8.686,11.595-7.767,2.187.922,11.187,8.176,11.462-1.331.273-9.501,14.321-10.527,9.548-12.467-4.776-1.943-11.462,4.088-13.373,6.439,0,0-9.821-13.696-25.644-9.197-15.826,4.497,5.045,2.656,9.276,3.372,4.227.716,1.775,8.585-12.416,21.359-14.191,12.774-7.78,8.892,2.729,8.892s36.292.101,21.283,12.366c-15.009,12.264-21.011,18.393-28.787,16.248-7.777-2.149.957-7.257,4.367-9.402,3.407-2.149,5.454-5.929-1.914-3.169-7.368,2.763-9.957,3.274-15.823-7.152-5.866-10.426-3.41-7.358-.957-14.207,2.459-6.845,8.189-14.102,1.366-11.548-6.823,2.551-6.138,2.757-5.593-5.108.545-7.872-7.777-9.608-7.777-9.608,0,0,3.274,7.872.273,12.876-3.001,5.004-3.137,6.744,1.775,8.071,4.912,1.331,9.548,5.517,2.862,10.119-6.683,4.598-5.866,3.987-1.635,6.744,4.227,2.757,10.366,5.929,3.819,12.366-6.55,6.436-1.093,4.497,2.184,4.497s10.683,2.757,10.797,9.095c.117,6.335-.431,7.872,10.211,1.943s31.921-5.213,31.649,3.068c-.273,8.274-2.729,10.321,8.598,3.27,11.326-7.051,16.371,6.645,24.148,0,7.777-6.642,12.689-13.079,21.692-1.737,9.003,11.345,6.199,14.774-4.776,22.788-10.971,8.014,5.321,1.841,13.646-2.453,8.325-4.291,31.649-7.152,45.019-1.226,13.373,5.929,17.192,4.598,27.013.51,9.821-4.088,14.869-5.007,29.741,4.906,14.879,9.913,26.477,11.754,34.241,11.548,0,0-16.511,6.439-35.059,7.666-18.555,1.226-27.83,4.7-31.513,7.561,0,0,11.158,6.744,13.357,15.021,0,0,12.156-1.635,18.158.818,0,0-3.137,8.785,4.38,13.487,7.479,4.7,12.676,6.439,7.067,12.876-5.577,6.439,8.62,3.679.57,12.774-8.049,9.098-10.242,13.696-10.515,21.052-.273,7.358,1.768,8.48-5.457,9.197-7.232.716,1.23,8.788-2.047,18.393-3.274,9.608-23.467,8.588-22.649,34.336,0,0,5.593-12.568,17.601-23.606,12.007-11.038,12.416-12.058,12.144-18.704-.276-6.645-.821-5.108,5.6-10.119,6.401-5.007-2.884-9.707,3.549-16.862,6.401-7.152.824-5.723,8.303-12.977,7.511-7.257-6.528-8.176,1.109-15.636,7.637-7.463-18.425-15.943-10.933-20.748,7.511-4.804,20.472-11.443-23.181-10.727,0,0,10.505-17.373,47.329-13.592,0,0-9.665,6.845-10.489,13.592,0,0,4.215,2.145,6.813,2.757,0,0-1.426,4.944-8.461,10.933,0,0,19.521,10.933,22.659,17.373,0,0-11.884,3.679-14.863,8.892,0,0,5.166,5.929,6.94,13.592,0,0-13.215-1.638-14.989,8.274-1.775,9.913-5.736,3.169-5.736,8.994s.412,8.176-4.215,9.095c-4.658.922-.824,5.825,0,9.098.792,3.27,2.313,10.727,1.616,13.079,0,0-6.687.101-9.824,1.02,0,0,2.06,14.207-5.853,16.248-7.916,2.044,4.227,4.906-4.231,6.439-8.458,1.534-7.368,2.044-17.734,20.646,0,0,8.864-5.01,18.009-11.038,9.136-6.031-.685-4.189,14.467-19.109,15.148-14.923,12.422-16.048,11.187-23.609-1.236-7.561-1.521-13.693,3.961-20.846,5.451-7.156,7.225-15.332,26.588-14.305,0,0-5.736-12.901-12.834-16.26,0,0,9.285-6.427,19.109-7.346,0,0-8.588-10.321-26.176-20.332,0,0,14.451-12.47,17.842-18.396,0,0-6.655,1.02-11.979-.203,0,0,2.503-5.967,15.528-14.514,0,0,6.972,6.747,6.687,13.798,0,0,22.373-12.876,35.081-11.446,0,0,6.401,16.149-24.687,46.398,0,0,19.236,1.841,27.412.713,0,0-4.658,14.923-27.982,23.711-23.324,8.785,5.039,19.058-18.824,17.271-23.863-1.787-16.511,6.439-15.813,18.599.666,12.16,1.489,24.626.951,28.001,0,0-19.109-6.237-18.697,12.264.412,18.498-9.824,22.38-11.852,24.116,0,0-5.559-4.956-13.931-7.869-.019.016-11.865,22.532-30.987,35.683h.001Z"/>
        <path class="cls-5" d="M3100.471,1065.696s6.544-1.065,17.588,5.796c11.044,6.861,21.882-7.32,9.612-10.984-12.274-3.663.203-7.929,11.247.916,11.044,8.848,15.338,4.421,19.429,1.375,4.094-3.049,8.997-4.731,1.432-9.913-7.568-5.188,5.115-2.744,10.841.916,5.714,3.657,3.464,7.473,2.672,8.541-.824,1.071-1.445,12.964,9.792,1.832,11.25-11.133,16.796-22.269,16.574-27.761,0,0,6.148,3.816,6.972,10.828.792,7.016,9.38-3.812,12.264-7.625,2.852-3.816,7.764-13.437,7.162-20.675,0,0,7.542,11.662,18.792,0,11.25-11.662,6.37-4.338,19.838-7.85,13.5-3.508,30.486-13.421,39.676-24.553,9.222-11.133,9.824-3.66,21.708-6.408,11.852-2.741,35.778-19.217,38.028-28.217,2.25-8.997,1.838-14.489-1.648-11.44-3.486,3.049-2.028.612-7.162-2.592-5.102-3.204-12.676,4.117-12.676,4.117,0,0,7.574,5.796,1.838,8.236-5.704,2.437-11.25,10.524-22.088,7.473-10.838-3.052-22.088,9.913-22.088,9.913,0,0,9.412,7.777-3.264,12.66-12.676,4.877-10.616,6.557-18.412,1.22,0,0-13.5,17.081-21.264,20.589,0,0-3.676-.304-6.116-3.508,0,0-8.81,9.913-13.31,11.896,0,0-5.514-5.337-10.648-7.013,0,0-10.616,13.117-19.616,17.233,0,0-2.662-4.877-8.398-8.233,0,0-2.82,17.157-21.676,27.301,0,0,1.236-4.576-8.179-10.828,0,0-23.314,20.133-32.517,22.117-9.2,1.981-.612-4.272.615-6.867,1.226-2.592,6.953-11.133-4.294-14.641-11.247-3.508-9.406,2.44-11.862,3.508-2.456,1.068-2.662-1.981-10.226-.916-7.568,1.068-6.338,4.424-9.612,5.647-3.27,1.22-16.358-2.136-15.747,6.557.615,8.693,6.75,14.641-4.703,19.676-11.459,5.032,4.291,3.964,19.426,1.676h0Z"/>
        <path class="cls-8" d="M3147.471,1041.649s2.668-10.911-6.978-16.213c0,0,61.954-9.39,15.183-32.723,0,0,55.613-11.364,42.493-28.936-13.151-17.579-25.923-13.636-27.843-13.335-1.927.304,11.808-10.15,15.515-8.788,3.708,1.366,48.423,18.333,36.951,3.79-11.504-14.546-10.489-13.636-12.328-17.88,0,0,14.768,0,37.141,21.514,0,0,4.722-4.849,4.12-13.636,0,0,16.004,4.392,20.915,9.089,0,0,2.662-5.454,1.648-8.483,0,0,13.753,7.27,18.475,14.999,0,0,6.338-5.454,7.384-11.668,0,0,13.753,5.609,17.239,9.849,0,0,4.5-5.91,2.852-14.394,0,0,22.785,6.668,25.859-7.27,0,0,22.912,4.899,8.018,13.7-19.141,11.31-1.933-2.789-21.549,10.692-15.243,10.455-23.736,22.725-31.056,20.202-5.387-1.854-11.852,13.586-19.236,6.008s-7.384-4.091-12.517,3.787c-5.134,7.881-13.12,15.912-13.12,15.912,0,0-3.993-2.275-7.035-5.302,0,0-4.468,7.27-10.204,12.724,0,0-4.532-5.91-11.694-9.545,0,0-11.282,12.879-18.285,17.271,0,0-6.56-6.363-13.532-8.487,0,0-1.014,17.423-14.768,26.366,0,0-2.884-5.758-11.7-9.244.006,0-6.972,11.016-21.949,20h0Z"/>
        <path class="cls-8" d="M3116.814,1014.621s-7.596,5.742-2.694,11.89c4.902,6.145,5.175-1.068,11.386-1.676,6.208-.612,82.803-13.567,13.456-33.988,0,0,2.893-2.592,14.901-3.657,12.004-1.068,55.461-12.651,35.179-27.89-20.275-15.243-37.144,5.178-20.069-13.11,13.668-14.628,2.69-21.793,2.69-21.793,0,0-40.361,26.521-49.262,31.395-8.899,4.877-21.733,14.175-6.623,19.049,15.11,4.877,25.463-16.152,26.908-11.431,1.448,4.725-30.429,22.098-25.872,30.179,4.554,8.078,3.518,14.783,11.383,13.256,7.869-1.521,29.187,3.964,11.798,3.356-17.385-.612-23.181,4.421-23.181,4.421h0Z"/>
        <path class="cls-3" d="M3142.943,975.357s-6.763,4.554,2.187,2.272c8.946-2.285,26.845-5.996,23.467-10.42-3.388-4.424-15.316.878-25.653,8.148h0Z"/>
        <path class="cls-5" d="M3265.416,896.711s34.827-.916,49.215,8.851c14.387,9.767,21.264,16.175,25.511,17.547,0,0-.602,13.275-22.88,3.816,0,0,1.204,6.411-1.204,12.667,0,0-8.335-5.495-17.842-7.935,0,0-1.616,5.036-4.658,7.935,0,0-9.919-10.071-21.042-13.123,0,0-2.25,5.036-4.246,6.867,0,0-11.979-6.867-21.074-6.715,0,0,1.838,7.327,0,10.226,0,0-25.32-19.99-47.789-17.395,0,0,10.933,16.023,18.032,23.958,0,0-45.577-3.66-38.092-28.382,7.511-24.718-.602-18.51,29.155-18.336,29.789.177,56.916.019,56.916.019h0Z"/>
        <path class="cls-8" d="M3047.79,964.687s-5.327,4.291,0,7.932c5.33,3.635,23.571-9.396,26.027-11.215,2.462-1.822,9.019-1.515,0,5.153-9.016,6.671-18.241,13.944-23.98,21.22,0,0,30.54-8.182,50.419-25.159,19.879-16.973-.925-5.977,32.996-22.129,33.921-16.149,51.639-42.135,33.408-39.403-18.241,2.725-34.637,23.34-48.778,31.221s-22.136,8.94-19.882,4.395c2.256-4.548,12.708-2.728,32.178-18.187,19.47-15.462,15.164-14.4,15.37-19.854.203-5.457-7.381-18.944,21.93-34.105,29.298-15.157,120.502-67.899,128.297-85.934,0,0-26.652,2.881-61.701,28.493-35.049,25.612-53.81,37.588-63.479,40.769-9.678,3.182-8.449,1.062-14.803,8.49-6.354,7.428-40.991,40.468-47.345,45.317-6.354,4.852-8.198,8.037-8.743,17.921-.238,4.506-39.822,33.965-51.915,45.076h0Z"/>
        <path class="cls-8" d="M3169.787,897.627s-6.68,3.188-13.158,0c-6.477-3.188-4.453-17.518,11.133-26.084,15.576-8.563,43.907-21.334,58.294-23.203,0,0-2.028,18.532-46.743,34.105,0,0,2.82,9.65-9.526,15.183h0Z"/>
        <path class="cls-4" d="M3184.859,883.804s1.331,4.411,0,8.439c0,0,84.423,7.986,127.997-42.338,0,0-59.799,5.425-83.63,19.436,0,0,14.989-18.383,59.799-33.598,44.778-15.218,63.063-34.054,66.961-44.445,0,0-56.63,19.436-83.599,19.436,0,0-5.355-.152-10.49,2.709-5.134,2.865-41.292,28.629-50.958,32.996,0,0,20.345-1.657,27.539-8.135,0,0-14.134,37.242-53.62,45.501h0Z"/>
        <path class="cls-8" d="M3025.699,932.642s-10.813,7.682-6.325,11.519c4.487,3.841,12.216,4.608,28.651-9.215,16.434-13.82,56.215-48.229,31.079-49.608,0,0-32.191-1.996-31.079,17.816,1.125,20.009-20.713,28.23-22.326,29.488h0ZM2951.439,920.967s21.217,12.438,13.262,22.731c0,0,65.079-55.6,46.718-67.582-18.361-11.982-32.844,10.597-28.356,12.901,4.487,2.304,14.074-1.996,10.607,2.304-3.467,4.3-38.149,27.805-42.23,29.646h0ZM2934.507,902.995s14.28,4.304,14.891,10.445c.612,6.142,43.045-30.106,31.823-45.307-5.147-6.972-28.765-9.833-29.786,3.841-1.02,13.671,21.217-1.385,13.465,8.445-10.163,12.892-27.333,20.428-30.394,22.576ZM3087.222,872.706s-9.095,6.636-.932,10.632c8.16,3.996,13.465-2.307,17.544-5.989,4.078-3.686,24.278-18.586,28.968-28.109,4.693-9.52,11.63-12.438,18.976-17.357,7.346-4.912,59.162-30.873,90.979-59.593,31.817-28.724,18.571-21.35,51.623-39.784,33.053-18.428,54.665-35.325,61.605-55.293,0,0-15.306,5.067-28.775,13.823-13.468,8.753-43.859,27.954-49.975,30.562s-14.673,3.074-19.173,7.834c-4.5,4.76-4.088,10.442-19.996,23.654-15.909,13.208-98.125,71.572-108.12,79.865-9.995,8.303-42.725,39.755-42.725,39.755h0Z"/>
        <path class="cls-4" d="M3020.07,892.706s9.016-4.953,25.961-3.8c16.945,1.15,83.9-63.434,103.304-76.471,19.407-13.037,80.081-56.643,88.289-64.588,8.176-7.945,9.539-16.504,16.669-21.188,7.099-4.684,13.659-4.075,30.042-13.449,16.416-9.371,95.102-56.231,90.476-83.532,0,0-117.254,70.086-144.317,92.906-27.032,22.82-102.201,74.57-115.593,82.924-13.392,8.353-24.05,22.82-46.458,40.95-22.411,18.133-44.544,33.411-48.372,46.249h0Z"/>
        <path class="cls-4" d="M2994.718,868.482s21.727-2.218,24.629,8.379c0,0,46.524-31.883,57.198-44.962,10.67-13.079-3.556-5.517,22.988-22.89,26.544-17.373,114.671-78.889,127.252-89.927,12.581-11.038,36.412-25.545,55.553-38.421,19.173-12.876,94.151-49.459,85.659-79.504,0,0-55.014,36.786-67.31,44.759-12.328,7.97-17.525,3.473-30.106,13.285-12.613,9.811-40.247,29.431-45.158,35.559-4.944,6.132-47.092,38.424-67.598,52.118-20.526,13.693-66.499,40.262-88.669,59.476-22.17,19.207-65.133,54.77-74.437,62.129h0Z"/>
        <path class="cls-4" d="M2928.169,859.78s10.974.155,14.251,4.405c0,0,20.285-17.601,41.866-.206,0,0,79.225-52.995,87.148-66.346,7.923-13.351,20.76-13.554,51.633-35.804,30.869-22.25,50.257-31.554,70.761-47.332,20.472-15.775,37.68-33.579,52.447-43.083,14.736-9.507,51.908-33.579,45.634-54.412,0,0-30.074,16.989-49.722,38.231-19.68,21.239-18.032,3.033-37.965,20.833-19.965,17.8-50.828,42.072-76.51,54.615-25.682,12.543-10.106,11.126-28.683,22.858-18.58,11.732-17.211,9.913-24.043,11.529-6.829,1.619-17.211,6.471-24.04,14.362-6.829,7.888-25.134,18.608-45.076,29.735-19.943,11.123-68.98,39.999-77.701,50.616h0Z"/>
        <path class="cls-4" d="M2951.566,820.31s-4.297-8.905,3.274-15.199c7.574-6.294,21.286-22.877,23.539-33.316s.615-8.75,22.513-17.81c21.901-9.057,71.636-32.394,99.678-49.741,28.04-17.35,70.615-45.288,79.409-52.045,8.81-6.753,30.169-21.8,38.82-28.86,0,0,4.151,11.82-5.26,19.958-9.412,8.138-45.631,33.623-51.566,37.616s-39.299,26.404-49.532,32.086c-10.233,5.682-35.613,18.577-44.616,26.1-9.006,7.52-7.85,9.827-48.033,29.475-40.186,19.651-42.028,21.648-40.798,23.184,1.226,1.534,19.239-6.297,27.834-11.361,8.598-5.067,41.549-20.111,51.373-27.944,9.824-7.827,26.404-20.111,33.566-24.104,7.165-3.993,66.518-39.609,83.491-52.197,17.018-12.591,21.708-16.736,25.384-14.584,3.708,2.149,9.634,2.304,2.06,9.517-7.574,7.216-31.722,28.404-40.934,34.542-9.209,6.138-38.069,23.337-46.052,27.482s-11.053,11.824-15.554,15.043c-4.503,3.223-17.604,12.591-33.566,16.273-15.966,3.686-18.83,15.661-29.269,22.418-10.439,6.753-84.72,46.825-86.974,48.819,0,0,4.49-4.608,1.214-15.354h0Z"/>
        <path class="cls-4" d="M3209.546,654.171s-4.056,3.695-1.838,5.777c2.947,2.748,13.183,10.15,25.954-2.887,12.803-13.041,47.123-41.457,58.246-48.172,11.123-6.712,16.416-13.113,16.004-22.329,0,0-52.732,28.889-98.366,67.611ZM3282.148,649.173s8.113-13.896,27.982-27.013c19.87-13.113,49.722-32.21,53.746-36.849,0,0,7.099,8.277-8.524,18.425-15.592,10.15-46.014,30.917-49.69,33.883-3.644,2.966-9.729,7.495-23.514,11.554h0Z"/>
        <path class="cls-5" d="M2872.756,797.683s-22.313,11.868-14.327,19.321c7.986,7.453,19.857,5.175,24.772,3.042,4.912-2.13,14.327-4.408,15.76-4.864,1.436-.456,20.881-5.936,25.793-14.907,4.912-8.975,18.016-19.321,28.455-26.775,10.442-7.454,14.124-14.907,12.695-20.231-.003-.003-87.877,41.21-93.147,44.414h0ZM2740.101,900.064s15.417-9.101,37.055-3.346c0,0-1.024-5.235-4.297-7.942,0,0,26.201-6.817,31.934-18.377,5.73-11.561,6.959-9.127,12.077-12.473s40.532-31.643,36.441-37.727c-4.094-6.088-4.912-13.994-7.986-17.192,0,0-7.371,10.039-41.761,26.62-34.393,16.583-72.675,29.057-100.515,66.327-27.84,37.271-24.975,58.871,9.006,68.302,0,0,23.951-14.907,82.296-9.738,58.345,5.175,78.199,26.927,81.887,30.882,3.682,3.958,15.557,18.254,4.091,42.443,0,0,11.671,5.02,12.695-6.085,1.024-11.104,1.638-8.518,4.297-6.845,2.665,1.673,5.939,1.974,4.709-6.541-1.23-8.521-5.324-27.536-10.645-34.076-5.324-6.538.615-3.648,4.094-2.282,3.476,1.369,15.76,11.256,8.395-6.997-7.371-18.254-9.212-9.282-9.418-8.366-.203.913-1.638,5.476-17.604-6.392-15.969-11.868-30.505-17.648-41.353-20.687-10.851-3.039-3.274-3.042,3.068-5.324,6.348-2.282,14.942-3.648,17.81-10.645,0,0-6.344,1.518-18.016-2.589-11.668-4.107-35.005-4.563-53.838,9.431,0,0,5.936-21.6-11.259-20.383-17.198,1.217-29.275.761-47.494,15.059,0,0-1.027-21.752,16.172-33.012,17.195-11.256,14.942-4.408,24.566-7.298,9.624-2.89,10.439-12.473,6.344-15.519,0,0,22.519,3.803,60.389-27.38,0,0-20.345,26.471-45.079,31.795,0,0-3.917,14.089-26.366,17.192-22.446,3.099-21.901,15.972-21.695,19.166h0Z"/>
        <path class="cls-8" d="M2678.308,1029.708s10.993-67.389,72.51-72.266c53.905-4.275,71.014,2.608,81.745,6.151s36.935,11.469,26.75,20.123c-10.182,8.651-16.023,7.089-16.023,7.089,0,0,11.814-13.449,1.087-15.744-10.727-2.291-11.678,4.38-13.17,10.011-1.496,5.631-2.174,12.404-7.469,16.783,0,0-5.432-6.462-13.174-.83-7.742,5.628-1.087,5.837,2.038,4.899,3.121-.938,7.197-2.608,6.382,2.294-.814,4.899-5.159,13.342-17.924,20.225-12.765,6.88-12.087,6.462-27.295,8.965-15.205,2.5-29.329,8.651-48.746,25.751-19.42,17.097-40.668,11.393-44.943-7.713-3.666-16.384-1.768-25.739-1.768-25.739h0Z"/>
        <path class="cls-3" d="M2746.714,1028.973s5.913-13.5-4.693-19.695c0,0-32.435,5.787-42.021-4.446,0,0,35.29-1.908,57.115-10.8,21.828-8.895,15.3-15.088,7.755-16.517-7.549-1.429-21.419,2.063-22.849,9.212,0,0-4.281-7.621,1.226-12.708,5.508-5.083,14.077-6.034,21.825-3.654,7.755,2.383,14.685,5.879,40.186-7.942,0,0,14.685,3.495,15.094,13.817.406,10.321-1.02,14.609-2.247,16.2-1.223,1.588-3.058,4.605-6.119,4.288-3.058-.317-6.937-1.109-10.81,6.034-3.876,7.149-6.205,13.342-12.689,18.105,0,0,7.587-22.234-11.18-27.475,0,0-15.503,9.529-27.333,10.005,0,.009,15.097,14.619-3.261,25.577h0Z"/>
        <path class="cls-8" d="M2781.913,987.038s-7.377-7.862,2.32-8.699c9.694-.837,22.551,6.027,20.022,11.83-2.529,5.799-13.912,5.571-22.342-3.131Z"/>
        <path class="cls-7" d="M3313.268,883.766s-17.113,4.95-1.236,15.626c15.909,10.673,23.641,19.955,35.239,23.051,11.63,3.096,23.641,7.425,23.451,19.185-.222,11.757-2.44,16.4-8.778,24.446-6.306,8.043,3.486,11.605,11.82,6.962,8.366-4.643,15.497-7.118,20.979-10.369,5.514-3.251,14.673-2.782,6.338,1.546-8.366,4.332-17.113,6.965-6.338,7.273,10.806.307,75.803,1.546,89.461-2.941,13.627-4.484,31.373-5.879,32.99-23.825,0,0,.602-7.97,5.704-11.294,5.102-3.327,8.556-10.984,1.109-5.802-7.415,5.184-13.12,7.815-14.546,6.268s-1.838-2.63,3.549-5.181c5.419-2.551,8.461-.155,13.468-7.656,4.975-7.504,4.5-6.268,1.838-9.127-2.662-2.865-8.271-4.95-5.514-8.588,2.757-3.635,5.514-14.463-6.433-8.119-11.916,6.341-35.366,22.69-46.236,25.27-10.87,2.58-19.141,5.932-33.814,8.949-14.673,3.014-23.768,6.211-39.391,14.98-15.623,8.765-14.514-4.842-11.82-6.702,0,0,5.989,10.623,21.866-3.201,15.909-13.823,10.711-.865,49.595-13.823,38.852-12.958,29.313-15.059,44.525-23.102,15.211-8.046,29.63-8.353,19.014-19.081-10.584-10.727-11.82-11.656-25.511,0-13.722,11.656-51.623,30.426-74.313,30.942,0,0,87.623-38.37,78.655-43.938-8.968-5.571-18.602-10.521-24.718-11.862-6.116-1.344-7.764-2.89-21.866,3.505-14.134,6.395-16.447,7.945-20.503,8.353-4.088.409-15.909,2.782-32.609,11.551-16.701,8.765-25.669,12.27-36.824,19.185,0,0,7.764-15.883,42.243-26.404,34.511-10.518,52.162-20.215,48.359-21.968s-12.359-3.198-18.887-2.168c-6.497,1.03-4.595-.513-25.669,7.945-21.042,8.458-12.074,6.601-29.06,10.312-16.986,3.714-23.894,7.53-32.324,11.142,0,0,3.454-4.646,14.862-8.899,5.894-2.18-6.401-4.43,9.887-5.102,1.331-.054,2.979.336,4.595-.13,21.074-6.138,44.145-14.546,40.595-15.164-3.518-.618-24.021-2.782-44.81,6.912-20.789,9.694-11.282,6.392-18.602,7.942-7.352,1.546-22.817,11.45-27.982,15.677-5.166,4.224-12.359,7.422-12.359,7.422h0Z"/>
        <path class="cls-8" d="M2797.343,978.427s7.973,2.25,9.963,7.523c1.987,5.273,6.972-2.32,6.772-4.709-.2-2.393-5.08-12.939-13.747-8.018s-4.319,4.747-2.988,5.204Z"/>
        <path class="cls-5" d="M2776.148,1092.354s17.198-8.141,31.627-7.133c0,0-5.641-20.488,4.43-16.995,10.071,3.492,7.254,2.126,9.266,1.971,0,0,.605-13.506-2.015-18.818,0,0,10.274,2.427,20.748,2.58,0,0-9.868-19.423,1.008-32.777,0,0,5.974,12.746,19.404,15.934,0,0,.067-5.463,0-11.228,0,0,7.995-.913,14.238,2.427,6.246,3.337,11.485-35.208-7.051-43.707,0,0-4.43,7.282-21.755,10.927-17.325,3.641-17.185,7.143-24.306,20.269-7.124,13.123-13.367,13.272-27.871,22.681-14.505,9.406-23.321,28.528-24.151,30.198.006,0,7.637,9.406,6.43,23.673h0Z"/>
        <path class="cls-10" d="M3361.944,866.21c6.37-1.135-6.401-4.43,9.887-5.102,1.331-.054,2.979.336,4.595-.133,21.074-6.135,44.145-14.543,40.595-15.161-3.518-.618-24.021-2.782-44.81,6.912-20.789,9.694-11.282,6.392-18.602,7.942-7.352,1.546-22.817,11.45-27.982,15.677-5.166,4.227-12.359,7.425-12.359,7.425,0,0-17.113,4.947-1.236,15.623,15.909,10.676,23.641,19.958,35.239,23.055,11.63,3.093,23.641,7.422,23.451,19.185-.222,11.757-2.44,16.397-8.778,24.443-6.306,8.043,3.486,11.602,11.82,6.962,8.366-4.643,15.497-7.118,20.979-10.366,5.514-3.251,14.673-2.786,6.338,1.543-8.366,4.332-17.113,6.965-6.338,7.273,10.806.307,75.803,1.546,89.461-2.941,13.627-4.484,31.373-5.875,32.99-23.825,0,0,.602-7.967,5.704-11.291,5.102-3.327,8.556-10.984,1.109-5.802-7.415,5.181-13.12,7.812-14.546,6.265-1.426-1.543-1.838-2.63,3.549-5.181,5.419-2.551,8.461-.155,13.468-7.656,4.975-7.504,4.5-6.265,1.838-9.127-1.363-1.467-3.518-2.732-4.912-4.107,0,0-3.898-3.473-8.461-.532-4.532,2.938-24.496,11.497-32.514,12.48-8.018.979-16.289,4.433-30.708,11.548-14.387,7.118-38.282,21.61-42.085,8.148,0,0-10.426,3.774-12.708,4.95-16.067,8.303-14.641-3.48-11.82-6.702,0,0-8.43,9.589-8.081.875.349-8.718,5.767-7.222,15.148-10.005,9.38-2.782,24.18-8.975,18.063-14.131s-12.581,5.121-19.363,8.258c-6.782,3.14-20.377,5.923-22.468-4.082-2.123-10.005-2.06-16.967-20.44-18.048-18.412-1.084-17.746-12.739-12.708-17.743,5.039-5.004,9.444-13.563,26.683-16.628Z"/>
        <path class="cls-3" d="M3421.679,955.512s28.331-13.018,54.412-19.125c26.049-6.11,5.641.799,1.204,2.202-4.437,1.401-45,14.717-54.539,19.125s-7.574.637-1.077-2.202h0ZM3428.271,961.22s31.817-10.512,37.743-6.107c5.894,4.405,1.077,2.199-5.926,3.204-6.972,1.001-26.176,4.208-31.278,4.104-5.134-.098-.539-1.201-.539-1.201ZM3479.292,950.207s6.053-1.103,6.718,1.103c.697,2.202-2.662,2.504-6.021,2.104-3.359-.403-6.338-2.307-.697-3.207Z"/>
        <path class="cls-7" d="M2627.138,1230.922s-1.201-28.005,13.059-42.208c14.264-14.204,83.551-85.63,94.148-105.598,0,0,8.965,6.173,9.374,17.509,0,0,11.614-19.819,20.786-27.285,0,0,8.151,8.246,6.725,24.715,0,0,16.71-8.765,42.592-8.914,0,0-9.577,11.183-9.982,17.68,0,0,35.867-3.933,54.612-.909,0,0-49.316,27.349-35.458,29.767,13.855,2.415,28.325-.152,28.325-.152,0,0-15.69,15.864-40.757,19.036,0,0,31.788-.453,38.107,6.649,0,0-30.977,4.684-55.838,23.419,0,0-2.323-1.055-2.488-8.011,0,0-.77,6.195-7.904,12.09-7.133,5.894-24.253,18.434-30.571,24.779-6.316,6.348-18.136,18.884-30.771,18.282,0,0,2.849-9.669-6.522-12.689-9.374-3.023-20.174-.906-27.716,7.102,0,0-33.42.453-44.014,1.962,0,0,7.539-11.934,14.467-11.633,6.931.301,34.846,4.078,37.29-14.806,2.446-18.887-17.933-13.899-10.188-25.08,7.745-11.183,5.91-10.73,6.113-11.789,0,0-6.316,3.476-9.982,13.449-3.666,9.973-6.319,17.677-19.566,27.65-13.246,9.973-18.732,16.01-22.399,22.959.006.009-6.034.84-11.44,2.028h0Z"/>
        <path class="cls-7" d="M2658.803,1215.736s1.112-4.104,11.123-5.834c10.008-1.73,10.426-6.699,9.174-8.864-1.252-2.161-7.232-2.158,2.503-13.614,0,0,3.476.973,5.841,3.784,2.364,2.808,13.345,27.231-28.642,24.528Z"/>
        <path class="cls-10" d="M2633.761,1194.427c.513,18.694,25.422,11.748,25.422,11.748-8.873,6.633-14.299,11.529-18.025,16.108,1.648-9.082-14.045-11.355-14.045-11.355,1.293-5.552,3.356-11.427,6.649-16.501ZM2725.352,1094.534c3.606-4.639,6.338-8.541,7.865-11.399,0,0,9.047,6.183,9.459,17.537,0,0,11.722-19.854,20.976-27.333,0,0,8.227,8.262,6.785,24.759,0,0,16.862-8.781,42.978-8.93,0,0-9.665,11.202-10.074,17.708,0,0,36.193-3.936,55.109-.909,0,0-49.763,27.399-35.781,29.82,13.985,2.421,28.585-.155,28.585-.155,0,0-15.836,15.896-41.131,19.074,0,0,32.08-.456,38.456,6.658,0,0-9.136,1.372-21.489,5.596,0,0-9.222-8.521-35.956-7.311,0,0,20.795-11.443,37.287-15.138,0,0-7.267-9.383-18.643-.805,0,0-22.62-15.338-3.977-28.356,0,0-13.161-2.722-21.796,3.331,0,0,.412-10.493,10.008-15.237,0,0-25.365-4.037-31.668,14.327,0,0-4.798-7.568-2.605-16.146,0,0-15.354,8.686-22.348,18.523.009.003-2.307-18.653-12.039-25.615M2676.198,1213.166c-4.551,1.1-10.645,1.572-18.726,1.081,0,0,.694-2.418,5.92-4.221,0,0,1.496,3.068,12.806,3.14"/>
        <path class="cls-3" d="M2722.183,1141.451s11.57,8.87,15.699,14.283c0,0,10.537-7.219,14.46-13.079,0,0,8.265,5.261,11.155,13.079,0,0,5.787-3.911,7.026-9.32,0,0,14.587,3.007,19.378,7.666,0,0,2.231-13.684,0-22.253,0,0,10.166.751,16.365,3.308,0,0-5.764-9.022,23.663-20.599,0,0-22.253,4.646-30.689,14.134,0,0-9.504.453-13.636-2.405,0,0,.618,13.833.206,20.446,0,0-5.733-2.256-16.916-4.807,0,0-2.709,4.51-4.57,5.558,0,0-7.023-5.413-10.122-12.328,0,0-10.746,9.491-14.872,13.532,0,0-10.122-6.915-17.148-7.216h0Z"/>
        <path class="cls-1" d="M2655.634,1285.426s4.582,2.13,15.414-6.389c10.835-8.518,41.457-27.526,44.373-42.737,2.915-15.211-9.789-16.121-19.794-11.713-9.998,4.411-5.831,12.93-5.416,15.664.418,2.738.627,13.386-15.623,28.138-16.248,14.758-18.954,17.037-18.954,17.037h0Z"/>
        <path class="cls-1" d="M2651.777,1291.13s-24.129-10.017-2.453-20.795c21.673-10.778,31.288-13.658,33.74-22.617,2.456-8.956,1.024-7.438-6.953-3.641-7.976,3.793-38.649,17.455-43.352,4.706,0,0,12.679,4.855,28.423-2.732,15.747-7.587,28.632-9.865,18.612-13.053-10.02-3.188-46.217.757-52.146,2.427-5.932,1.67-4.5,1.366-5.524,7.282-1.02,5.923-7.771,18.368-10.223,22.009-2.456,3.644-8.385,18.824,2.662,25.501,11.038,6.68,28.543,6.221,37.214.913Z"/>
        <path class="cls-3" d="M2644.114,1238.179s-5.162.488-4.208,1.848c.957,1.359,2.304,1.166,4.208,1.261,1.908.098,4.776-.678,5.153-1.553.383-.875-3.236-1.844-5.153-1.556h0Z"/>
        <path class="cls-7" d="M2650.833,1285.663s-11.488-5.378,1.436-12.245c12.923-6.867,26.87-13.44,28.718-16.276,0-.003-6.154,8.509-30.153,28.521Z"/>
      </g>
    </g>
  </g>
</svg>