<?xml version="1.0" encoding="UTF-8"?>
<svg xmlns="http://www.w3.org/2000/svg" viewBox="0 0 3600.1 2401.738">
  <defs>
    <style>
      .cls-1 {
        fill: #fff;
      }

      .cls-1, .cls-2, .cls-3, .cls-4, .cls-5, .cls-6 {
        stroke-width: 0px;
      }

      .cls-2 {
        fill: #00247d;
      }

      .cls-2, .cls-5, .cls-6 {
        fill-rule: evenodd;
      }

      .cls-3, .cls-6 {
        fill: #eee;
      }

      .cls-4, .cls-5 {
        fill: #cf1b2b;
      }
    </style>
  </defs>
  <g id="background">
    <path id="gb" class="cls-2" d="M400,.1h2800c220,0,400,180,400,400v1600c0,220-180,400-400,400H400C180,2400.1,0,2220.1,0,2000.1V400.1C0,180.1,180,.1,400,.1Z"/>
  </g>
  <g id="country">
    <g id="au">
      <g>
        <path id="d" class="cls-1" d="M2805,1200.1l19.593,48.033,51.736,3.791-39.628,33.477,12.382,50.376-44.084-27.343-44.084,27.343,12.382-50.376-39.628-33.477,51.736-3.791,19.593-48.033Z"/>
        <path id="c" class="cls-1" d="M3025,839.029l24.793,77.088,75.728-28.679-44.81,67.447,69.638,41.325-80.672,7.018,11.109,80.211-55.785-58.696-55.785,58.696,11.109-80.211-80.672-7.018,69.638-41.325-44.811-67.447,75.728,28.679,24.793-77.088Z"/>
        <path id="c-2" data-name="c" class="cls-1" d="M2625,471.529l24.793,77.088,75.728-28.679-44.81,67.447,69.638,41.325-80.672,7.018,11.109,80.211-55.785-58.696-55.785,58.696,11.109-80.211-80.672-7.018,69.638-41.325-44.811-67.447,75.728,28.679,24.793-77.088Z"/>
        <path id="c-3" data-name="c" class="cls-1" d="M2175,959.029l24.793,77.088,75.728-28.679-44.81,67.447,69.638,41.325-80.672,7.018,11.109,80.211-55.785-58.696-55.785,58.696,11.109-80.211-80.672-7.018,69.638-41.325-44.811-67.447,75.728,28.679,24.793-77.088Z"/>
        <path id="c-4" data-name="c" class="cls-1" d="M2625,1671.529l24.793,77.088,75.728-28.679-44.81,67.447,69.638,41.325-80.672,7.018,11.109,80.211-55.785-58.696-55.785,58.696,11.109-80.211-80.672-7.018,69.638-41.325-44.811-67.447,75.728,28.679,24.793-77.088Z"/>
      </g>
      <path id="c-5" data-name="c" class="cls-1" d="M800,1380.1l52.066,161.884,159.028-60.226-94.102,141.64,146.239,86.782-169.411,14.738,23.329,168.442-117.149-123.261-117.148,123.262,23.329-168.442-169.411-14.738,146.239-86.783-94.103-141.64,159.028,60.226,52.066-161.884Z"/>
    </g>
    <g id="mini-gb">
      <path class="cls-2" d="M1600,.1v1200H0V400.1C0,180.1,180,.1,400,.1h1200Z"/>
      <path id="Path" class="cls-6" d="M1534.9.1h65.1v255.8l-545.5,354.3,545.5,354.2v235.7h-96l-679-440.9-679,440.9H0v-203.2l595.5-386.7L31.6,243.9C65.5,164.1,124.5,97.6,198.7,54.3l626.3,406.7L1534.9.1Z"/>
      <path id="Path-2" class="cls-5" d="M0,1189.3v-119.2l708.2-460L60,189.3c17.8-28.7,39.2-54.9,63.4-78.2l676.6,439.4L1600,31.1v119.3l-708.2,459.7,708.2,460v119.2l-800-519.5L0,1189.3Z"/>
      <polygon id="Shape" class="cls-3" points="1000 400.1 1600 400.1 1600 800.1 1000 800.1 1000 1200.1 600 1200.1 600 800.1 0 800.1 0 400.1 600 400.1 600 .1 1000 .1 1000 400.1"/>
      <polygon id="Shape-2" class="cls-4" points="900 500.1 900 .1 700 .1 700 500.1 0 500.1 0 700.1 700 700.1 700 1200.1 900 1200.1 900 700.1 1600 700.1 1600 500.1 900 500.1"/>
    </g>
  </g>
</svg>