<?xml version="1.0" encoding="UTF-8"?>
<svg xmlns="http://www.w3.org/2000/svg" viewBox="0 0 3600.1 2401.738">
  <defs>
    <style>
      .cls-1 {
        fill: #006aa7;
        fill-rule: evenodd;
      }

      .cls-1, .cls-2, .cls-3 {
        stroke-width: 0px;
      }

      .cls-2 {
        fill: #d21034;
      }

      .cls-3 {
        fill: #fecc00;
      }
    </style>
  </defs>
  <g id="background">
    <path id="se" class="cls-1" d="M400,.1h2800c220,0,400,180,400,400v1600c0,220-180,400-400,400H400C180,2400.1,0,2220.1,0,2000.1V400.1C0,180.1,180,.1,400,.1Z"/>
  </g>
  <g id="country">
    <g id="ax">
      <polygon id="Path" class="cls-3" points="1600 900.1 3600 900.1 3600 1500.1 1600 1500.1 1600 2400.1 1000 2400.1 1000 1500.1 0 1500.1 0 900.1 1000 900.1 1000 .1 1600 .1 1600 900.1"/>
      <polygon id="Path-2" data-name="Path" class="cls-2" points="1450 1050.1 3600 1050.1 3600 1350.1 1450 1350.1 1450 2400.1 1150 2400.1 1150 1350.1 0 1350.1 0 1050.1 1150 1050.1 1150 .1 1450 .1 1450 1050.1"/>
    </g>
  </g>
</svg>