<?xml version="1.0" encoding="UTF-8"?>
<svg xmlns="http://www.w3.org/2000/svg" viewBox="0 0 3600.1 2401.738">
  <defs>
    <style>
      .cls-1 {
        fill: #00ae65;
      }

      .cls-1, .cls-2, .cls-3, .cls-4 {
        fill-rule: evenodd;
        stroke-width: 0px;
      }

      .cls-2 {
        fill: #e00034;
      }

      .cls-3 {
        fill: #fff;
      }

      .cls-4 {
        fill: #0098c3;
      }
    </style>
  </defs>
  <g id="background">
    <path id="az" class="cls-2" d="M400,.1h2800c220,0,400,180,400,400v1600c0,220-180,400-400,400H400C180,2400.1,0,2220.1,0,2000.1V400.1C0,180.1,180,.1,400,.1Z"/>
  </g>
  <g id="country">
    <g id="az-2" data-name="az">
      <g>
        <path class="cls-3" d="M2078.873,1200.1c0,198.355-160.8,359.155-359.155,359.155s-359.155-160.8-359.155-359.155,160.8-359.155,359.155-359.155,359.155,160.8,359.155,359.155Z"/>
        <path class="cls-2" d="M2100,1200.1c0,165.685-134.316,300-300,300s-300-134.315-300-300,134.316-300,300-300,300,134.315,300,300Z"/>
        <path class="cls-3" d="M2119.014,1001.508l38.404,106.855,103.513-48.689-49.204,102.427,107.992,37.999-107.991,37.999,49.204,102.427-103.513-48.689-38.404,106.855-38.404-106.855-103.513,48.689,49.204-102.427-107.992-37.999,107.991-37.999-49.204-102.427,103.513,48.689,38.404-106.855Z"/>
      </g>
      <path class="cls-1" d="M0,1600.1h3600v400c0,220-180,400-400,400H400C180,2400.1,0,2220.1,0,2000.1v-400Z"/>
      <path class="cls-4" d="M400,.1h2800c220,0,400,180,400,400v400H0v-400C0,180.1,180,.1,400,.1Z"/>
    </g>
  </g>
</svg>