<?xml version="1.0" encoding="UTF-8"?>
<svg xmlns="http://www.w3.org/2000/svg" viewBox="0 0 3600.1 2401.738">
  <defs>
    <style>
      .cls-1 {
        fill: #2d3189;
      }

      .cls-1, .cls-2, .cls-3 {
        stroke-width: 0px;
      }

      .cls-1, .cls-3 {
        fill-rule: evenodd;
      }

      .cls-2 {
        fill: #fbd116;
      }

      .cls-3 {
        fill: #eee;
      }
    </style>
  </defs>
  <g id="background">
    <path id="bg" class="cls-3" d="M400,.1h2800c220,0,400,180,400,400v1600c0,220-180,400-400,400H400C180,2400.1,0,2220.1,0,2000.1V400.1C0,180.1,180,.1,400,.1Z"/>
  </g>
  <g id="country">
    <g id="ba">
      <path class="cls-1" d="M3200,.1H809c-15.1,10.9-25.8,18.7-48.8,35.4l37.2,114.6-97.5-70.8c-46,33.4-97.5,70.8-97.5,70.8l37.2-114.6L590.8.1h-191C179.1.1,0,179.2,0,400.1v1600C0,2221,179.1,2400.1,400,2400.1h1791l-48.7-35.4h120.5l37.2-114.6,37.2,114.6h120.5s-33.6,24.4-48.7,35.4h791c220.9,0,400-179.1,400-400V400.1C3600,179.2,3420.9.1,3200,.1ZM742.3,264.7h120.5l37.2-114.6,37.2,114.6h120.5s-51.4,37.4-97.5,70.8l37.2,114.6-97.5-70.8c-46,33.4-97.5,70.8-97.5,70.8l37.2-114.6-97.5-70.8h.2ZM942.3,564.7h120.5l37.2-114.6,37.2,114.6h120.5s-51.4,37.4-97.5,70.8l37.2,114.6-97.5-70.8c-46,33.4-97.5,70.8-97.5,70.8l37.2-114.6-97.5-70.8h.2ZM1142.3,864.7h120.5l37.2-114.6,37.2,114.6h120.5s-51.4,37.4-97.5,70.8l37.2,114.6-97.5-70.8c-46,33.4-97.5,70.8-97.5,70.8l37.2-114.6-97.5-70.8h.2ZM1342.3,1164.7h120.5l37.2-114.6,37.2,114.6h120.5s-51.4,37.4-97.5,70.8l37.2,114.6-97.5-70.8c-46,33.4-97.5,70.8-97.5,70.8l37.2-114.6-97.5-70.8h.2ZM1542.3,1464.7h120.5l37.2-114.6,37.2,114.6h120.5s-51.4,37.4-97.5,70.8l37.2,114.6-97.5-70.8c-46,33.4-97.5,70.8-97.5,70.8l37.2-114.6-97.5-70.8h.2ZM1742.3,1764.7h120.5l37.2-114.6,37.2,114.6h120.5s-51.4,37.4-97.5,70.8l37.2,114.6-97.5-70.8c-46,33.4-97.5,70.8-97.5,70.8l37.2-114.6-97.5-70.8h.2ZM2197.5,2250.1l-97.5-70.8c-46,33.4-97.5,70.8-97.5,70.8l37.2-114.6-97.5-70.8h120.5l37.2-114.6,37.2,114.6h120.5s-51.4,37.4-97.5,70.8l37.2,114.6h.2Z"/>
      <polygon id="Shape" class="cls-2" points="1100 .1 2700 .1 2700 2400.1 1100 .1"/>
    </g>
  </g>
</svg>