<?xml version="1.0" encoding="UTF-8"?>
<svg xmlns="http://www.w3.org/2000/svg" viewBox="0 0 3600.1 2401.738">
  <defs>
    <style>
      .cls-1 {
        fill: #00267f;
      }

      .cls-1, .cls-2, .cls-3 {
        stroke-width: 0px;
      }

      .cls-1, .cls-3 {
        fill-rule: evenodd;
      }

      .cls-3 {
        fill: #ffc726;
      }
    </style>
  </defs>
  <g id="background">
    <path id="bb" class="cls-3" d="M400,.1h2800c220,0,400,180,400,400v1600c0,220-180,400-400,400H400C180,2400.1,0,2220.1,0,2000.1V400.1C0,180.1,180,.1,400,.1Z"/>
  </g>
  <g id="country">
    <g id="bb-2" data-name="bb">
      <path id="a" class="cls-2" d="M1800,618.7c-39,106.35-78.75,217.05-163.8,301.8,26.4-8.7,72.6-16.5,102.3-15.75v447.3l-126.3,18.75c-4.5-.45-6-7.5-6-17.1-12.15-138.9-45-255.6-82.8-376.35-2.7-16.5-50.55-79.5-13.65-68.4,4.5.6,53.85,20.7,46.05,11.1-67.2-69.6-165.45-119.7-260.85-134.55-8.4-2.1-13.35,2.1-5.85,11.85,126.6,194.85,232.5,424.8,231.6,697.65,49.2,0,168.45-29.1,217.8-29.1v315.6h62.25l14.25-881.4-15-281.4Z"/>
      <path id="a-2" data-name="a" class="cls-2" d="M1800,618.7c39,106.35,78.75,217.05,163.8,301.8-26.4-8.7-72.6-16.5-102.3-15.75v447.3l126.3,18.75c4.5-.45,6-7.5,6-17.1,12.15-138.9,45-255.6,82.8-376.35,2.7-16.5,50.55-79.5,13.65-68.4-4.5.6-53.85,20.7-46.05,11.1,67.2-69.6,165.45-119.7,260.85-134.55,8.4-2.1,13.35,2.1,5.85,11.85-126.6,194.85-232.5,424.8-231.6,697.65-49.2,0-168.45-29.1-217.8-29.1v315.6h-62.25l-14.25-881.4,15-281.4Z"/>
      <path class="cls-1" d="M400,.1h800v2400H400C180,2400.1,0,2220.1,0,2000.1V400.1C0,180.1,180,.1,400,.1Z"/>
      <path class="cls-1" d="M2400,.1h800c220,0,400,180,400,400v1600c0,220-180,400-400,400h-800V.1Z"/>
    </g>
  </g>
</svg>