<?xml version="1.0" encoding="UTF-8"?>
<svg xmlns="http://www.w3.org/2000/svg" viewBox="0 0 3600.1 2401.738">
  <defs>
    <style>
      .cls-1 {
        fill: #009e49;
      }

      .cls-1, .cls-2 {
        fill-rule: evenodd;
      }

      .cls-1, .cls-2, .cls-3 {
        stroke-width: 0px;
      }

      .cls-2 {
        fill: #ef2b2d;
      }

      .cls-3 {
        fill: #fcd116;
      }
    </style>
  </defs>
  <g id="background">
    <path id="bf" class="cls-2" d="M400,.1h2800c220,0,400,180,400,400v1600c0,220-180,400-400,400H400C180,2400.1,0,2220.1,0,2000.1V400.1C0,180.1,180,.1,400,.1Z"/>
  </g>
  <g id="country">
    <g id="bf-2" data-name="bf">
      <path class="cls-1" d="M400,2400.1h2800c220,0,400-180,400-400v-800H0v800C0,2220.1,180,2400.1,400,2400.1Z"/>
      <path class="cls-3" d="M1800,800.1l89.808,276.4h290.616l-235.12,170.816,89.808,276.392-235.112-170.824-235.12,170.824,89.808-276.4-235.112-170.816h290.616l89.808-276.392Z"/>
    </g>
  </g>
</svg>