<?xml version="1.0" encoding="UTF-8"?>
<svg xmlns="http://www.w3.org/2000/svg" viewBox="0 0 3600.1 2401.738">
  <defs>
    <style>
      .cls-1 {
        fill: #ce1126;
      }

      .cls-1, .cls-2 {
        fill-rule: evenodd;
        stroke-width: 0px;
      }

      .cls-2 {
        fill: #eee;
      }
    </style>
  </defs>
  <g id="background">
    <path id="bg" class="cls-2" d="M400,.1h2800c220,0,400,180,400,400v1600c0,220-180,400-400,400H400C180,2400.1,0,2220.1,0,2000.1V400.1C0,180.1,180,.1,400,.1Z"/>
  </g>
  <g id="country">
    <g id="bh">
      <path class="cls-1" d="M1399.531,242.915l-598.944,239.296,598.944,239.296-598.944,239.296,598.944,239.296-598.944,239.296,598.944,239.296-598.944,239.296,598.944,239.296-598.944,239.296h2452.332c195.226-26.096,347.082-194.412,347.082-396.481V400.1c0-202.069-151.856-370.385-347.082-396.481H800.587l598.944,239.296Z"/>
    </g>
  </g>
</svg>