<?xml version="1.0" encoding="UTF-8"?>
<svg xmlns="http://www.w3.org/2000/svg" viewBox="0 0 3600.1 2401.738">
  <defs>
    <style>
      .cls-1, .cls-2, .cls-3, .cls-4, .cls-5, .cls-6 {
        stroke-width: 0px;
      }

      .cls-1, .cls-6 {
        fill: #fff;
      }

      .cls-2, .cls-3 {
        fill: #1eb53a;
      }

      .cls-3, .cls-4, .cls-6 {
        fill-rule: evenodd;
      }

      .cls-4, .cls-5 {
        fill: #ce1126;
      }
    </style>
  </defs>
  <g id="background">
    <path id="bi" class="cls-4" d="M400,.1h2800c220,0,400,180,400,400v1600c0,220-180,400-400,400H400C180,2400.1,0,2220.1,0,2000.1V400.1C0,180.1,180,.1,400,.1Z"/>
  </g>
  <g id="country">
    <g id="bi-2" data-name="bi">
      <path id="Path" class="cls-3" d="M3452.771,90.073c89.856,73.35,147.229,184.988,147.229,310.027v1600c0,125.039-57.373,236.677-147.229,310.027l-1652.771-1010.027L147.229,2310.127C57.372,2236.777,0,2125.139,0,2000.1V400.1C0,275.061,57.372,163.423,147.229,90.073l1652.771,1010.027L3452.771,90.073h0Z"/>
      <path id="Path-2" data-name="Path" class="cls-6" d="M3353.101,30.446c90.639,37.583,164.466,107.531,207.064,195.429l-1505.62,974.225,1505.62,974.224c-42.598,87.898-116.425,157.847-207.064,195.429l-1553.101-1004.948L246.899,2369.754c-90.639-37.583-164.466-107.531-207.064-195.429l1505.62-974.224L39.835,225.875C82.433,137.978,156.26,68.029,246.899,30.446l1553.101,1004.948L3353.101,30.446h0Z"/>
      <circle class="cls-1" cx="1800" cy="1200.1" r="680"/>
      <g>
        <g>
          <path id="b" class="cls-5" d="M2146.8,1303.3h84l-42,72.8,42,72.8h-84l-42,72.8-42-72.8h-84l42-72.8-42-72.8h84l42-72.8,42,72.8Z"/>
          <path class="cls-2" d="M2104.8,1536.108l-46.158-80.008h-92.308l46.153-80-46.153-80h92.308l46.158-80.008,46.158,80.008h92.308l-46.153,80,46.153,80h-92.308l-46.158,80.008ZM1991.266,1441.7h75.692l37.842,65.592,37.842-65.592h75.692l-37.847-65.6,37.847-65.6h-75.692l-37.842-65.592-37.842,65.592h-75.692l37.847,65.6-37.847,65.6Z"/>
        </g>
        <g>
          <path id="b-2" data-name="b" class="cls-5" d="M1537.2,1303.3h84l-42,72.8,42,72.8h-84l-42,72.8-42-72.8h-84l42-72.8-42-72.8h84l42-72.8,42,72.8Z"/>
          <path class="cls-2" d="M1495.2,1536.108l-46.159-80.008h-92.308l46.154-80-46.154-80h92.308l46.159-80.008,46.159,80.008h92.308l-46.154,80,46.154,80h-92.308l-46.159,80.008ZM1381.667,1441.7h75.692l37.842,65.592,37.842-65.592h75.692l-37.846-65.6,37.846-65.6h-75.692l-37.842-65.592-37.842,65.592h-75.692l37.846,65.6-37.846,65.6Z"/>
        </g>
        <g>
          <path id="b-3" data-name="b" class="cls-5" d="M1842,775.3h84l-42,72.8,42,72.8h-84l-42,72.8-42-72.8h-84l42-72.8-42-72.8h84l42-72.8,42,72.8Z"/>
          <path class="cls-2" d="M1800,1008.108l-46.159-80.008h-92.308l46.154-80-46.154-80h92.308l46.159-80.008,46.158,80.008h92.308l-46.153,80,46.153,80h-92.308l-46.158,80.008ZM1686.466,913.7h75.692l37.842,65.592,37.842-65.592h75.692l-37.847-65.6,37.847-65.6h-75.692l-37.842-65.592-37.842,65.592h-75.692l37.846,65.6-37.846,65.6Z"/>
        </g>
      </g>
    </g>
  </g>
</svg>