<?xml version="1.0" encoding="UTF-8"?>
<svg xmlns="http://www.w3.org/2000/svg" viewBox="0 0 3600.1 2401.738">
  <defs>
    <style>
      .cls-1 {
        fill: #cf1e45;
      }

      .cls-1, .cls-2, .cls-3, .cls-4, .cls-5, .cls-6, .cls-7, .cls-8, .cls-9, .cls-10, .cls-11, .cls-12, .cls-13, .cls-14, .cls-15, .cls-16 {
        stroke-width: 0px;
      }

      .cls-2 {
        fill: #666;
      }

      .cls-3 {
        fill: #f9c;
      }

      .cls-4 {
        fill: #faf8f0;
      }

      .cls-17 {
        stroke: #221b0f;
      }

      .cls-17, .cls-18, .cls-19, .cls-20, .cls-21, .cls-22, .cls-23, .cls-24, .cls-25, .cls-26, .cls-27 {
        stroke-width: 3.84px;
      }

      .cls-17, .cls-18, .cls-28, .cls-29, .cls-21, .cls-30, .cls-22, .cls-23, .cls-24, .cls-31, .cls-25, .cls-32, .cls-26, .cls-27 {
        stroke-miterlimit: 1.92;
      }

      .cls-17, .cls-18, .cls-29, .cls-20, .cls-21, .cls-22, .cls-23 {
        fill: none;
      }

      .cls-18, .cls-20, .cls-31 {
        stroke: #9e7800;
      }

      .cls-19 {
        stroke-miterlimit: 4.8;
      }

      .cls-19, .cls-21, .cls-25, .cls-32 {
        stroke: #806600;
      }

      .cls-19, .cls-13, .cls-25, .cls-32, .cls-26 {
        fill: #eace24;
      }

      .cls-5 {
        fill: #f6e4be;
      }

      .cls-28 {
        fill: #1353b4;
      }

      .cls-28, .cls-29 {
        stroke: #540;
      }

      .cls-28, .cls-29, .cls-32 {
        stroke-width: 7.68px;
      }

      .cls-7 {
        fill: #ce0f25;
      }

      .cls-20 {
        stroke-linejoin: round;
      }

      .cls-8 {
        fill: red;
      }

      .cls-30 {
        stroke-width: 3.091px;
      }

      .cls-30, .cls-10, .cls-27 {
        fill: #fff;
      }

      .cls-30, .cls-22, .cls-26, .cls-27 {
        stroke: #000;
      }

      .cls-9, .cls-31 {
        fill: #ccc;
      }

      .cls-11 {
        fill: #806600;
      }

      .cls-23, .cls-24 {
        stroke: #520;
      }

      .cls-12 {
        fill: #ba0028;
      }

      .cls-24 {
        fill: #5e520e;
      }

      .cls-14 {
        fill: #ff8080;
      }

      .cls-31 {
        stroke-width: 1.92px;
      }

      .cls-15 {
        fill: #ff083c;
      }

      .cls-16 {
        fill: #eee;
        fill-rule: evenodd;
      }
    </style>
  </defs>
  <g id="background">
    <path id="bg" class="cls-16" d="M400,.1h2800c220,0,400,180,400,400v1600c0,220-180,400-400,400H400C180,2400.1,0,2220.1,0,2000.1V400.1C0,180.1,180,.1,400,.1Z"/>
  </g>
  <g id="country">
    <g id="bl">
      <g>
        <path class="cls-7" d="M2530.748,1514.404c41.222,96.937,23.505,173.372,0,247.795,59.439-21.539,185.699-80.694,170.569-154.468-26.473-64.581-108.86-80.402-170.569-93.327"/>
        <path class="cls-17" d="M2530.748,1514.404c41.222,96.937,23.505,173.372,0,247.795,59.439-21.539,185.699-80.694,170.569-154.468-26.473-64.581-108.86-80.402-170.569-93.327Z"/>
        <path class="cls-4" d="M2320.12,1934.058c37.463-12.104,63.191-25.897,125.222-34.502,25.567-3.544,94.449.618,134.385-11.808,38.458-11.981,60.722-23.351,61.82-42.647,1.954-34.583,13.171-74.193,26.73-110.15,19.338-51.31,42.82-92.675,46.445-106.537,3.421-13.071-2.458-26.173-11.121-38.189-33.761-46.825-109.425-80.974-176.847-80.893l2.865,11.478c51.909.941,154.537,39.825,160.708,91.834,9.304,78.332-255.529,90.205-402.643,119.286,0,0-37.931,9.431-50.857,22.771-9.154,9.431-13.82,33.853-4.297,42.9,67.277,63.928,87.591,136.458,87.591,136.458"/>
        <path class="cls-17" d="M2320.12,1934.058c37.463-12.104,63.191-25.897,125.222-34.502,25.567-3.544,94.449.618,134.385-11.808,38.458-11.981,60.722-23.351,61.82-42.647,1.954-34.583,13.171-74.193,26.73-110.15,19.338-51.31,42.82-92.675,46.445-106.537,3.421-13.071-2.458-26.173-11.121-38.189-33.761-46.825-109.425-80.974-176.847-80.893l2.865,11.478c51.909.941,154.537,39.825,160.708,91.834,9.304,78.332-255.529,90.205-402.643,119.286,0,0-37.931,9.431-50.857,22.771-9.154,9.431-13.82,33.853-4.297,42.9,67.277,63.928,87.591,136.458,87.591,136.458Z"/>
        <path class="cls-5" d="M2690.269,1661.161c-99.037,64.051-232.804,68.74-349.651,79.35l-74.396,75.633,68.198,100.439s75.971-24.922,115.308-31.004c27.802-4.289,59.036-.442,86.788-4.954,23.762-3.867,44.87-1.755,60.76-19.841,18.47-21.043,17.526-59.309,27.276-85.555,6.221-16.727,16.163-30.551,29.103-50.385,20.74-31.807,36.614-63.682,36.614-63.682"/>
        <path class="cls-7" d="M2284.247,1977.109c18.244-88.262-38.4-123.041-68.87-176.49,0,0,32.828,13.455,50.212,15.779,32.617,4.355,51.433,3.686,98.615-3.913,38.627-6.225,71.086-25.686,97.978-13.306,3.736,1.72,6.605,5.967,7.169,10.049,1.743,12.588-5.568,25.498-12.91,35.869-40.293,56.863-172.193,132.011-172.193,132.011"/>
        <path class="cls-17" d="M2284.247,1977.109c18.244-88.262-38.4-123.041-68.87-176.49,0,0,32.828,13.455,50.212,15.779,32.617,4.355,51.433,3.686,98.615-3.913,38.627-6.225,71.086-25.686,97.978-13.306,3.736,1.72,6.605,5.967,7.169,10.049,1.743,12.588-5.568,25.498-12.91,35.869-40.293,56.863-172.193,132.011-172.193,132.011Z"/>
        <path class="cls-7" d="M1068.941,1514.404c-41.226,96.937-23.505,173.372,0,247.795-59.439-21.539-185.702-80.694-170.561-154.468,26.473-64.581,108.852-80.402,170.561-93.327"/>
        <path class="cls-17" d="M1068.941,1514.404c-41.226,96.937-23.505,173.372,0,247.795-59.439-21.539-185.702-80.694-170.561-154.468,26.473-64.581,108.852-80.402,170.561-93.327Z"/>
        <path class="cls-4" d="M1279.565,1934.058c-37.467-12.104-63.187-25.897-125.215-34.502-25.574-3.544-94.449.618-134.385-11.808-38.461-11.981-60.733-23.351-61.824-42.647-1.958-34.583-13.175-74.193-26.73-110.15-19.35-51.31-42.831-92.675-46.449-106.537-3.418-13.071,2.458-26.173,11.128-38.189,33.761-46.825,109.436-80.974,176.847-80.893l-2.869,11.478c-51.901.941-154.529,39.825-160.708,91.834-9.304,78.332,255.529,90.205,402.647,119.286,0,0,37.924,9.431,50.857,22.771,9.155,9.431,13.82,33.853,4.289,42.9-67.265,63.928-87.59,136.458-87.59,136.458"/>
        <path class="cls-17" d="M1279.565,1934.058c-37.467-12.104-63.187-25.897-125.215-34.502-25.574-3.544-94.449.618-134.385-11.808-38.461-11.981-60.733-23.351-61.824-42.647-1.958-34.583-13.175-74.193-26.73-110.15-19.35-51.31-42.831-92.675-46.449-106.537-3.418-13.071,2.458-26.173,11.128-38.189,33.761-46.825,109.436-80.974,176.847-80.893l-2.869,11.478c-51.901.941-154.529,39.825-160.708,91.834-9.304,78.332,255.529,90.205,402.647,119.286,0,0,37.924,9.431,50.857,22.771,9.155,9.431,13.82,33.853,4.289,42.9-67.265,63.928-87.59,136.458-87.59,136.458Z"/>
        <path class="cls-5" d="M909.427,1661.161c99.034,64.051,232.8,68.74,349.647,79.35l74.389,75.633-68.195,100.439s-75.974-24.922-115.311-31.004c-27.798-4.289-59.021-.442-86.788-4.954-23.762-3.867-44.874-1.755-60.753-19.841-18.47-21.043-17.526-59.309-27.279-85.555-6.209-16.727-16.155-30.551-29.103-50.385-20.732-31.807-36.607-63.682-36.607-63.682"/>
        <path class="cls-7" d="M1315.434,1977.109c-18.236-88.262,38.4-123.041,68.882-176.49,0,0-32.832,13.455-50.227,15.779-32.602,4.355-51.421,3.686-98.607-3.913-38.619-6.225-71.09-25.686-97.974-13.306-3.74,1.72-6.612,5.967-7.177,10.049-1.743,12.588,5.568,25.498,12.91,35.869,40.305,56.863,172.193,132.011,172.193,132.011"/>
        <path class="cls-17" d="M1315.434,1977.109c-18.236-88.262,38.4-123.041,68.882-176.49,0,0-32.832,13.455-50.227,15.779-32.602,4.355-51.421,3.686-98.607-3.913-38.619-6.225-71.09-25.686-97.974-13.306-3.74,1.72-6.612,5.967-7.177,10.049-1.743,12.588,5.568,25.498,12.91,35.869,40.305,56.863,172.193,132.011,172.193,132.011Z"/>
        <path class="cls-4" d="M1172.317,2085.942c-17.142-10.986-36.668-21.861-47.528-38.385-7.484-11.386-10.737-27.03-7.311-40.22,20.029-77.161,15.767-118.479,1.882-176.905-4.481-18.881-9.055-47.389,14.569-46.118,60.595,3.268,128.529,22.602,177.324,20.855,19.933-.726,49.728-4.689,52.285-26.423,3.037-25.816-63.253-48.749-63.253-48.749,39.402,4.524,72.008,20.828,83.198,43.884,4.547,9.373,2.438,22.644-3.433,31.261-11.555,16.984-33.539,21.585-53.891,24.311-40.543,5.472-109.267-5.645-148.128-13.102-17.576-3.371-23.72-6.136-26.788-3.729-7.688,6.056,2.807,18.286,27.276,41.165,49.501,46.291,107.201,83.989,166.748,116.379,162.159,88.193,286.172,116.371,454.583,116.371s292.412-28.174,454.579-116.371c59.543-32.39,117.239-70.091,166.744-116.379,24.469-22.875,34.975-35.109,27.264-41.165-3.049-2.404-9.197.361-26.78,3.729-38.861,7.461-107.585,18.574-148.132,13.106-20.337-2.726-42.332-7.331-53.887-24.311-5.871-8.617-7.976-21.888-3.421-31.261,11.19-23.055,43.784-39.36,83.19-43.88,0,0-66.286,22.936-63.249,48.749,2.554,21.734,32.348,25.701,52.282,26.423,48.803,1.747,116.721-17.587,177.327-20.855,23.624-1.271,19.054,27.233,14.561,46.118-13.886,58.426-18.156,99.744,1.886,176.905,3.418,13.19.161,28.834-7.315,40.22-10.856,16.527-30.378,27.398-47.531,38.385-199.3,127.791-423.302,193.406-627.517,193.406-204.222-.004-428.229-65.622-627.532-193.413"/>
        <path class="cls-17" d="M1172.317,2085.942c-17.142-10.986-36.668-21.861-47.528-38.385-7.484-11.386-10.737-27.03-7.311-40.22,20.029-77.161,15.767-118.479,1.882-176.905-4.481-18.881-9.055-47.389,14.569-46.118,60.595,3.268,128.529,22.602,177.324,20.855,19.933-.726,49.728-4.689,52.285-26.423,3.037-25.816-63.253-48.749-63.253-48.749,39.402,4.524,72.008,20.828,83.198,43.884,4.547,9.373,2.438,22.644-3.433,31.261-11.555,16.984-33.539,21.585-53.891,24.311-40.543,5.472-109.267-5.645-148.128-13.102-17.576-3.371-23.72-6.136-26.788-3.729-7.688,6.056,2.807,18.286,27.276,41.165,49.501,46.291,107.201,83.989,166.748,116.379,162.159,88.193,286.172,116.371,454.583,116.371s292.412-28.174,454.579-116.371c59.543-32.39,117.239-70.091,166.744-116.379,24.469-22.875,34.975-35.109,27.264-41.165-3.049-2.404-9.197.361-26.78,3.729-38.861,7.461-107.585,18.574-148.132,13.106-20.337-2.726-42.332-7.331-53.887-24.311-5.871-8.617-7.976-21.888-3.421-31.261,11.19-23.055,43.784-39.36,83.19-43.88,0,0-66.286,22.936-63.249,48.749,2.554,21.734,32.348,25.701,52.282,26.423,48.803,1.747,116.721-17.587,177.327-20.855,23.624-1.271,19.054,27.233,14.561,46.118-13.886,58.426-18.156,99.744,1.886,176.905,3.418,13.19.161,28.834-7.315,40.22-10.856,16.527-30.378,27.398-47.531,38.385-199.3,127.791-423.302,193.406-627.517,193.406-204.222-.004-428.229-65.622-627.532-193.413Z"/>
        <path class="cls-5" d="M2447.689,2056.067s13.436-13.402,15.917-24.757c6.186-28.358-8.183-57.623-8.843-86.642-.71-31.288,5.311-93.711,5.311-93.711-77.514,74.012-291.168,261.17-660.227,261.17-358.656,0-582.716-187.158-660.23-261.17,0,0,6.01,62.423,5.303,93.711-.653,29.015-15.034,58.283-8.836,86.642,2.477,11.359,15.909,24.76,15.909,24.76,203.224,130.545,420.33,210.413,647.854,210.413,227.516-.004,444.626-79.872,647.842-210.416"/>
      </g>
      <path class="cls-6" d="M1404.845,2114.078c7.035-20.183,29.783-41.522,66.052-28.892,30.102,10.487,42.885,34.13,33.462,61.167-9.416,27.03-36.211,41.664-66.916,30.973-34.698-12.085-39.878-42.355-32.598-63.249M1485.911,2144.821c9.212-26.442-.668-48.277-20.498-55.185-13.901-4.842-32.371-2.807-42.616,26.592-8.552,24.557-1.436,48.879,21.777,56.951,8.467,2.957,29.449,5.768,41.338-28.358"/>
      <path class="cls-6" d="M1528.838,2143.845c4.435-18.482,5.253-21.877,5.933-25.832.749-4.189.215-6.371-3.69-8.21-.941-.484-3.022-1.114-4.765-1.532-1.367-.326-2.058-.741-1.859-1.605.207-.845,1.137-.883,3.007-.422,6.601,1.574,14.35,3.825,18.086,4.719,2.991.722,10.921,2.239,15.402,3.299,1.87.449,2.684.906,2.481,1.751-.207.86-1.014.922-2.262.614-1.363-.315-2.139-.384-3.69-.491-3.514-.2-5.007,1.624-6.275,5.818-1.179,3.829-2.001,7.234-6.432,25.713l-4.086,17.015c-4.228,17.626-2.396,25.901,2.538,32.237,4.524,5.833,10.134,7.695,14.365,8.713,5.484,1.309,12.611,1.225,18.758-2.454,8.452-5.034,11.451-15.886,14.454-28.404l3.648-15.199c4.431-18.474,5.245-21.877,5.933-25.828.745-4.193.215-6.378-3.69-8.21-.941-.48-3.03-1.114-4.393-1.44-1.371-.33-2.062-.76-1.859-1.605.204-.856,1.133-.883,2.88-.461,6.348,1.521,14.104,3.767,14.227,3.798,1.494.365,9.427,1.878,14.285,3.034,1.743.419,2.554.868,2.35,1.72-.207.856-1.014.922-2.504.557-1.367-.326-2.147-.384-3.702-.499-3.502-.196-4.996,1.628-6.267,5.821-1.179,3.836-1.997,7.234-6.432,25.709l-3.122,13.01c-3.233,13.501-8.049,27.51-20.605,33.754-10.618,5.299-19.907,4.481-27.997,2.55-6.601-1.586-18.467-4.819-25.624-15.026-5.011-7.112-7.584-17.246-3.356-34.871l4.262-17.741Z"/>
      <path class="cls-6" d="M1640.175,2194.752c-.634-.096-.922.119-1.283.826l-9.277,15.971c-1.709,2.914-2.765,5.794-2.98,7.284-.323,2.223.588,3.994,4.516,4.562l1.901.269c1.521.215,1.862.518,1.763,1.263-.142.991-.941,1.129-2.331.926-4.055-.588-9.458-1.728-13.382-2.296-1.394-.2-8.413-.829-15.007-1.774-1.647-.234-2.373-.588-2.231-1.582.111-.745.649-.918,1.667-.772,1.137.169,2.934.303,3.959.319,5.944.096,8.951-3.767,12.372-9.589l42.816-72.158c2.035-3.375,2.991-4.623,4.251-4.439,1.144.161,1.743,1.386,2.607,4.416,2.062,7.242,15.233,59.643,20.651,79.619,3.218,11.831,6.643,14.085,9.212,15.087,1.847.641,3.732,1.037,5.257,1.252,1.014.146,1.628.365,1.501,1.233-.138.991-1.317,1.075-6.006.392-4.566-.653-13.816-1.978-23.919-3.682-2.262-.442-3.782-.66-3.656-1.532.104-.741.649-.918,1.935-.86.922-.119,1.97-1.106,1.548-2.68l-6.482-26.953c-.165-.649-.507-.96-1.144-1.041l-28.258-4.059ZM1666.909,2192.268c.637.096.822-.253.737-.649l-7.035-32.079c-.054-.514-.084-1.152-.472-1.21-.372-.054-.718.53-.918,1.018l-16.013,28.646c-.196.469-.127.864.384.937l23.317,3.337Z"/>
      <path class="cls-6" d="M1733.18,2220.761c-.096,9.754,1.451,13.06,3.978,14.031,2.147.822,4.573,1.037,6.62,1.106,1.405.061,2.17.342,2.139,1.083-.038.994-1.194,1.21-2.984,1.148-8.317-.303-13.421-.864-15.855-.945-1.152-.042-7.177.108-13.828-.131-1.667-.058-2.811-.219-2.769-1.348.023-.749.806-.975,2.081-.926,1.663.061,3.971.019,5.779-.419,3.364-.883,4.005-4.481,4.527-15.345l3.805-73.54c.092-2.496.538-4.228,1.812-4.182,1.405.054,2.508,1.713,4.593,4.032,1.478,1.693,20.202,22.372,38.227,41.161,8.394,8.813,25.018,27.421,27.122,29.503l.641.019.741-56.137c.15-7.622-.918-10.038-3.94-11.401-1.893-.81-4.961-.929-6.747-.994-1.54-.05-2.039-.442-2.012-1.194.038-.998,1.451-1.075,3.371-.998,6.647.242,12.783.841,15.456.937,1.413.054,6.294-.15,12.557.065,1.67.058,2.949.23,2.907,1.233-.027.745-.81,1.098-2.342,1.037-1.283-.046-2.308-.084-3.859.242-3.621.868-4.731,3.46-5.119,10.449l-4.251,78.77c-.1,2.749-.641,3.859-1.801,3.817-1.405-.05-2.895-1.482-4.251-2.911-7.791-7.788-23.574-24.741-36.411-38.081-13.463-13.993-27.11-29.745-29.33-32.202l-.384-.011-.476,52.131Z"/>
      <path class="cls-6" d="M1855.415,2206.422c-.649.054-.879.311-1.079,1.087l-5.652,17.58c-1.048,3.21-1.471,6.248-1.356,7.753.157,2.243,1.425,3.779,5.391,3.483l1.916-.134c1.521-.108,1.931.104,1.981.86.073.994-.672,1.302-2.077,1.402-4.086.3-9.608.323-13.567.618-1.402.092-8.406.979-15.037,1.463-1.655.127-2.442-.069-2.519-1.071-.05-.745.438-1.033,1.463-1.114,1.152-.077,2.926-.326,3.936-.53,5.821-1.179,7.933-5.591,10.038-12.011l26.419-79.638c1.271-3.729,1.939-5.153,3.214-5.249,1.152-.084,1.997.983,3.487,3.763,3.556,6.632,27.629,55.012,37.175,73.367,5.679,10.867,9.504,12.346,12.23,12.78,1.939.23,3.867.219,5.399.108,1.029-.077,1.67,0,1.736.872.069,1.002-1.06,1.329-5.795,1.682-4.589.33-13.912,1.014-24.146,1.498-2.304.054-3.848.158-3.901-.71-.058-.749.438-1.033,1.705-1.26.876-.311,1.69-1.498.937-2.949l-12.084-24.941c-.303-.611-.707-.822-1.34-.783l-28.474,2.077ZM1881.009,2198.297c.637-.054.733-.434.584-.799l-13.728-29.833c-.165-.491-.346-1.11-.726-1.079s-.595.668-.676,1.175l-9.527,31.403c-.092.514.069.879.576.841l23.497-1.709Z"/>
      <path class="cls-6" d="M1956.591,2191.235c2.496,15.802,3.836,24.322,6.839,26.127,2.438,1.521,5.864,1.866,15.725.311,6.705-1.052,11.624-1.954,14.262-5.783,1.263-1.847,2.239-5.549,2.116-7.933-.042-1.118.092-1.909,1.11-2.062.879-.15,1.098.457,1.332,1.931.215,1.363.791,10.767.338,14.515-.326,2.83-.864,3.552-7.446,4.585-9.101,1.425-15.721,2.212-21.427,2.999-5.733.638-10.307,1.225-15.491,2.051-1.394.215-4.178.664-7.189,1.26-2.907.457-6.159,1.225-8.69,1.62-1.647.261-2.592.023-2.73-.833-.092-.622.349-1.071,1.874-1.309,1.897-.303,3.375-.783,4.477-1.21,2.454-.891,2.653-3.717,2.596-7.369-.188-5.291-1.72-15.041-3.502-26.404l-3.421-21.738c-2.949-18.774-3.491-22.234-4.366-26.139-.906-4.159-2.231-5.975-6.543-6.179-1.056-.096-2.588.019-4.236.284-1.394.207-2.185.088-2.323-.772-.134-.864.71-1.248,2.607-1.555,5.948-.937,13.97-1.82,17.388-2.35,3.037-.484,12.207-2.308,17.149-3.08,1.766-.28,2.692-.173,2.822.695.142.864-.58,1.233-2.093,1.474-1.398.215-3.402.657-4.881,1.148-3.318,1.148-3.997,3.41-3.571,7.772.369,3.994.91,7.453,3.863,26.227l3.41,21.715Z"/>
      <path class="cls-6" d="M2027.078,2182.449c-.614.154-.802.457-.883,1.244l-2.684,18.274c-.507,3.341-.422,6.401-.069,7.857.526,2.189,2.031,3.494,5.891,2.561l1.866-.449c1.494-.369,1.928-.207,2.1.514.234.975-.457,1.398-1.82,1.732-3.982.964-9.416,1.893-13.282,2.834-1.367.33-8.126,2.346-14.6,3.917-1.613.396-2.423.33-2.653-.641-.173-.726.265-1.091,1.256-1.332,1.118-.265,2.838-.806,3.802-1.175,5.549-2.112,6.912-6.816,7.926-13.498l12.983-82.883c.638-3.878,1.06-5.411,2.304-5.706,1.117-.265,2.131.638,4.051,3.133,4.608,5.96,36.296,49.728,48.73,66.271,7.384,9.792,11.401,10.621,14.17,10.594,1.943-.092,3.84-.419,5.338-.783.998-.234,1.651-.273,1.859.58.227.975-.826,1.49-5.434,2.6-4.478,1.083-13.559,3.283-23.578,5.457-2.269.419-3.763.78-3.971-.073-.184-.726.265-1.094,1.474-1.517.814-.457,1.421-1.763.446-3.068l-16.024-22.614c-.396-.541-.829-.699-1.444-.549l-27.752,6.72ZM2050.998,2170.226c.622-.15.657-.541.446-.876l-18.447-27.168c-.23-.457-.514-1.037-.883-.945-.369.096-.48.76-.491,1.267l-4.224,32.532c-.015.514.207.852.703.73l22.898-5.541Z"/>
      <path class="cls-6" d="M2092.815,2150.6c-6.912-20.221-2.143-51.038,34.211-63.46,30.171-10.295,54.804.442,64.063,27.533,9.251,27.091-2.822,55.123-33.6,65.626-34.775,11.889-57.523-8.751-64.673-29.699M2175.613,2124.849c-9.055-26.5-30.294-37.609-50.166-30.816-13.935,4.75-27.222,17.745-17.165,47.198,8.402,24.611,29.003,39.371,52.266,31.427,8.483-2.895,26.749-13.617,15.064-47.808"/>
      <path class="cls-2" d="M2307.802,516.937h-1015.588v71.908h1015.588v-71.908Z"/>
      <path class="cls-23" d="M2307.802,516.937h-1015.588v71.908h1015.588v-71.908Z"/>
      <g>
        <path class="cls-32" d="M1292.214,588.841l-114.954-270.501-19.319,5.871-42.202-96.672,77.518-22.902,17.553,45.381,37.425-11.094-16.017-44.486,78.95-18.209,14.035,46.349,38.865-7.484-13.452-46.802,79.181-13.805,10.84,47.151,52.381-7.419,4.55,23.831,19.442-2.461-3.994-23.712,40.128-5.222,4.093,24.119,19.622-1.978-2.953-24.311,39.867-3.64,3.349,24.292,38.78-2.976-7.069-71.927,80.333-4.105,2.627,47.324,38.308-.584-.691-47.773,80.663.004-1.24,48.353,38.995.799,2.838-48.127,80.145,3.521-7.319,72.948,38.765,2.684,3.364-24.042,39.744,3.648-3.153,24.081,20.041,1.962,3.625-23.485,39.994,4.282-3.84,24,19.807,2.749,4.789-23.981,51.79,7.661,10.979-47.535,79.073,13.801-12.265,47.674,37.325,7.327,14.461-46.929,78.812,17.852-16.401,46.307,37.551,10.257,18.144-46.333,77.81,22.191-42.197,96.676-33.308-10.971-117.055,276.376c-323.286-93.012-706.959-93.4-1019.132-.004"/>
        <path class="cls-24" d="M1776.138,365.081v-85.732c0-34.291,61.693-34.291,61.693,0v85.732"/>
        <path class="cls-24" d="M1325.76,423.333l-26.611-82.81c-10.641-33.12,48.945-46.433,59.593-13.309l26.607,82.81"/>
        <path class="cls-24" d="M2223.606,406.867l26.607-82.806c10.656-33.124,70.234-19.814,59.593,13.306l-26.615,82.81"/>
        <path class="cls-21" d="M1977.5,459.475l-3.514,29.795M1278.977,556.796c338.438-99.21,707.055-100.689,1046.627-4.186M1266.701,529.621c346.026-101.591,722.98-103.162,1070.22-4.474M1255.761,502.049c353.629-103.692,738.82-105.12,1093.54-4.055M1244.582,476.821c360.127-105.696,752.41-107.332,1113.792-4.654M2111.831,475.265l-6.179,29.08M2289.047,513.078l-10.003,27.176M2214.255,494.88l-8.463,27.606M2107.484,445.525l-5.86,28.673M2169.105,455.897l-7.569,27.517M2239.358,470.151l-8.44,27.475M2318.246,489.712l-10.445,27.222M2222.776,438.92l-7.526,25.094M2312.817,459.329l-9.738,26.266M2278.725,451.312l-8.701,25.325M2143.227,424.643l-6.244,26.074M2096.901,415.895l-5.622,27.402M1934.473,456.83l-2.646,28.819M2037.769,465.923l-4.746,28.128M1911.498,425.825l-2.016,29.119M1964.502,428.778l-3.087,28.735M2054.477,439.062l-4.931,27.759M2034.835,408.607l-4.189,26.208M1981.513,403.807l-3.279,26.93M1899.337,396.949l-1.697,26.88M1401.719,495.936l8.244,26.688M1875.245,453.32l-1.367,29.725M1348.243,508.374l9.619,27.249M1662.993,457.751l3.034,29.146M1735.86,454.541l1.524,28.243M1576.842,465.677l4.973,28.861M1784.932,453.32l.518,28.685M1471.899,481.651l6.912,28.458M1374.467,471.333l9.028,27.898M1443.464,457.106l7.442,27.606M1486.476,449.541l6.524,28.52M1549.114,440.083l5.322,28.151M1635.398,431.57l3.625,28.869M1703.19,426.432l2.262,29.564M1763.589,424.378l.945,28.7M1848.637,422.615l-.806,28.689M1308.764,487.657l10.499,27.821M1832.893,395.789l-.453,27.59M1771.699,396.522l.707,26.496M1715.758,398.707l1.755,26.527M1611.732,406.725l3.767,26.88M1530.436,415.895l5.153,25.882M1473.615,424.259l6.355,26.362M1406.895,436.574l7.4,25.329M1307.52,457.874l9.98,26.98M2136.983,391.089l30.858-143.255M1232.901,447.195c368.348-107.958,769.551-109.405,1139.002-4.128M1946.135,260.625c71.589,4.47,143.359,12.369,213.861,23.666M1972.785,203.244l-2.65,22.245h0c-105.6-7.334-213.028-7.369-318.632-.05h0l-2.83-22.717M1456.309,284.352c69.807-11.197,142.46-19.069,213.339-23.57M1447.261,248.471l32.897,142.936M1680.173,369.17l-13.97-144.703M1948.086,224.176l-7.749,145.091M1450.368,200.268l10.022,46.522h0c-103.584,15.974-203.428,47.474-302.454,77.426M2160.138,199.454s-9.708,46.061-9.704,46.065c106.211,16.036,209.821,47.209,311.278,77.921"/>
      </g>
      <path class="cls-28" d="M1292.214,588.837c-2.703,173.157-2.542,346.333,0,519.491,2.442,166.825,10.621,297.009,84.077,398.807,88.481,122.615,235.88,211.104,425.495,298.045,189.604-86.941,337.014-175.43,425.495-298.045,73.444-101.798,81.631-231.986,84.073-398.807,2.55-173.153,2.703-346.333,0-519.491h-1019.14Z"/>
      <path class="cls-7" d="M2297.149,1324.896c.338-43.292,9.343-63.855,9.347-107.14,4.489-86.884,6.213-173.169,4.858-259.753h-1019.14c-1.359,86.584.361,172.097,4.846,259.753.015,43.284,9.277,63.851,9.604,107.14h990.486Z"/>
      <path class="cls-29" d="M1290.758,955.734h1022.051M1306.007,1324.896h991.146"/>
      <path class="cls-30" d="M1674.778,1194.555l123.756-50.419-50.419,123.759,55.004-36.664,55.008,36.664-50.423-123.759,123.759,50.419-36.672-55,36.672-55.004-123.759,50.419,50.423-123.756-55.008,36.668-55.004-36.668,50.419,123.756-123.756-50.419,36.668,55.004-36.668,55Z"/>
      <g id="t1">
        <path class="cls-13" d="M984.653,1528.535c-1.325,149.994-2.65,155.301-2.65,155.301,65.699,64.378,73.494,87.959,92.909,108.849,25.217-36.507,64.374-21.907,64.374-21.907,7.968-34.506,49.782-64.374,49.782-64.374-58.403-4.643-159.283-34.518-167.247-46.46-26.45-39.675,9.953-159.94,9.953-159.94l-47.121,28.531Z"/>
        <path class="cls-21" d="M984.653,1528.535c-1.325,149.994-2.65,155.301-2.65,155.301,65.699,64.378,73.494,87.959,92.909,108.849,25.217-36.507,64.374-21.907,64.374-21.907,7.968-34.506,49.782-64.374,49.782-64.374-58.403-4.643-159.283-34.518-167.247-46.46-26.45-39.675,9.953-159.94,9.953-159.94l-47.121,28.531Z"/>
        <path class="cls-13" d="M1128.714,1763.47l-64.762-49.74,76.961,45.984"/>
        <path class="cls-21" d="M1128.714,1763.47l-64.762-49.74,76.961,45.984"/>
        <path class="cls-26" d="M1032.591,1457.399s81.143-33.124,164.306,25.229c7.945,2.319,13.751,1.64,20.072.541,16.074-17.238,52.535-67.91,80.694-61.34,2.074-42.816-2.819-213.996-2.819-213.996-12.196-.476-16.424,23.462-16.424,23.462,7.043,48.803-21.12,345.4-136.562,149.23l-81.658,8.448-27.61,68.425Z"/>
        <path class="cls-21" d="M1032.591,1457.399s81.143-33.124,164.306,25.229c7.945,2.319,13.751,1.64,20.072.541,16.074-17.238,52.535-67.91,80.694-61.34,2.074-42.816-2.819-213.996-2.819-213.996-12.196-.476-16.424,23.462-16.424,23.462,7.043,48.803-21.12,345.4-136.562,149.23l-81.658,8.448-27.61,68.425Z"/>
        <path class="cls-13" d="M988.159,771.333c69.688,25.217,70.56,38.542,139.572,99.598,55.085,21.907,137.126,75.617,141.773,87.567l-4.47,17.445c10.621,6.632,20.651-17.833,20.651-17.833-10.618-60.399-204.58-242.316-204.58-242.316l-85.436,17.99-7.511,37.548Z"/>
        <path class="cls-21" d="M988.159,771.333c69.688,25.217,70.56,38.542,139.572,99.598,55.085,21.907,137.126,75.617,141.773,87.567l-4.47,17.445c10.621,6.632,20.651-17.833,20.651-17.833-10.618-60.399-204.58-242.316-204.58-242.316l-85.436,17.99-7.511,37.548Z"/>
        <path class="cls-22" d="M1053.677,744.307l218.346,200.429,4.65,14.6"/>
        <path class="cls-22" d="M1101.458,818.638c21.903,38.496,62.392,52.431,62.392,52.431"/>
        <path class="cls-27" d="M1013.261,692.882c-.937-72.269,84.476-120.134,84.476-126.705-8.452-51.514-130.468,71.328-137.042,87.287-7.542,23.286,9.389,51.621,9.389,51.621"/>
        <path class="cls-27" d="M1036.727,598.084c-25.344,20.648-45.988,88.228-45.988,88.228"/>
        <path class="cls-27" d="M973.839,691.945c-10.322-69.458,42.24-129.523,38.484-131.401-32.298-16.147-74.154,69.45-86.35,97.613l15.955,95.731"/>
        <path class="cls-27" d="M956.947,634.691c-13.144,33.788.937,79.776.937,79.776"/>
        <path class="cls-27" d="M946.621,728.548c-16.896-16.892-.941-137.967-5.633-137.967-35.666,0-54.432,116.379-46.925,140.786,24.353,79.158,44.11,92.917,44.11,92.917"/>
        <path class="cls-27" d="M914.711,687.253c-2.819,35.67,25.34,79.78,25.34,79.78"/>
        <path class="cls-27" d="M938.173,817.713c-45.047-42.236-52.861-155.562-59.124-167.063-48.203,9.389-23.462,129.523-23.462,129.523.937,9.385,63.821,84.472,63.821,84.472"/>
        <path class="cls-27" d="M873.412,725.733c-15.955,31.91,56.314,126.712,56.314,126.712"/>
        <path class="cls-27" d="M994.491,1086.14s-12.203-163.308,8.444-187.707l-61.002-90.106-78.839,156.737,71.328,130.464,60.069-9.389Z"/>
        <path class="cls-22" d="M994.491,1086.14s-12.203-163.308,8.444-187.707l-61.002-90.106-78.839,156.737,71.328,130.464,60.069-9.389Z"/>
        <path class="cls-27" d="M937.06,1442.032c26.749,34.253,39.821,111.498,39.821,111.498l7.964-25.225c3.756,2.346,6.033,21.907,11.282,21.907,2.346,0,1.935-20.164,7.3-21.247,2.346-.461.791,27.878,5.975,27.878,4.224,0,4.562-20.183,5.971-19.25,3.318,2.208,3.974,26.796,6.639,13.939-3.752-131.869,254.746-239.781,249.542-387.594,6.57-152.982-157.958-211.043-258.835-339.794,0,0-28.343-84.43,23.889-47.121,42.24-6.57,38.496-48.445,38.496-48.445h23.228c10.33-90.102-80.302-69.02-80.302-69.02-84,0-91.584,86.938-91.584,86.938-21.588,113.103,124.961,247.795,124.961,247.795,21.585,46.929-.192,127.853-.192,127.853l-203.958,192.154"/>
        <path class="cls-27" d="M849.612,1312.777c-11.267,13.613-69.132,82.187-83.209,106.118-19.933,21.976,18.816,15.794,18.816,15.794,0,0-57.3,60.576-85.133,78.294,8.544,25.632,63.498-11.497,63.498-11.497,0,0-53.503,32.851-50.68,39.421,16.324,12.457,63.817-22.522,63.817-22.522,0,0-11.343,15.951-1.878,21.585,15.959,0,52.558-29.092,52.558-29.092,0,0-7.507,16.892.941,19.703,15.26-9.619,110.757-89.169,110.757-89.169"/>
        <path class="cls-22" d="M886.483,1272.169s-28.539,37.828-9.293,31.857"/>
        <path class="cls-27" d="M882.467,1173.98c-23.228,45.131-52.877,119.543-20.579,152.64,10.621,3.322,38.957-106.015,61.06-116.141,3.318-11.274,17.917-61.052,17.917-61.052"/>
        <path class="cls-27" d="M918.467,1168.735c12.184,0-24.372,24.407-37.548,58.191"/>
        <path class="cls-27" d="M928.259,1177.306c-17.917,84.284-1.325,102.202,5.975,102.87,10.618-5.318,29.203-82.307,50.438-86.949"/>
        <path class="cls-27" d="M837.335,787.062c-74.327-69.688-84.288-149.322-92.252-149.994-35.078-2.918,11.946,141.37,11.946,141.37l88.931,71.009"/>
        <path class="cls-27" d="M825.546,804.576s-35.658-27.222-54.436-63.825"/>
        <path class="cls-27" d="M837.335,837.504c-110.17-61.06-123.444-160.608-132.733-157.294-33.923,13.398,9.289,104.867,9.289,104.867,5.975,25.217,93.581,104.195,93.581,104.195"/>
        <path class="cls-27" d="M816.161,866.519s-46.925-34.729-84.468-91.983"/>
        <path class="cls-27" d="M803.489,881.968c-132.069-72.998-134.726-156.63-149.326-151.315-31.365,85.014,83.62,165.251,164.59,225.646"/>
        <path class="cls-27" d="M810.532,918.14s-60.073-21.585-97.617-78.839"/>
        <path class="cls-27" d="M816.1,954.305c-114.816-36.499-170.25-143.505-184.504-138.044-33.181,12.611,36.503,102.205,36.503,102.205,56.41,52.431,149.326,90.924,149.326,90.924"/>
        <path class="cls-27" d="M818.98,970.702s-79.78-15.018-122.957-59.136"/>
        <path class="cls-27" d="M816.764,1002.755c-183.836-59.071-191.136-116.805-208.393-112.163-32.736,24.895,72.342,107.516,72.342,107.516,13.267,19.907,147.337,56.413,147.337,56.413"/>
        <path class="cls-27" d="M831.18,1012.001s-92.92,1.878-132.338-30.037"/>
        <path class="cls-27" d="M825.389,1053.861c-175.872-37.171-201.754-88.934-215.697-85.613-21.98,29.879,84.292,94.898,84.292,94.898,65.702,37.832,154.633,43.139,154.633,43.139"/>
        <path class="cls-27" d="M845.257,1074.878s-61.943,1.878-101.368-19.707"/>
        <path class="cls-27" d="M820.078,1169.33c-49.106,45.131-76.98,129.389-51.763,134.73,13.935.657,51.763-98.231,106.852-112.159l35.171-30.536"/>
        <path class="cls-27" d="M890.308,1156.535c12.177,0-63.798,23.47-76.965,57.258"/>
        <path class="cls-27" d="M794.197,1128.188c-71.674,53.756-94.606,117.339-84.28,120.787,15.924,5.311,79.661-60.945,102.87-65.046,11.282-1.989,78.313-37.824,78.313-37.824"/>
        <path class="cls-27" d="M837.75,1134.947c12.177,0-49.72,21.585-62.884,55.384"/>
        <path class="cls-27" d="M845.303,1104.96c-78.313,9.289-215.693-74.331-218.346-67.031-34.095,39.94,113.487,106.852,146.004,103.53l115.477,7.3"/>
        <path class="cls-27" d="M876.227,1127.436s-94.794.945-137.971-18.762"/>
        <path class="cls-27" d="M1091.159,1114.303s0-44.114-21.585-45.992c0,0-48.806-3.748-103.242,5.633-124.508-74.331-26.972-169.809-44.118-202.733-5.629-50.68-89.161-126.708-89.161-126.708-8.448,7.515,1.701,54.824-4.696,51.625-16.892-8.444-6.474,28.742-11.263,38.481-15.955-5.629-15.137,18.52-11.263,36.603-13.14,1.882-8.452,24.403-5.633,40.362-25.766-14.173,7.799,40.182-.941,38.477-39.418-5.633,5.633,37.548,5.633,37.548-22.525,8.448-12.004,25.202,3.759,31.91-19.715,14.077.465,36.553,7.503,37.547-17.833,9.381,2.012,22.948,12.2,32.847-15.955,15.018,13.14,21.431,27.226,27.214-11.267,17.833,1.978,21.688,14.074,27.218-7.507,14.077,10.967,13.033,22.522,11.27-14.074,15.014,9.389,21.585,18.774,19.699,0,0,5.007,19.484,21.592,12.207-4.689,15.026,29.1,13.144,29.1,13.144,0,15.03,49.743,9.389,49.743,9.389"/>
        <g>
          <path class="cls-22" d="M848.974,859.377s10.326,27.218,22.525,27.218"/>
          <path class="cls-22" d="M830.243,795.187s13.137,45.996,25.34,45.996"/>
          <path class="cls-22" d="M818.98,830.853s3.756,30.033,15.951,30.033"/>
          <path class="cls-22" d="M805.839,869.334s10.326,27.218,22.522,27.218"/>
          <path class="cls-22" d="M799.265,908.752s11.267,24.403,23.466,24.403"/>
          <path class="cls-22" d="M800.206,948.173s18.774,30.033,30.97,30.033"/>
          <path class="cls-22" d="M803.962,988.535s19.707,16.896,31.91,16.896"/>
          <path class="cls-22" d="M808.65,1020.442s19.707,16.896,31.91,16.896"/>
          <path class="cls-22" d="M813.347,1055.171s29.092,14.077,41.295,14.077"/>
          <path class="cls-22" d="M826.483,1088.022s32.851,2.819,45.051,2.819"/>
          <path class="cls-22" d="M853.267,1114.967s27.544-1.167,39.74-1.167"/>
          <path class="cls-22" d="M869.199,1141.517s23.562-6.482,38.415-1.167"/>
          <path class="cls-22" d="M891.099,1156.777s23.555-6.486,38.415-1.167"/>
          <path class="cls-22" d="M908.352,1174.695s22.898-3.149,39.076-9.796"/>
          <path class="cls-22" d="M931.584,1186.645s9.615,2.811,25.801-3.817"/>
          <path class="cls-22" d="M959.459,1198.583s8.294-.499,24.48-7.127"/>
          <path class="cls-22" d="M1076.198,728.993c-19.242-36.499-39.16-32.517-39.16-32.517-9.949,0-13.271,6.636-24.553,6.636-13.939,0-10.618-14.603-10.618-14.603"/>
        </g>
        <path class="cls-6" d="M1045.006,697.141c-3.982,17.257-16.658,20.605-16.658,20.605,0,0,2.749,16.47,13.34,17.222,19.45,3.483,25.801-14.012,16.589-29.203-3.31-3.982-13.271-8.625-13.271-8.625"/>
        <path class="cls-10" d="M1057.071,717.059c.63,2.127-2.592,5.107-7.2,6.647-4.608,1.551-8.855,1.071-9.485-1.06,0,0-.004-.004-.004-.012-.63-2.131,2.596-5.107,7.2-6.651,4.612-1.54,8.855-1.064,9.489,1.064v.012"/>
        <path class="cls-22" d="M791.274,1432.505c-6.102,9.853,22.061,12.472,29.568.937,0,15.959,21.754,16.566,29.564,8.916,3.283,10.326,18.482,7.691,28.159-1.878,1.643,4.454,15.414,14.004,20.502,12.173,9.946-3.587,48.806-58.575,57.251-63.264M751.757,1509.101s44.632-43.465,73.828-66.689M767.021,1525.029s58.71-54.259,87.913-77.487M823.434,1514.412s38.999-40.182,68.198-63.406M784.608,1433.541s43.607-51.974,72.81-75.202M818.638,1434.924s36.657-42.06,78.528-71.85M852.058,1441.198s17.276-33.131,69.942-73.713M878.807,1440.734s20.045-34.748,56.287-60.791M876.522,1445.388c-29.868,30.528-53.76,51.107-53.76,51.107M833.391,1448.045c-29.871,30.528-60.392,55.085-60.392,55.085M804.184,1439.416c-29.868,30.528-37.828,33.189-37.828,33.189M833.51,1334.93c-6.106,9.853,7.695,33.719,37.106,19.53-9.293,24.584,4.497,17.894,23.597,8.924-5.345,20.936,18.482,7.68,28.151-1.882,1.64,4.458,2.139,15.341,11.209,16.166,10.533.956,21.592-29.38,30.044-34.065M869.649,1354.906l53.334-48.887M841.271,1357.475l25.962-39.51M893.622,1363.062l32.018-35.14M921.381,1362.317l16.865-18.467M869.891,1367.735c-6.639,7.304-21.903,18.586-21.903,18.586M898.426,1375.043c-14.603,11.282-27.206,23.232-27.206,23.232M944.886,1386.321c-29.868,30.528-23.228,22.564-23.228,22.564M928.954,1373.71c-14.603,11.286-23.228,19.91-23.228,19.91M958.817,1299.379c-42.474,53.096,18.586,10.618,18.586,10.618M904.09,1324.681s-24.906,4.562,3.629-29.948M952.186,1269.516l-7.964,12.611M942.87,920.018c-7.507,21.585,13.144,43.177,13.144,43.177M926.915,932.222c-7.511,21.585,27.21,57.251,27.21,57.251M920.337,968.821c-7.503,21.592,30.973,39.421,30.973,39.421M937.237,1023.26c1.878,15.955,30.033,12.2,30.033,12.2M897.066,848.118s2.396,18.182,11.286,43.142c-13.939,13.935-16.589,35.171-16.589,35.171M848.974,859.377s10.326,27.218,22.525,27.218M843.003,893.23s10.326,27.218,22.525,27.218M831.721,921.765s12.979,17.929,25.179,17.929M836.363,957.604s12.983,17.929,25.187,17.929M845.656,995.432s14.308,3.325,26.508,3.325M854.285,1021.978s3.022.672,15.226.672M868.884,834.828s-1.624,15.276,10.583,15.276M883.108,1078.23s15.252-1.778,12.564-13.674M860.544,1056.999s26.534-7.753,23.858-19.649M916.293,1108.758s4.639-30.973,1.955-42.877M952.796,1133.319s-4.658-40.934-13.974-46.199M993.277,1143.268c-9.949-34.506-23.236-50.223-32.556-53.499M1032.438,1141.283c-9.953-34.51-36.515-47.566-45.834-50.845M1078.89,1142.6c-9.953-34.506-36.503-47.566-45.827-50.834M1046.392,1188.58c-35.839,13.271-52.428,45.792-52.428,45.792M998.196,751.062c-9.389,0-12.204,5.629-12.204,5.629M967.223,806.435c-3.982,11.282,8.563,26.784,6.57,23.466M967.841,715.461c-9.297,0-9.961,17.917-9.961,17.917M1018.284,870.759l13.271,17.257M1024.915,921.197l13.935,15.924M1083.318,974.953l16.593,17.921"/>
        <path class="cls-6" d="M1168.689,1038.232s7.887,21.788,13.513,23.662c0,0,6.397,2.15,10.621-.66,3.844-2.565,0-7.968,0-7.968-5.153-7.507-24.134-15.034-24.134-15.034M1135.108,1049.161s-1.302,23.132,3.145,27.068c0,0,5.042,4.493,10.026,3.556,4.547-.849,3.13-7.327,3.13-7.327-1.805-8.932-16.301-23.297-16.301-23.297M1158.102,1130.815s-1.298,23.132,3.149,27.072c0,0,5.042,4.481,10.026,3.556,4.535-.852,3.126-7.331,3.126-7.331-1.805-8.932-16.301-23.297-16.301-23.297M1214.888,1154.001l-.499,1.156h-1.263c-.768,0-1.486-.334-2.024-.945-2.442-2.769-1.379-15.222-.445-22.952-2.408-3.141-7.968-10.952-7.238-15.137.192-1.098.764-1.97,1.651-2.527l1.217-.76,1.075.952c1.413,1.252,13.836,12.411,14.707,18.528.511,3.54-5.368,17.491-7.181,21.684ZM1089.416,1221.842c-4.22,0-7.949,12.749-5.169,18.006,0,0,3.133,5.971,8.133,6.854,4.55.803,5.507-5.76,5.507-5.76,1.448-8.997-.008-19.1-8.471-19.1M1064.056,1408.324c-1.812,3.153-9.07,7.557-10.502,8.406l-1.129.668-1.037-.81c-2.584-2.031-1.125-7.377,4.331-15.89.023-3.802.407-13.713,3.629-16.616.829-.741,1.805-1.079,2.861-.971l1.429.15.257,1.409c.342,1.862,3.245,18.305.161,23.654ZM1004.46,1425.685c-1.048,1.832-2.926,2.431-4.838,2.431-1.674,0-3.371-.457-4.573-.956l-.445-.261c-3.145-2.461-1.682-10.203-.829-13.674.004-3.517.311-13.958,3.629-16.946.826-.741,1.816-1.079,2.857-.971l1.34.142.319,1.309c.96,3.901,5.583,23.631,2.542,28.927ZM1053.734,1335.114c-1.094,1.897-2.972,2.446-4.765,2.446-2.185,0-4.251-.81-4.639-.971l-.453-.261c-3.222-2.527-1.613-10.568-.772-13.909.676-1.947,4.051-10.771,9.719-10.172l1.475.157.223,1.467c.238,1.609,2.273,15.913-.787,21.243ZM1130.711,1268.302s-9.35,21.193-6.582,26.442c0,0,3.137,5.983,8.137,6.858,4.55.803,5.503-5.76,5.503-5.76,1.459-8.993-7.058-27.54-7.058-27.54M1103.462,1323.053c-13.901,4.585-16.819,21.066-15.79,26.899,0,0,1.152,6.651,5.633,9.028,4.086,2.17,7.008-3.786,7.008-3.786,4.147-8.118,13.002-24.63,3.149-32.141M1028.387,1241.192c-9.373,6.321-9.404,11.843-9.466,17.775,0,0-.084,6.743,3.89,9.907,3.621,2.869,16.028-2.45,16.028-2.45,5.56-7.215-9.984-7.403-10.453-25.233M1128.81,1150.622c-9.373,6.321-9.4,5.265-9.462,17.764,0,0,3.195,10.038,7.177,13.194,3.61,2.872,7.58-6.198,7.58-6.198,5.564-7.208,2.684-22.418-5.295-24.76M1197.823,1200.73c-4.224,0-7.949,12.749-5.172,17.994,0,0,3.141,5.975,8.137,6.858,4.55.806,5.507-5.756,5.507-5.756,1.444-8.997-.012-19.096-8.471-19.096M1168.723,1236.86c-6.033,19.507-13.106,25.425-10.333,30.674,0,0,6.889,1.747,11.889,2.627,4.55.81,5.499-5.749,5.499-5.749,1.463-9.001-5.649-6.436-7.054-27.552M1004.467,1464.089c-4.224,0-7.949,12.745-5.172,17.994,0,0,3.133,5.971,8.137,6.854,4.55.803,5.499-5.756,5.499-5.756,1.459-8.99-.004-19.093-8.463-19.093"/>
      </g>
      <g id="t1-2" data-name="t1">
        <path class="cls-13" d="M2619.187,1528.535c1.325,149.994,2.65,155.301,2.65,155.301-65.699,64.378-73.494,87.959-92.909,108.849-25.217-36.507-64.374-21.907-64.374-21.907-7.968-34.506-49.782-64.374-49.782-64.374,58.402-4.643,159.283-34.518,167.247-46.46,26.45-39.675-9.953-159.94-9.953-159.94l47.121,28.531Z"/>
        <path class="cls-21" d="M2619.187,1528.535c1.325,149.994,2.65,155.301,2.65,155.301-65.699,64.378-73.494,87.959-92.909,108.849-25.217-36.507-64.374-21.907-64.374-21.907-7.968-34.506-49.782-64.374-49.782-64.374,58.402-4.643,159.283-34.518,167.247-46.46,26.45-39.675-9.953-159.94-9.953-159.94l47.121,28.531Z"/>
        <path class="cls-13" d="M2475.126,1763.47l64.762-49.74-76.961,45.984"/>
        <path class="cls-21" d="M2475.126,1763.47l64.762-49.74-76.961,45.984"/>
        <path class="cls-26" d="M2571.249,1457.399s-81.143-33.124-164.306,25.229c-7.945,2.319-13.751,1.64-20.072.541-16.074-17.238-52.535-67.91-80.694-61.34-2.074-42.816,2.819-213.996,2.819-213.996,12.196-.476,16.424,23.462,16.424,23.462-7.043,48.803,21.12,345.4,136.562,149.23l81.658,8.448,27.61,68.425Z"/>
        <path class="cls-21" d="M2571.249,1457.399s-81.143-33.124-164.306,25.229c-7.945,2.319-13.751,1.64-20.072.541-16.074-17.238-52.535-67.91-80.694-61.34-2.074-42.816,2.819-213.996,2.819-213.996,12.196-.476,16.424,23.462,16.424,23.462-7.043,48.803,21.12,345.4,136.562,149.23l81.658,8.448,27.61,68.425Z"/>
        <path class="cls-13" d="M2615.681,771.333c-69.688,25.217-70.56,38.542-139.572,99.598-55.085,21.907-137.126,75.617-141.773,87.567l4.47,17.445c-10.621,6.632-20.651-17.833-20.651-17.833,10.618-60.399,204.58-242.316,204.58-242.316l85.436,17.99,7.511,37.548Z"/>
        <path class="cls-21" d="M2615.681,771.333c-69.688,25.217-70.56,38.542-139.572,99.598-55.085,21.907-137.126,75.617-141.773,87.567l4.47,17.445c-10.621,6.632-20.651-17.833-20.651-17.833,10.618-60.399,204.58-242.316,204.58-242.316l85.436,17.99,7.511,37.548Z"/>
        <path class="cls-22" d="M2550.163,744.307l-218.346,200.429-4.65,14.6"/>
        <path class="cls-22" d="M2502.382,818.638c-21.903,38.496-62.392,52.431-62.392,52.431"/>
        <path class="cls-27" d="M2590.579,692.882c.937-72.269-84.476-120.134-84.476-126.705,8.452-51.514,130.468,71.328,137.042,87.287,7.542,23.286-9.389,51.621-9.389,51.621"/>
        <path class="cls-27" d="M2567.113,598.084c25.344,20.648,45.988,88.228,45.988,88.228"/>
        <path class="cls-27" d="M2630.001,691.945c10.322-69.458-42.24-129.523-38.484-131.401,32.298-16.147,74.154,69.45,86.35,97.613l-15.955,95.731"/>
        <path class="cls-27" d="M2646.893,634.691c13.144,33.788-.937,79.776-.937,79.776"/>
        <path class="cls-27" d="M2657.219,728.548c16.896-16.892.941-137.967,5.633-137.967,35.666,0,54.432,116.379,46.925,140.786-24.353,79.158-44.11,92.917-44.11,92.917"/>
        <path class="cls-27" d="M2689.129,687.253c2.819,35.67-25.34,79.78-25.34,79.78"/>
        <path class="cls-27" d="M2665.667,817.713c45.047-42.236,52.861-155.562,59.124-167.063,48.203,9.389,23.462,129.523,23.462,129.523-.937,9.385-63.821,84.472-63.821,84.472"/>
        <path class="cls-27" d="M2730.428,725.733c15.955,31.91-56.314,126.712-56.314,126.712"/>
        <path class="cls-27" d="M2609.349,1086.14s12.203-163.308-8.444-187.707l61.002-90.106,78.839,156.737-71.328,130.464-60.069-9.389Z"/>
        <path class="cls-22" d="M2609.349,1086.14s12.203-163.308-8.444-187.707l61.002-90.106,78.839,156.737-71.328,130.464-60.069-9.389Z"/>
        <path class="cls-27" d="M2666.78,1442.032c-26.749,34.253-39.821,111.498-39.821,111.498l-7.964-25.225c-3.756,2.346-6.033,21.907-11.282,21.907-2.346,0-1.935-20.164-7.3-21.247-2.346-.461-.791,27.878-5.975,27.878-4.224,0-4.562-20.183-5.971-19.25-3.318,2.208-3.974,26.796-6.639,13.939,3.752-131.869-254.746-239.781-249.542-387.594-6.57-152.982,157.958-211.043,258.835-339.794,0,0,28.343-84.43-23.889-47.121-42.24-6.57-38.496-48.445-38.496-48.445h-23.228c-10.33-90.102,80.302-69.02,80.302-69.02,84,0,91.584,86.938,91.584,86.938,21.588,113.103-124.961,247.795-124.961,247.795-21.585,46.929.192,127.853.192,127.853l203.958,192.154"/>
        <path class="cls-27" d="M2754.228,1312.777c11.267,13.613,69.132,82.187,83.209,106.118,19.933,21.976-18.816,15.794-18.816,15.794,0,0,57.3,60.576,85.133,78.294-8.544,25.632-63.498-11.497-63.498-11.497,0,0,53.503,32.851,50.68,39.421-16.324,12.457-63.817-22.522-63.817-22.522,0,0,11.343,15.951,1.878,21.585-15.959,0-52.558-29.092-52.558-29.092,0,0,7.507,16.892-.941,19.703-15.26-9.619-110.757-89.169-110.757-89.169"/>
        <path class="cls-22" d="M2717.357,1272.169s28.539,37.828,9.293,31.857"/>
        <path class="cls-27" d="M2721.373,1173.98c23.228,45.131,52.877,119.543,20.579,152.64-10.621,3.322-38.957-106.015-61.06-116.141-3.318-11.274-17.917-61.052-17.917-61.052"/>
        <path class="cls-27" d="M2685.373,1168.735c-12.184,0,24.372,24.407,37.548,58.191"/>
        <path class="cls-27" d="M2675.581,1177.306c17.917,84.284,1.325,102.202-5.975,102.87-10.618-5.318-29.203-82.307-50.438-86.949"/>
        <path class="cls-27" d="M2766.505,787.062c74.327-69.688,84.288-149.322,92.252-149.994,35.078-2.918-11.946,141.37-11.946,141.37l-88.931,71.009"/>
        <path class="cls-27" d="M2778.294,804.576s35.658-27.222,54.436-63.825"/>
        <path class="cls-27" d="M2766.505,837.504c110.17-61.06,123.444-160.608,132.733-157.294,33.923,13.398-9.289,104.867-9.289,104.867-5.975,25.217-93.581,104.195-93.581,104.195"/>
        <path class="cls-27" d="M2787.679,866.519s46.925-34.729,84.468-91.983"/>
        <path class="cls-27" d="M2800.351,881.968c132.069-72.998,134.726-156.63,149.326-151.315,31.365,85.014-83.62,165.251-164.59,225.646"/>
        <path class="cls-27" d="M2793.308,918.14s60.073-21.585,97.617-78.839"/>
        <path class="cls-27" d="M2787.74,954.305c114.816-36.499,170.25-143.505,184.504-138.044,33.181,12.611-36.503,102.205-36.503,102.205-56.41,52.431-149.326,90.924-149.326,90.924"/>
        <path class="cls-27" d="M2784.86,970.702s79.78-15.018,122.957-59.136"/>
        <path class="cls-27" d="M2787.076,1002.755c183.836-59.071,191.136-116.805,208.393-112.163,32.736,24.895-72.342,107.516-72.342,107.516-13.267,19.907-147.337,56.413-147.337,56.413"/>
        <path class="cls-27" d="M2772.66,1012.001s92.92,1.878,132.338-30.037"/>
        <path class="cls-27" d="M2778.451,1053.861c175.872-37.171,201.754-88.934,215.697-85.613,21.98,29.879-84.292,94.898-84.292,94.898-65.702,37.832-154.633,43.139-154.633,43.139"/>
        <path class="cls-27" d="M2758.583,1074.878s61.943,1.878,101.368-19.707"/>
        <path class="cls-27" d="M2783.762,1169.33c49.106,45.131,76.98,129.389,51.763,134.73-13.935.657-51.763-98.231-106.852-112.159l-35.171-30.536"/>
        <path class="cls-27" d="M2713.532,1156.535c-12.177,0,63.798,23.47,76.965,57.258"/>
        <path class="cls-27" d="M2809.643,1128.188c71.674,53.756,94.606,117.339,84.28,120.787-15.924,5.311-79.661-60.945-102.87-65.046-11.282-1.989-78.313-37.824-78.313-37.824"/>
        <path class="cls-27" d="M2766.09,1134.947c-12.177,0,49.72,21.585,62.884,55.384"/>
        <path class="cls-27" d="M2758.537,1104.96c78.313,9.289,215.693-74.331,218.346-67.031,34.095,39.94-113.487,106.852-146.004,103.53l-115.477,7.3"/>
        <path class="cls-27" d="M2727.613,1127.436s94.794.945,137.971-18.762"/>
        <path class="cls-27" d="M2512.681,1114.303s0-44.114,21.585-45.992c0,0,48.806-3.748,103.242,5.633,124.508-74.331,26.972-169.809,44.118-202.733,5.629-50.68,89.161-126.708,89.161-126.708,8.448,7.515-1.701,54.824,4.696,51.625,16.892-8.444,6.474,28.742,11.263,38.481,15.955-5.629,15.137,18.52,11.263,36.603,13.14,1.882,8.452,24.403,5.633,40.362,25.766-14.173-7.799,40.182.941,38.477,39.418-5.633-5.633,37.548-5.633,37.548,22.525,8.448,12.004,25.202-3.759,31.91,19.715,14.077-.465,36.553-7.503,37.547,17.833,9.381-2.012,22.948-12.2,32.847,15.955,15.018-13.14,21.431-27.226,27.214,11.267,17.833-1.978,21.688-14.074,27.218,7.507,14.077-10.967,13.033-22.522,11.27,14.074,15.014-9.389,21.585-18.774,19.699,0,0-5.007,19.484-21.592,12.207,4.689,15.026-29.1,13.144-29.1,13.144,0,15.03-49.743,9.389-49.743,9.389"/>
        <g>
          <path class="cls-22" d="M2754.866,859.377s-10.326,27.218-22.525,27.218"/>
          <path class="cls-22" d="M2773.597,795.187s-13.137,45.996-25.34,45.996"/>
          <path class="cls-22" d="M2784.86,830.853s-3.756,30.033-15.951,30.033"/>
          <path class="cls-22" d="M2798.001,869.334s-10.326,27.218-22.522,27.218"/>
          <path class="cls-22" d="M2804.575,908.752s-11.267,24.403-23.466,24.403"/>
          <path class="cls-22" d="M2803.634,948.173s-18.774,30.033-30.97,30.033"/>
          <path class="cls-22" d="M2799.878,988.535s-19.707,16.896-31.91,16.896"/>
          <path class="cls-22" d="M2795.19,1020.442s-19.707,16.896-31.91,16.896"/>
          <path class="cls-22" d="M2790.493,1055.171s-29.092,14.077-41.295,14.077"/>
          <path class="cls-22" d="M2777.357,1088.022s-32.851,2.819-45.051,2.819"/>
          <path class="cls-22" d="M2750.573,1114.967s-27.544-1.167-39.74-1.167"/>
          <path class="cls-22" d="M2734.641,1141.517s-23.562-6.482-38.415-1.167"/>
          <path class="cls-22" d="M2712.741,1156.777s-23.555-6.486-38.415-1.167"/>
          <path class="cls-22" d="M2695.488,1174.695s-22.898-3.149-39.076-9.796"/>
          <path class="cls-22" d="M2672.256,1186.645s-9.615,2.811-25.801-3.817"/>
          <path class="cls-22" d="M2644.381,1198.583s-8.294-.499-24.48-7.127"/>
          <path class="cls-22" d="M2527.642,728.993c19.242-36.499,39.16-32.517,39.16-32.517,9.949,0,13.271,6.636,24.553,6.636,13.939,0,10.618-14.603,10.618-14.603"/>
        </g>
        <path class="cls-6" d="M2558.834,697.141c3.982,17.257,16.658,20.605,16.658,20.605,0,0-2.749,16.47-13.34,17.222-19.45,3.483-25.801-14.012-16.589-29.203,3.31-3.982,13.271-8.625,13.271-8.625"/>
        <path class="cls-10" d="M2546.769,717.059c-.63,2.127,2.592,5.107,7.2,6.647,4.608,1.551,8.855,1.071,9.485-1.06,0,0,.004-.004.004-.012.63-2.131-2.596-5.107-7.2-6.651-4.612-1.54-8.855-1.064-9.489,1.064v.012"/>
        <path class="cls-22" d="M2812.566,1432.505c6.102,9.853-22.061,12.472-29.568.937,0,15.959-21.754,16.566-29.564,8.916-3.283,10.326-18.482,7.691-28.159-1.878-1.643,4.454-15.414,14.004-20.502,12.173-9.946-3.587-48.806-58.575-57.251-63.264M2852.083,1509.101s-44.632-43.465-73.828-66.689M2836.819,1525.029s-58.71-54.259-87.913-77.487M2780.406,1514.412s-38.999-40.182-68.198-63.406M2819.232,1433.541s-43.607-51.974-72.81-75.202M2785.202,1434.924s-36.657-42.06-78.528-71.85M2751.782,1441.198s-17.276-33.131-69.942-73.713M2725.033,1440.734s-20.045-34.748-56.287-60.791M2727.318,1445.388c29.868,30.528,53.76,51.107,53.76,51.107M2770.449,1448.045c29.871,30.528,60.392,55.085,60.392,55.085M2799.656,1439.416c29.868,30.528,37.828,33.189,37.828,33.189M2770.33,1334.93c6.106,9.853-7.695,33.719-37.106,19.53,9.293,24.584-4.497,17.894-23.597,8.924,5.345,20.936-18.482,7.68-28.151-1.882-1.64,4.458-2.139,15.341-11.209,16.166-10.533.956-21.592-29.38-30.044-34.065M2734.191,1354.906l-53.334-48.887M2762.569,1357.475l-25.962-39.51M2710.218,1363.062l-32.018-35.14M2682.459,1362.317l-16.865-18.467M2733.949,1367.735c6.639,7.304,21.903,18.586,21.903,18.586M2705.414,1375.043c14.603,11.282,27.206,23.232,27.206,23.232M2658.954,1386.321c29.868,30.528,23.228,22.564,23.228,22.564M2674.886,1373.71c14.603,11.286,23.228,19.91,23.228,19.91M2645.023,1299.379c42.474,53.096-18.586,10.618-18.586,10.618M2699.75,1324.681s24.906,4.562-3.629-29.948M2651.654,1269.516l7.964,12.611M2660.97,920.018c7.507,21.585-13.144,43.177-13.144,43.177M2676.925,932.222c7.511,21.585-27.21,57.251-27.21,57.251M2683.503,968.821c7.503,21.592-30.973,39.421-30.973,39.421M2666.603,1023.26c-1.878,15.955-30.033,12.2-30.033,12.2M2706.774,848.118s-2.396,18.182-11.286,43.142c13.939,13.935,16.589,35.171,16.589,35.171M2754.866,859.377s-10.326,27.218-22.525,27.218M2760.837,893.23s-10.326,27.218-22.525,27.218M2772.119,921.765s-12.979,17.929-25.179,17.929M2767.477,957.604s-12.983,17.929-25.187,17.929M2758.184,995.432s-14.308,3.325-26.508,3.325M2749.555,1021.978s-3.022.672-15.226.672M2734.956,834.828s1.624,15.276-10.583,15.276M2720.732,1078.23s-15.252-1.778-12.564-13.674M2743.296,1056.999s-26.534-7.753-23.858-19.649M2687.547,1108.758s-4.639-30.973-1.955-42.877M2651.044,1133.319s4.658-40.934,13.974-46.199M2610.563,1143.268c9.949-34.506,23.236-50.223,32.556-53.499M2571.402,1141.283c9.953-34.51,36.515-47.566,45.834-50.845M2524.95,1142.6c9.953-34.506,36.503-47.566,45.827-50.834M2557.448,1188.58c35.839,13.271,52.428,45.792,52.428,45.792M2605.644,751.062c9.389,0,12.204,5.629,12.204,5.629M2636.617,806.435c3.982,11.282-8.563,26.784-6.57,23.466M2635.999,715.461c9.297,0,9.961,17.917,9.961,17.917M2585.556,870.759l-13.271,17.257M2578.925,921.197l-13.935,15.924M2520.522,974.953l-16.593,17.921"/>
        <path class="cls-6" d="M2435.151,1038.232s-7.887,21.788-13.513,23.662c0,0-6.397,2.15-10.621-.66-3.844-2.565,0-7.968,0-7.968,5.153-7.507,24.134-15.034,24.134-15.034M2468.732,1049.161s1.302,23.132-3.145,27.068c0,0-5.042,4.493-10.026,3.556-4.547-.849-3.13-7.327-3.13-7.327,1.805-8.932,16.301-23.297,16.301-23.297M2445.738,1130.815s1.298,23.132-3.149,27.072c0,0-5.042,4.481-10.026,3.556-4.535-.852-3.126-7.331-3.126-7.331,1.805-8.932,16.301-23.297,16.301-23.297M2388.952,1154.001l.499,1.156h1.263c.768,0,1.486-.334,2.024-.945,2.442-2.769,1.379-15.222.445-22.952,2.408-3.141,7.968-10.952,7.238-15.137-.192-1.098-.764-1.97-1.651-2.527l-1.217-.76-1.075.952c-1.413,1.252-13.836,12.411-14.707,18.528-.511,3.54,5.368,17.491,7.181,21.684ZM2514.424,1221.842c4.22,0,7.949,12.749,5.169,18.006,0,0-3.133,5.971-8.133,6.854-4.55.803-5.507-5.76-5.507-5.76-1.448-8.997.008-19.1,8.471-19.1M2539.784,1408.324c1.812,3.153,9.07,7.557,10.502,8.406l1.129.668,1.037-.81c2.584-2.031,1.125-7.377-4.331-15.89-.023-3.802-.407-13.713-3.629-16.616-.829-.741-1.805-1.079-2.861-.971l-1.429.15-.257,1.409c-.342,1.862-3.245,18.305-.161,23.654ZM2599.38,1425.685c1.048,1.832,2.926,2.431,4.838,2.431,1.674,0,3.371-.457,4.573-.956l.445-.261c3.145-2.461,1.682-10.203.829-13.674-.004-3.517-.311-13.958-3.629-16.946-.826-.741-1.816-1.079-2.857-.971l-1.34.142-.319,1.309c-.96,3.901-5.583,23.631-2.542,28.927ZM2550.106,1335.114c1.094,1.897,2.972,2.446,4.765,2.446,2.185,0,4.251-.81,4.639-.971l.453-.261c3.222-2.527,1.613-10.568.772-13.909-.676-1.947-4.051-10.771-9.719-10.172l-1.475.157-.223,1.467c-.238,1.609-2.273,15.913.787,21.243ZM2473.129,1268.302s9.35,21.193,6.582,26.442c0,0-3.137,5.983-8.137,6.858-4.55.803-5.503-5.76-5.503-5.76-1.459-8.993,7.058-27.54,7.058-27.54M2500.378,1323.053c13.901,4.585,16.819,21.066,15.79,26.899,0,0-1.152,6.651-5.633,9.028-4.086,2.17-7.008-3.786-7.008-3.786-4.147-8.118-13.002-24.63-3.149-32.141M2575.453,1241.192c9.373,6.321,9.404,11.843,9.466,17.775,0,0,.084,6.743-3.89,9.907-3.621,2.869-16.028-2.45-16.028-2.45-5.56-7.215,9.984-7.403,10.453-25.233M2475.03,1150.622c9.373,6.321,9.4,5.265,9.462,17.764,0,0-3.195,10.038-7.177,13.194-3.61,2.872-7.58-6.198-7.58-6.198-5.564-7.208-2.684-22.418,5.295-24.76M2406.017,1200.73c4.224,0,7.949,12.749,5.172,17.994,0,0-3.141,5.975-8.137,6.858-4.55.806-5.507-5.756-5.507-5.756-1.444-8.997.012-19.096,8.471-19.096M2435.117,1236.86c6.033,19.507,13.106,25.425,10.333,30.674,0,0-6.889,1.747-11.889,2.627-4.55.81-5.499-5.749-5.499-5.749-1.463-9.001,5.649-6.436,7.054-27.552M2599.373,1464.089c4.224,0,7.949,12.745,5.172,17.994,0,0-3.133,5.971-8.137,6.854-4.55.803-5.499-5.756-5.499-5.756-1.459-8.99.004-19.093,8.463-19.093"/>
      </g>
      <g id="t2">
        <path class="cls-25" d="M1776.288,825.22c1.187-11.447.553-33.039-5.284-42.851-1.974-3.31-6.804-7.177-10.579-7.012-3.709.165-8.824,1.29-10.571,4.669-1.601,3.103-2.646,9.757-2.266,13.248.526,4.854,6.036,14.799,6.036,14.799,0,0-19.745-4.086-26.435-9.347-6.609-5.207-13.751-15.072-15.859-23.378-.726-2.842-3.548-12.054.019-23.105,2.07-6.413,8.291-14.995,13.114-19.269,12.58-11.171,37.002-7.926,42.006-5.149,6.601,3.675,14.653,11.485,17.364,18.701,2.108,5.603,6.486,22.141,7.553,28.051,2.181,12.046,2.819,16.6,3.775,28.823.657,8.39,2.477,15.921.753,24.154-.925,4.435-2.077,14.607-4.593,21.308-2.527,6.735-6.413,9.999-9.757,12.975-6.835,6.086-28.696,9.35-28.696,9.35,0,0,12.011-15.64,15.103-22.595,3.682-8.267,7.388-14.331,8.317-23.374"/>
        <path class="cls-25" d="M1829.844,825.22c-1.183-11.447-.553-33.039,5.284-42.851,1.974-3.31,6.812-7.177,10.579-7.012,3.709.165,8.817,1.29,10.571,4.669,1.609,3.103,2.65,9.757,2.266,13.248-.534,4.854-6.044,14.799-6.044,14.799,0,0,19.753-4.086,26.442-9.347,6.609-5.207,13.743-15.072,15.855-23.378.726-2.842,3.548-12.054-.019-23.105-2.07-6.413-8.298-14.995-13.11-19.269-12.584-11.171-37.014-7.926-42.01-5.149-6.609,3.675-14.661,11.485-17.372,18.701-2.108,5.603-6.482,22.141-7.553,28.051-2.181,12.046-2.815,16.6-3.775,28.823-.664,8.39-2.481,15.921-.756,24.154.933,4.435,2.089,14.607,4.596,21.308,2.519,6.735,6.413,9.999,9.757,12.975,6.831,6.086,28.7,9.35,28.7,9.35,0,0-12.015-15.64-15.107-22.595-3.667-8.267-7.369-14.331-8.306-23.374"/>
        <path class="cls-25" d="M1802.93,910.257s17.641-14.926,20.567-31.818c2.623-15.199-9.07-32.989-9.961-40.147-3.537-28.623,3.971-66.755,4.646-69.869,2.692-12.38,6.071-17.679,7.876-21.734,1.302-2.918,5.007-8.721,8.713-14.342,2.127-3.229,6.862-9.239,9.277-15.356,2.557-6.478,2.726-13.075,2.769-16.593.061-5.994-1.041-11.098-2.584-15.978-1.463-4.643-6.244-12.234-13.167-16.6-7.465-4.708-13.498-8.49-15.798-9.988-7.584-4.95-12.253-21.228-12.346-21.228s-4.762,16.274-12.346,21.228c-2.296,1.498-8.056,5.28-15.525,9.988-6.92,4.362-11.704,11.958-13.16,16.6-1.548,4.881-2.646,9.984-2.577,15.978.035,3.517.207,10.115,2.769,16.593,2.411,6.113,7.146,12.119,9.277,15.356,3.709,5.622,7.411,11.424,8.709,14.342,1.805,4.055,5.188,9.354,7.876,21.734.676,3.114,8.187,41.245,4.643,69.869-.887,7.158-12.856,24.948-10.23,40.147,2.926,16.888,20.571,31.818,20.571,31.818"/>
        <path class="cls-25" d="M1842.574,818.442l-8.498-12.134h-61.997l-8.517,12.134,8.517,12.073h62.001l8.494-12.073Z"/>
      </g>
      <g id="t2-2" data-name="t2">
        <path class="cls-25" d="M1442.438,825.22c1.187-11.447.553-33.039-5.284-42.851-1.974-3.31-6.804-7.177-10.579-7.012-3.709.165-8.824,1.29-10.571,4.669-1.601,3.103-2.646,9.757-2.266,13.248.526,4.854,6.036,14.799,6.036,14.799,0,0-19.745-4.086-26.435-9.347-6.609-5.207-13.751-15.072-15.859-23.378-.726-2.842-3.548-12.054.019-23.105,2.07-6.413,8.291-14.995,13.114-19.269,12.58-11.171,37.002-7.926,42.006-5.149,6.601,3.675,14.653,11.485,17.364,18.701,2.108,5.603,6.486,22.141,7.553,28.051,2.181,12.046,2.819,16.6,3.775,28.823.657,8.39,2.477,15.921.753,24.154-.925,4.435-2.077,14.607-4.593,21.308-2.527,6.735-6.413,9.999-9.757,12.975-6.835,6.086-28.696,9.35-28.696,9.35,0,0,12.011-15.64,15.103-22.595,3.682-8.267,7.388-14.331,8.317-23.374"/>
        <path class="cls-25" d="M1495.995,825.22c-1.183-11.447-.553-33.039,5.284-42.851,1.974-3.31,6.812-7.177,10.579-7.012,3.709.165,8.817,1.29,10.571,4.669,1.609,3.103,2.65,9.757,2.266,13.248-.534,4.854-6.044,14.799-6.044,14.799,0,0,19.753-4.086,26.442-9.347,6.609-5.207,13.743-15.072,15.855-23.378.726-2.842,3.548-12.054-.019-23.105-2.07-6.413-8.298-14.995-13.11-19.269-12.584-11.171-37.014-7.926-42.01-5.149-6.609,3.675-14.661,11.485-17.372,18.701-2.108,5.603-6.482,22.141-7.553,28.051-2.181,12.046-2.815,16.6-3.775,28.823-.664,8.39-2.481,15.921-.756,24.154.933,4.435,2.089,14.607,4.596,21.308,2.519,6.735,6.413,9.999,9.757,12.975,6.831,6.086,28.7,9.35,28.7,9.35,0,0-12.015-15.64-15.107-22.595-3.667-8.267-7.369-14.331-8.306-23.374"/>
        <path class="cls-25" d="M1469.08,910.257s17.641-14.926,20.567-31.818c2.623-15.199-9.07-32.989-9.961-40.147-3.537-28.623,3.971-66.755,4.646-69.869,2.692-12.38,6.071-17.679,7.876-21.734,1.302-2.918,5.007-8.721,8.713-14.342,2.127-3.229,6.862-9.239,9.277-15.356,2.557-6.478,2.726-13.075,2.769-16.593.061-5.994-1.041-11.098-2.584-15.978-1.463-4.643-6.244-12.234-13.167-16.6-7.465-4.708-13.498-8.49-15.798-9.988-7.584-4.95-12.253-21.228-12.346-21.228s-4.762,16.274-12.346,21.228c-2.296,1.498-8.056,5.28-15.525,9.988-6.92,4.362-11.704,11.958-13.16,16.6-1.548,4.881-2.646,9.984-2.577,15.978.035,3.517.207,10.115,2.769,16.593,2.411,6.113,7.146,12.119,9.277,15.356,3.709,5.622,7.411,11.424,8.709,14.342,1.805,4.055,5.188,9.354,7.876,21.734.676,3.114,8.187,41.245,4.643,69.869-.887,7.158-12.856,24.948-10.23,40.147,2.926,16.888,20.571,31.818,20.571,31.818"/>
        <path class="cls-25" d="M1508.724,818.442l-8.498-12.134h-61.997l-8.517,12.134,8.517,12.073h62.001l8.494-12.073Z"/>
      </g>
      <g id="t2-3" data-name="t2">
        <path class="cls-25" d="M2110.138,825.22c1.187-11.447.553-33.039-5.284-42.851-1.974-3.31-6.804-7.177-10.579-7.012-3.709.165-8.824,1.29-10.571,4.669-1.601,3.103-2.646,9.757-2.266,13.248.526,4.854,6.036,14.799,6.036,14.799,0,0-19.745-4.086-26.435-9.347-6.609-5.207-13.751-15.072-15.859-23.378-.726-2.842-3.548-12.054.019-23.105,2.07-6.413,8.291-14.995,13.114-19.269,12.58-11.171,37.002-7.926,42.006-5.149,6.601,3.675,14.653,11.485,17.364,18.701,2.108,5.603,6.486,22.141,7.553,28.051,2.181,12.046,2.819,16.6,3.775,28.823.657,8.39,2.477,15.921.753,24.154-.925,4.435-2.077,14.607-4.593,21.308-2.527,6.735-6.413,9.999-9.757,12.975-6.835,6.086-28.696,9.35-28.696,9.35,0,0,12.011-15.64,15.103-22.595,3.682-8.267,7.388-14.331,8.317-23.374"/>
        <path class="cls-25" d="M2163.694,825.22c-1.183-11.447-.553-33.039,5.284-42.851,1.974-3.31,6.812-7.177,10.579-7.012,3.709.165,8.817,1.29,10.571,4.669,1.609,3.103,2.65,9.757,2.266,13.248-.534,4.854-6.044,14.799-6.044,14.799,0,0,19.753-4.086,26.442-9.347,6.609-5.207,13.743-15.072,15.855-23.378.726-2.842,3.548-12.054-.019-23.105-2.07-6.413-8.298-14.995-13.11-19.269-12.584-11.171-37.014-7.926-42.01-5.149-6.609,3.675-14.661,11.485-17.372,18.701-2.108,5.603-6.482,22.141-7.553,28.051-2.181,12.046-2.815,16.6-3.775,28.823-.664,8.39-2.481,15.921-.756,24.154.933,4.435,2.089,14.607,4.596,21.308,2.519,6.735,6.413,9.999,9.757,12.975,6.831,6.086,28.7,9.35,28.7,9.35,0,0-12.015-15.64-15.107-22.595-3.667-8.267-7.369-14.331-8.306-23.374"/>
        <path class="cls-25" d="M2136.78,910.257s17.641-14.926,20.567-31.818c2.623-15.199-9.07-32.989-9.961-40.147-3.537-28.623,3.971-66.755,4.646-69.869,2.692-12.38,6.071-17.679,7.876-21.734,1.302-2.918,5.007-8.721,8.713-14.342,2.127-3.229,6.862-9.239,9.277-15.356,2.557-6.478,2.726-13.075,2.769-16.593.061-5.994-1.041-11.098-2.584-15.978-1.463-4.643-6.244-12.234-13.167-16.6-7.465-4.708-13.498-8.49-15.798-9.988-7.584-4.95-12.253-21.228-12.346-21.228s-4.762,16.274-12.346,21.228c-2.296,1.498-8.056,5.28-15.525,9.988-6.92,4.362-11.704,11.958-13.16,16.6-1.548,4.881-2.646,9.984-2.577,15.978.035,3.517.207,10.115,2.769,16.593,2.411,6.113,7.146,12.119,9.277,15.356,3.709,5.622,7.411,11.424,8.709,14.342,1.805,4.055,5.188,9.354,7.876,21.734.676,3.114,8.187,41.245,4.643,69.869-.887,7.158-12.856,24.948-10.23,40.147,2.926,16.888,20.571,31.818,20.571,31.818"/>
        <path class="cls-25" d="M2176.424,818.442l-8.498-12.134h-61.997l-8.517,12.134,8.517,12.073h62.001l8.494-12.073Z"/>
      </g>
      <g id="t3">
        <path class="cls-19" d="M1709.38,1687.373h186.947v43.757h-186.947v-43.757ZM1709.372,1677.854c-.311-41.092-6.09-83.459-23.616-119.539,2.173-.653,4.474-.998,6.854-.998,13.213,0,23.927,10.706,23.927,23.919,0,3.279-.649,6.386-1.839,9.22,3.072-1.436,6.501-2.235,10.115-2.235,13.21,0,23.927,10.714,23.927,23.939s-10.717,23.923-23.927,23.923c-1.713,0-3.387-.192-5-.53,1.793,16.147,10.08,28.381,20.029,28.381,7.68,0,14.362-7.284,17.844-18.033,3.475,10.748,10.168,18.033,17.844,18.033,10.694,0,19.465-14.135,20.317-32.087-3.855,2.669-8.529,4.236-13.567,4.236-13.221,0-23.931-10.717-23.931-23.923s10.618-23.835,23.747-23.939c-2.016-3.498-3.172-7.569-3.172-11.908,0-13.213,10.714-23.923,23.927-23.923s23.931,10.71,23.931,23.923c0,4.331-1.164,8.41-3.176,11.908,13.129.1,23.747,10.779,23.747,23.939s-10.714,23.923-23.927,23.923c-5.042,0-9.711-1.567-13.571-4.236.849,17.952,9.623,32.087,20.325,32.087,7.68,0,14.365-7.284,17.844-18.033,3.479,10.748,10.161,18.033,17.841,18.033,9.957,0,18.236-12.234,20.037-28.381-1.613.338-3.295.53-5.007.53-13.21,0-23.923-10.717-23.923-23.923s10.714-23.939,23.923-23.939c3.613,0,7.046.803,10.115,2.235-1.179-2.838-1.839-5.944-1.839-9.22,0-13.213,10.714-23.919,23.923-23.919,2.389,0,4.696.346,6.862.998-17.53,36.081-23.305,78.447-23.62,119.539h-186.966Z"/>
        <path class="cls-11" d="M1808.348,1612.04l25.475-3.994-26.765-4.205-4.205-26.761-4.189,26.761-26.769,4.205,25.478,3.994h10.975Z"/>
        <path class="cls-11" d="M1708.531,1694.573c.979-.004,1.955.365,2.696,1.11.388.396.676.845.864,1.344l4.412,9.7c.465,1.033.426,2.162-.004,3.126h.004l-4.504,9.903c-.634,1.405-2.016,2.235-3.471,2.235l.004-27.418h0Z"/>
        <path class="cls-11" d="M1710.731,1618.787l24.426-8.26-27.087.396-8.678-25.655,6.513,32.26,4.827,1.26Z"/>
        <path class="cls-11" d="M1703.843,1606.172h.257c.242.015.442.038.607.054.507.061.971.246,1.348.541l.011.015.019.015c.457.334.887.691,1.283,1.06l.131.146c.419.392.791.776,1.098,1.156l.131.161c1.878,2.354,3.007,5.341,3.007,8.582h.015v.035h-.015c0,1.248-.161,2.427-.465,3.533l-.035.115-.115.384c-.023.077-.05.146-.073.215l-.015.031-.015.035c-.284.841-.637,1.667-1.068,2.411-.234.422-.576.745-.968.983h.004l-.023.015-.015.004-.019.019c-.177.1-.384.219-.634.353l-.499.242c-1.233-6.781-2.715-13.494-4.454-20.091l.161-.011v-.004h.019c.111,0,.211.004.323.015,0,0,0-.015,0-.015Z"/>
        <path class="cls-14" d="M1785.028,1708.681l16.762-9.903,16.762,9.903-16.762,9.903-16.762-9.903Z"/>
        <path class="cls-20" d="M1785.028,1708.681l16.762-9.903,16.762,9.903-16.762,9.903-16.762-9.903Z"/>
        <path class="cls-14" d="M1785.028,1708.681l16.762-9.903,16.762,9.903-16.762,9.903-16.762-9.903Z"/>
        <path class="cls-12" d="M1818.551,1708.681l-16.47,9.731-.292.173v-9.903h16.762Z"/>
        <path class="cls-1" d="M1801.789,1708.681v9.903l-16.765-9.903h16.765Z"/>
        <path class="cls-15" d="M1801.789,1698.766v9.911h16.762l-.396-.234-15.168-8.963-1.198-.714Z"/>
        <path class="cls-3" d="M1699.484,1708.332l9.896-9.9,4.508,9.9-4.508,9.903-9.896-9.903Z"/>
        <path class="cls-8" d="M1699.484,1708.332h14.404l-4.508,9.903-9.896-9.903Z"/>
        <path class="cls-9" d="M1703.524,1608.845c.296,0,.588.015.879.054,2.811,1.997,4.65,5.295,4.65,9.009,0,1.974-.53,3.825-1.436,5.43-1.194.733-2.592,1.167-4.093,1.167-4.324,0-7.834-3.506-7.834-7.83s3.51-7.83,7.834-7.83"/>
        <path class="cls-18" d="M1703.524,1608.845c.296,0,.588.015.879.054,2.811,1.997,4.65,5.295,4.65,9.009,0,1.974-.53,3.825-1.436,5.43-1.194.733-2.592,1.167-4.093,1.167-4.324,0-7.834-3.506-7.834-7.83s3.51-7.83,7.834-7.83Z"/>
        <path class="cls-10" d="M1699.772,1611.952c2.062,0,3.736,1.682,3.736,3.74s-1.67,3.74-3.736,3.74-3.74-1.674-3.74-3.74,1.674-3.74,3.74-3.74"/>
        <path class="cls-11" d="M1894.982,1618.787l-24.422-8.26,27.076.396,8.678-25.655-6.509,32.26-4.823,1.26Z"/>
        <path class="cls-11" d="M1901.879,1606.172h-.269c-.23.015-.438.038-.599.054-.503.061-.975.246-1.344.541l-.015.015-.015.015c-.457.334-.887.691-1.283,1.06l-.142.146c-.419.392-.783.776-1.091,1.156l-.131.161c-1.882,2.354-3.014,5.341-3.014,8.582h-.004v.035h.004c.004,1.248.173,2.427.476,3.533l.042.115.108.384c.019.077.046.146.073.215l.015.031.015.035c.284.841.637,1.667,1.071,2.411.23.422.572.745.964.983l.015.015.023.004.015.019c.177.1.384.219.634.353l.495.242c1.24-6.781,2.711-13.494,4.458-20.091l-.161-.011v-.004h-.023c-.108,0-.207.004-.323.015l.004-.015Z"/>
        <path class="cls-9" d="M1902.202,1608.845c-.303,0-.607.015-.891.054-2.807,1.997-4.643,5.295-4.643,9.009,0,1.974.518,3.825,1.429,5.43,1.206.733,2.592,1.167,4.105,1.167,4.316,0,7.818-3.506,7.818-7.83s-3.502-7.83-7.818-7.83"/>
        <path class="cls-18" d="M1902.202,1608.845c-.303,0-.607.015-.891.054-2.807,1.997-4.643,5.295-4.643,9.009,0,1.974.518,3.825,1.429,5.43,1.206.733,2.592,1.167,4.105,1.167,4.316,0,7.818-3.506,7.818-7.83s-3.502-7.83-7.818-7.83Z"/>
        <path class="cls-10" d="M1903.576,1610.473c-2.062,0-3.74,1.67-3.74,3.736s1.674,3.732,3.74,3.732c2.054,0,3.74-1.67,3.74-3.732-.004-2.066-1.686-3.736-3.74-3.736"/>
        <path class="cls-11" d="M1897.187,1694.573c-.979-.004-1.955.365-2.703,1.11-.384.396-.676.845-.864,1.344l-4.412,9.7c-.461,1.033-.426,2.162.011,3.126h-.011l4.504,9.903c.634,1.405,2.02,2.235,3.475,2.235v-27.418Z"/>
        <path class="cls-15" d="M1906.234,1708.332l-9.903-9.9-4.508,9.9,4.508,9.903,9.903-9.903Z"/>
        <path class="cls-12" d="M1906.234,1708.332h-14.411l4.508,9.903,9.903-9.903Z"/>
        <circle class="cls-31" cx="1802.865" cy="1608.089" r="8.782"/>
        <circle class="cls-10" cx="1801.286" cy="1605.377" r="3.744"/>
        <circle class="cls-31" cx="1759.023" cy="1699.934" r="6.405"/>
        <circle class="cls-10" cx="1757.925" cy="1698.048" r="2.6"/>
        <circle class="cls-31" cx="1759.023" cy="1718.569" r="6.405"/>
        <circle class="cls-10" cx="1757.925" cy="1716.68" r="2.6"/>
        <circle class="cls-31" cx="1847.654" cy="1699.934" r="6.405"/>
        <circle class="cls-10" cx="1846.556" cy="1698.048" r="2.6"/>
        <circle class="cls-31" cx="1847.654" cy="1718.569" r="6.405"/>
        <circle class="cls-10" cx="1846.556" cy="1716.68" r="2.6"/>
      </g>
      <g id="t3-2" data-name="t3">
        <path class="cls-19" d="M1520.64,1475.774h186.947v43.757h-186.947v-43.757ZM1520.632,1466.254c-.311-41.092-6.09-83.459-23.616-119.539,2.173-.653,4.474-.998,6.854-.998,13.213,0,23.927,10.706,23.927,23.919,0,3.279-.649,6.386-1.839,9.22,3.072-1.436,6.501-2.235,10.115-2.235,13.21,0,23.927,10.714,23.927,23.939s-10.717,23.923-23.927,23.923c-1.713,0-3.387-.192-5-.53,1.793,16.147,10.08,28.381,20.029,28.381,7.68,0,14.362-7.284,17.844-18.033,3.475,10.748,10.168,18.033,17.844,18.033,10.694,0,19.465-14.135,20.317-32.087-3.855,2.669-8.529,4.236-13.567,4.236-13.221,0-23.931-10.717-23.931-23.923s10.618-23.835,23.747-23.939c-2.016-3.498-3.172-7.569-3.172-11.908,0-13.213,10.714-23.923,23.927-23.923s23.931,10.71,23.931,23.923c0,4.331-1.164,8.41-3.176,11.908,13.129.1,23.747,10.779,23.747,23.939s-10.714,23.923-23.927,23.923c-5.042,0-9.711-1.567-13.571-4.236.849,17.952,9.623,32.087,20.325,32.087,7.68,0,14.365-7.284,17.844-18.033,3.479,10.748,10.161,18.033,17.841,18.033,9.957,0,18.236-12.234,20.037-28.381-1.613.338-3.295.53-5.007.53-13.21,0-23.923-10.717-23.923-23.923s10.714-23.939,23.923-23.939c3.613,0,7.046.803,10.115,2.235-1.179-2.838-1.839-5.944-1.839-9.22,0-13.213,10.714-23.919,23.923-23.919,2.389,0,4.696.346,6.862.998-17.53,36.081-23.305,78.447-23.62,119.539h-186.966Z"/>
        <path class="cls-11" d="M1619.608,1400.441l25.475-3.994-26.765-4.205-4.205-26.761-4.189,26.761-26.769,4.205,25.478,3.994h10.975Z"/>
        <path class="cls-11" d="M1519.791,1482.974c.979-.004,1.955.365,2.696,1.11.388.396.676.845.864,1.344l4.412,9.7c.465,1.033.426,2.162-.004,3.126h.004l-4.504,9.903c-.634,1.405-2.016,2.235-3.471,2.235l.004-27.418h0Z"/>
        <path class="cls-11" d="M1521.992,1407.187l24.426-8.26-27.087.396-8.678-25.655,6.513,32.26,4.827,1.26Z"/>
        <path class="cls-11" d="M1515.103,1394.573h.257c.242.015.442.038.607.054.507.061.971.246,1.348.541l.011.015.019.015c.457.334.887.691,1.283,1.06l.131.146c.419.392.791.776,1.098,1.156l.131.161c1.878,2.354,3.007,5.341,3.007,8.582h.015v.035h-.015c0,1.248-.161,2.427-.465,3.533l-.035.115-.115.384c-.023.077-.05.146-.073.215l-.015.031-.015.035c-.284.841-.637,1.667-1.068,2.411-.234.422-.576.745-.968.983h.004l-.023.015-.015.004-.019.019c-.177.1-.384.219-.634.353l-.499.242c-1.233-6.781-2.715-13.494-4.454-20.091l.161-.011v-.004h.019c.111,0,.211.004.323.015,0,0,0-.015,0-.015Z"/>
        <path class="cls-14" d="M1596.288,1497.082l16.762-9.903,16.762,9.903-16.762,9.903-16.762-9.903Z"/>
        <path class="cls-20" d="M1596.288,1497.082l16.762-9.903,16.762,9.903-16.762,9.903-16.762-9.903Z"/>
        <path class="cls-14" d="M1596.288,1497.082l16.762-9.903,16.762,9.903-16.762,9.903-16.762-9.903Z"/>
        <path class="cls-12" d="M1629.811,1497.082l-16.47,9.731-.292.173v-9.903h16.762Z"/>
        <path class="cls-1" d="M1613.05,1497.082v9.903l-16.765-9.903h16.765Z"/>
        <path class="cls-15" d="M1613.05,1487.167v9.911h16.762l-.396-.234-15.168-8.963-1.198-.714Z"/>
        <path class="cls-3" d="M1510.744,1496.732l9.896-9.9,4.508,9.9-4.508,9.903-9.896-9.903Z"/>
        <path class="cls-8" d="M1510.744,1496.732h14.404l-4.508,9.903-9.896-9.903Z"/>
        <path class="cls-9" d="M1514.784,1397.246c.296,0,.588.015.879.054,2.811,1.997,4.65,5.295,4.65,9.009,0,1.974-.53,3.825-1.436,5.43-1.194.733-2.592,1.167-4.093,1.167-4.324,0-7.834-3.506-7.834-7.83s3.51-7.83,7.834-7.83"/>
        <path class="cls-18" d="M1514.784,1397.246c.296,0,.588.015.879.054,2.811,1.997,4.65,5.295,4.65,9.009,0,1.974-.53,3.825-1.436,5.43-1.194.733-2.592,1.167-4.093,1.167-4.324,0-7.834-3.506-7.834-7.83s3.51-7.83,7.834-7.83Z"/>
        <path class="cls-10" d="M1511.032,1400.352c2.062,0,3.736,1.682,3.736,3.74s-1.67,3.74-3.736,3.74-3.74-1.674-3.74-3.74,1.674-3.74,3.74-3.74"/>
        <path class="cls-11" d="M1706.243,1407.187l-24.422-8.26,27.076.396,8.678-25.655-6.509,32.26-4.823,1.26Z"/>
        <path class="cls-11" d="M1713.139,1394.573h-.269c-.23.015-.438.038-.599.054-.503.061-.975.246-1.344.541l-.015.015-.015.015c-.457.334-.887.691-1.283,1.06l-.142.146c-.419.392-.783.776-1.091,1.156l-.131.161c-1.882,2.354-3.014,5.341-3.014,8.582h-.004v.035h.004c.004,1.248.173,2.427.476,3.533l.042.115.108.384c.019.077.046.146.073.215l.015.031.015.035c.284.841.637,1.667,1.071,2.411.23.422.572.745.964.983l.015.015.023.004.015.019c.177.1.384.219.634.353l.495.242c1.24-6.781,2.711-13.494,4.458-20.091l-.161-.011v-.004h-.023c-.108,0-.207.004-.323.015l.004-.015Z"/>
        <path class="cls-9" d="M1713.462,1397.246c-.303,0-.607.015-.891.054-2.807,1.997-4.643,5.295-4.643,9.009,0,1.974.518,3.825,1.429,5.43,1.206.733,2.592,1.167,4.105,1.167,4.316,0,7.818-3.506,7.818-7.83s-3.502-7.83-7.818-7.83"/>
        <path class="cls-18" d="M1713.462,1397.246c-.303,0-.607.015-.891.054-2.807,1.997-4.643,5.295-4.643,9.009,0,1.974.518,3.825,1.429,5.43,1.206.733,2.592,1.167,4.105,1.167,4.316,0,7.818-3.506,7.818-7.83s-3.502-7.83-7.818-7.83Z"/>
        <path class="cls-10" d="M1714.836,1398.874c-2.062,0-3.74,1.67-3.74,3.736s1.674,3.732,3.74,3.732c2.054,0,3.74-1.67,3.74-3.732-.004-2.066-1.686-3.736-3.74-3.736"/>
        <path class="cls-11" d="M1708.447,1482.974c-.979-.004-1.955.365-2.703,1.11-.384.396-.676.845-.864,1.344l-4.412,9.7c-.461,1.033-.426,2.162.011,3.126h-.011l4.504,9.903c.634,1.405,2.02,2.235,3.475,2.235v-27.418Z"/>
        <path class="cls-15" d="M1717.494,1496.732l-9.903-9.9-4.508,9.9,4.508,9.903,9.903-9.903Z"/>
        <path class="cls-12" d="M1717.494,1496.732h-14.411l4.508,9.903,9.903-9.903Z"/>
        <circle class="cls-31" cx="1614.125" cy="1396.489" r="8.782"/>
        <circle class="cls-10" cx="1612.547" cy="1393.778" r="3.744"/>
        <circle class="cls-31" cx="1570.284" cy="1488.334" r="6.405"/>
        <circle class="cls-10" cx="1569.185" cy="1486.449" r="2.6"/>
        <circle class="cls-31" cx="1570.284" cy="1506.97" r="6.405"/>
        <circle class="cls-10" cx="1569.185" cy="1505.081" r="2.6"/>
        <circle class="cls-31" cx="1658.915" cy="1488.334" r="6.405"/>
        <circle class="cls-10" cx="1657.816" cy="1486.449" r="2.6"/>
        <circle class="cls-31" cx="1658.915" cy="1506.97" r="6.405"/>
        <circle class="cls-10" cx="1657.816" cy="1505.081" r="2.6"/>
      </g>
      <g id="t3-3" data-name="t3">
        <path class="cls-19" d="M1898.12,1475.774h186.947v43.757h-186.947v-43.757ZM1898.112,1466.254c-.311-41.092-6.09-83.459-23.616-119.539,2.173-.653,4.474-.998,6.854-.998,13.213,0,23.927,10.706,23.927,23.919,0,3.279-.649,6.386-1.839,9.22,3.072-1.436,6.501-2.235,10.115-2.235,13.21,0,23.927,10.714,23.927,23.939s-10.717,23.923-23.927,23.923c-1.713,0-3.387-.192-5-.53,1.793,16.147,10.08,28.381,20.029,28.381,7.68,0,14.362-7.284,17.844-18.033,3.475,10.748,10.168,18.033,17.844,18.033,10.694,0,19.465-14.135,20.317-32.087-3.855,2.669-8.529,4.236-13.567,4.236-13.221,0-23.931-10.717-23.931-23.923s10.618-23.835,23.747-23.939c-2.016-3.498-3.172-7.569-3.172-11.908,0-13.213,10.714-23.923,23.927-23.923s23.931,10.71,23.931,23.923c0,4.331-1.164,8.41-3.176,11.908,13.129.1,23.747,10.779,23.747,23.939s-10.714,23.923-23.927,23.923c-5.042,0-9.711-1.567-13.571-4.236.849,17.952,9.623,32.087,20.325,32.087,7.68,0,14.365-7.284,17.844-18.033,3.479,10.748,10.161,18.033,17.841,18.033,9.957,0,18.236-12.234,20.037-28.381-1.613.338-3.295.53-5.007.53-13.21,0-23.923-10.717-23.923-23.923s10.714-23.939,23.923-23.939c3.613,0,7.046.803,10.115,2.235-1.179-2.838-1.839-5.944-1.839-9.22,0-13.213,10.714-23.919,23.923-23.919,2.389,0,4.696.346,6.862.998-17.53,36.081-23.305,78.447-23.62,119.539h-186.966Z"/>
        <path class="cls-11" d="M1997.088,1400.441l25.475-3.994-26.765-4.205-4.205-26.761-4.189,26.761-26.769,4.205,25.478,3.994h10.975Z"/>
        <path class="cls-11" d="M1897.271,1482.974c.979-.004,1.955.365,2.696,1.11.388.396.676.845.864,1.344l4.412,9.7c.465,1.033.426,2.162-.004,3.126h.004l-4.504,9.903c-.634,1.405-2.016,2.235-3.471,2.235l.004-27.418h0Z"/>
        <path class="cls-11" d="M1899.471,1407.187l24.426-8.26-27.087.396-8.678-25.655,6.513,32.26,4.827,1.26Z"/>
        <path class="cls-11" d="M1892.582,1394.573h.257c.242.015.442.038.607.054.507.061.971.246,1.348.541l.011.015.019.015c.457.334.887.691,1.283,1.06l.131.146c.419.392.791.776,1.098,1.156l.131.161c1.878,2.354,3.007,5.341,3.007,8.582h.015v.035h-.015c0,1.248-.161,2.427-.465,3.533l-.035.115-.115.384c-.023.077-.05.146-.073.215l-.015.031-.015.035c-.284.841-.637,1.667-1.068,2.411-.234.422-.576.745-.968.983h.004l-.023.015-.015.004-.019.019c-.177.1-.384.219-.634.353l-.499.242c-1.233-6.781-2.715-13.494-4.454-20.091l.161-.011v-.004h.019c.111,0,.211.004.323.015,0,0,0-.015,0-.015Z"/>
        <path class="cls-14" d="M1973.768,1497.082l16.762-9.903,16.762,9.903-16.762,9.903-16.762-9.903Z"/>
        <path class="cls-20" d="M1973.768,1497.082l16.762-9.903,16.762,9.903-16.762,9.903-16.762-9.903Z"/>
        <path class="cls-14" d="M1973.768,1497.082l16.762-9.903,16.762,9.903-16.762,9.903-16.762-9.903Z"/>
        <path class="cls-12" d="M2007.291,1497.082l-16.47,9.731-.292.173v-9.903h16.762Z"/>
        <path class="cls-1" d="M1990.529,1497.082v9.903l-16.765-9.903h16.765Z"/>
        <path class="cls-15" d="M1990.529,1487.167v9.911h16.762l-.396-.234-15.168-8.963-1.198-.714Z"/>
        <path class="cls-3" d="M1888.224,1496.732l9.896-9.9,4.508,9.9-4.508,9.903-9.896-9.903Z"/>
        <path class="cls-8" d="M1888.224,1496.732h14.404l-4.508,9.903-9.896-9.903Z"/>
        <path class="cls-9" d="M1892.264,1397.246c.296,0,.588.015.879.054,2.811,1.997,4.65,5.295,4.65,9.009,0,1.974-.53,3.825-1.436,5.43-1.194.733-2.592,1.167-4.093,1.167-4.324,0-7.834-3.506-7.834-7.83s3.51-7.83,7.834-7.83"/>
        <path class="cls-18" d="M1892.264,1397.246c.296,0,.588.015.879.054,2.811,1.997,4.65,5.295,4.65,9.009,0,1.974-.53,3.825-1.436,5.43-1.194.733-2.592,1.167-4.093,1.167-4.324,0-7.834-3.506-7.834-7.83s3.51-7.83,7.834-7.83Z"/>
        <path class="cls-10" d="M1888.512,1400.352c2.062,0,3.736,1.682,3.736,3.74s-1.67,3.74-3.736,3.74-3.74-1.674-3.74-3.74,1.674-3.74,3.74-3.74"/>
        <path class="cls-11" d="M2083.722,1407.187l-24.422-8.26,27.076.396,8.678-25.655-6.509,32.26-4.823,1.26Z"/>
        <path class="cls-11" d="M2090.619,1394.573h-.269c-.23.015-.438.038-.599.054-.503.061-.975.246-1.344.541l-.015.015-.015.015c-.457.334-.887.691-1.283,1.06l-.142.146c-.419.392-.783.776-1.091,1.156l-.131.161c-1.882,2.354-3.014,5.341-3.014,8.582h-.004v.035h.004c.004,1.248.173,2.427.476,3.533l.042.115.108.384c.019.077.046.146.073.215l.015.031.015.035c.284.841.637,1.667,1.071,2.411.23.422.572.745.964.983l.015.015.023.004.015.019c.177.1.384.219.634.353l.495.242c1.24-6.781,2.711-13.494,4.458-20.091l-.161-.011v-.004h-.023c-.108,0-.207.004-.323.015l.004-.015Z"/>
        <path class="cls-9" d="M2090.941,1397.246c-.303,0-.607.015-.891.054-2.807,1.997-4.643,5.295-4.643,9.009,0,1.974.518,3.825,1.429,5.43,1.206.733,2.592,1.167,4.105,1.167,4.316,0,7.818-3.506,7.818-7.83s-3.502-7.83-7.818-7.83"/>
        <path class="cls-18" d="M2090.941,1397.246c-.303,0-.607.015-.891.054-2.807,1.997-4.643,5.295-4.643,9.009,0,1.974.518,3.825,1.429,5.43,1.206.733,2.592,1.167,4.105,1.167,4.316,0,7.818-3.506,7.818-7.83s-3.502-7.83-7.818-7.83Z"/>
        <path class="cls-10" d="M2092.316,1398.874c-2.062,0-3.74,1.67-3.74,3.736s1.674,3.732,3.74,3.732c2.054,0,3.74-1.67,3.74-3.732-.004-2.066-1.686-3.736-3.74-3.736"/>
        <path class="cls-11" d="M2085.926,1482.974c-.979-.004-1.955.365-2.703,1.11-.384.396-.676.845-.864,1.344l-4.412,9.7c-.461,1.033-.426,2.162.011,3.126h-.011l4.504,9.903c.634,1.405,2.02,2.235,3.475,2.235v-27.418Z"/>
        <path class="cls-15" d="M2094.973,1496.732l-9.903-9.9-4.508,9.9,4.508,9.903,9.903-9.903Z"/>
        <path class="cls-12" d="M2094.973,1496.732h-14.411l4.508,9.903,9.903-9.903Z"/>
        <circle class="cls-31" cx="1991.604" cy="1396.489" r="8.782"/>
        <circle class="cls-10" cx="1990.026" cy="1393.778" r="3.744"/>
        <circle class="cls-31" cx="1947.763" cy="1488.334" r="6.405"/>
        <circle class="cls-10" cx="1946.665" cy="1486.449" r="2.6"/>
        <circle class="cls-31" cx="1947.763" cy="1506.97" r="6.405"/>
        <circle class="cls-10" cx="1946.665" cy="1505.081" r="2.6"/>
        <circle class="cls-31" cx="2036.394" cy="1488.334" r="6.405"/>
        <circle class="cls-10" cx="2035.296" cy="1486.449" r="2.6"/>
        <circle class="cls-31" cx="2036.394" cy="1506.97" r="6.405"/>
        <circle class="cls-10" cx="2035.296" cy="1505.081" r="2.6"/>
      </g>
    </g>
  </g>
</svg>