<?xml version="1.0" encoding="UTF-8"?>
<svg xmlns="http://www.w3.org/2000/svg" viewBox="0 0 3600.1 2401.738">
  <defs>
    <style>
      .cls-1, .cls-2, .cls-3, .cls-4, .cls-5, .cls-6, .cls-7, .cls-8, .cls-9 {
        stroke-width: 0px;
      }

      .cls-1, .cls-10, .cls-11 {
        fill: #784421;
      }

      .cls-2 {
        fill: #2f8f22;
      }

      .cls-10 {
        stroke-width: 1.369px;
      }

      .cls-10, .cls-12, .cls-13, .cls-14, .cls-15, .cls-11, .cls-16, .cls-17, .cls-18, .cls-19, .cls-20 {
        stroke: #000;
      }

      .cls-21, .cls-12, .cls-14, .cls-17, .cls-18 {
        stroke-miterlimit: 2.613;
      }

      .cls-21, .cls-22, .cls-23 {
        stroke: #012169;
      }

      .cls-21, .cls-11, .cls-16, .cls-17, .cls-18, .cls-19 {
        stroke-width: 2.243px;
      }

      .cls-21, .cls-16 {
        fill: #64b4d1;
      }

      .cls-12, .cls-13, .cls-14, .cls-22, .cls-23 {
        stroke-width: 2.991px;
      }

      .cls-12, .cls-13, .cls-22, .cls-15, .cls-18, .cls-19 {
        fill: none;
      }

      .cls-13, .cls-22, .cls-23, .cls-19 {
        stroke-miterlimit: 10;
      }

      .cls-14 {
        fill: #f5ce00;
      }

      .cls-4, .cls-23 {
        fill: #fff;
      }

      .cls-15 {
        stroke-width: 7.2px;
      }

      .cls-5 {
        fill: #00247d;
      }

      .cls-5, .cls-8, .cls-9 {
        fill-rule: evenodd;
      }

      .cls-6, .cls-9 {
        fill: #eee;
      }

      .cls-17 {
        fill: #e4cb5e;
      }

      .cls-7, .cls-8 {
        fill: #cf1b2b;
      }

      .cls-20 {
        fill: #c8102e;
        stroke-linejoin: round;
        stroke-width: 2.992px;
      }
    </style>
  </defs>
  <g id="background">
    <path id="bm" class="cls-8" d="M400,.1h2800c220,0,400,180,400,400v1600c0,220-180,400-400,400H400C180,2400.1,0,2220.1,0,2000.1V400.1C0,180.1,180,.1,400,.1Z"/>
  </g>
  <g id="country">
    <g id="bm-2" data-name="bm">
      <path class="cls-4" d="M3115.3,684.09v762.253c0,203.605-407.023,269.759-407.023,269.759,0,0-407.023-66.154-407.023-269.759v-762.253h814.046Z"/>
      <path class="cls-2" d="M3115.3,1446.344c0,203.605-407.023,269.759-407.023,269.759,0,0-407.023-66.154-407.023-269.759,0,0,0-16.398,8.284-25.722,0,0-4.485,33.865,21.532,59.479,0,0-20.408-36.133-.45-71.644,0,0-7.402,45.688,21.082,71.924,0,0-15.7-37.321,2.02-78.937,0,0-8.748,68.08,22.205,81.652,0,0,8.521-39.128-3.812-64.235,0,0,21.308,8.593,20.185,65.365,0,0,6.728-8.37,8.521-49.309,0,0,.896,46.818,17.046,57.676,0,0,4.935-4.748-1.793-26.01-6.728-21.262,2.916-28.724,4.485-28.274,0,0-3.539,23.522,16.175,41.166,0,0-8.546-36.868,3.341-41.843,0,0-2.466,31.212,22.205,38.225,0,0,1.793-9.047-3.589-19.224,0,0-4.709-12.071-1.123-21.305,0,0,7.852,28.314,18.616,33.066,0,0-6.505-16.596-.45-33.066,0,0,1.346,23.566,22.428,33.289,0,0-13.889-18.241-8.402-38.3l135.572,6.635,70.204,3.348,210.607-14.882,36.335-31.212s14.353,19.904-8.298,51.343c0,0,22.428-4.072,29.606-39.128,0,0,9.194,19.451-3.366,40.939,0,0,24.898-24.88,28.483-53.154,0,0,9.644,27.367-13.907,56.772,0,0,21.082-7.013,30.056-38.225,0,0,7.178,18.799-13.234,45.364,0,0,38.128-20.257,37.008-62.1,0,0,15.923,23.069-2.243,54.734,0,0,19.512-17.417,21.308-43.427,0,0,10.768,11.761-.896,44.104,0,0,23.774-22.392,27.364-46.595,0,0,5.159,22.392-15.253,50.663,0,0,13.907-3.391,27.14-30.985,0,0,3.589,10.858-8.521,30.762,0,0,13.01-2.261,21.755-27.14,0,0,1.57,14.929-2.243,28.274,0,0,10.094-6.559,12.337-34.834,0,0,5.638,9.274,5.735,20.808.09,11.538-.007,3.964-.007,3.964h0Z"/>
      <g>
        <path class="cls-20" d="M2905.7,1005.696s-14.144,2.405-32.31-3.132c-18.166-5.533-25.51-3.287-31.147,0,0,0,7.373-14.598-10.57-26.125,0,0,5.832,14.738-2.243,21.622,0,0-3.589,3.377-7.852-1.71,0,0-6.278-6.448-12.895-11.423,0,0,15.253-5.314,12.449-20.808-2.804-15.494-11.102-17.528-15.588-19.451,0,0,1.57,7.013,0,11.761,0,0-16.596-9.274,5.944-22.392,22.54-13.118,18.392-20.808,14.353-27.482-4.035-6.671-12.672-14.022-16.934-16.625,0,0,4.485,7.013,3.701,13.007-.785,5.994-10.991,9.839-8.971-.677,2.02-10.519-.112-8.708-.338-19.904,0,0,20.074,6.786,27.925-12.78,0,0,7.736-20.243-17.608-30.308,0,0,6.167,8.255,3.139,14.476,0,0-5.382,10.177-11.776,1.922s-10.429-9.839-9.756-19.566c0,0,22.99,3.168,16.711-21.827,0,0-3.701,16.625-33.53-5.767,0,0,19.4-19.904,11.887-35.964,0,0-2.354-7.351-23.44-3.053,0,0,18.281-11.534,10.541-21.373,0,0-3.924-6.559-20.97,2.034,0,0,6.617-11.423-10.094-23.749,0,0-11.214,5.882-17.158,11.308,0,0-11.437-14.476-18.727-20.243,0,0-13.234,5.09-16.596,20.243,0,0-6.167-7.351-20.185-10.742,0,0-6.728,12.442,2.02,23.296,0,0-6.505-.227-18.392-5.429,0,0-13.568-6.448-11.552,5.202,2.016,11.65,3.028,14.249,5.72,19.678,0,0-30.449-7.07-29.156,9.385.896,11.423,5.159,21.262,14.58,29.516,0,0-17.046,22.28-31.626,5.54,0,0-5.047,5.429,5.832,19.678,0,0,10.879,11.988,1.908,19.566,0,0-11.999,9.612-17.831-9.047,0,0-19.4,19.339,3.478,34.153,0,0,14.692,8.37,29.718-4.525,0,0-4.597,37.094-18.954,29.97,0,0-8.636-6.332,6.84-13.91,0,0-22.316-2.826-25.906,18.774,0,0-2.754,17.186,16.708,23.411,0,0,15.026,5.429-.562,17.078,0,0-10.991,8.37-3.812,20.808,0,0,8.636,13.684-13.234,15.041,0,0-11.887-.112-16.15-1.696,0,0-4.795,8.917-1.444,19.105,0,0-10.89-8.114-35.676.864-24.782,8.982-22.878,2.65-24.898,5.364-2.02,2.714-6.84,11.873-6.84,11.873,0,0,13.01,15.833,13.234,15.494s-2.466,18.094-2.466,18.094l6.394,3.053,51.026-22.73,51.811-27,41.656,2.552,26.417,6.289,34.7,2.527,24.851-13.255h35.996l39.593,19.728,45.187,26.96,23.551,4.129,18.144-.968v-36.598l-8.828-13.241Z"/>
        <path class="cls-20" d="M2494.706,1048.49s19.739,10.066,27.979-2.149c0,0,10.768-20.527-12.87-27.652,0,0,12.87-15.437-.925-29.686,0,0-7.232-7.632-19.85-2.034,0,0-5.216-10.858-17.496-10.519,0,0-10.764-.169-14.465,11.704,0,0-14.803-6.106-23.047,2.714,0,0-13.626,15.268,5.382,27.313l13.68,1.246,13.457-6.221,15.026,4.298c.011-.004-3.859,15.21,13.129,30.985h0Z"/>
        <path class="cls-16" d="M2935.292,1012.392c23.778-2.239,32.173,17.827,32.173,17.827,12.463,29.239-14.004,44.849-14.004,44.849,2.02,6.559,2.243,15.152,2.243,15.152,37.231,4.525,30.722,46.368,30.722,46.368l-12.33-10.177c-21.532-8.37-43.736,9.95-59.659,40.712-15.923,30.762-8.298,45.238-5.609,81.652,2.693,36.414,61.902,58.129,61.902,58.129,0,0-28.037,72.151-46.202,118.519-18.166,46.368-56.074,27.14-67.061,17.374-10.991-9.767-13.738-4.342-19.289,0s24.898,28.087-30.503,50.479c-55.4,22.392-65.045,39.582-74.239,45.238-9.194,5.656-47.549,1.811-51.361-2.941-3.812-4.748-1.57-4.748-15.923-13.572-14.353-8.82-38.578-16.51-65.045-29.405-26.467-12.892-25.794-29.405-25.567-32.796.223-3.391,9.194-30.985-21.802-9.047-30.996,21.938-57.373-10.447-57.373-10.447-6.055-7.96-31.849-77.083-31.849-77.083-6.952-25.783-20.635-55.868-20.635-55.868.673-.227-1.346,3.168,21.532-9.95,22.878-13.118,33.124-34.945,41.044-56.545,7.92-21.6.223-58.579-2.693-66.046-2.916-7.463-19.962-41.684-41.069-48.856-21.107-7.171-35.262,10.631-35.262,10.631,0,0-6.512-41.843,30.722-46.368,0,0,.223-8.593,2.243-15.152,0,0-26.467-15.606-14.004-44.849,0,0,8.395-20.066,32.173-17.827l-5.753,10.879s-5.987,59.713,81.418,19.678c87.404-40.036,84.78-47.498,134.572-22.392l36.335-.677s52.484-24.278,69.304-13.835c16.823,10.444,77.378,44.37,77.378,44.37,0,0,58.54,21.953,69.977-18.54l-6.505-19.483Z"/>
      </g>
      <path class="cls-23" d="M2672.316,1271.279s-3.038-18.328-6.232-30.197c0,0-6.487-18.626,4.579-31.702l13.723-15.793s8.528-11.473,19.087-13.032c0,0,10.559-.313,11.567-2.462s12.56-21.157,40.035,0c0,0,8.748-14.022,22.205-16.398,0,0,14.537-4.41,21.568,6.448,0,0,16.337-12.388,30.355,7.549,0,0,19.4-10.912,33.53,10.786,0,0,19.177-9.353,30.953,10.584,11.776,19.937,9.421,28.08,9.421,28.08l8.741,31.666,30.96,38.225-71.996,27.14h-32.296l-64.595,17.302-114.721,8.82-31.961-37.66,45.076-39.355Z"/>
      <g>
        <path class="cls-20" d="M2575.346,1461.95s-17.158,1.019-25.906,5.429-15.476,9.162-25.567,15.606c0,0-4.709,6.275-24.559,2.459,0,0-34.315-8.226-34.315,18.576,0,0-41.044,3.391-24.224,39.355,0,0,11.437,28.159,34.988,8.143,0,0-15.138,21.712,14.13,30.197,0,0,20.858,5.09,26.914-16.286,0,0,3.366-8.482-4.709-19.001,0,0,10.094-2.034,17.158-12.892,0,0-21.532,27.212,2.02,37.015,0,0,29.596,7.427,31.284-23.447,0,0-2.416-14.249,9.054-19.339,0,0,23.584-5.429,34.348-31.723.004.004-33.908-18.058-30.615-34.092h0ZM2506.057,1191.345s-26.467-12.19-39.028,0c0,0-17.496-10.832-35.885,0,0,0-17.496,11.434-29.606,24.026,0,0-8.521,7.297-5.382,30.301,0,0,4.485,16.218,1.793,24.361,0,0-5.832-1.156-17.496,12.665,0,0-14.803,17.143-27.81,2.012,0,0,4.035,21.06,28.483,17.665,0,0-11.887,9.274-1.57,33.25,0,0,7.625,16.963-4.485,38.225,0,0,21.308-8.593,20.408-33.7,0,0-1.793-16.963,4.485-28.951,0,0-6.278,10.901,8.298,34.153,0,0,11.214,16.736,2.02,34.153,0,0,21.082-7.69,19.066-33.25s-14.803-14.929-6.505-38.452c0,0,2.02,12.049,8.298,18.126,6.278,6.077,14.353,16.254,10.991,33.217,0,0,12.56-15.606,9.644-31.666-2.916-16.06-6.055-20.916-6.055-20.916l39.697-22.511,19.739-35.737.9-56.974Z"/>
        <path class="cls-13" d="M2445.725,1292.199s-16.373-1.13-19.066-13.799M2397.949,1270.034s5.706-.227,10.865,4.975c0,0,3.938,5.882,9.547,5.202"/>
      </g>
      <path class="cls-3" d="M2469.946,1244.024s-8.521,0-13.234-4.072c0,0-4.935-3.391-7.852,2.034,0,0-4.485,7.69,3.812,11.084,0,0,10.318,5.202-6.055,15.606,0,0,19.512-7.013,11.664-16.51,0,0-8.521-6.106-5.382-8.37,0,0,.896-1.811,4.262.454,3.366,2.261,10.094,1.357,12.784-.227Z"/>
      <path class="cls-11" d="M2737.469,1287.234l-65.585-226.487-2.401.644,57.953,229.234,10.033-3.391Z"/>
      <path class="cls-3" d="M2509.07,1541.326s-15.476-8.694-28.26,1.483c0,0,1.307-5.656,11.084-8.143,0,0,5.292-14.929,20.092-13.572,0,0-6.055,7.236-14.13,13.345,0,0,8.525.882,11.214,6.887Z"/>
      <path class="cls-21" d="M2454.57,1577.301s-24.559-15.437-11.272-41.393c0,0,3.87-7.463,11.272-5.936,0,0,15.307,4.748,3.366,25.956-.004,0-6.059,13.741-3.366,21.373h0ZM2504.362,1601.73s-34.988-15.944-24.224-43.088c0,0,3.326-9.162,11.084-8.482,0,0,13.493.677,10.793,18.659,0,0-4.046,17.644,2.347,32.911h0Z"/>
      <path class="cls-3" d="M2496.96,1500.437s-10.512,7.765-14.789,12.967c0,0-4.277-5.314-9.882-8.539,0,0,6.455-.85,9.882,2.056,0,0,5.368-5.202,14.789-6.484Z"/>
      <path class="cls-21" d="M2528.078,1594.944s27.418-6.955,22.374-35.284c0,0-2.693-12.384-14.299-10.688,0,0-13.986,3.571-4.878,21.578,0,0,5.382,12.859-3.197,24.394h0Z"/>
      <path class="cls-14" d="M2651.962,995.624s17.662,5.414,27.252,9.324c0,0,25.567,11.534,58.035,0,0,0,21.956-8.694,24.883-9.324l-16.812,25.61-.842,13.23,10.519,15.437s-6.311,2.545-25.153-8.993c0,0-20.858-16.114-45.756,0,0,0-13.626,9.23-25.063,8.993l16.15-18.032-6.224-16.236-16.988-20.009Z"/>
      <path class="cls-4" d="M2538.677,1561.101s1.008-1.357-.169-1.951c0,0-1.177-.508-2.02,1.145,0,0-2.858,4.536-.439,10.75,0,0,2.29,4.306,1.177,8.802,0,0-.151,1.271.86,1.444,0,0,.968-.338,1.156-1.271,0,0,1.368-4.388-.986-8.683.004-.004-2.858-6.671.421-10.235h0Z"/>
      <g>
        <path class="cls-20" d="M2918.473,1048.49s-19.739,10.066-27.979-2.149c0,0-10.764-20.527,12.87-27.652,0,0-12.87-15.437.925-29.686,0,0,7.232-7.632,19.85-2.034,0,0,5.216-10.858,17.496-10.519,0,0,10.764-.169,14.465,11.704,0,0,14.803-6.106,23.044,2.714,0,0,13.626,15.268-5.382,27.313l-13.68,1.246-13.457-6.221-15.026,4.298c-.007-.004,3.863,15.21-13.126,30.985h0Z"/>
        <path class="cls-14" d="M2762.143,1032.545s-.497,4.072-4.536,4.525c0,0-4.212,1.357-6.667-3.888,0,0-.284-1.188-.349-1.768-.281-2.452-1.12-9.5,6.505-15.268,0,0,12.449-10.177,36.223,2.149,0,0,18.839,9.047,31.849,16.736,0,0,33.642,18.094,37.681,19.451,0,0,14.803,7.463,37.454,8.37,0,0,30.953,2.261,44.071-19.451,0,0,9.979-16.51,0-27.029,0,0-4.035-4.748-10.674-3.874-2.786.367-5.865,1.649-8.838,5.119,0,0-4.82,7.013.785,12.215,0,0,7.29,4.468,9.868-4.975,0,0,.112-.677.335.169.144.547,1.793,7.747-2.074,13.853,0,0-18.673,28.256-70.034-1.026l-67.734-37.991s-33.98-17.417-54.277,9.839c0,0-16.373,22.619,4.709,37.433,0,0,15.7,9.385,25.567-5.54,0,0,8.186-14.702-4.709-21.146,0,0-11.326-5.314-15.811,5.994-4.485,11.308,8.748,14.249,9.979,6.221.004-.007.342-1.93.677-.119h0Z"/>
        <g>
          <path class="cls-17" d="M2493.648,1149.138v-42.408c0-3.33.025-6.106,5.069-10.177,5.044-4.072,10.429-10.519,18.166,7.805,0,0,15.138-15.944,20.185-18.32,0,0,8.748-7.463,14.803,3.391,0,0,8.075-12.215,14.465-15.268,0,0,15.138-9.839,15.811,19.678l11.776-10.858s9.083-7.463,19.177,2.714c0,0,17.158,16.625,19.512,21.373,0,0,3.787,5.144,4.079,13.259,0,0-.043,9.133,4.666,14.22,0,0,5.378,4.748,10.595,5.767,0,0,12.28.338,16.654,11.873,0,0,2.02-1.998,8.075,53.284v100.746l-67.961,81.086-109.004-31.212-43.398-17.982-9.756-31.892,42.055-27.14,22.878-61.747-7.402-43.427-10.444-24.764Z"/>
          <path class="cls-11" d="M2793.992,1202.631l5.159-7.69,12.337-9.5s18.839,49.442,19.739,60.232v15.343s28.26,7.211,33.196,50.638l-23.324,42.973-36.558-20.358-10.541-7.69v-123.948h-.007Z"/>
        </g>
      </g>
      <path class="cls-4" d="M2447.755,1542.104s1.346-1.782.421-2.545c0,0-.59-.85-2.185,1.188,0,0-7.43,8.305-1.516,21.078,0,0,.673,1.822,1.85,1.228,0,0,1.008-.508.083-2.034.004,0-5.296-10.519,1.346-18.914Z"/>
      <g>
        <path class="cls-13" d="M2557.966,1533.762s1.12-3.845-1.57-7.916c0,0-1.793-2.941-1.123-6.786"/>
        <path class="cls-19" d="M2582.154,1093.839s.101,10.606,3.128,18.41c3.028,7.805,13.252,21.301,13.925,28.595"/>
        <path class="cls-20" d="M2838.514,1461.95s17.158,1.019,25.906,5.429c8.748,4.41,15.476,9.162,25.567,15.606,0,0,4.709,6.275,24.559,2.459,0,0,34.315-8.226,34.315,18.576,0,0,41.044,3.391,24.224,39.355,0,0-11.437,28.159-34.988,8.143,0,0,15.138,21.712-14.13,30.197,0,0-20.858,5.09-26.914-16.286,0,0-3.366-8.482,4.709-19.001,0,0-10.094-2.034-17.158-12.892,0,0,21.532,27.212-2.02,37.015,0,0-29.596,7.427-31.284-23.447,0,0,2.416-14.249-9.054-19.339,0,0-23.584-5.429-34.348-31.723,0,.004,33.908-18.058,30.615-34.092h0Z"/>
        <g>
          <path class="cls-19" d="M2568.618,1140.83l28.001,226.008M2575.087,1140.34l31.403,210.668M2580.973,1139.361l36.169,208.933"/>
          <path class="cls-11" d="M2648.207,1326.917l-65.588-226.487-2.401.644,57.956,229.237,10.033-3.395Z"/>
          <path class="cls-19" d="M2601.04,1131.063l66.233,167.357M2596.619,1133.77l63.922,174.827"/>
        </g>
      </g>
      <path class="cls-4" d="M2491.69,1585.671s-7.686-7.369-6.617-20.581c0,0,.45-2.826-.961-3.218,0,0-1.505-.626-1.728,2.653,0,0-2.131,13.799,7.178,21.712,0,0,.634.792,1.663.565-.004,0,1.098-.245.465-1.13Z"/>
      <g>
        <path class="cls-19" d="M2604.028,1128.791l68.288,152.665M2585.351,1138.277l41.886,205.603"/>
        <path class="cls-14" d="M2927.977,1290.626c-29.916-16.974-36.475-54.634-36.475-54.634-7.232-37.49,7.402-67.176,7.402-67.176,19.346-40.882,52.495-48.488,52.495-48.488,0,0-32.476,22.532-41.558,52.898,0,0-7.067,25.614-3.028,50.89,4.035,25.276,2.524,18.828,8.748,38.336l12.417,28.174Z"/>
        <path class="cls-10" d="M2799.151,1194.941l-125.701,39.69-6.854,55.994c-29.83,43.211-90.446,50.879-90.446,50.879l47.16,50.213,90.612,19.001,47.549-36.641,43.063-39.809c-4.485-21.262-2.02-52.812-2.02-52.812,0-5.314,2.02-17.755,2.02-17.755,0,0-7.402-51.116-5.382-68.76h0Z"/>
        <g>
          <path class="cls-19" d="M2668.32,1276.557s82.789-25.852,132.156-46.609M2628.58,1323.749s103.284-18.659,175.954-60.048l26.69-18.029"/>
          <path class="cls-19" d="M2831.224,1261.016l-28.71,20.441s-115.51,53.266-203.458,54.688M2802.492,1319.307s-88.794,45.724-139.709,46.404"/>
        </g>
        <path class="cls-20" d="M2908.379,1191.345s26.467-12.19,39.028,0c0,0,17.496-10.832,35.885,0,0,0,17.496,11.434,29.606,24.026,0,0,8.521,7.297,5.382,30.301,0,0-4.485,16.218-1.793,24.361,0,0,5.832-1.156,17.496,12.665,0,0,14.803,17.143,27.81,2.012,0,0-4.035,21.06-28.483,17.665,0,0,11.887,9.274,1.57,33.25,0,0-7.625,16.963,4.485,38.225,0,0-21.308-8.593-20.408-33.7,0,0,1.793-16.963-4.485-28.951,0,0,6.278,10.901-8.298,34.153,0,0-11.214,16.736-2.02,34.153,0,0-21.082-7.69-19.066-33.25,2.02-25.56,14.803-14.929,6.505-38.452,0,0-2.02,12.046-8.298,18.126-6.278,6.077-14.353,16.254-10.991,33.217,0,0-12.56-15.606-9.644-31.666,2.916-16.06,6.055-20.916,6.055-20.916l-39.697-22.511-19.739-35.737-.9-56.974Z"/>
      </g>
      <path class="cls-23" d="M2458.685,1334.384s3.701-17.532,20.524-10.634c0,0,5.72-28.724,36.335-29.74,30.615-1.019,32.296,29.855,32.296,31.892,0,0,8.993-13.255,24.008-11.718,0,0,25.888-1.526,16.247,40.039l4.896,5.213s19.778-46.429,60.487-34.214c0,0,39.697,12.1,13.795,50.551,0,0,19.591,25.445,36.205,23.069,16.614-2.376,31.417-7.463,47.901-36.641s54.839-33.588,64.595-31.892c9.756,1.696,17.464,8.032,19.055,14.929,0,0,20.308-67.777,93.312-57.128l29.268,14.72,11.102,5.09-16.549,46.706-40.316,91.13-30.607,9.41-31.961-18.32-11.102,5.951-.907,27.295-42.156,30.344-29.268,12.064-32.296,22.054-7.513,19.714s-17.838-7.513-37.969,0l-6.664-16.319-18.839-17.982-73.188-34.524-13.223-42.646-13.36-5.951-14.954,17.129-21.866,2.549-32.634-22.054-34.654-100.087Z"/>
      <g>
        <g>
          <g>
            <path class="cls-12" d="M2777.396,1002.575s-27.932-1.242-26.921,27.709"/>
            <path class="cls-14" d="M2961.144,1310.123c-48.615-14.929-61.902-67.176-61.902-67.176-9.925-39.186,6.055-73.451,6.055-73.451,22.205-52.146,59.774-52.135,59.774-52.135,18.839-.508,21.1,15.606,21.1,15.606,1.778,11.423-6.239,15.548-6.239,15.548-12.895,7.013-21.028-2.488-21.028-2.488-5.382-7.013-1.235-13.23-1.235-13.23,3.308-4.637,9.644-2.603,9.644-2.603,5.018,1.555,4.485,7.83,4.485,7.83.029.169.14.169.14.169.223-.058.14-.14.14-.14,0,0,1.12-7.69-6.394-8.482,0,0-14.634-3.168-31.792,18.209,0,0-22.594,28.84-22.54,66.157,0,0-2.858,70.06,70.146,88.211,0,0-7.906,11.365-21.866,52.416,0,0-15.811,52.758-30.906,81.281,0,0-20.066,40.687-64.811,24.062,0,0-26.644-11.704-26.579-31.043,0,0-1.85-17.644,14.13-19.001,0,0,15.646-1.188,15.476,12.215,0,0,.421,14.504-16.654,11.196,0,0-5.972-1.271-4.878-7.124,0,0,.954-5.26,8.158-2.97,0,0,.223.029.252-.086,0,0,.083-.126-.169-.198,0,0-2.786-1.246-5.731-.216,0,0-2.639.878-2.848,4.993,0,0-.169,3.308,3.366,5.173,0,0,4.291,1.526,7.654,1.188,0,0,4.525,9.133,14.764,12.229,14.252,4.309,25.992.158,33.178-5.573,7.816-6.235,12.87-17.132,14.382-19.804s14.634-32.062,24.502-63.67c0,0,8.636-27.256,15.53-41.504l2.692-5.591Z"/>
            <path class="cls-14" d="M2823.962,1442.949s9.083-1.231,9.083,6.869c0,0-.554,11.833-14.972,9.245,0,0-14.213-3.11-9.169-19.001,0,0,3.366-11.196,16.823-9.583,0,0,13.035.594,18.756,18.407,0,0,4.374,15.016-3.11,27.904-8.356,14.386-29.495,23.836-39.697,28.019,0,0-40.878,16.06-53.071,25.247,0,0-18.698,13.882-10.429,26.802,0,0,3.197,4.921,7.992,4.921,0,0,5.468.256,6.394-5.342,0,0,.029-.112-.058-.256,0,0-.083,0-.112.14,0,0-.392,3.42-3.366,4.694,0,0-3.982,2.009-8.158-1.526,0,0-4.428-4.241-.727-10.829,0,0,4.849-8.114,16.15-3.308,0,0,9.954,4.921,5.861,15.494,0,0-3.643,9.731-15.646,9.706,0,0-9.036-.299-14.814-6.358-9.018-9.454-9.508-27.868-1.559-37.39,0,0,7.513-10.123,22.597-16.286,8.737-3.571,25.232-10.742,42.39-17.471,12.06-4.73,23.105-10.393,30.28-18.886,0,0,6.394-7.124,8.244-19.339,0,0,1.768-9.162-3.812-11.167,0,0-2.833-1.271-5.944-.85,0,0-.083.004-.104.058-.007.004-.133.14.18.086Z"/>
            <path class="cls-12" d="M2824.722,1442.891s10.037-1.811,16.315,10.123c0,0,3.701,7.69,4.298,12.139M2848.604,1422.494s-10.051,1.742-4.874,15.962c4.878,13.403,13.939,17.798,16.628,19.663"/>
            <path class="cls-14" d="M2651.951,1032.542s.497,4.072,4.536,4.525c0,0,4.212,1.357,6.667-3.888,0,0,.284-1.188.349-1.768.281-2.452,1.12-9.5-6.505-15.268,0,0-12.449-10.177-36.223,2.149,0,0-18.839,9.047-31.849,16.736,0,0-33.642,18.094-37.681,19.451,0,0-14.803,7.463-37.454,8.37,0,0-30.953,2.261-44.071-19.451,0,0-9.979-16.51,0-27.029,0,0,4.035-4.748,10.674-3.874,2.786.367,5.865,1.649,8.838,5.119,0,0,4.82,7.013-.785,12.215,0,0-7.29,4.468-9.868-4.975,0,0-.112-.677-.338.169-.144.547-1.793,7.747,2.074,13.853,0,0,18.673,28.256,70.034-1.026l67.734-37.991s33.98-17.417,54.277,9.839c0,0,16.373,22.619-4.709,37.433,0,0-15.7,9.385-25.567-5.54,0,0-8.186-14.702,4.709-21.146,0,0,11.326-5.314,15.811,5.994,4.485,11.308-8.748,14.249-9.979,6.221,0-.004-.338-1.926-.673-.119h0ZM2486.117,1290.626c29.916-16.974,36.475-54.634,36.475-54.634,7.232-37.49-7.402-67.176-7.402-67.176-19.346-40.882-52.495-48.488-52.495-48.488,0,0,32.476,22.532,41.558,52.898,0,0,7.067,25.614,3.028,50.89-4.035,25.276-2.524,18.828-8.748,38.336l-12.417,28.174Z"/>
            <path class="cls-12" d="M2636.698,1002.575s27.932-1.242,26.921,27.709"/>
            <path class="cls-14" d="M2452.95,1310.123c48.615-14.929,61.902-67.176,61.902-67.176,9.925-39.186-6.055-73.451-6.055-73.451-22.205-52.146-59.774-52.135-59.774-52.135-18.839-.508-21.1,15.606-21.1,15.606-1.778,11.423,6.239,15.548,6.239,15.548,12.895,7.013,21.028-2.488,21.028-2.488,5.382-7.013,1.235-13.23,1.235-13.23-3.308-4.637-9.644-2.603-9.644-2.603-5.018,1.555-4.485,7.83-4.485,7.83-.029.169-.14.169-.14.169-.223-.058-.14-.14-.14-.14,0,0-1.123-7.69,6.394-8.482,0,0,14.634-3.168,31.792,18.209,0,0,22.594,28.84,22.54,66.157,0,0,2.858,70.06-70.146,88.211,0,0,7.906,11.365,21.866,52.416,0,0,15.811,52.758,30.906,81.281,0,0,20.066,40.687,64.811,24.062,0,0,26.644-11.704,26.579-31.043,0,0,1.85-17.644-14.13-19.001,0,0-15.646-1.188-15.476,12.215,0,0-.421,14.504,16.654,11.196,0,0,5.972-1.271,4.878-7.124,0,0-.954-5.26-8.158-2.97,0,0-.223.029-.252-.086,0,0-.083-.126.169-.198,0,0,2.786-1.246,5.731-.216,0,0,2.639.878,2.848,4.993,0,0,.169,3.308-3.366,5.173,0,0-4.291,1.526-7.654,1.188,0,0-4.525,9.133-14.764,12.229-14.252,4.309-25.992.158-33.178-5.573-7.816-6.235-12.87-17.132-14.382-19.804s-14.634-32.062-24.502-63.67c0,0-8.636-27.256-15.53-41.504l-2.692-5.591Z"/>
            <path class="cls-14" d="M2590.132,1442.949s-9.083-1.231-9.083,6.869c0,0,.554,11.833,14.972,9.245,0,0,14.213-3.11,9.169-19.001,0,0-3.366-11.196-16.823-9.583,0,0-13.035.594-18.756,18.407,0,0-4.374,15.019,3.11,27.904,8.356,14.386,29.495,23.836,39.697,28.019,0,0,40.878,16.06,53.071,25.247,0,0,18.698,13.882,10.429,26.802,0,0-3.197,4.921-7.992,4.921,0,0-5.468.256-6.394-5.342,0,0-.029-.112.058-.256,0,0,.083,0,.112.14,0,0,.392,3.42,3.366,4.694,0,0,3.982,2.009,8.158-1.526,0,0,4.428-4.241.727-10.829,0,0-4.849-8.114-16.15-3.308,0,0-9.954,4.921-5.861,15.494,0,0,3.643,9.731,15.646,9.706,0,0,9.036-.299,14.814-6.358,9.018-9.454,9.508-27.868,1.559-37.39,0,0-7.513-10.123-22.597-16.286-8.737-3.571-25.232-10.742-42.39-17.471-12.06-4.73-23.105-10.393-30.28-18.886,0,0-6.394-7.124-8.244-19.339,0,0-1.768-9.162,3.812-11.167,0,0,2.833-1.271,5.944-.85,0,0,.083.004.104.058.007,0,.133.14-.18.086Z"/>
            <path class="cls-12" d="M2589.372,1442.891s-10.037-1.811-16.315,10.123c0,0-3.701,7.69-4.298,12.139M2565.49,1422.49s10.051,1.742,4.874,15.962c-4.878,13.403-13.939,17.798-16.628,19.663M2682.745,1028.65s24.3-15.217,49.118,1.634"/>
          </g>
          <path class="cls-18" d="M2544.473,1177.301s3.366-13.572-12.11-37.321c0,0-10.094-21.712-15.476-35.622M2551.874,1089.429s8.762,21.344,11.776,30.902c0,0,10.868,26.773,13.172,32.202"/>
        </g>
        <g>
          <path class="cls-19" d="M2556.248,1192.227s9.137,9.839,8.1,26.464M2525.969,1181.711s10.094,4.864,9.428,31.666c0,0-1.015,19.566,14.123,29.405M2524.601,1249.679s31.59-3.449,33.329,16.002c0,0,.673,18.659,11.437,20.696,0,0,16.124,1.526,19.321,16.456M2534.548,1271.279s5.551,8.312,10.933,11.873M2575.087,1250.752s8.024,12.157,9.536,19.282M2609.852,1104.354s7.402,10.066,14.58,14.814M2639.459,1163.956s15.7,7.69,13.01,47.272c0,0-2.02,23.213,4.485,35.881"/>
          <path class="cls-11" d="M2565.5,1137.096l1.008,3.733s28.148,1.188,43.344-17.982l-1.627-3.676s-24.559-1.246-42.725,17.924h0Z"/>
          <path class="cls-19" d="M2666.905,1288.109s97.351-29.023,134.87-45.943"/>
        </g>
        <path class="cls-10" d="M2655.328,1105.373l48.15-18.32,1.138,3.222-48.161,18.292-1.127-3.193Z"/>
      </g>
      <g>
        <path class="cls-19" d="M2660.54,1107.015l31.961,156.686M2666.088,1104.909l36.605,155.966M2672.316,1102.544l40.035,154.825M2688.012,1096.582l54.58,116.219M2695.234,1093.839l58.201,115.538M2700.58,1091.808l62.957,114.379M2690.341,1264.943l24.703-8.14M2671.639,1249.442s72.41-21.15,127.213-43.254M2670.667,1257.369s91.771-24.282,128.182-41.998M2698.672,1332.008l4.806,14.702,13.136-4.205-4.485-14.569M2735.737,1321.445l4.806,14.699,13.14-4.201-4.489-14.569M2673.45,1234.631l-1.134-19.89,120.33-36.536,6.505,16.736M2723.346,1199.247l6.556,17.561M2765.412,1186.474l7.665,16.7M2775.388,1183.446l7.168,15.8M2784.913,1180.552l7.535,16.506M2792.646,1178.205l13.234-7.463,5.609,14.699M2799.151,1174.536l6.739,15.217"/>
        <g>
          <path class="cls-22" d="M2500.736,1403.594s-23.551-23.85,0-47.21c0,0-25.567-12.503-21.532-32.634M2542.792,1422.49s-24.39,3.323-17.158-44.172c0,0-10.094,18.828-13.572,28.505-2.603,7.243-.882,18.936,9.443,25.258,4.126,2.527,25.996,8.222,33.059-6.264M2515.54,1349.82s-9.925,9.162-2.858,25.956M2525.8,1352.024s1.177,16.286,9.252,25.445M2532.776,1345.58s-.076,19.17,13.716,31.043M2539.634,1338.963s.13,21.542,16.11,34.776M2618.993,1370.513s8.075-17.644,25.063-16.794c0,0-8.244,3.733-8.075,11.988,0,0-1.008,13.626,13.626,14.983,0,0,11.776,1.526,17.662-4.921"/>
          <path class="cls-22" d="M2659.198,1451.092s-41.886-19.678-37.512-48.006c0,0,1.681-17.302,18.598-25.445"/>
          <path class="cls-22" d="M2631.442,1395.62s-3.701,12.215,4.543,20.696M2640.859,1387.307s-5.047,13.403,3.366,23.411M2650.946,1380.802s-6.048,11.084,1.184,21.092M2612.768,1453.972s22.878,19.85,40.709,20.02M2605.536,1460.25s21.38,17.302,34.744,19.847M2597.461,1465.15s26.428,23.26,42.818,24.955M2704.95,1511.482s-25.978,13.997-5.839,28.796M2688.466,1496.045s29.437-15.437,42.221-21.204M2699.064,1504.019s42.559-25.956,55.174-31.55M2720.93,1505.715s36.335-24.257,55.847-34.776M2744.985,1504.865s25.063-19.678,49.288-33.926M2802.852,1446.344s-12.28-17.982-52.65,0c0,0,14.803-13.435,44.071-23.85M2835.029,1345.238s3.308,14.587-.223,23.411"/>
          <path class="cls-22" d="M2769.545,1415.978s8.41-12.384,29.776-18.49c0,0,5.76,14.418,22.374,11.196,0,0,25.063-4.921,17.496-32.4,0,0-5.213-20.527-33.84-22.561M2890.494,1319.307s29.102,5.238,28.598,28.987c0,0,2.354,35.622-35.158,42.577"/>
          <path class="cls-22" d="M2914.96,1333.934s7.996-17.363,25.826-24.491"/>
          <path class="cls-22" d="M2919.118,1299.269s7.949,12.744,13.381,14.598M2914.96,1309.446s7.492,9.155,10.015,10.685M2912.53,1318.266s3.946,5.828,7.441,7.664M2762.816,1180.552s5.663-9.191,19.739-5.288M2840.029,1249.442s8.917-37.195,40.035-23.458"/>
          <path class="cls-22" d="M2867.447,1222.938s3.197-17.147-4.543-25.88M2846.25,1221.743s3.964,7.092.572,12.888"/>
        </g>
      </g>
      <path class="cls-21" d="M2909.502,1601.727s34.988-15.944,24.224-43.088c0,0-3.326-9.162-11.084-8.482,0,0-13.493.677-10.793,18.659,0,.004,4.043,17.647-2.347,32.911h0Z"/>
      <path class="cls-4" d="M2922.174,1585.671s7.69-7.369,6.617-20.581c0,0-.45-2.826.961-3.218,0,0,1.505-.63,1.728,2.65,0,0,2.131,13.799-7.178,21.712,0,0-.634.792-1.663.565.004.004-1.102-.241-.465-1.127Z"/>
      <path class="cls-21" d="M2959.294,1577.301s24.559-15.437,11.272-41.393c0,0-3.87-7.463-11.272-5.936,0,0-15.307,4.748-3.366,25.956,0,0,6.055,13.741,3.366,21.373h0Z"/>
      <path class="cls-4" d="M2965.432,1542.1s-1.346-1.782-.421-2.545c0,0,.59-.85,2.185,1.188,0,0,7.43,8.305,1.516,21.078,0,0-.673,1.822-1.85,1.228,0,0-1.008-.508-.083-2.034,0,0,5.299-10.516-1.346-18.914Z"/>
      <path class="cls-21" d="M2885.782,1594.944s-27.418-6.955-22.374-35.284c0,0,2.693-12.384,14.299-10.688,0,0,13.986,3.571,4.878,21.578,0,0-5.382,12.856,3.197,24.394h0Z"/>
      <path class="cls-4" d="M2875.183,1561.101s-1.008-1.357.169-1.951c0,0,1.177-.508,2.02,1.145,0,0,2.858,4.536.439,10.75,0,0-2.29,4.306-1.177,8.802,0,0,.151,1.271-.86,1.444,0,0-.968-.338-1.156-1.271,0,0-1.368-4.388.986-8.683,0-.004,2.862-6.671-.421-10.235h0Z"/>
      <path class="cls-3" d="M2905.463,1541.326s15.476-8.694,28.26,1.483c0,0-1.307-5.656-11.084-8.143,0,0-5.288-14.929-20.092-13.572,0,0,6.055,7.236,14.13,13.345,0,0-8.521.882-11.214,6.887ZM2916.904,1500.437s10.512,7.765,14.789,12.967c0,0,4.277-5.314,9.882-8.539,0,0-6.455-.85-9.882,2.056,0,0-5.371-5.202-14.789-6.484Z"/>
      <path class="cls-13" d="M2855.898,1533.762s-1.123-3.845,1.57-7.916c0,0,1.793-2.941,1.123-6.786M2968.711,1292.199s16.373-1.13,19.066-13.799M3016.487,1270.034s-5.706-.227-10.865,4.975c0,0-3.938,5.882-9.547,5.202"/>
      <path class="cls-3" d="M2944.49,1244.024s8.521,0,13.234-4.072c0,0,4.935-3.391,7.852,2.034,0,0,4.485,7.69-3.812,11.084,0,0-10.318,5.202,6.055,15.606,0,0-19.512-7.013-11.664-16.51,0,0,8.521-6.106,5.382-8.37,0,0-.896-1.811-4.262.454-3.366,2.261-10.094,1.357-12.784-.227Z"/>
      <path class="cls-21" d="M2956.082,1038.053s3.848-5.238,2.275-20.956c-1.573-15.718,12.074-17.525,17.323-13.007,0,0,5.425,4.698.435,14.666-2.88,5.753-7.477,13.201-20.034,19.296Z"/>
      <path class="cls-4" d="M2961.212,1026.317s5.116-5.501,2.675-17.442c0,0-.018-1.177.659-1.256,0,0,1.242-.313,1.451.864,0,0,2.747,12.73-3.028,19.645,0,0-1.055,1.022-1.76,0,.004-.004-.774-.734.004-1.811h0Z"/>
      <path class="cls-21" d="M2951.723,1032.336s-.403-6.336-11.354-17.104c-10.951-10.768-1.948-20.689,4.759-20.606,0,0,6.948.108,9.45,10.696,1.444,6.116,2.668,14.573-2.855,27.014h0Z"/>
      <path class="cls-4" d="M2950.02,1018.559s.194-7.762-9.72-15.862c0,0-.806-.943-.346-1.444,0,0,.734-1.055,1.692-.238,0,0,10.678,8.543,10.937,17.874,0,0-.119,1.508-1.343,1.138-.004-.007-1.091-.094-1.22-1.469h0Z"/>
      <path class="cls-21" d="M2936.851,1027.574s-2.862-5.162-16.387-9.961c-13.525-4.799-9.871-16.614-4.18-19.141,0,0,5.908-2.599,12.229,5.317,3.654,4.579,8.05,11.203,8.338,23.785h0Z"/>
      <path class="cls-4" d="M2930.926,1018.084s-3.074-7.117-15.458-10.235c0,0-1.127-.511-.918-1.163,0,0,.223-1.271,1.433-.936,0,0,13.259,3.19,17.402,11.538,0,0,.526,1.418-.742,1.602,0,.004-1.022.389-1.717-.806h0Z"/>
      <path class="cls-21" d="M2945.326,1032.743s-6.307,1.771-20.79-5.216c-14.483-6.988-20.826,5.173-18.288,11.678,0,0,2.653,6.732,13.864,5.551,6.473-.684,15.142-2.38,25.215-12.013Z"/>
      <path class="cls-4" d="M2911.648,1037.358s6.566,4.05,18.482-.558c0,0,1.213-.234,1.411.421,0,0,.54,1.17-.641,1.595,0,0-12.676,5.054-20.819.616,0,0-1.238-.857-.306-1.742.004,0,.626-.907,1.872-.331h0Z"/>
      <path class="cls-12" d="M2924.136,986.969s7.232,3.506,5.551,11.988"/>
      <path class="cls-13" d="M2956.097,988.157s2.83,8.957-.295,13.781"/>
      <path class="cls-21" d="M2457.101,1038.053s-3.848-5.238-2.275-20.956c1.573-15.718-12.074-17.525-17.323-13.007,0,0-5.425,4.698-.435,14.666,2.88,5.753,7.474,13.201,20.034,19.296Z"/>
      <path class="cls-4" d="M2451.967,1026.317s-5.116-5.501-2.675-17.442c0,0,.018-1.177-.659-1.256,0,0-1.242-.313-1.451.864,0,0-2.747,12.73,3.028,19.645,0,0,1.055,1.022,1.76,0-.004-.004.778-.734-.004-1.811h0Z"/>
      <path class="cls-21" d="M2461.457,1032.336s.403-6.336,11.354-17.104c10.951-10.768,1.948-20.689-4.759-20.606,0,0-6.948.108-9.45,10.696-1.444,6.116-2.668,14.573,2.855,27.014h0Z"/>
      <path class="cls-4" d="M2463.163,1018.559s-.194-7.762,9.72-15.862c0,0,.806-.943.346-1.444,0,0-.734-1.055-1.692-.238,0,0-10.678,8.543-10.937,17.874,0,0,.119,1.508,1.343,1.138,0-.007,1.087-.094,1.22-1.469h0Z"/>
      <path class="cls-21" d="M2476.328,1027.574s2.862-5.162,16.387-9.961c13.525-4.799,9.871-16.614,4.18-19.141,0,0-5.908-2.599-12.229,5.317-3.654,4.579-8.05,11.203-8.338,23.785h0Z"/>
      <path class="cls-4" d="M2482.254,1018.084s3.074-7.117,15.458-10.235c0,0,1.127-.511.918-1.163,0,0-.223-1.271-1.433-.936,0,0-13.259,3.19-17.402,11.538,0,0-.526,1.418.742,1.602,0,.004,1.022.389,1.717-.806h0Z"/>
      <path class="cls-21" d="M2467.854,1032.743s6.307,1.771,20.79-5.216c14.483-6.988,20.826,5.173,18.288,11.678,0,0-2.653,6.732-13.864,5.551-6.473-.684-15.142-2.38-25.215-12.013Z"/>
      <path class="cls-4" d="M2501.532,1037.358s-6.566,4.05-18.482-.558c0,0-1.213-.234-1.411.421,0,0-.54,1.17.641,1.595,0,0,12.676,5.054,20.819.616,0,0,1.238-.857.306-1.742-.004,0-.623-.907-1.872-.331h0Z"/>
      <path class="cls-12" d="M2489.044,986.969s-7.232,3.506-5.551,11.988"/>
      <path class="cls-13" d="M2457.083,988.157s-2.83,8.957.295,13.781"/>
      <path class="cls-3" d="M2771.06,905.883s4.583,13.082,2.606,24.937c-1.768,10.602.644,13.342,4.475,15.44,3.316,1.814,10.998-1.361,11.923-9.673,0,0,9.083,17.726-8.579,29.686,0,0-12.701,7.805-23.465-2.628-3.794-3.676-5.468-13.824-3.618-23.242,0,0,2.779-12.766-1.85-25.87,0,0,7.232,7.718,5.382,23.108,0,0-3.701,27.612,16.736,26.255,0,0,14.13-.169,14.551-17.302,0,0-5.299,6.106-11.858,4.072-4.648-1.44-8.917-5.936-8.158-13.025.796-7.434,2.862-20.394,1.854-31.759h0ZM2747.902,951.232s-1.123,21.827-21.082,27.14c0,0,2.804-3.956-1.681-14.814,0,0-4.374-6.332-4.035-16.171,0,0-6.354,4.972.896,18.094,4.374,7.916.562,17.417-.785,17.755-1.35.338,32.969-4.525,26.687-32.004h0ZM2721.996,929.517s-4.82-5.429-5.159-17.982c-.335-12.553-2.693-15.606-4.374-17.078,0,0,2.466,10.858,1.793,17.528-.673,6.671.45,10.519,1.346,13.684,0,0-10.879,1.696-17.719-14.137-6.538-15.134-13.122-13.91-16.373-13.799,0,0,3.791.421,11.437,14.249,7.639,13.817,9.76,16.632,29.048,17.536ZM2671.085,896.721s6.282,15.041,6.505,22.957c0,0-14.58-4.864-18.504-17.528,0,0-15.588,5.314-9.868,23.296,0,0-13.457-4.748-19.512-15.721,0,0,7.513,5.656,14.465,8.143,0,0-.785-14.476,17.381-19.904,0,0,2.704,12.967,11.776,16.06,0,.004-.673-8.14-2.243-17.302h0ZM2695.082,870.938s5.047,7.351,15.365,7.69c4.932.162,10.238-.95,15.365-7.69,0,0-.673,12.78-15.365,12.892,0,0-15.365.565-15.365-12.892ZM2631.524,958.299s7.654,6.955,9.252,9.245c0,0,5.382,5.26,10.004-1.541,0,0,5.893-10.876,13.126-10.588,0,0-5.13,3.564-10.897,13.846,0,0-1.552,3.794-5.843,4.219-2.009.198-4.543.85-8.377-3.157,0,0-3.312-4.05-7.265-12.024ZM2710.447,819.706c-15.365-.007-2.412,11.873-2.412,11.873.335,18.828-14.774,24.624-25.063,19.17-10.289-5.458-2.243-19.17-2.243-19.17,0,0-11.606,7.632-4.205,18.659,7.402,11.027,26.802,6.106,33.923-4.072,7.121,10.177,26.521,15.098,33.923,4.072,7.402-11.027-4.205-18.659-4.205-18.659,0,0,8.046,13.712-2.243,19.17-10.289,5.454-25.402-.338-25.063-19.17-.004.004,12.949-11.88-2.412-11.873ZM2719.753,799.352s5.382,9.162,4.205,23.069c0,0,4.878-13.91-4.205-23.069ZM2672.654,820.894s-1.177-10.008-10.933-10.858c0,0,8.24,5.94,10.933,10.858ZM2748.352,820.894s1.177-10.008,10.933-10.858c0,0-8.244,5.94-10.933,10.858ZM2657.178,836.162s7.736,2.376,12.449-3.391c0,0-8.917,2.372-12.449,3.391ZM2632.115,774.753s9-1.019,18,12.384c0,0-8.917,4.748-11.102,7.632,0,0,0-4.41,4.374-8.312-.004.004-1.685-6.782-11.272-11.704h0ZM2782.836,774.753s-9-1.019-18,12.384c0,0,8.917,4.748,11.102,7.632,0,0,0-4.41-4.374-8.312,0,.004,1.681-6.782,11.272-11.704h0ZM2713.363,784.754s8.075,2.214,18.166-3.384c0,0,12.449-6.617,20.354,0,0,0-6.898-3.071-20.185,3.384,0,0-13.291,7.286-18.335,0Z"/>
      <path class="cls-4" d="M2721.773,792.904s6.898-12.096,27.925-9.695c0,0-5.72,16.819-27.925,9.695Z"/>
      <ellipse class="cls-1" cx="2736.277" cy="789.153" rx="4.158" ry="5.27"/>
      <ellipse class="cls-3" cx="2736.277" cy="789.153" rx="2.47" ry="3.233"/>
      <path class="cls-3" d="M2676.69,767.121s13.288.85,21.362,5.936c0,0,8.579,5.09,18.335-2.207,0,0,10.609-6.106,17.417-14.587,0,0-16.24,11.196-22.295,12.892,0,0-5.551-4.241-7.736-10.346,0,0,.842-4.579,9.587-13.061,0,0-11.776,3.564-14.13,13.572,0,0,2.185,6.106,6.728,10.858,0,0-2.185,1.019-7.906-2.545,0-.004-12.445-4.244-21.362-.511h0ZM2710.447,846.933c-11.495,9.925,0,8.906,0,8.906,0,0,11.495,1.019,0-8.906ZM2703.794,784.754s-8.075,2.214-18.169-3.384c0,0-12.449-6.617-20.354,0,0,0,6.898-3.071,20.185,3.384.004,0,13.291,7.286,18.338,0Z"/>
      <path class="cls-4" d="M2695.385,792.904s-6.898-12.096-27.925-9.695c0,0,5.72,16.819,27.925,9.695Z"/>
      <ellipse class="cls-1" cx="2680.88" cy="789.153" rx="4.158" ry="5.27"/>
      <ellipse class="cls-3" cx="2680.88" cy="789.153" rx="2.47" ry="3.233"/>
      <path class="cls-15" d="M3116.603,684.09v762.253c0,203.605-407.023,269.759-407.023,269.759,0,0-407.023-66.154-407.023-269.759v-762.253h814.046Z"/>
    </g>
    <g id="mini-gb">
      <path class="cls-5" d="M1600,.1v1200H0V400.1C0,180.1,180,.1,400,.1h1200Z"/>
      <path id="Path" class="cls-9" d="M1534.9.1h65.1v255.8l-545.5,354.3,545.5,354.2v235.7h-96l-679-440.9-679,440.9H0v-203.2l595.5-386.7L31.6,243.9C65.5,164.1,124.5,97.6,198.7,54.3l626.3,406.7L1534.9.1Z"/>
      <path id="Path-2" class="cls-8" d="M0,1189.3v-119.2l708.2-460L60,189.3c17.8-28.7,39.2-54.9,63.4-78.2l676.6,439.4L1600,31.1v119.3l-708.2,459.7,708.2,460v119.2l-800-519.5L0,1189.3Z"/>
      <polygon id="Shape" class="cls-6" points="1000 400.1 1600 400.1 1600 800.1 1000 800.1 1000 1200.1 600 1200.1 600 800.1 0 800.1 0 400.1 600 400.1 600 .1 1000 .1 1000 400.1"/>
      <polygon id="Shape-2" class="cls-7" points="900 500.1 900 .1 700 .1 700 500.1 0 500.1 0 700.1 700 700.1 700 1200.1 900 1200.1 900 700.1 1600 700.1 1600 500.1 900 500.1"/>
    </g>
  </g>
</svg>