<?xml version="1.0" encoding="UTF-8"?>
<svg xmlns="http://www.w3.org/2000/svg" viewBox="0 0 3600.1 2401.738">
  <defs>
    <style>
      .cls-1 {
        fill: #cf1126;
      }

      .cls-1, .cls-2, .cls-3, .cls-4 {
        fill-rule: evenodd;
        stroke-width: 0px;
      }

      .cls-2 {
        fill: #141414;
      }

      .cls-3 {
        fill: #f7e017;
      }

      .cls-4 {
        fill: #eee;
      }
    </style>
  </defs>
  <g id="background">
    <path id="bn" class="cls-3" d="M400,.1h2800c220,0,400,180,400,400v1600c0,220-180,400-400,400H400C180,2400.1,0,2220.1,0,2000.1V400.1C0,180.1,180,.1,400,.1Z"/>
  </g>
  <g id="country">
    <g id="bn-2" data-name="bn">
      <path class="cls-4" d="M3600,1670.456v-627.518L13.81,296.068C4.808,329.27,0,364.151,0,400.1v895.482l3600,374.873Z"/>
      <path class="cls-2" d="M0,859.3v498.592l3586.167,746.327c9.017-33.228,13.833-68.138,13.833-104.119v-391.594L0,859.3Z"/>
      <g>
        <path class="cls-1" d="M1719.351,1897.494c-64.365-8.607-123.376-29.235-164.37-57.494-7.944-5.493-15.427-9.98-16.589-9.98-1.196,0-2.159,6.093-2.159,13.631,0,21.329-8.514,32.079-29.924,37.669-20.48,5.358-51.731-5.459-77.066-26.62-26.231-21.934-56.518-38.679-82.149-45.372-21.114-5.56-49.141-4.656-69.384,2.176-9.41,3.178-20.117,7.665-23.839,9.976-3.689,2.311-7.846,4.187-9.177,4.187-3.587,0-3.089-22.94.668-30.27,4.952-9.613,17.155-19.09,31.386-24.313,7.179-2.645,13.065-6.025,13.065-7.534s-2.43-7.031-5.387-12.224c-9.642-17.007-5.683-33.486,11.138-46.441,17.222-13.263,46.378-15.541,72.144-5.662,6.482,2.48,12.537,4.521,13.432,4.521,3.393,0,1.331-4.787-8.011-18.486-10.775-15.87-12.9-23.704-11.569-42.591,1.728-23.911,21.076-43.466,44.78-45.207,19.348-1.407,31.386,5.159,59.945,32.548,85.276,81.908,177.997,127.048,286.149,139.268,27.296,3.08,82.217,1.441,114.435-3.448,97.31-14.768,195.355-64.061,271.918-136.69,21.211-20.125,31.42-25.449,48.807-25.517,15.127-.063,25.733,4.855,36.571,16.91,9.875,11.054,13.234,21.532,12.169,38.311-.697,10.749-2.425,16.039-8.776,26.451-9.376,15.372-7.779,16.779,10.77,9.545,25.069-9.845,55.952-5.29,72.613,10.648,14.658,14.032,16.056,28.061,4.652,47.083-4.153,6.963-7.547,13.492-7.547,14.531,0,1.91,3.156,2.814,18.385,5.29,19.914,3.215,31.318,18.118,31.318,40.889,0,6.828-.832,12.389-1.863,12.389-.997,0-8.544-2.78-16.754-6.194-23.206-9.647-36.406-12.123-63.537-11.953-20.645.131-27.761,1.103-42.152,5.827-22.044,7.263-45.617,21.262-64.834,38.506-21.178,19.023-34.508,25.014-55.12,24.849-19.149-.203-32.252-5.793-39.165-16.813-3.693-5.894-4.221-9.477-3.325-22.804.6-8.67.465-15.769-.232-15.769-.731,0-8.18,4.754-16.589,10.614-22.077,15.27-36.139,22.838-61.407,32.915-77.066,30.706-188.273,44.003-273.418,32.649h0Z"/>
        <path class="cls-1" d="M1754.979,1748.462c-127.973-12.338-250.424-79.276-324.875-185.408-80.839-110.713-106.314-256.897-81.638-390.558,13.116-60.854,39.57-121.745,84.731-165.076-35.987,76.627-48.148,164.459-28.956,247.479,29.818,165.739,169.293,306.042,336.156,330.317,66.008,19.192,134.299-1.082,197.353-21.634,139.103-49.234,245.066-181.83,257.996-330.059,11.066-80.21-1.191-163.61-37.175-236.239,20.51,10.889,46.399,53.59,61.665,82.306,53.083,103.28,55.509,227.041,24.253,337.259-42.393,140.235-149.155,263.096-290.282,307.749-64.048,21.013-132.161,27.422-199.221,23.877l-.009-.013ZM1109.311,1563.624c-8.294-1.361-17.446,7.179-14.315,16.12,5.983,9.038,16.289,13.453,25.589,17.776,22.289,9.342,46.534,12.98,70.466,12.376-8.248-.021,2.831.089,5.911-.004,18.947.059,37.792-3.511,55.606-10.225,9.904-3.642,22.525-6.951,26.586-18.406,3.959-7.466-3.215-14.92-10.458-13.424-10.078,2.303-19.504,7.086-29.501,9.807-21.566,6.363-44.282,8.823-66.63,6.904-16.339-2.087-32.172-7.551-47.29-14.218-5.239-2.421-10.162-5.945-15.963-6.706h0Z"/>
        <path class="cls-1" d="M1116.101,1529.792c-8.561-1.306-15.934,8.793-12.363,16.851,6.579,9.782,17.641,14.992,27.984,19.572,17.987,7.377,37.521,10.462,56.848,9.87-7.339-.021,2.522.089,5.244,0,16.481,0,32.794-3.305,47.975-9.723,9.287-3.706,20.662-7.293,24.528-17.776,3-5.759.714-14.134-6.363-14.586-6.456-.325-12.03,3.887-18.008,5.78-21.718,9.207-45.621,13.111-69.038,11.037-14.59-1.922-28.53-7.445-41.763-13.842-4.973-2.459-9.444-6.3-15.038-7.183h-.004Z"/>
        <path class="cls-1" d="M1126.737,1495.942c-7.276-.904-12.283,7.593-11.058,14.375,1.086,5.958,6.254,9.963,10.525,13.614,17.708,13.399,40.145,19.107,61.884,18.359-8.442-.034,11.328.144,5.299-.025,13.766-.059,27.368-3.545,39.756-9.71,8.265-3.723,17.975-8.032,20.763-17.797,1.331-4.551,2.168-11.096-2.793-13.648-5.197-3.008-10.356,1.614-15.08,3.49-15.913,8.379-33.638,13.039-51.52,12.955-15.452.537-30.013-6.186-43.415-13.432-4.863-2.565-8.873-7.022-14.358-8.18h-.004Z"/>
        <path class="cls-1" d="M1006.999,1009.959c-10.779,10.787-2.548,30.668-3.131,44.801,5.586,43.525,12.524,87.604,28.779,128.577,19.901,40.035,62.176,61.441,87.794,96.82,9.156,17.049,5.907,37.559,7.838,56.214,1.513,50.831,1.044,101.696.152,152.531,22.961,11.518,47.894,23.113,74.307,18.68,15.655-3.735,44.708-6.059,47.966-21.646-1.263-87.659-2.087-175.352-3.253-262.999-8.899-26.856-36.237-40.753-56.679-57.938-16.857-16.647-32.542-34.44-46.944-53.252-8.679-14.616-42.583-19.88-30.317,5.544,7.192,22.01,25.546,38.404,30.144,61.534,1.001,12.676,16.137,35.987,3.22,43.382-8.218-13.965-20.125-25.851-35.345-32.937-14.666-10.931-38.911-15.482-44.206-34.792-3.887-27.389-17.92-52.204-36.025-72.727,4.669-24.604.017-55.369-21.254-71.092l-3.047-.701h0Z"/>
        <path class="cls-1" d="M1039.141,1014.185c-10.01,1.589-9.672,14.13-5.037,20.725,4.927,14.244,6.266,29.713,3.6,44.539,17.797,20.484,31.576,44.987,35.73,71.882.101,10.111,10.922,13.458,17.937,18.456,16.458,10.301,34.961,17.772,49.614,30.668,3.085,3.241,5.413,6.731,3.232.114-2.286-8.459-3.465-17.797-10.204-24.199-9.241-9.761-20.776-18.477-34.234-21.456-1.124-13.665-7.741-26.218-13.859-38.307-6.777-11.556-13.859-23.937-25.475-31.432.469-20.252.131-41.506-8.734-60.194-2.603-4.8-6.431-10.508-12.566-10.796h-.004Z"/>
        <path class="cls-1" d="M1065.773,1022.635c-6.98,2.028-5.645,10.449-3.435,15.604,3.346,14.273,3.87,29.02,3.596,43.61,12.824,9.925,20.844,24.313,28.149,38.328,4.576,9.363,8.92,19.027,10.673,29.324,10.403,3.372,19.508,9.744,27.638,16.796-3.224-9.537-10.407-16.914-15.237-25.618-5.248-9.055-10.259-18.494-12.482-28.753-10.006-10.445-15.515-25.242-13.331-39.537.452-15.799-4.766-32.125-15.579-44.032-2.721-2.624-5.97-5.523-9.989-5.721h-.004Z"/>
        <path class="cls-1" d="M1098.085,1026.89c-3.655.672-5.877,4.297-7.838,7.255-.756,2.966,2.73,6.152,3.283,9.372,4.297,11.277,5.877,23.407,4.614,35.408-.283,8.497,2.637,16.796,6.786,23.992,1.2-5.307,5.92-9.123,11.032-9.646,1.859-.342,4.593.638,3.511-2.32-1.301-16.251-3.676-32.59-9.123-47.945-2.113-5.485-4.508-11.256-9.068-15.013-.921-.684-2.028-1.272-3.199-1.103ZM2490.528,1563.624c8.294-1.361,17.447,7.183,14.315,16.12-5.983,9.038-16.289,13.453-25.589,17.776-22.289,9.342-46.534,12.98-70.466,12.376,8.248-.021-2.831.084-5.911,0-18.951.055-37.792-3.515-55.606-10.23-9.904-3.642-22.529-6.951-26.586-18.406-3.963-7.466,3.215-14.915,10.454-13.424,10.082,2.303,19.504,7.086,29.506,9.807,21.566,6.363,44.282,8.823,66.63,6.904,16.339-2.087,32.172-7.551,47.29-14.218,5.239-2.421,10.158-5.945,15.963-6.706h0Z"/>
        <path class="cls-1" d="M2483.734,1529.792c8.561-1.306,15.93,8.793,12.363,16.851-6.579,9.782-17.641,14.992-27.984,19.572-17.987,7.377-37.521,10.462-56.848,9.87,7.339-.021-2.522.089-5.244,0-16.481.002-32.794-3.303-47.975-9.718-9.287-3.71-20.662-7.297-24.528-17.78-3-5.759-.714-14.134,6.363-14.586,6.461-.325,12.03,3.887,18.009,5.78,21.718,9.211,45.621,13.111,69.042,11.037,14.586-1.922,28.525-7.445,41.759-13.842,4.973-2.459,9.444-6.3,15.042-7.183h0Z"/>
        <path class="cls-1" d="M2468.873,1495.942c7.28-.904,12.287,7.593,11.062,14.375-1.086,5.958-6.253,9.963-10.53,13.614-17.704,13.399-40.141,19.107-61.884,18.359,8.447-.034-11.324.144-5.294-.025-13.77-.059-27.372-3.545-39.76-9.71-8.265-3.723-17.975-8.028-20.759-17.797-1.335-4.551-2.168-11.096,2.789-13.648,5.197-3.008,10.361,1.614,15.085,3.49,15.909,8.379,33.634,13.039,51.52,12.955,15.448.537,30.008-6.186,43.416-13.437,4.859-2.561,8.873-7.014,14.358-8.176h0Z"/>
        <path class="cls-1" d="M2592.824,1009.959c10.775,10.787,2.548,30.668,3.127,44.801-5.582,43.521-12.524,87.604-28.775,128.577-19.902,40.035-62.18,61.437-87.794,96.82-9.161,17.049-5.907,37.563-7.838,56.214-1.517,50.831-1.044,101.696-.156,152.531-22.956,11.518-47.89,23.113-74.303,18.68-15.655-3.735-44.713-6.059-47.966-21.642,1.268-87.663,2.083-175.356,3.254-263.003,8.899-26.856,36.232-40.753,56.675-57.938,16.857-16.648,32.544-34.441,46.948-53.252,8.675-14.616,42.579-19.88,30.313,5.544-7.192,22.014-25.547,38.408-30.139,61.534-1.006,12.676-16.141,35.987-3.22,43.382,8.218-13.965,20.125-25.851,35.345-32.937,14.666-10.931,38.911-15.482,44.206-34.792,3.887-27.389,17.915-52.204,36.021-72.727-4.665-24.604-.017-55.369,21.254-71.092l3.051-.701h0Z"/>
        <path class="cls-1" d="M2560.669,1014.185c10.01,1.589,9.668,14.13,5.037,20.725-4.927,14.239-6.27,29.713-3.604,44.539-17.793,20.484-31.576,44.987-35.73,71.882-.101,10.111-10.918,13.458-17.937,18.452-16.453,10.306-34.956,17.776-49.614,30.672-3.084,3.241-5.409,6.731-3.232.114,2.29-8.459,3.465-17.797,10.209-24.199,9.237-9.761,20.776-18.477,34.23-21.456,1.124-13.665,7.741-26.218,13.859-38.307,6.777-11.556,13.859-23.937,25.479-31.432-.469-20.252-.135-41.506,8.734-60.194,2.599-4.8,6.427-10.508,12.566-10.796h.004Z"/>
        <path class="cls-1" d="M2534.032,1022.635c6.985,2.028,5.649,10.449,3.44,15.604-3.346,14.273-3.87,29.02-3.596,43.61-12.824,9.925-20.848,24.317-28.149,38.324-4.576,9.368-8.915,19.031-10.673,29.328-10.403,3.372-19.508,9.748-27.638,16.796,3.22-9.537,10.407-16.914,15.237-25.618,5.248-9.055,10.259-18.494,12.482-28.753,10.006-10.445,15.515-25.242,13.331-39.537-.452-15.803,4.766-32.125,15.579-44.028,2.721-2.628,5.971-5.527,9.989-5.725h0Z"/>
        <path class="cls-1" d="M2501.734,1026.89c3.655.676,5.882,4.297,7.838,7.255.756,2.966-2.73,6.152-3.283,9.372-4.298,11.277-5.878,23.407-4.614,35.408.283,8.493-2.632,16.796-6.786,23.992-1.2-5.307-5.916-9.123-11.028-9.646-1.863-.338-4.597.638-3.515-2.316,1.301-16.251,3.676-32.594,9.127-47.949,2.109-5.485,4.504-11.256,9.063-15.013.921-.684,2.028-1.268,3.199-1.103h0ZM1785.938,1584.058c-45.245-4.276-86.066-37.044-100.023-79.956.752-7.394,10.014,4.137,14.392,4.91,8.218,4.534,17.1,8.265,26.561,8.844,11.928,5.091,19.306,16.77,30.689,22.863,5.286,4.09,23.991,12.131,20.514-.879-4.382-6.799-7.394-15.406-3.621-23.193,6.342-13.83,16.103-25.868,25.923-37.403,7.217-2.396,12.051,11.751,17.214,16.517,7.145,10.922,15.76,24.249,11.561,37.821-4.09,5.024-6.782,20.147,4.158,15.063,13.487-5.894,24.533-15.799,35.717-25.048,9.786-6.79,22.314-7.268,32.569-13.225,4.754-1.196,14.658-10.644,16.72-5.404-5.62,14.949-15.03,28.339-25.09,40.682-16.293,18.49-38.332,32.4-62.992,36.321-14.578,2.653-29.531,3.211-44.29,2.092v-.004Z"/>
        <path class="cls-1" d="M1837.593,1532.006c1.006-8.941-1.077-18.072-5.742-26.197-7.158-14.282-17.269-26.962-27.127-39.49-9.3-5.332-14.459,12.076-20.641,17.07-9.63,14.121-21.727,28.58-22.31,46.344-5.421,8.261-15.528-6.739-19.884-11.67-8.32-11.527-14.62-25.162-13.589-39.579-.984-23.231,3.566-46.36,12.211-67.952,6.524-18.435,17.113-36.338,16.035-56.476.756-15.156-2.383-31.889-14.924-42.08-11.928-9.165,7.728-11.121,13.973-6.368,10.682.701,16.462,17.987,26.223,13.711,3.887-9.03,4.661-19.8,12.676-26.844,7.872-10.551,16.094,4.479,18.786,11.518,5.556,6.182-.313,21.482,8.708,21.883,10.808-7.42,18.52-19.884,32.341-22.601,5.607-3.131,15.186-.414,7.796,5.894-10.23,9.393-18.972,21.131-20.835,35.1-3.127,17.523,1.348,35.294,9.148,51.08,14.991,31.001,26.59,66.021,19.006,100.517-3.52,15.334-14.159,28.542-27.084,37.445-1.631.963-4.213.896-4.766-1.306h0Z"/>
        <path class="cls-1" d="M1823.468,1297.237c-4.914-8.624-10.884-17.13-19.154-22.994-8.041-.017-13.006,9.858-18.465,15.03-3.832,6.938-8.484,18.541-17.915,9.469-15.008-8.523-17.662-27.207-17.565-42.604-.946-24.959,9.376-48.245,18.545-70.977,5.831-14.227,4.394-30.245.837-44.827-4.479-16.741-18.279-28.352-28.906-41.408.723-5.054,14.303-2.294,19.411-1.331,11.341,2.797,18.123,12.575,26.577,19.483,6.017-1.775,3.558-13.61,6.359-19.179.207-7.834,10.918-18.161,15.334-6.947,6.613,7.128-.211,21.254,8.337,25.694,8.142-2.937,12.161-11.603,19.808-15.52,7.53-4.999,18.16-5.556,26.269-1.631,2.852,7.272-8.915,13.331-12.325,19.652-13.682,16.458-18.49,39.161-12.63,59.552,4.644,15.993,12.875,30.925,15.718,47.455,3.418,18.587,3.304,38.104-1.635,56.417-2.953,11.121-12.841,18.545-23.049,23.163-2.518-2.282-3.849-5.637-5.552-8.493v-.004Z"/>
        <path class="cls-1" d="M1772.607,1091.225c-11.172-8.239-14.865-16.107-14.865-31.678,0-7.969,1.462-12.287,6.684-19.521,7.682-10.711,6.287-14.096-4.589-10.948-17.493,5.058-25.838.435-26.438-14.565-.266-7.335,1.263-10.449,11.075-22.301,7.846-9.507,10.707-14.497,9.144-16.073-1.53-1.538-10.808,6.566-29.861,26.087-15.199,15.566-32.294,31.475-37.977,35.358-32.725,22.234-63.985,25.682-78.249,8.569-7.318-8.738-6.917-13.661,1.53-18.951,3.892-2.408,10.441-7.969,14.599-12.355,9.811-10.28,39.042-31.508,53.54-38.873,11.772-5.996,14.565-10.048,6.917-10.048-9.908,0-41.7,20.827-65.81,43.128-7.086,6.596-17.294,13.931-22.648,16.306-12.038,5.358-35.683,7.335-46.192,3.853-7.416-2.48-20.949-15.338-20.949-19.923,0-1.208,3.093-3.887,6.849-5.928,3.756-2.007,10.508-6.93,14.966-10.851,19.289-17.041,55.834-34.589,84.832-40.715,9.211-1.939,5.818-6.63-4.458-6.161-19.918.87-59.459,19.521-83.07,39.144-27.668,22.969-69.401,20.793-82.838-4.318-2.328-4.323-3.689-8.375-3.025-9.008.634-.638,8.844-3.114,18.258-5.527,10.175-2.577,30.33-10.982,49.58-20.658,30.296-15.203,39.275-18.448,60.127-21.832,9.38-1.504,9.879-6.127.765-7.2-11.738-1.403-29.73,4.521-61.521,20.261-40.838,20.223-52.276,23.704-73.792,22.432-19.623-1.204-30.697-6.262-46.627-21.427-10.407-9.946-25.17-35.193-22.28-38.109.701-.701,5.489,0,10.644,1.508,5.717,1.707,22.116,2.848,41.869,2.882,27.634.063,34.982-.672,49.715-4.956,24.642-7.166,57.397-23.941,79.813-40.783,42.862-32.277,77.814-45.237,122.375-45.439,41.138-.169,67.31,9.41,90.49,33.084,7.846,7.999,14.531,13.192,15.629,12.084,1.031-1.035,2.159-15.034,2.493-31.107,0,0,12.106-1.17,14.666,2.244,0,26.087.3,28.128,4.056,28.128,2.463,0,5.087-2.544,6.718-6.494,3.524-8.539,16.559-20.227,30.494-27.325,30.097-15.368,82.175-15.837,124.01-1.137,17.624,6.228,37.179,17.345,55.8,31.808,18.689,14.463,56.899,33.82,79.479,40.28,22.846,6.528,63.118,8.172,83.772,3.448,8.51-1.939,16.492-3.549,17.759-3.549,7.614,0-5.358,25.551-20.586,40.517-27.837,27.389-64.052,27.258-114.997-.401-31.758-17.21-69.735-26.62-69.735-17.244,0,1.939,1.994,3.249,4.952,3.249,11.041,0,32.358,7.466,62.087,21.663,32.159,15.401,50.218,21.896,60.925,21.896,7.783,0,8.015,4.855.765,15.57-7.682,11.421-20.717,17.079-39.139,17.045-17.594-.068-27.372-3.951-43.099-17.113-26.307-22.031-91.851-46.61-89.324-33.482.499,2.611,3.655,4.217,10.407,5.256,22.813,3.515,49.584,16.373,76.986,37.035,8.447,6.393,17.227,12.689,19.454,14.028,3.761,2.21,3.824,2.877.866,8.472-4.922,9.241-17.328,16.407-30.761,17.814-17.392,1.808-32.523-3.418-48.186-16.61-33.055-27.858-64.217-48.017-74.193-48.017-8.146,0-4.491,4.521,9.875,12.19,18.892,10.078,38.311,23.704,52.61,36.93,6.752,6.296,14.366,12.524,16.893,13.897,5.987,3.215,5.755,7.935-.828,16.61-6.718,8.839-17.827,12.722-32.227,11.18-28.732-3.047-51.144-17.007-86.362-53.806-13.766-14.366-26.041-26.117-27.304-26.117-4.686,0-1.927,6.393,7.153,16.639,11.239,12.659,13.399,19.792,9.144,30.068-3.756,9.11-10.01,11.218-22.846,7.737-13.137-3.583-15.199-.334-6.583,10.445,12.837,16.107,10.939,35.831-4.791,49.39-4.889,4.187-10.01,7.635-11.404,7.635-1.365,0-4.821-3.583-7.715-7.969-10.111-15.469-18.989-15.368-28.834.266-3.423,5.459-6.317,9.879-6.418,9.845-.131-.034-4.754-3.38-10.242-7.466h0Z"/>
        <path class="cls-1" d="M1821.127,777.565l-15.596,13.268-13.982-11.341v90.638l29.577.393v-92.958Z"/>
        <path class="cls-1" d="M1715.801,682.021c-3.397,43.855-14.476,74.468-29.886,108.22l36.942-34.424,25.69,30.676,27.824-31.208,28.386,26.358,27.287-27.431,28.356,33.355,24.625-27.431,41.734,30.106c-15.144-33.752-35.641-62.358-33.08-109.859-40.432,30.207-136.513,35.662-177.879,1.639Z"/>
        <path class="cls-1" d="M1790.484,659.255c-14.89.258-30.579.448-44.696,3.106-9.782,1.855-18.659,4.893-26.07,9.917,1.2,27.296,136.855,38.683,173.239.511-7.644-5.341-16.99-8.51-27.27-10.428-13.585-2.531-28.606-2.784-42.858-3.008,0,7.487.063,15.004.063,22.525l-32.408-.097v-22.525h0Z"/>
        <path class="cls-1" d="M1816.475,515.593l-20.7.165v164.523l21.127.101-.427-164.789Z"/>
        <path class="cls-1" d="M1816.576,519.818l-8.125,78.739,82.01,39.57-41.51-54.824,56.683-18.152-89.058-45.334ZM1808.484,498.692c-12.165,0-21.161,4.821-21.161,10.546s8.996,10.58,21.161,10.58,21.093-4.855,21.093-10.58-8.932-10.546-21.093-10.546Z"/>
        <path class="cls-3" d="M1769.599,1876.853c13.284-4.2,20.839-11.899,26.269-26.725,2.696-7.382,4.525-15.046,4.061-17.054-1.132-4.741-6.858-4.483-13.183.541-4.331,3.469-4.863,5.218-3.63,12.283,3.161,17.814-3.465,22.238-38.755,25.863-3.494.351-13.618-.224-22.538-1.272-16.779-2.007-22.775-.414-16.682,4.42,1.834,1.466,6.494,3.435,10.356,4.36,9.422,2.32,44.011.765,54.101-2.417h0ZM1842.435,1873.085c1.978-1.753,8.768-4.787,15.093-6.765,8.438-2.616,12.79-5.425,16.348-10.563,10.246-14.78,8.337-27.516-6.723-44.687-8.172-9.317-11.797-9.063-18.325,1.28-5.632,8.937-5.501,9.511,2.607,11.552,4.393,1.164,8.176,3.962,10.576,7.821,8.831,14.81,6.228,23.97-6.854,24.063-11.865.097-15.127,1.724-18.321,9.161-1.682,3.862-3.034,7.982-3.034,9.161,0,3.127,4.483,2.586,8.633-1.023h0ZM1818.706,1857.835c1.927-6.321,2.607-17.7,2.379-40.901-.14-17.67-.706-32.658-1.276-33.342-1.698-2.066-10.086,4.5-11.193,8.729-.566,2.197.368,7.289,2.07,11.273,2.607,6.152,2.945,11.894,2.151,35.992-1.018,30.452.625,35.577,5.869,18.249h0Z"/>
        <path class="cls-3" d="M1761.744,1842.97c1.23-5.518,2.806-16.821,3.524-25.082.718-8.261,2.463-18.693,3.832-23.21,3.49-11.573-.034-14.615-9.376-8.125l-6.951,4.846,1.437,16.623c1.335,14.983-1.094,42.909-4.618,53.746-.959,2.873.41,2.138,4.276-2.277,3.118-3.545,6.676-11.003,7.876-16.521h0ZM1711.462,1852.959c12.114-10.187,10.72-27.583,13.403-41.755-.279-9.422,5.983-20.717,1.944-28.956-11.32,2.083-18.296,12.858-12.503,23.594.482,12.465.042,26.037-6.33,37.061-5.21,7.208-21.701,5.413-20.945-4.804,4.141-15.363-14.168-7.889-21.317-3.858-5.527,3.866-17.193,4.153-13.137-5.527-2.675-12.896-19.175-4.83-28.137-4.885-8.463-.156-.697-17.248-12.849-14.244-22.576-1.792-47.497.199-67.039-13.513-11.442-5.531-9.744-19.36-3.786-28.31,7.111-12.224,9.139-27.511,20.43-36.997,11.176-10.775-10.542-6.224-15.431-2.594-10.889,5.992-.773,21.423-9.684,29.979-5.206,8.873-12.063,21.131-24.114,19.441-17.383-3.304-27.406-19.559-39.866-30.452-10.673-2.142-4.673,17.413.841,21.524,10.906,8.21,23.649,14.193,36.794,17.738,13.082-2.104,13.508,15.118,24.693,17.818,20.527,9.617,43.403,12.499,65.793,13.669,8.793.739,3.849,16.483,15.41,13.373,6.461,1.686,21.059-2.417,21.79,5.13-9.794,11.692,9.401,11.43,16.504,9.338,9.097-1.399,20.721-4.893,23.125,7.644,7.593,8.049,21.537,6.862,30.782,2.256,1.297-.756,2.518-1.652,3.63-2.671h0Z"/>
        <path class="cls-3" d="M1512.228,1749.523c3.769-4.623,9.406-13.961,12.528-20.776,3.089-6.849,7.741-14.616,10.284-17.269,5.979-6.228,2.649-10.065-6.993-7.999-5.091,1.082-7.162,2.886-8.011,7.145-2.886,13.893-8.117,28.115-12.765,34.737-8.421,11.996-8.624,12.486-5.163,12.486,1.8,0,6.351-3.735,10.12-8.324ZM1389.025,1673.339c-9.465,0-9.87,5.941-.642,9.131,4.458,1.542,8.244,5.269,11.286,11.345,8.987,17.759,14.261,20.916,38.117,22.965l15.308,1.377.744,9.228c.372,5.104,1.589,9.334,2.772,9.334s7.094-2.552,13.077-5.573c11.218-5.637,21.862-18.799,21.862-26.958,0-5.337-8.953-11.108-17.1-11.108-3.613,0-10.508,2.886-15.946,6.811-17.032,12.253-35.248,9.769-45.215-6.173-8.176-13.162-16.728-20.379-24.262-20.379ZM1471.682,1706.069c4.525,0,5.641,3.325,3.173,9.668-1.69,4.365-7.196,4.5-8.852.203-1.961-5.07.777-9.87,5.679-9.87ZM2101.479,1686.028c-6.072.237-7.863,1.572-11.713,7.318-6.304,9.418-6.934,29.831-1.128,37.044,3.617,4.479,4.145,4.576,11.814,1.369,10.682-4.508,12.473-4.339,12.439,1.437-.063,14.763-21.101,43.225-43.132,58.356-5.941,4.078-11.248,8.62-11.814,10.124-1.593,4.208,6.57,3.27,16.593-1.872,13.669-7.014,31.618-25.453,38.983-39.985,5.844-11.59,6.672-15.532,7.369-35.81.63-18.672.131-24.152-3.021-30.363-3.515-6.98-4.644-7.618-13.47-7.618-1.06,0-2.024-.03-2.92,0h0ZM2102.21,1699.059c4.576,0,5.375,1.035,5.907,7.648.461,5.48-.499,8.818-3.52,11.556-4.115,3.744-4.445,3.71-8.096-1.868-5.108-7.884-1.956-17.337,5.709-17.337ZM2001.422,1839.151c19.01-9.634,30.224-20.472,37.441-36.156,3.414-7.462,6.207-14.484,6.207-15.689,0-2.708-9.359-7.192-14.983-7.192-5.59,0-6.727-3.98-4.323-14.987,2.341-10.737-.486-24.182-5.07-24.182-1.656,0-4.585,2.51-6.532,5.552-2.992,4.715-3.152,6.723-.942,13.58,3.249,10.17.68,17.763-8.159,24.249-4.192,3.08-6.499,6.625-6.499,10.069,0,2.911.355,5.286.778,5.286.456,0,5.07-2.476,10.272-5.451l9.49-5.455,5.59,4.517c3.055,2.476,5.59,6.52,5.59,8.996,0,11.911-32.987,31.91-55.644,33.786-12.059,1.001-14.104.566-18.296-3.714-3.414-3.511-4.39-6.456-3.545-10.601.651-3.182,1.821-8.966,2.599-12.845,2.083-10.369-2.24-8.966-9.714,3.144-6.144,10.001-7.965,20.671-4.521,26.29,2.831,4.58,21.617,8.966,34.91,8.13,8.353-.503,16.606-2.911,25.352-7.327h0ZM2130.663,1765.532c12.385-11.949,17.632-26.506,17.7-49.001l.034-16.901,10.23-4.686c13.293-6.123,25.88-18.3,25.88-25.073,0-6.968-3.199-6.613-8.983.976-4.208,5.501-9.828,8.823-30.389,17.975-5.184,2.311-5.518,3.549-6.697,24.583-1.382,24.258-4.779,33.342-18.777,49.914-8.582,10.094-8.886,11.43-2.928,11.43,2.455,0,8.717-4.137,13.931-9.215h0ZM1998.478,1754.209c1.001-3.845-4.8-6.579-7.314-3.452-1.056,1.331-1.344,3.634-.63,5.109,1.656,3.346,6.913,2.231,7.944-1.656h0ZM2180.159,1705.313c1.031-1.914-4.796-3.275-7.28-1.72-1.086.684-1.369,1.83-.655,2.565,1.656,1.665,6.908,1.111,7.935-.845h0ZM1962.38,1576.173c-4.771,2.256-7.247,7.365-10.563,11.269-2.387,1.61-.477,3.114.9,4.631,8.421,8.996,11.983,21.148,15.985,32.48,3.925,13.377,8.873,27.744,4.766,41.683-1.618,5.337-5.852,10.863-12.173,9.093-10.115-.63-20.07-3.292-30.215-3.186-9.03.469-16.006,8.62-25.238,7.728-5.899.385-5.649-11.979-11.129-8.675-2.717,6.448-1.377,13.644-1.703,20.463,1.023.976,3.892.123,5.607.41h18.177c1.285,6.224,1.124,13.365,5.632,18.317,6.308,2.223,13.407.3,19.403-2.13,6.427-2.966,7.289-10.635,9.101-16.61,1.931-6.418,10.407-4.737,15.406-7.255,12.237-3.541,20.252-16.154,19.538-28.568-.794-18.947-8.079-36.769-13.61-54.706-2.78-7.897-4.707-16.141-7.931-23.856-.38-.663-1.158-1.221-1.952-1.086v-.004ZM1932.101,1684.52c6.799-.439,9.752,7.846,8.316,13.339-2.548,7.47-11.802,2.683-13.673-2.7-3.44-4.808-1.314-11.273,5.358-10.639Z"/>
        <path class="cls-3" d="M1679.299,1622.64c-3.042-.068-6.452,1.09-9.824,3.507-17.742,12.672-22.284,27.659-10.225,33.52,8.856,4.327,6.617,9.401-7.318,16.521-19.944,10.149-37.555,8.89-70.999-5.214-8.218-3.473-10.356-2.142-8.455,5.523,1.838,7.525,8.59,11.649,25.361,15.532,18.042,4.221,39.862,2.861,53.894-3.304,6.849-3,14.966-9.3,21.816-16.897l10.859-12.161,12.63,1.601c15.57,1.939,15.87,2.113,15.87,9.706,0,6.03.334,6.169,14.637,7.53,8.054.786,18.642,1.5,23.59,1.5,6.313.034,9.887,1.158,11.992,4.154,2.81,3.989,4.479,4.192,28.001,2.045,21.985-2.045,26.294-1.872,36.215,1.568,7.052,2.451,14.801,3.439,20.683,2.793,16.842-1.939,40.061-15.976,43.437-26.299.401-1.259,6.515-3.473,13.563-4.906,17.007-3.473,17.742-7.255,1.872-9.262-6.883-.887-17.206-3.444-22.952-5.759-5.78-2.316-13.665-4.259-17.544-4.259-8.552,0-16.606,5.451-16.606,11.07,0,3.68,1.272,4.056,11.396,3,9.52-.989,12.296-.444,17.307,3.613,3.309,2.653,5.51,5.789,4.808,6.913-2.235,3.714-22.116,12.946-30.904,14.375-5.882.955-10.627.308-15.237-2.113-7.715-4.086-19.078-4.699-21.215-1.192-.9,1.534-3.342.545-6.68-2.658l-5.214-5.007-11.793,5.007c-11.996,5.075-16.407,4.872-16.407-.951,0-2.658-3.507-2.966-21.182-1.808-19.479,1.297-21.52.955-25.162-3.203-3.372-3.811-3.44-5.142-1.035-9.059,2.206-3.608,2.206-5.176.101-7.323s-4.846-2.113-12.528,0c-19.382,5.277-24.858,2.316-24.858-13.116,0-9.266-5.214-14.886-11.894-14.987h0ZM1674.486,1636.807c1.035,0,1.906.651,3.241,2.011,1.703,1.737,2.607,4.77,1.872,6.71-1.737,4.601-9.959,4.428-11.696-.203-.837-2.248.232-4.77,2.708-6.608,1.737-1.293,2.839-1.944,3.875-1.91h0Z"/>
        <path class="cls-3" d="M1638.346,1650.071c11.721-7.276,11.455-6.727,13.145-26.928,1.162-14.261.963-15.33-2.987-15.33-5.742,0-8.729,6.169-8.729,17.928,0,7.534-1.196,10.914-5.311,14.907-9.761,9.549-33.993,5.197-37.044-6.655-1.031-4.061.296-7.732,5.375-14.78,10.589-14.713,8.201-18.321-4.779-7.145-8.928,7.631-10.521,7.859-8.831,1.263,1.563-6.072-1.69-8.476-8.962-6.689-3.718.908-5.742,3.182-6.638,7.601-.862,4.318-2.89,6.723-6.406,7.568-5.877,1.462-15.904-3.997-15.904-8.641,0-3.444,15.004-21.372,34.259-40.927,7.272-7.407,13.213-14.29,13.213-15.33s-3.883-1.885-8.633-1.885c-6.938,0-8.628.748-8.628,3.896,0,2.146-9.693,14.586-21.579,27.676-24.765,27.283-26.823,32.966-14.573,40.242,9.862,5.911,22.508,5.459,32.434-1.137l8.032-5.358v9.71c0,12.41,2.522,16.859,12.482,22.023,12.515,6.465,27.651,5.687,40.065-2.011h0ZM2159.18,1478.973c-9.144,5.527-1.986,17.138-.6,24.853-3.735,10.521-17.1,13.356-26.839,15.313-13.8,2.311-23.578,13.99-28.825,26.4-2.844,8.058-9.71,20.556-17.189,8.286-6.503-6.668-18.456-11.954-26.142-4.17-5.844,5.628-7.322,13.906-9.503,21.418-3.448-5.772-4.99-14.37-12.296-16.196-11.662,1.656-7.449,16.538-1.965,22.673,4.982,7.149,9.769,16.584,4.885,25.077-4.306,10.208-19.204,17.096-27.955,8.362-8.176-4.365-2.708-19.952-10.758-20.81-3.984,2.907-4.31,19.221-10.682,10.377-4.597-7.555-2.159-17.903-7.783-24.701-6.646.832-11.992,12.414-9.782,18.634,8.869,12.106,12.511,27.287,15.972,41.708,2.155,5.776-.313,17.485,5.024,19.77,3.701-9.292.262-19.838,3.178-29.222,8.653-1.099,18.283,2.899,27.359.773,12.989-1.707,23.028-12.799,27.583-24.608,1.373-8.878-.262-17.89-.507-26.818,10.259,1.61,20.92,1.576,30.79,4.948,4.897,7.597-1.551,18.228-2.907,26.527-5.151,16.901-18.237,29.168-30.963,40.47-5.324,3.186-6.038,11.632,1.825,7.082,17.104-7.399,29.852-23.075,37.187-40.039,5.349-13.052,1.048-27.592,4.542-40.939,5.163-10.023,17.594-7.91,26.789-7.88,9.52-.368,17.645-11.586,14.463-20.949-3.025-10.859,8.328-16.09,16.09-19.973,10.285-5.252,18.177-15.921,17.379-27.963-.422-6.156-.123-17.835-8.366-18.397l-.004-.004ZM2122.715,1541.699c11.02,2.962-1.999,24.262-7.855,10.766-1.8-5.146,2.48-10.952,7.855-10.766ZM2071.568,1556.952c14.345-.845,9.194,20.345-2.924,10.724-6.283-3.194-4.204-11.117,2.924-10.724ZM1550.616,1639.021c.431-2.163-.714-3.71-2.755-3.71-4.331,0-6.942,3.642-4.901,6.799,2.108,3.262,6.761,1.411,7.656-3.089h0ZM1719.718,1618.097c0-3.127-1.179-4.306-3.807-3.799-5.725,1.073-6.368,8.337-.739,8.337,3.131,0,4.546-1.411,4.546-4.538ZM1511.125,1517.209c-6.782-1.361-11.049,4.238-13.373,9.579-5.07,8.315-11.269,16.821-20.37,21.224-6.545,1.779-13.682-.651-19.327-3.942-6.735-3.275-5.206-11.176-8.092-16.635-4.872-3.731-13.508,1.606-13.314,7.407-.541,7.783,6.921,12.275,13.116,15.283,5.265,3.148,12.896,4.897,15,11.261-.144,5.408,2.087,11.603,8.839,9.511,7.555-.118,9.511,8.856,6.461,14.244-3.106,6.068-5.206,13.179-3.718,19.939,3.613,2.966,7.297-4.99,9.913-7.259l5.328-6.934c13.369.71,26.721,2.37,40.12,1.91,9.532-.169,17.645-5.907,23.704-12.638,8.569-8.742,15.613-19.01,25.399-26.552,6.968-1.656,3.224-14.459-4.052-10.762-6.558,2.4-8.62,9.625-13.162,14.231-7.737,9.139-15.634,18.414-25.386,25.576-7.103,2.873-15.283,1.618-22.576,0-3.047-2.599,6.046-4.711,7.314-7.597,4.183-4.082,9.152-7.952,11.577-13.31-2.32-4.944-9.414-5.341-14.417-5.442-12.321,1.445-21.731,11.535-34.175,12.486-9.444.321-4.53-9.659-.27-13.061,8.328-9.651,17.332-18.739,26.028-28.069,2.468-2.899,11.396-5.649,5.683-9.718-1.994-.701-4.154-.701-6.249-.731h0ZM1517.184,1566.024c6.211,3.406-3.963,8.987-8.252,8.227-5.624,1.644-5.725-3.951-.727-5.066,2.806-1.424,5.772-2.911,8.979-3.161ZM1498.065,1578.759c3.537-.063,10.948,3.249,3.989,5.37-4.842,3.663-10.318-3.727-3.989-5.37ZM1647.887,1588.292c0-5.408-7.479-4.639-8.307.845-.532,3.528.325,4.373,3.816,3.718,2.48-.461,4.491-2.493,4.491-4.563h0Z"/>
        <path class="cls-3" d="M2019.651,1555.452c.718-3.735-4.483-6.224-7.225-3.486-2.742,2.738-.224,7.939,3.486,7.221,1.72-.334,3.406-2.02,3.739-3.735ZM1438.897,1507.744c5.852-4.939,5.915-5.265,3.393-16.115-3.592-15.203-3.359-16.838,2.522-18.275,7.449-1.863,26.362,8.104,30.549,16.082,3.258,6.177,3.156,6.604-2.362,11.637-5.949,5.396-5.915,11.704.034,11.704,4.923,0,18.515-12.651,18.515-17.193,0-6.308-15.089-21.215-27.025-26.675-7.377-3.401-14.759-4.969-23.299-5.003-15.291,0-17.353,3.237-13.23,20.725,4.851,20.497-1.728,23.273-18.515,7.813-12.465-11.476-17.383-23.404-17.32-42.203.034-20.168,7.88-30.139,25.563-32.493,11.734-1.538,11.434-4.251-.634-6.013-17.616-2.615-32.506,8.953-38.159,29.616-6.283,22.914,8.113,50.831,33.575,65.214,13.327,7.521,18.646,7.749,26.392,1.179h0ZM2134.166,1484.868c1.314-1.42,2.383-4.623,2.383-7.099s2.231-7.792,4.948-11.789c2.751-3.993,4.982-8.092,4.982-9.08,0-4.061-6.203-3.93-11.092.266-5.011,4.225-8.772,4.323-8.772.194,0-1.023,2.383-3.135,5.32-4.686,7.272-3.832,7.885-7.631,1.741-10.669-7.885-3.862-15.799,3.203-16.623,14.861-.52,7.792.059,9.148,5.62,12.68,5.075,3.237,6.021,4.952,5.168,9.579-1.471,8.024,1.618,10.83,6.325,5.742h0ZM2198.772,1475.563c4.804-4.192,8.708-8.97,8.708-10.559s4.141-5.818,9.211-9.359c14.387-10.073,17.556-20.244,11.113-35.873-2.501-6.144-10.377-14.624-27.499-29.632-13.149-11.569-25.263-21.025-26.835-21.025-4.669,0-3.837,16.732.904,18.194,8.544,2.666,13.715,6.08,27.165,17.873,15.621,13.745,22.83,26.582,18.892,33.727-3.773,6.921-8.776,4.779-22.563-9.617-7.242-7.572-14.417-13.745-15.883-13.745-1.606.034-2.738,2.763-2.738,6.596,0,4.808,2.637,9.393,9.778,17.125,11.649,12.608,12.782,20.18,4.039,26.873-3.139,2.404-6.376,4.386-7.175,4.386-.769,0-3.338-3.769-5.675-8.353-4.872-9.617-34.677-40.259-39.148-40.259-2.037,0-3.038,2.472-3.038,7.344,0,5.882,1.2,7.965,6.008,10.369,5.907,2.987,20.523,17.315,35.21,34.606,4.204,4.935,8.345,8.932,9.245,8.966.866,0,5.506-3.444,10.28-7.635h0ZM2230.208,1392.256c-1.994-6.384-43.166-48.494-47.392-48.494-2.201,0-2.886,2.594-2.37,9.287.583,8.13,1.475,9.528,7.111,10.999,3.507.921,14.366,9.393,24.093,18.782,9.689,9.393,18.211,16.53,18.9,15.811.689-.68.549-3.549-.342-6.384h0ZM1990.141,1855.03c0,2.332-2.839,4.225-6.338,4.225s-6.338-1.893-6.338-4.225,2.839-4.225,6.338-4.225,6.338,1.893,6.338,4.225ZM2011.268,1848.692c-.001,3.501-2.841,6.339-6.342,6.338-3.501-.001-6.339-2.841-6.338-6.342s2.841-6.339,6.342-6.338c3.501.001,6.339,2.841,6.338,6.342Z"/>
      </g>
    </g>
  </g>
</svg>