<?xml version="1.0" encoding="UTF-8"?>
<svg xmlns="http://www.w3.org/2000/svg" xmlns:xlink="http://www.w3.org/1999/xlink" viewBox="0 0 3600.1 2401.738">
  <defs>
    <style>
      .cls-1, .cls-2, .cls-3, .cls-4, .cls-5, .cls-6 {
        stroke-width: 0px;
      }

      .cls-1, .cls-6 {
        fill: #009b3a;
      }

      .cls-2 {
        fill: #002776;
      }

      .cls-3 {
        fill: none;
      }

      .cls-7 {
        clip-path: url(#clippath-1);
      }

      .cls-4 {
        fill: #fff;
      }

      .cls-5 {
        fill: #fedf01;
      }

      .cls-6 {
        fill-rule: evenodd;
      }

      .cls-8 {
        clip-path: url(#clippath);
      }
    </style>
    <clipPath id="clippath">
      <circle class="cls-3" cx="1800" cy="1200.1" r="600"/>
    </clipPath>
    <clipPath id="clippath-1">
      <path class="cls-3" d="M1986.114,1119.063l22.786-52.403,47.163,20.507-22.786,52.403-47.163-20.507ZM2024.994,1094.132l-3.906,8.983,23.582,10.254,3.906-8.983-23.582-10.254Z"/>
    </clipPath>
  </defs>
  <g id="background">
    <path id="br" class="cls-6" d="M400,.1h2800c220,0,400,180,400,400v1600c0,220-180,400-400,400H400C180,2400.1,0,2220.1,0,2000.1V400.1C0,180.1,180,.1,400,.1Z"/>
  </g>
  <g id="country">
    <g id="br-2" data-name="br">
      <path class="cls-5" d="M377.143,1200.1l1422.857,908.571,1422.857-908.571L1800,291.529,377.143,1200.1Z"/>
      <circle class="cls-2" cx="1800" cy="1200.1" r="600"/>
      <g>
        <g class="cls-8">
          <path class="cls-4" d="M0,2400.1C0,1595.342,652.385,942.957,1457.143,942.957s1457.143,652.385,1457.143,1457.143h-85.714c0-757.419-614.009-1371.429-1371.429-1371.429S85.714,1642.681,85.714,2400.1H0Z"/>
        </g>
        <g>
          <path id="a" class="cls-6" d="M1288.267,1024.715c14.096-1.731,23.964-15.83,22.041-31.492-1.923-15.662-14.909-26.955-29.005-25.225-14.096,1.731-23.964,15.83-22.041,31.492s14.909,26.955,29.005,25.225M1286.973,1014.182c8.278-1.016,14.01-9.821,12.801-19.666s-8.9-17.001-17.178-15.985c-8.278,1.016-14.01,9.821-12.801,19.666,1.209,9.845,8.9,17.001,17.178,15.985"/>
          <g id="h">
            <path id="c" class="cls-6" d="M1334.829,1019.555l10.586-.74-1.481-21.173,22.801-1.594c9.894-.692,17.355-9.274,16.663-19.168-.692-9.894-9.274-17.355-19.168-16.663l-32.574,2.278,3.172,57.061ZM1343.194,987.056l21.987-1.537c4.048-.283,7.1-3.794,6.817-7.842-.283-4.048-3.794-7.1-7.842-6.817l-21.987,1.537,1.025,14.658Z"/>
            <path class="cls-1" d="M1383.282,1016.167c-.569-8.143-1.822-26.059-14.037-25.205l-15.472,1.082c17.915-1.253,19.168,16.663,19.738,24.806"/>
          </g>
          <path id="i" class="cls-6" d="M1407.248,1015.046l26.935-.47c13.523-.236,24.295-11.39,24.059-24.913l-.142-8.162c-.236-13.523-11.39-24.295-24.913-24.059l-26.935.47.997,57.134ZM1417.674,1004.25l15.508-.271c8.565-.149,15.387-7.214,15.237-15.779l-.085-4.897c-.149-8.565-7.214-15.387-15.779-15.237l-15.508.271.627,35.913Z"/>
          <path id="j" class="cls-1" d="M1479.805,1014.332l51.397,1.795.37-10.606-41.607-1.453.513-14.685,32.633,1.14.342-9.79-32.633-1.14.399-11.422,39.16,1.367.37-10.606-48.95-1.709-1.994,57.108Z"/>
          <path id="k" class="cls-1" d="M1552.299,1017.418l9.759.854,3.415-39.035,7.97,40.031,8.945.783,14.8-38.039-3.415,39.035,9.759.854,4.98-56.925-14.231-1.245-14.8,38.039-7.97-40.031-14.231-1.245-4.98,56.925Z"/>
          <path id="l" class="cls-1" d="M1670.694,1030.772l42.238,7.258,1.659-9.654-32.584-5.599,2.212-12.873,26.55,4.562,1.659-9.654-26.55-4.562,1.521-8.85,31.578,5.426,1.659-9.654-41.232-7.085-8.709,50.686Z"/>
          <path id="c-2" data-name="c" class="cls-6" d="M1779.203,1052.086l10.274,2.657,5.314-20.548,22.129,5.723c9.603,2.483,19.4-3.288,21.884-12.891s-3.288-19.4-12.891-21.884l-31.613-8.176-15.098,55.118ZM1797.448,1023.92l21.339,5.519c3.928,1.016,7.937-1.345,8.952-5.273,1.016-3.928-1.345-7.937-5.273-8.952l-21.339-5.519-3.679,14.226Z"/>
          <g id="h-2" data-name="h">
            <path id="c-3" data-name="c" class="cls-6" d="M1849.311,1070.788l10.121,3.191,6.382-20.242,21.799,6.873c9.46,2.983,19.546-2.268,22.528-11.728s-2.268-19.546-11.728-22.528l-31.142-9.819-17.962,54.253ZM1869.006,1043.616l21.021,6.628c3.87,1.22,7.996-.928,9.216-4.798,1.22-3.87-.928-7.996-4.798-9.216l-21.021-6.628-4.419,14.014Z"/>
            <path class="cls-1" d="M1895.634,1085.394c2.455-7.785,7.855-24.913-3.823-28.596l-14.792-4.664c17.128,5.4,11.728,22.528,9.273,30.314"/>
          </g>
          <path id="a-2" data-name="a" class="cls-6" d="M1942.43,1102.14c13.302,4.974,28.566-2.976,34.092-17.757,5.526-14.78-.778-30.794-14.08-35.767s-28.566,2.976-34.092,17.757c-5.526,14.78.778,30.794,14.08,35.767M1946.147,1092.2c7.812,2.921,16.962-2.243,20.435-11.533,3.474-9.29-.044-19.19-7.856-22.111-7.812-2.921-16.962,2.243-20.435,11.533-3.474,9.29.044,19.19,7.856,22.111"/>
          <g id="m">
            <g class="cls-7">
              <path id="a-3" data-name="a" class="cls-6" d="M2009.695,1129.317c13.024,5.663,28.682-1.477,34.974-15.948,6.292-14.471.835-30.792-12.189-36.455-13.024-5.663-28.682,1.477-34.974,15.948-6.292,14.471-.835,30.792,12.189,36.455M2013.927,1119.585c7.649,3.326,17.056-1.352,21.011-10.448s.961-19.166-6.688-22.492-17.056,1.352-21.011,10.448c-3.955,9.096-.961,19.166,6.688,22.492"/>
            </g>
            <path class="cls-1" d="M2024.831,1104.743l19.838,8.626-3.255,7.486-19.838-8.626,3.255-7.486Z"/>
            <path class="cls-1" d="M2037.183,1110.114l7.486,3.255-11.393,26.202-7.486-3.255,11.393-26.202Z"/>
          </g>
          <g id="h-3" data-name="h">
            <path id="c-4" data-name="c" class="cls-6" d="M2052.433,1148.503l9.497,4.735,9.47-18.995,20.456,10.199c8.876,4.426,19.66.818,24.086-8.059,4.426-8.876.818-19.66-8.059-24.086l-29.222-14.57-26.228,50.775ZM2076.136,1124.746l19.725,9.835c3.631,1.81,8.043.334,9.853-3.297s.334-8.043-3.297-9.853l-19.725-9.835-6.556,13.15Z"/>
            <path class="cls-1" d="M2095.901,1170.176c3.642-7.306,11.656-23.378.697-28.842l-13.881-6.921c16.072,8.013,8.059,24.086,4.417,31.391"/>
          </g>
          <path id="j-2" data-name="j" class="cls-1" d="M2117.121,1181.373l44.761,25.325,5.226-9.236-36.235-20.501,7.236-12.789,28.42,16.079,4.824-8.526-28.42-16.079,5.628-9.947,34.104,19.295,5.226-9.236-42.63-24.119-28.138,49.735Z"/>
          <path id="n" class="cls-1" d="M2200.492,1209.346c-3.07,4.819.042,10.19,6.927,14.576,6.885,4.386,11.574,4.228,13.554,1.134,6.25-9.811-29.884-24.12-18.746-41.222,9.602-14.693,26.031-3.258,32.228.689,6.196,3.948,16.146,14.158,8.408,25.925l-10.499-6.689c3.29-5.164-.324-10.127-5.831-13.636-5.336-3.399-9.671-4.951-12.851.04-5.326,7.98,30.088,23.04,19.232,40.08-8.005,12.565-21.933,7.079-31.227,1.158-7.918-5.044-19.748-16.936-12.038-28.963l10.844,6.908Z"/>
          <path id="n-2" data-name="n" class="cls-1" d="M2261.793,1249.881c-3.318,4.652-.492,10.178,6.154,14.918,6.646,4.74,11.337,4.827,13.476,1.842,6.755-9.47-28.581-25.651-16.563-42.147,10.358-14.17,26.166-1.891,32.148,2.375s15.383,14.983,7.04,26.329l-10.135-7.229c3.555-4.984.207-10.13-5.11-13.923-5.151-3.674-9.398-5.45-12.835-.632-5.736,7.69,28.841,24.583,17.108,41.031-8.651,12.129-22.273,5.922-31.245-.478-7.643-5.451-18.834-17.947-10.505-29.553l10.467,7.466Z"/>
          <path id="a-4" data-name="a" class="cls-6" d="M2319.77,1315.629c11.114,8.841,28.087,5.997,37.91-6.353,9.823-12.349,8.776-29.527-2.338-38.368-11.114-8.841-28.087-5.997-37.91,6.353-9.823,12.349-8.776,29.527,2.338,38.368M2326.377,1307.324c6.527,5.192,16.824,3.109,22.999-4.654,6.174-7.762,5.888-18.264-.639-23.456-6.527-5.192-16.824-3.109-22.999,4.654-6.174,7.762-5.888,18.264.639,23.456"/>
        </g>
        <g id="o">
          <g id="f">
            <g id="e">
              <path id="d" class="cls-4" d="M1310.204,1066.631l-7.946,24.456,12.228,3.973"/>
              <path id="d-2" data-name="d" class="cls-4" d="M1310.204,1066.631l7.946,24.456-12.228,3.973"/>
            </g>
            <g id="e-2" data-name="e">
              <path id="d-3" data-name="d" class="cls-4" d="M1334.66,1084.399h-25.714v12.857"/>
              <path id="d-4" data-name="d" class="cls-4" d="M1334.66,1084.399l-20.803,15.114-7.557-10.402"/>
            </g>
            <g id="e-3" data-name="e">
              <path id="d-5" data-name="d" class="cls-4" d="M1285.748,1084.399l20.803,15.114,7.557-10.402"/>
              <path id="d-6" data-name="d" class="cls-4" d="M1285.748,1084.399h25.714v12.857"/>
            </g>
            <g id="e-4" data-name="e">
              <path id="d-7" data-name="d" class="cls-4" d="M1325.319,1113.148l-7.946-24.456-12.228,3.973"/>
              <path id="d-8" data-name="d" class="cls-4" d="M1325.319,1113.148l-20.803-15.114,7.557-10.402"/>
            </g>
            <g id="e-5" data-name="e">
              <path id="d-9" data-name="d" class="cls-4" d="M1295.09,1113.148l20.803-15.114-7.557-10.402"/>
              <path id="d-10" data-name="d" class="cls-4" d="M1295.09,1113.148l7.946-24.456,12.228,3.973"/>
            </g>
          </g>
        </g>
        <g id="o-2" data-name="o">
          <g id="f-2" data-name="f">
            <g id="e-6" data-name="e">
              <path id="d-11" data-name="d" class="cls-4" d="M1363.265,1318.876l-7.946,24.456,12.228,3.973"/>
              <path id="d-12" data-name="d" class="cls-4" d="M1363.265,1318.876l7.946,24.456-12.228,3.973"/>
            </g>
            <g id="e-7" data-name="e">
              <path id="d-13" data-name="d" class="cls-4" d="M1387.721,1336.644h-25.714v12.857"/>
              <path id="d-14" data-name="d" class="cls-4" d="M1387.721,1336.644l-20.803,15.114-7.557-10.402"/>
            </g>
            <g id="e-8" data-name="e">
              <path id="d-15" data-name="d" class="cls-4" d="M1338.81,1336.644l20.803,15.114,7.557-10.402"/>
              <path id="d-16" data-name="d" class="cls-4" d="M1338.81,1336.644h25.714v12.857"/>
            </g>
            <g id="e-9" data-name="e">
              <path id="d-17" data-name="d" class="cls-4" d="M1378.38,1365.393l-7.946-24.456-12.228,3.973"/>
              <path id="d-18" data-name="d" class="cls-4" d="M1378.38,1365.393l-20.803-15.114,7.557-10.402"/>
            </g>
            <g id="e-10" data-name="e">
              <path id="d-19" data-name="d" class="cls-4" d="M1348.151,1365.393l20.803-15.114-7.557-10.402"/>
              <path id="d-20" data-name="d" class="cls-4" d="M1348.151,1365.393l7.946-24.456,12.228,3.973"/>
            </g>
          </g>
        </g>
        <g id="p">
          <g id="f-3" data-name="f">
            <g id="e-11" data-name="e">
              <path id="d-21" data-name="d" class="cls-4" d="M1289.796,1377.039l-6.622,20.38,10.19,3.311"/>
              <path id="d-22" data-name="d" class="cls-4" d="M1289.796,1377.039l6.622,20.38-10.19,3.311"/>
            </g>
            <g id="e-12" data-name="e">
              <path id="d-23" data-name="d" class="cls-4" d="M1310.176,1391.846h-21.429v10.714"/>
              <path id="d-24" data-name="d" class="cls-4" d="M1310.176,1391.846l-17.336,12.595-6.298-8.668"/>
            </g>
            <g id="e-13" data-name="e">
              <path id="d-25" data-name="d" class="cls-4" d="M1269.416,1391.846l17.336,12.595,6.298-8.668"/>
              <path id="d-26" data-name="d" class="cls-4" d="M1269.416,1391.846h21.429v10.714"/>
            </g>
            <g id="e-14" data-name="e">
              <path id="d-27" data-name="d" class="cls-4" d="M1302.391,1415.803l-6.622-20.38-10.19,3.311"/>
              <path id="d-28" data-name="d" class="cls-4" d="M1302.391,1415.803l-17.336-12.595,6.298-8.668"/>
            </g>
            <g id="e-15" data-name="e">
              <path id="d-29" data-name="d" class="cls-4" d="M1277.201,1415.803l17.336-12.595-6.298-8.668"/>
              <path id="d-30" data-name="d" class="cls-4" d="M1277.201,1415.803l6.622-20.38,10.19,3.311"/>
            </g>
          </g>
        </g>
        <g id="q">
          <g id="f-4" data-name="f">
            <g id="e-16" data-name="e">
              <path id="d-31" data-name="d" class="cls-4" d="M1422.041,1295.61l-3.784,11.646,5.823,1.892"/>
              <path id="d-32" data-name="d" class="cls-4" d="M1422.041,1295.61l3.784,11.646-5.823,1.892"/>
            </g>
            <g id="e-17" data-name="e">
              <path id="d-33" data-name="d" class="cls-4" d="M1433.686,1304.071h-12.245v6.122"/>
              <path id="d-34" data-name="d" class="cls-4" d="M1433.686,1304.071l-9.906,7.197-3.599-4.953"/>
            </g>
            <g id="e-18" data-name="e">
              <path id="d-35" data-name="d" class="cls-4" d="M1410.395,1304.071l9.906,7.197,3.599-4.953"/>
              <path id="d-36" data-name="d" class="cls-4" d="M1410.395,1304.071h12.245v6.122"/>
            </g>
            <g id="e-19" data-name="e">
              <path id="d-37" data-name="d" class="cls-4" d="M1429.238,1317.761l-3.784-11.646-5.823,1.892"/>
              <path id="d-38" data-name="d" class="cls-4" d="M1429.238,1317.761l-9.906-7.197,3.599-4.953"/>
            </g>
            <g id="e-20" data-name="e">
              <path id="d-39" data-name="d" class="cls-4" d="M1414.843,1317.761l9.906-7.197-3.599-4.953"/>
              <path id="d-40" data-name="d" class="cls-4" d="M1414.843,1317.761l3.784-11.646,5.823,1.892"/>
            </g>
          </g>
        </g>
        <g id="p-2" data-name="p">
          <g id="f-5" data-name="f">
            <g id="e-21" data-name="e">
              <path id="d-41" data-name="d" class="cls-4" d="M1488.163,1382.753l-6.622,20.38,10.19,3.311"/>
              <path id="d-42" data-name="d" class="cls-4" d="M1488.163,1382.753l6.622,20.38-10.19,3.311"/>
            </g>
            <g id="e-22" data-name="e">
              <path id="d-43" data-name="d" class="cls-4" d="M1508.543,1397.56h-21.429v10.714"/>
              <path id="d-44" data-name="d" class="cls-4" d="M1508.543,1397.56l-17.336,12.595-6.298-8.668"/>
            </g>
            <g id="e-23" data-name="e">
              <path id="d-45" data-name="d" class="cls-4" d="M1467.783,1397.56l17.336,12.595,6.298-8.668"/>
              <path id="d-46" data-name="d" class="cls-4" d="M1467.783,1397.56h21.429v10.714"/>
            </g>
            <g id="e-24" data-name="e">
              <path id="d-47" data-name="d" class="cls-4" d="M1500.759,1421.518l-6.622-20.38-10.19,3.311"/>
              <path id="d-48" data-name="d" class="cls-4" d="M1500.759,1421.518l-17.336-12.595,6.298-8.668"/>
            </g>
            <g id="e-25" data-name="e">
              <path id="d-49" data-name="d" class="cls-4" d="M1475.568,1421.518l17.336-12.595-6.298-8.668"/>
              <path id="d-50" data-name="d" class="cls-4" d="M1475.568,1421.518l6.622-20.38,10.19,3.311"/>
            </g>
          </g>
        </g>
        <g id="r">
          <g id="f-6" data-name="f">
            <g id="e-26" data-name="e">
              <path id="d-51" data-name="d" class="cls-4" d="M1470.204,1446.631l-5.297,16.304,8.152,2.649"/>
              <path id="d-52" data-name="d" class="cls-4" d="M1470.204,1446.631l5.297,16.304-8.152,2.649"/>
            </g>
            <g id="e-27" data-name="e">
              <path id="d-53" data-name="d" class="cls-4" d="M1486.508,1458.476h-17.143v8.571"/>
              <path id="d-54" data-name="d" class="cls-4" d="M1486.508,1458.476l-13.869,10.076-5.038-6.934"/>
            </g>
            <g id="e-28" data-name="e">
              <path id="d-55" data-name="d" class="cls-4" d="M1453.9,1458.476l13.869,10.076,5.038-6.934"/>
              <path id="d-56" data-name="d" class="cls-4" d="M1453.9,1458.476h17.143v8.571"/>
            </g>
            <g id="e-29" data-name="e">
              <path id="d-57" data-name="d" class="cls-4" d="M1480.28,1477.642l-5.297-16.304-8.152,2.649"/>
              <path id="d-58" data-name="d" class="cls-4" d="M1480.28,1477.642l-13.869-10.076,5.038-6.934"/>
            </g>
            <g id="e-30" data-name="e">
              <path id="d-59" data-name="d" class="cls-4" d="M1460.128,1477.642l13.869-10.076-5.038-6.934"/>
              <path id="d-60" data-name="d" class="cls-4" d="M1460.128,1477.642l5.297-16.304,8.152,2.649"/>
            </g>
          </g>
        </g>
        <g id="o-3" data-name="o">
          <g id="f-7" data-name="f">
            <g id="e-31" data-name="e">
              <path id="d-61" data-name="d" class="cls-4" d="M1986.122,988.263l-7.946,24.456,12.228,3.973"/>
              <path id="d-62" data-name="d" class="cls-4" d="M1986.122,988.263l7.946,24.456-12.228,3.973"/>
            </g>
            <g id="e-32" data-name="e">
              <path id="d-63" data-name="d" class="cls-4" d="M2010.578,1006.031h-25.714v12.857"/>
              <path id="d-64" data-name="d" class="cls-4" d="M2010.578,1006.031l-20.803,15.114-7.557-10.402"/>
            </g>
            <g id="e-33" data-name="e">
              <path id="d-65" data-name="d" class="cls-4" d="M1961.667,1006.031l20.803,15.114,7.557-10.402"/>
              <path id="d-66" data-name="d" class="cls-4" d="M1961.667,1006.031h25.714v12.857"/>
            </g>
            <g id="e-34" data-name="e">
              <path id="d-67" data-name="d" class="cls-4" d="M2001.237,1034.781l-7.946-24.456-12.228,3.973"/>
              <path id="d-68" data-name="d" class="cls-4" d="M2001.237,1034.781l-20.803-15.114,7.557-10.402"/>
            </g>
            <g id="e-35" data-name="e">
              <path id="d-69" data-name="d" class="cls-4" d="M1971.008,1034.781l20.803-15.114-7.557-10.402"/>
              <path id="d-70" data-name="d" class="cls-4" d="M1971.008,1034.781l7.946-24.456,12.228,3.973"/>
            </g>
          </g>
        </g>
        <g id="o-4" data-name="o">
          <g id="f-8" data-name="f">
            <g id="e-36" data-name="e">
              <path id="d-71" data-name="d" class="cls-4" d="M2220.408,1384.998l-7.946,24.456,12.228,3.973"/>
              <path id="d-72" data-name="d" class="cls-4" d="M2220.408,1384.998l7.946,24.456-12.228,3.973"/>
            </g>
            <g id="e-37" data-name="e">
              <path id="d-73" data-name="d" class="cls-4" d="M2244.864,1402.766h-25.714v12.857"/>
              <path id="d-74" data-name="d" class="cls-4" d="M2244.864,1402.766l-20.803,15.114-7.557-10.402"/>
            </g>
            <g id="e-38" data-name="e">
              <path id="d-75" data-name="d" class="cls-4" d="M2195.952,1402.766l20.803,15.114,7.557-10.402"/>
              <path id="d-76" data-name="d" class="cls-4" d="M2195.952,1402.766h25.714v12.857"/>
            </g>
            <g id="e-39" data-name="e">
              <path id="d-77" data-name="d" class="cls-4" d="M2235.523,1431.516l-7.946-24.456-12.228,3.973"/>
              <path id="d-78" data-name="d" class="cls-4" d="M2235.523,1431.516l-20.803-15.114,7.557-10.402"/>
            </g>
            <g id="e-40" data-name="e">
              <path id="d-79" data-name="d" class="cls-4" d="M2205.294,1431.516l20.803-15.114-7.557-10.402"/>
              <path id="d-80" data-name="d" class="cls-4" d="M2205.294,1431.516l7.946-24.456,12.228,3.973"/>
            </g>
          </g>
        </g>
        <g id="r-2" data-name="r">
          <g id="f-9" data-name="f">
            <g id="e-41" data-name="e">
              <path id="d-81" data-name="d" class="cls-4" d="M2303.673,1399.284l-5.297,16.304,8.152,2.649"/>
              <path id="d-82" data-name="d" class="cls-4" d="M2303.673,1399.284l5.297,16.304-8.152,2.649"/>
            </g>
            <g id="e-42" data-name="e">
              <path id="d-83" data-name="d" class="cls-4" d="M2319.977,1411.129h-17.143v8.571"/>
              <path id="d-84" data-name="d" class="cls-4" d="M2319.977,1411.129l-13.869,10.076-5.038-6.934"/>
            </g>
            <g id="e-43" data-name="e">
              <path id="d-85" data-name="d" class="cls-4" d="M2287.37,1411.129l13.869,10.076,5.038-6.934"/>
              <path id="d-86" data-name="d" class="cls-4" d="M2287.37,1411.129h17.143v8.571"/>
            </g>
            <g id="e-44" data-name="e">
              <path id="d-87" data-name="d" class="cls-4" d="M2313.75,1430.295l-5.297-16.304-8.152,2.649"/>
              <path id="d-88" data-name="d" class="cls-4" d="M2313.75,1430.295l-13.869-10.076,5.038-6.934"/>
            </g>
            <g id="e-45" data-name="e">
              <path id="d-89" data-name="d" class="cls-4" d="M2293.597,1430.295l13.869-10.076-5.038-6.934"/>
              <path id="d-90" data-name="d" class="cls-4" d="M2293.597,1430.295l5.297-16.304,8.152,2.649"/>
            </g>
          </g>
        </g>
        <g id="p-3" data-name="p">
          <g id="f-10" data-name="f">
            <g id="e-46" data-name="e">
              <path id="d-91" data-name="d" class="cls-4" d="M2244.898,1442.345l-6.622,20.38,10.19,3.311"/>
              <path id="d-92" data-name="d" class="cls-4" d="M2244.898,1442.345l6.622,20.38-10.19,3.311"/>
            </g>
            <g id="e-47" data-name="e">
              <path id="d-93" data-name="d" class="cls-4" d="M2265.278,1457.152h-21.429v10.714"/>
              <path id="d-94" data-name="d" class="cls-4" d="M2265.278,1457.152l-17.336,12.595-6.298-8.668"/>
            </g>
            <g id="e-48" data-name="e">
              <path id="d-95" data-name="d" class="cls-4" d="M2224.518,1457.152l17.336,12.595,6.298-8.668"/>
              <path id="d-96" data-name="d" class="cls-4" d="M2224.518,1457.152h21.429v10.714"/>
            </g>
            <g id="e-49" data-name="e">
              <path id="d-97" data-name="d" class="cls-4" d="M2257.493,1481.11l-6.622-20.38-10.19,3.311"/>
              <path id="d-98" data-name="d" class="cls-4" d="M2257.493,1481.11l-17.336-12.595,6.298-8.668"/>
            </g>
            <g id="e-50" data-name="e">
              <path id="d-99" data-name="d" class="cls-4" d="M2232.303,1481.11l17.336-12.595-6.298-8.668"/>
              <path id="d-100" data-name="d" class="cls-4" d="M2232.303,1481.11l6.622-20.38,10.19,3.311"/>
            </g>
          </g>
        </g>
        <g id="p-4" data-name="p">
          <g id="f-11" data-name="f">
            <g id="e-51" data-name="e">
              <path id="d-101" data-name="d" class="cls-4" d="M2100.408,1568.059l-6.622,20.38,10.19,3.311"/>
              <path id="d-102" data-name="d" class="cls-4" d="M2100.408,1568.059l6.622,20.38-10.19,3.311"/>
            </g>
            <g id="e-52" data-name="e">
              <path id="d-103" data-name="d" class="cls-4" d="M2120.788,1582.866h-21.429v10.714"/>
              <path id="d-104" data-name="d" class="cls-4" d="M2120.788,1582.866l-17.336,12.595-6.298-8.668"/>
            </g>
            <g id="e-53" data-name="e">
              <path id="d-105" data-name="d" class="cls-4" d="M2080.028,1582.866l17.336,12.595,6.298-8.668"/>
              <path id="d-106" data-name="d" class="cls-4" d="M2080.028,1582.866h21.429v10.714"/>
            </g>
            <g id="e-54" data-name="e">
              <path id="d-107" data-name="d" class="cls-4" d="M2113.004,1606.824l-6.622-20.38-10.19,3.311"/>
              <path id="d-108" data-name="d" class="cls-4" d="M2113.004,1606.824l-17.336-12.595,6.298-8.668"/>
            </g>
            <g id="e-55" data-name="e">
              <path id="d-109" data-name="d" class="cls-4" d="M2087.813,1606.824l17.336-12.595-6.298-8.668"/>
              <path id="d-110" data-name="d" class="cls-4" d="M2087.813,1606.824l6.622-20.38,10.19,3.311"/>
            </g>
          </g>
        </g>
        <g id="r-3" data-name="r">
          <g id="f-12" data-name="f">
            <g id="e-56" data-name="e">
              <path id="d-111" data-name="d" class="cls-4" d="M2099.592,1632.753l-5.297,16.304,8.152,2.649"/>
              <path id="d-112" data-name="d" class="cls-4" d="M2099.592,1632.753l5.297,16.304-8.152,2.649"/>
            </g>
            <g id="e-57" data-name="e">
              <path id="d-113" data-name="d" class="cls-4" d="M2115.896,1644.599h-17.143v8.571"/>
              <path id="d-114" data-name="d" class="cls-4" d="M2115.896,1644.599l-13.869,10.076-5.038-6.934"/>
            </g>
            <g id="e-58" data-name="e">
              <path id="d-115" data-name="d" class="cls-4" d="M2083.288,1644.599l13.869,10.076,5.038-6.934"/>
              <path id="d-116" data-name="d" class="cls-4" d="M2083.288,1644.599h17.143v8.571"/>
            </g>
            <g id="e-59" data-name="e">
              <path id="d-117" data-name="d" class="cls-4" d="M2109.668,1663.765l-5.297-16.304-8.152,2.649"/>
              <path id="d-118" data-name="d" class="cls-4" d="M2109.668,1663.765l-13.869-10.076,5.038-6.934"/>
            </g>
            <g id="e-60" data-name="e">
              <path id="d-119" data-name="d" class="cls-4" d="M2089.516,1663.765l13.869-10.076-5.038-6.934"/>
              <path id="d-120" data-name="d" class="cls-4" d="M2089.516,1663.765l5.297-16.304,8.152,2.649"/>
            </g>
          </g>
        </g>
        <g id="r-4" data-name="r">
          <g id="f-13" data-name="f">
            <g id="e-61" data-name="e">
              <path id="d-121" data-name="d" class="cls-4" d="M2160,1524.998l-5.297,16.304,8.152,2.649"/>
              <path id="d-122" data-name="d" class="cls-4" d="M2160,1524.998l5.297,16.304-8.152,2.649"/>
            </g>
            <g id="e-62" data-name="e">
              <path id="d-123" data-name="d" class="cls-4" d="M2176.304,1536.843h-17.143v8.571"/>
              <path id="d-124" data-name="d" class="cls-4" d="M2176.304,1536.843l-13.869,10.076-5.038-6.934"/>
            </g>
            <g id="e-63" data-name="e">
              <path id="d-125" data-name="d" class="cls-4" d="M2143.696,1536.843l13.869,10.076,5.038-6.934"/>
              <path id="d-126" data-name="d" class="cls-4" d="M2143.696,1536.843h17.143v8.571"/>
            </g>
            <g id="e-64" data-name="e">
              <path id="d-127" data-name="d" class="cls-4" d="M2170.076,1556.01l-5.297-16.304-8.152,2.649"/>
              <path id="d-128" data-name="d" class="cls-4" d="M2170.076,1556.01l-13.869-10.076,5.038-6.934"/>
            </g>
            <g id="e-65" data-name="e">
              <path id="d-129" data-name="d" class="cls-4" d="M2149.924,1556.01l13.869-10.076-5.038-6.934"/>
              <path id="d-130" data-name="d" class="cls-4" d="M2149.924,1556.01l5.297-16.304,8.152,2.649"/>
            </g>
          </g>
        </g>
        <g id="p-5" data-name="p">
          <g id="f-14" data-name="f">
            <g id="e-66" data-name="e">
              <path id="d-131" data-name="d" class="cls-4" d="M2208.163,1490.508l-6.622,20.38,10.19,3.311"/>
              <path id="d-132" data-name="d" class="cls-4" d="M2208.163,1490.508l6.622,20.38-10.19,3.311"/>
            </g>
            <g id="e-67" data-name="e">
              <path id="d-133" data-name="d" class="cls-4" d="M2228.543,1505.315h-21.429v10.714"/>
              <path id="d-134" data-name="d" class="cls-4" d="M2228.543,1505.315l-17.336,12.595-6.298-8.668"/>
            </g>
            <g id="e-68" data-name="e">
              <path id="d-135" data-name="d" class="cls-4" d="M2187.783,1505.315l17.336,12.595,6.298-8.668"/>
              <path id="d-136" data-name="d" class="cls-4" d="M2187.783,1505.315h21.429v10.714"/>
            </g>
            <g id="e-69" data-name="e">
              <path id="d-137" data-name="d" class="cls-4" d="M2220.759,1529.273l-6.622-20.38-10.19,3.311"/>
              <path id="d-138" data-name="d" class="cls-4" d="M2220.759,1529.273l-17.336-12.595,6.298-8.668"/>
            </g>
            <g id="e-70" data-name="e">
              <path id="d-139" data-name="d" class="cls-4" d="M2195.568,1529.273l17.336-12.595-6.298-8.668"/>
              <path id="d-140" data-name="d" class="cls-4" d="M2195.568,1529.273l6.622-20.38,10.19,3.311"/>
            </g>
          </g>
        </g>
        <g id="r-5" data-name="r">
          <g id="f-15" data-name="f">
            <g id="e-71" data-name="e">
              <path id="d-141" data-name="d" class="cls-4" d="M2097.959,1513.569l-5.297,16.304,8.152,2.649"/>
              <path id="d-142" data-name="d" class="cls-4" d="M2097.959,1513.569l5.297,16.304-8.152,2.649"/>
            </g>
            <g id="e-72" data-name="e">
              <path id="d-143" data-name="d" class="cls-4" d="M2114.263,1525.415h-17.143v8.571"/>
              <path id="d-144" data-name="d" class="cls-4" d="M2114.263,1525.415l-13.869,10.076-5.038-6.934"/>
            </g>
            <g id="e-73" data-name="e">
              <path id="d-145" data-name="d" class="cls-4" d="M2081.655,1525.415l13.869,10.076,5.038-6.934"/>
              <path id="d-146" data-name="d" class="cls-4" d="M2081.655,1525.415h17.143v8.571"/>
            </g>
            <g id="e-74" data-name="e">
              <path id="d-147" data-name="d" class="cls-4" d="M2108.036,1544.581l-5.297-16.304-8.152,2.649"/>
              <path id="d-148" data-name="d" class="cls-4" d="M2108.036,1544.581l-13.869-10.076,5.038-6.934"/>
            </g>
            <g id="e-75" data-name="e">
              <path id="d-149" data-name="d" class="cls-4" d="M2087.883,1544.581l13.869-10.076-5.038-6.934"/>
              <path id="d-150" data-name="d" class="cls-4" d="M2087.883,1544.581l5.297-16.304,8.152,2.649"/>
            </g>
          </g>
        </g>
        <g id="p-6" data-name="p">
          <g id="f-16" data-name="f">
            <g id="e-76" data-name="e">
              <path id="d-151" data-name="d" class="cls-4" d="M1571.429,1203.161l-6.622,20.38,10.19,3.311"/>
              <path id="d-152" data-name="d" class="cls-4" d="M1571.429,1203.161l6.622,20.38-10.19,3.311"/>
            </g>
            <g id="e-77" data-name="e">
              <path id="d-153" data-name="d" class="cls-4" d="M1591.808,1217.968h-21.429v10.714"/>
              <path id="d-154" data-name="d" class="cls-4" d="M1591.808,1217.968l-17.336,12.595-6.298-8.668"/>
            </g>
            <g id="e-78" data-name="e">
              <path id="d-155" data-name="d" class="cls-4" d="M1551.049,1217.968l17.336,12.595,6.298-8.668"/>
              <path id="d-156" data-name="d" class="cls-4" d="M1551.049,1217.968h21.429v10.714"/>
            </g>
            <g id="e-79" data-name="e">
              <path id="d-157" data-name="d" class="cls-4" d="M1584.024,1241.926l-6.622-20.38-10.19,3.311"/>
              <path id="d-158" data-name="d" class="cls-4" d="M1584.024,1241.926l-17.336-12.595,6.298-8.668"/>
            </g>
            <g id="e-80" data-name="e">
              <path id="d-159" data-name="d" class="cls-4" d="M1558.833,1241.926l17.336-12.595-6.298-8.668"/>
              <path id="d-160" data-name="d" class="cls-4" d="M1558.833,1241.926l6.622-20.38,10.19,3.311"/>
            </g>
          </g>
        </g>
        <g id="r-6" data-name="r">
          <g id="f-17" data-name="f">
            <g id="e-81" data-name="e">
              <path id="d-161" data-name="d" class="cls-4" d="M1963.265,1152.753l-5.297,16.304,8.152,2.649"/>
              <path id="d-162" data-name="d" class="cls-4" d="M1963.265,1152.753l5.297,16.304-8.152,2.649"/>
            </g>
            <g id="e-82" data-name="e">
              <path id="d-163" data-name="d" class="cls-4" d="M1979.569,1164.599h-17.143v8.571"/>
              <path id="d-164" data-name="d" class="cls-4" d="M1979.569,1164.599l-13.869,10.076-5.038-6.934"/>
            </g>
            <g id="e-83" data-name="e">
              <path id="d-165" data-name="d" class="cls-4" d="M1946.961,1164.599l13.869,10.076,5.038-6.934"/>
              <path id="d-166" data-name="d" class="cls-4" d="M1946.961,1164.599h17.143v8.571"/>
            </g>
            <g id="e-84" data-name="e">
              <path id="d-167" data-name="d" class="cls-4" d="M1973.342,1183.765l-5.297-16.304-8.152,2.649"/>
              <path id="d-168" data-name="d" class="cls-4" d="M1973.342,1183.765l-13.869-10.076,5.038-6.934"/>
            </g>
            <g id="e-85" data-name="e">
              <path id="d-169" data-name="d" class="cls-4" d="M1953.189,1183.765l13.869-10.076-5.038-6.934"/>
              <path id="d-170" data-name="d" class="cls-4" d="M1953.189,1183.765l5.297-16.304,8.152,2.649"/>
            </g>
          </g>
        </g>
        <g id="o-5" data-name="o">
          <g id="f-18" data-name="f">
            <g id="e-86" data-name="e">
              <path id="d-171" data-name="d" class="cls-4" d="M1800,1443.774l-7.946,24.456,12.228,3.973"/>
              <path id="d-172" data-name="d" class="cls-4" d="M1800,1443.774l7.946,24.456-12.228,3.973"/>
            </g>
            <g id="e-87" data-name="e">
              <path id="d-173" data-name="d" class="cls-4" d="M1824.456,1461.542h-25.714v12.857"/>
              <path id="d-174" data-name="d" class="cls-4" d="M1824.456,1461.542l-20.803,15.114-7.557-10.402"/>
            </g>
            <g id="e-88" data-name="e">
              <path id="d-175" data-name="d" class="cls-4" d="M1775.544,1461.542l20.803,15.114,7.557-10.402"/>
              <path id="d-176" data-name="d" class="cls-4" d="M1775.544,1461.542h25.714v12.857"/>
            </g>
            <g id="e-89" data-name="e">
              <path id="d-177" data-name="d" class="cls-4" d="M1815.114,1490.291l-7.946-24.456-12.228,3.973"/>
              <path id="d-178" data-name="d" class="cls-4" d="M1815.114,1490.291l-20.803-15.114,7.557-10.402"/>
            </g>
            <g id="e-90" data-name="e">
              <path id="d-179" data-name="d" class="cls-4" d="M1784.886,1490.291l20.803-15.114-7.557-10.402"/>
              <path id="d-180" data-name="d" class="cls-4" d="M1784.886,1490.291l7.946-24.456,12.228,3.973"/>
            </g>
          </g>
        </g>
        <g id="p-7" data-name="p">
          <g id="f-19" data-name="f">
            <g id="e-91" data-name="e">
              <path id="d-181" data-name="d" class="cls-4" d="M1869.388,1328.876l-6.622,20.38,10.19,3.311"/>
              <path id="d-182" data-name="d" class="cls-4" d="M1869.388,1328.876l6.622,20.38-10.19,3.311"/>
            </g>
            <g id="e-92" data-name="e">
              <path id="d-183" data-name="d" class="cls-4" d="M1889.768,1343.682h-21.429v10.714"/>
              <path id="d-184" data-name="d" class="cls-4" d="M1889.768,1343.682l-17.336,12.595-6.298-8.668"/>
            </g>
            <g id="e-93" data-name="e">
              <path id="d-185" data-name="d" class="cls-4" d="M1849.008,1343.682l17.336,12.595,6.298-8.668"/>
              <path id="d-186" data-name="d" class="cls-4" d="M1849.008,1343.682h21.429v10.714"/>
            </g>
            <g id="e-94" data-name="e">
              <path id="d-187" data-name="d" class="cls-4" d="M1881.983,1367.64l-6.622-20.38-10.19,3.311"/>
              <path id="d-188" data-name="d" class="cls-4" d="M1881.983,1367.64l-17.336-12.595,6.298-8.668"/>
            </g>
            <g id="e-95" data-name="e">
              <path id="d-189" data-name="d" class="cls-4" d="M1856.792,1367.64l17.336-12.595-6.298-8.668"/>
              <path id="d-190" data-name="d" class="cls-4" d="M1856.792,1367.64l6.622-20.38,10.19,3.311"/>
            </g>
          </g>
        </g>
        <g id="p-8" data-name="p">
          <g id="f-20" data-name="f">
            <g id="e-96" data-name="e">
              <path id="d-191" data-name="d" class="cls-4" d="M1800,1274.998l-6.622,20.38,10.19,3.311"/>
              <path id="d-192" data-name="d" class="cls-4" d="M1800,1274.998l6.622,20.38-10.19,3.311"/>
            </g>
            <g id="e-97" data-name="e">
              <path id="d-193" data-name="d" class="cls-4" d="M1820.38,1289.805h-21.429v10.714"/>
              <path id="d-194" data-name="d" class="cls-4" d="M1820.38,1289.805l-17.336,12.595-6.298-8.668"/>
            </g>
            <g id="e-98" data-name="e">
              <path id="d-195" data-name="d" class="cls-4" d="M1779.62,1289.805l17.336,12.595,6.298-8.668"/>
              <path id="d-196" data-name="d" class="cls-4" d="M1779.62,1289.805h21.429v10.714"/>
            </g>
            <g id="e-99" data-name="e">
              <path id="d-197" data-name="d" class="cls-4" d="M1812.595,1313.763l-6.622-20.38-10.19,3.311"/>
              <path id="d-198" data-name="d" class="cls-4" d="M1812.595,1313.763l-17.336-12.595,6.298-8.668"/>
            </g>
            <g id="e-100" data-name="e">
              <path id="d-199" data-name="d" class="cls-4" d="M1787.405,1313.763l17.336-12.595-6.298-8.668"/>
              <path id="d-200" data-name="d" class="cls-4" d="M1787.405,1313.763l6.622-20.38,10.19,3.311"/>
            </g>
          </g>
        </g>
        <g id="r-7" data-name="r">
          <g id="f-21" data-name="f">
            <g id="e-101" data-name="e">
              <path id="d-201" data-name="d" class="cls-4" d="M1739.592,1333.161l-5.297,16.304,8.152,2.649"/>
              <path id="d-202" data-name="d" class="cls-4" d="M1739.592,1333.161l5.297,16.304-8.152,2.649"/>
            </g>
            <g id="e-102" data-name="e">
              <path id="d-203" data-name="d" class="cls-4" d="M1755.896,1345.007h-17.143v8.571"/>
              <path id="d-204" data-name="d" class="cls-4" d="M1755.896,1345.007l-13.869,10.076-5.038-6.934"/>
            </g>
            <g id="e-103" data-name="e">
              <path id="d-205" data-name="d" class="cls-4" d="M1723.288,1345.007l13.869,10.076,5.038-6.934"/>
              <path id="d-206" data-name="d" class="cls-4" d="M1723.288,1345.007h17.143v8.571"/>
            </g>
            <g id="e-104" data-name="e">
              <path id="d-207" data-name="d" class="cls-4" d="M1749.668,1364.173l-5.297-16.304-8.152,2.649"/>
              <path id="d-208" data-name="d" class="cls-4" d="M1749.668,1364.173l-13.869-10.076,5.038-6.934"/>
            </g>
            <g id="e-105" data-name="e">
              <path id="d-209" data-name="d" class="cls-4" d="M1729.516,1364.173l13.869-10.076-5.038-6.934"/>
              <path id="d-210" data-name="d" class="cls-4" d="M1729.516,1364.173l5.297-16.304,8.152,2.649"/>
            </g>
          </g>
        </g>
        <g id="q-2" data-name="q">
          <g id="f-22" data-name="f">
            <g id="e-106" data-name="e">
              <path id="d-211" data-name="d" class="cls-4" d="M1769.796,1379.692l-3.784,11.646,5.823,1.892"/>
              <path id="d-212" data-name="d" class="cls-4" d="M1769.796,1379.692l3.784,11.646-5.823,1.892"/>
            </g>
            <g id="e-107" data-name="e">
              <path id="d-213" data-name="d" class="cls-4" d="M1781.442,1388.153h-12.245v6.122"/>
              <path id="d-214" data-name="d" class="cls-4" d="M1781.442,1388.153l-9.906,7.197-3.599-4.953"/>
            </g>
            <g id="e-108" data-name="e">
              <path id="d-215" data-name="d" class="cls-4" d="M1758.15,1388.153l9.906,7.197,3.599-4.953"/>
              <path id="d-216" data-name="d" class="cls-4" d="M1758.15,1388.153h12.245v6.122"/>
            </g>
            <g id="e-109" data-name="e">
              <path id="d-217" data-name="d" class="cls-4" d="M1776.993,1401.843l-3.784-11.646-5.823,1.892"/>
              <path id="d-218" data-name="d" class="cls-4" d="M1776.993,1401.843l-9.906-7.197,3.599-4.953"/>
            </g>
            <g id="e-110" data-name="e">
              <path id="d-219" data-name="d" class="cls-4" d="M1762.599,1401.843l9.906-7.197-3.599-4.953"/>
              <path id="d-220" data-name="d" class="cls-4" d="M1762.599,1401.843l3.784-11.646,5.823,1.892"/>
            </g>
          </g>
        </g>
        <g id="p-9" data-name="p">
          <g id="f-23" data-name="f">
            <g id="e-111" data-name="e">
              <path id="d-221" data-name="d" class="cls-4" d="M1979.592,1582.753l-6.622,20.38,10.19,3.311"/>
              <path id="d-222" data-name="d" class="cls-4" d="M1979.592,1582.753l6.622,20.38-10.19,3.311"/>
            </g>
            <g id="e-112" data-name="e">
              <path id="d-223" data-name="d" class="cls-4" d="M1999.972,1597.56h-21.429v10.714"/>
              <path id="d-224" data-name="d" class="cls-4" d="M1999.972,1597.56l-17.336,12.595-6.298-8.668"/>
            </g>
            <g id="e-113" data-name="e">
              <path id="d-225" data-name="d" class="cls-4" d="M1959.212,1597.56l17.336,12.595,6.298-8.668"/>
              <path id="d-226" data-name="d" class="cls-4" d="M1959.212,1597.56h21.429v10.714"/>
            </g>
            <g id="e-114" data-name="e">
              <path id="d-227" data-name="d" class="cls-4" d="M1992.187,1621.518l-6.622-20.38-10.19,3.311"/>
              <path id="d-228" data-name="d" class="cls-4" d="M1992.187,1621.518l-17.336-12.595,6.298-8.668"/>
            </g>
            <g id="e-115" data-name="e">
              <path id="d-229" data-name="d" class="cls-4" d="M1966.996,1621.518l17.336-12.595-6.298-8.668"/>
              <path id="d-230" data-name="d" class="cls-4" d="M1966.996,1621.518l6.622-20.38,10.19,3.311"/>
            </g>
          </g>
        </g>
        <g id="r-8" data-name="r">
          <g id="f-24" data-name="f">
            <g id="e-116" data-name="e">
              <path id="d-231" data-name="d" class="cls-4" d="M2031.02,1533.978l-5.297,16.304,8.152,2.649"/>
              <path id="d-232" data-name="d" class="cls-4" d="M2031.02,1533.978l5.297,16.304-8.152,2.649"/>
            </g>
            <g id="e-117" data-name="e">
              <path id="d-233" data-name="d" class="cls-4" d="M2047.324,1545.823h-17.143v8.571"/>
              <path id="d-234" data-name="d" class="cls-4" d="M2047.324,1545.823l-13.869,10.076-5.038-6.934"/>
            </g>
            <g id="e-118" data-name="e">
              <path id="d-235" data-name="d" class="cls-4" d="M2014.717,1545.823l13.869,10.076,5.038-6.934"/>
              <path id="d-236" data-name="d" class="cls-4" d="M2014.717,1545.823h17.143v8.571"/>
            </g>
            <g id="e-119" data-name="e">
              <path id="d-237" data-name="d" class="cls-4" d="M2041.097,1564.989l-5.297-16.304-8.152,2.649"/>
              <path id="d-238" data-name="d" class="cls-4" d="M2041.097,1564.989l-13.869-10.076,5.038-6.934"/>
            </g>
            <g id="e-120" data-name="e">
              <path id="d-239" data-name="d" class="cls-4" d="M2020.944,1564.989l13.869-10.076-5.038-6.934"/>
              <path id="d-240" data-name="d" class="cls-4" d="M2020.944,1564.989l5.297-16.304,8.152,2.649"/>
            </g>
          </g>
        </g>
        <g id="r-9" data-name="r">
          <g id="f-25" data-name="f">
            <g id="e-121" data-name="e">
              <path id="d-241" data-name="d" class="cls-4" d="M1932.245,1519.284l-5.297,16.304,8.152,2.649"/>
              <path id="d-242" data-name="d" class="cls-4" d="M1932.245,1519.284l5.297,16.304-8.152,2.649"/>
            </g>
            <g id="e-122" data-name="e">
              <path id="d-243" data-name="d" class="cls-4" d="M1948.549,1531.129h-17.143v8.571"/>
              <path id="d-244" data-name="d" class="cls-4" d="M1948.549,1531.129l-13.869,10.076-5.038-6.934"/>
            </g>
            <g id="e-123" data-name="e">
              <path id="d-245" data-name="d" class="cls-4" d="M1915.941,1531.129l13.869,10.076,5.038-6.934"/>
              <path id="d-246" data-name="d" class="cls-4" d="M1915.941,1531.129h17.143v8.571"/>
            </g>
            <g id="e-124" data-name="e">
              <path id="d-247" data-name="d" class="cls-4" d="M1942.321,1550.295l-5.297-16.304-8.152,2.649"/>
              <path id="d-248" data-name="d" class="cls-4" d="M1942.321,1550.295l-13.869-10.076,5.038-6.934"/>
            </g>
            <g id="e-125" data-name="e">
              <path id="d-249" data-name="d" class="cls-4" d="M1922.169,1550.295l13.869-10.076-5.038-6.934"/>
              <path id="d-250" data-name="d" class="cls-4" d="M1922.169,1550.295l5.297-16.304,8.152,2.649"/>
            </g>
          </g>
        </g>
        <g id="o-6" data-name="o">
          <g id="f-26" data-name="f">
            <g id="e-126" data-name="e">
              <path id="d-251" data-name="d" class="cls-4" d="M1559.184,1492.753l-7.946,24.456,12.228,3.973"/>
              <path id="d-252" data-name="d" class="cls-4" d="M1559.184,1492.753l7.946,24.456-12.228,3.973"/>
            </g>
            <g id="e-127" data-name="e">
              <path id="d-253" data-name="d" class="cls-4" d="M1583.639,1510.521h-25.714v12.857"/>
              <path id="d-254" data-name="d" class="cls-4" d="M1583.639,1510.521l-20.803,15.114-7.557-10.402"/>
            </g>
            <g id="e-128" data-name="e">
              <path id="d-255" data-name="d" class="cls-4" d="M1534.728,1510.521l20.803,15.114,7.557-10.402"/>
              <path id="d-256" data-name="d" class="cls-4" d="M1534.728,1510.521h25.714v12.857"/>
            </g>
            <g id="e-129" data-name="e">
              <path id="d-257" data-name="d" class="cls-4" d="M1574.298,1539.271l-7.946-24.456-12.228,3.973"/>
              <path id="d-258" data-name="d" class="cls-4" d="M1574.298,1539.271l-20.803-15.114,7.557-10.402"/>
            </g>
            <g id="e-130" data-name="e">
              <path id="d-259" data-name="d" class="cls-4" d="M1544.069,1539.271l20.803-15.114-7.557-10.402"/>
              <path id="d-260" data-name="d" class="cls-4" d="M1544.069,1539.271l7.946-24.456,12.228,3.973"/>
            </g>
          </g>
        </g>
        <g id="s">
          <g id="f-27" data-name="f">
            <g id="e-131" data-name="e">
              <path id="d-261" data-name="d" class="cls-4" d="M1800,1660.916l-2.649,8.152,4.076,1.324"/>
              <path id="d-262" data-name="d" class="cls-4" d="M1800,1660.916l2.649,8.152-4.076,1.324"/>
            </g>
            <g id="e-132" data-name="e">
              <path id="d-263" data-name="d" class="cls-4" d="M1808.152,1666.839h-8.571v4.286"/>
              <path id="d-264" data-name="d" class="cls-4" d="M1808.152,1666.839l-6.934,5.038-2.519-3.467"/>
            </g>
            <g id="e-133" data-name="e">
              <path id="d-265" data-name="d" class="cls-4" d="M1791.848,1666.839l6.934,5.038,2.519-3.467"/>
              <path id="d-266" data-name="d" class="cls-4" d="M1791.848,1666.839h8.571v4.286"/>
            </g>
            <g id="e-134" data-name="e">
              <path id="d-267" data-name="d" class="cls-4" d="M1805.038,1676.422l-2.649-8.152-4.076,1.324"/>
              <path id="d-268" data-name="d" class="cls-4" d="M1805.038,1676.422l-6.934-5.038,2.519-3.467"/>
            </g>
            <g id="e-135" data-name="e">
              <path id="d-269" data-name="d" class="cls-4" d="M1794.962,1676.422l6.934-5.038-2.519-3.467"/>
              <path id="d-270" data-name="d" class="cls-4" d="M1794.962,1676.422l2.649-8.152,4.076,1.324"/>
            </g>
          </g>
        </g>
      </g>
    </g>
  </g>
</svg>