<?xml version="1.0" encoding="UTF-8"?>
<svg xmlns="http://www.w3.org/2000/svg" viewBox="0 0 3600.1 2401.738">
  <defs>
    <style>
      .cls-1, .cls-2, .cls-3 {
        stroke-width: 0px;
      }

      .cls-2 {
        fill: #ff4e11;
      }

      .cls-2, .cls-3 {
        fill-rule: evenodd;
      }

      .cls-4 {
        stroke-linejoin: round;
      }

      .cls-4, .cls-5, .cls-6, .cls-7, .cls-8 {
        stroke: #000;
        stroke-width: 2.084px;
      }

      .cls-4, .cls-5, .cls-7 {
        fill: none;
      }

      .cls-4, .cls-5, .cls-8 {
        stroke-linecap: round;
      }

      .cls-3 {
        fill: #ffd521;
      }

      .cls-6, .cls-8 {
        fill: #fff;
      }
    </style>
  </defs>
  <g id="background">
    <path id="bt" class="cls-3" d="M400,.1h2800c220,0,400,180,400,400v1600c0,220-180,400-400,400H400C180,2400.1,0,2220.1,0,2000.1V400.1C0,180.1,180,.1,400,.1Z"/>
  </g>
  <g id="country">
    <g id="bt-2" data-name="bt">
      <path id="Path" class="cls-2" d="M3458.232,94.612c86.713,73.374,141.768,183.002,141.768,305.488v1600c0,220.914-179.086,400-400,400H400c-98.427,0-188.551-35.551-258.232-94.512L3458.232,94.612h0Z"/>
      <g>
        <g>
          <path class="cls-6" d="M1926.96,750.46c-19.948-7.08-32.832,3.22-32.184,28.976.636,25.76,14.168,40.568,34.12,30.908l-1.936-59.88v-.004Z"/>
          <path class="cls-6" d="M1944.48,702.22c-16.616-13.12-32.12-7.496-39.784,17.104-7.664,24.596.384,42.968,22.384,40.232l17.4-57.332v-.004Z"/>
          <path class="cls-6" d="M1972.16,655.54c-14.32-15.62-30.52-12.552-42.032,10.5-11.5,23.052-6.5,42.472,15.668,43.3l26.364-53.8ZM1954,882.46c-24.468,9.016-27.052,42.5-11.584,63.104,15.452,20.604,43.784,24.468,59.232,0l-47.64-63.12-.008.016Z"/>
          <path class="cls-6" d="M1925.68,811.62c-23.184-7.728-44.068,23.412-47.652,51.512-4.5,35.416-54.732,47.004-27.032,100.452,5.78-34.128,28.332-52.8,46.352-54.088,18.032-1.288,45.08-5.152,56.668-27.044l-28.336-70.832ZM1999.08,949.42c-27.052,6.44-30.92,42.5-11.6,68.256,16.532,22.052,68.252,16.74,66.968-5.152l-55.368-63.104h0ZM2075.72,1166.42c1.28-23.18-36.048-32.196-54.084-27.688-18.032,4.508-52.484-.64-60.532-19.96-6.432,15.452,2.9,32.196,28.984,40.564,19.732,6.34,19.316,20.608,13.516,27.048,14.816,2.576,58.6,2.576,72.116-19.96v-.004Z"/>
          <path class="cls-6" d="M2054.48,1018.34c-26.4-11.588-42.052,6.064-52.152,23.18-14.816,25.112-60.532-7.08-75.984,26.4,20.932-9.012,42.232,10.212,52.152,16.744,28.332,18.672,83.068,12.88,90.8-30.908l-14.816-35.416h0Z"/>
          <path class="cls-6" d="M2069.92,1049.22c-26.4,19.96-36.7,43.784-36.048,59.884.648,16.1,23.18,51.512,47.652,53.444,14.164-28.976,21.248-90.148-11.6-113.328h-.004ZM1960.48,1173.5c0-9.66,14.168-13.52,23.816-10.304,9.668,3.22,24.468,12.88,19.32,23.184l-43.136-12.88ZM1814.92,1120.7c-2.568-11.588,16.1-31.552,41.216-20.604,25.1,10.944,28.332,32.196,18.016,40.568l-59.232-19.96v-.004Z"/>
          <path class="cls-6" d="M1876.08,1141.94c-1.932-6.44,16.148-19.3,47.016-11.592,30.9,7.728,38.48,27.628,37.352,43.144l-84.372-31.552h.004ZM1811.72,1120.7c16.1-12.232,10-35.42-4.52-42.5-26.4-12.88-16.732-46.36-33.48-52.8-16.732-6.44-32.832-18.032-33.48-29.62-8.368,16.096-3.22,30.908,8.38,41.212,11.584,10.304-9.016,52.156,5.784,63.104l57.316,20.604h0ZM1466.56,1111.7c-13.52-21.248-45.72-17.384-59.24-2.576-13.52,14.812-11.588,36.704,1.288,46.36l57.952-43.784h0ZM1543.84,1080.14c-5.152-28.332-39.28-31.552-57.952-24.468-18.672,7.08-31.552,35.416-19.32,56.02l77.276-31.552h-.004Z"/>
          <path class="cls-6" d="M1595.36,1076.26c12.232-23.824-11.588-59.24-38.636-64.392-22.576-4.296-49.26-4.184-57.952-26.4-5.472,19.32,9.016,31.552,25.76,42.5,16.74,10.948-3.224,39.28,23.824,55.376l47.008-7.08-.004-.004Z"/>
          <path class="cls-6" d="M1592.8,1077.1c-5.636-17.068,5.796-39.772,28.928-38.18,23.14,1.592,36.32,18.4,26.12,39.42l-55.052-1.24h.004Z"/>
          <path class="cls-6" d="M1644.28,1078.38c-3.184-17.688,11.32-38.56,34-33.74,22.688,4.82,33.372,23.32,20.336,42.7l-54.336-8.96Z"/>
          <path class="cls-6" d="M1695.44,1086.5c-2.3-17.828,13.232-37.952,35.648-32.004,22.42,5.948,32.168,24.96,18.168,43.66l-53.816-11.656ZM1306.88,1381.5c-43.144,0-53.68,10.272-59.884,54.732-7.728,55.376,67.612,61.816,59.884-54.732Z"/>
          <path class="cls-6" d="M1326.2,1323.54c-66.324-25.112-102.38,79.844-168.06,61.172,23.5,37.348,80.472.068,101.736,3.864,36.06,6.44,113.972-7.084,66.324-65.04v.004ZM1283.04,1467.14c-32.84-14.808-68.256,35.416-61.816,57.308,8.176,27.808,83.064,5.152,61.816-57.308ZM1129.8,1683.5c18.032,5.132,39.92,15.448,36.06,50.216-3.864,34.768-69.54,105.6-128.78,109.468s-80.492,75.332-131.36,55.368c47.648-9,47.648-63.1,84.996-79.832-27.048-9.668-41.212,51.516-75.98,51.516s-51.512,55.368-94.012,51.5c-42.5-3.852-46.972,67.416-132,68.268-65.04.632-145.524,76.616-174.5,43.784,63.104-9.016,88.568-43.984,126.208-82.432,60.528-61.8,128.784-34.12,151.96-88.852-27.688,18.668-59.88,27.68-91.432,27.052-39.608-.82-83.064,63.1-127.496,34.764,25.756-3.216,42.5-14.164,69.544-42.5,27.692-29.016,68.332-10.264,100.452-39.916,50.224-46.368,93.368-7.732,141.66-65.684-13.524-6.432-42.5-1.932-69.544,12.232-27.048,14.168-61.816-9.664-92.724,7.084,3.86-37.984,75.98-16.248,121.056-42.5,50.872-29.616,93.048-20.932,133.292-17.384-56.02-.316-77.912-53.452-155.18-38-33.7,6.752-60.528-46.352-94.012-19.316.96-19.948,36.06-36.052,72.12-16.732,36.056,19.316,50.592-16.904,122.344,28.332,29.62,18.668,80.488-11.6,112.68,8.368-4.184-12.232-22.536-19.968-44.104-18.352,13.52-27.68,100.772-24.148,138.76,3.552l-.008-.004Z"/>
          <path class="cls-6" d="M1187.12,1641.62c-28.332-21.892-67.612,4.512-94.656-5.796,0,18.024,9.016,45.08,38.636,55.376,9.016-6.432,49.58-41.852,56.02-49.58Z"/>
          <path class="cls-6" d="M1231.56,1579.18c-44.432-22.536-52.156,33.48-86.928,21.892,1.288,16.1,14.168,36.06,42.5,40.568l44.432-62.46h-.004Z"/>
          <path class="cls-6" d="M1257.96,1528.3c-65.68-25.76-74.052,37.348-112.684,25.112,9.016,21.892,64.392,33.48,92.724,25.76l19.96-50.872h0ZM1348.08,1252.06c-17.388-24.468-54.088-4.508-59.884,24.468-5.796,28.976,8.368,69.544,32.84,60.528l27.04-84.996h.004Z"/>
          <path class="cls-6" d="M1392.52,1174.78c-30.264-7.08-65.036-3.864-61.172,25.76-11.592,5.148-14.812,43.14,16.74,51.508l44.432-77.272v.004Z"/>
          <path class="cls-6" d="M1412.48,1154.82c-29.62-34.772-62.652-33.96-81.132-19.32-34.128,27.048-67.292,11.592-68.256,38.64,20.608-15.78,38.636,3.216,55.376-2.58,16.74-5.792,28.976,26.4,75.34,12.88l18.672-29.62h0ZM1341,1674.5c4.508,8.368,32.196,12.232,45.72-1.932,17.92-18.784-1.932-70.84-30.264-74.7-28.332-3.864-30.908,58.6-15.456,76.632h0Z"/>
          <path class="cls-6" d="M1308.8,1675.78c40.564,14.8,57.952-18.68,36.06-39.924-5.8,7.08-27.048,32.84-36.06,39.924Z"/>
          <path class="cls-6" d="M1156.84,1731.14c-7.728,23.184-47.652,27.052-92.724,99.168-45.076,72.116-88.216,41.852-99.164,91.432,54.088-43.784,96.568-14.7,128.78-57.952,48.94-65.684,89.236-56.252,108.18-100.452,27.04-63.1,145.524-61.816,151.964-160.976-39.92-7.728-166.132,99.16-197.036,128.776v.004ZM2172.96,757.54c51.516,16.74,52.8,83.708,112.032,105.6,59.252,21.892,65.052,74.692,113.332,61.816-45.068-12.236-41.852-64.392-88.852-77.272-55.132-15.104-75.984-99.164-119.784-112.04M2409.28,1107.18c9.016,20.604,7.732,57.308-24.468,66.968,17.384,10.948,43.132.64,57.3-23.18-21.248,47.004-7.08,89.504,26.4,97.876-16.1-32.84,19.968-48.296,8.384-69.544,21.252,9.016,39.92,37.992,39.268,56.02,27.7-30.908-20.6-72.12-11.584-101.092l-95.3-27.044v-.004ZM2075.72,1438.14c-31.552-27.688-45.016,7.24-60.532-4.832-14.48-11.268-33.8-12.88-41.2-1.608,27.048.968,13.832,21.892,66.316,27.044-52.484,3.544-42.816,62.14-77.916,59.24,37.352,35.416,56.668-31.552,86.932-20.6-9.016,2.572,14.168,23.82-1.932,52.152,26.08-.64,36.7-36.704,39.932-55.376l-11.6-56.02h0ZM1380.92,1738.86c-11.592-9.652-45.076-14.168-57.952-6.432-12.88,7.716-8.368,9.648,7.08,10.948,15.46,1.284,35.412,26.284,1.936,27.684-15.456.632-10.304,37.984-42.5,40.568,13.2,16.1,50.872,5.468,64.392-12.232-2.576,14.48,16.74,27.68,9.016,45.068,23.824,2.584,9.98-48.284,47.652-45.72-15.456,1.936-9.016,36.704,18.028,27.688-16.1,7.732-7.728,26.4,10.3,21.9-11.588,3.864-15.452,18.664.644,27.048,15.456-21.248-1.932-97.232-58.596-136.516v-.004ZM2783.4,1028.38c49.284,0,89.232-39.96,89.232-89.248s-39.952-89.24-89.232-89.24-89.252,39.96-89.252,89.24,39.952,89.248,89.252,89.248Z"/>
          <path class="cls-6" d="M2317.2,1136.18c27.052-25.76,68.268-38.636,96.584-19.32,28.332,19.32,122.352,42.5,168.716,10.304,46.352-32.196,68.252-48.94,88.852-45.076,15.468,23.184,34.132,34.128,57.316,36.06,7.08,7.728,32.2,14.168,46.368,12.232,20.6,5.152,45.716-1.284,65.668-23.18,30.92,4.508,59.884-18.672,70.832-53.44,32.832-3.864,34.768-40.572,14.168-65.04-19.32-3.86-4.5-68.9-74.7-56.02,29.632,18.032,7.08,54.088,31.564,70.832-16.748,0-38.316,7.084-43.468,32.2,6.436-17.388-.964-28.98-5.48-32.84.648-14.812-32.184-51.192-63.1-37.992,22.216,4.828,9.664,40.568,25.764,54.088-11.6.644-23.832,6.44-30.916,16.74-8.368-14.808-37.984-30.264-56.016-31.552,0-5.152-.968-15.452-3.216-20.6-8.052-15.456-14.816-33.808-11.6-57.312-15.452,16.74-28.332,39.92-36.052,56.664-24.464-16.74-85,7.728-113.332,14.164-28.332,6.44-123.632-9.012-145.532-32.196-21.88-23.18-64.384-37.344-104.3-48.936-54.9-15.932-55.384-75.98-115.916-117.192-1.28,74.696,112.052,311.656,137.8,337.412h-.003ZM1686.16,1705.38c47.652,0,86.284-38.632,86.284-86.284s-38.632-86.28-86.284-86.28-86.284,38.632-86.284,86.28,38.632,86.284,86.284,86.284Z"/>
          <path class="cls-6" d="M1480.08,1639.06c17.384,22.54,47.004,21.256,59.24,19.32,10.304,27.036,43.14,26.4,57.308,41.2,14.168,14.82,62.452,13.536,76.62,5.152-12.868-1.28-29.612-9-45.712-22.532-19.432-16.32-10.304-48.936-25.76-60.524,11.592-12.88,13.524-34.128,10.948-42.5,12.24-7.084,21.252-18.676,22.54-24.472,21.252-1.288,39.92-12.232,47.652-20.6,10.948,10.3,38.632-3.224,53.452,14.16,3.216-42.5-37.352-65.036-64.4-50.868-10.952-5.792-39.92-1.928-45.072,5.8-9.016-3.868-34.128,9.012-45.72,17.384,12.88-7.08,14.808-28.332,9.656-36.06,10.948-4.508,23.184-19.32,24.468-30.264,15.456,2.576,38.632-7.728,48.932-5.152-16.732-21.892-44.42-29.62-72.756-27.688-29.3,1.612-41.852,22.216-45.716,44.432-17.384,10.304-23.18,45.072-16.74,57.308-9.984-.32-19.32,9.34-23.18,14.812-13.52-5.8-32.84-9.98-46.684-9.98M1465.28,1492.9c-5.796-16.74,1.88-31.812,5.796-45.072,9.98-33.8,3.864-42.5-26.4-37.992-2.576,16.1,12.88,68.9,20.604,83.064Z"/>
          <path class="cls-6" d="M1443.08,1411.74c7.728,7.728,35.096,11.268,37.992-13.2,3.328-28.088-8.048-38.96-32.52-28.012-1.928,6.44-4.184,32.84-5.472,41.212h0Z"/>
          <path class="cls-6" d="M1448.88,1369.58c10.304,4.184,32.52,12.556,44.752-11.268,10.264-19.984-3.22-35.416-24.468-34.132-5.152,5.8-15.452,26.4-20.284,45.4h0Z"/>
          <path class="cls-6" d="M1467.88,1322.26c2.576,7.728,28.976,33.48,48.292,14.812,19.32-18.676,19.32-46.36-9.66-56.664-7.728,1.284-30.908,28.328-38.632,41.852h0Z"/>
          <path class="cls-6" d="M1506.48,1280.42c5.796,16.096,23.824,43.784,57.308,30.908,33.484-12.88,19.32-54.732,3.864-63.104-9.016.64-45.72,17.384-61.172,32.196Z"/>
          <path class="cls-6" d="M1567.68,1248.22c-2.576,14.168,0,52.8,45.716,52.156,45.712-.64,32.844-54.088,21.252-61.816-18.676,0-50.224.64-66.968,9.66h0Z"/>
          <path class="cls-6" d="M1636.56,1240.46c-5.152,10.948-16.76,83,72.764,63.104,11.584-2.576,41.852-68.9-72.764-63.104Z"/>
          <path class="cls-6" d="M1685.48,1246.9c-9,9.012,14.168,81.776,74.7,69.54s9.668-81.132-74.7-69.54Z"/>
          <path class="cls-6" d="M1737,1257.86c-9.652,19.96,4.848,79.2,79.532,79.2,67.684,0-3.548-77.912-79.532-79.2Z"/>
          <path class="cls-6" d="M1795.6,1275.26c-4.848,11.064-10.784,73.872,77.268,79.2,63.752,3.864,48.3-86.284-77.268-79.2Z"/>
          <path class="cls-6" d="M1890.28,1301.66c-10.932,19.32-22.532,67.612,74.052,71.476,61.884,2.48,23.832-70.188-74.052-71.476Z"/>
          <path class="cls-6" d="M1970.76,1316.46c-14.168,19.32-3.732,57.212,32.184,64.392,45.08,9.016,51.516-33.48,20.616-54.088-30.92-20.604-52.8-10.304-52.8-10.304h0Z"/>
          <path class="cls-6" d="M2014.56,1325.46c-10.3,18.032-3.92,61.816,64.384,61.816,14.168,0,68.268-55.376-64.384-61.816ZM1485.92,2165.18c55.32,0,100.168-44.852,100.168-100.168s-44.848-100.184-100.168-100.184-100.172,44.852-100.172,100.184,44.848,100.168,100.172,100.168Z"/>
          <path class="cls-6" d="M2220.6,708.62c-7.732,7.728-23.816,30.908-27.052,39.92-33.48,100.452,55.9,175.484,108.184,283.32,41.216,85,36.068,218.932-28.332,303.928-22.032,29.076-15.448,37.348-43.784,66.968-10.868,11.364-23.184,25.76-19.316,66.968,18.032-6.44,43.784,10.304,48.932,24.472,12.88-6.44,30.92-3.864,37.348,3.86,21.884-10.3,39.92-5.152,59.232,15.456,16.752-2.576,34.784,0,51.52,18.028,9.016-18.028,27.048-24.468,39.916-20.604-1.284-23.18,21.9-39.92,42.5-30.908-6.436-30.908,21.9-54.092,48.952-45.076,23.164-18.028,69.532-19.316,92.716,7.728-41.216-11.588-39.92,32.2-74.7,28.332,9.016,25.76-14.168,40.568-37.336,48.936,14.8-7.08,30.9-15.452,36.052-6.44,12.88-11.264,38.632-7.08,45.08-1.284,17.052-5.472,33.488-1.288,41.2,19.316,23.188,14.168,38.64,50.224,21.904,77.272-5.152-28.332-24.468-27.044-32.2-38.636-18.036,6.44-36.068,6.44-41.216-5.152-10.3,10.304-45.068,19.32-60.52,3.864-5.8,23.18-25.76,42.5-48.948,42.5,6.448,18.028-11.584,48.944-25.752,64.392,21.9,11.584,15.452,37.348,10.3,52.8,33.484,5.148,5.152,34.768,63.1,54.084-28.316,9.016-83.7,0-91.432-34.768-28.332-1.28-47.652-29.616-46.352-59.252-21.9-20.6-25.116-50.216,5.152-70.82-25.768,7.728-39.936-33.48-77.284-16.74-18.568,8.328-67.6-5.796-66.952-23.184-7.736,12.88-54.732,7.732-61.184-14.16-15.452,8.368-51.52-5.8-50.868-27.048-19.968,9.016-47-7.08-45.72-27.688-18.664-2.576-20.6-19.32-19.312-33.48-16.752-7.732-12.236-23.828-5.8-43.144-11.584-12.88-6.436-30.908,2.58-47.652-12.88-12.88-10.3-28.332-6.448-46.36-61.816-5.152-139.252-20.06-316.8-74.692-267.868-82.42-339.988,110.752-280.748,231.808,68.348,139.68-7.728,170,15.456,274.32,24.468,5.148,37.344,25.748,36.06,47.648,14.48.632,24.784,14.152,19.636,39.92,12.232-2.252,28.012,1.28,38.312,11.58,9.016-16.732,38.64-20.6,54.092-1.28,33.48-2.588,50.224,24.464,48.94,57.948,18.02,32.2,11.584,71.484-7.732,96.584,1.932-13.516,0-32.832-.632-44.416-1.2-21.316-30.92-25.764-27.696-43.152-15.456,1.284-30.268-7.08-35.416-18.664-9.016,7.716-21.896,10.3-32.84,6.432,17.384,7.732,30.908,38.632,25.756,59.232,9.016,15.468,7.08,43.8-3.864,56.032-5.152,25.1-24.468,34.12-49.58,23.168,14.168-9,19.32-25.1,18.672-38.636-9.012-7.716-13.52-22.532-14.164-31.548-25.112,3.864-59.884-17.384-66.296-25.784-55.324,0-100.172,44.852-100.172,100.184-2.576-20.616-28.64-40.916-25.42-58.3-15.452-47.652,6.44-92.084,69.544-101.084-7.724-18.032,19.32-36.72,9.016-57.316-13.16-26.32-37.344-60.532-73.4-100.452,21.892-37.352,15.452-87.568,2.572-118.48-18.492-44.384-36.06-33.48-101.74,38.632-107.04,117.532-249.84,85-376.048,162.268-33.536,20.532-66.964,28.332-30.908-7.72,36.06-36.064,131.36-72.112,193.172-103.028,115.76-57.884,213.78-154.54,252.416-342.56,90.788-441.84,424.96-296.2,636.16-213.78,198.284,77.384,162.268-97.88,61.816-203.48-120.732-126.924-96.584-226.652-39.916-306.5,101.732-14.168,296.852,21.248,257.568,55.38l.023-.012Z"/>
          <path class="cls-6" d="M2579.28,1794.02c60.868,0,110.216-49.332,110.216-110.2s-49.352-110.216-110.216-110.216-110.216,49.344-110.216,110.216,49.352,110.2,110.216,110.2h0Z"/>
        </g>
        <g>
          <path class="cls-7" d="M2158.8,713.74c-24.468,108.18-3.868,157.116,32.2,204.764,74.516,98.484,133.932,323.244,48.932,470.04"/>
          <g>
            <path class="cls-5" d="M2287.56,1261.74c10.3-3.864,29.616-16.096,34.132-37.348M2295.28,1214.74c3.216-18.672,32.184-26.72,32.832-46.68M2295.92,1141.94c-1.932-19.32,28.984-36.704,24.468-56.02M2279.2,1072.42c-2.584-10.948,25.752-31.552,18.032-48.936M2257.96,1004.82c-5.8-12.236,13.52-26.4,5.152-39.28M2227.04,950.7c-1.932-8.368,9.984-26.72,3.548-37.664M2196.12,886.98c2.568-3.22,12.88-10.948,8.68-20.604M2174.88,840.3c4.184-2.256,16.732-6.12,15.132-15.452"/>
            <path class="cls-4" d="M1530.32,2054.38c-25.76-9.016-57.952,3.868-64.392,25.768M1485.24,2100.1c3.22-21.88,36.704-31.552,47.004-21.252-21.248-11.58-31.552,29.62-12.88,30.92M1692.6,1590.78c-15.448,7.728-19.948,36.06,0,57.316M1715.76,1597.22c-10.932,9.016-10.3,36.06,5.8,42.5-13.52-9.66,0-26.4,9.668-27.044,9.648-.644,16.08,10.944,4.5,22.536M2620.48,1660.94c-36.048-9.652-65.032,32.2-32.2,69.552-.632-36.068,25.12-59.884,56.668-53.452M2630.44,1701.98c-8.868,0-13.848,6.932-13.848,13.68,0,7.088,6.116,13.852,16.1,13.852,6.448,0,11.6-7.4,11.6-13.2M2757.6,911.42c5.8,21.892,36.068,30.908,59.884,25.76M2817.48,923.02c-18.668.644-34.12-16.74-32.832-31.552,0,10.948,25.116,16.1,32.832,9.016"/>
            <path class="cls-5" d="M1539.32,1658.38c-5.152-12.88,15.456-25.76,16.1-38,.64-12.228,23.18-21.888,46.36,1.292M1590.84,1484.54c-4.508,1.932-8.372,4.508-12.236,5.796M1635.28,1554.7c-5.476.324-16.74-.32-22.86-4.508M1612.76,1579.18c-4.508,2.256-14.492,6.12-20.288,7.408M1391.88,1968.1c-.644,11.6,10.948,28.332,17.384,33.48M1442.12,1940.42c-6.44,9.652-10.3,26.4-6.44,37.984M1538.04,1979.06c-11.592-7.732-3.864-27.7-5.152-40.568-1.288-12.88,13.52-33.48,42.5-16.1M1429.88,1905.66c11.592-1.932,23.824-1.3,31.552,1.92M1576.68,1868.94c-5.152,7.08-6.44,14.816-7.08,19.968M1630.76,1867.66c-9.016,0-16.74,6.432-20.604,12.88M1505.84,1537.98c10.304,3.544,37.024,19.96,37.992,37.028M1615.32,1454.26c-31.552-.644-43.784-32.84-19.96-32.84M1672,1497.38c-12.232,5.152-6.432,26.4,10.948,36.704M1596.64,1699.58c-6.12-7.72,1.932-30.252,21.892-23.5M1643.64,1934.62c1.28-19.632,26.08-31.232,36.064-9.016M1552.2,1990.62c-1.612-21.568,9.336-28.648,18.992-29.932,9.66-1.284,23.508,6.748,29.948,20.916M1360.32,2006.74c1.288-12.88,12.236-26.4,23.824-24.468M2538.68,1434.94c-8.384,6.12-13.848,33.48,18.016,36.06M2489.76,1480.02c0,3.22,4.184,7.728,6.768,9.66M2641.72,1531.54c-8.368-6.44-29.948,19.64-10.3,38.636M2436.96,1747.9c-4.832-18.352,12.232-23.184,28.332-19.32M2395.76,1617.82c9.652-6.44,19.32-13.52,31.552-16.74M2390.6,1688.62c0-15.448,7.72-28.32,14.8-32.184M2447.24,1510.94c-1.28,18.672,6.452,36.704,12.252,46.36M2600.52,1512.22c-9.348,2.9-17.72,6.44-21.252,14.168M2590.2,1565.02c4.52-3.864,9.668-8.368,11.92-11.588M2833.6,1002.86c0,18.028-22.532,27.688-37.332,16.096M2882.56,1003.5c9.968,7.728,44.416.324,36.368-19.64M2840.68,1107.18c-7.08-1.288-19.32-9.016-24.468-15.452M2911.52,1053.74c-11.584,2.576-19.32,0-25.12-2.576M2728.64,1118.14c6.432,0,21.88-2.576,32.52-8.048M2709.32,1004.18c-8.368-.96-14.5.644-19.32,3.864M2839.08,1035.7c-2.252,8.052-8.052,20.604-15.132,26.08"/>
            <path class="cls-4" d="M2687.44,1064.06c16.1-7.08,36.068,47.648,74.7,28.332M2765.36,1035.7c-5.152,7.08-8.368,18.032-9.016,27.688"/>
          </g>
          <path class="cls-7" d="M1995.24,952.02c5.152-.64,14.168-2.576,16.1-9.016M1332.64,1551.5c19.32,10.948,32.84,29.62,24.468,57.308M2218,892.78c5.8,3.864,27.7,3.864,39.932-.64M2273.4,905.66c-.652,9.016,1.932,43.14-15.448,50.224M2264.4,951.38c16.1,5.152,48.3,3.22,58.6-26.4M2300.44,950.06c8.368,12.88,10.932,37.992-14.168,51.512M2306.88,971.34c18.668,6.44,61.816,7.08,57.3-29.62M2349.4,971.34c12.88,18.028,69.552,39.28,60.532,1.932M2297.24,1023.46c21.88,5.152,52.8-9.66,39.92-48.292M2398.96,994.5c3.216,14.812,75.332,30.264,65.684-3.22M2451.12,1010.62c13.532,30.908,85,28.332,62.468-12.88M2502,1029.9c14.168,17.388,77.284,7.08,52.168-34.772M2553.48,1029.26c39.28,29.62,85-12.88,35.416-43.788M2611.44,1019.62c34.784,27.688,77.284-22.54,47.016-36.704M2336.48,1008.02c10.948,3.22,34.132,1.932,39.28-18.028M2367.08,1003.5c-1.28,29.3,47.984,40.568,60.532,6.76M2411.2,1028.62c9.016,19.32,52.152,27.04,59.232-.644M2463.36,1040.86c7.08,19.32,44.432,17.388,54.732-2.576M2504.56,1051.18c11.584,25.112,59.232,25.112,70.184-11.592M2566.4,1055.66c18.668,11.592,58.6,7.08,55.368-28.976M2614.04,1052.46c27.68,22.54,66.968.644,47.652-37.348M2659.76,1082.06c14.816-2.576,22.532-32.196,7.08-39.92M2316.56,1087.22c30.9-16.74,36.7-45.072,15.448-72.76M2342.96,1058.9c19.32,11.588,56.016-.64,62.452-28.976M2369.36,1062.1c10.932,14.164,12.868,31.552-1.3,47.648M2378.36,1080.14c34.12-21.248,76.616,18.032,45.068,41.856M2417.64,1078.22c7.732-1.932,21.252-16.096,22.532-32.196M2433.08,1093.02c14.168-14.812,110.768,15.456,49.584,46.36M2478.16,1052.46c18.668,7.08,28.332,33.484,0,42.5M2502.64,1116.86c20.6-21.248,85-7.728,61.816,19.32M2549,1108.46c11.584-39.28,80.484-14.812,57.952,1.288M2534.84,1069.18c1.932,7.728,2.568,27.044-10.3,37.348M2592.8,1061.46c2.568,6.44,1.932,18.672-3.868,26.4M2636.56,1062.1c3.868,7.08,10.3,20.604-3.868,31.552M2085.4,765.9c.632,36.7,13.52,61.172,63.1,37.992M2100.84,809.7c-24.468,32.84,3.216,68.256,51.516,32.84M2025.48,825.78c33.48,36.06,93.368,9.66,54.732-45.076M2120.8,856.7c-6.452,35.416,22.532,42.5,46.352,26.4M1995.88,831.58c6.1,35.604,42.5,63.748,77.916,41.856M2039.68,880.54c0,50.872,70.184,56.664,86.284,3.864M2100.84,916.58c22.532,46.36,71.468,27.688,87.568-.64M2051.24,842.54c9.016,22.536,27.052,47.652,68.9,28.976M1922.48,831.58c5.8,18.672,39.28,41.212,77.916,15.452M1946.28,855.42c-20.616,30.264,20.6,58.596,70.184,13.52M1970.76,892.78c8.368,42.5,25.1,76.628,85.632,21.892M2026.12,936.54c21.9,27.04,55.384,43.784,86.932-1.932"/>
          <path class="cls-7" d="M2136.24,944.26c-1.932,32.196,4.5,48.292,29.616,47.004,19.8-1.012,38.636-16.74,49.584-33.48M2161.36,991.3c-.652,36.704,28.32,65.68,82.416,28.332M2183.88,1034.42c-10.3,27.688,20.6,72.76,81.132,49.58M2055.76,961.02c-3.852,35.416,28.984,59.24,81.784,13.52M2081.52,1000.3c1.932,28.976,34.768,63.748,83.068,13.52M2104.68,1037.02c-3.868,49.58,41.852,63.748,80.484,25.76M2035.8,1000.3c10.3.644,18.668-8.368,23.816-14.812M2057.68,1036.34c9.016,1.932,24.48-6.44,29.632-16.74M2080.24,1094.94c10.3,10.948,45.068,3.22,49.568-11.588M2118.88,1094.3c19.32,45.072,70.816,43.14,92.068-7.728M2201.28,1104.62c9.652,26.4,34.132,43.14,74.052,34.128M2220.6,1131.66c-22.532,36.704,7.08,79.844,57.3,37.348M2232.84,1186.38c-2.568,23.18,18.68,49.58,47.652,52.8M2137.521,1118.78c-7.732,52.156,29.616,77.272,76.632,49.58M2082.8,1143.9c12.232,9.66,34.132,10.948,54.732,3.22M2162.64,1177.38c-11.6,43.788,33.48,75.34,72.116,26.4M2100.2,1150.98c.652,22.536,22.552,47.004,60.532,39.92M2266.96,1235.98c-25.768,17.384-30.92,48.292,5.152,68.252M2203.84,1226.94c1.3,26.4,13.532,41.212,42.5,43.784M2165.88,1213.42c-38.632,35.416-.652,76.628,45.068,41.856M2192.92,1266.22c-12.88,40.568,35.416,65.036,61.168,23.824M2113.08,1179.94c-14.168,39.92,3.868,66.324,36.7,63.748M2062.2,1172.22c1.932,23.824,22.532,32.196,45.716,27.044M2077,1197.34c-17.384,33.48,9.016,51.512,43.8,38.636M2226.4,1310.66c-5.8,21.248-2.584,36.704,28.968,43.788M2228.32,1340.94c-38,17.388-41.216,54.092-11.6,77.912M2197.72,1300.06c-19.948,18.032-16.1,49.256,5.8,61.492M2028.72,1182.54c-21.9,21.572-.968,81.132,47.316,48.62M2154.28,1257.86c-29.632,24.468-16.1,68.9,32.832,56.664M2105.32,1239.18c-15.448,43.788-.632,59.24,34.132,59.884"/>
          <path class="cls-7" d="M1996.52,1180.58c-26.4,19.96-19.32,48.292-7.72,61.172,11.588,12.88,33.472,7.08,40.556-9.66M1941.12,1163.22c-29.616,37.992,0,83.064,41.868,69.544M2099.56,1275.9c-30.268,10.948-53.352,38.428-34.784,62.46,10.952,14.168,58.6,16.1,72.12-38.636M2044.8,1240.46c-17.384,25.112-11.6,48.94,20.6,61.172M2042.88,1287.5c-18.68,10.304-30.92,22.54-26.4,45.076M2001.04,1248.22c-7.08,30.264,1.28,48.94,19.948,57.952M2000.4,1284.26c-28.984-1.932-43.784,10.3-34.132,38.636M1968.84,1291.34c-28.332-10.304-32.852-34.772-20.616-60.528M1944.36,1268.82c-30.92,1.288-44.432,16.74-44.432,37.992"/>
          <path class="cls-7" d="M1902.48,1148.38c-22.532,9.66-29.616,39.92-21.252,56.664,8.384,16.74,34.784,18.032,50.884,7.08M1839.4,1124.58c-20.6,23.18,3.216,68.256,39.932,57.308M1786.6,1106.54c-19.32,27.04,1.932,72.12,51.516,59.24M1840.68,1291.34c-5.152-32.2,28.332-53.444,69.552-11.592M1890.28,1214.74c-12.232,10.948-18.016,28.332-16.1,42.5M1733.8,1091.1c-21.252,36.06,4.52,68.9,50.232,56.02M1852.92,1180.58c-30.268,30.264-19.968,60.528,2.568,77.912M1833.6,1216.02c-45.716.64-48.284,53.444-10.932,70.188M1798.84,1163.22c-18.668,12.88-24.468,48.292,7.732,62.46M1797.56,1242.42c-19.32-9.016-42.5,1.932-40.568,24.468M1768.56,1243.06c-17.384-41.212-68.252-34.128-63.732,8.372M1782.72,1192.18c-10.932,1.932-32.832,8.368-41.2,25.112M1744.76,1145.82c-20.6,23.18-4.52,50.868,12.232,56.664M1683.6,1080.78c-3.868,27.688,7.08,41.212,41.852,38.636M1695.8,1116.22c-13.532,33.48,4.5,48.292,39.268,46.36M1703.52,1157.42c-20.6,24.468-6.432,50.872,13.52,61.816M1693.88,1188.34c-36.7-4.508-42.5,37.992-30.268,57.952"/>
          <path class="cls-7" d="M1664.24,1077.58c-22.528,9.66-35.408,37.992-23.172,55.376,12.24,17.384,36.704,11.588,50.224,2.576M1648.8,1140.66c-18.672,28.332-1.932,49.58,18.032,57.952"/>
          <path class="cls-7" d="M1576.68,1074.34c-14.808,15.452-5.796,47.008,30.264,47.652,29.032.52,43.784-27.044,34.772-46.36M1601.8,1121.98c-11.588,25.76-4.508,53.444,39.28,48.936M1659.76,1211.5c-27.04-12.232-63.104,0-47.648,32.2M1608.24,1165.78c-10.948,15.452-7.08,37.348,5.152,50.868M1606.32,1206.98c-18.032,3.22-35.416,12.88-24.468,41.212M1579.24,1225.02c-23.18-7.08-52.8,9.66-34.772,33.48M1540.64,1235.98c-19.96-3.22-43.784,18.028-24.468,39.28M1508.44,1257.86c-18.032,4.508-39.28,25.112-20.608,41.212M1599.24,1156.78c-25.76,11.588-28.332,40.568-16.1,61.816M1572.16,1103.34c-38.636,14.812-37.992,66.324,4.508,82.42M1558.64,1174.14c-23.18,13.52-27.688,39.28-12.232,56.02M1518.08,1084.02c-15.456,5.152-14.168,52.8,27.044,51.512M1475.6,1100.1c-30.908,20.604,6.44,72.76,56.664,35.416M1504.56,1148.38c-4.508,21.252,1.288,44.432,35.416,47.008M1506.48,1176.74c-24.468,9.012-28.976,59.24,15.452,63.104M1428.6,1131.02c-31.552,28.976,25.76,54.088,47.008,12.236M1384.8,1179.3c-15.456,18.672,38.632,67.612,62.46-14.168M1453.04,1163.86c1.288,19.32,12.88,30.908,36.7,32.196M1489.12,1214.74c-37.992,5.796-50.224,53.444-7.728,63.748M1418.92,1208.3c-1.288,18.028,17.384,32.84,38.636,29.62M1476.88,1277.18c-34.772,7.728-39.28,52.8-8.368,50.224M1452.4,1369.26c-28.98-8.692-29.62-43.144-3.864-56.02"/>
          <path class="cls-7" d="M1428.6,1338.98c-24.468,14.812-14.808,50.224-1.932,55.376,12.88,5.152,23.18-1.288,24.472-12.232M1449.2,1431.7c2.576,16.74-59.564,10.304-27.688-41.852M1421.16,1434.62c-20.924,32.84,13.2,59.56,34.772,31.552M1424.08,1474.22c-8.372,26.4,23.5,45.4,44.104,24.792M1354.52,1226.94c-11.592,23.824,46.36,32.84,50.224-16.1M1338.44,1262.38c-11.588,46.36,75.98,36.704,53.444-23.18M1393.8,1270.1c12.232,7.08,48.94,7.728,57.952-31.552M1425.36,1271.38c2.576,12.232,13.52,27.04,23.824,31.552M1383.52,1283.62c-3.864,25.112,21.248,45.72,50.224,43.788M1388,1308.1c-14.164,19.32-18.672,56.664,25.76,59.24M1320.4,1314.54c-7.08,19.96,34.772,40.568,59.24,7.728M1307.52,1365.38c-3.544,15.136,34.128,35.416,55.376-28.976M1346.16,1369.26c9.016,16.096,39.28,28.976,57.952-2.576M1373.84,1386.02c-7.728,22.536,13.52,43.784,39.28,37.348M1325.56,1380.86c-5.152,32.196,32.196,50.868,55.376,34.128M1301.08,1395.02c-10.944,41.212,41.856,56.664,61.816,25.756M1349.4,1433.02c1.932,23.18,37.992,43.14,66.324,23.824M1285,1452.34c-2.576,10.3,40.568,20.604,47.004-15.456M1310.12,1461.34c10.3,26.4,45.072,32.84,65.036.644M1363.56,1474.86c4.508,24.468,36.06,37.992,63.748,21.248M1438.88,1505.78c-7.08,32.84,27.044,59.24,48.292,41.212M1384.16,1499.98c-10.3,36.06,34.772,56.664,59.884,36.704M1330.08,1481.94c-2.576,33.48,23.824,53.444,54.088,38.632M1272.76,1485.18c-9.016,21.892,38.636,39.92,61.172,21.252M1243.12,1545.06c12.236,14.164,54.732,0,58.596-31.552M1290.16,1536.66c15.452,18.032,52.156,27.688,66.968-10.948M1344.24,1545.7c-.644,27.688,48.94,47.652,65.036-3.22M1467.52,1552.46c-4.508,13.52,6.12,35.092,28.332,37.668M1426.64,1544.1c-3.22,15.452,19.32,37.02,43.144,28.332M1474.32,1578.86c-6.44,16.74-.968,40.884,21.568,40.564M1476.56,1610.1c-16.74,14.164-9.66,39.28,14.492,40.248M1467.88,1633.9c-23.824,16.088-15.452,51.508,16.096,49.592M1395.76,1565.66c0,34.772,43.14,39.92,51.512,7.728M1430.52,1593.98c-6.44,20.604,10.3,40.568,36.7,34.772M1435.68,1842.54c5.8,8.384,29.62-5.784,23.18-19.948-6.44-14.168-31.676-6.468-28.976,8.364M1453.04,1816.78c3.22-28.332-30.264-32.832-38.636-8.368M1426.64,1794.26c8.372-14.168-19.96-33.48-31.552-12.88M1405.4,1772.98c7.728-20.616-24.468-29.616-27.044-10.948M1371.28,1734.98c3.864-10.3,39.92-3.868,24.468,17.384M1423.44,1778.14c14.168-12.88-9.656-39.28-24.468-29.616M1518.72,1817.42c-11.272,1.28-22.864,8.68-14.492,32.52,5.804,16.532,30.588,17.38,34.128,7.4"/>
          <path class="cls-7" d="M1502.32,1829.34c-10.948-7.08-34.772,4.832-23.824,28.016,8.24,17.452,28.976,10.3,32.196,1.284M1440.8,1862.5c5.468,9.652,32.836,5.48,37.668-5.152M1459.48,1830.62c5.796-3.868,16.416.948,18.672,5.784M1457.56,1671.9c-18.672,12.232-7.08,49.584,21.892,39.92M1451.76,1702.18c-14.812,11.584-1.288,47.652,26.4,34.132M1456.28,1736.3c-10.3,10.3-.32,38.952,26.4,33.48M1452.4,1750.46c-5.8-2.584-20.928-.652-27.372,9M1435.68,1620.06c-14.164,13.52-7.408,41.216,18.992,43.464M1430.52,1648.38c-20.288,9.984-20.288,50.216,20.28,51.832M1428.92,1693.78c-11.268,9.016-5.796,43.784,23.18,39.268M1438.24,1731.78c-4.188,4.184-4.832,14.816-1.288,19.32M1425.36,1718.58c-10.3.32-23.824,7.732-27.372,18.352M1379.32,1699.58c3.864-10.3,35.74-9.652,37.992,20.616M1420.52,1684.14c-4.508.968-13.2,5.152-15.452,13.848M1406.68,1589.82c-13.848,12.556-20.604,52.16,21.568,59.88M1378.68,1671.58c0-10.632,28.656-19.648,38.636-3.868M1360.32,1613.94c4.184,8.052,24.144,19,36.38,9.984M1256.64,1550.86c-.64,18.672,14.812,35.416,36.06,32.84s25.76-21.252,19.32-33.484M1295.92,1584.34c-14.168,17.384,3.22,41.856,19.32,34.772M1312.04,1572.1c8.372-3.22,36.06-7.08,44.432,5.796M1222.52,1577.26c-6.44,9.66,33.484,19.32,47.004.64M1256,1587.54c-1.292,12.88,5.152,34.772,37.992,25.76"/>
          <path class="cls-7" d="M1299.16,1633.26c5.152-10.948-19.32-28.976-37.992-9.016s2.576,42.5,14.168,34.768M1213.52,1590.14c-9.66,16.74,27.688,47.332,48.94,19"/>
          <path class="cls-7" d="M1188.72,1619.1c-13.52,13.848,3.22,39.28,23.504,31.552,20.28-7.728,18.352-28.976,13.524-34.448"/>
          <path class="cls-7" d="M1162.64,1644.86c-10.948,9.976-.324,33.48,14.812,33.48s24.468-11.904,21.568-27.04M1224.12,1642.94c-1.932,14.808,19.96,25.108,34.128,11.276M1258.92,1627.14c1.932-3.22.324-8.696-2.892-11.272M1139.16,1664.82c-12.552,9.984,14.492,37.668,31.552,12.232M1236.04,1659.34c-8.052,7.72,4.828,28,17.704,21.88M1191.96,1673.5c1.932,13.832,28.976,24.132,46.04,2.9M1206.76,1687.34c-4.184,8.7,4.188,22.552,14.492,20.616M1463.04,1766.9c-9.976,19.632,21.892,42.5,45.076,18.668M1486.2,1796.18c-4.828,10.616.968,25.432,9.66,30.9M1455.96,1818.38c2.256-9.668,16.096-18.68,28.656-14.168M1439.2,1792.94c1.932-8.68,13.52-17.384,22.216-15.12M2197.4,1391.14c-45.716.644-26.4,74.052,12.88,59.24M2182.6,1445.26c-9.016,14.812,8.368,38.316,27.68,24.468M2205.16,1472.62c-13.532,22.536,34.768,56.984,54.084,21.568M2243.8,1507.7c.632,21.252,62.452,34.772,53.452-7.728M2291.439,1523.14c14.8,25.112,70.184,27.688,64.384-9.66M2343.599,1539.26c11.6,16.74,65.684,27.04,63.752-7.728M2124,1327.42c7.72,19.96,34.12,27.044,63.1,15.452M2107.28,1341.58c18.032,11.588-8.368,64.392-36.048,43.14M2107.28,1374.42c19.968,9.66,44.432,2.576,51.516-25.76M2146.56,1370.54c1.932,14.812,23.184,26.4,50.868,20.604M2096.96,1386.02c25.768,21.892-11.584,66.968-28.332,46.36M2106.64,1402.74c12.232,9.016,43.784,3.864,47-19.96M2139.48,1402.74c2.584,15.452,14.816,21.248,32.2,21.892M2099.56,1423.98c12.868,18.032,45.068,23.18,59.232-.64M2144.6,1436.86c-1.28,17.388,18.032,31.552,38,27.688M2074.44,1475.5c16.732,8.368,34.768-23.18,20.6-45.072M2093.76,1508.98c19.968,1.288,22.532-28.976,3.868-45.72M2139.48,1536.66c16.752-3.864,11.584-40.568-28.984-43.788M2190.32,1563.74c16.1-4.508,3.216-45.076-41.2-42.5M2251.52,1577.9c10.932-16.74-25.12-45.072-54.732-30.264M2281.76,1601.06c19.968,5.796,33.48-47.004-29.616-38.636M2318.48,1601.06c17.4-4.508,29.632-36.06-21.232-25.76M2357.12,1603.66c15.448,7.728,22.532-37.348-24.48-25.112M2097.6,1463.26c19.32,10.948,49.584-1.932,47-26.4M2136.88,1458.14c6.452,11.588,3.868,34.128-8.368,39.92M2138.8,1485.18c12.88,5.152,30.268.644,40.568-19.96M2161.36,1485.18c3.852,9.016,5.152,27.044-3.232,36.06M2164.6,1500.62c14.168,7.728,30.9-2.576,37.984-17.388M2193.56,1496.1c10.3,6.44,19.32,36.704,1.932,48.94M2205.16,1530.9c12.232.64,30.268.64,41.852-14.812M2238.64,1524.46c10.948,3.22,23.816,21.252,19.32,37.348M2258.6,1555.98c12.252-1.288,33.48-9.66,39.28-24.468M2292.08,1541.18c10.32,5.796,17.4,18.028,16.1,32.196M2308.16,1563.06c12.232-.64,23.184-7.08,26.4-20.604M2331.36,1551.5c9.016,3.22,19.968,13.52,20.616,25.76M2350.68,1569.5c9.016-1.288,15.448-7.08,21.252-16.1M2396.4,1552.14c11.6,11.592-3.852,50.228-27.68,43.144M2149.12,771.7c-23.832,14.164-91.452,9.66-57.968-46.36M2155.56,733.7c-47,18.672-104.968-17.384-44.432-56.664M2095.04,664.18c-39.28,0-65.684,63.104-12.868,84.996M1942.44,690.58c-10.3,19.96,26.4,41.852,51.516,21.892,19.452-15.464,18.016-57.308,6.432-73.408M1922.48,738.22c-12.88,42.496,81.784,45.072,66.968-22.54M1917.32,801.34c3.216,32.196,90.8,21.892,62.452-43.144M1990.08,740.14c7.08,9.66,26.4,26.4,59.232,23.18M2005.52,694.42c2.9,11.588,22.532,20.604,47.652,11.916M1126.92,1674.14c-22.212,15.784,11.916,40.568,24.468,13.2M1109.52,1686.38c-22.212,15.768,11.916,40.552,24.468,13.184M1091.16,1698.3c-22.22,15.784,11.912,40.568,24.468,13.2M1071.84,1709.26c-21.252,11.268,3.54,38.952,25.112,14.48M1050.92,1719.9c-21.252,11.252,3.544,38.952,25.112,14.48M1158.8,1686.7c-.324,16.416,30.908,23.184,42.172-1.3M1178.44,1701.86c-9.66,12.232,8.052,27.368,17.712,21.88M1136.88,1699.58c-.968,13.848,26.076,21.9,39.28,6.768M1151.72,1714.1c-8.696,11.268,8.368,26.4,19.32,21.88M1118.88,1712.14c.96,10.948,16.416,23.5,33.16,16.416M1128.84,1726.94c-6.44,5.8-3.22,19.332,5.796,23.52M1095.36,1725.98c-2.576,9.984,14.492,27.7,31.876,16.1M1098.88,1737.58c-10.3,8.052-9.016,20.28,4.184,21.88M1074.12,1736.3c-1.288,6.752,7.408,17.7,18.356,16.416M1019.04,1735.66c-10.3,5.468,16.1,33.48,32.516,7.4M993.6,1747.22c-12.88,6.132,19,37.032,33.164,5.48M1077,1745.94c-9.984,2.252-16.42,16.752-8.052,22.532M1044.48,1751.1c-1.288,5.8,10.948,15.448,20.932,11.92M1036.12,1753.7c-9.66,6.12-4.508,23.168,6.76,20.6M1001.68,1764.94c-9.016,6.752-2.9,20.28,9.66,17.068M1018.08,1763.98c.324,3.532,8.372,9.016,15.136,6.768M970.44,1758.18c-11.264,4.832-10.62,33.168,27.372,17.72M945,1769.46c-15.78,7.732-10.628,28.984,23.824,8.7M971.72,1779.78c-4.184,3.216-8.688,17.384,7.08,11.9M942.76,1786.5c-6.44,5.8-2.252,17.72,11.92,13.2M909.6,1788.46c-11.588,6.768,13.84,15.784,30.908-2.252M917.32,1796.82c-5.152,5.152-5.152,20.28,8.368,14.816M884.48,1802.94c-7.728,5.8,5.472,13.532,29.62,2.9M894.12,1811.3c-9.016,7.4-8.052,16.732,5.152,13.832M867.4,1815.5c-9.98,9.016,4.508,15.132,21.892,7.72M867.72,1825.5c-17.068,7.72-9.66,21.88.96,16.416M1437.6,1874.74c-3.96,8.52,9.016,15.448,21.252,13.52,11.748-1.852,22.992-11.536,14.16-25.104M1473.64,1879.9c11.588,9.016,32.196-1.28,32.196-14.816"/>
        </g>
        <g>
          <path class="cls-6" d="M2183.88,515.42c-51.516-25.76-158.4-73.408-188.668-34.772,27.68-11.588,108.816.644,175.784,62.46l12.88-27.688h.004Z"/>
          <path class="cls-6" d="M2215.12,512.7c-59.568-69.388-94.652-53.856-137.484-77.756-40.232-22.456-104.316-27.044-116.732,8.668,58.784-28.628,112.752,15.396,145.9,20.72,45.532,7.312,71.232,42.516,84.552,58.704l23.768-10.336h-.004ZM2439.52,503.82c-30.92-70.832-97.016-52.332-126.216-82.42-42.484-43.784-150.016-84.352-194.452-54.088,97.868-5.152,139.552,67.46,191.884,92.724,37.352,18.032,77.268,56.664,128.784,43.788v-.004Z"/>
          <path class="cls-6" d="M2323.64,496.1c-52.8-65.68-133.952-123.632-171.284-101.74,48.932,2.576,64.384,36.704,99.168,58.596,34.768,21.892,19.32,53.444,72.116,43.144ZM2072.48,612.02c-55.384-20.604-163.552-30.908-213.784,32.2,83.716,14.16,209.916,6.436,213.784-32.2Z"/>
          <path class="cls-6" d="M2062.2,636.5c-55.384-25.76-98.632,10.22-150.684,5.152-99.152-9.66-169.984-3.864-179,43.784,56.668-50.868,151.968-9.012,190.6-19.316,38.632-10.304,181.584-1.288,226.652,18.028-23.184-28.332-59.232-36.056-87.568-47.648ZM2236.04,489.02c-12.868-42.5-12.232-87.572,51.516-84.352-16.1-19.96-75.332-30.264-85,44.432-70.184-51.512-146.816-60.528-160.968-16.096,36.048-30.908,92.068-8.372,159.032,67.612,5.8-3.22,21.252-9.66,35.416-11.592l.004-.004Z"/>
          <path class="cls-6" d="M2139.48,547.62c-39.92-25.756-94.016-67.612.652-84.352-40.568-21.892-99.816-12.236-93.368,62.46-108.184-43.788-185.868-29.008-202.2,14.164-18.036,47.652,48.952,74.052,60.532,43.788-12.236,5.152-54.084-9.012-32.2-36.06,21.9-27.04,134.1-6.74,240.832,48.94,29.616,15.456,131.352,12.88,25.748-48.94h.004Z"/>
          <path class="cls-6" d="M2111.12,618.46c-30.8-62.888-130.716-5.796-150.852-66.712-27.52,89.248,142.084,39.864,150.852,66.712ZM2746.68,686.7c20.948,10.412,39.068-5.956,7.016-18.792,20.968,10.404,39.252-5.568,7.2-18.412,20.968,10.404,39.252-5.568,7.2-18.408-8.548,8.604-20.784,40.16-21.416,55.612ZM2757.6,565.66c46.368-48.936-3.852-65.68,52.8-115.904,46.368-41.092,8.848-68.48,52.816-100.452,14.168-10.3,45.068-30.908,47.652-51.512,18.668,46.36-57.968,52.8-52.816,127.496,3.28,47.56-28.868,43.404-41.2,123.632-2.584,16.74-14.168,54.088-59.252,16.74h0Z"/>
          <path class="cls-6" d="M2778.24,587.54c25.752-55.376,55.316-54.312,69.532-75.98,27.052-41.212,84.352,7.08,132.652-29.62-8.368,52.156-73.4,33.48-101.732,66.968-28.332,33.48-51.516,48.94-100.452,38.636v-.004Z"/>
          <path class="cls-6" d="M2784.68,605.58c45.084-36.06,78.3-12,109.468-30.908,78.552-47.652,110.116,9.656,180.3-12.88-18.68,45.072-122.352,6.44-167.416,39.924-45.084,33.48-203.484,65.68-122.352,3.864ZM2653.32,862.5c-.652-20.604-19.968-47.008-47.016-50.224-27.032-3.22-38.632-31.552-59.232-32.84-20.6-1.288-34.132-42.5-62.468-41.856-28.332.644-39.92,37.348,26.4,70.832,66.332,33.484,139.732,72.12,142.316,54.092v-.004ZM2569.6,879.9c-28.332,1.288-32.2,42.5-59.232,43.788,37.332,19.96,64.384-9.016,83.7-34.772l-24.468-9.016h0Z"/>
          <path class="cls-6" d="M2592.8,885.02c-24.468,20.604-31.552,63.748,3.868,75.98-21.252-29.3,37.348-42.5,19.316-69.544l-23.184-6.44v.004Z"/>
          <path class="cls-6" d="M2617.24,886.34c-19.32,37.348,30.268,41.852,17.384,70.188,28.332-6.44,32.848-59.884,7.08-74.052l-24.464,3.864Z"/>
          <path class="cls-6" d="M2427.92,806.46c46.368-2.576,88.768,22.508,117.2,63.104,18.032,25.756,78.552,36.06,99.168,15.452,20.6-20.6,9.016-64.392-42.5-50.224-12.88-21.892-50.232-14.164-68.252-32.196-18.032-18.028-87.584-69.54-105.616,3.864h0Z"/>
          <path class="cls-8" d="M2601.8,834.82c-12.232,2.576-16.1,23.824-8.384,34.772M2628.2,847.7c3.868,6.44,1.28,15.452-.652,19.96M2501.36,808.42c23.816,1.288,28.332,18.676,54.084,25.112"/>
          <path class="cls-6" d="M2485.6,749.82c82.284,20.604,147.568,38.636,188.052,61.816,40.484,23.18,103.168,29.62,158.016,14.168,54.852-15.456,160.616-29.62,155.4,38.636,28.752-34.132-7.832-70.836-80.968-77.276,1.32-33.48-34.52-63.748-60.284-43.788,23.832-3.216,44.4,41.212-2.6,59.24,9.132-33.48-24.168-63.748-58.768-48.936,22.2,6.44,44.652,43.668-5.016,57.952-31.352,9.016-77.052-2.572-111-23.18-33.952-20.604-224.616-95.3-182.832-38.632h0Z"/>
          <path class="cls-6" d="M2693.24,716.34c-25.752,11.588-9.016,38.636-48.932,54.088-39.932,15.452-67.616,50.868-58.6,81.132,27.052-59.24,74.7-56.664,91.432-79.844,16.752-23.18,41.216-57.308,16.1-55.376h0Z"/>
          <path class="cls-6" d="M2700.32,720.18c-1.28,47.004-38.28,29.88-23.832,95.944,4.516,20.604,12.88,54.088-1.284,87.572,41.532-30.264,14.816-93.84,33.48-117.836,9.02-11.588,20.6-29.62,25.12-45.072-9.668,27.04-9.016,77.272,17.384,90.148-21.252-50.228,57.316-91.436,3.216-149.388-7.72,14.168-32.2,39.28-54.084,38.636v-.004ZM2568.96,673.18c6.452,9.66,12.88,34.128,7.08,47.652,12.888-7.728,31.572-27.688,37.352-41.212,26.4,3.864,36.7,36.704,11.6,50.868,15.452,0,41.852,0,56.652-17.384-18.016-19.96-74.032-50.872-112.68-39.924h-.004Z"/>
          <path class="cls-6" d="M2168.44,580.82c-4.168-3.8-11.2-7.408-23.816-10-38.984-7.992-18.852-43.136,14.332-42.824,70.816-77.268,110.584-17.704,196.868-42.172,30.2-8.56,50.932-6.028,67.384,1.088,38.632-25.76,83.952-18.56,116.8,11.704,3.652-5.804,8.552-10.236,15.432-12.148,30.252-8.4,54.72,17.392,63.084,50.88,23.584-4.372,50.52,7.3,68.232,23.4,24.536-12.6,41.432-13.16,47.652-.208,21.9-10.3,50.268-16.76,64.432,18.008,14.168,34.772-33.48,24.472-41.216,97.88-4.764,45.28-55.368,63.1-95.3,36.056-63.868-43.268-126.2-50.228-157.116,15.456-30.9,65.68-55.116,103.84-130.068,82.42-27.032-7.728-61.816,2.576-83.7,32.196-21.9,29.62-55.384,1.928-95.3,5.148,50.216-7.724,30.984-20.36,74.7-23.18,39.92-2.576,29.62-39.92,55.368-45.072-100.452,25.76-96.584-11.592-179,14.164,36.052-46.36,92.72-20.604,121.052-47.648-74.7-1.288-108.1-50.088-141.668-29.62-52.8,32.2-29.632,123.86-167.416,115.904-66.968-3.864-109.468,5.152-149.384,45.08,69.552-144.24,164.152-65,209.92-110.756,27.048-27.044,47.648-47.652,61.812-73.408,4.984-9.064,11.736-14.248,20.168-16.252-114.616-36.06-45.3-92.232,66.752-96.092l-.003-.004Z"/>
          <path class="cls-8" d="M2734.36,560.54c1.752,3.62,2.648,8.32,2.648,14.132,0,28.328-42.496,29.62-45.064,71.476-1.352,21.892-3.868,34.124-18.684,31.548-14.8-2.576-27.684-25.756-13.52-52.8"/>
          <path class="cls-6" d="M2189.68,538.62c-10.668-7.496-21.332-10.54-30.9-10.628M2422.96,486.7c34.1,14.76,50.732,50.184,100.268,51.92,47.684,1.672,77.284,70.832,157.116,25.756,2.168-1.22,4.28-2.36,6.332-3.416M2540,498.62c-7.12,11.32-8.732,27.112-6.784,40.976M2384.16,644.22c-60.516,0-75.984,30.908-75.984,60.528s28.332,68.256,78.568,68.256,77.268-30.908,77.268-64.392-30.92-64.392-79.852-64.392h0Z"/>
          <path class="cls-6" d="M2395.08,771.7c-1.28-16.74-31.552-14.168-30.268-27.044,1.284-12.88,16.752-18.032,16.752-36.06s27.032-19.32,36.048-5.152c9.02,14.164,36.068,41.852,41.868,27.688M2417.64,703.46c-14.168,14.164-20.6,43.14-1.932,65.68M2436.96,725.34c-4.5,9.66-5.784,24.468-.632,33.48"/>
          <path class="cls-7" d="M2677.44,678.02c47.332,3.864,55.384-48.296,19.968-51.512M2619.2,537.34c-16.416-20.924-54.084-28.008-54.732,16.42"/>
          <path class="cls-6" d="M2559.96,604.3c-16.1-39.92-57.316-45.72-79.216-25.76-18.216,16.616-18.668,59.888,20.616,68.904,13.52-16.096,39.92-37.348,58.6-43.14v-.004ZM2542.24,579.18c-23.184-20.608-57.316,18.352-26.4,54.088M2101.24,676.74c15.52-3.68,38.2,3.912,72.984,20.268,21.9,10.304,87.584,32.2,128.784,10.304-42.5,15.456-74.684-48.94-106.884-41.212-32.2,7.728-91.116,19.64-115.9-3.864,60.516,3.864,93.068-44.084,162.252-2.576,19.332,11.592,43.8,19.32,65.684,18.032-56.652-68.256-131.352-24.472-139.084-79.844,34.132,36.704,117.516-8.372,160.016,60.528M2181.32,608.14c-7.968-9.92-4.368-19.8-12.92-27.62"/>
        </g>
        <path class="cls-1" d="M2619.2,537.34c-14.168-15.132-45.068-3.22-36.384,27.368,6.768-14.164,21.252-26.08,36.384-27.368ZM2531.64,619.82c9.752-7.08,19.816-12.892,28.3-15.528-4.632-11.456-11.32-20.104-19.032-26.136-7.368-5.088-28.536,23.376-9.268,41.664Z"/>
        <path class="cls-5" d="M2493.6,567.58c-23.184-15.452-44.432-14.164-51.516-1.288-16.732-.64-30.584,11.592-31.232,36.06M2446.6,612.66c-27.68-18.992-65.684-11.912-63.1,30.588M2366.76,667.38c13.52-10.948,32.832-18.672,47.652.644M2573.48,625.54c-5.152,7.08-9.016,18.028-.652,34.772-10.3-13.52-36.048-13.52-63.752,22.536M2634.64,623.62c-33.48,3.864-32.832,25.756-5.8,35.416M2396.4,541.82c-28.332-5.796-48.932,10.948-9.652,25.112M2450.48,522.5c-39.932-9.66-56.032.64-38,9.66M2335.2,682.86c-1.28,14.168,6.432,32.84,29.616,11.592M2342.96,725.34c0,3.864-.652,8.368-3.232,11.588M2250.2,536.66c-24.468-7.08-28.968-29.62-.632-27.688M2241.84,588.82c-27.052-9.016-27.052-35.416-4.52-32.84M2292.08,575.3c-31.552-7.728-32.832-29.62-9-26.4M2295.92,508.34c-16.732-1.288-42.5,17.388.652,28.332M2342.96,545.7c-39.28-5.796-38.632,10.304-15.468,20.608M2372.56,508.34c-30.268-5.796-40.568,12.236-19.968,19.96M2277.28,619.74c-7.416-6.116-13.52-35.416,21.88-26.72M2350.68,610.74c-23.816-6.44-46.352,16.74-24.468,30.264M2382.2,583.06c-25.1-4.508-46.352,2.576-32.832,11.588"/>
        <path class="cls-6" d="M2617.84,537.34c-14.152,2.62-26.832,10.936-35.048,27.36"/>
      </g>
    </g>
  </g>
</svg>