<?xml version="1.0" encoding="UTF-8"?>
<svg xmlns="http://www.w3.org/2000/svg" viewBox="0 0 3600.1 2401.738">
  <defs>
    <style>
      .cls-1, .cls-2 {
        fill: #c8313e;
      }

      .cls-1, .cls-2, .cls-3, .cls-4 {
        stroke-width: 0px;
      }

      .cls-2, .cls-3, .cls-4 {
        fill-rule: evenodd;
      }

      .cls-3 {
        fill: #4aa657;
      }

      .cls-4 {
        fill: #eee;
      }
    </style>
  </defs>
  <g id="background">
    <path id="bg" class="cls-4" d="M400,.1h2800c220,0,400,180,400,400v1600c0,220-180,400-400,400H400C180,2400.1,0,2220.1,0,2000.1V400.1C0,180.1,180,.1,400,.1Z"/>
  </g>
  <g id="country">
    <g id="by">
      <g>
        <path class="cls-2" d="M308.332,86.496h2.62V10.163c-8.814,2.024-17.519,4.341-26.104,6.941v69.392h23.484Z"/>
        <rect class="cls-1" x="149.793" y="154.165" width="26.155" height="47.958"/>
        <path class="cls-2" d="M3200,.1H561.972v17.662h-16.678v47.958h16.678v85.783h-16.682v-34.635h-21.347v-42.093h-29.894v-36.761h-24.553V.1h-69.496c-1.569,0-3.136.012-4.701.03v37.884h-24.025v36.761h-29.894v42.093h-21.351v34.635h-44.256v-34.635h-21.351v-42.093h-29.894v-33.869c-22.531,11.09-43.887,24.236-63.814,39.197h13.101l.004,32.501h20.818v41.028h20.818v50.62h-20.818v41.028h-20.818v31.969h-21.887v-31.969h-20.818v-41.028h-20.282v-50.62h20.282v-41.028h20.814v-25.709c-41.091,32.654-75.679,73.181-101.421,119.249v33.807h21.351v42.093h29.894v36.765h24.553v39.431h17.083v33.034h40.035v-33.034h17.083v-39.431h24.021v-36.765h29.894v-42.093h21.351v-34.635h44.256v34.635h21.351v42.093h29.894v36.765h24.021v39.431h17.083v33.034h40.035v-33.034h17.083v-39.431h24.554v-36.765h29.894v-42.093h21.351v-34.635h16.678v74.594h-16.673v51.684h16.673v107.632h-16.673v-37.297h-25.627v-36.232h-29.358v36.232h-25.623v37.297h-21.355v49.023h21.355v37.83h25.623v36.232h29.358v-36.232h25.623v-37.83h16.678v87.38h-16.677v51.684h16.677v115.623h-16.673v-43.69h-16.014v-33.566h-14.949v-38.366h-21.355v-37.83h-20.818v-25.044h-25.086v-37.83h-30.427v37.83h-25.09v25.044h-21.355v37.83h-20.818v38.366h-17.079v33.034h-17.083v28.775h-34.648v-28.775h-17.083v-33.034h-17.079v-38.366h-20.823v-37.83h-21.351v-25.044h-25.086v-37.83h-30.435v37.83h-25.086v25.044h-20.818v37.83h-21.355v38.366h-14.949v33.566h-16.014v43.69h-20.92v-115.623h20.928v-51.684h-20.928v-87.38h20.928v37.83h25.623v36.232h29.358v-36.232h25.623v-37.83h21.355v-49.023h-21.355v-37.297h-25.623v-36.232h-29.358v36.232h-25.627v37.297h-20.924v-107.632h20.928v-51.68h-20.928v-30.366C10.519,296.078,0,346.92,0,400.1v1600C0,2053.28,10.519,2104.122,29.577,2150.65v-33.708h20.928v-51.507h-20.928v-107.256h20.924v37.166h25.627v36.106h29.358v-36.106h25.623v-37.166h21.355v-48.849h-21.355v-37.699h-25.623v-36.106h-29.358v36.106h-25.623v37.699h-20.928v-87.076h20.928v-51.507h-20.928v-115.217h20.92v43.538h16.014v33.452h14.949v38.227h21.355v37.699h20.818v24.955h25.086v37.699h30.435v-37.699h25.086v-24.955h21.351v-37.699h20.823v-38.227h17.079v-32.92h17.083v-28.673h6.887v.004h27.761v28.673h17.083v32.92h17.079v38.227h20.818v37.699h21.355v24.955h25.09v37.699h30.427v-37.699h25.086v-24.955h20.818v-37.699h21.355v-38.227h14.945v-33.452h16.014v-43.538h16.677v115.217h-16.677v51.507h16.677v87.076h-16.678v-37.699h-25.623v-36.106h-29.358v36.106h-25.623v37.699h-21.355v48.849h21.355v37.166h25.623v36.106h29.358v-36.106h25.623v-37.166h16.678v107.256h-16.678v51.503h16.678v74.332h-16.678v-34.513h-21.351v-41.945h-29.894v-36.638h-24.554v-39.292h-17.083v-32.92h-40.035v32.92h-17.083v39.292h-24.021v36.638h-29.894v41.945h-21.351v34.513h-44.256v-34.513h-21.351v-41.945h-29.894v-36.634h-24.021v-39.296h-17.083v-32.915h-40.035v32.915h-17.083v39.296h-24.553v36.634h-29.894v41.945h-21.351v34.513h-1.537c25.895,47.218,61.043,88.721,102.958,122.03v-29.643h-20.814v-40.885h-20.282v-50.438h20.282v-40.88h20.818v-31.859h21.887v31.859h20.818v40.885h20.818v50.438h-20.818v40.885h-20.818l-.004,32.387h-18.388c20.661,16.051,42.918,30.13,66.486,41.945h2.615v-36.634h29.894v-41.949h21.351v-34.513h44.256v34.513h21.346v41.945h29.894v36.638h24.025v37.876h-53.25c18.933,2.779,38.283,4.225,57.956,4.225h2800c220,0,400-180,400-400V400.1C3600,180.1,3420,.1,3200,.1ZM484.973,204.252h-20.282v41.028h-20.818v31.969h-21.887v-31.969h-20.818v-41.028h-20.818v-50.62h20.818v-41.028h20.818v-32.501h21.887v32.506h20.818v41.028h20.282v50.615ZM515.404,486.649h-21.887v-46.356h21.887v46.356ZM80.396,440.293h21.887v46.356h-21.887v-46.356ZM80.396,1910.923h21.887v46.196h-21.887v-46.196ZM515.4,1957.118h-21.883v-46.192h21.883v46.192ZM464.691,2283.662h-20.818v32.392h-21.887v-32.392h-20.818v-40.885h-20.818v-50.442h20.818v-40.88h20.818v-31.859h21.887v31.859h20.818v40.88h20.282v50.442h-20.282v40.885ZM561.972,2330.39h-16.678v47.785h16.678v17.7h-92.48v-37.876h24.554v-36.638h29.894v-41.945h21.351v-34.513h16.682v85.487ZM29.577,937.955h20.928v-51.684h-20.928v-75.659h15.059v35.696h16.014v43.694h26.155v38.362h31.491v-38.362h25.09v-43.694h21.351v-35.696h-32.028v-39.431h55.517v27.173h33.097v45.291h30.427v50.083h-22.952v37.301h-17.083v36.232h-17.615v35.696h-24.021v33.57h-18.152v28.238h-25.086v38.366h-34.166v-42.63h-24.021v-35.696h-18.148v-24.511h-20.928v-62.341ZM29.577,1085.547h20.928v36.765h18.148v22.914h24.021v37.83h18.152v33.9h-18.152v37.699h-24.021v22.83h-18.148v36.638h-20.928v-228.575ZM251.751,1555.178h-30.427v45.131h-33.097v27.08h-55.517v-39.292h32.028v-35.573h-21.351v-43.542h-25.09v-38.227h-31.491v38.227h-26.155v43.542h-16.014v35.573h-15.059v-75.397h20.928v-51.503h-20.928v-62.125h20.928v-24.423h18.148v-35.573h24.021v-42.477h34.166v38.227h25.086v28.141h18.152v33.452h24.021v35.573h17.615v36.106h17.083v37.17h22.952v49.91ZM328.035,1387.397v37.166h-9.076v35.573h-10.623v-.004h-31.496v-35.573h-9.08v-37.166h-23.489v-36.106h-14.408v-26.548h-14.949v-28.141h-25.618v-27.613h-36.832v-138.148h36.832v-27.706h25.618v-28.242h14.949v-26.641h14.408v-36.232h23.489v-37.297h9.08v-35.7h42.118v35.7h9.076v37.297h23.489v36.232h14.408v26.641h14.949v28.242h25.623v27.706h36.832v138.152h-36.832v27.613h-25.623v28.141h-14.949v26.548h-14.408v36.106h-23.489ZM561.972,1461.201h-16.677v51.503h16.677v75.397h-10.804v-35.573h-16.014v-43.542h-26.159v-38.227h-31.491v38.227h-25.09v43.542h-21.351v35.573h32.028v39.292h-55.517v-27.08h-33.097v-45.131h-30.427v-49.91h22.952v-37.17h17.083v-36.106h17.615v-35.573h24.021v-33.452h18.152v-28.141h25.086v-38.227h34.166v42.478h24.021v35.573h18.148v24.423h16.678v62.125ZM561.972,1314.125h-16.678v-36.638h-18.148v-22.83h-24.021v-37.699h-18.152v-33.904h18.152v-37.83h24.021v-22.914h18.148v-36.765h16.678v228.579ZM561.972,886.271h-16.677v51.684h16.677v62.341h-16.678v24.511h-18.148v35.696h-24.021v42.63h-34.166v-38.366h-25.086v-28.238h-18.152v-33.57h-24.021v-35.696h-17.615v-36.232h-17.083v-37.301h-22.952v-50.083h30.427v-45.291h33.097v-27.173h55.517v39.431h-32.028v35.696h21.351v43.694h25.09v38.362h31.491v-38.362h26.155v-43.694h16.014v-35.696h10.808v75.659Z"/>
        <rect class="cls-1" x="419.848" y="2194.461" width="26.159" height="47.789"/>
        <polygon class="cls-2" points="353.654 1312.532 353.654 1244.035 333.368 1244.035 333.368 1221.206 319.492 1221.206 319.492 1208.099 319.496 1208.099 319.496 1178.792 333.372 1178.792 333.372 1155.882 353.658 1155.882 353.658 1087.148 333.376 1087.148 333.376 1114.854 312.021 1114.854 312.021 1155.349 307.268 1155.349 288.532 1155.349 283.779 1155.349 283.779 1114.854 262.424 1114.854 262.424 1087.148 242.142 1087.148 242.142 1155.882 262.428 1155.882 262.428 1178.792 276.304 1178.792 276.304 1192 276.304 1208.099 276.304 1221.206 262.428 1221.206 262.428 1244.035 242.142 1244.035 242.142 1312.532 262.424 1312.532 262.424 1284.92 283.779 1284.92 283.779 1244.568 288.528 1244.568 307.268 1244.568 312.017 1244.568 312.017 1284.92 333.372 1284.92 333.372 1312.532 353.654 1312.532"/>
        <rect class="cls-1" x="149.793" y="2194.461" width="26.155" height="47.789"/>
        <polygon class="cls-2" points="193.031 1192.532 193.031 1207.566 193.031 1226.513 215.451 1226.513 215.451 1207.566 215.451 1192.532 215.451 1173.463 193.031 1173.463 193.031 1192.532"/>
        <polygon class="cls-2" points="402.765 1207.566 402.769 1207.566 402.769 1173.463 380.349 1173.463 380.349 1192.532 380.345 1192.532 380.345 1226.513 402.765 1226.513 402.765 1207.566"/>
        <polygon class="cls-2" points="307.268 1064.234 310.952 1064.234 310.952 1017.345 307.268 1017.345 307.268 1017.345 297.9 1017.345 288.532 1017.345 288.532 1017.345 284.848 1017.345 284.848 1064.234 288.532 1064.234 307.268 1064.234"/>
        <polygon class="cls-2" points="288.528 1335.362 284.848 1335.362 284.848 1382.086 288.528 1382.086 307.268 1382.086 310.948 1382.086 310.948 1335.362 307.268 1335.362 288.528 1335.362"/>
        <rect class="cls-1" x="419.852" y="154.165" width="26.155" height="47.958"/>
        <path class="cls-2" d="M220.792,365.699v36.232h-25.627v37.297h-21.351v49.023h21.355v37.83h25.627v36.232h29.89v-36.232h25.623v-37.83h32.028s11.159,0,11.159,0v37.83h25.623v36.232h29.89v-36.232h25.623v-37.83h21.355v-49.023h-21.355v-37.297h-25.623v-36.232h-29.89s0,36.232,0,36.232h-25.623v37.297h-32.028s-11.159,0-11.159,0v-37.297h-25.623v-36.232h-29.894ZM225.059,486.649v-46.356h21.883l.004,46.356h-21.887ZM348.854,440.293h21.887v46.356h-21.887v-46.356Z"/>
        <polygon class="cls-2" points="287.468 2039.42 284.852 2039.42 284.852 2112.164 308.337 2112.164 308.337 2112.163 310.952 2112.163 310.952 2039.42 287.468 2039.42 287.468 2039.42"/>
        <path class="cls-2" d="M287.459,2309.682h-2.611v73.414c8.586,2.599,17.29,4.917,26.104,6.941v-80.355h-23.493Z"/>
        <polygon class="cls-2" points="308.337 357.708 310.952 357.708 310.952 284.707 287.468 284.707 287.468 284.707 284.852 284.707 284.852 357.708 308.337 357.708 308.337 357.708"/>
        <path class="cls-2" d="M220.796,1835.53v36.106h-25.627v37.699h-21.355v48.849h21.351v37.166h25.627v36.106l29.894.004v-36.11h25.623v-37.166h32.028s11.159,0,11.159,0v37.166h25.623v36.106h29.89v-36.106h25.623v-37.166h21.355v-48.849h-21.355v-37.699h-25.623v-36.106h-29.89v36.106h-25.623v37.699h-32.028s-11.159,0-11.159,0v-37.699h-25.623v-36.106h-29.89ZM246.942,1957.118h-21.883v-46.196h21.887l-.004,46.196ZM348.854,1910.927h21.887v46.192h-21.887v-46.192Z"/>
        <polygon class="cls-2" points="284.844 1763.314 284.844 1836.058 287.464 1836.058 287.464 1836.062 310.956 1836.062 310.956 1763.318 308.337 1763.318 308.337 1763.314 284.844 1763.314"/>
        <polygon class="cls-2" points="287.464 561.78 284.844 561.78 284.844 634.778 287.464 634.778 308.337 634.778 310.956 634.778 310.956 561.78 308.337 561.78 287.464 561.78"/>
      </g>
      <path class="cls-3" d="M561.972,1597.283v798.592h2695.984c192.794-28.293,342.044-195.447,342.044-395.775v-402.817H561.972Z"/>
    </g>
  </g>
</svg>