<?xml version="1.0" encoding="UTF-8"?>
<svg xmlns="http://www.w3.org/2000/svg" viewBox="0 0 3600.1 2401.738">
  <defs>
    <style>
      .cls-1, .cls-2, .cls-3, .cls-4, .cls-5, .cls-6, .cls-7, .cls-8, .cls-9, .cls-10, .cls-11, .cls-12, .cls-13, .cls-14, .cls-15, .cls-16, .cls-17, .cls-18, .cls-19, .cls-20, .cls-21, .cls-22, .cls-23, .cls-24, .cls-25, .cls-26, .cls-27, .cls-28, .cls-29, .cls-30, .cls-31, .cls-32, .cls-33 {
        stroke-miterlimit: 8;
      }

      .cls-1, .cls-2, .cls-3, .cls-4, .cls-5, .cls-6, .cls-34, .cls-10, .cls-11, .cls-12, .cls-13, .cls-14, .cls-15, .cls-16, .cls-18, .cls-35, .cls-19, .cls-36, .cls-37, .cls-20, .cls-21, .cls-23, .cls-26, .cls-38, .cls-28, .cls-29, .cls-39, .cls-31, .cls-40 {
        stroke: #000;
      }

      .cls-1, .cls-2, .cls-3, .cls-4, .cls-7, .cls-9, .cls-12, .cls-13, .cls-16, .cls-18, .cls-35, .cls-36, .cls-20, .cls-21, .cls-23, .cls-24, .cls-38, .cls-29, .cls-39, .cls-32, .cls-40, .cls-33 {
        stroke-width: 1.894px;
      }

      .cls-1, .cls-2, .cls-4, .cls-5, .cls-6, .cls-34, .cls-41, .cls-9, .cls-42, .cls-11, .cls-13, .cls-14, .cls-43, .cls-16, .cls-18, .cls-44, .cls-35, .cls-19, .cls-36, .cls-45, .cls-46, .cls-37, .cls-20, .cls-21, .cls-23, .cls-47, .cls-48, .cls-49, .cls-38, .cls-29, .cls-30, .cls-39, .cls-31, .cls-32, .cls-50, .cls-51, .cls-40, .cls-33, .cls-52 {
        fill-rule: evenodd;
      }

      .cls-1, .cls-6 {
        fill: #e8e8e6;
      }

      .cls-2, .cls-3, .cls-4, .cls-34, .cls-36, .cls-37, .cls-38, .cls-40 {
        stroke-linecap: round;
      }

      .cls-2, .cls-40 {
        fill: #ad7c59;
      }

      .cls-3, .cls-7, .cls-8, .cls-10, .cls-12, .cls-15, .cls-17, .cls-22, .cls-24, .cls-25, .cls-26, .cls-27, .cls-28 {
        fill: none;
      }

      .cls-4, .cls-46, .cls-20, .cls-38 {
        fill: #653024;
      }

      .cls-5, .cls-37 {
        stroke-width: 1.135px;
      }

      .cls-6 {
        stroke-width: 2.125px;
      }

      .cls-7 {
        stroke: #004b00;
      }

      .cls-34 {
        stroke-width: 1.13px;
      }

      .cls-34, .cls-13, .cls-14, .cls-36, .cls-37, .cls-47, .cls-39, .cls-32 {
        fill: #fff;
      }

      .cls-34, .cls-35, .cls-36, .cls-37, .cls-38, .cls-39, .cls-40 {
        stroke-linejoin: round;
      }

      .cls-41 {
        fill: #171696;
      }

      .cls-41, .cls-42, .cls-43, .cls-44, .cls-45, .cls-46, .cls-47, .cls-48, .cls-49, .cls-50, .cls-51, .cls-52 {
        stroke-width: 0px;
      }

      .cls-8 {
        stroke-width: 2.648px;
      }

      .cls-8, .cls-32 {
        stroke: #fff;
      }

      .cls-9 {
        fill: #358b03;
      }

      .cls-9, .cls-24, .cls-25 {
        stroke: #060;
      }

      .cls-42 {
        fill: #9dc9e2;
      }

      .cls-10, .cls-11, .cls-14 {
        stroke-width: 2.65px;
      }

      .cls-11, .cls-51 {
        fill: #ffe682;
      }

      .cls-15 {
        stroke-width: 1.861px;
      }

      .cls-43 {
        fill: #003e87;
      }

      .cls-16 {
        fill: #d67c59;
      }

      .cls-17 {
        stroke: #4d4b4d;
        stroke-width: 3.03px;
      }

      .cls-18 {
        fill: rgba(173, 124, 89, .988);
      }

      .cls-44 {
        fill: #4d4d4d;
      }

      .cls-35 {
        fill: #d90f19;
      }

      .cls-19 {
        stroke-width: 2.27px;
      }

      .cls-19, .cls-49 {
        fill: #006ac8;
      }

      .cls-45 {
        fill: #ccb8c8;
      }

      .cls-21 {
        fill: #ad7d5a;
      }

      .cls-22 {
        stroke-linecap: square;
      }

      .cls-22, .cls-27 {
        stroke: #4d4d4d;
        stroke-width: 3.409px;
      }

      .cls-23 {
        fill: #b68a6a;
      }

      .cls-25 {
        stroke-width: 1.895px;
      }

      .cls-48 {
        fill: #ce1b26;
      }

      .cls-26 {
        stroke-width: 3.783px;
      }

      .cls-28 {
        stroke-width: 1.489px;
      }

      .cls-30 {
        stroke: #075400;
        stroke-width: 1.98px;
      }

      .cls-30, .cls-33 {
        fill: #338a00;
      }

      .cls-31 {
        stroke-width: 2.605px;
      }

      .cls-50 {
        fill: #5ac800;
      }

      .cls-33 {
        stroke: #030;
      }

      .cls-52 {
        fill: #6f6;
      }
    </style>
  </defs>
  <g id="background">
    <path id="bz" class="cls-48" d="M400,.1h2800c220,0,400,180,400,400v1600c0,220-180,400-400,400H400C180,2400.1,0,2220.1,0,2000.1V400.1C0,180.1,180,.1,400,.1Z"/>
  </g>
  <g id="country">
    <g id="bz-2" data-name="bz">
      <g>
        <path class="cls-43" d="M0,400.1v1600C0,2055.838,11.56,2109.005,32.391,2157.331h3535.218c20.831-48.326,32.391-101.493,32.391-157.23V400.1c0-55.703-11.546-108.837-32.352-157.139H32.352C11.546,291.263,0,344.398,0,400.1Z"/>
        <g>
          <path class="cls-47" d="M2496.806,1198.341c0,385.788-312.743,698.534-698.534,698.534s-698.534-312.746-698.534-698.534,312.743-698.534,698.534-698.534,698.534,312.743,698.534,698.534Z"/>
          <path class="cls-21" d="M1436.411,1468.956c-1.144,4.972-3.047,11.866-3.822,20.674,0,1.914-1.904,12.25,3.822,12.626,4.209.384,5.356-10.723,5.356-10.723,0,0-3.832,12.25,1.14,13.788,6.883,1.513,7.64-13.404,7.64-13.404-.764,4.216-5.352,14.938,1.151,16.065,6.873,1.161,8.791-14.544,8.791-14.544,0,0-5.733,15.706,1.14,16.086,6.5.377,6.5-15.311,6.5-15.311,0,0-3.445,18.76,5.729,17.229,4.958-.767,6.116-7.281,7.26-11.106,1.527-5.733,4.969-13.007.767-24.876-3.051-8.801-1.904-11.099-1.904-11.099,0,0-10.705,8.041-19.108,13.394-3.832,2.294-24.472-8.801-24.472-8.801l.011.003ZM1548.018,1452.477c-1.907-1.154-1.524,6.894-2.291,10.709-.384,3.836.771,12.253,13.763,11.493,12.602-1.154,25.225-3.832,33.245-1.918,8.031,2.294,19.872,2.678,26.379,2.678s10.705-.76,13.749-1.918c2.682-1.137,8.414,1.541,11.081,1.541,2.682,0,6.88-4.216,6.496-6.897-.38-4.98-4.958-4.98-11.465-5.356-6.116-.764-14.52-1.918-18.721-3.445-4.205-1.538-11.849-5.747-21.403-7.657,0,0-18.345.771-22.156.771-3.832,0-26.379,1.14-28.677,0h0Z"/>
          <path class="cls-25" d="M1489.341,1478.219l-.76-17.581,7.2,6.123,1.893-13.386c3.03-.764,7.96,5.36,7.96,5.36l-.764-13.376,10.987,12.229s-.757-10.325,3.023-16.438c0,0,8.333,7.263,8.333,15.674,0,7.277,7.197-10.325,7.197-10.325,1.9,6.127,6.067,19.503,6.067,19.503l4.913-7.27,4.174,15.28,9.086-13.372,7.197,15.674,16.293-1.154,1.904,9.181,7.193-8.027,9.473,6.113s7.953-2.291,12.123-2.291,9.093,5.349,9.093,5.349c0,0,3.026-5.335,6.063-7.253,3.026-1.918,7.2,3.051,8.326,6.109l6.067-11.085s7.96,8.034,9.086,11.085c0,0,1.14-9.167,3.037-12.232,1.9-3.055,4.916,1.151,7.2,4.972l4.92-16.438s5.303,1.137,9.086,7.26c4.174,6.109,4.174-9.185,4.174-9.185,0,0,9.086,12.243,11.374,20.646M1919.342,1476.304s3.023-8.396,7.2-12.609c0,0,7.953,9.565,7.953,12.616,0,0,2.273-1.147,6.443-4.198l6.06,6.106,7.204-4.958,6.82,6.116,12.507-5.352,4.916,5.349,19.313-2.287,7.214,3.051,6.813-8.78,6.443,6.869,10.226-10.311s4.92,4.191,6.06,7.26c0,0,8.337-4.209,10.23-7.26,0,0,7.953-3.058,9.086,1.897,0,0,4.916-3.825,4.547-8.023-.387-4.202,5.676-1.144,7.57,4.216,0,0,2.277-8.418,8.347-9.188,0,0,4.156,4.976,3.016,14.154,0,0,9.09-7.26,13.263-8.031,0,0,1.897,10.314-1.133,19.503,0,0,9.473-15.681,11.367-10.328.757,3.055,3.03,13.386.757,20.639l8.337-5.349,3.026,10.332,9.086-1.914M1696.317,1526.951s6.82-11.458,10.987-14.523c0,0,9.086,7.27,12.12,16.441,0,0,1.14-6.113,4.17-11.462,0,0,11.367,5.335,13.256,12.612,0,0,4.174-7.267,7.2-9.167,3.03-2.309,6.063,8.016,6.063,14.136,0,0,7.2-7.65,11.374-8.031,0,0,7.953,3.818,10.223,17.208,0,0,7.584-7.263,10.23-6.127,0,0,9.093,6.127,6.813,14.53-1.13,4.582,9.1-5.342,21.6-8.404l10.987,8.404s10.226-13.76,13.256-18.355c0,0,8.34,3.058,8.34,8.034,0,0,3.794-14.541,6.816-16.054,3.026-1.911,7.196,4.582,7.196,8.791,0,0,1.137-11.085,7.204-13.383,0,0,6.063,4.202,6.063,8.418,0,0,6.44-12.616,11.367-15.688"/>
          <path class="cls-50" d="M1487.595,1476.589l-.76-17.638,7.2,6.144,1.893-13.425c3.026-.778,7.96,5.37,7.96,5.37l-.764-13.429,10.987,12.275s-.76-10.357,3.023-16.497c0,0,8.33,7.291,8.33,15.727,0,7.299,7.2-10.36,7.2-10.36,1.9,6.144,6.063,19.559,6.063,19.559l4.916-7.284,4.17,15.336,9.1-13.425,7.186,15.73,16.293-1.158,1.9,9.195,7.193-8.045,9.473,6.134s7.96-2.301,12.127-2.301,9.093,5.377,9.093,5.377c0,0,3.026-5.377,6.063-7.309,3.019-1.904,7.204,3.076,8.326,6.141l6.067-11.117s7.957,8.059,9.09,11.117c0,0,1.13-9.195,3.026-12.267,1.9-3.065,4.916,1.154,7.2,4.99l4.913-16.487s5.314,1.137,9.093,7.284c4.16,6.13,4.16-9.195,4.16-9.195,0,0,9.09,12.267,11.36,20.696,0,0-62.731,21.794-106.969,15.836-52.075-7.014-94.962-16.983-94.962-16.983M1917.6,1474.668s3.026-8.442,7.207-12.665c0,0,7.949,9.6,7.949,12.665,0,0,2.266-1.151,6.443-4.223l6.056,6.13,7.207-4.972,6.824,6.123,12.493-5.37,4.923,5.37,19.32-2.291,7.2,3.062,6.824-8.815,6.44,6.894,10.226-10.353s4.923,4.216,6.06,7.291c0,0,8.337-4.209,10.234-7.291,0,0,7.957-3.062,9.086,1.921,0,0,4.923-3.843,4.55-8.048-.377-4.216,5.68-1.154,7.577,4.209,0,0,2.27-8.428,8.326-9.195,0,0,4.163,4.969,3.03,14.196,0,0,9.086-7.306,13.256-8.066,0,0,1.9,10.35-1.133,19.562,0,0,9.47-15.73,11.37-10.357.76,3.062,3.033,13.418.76,20.696l8.33-5.363,3.023,10.357,9.086-1.921s-53.782,8.337-104.456,3.449c-50.678-4.892-98.224-23.001-98.221-23.001M1880.133,1512.73c2.463-1.541-16.923,40.353-63.934,42.584-65.405,3.1-121.32-29.923-121.32-29.923,0,0,6.824-11.5,10.987-14.576,0,0,9.086,7.295,12.123,16.487,0,0,1.14-6.134,4.17-11.497,0,0,11.367,5.352,13.256,12.651,0,0,4.17-7.284,7.207-9.195,3.026-2.312,6.063,8.041,6.063,14.189,0,0,7.193-7.682,11.363-8.066,0,0,7.96,3.839,10.234,17.261,0,0,7.577-7.281,10.223-6.144,0,0,9.093,6.144,6.816,14.572-1.133,4.61,9.093-5.352,21.6-8.425l10.983,8.425s10.226-13.791,13.26-18.408c0,0,8.34,3.076,8.34,8.066,0,0,3.794-14.576,6.816-16.107,3.026-1.914,7.193,4.599,7.193,8.826,0,0,1.144-11.124,7.204-13.422,0,0,6.067,4.209,6.067,8.442-.014-.007,6.426-12.665,11.356-15.741h-.007Z"/>
          <path class="cls-52" d="M1926.704,735.598s-5.504-.391-10.557-3.519l10.557,3.505"/>
          <path class="cls-24" d="M1928.463,737.358s-5.504-.391-10.557-3.519"/>
          <path class="cls-16" d="M1917.787,740.549s2.284-5.286,6.472-2.263c3.804,3.012,4.934,16.23,4.934,16.23l-6.084,3.012s3.428-4.895-5.321-16.979h0ZM1883.198,859.068s3.041-4.145-1.14-13.214l6.084-1.886s2.28,7.168-.764,15.107h-4.188M1988.573,838.295l-14.453,8.685,7.228,3.399,17.497-10.195-10.283-1.893M1794.915,894.533c-3.815,3.023-4.188,8.308-6.468,11.321-1.893,3.016-7.608,7.161-7.985,11.694-.764,4.526-1.14,7.548.757,13.594,2.273,6.032,11.789,32.829,7.985,53.222-4.188,20.375-2.657,29.057-1.133,32.087,1.513,3.016,6.084,11.314,8.752,11.314,6.081-.753,3.42-2.632,5.697-6.415,5.704-9.815,0-85.682-2.667-106.818-1.893-16.237-9.515-30.961-10.262-32.46-.76-1.9-2.28-6.799-3.428-9.822-5.704-13.594-12.553-25.281-12.553-53.602,0,0-18.648,4.152-34.621-31.71-8.365-18.116-20.544-16.23-34.997-22.258l6.472-4.163s12.172,6.046,18.261,6.046,4.191-12.077,4.191-12.077l6.084-6.046v26.428c0,12.081,16.737,28.687,26.622,33.593,6.095,3.012,14.087-9.442,12.187-21.516-1.907-12.074,0-28.304,0-28.304l8.365,4.899s-3.041,5.286-2.28,8.308c1.133,3.023,5.321-3.019,8.365-6.046,0,0,.757.76,3.804.76,0,0-6.088,10.181-9.125,15.473-3.033,4.913-3.033,24.165-3.033,31.337s2.66,23.771,2.66,29.053c0,3.783,7.218,19.249,12.936,28.694,1.9,3.772,6.464,13.577,6.464,13.577,4.561,7.175,4.937,12.084,7.608,18.13,1.517,3.012,4.188,11.694,6.088,26.801.764,3.769,1.52,18.116,2.667,27.544,1.137,9.058,8.752,1.893,17.87-4.526,9.128-6.788,9.128-23.022,9.128-23.022,0,0,7.232-6.049,6.088-2.646-.76,3.776,3.815,7.552,3.815,7.552-5.704,12.827-2.28,11.317,3.424,10.941,5.701-.764,25.478-15.477,25.478-15.477,2.664-.76,14.46-.76,12.559,0-2.284,1.137-5.328,6.799-5.328,6.799l12.933-1.517c-4.561,3.399-21.688,13.207-25.482,15.48-4.188,2.646-24.718,12.461-33.473,15.85-8.752,3.772-25.876,12.081-26.632,20.762-.38,8.685,1.14,32.087,0,39.628-.76,7.545-3.808,41.145-3.808,41.145h-40.705s7.992-29.444-.384-37.365c-7.988-8.308-26.632-32.47-38.801-40.782-12.183-7.918,7.981-1.872,7.981-1.872v-8.308l18.64,22.283s32.333-28.314,0-66.809c-10.269-12.084-20.544-30.574-28.529-32.47-8.368-2.263-12.556-4.156-26.636,0-14.453,4.149-49.073,4.149-63.53-18.507l12.183-1.883,10.258-4.152s-4.181,14.344,24.728,14.344c28.529,0,32.717,0,30.436-26.421l8.365-4.156,6.095,6.046s-4.188,14.344-1.907,20.379c1.907,6.039,12.179,10.195,20.168,16.23,3.428,2.646,6.088,3.023,8.368,3.023,3.42-.377,4.181-.377,8.752-4.909,6.841-7.548,5.317-7.172,12.169-13.207,0,0,3.424-5.286,4.188-6.046l4.188,10.951-.014.025Z"/>
          <path class="cls-16" d="M1800.633,876.748c1.513-1.513,4.55-7.249,7.207-12.208,4.547-7.626,9.864-12.208,15.924-21.751,5.68-8.773,7.96-21.737,5.68-30.894l5.307,3.055.387,14.499s7.211-6.116,10.244-7.626l3.026,1.517s-22.754,23.662-43.988,61.816l-3.797-8.389.011-.018ZM1601.194,797.403c3.033,5.324,6.074,15.646,15.167,23.652l6.067-1.907s-14.027-16.402-14.027-23.648l-7.207,1.9M1636.825,788.219s1.893,19.46-3.026,26.71l6.063-3.037s4.167-13.355,3.026-20.611l-6.067-3.047.003-.014ZM1836.679,726.797s-1.147,27.466,4.174,44.259l7.193-2.28s-1.13-4.976,4.93-7.263c6.077-1.904,20.477-8.006,27.681-14.115l-2.266-6.099s-10.997,8.773-16.307,11.06c-4.927,1.914-7.96,4.191-12.134,3.058-4.177-1.154-9.097-8.023-6.07-23.669l-7.2-4.951ZM1917.037,855s-1.89,19.46-.753,27.86l6.447,1.527s-1.51-23.275,2.646-25.186l-8.34-4.195M1945.886,869.509s-7.204,12.595-15.544,13.742l13.27-2.675s3.801-1.904,9.487-8.002l-7.218-3.058"/>
          <path class="cls-33" d="M1828.948,810.554l4.934,3.026,5.324.774s5.697,5.317,12.169,10.247c4.93,4.181,4.93-.76,4.93-.76l3.037,12.155h4.188s-1.144,7.978-1.144,12.158l7.228-6.084,8.368,7.218s6.081-5.314,9.118-5.314,4.188-3.033,4.188-3.033h.38c-20.154-9.505-28.888-19.376-22.814-29.634,9.892-17.092,26.238-6.084,31.559-3.794l73.766,39.498s4.941-3.033,1.52-6.088c-3.815-3.023-5.335-10.628-4.188-13.661,1.14-3.037,9.502,9.487,13.679,10.628,4.188,1.147,13.686,2.671,13.686,2.671l-.38-3.801s12.169,8.351,12.169,12.535c0,0,8.745-4.554,5.701-7.218-3.037-2.653,13.313,6.465,14.449,11.405l3.42-3.808c-.384,0,1.144-12.158,5.324-17.856,3.811-5.687,7.985-7.214,7.985-7.214,0,0,3.811-6.461,7.605-6.461,0,0-3.815-2.65-5.328-5.694-1.9-3.047-6.464-4.561-6.464-4.561,0,0,5.701-4.174,7.232-6.077,1.517-2.27,3.044-2.667,3.044-2.667,0,0-8.748-7.204-14.84-8.337,0,0-.373-9.885-7.978-10.638h3.424s-5.701-10.642-11.025-11.015c0,0,3.42-3.797,6.464-4.184,0,0-6.468-8.351-15.206-5.31l5.701-2.273s-4.184-4.554-17.106-2.277c0,0,1.14-5.317-4.557-9.501,0,0-4.941.377-4.941,4.177,0,0-4.561-4.177-10.262-4.177s1.9,6.088,1.9,6.088c0,0-7.605-4.948-12.172-3.424,0,0,1.9-8.734-3.044-13.302,0,0-5.69,3.04-7.225,6.841l-1.513-3.797s-7.608,9.118-9.121,6.458c-1.14-1.517-2.28-7.971-2.28-7.971l-4.554,6.841.753-9.508s-5.317,3.044-9.502,12.911c0,0-5.321,4.944-5.321,9.491,0,0-4.188-4.93-7.988,0-3.424,5.317,0,4.188,0,4.188,0,0-1.524,1.886-5.324,2.653l.76,3.03s-4.941-2.653-8.748-1.51l1.9,4.554s-9.889.764-10.262-7.204c0,0-8.365-4.188-9.509.373l-6.084,3.801s-1.907-3.801-5.328-4.554c-3.811-1.144-.76,4.927-.76,4.927,0,0-1.133-4.554-5.697-6.838-4.557-1.886-.76,4.188-.76,4.188,0,0-6.081-4.944-3.033-8.738,0,0-5.697,5.317-3.037,10.262l-3.804,2.65s-1.907-1.893-1.531-3.413c.391-1.527-6.461,4.554-6.461,4.554,0,0-4.188-9.871,0-9.871.38,0-7.225-.384-8.361,8.361,0,0-4.941.373-9.509,1.886-4.934,1.524,3.428,4.944,3.428,4.944,0,0-7.228-1.527-11.409.757l2.664,3.424s-2.664-2.664-9.128-.391c-6.848,1.9,1.517,3.041,1.517,3.041,0,0-6.838-1.517-10.262,0-3.424,1.524,1.14,4.181,1.14,4.181,0,0-12.553-3.801-14.453-2.65-1.897,1.13,4.184,7.218,4.184,7.218,0,0-7.605,1.893-9.118,7.594l6.838,2.65s-3.026,1.517-4.561,4.564c-1.506,3.037,4.561,1.513,4.561,1.513,0,0-8.354,6.084-8.354,10.638,0,0,6.081,1.893,10.645-2.66,4.557-4.554,1.517-3.037,1.517-3.037l.384,3.041s8.748-3.79,8.748-6.067c0-1.907-1.513,3.023-1.513,3.023l8.745-4.557,5.697,3.811v-.011l-.014-.007Z"/>
          <path class="cls-33" d="M1821.343,691.487l-1.897-8.291,19.344,2.249,3.41-7.911s9.097,4.142,12.137,7.151c0,0,17.817-4.522,23.134-2.632l-2.273,8.301s16.307,1.119,21.621,3.002c4.93,1.89-2.273,6.039-2.273,6.039,0,0,18.581,2.259,26.551,7.161,8.34,4.891,8.34,9.048,4.177,10.174l10.226,16.209s-16.3,1.883-19.337,6.025c-3.033,4.149-6.067-4.138-6.067-4.138l-3.033,11.307s-10.237-5.282-14.407-9.044c0,0-4.92,6.039-1.893,9.044l-18.588-12.063s-7.971-1.13-7.971,6.042c0,0-9.097-10.191-11.37-13.207l-10.251,3.019s-3.019-4.138-6.82-5.279c-4.177-.743-1.137,5.282-1.137,5.282l-6.067-7.165-6.07-7.147s-5.314,7.151-9.484,7.151c-3.801,0-3.801-4.891-3.033-8.291,1.137-3.016-12.137-3.762-13.27,0,0,0-3.801-15.079,10.234-19.221l14.407-3.772v.007ZM1747.802,743.136l-6.45,6.042-3.797-1.89-7.577,8.291-1.52-4.533-4.177,6.792-6.44-2.263-3.033,4.902-5.683-1.133s-4.93,4.533-7.967,5.659c-3.026.764,0-6.781,0-6.781,0,0-4.55,7.541-7.964,7.541-3.026,0-1.89-3.396-1.89-3.396,0,0-1.893,4.891-5.683,5.652-3.417.38-1.9-3.765-1.9-3.765l-6.077,4.522v-3.772l-2.646-1.126s1.51-6.788,4.177-8.294c2.646-1.513-2.66-6.025-2.66-6.025l2.646-3.019s-7.587-1.883-7.587-.369c0,0,3.804-10.174,9.097-12.081l.387-11.3s5.31-4.518,10.237-4.906c5.307-.757-1.513-8.671-1.513-8.671l12.134-7.151,1.513-8.671,18.581,1.496,3.797-7.911,14.798,3.765,12.507-6.412,9.097,10.561,13.651,1.133s-.369,9.417-.369,12.063c0,0,16.297,4.891,18.197,6.408,0,0-3.033,9.801-3.033,11.687,0,0,11.384-3.023,14.798-2.263,0,0,1.14,10.561,1.51,13.193,0,0,19.337,6.039,20.481,9.431,0,0-4.174,2.632-6.447,6.025,0,0,2.273,11.697,2.273,15.459l-1.52,2.263s-5.687-5.279-10.237-6.032l-3.804,8.291-6.82-4.522-4.17.377s-3.413-4.149-6.077-4.149l-.377-3.765-5.31,3.389s-8.344-4.149-8.344-6.788c0-2.263.384-6.042.384-6.042l-8.724,6.042s-1.893-4.522-1.51-6.412c.38-1.883-3.417,4.529-3.417,4.529,0,0-4.554-7.921-4.174-9.431l-1.14,6.408s-9.097-3.002-10.234-9.04v-.011l.009.004Z"/>
          <path class="cls-33" d="M1628.755,781.758s15.882,7.995,15.882,11.796c0,0,4.16-8.372,1.89-11.416l6.053,4.188s1.876-7.601-.387-9.889c-1.897-1.9,13.601-8.354,17.008,1.907,0,0,9.456-9.889-8.696-18.26,0,0-1.503-6.081,9.456-4.561,0,0-.757-3.804-3.407-5.324h10.589s-6.426-5.328-15.878-6.848c-9.065-1.524-3.407-2.653-3.783-4.571-.76-1.9,0-8.745,0-8.745,0,0-5.293-1.9-9.456.38l1.517-1.907s-9.836-2.653-13.601-.373c0,0-5.676-2.28-4.916-8.372,0,0-5.673-.373-8.309,5.701,0,0-5.296,6.092-12.479,6.092-1.503,0-6.799-3.055-6.799-3.055l-4.543,10.652-7.179-.373,2.266,4.177s-10.962-3.026-14.368,0c0,0,4.16,6.475,3.023,11.025,0,0-8.696,1.534-10.585,3.055-2.266,1.503,3.023,2.65,3.023,2.65,0,0-9.829,3.044-12.106,6.092l3.79,3.026-4.54,6.102,3.79.75s-6.429,1.904-9.829,3.047c-3.399,1.137,6.049,1.907,6.049,1.907l-4.533,4.174,7.186,1.133s-5.666,15.22-6.049,22.448c0,0,8.696-10.652,10.962-11.405l-6.799,11.405s12.859-4.177,13.992-6.091c1.123-2.28,2.259-4.177,2.259-4.177l.38,6.465s4.916-6.848,5.669-9.512c.387-2.653,7.939,2.664,7.939,2.664v-3.815s6.809,2.28,9.065,2.671c2.65.373,3.026-1.144,3.026-1.144l6.429-.76-1.14,5.317s4.533-3.037,5.659-6.084c.76-3.044,3.023,0,3.023,0l3.016-12.169h6.422l.018.028ZM1576.955,835.765l6.046,12.552c-4.909.373-12.095,6.077-12.095,6.077,1.13,20.924-4.152,19.777-4.152,19.777,1.496,3.804-.968,10.86-.968,10.86l30.07-18.081.384-1.9,35.539-16.74,1.126,1.9,10.212-5.701,7.182,19.006-7.179,4.184c.384,6.468,7.939,17.884,7.939,17.884l9.452-2.273,10.205-3.811s.384,5.701.384,3.811c0-1.531,10.955-5.324,10.955-5.324l4.913,4.944c3.79-.377,10.582-9.516,10.582-9.516l7.939,3.051s2.646-4.564,2.646-7.985c0-3.044,9.829-3.044,9.829-3.044l6.809,4.934,8.696-7.214s2.643,5.324,6.046,6.077c3.79.384,13.228,7.601,13.228,6.091s4.163-9.889,4.163-9.889l15.874,6.465c-2.259-7.225-7.552-15.966-7.552-15.966,0,0,7.552-6.074,6.049-7.601-1.51-1.527-6.053,0-6.053,0l4.536-9.125h-6.049l1.883-2.273-9.825-4.181,5.289-10.652c-2.266-2.675-28.353-7.999-28.353-7.999l6.049-5.701s-3.023-4.557-6.049-4.557-18.904.384-19.657-1.13c-.387-1.527-6.813-7.239-6.813-7.239l-9.829,7.239-4.906-1.527-8.696,3.428s0,4.941-1.147,1.517c-1.122-3.051-9.065-11.025-9.065-11.025-1.51,2.653-11.715,14.822-11.715,14.822,0,0-1.513,6.472-4.916,1.9-3.79-4.561-11.722-9.502-12.859-5.701-1.133,4.191-8.309,7.985-9.832,6.852-1.499-1.151-9.825-.384-10.582,1.897-.38,2.657-9.452,9.502-9.452,9.502-5.673-2.653-14.752-1.126-14.752-1.126,0,0-2.639,4.174-3.009,7.598l-18.524,4.937h.014v-.014l-.011-.011ZM1747.847,989.79v-7.988l9.069,6.081,5.293-6.091,6.802,6.841,4.16-6.841v11.039l10.209-9.121,6.039,2.653v-8.745s7.193-12.172,4.163-14.446l6.049-1.9s-10.205-10.269-13.228-12.179c-3.023-2.277-7.182-2.277-7.182-2.277,0,0-7.939-7.995-13.228-10.269-4.916-1.9-7.953,2.273-7.953,2.273,0,0-3.016-6.07-8.309-7.218-4.906-1.133-4.906,4.184-4.906,4.184,0,0-3.79-3.811-8.696-5.708-4.909-2.266-1.51,4.561-1.51,4.561l-17.391-5.307,2.263,5.307-16.248-4.167,1.879,6.084-11.335-1.914-.757,4.962-16.258,3.033,3.026,5.317-10.212-4.184v7.232l-11.342,4.177,4.163,3.811s-15.125,7.228-18.151,9.508c-3.019,1.893,6.056,6.07,6.056,6.07l-16.261-2.277,6.053,5.328-14.368,13.32,10.205,7.225-6.049,9.121,15.121,3.033,6.046,10.269,12.475-2.28v11.398l18.148-14.439s13.235,11.785,14.368,8.361c.75-3.037.75-13.306.75-13.306h6.429v-10.262l4.906,4.181,8.323-12.179,10.955,15.22,8.312-19.39,12.102,1.9.021-.004ZM1821.941,943.782l-1.886-17.493-5.289,5.324,2.256-16.35-8.305-1.527,3.016-15.966-6.042-3.047,1.499-7.601,6.056-4.564,10.962-10.652,25.316.401,3.023-8.372,18.151,3.044c3.016,3.424,12.468-6.848,12.468-6.848h3.79l4.16,7.978s13.228-1.907,19.274,2.277l-7.182,9.889,13.228,1.137,9.065,1.904,9.459-3.044,12.098-.771,3.023,4.944h11.342l-3.779,4.561,14.741,6.838-3.016,3.055s8.312,3.037,14.361,3.037h3.019s3.023,7.211-1.137,10.258c0,0,4.16,10.272,13.228,12.179q9.072,1.9,10.205,4.174c1.144,1.904,0,12.176-10.202,12.176v10.279s-7.939,7.221-9.069,10.255l-6.056-4.188s-5.279,6.091-5.279,10.279c0,0-13.235-17.504-18.155-18.267-5.289-1.133-4.16,9.892-4.16,9.892l-14.358-12.169-1.897,8.361-12.095-10.262-7.186,4.927-12.859-13.306-12.468,1.534,4.902-6.472h-15.114l-3.019-13.309-2.266,11.029-9.065-6.081-11.722,12.926s-1.506-1.531-3.403-7.608c-1.883-6.088-7.182,7.218-7.182,7.218l-4.16-9.498-4.906,9.498s-4.16-7.218-8.323-9.498c-3.779-1.9-7.932,11.398-9.062,17.49l-.004.032ZM1824.208,983.699l.753-6.074,21.547-8.375,18.151-6.841,9.069-4.184,4.16,7.225,5.289-10.258,8.315,10.638,4.543-5.704,7.175,5.321h6.053l1.133,7.999s15.121,1.13,16.251-1.9c1.14-3.044,3.023,10.262,3.023,10.262l14.361,1.897,3.023,16.353s7.172,15.22,4.913,21.304c-1.897,6.468-7.943-7.988-7.943-7.988,0,0-1.13,11.409-2.266,14.453-.753,3.033-19.278-3.044-19.278-3.044l-7.939,15.213s-8.315-12.172-12.095-12.172c-4.163,0-4.163,12.172-4.163,12.172,0,0-12.098-14.453-17.388-20.544-4.92-6.074-6.06,6.091-6.06,6.091,0,0-7.932-13.316-7.932-17.117,0-4.177-7.186-8.375-7.186-8.375,0,0-12.486,14.46-21.558,18.267,0,0,1.137-9.132-1.886-12.172-3.016-3.047-12.098,6.077-12.098,6.077,0,0-6.429-14.069,0-28.525l.032.004Z"/>
          <path class="cls-7" d="M1924.512,755.664l1.911,7.591s6.855-1.52,11.43-1.137c0,0-1.14,6.07-2.664,8.731,0,0,9.139-1.517,13.334,1.133l-1.904,4.55,10.677,4.561-9.913,7.971s15.998,5.683,19.056,10.247c0,0-10.286,7.211-11.813,6.838-1.52-.767-.384,3.019,2.287,6.44l-8.766-.373s3.428,7.974,3.041,11.004c-.38,3.037-14.485,2.27-14.485,2.27M1991.564,805.018s2.664-15.181-1.517-18.978c0,0,9.906,8.354,16.385,8.727,6.859.391-.387-12.528-.387-12.528,0,0,9.53,4.934,14.101,6.074,4.571.757-3.431-9.491-3.431-9.491,0,0,2.66-4.941,10.283-.384M1849.819,718.098s.373-3.417-1.154-5.31c-9.139-12.528,9.533,9.494,13.334,10.251M1879.524,723.021s6.095,4.554,9.146,4.554-1.904-12.151-3.431-13.661c-1.52-1.524,11.05,4.923,15.628,5.694,4.568,1.133,5.331-7.587,5.331-7.587,0,0,14.101,2.273,17.155,4.177M1825.397,713.547s-1.144-7.967-1.517-11.384M1729.39,751.522c-.764-1.52,3.822-8.354,1.911-11.388,0,0,2.66,2.28,5.328,2.66,2.284.373,1.513-8.734,1.513-8.734l3.054,1.133s8.006-3.804,6.479-6.838c-1.534-3.03,5.331,4.55,5.331,4.55,0,0,4.578-4.55,4.578-6.447,0-1.918,5.328,4.543,5.328,4.543,0,0,5.711-1.14,5.711-4.55s7.242,1.133,7.242,1.133c0,0,3.048-4.17,2.671-6.83M1701.557,758.722s3.424-7.964-.387-13.277M1608.96,783.756c.384-3.79,2.284-14.041.384-15.565-1.904-1.503,3.822,1.524,8.386,2.664M1653.906,769.356c-4.564-4.561-7.242-6.834-14.47-6.834M1576.557,794.76c1.147-2.65,3.044-9.104,1.907-12.901M1676.013,983.037l4.948-10.247,6.102,14.418,4.184-9.107,1.524,3.037,9.139-9.867,9.917,14.801M1870.758,921.932l6.482-12.901,8.766,4.554,4.195-12.524,9.139,5.694,5.335-11.764,10.29,2.646.753-8.347s7.242,4.167,9.146,7.2c2.28,3.047,0-10.233,0-10.233l8.379,3.79s6.098-6.081-2.284-9.494"/>
          <path class="cls-7" d="M1895.015,906.779l9.083,13.08,7.573-8.59,6.824,14.562,8.713-5.229,12.493,7.098,5.68-4.48,13.64,9.716,5.68-11.574,12.12,3.734,7.949-13.439M1657.495,876.522s5.307-8.977,3.41-13.084c-2.27-4.11,10.987,7.098,10.987,7.098,0,0,3.019-8.967,1.13-13.07-2.27-4.114,15.157,11.958,15.157,11.958,0,0,3.033-13.823,0-16.818-3.033-2.991,16.666,4.114,16.666,4.114,0,0,7.964-2.235,4.93-6.352-3.033-4.107,13.253,5.972,13.253,5.972,0,0,3.786-10.075,0-13.826-4.17-4.1,12.12,4.863,12.12,4.863l-6.06-10.842,13.256.75-1.13-11.958M1858.635,997.916l8.713-4.114,7.577,7.478,8.33-13.07,10.223,9.706,1.517-9.706,10.987,4.487,2.27-5.989,12.12,6.363,1.133-8.97,6.056,1.872,1.14-5.986"/>
          <path class="cls-42" d="M1657.928,1428.825c-9.474-15.84-17.285-32.618-23.307-50.066l165.396-143.472,165.396,143.082c-5.729,16.561-13.372,34.269-24.063,51.216l-1.316,2.083c-4.152-1.555-8.298-3.128-12.44-4.719,0,0-5.345,4.892-9.537,5.265-5.729.757-10.698-4.888-10.698-4.888,0,0-7.26,6.025-14.513,4.888-7.256-.743-10.318-5.268-10.318-5.268,0,0-7.633,6.021-12.989,4.892-4.958-1.147-8.4-4.533-8.4-4.533,0,0-4.578,5.662-11.074,4.533-6.106-1.147-11.838-4.533-11.838-4.533,0,0-9.537,4.135-15.656,4.895-6.109,1.14-11.462-5.272-11.462-5.272,0,0-8.02,5.272-11.074,5.272s-14.513-5.272-14.513-5.272c0,0-11.845,3.765-16.043,3.765-3.829,0-15.656-4.884-15.656-4.884,0,0-11.074,2.998-16.036,2.998-5.352,0-12.992-2.998-12.992-2.998,0,0-9.149,4.138-14.129,2.998-3.272-.692-6.47-1.696-9.551-2.998,0,0-9.931,4.138-16.427,2.998-6.109-1.115-13.365-5.254-13.365-5.254,0,0-1.147,3.009-12.989,5.254h-.387"/>
          <path class="cls-14" d="M1801.777,1068.135v167.082l-162.581,146.115c-15.758-46.54-16.888-88.114-16.888-106.043v-207.146h179.472"/>
          <path class="cls-11" d="M1801.777,1068.135v167.082l162.542,146.115c15.797-46.54,16.93-88.114,16.93-106.043v-207.146h-179.472"/>
          <path class="cls-16" d="M1696.205,1395.408c12.232,6.609,8.09,4.529,33.445,13.478,20.667,7.133,44.71,10.49,79.654,10.49,30.577,0,47.789-2.418,57.47-5.078,10.047-2.875,12.422-6.915,12.422-6.915l-25.168,25.478s-101.18,5.44-119.5-6.369c-7.13-3.755-22.543-16.107-38.323-31.087v.004Z"/>
          <path class="cls-3" d="M1847.05,1348.594s32.745,18.327,0,53.5M1699.728,1397.977l47.205-44.164-5.331,59.124M1766.333,1417.374v-97.978M1847.05,1418.162v-104.759M1806.299,1420.038v-112.61"/>
          <path class="cls-35" d="M1766.741,1322.834l-21.269,6.753,21.269,2.249v-9.005M1806.598,1307.428l-22.392,8.256,22.392.75v-9.005ZM1847.243,1313.435l-22.402,8.256,22.402,1.119v-9.382.007ZM1860.528,1361.087c-1.137-4.501,13.295-4.117,13.295-4.117,0,0,4.177,14.988,0,24.359l-12.151-2.249s1.144-10.114-1.14-17.997l-.004.004Z"/>
          <path class="cls-39" d="M1706.766,1391.973l39.312-38.53-1.879,23.046s-20.21,13.211-20.21,22.656l-17.222-7.175M1727.701,1399.916s4.124-12.084,15.347-18.123l-1.119,24.169-14.221-6.049-.007.003ZM1784.259,1333.068s16.093-2.266,28.079,0c0,0-1.879,16.237,0,19.256,0,0-22.093-5.289-31.07,3.012,0,0-2.995-15.107,2.995-22.269h-.004ZM1750.184,1337.224s16.1-2.263,28.079,0c0,0-2.995,18.137-1.126,21.157,0,0-17.975-10.205-26.952-1.9,0,0-5.996-12.454,0-19.256h0Z"/>
          <path class="cls-36" d="M1747.58,1358.303s16.423-1.886,28.652,0c0,0-1.911,16.212,0,19.232,0,0-21.396-4.899-30.57,3.016,0,0-4.205-15.083,1.918-22.247ZM1780.437,1355.301s23.687-3.002,35.905-1.123c0,0-4.962,13.193,1.154,22.24,0,0-25.598-6.785-35.148,1.126-.007,0-8.024-15.083-1.914-22.247l.003.003ZM1745.701,1380.575l31.7,2.259s-3.048,23.001-1.144,26.016c0,0-25.591-6.042-30.566,2.252,0,0-8.404-21.107,0-30.535h.011v.007ZM1781.602,1380.575s27.494-1.89,40.11,0c0,0-7.27,17.352.767,32.425,0,0-35.919-10.167-40.895-1.89,0,0-8.386-21.111,0-30.535h.017ZM1823.624,1333.064s16.416-2.259,28.652,0c0,0-1.907,16.216,0,19.228,0,0-22.543-5.282-31.703,3.009-.007,0-3.065-15.083,3.051-22.237h0ZM1823.624,1355.301s16.416-1.886,28.652,0c0,0-1.907,16.212,0,19.232,0,0-22.543-4.899-31.703,3.019,0,0-3.065-15.083,3.051-22.244v-.007ZM1825.538,1378.685s16.42-2.249,29.025,0c0,0-4.205,25.26-2.287,28.276,0,0-18.704-8.674-27.501-1.119,0,0-5.339-19.981.767-27.157h-.003Z"/>
          <path class="cls-13" d="M1860.099,1381.328s5.268,18.778,12.06,20.995l-9.044,10.677s-10.934-7.735-12.07-16.561c0,0,7.161-8.111,9.051-15.107l.003-.004Z"/>
          <path class="cls-49" d="M1940.78,1429.515c-26.245,44.396-69.234,86.069-139.995,111.927-71.912-26.238-115.654-69.85-141.53-113.859l.38-.387c11.792-2.326,12.94-5.402,12.94-5.402,0,0,7.228,4.248,13.313,5.405,6.468,1.151,16.357-3.09,16.357-3.09,0,0,4.188,1.935,9.512,3.093,4.937,1.151,14.073-3.086,14.073-3.086,0,0,7.608,3.093,12.933,3.093,4.944,0,15.98-3.09,15.98-3.09,0,0,11.789,5.008,15.593,5.008,4.188,0,15.973-3.857,15.973-3.857,0,0,11.419,5.405,14.46,5.405s11.032-5.412,11.032-5.412c0,0,5.321,6.563,11.405,5.409,6.092-.771,15.6-5.011,15.6-5.011,0,0,5.704,3.477,11.792,4.628,6.464,1.161,11.032-4.628,11.032-4.628,0,0,3.42,3.477,8.368,4.628,5.324,1.161,12.929-5.015,12.929-5.015,0,0,3.041,4.635,10.276,5.398,7.232,1.165,14.46-5.008,14.46-5.008,0,0,4.934,5.785,10.645,5.008,4.188-.384,9.505-5.398,9.505-5.398,0,0,9.512,3.079,12.933,4.248"/>
          <path class="cls-12" d="M1935.501,1442.338c-5.708.443-6.479-3.906-6.479-3.906,0,0-7.601,7.39-14.854,6.081-7.612-1.292-11.046-6.936-11.046-6.936,0,0-8.002,7.376-13.337,6.07-5.328-.869-9.136-5.215-9.136-5.215,0,0-4.944,6.524-11.43,5.219-6.479-.869-12.197-5.215-12.197-5.215,0,0-10.283,4.793-16.765,6.084-6.479,1.309-11.81-6.94-11.81-6.94,0,0-14.857,5.641-17.898,5.641-3.435,0-14.104-5.645-14.104-5.645,0,0-7.235,5.208-11.423,5.208-4.568,0-16.765-6.077-16.765-6.077,0,0-11.437,3.477-16.772,3.477s-13.33-3.48-13.33-3.48c0,0-9.906,4.779-15.241,3.484-5.331-1.313-9.526-3.484-9.526-3.484,0,0-10.663,4.779-17.138,3.484-6.479-1.313-14.101-6.077-14.101-6.077,0,0-1.14,3.033-13.707,6.077h-.391"/>
          <path class="cls-19" d="M1699.682,1458.744s-1.063,2.488-10.994,4.68c-.211-.014-2.692.584-2.692.584.915-.165,1.661-.299,2.46-.468-.926.341-1.862.655-2.808.936,11.229,16.219,28.047,30.947,45.572,42.753,17.532,11.813,37.675,25.911,71.968,35.972,36.06-14.08,45.681-19.436,69.248-35.222,23.567-17.219,35.845-27.941,48.989-45.6-10.29,5.845-8.812,5.908-14.147,5.145-5.331-1.133-9.241-5.029-9.241-5.029,0,0-4.867,5.803-11.342,5.032-6.475-1.133-12.162-5.029-12.162-5.029,0,0-8.46,5.754-16.842,5.377-6.475-.387-11.817-6.081-11.817-6.081,0,0-14.857,4.913-17.895,4.913-3.431,0-14.034-4.916-14.034-4.916,0,0-7.277,4.561-11.458,4.561-4.568,0-16.73-5.381-16.73-5.381,0,0-11.395,3.044-16.723,3.044s-13.33-3.037-13.33-3.037c0,0-9.498,4.181-15.206,3.041-5.339-1.133-9.593-3.037-9.593-3.037,0,0-10.61,4.181-17.078,3.041-6.472-1.133-14.147-5.265-14.147-5.265v-.014Z"/>
          <path class="cls-19" d="M1802.52,1543.201c37.035-15.688,43.721-19.957,66.12-33.889-3.906.106-15.266-3.632-11.155-4.821,0,0-4.554,4.177-9.093,4.177-4.167,0-16.279-5.377-16.279-5.377,0,0-11.349,3.065-16.649,3.065s-13.249-3.065-13.249-3.065c0,0-9.846,4.226-15.142,3.065-5.303-1.14-9.47-3.065-9.47-3.065,0,0-10.976,4.226-17.025,3.065-6.44-1.14-14.016-5.384-14.016-5.384,0,0-9.315,5.025-15.164,5.602,17.898,13.337,36.732,26.361,71.127,36.626h-.004Z"/>
          <path class="cls-16" d="M1650.197,1082.257c-2.597-.067-5.708,1.485-10.497,5.908-7.559,6.947-10.279,14.108-.359,22.765l49.137,45.505c7.172,7.105,17.208,8.404,21.417,12.088l49.946,52.015c6.292,5.535,9.308,9.463,5.747,14.192-3.945,7.781.282,8.833,1.182,9.069,6.834,1.566,3.121-2.791,4.001-5.043,1.182-4.758,6.289-8.868,9.917-10.856,2.358-.936,3.649-.44,4.241.845,2.154.88,4.43-2.404,1.256-5.866-2.731-3.875-7.003,2.418-11.817.94,0,0-7.267-4.585-9.255-7.869-4.241-4.803-9.702-9.114-12.845-13.239-3.329-3.822-15.853-20.692-34.92-40.107-5.479-3.646-4.233-17.43-8.161-21.709-.331-2.984-38.118-41.071-51.6-54.848-2.724-2.041-4.793-3.723-7.39-3.79h0Z"/>
          <path class="cls-15" d="M1650.461,1103.329l52.786,52.786"/>
          <path class="cls-6" d="M1720.888,1127.02c.813-1.538,2.586-5.455,4.462-9.727.746-1.689,14.872-23.87,21.91-24.521,0,0,43.928,31.464,43.964,31.879.148,1.696-19.056,29.975-20.731,27.829,0,0-51.463-21.273-49.601-25.46h-.004Z"/>
          <path class="cls-45" d="M1746.852,1134.04c-6.056-4.768-16.057-9.417-24.134-14.875l-3.635,7.675c2.921,3.315,39.706,20.657,45.748,23.996,0,0-7.003-8.147-17.982-16.797h.003Z"/>
          <path class="cls-28" d="M1724.361,1120.925c4.814,3.213,13.964,8.72,19.746,11.933,11.074,7.344,18.084,15.435,26.002,19.738"/>
          <path class="cls-16" d="M1636.385,1255.677l100.184-123.311c1.883-1.71,11.17-1.798,12.426,7.749l-94.881,128.608c.007,0-10.8-1.063-17.725-13.045h-.004ZM1970.717,1254.857c-3.449,2.629-9.304,3.308-9.304,3.308-6.496-7.478-11.866-15.333-21.048-25.052l-99.878-120.063,10.325-9.723,89.923,102.855c2.678,2.615,18.376,18.711,33.301,37.77.011.007,1.309,7.471-3.322,10.92l.003-.014Z"/>
          <path class="cls-1" d="M1875.67,1128.779l-16.223-18.412s-12.355,1.464-14.671,7.731c0,0-8.882,13.995-32.442,15.47,0,0,6.56,26.15,33.98,40.142,0,0,10.043-26.893,19.696-31.679,0,0,10.036-6.999,9.656-13.246l.003-.007Z"/>
          <path class="cls-16" d="M1833.973,1213.015c-2.298-.767-4.599,0-8.055,1.918-3.058,1.914-6.897,1.137-6.521-2.685.391-3.442,0-3.051,4.223-5.722,6.141-3.442,14.185-3.829,19.172-1.914l-8.819,8.411M1943.222,1104.491c-.771-2.667-1.527-5.331,1.151-8.776,2.682-3.055,2.682-8.411-3.846-5.736-6.517,2.682-8.815,9.938-3.445,21.019l6.127-6.51.014.004Z"/>
          <path class="cls-1" d="M1833.449,1214.595l110.097-111.269,27.146,29.525s-5.578-2.28-7.812-.771c-1.858,1.517,2.231,7.193,2.231,7.193,0,0-5.205-1.89-7.436-.38-2.604,1.506,0,7.946,0,7.946,0,0-4.459-3.403-6.7-1.897-1.851,1.524,0,8.703,0,8.703,0,0-5.947-1.883-7.425-.377-1.492,1.517,0,7.95,0,7.95,0,0-5.961-3.03-8.928,0-2.97,3.023,1.485,7.193,1.485,7.193,0,0-7.439-3.03-10.413,1.506-2.974,4.543.369,8.703.369,8.703,0,0-5.947-3.016-7.432-1.517-1.488,1.517,0,8.703,0,8.703,0,0-5.205-3.026-8.551.771-3.354,4.163.369,7.566.369,7.566,0,0-4.825-3.037-7.443-1.524-2.608,1.524.746,8.703.746,8.703,0,0-4.828-3.406-8.182,0-3.35,3.794,0,7.562,0,7.562,0,0-4.096-3.783-8.182,0-3.727,4.167,0,8.333,0,8.333,0,0-5.944-3.026-8.175,0-2.604,3.012.739,7.193.739,7.193,0,0-4.459-2.65-7.432-1.151-2.963,1.524,0,8.33,0,8.33,0,0-4.462-4.92-6.317-2.263-2.231,2.646.373,9.079.373,9.079,0,0-4.096-4.923-6.327-2.263-2.601,2.27,1.485,7.946,1.485,7.946,0,0-7.432-3.406-5.574-3.406l-22.712-26.087Z"/>
          <path class="cls-44" d="M1936.881,1112.127l-8.808,8.52,1.914,29.265s1.914-8.52,4.589-2.604c0,0,.771-7.031,2.685-5.916-1.545-.75-.384-29.268-.377-29.268M1920.433,1128.033l-6.51,5.923,2.294,29.265s1.921-11.11,4.592-2.221c0,0-.387-7.404-.387-10.005.011,1.858.011-22.962.011-22.962M1851.892,1193.625l-6.127,6.289,1.534,17.782s1.914-11.476,4.592-2.597c0,0-.767-7.39-.767-9.994,0,1.855.767-11.486.767-11.486"/>
          <path class="cls-27" d="M1845.491,1120.925c4.219,4.11,16.11,19.035,16.11,19.035M1850.882,1129.145c-.764,2.245-2.291,8.587-5.743,11.951M1852.765,1130.613c-.387,1.492-.387,6.348-5.743,11.208M1854.686,1132.889c-.767,2.604-1.147,4.476-3.062,6.345M1855.854,1135.124c0,1.869-1.14,2.242-1.524,3.364M1841.683,1128.005c-1.531,1.489-12.658,8.583-18.792,10.828M1838.59,1132.115c-1.527,1.499-8.435,6.725-12.271,8.221M1837.46,1136.595c-2.298,1.503-6.137,5.229-9.195,6.348M1835.162,1141.071c-1.531,1.865-3.839,3.364-5.75,4.487"/>
          <path class="cls-22" d="M1770.109,1145.558c1.316-2.14,3.614-6.338,6.623-10.181,3.815-4.874,5.455-5.701,7.453-7.415"/>
          <path class="cls-9" d="M1403.18,1452.336c5.69,2.639,0-18.521,1.89-26.453,2.277-8.316,18.595,20.407,26.572,24.194,8.351,4.152,59.198-20.038,59.198-20.038l12.144-22.673,6.454,18.51s14.038-16.251,18.215-22.293c4.177-6.042,0,12.098-4.177,18.141-4.177,6.056,12.144,8.323,10.24,20.411-1.9,12.102,16.318-8.312,16.318-8.312l47.053,4.16s7.96-28.353,20.485-44.604l3.801,18.155,19.348-19.65c21.635,56.696,67.179,118.304,160.526,151.935,87.656-31.745,132.824-88.068,156.341-141.741l26.185,26.854s20.495-6.06,24.288-8.319c4.17-1.897,48.194,15.498,48.194,15.498,0,0,7.967,3.023,12.148,6.056,4.167,3.016,1.13-13.235,1.13-13.235,0,0,22.392,4.152,20.491,16.251,0,0,4.937-11.335,9.114-13.225,4.177-1.893,14.034,10.202,16.318,14.358,1.897,3.786,50.094,9.825,56.921,13.985,0,0,5.317,6.053,5.317,10.205,0,0,10.247-1.137,18.218-1.137,0,0-6.07,3.009-6.07,9.445,0,6.056-3.037,10.972-9.111,13.981-6.07,3.03,0,5.286,7.971,6.056,8.351,1.123,0,11.328-16.318,17.388,0,0-3.797,9.065,3.037,12.081,0,0-14.052,1.147-16.318-3.016,0,0-4.927,9.445-4.927,14.361,0,0-15.181-4.92-19.358-7.179,0,0-6.074,6.035-1.9,9.062,0,0-27.695-3.019-33.012-13.225,0,0-9.871,3.019-7.974,6.426,0,0-19.348-13.221-25.418-13.221l-4.181,6.785s-13.277-7.932-17.455-7.932c-3.804,0-.76,6.046-.76,6.046l-18.588-11.342-7.204,11.342s-15.181-7.186-19.355-10.202c-3.804-3.023-4.923,6.042-7.967,7.168,0,0-6.074-8.301-14.421-7.168,0,0-3.033,10.195-1.893,13.225,0,0-23.532-4.909-27.698-6.056-4.181-1.126-1.897,4.916,0,9.079,0,0-17.458-4.913-21.259-7.95l-1.137,7.95s-14.407-1.14-17.448-4.16l-9.107,12.461h-13.281l-3.033,10.958s-22.941-8.404-25.049-2.664c-1.897,4.149-1.513,9.839-1.513,9.839l-18.848-1.256-5.782,10.121s-25.46-9.699-31.531-5.923c0,0-12.039,7.619-17.353,9.505-6.718-6.753-11.81-9.16-18.32-11.307-6.69-1.049-21.248,7.925-26.565,4.902,0,0,0-7.189-4.167-9.072-3.804-1.897-11.004-1.897-14.052,3.026,0,0-3.019-4.16-8.337-12.098-4.93-8.319-12.148.757-12.148.757l-1.14-9.832-14.041-1.137c-8.351-1.133-10.244-8.323-10.244-8.323,0,0-21.628,2.266-24.665,1.147l5.31-4.923s-29.595,6.06-35.659,3.794c-6.454-1.89,6.824-10.209,6.824-10.209,0,0-27.326-6.788-32.636-7.932-4.927-1.133-34.536,4.899-38.713,4.899s-6.07-6.806-6.07-6.806c0,0-7.218,6.053-13.288,7.946,0,0-4.93-12.088-1.89-13.228,0,0-19.355,5.293-20.495,10.216,0,0-4.923-7.939-4.177-11.342,0,0-9.104,14.361-13.281,17.384-4.177,3.023-.76-7.182-.76-7.182,0,0-11.377,14.358-15.554,15.494v-10.209s-32.639,17.384-41.74,15.128c0,0,0-7.197,3.03-9.076l-20.495-1.137c-4.923-.75-11.004-3.009-16.311-4.152-4.923-.764,7.214-6.042,15.561-3.779,0,0-22.768-8.316-29.606-4.16,0,0-3.037-8.312,9.1-11.342,0,0-15.561-15.107-24.669-13.981,0,0,10.255-6.042,18.602-3.03,0,0-9.491-25.686-15.565-28.712,0,0,21.635-3.779,27.706-.743h-.017Z"/>
          <path class="cls-16" d="M1371.797,1004.655l278.421-142.786c1.334-7.383-2.896-13.175-7.267-18.947-79.619,38.667-152.08,85.587-240.552,114.014-4.972,1.897-48.954,20.069-71.521,46.969-7.158,7.105-7.682,17.585-7.682,17.585,0,0,.549,12.025,3.1,15.273,0,0,.665,3.301,4.825,5.94-.046,0,2.569,1.267,4.381.626,2.02.37,5.307.348,9.899-7.615,4.596-7.58,19.513-24.996,26.393-31.063l.004.004Z"/>
          <path class="cls-1" d="M1595.177,863.973l36.285-17.528s12.362,9.343,11.194,19.862c0,0,2.706,24.141,32.442,40.884,0,0-25.105,31.534-69.107,34.269,0,0,5.046-41.627-4.212-53.704,0,0-1.545,1.492-.873-.574,1.313-4.05-.894-17.94-6.528-20.998-.693-.384.443-1.517.799-2.213v.003Z"/>
          <path class="cls-17" d="M1636.441,871.075c-7.46,3.019-31.724,15.832-31.724,15.832M1624.884,878.602c-.377,3.765-2.615,12.816,0,19.228M1621.51,879.746c0,1.886-2.984,8.671.377,17.725M1617.804,881.635c-.75,3.779-1.488,6.042,0,10.191M1614.795,883.898c-.746,2.259,0,3.396,0,4.892M1636.811,882.748c1.116,3.012,11.198,18.848,17.173,25.26M1638.317,889.898c1.122,3.019,6.718,13.953,10.821,18.109M1637.581,896.31c1.488,3.772,4.476,10.561,7.46,14.326M1637.581,903.869c.75,3.019,2.238,6.792,4.476,9.435"/>
          <path class="cls-16" d="M1884.648,797.301c-5.05.609-9.604,4.068-14.727,12.813-8.953,17.152-6.774,26.509,20.273,38.252h.011l101.483,49.788c20.34,9.903,27.663.739,39.139,5.736l200.298,102.208c17.18,7.524,26.801,9.931,24.331,18.834-.338,11.479,3.709,13.056,6.496,13.598,4.318,1.809,7.658,2.833,8.569-2.168.658-.992-.546-2.601-1.823-4.705-1.277-2.108-2.632-4.716-2.301-7.689s.57-4.374,1.562-5.944c.989-1.57,2.724-3.301,6.021-6.936,1.65-1.816,3.206-2.618,4.684-2.762,1.482-.144,2.889.362,4.23,1.147,1.848,1.084,3.459,2.34,5.113,3.509,6.676-.542.728-10.036-3.903-13.647-10.079-4.733-11.229,6.007-21.846,4.874,0,0-18.978-7.218-25.812-12.162-12.584-6.862-30.158-15.005-34.153-19.471-12.788-2.404-109.052-56.646-163.584-83.87-5.852-4.902-9.037-23.043-20.53-29.117-3.378-4.895-77.201-38.664-115.809-57.998-7.112-2.66-12.669-4.899-17.718-4.29h-.003Z"/>
          <path class="cls-18" d="M1561.137,888.698c-.76,2.284-2.66.76-2.66,1.527-1.517,7.988-1.14,12.172-3.041,16.744-2.664,5.331-12.176,10.286-11.792,9.899-7.605,2.284-16.73,11.426-31.559,3.047-.767-.377-1.52-1.147-2.28-1.904,0,0,4.174,15.607-11.032,23.215-5.328,2.671-58.962,30.852-58.962,30.852,0,0-5.711,10.283-1.907,24.366.384,2.284,1.14,4.184-1.14,5.711-3.428,2.657-9.896,10.283-13.693,22.466,0,0-11.416-4.955-11.416-12.183s4.561-11.039,5.704-16.381c1.137-4.941,4.177-17.514,2.664-21.322-1.52-4.191-8.368-5.711-11.032-7.235-2.28-1.534-5.328,1.517-4.941,4.941.384,3.815,3.037,3.041,6.084,3.815,0,0-3.424,7.225-3.037,12.556l-34.613,17.898s4.561,6.084,6.084,8.755c1.513,2.664,4.934,38.076,15.216,54.834,10.269,16.754,13.693,12.187,15.973,14.47,1.9,1.9,4.937,4.937,7.605,7.235,2.664,1.907,14.453,3.037,16.74-3.424,2.664-6.099,4.561-9.906,11.792-15.618,7.228-5.701,22.061-20.171,22.061-26.653,0,0,8.748,25.133,7.601,46.075,0,0,31.953,6.482,60.489,7.235,28.536.394,42.985-5.704,42.985-5.704,0,0,3.808-23.986,2.273-28.557,0,0,4.564,15.611,7.992,20.938,3.808,6.465,7.981,19.788,16.35,20.555,7.992.377,14.843-7.988,15.593-11.412v-25.133h32.337c0-.377,14.456,5.328,19.021,4.564,4.561-.384,7.225-4.564,3.037-6.091l-1.513-1.133c4.177,0,9.509,2.657,9.509,2.657h15.966c.391-.384,0-1.534-.38-1.911-1.14-4.564-9.512-8.382-15.593-11.039-6.095-2.273-12.936-4.948-17.5-5.324-7.225-.771-12.176-.373-23.208,1.527-3.044.373-14.453,1.517-21.684,4.941-1.907,1.147-3.815,1.52-3.041-3.424,1.144-5.338.764-29.321-4.937-39.604-4.188-7.228-3.804-13.327-3.041-19.411.387-6.102.76-27.04,0-33.136-1.147-6.088-9.516-14.47-24.718-16.374-14.456-1.907-26.636-13.71-27.392-23.226-1.14-9.512,1.527-27.026,3.044-34.638"/>
          <path class="cls-23" d="M1498.05,847.655c-2.597,11.919-2.597,22.364-2.224,33.913.373,7.823,4.082,16.768,7.418,24.602,2.228,5.222,5.198,11.18,10.015,14.164,12.992,8.572,25.235-.746,32.284-3.727,3.343-1.13,8.534-5.958,10.019-8.949,1.851-4.469,1.105-7.819,2.96-16.392-.373.366,2.967-1.496,2.597-1.496,3.34-5.592,2.597-7.45,4.448-11.187,1.862-3.73-2.217-7.826-6.672-7.073,2.217-7.084,3.713-14.921,1.475-21.632-.739-2.228,1.858-8.189-2.217-6.711-16.701,6.711-36.359,5.222-54.169,5.222-1.481,0-2.597-2.984-4.814-2.601-.38,0-.75,1.112-1.123,1.851"/>
          <path class="cls-29" d="M1493.718,852.392c-1.918-1.538-2.305-5.004,0-12.338,2.689-7.306,0-7.707,4.23-11.944,4.226-4.248,3.069-6.18,5.757-7.323,2.682-.781,10.754-.781,13.443-1.925,2.305-1.168,5.764-2.706,11.134-3.47,5.761-1.168,17.293-.781,22.666,2.301,5.768,3.079,9.611,10.8,13.066,13.492,3.853,2.689,6.155,13.876,5.388,30.088-1.158,16.181-4.23,13.101-4.23,13.101,0,0-4.614-7.71-8.449-1.168,0,0,0-6.165.767-10.8.384-4.614-2.305-13.101.384-18.887,0,0-21.903,6.943-33.04,6.556-11.525-.771-27.653-3.473-28.423-6.165l-2.696,8.477"/>
          <path class="cls-32" d="M1505.831,840.424c-.89-2.53-5.363-11.824-1.784-14.773,3.28-2.541,1.189,11.388,5.669,14.344,0,0-1.496,6.331-3.867.426l-.018.004Z"/>
          <path class="cls-12" d="M1520.027,871.089c-1.812,5.877-2.537,7.253-3.266,10.709M1554.479,887.308c.728,2.069,1.439,1.028,3.259,1.376M1559.184,875.227c1.816-2.069,4.346-1.028,2.896,4.149"/>
          <path class="cls-12" d="M1495.65,860.532c3.47,1.158,6.936,2.323,10.406,3.896,5.778,2.33,2.312,10.86.774,16.3-.774,2.731-3.864,7.387-2.312,9.727,1.932,3.09,4.244,1.154,7.71,1.538,0-1.158,2.312-1.939,3.079-1.939,2.696-.384,4.24,1.935,6.162,1.172,2.309-1.175,1.932-4.673,1.158-6.605M1522.234,867.521c.387-1.541,3.857-3.093,5.782-3.494,8.087-1.548,13.858-2.72,20.421,1.946M1526.854,908.296c-6.549,1.555-13.482,2.71-19.647-.788M1507.2,904.439c3.079-1.559,4.24-3.118,8.094-1.175,0-.391,4.24-1.552,4.24-1.552,3.079,0,5.011,1.161,8.094,3.1M1506.823,905.966c3.466-1.168,12.714-1.168,20.425.387"/>
          <path class="cls-34" d="M1495.981,869.382c2.724-.503,5.828-4.599,12.042,1.534,4.276,3.575-6.996,7.158-5.046,6.648-5.039,1.013-6.605-2.551-6.982-5.634,0-1.013-.778-2.548,0-2.548h-.014ZM1527.822,873.447c2.717-7.158,6.996-5.623,10.881-4.096,3.885,1.541,2.717.531,6.215,3.083-4.276,1.017-3.107,1.52-6.222,3.561-3.494,2.052-6.598,3.065-8.935,1.035-.778-1.035-2.717-2.548-2.717-4.596,0,.5.387,1.017.778,1.017v-.004Z"/>
          <path class="cls-5" d="M1502.259,873.876c1.545,0,2.71-1.481,2.71-2.967,0-1.855-1.165-3.34-2.71-3.34-1.928,0-3.09,1.485-3.09,3.34,0,1.485,1.154,2.967,3.09,2.967ZM1535.169,874.604c1.541,0,2.71-1.471,2.71-3.34,0-1.847-1.548-2.952-3.093-2.952s-2.71,1.105-2.71,2.952c0,1.879,1.552,3.343,3.097,3.343l-.004-.004Z"/>
          <path class="cls-12" d="M1696.237,1069.289c-2.277-2.59-3.811-3.699-6.848-4.8-2.284-1.094-5.331-2.569-7.622-3.677-2.664-1.481-6.475-1.841-8.759-3.318M1674.528,1067.079c-1.144-.736-1.9-1.101-3.037-1.851-1.147-.359-2.667-.359-3.818-.732-.384,0-.384-.739-.76-.739-3.428-.37-6.859-1.851-9.132-4.782M1422.827,1025.055c3.42,2.569,11.796,8.115,12.56,18.802.764,5.525,3.818,11.05,3.818,11.05M1390.079,1026.54c1.907,6.257,2.284,26.9,22.466,48.655M1393.897,997.775c-1.527,4.058-3.431,7.742.757,10.687M1448.727,1047.19c4.191-9.22,17.134-8.484,17.134-17.324"/>
          <path class="cls-12" d="M1468.402,1045.406c-1.126-10.765-3.375-16.906-1.492-32.667.743-4.62,1.489-22.29,0-30.753,0,0,5.997,29.588-13.489,35.37M1580.066,1064.637c0-14.998,3.375-23.462,3.375-23.462,4.494-21.128-4.124-29.205-.75-34.585,2.991-4.606,7.496-14.228,1.499-33.449,0,0,10.487,39.604-16.49,39.604-27.347,0-26.22-10.381-26.22-10.381"/>
          <path class="cls-12" d="M1467.498,982.235c0,7.95,0,31.457,33.857,31.457,10.265,0,21.301-7.2,27.382-12.127M1537.119,991.321c-1.144-7.204-1.144-16.293-1.144-25.774M1484.995,952.699c9.125-1.147,16.364-2.27,33.487-2.27M1519.622,926.891c1.907,8.344-1.137,21.6,14.456,23.5M1550.432,923.875c-2.28,6.07-2.28,12.127-3.044,16.293M1548.151,950.43c6.468,0,18.64-4.174,33.853-1.14M1587.336,1034.152c3.041,6.07,3.808,14.02,13.313,23.117M1481.968,1014.821c.764,4.93-6.468,21.22-1.144,34.494,4.941,13.249,4.188,28.416-4.188,41.296M1501.372,1019.773c-3.037,6.056-8.368,12.127-9.512,17.43M1516.554,1031.132c0,3.794-10.258,32.59-17.497,40.543,0,0,13.309,5.303,11.402,24.633M1537.869,1017.876c0,4.93-.764,6.07,3.424,9.086M1550.432,1026.962c4.937,6.063,20.537,24.26,17.11,34.487M1540.149,1037.202c1.144,3.794,1.144,23.5-2.28,33.354M1529.905,1069.792c-4.188,0-10.269,3.03-11.412,10.23M1551.181,1068.635c4.181-1.137,12.542,6.056,12.542,26.53M1622.336,1056.906c-7.988,2.27-11.412,6.45-9.125,4.17-4.188,3.406-7.992,5.68-7.992,5.68"/>
          <path class="cls-5" d="M1485.428,1010.778c2.298,0,4.226-1.408,4.226-3.157,0-1.415-1.914-2.812-4.226-2.812-1.925,0-3.853,1.397-3.853,2.815,0,1.742,1.921,3.16,3.853,3.16v-.007ZM1572.736,1011.844c1.925,0,3.853-1.394,3.853-3.157,0-1.735-1.921-2.791-3.853-2.791-2.294,0-4.226,1.056-4.226,2.791,0,1.767,1.928,3.16,4.226,3.16v-.004Z"/>
          <path class="cls-1" d="M1452.961,1166.69c4.497-29.476,18.366-54.035,18.739-56.309,0,0,14.238,3.03,38.977,5.289,24.359,2.636,31.108,1.51,42.352.743,10.87-1.123,25.109-3.009,25.109-3.009,0,0,4.501,9.062,4.874,18.134,1.123,19.27,8.238,102.788,8.988,125.082,0,0,2.998,13.221,2.998,45.716,0,35.535,9.744,107.701,9.744,146.256l-9.741,1.897s-53.222,4.16-53.222-3.023c0-7.925-2.995-100.515,4.87-156.443,0,0-1.872-10.958-4.87-20.411-2.995-9.076-16.117-37.415-16.117-43.453,0,0-20.981,59.69-22.107,69.913-1.123,9.442-4.124,142.448-6.003,153.424,0,0-30.359,23.426-34.483,25.7-4.114,1.893-33.354-12.479-34.103-16.248-1.13-4.152,2.998-49.133,16.867-123.209,5.247-26.453,2.245-31.344,2.245-38.53s.38-102.028,4.87-131.507l.014-.011Z"/>
          <path class="cls-12" d="M1502.847,1297.912c-2.242,8.287-5.989,16.188-13.098,21.47M1479.628,1120.939c-1.119,4.892-8.235,27.104-26.206,40.283M1505.828,1125.084c-4.121,13.179-20.213,83.965-23.219,167.919M1481.504,1319.372c-.75,7.9-4.863,66.644-5.989,76.8M1472.527,1407.471c-1.876,4.131-10.107,38.386-10.107,68.893M1581.083,1343.46c-.75,7.151-3.755,57.973,13.101,103.527M1526.069,1128.857c-1.123,8.277-2.991,61.745-2.991,65.884s5.997,10.163,8.984,11.3c0,0-5.989,1.886-7.112,22.212M1509.952,1180.436c-1.133,6.391-7.119,31.626-11.24,41.792M1547.008,1128.118s17.972,3.765,19.091,0c0,0,5.989,109.196,14.228,169.795M1539.167,1142.029c0,7.158-2.242,60.996-2.242,60.996M1545.903,1210.925s7.101,10.156,5.243,15.044M1485.628,1122.086c5.997,1.879,11.233,3.005,11.233,3.005M1515.948,1131.116c-1.13,3.012-2.245,16.944-2.245,16.944M1545.903,1291.881c2.245,3.012,5.243,7.165,2.995,16.195"/>
          <path class="cls-16" d="M1467.498,1109.991s0-11.465,4.54-17.205c0,0,12.866,2.52,31.049,4.307,18.549,1.788,33.311,3.227,46.951,1.788,13.64-1.425,27.656-4.645,27.656-4.645,0,0,3.779,16.842,1.879,19.348,0,0-14.769,2.868-31.042,3.579-16.666,1.07-44.301-1.436-53.768-2.854-12.507-1.443-23.486-3.593-27.266-4.307v-.01Z"/>
          <path class="cls-13" d="M1481.571,1111.856l2.196-19.066,3.681.391-.736,19.865-5.141-1.189ZM1561.256,1095.964l.37,21.459,4.402-.806-.359-21.853-4.413,1.2ZM1504.705,1095.964l-1.464,20.653h2.572l2.572-20.653h-3.681Z"/>
          <path class="cls-20" d="M1436.435,1468.981c-1.147,4.972-3.051,11.866-3.825,20.674,0,1.911-1.904,12.25,3.825,12.626,4.205.384,5.352-10.723,5.352-10.723,0,0-3.832,12.25,1.144,13.784,6.88,1.517,7.64-13.401,7.64-13.401-.767,4.216-5.352,14.938,1.147,16.065,6.876,1.161,8.791-14.544,8.791-14.544,0,0-5.733,15.706,1.144,16.086,6.496.373,6.496-15.315,6.496-15.315,0,0-3.442,18.764,5.729,17.233,4.962-.767,6.116-7.281,7.263-11.106,1.524-5.733,4.965-13.007.767-24.876-3.051-8.805-1.907-11.099-1.907-11.099,0,0-10.705,8.041-19.108,13.394-3.832,2.294-24.468-8.801-24.468-8.801l.011.003ZM1548.039,1452.501c-1.907-1.154-1.524,6.894-2.291,10.709-.384,3.836.771,12.253,13.763,11.493,12.605-1.158,25.225-3.832,33.248-1.921,8.031,2.298,19.869,2.682,26.375,2.682s10.709-.76,13.749-1.921c2.682-1.133,8.414,1.545,11.081,1.545,2.682,0,6.883-4.216,6.5-6.897-.384-4.98-4.958-4.98-11.469-5.356-6.116-.764-14.52-1.918-18.718-3.445-4.209-1.538-11.849-5.747-21.406-7.657,0,0-18.341.771-22.156.771s-26.375,1.14-28.677,0h0Z"/>
          <path class="cls-40" d="M1360.487,980.148c-1.879,1.066-4.152-7.105,1.506-10.3,0,0,1.506-6.746,7.545-7.46,0,0,4.895-6.394,12.077-5.676,0,0,8.287-5.324,11.31-4.62,3.016.355,10.568,7.457,10.937,9.948.76,2.477,0,6.746-1.89,8.523-2.263,2.126-3.776-.355-4.152-3.195,0,0,1.513,5.321-3.012,7.453-4.522,2.495-4.152.721-4.522-2.129,0,0-1.14,5.69-4.152,6.398-3.016,1.063-4.895-1.425-7.172-1.425,0,0,3.783,2.85,1.137,4.98-2.643,1.781-5.659,1.059-7.548-.348-1.89-1.781-4.152-6.401-12.077-2.129l.014-.018Z"/>
          <path class="cls-2" d="M1397.117,965.776c-1.935-5.814-8.118-10.895-15.463-10.16M1390.163,971.199c-1.161-1.453-1.548-2.91-2.703-4.353-3.484-5.451-10.832-5.078-17.015-6.535M1379.715,976.661c-2.319-1.45-3.09-4.36-5.416-5.437-3.875-1.457-7.731-3.269-12.373-2.548"/>
          <path class="cls-20" d="M2042.608,888.913c2.66-1.144,1.904,2.28,2.28,3.424,1.144,4.937,1.144,10.276,3.037,14.833,2.27,4.184,3.033,5.704,6.838,7.605,6.077,3.424,23.94,13.316,36.493,5.324.764-.373,1.897-1.144,2.66-1.9,0,0-4.557,15.597,11.022,23.205,4.934,2.653,58.543,30.809,58.543,30.809,0,0,5.697,10.272,2.277,24.345-.764,2.28-1.517,4.177.76,5.704,3.811,2.653,9.878,10.272,14.073,22.445,0,0,11.004-4.951,11.004-12.172s-4.557-11.029-5.697-16.357c-.746-4.948-3.794-17.5-2.266-21.297,1.513-4.181,7.978-5.704,10.638-7.239,2.667-1.534,5.701,1.513,4.937,4.934-.38,3.815-3.033,3.055-6.081,3.815,0,0,3.811,7.214,3.041,12.542l34.965,17.877s-4.557,6.095-6.084,8.748c-1.904,2.675-5.324,38.038-15.579,54.778-10.276,16.74-13.693,12.176-15.589,14.456-2.28,1.897-5.321,4.948-7.985,7.228-2.28,1.907-14.066,3.047-16.726-3.42-2.66-6.084-4.561-9.896-11.782-15.603-7.225-5.694-22.043-20.15-22.043-26.622,0,0-8.745,25.119-7.605,46.026,0,0-31.545,6.475-60.44,7.242-28.515.38-42.961-5.711-42.961-5.711,0,0-3.804-23.961-2.28-28.529,0,0-4.557,15.593-7.594,20.917-4.184,6.457-8.358,19.777-16.35,20.534-8.358.391-14.826-7.981-15.955-11.402v-25.109h-32.309c0-.373-14.073,5.324-19.006,4.571-4.561-.391-6.845-4.571-3.037-6.091l1.52-1.137c-4.184,0-9.505,2.653-9.505,2.653h-15.963c0-.384.384-1.534.384-1.907,1.151-4.554,9.512-8.372,15.966-11.029,6.084-2.27,12.538-4.944,17.106-5.317,7.225-.76,12.169-.373,23.191,1.524,3.033.373,14.822,1.527,21.663,4.941,1.897,1.137,4.177,1.517,3.037-3.417-1.14-5.331-4.557-20.928,1.147-31.2,3.804-7.228,3.424-13.309,3.037-19.404-.76-6.457-4.177-20.921-4.177-27.378,0-21.308,16.35-30.053,30.788-34.621,15.963-4.937,26.604-10.276,25.858-19.77-.391-9.892,2.27-26.242.753-33.86"/>
          <path class="cls-20" d="M2107.038,847.68c3.382,12.37,4.135,15.371,4.135,19.499,0,4.494-1.883,5.25-.384,10.135,2.629,8.991-2.629,18.746-9.005,29.247-3.005,4.867-5.261,11.25-10.138,14.249-12.391,7.869-27.413-1.503-35.296-4.892-4.121-1.862-6.384-4.863-7.503-7.869-1.503-4.494-1.883-8.622-3.002-14.618,0-1.13.38-4.497-2.249-3.378-4.505-5.247-3.755-7.496-5.624-11.24-1.879-3.765,3.382-7.886,7.51-7.133-2.252-7.123-3.378-15.005-1.126-21.758.75-2.242-1.876-8.238,1.879-6.753,16.891,6.753,36.795,5.257,54.82,5.257,1.488,0,2.622-2.995,4.87-2.618.359,0,.739,1.126,1.109,1.872"/>
          <path class="cls-29" d="M2107.01,852.413c1.851-1.538.743-8.861-1.116-16.568-.739-3.85-3.709-5.391-7.784-9.625-4.086-4.248-5.56-4.248-8.154-5.391-2.22-.785-7.411-.785-10.008-1.932-2.224-1.161-8.157-.394-13.728.387-7.422,1.151-11.49.764-17.057,3.853-5.56,3.083-10.005,6.552-11.866,12.331-1.478,4.233-4.082,9.625-2.967,25.812.75,16.174,3.72,13.094,3.72,13.094,0,0,4.082-6.162,6.676-2.312,0,0-.373-8.481-1.112-13.478-.373-4.628,0-10.406,1.862-17.342,0,0,17.05,6.556,32.998,6.556,11.127,0,25.587-1.158,25.964-3.85l2.586,8.463h-.014Z"/>
          <path class="cls-12" d="M2085.326,871.089c2.277,6.091.387,4.297,1.524,8.231M2048.432,886.46c0,2.854-2.28,2.143-3.811,2.143"/>
          <path class="cls-12" d="M2107.964,865.423c-3.35-2.706-9.667-.774-12.644.387-5.571,2.696-2.601,8.502-.746,13.904.746,2.696,3.727,6.552,1.865,9.259-1.485,3.086-2.601,1.555-5.951,1.935.38-1.165-2.967,0-4.079,0-2.231-.38-3.343,1.534-5.208.771-2.22-1.158-1.854-4.631-1.119-6.563M2080.448,868.119c0-1.531-4.821-3.076-10.029-3.473-8.175-.387-8.921.394-15.241,5.018M2097.185,903.637c-1.482-2.309-3.72-3.477-7.809-1.538,0-.774-5.571-1.541-5.571-1.541-2.97,0-4.828,1.147-7.805,2.696M2096.418,905.572c-3.35-2.316-11.898-.76-20.449-.76M2076.722,907.884c6.32,1.943,12.644,3.097,18.957,0"/>
          <path class="cls-37" d="M2107.615,869.305c-2.741-.479-3.917-4.409-12.134,1.475-4.307,2.938,7.052,6.869,5.483,6.377,4.698.975,6.267-2.446,6.658-5.402-.007-.978.778-2.449-.007-2.449ZM2075.525,873.207c0-3.931-7.042-5.395-10.955-3.931-3.927,1.475-2.347.507-5.873,2.952,3.924.978,2.741,1.46,5.873,3.42,3.516,1.964,4.307,3.92,9.002.992,1.175-.507,2.734-2.446,3.125-4.413-.384.482-.778.978-1.172.978Z"/>
          <path class="cls-5" d="M2101.735,873.88c-1.686.021-3.069-1.27-3.093-2.886v-.084c0-1.851,1.168-3.34,3.093-3.34,1.541,0,2.71,1.489,2.71,3.34,0,1.489-1.168,2.97-2.71,2.97ZM2068.444,874.608c-1.545,0-2.71-1.471-2.71-3.34,0-1.855,1.534-2.956,3.09-2.956s2.71,1.101,2.71,2.956c0,1.872-1.154,3.34-3.09,3.34Z"/>
          <path class="cls-12" d="M1907.233,1069.286c2.277-2.586,3.811-3.695,6.852-4.797,2.284-1.094,5.328-2.569,7.619-3.681,2.667-1.478,6.475-1.837,8.759-3.315M1928.942,1067.08c1.147-.739,1.9-1.101,3.041-1.851,1.144-.359,2.664-.359,3.818-.736.38,0,.38-.739.757-.739,3.431-.366,6.859-1.847,9.136-4.779M2180.643,1025.051c-3.42,2.572-11.796,8.115-12.559,18.806-.764,5.525-3.818,11.05-3.818,11.05M2213.392,1026.54c-1.907,6.253-2.28,26.896-22.466,48.651M2209.577,997.772c1.527,4.058,3.428,7.742-.757,10.691M2154.743,1047.19c-4.188-9.22-17.134-8.484-17.134-17.324"/>
          <path class="cls-12" d="M2135.064,1045.406c1.126-10.768,3.375-16.906,1.492-32.667-.743-4.62-1.485-22.29,0-30.753,0,0-5.993,29.588,13.492,35.367M2023.4,1064.637c0-14.998-3.371-23.462-3.371-23.462-4.494-21.128,4.124-29.205.746-34.585-2.991-4.61-7.496-14.228-1.499-33.449,0,0-10.487,39.604,16.49,39.604,27.347,0,26.224-10.381,26.224-10.381"/>
          <path class="cls-12" d="M2135.975,982.235c0,7.953,0,31.46-33.86,31.46-10.262,0-21.301-7.204-27.378-12.13M2066.351,991.321c1.144-7.204,1.144-16.293,1.144-25.774M2118.475,952.703c-9.125-1.151-16.364-2.273-33.484-2.273M2083.851,926.887c-1.907,8.347,1.137,21.607-14.456,23.504M2053.038,923.875c2.284,6.07,2.284,12.127,3.044,16.293M2055.322,950.43c-6.472,0-18.64-4.174-33.853-1.14M2016.134,1034.152c-3.041,6.067-3.808,14.02-13.313,23.113M2121.505,1014.821c-.764,4.93,6.468,21.22,1.144,34.494-4.944,13.249-4.188,28.416,4.188,41.296M2102.097,1019.773c3.041,6.056,8.368,12.127,9.512,17.43M2086.916,1031.132c0,3.794,10.262,32.587,17.5,40.543,0,0-13.313,5.303-11.405,24.633M2065.605,1017.876c0,4.927.76,6.07-3.428,9.086M2053.038,1026.962c-4.934,6.063-20.534,24.26-17.11,34.487M2063.321,1037.202c-1.144,3.794-1.144,23.5,2.284,33.354M2073.568,1069.792c4.188,0,10.269,3.03,11.412,10.23M2052.288,1068.635c-4.177-1.137-12.542,6.056-12.542,26.53M1981.136,1056.906c7.988,2.27,11.412,6.45,9.121,4.17,2.539,2.064,5.21,3.962,7.995,5.68"/>
          <path class="cls-5" d="M2118.039,1010.775c-2.298,0-4.223-1.404-4.223-3.157,0-1.411,1.914-2.808,4.223-2.808,1.928,0,3.857,1.397,3.857,2.815,0,1.742-1.921,3.16-3.857,3.16v-.011ZM2030.734,1011.844c-1.928,0-3.853-1.394-3.853-3.157,0-1.735,1.918-2.791,3.853-2.791,2.294,0,4.223,1.056,4.223,2.791,0,1.767-1.925,3.16-4.223,3.16v-.004Z"/>
          <path class="cls-1" d="M2150.506,1166.69c-4.494-29.476-18.366-54.035-18.739-56.305,0,0-14.238,3.026-38.977,5.286-24.359,2.639-31.109,1.513-42.352.743-10.87-1.123-25.109-3.009-25.109-3.009,0,0-4.505,9.062-4.874,18.134-1.126,19.27-8.235,102.788-8.988,125.082,0,0-2.995,13.221-2.995,45.716,0,35.535-9.748,107.701-9.748,146.256l9.744,1.893s53.219,4.163,53.219-3.019c0-7.925,2.995-100.515-4.87-156.443,0,0,1.872-10.958,4.87-20.411,2.995-9.076,16.117-37.415,16.117-43.453,0,0,20.981,59.69,22.107,69.913,1.126,9.442,4.124,142.452,6.003,153.424,0,0,30.359,23.426,34.487,25.7,4.114,1.893,33.35-12.479,34.1-16.251,1.126-4.152-2.998-49.133-16.863-123.206-5.25-26.453-2.249-31.344-2.249-38.534s-.38-102.028-4.87-131.504l-.014-.011Z"/>
          <path class="cls-12" d="M2100.619,1297.912c2.245,8.287,5.993,16.188,13.102,21.47M2123.842,1120.942c1.116,4.892,8.235,27.097,26.207,40.279M2097.639,1125.081c4.121,13.182,20.214,83.965,23.222,167.923M2121.963,1319.372c.753,7.9,4.867,66.644,5.993,76.8M2130.943,1407.468c1.876,4.135,10.103,38.393,10.103,68.896M2022.383,1343.46c.753,7.151,3.755,57.973-13.098,103.527M2077.401,1128.857c1.122,8.277,2.991,61.745,2.991,65.884s-5.996,10.163-8.988,11.3c0,0,5.993,1.886,7.115,22.212M2093.518,1180.436c1.133,6.391,7.115,31.626,11.24,41.792M2056.462,1128.118s-17.972,3.765-19.091,0c0,0-5.993,109.196-14.228,169.795M2064.299,1142.029c0,7.158,2.245,60.996,2.245,60.996M2057.567,1210.925s-7.105,10.156-5.243,15.044M2117.841,1122.086c-3.702,1.155-7.449,2.158-11.233,3.005M2087.517,1131.116c1.133,3.009,2.245,16.944,2.245,16.944M2057.563,1291.884c-2.242,3.009-5.243,7.161-2.991,16.191"/>
          <path class="cls-16" d="M2135.972,1109.991s0-11.465-4.54-17.205c0,0-12.869,2.52-31.049,4.307-18.552,1.788-33.315,3.227-46.955,1.788-13.636-1.425-27.653-4.645-27.653-4.645,0,0-3.783,16.842-1.879,19.348,0,0,14.766,2.864,31.038,3.579,16.67,1.07,44.305-1.436,53.771-2.85,12.503-1.446,23.483-3.596,27.266-4.311v-.01Z"/>
          <path class="cls-13" d="M2121.899,1111.856l-2.196-19.066-3.681.387.739,19.869,5.138-1.189ZM2042.214,1095.964l-.369,21.459-4.406-.806.363-21.853,4.413,1.2ZM2098.765,1095.964l1.464,20.657h-2.569l-2.576-20.657h3.681Z"/>
          <path class="cls-20" d="M2163.586,1468.981c1.126,4.972,3.002,11.863,3.762,20.674,0,1.911,1.872,12.25-3.765,12.626-4.135.387-5.264-10.723-5.264-10.723,0,0,3.769,12.25-1.126,13.784-6.767,1.517-7.513-13.401-7.513-13.401.753,4.216,5.264,14.935-1.133,16.065-6.764,1.161-8.646-14.544-8.646-14.544,0,0,5.638,15.706-1.126,16.082-6.394.377-6.394-15.308-6.394-15.308,0,0,3.392,18.757-5.634,17.229-4.881-.767-6.018-7.281-7.144-11.106-1.503-5.736-4.888-13.007-.757-24.876,3.002-8.805,1.876-11.099,1.876-11.099,0,0,10.532,8.041,18.802,13.394,3.765,2.294,24.074-8.801,24.074-8.801l-.01.004ZM2053.781,1452.501c1.876-1.154,1.499,6.894,2.252,10.709.38,3.836-.757,12.253-13.541,11.493-12.398-1.158-24.816-3.832-32.706-1.921-7.904,2.298-19.552,2.682-25.953,2.682s-10.536-.76-13.527-1.921c-2.639-1.133-8.28,1.545-10.902,1.545-2.639,0-6.771-4.216-6.394-6.897.377-4.98,4.877-4.98,11.282-5.356,6.018-.764,14.287-1.921,18.415-3.449,4.142-1.534,11.659-5.743,21.062-7.654,0,0,18.046.771,21.797.771,3.773,0,25.953,1.14,28.216,0h0Z"/>
          <path class="cls-4" d="M2237.416,994.077c1.928.795,7.344-7.865,1.928-11.799,0,0-1.928-7.478-8.111-7.872,0,0-5.018-7.478-12.37-6.306,0,0-8.111-5.898-11.194-5.493-3.48.774-11.205,8.65-11.595,11.412-.387,2.351,0,7.08,1.928,9.438,2.319,1.974,3.875-.401,4.254-3.945,0,0-1.541,5.919,3.083,8.664,4.635,2.748,4.254.387,4.635-2.745,0,0,1.165,6.289,4.254,7.474,3.086,1.172,5.018-1.58,7.348-1.58,0,0-3.875,3.15-1.161,5.12,2.706,2.358,5.789,1.172,7.728-.405,2.316-1.566,1.158-6.683,9.266-1.971l.008.007Z"/>
          <path class="cls-38" d="M2202.978,980.071c1.925-6.253,8.498-11.398,15.47-10.3M2210.319,985.603c.771-1.481,1.158-2.949,2.319-4.423,3.48-5.511,11.212-5.511,17.405-6.623M2220.359,990.737c2.322-1.475,3.097-4.043,5.423-5.134,3.875-1.855,8.126-3.315,12.387-2.583"/>
          <path class="cls-46" d="M2201.62,967.863c-3.431,2.696-7.035,6.771-7.298,8.587-.394,2.294-.032,6.883,1.914,9.185,2.108,1.735,3.639-.067,4.195-2.942-.229,1.742-.274,5.514,3.227,7.531,4.673,2.671,4.283.355,4.673-2.713,0,0,1.189,6.162,4.307,7.306,3.111,1.151,5.071-1.531,7.422-1.531,0,0-3.931,3.03-1.197,4.944,2.727,2.294,5.828,1.165,7.774-.355,2.337-1.545,1.151-6.489,9.347-1.883,1.017.394,3.076-1.707,3.945-4.357l-29.444-20.822-8.864-2.949Z"/>
          <path class="cls-20" d="M2197.981,973.479c-5.62,10.374,1.872,16.599,4.357,10.526-.721,9.579,6.011,9.199,8.555,6.172,2.456,10.093,6.848,5.606,10.881,4.677-4.575,9.199,5.543,6.468,7.936,4.346,3.459-5.469,5.075-1.112,7.622-1.672l4.357-5.008M2211.832,969.623c-6.313,3.6-9.403,8.587-9.491,14.865M2220.552,975.651c-6.317,3.596-9.403,8.583-9.491,14.861M2231.293,983.481c-6.313,3.603-6.605,6.918-9.329,11.353"/>
          <path class="cls-51" d="M1800.208,1675.149c84.855.753,135.016-29.813,162.542-48.077,64.487-42.852,78.067-44.34,88.631-43.605,12.067,1.133,29.778,5.222,30.542,15.663,1.133,16.026-25.267,23.103-40.357,23.103-15.456,0-55.816-10.064-55.816-10.064l-10.568,7.091c7.168,3.357,89.761,30.553,105.6,4.846,16.205-26.09,32.432-68.21,32.432-68.21,0,0-18.102-32.048-58.462-32.048-40.726,0-80.326,25.344-106.716,44.337-26.411,19.01-59.588,45.097-147.843,45.097s-121.805-26.087-148.198-45.097c-26.39-18.999-66-44.34-106.346-44.34-40.723,0-58.828,32.048-58.828,32.048,0,0,16.212,42.12,32.428,68.21,15.836,25.703,98.435-1.496,105.589-4.849l-10.181-7.091s-40.726,10.064-55.819,10.064c-15.463,0-41.863-7.077-40.73-23.099.757-10.438,18.475-14.541,30.545-15.66,10.564-.736,24.141.757,88.624,43.605,27.54,18.26,77.697,47.708,162.925,48.077"/>
          <path class="cls-51" d="M1662.127,1576.059s0-7.147-1.154-17.645c-1.524-13.513-9.53-16.891-16.012-15.009-4.198,1.481-12.584,11.634-12.584,11.634v.377c-3.806-2.598-7.756-4.978-11.831-7.13,3.054-3.382,20.601-13.886,24.795-13.886,3.822,0,56.456,21.012,73.232,35.272,4.198,3.762,7.256,27.03,4.955,34.526-28.223-7.126-46.529-17.631-61.415-27.769v-.377M1636.93,1628.623s-11.447,11.25-11.821,31.9c-.387,24.394,17.546,25.527,29.37,25.147,14.119-.384,25.552-8.256,25.179-34.152,0,0-23.279-9.765-42.732-22.898M1937.926,1576.059s.384-7.147,1.531-17.645c1.51-13.513,9.146-16.891,15.632-15.009,4.198,1.481,12.588,11.634,12.588,11.634v.377c3.799-2.6,7.743-4.98,11.813-7.13-3.041-3.382-20.583-13.886-24.408-13.886-4.191,0-56.826,21.012-73.612,35.272-3.825,3.762-6.873,27.03-4.958,34.526,28.61-7.126,46.529-17.631,61.415-27.769v-.377M1963.084,1628.623s11.444,11.25,11.828,31.9c.76,24.394-17.557,25.527-29.37,25.147-14.122-.384-25.179-8.256-25.179-34.152,0,0,23.271-9.765,42.729-22.898"/>
          <path class="cls-41" d="M1611.628,1611.443s-40.543,10.29-55.696,10.29c-15.53,0-42.06-7.225-40.923-23.62.764-10.67,18.57-14.85,30.697-15.994,9.09-.774,20.84.377,65.93,29.324M1984.888,1611.443s40.54,10.29,56.083,10.29c15.157,0,41.673-7.225,40.536-23.62-.75-10.67-18.559-14.85-30.686-15.994-9.097-.774-20.847.377-65.933,29.324M1661.279,1575.236c-4.17-3.044-8.337-6.102-12.134-9.136-5.68-4.198-11.367-8.013-17.43-12.194,0,0,8.333-10.67,12.496-11.817,6.443-2.28,14.396,1.133,15.903,14.854,1.147,10.67,1.147,18.303,1.147,18.303M1633.608,1682.697c7.207,4.191,15.157,3.818,20.087,3.431,14.023-.384,25.386-8.382,25.01-34.666,0,0,17.423,8.762,45.846,15.621,0,0,4.547,5.708,5.3,17.134,1.147,9.537-5.303,19.809-12.876,19.059,0,0-39.79-7.242-64.033-11.419-14.023-2.667-19.33-9.153-19.33-9.153M1935.245,1575.235c4.16-3.044,8.333-6.102,12.493-9.136,5.307-4.198,10.987-8.013,17.05-12.194,0,0-8.33-10.67-12.5-11.817-6.443-2.28-14.02,1.133-15.53,14.854-1.144,10.666-1.52,18.299-1.52,18.299M1962.876,1682.697c-7.2,4.191-15.157,3.818-20.083,3.431-14.02-.384-25.007-8.382-25.007-34.666,0,0-17.43,8.762-45.477,15.621,0,0-4.916,5.708-5.68,17.134-.753,9.537,5.69,19.809,12.887,19.059,0,0,40.163-7.242,64.036-11.419,14.02-2.667,19.323-9.153,19.323-9.153"/>
          <path class="cls-10" d="M1801.971,1676.908c84.859.746,135.019-29.821,162.545-48.074,64.487-42.852,78.067-44.337,88.624-43.598,12.074,1.115,29.803,5.219,30.542,15.649,1.14,16.022-25.26,23.096-40.353,23.096-15.459,0-55.812-10.047-55.812-10.047l-10.561,7.084c7.168,3.357,89.75,30.556,105.589,4.835,16.219-26.083,32.428-68.196,32.428-68.196,0,0-18.099-32.055-58.455-32.055-40.726,0-80.326,25.351-106.726,44.354-26.396,19.006-59.574,45.09-147.832,45.09s-121.809-26.09-148.202-45.09c-26.396-19.003-66.007-44.354-106.35-44.354-40.726,0-58.828,32.059-58.828,32.059,0,0,16.209,42.109,32.432,68.196,15.836,25.71,98.435-1.485,105.593-4.835l-10.177-7.087s-40.74,10.047-55.812,10.047c-15.47,0-41.866-7.063-40.74-23.096.76-10.441,18.479-14.534,30.553-15.66,10.55-.739,24.13.757,88.617,43.601,27.544,18.267,77.697,47.711,162.925,48.077v.004Z"/>
          <path class="cls-10" d="M1613.398,1613.766s-40.554,10.371-55.696,10.371c-15.537,0-42.063-7.295-40.934-23.807.764-10.758,18.57-14.984,30.697-16.124,9.09-.778,20.84.38,65.937,29.56h-.003ZM1986.637,1613.766s40.55,10.371,56.087,10.371c15.157,0,41.676-7.295,40.543-23.807-.76-10.758-18.559-14.984-30.683-16.124-9.093-.778-20.85.384-65.93,29.56h-.018ZM1663.049,1577.269c-4.17-3.072-8.337-6.155-12.137-9.209-5.669-4.233-11.36-8.076-17.43-12.292,0,0,8.344-10.758,12.507-11.912,6.443-2.301,14.393,1.144,15.903,14.984,1.154,10.737,1.154,18.433,1.154,18.433l.003-.003Z"/>
          <path class="cls-10" d="M1664.615,1577.818s0-7.14-1.175-17.645c-1.545-13.513-9.695-16.891-16.29-15.009-4.272,1.496-12.813,11.634-12.813,11.634v.377c-3.875-2.594-7.889-4.974-12.025-7.13,3.1-3.382,20.952-13.886,25.225-13.886,3.888,0,57.431,21.012,74.506,35.282,4.272,3.765,7.372,27.023,5.039,34.533-28.719-7.147-47.342-17.652-62.491-27.776M1638.982,1630.383s-11.634,11.25-12.025,31.904c-.391,24.38,17.852,25.52,29.88,25.144,14.358-.38,25.988-8.252,25.619-34.167,0,0-23.676-9.762-43.467-22.898l-.007.017Z"/>
          <path class="cls-10" d="M1649.944,1634.694s-8.562,10.019-9.994,26.449c-.711,12.83,6.785,20.037,16.423,19.235,13.562-.785,18.925-21.632,12.493-33.259l-18.922-12.426Z"/>
          <path class="cls-10" d="M1636.381,1684.464c7.2,4.191,15.136,3.811,20.062,3.431,14.002-.391,25.344-8.386,24.982-34.673,0,0,17.412,8.762,45.794,15.621,0,0,4.547,5.711,5.293,17.148,1.144,9.523-5.293,19.809-12.855,19.045,0,0-39.744-7.239-63.959-11.423-14.013-2.675-19.313-9.146-19.313-9.146l-.004-.003ZM1937.652,1576.999c4.167-3.044,8.323-6.102,12.486-9.136,5.303-4.202,10.972-8.013,17.036-12.197,0,0-8.323-10.67-12.493-11.813-6.429-2.287-13.999,1.13-15.508,14.865-.662,6.081-1.165,12.178-1.51,18.285h-.007l-.003-.004Z"/>
          <path class="cls-10" d="M1938.876,1577.818s.391-7.14,1.559-17.645c1.545-13.513,9.322-16.891,15.934-15.009,4.279,1.496,12.827,11.634,12.827,11.634v.377c3.884-2.595,7.908-4.975,12.053-7.13-3.111-3.382-20.991-13.886-24.887-13.886-4.279,0-57.924,21.012-75.034,35.282-3.899,3.765-7.007,27.023-5.053,34.533,29.159-7.147,47.426-17.652,62.601-27.776M1964.52,1630.383s11.666,11.25,12.053,31.904c.778,24.38-17.895,25.52-29.944,25.144-14.386-.38-25.654-8.252-25.654-34.167,0,0,23.711-9.762,43.545-22.898v.017Z"/>
          <path class="cls-10" d="M1953.519,1634.694s8.597,10.019,10.033,26.449c1.077,12.83-6.813,20.037-16.483,19.235-13.605-.785-18.619-21.632-12.531-33.259l18.982-12.426Z"/>
          <path class="cls-10" d="M1967.17,1684.091c-7.369,4.269-15.512,3.882-20.555,3.494-14.337-.398-25.577-8.541-25.577-35.296,0,0-17.845,8.917-46.522,15.899,0,0-5.039,5.814-5.817,17.458-.774,9.695,5.817,20.164,13.186,19.386,0,0,41.096-7.369,65.507-11.627,14.354-2.724,19.781-9.308,19.781-9.308l-.003-.007Z"/>
          <path class="cls-8" d="M1723.204,1676.321s12.517,9.66-2.657,21.713M1685.648,1669.881l38.323,17.69M1692.067,1679.125l28.064,12.855M1701.948,1671.506l21.241,10.057M1877.212,1676.32s-12.904,9.66,2.273,21.713M1914.387,1669.88l-38.316,17.69M1908.31,1679.125l-28.068,12.855M1898.094,1671.506l-20.868,10.057"/>
          <path class="cls-31" d="M1574.597,1559.745c.542.883.89,1.805,1.059,2.748.137.964.102,2.041-.113,3.23-.542,2.822-2.045,4.934-4.49,6.391-2.453,1.45-5.265,1.847-8.375,1.249-1.474-.275-2.896-.781-4.212-1.499-1.236-.627-2.39-1.405-3.435-2.316-.415.5-.855.971-1.292,1.467l-1.816-.348c.584-3.674,1.161-7.351,1.767-11.025.595.113,1.214.222,1.841.355.113,1.422.345,2.713.647,3.91.285,1.193.781,2.326,1.432,3.452.619,1.028,1.401,1.921,2.375,2.646.947.721,2.122,1.232,3.516,1.489,1.045.208,1.981.243,2.833.109.753-.089,1.473-.357,2.101-.781.57-.412,1.056-.929,1.429-1.555.388-.698.651-1.457.778-2.245.237-1.275.095-2.591-.408-3.786-.503-1.253-1.464-2.287-2.787-3.135-1.041-.662-2.088-1.313-3.143-1.953-1.042-.609-2.059-1.267-3.047-1.96-1.658-1.158-2.889-2.463-3.628-4.008-.76-1.499-.957-3.308-.553-5.433.218-1.175.7-2.284,1.404-3.248.693-.982,1.584-1.756,2.667-2.418,1.066-.637,2.245-1.066,3.473-1.26,1.286-.206,2.599-.184,3.878.063,1.478.278,2.791.764,3.875,1.439,1.08.686,2.069,1.39,2.917,2.192l1.225-1.344c.612.113,1.207.225,1.823.352l-1.83,10.652c-.612-.123-1.228-.232-1.851-.359-.094-1.242-.243-2.48-.447-3.709-.212-1.151-.569-2.271-1.063-3.333-.472-.985-1.152-1.856-1.992-2.555-.827-.7-1.946-1.168-3.326-1.436-1.355-.295-2.771-.05-3.948.683-1.179.746-1.914,1.738-2.161,3.062-.26,1.372-.144,2.583.338,3.621.472,1.052,1.281,1.967,2.418,2.801,1.003.746,2.024,1.387,3.023,1.985.992.595,1.932,1.193,2.861,1.83.83.553,1.65,1.154,2.393,1.826.718.658,1.351,1.383,1.833,2.154M1620.985,1566.276c-.584-.267-1.186-.493-1.802-.676-.689-.257-1.423-.37-2.157-.331-.63.053-1.288.521-1.988,1.379-.841,1.063-1.584,2.199-2.217,3.399-2.266,4.131-4.554,8.263-6.816,12.405-.869,1.573-1.953,2.762-3.266,3.565-1.298.809-2.713,1.27-4.198,1.418-1.419.147-2.853.051-4.24-.285-1.272-.326-2.498-.807-3.653-1.432-1.724-.954-3.16-2.016-4.262-3.223-1.105-1.221-1.935-2.446-2.404-3.723-.481-1.199-.687-2.49-.605-3.779.07-1.211.415-2.386,1.003-3.445l9.276-16.874c.227-.41.369-.861.419-1.327.007-.38-.165-.855-.482-1.379-.291-.442-.642-.842-1.042-1.189-.475-.387-.848-.7-1.189-.915l.781-1.432c4.015,2.221,7.999,4.434,12.007,6.644l-.788,1.418c-.494-.233-1.003-.433-1.524-.598-.465-.183-.947-.32-1.439-.408-.545-.081-1.003,0-1.358.31-.373.297-.683.665-.911,1.084-2.886,5.261-5.782,10.515-8.664,15.772-.436.808-.785,1.659-1.042,2.541-.308.934-.412,1.922-.306,2.9.109,1.045.521,2.013,1.165,2.984.651.971,1.777,1.893,3.35,2.762,1.475.823,2.861,1.295,4.124,1.39,1.26.074,2.393-.074,3.396-.521.901-.384,1.721-.933,2.418-1.626.651-.651,1.207-1.39,1.654-2.196l6.429-11.708c.816-1.492,1.39-2.769,1.686-3.846.31-1.063.32-1.826.074-2.372-.271-.609-.795-1.232-1.496-1.858-.536-.501-1.11-.958-1.717-1.369l.781-1.418c3.927,2.164,7.851,4.339,11.782,6.521l-.778,1.432M1637.673,1595.28c.503,1.042.795,2.178.816,3.385.021,1.214-.327,2.47-1.07,3.772-.743,1.306-1.679,2.277-2.826,2.921-1.111.63-2.35.999-3.625,1.08-1.284.1-2.575-.02-3.818-.355-1.327-.345-2.601-.866-3.79-1.548l-13.503-7.809.816-1.418c.334.172.82.373,1.499.637.669.274,1.168.426,1.492.468.457.067.922-.021,1.323-.25.401-.261.727-.621.947-1.045,3.882-6.757,7.763-13.538,11.641-20.298.239-.407.398-.856.468-1.323.012-.492-.145-.974-.443-1.365-.306-.458-.671-.874-1.084-1.239-.443-.387-.802-.704-1.133-.922.26-.464.542-.936.809-1.404,4.381,2.527,8.766,5.06,13.158,7.608,1.02.591,1.932,1.246,2.762,1.978.802.746,1.488,1.605,2.045,2.59.521.926.834,1.939.862,3.023.039,1.087-.243,2.221-.894,3.361-.507.915-1.213,1.705-2.066,2.312-.795.576-1.711.963-2.678,1.133-.948.178-1.916.215-2.875.113-1.048-.088-2.081-.306-3.076-.647l-.113.187c.778.577,1.573,1.298,2.407,2.185.834.911,1.499,1.865,1.957,2.872h-.01ZM1635.248,1588.214c.841-.292,1.534-.704,2.111-1.27.651-.669,1.214-1.422,1.675-2.238.88-1.555,1.151-3.023.802-4.406-.334-1.404-1.446-2.611-3.29-3.681-.538-.309-1.079-.613-1.622-.911-.669-.373-1.225-.665-1.64-.883l-6.246,10.874,2.534,1.457c1.109.644,2.118,1.045,3.065,1.221.872.181,1.777.123,2.618-.169l-.007.007ZM1632.88,1598.841c.933-1.527,1.175-3.375.672-5.092-.51-1.742-1.83-3.195-3.948-4.423-.718-.419-1.443-.83-2.171-1.232-.595-.32-1.049-.549-1.351-.711-1.914,3.34-3.804,6.644-5.711,9.959-.478.751-.506,1.703-.074,2.481.436.82,1.263,1.573,2.499,2.277,1.981,1.158,3.846,1.481,5.567.933,1.724-.56,3.22-1.928,4.518-4.188v-.004ZM1706.104,1615.627c-.607-.209-1.228-.374-1.858-.493-.709-.181-1.447-.22-2.171-.113-.619.113-1.228.651-1.854,1.573-.726,1.144-1.35,2.35-1.865,3.603l-5.553,13.028c-.707,1.654-1.671,2.949-2.886,3.882-1.192.908-2.575,1.533-4.043,1.83-1.397.284-2.833.325-4.244.123-1.302-.19-2.575-.541-3.79-1.045-1.798-.781-3.329-1.7-4.554-2.791-1.221-1.109-2.157-2.242-2.766-3.463-.592-1.145-.922-2.407-.968-3.695-.05-1.216.172-2.428.651-3.547l7.559-17.711c.188-.424.288-.881.296-1.344-.081-.49-.293-.95-.612-1.33-.34-.409-.732-.772-1.165-1.08-.507-.338-.908-.616-1.263-.799.215-.496.422-1.006.633-1.492l12.598,5.419c-.222.493-.426.996-.648,1.485-.514-.18-1.038-.33-1.569-.447-.482-.127-.974-.214-1.471-.26-.56-.039-1.003.095-1.327.436-.338.335-.607.733-.792,1.172-2.354,5.518-4.709,11.032-7.056,16.557-.359.841-.63,1.717-.806,2.615-.207.965-.207,1.963,0,2.928.218,1.028.707,1.953,1.453,2.854.75.897,1.95,1.71,3.611,2.418,1.555.679,2.988.999,4.258.971,1.246-.049,2.368-.31,3.308-.859.894-.517,1.675-1.123,2.259-1.847.581-.718,1.07-1.51,1.432-2.354,1.745-4.107,3.494-8.189,5.24-12.285.669-1.573,1.105-2.893,1.302-3.991.183-1.101.134-1.858-.172-2.368-.334-.584-.908-1.147-1.671-1.7-.581-.444-1.195-.843-1.837-1.193l.633-1.489,12.359,5.317c-.224.49-.44.984-.648,1.481M1741.675,1657.585c-4.645-1.344-9.308-2.706-13.957-4.054l.447-1.57c.517.127,1.172.26,1.995.412.806.127,1.401.169,1.749.106.479-.124.923-.359,1.295-.686.342-.347.586-.78.704-1.253l6.56-22.782c-.112-.036-.226-.066-.341-.091-6.106,7.886-12.352,15.656-18.468,23.553-.366-.102-.725-.218-1.109-.32-.743-10.079-1.682-20.143-2.425-30.208-.095-.035-.193-.063-.292-.084-1.791,6.232-3.593,12.458-5.377,18.7-.521,1.791-.799,3.185-.837,4.219-.053,1.017.12,1.784.461,2.337.236.408.834.887,1.784,1.475.936.588,1.559.915,1.869,1.024l-.45,1.566-12.76-3.695c.148-.531.306-1.059.457-1.573.686.123,1.429.229,2.21.274.781.063,1.404-.004,1.907-.232.633-.271,1.161-.771,1.622-1.591.433-.795.936-2.185,1.51-4.181l4.61-16.029c.267-.922.373-1.703.32-2.365-.036-.607-.222-1.196-.542-1.714-.379-.553-.871-1.02-1.443-1.369-.588-.387-1.225-.694-1.893-.915l.443-1.566,10.758,3.125c.707,8.72,1.608,17.433,2.305,26.157,4.416-5.835,8.96-11.581,13.383-17.423.493-.644.964-1.32,1.39-2.069.296-.475.552-.971.774-1.485,3.428.996,6.876,1.995,10.297,2.995l-.447,1.559c-.54-.113-1.087-.197-1.636-.25-.502-.071-1.01-.101-1.517-.088-.494.004-.961.222-1.281.598-.296.373-.516.801-.648,1.26l-6.507,22.585c-.139.442-.177.91-.113,1.369.084.405.338.802.76,1.225.229.229.669.496,1.316.809.654.338,1.158.553,1.562.693-.155.507-.31,1.035-.461,1.555M1775.461,1647.281c.855.764,1.573,1.696,2.055,2.808.482,1.112.669,2.404.479,3.882-.15,1.374-.659,2.685-1.475,3.801-.792,1.002-1.789,1.822-2.924,2.407-1.154.588-2.393.982-3.67,1.165-1.355.187-2.713.211-4.1.039-5.152-.651-10.297-1.306-15.449-1.95l.204-1.626c.369.025.904.025,1.633,0,.714-.007,1.246-.063,1.562-.148.448-.113.844-.377,1.122-.746.265-.393.427-.847.471-1.32l2.907-23.247c.064-.467.039-.943-.074-1.401-.184-.458-.514-.842-.94-1.091-.46-.301-.957-.543-1.478-.718-.567-.183-1.01-.345-1.397-.412l.201-1.619,15.076,1.907c1.158.151,2.252.398,3.315.767,1.024.373,1.985.887,2.871,1.584.827.647,1.524,1.471,1.971,2.453.447.996.605,2.133.447,3.442-.189,2.052-1.305,3.905-3.03,5.032-.809.527-1.688.937-2.611,1.218-.999.324-2.037.528-3.086.605l-.035.204c.929.236,1.943.584,3.065,1.084,1.098.503,2.08,1.119,2.889,1.872v.007ZM1770.503,1641.707c.658-.591,1.154-1.249,1.471-1.992.341-.876.567-1.791.669-2.724.225-1.77-.091-3.213-.95-4.367-.855-1.165-2.33-1.844-4.455-2.111-.609-.078-1.219-.151-1.83-.218l-1.89-.176c-.521,4.149-1.031,8.301-1.559,12.45.978.116,1.943.239,2.9.362,1.098.165,2.22.144,3.311-.067.926-.208,1.703-.591,2.33-1.165l.004.007ZM1772.414,1652.43c.232-1.914-.222-3.547-1.337-4.955-1.147-1.411-2.921-2.242-5.342-2.548-.826-.108-1.653-.206-2.481-.292-.686-.074-1.186-.109-1.538-.137-.482,3.815-.95,7.608-1.425,11.412-.147.876.194,1.764.89,2.316.718.581,1.784.957,3.185,1.13,2.273.299,4.107-.123,5.483-1.306,1.38-1.193,2.235-3.037,2.562-5.613l.004-.007ZM1816.684,1662.698h-8.875c-1.932-3.079-3.734-5.666-5.286-7.914-1.591-2.228-3.329-4.469-5.173-6.855h-3.368v10.339c0,.524.099,1.006.253,1.394.169.412.538.728,1.098.947.271.113.764.197,1.457.299.7.084,1.288.137,1.763.162v1.636h-13.9v-1.636c.366-.025.897-.088,1.626-.162.697-.077,1.179-.187,1.46-.299.428-.166.786-.474,1.014-.873.226-.456.328-.963.296-1.471v-23.571c0-.521-.067-1.006-.222-1.429-.169-.405-.521-.721-1.098-.933-.489-.176-.993-.306-1.506-.387-.519-.108-1.044-.18-1.573-.215v-1.629h15.185c1.386,0,2.688.123,3.92.408,1.228.306,2.319.75,3.308,1.383.95.623,1.735,1.387,2.294,2.389.567.985.855,2.175.855,3.582,0,1.27-.194,2.358-.57,3.329-.384.95-.971,1.805-1.724,2.502-.679.683-1.534,1.207-2.499,1.707-1.034.505-2.111.919-3.216,1.239,1.598,2.143,2.981,3.906,4.054,5.37,1.045,1.453,2.403,3.202,3.938,5.3.894,1.302,2.09,2.368,3.484,3.111.387.218.901.348,1.499.454.612.113,1.116.165,1.51.187-.007.535-.007,1.08-.007,1.629l.003.007ZM1804.494,1638.413c0-1.967-.595-3.512-1.71-4.705-1.13-1.158-2.759-1.724-4.846-1.724h-3.938v13.967h3.033c2.133,0,3.934-.644,5.331-2.02,1.401-1.376,2.136-3.188,2.136-5.514l-.007-.004ZM1854.559,1660.27l-13.64,1.045c-.039-.545-.074-1.094-.12-1.64,1.2-.158,2.185-.384,2.981-.686.764-.296,1.14-.595,1.116-.933-.011-.141-.056-.296-.084-.503-.032-.183-.091-.359-.176-.524-1.07-2.361-2.199-4.701-3.28-7.07l-11.511.869c-.352,1.112-.637,2.055-.831,2.879-.211.83-.408,1.573-.567,2.259-.13.538-.229,1.083-.296,1.633-.039.426-.07.764-.039,1.017.039.609.56,1.028,1.562,1.306.992.274,2.097.373,3.329.348l.123,1.636-12.352.94c-.039-.542-.074-1.091-.123-1.633.505-.077,1-.205,1.478-.384.517-.148,1.003-.384,1.439-.697.595-.468,1.028-.933,1.337-1.422.377-.598.662-1.249.848-1.932,1.302-4.205,2.85-8.907,4.42-14.154,1.566-5.24,3.065-9.896,4.286-13.985l1.851-.137c4.283,9.1,8.752,18.099,13.049,27.185.274.584.581,1.035.89,1.39.334.355.757.683,1.313.982.373.194.837.334,1.425.426.584.113,1.056.148,1.45.137.049.56.091,1.112.127,1.658l-.007-.01ZM1840.367,1647.985c-1.943-4.072-3.977-8.122-5.93-12.208-1.281,4.328-2.657,8.636-3.948,12.961l9.878-.753ZM1901.208,1622.271l-1.658.447c-.64-1.087-1.633-2.133-2.974-3.209-1.344-1.066-2.505-1.531-3.456-1.432-.561.085-1.118.19-1.671.317-.651.158-1.362.338-2.185.553l-5.314,1.453c1.137,4.212,2.266,8.432,3.407,12.63,1.207-.334,2.432-.672,3.646-.999,1.091-.299,1.946-.637,2.492-1.045.531-.384.964-.89,1.263-1.471.211-.422.359-1.01.415-1.767.063-.774.028-1.559-.106-2.326l1.671-.457c1.126,4.138,2.242,8.256,3.347,12.377-.546.148-1.116.299-1.675.457-.274-.735-.627-1.438-1.052-2.097-.507-.746-.954-1.27-1.351-1.555-.566-.432-1.255-.672-1.967-.686-.866,0-1.724.13-2.551.384l-3.642.996,2.924,10.832c.116.457.345.883.662,1.232.285.331.707.521,1.267.64.257.063.778.039,1.559-.039.774-.035,1.376-.137,1.756-.222l.426,1.577-13.753,3.748-.429-1.58c.447-.144,1.035-.366,1.756-.64.707-.281,1.182-.472,1.383-.647.371-.275.634-.671.743-1.119.091-.481.071-.977-.06-1.45l-6.134-22.694c-.13-.445-.33-.865-.595-1.246-.26-.317-.7-.517-1.284-.623-.576-.08-1.158-.106-1.738-.077-.577.007-1.154.07-1.717.187l-.426-1.584c8.301-2.259,16.617-4.515,24.89-6.774l2.126,7.9M1937.859,1619.47c1.203,3.012,2.379,6.028,3.582,9.033l-23.155,11.229-.707-1.475c.327-.187.781-.464,1.394-.859.581-.366.985-.672,1.172-.894.324-.338.518-.779.549-1.246-.003-.503-.131-.998-.373-1.439-3.364-7.003-6.728-14.009-10.1-21.016-.199-.428-.482-.812-.831-1.13-.395-.3-.889-.44-1.383-.391-.531-.018-1.062.033-1.58.151-.532.081-1.055.218-1.559.408-.222-.482-.475-.989-.7-1.471l12.496-6.063.704,1.478c-.489.271-.957.58-1.397.926-.428.294-.826.629-1.189.999-.384.325-.592.814-.56,1.316,0,.486.123.954.352,1.404l9.477,19.724c.429.894.806,1.584,1.151,2.034.282.429.711.743,1.207.869.419.116.975.042,1.647-.222.679-.222,1.58-.609,2.713-1.168.521-.243,1.031-.528,1.594-.82.549-.285,1.038-.616,1.499-.922.417-.311.812-.651,1.182-1.017.295-.265.515-.602.64-.978.25-.915.489-2.182.616-3.86.113-1.643.172-2.942.074-3.885.496-.232.992-.475,1.482-.707M1955.18,1587.183c2.068.589,3.997,1.585,5.676,2.928,1.862,1.52,3.431,3.368,4.638,5.451,1.316,2.238,2.118,4.466,2.492,6.707.343,2.139.255,4.325-.26,6.429-.491,1.983-1.373,3.848-2.594,5.486-1.237,1.684-2.81,3.092-4.62,4.135-1.971,1.165-3.991,1.904-6.102,2.133-2.122.225-4.135.109-6.098-.514-2.038-.608-3.931-1.624-5.564-2.988-1.79-1.466-3.305-3.239-4.473-5.236-1.257-2.077-2.111-4.371-2.52-6.764-.328-2.128-.249-4.299.232-6.398.5-2.006,1.397-3.892,2.636-5.543,1.242-1.689,2.766-3.037,4.578-4.114,1.81-1.097,3.826-1.811,5.923-2.097,2.024-.296,4.087-.169,6.06.373l-.004.011ZM1963.904,1608.86c.029-1.715-.229-3.423-.764-5.053-.623-1.876-1.452-3.677-2.474-5.37-1.04-1.79-2.275-3.46-3.681-4.98-1.182-1.261-2.569-2.311-4.103-3.107-1.333-.673-2.81-1.012-4.304-.989-1.45.007-2.924.468-4.346,1.306-1.58.943-2.741,2.101-3.41,3.512-.686,1.408-1.038,2.956-1.028,4.526.032,1.559.31,3.195.911,4.944.595,1.76,1.386,3.491,2.397,5.212,1.006,1.731,2.189,3.35,3.533,4.835,1.225,1.323,2.601,2.351,4.019,3.104,1.422.746,2.836,1.073,4.325,1.094,1.471,0,2.974-.422,4.497-1.323,1.355-.788,2.481-1.921,3.266-3.283.732-1.344,1.151-2.833,1.161-4.427h0ZM2004.69,1586.62c-2.407,1.717-4.832,3.445-7.239,5.152-3.333-1.387-6.31-2.446-8.861-3.368-2.586-.918-5.314-1.717-8.157-2.594-.929.651-1.833,1.306-2.762,1.957l5.954,8.435c.299.419.669.739,1.003.982.391.239.866.264,1.443.134.296-.063.732-.274,1.365-.605.63-.324,1.116-.623,1.524-.897l.943,1.341-11.335,8.073c-.317-.433-.633-.887-.95-1.327.299-.229.7-.584,1.239-1.07.387-.324.728-.693,1.02-1.101.255-.38.364-.838.31-1.292-.07-.499-.271-.971-.581-1.369-4.536-6.412-9.058-12.83-13.573-19.235-.274-.395-.614-.739-1.006-1.017-.369-.246-.845-.306-1.422-.137-1.007.307-1.969.746-2.861,1.306l-.947-1.337c4.124-2.938,8.252-5.866,12.377-8.812,1.07-.771,2.22-1.418,3.435-1.932,1.112-.468,2.291-.743,3.494-.806,1.112-.067,2.22.141,3.234.605,1.052.472,1.971,1.292,2.769,2.428.735,1.035,1.225,2.038,1.45,3.058.246,1.01.26,2.006.056,3.03-.169.95-.56,1.862-1.066,2.836-.549,1.017-1.192,1.979-1.921,2.875,2.551.83,4.694,1.457,6.412,2.024,1.686.584,3.811,1.218,6.264,2.045,1.481.544,3.071.719,4.635.51.443-.053.929-.246,1.485-.507.563-.246,1.01-.521,1.337-.721.306.45.633.897.936,1.344l-.004-.007ZM1980.771,1573.891c-1.14-1.612-2.527-2.527-4.11-2.843-1.598-.281-3.252.187-4.955,1.401l-3.22,2.294,8.052,11.405,2.492-1.774c1.742-1.232,2.826-2.819,3.164-4.74.352-1.943-.084-3.857-1.422-5.743h0ZM2031.787,1566.09c.904,3.072,1.812,6.155,2.734,9.22l-25.615,9.54c-.186-.507-.387-1.021-.567-1.531.572-.247,1.13-.525,1.671-.834.679-.37,1.13-.612,1.313-.809.334-.324.564-.741.658-1.196.049-.484-.024-.973-.211-1.422-2.713-7.323-5.405-14.636-8.118-21.973-.161-.432-.401-.83-.707-1.175-.296-.299-.743-.447-1.334-.507-.45-.046-1.038,0-1.731.091-.573.052-1.138.162-1.689.327-.186-.503-.387-1.024-.563-1.531l23.87-8.896,2.713,7.372c-.542.211-1.098.415-1.626.612-.686-1.006-1.77-1.904-3.157-2.773-1.443-.897-2.597-1.204-3.516-.996-.553.12-1.098.274-1.633.461-.658.222-1.358.461-2.168.757-1.615.598-3.224,1.204-4.835,1.805,1.485,4.04,2.995,8.097,4.48,12.134,1.158-.429,2.305-.862,3.487-1.298,1.101-.412,1.897-.809,2.344-1.232.45-.413.782-.939.961-1.524.18-.647.25-1.32.204-1.992-.028-.716-.124-1.427-.285-2.126.538-.197,1.084-.398,1.633-.605l4.424,11.982c-.549.215-1.101.412-1.633.609-.359-.716-.784-1.397-1.27-2.034-.538-.651-1.003-1.119-1.425-1.362-.575-.367-1.247-.548-1.928-.521-.813.07-1.612.267-2.368.584l-3.494,1.298c1.137,3.069,2.256,6.123,3.392,9.185.341.915.679,1.605,1.003,2.097.272.445.7.773,1.2.922.468.148,1.063.113,1.731-.053.686-.187,1.636-.486,2.829-.926.486-.19,1.105-.412,1.897-.7.668-.23,1.318-.511,1.943-.841.521-.271,1.077-.584,1.605-.95.524-.391.876-.728,1.003-1.084.422-.933.753-2.252.95-3.92.204-1.672.324-2.868.26-3.582.521-.208,1.035-.398,1.569-.598M2059.296,1543.469c1.682,1.348,3.072,3.023,4.089,4.927,1.066,2.03,1.795,4.286,2.126,6.845.346,2.38.238,4.804-.32,7.144-.515,2.105-1.446,4.085-2.738,5.824-1.211,1.643-2.752,2.956-4.522,4.012-1.797,1.051-3.79,1.725-5.856,1.981-2.287.303-4.427.187-6.443-.436-2.034-.612-3.864-1.517-5.426-2.861-1.63-1.364-2.97-3.04-3.941-4.93-1.093-2.049-1.801-4.28-2.09-6.584-.341-2.632-.222-5.025.317-7.211.531-2.087,1.457-4.053,2.727-5.792,2.505-3.345,6.263-5.527,10.409-6.046,2.093-.292,4.224-.158,6.264.394,1.97.534,3.809,1.466,5.405,2.738v-.004ZM2058.873,1566.846c.704-1.57,1.137-3.245,1.284-4.958.137-1.972.067-3.954-.208-5.912-.253-2.056-.74-4.076-1.45-6.021-.581-1.626-1.438-3.139-2.534-4.473-.968-1.141-2.195-2.033-3.579-2.601-1.43-.565-2.984-.742-4.505-.514-1.841.243-3.357.852-4.529,1.893-1.186,1.021-2.115,2.305-2.713,3.755-.556,1.443-.968,3.062-1.077,4.902-.148,1.914-.094,3.837.162,5.74.285,2.171.757,4.121,1.376,5.828.595,1.707,1.482,3.181,2.499,4.434.989,1.26,2.168,2.097,3.53,2.713,1.358.581,2.924.781,4.666.542,1.548-.187,3.019-.781,4.269-1.724,1.221-.95,2.189-2.192,2.808-3.614v.011Z"/>
          <path class="cls-26" d="M1677.776,1068.132h248.252M1946.347,1068.132h34.902v206.696c0,41.11-5.634,204.802-179.286,268.378-174.021-63.575-179.659-227.254-179.659-268.378v-206.696h35.152"/>
          <path class="cls-30" d="M1778.178,533.284c-13.576.109-28.596,6.626-44.023,23.17v.014c37.108-10.891,53.486,13.717,68.967,29.419-44.957.058-89.772,5.041-133.643,14.857-14.351-31.724-65.096-70.335-104.506-11.898,35.905-16.958,56.094,6.556,74.224,19.482-36.799,10.259-72.553,23.953-106.789,40.902-.123-.246-.201-.57-.327-.806-14.805-28.29-91.862-62.805-109.999,15.287,37.971-39.389,75.741,4.17,98.27-8.365-34.419,17.985-67.058,39.189-97.478,63.329-.158-.197-.296-.472-.454-.662-20.587-24.461-103.341-41.722-104.104,38.418,27.969-45.656,72.999-13.517,92.931-28.286-32.446,27.056-62.032,57.368-88.293,90.461-.472-.521-.926-1.172-1.404-1.636-22.951-22.29-107.029-31.228-99.699,48.577,23.863-49.52,74.006-18.999,91.137-38.717-2.615,3.009-3.984,6.802-4.716,11.05-24.323,33.243-45.238,68.85-62.428,106.283-28.321-15.157-111.336-1.105-82.554,73.619l.014.011c9.449-54.088,66.06-38.185,77.159-61.756-.113.246-.141.517-.246.764-17.243,39.943-30.159,81.617-38.527,124.311-34.899.852-91.805,33.878-50.534,92.372-2.949-39.456,26.625-49.577,45.322-61.707-4.193,29.162-6.298,58.585-6.299,88.047,0,8.868.225,17.68.598,26.456-31.503,13.686-72.862,70.948-7.562,106.592-18.475-31.218-1.608-52.293,10.135-70.276,3.896,38.27,11.398,76.086,22.406,112.944-29.49,18.982-59.571,72.077,2.442,103.242-19.774-30.94-3.037-52.716,8.08-71.229,13.341,37.065,30.233,72.754,50.442,106.568-23.655,25.562-39.294,88.311,31.242,100.142-28.768-24.25-18.246-50.594-13.277-71.789,23.243,34.445,49.905,66.455,79.58,95.543-22.29,26.597-34.585,91.432,37.306,98.579-34.624-25.404-18.306-57.093-17.015-79.538,34.943,31.332,73.353,58.567,114.482,81.174-6.264,34.311,12.345,92.791,77.785,68.889-35.398-6.545-40.691-32.418-46.571-52.888,40.898,19.517,83.845,34.411,128.045,44.407-.612,34.744,22.965,83.564,82.775,57.044-36.394-4.233-43.063-30.489-50.467-50.667,34.233,5.826,68.897,8.755,103.622,8.755,6.714,0,13.39-.151,20.055-.366,7.584,34.022,47.961,81.055,98.896,33.304-38.639,8.611-53.06-18.465-67.76-35.082,45.489-3.739,90.417-12.562,133.943-26.301,21.016,27.955,72.06,53.117,101.806-6.468-28.93,18.559-50.164,5.381-68.108-5.3,35.424-13.515,69.514-30.295,101.831-50.122,26.228,21.371,99.948,30.612,98.868-44.9-19.14,32.977-47.75,26.762-69.797,25.886,35.289-24.509,67.924-52.633,97.376-83.916,30.869,16.508,94.473,16.564,90.229-53.433-17.574,33.765-46.392,28.92-68.446,29.029,27.712-32.731,51.927-68.27,72.25-106.036,34.357,5.845,97.147-16.057,67.341-81.41h-.011c-4.167,36.823-31.517,43.123-51.948,50.745,19.089-40.815,33.592-83.621,43.242-127.633,34.318-7.436,81.801-47.24,34.089-97.946,7.028,32.03-10.983,47.152-26.931,59.733,4.749-31.018,7.129-62.354,7.119-93.734,0-4.381-.077-8.748-.169-13.105,33.428-10.677,76.99-55.119,24.253-100.93,11.493,35.022-10.445,52.005-25.851,67.263-2.611-34.624-8.165-68.962-16.599-102.644,29.493-17.571,63.118-79.51-6.158-106.659,23.729,30.482,6.352,54.595-2.766,74.629-11.081-35.796-25.436-70.495-42.883-103.657,24.915-24.162,43.851-87.684-27.121-101.905,28.262,25.401,16.388,51.667,10.807,72.799-18.748-31.395-40.253-61.06-64.262-88.642,13.196-32.323,7.098-93.111-61.781-83.215,29.113,11.972,32.446,33.706,33.839,53.198-24.419-24.559-50.861-47.02-79.045-67.147,9.512-32.924-7.742-100.145-76.969-74.217v.014c36.697,6.472,41.335,33.86,47.673,54.563-34.684-21.874-71.479-40.205-109.83-54.718,5.831-33.843-18.211-98.213-84.151-65.694,41.05,3.079,45.741,35.641,55.636,55.707-50.814-16.4-103.557-26.076-156.883-28.782-5.296-23.138-28.058-53.638-57.832-53.395h0ZM1804.226,601.145c3.048,0,6.081.07,9.118.116-20.632,12.373-38.389,53.092-82.761,41.733,47.799,53.993,100.272-7.573,106.065-40.965,52.304,2.767,104.016,12.405,153.804,28.666-23.071,7.066-52.571,33.213-87.512,8.689,24.999,66.362,94.511,29.349,113.131.338,41.805,15.812,81.701,36.271,118.937,60.992-24.067,1.341-58.684,30.855-93.632.686,18.06,68.08,90.19,38.984,112.156,12.106,32.425,23.331,62.446,49.832,89.62,79.112,1.348,3.758,3.28,7.014,6.391,9.403-20.763-15.931-69.579,19.457-101.465-23.236,3.033,74.52,88.944,55.457,111.143,31.823,24.765,28.912,46.722,60.116,65.574,93.188-20.914-11.894-66.612-4.698-80.161-48.992-21.667,68.847,59.243,81.121,90.76,68.435,18.194,34.861,32.886,71.442,43.858,109.204-19.64-13.9-62.794-16.343-68.083-60.679-32.569,62.133,39.61,88.694,74.291,83.785,9.376,37.929,15.014,76.685,16.835,115.714-7.696-23.025-58.385-38.238-47.208-86.671-55.028,50.678,15.185,102.985,47.768,104.477.06,3.579.13,7.158.13,10.754,0,38.354-3.649,75.843-10.536,112.191-1.337,2.453-2.259,5.025-2.403,7.858,1.334-25.995-55.795-45.582-38.671-95.93-59.785,44.886,4.501,103.816,36.813,108.683-10.475,46.25-26.449,91.079-47.581,133.531-1.411-23.891-35.638-56.97-6.834-94.423-69.037,22.814-31.654,95.265-2.843,113.127-21.603,39.792-47.641,77.011-77.617,110.945,7.805-22.663-12.929-66.197,27.797-91.189-74.463-3.216-63.347,81.783-41.828,106.554-31.127,32.901-65.872,62.18-103.573,87.28,5.152-23.388-8.488-63.48,30.514-85.045-68.822-6.106-67.629,66.873-50.868,98.048-35.27,21.471-72.674,39.222-111.611,52.965-3.614-.855-7.154-1.003-10.652.102,24.992-7.907,23.352-67.858,76.874-69.667-64.128-40.198-97.183,42.7-89.384,73.615.267,1.059.767,2.185,1.168,3.287-43.815,13.55-89.046,22.004-134.798,25.196,21.551-10.754,42.056-50.685,85.76-36.355-45.649-59.198-104.938,5.546-109.39,37.552-6.345.197-12.704.338-19.095.338-37.698.007-75.314-3.524-112.353-10.547-2.009-2.301-4.325-4.156-7.196-5.3,24.341,9.706,61.569-37.538,103.985-5.106-23.613-71.518-102.331-28.508-116.157.246-.859,1.835-1.563,3.738-2.104,5.69-50.33-11.487-98.95-29.48-144.633-53.525-.081-.039-.137-.116-.222-.155,23.638,11.317,63.98-33.329,104.094,1.883-18.588-72.503-99.107-35.771-115.548-8.052-37.627-20.873-72.899-45.733-105.209-74.15,23.567,4.585,59.001.961,74.46,37.823,14.703-70.786-67.411-74.896-97.348-59.046-32.661-31.85-61.59-67.314-86.228-105.709,20.562,12.535,67.819,2.432,83.148,47.342,19.689-70.328-63.779-79.422-93.998-65.018-22.977-38.712-41.489-79.906-55.182-122.791,8.428,24.341,67.957,23.662,69.304,76.409,41.022-63.199-41.972-96.714-73.277-89.345-11.9-40.435-19.482-82.017-22.617-124.05,16.504,17.433,61.981,24.239,61.559,70.371,40.135-57.413-27.66-92.773-62.755-92.425-.292-7.703-.493-15.431-.493-23.208,0-31.404,2.435-62.249,7.094-92.347,8.689,22.328,43.27,47.965,23.067,87.825,63.962-35.275,12.781-100.142-18.82-111.892,6.442-32.721,15.628-64.841,27.459-96.021,7.594,21.09,17.863,46.339-4.388,71.94,63.083-16.761,42.957-78.574,18.158-105.202,14.164-31.439,31.023-61.593,50.389-90.123,1.429,21.069,1.756,45.079-24.186,62.122,63.709.795,62.854-60.929,47.36-93.945,22.104-28.351,46.702-54.666,73.499-78.63-1.01,23.06,1.186,52.631-30.838,69.357,64.48,7.26,68.893-56.657,55.95-90.63,24.321-19.487,50.123-37.048,77.173-52.525-5.944,22.265-10.336,51.378-45.062,60.823,61.323,20.836,79.513-40.494,74.291-76.448,36.137-18.074,74.022-32.418,113.067-42.809-18.106,15.804-29.469,57.86-74.629,53.564,57.114,47.064,99.952-26.527,98.27-59.356,42.98-9.573,86.883-14.395,130.916-14.379h0Z"/>
          <path class="cls-21" d="M1436.411,1468.956c-1.144,4.972-3.047,11.866-3.822,20.674,0,1.914-1.904,12.25,3.822,12.626,4.209.384,5.356-10.723,5.356-10.723,0,0-3.832,12.25,1.14,13.788,6.883,1.513,7.64-13.404,7.64-13.404-.764,4.216-5.352,14.938,1.151,16.065,6.873,1.161,8.791-14.544,8.791-14.544,0,0-5.733,15.706,1.14,16.086,6.5.377,6.5-15.311,6.5-15.311,0,0-3.445,18.76,5.729,17.229,4.958-.767,6.116-7.281,7.26-11.106,1.527-5.733,4.969-13.007.767-24.876-3.051-8.801-1.904-11.099-1.904-11.099,0,0-10.705,8.041-19.108,13.394-3.832,2.294-24.472-8.801-24.472-8.801l.011.003ZM1548.018,1452.477c-1.907-1.154-1.524,6.894-2.291,10.709-.384,3.836.771,12.253,13.763,11.493,12.602-1.154,25.225-3.832,33.245-1.918,8.031,2.294,19.872,2.678,26.379,2.678s10.705-.76,13.749-1.918c2.682-1.137,8.414,1.541,11.081,1.541,2.682,0,6.88-4.216,6.496-6.897-.38-4.98-4.958-4.98-11.465-5.356-6.116-.764-14.52-1.918-18.721-3.445-4.205-1.538-11.849-5.747-21.403-7.657,0,0-18.345.771-22.156.771-3.832,0-26.379,1.14-28.677,0h0Z"/>
          <path class="cls-25" d="M1489.341,1478.219l-.76-17.581,7.2,6.123,1.893-13.386c3.03-.764,7.96,5.36,7.96,5.36l-.764-13.376,10.987,12.229s-.757-10.325,3.023-16.438c0,0,8.333,7.263,8.333,15.674,0,7.277,7.197-10.325,7.197-10.325,1.9,6.127,6.067,19.503,6.067,19.503l4.913-7.27,4.174,15.28,9.086-13.372,7.197,15.674,16.293-1.154,1.904,9.181,7.193-8.027,9.473,6.113s7.953-2.291,12.123-2.291,9.093,5.349,9.093,5.349c0,0,3.026-5.335,6.063-7.253,3.026-1.918,7.2,3.051,8.326,6.109l6.067-11.085s7.96,8.034,9.086,11.085c0,0,1.14-9.167,3.037-12.232,1.9-3.055,4.916,1.151,7.2,4.972l4.92-16.438s5.303,1.137,9.086,7.26c4.174,6.109,4.174-9.185,4.174-9.185,0,0,9.086,12.243,11.374,20.646M1919.342,1476.304s3.023-8.396,7.2-12.609c0,0,7.953,9.565,7.953,12.616,0,0,2.273-1.147,6.443-4.198l6.06,6.106,7.204-4.958,6.82,6.116,12.507-5.352,4.916,5.349,19.313-2.287,7.214,3.051,6.813-8.78,6.443,6.869,10.226-10.311s4.92,4.191,6.06,7.26c0,0,8.337-4.209,10.23-7.26,0,0,7.953-3.058,9.086,1.897,0,0,4.916-3.825,4.547-8.023-.387-4.202,5.676-1.144,7.57,4.216,0,0,2.277-8.418,8.347-9.188,0,0,4.156,4.976,3.016,14.154,0,0,9.09-7.26,13.263-8.031,0,0,1.897,10.314-1.133,19.503,0,0,9.473-15.681,11.367-10.328.757,3.055,3.03,13.386.757,20.639l8.337-5.349,3.026,10.332,9.086-1.914M1696.317,1526.951s6.82-11.458,10.987-14.523c0,0,9.086,7.27,12.12,16.441,0,0,1.14-6.113,4.17-11.462,0,0,11.367,5.335,13.256,12.612,0,0,4.174-7.267,7.2-9.167,3.03-2.309,6.063,8.016,6.063,14.136,0,0,7.2-7.65,11.374-8.031,0,0,7.953,3.818,10.223,17.208,0,0,7.584-7.263,10.23-6.127,0,0,9.093,6.127,6.813,14.53-1.13,4.582,9.1-5.342,21.6-8.404l10.987,8.404s10.226-13.76,13.256-18.355c0,0,8.34,3.058,8.34,8.034,0,0,3.794-14.541,6.816-16.054,3.026-1.911,7.196,4.582,7.196,8.791,0,0,1.137-11.085,7.204-13.383,0,0,6.063,4.202,6.063,8.418,0,0,6.44-12.616,11.367-15.688"/>
          <path class="cls-50" d="M1487.595,1476.589l-.76-17.638,7.2,6.144,1.893-13.425c3.026-.778,7.96,5.37,7.96,5.37l-.764-13.429,10.987,12.275s-.76-10.357,3.023-16.497c0,0,8.33,7.291,8.33,15.727,0,7.299,7.2-10.36,7.2-10.36,1.9,6.144,6.063,19.559,6.063,19.559l4.916-7.284,4.17,15.336,9.1-13.425,7.186,15.73,16.293-1.158,1.9,9.195,7.193-8.045,9.473,6.134s7.96-2.301,12.127-2.301,9.093,5.377,9.093,5.377c0,0,3.026-5.377,6.063-7.309,3.019-1.904,7.204,3.076,8.326,6.141l6.067-11.117s7.957,8.059,9.09,11.117c0,0,1.13-9.195,3.026-12.267,1.9-3.065,4.916,1.154,7.2,4.99l4.913-16.487s5.314,1.137,9.093,7.284c4.16,6.13,4.16-9.195,4.16-9.195,0,0,9.09,12.267,11.36,20.696,0,0-62.731,21.794-106.969,15.836-52.075-7.014-94.962-16.983-94.962-16.983M1917.6,1474.668s3.026-8.442,7.207-12.665c0,0,7.949,9.6,7.949,12.665,0,0,2.266-1.151,6.443-4.223l6.056,6.13,7.207-4.972,6.824,6.123,12.493-5.37,4.923,5.37,19.32-2.291,7.2,3.062,6.824-8.815,6.44,6.894,10.226-10.353s4.923,4.216,6.06,7.291c0,0,8.337-4.209,10.234-7.291,0,0,7.957-3.062,9.086,1.921,0,0,4.923-3.843,4.55-8.048-.377-4.216,5.68-1.154,7.577,4.209,0,0,2.27-8.428,8.326-9.195,0,0,4.163,4.969,3.03,14.196,0,0,9.086-7.306,13.256-8.066,0,0,1.9,10.35-1.133,19.562,0,0,9.47-15.73,11.37-10.357.76,3.062,3.033,13.418.76,20.696l8.33-5.363,3.023,10.357,9.086-1.921s-53.782,8.337-104.456,3.449c-50.678-4.892-98.224-23.001-98.221-23.001M1880.133,1512.73c2.463-1.541-16.923,40.353-63.934,42.584-65.405,3.1-121.32-29.923-121.32-29.923,0,0,6.824-11.5,10.987-14.576,0,0,9.086,7.295,12.123,16.487,0,0,1.14-6.134,4.17-11.497,0,0,11.367,5.352,13.256,12.651,0,0,4.17-7.284,7.207-9.195,3.026-2.312,6.063,8.041,6.063,14.189,0,0,7.193-7.682,11.363-8.066,0,0,7.96,3.839,10.234,17.261,0,0,7.577-7.281,10.223-6.144,0,0,9.093,6.144,6.816,14.572-1.133,4.61,9.093-5.352,21.6-8.425l10.983,8.425s10.226-13.791,13.26-18.408c0,0,8.34,3.076,8.34,8.066,0,0,3.794-14.576,6.816-16.107,3.026-1.914,7.193,4.599,7.193,8.826,0,0,1.144-11.124,7.204-13.422,0,0,6.067,4.209,6.067,8.442-.014-.007,6.426-12.665,11.356-15.741h-.007Z"/>
        </g>
      </g>
    </g>
  </g>
</svg>