<?xml version="1.0" encoding="UTF-8"?>
<svg xmlns="http://www.w3.org/2000/svg" viewBox="0 0 3600.1 2401.738">
  <defs>
    <style>
      .cls-1 {
        fill: #d52b1e;
        fill-rule: evenodd;
      }

      .cls-1, .cls-2 {
        stroke-width: 0px;
      }

      .cls-2 {
        fill: #eee;
      }
    </style>
  </defs>
  <g id="background">
    <path id="ca" class="cls-1" d="M400,.1h2800c220,0,400,180,400,400v1600c0,220-180,400-400,400H400c-220,0-400-180-400-400V400.1C0,180.1,180,.1,400,.1Z"/>
  </g>
  <g id="country">
    <g id="ca-2" data-name="ca">
      <rect class="cls-2" x="1100.478" y=".919" width="1399.045" height="2398.362"/>
      <path class="cls-1" d="M2049.117,1425.642l256.704-207.871-57.834-27.006c-8.082-3.819-12.057-13.057-9.275-21.551l50.74-156.041-147.857,31.373c-8.259,1.72-16.586-2.615-19.914-10.367l-28.643-67.381-115.394,123.851c-6.737,7.107-17.96,7.407-25.067.67-4.391-4.163-6.357-10.277-5.214-16.219l55.652-286.984-89.205,51.56c-8.451,4.951-19.315,2.113-24.265-6.338-.197-.337-.384-.68-.558-1.029l-90.57-177.863-90.568,177.863c-4.382,8.759-15.034,12.308-23.794,7.927-.35-.175-.694-.362-1.032-.56l-89.205-51.56,55.652,286.984c1.851,9.616-4.445,18.912-14.062,20.763-5.942,1.143-12.057-.822-16.219-5.214l-115.394-123.851-28.643,67.381c-3.328,7.752-11.655,12.087-19.914,10.367l-147.857-31.373,50.74,156.042c2.781,8.495-1.194,17.731-9.275,21.551l-57.832,27.006,256.701,207.871c5.895,4.786,8.09,12.794,5.457,19.916l-31.646,87.293,234.335-41.19c14.106-2.427,27.507,7.041,29.932,21.147.316,1.845.434,3.718.346,5.586l-12.274,235.425h49.102l-12.274-235.425c-.661-14.298,10.397-26.422,24.694-27.082,1.869-.086,3.741.031,5.584.349l234.335,41.19-31.646-87.293c-2.63-7.123-.436-15.129,5.457-19.916Z"/>
    </g>
  </g>
</svg>