<?xml version="1.0" encoding="UTF-8"?>
<svg xmlns="http://www.w3.org/2000/svg" viewBox="0 0 3600.1 2401.738">
  <defs>
    <style>
      .cls-1 {
        fill: #802000;
        stroke: #7b3100;
        stroke-miterlimit: 8;
        stroke-width: 8.311px;
      }

      .cls-1, .cls-2, .cls-3 {
        fill-rule: evenodd;
      }

      .cls-2 {
        fill: #ffe000;
      }

      .cls-2, .cls-3 {
        stroke-width: 0px;
      }

      .cls-3 {
        fill: green;
      }
    </style>
  </defs>
  <g id="background">
    <path id="cc" class="cls-3" d="M400,.1h2800c220,0,400,180,400,400v1600c0,220-180,400-400,400H400C180,2400.1,0,2220.1,0,2000.1V400.1C0,180.1,180,.1,400,.1Z"/>
  </g>
  <g id="country">
    <g id="cc-2" data-name="cc">
      <g>
        <path class="cls-2" d="M2173.944,1200.1c0,206.525-167.419,373.944-373.944,373.944s-373.944-167.419-373.944-373.944,167.419-373.944,373.944-373.944,373.944,167.419,373.944,373.944Z"/>
        <path class="cls-3" d="M2224.648,1200.1c0,169.77-137.624,307.394-307.394,307.394s-307.394-137.624-307.394-307.394,137.624-307.394,307.394-307.394,307.394,137.624,307.394,307.394Z"/>
        <path class="cls-2" d="M1010.915,826.156c0,217.024-175.224,392.958-391.373,392.958s-391.373-175.934-391.373-392.958,175.224-392.958,391.373-392.958,391.373,175.934,391.373,392.958Z"/>
        <path class="cls-1" d="M594.19,1122.459h97.951s4.421-8.943-.986-13.411c-5.406-4.472-26.471-5.457-20.779-21.27,11.697-32.517,13.332-22.491,20.678-99.716,7.346-77.226,10.882-198.349,10.882-198.349h-14.15s2.722,37.664-5.441,86.711c-8.16,49.047-10.61,53.379-19.588,91.043-8.981,37.664-10.34,40.915-18.504,62.864-8.16,21.949-8.978,23.032-21.765,43.355-12.79,20.32-8.163,12.733-15.237,24.927-3.537,6.097-7.891,4.472-10.271,8.908-2.383,4.437-2.792,14.936-2.792,14.936v.003Z"/>
        <path class="cls-3" d="M667.689,540.948c.818,15.113-.716,35.122-7.032,51.405-6.401,18.143-13.367,36.231-13.021,55.02-10.182,3.435-20.675-21.85-30.473-6.975,7.368,20.554,24.376,36.827,36.025,55.344,1.968,5.742,18.732,20.732,9.032,24.218-24.484-8.312-30.419-39.08-45.605-57.765-17.639-31.443-50.52-53.667-87.154-55.201-13.763.358-58.503-3.381-46.86,19.987,17.144,11.561,38.269,19.1,55.195,32.074,12.613,1.173,35.474,22.053,34.14,29.944-22.18-8.911-32.565-19.591-56.462-28.965-32.384-12.404-77.175-4.944-95.102,26.933-3.343,8.3-8.277,32.495,2.234,34.802,12.28-19.02,29.849-40.281,55.882-34.577,20.446,1.585-22.817,37.778-6.268,30.495,5.245-2.307,17.354-10.192,25.755-11.015,8.401-.821,13.091,5.416,19.467,6.278,12.746,1.727,16.257,7.026,15.075,10.109-1.394,3.638-5.444.532-18.402,4.608-6.481,2.038-9.865,7.685-17.423,10.271-7.555,2.583-23.276,2.767-29.152.475-20.557-8.854-54.254-7.314-60.661,18.231-.006,11.234-10.087-1.239-14.745,3.613-3.492,12.261-4.395,24.845-22.728,23.733-11.13,11.58-22.525,23.568-36.656,31.807,8.293,18.875,41.15-18.96,39.613-3.007-14.362,19.426,7.39,23.514,16.913,8.563,16.105-16.878,36.051-37.423,60.081-20.412,11.446,10.686,18.098-5.654,26.382-4.776,5.219,13.275,11.786.653,17.712-3.102,9.697-1.198,6.969,12.014,18.491,3.876,22.966-15.075,51.218-2.408,73.651-17.075,23.882-10.79,3.353,8.693-3.239,16.308-10.489,20.18-1.391,46.676-24.148,59.21-9.143,24.053,10.8,55.762-9.542,73.556-2.957,11.158,26.16,9.881,34.333,14.467,14.318.561-.618-32.508,13.592-36.938,19.052,11.697,18.162-20.922,14.226-30.98,1.848-22.868,3.15-47.871,14.606-68.587,12.182-25.387,23.457,10.34,9.821,20.393-7.745,23.343-19.02,52.558-1.407,74.266,5.074,1.128,9.244,13.329,15.813,17.081,6.573,3.749,15.55-.951,17.189-12.052,8.43-33.433,4.183-69.382,16.222-101.896,8.496-10.074,20.218-1.626,25.488,7.637,16.869,19.423,28.727,43.707,49.151,59.714,18.596,8.629,35.043,21.686,43.612,40.671-.114,14.65,41.955,16.897,29.383.615-12.061-15.855-4.104-31.709,8.113-42.252,6.544,1.604,4.611-10.02-.52-5.422-8.214-1.924-8.74-16.834,2.678-9.745,19.23,6.157-1.499-13.804-8.449-14.416-16.26-9.995-34.942-21.495-42.937-38.871,21.166.215,43.14,11.538,64.768,4.516,17.338-8.835,34.923.735,40.975,15.893,13.402-2.12,7.688-15.452,0-19.892,9.802-4.012,16.583-12.327,4.696-19.667-6.278-8.122,8.417-21.98-9.643-21.404.589-13.684-4.842-26.208-19.882-30.933-15.065-12.654-59.276,18.64-57.993-9.881-4.456-15.525,17.959-2.076,24.221-9.818,6.471-16.365-30.838-14.768-18.526-27.453,8.04-5.137,45.773-12.511,16.181-18.006-14.768,4.028-27.444,1.046-39.064-6.202-10.594,17.572-40.842-9.545-35.452,21.698-4.139,11.773-31.177,42.36-38.491,18.925,6.221-18.368,38.253-24.373,28.321-49.136-1.524-15.458-14.448,2.687-20.535,1.534-3.083-9.621,9.323-20.963,17.971-23.248,17.157,13.091,17.677-16.514,33.997-14.105,11.912-2.624-3.847-7.694-7.171-9.916,3.264-8.651,21.556-13.072,3.622-20.583-15.826-11.646-27.555,11.592-40.608,12.831-12.527-14.026,11.374-20.77,17.971-28.157.355-5.508-13.937-1.661-9.637-6.458,3.736-6.62,29.041-7.114,17.192-17.049-17.848-6.075-40.877-4.56-58.002,3.312-10.787,3.464-13.963,27.656-23.261,26.655-4.373-10.768,1.423-32.017-13.544-35.132l.006.003ZM752.077,777.309c13.598-2.282.288,20.485-6.252,20.149.58-8.179-19.667-7.39-7.105-14.52,4.072-2.608,8.613-4.598,13.357-5.628h0Z"/>
        <path class="cls-2" d="M2700.932,1670.512l24.759,76.963,75.625-28.632-44.75,67.338,69.541,41.257-80.56,7.007,11.092,80.081-55.708-58.601-55.708,58.601,11.095-80.081-80.563-7.007,69.544-41.257-44.75-67.338,75.622,28.632,24.759-76.963ZM2250.513,959.99l24.759,76.96,75.622-28.632-44.75,67.338,69.544,41.261-80.563,7.007,11.095,80.081-55.708-58.601-55.708,58.601,11.092-80.081-80.56-7.007,69.541-41.261-44.75-67.338,75.625,28.632,24.759-76.96ZM2700.932,471.506l24.759,76.963,75.625-28.632-44.75,67.338,69.541,41.257-80.56,7.007,11.092,80.081-55.708-58.601-55.708,58.601,11.095-80.081-80.563-7.007,69.544-41.257-44.75-67.338,75.622,28.632,24.759-76.963ZM3100.601,839.454l24.759,76.963,75.628-28.632-44.756,67.338,69.538,41.257-80.556,7.007,11.095,80.081-55.708-58.598-55.708,58.598,11.092-80.081-80.56-7.007,69.541-41.257-44.75-67.338,75.625,28.632,24.759-76.963ZM2881.737,1201.013l19.584,48.245,51.718,3.806-39.613,33.623,12.378,50.596-44.068-27.463-44.068,27.463,12.378-50.596-39.613-33.623,51.718-3.806,19.584-48.245Z"/>
      </g>
    </g>
  </g>
</svg>