<?xml version="1.0" encoding="UTF-8"?>
<svg xmlns="http://www.w3.org/2000/svg" viewBox="0 0 3600.1 2401.738">
  <defs>
    <style>
      .cls-1 {
        fill: #fcd600;
      }

      .cls-1, .cls-2, .cls-3, .cls-4 {
        fill-rule: evenodd;
        stroke-width: 0px;
      }

      .cls-2 {
        fill: #e0000d;
      }

      .cls-3 {
        fill: #ffd000;
      }

      .cls-4 {
        fill: #007fff;
      }
    </style>
  </defs>
  <g id="background">
    <path id="cd" class="cls-4" d="M400,.1h2800c220,0,400,180,400,400v1600c0,220-180,400-400,400H400C180,2400.1,0,2220.1,0,2000.1V400.1C0,180.1,180,.1,400,.1Z"/>
  </g>
  <g id="country">
    <g id="cd-2" data-name="cd">
      <path id="Path" class="cls-1" d="M3360.05,33.405c141.246,61.736,239.95,202.688,239.95,366.695v100L239.95,2366.795C98.704,2305.059,0,2164.106,0,2000.1v-100L3360.05,33.405h0Z"/>
      <path id="Path-2" data-name="Path" class="cls-2" d="M3446.739,85.245c93.313,73.228,153.261,187.041,153.261,314.855L153.261,2314.955C59.948,2241.727,0,2127.915,0,2000.1L3446.739,85.245Z"/>
      <polygon id="Star" class="cls-3" points="673.158 890.998 380.73 1100.1 489.233 757.369 200 543.869 559.486 541.152 673.158 200.1 786.83 541.152 1146.316 543.869 857.083 757.369 965.586 1100.1 673.158 890.998"/>
    </g>
  </g>
</svg>