<?xml version="1.0" encoding="UTF-8"?>
<svg xmlns="http://www.w3.org/2000/svg" viewBox="0 0 3600.1 2401.738">
  <defs>
    <style>
      .cls-1 {
        fill: #003082;
      }

      .cls-1, .cls-2, .cls-3, .cls-4, .cls-5 {
        stroke-width: 0px;
      }

      .cls-2 {
        fill: #d21034;
      }

      .cls-3 {
        fill: #ffce00;
      }

      .cls-4 {
        fill: #289728;
      }

      .cls-5 {
        fill: #eee;
        fill-rule: evenodd;
      }
    </style>
  </defs>
  <g id="background">
    <path id="bg" class="cls-5" d="M400,.1h2800c220,0,400,180,400,400v1600c0,220-180,400-400,400H400C180,2400.1,0,2220.1,0,2000.1V400.1C0,180.1,180,.1,400,.1Z"/>
  </g>
  <g id="country">
    <g id="cf">
      <path class="cls-1" d="M3200,.1H400C180,.1,0,180.1,0,400.1v200h3600v-200C3600,180.1,3420,.1,3200,.1Z"/>
      <path class="cls-4" d="M0,2000.1C0,2220.1,180,2400.1,400,2400.1h2800c220,0,400-180,400-400v-800H0v800Z"/>
      <g>
        <path class="cls-3" d="M0,2000.1C0,2220.1,180,2400.1,400,2400.1h2800c220,0,400-180,400-400v-200H0v200Z"/>
        <polygon class="cls-3" points="660.611 242.5 600 56.2 539.389 242.5 343.5 242.5 501.955 357.563 441.3 544 600 428.759 758.7 544 698.045 357.563 856.5 242.5 660.611 242.5"/>
      </g>
      <path class="cls-2" d="M1500,.1h600v2400h-600V.1Z"/>
    </g>
  </g>
</svg>