<?xml version="1.0" encoding="UTF-8"?>
<svg xmlns="http://www.w3.org/2000/svg" viewBox="0 0 3600.1 2401.738">
  <defs>
    <style>
      .cls-1 {
        fill: #fbde4a;
      }

      .cls-1, .cls-2, .cls-3 {
        fill-rule: evenodd;
        stroke-width: 0px;
      }

      .cls-2 {
        fill: #009543;
      }

      .cls-3 {
        fill: #dc241f;
      }
    </style>
  </defs>
  <g id="background">
    <path id="cg" class="cls-3" d="M400,.1h2800c220,0,400,180,400,400v1600c0,220-180,400-400,400H400C180,2400.1,0,2220.1,0,2000.1V400.1C0,180.1,180,.1,400,.1Z"/>
  </g>
  <g id="country">
    <g id="cg-2" data-name="cg">
      <path id="Path" class="cls-2" d="M2400,.1L117.157,2282.943C44.772,2210.557,0,2110.557,0,2000.1V400.1C0,179.186,179.086.1,400,.1h2000Z"/>
      <path id="Path-2" data-name="Path" class="cls-1" d="M2400,.1h800c110.457,0,210.457,44.772,282.843,117.157L1200,2400.1H400c-110.457,0-210.457-44.772-282.843-117.157L2400,.1Z"/>
    </g>
  </g>
</svg>