<?xml version="1.0" encoding="UTF-8"?>
<svg xmlns="http://www.w3.org/2000/svg" viewBox="0 0 3600.1 2401.738">
  <defs>
    <style>
      .cls-1 {
        fill: #00247d;
      }

      .cls-1, .cls-2, .cls-3, .cls-4, .cls-5, .cls-6 {
        stroke-width: 0px;
      }

      .cls-1, .cls-2, .cls-5, .cls-6 {
        fill-rule: evenodd;
      }

      .cls-2 {
        fill: #fff;
      }

      .cls-3, .cls-6 {
        fill: #eee;
      }

      .cls-4, .cls-5 {
        fill: #cf1b2b;
      }
    </style>
  </defs>
  <g id="background">
    <path id="gb" class="cls-1" d="M400,.1h2800c220,0,400,180,400,400v1600c0,220-180,400-400,400H400C180,2400.1,0,2220.1,0,2000.1V400.1C0,180.1,180,.1,400,.1Z"/>
  </g>
  <g id="country">
    <g id="ck">
      <path class="cls-2" d="M2700.818,430.112l30.397,93.334h97.948l-79.184,57.35,30.397,93.331-79.558-57.346-79.558,57.347,30.397-93.331-79.184-57.35h97.948l30.397-93.334ZM3003.322,494.491l-10.211,97.469,89.243,39.733-95.438,20.193-10.211,97.473-49.196-84.591-95.78,20.041,65.602-72.808-48.854-84.435,89.243,39.733,65.602-72.808ZM3253.246,677.625l-48.993,84.888,65.377,72.599-95.387-20.37-48.983,84.888-10.54-97.286-95.65-20.649,89.547-39.831-10.29-97.007,65.367,72.596,89.553-39.828ZM3406.88,946.516l-79.257,57.635,30.169,92.906-78.845-57.413-79.289,57.632,29.947-93.16-78.978-57.768,97.992.032,30.074-92.805,30.201,92.909,97.986.032ZM3437.81,1254.484l-95.863,20.412-10.204,97.153-48.708-84.527-95.863,20.408,65.25-72.929-48.644-84.898,89.493,39.892,65.218-72.555-10.204,97.153,89.525,39.891ZM3340.87,1548.229l-95.894-20.342-48.834,84.6-10.109-97.026-95.866-20.342,89.274-40.085-9.925-97.352,65.542,72.856,89.081-39.762-48.835,84.6,65.567,72.852ZM3132.998,1777.092l-79.308-57.578-79.032,57.419,30.232-92.748-79.308-57.578,97.853-.311,30.537-92.969,30.251,93.217,97.561-.089-79.042,57.419,30.255,93.217ZM2850.183,1901.717l-49.031-84.857-95.555,20.31,65.345-72.434-49.034-84.857,89.522,39.518,65.709-72.51-10.277,97.463,89.154,39.594-95.555,20.31-10.277,97.463ZM2541.169,1900.722l-10.277-97.463-95.555-20.31,89.154-39.594-10.277-97.466,65.709,72.513,89.522-39.518-49.031,84.857,65.342,72.434-95.555-20.31-49.031,84.857ZM2259.165,1774.275l30.255-93.216-79.032-57.419,97.552.092,30.251-93.22,30.533,92.969,97.856.311-79.308,57.578,30.232,92.751-79.032-57.423-79.308,57.578ZM2052.786,1544.081l65.554-72.853-48.844-84.6,89.078,39.758,65.554-72.853-9.919,97.349,89.268,40.085-95.872,20.345-10.106,97.026-48.844-84.6-95.869,20.342ZM1957.738,1249.721l89.518-39.895-10.211-97.153,65.206,72.555,89.518-39.892-48.657,84.901,65.247,72.925-95.856-20.408-48.698,84.527-10.211-97.153-95.856-20.408ZM1990.635,941.962l98.005-.035,30.188-92.906,30.058,92.805,98.005-.035-78.985,57.768,29.944,93.163-79.267-57.635-78.867,57.413,30.185-92.906-79.267-57.632ZM2146.006,674.063l89.544,39.831,65.367-72.596-10.287,97.007,89.544,39.831-95.65,20.649-10.537,97.286-48.974-84.892-95.4,20.37,65.367-72.596-48.974-84.892ZM2397.093,492.542l65.602,72.808,89.243-39.733-48.854,84.435,65.602,72.808-95.78-20.041-49.196,84.591-10.211-97.473-95.438-20.193,89.243-39.733-10.211-97.469Z"/>
    </g>
    <g id="mini-gb">
      <path class="cls-1" d="M1600,.1v1200H0V400.1C0,180.1,180,.1,400,.1h1200Z"/>
      <path id="Path" class="cls-6" d="M1534.9.1h65.1v255.8l-545.5,354.3,545.5,354.2v235.7h-96l-679-440.9-679,440.9H0v-203.2l595.5-386.7L31.6,243.9C65.5,164.1,124.5,97.6,198.7,54.3l626.3,406.7L1534.9.1Z"/>
      <path id="Path-2" class="cls-5" d="M0,1189.3v-119.2l708.2-460L60,189.3c17.8-28.7,39.2-54.9,63.4-78.2l676.6,439.4L1600,31.1v119.3l-708.2,459.7,708.2,460v119.2l-800-519.5L0,1189.3Z"/>
      <polygon id="Shape" class="cls-3" points="1000 400.1 1600 400.1 1600 800.1 1000 800.1 1000 1200.1 600 1200.1 600 800.1 0 800.1 0 400.1 600 400.1 600 .1 1000 .1 1000 400.1"/>
      <polygon id="Shape-2" class="cls-4" points="900 500.1 900 .1 700 .1 700 500.1 0 500.1 0 700.1 700 700.1 700 1200.1 900 1200.1 900 700.1 1600 700.1 1600 500.1 900 500.1"/>
    </g>
  </g>
</svg>