<?xml version="1.0" encoding="UTF-8"?>
<svg xmlns="http://www.w3.org/2000/svg" viewBox="0 0 3600.1 2401.738">
  <defs>
    <style>
      .cls-1 {
        fill: #1f429b;
      }

      .cls-1, .cls-2, .cls-3, .cls-4 {
        stroke-width: 0px;
      }

      .cls-2 {
        fill: #fff;
      }

      .cls-3 {
        fill: #d42d27;
      }

      .cls-3, .cls-4 {
        fill-rule: evenodd;
      }

      .cls-4 {
        fill: #eee;
      }
    </style>
  </defs>
  <g id="background">
    <path id="bg" class="cls-4" d="M400,.1h2800c220,0,400,180,400,400v1600c0,220-180,400-400,400H400C180,2400.1,0,2220.1,0,2000.1V400.1C0,180.1,180,.1,400,.1Z"/>
  </g>
  <g id="country">
    <g id="cl">
      <path id="b" class="cls-3" d="M400,2400.1h2800c220,0,400-180,400-400v-800H0v800C0,2220.1,180,2400.1,400,2400.1Z"/>
      <path class="cls-1" d="M1200,.1H400C180,.1,0,180.1,0,400.1v800h1200V.1Z"/>
      <path class="cls-2" d="M885.317,507.395l-461.652,335.41,176.335-542.705,176.335,542.705-461.652-335.41"/>
    </g>
  </g>
</svg>