<?xml version="1.0" encoding="UTF-8"?>
<svg xmlns="http://www.w3.org/2000/svg" viewBox="0 0 3600.1 2401.738">
  <defs>
    <style>
      .cls-1 {
        fill: #cc212d;
      }

      .cls-1, .cls-2, .cls-3, .cls-4 {
        stroke-width: 0px;
      }

      .cls-1, .cls-2, .cls-4 {
        fill-rule: evenodd;
      }

      .cls-2 {
        fill: #fee833;
      }

      .cls-3 {
        fill: #fcd116;
      }

      .cls-4 {
        fill: #288541;
      }
    </style>
  </defs>
  <g id="background">
    <path id="cm" class="cls-1" d="M400,.1h2800c220,0,400,180,400,400v1600c0,220-180,400-400,400H400C180,2400.1,0,2220.1,0,2000.1V400.1C0,180.1,180,.1,400,.1Z"/>
  </g>
  <g id="country">
    <g id="cm-2" data-name="cm">
      <path class="cls-3" d="M1612.8,1458.1l490.4-356.4h-606.4l490.4,356-187.2-576-187.2,576.4Z"/>
      <g id="v">
        <path class="cls-2" d="M2400,.1h800c220,0,400,180,400,400v1600c0,220-180,400-400,400h-800V.1Z"/>
        <path class="cls-4" d="M400,.1h800v2400H400C180,2400.1,0,2220.1,0,2000.1V400.1C0,180.1,180,.1,400,.1Z"/>
      </g>
    </g>
  </g>
</svg>