<?xml version="1.0" encoding="UTF-8"?>
<svg xmlns="http://www.w3.org/2000/svg" viewBox="0 0 3600.1 2401.738">
  <defs>
    <style>
      .cls-1 {
        fill: #de2910;
        fill-rule: evenodd;
      }

      .cls-1, .cls-2 {
        stroke-width: 0px;
      }

      .cls-2 {
        fill: #ff0;
      }
    </style>
  </defs>
  <g id="background">
    <path id="cn" class="cls-1" d="M400,.1h2800c220,0,400,180,400,400v1600c0,220-180,400-400,400H400C180,2400.1,0,2220.1,0,2000.1V400.1C0,180.1,180,.1,400,.1Z"/>
  </g>
  <g id="country">
    <g id="cn-2" data-name="cn">
      <path id="a" class="cls-2" d="M600,240.1l211.68,651.24L257.28,488.86h685.44l-554.4,402.48,211.68-651.24Z"/>
      <path id="a-2" data-name="a" class="cls-2" d="M1246.944,129.653l-20.012,227.381-117.566-195.776,210.261,89.406-222.562,51.148,149.879-172.159Z"/>
      <path id="a-3" data-name="a" class="cls-2" d="M1526.133,396.586l-106.682,201.796-32.379-226.056,159.088,163.994-224.969-39.228,204.942-100.505Z"/>
      <path id="a-4" data-name="a" class="cls-2" d="M1552.734,799.019l-179.721,140.723,62.653-219.601,78.351,214.626-189.397-127.588,228.114-8.16Z"/>
      <path id="a-5" data-name="a" class="cls-2" d="M1242.352,967.845l-10.568,228.015-125.581-190.734,213.787,80.613-220.25,60.331,142.613-178.225Z"/>
    </g>
  </g>
</svg>