<?xml version="1.0" encoding="UTF-8"?>
<svg xmlns="http://www.w3.org/2000/svg" viewBox="0 0 3600.1 2401.738">
  <defs>
    <style>
      .cls-1 {
        fill: #377bc8;
        stroke: #2c5aa0;
      }

      .cls-1, .cls-2, .cls-3 {
        stroke-miterlimit: 277.428;
        stroke-width: 4.539px;
      }

      .cls-4, .cls-5, .cls-6, .cls-7, .cls-8, .cls-9, .cls-10, .cls-11, .cls-12 {
        stroke-width: 0px;
      }

      .cls-4, .cls-3 {
        fill: #fcd41c;
      }

      .cls-5 {
        fill: #2b2200;
      }

      .cls-2 {
        fill: none;
      }

      .cls-2, .cls-3 {
        stroke: #806600;
      }

      .cls-6 {
        fill: #504416;
      }

      .cls-7 {
        fill: #fff;
      }

      .cls-8 {
        fill: #806600;
      }

      .cls-9, .cls-10 {
        fill: #cf1b2b;
      }

      .cls-10, .cls-12 {
        fill-rule: evenodd;
      }

      .cls-11 {
        fill: #d1b948;
      }

      .cls-12 {
        fill: #eee;
      }
    </style>
  </defs>
  <g id="background">
    <path id="bg" class="cls-12" d="M400,.1h2800c220,0,400,180,400,400v1600c0,220-180,400-400,400H400C180,2400.1,0,2220.1,0,2000.1V400.1C0,180.1,180,.1,400,.1Z"/>
  </g>
  <g id="country">
    <g id="cq">
      <g id="gb">
        <polygon id="Path-6" class="cls-9" points="2100.1 900 3600.1 900 3600.1 1500 2100.1 1500 2100.1 2400 1500.1 2400 1500.1 1500 .1 1500 .1 900 1500.1 900 1500.1 0 2100.1 0 2100.1 900"/>
        <path class="cls-10" d="M1600,.1v1200H0V400.1C0,180.1,180,.1,400,.1h1200Z"/>
      </g>
      <g id="g2911">
        <g id="g2957">
          <g id="g3045">
            <g id="g3199">
              <g id="g3287">
                <g id="g8868-2-9">
                  <path id="path8812-3-2" class="cls-3" d="M491.474,507.682s-28.423-.222-39.803-6.885c-12.379-7.246-25.629-32.866-25.629-32.866,0,0-31.336,5.086-45.743,1.988-15.056-3.283-36.596-20.479-36.596-20.479,14.389-2.127,25.138-4.3,39.076-15.569,0,0-27.742-1.48-43.542-7.551-13.754-5.294-36.205-22.846-36.205-22.846,12.827-3.191,26.694-2.775,36.797-15.328,0,0-27.17.245-39.478-4.254-12.29-4.485-31.799-21.774-31.799-21.774,14.929-1.295,29.135-4.069,38.734-16.132,0,0-27.519.925-39.178-3.653-16.097-6.321-40.727-27.392-40.727-27.392,15.487-1.156,30.892-2.497,42.607-11.287l-8.706-17.682c-10.509-21.343-32.525-13.816-47.158-19.698-14.365-5.78-22.422-21.529-23.209-30.36-1.386-15.573,6.579-39.363,41.725-34.397-17.48-26.633.741-45.762,19.318-53.424,17.861-7.361,33.636-5.35,45.772,23.799,0,0,16.305-13.187,25.138-15.143,12.294-2.728,26.158,1.341,30.525,12.868,1.803,4.735,2.452,14.635-.554,20.543-4.766,9.345-15.268,15.748-18.7,29.421-3.884,15.476,10.417,42.484,10.417,42.484,0,0,67.555,53.516,98.63,82.829,16.534,15.596,46.565,49.349,46.565,49.349l1.665-.971h66.959l5.979,112.982-72.864,1.433-.018-.008Z"/>
                  <path id="path8818-4-9" class="cls-1" d="M305.057,134.572c12.798,15.874,14.255,23.151,11.338,41.693,6.061,6.307,11.878,7.832,16.905,6.302,10.114-3.098,14.827-11.134,12.474-22.296-7.503-4.707-8.72-18.879-40.717-25.699ZM228.573,142.978c-5.284-.19-11.712.358-19.699,2.127,18.224,9.146,22.563,15.171,27.59,33.255,8.128,3.237,14.047,2.22,17.988-1.249,7.93-6.987,8.893-16.276,2.127-25.464-6.583-.878-12.156-8.083-28.006-8.651v-.019ZM205.911,214.822c-8.47,2.589-19.981-5.775-46.082,13.946,20.376.74,26.828,4.393,38.939,18.721,8.738-.452,13.702-3.838,15.832-8.642,4.3-9.659,1.295-18.496-8.689-24.025Z"/>
                  <path id="path8820-5-1" class="cls-3" d="M877.25,559.519c-11.804-3.468-26.207-18.962-38.73-18.893-13.183.079-22.482,7.435-29.11,17.325-3.143,4.717,1.803,22.374,6.738,25.764l22.711,15.61s-14.213,16.331-15.293,25.528c-.924,7.99,3.097,14.398,8.798,20.706,7.468,8.221,9.299,11.402,21.191,13.132,7.101,1.017,23.914-2.08,23.914-2.08,0,0-.392,13.104,3.746,19.152,7.525,10.959,20.298,20.622,34.896,19.078,11.398-1.202,15.098-2.913,21.12-11.411,4.776-6.727,3.838-23.924,11.578-31.007l31.545-28.811c13.617,8.24,13.257,20.529,11.564,33.199,0,0,20.242-12.79,26.267-21.954,6.276-9.549,8.759-32.09,8.759-32.09,12.816,11.564,17.063,21.894,14.312,35.71,0,0,20.609-12.868,27.244-21.954,7.468-10.228,13.903-32.329,13.903-32.329,9.387,9.132,11.366,22.116,7.782,37.998,0,0,23.032-15.429,29.185-27.863,4.868-9.83,7.782-27.021,7.782-27.021,27.989,2.035,46.057-10.145,47.292-22.754.97-9.78-10.117-23.11-32.649-26.98,0,0-8.318-12.424-11.468-21.607-2.173-6.316-2.311-13.493,0-19.762,4.653-12.544,15.49-23.1,26.567-32.117,15.236-12.401,48.389-27.997,48.389-27.997l-9.701-48.573-112.914-17.293-124.809,30.762c22.75,10.436,73.7,46.127,69.538,59.648-1.573,5.059-12.396,9.854-17.578,16.632-3.838,4.989-.924,12.965,2.868,18.116,5.249,7.209,17.787,8.864,21.826,15.647,3.605,6.104,5.281,11.545.97,17.293-8.551,11.351-37.295,16.119-51.236,22.236-25.406,11.148-68.43,35.451-68.43,35.451-13.38,1.757-26.204-2.867-38.54-6.492h-.025Z"/>
                  <path id="path8826-4-4" class="cls-3" d="M1141.876,406.643s-2.173,40.394-19.028,50.732c-7.263,4.439-17.441,6.298-25.368,3.191-7.68-3.051-13.045-11.264-15.853-19.022-1.803-4.971-4.759-17.441-4.759-17.441,0,0-25.791-11.8-39.634-12.683-20.376-1.295-60.242,11.097-60.242,11.097,6.805-21.158,25.117-38.483,44.389-55.486l66.585-4.754,53.903,44.389.007-.024Z"/>
                  <path id="path8828-0-7" class="cls-4" d="M1321.714,138.158c19.081-2.08,58.253-9.872,71.407-22.726,6.131-5.993,23.318-22.726,23.318-22.726-3.651,37.786-23.011,62.276-64.123,78.875-32.8,13.247-70.67,16.308-106.388,13.367-22.489-1.849-64.123-13.367-64.123-13.367,22.838,24.479,11.232,41.757-17.487,53.474,0,0,4.254-23.442-4.392-26.735-18.605-7.102-39.584,2.173-59.343,13.016-14.594,8.027-36.695,11.767-51.578,11.606-24.796-.273-38.54-.555-61.727-8.619-13.984-4.859-38.244-23.401-48.523-21.561-22.189,3.977-50.21,6.214-62.839,23.419-4.392,5.979-3.838,15.337,0,21.616,8.632,14.093,28.031,21.454,45.165,25.219,50.964,11.199,92.566,11.125,142.861,4.022,51.839-7.329,112.378-22.005,164.21-30.859,51.377-8.78,117.616-25.371,156.551-33.389,68.811-14.172,99.682-16.119,151.172-15.365,90.182,1.341,119.705,45.239,116.957,93.178-2.822,49.245-57.166,71.54-103.689,85.357-81.803,24.289-194.121,10.459-264.71,8.799,0,0,23.664,18.176,34.395,26.489,12.576,9.733,18.859,30.092,34.395,35.063,21.311,6.811,53.91-6.696,76.441-7.888,31.506-1.664,85.038,1.757,85.038,1.757,8.198-7.657,13.507-12.975,22.027-15.263,6.106-1.664,15.719-1.757,20.626-.018,9.701,3.375,16.231,13.866,12.16,33.356,0,0,6.724,8.638,16.982,10.625,10.862,2.127,23.544.249,29.735,2.035,10.209,2.959,26.75,12.267,26.75,12.267,0,0-17.529,5.096-24.821,9.169-4.995,2.775-11.652,12.021-11.652,12.021,0,0,24.013.38,34.042,4.439,10.742,4.393,20.669,16.729,20.669,16.729,0,0-14.46-.925-21.35,3.051-5.267,3.051-13.91,11.448-13.91,11.448,0,0,28.105-2.08,37.69,5.576,8.484,6.793,18.235,18.958,18.235,18.958,0,0-15.166-.294-22.341,1.618-4.671,1.249-12.915,6.205-12.915,6.205,0,0,19.43,9.289,27.96,20.072,6.815,8.614,8.512,27.882,8.512,27.882,0,0-11.44-7.865-18.471-10.755-4.392-1.804-14.358-1.526-14.358-1.526l4.533,39.557c1.111,9.728,15.984,20.257,18.64,27.78,3.33,9.488,2.498,13.053-3.514,21.372-7.683,10.648-23.554,12.827-37.273,10.685-7.57-1.202-18.21-9.945-18.21-9.945,0,0-7.75,13.127-12.971,17.15-8.745,6.737-12.506,5.886-23.918,5.484-8.752-.309-16.545-1.804-22.602-7.62-6.974-6.681-11.804-26.679-11.804-26.679l-26.909,4.878c-5.845,1.064-23.554-7.116-25.526-12.272-4.117-10.806-4.533-21.727,3.514-30.49,7.63-8.323,28.722-8.757,39.468-13.34,13.769-5.872,27.008-22.869,27.008-22.869,0,0-44.957-31.724-64.401-51.455-10.689-10.848-29.082-36.209-29.082-36.209,0,0-57.328,15.841-78.942,19.055-53.317,7.935-110.102,0-110.102,0-81.493,0-135.717-114.807-209.816-141.02-22.616-7.999-33.259-6.746-56.916-1.896-85.864,17.571-177.531,117.385-262.597,137.969-34.921,8.448-108.025,11.435-108.025,11.435,0,0-11.969,23.65-23.29,30.402-12.308,7.343-43.218,7.824-43.218,7.824,0,0-7.902,28.279-16.961,39.025-9.461,11.227-35.46,22.102-35.46,22.102,3.838-12.901,6.128-22.772.695-39.076,0,0-12.929,22.564-25.495,33.245-10.943,9.303-37.644,20.793-37.644,20.793,2.127-12.031,8.269-23.452,0-37.073,0,0-10.985,22.795-20.545,31.22-9.535,8.406-34.758,17.561-34.758,17.561,4.886-13.007,8.008-26.013,0-39.021,0,0-10.449,23.374-19.811,31.22-12.929,10.834-44.022,22.694-44.022,22.694,5.242-13.418,10.287-26.837,6.41-40.255l-21.148-.036c-25.533-.045-27.156,21.454-39.044,31.243-11.677,9.613-30.641,9.83-39.729,6.834-16.03-5.285-30.282-23.859-10.819-51.165-33.661,3.606-51.201-17.427-51.113-36.126.081-17.964,6.636-33.823,40.582-31.909,0,0-4.392-15.554-2.681-23.743,2.406-11.398,12.16-21.288,25.392-20.178,5.443.455,15.536,4.022,20.154,8.961,7.306,7.846,9.32,19.263,21.473,27.78,13.761,9.64,46.477,8.864,46.477,8.864,0,0,63.586-34.3,105.527-48.141,22.32-7.366,85.698-18.496,85.698-18.496l1.99-155.2c38.085,2.358,21.709,2.682,53.914,1.711,46.266-1.387,167.808,17.321,167.808,17.321l86.541-5.904s144.349-21.708,213.023-28.497c34.596-3.422,69.552-5.877,104.292-4.069,52.326,2.728,97.269,15.661,146.452,18.319,41.355,2.22,69.601,6.441,110.949,4.069,59.036-3.375,164.563.601,198.097-52.617,8.703-13.806,4.254-32.723-8.752-43.357-17.137-14.029-29.326-19.314-52.178-14.491-12.054,2.543-27.382,10.986-28.885,21.366-.833,5.632.205,12.669,5.359,19.314,8.858,11.43,18.87,14.874,18.87,14.874,0,0-25.611,3.422-37.273-5.127-12.273-9.007-23.293-37.61-23.293-37.61-5.771,7.301-10.012,15.3-9.038,25.695.833,8.956-.035,14.561,10.904,28.154,0,0-27.093-1.757-40.064-15.383-8.72-9.174-15.843-36.755-15.843-36.755-7.69,6.959-12.379,18.232-12.707,26.541-.462,11.999,5.196,17.265,8.047,29.874,0,0-26.708-7.199-37.273-20.511-8.198-10.334-12.573-37.471-12.573-37.471-30.719,7.024-89.36,16.956-153.221,29.532-44.989,8.864-113.694,22.481-162.252,28.08-83.391,9.613-144.102,4.638-195.367-15.319-26.676-10.385-38.695-20.377-45.571-43.958-3.884-13.386,1.849-32.348,15.088-47.115,18.457-20.585,50.523-35.992,86.337-44.134,0,0,94.863-23.364,150.106-28.076,88.58-7.551,124.601,3.791,161.617,8.083,24.059,2.775,49.941-1.757,57.515-10.075,6.375-6.982,16.922-14.505,2.727-31.336,0,0,18.005.329,29.957,20.609,4.882,8.281-1.157,27.424-1.157,27.424h0l.071.01Z"/>
                  <path id="path8836-0-4" class="cls-2" d="M1321.714,138.158c19.081-2.08,58.253-9.872,71.407-22.726,6.131-5.993,23.318-22.726,23.318-22.726-3.651,37.786-23.011,62.276-64.123,78.875-32.8,13.247-70.67,16.308-106.388,13.367-22.489-1.849-64.123-13.367-64.123-13.367,22.838,24.483,11.232,41.762-17.487,53.474,0,0,4.254-23.442-4.392-26.735-18.605-7.102-39.584,2.173-59.343,13.016-14.594,8.027-36.691,11.767-51.578,11.606-24.796-.273-38.54-.555-61.727-8.619-13.987-4.859-38.244-23.401-48.523-21.561-22.189,3.977-50.213,6.214-62.839,23.415-4.392,5.979-3.838,15.337,0,21.616,8.636,14.093,28.031,21.454,45.165,25.219,50.964,11.199,92.566,11.125,142.861,4.022,51.839-7.329,112.378-22.005,164.21-30.859,51.377-8.78,117.616-25.366,156.551-33.389,68.811-14.172,99.682-16.119,151.172-15.369,90.182,1.341,119.705,45.239,116.957,93.178-2.822,49.244-57.166,71.54-103.689,85.357-81.803,24.289-194.121,10.459-264.71,8.799,0,0,23.664,18.176,34.395,26.489,12.576,9.733,18.859,30.092,34.395,35.063,21.311,6.811,53.91-6.696,76.441-7.888,31.506-1.664,85.038,1.757,85.038,1.757,8.198-7.657,13.507-12.975,22.027-15.263,6.106-1.664,15.719-1.757,20.626-.019,9.701,3.375,16.231,13.866,12.16,33.356,0,0,6.724,8.638,16.982,10.625,10.862,2.127,23.544.249,29.735,2.035,10.209,2.959,26.75,12.267,26.75,12.267,0,0-17.529,5.096-24.821,9.169-4.995,2.775-11.652,12.021-11.652,12.021,0,0,24.013.38,34.042,4.439,10.742,4.393,20.669,16.729,20.669,16.729,0,0-14.46-.925-21.35,3.051-5.267,3.051-13.91,11.448-13.91,11.448,0,0,28.105-2.08,37.69,5.576,8.484,6.793,18.235,18.958,18.235,18.958,0,0-15.166-.294-22.341,1.618-4.671,1.249-12.915,6.205-12.915,6.205,0,0,19.43,9.289,27.96,20.072,6.815,8.614,8.512,27.882,8.512,27.882,0,0-11.44-7.865-18.471-10.755-4.392-1.804-14.358-1.526-14.358-1.526l4.533,39.557c1.111,9.728,15.984,20.257,18.64,27.78,3.33,9.488,2.498,13.053-3.514,21.372-7.683,10.648-23.554,12.827-37.273,10.685-7.57-1.202-18.213-9.945-18.213-9.945,0,0-7.743,13.127-12.971,17.15-8.745,6.741-12.961,8.6-24.373,8.203-8.752-.309-16.09-4.531-22.147-10.339-6.974-6.681-11.804-26.679-11.804-26.679l-26.909,4.878c-5.845,1.064-23.554-7.116-25.526-12.272-4.117-10.806-4.533-21.727,3.514-30.49,7.63-8.323,28.722-8.757,39.468-13.34,13.769-5.872,27.008-22.869,27.008-22.869,0,0-44.957-31.724-64.401-51.455-10.689-10.848-29.082-36.209-29.082-36.209,0,0-57.328,15.841-78.942,19.055-53.317,7.935-110.102,0-110.102,0-81.493,0-135.717-114.807-209.82-141.019-22.616-7.999-33.259-6.746-56.916-1.896-85.864,17.571-177.531,117.385-262.597,137.969-34.921,8.448-108.025,11.435-108.025,11.435,0,0-11.969,23.65-23.29,30.402-12.308,7.343-43.218,7.824-43.218,7.824,0,0-7.906,28.279-16.961,39.021-9.461,11.227-35.46,22.102-35.46,22.102,3.838-12.901,6.128-22.772.695-39.076,0,0-12.929,22.564-25.495,33.245-10.943,9.303-37.644,20.793-37.644,20.793,2.127-12.031,8.269-23.452,0-37.073,0,0-10.992,22.795-20.545,31.22-9.535,8.406-34.758,17.561-34.758,17.561,4.886-13.007,8.008-26.013,0-39.021,0,0-10.449,23.374-19.811,31.22-12.929,10.834-44.022,22.694-44.022,22.694,5.242-13.418,10.287-26.837,6.41-40.255l-21.148-.036c-25.533-.045-27.16,21.454-39.044,31.243-11.677,9.613-30.641,9.83-39.729,6.834-16.03-5.285-30.282-23.859-10.819-51.165-33.661,3.606-51.201-17.427-51.113-36.126.081-17.964,6.636-33.823,40.582-31.909,0,0-4.392-15.554-2.681-23.743,2.406-11.398,12.16-21.288,25.392-20.178,5.443.455,15.536,4.022,20.154,8.961,7.306,7.846,9.32,19.263,21.473,27.78,13.754,9.64,46.474,8.864,46.474,8.864,0,0,63.586-34.3,105.527-48.141,22.32-7.366,85.698-18.496,85.698-18.496l1.99-155.2c38.085,2.358,21.706,2.682,53.914,1.711,46.266-1.387,167.808,17.321,167.808,17.321l86.541-5.904s144.353-21.708,213.023-28.497c34.596-3.422,69.552-5.877,104.292-4.069,52.326,2.728,97.269,15.661,146.452,18.319,41.355,2.22,69.601,6.441,110.949,4.069,59.036-3.375,164.563.601,198.097-52.616,8.703-13.806,4.254-32.723-8.752-43.357-17.137-14.033-29.326-19.314-52.178-14.491-12.054,2.543-27.382,10.986-28.885,21.366-.833,5.632.205,10.593,5.359,17.242,8.858,11.43,18.87,16.946,18.87,16.946,0,0-29.752,1.341-41.415-7.199-12.273-9.007-19.152-35.539-19.152-35.539-5.771,7.301-10.012,15.3-9.038,25.695.833,8.956-.035,14.561,10.904,28.154,0,0-27.093-1.757-40.064-15.383-8.72-9.174-15.843-36.755-15.843-36.755-7.69,6.959-12.379,18.232-12.707,26.541-.462,11.999,5.196,17.265,8.047,29.874,0,0-26.708-7.199-37.273-20.516-8.198-10.33-12.573-37.471-12.573-37.471-30.719,7.024-89.36,16.956-153.221,29.532-44.989,8.864-113.694,22.481-162.252,28.08-83.391,9.613-144.102,4.638-195.367-15.319-26.676-10.385-38.695-20.377-45.571-43.958-3.884-13.386,1.849-32.352,15.088-47.116,18.457-20.585,50.523-35.992,86.337-44.13,0,0,94.863-23.364,150.106-28.076,88.58-7.551,124.601,3.791,161.617,8.083,24.059,2.775,49.945-1.757,57.515-10.075,6.375-6.982,16.922-14.505,2.727-31.336,0,0,18.005.329,29.957,20.609,4.882,8.281-1.157,27.424-1.157,27.424l.081.024Z"/>
                  <path id="path8838-6-5" class="cls-4" d="M704.856,359.21c16.982,10.565,35.637-3.283,39.478-4.694,0,0-8.128-5.673-13.634-19.309-3.701-9.169-4.981-25.366-5.323-32.958-1.249-28.206,9.983-32.579,10.347-30.443,0,0,18.686-6.404,26.433-12.373,7.348-5.65,10.742-15.462,12.767-24.502,3.051-13.557-2.311-33.476-2.311-33.476-27.153-1.572-34.053,2.035-40.417,10.339,0,0-.554-13.853-4.346-26.508-1.894-6.307-6.223-15.698-10.675-21.774-4.579-6.247-9.235-9.1-9.235-9.1-.169,7.195-6.636,13.769-9.941,18.787,0,0-2.773-27.553-9.662-37.439-5.33-7.625-20.041-17.774-19.935-17.742.109.036-16.721.971-25.315,4.531-11.144,4.624-28.313,26.332-28.313,26.332-.081-6.011-1.99-15.032,1.757-21.186,0,0-5.461-.108-12.682,2.682-7.024,2.728-15.744,8.295-20.725,12.596-9.997,8.628-17.931,19.998-17.931,19.998-.448-10.889-4.163-17.159-28.483-30.48,0,0-15.233,13.903-19.974,26.961-3.143,8.706-5.581,18.805-2.452,27.521,3.33,9.206,15.606,24.668,15.606,24.668,1.478-1.618,8.583,8.147-7.68,31.224-4.392,6.214-14.181,19.17-22.235,24.899-11.98,8.526-21.889,8.924-21.889,8.924,6.046,15.735,7.697,22.176,30.733,25.219-52.499,37.675-58.454,97.78-18.15,148.981,2.635-6.15,11.627-20.109,16.94-25.473-.554-.444.695,29.588,15.659,44.884,4.865,4.962,7.228,32.575,14.252,41.258,6.41,7.921,15.412,16.54,15.412,16.54,0,0,6.985-21.898,17.233-25.311,10.315-3.422,29.587-8.947,35.947-10.953,12.795-4.022,35.58-31.298,35.58-31.298l-4.022,33.337c69.065-24.487,84.83-71.381,67.149-134.655l.035-.007Z"/>
                  <path id="path8840-6-6" class="cls-6" d="M570.952,274.148c3.006,19.753-6.449,58.858-13.91,69.524l44.897,18.005,44.304,5.114c-3.605-18.144,14.135-53.597,22.986-65.653l-32.564.693-14.538-14.528-26.595,5.904-24.581-19.064v.003Z"/>
                  <path id="path8842-6-8" class="cls-7" d="M579.803,285.36c-5.867,21.242-2.498,25.163-1.386,33.555l12.95-27.738-11.55-5.817h-.014ZM642.67,305.811l-3.651,30.397c5.359-6.552,10.297-8.101,16.527-29.237l-12.873-1.156-.004-.004ZM578.473,327.21c-5.359,6.552-10.297,8.106-16.527,29.245l12.873,1.156,3.651-30.397.004-.004ZM634.951,343.337l-12.95,27.738,11.55,5.817c5.867-21.242,2.498-25.163,1.386-33.555h.014Z"/>
                  <path id="path8846-7-6" class="cls-7" d="M584.118,196.394c-8.41-.462-14.333,2.589-16.245,9.257-2.543,8.91,3.701,18.504,16.894,22.268,13.197,3.746,26.052-2.959,28.588-11.869,2.543-8.91-6.865-14.241-20.062-18.005-3.284-.925-6.382-1.48-9.183-1.664l.007.013ZM676.592,223.157c-6.607-.265-11.426,1.664-13.017,7.218-2.543,8.91,4.819,21.403,18.016,25.167,13.197,3.746,23.568-1.064,26.112-9.992,2.543-8.91-4.392-16.109-17.589-19.878-4.946-1.433-9.553-2.358-13.522-2.497v-.019Z"/>
                  <path id="path8848-7-0" class="cls-11" d="M584.252,194.124c-3.051-.151-5.881.121-8.368.833-4.974,1.433-8.604,4.948-10.061,10.062-1.478,5.114-.314,10.459,2.914,14.921,3.238,4.439,8.512,8.184,15.501,10.177,14.227,4.069,28.169-3.006,31.171-13.53,1.478-5.257-.741-9.922-4.868-13.173-4.117-3.237-9.782-5.669-16.517-7.588-3.422-.971-6.717-1.572-9.779-1.711l.007.009ZM584.1,198.517c2.635.156,5.546.693,8.717,1.572,6.47,1.849,11.74,4.3,15,6.861,3.238,2.589,4.392,4.781,3.33,8.429-2.081,7.301-13.532,13.959-25.699,10.487-6.209-1.757-10.594-4.846-13.137-8.351-2.543-3.514-3.33-7.486-2.265-11.277,1.062-3.791,3.422-6.048,7.207-7.135,1.894-.555,4.209-.74,6.819-.601l.028.014ZM676.723,220.989c-1.386-.036-2.773.018-4.067.168-5.207.601-9.581,3.375-11.084,8.619-3.006,10.514,5.105,23.882,19.335,27.942,6.985,1.988,13.423,1.618,18.527-.461,5.105-2.08,8.904-6.011,10.361-11.125,1.478-5.114.24-10.029-3.238-13.866-3.468-3.838-9.013-6.88-15.868-8.84-5.048-1.433-9.743-2.312-13.973-2.451l.007.014ZM676.501,225.474c3.651.087,8.128.833,12.978,2.22,6.339,1.804,11.052,4.439,13.705,7.356,2.635,2.913,3.422,6.085,2.356,9.877s-3.838,6.756-7.856,8.388c-4.022,1.618-9.359,1.942-15.568.16-12.167-3.468-18.379-15.171-16.294-22.471,1.062-3.653,3.143-4.919,7.288-5.391,1.016-.118,2.173-.162,3.376-.132l.014-.005Z"/>
                  <path id="path8850-7-0" class="cls-4" d="M584.661,176.558c-6.029-.833-13.285.216-17.653,4.439-2.635,2.543-3.051,10.63-3.051,10.63l9.454.111,10.629,3.051,22.933,10.283,25.135-1.433s-13.733-5.618-20.45-9.423c-9.073-5.133-16.686-16.243-27.019-17.635l.021-.023ZM705.068,210.922c-8.678-2.22-18.626,2.404-27.738,1.988-7.712-.316-22.877-2.959-22.877-2.959l20.584,14.495,24.909,3.375,10.368,2.959,8.085,4.896s3.93-7.093,3.051-10.635c-1.478-5.9-7.098-10.602-12.647-13.095-1.203-.555-2.498-.74-3.701-1.064l-.035.039Z"/>
                  <path id="path8852-6-2" class="cls-4" d="M559.244,344.413c-24.108,58.313,69.16,87.803,82.805,23.632-25.039-1.757-51.25-6.312-82.805-23.632Z"/>
                  <path id="path8854-7-8" class="cls-8" d="M556.972,338.467l-1.894,4.633c-6.463,15.629-5.02,30.045,1.203,41.157,6.209,11.111,16.989,18.736,28.976,22.356,11.991,3.606,25.265,3.191,36.716-2.728,11.454-5.956,20.651-17.635,24.288-34.748l1.111-4.859-5.087-.302c-24.718-1.711-50.128-6.159-81.066-23.137l-4.209-2.358h0s-.039-.012-.039-.012ZM559.886,345.601c27.273,13.941,59.978,20.812,82.124,22.782-3.701,11.874-11.088,26.06-19.102,30.226-9.119,4.739-26.789,5.993-36.815,2.959-10.019-3.006-22.99-15.476-27.915-24.293-4.346-7.782-1.849-20.243,1.711-31.687h0s-.004.013-.004.013Z"/>
                  <path id="path8856-9-4" class="cls-1" d="M597.597,293.348c-11.617,38.364-21.723,81.726-13.857,121.664,27.766-29.773,41.962-71.567,52.344-110.281.049-1.572-7.63-5.022-8.611-6.256-2.406-3.051-6.487-10.209-6.487-10.209,0,0-7.757,4.901-12.142,5.937-3.746.878-11.25-.878-11.25-.878l.004.023Z"/>
                  <path id="path8858-4-9" class="cls-4" d="M667.59,117.777c.109.036-16.714.971-25.311,4.531-11.144,4.624-28.306,26.337-28.306,26.337-.081-6.011-1.99-15.037,1.757-21.186,0,0-5.457-.104-12.678,2.682-7.024,2.728-15.744,8.29-20.729,12.59-9.997,8.628-17.928,19.998-17.928,19.998,8.809-.308,28.391-17.973,35.965-16.257,6.427,1.433,1.99,18.648,8.174,19.434,8.463,1.064,15.984-12.17,26.507-21.436,9.331-8.217,22.302-14.468,28.5-12.438,6.24,2.035,13.991,14.232,17.289,26.143,3.884,14.08,6.77,29.25,13.239,32.413,6.424,3.144,11.998-14.311,18.538-12.119,7.764,2.589,11.366,29.185,18.785,33.088,0,0-.554-13.858-4.346-26.508-1.894-6.307-6.223-15.693-10.671-21.774-4.579-6.247-9.239-9.095-9.239-9.095-.169,7.195-6.632,13.765-9.937,18.787,0,0-2.773-27.553-9.662-37.439-5.33-7.625-20.044-17.769-19.938-17.742l-.007-.008ZM555.621,216.103c-9.571,16.234,2.452,31.826,21.815,35.294l-7.5,19.087,10.996,21.533,20.034,6.978,18.954-7.49,12.594,17.103,17.589,3.977,22.634-13.608,9.052-15.328,14.139-.878,12.082-5.799,4.3-15.055c-11.236,8.05-22.327,15.924-45.087,6.464-.649,12.054-3.605,19.54-7.768,23.813-4.981,5.1-11.715,5.618-18.39,3.884-8.318-2.173-15.437-11.592-18.732-16.581-8.23,4.929-15.264,8.675-20.355,7.014-10.636-3.468-16.598-9.798-18.344-17.103-1.849-7.735,1.062-16.562,8.138-24.238-42.138-11.13-27.022-22.351-36.155-29.043l.004-.024ZM533.855,221.564c-4.392,6.214-25.809,40.458-33.866,46.191-11.98,8.526-21.889,8.92-21.889,8.92,6.046,15.735,7.694,22.18,30.73,25.223-52.499,37.675-58.454,97.78-18.15,148.981,2.635-6.15,11.624-20.109,16.94-25.468-.554-.444.695,29.592,15.666,44.888,4.861,4.962,7.232,32.566,14.255,41.249,6.41,7.921,15.405,16.544,15.405,16.544,0,0,6.992-21.898,17.233-25.311,10.315-3.422,29.583-8.943,35.94-10.949,12.795-4.022,35.577-31.303,35.577-31.303l-3.976,33.342c69.065-24.487,84.83-71.382,67.146-134.656,16.982,10.565,35.637-3.283,39.478-4.688,0,0-8.135-5.682-13.634-19.318-3.701-9.169-4.72-25.376-5.316-32.954l-1.619-20.761s-7.81,23.314-9.662,29.805c-1.849,6.492.649,29.565.649,29.565-11.218-3.977-22.51-7.634-32.405-16.225,0,0,11.871,46.826,13.144,69.13.695,12.054-3.422,33.457-8.061,44.601-4.925,11.809-28.909,29.921-28.909,29.921,0,0,5.761-29.967,5.644-40.25-.159-14.602-5.951-51.686-5.951-51.686,0,0-8.29,38.007-14.876,49.335-7.496,12.891-21.24,35.622-21.24,35.622,3.838-36.347,1.944-38.442-2.773-52.185,0,0-8.611,45.216-24.581,64.649-3.976,4.851-19.12,8.739-27.766,13.247-9.599,5.003-12.562,10.38-12.562,10.38,0,0-9.052-25.297-11.567-31.146-5.577-12.942-16.64-26.536-20.418-40.116-5.546-19.956,21.205-62.866,21.205-62.866-9.906.18-19.819,11.814-30.5,24.636-8.724,10.473-18.69,21.533-23.501,29.513,0,0-8.555-31.179-8.41-40.426.198-13.109,5.133-26.245,11.871-37.49,10.936-18.25,59.018-55.717,59.018-55.717-13.232,3.56-25.209,8.267-50.301.971,0,0,19.85-23.285,23.106-28.76,9.973-16.785,6.216-23.147,8.946-34.434l-.018-.004ZM623.448,240.72c-9.952-.18-22.468,1.156-22.468,1.156l1.341,8.6,9.034,3.514,12.227,18.195,31.132-8.346,4.163-7.13s-17.564-13.048-26.87-15.166c-2.173-.509-5.221-.74-8.537-.786l-.021-.038Z"/>
                  <path id="path8860-6-1" class="cls-2" d="M704.856,359.21c16.982,10.565,35.637-3.283,39.478-4.694,0,0-8.128-5.673-13.634-19.309-3.701-9.169-4.981-25.366-5.323-32.958-1.249-28.206,9.983-32.579,10.347-30.443,0,0,18.686-6.404,26.433-12.373,7.348-5.65,10.742-15.462,12.767-24.502,3.051-13.557-2.311-33.476-2.311-33.476-27.153-1.572-34.053,2.035-40.417,10.339,0,0-.554-13.853-4.346-26.508-1.894-6.307-6.223-15.698-10.675-21.774-4.579-6.247-9.235-9.1-9.235-9.1-.169,7.195-6.636,13.769-9.941,18.787-3.051-25.431-8.735-39.949-29.597-55.182-24.232.555-38.233,12.35-53.624,30.85-.081-6.011-1.99-15.032,1.757-21.186,0,0-5.461-.108-12.682,2.682-7.024,2.728-15.744,8.295-20.725,12.596-9.997,8.628-17.931,19.998-17.931,19.998-.448-10.889-4.163-17.159-28.483-30.48,0,0-15.233,13.903-19.974,26.961-3.143,8.706-5.581,18.805-2.452,27.521,3.33,9.206,15.606,24.668,15.606,24.668,1.478-1.618,8.583,8.147-7.68,31.224-4.392,6.214-14.181,19.17-22.235,24.899-11.98,8.526-21.889,8.924-21.889,8.924,6.046,15.735,7.697,22.176,30.733,25.219-52.499,37.675-58.454,97.78-18.15,148.981,2.635-6.15,11.624-20.109,16.94-25.473-.554-.444.695,29.588,15.659,44.884,4.865,4.962,7.228,32.575,14.252,41.258,6.41,7.921,15.412,16.54,15.412,16.54,0,0,6.985-21.898,17.233-25.311,10.315-3.422,29.587-8.947,35.947-10.953,12.795-4.022,35.58-31.294,35.58-31.294l-4.022,33.337c69.065-24.483,84.83-71.382,67.149-134.656l.032.004Z"/>
                  <path id="path8862-2-0" class="cls-8" d="M536.73,151.321s-11.073,17.103-9.433,28.237c1.295,8.85,16.534,28.779,16.534,28.779,0,0,9.362-28.931,7.888-39.681-1.062-7.883-14.989-17.33-14.989-17.33v-.005ZM574.17,188.247c-1.99.071-3.976.555-6.046,1.572-4.117,2.035-6.946,2.635-8.696,8.776,5.076-.833,8.354-2.635,12.516-4.531,1.016-.509,2.543-.509,5.189.509,5.316,2.035,12.696,7.972,20.852,10.33,11.677,3.375,26.775-.601,32.723-1.249-.649,2.451-1.803,9.654-4.392,13.423-1.341,1.942-11.024,5.632-15.494,9.877-2.219,2.127-4.438,4.3-6.279,6.302-1.849,2.035-3.422,3.653-4.346,6.187-1.894,5.151-.833,10.611-.833,10.611l.212,2.913,2.773.878c10.294,3.375,12.079,7.116,14.64,15.124l.399,1.249.924.74c1.111.971,1.894,1.711,2.868,2.358.97.601,2.219,1.109,3.376,1.249,2.265.264,2.681-.19,4.776-.071l1.757.124,1.386-1.202c6.399-5.451,9.99-7.68,20.506-5.096l2.727.693,1.803-2.358s3.651-4.115,4.794-9.483c.554-2.682-.741-4.022-1.249-6.727-.508-2.682-1.203-5.678-1.99-8.66-1.573-5.964-6.516-16.849-6.621-19.175-.208-4.577,2.173-10.662,2.914-13.076,4.748,3.699,15.427,16.206,27.057,19.484,8.17,2.312,17.564,1.156,23.166,2.22,2.822.509,4.067,1.341,4.678,2.266l8.255,10.454c1.757-6.122-.332-10.029-2.773-13.927-2.452-3.884-4.625-3.468-8.537-4.208-7.874-1.48-16.965-.555-22.351-2.08-13.261-3.746-26.003-17.936-26.003-17.936l-3.746-3.283-2.822,4.162s-5.105,7.708-4.533,19.938c.215,4.73,4.907,13.963,6.438,19.822.787,2.913,1.478,5.78,1.894,8.059.427,2.266.342,4.162.356,4.115-.212,1.017-1.203,2.451-2.035,3.884-9.93-1.433-20.926,3.237-27.068,8.11-1.062.018-2.543-.066-2.452-.036-.134-.093-.508-.462-.833-.74-2.635-7.477-11.031-18.948-20.337-23.008.011-1.664-.06-3.375.3-4.393-.018.05.97-1.572,2.543-3.283,1.573-1.711,3.651-3.746,5.859-5.849,4.392-4.162,13.589-8.258,16.266-12.165,6.925-10.094,6.657-19.337,6.657-19.337l-.275-5.026-4.893.786s-16.993,5.419-30.229,1.618c-5.376-1.572-12.615-7.13-20.09-10.02-1.849-.74-3.792-1.064-5.754-1.017l.071.102ZM556.214,211.972c-7.249,9.774-8.389,20.234-4.163,28.326,3.514,6.751,10.58,11.019,18.827,13.751-.462,1.341-.6,1.526-1.157,3.468-1.249,4.208-2.543,9.127-2.035,13.881,1.016,9.747,6.463,17.579,13.465,23.553,6.113,5.216,14.347,7.407,21.985,7.028,4.706-.234,8.879-2.035,12.206-3.746,1.203-.601,1.341-.786,2.265-1.341,1.849,3.791,4.657,8.438,9.895,12.064,6.29,4.346,14.351,6.807,22.295,5.604,9.105-1.387,17.847-5.165,23.865-12.901,2.96-3.791,4.438-8.642,5.584-12.882.413-1.526.335-1.572.6-2.775,8.865,2.635,17.243,1.849,23.561-2.497,7.517-5.197,11.603-14.695,11.327-25.995-6.484,3.283-.695,12.932-14.922,21.746-4.625,3.191-11.324,3.884-19.995.009l-6.604-5.424.427,9.391s-.554,3.191-1.619,6.968c-1.016,3.791-2.822,8.221-4.022,9.798-4.392,5.613-11.902,8.429-19.522,9.585-5.108.786-11.384-1.017-15.949-4.162-4.392-3.051-8.361-11.37-8.555-12.198l-2.173-9.077-4.579,5.082c-1.111,1.249-4.3,2.543-7.006,3.977-2.727,1.387-5.948,2.543-8.583,2.682-5.546.275-11.906-1.526-15.832-4.901-5.863-5.003-11.324-13.367-12.072-20.442-.212-1.988.6-6.686,1.757-10.45,1.111-3.791,3.33-6.774,3.33-6.774l3.746-4.841-7.57.462c-8.72-1.849-14.883-6.187-17.473-11.171-9.405-10.394-.924-17.94-1.295-25.764l-.011-.034ZM761.179,215.394s-16.802.693-21.879,6.82c-6.925,8.355-14.238,37.855-14.238,37.855,0,0,23.449-8.883,29.227-15.711,7.274-8.591,6.89-28.963,6.89-28.963Z"/>
                  <path id="path8864-6-9" class="cls-5" d="M591.423,202.34c-4.191-.033-7.884,2.735-9.034,6.764-1.411,4.949,1.457,10.106,6.406,11.517h.004c4.946,1.414,10.103-1.452,11.518-6.398,1.411-4.948-1.453-10.103-6.399-11.518-.811-.234-1.651-.356-2.498-.363l.004-.002ZM684.378,228.955c-4.085.088-7.637,2.827-8.759,6.756-1.415,4.948,1.446,10.107,6.396,11.522.004.002.011.003.014.004,4.949,1.411,10.107-1.457,11.518-6.405v-.004c1.411-4.948-1.453-10.103-6.399-11.518-.9-.257-1.834-.377-2.773-.355h.004Z"/>
                  <path id="path8866-2-5" class="cls-1" d="M235.745,517.033c-8.272,3.191-20.327-4.393-44.999,17.108,20.376-.693,27.078,2.497,40.152,15.975,8.685-1.064,13.391-4.791,15.183-9.724,3.605-9.932.007-18.537-10.329-23.359h-.007ZM816.426,544.548c-8.262,3.191-20.348-4.3-44.95,17.27,20.372-.786,27.086,2.404,40.205,15.841,8.678-1.109,13.373-4.836,15.151-9.78,3.559-9.945-.053-18.546-10.407-23.332h0ZM193.032,576.48c-6.343,6.182-20.401,4.022-34.568,33.513,18.439-8.698,25.858-8.397,43.189-1.202,7.56-4.393,10.407-9.696,10.107-14.94-.6-10.551-7.327-17.034-18.732-17.376l.004.005ZM826.501,622.224c-5.955,6.556-20.118,5.253-32.465,35.548,17.875-9.803,25.301-9.955,43.041-3.838,7.278-4.859,9.796-10.316,9.172-15.532-1.249-10.496-8.35-16.548-19.751-16.197l.004.019ZM237.83,647.081c-3.376-.144-7.013.74-10.823,2.682-2.589,8.471-15.952,13.344-14.195,46.012,11.984-16.493,18.626-19.804,37.288-21.829,4.484-7.495,4.484-13.506,1.665-17.959-3.514-5.599-8.343-8.651-13.956-8.892l.021-.014ZM1498.687,650.596c-2.406.1-4.928.647-7.599,1.664-3.514,8.137-17.307,11.518-19.124,44.185,13.716-15.088,20.683-17.649,39.45-17.626,5.299-6.959,5.909-12.938,3.605-17.668-3.468-7.139-9.197-10.848-16.354-10.551l.021-.004ZM898.035,672.679c-3.376.213-6.893,1.48-10.477,3.791-1.665,8.698-14.46,14.953-9.257,47.252,10.177-17.668,16.439-21.658,34.779-25.639,3.701-7.93,3.006-13.909-.229-18.042-4.067-5.197-9.207-7.722-14.816-7.366v.004ZM1646.162,674.899c-6.819-.509-12.83,3.051-16.993,10.514,2.589,8.48-5.821,19.961,13.839,46.109.787-20.372,4.438-26.827,18.813-38.9-.434-8.739-3.792-13.695-8.611-15.841-2.406-1.064-4.776-1.711-7.048-1.896v.014ZM1565.469,684.382c-4.346.33-8.671,2.497-12.65,6.603.268,8.854-10.819,17.75,1.341,48.123,6.054-19.471,11.282-24.733,28.306-32.644,1.849-8.549-.106-14.223-4.163-17.542-4.117-3.329-8.47-4.869-12.816-4.531l-.018-.008Z"/>
                </g>
                <g id="g3243">
                  <path id="path3203" class="cls-3" d="M491.474,1115.223s-28.423-.222-39.803-6.885c-12.379-7.246-25.629-32.866-25.629-32.866,0,0-31.336,5.086-45.743,1.988-15.056-3.283-36.596-20.479-36.596-20.479,14.389-2.127,25.138-4.3,39.076-15.569,0,0-27.742-1.48-43.542-7.551-13.754-5.294-36.205-22.846-36.205-22.846,12.827-3.191,26.694-2.775,36.797-15.328,0,0-27.17.245-39.478-4.254-12.29-4.485-31.799-21.774-31.799-21.774,14.929-1.295,29.135-4.069,38.734-16.132,0,0-27.519.925-39.178-3.653-16.097-6.321-40.727-27.392-40.727-27.392,15.487-1.156,30.892-2.497,42.607-11.287l-8.706-17.682c-10.509-21.343-32.525-13.816-47.158-19.698-14.365-5.78-22.422-21.529-23.209-30.36-1.386-15.573,6.579-39.363,41.725-34.397-17.48-26.633.741-45.762,19.318-53.424,17.861-7.361,33.636-5.35,45.772,23.799,0,0,16.305-13.187,25.138-15.143,12.294-2.728,26.158,1.341,30.525,12.868,1.803,4.735,2.452,14.635-.554,20.543-4.766,9.345-15.268,15.748-18.7,29.421-3.884,15.476,10.417,42.484,10.417,42.484,0,0,67.555,53.516,98.63,82.829,16.534,15.596,46.565,49.349,46.565,49.349l1.665-.971h66.959l5.979,112.982-72.864,1.433-.018-.008Z"/>
                  <path id="path3205" class="cls-1" d="M305.057,742.112c12.798,15.874,14.255,23.151,11.338,41.693,6.061,6.307,11.878,7.832,16.905,6.302,10.114-3.098,14.827-11.134,12.474-22.296-7.503-4.707-8.72-18.879-40.717-25.699ZM228.573,750.518c-5.284-.19-11.712.358-19.699,2.127,18.224,9.146,22.563,15.171,27.59,33.255,8.128,3.237,14.047,2.22,17.988-1.249,7.93-6.987,8.893-16.276,2.127-25.464-6.583-.878-12.156-8.083-28.006-8.651v-.019ZM205.911,822.362c-8.47,2.589-19.981-5.775-46.082,13.946,20.376.74,26.828,4.393,38.939,18.721,8.738-.452,13.702-3.838,15.832-8.642,4.3-9.659,1.295-18.496-8.689-24.025Z"/>
                  <path id="path3207" class="cls-3" d="M877.25,1167.059c-11.804-3.468-26.207-18.962-38.73-18.893-13.183.079-22.482,7.435-29.11,17.325-3.143,4.717,1.803,22.374,6.738,25.764l22.711,15.61s-14.213,16.331-15.293,25.528c-.924,7.99,3.097,14.398,8.798,20.706,7.468,8.221,9.299,11.402,21.191,13.132,7.101,1.017,23.914-2.08,23.914-2.08,0,0-.392,13.104,3.746,19.152,7.525,10.959,20.298,20.622,34.896,19.078,11.398-1.202,15.098-2.913,21.12-11.411,4.776-6.727,3.838-23.924,11.578-31.007l31.545-28.811c13.617,8.24,13.257,20.529,11.564,33.199,0,0,20.242-12.79,26.267-21.954,6.276-9.549,8.759-32.09,8.759-32.09,12.816,11.564,17.063,21.894,14.312,35.71,0,0,20.609-12.868,27.244-21.954,7.468-10.228,13.903-32.329,13.903-32.329,9.387,9.132,11.366,22.116,7.782,37.998,0,0,23.032-15.429,29.185-27.863,4.868-9.83,7.782-27.021,7.782-27.021,27.989,2.035,46.057-10.145,47.292-22.754.97-9.78-10.117-23.11-32.649-26.98,0,0-8.318-12.424-11.468-21.607-2.173-6.316-2.311-13.493,0-19.762,4.653-12.544,15.49-23.1,26.567-32.117,15.236-12.401,48.389-27.997,48.389-27.997l-9.701-48.573-112.914-17.293-124.809,30.762c22.75,10.436,73.7,46.127,69.538,59.648-1.573,5.059-12.396,9.854-17.578,16.632-3.838,4.989-.924,12.965,2.868,18.116,5.249,7.209,17.787,8.864,21.826,15.647,3.605,6.104,5.281,11.545.97,17.293-8.551,11.351-37.295,16.119-51.236,22.236-25.406,11.148-68.43,35.451-68.43,35.451-13.38,1.757-26.204-2.867-38.54-6.492h-.025Z"/>
                  <path id="path3209" class="cls-3" d="M1141.876,1014.184s-2.173,40.394-19.028,50.732c-7.263,4.439-17.441,6.298-25.368,3.191-7.68-3.051-13.045-11.264-15.853-19.022-1.803-4.971-4.759-17.441-4.759-17.441,0,0-25.791-11.8-39.634-12.683-20.376-1.295-60.242,11.097-60.242,11.097,6.805-21.158,25.117-38.483,44.389-55.486l66.585-4.754,53.903,44.389.007-.024Z"/>
                  <path id="path3211" class="cls-4" d="M1321.714,745.698c19.081-2.08,58.253-9.872,71.407-22.726,6.131-5.993,23.318-22.726,23.318-22.726-3.651,37.786-23.011,62.276-64.123,78.875-32.8,13.247-70.67,16.308-106.388,13.367-22.489-1.849-64.123-13.367-64.123-13.367,22.838,24.479,11.232,41.757-17.487,53.474,0,0,4.254-23.442-4.392-26.735-18.605-7.102-39.584,2.173-59.343,13.016-14.594,8.027-36.695,11.767-51.578,11.606-24.796-.273-38.54-.555-61.727-8.619-13.984-4.859-38.244-23.401-48.523-21.561-22.189,3.977-50.21,6.214-62.839,23.419-4.392,5.979-3.838,15.337,0,21.616,8.632,14.093,28.031,21.454,45.165,25.219,50.964,11.199,92.566,11.125,142.861,4.022,51.839-7.329,112.378-22.005,164.21-30.859,51.377-8.78,117.616-25.371,156.551-33.389,68.811-14.172,99.682-16.119,151.172-15.365,90.182,1.341,119.705,45.239,116.957,93.178-2.822,49.245-57.166,71.54-103.689,85.357-81.803,24.289-194.121,10.459-264.71,8.799,0,0,23.664,18.176,34.395,26.489,12.576,9.733,18.859,30.092,34.395,35.063,21.311,6.811,53.91-6.696,76.441-7.888,31.506-1.664,85.038,1.757,85.038,1.757,8.198-7.657,13.507-12.975,22.027-15.263,6.106-1.664,15.719-1.757,20.626-.018,9.701,3.375,16.231,13.866,12.16,33.356,0,0,6.724,8.638,16.982,10.625,10.862,2.127,23.544.249,29.735,2.035,10.209,2.959,26.75,12.267,26.75,12.267,0,0-17.529,5.096-24.821,9.169-4.995,2.775-11.652,12.021-11.652,12.021,0,0,24.013.38,34.042,4.439,10.742,4.393,20.669,16.729,20.669,16.729,0,0-14.46-.925-21.35,3.051-5.267,3.051-13.91,11.448-13.91,11.448,0,0,28.105-2.08,37.69,5.576,8.484,6.793,18.235,18.958,18.235,18.958,0,0-15.166-.294-22.341,1.618-4.671,1.249-12.915,6.205-12.915,6.205,0,0,19.43,9.289,27.96,20.072,6.815,8.614,8.512,27.882,8.512,27.882,0,0-11.44-7.865-18.471-10.755-4.392-1.804-14.358-1.526-14.358-1.526l4.533,39.557c1.111,9.728,15.984,20.257,18.64,27.78,3.33,9.488,2.498,13.053-3.514,21.372-7.683,10.648-23.554,12.827-37.273,10.685-7.57-1.202-18.21-9.945-18.21-9.945,0,0-7.75,13.127-12.971,17.15-8.745,6.737-12.506,5.886-23.918,5.484-8.752-.309-16.545-1.804-22.602-7.62-6.974-6.681-11.804-26.679-11.804-26.679l-26.909,4.878c-5.845,1.064-23.554-7.116-25.526-12.272-4.117-10.806-4.533-21.727,3.514-30.49,7.63-8.323,28.722-8.757,39.468-13.34,13.769-5.872,27.008-22.869,27.008-22.869,0,0-44.957-31.724-64.401-51.455-10.689-10.848-29.082-36.209-29.082-36.209,0,0-57.328,15.841-78.942,19.055-53.317,7.935-110.102,0-110.102,0-81.493,0-135.717-114.807-209.816-141.02-22.616-7.999-33.259-6.746-56.916-1.896-85.864,17.571-177.531,117.385-262.597,137.969-34.921,8.448-108.025,11.435-108.025,11.435,0,0-11.969,23.65-23.29,30.402-12.308,7.343-43.218,7.824-43.218,7.824,0,0-7.902,28.279-16.961,39.025-9.461,11.227-35.46,22.102-35.46,22.102,3.838-12.901,6.128-22.772.695-39.076,0,0-12.929,22.564-25.495,33.245-10.943,9.303-37.644,20.793-37.644,20.793,2.127-12.031,8.269-23.452,0-37.073,0,0-10.985,22.795-20.545,31.22-9.535,8.406-34.758,17.561-34.758,17.561,4.886-13.007,8.008-26.013,0-39.021,0,0-10.449,23.374-19.811,31.22-12.929,10.834-44.022,22.694-44.022,22.694,5.242-13.418,10.287-26.837,6.41-40.255l-21.148-.036c-25.533-.045-27.156,21.454-39.044,31.243-11.677,9.613-30.641,9.83-39.729,6.834-16.03-5.285-30.282-23.859-10.819-51.165-33.661,3.606-51.201-17.427-51.113-36.126.081-17.964,6.636-33.823,40.582-31.909,0,0-4.392-15.554-2.681-23.743,2.406-11.398,12.16-21.288,25.392-20.178,5.443.455,15.536,4.022,20.154,8.961,7.306,7.846,9.32,19.263,21.473,27.78,13.761,9.64,46.477,8.864,46.477,8.864,0,0,63.586-34.3,105.527-48.141,22.32-7.366,85.698-18.496,85.698-18.496l1.99-155.2c38.085,2.358,21.709,2.682,53.914,1.711,46.266-1.387,167.808,17.321,167.808,17.321l86.541-5.904s144.349-21.708,213.023-28.497c34.596-3.422,69.552-5.877,104.292-4.069,52.326,2.728,97.269,15.661,146.452,18.319,41.355,2.22,69.601,6.441,110.949,4.069,59.036-3.375,164.563.601,198.097-52.617,8.703-13.806,4.254-32.723-8.752-43.357-17.137-14.029-29.326-19.314-52.178-14.491-12.054,2.543-27.382,10.986-28.885,21.366-.833,5.632.205,12.669,5.359,19.314,8.858,11.43,18.87,14.874,18.87,14.874,0,0-25.611,3.422-37.273-5.127-12.273-9.007-23.293-37.61-23.293-37.61-5.771,7.301-10.012,15.3-9.038,25.695.833,8.956-.035,14.561,10.904,28.154,0,0-27.093-1.757-40.064-15.383-8.72-9.174-15.843-36.755-15.843-36.755-7.69,6.959-12.379,18.232-12.707,26.541-.462,11.999,5.196,17.265,8.047,29.874,0,0-26.708-7.199-37.273-20.511-8.198-10.334-12.573-37.471-12.573-37.471-30.719,7.024-89.36,16.956-153.221,29.532-44.989,8.864-113.694,22.481-162.252,28.08-83.391,9.613-144.102,4.638-195.367-15.319-26.676-10.385-38.695-20.377-45.571-43.958-3.884-13.386,1.849-32.348,15.088-47.115,18.457-20.585,50.523-35.992,86.337-44.134,0,0,94.863-23.364,150.106-28.076,88.58-7.551,124.601,3.791,161.617,8.083,24.059,2.775,49.941-1.757,57.515-10.075,6.375-6.982,16.922-14.505,2.727-31.336,0,0,18.005.329,29.957,20.609,4.882,8.281-1.157,27.424-1.157,27.424h0l.071.01Z"/>
                  <path id="path3213" class="cls-2" d="M1321.714,745.698c19.081-2.08,58.253-9.872,71.407-22.726,6.131-5.993,23.318-22.726,23.318-22.726-3.651,37.786-23.011,62.276-64.123,78.875-32.8,13.247-70.67,16.308-106.388,13.367-22.489-1.849-64.123-13.367-64.123-13.367,22.838,24.483,11.232,41.762-17.487,53.474,0,0,4.254-23.442-4.392-26.735-18.605-7.102-39.584,2.173-59.343,13.016-14.594,8.027-36.691,11.767-51.578,11.606-24.796-.273-38.54-.555-61.727-8.619-13.987-4.859-38.244-23.401-48.523-21.561-22.189,3.977-50.213,6.214-62.839,23.415-4.392,5.979-3.838,15.337,0,21.616,8.636,14.093,28.031,21.454,45.165,25.219,50.964,11.199,92.566,11.125,142.861,4.022,51.839-7.329,112.378-22.005,164.21-30.859,51.377-8.78,117.616-25.366,156.551-33.389,68.811-14.172,99.682-16.119,151.172-15.369,90.182,1.341,119.705,45.239,116.957,93.178-2.822,49.244-57.166,71.54-103.689,85.357-81.803,24.289-194.121,10.459-264.71,8.799,0,0,23.664,18.176,34.395,26.489,12.576,9.733,18.859,30.092,34.395,35.063,21.311,6.811,53.91-6.696,76.441-7.888,31.506-1.664,85.038,1.757,85.038,1.757,8.198-7.657,13.507-12.975,22.027-15.263,6.106-1.664,15.719-1.757,20.626-.019,9.701,3.375,16.231,13.866,12.16,33.356,0,0,6.724,8.638,16.982,10.625,10.862,2.127,23.544.249,29.735,2.035,10.209,2.959,26.75,12.267,26.75,12.267,0,0-17.529,5.096-24.821,9.169-4.995,2.775-11.652,12.021-11.652,12.021,0,0,24.013.38,34.042,4.439,10.742,4.393,20.669,16.729,20.669,16.729,0,0-14.46-.925-21.35,3.051-5.267,3.051-13.91,11.448-13.91,11.448,0,0,28.105-2.08,37.69,5.576,8.484,6.793,18.235,18.958,18.235,18.958,0,0-15.166-.294-22.341,1.618-4.671,1.249-12.915,6.205-12.915,6.205,0,0,19.43,9.289,27.96,20.072,6.815,8.614,8.512,27.882,8.512,27.882,0,0-11.44-7.865-18.471-10.755-4.392-1.804-14.358-1.526-14.358-1.526l4.533,39.557c1.111,9.728,15.984,20.257,18.64,27.78,3.33,9.488,2.498,13.053-3.514,21.372-7.683,10.648-23.554,12.827-37.273,10.685-7.57-1.202-18.213-9.945-18.213-9.945,0,0-7.743,13.127-12.971,17.15-8.745,6.741-12.961,8.6-24.373,8.203-8.752-.309-16.09-4.531-22.147-10.339-6.974-6.681-11.804-26.679-11.804-26.679l-26.909,4.878c-5.845,1.064-23.554-7.116-25.526-12.272-4.117-10.806-4.533-21.727,3.514-30.49,7.63-8.323,28.722-8.757,39.468-13.34,13.769-5.872,27.008-22.869,27.008-22.869,0,0-44.957-31.724-64.401-51.455-10.689-10.848-29.082-36.209-29.082-36.209,0,0-57.328,15.841-78.942,19.055-53.317,7.935-110.102,0-110.102,0-81.493,0-135.717-114.807-209.82-141.019-22.616-7.999-33.259-6.746-56.916-1.896-85.864,17.571-177.531,117.385-262.597,137.969-34.921,8.448-108.025,11.435-108.025,11.435,0,0-11.969,23.65-23.29,30.402-12.308,7.343-43.218,7.824-43.218,7.824,0,0-7.906,28.279-16.961,39.021-9.461,11.227-35.46,22.102-35.46,22.102,3.838-12.901,6.128-22.772.695-39.076,0,0-12.929,22.564-25.495,33.245-10.943,9.303-37.644,20.793-37.644,20.793,2.127-12.031,8.269-23.452,0-37.073,0,0-10.992,22.795-20.545,31.22-9.535,8.406-34.758,17.561-34.758,17.561,4.886-13.007,8.008-26.013,0-39.021,0,0-10.449,23.374-19.811,31.22-12.929,10.834-44.022,22.694-44.022,22.694,5.242-13.418,10.287-26.837,6.41-40.255l-21.148-.036c-25.533-.045-27.16,21.454-39.044,31.243-11.677,9.613-30.641,9.83-39.729,6.834-16.03-5.285-30.282-23.859-10.819-51.165-33.661,3.606-51.201-17.427-51.113-36.126.081-17.964,6.636-33.823,40.582-31.909,0,0-4.392-15.554-2.681-23.743,2.406-11.398,12.16-21.288,25.392-20.178,5.443.455,15.536,4.022,20.154,8.961,7.306,7.846,9.32,19.263,21.473,27.78,13.754,9.64,46.474,8.864,46.474,8.864,0,0,63.586-34.3,105.527-48.141,22.32-7.366,85.698-18.496,85.698-18.496l1.99-155.2c38.085,2.358,21.706,2.682,53.914,1.711,46.266-1.387,167.808,17.321,167.808,17.321l86.541-5.904s144.353-21.708,213.023-28.497c34.596-3.422,69.552-5.877,104.292-4.069,52.326,2.728,97.269,15.661,146.452,18.319,41.355,2.22,69.601,6.441,110.949,4.069,59.036-3.375,164.563.601,198.097-52.616,8.703-13.806,4.254-32.723-8.752-43.357-17.137-14.033-29.326-19.314-52.178-14.491-12.054,2.543-27.382,10.986-28.885,21.366-.833,5.632.205,10.593,5.359,17.242,8.858,11.43,18.87,16.946,18.87,16.946,0,0-29.752,1.341-41.415-7.199-12.273-9.007-19.152-35.539-19.152-35.539-5.771,7.301-10.012,15.3-9.038,25.695.833,8.956-.035,14.561,10.904,28.154,0,0-27.093-1.757-40.064-15.383-8.72-9.174-15.843-36.755-15.843-36.755-7.69,6.959-12.379,18.232-12.707,26.541-.462,11.999,5.196,17.265,8.047,29.874,0,0-26.708-7.199-37.273-20.516-8.198-10.33-12.573-37.471-12.573-37.471-30.719,7.024-89.36,16.956-153.221,29.532-44.989,8.864-113.694,22.481-162.252,28.08-83.391,9.613-144.102,4.638-195.367-15.319-26.676-10.385-38.695-20.377-45.571-43.958-3.884-13.386,1.849-32.352,15.088-47.116,18.457-20.585,50.523-35.992,86.337-44.13,0,0,94.863-23.364,150.106-28.076,88.58-7.551,124.601,3.791,161.617,8.083,24.059,2.775,49.945-1.757,57.515-10.075,6.375-6.982,16.922-14.505,2.727-31.336,0,0,18.005.329,29.957,20.609,4.882,8.281-1.157,27.424-1.157,27.424l.081.024Z"/>
                  <path id="path3215" class="cls-4" d="M704.856,966.75c16.982,10.565,35.637-3.283,39.478-4.694,0,0-8.128-5.673-13.634-19.309-3.701-9.169-4.981-25.366-5.323-32.958-1.249-28.206,9.983-32.579,10.347-30.443,0,0,18.686-6.404,26.433-12.373,7.348-5.65,10.742-15.462,12.767-24.502,3.051-13.557-2.311-33.476-2.311-33.476-27.153-1.572-34.053,2.035-40.417,10.339,0,0-.554-13.853-4.346-26.508-1.894-6.307-6.223-15.698-10.675-21.774-4.579-6.247-9.235-9.1-9.235-9.1-.169,7.195-6.636,13.769-9.941,18.787,0,0-2.773-27.553-9.662-37.439-5.33-7.625-20.041-17.774-19.935-17.742.109.036-16.721.971-25.315,4.531-11.144,4.624-28.313,26.332-28.313,26.332-.081-6.011-1.99-15.032,1.757-21.186,0,0-5.461-.108-12.682,2.682-7.024,2.728-15.744,8.295-20.725,12.596-9.997,8.628-17.931,19.998-17.931,19.998-.448-10.889-4.163-17.159-28.483-30.48,0,0-15.233,13.903-19.974,26.961-3.143,8.706-5.581,18.805-2.452,27.521,3.33,9.206,15.606,24.668,15.606,24.668,1.478-1.618,8.583,8.147-7.68,31.224-4.392,6.214-14.181,19.17-22.235,24.899-11.98,8.526-21.889,8.924-21.889,8.924,6.046,15.735,7.697,22.176,30.733,25.219-52.499,37.675-58.454,97.78-18.15,148.981,2.635-6.15,11.627-20.109,16.94-25.473-.554-.444.695,29.588,15.659,44.884,4.865,4.962,7.228,32.575,14.252,41.258,6.41,7.921,15.412,16.54,15.412,16.54,0,0,6.985-21.898,17.233-25.311,10.315-3.422,29.587-8.947,35.947-10.953,12.795-4.022,35.58-31.298,35.58-31.298l-4.022,33.337c69.065-24.487,84.83-71.381,67.149-134.655l.035-.007Z"/>
                  <path id="path3217" class="cls-6" d="M570.952,881.688c3.006,19.753-6.449,58.858-13.91,69.524l44.897,18.005,44.304,5.114c-3.605-18.144,14.135-53.597,22.986-65.653l-32.564.693-14.538-14.528-26.595,5.904-24.581-19.064v.003Z"/>
                  <path id="path3219" class="cls-7" d="M579.803,892.9c-5.867,21.242-2.498,25.163-1.386,33.555l12.95-27.738-11.55-5.817h-.014ZM642.67,913.351l-3.651,30.397c5.359-6.552,10.297-8.101,16.527-29.237l-12.873-1.156-.004-.004ZM578.473,934.75c-5.359,6.552-10.297,8.106-16.527,29.245l12.873,1.156,3.651-30.397.004-.004ZM634.951,950.878l-12.95,27.738,11.55,5.817c5.867-21.242,2.498-25.163,1.386-33.555h.014Z"/>
                  <path id="path3221" class="cls-7" d="M584.118,803.935c-8.41-.462-14.333,2.589-16.245,9.257-2.543,8.91,3.701,18.504,16.894,22.268,13.197,3.746,26.052-2.959,28.588-11.869,2.543-8.91-6.865-14.241-20.062-18.005-3.284-.925-6.382-1.48-9.183-1.664l.007.013ZM676.592,830.697c-6.607-.265-11.426,1.664-13.017,7.218-2.543,8.91,4.819,21.403,18.016,25.167,13.197,3.746,23.568-1.064,26.112-9.992,2.543-8.91-4.392-16.109-17.589-19.878-4.946-1.433-9.553-2.358-13.522-2.497v-.019Z"/>
                  <path id="path3223" class="cls-11" d="M584.252,801.665c-3.051-.151-5.881.121-8.368.833-4.974,1.433-8.604,4.948-10.061,10.062-1.478,5.114-.314,10.459,2.914,14.921,3.238,4.439,8.512,8.184,15.501,10.177,14.227,4.069,28.169-3.006,31.171-13.53,1.478-5.257-.741-9.922-4.868-13.173-4.117-3.237-9.782-5.669-16.517-7.588-3.422-.971-6.717-1.572-9.779-1.711l.007.009ZM584.1,806.057c2.635.156,5.546.693,8.717,1.572,6.47,1.849,11.74,4.3,15,6.861,3.238,2.589,4.392,4.781,3.33,8.429-2.081,7.301-13.532,13.959-25.699,10.487-6.209-1.757-10.594-4.846-13.137-8.351-2.543-3.514-3.33-7.486-2.265-11.277,1.062-3.791,3.422-6.048,7.207-7.135,1.894-.555,4.209-.74,6.819-.601l.028.014ZM676.723,828.529c-1.386-.036-2.773.018-4.067.168-5.207.601-9.581,3.375-11.084,8.619-3.006,10.514,5.105,23.882,19.335,27.942,6.985,1.988,13.423,1.618,18.527-.461,5.105-2.08,8.904-6.011,10.361-11.125,1.478-5.114.24-10.029-3.238-13.866-3.468-3.838-9.013-6.88-15.868-8.84-5.048-1.433-9.743-2.312-13.973-2.451l.007.014ZM676.501,833.014c3.651.087,8.128.833,12.978,2.22,6.339,1.804,11.052,4.439,13.705,7.356,2.635,2.913,3.422,6.085,2.356,9.877s-3.838,6.756-7.856,8.388c-4.022,1.618-9.359,1.942-15.568.16-12.167-3.468-18.379-15.171-16.294-22.471,1.062-3.653,3.143-4.919,7.288-5.391,1.016-.118,2.173-.162,3.376-.132l.014-.005Z"/>
                  <path id="path3225" class="cls-4" d="M584.661,784.098c-6.029-.833-13.285.216-17.653,4.439-2.635,2.543-3.051,10.63-3.051,10.63l9.454.111,10.629,3.051,22.933,10.283,25.135-1.433s-13.733-5.618-20.45-9.423c-9.073-5.133-16.686-16.243-27.019-17.635l.021-.023ZM705.068,818.462c-8.678-2.22-18.626,2.404-27.738,1.988-7.712-.316-22.877-2.959-22.877-2.959l20.584,14.495,24.909,3.375,10.368,2.959,8.085,4.896s3.93-7.093,3.051-10.635c-1.478-5.9-7.098-10.602-12.647-13.095-1.203-.555-2.498-.74-3.701-1.064l-.035.039Z"/>
                  <path id="path3227" class="cls-4" d="M559.244,951.954c-24.108,58.313,69.16,87.803,82.805,23.632-25.039-1.757-51.25-6.312-82.805-23.632Z"/>
                  <path id="path3229" class="cls-8" d="M556.972,946.007l-1.894,4.633c-6.463,15.629-5.02,30.045,1.203,41.157,6.209,11.111,16.989,18.736,28.976,22.356,11.991,3.606,25.265,3.191,36.716-2.728,11.454-5.956,20.651-17.635,24.288-34.748l1.111-4.859-5.087-.302c-24.718-1.711-50.128-6.159-81.066-23.137l-4.209-2.358h0s-.039-.012-.039-.012ZM559.886,953.141c27.273,13.941,59.978,20.812,82.124,22.782-3.701,11.874-11.088,26.06-19.102,30.226-9.119,4.739-26.789,5.993-36.815,2.959-10.019-3.006-22.99-15.476-27.915-24.293-4.346-7.782-1.849-20.243,1.711-31.687h0s-.004.013-.004.013Z"/>
                  <path id="path3231" class="cls-1" d="M597.597,900.889c-11.617,38.364-21.723,81.726-13.857,121.664,27.766-29.773,41.962-71.567,52.344-110.281.049-1.572-7.63-5.022-8.611-6.256-2.406-3.051-6.487-10.209-6.487-10.209,0,0-7.757,4.901-12.142,5.937-3.746.878-11.25-.878-11.25-.878l.004.023Z"/>
                  <path id="path3233" class="cls-4" d="M667.59,725.318c.109.036-16.714.971-25.311,4.531-11.144,4.624-28.306,26.337-28.306,26.337-.081-6.011-1.99-15.037,1.757-21.186,0,0-5.457-.104-12.678,2.682-7.024,2.728-15.744,8.29-20.729,12.59-9.997,8.628-17.928,19.998-17.928,19.998,8.809-.308,28.391-17.973,35.965-16.257,6.427,1.433,1.99,18.648,8.174,19.434,8.463,1.064,15.984-12.17,26.507-21.436,9.331-8.217,22.302-14.468,28.5-12.438,6.24,2.035,13.991,14.232,17.289,26.143,3.884,14.08,6.77,29.25,13.239,32.413,6.424,3.144,11.998-14.311,18.538-12.119,7.764,2.589,11.366,29.185,18.785,33.088,0,0-.554-13.858-4.346-26.508-1.894-6.307-6.223-15.693-10.671-21.774-4.579-6.247-9.239-9.095-9.239-9.095-.169,7.195-6.632,13.765-9.937,18.787,0,0-2.773-27.553-9.662-37.439-5.33-7.625-20.044-17.769-19.938-17.742l-.007-.008ZM555.621,823.643c-9.571,16.234,2.452,31.826,21.815,35.294l-7.5,19.087,10.996,21.533,20.034,6.978,18.954-7.49,12.594,17.103,17.589,3.977,22.634-13.608,9.052-15.328,14.139-.878,12.082-5.799,4.3-15.055c-11.236,8.05-22.327,15.924-45.087,6.464-.649,12.054-3.605,19.54-7.768,23.813-4.981,5.1-11.715,5.618-18.39,3.884-8.318-2.173-15.437-11.592-18.732-16.581-8.23,4.929-15.264,8.675-20.355,7.014-10.636-3.468-16.598-9.798-18.344-17.103-1.849-7.735,1.062-16.562,8.138-24.238-42.138-11.13-27.022-22.351-36.155-29.043l.004-.024ZM533.855,829.104c-4.392,6.214-25.809,40.458-33.866,46.191-11.98,8.526-21.889,8.92-21.889,8.92,6.046,15.735,7.694,22.18,30.73,25.223-52.499,37.675-58.454,97.78-18.15,148.981,2.635-6.15,11.624-20.109,16.94-25.468-.554-.444.695,29.592,15.666,44.888,4.861,4.962,7.232,32.566,14.255,41.249,6.41,7.921,15.405,16.544,15.405,16.544,0,0,6.992-21.898,17.233-25.311,10.315-3.422,29.583-8.943,35.94-10.949,12.795-4.022,35.577-31.303,35.577-31.303l-3.976,33.342c69.065-24.487,84.83-71.382,67.146-134.656,16.982,10.565,35.637-3.283,39.478-4.688,0,0-8.135-5.682-13.634-19.318-3.701-9.169-4.72-25.376-5.316-32.954l-1.619-20.761s-7.81,23.314-9.662,29.805c-1.849,6.492.649,29.565.649,29.565-11.218-3.977-22.51-7.634-32.405-16.225,0,0,11.871,46.826,13.144,69.13.695,12.054-3.422,33.457-8.061,44.601-4.925,11.809-28.909,29.921-28.909,29.921,0,0,5.761-29.967,5.644-40.25-.159-14.602-5.951-51.686-5.951-51.686,0,0-8.29,38.007-14.876,49.335-7.496,12.891-21.24,35.622-21.24,35.622,3.838-36.347,1.944-38.442-2.773-52.185,0,0-8.611,45.216-24.581,64.649-3.976,4.851-19.12,8.739-27.766,13.247-9.599,5.003-12.562,10.38-12.562,10.38,0,0-9.052-25.297-11.567-31.146-5.577-12.942-16.64-26.536-20.418-40.116-5.546-19.956,21.205-62.866,21.205-62.866-9.906.18-19.819,11.814-30.5,24.636-8.724,10.473-18.69,21.533-23.501,29.513,0,0-8.555-31.179-8.41-40.426.198-13.109,5.133-26.245,11.871-37.49,10.936-18.25,59.018-55.717,59.018-55.717-13.232,3.56-25.209,8.267-50.301.971,0,0,19.85-23.285,23.106-28.76,9.973-16.785,6.216-23.147,8.946-34.434l-.018-.004ZM623.448,848.26c-9.952-.18-22.468,1.156-22.468,1.156l1.341,8.6,9.034,3.514,12.227,18.195,31.132-8.346,4.163-7.13s-17.564-13.048-26.87-15.166c-2.173-.509-5.221-.74-8.537-.786l-.021-.038Z"/>
                  <path id="path3235" class="cls-2" d="M704.856,966.75c16.982,10.565,35.637-3.283,39.478-4.694,0,0-8.128-5.673-13.634-19.309-3.701-9.169-4.981-25.366-5.323-32.958-1.249-28.206,9.983-32.579,10.347-30.443,0,0,18.686-6.404,26.433-12.373,7.348-5.65,10.742-15.462,12.767-24.502,3.051-13.557-2.311-33.476-2.311-33.476-27.153-1.572-34.053,2.035-40.417,10.339,0,0-.554-13.853-4.346-26.508-1.894-6.307-6.223-15.698-10.675-21.774-4.579-6.247-9.235-9.1-9.235-9.1-.169,7.195-6.636,13.769-9.941,18.787-3.051-25.431-8.735-39.949-29.597-55.182-24.232.555-38.233,12.35-53.624,30.85-.081-6.011-1.99-15.032,1.757-21.186,0,0-5.461-.108-12.682,2.682-7.024,2.728-15.744,8.295-20.725,12.596-9.997,8.628-17.931,19.998-17.931,19.998-.448-10.889-4.163-17.159-28.483-30.48,0,0-15.233,13.903-19.974,26.961-3.143,8.706-5.581,18.805-2.452,27.521,3.33,9.206,15.606,24.668,15.606,24.668,1.478-1.618,8.583,8.147-7.68,31.224-4.392,6.214-14.181,19.17-22.235,24.899-11.98,8.526-21.889,8.924-21.889,8.924,6.046,15.735,7.697,22.176,30.733,25.219-52.499,37.675-58.454,97.78-18.15,148.981,2.635-6.15,11.624-20.109,16.94-25.473-.554-.444.695,29.588,15.659,44.884,4.865,4.962,7.228,32.575,14.252,41.258,6.41,7.921,15.412,16.54,15.412,16.54,0,0,6.985-21.898,17.233-25.311,10.315-3.422,29.587-8.947,35.947-10.953,12.795-4.022,35.58-31.294,35.58-31.294l-4.022,33.337c69.065-24.483,84.83-71.382,67.149-134.656l.032.004Z"/>
                  <path id="path3237" class="cls-8" d="M536.73,758.861s-11.073,17.103-9.433,28.237c1.295,8.85,16.534,28.779,16.534,28.779,0,0,9.362-28.931,7.888-39.681-1.062-7.883-14.989-17.33-14.989-17.33v-.005ZM574.17,795.787c-1.99.071-3.976.555-6.046,1.572-4.117,2.035-6.946,2.635-8.696,8.776,5.076-.833,8.354-2.635,12.516-4.531,1.016-.509,2.543-.509,5.189.509,5.316,2.035,12.696,7.972,20.852,10.33,11.677,3.375,26.775-.601,32.723-1.249-.649,2.451-1.803,9.654-4.392,13.423-1.341,1.942-11.024,5.632-15.494,9.877-2.219,2.127-4.438,4.3-6.279,6.302-1.849,2.035-3.422,3.653-4.346,6.187-1.894,5.151-.833,10.611-.833,10.611l.212,2.913,2.773.878c10.294,3.375,12.079,7.116,14.64,15.124l.399,1.249.924.74c1.111.971,1.894,1.711,2.868,2.358.97.601,2.219,1.109,3.376,1.249,2.265.264,2.681-.19,4.776-.071l1.757.124,1.386-1.202c6.399-5.451,9.99-7.68,20.506-5.096l2.727.693,1.803-2.358s3.651-4.115,4.794-9.483c.554-2.682-.741-4.022-1.249-6.727-.508-2.682-1.203-5.678-1.99-8.66-1.573-5.964-6.516-16.849-6.621-19.175-.208-4.577,2.173-10.662,2.914-13.076,4.748,3.699,15.427,16.206,27.057,19.484,8.17,2.312,17.564,1.156,23.166,2.22,2.822.509,4.067,1.341,4.678,2.266l8.255,10.454c1.757-6.122-.332-10.029-2.773-13.927-2.452-3.884-4.625-3.468-8.537-4.208-7.874-1.48-16.965-.555-22.351-2.08-13.261-3.746-26.003-17.936-26.003-17.936l-3.746-3.283-2.822,4.162s-5.105,7.708-4.533,19.938c.215,4.73,4.907,13.963,6.438,19.822.787,2.913,1.478,5.78,1.894,8.059.427,2.266.342,4.162.356,4.115-.212,1.017-1.203,2.451-2.035,3.884-9.93-1.433-20.926,3.237-27.068,8.11-1.062.018-2.543-.066-2.452-.036-.134-.093-.508-.462-.833-.74-2.635-7.477-11.031-18.948-20.337-23.008.011-1.664-.06-3.375.3-4.393-.018.05.97-1.572,2.543-3.283,1.573-1.711,3.651-3.746,5.859-5.849,4.392-4.162,13.589-8.258,16.266-12.165,6.925-10.094,6.657-19.337,6.657-19.337l-.275-5.026-4.893.786s-16.993,5.419-30.229,1.618c-5.376-1.572-12.615-7.13-20.09-10.02-1.849-.74-3.792-1.064-5.754-1.017l.071.102ZM556.214,819.512c-7.249,9.774-8.389,20.234-4.163,28.326,3.514,6.751,10.58,11.019,18.827,13.751-.462,1.341-.6,1.526-1.157,3.468-1.249,4.208-2.543,9.127-2.035,13.881,1.016,9.747,6.463,17.579,13.465,23.553,6.113,5.216,14.347,7.407,21.985,7.028,4.706-.234,8.879-2.035,12.206-3.746,1.203-.601,1.341-.786,2.265-1.341,1.849,3.791,4.657,8.438,9.895,12.064,6.29,4.346,14.351,6.807,22.295,5.604,9.105-1.387,17.847-5.165,23.865-12.901,2.96-3.791,4.438-8.642,5.584-12.882.413-1.526.335-1.572.6-2.775,8.865,2.635,17.243,1.849,23.561-2.497,7.517-5.197,11.603-14.695,11.327-25.995-6.484,3.283-.695,12.932-14.922,21.746-4.625,3.191-11.324,3.884-19.995.009l-6.604-5.424.427,9.391s-.554,3.191-1.619,6.968c-1.016,3.791-2.822,8.221-4.022,9.798-4.392,5.613-11.902,8.429-19.522,9.585-5.108.786-11.384-1.017-15.949-4.162-4.392-3.051-8.361-11.37-8.555-12.198l-2.173-9.077-4.579,5.082c-1.111,1.249-4.3,2.543-7.006,3.977-2.727,1.387-5.948,2.543-8.583,2.682-5.546.275-11.906-1.526-15.832-4.901-5.863-5.003-11.324-13.367-12.072-20.442-.212-1.988.6-6.686,1.757-10.45,1.111-3.791,3.33-6.774,3.33-6.774l3.746-4.841-7.57.462c-8.72-1.849-14.883-6.187-17.473-11.171-9.405-10.394-.924-17.94-1.295-25.764l-.011-.034ZM761.179,822.934s-16.802.693-21.879,6.82c-6.925,8.355-14.238,37.855-14.238,37.855,0,0,23.449-8.883,29.227-15.711,7.274-8.591,6.89-28.963,6.89-28.963Z"/>
                  <path id="path3239" class="cls-5" d="M591.423,809.881c-4.191-.033-7.884,2.735-9.034,6.764-1.411,4.949,1.457,10.106,6.406,11.517h.004c4.946,1.414,10.103-1.452,11.518-6.398,1.411-4.948-1.453-10.103-6.399-11.518-.811-.234-1.651-.356-2.498-.363l.004-.002ZM684.378,836.495c-4.085.088-7.637,2.827-8.759,6.756-1.415,4.948,1.446,10.107,6.396,11.522.004.002.011.003.014.004,4.949,1.411,10.107-1.457,11.518-6.405v-.004c1.411-4.948-1.453-10.103-6.399-11.518-.9-.257-1.834-.377-2.773-.355h.004Z"/>
                  <path id="path3241" class="cls-1" d="M235.745,1124.573c-8.272,3.191-20.327-4.393-44.999,17.108,20.376-.693,27.078,2.497,40.152,15.975,8.685-1.064,13.391-4.791,15.183-9.724,3.605-9.932.007-18.537-10.329-23.359h-.007ZM816.426,1152.089c-8.262,3.191-20.348-4.3-44.95,17.27,20.372-.786,27.086,2.404,40.205,15.841,8.678-1.109,13.373-4.836,15.151-9.78,3.559-9.945-.053-18.546-10.407-23.332h0ZM193.032,1184.02c-6.343,6.182-20.401,4.022-34.568,33.513,18.439-8.698,25.858-8.397,43.189-1.202,7.56-4.393,10.407-9.696,10.107-14.94-.6-10.551-7.327-17.034-18.732-17.376l.004.005ZM826.501,1229.764c-5.955,6.556-20.118,5.253-32.465,35.548,17.875-9.803,25.301-9.955,43.041-3.838,7.278-4.859,9.796-10.316,9.172-15.532-1.249-10.496-8.35-16.548-19.751-16.197l.004.019ZM237.83,1254.622c-3.376-.144-7.013.74-10.823,2.682-2.589,8.471-15.952,13.344-14.195,46.012,11.984-16.493,18.626-19.804,37.288-21.829,4.484-7.495,4.484-13.506,1.665-17.959-3.514-5.599-8.343-8.651-13.956-8.892l.021-.014ZM1498.687,1258.136c-2.406.1-4.928.647-7.599,1.664-3.514,8.137-17.307,11.518-19.124,44.185,13.716-15.088,20.683-17.649,39.45-17.626,5.299-6.959,5.909-12.938,3.605-17.668-3.468-7.139-9.197-10.848-16.354-10.551l.021-.004ZM898.035,1280.219c-3.376.213-6.893,1.48-10.477,3.791-1.665,8.698-14.46,14.953-9.257,47.252,10.177-17.668,16.439-21.658,34.779-25.639,3.701-7.93,3.006-13.909-.229-18.042-4.067-5.197-9.207-7.722-14.816-7.366v.004ZM1646.162,1282.439c-6.819-.509-12.83,3.051-16.993,10.514,2.589,8.48-5.821,19.961,13.839,46.109.787-20.372,4.438-26.827,18.813-38.9-.434-8.739-3.792-13.695-8.611-15.841-2.406-1.064-4.776-1.711-7.048-1.896v.014ZM1565.469,1291.922c-4.346.33-8.671,2.497-12.65,6.603.268,8.854-10.819,17.75,1.341,48.123,6.054-19.471,11.282-24.733,28.306-32.644,1.849-8.549-.106-14.223-4.163-17.542-4.117-3.329-8.47-4.869-12.816-4.531l-.018-.008Z"/>
                </g>
              </g>
            </g>
          </g>
        </g>
      </g>
    </g>
  </g>
</svg>