<?xml version="1.0" encoding="UTF-8"?>
<svg xmlns="http://www.w3.org/2000/svg" viewBox="0 0 3600.1 2401.738">
  <defs>
    <style>
      .cls-1 {
        fill: #fff;
      }

      .cls-1, .cls-2, .cls-3, .cls-4 {
        fill-rule: evenodd;
        stroke-width: 0px;
      }

      .cls-2 {
        fill: #0021ad;
      }

      .cls-3 {
        fill: #ffc639;
      }

      .cls-4 {
        fill: #1c8a42;
      }
    </style>
  </defs>
  <g id="background">
    <path id="cx" class="cls-4" d="M400,.1h2800c220,0,400,180,400,400v1600c0,220-180,400-400,400H400C180,2400.1,0,2220.1,0,2000.1V400.1C0,180.1,180,.1,400,.1Z"/>
  </g>
  <g id="country">
    <g id="cx-2" data-name="cx">
      <g>
        <path id="Path" class="cls-2" d="M3458.232,2305.588c-69.681,58.961-159.805,94.512-258.232,94.512H400C179.086,2400.1,0,2221.014,0,2000.1V400.1C0,277.613,55.054,167.986,141.768,94.612l3316.464,2210.976h0Z"/>
        <path class="cls-3" d="M2123.239,1200.1c0,178.52-144.719,323.239-323.239,323.239s-323.239-144.719-323.239-323.239,144.719-323.239,323.239-323.239,323.239,144.719,323.239,323.239Z"/>
        <path class="cls-4" d="M1600.726,1053.983c22.237,30.549,55.936,81.767,83.034,68.397,21.15.073,32.067,1.562,34.932,15.655,49.877,8.499,133.71-12.568,185.872-80.601,0,0,4.389.58,2.868-25.282.288-11.26,15.379-9.009,15.74-5.34,2.104,5.593,1.743,9.77,4.573,9.916,6.42-2.142,15.199-16.564,22.563-25.717,1.993-4.031.906-8.284,1.379-13.367,3.879-9.555,13.567-7.482,15.598-2.472,1.848,3.232,1.885,5.704,3.698,8.937,9.83,6.576,27.57.434,28.949.434,1.74-8.027,6.889-7.263,6.889-7.263,6.566-1.451,3.993-.871,8.309,1.382-3.809,43.263,8.487,45.187,7.472,67.38.434,24.772-7.472,31.82-7.472,41.264,2.503,11.551,38.995,11.95,26.154,21.72-11.282,6.031.035,17.328-16.942,21.724-49.405,25.099-58.874,46.642-58.874,46.642,0,0-12.407,23.463-13.785,23.463-8.271,15.658-18.754,7.121-24.595,14.749-2.9,9.589-6.167,30.838-.361,41.885,2.903,15.183-.364,23.463-3.99,38.646-3.264,31.674-15.817,36.469-17.268,47.586-5.802,11.877,1.233,67.671-4.281,67.671-36.78.726-64.965-7.048-79.514-9.954,14.185-61.206,8.67-114.966,8.67-120.486-3.629-43.77-65.475-33.126-74.944-38.938-7.834-1.673-12.768-8.065-15.525-10.825-8.743-.944-12.007-2.941-20.748-3.85-4.354,2.18-1.743,4.43-11.465,7.447-24.665,2.979-35.547-21.54-35.547-21.54,1.195-8.246-55.464,1.67-86.264-5.486-12.622,7.045-18.136,27.897-28.474,30.365-.292,6.465-17.014-5.302-20.386-11.659-.691-18.488,16.105-26.661,16.105-26.661,13.348-9.409,21.258-10.936,27.678-17.436,3.226-16.092,1.594-28.008,8.452-40.104,5.802-9.228,14.365-4.906,20.168-9.044,6.24-4.142,8.886-31.24,3.118-38.649,0,0-24.956-22.557-26.334-23.936-8.125-23.321,9.504-38.361,14.546-36.653h0Z"/>
        <path class="cls-3" d="M3157.254,651.303c-14.72-58.345-146.491-184.002-245.513-263.966-23.641-16.13-39.052-6.522-35.972,16.479,12.331,20.592,21.575,43.232,33.905,63.827,3.445,13.728,9.935,23.337,13.38,37.058,0,0,1.014,23.682,3.08,25.742,30.822,33.985,34.954,62.803,34.954,62.803,17.807,34.32,33.579,59.368,64.762,87.515,34.954,21.971,9.247,90.241,10.261,126.631,0,22.988-16.425,20.263-30.819,17.502-113.422-104.333-225.827-104.66-324.853-134.873-38.729-4.104-39.413,14.416-26.724,24.693,69.221,74.155,134.306,124.596,219.987,166.792l43.187,26.8c16.425,13.728,32.888,27.456,49.313,41.181,38.038,24.696,41.156,47.355,41.156,49.389,1.014,46.337-23.679,82.363-30.857,96.779-12.98,49.132-39.052,57.667-39.052,57.667-211.795,143.119-322.824,180.158-666.174,135.891-5.15-2.725-38.035,2.76,0,16.485,87.386,29.161,302.045,75.936,509.723-22.551,49.855-35.008,83.215-23.533,119.329-44.483,59.324-36.643,144.025-82.255,159.436-87.376,46.264-24.728,175.798-52.511,205.618-77.242,34.226-2.76,69.782-7.263,72.159-36.748,11.25-7.301,27.697-1.962,39.93-26.002,27.158-4.722,22.595-14.454,22.595-14.454-6.845-19.211-32.229-27.127-50.356-41.181-26.778-8.933-45.254-11.694-64.806-2.069-6.179,2.76-12.328,5.482-18.507,8.243,0,0-28.775-4.139-28.775-6.173-63.982-3.521-57.739-215.819-80.357-304.365l-.012.006Z"/>
        <path class="cls-4" d="M3308.07,998.424c-1.901,4.678-10.363,6.541-18.887,4.164-8.556-2.38-13.944-8.103-12.042-12.784,1.901-4.678,10.363-6.541,18.887-4.164,8.556,2.38,13.944,8.103,12.042,12.784Z"/>
        <path class="cls-1" d="M679.874,987.773l-46.264-43.013-46.819,42.417,5.02-62.724-62.585-9.919,52.52-35.224-31.224-54.767,60.474,18.811,23.647-58.395,22.896,58.693,60.715-18.044-31.931,54.364,52.057,35.889-62.705,9.124,4.202,62.791-.003-.003ZM842.964,1505.723l-49.617-32.653-48.315,34.425,16.999-55.455-49.002-33.538,60.135-1.585,17.997-55.198,20.183,54.494,60.135-.551-47.662,35.271,19.15,54.789h-.003ZM687.099,1954.414l-45.564-43.013-46.109,42.414,4.944-62.721-61.637-9.922,51.725-35.224-30.752-54.767,59.562,18.811,23.289-58.395,22.548,58.693,59.793-18.044-31.446,54.368,51.268,35.889-61.755,9.12,4.139,62.791h-.003ZM277.371,1431.479l-46.264-43.016-46.819,42.417,5.02-62.724-62.585-9.919,52.52-35.224-31.224-54.767,60.477,18.811,23.647-58.395,22.893,58.693,60.715-18.044-31.931,54.364,52.057,35.889-62.705,9.124,4.202,62.791h-.003ZM1069.698,1292.027l-46.261-42.341-46.819,41.755,5.017-61.745-62.585-9.764,52.52-34.675-31.224-53.908,60.478,18.517,23.647-57.483,22.893,57.777,60.715-17.765-31.931,53.518,52.061,35.328-62.708,8.978,4.202,61.812-.003-.003Z"/>
      </g>
    </g>
  </g>
</svg>