<?xml version="1.0" encoding="UTF-8"?>
<svg xmlns="http://www.w3.org/2000/svg" viewBox="0 0 3600.1 2401.738">
  <defs>
    <style>
      .cls-1 {
        fill: #4e5b31;
      }

      .cls-1, .cls-2, .cls-3 {
        fill-rule: evenodd;
        stroke-width: 0px;
      }

      .cls-2 {
        fill: #d57800;
      }

      .cls-3 {
        fill: #eee;
      }
    </style>
  </defs>
  <g id="background">
    <path id="bg" class="cls-3" d="M400,.1h2800c220,0,400,180,400,400v1600c0,220-180,400-400,400H400C180,2400.1,0,2220.1,0,2000.1V400.1C0,180.1,180,.1,400,.1Z"/>
  </g>
  <g id="country">
    <g id="cy">
      <g>
        <path class="cls-1" d="M1851.898,2023.316c-.525-.225-.996-.559-1.384-.978l-.5-.465c-2.217-2.072-4.324-4.26-6.31-6.554-5.316-6.035-12.447-14.872-18.712-22.676-8.313-10.369-16.524-20.818-24.633-31.346l-3.163-4.116-30.991-9.553-22.626-10.547,12.089-13.586,41.528,17.775,30.988,6.358,57.306,42.136-.044.038c-.114.095-8.334,6.931-16.502,14.359-3.641,3.312-8.235,7.58-11.478,11.101-1.335,1.433-2.575,2.952-3.711,4.547-.681,1.133-1.301,2.308-1.855,3.511M1639.08,1959.418c-27.956-.257-55.345-7.919-79.377-22.205h-.025v-.032c2.924-4.877,6.834-9.089,11.481-12.367,7.745-5.683,21.714-12.475,44.286-12.564h.469c26.733,0,59.449,9.087,97.244,27.008-22.408,13.311-48.014,20.279-74.077,20.159l.041.041-.041-.041ZM1521.901,1933.452c-4.778.093-9.373-1.84-12.649-5.319-2.827-3.288-4.776-7.239-5.664-11.484-1.279-5.509-1.751-11.174-1.403-16.819,1.972-.854,4.086-1.333,6.234-1.412h.446c10.018,0,17.914,8.688,21.296,17.3,1.846,3.807,2.235,8.157,1.096,12.231-1.701,3.56-5.4,5.725-9.337,5.465l-.019.038ZM1728.095,1909.556c-69.261-9.888-98.618-34.92-111.049-54.18-7.874-11.682-11.576-25.679-10.509-39.727v-.057h.051c3.477-.799,7.036-1.192,10.604-1.168,18.427,0,65.554,9.268,110.919,95.101l.025.057-.079-.041.038.016ZM1586.137,1895.837c-29.588,0-52.116-5.107-66.959-15.16-6.31-4.042-11.395-9.73-14.707-16.452-1.206-2.55-2.005-5.273-2.368-8.071,9.861-3.995,20.348-6.223,30.982-6.583,1.56-.073,3.121-.112,4.683-.117,22.87,0,57.644,7.456,94.344,42.997l.035.038h-.044c-15.246,2.1-30.612,3.219-46.002,3.35l.038-.003h0ZM1442.862,1890.331c-31.2,0-74.064-9.524-100.797-36.247l-.025-.032h.079c20.319-4.798,41.067-7.553,61.935-8.223,1.961-.049,3.922-.075,5.883-.076,29.253,0,51.644,5.671,66.56,16.851,4.165,2.503,7.259,6.456,8.688,11.101.331,3.426-1.3,6.746-4.214,8.577-6.712,5.069-18.719,7.773-35.687,8.045l-2.394.079-.029-.076h0ZM1341.758,1838.478c-3.828.005-7.457-1.704-9.891-4.658-2.249-2.956-3.764-6.403-4.42-10.059-1.018-4.814-1.407-9.739-1.159-14.653v-.073c1.523-.703,3.177-1.076,4.854-1.096,3.912.142,7.616,1.797,10.331,4.616,3.02,2.959,5.323,6.568,6.735,10.553,1.412,3.323,1.665,7.024.719,10.509-1.164,2.942-4.021,4.862-7.184,4.829l.016.032ZM1575.283,1833.212c-4.778.093-9.373-1.84-12.649-5.319-2.827-3.287-4.778-7.235-5.671-11.478-1.28-5.51-1.753-11.176-1.403-16.822,1.972-.854,4.086-1.333,6.234-1.412h.446c10.018,0,17.914,8.688,21.296,17.3,1.844,3.808,2.234,8.159,1.096,12.234-1.699,3.563-5.399,5.729-9.337,5.465l-.013.032h0ZM1461.534,1828.504c-62.786-2.21-95.357-20.052-111.651-34.635-6.967-6.103-12.708-13.477-16.917-21.727-1.566-3.096-2.781-6.357-3.622-9.723l.082-.038c5.027-1.523,10.249-2.301,15.502-2.308h1.469c21.173,0,64.278,8.891,115.114,68.419v.041l.022-.028h0ZM1529.722,1822.162c-50.517-7.691-79.137-29.37-94.249-46.211-9.327-10.011-16.416-21.892-20.799-34.854,5.106-1.17,10.321-1.797,15.559-1.871.674,0,1.377-.028,2.093-.028s1.456,0,2.207.028c25.406.554,71.554,12.06,95.177,82.908h.038l-.025.028ZM1270.382,1797.909c-16.08.054-32.105-1.865-47.718-5.712-26.451-6.611-37.795-16.708-42.655-24.016-2.094-3.027-3.498-6.477-4.113-10.107-.222-1.416-.263-2.854-.123-4.281l.123-.044c13.663-3.386,27.674-5.163,41.75-5.297.953,0,1.912-.022,2.891-.022,11.471-.022,22.916,1.086,34.17,3.309,25.521,5.335,48.262,19.697,64.046,40.449v.035h-.051c-15.824,3.869-32.065,5.772-48.355,5.664l.035.022h0ZM1387.643,1755.31c-4.76.127-9.353-1.756-12.655-5.186-2.839-3.326-4.789-7.317-5.668-11.601-1.28-5.466-1.751-11.09-1.399-16.692,1.971-.853,4.084-1.332,6.231-1.412h.446c9.999,0,17.908,8.691,21.302,17.304,1.806,3.776,2.152,8.086.969,12.101-1.617,3.582-5.293,5.779-9.214,5.506l-.013-.019h0ZM1299.467,1743.225c-16.786-4.753-32.849-11.765-47.747-20.843-22.119-13.615-49.178-37.694-52.477-75.109h.057c1.677-.358,3.383-.564,5.098-.614.399,0,.864-.025,1.333-.025,6.608,0,20.131,1.858,36.494,14.299,20.827,15.875,40.059,43.558,57.255,82.366l-.013-.073ZM1357.042,1741.11c-13.7-6.221-26.426-14.396-37.779-24.269-29.346-25.247-52.217-57.157-66.697-93.059,4.554-2.133,9.561-3.117,14.584-2.865,9.619.272,24.269,4.268,40.512,21.793,18.659,20.131,35.31,53.212,49.475,98.327l.038.127-.117-.038-.016-.016ZM1207.862,1736.763c-19.235,0-25.817-10.433-27.758-14.919-1.93-4.675-2.689-9.751-2.21-14.786v-.079c3.131-.782,6.348-1.203,9.575-1.254h.659c12.576-.31,24.549,5.378,32.254,15.321,1.016,1.51,4.138,6.757,1.558,10.854-2.077,3.23-6.785,4.866-14.087,4.866l.009-.003ZM1165.251,1683.028c-14.899.034-29.773-1.237-44.451-3.796-17.132-3.116-26.843-17.68-31.973-29.345-3.447-7.975-5.86-16.357-7.181-24.944h.048c52.993,1.555,78.022,17.034,89.683,29.743,7.225,7.518,11.728,17.237,12.792,27.609h-.035c-.079,0-7.542.719-18.912.719l.029.013h0ZM1220.429,1627.901c-4.303-5.423-8.341-11.051-12.101-16.863-6.275-9.752-12.079-19.944-12.079-28.259,0-8.039-1.893-24.994-3.021-34.379-1.428-11.905-2.875-22.097-2.992-22.965h.051c1.346.491,33.147,12.421,33.147,42.247s-2.945,59.889-2.973,60.187v.044h-.038l.006-.013h0ZM1179.214,1625.071c-.336,0-.665-.032-.997-.085-9.401-1.567-25.935-8.751-44.178-19.216-20.276-11.623-36.744-24.079-46.363-35.066-8.777-10.021-13.963-25.757-15.48-46.775-.669-9.517-.553-19.074.348-28.572,1.695-.546,3.466-.815,5.246-.798,7.038.117,14.549,3.283,24.693,10.268,9.244,6.579,17.906,13.938,25.893,21.996,10.142,10.073,19.731,20.687,28.727,31.795l.127.158c1.058,1.893,10.122,18.231,17.183,34.135,3.53,7.319,6.239,15.005,8.077,22.92.693,2.318.693,4.787,0,7.105-.297.75-.838,1.379-1.536,1.786-.555.24-1.153.363-1.757.361l.016-.013h0Z"/>
        <path class="cls-1" d="M1748.048,2023.316c.526-.225.997-.56,1.384-.978l.5-.465c2.216-2.071,4.325-4.262,6.31-6.554,5.316-6.035,12.447-14.872,18.712-22.676,8.314-10.368,16.525-20.817,24.633-31.346l3.163-4.116,30.991-9.553,22.626-10.547-12.089-13.586-41.528,17.775-30.988,6.358-57.306,42.136.044.038c.117.095,8.334,6.931,16.502,14.359,3.641,3.312,8.235,7.58,11.478,11.101,1.336,1.434,2.577,2.954,3.711,4.547.684,1.133,1.301,2.308,1.855,3.511M1960.867,1959.418c27.956-.257,55.345-7.919,79.377-22.205h.028v-.032c-2.926-4.876-6.837-9.089-11.484-12.367-7.745-5.683-21.714-12.475-44.286-12.564h-.469c-26.732,0-59.449,9.087-97.244,27.008,22.408,13.311,48.014,20.279,74.077,20.159l-.041.041.041-.041h0ZM2078.045,1933.452c4.778.093,9.373-1.84,12.649-5.319,2.827-3.288,4.776-7.239,5.664-11.484,1.279-5.509,1.754-11.177,1.403-16.819-1.972-.854-4.086-1.333-6.234-1.412h-.446c-10.018,0-17.915,8.688-21.296,17.297-1.844,3.808-2.234,8.159-1.096,12.234,1.701,3.56,5.4,5.725,9.337,5.465l.019.038h0ZM1871.854,1909.556c69.258-9.888,98.615-34.92,111.046-54.18,7.873-11.683,11.576-25.679,10.512-39.727v-.057h-.054c-3.477-.799-7.036-1.192-10.604-1.168-18.424,0-65.553,9.268-110.919,95.101l-.025.057.079-.041-.035.016h0ZM2013.809,1895.837c29.588,0,52.116-5.107,66.959-15.16,6.31-4.042,11.395-9.73,14.707-16.452,1.206-2.55,2.005-5.273,2.368-8.071-9.861-3.995-20.348-6.223-30.981-6.583-1.56-.073-3.121-.112-4.683-.117-22.87,0-57.644,7.456-94.344,42.997l-.035.038h.044c15.245,2.102,30.614,3.217,46.002,3.35l-.038-.003h0ZM2157.084,1890.331c31.2,0,74.064-9.524,100.797-36.247l.028-.032h-.082c-20.319-4.798-41.067-7.553-61.934-8.223-1.961-.049-3.922-.075-5.883-.076-29.253,0-51.644,5.671-66.557,16.851-4.166,2.502-7.262,6.456-8.691,11.101-.331,3.426,1.3,6.746,4.214,8.577,6.712,5.069,18.719,7.773,35.687,8.045l2.397.079.025-.076h0ZM2258.188,1838.478c3.828.006,7.457-1.703,9.891-4.658,2.251-2.955,3.766-6.403,4.42-10.059,1.016-4.813,1.409-9.739,1.159-14.653v-.073c-1.523-.702-3.177-1.075-4.854-1.096-3.912.142-7.616,1.797-10.331,4.616-3.019,2.959-5.323,6.568-6.735,10.553-1.413,3.323-1.665,7.025-.716,10.509,1.164,2.941,4.019,4.86,7.181,4.829l-.016.032ZM2024.663,1833.212c4.778.093,9.373-1.84,12.649-5.319,2.827-3.287,4.778-7.235,5.671-11.478,1.279-5.509,1.754-11.177,1.403-16.822-1.972-.853-4.085-1.332-6.231-1.412h-.45c-10.018,0-17.915,8.688-21.296,17.3-1.845,3.808-2.233,8.16-1.092,12.234,1.697,3.563,5.397,5.729,9.334,5.465l.013.032h0ZM2138.413,1828.504c62.786-2.21,95.357-20.052,111.651-34.635,6.966-6.103,12.707-13.477,16.917-21.727,1.567-3.093,2.78-6.358,3.622-9.723l-.082-.038c-5.027-1.523-10.249-2.301-15.502-2.308h-1.469c-21.173,0-64.278,8.891-115.111,68.419v.041l-.025-.028ZM2070.228,1822.162c50.514-7.691,79.133-29.37,94.246-46.211,9.326-10.011,16.416-21.892,20.799-34.854-5.106-1.169-10.321-1.795-15.559-1.868-.674,0-1.377-.032-2.093-.032s-1.457,0-2.207.032c-25.406.551-71.55,12.057-95.177,82.905h-.038l.028.028h0ZM2329.564,1797.909c16.08.052,32.105-1.867,47.718-5.712,26.451-6.611,37.795-16.708,42.655-24.016,2.094-3.028,3.499-6.478,4.116-10.107.218-1.415.26-2.853.12-4.281l-.123-.044c-13.662-3.387-27.674-5.165-41.75-5.297-.95,0-1.912-.025-2.891-.025-11.471-.02-22.916,1.09-34.17,3.312-25.522,5.335-48.262,19.696-64.047,40.449v.032h.051c15.824,3.87,32.065,5.774,48.355,5.667l-.032.022h-.003ZM2212.303,1755.31c4.76.128,9.354-1.755,12.655-5.186,2.838-3.325,4.788-7.316,5.667-11.598,1.279-5.465,1.751-11.091,1.4-16.696-1.971-.853-4.085-1.332-6.231-1.412h-.446c-9.999,0-17.908,8.691-21.302,17.304-1.806,3.776-2.151,8.086-.969,12.101,1.617,3.582,5.293,5.78,9.214,5.509l.013-.022h0ZM2300.479,1743.225c16.787-4.751,32.849-11.764,47.747-20.843,22.119-13.615,49.178-37.694,52.477-75.109h-.054c-1.677-.358-3.383-.563-5.098-.614-.402,0-.868-.025-1.336-.025-6.608,0-20.131,1.862-36.494,14.296-20.827,15.875-40.059,43.561-57.255,82.369l.013-.073h0ZM2242.908,1741.11c13.699-6.222,26.425-14.397,37.779-24.269,29.344-25.248,52.213-57.158,66.693-93.059-3.989-1.869-8.333-2.858-12.738-2.9-.598,0-1.216,0-1.846.035-9.619.272-24.269,4.268-40.512,21.793-18.659,20.131-35.31,53.208-49.475,98.327l-.038.127.117-.038.016-.016h.003ZM2392.084,1736.763c19.235,0,25.821-10.433,27.758-14.919,1.931-4.676,2.691-9.752,2.21-14.786v-.079c-3.135-.782-6.348-1.203-9.575-1.254h-.659c-12.575-.309-24.549,5.379-32.254,15.321-1.016,1.51-4.138,6.757-1.555,10.854,2.074,3.23,6.782,4.866,14.083,4.866l-.009-.003ZM2434.696,1683.029c14.9.035,29.772-1.235,44.454-3.8,17.129-3.112,26.84-17.677,31.969-29.342,3.447-7.975,5.861-16.359,7.181-24.947h-.048c-52.993,1.558-78.022,17.037-89.683,29.747-7.225,7.518-11.728,17.237-12.791,27.609h.035c.079,0,7.542.719,18.912.719l-.028.013h0ZM2379.518,1627.905c4.303-5.424,8.342-11.053,12.101-16.866,6.275-9.752,12.079-19.947,12.079-28.259,0-8.042,1.893-24.994,3.021-34.379,1.431-11.905,2.875-22.1,2.995-22.965h-.054c-1.346.491-33.147,12.421-33.147,42.247s2.945,59.889,2.973,60.19v.041h.038l-.006-.013v.003ZM2420.733,1625.071c.336,0,.665-.032.997-.085,9.401-1.567,25.931-8.751,44.178-19.219,20.276-11.62,36.744-24.073,46.363-35.063,8.777-10.021,13.963-25.757,15.48-46.775.668-9.517.552-19.074-.348-28.572-1.694-.547-3.466-.817-5.246-.798-7.035.117-14.549,3.283-24.693,10.268-9.244,6.579-17.906,13.937-25.893,21.996-10.141,10.072-19.73,20.685-28.724,31.792l-.127.158c-1.061,1.9-10.126,18.237-17.186,34.138-3.531,7.319-6.239,15.007-8.074,22.923-.694,2.317-.694,4.785,0,7.102.295.75.836,1.38,1.536,1.786.554.241,1.153.364,1.754.361l-.016-.013h0Z"/>
        <path class="cls-2" d="M2904.263,418.165l-9.385,3.746-3.679,1.469-11.373-.627-10.654,5.12-18.89,12.928-.833.598-7.042,1.84-6.541-2.824-3.714,1.691-1.279,7.665-3.537,5.503-4.35,3.062-15.078,1.545-12.712,6.567-16.54-4.436-7.684,3.014-16.341,14.739-8.349,3.958-2.916-.168-11.072-.57-4.673,1.532-6.982,6.757-13.213,1.029-4.116,2.856-6.45,13.013-6.988,7.216-3.983.845-4.335-1.596-3.255.573-1.475,8.327-3.16,3.489-8.843,3.049-7.067,5.896-6.199,3.195-8.305-.209h-1.909l-8.273,4.575-15.543,1.365-6.475,6.184-1.425,1.32-3.021,1.827-4.942,2.954-1.197.735-5.978-1.064-6.975,2.764-2.821-4.347-4.825,2.903-6.377.275-7.969-3.549-6.067-2.707-4.436.643-1.542,7.745-.158.823-4.661,6.215-8.704,5.278-1.197,1.545-9.904,12.804-18.82,19.824-15.913,8.096-16.493,5.025-11.56,9.499-30.288,15.036-47.807,23.842-9.774,3.138-14.03,2.242-25.019,9.23-22.075,6.668-1.228.377-4.385,1.323-31.124,9.432-14.489-1.532-8.581,3.122-22.338-2.482-15.543.307-9.831,2.049-18.481,8.875-31.194,15.017-10.306,9.445-16.05,8.381-18.792,5.959.044-7.906-.111-.336-6.522,2.064-4.705,1.488-15.245,2.356h-8.479l-5.266-1.532-.798.275-31.156,10.252-34.749,3.363-17.389,5.588-12.994-.209-8.121,2.419-15.942,1.954-5.69-1.523-1.286-.351-46.828,2.036-21.407-2.422-10.221,2.327-17.136-5.772-24.985-2.9-5.839-1.754-13.152-3.904-5.943,3.429-4.449.475-10.629-3.86-3.825-.095-8.767,3.192-5.05-1.295-4.692-3.746-11.003-1.64-6.703-5.645-37.463,4.974-10.167-2.992-34.091-9.948-5.424.275-6.776,5.072-10.154,3.711-8.818,2.292-12.003.402-13.95-3.667-14.372-6.975-5.31-1.266-11.854,1.197-3.625.329-21.787-11.706-28.062-17.56-19.045-9.182-7.149-1.162-.959,3.404,3.546,11.177,1.197,11.072-.364,10.23-.193,6.336,1.776,5.687,6.874,7.634,2.865,7.662,2.096,21.093-.022,21.401-3.344,34.132-1.13,5.189-3.983,17.683-3.644,16.24-14.131,43.241-3.882,5.36-9.53,6.51-21.597,14.723-15.901,9.179-5.034,2.087-12.909.978-8.042-.399-10.015-5.433-9.834-2.533-12.88-9.277-14.346-2.97-15.708-9.093-4.088-4.92-8.555-.798-11.858-3.565v-.019l-4.357-1.304-3.011-.88-15.144-.399-14.109-6.522-7.428-1.795-10.151-.516-10.626,4.946-5.383,2.511-6.804-2.707-4.92.31-5.582,8.441-.684,1.289-3.841,2.036-4.784-.066-3.743-.101-4.05,1.773-5.452,2.365-4.813,2.106-2.353,1.016-.038-.038-1.447.291-2.571.446-3.188.611-5.62-3.29-2.989-1.764-5.009-1.023-2.698,1.95-.532,9.182-2.463,5.5-7.814,6.921-7.944,7.007-5.535,8.169-14.65,33.489-9.166,13.51-2.85,3.15-9.638,10.616-8.514,6.614-19.615,15.23-18.567,6.947-15.996,3.274-7.773.032-14.748-1.963-13.241-4.072-14.549-9.109-15.942-12.839-23.091-22.848-3.268-1.969-.681-.453-7.273-4.661-5.398.143-2.112,3.486-1.156,5.044-.975,4.471-2.647,25.412.196,1.472,1.39,10.468,17.535,24.548,5.414,13.039.887,1.491,3.619,6.085,2.755,4.642.275.472,5.978,17.914-4.211,10.113,2.128,6.785-5.326,4.141-.975,5.848,15.746,19.77,3.435,8.72-3.837,12.092-6.123,6.668-1.71,1.824.861,5.11,7.247,6.526,12.31,10.977,6.564,16.309,4.993,4.392,5.804-1.238,3.226,2.466,4.895-.082,4.816,4.819,3.116,1.513,4.927,2.46,3.894,5.075.858,15.613,7.263,19.396.111,10.518.041,1.494,4.518,7.776,1.418,6.136-2.391,16.243,5.759,5.212,6.244-1.276,4.034.64,6.481,5.405,7.846,11.975,7.675-1.127,4.873,2.353,23.512,21.29,5.338,2.698.294.168,3.837,1.928,4.781,4.822,7.399-4.917.82-.086,8.042-.709,3.53,2.394,6.776,4.588,8.903-.117,19.304,5.927,8.447,2.169,16.98,10.569,7.219,4.471,4.271,3.476,5.674,4.635,11.338,4.885,9.727,2.33,5.269,1.254,3.983,1.532.101-.247h.057l-.098.25,21.059,8.074,11.408,2.669,10.553,3.891,7.681,2.793,5.633.092,7.973-6.712,7.719-.446,6.412,1.596,6.26-1.051,9.901-6.111,1.935-2.869,7.023-3.35,23.69-2.945,6.921,2.251,17.775-7.745,11.908,3.318,10.54-3.746,23.034,5.126,6.12,4.316,6.842,7.843.839.035,7.618.149-3.188,5.313,10.056,10.566,9.084,13.751.611,1.814,6.605,19.415,4.911,6.877,3.435,9.6.168,6.26-5.341,4.078-.877,2.327-.301.861,1.083,2.615,2.017-1.102,3.837-2.128,4.67-.725,8.235.877,5.436.57,8.584-4.265,5.687-2.834,9.138,3.939,10.043-.111,4.217,1.878,11.956,5.421,6.095.576,2.251-1.482,1.434-3.416-.738-3.989-4.585-5.265-10.088-11.728-4.129-6.028-3.144-8.723-.975-11.161-.693-7.526,1.254-9.885,2.71-3.53,1.992-7.855h.035l.516-2.055,5.601-7.447,14.843-9.553,15.942-14.299,12.602-8.321,12.991-5.636.348-1.596,1.447.583,33.046-11.253.548-.063,14.713-2.568,99.315,7.004,3.682-1.111v-.025l3.309-9.299,1.783-1.726,1.194-1.124,10.92-4.816,5.107-.728,14.172,3.505,5.8,1.431,9.296-5.218,6.592.114,13.618-7.45,8.413.212,3.188-1.279,16.388-11.797,15.787-4.531,4.103-2.185,1.447-.801,16.179-8.555,10.281-7.909,8.872-4.721,9.714-2.511,25.428-1.792,5.113-8.533,10.936-1.463,6.605-7.463,7.57-3.078,5.417-7.814,4.54-6.551,6.339-3.676,20.327-1.279,24.092,2.992,3.188-1.938,5.443-19.46,5.699-3.651,15.347-22.401.054-8.163v-6.817l2.523-9.708-1.716-17.528,2.033-17.744,9.543-22.553,8.403-9.097,13.552-9.182,6.89-3.005,9.762-1.643v.003l1.434-.244,2.489-.427,33.606-.462c.469-.348,12.225-.168,12.225-.168l11.205-.152,28.363,5.044,2.014.351,9.565,3.109,11.056,8.612,11.709,11.452,2.197,2.134,7.57,3.192,2.292,1.004,6.263-1.004,8.913-4.648,6.728-5.696,9.166-5.018.225-.32,5.161-7.773.155-.161.111.029v-.044h-.089l2.039-3.093,17.721-6.918,20.843-1.197,2.343-1.27,1.304-.697,5.509-6.478,5.161-.041,12.494,4.528,8.767-1.751,6.975,2.796,5.421-.643,10.221-1.197,10.977,7.732,6.396.798,22.55,13.213,1.171.19.605.111,1.292.218,2.675-.801,3.983-1.153.529-.155.5.697,2.562,3.622,3.518.503,4.161-5.56-1.656-2.523-.624-.918-8.055-1.64-7.235-12.374,6.887-7.428-10.803-13.276-1.792-2.201-.611-.934-3.733-5.68-18.915-28.879-24.64-19.697-8.628-6.912-.054-.041-3.024-2.394-13.149-13.406-9.401-12.494-1.228-2.688-1.941-4.24-5.633-12.285-9.812-7.586-7.995-8.745-.399-.513-16.499-22.458-2.71-3.765-3.898-2.254-8.235-.054-.795-.801-.462-.481.279-.294,3.948-3.932,4.404-1.111,1.897-4.347-8.4-24.348-.057-.849-.624-7.783,6.845-35.345.877-4.309,11.671-23.781,7.229-5.93,7.89-15.534,6.776-9.932,6.475-6.313,1.133-.671,11.693-7.089,9.825-1.384,9.356-1.323,16.341,5.047,15.543-.304,3.033-.323,7.054-.798,11.601-3.66,5.478-3.385,2.84-4.363,5.927-19.906,1.903-6.336,3.657-6.88,21.147-24.38,15.983-14.808,35.946-26.397,17.595-10.534,8.983-5.376,80.21-35.709,20.843-21.154,10.86-11.009,19.216-12.915,22.48-9.223,19.346-15.334,4.224-5.326,5.326-17.164,4.436-1.073,3.986-8.679,1.14-2.467,15.787-11.142,1.783-.893,61.33-30.773,8.91,1.225,4.784-7.159,17.842-2.995,3.283-.56,4.385-2.197,3.743-6.389v-1.26l.513-17.056,3.809-4.61,2.077-11.24,1.957-2.593,2.045-2.698,5.053-3.559-.877-2.118.127.123h0Z"/>
      </g>
    </g>
  </g>
</svg>