<?xml version="1.0" encoding="UTF-8"?>
<svg xmlns="http://www.w3.org/2000/svg" viewBox="0 0 3600.1 2401.738">
  <defs>
    <style>
      .cls-1 {
        stroke-width: 6.559px;
      }

      .cls-1, .cls-2, .cls-3, .cls-4, .cls-5, .cls-6, .cls-7, .cls-8, .cls-9, .cls-10, .cls-11, .cls-12, .cls-13, .cls-14, .cls-15, .cls-16, .cls-17, .cls-18, .cls-19, .cls-20, .cls-21, .cls-22, .cls-23 {
        stroke: #000;
      }

      .cls-1, .cls-2, .cls-4, .cls-6, .cls-8, .cls-10, .cls-12, .cls-14, .cls-16, .cls-17, .cls-18, .cls-20, .cls-21, .cls-24 {
        fill: #006b3f;
      }

      .cls-2 {
        stroke-miterlimit: 4;
        stroke-width: 4px;
      }

      .cls-3 {
        stroke-width: 2.51px;
      }

      .cls-3, .cls-19, .cls-22 {
        fill: #9461c9;
      }

      .cls-4, .cls-9 {
        stroke-width: 4px;
      }

      .cls-5 {
        stroke-width: 2.629px;
      }

      .cls-5, .cls-7 {
        fill: #9c4a00;
      }

      .cls-6 {
        stroke-miterlimit: 4;
        stroke-width: 4px;
      }

      .cls-7 {
        stroke-width: 1.596px;
      }

      .cls-8 {
        stroke-width: 5.854px;
      }

      .cls-25, .cls-26, .cls-27, .cls-28, .cls-29, .cls-24 {
        stroke-width: 0px;
      }

      .cls-9, .cls-13, .cls-28 {
        fill: #d41c30;
      }

      .cls-26 {
        fill: #141414;
      }

      .cls-10, .cls-13, .cls-15 {
        stroke-width: 10px;
      }

      .cls-11 {
        stroke-width: 2.927px;
      }

      .cls-11, .cls-15, .cls-29, .cls-23 {
        fill: #fcd116;
      }

      .cls-12 {
        stroke-width: 6.249px;
      }

      .cls-14 {
        stroke-width: 6.185px;
      }

      .cls-16 {
        stroke-width: 5.555px;
      }

      .cls-17 {
        stroke-width: 8.386px;
      }

      .cls-27 {
        fill: #eee;
      }

      .cls-18, .cls-22 {
        stroke-width: 2.3px;
      }

      .cls-19 {
        stroke-width: 2.362px;
      }

      .cls-20 {
        stroke-width: 6.24px;
      }

      .cls-21 {
        stroke-width: 10.18px;
      }

      .cls-24 {
        fill-rule: evenodd;
      }

      .cls-23 {
        stroke-width: 2.53px;
      }
    </style>
  </defs>
  <g id="background">
    <path id="dm" class="cls-24" d="M400,.1h2800c220,0,400,180,400,400v1600c0,220-180,400-400,400H400C180,2400.1,0,2220.1,0,2000.1V400.1C0,180.1,180,.1,400,.1Z"/>
  </g>
  <g id="country">
    <g id="dm-2" data-name="dm">
      <g>
        <rect id="Rectangle" class="cls-26" x="1700" y=".1" width="200" height="2400"/>
        <rect id="Rectangle-2" data-name="Rectangle" class="cls-26" x="0" y="1100.1" width="3600" height="200"/>
        <rect id="Rectangle-3" data-name="Rectangle" class="cls-29" x="1500" y=".1" width="200" height="2400"/>
        <rect id="Rectangle-4" data-name="Rectangle" class="cls-29" x="0" y="900.1" width="3600" height="200"/>
        <rect id="Rectangle-5" data-name="Rectangle" class="cls-27" x="1900" y=".1" width="200" height="2400"/>
        <rect id="Rectangle-6" data-name="Rectangle" class="cls-27" x="0" y="1300.1" width="3600" height="200"/>
      </g>
      <g>
        <circle class="cls-28" cx="1800" cy="1200.1" r="600"/>
        <g id="b">
          <path id="a" class="cls-4" d="M1780.76,726.46l19.24-54.88,17.48,54,58.6.88-46.36,35.4,21,60.2-50.72-37.16-49.84,35.4,19.24-58.44-45.48-34.52,56.84-.88Z"/>
          <path id="a-2" data-name="a" class="cls-4" d="M1819.24,1673.74l-19.24,54.88-17.48-54-58.6-.88,46.36-35.4-21-60.2,50.72,37.16,49.84-35.4-19.24,58.44,45.48,34.52-56.84.88Z"/>
        </g>
        <g id="b-2" data-name="b">
          <path id="a-3" data-name="a" class="cls-6" d="M2062.833,805.608l47.823-33.09-17.599,53.961,46.891,35.156-58.314,1.389-18.395,61.046-19.191-59.876-61.129-.656,49.916-35.97-16.504-54.66,46.502,32.698Z"/>
          <path id="a-4" data-name="a" class="cls-6" d="M1537.167,1594.592l-47.823,33.09,17.599-53.961-46.891-35.156,58.314-1.389,18.395-61.046,19.191,59.876,61.129.656-49.916,35.97,16.504,54.66-46.502-32.698Z"/>
        </g>
        <g id="b-3" data-name="b">
          <path id="a-5" data-name="a" class="cls-2" d="M2244.513,1035.439l58.139,1.339-45.955,33.311,17.271,56.004-47.993-33.152-50.764,38.575,19.668-59.721-49.069-36.461,61.525.239,18.776-53.921,18.401,53.786Z"/>
          <path id="a-6" data-name="a" class="cls-2" d="M1355.487,1364.761l-58.139-1.339,45.955-33.311-17.271-56.004,47.993,33.152,50.764-38.575-19.668,59.721,49.069,36.461-61.525-.239-18.776,53.921-18.401-53.786Z"/>
        </g>
        <g id="b-4" data-name="b">
          <path id="a-7" data-name="a" class="cls-2" d="M2256.404,1328.165l46.249,35.257-56.759-.062-18.945,55.46-19.341-55.03-63.743,1.369,51.015-36.755-18.266-58.34,49.634,36.357,46.885-32.587-16.728,54.33Z"/>
          <path id="a-8" data-name="a" class="cls-2" d="M1343.596,1072.036l-46.249-35.257,56.759.062,18.945-55.46,19.341,55.03,63.743-1.369-51.015,36.755,18.266,58.34-49.634-36.357-46.885,32.587,16.728-54.33Z"/>
        </g>
        <g id="b-5" data-name="b">
          <path id="a-9" data-name="a" class="cls-6" d="M2093.964,1571.974l16.692,55.708-45.882-33.412-47.926,33.732,16.698-55.889-52.374-36.359,62.875.251,19.514-57.934,18.785,58.588,57.084,1.195-45.467,34.122Z"/>
          <path id="a-10" data-name="a" class="cls-6" d="M1506.036,828.226l-16.692-55.708,45.882,33.412,47.926-33.732-16.698,55.889,52.374,36.359-62.875-.251-19.514,57.934-18.785-58.588-57.084-1.195,45.467-34.122Z"/>
        </g>
        <g>
          <ellipse class="cls-10" cx="1882.247" cy="1358.819" rx="35.852" ry="176.804" transform="translate(-90.321 134.802) rotate(-4.006)"/>
          <ellipse class="cls-10" cx="1917.482" cy="1358.435" rx="37.921" ry="176.802" transform="translate(-90.564 137.847) rotate(-4.022)"/>
          <ellipse class="cls-10" cx="1900.785" cy="1367.842" rx="30.337" ry="195.421" transform="translate(-89.441 133.753) rotate(-3.938)"/>
          <path class="cls-5" d="M1623.148,1450.36c30.628-1.276,17.328-17.664,32.8-26.384,15.456-8.708,37.46-2.948,44.06,7.944,6.6,10.888,1.308,21.588,9.8,21.732,8.504.148,239.712-9.548,248.04-.42,8.34,9.12,9.716,27.104,1.08,34.096-8.64,7.08-300.94,10.352-311.004,2.952-10.068-7.296-24.808-38.12-24.776-39.92Z"/>
          <g>
            <path class="cls-23" d="M1786.492,1472.88c-.556,23.1,33.616,16.56,34.084,35.852-1.028,20.456-57.296,1.252-57.84-36.164,2.34-37.38,57.416-55.852,58.1-34.5.504,17.74-33.788,11.708-34.344,34.812Z"/>
            <path class="cls-23" d="M1806.656,1473.144c-.56,23.104,33.612,16.56,34.08,35.856-1.028,20.452-57.296,1.248-57.836-36.168,2.34-37.38,57.416-55.848,58.096-34.5.508,17.74-33.784,11.712-34.34,34.812Z"/>
            <path class="cls-23" d="M1828.28,1472.332c-.552,23.1,33.616,16.56,34.088,35.852-1.028,20.456-57.296,1.252-57.84-36.168,2.34-37.376,57.416-55.848,58.096-34.496.508,17.74-33.784,11.708-34.34,34.812h-.004Z"/>
            <path class="cls-23" d="M1848.444,1472.596c-.552,23.104,33.616,16.56,34.084,35.856-1.028,20.452-57.296,1.248-57.84-36.168,2.344-37.38,57.42-55.848,58.1-34.5.504,17.74-33.788,11.712-34.344,34.812Z"/>
          </g>
          <ellipse class="cls-7" cx="1944.629" cy="1469.655" rx="19.813" ry="19.497" transform="translate(104.151 3067.812) rotate(-78.049)"/>
          <ellipse class="cls-10" cx="1827.434" cy="1403.369" rx="17.444" ry="38.388" transform="translate(-125.225 180.224) rotate(-5.459)"/>
          <ellipse class="cls-10" cx="1798.006" cy="1401.049" rx="17.444" ry="38.388" transform="translate(-125.138 177.414) rotate(-5.459)"/>
          <ellipse class="cls-10" cx="1776.934" cy="1363.389" rx="17.444" ry="38.388" transform="translate(-121.65 175.239) rotate(-5.459)"/>
          <ellipse class="cls-10" cx="1806.765" cy="1361.742" rx="16.784" ry="42.348" transform="translate(-122.611 180.112) rotate(-5.52)"/>
          <ellipse class="cls-10" cx="1847.921" cy="1362.123" rx="16.784" ry="39.708" transform="translate(-121.924 183.182) rotate(-5.494)"/>
          <ellipse class="cls-10" cx="1825.305" cy="1348.495" rx="16.784" ry="39.708" transform="translate(-120.723 180.954) rotate(-5.494)"/>
          <ellipse class="cls-10" cx="1796.773" cy="1328.835" rx="16.784" ry="39.708" transform="translate(-118.972 178.132) rotate(-5.494)"/>
          <ellipse class="cls-10" cx="1770.353" cy="1316.923" rx="16.784" ry="39.708" transform="translate(-117.953 175.548) rotate(-5.494)"/>
          <path class="cls-22" d="M1741.064,989.356s-58.62,50.88-52.04,188.576c7.376,138.48,129.568,203.576,129.568,203.576,0,0,31.144-39.308,27.528-150.576-8.732-162.672-66.432-234.548-66.432-234.548l-38.624-7.028Z"/>
          <ellipse class="cls-10" cx="1873.093" cy="1407.805" rx="38.387" ry="17.444" transform="translate(313.295 3156.354) rotate(-85.194)"/>
          <ellipse class="cls-10" cx="1844.549" cy="1400.277" rx="38.387" ry="17.444" transform="translate(294.644 3121.013) rotate(-85.194)"/>
          <ellipse class="cls-10" cx="1830.525" cy="1359.461" rx="38.387" ry="17.444" transform="translate(322.468 3069.642) rotate(-85.194)"/>
          <ellipse class="cls-10" cx="1860.187" cy="1363.141" rx="42.347" ry="16.784" transform="translate(347.822 3104.176) rotate(-85.254)"/>
          <ellipse class="cls-10" cx="1900.608" cy="1370.868" rx="39.708" ry="16.784" transform="translate(376.396 3150.859) rotate(-85.229)"/>
          <ellipse class="cls-10" cx="1880.784" cy="1353.432" rx="39.708" ry="16.784" transform="translate(375.597 3115.118) rotate(-85.229)"/>
          <ellipse class="cls-10" cx="1856.212" cy="1329" rx="39.708" ry="16.784" transform="translate(377.416 3068.232) rotate(-85.229)"/>
          <ellipse class="cls-10" cx="1832.34" cy="1312.572" rx="39.708" ry="16.784" transform="translate(371.901 3029.381) rotate(-85.229)"/>
          <ellipse class="cls-9" cx="1865.377" cy="1225.963" rx="49.412" ry="151.872" transform="translate(-333.856 843.873) rotate(-23.458)"/>
          <ellipse class="cls-8" cx="1827.344" cy="1083.265" rx="19.049" ry="21.575" transform="translate(711.762 2891.061) rotate(-88.981)"/>
          <ellipse class="cls-14" cx="1843.551" cy="1056.342" rx="19.049" ry="19.327" transform="translate(754.329 2880.66) rotate(-88.973)"/>
          <ellipse class="cls-14" cx="1817.483" cy="1055.878" rx="19.049" ry="19.327" transform="translate(729.192 2854.141) rotate(-88.973)"/>
          <ellipse class="cls-20" cx="1823.232" cy="1036.149" rx="17.882" ry="20.227" transform="translate(754.798 2840.652) rotate(-88.98)"/>
          <ellipse class="cls-20" cx="1820.936" cy="1013.561" rx="17.882" ry="20.227" transform="translate(775.127 2816.17) rotate(-88.98)"/>
          <ellipse class="cls-14" cx="1792.579" cy="1040.662" rx="19.049" ry="19.327" transform="translate(719.948 2814.298) rotate(-88.973)"/>
          <ellipse class="cls-12" cx="1798.401" cy="1016.273" rx="18.66" ry="19.327" transform="translate(750.454 2796.403) rotate(-88.986)"/>
          <ellipse class="cls-8" cx="1766.484" cy="1016.865" rx="19.049" ry="21.575" transform="translate(718.374 2764.991) rotate(-88.981)"/>
          <ellipse class="cls-20" cx="1806.156" cy="985.305" rx="17.882" ry="20.227" transform="translate(788.862 2773.64) rotate(-88.98)"/>
          <ellipse class="cls-12" cx="1779.113" cy="988.713" rx="18.66" ry="19.327" transform="translate(759.063 2750.046) rotate(-88.986)"/>
          <ellipse class="cls-14" cx="1738.135" cy="1017.918" rx="19.049" ry="19.327" transform="translate(689.221 2737.526) rotate(-88.973)"/>
          <ellipse class="cls-12" cx="1744.849" cy="1003.709" rx="18.66" ry="19.327" transform="translate(710.412 2730.518) rotate(-88.986)"/>
          <ellipse class="cls-12" cx="1753.049" cy="988.013" rx="18.66" ry="19.327" transform="translate(734.16 2723.299) rotate(-88.986)"/>
          <ellipse class="cls-21" cx="1879.796" cy="1202.278" rx="62.583" ry="180.927" transform="translate(-325.183 859.971) rotate(-23.778)"/>
          <ellipse class="cls-10" cx="1931.352" cy="1231.327" rx="12.136" ry="37.886" transform="translate(-333.382 888.884) rotate(-23.921)"/>
          <g>
            <path class="cls-18" d="M1925.852,1231.296c51.24,62.392,44.772,102.012,39.428,135.532-16.1-38.652-24.892-62.984-76.14-125.388-51.252-62.4-25.672-106.192-22.152-129.264,7.704,19.972,7.612,56.716,58.864,119.12Z"/>
            <path class="cls-18" d="M1930.464,1281.692c51.24,62.392,44.776,102.008,39.428,135.528-16.096-38.652-24.888-62.984-76.14-125.388-51.252-62.396-25.668-106.184-22.152-129.26,7.708,19.972,7.612,56.716,58.864,119.12Z"/>
            <path class="cls-18" d="M1932.008,1322.28c52.48,61.292,46.8,101.04,42.128,134.668-16.868-38.304-26.144-62.44-78.632-123.744-52.488-61.3-27.788-105.62-24.732-128.76,8.104,19.8,8.744,56.536,61.236,117.84v-.004Z"/>
          </g>
          <ellipse class="cls-16" cx="1895.607" cy="1172.477" rx="22.074" ry="67.497" transform="translate(-317.941 911.263) rotate(-25.008)"/>
          <ellipse class="cls-1" cx="1875.267" cy="1207.152" rx="19.276" ry="55.439" transform="translate(-330.876 880.388) rotate(-24.345)"/>
          <ellipse class="cls-1" cx="1850.977" cy="1230.683" rx="19.274" ry="55.444" transform="translate(-334.827 827.002) rotate(-23.156)"/>
          <ellipse class="cls-17" cx="1871.077" cy="1145.442" rx="15.416" ry="42.406" transform="translate(-318.66 1011.211) rotate(-27.966)"/>
          <ellipse class="cls-17" cx="1850.479" cy="1161.226" rx="15.465" ry="42.271" transform="translate(-314.667 869.917) rotate(-24.447)"/>
          <path class="cls-18" d="M1834.48,1137.028c15.148,37.02,21.28,70.312,13.68,74.312-7.596,3.996-26.052-22.8-41.204-59.824"/>
          <ellipse class="cls-17" cx="1847.983" cy="1117.738" rx="15.465" ry="42.271" transform="translate(-296.893 864.985) rotate(-24.447)"/>
          <ellipse class="cls-17" cx="1822.623" cy="1129.944" rx="15.481" ry="42.225" transform="translate(-297.617 808.526) rotate(-23.177)"/>
          <g>
            <path class="cls-18" d="M1808.104,1086.748c14.712,25.016,22.632,48.376,17.672,52.148-4.952,3.768-20.908-13.472-35.62-38.488"/>
            <path class="cls-18" d="M1818.292,1070.16c14.708,25.016,22.628,48.376,17.668,52.148-4.952,3.768-20.908-13.472-35.62-38.488M1864.052,1073.672c20.5,34.172,31.532,66.08,24.616,71.24-6.908,5.16-29.152-18.392-49.652-52.56"/>
            <path class="cls-18" d="M1833.808,1055.772c14.772,27.616,22.748,53.392,17.8,57.54-4.948,4.144-20.944-14.908-35.716-42.528"/>
          </g>
          <g>
            <g>
              <path class="cls-19" d="M1832.5,1015.756c-9.864,9.928-.204,28.492,8.82,35.2,10.12,9.18,66.968,69.148,107.076,18.692-32.136-.584-92.108-76.016-115.896-53.892Z"/>
              <path class="cls-19" d="M1825.476,986.156c-9.86,9.932-.2,28.496,8.824,35.208,10.12,9.176,66.968,69.144,107.072,18.688-32.132-.584-92.104-76.02-115.896-53.896Z"/>
              <path class="cls-19" d="M1816.492,957.796c-9.864,9.928-.204,28.496,8.82,35.204,10.12,9.176,66.968,69.144,107.076,18.688-32.136-.584-92.108-76.016-115.896-53.892Z"/>
              <path class="cls-19" d="M1796.964,925.352c-9.86,9.932-.2,28.496,8.824,35.204,10.12,9.18,66.968,69.148,107.076,18.692-32.136-.588-92.108-76.02-115.904-53.896h.004Z"/>
            </g>
            <path class="cls-3" d="M1726.912,894.308c20.32-15.12,57.648-19.536,86.724-4.732,24.224,11.864,64.592,60.292,94.94,71.74-21.36,3.808-34.36.588-48.008-5.968-26.956,19.52-36.56,22.444-64.032,26.28-38.204,5.512-69.92-4.432-81.064-24.36-11.356-18.796-6.46-48.952,11.44-62.96Z"/>
          </g>
          <ellipse class="cls-13" cx="1770.026" cy="924.461" rx="10.152" ry="17.503" transform="translate(814.206 2677.751) rotate(-88.98)"/>
          <ellipse class="cls-15" cx="1716.645" cy="965.541" rx="24.394" ry="14.868" transform="translate(-229.103 660.245) rotate(-20.439)"/>
          <ellipse class="cls-25" cx="1769.119" cy="923.773" rx="5.442" ry="6.293" transform="translate(814.229 2676.293) rotate(-88.988)"/>
          <path class="cls-11" d="M1731.488,938.04c1.608,7.8-4.172,18.332-16.72,22.06-12.78,5.292-22.472,17.288-28.064,36.908-19.424-44.736-7.08-63.664,13.552-68.264,17.744-5.66,28.44-4.944,31.232,9.296Z"/>
        </g>
      </g>
    </g>
  </g>
</svg>