<?xml version="1.0" encoding="UTF-8"?>
<svg xmlns="http://www.w3.org/2000/svg" viewBox="0 0 3600.1 2401.738">
  <defs>
    <style>
      .cls-1 {
        fill: #006233;
      }

      .cls-1, .cls-2, .cls-3 {
        stroke-width: 0px;
      }

      .cls-2 {
        fill: #d21034;
      }

      .cls-3 {
        fill: #eee;
        fill-rule: evenodd;
      }
    </style>
  </defs>
  <g id="background">
    <path id="bg" class="cls-3" d="M400,.1h2800c220,0,400,180,400,400v1600c0,220-180,400-400,400H400C180,2400.1,0,2220.1,0,2000.1V400.1C0,180.1,180,.1,400,.1Z"/>
  </g>
  <g id="country">
    <g id="dz">
      <path class="cls-1" d="M400,.1C180,.1,0,180.1,0,400.1v1600C0,2220.1,180,2400.1,400,2400.1h1400V.1H400Z"/>
      <path class="cls-2" d="M2319.616,900.1c-165.686-286.976-532.64-385.301-819.615-219.615s-385.301,532.64-219.615,819.615c165.685,286.976,532.64,385.301,819.615,219.615,91.211-52.661,166.954-128.404,219.615-219.615-165.686,206.941-467.759,240.385-674.7,74.7-206.941-165.685-240.385-467.759-74.7-674.7,165.685-206.941,467.759-240.385,674.7-74.7,27.573,22.076,52.624,47.127,74.7,74.7M2342.704,1200.1l-542.704-176.336,335.412,461.652v-570.632l-335.412,461.652,542.704-176.336Z"/>
    </g>
  </g>
</svg>