<?xml version="1.0" encoding="UTF-8"?>
<svg xmlns="http://www.w3.org/2000/svg" viewBox="0 0 3600.1 2401.738">
  <defs>
    <style>
      .cls-1 {
        stroke-width: 4.855px;
      }

      .cls-1, .cls-2, .cls-3, .cls-4, .cls-5, .cls-6, .cls-7, .cls-8, .cls-9, .cls-10, .cls-11, .cls-12 {
        stroke: #c09300;
      }

      .cls-1, .cls-2, .cls-3, .cls-4, .cls-5, .cls-6, .cls-13, .cls-14, .cls-10, .cls-15, .cls-11, .cls-12 {
        fill-rule: evenodd;
      }

      .cls-1, .cls-2, .cls-3, .cls-4, .cls-6, .cls-14, .cls-10, .cls-11 {
        fill: #fff;
      }

      .cls-1, .cls-2, .cls-5, .cls-7, .cls-8, .cls-12 {
        stroke-miterlimit: 8;
      }

      .cls-2 {
        stroke-width: 4.584px;
      }

      .cls-3 {
        stroke-width: 9.479px;
      }

      .cls-3, .cls-4, .cls-6, .cls-9, .cls-10, .cls-11 {
        stroke-linejoin: round;
      }

      .cls-3, .cls-6, .cls-10 {
        stroke-linecap: round;
      }

      .cls-4 {
        stroke-width: 5.064px;
      }

      .cls-5 {
        stroke-width: 1.411px;
      }

      .cls-5, .cls-13, .cls-12 {
        fill: #c09300;
      }

      .cls-6 {
        stroke-width: 3.551px;
      }

      .cls-16 {
        fill: #141414;
      }

      .cls-16, .cls-13, .cls-14, .cls-17, .cls-15 {
        stroke-width: 0px;
      }

      .cls-7 {
        stroke-width: 5.062px;
      }

      .cls-7, .cls-8, .cls-9 {
        fill: none;
      }

      .cls-8 {
        stroke-width: 3.651px;
      }

      .cls-17 {
        fill: #eee;
      }

      .cls-9, .cls-10 {
        stroke-width: 5.062px;
      }

      .cls-15 {
        fill: #ce1225;
      }

      .cls-11 {
        stroke-width: 4.739px;
      }

      .cls-12 {
        stroke-width: 4.28px;
      }
    </style>
  </defs>
  <g id="background">
    <path id="eg" class="cls-15" d="M400,.1h2800c220,0,400,180,400,400v1600c0,220-180,400-400,400H400C180,2400.1,0,2220.1,0,2000.1V400.1C0,180.1,180,.1,400,.1Z"/>
  </g>
  <g id="country">
    <g id="eg-2" data-name="eg">
      <g id="h">
        <path class="cls-17" d="M3600,2000.1V800.1H0v1200C0,2220.1,180,2400.1,400,2400.1h2800c220,0,400-180,400-400Z"/>
        <path class="cls-16" d="M3600,2000.1v-400H0v400C0,2220.1,180,2400.1,400,2400.1h2800c220,0,400-180,400-400Z"/>
      </g>
      <g>
        <path class="cls-4" d="M1803.198,1209.551l272.264,253.156-19.384-459.768c-2.846-69.682-63.302-53.696-107.218-28.559-44.489,28.559-95.243,28.559-148.86,9.701-53.607,18.855-104.365,18.855-148.854-9.701-43.912-25.133-104.359-41.123-107.215,28.556l-19.393,459.771,278.66-253.156Z"/>
        <path class="cls-13" d="M1575.321,984.797l-18.826,449.421-31.957,28.68,19.403-462.022c9.125-6.317,25.108-16.075,31.381-16.075v-.003ZM1613.582,1016.965l-15.977,375.939-31.944,32.888,19.396-434.093c6.282,6.31,25.111,21.806,28.525,25.247v.019ZM1648.382,1045.655l-12.548,313.545-25.672,25.247,15.98-357.733c6.26,6.313,18.81,15.499,22.24,18.94ZM1686.044,1061.739l-12.551,267.233-25.108,20.485,12.551-297.473c6.282,2.872,18.833,9.755,25.108,9.755ZM1720.845,1061.739l-9.135,222.7-25.672,25.26,9.704-245.085c6.263,0,22.243,0,25.102-2.875ZM2024.644,987.963l18.83,446.444,31.957,28.49-19.406-458.964c-9.122-6.272-25.108-15.967-31.377-15.967l-.003-.003ZM1986.386,1019.92l15.977,373.447,31.944,32.672-19.396-431.218c-6.282,6.269-25.111,21.66-28.528,25.077l.003.022ZM1951.586,1048.419l12.548,311.468,25.672,25.083-15.98-355.368c-6.26,6.272-18.81,15.397-22.24,18.817ZM1913.924,1064.399l12.551,265.46,25.108,20.349-12.554-295.501c-6.279,2.85-18.83,9.689-25.108,9.689l.003.003ZM1879.124,1064.399l9.135,221.221,25.672,25.092-9.704-243.461c-6.263,0-22.243,0-25.102-2.853Z"/>
        <path class="cls-12" d="M1814.102,1261.61l38.14,174.291-12.529,12.567-13.089-9.714-21.632-155.421,9.109,155.421-12.526,15.996-12.522-15.996,9.109-155.421-21.625,155.421-13.102,9.714-12.513-12.567,38.131-174.291h25.048,0Z"/>
        <path class="cls-11" d="M1715.886,1185.922l-75.831,268.996,104.346,15.964,44.467-202.325-72.985-82.635h.003Z"/>
        <path class="cls-9" d="M1689.128,1275.919l8.9,22.42,48.092-47.497"/>
        <path class="cls-9" d="M1721.481,1219.167l10.347,97.254,31.453-41.256M1750.699,1291.189l17.18,59.424M1774.616,1328.782l-34.749,52.895M1750.705,1434.471l-11.123-52.721-9.708-53.623-23.281,31.593-10.211-36.427-32.584,33.496,16.572,60.925,22.87-37.691,12.579,38.4,23.478-36.602M1660.638,1447.528l21.173-28.924,13.792,44.517,18.912-31.209,12.614,37.352"/>
        <path class="cls-11" d="M1887.268,1185.922l75.831,268.996-104.346,15.964-44.467-202.325,72.981-82.639v.003Z"/>
        <path class="cls-9" d="M1910.859,1275.919l-9.394,22.417-50.764-47.493"/>
        <path class="cls-9" d="M1875.34,1219.167l-10.347,97.254-31.453-41.256M1846.122,1291.189l-17.18,59.424M1822.205,1328.782l34.749,52.895M1846.116,1434.471l11.123-52.721,9.708-53.623,23.281,31.593,10.211-36.427,32.584,33.496-16.572,60.925-22.87-37.691-12.579,38.4-23.478-36.602M1939.346,1447.528l-21.173-28.924-13.795,44.517-18.912-31.209-12.614,37.355"/>
        <path class="cls-3" d="M1801.501,1575.314c79.27,0,155.11-6.294,199.583-18.893,18.82-3.429,18.82-13.162,18.82-25.767,18.823-6.294,9.122-28.62,22.236-28.62-13.115,3.445-15.961-22.328-31.928-18.883,0-22.338-22.24-25.197-41.06-18.909-37.637,12.602-104.353,15.467-167.652,15.467-63.293-2.865-129.442-2.865-167.648-15.467-18.817-6.288-41.047-3.429-41.047,18.909-15.97-3.442-18.82,22.328-31.931,18.887,13.111,0,3.416,22.322,22.236,28.616,0,12.605,0,22.338,19.387,25.767,43.9,12.598,119.75,18.893,199.004,18.893h0Z"/>
        <path class="cls-10" d="M1691.275,1453.281c25.862,3.306,54.608,6.054,77.034,3.306,12.636,0,21.837,20.907-3.454,24.215-22.414,2.745-57.483,0-76.458-3.309-16.094-2.751-51.16-8.802-73.586-14.865-22.417-9.344-6.313-27.495,6.32-24.75,19.551,6.051,44.85,12.108,70.145,15.407v-.003ZM1908.58,1453.281c-25.874,3.306-54.611,6.054-76.461,3.306-13.225,0-22.423,20.907,2.875,24.215,22.42,2.745,57.489,0,76.449-3.309,16.103-2.751,51.166-8.802,73.586-14.865,22.426-9.344,6.332-27.495-6.32-24.75-19.548,6.051-44.84,12.108-70.129,15.407v-.003Z"/>
        <path class="cls-10" d="M1612.151,1441.116c-19.52-3.419-28.708,18.788-22.385,31.32,2.865-6.266,16.075-6.266,18.95-12.532,3.435-9.676-2.875-9.676,3.435-18.788h0ZM1688.523,1499.375c0-12.522,12.627-10.984,12.627-23.516,0-6.263-3.439-15.955-9.755-15.955s-12.636,6.266-12.636,12.529c-2.875,12.538,9.765,14.422,9.765,26.941h0ZM1779.426,1463.315c18.934,0,17.057,25.073,7.868,37.605,0-9.112-16.078-12.532-16.078-18.788,0-9.698,14.514-9.698,8.21-18.817h0ZM1987.688,1441.116c19.523-3.419,28.715,18.788,22.395,31.32-2.872-6.266-16.078-6.266-18.95-12.532-3.445-9.676,2.875-9.676-3.445-18.788ZM1911.315,1499.375c0-12.522-12.621-10.984-12.621-23.516,0-6.263,3.439-15.955,9.758-15.955s12.633,6.266,12.633,12.529c2.872,12.538-9.771,14.422-9.771,26.941h0ZM1820.413,1463.315c-18.94,0-17.063,25.073-7.874,37.605,0-9.112,16.075-12.532,16.075-18.788.003-9.698-14.514-9.698-8.201-18.817h0Z"/>
        <path class="cls-6" d="M1621.051,1448.693c6.288,0,15.993,2.884,18.849,6.332l-18.868-6.345.019.013ZM1652.419,1458.493c3.429,0,15.996,2.875,22.274,6.323l-22.293-6.345.019.022ZM1766.666,1471.142c-6.282,0-18.845,0-22.265,2.869l22.252-2.891.013.022ZM1731.834,1471.142c-3.42-3.464-15.989-3.464-22.268,0h22.268ZM1981.982,1448.693c-6.282,0-15.423,2.884-18.852,6.332l18.852-6.332ZM1950.573,1458.493c-3.423,0-15.989,2.875-22.271,6.323l22.29-6.345-.019.022ZM1836.329,1471.142c6.285,0,18.849,0,22.271,2.869l-22.29-2.891.019.022ZM1871.158,1471.142c3.426-3.464,15.996-3.464,22.274,0h-22.293.019Z"/>
        <path class="cls-13" d="M1612.806,1498.473c-2.121-.386-3.236-1.992-2.704-3.891.652-2.314,2.593-3.638,4.423-3.017,1.165.393,3.299,2.448,3.309,3.185.009.845-1.118,2.859-1.602,2.865-.209,0-.532.174-.719.386-.399.446-1.643.665-2.707.472ZM1831.181,1513.363c-.788-.282-2.048-1.969-2.045-2.751.006-1.469,2.283-3.866,3.692-3.879.696-.003,2.603.944,3.315,1.65,1.292,1.286,1.01,3.391-.614,4.588-.798.592-3.179.804-4.347.389v.003ZM1832.612,1522.783c-1.669-.541-2.28-1.32-2.416-3.09-.142-1.846.044-2.131,2.083-3.195l1.453-.757,1.377.586c1.909.814,2.758,1.691,2.824,2.916.073,1.32-.953,2.672-2.546,3.353-1.396.598-1.479.605-2.777.187h0Z"/>
        <path class="cls-13" d="M1629.85,1478.747c-1.39-.044-3.299,1.213-4.392,1.849-2.609.602-5.642,2.178-8.159.494-2.479-.754-5.778-.158-6.152,2.84.636,2.574,4.306,4.046,6.529,2.346,1.65-2.125,6.149-3.369,6.652.244-1.836,2.736-1.627,6.355-3.138,9.258-.247,1.808-1.013,3.527-2.011,5.063-1.855.18-3.828-.035-5.395,1.108-2.514.136-5.082,1.365-6.529,3.458-1.618,2.283-3.166,4.604-3.641,7.406.434,2.862,3.768,3.682,6.279,3.825,2.675.725,5.357,1.675,8.033,2.47,4.36.959,8.441,2.508,12.804,3.454,6.361,1.887,13.045,2.755,19.453,4.445.671.218,1.301.408,2.007.494,2.663.541,4.05-2.302,4.268-4.445,1.32-4.578,2.327-9.236,3.641-13.824.902-1.836,1.995-5.99-1.631-5.06-2.071,1.219-3.825,3.055-6.402,3.207-3.511.203-1.507,3.736-.127,5.186.307,2.321-.44,5.091-2.007,6.912-2.09,1.301-4.705-.222-6.906-.741-2.305.038-6.921-1.118-4.768-4.198.763-2.276.833-4.771,1.757-7.032,1.178-2.428,1.349-5.079,1.884-7.653-1.453-3.071-3.932,1.01-5.899,1.355-1.358.928-6.45,1.32-3.768,3.705,2.311,1.726.538,4.727.127,6.912-.149,3.043-3.366,3.768-5.902,3.087-2.52-.12-6.028-1.966-3.888-4.692.484-2.27,1.292-4.502,1.757-6.788.953-2.755,1.754-5.383,2.761-8.147.434-2.448,1.33-4.768,2.508-6.912.07-2.707,1.919-5.034,1.884-7.776-.187-1.336-.798-1.824-1.631-1.849h0ZM1615.415,1507.379c.299-.051.607-.008.88.123,1.001.421,1.032,1.222,0,2.099-.453.383-.966.754-1.13.741-1.881-.158-2.435-.434-2.511-1.111-.07-.595.123-.769,1.38-1.358.437-.223.901-.389,1.38-.494h0ZM1611.252,1527.209c-1.992-1.843-1.669-3.185,1.276-5.345,1.26-.925,2.026-.82,3.467.472,2.219,1.992,2.308,3.252.348,4.958-.969.842-1.39,1.016-2.517,1.026-1.178.013-1.513-.133-2.574-1.111ZM1623.505,1530.844c-1.83-.413-2.979-2.232-2.566-4.062.002-.011.005-.021.007-.032l.057-.203c.516-1.719.814-1.887,3.375-1.912,2.872-.029,3.429.446,3.454,2.932.016,1.399-.092,1.722-.801,2.371-.833.76-2.432,1.168-3.527.902v.003ZM1981.422,1531.158c-.912-.744-1.096-1.083-1.105-2.033-.013-1.621.937-2.812,2.995-3.727,2.739-1.222,3.857-1.054,4.889.731,1.371,2.378,1.304,3.347-.339,4.946-.906.883-1.077.934-3.153.956-2.036.013-2.27-.041-3.287-.874ZM1639.77,1535.701c-1.46-.383-2.216-1.463-2.235-3.185-.019-1.32.079-1.529,1.016-2.251.608-.469,1.567-.871,2.324-.969,1.073-.146,1.463-.054,2.327.541,2.21,1.529,2.682,3.04,1.4,4.509-1.365,1.561-2.656,1.925-4.832,1.355ZM1727.816,1539.57c-.326-.396-1.042-.63-1.118-1.134.13-2.191.238-4.411.947-6.51.386-2.064.048-4.224.779-6.234.753-3.66.75-7.437,1.615-11.072.041-1.874.222-3.749.776-5.554.633-2.85.054-5.829.909-8.647-.092-1.058,1.146-3.882,2.232-2.21,1.58,2.28,3.663,4.129,5.709,5.984,1.757,1.001.146,2.47-1.07,2.964-1.669.646-2.074,2.451-1.957,4.037-.234,1.637-.899,3.185-.969,4.857-.352,2.46-.285,4.958-.608,7.412-.731,2.406-.453,4.977-.696,7.456.032,1.574-.728,3.002-.624,4.582-.193,1.602-.266,3.534-1.634,4.632-1.32.655-3.233.541-4.293-.564h.003ZM1847.107,1500.863c-1.938,1.441-3.67,3.141-5.398,4.816-2.378,1.773,1.957,2.802,2.511,4.319.633,2.314.595,4.781.753,7.159.731,2.184,1.03,4.49.88,6.788-.209,2.46-3.47,1.941-4.895,3.334-1.976.817-2.764,2.726-4.268,4.072-.991,1.906-1.254,4.252-1.38,6.418.139,1.77-1.216,3.749,0,5.31.155.218.342.519.5.738.409.576,1.377.117,2.011.247,2.02-.111,4.129.187,6.022-.617,4.86-.826,9.765-.893,14.688-1.108,3.008.092,5.902-.937,8.91-.864,2.359.513,3.42-2.001,3.391-3.828-1.336-2.58-.184-5.642-1.257-8.27-.943-2.656-.57-5.639-1.004-8.39-.06-2.169-2.856-2.97-4.268-1.358-1.371,1.361-3.584,1.634-4.645,3.331-1.19,2.381,2.52,2.384,3.138,4.198.709,1.833.478,3.872.627,5.801.459,2.34-2.125,2.473-3.765,2.717-2.156.795-5.18,1.323-6.402-1.235-.766-1.893-.662-3.923-.877-5.924-.054-3.524-.915-6.988-1.13-10.493-.206-4.331-.966-8.637-1.254-12.959-.041-1.798-.285-4.733-2.888-4.195v-.003ZM1844.596,1533.45l1.257.123.123,1.479.127,1.482-1.634.494c-.535.159-1.08.283-1.631.37-.258-.154-.509-.319-.753-.494-.88-.627-.655-1.52.503-2.713.652-.674.959-.804,2.007-.741h0ZM1724.239,1496.794c-1.526.535-3.464,2.739-5.019,2.717-3.537.247-3.043,3.632-.503,4.813.336,1.029.022,2.324.127,3.458.494,3.119-1.507,5.626-1.13,8.764-.177,3.435-1.232,6.785-1.38,10.243-.991,3.568-1.004,7.238-1.631,10.863-.421,3.252-2.812,2.102-4.898,1.235-.016-1.409-.108-2.786-.123-4.198.868-3.226-1.773-4.17-4.395-4.566-2.755.256-4.107-2.068-3.514-4.442,1.184-1.387,4.164-1.001,6.025-1.235,3.942.804,3.784-4.392,1.757-6.171-1.384-2.511-4.813-3.591-5.772-6.171.383-3.423-1.928-6.842-4.772-8.517-4.373-.301-7.672,3.407-9.286,7.035-1.821.516-3.632,1.051-5.398,1.729-2.846.7-6.909,5.557-3.014,7.403,2.188.592,8.84,2.087,5.902,5.063-1.656,2.793-4.825,2.84-7.659,2.099-2.903,0-6.139-1.393-6.022-4.692-.595-2.96-.497-6.155-1.884-8.888-.595-3.315-4.42-2.539-4.645.494-2.945,2.112-2.552,5.522-.5,8.023,1.279,2.878.013,6.231-1.254,8.888-.769,3.454-4.645,3.571-7.409,4.689-1.355.519-6.538-.307-4.642,2.593,3.024,1.048,6.636,1.995,9.79,1.232,3.306-.402,6.174-2.625,7.783-5.43,2.219-2.21,6.032-1.054,8.91-1.111,3.106-.006,6.279,2.144,9.29.741.871-2.226,4.908-5.905,6.149-2.096-.209,3.407,2.85,5.234,6.025,4.813,3.47-.193,2.188,2.413,2.134,4.445.231,3.689,2.65,5.626,5.775,7.159,1.064.282,2.188.187,3.261,0,3.005-.931,6.241-2.248,7.156-5.557,1.219-2.688,1.247-5.728,2.134-8.514.712-4.464,1.631-8.929,1.757-13.453,1.108-4.103.792-8.438,1.631-12.592.532-3.087.928-6.174,1.257-9.255-.37-1.65-1.092-1.925-2.011-1.605v-.003ZM1697.003,1513.211c.608.073.947.807,1.004,2.099.063,1.437.83,2.609,1.757,2.837.735.18.671.944-.123,1.482-.462.313-1.289.503-2.764.494-2.321-.013-3.758-.602-5.019-1.852l-.753-.738,1.13-.744c.792-.614,1.545-1.273,2.258-1.973,1.146-1.149,1.903-1.678,2.511-1.605h0ZM1962.222,1482.103c-2.276.101-4.566.465-6.649.988-4.179-.256-6.279,4.056-2.261,6.171,2.416,6.06,6.187-1.251,10.04-.741,5.775,1.105,6.263,7.238,7.156,11.848.326,4.569,1.662,9.014,3.011,13.333,3.866,4.224-2.894,6.871-5.772,3.578-2.457-2.625-7.716-5.845-10.67-2.223-3.628,1.513-3.777,6.282-6.779,7.653-4.854,1.456-5.465-4.42-8.033-6.912-2.359-3.255-6.868-3.54-10.544-4.689-1.722-3.432-.823-9.264-4.392-11.601-2.995,1.2-8.489,6.722-3.891,9.255,4.49,3.796-1.96,5.535-4.018,8.147-2.938,3.217-3.407,7.646-3.891,11.728-5.056,2.745-6.041-3.112-6.652-6.792-.393-4.388-4.161-3.1-6.779-1.479-3.825,1.523-5.734,5.094-8.41,7.897-.32,2.558.152,5.36.127,8.023.868,3.204,4.829,1.7,7.279,1.482,3.932-1.618,5.541,2.479,2.387,4.816-2.137,2.669-8.916,1.273-8.286,5.554,2.185.25,4.461.168,6.652,0,4.379-1.178,9.084-4.217,9.54-9.011.576-4.179,6.697-3.419,10.04-4.319,4.183-1.187,9.217-1.491,10.17,3.701,2.846,2.941,9.03,6.257,12.174,2.223,3.192-1.919,4.724-5.284,4.518-8.888-.652-3.1,5.094-3.211,6.526-1.482,2.096,3.388,8.641,2.391,11.8.494,3.356-2.438,4.088-6.735,8.913-6.788,7.156-2.109,14.593-3.324,21.587-5.924,5.664-1.216-.842-4.73-2.261-6.788-4.312-2.099-8.064,6.484-12.928,2.219-3.758-2.827-3.502-8.201-4.895-12.342-.953-5.36-.712-11.544-4.645-15.799-2.701-2.821-6.367-3.502-10.167-3.331h0ZM1934.859,1519.503c.507-.013,1.077.234,2.011.741,1.761.953,3.014,2.539,3.011,3.825,0,.839-.218.896-1.507,1.482-.792.358-1.691.744-2.007.741-.728-.009-2.508-1.409-2.511-1.976-.003-.234-.231-1.13-.5-1.849-.475-1.27-.402-1.251.25-2.099.415-.545.75-.852,1.254-.864h0ZM1961.095,1520.858c1.494-.095,2.384.364,3.011,1.485.731,1.298.234,2.292-1.631,3.084-.817.348-1.637.63-1.757.617-.123-.013-.798-.405-1.507-.864-1.086-.703-1.244-1.042-1.254-1.852-.013-1.244,1.403-2.356,3.135-2.47h.003ZM1925.196,1521.228c.437-.066.836.158,1.38.617.722.611.95,1.102,1.13,2.346.123.864.105,1.982,0,2.47-.196.893-.215.852-2.261.864-2.571.022-2.812-.253-2.761-2.593.032-1.488.048-1.89.88-2.717.643-.64,1.194-.921,1.631-.988ZM1903.105,1526.909c.873.181,1.561.856,1.757,1.726.263,1.257.032,1.827-1.007,2.346-.89.446-2.948.595-3.514.247-.302-.189-.558-.442-.75-.741-.275-.478-.225-.709.123-.988.244-.193.503-.472.503-.617-.003-.143.269-.643.627-1.111.513-.712,1.4-1.051,2.258-.861h.003ZM1940.258,1531.598c.641-.014,1.266.205,1.757.617.744.64.719,1.58-.127,2.223-.541.412-3.502.374-4.518,0-.453-.168-.624-.393-.627-.864-.009-.557.149-.899,1.13-1.358.82-.386,1.669-.614,2.384-.617ZM1871.288,1550.63c-.383-.247-.956-.462-.38-.874.693-1.197,2.08-1.608,3.312-2.055,2.192-.967,4.093-2.489,5.516-4.417.199-1.314,1.704-2.03,1.697-3.404.009-1.874.123-3.796-.342-5.633-.513-1.681-1.814-2.97-3.318-3.844-1.032-.798-2.707-1.016-3.087-2.428-.212-1.352,1.016-2.384,1.447-3.591.896-1.665,1.653-3.41,2.615-5.034,1.039-1.137,2.644-.063,3.185,1.035.76,1.096,1.431,2.273,1.808,3.543,1.216,1.311,2.292,2.85,2.729,4.591.595,1.225,1.539,2.378,1.482,3.815,0,1.646.943,3.109.887,4.765.054,2.213.051,4.521-.773,6.611-.56,1.159-1.688,1.855-2.435,2.894-1.279,1.168-2.691,2.286-4.338,2.907-1.159.364-1.833,1.681-3.29,1.361-2.068.035-4.164.313-6.215-.016.13.215-.627-.361-.5-.225v-.003ZM1843.773,1552.409c-.975-.988-1.184-1.406-1.197-2.371-.009-.978.18-1.368,1.133-2.314,1.761-1.748,2.622-1.792,5.661-.279,2.903,1.447,3.885,1.577,4.145.554.253-.988,1.925-1.893,3.511-1.9,1.007-.009,1.574.19,2.378.804,1.01.773,1.061.893,1.086,2.682.016,1.83-.009,1.9-1.168,2.91-1.114.962-1.292,1.023-2.672.887-1.757-.174-2.809-.962-3.097-2.324-.206-.988-.56-1.222-.823-.554-.085.218-.516.484-.959.592-.817.203-2.204,1.061-3.188,1.976-.374.345-1.026.51-2.083.519-1.431.009-1.627-.073-2.726-1.181h0ZM1764.165,1517.255c-2.669.029-5.544,2.239-5.899,4.813.611,2.973,3.122,5.886,1.507,9.011,1.114,4.002-3.059,5.519-5.902,3.211-1.716-3.837-2.584-8.042-5.145-11.478-3.23-.902-4.639,4.173-6.902,5.924,1.121,2.983,4.401,5.655,4.768,9.378.785,3.616-1.45,7.627-4.645,9.505-2.755,2.587-6.529,1.662-9.913,2.223-4.116,2.362,3.017,3.226,4.895,3.331,4.208.421,8.574-.123,11.671-3.207,3.09-1.45,2.853-6.706,6.529-7.282,6.38-.282,12.703.959,19.077,1.111,3.413.801,8.691-.402,11.047,2.096.006,4.376,3.777,7.073,7.406,8.764,2.004.548,4.113-1.893,6.149-2.346,3.879-1.216,2.701-5.93,5.022-7.776,6.63-.351,13.32-.275,19.957-.37,1.263.032,1.637-1.735,2.511-2.466-.146-2.523-.238-5.028-.627-7.529-1.279-3.185.206-7.285-2.134-9.999-3.334-.893-6.171,2.109-9.54,2.346-3.72,1.631-6.852,5.009-7.029,9.135-2.201,3.54-5.734-.63-4.518-3.581-.139-1.286.282-2.78-.127-3.948-2.036-2.403-5.601-1.618-8.406-1.976-4.094.161-8.087-.709-12.177-.617-3.587-.266-7.317.307-10.794-.614-4.145-.117-3.575-4.103-4.268-6.915-.735-.512-1.616-.772-2.511-.741h0ZM1772.197,1531.819c1.377.029,2.679.206,4.018.37,1.729.282,3.575-.586,5.272,0,3.923.655,7.846.5,11.797.864,1.045-.016,1.792.728,2.511,1.358.009,2.698.003,5.446,0,8.147-.12,1.016.307,2.362-.627,3.084-.298.23-.64.398-1.004.494-1.089-.275-2.238-.978-2.764-1.976-.165-1.412.073-2.78.127-4.195-.028-.367.165-.937,0-1.235-.839-.617-1.847-.962-2.888-.988-3.41-.114-6.754-.361-10.167-.494-2.837-.174-5.756.241-8.533-.491-1.08-.386-2.482-.256-3.138-1.358-.94-1.077.415-2.359,1.38-2.84,1.279-.57,2.637-.766,4.015-.741h0ZM1817.509,1532.807c.636-.009.839.196,1.13,1.358.184.741.399,1.646.5,1.976.146.465-.085.617-.75.861-1.985.738-3.961.665-4.645-.244-.313-.415.051-1.719.627-2.223,1.162-1.023,2.451-1.726,3.138-1.729h0Z"/>
        <path class="cls-1" d="M1849.121,1012.099c2.66.158-3.6-14.185-3.6-14.185,7.042,7.172,33.635,8.884,33.635,8.884-15.958-7.02-31.909-60.013-30.035-102.25,1.722-42.393-6.098-59.075-12.358-65.307-7.979-7.95-33.632-14.964-50.527-15.901-9.543-.465-7.979,7.168-7.979,7.168-17.674-4.518-35.351-6.231-43.33-.934-7.513,4.99-9.078,29.927-3.597,25.564,13.292-10.601,24.871-.934,32.847,10.597,7.039,10.132,6.57,38.812-3.6,72.32-10.635,35.224-39.733,70.452-39.733,70.452,15.799,0,38.014-14.026,38.014-14.026l-5.316,21.977c16.737-7.95,30.035-20.264,30.035-20.264l15.955,16.68c5.319-7.013,15.958-16.68,15.958-16.68,0,0,13.295,14.03,33.632,15.904h0Z"/>
        <path class="cls-7" d="M1784.153,910.511s-8.799,65.05-25.314,83.525M1798.05,908.807s-3.4,65.823-14.818,86.941M1810.369,911.46s0,72.035,4.322,84.298M1825.96,915.022s3.549,60.551,18.367,82.439"/>
        <path class="cls-5" d="M1769.006,881.894c-.779-6.184-2.188-11.037-4.224-14.213-7.982-12.374-19.555-22.743-32.856-11.37,0,0,4.537-15.052,14.239-15.552,7.51-.5,24.564,6.019,39.587,33.442,0,0-11.11-2.672-13.767-.165-5.012,4.683-2.979,7.859-2.979,7.859Z"/>
        <path class="cls-5" d="M1732.236,839.277c1.07-3.549,2.758-6.792,4.905-8.182,7.82-5.246,25.137-3.549,42.456.925,0,0-1.532-7.561,7.817-7.096,16.553.925,41.69,7.871,49.504,15.743,1.84,2.007,3.989,4.942,5.826,9.413h-.304c-3.831-5.402-14.717-5.091-17.322-4.784-4.141.465-6.744.307-12.263,1.697-2.606.621-6.592,1.39-8.739,3.087-1.681,1.39-3.065,6.484-5.667,6.484-4.141,0-3.831-1.08-4.908-2.314-1.38-1.697-2.147-4.17-3.527-4.015-4.287.776-11.186-2.622-19.922-9.568-8.736-6.95-12.111-8.647-23.452-7.874-11.186.925-14.713,7.257-14.713,7.257l.31-.773Z"/>
        <path class="cls-14" d="M1800,843.9c0,2.624-2.129,4.75-4.752,4.749-2.624,0-4.75-2.129-4.749-4.753s2.129-4.75,4.752-4.749c2.624,0,4.75,2.129,4.749,4.753Z"/>
        <path class="cls-2" d="M1801.504,1309.335c131.424-100.325,120.155-247.292,120.155-247.292-3.367.685-6.794,1.031-10.23,1.032-27.568,0-93.321-15.651-108.662-35.535-16.433,17.997-83.626,35.535-111.021,35.535-3.467,0-6.934-.342-10.227-1.032,0,0-11.446,146.96,119.981,247.292h.003Z"/>
        <path class="cls-13" d="M1762.005,1057.62v202.639l-23.829-31.643c-15.825-24.861-27.834-52.366-35.718-82.107-5.009-18.896-8.308-38.536-9.549-58.103-.329-5.237-.608-10.993-.554-16.547,1.077.206,2.162.345,3.261.345,11.718,0,31.634-3.54,51.413-9.283l14.976-5.3Z"/>
        <path class="cls-14" d="M1799.009,1041.789c5.541,4.743,13.289,9.093,22.179,12.947l13.64,4.689v200.486l-3.378,4.297c-10.295,11.137-21.437,21.462-33.324,30.88-11.877-9.411-23.008-19.727-33.293-30.855l-2.827-3.594v-201.739l14.074-4.775c9.125-3.787,17.129-7.954,22.93-12.336Z"/>
        <path class="cls-13" d="M1834.828,1057.62l15.591,5.351c20.479,5.595,41.284,8.793,53.81,8.793,1.149,0,2.289-.035,3.423-.104.019,4.027-.288,10.778-.598,16.29-1.314,19.688-4.797,39.448-10.072,58.461-8.308,29.946-20.96,57.644-37.618,82.683l-24.535,31.165v-202.639Z"/>
        <path class="cls-8" d="M1909.235,1074.898c-1.111.07-2.229.104-3.353.104-24.538,0-81.53-12.655-103.498-31.631-23.012,17.528-80.945,31.631-105.087,31.631-1.13,0-2.251-.139-3.359-.345-.054,5.531.231,11.259.573,16.474,1.276,19.479,4.676,39.03,9.834,57.844,16.246,59.208,49.491,109.526,97.162,147.695,47.709-38.201,80.995-88.566,97.276-147.818,5.167-18.811,8.577-38.359,9.866-57.837.304-5.452.605-12.13.586-16.116h0Z"/>
      </g>
    </g>
  </g>
</svg>