<?xml version="1.0" encoding="UTF-8"?>
<svg xmlns="http://www.w3.org/2000/svg" viewBox="0 0 3600.1 2401.738">
  <defs>
    <style>
      .cls-1 {
        fill: #141414;
      }

      .cls-1, .cls-2, .cls-3, .cls-4, .cls-5 {
        stroke-width: 0px;
      }

      .cls-1, .cls-4 {
        fill-rule: evenodd;
      }

      .cls-2 {
        fill: #c4111b;
      }

      .cls-3 {
        fill: #eee;
      }

      .cls-4 {
        fill: #e5002c;
      }

      .cls-5 {
        fill: #007a3d;
      }
    </style>
  </defs>
  <g id="background">
    <path id="eh" class="cls-1" d="M400,.1h2800c220,0,400,180,400,400v1600c0,220-180,400-400,400H400C180,2400.1,0,2220.1,0,2000.1V400.1C0,180.1,180,.1,400,.1Z"/>
  </g>
  <g id="country">
    <g id="eh-2" data-name="eh">
      <g id="h">
        <path class="cls-3" d="M3600,2000.1V800.1H0v1200C0,2220.1,180,2400.1,400,2400.1h2800c220,0,400-180,400-400Z"/>
        <path class="cls-5" d="M3600,2000.1v-400H0v400C0,2220.1,180,2400.1,400,2400.1h2800c220,0,400-180,400-400Z"/>
      </g>
      <circle class="cls-2" cx="1800" cy="1200.1" r="320"/>
      <circle class="cls-3" cx="1920" cy="1200.1" r="320"/>
      <path class="cls-2" d="M1714.104,1393.863l136.451-97.542,135.384,99.017-50.602-159.914,136.007-98.16-167.724-1.291-51.327-159.683-53.057,159.117-167.729-.529,134.934,99.63-52.335,159.356h0Z"/>
      <path id="Path" class="cls-4" d="M0,2000.339V399.861c.069-118.044,51.271-224.129,132.657-297.302l967.343,1097.541L132.657,2297.641C51.271,2224.467.069,2118.383,0,2000.339Z"/>
    </g>
  </g>
</svg>