<?xml version="1.0" encoding="UTF-8"?>
<svg xmlns="http://www.w3.org/2000/svg" viewBox="0 0 3600.1 2401.738">
  <defs>
    <style>
      .cls-1 {
        fill: #ffc726;
      }

      .cls-1, .cls-2, .cls-3, .cls-4 {
        stroke-width: 0px;
      }

      .cls-2 {
        fill: #eb0438;
      }

      .cls-2, .cls-3, .cls-4 {
        fill-rule: evenodd;
      }

      .cls-3 {
        fill: #4289de;
      }

      .cls-4 {
        fill: #3e9a00;
      }
    </style>
  </defs>
  <g id="background">
    <path id="er" class="cls-4" d="M400,.1h2800c220,0,400,180,400,400v1600c0,220-180,400-400,400H400C180,2400.1,0,2220.1,0,2000.1V400.1C0,180.1,180,.1,400,.1Z"/>
  </g>
  <g id="country">
    <g id="er-2" data-name="er">
      <path id="b" class="cls-3" d="M400,2400.1h2800c220,0,400-180,400-400v-800H0v800C0,2220.1,180,2400.1,400,2400.1Z"/>
      <path id="Path" class="cls-2" d="M0,2000.338V399.862c.069-118.044,51.271-224.128,132.657-297.302l3467.341,1097.541L132.658,2297.641C51.272,2224.467.07,2118.383,0,2000.338Z"/>
      <path class="cls-1" d="M828.9,1637.486c-38.916,10.746-61.229,40.939-60.66,69.426l191.56-.77c1.721-30.611-23.461-58.921-61.798-70.07,187.549-3.874,350.485-74.124,380.088-119.203-29.297-12.715-63.173,7.751-87.325,3.042,57.341-26.503,229.129-137.693,201.2-256.896-21.712,66.208-87.48,120.989-115.492,135.698,64.174-97.441,151.798-198.889,75.776-277.452,3.838,45.533-28.933,95.645-43.409,99.407,37.224-102.956,72.742-232.225-7.909-317.441,10.591,30.802,6.314,117.684-8.269,121.59-4.493-70.009-16.438-217.267-90.169-215.172,23.418,20.844,33.664,77.746,34.186,135.216-16.805-39.37-35.899-69.012-76.745-98.086-33.041-63.367-91.829-115.873-150.624-153.486,6.599,46.127,12.06,82.512,76.464,130.356-33.581-2.088-67.147-65.743-103.032-67.507-28.548-1.379-50.944,25.862-97.589,10.188,5.162,15.397,26.928,22.216,31.518,33.606-9.99,6.901-33.71-1.08-53.424-11.347,27.122,36.947,69.149,58.673,104.832,51.34,42.43-8.158,87.926-3.845,131.317,20.844-11.084,5.695-54.216,5.659-81.9,2.196,25.164,25.474,42.037,42.358,85.788,42.077,39.078-.252,59.566-20.844,69.602-8.093,24.509,29.045,41.004,58.072,61.506,92.264-45.288,5.004-31.637-51.224-82.076-79.981-28.339,58.658,32.598,128.192,74.077,157.097.558,44.086,7.002,80.975,25.704,114.545,12.604,23.666,28.901,47.891,22.756,101.304-24.829-18.086-49.097-79.081-40.169-127.498-31.079,8.474-43.229,63.126-28.584,90.637,10.944,20.941,18.252,61.02,5.63,78.941-12.301,16.693-13.59,14.825-13.428,50.652.439,21.438-11.538,46.789-31.043,64.465,4.072-15.106,8.716-41.094,4.205-57.341-15.419,26.158-54.101,53.222-66.283,81.342-11.959,28.188-14.994,77.004-72.882,88.265-74.47,14.782-100.174,27.684-148.093,47.297-5.317-36.396,10.602-112.298,41.036-107.968,29.714,5.288,119.808-31.043,87.581-106.942-6.365,23.922-27.598,47.268-50.555,48.298,24.804-32.177,69.066-65.498,47.509-119.416-11.984,22.918-30.83,50.425-59.411,65.902,30.636-58.716,3.557-76.284-32.825-27.922-13.741,18.655-22.039,56.041-30.769,103.522-14.292-38.617-13.349-89.453-30.283-130.727-17.69-44.64,23.476-56.423,42.851-52.841,47.437,12.665,126.713,12.658,120.823-65.711-20.488,26.507-56.416,34.697-95.216,25.153,43.574-31.82,77.98-91.67,29.423-122.918-1.62,33.138-27.263,70.29-61.499,87.401-8.014-27.961-8.014-57.632-1.141-90.162-19.116,20.124-33.08,61.992-44.183,109.584-.835-47.045,8.064-80.942,14.663-106.25,10.008-36.972,34.873-12.913,72.943-10.188,36.659,2.077,87.134-18.18,77.486-67.896-12.517,19.667-38.214,27.324-64.465,25.243,31.608-19.148,86.674-53.172,56.473-105.509-12.686,19.822-16.794,36.778-53.514,42.858,9.619-22.122,11.214-53.399,39.715-65.79-50.843-10.123-79.949,23.242-94.745,75.496-6.001-36.227-13.14-49.565-14.562-76.068,27.482-30.521,30.359-90.234-29.138-103.586-3.528,30.802-2.484,38.138,4.284,63.22-27.929-16.592-67.291-25.747-93.499-2.286,17.755,19.163,45.238,36.032,87.595,15.134-10.008,32.735-36.029,27.13-71.791,14.652,21.859,41.051,49.442,48.348,79.884,43.618,15.941,42.023,16.643,73.951-29.934,135.148,2.153-38.03-.551-66.362-30.766-97.11-25.891-25.358-46.937,1.08-6.473,57.463-24.548-18.079-52.33-54.77-60.696-91.451-8.093,45.317-.806,98.73,24.282,128.675-11.866,12.679-25.358-1.35-45.317-32.368,7.549,99.27,49.903,118.426,106.823,96.3,1.62,54.486,1.62,104.94,4.86,170.762-33.192-47.743-75.265-83.358-98.741-92.257-7.279,26.705,20.239,61.499,35.615,80.924-23.472-4.856-74.459-43.7-74.459-43.7-5.126,44.244,52.074,85.248,89.028,103.586-43.43-1.886-62.593-18.338-90.648-45.317.544,122.742,132.991,101.426,157.813,82.544,3.24,60.43,7.855,130.284,11.088,190.714-37.44-6.534-34.495-17.791-66.535-20.758-88.92-3.463-159.462-106.744-182.819-182.718-6.703,12.503-1.386,25.585-7.517,40.946-14.436-37.289-32.882-85.45-57.618-107.863,6.3,21.737,6.966,43.83,4.777,84.46-8.489-26.323-16.387-34.394-16.956-65.3.54-23.724,22.889-41.231,21.65-74.603-.914-24.361-23.137-77.166-26.406-118.044-10.76,42.073-17.514,86.422-33.995,112.471,8.19-44.928,5.566-75.938,19.418-106.175,16.006-31.831,29.614-60.253,18.958-92.38-10.217,12.409-6.703,23.681-32.375,53.831-5.58-32.785,33.192-85.262,70.823-106.358,26.539-13.982,59.99-63.997,38.196-98.276-24.952,17.924-36.158,42.142-71.413,83.52,25.146-98.302,90.482-124.02,168.703-124.355,17.309-.079,52.204-6.329,61.999-29.232-22.05,8.51-48.118,9.594-71.316,4.95,16.884-24.786,52.438-21.564,85.572-21.708,25.985-.126,66.557-3.65,82.958-40.662-31.702,13.734-81.144,16.589-112.277,6.862,49.511-25.65,127.058-28.411,166.831-62.078-45.335-33.833-158.774,7.884-230.425,57.024,20.027-18.31,51.678-50.796,69.142-77.018-39.19-18.792-138.294,91.004-172.436,156.24-32.425,18.31-45.396,47.016-57.989,67.05,17.28-58.388,19.109-100.753,33.527-148.835-111.157,38.268-64.955,243.648-89.136,292.781,2.848-54.248.544-123.937-21.791-159.872-34.236,26.122-37.001,179.856-4.856,307.84-11.606-34.25-33.516-66.222-40.543-107.906-50.674,92.416,29.704,201.445,96.912,287.568-50.598-26.352-100.624-83.038-133.488-130.561,9.072,165.409,181.804,199.775,208.62,240.43-36.396-16.942-105.98-50.472-135.504-15.336,48.064,11.095,86.407,23.918,117.302,44.172,44.827,55.969,129.715,80.449,277.553,86.63h0Z"/>
    </g>
  </g>
</svg>