<?xml version="1.0" encoding="UTF-8"?>
<svg xmlns="http://www.w3.org/2000/svg" viewBox="0 0 3600.1 2401.738">
  <defs>
    <style>
      .cls-1 {
        fill: #fcdd09;
      }

      .cls-1, .cls-2, .cls-3, .cls-4, .cls-5 {
        stroke-width: 0px;
      }

      .cls-2 {
        fill: #fcdd0a;
      }

      .cls-3 {
        fill: #0f47af;
      }

      .cls-6 {
        stroke-miterlimit: 6.667;
        stroke-width: 26.667px;
      }

      .cls-6, .cls-7, .cls-8 {
        stroke: #fcdd09;
      }

      .cls-7 {
        stroke-miterlimit: 6.667;
        stroke-width: 26.667px;
      }

      .cls-4 {
        fill: #da1219;
      }

      .cls-5 {
        fill: #088930;
        fill-rule: evenodd;
      }

      .cls-8 {
        stroke-miterlimit: 6.667;
        stroke-width: 26.667px;
      }
    </style>
  </defs>
  <g id="background">
    <path id="et" class="cls-5" d="M400,.1h2800c220,0,400,180,400,400v1600c0,220-180,400-400,400H400C180,2400.1,0,2220.1,0,2000.1V400.1C0,180.1,180,.1,400,.1Z"/>
  </g>
  <g id="country">
    <g id="et-2" data-name="et">
      <g id="h">
        <path class="cls-2" d="M3600,2000.1V800.1H0v1200C0,2220.1,180,2400.1,400,2400.1h2800c220,0,400-180,400-400Z"/>
        <path class="cls-4" d="M3600,2000.1v-400H0v400C0,2220.1,180,2400.1,400,2400.1h2800c220,0,400-180,400-400Z"/>
      </g>
      <g>
        <circle class="cls-3" cx="1800" cy="1200.1" r="800.002"/>
        <g id="a">
          <path class="cls-1" d="M1800,560.099l-28.04,86.294,115.654,355.934h-154.2l-17.327,53.333h494.421l73.407-53.333h-340.227l-143.687-442.228Z"/>
          <path class="cls-6" d="M1972.42,962.786l203.76-280.461"/>
        </g>
        <g id="a-2" data-name="a">
          <path class="cls-1" d="M2408.677,1002.329l-90.735-.002-302.774,219.983-47.651-146.653-56.077.002,152.784,470.222,73.407,53.333-105.136-323.575,376.182-273.31Z"/>
          <path class="cls-8" d="M2078.98,1290.748l329.699,107.121"/>
        </g>
        <g id="a-3" data-name="a">
          <path class="cls-1" d="M2176.183,1717.872l-28.037-86.294-302.778-219.977,124.751-90.637-17.331-53.332-399.995,290.613-28.039,86.295,275.25-199.981,376.18,273.313Z"/>
          <path class="cls-7" d="M1799.999,1493.437l.005,346.665"/>
        </g>
        <g id="a-4" data-name="a">
          <path class="cls-1" d="M1423.817,1717.872l73.407-53.331,115.647-355.936,124.751,90.637,45.366-32.963-399.995-290.613h-90.736s275.25,199.981,275.25,199.981l-143.69,442.227Z"/>
          <path class="cls-7" d="M1521.019,1290.745l-329.696,107.13"/>
        </g>
        <g id="a-5" data-name="a">
          <path class="cls-1" d="M1191.323,1002.329l73.405,53.334,374.252-.003-47.651,146.653,45.369,32.96,152.784-470.222-28.039-86.295-105.136,323.575h-464.985Z"/>
          <path class="cls-8" d="M1627.582,962.785l-203.768-280.455"/>
        </g>
      </g>
    </g>
  </g>
</svg>