<?xml version="1.0" encoding="UTF-8"?>
<svg xmlns="http://www.w3.org/2000/svg" viewBox="0 0 3600.1 2401.738">
  <defs>
    <style>
      .cls-1 {
        fill: #039;
        fill-rule: evenodd;
      }

      .cls-1, .cls-2 {
        stroke-width: 0px;
      }

      .cls-2 {
        fill: #fc0;
      }
    </style>
  </defs>
  <g id="background">
    <path id="eu" class="cls-1" d="M400,.1h2800c220,0,400,180,400,400v1600c0,220-180,400-400,400H400C180,2400.1,0,2220.1,0,2000.1V400.1C0,180.1,180,.1,400,.1Z"/>
  </g>
  <g id="country">
    <g id="eu-2" data-name="eu">
      <g>
        <g id="d">
          <g id="b">
            <path id="a" class="cls-2" d="M1800.001,266.762l-41.202,126.808,63.404,20.601-22.202-147.409Z"/>
            <path id="a-2" data-name="a" class="cls-2" d="M1799.999,266.762l41.202,126.808-63.404,20.601,22.202-147.409Z"/>
          </g>
          <g id="c">
            <g id="b-2" data-name="b">
              <path id="a-3" data-name="a" class="cls-2" d="M1926.813,358.897h-133.333v66.667l133.333-66.667Z"/>
              <path id="a-4" data-name="a" class="cls-2" d="M1926.812,358.895l-107.869,78.371-39.186-53.934,147.055-24.437Z"/>
            </g>
            <g id="b-3" data-name="b">
              <path id="a-5" data-name="a" class="cls-2" d="M1878.374,507.974l-41.202-126.808-63.404,20.601,104.606,106.206Z"/>
              <path id="a-6" data-name="a" class="cls-2" d="M1878.375,507.973l-107.869-78.371,39.186-53.934,68.683,132.306Z"/>
            </g>
          </g>
          <g id="c-2" data-name="c">
            <g id="b-4" data-name="b">
              <path id="a-7" data-name="a" class="cls-2" d="M1673.187,358.897h133.333v66.667l-133.333-66.667Z"/>
              <path id="a-8" data-name="a" class="cls-2" d="M1673.188,358.895l107.869,78.371,39.186-53.934-147.055-24.437Z"/>
            </g>
            <g id="b-5" data-name="b">
              <path id="a-9" data-name="a" class="cls-2" d="M1721.626,507.974l41.202-126.808,63.404,20.601-104.606,106.206Z"/>
              <path id="a-10" data-name="a" class="cls-2" d="M1721.625,507.973l107.869-78.371-39.186-53.934-68.683,132.306Z"/>
            </g>
          </g>
        </g>
        <g id="d-2" data-name="d">
          <g id="b-6" data-name="b">
            <path id="a-11" data-name="a" class="cls-2" d="M1800.001,1866.762l-41.202,126.808,63.404,20.601-22.202-147.409Z"/>
            <path id="a-12" data-name="a" class="cls-2" d="M1799.999,1866.762l41.202,126.808-63.404,20.601,22.202-147.409Z"/>
          </g>
          <g id="c-3" data-name="c">
            <g id="b-7" data-name="b">
              <path id="a-13" data-name="a" class="cls-2" d="M1926.813,1958.897h-133.333v66.667l133.333-66.667Z"/>
              <path id="a-14" data-name="a" class="cls-2" d="M1926.812,1958.895l-107.869,78.371-39.186-53.934,147.055-24.437Z"/>
            </g>
            <g id="b-8" data-name="b">
              <path id="a-15" data-name="a" class="cls-2" d="M1878.374,2107.974l-41.202-126.808-63.404,20.601,104.606,106.206Z"/>
              <path id="a-16" data-name="a" class="cls-2" d="M1878.375,2107.973l-107.869-78.371,39.186-53.934,68.683,132.306Z"/>
            </g>
          </g>
          <g id="c-4" data-name="c">
            <g id="b-9" data-name="b">
              <path id="a-17" data-name="a" class="cls-2" d="M1673.187,1958.897h133.333v66.667l-133.333-66.667Z"/>
              <path id="a-18" data-name="a" class="cls-2" d="M1673.188,1958.895l107.869,78.371,39.186-53.934-147.055-24.437Z"/>
            </g>
            <g id="b-10" data-name="b">
              <path id="a-19" data-name="a" class="cls-2" d="M1721.626,2107.974l41.202-126.808,63.404,20.601-104.606,106.206Z"/>
              <path id="a-20" data-name="a" class="cls-2" d="M1721.625,2107.973l107.869-78.371-39.186-53.934-68.683,132.306Z"/>
            </g>
          </g>
        </g>
        <g id="e">
          <g id="d-3" data-name="d">
            <g id="b-11" data-name="b">
              <path id="a-21" data-name="a" class="cls-2" d="M1000.001,1066.762l-41.202,126.808,63.404,20.601-22.202-147.409Z"/>
              <path id="a-22" data-name="a" class="cls-2" d="M999.999,1066.762l41.202,126.808-63.404,20.601,22.202-147.409Z"/>
            </g>
            <g id="c-5" data-name="c">
              <g id="b-12" data-name="b">
                <path id="a-23" data-name="a" class="cls-2" d="M1126.813,1158.897h-133.333v66.667l133.333-66.667Z"/>
                <path id="a-24" data-name="a" class="cls-2" d="M1126.812,1158.895l-107.869,78.371-39.186-53.934,147.055-24.437Z"/>
              </g>
              <g id="b-13" data-name="b">
                <path id="a-25" data-name="a" class="cls-2" d="M1078.374,1307.974l-41.202-126.808-63.404,20.601,104.606,106.206Z"/>
                <path id="a-26" data-name="a" class="cls-2" d="M1078.375,1307.973l-107.869-78.371,39.186-53.934,68.683,132.306Z"/>
              </g>
            </g>
            <g id="c-6" data-name="c">
              <g id="b-14" data-name="b">
                <path id="a-27" data-name="a" class="cls-2" d="M873.187,1158.897h133.333v66.667l-133.333-66.667Z"/>
                <path id="a-28" data-name="a" class="cls-2" d="M873.188,1158.895l107.869,78.371,39.186-53.934-147.055-24.437Z"/>
              </g>
              <g id="b-15" data-name="b">
                <path id="a-29" data-name="a" class="cls-2" d="M921.626,1307.974l41.202-126.808,63.404,20.601-104.606,106.206Z"/>
                <path id="a-30" data-name="a" class="cls-2" d="M921.625,1307.973l107.869-78.371-39.186-53.934-68.683,132.306Z"/>
              </g>
            </g>
          </g>
          <g id="d-4" data-name="d">
            <g id="b-16" data-name="b">
              <path id="a-31" data-name="a" class="cls-2" d="M1321.61,615.333l107.869-78.371-39.186-53.934-68.683,132.306Z"/>
              <path id="a-32" data-name="a" class="cls-2" d="M1321.612,615.334l41.202-126.808,63.404,20.601-104.606,106.206Z"/>
            </g>
            <g id="c-7" data-name="c">
              <g id="b-17" data-name="b">
                <path id="a-33" data-name="a" class="cls-2" d="M1273.173,466.256l107.869,78.371,39.186-53.934-147.055-24.437Z"/>
                <path id="a-34" data-name="a" class="cls-2" d="M1273.173,466.258h133.333s0,66.667,0,66.667l-133.333-66.667Z"/>
              </g>
              <g id="b-18" data-name="b">
                <path id="a-35" data-name="a" class="cls-2" d="M1399.986,374.122l-41.202,126.808,63.404,20.601-22.202-147.409Z"/>
                <path id="a-36" data-name="a" class="cls-2" d="M1399.985,374.122l41.202,126.808-63.404,20.601,22.202-147.409Z"/>
              </g>
            </g>
            <g id="c-8" data-name="c">
              <g id="b-19" data-name="b">
                <path id="a-37" data-name="a" class="cls-2" d="M1478.36,615.333l-107.869-78.371,39.186-53.934,68.683,132.306Z"/>
                <path id="a-38" data-name="a" class="cls-2" d="M1478.359,615.334l-41.202-126.808-63.404,20.601,104.606,106.206Z"/>
              </g>
              <g id="b-20" data-name="b">
                <path id="a-39" data-name="a" class="cls-2" d="M1526.798,466.256l-107.869,78.371-39.186-53.934,147.055-24.437Z"/>
                <path id="a-40" data-name="a" class="cls-2" d="M1526.798,466.258h-133.333v66.667s133.333-66.667,133.333-66.667Z"/>
              </g>
            </g>
          </g>
          <g id="d-5" data-name="d">
            <g id="b-21" data-name="b">
              <path id="a-41" data-name="a" class="cls-2" d="M1185.734,907.959l-41.202-126.808-63.404,20.601,104.606,106.206Z"/>
              <path id="a-42" data-name="a" class="cls-2" d="M1185.736,907.958l-107.869-78.371,39.186-53.934,68.683,132.306Z"/>
            </g>
            <g id="c-9" data-name="c">
              <g id="b-22" data-name="b">
                <path id="a-43" data-name="a" class="cls-2" d="M1028.986,907.958l107.869-78.371-39.186-53.934-68.683,132.306Z"/>
                <path id="a-44" data-name="a" class="cls-2" d="M1028.987,907.959l41.202-126.808,63.404,20.601-104.606,106.206Z"/>
              </g>
              <g id="b-23" data-name="b">
                <path id="a-45" data-name="a" class="cls-2" d="M980.549,758.881l107.869,78.371,39.186-53.934-147.055-24.437Z"/>
                <path id="a-46" data-name="a" class="cls-2" d="M980.548,758.882h133.333v66.667s-133.333-66.667-133.333-66.667Z"/>
              </g>
            </g>
            <g id="c-10" data-name="c">
              <g id="b-24" data-name="b">
                <path id="a-47" data-name="a" class="cls-2" d="M1234.173,758.881l-107.869,78.371-39.186-53.934,147.055-24.437Z"/>
                <path id="a-48" data-name="a" class="cls-2" d="M1234.173,758.882h-133.333s0,66.667,0,66.667l133.333-66.667Z"/>
              </g>
              <g id="b-25" data-name="b">
                <path id="a-49" data-name="a" class="cls-2" d="M1107.36,666.747l41.202,126.808-63.404,20.601,22.202-147.409Z"/>
                <path id="a-50" data-name="a" class="cls-2" d="M1107.362,666.747l-41.202,126.808,63.404,20.601-22.202-147.409Z"/>
              </g>
            </g>
          </g>
          <g id="d-6" data-name="d">
            <g id="b-26" data-name="b">
              <path id="a-51" data-name="a" class="cls-2" d="M1233.953,1558.936h-133.333v66.667l133.333-66.667Z"/>
              <path id="a-52" data-name="a" class="cls-2" d="M1233.953,1558.935l-107.869,78.371-39.186-53.934,147.055-24.437Z"/>
            </g>
            <g id="c-11" data-name="c">
              <g id="b-27" data-name="b">
                <path id="a-53" data-name="a" class="cls-2" d="M1185.514,1708.013l-41.202-126.808-63.404,20.601,104.606,106.206Z"/>
                <path id="a-54" data-name="a" class="cls-2" d="M1185.515,1708.012l-107.869-78.371,39.186-53.934,68.683,132.306Z"/>
              </g>
              <g id="b-28" data-name="b">
                <path id="a-55" data-name="a" class="cls-2" d="M1028.765,1708.012l107.869-78.371-39.186-53.934-68.683,132.306Z"/>
                <path id="a-56" data-name="a" class="cls-2" d="M1028.767,1708.013l41.202-126.808,63.404,20.601-104.606,106.206Z"/>
              </g>
            </g>
            <g id="c-12" data-name="c">
              <g id="b-29" data-name="b">
                <path id="a-57" data-name="a" class="cls-2" d="M1107.14,1466.801l41.202,126.808-63.404,20.601,22.202-147.409Z"/>
                <path id="a-58" data-name="a" class="cls-2" d="M1107.141,1466.801l-41.202,126.808,63.404,20.601-22.202-147.409Z"/>
              </g>
              <g id="b-30" data-name="b">
                <path id="a-59" data-name="a" class="cls-2" d="M980.328,1558.936h133.333s0,66.667,0,66.667l-133.333-66.667Z"/>
                <path id="a-60" data-name="a" class="cls-2" d="M980.328,1558.935l107.869,78.371,39.186-53.934-147.055-24.437Z"/>
              </g>
            </g>
          </g>
          <g id="d-7" data-name="d">
            <g id="b-31" data-name="b">
              <path id="a-61" data-name="a" class="cls-2" d="M1526.871,1851.77h-133.333v66.667l133.333-66.667Z"/>
              <path id="a-62" data-name="a" class="cls-2" d="M1526.87,1851.769l-107.869,78.371-39.186-53.934,147.055-24.437Z"/>
            </g>
            <g id="c-13" data-name="c">
              <g id="b-32" data-name="b">
                <path id="a-63" data-name="a" class="cls-2" d="M1478.432,2000.847l-41.202-126.808-63.404,20.601,104.606,106.206Z"/>
                <path id="a-64" data-name="a" class="cls-2" d="M1478.433,2000.846l-107.869-78.371,39.186-53.934,68.683,132.306Z"/>
              </g>
              <g id="b-33" data-name="b">
                <path id="a-65" data-name="a" class="cls-2" d="M1321.683,2000.846l107.869-78.371-39.186-53.934-68.683,132.306Z"/>
                <path id="a-66" data-name="a" class="cls-2" d="M1321.684,2000.847l41.202-126.808,63.404,20.601-104.606,106.206Z"/>
              </g>
            </g>
            <g id="c-14" data-name="c">
              <g id="b-34" data-name="b">
                <path id="a-67" data-name="a" class="cls-2" d="M1400.057,1759.635l41.202,126.808-63.404,20.601,22.202-147.409Z"/>
                <path id="a-68" data-name="a" class="cls-2" d="M1400.059,1759.635l-41.202,126.808,63.404,20.601-22.202-147.409Z"/>
              </g>
              <g id="b-35" data-name="b">
                <path id="a-69" data-name="a" class="cls-2" d="M1273.245,1851.77h133.333s0,66.667,0,66.667l-133.333-66.667Z"/>
                <path id="a-70" data-name="a" class="cls-2" d="M1273.246,1851.769l107.869,78.371,39.186-53.934-147.055-24.437Z"/>
              </g>
            </g>
          </g>
        </g>
        <g id="e-2" data-name="e">
          <g id="d-8" data-name="d">
            <g id="b-36" data-name="b">
              <path id="a-71" data-name="a" class="cls-2" d="M2599.999,1066.762l41.202,126.808-63.404,20.601,22.202-147.409Z"/>
              <path id="a-72" data-name="a" class="cls-2" d="M2600.001,1066.762l-41.202,126.808,63.404,20.601-22.202-147.409Z"/>
            </g>
            <g id="c-15" data-name="c">
              <g id="b-37" data-name="b">
                <path id="a-73" data-name="a" class="cls-2" d="M2473.187,1158.897h133.333v66.667l-133.333-66.667Z"/>
                <path id="a-74" data-name="a" class="cls-2" d="M2473.188,1158.895l107.869,78.371,39.186-53.934-147.055-24.437Z"/>
              </g>
              <g id="b-38" data-name="b">
                <path id="a-75" data-name="a" class="cls-2" d="M2521.626,1307.974l41.202-126.808,63.404,20.601-104.606,106.206Z"/>
                <path id="a-76" data-name="a" class="cls-2" d="M2521.625,1307.973l107.869-78.371-39.186-53.934-68.683,132.306Z"/>
              </g>
            </g>
            <g id="c-16" data-name="c">
              <g id="b-39" data-name="b">
                <path id="a-77" data-name="a" class="cls-2" d="M2726.813,1158.897h-133.333v66.667l133.333-66.667Z"/>
                <path id="a-78" data-name="a" class="cls-2" d="M2726.812,1158.895l-107.869,78.371-39.186-53.934,147.055-24.437Z"/>
              </g>
              <g id="b-40" data-name="b">
                <path id="a-79" data-name="a" class="cls-2" d="M2678.374,1307.974l-41.202-126.808-63.404,20.601,104.606,106.206Z"/>
                <path id="a-80" data-name="a" class="cls-2" d="M2678.375,1307.973l-107.869-78.371,39.186-53.934,68.683,132.306Z"/>
              </g>
            </g>
          </g>
          <g id="d-9" data-name="d">
            <g id="b-41" data-name="b">
              <path id="a-81" data-name="a" class="cls-2" d="M2278.39,615.333l-107.869-78.371,39.186-53.934,68.683,132.306Z"/>
              <path id="a-82" data-name="a" class="cls-2" d="M2278.388,615.334l-41.202-126.808-63.404,20.601,104.606,106.206Z"/>
            </g>
            <g id="c-17" data-name="c">
              <g id="b-42" data-name="b">
                <path id="a-83" data-name="a" class="cls-2" d="M2326.827,466.256l-107.869,78.371-39.186-53.934,147.055-24.437Z"/>
                <path id="a-84" data-name="a" class="cls-2" d="M2326.827,466.258h-133.333s0,66.667,0,66.667l133.333-66.667Z"/>
              </g>
              <g id="b-43" data-name="b">
                <path id="a-85" data-name="a" class="cls-2" d="M2200.014,374.122l41.202,126.808-63.404,20.601,22.202-147.409Z"/>
                <path id="a-86" data-name="a" class="cls-2" d="M2200.015,374.122l-41.202,126.808,63.404,20.601-22.202-147.409Z"/>
              </g>
            </g>
            <g id="c-18" data-name="c">
              <g id="b-44" data-name="b">
                <path id="a-87" data-name="a" class="cls-2" d="M2121.64,615.333l107.869-78.371-39.186-53.934-68.683,132.306Z"/>
                <path id="a-88" data-name="a" class="cls-2" d="M2121.641,615.334l41.202-126.808,63.404,20.601-104.606,106.206Z"/>
              </g>
              <g id="b-45" data-name="b">
                <path id="a-89" data-name="a" class="cls-2" d="M2073.202,466.256l107.869,78.371,39.186-53.934-147.055-24.437Z"/>
                <path id="a-90" data-name="a" class="cls-2" d="M2073.202,466.258h133.333v66.667s-133.333-66.667-133.333-66.667Z"/>
              </g>
            </g>
          </g>
          <g id="d-10" data-name="d">
            <g id="b-46" data-name="b">
              <path id="a-91" data-name="a" class="cls-2" d="M2414.266,907.959l41.202-126.808,63.404,20.601-104.606,106.206Z"/>
              <path id="a-92" data-name="a" class="cls-2" d="M2414.264,907.958l107.869-78.371-39.186-53.934-68.683,132.306Z"/>
            </g>
            <g id="c-19" data-name="c">
              <g id="b-47" data-name="b">
                <path id="a-93" data-name="a" class="cls-2" d="M2571.014,907.958l-107.869-78.371,39.186-53.934,68.683,132.306Z"/>
                <path id="a-94" data-name="a" class="cls-2" d="M2571.013,907.959l-41.202-126.808-63.404,20.601,104.606,106.206Z"/>
              </g>
              <g id="b-48" data-name="b">
                <path id="a-95" data-name="a" class="cls-2" d="M2619.451,758.881l-107.869,78.371-39.186-53.934,147.055-24.437Z"/>
                <path id="a-96" data-name="a" class="cls-2" d="M2619.452,758.882h-133.333v66.667s133.333-66.667,133.333-66.667Z"/>
              </g>
            </g>
            <g id="c-20" data-name="c">
              <g id="b-49" data-name="b">
                <path id="a-97" data-name="a" class="cls-2" d="M2365.827,758.881l107.869,78.371,39.186-53.934-147.055-24.437Z"/>
                <path id="a-98" data-name="a" class="cls-2" d="M2365.827,758.882h133.333s0,66.667,0,66.667l-133.333-66.667Z"/>
              </g>
              <g id="b-50" data-name="b">
                <path id="a-99" data-name="a" class="cls-2" d="M2492.64,666.747l-41.202,126.808,63.404,20.601-22.202-147.409Z"/>
                <path id="a-100" data-name="a" class="cls-2" d="M2492.638,666.747l41.202,126.808-63.404,20.601,22.202-147.409Z"/>
              </g>
            </g>
          </g>
          <g id="d-11" data-name="d">
            <g id="b-51" data-name="b">
              <path id="a-101" data-name="a" class="cls-2" d="M2366.047,1558.936h133.333v66.667l-133.333-66.667Z"/>
              <path id="a-102" data-name="a" class="cls-2" d="M2366.047,1558.935l107.869,78.371,39.186-53.934-147.055-24.437Z"/>
            </g>
            <g id="c-21" data-name="c">
              <g id="b-52" data-name="b">
                <path id="a-103" data-name="a" class="cls-2" d="M2414.486,1708.013l41.202-126.808,63.404,20.601-104.606,106.206Z"/>
                <path id="a-104" data-name="a" class="cls-2" d="M2414.485,1708.012l107.869-78.371-39.186-53.934-68.683,132.306Z"/>
              </g>
              <g id="b-53" data-name="b">
                <path id="a-105" data-name="a" class="cls-2" d="M2571.235,1708.012l-107.869-78.371,39.186-53.934,68.683,132.306Z"/>
                <path id="a-106" data-name="a" class="cls-2" d="M2571.233,1708.013l-41.202-126.808-63.404,20.601,104.606,106.206Z"/>
              </g>
            </g>
            <g id="c-22" data-name="c">
              <g id="b-54" data-name="b">
                <path id="a-107" data-name="a" class="cls-2" d="M2492.86,1466.801l-41.202,126.808,63.404,20.601-22.202-147.409Z"/>
                <path id="a-108" data-name="a" class="cls-2" d="M2492.859,1466.801l41.202,126.808-63.404,20.601,22.202-147.409Z"/>
              </g>
              <g id="b-55" data-name="b">
                <path id="a-109" data-name="a" class="cls-2" d="M2619.672,1558.936h-133.333s0,66.667,0,66.667l133.333-66.667Z"/>
                <path id="a-110" data-name="a" class="cls-2" d="M2619.672,1558.935l-107.869,78.371-39.186-53.934,147.055-24.437Z"/>
              </g>
            </g>
          </g>
          <g id="d-12" data-name="d">
            <g id="b-56" data-name="b">
              <path id="a-111" data-name="a" class="cls-2" d="M2073.129,1851.77h133.333v66.667l-133.333-66.667Z"/>
              <path id="a-112" data-name="a" class="cls-2" d="M2073.13,1851.769l107.869,78.371,39.186-53.934-147.055-24.437Z"/>
            </g>
            <g id="c-23" data-name="c">
              <g id="b-57" data-name="b">
                <path id="a-113" data-name="a" class="cls-2" d="M2121.568,2000.847l41.202-126.808,63.404,20.601-104.606,106.206Z"/>
                <path id="a-114" data-name="a" class="cls-2" d="M2121.567,2000.846l107.869-78.371-39.186-53.934-68.683,132.306Z"/>
              </g>
              <g id="b-58" data-name="b">
                <path id="a-115" data-name="a" class="cls-2" d="M2278.317,2000.846l-107.869-78.371,39.186-53.934,68.683,132.306Z"/>
                <path id="a-116" data-name="a" class="cls-2" d="M2278.316,2000.847l-41.202-126.808-63.404,20.601,104.606,106.206Z"/>
              </g>
            </g>
            <g id="c-24" data-name="c">
              <g id="b-59" data-name="b">
                <path id="a-117" data-name="a" class="cls-2" d="M2199.943,1759.635l-41.202,126.808,63.404,20.601-22.202-147.409Z"/>
                <path id="a-118" data-name="a" class="cls-2" d="M2199.941,1759.635l41.202,126.808-63.404,20.601,22.202-147.409Z"/>
              </g>
              <g id="b-60" data-name="b">
                <path id="a-119" data-name="a" class="cls-2" d="M2326.755,1851.77h-133.333s0,66.667,0,66.667l133.333-66.667Z"/>
                <path id="a-120" data-name="a" class="cls-2" d="M2326.754,1851.769l-107.869,78.371-39.186-53.934,147.055-24.437Z"/>
              </g>
            </g>
          </g>
        </g>
      </g>
    </g>
  </g>
</svg>