<?xml version="1.0" encoding="UTF-8"?>
<svg xmlns="http://www.w3.org/2000/svg" viewBox="0 0 3600.1 2401.738">
  <defs>
    <style>
      .cls-1, .cls-2, .cls-3, .cls-4, .cls-5, .cls-6, .cls-7, .cls-8, .cls-9, .cls-10, .cls-11, .cls-12, .cls-13, .cls-14 {
        stroke: #000;
      }

      .cls-1, .cls-3, .cls-5, .cls-7, .cls-8, .cls-9, .cls-11, .cls-13, .cls-14 {
        stroke-miterlimit: 4.8;
      }

      .cls-1, .cls-3, .cls-7 {
        fill: #862633;
      }

      .cls-1, .cls-5, .cls-11 {
        stroke-width: 2.34px;
      }

      .cls-2 {
        stroke-width: 1.08px;
      }

      .cls-2, .cls-4, .cls-6, .cls-15, .cls-10, .cls-14 {
        fill: #fff;
      }

      .cls-2, .cls-4, .cls-6, .cls-10, .cls-12 {
        stroke-miterlimit: 3;
      }

      .cls-3, .cls-8, .cls-9 {
        stroke-width: 1.44px;
      }

      .cls-4 {
        stroke-width: 2.409px;
      }

      .cls-5, .cls-8 {
        fill: #00ad50;
      }

      .cls-16, .cls-17, .cls-15, .cls-18, .cls-19, .cls-20, .cls-21, .cls-22, .cls-23 {
        stroke-width: 0px;
      }

      .cls-6 {
        stroke-width: 2.415px;
      }

      .cls-17 {
        fill: #68bfe5;
      }

      .cls-17, .cls-18, .cls-22, .cls-23 {
        fill-rule: evenodd;
      }

      .cls-7 {
        stroke-width: 1.26px;
      }

      .cls-18 {
        fill: #00247d;
      }

      .cls-19, .cls-23 {
        fill: #eee;
      }

      .cls-9, .cls-12 {
        fill: #fedd00;
      }

      .cls-10 {
        stroke-width: 1.05px;
      }

      .cls-20 {
        fill: #c8102e;
      }

      .cls-12 {
        stroke-width: 3.6px;
      }

      .cls-21, .cls-22 {
        fill: #cf1b2b;
      }

      .cls-13 {
        fill: none;
        stroke-width: 12.6px;
      }

      .cls-14 {
        stroke-width: 3px;
      }
    </style>
  </defs>
  <g id="background">
    <path id="fj" class="cls-17" d="M400,.1h2800c220,0,400,180,400,400v1600c0,220-180,400-400,400H400C180,2400.1,0,2220.1,0,2000.1V400.1C0,180.1,180,.1,400,.1Z"/>
  </g>
  <g id="country">
    <g id="fj-2" data-name="fj">
      <g>
        <path class="cls-15" d="M2336.4,731.92v615.27c0,201.24,363.6,320.73,363.6,320.73,0,0,363.6-119.499,363.6-320.73v-615.27h-727.2Z"/>
        <path class="cls-20" d="M2649.6,948.1v277.032h-313.2v100.8h313.2v322.8l50.4,19.188,50.4-19.188v-322.8h313.2v-100.8h-313.2v-277.032h-100.8Z"/>
        <path class="cls-20" d="M2336.4,731.92h727.2v237.6h-727.2v-237.6Z"/>
        <g>
          <g>
            <ellipse class="cls-4" cx="2394.69" cy="876.736" rx="40.869" ry="32.886"/>
            <ellipse class="cls-6" cx="2394.69" cy="859.675" rx="36.342" ry="18.369"/>
            <ellipse class="cls-6" cx="2394.69" cy="896.407" rx="36.342" ry="18.369"/>
            <ellipse class="cls-6" cx="2394.69" cy="876.739" rx="36.342" ry="18.369"/>
          </g>
          <path class="cls-12" d="M3045.6,922.39l-5.955-16.428s-16.299-6.648-17.541-15.306c-2.904-23.082-11.142-31.734-23.49-35.034-12.375-3.3-20.604,2.067-20.604,2.067-3.72,5.361-22.278,5.361-32.577,5.763-10.302.42-10.479-4.476-10.479-4.476-8.004.06-11.37-5.823-11.37-5.823-5.238-10.461-9.135-14.376-11.724-15.699,13.371.198,23.439-5.973,38.532-21.81,16.479-17.316,28.245-10.62,28.245-10.62-7.998,16.17,2.661,14.739,2.661,14.739,21.84-11.118,2.88-39.153-3.711-37.914-6.594,1.23-8.475-3.21-8.475-3.21.201,5.034-7.32,7.035-7.32,7.035,5.64-32.022-13.467-40.512-13.467-40.512-2.892,2.886-4.548,8.652-4.548,8.652-5.349,19.374-23.07,16.491-42.87,7.005-19.776-9.474-72.537,9.9-89.016,16.491-16.5,6.597-46.584,16.902-73.788,1.65-27.192-15.261-33.807-12.372-44.517-9.48-10.722,2.88-29.664,7.425-36.666,3.705-7.014-3.708-15.006-3.939-15.006-3.939,1.908-1.065-1.074-5.538-1.074-5.538-8.241-11.124,1.074-17.943,1.074-17.943,0,0-15.345,4.32-9.24,30.507l2.802,3.927s2.055,8.238,6.6,10.713l-.162,1.803s3.879-1.8,5.1,3.552c1.254,5.355,7.02.414,9.492-4.116,0,0-4.128,23.91,25.56,29.676,0,0-3.321-3.714-2.079-6.186,1.23-2.472-3.702-4.551-3.285-8.25.408-3.696-7.41-5.346-1.242-8.244,6.174-2.886,9.078-8.658,22.26-.825s23.502,6.192,23.502,6.192c0,0-8.043-16.506-3.612-16.497,4.431.006,24.369,24.69,34.182,23.469,9.816-1.209,28.779-12.339,38.262-8.22,0,0,.813-4.944,37.08-11.13,36.276-6.183,81.018-24.261,97.797-8.421,0,0,1.962,12.546,8.961,15.849,0,0-1.254,25.962-46.155,11.526l-16.29-4.284s-2.502-7.887-87.912,14.079c0,0-5.025,1.755-8.325,4.236-3.306,2.46-7.842-1.242-24.741,4.935-16.884,6.195-79.962,26.805-118.692,19.38l-.051.102c-8.532-2.55-16.524-1.23-16.848-2.577-.42-1.65,4.539.42,4.539.42-2.88-3.306-4.122-3.573-4.122-3.573-32.565-3.57-26.808-18.282-26.808-18.282l1.659,4.536c5.361-7.002-2.076-23.49-2.076-23.49l-.315.054c-.077-.504-.178-1.005-.3-1.5l2.691-1.86c15.666-13.191,33.807-15.666,33.807-15.666-10.725-13.182-33.402-6.174-33.402-6.174.42-16.074-6.174-34.626-6.174-34.626-22.269,2.475-35.034,21.018-35.034,21.018-.825-16.482-21.852-25.956-21.852-25.956,7.824,9.474,2.892,32.142,2.892,32.142l.822.414c-1.302-.033-2.064,0-2.064,0l-.468,4.86-.771-.324s-7.824,2.88-16.89,23.49c0,0-.915,4.869-4.422,9.261-.03-.57.03-1.08-.039-1.677,0,0-10.128,13.269-33.528,0,0,0-31.794-18.864-42.969-18.165-11.175.696-18.522,5.937-17.811,9.078,0,0-25.512-2.1-34.239,12.57,0,0-19.209,6.987-2.79,22.71,0,0,2.199,6.831,6.978,10.491,0,0-.678-14.352,2.799-10.134,0,0,.906,1.416,2.622,2.406.456,2.01,1.998,7.602,5.412,10.449l2.46-.78c.372-3.579,1.146-8.1,1.941-10.002.375.051.675.096.81.105-.108.105-.21.165-.312.261l4.539,6.987,5.235-2.793c2.451-.36,5.589,2.1,5.589,2.1l5.94-4.896c-.036-.054-.072-.063-.108-.12,5.85.978,7.449-10.362,7.449-10.362,5.256,1.38,10.17-.165,14.355-2.7,2.55,9.402,23.373,19.488,23.373,19.488l.897-.078c-1.764,1.128-2.811,1.974-2.811,1.974,9.474,6.606,27.201,4.953,27.201,4.953-7.41,2.892-6.375,16.611-6.375,16.611-4.332,1.779-4.755,6.054-4.755,6.054,14.43,5.76,24.285.99,24.285.99.792,4.695-.375,5.196-.375,5.196-5.766,12.36-8.241,24.315-8.241,24.315.126.054.273.081.396.126-.177.324-.396.636-.531.972,0,0-25.152,8.73-36.33,20.958,0,0-1.05-3.498-4.197-3.498s-12.924-8.025-17.466-9.429c-4.53-1.389-11.175,1.404-12.924-.69-1.581-1.905-.87-16.215-3.894-18.522l.057.012-3.147-8.73c-2.094,4.536-10.824,3.483-10.824,3.483-.348.21-1.689,1.188-3.591,2.607-1.74.093-3.747-.51-3.747-.51-.897.186-1.782,2.7-2.433,5.148-.351.258-.705.528-1.059.798v-2.451c-1.74,1.395-5.235-.699-6.639-.699-.684,0-1.53,2.001-2.217,4.056-3.552.66-8.262.837-8.262.837-1.398.699-.357,11.526-.357,11.526-10.122,5.595-5.238,13.971-5.238,13.971,5.592,27.249,52.05,15.021,55.545,18.522,3.486,3.498,11.529,4.185,15.72,4.185s9.42,10.134,15.366,11.181c5.943,1.05,0-8.031,27.549-14.61,27.534-6.582,36.717-17.877,36.717-17.877,8.625-1.662,11.025-12.147,11.67-16.38.084,1.95.312,4.11.627,6.57,1.242,9.483-5.31,12.936-5.31,12.936l23.865-7.164c9.471-2.475,8.238-10.725,8.238-10.725,9.066,25.971,25.56,27.618,25.56,27.618,3.294-9.894,2.889-12.78,2.889-12.78l7.416-.405c.3-5.592-4.635-9.678-7.491-11.58l11.61,7.044,4.524-.825c0,4.122,6.186,7.824,6.186,7.824l.834-5.346c5.361,7.005,15.249,4.53,15.249,4.53-.214-1.3-.506-2.587-.873-3.852,21.12,13.038,54.858-3.567,54.858-3.567,9.063,2.061,10.302-3.3,10.302-3.3,10.302,1.23,12.693-5.811,12.693-5.811,24.249-2.1,41.316-19.338,41.316-19.338,11.94-.825,12.33-9.366,12.33-9.366,0,0,11.973,2.364,23.52-12.066,26.784-38.325,66.84-18.372,66.84-18.372l-23.16,1.467c-60.582-.408-35.466,40.794-35.466,40.794l3.735-.396c5.769,1.233,25.545,16.899,18.255,28.566-.117.204-.273.39-.408.579-12.351,16.908-35.226.78-41.745-13.485-6.6-14.421-19.797-11.121-19.797-11.121,0,0-34.2,5.772-20.19,32.973l.51.015c.258,6.639,4.425,14.202,16.626,21.72,6.852,9.693,29.382,10.704,45.93,7.119,7.698-1.68,48.336-19.152,48.336-19.152,2.979-8.85,13.08-6.81,22.14-19.587s-12.78-17.316-17.721-24.315c-4.953-7.017,1.242-5.775,1.242-5.775,19.776,10.719,21.423-23.496,21.423-23.496,2.07,19.779,19.374,25.14,19.374,25.14,10.722-10.704,2.901-32.556,2.901-32.556,25.557,45.75,41.034,38.466,41.034,38.466-13.761-8.52-6.834-19.92-6.834-19.92,12.351,48.633,63.066,6.186,63.066,6.186-2.472,6.996.012,11.115,4.539,15.651,4.53,4.536,9.891,6.6,7.428,14.844-2.481,8.241-25.959,6.6-25.959,6.6,0,0-23.094-1.233-21.021,18.138,1.209,4.527,16.47,6.174,22.242,4.944,0,0-2.382.519,6.15,1.659,2.859.366,6.312.429,9.825.312,9.837-.3,20.31-1.971,20.31-1.971,13.173-2.877,11.121-7.428,11.121-7.428,20.178-3.72,22.254-17.325,22.254-17.325l-.008-.003Z"/>
          <path class="cls-16" d="M2375.862,837.985c.015-.021,1.083-2.544,3.12-2.85,1.566-.231,3.471.93,5.484,3.375l1.101-.828c-.045-.081-5.439-7.938-3.291-13.485.96-2.472,3.342-4.17,7.071-5.01l-.3-1.356c-4.209.966-6.918,2.94-8.058,5.874-.411,1.089-.617,2.244-.606,3.408,0,2.712.954,5.46,1.935,7.566-1.221-.765-2.409-1.08-3.552-.909-2.07.312-3.078,1.803-3.624,2.775l.72,1.44ZM3012,945.94c-13.77,2.184-33.984,3.396-35.592-.771-.282-.741-.33-3.714,10.944-11.055l-1.314-2.019c-9.408,6.126-13.194,10.554-11.88,13.938,2.886,7.5,32.397,3.216,38.289,2.277l-.447-2.37ZM2748.6,953.89c-3.138-4.8-1.728-11.379,4.194-19.569l-1.95-1.41c-6.582,9.057-8.016,16.572-4.266,22.305l2.022-1.326Z"/>
          <path class="cls-16" d="M2730,933.16c.3,8.304,6.168,16.017,17.4,22.896l1.26-2.058c-10.512-6.432-15.966-13.47-16.251-20.922-.414-11.436,11.67-20.256,11.787-20.349l-1.41-1.962c-.54.384-13.254,9.648-12.786,22.395h0ZM2964.87,936.25c-3.777,5.577-2.514,12.33-2.46,12.615l2.364-.465c-.021-.066-1.116-6.078,2.109-10.812,1.935-2.847,5.058-4.692,9.291-5.496l-.435-2.37c-4.905.93-8.55,3.12-10.869,6.528ZM2426.76,830.77l-.744-.186-.102.765c-.021.075-1.074,7.392-4.392,9.381-.93.555-1.929.618-3.084.195l-5.634-3.426c-1.125-.99-2.088-1.719-3.714-1.242-.324-.42-1.614-2.172-1.614-4.986,0-.315.021-.648.066-.987.402-3.3,2.706-6.483,6.87-9.453l-.792-1.128c-4.515,3.225-7.014,6.729-7.452,10.44-.296,2.628.455,5.266,2.091,7.344l.336.387.456-.21c1.254-.555,1.617-.228,2.838.852l6.081,3.699c1.542.57,2.97.465,4.266-.306,3.432-2.055,4.635-8.043,4.917-9.705,14.631,3.144,26.406-14.64,26.916-15.405l-1.17-.756c-.105.186-12.12,18.402-26.139,14.727h0Z"/>
          <path class="cls-16" d="M2391.69,828.04c-.732,2.964-.231,5.871,1.461,8.646,1.617,2.634,3.21,4.032,4.869,4.254,2.022.279,3.639-1.221,5.064-2.535,1.038-.972,2.022-1.875,2.832-1.815l1.26.87,1.08-.864-2.241-1.38c-1.416-.105-2.604.996-3.87,2.178-1.263,1.158-2.559,2.379-3.942,2.19-1.2-.168-2.496-1.389-3.87-3.621-1.491-2.445-1.941-5.007-1.308-7.59,1.578-6.528,9.381-11.325,9.465-11.37l-.708-1.179c-.351.204-8.376,5.13-10.092,12.216h0ZM2371.56,921.22c.699-2.523,2.64-4.674,5.757-6.405-.615.06,3.057,3.045,6.207,2.712l2.043-1.107c.837.72,6.291,5.685,6.291,11.976,0,1.323-.24,2.682-.837,4.059l1.278.537c3.99-9.45-6.045-17.832-6.138-17.922l-.366-.288-.621.402-1.788.972c-2.58.27-5.937-2.457-5.961-2.481-4.233,1.845-6.399,4.29-7.2,7.197l1.335.348ZM2418.15,897.1c-3.012.255-11.406,1.86-14.145,6.213-.99,1.581-1.137,3.321-.417,5.199l1.101,2.931c2.613,7.029,5.328,14.295,8.289,15.936l.669-1.2c-2.514-1.395-5.25-8.739-7.668-15.216l-1.095-2.931c-.561-1.482-.468-2.784.285-3.984,2.25-3.57,9.795-5.295,13.095-5.568,1.923-.156,2.55,6.939,2.931,11.181l1.371-.126c-.549-6.249-1.128-12.708-4.416-12.435h0Z"/>
          <path class="cls-16" d="M2395.14,904c-1.764,1.578-1.41,3.954-1.386,4.056.015.654.798,18.204,9.132,21.831l.549-1.263c-7.542-3.288-8.301-20.535-8.313-20.703-.003-.105-.249-1.848.951-2.898,1.263-1.125,3.777-1.209,7.26-.252l.369-1.326c-4.02-1.11-6.9-.924-8.562.555h0Z"/>
          <path class="cls-16" d="M2388.54,905.44c-3.687,2.568-3.534,9.894-3.531,10.2l1.38-.024c0-.078-.138-6.909,2.94-9.045,1.149-.792,2.661-.825,4.503-.081l.51-1.275c-2.295-.936-4.254-.861-5.802.225h0ZM2586.99,808.57c.066.114,3.93,8.835,3.93,15.915,0,1.257-.594,2.151-.873,3.243-.156-.405-1.5-4.098-1.5-4.098l-1.17,2.961c-.051.165-1.575,4.152,1.146,8.649,3.6,5.931,12.561,9.729,26.652,11.274h-.006c0,.012.177.165.198.195-.585.078-1.023.24-1.155.366l-.567.48.075,1.2c.366,1.464,2.034,1.536,5.352,1.662.561.03,1.47.165,2.115.198.825.231,1.671.459,1.671.459l-.282-.324c3.21.222,6.822,1.014,10.743,2.478-.867.228-2.985.756-2.985.756l3.486,1.374c.264.105,25.944,10.422,36.573,18.909-3.018,2.616-15.9,12.24-38.208,6.741l-3.738-.918,2.535,2.895c.156.174,14.688,16.842,17.7,26.949-5.061.051-24.555-.126-31.365-5.913l-1.764,1.605c.09.15,9.345,13.728,11.412,24.315-2.652.348-9,.609-12.756-4.299l-1.731-2.253-.939,6.111c-1.815-1.368-4.101-3.411-4.101-5.601v-1.44l-5.499.999-11.295-6.849c-.589-.392-1.194-.757-1.815-1.095-.012-.012-.105-.066-.105-.066l-.081-.048-1.17,2.118s1.344.801,1.731,1.044c2.418,1.575,6.558,5.01,6.975,9.564-1.785.105-7.344.408-7.344.408l.138,1.278v.201c0,.756-.24,3.912-2.544,11.037-3.474-.828-16.11-5.232-23.574-26.622l-2.325.576c.012.06.039.342.039.795,0,1.95-.69,6.837-7.395,8.58-.039.012-12.45,3.744-19.356,5.811,1.29-1.848,2.472-4.38,2.472-8.055,0-.78-.051-1.62-.153-2.511-.42-3.108-.672-5.697-.672-7.857,0-4.503,1.107-7.185,4.218-9.093l-1.086-2.148c-.291.114-28.854,11.46-43.017,6.75.648-2.766,3.048-12.486,7.884-22.848l-.624.594c.93-.396,1.875-1.845,1.092-6.498l-.258-1.584-1.452.699c-.09.045-9.156,4.089-22.251-.708.267-1.074.96-3.003,3.705-4.14l.804-.324-.078-.876c0-.03-.03-.639-.03-1.593,0-3.537.552-11.82,5.64-13.806l-.54-2.331c-.165.021-15.483,1.245-24.771-3.921,2.436-1.68,7.557-4.776,13.515-5.634l.954-.135.066-.954c.012-.048.033-.33.033-.78,0-1.209-.468-3.657-1.533-6.12,3.534.984,7.77,1.875,9.273.747l.51-.384-.438-9.297-2.409.117.369,7.686c-1.512.081-5.364-.69-9.105-1.878l-3.702-1.176,2.385,3.072c1.935,2.487,2.181,5.574,2.211,6.993-8.37,1.557-14.928,6.753-15.21,6.99l-1.23,1.011,1.305.909c7.2,5.016,18.459,5.451,24.24,5.325-3.408,3.84-3.984,10.263-3.984,13.476,0,.66.021.834.033,1.158-4.089,2.208-4.704,6.354-4.731,6.546l-.09.9.846.348c12.375,4.932,20.823,2.55,23.691,1.491.021.384.105.906.105,1.179,0,1.134-.21,1.482-.21,1.482-6.078,12.744-8.625,24.858-8.655,24.972l-.198,1.002.939.372c11.484,4.59,32.115-1.677,41.25-4.902-1.197,2.067-1.896,4.392-1.896,7.287,0,2.427.294,5.154.699,8.193.105.771.15,1.482.15,2.172,0,6.84-4.623,9.426-4.845,9.54l.918,2.223,23.865-7.167c5.52-1.434,7.593-4.695,8.472-7.467,9.417,22.332,24.198,24.345,24.855,24.42l.96.081.3-.906c2.298-6.861,2.829-10.347,2.934-12.03,2.462-.124,4.924-.255,7.386-.393l.06-1.083c.012-.189.012-.369.012-.546,0-1.974-.615-3.72-1.47-5.292,1.494.9,4.131,2.502,4.131,2.502l3.954-.72c1.032,3.99,5.769,7.122,6.381,7.497l1.536.921s.564-3.636.801-5.22c5.895,5.274,14.259,3.705,14.655,3.606l1.056-.27-.156-1.071c-1.2-8.064-6.612-17.658-9.795-22.788,10.473,4.761,29.55,4.413,30.489,4.383l1.422-.048-.279-1.395c-1.692-8.475-12.282-21.816-16.71-27.12,24.603,4.623,37.818-8.142,38.385-8.721l.864-.918-.951-.834c-8.271-7.206-27.336-15.57-34.995-18.771l2.682-.678-2.649-1.482c-6.405-3.6-13.194-4.047-17.784-4.245l-.021-.036c-2.91-3.333-4.392-3.867-4.767-3.948-16.638-1.836-22.737-6.498-24.951-10.098-.186-.297-.093-.498-.231-.786.36-.48.732-.954.732-.954,1.605-2.091,2.178-4.89,2.178-7.851,0-7.641-3.882-16.371-4.101-16.875l-2.214,1.002h-.002Z"/>
          <path class="cls-16" d="M2510.4,803.68c-.051.24-1.824,9.357-9.588,13.629-5.841,3.21-13.56,2.946-22.917-.798l-1.053-.42.111,1.128c.024.234.639,5.592,5.691,9.516,4.206,3.276,10.224,4.425,17.766,3.6-2.523,2.994-10.632,13.356-10.632,23.406,0,.531.033,1.062.084,1.584,1.032.741,13.74,4.185,19.632-3.348.21,3.231,1.137,13.566,5.172,17.61,2.211,2.199,2.73,5.412,2.73,7.98,0,2.313-.438,4.101-.438,4.137l-.456,1.839,1.533-1.116c.489-.357,12.171-8.913,15.906-20.121-.012.03,1.869-2.811,5.475-3.975-.075.489-.138.99-.138,1.689,0,4.332,1.899,12.192,14.508,17.013l1.035.396-.093-1.101c-.065-.724-.093-1.451-.084-2.178,0-3.165.438-8.979,3.45-11.991,1.986-1.98,2.58-4.212,2.58-6.147,0-1.521-.336-2.754-.678-3.66,2.547.645,8.565,2.586,11.016,7.17,3.558,6.669,16.014,1.362,16.548,1.14l-.429-1.311c-.051.012-5.238,1.173-8.511-1.074-1.44-.99-2.304-2.511-2.607-4.53l-.576-6.93c-.126-3.141-.561-5.136-2.139-6.813,1.65-.15,4.956-.093,6.354,3,2.202,4.851,9.753,5.322,10.068,5.349l2.583.135-2.169-1.404c-.072-.042-6.594-4.368-5.466-10.008l.939-4.128c1.785-7.44,4.755-19.896,2.337-27.543l-1.314.42c.6,1.908.846,4.17.846,6.588,0,6.78-1.92,14.832-3.216,20.214l-.948,4.185c-.108.531-.16,1.072-.156,1.614,0,3.651,2.37,6.438,4.215,8.115-2.22-.48-5.298-1.536-6.453-4.11-1.815-3.978-6.687-4.161-9.012-3.69l-1.626.327,1.386.921c2.19,1.461,2.25,3.162,2.406,6.879l.585,7.074c.345,2.412,1.419,4.257,3.18,5.472,1.545,1.05,3.351,1.2,4.998,1.32-3.699.963-8.772,1.566-10.593-1.86-3.435-6.396-12.876-8.106-13.272-8.181l-1.44-.249.72,1.263c.078.138,1.074,1.956,1.074,4.266,0,1.638-.501,3.513-2.199,5.205-3.348,3.378-3.861,9.501-3.861,12.888,0,.663.033.756.045,1.161-10.785-4.533-12.693-11.247-12.693-15.048,0-1.617.312-2.694.354-2.835l.315-1.062-1.095.186c-5.238.864-7.416,5.13-7.509,5.31-2.997,8.973-11.13,16.077-14.073,18.444.124-.89.19-1.787.198-2.685,0-2.805-.606-6.378-3.15-8.928-4.29-4.287-4.872-17.919-4.872-18.057l-.09-2.46-1.2,2.136c-4.746,8.499-18.6,4.416-18.735,4.38-.585-10.74,11.598-24.48,11.724-24.618l1.275-1.416-1.878.276c-7.956,1.152-14.136.09-18.369-3.18-2.428-1.884-4.163-4.521-4.932-7.497,9.228,3.438,16.968,3.63,22.926.339,8.322-4.602,10.149-14.025,10.221-14.421,8.739-19.818,16.374-22.947,16.458-22.968l-.48-1.293c-.345.12-8.22,3.219-17.304,23.85h0Z"/>
          <path class="cls-16" d="M2530.35,774.31l-.582.021-7.092,9.72,2.106.21c38.487,3.744,58.839,26.964,59.037,27.204l.888,1.032,6.978-7.581-.51-.78c-19.518-30.732-60.408-29.841-60.825-29.826h0ZM2531.01,776.722c4.755.012,39.81,1.095,57.567,27.993-.87.939-2.805,3.057-3.84,4.191-4.161-4.314-23.886-22.746-57.711-26.718,1.311-1.806,3.492-4.797,3.984-5.466h0Z"/>
          <path class="cls-16" d="M2524.8,794.62c-3.288,4.485-6.342,11.121-6.342,14.226,0,.594.114,1.062.366,1.359.021.03.138.039.177.087-4.008,3.591-6.393,9.588-6.393,16.368,0,3.729.66,7.614,2.043,11.319l.771,2.085c3.777,10.272,7.032,19.152,23.364,13.923,15.732-5.025,16.35-6.033,20.31-12.567l1.035-1.692c2.16-3.51,4.518-4.212,7.029-4.956,2.997-.9,6.102-1.824,8.826-7.2l2.649-3.972c2.859-3.939,6.426-8.82,6.855-15.069l-1.38-.093c-.396,5.85-3.84,10.554-6.591,14.34l-2.766,4.164c-2.46,4.848-5.145,5.652-7.992,6.501-2.649.789-5.37,1.602-7.812,5.559l-1.044,1.698c-3.81,6.288-4.293,7.098-19.536,11.982-15.081,4.818-17.838-2.7-21.654-13.092l-.771-2.106c-4.299-11.454-.939-23.007,4.65-27.147l1.92-1.425s-2.379.267-2.661.3c-.03-.114-.06-.213-.06-.393,0-1.872,2.043-7.833,6.111-13.392,3.474-4.734,11.67-9.426,11.76-9.471l-.69-1.197c-.345.207-8.535,4.89-12.174,9.861h0Z"/>
          <path class="cls-16" d="M2517.48,836.05c2.7,1.872,6.498,1.74,11.076,0,.021,1.632.387,5.1,3.234,7.614,3.348,2.964,8.895,3.534,16.5,1.722l-.324-1.338c-7.125,1.701-12.267,1.221-15.261-1.407-3.216-2.835-2.766-7.35-2.754-7.389l.126-1.182-1.095.465c-4.611,1.986-8.22,2.106-10.725.375-4.485-3.12-4.149-11.265-4.14-11.358l-1.38-.066c-.003.372-.381,9.006,4.743,12.564h0Z"/>
          <path class="cls-16" d="M2526.21,825.07c-1.968.468-2.481,2.118-2.481,3.39,0,.306.033.591.072.837.345,3.546,4.194,5.907,7.689,6.918,3.399.984,7.584,1.05,9.231-1.068.66-.846,1.14-2.37-.3-4.83-5.25-8.931-13.743-5.433-14.211-5.247h0ZM2531.874,834.883c-3.06-.873-6.426-2.859-6.696-5.799-.066-.282-.396-2.256,1.344-2.67l.138-.045c.312-.141,7.833-3.408,12.57,4.65.843,1.44.981,2.535.396,3.279-1.014,1.32-4.362,1.578-7.752.585h0ZM2526.072,825.121c.012-.012.138-.054.138-.054l-.138.054ZM2530.95,843.04c-.885,7.542-.345,7.722.198,7.89l.48.15.54-.636,4.368-5.76-5.484-2.598-.102.954h0ZM2532.213,844.168l2.211,1.044c-.594.759-1.698,2.232-2.535,3.33.021-1.134.159-2.736.324-4.374h0ZM2519.58,836.98l-.291,7.128,5.985-7.239-5.661-.627-.033.738h0ZM2520.927,837.778l1.656.18c-.585.699-.972,1.176-1.755,2.118.06-1.11.081-1.725.099-2.298h0Z"/>
          <path class="cls-16" d="M2515.59,834.7c.051.093,4.452,8.7,5.235,11.841.501,1.995,3.045,4.266,6.081,5.391,3.024,1.14,5.859.954,7.977-.522l3.975-3.303c1.323-1.275,1.764-1.632,2.835-1.449l.231-1.359c-1.803-.303-2.682.537-4.02,1.809l-3.807,3.174c-2.346,1.638-5.217.939-6.717.36-2.838-1.05-4.89-3.084-5.226-4.44-.825-3.282-5.163-11.76-5.34-12.12l-1.224.618h0ZM2521.32,808.9c-4.86,2.244-6.915,8.139-6.999,8.388l1.305.453c.021-.057,1.962-5.61,6.276-7.59,2.106-.966,4.464-.933,7.032.075l.51-1.275c-2.919-1.179-5.652-1.188-8.124-.051h0ZM2553.99,824.38c.384.288,9.564,7.242,4.29,15.729l1.17.729c5.952-9.564-4.542-17.49-4.635-17.574l-.825,1.116h0ZM2526.39,825.73s-1.428,5.19,5.871,7.02c0,0-6.864-.06-7.299-1.83-.462-1.773.039-5.7,1.428-5.19ZM2548.71,831.94c0,.45-.366.822-.813.822-.45-.007-.811-.372-.813-.822,0-.444.372-.813.81-.813.45,0,.816.369.816.813ZM2549.52,835.18c0,.45-.366.825-.813.825s-.804-.375-.804-.825c0-.438.357-.81.804-.81s.813.375.813.81Z"/>
          <circle class="cls-16" cx="2544.03" cy="833.575" r=".81"/>
          <path class="cls-16" d="M2546.25,838.45c-.027.447-.411.786-.858.759-.409-.025-.734-.351-.759-.759,0-.453.369-.825.804-.825.447,0,.813.369.813.825ZM2524.95,816.49c0,.452-.367.819-.819.819s-.819-.367-.819-.819c0-.438.375-.813.813-.813.462,0,.825.375.825.813Z"/>
          <circle class="cls-16" cx="2524.95" cy="819.76" r=".81"/>
          <circle class="cls-16" cx="2520.27" cy="818.14" r=".81"/>
          <path class="cls-16" d="M2522.49,823c-.008.45-.375.811-.825.813-.452,0-.819-.367-.819-.819s.367-.819.819-.819h0c.454.005.82.371.825.825h0ZM2536.71,794.35s10.554,6.495.396,18.684c0,0,4.998-3.711,5.508-10.086.534-6.369-3.621-11.448-5.904-8.598ZM2577.21,811.87c-3.399,1.746-8.292-1.488-10.74-4.542-2.442-3.06-7.5-3.84-10.65,1.74-3.144,5.592-7.68,7.686-7.68,7.686,0,0,4.431-2.616,8.994-7.509,4.536-4.881,7.155-.96,11.61,1.398s5.151,2.877,8.289,1.656l.177-.429h0Z"/>
          <path class="cls-16" d="M2576.34,812.68c-1.389,1.044-3.936,1.92-6.636-.27-2.7-2.181-4.974-5.145-8.376-3.402-3.414,1.752-9.879,6.636-9.879,6.636,0,0,10.485-7.251,12.495-5.676,2.004,1.578,6.729,5.415,9.606,4.29,2.883-1.149,2.79-1.578,2.79-1.578Z"/>
          <path class="cls-16" d="M2568.3,817.12c-3.315-2.532-6.636,2.967-9.429,2.28-2.793-.711-5.07-5.337-5.07-5.337,0,0,2.631,4.893,6.291,3.756,3.672-1.131,6.207-3.405,8.472-1.665,2.271,1.755-.264.966-.264.966h0Z"/>
          <path class="cls-16" d="M2563.11,817.81c-6.549.678-7.197-5.439-7.197-5.502,0,0,2.067,5.34,7.857,4.371l-.66,1.131h0Z"/>
          <path class="cls-16" d="M2562.9,813.64c.429,1.656.336,2.409-1.419,2.409-1.764,0-2.961-.588-2.961-2.298s4.122-1.176,4.38-.111h0ZM2539.38,804.55c0,1.14-.939,2.055-2.1,2.055s-1.386-.78-1.386-1.908.228-2.19,1.386-2.19,2.1.921,2.1,2.043Z"/>
          <path class="cls-16" d="M2532.15,797.23s11.22.12,5.664,14.16c0,0,4.275-6.99,1.593-12.018-2.691-5.022-6.915-3.756-6.915-3.756,0,0-1.029.951-.342,1.614Z"/>
          <path class="cls-16" d="M2531.82,802.84c-.03,2.814,1.848,5.721,5.568,8.628l.858-1.08c-3.369-2.628-5.07-5.16-5.046-7.518.021-2.358,1.836-3.759,1.857-3.78l-.825-1.11c-.096.078-2.37,1.812-2.412,4.86h0Z"/>
          <path class="cls-16" d="M2534.31,805.21c.48,1.617,1.731,2.838,3.732,3.636l.51-1.275c-1.581-.63-2.565-1.554-2.916-2.739-.711-2.388,1.209-5.172,1.23-5.196l-1.116-.801c-.108.144-2.337,3.36-1.44,6.375h0ZM2549.7,813.01s2.088,4.536-.96,9.429c-3.06,4.89-2.976,4.632-2.976,4.632,0,0,3.672-6.723,2.277-9.525-1.386-2.793,1.659-4.536,1.659-4.536h0ZM2593.35,860.38c11.526,2.172,37.53,22.56,37.8,22.77l1.494-1.908c-1.095-.846-26.745-20.955-38.844-23.232l-.45,2.37h0ZM2603.58,889.15c.771,10.23,11.901,16.584,12.381,16.842l1.176-2.1c-.114-.054-10.47-5.988-11.16-14.925l-2.397.183h0ZM2575.95,891.28c0,11.472,10.752,25.35,11.214,25.941l1.896-1.491c-.102-.129-10.701-13.806-10.701-24.45h-2.409ZM2539.5,892.57c1.896,3.786,1.698,5.706,1.209,6.645-.57,1.059-1.74,1.221-1.782,1.23l.282,2.403c.885-.105,2.661-.72,3.6-2.448,1.149-2.1.759-5.1-1.149-8.892l-2.16,1.062h0Z"/>
          <g>
            <path class="cls-2" d="M2375.58,835.99s.699,7.68,6.636,12.237c0,0-.699-8.4,1.05-11.88,0-.003-3.138-3.495-7.686-.357h0ZM2387.43,840.88s1.404,6.978,5.595,10.128l2.46-.699s1.041-8.742,2.439-9.786c1.398-1.041-5.937,3.144-10.494.357h0Z"/>
            <path class="cls-2" d="M2397.93,840.52l4.539,6.99,5.235-2.796-1.044-8.376s-3.138-.711-8.73,4.182h0Z"/>
            <path class="cls-2" d="M2419.23,841.93l-5.94,4.89s-3.138-2.448-5.592-2.097l1.056-7.686s4.191-3.141,10.476,4.893ZM2376.96,914.23s-1.044-10.83.357-11.526c0,0,4.182,1.395,5.931-.36,0,0,2.448,8.742,1.746,12.234-.693,3.489-4.884,2.103-8.034-.348h0ZM2403.87,903.04s-.345-9.084,1.398-10.14c0,0,8.73,1.053,10.824-3.48l3.147,8.73s-9.78-1.053-15.369,4.89Z"/>
            <path class="cls-10" d="M2394.45,904.78s1.74-9.429,3.495-9.78c0,0,4.539,1.395,5.937-.36l-.345,11.541s.345-4.896-9.087-1.401h0ZM2384.31,906.19s2.094-8.385,3.495-8.385,4.896,2.097,6.639.699v6.288s-7.698-1.74-8.733,8.73l-1.401-7.332Z"/>
          </g>
        </g>
        <g>
          <path class="cls-5" d="M2520.48,1080.1s23.742,22.05,17.535,41.274c0,0,15.261-32.796-1.125-42.411-16.41-9.609-16.971-2.244-16.41,1.14v-.003Z"/>
          <path class="cls-1" d="M2490.51,1101.55s-6.21,8.499.564,14.718c0,0-7.344,10.722-1.68,19.785,0,0-4.53,9.609-3.399,19.788,0,0-3.963,15.825,4.515,23.19,0,0,9.054,4.524,13.02.564,0,0,7.908-11.871,2.814-24.327,0,0,5.655-10.17-.564-23.175,0,0,1.701-7.35-3.39-15.822,0,0,3.39-5.664.558-10.182,0,0-11.301-11.883-12.438-4.539Z"/>
          <path class="cls-5" d="M2497.29,1073.86s-28.266-54.27-48.06-56.544c-19.794-2.265-20.916-21.48-20.916-21.48,0,0,2.256,9.045,18.093,9.045s46.368,22.047,49.755,39.009c3.39,16.959,6.789,14.706,6.789,14.706l-5.661,15.264Z"/>
          <path class="cls-5" d="M2497.29,1069.9s10.182-68.415,54.858-69.552c44.655-1.14,29.967,3.39,40.701-3.963,0,0-29.955,15.843-48.624,18.096-18.651,2.262-33.924,38.436-33.357,45.24.561,6.777-10.173,19.788-15.264,15.27-5.091-4.527,1.689-5.091,1.689-5.091h-.003Z"/>
          <path class="cls-5" d="M2507.46,1095.37s10.173-27.141,27.705-18.087c0,0-13.578-26.019-37.887-3.402,0,0,10.746,14.7,10.182,21.489h0ZM2473.53,1068.19s14.706,60.51-7.917,79.161c0,0,.561-31.083-13.005-49.746-13.56-18.669,13.566-39.009,20.922-29.415Z"/>
          <path class="cls-5" d="M2475.24,1078.96s26.58,25.452,28.281,33.93c1.701,8.481,7.911-25.44-4.524-35.046-12.441-9.627-26.01-11.319-26.01-11.319l2.253,12.435Z"/>
          <path class="cls-1" d="M2426.22,1145.65s2.409,10.68,8.964,12.75c0,0,.339,7.935,6.204,10.344,0,0-3.111,6.552,2.07,10.68,0,0-1.041,13.101,3.789,15.867,0,0,11.733-.69,15.855-4.14,0,0,2.418-8.604-4.122-17.241,0,0,1.02-8.274-5.529-12.75,0,0,2.07-11.04-6.207-15.171,0,0-1.371-8.97-6.552-13.446.003-.003-9.99,14.13-14.472,13.107h0Z"/>
          <path class="cls-5" d="M2439.3,1132.54s-34.818-12.756-54.126,5.52c0,0,29.64,4.14,33.441,9.999,3.792,5.85,22.056-9.648,20.685-15.519Z"/>
          <path class="cls-5" d="M2428.62,1154.26s-2.754-2.409-6.198-4.83c-3.45-2.406-32.748-10.338-36.9,17.931,0,0-10.689-27.921,4.827-31.719,15.525-3.798,27.936,5.172,38.271,18.618M2405.7,1096.48s10.731,23.178,14.7,24.324c3.954,1.116,6.78-2.826,6.78-2.826,0,0-14.13-20.922-21.48-21.498h0ZM2397.78,1060.87s-9.054-29.964-19.788-22.05c-10.743,7.917-7.92,29.394-7.92,29.394,0,0-21.486-22.038-9.051-39.576,12.456-17.526,36.759,1.698,36.759,32.232h0Z"/>
          <path class="cls-1" d="M2422.11,1122.49s0,5.655,3.96,7.344c3.96,1.698,11.31,4.515,11.31,1.14,0-3.393-5.652-16.401-7.926-14.7-2.265,1.701-6.207,1.68-7.344,6.216Z"/>
          <path class="cls-5" d="M2415.33,1087.45s-1.131-26.004,15.822-35.628c0,0,3.402.582,5.1-4.503,0,0-13.584,32.781-9.621,49.179l-.561,2.265"/>
          <path class="cls-5" d="M2418.72,1055.77s30.531-63.336,67.854-41.286c0,0-39.012,7.92-53.142,35.628l-14.145,20.901-.564-15.246-.003.003Z"/>
          <path class="cls-5" d="M2402.31,1078.96s-9.051-42.402-14.7-48.048c-5.661-5.658-15.273-11.877-26.586-2.268,0,0,19.8-17.535,40.716-2.826,20.913,14.7,16.392,37.884,16.392,37.884l-2.253,29.406-14.139-13.008"/>
          <path class="cls-5" d="M2435.1,1129.27s-37.32-70.656-61.626-20.34c0,0-4.536,12.996.552,18.075,0,0-13.572-10.17-7.35-35.046,6.21-24.87,47.484-13.572,59.37,6.789,11.871,20.352,15.27,30.54,13.572,31.656-1.701,1.14-4.521-1.134-4.521-1.134h.003ZM2540.28,1149.64s27.15-55.98,42.972-30.54c0,0,4.518,12.435-2.271,17.535,0,0-10.731-13.005-20.34,2.826-9.615,15.825-5.655,14.706-5.655,14.706,0,0-10.182,2.826-14.706-4.53v.003Z"/>
          <path class="cls-5" d="M2580.96,1136.62s14.7,7.905,9.627,23.739c0,0,19.773-37.875-7.356-41.274.003,0,5.094,11.88-2.271,17.535h0ZM2582.67,1098.19s35.628,10.17,36.756,25.452c0,0,6.228-29.415-14.133-38.46,0,.003-24.321,3.966-22.623,13.008Z"/>
          <path class="cls-5" d="M2598.51,1051.24c15.27-29.967,34.494,9.612,34.494,9.612,0,0,6.78-31.092-12.435-36.756-19.233-5.652-31.668,66.15-31.668,66.15l-22.62,5.091s6.222-62.751,40.143-68.415l3.954.57"/>
          <path class="cls-5" d="M2571.36,1069.33s-21.48-44.1-36.183-48.618c-14.706-4.524,7.926-11.31,16.971-2.832,9.03,8.472,25.995,19.224,24.303,41.844l-5.091,9.606ZM2549.31,1129.84s6.216-29.955,23.178-39.009c16.959-9.054,32.796-5.652,32.796-5.652,0,0-20.364,4.515-23.742,14.706-3.399,10.17-9.054,10.731-9.054,10.731l-23.178,19.224Z"/>
          <path class="cls-1" d="M2540.28,1149.64s-9.609,18.096-7.356,20.916c0,0-10.17,14.7-6.216,22.05,0,0,10.182,7.917,14.706,4.518,0,0,11.859-16.386,8.472-25.44,0,0,7.914-10.734,5.1-17.514,0,0-11.868.561-14.706-4.53h0Z"/>
          <path class="cls-16" d="M2490.54,1117.33c.636.324,6.348,3.096,10.188,1.815l2.748-2.349-2.16-1.071c-1.41,2.793-7.626.489-9.702-.54l-1.074,2.145h0ZM2489.61,1134.88l-.468,2.37c.486.09,11.958,2.313,17.43-2.547l-1.605-1.797c-4.572,4.059-15.24,2.007-15.357,1.974ZM2486.7,1154.86l-1.416,1.95c.138.105,13.47,9.6,22.002-.768l-1.869-1.536c-7.086,8.604-18.24.699-18.717.354ZM2434.92,1157.74l.501,1.29c.48-.195,11.775-4.731,12.492-12.993l-1.371-.126c-.645,7.416-11.514,11.787-11.622,11.829ZM2441.31,1168.06l.096,1.374c.441-.03,10.869-.81,12.69-8.1l-1.344-.348c-1.572,6.321-11.34,7.062-11.442,7.074h0ZM2443.47,1178.74l-.075,1.386c.501.021,12.18.627,16.146-5.844l-1.179-.729c-3.54,5.781-14.778,5.199-14.892,5.187ZM2532.06,1171.42c.21.219,5.244,5.196,11.13,4.974,2.88-.102,5.433-1.428,7.59-3.909l-1.824-1.584c-1.701,1.959-3.672,3.003-5.844,3.087-4.818.174-9.312-4.224-9.357-4.278l-1.695,1.71h0Z"/>
        </g>
        <g>
          <path class="cls-7" d="M2883.18,1212.76c-.69.263-1.313.676-1.824,1.209l1.824-1.209ZM2924.76,1202.35c-.402-1.032-.666-.6-1.2-1.056-.759-.624-1.2-2.628-1.866-3.375-.396-.459-.855-.012-1.284-.126-.972-2.139-2.115-4.392-3.138-6.456.183-.287.281-.62.282-.96,0-.084-.48-1.731-.51-1.803-.294-.459-.756-.189-1.035-.9-.315-.708-.075-2.103-.189-2.94-.081-.696-.354-1.08-.312-2.064.042-.855.501-1.848.447-2.598-.021-.468-.573-1.521-.738-1.92-.669-1.614-1.23-3.138-1.314-5.13-.084-1.806.279-2.91.414-4.476.168-1.875-.825-2.787-.825-4.518.012-1.326.57-2.814.732-4.002.219-1.629.237-3.987.099-5.652-.12-1.596-.57-2.556-.324-4.35.066-.438.273-.792.324-1.41-.012-.438-.012-.861-.012-1.29v-2.574c0-.834.084-1.776.012-2.589-.072-.675-.468-1.374-.468-1.908,0-.918.585-1.353.459-2.598-.081-.897-.21-1.107-.414-1.887-.396-1.479-.126-2.973-.369-4.56-.114-.756-.357-.999-.429-1.866-.099-1.02.213-1.374.315-2.1.105-.72.21-1.665.114-2.43-.114-.918-.549-1.566-.429-2.565l-.333,11.346c-.282-9.9-.678-19.065-.678-19.065l-15.054-7.071s-1.275,27.642-.951,31.488c.3,3.861,1.596,30.228.951,33.441-.648,3.216-2.232,19.287-2.232,19.287,0,0-7.362,5.142-10.242,10.92-2.892,5.79-2.244,7.719-3.216,7.719l7.155-1.116-5.328,3.558c1.116-.457,2.392-.259,3.318.513.12.102.918.78,1.02.78.279,0,.669-.714,1.011-.84,1.11-.375,2.043,1.704,3.096,1.545.564-.084,1.335-.678,1.797-1.281.381-.51.528-1.41.93-1.752.366-.312,1.26.051,1.647.051,1.05,0,2.115.033,3.168,0,1.401-.039,2.535-2.01,3.825-3.129,1.203-1.011,2.088-1.368,3.375-1.29,1.407.102,2.679,1.416,4.11,1.5,1.083.054,1.836.186,2.712-.951.603-.792,1.032-1.968,1.605-2.793l3.558-.552c.705.294,1.425.618,2.028.594.909-.042,1.848-.153,2.748-.012.342.045,1.02.846,1.299.648.192-.147.516-1.23.711-1.554-.081-.435-.213-1.518-.372-1.884v.003Z"/>
          <path class="cls-7" d="M2894.31,1212.25c.906,0,1.74-.21,2.502.456.126.24.24.474.357.699.215.162.499.202.75.105.513.345.618.54,1.179.669.522.111,1.095-.021,1.617-.012.66.021.978.249,1.593.501,1.074.438,1.782.021,2.712-.648,1.077-.792,1.47-.186,2.502.807.774.738.615.669,1.314.165.105-.24.228-.468.345-.669.345-.144.699-.24,1.05-.303.579-.27,1.149-.24,1.695-.447.57-.222.99-.855,1.593-.741.522.105,1.119.528,1.617.69.48.162.69.258,1.086.549.72-1.479,2.304-1.92,3.318-2.637,1.053-.729,2.034.156,3.192.168.615,0,.864-.36,1.302-.501.492-.18,1.05.078,1.524-.117.501-.186.594-.669,1.146-.729,1.02-.126,2.16,1.539,3.18,1.854.573.189,3.228.783,2.838-1.167-.375-1.86-2.04-.57-2.4-1.875-.189-.741.201-1.797-.03-2.628-.198-.759-1.032-1.638-1.533-1.803-.627-.198-.99.456-1.524-.054-.438-.408-.603-1.932-.99-2.535-.513.375-.834.72-1.512.582-.774-.186-.699-.45-1.275-1.179-1.251-1.566-1.971.939-3.126.54-.879-.279-1.692-2.49-2.382-3.39-.366-.48-1.398-2.034-1.929-1.686-.897.582-.081,2.274-.549,3.024-.336.522-1.524-.012-1.95.072-.678.147-.804.324-1.296,1.137-.99,1.638-1.566,2.94-3.105,2.754-.732-.084-1.281-.825-1.995-.555-.759.291-1.188,1.104-2.022,1.2-.606.048-1.305.072-1.899-.156-.582-.264-1.242-1.356-1.773-1.659-.194-.18-.473-.234-.72-.138-.06-.03-.864-.501-.876-.501-.93-.27-.852-.237-1.23.99-.222.762-.303,1.545-.585,2.265-.27.606-.864,1.353-1.209,1.761-.648.699-.96.51-1.803.762-.678.222-1.578,1.275-1.941-.081-.54-2.046,1.5-5.1-.774-4.569-.594.138-.951.249-1.314,1.128-.402,1.011-.078,1.665-.258,2.775-.24,1.395-2.904,3.744-2.376,5.007.354.888,1.542-.48,1.866-.258.54.372.387,1.26.771,1.857.807,1.23,3.195-1.908,3.33-.21M2884.65,1201.3c-.006-.177-.039-.345-.051-.528-.636-.117-1.356-.792-1.941-.804-.549-.03-1.626,1.314-2.004,1.959-1.167,1.929-.84,4.557-2.805,4.518-.48-.012-1.605-.336-2.025-.045-.738.522-.27,2.07-.27,3.12,0,.99.45,0-.081,1.284-.159.354-.636.468-.762.939-.396,1.68.999,1.146,1.617,1.128,1.584-.012,3.159-.012,4.725,0,.951.021,1.524-.315,2.409-.66.582-.198,1.824-.186,2.319-.708.177-.198.75-1.524.831-1.836.126-.648-.12-1.431.03-1.971.252-.948,1.101-.585,1.254-1.866.408-3.144-2.946-.792-2.418-3.882"/>
        </g>
        <g>
          <path class="cls-11" d="M2922.63,1113.94c0,4.068-2.784,7.344-6.234,7.344-3.411,0-6.219-3.276-6.219-7.344s2.805-7.356,6.219-7.356c3.45.003,6.234,3.3,6.234,7.356ZM2902.29,1104.88c0,4.056-2.787,7.344-6.222,7.344s-6.234-3.288-6.234-7.344,2.793-7.35,6.234-7.35,6.222,3.294,6.222,7.35Z"/>
          <path class="cls-11" d="M2913.03,1107.7c0,4.068-2.787,7.344-6.222,7.344s-6.216-3.276-6.216-7.344,2.784-7.35,6.216-7.35,6.222,3.285,6.222,7.35Z"/>
          <path class="cls-11" d="M2902.62,1114.42c0,4.068-2.796,7.362-6.228,7.362s-6.216-3.3-6.216-7.362,2.781-7.344,6.216-7.344,6.228,3.282,6.228,7.344Z"/>
          <path class="cls-11" d="M2912.28,1120.03c0,4.056-2.805,7.362-6.225,7.362s-6.228-3.306-6.228-7.362,2.799-7.344,6.228-7.344c3.417.003,6.225,3.288,6.225,7.344Z"/>
        </g>
        <path class="cls-5" d="M2915.28,1039.84s62.754-87.627,130.044,3.402c0,0,.561,9.054-5.655,18.66l-1.701-7.344-3.954,1.122-1.128-4.521-7.365-.561,2.274-9.618-7.926,6.222,1.137-6.789-9.048,9.06,1.14-19.233-9.621,16.398,1.128-11.301-3.39,5.079-2.04-6.588-3.039,6.588-4.536-3.384v4.521l-7.905-6.786-2.826,9.045-3.957-9.606-1.134,6.78-3.966-7.92-.552,8.49-13.017-5.661,2.826,7.917-6.207-4.515,1.128,4.515-8.472-1.689.555,5.082-9.045-1.698,1.701,4.518-12.444-1.686,4.506,5.088-1.251,2.07s67.98-22.419,72.504,62.388l-12.444,6.216,3.399-6.768-3.399-2.271-10.17-7.905,2.826-10.755-3.387,1.14-.57-6.219-1.695,1.128-3.966-6.219-1.128,2.265-2.826-7.362-2.826,5.1-1.701-12.444-4.515,7.929-.576-4.527-1.698,2.826-5.652-6.789-1.68,4.524-2.28-3.39-1.686,3.954-6.222-5.664v4.539l-3.951-3.402-1.713,2.265-9.594-5.091-.588,4.515-5.076-4.515-1.704,4.515s61.65,35.067,42.411,92.175l-3.402,7.344-1.116-19.212-5.652,10.17,3.93-22.05-3.93,3.951-.582-8.469-5.07,8.469-1.722-9.603-2.244,2.826-3.408-14.706-2.826,6.228-4.518-16.398-3.39,6.78-2.262-14.124-2.265,8.478-6.789-12.447-1.122,5.079-3.951-10.17-2.277,3.402s-11.307-.576-14.694-3.402c-3.39-2.814-13.008,16.971-13.008,16.971l1.134-11.88-3.951,7.905v-7.905l-7.356,23.742-1.698-16.959-3.957,14.7-1.704-4.515-1.125,6.225-2.265-2.274-1.974,6.675-3.69-2.709v9.042l-3.387-4.524-2.826,13.572-1.692-5.64v6.204l-2.826-3.378-2.835,13.572-3.954-5.652-.555,9.6,1.68,7.362-4.515-2.265,1.701,11.859s-17.532-32.781,3.399-64.452c20.904-31.65,49.179-40.14,49.179-40.14l-2.838-2.814-.561-2.835-16.959,8.478.57-5.1-4.527,3.96-1.125-5.652-2.838,5.091-.552-2.265-3.966,6.228-2.271-9.054-2.82,10.755-2.667-7.521-5.811,15.99v-11.871l-4.524,12.444-1.692-13.572-3.39,15.822v-14.133l-5.1,14.133-3.387-13.56-2.265,12.996-3.387-10.17-3.402,15.261-5.079-13.572-2.826,20.361-3.39-7.929-.57,14.706-3.945-9.042,3.945,19.212-5.091-7.344,1.704,11.871-7.344-13.008.561,15.282-3.963-5.1-1.704,5.655s-1.68-58.8,38.448-70.116c40.158-11.304,66.165,3.399,66.165,3.399l-15.261-12.435,1.692-3.963h-5.652l2.262-4.527-11.871.573,3.39-4.524-9.054,1.125v-2.82l-5.652,4.509,2.262-5.079-7.914,5.079-.483-7.521-4.047,6.405-2.244-6.789-18.102,18.084,5.085-18.654-3.387,3.966-.561-3.966-5.091,7.926-1.134-5.661-2.265,6.78-1.701-7.911-3.942,7.911-3.969-7.338-1.689,9.615-2.835-5.1-3.39,7.35-4.515-4.53-.573,4.53-9.048-3.96,2.265,6.792-6.789-5.652-1.704,9.042-3.945-4.524-2.826,11.316-2.826-10.749-2.826,8.481s35.358-90.858,124.815-31.578c0,0,9.741,9.528,12.006,16.308,2.265,6.792.57,1.14.57,1.14l-1.701-62.76,3.39,27.141,2.262-9.618-.561,14.139,9.036-19.794s-10.731,32.799-6.78,44.67c0,0,3.966-37.878,17.544-42.408l-12.444,27.138,3.951-.57-2.826,5.664h3.39l-4.098,8.97-2.121,4.602,2.253,4.518,3.417-3.423v-.003Z"/>
        <path class="cls-16" d="M2905.98,1076.71l1.782,1.605c.24-.249,5.832-6.207,15.222,1.722l1.554-1.848c-11.226-9.492-18.51-1.566-18.558-1.479ZM2903.25,1045.93l-.366,2.175s3.228-1.377,4.359-1.86c-.699,1.245-2.997,5.244-2.997,5.244l6.504-2.163c-2.687,3.518-5.376,7.034-8.064,10.551l1.92,1.482,12.828-16.803-7.971,2.658c.831-1.446,3.42-6.015,3.42-6.015l-6.894,2.964,1.425-8.622-2.385-.399-1.779,10.788h0Z"/>
        <path class="cls-16" d="M2891.28,1046.62s1.584,3.507,2.775,6.117c-.513-.213-4.425-1.779-4.425-1.779l13.05,23.082s1.575-2.01,1.668-2.136c-1.314,3.369-2.628,6.768-2.628,6.768l2.253.876,5.625-14.466-2.076-1.179-4.53,5.799c-1.218-2.169-5.73-10.158-7.875-13.935.27.102,3.621,1.452,3.621,1.452,0,0-2.46-5.436-3.609-7.959l4.89,3.054v-8.604h-2.409v4.257l-7.989-4.986,1.659,3.639h0ZM2883.06,1075.6l.96,2.211c3.534-1.512,6.444-1.764,8.655-.711,2.589,1.242,3.369,3.912,3.378,3.93l2.325-.624c-.03-.156-1.056-3.744-4.629-5.466-2.856-1.374-6.456-1.155-10.689.66ZM2893.188,1100.05l-1.98-12.645,2.388-.375,1.98,12.642-2.388.378ZM2910.555,1097.968l-3.222-9.66,2.295-.765,3.222,9.66-2.295.765ZM2916.927,1105.108l-2.418-9.648,2.346-.588,2.418,9.648-2.346.588Z"/>
        <path class="cls-5" d="M2434.23,1395.22s-10.602-4.818-15.429-1.29c-4.824,3.543-4.167,8.676-8.349,8.352,0,0,16.062,3.537,19.596-.648,3.531-4.161,4.182-5.457,4.182-5.457M2436.18,1399.66s-6.978,9.33-4.566,14.79c2.406,5.466,7.569,5.934,6.348,9.945,0,0,6.906-14.922,3.588-19.278-3.315-4.326-4.422-5.235-4.422-5.235M2424.42,1373.83s-11.13,3.45-12.378,9.285c-1.278,5.838,2.637,9.258-.696,11.793,0,0,14.346-8.04,14.211-13.518-.135-5.469-.489-6.852-.489-6.852M2430.96,1377.67s5.28-10.401,1.956-15.354c-3.318-4.989-8.496-4.56-7.986-8.712,0,0-4.242,15.888-.219,19.608,4.029,3.69,5.289,4.404,5.289,4.404M2420.04,1373.89s.255-11.628-4.896-14.667c-5.145-3.045-9.627-.423-10.974-4.401,0,0,3.078,16.167,8.322,17.784,5.238,1.575,6.681,1.668,6.681,1.668M2439.06,1393.27s12.204-4.191,13.176,8.994c.96,13.17-.648,8.679-.648,8.679,0,0-6.426-14.139-13.488-16.392l.96-1.281h0Z"/>
        <path class="cls-16" d="M2435.97,1399.87c0,.282,1.278,10.242,1.278,10.242l1.716-.219-1.29-9.966c.042.012,4.17-21.9,4.17-21.9l-1.701-.315-4.173,22.158h0Z"/>
        <path class="cls-16" d="M2424.87,1396.63l-.57,1.626c5.838,2.052,13.983-4.362,14.322-4.632l-1.08-1.344c-.072.051-7.734,6.102-12.672,4.35ZM2440.164,1383.772l-27.306-13.815,1.089-2.151,27.306,13.815-1.089,2.151Z"/>
        <path class="cls-16" d="M2420.37,1380.67l-1.701-1.701,5.46-5.46,1.701,1.704-5.46,5.457ZM2429.925,1378.015l-5.784-12.54,2.19-1.008,5.781,12.54-2.187,1.008ZM2438.01,1393.36l.156,2.412c7.425-.504,9.24,4.305,9.252,4.359l2.37-.492c-.282-1.377-3.258-6.852-11.778-6.279h0Z"/>
        <path class="cls-14" d="M2563.29,1398.91c9.105-5.1,10.929-22.971,10.929-22.971-2.178,6.573-18.93,13.125-18.93,13.125,12.378-7.668,27.303-42.252,27.303-42.252-4.002,12.39-36.414,22.578-57.18,34.233-20.769,11.649-9.837,45.174-9.837,45.174-5.82-4.011-17.118-21.849-19.296-37.527-2.199-15.657-8.388-21.84-22.593-23.667-14.214-1.824-22.587,14.196-22.587,14.196l-21.12,10.941,21.477.72s15.318,5.112,15.318,17.13-13.479,60.102,8.73,87.063c15.459,18.735,72.498,29.499,72.498,29.499"/>
        <path class="cls-14" d="M2521.41,1436.05s4.371-21.495,18.576-20.766c14.205.729,18.21-16.02,26.589-18.576,8.379-2.544,51.726-14.193,56.463-34.968,0,0-4.005,34.248-43.704,51.366,0,0,32.043-10.569,35.694-17.49,0,0-14.217,30.6-48.816,35.334,0,0,32.418-2.547,37.155-11.283,0,0-14.571,19.299-38.607,21.855,0,0,22.215,9.105,28.05,1.452,0,0-12.027,14.205-26.967,15.288l4.02,1.098s-14.208,16.761-29.874,5.466c-15.657-11.298-16.032,2.922-16.032,2.922"/>
        <path class="cls-14" d="M2553.75,1468.45s18.294,30.606,20.121,46.995c0,0,34.974,38.616,48.084,40.785,0,0-6.195,2.544-17.493-6.915,0,0,9.471,9.834,11.298,10.2,1.812.375-7.656-.729-9.117-3.285,0,0,4.014,5.844,6.561,6.57,2.556.732-2.547-.726-2.547-.726,0,0-4.743-.732-6.927-2.556-2.19-1.815-.729,4.725-.729,4.725,0,0-5.466-1.458-7.281-3.276-1.824-1.815.732,4.02.732,4.02l-4.734-1.101-3.276,2.178s-.366,2.19-2.568.369c-2.169-1.803-6.183,0-6.183,0,0,0-2.925,2.556-4.371.729-1.446-1.818-6.969,7.008-6.969,7.008l-22.935-55.365"/>
        <path class="cls-16" d="M2575.515,1568.884l-28.986-55.179,3.042-1.599,28.989,55.179-3.045,1.599ZM2600.841,1565.164l-49.593-55.53,2.574-2.298,49.596,55.53-2.577,2.298ZM2612.154,1560.268l-56.592-52.74,2.349-2.52,56.592,52.74-2.349,2.52ZM2470.32,1382.62s-3.693-6.612-6.909-4.128c-3.207,2.475-5.055,2.928-5.61,2.757,0,0,3.228.177,5.061-1.566,1.839-1.758,4.968-.648,7.458,2.937h0ZM2450.34,1379.59s2.028,4.194,2.055,4.266c-.204.012-2.289,6.771-2.289,6.771l1.659.51,2.25-7.359c-.039-.639-2.109-4.926-2.109-4.926l-1.566.738Z"/>
        <path class="cls-16" d="M2469.48,1381.6s-2.754,3.225-6.528,2.298l-3.756-.918s3.198.18,5.328.279c2.1.087,4.854-1.011,4.956-1.659h0Z"/>
        <path class="cls-16" d="M2468.58,1382.26s-3.396-3.585-5.7-2.574c0,0,4.05-1.29,6.348,2.19l-.648.384Z"/>
        <path class="cls-16" d="M2468.01,1381.6s-3.858,2.661-8.097-.27l-.258-.198.549-.177s5.334,2.205,7.806.645Z"/>
        <circle class="cls-16" cx="2464.718" cy="1380.951" r="1.148"/>
        <path class="cls-16" d="M2467.83,1482.7s-2.988,5.502-1.425,8.817c1.584,3.309,8.67,5.025,9.615,9.438.951,4.425,3.315,4.413,6.624,3.798,3.315-.636,3.942-.792,3.942-.792,0,0-13.875-7.419-17.502-19.38l-1.254-1.881h0Z"/>
        <g>
          <path class="cls-3" d="M2916.27,1370.65s25.254-33.297,47.646-24.552c22.395,8.751,36.948,12.963,36.948,12.963,0,0,.426,22.425-11.484,22.425s-23.271-22.395-34.098-15.738c-10.848,6.645-19.752,15.75-20.454,18.888-.699,3.144-28.686,3.849-18.555-13.986h-.003Z"/>
          <path class="cls-1" d="M2820.42,1531.21s-6.984,7.332-3.834,9.093c3.162,1.743,9.438-.366,9.438-2.805,0-2.46-4.185-6.987-5.604-6.288Z"/>
          <path class="cls-1" d="M2814.84,1538.2s-12.936-7.365-23.082,10.128c-10.161,17.49-18.546,45.831-24.492,49.68-5.943,3.846,57.723-27.984,58.425-41.274,0,0,4.191-17.148-2.451-16.806-6.645.366-6.999,1.068-8.4-1.728h0Z"/>
          <path class="cls-3" d="M2816.58,1540.3s-13.29,3.129-16.086,22.011c-2.796,18.909-21.342,28.695-22.386,29.391M3000.9,1359.07s-20.214,7.032-16.722,21.03"/>
        </g>
        <path class="cls-9" d="M2845.62,1400.02s.696-47.928,39.852-45.831c7.419.69,3.882,9.438,3.882,9.438,0,0,8.469-5.931,12.339,3.498,0,0,12.351-5.592,13.755,6.654,0,0,13.41-1.74,11.64,9.096,0,0,9.168-2.097,8.826,5.601,0,0,10.578-4.2,9.51,6.645,0,0,11.646-7.698,9.891,6.288,0,0,11.997-8.382,16.212,5.607,4.233,13.986-11.985,43.722-27.861,51.414"/>
        <path class="cls-16" d="M2954.43,1402.93c.054.375,5.28,37.494-15.771,51.078l.741,1.17c21.81-14.07,16.446-52.068,16.398-52.452l-1.368.204ZM2929.08,1443.58l.972.99c13.332-12.975,16.2-47.928,16.302-49.407l-1.365-.114c-.033.366-2.931,35.922-15.909,48.531ZM2916.63,1435.27l1.374.111c1.716-21.585,18.588-46.275,18.768-46.527l-1.14-.774c-.174.246-17.25,25.239-19.002,47.19ZM2906.85,1428.97l1.374.138c2.4-26.04,19.599-45.588,19.77-45.774l-1.023-.924c-.18.192-17.673,20.064-20.121,46.56h0ZM2893.2,1420.27l1.374.051c1.368-30.75,21.54-45.84,21.741-45.99l-.816-1.113c-.195.153-20.901,15.6-22.299,47.052h0ZM2880.6,1412.62l1.386-.042c-1.008-27.984,20.505-44.736,20.73-44.91l-.837-1.092c-.219.18-22.302,17.34-21.279,46.044h0ZM2857.89,1402.39l1.365.168c3.747-30.291,30.708-38.175,30.978-38.25l-.375-1.323c-.27.072-28.119,8.187-31.968,39.405Z"/>
        <path class="cls-8" d="M2822.52,1458.1s-6.636-44.439,19.944-58.416c0,0,4.911-1.056,7.698,5.244,0,0,13.998-5.94,14.352,5.934,0,0,6.99-5.592,8.742,2.1,0,0,15.039-3.141,12.24,8.049,0,0,12.591-3.495,11.541,7.335,0,0,12.6-4.542,10.491,4.905,0,0,13.287-3.141,10.146,7.701,0,0,16.449-1.743,11.55,9.795,0,0,12.243-3.144,9.438,6.3,0,0,16.098,2.805,8.742,12.945-7.344,10.134-25.89,25.53-44.058,32.172"/>
        <path class="cls-8" d="M2808.18,1502.86s-10.848-37.065,9.807-46.527c0,0,3.825-1.056,4.53,2.805,0,0,4.557-5.955,8.058-.699,0,0,10.485-4.899,12.945,2.793,0,0,6.99-5.955,10.494,2.784,0,0,6.648-2.784,6.648,4.203,0,0,9.09-3.846,9.09,4.551,0,0,8.73-3.495,6.99,5.943,0,0,13.299,2.097,9.45,8.394,0,0,11.91,3.138,7.344,8.049,0,0,12.936-1.398,5.943,7.344,0,0,9.795-3.141,4.206,7.71-5.607,10.836-23.085,22.728-35.328,24.123"/>
        <path class="cls-8" d="M2821.11,1532.23s-23.082-22.386-12.225-29.028c0,0,4.878,1.386,6.633,6.291,0,0,5.592-8.043,8.754.345,0,0,8.4-2.793,8.4,2.814l6.63,4.902s7.71-.708,6.312,4.194c0,0,8.397-1.056,8.04,3.495,0,0,7.356.345,6.657,5.235,0,0,12.579,2.1,6.987,8.409,0,0-22.038,4.536-37.425-1.755,0,0-8.064-2.808-8.76-4.902h-.003Z"/>
        <path class="cls-16" d="M2900.28,1495.24l.492,1.281c13.68-5.265,37.434-37.692,38.448-39.072l-1.116-.825c-.252.351-24.522,33.492-37.824,38.613v.003ZM2892.51,1489.33l.669,1.2c11.901-6.639,35.601-38.028,36.6-39.363l-1.098-.834c-.237.336-24.522,32.502-36.174,38.994l.003.003ZM2885.76,1486.57l.888,1.056c12.57-10.434,30.873-44.898,31.656-46.356l-1.218-.648c-.186.351-18.96,35.688-31.323,45.951l-.003-.003ZM2879.58,1478.62l1.368.192c2.388-17.421,26.859-44.841,27.096-45.111l-1.02-.924c-1.014,1.14-25.002,28.008-27.444,45.843h0ZM2830.59,1457.44l1.38-.12c-2.058-24.609,18.54-51.714,18.75-51.984l-1.092-.831c-.222.267-21.132,27.786-19.038,52.935h0ZM2843.55,1459.6l1.368-.24c-3.408-19.728,19.89-47.784,20.13-48.06l-1.053-.894c-.981,1.167-23.952,28.815-20.445,49.194h0ZM2863.47,1466.86l1.38-.039c-.678-22.521,20.928-45.096,21.15-45.33l-.99-.96c-.216.231-22.242,23.229-21.54,46.329ZM2815.95,1507.66l1.29-.48c-7.845-20.811,5.778-47.457,5.916-47.718l-1.242-.636c-.135.273-14.031,27.447-5.964,48.834h0ZM2825.01,1509.01l1.314-.426c-6.843-21.195,4.755-49.605,4.878-49.884l-1.281-.528c-.111.276-11.898,29.163-4.911,50.838h0ZM2862.51,1530.19l.471,1.302c22.32-8.028,36.915-28.38,37.059-28.575l-1.125-.807c-.138.201-14.478,20.214-36.402,28.08h-.003ZM2857.92,1525.33l.561,1.263c17.802-8.031,34.401-30.438,34.56-30.669l-1.11-.807c-.168.225-16.542,22.329-34.011,30.21v.003ZM2853.6,1523.65l.807,1.119c13.923-10.086,31.812-35.946,32.001-36.21l-1.134-.771c-.183.264-17.931,25.914-31.674,35.859v.003ZM2831.28,1510.66l1.368-.198c-3.078-22.242,11.319-48.624,11.472-48.885l-1.209-.669c-.153.273-14.769,27.054-11.631,49.752h0ZM2840.97,1516.69l.93,1.02c14.364-12.966,19.254-47.913,19.452-49.392l-1.368-.192c-.042.357-5.016,35.943-19.014,48.564Z"/>
        <path class="cls-16" d="M2850.81,1520.83l.807,1.116c20.274-14.664,25.77-42.822,25.815-43.095l-1.347-.258c-.054.27-5.445,27.885-25.275,42.24v-.003ZM2853.15,1460.14c0,1.314.066,2.625.186,3.954-.021-.114-15.375,49.749-15.375,49.749l1.314.405,15.417-50.022c-2.382-24.18,18.888-50.577,19.098-50.835l-1.062-.864c-.213.24-19.578,24.279-19.578,47.613Z"/>
        <path class="cls-16" d="M2869.23,1472.32c-.201.699-4.881,34.854-23.304,47.454l.78,1.14c18.945-12.96,23.547-46.635,23.733-48.057,8.175-9.729,27.015-43.842,27.207-44.184l-1.212-.666c-.189.342-18.954,34.35-27.204,44.31v.003ZM2814.84,1509.64c.138.717,3.216,17.688,6.738,23.673l1.188-.693c-3.408-5.778-6.525-23.04-6.558-23.22l-1.368.24ZM2823.57,1509.85c.15,8.448.192,22.308-.282,23.541l1.284.504c.708-1.776.438-20.352.384-24.057l-1.386.012h0Z"/>
        <path class="cls-16" d="M2824.35,1534.06l1.254.561c5.913-12.87,7.734-21.747,7.758-21.831l-1.356-.27c-.021.072-1.806,8.826-7.656,21.54Z"/>
        <path class="cls-16" d="M2825.67,1534.45l.699,1.188c10.971-6.375,13.518-17.463,13.608-17.928l-1.344-.3c-.03.108-2.523,10.98-12.963,17.04h0Z"/>
        <path class="cls-16" d="M2827.71,1535.41l.138,1.365c10.752-1.074,18.075-14.133,18.39-14.685l-1.215-.669c-.069.135-7.287,12.984-17.313,13.989Z"/>
        <path class="cls-16" d="M2828.79,1536.1l.084,1.374c17.262-1.062,25.029-11.379,25.344-11.814l-1.116-.816c-.072.096-7.731,10.245-24.312,11.256h0Z"/>
        <path class="cls-16" d="M2830.02,1536.46l-.282,1.347c.93.21,22.926,4.875,30.456-6.591l-1.155-.753c-7.002,10.674-28.803,6.039-29.019,5.997Z"/>
        <path class="cls-13" d="M2336.4,731.92v615.27c0,201.24,363.6,320.73,363.6,320.73,0,0,363.6-119.499,363.6-320.73v-615.27h-727.2Z"/>
      </g>
    </g>
    <g id="mini-gb">
      <path class="cls-18" d="M1600,.1v1200H0V400.1C0,180.1,180,.1,400,.1h1200Z"/>
      <path id="Path" class="cls-23" d="M1534.9.1h65.1v255.8l-545.5,354.3,545.5,354.2v235.7h-96l-679-440.9-679,440.9H0v-203.2l595.5-386.7L31.6,243.9C65.5,164.1,124.5,97.6,198.7,54.3l626.3,406.7L1534.9.1Z"/>
      <path id="Path-2" class="cls-22" d="M0,1189.3v-119.2l708.2-460L60,189.3c17.8-28.7,39.2-54.9,63.4-78.2l676.6,439.4L1600,31.1v119.3l-708.2,459.7,708.2,460v119.2l-800-519.5L0,1189.3Z"/>
      <polygon id="Shape" class="cls-19" points="1000 400.1 1600 400.1 1600 800.1 1000 800.1 1000 1200.1 600 1200.1 600 800.1 0 800.1 0 400.1 600 400.1 600 .1 1000 .1 1000 400.1"/>
      <polygon id="Shape-2" class="cls-21" points="900 500.1 900 .1 700 .1 700 500.1 0 500.1 0 700.1 700 700.1 700 1200.1 900 1200.1 900 700.1 1600 700.1 1600 500.1 900 500.1"/>
    </g>
  </g>
</svg>