<?xml version="1.0" encoding="UTF-8"?>
<svg xmlns="http://www.w3.org/2000/svg" viewBox="0 0 3600.1 2401.738">
  <defs>
    <style>
      .cls-1, .cls-2, .cls-3 {
        fill-rule: evenodd;
      }

      .cls-1, .cls-2, .cls-3, .cls-4, .cls-5 {
        stroke-width: 0px;
      }

      .cls-1, .cls-5 {
        fill: #fcd116;
      }

      .cls-2 {
        fill: #007a5e;
      }

      .cls-3 {
        fill: #ce1126;
      }

      .cls-4 {
        fill: #cf0921;
      }
    </style>
  </defs>
  <g id="background">
    <path id="gd" class="cls-3" d="M400,.1h2800c220,0,400,180,400,400v1600c0,220-180,400-400,400H400C180,2400.1,0,2220.1,0,2000.1V400.1C0,180.1,180,.1,400,.1Z"/>
  </g>
  <g id="country">
    <g id="gd-2" data-name="gd">
      <rect id="Rectangle" class="cls-5" x="300" y="343" width="3000" height="1714.3"/>
      <path id="Path-8" class="cls-2" d="M300,343c1000,571.4,1500,857.1,1500,857.1,0,0-500,285.7-1500,857.1V343Z"/>
      <polygon id="Path-9" class="cls-2" points="3300 343 1800 1200.1 3300 2057.2 3300 343"/>
      <circle id="Oval" class="cls-4" cx="1800" cy="1200.1" r="321.4"/>
      <polygon id="Star" class="cls-1" points="1802.5 1316.3 1635.4 1435.9 1697.4 1239.9 1532.1 1118 1737.6 1116.4 1802.5 921.5 1867.5 1116.4 2072.9 1118 1907.6 1239.9 1969.6 1435.9 1802.5 1316.3"/>
      <g>
        <polygon class="cls-1" points="1800 239.9 1723.4 294.7 1751.8 204.9 1676 149 1770.2 148.3 1800 59 1829.8 148.3 1924 149 1848.2 204.9 1876.6 294.7 1800 239.9"/>
        <polygon class="cls-1" points="1800 2286.3 1723.4 2341.1 1751.8 2251.3 1676 2195.4 1770.2 2194.7 1800 2105.4 1829.8 2194.7 1924 2195.4 1848.2 2251.3 1876.6 2341.1 1800 2286.3"/>
        <polygon class="cls-1" points="1050 239.9 973.4 294.7 1001.8 204.9 926 149 1020.2 148.3 1050 59 1079.8 148.3 1174 149 1098.2 204.9 1126.6 294.7 1050 239.9"/>
        <polygon class="cls-1" points="1050 2286.3 973.4 2341.1 1001.8 2251.3 926 2195.4 1020.2 2194.7 1050 2105.4 1079.8 2194.7 1174 2195.4 1098.2 2251.3 1126.6 2341.1 1050 2286.3"/>
        <polygon class="cls-1" points="2550 239.9 2473.4 294.7 2501.8 204.9 2426 149 2520.2 148.3 2550 59 2579.8 148.3 2674 149 2598.2 204.9 2626.6 294.7 2550 239.9"/>
        <polygon class="cls-1" points="2550 2286.3 2473.4 2341.1 2501.8 2251.3 2426 2195.4 2520.2 2194.7 2550 2105.4 2579.8 2194.7 2674 2195.4 2598.2 2251.3 2626.6 2341.1 2550 2286.3"/>
      </g>
      <g>
        <path id="Path" class="cls-4" d="M583.7,1213.5c35.6,66.4,105,138.6,165.5,164,1-67.4-22.9-153.8-55.7-222.6l-109.8,58.6h0Z"/>
        <path id="Path-2" class="cls-5" d="M523.3,985.9c51.7,107.7-134,364.6,175.3,424.8-38.2-52.1-62.8-138-53.4-207,64.9,24.7,133.2,96.9,160.7,152.1,80.9-293.9-207.6-276.1-282.6-370h0v.1Z"/>
      </g>
    </g>
  </g>
</svg>