<?xml version="1.0" encoding="UTF-8"?>
<svg xmlns="http://www.w3.org/2000/svg" viewBox="0 0 3600.1 2401.738">
  <defs>
    <style>
      .cls-1, .cls-2 {
        fill: #e8112d;
      }

      .cls-1, .cls-2, .cls-3 {
        stroke-width: 0px;
      }

      .cls-1, .cls-3 {
        fill-rule: evenodd;
      }

      .cls-3 {
        fill: #eee;
      }
    </style>
  </defs>
  <g id="background">
    <path id="ge" class="cls-3" d="M400,.1h2800c220,0,400,180,400,400v1600c0,220-180,400-400,400H400C180,2400.1,0,2220.1,0,2000.1V400.1C0,180.1,180,.1,400,.1Z"/>
  </g>
  <g id="country">
    <g id="ge-2" data-name="ge">
      <polygon id="Path-7" class="cls-2" points="1980.1 1000 3600.1 1000 3600.1 1400 1980.1 1400 1980.1 2400 1620.1 2400 1620.1 1400 .1 1400 .1 1000 1620.1 1000 1620.1 0 1980.1 0 1980.1 1000"/>
      <path class="cls-1" d="M696.109,243.896c10.18,57.02,16.688,114.635,19.482,172.49-57.854-2.794-115.47-9.302-172.49-19.482,3.337,28.246,5.275,56.907,5.275,86.042s-1.938,57.796-5.275,86.042c57.02-10.18,114.635-16.687,172.49-19.482-2.794,57.854-9.302,115.47-19.482,172.49,28.246-3.337,56.907-5.275,86.042-5.275s57.799,1.938,86.042,5.275c-10.18-57.02-16.687-114.635-19.482-172.49,57.854,2.794,115.47,9.301,172.49,19.482-3.337-28.246-5.275-56.907-5.275-86.042s1.938-57.796,5.275-86.042c-57.02,10.18-114.635,16.688-172.49,19.482,2.794-57.854,9.302-115.47,19.482-172.49-28.243,3.337-56.903,5.275-86.042,5.275s-57.796-1.938-86.042-5.275h0ZM4.837,1437.567v-478.1M3595.351,959.467v478.1M2731.993,243.896c10.18,57.02,16.688,114.635,19.482,172.49-57.854-2.794-115.469-9.302-172.49-19.482,3.337,28.246,5.275,56.907,5.275,86.042s-1.938,57.796-5.275,86.042c57.02-10.18,114.635-16.687,172.49-19.482-2.794,57.854-9.302,115.47-19.482,172.49,28.246-3.337,56.907-5.275,86.042-5.275s57.799,1.938,86.042,5.275c-10.18-57.02-16.687-114.635-19.482-172.49,57.854,2.794,115.47,9.301,172.49,19.482-3.337-28.246-5.275-56.907-5.275-86.042s1.938-57.796,5.275-86.042c-57.02,10.18-114.635,16.688-172.49,19.482,2.794-57.854,9.302-115.47,19.482-172.49-28.243,3.337-56.903,5.275-86.042,5.275s-57.796-1.938-86.042-5.275ZM696.109,1678.197c10.18,57.02,16.688,114.635,19.482,172.49-57.854-2.794-115.47-9.302-172.49-19.482,3.337,28.246,5.275,56.907,5.275,86.042s-1.938,57.796-5.275,86.042c57.02-10.18,114.635-16.687,172.49-19.482-2.794,57.854-9.302,115.469-19.482,172.49,28.246-3.337,56.907-5.275,86.042-5.275s57.799,1.938,86.042,5.275c-10.18-57.02-16.687-114.635-19.482-172.49,57.854,2.794,115.47,9.302,172.49,19.482-3.337-28.246-5.275-56.907-5.275-86.042s1.938-57.796,5.275-86.042c-57.02,10.18-114.635,16.688-172.49,19.482,2.794-57.854,9.301-115.47,19.482-172.49-28.243,3.337-56.903,5.275-86.042,5.275s-57.796-1.938-86.042-5.275h0ZM2728.827,1678.197c10.18,57.02,16.688,114.635,19.482,172.49-57.854-2.794-115.47-9.302-172.49-19.482,3.337,28.246,5.275,56.907,5.275,86.042s-1.938,57.796-5.275,86.042c57.02-10.18,114.635-16.687,172.49-19.482-2.794,57.854-9.302,115.47-19.482,172.49,28.246-3.337,56.907-5.275,86.042-5.275s57.799,1.938,86.042,5.275c-10.18-57.02-16.687-114.635-19.482-172.49,57.854,2.794,115.47,9.302,172.49,19.482-3.337-28.246-5.275-56.907-5.275-86.042s1.938-57.796,5.275-86.042c-57.02,10.18-114.635,16.688-172.49,19.482,2.794-57.854,9.302-115.47,19.482-172.49-28.243,3.337-56.903,5.275-86.042,5.275s-57.796-1.938-86.042-5.275Z"/>
    </g>
  </g>
</svg>