<?xml version="1.0" encoding="UTF-8"?>
<svg xmlns="http://www.w3.org/2000/svg" viewBox="0 0 3600.1 2401.738">
  <defs>
    <style>
      .cls-1 {
        fill: #f9dd16;
      }

      .cls-1, .cls-2, .cls-3 {
        stroke-width: 0px;
      }

      .cls-1, .cls-3 {
        fill-rule: evenodd;
      }

      .cls-2 {
        fill: #e8112d;
      }

      .cls-3 {
        fill: #eee;
      }
    </style>
  </defs>
  <g id="background">
    <path id="gg" class="cls-3" d="M400,.1h2800c220,0,400,180,400,400v1600c0,220-180,400-400,400H400C180,2400.1,0,2220.1,0,2000.1V400.1C0,180.1,180,.1,400,.1Z"/>
  </g>
  <g id="country">
    <g id="gg-2" data-name="gg">
      <polygon id="Path-6" class="cls-2" points="2100.1 900 3600.1 900 3600.1 1500 2100.1 1500 2100.1 2400 1500.1 2400 1500.1 1500 .1 1500 .1 900 1500.1 900 1500.1 0 2100.1 0 2100.1 900"/>
      <path class="cls-1" d="M900.792,1397.989l99.736-99.736h698.153v698.153l-99.736,99.736h398.945l-99.736-99.736v-698.153h698.153l99.736,99.736v-398.945l-99.736,99.736h-698.153V400.628l99.736-99.736h-398.945l99.736,99.736v698.153h-698.153l-99.736-99.736v398.945Z"/>
    </g>
  </g>
</svg>