<?xml version="1.0" encoding="UTF-8"?>
<svg xmlns="http://www.w3.org/2000/svg" viewBox="0 0 3600.1 2401.738">
  <defs>
    <style>
      .cls-1, .cls-2, .cls-3, .cls-4, .cls-5, .cls-6, .cls-7, .cls-8, .cls-9, .cls-10 {
        fill-rule: evenodd;
      }

      .cls-1, .cls-2, .cls-3, .cls-5, .cls-6, .cls-11, .cls-8, .cls-12, .cls-13, .cls-9 {
        stroke: #000;
      }

      .cls-1, .cls-2, .cls-3, .cls-5, .cls-6, .cls-11, .cls-12, .cls-13, .cls-9 {
        stroke-miterlimit: 8;
      }

      .cls-1, .cls-2, .cls-5, .cls-9 {
        fill: #f8d80e;
      }

      .cls-1, .cls-3, .cls-6, .cls-11, .cls-8, .cls-12, .cls-13, .cls-9 {
        stroke-width: 9.35px;
      }

      .cls-1, .cls-5, .cls-11 {
        stroke-linecap: round;
      }

      .cls-2 {
        stroke-width: 9.575px;
      }

      .cls-3, .cls-6, .cls-8 {
        fill: #da000c;
      }

      .cls-3, .cls-12 {
        stroke-linecap: square;
      }

      .cls-4, .cls-7, .cls-10 {
        stroke-width: 0px;
      }

      .cls-5 {
        stroke-width: 7.181px;
      }

      .cls-11, .cls-12, .cls-13 {
        fill: none;
      }

      .cls-7 {
        fill: #da1c0b;
      }

      .cls-8 {
        stroke-linejoin: round;
      }

      .cls-10 {
        fill: #eee;
      }
    </style>
  </defs>
  <g id="background">
    <path id="gi" class="cls-10" d="M400,.1h2800c220,0,400,180,400,400v1600c0,220-180,400-400,400H400C180,2400.1,0,2220.1,0,2000.1V400.1C0,180.1,180,.1,400,.1Z"/>
  </g>
  <g id="country">
    <g id="gi-2" data-name="gi">
      <path class="cls-7" d="M0,1605.734v394.366C0,2200.428,149.25,2367.581,342.044,2395.875h2915.911c192.794-28.293,342.044-195.447,342.044-395.775v-394.366H0Z"/>
      <g>
        <path class="cls-4" d="M1242.254,1090.241h600v409.859h-600v-409.859Z"/>
        <path class="cls-3" d="M1554.93,1440.945h-366.621l-81.266,53.341v56.518h447.887M1401.803,1204.701c53.104,0,96.473,43.876,96.473,97.948v138.296h69.33v-523.944h-380.282v523.944h118.01v-138.296c0-51.959,42.621-97.948,96.469-97.948Z"/>
        <path class="cls-4" d="M1318.31,562.072h173.239v316.901h-173.239v-316.901Z"/>
        <path class="cls-3" d="M1491.549,831.239h-152.125v-53.675h-111.545v53.675h-75.668v-53.675h-45.169v97.432h384.507M1152.211,874.642h328.208v42.359h-328.208v-42.359ZM1280.282,447.987v329.577h57.186v-90.494c0-33.904,24.131-61.648,57.887-63.346,1.09-.055,2.134,0,3.237,0,35.282,0,63.862,28.348,63.862,63.346v90.494h54.448v-329.577h-236.62ZM1263.38,401.508v46.479h270.423v-46.479h-270.423ZM1225.352,317.001v84.507h329.577v-84.507h-50.772v42.976h-61.339v-42.976h-93.617v42.976h-61.339v-42.976h-62.51Z"/>
        <path class="cls-12" d="M1107.042,1495.875h447.887"/>
        <path class="cls-3" d="M1846.479,1470.523h-305.163l-92.02,44.117v65.742h397.183"/>
        <path class="cls-13" d="M1449.296,1512.776h405.634"/>
        <path class="cls-4" d="M2357.721,1090.241h-600v409.859h600v-409.859Z"/>
        <path class="cls-3" d="M2045.024,1440.945h366.621l81.266,53.341v56.518h-447.887M2196.313,1204.706c-52.513,0-95.4,43.872-95.4,97.944v138.296h-68.561v-523.944h376.056v523.944h-116.696v-138.296c0-51.959-42.148-97.944-95.4-97.944Z"/>
        <path class="cls-4" d="M2281.652,562.072h-173.239v316.901h173.239v-316.901Z"/>
        <path class="cls-3" d="M2108.404,831.239h152.125v-53.675h111.545v53.675h75.668v-53.675h45.169v97.432h-384.507M2447.742,874.642h-328.209v42.359h328.209v-42.359ZM2315.455,447.987v329.577h-56.168v-90.494c0-33.904-23.696-61.648-56.848-63.346-1.073-.055-2.1,0-3.182,0-34.648,0-62.721,28.352-62.721,63.346v90.494h-53.48v-329.577h232.399ZM2336.577,401.508v46.479h-274.648v-46.479h274.648ZM2370.385,317.001v84.507h-325.352v-84.507h50.121v42.972h60.549v-42.972h92.421v42.972h60.549v-42.972h61.711Z"/>
        <path class="cls-12" d="M2492.915,1495.875h-452.121"/>
        <path class="cls-3" d="M1753.508,1470.523h301.914l91.044,44.121v65.738h-392.958"/>
        <path class="cls-13" d="M2146.466,1512.776h-401.408"/>
        <path class="cls-5" d="M1959.778,1407.142c-24.52,8.265-46.682,22.166-68.996,35.113-28.64,17.134-56.413,35.806-82.259,57.059-9.093,6.072-17.823,12.731-24.841,21.27-9.473,8.21-19.073,19.225-17.265,32.865.482,6.021,8.07-7.065,13.065-7.699,8.704-5.062,19.251-6.693,29.024-4.407,11.747-12.524,26.882-20.92,39.955-31.868,27.756-20.979,57.613-38.996,87.989-55.77,10.606-5.506,21.258-11.092,32.565-14.987l-9.236-31.576Z"/>
        <path class="cls-11" d="M1842.254,1474.748v38.028M1863.38,1457.847v38.028M1884.507,1445.17v33.803M1909.859,1432.494v33.803"/>
        <path class="cls-5" d="M1637.945,1407.142l-11.184,30.837c52.158,19.555,101.823,45.418,148.821,75.038,15.925,10.711,32.662,21.097,45.178,35.806,2.755,7.547-4.842,13.859-12.38,11.577-6.896-2.316-13.69-4.948-20.97-.034-10.424,4.682-19.838,19.935-4.01,25.052,21.807,14.476,57.287,8.185,67.77-17.18,5.48-13.044,5.831-29.747-4.779-40.445-19.432-22.006-45.19-37.31-69.913-52.8-44.172-26.256-90.177-50.028-138.528-67.847l-.005-.004Z"/>
        <path class="cls-1" d="M1783.099,1478.973l-4.225,33.803M1808.451,1495.875l-8.451,29.577M1833.803,1517.001l-16.901,25.352M1842.254,1576.156l-21.127-12.676M1850.704,1550.804l-25.352,4.225M1816.901,1588.832l-4.225-21.127M1804.225,1563.48l-21.127,16.901"/>
        <path class="cls-11" d="M1694.366,1432.494v29.577M1753.521,1462.072v33.803M1723.944,1449.396v29.577"/>
        <path class="cls-9" d="M1609.859,2129.678v76.297h46.745v-38.299h63.587v38.299h50.231v-76.297h-160.563ZM1609.859,2234.775v76.593h160.563v-76.593h-50.231v38.294h-63.587v-38.294h-46.745ZM1770.423,1812.776h46.479v545.07h-46.479v-545.07Z"/>
        <path class="cls-9" d="M1770.423,1859.255h46.479v469.014h-46.479v-469.014Z"/>
        <path class="cls-2" d="M1795.775,1680.146l100.352,58.686-100.352,58.39-100.352-58.39,100.352-58.686ZM1661.48,1717.786h-26.269v42.093h26.269l134.294,78.249,134.294-78.249h26.269v-42.093h-26.269l-134.294-78.249-134.294,78.249Z"/>
        <path class="cls-2" d="M1793.337,1538.217c-23.484,3.211-41.032,25.859-39.748,48.63.085,35.408-.182,70.821.135,106.221,1.246,22.813,21.676,43.255,45.389,43.462,19.272,1.783,38.637-9.207,46.72-26.328l-16.69-9.769c-4.31,11.214-16.732,18.165-28.825,16.872-15.875.439-28.732-14.624-27.309-29.687.097-35.176-.186-70.361.14-105.532.875-14.349,14.907-26.096,29.599-24.63,6.08-1.703,14.442,6.414,18.203-.587,5.666-7.859-4.027-13.994-9.406-18.355-5.958-.794-12.182-.076-18.207-.296h0ZM1849.475,1575.218c-3.849,7.065-11.81,11.265-18.207,14.97v71.168l19.42,10.956c-.076-30.351.148-60.701-.114-91.048-.304-1.868-.076-4.72-1.099-6.046h0Z"/>
        <path class="cls-4" d="M1656.338,359.255h274.648v498.592h-274.648v-498.592Z"/>
        <path class="cls-6" d="M1639.437,359.255v418.31h86.679v-124.086c0-28.618,18.177-68.349,73.885-68.349s73.885,39.731,73.885,68.349v124.086h86.679v-418.31h-321.127ZM1786.618,406.19h26.763v143.151h-26.763v-143.151ZM1709.827,434.352h27.055v104.721h-27.055v-104.721ZM1863.118,434.352h27.055v104.721h-27.055v-104.721ZM1609.859,300.1v59.155h380.282v-59.155h-380.282ZM1571.831,232.494v67.606h456.338v-67.606h-57.338v37.242h-64.686v-37.242h-73.8v37.242h-64.69v-37.242h-73.8v37.242h-64.686v-37.242h-57.338ZM1487.324,917.001v42.254h625.352v-42.254h-625.352ZM1461.972,777.565v139.437h676.056v-139.437h-64.022v53.675h-85.166v-53.675h-114.245v53.675h-149.189v-53.675h-114.245v53.675h-85.166v-53.675h-64.022Z"/>
        <path class="cls-8" d="M1542.254,959.255v511.268h120.211v-191.396c0-90.152,59.869-132.592,135.422-132.592,72.621,0,135.422,42.439,135.422,132.592v191.396h120.211v-511.268h-511.268Z"/>
      </g>
    </g>
  </g>
</svg>