<?xml version="1.0" encoding="UTF-8"?>
<svg xmlns="http://www.w3.org/2000/svg" viewBox="0 0 3600.1 2401.738">
  <defs>
    <style>
      .cls-1 {
        fill: #002488;
      }

      .cls-1, .cls-2, .cls-3, .cls-4 {
        stroke-width: 0px;
      }

      .cls-2 {
        fill: #fcdd09;
      }

      .cls-3 {
        fill: #141414;
        fill-rule: evenodd;
      }

      .cls-4 {
        fill: green;
      }
    </style>
  </defs>
  <g id="background">
    <path id="gp" class="cls-3" d="M400,.1h2800c220,0,400,180,400,400v1600c0,220-180,400-400,400H400C180,2400.1,0,2220.1,0,2000.1V400.1C0,180.1,180,.1,400,.1Z"/>
  </g>
  <g id="country">
    <g id="gp-2" data-name="gp">
      <path class="cls-1" d="M3200,.1H400C180,.1,0,180.1,0,400.1v401h3600v-401C3600,180.1,3420,.1,3200,.1Z"/>
      <g>
        <path class="cls-4" d="M1000.284,1231.624c1.596-1.548,26.598,6.756,56.256,18.294,29.658,11.532,67.974,22.428,84.456,23.502,29.052,1.296,131.922,50.298,130.926,62.082-.192,11.01-155.73-36.552-210.252-64.254-65.442-32.616-66.984-34.212-61.386-39.624Z"/>
        <path class="cls-4" d="M1192.056,1254.268c12.522,30.606,56.94,51.528,116.556,56.682,40.344,2.862,21.84-14.532-34.542-35.082-26.484-8.466-57.33-24.444-70.428-33.948q-23.064-17.874-11.586,12.348h0ZM630.522,1025.26c32.22,47.832,68.886,82.32,139.998,130.158,52.224,35.598,97.776,63.408,99.996,61.182,4.446-5.562-255.552-246.96-273.33-253.638-6.66-2.226,7.782,25.584,33.336,62.298h0ZM1299.456,1279.96c24.126,11.262,54.924,20.136,70.458,20.658,18.36.618,13.488-3.9-20.778-17.244-26.82-10.482-58.896-28.104-73.134-39.03q-25.524-20.886-22.848-2.514c1.524,10.506,20.766,26.826,46.302,38.13h0ZM1149.396,1062.922c15.558,62.298,79.998,176.88,102.222,181.326,19.998,3.336,19.998,2.226,3.336-16.686-27.78-32.262-87.774-150.18-87.774-172.428,0-12.234-5.556-21.138-12.222-21.138-7.782,0-10.008,11.124-5.562,28.926ZM481.554,984.808c-.384,2.19,20.472,18.3,46.602,36.468,26.136,18.168,56.58,43.878,66.69,56.958,17.316,23.388,115.416,81.372,124.62,73.962,9.012-6.318-117.348-108.828-170.778-138.588-63.594-36.084-65.784-36.468-67.134-28.8ZM517.35,1070.392c0,2.226,23.334,14.46,52.224,27.81s63.33,33.372,75.552,44.496c21.108,20.022,127.776,60.072,135.552,51.174,7.776-7.788-134.442-86.772-192.216-106.794-68.892-24.474-71.112-24.474-71.112-16.686ZM1012.89,1109.644c42.222,77.868,85.554,129.042,103.332,123.48,8.886-3.336-11.112-35.598-54.444-87.882-38.886-45.612-72.222-85.656-75.552-88.992-3.33-3.342,8.892,21.132,26.664,53.394ZM1067.496,1079.29c0,12.234,43.332,96.78,68.886,132.378,14.442,20.022,31.11,31.146,49.998,31.146q27.78,0-14.442-47.832c-24.444-25.584-56.664-64.524-73.332-85.656-16.668-21.138-31.11-34.488-31.11-30.036h0ZM965.34,1115.206c0,16.686,81.222,127.932,93.804,127.932,5.718,0-8.01-26.7-32.028-58.962-53.766-73.416-61.776-81.204-61.776-68.97h0ZM888.612,1421.758c-73.332,28.926-88.884,38.934-88.884,54.51,0,6.672,7.776,5.562,19.998-4.452,10.002-10.014,46.668-23.364,79.998-31.146s73.332-21.138,88.884-28.926l27.78-14.46h-33.33c-17.778,1.11-61.116,12.234-94.446,24.474h0ZM680.388,1232.782c54.786,49.878,238.026,144.108,330.87,171.834,25.158,7.404,65.976,9.102,89.04,4.248l43.002-8.568-42.438-22.416c-68.454-35.43-180.87-110.478-221.22-146.682-43.962-39.618-42.534-25.932,2.19,28.794,17.472,22.044,69.126,60.048,114.414,83.796,45.666,24.792,77.568,47.496,72.348,49.398-13.572,4.944-138.9-66.582-234.222-133.656-103.584-73.53-107.856-75.528-69.306-28.014,18.9,22.71,53.838,53.778,79.188,68.214,24.684,15.864,41.586,29.832,36.366,31.734-10.44,3.804-75.378-31.722-160.164-86.058-23.64-16.248-55.83-36.48-69.786-45.6-15.384-9.774-1.614,5.328,29.718,32.976h0ZM688.458,1217.23l-44.442,14.46,33.33,5.562c17.778,4.452,41.112,2.226,52.224-3.336,10.002-5.562,30-10.014,44.442-11.124,24.444,0,24.444-1.11,3.336-10.014-27.78-12.234-34.446-12.234-88.89,4.452ZM743.22,1247.422c-18.888,14.46-17.778,15.576,23.334,8.898,24.444-3.336,60-10.014,77.778-14.46,28.89-7.788,26.664-8.898-23.334-10.014-33.336-1.11-64.446,5.562-77.778,15.576h0ZM467.19,1130.458c183.33,33.372,551.1,156.852,528.876,177.99-5.556,5.562-108.888-20.022-123.33-30.036-5.556-5.562-60-3.336-120,4.452-112.218,12.234-131.106,22.248-128.886,67.86q1.11,22.248,6.666,0c10.002-41.16,26.664-50.058,90-50.058,68.886,0,257.772,27.81,341.106,50.058,111.108,31.146,114.444,31.146,77.778,11.124-47.778-26.7-120-75.648-133.332-90.108-24.444-27.81-467.766-150.18-532.212-147.954-30,2.226-31.11,2.226-6.666,6.672h0ZM551.478,1189.738c-13.332,10.014-27.78,33.372-31.11,52.284q-6.666,32.262,11.112,11.124c46.668-58.962,49.998-61.182,107.778-62.298,46.668-1.11,53.334-3.336,31.11-10.014-46.674-14.46-93.336-11.124-118.89,8.904ZM1117.812,1258.384c8.886,15.576,95.556,58.962,102.222,52.284,3.336-3.336-6.666-12.234-19.998-20.022-14.442-7.788-33.33-20.022-41.112-28.926-17.778-16.68-51.108-20.022-41.112-3.336ZM1124.496,1364.08c8.886,15.576,95.556,58.962,102.222,52.284,3.336-3.336-6.666-12.234-19.998-20.022-14.442-7.788-33.33-20.022-41.112-28.926-17.778-16.686-51.108-20.028-41.112-3.336ZM1184.316,1312.924c-20.73,8.022-41.574,22.524-48.048,32.904-7.656,12.264-1.176,12.384,25.56-1.062,20.964-10.494,51.228-19.11,67.836-20.526q31.092-1.536,11.304-13.914c-11.31-7.074-35.334-6.366-56.652,2.598h0ZM1056.36,1392.76c-63.324,56.862-77.328,96.51-57.048,155.412l17.538,50.442-4.884-51.048c-7.548-70.062,11.316-101.934,87.978-157.284,36.036-25.758,64.674-49.11,63.984-51.228-3.768-11.64-75.366,23.346-107.568,53.706h0ZM664.332,938.008c34.446,65.634,174.438,216.924,252.216,274.77,21.108,15.576,58.89,31.146,82.218,34.488l43.332,6.672-32.22-35.598c-52.224-56.736-132.222-165.756-157.776-213.588-27.78-52.284-31.11-38.934-7.776,27.81,8.886,26.7,44.442,80.094,78.888,117.918,34.446,38.934,56.664,71.196,51.108,71.196-14.442,0-107.778-110.13-174.438-205.8-72.222-104.568-75.552-107.904-55.554-50.058,10.002,27.81,32.22,68.97,51.108,91.218,17.778,23.364,28.89,42.27,23.334,42.27-11.112,0-60-55.62-121.11-135.72-16.668-23.364-40.002-53.394-49.998-66.744-11.106-14.454-3.33,4.458,16.668,41.166ZM1022.73,1249.492c0,7.788,16.668,27.81,36.666,43.386,58.89,44.496,215.55,119.028,235.548,111.246,12.222-4.452-6.666-16.686-60-36.708-93.33-36.708-178.884-85.656-178.884-102.342,0-8.898,36.666-10.014,127.776-4.452,136.662,7.788,177.774-7.788,53.334-18.912-131.106-13.356-214.44-10.02-214.44,7.782h0ZM729.408,1368.52c-47.778,11.124-73.332,27.81-73.332,47.832,0,7.788,4.446,6.672,10.002-2.226,8.886-14.46,99.996-41.16,108.888-32.262,2.22,2.226-1.11,18.912-7.776,35.598s-8.886,33.372-5.556,36.708c3.336,4.452,8.886-4.452,12.222-16.686,13.332-47.832,54.444-62.298,153.33-53.394,49.998,4.452,105.552,10.014,123.33,11.124,18.888,1.11,44.442,7.788,57.774,15.576,28.89,15.576,141.108,16.686,131.106,1.11-3.336-5.562-24.444-13.35-47.778-16.686-22.224-3.336-68.886-14.46-103.332-23.364-68.886-17.79-288.882-20.016-358.878-3.33h0ZM1135.14,1496.932c-83.742-14.952-123.564-1.596-157.44,50.676l-28.902,44.892,37.17-35.28c50.496-49.092,87.192-53.832,177.96-27.42,42.456,12.57,78.468,20.79,79.71,18.942,6.84-10.152-64.776-45.096-108.498-51.81h0ZM1026.708,1465.936c-154.44,42.27-172.218,57.846-149.994,127.932,8.886,26.7,8.886,25.584,10.002-8.898,1.11-18.912,11.112-45.612,22.224-56.736,19.998-20.022,109.998-45.612,219.996-63.408,26.664-3.336,44.442-11.124,41.112-16.686-8.898-14.466-44.454-10.014-143.34,17.796h0ZM1157.97,1520.29c-77.778,34.488-103.332,67.86-102.222,130.152l1.11,53.4,11.112-50.058c14.442-68.97,42.222-93.444,132.222-122.37,42.222-13.35,76.662-26.7,76.662-28.926,0-12.234-78.888-1.11-118.884,17.802h0ZM1143.204,1615.798c-13.332,17.802-23.334,41.16-23.334,53.4,0,14.46,5.556,11.124,21.108-14.46,12.222-20.022,33.33-43.386,46.668-53.4q25.554-17.802,2.22-17.802c-13.326,0-33.33,13.35-46.662,32.262ZM2930.7,2124.988c-5.181,8.67-10.307,17.372-15.378,26.106-34.764-10.338-180.522-75.576-305.304-132.042-125.76-56.91-304.554-129.798-338.106-150.33-25.716-15.78-23.388-29.136,8.058-17.412,31.452,11.724,152.682,68.61,238.488,106.224,99.426,44.394,349.08,141.546,412.242,167.454h0ZM2293.068,1840.03c34.248,19.344,215.478,85.938,343.14,138.42,126.672,52.074,274.62,112.182,309.72,121.296,4.766-8.905,9.586-17.782,14.46-26.628-64.026-23.688-316.914-112.056-417.828-152.946-87.066-34.59-210.21-87.21-242.046-97.824s-33.702,2.814-7.446,17.682ZM2256.978,1877.908c-30.792-13.356-33.816-.138-8.958,16.968,32.436,22.26,207.174,104.418,329.784,167.838,121.656,62.928,263.808,135.714,297.984,147.858,3.738-5.754,9.15-13.938,16.722-25.266-61.722-29.184-305.952-139.284-402.924-188.826-83.718-42.054-201.81-105.216-232.608-118.572h0ZM2625.564,1813.924c-91.026-22.122-220.284-57.066-253.29-63.144-33.006-6.078-32.982,7.482-4.92,18.552,36.606,14.382,225.324,55.08,359.046,89.262,132.678,33.918,287.544,72.822,323.568,76.956,2.352-6.45,5.784-15.642,10.62-28.386-66.696-14.538-329.4-66.816-435.024-93.24h0ZM2568.876,1884.208c-88.758-29.976-214.482-76.074-246.828-85.008-32.352-8.934-33.51,4.578-6.516,18.048,35.214,17.526,219.672,74.532,349.908,120.252,129.222,45.366,280.11,97.638,315.636,104.898,4.294-9.144,8.644-18.263,13.05-27.354-65.172-20.292-322.332-95.292-425.25-130.836h0ZM2600.97,1850.674c-90.198-25.284-218.16-64.734-250.932-71.958-32.772-7.224-33.222,6.324-5.562,18.366,36.078,15.654,223.266,62.916,355.716,101.754,131.418,38.532,284.826,82.824,320.688,88.218,2.574-6.36,6.324-15.432,11.604-27.996-66.156-16.86-326.886-78.282-431.514-108.384h0Z"/>
      </g>
      <g>
        <path class="cls-2" d="M1860.378,2131.36l35.988,25.734c51.588,35.982,79.962,85.992,77.148,137.604l-1.908,42.624,16.932-41.934c18.528-43.884,15.972-110.34-5.904-159.558l-12.768-28.698,40.542,17.67c57.93,24.462,96.072,67.464,104.04,118.548l6.984,42.09,7.854-44.562c9.006-46.788-7.278-111.24-38.916-154.824l-18.45-25.428,43.326,8.844c61.74,11.868,107.976,45.996,126.384,94.308l15.576,39.72-1.578-45.228c-.906-47.64-30.228-107.298-70.212-143.346l-23.322-21.03,44.22-.36c62.856-1.242,115.176,22.512,143.208,65.946l23.472,35.592-10.926-43.902c-10.776-46.392-51.84-98.646-98.442-125.586l-27.186-15.72,43.182-9.546c61.224-14.316,117.33-1.956,153.768,34.68l30.354,29.934-19.806-40.668c-20.172-43.14-71.196-85.716-122.37-102.366l-29.856-9.696,40.254-18.336c56.91-26.742,114.354-26.334,157.608,1.908l35.916,22.974-27.816-35.664c-28.698-38.01-87.444-69.012-140.958-74.64l-31.206-3.276,35.568-26.322c50.112-37.992,106.386-49.578,154.56-30.936l39.9,14.982-34.614-29.082c-35.964-31.194-99.864-49.308-153.378-43.668l-31.206,3.276,29.316-33.144c41.13-47.598,93.774-70.626,144.762-62.418l42.138,6.342-39.9-21.234c-41.652-23.028-107.916-27.444-159.09-10.794l-29.856,9.702,21.792-38.514c30.348-55.122,77.058-88.608,128.634-91.212l42.54-2.556-43.44-12.468c-45.528-13.854-111.258-4.368-157.86,22.554l-27.186,15.714,13.326-42.216c18.24-60.234,56.97-102.702,106.884-115.98l41.082-11.358-45.078-3.15c-47.412-4.08-109.734,18.864-149.724,54.912l-23.322,21.03,4.266-44.064c5.328-62.73,34.398-112.326,80.466-135.714l37.824-19.65-44.748,6.294c-47.226,5.88-103.416,41.304-135.042,84.888l-18.45,25.428-4.974-43.992c-7.812-62.448,10.314-117.042,50.52-149.484l32.91-27.102-42.468,15.468c-44.97,15.582-92.568,61.932-114.462,111.15l-12.768,28.722-14.004-42c-20.616-59.46-14.208-116.628,18.378-156.732l26.568-33.354-38.328,23.964c-40.752,24.6-77.694,79.848-88.884,132.546l-6.522,30.75-22.422-38.154c-32.508-53.892-38.118-111.12-14.574-157.146l19.056-38.154-32.508,31.416c-34.752,32.556-59.418,94.296-59.418,148.164v31.422l-29.856-32.658c-42.978-45.918-60.348-100.758-46.878-150.672l10.704-41.298-25.272,37.518c-27.234,39.06-38.538,104.58-27.348,157.29l6.516,30.732-35.976-25.734c-51.588-35.982-79.956-85.992-77.148-137.622l1.896-42.624-16.932,41.958c-18.516,43.884-15.966,110.322,5.904,159.534l12.768,28.722-40.542-17.676c-57.93-24.456-96.072-67.464-104.04-118.542l-6.984-42.09-7.848,44.55c-9.006,46.776,7.272,111.246,38.916,154.83l18.444,25.416-43.32-8.856c-61.74-11.862-107.976-45.984-126.384-94.302l-15.576-39.714,1.578,45.222c.906,47.64,30.228,107.298,70.212,143.34l23.322,21.03-44.22.36c-62.856,1.248-115.176-22.512-143.208-65.928l-23.478-35.61,10.932,43.896c10.776,46.41,51.84,98.67,98.442,125.604l27.18,15.714-43.176,9.546c-61.224,14.304-117.33,1.962-153.768-34.674l-30.36-29.94,19.806,40.668c20.178,43.152,71.202,85.704,122.376,102.348l29.856,9.714-40.254,18.33c-56.916,26.748-114.36,26.334-157.614-1.914l-35.916-22.968,27.816,35.652c28.698,38.01,87.444,69.012,140.958,74.646l31.212,3.288-35.568,26.304c-50.118,38.01-106.392,49.566-154.566,30.936l-39.9-14.976,34.614,29.076c35.964,31.212,99.864,49.308,153.378,43.674l31.212-3.276-29.322,33.132c-41.13,47.61-93.774,70.626-144.762,62.436l-42.138-6.354,39.9,21.246c41.664,23.04,107.922,27.444,159.096,10.794l29.856-9.708-21.798,38.526c-30.348,55.116-77.058,88.608-128.634,91.194l-42.534,2.544,43.44,12.48c45.528,13.854,111.258,4.368,157.86-22.56l27.186-15.72-13.32,42.216c-18.24,60.246-56.97,102.72-106.884,115.992l-41.082,11.358,45.078,3.156c47.412,4.068,109.74-18.882,149.724-54.936l23.322-21.03-4.266,44.082c-5.328,62.706-34.398,112.32-80.466,135.69l-37.824,19.662,44.748-6.288c47.226-5.88,103.416-41.328,135.042-84.912l18.45-25.416,4.98,43.998c7.812,62.448-10.32,117.018-50.526,149.478l-32.916,27.102,42.468-15.468c44.97-15.576,92.58-61.944,114.468-111.156l12.762-28.704,14.004,41.976c20.616,59.478,14.208,116.628-18.378,156.744l-26.568,33.366,38.328-23.976c40.752-24.594,77.694-79.854,88.884-132.552l6.522-30.732,22.422,38.16c32.508,53.874,38.118,111.12,14.574,157.14l-19.056,38.16,32.508-31.434c34.752-32.538,59.418-94.278,59.418-148.152v-31.428l29.856,32.664c42.978,45.93,60.348,100.758,46.89,150.672l-10.722,41.298,25.272-37.518c27.234-39.072,38.538-104.58,27.354-157.284l-6.522-30.732"/>
        <path id="a" class="cls-2" d="M1749.612,89.77c-43.956,72.486-49.2,130.464-19.2,230.586,14.442,46.722,30.312,116.496,36.978,154.314,8.886,53.394,7.956,58.476,9.204,70.086,11.112,0,36.36.042,48.036-.03,1.68-18.486,3.036-39.822,6.978-69.168,4.596-34.212,18.228-105.762,32.886-155.466,29.298-99.312,27.336-160.248-18.222-229.218-16.668-25.584-38.886-46.722-48.888-46.722-9.99.006-32.616,19.542-47.772,45.618h0ZM1965.474,294.862c-62.22,26.7-99.642,100.608-120.084,202.464-3.774,19.128-4.698,25.878-6.588,47.436,13.47.054,18.762.144,31.89.066,2.874-14.502,4.944-22.158,11.28-42.738,25.11-79.608,99.066-111.558,95.73-37.02-1.11,20.58-9.786,32.07-19.44,43.104,11.934-2.982,37.29-14.826,57.84-26.508,114.438-68.976,69.372-237.978-50.628-186.804h0ZM1711.224,570.736c50.214.222,137.004.624,178.686.402.048-10.722.204-5.25.306-13.914-30.69-.258-148.2.168-178.758.168.078,5.604-.066,8.316-.234,13.344ZM1725.996,629.608c-18.102,19.536-46.38,34.14-46.38,34.14,0,0,25.014,2.814,48.342,1.11,23.328-1.704,36.27-4.62,50.058-11.322-3.744,27.834-3.96,54.708-3.96,54.708,3.396,35.82,7.23,44.982,14.988,62.418,10.524,14.544,16.644,14.622,24.384-.732,8.364-17.19,13.866-34.878,15.618-61.848-.606-20.214-1.734-29.478-6.516-54.192,16.14,6.996,26.334,8.808,50.418,10.974,24.642,2.22,47.292,1.134,47.292,1.134,0,0-33.288-16.722-47.934-37.236-14.46-20.25-11.376-16.806-21.894-42.888-12.78-.606-77.562-.012-98.118-.012-11.262,23.778-12.396,28.74-26.298,43.746h0ZM1634.526,294.82c62.22,26.7,99.642,100.608,120.084,202.464,3.774,19.128,4.698,25.878,6.588,47.436-13.47.054-18.762.144-31.89.066-2.874-14.502-4.944-22.158-11.28-42.738-25.11-79.608-99.066-111.558-95.73-37.02,1.11,20.58,9.786,32.07,19.44,43.104-11.934-2.982-37.29-14.826-57.84-26.508-114.438-68.97-69.372-237.972,50.628-186.804h0Z"/>
        <path id="a-2" data-name="a" class="cls-2" d="M639.612,89.77c-43.956,72.486-49.2,130.464-19.2,230.586,14.442,46.722,30.312,116.496,36.978,154.314,8.886,53.394,7.956,58.476,9.204,70.086,11.112,0,36.36.042,48.036-.03,1.68-18.486,3.036-39.822,6.978-69.168,4.596-34.212,18.228-105.762,32.886-155.466,29.298-99.312,27.336-160.248-18.222-229.218-16.668-25.584-38.886-46.722-48.888-46.722-9.99.006-32.616,19.542-47.772,45.618h0ZM855.474,294.862c-62.22,26.7-99.642,100.608-120.084,202.464-3.774,19.128-4.698,25.878-6.588,47.436,13.47.054,18.762.144,31.89.066,2.874-14.502,4.944-22.158,11.28-42.738,25.11-79.608,99.066-111.558,95.73-37.02-1.11,20.58-9.786,32.07-19.44,43.104,11.934-2.982,37.29-14.826,57.84-26.508,114.438-68.976,69.372-237.978-50.628-186.804h0ZM601.224,570.736c50.214.222,137.004.624,178.686.402.048-10.722.204-5.25.306-13.914-30.69-.258-148.2.168-178.758.168.078,5.604-.066,8.316-.234,13.344ZM615.996,629.608c-18.102,19.536-46.38,34.14-46.38,34.14,0,0,25.014,2.814,48.342,1.11,23.328-1.704,36.27-4.62,50.058-11.322-3.744,27.834-3.96,54.708-3.96,54.708,3.396,35.82,7.23,44.982,14.988,62.418,10.524,14.544,16.644,14.622,24.384-.732,8.364-17.19,13.866-34.878,15.618-61.848-.606-20.214-1.734-29.478-6.516-54.192,16.14,6.996,26.334,8.808,50.418,10.974,24.642,2.22,47.292,1.134,47.292,1.134,0,0-33.288-16.722-47.934-37.236-14.46-20.25-11.376-16.806-21.894-42.888-12.78-.606-77.562-.012-98.118-.012-11.262,23.778-12.396,28.74-26.298,43.746h0ZM524.526,294.82c62.22,26.7,99.642,100.608,120.084,202.464,3.774,19.128,4.698,25.878,6.588,47.436-13.47.054-18.762.144-31.89.066-2.874-14.502-4.944-22.158-11.28-42.738-25.11-79.608-99.066-111.558-95.73-37.02,1.11,20.58,9.786,32.07,19.44,43.104-11.934-2.982-37.29-14.826-57.84-26.508-114.438-68.97-69.372-237.972,50.628-186.804h0Z"/>
        <path id="a-3" data-name="a" class="cls-2" d="M2859.612,89.77c-43.956,72.486-49.2,130.464-19.2,230.586,14.442,46.722,30.312,116.496,36.978,154.314,8.886,53.394,7.956,58.476,9.204,70.086,11.112,0,36.36.042,48.036-.03,1.68-18.486,3.036-39.822,6.978-69.168,4.596-34.212,18.228-105.762,32.886-155.466,29.298-99.312,27.336-160.248-18.222-229.218-16.668-25.584-38.886-46.722-48.888-46.722-9.99.006-32.616,19.542-47.772,45.618h0ZM3075.474,294.862c-62.22,26.7-99.642,100.608-120.084,202.464-3.774,19.128-4.698,25.878-6.588,47.436,13.47.054,18.762.144,31.89.066,2.874-14.502,4.944-22.158,11.28-42.738,25.11-79.608,99.066-111.558,95.73-37.02-1.11,20.58-9.786,32.07-19.44,43.104,11.934-2.982,37.29-14.826,57.84-26.508,114.438-68.976,69.372-237.978-50.628-186.804h0ZM2821.224,570.736c50.214.222,137.004.624,178.686.402.048-10.722.204-5.25.306-13.914-30.69-.258-148.2.168-178.758.168.078,5.604-.066,8.316-.234,13.344ZM2835.996,629.608c-18.102,19.536-46.38,34.14-46.38,34.14,0,0,25.014,2.814,48.342,1.11,23.328-1.704,36.27-4.62,50.058-11.322-3.744,27.834-3.96,54.708-3.96,54.708,3.396,35.82,7.23,44.982,14.988,62.418,10.524,14.544,16.644,14.622,24.384-.732,8.364-17.19,13.866-34.878,15.618-61.848-.606-20.214-1.734-29.478-6.516-54.192,16.14,6.996,26.334,8.808,50.418,10.974,24.642,2.22,47.292,1.134,47.292,1.134,0,0-33.288-16.722-47.934-37.236-14.46-20.25-11.376-16.806-21.894-42.888-12.78-.606-77.562-.012-98.118-.012-11.262,23.778-12.396,28.74-26.298,43.746h0ZM2744.526,294.82c62.22,26.7,99.642,100.608,120.084,202.464,3.774,19.128,4.698,25.878,6.588,47.436-13.47.054-18.762.144-31.89.066-2.874-14.502-4.944-22.158-11.28-42.738-25.11-79.608-99.066-111.558-95.73-37.02,1.11,20.58,9.786,32.07,19.44,43.104-11.934-2.982-37.29-14.826-57.84-26.508-114.438-68.97-69.372-237.972,50.628-186.804h0Z"/>
      </g>
    </g>
  </g>
</svg>