<?xml version="1.0" encoding="UTF-8"?>
<svg xmlns="http://www.w3.org/2000/svg" viewBox="0 0 3600.1 2401.738">
  <defs>
    <style>
      .cls-1, .cls-2, .cls-3, .cls-4, .cls-5, .cls-6, .cls-7 {
        stroke-miterlimit: 1.333;
      }

      .cls-1, .cls-2, .cls-3, .cls-4, .cls-5, .cls-6, .cls-7, .cls-8 {
        stroke: #000;
      }

      .cls-1, .cls-4, .cls-8 {
        fill: #fff;
      }

      .cls-1, .cls-6 {
        stroke-width: 3.5px;
      }

      .cls-2 {
        fill: #009a3b;
      }

      .cls-2, .cls-3, .cls-5, .cls-7 {
        stroke-width: 1px;
      }

      .cls-9 {
        fill: #e32118;
      }

      .cls-9, .cls-10, .cls-11, .cls-12, .cls-13 {
        stroke-width: 0px;
      }

      .cls-3 {
        fill: none;
      }

      .cls-11 {
        fill: #eee;
      }

      .cls-12 {
        fill: #3e9a00;
      }

      .cls-12, .cls-13 {
        fill-rule: evenodd;
      }

      .cls-4 {
        stroke-width: 4.8px;
      }

      .cls-5 {
        fill: #a36629;
      }

      .cls-13 {
        fill: #0173ce;
      }

      .cls-6 {
        fill: gold;
      }

      .cls-7 {
        fill: #73452b;
      }

      .cls-8 {
        stroke-linejoin: round;
        stroke-width: 3.501px;
      }
    </style>
  </defs>
  <g id="background">
    <path id="gq" class="cls-12" d="M400,.1h2800c220,0,400,180,400,400v1600c0,220-180,400-400,400H400C180,2400.1,0,2220.1,0,2000.1V400.1C0,180.1,180,.1,400,.1Z"/>
  </g>
  <g id="country">
    <g id="gq-2" data-name="gq">
      <path class="cls-11" d="M3600,2000.1V800.1H0v1200C0,2220.1,180,2400.1,400,2400.1h2800c220,0,400-180,400-400Z"/>
      <path class="cls-9" d="M3600,2000.1v-400H0v400C0,2220.1,180,2400.1,400,2400.1h2800c220,0,400-180,400-400Z"/>
      <path id="l-st" class="cls-13" d="M0,2000.339V399.861c.069-118.044,51.271-224.129,132.657-297.302l967.343,1097.541L132.657,2297.641C51.271,2224.467.069,2118.383,0,2000.339Z"/>
      <g>
        <path class="cls-4" d="M1608,958.9h383v401.2c0,135-166.701,29.6-191.501,103-22.733-73.3-190.499,33-190.499-111,0-140-1-393.2-1-393.2Z"/>
        <path class="cls-7" d="M1827,1399.1s-5,5-14,1c-9-4-10-257-10-257,20-22,36-29,36-29l12,10c-45,23-41,56-37,113,1,21,1,48,6,74,7,33,21,61,22,82,1,13-15,6-15,6Z"/>
        <path class="cls-7" d="M1796,1108.1h18c-15,145-2,231-2,273,0,14,8,19,7,19-18,20-27-1-27-1l4-291Z"/>
        <path class="cls-5" d="M1768.427,1398.886c-17,8-19.427-7.786-18.427-9.786,37-75,53-240,19-258l2-16c13,4,25,21,25,21,5,185-.08,260.706-3.08,263.706-18,19-24.787-2.48-25.787-4.48"/>
        <path class="cls-3" d="M1767.214,1395.62c-3-16,25.786-56.52,23.786-99.52M1816,1331.1c9,25,13,47,11,68"/>
        <path class="cls-2" d="M1855,1040.1q6-7,17-7c2-15,27-15,29,4,20-4,24,8,16,20,19-5,36,0,31,22,34,9,21,33,6,38-2,15-16,20-35,14-24,17-38,11-49-6-27,4-29-2-41-17-21,9-25,9-43-2-1,14-6,10-15,9,1,18-6,26-22,20,12,25-19,36-34,15-14,1-15-3-22-8-6,20-28,17-32,6-28-4-25-19-2-20,2-16,16-13,25-11,1-10,7-8,12-6-3-7-1-11,8-13-13-17-5-23,8-29-7-16,5-15,14-16-1-17,4-20,22-22-2-6,1-11,11-11-6-17,2-20.9,20-18,3-24.7,56-13,52,21,15,2,20,5,24,17Z"/>
        <g>
          <path class="cls-3" d="M1748,1031.1c4,2,9,0,10,11,8-14,18-6,18,10M1831,1023.1c-4,6-19,6-17,22-5-7-15-9-19-2M1855,1040.1c0,4-1,16-5,22M1917,1057.1c1,1-14,0-21,5M1954,1117.1c-4-2-12-7-18,1,0-4,0-15-11-15M1919,1131.1c0-10-2-13-4-16M1886,1117.1c-8-6-16,3-16,8M1828,1108.1c0-4-3-12,4-15M1714,1150.1c2-10,9-10,8-15-1-8-10-15-21-4"/>
          <path class="cls-3" d="M1722,1135.1c6-2,12-1,14,2M1705,1098.1c4-4,14-3,20,0M1725,1074.1c5,0,14-2,17,7,11-17,19-15,21-11M1783,1068.1c8-3,22,5,30,19,4-11,10-9,16-10M1867,1087.1c13-6,21,6,25,11,6-8,11-8,17-8M1746,1111.1c3-5,10-6,15-3-1-9,5-13,9-11"/>
        </g>
        <path class="cls-6" d="M1785.534,902.7l-22,1-11,19.7-12-18.8-22,.9,10-19.8-12-18.8,23-1,10-19.7,12,18.8,22-.9-10,19.8,12,18.8ZM1691.534,910l-22,5.4-6,21.3-16-16-21,5.2,6-21.3-15-16.2,21-5.3,6-21.4,16,16,22-5.2-7,21.4,16,16.1ZM1600.534,928.7l-20,9.9-1,22.2-19-12.2-20,9.8,2-22.2-19-12.3,20-10,2-22.2,18,12.2,20-9.8-1,22.2,18,12.4ZM1814.534,902.7l22,1,10,19.7,12-18.8,22,.9-10-19.8,12-18.8-22-1-11-19.7-12,18.8-22-.9,10,19.8-11,18.8ZM1908.534,910l21,5.4,6,21.3,16-16,21,5.2-6-21.3,16-16.2-22-5.3-6-21.4-16,16-21-5.2,6,21.4-15,16.1ZM1998.534,928.7l20,9.9,1,22.2,19-12.2,20,9.8-1-22.2,18-12.3-20-10-1-22.2-19,12.2-20-9.8,2,22.2-19,12.4Z"/>
        <g>
          <path class="cls-1" d="M1867.428,1457.1l2,36s10,0,19-3c8-3,15-9,15-9l-1-19-35-5ZM1733.428,1457.1l-2,35s-9,0-18-2c-8-2-15-7-15-7l-10-24,45-2Z"/>
          <path class="cls-8" d="M1571.695,1352.1l-25.267,36-28-46,21-22,32.267,32Z"/>
          <path class="cls-1" d="M1697.428,1529.1c0,34,206,34,206,0v-48c0,25-206,20-206,0v48Z"/>
          <path class="cls-1" d="M1513.428,1418.1c18,92,184,94,184,94v-31c-4-12,3-16,30-20,11-1,6-17,6-17,0,0-72,13-123-7-69-28-79-82-79-82,0,0-5,42-18,63ZM2086.428,1418.1c-17,92-183,94-183,94v-31c3-12-4-16-31-20-11-1-5-17-5-17,0,0,72,13,123-7,68-28,76-82,76-82,0,0,7,42,20,63Z"/>
          <path class="cls-1" d="M1525.94,1383.1c-46-25-9.702-51-5.702-125,23.15,47.06,46.037,48.604,52.573,78.419.805,3.672,1.42,10.334-.585,14.581-21,1-30.988-31-40.988,4l-5.298,28Z"/>
          <path class="cls-8" d="M2027.254,1352.1l25.269,36,28-46-21-22-32.269,32Z"/>
          <path class="cls-1" d="M2073.052,1383.1c46-25,9.699-51,5.699-125-23.15,47.06-46.037,48.604-52.573,78.419-.804,3.672-1.42,10.334.585,14.581,21,1,30.988-31,40.988,4l5.301,28Z"/>
        </g>
        <path class="cls-10" d="M1554.428,1417.1l5,4-11,12c-4.403,4.803-5.468,7.98-2.41,10.905,3.796,3.63,6.465,2.368,10.41-1.905l12-13,4,4-11.99,13.989c-6.508,7.594-12.55,5.856-17.618,1.123-4.415-4.124-6.946-10.102-.453-17.454l12.1-13.6-.039-.058ZM1574.428,1434.1l5,3-1,24,11-17,5,3-16,26-6-3,1-24-11,17-5-3,17-26ZM1583.428,1476.1l14-28,5,3-13,27-6-2ZM1605.428,1452.1l-11.04,28.98,11.04,4.02c10.29,3.75,15.12-.78,18.39-9.48,3.3-8.85,1.86-15.36-8.43-19.5l-9.96-4.02ZM1609.388,1459.12c10.35,3.6,10.98,7.53,8.16,14.64-2.73,6.75-5.28,9.39-15.12,4.32l6.96-18.96ZM1638.428,1463.1l-18,27,6.96,2.04,4.02-7.02,12,3,1.02,7.02,6.96.96-6.96-31.98-6-1.02ZM1640.408,1470.12l1.98,12-7.98-1.02,6-10.98ZM1655.528,1465.7l-1.084,30.99,11.772.23c10.94.208,14.05-5.62,14.318-14.91.271-9.45-3.208-15.153-14.298-15.715l-10.708-.596h0ZM1661.53,1471.077c10.964.044,12.838,3.543,12.453,11.195-.365,7.273-1.955,10.588-12.884,8.969l.43-20.164h0ZM1760.428,1509.1v31.98h7.02v-12s6,.36,10.98-.96c3.93-1.02,6.66-3.54,6.75-9.75.09-6.09-3.45-9.27-9.57-9.27h-15.2.02ZM1767.448,1514.08l7.05.09c5.88,0,4.77,8.91.18,8.91h-7.23v-9ZM1796.428,1509.1l-13.02,31.98h7.02l3-7.98h13.02l3,7.98h6.96l-13-32h-7l.02.02ZM1799.428,1516.12l4.98,12h-9l4.02-12ZM1816.428,1535.1l17-21h-15v-5h24v5l-18,21h18v6h-26v-6ZM1917.428,1473.1l6-1,3,18c1.067,6.401-1.858,10.764-6.415,12.445-5.188,1.914-11.806.164-12.586-8.445l5-1c1.165,5.152,3.238,5.599,5.637,4.791,1.904-.64,2.888-3.64,2.363-6.79l-2.999-18.001ZM1927.428,1471.3l5.92-1.123,2.74,14.98c1.172,6.409,3.183,9.135,7.35,8.407,5.174-.903,5.742-3.8,4.641-9.51l-3.68-15.98,6.056-.915,4.02,16.623c2.35,9.722-2.729,13.578-9.546,14.851-5.94,1.11-12.253-.399-14.322-9.987l-3.179-17.346ZM1958.428,1485.1l5-2c2.453,4.405,6.28,4.178,9.255,2.863,4.133-1.827,4.605-5.44,2.562-6.663-2.915-1.743-9.869.733-13.615-.634-4.482-1.635-6.406-4.156-6.177-8.032.276-4.666,4.38-7.23,8.846-8.615,4.996-1.55,9.926-1.003,13.129,5.081l-6,2c-1.954-3.287-4.467-3.131-6.697-2.078-1.867.882-4.784,2.538-3.222,5.206,1.277,2.18,8.626.765,12.498.923,4.004.164,7.24,2.836,7.78,6.687.756,5.368-1.233,8.276-7.44,10.697-7.666,2.99-14.582-.36-15.919-5.435h0ZM1985.428,1460.1l-8,4-2-5,22-9,2,4-8,4,9,22-5,3-10-23ZM1998.428,1449.1l5-3,14,26-5,3-14-26ZM2032.428,1451.1l6-2c2.821,5.932-1.416,16.715-11.775,16.493-15.164-.325-16.805-17.027-14.421-22.536,4.005-9.252,15.224-9.075,20.196-3.957l-5,4c-3.17-4.067-10.212-1.504-10.688,2.237-.776,6.106,1.912,11.788,7.37,14.483,4.63,2.285,11.762-3.46,8.317-8.72h0ZM2029.428,1430.1l5-4,18,24-5,4-18-24ZM2048.428,1415.1l-4.98,4.02,10.98,30,4.98-4.98-3-6,9-8.04,6,3,5.04-3.96-28.02-14.04ZM2050.408,1422.12l10.02,4.98-6,6-4.02-10.98Z"/>
      </g>
    </g>
  </g>
</svg>