<?xml version="1.0" encoding="UTF-8"?>
<svg xmlns="http://www.w3.org/2000/svg" viewBox="0 0 3600.1 2401.738">
  <defs>
    <style>
      .cls-1, .cls-2 {
        fill: #0d5eb0;
      }

      .cls-1, .cls-2, .cls-3 {
        stroke-width: 0px;
      }

      .cls-2, .cls-3 {
        fill-rule: evenodd;
      }

      .cls-3 {
        fill: #eee;
      }
    </style>
  </defs>
  <g id="background">
    <path id="bg" class="cls-3" d="M400,.1h2800c220,0,400,180,400,400v1600c0,220-180,400-400,400H400C180,2400.1,0,2220.1,0,2000.1V400.1C0,180.1,180,.1,400,.1Z"/>
  </g>
  <g id="country">
    <g id="gr">
      <rect class="cls-1" x="0" y="800.1" width="533.333" height="533.333"/>
      <path class="cls-2" d="M22.99,2133.433c55.222,154.964,203.703,266.667,377.01,266.667h2800c173.307,0,321.788-111.703,377.01-266.667H22.99Z"/>
      <path class="cls-2" d="M533.333.1h-133.333C180,.1,0,180.1,0,400.1v133.333h533.333V.1Z"/>
      <rect class="cls-1" x="1333.333" y="533.434" width="2266.667" height="266.667"/>
      <rect class="cls-1" x="0" y="1600.1" width="3600" height="266.667"/>
      <path class="cls-2" d="M3577.01,266.767C3521.787,111.803,3373.307.1,3200,.1H800v533.333h533.333v-266.667h2243.676Z"/>
      <polygon class="cls-2" points="800 1333.433 3600 1333.433 3600 1066.767 1333.333 1066.767 1333.333 800.1 800 800.1 800 1333.433"/>
    </g>
  </g>
</svg>