<?xml version="1.0" encoding="UTF-8"?>
<svg xmlns="http://www.w3.org/2000/svg" xmlns:xlink="http://www.w3.org/1999/xlink" viewBox="0 0 3600.1 2401.738">
  <defs>
    <style>
      .cls-1, .cls-2, .cls-3, .cls-4, .cls-5, .cls-6, .cls-7, .cls-8, .cls-9, .cls-10, .cls-11, .cls-12, .cls-13, .cls-14, .cls-15, .cls-16, .cls-17, .cls-18, .cls-19, .cls-20, .cls-21, .cls-22, .cls-23, .cls-24, .cls-25, .cls-26, .cls-27, .cls-28 {
        stroke-width: 2.981px;
      }

      .cls-1, .cls-2, .cls-3, .cls-4, .cls-5, .cls-7, .cls-29, .cls-30, .cls-8, .cls-9, .cls-10, .cls-11, .cls-14, .cls-15, .cls-17, .cls-31, .cls-32, .cls-18, .cls-19, .cls-33, .cls-20, .cls-21, .cls-34, .cls-22, .cls-35, .cls-36, .cls-24, .cls-25, .cls-27, .cls-28 {
        stroke: #000;
      }

      .cls-1, .cls-29 {
        fill: #c01500;
      }

      .cls-37 {
        fill: #474747;
        stroke: #474747;
      }

      .cls-37, .cls-38, .cls-39, .cls-40, .cls-31, .cls-34, .cls-35, .cls-36, .cls-41, .cls-42, .cls-43, .cls-44 {
        stroke-width: 3.726px;
      }

      .cls-37, .cls-40, .cls-30, .cls-45, .cls-46, .cls-47, .cls-34, .cls-35, .cls-36, .cls-41, .cls-42, .cls-48, .cls-49, .cls-27 {
        stroke-linejoin: round;
      }

      .cls-38 {
        stroke: #fff;
      }

      .cls-38, .cls-39, .cls-50, .cls-9, .cls-51, .cls-52, .cls-13, .cls-31, .cls-23, .cls-43, .cls-44 {
        fill: none;
      }

      .cls-38, .cls-39, .cls-52, .cls-31, .cls-53, .cls-54, .cls-23, .cls-43, .cls-44, .cls-48, .cls-49 {
        stroke-linecap: round;
      }

      .cls-2, .cls-32 {
        fill: #1e5aa6;
      }

      .cls-3 {
        fill: #b4b6b9;
      }

      .cls-39, .cls-6, .cls-50, .cls-40, .cls-12, .cls-13, .cls-16, .cls-41 {
        stroke: #2b2b2b;
      }

      .cls-4 {
        fill: blue;
      }

      .cls-5 {
        fill: url(#_무제_그라디언트_8-2);
      }

      .cls-5, .cls-11, .cls-15, .cls-18, .cls-25 {
        stroke-miterlimit: 2.484;
      }

      .cls-6, .cls-41 {
        fill: #2b2b2b;
      }

      .cls-50 {
        stroke-width: 1.863px;
      }

      .cls-7 {
        fill: #6a4c2d;
      }

      .cls-40, .cls-12 {
        fill: #8a9396;
      }

      .cls-55, .cls-51, .cls-56, .cls-57, .cls-58, .cls-59, .cls-60, .cls-61, .cls-62, .cls-63 {
        stroke-width: 0px;
      }

      .cls-29, .cls-33 {
        stroke-width: 2.961px;
      }

      .cls-30 {
        stroke-width: 3.276px;
      }

      .cls-30, .cls-36 {
        fill: #cdad56;
      }

      .cls-8 {
        fill: #5e0043;
      }

      .cls-10 {
        fill: #fffeff;
      }

      .cls-11 {
        fill: url(#_무제_그라디언트_9-2);
      }

      .cls-45, .cls-52, .cls-46, .cls-47, .cls-53, .cls-54, .cls-49 {
        stroke: #006b00;
      }

      .cls-45, .cls-46 {
        stroke-width: 4.8px;
      }

      .cls-45, .cls-60, .cls-54, .cls-48, .cls-49 {
        fill: #ffc900;
      }

      .cls-52, .cls-47, .cls-53, .cls-48 {
        stroke-width: 6px;
      }

      .cls-46, .cls-47, .cls-53 {
        fill: #e80000;
      }

      .cls-14 {
        fill: #00713d;
      }

      .cls-15 {
        fill: url(#_무제_그라디언트_9);
      }

      .cls-16 {
        fill: #cecfcf;
      }

      .cls-56 {
        fill: #00247d;
      }

      .cls-56, .cls-62, .cls-63 {
        fill-rule: evenodd;
      }

      .cls-64 {
        stroke-width: 2.825px;
      }

      .cls-64, .cls-26 {
        fill: #cccccd;
        stroke: #ccc;
      }

      .cls-17 {
        fill: #923f00;
      }

      .cls-57 {
        fill: url(#_무제_그라디언트_10);
      }

      .cls-58, .cls-20 {
        fill: #006b00;
      }

      .cls-32 {
        stroke-width: 2.887px;
      }

      .cls-18 {
        fill: url(#_무제_그라디언트_8);
      }

      .cls-59, .cls-63 {
        fill: #eee;
      }

      .cls-19, .cls-34 {
        fill: #fff;
      }

      .cls-33, .cls-22 {
        fill: #fb0;
      }

      .cls-21, .cls-35, .cls-27 {
        fill: #ff7000;
      }

      .cls-61, .cls-62 {
        fill: #cf1b2b;
      }

      .cls-54, .cls-49 {
        stroke-width: 2.054px;
      }

      .cls-23 {
        stroke: #fff700;
      }

      .cls-42 {
        stroke: rgba(0, 0, 0, .979);
      }

      .cls-43 {
        stroke: #3ec26d;
      }

      .cls-44 {
        stroke: #8a9396;
      }

      .cls-48 {
        stroke: #ffc900;
      }

      .cls-24 {
        fill: #c75b00;
      }

      .cls-25 {
        fill: url(#_무제_그라디언트_8-3);
      }

      .cls-28 {
        fill: #656263;
      }
    </style>
    <linearGradient id="_무제_그라디언트_9" data-name="무제 그라디언트 9" x1="2282.288" y1="1428.605" x2="2289.969" y2="1644.701" gradientTransform="translate(558.805 1404.036) scale(.938 -.405)" gradientUnits="userSpaceOnUse">
      <stop offset="0" stop-color="#474747"/>
      <stop offset="1" stop-color="#f50"/>
    </linearGradient>
    <linearGradient id="_무제_그라디언트_10" data-name="무제 그라디언트 10" x1="2510.008" y1="812.884" x2="2510.536" y2="712.804" gradientTransform="translate(759.67 1560.888) scale(.765 -.496)" gradientUnits="userSpaceOnUse">
      <stop offset="0" stop-color="#b50000"/>
      <stop offset="1" stop-color="#ffc500"/>
    </linearGradient>
    <linearGradient id="_무제_그라디언트_8" data-name="무제 그라디언트 8" x1="5103.635" y1="1198.062" x2="5336.579" y2="1207.806" gradientTransform="translate(1244.501 2583.68) scale(.347 -1.093)" gradientUnits="userSpaceOnUse">
      <stop offset="0" stop-color="#d5dfff"/>
      <stop offset="1" stop-color="#fff"/>
    </linearGradient>
    <linearGradient id="_무제_그라디언트_9-2" data-name="무제 그라디언트 9" x1="3692.207" y1="1587.382" x2="3755.279" y2="1587.382" gradientTransform="translate(1113.405 2123.997) scale(.46 -.825)" xlink:href="#_무제_그라디언트_9"/>
    <linearGradient id="_무제_그라디언트_8-2" data-name="무제 그라디언트 8" x1="2102.204" y1="-2051.826" x2="1913.185" y2="-1875.666" gradientTransform="translate(-200.099 1119.194) scale(1.591 -.239)" xlink:href="#_무제_그라디언트_8"/>
    <linearGradient id="_무제_그라디언트_8-3" data-name="무제 그라디언트 8" x1="3493.737" y1="885.266" x2="3447.225" y2="979.346" gradientTransform="translate(1008.524 1891.975) scale(.55 -.69)" xlink:href="#_무제_그라디언트_8"/>
  </defs>
  <g id="background">
    <path id="gb" class="cls-56" d="M400,.1h2800c220,0,400,180,400,400v1600c0,220-180,400-400,400H400C180,2400.1,0,2220.1,0,2000.1V400.1C0,180.1,180,.1,400,.1Z"/>
  </g>
  <g id="country">
    <g id="gs">
      <path class="cls-7" d="M2652.807,1574.788s-9.984,26.352-15.677,26.352-26.352-11.39-26.352-11.39c0,0-14.962,24.235-22.8,25.632-7.843,1.435-28.498-3.542-28.498-3.542,0,0-19.944,0-20.659-2.861-.715-2.832.72-8.525.72-8.525,0,0-28.493,22.771-34.905,21.341-6.413-1.402-27.783-28.464-27.783-28.464l-3.562,14.246-40.598-1.43-35.616-22.8s-19.949,32.755-20.659,32.04-34.906,7.838-34.906,7.838l-2.136-6.408-22.795-13.536s17.808-24.917,17.808-25.632-8.544-3.576-8.544-3.576l-12.826,10.704-26.352,17.078-26.357-12.106,11.395-21.37,1.426-15.682,20.659-31.325,252.873-245.77,124.656,230.088-18.514,69.096h0Z"/>
      <path class="cls-19" d="M2832.461,1589.692l65.817-2.386-28.022-13.829,250.805-9.451-35.438-13.502-31.392-42.538-129.96-9.778s-9.778-7.421-25.666-3.725c-.658-10.104-12.816-23.28-12.816-23.28l-80.007-6.082-49.958,34.099,33.744,86.414,42.893,4.056h0Z"/>
      <path class="cls-15" d="M2576.351,852.599l6.617-22.535s11.595-19.554,11.595-28.198,8.644-18.868,8.644-18.868c0,0,26.499-7.631,32.133,8.615,28.526-43.102,62.001-1.997,62.001-1.997l9.27-10.94,18.898-23.191s26.857,25.188,27.185,29.48c.328,4.322,4.62,1.341,4.62,1.341l29.182-2.325s13.831,10.85,10.94,31.477c10.284,6.081,19.554,41.761,19.554,41.761,0,0-240.64-4.62-240.64-4.62Z"/>
      <path class="cls-28" d="M2832.49,1120.756c5.04-3.072,20.895-8.112,18.96-31.301-1.934-23.189-22.032-25.906-33.235-25.128-11.242.773-21.283,10.43-21.283,10.43l-37.114-23.578s18.576-117.144,38.275-124.478c18.72-13.502,22.032-19.344,22.032-22.416,0-3.101-6.95-10.848-6.95-10.848l-121.017-14.309-114.432,13.536s-8.885,13.531-7.723,18.955c1.162,5.395,1.55,11.208,22.032,27.062,22.68,17.438,38.271,117.533,38.271,117.533,0,0-32.074,15.83-34.013,13.891-1.934-1.906-11.592-3.84-16.632-3.072-5.007.778-21.638,9.274-21.638,31.301s16.632,34.814,16.632,34.814c0,0,109.392-12.754,125.64,17.376,15.859-36.336,119.827-23.573,132.197-29.774v.005Z"/>
      <path class="cls-42" d="M2950.354,998.985s1.219-12.725,10.282-18.778c9.091-6.048,69.634-9.091,84.178,0,14.515,9.091,19.968,53.894,19.968,53.894,0,0,9.096,15.739,9.691,27.245.595,11.506,1.819,19.373,1.819,19.373,0,0,48.437,62.986,49.032,119.89,5.458,38.75,4.234,142.272-10.877,181.618-.624,49.066-21.197,81.139-21.197,81.139,0,0,4.829,8.462,4.234,17.558-.624,9.091-5.453,17.554-5.453,17.554l70.824,35.117-26.026-9.691s26.65,22.416,26.026,21.821c-.6-.624-29.664-13.949-29.664-13.949l17.558,17.558c-.595-.6-42.979-19.378-42.979-19.378,0,0,19.968,18.778,18.778,18.182-1.224-.595-32.102-15.144-32.102-15.144,0,0,19.373,20.602,18.778,19.378s-27.84-12.101-27.84-12.101l1.19,10.282s-21.792-1.219-21.792-17.558c-10.905-6.048-18.149-14.544-18.149-14.544l-50.256-8.467-56.933-170.141,13.325-287.587,3.634-14.52-6.048-38.75h0Z"/>
      <path class="cls-33" d="M2912.318,1918.055s-29.155-61.315-43.671-62.179c-13.114-25.008,45.576-229.402,159.115-241.056,62.419,5.126,5.126,71.952-35.918,51.389,5.126,17.976,25.632,43.699,25.632,43.699,0,0-81.226,35.112-105.158,208.147h0Z"/>
      <path class="cls-22" d="M2521.474,1926.998s24.144-69.811,38.784-70.675c14.664-.864-38.784-232.651-155.102-234.379-62.904,5.184-5.17,72.374,36.192,51.686-5.17,18.125-25.848,43.968-25.848,43.968,0,0,81.859,35.323,105.974,209.4Z"/>
      <path class="cls-14" d="M2628.187,1490.999c-.298-.566-28.886,8.971-10.373,40.09,1.402-12.043,14.275-19.344,14.275-19.344,0,0-19.613,23.28,1.133,42.893,2.534-18.514,14.309-24.384,14.309-24.384,0,0-14.573,42.893.269,51.566,1.699-17.107,12.61-24.648,12.61-24.648,0,0-13.176,38.39-1.402,47.064,1.402-14.544,11.208-21.014,11.208-21.014,0,0-5.871,39.826,9.538,42.624.298-14.035,11.505-27.744,11.505-27.744,0,0-5.064,32.486,19.046,33.917.302-12.336,4.771-26.352,4.771-26.352,0,0,10.944,34.464,26.918,28.858-.269-10.08.269-29.155,0-29.155-.298,0,10.075,32.789,29.15,26.65-2.803-9.269,1.104-20.208,1.104-20.208,0,0,10.104,20.477,28.32,13.738,3.096-6.168-.84-18.211-.84-18.211,0,0,26.621,27.485,34.757,10.944s-21.312-22.152-21.312-22.152h19.91s-6.432-16.81-33.355-20.477c9.245-4.205,18.783-1.104,18.783-1.104,0,0-5.607-21.043-33.086-23.28,10.671-3.634,22.445-1.104,22.445-1.104,0,0-3.667-19.91-33.922-25.512,4.766-5.338,17.645-3.638,17.645-3.638,0,0-12.043-18.778-25.786-17.678-13.738,1.133-137.918-12.605-137.621-12.336h0Z"/>
      <path class="cls-43" d="M2750.669,1592.193s10.939,5.338,10.671,10.109M2757.134,1583.524s14.016,9.802,13.742,17.078M2769.446,1578.455s11.237,7.003,11.774,17.942M2788.224,1582.953s5.635,12.048,3.667,14.28M2799.466,1589.394c.83,9.538-.864,10.368-.864,10.368M2661.245,1529.121s13.176,8.405,12.072,20.179M2660.41,1539.225s6.168,5.875,4.771,9.806M2676.686,1529.418s8.674,12.048,5.871,20.448M2691.528,1537.257s3.936,7.574.298,11.774M2698.536,1540.9s4.766,7.565.562,10.099M2693.232,1565.846s12.307,2.803,14.007,12.043M2700.499,1557.441s12.912.83,14.309,14.573M2717.611,1552.67c.269,0,8.674,14.875,7.272,19.613M2734.152,1554.071s3.341,14.304.835,18.778M2744.793,1559.673c0,.298.269,16.546.269,16.546M2728.55,1537.257s8.112,3.072,7.541,10.944M2736.096,1529.956s10.368,5.904,9.264,17.112M2748.163,1525.218s8.976,10.642,5.607,22.416M2763.84,1527.719s-3.336,13.176-1.968,18.514M2773.383,1536.69s-5.875,4.502-2.803,10.109M2722.383,1587.988s1.934,10.109,0,11.779M2709.475,1582.118s6.432,11.208,4.2,16.814M2695.728,1581.556s7.305,8.4,7.008,15.139M2684.525,1583.222s6.734,6.47,6.168,10.104M2678.65,1593.028s6.442,6.739,6.144,8.141"/>
      <path class="cls-19" d="M2539.21,1132.852c30.912-.566,61.824-1.104,92.736-1.666,0,0,61.248,0,67.872,19.882,11.592-26.501,64.56-24.83,64.56-24.83l96.014-3.312c.566,77.266,1.104,154.526,1.671,231.792-18.754,89.928-83.88,153.418-155.63,180.456-85.55-27.6-139.617-99.888-157.267-182.126-3.336-73.392-6.648-146.808-9.955-220.195h0Z"/>
      <path class="cls-20" d="M2572.238,1131.988l135.058,359.904,122.006-367.742c-37.858,2.448-119.054-5.962-129.129,28.56-15.619-30.883-101.05-18.427-127.934-20.722Z"/>
      <path class="cls-54" d="M2664.163,1326.844c5.217,2.712,5.069-97.68,11.895-100.781,1.939-8.318,2.923-11.952,5.366-20.774-5.871-10.406-32.16-9.898-41.909-1.046,4.383,14.011,6.317,18.691,6.317,18.691,13.176,21.312,10.555,106.176,18.336,103.91h-.005Z"/>
      <path class="cls-36" d="M2627.976,550.905s9.571-10.843,9.984-13.44c.451-2.606,43.373-4.339,68.952-52.042,14.304-25.152,0-10.406,0-10.406l-.864-12.144s17.793-16.91,11.295-26.021c-6.528-9.106-4.354,11.712-14.755,11.28-10.402-.432-4.771-22.555-4.771-22.555,0,0-.864-2.602-3.902-3.902-4.354.432-3.038,8.242-6.946,9.106-3.902.869-7.363-18.211-7.363-18.211,0,0-6.499-8.674-12.163,18.648,3.043,29.054,21.701,23.414,21.701,42.499s-16.483,33.826-21.25,34.258c-4.771.432-3.043-16.046-3.043-16.046,0,0-2.592-7.805-4.32-7.805s9.538-1.733,7.81-23.419c-3.907-26.016-6.946,6.072-13.891,4.771-6.946-1.296-1.728-23.851.864-26.448s-3.038-13.45-18.211,14.304c-1.315,13.445-3.043-3.466-6.082-2.602-5.184,10.848-4.32,18.648,3.038,28.622,10.848,9.974,17.798,19.949,17.352,25.152-.417,5.208-6.082,16.915-13.862,16.915s.417-14.314,0-19.085c-.446-4.766-13.44-22.114-13.44-22.114,0,0-9.125-14.746-8.261-15.178s-.864-2.602-5.184,12.576c-4.354,15.178-9.571-9.974-9.571-9.974,0,0-6.048,18.643,6.946,29.923-9.955-1.301-10.819,2.602-10.819,2.602,0,5.203,13.44,7.373,15.168,16.478,1.728,9.106-13.886,14.309-13.886,14.309,0,0,6.528,9.106,24.71-8.669.446,11.27-6.912,19.08-6.912,19.08,6.048,2.746,10.814,2.453,11.678,9.538h0Z"/>
      <path class="cls-30" d="M2568.48,550.905s-8.107-12.034-8.462-14.4c-.389-2.366-39.888,2.99-58.57-45.182-12.154-22.891,0-9.47,0-9.47l.739-11.05s-12.936-15.826-7.411-24.11c5.525-8.285,3.25,10.656,10.354,10.69,8.832-.394,4.051-20.52,4.051-20.52,0,0,.734-2.366,3.312-3.552,3.677.398,5.193,12.269,8.505,13.056s10.162-13.968,12.307-17.002c3.043-.432,2.928-12.23,7.723,12.629-2.563,26.438-24.475,21.312-24.475,38.674s13.983,30.778,18.038,31.171c4.051.394,2.592-14.597,2.592-14.597,0,0,2.208-7.104,3.667-7.104,1.488,0-12.878,2.755-11.39-16.973,3.312-18.47,10.642,1.19,16.546,0,5.904-1.181-.686-19.531,1.013-22.334.384-2.798,9.062-14.832,12.432,11.722,1.104,12.235,7.776-10.526,10.344-9.739,4.44,9.864-1.939,23.04-8.198,32.117-9.216,9.072-13.387,19.018-12.998,23.755.36,4.733,2.534,10.618,9.183,10.618s2.237-8.256,2.592-12.59,11.419-18.394,11.419-18.394c2.174-3.466.355-9.946,2.65-12.941,3.61.038,5.098-4.968,8.765,8.842,3.696,13.81,8.112-9.077,8.112-9.077,0,0,5.15,16.968-5.904,27.23,8.462-1.186,9.207,2.366,9.207,2.366,0,4.733-4.022,6.706-5.51,14.99-1.488,8.285,4.411,13.022,4.411,13.022,0,0-5.52,8.29-20.986-7.891-.384,10.258,5.904,17.362,5.904,17.362-5.189,2.501-9.216,2.237-9.96,8.688v-.005Z"/>
      <path class="cls-60" d="M2806.766,1185.671c-8.078-7.33-9.034-.922-12.998-2.563-1.968-.802-3.485-2.621-5.184-4.291-1.459-1.522-3.216-2.146-5.155-2.952-.749,2.179-1.464,4.32-2.208,6.499s2.059,5.784,1.997,9.034c-.566,4.829-2.534,8.851-8.616,10.493,1.728-3.427,2.717-3.576,2.179-7.781-.24-2.088-6.11-5.813-5.395-7.776,1.071-3.192,2.918-6.864,1.55-10.051-2.477,1.699-5.755.806-8.227,1.848-2.117.926-2.237,4.829-5.16,6.442-2.976,1.402-9.566.715-15.082-2.414,3.37-2.534,6.144-.835,9.509-3.37,1.671-1.282,1.608-6.734,3.278-8.016,1.699-1.286,5.726-2.626,7.392-3.907-1.517-1.728-1.43-4.44-2.947-6.168-1.493-1.728-8.198-1.373-9.72-3.072-3.038-3.456-2.448-7.987-5.486-11.419,7.843,2.803,6.71,6.624,8.678,6.322,3.696-1.79,7.392-2.112,9.326-1.31,1.968.835,5.664,5.664,7.603,6.466.744-2.174,1.819-4.915,2.534-7.094.744-2.174-3.278-5.928-2.563-8.107,1.488-4.32,5.126-8.165,6.586-12.518.538,4.205,1.224,7.718,1.757,11.894.269,2.083,4.383,3.187,4.656,5.275.264,2.112-2.15,6.946-1.91,9.062,2.266-.446,5.515-.149,7.747-.595,2.266-.451,3.758-5.664,5.995-6.11,4.498-.898,7.747-.624,12.307.24-3.365,3.125-5.962,2.918-8.078,5.779-1.666,1.282.658,5.486-4.2,8.434-1.824,1.075-6.619-.206-8.318,1.075,1.522,1.728,3.043,3.427,4.56,5.155,1.488,1.728,8.29,2.534,9.807,4.262,3.014,3.427,4.622,7.541,3.787,11.237h0ZM2599.095,1189.218c8.078-7.33,9.034-.922,13.027-2.563,1.934-.83,3.456-2.65,5.155-4.291,1.459-1.522,3.216-2.146,5.155-2.976.749,2.174,1.488,4.349,2.208,6.528.744,2.174-2.026,5.75-1.968,9,.538,4.858,2.505,8.851,8.587,10.522-1.728-3.427-2.717-3.61-2.179-7.781.269-2.088,6.11-5.813,5.395-7.81-1.071-3.158-2.918-6.854-1.55-10.046,2.505,1.728,5.755.835,8.256,1.848,2.088.955,2.237,4.858,5.131,6.47,3.01,1.402,9.6.715,15.082-2.414-3.37-2.563-6.144-.835-9.509-3.398-1.671-1.253-1.584-6.739-3.278-7.992-1.671-1.282-5.693-2.65-7.392-3.936,1.517-1.694,1.43-4.44,2.947-6.168,1.522-1.699,8.227-1.344,9.72-3.072,3.038-3.422,2.472-7.954,5.486-11.414-7.843,2.803-6.677,6.619-8.645,6.35-3.729-1.79-7.426-2.146-9.36-1.31-1.939.802-5.664,5.63-7.603,6.466-.744-2.174-1.786-4.915-2.534-7.094-.749-2.179,3.312-5.928,2.563-8.107-1.459-4.349-5.126-8.165-6.586-12.518-.538,4.176-1.224,7.69-1.757,11.894-.269,2.083-4.383,3.187-4.656,5.275-.235,2.088,2.179,6.946,1.91,9.034-2.266-.451-5.515-.149-7.747-.566-2.237-.48-3.729-5.698-5.995-6.144-4.498-.893-7.718-.624-12.307.24,3.365,3.158,5.962,2.923,8.078,5.813,1.666,1.282-.658,5.486,4.2,8.434,1.824,1.075,6.648-.206,8.318,1.075-1.522,1.699-3.043,3.427-4.531,5.155-1.522,1.728-8.318,2.534-9.807,4.234-3.043,3.456-4.651,7.57-3.816,11.266h0Z"/>
      <path class="cls-49" d="M2799.523,1208.865c-7.334,5.693-54.576,17.645-55.085,58.69-.48,41.05,8.285,50.405-.48,51.451-17.05,0-19.488-45.725-19.013-66,.504-20.266.979-17.136.979-17.136,0,0,11.688,3.101,10.733,12.998-.984,9.864,11.683-24.446,7.305-33.773,7.776,7.776,18.034,4.68,18.034,4.142,0-.509-5.846-6.739-8.29-11.414-2.443-4.675,8.765,2.592,8.765,2.592,0,0,.48-7.81-9.269-7.272-12.672,0,1.968-4.176,1.968-4.176,0,0,7.301,6.768,12.192-.504-5.366-5.726-13.176-8.856-13.176-8.856,0,0-6.83-12.965-16.071-15.557-10.728-2.626-9.264,4.646-21.456,3.634-2.419,4.651-2.419,5.184,2.438,6.739-8.285,5.722-3.902,17.136-3.902,17.136,0,0,13.176-5.693,12.672,3.638-.48,9.36-7.786,7.81-12.672,2.088-4.383-2.592-5.842,2.592-5.842,2.592l6.826,7.272s-13.147-.504-16.574,8.318c7.305-.509,11.208,1.579,11.208,1.579,0,0-15.11,6.734-16.574,10.373s-1.934-4.142-2.414-4.142c-.504,0-14.635-5.218-14.635-5.218l-4.886,22.474s9.778,9.749,15.11,6.624c5.366-3.106,15.115-12.466,20.957-9.869-17.05,12.994-34.099,31.68-43.373,34.306-2.414-2.083-10.704-10.402-14.126-6.259-3.398,4.176-.955,9.36,3.427,8.856,4.383-.538-14.131,4.142-10.253,11.952,3.902,7.776,3.427,7.272,6.826,5.184,3.427-2.083-2.923-2.592,9.744-6.23,12.667-3.638,12.192-7.272,12.192-7.272,0,0-2.443,5.693-9.269,7.272-6.826,1.55-12.163,1.55-10.704,3.638,1.464,2.059,4.383,5.693,3.403,7.776-.979,2.083,14.126-10.906,18.034-.504,10.224-.538,17.05-12.994,12.192-20.27.475,7.781,5.362,10.406,2.41,14.04-2.918,3.638,22.925-11.952,10.258-21.312,3.398,7.781,3.902,14.04,3.902,14.04,0,0,5.842-.538,7.305-2.621,1.459-2.059-2.923,5.722-.984,7.272,1.934,1.579,11.208,10.402,7.301,16.632-2.414-3.638-2.918-9.36-5.842-8.822-2.923.504-15.11,9.36-22.416,9.864s8.765,27.038,8.765,27.038c0,0-11.208-1.584-12.672-.538s-8.76-9.36-10.224-3.101c-2.443,7.781,2.448,4.651,2.448,4.651,0,0-6.35-3.101-9.744.538-3.432,3.634-6.83,7.272-4.387,8.822,2.414,1.55,13.147,1.55,14.607,1.042s-12.192,1.046-13.142,2.592c-.984,1.555-2.923,7.277,0,9.36,2.923,2.083,10.224-1.042,10.699-2.592.504-1.579.984,5.693.984,5.693,0,0,12.672,1.046,12.672-11.923s.979,9.331.979,9.331c0,0,12.672,2.088,13.147-10.91.504-12.965,1.459,8.856,1.459,8.856,0,0,8.285-2.626,8.285-4.68,0-2.088-.475,25.963-6.317,33.773-9.274-6.264-15.115,4.142-15.115,4.142,0,0,.48,15.053-.504,18.686-.955,3.638,6.346-2.054,6.826-3.634.504-1.55,9.269-5.693,9.744-6.739.509-1.042,2.928-6.23,2.928-6.23,0,0-1.944,7.277-5.338,8.318-3.432,1.013-6.83,4.651-5.366,7.776,1.464,3.125,6.826,5.189,8.76,8.318,1.939,3.101,8.765-18.182,8.765-18.182l.509,4.68s8.76-2.083,9.744-6.23c.96-4.171-9.264-7.81-.984-14.544,8.29-6.768,0,6.23,0,6.23,0,0,2.928,9.864,4.862,9.864,1.968,0,6.826-18.72,1.968-23.366-4.891-4.68,7.301,5.693,7.301,5.693,0,0,6.826-19.229-.48-21.821-7.329-2.592-10.728-3.638-10.728-3.638,0,0,3.907-5.184,1.939-5.693-1.939-.533,10.253,11.419,12.192,8.29,1.968-3.101,4.886-12.461-9.24-17.65-14.16-5.184-.509-19.762-.509-19.762,0,0,8.793,10.402,15.11,4.68,6.322-5.693-.475-5.693-.475-5.693,0,0,18-11.448,18.509-17.17-3.427-.504-9.264.538-9.264.538,0,0,10.248-6.768,7.805-17.678-3.902,5.726-9.269,5.726-9.269,5.726,0,0,8.793-8.822,7.301-17.141-5.333,4.142-4.858,7.272-8.285,6.23-3.398-1.046-9.24-33.773,4.411-35.856,13.622-2.064,6.322,16.123,6.797,16.123.504,0,20.477-8.318,0-21.821,4.886-1.584,15.11,7.776,15.11,7.776,0,0-4.383-22.858-26.318-8.818,5.366-5.726,8.793-9.36,13.176-8.318,4.383,1.042,19.968-.538,19.968-5.184-3.874-3.13-12.158,1.55-16.57,0-4.383-1.584,31.21-4.176,28.286-21.821h0Z"/>
      <path class="cls-52" d="M2645.036,1222.344s19.498-10.911,29.239,2.613M2682.074,1245.728c-.493,0-6.828,6.754-8.293,6.754M2695.237,1267.55s18.018,1.561,29.717-17.665"/>
      <path class="cls-52" d="M2714.719,1261.831s1.464,10.402,4.393,10.402c2.913,0-4.871,2.596-7.799.509,3.406,4.683,5.364,12.998,0,16.104"/>
      <path class="cls-53" d="M2705.456,1392.764s-6.335,7.263-14.134,7.789"/>
      <path class="cls-52" d="M2712.778,1359.505s-3.9-20.77-1.464-25.979c1.464-6.754,7.799-9.35,12.67-18.174"/>
      <path class="cls-52" d="M2710.82,1344.436s-4.871,12.472-26.31,8.315M2716.677,1313.264s1.448,16.63-18.034,10.402M2692.786,1238.465s-7.799,7.263-4.871,17.139"/>
      <path class="cls-58" d="M2722.017,1220.274s10.234-4.157,12.192-6.24c1.939-2.074,5.362-6.23,6.336-9.355.97-3.106-6.83-7.79-2.928-14.544,2.434-3.115,5.837-3.634,11.698,0,5.837,3.634-5.366-11.424-11.208-11.942-5.856-.523-9.758,4.152-11.203,3.115-1.464-1.042.48,4.157-1.958,4.157s4.867,4.157,4.392,6.758c-.495,2.597,7.786,11.424,7.305,13.507-.495,2.074-12.192,14.016-14.626,14.544h0Z"/>
      <path class="cls-48" d="M2729.347,1185.983c4.441-1.079,5.157.119,4.377,4.156-2.085-1.12-2.849-2.065-4.377-4.156Z"/>
      <path class="cls-47" d="M2698.214,1417.454s-1.639,10.877,2.372,11.776c-.207-4.208.859-7.076,1.846-8.196-.859-.424-4.027-3.513-4.218-3.58h0ZM2689.173,1404.065c-3.693-.56-9.916,2.698-8.133,6.635,3.008-2.749,5.778.221,7.879-2.579.637-.781.462-3.071.255-4.056h0ZM2689.141,1396.293s-5.81-.984-6.621,3.309c4.011-.543,5.205-1.001,6.542-.102.382-.916.016-2.987.08-3.207h0Z"/>
      <path class="cls-46" d="M2664.518,1335.018s3.486,1.391,4.473,5.192c2.77-1.833,4.091-9.893-4.473-5.192ZM2655.891,1344.266c.143-.068,7.306-4.7,8.038-.272-1.512,1.612-2.181,2.664-3.358,3.02-.923,0-2.77-3.02-4.68-2.749ZM2655.175,1359.284c.127-.068,4.6-4.276,6.319-1.476,1.703,2.817-1.385,2.664-1.385,2.664,0,0-1.576-.764-4.934-1.188ZM2648.856,1275.661c-.064,0-5.73-2.325-8.102,1.884,3.756.492,5.077,1.901,6.781,3.309-.462-1.765-1.242-4.429,1.321-5.192ZM2637.873,1307.155s.255-7.076,3.406-9.961c1.783,1.052,2.308,2.732,3.502,4.836-2.372.56-5.539.713-6.908,5.125h0ZM2652.994,1302.099s-6.239,3.088-4.202,6.465c2.037-2.325,4.282-1.612,4.282-1.68s0-4.7-.08-4.785Z"/>
      <path class="cls-45" d="M2643.985,1234.325c-2.244,2.681,2.77,8.501,8.022,7.653,1.321-6.312-6.701-9.604-8.022-7.653Z"/>
      <path class="cls-51" d="M2643.912,1222.122c-1.099,2.971,3.264,7.147,5.793,5.976,1.022-3.058-4.646-8.333-5.793-5.976Z"/>
      <path class="cls-46" d="M2649.779,1229.488s.987,4.989,5.523,3.648c-.716-3.852-3.884-6.737-3.884-6.737-.191,1.137.653,2.885-1.639,3.088ZM2652.803,1243.946s2.499,2.868,7.433-3.02c-2.228.696-6.176-1.408-6.176-1.408,0,0,0,4.073-1.257,4.429Z"/>
      <path class="cls-45" d="M2643.699,1222.887c-2.228,2.664.939,6.38,6.192,5.549,1.321-6.312-4.871-7.5-6.192-5.549Z"/>
      <path class="cls-57" d="M2645.803,1197.955s20.985-5.991,32.133,3.011c11.118,8.972,11.118.835,11.118.835,0,0,16.275,5.991,20.985,4.71s-3.428.447,2.981-3.428c6.439-3.845-12.847.864-14.546-7.273-3.011-5.127.417-11.566-6.409-9.419-4.71-5.991,2.981-10.254,1.282-16.692-4.71,3.428-7.303-1.282-11.148,7.273-8.972-1.699-1.282-14.129-11.118-15.411,0,9.002-7.273,9.419-7.72,14.576-4.263,2.981-23.101,14.129-17.557,21.819Z"/>
      <path class="cls-1" d="M2404.368,1880.438c13.613-3.278,87.36,16.306,115.795,46.771-6.048-54.283-21.082-95.866-21.082-95.866,0,0-43.944-12.547-49.978-6.494-8.846,9.298-35.424,37.229-44.736,55.589h0ZM2381.89,1629.695c-5.17.864-10.339,4.32-15.509,12.936-6.034,14.635-10.339,51.686-18.96,60.302s-16.368,9.475-16.368,17.256.864,25.843,24.125,32.731c23.266.864,60.322-37.056,60.322-37.056,0,0,18.96-20.683,26.707-43.07-44.803,15.504-76.69-25.872-60.317-43.104v.005Z"/>
      <path class="cls-29" d="M3029.938,1871.793c-13.502-3.25-88.08,16.219-116.309,46.502,5.99-53.952,20.928-95.328,20.928-95.328,5.213-1.402,43.128-12.456,49.118-6.437,8.765,9.24,37.022,37.022,46.262,55.262h0ZM3050.832,1622.51c5.131.864,6.946,7.603,11.15,16.186,5.962,14.544,12.134,35.77,20.688,44.323,8.554,8.587,16.243,21.254,16.243,28.973s-1.786,18.125-24.888,24.979c-23.074.864-56.544-28.79-56.544-28.79,0,0-18.811-20.544-26.501-42.835,44.472,15.442,73.267-24.264,59.856-42.835h-.004Z"/>
      <path class="cls-22" d="M2356.042,1833.076s46.526,31.862,47.395,46.526c124.954-185.285,443.779-243.024,625.579-12.936,24.144-31.896,49.123-42.206,49.123-42.206-191.28-249.912-572.165-218.88-722.098,8.611v.005Z"/>
      <g>
        <path class="cls-2" d="M2830.08,1124.212l18.211-.451-32.525,41.198,39.024,45.542-76.757,96.701,72.432,87.158c-7.958,19.522-17.198,37.286-29.51,53.357l-41.616-45.994,75.446-94.08-61.997-70.253,37.286-113.184.005.005ZM2569.882,1132.434l-19.522.451,36.422,39.432-38.573,48.144,80.217,87.187-66.355,88.886c7.958,19.526,19.378,41.194,31.656,57.23l39.466-49.872-81.077-90.192,59.41-75.446-41.645-105.821h0Z"/>
        <path class="cls-2" d="M2660.083,1366.612l-28.617,38.15,102.331,118.397c18.062-9.12,32.256-19.522,47.722-32.074l-53.357-61.584,21.701-63.758,31.21,35.981-97.56,124.478c-16.334-6.946-34.402-17.798-50.736-31.243l51.6-65.458-24.293-62.894v.005ZM2628.427,1307.202l18.658,23.424-12.163-31.651-6.495,8.227h0Z"/>
        <path class="cls-32" d="M2761.997,1327.919c.384-.451,15.053-19.973,15.053-19.973l-5.693-7.776-9.36,27.744v.005Z"/>
      </g>
      <g>
        <path class="cls-23" d="M2977.627,1002.177s18-15.408,30.816-15.859"/>
        <path class="cls-23" d="M2980.219,1000.031c.417-.418,107.458-15.408,110.856-18.84M2980.637,1000.895c.417-.446,119.856-10.286,119.856-10.286M2980.219,1001.313s127.133-5.995,134.851.446"/>
        <path class="cls-23" d="M2979.773,1000.895s124.598.864,126.744,3.84M2980.219,1000.895l119.856,9.835M2978.938,1001.759c.417,0,122.007,10.704,133.987,26.112"/>
        <path class="cls-23" d="M3119.333,1049.687c-.417-.413-41.52-49.238-140.842-48.374"/>
        <path class="cls-23" d="M2978.938,1002.177s68.914,4.704,90.734,28.675"/>
        <path class="cls-23" d="M2980.219,1001.313s44.505-8.558,91.181,47.544"/>
      </g>
      <path class="cls-18" d="M2952.17,1052.253s61.762,2.444,61.762,8.495-46.024,17.557-46.62,42.983c-.596,25.426,35.114,27.245,37.528,59.318,2.414,32.103-27.841,36.932-33.892,45.427-6.081,4.233-20.597,49.63-18.779,76.279,1.818,26.648,9.688,116.847,23.608,135.03,10.91,8.465,27.245,35.71,44.801,27.245,17.557-8.495,5.455-39.347,3.637-47.842-1.818-8.465,7.273-22.386,7.273-35.114s-6.677-23.012-6.051-26.022c.596-3.04,49.034,11.506,45.994,59.318-3.011,47.842-22.386,33.296-22.386,33.296,0,0,6.051,58.752-9.091,66.621-27.245,14.516-47.216-3.04-47.216-3.04l2.563,11.953-20.717-10.731s-26.648-38.154-32.699-55.115c-6.051-16.931-13.324-92.613-10.91-108.978,2.414-16.335,4.233-112.018,3.04-116.847-1.222-4.859-6.051-84.774-3.04-96.876,3.04-12.102,21.79-65.399,21.193-65.399Z"/>
      <path class="cls-21" d="M2885.578,1036.516s42.984-41.76,67.814-36.936c12.696,0,.595,9.096.595,9.096,0,0,21.792,1.814,24.83,11.506.595,4.229-10.315,5.453-10.315,5.453,0,0,9.096,1.819,9.691,9.686.624,7.872-92.016,1.79-92.616,1.195Z"/>
      <path class="cls-9" d="M2887.992,1034.692s46.027-6.048,65.4-25.421"/>
      <path class="cls-9" d="M2934.614,1021.996s33.888-1.219,33.888,3.638"/>
      <path class="cls-34" d="M3055.099,1517.26s29.059-6.677,36.931-16.963c4.858-3.638,30.288,38.155-36.931,16.963Z"/>
      <path class="cls-38" d="M3047.232,1276.886s3.634,22.416-6.653,37.526c-5.453,6.053-21.816,16.368-21.816,23.64s6.048,16.93,4.858,25.426c-1.224,8.467-10.286,16.963-9.686,24.206,0,7.272,10.282,46.022,9.058,46.618M2993.962,1204.242s-23.011,7.872-27.874,30.883"/>
      <path class="cls-24" d="M2984.242,1021.996s7.901,21.792,33.326,1.195c-16.368-22.387-33.326-.595-33.326-1.195Z"/>
      <path class="cls-55" d="M3003.034,1021.079c0,1.171-1.219,2.122-2.726,2.122s-2.722-.95-2.722-2.122,1.219-2.117,2.722-2.117,2.726.95,2.726,2.117Z"/>
      <path class="cls-19" d="M2776.334,971.414s48.226,52.195,79.44,51.629c5.664,15.322-14.193,29.568-22.123,36.365-15.888-5.098-30.254.922-67.123-44.448,2.295-28.944,10.368-42.413,9.807-43.546ZM2841.581,850.007c6.23-19.286,18.72-34.608,29.482-36.307-2.832-14.755,22.714-79.978,97.027-104.957,4.526,33.475-31.776,66.384-31.776,66.384,0,0,109.483-18.72,131.602-46.531-2.266,12.49-24.384,90.202-141.264,89.635,44.266,42-14.16,75.475-39.134,65.251,45.965-35.174-13.027-56.16-45.936-33.475Z"/>
      <path class="cls-26" d="M2879.021,822.791c22.118-14.189,30.048-14.189,48.23-11.357-13.056,1.699-13.056,2.266-13.056,2.266,0,0-1.133,1.699,6.797,9.091-9.062-2.294-17.021-7.392-41.971,0Z"/>
      <path class="cls-9" d="M2870.496,813.7s43.699-23.251,68.083-39.139"/>
      <path class="cls-4" d="M2833.056,1059.35s60.154,16.45,66.95-69.782c-13.056-37.44-31.21-118.008-3.398-141.264-25.546-17.582-53.328.571-53.328.571-1.699,3.965-24.413,36.302,6.23,93.029-72.61-19.286-43.104,49.363-43.104,49.363,2.832-10.79,41.405-20.986,51.062,34.042,3.965,13.622-26.112,34.608-24.413,34.042Z"/>
      <path class="cls-4" d="M2900.573,990.134s63.552-34.042,61.824-114.014c-53.895,1.133-73.181,70.882-73.181,70.882l11.357,43.133h0Z"/>
      <path class="cls-19" d="M2615.789,986.169s-47.069,40.838-73.747,27.782c-19.853,11.923-43.104-9.062-43.104-9.062,0,0,27.216,100.392,124.81,27.782-1.699-22.118-6.826-44.803-7.958-46.502h0Z"/>
      <path class="cls-4" d="M2541.475,1012.252c3.965-20.986,20.419-31.21,33.475-11.357,17.587,3.427,35.174-68.621-27.245-56.726,17.587-94.162-35.16-129.336-35.16-129.336,0,0-18.72,104.386-10.21,123.672,8.51,19.286-12.48-35.741-79.987-51.062-1.138,78.874,75.451,115.747,75.451,115.747,0,0,21.557,19.853,43.675,9.062h0Z"/>
      <path class="cls-9" d="M2547.705,943.602s-29.482,24.979-22.685,59.021M2502.902,940.204s-6.807,24.384,7.944,58.992"/>
      <path class="cls-9" d="M2498.362,1007.154s13.617-22.118,43.114,6.23"/>
      <path class="cls-19" d="M2504.035,853.972c0-.566-44.813,0-18.154,45.394-19.853,6.23-64.099-22.68-33.466-61.282-100.416-2.266-141.259-50.467-141.259-94.733,29.501,30.643,99.845,18.154,124.805,36.874-30.634-28.349-24.394-67.517-24.394-67.517,0,0,85.666,25.546,100.978,101.558-5.107,14.755-7.373,40.838-8.51,39.706Z"/>
      <path class="cls-9" d="M2435.126,778.257c16.531,16.814,59.007,21.85,80.563,40.57"/>
      <path class="cls-64" d="M2454.682,827.889s35.165-4.531,45.36,7.93c-13.762,0-18.35-3.398-38.222,3.994,5.607-2.861,4.075-7.958,7.133-7.958s-12.739-3.965-14.27-3.965Z"/>
      <path class="cls-17" d="M2629.978,552.748s19.282-17.021,40.272-1.704c-9.485,28.339-43.671,17.587-43.671,17.587,0,0,1.133,14.184-2.266,20.99,6.826,5.146,12.456,22.128,12.456,22.128,0,0,35.174-8.51,42.566,6.806,13.474-1.862,23.251,0,23.251,0,0,0,27.245-6.806,36.874-6.806s40.272,7.939,43.104,13.613c2.861,5.669,13.056,43.68,19.882,43.114,6.792-.566-16.454,9.072-22.714-.566-6.23-9.648-4.531,12.48-4.531,12.48,0,0,19.282,20.419,21.552,24.96,2.261,4.526-11.895,41.4-1.138,66.946-9.446.864-10.19,10.762-10.19,10.762-.538,11.237-14.755,14.189-14.755,14.189l-3.398-15.322-9.658,5.693,3.965-11.923s13.056-31.776,14.189-41.971c1.133-10.224-11.923-28.373-22.118-28.373s-17.587,32.338-17.587,32.338c0,0-5.098,24.384-3.398,26.65,1.699,2.266-6.826-7.93-6.826-7.93,0,0-4.531,14.755-7.929,19.286-3.398,4.531-10.79,6.23-10.79,6.23,0,0-5.098-14.755-3.398-20.419,1.699-5.664,27.811-27.782,25.546-43.666-2.295-15.888,0-11.923-.595-12.49-.566-.566-13.593-11.914-14.16-18.154-.566-6.24-17.021,7.944-38.573,3.403-6.614,11.53-7.392,40.262-7.392,40.262,0,0-2.266,34.608,2.266,38.602,4.56,3.965-11.328,12.461-11.328,12.461l-11.357,15.322s-3.965-9.629-3.965-9.062-7.958,5.664-7.958,5.664l4.56-11.357c-.298-8.582,11.03-32.045,11.03-51.898s1.43-41.126,1.43-41.126c0,0-20.986-1.138-20.419,20.41.566,21.586-5.093,22.718-3.96,28.944,1.133,6.226,6.792,23.818,5.093,28.944-1.699,5.098-8.496,6.797-8.496,6.797l-1.695,2.832s-20.986,9.658-20.419,13.622-.566-11.357-.566-11.357l-1.161-16.454s12.49-7.93,12.49-27.782-2.866-22.68-2.299-27.216c.566-4.56,3.432-21.01,2.866-22.709-.566-1.704-11.895,4.536-15.322,4.536-3.398,0,6.259-11.914,7.392-20.424s-11.357,7.944-21.552-1.699c4.738-10.474,11.895-13.618,13.027-21.557,1.133-7.939-7.929,6.806-15.888,1.133.653-7.613,8.525-14.179,8.525-14.179,0,0-6.471-.797-9.091,0-5.098-1.704,5.693-9.648,6.259-20.99.567-11.342-6.259-15.888-6.259-16.454s-11.328-10.21-13.027-14.179c-1.699-3.97-1.699-8.51-1.699-8.51,0,0-18.749,13.613-40.867-15.317,20.271-17.299,42-4.541,42-4.541,0,0,5.664-15.888,31.747-14.75,26.112,1.138,31.205,15.888,30.077,14.184h0Z"/>
      <path class="cls-4" d="M2772.696,846.191c.446,0,48.168,1.43,48.648,26.947.48,25.488-14.64,18.898-15.115,18.898s-34.963-4.262-34.963-4.262c0,0,1.43-41.582,1.43-41.582Z"/>
      <path class="cls-10" d="M2726.376,839.092s59.525-.442,56.217,25.522c-3.312,25.992-18.422,20.803-18.422,20.803l-28.824-2.386-8.976-43.934.005-.005Z"/>
      <path class="cls-4" d="M2692.838,836.26l34.488,2.832s20.779,2.832,19.853,22.69c-.95,19.848-21.283,20.328-21.283,20.328l-33.533-1.91.48-43.934-.004-.005Z"/>
      <path class="cls-19" d="M2612.064,846.191c-.48,0-48.202,1.43-48.682,26.947-.446,25.488,14.669,18.898,15.144,18.898s34.963-4.262,34.963-4.262l-1.43-41.582h.005Z"/>
      <path class="cls-4" d="M2658.35,839.092s-59.52-.442-56.217,25.522c3.312,25.992,18.422,20.803,18.422,20.803l28.824-2.386,8.976-43.934-.005-.005Z"/>
      <path class="cls-19" d="M2691.917,836.26l-34.488,2.832s-20.808,2.832-19.853,22.69,21.254,20.328,21.254,20.328l33.533-1.91-.446-43.934v-.005Z"/>
      <path class="cls-8" d="M2784.259,1123.108s24.802-36.547,35.266-32.64c9.12,3.038,2.174,31.325-2.174,33.95l-33.091-1.31ZM2614.267,1129.636c-7.81-10.882-19.138-40.896-29.568-32.64-9.154,3.038-2.179,31.325,2.174,33.95l27.393-1.31Z"/>
      <path class="cls-9" d="M2630.688,1057.348s48.322,29.779,64.176,30.557,66.115-38.664,66.115-38.664"/>
      <path class="cls-8" d="M2635.344,940.622l9.264-11.597,46.416,23.582,47.155-20.899,9.269,9.691-52.579,37.109-59.529-37.886h.005Z"/>
      <path class="cls-37" d="M2598.499,939.998c3.754,4.738,33.744,41.194,39.168,71.357,5.395,30.168-3.101-41.376-3.101-41.376,0,0,37.109,18.187,38.271,29.784,1.162,11.597,17.736-.778,18.542-2.774l-107.458-69.778,14.578,12.787h0ZM2781.845,937.91s-39.048,51.418-34.397,107.458c-8.05-26.827-1.55-71.122-1.55-71.122l-8.496,5.424s-8.88,37.886-20.117,43.67c-1.882-4.502-1.522-6.173-1.522-6.173,0,0-11.986,15.442-14.304,16.992s.768,52.195.768,52.195c0,0,4.027,36.72,8.645,36.336-5.275,2.563-11.741,6.586-11.741,6.586l-4.8-98.006,10.968-11.03s14.698-17.765,15.859-35.174c-6.379,5.424-13.536,6.974-13.536,6.974,0,0-1.934,24.744-7.718,28.2-5.808,3.49-5.962,9.955-5.962,9.955l-1.368-32.342,89.271-59.942h0Z"/>
      <path class="cls-31" d="M2692.541,997.434l7.574,154.618"/>
      <path class="cls-9" d="M2597.453,1071.268s17.77,10.464,24.355,42.149c57.974-4.262,76.162,16.248,76.162,16.248,0,0,47.539-22.8,69.6-18.571,7.718-16.214,29.746-37.109,29.746-37.109"/>
      <path class="cls-3" d="M2573.189,919.727l119.352,78.096,107.491-72.288s22.416-12.365,20.477-21.25c-1.91-8.914-9.658-5.424-13.536-3.874-3.84,1.55-112.493,78.48-112.493,78.48l-115.594-73.085s-8.496-2.688-10.046,2.712c-1.55,5.424,3.187,8.496,4.349,11.208h0Z"/>
      <path class="cls-37" d="M2786.645,899.457s-30.552-12.965-30.552-1.728.864,12.37,5.784,19.584c4.886,7.181-3.758,11.803-3.758,11.803,0,0-1.162-3.158-2.89-8.078-1.728-4.886-18.154-8.347-19.584-14.098-1.43-5.784,3.456-14.995-6.35-16.128-9.778-1.162-19.286,4.027-21.312,15.264-2.026,11.237-14.693,37.44-14.693,37.44l1.728-59.616c21.518,1.517,61.464,6.226,92.194,9.773-9.211-1.43,3.456.6,3.192,3.758-.864,2.592-4.056,2.861-3.758,2.026ZM2678.592,884.462c-5.453,0-32.846,3.163-39.763,7.214-6.912,4.027,11.237,10.344,8.942,15.83-2.295,5.486-2.592,16.421-11.237,14.126-8.645-2.323-37.738-16.718-38.602-21.61s-6.917-5.184-6.917-5.184c0,0,83.554-11.242,87.576-10.378Z"/>
      <path class="cls-9" d="M2691.768,877.607l-.211,73.267M2635.344,791.284s-33.48,54.336-34.133,56.011"/>
      <path class="cls-11" d="M2697.013,789.943s14.576,19.882,12.907,25.516c5.962,4.65,12.609,23.22,12.609,23.22"/>
      <path class="cls-9" d="M2753.352,786.633s-31.478,44.414-30.495,47.722"/>
      <path class="cls-55" d="M2592.062,575.447c-.715,2.482-4.728,3.442-8.962,2.146s-7.095-4.363-6.384-6.845c.72-2.486,4.728-3.446,8.966-2.15s7.09,4.368,6.379,6.85h0ZM2604.787,574.569c.71,2.482,4.723,3.446,8.962,2.146s7.09-4.358,6.379-6.845c-.715-2.482-4.728-3.446-8.962-2.146s-7.095,4.363-6.384,6.845h.005Z"/>
      <path class="cls-27" d="M2973.302,1494.575s-11.683,2.208-11.295,3.278c.355,1.104-33.95,2.208-34.671,1.104-.744-1.104-5.126,5.842-5.126,5.842l5.486-3.278s8.376,8.736,10.944,8.016c2.568-.72-1.104,3.278-.36,4.022.715.72,3.278-1.459,3.278-1.459l56.693-.955-24.95-16.57h0Z"/>
      <path class="cls-35" d="M2994.437,1512.22l-46.32,1.344s-11.654,10.579-12.403,13.114c-.715,2.563,7.661,3.278,7.661,3.278l2.568,8.765,5.842-2.179s39.374,5.846,75.533-2.208c18.24-6.374,21.432-14.035,8.64-18.686-12.754-4.651-41.16-3.25-41.52-3.427h0Z"/>
      <path class="cls-5" d="M2835.829,1607.248l83.373-3.726-15.53-13.175,225.498-9.091-7.78-17.915-252.474,10.135,30.374,14.189-68.201,2.027,2.027,7.094-17.885-.686s19.912,7.75,20.597,11.148h0Z"/>
      <path class="cls-25" d="M2929.307,1146.685c-6.647-3.309-35.77-7.273-68.231,13.92l1.341,74.848s47.663-25.844,70.854-19.882c-1.341-23.191-1.341-52.969-3.964-68.886Z"/>
      <path class="cls-9" d="M2468.309,1373.908l-196.603,195.187M2555.933,1375.343l-159.571,210.144M2548.81,1320.494l-212.995,257.87M2329.402,1574.788l20.659-24.206M2589.408,1450.132l-82.637,113.986M2503.21,1579.079l2.141,43.43M2627.146,1490.015l-87.61,109.723M2611.493,1591.18l35.621-58.421M2625.024,1521.374l-42.739,48.432M2612.208,1475.793l-29.208,35.592M2574.442,1423.78s-89.04,130.349-87.614,141.053M2565.173,1406.702c-2.112,1.402-76.92,100.421-76.92,100.421M2483.981,1538.452l-13.536,16.392M2453.347,1579.794l-20.654,27.067"/>
      <path class="cls-12" d="M2458.584,1073.894s-6.034,18.96,0,28.435c6.029,9.48,43.944,86.174,43.944,86.174,0,0,25.862-31.891,35.342-32.755,9.475-.835,5.155,82.747,5.155,82.747,0,0-15.504,14.635-24.979,13.771-9.485-.864,23.251,32.755,22.387,61.195-.864,28.44-43.075,169.757-58.584,172.32-15.514,2.592,6.893-25.843,6.029-33.595-.864-7.752-5.17-2.592-8.616-11.208-3.446-8.616,5.174-21.552,3.446-30.163-1.723-8.616-9.48-6.888-10.339-12.912-.864-6.048,5.17-7.747,4.31-14.664-.864-6.883-10.344-5.155-9.48-11.208.864-6.019,1.723-3.427.864-14.635s-2.587,7.752-12.067,8.616c-9.48.864-17.232,22.416-17.232,22.416,0,0-18.96,26.707-37.92,14.635,11.203,24.144,2.592,34.488-1.718,35.323-4.31.864,3.442,18.96-6.898,19.824s7.757,40.507-4.306,43.968c12.922,6.019,2.582,13.766,2.582,13.766,0,0-29.866,2.506-23.266,41.376-87.893-31.032-130.978-84.446-130.118-138.73.864-54.307,18.096-103.402,60.322-121.498,12.062-44.832,32.746-93.086,32.746-93.086,0,0-3.446-19.824-.864-32.731,2.592-12.936,14.65-25.843,14.65-25.843,0,0-1.728-31.032-.859-46.531.864-15.528,6.893-22.416,7.752-31.027s-2.582-52.584,6.034-60.336,24.989-6.883,33.605-12.038c8.621-5.184,19.824-14.669,31.022-13.805,11.198.864,20.678,8.616,20.678,8.616,0,0,42.23,0,44.813,16.368,2.583,16.392-8.616,22.416-8.616,22.416,0,0,6.034,23.28-19.824,44.798h.004Z"/>
      <path class="cls-16" d="M2421.091,1014.196c1.354,2.496-1.728,6.782-6.878,9.571s-10.426,3.024-11.779.528c-1.349-2.501,1.728-6.787,6.883-9.576s10.426-3.024,11.774-.528v.005Z"/>
      <path class="cls-55" d="M2413.939,1018.545c0,1.579-1.435,2.856-3.202,2.856s-3.202-1.277-3.202-2.856,1.435-2.851,3.202-2.851,3.202,1.277,3.202,2.851Z"/>
      <path class="cls-50" d="M2476.944,1047.066s10.464,46.738-2.05,78.989M2480.16,1026.618s20.424,27.005,17.789,60.6M2482.138,1020.686c.662,0,17.126,14.486,16.464,24.355M2486.093,1014.753s11.198,7.901,13.829,15.802"/>
      <path class="cls-9" d="M2480.822,1010.135s-40.176,65.218-34.91,106.056"/>
      <path class="cls-50" d="M2483.458,1008.167s-53.352,31.627-63.23,135.029"/>
      <path class="cls-9" d="M2477.529,1027.276l-21.077,15.792"/>
      <path class="cls-50" d="M2400.466,1149.129s29.64-123.168,82.334-140.962"/>
      <path class="cls-6" d="M2503.214,1190.62s28.334-35.558,34.92-34.248,4.593,82.33,4.593,82.33c0,0-21.072,15.797-25.666,15.144-4.622-.658,23.698,38.213,23.04,52.704-.658,14.491-1.31,14.482-1.31,14.482,0,0,0-8.554-6.586-22.387-6.586-13.834-2.654-29.659-45.456-64.56-10.541-21.734,21.077,13.171,27.658,7.896,6.59-5.246-11.851-50.702-11.193-51.36h0Z"/>
      <path class="cls-13" d="M2452.867,990.311s-11.904,3.25-13.536,8.112c-1.622,4.886-8.654,9.744-12.442,8.102-3.792-1.608-10.829-7.57-10.829-7.57"/>
      <path class="cls-41" d="M2385.211,1031.985s-17.861,17.856-9.202,20.03c8.659,2.146,17.861-14.069,17.861-14.069,0,0,0,27.6,7.579,23.251,7.579-4.32,29.765-20.002,29.765-20.002,0,0,7.579-.566,9.202,0,1.627.533,20.568,16.752,33.015,10.819-7.032,18.389-15.154,20.568-15.154,20.568,0,0-12.989,16.781-29.765,12.965-16.781-3.787-21.11-10.819-21.11-10.819,0,0-14.074,1.104-18.403-5.395-4.33-6.499-5.952-10.286-5.952-10.286,0,0-8.117,8.112-10.286,4.32-2.16-3.782,0-25.987,12.451-31.382h0Z"/>
      <path class="cls-13" d="M2486.424,1007.092s-33.014-9.744-44.381,6.499c-11.366,16.214-8.659,25.426-2.707,27.038"/>
      <path class="cls-55" d="M2491.517,1006.17c0,3.888-2.784,7.046-6.226,7.046s-6.221-3.154-6.221-7.046,2.784-7.046,6.221-7.046,6.226,3.154,6.226,7.046Z"/>
      <path class="cls-6" d="M2395.43,1090.406s13.464,20.717,29.515,26.41c16.051,5.693-11.136,10.613-27.187-.24-11.65-15.792-8.544-27.182-8.544-27.182,0,0,3.106-3.13,6.216,1.013ZM2510.64,1212.618s-37.8-52.55-48.672-55.411c-10.877-2.832,8.28-5.155,19.934,5.962,11.65,11.117-3.105-18.125-3.105-18.125l31.843,67.574Z"/>
      <path class="cls-41" d="M2391.806,1516.305c14.496-3.874,77.664,36.245,91.906,46.349,14.242,10.08,44.021,3.61,44.021,3.61,0,0-13.742,8.285-22.272,10.368-8.544,2.064,25.373,2.064,25.373,2.064,0,0-80.774,22.262-162.845-20.957-7.512-33.653,17.602-41.165,23.818-41.434h0Z"/>
      <path class="cls-6" d="M2484.23,1225.554s-10.613-2.054-16.051-8.285c-5.434-6.202-13.2-21.49-21.23-27.96-8.026-6.466-48.154-28.464-62.65-26.918s-18.902-1.546-20.717-3.365-7.762.773-6.73,8.285c1.037,7.512-11.136,24.086-6.73,31.834,4.402,7.781,25.114,39.35,29.256,40.392s1.555,18.394,1.555,18.394c0,0,18.379,18.624,23.04,19.67,4.656,1.042,9.317,4.416,8.803,8.794-.518,4.416-20.198,28.498-20.198,28.498,0,0-21.226,11.117-21.485,17.347-.259,6.202,5.174,19.138,22.008,23.28,16.824,4.142,62.131.778,64.464-3.101,2.328-3.874,5.952-27.182,4.397-29.51s-12.686-9.326-18.384-8.285c-5.688,1.042-10.867,5.693-10.354,6.734.518,1.046-8.021,5.424-8.021,1.282s16.824-22.771,18.379-21.221,25.373,3.874,29.774,15.797c4.402,11.894,4.402,20.448,16.824,19.166,12.432-1.31,29.77-12.696,31.32-36.514,1.55-23.818-13.968-39.883-17.856-42.206-3.888-2.323-16.829-10.109-17.861-13.714-1.037-3.638-3.624-15.528-1.555-18.394h0Z"/>
      <path class="cls-6" d="M2260.286,1330.689s40.128-10.368,50.482-10.104c10.358.24,49.45,18.36,60.845,29.51,11.39,11.117,34.69,37.526,49.968,35.203,15.274-2.328,19.675-5.424,19.675-5.424l-5.957,11.386s-12.427,3.37-18.638,1.819c-6.216-1.55-18.384-5.458-30.552-17.352-12.168-11.923-49.709-44.026-81.552-41.698-31.843,2.352-50.227,33.682-50.227,33.682,0,0,.259-15.293,1.555-18.658s-6.73,7.243-6.73,7.243l11.131-25.608h0Z"/>
      <path class="cls-6" d="M2408.112,1361.75c.264.24,10.099,2.832,26.669,2.832s25.373-7.248,25.373-7.248l-1.037-6.466,2.592-9.062s12.682,12.941,12.422,15.533c-.259,2.592-5.174,3.638-5.174,3.638l-1.814-6.23-4.397,5.453s-24.082,19.138-37.282,16.306c-13.205-2.861-25.373-11.386-22.008-13.474,3.365-2.054,5.179-1.282,4.656-1.282h0ZM2349.6,1395.671s-14.496-.269-20.966,2.832c-6.471,3.101-8.803,7.008-13.2,6.466-4.402-.504-7.771-6.197-6.48-8.525,1.814-3.634,10.358-8.285,26.669-7.003,16.31,1.31,13.982,6.23,13.982,6.23h-.005ZM2400.35,1435.017c0-.773-1.037-21.221-9.062-29.51-8.026-8.285-17.866-8.285-22.267-7.272-4.402,1.042,16.31,10.104,18.384,16.066,2.073,5.962,8.803,22.536,6.989,26.678-1.814,4.114-5.179-11.654-17.866-16.066-12.686-4.411-30.288-2.059-26.664,3.638s17.866.504,25.114,12.667c7.248,12.163,12.686,25.128,12.686,25.128l2.328-8.822,6.475-1.79.773-16.843,3.11-3.874Z"/>
      <path class="cls-41" d="M2389.992,1501.281l-13.2-26.41s-4.147-16.814-15.278-21.49c-11.131-4.656-25.891-3.878-26.15,1.814-.259,5.693,23.822,12.936,25.373,16.07,1.555,3.096.778,8.285-1.296,8.525-2.064.264-12.682-3.878-18.12-2.592-5.438,1.31-8.544,8.285-16.57,6.226-8.026-2.088-14.76-27.691-11.65-30.288,3.106-2.592-5.952,4.656-7.766-2.083s2.592-27.691-.518-30.288c-3.106-2.592-18.12-11.65-18.384-13.469-.254-1.79.778-103.018,85.44-19.138-36.25-42.984-50.486-38.333-57.216-38.573-4.92,0-37.8,2.832-46.085,44.774-8.285,41.938-18.125,15.797-18.125,15.797,0,0-1.81,18.125,6.994,23.309,8.798,5.16-4.147,20.179-4.147,20.179,0,0-15.792-38.568-13.459-55.411-3.106,13.474-2.846,46.858,17.088,83.376,23.299,24.59,45.307,47.39,103.814,72.998,30.811-47.098,29.256-52.79,29.256-53.328h0Z"/>
      <path class="cls-40" d="M2334.59,1501.55s17.088,2.054,21.744,10.882c4.661,8.789,6.734,22.262,6.734,22.262,2.846-5.693,4.138-10.608,9.84-14.755s9.84-4.68,9.576-7.776c-.264-3.096-18.125-21.998-27.182-23.04-9.058-1.042-24.854,9.835-24.854,9.835,0,0-2.846,4.142,4.142,2.592h0Z"/>
      <g>
        <path class="cls-44" d="M2373.619,1546.084s44.28,20.179,117.216,21.49"/>
        <path class="cls-39" d="M2521.44,1340.524s-3.783,37.171-32.371,110.496"/>
        <path class="cls-13" d="M2515.752,1363.391s-8.583,26.674-32.4,46.675"/>
      </g>
      <path class="cls-55" d="M2386.306,1824.734l7.666-8.674,2.453,2.17-.672.763c-.374.422-.589.707-.643.854-.096.278-.096.544,0,.797.086.243.32.531.701.864l10.138,8.962c.41.362.675.566.797.614.131.042.278.029.442-.038.16-.074.389-.282.686-.624,1.005-1.133,1.661-2.174,1.968-3.125.32-.96.397-2.003.23-3.13-.166-1.142-.638-2.411-1.416-3.806l2.87-1.632,4.498,8.141-11.971,13.546-2.458-2.17.754-.854c.307-.346.493-.65.557-.912.064-.262.054-.498-.029-.706-.086-.227-.326-.514-.72-.859l-10.046-8.88c-.422-.374-.765-.602-1.027-.682-.256-.09-.493-.094-.71-.014-.214.067-.475.275-.782.624l-.83.941-2.453-2.17ZM2403.11,1805.956l14.05-13.901,7.181,3.427-1.406,2.942c-1.229-.502-2.355-.773-3.379-.811-1.017-.045-1.912.147-2.683.576-.768.413-1.552,1.013-2.352,1.8l-2.568,2.544,4.157,4.2.845-.835c.634-.63,1.016-1.097,1.147-1.402.128-.32.144-.624.048-.912-.099-.294-.44-.736-1.022-1.325l-.634-.638,2.15-2.126,7.046,7.118-2.15,2.126-.72-.72c-.48-.493-.893-.792-1.238-.898-.336-.115-.645-.114-.926.005-.282.118-.768.52-1.459,1.205l-.758.754,3.821,3.859c.406.41.674.64.802.691.128.048.272.04.432-.024.166-.07.443-.296.83-.677l1.411-1.397c1.056-1.043,1.798-2.072,2.227-3.086.419-1.024.581-2.147.485-3.37-.096-1.242-.45-2.477-1.061-3.706l2.962-1.426,3.974,8.438-14.554,14.4-2.304-2.328.422-.422c.563-.557.902-.97,1.018-1.238.112-.272.109-.549-.01-.83-.08-.16-.398-.522-.955-1.085l-9.072-9.173c-.496-.499-.854-.789-1.075-.869-.218-.09-.434-.099-.648-.029-.224.064-.55.307-.979.73l-.749.739-2.304-2.328h0ZM2432.736,1777.588c2.851-2.442,5.902-3.547,9.154-3.317,3.258.221,6.051,1.694,8.381,4.421,1.568,1.83,2.555,3.802,2.962,5.914.406,2.112.226,4.165-.542,6.158-.765,1.981-2.154,3.832-4.166,5.554-2.656,2.272-5.456,3.402-8.4,3.389-3.555-.013-6.595-1.494-9.12-4.445-2.346-2.742-3.37-5.752-3.072-9.029.301-3.283,1.901-6.163,4.8-8.64l.005-.005ZM2435.232,1780.41c-1.366,1.168-2.016,2.61-1.949,4.325.086,2.16,1.002,4.259,2.746,6.298,1.744,2.038,3.597,3.246,5.558,3.624,1.686.314,3.2-.102,4.541-1.248,1.35-1.155,1.995-2.586,1.934-4.291-.083-2.032-.992-4.062-2.726-6.091-1.222-1.427-2.454-2.451-3.696-3.072-1.238-.624-2.411-.88-3.518-.768-1.107.115-2.071.523-2.89,1.224h0ZM2458.469,1756.66l1.838-1.277.653.518,10.968-7.627-.216-.816,1.853-1.291,7.152,5.136-1.968,2.712c-1.363-.736-2.29-1.187-2.779-1.354-.963-.336-1.901-.477-2.813-.422-.691.038-1.274.222-1.747.552-.224.157-.339.32-.346.49-.013.16.115.43.384.811l7.771,11.179c.458.659.768,1.056.931,1.19.16.134.333.214.518.24.176.016.374-.026.595-.125.214-.109.744-.456,1.589-1.042l1.872,2.688-9.48,6.59-1.872-2.688.576-.398c.63-.442,1.008-.762,1.133-.96.118-.205.157-.437.115-.696-.051-.269-.296-.719-.734-1.349l-7.949-11.429c-.224-.326-.403-.506-.538-.538-.131-.032-.318.037-.562.206-.48.336-.893.891-1.238,1.666s-.52,1.654-.523,2.64c-.003.387.109,1.39.336,3.01l-3.178.864-2.342-8.477v-.004ZM2480.007,1742.874l16.901-10.238,6.192,5.006-2.064,2.534c-1.075-.774-2.107-1.299-3.096-1.574-.976-.282-1.888-.304-2.736-.067-.848.221-1.75.621-2.707,1.2l-3.096,1.872,3.062,5.054,1.017-.614c.765-.464,1.245-.829,1.44-1.094.202-.278.289-.57.264-.874-.032-.31-.261-.819-.686-1.526l-.466-.768,2.583-1.57,5.189,8.568-2.583,1.565-.528-.869c-.358-.592-.691-.979-.998-1.162-.301-.192-.601-.262-.902-.211s-.867.33-1.699.835l-.912.552,2.813,4.646c.298.493.502.778.614.854.115.08.258.107.427.082.179-.032.501-.187.965-.466l1.699-1.032c1.27-.768,2.232-1.594,2.885-2.477.65-.896,1.069-1.952,1.258-3.168.195-1.229.141-2.51-.163-3.845l3.211-.696,1.896,9.13-17.51,10.608-1.699-2.803.509-.307c.678-.41,1.104-.734,1.277-.974.173-.24.235-.509.187-.806-.038-.173-.263-.598-.672-1.277l-6.686-11.04c-.365-.598-.647-.963-.845-1.094-.189-.134-.397-.194-.624-.178-.233.01-.606.17-1.118.48l-.898.547-1.699-2.803h0ZM2503.958,1728.542l12.955-6.739c.832-.432,1.779-.829,2.842-1.19,1.072-.365,2.138-.498,3.197-.398,1.069.096,2.029.419,2.88.97s1.531,1.319,2.04,2.304c.832,1.6.933,3.194.302,4.781-.621,1.574-1.632,2.918-3.034,4.032l6.941,2.779.298.13c.458.195.846.318,1.166.37.314.042.605.037.874-.014s.608-.182,1.017-.394l.907-.47,1.507,2.904-6.729,3.504-11.458-5.544-1.742.912,2.174,4.181c.378.723.657,1.165.84,1.325.179.15.381.23.605.24.227,0,.608-.139,1.142-.418l.96-.504,1.512,2.909-10.272,5.342-1.512-2.909.936-.485c.493-.256.813-.486.96-.691.154-.221.225-.462.216-.725-.013-.147-.183-.537-.509-1.171l-6.149-11.822c-.24-.461-.451-.765-.634-.912-.173-.166-.36-.235-.562-.206-.301.013-.605.101-.912.264l-.417.24-.783.403-1.56-2.995h0ZM2513.496,1727.966l2.827,5.434,3.12-1.618c1.223-.64,2.077-1.226,2.563-1.757.493-.55.781-1.115.864-1.694.093-.582-.019-1.174-.336-1.776-.288-.554-.679-.95-1.171-1.19-.49-.256-1.049-.341-1.68-.254-.621.08-1.529.432-2.726,1.056l-3.461,1.8ZM2530.723,1714.842l13.368-5.861c.864-.378,1.837-.712,2.918-1.003,1.094-.294,2.167-.357,3.216-.187,1.062.166,1.998.554,2.808,1.162.809.608,1.437,1.421,1.882,2.438.723,1.648.718,3.243-.014,4.786-.726,1.53-1.824,2.803-3.293,3.821l6.739,3.235.288.154c.445.224.826.371,1.142.442.31.064.6.08.869.048.272-.032.619-.142,1.042-.331l.936-.408,1.315,3-6.95,3.048-11.064-6.288-1.8.787,1.891,4.32c.33.749.581,1.208.754,1.378.17.16.365.254.586.283.227.01.616-.106,1.166-.346l.993-.432,1.315,2.995-10.603,4.651-1.315-3.005.96-.422c.512-.224.848-.432,1.008-.624.17-.208.258-.445.264-.71,0-.147-.144-.547-.432-1.2l-5.352-12.206c-.208-.477-.397-.795-.566-.955-.163-.176-.347-.256-.552-.24-.298-.003-.606.066-.926.206l-.432.206-.807.35-1.358-3.091h.005ZM2540.275,1714.9l2.458,5.616,3.216-1.416c1.267-.554,2.163-1.082,2.688-1.584.525-.512.848-1.056.97-1.632.128-.576.056-1.174-.216-1.795-.25-.57-.613-.991-1.09-1.262-.474-.288-1.027-.41-1.661-.365-.627.038-1.557.328-2.789.869l-3.576,1.57h0ZM2566.344,1700.02l4.992-1.819,12.95,14.736c.694.784,1.219,1.232,1.574,1.344.365.109.922.019,1.671-.269l1.123,3.082-10.526,3.84-1.123-3.082.634-.245c.586-.214.968-.438,1.147-.672.176-.246.224-.48.144-.701-.07-.192-.315-.549-.734-1.07l-1.392-1.79-6.783,2.477-.01,2.549c.006.544.037.89.091,1.037.064.17.179.302.346.398.176.09.414.117.715.082.195-.026.702-.186,1.522-.48l1.123,3.072-8.611,3.144-1.123-3.077c.553-.202.939-.397,1.157-.586.224-.192.379-.411.466-.658.103-.256.158-.68.168-1.272l.48-20.035v-.005ZM2570.031,1712.25l4.45-1.622-4.407-5.333-.048,6.96.005-.005ZM2584.819,1693.372l10.296-2.962,7.934,12.71.105-15.024,10.474-3.019.912,3.149-1.128.326c-.608.176-.995.429-1.162.758-.157.314-.133.826.072,1.536l3.72,12.917c.16.566.294.91.403,1.032.16.192.339.304.538.336.275.064.61.04,1.003-.072l1.286-.37.912,3.144-10.949,3.154-.912-3.149.85-.24c.621-.182,1.025-.354,1.214-.514.192-.16.307-.352.346-.576.051-.237-.001-.627-.158-1.171l-4.032-13.997-.115,20.453-3.149.907-10.622-16.709,3.984,13.834c.09.314.214.542.374.686.17.141.371.23.605.269.243.022.598-.034,1.066-.168l1.095-.312.907,3.149-9.317,2.678-.907-3.149.912-.264c.576-.166.954-.326,1.133-.48.189-.173.301-.382.336-.629.042-.259-.022-.688-.192-1.286l-3.677-12.758c-.17-.586-.317-.954-.442-1.104-.166-.214-.363-.347-.59-.398-.227-.054-.553-.019-.979.106l-1.238.355-.907-3.149h0ZM2632.147,1680.94l12.298-2.294c1.558-.291,2.878-.371,3.96-.24,1.094.118,2.07.432,2.928.941.864.506,1.579,1.166,2.146,1.982.563.8.938,1.696,1.123,2.688.371,1.99-.085,3.803-1.368,5.438-1.274,1.632-3.256,2.699-5.947,3.202l-3.97.739.816,4.358c.099.544.202.88.307,1.008.138.192.317.32.538.384.23.064.591.048,1.08-.048l1.186-.216.6,3.216-11.347,2.122-.605-3.216.787-.149c.688-.128,1.136-.264,1.344-.408.202-.141.333-.326.393-.557.058-.24.023-.699-.105-1.378l-2.39-12.802c-.131-.71-.263-1.17-.393-1.378-.134-.218-.31-.357-.528-.418-.211-.077-.589-.064-1.133.038l-1.118.206-.6-3.216v-.005ZM2641.402,1683.148l1.234,6.61,1.987-.37c1.213-.224,2.08-.512,2.602-.864.518-.362.902-.83,1.152-1.406.246-.589.304-1.24.173-1.954-.202-1.066-.771-1.834-1.709-2.304-.701-.352-1.651-.416-2.851-.192l-2.592.48h.005ZM2657.28,1676.346l14.482-1.805c.935-.118,1.962-.162,3.082-.13,1.133.032,2.179.278,3.139.739.969.461,1.755,1.098,2.357,1.91.602.813.973,1.771,1.114,2.875.224,1.786-.235,3.314-1.378,4.584-1.133,1.258-2.549,2.163-4.248,2.717l5.534,5.026.24.226c.358.342.679.594.96.754.282.147.557.243.826.288.269.048.634.043,1.095-.014l1.008-.125.408,3.254-7.536.936-8.803-9.182-1.954.24.581,4.685c.103.81.213,1.322.331,1.536.115.202.275.346.48.432.214.077.619.078,1.214.005l1.08-.134.403,3.25-11.486,1.435-.408-3.254,1.046-.13c.55-.067.931-.171,1.142-.312.217-.154.368-.355.451-.605.042-.141.018-.565-.072-1.272l-1.646-13.224c-.064-.518-.155-.878-.274-1.08-.105-.214-.259-.342-.461-.384-.285-.093-.6-.117-.946-.072l-.471.077-.878.106-.417-3.35h.005ZM2666.414,1679.126l.758,6.082,3.49-.437c1.37-.17,2.376-.421,3.019-.754.653-.342,1.117-.771,1.392-1.286.291-.512.395-1.106.312-1.781-.077-.618-.306-1.126-.686-1.526-.371-.41-.867-.683-1.488-.821-.611-.141-1.586-.128-2.923.038l-3.874.48v.005ZM2699.885,1671.657c3.75-.211,6.85.758,9.298,2.909,2.458,2.15,3.787,5.014,3.989,8.592.138,2.41-.272,4.576-1.229,6.499-.954,1.926-2.339,3.451-4.157,4.574-1.808,1.114-4.034,1.746-6.677,1.896-3.495.198-6.408-.6-8.741-2.395-2.822-2.163-4.342-5.182-4.56-9.058-.208-3.603.799-6.619,3.019-9.048,2.23-2.429,5.25-3.752,9.058-3.97h0ZM2700.168,1675.415c-1.799.102-3.19.858-4.176,2.266-1.235,1.77-1.777,3.994-1.627,6.672.154,2.678.896,4.762,2.227,6.25,1.152,1.27,2.608,1.856,4.368,1.757,1.773-.103,3.154-.85,4.142-2.242,1.162-1.664,1.667-3.83,1.517-6.499-.109-1.875-.471-3.435-1.085-4.68-.601-1.248-1.379-2.162-2.333-2.741-.954-.579-1.965-.838-3.034-.778v-.005ZM2717.938,1671.268l12.509.072c1.587.01,2.899.182,3.936.518,1.053.32,1.949.811,2.688,1.474.758.662,1.338,1.446,1.738,2.352.403.896.602,1.848.595,2.856-.013,2.026-.805,3.718-2.376,5.078-1.558,1.36-3.707,2.032-6.446,2.016l-4.037-.024-.029,4.43c-.003.557.034.909.11,1.056.102.214.254.374.456.48.214.102.571.155,1.071.158h1.205l-.019,3.278-11.544-.067.019-3.278.797.01c.704,0,1.168-.048,1.392-.144.224-.096.391-.254.499-.475.102-.224.155-.682.158-1.373l.082-13.022c0-.723-.043-1.199-.129-1.426-.09-.237-.235-.408-.437-.514-.192-.112-.565-.17-1.118-.173l-1.138-.01.019-3.274h0ZM2726.607,1675.19l-.043,6.72,2.021.014c1.235.006,2.142-.114,2.722-.36.576-.256,1.042-.643,1.397-1.162.352-.531.531-1.158.538-1.882.006-1.088-.406-1.95-1.238-2.587-.621-.48-1.542-.723-2.765-.73l-2.63-.014h0ZM2743.584,1671.537l14.563,1.008c.934.064,1.95.218,3.048.461,1.104.246,2.083.688,2.938,1.325.864.64,1.513,1.418,1.949,2.333.435.915.614,1.925.538,3.029-.122,1.795-.866,3.208-2.232,4.238-1.351,1.018-2.914,1.635-4.69,1.853l4.474,5.995.187.264c.288.406.555.715.802.926.247.198.498.346.754.442.256.096.614.16,1.075.192l1.017.072-.226,3.269-7.57-.523-6.888-10.704-1.968-.13-.322,4.704c-.054.816-.045,1.339.029,1.57.074.224.202.398.384.523.198.115.598.194,1.2.235l1.08.072-.226,3.269-11.549-.797.226-3.264,1.046.067c.554.038.947.01,1.181-.086.246-.109.435-.278.566-.509.064-.128.12-.549.168-1.262l.917-13.296c.038-.518.019-.888-.058-1.109-.064-.23-.189-.387-.374-.47-.262-.141-.57-.224-.922-.25l-.475-.014-.878-.062.23-3.37h.006ZM2752.018,1676.015l-.422,6.115,3.504.24c1.379.096,2.416.043,3.11-.158.707-.211,1.246-.542,1.617-.994.384-.451.598-1.016.643-1.694.045-.621-.083-1.162-.384-1.622-.282-.474-.714-.838-1.296-1.094-.576-.256-1.536-.43-2.88-.523l-3.888-.269h-.004ZM2772.854,1673.836l11.458,1.392-.393,3.254-1.046-.13c-.608-.074-1.019-.066-1.234.024-.202.077-.368.227-.499.451-.118.214-.216.646-.293,1.296l-1.584,13.008c-.083.71-.099,1.171-.048,1.382.054.211.173.374.355.49.218.16.563.269,1.037.326l1.248.154-.398,3.254-11.458-1.392.393-3.254.926.115c.662.08,1.101.088,1.315.024.214-.077.379-.211.495-.403.128-.202.229-.611.302-1.229l1.584-13.061c.09-.73.098-1.213.024-1.45-.064-.246-.2-.446-.408-.6-.147-.109-.523-.2-1.128-.274l-1.046-.125.393-3.254h.005ZM2797.469,1677.254l5.232.902,3.902,19.229c.214,1.024.446,1.672.696,1.944.266.275.794.475,1.584.6l-.557,3.23-11.04-1.906.557-3.23.672.101c.614.106,1.058.102,1.329-.01.275-.128.434-.309.475-.542.032-.198-.003-.629-.105-1.291l-.322-2.242-7.104-1.229-1.282,2.208c-.266.47-.411.784-.437.941-.032.179,0,.352.096.518.112.166.307.309.586.427.183.077.703.189,1.56.336l-.557,3.23-9.034-1.56.557-3.226c.579.096,1.011.118,1.296.067.288-.054.531-.166.729-.336.214-.173.475-.514.783-1.022l10.383-17.141h0ZM2794.579,1689.691l4.671.806-1.166-6.816-3.504,6.01h0ZM2817.062,1680.7l10.392,2.611.471,14.976,7.646-12.941,10.57,2.659-.797,3.178-1.138-.288c-.614-.154-1.075-.13-1.383.072-.294.195-.531.65-.71,1.363l-3.274,13.042c-.144.57-.202.934-.173,1.094.045.243.144.43.298.562.208.192.509.339.902.442l1.301.326-.797,3.178-11.05-2.779.802-3.178.854.216c.627.16,1.062.218,1.305.173.243-.045.44-.154.59-.326.16-.179.309-.544.446-1.094l3.552-14.126-10.383,17.626-3.178-.797-.787-19.786-3.504,13.963c-.083.32-.091.581-.024.782.077.205.207.384.389.538.199.141.534.27,1.008.389l1.104.278-.802,3.178-9.398-2.362.797-3.178.922.23c.582.147.991.198,1.224.154.246-.058.446-.182.6-.374.166-.205.326-.608.48-1.21l3.23-12.878c.15-.592.209-.986.178-1.181-.038-.266-.143-.478-.312-.638-.17-.16-.469-.293-.898-.398l-1.248-.317.792-3.178h0ZM2864.573,1693.948l11.75,4.291c1.488.544,2.664,1.149,3.528,1.814.88.659,1.559,1.426,2.035,2.299.486.877.766,1.81.84,2.798.074.982-.062,1.946-.408,2.89-.694,1.904-2.01,3.232-3.946,3.984-1.927.752-4.176.656-6.749-.288l-3.792-1.382-1.526,4.162c-.192.522-.275.864-.25,1.027.023.24.112.442.269.605.166.17.483.341.95.514l1.133.413-1.123,3.072-10.843-3.96,1.123-3.072.749.269c.659.243,1.114.355,1.363.336.246-.019.455-.112.624-.278.173-.176.378-.589.614-1.238l4.469-12.23c.25-.678.371-1.141.365-1.387-.003-.253-.083-.461-.24-.624-.141-.176-.472-.358-.993-.547l-1.071-.389,1.128-3.082v.005ZM2871.408,1700.562l-2.309,6.317,1.896.691c1.158.426,2.051.621,2.678.586.634-.048,1.203-.256,1.709-.624.512-.381.893-.91,1.142-1.589.374-1.024.277-1.976-.293-2.856-.422-.659-1.206-1.198-2.352-1.618l-2.472-.907h0ZM2888.765,1702.9l13.349,5.904c.861.381,1.763.872,2.707,1.474.957.608,1.726,1.358,2.309,2.251.595.896.942,1.846,1.042,2.851.096,1.011-.08,2.022-.528,3.034-.726,1.648-1.907,2.723-3.542,3.226-1.616.496-3.296.544-5.04.144l2.16,7.157.086.317c.134.48.282.861.442,1.142.163.272.349.496.557.672.205.179.52.362.946.547l.931.413-1.325,2.995-6.941-3.072-2.827-12.403-1.8-.797-1.91,4.315c-.33.746-.499,1.24-.509,1.483-.003.234.061.442.192.624.144.173.49.381,1.037.624l.993.442-1.325,2.995-10.589-4.685,1.329-2.995.96.427c.509.224.89.33,1.142.317.266-.019.499-.115.701-.288.105-.096.302-.472.59-1.128l5.39-12.182c.211-.48.32-.835.326-1.066.016-.24-.048-.43-.192-.571-.202-.224-.462-.406-.783-.547l-.442-.178-.807-.355,1.368-3.091v.005ZM2895.168,1709.98l-2.477,5.606,3.216,1.421c1.261.56,2.253.864,2.976.912.736.038,1.355-.09,1.858-.384.512-.294.905-.752,1.181-1.373.253-.57.317-1.123.192-1.661-.106-.541-.389-1.031-.85-1.469-.448-.435-1.29-.925-2.525-1.469l-3.571-1.584h0ZM2927.895,1720.982c3.315,1.763,5.459,4.2,6.432,7.31.986,3.11.637,6.25-1.046,9.418-1.133,2.128-2.608,3.766-4.426,4.915-1.814,1.152-3.79,1.734-5.928,1.747-2.122.013-4.352-.603-6.691-1.848-3.088-1.642-5.163-3.835-6.226-6.581-1.29-3.315-1.022-6.685.802-10.109,1.696-3.187,4.123-5.243,7.282-6.168,3.168-.915,6.435-.477,9.802,1.315h0ZM2926.181,1724.342c-1.587-.848-3.166-.928-4.738-.24-1.978.874-3.597,2.494-4.858,4.862-1.257,2.368-1.706,4.533-1.344,6.494.323,1.686,1.266,2.944,2.827,3.773,1.568.832,3.136.909,4.704.23,1.856-.816,3.411-2.403,4.666-4.762.883-1.658,1.386-3.179,1.507-4.565.128-1.376-.064-2.56-.576-3.552-.509-.992-1.238-1.741-2.189-2.246v.005ZM2945.491,1730.323l1.905,1.186-.221.806,11.338,7.066.667-.528,1.915,1.2-1.901,8.592-3.264-.73c.138-1.542.186-2.573.144-3.091-.07-1.018-.311-1.934-.72-2.75-.307-.621-.707-1.083-1.2-1.387-.231-.144-.424-.186-.581-.125-.154.054-.352.278-.595.672l-7.2,11.554c-.429.682-.672,1.123-.729,1.325-.061.205-.066.395-.014.571.054.17.171.336.35.499.183.154.71.502,1.584,1.046l-1.733,2.784-9.792-6.11,1.728-2.779.59.37c.653.406,1.094.629,1.325.667.237.026.466-.032.686-.173.231-.15.549-.554.955-1.21l7.363-11.808c.208-.339.301-.576.278-.71-.023-.134-.158-.278-.408-.432-.499-.313-1.173-.474-2.021-.48-.848-.01-1.725.178-2.63.562-.358.147-1.237.646-2.635,1.498l-2.054-2.582,6.869-5.501h0ZM2966.688,1744.689l16.071,11.501-2.16,7.656-3.139-.888c.288-1.299.363-2.456.226-3.47-.128-1.008-.467-1.856-1.017-2.544-.534-.691-1.258-1.363-2.17-2.016l-2.942-2.102-3.437,4.805.965.691c.727.522,1.251.821,1.574.898.336.074.638.039.907-.106.275-.15.653-.562,1.133-1.234l.528-.73,2.453,1.757-5.827,8.146-2.458-1.757.59-.83c.403-.56.627-1.019.672-1.378.057-.352.003-.656-.163-.912-.16-.256-.637-.667-1.43-1.234l-.869-.624-3.168,4.421c-.333.471-.512.773-.538.907-.029.134.003.275.096.422.096.154.365.389.807.706l1.617,1.152c1.203.864,2.341,1.422,3.413,1.675,1.082.243,2.218.213,3.408-.091,1.206-.304,2.363-.861,3.471-1.67l1.901,2.678-7.642,5.342-16.651-11.914,1.91-2.664.48.346c.647.461,1.112.725,1.397.792.288.064.56.014.816-.149.144-.106.448-.48.912-1.123l7.507-10.493c.406-.57.63-.973.672-1.21.054-.224.029-.438-.077-.643-.102-.208-.397-.486-.883-.835l-.854-.614,1.905-2.664h-.006ZM2993.15,1778.5l8.938,7.33-2.098,2.558-.672-.547c-.435-.358-.769-.566-1.003-.624-.221-.051-.442-.022-.662.086-.218.102-.523.394-.917.874l-4.704,5.736-2.688-2.208.379-1.882c-1.27-.131-2.458-.424-3.562-.878-1.107-.454-2.137-1.072-3.091-1.853-1.67-1.373-2.859-3.029-3.566-4.968-.704-1.942-.859-3.974-.466-6.096.4-2.112,1.344-4.075,2.832-5.89,1.472-1.792,3.184-3.074,5.136-3.845,1.955-.765,3.976-.973,6.062-.624,2.102.349,3.984,1.205,5.645,2.568.807.659,1.522,1.421,2.146,2.285.64.864,1.104,1.699,1.392,2.506l1.152-.418,1.838,1.512-3.322,7.416-3.062-1.19c.269-2.006.36-3.446.274-4.32-.077-.87-.315-1.696-.715-2.477-.39-.774-.878-1.402-1.464-1.882-.832-.682-1.808-1.082-2.928-1.2-1.11-.106-2.256.134-3.437.72-1.175.573-2.301,1.515-3.379,2.827-1.184,1.443-1.984,2.881-2.4,4.315-.403,1.44-.445,2.722-.125,3.845.33,1.12.941,2.045,1.834,2.774.627.518,1.325.88,2.093,1.085.778.214,1.402.25,1.872.106.467-.144.92-.482,1.358-1.013l.547-.672c.384-.464.594-.782.629-.955.048-.253.021-.486-.082-.701-.093-.208-.374-.506-.845-.893l-1.037-.854,2.098-2.558v.005ZM3018.705,1786.146l3.883,3.629-7.282,18.216c-.384.973-.546,1.643-.485,2.011.067.374.398.832.993,1.373l-2.237,2.39-8.184-7.646,2.232-2.395.509.451c.454.426.827.666,1.118.72.298.045.528-.019.691-.192.138-.15.346-.53.624-1.138l.96-2.05-5.271-4.925-2.28,1.147c-.48.246-.775.427-.883.542-.125.134-.192.298-.202.49,0,.202.085.426.254.672.109.166.481.547,1.118,1.142l-2.237,2.395-6.701-6.259,2.237-2.395c.432.403.781.659,1.046.768.269.112.534.152.797.12.272-.026.677-.168,1.214-.427l18.082-8.64h0ZM3009.47,1794.964l3.456,3.235,2.765-6.336-6.221,3.101h0ZM3034.277,1799.966l1.546,1.622-.413.72,9.211,9.682.773-.336,1.56,1.632-3.989,7.848-2.976-1.526c.515-1.459.819-2.443.912-2.952.186-1.005.181-1.954-.014-2.846-.144-.678-.416-1.226-.816-1.642-.186-.198-.362-.288-.528-.269-.16.013-.41.179-.749.499l-9.859,9.389c-.582.554-.928.922-1.037,1.104-.109.179-.162.362-.158.547.013.176.085.365.216.566.138.195.562.667,1.272,1.416l-2.371,2.256-7.958-8.362,2.371-2.256.48.499c.531.56.904.886,1.118.979.224.086.459.088.705.005.259-.09.667-.4,1.224-.931l10.085-9.595c.288-.272.437-.477.446-.614.013-.134-.083-.309-.288-.523-.403-.426-1.014-.749-1.834-.97s-1.715-.259-2.688-.115c-.384.054-1.36.318-2.928.792l-1.344-3.01,8.03-3.61h0Z"/>
    </g>
    <g id="mini-gb">
      <path class="cls-56" d="M1600,.1v1200H0V400.1C0,180.1,180,.1,400,.1h1200Z"/>
      <path id="Path" class="cls-63" d="M1534.9.1h65.1v255.8l-545.5,354.3,545.5,354.2v235.7h-96l-679-440.9-679,440.9H0v-203.2l595.5-386.7L31.6,243.9C65.5,164.1,124.5,97.6,198.7,54.3l626.3,406.7L1534.9.1Z"/>
      <path id="Path-2" class="cls-62" d="M0,1189.3v-119.2l708.2-460L60,189.3c17.8-28.7,39.2-54.9,63.4-78.2l676.6,439.4L1600,31.1v119.3l-708.2,459.7,708.2,460v119.2l-800-519.5L0,1189.3Z"/>
      <polygon id="Shape" class="cls-59" points="1000 400.1 1600 400.1 1600 800.1 1000 800.1 1000 1200.1 600 1200.1 600 800.1 0 800.1 0 400.1 600 400.1 600 .1 1000 .1 1000 400.1"/>
      <polygon id="Shape-2" class="cls-61" points="900 500.1 900 .1 700 .1 700 500.1 0 500.1 0 700.1 700 700.1 700 1200.1 900 1200.1 900 700.1 1600 700.1 1600 500.1 900 500.1"/>
    </g>
  </g>
</svg>