<?xml version="1.0" encoding="UTF-8"?>
<svg xmlns="http://www.w3.org/2000/svg" viewBox="0 0 3600.1 2401.738">
  <defs>
    <style>
      .cls-1 {
        fill: #008ce7;
      }

      .cls-1, .cls-2, .cls-3, .cls-4, .cls-5, .cls-6, .cls-7, .cls-8, .cls-9, .cls-10, .cls-11, .cls-12, .cls-13, .cls-14 {
        stroke-width: 0px;
      }

      .cls-1, .cls-2, .cls-3, .cls-4, .cls-5, .cls-6, .cls-7, .cls-10, .cls-12, .cls-14 {
        fill-rule: evenodd;
      }

      .cls-3 {
        fill: #ffde52;
      }

      .cls-4 {
        fill: #fdf9ff;
      }

      .cls-5 {
        fill: #9c8431;
      }

      .cls-6, .cls-8 {
        fill: #8c4200;
      }

      .cls-7 {
        fill: #92dbfc;
      }

      .cls-9 {
        fill: #fff;
      }

      .cls-10 {
        fill: #109421;
      }

      .cls-11, .cls-12 {
        fill: #dd2e44;
      }

      .cls-13 {
        fill: #bd0728;
      }

      .cls-14 {
        fill: #00297b;
      }
    </style>
  </defs>
  <g id="background">
    <path id="gu" class="cls-14" d="M400,.1h2800c220,0,400,180,400,400v1600c0,220-180,400-400,400H400C180,2400.1,0,2220.1,0,2000.1V400.1C0,180.1,180,.1,400,.1Z"/>
  </g>
  <g id="country">
    <g id="gu-2" data-name="gu">
      <path class="cls-7" d="M1801.196,590.063s-373.607,297.278-373.607,606.079,373.607,613.996,373.607,613.996c0,0,371.216-282.929,371.216-613.996s-371.216-606.079-371.216-606.079h0Z"/>
      <path class="cls-1" d="M1468.925,1384.635c97.228,233.525,332.271,425.502,332.271,425.502,0,0,239.222-182.328,333.589-425.52"/>
      <path class="cls-5" d="M2136.086,1317.238c-57.6,41.211-381.698,21.42-381.698,21.42l-18.121,46.138,385.904,1.196c1.608-6.329,5.463-13.854,6.803-20.245l7.112-48.509Z"/>
      <path class="cls-3" d="M1556.168,1508.201c16.41.536,32.758,3.999,47.437,11.875,26.244,13.771,41.458,13.668,69.743,14.101,29.604.453,52.838,22.244,84.833,23.151,58.94,1.649,83.72,30.923,37.891,30.903-21.646-.022-68.052-14.555-90.482-11.504-34.098,3.463-53.807,6.061-79.04,26.12-24.038-28.862-48.076-60.61-70.382-94.646h0ZM1672.77,1655.149c14.616-9.999,24.677-17.812,38.86-18.245,27.563-.845,36.964-17.894,68.815-17.874,36.201,6.638,85.266-4.35,113.984-10.72,50.983-11.751,26.8-47.416-4.061-60.362-24.945-10.679-71.701-.536-100.707-11.132-21.956-8.576-3.855-22.244,7.958-25.151,11.916-2.185,24.697,1.752,39.52,4.164,26.47,2.33,59.723-.144,82.978-3.752,48.055-7.36,46.076-21.461,69.269-21.791,16.925-.783,29.81-5.814,41.355-14.06,13.565-9.05,27.687-27.625,44.097-26.883l9.648.412c-101.346,196.055-283.362,324.758-283.362,324.758,0,0-58.816-45.024-128.353-119.365h0Z"/>
      <path class="cls-6" d="M1905.748,1511.541c6.288,24.326,12.947,32.593,38.51,38.84,25.234,6.247,63.785-18.286,39.891-42.097-22.739-22.141-46.695-27.81-67.063-47.746-31.604-31.336-74.959-96.11-95.553-157.359-22.533-66.96-18.616-255.469-17.606-350.961.021-1.113,2.742-1.773,3.051-2.226,1.464-2.103,2.866.68.577-13.318-.598-3.587-3.443-7.298-3.422-10.926.021-6.473-22.347,7.071-28.243,18.616-1.34,2.639,4.288,10.163,4.288,11.648.763,91.616-9.091,272.497,15.235,354.383,15.049,50.694,42.509,89.843,67.372,126.065,14.905,23.213,36.469,48.261,42.963,75.082h0Z"/>
      <g>
        <path class="cls-9" d="M1626.983,1243.311c-.289-.044-1.422-.185-2.515-.33-7.772-.948-16.08-4.226-22.162-8.762-8.659-6.453-14.39-16.781-16.307-29.46-.536-3.546-.516-12.679.021-16.163,1.526-9.792,5.113-18.43,10.267-24.739,1.526-1.855,4.453-4.7,6.247-6.04,4.226-3.216,9.689-5.731,15.441-7.133,4.123-1.031,6.659-1.34,11.607-1.484,6.886-.165,11.73.454,17.173,2.268,6.968,2.288,12.37,5.999,16.183,11.071,2.577,3.422,5.917,11.029,6.391,14.534.247,1.917-.515,3.34-2.206,4.061-.536.227-3.216,1.031-5.979,1.773-5.546,1.484-6.329,1.526-7.566.495-.825-.701-1.113-1.237-1.835-3.484-.33-.948-1.134-2.886-1.814-4.267-1.051-2.123-1.484-2.762-2.907-4.185-1.422-1.443-2.041-1.876-4.164-2.907-4.7-2.288-9.978-3.072-16.06-2.33-4.453.536-9.277,2.35-12.308,4.639-6.741,5.071-10.493,15.091-10.102,26.924.515,16.142,7.36,25.027,21.44,27.852,2.701.536,8.597.536,11.483,0,4.206-.783,10.37-3.195,13.854-5.422l1.258-.783v-5.133l.021-5.154-11.112-.082-11.112-.082-.701-.495c-.392-.289-.928-.825-1.196-1.216-.495-.68-.495-.783-.495-6.824.021-6.04.021-6.143.515-6.824.268-.392.825-.928,1.216-1.196l.701-.515,19.028.044,19.049.044.68.495c.392.268.928.866,1.216,1.319l.495.804.041,15.771c.041,16.802,0,17.482-1.01,18.698-.289.351-1.608,1.422-2.907,2.371-8.988,6.618-18.554,10.555-28.388,11.689-2.536.289-9.916.392-11.483.165v-.004ZM1726.536,1244.156c-9.957-.763-17.482-3.732-22.966-9.03-5.401-5.216-8.081-11.751-9.277-22.636-.35-3.03-.371-6.226-.35-30.841.041-26.512.062-27.501.474-28.305.227-.454.763-1.093,1.175-1.422l.783-.577,6.535-.062c6.308-.044,6.576-.044,7.504.412.577.289,1.154.804,1.464,1.278l.495.804.082,28.45c.062,25.069.103,28.718.412,30.697.825,5.154,1.649,7.071,4.061,9.483,3.03,3.01,6.185,4.123,12.163,4.329,5.504.165,9.277-.454,12.514-2.041,3.731-1.814,5.422-4.68,6.7-11.236.474-2.474.474-2.866.66-30.944.186-31.81.041-29.171,1.752-30.47l.804-.598h6.803c7.587.022,7.36-.022,8.576,1.587l.618.804.021,25.522c.021,25.605-.103,30.965-.783,35.789-1.464,10.266-4.865,16.76-11.421,21.832-2.206,1.711-3.113,2.288-5.278,3.36-3.319,1.67-7.154,2.804-11.504,3.422-2.268.33-9.71.557-12.019.392h0ZM1815.637,1242.775c-.289-.062-.928-.536-1.443-1.031-1.051-1.051-1.34-2.02-1.031-3.34.392-1.629,32.635-84.833,33.15-85.493,1.01-1.361,1.299-1.402,8.844-1.381,7.545,0,7.834.062,8.865,1.402.268.392,8.267,19.75,17.771,43.066,15.091,37.046,17.255,42.509,17.255,43.499,0,1.258-.495,2.123-1.67,2.969-.701.495-.722.495-8.267.474h-7.566l-.825-.639c-1.051-.804-1.031-.722-5.917-13.503-2.226-5.834-4.144-10.782-4.267-10.988-.186-.371-1.134-.392-15.152-.412-14.039-.022-14.967,0-15.111.351-.082.206-1.979,5.401-4.226,11.545-2.226,6.123-4.247,11.462-4.494,11.854-.247.392-.763.928-1.134,1.196-.68.495-.804.495-7.483.515-3.731.022-7.009-.022-7.298-.082h0ZM1863.939,1200.183c-.33-.928-8.329-22.327-8.535-22.842-.082-.227-.186-.124-.35.33-.371,1.113-8.555,22.945-8.659,23.131-.062.082,3.938.165,8.865.185h8.988l-.309-.804ZM1932.26,1242.692c-.948-.289-1.979-1.381-2.247-2.391-.144-.577-.186-14.699-.082-43.726l.144-42.86.577-.783c1.154-1.505,1.051-1.484,11.38-1.464,8.597.022,9.318.044,10.04.412.412.227.969.722,1.216,1.093.247.351,5.051,14.472,10.658,31.336,5.628,16.864,10.267,30.676,10.328,30.676s4.845-13.709,10.638-30.449c6.576-19.049,10.741-30.779,11.091-31.315,1.154-1.67,1.051-1.649,10.514-1.629,8.061,0,8.432.022,9.195.454.433.247,1.031.825,1.34,1.258l.536.825-.062,43.107c-.082,40.633-.103,43.148-.474,43.808-.206.371-.742.969-1.196,1.299l-.804.618-6.576-.022c-6.515,0-6.576,0-7.277-.515-.392-.268-.928-.804-1.196-1.196l-.515-.701-.062-24.739-.062-24.718-1.154,3.278c-.639,1.814-4.556,13.029-8.7,24.924-7.277,20.842-7.587,21.688-8.432,22.554-.515.536-1.154.948-1.587,1.031-.412.082-3.154.144-6.123.144-5.175-.022-5.443-.044-6.37-.515-.536-.268-1.175-.804-1.422-1.175-.248-.371-4.267-11.978-8.927-25.79-4.659-13.792-8.555-25.089-8.638-25.089-.103,0-.186,11.174-.227,24.862-.041,27.852.082,25.811-1.649,26.965l-.886.577-6.143.022c-3.381.022-6.453-.062-6.824-.185l-.021.021Z"/>
        <path class="cls-13" d="M1626.406,1239.497c-11.174-1.278-21.234-6.226-27.295-13.441-5.113-6.061-8.411-14.06-9.504-23.048-.35-2.969-.33-9.978.041-12.823,1.278-9.792,5.154-18.925,10.699-25.213,9.463-10.741,29.109-15.07,45.066-9.916,10.06,3.237,16.039,9.38,19.441,19.915.474,1.464.825,2.701.783,2.762-.124.082-8.7,2.412-9.339,2.536-.371.062-.557-.289-1.113-1.938-1.587-4.659-3.999-8.535-6.679-10.679-5.855-4.659-14.101-6.37-23.77-4.907-6.185.948-12.328,4.123-15.853,8.205-5.298,6.123-7.916,13.627-8.246,23.543-.309,9.813,1.464,17.296,5.566,23.481,6.659,10.06,22.162,14.555,35.954,10.431,4.412-1.319,9.215-3.608,12.596-6.02l1.567-1.113.021-7.937v-7.958l-12.452-.022-12.472-.022.021-4.865v-4.865l17.812.044,17.812.022-.041,15.503-.021,15.503-1.958,1.443c-8.019,5.896-16.06,9.463-24.656,10.988-3.175.557-10.761.763-13.977.392h0ZM1725.093,1240.259c-8.081-.886-14.369-3.484-18.822-7.813-4.061-3.938-6.391-8.823-7.607-15.936-.866-5.113-.928-7.752-.886-34.964l.041-26.656,5.463.022h5.443l.041,28.429c.041,30.243.021,29.748,1.175,34.304,1.464,5.814,5.793,10.122,11.978,11.916,4.948,1.443,11.627,1.464,17.255.062,6.679-1.67,10.267-5.257,12.081-12.06,1.402-5.216,1.381-4.721,1.526-34.84l.144-27.728,5.463.022h5.443l-.062,25.708c-.021,14.802-.144,27.151-.289,29.13-.928,13.029-4.309,20.08-12.204,25.419-3.113,2.123-7.339,3.731-11.998,4.597-2.02.371-11.875.639-14.184.392v-.002ZM1817.327,1237.909c.268-.68,7.545-19.544,16.183-41.932l15.73-40.695,5.896-.044,5.917-.062,16.946,41.644c9.318,22.904,17.008,41.829,17.09,42.056.144.392-.227.412-6.02.412l-6.185-.022-1.072-2.783c-.598-1.526-2.762-7.236-4.845-12.658l-3.773-9.854-17.771-.082-17.771-.103-4.618,12.699-4.618,12.699-5.793-.022h-5.772l.474-1.253ZM1869.567,1204.409c-.062-.227-2.494-6.721-5.381-14.431s-6.143-16.657-7.215-19.915c-1.072-3.237-2-5.937-2.041-5.999-.062-.062-.474,1.361-.907,3.154-1.422,5.958-2.783,10.04-7.855,23.44-2.742,7.319-5.071,13.483-5.154,13.709-.165.392.618.412,14.245.433,13.606.022,14.41,0,14.307-.392h0ZM1933.723,1197.111l.082-42.035,8.246.082,8.226.082,11.132,33.5c6.123,18.41,11.483,34.634,11.895,36.057.433,1.402.825,2.515.886,2.474.044-.062,1.422-4.041,3.051-8.865,1.649-4.803,7.215-20.966,12.39-35.912l9.421-27.171,7.38-.044,7.38-.044-.082,42.015-.082,42.035-5.216-.022h-5.216l.062-35.315c.044-19.42-.022-35.191-.145-35.067-.103.124-5.278,14.802-11.483,32.614-6.205,17.812-11.71,33.583-12.225,35.047l-.948,2.659h-9.854l-11.998-35.583c-6.597-19.564-12.081-35.727-12.184-35.933-.103-.185-.227,15.812-.268,35.562l-.082,35.892h-5.216l-5.216-.022.062-42.007Z"/>
      </g>
      <path class="cls-10" d="M1568.991,925.15c1.587,2.185,1.361,11.607,1.361,11.607,1.299.783,22.368-17.936,22.368-17.09.021,3.938.495,12.06.495,12.06,0,0,21.811-20.739,22.718-18.554,1.01,2.453-.082,14.472-.082,14.472,0,0,14.513-15.998,17.173-18.884,1.917-2.062,1.608,2.598,1.794,10.122.041,1.34,23.79-17.523,25.234-17.853,3.072-.66,4.02,9.792,3.855,12.411-.124,1.938,21.914-12.576,20.945-10.658l1.629,11.153c6.143-.845,20.781-6.308,29.583-4.886,2.824.454,2.68,1.876.165,2.907-42.427,17.173-75.061,43.066-94.069,79.143-6.473,12.287-8.452,23.007-6.741,25.708,0,0,7.628-16.41,16.224-18.987,1.154-.33,1.917,10.514,3.092,9.895,0,0,6.515-16.451,11.215-22.512,1.258-1.629,3.36,8.638,4.7,7.112,0,0,3.381-11.009,9.999-18.678.948-1.093,2.659,10.411,3.711,9.442,6.865-6.329,13.318-22.203,15.895-23.378,1.794-1.402,2.103,13.194,3.814,11.936,0,0,9.792-19.667,15.647-23.234,3.752-2.309,3.608,10.741,3.608,10.741,7.463-7.36,15.688-19.564,19.585-24.862,1.794-2.433.804,16.08,2.721,16.802,2.453.948,18.533-14.184,20.348-14.493,1.196-.206,2.598,4.309-.536,7.937-.247.289-19.873,22.925-19.873,22.925,3.814.722,5.298-.35,8.04.371,8.143,2.144-15.256,15.565-14.864,18.08,0,0,11.277-.206,7.504,1.979-2.721,1.587-17.626,20.781-17.626,20.1,0-.35,7.483.165,7.442,2.309-.062,3.979-12.39,24.491-12.514,24.368-.68-.68,6.618-.886,7.607,1.134,1.814,3.732-12.658,20.327-9.834,23.151.392.392,8.267.124,11.772.907,1.69.371,6.432,30.14,5.236,28.944-.268-.289,5.071-27.914,8.308-36.325,1.979-5.092,8.308,7.69,8.823,6.556-.268,0-1.278-18.162-.392-26.429.247-2.309,4.803,2.412,4.742.206-.165-5.01-.577-10.37.454-15.256.783-3.69,4.659,6.659,6.164,3.876,0,0-4.7-17.977-2.742-23.048,1.299-3.34,4.432,8.081,6.494,8.535,0,0-1.154-13.977,1.01-17.585l6.535,7.009c1.422-2.247,1.154-24.017,2.474-26.058,1.093-1.711,7.875,8.164,8.885,6.618.907-1.402-2.866-17.565-2.02-18.843,1.196-1.835,8.638,4.494,8.782,4.371,3.03-3.051,2.927-10.658,4.206-13.483,3.422-7.648,23.048-8.638,25.357-3.195,1.134,2.639.35,6.04-.103,10.143.186.165,9.834.866,9.916.124,0,0-1.154,9.009-.474,18.925.103,1.319,9.792-.33,9.916.99.886,9.339-1.258,10.205-1.258,10.205.082.68,6.535-.99,6.638-.268.701,4.556-.763,10.102-3.649,15.441-.433.763,9.236-.742,9.38.144,1.175,7.009,1.402,12.576.186,22.471-.103.804,9.463-6.989,9.607-6.185,1.443,8.329-.227,17.317.639,25.934.206,2,6.329-5.958,6.886-3.649.557,2.268-1.361,18.76-.433,19.688,0,0,10.246-.515,11.153.35,8.123,7.628,6.576,20.945,6.576,20.945,2.226-1.649,1.381-17.688-.866-32.367-.247-1.546,7.875-.948,7.628-2.391,0,0-8.906-5.36-11.833-20.286-.618-3.195,8.597-2.536,8.597-2.536-2.556-5.875-7.051-6.989-10.864-12.637-1.237-1.855,9.566-2.701,9.566-3.237.021-5.628-9.112-8.308-13.833-14.163-2.02-2.494,9.854-2.618,9.854-2.618-3.484-4.845-14.967-6.968-20.822-13.38-3.195-3.484,11.648-6.906,11.462-7.504-1.629-5.133-15.585-6.741-22.347-12.534-1.402-1.196,8.823-5.236,8.823-5.236-1.031-2.185-23.316-16.843-11.978-15.503,4.783.577,14.493,7.38,15.256,6.35,0,0-.412-8.555.577-9.586,3.731-3.876,16.596,16.451,20.966,15.627,0,0,1.608-14.555,3.587-14.946,4.7-.886,10.431,21.193,15.07,21.193.618,0,.969-12.761,3.36-13.462,2.701-.783,5.731,14.307,9.153,17.647,3.175,3.072,3.216-11.792,5.071-8.968,3.154,4.556,3.917,14.06,8.226,18.245,2.804,2.721,3.319-13.112,6.432-10.988,3.608,2.453,2.762,10.658,6.824,14.699,1.938,1.917,3.237-10.452,5.443-8.638,1.958,1.587,3.278,16.719,5.381,19.111,2.68,3.051,5.772-7.978,8.555-6.226,2,1.278,1.526,14.369,3.381,17.173,3.793,5.814,5.772-7.03,8.287-5.051,1.752,1.34,5.546,16.389,7.133,17.585,3.525,2.68,5.463-6.844,8.143-5.504,1.938.948,5.855,20.327,7.463,19.832,1.051-.33,3.649-44.159-13.215-62.651-27.481-30.14-76.69-47.54-116.849-47.973,0,0,20.183-4.02,20.719-7.36,1.072-6.659,11.091-5.875,18.08-4.35,1.237.268.577-11.772.742-11.833,6.247-.144,11.833,3.546,17.812,7.174,1.855,1.134-3.773-12.06-1.794-10.926,7.669,4.432,16.204,5.731,21.378,11.112,1.361,1.423-1.567-10.163-1.567-10.163,3.835-.928,11.4,4.597,14.369,9.772,1.443,2.556-.082-13.503,1.051-10.658,0,0,13.359,4.535,14.802,10.163,0,0,1.093-10.184,2.886-9.648,5.36,1.402,10.06,10.452,14.245,11.751,0,0-1.732-9.071-.371-8.72,10.06,2.536,20.987,8.762,20.966,8.72-5.669-14.184-27.171-29.047-65.001-33.026-6.947-.722-35.129-1.876-59.022,3.67-19.585,4.535-35.047,7.112-31.872,4.02,12.947-12.679,33.871-14.225,39.623-17.173,4.123-2.103-13.874-9.05-10.308-10.04,3.546-.845,19.626-2.185,19.626-2.185,3.484-2.721-11.689-8.04-9.421-11.998,4.535-7.937,31.356-.722,33.645-3.731.742-1.01-11.524-8.267-11.009-9.339,1.958-4.02,25.831,2.969,26.388-.536,0,0-7.236-5.401-12.39-9.834-.618-.536,21.317-6.432,21.317-6.432-.412-.412-3.752-2.762-8.782-4.721-4.597-1.794,19.255-7.999,19.255-7.999-30.222-13.813-108.665,25.481-124.23,66.259-4.041,9.731-4.164-.845-3.319-9.091.804-8.865,1.917-16.637.969-24.78-.289-2.412-6.411,6.411-6.824,4.061-1.567-8.659,3.072-18.162.948-27.769-.701-3.237-8.823,9.545-9.895,6.308-2.969-8.885,2.226-21.378.124-33.624-.825-4.783-8.514,10.246-11.091,5.958-3.01-4.968-1.69-23.378-3.113-26.161-1.154-2.226-7.999,8.823-8.576,6.741-9.277-33.748,3.051-37.953-14.761-18.925-.618.66-4.577-19.956-5.257-19.255-7.298,15.627-19.255-11.132-23.337-8.638-3.051,1.897,8.329,12.246,8.452,16.905.062,2.247-10.473,2.391-10.473,2.391.227,3.855,20.038,14.658,20.677,18.884.515,3.484-14.019,2.618-14.019,2.618.454,4.721,16.967,9.215,17.874,14.225.515,2.762-7.731,3.381-7.463,6.185.433,4.309,15.956,12.823,16.472,17.214.35,3.051-9.916,4.309-10.163,7.154-.309,3.443,20.616,14.988,20.636,18.224.021,4.577-8.329,2.226-12.122,4.535-5.339,3.237,17.132,16.348,18.08,20.08.742,3.278-8.988.392-9.318,3.381-.412,3.917,11.009,9.834,13.627,16.554,2.618,6.638-.062,8.329-3.814,5.69-7.525-5.298-37.871-37.541-45.932-46.138-11.71-12.493-35.686-26.491-59.6-27.316-2.494.763,12.864,11.627,12.967,15.565.021,1.01-6.906,2.515-6.597,2.824,4.247,4.247,17.461,9.298,17.461,9.298l-3.793,6.824c.886,2,7.154,2.536,17.193,5.834,0,0-7.525,4.659-6.968,5.092,5.319,4.247,15.627,7.38,15.627,7.38l-10.143,3.402c-.598,1.958,22.821,11.339,22.821,11.339,0,0-7.319,6.308-6.989,6.638,1.794,1.794,19.008,5.772,19.008,5.772.289.289-12.163,4.164-12.081,4.247,4.515,4.515,16.967,5.979,19.873,13.441,0,0,1.711,4.247-3.216,3.443-19.379-7.03-49.395-21.585-107.593-15.874-59.497,7.751-104.831,59.476-104.047,64.63,0,0,21.275-15.256,23.522-12.163h0Z"/>
      <g>
        <ellipse class="cls-8" cx="1784.327" cy="928.899" rx="12.575" ry="13.333" transform="translate(-218.444 1117.538) rotate(-32.882)"/>
        <ellipse class="cls-8" cx="1805.265" cy="940.921" rx="15.227" ry="14.362" transform="translate(34.858 1945.895) rotate(-57.11)"/>
        <ellipse class="cls-8" cx="1788.255" cy="952.826" rx="16.255" ry="15.332" transform="translate(17.088 1937.052) rotate(-57.11)"/>
      </g>
      <path class="cls-2" d="M1670.545,1437.138h18.946v14.163h-18.946v-14.163Z"/>
      <path class="cls-6" d="M1575.796,1446.251s124.457,9.483,200.776-6.906c0,0,6.411,4.35-2.804,15.111-9.215,10.741-32.531,13.05-45.334,15.359,0,0-3.072,6.906-2.824,10.493.268,3.587,8.081,3.216,11.916,2.433l3.835-.763s-1.794,13.441-48.9,15.235c-15.462.598-66.444,1.67-77.226-13.441,0,0,9.339.763,11.772,0,2.433-.763.66-10.493-.248-11.916-.886-1.402-33.047,0-49.931-15.627-4.185-4.453-6.185-9.195-6.185-10.885,0-.145,5.154.907,5.154.907ZM1640.653,1472.371s34.057,4.35,73.247,0c0,0,1.031,7.422-.763,10.246-1.794,2.824-47.004,4.989-69.804,1.031-3.67-1.175-3.793-5.669-2.68-11.277Z"/>
      <path class="cls-4" d="M1593.113,1440.19s46.179-49.106,32.037-151.566c0,0,48.117,12.39,97.161,83.164,0,0,14.307,14.369,31.13,65.619l-160.328,2.783Z"/>
      <path class="cls-12" d="M1801.269,554.439s-395.428,294.37-395.428,641.476,395.428,649.846,395.428,649.846c0,0,392.893-277.734,392.893-649.846s-392.893-641.476-392.893-641.476h0ZM1801.125,625.687s-351.785,261.88-351.785,570.682,351.785,578.144,351.785,578.144c0,0,349.538-247.078,349.538-578.145s-349.538-570.682-349.538-570.682h0Z"/>
      <path id="_테두리" data-name="테두리" class="cls-11" d="M400,100.1c-170,0-300,130-300,300v1600c0,170,130,300,300,300h2800c170,0,300-130,300-300V400.1c0-170-130-300-300-300H400ZM400,.1h2800c220,0,400,180,400,400v1600c0,220-180,400-400,400H400C180,2400.1,0,2220.1,0,2000.1V400.1C0,180.1,180,.1,400,.1Z"/>
    </g>
  </g>
</svg>