<?xml version="1.0" encoding="UTF-8"?>
<svg xmlns="http://www.w3.org/2000/svg" viewBox="0 0 3600.1 2401.738">
  <defs>
    <style>
      .cls-1 {
        fill: #009e49;
      }

      .cls-1, .cls-2, .cls-3, .cls-4 {
        stroke-width: 0px;
      }

      .cls-1, .cls-2, .cls-4 {
        fill-rule: evenodd;
      }

      .cls-2 {
        fill: #fcd116;
      }

      .cls-4 {
        fill: #ce1126;
      }
    </style>
  </defs>
  <g id="background">
    <path id="gw" class="cls-2" d="M400,.1h2800c220,0,400,180,400,400v1600c0,220-180,400-400,400H400C180,2400.1,0,2220.1,0,2000.1V400.1C0,180.1,180,.1,400,.1Z"/>
  </g>
  <g id="country">
    <g id="gw-2" data-name="gw">
      <path class="cls-1" d="M400,2400.1h2800c220,0,400-180,400-400v-800H0v800C0,2220.1,180,2400.1,400,2400.1Z"/>
      <path class="cls-4" d="M400,.1h1000v2400H400C179.086,2400.1,0,2221.01,0,2000.1V400.1C0,179.186,179.086.1,400,.1Z"/>
      <g>
        <g id="b">
          <path id="a" class="cls-3" d="M700,850.1l-108.156,332.87,166.435,54.078"/>
          <path id="a-2" data-name="a" class="cls-3" d="M700,850.1l108.156,332.87-166.435,54.078"/>
        </g>
        <g id="b-2" data-name="b">
          <path id="a-3" data-name="a" class="cls-3" d="M1032.87,1091.944h-350v175"/>
          <path id="a-4" data-name="a" class="cls-3" d="M1032.87,1091.944l-283.156,205.725-102.862-141.578"/>
        </g>
        <g id="b-3" data-name="b">
          <path id="a-5" data-name="a" class="cls-3" d="M905.725,1483.256l-108.156-332.87-166.435,54.078"/>
          <path id="a-6" data-name="a" class="cls-3" d="M905.725,1483.256l-283.156-205.725,102.862-141.578"/>
        </g>
        <g id="b-4" data-name="b">
          <path id="a-7" data-name="a" class="cls-3" d="M494.275,1483.256l283.156-205.725-102.862-141.578"/>
          <path id="a-8" data-name="a" class="cls-3" d="M494.275,1483.256l108.156-332.87,166.435,54.078"/>
        </g>
        <g id="b-5" data-name="b">
          <path id="a-9" data-name="a" class="cls-3" d="M367.13,1091.944l283.156,205.725,102.862-141.578"/>
          <path id="a-10" data-name="a" class="cls-3" d="M367.13,1091.944h350v175"/>
        </g>
      </g>
    </g>
  </g>
</svg>