<?xml version="1.0" encoding="UTF-8"?>
<svg xmlns="http://www.w3.org/2000/svg" viewBox="0 0 3600.1 2401.738">
  <defs>
    <style>
      .cls-1 {
        fill: #009e49;
      }

      .cls-1, .cls-2, .cls-3, .cls-4, .cls-5 {
        fill-rule: evenodd;
        stroke-width: 0px;
      }

      .cls-2 {
        fill: #fcd116;
      }

      .cls-3 {
        fill: #141414;
      }

      .cls-4 {
        fill: #ce1126;
      }

      .cls-5 {
        fill: #fff;
      }
    </style>
  </defs>
  <g id="background">
    <path id="gy" class="cls-1" d="M400,.1h2800c220,0,400,180,400,400v1600c0,220-180,400-400,400H400C180,2400.1,0,2220.1,0,2000.1V400.1C0,180.1,180,.1,400,.1Z"/>
  </g>
  <g id="country">
    <g id="gy-2" data-name="gy">
      <path id="Path" class="cls-5" d="M0,2000.339V399.861c.069-118.044,51.271-224.129,132.657-297.302l3467.343,1097.541L132.657,2297.641C51.271,2224.467.069,2118.383,0,2000.339Z"/>
      <path id="Path-2" data-name="Path" class="cls-2" d="M67.927,177.03l3232.073,1023.07L67.927,2223.17C25.075,2159.504.048,2082.842,0,2000.339V399.861c.048-82.504,25.075-159.165,67.927-222.831Z"/>
      <path id="Path-3" data-name="Path" class="cls-3" d="M0,2000.339V399.861c.069-118.044,51.271-224.129,132.657-297.302l1667.343,1097.541L132.657,2297.641C51.271,2224.467.069,2118.383,0,2000.339Z"/>
      <path id="Path-4" data-name="Path" class="cls-4" d="M61.285,187.229l1538.715,1012.871L61.285,2212.971C22.5,2151.387.046,2078.483,0,2000.339V399.861c.046-78.145,22.5-151.048,61.285-212.632h0Z"/>
    </g>
  </g>
</svg>