<?xml version="1.0" encoding="UTF-8"?>
<svg xmlns="http://www.w3.org/2000/svg" viewBox="0 0 3600.1 2401.738">
  <defs>
    <style>
      .cls-1 {
        fill-rule: evenodd;
      }

      .cls-1, .cls-2, .cls-3 {
        stroke-width: 0px;
      }

      .cls-1, .cls-3 {
        fill: #de2910;
      }

      .cls-2 {
        fill: #fff;
      }
    </style>
  </defs>
  <g id="background">
    <path id="hk" class="cls-1" d="M400,.1h2800c220,0,400,180,400,400v1600c0,220-180,400-400,400H400C180,2400.1,0,2220.1,0,2000.1V400.1C0,180.1,180,.1,400,.1Z"/>
  </g>
  <g id="country">
    <g id="hk-2" data-name="hk">
      <g id="a">
        <path class="cls-2" d="M1971.744,500.884c-58.736,18.803-91.108,81.661-72.305,140.397,3.025,9.448,7.295,18.451,12.697,26.771,54.346,83.692,30.556,195.594-53.136,249.94-8.887,5.771-18.264,10.749-28.024,14.876-78.64,33.256-115.431,123.967-82.175,202.607,8.814,20.843,22.097,39.497,38.911,54.645-120.856-85.99-151.143-252.641-68.272-375.656-1.545-1.324-3.026-2.721-4.436-4.188-84.771,124.872-55.103,294.488,67.02,383.172-185.271-74.204-275.308-284.55-201.104-469.82,62.547-156.166,224.583-248.516,390.824-222.744"/>
        <path class="cls-2" d="M2518.066,1147.369c-36.033-50.051-105.818-61.415-155.869-25.381-8.051,5.796-15.294,12.639-21.537,20.349-62.802,77.548-176.579,89.502-254.127,26.7-8.235-6.669-15.867-14.049-22.808-22.055-55.93-64.515-153.57-71.474-218.084-15.544-17.099,14.824-30.736,33.221-39.946,53.893,44.435-141.513,193.57-221.816,336.173-181.015.782-1.879,1.653-3.719,2.612-5.513-144.956-42.034-297.103,38.595-343.708,182.146,13.32-199.133,185.548-349.764,384.681-336.443,167.851,11.228,305.753,136.796,332.613,302.864"/>
        <path class="cls-2" d="M1250.067,1664.829c58.571,19.312,121.707-12.513,141.02-71.084,3.106-9.421,4.944-19.215,5.463-29.121,5.226-99.652,90.247-176.199,189.899-170.973,10.582.555,21.094,2.04,31.416,4.437,83.169,19.319,166.252-32.442,185.57-115.611,5.12-22.044,5.339-44.943.64-67.08,47.231,140.604-26.221,293.23-165.572,344.041.472,1.979.848,3.98,1.127,5.996,141.979-51.196,217.675-205.857,171.003-349.386,106.271,168.932,55.475,392.027-113.457,498.298-142.394,89.577-327.766,69.047-447.108-49.517"/>
        <path class="cls-2" d="M2072.045,1866.726c36.466-49.736,25.709-119.617-24.027-156.084-8-5.866-16.746-10.639-26.008-14.195-93.16-35.765-139.688-140.279-103.923-233.438,3.798-9.892,8.458-19.431,13.928-28.507,44.074-73.129,20.52-168.14-52.609-212.214-19.382-11.682-41.093-18.965-63.599-21.337,148.318-1.47,270.776,115.551,276.038,263.783,2.028.163,4.047.423,6.05.781-4.817-150.85-128.516-270.635-279.443-270.599,193.503-48.867,389.983,68.384,438.85,261.887,41.19,163.106-35.618,333.061-185.257,409.924"/>
        <path class="cls-2" d="M1188.078,820.692c-.268,61.672,49.51,111.884,111.182,112.152,9.92.043,19.802-1.236,29.384-3.803,96.39-25.824,195.463,31.381,221.287,127.771,2.742,10.235,4.579,20.692,5.488,31.249,7.328,85.068,82.229,148.09,167.297,140.762,22.547-1.942,44.393-8.811,63.995-20.12-119.128,88.368-286.981,65.675-378.367-51.154-1.736,1.06-3.523,2.037-5.354,2.925,92.564,119.209,263.047,143.408,385.129,54.667-127.824,153.272-355.698,173.903-508.97,46.079-129.195-107.744-166.953-290.387-91.071-440.527"/>
      </g>
      <g id="b">
        <path class="cls-3" d="M1514.042,1580.213l117.465,25.908-79.804-90,11.662,119.719,60.937-103.709"/>
        <path class="cls-3" d="M1807.92,724.5l-110.26,48.084,117.464,25.904-79.804-90,11.66,119.72"/>
        <path class="cls-3" d="M2254.77,1060.664l-79.803-90.005,11.662,119.72,60.934-103.71-110.257,48.085"/>
        <path class="cls-3" d="M2073.143,1589.524l60.939-103.71-110.256,48.087,117.463,25.904-79.803-90.002"/>
        <path class="cls-3" d="M1350.125,1045.599l11.658,119.722,60.935-103.71-110.256,48.087,117.464,25.906"/>
      </g>
    </g>
  </g>
</svg>