<?xml version="1.0" encoding="UTF-8"?>
<svg xmlns="http://www.w3.org/2000/svg" viewBox="0 0 3600.1 2401.738">
  <defs>
    <style>
      .cls-1, .cls-2, .cls-3 {
        stroke-width: 0px;
      }

      .cls-1, .cls-3 {
        fill: #00bce4;
      }

      .cls-2 {
        fill: #eee;
      }

      .cls-3 {
        fill-rule: evenodd;
      }
    </style>
  </defs>
  <g id="background">
    <path id="hn" class="cls-3" d="M400,.1h2800c220,0,400,180,400,400v1600c0,220-180,400-400,400H400C180,2400.1,0,2220.1,0,2000.1V400.1C0,180.1,180,.1,400,.1Z"/>
  </g>
  <g id="country">
    <g id="hn-2" data-name="hn">
      <path class="cls-2" d="M3600,2000.1V800.1H0v1200C0,2220.1,180,2400.1,400,2400.1h2800c220,0,400-180,400-400Z"/>
      <path class="cls-1" d="M3600,2000.1v-400H0v400C0,2220.1,180,2400.1,400,2400.1h2800c220,0,400-180,400-400Z"/>
      <g id="b">
        <path id="a" class="cls-1" d="M2466.667,866.767l78.4,241.2-205.2-149.067h253.6l-205.2,149.067,78.4-241.2Z"/>
        <path id="a-2" data-name="a" class="cls-1" d="M2466.667,1266.767l78.4,241.2-205.2-149.067h253.6l-205.2,149.067,78.4-241.2Z"/>
      </g>
      <path id="a-3" data-name="a" class="cls-1" d="M1800,1066.767l78.4,241.2-205.2-149.067h253.6l-205.2,149.067,78.4-241.2Z"/>
      <g id="b-2" data-name="b">
        <path id="a-4" data-name="a" class="cls-1" d="M1133.333,866.767l78.4,241.2-205.2-149.067h253.6l-205.2,149.067,78.4-241.2Z"/>
        <path id="a-5" data-name="a" class="cls-1" d="M1133.333,1266.767l78.4,241.2-205.2-149.067h253.6l-205.2,149.067,78.4-241.2Z"/>
      </g>
    </g>
  </g>
</svg>