<?xml version="1.0" encoding="UTF-8"?>
<svg xmlns="http://www.w3.org/2000/svg" viewBox="0 0 3600.1 2401.738">
  <defs>
    <style>
      .cls-1, .cls-2, .cls-3, .cls-4, .cls-5, .cls-6, .cls-7, .cls-8, .cls-9, .cls-10, .cls-11, .cls-12, .cls-13, .cls-14, .cls-15, .cls-16, .cls-17, .cls-18, .cls-19, .cls-20, .cls-21, .cls-22, .cls-23, .cls-24, .cls-25, .cls-26, .cls-27, .cls-28, .cls-29, .cls-30, .cls-31, .cls-32, .cls-33, .cls-34, .cls-35, .cls-36, .cls-37, .cls-38, .cls-39, .cls-40, .cls-41, .cls-42, .cls-43, .cls-44, .cls-45, .cls-46, .cls-47, .cls-48, .cls-49, .cls-50, .cls-51, .cls-52, .cls-53, .cls-54 {
        stroke: #000;
      }

      .cls-1, .cls-2, .cls-23, .cls-43, .cls-51 {
        stroke-width: 2.268px;
      }

      .cls-1, .cls-55, .cls-24, .cls-26, .cls-42, .cls-44, .cls-45, .cls-53 {
        fill: #d20014;
      }

      .cls-2, .cls-6, .cls-9, .cls-14, .cls-15, .cls-17, .cls-56, .cls-22, .cls-27, .cls-33, .cls-35, .cls-38, .cls-43, .cls-48 {
        fill: #f1b517;
      }

      .cls-3, .cls-8, .cls-9, .cls-10, .cls-20, .cls-24, .cls-26, .cls-30, .cls-34, .cls-36, .cls-41, .cls-48 {
        stroke-width: .6px;
      }

      .cls-3, .cls-12, .cls-25, .cls-57, .cls-39, .cls-51 {
        fill: #0a328c;
      }

      .cls-4, .cls-6, .cls-8, .cls-9, .cls-16, .cls-20, .cls-22, .cls-26, .cls-36, .cls-43, .cls-49, .cls-53 {
        stroke-linecap: round;
      }

      .cls-4, .cls-8, .cls-10, .cls-11, .cls-13, .cls-28, .cls-29, .cls-31, .cls-46, .cls-54 {
        fill: none;
      }

      .cls-4, .cls-40, .cls-54 {
        stroke-width: 1.148px;
      }

      .cls-5, .cls-14, .cls-19, .cls-31, .cls-39, .cls-45, .cls-49 {
        stroke-width: 1.2px;
      }

      .cls-5, .cls-16, .cls-18, .cls-20, .cls-21, .cls-23, .cls-58, .cls-32, .cls-41, .cls-47, .cls-49, .cls-52 {
        fill: #fff;
      }

      .cls-6, .cls-16, .cls-53 {
        stroke-width: .6px;
      }

      .cls-7, .cls-12, .cls-44, .cls-46, .cls-47 {
        stroke-width: 1.058px;
      }

      .cls-7, .cls-50 {
        fill: green;
      }

      .cls-8 {
        isolation: isolate;
        opacity: .98;
      }

      .cls-11 {
        stroke-width: 2.4px;
      }

      .cls-13, .cls-37 {
        stroke-width: 4px;
      }

      .cls-15 {
        stroke-width: 1.023px;
      }

      .cls-15, .cls-33 {
        stroke-miterlimit: 3.409;
      }

      .cls-55, .cls-59, .cls-56, .cls-58, .cls-57, .cls-60, .cls-61, .cls-62 {
        stroke-width: 0px;
      }

      .cls-17, .cls-29 {
        stroke-width: 4.913px;
      }

      .cls-18, .cls-25, .cls-27 {
        stroke-width: 1.301px;
      }

      .cls-19, .cls-60, .cls-37, .cls-40 {
        fill: #016a16;
      }

      .cls-21 {
        stroke-width: 1.16px;
      }

      .cls-22 {
        stroke-width: 2.268px;
      }

      .cls-28 {
        stroke-width: 1.3px;
      }

      .cls-32 {
        stroke-width: .601px;
      }

      .cls-33 {
        stroke-width: .511px;
      }

      .cls-34 {
        fill: #f1b617;
      }

      .cls-35 {
        stroke-width: .629px;
      }

      .cls-36 {
        fill: #f4cf0e;
      }

      .cls-38 {
        stroke-width: .5px;
      }

      .cls-42 {
        stroke-width: 1.149px;
      }

      .cls-61 {
        fill: #00209f;
      }

      .cls-61, .cls-62 {
        fill-rule: evenodd;
      }

      .cls-62 {
        fill: #d21c33;
      }

      .cls-50 {
        stroke-width: .657px;
      }

      .cls-52 {
        stroke-width: 1.249px;
      }
    </style>
  </defs>
  <g id="background">
    <path id="ht" class="cls-61" d="M400,.1h2800c220,0,400,180,400,400v1600c0,220-180,400-400,400H400C180,2400.1,0,2220.1,0,2000.1V400.1C0,180.1,180,.1,400,.1Z"/>
  </g>
  <g id="country">
    <g id="ht-2" data-name="ht">
      <path id="b" class="cls-62" d="M400,2400.1h2800c220,0,400-180,400-400v-800H0v800C0,2220.1,180,2400.1,400,2400.1Z"/>
      <g>
        <path class="cls-58" d="M1420.688,889.756h758.624v620.688h-758.624v-620.688Z"/>
        <path class="cls-60" d="M1798.458,1328.562v.338c-16.311,1.721-191.494,20.908-239.097,56.442-49.922,37.264-138.667,76.302-138.667,76.302v47.914h758.628v-47.914s-88.745-39.038-138.664-76.299c-47.606-35.54-222.786-54.724-239.097-56.445v-.338l-1.552.171s-1.552-.171-1.552-.171Z"/>
        <g>
          <path class="cls-5" d="M1671.73,1438.312c-2.097-5.307-19.287-4.9-32.705-.817-13.418,4.079-20.963,2.858-49.895,3.262-28.929.41-45.283,6.941-47.798,7.758-2.515.814-46.119,21.63-62.892,26.937-16.772,5.307-32.705,0-32.705,0,0,0,19.287,18.368,46.541,3.672,0,0-22.642,12.244-37.317,13.879,0,0,21.902,4.469,40.409-3.316,1.658-.696,3.289-1.493,4.875-2.398,11.587-5.606,21.913-9.954,31.237-13.327,53.053-19.209,73.687-6.978,110.065-16.061"/>
          <path class="cls-52" d="M1671.633,1437.529c-2.487,4.691-16.755,2.061-25.924,4.967,2.211,1.89,8.505,5.212,26.21,8.508,2.936-10.728-.287-13.475-.287-13.475Z"/>
          <path class="cls-31" d="M1529.451,1472.977c-17.038,5.606-25.267,10.768-34.591,14.144M1527.354,1469.87c-14.786,5.112-23.277,10.021-32.346,13.425M1525.257,1466.766c-12.533,4.621-21.284,9.271-30.104,12.698M1523.163,1463.658c-10.284,4.13-19.294,8.525-27.862,11.979M1521.066,1460.555c-8.485,3.867-17.024,7.619-25.616,11.256"/>
          <path class="cls-46" d="M1549.426,1464.761s23.861-7.015,42.323-4.822M1552.124,1460.376s22.403-6.137,42.102-4.493M1554.829,1455.994s20.935-5.26,41.87-4.163M1557.53,1451.609s19.474-4.382,41.649-3.834M1560.232,1447.227s18.009-3.507,41.421-3.507"/>
          <path class="cls-31" d="M1623.718,1443.283s10.768-2.556,21.591-4.079c9.224-1.298,18.493-1.85,21.184.572M1621.693,1447.009s12.575-1.369,22.721-3.827M1619.665,1450.735s14.389-.182,23.854-3.575M1617.641,1454.458s16.199,1.009,24.984-3.319M1615.599,1457.831s18.033,1.957,26.145-2.741"/>
        </g>
        <path class="cls-17" d="M1707.099,1131.15l26.069,53.655,5.959-2.901,46.549,85.558.373-14.5-44.153-75.652,2.07-1.568-2.978-3.264-1.444.803-.046-.078s-2.98-.361-3.352.727l-29.048-42.781Z"/>
        <path class="cls-23" d="M1707.099,1131.15l26.069,53.655,5.959-2.901-3.141-8.212-28.888-42.542ZM1759.908,1208.173c-1.515.534-3.77,1.404-5.231,2.313l6.426,11.813c1.065-.77,3.124-2.073,5.207-2.327.143-.015.278-.072.387-.164l-6.79-11.636Z"/>
        <path class="cls-13" d="M1740.988,1172.48l-1.344.747,2.297,4.048,2.024-1.532-2.978-3.264Z"/>
        <path class="cls-29" d="M1707.099,1131.15l26.069,53.655,5.959-2.901,46.549,85.558.373-14.5-44.153-75.652,2.07-1.568-2.978-3.264-1.444.803-.046-.078s-2.98-.361-3.352.727l-29.048-42.781Z"/>
        <path class="cls-17" d="M1724.159,1110.884l20.443,55.918,6.227-2.308,37.553,89.65,1.857-14.392-36.184-79.56,2.221-1.359-2.629-3.536-1.519.658-.037-.082s-2.928-.649-3.41.398l-24.521-45.387Z"/>
        <path class="cls-23" d="M1724.159,1110.884l20.443,55.918,6.227-2.308-2.284-8.476-24.386-45.134Z"/>
        <path class="cls-13" d="M1753.646,1155.297l-1.413.613,1.871,4.251,2.171-1.328-2.629-3.536Z"/>
        <path class="cls-29" d="M1724.159,1110.884l20.443,55.918,6.227-2.308,37.553,89.65,1.857-14.392-36.184-79.56,2.221-1.359-2.629-3.536-1.519.658-.037-.082s-2.928-.649-3.41.398l-24.521-45.387Z"/>
        <path class="cls-41" d="M1724.171,1110.894l20.441,55.918,6.229-2.307-2.284-8.474-24.386-45.137Z"/>
        <path class="cls-46" d="M1753.66,1155.307l-1.416.612,1.872,4.254,2.169-1.328-2.625-3.538Z"/>
        <path class="cls-23" d="M1763.062,1180.141c-1.801.48-3.41,1.584-4.645,2.625l4.947,11.809c1.484-.892,3.437-1.699,5.201-2.337l-5.502-12.096Z"/>
        <path class="cls-28" d="M1724.171,1110.894l20.441,55.918,6.229-2.307,37.552,89.651,1.859-14.393-36.184-79.559,2.218-1.359-2.626-3.538-1.52.659-.038-.084s-2.926-.646-3.41.4l-24.521-45.389Z"/>
        <path class="cls-17" d="M1746.372,1104.079l16.23,57.214,6.382-1.863,30.787,92.065,2.922-14.224-30.172-81.905,2.316-1.199-2.359-3.713-1.564.55-.031-.085s-2.872-.853-3.43.157l-21.081-46.998Z"/>
        <path class="cls-23" d="M1746.372,1104.079l16.23,57.214,6.382-1.863-1.647-8.615-20.965-46.736Z"/>
        <path class="cls-13" d="M1772.478,1150.455l-1.455.512,1.55,4.372,2.264-1.172-2.359-3.713Z"/>
        <path class="cls-29" d="M1746.372,1104.079l16.23,57.214,6.382-1.863,30.787,92.065,2.922-14.224-30.172-81.905,2.316-1.199-2.359-3.713-1.564.55-.031-.085s-2.872-.853-3.43.157l-21.081-46.998Z"/>
        <path class="cls-41" d="M1746.415,1104.075l16.228,57.212,6.384-1.862-1.647-8.613-20.965-46.737Z"/>
        <path class="cls-46" d="M1772.523,1150.45l-1.458.511,1.551,4.375,2.263-1.172-2.355-3.714Z"/>
        <path class="cls-23" d="M1780.11,1175.832c-1.832.352-3.519,1.339-4.828,2.291l4.055,12.127c1.547-.785,3.554-1.452,5.361-1.965l-4.588-12.452Z"/>
        <path class="cls-28" d="M1746.415,1104.075l16.228,57.212,6.384-1.862,30.785,92.062,2.924-14.224-30.171-81.901,2.313-1.199-2.356-3.714-1.565.55-.032-.087s-2.87-.85-3.431.159l-21.08-46.998Z"/>
        <g>
          <path class="cls-55" d="M1697.119,1295.104l5.5,52.975,69.183-4.489-74.682-48.486Z"/>
          <path class="cls-57" d="M1564.247,1236.654s5.033,84.489,31.451,126.939l107.761-15.513-2.936-51.429-136.272-90.203-.004,30.205Z"/>
          <path class="cls-12" d="M1665.129,1106.897c6.436,2.754,12.236.552,12.236.552,0,0,2.829,3.578-4.809,3.992,0,0-3.04.276-.991,3.581"/>
          <path class="cls-45" d="M1656.075,1100.494s11.528-9.157,18.814-8.609c7.286.552,7.638.417,8.277,1.655.636,1.241,1.907,6.954-1.347,11.155-3.251,4.2-4.595,3.168-5.161,2.27-.567-.895-5.161-3.511-13.863-1.581"/>
          <path class="cls-51" d="M1674.218,1091.864c.232-.002.463.006.695.023,7.285.551,7.639.413,8.276,1.652.439.853,1.176,3.828.534,6.969-1.088-1.014-3.329-1.979-7.96-1.736-9.195.482-14.571,4.133-14.571,4.133l-.909.632-4.183-3.043s10.819-8.593,18.119-8.63h0Z"/>
          <path class="cls-55" d="M1790.554,1310.742l-82.462-73.146c-18.406,7.866-16.99,22.161-4.242,40.136l-.384,18.008,67.435,45.762,18.5-4.5.77-16.505.384-9.756ZM1788.039,1263.638l-50.534-63.39-12.782,27.613,3.994,26.056,60.321,55.222-.999-45.5Z"/>
          <path class="cls-57" d="M1737.304,1201.414s-10.188,22.75-8.588,52.111l-61.527-55.804-29.361-25.861.601.387,3.793-17.887,1.796-10.112,4.795,1.167v-5.831l.801-5.058,4.194-7.97,3.396-8.555.798-7.197-1.596-8.555,2.197.975,78.7,98.189Z"/>
          <path class="cls-12" d="M1555.134,1205.695s-5.994,5.831-6.792,19.054c-.798,13.223-.601,22.363-.601,22.363,0,0,9.79,5.636,18.976,3.302,0,0-1.596-3.887-1.796-9.332-.2-5.448.2-33.639.2-33.639l-9.987-1.749Z"/>
          <path class="cls-1" d="M1560.749,1207.441l4.392.285c-.009.534-.394,27.962-.197,33.353.199,5.445,1.798,9.333,1.798,9.333-3.362.854-6.799.635-9.812.021-.072-1.059-1.167-17.22-.974-25.687.199-8.749,4.793-17.306,4.793-17.306h0Z"/>
          <path class="cls-56" d="M1482.994,1446.417c-1.838-4.654-6.802-5.727-6.802-5.727,0,0-.366-.36,1.106-3.76,1.468-3.4.736-5.905.736-5.905-.553-18.079,1.285-22.911,1.285-22.911-1.285,0-7.172,6.8-7.172,6.8.187-17.184,26.297-25.238,26.297-25.238-9.562,23.628-5.887,26.315-5.887,26.315-6.066-2.509-6.802-6.443-6.802-6.443-1.106,6.443-.183,18.97-.183,18.97,0,0-.37,5.909,5.331,3.043,5.7-2.862,28.687-13.603,28.687-13.603l2.391,4.654-31.627,14.319s-4.595,1.971-3.31,5.371c1.285,3.4,2.021,3.935,2.021,3.935l-6.07.182Z"/>
          <path class="cls-31" d="M1485.571,1428.516s-.919-12.527.183-18.97c0,0,.736,3.935,6.806,6.443,0,0-3.679-2.687,5.883-26.315,0,0-26.11,8.057-26.297,25.238,0,0,5.887-6.8,7.172-6.8,0,0-1.838,4.832-1.285,22.911"/>
          <path class="cls-10" d="M1482.994,1446.417c-1.838-4.654-6.802-5.727-6.802-5.727,0,0-.366-.36,1.106-3.76,1.468-3.4.736-5.905.736-5.905-.553-18.079,1.285-22.911,1.285-22.911-1.285,0-7.172,6.8-7.172,6.8.187-17.184,26.297-25.238,26.297-25.238-9.562,23.628-5.887,26.315-5.887,26.315-6.066-2.509-6.802-6.443-6.802-6.443-1.106,6.443-.183,18.97-.183,18.97,0,0-.37,5.909,5.331,3.043,5.7-2.862,28.687-13.603,28.687-13.603l2.391,4.654-31.627,14.319s-4.595,1.971-3.31,5.371c1.285,3.4,2.021,3.935,2.021,3.935"/>
          <path class="cls-48" d="M1531.172,1411.648c.726,0,2.176.161,3.375,1.079.671.506,1.123,1.238,1.268,2.051.155.891-.035,1.937-.632,3.151-1.244,2.522-3.721,3.447-5.749,3.709-1.245.158-2.508.132-3.745-.077l.3-1.483s1.499.286,3.24.057c1.741-.225,3.582-.908,4.546-2.862.504-1.026.594-1.749.508-2.246-.07-.443-.32-.841-.694-1.103-.732-.562-2.038-.757-2.418-.757-.636,0-1.188-.101-2.225.407-1.036.504-2.522,1.671-4.501,4.294l-1.254-.898c2.066-2.744,3.707-4.093,5.061-4.748,1.351-.659,2.453-.572,2.919-.572v-.003Z"/>
          <path class="cls-48" d="M1528.782,1427.803s-.736-11.814-8.46-15.933c0,0-1.838.182-2.021,1.614-.183,1.429,7.172,13.959,7.172,13.959l3.31.36Z"/>
          <path class="cls-38" d="M1527.907,1426.475s-.611-9.843-7.047-13.273c0,0-1.53.148-1.686,1.345-.152,1.19,5.976,11.629,5.976,11.629l2.757.299Z"/>
          <ellipse class="cls-9" cx="1598.664" cy="1397.64" rx="8.26" ry="8.04"/>
          <path class="cls-55" d="M1492.515,1313.963s-13.922.78-13.76,7.476c.159,6.699,2.239,13.24-2.401,14.487-4.64,1.244-14.24,1.244-16.641,3.736-2.397,2.492-2.397,5.297-2.397,5.297,0,0,11.998-4.204,17.28-1.244,5.279,2.959,10.806-1.715,11.677-3.272,1.924-3.43.801-10.122,4.484-11.37,3.679-1.244,15.359-1.402,15.359-1.402l-13.601-13.707Z"/>
          <path class="cls-57" d="M1593.532,1221.773c-2.176-36.544,4.353-79.441,4.353-79.441l.546-6.356,112.621,104.865s-7.631,11.141-6.502,55.602l-8.733-5.818-102.285-68.852Z"/>
          <path class="cls-46" d="M1593.532,1221.773c-2.176-36.544,4.353-79.441,4.353-79.441l.546-6.356"/>
          <g>
            <path class="cls-14" d="M1623.663,1056.293l15.076,34.224s4.384-4.338,7.932.161l3.538,4.483M1623.718,1056.252l29.102,24.169s-5.552,2.791-2.194,7.422l3.344,4.621-3.762,2.697"/>
            <g>
              <path class="cls-14" d="M1661.737,1084.887l-20.708,14.746,5.436,7.233,20.708-14.746-5.436-7.233Z"/>
              <path class="cls-48" d="M1661.276,1087.11l-17.931,12.769,3.58,4.763,17.931-12.769-3.58-4.763Z"/>
            </g>
          </g>
          <g>
            <path class="cls-14" d="M1556.729,1098.696l20.458,31.465s3.622-4.96,7.858-1.064l4.223,3.88M1556.777,1098.647l32.669,19.373s-5.027,3.612-.958,7.667l4.054,4.046-3.275,3.243"/>
            <g>
              <path class="cls-15" d="M1598.982,1121.06l-18.046,17.755,6.545,6.303,18.046-17.755-6.545-6.303Z"/>
              <path class="cls-33" d="M1598.889,1123.326l-15.626,15.374,4.31,4.151,15.626-15.374-4.31-4.151Z"/>
            </g>
          </g>
          <g>
            <path class="cls-14" d="M1513.169,1170.256l25.695,27.587s2.695-5.491,7.554-2.359l4.843,3.118M1513.208,1170.201l35.597,13.637s-4.317,4.398.406,7.713l4.707,3.31-2.656,3.742"/>
            <g>
              <path class="cls-14" d="M1558.727,1185.238l-14.653,20.502,7.558,5.118,14.653-20.502-7.558-5.118Z"/>
              <path class="cls-48" d="M1559.035,1187.487l-12.688,17.753,4.977,3.371,12.688-17.753-4.977-3.371Z"/>
            </g>
          </g>
          <path class="cls-14" d="M1657.678,1098.907l130.827,161.748-2.038,1.557-130.827-161.748,2.038-1.557ZM1601.184,1138.444l189.162,170.804-1.762,1.853-189.162-170.817,1.762-1.839ZM1570.735,1206.842l201.378,134.176-1.465,2.082-201.381-134.172,1.468-2.085Z"/>
          <path class="cls-12" d="M1592.299,1140.691s18.983-3.531,23.606-.8-8.091,2.892-10.568,2.085l4.788,4.664s10.896-2.573,12.713-12.537c1.814-9.964-5.448-9.964-7.099-9.803-1.651.161-11.228,1.607-23.443,16.391h.004Z"/>
          <path class="cls-24" d="M1619.552,1130.222c2.087.605,3.659,2.031,3.12,4.684,0,0-.826,3.053-1.651,4.661-.066-.108-.151-.204-.252-.282-.625.952-1.337,1.792-2.094,2.532-.611-.225-1.233-.424-1.862-.595.235-.35.01-.79-.909-1.332-.515-.303-1.209-.525-2.028-.689-3.448-1.288-8.606.047-9.694-.114l-5.78.319s17.204-10.324,21.149-9.181v-.003Z"/>
          <path class="cls-10" d="M1599.888,1138.764s21.16-6.157,21.16-.212"/>
          <path class="cls-31" d="M1592.299,1140.691s18.983-3.531,23.606-.8-8.091,2.892-10.568,2.085l4.788,4.664s10.896-2.573,12.713-12.537c1.814-9.964-5.448-9.964-7.099-9.803-1.651.161-11.228,1.607-23.443,16.391h.004Z"/>
          <path class="cls-3" d="M1594.769,1140.543c.494,2.32,1.04,5.367.76,6.732-6.184,15.375-14.589,15.708-11.297,34.389l-6.508-.178c-.705-8.666.701-16.875,2.342-20.524.819-1.826,2.636-3.992,4.626-6.104,1.993-2.109,4.159-4.16,5.683-5.757,3.047-3.195.936-7.297.936-7.297l3.458-1.261Z"/>
          <path class="cls-44" d="M1598.807,1139.067s1.147,2.939,1.147,7.062c0,2.061-.287,4.415-1.147,6.85-.86,2.431-1.589,4.843-2.187,7.509-1.199,5.34-1.872,11.726-2.028,21.455l-10.357-.279c-3.296-18.681,5.113-19.014,11.293-34.389.28-1.365-.266-4.412-.76-6.732l4.038-1.476Z"/>
          <path class="cls-31" d="M1591.311,1141.804s2.107,4.103-.936,7.297c-1.523,1.597-3.69,3.649-5.683,5.757-1.99,2.112-3.807,4.278-4.629,6.104-1.637,3.649-3.04,11.858-2.339,20.524M1577.723,1181.486l16.866.457c.159-9.732.836-16.118,2.031-21.455.576-2.543,1.306-5.05,2.187-7.509.769-2.206,1.157-4.521,1.147-6.85,0-4.123-1.147-7.062-1.147-7.062l-7.497,2.737"/>
          <path class="cls-10" d="M1589.203,1181.715s-2.346-10.264,3.043-19.384c5.424-9.329,7.047-23.52,4.218-22.582"/>
          <path class="cls-35" d="M1608.062,1330.694l14.572,24.818,57.571,4.17,5.441.713s8.409,19.296,17.747,21.869c9.338,2.569,71.787,21.529,71.787,21.529l1.924-13.899-40.471-12.712s-11.874-4.251-15.408-8.757c-3.527-4.506-32.968-31.947-32.968-31.947l-80.196-5.784Z"/>
          <g>
            <path class="cls-14" d="M1633.861,1267.407l83.682,135.763-1.776,1.039-83.682-135.763,1.776-1.039Z"/>
            <path class="cls-5" d="M1635.547,1272.892s-2.363,2.176-5.296-1.308c-2.936-3.484-11.511-17.86-13.152-20.473-1.641-2.616-3.755-4.792-.967-6.537,2.781-1.742,6.685.437,9.894,6.971,3.206,6.534,13.749,17.86,9.521,21.348h0Z"/>
          </g>
          <path class="cls-2" d="M1561.503,1291.533c-3.125-.41-8.461,5.541-9.89,15.881s-.055,19.054,3.07,19.461c1.143.142,2.417-.864,3.654-2.885l167.058,21.874,3.516-30.724-165.742-19.17c-.542-3.956-.097-4.225-1.668-4.438h0Z"/>
          <path class="cls-36" d="M1722.287,1314.542s-.965,1.531-1.362,2.52M1718.675,1314.129s-.969,1.53-1.362,2.522M1715.058,1313.718s-.965,1.531-1.361,2.517M1711.446,1313.305s-.969,1.53-1.362,2.52M1707.83,1312.891s-.965,1.531-1.362,2.52M1704.217,1312.478s-.965,1.531-1.362,2.522M1700.604,1312.067s-.969,1.53-1.361,2.517M1696.988,1311.654s-.965,1.531-1.362,2.52M1693.376,1311.241s-.969,1.53-1.362,2.52M1689.76,1310.827s-.965,1.531-1.362,2.52M1686.147,1310.416s-.969,1.53-1.361,2.517M1682.531,1310.003s-.965,1.531-1.362,2.52M1678.919,1309.59s-.969,1.53-1.362,2.52M1675.303,1309.176s-.965,1.531-1.362,2.52M1671.69,1308.765s-.965,1.531-1.361,2.517M1668.078,1308.352s-.969,1.53-1.362,2.52M1664.462,1307.939s-.965,1.531-1.362,2.52M1660.849,1307.525s-.969,1.53-1.362,2.52M1657.233,1307.112s-.966,1.533-1.362,2.522M1653.62,1306.701s-.969,1.53-1.361,2.517M1650.004,1306.288s-.965,1.531-1.362,2.52M1646.392,1305.874s-.969,1.53-1.362,2.52M1642.776,1305.461s-.966,1.533-1.362,2.522M1639.163,1305.05s-.965,1.531-1.361,2.517M1635.551,1304.637s-.969,1.53-1.362,2.52M1631.935,1304.223s-.965,1.531-1.362,2.52M1628.322,1303.81s-.969,1.533-1.362,2.522M1624.706,1303.399s-.965,1.531-1.361,2.517M1621.094,1302.986s-.969,1.53-1.362,2.52M1617.478,1302.572s-.965,1.531-1.362,2.52M1613.865,1302.159s-.969,1.533-1.362,2.522M1610.249,1301.748s-.965,1.531-1.361,2.517M1606.637,1301.335s-.965,1.531-1.362,2.52M1603.024,1300.922s-.969,1.53-1.362,2.52M1599.408,1300.508s-.966,1.533-1.362,2.522M1595.795,1300.097s-.969,1.53-1.361,2.517M1592.179,1299.684s-.965,1.531-1.362,2.52M1588.567,1299.271s-.969,1.53-1.362,2.52M1584.951,1298.857s-.966,1.533-1.362,2.522M1581.338,1298.446s-.969,1.53-1.361,2.517M1577.722,1298.033s-.965,1.531-1.362,2.52M1574.11,1297.62s-.965,1.531-1.362,2.52M1570.497,1297.207s-.969,1.533-1.362,2.522M1566.881,1296.795s-.965,1.531-1.361,2.517M1563.269,1296.382s-.969,1.53-1.362,2.52"/>
          <path class="cls-46" d="M1557.442,1306.096l169.182,22.154M1556.931,1309.795l169.182,22.154M1556.419,1313.498l169.182,22.154M1556.164,1315.347l169.182,22.154M1555.908,1317.196l169.182,22.154M1555.653,1319.046l169.182,22.154M1555.397,1320.895l169.182,22.154M1555.142,1322.745l169.182,22.154"/>
          <path class="cls-9" d="M1586.638,1296.077c-2.94-.187-5.87,7.307-6.545,16.739,0,.007,0,.013-.001.02-.672,9.428,1.165,17.217,4.104,17.402.55.027,1.115-.218,1.676-.727-1.919-2.591-2.858-9.068-2.35-16.225.532-7.432,2.501-13.914,4.87-16.031-.537-.732-1.132-1.13-1.757-1.173l.004-.003ZM1704.946,1311.569c-2.94-.181-5.869,7.318-6.542,16.75,0,.003,0,.006,0,.008-.672,9.428,1.165,17.217,4.104,17.402.55.027,1.115-.218,1.676-.727-1.919-2.591-2.858-9.068-2.35-16.225.532-7.432,2.501-13.914,4.87-16.031-.537-.732-1.132-1.13-1.757-1.173v-.003Z"/>
          <path class="cls-48" d="M1729.734,1325.316l9.435-.615s5.792,1.933,6.15,4.34c.362,2.407.564,5.975.082,6.923-.475.949-11.477,2.875-15.337-.492l-.33-10.155Z"/>
          <path class="cls-59" d="M1745.333,1329.035c-3.772.9-10.43.539-15.461.066l.207,6.365c3.862,3.37,14.861,1.44,15.339.492.478-.949.278-4.515-.083-6.921v-.002s-.002,0-.002,0Z"/>
          <path class="cls-43" d="M1727.994,1314.304c-.373-.026-.762.201-1.151.673.807,3.314,1.037,8.862.611,14.758-.492,6.785-1.767,12.883-3.271,15.646.438,1.235.969,1.908,1.552,1.964,2.039.178,4.198-7.075,4.822-16.2,0,0,0-.001,0-.002.624-9.124-.524-16.664-2.563-16.84,0,0,0,0,0,0Z"/>
          <g>
            <path class="cls-43" d="M1632.811,1314.563v.111c1.949.427,3.333,2.114,3.331,4.059v27.808l-20.2-19.663c-1.414-1.374-1.66-3.519-.591-5.162l-.082-.078-8.752,8.518.034.033c1.685-1.312,4.125-1.226,5.688.295l20.537,19.992h-29.243c-1.999.004-3.732-1.343-4.171-3.241h-.114v12.047h.048c.231-2.108,2.058-3.707,4.237-3.706h29.045l-20.675,20.127c-1.412,1.378-3.617,1.619-5.307.578l-.08.079,8.752,8.518.036-.033c-1.348-1.641-1.26-4.015.303-5.537l20.536-19.992v28.466c.003,1.945-1.381,3.632-3.331,4.059v.111h12.376v-.047c-2.143-.231-3.807-1.972-3.807-4.123v-28.931l21.015,20.457c1.563,1.521,1.652,3.897.303,5.537l.034.033,8.753-8.518-.082-.078c-1.689,1.039-3.892.799-5.303-.578l-20.676-20.128h29.041c2.178-.001,4.006,1.597,4.237,3.705h.048v-12.046h-.114c-.439,1.898-2.172,3.245-4.171,3.241h-29.24l20.537-19.992c1.563-1.521,4.003-1.607,5.687-.295l.034-.033-8.753-8.518-.08.078c1.068,1.644.822,3.789-.592,5.162l-20.678,20.129v-28.274c0-2.151,1.663-3.892,3.808-4.124v-.046h-12.377Z"/>
            <ellipse class="cls-9" cx="1638.78" cy="1353.627" rx="7.882" ry="7.673"/>
            <path class="cls-22" d="M1638.761,1302.514c-28.789,0-52.127,22.718-52.128,50.742,0,28.025,23.338,50.744,52.127,50.744h0c28.789,0,52.128-22.718,52.129-50.742h0c0-28.026-23.339-50.744-52.128-50.744h0ZM1638.761,1315.426c21.464,0,38.865,16.938,38.865,37.832h0c0,20.894-17.4,37.832-38.865,37.832h0c-21.464,0-38.865-16.938-38.865-37.832h0c0-20.894,17.4-37.832,38.865-37.832h0Z"/>
            <ellipse class="cls-59" cx="1638.782" cy="1308.773" rx="1.666" ry="1.622"/>
            <ellipse class="cls-59" cx="1638.782" cy="1397.286" rx="1.666" ry="1.622"/>
            <g>
              <ellipse class="cls-59" cx="1670.929" cy="1321.737" rx="1.666" ry="1.622"/>
              <ellipse class="cls-59" cx="1606.634" cy="1384.325" rx="1.666" ry="1.622"/>
            </g>
            <g>
              <ellipse class="cls-59" cx="1606.635" cy="1321.735" rx="1.666" ry="1.622"/>
              <ellipse class="cls-59" cx="1670.93" cy="1384.323" rx="1.666" ry="1.622"/>
            </g>
            <g>
              <ellipse class="cls-59" cx="1087.988" cy="1353.031" rx="1.666" ry="1.622"/>
              <ellipse class="cls-59" cx="997.06" cy="1353.031" rx="1.666" ry="1.622"/>
            </g>
            <g>
              <ellipse class="cls-59" cx="1596.646" cy="1369.657" rx="1.666" ry="1.622"/>
              <ellipse class="cls-59" cx="1680.915" cy="1336.406" rx="1.666" ry="1.622"/>
            </g>
            <g>
              <ellipse class="cls-59" cx="1680.508" cy="1370.601" rx="1.666" ry="1.622"/>
              <ellipse class="cls-59" cx="1597.053" cy="1335.461" rx="1.666" ry="1.622"/>
            </g>
            <g>
              <ellipse class="cls-59" cx="1656.603" cy="1312.315" rx="1.666" ry="1.622"/>
              <ellipse class="cls-59" cx="1620.961" cy="1393.745" rx="1.666" ry="1.622"/>
            </g>
            <g>
              <ellipse class="cls-59" cx="1620.986" cy="1312.31" rx="1.666" ry="1.622"/>
              <ellipse class="cls-59" cx="1656.628" cy="1393.739" rx="1.666" ry="1.622"/>
            </g>
          </g>
          <ellipse class="cls-9" cx="1578.574" cy="1397.64" rx="8.26" ry="8.04"/>
          <path class="cls-41" d="M1781.502,1291.055s-20.313,8.518-22.065-6.141c0,0-12.257,14.998,4.553,24.549,0,0-7.704-11.935,17.512-13.297,0,0,3.5.34,3.151-2.388-.349-2.724-3.151-2.724-3.151-2.724Z"/>
          <path class="cls-59" d="M1784.654,1294.249c-2.876.246-9.439.952-19.633,2.937-4.524.881-7.692.335-9.914-.803-.03,4.336,1.974,9.163,8.863,13.075,0,0-7.705-11.932,17.509-13.296,0,0,3.08.3,3.174-1.913h0Z"/>
          <path class="cls-41" d="M1772.548,1290.927l-1.707.249,7.003,45.681,1.707-.249-7.003-45.681Z"/>
          <path class="cls-41" d="M1773.235,1290.83l-3.075.447,1.409,9.201,3.075-.447-1.409-9.201Z"/>
          <g>
            <ellipse class="cls-41" cx="1733.551" cy="1412.593" rx="12.33" ry="5.652"/>
            <g>
              <path class="cls-2" d="M1734.631,1345.557c-1.138-.055-2.238.13-2.541.795-.608,1.329,1.213,1.623,1.213,1.623v7.534c0,2.363-1.972,37.954-2.883,44.896-.329,2.504-.951,4.586-1.616,6.223,0,0-8.701,1.014-8.245,4.854.455,3.84,5.161,6.38,13.048,6.204,9.726-.216,12.442-2.216,12.897-4.58.455-2.363-2.276-4.577-6.372-5.315l-2.124-11.816s.454,1.772,6.067.591c5.614-1.182,5.463-9.452,5.463-9.452,0,0,.152-24.812-.152-29.391-.303-4.578-2.884-6.793-6.525-8.123-2.882-.443-4.854.149-5.157,1.772-.303,1.625-1.062,2.069-1.517,1.477-.455-.59,0-5.022,0-5.022,0,0,2.124-1.032,1.214-1.623-.455-.295-1.632-.591-2.77-.647ZM1741.95,1354.031l1.973,1.034.607,5.315v26.88l-.303,1.771-2.58,2.069-2.881-.591-1.517-1.772-1.062-24.072-.303-7.679,3.641-2.363,2.426-.591Z"/>
              <path class="cls-10" d="M1740.91,1410.599s-3.337-8.273-4.097-29.98c-.76-21.711-1.061-23.483,0-24.515,1.061-1.036,4.097-2.808,5.918-1.772,1.821,1.032,1.365,1.328,1.669,5.021s.304,27.616.304,27.616c0,0-.912,3.988-3.189,3.84-2.273-.148-3.942-1.032-4.249-2.657"/>
            </g>
            <path class="cls-10" d="M1726.346,1411.043s3.185-3.692,4.094-10.633c.912-6.941,2.885-42.534,2.885-44.898v-7.533"/>
          </g>
          <path class="cls-47" d="M1689.671,1385.243s11.138.319,14.741,7.018c3.603,6.695,1.637,13.075-2.622,15.627-4.256,2.549-13.432,4.463-17.688,1.913-4.259-2.556-7.21-10.845-2.294-11.804,4.912-.955,13.104-2.549,12.119-5.737-.981-3.191-5.241-3.191-5.241-3.191l.984-3.827Z"/>
          <path class="cls-32" d="M1691.17,1383.79l-2.036-.318-1.621,7.046,2.036.318,1.621-7.046Z"/>
          <path class="cls-5" d="M1533.117,1350.383l47.042,23.829-.249.464-3.31.582-44.682-22.642,1.199-2.233Z"/>
          <path class="cls-5" d="M1531.728,1351.506l26.507,45.688-4.301-2.287-24.469-42.167,2.263-1.234Z"/>
          <path class="cls-59" d="M1486.414,1307.079s.009,0,.014,0c.337.01.657.148.891.383l44.648,43.146c.523.475.551,1.273.063,1.782-.488.509-1.308.537-1.831.062-.022-.02-.043-.04-.063-.062l-43.888-42.409v-2.892c.056-.007.113-.01.169-.01h-.004Z"/>
          <path class="cls-49" d="M1524.698,1344.148c.336.011.654.148.888.383l44.326,42.833-3.88-.192-42.267-40.849c-.519-.479-.541-1.277-.049-1.783.255-.262.612-.405.982-.393h0Z"/>
          <ellipse class="cls-9" cx="1692.618" cy="1429.851" rx="8.26" ry="8.04"/>
          <ellipse class="cls-9" cx="1672.922" cy="1413.746" rx="8.26" ry="8.04"/>
          <ellipse class="cls-9" cx="1642.59" cy="1415.663" rx="8.26" ry="8.04"/>
          <ellipse class="cls-9" cx="1619.542" cy="1427.933" rx="8.26" ry="8.04"/>
          <ellipse class="cls-9" cx="1599.452" cy="1427.933" rx="8.26" ry="8.04"/>
          <ellipse class="cls-9" cx="1579.362" cy="1427.933" rx="8.26" ry="8.04"/>
          <ellipse class="cls-9" cx="1559.272" cy="1427.933" rx="8.26" ry="8.04"/>
          <ellipse class="cls-9" cx="1609.3" cy="1412.979" rx="8.26" ry="8.04"/>
          <ellipse class="cls-9" cx="1589.21" cy="1412.979" rx="8.26" ry="8.04"/>
          <ellipse class="cls-9" cx="1569.12" cy="1412.979" rx="8.26" ry="8.04"/>
          <path class="cls-45" d="M1651.912,1104.345s.646,6.309-4.864,10.095c-5.51,3.787-11.991,7.889-14.585,18.617-2.591,10.728-.646,9.467-.646,9.467l17.176,2.838s-1.945-7.573,2.27-13.566c4.215-5.996,10.371-23.348,4.539-30.289l-3.89,2.838Z"/>
          <path class="cls-51" d="M1652.48,1103.946c1.025,2.438,2.815,8.24-1.194,12.387-5.186,5.364-10.049,7.889-11.993,15.145-1.165,4.344-1.938,8.817-2.405,11.876l-5.051-.834s-1.945,1.263.649-9.464c2.592-10.727,9.074-14.829,14.584-18.615,5.511-3.786,4.863-10.096,4.863-10.096l.547-.399Z"/>
          <path class="cls-10" d="M1654.503,1101.187s3.244,7.26-.325,14.518c-3.565,7.257-7.13,10.728-9.075,15.459-1.945,4.732,0,9.147-2.266,12.621"/>
          <path class="cls-20" d="M1520.048,1420.012c.377.056.637.398.58.766-.057.367-.409.62-.786.564-.004,0-.007-.001-.011-.002,0,0-11.739-1.796-20.465,6.86-.245.285-.681.322-.973.083-.292-.239-.331-.663-.086-.948.023-.027.048-.051.074-.074,9.227-9.154,21.667-7.25,21.667-7.25Z"/>
          <path class="cls-41" d="M1499.569,1432.925s.024,1.796-1.485,3.521c-1.506,1.722-4.498,3.38-10.236,3.551l-.038-1.345c5.482-.165,8.011-1.695,9.224-3.08,1.209-1.386,1.154-2.613,1.154-2.613l1.382-.034Z"/>
          <path class="cls-56" d="M1482.994,1446.417c-1.838-4.654-6.802-5.727-6.802-5.727,0,0-.366-.36,1.106-3.76,1.468-3.4.736-5.905.736-5.905-.553-18.079,1.285-22.911,1.285-22.911-1.285,0-7.172,6.8-7.172,6.8.187-17.184,26.297-25.238,26.297-25.238-9.562,23.628-5.887,26.315-5.887,26.315-6.066-2.509-6.802-6.443-6.802-6.443-1.106,6.443-.183,18.97-.183,18.97,0,0-.37,5.909,5.331,3.043,3.05-1.53,17.833-8.508,17.833-8.508l1.41,4.917-19.795,8.962s-4.595,1.971-3.306,5.371c1.285,3.4,2.021,3.935,2.021,3.935l-6.071.182Z"/>
          <path class="cls-59" d="M1516.843,1419.846c-.234.43-.469.878-.711,1.361-.329.012-.674.035-1.036.062.224-.466.456-.929.696-1.387.368-.018.722-.031,1.051-.036h0ZM1513.345,1420.116c-.162.445-.324.904-.487,1.409-.326.052-.667.123-1.006.19.15-.485.309-.967.476-1.446.348-.059.684-.109,1.016-.153ZM1509.57,1420.877c-.082.462-.161.94-.233,1.461-.315.095-.634.198-.953.308.063-.492.136-.984.218-1.473.326-.102.65-.208.969-.295h0ZM1505.801,1422.216c.009.469.023.954.048,1.468-.296.141-.593.288-.889.444-.03-.507-.057-1.001-.068-1.468.303-.149.606-.31.908-.444ZM1502.325,1424.103c.094.454.2.924.318,1.408-.269.183-.536.375-.802.575-.127-.496-.227-.963-.329-1.432.27-.19.541-.374.813-.55h0Z"/>
          <path class="cls-59" d="M1497.369,1435.167l.655,1.359c-.203.225-.435.446-.693.665l-.614-1.279c.119-.115.24-.23.339-.344.11-.128.215-.262.313-.4ZM1495.49,1436.842l.175,1.459c-.27.141-.567.272-.873.4l-.168-1.4c.297-.137.587-.29.866-.459h0ZM1493.302,1437.814l-.273,1.484c-.306.082-.632.154-.967.224l.264-1.438c.329-.079.654-.169.976-.27ZM1491.349,1438.3l-.644,1.448c-.344.047-.686.095-1.055.13l.637-1.428c.364-.046.731-.091,1.062-.149Z"/>
          <path class="cls-39" d="M1565.518,1191.11s10.388-4.859,12.782-.777c2.401,4.083,3.399,12.248,0,17.11,0,0-14.779,1.749-22.369-.777l-1.002-.585,10.588-14.972Z"/>
          <path class="cls-1" d="M1575.843,1195.565c1.65-.036,3.227.464,4.475,1.03.506,3.733.07,7.897-1.991,10.846,0,0-13.087,1.548-20.956-.375,3.785-1.157,10.308-7.245,14.763-10.318,1.084-.752,2.377-1.165,3.708-1.183Z"/>
          <path class="cls-10" d="M1580.301,1203.748s-4.992-3.306-12.983.195c-7.991,3.497-7.991,2.916-7.991,2.916"/>
          <path class="cls-31" d="M1565.518,1191.11s10.388-4.859,12.782-.777c2.401,4.083,3.399,12.248,0,17.11,0,0-14.779,1.749-22.369-.777l-1.002-.585,10.588-14.972Z"/>
          <path class="cls-10" d="M1562.523,1207.639s-1.596,6.611-1.997,20.413c-.401,13.808,2.598,23.14,3.793,22.948"/>
          <path class="cls-46" d="M1555.134,1205.695s-5.994,5.831-6.792,19.054c-.798,13.223-.601,22.363-.601,22.363,0,0,9.79,5.636,18.976,3.302,0,0-1.596-3.887-1.796-9.332-.2-5.448.2-33.639.2-33.639"/>
          <path class="cls-31" d="M1644.419,1144.249s-4.792,19.252-5.389,28.194"/>
          <path class="cls-10" d="M1681.539,1104.695s-4.881-6.474-19.312-.827"/>
        </g>
        <path class="cls-40" d="M1790.478,1079.195l2.625-83.894,12.25-6.388,3.501,90.282h-18.376Z"/>
        <path class="cls-25" d="M1795.502,918.537s-1.185,0-3.154-1.923c-1.975-1.917-3.154-1.917-1.58-4.605,1.577-2.686,3.549-6.14,10.255-5.759,6.703.385,11.832.769,14.196,7.679,2.367,6.909,3.154,25.337,1.185,33.015-10.255-.385-25.636-8.445-28.004-13.819-2.364-5.374,7.101-14.588,7.101-14.588Z"/>
        <path class="cls-17" d="M1889.729,1131.15l-26.069,53.655-5.959-2.901-46.549,85.558-.373-14.5,44.153-75.652-2.07-1.568,2.978-3.264,1.444.803.046-.078s2.98-.361,3.352.727l29.048-42.781Z"/>
        <path class="cls-23" d="M1889.729,1131.15l-26.069,53.655-5.959-2.901,3.141-8.212,28.888-42.542ZM1836.92,1208.173c1.515.534,3.77,1.404,5.231,2.313l-6.426,11.813c-1.065-.77-3.124-2.073-5.207-2.327-.143-.015-.278-.072-.387-.164l6.79-11.636Z"/>
        <path class="cls-13" d="M1855.84,1172.48l1.344.747-2.297,4.048-2.024-1.532,2.978-3.264Z"/>
        <path class="cls-29" d="M1889.729,1131.15l-26.069,53.655-5.959-2.901-46.549,85.558-.373-14.5,44.153-75.652-2.07-1.568,2.978-3.264,1.444.803.046-.078s2.98-.361,3.352.727l29.048-42.781Z"/>
        <path class="cls-17" d="M1872.665,1110.884l-20.443,55.918-6.227-2.308-37.553,89.65-1.857-14.392,36.184-79.56-2.221-1.359,2.629-3.536,1.519.658.037-.082s2.928-.649,3.41.398l24.521-45.387Z"/>
        <path class="cls-23" d="M1872.665,1110.884l-20.443,55.918-6.227-2.308,2.284-8.476,24.386-45.134Z"/>
        <path class="cls-13" d="M1843.178,1155.297l1.413.613-1.871,4.251-2.171-1.328,2.629-3.536Z"/>
        <path class="cls-29" d="M1872.665,1110.884l-20.443,55.918-6.227-2.308-37.553,89.65-1.857-14.392,36.184-79.56-2.221-1.359,2.629-3.536,1.519.658.037-.082s2.928-.649,3.41.398l24.521-45.387Z"/>
        <path class="cls-41" d="M1872.657,1110.894l-20.441,55.918-6.229-2.307,2.284-8.474,24.386-45.137Z"/>
        <path class="cls-46" d="M1843.168,1155.307l1.416.612-1.872,4.254-2.169-1.328,2.625-3.538Z"/>
        <path class="cls-23" d="M1833.766,1180.141c1.801.48,3.41,1.584,4.645,2.625l-4.947,11.809c-1.484-.892-3.437-1.699-5.201-2.337l5.502-12.096Z"/>
        <path class="cls-28" d="M1872.657,1110.894l-20.441,55.918-6.229-2.307-37.552,89.651-1.859-14.393,36.184-79.559-2.218-1.359,2.626-3.538,1.52.659.038-.084s2.926-.646,3.41.4l24.521-45.389Z"/>
        <path class="cls-17" d="M1850.452,1104.079l-16.23,57.214-6.382-1.863-30.787,92.065-2.922-14.224,30.172-81.905-2.316-1.199,2.359-3.713,1.564.55.031-.085s2.872-.853,3.43.157l21.081-46.998Z"/>
        <path class="cls-23" d="M1850.452,1104.079l-16.23,57.214-6.382-1.863,1.647-8.615,20.965-46.736Z"/>
        <path class="cls-13" d="M1824.346,1150.455l1.455.512-1.55,4.372-2.264-1.172,2.359-3.713Z"/>
        <path class="cls-29" d="M1850.452,1104.079l-16.23,57.214-6.382-1.863-30.787,92.065-2.922-14.224,30.172-81.905-2.316-1.199,2.359-3.713,1.564.55.031-.085s2.872-.853,3.43.157l21.081-46.998Z"/>
        <path class="cls-41" d="M1850.409,1104.075l-16.228,57.212-6.384-1.862,1.647-8.613,20.965-46.737Z"/>
        <path class="cls-46" d="M1824.301,1150.45l1.458.511-1.551,4.375-2.263-1.172,2.355-3.714Z"/>
        <path class="cls-23" d="M1816.714,1175.832c1.832.352,3.519,1.339,4.828,2.291l-4.055,12.127c-1.547-.785-3.554-1.452-5.361-1.965l4.588-12.452Z"/>
        <path class="cls-28" d="M1850.409,1104.075l-16.228,57.212-6.384-1.862-30.785,92.062-2.924-14.224,30.171-81.901-2.313-1.199,2.356-3.714,1.565.55.032-.087s2.87-.85,3.431.159l21.08-46.998Z"/>
        <path class="cls-4" d="M1809.303,921.369s-8.283,1.538-7.885,5.377"/>
        <path class="cls-54" d="M1805.362,912.778s-9.465,2.304-12.622,10.364"/>
        <path class="cls-54" d="M1801.023,913.929s-5.521,4.608-7.888,3.07"/>
        <path class="cls-42" d="M1791.717,925.034c-.363.012-.554.031-.554.031l-1.096.301c-1.577,2.624-2.647,5.52-1.663,7.759.169.381.408.778.701,1.188l.873-.422s18.143-1.535,26.028,11.902l.475.803c.749-3.163,1.067-7.958,1.029-13.016-12.565-8.42-23.285-8.631-25.793-8.547h0Z"/>
        <path class="cls-4" d="M1812.855,925.593s-4.339,1.923-4.339,3.839"/>
        <path class="cls-14" d="M1809.233,1078.801s5.867,184.92,1.068,254.396M1809.233,1078.801c-6.97-1.022-18.649,0-18.649,0,0,0-5.867,184.92-1.068,254.396,0,0,12.746-1.533,20.785,0"/>
        <path class="cls-59" d="M1799.402,1087.33c-1.293.004-2.542.019-3.742.04-1.934.034-3.626.093-5.273.155-.009.215-.017.664-.023.888,6.403-.24,12.814-.25,19.219-.03-.009-.223-.02-.674-.025-.89-3.578-.125-7.007-.175-10.155-.163h0ZM1799.302,1093.805c-1.289.004-2.536.014-3.731.033-1.965.031-3.693.087-5.36.144-.009.27-.016.617-.023.893,6.521-.225,13.049-.227,19.571-.006-.009-.277-.016-.623-.023-.891-3.476-.122-6.954-.179-10.433-.173h0ZM1799.2,1100.284c-1.24.003-2.479.013-3.718.03-1.998.027-3.76.077-5.447.13l-.024.89c6.64-.209,13.286-.204,19.926.016l-.023-.89c-3.569-.121-7.14-.18-10.712-.176h-.001ZM1799.098,1106.767c-3.081.003-6.162.05-9.241.141l-.023.891c5.338-.151,12.366-.221,20.281.04-.009-.37-.016-.529-.025-.893-3.662-.12-7.326-.18-10.991-.179h0ZM1795.304,1113.265c-2.059.02-3.886.06-5.607.102-.009.269-.013.621-.02.891,5.388-.136,12.534-.196,20.593.06-.009-.271-.015-.623-.021-.891-4.98-.155-9.962-.209-14.944-.162ZM1795.215,1119.735c-1.89.016-3.781.046-5.671.089-.009.285-.015.603-.021.891,6.966-.153,13.935-.126,20.9.082-.009-.288-.013-.605-.02-.891-5.572-.168-10.746-.205-15.188-.17h0ZM1795.124,1126.212c-2.106.012-3.985.039-5.732.071-.009.303-.015.589-.021.893,5.477-.103,12.866-.135,21.206.104-.009-.304-.015-.589-.021-.891-5.141-.146-10.285-.205-15.429-.177h-.003ZM1795.029,1132.686c-2.129.009-4.034.033-5.791.06-.009.314-.013.568-.02.884,7.17-.109,14.342-.067,21.511.125-.009-.318-.015-.572-.021-.888-5.225-.139-10.451-.2-15.678-.181h0ZM1794.94,1139.156c-1.952.004-3.904.018-5.856.042-.009.331-.013.561-.02.893,7.273-.085,14.547-.036,21.818.146-.009-.335-.014-.564-.021-.897-5.306-.132-10.613-.194-15.921-.184h0ZM1794.852,1145.634c-2.173,0-4.125.01-5.904.024-.009.291-.012.597-.019.888,7.362-.06,14.725-.005,22.085.164-.009-.292-.012-.598-.018-.888-5.38-.123-10.762-.186-16.144-.187h-.001ZM1794.758,1152.106c-2.187-.005-4.155,0-5.94.007-.009.299-.013.591-.019.891,5.641-.027,13.453-.004,22.348.183-.009-.301-.012-.591-.019-.89-5.456-.114-10.914-.178-16.371-.191h0ZM1794.671,1158.581c-2.501-.011-4.02,0-5.985.004-.009.305-.012.581-.019.888,5.713-.009,13.207.012,22.61.187-.009-.305-.012-.58-.019-.885-6.158-.115-11.822-.173-16.589-.193h0ZM1788.57,1165.04c-.009.292-.009.593-.015.886,5.736.013,13.316.053,22.836.205-.009-.293-.009-.594-.015-.886-7.602-.121-15.204-.19-22.807-.205h.001ZM1788.459,1171.492c-.009.298-.011.592-.017.891,5.673.03,11.93.073,23.061.221-.009-.299-.011-.591-.017-.888-7.676-.107-15.352-.182-23.028-.224h0ZM1788.347,1177.939c-.009.303-.01.587-.015.89,3.588.038,13.126.137,23.284.245-.009-.303-.011-.588-.017-.891l-23.253-.243h0ZM1788.25,1184.383c0,.295-.009.597-.013.893,5.678.089,12.103.177,23.471.262,0-.296-.009-.598-.013-.893-11.357-.085-17.774-.174-23.444-.262ZM1788.159,1190.842c0,.296-.009.591-.013.888,5.813.11,13.703.232,23.653.276,0-.298-.009-.594-.013-.893-7.876-.032-15.752-.122-23.627-.27h0ZM1788.068,1197.291c0,.3-.009.591-.013.891,5.828.134,13.786.274,23.834.285,0-.299-.009-.589-.013-.888-10.04-.012-17.99-.152-23.808-.288ZM1787.988,1203.762c0,.295-.009.593-.009.888,5.819.155,14.26.3,23.984.278,0-.295-.009-.593-.009-.888-7.989.02-15.979-.073-23.965-.278ZM1787.925,1210.216c0,.297-.009.594-.009.891,5.831.178,14.316.336,24.112.279,0-.296-.009-.592-.009-.888-8.032.049-16.065-.046-24.093-.283ZM1787.86,1216.673c0,.296-.009.592-.009.888,5.842.203,14.371.375,24.241.283,0-.296-.009-.591-.009-.888-9.867.093-18.393-.08-24.223-.283ZM1787.8,1223.131v.89c5.86.229,14.39.432,24.35.303v-.895c-8.116.109-16.233.01-24.343-.297h-.007ZM1787.768,1229.583v.891c5.866.253,14.407.474,24.415.305v-.895c-8.137.14-16.277.039-24.408-.303h-.007ZM1787.735,1236.043v.89c5.869.278,14.425.513,24.482.304,0-.295,0-.593-.009-.888-8.159.172-16.321.07-24.473-.306ZM1787.705,1242.499c0,.295-.009.597-.009.891,5.873.303,14.441.552,24.546.303v-.89c-10.109.251-18.681-.002-24.537-.304ZM1787.705,1248.96v.891c5.868.325,14.416.59,24.532.299v-.89c-10.127.292-18.684.025-24.535-.301h.003ZM1787.714,1255.421v.89c5.862.348,14.39.626,24.518.295v-.89c-10.138.334-18.675.052-24.52-.295h.002ZM1787.723,1261.878v.89c5.858.373,14.365.666,24.506.293v-.891c-10.151.375-18.667.081-24.506-.291ZM1787.761,1268.345c0,.303.009.59.009.891,5.843.391,14.316.692,24.409.279,0-.301.009-.589.009-.891-10.119.416-18.601.113-24.425-.279h-.003ZM1787.819,1274.811c0,.296,0,.595.009.891,5.827.412,14.245.72,24.297.269,0-.294,0-.593.009-.888-10.078.454-18.506.141-24.311-.272h-.005ZM1787.875,1281.279c0,.29.009.601.009.891,5.81.431,14.171.747,24.181.258,0-.289.009-.601.009-.89-10.039.493-18.412.174-24.198-.26h0ZM1787.96,1287.75c0,.297.009.592.015.888,5.784.448,14.065.769,23.998.245.009-.296.009-.593.015-.89-9.969.531-18.265.206-24.026-.243h0ZM1788.072,1294.219c.009.304.014.593.02.895,5.751.463,13.934.783,23.762.226.009-.302.014-.589.02-.892-9.871.563-18.073.237-23.802-.23ZM1788.215,1300.699c.009.294.013.601.02.892,5.712.475,13.779.792,23.476.207.009-.289.013-.596.02-.886-9.742.592-17.827.267-23.516-.213h0ZM1788.393,1307.183c.009.295.017.595.025.888,5.659.484,13.585.792,23.108.187.009-.293.017-.593.025-.887-9.575.616-17.521.3-23.158-.187h0ZM1788.606,1313.669l.035.893c5.594.487,13.357.78,22.663.158l.033-.888c-9.37.633-17.154.327-22.73-.164h0ZM1788.867,1320.162c.014.307.03.593.044.897,5.513.486,13.082.763,22.125.135.015-.303.031-.591.045-.899-9.118.642-16.714.358-22.213-.133ZM1789.185,1326.666c.018.312.037.589.055.898,5.408.478,12.751.725,21.468.101.018-.308.037-.585.055-.897-8.803.641-16.178.383-21.577-.101h0Z"/>
        <path class="cls-11" d="M1804.747,1323.528c1.303.145,2.754.279,4.342.393M1804.765,1317.095c1.321.135,2.797.266,4.416.373M1804.779,1310.658c1.342.131,2.842.252,4.49.356M1804.797,1304.222c1.356.124,2.881.242,4.56.343M1804.811,1297.789c1.377.118,2.93.229,4.638.323M1804.828,1291.353c1.395.114,2.972.215,4.708.306M1804.842,1284.92c1.416.104,3.018.202,4.782.286M1804.86,1278.486c1.433.098,3.057.188,4.855.269M1804.874,1272.053c1.451.087,3.106.175,4.929.249M1804.892,1265.617c1.469.084,3.144.161,5.003.232M1804.906,1259.184c1.49.077,3.19.148,5.077.212M1804.923,1252.748c1.507.071,3.232.135,5.147.198M1804.941,1246.315c1.525.064,3.274.121,5.221.178M1804.955,1239.882c1.546.054,3.32.108,5.295.158M1804.969,1233.449c1.563.047,3.366.094,5.368.138M1804.986,1227.012c1.581.044,3.408.084,5.442.121M1805.001,1220.576c1.602.037,3.454.071,5.516.108M1805.018,1214.143c1.616.03,3.496.057,5.586.087M1804.878,1207.706c1.637.027,3.541.047,5.663.071M1804.73,1201.277l5.737.05M1804.582,1194.844c1.676.007,3.629.017,5.811.034M1804.438,1188.407c1.693.003,3.671.007,5.881.017M1804.291,1181.974c1.711-.003,3.714-.007,5.955,0M1804.143,1175.541c1.732-.01,3.759-.024,6.029-.02M1803.996,1169.108c1.75-.017,3.805-.034,6.103-.04M1803.852,1162.675c1.767-.027,3.844-.05,6.173-.061M1803.701,1156.239c1.792-.03,3.893-.061,6.254-.074M1803.557,1149.809c1.806-.04,3.935-.077,6.324-.098M1803.409,1143.373c1.827-.044,3.977-.087,6.394-.111M1803.261,1136.94c1.844-.05,4.023-.101,6.472-.131M1803.117,1130.506c1.862-.061,4.065-.114,6.542-.148M1802.97,1124.07c1.88-.064,4.111-.124,6.616-.165M1802.822,1117.637c1.897-.067,4.153-.138,6.689-.182M1802.675,1111.204c2.254-.091,4.508-.159,6.763-.202M1802.531,1104.771c1.932-.084,4.241-.168,6.833-.222M1802.383,1098.338c1.953-.091,4.286-.182,6.907-.239M1802.235,1091.902c1.975-.098,4.328-.192,6.985-.256M1802.088,1085.468c2.351-.122,4.704-.213,7.058-.272"/>
        <path class="cls-11" d="M1790.537,1323.884c1.3.145,2.754.279,4.342.393M1790.403,1317.431c1.321.135,2.797.266,4.416.373M1790.266,1310.977c1.342.128,2.842.252,4.49.356M1790.133,1304.521c1.36.124,2.884.242,4.564.34M1789.999,1298.068c1.377.118,2.927.229,4.638.323M1789.862,1291.614c1.398.111,2.972.212,4.708.303M1789.729,1285.158c1.416.104,3.014.202,4.782.286M1789.592,1278.705c1.437.101,3.064.188,4.859.269M1789.461,1272.251c1.451.091,3.102.175,4.926.249M1789.328,1265.798c1.469.084,3.144.161,4.999.232M1789.191,1259.345c1.486.077,3.19.148,5.073.212M1789.054,1252.892c1.511.067,3.236.135,5.151.195M1788.92,1246.435c1.525.067,3.278.124,5.224.178M1788.787,1239.982c1.546.057,3.32.111,5.295.161M1788.65,1233.529c1.563.05,3.366.098,5.372.141M1788.516,1227.076c1.581.044,3.408.084,5.446.121M1788.492,1220.622l5.516.104M1788.608,1214.169c1.616.03,3.496.057,5.586.087M1788.72,1207.716c1.637.024,3.541.044,5.663.067M1788.833,1201.263l5.737.05M1788.949,1194.81c1.672.01,3.626.017,5.808.034M1789.057,1188.356c1.697,0,3.675.003,5.885.013M1789.173,1181.903c1.711-.003,3.714-.007,5.955,0M1789.286,1175.45c1.732-.01,3.759-.02,6.029-.02M1789.398,1168.997c1.75-.017,3.805-.034,6.103-.037M1789.511,1162.543c1.771-.024,3.847-.047,6.176-.057M1789.623,1156.094c1.788-.034,3.893-.064,6.254-.077M1789.739,1149.64c1.806-.04,3.935-.074,6.324-.094M1789.851,1143.187c1.823-.044,3.977-.087,6.394-.111M1789.964,1136.734c1.844-.05,4.023-.101,6.468-.131M1790.076,1130.281c1.862-.057,4.065-.114,6.542-.148M1790.189,1123.828c1.883-.067,4.111-.128,6.619-.168M1790.305,1117.374c1.897-.071,4.153-.141,6.689-.185M1790.417,1110.921c2.254-.091,4.508-.159,6.763-.202M1790.529,1104.468c1.936-.084,4.241-.168,6.837-.219M1790.642,1098.015c1.957-.091,4.286-.178,6.911-.235M1790.754,1091.561c1.975-.098,4.328-.192,6.985-.256M1790.867,1085.108c2.35-.122,4.702-.213,7.055-.272"/>
        <g>
          <path class="cls-55" d="M1898.634,1296.651l-1.258,51.429-69.183-4.489,70.44-46.939Z"/>
          <path class="cls-57" d="M2035.749,1236.654s-5.033,84.489-31.451,126.939l-107.761-15.513,2.936-51.429,136.272-90.203.004,30.205Z"/>
          <path class="cls-12" d="M1934.867,1106.897c-6.436,2.754-12.236.552-12.236.552,0,0-2.829,3.578,4.809,3.992,0,0,3.04.276.991,3.581"/>
          <path class="cls-45" d="M1943.921,1100.494s-11.528-9.157-18.814-8.609c-7.286.552-7.638.417-8.277,1.655-.636,1.241-1.907,6.954,1.347,11.155,3.251,4.2,4.595,3.168,5.161,2.27.567-.895,5.161-3.511,13.863-1.581"/>
          <path class="cls-51" d="M1925.778,1091.864c-.232-.002-.463.006-.695.023-7.285.551-7.639.413-8.276,1.652-.439.853-1.176,3.828-.534,6.969,1.088-1.014,3.329-1.979,7.96-1.736,9.195.482,14.571,4.133,14.571,4.133l.909.632,4.183-3.043s-10.819-8.593-18.119-8.63h0Z"/>
          <path class="cls-55" d="M1809.442,1310.742l82.462-73.146,12.198,27.498-7.573,30.646-67.435,45.762-18.5-4.5-.77-16.505-.383-9.756ZM1811.957,1263.638l50.534-63.39,12.782,27.613-3.994,26.056-60.321,55.222.999-45.5Z"/>
          <path class="cls-57" d="M1862.692,1201.414s10.188,22.75,8.588,52.111l61.527-55.804,29.361-25.861-.601.387-3.793-17.887-1.796-10.112-4.795,1.167v-5.831l-.801-5.058-4.194-7.97-3.396-8.555-.798-7.197,1.596-8.555-2.197.975-78.7,98.189Z"/>
          <path class="cls-12" d="M2044.862,1205.695s5.994,5.831,6.792,19.054c.798,13.223.601,22.363.601,22.363,0,0-9.79,5.636-18.976,3.302,0,0,1.596-3.887,1.796-9.332.2-5.448-.2-33.639-.2-33.639l9.987-1.749Z"/>
          <path class="cls-1" d="M2039.247,1207.441l-4.392.285c.009.534.394,27.962.197,33.353-.199,5.445-1.798,9.333-1.798,9.333,3.362.854,6.799.635,9.812.021.072-1.059,1.167-17.22.974-25.687-.199-8.749-4.793-17.306-4.793-17.306h0Z"/>
          <path class="cls-56" d="M2117.002,1446.417c1.838-4.654,6.802-5.727,6.802-5.727,0,0,.366-.36-1.106-3.76-1.468-3.4-.736-5.905-.736-5.905.553-18.079-1.285-22.911-1.285-22.911,1.285,0,7.172,6.8,7.172,6.8-.187-17.184-26.297-25.238-26.297-25.238,9.562,23.628,5.887,26.315,5.887,26.315,6.066-2.509,6.802-6.443,6.802-6.443,1.106,6.443.183,18.97.183,18.97,0,0,.37,5.909-5.331,3.043-5.7-2.862-28.687-13.603-28.687-13.603l-2.391,4.654,31.627,14.319s4.595,1.971,3.31,5.371-2.021,3.935-2.021,3.935l6.07.182Z"/>
          <path class="cls-31" d="M2114.425,1428.516s.919-12.527-.183-18.97c0,0-.736,3.935-6.806,6.443,0,0,3.679-2.687-5.883-26.315,0,0,26.11,8.057,26.297,25.238,0,0-5.887-6.8-7.172-6.8,0,0,1.838,4.832,1.285,22.911"/>
          <path class="cls-10" d="M2117.002,1446.417c1.838-4.654,6.802-5.727,6.802-5.727,0,0,.366-.36-1.106-3.76-1.468-3.4-.736-5.905-.736-5.905.553-18.079-1.285-22.911-1.285-22.911,1.285,0,7.172,6.8,7.172,6.8-.187-17.184-26.297-25.238-26.297-25.238,9.562,23.628,5.887,26.315,5.887,26.315,6.066-2.509,6.802-6.443,6.802-6.443,1.106,6.443.183,18.97.183,18.97,0,0,.37,5.909-5.331,3.043-5.7-2.862-28.687-13.603-28.687-13.603l-2.391,4.654,31.627,14.319s4.595,1.971,3.31,5.371-2.021,3.935-2.021,3.935"/>
          <path class="cls-48" d="M2068.824,1411.648c-.726,0-2.176.161-3.375,1.079-.671.506-1.123,1.238-1.268,2.051-.155.891.035,1.937.632,3.151,1.244,2.522,3.721,3.447,5.749,3.709,1.245.158,2.508.132,3.745-.077l-.3-1.483s-1.499.286-3.24.057c-1.741-.225-3.582-.908-4.546-2.862-.504-1.026-.594-1.749-.508-2.246.07-.443.32-.841.694-1.103.732-.562,2.038-.757,2.418-.757.636,0,1.188-.101,2.225.407,1.036.504,2.522,1.671,4.501,4.294l1.254-.898c-2.066-2.744-3.707-4.093-5.061-4.748-1.351-.659-2.453-.572-2.919-.572v-.003Z"/>
          <path class="cls-48" d="M2071.214,1427.803s.736-11.814,8.46-15.933c0,0,1.838.182,2.021,1.614.183,1.429-7.172,13.959-7.172,13.959l-3.31.36Z"/>
          <path class="cls-38" d="M2072.088,1426.475s.611-9.843,7.047-13.273c0,0,1.53.148,1.686,1.345.152,1.19-5.976,11.629-5.976,11.629l-2.757.299Z"/>
          <ellipse class="cls-9" cx="2001.332" cy="1397.64" rx="8.26" ry="8.04"/>
          <path class="cls-55" d="M2107.481,1313.963s13.922.78,13.76,7.476c-.159,6.699-2.239,13.24,2.401,14.487,4.64,1.244,14.24,1.244,16.641,3.736,2.397,2.492,2.397,5.297,2.397,5.297,0,0-11.998-4.204-17.28-1.244-5.279,2.959-10.806-1.715-11.677-3.272-1.924-3.43-.801-10.122-4.484-11.37-3.679-1.244-15.359-1.402-15.359-1.402l13.601-13.707Z"/>
          <path class="cls-57" d="M2006.464,1221.773c2.176-36.544-4.353-79.441-4.353-79.441l-.546-6.356-112.621,104.865s8.16-8.474,5.441,34.954l9.794,14.83,102.285-68.852Z"/>
          <path class="cls-46" d="M2006.464,1221.773c2.176-36.544-4.353-79.441-4.353-79.441l-.546-6.356"/>
          <g>
            <path class="cls-14" d="M1976.333,1056.293l-15.076,34.224s-4.384-4.338-7.932.161l-3.538,4.483M1976.277,1056.252l-29.102,24.169s5.552,2.791,2.194,7.422l-3.344,4.621,3.762,2.697"/>
            <g>
              <path class="cls-14" d="M1938.259,1084.887l20.708,14.746-5.436,7.233-20.708-14.746,5.436-7.233Z"/>
              <path class="cls-48" d="M1938.72,1087.11l17.931,12.769-3.58,4.763-17.931-12.769,3.58-4.763Z"/>
            </g>
          </g>
          <g>
            <path class="cls-14" d="M2043.267,1098.696l-20.458,31.465s-3.622-4.96-7.858-1.064l-4.223,3.88M2043.219,1098.647l-32.669,19.373s5.027,3.612.958,7.667l-4.054,4.046,3.275,3.243"/>
            <g>
              <path class="cls-15" d="M2001.014,1121.06l18.046,17.755-6.545,6.303-18.046-17.755,6.545-6.303Z"/>
              <path class="cls-33" d="M2001.106,1123.326l15.626,15.374-4.31,4.151-15.626-15.374,4.31-4.151Z"/>
            </g>
          </g>
          <g>
            <path class="cls-14" d="M2086.827,1170.256l-25.695,27.587s-2.695-5.491-7.554-2.359l-4.843,3.118M2086.788,1170.201l-35.597,13.637s4.317,4.398-.406,7.713l-4.707,3.31,2.656,3.742"/>
            <g>
              <path class="cls-14" d="M2041.269,1185.238l14.653,20.502-7.558,5.118-14.653-20.502,7.558-5.118Z"/>
              <path class="cls-48" d="M2040.961,1187.487l12.688,17.753-4.977,3.371-12.688-17.753,4.977-3.371Z"/>
            </g>
          </g>
          <path class="cls-14" d="M1942.318,1098.907l-130.827,161.748,2.038,1.557,130.827-161.748-2.038-1.557ZM1998.812,1138.444l-189.162,170.804,1.762,1.853,189.162-170.817-1.762-1.839ZM2029.261,1206.842l-201.378,134.176,1.465,2.082,201.381-134.172-1.468-2.085Z"/>
          <path class="cls-12" d="M2007.697,1140.691s-18.983-3.531-23.606-.8,8.091,2.892,10.568,2.085l-4.788,4.664s-10.896-2.573-12.713-12.537c-1.814-9.964,5.448-9.964,7.099-9.803,1.651.161,11.228,1.607,23.443,16.391h-.004Z"/>
          <path class="cls-24" d="M1980.444,1130.222c-2.087.605-3.659,2.031-3.12,4.684,0,0,.826,3.053,1.651,4.661.066-.108.151-.204.252-.282.625.952,1.337,1.792,2.094,2.532.611-.225,1.233-.424,1.862-.595-.235-.35-.01-.79.909-1.332.515-.303,1.209-.525,2.028-.689,3.448-1.288,8.606.047,9.694-.114l5.78.319s-17.204-10.324-21.149-9.181v-.003Z"/>
          <path class="cls-10" d="M2000.108,1138.764s-21.16-6.157-21.16-.212"/>
          <path class="cls-31" d="M2007.697,1140.691s-18.983-3.531-23.606-.8,8.091,2.892,10.568,2.085l-4.788,4.664s-10.896-2.573-12.713-12.537c-1.814-9.964,5.448-9.964,7.099-9.803,1.651.161,11.228,1.607,23.443,16.391h-.004Z"/>
          <path class="cls-3" d="M2005.227,1140.543c-.494,2.32-1.04,5.367-.76,6.732,6.184,15.375,14.589,15.708,11.297,34.389l6.508-.178c.705-8.666-.701-16.875-2.342-20.524-.819-1.826-2.636-3.992-4.626-6.104-1.993-2.109-4.159-4.16-5.683-5.757-3.047-3.195-.936-7.297-.936-7.297l-3.458-1.261Z"/>
          <path class="cls-44" d="M2001.189,1139.067s-1.147,2.939-1.147,7.062c0,2.061.287,4.415,1.147,6.85.86,2.431,1.589,4.843,2.187,7.509,1.199,5.34,1.872,11.726,2.028,21.455l10.357-.279c3.296-18.681-5.113-19.014-11.293-34.389-.28-1.365.266-4.412.76-6.732l-4.038-1.476Z"/>
          <path class="cls-31" d="M2008.685,1141.804s-2.107,4.103.936,7.297c1.523,1.597,3.69,3.649,5.683,5.757,1.99,2.112,3.807,4.278,4.629,6.104,1.637,3.649,3.04,11.858,2.339,20.524M2022.273,1181.486l-16.866.457c-.159-9.732-.836-16.118-2.031-21.455-.576-2.543-1.306-5.05-2.187-7.509-.769-2.206-1.157-4.521-1.147-6.85,0-4.123,1.147-7.062,1.147-7.062l7.497,2.737"/>
          <path class="cls-10" d="M2010.793,1181.715s2.346-10.264-3.043-19.384c-5.424-9.329-7.047-23.52-4.218-22.582"/>
          <path class="cls-35" d="M1991.934,1330.694l-14.572,24.818-57.571,4.17-5.441.713s-8.409,19.296-17.747,21.869c-9.338,2.569-71.787,21.529-71.787,21.529l-1.924-13.899,40.471-12.712s11.874-4.251,15.408-8.757c3.527-4.506,32.968-31.947,32.968-31.947l80.196-5.784Z"/>
          <g>
            <path class="cls-14" d="M1966.135,1267.407l-83.682,135.763,1.776,1.039,83.682-135.763-1.776-1.039Z"/>
            <path class="cls-5" d="M1964.449,1272.892s2.363,2.176,5.296-1.308c2.936-3.484,11.511-17.86,13.152-20.473,1.641-2.616,3.755-4.792.967-6.537-2.781-1.742-6.685.437-9.894,6.971-3.206,6.534-13.749,17.86-9.521,21.348h0Z"/>
          </g>
          <path class="cls-2" d="M2038.493,1291.533c3.125-.41,8.461,5.541,9.89,15.881,1.429,10.34.055,19.054-3.07,19.461-1.143.142-2.417-.864-3.654-2.885l-167.058,21.874-3.516-30.724,165.742-19.17c.542-3.956.097-4.225,1.668-4.438h0Z"/>
          <path class="cls-36" d="M1877.709,1314.542s.965,1.531,1.362,2.52M1881.321,1314.129s.969,1.53,1.362,2.522M1884.938,1313.718s.965,1.531,1.361,2.517M1888.55,1313.305s.969,1.53,1.362,2.52M1892.166,1312.891s.965,1.531,1.362,2.52M1895.779,1312.478s.965,1.531,1.362,2.522M1899.392,1312.067s.969,1.53,1.361,2.517M1903.008,1311.654s.965,1.531,1.362,2.52M1906.62,1311.241s.969,1.53,1.362,2.52M1910.236,1310.827s.965,1.531,1.362,2.52M1913.849,1310.416s.969,1.53,1.361,2.517M1917.465,1310.003s.965,1.531,1.362,2.52M1921.077,1309.59s.969,1.53,1.362,2.52M1924.693,1309.176s.965,1.531,1.362,2.52M1928.306,1308.765s.965,1.531,1.361,2.517M1931.918,1308.352s.969,1.53,1.362,2.52M1935.534,1307.939s.965,1.531,1.362,2.52M1939.147,1307.525s.969,1.53,1.362,2.52M1942.763,1307.112s.966,1.533,1.362,2.522M1946.376,1306.701s.969,1.53,1.361,2.517M1949.992,1306.288s.965,1.531,1.362,2.52M1953.604,1305.874s.969,1.53,1.362,2.52M1957.22,1305.461s.966,1.533,1.362,2.522M1960.833,1305.05s.965,1.531,1.361,2.517M1964.445,1304.637s.969,1.53,1.362,2.52M1968.061,1304.223s.965,1.531,1.362,2.52M1971.673,1303.81s.969,1.533,1.362,2.522M1975.29,1303.399s.965,1.531,1.361,2.517M1978.902,1302.986s.969,1.53,1.362,2.52M1982.518,1302.572s.965,1.531,1.362,2.52M1986.131,1302.159s.969,1.533,1.362,2.522M1989.747,1301.748s.965,1.531,1.361,2.517M1993.359,1301.335s.965,1.531,1.362,2.52M1996.972,1300.922s.969,1.53,1.362,2.52M2000.588,1300.508s.966,1.533,1.362,2.522M2004.201,1300.097s.969,1.53,1.361,2.517M2007.817,1299.684s.965,1.531,1.362,2.52M2011.429,1299.271s.969,1.53,1.362,2.52M2015.045,1298.857s.966,1.533,1.362,2.522M2018.658,1298.446s.969,1.53,1.361,2.517M2022.274,1298.033s.965,1.531,1.362,2.52M2025.886,1297.62s.965,1.531,1.362,2.52M2029.499,1297.207s.969,1.533,1.362,2.522M2033.115,1296.795s.965,1.531,1.361,2.517M2036.727,1296.382s.969,1.53,1.362,2.52"/>
          <path class="cls-46" d="M2042.554,1306.096l-169.182,22.154M2043.065,1309.795l-169.182,22.154M2043.576,1313.498l-169.182,22.154M2043.832,1315.347l-169.182,22.154M2044.088,1317.196l-169.182,22.154M2044.343,1319.046l-169.182,22.154M2044.599,1320.895l-169.182,22.154M2044.854,1322.745l-169.182,22.154"/>
          <path class="cls-9" d="M2013.358,1296.077c2.94-.187,5.87,7.307,6.545,16.739,0,.007,0,.013.001.02.672,9.428-1.165,17.217-4.104,17.402-.55.027-1.115-.218-1.676-.727,1.919-2.591,2.858-9.068,2.35-16.225-.532-7.432-2.501-13.914-4.87-16.031.537-.732,1.132-1.13,1.757-1.173l-.004-.003ZM1895.05,1311.569c2.94-.181,5.869,7.318,6.542,16.75,0,.003,0,.006,0,.008.672,9.428-1.165,17.217-4.104,17.402-.55.027-1.115-.218-1.676-.727,1.919-2.591,2.858-9.068,2.35-16.225-.532-7.432-2.501-13.914-4.87-16.031.537-.732,1.132-1.13,1.757-1.173v-.003Z"/>
          <path class="cls-48" d="M1870.262,1325.316l-9.435-.615s-5.792,1.933-6.15,4.34c-.362,2.407-.564,5.975-.082,6.923.475.949,11.477,2.875,15.337-.492l.33-10.155Z"/>
          <path class="cls-59" d="M1854.663,1329.035c3.772.9,10.43.539,15.461.066l-.207,6.365c-3.862,3.37-14.861,1.44-15.339.492-.478-.949-.278-4.515.083-6.921v-.002s.002,0,.002,0Z"/>
          <path class="cls-43" d="M1872.002,1314.304c.373-.026.762.201,1.151.673-.807,3.314-1.037,8.862-.611,14.758.492,6.785,1.767,12.883,3.271,15.646-.438,1.235-.969,1.908-1.552,1.964-2.039.178-4.198-7.075-4.822-16.2,0,0,0-.001,0-.002-.624-9.124.524-16.664,2.563-16.84,0,0,0,0,0,0Z"/>
          <g>
            <path class="cls-43" d="M1967.185,1314.563v.111c-1.949.427-3.333,2.114-3.331,4.059v27.808l20.2-19.663c1.414-1.374,1.66-3.519.591-5.162l.082-.078,8.752,8.518-.034.033c-1.685-1.312-4.125-1.226-5.688.295l-20.537,19.992h29.243c1.999.004,3.732-1.343,4.171-3.241h.114v12.047h-.048c-.231-2.108-2.058-3.707-4.237-3.706h-29.045l20.675,20.127c1.412,1.378,3.617,1.619,5.307.578l.08.079-8.752,8.518-.036-.033c1.348-1.641,1.26-4.015-.303-5.537l-20.536-19.992v28.466c-.003,1.945,1.381,3.632,3.331,4.059v.111h-12.376v-.047c2.143-.231,3.807-1.972,3.807-4.123v-28.931l-21.015,20.457c-1.563,1.521-1.652,3.897-.303,5.537l-.034.033-8.753-8.518.082-.078c1.689,1.039,3.892.799,5.303-.578l20.676-20.128h-29.041c-2.178-.001-4.006,1.597-4.237,3.705h-.048v-12.046h.114c.439,1.898,2.172,3.245,4.171,3.241h29.24l-20.537-19.992c-1.563-1.521-4.003-1.607-5.687-.295l-.034-.033,8.753-8.518.08.078c-1.068,1.644-.822,3.789.592,5.162l20.678,20.129v-28.274c0-2.151-1.663-3.892-3.808-4.124v-.046h12.377Z"/>
            <ellipse class="cls-9" cx="1961.216" cy="1353.627" rx="7.882" ry="7.673"/>
            <path class="cls-22" d="M1961.235,1302.514c28.789,0,52.127,22.718,52.128,50.742,0,28.025-23.338,50.744-52.127,50.744h0c-28.789,0-52.128-22.718-52.129-50.742h0c0-28.026,23.339-50.744,52.128-50.744h0ZM1961.235,1315.426c-21.464,0-38.865,16.938-38.865,37.832h0c0,20.894,17.4,37.832,38.865,37.832h0c21.464,0,38.865-16.938,38.865-37.832h0c0-20.894-17.4-37.832-38.865-37.832h0Z"/>
            <ellipse class="cls-59" cx="1961.214" cy="1308.773" rx="1.666" ry="1.622"/>
            <ellipse class="cls-59" cx="1961.214" cy="1397.286" rx="1.666" ry="1.622"/>
            <g>
              <ellipse class="cls-59" cx="1929.067" cy="1321.737" rx="1.666" ry="1.622"/>
              <ellipse class="cls-59" cx="1993.362" cy="1384.325" rx="1.666" ry="1.622"/>
            </g>
            <g>
              <ellipse class="cls-59" cx="1993.361" cy="1321.735" rx="1.666" ry="1.622"/>
              <ellipse class="cls-59" cx="1929.065" cy="1384.323" rx="1.666" ry="1.622"/>
            </g>
            <g>
              <ellipse class="cls-59" cx="2512.008" cy="1353.031" rx="1.666" ry="1.622"/>
              <ellipse class="cls-59" cx="2602.936" cy="1353.031" rx="1.666" ry="1.622"/>
            </g>
            <g>
              <ellipse class="cls-59" cx="2003.35" cy="1369.657" rx="1.666" ry="1.622"/>
              <ellipse class="cls-59" cx="1919.081" cy="1336.406" rx="1.666" ry="1.622"/>
            </g>
            <g>
              <ellipse class="cls-59" cx="1919.488" cy="1370.601" rx="1.666" ry="1.622"/>
              <ellipse class="cls-59" cx="2002.943" cy="1335.461" rx="1.666" ry="1.622"/>
            </g>
            <g>
              <ellipse class="cls-59" cx="1943.393" cy="1312.315" rx="1.666" ry="1.622"/>
              <ellipse class="cls-59" cx="1979.035" cy="1393.745" rx="1.666" ry="1.622"/>
            </g>
            <g>
              <ellipse class="cls-59" cx="1979.01" cy="1312.31" rx="1.666" ry="1.622"/>
              <ellipse class="cls-59" cx="1943.368" cy="1393.739" rx="1.666" ry="1.622"/>
            </g>
          </g>
          <ellipse class="cls-9" cx="2021.422" cy="1397.64" rx="8.26" ry="8.04"/>
          <path class="cls-41" d="M1818.494,1291.055s20.313,8.518,22.065-6.141c0,0,12.257,14.998-4.553,24.549,0,0,7.704-11.935-17.512-13.297,0,0-3.5.34-3.151-2.388.349-2.724,3.151-2.724,3.151-2.724Z"/>
          <path class="cls-59" d="M1815.342,1294.249c2.876.246,9.439.952,19.633,2.937,4.524.881,7.692.335,9.914-.803.03,4.336-1.974,9.163-8.863,13.075,0,0,7.705-11.932-17.509-13.296,0,0-3.08.3-3.174-1.913h0Z"/>
          <path class="cls-41" d="M1827.448,1290.927l1.707.249-7.003,45.681-1.707-.249,7.003-45.681Z"/>
          <path class="cls-41" d="M1826.761,1290.83l3.075.447-1.409,9.201-3.075-.447,1.409-9.201Z"/>
          <g>
            <ellipse class="cls-41" cx="1866.445" cy="1412.593" rx="12.33" ry="5.652"/>
            <g>
              <path class="cls-2" d="M1865.365,1345.557c1.138-.055,2.238.13,2.541.795.608,1.329-1.213,1.623-1.213,1.623v7.534c0,2.363,1.972,37.954,2.883,44.896.329,2.504.951,4.586,1.616,6.223,0,0,8.701,1.014,8.245,4.854-.455,3.84-5.161,6.38-13.048,6.204-9.726-.216-12.442-2.216-12.897-4.58-.455-2.363,2.276-4.577,6.372-5.315l2.124-11.816s-.454,1.772-6.067.591c-5.614-1.182-5.463-9.452-5.463-9.452,0,0-.152-24.812.152-29.391.303-4.578,2.884-6.793,6.525-8.123,2.882-.443,4.854.149,5.157,1.772.303,1.625,1.062,2.069,1.517,1.477.455-.59,0-5.022,0-5.022,0,0-2.124-1.032-1.214-1.623.455-.295,1.632-.591,2.77-.647ZM1858.046,1354.031l-1.973,1.034-.607,5.315v26.88l.303,1.771,2.58,2.069,2.881-.591,1.517-1.772,1.062-24.072.303-7.679-3.641-2.363-2.426-.591Z"/>
              <path class="cls-10" d="M1859.086,1410.599s3.337-8.273,4.097-29.98c.76-21.711,1.061-23.483,0-24.515-1.061-1.036-4.097-2.808-5.918-1.772-1.821,1.032-1.365,1.328-1.669,5.021s-.304,27.616-.304,27.616c0,0,.912,3.988,3.189,3.84,2.273-.148,3.942-1.032,4.249-2.657"/>
            </g>
            <path class="cls-10" d="M1873.65,1411.043s-3.185-3.692-4.094-10.633c-.912-6.941-2.885-42.534-2.885-44.898v-7.533"/>
          </g>
          <path class="cls-47" d="M1910.325,1385.243s-11.138.319-14.741,7.018c-3.603,6.695-1.637,13.075,2.622,15.627,4.256,2.549,13.432,4.463,17.688,1.913,4.259-2.556,7.21-10.845,2.294-11.804-4.912-.955-13.104-2.549-12.119-5.737.981-3.191,5.241-3.191,5.241-3.191l-.984-3.827Z"/>
          <path class="cls-32" d="M1908.826,1383.79l2.036-.318,1.621,7.046-2.036.318-1.621-7.046Z"/>
          <path class="cls-5" d="M2066.879,1350.383l-47.042,23.829.249.464,3.31.582,44.682-22.642-1.199-2.233Z"/>
          <path class="cls-5" d="M2068.268,1351.506l-26.507,45.688,4.301-2.287,24.469-42.167-2.263-1.234Z"/>
          <path class="cls-59" d="M2113.582,1307.079s-.009,0-.014,0c-.337.01-.657.148-.891.383l-44.648,43.146c-.523.475-.551,1.273-.063,1.782.488.509,1.308.537,1.831.062.022-.02.043-.04.063-.062l43.888-42.409v-2.892c-.056-.007-.113-.01-.169-.01h.004Z"/>
          <path class="cls-49" d="M2075.298,1344.148c-.336.011-.654.148-.888.383l-44.326,42.833,3.88-.192,42.267-40.849c.519-.479.541-1.277.049-1.783-.255-.262-.612-.405-.982-.393h0Z"/>
          <ellipse class="cls-9" cx="1907.378" cy="1429.851" rx="8.26" ry="8.04"/>
          <ellipse class="cls-9" cx="1927.074" cy="1413.746" rx="8.26" ry="8.04"/>
          <ellipse class="cls-9" cx="1957.406" cy="1415.663" rx="8.26" ry="8.04"/>
          <ellipse class="cls-9" cx="1980.454" cy="1427.933" rx="8.26" ry="8.04"/>
          <ellipse class="cls-9" cx="2000.544" cy="1427.933" rx="8.26" ry="8.04"/>
          <ellipse class="cls-9" cx="2020.634" cy="1427.933" rx="8.26" ry="8.04"/>
          <ellipse class="cls-9" cx="2040.724" cy="1427.933" rx="8.26" ry="8.04"/>
          <ellipse class="cls-9" cx="1990.696" cy="1412.979" rx="8.26" ry="8.04"/>
          <ellipse class="cls-9" cx="2010.786" cy="1412.979" rx="8.26" ry="8.04"/>
          <ellipse class="cls-9" cx="2030.876" cy="1412.979" rx="8.26" ry="8.04"/>
          <path class="cls-45" d="M1948.084,1104.345s-.646,6.309,4.864,10.095c5.51,3.787,11.991,7.889,14.585,18.617,2.591,10.728.646,9.467.646,9.467l-17.176,2.838s1.945-7.573-2.27-13.566c-4.215-5.996-10.371-23.348-4.539-30.289l3.89,2.838Z"/>
          <path class="cls-51" d="M1947.516,1103.946c-1.025,2.438-2.815,8.24,1.194,12.387,5.186,5.364,10.049,7.889,11.993,15.145,1.165,4.344,1.938,8.817,2.405,11.876l5.051-.834s1.945,1.263-.649-9.464c-2.592-10.727-9.074-14.829-14.584-18.615-5.511-3.786-4.863-10.096-4.863-10.096l-.547-.399Z"/>
          <path class="cls-10" d="M1945.493,1101.187s-3.244,7.26.325,14.518c3.565,7.257,7.13,10.728,9.075,15.459,1.945,4.732,0,9.147,2.266,12.621"/>
          <path class="cls-20" d="M2079.948,1420.012c-.377.056-.637.398-.58.766.057.367.409.62.786.564.004,0,.007-.001.011-.002,0,0,11.739-1.796,20.465,6.86.245.285.681.322.973.083.292-.239.331-.663.086-.948-.023-.027-.048-.051-.074-.074-9.227-9.154-21.667-7.25-21.667-7.25Z"/>
          <path class="cls-41" d="M2100.427,1432.925s-.024,1.796,1.485,3.521c1.506,1.722,4.498,3.38,10.236,3.551l.038-1.345c-5.482-.165-8.011-1.695-9.224-3.08-1.209-1.386-1.154-2.613-1.154-2.613l-1.382-.034Z"/>
          <path class="cls-56" d="M2117.002,1446.417c1.838-4.654,6.802-5.727,6.802-5.727,0,0,.366-.36-1.106-3.76-1.468-3.4-.736-5.905-.736-5.905.553-18.079-1.285-22.911-1.285-22.911,1.285,0,7.172,6.8,7.172,6.8-.187-17.184-26.297-25.238-26.297-25.238,9.562,23.628,5.887,26.315,5.887,26.315,6.066-2.509,6.802-6.443,6.802-6.443,1.106,6.443.183,18.97.183,18.97,0,0,.37,5.909-5.331,3.043-3.05-1.53-17.833-8.508-17.833-8.508l-1.41,4.917,19.795,8.962s4.595,1.971,3.306,5.371c-1.285,3.4-2.021,3.935-2.021,3.935l6.071.182Z"/>
          <path class="cls-59" d="M2083.153,1419.846c.234.43.469.878.711,1.361.329.012.674.035,1.036.062-.224-.466-.456-.929-.696-1.387-.368-.018-.722-.031-1.051-.036h0ZM2086.651,1420.116c.162.445.324.904.487,1.409.326.052.667.123,1.006.19-.15-.485-.309-.967-.476-1.446-.348-.059-.684-.109-1.016-.153ZM2090.426,1420.877c.082.462.161.94.233,1.461.315.095.634.198.953.308-.063-.492-.136-.984-.218-1.473-.326-.102-.65-.208-.969-.295h0ZM2094.195,1422.216c-.009.469-.023.954-.048,1.468.296.141.593.288.889.444.03-.507.057-1.001.068-1.468-.303-.149-.606-.31-.908-.444ZM2097.671,1424.103c-.094.454-.2.924-.318,1.408.269.183.536.375.802.575.127-.496.227-.963.329-1.432-.27-.19-.541-.374-.813-.55h0Z"/>
          <path class="cls-59" d="M2102.627,1435.167l-.655,1.359c.203.225.435.446.693.665l.614-1.279c-.119-.115-.24-.23-.339-.344-.11-.128-.215-.262-.313-.4ZM2104.506,1436.842l-.175,1.459c.27.141.567.272.873.4l.168-1.4c-.297-.137-.587-.29-.866-.459h0ZM2106.694,1437.814l.273,1.484c.306.082.632.154.967.224l-.264-1.438c-.329-.079-.654-.169-.976-.27ZM2108.647,1438.3l.644,1.448c.344.047.686.095,1.055.13l-.637-1.428c-.364-.046-.731-.091-1.062-.149Z"/>
          <path class="cls-39" d="M2034.478,1191.11s-10.388-4.859-12.782-.777c-2.401,4.083-3.399,12.248,0,17.11,0,0,14.779,1.749,22.369-.777l1.002-.585-10.588-14.972Z"/>
          <path class="cls-1" d="M2024.152,1195.565c-1.65-.036-3.227.464-4.475,1.03-.506,3.733-.07,7.897,1.991,10.846,0,0,13.087,1.548,20.956-.375-3.785-1.157-10.308-7.245-14.763-10.318-1.084-.752-2.377-1.165-3.708-1.183Z"/>
          <path class="cls-10" d="M2019.695,1203.748s4.992-3.306,12.983.195c7.991,3.497,7.991,2.916,7.991,2.916"/>
          <path class="cls-31" d="M2034.478,1191.11s-10.388-4.859-12.782-.777c-2.401,4.083-3.399,12.248,0,17.11,0,0,14.779,1.749,22.369-.777l1.002-.585-10.588-14.972Z"/>
          <path class="cls-10" d="M2037.473,1207.639s1.596,6.611,1.997,20.413c.401,13.808-2.598,23.14-3.793,22.948"/>
          <path class="cls-46" d="M2044.862,1205.695s5.994,5.831,6.792,19.054c.798,13.223.601,22.363.601,22.363,0,0-9.79,5.636-18.976,3.302,0,0,1.596-3.887,1.796-9.332.2-5.448-.2-33.639-.2-33.639"/>
          <path class="cls-31" d="M1955.577,1144.249s4.792,19.252,5.389,28.194"/>
          <path class="cls-24" d="M1901.598,1292.912s5.45-5.726,5.796-8.168c.344-2.439.258-6.481-3.113-6.565-3.373-.084-19.373-2.693-24.215,1.096-4.845,3.788-5.71,5.723-4.757,7.66.951,1.935,4.928,5.051,8.216,4.881,3.285-.167,6.486,1.263,7.783.507,1.297-.758,6.919-7.242,8.388-1.433l.172,1.937,1.729.084Z"/>
          <path class="cls-34" d="M1886.149,1314.68s3.282-15.254,8.746-21.994c0,0,6.924-1.77,9.476,0,2.549,1.776-.367-2.127,2.549,1.422,2.915,3.546,2.915,17.024,2.915,17.024l3.645,3.195c-9.476,4.257-27.331.354-27.331.354h0Z"/>
          <path class="cls-30" d="M1912.744,1313.905c-8.746,4.611-26.6,1.062-26.6,1.062,0,0-2.912,6.74,0,5.676,2.915-1.062,1.46,2.481,4.373,0,2.915-2.481,2.915-3.192,2.915-3.192,0,0,16.761,0,20.043-1.065l-.73-2.481Z"/>
          <path class="cls-10" d="M1896.753,1294.894s1.183.301,2.666.44M1896.679,1296.803s1.16.287,2.655.404M1896.601,1298.713s1.137.27,2.646.371M1896.527,1300.625s1.114.251,2.635.334M1896.45,1302.535s1.091.237,2.629.298M1896.372,1304.444s1.071.223,2.62.265M1896.295,1306.354s1.048.206,2.612.229M1896.22,1308.266s1.025.187,2.6.195M1896.143,1310.176s1.002.17,2.594.159M1896.066,1312.085s.982.156,2.586.123M1895.989,1313.997s.959.139,2.577.084M1902.177,1295.691c1.117-.17,2.133-.577,2.721-1.394M1902.025,1297.531c1.254-.198,2.471-.65,3.328-1.555M1901.873,1299.368c1.392-.223,2.806-.722,3.935-1.712M1901.722,1301.205c1.526-.251,3.147-.792,4.542-1.868M1901.57,1303.045c1.853-.286,3.614-.98,5.149-2.029M1901.418,1304.885c2.054-.333,4.015-1.079,5.756-2.191M1901.266,1306.722c2.255-.377,4.415-1.174,6.36-2.347M1901.115,1308.562c2.458-.422,4.818-1.272,6.967-2.509M1900.963,1310.401c2.662-.466,5.223-1.368,7.574-2.668M1900.811,1312.238c2.865-.508,5.627-1.462,8.181-2.824M1900.659,1314.075c3.068-.552,6.031-1.558,8.786-2.983"/>
          <path class="cls-24" d="M1895.633,1286.852l-5.796,5.386M1891.896,1286.732l-3.823,5.322M1888.159,1286.615l-1.85,5.255M1884.425,1286.498l.12,5.185M1880.688,1286.378l2.09,5.121M1876.951,1286.261l4.066,5.051M1879.113,1286.682l2.508,4.8"/>
          <path class="cls-10" d="M1918.457,1104.695s4.881-6.474,19.312-.827"/>
        </g>
        <path class="cls-18" d="M1645.474,1441.831c-1.905,6.95-5.712,24.561-5.712,24.561,38.135,17.233,145.666,18.024,155.673,18.061v.012l.965-.006.94.006v-.012c10.035-.037,120.82-.806,159.005-18.061,0,0-3.81-17.612-5.715-24.561,0,0-4.76,15.754-154.242,18.536-149.486-2.779-150.913-18.536-150.913-18.536h0Z"/>
        <path class="cls-5" d="M1923.834,1438.312c2.097-5.307,19.287-4.9,32.705-.817,13.418,4.079,20.963,2.858,49.895,3.262,28.929.41,45.283,6.941,47.798,7.758,2.515.814,46.119,21.63,62.892,26.937,16.772,5.307,32.705,0,32.705,0,0,0-19.287,18.368-46.541,3.672,0,0,22.642,12.244,37.317,13.879,0,0-21.902,4.469-40.409-3.316-1.658-.696-3.289-1.493-4.875-2.398-11.587-5.606-21.913-9.954-31.237-13.327-53.053-19.209-73.687-6.978-110.065-16.061"/>
        <path class="cls-31" d="M2066.113,1472.977c17.038,5.606,25.267,10.768,34.591,14.144M2068.21,1469.87c14.786,5.112,23.277,10.021,32.346,13.425M2070.307,1466.766c12.533,4.621,21.284,9.271,30.104,12.698M2072.401,1463.658c10.284,4.13,19.294,8.525,27.862,11.979M2074.498,1460.555c8.485,3.867,17.024,7.619,25.616,11.256"/>
        <path class="cls-46" d="M2046.139,1464.761s-23.861-7.015-42.323-4.822M2043.44,1460.376s-22.403-6.137-42.102-4.493M2040.735,1455.994s-20.935-5.26-41.87-4.163M2038.034,1451.609s-19.474-4.382-41.649-3.834M2035.332,1447.227s-18.009-3.507-41.421-3.507"/>
        <path class="cls-31" d="M1971.846,1443.283s-10.768-2.556-21.591-4.079c-9.224-1.298-18.493-1.85-21.184.572M1973.871,1447.009s-12.575-1.369-22.721-3.827M1975.899,1450.735s-14.389-.182-23.854-3.575M1977.923,1454.458s-16.199,1.009-24.984-3.319M1979.965,1457.831s-18.033,1.957-26.145-2.741"/>
        <path class="cls-52" d="M1923.931,1437.529c2.487,4.691,16.755,2.061,25.924,4.967-2.211,1.89-8.505,5.212-26.21,8.508-2.936-10.728.287-13.475.287-13.475Z"/>
        <path class="cls-6" d="M1769.35,1346.518h61.113v55.555h-61.113v-55.555Z"/>
        <path class="cls-26" d="M1799.557,1399.87c4.007,0,7.887-.195,11.473-.555M1799.561,1396.894c4.007,0,7.884-.198,11.469-.558M1799.561,1393.914c4.007,0,7.884-.195,11.469-.555M1799.561,1390.938c4.007,0,7.884-.198,11.469-.555M1799.561,1387.962c4.007-.003,7.884-.198,11.469-.558M1799.561,1384.983c4.007,0,7.884-.195,11.469-.555M1799.561,1382.006c4.007-.003,7.884-.198,11.469-.558M1799.561,1379.027c4.007,0,7.884-.195,11.469-.555M1799.561,1376.051c4.007,0,7.884-.198,11.469-.558M1799.561,1373.071c4.007,0,7.884-.195,11.469-.555M1799.561,1370.095c4.007,0,7.884-.198,11.469-.558M1799.561,1367.116c4.007,0,7.884-.195,11.469-.555M1799.561,1364.139c4.007,0,7.884-.198,11.469-.555M1799.561,1361.163c4.007-.003,7.884-.198,11.469-.558M1799.561,1358.184c4.007,0,7.884-.195,11.469-.555"/>
        <path class="cls-20" d="M1830.062,1394.688c-2.335,1.288-5.559,2.415-9.421,3.302M1830.062,1391.678c-2.335,1.291-5.559,2.415-9.421,3.302M1830.062,1388.668c-2.335,1.291-5.559,2.415-9.421,3.302M1830.062,1385.658c-2.335,1.291-5.559,2.418-9.421,3.302M1830.062,1382.649c-2.335,1.291-5.559,2.418-9.421,3.302M1830.062,1379.642c-2.335,1.288-5.559,2.415-9.421,3.302M1830.062,1376.632c-2.335,1.291-5.559,2.415-9.421,3.302M1830.062,1373.623c-2.335,1.291-5.559,2.415-9.421,3.302M1830.062,1370.613c-2.335,1.291-5.559,2.418-9.421,3.302M1830.062,1367.603c-2.335,1.291-5.559,2.418-9.421,3.302M1830.062,1364.596c-2.335,1.288-5.559,2.415-9.421,3.302M1830.062,1361.587c-2.335,1.291-5.559,2.415-9.421,3.302M1830.062,1358.577c-2.335,1.291-5.559,2.415-9.421,3.302M1830.062,1355.567c-2.335,1.291-5.559,2.418-9.421,3.302M1830.062,1352.557c-2.335,1.291-5.559,2.418-9.421,3.302"/>
        <path class="cls-8" d="M1785.504,1357.34c-5.755-.767-10.678-1.981-14.254-3.497M1785.504,1360.333c-5.755-.76-10.678-1.977-14.254-3.491M1785.504,1363.332c-5.755-.763-10.678-1.977-14.254-3.494M1785.504,1366.329c-5.755-.763-10.678-1.977-14.254-3.494M1785.504,1369.325c-5.755-.763-10.678-1.977-14.254-3.491M1785.504,1372.325c-5.755-.767-10.678-1.981-14.254-3.497M1785.504,1375.318c-5.755-.76-10.678-1.977-14.254-3.491M1785.504,1378.317c-5.755-.763-10.678-1.977-14.254-3.494M1785.504,1381.313c-5.755-.763-10.678-1.977-14.254-3.491M1785.504,1384.313c-5.755-.767-10.678-1.981-14.254-3.497M1785.504,1387.306c-5.755-.76-10.678-1.977-14.254-3.491M1785.504,1390.306c-5.755-.763-10.678-1.981-14.254-3.494M1785.504,1393.302c-5.755-.763-10.678-1.977-14.254-3.494M1785.504,1396.298c-5.755-.763-10.678-1.977-14.254-3.491M1785.504,1399.298c-5.755-.767-10.678-1.981-14.254-3.497"/>
        <path class="cls-26" d="M1799.557,1329.993c-17.305,0-31.334,3.558-31.334,7.946v.003c.016.45.182.899.498,1.342v7.607c-.316.444-.483.894-.498,1.345.003.469.169.937.498,1.399v1.453h1.6c4.652,3.068,16.274,5.094,29.237,5.095,12.953-.004,24.561-2.029,29.209-5.095h1.935v-2.001c.123-.283.187-.567.19-.851-.017-.251-.08-.501-.19-.75v-8.794c.11-.249.173-.499.19-.75.007-4.389-14.015-7.948-31.32-7.95h-.013ZM1799.557,1335.37c.651.003,1.302.011,1.952.024.531.007,1.06.017,1.589.03.464.015.928.033,1.389.054.57.021,1.138.045,1.703.074.481.029.959.06,1.434.094.516.034,1.029.071,1.537.111.527.045,1.048.093,1.565.145.448.042.893.087,1.333.134.533.061,1.06.126,1.579.195.41.05.815.103,1.216.158.532.077,1.055.158,1.568.242.362.058.719.117,1.071.178.449.082.889.167,1.32.256.288.053.572.106.853.161h-.048c4.26.901,7.501,2.073,9.39,3.396-4.461,3.153-16.241,5.258-29.451,5.263-13.2-.003-24.976-2.103-29.451-5.253,3.713-2.626,12.585-4.567,23.374-5.112,1.024-.051,2.057-.089,3.095-.114.991-.025,1.986-.039,2.981-.04v.003Z"/>
        <path class="cls-20" d="M1799.557,1335.37c-13.21.005-24.99,2.11-29.451,5.263,4.47,3.151,16.248,5.253,29.451,5.256,13.213-.005,24.994-2.112,29.451-5.266-4.474-3.149-16.251-5.25-29.451-5.253h0Z"/>
        <path class="cls-16" d="M1798.873,1330.003c-.839.003-1.676.014-2.511.034v5.381c.835-.023,1.672-.038,2.511-.044v-5.371ZM1816.043,1331.19v5.381c.866.137,1.706.286,2.515.444v-5.384c-.81-.157-1.649-.304-2.515-.441h0ZM1781.286,1331.492c-.871.159-1.709.33-2.511.511v5.374c.802-.18,1.641-.35,2.511-.508v-5.377ZM1819.394,1344.08c-.936.194-1.915.373-2.933.538v10.29c1.017-.164,1.997-.342,2.933-.535v-10.294ZM1790.499,1345.536v10.304c.964.075,1.942.138,2.93.188v-10.304c-.988-.051-1.965-.114-2.93-.188Z"/>
        <path class="cls-26" d="M1830.701,1396.662c-1.16.688-2.722,1.334-4.64,1.92-5.714,2.317-15.724,3.727-26.501,3.733-10.729-.004-20.704-1.4-26.438-3.699-1.786-.544-3.266-1.141-4.401-1.776v6.484c-.316.444-.483.894-.498,1.345.003.468.17.935.498,1.396v1.456h1.6c4.656,3.067,16.277,5.091,29.237,5.091,12.949-.003,24.556-2.027,29.209-5.091h1.935v-2.004c.123-.283.187-.567.19-.851-.017-.251-.08-.501-.19-.75v-7.254Z"/>
        <path class="cls-24" d="M1769.353,1351.825v8.905l11.214,39.941c.845.164,1.723.316,2.629.457l-13.843-49.303Z"/>
        <path class="cls-24" d="M1790.606,1355.847l-9.901,44.851c.768.147,1.562.285,2.38.414l9.963-45.103c-.822-.045-1.637-.099-2.442-.161ZM1818.513,1354.545c-.84.162-1.712.314-2.612.454l-12.126,47.232c.844-.027,1.683-.063,2.515-.108l12.223-47.578Z"/>
        <path class="cls-24" d="M1790.575,1355.843l12.378,46.421c.83-.025,1.655-.059,2.474-.101l-12.305-46.152c-.858-.047-1.707-.103-2.546-.168Z"/>
        <path class="cls-53" d="M1819.193,1354.414c-.767.157-1.562.306-2.384.444l12.133,41.777,1.52-.424v-2.969l-11.269-38.828Z"/>
        <path class="cls-16" d="M1830.666,1396.679c-.751.439-1.667.861-2.736,1.261v10.055c.299-.156.578-.314.836-.474h1.9v-10.842ZM1780.263,1400.613v10.301c.879.174,1.793.335,2.74.484v-10.301c-.946-.15-1.859-.313-2.736-.488l-.003.003ZM1805.717,1402.153c-.906.047-1.82.084-2.74.111v10.294c.919-.023,1.833-.057,2.74-.101v-10.304Z"/>
        <path class="cls-31" d="M1803.402,1075.851h5.396M1803.271,1072.848h5.396M1803.133,1069.845h5.4M1803.002,1066.842h5.396M1802.867,1063.842h5.396M1802.736,1060.839h5.396M1802.604,1057.836h5.396M1802.466,1054.833h5.4M1802.335,1051.83h5.396M1802.2,1048.83h5.396M1802.066,1045.827h5.396M1801.934,1042.824h5.393M1801.8,1039.821h5.396M1801.661,1036.822h5.4M1801.53,1033.818h5.396M1801.395,1030.815h5.396M1801.261,1027.812h5.396M1801.129,1024.809h5.396M1800.991,1021.81h5.4M1800.86,1018.807h5.396M1800.725,1015.804h5.396M1800.59,1012.8h5.396M1800.459,1009.801h5.393M1800.324,1006.798h5.396"/>
        <path class="cls-19" d="M1790.251,981.875c-51.073-6.571-67.217-1.715-69.566-.858s-35.223,9.719-48.137,30.861c-12.917,21.142-2.936,29.143-2.936,29.143-2.349-4.856,6.163-22.857,6.163-22.857-4.111,7.429,1.175,19.999,1.175,19.999-1.762-3.713,2.055-14.857,2.055-14.857l2.936,8.858c0-5.145,2.639-17.43,2.639-17.43.294,16.001,3.524,18.859,3.524,18.859-2.936-4.002,2.055-28.574,2.055-28.574-2.936,14.575,1.762,17.716,1.762,17.716,0-17.144,8.509-26.002,8.509-26.002-9.099,10.001-2.639,24.573-2.639,24.573.881-16.858,14.088-30.286,14.088-30.286-12.33,12.86-4.988,21.428-4.988,21.428.294-10.855,19.37-26.57,19.37-26.57-8.219,7.714-7.925,17.144-7.925,17.144,3.23-6.003,15.556-17.716,15.556-17.716-2.936,4.002-5.576,14.571-5.576,14.571l3.817-2.287,10.564-12.57-6.457,9.715,6.46-2.858,7.334-6.571-3.227,4.284,5.286-1.429,5.282-5.999-3.23,4.288h7.631l3.23-3.144-1.468,3.43,5.576.286,1.762-3.144-.294,3.144h2.643l2.349-4.573-.884,4.573s6.166,0,7.341,1.426c1.175,1.429-37.573,11.716-37.573,11.716,0,0,8.512,0,9.099,2.287s-19.374,5.428-19.374,5.428l9.687,4.002-19.374,2.569,14.091,1.715-24.362,5.717h22.307l-23.481,4.57,14.969,2.001-19.667,2.858,18.786,1.712-20.251,8.286,10.858-1.715c-21.426,20.002-13.794,34.288-13.794,34.288,1.468-6.289,11.155-20.86,11.155-20.86-2.349,18.573,2.936,25.144,2.936,25.144.587-5.142,7.334-31.43,7.334-31.43,1.175,6.003,1.762,23.143,1.762,23.143,4.992-4.002,2.936-24.001,2.936-24.001l7.925,7.432c-3.817-6.289-2.936-20.86-2.936-20.86,2.349,2.573,5.286,12.57,5.286,12.57.294-2.287,2.639-19.141,2.639-19.141,0,5.999,4.698,17.716,4.698,17.716l1.762-20.002c.29,4.859,5.869,14.571,5.869,14.571v-21.714l3.814,9.715.587-15.143,1.762,17.716,3.23-3.716-2.643-.286,1.175-.572,3.227-17.43,4.992,8.004,1.762-5.145-1.175-8.286c1.762.572,4.401,5.717,4.401,5.717v-10.576l4.698,2.001,7.044-10.001-4.405,8.004,6.754-4.002-7.928,5.999,4.992,2.001-11.155,1.143v2.858l9.98.854c-14.088,2.287-14.382,6.289-14.382,6.289l13.501-.572c-10.568-.286-18.199,7.143-18.199,7.143l16.143-.572c-14.969,1.143-21.132,6.857-21.132,6.857l18.786,1.143c-9.397-.858-19.667,9.144-19.667,9.144l12.33.286c-11.449,1.143-14.091,7.429-14.091,7.429l9.98.286c-10.274,5.714-10.861,15.429-10.861,15.429l11.449-8.858c-12.036,10.287-7.925,18.859-7.925,18.859l7.338-8.286c-10.274,9.712-7.925,16.572-7.925,16.572l7.635-8.004c-3.817,24.29,1.465,24.862,1.465,24.862l1.762-24.573c6.457,3.141,10.564,17.426,10.564,17.426l-5.576-22.572c6.163,4.288,7.925,13.145,7.925,13.145,2.349-10.29-7.338-23.718-7.338-23.718l12.036,14.861-9.099-22.575,10.564,15.432c.294-14.575-8.219-23.718-8.219-23.718l12.917,10.862c-.587-4.573-7.338-16.576-7.338-16.576,2.639,2.001,7.631,8.004,7.631,8.004-1.762-7.146-9.099-15.432-9.099-15.432,3.524.858,9.393,8.004,9.393,8.004,0-4.002-4.111-18.862-4.111-18.862l4.405,9.147-1.762-14.861,3.814,5.717-.878-10.29,2.639.572,1.762-12.285-.881,12.574-2.936-1.143.881,9.998,9.099-9.712-5.286,17.43,9.103-8.286-7.338,15.143,10.564-12.002-7.925,19.717,8.512-7.143-7.925,14.285c4.405,0,13.21-9.429,13.21-9.429-4.405,2.573-10.861,18.287-10.861,18.287,5.576,0,9.393-9.715,9.393-9.715l-9.099,16.286c5.576-1.715,11.742-12.002,11.742-12.002,1.175,5.717-9.687,24.287-9.687,24.287,3.524,0,9.099-4.57,9.099-4.57,0,0,.881-3.716-2.936,3.144-3.817,6.857-12.62,15.143-12.62,15.143,7.631.286,14.969-9.719,14.969-9.719,1.175,4.573-9.099,22.575-9.099,22.575,7.338-.572,13.501-20.571,13.501-20.571,2.349,2.569,3.817,25.716,4.405,22.857.587-2.858.294-31.43.294-31.43,1.465,2.001,7.466,15.079,7.466,15.079.439-6.389-6.564-31.086-6.564-31.086l8.315,14.904-10.063-28.534,12.25,14.481-15.311-28.958,7.877,11.498c-2.626-19.589-15.753-19.589-15.753-19.589,15.753-2.132,17.066,17.033,17.066,17.033,3.496-.851,3.061-10.647,3.061-10.647l.874,4.685,2.626,16.182,1.748-14.053v17.46c0,1.705,5.251-10.22,5.251-10.22,1.313,2.129,1.313,16.609,1.313,16.609l4.374-11.501c2.626,6.817.878,18.314.878,18.314,4.374,0,5.686-10.223,5.686-10.223l5.251,14.908-.439-11.071c-.439-11.074-15.753-32.791-19.688-34.924-3.938-2.129-19.249-6.813-19.249-6.813l-14.437-13.199,14.44,13.199c1.748-2.129-1.752-12.776-1.752-12.776l11.373,14.481c2.626-5.112-2.626-13.63-2.626-13.63,3.5,3.834,13.563,17.891,13.563,17.891,1.313-5.112-2.626-16.613-2.626-16.613,3.064,2.983,14.002,20.443,14.002,20.443-.439-1.705-6.564-19.165-6.564-19.165,7.438,6.389,14.876,26.829,14.876,26.829,2.187-6.813-3.064-24.7-3.064-24.7l12.689,29.385c1.313-5.962-.878-17.884-.878-17.884,3.938,3.407,10.502,18.738,10.502,18.738-.878-8.945-3.5-20.016-3.5-20.016l11.373,20.44-2.187-13.626,6.999,14.904-3.5-13.203,9.625,13.203-7.877-14.053,11.376,11.074s-16.624-20.016-20.123-22.999c-3.5-2.979-34.56-14.053-41.559-17.46-7.002-3.407-37.624-1.702-37.624-1.702l9.189-.427-1.752-3.834,1.748,3.407h6.125l-3.5-3.407,2.626,3.834h10.499l-6.999-5.962c3.5,1.705,6.999,5.535,6.999,5.535l5.251.427-3.5-7.24,5.251,8.091,8.747,1.705c-1.313-3.834-6.564-9.796-6.564-9.796,3.5,3.407,7.877,10.223,7.877,10.223l7.438,2.556c0-3.834-6.125-12.352-6.125-12.352,5.251,4.257,9.625,13.203,9.625,13.203.435-3.407-2.626-13.63-2.626-13.63,3.5,2.129,9.189,15.335,9.189,15.335.435-3.834-.439-15.335-1.313-14.908,2.626,2.979,8.309,18.311,8.309,18.311v-14.904c1.752,0,6.564,16.182,6.564,16.182,2.626-5.962-.439-18.311-.439-18.311,2.187,4.257,6.999,17.887,6.999,17.887l.878-5.962,1.313,11.071,1.313-9.369,3.938,10.223c-.439-5.962-5.251-22.148-5.251-22.148,3.5,3.407,12.685,23.422,12.685,23.422v-7.237l2.626,11.498c3.938-11.501-4.374-24.277-4.374-24.277,6.122,8.518,8.312,19.592,8.312,19.592l2.626-5.962c2.626,4.257,2.626,15.331,2.626,15.331,3.496-11.925-3.503-22.572-3.503-22.572,7.438,5.535,11.815,28.107,11.815,28.107l1.313-17.46c2.183,4.257,6.336,17.524,6.336,17.524,1.002-7.388-2.197-19.831-6.391-25.275-4.194-5.448-7.59-11.084-33.959-16.529-26.366-5.444-90.087-.777-90.087-.777l10.191-2.139c6.588-5.058,21.771-.777,21.771-.777l3.793.192s-.598-4.278-.798-5.831c-.2-1.557,7.192,5.054,7.192,5.054l2.594.195v-7.388l10.789,7.97,3.994.585-6.992-9.14c3.997,3.696,15.981,8.36,15.981,8.36-.798-3.302-9.787-10.304-9.787-10.304,2.995,0,15.38,10.889,15.38,10.889l-7.393-8.36,17.778,8.165c-1.195-2.139-7.189-8.165-7.189-8.165,6.992,6.221,21.374,9.914,21.374,9.914l-16.979-13.219,21.174,16.138c-3.396-10.112-13.784-19.057-13.784-19.057,5.196.78,24.97,19.834,24.97,19.834,0-7.583-7.393-16.529-7.393-16.529,5.196,1.749,18.379,19.253,18.379,19.253.598-4.668-6.992-16.915-6.992-16.915,3.997,1.94,14.782,17.107,14.782,17.107,2.397-8.75-7.79-16.525-7.79-16.525l20.451,10.933c-10.664-15.57-32.187-20.759-34.754-21.718-2.567-.962-21.522-.962-37.911-.387-16.389.578-37.32,9.803-38.305,9.994-.988.195-17.774,5.192-17.774,5.192l-4.539-1.732,5.724,1.345,7.901-2.112-7.901-4.809,10.271,3.847,5.331-1.924-7.704-4.419,8.295,3.652,12.243-4.422-14.019-5.189,22.113.192-16.783-5.767,27.25,4.422c-2.37-2.882-10.07-5.381-10.07-5.381,5.527,0,18.164,2.882,18.164,2.882-2.37-2.69-13.231-7.499-13.231-7.499,5.925,1.157,21.723,5.767,21.723,5.767l-11.649-7.879c1.579.575,11.252,4.227,11.252,4.227-1.973-3.457-8.291-6.342-8.291-6.342,2.567,0,21.522,9.036,21.522,9.036-4.146-6.537-13.231-15.762-13.231-15.762l11.652,7.112-6.716-7.499,17.377,7.883c-5.925-8.071-19.153-12.685-23.101-13.263-3.949-.575-31.79,2.499-53.709,17.685-21.916,15.183-24.483,29.213-24.483,29.213,0,0-22.462-47.383-61.797-50.241,0,0,6.166,5.717,18.199,8.286,0,0-13.207,2.858-16.437,7.429,0,0,14.675-1.143,24.068,1.429,0,0-15.556,3.141-17.905,7.143,0,0,16.731-1.715,25.537-.286,0,0-14.969,2.001-15.556,5.428,0,0,23.187,0,24.068,4.288,0,0-15.85-.572-19.957,2.001,0,0,20.838,2.858,24.949,5.714l-12.917,2.001s16.731,3.43,18.786,8c0,0-36.985-15.715-67.217-18.859-30.231-3.144-39.331,4.573-44.617,8.858-5.282,4.284-17.318,15.429-15.263,24.573,0,0,6.46-12.288,22.016-22l-14.091,16.569,15.85-12.57s-9.683,12.856-9.683,17.144c0,0,14.969-23.715,21.426-28.003,0,0-10.861,13.431-10.568,18.573,0,0,20.842-19.999,22.894-19.713,0,0-15.85,14-15.556,23.143,0,0,18.199-18.859,23.775-20.574,0,0-13.794,7.714-11.152,14.285l14.969-13.428-9.099,14.285,4.405-1.426s6.457-12.002,15.556-11.716l-12.036,11.145,6.163-.572s7.047-8.575,15.56-11.43c0,0-12.33,9.715-12.917,11.43l3.817.286s7.338-7.432,12.913-8.858l-5.286,8.286h2.643l7.047-6.571-4.992,6.285,6.46.572,4.695-4.002-3.817,4.573h4.698l2.936-2.287-.297,2.858,7.635.286,2.052-4.002-.294,3.43,14.092,2.283Z"/>
        <path class="cls-37" d="M1757.247,982.164l-5.283,5.999-.587.158v.7s-20.546,7.428-35.809,20.286c-15.262,12.857-24.653,27.144-26.415,34.002-1.761,6.857-2.055,26.001-2.055,26.001,0,0,2.934-16.001,4.695-18.287,0,0,0,10.001,1.467,12.287,0,0,1.175-17.429,1.762-20s.586,14.286,3.815,15.715c0,0-.881-18.002,1.467-23.717,0,0-.879,9.715.882,12.287,0,0,2.641-22.573,8.805-28.573,0,0-7.339,11.715-2.641,28.288l1.415-6.317-2.002.316,2.127-.868,1.982-8.846,2.941,6.83,1.188-.485.74-5.945-7.51-.687,8.996-1.307.098-2.963-4.398-.587,4.445-.865.122-3.705h-3.392l3.418-.801.103-3.201.382,3.085,4.82-1.131.667-3.096.661,2.785.391-.092.81-4.859-.98-.12,1.021-.135.74-4.437.576,4.263,2.279-.304,1.255-6.243,1.467,5.714s3.817-12.287,6.752-13.715l.232,7.478c.457-.085.876-.159,1.369-.254l6.323-10.653-.116,3.477c.589-.157,1.296-.35,2.486-.672l2.619-5.947,1.76,4.571,2.937-3.429,1.389,2.407c11.122-3.115,25.153-7.252,24.439-8.121-1.174-1.428-7.338-1.428-7.338-1.428l.88-4.573-2.347,4.573h-2.641l.293-3.143-1.761,3.143-5.577-.287,1.468-3.429-3.228,3.143h-7.632l3.229-4.285ZM1746.251,1000.235l-.158,4.787,2.036-4.627c-.624-.07-1.25-.123-1.877-.16h0ZM1726.792,1014.745l.544,4.031.693-.162.73-3.628-1.967-.24ZM1718.119,1021.881l.43,3.475,3.222-.627.612-2.848h-4.265ZM1718.784,1027.233l.309,2.498,1.654-.24.416-1.94-2.379-.318ZM1716.106,1032.028l.931,3.853.123-3.757-1.054-.095ZM1719.416,1032.33l.262,2.121.443-2.057-.706-.064ZM1714.739,1040.049l-.208.033.158.37.05-.403Z"/>
        <path class="cls-27" d="M1802.756,935.572l-2.574,34.504c2.835,4.646,4.317,7.753,4.317,7.753,0,0,.484-2.624,2.788-6.81l-1.128-34.085c-1.103-.525-2.239-.98-3.402-1.361ZM1807.589,980.14l-1.29.27,1.313.354-.022-.623Z"/>
        <path class="cls-21" d="M1691.129,1292.715s12.225-6.801,19.21-.285l-2.329,4.818-11.934.849-4.948-5.382Z"/>
        <path class="cls-50" d="M1699.878,1277.924l-.243,18.447,2.422.022.243-18.453-2.422-.017Z"/>
        <path class="cls-7" d="M1691.492,1298.762s2.46.994,1.968,4.564c-.492,3.572-1.476,16.467,7.876,16.467s8.122-12.498,8.122-14.481.738-5.753.738-5.753v-7.144s-9.352,6.745-18.705-.196v6.544Z"/>
        <path class="cls-58" d="M1699.562,1301.632s-.744,4.454-.744,8.92c0,2.233.171,4.468.771,6.235.301.883.703,1.66,1.339,2.269.143.137.308.259.482.374.798-.006,1.505-.103,2.134-.282l-.038-.78c-.42.015-.654-.074-.986-.392-.334-.319-.667-.893-.92-1.637-.507-1.488-.706-3.631-.706-5.788,0-4.314.733-8.69.733-8.69l-2.065-.23Z"/>
        <path class="cls-23" d="M1710.089,1297.878c-8.466,2.694-14.607,1.811-18.604.317v.576s1.168.472,1.734,1.933c7.84,3.705,13.972.7,16.953-1.445l-.083-1.382Z"/>
        <path class="cls-59" d="M1670.859,1455.468l-2.211-.414-3.151,15.95,10.519,1.971.38-1.91-8.315-1.557,2.778-14.04ZM1679.564,1462.873l1.669.262.953-5.69-1.669-.266-.953,5.693ZM1695.708,1459.342l-1.427,10.169c-.122.868-.345,1.563-.67,2.085-.336.549-.745.96-1.226,1.231-.958.511-1.983.687-3.075.528-.488-.065-.969-.207-1.441-.427-.468-.211-.888-.508-1.261-.891-.352-.381-.611-.88-.777-1.497-.182-.605-.212-1.342-.09-2.209l1.42-10.122-2.225-.299-1.506,10.738c-.235,1.554.083,2.957.953,4.21.866,1.289,2.395,2.094,4.588,2.415,2.275.274,4.04-.109,5.293-1.147,1.241-1.009,1.981-2.356,2.218-4.042l1.465-10.445-2.239-.296ZM1710.591,1474.135l-.045-.003-6.899-13.885-2.653-.269-1.727,16.152,2.166.222,1.396-13.055.045.003,7.047,13.909,2.515.256,1.731-16.152-2.176-.222-1.399,13.045ZM1720.015,1461.787l-2.252-.192-1.437,16.179,2.249.192,1.441-16.179ZM1736.058,1471.108c-.157,1.924-.784,3.459-1.883,4.607-1.11,1.166-2.575,1.693-4.394,1.581-1.826-.141-3.197-.864-4.111-2.169-.944-1.291-1.345-2.899-1.202-4.822.143-1.955.775-3.499,1.897-4.631,1.094-1.15,2.554-1.669,4.381-1.557,1.819.139,3.193.854,4.121,2.146.921,1.276,1.318,2.89,1.192,4.843v.003ZM1738.369,1471.266c.065-.904.013-1.859-.156-2.865-.207-1.011-.588-1.961-1.143-2.848-.555-.919-1.33-1.686-2.325-2.3-1.034-.596-2.32-.955-3.859-1.076-.76-.054-1.47-.037-2.132.05-.659.094-1.257.256-1.796.484-1.082.471-1.973,1.121-2.67,1.95-.672.805-1.178,1.694-1.517,2.667-.35.973-.558,1.911-.625,2.815-.065.874.007,1.809.214,2.805.193.995.564,1.952,1.112,2.869.569.91,1.354,1.674,2.356,2.29.993.63,2.263,1.007,3.81,1.13.783.054,1.506.019,2.169-.104.659-.09,1.262-.251,1.81-.484,1.073-.471,1.951-1.119,2.632-1.944.684-.832,1.201-1.726,1.551-2.684.313-.962.502-1.88.567-2.754h0ZM1751.652,1476.95h-.045l-7.624-13.522-2.66-.134-.877,16.216,2.176.111.708-13.108.045.003,7.769,13.539,2.529.131.874-16.219-2.187-.111-.708,13.095ZM1766.407,1473.281l8.181.256.062-1.944-8.177-.256.166-4.97,9.293.293.062-1.944-11.549-.363-.539,16.233,2.256.067.245-7.371ZM1785.608,1476.415l1.555,4.758,2.46.047-5.714-16.35-2.553-.05-6.598,16.118,2.315.044,1.841-4.695,6.695.128ZM1779.645,1474.357l2.819-7.096h.045l2.322,7.197-5.185-.101ZM1794.538,1464.998l-2.259-.017-.131,16.243,2.259.017.131-16.243ZM1796.131,1466.975l5.638-.067.193,14.292,2.256-.027-.19-14.292,5.652-.074-.028-1.944-13.549.168.028,1.944ZM1820.317,1464.588l-2.245.067.518,16.236,10.709-.326-.066-1.944-8.464.256-.452-14.289ZM1840.63,1475.366l1.855,4.654,2.463-.101-6.761-15.974-2.55.111-5.545,16.488,2.315-.098,1.534-4.799,6.688-.282ZM1834.546,1473.678l2.356-7.254h.045l2.781,7.035-5.182.219ZM1855.492,1471.936l8.167-.511-.128-1.94-8.167.511-.325-4.96,9.276-.582-.128-1.94-11.532.72,1.071,16.209,2.252-.141-.487-7.365ZM1880.03,1469.414c.147,1.924-.233,3.535-1.14,4.836-.91,1.316-2.273,2.056-4.09,2.22-1.826.132-3.293-.378-4.401-1.53-1.138-1.134-1.788-2.663-1.952-4.587-.166-1.953.217-3.572,1.147-4.859.898-1.3,2.26-2.031,4.083-2.193,1.819-.135,3.289.367,4.408,1.503,1.115,1.121,1.763,2.658,1.945,4.611h0ZM1882.338,1469.229c-.078-.903-.28-1.841-.605-2.811-.364-.969-.891-1.85-1.582-2.643-.693-.825-1.58-1.467-2.66-1.927-1.115-.433-2.441-.594-3.98-.484-.762.061-1.462.184-2.1.37-.636.191-1.202.439-1.7.747-.995.628-1.771,1.403-2.328,2.327-.539.892-.898,1.845-1.078,2.858-.196,1.013-.255,1.972-.176,2.875.074.874.292,1.788.656,2.741.346.955.861,1.844,1.548,2.667.707.816,1.605,1.453,2.695,1.91,1.078.475,2.391.658,3.938.548.783-.065,1.492-.207,2.128-.427.638-.186,1.209-.436,1.713-.75.986-.628,1.75-1.399,2.294-2.314.544-.924.913-1.885,1.109-2.885.159-.995.202-1.929.128-2.801ZM1887.43,1469.871l5.424-.575c.663-.072,1.212-.045,1.644.081.41.119.728.31.953.575.235.251.402.545.501.881.083.341.144.683.183,1.026.039.365.138.984.297,1.856.083.408.169.804.259,1.187.088.381.184.704.29.968l2.753-.293-.042-.363c-.346-.157-.587-.342-.726-.555-.129-.217-.226-.541-.29-.972l-.459-2.906c-.092-.554-.209-1.012-.349-1.375-.161-.352-.347-.613-.556-.784-.207-.209-.426-.36-.656-.454-.244-.085-.5-.158-.767-.219.253-.175.506-.391.76-.649.242-.224.464-.492.667-.804.198-.325.342-.703.432-1.133.074-.43.078-.938.014-1.523-.219-1.675-.908-2.769-2.069-3.282-1.158-.484-2.448-.645-3.869-.481l-7.669.814,1.807,16.145,2.246-.235-.777-6.931ZM1886.608,1462.523l5.583-.592c.617-.081,1.271-.017,1.962.192.329.134.615.37.857.706.246.354.404.846.473,1.476.065.583.023,1.065-.124,1.446-.145.399-.369.712-.67.938-.299.231-.646.397-1.04.498-.389.13-.798.217-1.226.262l-5.203.552-.612-5.478ZM1914.49,1462.106c-.357-1.386-1.172-2.514-2.446-3.386-1.269-.888-2.973-1.197-5.113-.928-2.416.365-4.184,1.396-5.303,3.091-1.138,1.713-1.529,3.831-1.175,6.356.477,3.051,1.573,5.138,3.289,6.262,1.649,1.125,3.45,1.545,5.403,1.258.336-.045.842-.167,1.517-.367.672-.206,1.37-.556,2.094-1.049.728-.511,1.349-1.252,1.865-2.223.516-.957.789-2.194.819-3.709l-2.169.303c-.046.937-.206,1.722-.48,2.354-.281.634-.635,1.141-1.061,1.52-.421.363-.851.642-1.289.837-.447.188-.861.309-1.244.363-2.008.265-3.523-.187-4.543-1.355-1.004-1.125-1.641-2.656-1.91-4.59-.295-2.116.007-3.787.905-5.011.841-1.197,2.029-1.903,3.565-2.119.426-.058.875-.09,1.347-.094.47.022.948.123,1.434.303.477.179.924.466,1.34.861.417.39.749.933.995,1.628l2.159-.303ZM1930.948,1468.697l-9.877,1.833-1.047-5.337,8.972-1.671-.373-1.907-8.975,1.668-.957-4.883,9.718-1.809-.373-1.91-11.939,2.22,3.13,15.954,12.098-2.25-.377-1.907Z"/>
      </g>
    </g>
  </g>
</svg>