<?xml version="1.0" encoding="UTF-8"?>
<svg xmlns="http://www.w3.org/2000/svg" viewBox="0 0 3600.1 2401.738">
  <defs>
    <style>
      .cls-1, .cls-2, .cls-3, .cls-4, .cls-5, .cls-6, .cls-7, .cls-8, .cls-9, .cls-10 {
        stroke: #000;
      }

      .cls-1, .cls-2, .cls-3, .cls-4, .cls-5, .cls-6, .cls-8, .cls-9 {
        fill: none;
      }

      .cls-1, .cls-2, .cls-3, .cls-5, .cls-10 {
        stroke-linecap: round;
        stroke-linejoin: round;
      }

      .cls-1, .cls-6, .cls-10 {
        stroke-width: 2.566px;
      }

      .cls-2, .cls-7 {
        stroke-width: 2.501px;
      }

      .cls-3 {
        stroke-width: 2.655px;
      }

      .cls-4 {
        stroke-width: 1.25px;
      }

      .cls-11 {
        fill: #c09b5a;
      }

      .cls-11, .cls-12, .cls-13, .cls-14, .cls-15, .cls-16, .cls-17, .cls-18, .cls-19, .cls-20, .cls-21, .cls-22, .cls-23, .cls-24, .cls-25, .cls-26, .cls-27 {
        stroke-width: 0px;
      }

      .cls-5 {
        stroke-width: 3.971px;
      }

      .cls-12 {
        fill: #768692;
      }

      .cls-14 {
        fill: #da291c;
      }

      .cls-15, .cls-10 {
        fill: #c88242;
      }

      .cls-7, .cls-22, .cls-27 {
        fill: #fc0;
      }

      .cls-16 {
        fill: #fff;
      }

      .cls-17 {
        fill: #be0027;
      }

      .cls-8 {
        stroke-width: 1.328px;
      }

      .cls-18 {
        fill: #00a;
      }

      .cls-19 {
        fill: #eee;
      }

      .cls-20 {
        fill: #4c86c7;
      }

      .cls-21 {
        fill: #c0a151;
      }

      .cls-22 {
        fill-rule: evenodd;
      }

      .cls-9 {
        stroke-width: 2.657px;
      }

      .cls-23 {
        fill: #0868a9;
      }

      .cls-24 {
        fill: #0077c8;
      }

      .cls-25 {
        fill: #ecd21c;
      }

      .cls-26 {
        fill: #04a;
      }
    </style>
  </defs>
  <g id="background">
    <path id="ic" class="cls-22" d="M400,.1h2800c220,0,400,180,400,400v1600c0,220-180,400-400,400H400C180,2400.1,0,2220.1,0,2000.1V400.1C0,180.1,180,.1,400,.1Z"/>
  </g>
  <g id="country">
    <g id="ic-2" data-name="ic">
      <path class="cls-23" d="M400,.1C180,.1,0,180.1,0,400.1v1600C0,2220.1,180,2400.1,400,2400.1h2000V.1H400Z"/>
      <path class="cls-19" d="M400,.1C180,.1,0,180.1,0,400.1v1600C0,2220.1,180,2400.1,400,2400.1h800V.1H400Z"/>
      <g>
        <g>
          <path class="cls-16" d="M1872.907,995.77c.382-.404.65-.872.978-1.303l.312,1.009c-.436.12-.9.12-1.29.293h0ZM1755.929,962.875c-.232.467-.542.872-.809,1.294-.058-.015-.087-.03-.131-.03.329-.413.57-.89.943-1.266l-.003.002ZM1726.345,995.376l.338-1.064c.102,0,.178-.009.276-.015.347.505.676,1.009,1.138,1.478-.553-.23-1.166-.257-1.753-.395v-.003ZM1513.389,1448.062q-.029.135-.004,0h.004ZM1653.377,1004.276v-.009c.029.105.029.248.058.385,0-.135-.058-.248-.058-.376ZM1947.634,1004.267l.009.009c0,.135-.058.248-.073.376.029-.135.029-.275.058-.385h.006ZM2234.164,1421.158c10.651-11.69,16.007-27.049,16.007-42.409-2.536-18.67-8.878-48.325-30.768-49.081-5.419-.186-14.814,6.717-14.814,6.717-8.777,6.424-7.705,21.701.029,30.207,5.997,6.579,5.997,17.727,0,24.306-2.705,2.991-6.282,4.643-10.072,4.643-1.201,0-4.129-1.313-5.018-5.157-5.143-23.058-17.832-42.74-35.777-55.816-34.524-25.848-55.112-68.671-55.112-114.604l.453-71.516c0-35.014-21.729-65.57-52.834-74.387-.49-.135-14.588-4.924-22.093-4.505-5.826.325-11.317,3.033-16.657,5.386-.153.06-.334.286-.436.248-5.508-2.001-13.195-4.964-13.195-4.964l-7.777-2.083c-1.78-.376-4.653-.991-4.653-.991-6.042-.973-11.798,1.487-15.731,6.762-3.505,5.533-5.143,12.846-5.143,22.204,0,4.01.819,9.102,1.424,13.874-2.732-.789-5.312-2.165-8.186-2.165-14.138,0-26.089,9.772-30.564,23.325h-16.826c9.681-19.608,18.658-37.354,20.545-40.189.49.248,10.33-.385,10.33-.385,4.173-.266,7.874-2.808,9.734-6.662.828-1.697,1.236-3.533,1.236-5.368,0-1.183-.668-2.239-.978-3.367,5.419-4.368,9.449-10.359,9.449-18.058,0,0-.694-1.762-.898-2.358,5.063-4.524,8.746-10.46,8.746-17.443,0-2.78-.462-5.606-1.468-8.341-.668-1.89-2.145-3.193-3.239-4.799.943-2.698,1.602-5.515,1.602-8.332,0-5.79-1.993-11.58-5.953-16.113-2.287-2.616-5.089-4.487-8.124-5.771-1.477-7.001-5.081-13.479-11.683-16.755-3.515-1.762-7.287-2.193-11.006-1.927-3.862-5.579-9.227-9.818-16.301-10.277-3.088-.184-5.873,1.046-8.702,2.12-1.575-1.927-2.856-3.478-2.856-3.478l-17.431-1.248c-2.42.854-4.111,2.808-6.05,4.404-3.088-1.734-5.873-3.294-5.873-3.294,0,0-1.486.487-1.851.615-4.004-6.891-9.948-12.277-18.205-12.277-2.936,0-5.436,1.569-8.061,2.688-3.755-2.872-8.043-5.083-13.008-5.083-.64,0-1.058.615-1.673.679v-10.974c0-5.267-3.666-8.919-8.239-10.58-1.477-4.909-5.152-8.873-10.41-8.873h-11.105c-5.249,0-8.942,3.964-10.428,8.873-4.556,1.661-8.23,5.313-8.23,10.58v10.928c-.605-.045-1.041-.633-1.655-.633-4.974,0-9.289,2.221-13.008,5.092-2.652-1.129-5.125-2.698-8.106-2.698-8.239,0-14.174,5.386-18.169,12.286-.383-.135-1.895-.624-1.895-.624,0,0-3.105,1.753-5.837,3.285-1.94-1.597-3.612-3.542-6.041-4.395l-17.351,1.201s-1.815,2.184-2.91,3.487c-2.794-1.064-5.579-2.266-8.693-2.083-7.074.45-12.43,4.716-16.327,10.304-3.755-.284-7.527.135-11.078,1.927-6.567,3.267-10.161,9.726-11.62,16.719-3.034,1.286-5.819,3.165-8.115,5.771-3.986,4.542-5.926,10.359-5.926,16.149,0,2.835.614,5.634,1.566,8.313-1.095,1.615-2.571,2.918-3.265,4.799-.978,2.725-1.442,5.551-1.442,8.322,0,6.937,3.666,12.883,8.729,17.434-.223.606-.908,2.376-.908,2.376,0,7.579,3.897,13.562,9.173,17.929-.347,1.165-1.023,2.276-1.023,3.496,0,1.826.401,3.643,1.21,5.34,1.869,3.881,5.57,6.423,9.752,6.698l9.894.633c2.296,2.624,11.434,20.333,21.239,39.932h-17.403c-4.493-13.516-16.425-23.251-30.536-23.251-2.901,0-5.472,1.377-8.195,2.138.642-5.331,1.531-11.203,1.531-14.993,0-12.736-2.936-17.553-4.173-19.554-5.054-6.799-10.793-9.258-16.87-8.304,0,0-2.936.642-4.734,1.018l-7.626,2.037s-7.691,2.972-13.213,4.982c-.087.03-.254-.159-.391-.219-5.357-2.339-10.857-5.036-16.692-5.377-6.974-.409-20.562,4.056-20.562,4.056-32.655,9.203-54.374,39.759-54.374,74.754,0,.075.267,39.574.267,39.574v9.855c.058.105.204,22.242.204,22.242,0,45.841-20.608,88.628-55.112,114.374-17.919,13.14-30.617,32.83-35.734,55.53-.952,4.248-3.87,5.533-5.089,5.533-3.791,0-7.368-1.642-10.081-4.634-2.999-3.267-4.484-7.717-4.484-12.121,0-4.45,1.513-8.882,4.502-12.194,3.844-4.267,5.766-9.699,5.766-15.131,0-5.469-1.9-10.929-5.81-15.131-.029-.03-9.369-6.623-14.762-6.616-5.405.007-14.779,6.671-14.779,6.671-23.008,21.693-21.293,61.431.009,84.811,15.046,16.498,37.05,21.305,56.456,14.681.058.946.427,6.267.427,6.267,0,9.295-5.205,17.654-12.964,20.782-4.28,1.716-7.225,5.432-7.447,10.167l-.382,7.854c0,15.717,4.467,30.794,12.946,43.612,5.01,8.01,8.222,16.167,9.823,24.847,3.719,17.113,17.173,24.738,28.134,24.738h32.85c6.469,0,11.7-5.386,11.7-12.038,0-20.82-14.067-37.391-32.299-41.309-3.453-4.661-5.979-10.102-5.979-16.287,0-10.726,5.686-20.241,14.521-24.214,15.766-7.295,26.738-21.931,30.794-39.144,7.456,1.707,8.64,2.459,8.64,7.038-1.404,8.206-2.896,7.22-4.071,11.154-1.134,3.798,2.158,7.959,6.357,10.115,7.029,3.615,18.604,21.379,23.89,34.252,5.072,11.616,15.233,18.682,26.622,18.682h28.143c6.469,0,11.692-5.386,11.692-12.048,0-20.232-13.311-37.932-31.649-42.089-5.757-1.367-9.868-7.258-9.868-14.039,0-3.808,1.29-7.432,3.693-10.194,5.695-6.331,8.809-14.589,2.781-34.248-6.028-19.659-17.141-29.596-29.367-37.387,10.463-10.873,21.889-20.545,34.905-27.224,21.844-10.414,38.314-30.491,46.046-55.137,3.684-3.734,12.51-12.727,12.946-13.158v142.745c0,102.134,157.821,103.31,164.542,103.31s164.498-1.174,164.498-103.31v-143.112c.029.015.169.192.169.192,0,0,9.334,9.478,13.089,13.323,7.768,24.619,24.228,44.703,46.081,55.164,13,6.616,24.389,16.269,34.862,27.132-12.181,7.763-26.045,16.323-32.095,36.083-6.05,19.76-.131,29.339,5.509,35.58,2.411,2.771,3.71,6.386,3.71,10.222,0,6.772-4.137,12.662-9.85,13.993-18.365,4.138-31.685,21.838-31.685,42.089,0,6.652,5.241,12.057,11.71,12.057h28.151c11.416,0,21.568-7.056,26.524-18.416,5.374-13.103,16.915-30.858,23.988-34.518,4.208-2.193,7.011-5.12,7.011-9.047,0-1.109-.222-2.312-.702-3.588l-3.105-8.176s-.33-.716-.668-1.422c.117-3.349,1.744-4.542,8.391-6.056,4.031,17.231,14.992,31.839,30.617,38.941,8.862,4.111,14.716,13.846,14.716,24.407,0,6.12-2.554,11.543-5.997,16.25-18.249,3.927-32.308,20.516-32.308,41.336,0,6.652,5.232,12.038,11.683,12.038h32.904c10.926,0,24.361-7.607,28.028-24.297,1.655-9.148,4.858-17.296,9.601-24.655,8.746-13.387,13.231-28.463,13.231-44.209l-.373-7.864c-.232-4.762-3.167-8.506-7.483-10.231-7.723-3.074-12.902-11.415-12.902-20.746,0,0,.258-4.496.364-6.258,19.424,6.643,41.419,1.835,56.465-14.681l.006.009ZM1545.734,926.424c5.454,12.451,15.286,21.416,26.533,28.114-3.292,3.67-7.616,6.662-14.636,9.589-4.449,1.835-7.332,6.267-7.332,11.167,0,.165.009.322.009.485.195,5.092,3.488,9.515,8.204,11.029,19.005,6.111,103.355,9.726,157.865-47.529,2.402-2.523,3.871-6.414,3.871-10.13,0-1.991-.436-3.918-1.362-5.579,0,0-.401-.716-.453-.798,26.577-3.487,53.323-5.854,79.981-5.854,28.054,0,55.121,2.367,81.832,5.882-.102.201-.436.771-.436.771-.926,1.661-1.344,3.606-1.344,5.606,0,3.689,1.442,7.579,3.826,10.093,54.481,57.238,138.858,53.65,157.88,47.539,4.724-1.514,8.008-5.927,8.185-11.011,0-.184.029-.34.029-.505,0-4.9-2.883-9.332-7.323-11.167-7.064-2.945-11.371-5.937-14.682-9.589,11.264-6.698,21.124-15.708,26.586-28.243,0-.015,3.007-8.203,3.007-8.203.481-1.33.729-2.698.729-4.028,0-3.175-1.353-6.203-3.755-8.57-3.39-3.331-8.533-3.854-12.83-1.927-4.529,2.028-9.814,3.129-15.731,3.257-12.973.322-48.537-6.524-57.996-24.223-.659-21.72-15.588-40.392-36.276-44.64-42.976-8.102-86.477-12.149-129.845-12.149-45.235,0-88.755,4.046-131.187,12.011-21.204,4.368-36.161,23.049-36.801,44.777-9.432,17.7-45.031,24.545-58.004,24.223-5.899-.135-11.176-1.23-15.74-3.257-4.306-1.918-9.449-1.395-12.848,1.954-2.385,2.339-3.719,5.377-3.719,8.552,0,1.321.249,2.688.72,4.019l3.043,8.332v.003Z"/>
          <path class="cls-27" d="M1697.243,1062.518c-8.613-4.992-19.647-21.453-19.647-30.023,0-15.076,17.155-27.253,38.314-27.253l8.551-3.771,3.906-13.204s-47.638-6.267-60.7,17.387c-13.044,23.626-6.317,39.051-.863,51.476,5.463,12.451,17.849,18.727,17.849,18.727l12.59-13.341v.002Z"/>
          <path class="cls-9" d="M1697.243,1062.518c-8.613-4.992-19.647-21.453-19.647-30.023,0-15.076,17.155-27.253,38.314-27.253l8.551-3.771,3.906-13.204s-47.638-6.267-60.7,17.387c-13.044,23.626-6.317,39.051-.863,51.476,5.463,12.451,17.849,18.727,17.849,18.727l12.59-13.341v.002Z"/>
          <path class="cls-27" d="M1746.953,1023.432c-2.794-3.065-4.413-6.79-4.413-10.781,0-10.809,12.047-19.617,26.915-19.617,5.445,0,16.087,1.183,20.295,3.202l1.316-22.582s-40.192-4.781-55.665,13.589c-15.473,18.378-11.558,36.437-10.25,40.602,1.29,4.193,3.941,10.442,3.941,10.442l22.156-6.964-4.298-7.891h.002Z"/>
          <path class="cls-9" d="M1746.953,1023.432c-2.794-3.065-4.413-6.79-4.413-10.781,0-10.809,12.047-19.617,26.915-19.617,5.445,0,16.087,1.183,20.295,3.202l1.316-22.582s-40.192-4.781-55.665,13.589c-15.473,18.378-11.558,36.437-10.25,40.602,1.29,4.193,3.941,10.442,3.941,10.442l22.156-6.964-4.298-7.891h.002Z"/>
          <path class="cls-27" d="M1903.084,1062.518c8.622-4.992,19.682-21.453,19.682-30.023,0-15.076-17.164-27.253-38.34-27.253l-8.542-3.771-3.915-13.204s47.629-6.267,60.691,17.387c13,23.626,6.317,39.051.889,51.476-5.472,12.451-17.875,18.727-17.875,18.727l-12.59-13.341v.002Z"/>
          <path class="cls-9" d="M1903.084,1062.518c8.622-4.992,19.682-21.453,19.682-30.023,0-15.076-17.164-27.253-38.34-27.253l-8.542-3.771-3.915-13.204s47.629-6.267,60.691,17.387c13,23.626,6.317,39.051.889,51.476-5.472,12.451-17.875,18.727-17.875,18.727l-12.59-13.341v.002Z"/>
          <path class="cls-27" d="M1853.373,1023.432c2.776-3.065,4.431-6.79,4.431-10.781,0-10.809-12.083-19.617-26.915-19.617-5.463,0-16.069,1.183-20.295,3.202l-1.29-22.582s40.155-4.781,55.637,13.589c15.447,18.378,11.549,36.437,10.223,40.602-1.264,4.193-3.906,10.442-3.906,10.442l-22.164-6.964,4.28-7.891Z"/>
          <path class="cls-9" d="M1853.373,1023.432c2.776-3.065,4.431-6.79,4.431-10.781,0-10.809-12.083-19.617-26.915-19.617-5.463,0-16.069,1.183-20.295,3.202l-1.29-22.582s40.155-4.781,55.637,13.589c15.447,18.378,11.549,36.437,10.223,40.602-1.264,4.193-3.906,10.442-3.906,10.442l-22.164-6.964,4.28-7.891Z"/>
          <path class="cls-14" d="M1693.015,1062.669c24.985-26.692,63.841-43.878,107.466-43.878s82.455,17.186,107.44,43.878l-30.029,84.728h-156.451l-28.429-84.728h.003Z"/>
          <path class="cls-2" d="M1693.015,1062.669c24.985-26.692,63.841-43.878,107.466-43.878s82.455,17.186,107.44,43.878l-30.029,84.728h-156.451l-28.429-84.728h.003Z"/>
          <path class="cls-25" d="M1820.281,1049.89l-20.011-13.589-19.753,13.589,7.688-69.827h24.318l7.759,69.827h0Z"/>
          <path class="cls-7" d="M1820.281,1049.89l-20.011-13.589-19.753,13.589,7.688-69.827h24.318l7.759,69.827h0Z"/>
          <path class="cls-16" d="M1801.913,990.809c-3.826-.854-7.581,1.762-8.373,5.854-.792,4.065,1.628,8.047,5.49,8.91,3.835.854,7.581-1.771,8.373-5.855.783-4.102-1.673-8.093-5.49-8.91Z"/>
          <path class="cls-4" d="M1801.913,990.809c-3.826-.854-7.581,1.762-8.373,5.854-.792,4.065,1.628,8.047,5.49,8.91,3.835.854,7.581-1.771,8.373-5.855.783-4.102-1.673-8.093-5.49-8.91Z"/>
          <path class="cls-16" d="M1802.35,1004.64c-4.84-1.111-9.574,2.23-10.57,7.441-1.023,5.157,2.127,10.176,6.958,11.259,4.885,1.064,9.627-2.239,10.633-7.423.978-5.166-2.127-10.24-7.021-11.277Z"/>
          <path class="cls-4" d="M1802.35,1004.64c-4.84-1.111-9.574,2.23-10.57,7.441-1.023,5.157,2.127,10.176,6.958,11.259,4.885,1.064,9.627-2.239,10.633-7.423.978-5.166-2.127-10.24-7.021-11.277Z"/>
          <path class="cls-16" d="M1802.787,1022.529c-6.131-1.368-12.128,2.835-13.4,9.378-1.264,6.533,2.687,12.873,8.817,14.259,6.148,1.34,12.119-2.89,13.373-9.378,1.29-6.533-2.625-12.91-8.791-14.259h0Z"/>
          <path class="cls-4" d="M1802.787,1022.529c-6.131-1.368-12.128,2.835-13.4,9.378-1.264,6.533,2.687,12.873,8.817,14.259,6.148,1.34,12.119-2.89,13.373-9.378,1.29-6.533-2.625-12.91-8.791-14.259h0Z"/>
          <path class="cls-16" d="M1678,1057.107c0-6.496-4.929-11.809-11.069-11.809-6.104,0-11.087,5.313-11.087,11.809s4.983,11.791,11.087,11.791c6.139,0,11.069-5.276,11.069-11.791Z"/>
          <path class="cls-4" d="M1678,1057.107c0-6.496-4.929-11.809-11.069-11.809-6.104,0-11.087,5.313-11.087,11.809s4.983,11.791,11.087,11.791c6.139,0,11.069-5.276,11.069-11.791Z"/>
          <path class="cls-16" d="M1735.291,1006.745c0-6.533-4.974-11.8-11.069-11.8-6.139,0-11.113,5.267-11.113,11.8s4.974,11.8,11.113,11.8c6.095,0,11.069-5.285,11.069-11.8Z"/>
          <path class="cls-4" d="M1735.291,1006.745c0-6.533-4.974-11.8-11.069-11.8-6.139,0-11.113,5.267-11.113,11.8s4.974,11.8,11.113,11.8c6.095,0,11.069-5.285,11.069-11.8Z"/>
          <path class="cls-16" d="M1738.498,1028.994c0-6.506-5.001-11.809-11.131-11.809s-11.078,5.304-11.078,11.809c0,6.551,4.965,11.791,11.078,11.791s11.131-5.239,11.131-11.791Z"/>
          <path class="cls-4" d="M1738.498,1028.994c0-6.506-5.001-11.809-11.131-11.809s-11.078,5.304-11.078,11.809c0,6.551,4.965,11.791,11.078,11.791s11.131-5.239,11.131-11.791Z"/>
          <path class="cls-16" d="M1669.544,1041.622c2.189-6.074-.668-12.873-6.389-15.214-5.739-2.331-12.136.724-14.307,6.808-2.207,6.111.694,12.864,6.38,15.205,5.739,2.367,12.11-.697,14.316-6.799h0Z"/>
          <path class="cls-4" d="M1669.544,1041.622c2.189-6.074-.668-12.873-6.389-15.214-5.739-2.331-12.136.724-14.307,6.808-2.207,6.111.694,12.864,6.38,15.205,5.739,2.367,12.11-.697,14.316-6.799h0Z"/>
          <path class="cls-16" d="M1670.273,1023.883c4.164-4.781,3.915-12.222-.542-16.69-4.467-4.423-11.469-4.202-15.66.559-4.191,4.79-3.933,12.25.534,16.708,4.476,4.441,11.478,4.23,15.668-.579v.002Z"/>
          <path class="cls-4" d="M1670.273,1023.883c4.164-4.781,3.915-12.222-.542-16.69-4.467-4.423-11.469-4.202-15.66.559-4.191,4.79-3.933,12.25.534,16.708,4.476,4.441,11.478,4.23,15.668-.579v.002Z"/>
          <path class="cls-16" d="M1679.603,1009.45c5.57-2.734,7.937-9.754,5.365-15.654-2.598-5.909-9.191-8.487-14.734-5.707-5.525,2.762-7.937,9.754-5.357,15.681,2.598,5.927,9.209,8.469,14.725,5.68h0Z"/>
          <path class="cls-4" d="M1679.603,1009.45c5.57-2.734,7.937-9.754,5.365-15.654-2.598-5.909-9.191-8.487-14.734-5.707-5.525,2.762-7.937,9.754-5.357,15.681,2.598,5.927,9.209,8.469,14.725,5.68h0Z"/>
          <path class="cls-16" d="M1694.473,1000.581c6.121-.367,10.811-5.955,10.41-12.461-.329-6.506-5.561-11.497-11.656-11.13-6.122.385-10.793,5.973-10.437,12.497.347,6.506,5.588,11.479,11.683,11.093h0Z"/>
          <path class="cls-4" d="M1694.473,1000.581c6.121-.367,10.811-5.955,10.41-12.461-.329-6.506-5.561-11.497-11.656-11.13-6.122.385-10.793,5.973-10.437,12.497.347,6.506,5.588,11.479,11.683,11.093h0Z"/>
          <path class="cls-16" d="M1710.8,996.221c5.783,2.074,12.074-1.276,14.023-7.469,1.931-6.166-1.219-12.873-7.02-14.929-5.801-2.046-12.092,1.266-14.041,7.451-1.904,6.221,1.219,12.883,7.038,14.947Z"/>
          <path class="cls-4" d="M1710.8,996.221c5.783,2.074,12.074-1.276,14.023-7.469,1.931-6.166-1.219-12.873-7.02-14.929-5.801-2.046-12.092,1.266-14.041,7.451-1.904,6.221,1.219,12.883,7.038,14.947Z"/>
          <path class="cls-16" d="M1728.585,996.371c4.725,4.129,11.709,3.404,15.597-1.606,3.87-5.047,3.203-12.516-1.521-16.627-4.734-4.147-11.709-3.404-15.599,1.615-3.87,5.047-3.221,12.47,1.522,16.618h.001Z"/>
          <path class="cls-4" d="M1728.585,996.371c4.725,4.129,11.709,3.404,15.597-1.606,3.87-5.047,3.203-12.516-1.521-16.627-4.734-4.147-11.709-3.404-15.599,1.615-3.87,5.047-3.221,12.47,1.522,16.618h.001Z"/>
          <path class="cls-16" d="M1764.593,975.625c0-6.551-4.956-11.8-11.104-11.8-6.095,0-11.06,5.248-11.06,11.8s4.965,11.791,11.06,11.791c6.148,0,11.104-5.267,11.104-11.791Z"/>
          <path class="cls-4" d="M1764.593,975.625c0-6.551-4.956-11.8-11.104-11.8-6.095,0-11.06,5.248-11.06,11.8s4.965,11.791,11.06,11.791c6.148,0,11.104-5.267,11.104-11.791Z"/>
          <path class="cls-16" d="M1785.731,973.37c0-6.524-5.001-11.818-11.104-11.818-6.14,0-11.069,5.294-11.069,11.818s4.929,11.791,11.069,11.791c6.104,0,11.104-5.276,11.104-11.791Z"/>
          <path class="cls-4" d="M1785.731,973.37c0-6.524-5.001-11.818-11.104-11.818-6.14,0-11.069,5.294-11.069,11.818s4.929,11.791,11.069,11.791c6.104,0,11.104-5.276,11.104-11.791Z"/>
          <path class="cls-16" d="M1922.764,1057.107c0-6.496,4.974-11.809,11.095-11.809s11.051,5.313,11.051,11.809-4.929,11.791-11.051,11.791-11.095-5.276-11.095-11.791Z"/>
          <path class="cls-4" d="M1922.764,1057.107c0-6.496,4.974-11.809,11.095-11.809s11.051,5.313,11.051,11.809-4.929,11.791-11.051,11.791-11.095-5.276-11.095-11.791Z"/>
          <path class="cls-16" d="M1865.618,1006.745c0-6.533,4.974-11.8,11.078-11.8,6.139,0,11.087,5.267,11.087,11.8s-4.947,11.8-11.087,11.8c-6.104,0-11.078-5.285-11.078-11.8Z"/>
          <path class="cls-4" d="M1865.618,1006.745c0-6.533,4.974-11.8,11.078-11.8,6.139,0,11.087,5.267,11.087,11.8s-4.947,11.8-11.087,11.8c-6.104,0-11.078-5.285-11.078-11.8Z"/>
          <path class="cls-16" d="M1862.411,1028.994c0-6.506,4.983-11.809,11.123-11.809,6.068,0,11.06,5.304,11.06,11.809,0,6.551-4.992,11.791-11.06,11.791-6.139,0-11.123-5.239-11.123-11.791Z"/>
          <path class="cls-4" d="M1862.411,1028.994c0-6.506,4.983-11.809,11.123-11.809,6.068,0,11.06,5.304,11.06,11.809,0,6.551-4.992,11.791-11.06,11.791-6.139,0-11.123-5.239-11.123-11.791Z"/>
          <path class="cls-16" d="M1931.365,1041.622c-2.171-6.074.659-12.873,6.397-15.214,5.686-2.331,12.119.724,14.316,6.808,2.198,6.111-.676,12.864-6.433,15.205-5.703,2.367-12.11-.697-14.281-6.799h0Z"/>
          <path class="cls-4" d="M1931.365,1041.622c-2.171-6.074.659-12.873,6.397-15.214,5.686-2.331,12.119.724,14.316,6.808,2.198,6.111-.676,12.864-6.433,15.205-5.703,2.367-12.11-.697-14.281-6.799h0Z"/>
          <path class="cls-16" d="M1930.636,1023.883c-4.2-4.781-3.942-12.222.516-16.69,4.476-4.423,11.487-4.202,15.677.559,4.182,4.79,3.933,12.25-.551,16.708-4.449,4.441-11.487,4.23-15.642-.579v.002Z"/>
          <path class="cls-4" d="M1930.636,1023.883c-4.2-4.781-3.942-12.222.516-16.69,4.476-4.423,11.487-4.202,15.677.559,4.182,4.79,3.933,12.25-.551,16.708-4.449,4.441-11.487,4.23-15.642-.579v.002Z"/>
          <path class="cls-16" d="M1921.306,1009.45c-5.552-2.734-7.955-9.754-5.392-15.654,2.607-5.909,9.2-8.487,14.744-5.707,5.552,2.762,7.955,9.754,5.392,15.681-2.625,5.927-9.192,8.469-14.744,5.68h0Z"/>
          <path class="cls-4" d="M1921.306,1009.45c-5.552-2.734-7.955-9.754-5.392-15.654,2.607-5.909,9.2-8.487,14.744-5.707,5.552,2.762,7.955,9.754,5.392,15.681-2.625,5.927-9.192,8.469-14.744,5.68h0Z"/>
          <path class="cls-16" d="M1906.437,1000.581c-6.14-.367-10.82-5.955-10.464-12.461.364-6.506,5.632-11.497,11.718-11.13,6.104.385,10.802,5.973,10.428,12.497-.356,6.506-5.579,11.479-11.683,11.093Z"/>
          <path class="cls-4" d="M1906.437,1000.581c-6.14-.367-10.82-5.955-10.464-12.461.364-6.506,5.632-11.497,11.718-11.13,6.104.385,10.802,5.973,10.428,12.497-.356,6.506-5.579,11.479-11.683,11.093Z"/>
          <path class="cls-16" d="M1890.109,996.221c-5.846,2.074-12.083-1.276-14.023-7.469-1.931-6.166,1.201-12.873,7.02-14.929,5.793-2.046,12.083,1.266,13.961,7.451,1.984,6.221-1.147,12.883-6.958,14.947Z"/>
          <path class="cls-4" d="M1890.109,996.221c-5.846,2.074-12.083-1.276-14.023-7.469-1.931-6.166,1.201-12.873,7.02-14.929,5.793-2.046,12.083,1.266,13.961,7.451,1.984,6.221-1.147,12.883-6.958,14.947Z"/>
          <path class="cls-16" d="M1872.324,996.371c-4.716,4.129-11.683,3.404-15.588-1.606-3.861-5.047-3.176-12.516,1.522-16.627,4.742-4.147,11.683-3.404,15.588,1.615,3.888,5.047,3.23,12.47-1.522,16.618h0Z"/>
          <path class="cls-4" d="M1872.324,996.371c-4.716,4.129-11.683,3.404-15.588-1.606-3.861-5.047-3.176-12.516,1.522-16.627,4.742-4.147,11.683-3.404,15.588,1.615,3.888,5.047,3.23,12.47-1.522,16.618h0Z"/>
          <path class="cls-16" d="M1836.317,975.625c0-6.551,4.956-11.8,11.069-11.8s11.113,5.248,11.113,11.8-4.992,11.791-11.113,11.791-11.069-5.267-11.069-11.791Z"/>
          <path class="cls-4" d="M1836.317,975.625c0-6.551,4.956-11.8,11.069-11.8s11.113,5.248,11.113,11.8-4.992,11.791-11.113,11.791-11.069-5.267-11.069-11.791Z"/>
          <path class="cls-16" d="M1815.179,973.37c0-6.524,4.965-11.818,11.086-11.818s11.095,5.294,11.095,11.818-4.992,11.791-11.095,11.791-11.086-5.276-11.086-11.791Z"/>
          <path class="cls-4" d="M1815.179,973.37c0-6.524,4.965-11.818,11.086-11.818s11.095,5.294,11.095,11.818-4.992,11.791-11.095,11.791-11.086-5.276-11.086-11.791Z"/>
          <path class="cls-13" d="M1930.928,1069.885c-3.15-4.9-7.626-7.808-12.599-8.304-1.94-.12-3.791.135-5.499.697-.187-.075-.312-.257-.462-.331l-2.901-1.707-2.785,1.881c-.659.431-1.05.991-1.557,1.496-.102-.06-.16-.15-.258-.219l-2.936-1.597s-2.376,1.688-2.616,1.89c-2.74-1.44-5.641-2.202-8.48-2.074l-3.746.192s-.146.413-.169.559c-2.002-2.257-4.68-3.881-7.661-4.854-.029-.135-.694-3.34-.694-3.34l-3.132-1c-.117-.015-.24-.015-.347-.03-.029-.825-.087-1.578-.267-2.468l-.783-3.386s-3.007-.845-3.141-.881c-.811-3.202-2.233-6.139-4.262-8.368l-2.616-2.844-3.497,1.532c-2.687,1.174-5.063,3.285-7.003,5.891-.117-.009-3.176-.477-3.176-.477l-1.975,2.789c-.498.679-.889,1.395-1.219,2.11-.102-.015-.16-.045-.258-.075l-3.248-.413s-1.842,2.707-1.913,2.799c-3.105-.304-6.184.075-8.835,1.303,0,0-.774.34-1.539.697-.926-.689-1.966-1.44-1.966-1.44-2.491-1.89-5.641-2.863-8.907-3.202-.029-.03-.029-.105-.087-.192l-1.325-3.221-3.274-.293c-.204-.015-.382-.015-.57-.015-.169-.854-.418-1.716-.819-2.597l-1.405-3.175-3.257-.156h-.131c-1.451-3.221-3.497-5.918-6.068-7.772l-3.123-2.266-3.079,2.266c-2.563,1.853-4.591,4.551-6.05,7.772h-.131l-3.274.156-1.396,3.175c-.41.881-.64,1.742-.828,2.597-.204,0-.373,0-.57.015l-3.247.293-1.344,3.221c-.044.075-.058.156-.073.192-3.275.34-6.433,1.313-8.916,3.202,0,0-1.193.845-2.073,1.514-.917-.404-1.771-.771-1.771-.771-2.669-1.23-5.748-1.606-8.871-1.303-.073-.09-1.842-2.799-1.842-2.799l-3.301.413c-.102.03-.178.06-.267.075-.347-.716-.694-1.431-1.193-2.11l-1.975-2.789s-3.079.467-3.185.477c-1.931-2.606-4.325-4.716-7.038-5.891l-3.453-1.532-2.634,2.844c-2.029,2.23-3.435,5.166-4.28,8.368-.073.03-3.079.881-3.079.881l-.809,3.386c-.204.89-.249,1.642-.276,2.468-.087.009-.232.009-.329.03l-3.168,1s-.685,3.202-.694,3.34c-2.954.973-5.623,2.597-7.625,4.854-.044-.15-.187-.559-.187-.559l-3.772-.192c-2.803-.135-5.721.633-8.471,2.074-.24-.201-2.589-1.89-2.589-1.89l-2.936,1.597c-.102.075-.169.165-.267.219-.49-.505-.934-1.064-1.566-1.496l-2.803-1.881-2.847,1.707c-.16.075-.338.257-.453.331-1.735-.559-3.613-.816-5.525-.697-4.992.496-9.449,3.404-12.617,8.304l-5.606,8.643,9.885.624c.058,0,5.41.423,9.094,4.469,2.696,3,30.27,58.972,30.27,58.972l4.636-2.037c27.449-11.745,54.401-17.47,82.374-17.47s55.121,5.744,82.66,17.626l4.645,1.991s27.334-56.082,30.039-59.081c3.666-4.046,9.013-4.469,9.058-4.469l9.823-.624-5.552-8.643h-.016ZM1867.611,1066.472c-.102.496-.24,1.449-.24,1.449,0,0,3.933.221,5.321.313-1.29.541-4.956,2.065-4.956,2.065,0,0,.356.789.57,1.082-.952-.275-1.896-.579-2.652-.798l-1.673-.532s-2.118-.588-2.162-.588c2.901-1.496,4.413-2.285,5.792-2.991h0ZM1858.429,1058.168s1.61-3.89,2.171-5.175c0,1.449.073,5.671.073,5.671,0,0,.809-.12,1.219-.184-.614,1.12-1.789,3.101-3.542,6.148-.498-3.542-.809-5.864-.969-7.129.312.184,1.041.67,1.041.67h.007ZM1848.855,1063.893s.204-.936.356-1.449c.987,1.248,2.091,2.569,4.191,5.193-.117-.045-2.216-.34-2.216-.34l-1.735-.23c-.757-.105-1.682-.221-2.696-.385.232-.211.88-.743.88-.743,0,0-2.812-2.955-3.746-3.982,1.246.496,4.965,1.936,4.965,1.936h0ZM1810.658,1057.498c.058.762.058,1.881.058,1.881l6.202-1.009c.102-.03.169,0,.267-.03-.102.06-.102.15-.195.201l-5.232,3.661s.596.78.952,1.239c-1.246-.045-2.527-.15-3.577-.23l-1.815-.174-2.491-.165s-.551-.015-.703-.015c3.239-2.698,5.214-4.239,6.54-5.359h-.005ZM1799.02,1051.231l1.325-6.524c.009-.075.073-.156.073-.23.015.075.087.156.117.23l1.308,6.524s.969-.367,1.539-.568c-.391,1.082-1.451,4.349-2.963,8.643-1.433-4.294-2.553-7.561-2.918-8.643.561.201,1.521.568,1.521.568h-.002ZM1783.974,1058.37l6.184,1.009s0-1.12.029-1.881c1.37,1.12,3.301,2.661,6.575,5.359-.284,0-3.176.184-3.176.184l-1.842.174c-1.069.075-2.314.184-3.595.23.364-.458,1.015-1.239,1.015-1.239l-5.25-3.661c-.073-.06-.152-.135-.24-.201.131.03.195,0,.302.03l-.002-.003ZM1751.373,1062.444c.087.514.329,1.449.329,1.449,0,0,3.693-1.44,4.983-1.936-.978,1.028-3.764,3.982-3.764,3.982,0,0,.605.532.88.743-.987.165-1.94.284-2.714.385l-1.753.23c.029,0-1.539.211-1.539.211,0,0-.534.075-.668.135,2.109-2.624,3.23-3.946,4.244-5.193v-.006ZM1739.877,1058.663s.058-4.221.073-5.671c.542,1.284,2.162,5.175,2.162,5.175,0,0,.72-.487,1.067-.67-.169,1.266-.507,3.588-1.006,7.129-1.735-3.046-2.91-5.028-3.515-6.148.383.06,1.219.184,1.219.184h0ZM1733.151,1067.921s-.146-.955-.232-1.449c1.405.707,2.918,1.496,5.81,2.991-.029,0-2.162.588-2.162.588l-1.682.532c-.72.219-1.673.523-2.598.798.146-.293.507-1.082.507-1.082,0,0-3.648-1.523-4.938-2.065,1.379-.09,5.294-.313,5.294-.313h0ZM1700.433,1082.346s-1.504.78-2.936,1.569c-.152-.165-.249-.331-.401-.577.765-2.129,1.201-3.34,1.575-4.505.24.34.711,1.091.711,1.091,0,0,2.198-1.973,3.541-3.221-.757,1.707-1.957,4.505-1.957,4.505,0,0,.668.211.889.293-.561.331-1.077.633-1.424.845h.002ZM1903.024,1083.979c-1.459-.854-2.901-1.633-2.901-1.633-.375-.211-.872-.514-1.451-.845.24-.075.88-.293.88-.293,0,0-1.21-2.799-1.931-4.505,1.318,1.248,3.542,3.221,3.542,3.221,0,0,.49-.751.685-1.091.427,1.165.854,2.376,1.593,4.505-.146.248-.24.413-.418.642h.001Z"/>
          <path class="cls-20" d="M1795.935,992.012c-8.355-2.652-13.106-12.084-10.651-21.003,2.509-8.955,11.353-14.011,19.727-11.341,8.391,2.633,13.186,12.038,10.686,20.994-2.5,8.891-11.354,14.01-19.762,11.35h0Z"/>
          <path class="cls-4" d="M1795.935,992.012c-8.355-2.652-13.106-12.084-10.651-21.003,2.509-8.955,11.353-14.011,19.727-11.341,8.391,2.633,13.186,12.038,10.686,20.994-2.5,8.891-11.354,14.01-19.762,11.35h0Z"/>
          <path class="cls-27" d="M1800.309,1096.945c-32.254,0-63.735,6.616-93.71,19.379l9.263,18.682c27.165-11.644,54.739-17.929,84.447-17.929s57.532,6.34,84.759,18.049l9.298-18.654c-30.092-12.855-61.669-19.525-94.057-19.525v-.003Z"/>
          <path class="cls-25" d="M1926.409,1073.192c-4.689-7.24-11.754-6.625-14.263-3.918-.676-.917-1.495-1.67-2.447-2.248-2.055,1.377-3.016,3.936-3.639,6.79-.757-2.276-1.869-4.193-3.728-5.248-.889.679-1.691,1.496-2.26,2.468-2.714-2.468-5.961-3.725-8.916-3.569-.961,3-.711,6.662.819,10.121-1.086.322-2.011.872-2.829,1.66.729,3.845,4.742,6.185,8.435,8.259-2.011,3.046-5.392,8.313-7.074,11.047-3.256-1.156-5.641-4.34-5.641-8.221,0-1.102.187-2.175.561-3.184.187-.55.312-1.064.312-1.597,0-1.798-1.032-3.459-2.66-4.184-2.136-.881-4.582.174-5.445,2.459-1.486,3.835-4.965,6.322-8.844,6.322-5.267,0-9.547-4.496-9.574-10.102l.863-5.019c.765.184,1.584.385,2.411.66,4.671,1.404,10.393,3.716,14.156.963-.131-1.183-.498-2.294-.969-3.358,3.381-1.44,5.97-3.964,7.279-6.891-2.091-2.395-5.339-3.89-8.987-4.092.204-1.138.187-2.376-.073-3.505-2.011-.633-4.155-.06-6.238.991,1.451-2.551,2.42-5.175,1.824-7.726-1.104-.331-2.224-.394-3.301-.211-.073-3.909-1.325-7.405-3.461-9.735-2.839,1.257-5.285,3.973-6.771,7.469-.961-.579-1.993-.991-3.105-1.147-1.539,2.101-1.61,4.927-1.193,7.882-1.504-1.835-3.265-3.285-5.383-3.542-.659.946-1.086,2.065-1.353,3.211-3.435-1.348-6.976-1.313-9.761-.009.102,3.248,1.575,6.652,4.2,9.396-.872.762-1.619,1.642-2.144,2.688,2.402,4.083,8.506,4.368,13.338,5.037.49.009.926.105,1.379.184l-.694,3.973c-.249.358-.427.761-.596,1.192-1.379,4.028-5,6.753-9.022,6.753-5.276,0-9.574-4.56-9.574-10.185,0-2.487-1.842-4.432-4.12-4.459h-.507c-1.878,0-3.533,1.33-4.022,3.285-1.175,4.432-4.912,7.478-9.227,7.478-5.312,0-9.592-4.569-9.592-10.203v-2.404c.729.015,1.504.075,2.34.15,5.152.413,11.504,1.496,14.823-2.175-.347-1.202-.926-2.294-1.699-3.276,3.221-2.202,5.463-5.432,6.202-8.772-2.652-1.973-6.3-2.789-10.099-2.193-.029-1.257-.284-2.496-.783-3.624-2.242-.211-4.28.89-6.282,2.468,1.032-2.964,1.53-5.927.391-8.432-1.184-.06-2.34.105-3.452.514-.819-3.991-2.838-7.377-5.552-9.295-2.652,1.918-4.662,5.304-5.49,9.295-1.104-.403-2.269-.568-3.435-.514-1.138,2.505-.676,5.469.364,8.432-1.984-1.578-4.066-2.679-6.282-2.468-.49,1.129-.774,2.367-.783,3.624-3.817-.597-7.483.221-10.117,2.193.748,3.34,2.946,6.57,6.229,8.772-.792.982-1.388,2.074-1.699,3.276,3.301,3.67,9.672,2.588,14.788,2.175.711-.06,1.379-.075,2.056-.135v2.386c0,5.634-4.324,10.203-9.592,10.203-4.315,0-8.132-3.046-9.263-7.478-.481-1.954-2.135-3.285-4.031-3.285h-.481c-2.296.03-4.129,1.973-4.129,4.459,0,5.625-4.298,10.185-9.583,10.185-4.04,0-7.661-2.725-9.022-6.753-.131-.431-.356-.835-.587-1.192l-.729-3.973c.445-.075.926-.174,1.388-.184,4.849-.67,10.953-.955,13.391-5.037-.551-1.046-1.29-1.927-2.171-2.688,2.607-2.744,4.084-6.148,4.191-9.396-2.776-1.303-6.335-1.34-9.752.009-.258-1.147-.72-2.266-1.362-3.211-2.109.257-3.835,1.707-5.383,3.542.427-2.955.329-5.781-1.175-7.882-1.095.156-2.135.568-3.132,1.147-1.477-3.496-3.933-6.212-6.762-7.469-2.118,2.331-3.39,5.827-3.444,9.735-1.121-.184-2.233-.12-3.319.211-.579,2.551.373,5.175,1.815,7.726-2.064-1.055-4.2-1.624-6.255-.991-.232,1.129-.249,2.367-.058,3.505-3.63.201-6.878,1.697-8.987,4.092,1.281,2.927,3.924,5.45,7.314,6.891-.534,1.064-.872,2.175-.978,3.358,3.728,2.753,9.423.44,14.112-.963.889-.275,1.673-.477,2.402-.66l.917,5.019c-.058,5.606-4.342,10.102-9.574,10.102-3.924,0-7.412-2.487-8.88-6.322-.846-2.285-3.292-3.34-5.454-2.459-1.619.724-2.589,2.386-2.589,4.184,0,.532.073,1.046.267,1.597.373,1.009.551,2.083.551,3.184,0,3.881-2.384,7.065-5.65,8.221-1.646-2.734-5.063-8.001-7.083-11.047,3.737-2.074,7.732-4.413,8.48-8.259-.828-.789-1.798-1.34-2.83-1.66,1.495-3.459,1.762-7.12.783-10.121-2.963-.156-6.202,1.101-8.898,3.569-.614-.973-1.379-1.789-2.242-2.468-1.851,1.055-2.981,2.973-3.79,5.248-.561-2.854-1.557-5.414-3.595-6.79-.969.577-1.78,1.33-2.456,2.248-2.5-2.707-9.618-3.322-14.263,3.918,0,0,7.421.322,12.777,6.267,3.088,3.404,5.517,7.038,7.02,9.359.102.385.232.734.418,1.082l9.263,15.35c.622,1.679,2.153,2.744,3.853,2.744,7.127,0,13.16-4.864,15.491-11.616,2.634,1.597,5.623,2.643,8.827,2.643,6.691,0,12.466-3.973,15.536-9.79,3.185,2.983,7.207,4.836,11.621,4.836,6.442,0,12.056-3.661,15.215-9.13,3.256,3.275,7.554,5.267,12.27,5.267,5.552,0,10.544-2.744,13.8-6.974,3.31,4.23,8.275,6.974,13.863,6.974,4.662,0,9.004-1.991,12.243-5.267,3.141,5.469,8.755,9.13,15.206,9.13,4.431,0,8.462-1.853,11.594-4.836,3.088,5.817,8.907,9.79,15.588,9.79,3.185,0,6.166-1.046,8.827-2.643,2.322,6.753,8.346,11.616,15.473,11.616,1.682,0,3.203-1.064,3.852-2.744l9.209-15.35c.24-.349.373-.697.49-1.082,1.442-2.321,3.924-5.955,7.002-9.359,5.374-5.946,12.768-6.267,12.768-6.267l-.003.003Z"/>
          <path class="cls-17" d="M1833.984,1108.671c0-3.147-2.518-5.753-5.579-5.753s-5.534,2.606-5.534,5.753c0,3.175,2.482,5.762,5.534,5.762s5.579-2.588,5.579-5.762Z"/>
          <path class="cls-4" d="M1833.984,1108.671c0-3.147-2.518-5.753-5.579-5.753s-5.534,2.606-5.534,5.753c0,3.175,2.482,5.762,5.534,5.762s5.579-2.588,5.579-5.762Z"/>
          <path class="cls-17" d="M1878.884,1118.744c0-3.175-2.482-5.762-5.57-5.762-3.043,0-5.561,2.588-5.561,5.762,0,3.23,2.518,5.799,5.561,5.799,3.088,0,5.57-2.569,5.57-5.799Z"/>
          <path class="cls-4" d="M1878.884,1118.744c0-3.175-2.482-5.762-5.57-5.762-3.043,0-5.561,2.588-5.561,5.762,0,3.23,2.518,5.799,5.561,5.799,3.088,0,5.57-2.569,5.57-5.799Z"/>
          <path class="cls-17" d="M1778.588,1108.671c0-3.147-2.465-5.753-5.525-5.753-3.078,0-5.561,2.606-5.561,5.753,0,3.175,2.483,5.762,5.561,5.762,3.061,0,5.525-2.588,5.525-5.762Z"/>
          <path class="cls-4" d="M1778.588,1108.671c0-3.147-2.465-5.753-5.525-5.753-3.078,0-5.561,2.606-5.561,5.753,0,3.175,2.483,5.762,5.561,5.762,3.061,0,5.525-2.588,5.525-5.762Z"/>
          <path class="cls-4" d="M1733.833,1118.744c0-3.175-2.447-5.762-5.552-5.762-3.052,0-5.57,2.588-5.57,5.762,0,3.23,2.518,5.799,5.57,5.799,3.105,0,5.552-2.569,5.552-5.799Z"/>
          <path class="cls-17" d="M1800.746,1101.455l-16.095,5.781,16.095,5.753,16.087-5.753-16.087-5.781Z"/>
          <path class="cls-4" d="M1800.746,1101.455l-16.095,5.781,16.095,5.753,16.087-5.753-16.087-5.781Z"/>
          <path class="cls-17" d="M1892.588,1120.698l-3.986,10.754-6.727-8.91,10.713-1.844Z"/>
          <path class="cls-4" d="M1892.588,1120.698l-3.986,10.754-6.727-8.91,10.713-1.844Z"/>
          <path class="cls-17" d="M1708.03,1120.698l4.022,10.754,6.682-8.91-10.704-1.844Z"/>
          <path class="cls-4" d="M1708.03,1120.698l4.022,10.754,6.682-8.91-10.704-1.844Z"/>
          <path class="cls-20" d="M1761.531,1110.625c.605,3.101-1.316,6.157-4.316,6.818l-10.873,2.349c-3.016.633-5.944-1.375-6.575-4.496-.596-3.111,1.308-6.166,4.325-6.818l10.855-2.349c3.007-.651,5.953,1.367,6.584,4.496Z"/>
          <path class="cls-4" d="M1761.531,1110.625c.605,3.101-1.316,6.157-4.316,6.818l-10.873,2.349c-3.016.633-5.944-1.375-6.575-4.496-.596-3.111,1.308-6.166,4.325-6.818l10.855-2.349c3.007-.651,5.953,1.367,6.584,4.496Z"/>
          <path class="cls-20" d="M1839.961,1110.625c-.587,3.101,1.344,6.157,4.324,6.818l10.873,2.349c2.981.633,5.917-1.375,6.549-4.496.65-3.111-1.281-6.166-4.289-6.818l-10.891-2.349c-2.981-.651-5.926,1.367-6.566,4.496Z"/>
          <path class="cls-4" d="M1839.961,1110.625c-.587,3.101,1.344,6.157,4.324,6.818l10.873,2.349c2.981.633,5.917-1.375,6.549-4.496.65-3.111-1.281-6.166-4.289-6.818l-10.891-2.349c-2.981-.651-5.926,1.367-6.566,4.496Z"/>
          <path class="cls-16" d="M1805.849,1058.91c0-3.202-2.482-5.771-5.561-5.771-3.061,0-5.543,2.569-5.543,5.771s2.482,5.781,5.543,5.781c3.079,0,5.561-2.569,5.561-5.781Z"/>
          <path class="cls-4" d="M1805.849,1058.91c0-3.202-2.482-5.771-5.561-5.771-3.061,0-5.543,2.569-5.543,5.771s2.482,5.781,5.543,5.781c3.079,0,5.561-2.569,5.561-5.781Z"/>
          <path class="cls-16" d="M1863.432,1065.225c0-3.211-2.491-5.781-5.57-5.781-3.052,0-5.552,2.569-5.552,5.781,0,3.193,2.5,5.771,5.552,5.771,3.078,0,5.57-2.578,5.57-5.771Z"/>
          <path class="cls-4" d="M1863.432,1065.225c0-3.211-2.491-5.781-5.57-5.781-3.052,0-5.552,2.569-5.552,5.781,0,3.193,2.5,5.771,5.552,5.771,3.078,0,5.57-2.578,5.57-5.771Z"/>
          <path class="cls-16" d="M1914.017,1085.82c0-3.156-2.447-5.753-5.516-5.753-3.043,0-5.543,2.597-5.543,5.753,0,3.193,2.5,5.781,5.543,5.781,3.069,0,5.516-2.588,5.516-5.781Z"/>
          <path class="cls-4" d="M1914.017,1085.82c0-3.156-2.447-5.753-5.516-5.753-3.043,0-5.543,2.597-5.543,5.753,0,3.193,2.5,5.781,5.543,5.781,3.069,0,5.516-2.588,5.516-5.781Z"/>
          <path class="cls-16" d="M1737.186,1065.225c0-3.211,2.465-5.781,5.561-5.781,3.061,0,5.525,2.569,5.525,5.781,0,3.193-2.465,5.771-5.525,5.771-3.096,0-5.561-2.578-5.561-5.771Z"/>
          <path class="cls-4" d="M1737.186,1065.225c0-3.211,2.465-5.781,5.561-5.781,3.061,0,5.525,2.569,5.525,5.781,0,3.193-2.465,5.771-5.525,5.771-3.096,0-5.561-2.578-5.561-5.771Z"/>
          <path class="cls-16" d="M1686.601,1085.82c0-3.156,2.5-5.753,5.57-5.753,3.043,0,5.534,2.597,5.534,5.753,0,3.193-2.491,5.781-5.534,5.781-3.07,0-5.57-2.588-5.57-5.781Z"/>
          <path class="cls-4" d="M1686.601,1085.82c0-3.156,2.5-5.753,5.57-5.753,3.043,0,5.534,2.597,5.534,5.753,0,3.193-2.491,5.781-5.534,5.781-3.07,0-5.57-2.588-5.57-5.781Z"/>
          <path class="cls-27" d="M1805.994,972.168v-21.224h6.967v-11.837h-6.967v-7.405h-11.105v7.405h-6.958v11.837h6.958v21.224h-9.778v7.653h30.634v-7.653h-9.751Z"/>
          <path class="cls-4" d="M1805.994,972.168v-21.224h6.967v-11.837h-6.967v-7.405h-11.105v7.405h-6.958v11.837h6.958v21.224h-9.778v7.653h30.634v-7.653h-9.751Z"/>
          <path class="cls-24" d="M1647.094,1143.098h305.642v276.419c0,91.262-152.792,91.262-152.792,91.262,0,0-152.85,0-152.85-91.262v-276.419Z"/>
          <path class="cls-5" d="M1647.094,1143.098h305.642v276.419c0,91.262-152.792,91.262-152.792,91.262,0,0-152.85,0-152.85-91.262v-276.419Z"/>
          <path class="cls-15" d="M1524.348,1375.363c15.82,6.368,29.166,18.389,38.002,33.831l.169.331c1.771,3.248,2.776,7.056,2.776,11.084,0,5.872-2.162,11.24-5.632,15.122l-.169.165c-4.137,4.744-6.682,11.166-6.682,18.232,0,12.672,8.106,23.214,18.899,25.757l.146.06c12.822,2.9,22.476,15.35,22.476,30.307h-28.143c-6.131,0-12.439-3.542-15.865-11.341-5.161-12.552-18.08-34.482-29.416-40.327.329-2.129,4.218-8.047,4.218-10.286,0-17.783-11.104-17.213-26.239-21.095l-4.938-.926s2.928-12.149,10.215-25.674c7.296-13.507,20.189-25.243,20.189-25.243l-.005.003Z"/>
          <path class="cls-1" d="M1524.348,1375.363c15.82,6.368,29.166,18.389,38.002,33.831l.169.331c1.771,3.248,2.776,7.056,2.776,11.084,0,5.872-2.162,11.24-5.632,15.122l-.169.165c-4.137,4.744-6.682,11.166-6.682,18.232,0,12.672,8.106,23.214,18.899,25.757l.146.06c12.822,2.9,22.476,15.35,22.476,30.307h-28.143c-6.131,0-12.439-3.542-15.865-11.341-5.161-12.552-18.08-34.482-29.416-40.327.329-2.129,4.218-8.047,4.218-10.286,0-17.783-11.104-17.213-26.239-21.095l-4.938-.926s2.928-12.149,10.215-25.674c7.296-13.507,20.189-25.243,20.189-25.243l-.005.003Z"/>
          <path class="cls-15" d="M1589.365,1193.46l39.968-63.835.16-.135c3.782-5.863,10.001-9.644,17.013-9.644,11.523,0,20.883,10.258,20.883,22.94h-20.883l-16.612,32.436-10.722,48.254-5.997,9.203-.498,1.174"/>
          <path class="cls-1" d="M1589.365,1193.46l39.968-63.835.16-.135c3.782-5.863,10.001-9.644,17.013-9.644,11.523,0,20.883,10.258,20.883,22.94h-20.883l-16.612,32.436-10.722,48.254-5.997,9.203-.498,1.174"/>
          <path class="cls-15" d="M1433.964,1415.653c-.347,3.083-.525,6.221-.525,9.368,0,4.019.276,8.029.8,11.974l.058.404c.195,1.514.312,3.074.312,4.661,0,14.718-8.497,27.197-20.393,31.996l-.087.15c-.204,2.175-.321,4.413-.321,6.662,0,13.791,4.075,26.435,10.926,36.832l.347.743c5.472,8.515,9.369,18.159,11.309,28.619,2.305,10.653,10.375,14.966,16.639,14.966h32.85c0-17.094-12.59-30.913-28.144-30.913l-.249-.06c-6.113-6.854-9.867-16.278-9.867-26.618,0-15.912,8.889-29.574,21.506-35.263l.152-.165c15.028-6.882,25.59-23.132,25.59-42.108l.131-.45c13.115-40.795,40.786-73.993,76.19-92.152l.249-.105c26.07-12.47,44.257-41.217,44.257-74.46,0-25.618-10.811-48.411-27.689-63.267,0,0,.223-29.729.223-37.024,3.577-3.349,6.54-5.762,15.375-12.929,11.718-9.46,19.717-16.095,22.316-30.361,1.575-8.919,6.166-38.961-5.41-37.125-11.531,1.808-28.303,9.267-28.303,9.267-6.691-2.945-8.471-6.717-16.123-6.717-5.089,0-14.316,2.761-19.032,4.074-25.421,7.175-44.203,32.546-44.203,62.697l.453,71.589c0,51.677-23.756,97.225-59.953,124.239l-.073.135c-15.278,11.13-26.586,28.27-31.098,48.328l-.087.523c-2.127,9.157-9.672,14.342-16.399,14.342s-13.462-2.78-18.604-8.432c-10.232-11.222-10.232-29.518,0-40.795,3.452-3.845,3.452-9.974,0-13.754-3.435-3.79-9.067-3.79-12.519,0-17.119,18.837-17.119,49.522,0,68.331,16.265,17.828,42.13,18.756,59.418,2.799.917-8.882,3.141-17.36,6.469-25.142-3.328,7.781-5.552,16.259-6.469,25.142"/>
          <path class="cls-1" d="M1433.964,1415.653c-.347,3.083-.525,6.221-.525,9.368,0,4.019.276,8.029.8,11.974l.058.404c.195,1.514.312,3.074.312,4.661,0,14.718-8.497,27.197-20.393,31.996l-.087.15c-.204,2.175-.321,4.413-.321,6.662,0,13.791,4.075,26.435,10.926,36.832l.347.743c5.472,8.515,9.369,18.159,11.309,28.619,2.305,10.653,10.375,14.966,16.639,14.966h32.85c0-17.094-12.59-30.913-28.144-30.913l-.249-.06c-6.113-6.854-9.867-16.278-9.867-26.618,0-15.912,8.889-29.574,21.506-35.263l.152-.165c15.028-6.882,25.59-23.132,25.59-42.108l.131-.45c13.115-40.795,40.786-73.993,76.19-92.152l.249-.105c26.07-12.47,44.257-41.217,44.257-74.46,0-25.618-10.811-48.411-27.689-63.267,0,0,.223-29.729.223-37.024,3.577-3.349,6.54-5.762,15.375-12.929,11.718-9.46,19.717-16.095,22.316-30.361,1.575-8.919,6.166-38.961-5.41-37.125-11.531,1.808-28.303,9.267-28.303,9.267-6.691-2.945-8.471-6.717-16.123-6.717-5.089,0-14.316,2.761-19.032,4.074-25.421,7.175-44.203,32.546-44.203,62.697l.453,71.589c0,51.677-23.756,97.225-59.953,124.239l-.073.135c-15.278,11.13-26.586,28.27-31.098,48.328l-.087.523c-2.127,9.157-9.672,14.342-16.399,14.342s-13.462-2.78-18.604-8.432c-10.232-11.222-10.232-29.518,0-40.795,3.452-3.845,3.452-9.974,0-13.754-3.435-3.79-9.067-3.79-12.519,0-17.119,18.837-17.119,49.522,0,68.331,16.265,17.828,42.13,18.756,59.418,2.799.917-8.882,3.141-17.36,6.469-25.142-3.328,7.781-5.552,16.259-6.469,25.142"/>
          <path class="cls-15" d="M1531.345,1126.861s-4.387,13.534,1.619,27.041c4.12,9.341,12.608,14.764,21.479,14.846,5.365-7.717,6.7-18.389,2.527-27.7-.401-.936-9.921-22.021-9.921-22.021"/>
          <path class="cls-1" d="M1531.345,1126.861s-4.387,13.534,1.619,27.041c4.12,9.341,12.608,14.764,21.479,14.846,5.365-7.717,6.7-18.389,2.527-27.7-.401-.936-9.921-22.021-9.921-22.021"/>
          <path class="cls-13" d="M1583.389,1107.469c-2.652,1.147-5.374,1.404-7.643.845,1.299-2.12,3.399-4.028,6.042-5.203l1.602,4.358h0Z"/>
          <path class="cls-6" d="M1583.389,1107.469c-2.652,1.147-5.374,1.404-7.643.845,1.299-2.12,3.399-4.028,6.042-5.203l1.602,4.358h0Z"/>
          <path class="cls-15" d="M1583.097,1248.181c17.271,10.075,36.56-.06,46.046-16.855,3.31-5.817,1.557-15.534,3.443-21.296l.16-.358c2.029-6.249,7.519-10.809,13.943-10.809l.029,47.824s-4.191,4.579-15.055,16.507c-10.873,11.928-22.796,28.939-35.324,24.958-12.501-3.964-53.698-14.442-53.698-14.442"/>
          <path class="cls-1" d="M1583.097,1248.181c17.271,10.075,36.56-.06,46.046-16.855,3.31-5.817,1.557-15.534,3.443-21.296l.16-.358c2.029-6.249,7.519-10.809,13.943-10.809l.029,47.824s-4.191,4.579-15.055,16.507c-10.873,11.928-22.796,28.939-35.324,24.958-12.501-3.964-53.698-14.442-53.698-14.442"/>
          <path class="cls-13" d="M1609.483,1080.258c0,10.552,7.812,19.14,17.431,19.14v-12.323c-.008-5.074-1.619-7.561-6.246-6.818h-11.185Z"/>
          <path class="cls-8" d="M1609.483,1080.709c0,10.552,7.812,19.14,17.431,19.14v-12.323c-.008-5.074-1.619-7.561-6.246-6.818h-11.185Z"/>
          <path class="cls-13" d="M1626.248,1112.73s-11.709,12.828-26.23,16.947"/>
          <path class="cls-1" d="M1626.248,1112.73s-11.709,12.828-26.23,16.947"/>
          <path class="cls-16" d="M1846.813,1475.185l-35.786-40.868c-6.273-7.221-16.345-7.221-22.635,0l-35.716,40.868h94.137Z"/>
          <path class="cls-9" d="M1846.813,1475.185l-35.786-40.868c-6.273-7.221-16.345-7.221-22.635,0l-35.716,40.868h94.137Z"/>
          <path class="cls-16" d="M1779.171,1228.487l-35.742-40.841c-6.282-7.23-16.362-7.23-22.618-.03l-35.742,40.877h94.102v-.006Z"/>
          <path class="cls-9" d="M1779.171,1228.487l-35.742-40.841c-6.282-7.23-16.362-7.23-22.618-.03l-35.742,40.877c31.365-.008,62.749.015,94.102-.006h0Z"/>
          <path class="cls-16" d="M1914.892,1228.487l-35.76-40.841c-6.291-7.23-16.354-7.23-22.591-.03l-35.76,40.877h94.111v-.006Z"/>
          <path class="cls-9" d="M1914.892,1228.487l-35.76-40.841c-6.291-7.23-16.354-7.23-22.591-.03l-35.76,40.877c31.367-.008,62.755.015,94.111-.006h0Z"/>
          <path class="cls-16" d="M1779.171,1310.119l-35.742-40.841c-6.282-7.185-16.362-7.185-22.618-.03l-35.742,40.868h94.102v.003Z"/>
          <path class="cls-9" d="M1779.171,1310.119l-35.742-40.841c-6.282-7.185-16.362-7.185-22.618-.03l-35.742,40.868c31.366.003,62.741-.006,94.102.003h0Z"/>
          <path class="cls-16" d="M1914.892,1310.119l-35.76-40.841c-6.291-7.185-16.354-7.185-22.591-.03l-35.76,40.868h94.111v.003Z"/>
          <path class="cls-9" d="M1914.892,1310.119l-35.76-40.841c-6.291-7.185-16.354-7.185-22.591-.03l-35.76,40.868c31.369.003,62.747-.006,94.111.003h0Z"/>
          <path class="cls-16" d="M1779.171,1392.953l-35.742-40.924c-6.282-7.212-16.362-7.212-22.618,0l-35.742,40.924h94.102Z"/>
          <path class="cls-9" d="M1779.171,1392.953l-35.742-40.924c-6.282-7.212-16.362-7.212-22.618,0l-35.742,40.924h94.102Z"/>
          <path class="cls-16" d="M1914.892,1392.953l-35.76-40.924c-6.291-7.212-16.354-7.212-22.591,0l-35.76,40.924h94.111Z"/>
          <path class="cls-9" d="M1914.892,1392.953l-35.76-40.924c-6.291-7.212-16.354-7.212-22.591,0l-35.76,40.924h94.111Z"/>
          <path class="cls-12" d="M1955.127,887.229c11.914,24.939,54.997,32.023,69.42,31.674,7.18-.156,13.969-1.487,20.135-4.248-.676,2.331-1.486,4.56-2.465,6.717-6.095,13.91-17.804,24.59-32.147,28.912,4.645,15.066,15.206,20.333,26.514,25.031-12.564,4.046-94.422,11.057-147.063-45.465"/>
          <path class="cls-3" d="M1955.127,887.229c11.914,24.939,54.997,32.023,69.42,31.674,7.18-.156,13.969-1.487,20.135-4.248-.676,2.331-1.486,4.56-2.465,6.717-6.095,13.91-17.804,24.59-32.147,28.912,4.645,15.066,15.206,20.333,26.514,25.031-12.564,4.046-94.422,11.057-147.063-45.465"/>
          <path class="cls-12" d="M1643.45,887.229c-11.887,24.939-54.971,32.023-69.429,31.674-7.136-.156-13.934-1.487-20.118-4.248.676,2.331,1.477,4.56,2.447,6.717,6.086,13.91,17.822,24.59,32.147,28.912-4.653,15.066-15.161,20.333-26.488,25.031,12.537,4.046,94.404,11.057,147.063-45.465"/>
          <path class="cls-3" d="M1643.45,887.229c-11.887,24.939-54.971,32.023-69.429,31.674-7.136-.156-13.934-1.487-20.118-4.248.676,2.331,1.477,4.56,2.447,6.717,6.086,13.91,17.822,24.59,32.147,28.912-4.653,15.066-15.161,20.333-26.488,25.031,12.537,4.046,94.404,11.057,147.063-45.465"/>
          <path class="cls-12" d="M1897.836,915.492l-8.453,14.975s9.867,2.551,20.074,5.111c10.215,2.542,15.117.577,22.199-7.653,8.426-9.91,17.591-24.527,17.591-24.527l.102-.248c3.515-5.496,5.552-12.075,5.552-19.205,0-16.938-11.683-31.041-27.093-34.207l-.321-.105c-41.276-7.753-83.825-11.827-127.246-11.827h-1.86c-43.421,0-85.969,4.074-127.228,11.827l-.347.105c-15.456,3.166-27.111,17.269-27.111,34.207,0,7.129,2.073,13.708,5.579,19.205l.102.248s9.138,14.617,17.564,24.527c7.091,8.231,12.021,10.194,22.226,7.653,10.188-2.56,20.074-5.111,20.074-5.111l-8.453-14.975-1.147-2.597-16.265,2.514c37.299-6.955,75.728-10.589,115.012-10.589h1.86c39.238,0,77.704,3.634,115.029,10.589l-15.98-2.386-1.451,2.468h-.01Z"/>
          <path class="cls-3" d="M1897.836,915.492l-8.453,14.975s9.867,2.551,20.074,5.111c10.215,2.542,15.117.577,22.199-7.653,8.426-9.91,17.591-24.527,17.591-24.527l.102-.248c3.515-5.496,5.552-12.075,5.552-19.205,0-16.938-11.683-31.041-27.093-34.207l-.321-.105c-41.276-7.753-83.825-11.827-127.246-11.827h-1.86c-43.421,0-85.969,4.074-127.228,11.827l-.347.105c-15.456,3.166-27.111,17.269-27.111,34.207,0,7.129,2.073,13.708,5.579,19.205l.102.248s9.138,14.617,17.564,24.527c7.091,8.231,12.021,10.194,22.226,7.653,10.188-2.56,20.074-5.111,20.074-5.111l-8.453-14.975-1.147-2.597-16.265,2.514c37.299-6.955,75.728-10.589,115.012-10.589h1.86c39.238,0,77.704,3.634,115.029,10.589l-15.98-2.386-1.451,2.468h-.01Z"/>
          <path class="cls-13" d="M1700.158,898.654c-6.549,1.358-13.613-1.212-15.883-11.928-1.984-9.304,3.595-16.122,9.787-17.443,6.54-1.395,13.605,1.082,15.855,11.791,2.002,9.332-3.568,16.25-9.761,17.58h0ZM1694.526,872.935c-3.061.651-5.143,3.303-3.23,12.396,1.922,9.084,5.356,10.286,8.408,9.644,3.088-.679,5.125-3.404,3.194-12.497-1.931-9.075-5.321-10.194-8.373-9.543Z"/>
          <path class="cls-13" d="M1749.286,889.033c-1.147.67-3.862,1.954-6.727,2.34-8.836,1.174-16.007-4.212-17.137-12.773-1.201-9.258,4.814-15.728,13.854-16.947,1.744-.239,4.058-.239,5.472-.015.329.015.622.322.65.679l.889,6.606c.029.367-.131.568-.516.642l-1.717.23c-.284.045-.56-.105-.694-.44l-.711-2.239c-.445-1.313-1.628-1.817-3.897-1.514-5.73.762-7.029,6.056-6.344,11.167.792,6.028,4.289,11.047,11.202,10.112,1.362-.165,3.15-.835,4.137-1.469.392-.275.783.03.934.34l.765,2.376c.131.313.087.743-.16.908l-.002-.004Z"/>
          <path class="cls-13" d="M1787.772,886.327c0,.395-.16.78-.453.78l-21.124,1.202c-.364.03-.631-.174-.649-.606l-.073-1.239c-.029-.349.131-.66.551-.762l1.993-.514c.401-.09.739-.541.676-1.469l-1.095-19.599c-.044-.926-.427-1.33-.846-1.395l-2.037-.266c-.418-.06-.605-.322-.64-.651l-.058-1.284c-.029-.404.187-.642.605-.67l20.447-1.147c.284-.009.587.293.596.66l.302,5.524c.029.376-.169.606-.534.624l-1.477.105c-.312,0-.587-.174-.65-.532l-.462-1.542c-.195-.724-.757-1.082-1.53-1.037l-6.567.367c-.276,0-.472.239-.472.559l.41,6.937c.009.284.232.487.525.467l9.165-.496c.401-.06.622.165.622.532l.152,2.487c0,.385-.214.642-.57.651l-9.174.477c-.276.045-.453.266-.453.541l.427,7.68c.058,1.183.668,1.449,1.442,1.395l6.433-.358c.783-.03,1.388-.505,1.522-1.257l.293-1.597c.058-.358.284-.568.596-.568l1.53-.09c.373-.03.614.15.614.559l-.044,5.524.006.006Z"/>
          <path class="cls-13" d="M1833.838,887.379l-11.914-.311c-.373,0-.631-.221-.605-.642l.029-1.266c.009-.302.195-.615.614-.707l2.002-.311c.534-.09.846-.606.605-1.431l-.926-3.138c-.087-.239-.204-.496-.49-.496l-9.948-.23c-.284,0-.427.23-.534.458l-1.201,3.092c-.321.818.009,1.35.507,1.431l2.02.44c.418.105.587.376.587.716l-.029,1.275c-.015.439-.293.615-.659.615l-9.832-.23c-.401-.009-.649-.248-.649-.651l.058-1.257c0-.34.152-.597.614-.707l1.166-.367c.516-.135.765-.385,1.227-1.422l10.295-24.178c.058-.174.117-.349.329-.349l5.899.105c.16.03.232.211.312.404l8.311,24.646c.373,1.074.596,1.284,1.121,1.476l1.174.423c.436.135.587.385.561.743l-.029,1.239c0,.431-.258.624-.614.624l-.004.005ZM1819.744,866.678c-.587-1.927-.8-3.202-.854-4.064h-.102c-.087.67-.542,2.193-1.219,4.001l-3.114,8.157c-.152.367.058.467.321.467l7.145.174c.347,0,.392-.156.284-.431l-2.465-8.304h.004Z"/>
          <path class="cls-13" d="M1879.905,865.882l-2.064.15c-.382.015-.792.395-.88,1.34l-2.652,23.83c-.044.275-.187.302-.41.275l-3.541-.385c-.401-.045-.453-.135-.64-.458l-9.281-16.479c-.631-1.183-1.602-3.138-1.761-3.551l-.073-.03-1.566,14.332c-.117.917.169,1.386.579,1.467l2.402.679c.391.135.525.44.49.771l-.169,1.248c-.029.413-.295.588-.685.568l-10.864-1.212c-.364-.03-.605-.266-.57-.697l.131-1.239c.073-.349.232-.615.642-.66l2.091-.156c.418-.06.809-.423.889-1.348l2.189-19.507c.102-.908-.16-1.358-.587-1.505l-1.993-.615c-.41-.105-.551-.44-.498-.743l.102-1.275c.044-.431.329-.597.739-.55l8.746.955c.516.06.739.394,1.041.926l6.833,12.828c.988,1.835,1.539,3,1.957,4.037h.087l1.344-12.075c.087-.917-.178-1.386-.614-1.514l-2.358-.651c-.418-.135-.553-.431-.542-.798l.16-1.248c.058-.413.312-.597.694-.541l10.882,1.192c.41.06.587.295.56.716l-.131,1.257c-.015.313-.24.606-.676.67l-.003-.003Z"/>
          <path class="cls-13" d="M1904.833,897.151c-6.575-1.294-12.083-6.45-9.992-17.177,1.824-9.368,9.574-13.442,15.785-12.231,6.602,1.275,12.137,6.331,10.037,17.057-1.824,9.378-9.636,13.543-15.829,12.35h0ZM1909.629,871.303c-3.043-.624-6.006,1.009-7.804,10.13-1.779,9.111.917,11.561,3.995,12.167,3.123.615,6.041-1.12,7.821-10.24,1.78-9.121-.934-11.47-4.013-12.057Z"/>
          <path class="cls-11" d="M2075.978,1375.363c-15.829,6.368-29.176,18.407-38.028,33.858l-.169.331c-1.771,3.239-2.758,7.01-2.758,11.084,0,5.872,2.109,11.249,5.606,15.094l.152.192c4.137,4.716,6.7,11.158,6.7,18.242,0,12.635-8.088,23.197-18.943,25.746l-.073.03c-12.83,2.89-22.494,15.35-22.494,30.307h28.151c6.158,0,12.466-3.505,15.883-11.314,5.125-12.561,18.071-34.473,29.389-40.336-.338-2.129-4.226-8.065-4.226-10.295,0-17.783,11.149-17.204,26.248-21.059l4.965-.982s-2.918-12.121-10.242-25.646c-7.269-13.488-20.152-25.251-20.152-25.251l-.008-.002Z"/>
          <path class="cls-1" d="M2075.978,1375.363c-15.829,6.368-29.176,18.407-38.028,33.858l-.169.331c-1.771,3.239-2.758,7.01-2.758,11.084,0,5.872,2.109,11.249,5.606,15.094l.152.192c4.137,4.716,6.7,11.158,6.7,18.242,0,12.635-8.088,23.197-18.943,25.746l-.073.03c-12.83,2.89-22.494,15.35-22.494,30.307h28.151c6.158,0,12.466-3.505,15.883-11.314,5.125-12.561,18.071-34.473,29.389-40.336-.338-2.129-4.226-8.065-4.226-10.295,0-17.783,11.149-17.204,26.248-21.059l4.965-.982s-2.918-12.121-10.242-25.646c-7.269-13.488-20.152-25.251-20.152-25.251l-.008-.002Z"/>
          <path class="cls-11" d="M2010.961,1193.46l-39.986-63.853-.16-.165c-3.782-5.827-9.983-9.634-16.986-9.634-11.549,0-20.909,10.295-20.909,22.948h20.909l16.62,32.445,10.704,48.263,5.988,9.203.49,1.183"/>
          <path class="cls-10" d="M2010.961,1193.46l-39.986-63.853-.16-.165c-3.782-5.827-9.983-9.634-16.986-9.634-11.549,0-20.909,10.295-20.909,22.948h20.909l16.62,32.445,10.704,48.263,5.988,9.203.49,1.183"/>
          <path class="cls-15" d="M2166.216,1415.653c.321,3.111.49,6.175.49,9.359,0,4.074-.258,8.065-.809,11.947l-.029.44c-.204,1.532-.284,3.092-.284,4.652,0,14.709,8.453,27.242,20.376,31.996l.088.156c.204,2.193.303,4.413.303,6.689,0,13.754-4.058,26.435-10.909,36.794l-.356.743c-5.472,8.505-9.387,18.159-11.282,28.655-2.34,10.653-10.384,14.929-16.62,14.929h-32.904c0-17.048,12.608-30.922,28.162-30.922l.267-.015c6.086-6.882,9.885-16.278,9.885-26.647,0-15.892-8.925-29.574-21.551-35.28l-.131-.135c-15.037-6.863-25.608-23.141-25.608-42.089l-.102-.505c-13.133-40.75-40.788-73.973-76.201-92.123l-.241-.075c-26.089-12.488-44.266-41.264-44.266-74.478,0-25.601,10.811-48.437,27.698-63.238,0,0-.232-29.757-.232-37.06-3.55-3.358-6.54-5.771-15.401-12.929-11.656-9.46-19.682-16.122-22.262-30.334-1.584-8.946-6.202-39.006,5.356-37.143,11.549,1.798,28.294,9.267,28.294,9.267,6.762-2.927,8.524-6.717,16.167-6.717,5.072,0,14.325,2.716,19.005,4.056,25.439,7.212,44.23,32.51,44.23,62.679l-.453,71.598c0,51.686,23.748,97.252,59.926,124.275l.131.156c15.215,11.112,26.551,28.243,31.072,48.283l.073.514c2.135,9.166,9.663,14.397,16.39,14.397s13.471-2.817,18.613-8.442c10.215-11.24,10.215-29.545,0-40.813-3.479-3.808-3.479-9.965,0-13.745,3.417-3.835,9.049-3.835,12.466,0,17.199,18.81,17.199,49.475,0,68.313-16.212,17.819-42.095,18.756-59.356,2.799-.926-8.855-3.132-17.37-6.469-25.113,3.337,7.744,5.543,16.26,6.469,25.113"/>
          <path class="cls-1" d="M2166.216,1415.653c.321,3.111.49,6.175.49,9.359,0,4.074-.258,8.065-.809,11.947l-.029.44c-.204,1.532-.284,3.092-.284,4.652,0,14.709,8.453,27.242,20.376,31.996l.088.156c.204,2.193.303,4.413.303,6.689,0,13.754-4.058,26.435-10.909,36.794l-.356.743c-5.472,8.505-9.387,18.159-11.282,28.655-2.34,10.653-10.384,14.929-16.62,14.929h-32.904c0-17.048,12.608-30.922,28.162-30.922l.267-.015c6.086-6.882,9.885-16.278,9.885-26.647,0-15.892-8.925-29.574-21.551-35.28l-.131-.135c-15.037-6.863-25.608-23.141-25.608-42.089l-.102-.505c-13.133-40.75-40.788-73.973-76.201-92.123l-.241-.075c-26.089-12.488-44.266-41.264-44.266-74.478,0-25.601,10.811-48.437,27.698-63.238,0,0-.232-29.757-.232-37.06-3.55-3.358-6.54-5.771-15.401-12.929-11.656-9.46-19.682-16.122-22.262-30.334-1.584-8.946-6.202-39.006,5.356-37.143,11.549,1.798,28.294,9.267,28.294,9.267,6.762-2.927,8.524-6.717,16.167-6.717,5.072,0,14.325,2.716,19.005,4.056,25.439,7.212,44.23,32.51,44.23,62.679l-.453,71.598c0,51.686,23.748,97.252,59.926,124.275l.131.156c15.215,11.112,26.551,28.243,31.072,48.283l.073.514c2.135,9.166,9.663,14.397,16.39,14.397s13.471-2.817,18.613-8.442c10.215-11.24,10.215-29.545,0-40.813-3.479-3.808-3.479-9.965,0-13.745,3.417-3.835,9.049-3.835,12.466,0,17.199,18.81,17.199,49.475,0,68.313-16.212,17.819-42.095,18.756-59.356,2.799-.926-8.855-3.132-17.37-6.469-25.113,3.337,7.744,5.543,16.26,6.469,25.113"/>
          <path class="cls-15" d="M2068.981,1126.861s4.413,13.542-1.575,27.022c-4.156,9.341-12.626,14.745-21.497,14.865-5.383-7.726-6.691-18.398-2.562-27.71.418-.946,9.939-21.994,9.939-21.994"/>
          <path class="cls-1" d="M2068.981,1126.861s4.413,13.542-1.575,27.022c-4.156,9.341-12.626,14.745-21.497,14.865-5.383-7.726-6.691-18.398-2.562-27.71.418-.946,9.939-21.994,9.939-21.994"/>
          <path class="cls-21" d="M2016.938,1107.469c2.616,1.174,5.348,1.367,7.608.845-1.308-2.147-3.381-4.056-6.068-5.221l-1.539,4.377h0Z"/>
          <path class="cls-6" d="M2016.938,1107.469c2.616,1.174,5.348,1.367,7.608.845-1.308-2.147-3.381-4.056-6.068-5.221l-1.539,4.377h0Z"/>
          <path class="cls-15" d="M2017.084,1248.181c-17.27,10.075-36.56-.015-46.046-16.847-3.346-5.817-1.566-15.554-3.408-21.287l-.16-.331c-2.046-6.313-7.528-10.818-13.969-10.818l-.058,47.796s4.191,4.569,15.055,16.544c10.882,11.91,22.804,28.903,35.341,24.921,12.501-3.982,53.707-14.452,53.707-14.452"/>
          <path class="cls-1" d="M2017.084,1248.181c-17.27,10.075-36.56-.015-46.046-16.847-3.346-5.817-1.566-15.554-3.408-21.287l-.16-.331c-2.046-6.313-7.528-10.818-13.969-10.818l-.058,47.796s4.191,4.569,15.055,16.544c10.882,11.91,22.804,28.903,35.341,24.921,12.501-3.982,53.707-14.452,53.707-14.452"/>
          <path class="cls-13" d="M1990.698,1080.108c0,10.562-7.83,19.177-17.422,19.177v-12.35c0-5.074,1.61-7.57,6.193-6.827h11.229Z"/>
          <g>
            <path class="cls-8" d="M1990.698,1080.709c0,10.562-7.83,19.177-17.422,19.177v-12.35c0-5.074,1.61-7.57,6.193-6.827h11.229Z"/>
            <path class="cls-1" d="M1973.933,1112.73s11.709,12.873,26.258,16.976"/>
          </g>
        </g>
        <g>
          <path class="cls-16" d="M1727.532,1123.026c-.826-.113-1.703-.593-2.324-1.271-.705-.771-1.053-1.562-1.137-2.586-.157-1.915,1.099-3.741,2.968-4.313.528-.162,1.578-.162,2.109-.001,1.725.523,2.918,2.152,2.918,3.987,0,2.561-2.119,4.517-4.535,4.186h0Z"/>
          <path class="cls-16" d="M1772.075,1112.827c-.842-.21-1.615-.714-2.197-1.434-1.07-1.321-1.185-3.377-.27-4.827,1.886-2.987,6.072-2.422,7.182.97.21.641.194,1.885-.033,2.566-.677,2.035-2.71,3.217-4.682,2.725h0Z"/>
          <path class="cls-16" d="M1872.586,1123.026c-1.525-.263-2.796-1.449-3.253-3.034-.158-.549-.159-1.7-.001-2.253.395-1.385,1.455-2.48,2.799-2.887.463-.14,1.517-.161,2.027-.04,1.024.243,2.145,1.169,2.614,2.159.253.535.459,1.385.459,1.894,0,.53-.209,1.368-.486,1.948-.727,1.523-2.545,2.49-4.159,2.212h0Z"/>
          <path class="cls-16" d="M1827.68,1112.902c-.539-.108-1.17-.388-1.641-.73-2.481-1.797-2.192-5.7.527-7.103,1.317-.68,2.725-.582,3.98.278,2.742,1.879,2.223,6.179-.888,7.345-.508.191-1.532.299-1.977.21h0Z"/>
        </g>
        <path class="cls-15" d="M2012.115,1500.219c3.741-9.233,5.575-10.988,17.013-16.281,12.076-5.588,17.983-11.562,20.708-20.94,2.544-8.756.929-17.809-4.921-27.581-6.846-11.437-7.343-14.539-3.693-23.049,3.736-8.711,17.123-22.942,26.924-28.622l6.781-3.93,5.658,6.817c6.732,8.111,18.795,32.558,17.622,35.71-.454,1.22-3.727,2.78-7.273,3.465-14.293,2.763-20.318,10.628-18.517,24.171.872,6.562.445,8.057-3.331,11.672-5.505,5.27-15.659,20.596-21.397,32.296-2.442,4.979-5.905,9.861-7.698,10.85-1.792.989-9.378,1.798-16.859,1.798h-13.6l2.584-6.377Z"/>
        <g>
          <path class="cls-27" d="M1701.575,1101.324c-2.859-4.771-3.518-7.753-2.702-12.239.913-5.02.453-6.354-2.995-8.684-2.241-1.514-4.73-2.564-5.532-2.333-2.187.629-14.084-4.254-14.084-5.781,0-2.58,5.963-4.494,11.362-3.648,3.388.531,5.471,1.855,5.471,3.477,0,1.85.618,2.117,2.104.91,1.157-.94,4.377-2.271,7.154-2.959,2.778-.687,5.429-1.381,5.892-1.541.463-.161.953,2.833,1.088,6.652.182,5.116-.655,7.68-3.181,9.739-3.369,2.746-3.374,2.888-.305,8.246,1.718,2.999,4.115,5.452,5.327,5.452,2.708,0,5.561-7.25,4.69-11.916-.968-5.186,3.314-5.734,7.645-.979,5.114,5.614,12.398,5.596,15.978-.04,4.538-7.142,2.686-10.516-5.439-9.911-5.264.392-8.033-.416-11.219-3.273-4.324-3.877-4.347-8.603-.043-8.603,1.319,0,2.85-1.217,3.404-2.704.553-1.487,2.045-2.293,3.314-1.791,1.269.502,2.308-.114,2.308-1.37,0-3.614,5.117-13.233,7.04-13.233,2.594,0,9.731,7.451,9.764,10.195.023,1.854.556,1.932,2.404.35,1.354-1.159,2.784-1.351,3.326-.447.523.872,2.936,1.361,5.363,1.087,4.216-.477,4.363-.217,3.302,5.876-1.255,7.207-4.725,10.716-10.596,10.716-5.479,0-4.514,6.247,1.701,11.016l4.629,3.551,4.589-3.534c2.524-1.943,5.053-5.416,5.62-7.717,1.25-5.074,4.679-4.641,8.869,1.121,5.418,7.451,17.955,4.266,17.955-4.56,0-2.308-1.177-3.356-3.788-3.372-6.246-.039-11.362-1.978-11.362-4.306,0-1.204-1.136-3.162-2.525-4.35-3.877-3.318-3.05-6.944,1.584-6.944,2.26,0,4.618-.849,5.24-1.887.622-1.038,2.598-1.492,4.391-1.008,2.358.636,3.136.078,2.813-2.019-.245-1.594,1.611-5.16,4.126-7.926l4.572-5.028,4.208,4.683c2.315,2.576,4.208,6.132,4.208,7.903,0,2.365.894,2.979,3.367,2.312,1.882-.508,3.367-.053,3.367,1.031,0,1.066,1.894,1.939,4.208,1.939,4.79,0,5.565,3.561,1.653,7.595-1.405,1.449-2.352,3.618-2.104,4.819.484,2.343-.529,2.657-9.649,2.993-4.529.167-5.892.958-5.892,3.42,0,8.556,13.093,12.066,17.738,4.755,4.293-6.756,7.224-6.825,9.895-.231,3.455,8.529,8.61,10.917,14.241,6.598,5.778-4.432,6.903-10.853,1.9-10.853-5.265,0-10.116-3.164-9.088-5.927.492-1.321.085-2.918-.904-3.548-.989-.63-1.798-2.555-1.798-4.277,0-2.308,1.104-3.006,4.201-2.655,2.311.262,4.607-.202,5.104-1.031.497-.829,2.015-1.066,3.374-.529,1.541.61,2.471-.072,2.471-1.812,0-1.534,1.16-2.79,2.578-2.79s3.014-1.172,3.547-2.604c1.431-3.845,7.342-3.296,7.342.682,0,1.807,1.077,3.713,2.394,4.234,1.534.607,2.044,2.331,1.418,4.797-.619,2.441-.333,3.44.782,2.729.967-.616,2.694.043,3.838,1.465,1.144,1.422,3.079,2.585,4.3,2.585,4.169,0,4.459,3.724.618,7.941-2.885,3.167-5.597,4.212-10.938,4.212-8.317,0-10.649,3.45-6.62,9.793,3.447,5.425,9.926,5.286,16.425-.354,5.694-4.941,7.911-3.64,7.958,4.671.033,5.898,4.596,10.242,6.944,6.611,5.142-7.953,5.324-9.062,1.947-11.877-2.633-2.196-3.16-4.284-2.551-10.111.698-6.687,1.064-7.179,4.091-5.509,1.829,1.009,4.339,1.434,5.579.943,1.24-.491,2.75.426,3.357,2.036.992,2.634,1.302,2.579,3.085-.544,2.754-4.824,16.292-4.334,16.292.59,0,1.624-10.206,6.132-13.397,5.917-1.35-.091-3.899.632-5.665,1.606-2.55,1.408-3.013,3.019-2.254,7.845.728,4.624-.035,7.691-3.194,12.852-5.16,8.43-10.481,8.952-17.212,1.688-4.106-4.431-5.592-4.97-11.46-4.158-5.61.776-7.636.157-12.065-3.687-4.313-3.743-5.953-4.271-8.645-2.786-5.943,3.28-14.486,2.167-19.397-2.527-4.208-4.022-4.845-4.157-8.196-1.736-4.901,3.54-11.059,3.293-17.405-.698-4.586-2.884-5.574-2.987-7.692-.803-3.844,3.964-14.122,4.998-18.73,1.884-3.705-2.504-4.292-2.402-8.711,1.514-5.106,4.525-11.713,5.347-18.258,2.272-3.437-1.615-4.671-1.341-7.611,1.692-4.249,4.382-10.529,6.204-16.265,4.72-3.253-.842-5.132-.07-7.996,3.286-2.059,2.412-6.099,4.852-8.977,5.421-4.66.921-5.647.343-9.013-5.274v-.002ZM1749.044,1068.031c1.775-4.018,1.548-4.928-1.961-7.859-3.491-2.915-4.396-3.023-7.515-.891-6.85,4.682-4.629,13.293,3.43,13.293,2.722,0,4.693-1.481,6.046-4.544h0ZM1862.782,1070.491c2.796-2.883,2.525-7.564-.625-10.814-3.459-3.567-5.08-3.442-9.1.705-4.731,4.88-1.708,12.096,5.096,12.165,1.435.015,3.518-.911,4.629-2.057h0ZM1804.922,1064.638c3.151-3.249,3.421-7.93.625-10.814-6.538-6.743-16.811,2.998-10.612,10.062,3.675,4.188,6.451,4.397,9.986.751h0Z"/>
          <path class="cls-27" d="M1700.87,1100.03c-3.151-5.449-3.79-8.049-2.561-10.416,1.845-3.554-.621-9.926-4.011-10.364-4.573-.591-5.667-.891-11.724-3.218-3.472-1.333-6.313-3.021-6.313-3.75,0-4.196,14.335-5.616,16.709-1.656.987,1.648,2.828,1.564,8.29-.377,3.862-1.372,7.317-1.997,7.679-1.389.362.608.657,4.049.655,7.648-.002,4.648-.929,7.053-3.202,8.308-4.065,2.244-4.016,3.575.34,9.287,4.431,5.81,8.245,3.428,8.245-5.15,0-7.804,2.729-8.982,8.225-3.552,5.934,5.863,12.681,5.947,16.33.203,4.043-6.364,2.046-9.562-5.972-9.562-4.547,0-8.161-1.244-10.994-3.785-5.297-4.75-5.3-6.294-.013-8.367,2.315-.908,4.208-2.451,4.208-3.429s1.136-1.779,2.525-1.779c1.403,0,2.525-1.543,2.525-3.472,0-1.91.611-3.472,1.358-3.472s2.073-1.98,2.946-4.4l1.587-4.4,5.442,3.966c2.993,2.181,5.455,4.814,5.471,5.851.016,1.037,3.185,2.013,7.042,2.169,3.857.156,7.351.632,7.764,1.058.413.426.072,3.747-.757,7.38-1.206,5.282-2.576,6.965-6.841,8.401-7.087,2.388-7.788,3.335-5.593,7.563,4.799,9.249,13.668,7.985,17.939-2.555,1.323-3.265,2.748-5.936,3.166-5.936s3.086,2.344,5.927,5.208c5.876,5.924,11.661,6.672,15.731,2.033,5.021-5.722,3.575-8.978-3.989-8.978-5.605,0-7.041-.721-8.313-4.172-.846-2.294-2.342-4.684-3.325-5.311-3.385-2.158-1.879-6.143,2.322-6.143,2.26,0,4.577-.781,5.149-1.736s2.555-1.736,4.407-1.736c1.897,0,2.896-.786,2.288-1.801-.594-.991,1.24-4.247,4.074-7.237l5.153-5.436,4.244,4.722c2.334,2.597,4.244,5.854,4.244,7.237s1.515,2.515,3.367,2.515,3.367.781,3.367,1.736,1.894,1.736,4.208,1.736c4.913,0,5.075.91,1.661,9.336-2.391,5.902-3.011,6.288-10.1,6.288-6.219,0-7.553.566-7.553,3.203,0,4.235,5.219,8.949,9.907,8.949,2.07,0,5.95-2.484,8.66-5.544,5.393-6.089,5.72-6.01,9.777,2.369,3.325,6.866,10.478,8.66,15.572,3.905,4.359-4.068,4.211-9.41-.26-9.41-5.198,0-10.374-3.406-9.352-6.154.494-1.328.174-2.877-.711-3.441s-1.61-2.542-1.61-4.396c0-2.602,1.246-3.417,5.471-3.575,3.009-.113,6.418-.079,7.575.076,1.157.155,2.104-.924,2.104-2.398s1.16-2.68,2.578-2.68,3.014-1.172,3.547-2.604c1.216-3.267,7.342-3.445,7.342-.213,0,1.315,1.058,3.297,2.351,4.404,1.293,1.107,1.959,3.558,1.48,5.447-.666,2.626-.229,3.18,1.857,2.355,1.525-.603,2.728-.213,2.728.885,0,1.081,1.894,2.707,4.208,3.615,5.148,2.018,5.171,3.089.193,8.916-3.309,3.873-4.946,4.452-10.659,3.772-7.759-.924-9.81,1.663-6.605,8.33,2.963,6.162,10.393,6.449,16.284.628,5.625-5.558,8.361-4.439,8.361,3.417,0,6.856,4.356,11.774,6.918,7.811,5.189-8.027,5.339-9.053,1.729-11.877-2.9-2.269-3.35-3.943-2.501-9.302.969-6.111,1.38-6.499,6.344-5.974,2.92.309,6.233,1.151,7.363,1.871,1.17.746,2.429.302,2.926-1.032,1.437-3.862,15.939-2.185,15.939,1.843,0,1.624-10.206,6.132-13.397,5.917-1.35-.091-3.898.631-5.66,1.604-2.589,1.429-3.014,3.005-2.209,8.197.79,5.096.12,7.759-3.238,12.855-5.28,8.013-10.951,8.519-17.326,1.544-3.778-4.133-5.515-4.776-11.313-4.188-5.54.562-7.861-.183-12.139-3.895-4.283-3.717-5.921-4.241-8.611-2.757-5.317,2.935-13.562,2.129-18.988-1.855-4.184-3.073-5.716-3.362-9.177-1.736-5.662,2.661-9.959,2.452-16.013-.776-4.652-2.481-5.623-2.481-10.692,0-6.604,3.232-10.982,3.434-16.652.77-3.494-1.642-4.906-1.361-8.723,1.736-4.594,3.727-12.178,4.607-18.326,2.126-2.268-.915-5.133-.029-9.258,2.862-4.352,3.049-7.575,3.986-11.866,3.446-4.676-.588-7.033.28-11.421,4.205-7.987,7.144-12.722,6.529-17.837-2.316h.002ZM1748.646,1069.097c1.28-2.467,1.28-4.477,0-6.944-3.18-6.128-13.467-3.475-13.467,3.472s10.287,9.6,13.467,3.472ZM1862.778,1070.486c2.954-3.047,2.471-7.374-1.207-10.806-2.574-2.403-3.936-2.62-6.733-1.076-6.066,3.348-3.613,13.965,3.227,13.965,1.481,0,3.602-.937,4.713-2.083h0ZM1804.484,1064.488c5.258-4.907,2.876-12.752-3.871-12.752-3.104,0-8.2,4.392-8.2,7.068,0,1.848,6.165,8.556,7.863,8.556.621,0,2.515-1.293,4.208-2.873h0Z"/>
          <path class="cls-27" d="M1701.336,1100.928c-2.544-4.245-3.689-8.595-3.434-13.047.374-6.542-.675-7.939-6.78-9.027-4.776-.851-14.861-5.307-14.861-6.566,0-4.507,14.189-5.468,16.953-1.148.528.826,4.058.375,7.844-1.003,3.786-1.378,7.33-2.043,7.877-1.48.547.564.994,3.975.994,7.581,0,4.712-1.004,7.282-3.568,9.134l-3.568,2.577,3.732,5.405c2.982,4.318,4.207,4.999,6.093,3.385,1.298-1.111,2.361-4.613,2.361-7.782,0-7.809,2.452-8.805,8.58-3.486,6.22,5.398,10.473,5.647,15.09.886,5.579-5.753,3.634-9.359-5.375-9.962-5.717-.383-8.822-1.68-11.769-4.914-3.965-4.353-3.971-4.416-.636-6.799,1.852-1.323,4.282-3.213,5.4-4.2,1.118-.987,2.823-1.795,3.788-1.795s1.754-1.199,1.754-2.665c0-2.138,2.435-7.186,6.141-12.728.771-1.154,10.505,7.539,10.6,9.467.051,1.037,3.249,2.013,7.106,2.169,3.857.156,7.351.632,7.764,1.058s.072,3.747-.757,7.38c-1.206,5.282-2.576,6.965-6.841,8.401-7.454,2.511-8.028,3.553-4.778,8.668,2.255,3.549,3.988,4.383,8.224,3.96,4.304-.43,5.978-1.825,8.452-7.046,1.697-3.581,3.638-6.51,4.314-6.51s3.407,2.344,6.068,5.208c5.595,6.023,10.84,6.649,15.093,1.801,4.342-4.948,2.179-8.745-4.982-8.745-4.772,0-6.298-.846-7.524-4.172-.846-2.294-2.342-4.684-3.325-5.311-2.907-1.853-2.038-6.143,1.244-6.143,4.287,0,12.09-3.987,12.106-6.185.007-1.015,2.305-4.11,5.107-6.878l5.094-5.033,4.165,4.632c2.291,2.548,4.165,5.838,4.165,7.312,0,1.495,1.444,2.68,3.267,2.68,1.797,0,3.736.781,4.308,1.736.572.955,2.511,1.736,4.308,1.736,3.935,0,4.026,1.176.72,9.336-2.391,5.902-3.011,6.288-10.1,6.288-8.54,0-9.889,2.798-4.186,8.68,4.68,4.826,8.661,4.343,14.308-1.736,2.661-2.864,5.493-5.208,6.293-5.208s2.524,2.64,3.831,5.866c3.709,9.155,12.32,10.993,17,3.629,3.183-5.011,2.589-6.062-4.843-8.566-4.265-1.437-5.634-3.119-6.841-8.401-.83-3.633-1.17-6.953-.757-7.38s3.907-.902,7.764-1.058c4.592-.186,7.013-1.084,7.013-2.603,0-1.276,1.16-2.319,2.578-2.319s3.014-1.172,3.547-2.604c1.216-3.267,7.342-3.445,7.342-.213,0,1.315,1.091,3.326,2.425,4.467,1.334,1.142,2.01,3.19,1.503,4.553-.507,1.362-.051,2.477,1.013,2.477s2.849.808,3.968,1.795c1.118.987,3.498,2.839,5.287,4.116,3.18,2.268,3.161,2.441-.842,7.644-3.462,4.5-5.138,5.273-10.83,4.999-5.704-.275-6.812.239-7.244,3.365-.605,4.373,3.687,9.331,8.077,9.331,1.715,0,5.433-2.009,8.262-4.465,6.129-5.318,8.58-4.322,8.58,3.486,0,7.479,3.565,10.817,7.064,6.614,5.037-6.049,5.3-7.774,1.625-10.649-2.945-2.304-3.395-3.958-2.543-9.335.969-6.111,1.38-6.499,6.344-5.974,2.92.309,6.233,1.151,7.363,1.871,1.162.741,2.423.319,2.904-.971,1.58-4.241,15.96-2.581,15.96,1.842,0,1.92-8.241,5.741-14.02,6.5-7.298.959-8.316,2.254-7.238,9.209.781,5.036.099,7.726-3.246,12.802-5.23,7.938-10.816,8.469-17.402,1.653-3.734-3.865-5.873-4.677-11.233-4.264-4.947.381-8.064-.589-12.327-3.837-4.305-3.279-6.449-3.937-8.727-2.68-5.17,2.853-14.301,1.885-19.126-2.028-3.817-3.097-5.229-3.378-8.723-1.736-5.951,2.796-10.831,2.421-16.728-1.289-5.018-3.156-5.238-3.156-9.024.006-4.374,3.653-11.448,4.182-17.553,1.313-3.43-1.612-4.947-1.285-9.242,1.99-4.329,3.301-6.484,3.754-13.682,2.874-6.802-.831-9.719-.329-14.304,2.462-3.734,2.272-7.977,3.314-12.061,2.96-5.042-.436-7.222.409-10.911,4.229-6.575,6.808-12.108,6.284-16.828-1.594h-.001ZM1746.29,1071.246c2.838-1.954,3.75-6.153,2.07-9.522-2.07-4.15-9.259-3.879-11.497.434-3.428,6.605,3.431,13.218,9.427,9.088h0ZM1863.78,1068.669c2.535-4.171-.557-8.956-6.243-9.658-3.531-.436-4.616.34-5.489,3.929-2.065,8.485,7.283,13.05,11.732,5.729h0ZM1806.95,1061.313c1.308-3.515-2.434-9.571-5.915-9.571-5.013,0-9.222,6.01-7.089,10.121.989,1.906,2.754,3.818,3.922,4.25,2.724,1.007,7.948-1.755,9.082-4.8h0Z"/>
          <path class="cls-27" d="M1701.336,1100.928c-2.544-4.245-3.689-8.595-3.434-13.047.374-6.542-.675-7.939-6.78-9.027-4.776-.851-14.861-5.307-14.861-6.566,0-4.507,14.189-5.468,16.953-1.148.528.826,4.058.375,7.844-1.003,3.786-1.378,7.33-2.043,7.877-1.48.547.564.994,3.975.994,7.581,0,4.712-1.004,7.282-3.568,9.134l-3.568,2.577,3.732,5.405c2.982,4.318,4.207,4.999,6.093,3.385,1.298-1.111,2.361-4.613,2.361-7.782,0-7.809,2.452-8.805,8.58-3.486,6.22,5.398,10.473,5.647,15.09.886,5.579-5.753,3.634-9.359-5.375-9.962-5.717-.383-8.822-1.68-11.769-4.914-3.965-4.353-3.971-4.416-.636-6.799,1.852-1.323,4.282-3.213,5.4-4.2,1.118-.987,2.823-1.795,3.788-1.795s1.754-1.199,1.754-2.665c0-2.138,2.435-7.186,6.141-12.728.771-1.154,10.505,7.539,10.6,9.467.051,1.037,3.249,2.013,7.106,2.169,3.857.156,7.351.632,7.764,1.058s.072,3.747-.757,7.38c-1.206,5.282-2.576,6.965-6.841,8.401-7.454,2.511-8.028,3.553-4.778,8.668,2.255,3.549,3.988,4.383,8.224,3.96,4.304-.43,5.978-1.825,8.452-7.046,1.697-3.581,3.638-6.51,4.314-6.51s3.407,2.344,6.068,5.208c5.595,6.023,10.84,6.649,15.093,1.801,4.342-4.948,2.179-8.745-4.982-8.745-4.772,0-6.298-.846-7.524-4.172-.846-2.294-2.342-4.684-3.325-5.311-2.907-1.853-2.038-6.143,1.244-6.143,4.287,0,12.09-3.987,12.106-6.185.007-1.015,2.305-4.11,5.107-6.878l5.094-5.033,4.165,4.632c2.291,2.548,4.165,5.838,4.165,7.312,0,1.495,1.444,2.68,3.267,2.68,1.797,0,3.736.781,4.308,1.736.572.955,2.511,1.736,4.308,1.736,3.935,0,4.026,1.176.72,9.336-2.391,5.902-3.011,6.288-10.1,6.288-8.54,0-9.889,2.798-4.186,8.68,4.68,4.826,8.661,4.343,14.308-1.736,2.661-2.864,5.493-5.208,6.293-5.208s2.524,2.64,3.831,5.866c3.709,9.155,12.32,10.993,17,3.629,3.183-5.011,2.589-6.062-4.843-8.566-4.265-1.437-5.634-3.119-6.841-8.401-.83-3.633-1.17-6.953-.757-7.38s3.907-.902,7.764-1.058c4.592-.186,7.013-1.084,7.013-2.603,0-1.276,1.16-2.319,2.578-2.319s3.014-1.172,3.547-2.604c1.216-3.267,7.342-3.445,7.342-.213,0,1.315,1.091,3.326,2.425,4.467,1.334,1.142,2.01,3.19,1.503,4.553-.507,1.362-.051,2.477,1.013,2.477s2.849.808,3.968,1.795c1.118.987,3.498,2.839,5.287,4.116,3.18,2.268,3.161,2.441-.842,7.644-3.462,4.5-5.138,5.273-10.83,4.999-5.704-.275-6.812.239-7.244,3.365-.605,4.373,3.687,9.331,8.077,9.331,1.715,0,5.433-2.009,8.262-4.465,6.129-5.318,8.58-4.322,8.58,3.486,0,7.479,3.565,10.817,7.064,6.614,5.037-6.049,5.3-7.774,1.625-10.649-2.945-2.304-3.395-3.958-2.543-9.335.969-6.111,1.38-6.499,6.344-5.974,2.92.309,6.233,1.151,7.363,1.871,1.162.741,2.423.319,2.904-.971,1.58-4.241,15.96-2.581,15.96,1.842,0,1.92-8.241,5.741-14.02,6.5-7.298.959-8.316,2.254-7.238,9.209.781,5.036.099,7.726-3.246,12.802-5.23,7.938-10.816,8.469-17.402,1.653-3.734-3.865-5.873-4.677-11.233-4.264-4.947.381-8.064-.589-12.327-3.837-4.305-3.279-6.449-3.937-8.727-2.68-5.17,2.853-14.301,1.885-19.126-2.028-3.817-3.097-5.229-3.378-8.723-1.736-5.951,2.796-10.831,2.421-16.728-1.289-5.018-3.156-5.238-3.156-9.024.006-4.374,3.653-11.448,4.182-17.553,1.313-3.43-1.612-4.947-1.285-9.242,1.99-4.329,3.301-6.484,3.754-13.682,2.874-6.802-.831-9.719-.329-14.304,2.462-3.734,2.272-7.977,3.314-12.061,2.96-5.042-.436-7.222.409-10.911,4.229-6.575,6.808-12.108,6.284-16.828-1.594h-.001ZM1746.29,1071.246c2.838-1.954,3.75-6.153,2.07-9.522-2.07-4.15-9.259-3.879-11.497.434-3.428,6.605,3.431,13.218,9.427,9.088h0ZM1863.78,1068.669c2.535-4.171-.557-8.956-6.243-9.658-3.531-.436-4.616.34-5.489,3.929-2.065,8.485,7.283,13.05,11.732,5.729h0ZM1806.95,1061.313c1.308-3.515-2.434-9.571-5.915-9.571-5.013,0-9.222,6.01-7.089,10.121.989,1.906,2.754,3.818,3.922,4.25,2.724,1.007,7.948-1.755,9.082-4.8h0Z"/>
          <path class="cls-27" d="M1701.336,1100.928c-2.544-4.245-3.689-8.595-3.434-13.047.374-6.542-.675-7.939-6.78-9.027-4.776-.851-14.861-5.307-14.861-6.566,0-4.507,14.189-5.468,16.953-1.148.528.826,4.058.375,7.844-1.003,3.786-1.378,7.33-2.043,7.877-1.48.547.564.994,3.975.994,7.581,0,4.712-1.004,7.282-3.568,9.134l-3.568,2.577,3.732,5.405c2.982,4.318,4.207,4.999,6.093,3.385,1.298-1.111,2.361-4.613,2.361-7.782,0-7.809,2.452-8.805,8.58-3.486,6.22,5.398,10.473,5.647,15.09.886,5.579-5.753,3.634-9.359-5.375-9.962-5.717-.383-8.822-1.68-11.769-4.914-3.965-4.353-3.971-4.416-.636-6.799,1.852-1.323,4.282-3.213,5.4-4.2,1.118-.987,2.823-1.795,3.788-1.795s1.754-1.199,1.754-2.665c0-2.138,2.435-7.186,6.141-12.728.771-1.154,10.505,7.539,10.6,9.467.051,1.037,3.249,2.013,7.106,2.169,3.857.156,7.351.632,7.764,1.058s.072,3.747-.757,7.38c-1.206,5.282-2.576,6.965-6.841,8.401-7.454,2.511-8.028,3.553-4.778,8.668,2.255,3.549,3.988,4.383,8.224,3.96,4.304-.43,5.978-1.825,8.452-7.046,1.697-3.581,3.638-6.51,4.314-6.51s3.407,2.344,6.068,5.208c5.595,6.023,10.84,6.649,15.093,1.801,4.342-4.948,2.179-8.745-4.982-8.745-4.772,0-6.298-.846-7.524-4.172-.846-2.294-2.342-4.684-3.325-5.311-2.907-1.853-2.038-6.143,1.244-6.143,4.287,0,12.09-3.987,12.106-6.185.007-1.015,2.305-4.11,5.107-6.878l5.094-5.033,4.165,4.632c2.291,2.548,4.165,5.838,4.165,7.312,0,1.495,1.444,2.68,3.267,2.68,1.797,0,3.736.781,4.308,1.736.572.955,2.511,1.736,4.308,1.736,3.935,0,4.026,1.176.72,9.336-2.391,5.902-3.011,6.288-10.1,6.288-8.54,0-9.889,2.798-4.186,8.68,4.68,4.826,8.661,4.343,14.308-1.736,2.661-2.864,5.493-5.208,6.293-5.208s2.524,2.64,3.831,5.866c3.709,9.155,12.32,10.993,17,3.629,3.183-5.011,2.589-6.062-4.843-8.566-4.265-1.437-5.634-3.119-6.841-8.401-.83-3.633-1.17-6.953-.757-7.38s3.907-.902,7.764-1.058c4.592-.186,7.013-1.084,7.013-2.603,0-1.276,1.16-2.319,2.578-2.319s3.014-1.172,3.547-2.604c1.216-3.267,7.342-3.445,7.342-.213,0,1.315,1.091,3.326,2.425,4.467,1.334,1.142,2.01,3.19,1.503,4.553-.507,1.362-.051,2.477,1.013,2.477s2.849.808,3.968,1.795c1.118.987,3.498,2.839,5.287,4.116,3.18,2.268,3.161,2.441-.842,7.644-3.462,4.5-5.138,5.273-10.83,4.999-5.704-.275-6.812.239-7.244,3.365-.605,4.373,3.687,9.331,8.077,9.331,1.715,0,5.433-2.009,8.262-4.465,6.129-5.318,8.58-4.322,8.58,3.486,0,7.479,3.565,10.817,7.064,6.614,5.037-6.049,5.3-7.774,1.625-10.649-2.945-2.304-3.395-3.958-2.543-9.335.969-6.111,1.38-6.499,6.344-5.974,2.92.309,6.233,1.151,7.363,1.871,1.162.741,2.423.319,2.904-.971,1.58-4.241,15.96-2.581,15.96,1.842,0,1.92-8.241,5.741-14.02,6.5-7.298.959-8.316,2.254-7.238,9.209.781,5.036.099,7.726-3.246,12.802-5.23,7.938-10.816,8.469-17.402,1.653-3.734-3.865-5.873-4.677-11.233-4.264-4.947.381-8.064-.589-12.327-3.837-4.305-3.279-6.449-3.937-8.727-2.68-5.17,2.853-14.301,1.885-19.126-2.028-3.817-3.097-5.229-3.378-8.723-1.736-5.951,2.796-10.831,2.421-16.728-1.289-5.018-3.156-5.238-3.156-9.024.006-4.374,3.653-11.448,4.182-17.553,1.313-3.43-1.612-4.947-1.285-9.242,1.99-4.329,3.301-6.484,3.754-13.682,2.874-6.802-.831-9.719-.329-14.304,2.462-3.734,2.272-7.977,3.314-12.061,2.96-5.042-.436-7.222.409-10.911,4.229-6.575,6.808-12.108,6.284-16.828-1.594h-.001ZM1746.29,1071.246c2.838-1.954,3.75-6.153,2.07-9.522-2.07-4.15-9.259-3.879-11.497.434-3.428,6.605,3.431,13.218,9.427,9.088h0ZM1863.78,1068.669c2.535-4.171-.557-8.956-6.243-9.658-3.531-.436-4.616.34-5.489,3.929-2.065,8.485,7.283,13.05,11.732,5.729h0ZM1806.95,1061.313c1.308-3.515-2.434-9.571-5.915-9.571-5.013,0-9.222,6.01-7.089,10.121.989,1.906,2.754,3.818,3.922,4.25,2.724,1.007,7.948-1.755,9.082-4.8h0Z"/>
          <path class="cls-27" d="M1705.908,1106.84c-1.416-1.048-7.147-9.753-8.283-12.581-.62-1.545-.567-2.044.438-4.075.63-1.273,1.145-3.34,1.145-4.593,0-4.268-4.767-8.029-9.11-7.188-1.48.286-2.663-.051-5.689-1.623-2.102-1.092-3.975-1.826-4.163-1.632s-.342.074-.342-.266-.807-.797-1.793-1.015-1.997-.521-2.248-.674c-.597-.364,1.718-2.899,3.541-3.878,1.562-.838,7.118-1.432,7.118-.761,0,.712,1.87.88,3.2.287,1.047-.467,1.482-.323,2.482.819.667.761,1.28,2.009,1.362,2.771.207,1.914.693,2.227,1.432.922,1.203-2.126,3.102-3.801,3.801-3.351,1.347.867,2.571.716,5.683-.704,1.737-.792,3.495-1.307,3.906-1.145.551.218.747,1.617.747,5.319,0,2.893.257,5.289.606,5.649,1.085,1.119-.06,2.953-3.538,5.67-1.876,1.466-3.51,2.743-3.63,2.837-.731.577,7.015,11.003,8.175,11.003.51,0,1.777-.904,2.815-2.009,1.838-1.956,1.895-2.159,2.176-7.7.311-6.13.632-6.762,3.443-6.778,1.182-.006,1.972.652,3.734,3.111,1.229,1.716,3.01,3.533,3.957,4.039,2.611,1.392,7.688,1.213,10.153-.358,3.182-2.028,4.092-4.091,4.094-9.282l.002-4.473-1.793.352c-.986.193-4.58.514-7.987.712-6.166.359-6.197.354-6.692-.998-.274-.747-.399-1.531-.28-1.742.255-.449-2.573-2.628-3.381-2.604-.659.019-1.911-2.33-1.922-3.608-.012-1.335,1.788-2.785,4.471-3.602,2.295-.699,2.831-1.214,3.469-3.333.262-.869.707-.962,3.073-.638,2.315.317,2.767.231,2.767-.526,0-.497-.318-1.21-.706-1.585-.389-.375-.615-1.488-.503-2.476.155-1.368.586-1.945,1.81-2.421,1.249-.486,1.609-.985,1.618-2.239.014-1.838,1.749-6.098,2.741-6.73.404-.257,1.663.583,3.229,2.154,1.412,1.417,3.56,3.047,4.773,3.623,1.979.94,2.222,1.282,2.363,3.322.256,3.705.454,3.932,2.27,2.599,1.902-1.397,2.981-1.486,3.916-.325.504.627,1.844.853,5.049.853,5.152,0,5.585.478,4.067,4.49-.545,1.441-1.011,3.068-1.035,3.615-.024.547-.25.995-.502.995s-.298.884-.101,1.964c.324,1.779.188,2.07-1.446,3.094-.992.622-2.753,1.296-3.914,1.499-1.161.202-2.245.59-2.408.862-.163.272-.665.349-1.116.17s-1.56-.009-2.464.378c-1.459.623-1.645.975-1.645,3.108,0,6.008,8.33,11.452,13.411,8.765,3.123-1.652,6.444-6.013,6.444-8.464,0-.657.379-1.949.841-2.872.683-1.362,1.197-1.678,2.727-1.678,1.596,0,2.25.451,4.26,2.935,5.297,6.546,7.725,7.93,11.886,6.774,4.086-1.135,7.909-5.735,6.936-8.349-.228-.612-.147-.84.214-.61.493.314,1.264-1.92,1.264-3.666,0-.274-2.941-.498-6.536-.498s-7.345-.291-8.333-.646c-1.654-.595-1.773-.8-1.493-2.578.266-1.689-.004-2.29-2.146-4.777-3.095-3.594-3.241-5.368-.537-6.533,1.052-.453,2.651-.824,3.552-.824s1.796-.26,1.986-.578c.191-.318.576-.432.858-.252.281.179.8-.329,1.154-1.128.754-1.706.742-1.704,3.775-.601,1.29.469,2.467.853,2.616.853s.101-1.638-.107-3.64c-.401-3.858-.134-4.43,2.117-4.547.755-.039,1.807-1.064,2.984-2.905,3.647-5.706,4.086-5.81,6.361-1.499,1.713,3.246,2.943,4.459,4.782,4.718,1.338.188,1.373.308,1.192,4.034-.103,2.112.021,3.83.276,3.819.254-.011,1.083-.386,1.842-.833,1.602-.944,3.861-1.111,3.861-.284,0,1.131,2.24,2.844,3.723,2.847,2.429.005,5.686,1.13,6.042,2.087.392,1.055-1.037,3.784-3.262,6.226-1.377,1.511-1.562,2.07-1.254,3.767.339,1.863.247,2.034-1.423,2.634-.982.353-4.726.642-8.321.642h-6.536l.005,2.133c.007,2.988,2.263,7.668,4.481,9.3,1.502,1.105,2.54,1.365,5.441,1.365,4.395,0,6.258-1.183,9.268-5.883,1.912-2.985,2.232-3.231,4.409-3.394,2.249-.168,2.386-.085,3.263,1.991.503,1.192.873,2.347.821,2.567-.209.891,2.051,5.372,3.319,6.581,2.847,2.714,8.513,3.225,11.4,1.029,3.363-2.559,6.238-7.974,5.411-10.195-.185-.497-1.641-1.111-3.522-1.483-8.344-1.653-10.309-2.795-9.753-5.664.217-1.121-.168-2.754-1.218-5.169-2.084-4.789-1.695-5.356,3.824-5.573,2.319-.091,4.216-.402,4.216-.691s.456-.776,1.013-1.084c.777-.429,1.484-.213,3.036.926,1.113.817,2.142,1.362,2.287,1.212.145-.15.037-1.087-.24-2.083-.277-.996-.29-1.811-.029-1.811s.554-.569.651-1.264c.136-.979.692-1.369,2.461-1.728,1.804-.366,2.583-.929,3.702-2.672,2.717-4.234,4.89-3.522,6.94,2.276.938,2.653,1.497,3.459,2.596,3.743,1.178.305,1.348.6,1.071,1.852-.181.819-.489,2.35-.684,3.402l-.354,1.913,2.287-.399c1.936-.337,2.336-.238,2.604.647.663,2.186,1.234,2.752,2.779,2.752.877,0,1.719.156,1.87.347.152.191,1.095.78,2.097,1.31,2.851,1.506,2.764,2.307-.652,5.999-2.121,2.293-3.1,3.814-3.1,4.816,0,1.344-.192,1.464-2.344,1.46-1.289-.002-4.697-.368-7.573-.814-5.836-.904-6.326-.743-6.871,2.252-.998,5.485,3.231,11.281,8.515,11.671,4.309.318,4.879.068,9.139-4.004,4.118-3.937,6.239-4.903,7.211-3.281.231.386.574,3.107.761,6.048.244,3.827.581,5.528,1.184,5.983.463.35.818.864.788,1.143-.03.279.637,1.04,1.482,1.691,1.183.911,1.754,1.044,2.482.578,1.083-.693,5.197-6.545,4.851-6.901-.126-.13.247-.727.828-1.326,1.623-1.674,1.31-2.463-2.007-5.046-3.77-2.936-4.693-4.672-3.316-6.241.76-.866.942-1.985.856-5.264-.06-2.29-.083-4.466-.05-4.835.065-.745,1.608-.384,5.25,1.23,1.446.641,2.798.832,4.1.58,1.768-.342,2.101-.18,3.714,1.8l1.772,2.176.613-2.349c.81-3.102,1.888-4.013,3.845-3.251.823.32,1.982.387,2.576.147,3.159-1.274,7.741-.195,10.593,2.495,1.668,1.573,1.563,2.11-.414,2.11-.91,0-1.655.271-1.655.602s-.24.45-.533.263c-.707-.451-4.88,1.738-6.741,3.536-1.11,1.072-1.838,1.343-2.896,1.075-.777-.197-2.035-.516-2.796-.709-2.067-.525-4.428.75-6.039,3.261-2.08,3.242-2.255,4.975-.842,8.363l1.216,2.916-1.686,3.081c-.927,1.694-1.534,3.237-1.348,3.429.186.191.089.348-.214.348s-1.51,1.434-2.68,3.187c-1.171,1.753-2.693,3.569-3.383,4.035-3.6,2.432-11.784-2.603-15.929-9.799-.515-.894-.783-.918-2.62-.233-1.125.42-2.046.917-2.046,1.104s-1.924.321-4.275.296c-5.56-.059-9.776-1.969-13.484-6.108l-2.603-2.905-3.47,1.939c-3.173,1.773-3.871,1.939-8.158,1.94-5.622.001-8.412-1.217-12.437-5.431l-2.591-2.713-3.834,2.066c-3.056,1.646-4.599,2.11-7.603,2.285-5.297.309-7.245-.47-14.624-5.843-.524-.382-1.375.059-2.955,1.532-5.97,5.562-13.155,6.2-20.102,1.784l-3.201-2.035-3.002,2.929c-1.651,1.611-4.397,3.587-6.101,4.392-4.239,2.002-8.938,1.698-14.022-.905l-3.565-1.825-3.209,3.212c-4.275,4.279-7.209,5.608-12.657,5.73-3.195.072-4.784-.167-6.252-.939-2.229-1.172-3.324-.963-3.846.734-.604,1.962-4.729,6.146-7.474,7.58-3.622,1.893-6.492,2.268-8.122,1.062h0ZM1746.496,1071.577c6.002-4.051,3.17-13.899-3.997-13.899-1.755,0-2.503.434-4.761,2.763-2.821,2.909-3.207,4.258-2.091,7.297.703,1.912,2.574,4.095,4.1,4.782,1.43.644,5.174.121,6.749-.942h0ZM1862.691,1070.791c.885-.913,1.658-2.125,1.719-2.694.06-.569.313-1.531.561-2.138.279-.681.225-1.181-.141-1.307-.326-.112-.465-.703-.311-1.314.196-.771-.392-1.806-1.924-3.386-1.881-1.94-2.551-2.275-4.55-2.275-7.824,0-10.389,9.937-3.685,14.279,2.48,1.606,6.14,1.094,8.33-1.165h0ZM1803.1,1065.994c2.754-1.187,4.056-3.256,4.128-6.561.071-3.234-1.248-5.334-4.473-7.126-3.994-2.218-8.817.699-9.555,5.78-.254,1.749-.181,2.735.213,2.87.33.113.481.527.335.919-.341.915,1.784,3.713,3.299,4.344,1.757.732,4.025.647,6.054-.227h0Z"/>
          <path class="cls-27" d="M1705.908,1106.84c-1.416-1.048-7.147-9.753-8.283-12.581-.62-1.545-.567-2.044.438-4.075.63-1.273,1.145-3.34,1.145-4.593,0-4.268-4.767-8.029-9.112-7.188-1.447.28-2.609-.023-5.137-1.339-1.797-.936-3.421-1.542-3.61-1.348s-.342.074-.342-.267-.931-.915-2.068-1.276c-1.138-.361-2.416-.771-2.84-.912-.963-.319,1.117-2.771,3.382-3.987,1.622-.87,7.042-1.433,7.042-.731,0,.721,1.861.893,3.2.297,1.047-.467,1.482-.323,2.482.819.667.761,1.28,2.009,1.362,2.771.207,1.914.693,2.227,1.432.922,1.321-2.336,3.165-3.899,3.811-3.232.931.96,2.146.785,5.649-.813,1.75-.798,3.518-1.318,3.929-1.155.551.218.747,1.617.747,5.319,0,2.893.257,5.289.606,5.649,1.085,1.119-.06,2.953-3.538,5.67-1.876,1.466-3.51,2.743-3.63,2.837-.731.577,7.015,11.003,8.175,11.003.51,0,1.777-.904,2.815-2.009,1.838-1.956,1.895-2.159,2.176-7.7.311-6.13.632-6.762,3.443-6.778,1.182-.006,1.972.652,3.734,3.111,2.776,3.876,4.627,4.898,8.902,4.92,2.665.013,3.749-.274,5.472-1.449,2.915-1.989,3.67-3.798,3.792-9.077l.103-4.478-1.823.356c-1.003.196-4.611.519-8.018.717-6.166.359-6.197.354-6.692-.998-.274-.747-.399-1.531-.28-1.742s-.53-.932-1.444-1.603c-.914-.671-1.661-1.056-1.661-.856,0,.992-1.711-1.571-1.982-2.968-.39-2.009.936-3.377,4.254-4.387,2.295-.699,2.831-1.214,3.469-3.333.262-.869.707-.962,3.073-.638,2.315.317,2.767.231,2.767-.526,0-.497-.318-1.21-.706-1.585-.389-.375-.615-1.488-.503-2.476.155-1.368.586-1.945,1.81-2.421,1.249-.486,1.609-.985,1.618-2.239.014-1.838,1.749-6.098,2.741-6.73.404-.257,1.663.583,3.229,2.154,1.412,1.417,3.56,3.047,4.773,3.623,1.979.94,2.222,1.282,2.363,3.322.256,3.705.454,3.932,2.27,2.599,1.902-1.397,2.981-1.486,3.916-.325.504.627,1.844.853,5.049.853,5.152,0,5.585.478,4.067,4.49-.545,1.441-1.011,3.068-1.035,3.615-.024.547-.25.995-.502.995s-.298.884-.101,1.964c.322,1.769.184,2.072-1.388,3.058-.96.602-3.281,1.406-5.158,1.786-5.987,1.213-6.447,1.517-6.447,4.268,0,6.008,8.33,11.452,13.411,8.765,3.123-1.652,6.444-6.013,6.444-8.464,0-.657.379-1.949.841-2.872.683-1.362,1.197-1.678,2.727-1.678,1.596,0,2.25.451,4.26,2.935,5.309,6.561,7.722,7.931,11.918,6.765,3.665-1.018,5.981-3.509,7.273-7.822,1.685-5.627,2.03-5.29-5.427-5.29-3.595,0-7.345-.291-8.333-.646-1.654-.595-1.773-.8-1.493-2.578.266-1.689-.004-2.29-2.146-4.777-4.044-4.696-3.104-6.587,3.784-7.611,2.07-.308,2.783-.696,3.26-1.776.712-1.612,1.252-1.685,3.934-.529,1.089.469,2.141.853,2.338.853s.188-1.638-.02-3.64c-.401-3.858-.134-4.43,2.117-4.547.755-.039,1.807-1.064,2.984-2.905,3.647-5.706,4.086-5.81,6.361-1.499,1.713,3.246,2.943,4.459,4.782,4.718,1.338.188,1.373.308,1.192,4.034-.103,2.112.021,3.83.276,3.819.254-.011,1.083-.386,1.842-.833,2.082-1.227,3.6-1.044,4.29.519.656,1.485,1.267,1.758,5.149,2.3,5.12.715,5.539,2.658,1.575,7.303-1.977,2.316-2.205,2.867-1.895,4.572.328,1.801.225,1.985-1.432,2.581-.982.353-4.726.642-8.321.642h-6.536l.005,2.133c.007,2.988,2.263,7.668,4.481,9.3,1.502,1.105,2.54,1.365,5.441,1.365,4.395,0,6.258-1.183,9.268-5.883,1.912-2.985,2.232-3.231,4.409-3.394,2.249-.168,2.386-.085,3.263,1.991.503,1.192.873,2.347.821,2.567-.209.891,2.051,5.372,3.319,6.581,2.847,2.714,8.513,3.225,11.4,1.029,3.363-2.559,6.238-7.974,5.411-10.195-.185-.497-1.641-1.111-3.522-1.483-8.344-1.653-10.309-2.795-9.753-5.664.217-1.121-.168-2.754-1.218-5.169-2.084-4.789-1.695-5.356,3.824-5.573,2.319-.091,4.216-.402,4.216-.691s.456-.776,1.013-1.084c.777-.429,1.484-.213,3.036.926,1.113.817,2.142,1.362,2.287,1.212.145-.15.037-1.087-.24-2.083-.277-.996-.29-1.811-.029-1.811s.554-.573.651-1.274c.105-.757.624-1.343,1.279-1.444,2.884-.445,3.525-.829,4.863-2.915,2.738-4.266,4.905-3.567,6.96,2.245.938,2.653,1.497,3.459,2.596,3.743,1.178.305,1.348.6,1.071,1.852-.181.819-.489,2.35-.684,3.402l-.354,1.913,2.287-.399c1.936-.337,2.336-.238,2.604.647.663,2.186,1.234,2.752,2.779,2.752.877,0,1.719.156,1.87.347.152.191,1.095.78,2.097,1.31,2.85,1.506,2.79,2.363-.403,5.697-2.61,2.725-3.18,3.738-3.306,5.871-.056.946-3.392.91-9.96-.107-5.836-.904-6.326-.743-6.871,2.252-.998,5.485,3.231,11.281,8.515,11.671,4.309.318,4.879.068,9.139-4.004,4.118-3.937,6.239-4.903,7.211-3.281.231.386.57,3.048.753,5.916.286,4.489.54,5.495,1.818,7.224,1.878,2.539,3.417,3.087,4.867,1.734,1.274-1.189,5.995-8.847,5.995-9.724,0-.327-1.379-1.669-3.064-2.981-3.77-2.936-4.693-4.672-3.316-6.241.76-.866.942-1.985.856-5.264-.06-2.29-.083-4.466-.05-4.835.065-.745,1.608-.384,5.25,1.23,1.446.641,2.798.832,4.1.58,1.768-.342,2.101-.18,3.714,1.8l1.772,2.176.613-2.349c.81-3.102,1.888-4.013,3.845-3.251.823.32,1.982.387,2.576.147,3.252-1.312,8.512.052,10.957,2.841,1.267,1.445,1.181,1.561-1.485,1.994-2.563.416-6.925,2.643-8.341,4.259-1.198,1.368-2.013,1.467-4.48.547-3.499-1.305-7.271,1.201-8.577,5.697-.625,2.15-.569,2.703.552,5.493l1.247,3.102-1.952,3.6c-3.01,5.55-6.797,10.564-8.268,10.945-3.454.894-10.377-3.205-13.521-8.006-2.014-3.075-2.089-3.094-6.695-1.693-5.899,1.794-12.567-.347-17.208-5.526l-2.603-2.905-3.47,1.939c-3.173,1.773-3.871,1.939-8.158,1.94-5.622.001-8.412-1.217-12.437-5.431l-2.591-2.713-3.834,2.066c-3.056,1.646-4.599,2.11-7.603,2.285-5.297.309-7.245-.47-14.624-5.843-.524-.382-1.375.059-2.955,1.532-5.97,5.562-13.155,6.2-20.102,1.784l-3.201-2.035-3.002,2.929c-1.651,1.611-4.397,3.587-6.101,4.392-4.239,2.002-8.938,1.698-14.022-.905l-3.565-1.825-3.209,3.212c-4.275,4.279-7.209,5.608-12.657,5.73-3.195.072-4.784-.167-6.252-.939-2.229-1.172-3.324-.963-3.846.734-.604,1.962-4.729,6.146-7.474,7.58-3.622,1.893-6.492,2.268-8.122,1.062h.002ZM1746.496,1071.577c6.002-4.051,3.17-13.899-3.997-13.899-1.755,0-2.503.434-4.761,2.763-2.821,2.909-3.207,4.258-2.091,7.297.703,1.912,2.574,4.095,4.1,4.782,1.43.644,5.174.121,6.749-.942h0ZM1862.691,1070.791c.885-.913,1.658-2.125,1.719-2.694.06-.569.313-1.531.561-2.138.279-.681.225-1.181-.141-1.307-.326-.112-.465-.703-.311-1.314.196-.771-.392-1.806-1.924-3.386-1.881-1.94-2.551-2.275-4.55-2.275-7.824,0-10.389,9.937-3.685,14.279,2.48,1.606,6.14,1.094,8.33-1.165h0ZM1803.055,1066.004c2.897-1.264,3.926-2.891,4.069-6.433.116-2.871-.029-3.311-1.635-4.953-3.705-3.788-7.157-4.088-10.258-.89-1.759,1.814-3.017,6.818-1.819,7.23.33.113.481.527.335.919-.341.915,1.784,3.713,3.299,4.344,1.752.73,4.026.648,6.009-.217h0Z"/>
        </g>
        <g>
          <path class="cls-26" d="M1754.774,1277.615c-3.777-4.316-6.845-7.87-6.819-7.898.105-.109,12.16,13.243,13.567,15.027.344.436.419.721.19.719-.039,0-3.161-3.532-6.938-7.849h0Z"/>
          <path class="cls-26" d="M1705.099,1148.877c29.22-.018,76.998-.018,106.171,0,29.175.018,5.267.033-53.128.033s-82.264-.015-53.044-.033h.001Z"/>
          <path class="cls-26" d="M1704.965,1148.224c29.214-.018,77.02-.018,106.233,0,29.214.018,5.312.033-53.117.033s-82.331-.015-53.117-.033h.002Z"/>
        </g>
        <path class="cls-18" d="M1947.275,1222.173c.017-6.798.07-21.6.117-32.892l.086-20.534.018,32.892c.014,26.249-.009,32.892-.117,32.892-.108,0-.129-2.529-.104-12.36h0Z"/>
      </g>
    </g>
  </g>
</svg>