<?xml version="1.0" encoding="UTF-8"?>
<svg xmlns="http://www.w3.org/2000/svg" viewBox="0 0 3600.1 2401.738">
  <defs>
    <style>
      .cls-1 {
        fill: #0038b8;
      }

      .cls-1, .cls-2 {
        stroke-width: 0px;
      }

      .cls-2 {
        fill: #eee;
        fill-rule: evenodd;
      }
    </style>
  </defs>
  <g id="background">
    <path id="il" class="cls-2" d="M400,.1h2800c220,0,400,180,400,400v1600c0,220-180,400-400,400H400C180,2400.1,0,2220.1,0,2000.1V400.1C0,180.1,180,.1,400,.1Z"/>
  </g>
  <g id="country">
    <g id="il-2" data-name="il">
      <g>
        <path class="cls-1" d="M0,2000.1C0,2062.757,14.607,2122.166,40.574,2175.1h3518.853c25.967-52.934,40.574-112.343,40.574-175v-200H0v200Z"/>
        <path class="cls-1" d="M40.574,225.1C14.607,278.034,0,337.443,0,400.1v200h3600v-200c0-62.657-14.607-122.066-40.574-175H40.574Z"/>
      </g>
      <path class="cls-1" d="M1800,1719.715l-149.999-259.807h-300l150-259.809-150-259.809h300l149.999-259.807,149.999,259.807h300l-150,259.809,150,259.809h-300l-149.999,259.807ZM1745.264,1459.909l54.736,94.807,54.736-94.807h-109.473ZM1997.63,1377.409h109.475l-54.737-94.809-54.737,94.809ZM1697.633,1377.409h204.734l102.369-177.309-102.369-177.309h-204.734l-102.369,177.309,102.369,177.309ZM1492.895,1377.409h109.475l-54.737-94.809-54.738,94.809ZM1997.63,1022.791l54.737,94.809,54.737-94.809h-109.475ZM1492.895,1022.791l54.738,94.809,54.737-94.809h-109.475ZM1745.264,940.291h109.472l-54.736-94.806-54.736,94.806Z"/>
    </g>
  </g>
</svg>