<?xml version="1.0" encoding="UTF-8"?>
<svg xmlns="http://www.w3.org/2000/svg" viewBox="0 0 3600.1 2401.738">
  <defs>
    <style>
      .cls-1, .cls-2 {
        stroke-width: 10.372px;
      }

      .cls-1, .cls-2, .cls-3, .cls-4, .cls-5 {
        stroke: #000;
        stroke-miterlimit: 8;
      }

      .cls-1, .cls-2, .cls-5, .cls-6, .cls-7 {
        fill-rule: evenodd;
      }

      .cls-1, .cls-5, .cls-6 {
        fill: #f9dd16;
      }

      .cls-2 {
        fill: #fff;
      }

      .cls-3 {
        stroke-width: 9.016px;
      }

      .cls-3, .cls-4 {
        fill: none;
      }

      .cls-4, .cls-5 {
        stroke-width: 7.979px;
      }

      .cls-6, .cls-7 {
        stroke-width: 0px;
      }

      .cls-7 {
        fill: #cf1b2b;
      }
    </style>
  </defs>
  <g id="background">
    <path id="im" class="cls-7" d="M400,.1h2800c220,0,400,180,400,400v1600c0,220-180,400-400,400H400C180,2400.1,0,2220.1,0,2000.1V400.1C0,180.1,180,.1,400,.1Z"/>
  </g>
  <g id="country">
    <g id="im-2" data-name="im">
      <g>
        <path class="cls-5" d="M1182.959,885.632c1.741,1.817,22.635,14.666,22.999,13.956s54.693-13.466,54.33-12.756-30.439,37.107-29.041,37.842c1.39.739,31.428,37.348,32.13,37.72.693.363-56.882-4.821-56.882-4.821l-38.083,31.259-8.531-40.572s-47.903-17.206-48.604-17.573c-.693-.368,40.999-14.396,40.999-14.396l12.448-33.093s16.124,3.114,18.237,2.434Z"/>
        <path class="cls-2" d="M1888.732,963.628c.114-33.722-66.592-186.292-77.573-209.751-20.434-25.458-42.051-65.768-51.342-100.584-6.021-35.146-24.904-62.708-51.524-72.055-30.718-16.234-60.722-9.87-89.599-7.369-14.159,2.992-26.273,10.606-33.114,21.824-15.592,22.2-24.072,20.51-34.855,30.08-88.792,13.77-172.754,59.379-236.637,90.465-33.828,23.379-62.539,36.951-75.845,39.811-36.063.127-62.294-16.88-74.823-25.927l-122.527-110.915c-35.404-26.303-44.159,11.666-37.361,17.468,11.818,25.284-13.77,40.677,83.392,131.784l36.803,75.266s-2.041,20.582-.334,21.465c17.742,42.068,45.921,31.585,59.222,19.783l28.868-26.176s57.207-18.025,58.099-19.728c61.348,9.089,219.427-20.89,245.493-33.203,23.493-13.094,24.989-2.003,45.342-18.503,17.011-11.21,7.656-2.29,39.089-30.883,9.676-8.282,17.328,5.134,19.132,14.514,1.753,88.825,12.685,145.585,20.818,234.156l133.686,68.189,115.589-109.711Z"/>
        <path class="cls-6" d="M1119.668,692.225c1.31,1.082-23.637,76.889-23.637,76.889,0,0-22.986-21.406-22.792-21.756l16.099-79.652,30.33,24.52Z"/>
        <path class="cls-3" d="M1119.718,690.134c-1.107,5.176-5.814,28.255-8.003,34.563-1.857,6.938-3.422,13.951-4.69,21.021-2.248,7.644-3.224,12.642-5.725,20.501-.794,6.735-2.256,13.052-4.031,19.796M1081.859,655.03c.494.989,2.286,7.939,2.552,12.418-.845,4.69-2.193,21.507-4.052,27.19-1.501,6.292-2.713,12.649-3.63,19.052-1.855,6.908-2.582,11.442-4.673,18.537-.473,6.131-1.618,11.856-3.042,17.953"/>
        <path class="cls-4" d="M1470.423,646.579c28.699,32.269,37.597,84.718,32.4,114.085M1362.19,836.23l.477-1.006c-1.492,3.148-.338,1.352-3.156-5.628-2.992-3.617-5.091-21.199-.494-30.917,1.762-4.948,4.715-12.414,6.938-17.108.634-1.339,2.425-2.662,3.059-4.006M1157.746,726.861l-.503,1.031-2.007,4.12c-2.603,5.345-6.11,10.213-8.497,14.928-2.514,5.155-6.393,9.549-8.907,14.704-3.224,4.821-6.055,11.214-9.393,16.196-3.131,5.932-6.608,10.158-9.668,16.437-2.649,4.965-4.77,7.255-7.504,12.866l7.504-12.866c-2.649,4.965-4.77,7.255-7.504,12.866M1053.266,629.678c.541.946,2.632,7.517,3.072,11.721-.693,4.369-1.449,20.083-3.135,25.348-1.306,5.854-2.311,11.772-3.008,17.73-1.639,6.414-2.214,10.639-4.086,17.21-.262,5.738-1.217,11.062-2.447,16.724M1178.873,816.345c-6.951-7.022-11.037-4.453-15.503-4.775-4.948.849-13.948,4.825-23.075,13.644-3.33,3.494-6.135,6.059-10.546,9.828-1.982,2.962-3.617,4.09-5.806,5.903M1682.041,575.225l-.351.993c1.103-3.123.304-1.352,1.301,6.051,1.314,5.108,1.475,8.658,2.924,13.606M1576.483,604.325c-.38.668-1.331,73.301,1.944,82.665.972,5.992,2.738,11.02,3.651,18.177.009,4.318,1.107,7.935,1.445,12.131,2.675,4.635,3.241,9.292,5.979,13.018,1.34,5.125,5.81,5.332,8.21,10.116,3.351,3.317,8.848,9.161,12.148,11.78M1529.577,802.917c-2.311-.748-8.248-5.231-13.318-7.631-5.717-3.076-19.813-19.111-20.484-30.397"/>
        <path class="cls-4" d="M1580.282,697.283c-.173.334-7.538,7.568-19.589,19.787-15.418,14.239-57.363,38.738-62.408,40.711-4.83,2.18-10.863,7.437-15.634,8.176-5.485,2.18-10.944,3.03-16.137,4.263-6.325,1.335-11.692,2.485-16.61,2.751-14.738,6.401-92.442,3.908-96.452,3.042-4.523-.058-9.042-.293-13.546-.706-3.693.883-8.07.516-13.069.803-6.034-.49-9.503.668-14.582,1.284-4.006,2.104-10.665,4.285-15.173,7.285-6.173,2.489-9.925,5.886-14.18,7.8-4.437,3.651-64.893,38.848-67.821,40.42-6.342,2.789-29.125,9.541-34.83-6.439-1.466-6.287-4.369-12.765-4.546-17.577-1.83-5.759-.79-11.911-.49-17.286,5.29-27.224,14.053-37.948,16.466-42.587l2.59-4.973M1757.586,646.93l-.516.985c1.399-2.654.748-1.263-3.072,3.418-3.904,3.101-8.708,8.007-12.249,11.201-3.566,3.486-7.001,8.413-10.213,9.744-3.22,4.154-7.285,5.463-11.692,7.749-5.958,2.189-10.056,4.082-15.203,7.196-6.575,3.435-10.669,6.718-16.766,10.149-3.752,4.715-7.572,7.644-10.762,13.2-3.161,5.151-6.317,9.566-9.291,15.211l-7.259,13.754,7.259-13.754-7.259,13.754M1705.754,1026.704l.989-1.977c-1.825,3.651-1.183,2.696.528-3.469.017-7.39,1.707-16.335,1.775-22.851,1.069-6.904,2.155-14.362,2.223-21.351-.401-8.18-.389-15.507-1.567-23.396-.089-7.263-.909-14.789-1.115-21.904-.127-7.044-.634-13.082-2.1-19.923-.14-5.121-.444-12.152-1.639-18.427.642-4.944-.714-9.494-1.724-13.453-1.842-7.622-2.556-12.068-4.491-19.969-1.162-4.23-2.311-9.638-4.065-15.976-.634-6.004-3.727-13.8-4.986-18.976-1.716-3.807-3.448-8.962-4.111-13.492-1.8-4.179-4.36-9.279-5.058-14.007-1.897-3.608-3.913-9.211-6.008-14.523-1.804-4.356-3.131-9.731-5.053-13.999-1.939-5.396-4.306-10.006-5.514-15.507-1.855-1.863-2.273-3.913-3.27-5.518"/>
        <path class="cls-5" d="M1693.365,606.662c-6.887,15.697-24.625,38.624-24.887,39.131l-16.88,33.651c-7.437,18.418-2.696,25.792.553,31.111,6.718,11.827,7.901,18.22,12.875,27.22,1.872,11.244-18.127,15.025-18.393,15.532-41.641,14.404-62.763-25.432-62.987-27.473-5.649-20.907-4.91-24.38,7.855-28.686,14.628-3.351,20.506-3.515,27.744-8.755,13.707-10.246,23.387-41.201,23.654-41.713.262-.507,2.054-17.556,2.054-17.556,1.069-8.227-2.742-15.769,1.466-28.783,5.476-12.579,8.768-16.018,21.735-17.011,16.897-1.525,30.017,10.399,25.213,23.332h0ZM2232.98,656.111c-2.43.621-23.983,12.499-23.552,13.166.422.672-16.014,54.406-16.441,53.738-.427-.672-16.475-44.937-17.814-44.083-1.331.849-47.861,8.945-48.528,9.372-.663.423,32.793-47.261,32.793-47.261l-7.606-48.714,39.085,12.638s38.89-33.3,39.562-33.727c.663-.423-8.32,42.913-8.32,42.913l22.103,27.245s-10.8,12.532-11.282,14.713h0Z"/>
        <path class="cls-2" d="M1811.493,1228.68c29.265,17.028,195.254,35.882,221.138,38.151,32.345-4.901,78.199-3.38,113.113,6.055,33.566,12.435,66.968,9.925,88.394-8.421,29.468-18.439,38.924-47.603,51.186-73.851,4.47-13.758,3.904-28.065-2.43-39.613-11.514-24.642-5.806-31.128-8.738-45.27,32.392-83.763,34.694-179.328,39.587-250.225-3.418-41.011-.875-72.676,3.287-85.627,17.907-31.28,45.807-45.444,59.932-51.744l157.665-50.375c40.559-17.438,11.924-44.075,3.482-41.104-27.892-2.463-28.487-32.337-156.253,6.021l-83.835-5.928s-16.872-12.101-18.499-11.062c-45.44-5.763-50.404,23.89-46.791,41.324l8.337,38.125s-12.917,58.563-11.882,60.186c-38.556,48.537-91.483,200.404-93.803,229.149-.351,26.907-10.745,22.635-6.57,48.532,1.246,20.349-1.834,7.775,7.318,49.331,2.366,12.532-13.12,12.427-22.179,9.279-78.11-43.077-132.921-62.108-213.997-99.528l-126.093,81.477,37.63,155.117Z"/>
        <path class="cls-6" d="M2431.825,695.969c-1.547.516-55.563-57.566-55.563-57.566,0,0,29.273-7.884,29.489-7.551l61.475,52.846-35.4,12.27Z"/>
        <path class="cls-3" d="M2433.934,697.951c-3.904-3.482-21.444-18.816-25.804-23.759-5.064-4.981-10.328-9.752-15.782-14.303-5.476-5.654-9.3-8.941-14.84-14.907-5.392-3.997-10.111-8.341-15.042-13.149M2482.196,683.893c-1.086-.08-7.906-2.032-11.873-4.027-3.617-3.025-17.392-12.473-21.38-16.83-4.676-4.367-9.547-8.521-14.599-12.448-5.032-4.961-8.578-7.813-13.656-13.061-5.032-3.431-9.397-7.217-13.939-11.417"/>
        <path class="cls-4" d="M2293.656,1025.415c-41.814,8.848-91.001-9.317-113.468-28.268M2185.83,835.537l.604.946c-1.889-2.958-.976-.985,6.532-.182,4.72-1.023,20.916,5.696,26.742,14.823,3.287,4.103,8.079,10.568,10.893,14.979.803,1.255.968,3.587,1.775,4.851M2380.944,712.287l-.604-.942-2.408-3.773c-3.127-4.897-5.392-10.369-8.104-14.768-3.013-4.72-4.69-10.297-7.707-15.021-2.366-5.193-6.253-10.796-8.7-16.175-3.342-5.645-5.087-10.779-8.759-16.534-2.789-4.749-3.613-7.745-6.896-12.883l6.896,12.883c-2.789-4.749-3.613-7.745-6.896-12.883M2516.624,670.841c-1.06-.034-7.639-1.61-11.434-3.33-3.41-2.708-16.492-11.066-20.214-15.008-4.407-3.933-8.999-7.653-13.762-11.146-4.728-4.47-8.07-7.014-12.828-11.751-4.779-3.038-8.89-6.427-13.162-10.2M2296.056,687.218c9.461-2.282,9.199-6.985,11.628-10.551,1.652-4.559,2.535-14.07-.731-26.121-1.432-4.538-2.311-8.168-3.456-13.745-1.622-3.144-1.813-5.075-2.332-7.813M2250.216,1242.341l-.6-.942c1.889,2.958.946,1.061-6.194-1.369-5.383-.875-8.569-2.447-13.918-3.068M2278.445,1138.258c-.401-.63-62.442-37.454-71.987-39.515-5.603-2.206-10.732-3.308-17.303-6.144-3.718-2.138-7.331-3.063-11.096-4.885-5.206-.186-9.469-2.049-13.927-1.737-5.02-1.492-7.234,1.939-12.444,1.462-4.382.997-11.916,2.442-15.672,3.748M2132.476,996.108c1.762-1.542,8.523-4.221,13.048-7.23,5.429-3.203,26.185-6.845,36.355-1.72"/>
        <path class="cls-4" d="M2194.158,1094.061c-.203-.317-2.797-10.297-7.365-26.827-4.644-20.446-4.935-68.945-4.128-74.294.524-5.265-1.018-13.107.723-17.599.845-5.831,2.835-10.973,4.356-16.077,2.003-6.135,3.685-11.349,5.903-15.731,1.813-15.938,42.744-81.845,45.494-84.879,2.305-3.881,4.763-7.668,7.369-11.354,1.077-3.634,3.583-7.234,5.827-11.696,3.435-4.973,4.162-8.548,6.165-13.247.173-4.513,1.61-11.358,1.259-16.754.925-6.583-.144-11.518.321-16.158-.951-5.662-1.272-75.511-1.175-78.824.752-6.879,6.27-29.945,22.956-26.882,6.177,1.876,13.242,2.607,17.497,4.859,5.903,1.297,10.711,5.277,15.216,8.218,20.941,18.19,25.859,31.124,28.673,35.535l3.017,4.72M2152.669,1272.734c-.2-.315-.401-.629-.604-.942,1.631,2.552.735,1.284-1.471-4.382-.769-4.931-2.679-11.556-3.718-16.23-1.276-4.842-3.887-10.297-3.456-13.745-2.032-4.876-1.162-9.046-.968-14.003,1.048-6.245,1.428-10.741,1.259-16.754.266-7.411-.575-12.604-.545-19.597-2.265-5.624-2.928-10.403-6.211-15.963-2.941-5.332-5.244-10.289-8.704-15.714l-8.447-13.221,8.447,13.221-8.447-13.221M1847.455,1038.307l1.208,1.889c-2.231-3.49-1.732-2.43,2.751,2.231,6.439,3.735,13.361,9.773,19.01,13.12,5.464,4.449,11.404,9.186,17.467,12.773,7.348,3.752,13.732,7.458,21.232,10.365,6.384,3.575,13.382,6.625,19.694,10.023,6.216,3.435,11.751,6.017,18.486,8.13,4.542,2.455,10.834,5.717,16.939,7.796,3.976,3.072,8.658,4.137,12.642,5.214,7.614,2.172,11.869,3.761,19.775,5.987,4.297,1.073,9.621,2.759,16.069,4.361,5.573,2.447,13.994,3.57,19.17,5.037,4.221.359,9.625,1.386,13.922,3.068,4.589.473,10.382.718,14.873,2.468,4.137.097,10.086,1.094,15.815,1.868,4.749.558,10.132,2.062,14.861,2.468,5.725.963,10.986,1.137,16.42,2.81,2.599-.739,4.606-.089,6.528-.186"/>
        <path class="cls-5" d="M2217.089,1236.252c-9.984-13.559-20.81-39.875-21.11-40.348l-20.37-30.858c-12.034-15.363-20.632-14.962-26.751-14.818-13.356-.11-19.377-2.248-29.472-2.451-10.487-3.934-3.908-22.766-4.208-23.239,8.142-42.414,52.394-40.762,54.241-39.947,20.561,5.476,23.155,7.808,20.569,20.755-4.318,14.062-7.056,19.128-6.144,27.849,2.003,16.665,23.607,40.086,23.911,40.563.304.473,13.935,10.373,13.935,10.373,6.482,4.948,14.763,5.417,23.78,15.389,8.024,10.825,9.334,15.308,3.828,26.801-6.98,15.089-23.556,20.362-32.21,9.93h0ZM1905.875,1679.834c.68-2.417,1.166-27.017.376-26.983-.794.034-39.11-41.07-38.315-41.104.79-.034,47.151,8.201,47.083,6.613-.072-1.576,16.179-45.921,16.145-46.711-.034-.786,24.533,52.031,24.533,52.031l45.993,17.768-30.49,27.528s9.393,50.332,9.427,51.127c.038.786-33-28.661-33-28.661l-34.648,5.518s-5.455-15.617-7.103-17.125h0Z"/>
        <path class="cls-2" d="M1620.744,1028.551c-29.379,16.83-128.704,151.154-143.611,172.437-11.924,30.465-36.169,69.41-61.796,94.931-27.554,22.851-42.08,53.032-36.908,80.763,1.238,34.741,21.765,57.511,38.366,81.254,9.68,10.749,22.352,17.413,35.523,17.7,27.097,2.349,29.861,10.538,43.572,15.072,56.345,69.934,137.958,119.708,196.91,159.397,37.225,17.539,63.376,35.578,72.511,45.655,18.131,31.153,16.449,62.392,14.848,77.78l-35.214,161.725c-5.176,43.847,32.214,32.362,33.858,23.569,16.077-22.922,42.249-8.502,72.917-138.334l47.049-69.634s18.917-8.565,18.828-10.492c27.71-36.469,4.513-55.597-12.389-61.183l-37.187-11.848s-44.26-40.466-46.183-40.382c-22.754-57.659-127.813-179.43-151.547-195.811-23.125-13.754-14.227-20.62-38.746-29.953-18.245-9.097-5.814-5.476-46.382-18.33-12.038-4.217-4.2-17.573,3.055-23.844,76.361-46.107,120.249-84.063,193.191-135.562l-7.513-149.941-153.152-44.97Z"/>
        <path class="cls-6" d="M1771.952,1832.124c.33-1.597,77.637-19.335,77.637-19.335,0,0-7.809,29.294-8.206,29.311l-76.504,26.814,7.073-36.79h0Z"/>
        <path class="cls-3" d="M1769.18,1832.961c4.969-1.644,27.021-9.165,33.482-10.471,6.845-1.895,13.61-4.069,20.278-6.515,7.631-1.918,12.389-3.583,20.328-5.396,6.161-2.675,12.279-4.589,18.913-6.456M1757.227,1881.784c.608-.9,5.713-5.831,9.427-8.269,4.428-1.618,19.496-8.827,25.263-10.103,6.127-1.901,12.215-3.997,18.08-6.414,6.811-1.884,11.049-3.524,18.135-5.303,5.489-2.641,10.948-4.525,16.859-6.359"/>
        <path class="cls-4" d="M1555.694,1547.762c13.246-40.639,53.569-74.151,81.215-84.135M1774.052,1549.308l-1.115.051c3.503-.161,1.34-.355-3.11,5.746-1.475,4.597-15.393,15.266-26.21,15.748-5.193.794-13.192,1.711-18.418,1.944-1.487.068-3.591-.959-5.087-.892M1783.255,1779.894l1.12-.051,4.47-.199c5.806-.258,11.679.511,16.842.368,5.599-.249,11.265,1.086,16.859.832,5.687.549,12.482-.017,18.363.553,6.562-.072,11.877.989,18.697.68,5.51-.038,8.514.748,14.603.473l-14.603-.473c5.51-.038,8.514.748,14.603.473M1751.32,1918.127c.562-.9,5.214-5.81,8.603-8.235,4.052-1.602,17.827-8.751,23.104-10.001,5.61-1.851,11.128-3.97,16.534-6.351,6.237-1.855,10.111-3.482,16.589-5.231,5.024-2.62,10.014-4.483,15.418-6.296M1847.404,1718.914c-2.755,9.334,1.453,11.455,3.325,15.346,3.123,3.71,10.918,9.228,22.99,12.427,4.644,1.031,8.227,2.083,13.631,3.879,3.528.165,5.299.968,7.931,1.885M1389.545,1401.7l1.116-.051c-3.507.156-1.394.292,4.28-4.677,3.452-4.225,6.406-6.203,9.617-10.521M1465.572,1478.179c.748-.034,63.655-35.354,70.217-42.591,4.711-3.744,8.231-7.635,13.973-11.911,3.71-2.151,6.317-4.817,9.773-7.166,2.768-4.416,6.511-7.175,8.468-11.189,3.799-3.604,1.939-7.242,4.956-11.51,1.327-4.293,3.841-11.539,4.593-15.448M1661.662,1422.823c.456,2.299-.604,9.494-.262,14.915.059,6.304-7.166,26.1-16.686,32.345"/>
        <path class="cls-4" d="M1546.006,1427.259c.376-.017,10.314,2.73,26.915,7.035,20.024,6.203,62.172,30.203,66.402,33.575,4.301,3.085,11.861,5.67,14.882,9.423,4.623,3.651,8.087,7.944,11.742,11.814,4.314,4.8,7.986,8.865,10.673,12.976,12.9,9.541,49.513,77.941,50.759,81.837,2.208,3.938,4.259,7.963,6.148,12.063,2.611,2.746,4.475,6.714,7.217,10.893,2.59,5.459,5.324,7.876,8.392,11.962,3.82,2.408,9.03,7.073,13.88,9.465,5.235,4.09,10.048,5.637,13.83,8.358,5.379,2.007,66.03,36.655,68.852,38.396,5.582,4.09,22.796,20.404,11.802,33.321-4.716,4.416-8.878,10.162-12.959,12.722-4.073,4.462-9.921,6.638-14.725,9.068-26.223,9.042-39.883,6.832-45.11,7.069l-5.594.249M1411.986,1302.016l1.12-.051c-3.021.135-1.479-.004,4.53.917,4.661,1.8,11.349,3.461,15.917,4.897,4.834,1.314,10.859,1.779,13.631,3.879,5.239.676,8.417,3.515,12.608,6.161,4.885,4.031,8.59,6.604,13.885,9.469,6.283,3.934,11.201,5.806,17.239,9.325,6.004.849,10.475,2.662,16.935,2.603,6.089.118,11.527.604,17.958.317l15.672-.701-15.672.701,15.672-.701M1767.608,1154.889l-2.244.101c4.141-.186,2.97-.283-3.304,1.268-6.456,3.71-15.144,6.685-20.869,9.904-6.583,2.51-13.656,5.282-19.792,8.738-6.925,4.487-13.327,8.168-19.593,13.208-6.292,3.739-12.431,8.273-18.528,12.047-6.08,3.663-11.083,7.166-16.28,11.945-4.403,2.704-10.373,6.52-15.224,10.77-4.648,1.906-7.914,5.425-10.838,8.337-5.687,5.514-9.19,8.4-15.072,14.134-3.08,3.186-7.196,6.951-11.81,11.738-4.906,3.6-10.09,10.331-13.948,14.079-2.421,3.477-6.013,7.644-9.617,10.53-2.704,3.735-5.814,8.628-9.575,11.641-2.155,3.537-5.992,8.189-9.524,12.765-2.856,3.832-6.849,7.745-9.57,11.637-3.693,4.479-6.477,8.949-10.644,12.815-.655,2.62-2.223,4.031-3.101,5.746"/>
        <path class="cls-5" d="M1411.382,1376.044c16.732-1.868,44.937,1.918,45.494,1.893l36.913-2.21c19.318-2.742,23.269-10.39,26.206-15.756,6.773-11.514,11.637-15.659,16.859-24.304,8.649-7.115,21.668,8.003,22.23,7.977,32.658,28.259,9.101,65.755,7.475,66.946-15.021,15.068-18.342,16.149-28.259,7.432-10.018-10.766-13.039-15.672-21.046-19.242-15.431-6.596-46.521.401-47.087.427-.558.025-15.951,6.883-15.951,6.883-7.525,3.135-12.072,10.078-25.213,12.896-13.39,1.538-17.928.431-25.124-10.082-9.579-13.589-5.856-30.579,7.504-32.861h0Z"/>
        <path class="cls-1" d="M1809.942,1229.678c-13.965-7.259-24.625-8.708-29.717-5.193-8.091-46.196-15.211-92.446-25.606-138.503-85.8-36.473-103.931-44.801-132.085-57.296,13.141-8.721,19.699-17.421,19.263-23.679,43.23,15.942,86.024,32.772,130.284,46.61,73.842-57.625,89.971-69.494,114.646-88.137.828,15.98,4.927,26.13,10.454,28.872-35.138,30.249-70.813,59.675-104.679,91.889,11.958,94.103,13.961,114.3,17.438,145.437Z"/>
      </g>
    </g>
  </g>
</svg>