<?xml version="1.0" encoding="UTF-8"?>
<svg xmlns="http://www.w3.org/2000/svg" viewBox="0 0 3600.1 2401.738">
  <defs>
    <style>
      .cls-1 {
        fill: #f93;
      }

      .cls-1, .cls-2, .cls-3, .cls-4, .cls-5 {
        stroke-width: 0px;
      }

      .cls-1, .cls-4, .cls-5 {
        fill-rule: evenodd;
      }

      .cls-2 {
        fill: #06038d;
      }

      .cls-3 {
        fill: #fff;
      }

      .cls-4 {
        fill: #138808;
      }

      .cls-5 {
        fill: #eee;
      }
    </style>
  </defs>
  <g id="background">
    <path id="bg" class="cls-5" d="M400,.1h2800c220,0,400,180,400,400v1600c0,220-180,400-400,400H400C180,2400.1,0,2220.1,0,2000.1V400.1C0,180.1,180,.1,400,.1Z"/>
  </g>
  <g id="country">
    <g id="in">
      <path class="cls-4" d="M0,1600.1h3600v400c0,220-180,400-400,400H400C180,2400.1,0,2220.1,0,2000.1v-400Z"/>
      <g>
        <circle class="cls-2" cx="1800" cy="1200.1" r="370"/>
        <circle class="cls-3" cx="1800" cy="1200.1" r="320"/>
        <circle class="cls-2" cx="1800" cy="1200.1" r="64"/>
        <g id="d">
          <g id="c">
            <g id="b">
              <g id="a">
                <path class="cls-2" d="M1800,880.1l12,192.56-12,95.36-12-95.36,12-192.56Z"/>
                <circle class="cls-2" cx="1841.768" cy="882.838" r="14"/>
              </g>
              <g id="a-2" data-name="a">
                <path class="cls-2" d="M1800,1520.1l-12-192.56,12-95.36,12,95.36-12,192.56Z"/>
                <circle class="cls-2" cx="1758.232" cy="1517.362" r="14"/>
              </g>
            </g>
            <g id="b-2" data-name="b">
              <g id="a-3" data-name="a">
                <path class="cls-2" d="M1882.822,891.004l-38.247,189.105-36.272,89.005,13.09-95.217,61.429-182.893Z"/>
                <circle class="cls-2" cx="1922.459" cy="904.459" r="14"/>
              </g>
              <g id="a-4" data-name="a">
                <path class="cls-2" d="M1717.178,1509.196l38.247-189.105,36.272-89.005-13.09,95.217-61.429,182.893Z"/>
                <circle class="cls-2" cx="1677.541" cy="1495.741" r="14"/>
              </g>
            </g>
          </g>
          <g id="c-2" data-name="c">
            <g id="b-3" data-name="b">
              <g id="a-5" data-name="a">
                <path class="cls-2" d="M1960,922.972l-85.888,172.762-58.072,76.584,37.288-88.584,106.672-160.762Z"/>
                <circle class="cls-2" cx="1994.804" cy="946.227" r="14"/>
              </g>
              <g id="a-6" data-name="a">
                <path class="cls-2" d="M1640,1477.228l85.888-172.762,58.072-76.584-37.288,88.584-106.672,160.762Z"/>
                <circle class="cls-2" cx="1605.196" cy="1453.973" r="14"/>
              </g>
            </g>
            <g id="b-4" data-name="b">
              <g id="a-7" data-name="a">
                <path class="cls-2" d="M2026.274,973.826l-127.675,144.646-75.915,58.944,58.944-75.915,144.646-127.675Z"/>
                <circle class="cls-2" cx="2053.873" cy="1005.296" r="14"/>
              </g>
              <g id="a-8" data-name="a">
                <path class="cls-2" d="M1573.726,1426.374l127.675-144.646,75.915-58.944-58.944,75.915-144.646,127.675Z"/>
                <circle class="cls-2" cx="1546.127" cy="1394.904" r="14"/>
              </g>
            </g>
          </g>
        </g>
        <g id="d-2" data-name="d">
          <g id="c-3" data-name="c">
            <g id="b-5" data-name="b">
              <g id="a-9" data-name="a">
                <path class="cls-2" d="M2077.128,1040.1l-160.762,106.672-88.584,37.288,76.584-58.072,172.762-85.888Z"/>
                <circle class="cls-2" cx="2095.641" cy="1077.641" r="14"/>
              </g>
              <g id="a-10" data-name="a">
                <path class="cls-2" d="M1522.872,1360.1l160.762-106.672,88.584-37.288-76.584,58.072-172.762,85.888Z"/>
                <circle class="cls-2" cx="1504.359" cy="1322.559" r="14"/>
              </g>
            </g>
            <g id="b-6" data-name="b">
              <g id="a-11" data-name="a">
                <path class="cls-2" d="M2109.096,1117.278l-182.893,61.429-95.217,13.09,89.005-36.272,189.104-38.247Z"/>
                <circle class="cls-2" cx="2117.262" cy="1158.332" r="14"/>
              </g>
              <g id="a-12" data-name="a">
                <path class="cls-2" d="M1490.904,1282.922l182.893-61.429,95.217-13.09-89.005,36.272-189.104,38.247Z"/>
                <circle class="cls-2" cx="1482.738" cy="1241.868" r="14"/>
              </g>
            </g>
          </g>
          <g id="c-4" data-name="c">
            <g id="b-7" data-name="b">
              <g id="a-13" data-name="a">
                <path class="cls-2" d="M2120,1200.1l-192.56,12-95.36-12,95.36-12,192.56,12Z"/>
                <circle class="cls-2" cx="2117.262" cy="1241.868" r="14"/>
              </g>
              <g id="a-14" data-name="a">
                <path class="cls-2" d="M1480,1200.1l192.56-12,95.36,12-95.36,12-192.56-12Z"/>
                <circle class="cls-2" cx="1482.738" cy="1158.332" r="14"/>
              </g>
            </g>
            <g id="b-8" data-name="b">
              <g id="a-15" data-name="a">
                <path class="cls-2" d="M2109.096,1282.922l-189.105-38.247-89.005-36.272,95.217,13.09,182.893,61.429Z"/>
                <circle class="cls-2" cx="2095.641" cy="1322.559" r="14"/>
              </g>
              <g id="a-16" data-name="a">
                <path class="cls-2" d="M1490.904,1117.278l189.105,38.247,89.005,36.272-95.217-13.09-182.893-61.429Z"/>
                <circle class="cls-2" cx="1504.359" cy="1077.641" r="14"/>
              </g>
            </g>
          </g>
        </g>
        <g id="d-3" data-name="d">
          <g id="c-5" data-name="c">
            <g id="b-9" data-name="b">
              <g id="a-17" data-name="a">
                <path class="cls-2" d="M2077.128,1360.1l-172.762-85.888-76.584-58.072,88.584,37.288,160.762,106.672Z"/>
                <circle class="cls-2" cx="2053.873" cy="1394.904" r="14"/>
              </g>
              <g id="a-18" data-name="a">
                <path class="cls-2" d="M1522.872,1040.1l172.762,85.888,76.584,58.072-88.584-37.288-160.762-106.672Z"/>
                <circle class="cls-2" cx="1546.127" cy="1005.296" r="14"/>
              </g>
            </g>
            <g id="b-10" data-name="b">
              <g id="a-19" data-name="a">
                <path class="cls-2" d="M2026.274,1426.374l-144.646-127.675-58.944-75.915,75.915,58.944,127.675,144.646Z"/>
                <circle class="cls-2" cx="1994.804" cy="1453.973" r="14"/>
              </g>
              <g id="a-20" data-name="a">
                <path class="cls-2" d="M1573.726,973.826l144.646,127.675,58.944,75.915-75.915-58.944-127.675-144.646Z"/>
                <circle class="cls-2" cx="1605.196" cy="946.227" r="14"/>
              </g>
            </g>
          </g>
          <g id="c-6" data-name="c">
            <g id="b-11" data-name="b">
              <g id="a-21" data-name="a">
                <path class="cls-2" d="M1960,1477.228l-106.672-160.762-37.288-88.584,58.072,76.584,85.888,172.762Z"/>
                <circle class="cls-2" cx="1922.459" cy="1495.741" r="14"/>
              </g>
              <g id="a-22" data-name="a">
                <path class="cls-2" d="M1640,922.972l106.672,160.762,37.288,88.584-58.072-76.584-85.888-172.762Z"/>
                <circle class="cls-2" cx="1677.541" cy="904.459" r="14"/>
              </g>
            </g>
            <g id="b-12" data-name="b">
              <g id="a-23" data-name="a">
                <path class="cls-2" d="M1882.822,1509.196l-61.429-182.893-13.09-95.217,36.272,89.005,38.247,189.104Z"/>
                <circle class="cls-2" cx="1841.768" cy="1517.362" r="14"/>
              </g>
              <g id="a-24" data-name="a">
                <path class="cls-2" d="M1717.178,891.004l61.429,182.893,13.09,95.217-36.272-89.005-38.247-189.104Z"/>
                <circle class="cls-2" cx="1758.232" cy="882.838" r="14"/>
              </g>
            </g>
          </g>
        </g>
      </g>
      <path class="cls-1" d="M400,.1h2800c220,0,400,180,400,400v400H0v-400C0,180.1,180,.1,400,.1Z"/>
    </g>
  </g>
</svg>