<?xml version="1.0" encoding="UTF-8"?>
<svg xmlns="http://www.w3.org/2000/svg" viewBox="0 0 3600.1 2401.738">
  <defs>
    <style>
      .cls-1 {
        stroke-width: 1.715px;
      }

      .cls-1, .cls-2, .cls-3, .cls-4, .cls-5, .cls-6, .cls-7, .cls-8, .cls-9, .cls-10, .cls-11, .cls-12, .cls-13, .cls-14, .cls-15, .cls-16, .cls-17, .cls-18, .cls-19, .cls-20, .cls-21, .cls-22, .cls-23, .cls-24, .cls-25, .cls-26, .cls-27, .cls-28, .cls-29, .cls-30, .cls-31, .cls-32, .cls-33, .cls-34 {
        stroke-miterlimit: 8;
      }

      .cls-1, .cls-2, .cls-3, .cls-4, .cls-5, .cls-6, .cls-7, .cls-8, .cls-9, .cls-10, .cls-11, .cls-12, .cls-13, .cls-14, .cls-15, .cls-17, .cls-18, .cls-20, .cls-21, .cls-22, .cls-23, .cls-24, .cls-25, .cls-26, .cls-27, .cls-28, .cls-29, .cls-30, .cls-31, .cls-32, .cls-33, .cls-34 {
        stroke: #000;
      }

      .cls-1, .cls-3, .cls-5, .cls-6, .cls-10, .cls-11, .cls-12, .cls-14, .cls-15, .cls-20, .cls-24, .cls-25, .cls-27, .cls-28, .cls-32, .cls-34 {
        fill: none;
      }

      .cls-2 {
        stroke-width: 3.618px;
      }

      .cls-2, .cls-4, .cls-35, .cls-7, .cls-8, .cls-9, .cls-36, .cls-13, .cls-37, .cls-38, .cls-39, .cls-16, .cls-17, .cls-40, .cls-18, .cls-19, .cls-41, .cls-21, .cls-22, .cls-23, .cls-42, .cls-43, .cls-26, .cls-29, .cls-30, .cls-31, .cls-44, .cls-33 {
        fill-rule: evenodd;
      }

      .cls-2, .cls-7, .cls-9, .cls-17, .cls-18, .cls-23, .cls-29, .cls-30 {
        fill: #006d00;
      }

      .cls-3 {
        stroke-width: 1.717px;
      }

      .cls-4, .cls-11, .cls-22 {
        stroke-width: 1.715px;
      }

      .cls-4, .cls-13, .cls-40, .cls-21 {
        fill: #fff;
      }

      .cls-35, .cls-36, .cls-37, .cls-38, .cls-39, .cls-40, .cls-45, .cls-41, .cls-46, .cls-42, .cls-43, .cls-44, .cls-47 {
        stroke-width: 0px;
      }

      .cls-5 {
        stroke-width: .902px;
      }

      .cls-6 {
        stroke-width: .905px;
      }

      .cls-7 {
        stroke-width: 3.085px;
      }

      .cls-8 {
        fill: #a24300;
        stroke-width: 4.488px;
      }

      .cls-9 {
        stroke-width: 3.065px;
      }

      .cls-36 {
        fill: #f6e078;
      }

      .cls-10 {
        stroke-width: .85px;
      }

      .cls-12, .cls-26 {
        stroke-width: 1.719px;
      }

      .cls-13, .cls-24 {
        stroke-width: 1.714px;
      }

      .cls-37 {
        fill: #ccc;
      }

      .cls-14 {
        stroke-width: .812px;
      }

      .cls-38 {
        fill: #00247d;
      }

      .cls-39 {
        fill: #306947;
      }

      .cls-15, .cls-16, .cls-19, .cls-31 {
        stroke-width: 1.722px;
      }

      .cls-16 {
        fill: #2b96f6;
      }

      .cls-16, .cls-19 {
        stroke: #a0892c;
      }

      .cls-17 {
        stroke-width: 2.993px;
      }

      .cls-18 {
        stroke-width: 3.592px;
      }

      .cls-45, .cls-44 {
        fill: #eee;
      }

      .cls-19, .cls-31, .cls-47 {
        fill: #012169;
      }

      .cls-41, .cls-22, .cls-26, .cls-33 {
        fill: #fed100;
      }

      .cls-20 {
        stroke-width: 1.719px;
      }

      .cls-21, .cls-32, .cls-33 {
        stroke-width: 1.715px;
      }

      .cls-23 {
        stroke-width: 4.018px;
      }

      .cls-46, .cls-43 {
        fill: #cf1b2b;
      }

      .cls-25 {
        stroke-width: .806px;
      }

      .cls-42 {
        fill: #c8102e;
      }

      .cls-27 {
        stroke-width: .919px;
      }

      .cls-28 {
        stroke-width: 1.717px;
      }

      .cls-29 {
        stroke-width: 4.028px;
      }

      .cls-30 {
        stroke-width: 4.028px;
      }

      .cls-34 {
        stroke-width: .925px;
      }
    </style>
  </defs>
  <g id="background">
    <path id="bg" class="cls-44" d="M400,.1h2800c220,0,400,180,400,400v1600c0,220-180,400-400,400H400C180,2400.1,0,2220.1,0,2000.1V400.1C0,180.1,180,.1,400,.1Z"/>
  </g>
  <g id="country">
    <g id="io">
      <g>
        <path class="cls-47" d="M3385.706,842.36c-142.849,0-214.282,159.145-357.13,159.145-285.718,0-357.143-159.145-571.433-159.145-142.853,0-214.286,159.145-357.143,159.145-285.71,0-357.143-159.145-571.424-159.145-142.866,0-214.286,159.145-357.143,159.145-285.714,0-357.147-159.145-571.433-159.145-142.866,0-214.29,159.145-357.143,159.145C139.496,1001.505,64.182,980.676,0,954.09v204.879c64.182,26.585,139.496,47.413,242.857,47.413,142.853,0,214.277-159.137,357.143-159.137,214.281,0,285.719,159.137,571.433,159.137,142.857,0,214.277-159.137,357.143-159.137,214.281,0,285.714,159.137,571.424,159.137,142.857,0,214.29-159.137,357.143-159.137,214.29,0,285.714,159.137,571.433,159.137,142.849,0,214.282-159.137,357.13-159.137,87.013,0,150.476,26.24,214.294,57.409v-204.882c-63.818-31.171-127.281-57.412-214.294-57.412Z"/>
        <path class="cls-47" d="M3028.576,1399.414c-285.718,0-357.143-159.145-571.433-159.145-142.853,0-214.286,159.145-357.143,159.145-285.71,0-357.143-159.145-571.424-159.145-142.866,0-214.286,159.145-357.143,159.145-285.714,0-357.147-159.145-571.433-159.145-142.866,0-214.29,159.145-357.143,159.145C139.496,1399.414,64.182,1378.585,0,1351.999v204.877c64.182,26.585,139.496,47.414,242.857,47.414,142.853,0,214.277-159.141,357.143-159.141,214.281,0,285.719,159.141,571.433,159.141,142.857,0,214.277-159.141,357.143-159.141,214.281,0,285.714,159.141,571.424,159.141,142.857,0,214.29-159.141,357.143-159.141,214.29,0,285.714,159.141,571.433,159.141,142.849,0,214.282-159.141,357.13-159.141,87.013,0,150.476,26.24,214.294,57.41v-204.879c-63.818-31.171-127.281-57.412-214.294-57.412-142.849,0-214.282,159.145-357.13,159.145Z"/>
        <path class="cls-47" d="M65.463,181.5C30.386,234.885,7.717,297.06,1.645,363.84c63.823,26.259,138.734,46.732,241.212,46.732,142.853,0,214.277-159.137,357.143-159.137,214.281,0,285.719,159.137,571.433,159.137,142.857,0,214.277-159.137,357.143-159.137,214.281,0,285.714,159.137,571.424,159.137,142.857,0,214.29-159.137,357.143-159.137,214.29,0,285.714,159.137,571.433,159.137,142.849,0,214.282-159.137,357.13-159.137,81.565,0,142.436,23.058,202.304,51.618-27.921-110.969-102.525-203.913-201.486-256.498-.274,0-.544-.005-.818-.005-142.849,0-214.282,159.145-357.13,159.145-285.718,0-357.143-159.145-571.433-159.145-142.853,0-214.286,159.145-357.143,159.145-285.71,0-357.143-159.145-571.424-159.145-142.866,0-214.286,159.145-357.143,159.145-285.714,0-357.147-159.145-571.433-159.145-142.866,0-214.29,159.145-357.143,159.145-70.346,0-127.697-9.651-177.395-24.196Z"/>
        <path class="cls-47" d="M600,1843.059c214.281,0,285.719,159.137,571.433,159.137,142.857,0,214.277-159.137,357.143-159.137,214.281,0,285.714,159.137,571.424,159.137,142.857,0,214.29-159.137,357.143-159.137,214.29,0,285.714,159.137,571.433,159.137,142.849,0,214.282-159.137,357.13-159.137,87.013,0,150.476,26.24,214.294,57.409v-204.882c-63.818-31.171-127.281-57.412-214.294-57.412-142.849,0-214.282,159.145-357.13,159.145-285.718,0-357.143-159.145-571.433-159.145-142.853,0-214.286,159.145-357.143,159.145-285.71,0-357.143-159.145-571.424-159.145-142.866,0-214.286,159.145-357.143,159.145-285.714,0-357.147-159.145-571.433-159.145-142.866,0-214.29,159.145-357.143,159.145C139.496,1797.319,64.182,1776.49,0,1749.904v204.879c64.182,26.585,139.496,47.413,242.857,47.413,142.853,0,214.277-159.137,357.143-159.137Z"/>
        <path class="cls-47" d="M3385.706,444.456c-142.849,0-214.282,159.145-357.13,159.145-285.718,0-357.143-159.145-571.433-159.145-142.853,0-214.286,159.145-357.143,159.145-285.71,0-357.143-159.145-571.424-159.145-142.866,0-214.286,159.145-357.143,159.145-285.714,0-357.147-159.145-571.433-159.145-142.866,0-214.29,159.145-357.143,159.145C139.496,603.601,64.182,582.771,0,556.185v204.879c64.182,26.585,139.496,47.413,242.857,47.413,142.853,0,214.277-159.137,357.143-159.137,214.281,0,285.719,159.137,571.433,159.137,142.857,0,214.277-159.137,357.143-159.137,214.281,0,285.714,159.137,571.424,159.137,142.857,0,214.29-159.137,357.143-159.137,214.29,0,285.714,159.137,571.433,159.137,142.849,0,214.282-159.137,357.13-159.137,87.013,0,150.476,26.24,214.294,57.409v-204.882c-63.818-31.171-127.281-57.412-214.294-57.412Z"/>
        <path class="cls-47" d="M3504.414,2258.857c41.146-48.293,71.068-106.4,85.63-170.184-60.526-29.009-121.85-52.594-204.338-52.594-142.849,0-214.282,159.145-357.13,159.145-285.718,0-357.143-159.145-571.433-159.145-142.853,0-214.286,159.145-357.143,159.145-285.71,0-357.143-159.145-571.424-159.145-142.866,0-214.286,159.145-357.143,159.145-285.714,0-357.147-159.145-571.433-159.145-142.866,0-214.29,159.145-357.143,159.145-85.719,0-152.146-14.327-208.935-34.382,49.962,112.905,150.754,198.799,272.917,228.225,103.694-36.05,173.275-148.104,293.16-148.104,214.281,0,285.719,159.136,571.433,159.136,142.857,0,214.277-159.136,357.143-159.136,214.281,0,285.714,159.136,571.424,159.136,142.857,0,214.29-159.136,357.143-159.136,214.29,0,285.714,159.136,571.433,159.136,142.849,0,214.282-159.136,357.13-159.136,44.706,0,83.193,6.93,118.708,17.893Z"/>
      </g>
      <g>
        <path class="cls-8" d="M2678.793,750.969l-12.036,1221.842c-1.629,69.332,60.18,69.607,60.18,0l-12.036-1221.842h-36.108Z"/>
        <path class="cls-2" d="M2810.881,1206.343l-40.462-44.417-9.986,44.87-17.575-64.974-16.434,32.714-2.912-69.176-16.434,32.714-2.912-69.176-16.434,32.714-9.358-81.333-16.434,32.714-9.361-81.33-16.434,32.714-9.358-81.333-4.681-40.665,8.214-16.358,21.118,7.954,34.01,32.261,68.023,64.521-42.227-15.905,68.023,64.521-42.23-15.902,68.023,64.518-42.227-15.902,61.574,52.368-42.227-15.905,61.574,52.365-42.23-15.902,46.911,56.57-48.679-28.058,11.129,52.821Z"/>
        <path class="cls-14" d="M2809.331,1207.307l-177.465-339.085M2752.289,971.491l-96.896-55.077-19.876,88.076"/>
        <path class="cls-14" d="M2780.81,1019.026l-98.873-55.077-20.282,88.076"/>
        <path class="cls-14" d="M2806.162,1068.729l-96.896-56.748-19.876,90.748"/>
        <path class="cls-14" d="M2825.176,1104.856l-90.526-42.801-26.309,75.533"/>
        <path class="cls-14" d="M2844.19,1141.756l-90.526-44.277-26.309,78.138"/>
        <path class="cls-14" d="M2847.359,1182.066l-82.737-60.376-5.308,85.617"/>
        <path class="cls-29" d="M2336.787,628.147l65.884,25.165-19.157-49.906,57.6,56.846-5.438-40.792,46.597,68.131-5.438-40.795,46.6,68.131-5.438-40.792,60.319,77.242-5.438-40.792,60.319,77.242-5.438-40.792,60.319,77.242,30.16,38.624,2.722,20.396-24.725,2.171-52.165-16.054-104.324-32.108,49.443-4.342-104.324-32.108,49.443-4.342-104.324-32.108,49.443-4.342-90.602-22.994,49.443-4.345-90.605-22.994,49.443-4.342-79.603-34.279,63.165,4.769-43.881-47.732Z"/>
        <path class="cls-6" d="M2337.148,627.377l386.62,256.69M2539.965,836.615l126.916,9.383-38.494-98.198"/>
        <path class="cls-6" d="M2486.092,800.558l126.916,9.596-38.494-100.382"/>
        <path class="cls-6" d="M2432.218,763.727l124.564,9.383-37.781-98.198"/>
        <path class="cls-6" d="M2391.021,736.952l111.651.428-24.386-90.989"/>
        <path class="cls-6" d="M2349.824,708.431l111.651.428-24.386-90.989"/>
        <path class="cls-6" d="M2318.134,670.4l115.802,21.03-49.519-89.404"/>
        <path class="cls-23" d="M3104.287,712.716l-55.017,40.186,60.709,6.744-84.682,20.057,45.184,13.437-91.752,6.642,45.187,13.44-91.752,6.642,45.184,13.437-107.274,13.338,45.187,13.437-107.277,13.338,45.187,13.437-107.277,13.335-53.639,6.671-22.595-6.718,8.455-20.107,39.499-33.493,78.991-66.987-16.903,40.212,78.994-66.983-16.903,40.212,78.994-66.987-16.903,40.212,63.469-60.294-16.903,40.212,63.472-60.29-16.903,40.212,70.542-46.882-32.428,46.908,69.16-13.364Z"/>
        <path class="cls-5" d="M3104.049,712.941l-434.155,186.972M2797.419,779.49l-64.524,94.754,120.803,13.624"/>
        <path class="cls-5" d="M2857.63,754.138l-64.524,92.738,120.803,13.335"/>
        <path class="cls-5" d="M2921.01,725.617l-64.524,94.754,120.803,13.624"/>
        <path class="cls-5" d="M2967.376,706.603l-50.096,86.295,107.544,19.99"/>
        <path class="cls-5" d="M3013.08,687.588l-48.933,86.295,105.043,19.99"/>
        <path class="cls-5" d="M3067.742,678.081l-72.298,80.258,114.943.073"/>
        <path class="cls-30" d="M3093.572,1117.731l-68.324-19.806,24.433,48.115-63.472-51.972,9.789,40.139-53.718-64.065,9.786,40.142-53.718-64.068,9.789,40.139-68.365-72.041,9.789,40.142-68.365-72.041,9.789,40.139-68.365-72.041-34.184-36.022-4.896-20.073,24.398-4.117,53.68,11.833,107.363,23.66-48.787,8.239,107.363,23.663-48.787,8.239,107.363,23.663-48.787,8.239,92.719,15.687-48.787,8.239,92.716,15.687-48.787,8.239,82.971,27.78-63.431.263,48.825,43.998Z"/>
        <path class="cls-6" d="M3094.542,1118.574l-408.803-221.831M2869.542,925.968l-126.041.529,48.549,97.007"/>
        <path class="cls-6" d="M2929.754,957.658l-128.466.529,49.484,97.007"/>
        <path class="cls-6" d="M2986.796,989.348l-126.041.529,48.549,97.007"/>
        <path class="cls-6" d="M3031.162,1015.74l-112.883,8.477,34.425,88.019"/>
        <path class="cls-6" d="M3075.528,1037.923l-112.883,8.477,34.425,88.019"/>
        <path class="cls-6" d="M3110.387,1074.525l-116.642-11.567,58.38,84.137"/>
        <path class="cls-18" d="M2387.418,1147.479l32.574-49.855-51.012,8.981,62.468-39.074-40.453-.897,72.133-28.746-40.453-.897,72.133-28.746-40.449-.897,82.692-38.627-40.453-.897,82.692-38.627-40.449-.897,82.692-38.627,41.346-19.312,20.228.447-.894,20.215-22.018,39.971-44.03,79.948,1.787-40.424-44.03,79.948,1.791-40.424-44.03,79.948,1.787-40.424-33.471,70.067,1.791-40.424-33.471,70.067,1.791-40.424-43.137,59.736,12.35-50.305-51.906,29.196Z"/>
        <path class="cls-25" d="M2392.457,1149.662l295.694-276.668M2619.133,1014.327l24.699-100.607-102.023,17.965"/>
        <path class="cls-25" d="M2575.195,1051.914l24.702-100.607-102.026,17.965"/>
        <path class="cls-25" d="M2531.259,1089.505l24.699-100.607-102.023,17.965"/>
        <path class="cls-25" d="M2498.093,1117.456l14.14-90.726-91.464,8.084"/>
        <path class="cls-25" d="M2465.141,1145.647l14.14-90.723-91.464,8.081"/>
        <path class="cls-25" d="M2422.734,1163.752l34.368-90.276-92.361,28.296"/>
        <path class="cls-7" d="M3006,511.699l-66.236,44.192-10.867-47.383-39.09,65.516-7.01-31.532-31.931,67.202-4.49-30.939-24.772,68.882-14.165-33.214-24.848,83.808-14.169-33.214-24.848,83.808-14.165-33.218-24.848,83.811-12.426,41.904,7.083,16.609,26.594-8.689,46.1-33.985,92.196-67.972-53.182,17.379,92.199-67.969-53.182,17.376,92.196-67.969-53.182,17.376,92.123-53.043-62.861,15.1,99.282-51.363-60.344,15.693,72.767-57.597-62.937,30.026,39.013-50.593Z"/>
        <path class="cls-34" d="M2980.458,535.599l-96.046,82.236-185.996,240.756"/>
        <path class="cls-34" d="M2844.19,756.236l-106.593,50.821-8.984-78.271"/>
        <path class="cls-34" d="M2882.218,705.804l-107.163,50.223-8.895-77.945"/>
        <path class="cls-34" d="M2920.246,654.827l-105.341,50.628-8.011-78.078"/>
        <path class="cls-34" d="M2951.937,618.342l-98.658,36.203-11.446-62.027"/>
        <path class="cls-34" d="M2989.965,581.376l-105.956,35.952-4.123-62.838"/>
        <path class="cls-34" d="M3004.263,548.009l-98.072,48.796,18.938-74.006"/>
        <path class="cls-9" d="M2645.049,427.52l30.096,67.471,38.808-35.661-6.687,73.553,25.631-23.834-13.947,71.788,23.08-24.455-21.204,70.019,32.891-22.066-30.391,82.819,32.891-22.066-30.391,82.819,32.888-22.066-30.391,82.819-15.192,41.413-16.447,11.034-17.696-19.347-18.944-49.722-37.889-99.44,35.388,38.687-37.889-99.44,35.392,38.687-37.889-99.44,35.388,38.687-47.076-86.641,45.2,41.077-54.333-88.409,42.649,40.456-27.453-81.865,36.013,53.876-2.497-60.753Z"/>
        <path class="cls-27" d="M2654.049,459.419l30.093,113.311,11.104,289.154"/>
        <path class="cls-27" d="M2635.035,709.772l59.761,90.295,54.421-61.926"/>
        <path class="cls-27" d="M2628.697,649.56l62.176,90.349,55.135-61.691"/>
        <path class="cls-27" d="M2628.697,589.349l60.566,90.494,53.617-62.125"/>
        <path class="cls-27" d="M2625.528,541.814l61.365,76.17,47.133-48.663"/>
        <path class="cls-27" d="M2616.021,494.279l68.546,77.996,39.949-50.505"/>
        <path class="cls-27" d="M2622.663,460.361l54.345,85.941,30.711-72.71"/>
        <path class="cls-17" d="M2245.769,927.971l86.859-61.704-43.53-21.308,76.126,11.206-26.157-33.645,73.981,25.789-26.157-33.649,73.981,25.789-26.157-33.649,89.205,28.03-26.157-33.649,87.059,42.614-26.157-33.649,89.205,28.03,43.53,21.305,13.082,16.824-17.373,12.343-47.827,7.856-77.162,33.338,14.118-27.719-95.647,15.718,34.745-24.683-97.793,30.302,34.745-24.683-82.569,32.543,36.89-39.267-84.711,47.123,36.887-39.264-69.487,49.367,39.036-53.848-82.565,32.54Z"/>
        <path class="cls-10" d="M2273.216,911.584l89.816-40.557,47.824-7.859,39.92-1.575,68.802,2.681,62.03,1.296,122.825,11.016"/>
        <path class="cls-10" d="M2573.597,919.5l68.615-43.438-69.978-52.976"/>
        <path class="cls-10" d="M2496.73,913.584l84.679-46.889-69.978-52.976"/>
        <path class="cls-10" d="M2442.087,912.183l77.539-48.182-70.561-49.025M2339.667,924.574l71.636-63.947-57.771-30.226"/>
        <path class="cls-10" d="M2307.987,928.62l55.648-61.013-44.401-15.379M2387.304,917.763l70.729-57.787-56.789-36.903"/>
        <path class="cls-40" d="M2709.507,1440.229h170.36s11.209-25.717,12.47-37.106c1.518-13.684,1.47-18.076-1.657-30.679-3.242-13.06-7.948-22.034-16.045-30.758-7.634-8.23-18.393-13.326-29.412-16.105-9.824-2.481-20.928-3.54-29.548-1.607-16.374,3.673-27.01,9.491-44.81,15.604-12.838,4.408-22.652,5.923-35.636,6.725-7.938.488-17.119-1.667-25.723-3.663v97.59ZM2684.155,1440.229h-170.36s-11.209-25.717-12.47-37.106c-1.518-13.684-1.47-18.076,1.657-30.679,3.242-13.06,7.948-22.034,16.045-30.758,7.634-8.23,18.393-13.326,29.412-16.105,9.827-2.481,20.928-3.54,29.548-1.607,16.374,3.673,27.013,9.491,44.81,15.604,12.841,4.408,22.652,5.923,35.636,6.725,7.941.488,17.119-1.667,25.723-3.663v97.59ZM2673.463,1595.315c-24.157.304-48.312.814-72.279,2.44-17.686,1.426-37.851,3.052-55.062,5.698l-4.376.811c-10.841,2.24-12.362,16.07-6.655,23.596,11.602,15.563,80.36,27.665,161.575,27.665s149.878-12.102,161.48-27.665c5.707-7.526,4.186-21.356-6.655-23.596l-4.376-.811c-17.116-2.646-37.372-4.272-55.062-5.698-23.967-1.626-48.121-2.136-72.279-2.44h-46.312Z"/>
        <path class="cls-35" d="M2712.467,1609.629c-5.542-.972-11.032-2.219-16.45-3.736-4.317-1.265-8.589-2.678-12.809-4.237,1.217,2.12,2.991,4.237,7.292,5.853-3.457-.101-8.04,1.312-9.723,2.12,1.683.707,6.452,2.12,9.91,2.019-4.205,1.613-5.796,3.733-6.731,5.853,3.648-1.413,7.574-2.725,11.687-3.936,5.537-1.597,11.153-2.911,16.824-3.936h0ZM2649.09,1608.72c-5.557-.762-11.066-1.84-16.501-3.229-4.375-1.061-8.693-2.34-12.939-3.835,1.125,2.12,3.001,4.139,7.409,5.65-3.565,0-8.065,1.616-9.659,2.424,1.689.707,6.471,1.917,9.938,1.714-4.123,1.714-5.717,3.936-6.655,6.056,3.657-1.515,7.501-3.03,11.624-4.342,5.251-1.714,10.784-3.128,16.783-4.44h0ZM2585.713,1612.868c-5.641-.388-11.259-1.066-16.831-2.031-4.608-.814-9.029-1.727-13.164-2.846,1.315,2.031,3.29,3.961,7.802,5.08-3.476.304-7.897,2.234-9.498,3.15,1.787.507,6.585,1.42,10.062,1.014-4.041,2.031-5.454,4.367-6.205,6.601,3.575-1.829,7.336-3.654,11.38-5.28,5.355-2.251,10.851-4.152,16.454-5.688h0ZM2775.822,1610.38c-6.477.903-12.546,1.908-18.2,3.21-5.039,1.103-9.77,2.408-14.191,3.911,1.337-2.104,3.29-4.212,8.122-5.615-3.803-.101-8.841-1.603-10.591-2.405,1.851-.703,7.095-1.908,10.901-1.806-4.525-1.705-6.275-3.812-7.2-6.018,4.012,1.607,8.227,3.011,12.752,4.414,5.657,1.603,11.722,3.109,18.406,4.31h0ZM2836.049,1615.793c-5.923.406-11.472,1.017-16.739,1.93-4.459.796-8.882,1.778-13.259,2.944,1.41-2.031,3.384-3.961,7.9-5.077-3.575-.304-7.992-2.234-9.593-3.15,1.787-.609,6.582-1.521,10.157-1.014-4.044-2.031-5.549-4.367-6.3-6.604,3.73,1.892,7.524,3.654,11.377,5.283,5.39,2.161,10.882,4.06,16.457,5.688h0Z"/>
        <path class="cls-37" d="M2695.082,1623.829c-96.591,0-155.136,6.189-150.297,10.914,33.874,15.633,100.578,20.672,150.297,20.776,49.627-.105,116.328-5.143,150.202-20.776,4.839-4.725-53.702-10.914-150.202-10.914Z"/>
        <path class="cls-24" d="M2847.026,1638.064c.856-2.843-2.95-3.673-6.943-4.266-15.503-2.488-32.717-4.145-48.027-5.568-23.967-1.895-48.125-2.488-72.279-2.843h-46.318c-24.154.355-48.312.948-72.276,2.843-15.313,1.423-32.527,3.08-48.03,5.568-3.993.593-7.799,1.423-6.943,4.266"/>
        <path class="cls-24" d="M2675.047,1596.899c-24.157.304-48.312.814-72.279,2.44-17.686,1.426-37.848,3.052-55.062,5.698l-4.376.811c-10.841,2.24-12.362,16.07-6.655,23.596,11.602,15.563,80.36,27.665,161.575,27.665s149.878-12.102,161.48-27.665c5.707-7.526,4.186-21.356-6.655-23.596l-4.376-.811c-17.116-2.646-37.372-4.272-55.062-5.698-23.967-1.626-48.121-2.136-72.279-2.44h-46.312Z"/>
        <path class="cls-42" d="M2824.786,1573.201l11.624-37.264,4.696-15.427,11.637-7.935,11.786-29.399,5.552-7.691.856-27.086s-8.141-19.214-20.741-26.116c-18.025-9.871-42.493-8.512-42.493-8.512,0,0-5.65-16.406-16.019-22.788-10.366-6.386-21.876-7.923-33.956-7.923s-33.763,11.855-45.488,15.341c-6.094,1.81-19.86,7.923-19.86,7.923,0,0-13.766-6.113-19.863-7.923-11.722-3.486-33.405-15.341-45.485-15.341s-23.216,1.306-33.959,7.923c-9.989,6.151-23.704,22.788-23.704,22.788,0,0-15.703-2.339-26.734,4.944-13.76,9.089-23.457,28.201-23.457,28.201l.951,29.595,2.168,11.313,8.889,11.215,11.592,22.655,8.306,22.345,8.886,29.161h264.818Z"/>
        <path class="cls-3" d="M2826.371,1574.786l11.627-37.264,4.693-15.427,11.637-7.935,11.786-29.399,5.552-7.691.856-27.086s-8.141-19.214-20.741-26.116c-18.025-9.868-42.493-8.512-42.493-8.512,0,0-5.65-16.406-16.016-22.788-10.366-6.386-21.879-7.923-33.959-7.923s-33.763,11.855-45.488,15.341c-6.094,1.81-19.86,7.923-19.86,7.923,0,0-13.766-6.113-19.863-7.923-11.722-3.486-33.405-15.341-45.485-15.341s-23.216,1.306-33.959,7.923c-9.989,6.151-23.704,22.788-23.704,22.788,0,0-15.703-2.339-26.734,4.947-13.76,9.086-23.457,28.198-23.457,28.198l.951,29.595,2.168,11.313,8.889,11.215,11.592,22.655,8.306,22.345,8.889,29.161h264.815Z"/>
        <path class="cls-41" d="M2840.441,1316.486c12.53,3.014,25.828,9,36.298,20.25,9.71,10.42,16.165,22.725,19.889,37.67,3.483,13.985,3.587,22.304,2.041,36.231-1.993,17.921-12.159,35.905-12.159,35.905l-17.521-3.391s10.559-24.132,11.747-34.821c1.426-12.844,1.385-16.964-1.562-28.794-3.052-12.255-7.485-20.675-15.11-28.867-7.194-7.723-17.325-12.505-27.704-15.116-9.253-2.323-19.711-3.318-27.834-1.505-15.421,3.448-25.438,8.908-42.205,14.644-12.093,4.139-21.334,5.558-33.56,6.309-7.482.463-16.127-1.562-24.23-3.435-8.106-1.876-14.894-3.816-14.894-3.816l4.56-18.976s6.474,1.86,14.112,3.625c7.634,1.765,17.17,3.201,19.407,3.061,11.529-.71,18.298-1.752,29.136-5.463,15.519-5.308,26.502-11.196,44.03-15.161,11.808-2.671,23.92-1.154,35.56,1.648h0Z"/>
        <path class="cls-11" d="M2842.026,1318.07c12.53,3.014,25.828,9,36.298,20.25,9.71,10.42,16.165,22.725,19.889,37.67,3.483,13.985,3.587,22.304,2.041,36.231-1.993,17.921-12.159,35.905-12.159,35.905l-17.521-3.391s10.559-24.132,11.747-34.821c1.426-12.844,1.385-16.964-1.562-28.794-3.052-12.255-7.485-20.675-15.11-28.867-7.194-7.723-17.325-12.505-27.704-15.116-9.253-2.323-19.711-3.318-27.834-1.505-15.421,3.448-25.438,8.908-42.205,14.644-12.093,4.139-21.334,5.558-33.56,6.309-7.482.463-16.127-1.562-24.23-3.435-8.106-1.876-14.894-3.816-14.894-3.816l4.56-18.976s6.474,1.86,14.112,3.625c7.634,1.765,17.17,3.201,19.407,3.061,11.529-.71,18.298-1.752,29.136-5.463,15.519-5.308,26.502-11.196,44.03-15.161,11.808-2.671,23.92-1.154,35.56,1.648h0Z"/>
        <path class="cls-4" d="M2892.435,1427.35c-.006,6.116,4.247,11.082,9.494,11.092,5.251.006,9.513-4.944,9.523-11.06v-.032c.006-6.116-4.247-11.085-9.494-11.092-5.251-.009-9.513,4.944-9.523,11.06v.032ZM2898.773,1401.995c-.006,6.116,4.247,11.085,9.494,11.092,5.251.009,9.513-4.944,9.52-11.06v-.032c.009-6.116-4.243-11.082-9.491-11.092-5.251-.006-9.513,4.944-9.523,11.06v.032ZM2895.604,1375.087c-.003,5.247,4.247,9.503,9.494,9.507,5.247.011,9.509-4.234,9.52-9.482h0v-.025c.003-5.246-4.245-9.502-9.491-9.507-5.247-.012-9.511,4.231-9.523,9.478v.029ZM2886.1,1349.735c-.003,5.246,4.245,9.502,9.491,9.507,5.247.012,9.511-4.231,9.523-9.478v-.029c.003-5.247-4.247-9.503-9.494-9.507-5.247-.011-9.509,4.234-9.52,9.482h0v.025ZM2867.204,1329.105c-.003,6.122,4.957,11.088,11.079,11.092,6.12.011,11.09-4.94,11.104-11.06v-.032c.005-6.12-4.952-11.086-11.073-11.092h-.003c-6.121-.012-11.093,4.939-11.107,11.06v.032ZM2845.024,1316.429c-.003,6.121,4.955,11.086,11.076,11.092,6.121.012,11.093-4.939,11.107-11.06v-.032c.003-6.121-4.955-11.086-11.076-11.092-6.121-.012-11.093,4.939-11.107,11.06v.032ZM2819.671,1310.091c-.003,6.122,4.957,11.088,11.079,11.092,6.12.011,11.09-4.94,11.104-11.06v-.032c.003-6.121-4.955-11.086-11.076-11.092-6.121-.012-11.093,4.939-11.107,11.06v.032ZM2794.202,1310.091c-.006,6.116,4.247,11.082,9.494,11.092,5.251.006,9.513-4.944,9.52-11.06v-.032c.009-6.116-4.243-11.085-9.494-11.092-5.251-.009-9.513,4.944-9.52,11.06v.032ZM2724.487,1330.721c-.003,5.247,4.247,9.503,9.494,9.507,5.247.011,9.509-4.234,9.52-9.482h0v-.029c.003-5.247-4.247-9.503-9.494-9.507-5.247-.011-9.509,4.234-9.52,9.482h0v.029ZM2768.853,1319.598c-.009,6.116,4.243,11.082,9.494,11.092,5.248.009,9.51-4.944,9.52-11.06v-.032c.006-6.116-4.247-11.082-9.494-11.092-5.251-.009-9.513,4.944-9.52,11.06v.032ZM2746.67,1325.936c-.006,6.116,4.243,11.082,9.494,11.092,5.251.009,9.513-4.944,9.52-11.06v-.032c.006-6.116-4.243-11.082-9.494-11.092-5.251-.009-9.513,4.944-9.52,11.06v.032Z"/>
        <path class="cls-41" d="M2550.952,1316.486c-12.724,3.014-26.224,9.003-36.859,20.247-9.856,10.423-16.412,22.728-20.193,37.67-3.537,13.988-3.644,22.307-2.073,36.234,2.025,17.921,12.346,35.908,12.346,35.908l17.791-3.391s-10.721-24.135-11.928-34.824c-1.448-12.844-1.404-16.964,1.588-28.794,3.099-12.255,7.599-20.675,15.344-28.867,7.301-7.723,17.591-12.505,28.128-15.113,9.396-2.326,20.015-3.321,28.261-1.508,15.658,3.448,25.831,8.908,42.851,14.644,12.28,4.139,21.666,5.558,34.08,6.313,7.596.459,16.374-1.565,24.604-3.438,8.227-1.876,15.122-3.816,15.122-3.816l-4.63-18.976s-6.579,1.86-14.33,3.625c-7.751,1.765-17.436,3.198-19.708,3.061-11.703-.71-18.577-1.752-29.583-5.463-15.756-5.308-26.911-11.196-44.705-15.161-11.992-2.671-24.29-1.154-36.108,1.648h0Z"/>
        <path class="cls-11" d="M2552.536,1318.07c-12.724,3.014-26.224,9.003-36.859,20.247-9.856,10.423-16.412,22.728-20.193,37.673-3.537,13.985-3.644,22.304-2.073,36.231,2.025,17.921,12.346,35.908,12.346,35.908l17.791-3.391s-10.721-24.135-11.928-34.824c-1.448-12.844-1.404-16.964,1.588-28.794,3.099-12.255,7.599-20.675,15.344-28.863,7.301-7.726,17.591-12.508,28.128-15.116,9.396-2.326,20.015-3.321,28.261-1.508,15.658,3.448,25.831,8.908,42.851,14.644,12.28,4.139,21.666,5.558,34.083,6.313,7.593.459,16.371-1.565,24.601-3.438,8.227-1.876,15.122-3.816,15.122-3.816l-4.63-18.976s-6.576,1.86-14.33,3.625c-7.751,1.765-17.433,3.201-19.708,3.061-11.703-.71-18.577-1.752-29.583-5.463-15.756-5.308-26.911-11.196-44.705-15.161-11.992-2.671-24.29-1.154-36.108,1.648Z"/>
        <path class="cls-4" d="M2501.205,1427.35c.006,6.116-4.243,11.082-9.494,11.092s-9.513-4.944-9.52-11.06v-.032c-.009-6.116,4.243-11.082,9.494-11.092,5.248-.009,9.51,4.944,9.52,11.06v.032ZM2498.036,1401.995c.006,6.119-4.243,11.085-9.494,11.092-5.251.009-9.513-4.944-9.523-11.06v-.032c-.006-6.116,4.247-11.082,9.494-11.092,5.251-.006,9.513,4.944,9.523,11.063v.029ZM2498.036,1375.087c.003,5.247-4.247,9.503-9.494,9.507-5.248.011-9.511-4.234-9.523-9.482v-.025c0-5.246,4.249-9.5,9.494-9.507,5.247-.009,9.509,4.235,9.523,9.482v.025ZM2507.543,1349.735c.003,5.247-4.247,9.503-9.494,9.507-5.247.011-9.509-4.234-9.52-9.482h0v-.025c-.005-5.245,4.243-9.502,9.488-9.507h.006c5.247-.011,9.509,4.234,9.52,9.482h0v.025ZM2526.557,1329.105c.006,6.116-4.243,11.082-9.494,11.092s-9.513-4.944-9.52-11.06v-.032c-.006-6.116,4.243-11.082,9.494-11.092s9.513,4.944,9.52,11.06v.032ZM2548.74,1316.429c.009,6.116-4.243,11.082-9.494,11.092-5.248.006-9.51-4.944-9.52-11.063v-.029c-.006-6.116,4.243-11.085,9.494-11.092,5.251-.009,9.513,4.944,9.52,11.06v.032ZM2574.095,1310.091c.006,6.116-4.243,11.082-9.494,11.092-5.251.006-9.513-4.944-9.52-11.063v-.029c-.009-6.119,4.243-11.085,9.494-11.092,5.251-.009,9.513,4.944,9.52,11.06v.032ZM2599.447,1310.091c.009,6.116-4.243,11.082-9.494,11.092-5.251.006-9.51-4.944-9.52-11.063v-.029c-.006-6.119,4.243-11.085,9.494-11.092,5.251-.009,9.513,4.944,9.52,11.06v.032ZM2672.217,1330.721c.009,5.242-4.95,9.498-11.076,9.507-6.126.006-11.098-4.24-11.107-9.482v-.025c-.006-5.245,4.953-9.501,11.079-9.507,6.126-.009,11.098,4.237,11.104,9.479v.029ZM2624.802,1319.598c.006,6.116-4.243,11.082-9.494,11.092s-9.513-4.944-9.52-11.06v-.032c-.009-6.116,4.243-11.082,9.494-11.092,5.248-.009,9.51,4.944,9.52,11.06v.032ZM2646.986,1325.936c.006,6.116-4.243,11.082-9.494,11.092-5.251.009-9.513-4.944-9.52-11.06v-.032c-.006-6.116,4.243-11.082,9.494-11.092,5.251-.009,9.513,4.944,9.52,11.06v.032Z"/>
        <path class="cls-22" d="M2674.68,1283.411c2.652-3.651,5.821-6.36,8.388-10.071,2.697-3.898,4.754-8.826,5.812-13.804-4.69,1.271-9.222,3.508-12.806,6.443-3.416,2.789-5.907,6.233-9.266,9.117v-46.749c3.359,2.884,5.85,6.329,9.266,9.12,3.584,2.931,8.116,5.169,12.806,6.439-1.058-4.975-3.115-9.903-5.812-13.801-2.567-3.714-5.736-6.424-8.388-10.074h47.637c-2.652,3.651-5.818,6.36-8.385,10.074-2.7,3.898-4.757,8.826-5.815,13.801,4.69-1.271,9.222-3.508,12.809-6.439,3.413-2.792,5.907-6.237,9.263-9.12v46.749c-3.356-2.884-5.85-6.329-9.263-9.117-3.587-2.934-8.119-5.172-12.809-6.443,1.058,4.979,3.115,9.906,5.815,13.804,2.567,3.711,5.733,6.42,8.385,10.071h-47.637Z"/>
        <path class="cls-4" d="M2707.225,1251.47c.009,6.991-4.95,12.667-11.076,12.676-6.126.009-11.098-5.647-11.107-12.641v-.035c-.006-6.991,4.95-12.667,11.076-12.676,6.126-.009,11.101,5.65,11.107,12.641v.035Z"/>
        <path class="cls-41" d="M2721.438,1310.1c.019,15.731-12.023,28.499-26.902,28.521-14.875.022-26.952-12.714-26.971-28.442v-.079c-.022-15.731,12.023-28.499,26.899-28.521,14.879-.022,26.952,12.711,26.975,28.442v.079Z"/>
        <path class="cls-1" d="M2723.023,1311.685c.019,15.731-12.023,28.499-26.899,28.521-14.879.022-26.956-12.711-26.975-28.442v-.079c-.022-15.731,12.023-28.499,26.899-28.521,14.879-.022,26.952,12.711,26.975,28.442v.079Z"/>
        <path class="cls-41" d="M2691.127,1278.654v25.2h-22.735v12.828h57.042v-12.828h-22.776v-25.2h-11.532Z"/>
        <path class="cls-32" d="M2692.711,1280.239v25.2h-22.735v12.828h57.042v-12.828h-22.772v-25.2h-11.535Z"/>
        <path class="cls-41" d="M2712.758,1332.521v107.746h-34.859v-107.746h34.859Z"/>
        <path class="cls-11" d="M2714.343,1334.105v107.746h-34.859v-107.746h34.859Z"/>
        <path class="cls-41" d="M2681.049,1332.22v107.746h-9.507v-107.746h9.507Z"/>
        <path class="cls-20" d="M2677.88,1333.804c2.633,0,4.754,2.304,4.754,5.166v97.415c0,2.862-2.12,5.166-4.754,5.166s-4.754-2.304-4.754-5.166v-97.415c0-2.862,2.12-5.166,4.754-5.166Z"/>
        <path class="cls-41" d="M2719.071,1332.22v107.746h-9.507v-107.746h9.507Z"/>
        <path class="cls-20" d="M2720.659,1333.804v107.746h-9.51v-107.746h9.51Z"/>
        <path class="cls-4" d="M2707.2,1335.443c.006,6.116-4.243,11.082-9.494,11.092s-9.513-4.944-9.52-11.06v-.032c-.006-6.116,4.243-11.082,9.494-11.092s9.513,4.944,9.52,11.06v.032ZM2707.2,1357.629c.006,6.116-4.243,11.082-9.494,11.092-5.251.006-9.513-4.944-9.52-11.063v-.029c-.006-6.119,4.243-11.085,9.494-11.092,5.251-.009,9.513,4.944,9.52,11.06v.032Z"/>
        <path class="cls-4" d="M2707.2,1379.812c.006,6.116-4.243,11.082-9.494,11.092s-9.513-4.944-9.52-11.06v-.032c-.006-6.116,4.243-11.082,9.494-11.092s9.513,4.944,9.52,11.06v.032ZM2707.2,1400.442c.002,5.246-4.248,9.502-9.494,9.507-5.247.011-9.509-4.234-9.52-9.482h0v-.025c-.003-5.247,4.247-9.503,9.494-9.507,5.245-.012,9.507,4.23,9.52,9.475v.032Z"/>
        <path class="cls-4" d="M2707.2,1421.012c.006,6.116-4.243,11.082-9.494,11.092-5.251.006-9.513-4.944-9.52-11.063v-.029c-.006-6.119,4.243-11.085,9.494-11.092,5.251-.009,9.513,4.944,9.52,11.06v.032Z"/>
        <path class="cls-41" d="M2871.368,1489.187c-9.428,22.811-16.979,45.079-24.379,67.994h-303.94c-7.153-22.151-14.448-45.979-23.441-67.994,0,0,18.916,28.642,33.081,35.569,7.869,3.847,17.712,4.994,25.846,1.867,10.721-4.126,24.984-25.175,24.984-25.175,0,0,12.825,16.244,21.537,20.513,8.179,4.002,17.743,4.167,26.708,3.727,7.935-.387,16.726-.71,23.264-5.593,9.897-7.393,19.813-32.631,19.813-32.631,0,0,9.596,19.857,17.233,27.038,6.3,5.926,14.213,10.35,22.399,12.122,8.186,1.771,17.132,1.198,24.984-1.867,10.648-4.155,27.57-21.442,27.57-21.442,0,0,11.646,15.633,19.816,19.578,7.904,3.819,17.417,4.944,25.843,2.795,8.921-2.269,16.415-9.26,23.264-15.848,6.113-5.879,15.417-20.652,15.417-20.652h0Z"/>
        <path class="cls-11" d="M2872.952,1490.772c-9.428,22.811-16.979,45.079-24.379,67.994h-303.94c-7.153-22.151-14.448-45.979-23.441-67.994,0,0,18.916,28.645,33.081,35.569,7.869,3.847,17.712,4.994,25.846,1.867,10.721-4.126,24.984-25.175,24.984-25.175,0,0,12.825,16.244,21.54,20.513,8.176,4.006,17.74,4.167,26.705,3.727,7.935-.387,16.726-.71,23.264-5.593,9.897-7.393,19.813-32.631,19.813-32.631,0,0,9.596,19.857,17.233,27.038,6.3,5.926,14.213,10.35,22.399,12.122,8.186,1.771,17.132,1.198,24.984-1.867,10.648-4.151,27.57-21.442,27.57-21.442,0,0,11.646,15.633,19.816,19.578,7.907,3.819,17.417,4.944,25.846,2.795,8.918-2.269,16.412-9.26,23.261-15.848,6.113-5.879,15.417-20.652,15.417-20.652h0Z"/>
        <path class="cls-41" d="M2695.487,1501.689s-6.921,11.386-11.174,15.275c-5.91,5.403-9.795,8.658-17.385,11.215-7.577,2.554-18.146,3.99-26.078,3.527-7.672-.45-15.563-2.827-22.478-6.411-6.012-3.112-15.588-12.175-15.588-12.175-4.655,6.458-10.581,10.993-16.222,14.343-7.216,4.288-14.346,4.674-21.835,4.243-15.221-.878-29.421-11.044-40.814-31.655-7.387-18.675-15.88-37.588-26.49-57.419,12.226-4.624,26.477-7.089,42.284-7.891-6.43,19.363-13.098,38.228-10.74,53.816,13.281-10.635,17.575-25.108,22.148-39.467l15.439,58.123c-9.371-1.756-4.386-3.825-28.993-8.813,4.931,9.938,16.216,22.212,28.661,23.419,8.369.811,14.444-1.952,19.762-6.883,3.822-3.543,7.305-8.227,7.26-13.506l-.079-9.07c-.019-1.943-2.26-4.69-4.075-4.719-1.73-.025-2.212,2.979-2.672,4.763-.925,3.568.932,7.542,0,11.107-1.03,3.933-3.001,7.038-6.237,9.206-2.697,1.806-9.203,2.221-9.203,2.221l2.079-8.569c1.464-6.046-4.025-10.74-5.346-16.824-.849-3.917-1.318-8.297,0-12.061,1.426-4.072,4.313-8.037,8.018-9.84,1.35-.656,2.972-.748,4.453-.634,2.095.158,6.237,1.585,6.237,1.585,0,0-1.188-6.126-.894-9.84.361-4.503,3.93-12.844,5.939-16.821,3.337-6.604,8.642-12.556,9.247-13.193.58.624,6.332,6.344,10.087,12.686,2.263,3.819,4.586,9.336,5.238,13.801.539,3.682.345,11.469.345,11.469,0,0,6.116-2.684,8.195-2.998,1.47-.225,3.093-.253,4.484.301,3.812,1.521,6.95,5.261,8.639,9.219,1.559,3.66,1.375,8.062.783,12.033-.922,6.167-4.31,10.939-2.456,16.862l2.633,8.395s-6.522.07-9.326-1.531c-3.372-1.924-5.539-4.874-6.82-8.721-1.163-3.486-.488-7.761-2.503-10.765-.894-1.328-2.142-2.798-3.866-2.646-1.813.162-3.084,3.324-3.16,5.267l-.32,8.163c-.098,2.507.97,5.115,2.228,7.143,3.077,4.972,7.659,7.989,12.828,10.23,5.596,2.424,10.648,3.356,16.688,3.432,5.039.063,13.795-.818,18.57-2.545,5.882-2.123,9.342-4.823,13.893-9.339,2.564-2.545,4.278-6.24,5.406-9.783,1.302-4.078.833-11.117.833-11.117-5.853,2.374-10.943,5.562-15.528,9.285-5.184,4.212-9.726,9.108-14.007,14.283l-.415-70.26c6.097,7.191,10.531,13.63,16.628,19.046,5.134,4.56,7.771,6.3,12.907,8.081-1.467-5.654-1.965-9.082-5.749-14.736-5.248-7.834-10.359-16.251-16.717-24.088,11.703-2.082,23.397-2.643,35.255-2.643s23.552.561,35.252,2.643c-6.354,7.837-11.465,16.254-16.717,24.088-3.784,5.654-4.278,9.082-5.745,14.736,5.134-1.781,7.771-3.521,12.907-8.081,6.097-5.416,10.528-11.855,16.625-19.046l-.415,70.26c-4.278-5.175-8.823-10.071-14.004-14.283-4.589-3.724-9.675-6.912-15.528-9.285,0,0-.469,7.038.83,11.117,1.128,3.543,2.843,7.238,5.406,9.783,4.551,4.516,8.011,7.216,13.893,9.339,4.776,1.727,13.535,2.608,18.574,2.545,6.04-.076,11.088-1.008,16.688-3.432,5.169-2.24,9.748-5.257,12.825-10.23,1.258-2.028,2.326-4.636,2.228-7.143l-.32-8.163c-.076-1.943-1.347-5.105-3.156-5.267-1.727-.152-2.976,1.318-3.866,2.646-2.019,3.004-1.344,7.279-2.507,10.765-1.28,3.847-3.448,6.798-6.817,8.721-2.808,1.6-9.326,1.531-9.326,1.531l2.63-8.395c1.857-5.923-1.534-10.695-2.456-16.862-.593-3.971-.776-8.373.786-12.033,1.689-3.958,4.826-7.697,8.635-9.219,1.391-.555,3.017-.526,4.484-.301,2.079.314,8.195,2.998,8.195,2.998,0,0-.19-7.786.345-11.469.656-4.465,2.976-9.982,5.238-13.801,3.758-6.341,9.507-12.061,10.09-12.686.602.637,5.907,6.588,9.244,13.193,2.009,3.977,5.577,12.318,5.939,16.821.298,3.714-.891,9.84-.891,9.84,0,0,4.139-1.426,6.233-1.585,1.483-.114,3.102-.022,4.456.634,3.702,1.803,6.588,5.768,8.014,9.84,1.318,3.765.852,8.144,0,12.061-1.321,6.085-6.81,10.778-5.343,16.824l2.079,8.569s-6.509-.415-9.206-2.221c-3.236-2.168-5.207-5.273-6.233-9.206-.932-3.565.922-7.539,0-11.107-.463-1.784-.941-4.788-2.675-4.763-1.816.029-4.056,2.776-4.075,4.719l-.076,9.07c-.048,5.28,3.438,9.963,7.257,13.506,5.321,4.931,11.393,7.694,19.762,6.883,12.445-1.207,23.733-13.481,28.664-23.419-24.607,4.988-19.626,7.057-28.997,8.813l15.439-58.123c4.573,14.359,8.87,28.832,22.148,39.467,2.361-15.588-4.31-34.454-10.74-53.816,15.807.802,30.058,3.267,42.287,7.891-10.61,19.832-19.106,38.744-26.493,57.419-11.389,20.611-25.59,30.777-40.814,31.655-7.488.431-14.619.044-21.831-4.243-5.644-3.35-11.57-7.885-16.225-14.343,0,0-9.577,9.063-15.585,12.175-6.915,3.584-14.809,5.961-22.481,6.411-7.932.463-18.501-.973-26.078-3.527-7.59-2.557-11.475-5.812-17.382-11.215-4.256-3.888-11.174-15.275-11.174-15.275Z"/>
        <path class="cls-41" d="M2564.728,1531.259c-15.221-.881-29.421-11.12-40.814-31.88-7.387-18.811-15.88-37.857-26.49-57.831,12.226-4.658,26.477-7.143,42.284-7.948-6.43,19.502-13.098,38.504-10.74,54.203,13.281-10.711,17.575-25.289,22.148-39.749l15.439,58.538c-9.371-1.768-4.386-3.854-28.993-8.876,4.931,10.011,16.216,22.37,28.661,23.587l-1.496,9.957ZM2824.748,1521.302c12.445-1.217,23.733-13.576,28.664-23.587-24.607,5.023-19.626,7.108-28.997,8.876l15.439-58.538c4.573,14.46,8.87,29.038,22.148,39.749,2.361-15.699-4.31-34.701-10.74-54.203,15.807.805,30.058,3.289,42.287,7.948-10.61,19.974-19.106,39.02-26.493,57.831-11.389,20.76-25.59,30.999-40.814,31.88l-.291.58-1.204-10.537Z"/>
        <path class="cls-41" d="M2639.687,1532.147c-7.602-.456-15.427-2.881-22.278-6.528-5.958-3.172-15.446-12.404-15.446-12.404-4.614,6.579-10.489,11.199-16.079,14.612-7.153,4.367-14.216,4.76-21.638,4.319l-.26,2.858,1.743-12.93c8.293.83,14.311-1.987,19.584-7.01,3.787-3.61,7.238-8.382,7.194-13.76l-.079-9.238c-.016-1.981-2.237-4.779-4.037-4.807-1.718-.025-2.19,3.033-2.649,4.849-.916,3.638.925,7.685,0,11.32-1.017,4.006-2.972,7.168-6.18,9.374-2.672,1.841-9.12,2.266-9.12,2.266l2.06-8.731c1.451-6.161-3.987-10.939-5.295-17.138-.843-3.99-1.309-8.452,0-12.286,1.413-4.151,4.275-8.189,7.945-10.024,1.337-.672,2.944-.764,4.411-.647,2.076.162,6.18,1.616,6.18,1.616,0,0-1.179-6.243-.881-10.024.358-4.589,3.892-13.088,5.885-17.138,3.305-6.728,8.563-12.79,9.162-13.44.577.637,6.275,6.465,9.998,12.923,2.244,3.888,4.541,9.51,5.191,14.058.532,3.752.342,11.684.342,11.684,0,0,6.059-2.735,8.122-3.055,1.455-.228,3.064-.257,4.443.307,3.778,1.55,6.886,5.362,8.559,9.393,1.546,3.727,1.366,8.211.776,12.258-.913,6.281-4.272,11.142-2.431,17.176l2.605,8.553s-6.462.07-9.241-1.562c-3.34-1.958-5.489-4.963-6.759-8.88-1.15-3.556-.482-7.907-2.481-10.968-.884-1.353-2.12-2.852-3.831-2.697-1.794.165-3.055,3.388-3.128,5.365l-.32,8.315c-.095,2.554.963,5.21,2.209,7.279,3.049,5.064,7.59,8.135,12.711,10.417,5.549,2.472,10.553,3.422,16.539,3.499l-3.524,10.822Z"/>
        <path class="cls-35" d="M2793.676,1501.997l-.174-.32c-.212-3.882,1.008-10.527,1.008-10.527.681-3.312,3.318-6.851,6.582-8.122,1.762-.688,3.898-.951,5.793.048,1.154.605,2.085,1.077,2.852,1.936.767.856,1.242,1.981,1.756,3.587.751,2.348.425,4.795.044,6.893-.627,3.461-.558,6.487.349,8.829.643,1.654,1.936,2.896,3.6,3.968-.311-1.182-.532-1.756-.703-3.068-.231-1.937.026-3.901.748-5.714,1.204-3.064,2.868-5.482,3.993-8.17,1.071-2.564,1.632-5.47,1.448-8.214-.152-2.266-.776-4.608-1.974-6.233-1.302-1.765-3.286-3.229-5.267-3.638-1.762-.361-4.655.285-6.978,1.087-2.32.805-4.078,1.702-4.078,1.702l-2.063,1.036.352-2.405c1.204-8.1,2.272-12.213,0-19.784-.935-3.115-2.497-6.55-5.134-10.531-1.284-1.933-2.716-4.243-4.345-6.376-4.253,5.21-7.216,10.486-8.908,15.82-1.854,5.837-1.927,13.598-1.493,19.832l.174,2.5-1.974-1.274s-2.244-1.48-4.96-2.881c-2.713-1.398-6.018-2.633-7.416-2.5-2.63.247-4.386,1.6-6.097,3.964-1.455,2.006-1.768,3.749-2.063,6.515-.187,1.749.222,5.039.482,7.178.304,2.507,1.676,5.143,2.063,8.309.127,1.049.428,1.87.659,2.881.228,1.011.342,2.199.085,3.59-.174.96-.44,1.654-.789,2.833.672-.352,1.134-.529,1.493-.805,1.302-1.005,1.829-2.792,2.678-4.956.453-1.166.555-2.212.612-3.448.06-1.233.117-2.684.703-4.297,1.001-2.751,2.184-6.018,4.782-8.027,2.126-1.626,4.915-2.103,7.46-1.274,1.477.488,2.532,1.47,3.293,2.599.757,1.125,1.268,2.358,1.8,3.587.678,1.572,1.084,3.923,1.404,5.996.317,2.073.482,3.825.482,3.825l.044.19-.044.235-1.813,6.484-2.313-.558,1.756-6.202c-.139-1.184-.3-2.365-.482-3.543-.307-1.996-.77-4.376-1.185-5.337-.542-1.255-1.033-2.348-1.578-3.163-.548-.814-1.106-1.334-2.063-1.651-1.718-.57-3.949-.222-5.397.897-1.841,1.42-2.96,4.17-3.952,6.893-.431,1.182-.466,2.247-.526,3.495-.06,1.245-.121,2.697-.745,4.297-.776,1.981-1.417,4.424-3.511,6.043-1.543,1.192-4.345,2.361-4.345,2.361l-2.456,1.084.878-2.69s1.236-3.949,1.489-5.333c.158-.831.128-1.686-.085-2.504-.193-.849-.542-1.835-.703-3.163-.304-2.507-1.676-5.143-2.063-8.312-.25-2.063-.745-5.327-.482-7.789.307-2.874.754-5.365,2.545-7.84,1.962-2.706,4.446-4.595,7.767-4.909,2.627-.247,5.856,1.277,8.689,2.738,1.822.941,2.377,1.372,3.29,1.936-.295-5.983-.206-12.882,1.626-18.65,1.939-6.116,5.264-12.144,10.312-17.99l.878-.992.878.992c2.345,2.716,3.949,5.698,5.397,7.885,2.76,4.167,4.472,7.859,5.486,11.237,2.171,7.235,1.375,12.172.352,18.84.799-.361,1.078-.561,2.456-1.039,2.481-.859,5.508-1.67,8.119-1.131,2.668.548,5.074,2.307,6.712,4.532,1.629,2.209,2.326,5.032,2.5,7.65.222,3.248-.447,6.573-1.667,9.491-1.261,3.017-2.931,5.422-3.993,8.119-.532,1.359-.795,2.938-.615,4.345.273,2.111,1.318,5.524,1.318,5.524l.745,2.408-2.282-.802c-3.641-1.331-6.027-3.739-7.197-6.753-1.169-3.014-1.163-6.531-.482-10.293.358-1.974.548-3.949.044-5.524-.469-1.458-.808-2.171-1.23-2.643-.421-.472-1.071-.827-2.193-1.417-1.039-.548-2.643-.463-3.952.044-2.168.846-4.766,3.971-5.001,6.186-.415,3.914-1.448,7.891-3.204,10.372h0ZM2862.13,1497.386l.615-1.325-1.315-.472c-9.802-3.337-18.849-.811-27.383,3.071,3.384-9.929,6.04-20.091,7.945-30.407,9.301,17.984,17.195,23.866,24.617,27.526l1.36.662.307-1.607c2.215-12.28,2.386-28.638-6.978-52.976,10.493.586,20.925,1.939,31.288,6.893l.967-2.361c-11.377-5.438-22.741-6.791-33.966-7.317l-1.93-.095.789,1.889c9.615,24.018,9.618,39.651,7.678,51.702-7.13-3.733-14.349-9.374-23.562-28.283l-1.626-3.305-.615,3.682c-2,11.922-5.124,23.859-9.345,35.791l-1.052,2.928,2.63-1.321c8.62-4.208,17.331-6.946,26.724-4.297l.231.155,2.621-.533ZM2534.863,1497.763c9.38-2.633,18.073.092,26.68,4.297l2.633,1.321-1.008-2.928c-4.149-11.636-7.277-23.612-9.349-35.791l-.615-3.682-1.623,3.305c-9.219,18.916-16.473,24.55-23.609,28.283-1.936-12.052-1.892-27.684,7.723-51.702l.748-1.889-1.889.095c-11.225.526-22.586,1.879-33.962,7.317l.963,2.361c10.375-4.96,20.782-6.309,31.288-6.893-9.361,24.338-9.19,40.697-6.975,52.976l.263,1.607,1.404-.662c7.416-3.657,15.322-9.526,24.617-27.482,1.905,10.3,4.559,20.448,7.941,30.362-8.531-3.882-17.582-6.408-27.38-3.071l-1.318.472.615,1.325-.254.136,3.106.241h0ZM2611.93,1503.47l-1.372-5.517c.025-.235.155-1.559.44-3.4.307-1.996.814-4.38,1.226-5.337.545-1.258,1.033-2.348,1.581-3.163s1.106-1.334,2.063-1.654c1.718-.567,3.904-.222,5.353.9,1.841,1.42,3.001,4.17,3.993,6.893.431,1.182.469,2.247.529,3.492.057,1.249.117,2.697.745,4.297.773,1.984,1.417,4.427,3.511,6.043,1.543,1.195,4.342,2.361,4.342,2.361l2.415,1.087-.833-2.69s-1.236-3.949-1.493-5.337c-.158-.83-.128-1.684.089-2.5.19-.849.494-1.835.656-3.166.307-2.507,1.68-5.14,2.063-8.309.254-2.066.792-5.327.526-7.793-.304-2.871-.754-5.365-2.545-7.837-1.958-2.706-4.443-4.598-7.767-4.909-2.624-.25-5.853,1.277-8.686,2.738-1.822.938-2.377,1.372-3.293,1.936.298-5.983.209-12.885-1.623-18.653-1.939-6.113-5.267-12.14-10.312-17.987l-.878-.992-.878.992c-2.345,2.716-3.993,5.698-5.441,7.885-2.763,4.164-4.427,7.859-5.441,11.237-2.171,7.235-1.375,12.172-.352,18.84-.799-.364-1.065-.558-2.456-1.039-2.481-.859-5.508-1.67-8.119-1.135-2.668.551-5.074,2.31-6.715,4.535-1.626,2.209-2.323,5.029-2.5,7.65-.219,3.248.447,6.573,1.667,9.488,1.264,3.02,2.935,5.425,3.993,8.122.536,1.359.754,2.934.57,4.345-.273,2.107-1.271,5.524-1.271,5.524l-.748,2.408,2.282-.802c3.644-1.331,6.027-3.739,7.197-6.753,1.169-3.014,1.166-6.531.485-10.293-.358-1.974-.548-3.949-.044-5.524.466-1.461.808-2.174,1.23-2.646s1.024-.824,2.149-1.417c1.039-.545,2.684-.463,3.993.048,2.171.846,4.538,4.006,5.004,6.186v.048c.009.063,1.131,6.81.963,9.868l2.817.536c-.234-4.275-1.455-10.924-1.455-10.924-.681-3.308-3.274-6.848-6.541-8.122-1.759-.685-3.942-.948-5.834.048-1.157.608-2.044,1.081-2.808,1.936-.767.856-1.287,1.984-1.8,3.587-.751,2.348-.425,4.798-.044,6.896.627,3.461.558,6.487-.352,8.829-.64,1.654-1.889,2.893-3.552,3.964.307-1.182.532-1.756.7-3.068.23-1.937-.026-3.901-.745-5.714-1.207-3.064-2.868-5.479-3.993-8.167-1.074-2.567-1.68-5.47-1.493-8.217.152-2.266.773-4.605,1.974-6.233,1.302-1.765,3.331-3.229,5.311-3.635,1.759-.361,4.611.282,6.931,1.087,2.323.802,4.126,1.699,4.126,1.699l2.063,1.039-.396-2.408c-1.207-8.1-2.228-12.21.044-19.784.935-3.112,2.45-6.547,5.089-10.531,1.284-1.933,2.757-4.24,4.389-6.373,4.25,5.207,7.216,10.486,8.908,15.817,1.851,5.837,1.882,13.598,1.448,19.832l-.133,2.504,1.974-1.274s2.202-1.483,4.915-2.881c2.716-1.401,6.065-2.633,7.46-2.504,2.633.247,4.389,1.6,6.1,3.968,1.455,2.006,1.765,3.746,2.063,6.515.187,1.749-.266,5.039-.526,7.175-.307,2.507-1.635,5.143-2.019,8.312-.13,1.046-.431,1.87-.659,2.881-.293,1.174-.338,2.395-.133,3.587.178.96.444,1.657.792,2.833-.675-.352-1.138-.526-1.493-.802-1.302-1.008-1.832-2.792-2.678-4.96-.453-1.163-.51-2.212-.57-3.445-.057-1.236-.114-2.687-.7-4.297-1.005-2.754-2.184-6.021-4.785-8.027-2.124-1.629-4.915-2.106-7.46-1.274-1.37.468-2.544,1.382-3.334,2.595-.761,1.128-1.226,2.361-1.756,3.587-.678,1.575-1.084,3.926-1.404,5.999s-.526,3.825-.526,3.825v.187l.044.238,1.413,5.66.7.082,1.626-.65h0ZM2702.754,1482.558l.044-1.604,1.448.377c6.677,1.8,11.782,4.234,16.016,6.94,5.375,3.432,9.342,7.286,13.516,11.003l.7-42.639c-3.556,4.228-6.893,8.753-11.801,12.372-4.012,2.957-11.529,6.842-18.564,7.697l-1.667.187.352-1.746c.989-4.804.96-8.141,3.204-13.833,2.126-5.403,6.611-13.234,15.534-26.35-7.717-.916-14.441-1.933-24.487-1.933s-16.729,1.017-24.443,1.933c8.924,13.117,13.408,20.947,15.534,26.35,2.24,5.692,2.212,9.029,3.204,13.833l.352,1.746-1.67-.187c-7.032-.856-14.552-4.741-18.561-7.697-4.89-3.606-8.262-8.113-11.805-12.324l.703,42.544c4.154-3.705,8.16-7.536,13.516-10.955,4.234-2.706,9.295-5.14,15.972-6.94l1.493-.377v1.604l-2.405,1.81c-5.638,1.711-10.147,3.771-13.833,6.126-5.901,3.768-10.166,8.17-15.183,12.464l-1.885,1.607-.044-2.599-.745-48.635-.089-3.21,2.107,2.269c4.63,5.023,8.1,10.502,13.513,14.495,3.34,2.459,9.881,5.752,15.886,6.893-.669-3.872-.963-6.902-2.763-11.475-2.111-5.356-6.452-13.205-16.368-27.621l-1.23-1.794,2.063-.235c8.544-.954,15.595-2.221,26.68-2.221s18.136,1.268,26.68,2.221l2.107.235-1.23,1.794c-9.916,14.419-14.302,22.269-16.412,27.624-1.806,4.589-2.047,7.625-2.722,11.519,6.008-1.141,12.505-4.478,15.842-6.94,5.413-3.99,8.93-9.469,13.56-14.495l2.063-2.266-.044,3.21-.789,48.632v2.599l-1.933-1.607c-5.013-4.294-9.235-8.696-15.138-12.464-3.686-2.355-8.192-4.414-13.823-6.091l-2.456-1.844Z"/>
        <path class="cls-11" d="M2697.072,1503.274s-6.921,11.386-11.174,15.275c-5.91,5.403-9.795,8.658-17.385,11.215-7.577,2.554-18.146,3.99-26.078,3.527-7.672-.45-15.563-2.827-22.478-6.411-6.012-3.112-15.588-12.175-15.588-12.175-4.655,6.458-10.581,10.993-16.222,14.343-7.216,4.288-14.346,4.674-21.835,4.243-15.221-.878-29.421-11.044-40.814-31.655-7.387-18.675-15.88-37.588-26.49-57.416,12.226-4.627,26.477-7.092,42.284-7.894-6.43,19.366-13.098,38.228-10.74,53.816,13.281-10.632,17.575-25.108,22.148-39.467l15.439,58.123c-9.371-1.756-4.386-3.825-28.993-8.813,4.931,9.938,16.219,22.212,28.661,23.419,8.369.814,14.444-1.949,19.762-6.883,3.822-3.543,7.305-8.227,7.26-13.506l-.079-9.07c-.016-1.943-2.26-4.69-4.075-4.719-1.73-.025-2.212,2.979-2.672,4.763-.925,3.568.932,7.542,0,11.107-1.03,3.933-3.001,7.038-6.237,9.206-2.694,1.806-9.203,2.221-9.203,2.221l2.079-8.569c1.464-6.046-4.025-10.74-5.346-16.824-.849-3.917-1.318-8.297,0-12.061,1.426-4.072,4.313-8.037,8.018-9.84,1.35-.656,2.972-.748,4.453-.634,2.095.158,6.237,1.588,6.237,1.588,0,0-1.188-6.129-.891-9.84.358-4.506,3.926-12.847,5.936-16.824,3.337-6.604,8.642-12.556,9.247-13.193.58.624,6.332,6.344,10.087,12.686,2.263,3.819,4.586,9.336,5.238,13.801.539,3.682.345,11.469.345,11.469,0,0,6.116-2.684,8.195-2.998,1.47-.222,3.093-.253,4.484.301,3.812,1.521,6.95,5.261,8.639,9.219,1.559,3.66,1.375,8.062.783,12.033-.922,6.167-4.31,10.939-2.456,16.862l2.633,8.395s-6.522.07-9.326-1.531c-3.372-1.924-5.539-4.874-6.82-8.721-1.163-3.486-.488-7.761-2.503-10.762-.894-1.331-2.142-2.801-3.866-2.649-1.813.165-3.084,3.324-3.16,5.267l-.32,8.163c-.098,2.507.97,5.115,2.228,7.143,3.077,4.972,7.659,7.989,12.828,10.23,5.596,2.424,10.648,3.356,16.688,3.432,5.039.063,13.798-.818,18.57-2.545,5.882-2.123,9.342-4.823,13.893-9.336,2.564-2.548,4.278-6.243,5.406-9.786,1.302-4.078.833-11.117.833-11.117-5.853,2.374-10.943,5.562-15.528,9.285-5.184,4.212-9.726,9.108-14.007,14.283l-.415-70.26c6.097,7.191,10.531,13.63,16.628,19.046,5.134,4.56,7.771,6.3,12.907,8.081-1.467-5.654-1.965-9.082-5.749-14.733-5.248-7.837-10.359-16.254-16.717-24.091,11.703-2.082,23.397-2.643,35.255-2.643s23.552.561,35.252,2.643c-6.354,7.837-11.465,16.254-16.713,24.091-3.787,5.65-4.281,9.079-5.749,14.733,5.134-1.781,7.774-3.521,12.907-8.081,6.097-5.416,10.531-11.855,16.628-19.046l-.418,70.26c-4.278-5.175-8.823-10.071-14.004-14.283-4.589-3.724-9.675-6.912-15.528-9.285,0,0-.469,7.038.83,11.117,1.128,3.543,2.843,7.238,5.409,9.786,4.548,4.513,8.008,7.213,13.89,9.336,4.776,1.727,13.535,2.608,18.574,2.545,6.04-.073,11.088-1.008,16.688-3.432,5.169-2.24,9.748-5.257,12.828-10.23,1.255-2.028,2.323-4.636,2.225-7.143l-.32-8.163c-.076-1.943-1.347-5.102-3.156-5.267-1.727-.152-2.976,1.318-3.866,2.649-2.019,3.001-1.344,7.276-2.507,10.762-1.28,3.847-3.448,6.798-6.817,8.721-2.808,1.6-9.326,1.531-9.326,1.531l2.63-8.395c1.857-5.923-1.534-10.695-2.456-16.862-.593-3.971-.776-8.373.786-12.033,1.689-3.958,4.826-7.697,8.635-9.219,1.391-.555,3.017-.523,4.484-.301,2.079.314,8.195,2.998,8.195,2.998,0,0-.19-7.786.345-11.469.656-4.465,2.976-9.982,5.238-13.801,3.758-6.341,9.507-12.061,10.09-12.686.605.637,5.907,6.588,9.244,13.193,2.009,3.977,5.577,12.318,5.939,16.824.298,3.711-.891,9.84-.891,9.84,0,0,4.139-1.429,6.233-1.588,1.483-.114,3.102-.022,4.456.634,3.702,1.803,6.588,5.768,8.014,9.84,1.321,3.765.852,8.144,0,12.061-1.318,6.085-6.81,10.778-5.343,16.824l2.079,8.569s-6.509-.415-9.206-2.221c-3.236-2.168-5.207-5.273-6.233-9.206-.932-3.565.925-7.539,0-11.107-.463-1.784-.941-4.788-2.672-4.763-1.819.029-4.06,2.776-4.075,4.719l-.079,9.07c-.048,5.28,3.438,9.963,7.257,13.506,5.321,4.934,11.393,7.697,19.762,6.883,12.445-1.207,23.733-13.481,28.664-23.419-24.607,4.988-19.626,7.057-28.997,8.813l15.439-58.123c4.573,14.359,8.87,28.835,22.148,39.467,2.361-15.588-4.31-34.45-10.74-53.816,15.807.802,30.058,3.267,42.287,7.894-10.61,19.828-19.106,38.741-26.493,57.416-11.389,20.611-25.59,30.777-40.814,31.655-7.488.431-14.615.044-21.831-4.243-5.644-3.35-11.57-7.885-16.225-14.343,0,0-9.577,9.063-15.585,12.175-6.915,3.584-14.809,5.961-22.481,6.411-7.932.463-18.501-.973-26.078-3.527-7.59-2.557-11.475-5.812-17.382-11.215-4.256-3.888-11.174-15.275-11.174-15.275h0Z"/>
        <path class="cls-21" d="M2707.156,1479.633c.009,6.991-4.95,12.667-11.076,12.676-6.126.009-11.098-5.647-11.107-12.641v-.035c-.006-6.991,4.95-12.667,11.076-12.676,6.129-.009,11.101,5.65,11.107,12.641v.035ZM2536.019,1495.481c.009,6.991-4.95,12.667-11.076,12.676s-11.098-5.65-11.107-12.641v-.035c-.006-6.991,4.95-12.667,11.076-12.676,6.126-.009,11.101,5.647,11.107,12.641v.035ZM2857.624,1495.481c-.009,6.991,4.95,12.667,11.076,12.676s11.098-5.65,11.107-12.644v-.032c.006-6.994-4.95-12.667-11.076-12.676-6.126-.013-11.101,5.647-11.107,12.641v.035Z"/>
        <path class="cls-41" d="M2592.079,1494.717l23.707-1.385,3.423,5.568-2.748,5.929-23.711,1.385-4.132-5.527,3.46-5.97Z"/>
        <path class="cls-11" d="M2592.079,1494.717l23.707-1.385,3.423,5.568-2.748,5.929-23.711,1.385-4.132-5.527,3.46-5.97Z"/>
        <path class="cls-36" d="M2799.444,1494.717l-23.711-1.388-3.423,5.571,2.751,5.926,23.711,1.388,4.132-5.527-3.46-5.97Z"/>
        <path class="cls-22" d="M2799.444,1494.717l-23.711-1.388-3.423,5.571,2.751,5.926,23.711,1.388,4.132-5.527-3.46-5.97Z"/>
        <path class="cls-41" d="M2545.248,1595.28s16.964-1.337,46.851-3.15c29.884-1.813,61.904-2.763,78.237-2.763h49.791c15.82,0,48.594.951,78.24,2.763,29.643,1.813,46.505,3.334,46.505,3.334l10.394-49.887s-106.507-10.325-160.035-10.325-160.035,10.325-160.035,10.325l10.052,49.703Z"/>
        <path class="cls-11" d="M2696.159,1536.837c53.705-.044,107.365,3.126,160.691,9.491l-9.776,50.72c-53.122-5.146-96.604-6.522-150.313-6.975M2697.471,1536.837c-53.705-.044-107.365,3.126-160.691,9.491l9.776,50.72c53.122-5.146,96.604-6.522,150.313-6.975"/>
        <path class="cls-41" d="M2591.651,1535.084l-.044.041h-.044c-19.081,1.546-41.162,3.236-60.433,6.195-2.722,3.673-2.95,7.023,2.009,9.7,18.497-2.843,40.31-4.573,59.403-6.119,25.984-1.718,52.01-2.732,78.05-3.042h49.95c15.576,0,48.476,1.071,78.046,3.08,29.434,1.996,59.495,6.081,59.495,6.081,5.127-2.954,4.57-6.259,1.784-9.7,0,0-30.34-4.196-60.389-6.237-29.912-2.028-62.772-3.077-78.937-3.077h-49.95c-26.353.089-52.663,1.489-78.94,3.077Z"/>
        <path class="cls-15" d="M2593.236,1536.672l-.044.038h-.044c-19.081,1.546-41.162,3.236-60.43,6.195-2.725,3.673-2.954,7.023,2.006,9.7,18.497-2.843,40.31-4.573,59.403-6.119,25.984-1.716,52.011-2.731,78.05-3.042h49.95c15.576,0,48.476,1.071,78.046,3.08,29.434,1.996,59.495,6.081,59.495,6.081,5.127-2.954,4.573-6.259,1.784-9.7,0,0-30.34-4.196-60.389-6.233-29.912-2.031-62.772-3.08-78.937-3.08h-49.95c-26.353.089-52.663,1.489-78.94,3.08h0Z"/>
        <path class="cls-41" d="M2599.568,1588.47l-.041.032h-.041c-17.626,1.29-38.025,2.697-55.825,5.162-2.516,3.061-2.725,5.853,1.854,8.084,17.091-2.367,37.239-3.809,54.878-5.099,23.923-1.41,48.042-2.291,72.101-2.535h46.144c14.391,0,44.785.894,72.101,2.567,27.19,1.664,54.96,5.067,54.96,5.067,4.738-2.462,4.224-5.213,1.648-8.084,0,0-28.027-3.495-55.784-5.194-27.634-1.692-57.99-2.567-72.925-2.567h-46.144c-24.344.073-48.651,1.242-72.925,2.567Z"/>
        <path class="cls-28" d="M2601.152,1589.648l-.041.032h-.041c-17.626,1.328-38.025,2.779-55.825,5.321-2.516,3.153-2.725,6.031,1.854,8.328,17.091-2.44,37.239-3.923,54.878-5.254,23.923-1.455,48.042-1.879,72.101-2.13h46.144c14.391,0,44.785.441,72.101,2.161,27.19,1.718,54.96,5.222,54.96,5.222,4.741-2.535,4.224-5.372,1.648-8.328,0,0-28.027-3.603-55.784-5.352-27.634-1.746-57.99-2.164-72.925-2.164h-46.144c-24.344.076-48.651.799-72.925,2.164Z"/>
        <path class="cls-15" d="M2729.298,1546.179v34.859h-63.38v-34.859h63.38Z"/>
        <path class="cls-19" d="M2722.944,1552.52v25.352h-50.704v-25.352h50.704Z"/>
        <path class="cls-16" d="M2719.803,1576.953c-.707.599-1.606.922-2.532.909h-41.416c-.992,0-1.885-.345-2.535-.909-.654-.547-1.036-1.353-1.046-2.206v-20.022c0-.862.399-1.642,1.046-2.206.65-.564,47.13,23.869,46.483,24.433h0Z"/>
        <path class="cls-31" d="M2719.803,1576.953c-.707.599-1.606.922-2.532.909h-41.416c-.992,0-1.885-.345-2.535-.909-.654-.547-1.036-1.353-1.046-2.206v-20.022c0-.862.399-1.642,1.046-2.206.33-.285,12.473,5.872,24.265,12.077,11.434,6.018,22.538,12.08,22.218,12.356h0Z"/>
        <path class="cls-31" d="M2721.812,1552.52c.686.528,1.097,1.34,1.115,2.206v20.022c-.018.866-.429,1.678-1.115,2.206-.77.604-1.725.925-2.703.909h-44.179c-1.055,0-2.012-.345-2.7-.909-.691-.564,48.891-24.997,49.582-24.433h0Z"/>
        <path class="cls-31" d="M2719.781,1577.045c-.749.556-1.66.849-2.592.833h-42.335c-1.014,0-1.93-.317-2.589-.833-.336-.263,11.732-6.161,23.787-11.843,0,0,24.389,11.326,23.73,11.843h0Z"/>
        <path class="cls-15" d="M2722.944,1552.52v25.352h-50.704v-25.352h50.704Z"/>
        <path class="cls-31" d="M2681.743,1558.861h28.521v12.676h-28.521v-12.676Z"/>
        <path class="cls-33" d="M2633.907,1552.729l2.041,11.535.215,1.214,2.041,11.535-43.238,4.237-2.041-11.535-.215-1.214-2.041-11.535,43.238-4.237Z"/>
        <path class="cls-39" d="M2630.164,1554.314l1.642,9.244,1.645,9.241-37.908,3.698-1.645-9.244-1.645-9.241,37.911-3.698Z"/>
        <path class="cls-32" d="M2631.749,1555.898l1.642,9.244,1.645,9.241-37.908,3.698-1.645-9.244-1.645-9.241,37.911-3.698Z"/>
        <path class="cls-26" d="M2542.842,1590.152l25.878-21.654-31.592-10.781-.479,17.762,6.192,14.673Z"/>
        <path class="cls-42" d="M2541.891,1584.806l16.77-15.81-20.472-7.872-4.386,12.473,8.087,11.209Z"/>
        <path class="cls-42" d="M2540.516,1584.721l18.006-17.468-26.48,5.042,8.474,12.426Z"/>
        <path class="cls-12" d="M2562.148,1568.616l-28.521,6.256M2543.603,1586.353l16.656-15.788-20.332-7.862-4.586,12.261,8.262,11.389Z"/>
        <path class="cls-4" d="M2653.387,1555.692c.003,3.499-2.12,6.335-4.747,6.341-2.624.003-4.757-2.827-4.76-6.322v-.019c-.003-3.495,2.123-6.332,4.747-6.335,2.627-.006,4.757,2.824,4.76,6.319v.016Z"/>
        <path class="cls-13" d="M2656.337,1574.71c.004,3.5-2.83,6.342-6.33,6.346s-6.342-2.83-6.346-6.33v-.016c-.003-3.497,2.828-6.335,6.325-6.338h.003c3.497-.007,6.339,2.822,6.348,6.319v.019Z"/>
        <path class="cls-4" d="M2583.444,1558.865c.004,3.5-2.83,6.342-6.33,6.346s-6.342-2.83-6.346-6.33v-.016c-.003-3.497,2.828-6.335,6.325-6.338h.003c3.497-.009,6.339,2.819,6.348,6.316v.022ZM2583.665,1577.879c.003,3.495-2.12,6.335-4.747,6.338-2.624.003-4.757-2.824-4.76-6.322v-.016c-.003-3.495,2.123-6.335,4.747-6.338,2.624-.006,4.757,2.824,4.76,6.319v.019Z"/>
        <path class="cls-33" d="M2759.755,1552.729l-2.041,11.535-.215,1.214-2.041,11.535,43.238,4.237,2.041-11.535.215-1.214,2.041-11.535-43.238-4.237Z"/>
        <path class="cls-39" d="M2760.332,1554.314l-1.645,9.244-1.645,9.241,37.911,3.698,1.642-9.244,1.645-9.241-37.908-3.698Z"/>
        <path class="cls-32" d="M2761.916,1555.898l-1.645,9.244-1.645,9.241,37.911,3.698,1.642-9.244,1.645-9.241-37.908-3.698Z"/>
        <path class="cls-26" d="M2851.59,1590.152l-23.723-21.654,28.958-10.781.44,17.762-5.676,14.673Z"/>
        <path class="cls-42" d="M2850.677,1584.806l-18.634-15.81,22.747-7.872,4.871,12.473-8.984,11.209Z"/>
        <path class="cls-42" d="M2849.977,1584.721l-18.006-17.468,26.48,5.042-8.474,12.426Z"/>
        <path class="cls-12" d="M2834.683,1568.616l25.352,6.256M2852.119,1586.353l-18.507-15.788,22.592-7.862,5.096,12.261-9.181,11.389Z"/>
        <path class="cls-4" d="M2740.269,1555.692c0,3.499,2.123,6.335,4.747,6.338,2.627.006,4.757-2.82,4.76-6.319v-.019c.006-3.495-2.123-6.332-4.747-6.338-2.624-.003-4.754,2.827-4.76,6.322v.016ZM2737.321,1574.71c-.002,3.497,2.831,6.335,6.329,6.338,3.499.007,6.341-2.824,6.348-6.322v-.016c.002-3.499-2.833-6.336-6.332-6.338-3.496-.005-6.336,2.823-6.344,6.319v.019ZM2813.153,1558.865c0,3.495,2.123,6.332,4.747,6.338,2.627.003,4.757-2.827,4.76-6.322v-.016c.003-3.499-2.123-6.335-4.747-6.338-2.624-.006-4.754,2.824-4.76,6.319v.019ZM2810.203,1577.879c-.002,3.497,2.831,6.335,6.329,6.338,3.499.007,6.341-2.824,6.348-6.322v-.016c.002-3.497-2.831-6.335-6.329-6.338-3.497-.007-6.339,2.822-6.348,6.319v.019Z"/>
      </g>
    </g>
    <g id="mini-gb">
      <path class="cls-38" d="M1600,.1v1200H0V400.1C0,180.1,180,.1,400,.1h1200Z"/>
      <path id="Path" class="cls-44" d="M1534.9.1h65.1v255.8l-545.5,354.3,545.5,354.2v235.7h-96l-679-440.9-679,440.9H0v-203.2l595.5-386.7L31.6,243.9C65.5,164.1,124.5,97.6,198.7,54.3l626.3,406.7L1534.9.1Z"/>
      <path id="Path-2" class="cls-43" d="M0,1189.3v-119.2l708.2-460L60,189.3c17.8-28.7,39.2-54.9,63.4-78.2l676.6,439.4L1600,31.1v119.3l-708.2,459.7,708.2,460v119.2l-800-519.5L0,1189.3Z"/>
      <polygon id="Shape" class="cls-45" points="1000 400.1 1600 400.1 1600 800.1 1000 800.1 1000 1200.1 600 1200.1 600 800.1 0 800.1 0 400.1 600 400.1 600 .1 1000 .1 1000 400.1"/>
      <polygon id="Shape-2" class="cls-46" points="900 500.1 900 .1 700 .1 700 500.1 0 500.1 0 700.1 700 700.1 700 1200.1 900 1200.1 900 700.1 1600 700.1 1600 500.1 900 500.1"/>
    </g>
  </g>
</svg>