<?xml version="1.0" encoding="UTF-8"?>
<svg xmlns="http://www.w3.org/2000/svg" viewBox="0 0 3600.1 2401.738">
  <defs>
    <style>
      .cls-1 {
        fill: #141414;
      }

      .cls-1, .cls-2, .cls-3, .cls-4 {
        stroke-width: 0px;
      }

      .cls-2 {
        fill: #eee;
      }

      .cls-3 {
        fill: #dd2e44;
        fill-rule: evenodd;
      }

      .cls-4 {
        fill: #007a3d;
      }
    </style>
  </defs>
  <g id="background">
    <path id="iq" class="cls-3" d="M400,.1h2800c220,0,400,180,400,400v1600c0,220-180,400-400,400H400C180,2400.1,0,2220.1,0,2000.1V400.1C0,180.1,180,.1,400,.1Z"/>
  </g>
  <g id="country">
    <g id="iq-2" data-name="iq">
      <g id="h">
        <path class="cls-2" d="M3600,2000.1V800.1H0v1200C0,2220.1,180,2400.1,400,2400.1h2800c220,0,400-180,400-400Z"/>
        <path class="cls-1" d="M3600,2000.1v-400H0v400C0,2220.1,180,2400.1,400,2400.1h2800c220,0,400-180,400-400Z"/>
      </g>
      <g>
        <path class="cls-4" d="M2150.935,1050.418c-4.888-2.584-10.388-6.727-12.219-9.232-2.75-3.837-1.156-3.994,10.187-.911,20.304,5.509,33.407,3.355,46.406-7.647l11.457-9.661,13.489,6.867c7.428,3.749,15.311,6.35,17.588,5.746,5.842-1.542,17.956-17.08,17.562-22.458-.473-6.648,5.142-4.975,7.848,2.312,5.387,14.286-2.461,30.674-16.336,34.318-6.771,1.761-13.034,1.112-23.29-2.461-12.596-4.397-14.75-4.327-21.066.508-14.172,10.853-33.889,11.869-51.626,2.619h0ZM2201.16,1004.502c-4.931-6.28-10.853-29.991-8.943-35.807,1.682-5.045,3.425-6.053,8.006-4.616,8.041,2.514,9.898,8.058,8.698,26.838-.937,15.302-3.206,19.323-7.761,13.585h0ZM1609.779,987.457c-1.62,11.483,20.365,40.012,30.289,45.18-6.745,3.022-15.136,1.647-21.32,5.045-34.581,34.581-160.879,157.717-183.942,187.147,68.312,1.349,144.07-.928,208.125-3.854-.061-46.415,43.953-48.806,73.41-65.711,15.153,23.869,53.212,22.038,57.968,57.959,0,43.007.079,107.799.079,154.563h-583.576c-10.266,45.337-51.188,79.927-108.21,65.693,17.641-18.429,47.343-24.762,57.977-50.225,8.969-55.752-17.921-90.184-35.308-121.804,28.765-10.467,33.127-13.086,62.374-32.733-20.531,62.365,53.352,55.515,108.201,54.088,1.848-21.171.78-46.169-15.469-49.261,20.987-7.62,24.473-10.231,57.977-38.645v84.026c130.388,0,271.025-.972,404.137-.972,0-26.295,6.963-68.531-13.848-68.531-19.874,0-.937,54.07-16.38,54.07h-312.087c0-11.632-.298-35.947-.298-53.466,13.226-13.226,11.658-12.079,102.026-102.455,9.004-9.031,72.403-66.289,127.874-120.114h0ZM2389.866,985.232c21.784,11.728,39.039,27.95,65.711,34.791-3.101,11.045-12.929,15.407-15.504,27.039v235.708c29.799,6.569,36.07-10.318,50.251-19.314,3.871,37.726,27.907,74.707,27.048,104.321h-127.524c.018-127.489.018-255.013.018-382.546h0ZM2219.834,1111.469s46.388-39.162,46.388-40.669v205.699l33.407-.053c0-78.368-1.034-157.857-1.034-230.698,13.559-13.568,40.117-33.206,46.756-46.931v368.409c-94.126,0-269.72.105-292.931.105-4.318-76.458-5.054-155.658,84.088-138.622v-31.209c-2.724-5.334-7.603,1.288-8.742-5.65,14.146-14.164,18.946-17.772,57.267-51.258,0,40.397.701,135.766.701,135.766,9.372,0,27.618.035,33.784.035.009.018.315-159.652.315-164.925h0ZM2109.881,1274.415c6.272,9.416,27.626,9.25,26.628-6.613-3.6-13.077-31.673-8.093-26.628,6.613Z"/>
        <circle class="cls-4" cx="1261.893" cy="1411.215" r="17.886"/>
        <path class="cls-4" d="M1813.911,985.609c21.793,11.728,39.039,27.95,65.711,34.782-3.092,11.037-12.928,15.416-15.486,27.039v235.717c29.79,6.561,36.061-10.336,50.242-19.323,3.863,37.734,27.898,74.698,27.048,104.321h-127.533c.018-127.498.018-255.013.018-382.537h0Z"/>
      </g>
    </g>
  </g>
</svg>