<?xml version="1.0" encoding="UTF-8"?>
<svg xmlns="http://www.w3.org/2000/svg" viewBox="0 0 3600.1 2401.738">
  <defs>
    <style>
      .cls-1 {
        fill: #da0000;
      }

      .cls-1, .cls-2, .cls-3, .cls-4 {
        stroke-width: 0px;
      }

      .cls-1, .cls-3 {
        fill-rule: evenodd;
      }

      .cls-2 {
        fill: #eee;
      }

      .cls-3 {
        fill: #239f40;
      }

      .cls-4 {
        fill: #da0001;
      }
    </style>
  </defs>
  <g id="background">
    <path id="ir" class="cls-3" d="M400,.1h2800c220,0,400,180,400,400v1600c0,220-180,400-400,400H400C180,2400.1,0,2220.1,0,2000.1V400.1C0,180.1,180,.1,400,.1Z"/>
  </g>
  <g id="country">
    <g id="ir-2" data-name="ir">
      <g id="h">
        <path class="cls-2" d="M3600,2000.1V800.1H0v1200C0,2220.1,180,2400.1,400,2400.1h2800c220,0,400-180,400-400Z"/>
        <path class="cls-4" d="M3600,2000.1v-400H0v400C0,2220.1,180,2400.1,400,2400.1h2800c220,0,400-180,400-400Z"/>
      </g>
      <g>
        <g>
          <rect class="cls-2" x="2182.391" y="782.786" width="167.903" height="37.186"/>
          <polygon class="cls-2" points="2723.302 1730.108 2723.302 1637.735 2704.708 1637.735 2704.708 1711.514 2686.179 1711.514 2686.179 1637.735 2667.585 1637.735 2667.585 1711.514 2649.057 1711.514 2649.057 1637.735 2630.463 1637.735 2630.463 1674.591 2556.219 1674.591 2556.219 1730.108 2611.916 1730.108 2611.916 1711.514 2574.813 1711.514 2574.813 1693.185 2630.463 1693.185 2630.463 1730.108 2723.302 1730.108"/>
          <rect class="cls-2" x="2368.778" y="1580.376" width="166.153" height="37.186"/>
          <polygon class="cls-2" points="2164.744 1730.108 2164.744 1674.591 2109.042 1674.591 2109.042 1693.185 2146.15 1693.185 2146.15 1711.514 2090.499 1711.514 2090.499 1674.591 1997.657 1674.591 1997.657 1730.042 2016.251 1730.042 2016.251 1693.185 2071.905 1693.185 2071.905 1730.108 2164.744 1730.108"/>
          <rect class="cls-2" x="2034.798" y="1711.514" width="18.561" height="18.594"/>
          <rect class="cls-2" x="2368.778" y="782.786" width="166.153" height="37.186"/>
          <polygon class="cls-2" points="2350.356 1730.108 2350.356 1637.735 2331.763 1637.735 2331.763 1711.514 2313.233 1711.514 2313.233 1637.735 2294.64 1637.735 2294.64 1711.514 2276.111 1711.514 2276.111 1637.735 2257.518 1637.735 2257.518 1674.591 2183.272 1674.591 2183.272 1730.108 2238.971 1730.108 2238.971 1711.514 2201.866 1711.514 2201.866 1693.185 2257.518 1693.185 2257.518 1730.108 2350.356 1730.108"/>
          <polygon class="cls-2" points="2723.302 673.987 2704.708 673.987 2704.708 747.768 2686.179 747.768 2686.179 673.987 2667.585 673.987 2667.585 747.768 2649.057 747.768 2649.057 673.987 2630.463 673.987 2630.463 710.844 2556.219 710.844 2556.219 766.36 2611.916 766.36 2611.916 747.768 2574.813 747.768 2574.813 729.437 2630.463 729.437 2630.463 766.36 2723.302 766.36 2723.302 673.987"/>
          <rect class="cls-2" x="2407.743" y="1711.514" width="18.561" height="18.594"/>
          <rect class="cls-2" x="2407.743" y="747.768" width="18.561" height="18.593"/>
          <rect class="cls-2" x="2553.394" y="782.786" width="166.153" height="37.186"/>
          <polygon class="cls-2" points="2537.689 1730.108 2537.689 1674.591 2481.987 1674.591 2481.987 1693.185 2519.096 1693.185 2519.096 1711.514 2463.44 1711.514 2463.44 1674.591 2370.603 1674.591 2370.603 1730.042 2389.196 1730.042 2389.196 1693.185 2444.847 1693.185 2444.847 1730.108 2537.689 1730.108"/>
          <polygon class="cls-2" points="2370.603 766.294 2389.196 766.294 2389.196 729.437 2444.847 729.437 2444.847 766.36 2537.689 766.36 2537.689 710.844 2481.987 710.844 2481.987 729.437 2519.096 729.437 2519.096 747.768 2463.44 747.768 2463.44 710.844 2370.603 710.844 2370.603 766.294"/>
          <rect class="cls-2" x="2370.62" y="673.921" width="241.296" height="18.593"/>
          <rect class="cls-2" x="2370.62" y="1637.668" width="241.296" height="18.594"/>
          <rect class="cls-2" x="1809.448" y="782.786" width="167.9" height="37.186"/>
          <rect class="cls-2" x="1661.853" y="1711.514" width="18.561" height="18.594"/>
          <polygon class="cls-2" points="1791.798 1730.108 1791.798 1674.591 1736.097 1674.591 1736.097 1693.185 1773.206 1693.185 1773.206 1711.514 1717.554 1711.514 1717.554 1674.591 1624.716 1674.591 1624.716 1730.042 1643.309 1730.042 1643.309 1693.185 1698.961 1693.185 1698.961 1730.108 1791.798 1730.108"/>
          <rect class="cls-2" x="1809.448" y="1580.376" width="167.9" height="37.186"/>
          <polygon class="cls-2" points="1624.716 766.294 1643.309 766.294 1643.309 729.437 1698.961 729.437 1698.961 766.36 1791.798 766.36 1791.798 710.844 1736.097 710.844 1736.097 729.437 1773.206 729.437 1773.206 747.768 1717.554 747.768 1717.554 710.844 1624.716 710.844 1624.716 766.294"/>
          <polygon class="cls-2" points="1977.411 1730.108 1977.411 1637.735 1958.817 1637.735 1958.817 1711.514 1940.289 1711.514 1940.289 1637.735 1921.695 1637.735 1921.695 1711.514 1903.166 1711.514 1903.166 1637.735 1884.572 1637.735 1884.572 1674.591 1810.328 1674.591 1810.328 1730.108 1866.026 1730.108 1866.026 1711.514 1828.922 1711.514 1828.922 1693.185 1884.572 1693.185 1884.572 1730.108 1977.411 1730.108"/>
          <rect class="cls-2" x="1624.73" y="673.921" width="241.296" height="18.593"/>
          <rect class="cls-2" x="1995.833" y="1580.376" width="167.903" height="37.186"/>
          <rect class="cls-2" x="2034.798" y="747.768" width="18.561" height="18.593"/>
          <polygon class="cls-2" points="1997.657 766.294 2016.251 766.294 2016.251 729.437 2071.905 729.437 2071.905 766.36 2164.744 766.36 2164.744 710.844 2109.042 710.844 2109.042 729.437 2146.15 729.437 2146.15 747.768 2090.499 747.768 2090.499 710.844 1997.657 710.844 1997.657 766.294"/>
          <rect class="cls-2" x="1997.675" y="673.921" width="241.296" height="18.593"/>
          <rect class="cls-2" x="2182.391" y="1580.376" width="167.903" height="37.186"/>
          <rect class="cls-2" x="1997.675" y="1637.668" width="241.296" height="18.594"/>
          <rect class="cls-2" x="1995.833" y="782.786" width="167.903" height="37.186"/>
          <polygon class="cls-2" points="2350.356 673.987 2331.763 673.987 2331.763 747.768 2313.233 747.768 2313.233 673.987 2294.64 673.987 2294.64 747.768 2276.111 747.768 2276.111 673.987 2257.518 673.987 2257.518 710.844 2183.272 710.844 2183.272 766.36 2238.971 766.36 2238.971 747.768 2201.866 747.768 2201.866 729.437 2257.518 729.437 2257.518 766.36 2350.356 766.36 2350.356 673.987"/>
          <rect class="cls-2" x="3522.868" y="747.768" width="18.572" height="18.593"/>
          <rect class="cls-2" x="3110.977" y="1580.376" width="167.9" height="37.186"/>
          <rect class="cls-2" x="3597.12" y="1674.591" width="2.88" height="18.594"/>
          <polygon class="cls-2" points="3465.481 1730.108 3465.481 1637.735 3446.888 1637.735 3446.888 1711.514 3428.374 1711.514 3428.374 1637.735 3409.78 1637.735 3409.78 1711.514 3391.251 1711.514 3391.251 1637.735 3372.657 1637.735 3372.657 1674.591 3298.412 1674.591 3298.412 1730.108 3354.114 1730.108 3354.114 1711.514 3317.006 1711.514 3317.006 1693.185 3372.657 1693.185 3372.657 1730.108 3465.481 1730.108"/>
          <rect class="cls-2" x="3149.94" y="747.768" width="18.562" height="18.593"/>
          <polygon class="cls-2" points="3112.801 710.844 3112.801 766.294 3131.395 766.294 3131.395 729.437 3187.045 729.437 3187.045 766.36 3279.884 766.36 3279.884 710.844 3224.186 710.844 3224.186 729.437 3261.29 729.437 3261.29 747.768 3205.639 747.768 3205.639 710.844 3112.801 710.844"/>
          <rect class="cls-2" x="3110.977" y="782.786" width="167.9" height="37.186"/>
          <polygon class="cls-2" points="3096.246 673.987 3077.652 673.987 3077.652 747.768 3058.726 747.768 3058.726 673.987 3040.132 673.987 3040.132 747.768 3021.204 747.768 3021.204 673.987 3002.61 673.987 3002.61 710.844 2927.568 710.844 2927.568 766.36 2983.765 766.36 2983.765 747.768 2946.162 747.768 2946.162 729.437 3002.61 729.437 3002.61 766.36 3096.246 766.36 3096.246 673.987"/>
          <rect class="cls-2" x="3485.76" y="1637.668" width="114.24" height="18.594"/>
          <rect class="cls-2" x="3597.12" y="710.844" width="2.88" height="18.593"/>
          <rect class="cls-2" x="1661.853" y="747.768" width="18.561" height="18.593"/>
          <polygon class="cls-2" points="3485.731 710.844 3485.731 766.294 3504.325 766.294 3504.325 729.437 3559.983 729.437 3559.983 766.36 3600 766.36 3600 747.768 3578.577 747.768 3578.577 710.844 3485.731 710.844"/>
          <rect class="cls-2" x="3522.868" y="1711.514" width="18.572" height="18.594"/>
          <rect class="cls-2" x="3483.914" y="1580.376" width="116.086" height="37.186"/>
          <rect class="cls-2" x="3485.76" y="673.921" width="114.24" height="18.593"/>
          <rect class="cls-2" x="3483.914" y="782.786" width="116.086" height="37.186"/>
          <polygon class="cls-2" points="3600 1730.108 3600 1711.514 3578.577 1711.514 3578.577 1674.591 3485.731 1674.591 3485.731 1730.042 3504.325 1730.042 3504.325 1693.185 3559.983 1693.185 3559.983 1730.108 3600 1730.108"/>
          <rect class="cls-2" x="2739.873" y="673.921" width="243.892" height="18.593"/>
          <rect class="cls-2" x="2924.588" y="1580.376" width="167.904" height="37.186"/>
          <polygon class="cls-2" points="2908.637 766.36 2908.637 710.844 2852.44 710.844 2852.44 729.437 2890.043 729.437 2890.043 747.768 2833.595 747.768 2833.595 710.844 2739.959 710.844 2739.959 766.294 2758.553 766.294 2758.553 729.437 2815.001 729.437 2815.001 766.36 2908.637 766.36"/>
          <rect class="cls-2" x="2924.588" y="782.786" width="167.904" height="37.186"/>
          <rect class="cls-2" x="2777.395" y="747.768" width="18.761" height="18.593"/>
          <rect class="cls-2" x="2738.03" y="1580.376" width="167.904" height="37.186"/>
          <rect class="cls-2" x="2738.03" y="782.786" width="167.904" height="37.186"/>
          <rect class="cls-2" x="3297.533" y="1580.376" width="167.919" height="37.186"/>
          <rect class="cls-2" x="3297.533" y="782.786" width="167.919" height="37.186"/>
          <rect class="cls-2" x="3112.818" y="673.921" width="241.296" height="18.593"/>
          <rect class="cls-2" x="2739.873" y="1637.668" width="243.892" height="18.594"/>
          <rect class="cls-2" x="3112.818" y="1637.668" width="241.296" height="18.594"/>
          <rect class="cls-2" x="2777.395" y="1711.514" width="18.761" height="18.594"/>
          <polygon class="cls-2" points="3096.246 1730.108 3096.246 1637.735 3077.652 1637.735 3077.652 1711.514 3058.726 1711.514 3058.726 1637.735 3040.132 1637.735 3040.132 1711.514 3021.204 1711.514 3021.204 1637.735 3002.61 1637.735 3002.61 1674.591 2927.568 1674.591 2927.568 1730.108 2983.765 1730.108 2983.765 1711.514 2946.162 1711.514 2946.162 1693.185 3002.61 1693.185 3002.61 1730.108 3096.246 1730.108"/>
          <polygon class="cls-2" points="2908.637 1730.108 2908.637 1674.591 2852.44 1674.591 2852.44 1693.185 2890.043 1693.185 2890.043 1711.514 2833.595 1711.514 2833.595 1674.591 2739.959 1674.591 2739.959 1730.042 2758.553 1730.042 2758.553 1693.185 2815.001 1693.185 2815.001 1730.108 2908.637 1730.108"/>
          <rect class="cls-2" x="2553.394" y="1580.376" width="166.153" height="37.186"/>
          <rect class="cls-2" x="173.768" y="1711.514" width="18.561" height="18.594"/>
          <rect class="cls-2" x="136.645" y="1637.668" width="241.296" height="18.594"/>
          <polygon class="cls-2" points="396.484 673.987 396.484 710.844 322.24 710.844 322.24 766.36 377.941 766.36 377.941 747.768 340.833 747.768 340.833 729.437 396.484 729.437 396.484 766.36 489.326 766.36 489.326 673.987 470.733 673.987 470.733 747.768 452.204 747.768 452.204 673.987 433.611 673.987 433.611 747.768 415.077 747.768 415.077 673.987 396.484 673.987"/>
          <polygon class="cls-2" points="303.71 1730.108 303.71 1674.591 248.012 1674.591 248.012 1693.185 285.117 1693.185 285.117 1711.514 229.465 1711.514 229.465 1674.591 136.627 1674.591 136.627 1730.042 155.22 1730.042 155.22 1693.185 210.872 1693.185 210.872 1730.108 303.71 1730.108"/>
          <polygon class="cls-2" points="136.627 766.294 155.22 766.294 155.22 729.437 210.872 729.437 210.872 766.36 303.71 766.36 303.71 710.844 248.012 710.844 248.012 729.437 285.117 729.437 285.117 747.768 229.465 747.768 229.465 710.844 136.627 710.844 136.627 766.294"/>
          <rect class="cls-2" x="173.768" y="747.768" width="18.561" height="18.593"/>
          <rect class="cls-2" x="136.645" y="673.921" width="241.296" height="18.593"/>
          <polygon class="cls-2" points="509.573 766.294 528.166 766.294 528.166 729.437 583.817 729.437 583.817 766.36 676.655 766.36 676.655 710.844 620.958 710.844 620.958 729.437 658.063 729.437 658.063 747.768 602.41 747.768 602.41 710.844 509.573 710.844 509.573 766.294"/>
          <rect class="cls-2" x="134.802" y="782.786" width="167.9" height="37.186"/>
          <rect class="cls-2" x="509.586" y="673.921" width="241.3" height="18.593"/>
          <rect class="cls-2" x="546.712" y="747.768" width="18.562" height="18.593"/>
          <rect class="cls-2" x="509.586" y="1637.668" width="241.3" height="18.594"/>
          <polygon class="cls-2" points="862.268 673.987 843.675 673.987 843.675 747.768 825.145 747.768 825.145 673.987 806.552 673.987 806.552 747.768 788.022 747.768 788.022 673.987 769.43 673.987 769.43 710.844 695.185 710.844 695.185 766.36 750.886 766.36 750.886 747.768 713.777 747.768 713.777 729.437 769.43 729.437 769.43 766.36 862.268 766.36 862.268 673.987"/>
          <rect class="cls-2" x="507.744" y="1580.376" width="166.154" height="37.186"/>
          <rect class="cls-2" x="507.744" y="782.786" width="166.154" height="37.186"/>
          <polygon class="cls-2" points="3279.884 1730.108 3279.884 1674.591 3224.186 1674.591 3224.186 1693.185 3261.29 1693.185 3261.29 1711.514 3205.639 1711.514 3205.639 1674.591 3112.801 1674.591 3112.801 1730.042 3131.395 1730.042 3131.395 1693.185 3187.045 1693.185 3187.045 1730.108 3279.884 1730.108"/>
          <rect class="cls-2" x="0" y="1637.668" width="4.996" height="18.594"/>
          <rect class="cls-2" x="0" y="747.768" width="4.996" height="18.593"/>
          <rect class="cls-2" x="0" y="1580.376" width="116.319" height="37.186"/>
          <rect class="cls-2" x="0" y="782.786" width="116.319" height="37.186"/>
          <rect class="cls-2" x="321.36" y="1580.376" width="167.904" height="37.186"/>
          <polygon class="cls-2" points="97.788 747.768 79.258 747.768 79.258 673.987 60.666 673.987 60.666 747.768 42.136 747.768 42.136 673.987 23.543 673.987 23.543 710.844 0 710.844 0 729.437 23.543 729.437 23.543 766.36 116.381 766.36 116.381 673.987 97.788 673.987 97.788 747.768"/>
          <rect class="cls-2" x="0" y="1711.514" width="4.996" height="18.594"/>
          <rect class="cls-2" x="0" y="673.921" width="4.996" height="18.593"/>
          <polygon class="cls-2" points="489.326 1730.108 489.326 1637.735 470.733 1637.735 470.733 1711.514 452.204 1711.514 452.204 1637.735 433.611 1637.735 433.611 1711.514 415.077 1711.514 415.077 1637.735 396.484 1637.735 396.484 1674.591 322.24 1674.591 322.24 1730.108 377.941 1730.108 377.941 1711.514 340.833 1711.514 340.833 1693.185 396.484 1693.185 396.484 1730.108 489.326 1730.108"/>
          <rect class="cls-2" x="134.802" y="1580.376" width="167.9" height="37.186"/>
          <polygon class="cls-2" points="116.381 1730.108 116.381 1637.735 97.788 1637.735 97.788 1711.514 79.258 1711.514 79.258 1637.735 60.666 1637.735 60.666 1711.514 42.136 1711.514 42.136 1637.735 23.543 1637.735 23.543 1674.591 0 1674.591 0 1693.185 23.543 1693.185 23.543 1730.108 116.381 1730.108"/>
          <rect class="cls-2" x="321.36" y="782.786" width="167.904" height="37.186"/>
          <polygon class="cls-2" points="3446.888 747.768 3428.374 747.768 3428.374 673.987 3409.78 673.987 3409.78 747.768 3391.251 747.768 3391.251 673.987 3372.657 673.987 3372.657 710.844 3298.412 710.844 3298.412 766.36 3354.114 766.36 3354.114 747.768 3317.006 747.768 3317.006 729.437 3372.657 729.437 3372.657 766.36 3465.481 766.36 3465.481 673.987 3446.888 673.987 3446.888 747.768"/>
          <rect class="cls-2" x="3149.94" y="1711.514" width="18.562" height="18.594"/>
          <rect class="cls-2" x="692.359" y="1580.376" width="166.154" height="37.186"/>
          <rect class="cls-2" x="1249.942" y="1580.376" width="167.904" height="37.186"/>
          <polygon class="cls-2" points="1251.771 766.294 1270.363 766.294 1270.363 729.437 1326.016 729.437 1326.016 766.36 1418.853 766.36 1418.853 710.844 1363.152 710.844 1363.152 729.437 1400.26 729.437 1400.26 747.768 1344.608 747.768 1344.608 710.844 1251.771 710.844 1251.771 766.294"/>
          <rect class="cls-2" x="1251.785" y="673.921" width="241.3" height="18.593"/>
          <rect class="cls-2" x="1288.907" y="747.768" width="18.561" height="18.593"/>
          <rect class="cls-2" x="1436.503" y="1580.376" width="167.9" height="37.186"/>
          <rect class="cls-2" x="1249.942" y="782.786" width="167.904" height="37.186"/>
          <rect class="cls-2" x="1251.785" y="1637.668" width="241.3" height="18.594"/>
          <rect class="cls-2" x="1622.887" y="782.786" width="167.904" height="37.186"/>
          <rect class="cls-2" x="692.359" y="782.786" width="166.154" height="37.186"/>
          <polygon class="cls-2" points="1604.466 673.987 1585.873 673.987 1585.873 747.768 1567.343 747.768 1567.343 673.987 1548.75 673.987 1548.75 747.768 1530.221 747.768 1530.221 673.987 1511.628 673.987 1511.628 710.844 1437.383 710.844 1437.383 766.36 1493.084 766.36 1493.084 747.768 1455.976 747.768 1455.976 729.437 1511.628 729.437 1511.628 766.36 1604.466 766.36 1604.466 673.987"/>
          <polygon class="cls-2" points="1977.411 673.987 1958.817 673.987 1958.817 747.768 1940.289 747.768 1940.289 673.987 1921.695 673.987 1921.695 747.768 1903.166 747.768 1903.166 673.987 1884.572 673.987 1884.572 710.844 1810.328 710.844 1810.328 766.36 1866.026 766.36 1866.026 747.768 1828.922 747.768 1828.922 729.437 1884.572 729.437 1884.572 766.36 1977.411 766.36 1977.411 673.987"/>
          <rect class="cls-2" x="1436.503" y="782.786" width="167.9" height="37.186"/>
          <rect class="cls-2" x="1622.887" y="1580.376" width="167.904" height="37.186"/>
          <rect class="cls-2" x="1288.907" y="1711.514" width="18.561" height="18.594"/>
          <polygon class="cls-2" points="1604.466 1730.108 1604.466 1637.735 1585.873 1637.735 1585.873 1711.514 1567.343 1711.514 1567.343 1637.735 1548.75 1637.735 1548.75 1711.514 1530.221 1711.514 1530.221 1637.735 1511.628 1637.735 1511.628 1674.591 1437.383 1674.591 1437.383 1730.108 1493.084 1730.108 1493.084 1711.514 1455.976 1711.514 1455.976 1693.185 1511.628 1693.185 1511.628 1730.108 1604.466 1730.108"/>
          <polygon class="cls-2" points="1418.853 1730.108 1418.853 1674.591 1363.152 1674.591 1363.152 1693.185 1400.26 1693.185 1400.26 1711.514 1344.608 1711.514 1344.608 1674.591 1251.771 1674.591 1251.771 1730.042 1270.363 1730.042 1270.363 1693.185 1326.016 1693.185 1326.016 1730.108 1418.853 1730.108"/>
          <rect class="cls-2" x="1624.73" y="1637.668" width="241.296" height="18.594"/>
          <polygon class="cls-2" points="1235.216 673.987 1216.624 673.987 1216.624 747.768 1197.691 747.768 1197.691 673.987 1179.099 673.987 1179.099 747.768 1160.17 747.768 1160.17 673.987 1141.577 673.987 1141.577 710.844 1066.535 710.844 1066.535 766.36 1122.735 766.36 1122.735 747.768 1085.127 747.768 1085.127 729.437 1141.577 729.437 1141.577 766.36 1235.216 766.36 1235.216 673.987"/>
          <rect class="cls-2" x="876.997" y="1580.376" width="167.904" height="37.186"/>
          <rect class="cls-2" x="876.997" y="782.786" width="167.904" height="37.186"/>
          <rect class="cls-2" x="546.712" y="1711.514" width="18.562" height="18.594"/>
          <rect class="cls-2" x="916.364" y="747.768" width="18.761" height="18.593"/>
          <polygon class="cls-2" points="862.268 1730.108 862.268 1637.735 843.675 1637.735 843.675 1711.514 825.145 1711.514 825.145 1637.735 806.552 1637.735 806.552 1711.514 788.022 1711.514 788.022 1637.735 769.43 1637.735 769.43 1674.591 695.185 1674.591 695.185 1730.108 750.886 1730.108 750.886 1711.514 713.777 1711.514 713.777 1693.185 769.43 1693.185 769.43 1730.108 862.268 1730.108"/>
          <polygon class="cls-2" points="676.655 1730.108 676.655 1674.591 620.958 1674.591 620.958 1693.185 658.063 1693.185 658.063 1711.514 602.41 1711.514 602.41 1674.591 509.573 1674.591 509.573 1730.042 528.166 1730.042 528.166 1693.185 583.817 1693.185 583.817 1730.108 676.655 1730.108"/>
          <rect class="cls-2" x="916.364" y="1711.514" width="18.761" height="18.594"/>
          <rect class="cls-2" x="878.843" y="1637.668" width="243.892" height="18.594"/>
          <polygon class="cls-2" points="1235.216 1730.108 1235.216 1637.735 1216.624 1637.735 1216.624 1711.514 1197.691 1711.514 1197.691 1637.735 1179.099 1637.735 1179.099 1711.514 1160.17 1711.514 1160.17 1637.735 1141.577 1637.735 1141.577 1674.591 1066.535 1674.591 1066.535 1730.108 1122.735 1730.108 1122.735 1711.514 1085.127 1711.514 1085.127 1693.185 1141.577 1693.185 1141.577 1730.108 1235.216 1730.108"/>
          <polygon class="cls-2" points="1047.606 1730.108 1047.606 1674.591 991.407 1674.591 991.407 1693.185 1029.014 1693.185 1029.014 1711.514 972.56 1711.514 972.56 1674.591 878.925 1674.591 878.925 1730.042 897.518 1730.042 897.518 1693.185 953.967 1693.185 953.967 1730.108 1047.606 1730.108"/>
          <rect class="cls-2" x="1063.558" y="1580.376" width="167.9" height="37.186"/>
          <rect class="cls-2" x="878.843" y="673.921" width="243.892" height="18.593"/>
          <polygon class="cls-2" points="1047.606 766.36 1047.606 710.844 991.407 710.844 991.407 729.437 1029.014 729.437 1029.014 747.768 972.56 747.768 972.56 710.844 878.925 710.844 878.925 766.294 897.518 766.294 897.518 729.437 953.967 729.437 953.967 766.36 1047.606 766.36"/>
          <rect class="cls-2" x="1063.558" y="782.786" width="167.9" height="37.186"/>
        </g>
        <path class="cls-1" d="M1637.66,1448.891c142.228,46.59,294.986-31.883,341.199-175.274,33.729-104.662,1.828-219.515-80.917-291.294,91.806,136.966,56.101,323.033-79.75,415.595-53.032,36.173-116.412,54.068-180.532,50.972"/>
        <path class="cls-1" d="M1984.678,1395.863c109.584-62.81,147.072-201.822,83.738-310.494-31.049-53.276-82.553-91.791-142.745-106.737,132.428,98.732,159.072,285.238,59.513,416.566l-.506.665M1799.631,1499.247l-14.282-299.553,14.282-235.831c8.677,12.713,20.275,22.922,33.718,29.682v176.075l-11.49,297.548-22.228,32.079ZM1792.741,947.314l6.015,5.609c13.791,19.473,40.866,24.155,60.473,10.457,16.442-11.483,22.793-32.681,15.342-51.223-4.202,22.11-25.658,36.654-47.922,32.478-11.703-2.18-21.882-9.337-27.892-19.614"/>
        <path class="cls-1" d="M1962.34,1448.891c-142.228,46.59-294.982-31.883-341.195-175.274-33.733-104.662-1.828-219.515,80.917-291.294-91.809,136.966-56.105,323.033,79.75,415.595,53.031,36.173,116.41,54.068,180.528,50.972"/>
        <path class="cls-1" d="M1615.348,1395.863c-109.584-62.81-147.076-201.822-83.742-310.494,31.052-53.28,82.556-91.791,142.745-106.737-132.425,98.732-159.072,285.238-59.509,416.566l.502.665M1799.261,1499.247l15.382-299.553-15.382-235.828c-9.427,12.778-21.912,22.983-36.31,29.679v176.075l12.373,297.548,23.937,32.079ZM1807.263,947.314l-6.015,5.612c-13.791,19.47-40.863,24.148-60.473,10.453-16.442-11.483-22.789-32.681-15.342-51.223,4.202,22.11,25.662,36.654,47.926,32.478,11.701-2.182,21.878-9.339,27.888-19.614"/>
      </g>
    </g>
  </g>
</svg>