<?xml version="1.0" encoding="UTF-8"?>
<svg xmlns="http://www.w3.org/2000/svg" viewBox="0 0 3600.1 2401.738">
  <defs>
    <style>
      .cls-1 {
        stroke-width: 1.83px;
      }

      .cls-1, .cls-2, .cls-3, .cls-4, .cls-5, .cls-6, .cls-7, .cls-8, .cls-9, .cls-10, .cls-11 {
        fill-rule: evenodd;
      }

      .cls-1, .cls-2, .cls-3, .cls-4, .cls-5, .cls-6, .cls-7, .cls-8, .cls-10, .cls-11 {
        stroke: #000;
        stroke-miterlimit: 8;
      }

      .cls-1, .cls-5, .cls-11 {
        fill: #f9dd16;
      }

      .cls-2 {
        stroke-width: .15px;
      }

      .cls-2, .cls-4, .cls-6 {
        fill: #0051ba;
      }

      .cls-3 {
        stroke-width: 1.017px;
      }

      .cls-3, .cls-8, .cls-10 {
        fill: #ff0016;
      }

      .cls-4 {
        stroke-width: .211px;
      }

      .cls-5 {
        stroke-width: 1.444px;
      }

      .cls-6 {
        stroke-width: .19px;
      }

      .cls-7 {
        fill: #e8112d;
      }

      .cls-7, .cls-11 {
        stroke-width: 2.033px;
      }

      .cls-12 {
        fill: #d52048;
      }

      .cls-12, .cls-9 {
        stroke-width: 0px;
      }

      .cls-8 {
        stroke-width: .722px;
      }

      .cls-9 {
        fill: #eee;
      }

      .cls-10 {
        stroke-width: .915px;
      }
    </style>
  </defs>
  <g id="background">
    <path id="je" class="cls-9" d="M400,.1h2800c220,0,400,180,400,400v1600c0,220-180,400-400,400H400C180,2400.1,0,2220.1,0,2000.1V400.1C0,180.1,180,.1,400,.1Z"/>
  </g>
  <g id="country">
    <g id="je-2" data-name="je">
      <g>
        <path class="cls-12" d="M2068.4,1199.9L3552.5,210.6c-23.9-44.4-56-83.8-94.2-116.1l-.066.044c-42.886-36.372-93.462-63.752-149.033-79.444l-1509.1,1006.033L291,15.1c-55.571,15.692-106.147,43.072-149.033,79.444l-.066-.044c-38.2,32.3-70.3,71.7-94.2,116.1l1484.1,989.3v.2S47.74,2189.473,47.74,2189.473c23.896,44.37,55.981,83.745,94.16,116.027l.066-.044c42.886,36.372,93.462,63.752,149.034,79.444l1509.1-1006.033,1509.1,1006.033c55.572-15.692,106.148-43.072,149.034-79.444l.066.044c38.179-32.282,70.264-71.657,94.16-116.027l-1484.06-989.373v-.2Z"/>
        <g>
          <path class="cls-7" d="M2008.906,364.33c50.953,207.262,23.011,463.246-207.142,605.272-230.168-142.026-258.106-398.009-207.143-605.272,54.253-49.545,300.834-80.097,414.274,0h.011Z"/>
          <path class="cls-11" d="M1800,319.955c84.852,0,163.883,22.385,210.468,51.406,9.146-71.303,41.588-142.606,79.855-196.497-39.927-.83-57.818,20.312-58.23,42.282-9.98-28.188-49.084-26.53-61.14-11.191,43.675,29.433,9.983,81.663-29.518,70.888-18.57-5.06-28.378-17.958-31.847-36.683,11.831-.75,20.815-10.916,20.069-22.712-.757-11.796-10.951-20.748-22.779-20.002-11.845.75-20.829,10.916-20.073,22.712.529,8.321,5.849,15.575,13.626,18.581-12.496,20.316-34.877,26.414-50.921,21.938-20.801-5.806-29.532-24.461-29.532-41.043,0-43.109,41.574-49.745,54.07-42.282-.813-29.018-46.575-52.233-60.718-28.188,15.804-28.188,14.981-67.988-13.316-94.518-28.272,26.534-29.11,66.327-13.291,94.518-14.143-24.046-59.905-.827-60.729,28.188,12.468-7.46,54.07-.83,54.07,42.285,0,16.582-8.734,35.236-29.536,41.039-16.043,4.476-38.439-1.622-50.945-21.938,11.01-4.258,16.483-16.636,12.225-27.646-.008-.021-.016-.042-.024-.063-4.304-11.011-16.747-16.459-27.804-12.162-11.046,4.293-16.508,16.698-12.201,27.709,3.051,7.765,10.321,13.061,18.648,13.584-3.484,18.725-13.306,31.622-31.847,36.683-39.501,10.779-73.193-41.455-29.532-70.888-12.056-15.34-51.146-16.997-61.14,11.191-.426-21.97-18.303-43.109-58.23-42.282,38.252,53.894,70.698,125.194,79.854,196.497,46.585-29.022,125.616-51.406,210.454-51.406h.014Z"/>
          <path class="cls-11" d="M1976.699,526.024c-5.127,1.232-5.127,7.883-7.805,7.883,13.32-.369,19.795-4.065,23.831-10.839-2.931,2.71-.373,7.883-1.348,9.114,9.779-3.449,14.439-11.824,11.018-17.49,2.196,3.199,8.565,4.927,10.508,5.173-6.845-5.423-1.943-17.74-12.961-24.141,3.677-.246,10.765,3.938,12.721,8.868-1.703-11.089-3.438-18.232-12.482-24.391.975,1.109,6.116,2.097,8.312,0-5.859-3.695-7.577-9.853-7.073-13.795.679-5.514-2.942-6.651-9.804-4.927-6.165,1.552-20.284,2.463-28.596,2.463-17.131,0-32.052,0-46.237-9.853,21.287,8.868,48.433-9.853,48.433-25.372,0-17.247-21.044-31.288-63.603-21.927-42.546,9.361-94.388,5.419-94.388-8.868s37.165-16.258,56.252-13.302c19.073,2.956,32.755,4.927,68.477-7.883-8.805,3.449-37.189,4.434-59.673-1.971-22.511-6.405-77.792-6.405-78.271,23.652-.493,30.053,58.849,27.315,110.066,19.707,29.824-4.438,45.477-1.478,45.477,8.375,0,9.361-27.389,13.302-48.419,10.839-21.033-2.463-42.56-1.971-67.51,5.419-20.819,6.169-35.205,0-58.209,3.941-11.138,1.907-38.15,0-51.484-22.17-8.206,5.912-32.9,18.289-37.056,30.359-5.877,11.085-1.946,22.11,5.859,32.949,9.857,13.643-4.874,11.581-15.399,12.074-14.41.676-33.713-1.545-43.784-13.056-8.924-10.205-20.791-18.38-30.289-10.818-4.877,3.892-.201,9.016,3.663,7.58,3.822-1.418,8.351,1.436,12.44,3.238-6.528-2.826-13.707-.633-16.504,1.886-3.86,3.48.827,10.135,5.504,7.784,3.663-1.844,11.173-3.072,16.065,1.436-5.289-1.028-10.793-.809-13.429,2.048-2.636,2.854-.598,7.017,5.089,6.76,9.149-.408,11.497,6.046,20.646,4.719-5.62.739-8.819,3.695-10.283,5.912,8.565-3.941,18.021,6.683,29.117,4.188-4.328,1.795-11.307,6.081-11.24,9.361,6.577-7.636,50.868,5.912,51.843-10.839,1.225,3.449.971,8.622-2.439,13.056,5.662-3.449,23.961-4.68,29.585-17.982.493,3.941-.239,9.114-3.663,10.346,5.873,1.932,13.601-2.474,21.512-14.287,3.143-4.687,3.888-7.802,3.343-11.328,7.847.299,13.534-1.686,19.647-6.904,6.369-5.416,13.214,4.438,23.965-2.463,10.775-6.894,20.073-.985,25.935-4.431,5.873-3.452,13.946,1.228,20.298-2.713,6.369-3.941,16.226,1.932,26.762-6.443,16.557,6.113,35.898,17.437,83.317,8.66,27.174-5.029,35.701,4.188,35.701,16.754,0,8.618-5.011,9.371-8.805,9.607-15.121.936-21.607-5.701-27.59-3.572-3.994,1.436-6.447,7.992-.651,10.244-4.782,2.46-4.17,7.07-1.717,8.759,2.435,1.689,8.738.155,13.013-1.844-5.504,2.509-11.191,7.017-7.939,11.729,1.971,2.857,6.94,5.282,11.602-.82,4.663-6.148,13.214-11.268,18.648-10.455h0ZM1678.592,396.385c-14.959-5.849-20.002-6.011-16.557,5.595,1.482,4.958,5.075,11.951,8.678,15.128.13-4.828,2.006-18.179,7.879-20.724Z"/>
          <path class="cls-11" d="M1720.821,396.385c11.968-5.849,16.005-6.011,13.246,5.595-1.186,4.958-4.068,11.951-6.954,15.128-.091-4.828-1.594-18.179-6.292-20.724h0Z"/>
          <path class="cls-11" d="M1697.954,388.956c26.703,0,30.039,11.996,29.901,26.949-.109,16.156-9.181,10.61-14.34,31.351-2.016,8.108-8.77,8.562-15.561,8.562s-13.545-.454-15.575-8.562c-5.131-20.741-14.217-15.195-14.34-31.351-.123-14.952,3.209-26.949,29.93-26.949h-.014Z"/>
          <path class="cls-11" d="M1633.013,449.533c-6.563-3.938-10.8-1.214-13.471-.472,8.509,2.213,8.854,13.277,28.293,18.45-4.381-1.232-6.802,1.232-10.944-.985,8.02,6.401,17.008,13.816,35.972,14.034,10.575.123,3.269,5.666-3.653,2.463,7.186,7.51,21.399,1.355,30.387,15.023,1.693-10.589-16.768-27.336-8.273-39.399-26.217-1.133-28.374-15.86-43.488-27.579-12.306-9.53-13.404-19.218-18.831-37.351-2.477-8.21-11.965-13.33-17.219-11.388-4.592,1.7-6.274,5.736-2.33,8.755,3.945,3.023,8.984,3.431,10.072,11.085-5.124-6.218-12.799-8.474-16.49-4.582-2.249,2.368-1.337,7.897,3.494,8.4,7.872.82,2.21,8.601,11.17,16.212-7.943-9.048-14.808-9.864-19.059-4.951-2.541,2.945,0,8.192,5.465,7.633,7.904-.816,17.074,19.506,28.906,24.651ZM1842.922,523.768c-4.16.735-2.924,7.626-8.548,8.118,13.443,0,20.263-3.202,26.604-8.365-2.914,1.721-4.135,6.151-4.374,8.608,7.073-6.148,23.916-6.64,32.706-4.916,8.787,1.721,10.251-2.463,13.415-8.118,3.188-5.659-1.225-8.857-5.599-13.284-4.413-4.427-5.384-10.578-4.413-20.907-23.426-31.485-65.412-16.237-65.905-2.46,15.142,17.708,17.085,15.741,29.796,18.201,12.683,2.46,20.46,2.453,11.951,9.593-2.924,2.46-15.142,1.306-24.662,1.724-21.287.933-31.031-14.822-37.32-6.64-5.184,6.728.162,9.702,10.715,9.343-7.313.053-17.004-.345-15.34,6.514,2.791,11.56,13.745-2.147,18.028,2.608-3.656-.869-9.347,1.383-9.561,4.86-.201,3.48,8.122,7.978,17.272.665,4.997-4.012,11.381-5.511,15.234-5.543h0Z"/>
          <path class="cls-11" d="M1861.584,476.933c-7.974-2.872-15.28-4.628-24.633-2.727M1748.974,473.414c-6.246,12.584-2.463,18.795-1.534,24.633M1682.111,407.301c3.487,2.97,5.444-5.423,10.557,3.487-1.411-2.601-3.153,6.908-7.07.598M1717.302,407.301c-4.649,2.97-7.26-5.423-14.076,3.487,1.879-2.601,4.205,6.908,9.428.598M1701.924,410.071c-1.284,1.267-1.411-1.01-.44,4.976,1.809,10.994,3.956,16.138-3.512,16.138-7.619,0-5.31-5.145-3.516-16.138.999-5.986.873-3.709-.426-4.976"/>
          <path class="cls-3" d="M1697.947,452.299c6.486,0,10.24-.12,9.223-9.607-.422-3.808,4.437-5.324,2.727-11.507,1.823,7.591-11.951,6.866-11.951,3.424,0,3.442-13.759,4.167-11.951-3.424-1.71,6.183,3.139,7.7,2.727,11.507-1.014,9.487,2.741,9.607,9.223,9.607ZM1692.669,431.185l-17.595-3.519M1692.669,434.704l-17.595-3.519M1692.669,434.704l-17.595,3.519M1703.226,431.185l17.595-3.519M1703.226,434.704l21.114-3.519M1703.226,434.704l17.595,3.519"/>
          <path class="cls-4" d="M1610.995,381.186c-4.737-6.317-16.614-.982-16.86,6.855,4.012-5.078,10.564,2.238,14.136.697,2.467-1.063,4.645-4.979,2.724-7.552ZM1603.946,395.263c-4.74-6.317-16.614-.982-16.849,6.855,3.991-5.078,10.55,2.238,14.136.697,2.481-1.063,4.652-4.983,2.713-7.552ZM1603.657,415.638c-5.55-5.493-17.141.985-16.536,8.509,3.565-5.324,11.067.918,14.565-.968,2.425-1.306,4.233-5.303,1.971-7.541ZM1607.089,474.744c-5.113-4.297-14.055,2.625-12.841,9.227,2.428-5.078,9.22-.32,11.926-2.347,1.883-1.404,2.998-5.131.915-6.88h0ZM1608.834,487.891c-8.653-2.53-17.944,7.492-13.591,13.675,1.204-5.919,12.341-3.512,15.174-6.482,1.978-2.055,1.928-6.162-1.584-7.193ZM1616.453,498.448c-6.922-2.53-14.347,7.492-10.881,13.675.975-5.923,9.871-3.512,12.148-6.482,1.58-2.055,1.541-6.165-1.267-7.193ZM1806.482,516.044c-6.926-2.53-14.354,7.492-10.874,13.675.975-5.919,9.875-3.512,12.137-6.482,1.584-2.055,1.545-6.162-1.263-7.193h0ZM1816.416,526.376c-7.562-1.629-14.111,8.502-9.723,13.9.292-5.623,9.91-4.318,11.926-7.33,1.401-2.08.88-5.909-2.203-6.57ZM1810.733,502.548c-5.951-4.117-14.333,5.585-12.134,13.094,1.833-6.377,9.593-2.023,12.144-4.881,1.777-1.981,2.4-6.538-.011-8.213ZM1946.622,519.38c-7.562-2.03-14.111,10.628-9.723,17.377.306-7.031,9.924-5.398,11.926-9.16,1.401-2.604.88-7.39-2.203-8.217ZM1947.41,505.919c-7.664-3.765-17.94,6.018-14.896,13.242,2.087-6.285,12.091-2.354,15.223-5.243,2.164-1.999,2.805-6.461-.327-7.999ZM1953.392,529.863c-7.784-1.633-13.953,11.06-9.216,17.451.042-6.887,9.896-5.747,11.789-9.523,1.334-2.611.598-7.267-2.572-7.928h0ZM1699.478,445.261c5.166,0,7.267,1.355,7.267,9.751,0,17.789-.243,25.439-6.605,25.439s-5.944-7.267-5.944-20.326c0-6.816,0-10.223-1.527-9.656,0-4.445,2.203-5.208,6.809-5.208h0Z"/>
          <path class="cls-1" d="M1952.259,696.424c-4.603,1.101-4.603,7.063-7.007,7.063,11.958-.331,17.764-3.642,21.389-9.713-2.632,2.428-.334,7.063-1.207,8.168,8.773-3.09,12.957-10.592,9.885-15.67,1.971,2.868,7.686,4.416,9.431,4.635-6.144-4.856-1.745-15.889-11.63-21.625,3.297-.222,9.66,3.53,11.416,7.943-1.531-9.931-3.083-16.332-11.201-21.846.873.992,5.486,1.876,7.46,0-5.261-3.311-6.802-8.826-6.348-12.359.609-4.941-2.643-5.958-8.798-4.413-5.535,1.39-18.208,2.206-25.668,2.206-15.371,0-28.761,0-41.49-8.826,19.101,7.943,43.464-8.829,43.464-22.733,0-15.449-18.887-28.026-57.083-19.64-38.178,8.386-84.707,4.853-84.707-7.946s33.354-14.565,50.484-11.916c17.117,2.646,29.395,4.413,61.457-7.063-7.904,3.09-33.378,3.973-53.557-1.767-20.203-5.736-69.811-5.736-70.241,21.188-.443,26.921,52.811,24.472,98.777,17.655,26.766-3.973,40.811-1.327,40.811,7.503,0,8.382-24.577,11.916-43.453,9.709-18.876-2.206-38.192-1.767-60.584,4.856-18.683,5.525-31.594,0-52.24,3.53-9.991,1.71-34.237,0-46.202-19.862-7.362,5.296-29.525,16.385-33.255,27.199-5.272,9.931-1.745,19.809,5.258,29.518,8.847,12.218-4.374,10.371-13.816,10.814-12.936.605-30.257-1.383-39.294-11.697-8.009-9.139-18.662-16.466-27.185-9.691-4.374,3.487-.18,8.076,3.287,6.792,3.431-1.267,7.496,1.284,11.166,2.9-5.859-2.53-12.303-.567-14.812,1.689-3.466,3.121.743,9.083,4.937,6.975,3.287-1.65,10.029-2.752,14.418,1.284-4.747-.918-9.685-.721-12.049,1.837-2.368,2.558-.538,6.285,4.564,6.056,8.213-.366,10.318,5.416,18.531,4.226-5.046.662-7.914,3.311-9.23,5.296,7.686-3.53,16.174,5.989,26.133,3.751-3.885,1.608-10.149,5.448-10.089,8.386,5.905-6.841,45.653,5.296,46.526-9.709,1.098,3.09.873,7.724-2.189,11.697,5.081-3.09,21.505-4.195,26.551-16.11.443,3.53-.215,8.164-3.287,9.266,5.272,1.735,12.204-2.213,19.306-12.799,2.822-4.198,3.491-6.989,2.998-10.145,7.042.267,12.148-1.51,17.634-6.183,5.715-4.856,11.859,3.97,21.505-2.21,9.67-6.176,18.014-.88,23.275-3.97,5.272-3.09,12.517,1.101,18.218-2.428,5.715-3.53,14.562,1.728,24.018-5.775,14.857,5.476,32.213,15.621,74.773,7.76,24.384-4.504,32.038,3.751,32.038,15.009,0,7.721-4.497,8.393-7.904,8.608-13.566.838-19.39-5.11-24.757-3.202-3.586,1.288-5.785,7.161-.584,9.178-4.293,2.203-3.744,6.334-1.545,7.847,2.189,1.513,7.844.137,11.68-1.65-4.937,2.245-10.04,6.285-7.123,10.504,1.767,2.562,6.229,4.733,10.409-.732,4.184-5.507,11.859-10.096,16.737-9.368h0ZM1682.111,578.817c-11.968-5.011-16.001-5.148-13.246,4.797,1.186,4.251,4.058,10.244,6.943,12.968.106-4.138,1.605-15.582,6.303-17.764h0ZM1720.821,578.817c11.968-5.011,16.005-5.148,13.246,4.797-1.186,4.251-4.068,10.244-6.954,12.968-.091-4.138-1.594-15.582-6.292-17.764h0Z"/>
          <path class="cls-1" d="M1701.473,571.948c23.56,0,26.506,10.733,26.382,24.113-.095,14.456-8.101,9.494-12.651,28.05-1.781,7.256-7.738,7.661-13.731,7.661s-11.951-.405-13.745-7.661c-4.526-18.556-12.542-13.594-12.651-28.05-.109-13.379,2.833-24.113,26.407-24.113h-.011Z"/>
          <path class="cls-1" d="M1643.433,626.38c-5.887-3.582-9.685-1.105-12.081-.433,7.629,2.016,7.939,12.074,25.369,16.775-3.927-1.119-6.098,1.119-9.811-.897,7.19,5.821,15.244,12.56,32.249,12.76,9.48.113,2.931,5.148-3.276,2.238,6.443,6.827,19.186,1.232,27.245,13.657,1.517-9.625-15.033-24.848-7.415-35.817-23.507-1.028-25.439-14.421-38.991-25.073-11.036-8.66-12.021-17.469-16.884-33.955-2.22-7.464-10.726-12.12-15.438-10.35-4.117,1.545-5.624,5.215-2.087,7.96s8.055,3.118,9.03,10.075c-4.592-5.655-11.476-7.703-14.784-4.167-2.02,2.154-1.2,7.182,3.132,7.636,7.059.746,1.981,7.819,10.015,14.741-7.123-8.224-13.277-8.97-17.089-4.501-2.277,2.674,0,7.446,4.902,6.936,7.084-.743,15.304,17.733,25.914,22.413h0ZM1835.145,693.679c-3.73.662-2.622,6.823-7.664,7.263,12.053,0,18.165-2.861,23.852-7.482-2.611,1.538-3.705,5.5-3.92,7.7,6.341-5.5,21.442-5.94,29.321-4.399,7.879,1.541,9.188-2.203,12.028-7.263,2.861-5.064-1.098-7.921-5.018-11.884-3.959-3.962-4.828-9.466-3.959-18.711-21.002-28.17-58.645-14.523-59.085-2.199,13.576,15.846,15.315,14.087,26.713,16.286,11.37,2.199,18.341,2.196,10.715,8.587-2.625,2.199-13.576,1.165-22.114,1.538-19.08.834-27.818-13.26-33.456-5.94-4.649,6.021.141,8.682,9.607,8.361-6.556.046-15.244-.31-13.756,5.828,2.502,10.343,12.324-1.921,16.163,2.333-3.28-.778-8.379,1.235-8.569,4.346-.18,3.114,7.281,7.14,15.484.595,4.48-3.586,10.202-4.93,13.657-4.958h0Z"/>
          <path class="cls-1" d="M1851.026,652.886c-6.834-2.872-13.098-4.628-21.114-2.724M1745.455,649.367c-6.246,10.786-2.463,16.11-1.534,21.114M1685.63,589.919c4.649,1.482,7.26-2.713,14.076,1.742-1.879-1.299-4.205,3.452-9.428.299M1717.302,589.919c-3.487,1.482-5.444-2.713-10.557,1.742,1.411-1.299,3.153,3.452,7.07.299M1705.443,593.062c-1.284,1.056-1.415-.841-.44,4.145,1.809,9.164,3.956,13.45-3.512,13.45-7.619,0-5.31-4.286-3.516-13.45.999-4.987.869-3.09-.426-4.145"/>
          <path class="cls-10" d="M1701.466,628.253c6.486,0,10.24-.099,9.223-8.006-.422-3.174,4.437-4.438,2.727-9.589,1.823,6.327-11.951,5.722-11.951,2.854,0,2.868-13.759,3.473-11.951-2.854-1.71,5.152,3.139,6.415,2.727,9.589-1.017,7.907,2.741,8.006,9.223,8.006ZM1696.188,610.657l-14.076-3.519M1696.188,614.187l-17.595-3.519M1696.188,614.176l-14.076,3.519M1706.745,610.657l17.595-3.519M1706.745,614.187l17.595-3.519M1706.745,614.176l14.076,3.519"/>
          <path class="cls-6" d="M1625.074,566.767c-4.74-4.209-16.617-.655-16.863,4.571,4.012-3.385,10.568,1.492,14.136.465,2.467-.711,4.645-3.322,2.727-5.036h0ZM1618.174,578.254c-3.794-6.313-13.295-.982-13.482,6.855,3.192-5.078,8.439,2.238,11.31.697,1.985-1.063,3.72-4.983,2.171-7.552ZM1614.422,597.946c-4.441-3.66-13.714.658-13.232,5.673,2.854-3.547,8.858.612,11.655-.644,1.939-.869,3.385-3.537,1.577-5.029ZM1621.165,650.697c-5.113-4.297-14.055,2.625-12.841,9.227,2.428-5.078,9.22-.32,11.93-2.347,1.879-1.404,2.995-5.131.911-6.88h0ZM1619.972,663.746c-6.926-1.897-14.354,5.616-10.874,10.255.961-4.441,9.875-2.632,12.137-4.86,1.584-1.541,1.545-4.624-1.263-5.395h0ZM1630.529,670.882c-6.922-2.53-14.347,7.492-10.881,13.675.975-5.923,9.871-3.512,12.148-6.482,1.58-2.055,1.541-6.162-1.267-7.193h0ZM1800.021,688.478c-5.191-2.53-10.765,7.492-8.154,13.675.732-5.919,7.404-3.512,9.104-6.482,1.186-2.052,1.158-6.162-.95-7.193h0ZM1809.378,695.291c-7.562-1.626-14.111,8.502-9.723,13.9.292-5.623,9.91-4.318,11.926-7.33,1.401-2.08.88-5.909-2.203-6.57ZM1803.695,674.982c-5.951-4.117-14.333,5.585-12.134,13.094,1.833-6.377,9.593-2.02,12.144-4.881,1.777-1.981,2.4-6.538-.011-8.213ZM1925.507,691.772c-7.562-1.626-14.111,8.502-9.723,13.9.306-5.623,9.924-4.318,11.926-7.327,1.401-2.083.88-5.912-2.203-6.574ZM1926.725,678.357c-6.13-3.769-14.351,6.014-11.915,13.239,1.668-6.285,9.674-2.354,12.179-5.243,1.728-1.999,2.242-6.461-.264-7.995h0Z"/>
          <path class="cls-6" d="M1929.561,698.778c-5.842-1.633-10.466,11.06-6.911,17.451.032-6.887,7.422-5.747,8.84-9.519.999-2.615.45-7.267-1.928-7.932h0ZM1702.997,624.733c5.166,0,7.267,1.221,7.267,8.777,0,16.012-.243,22.895-6.605,22.895s-5.944-6.542-5.944-18.296c0-6.134,0-9.199-1.527-8.689,0-4.001,2.203-4.687,6.809-4.687h0Z"/>
          <path class="cls-5" d="M1914.866,839.562c-3.417.897-3.417,5.75-5.201,5.75,8.879-.271,13.196-2.967,15.885-7.907-1.953,1.978-.25,5.75-.897,6.648,6.517-2.516,9.628-8.622,7.344-12.753,1.464,2.333,5.711,3.593,7.007,3.772-4.564-3.952-1.295-12.933-8.639-17.602,2.449-.179,7.175,2.872,8.481,6.468-1.137-8.087-2.291-13.295-8.323-17.785.648.809,4.075,1.527,5.543,0-3.91-2.696-5.053-7.186-4.716-10.057.454-4.022-1.964-4.853-6.535-3.593-4.114,1.13-13.527,1.795-19.066,1.795-11.419,0-21.368,0-30.823-7.186,14.189,6.468,32.287-7.182,32.287-18.5,0-12.574-14.03-22.814-42.401-15.987-28.364,6.823-62.928,3.952-62.928-6.468s24.778-11.856,37.503-9.699c12.718,2.157,21.836,3.593,45.653-5.747-5.87,2.513-24.792,3.23-39.783-1.439-15.009-4.67-51.86-4.67-52.181,17.247-.327,21.913,39.234,19.918,73.376,14.368,19.883-3.234,30.32-1.077,30.32,6.109,0,6.823-18.261,9.699-32.28,7.9-14.023-1.795-28.374-1.436-45.005,3.952-13.879,4.501-23.472,0-38.808,2.875-7.422,1.39-25.432,0-34.321-16.167-5.469,4.311-21.934,13.337-24.704,22.138-3.917,8.083-1.299,16.121,3.906,24.025,6.57,9.948-3.252,8.442-10.265,8.805-9.607.489-22.476-1.126-29.191-9.523-5.947-7.439-13.862-13.401-20.192-7.886-3.252,2.836-.134,6.574,2.442,5.528,2.548-1.035,5.567,1.045,8.294,2.358-4.353-2.059-9.139-.461-11.004,1.376-2.576,2.541.552,7.39,3.667,5.676,2.442-1.344,7.453-2.242,10.712,1.045-3.526-.746-7.193-.588-8.953,1.496s-.398,5.117,3.392,4.93c6.102-.299,7.664,4.406,13.763,3.438-3.748.542-5.877,2.696-6.855,4.311,5.711-2.872,12.014,4.874,19.415,3.055-2.889,1.309-7.541,4.434-7.496,6.827,4.385-5.571,33.913,4.311,34.561-7.904.816,2.516.648,6.285-1.626,9.519,3.776-2.513,15.976-3.41,19.724-13.112.327,2.875-.162,6.648-2.442,7.545,3.917,1.411,9.065-1.802,14.34-10.42,2.097-3.417,2.594-5.687,2.231-8.259,5.229.218,9.023-1.228,13.098-5.032,4.244-3.952,8.808,3.234,15.976-1.795,7.182-5.029,13.379-.721,17.289-3.234,3.917-2.516,9.297.897,13.534-1.978,4.244-2.872,10.814,1.408,17.838-4.698,11.039,4.455,23.933,12.714,55.548,6.317,18.113-3.667,23.796,3.051,23.796,12.215,0,6.285-3.336,6.834-5.87,7.006-10.079.683-14.404-4.156-18.391-2.608-2.664,1.049-4.297,5.828-.433,7.471-3.188,1.795-2.78,5.155-1.147,6.387,1.626,1.232,5.828.113,8.678-1.344-3.67,1.83-7.46,5.117-5.293,8.551,1.313,2.087,4.624,3.853,7.735-.595,3.107-4.483,8.808-8.217,12.429-7.626h0ZM1713.783,743.657c-8.974-4.177-12.004-4.293-9.934,3.994.89,3.544,3.044,8.537,5.208,10.807.077-3.449,1.203-12.985,4.726-14.801ZM1741.935,743.657c8.977-4.177,12.004-4.293,9.934,3.994-.89,3.544-3.051,8.537-5.215,10.807-.07-3.449-1.193-12.985-4.719-14.801Z"/>
          <path class="cls-5" d="M1726.103,737.343c17.278,0,19.439,9.473,19.348,21.276-.07,12.757-5.94,8.379-9.276,24.753-1.305,6.401-5.676,6.757-10.072,6.757s-8.762-.355-10.079-6.757c-3.318-16.378-9.199-11.996-9.276-24.753-.081-11.803,2.076-21.276,19.365-21.276h-.011Z"/>
          <path class="cls-5" d="M1681.865,783c-4.529-2.864-7.45-.88-9.294-.341,5.87,1.608,6.109,9.656,19.517,13.415-3.023-.894-4.691.897-7.548-.714,5.532,4.656,11.729,10.047,24.806,10.209,7.295.088,2.256,4.117-2.52,1.791,4.958,5.462,14.759.985,20.956,10.923,1.168-7.7-11.564-19.879-5.704-28.652-18.081-.823-19.566-11.536-29.989-20.059-8.488-6.929-9.248-13.974-12.989-27.164-1.707-5.972-8.252-9.695-11.877-8.28-3.164,1.235-4.325,4.17-1.605,6.366,2.72,2.196,6.197,2.495,6.947,8.062-3.533-4.525-8.826-6.162-11.374-3.333-1.552,1.724-.922,5.743,2.411,6.109,5.43.595,1.524,6.253,7.703,11.792-5.476-6.581-10.212-7.175-13.144-3.604-1.752,2.143,0,5.958,3.769,5.55,5.451-.591,11.775,14.189,19.935,17.93h0ZM1825.211,839.456c-2.727.545-1.918,5.62-5.602,5.982,8.808,0,13.274-2.358,17.43-6.162-1.907,1.267-2.71,4.533-2.865,6.341,4.635-4.529,15.67-4.892,21.428-3.621,5.757,1.267,6.714-1.816,8.787-5.982,2.09-4.17-.799-6.524-3.667-9.79-2.889-3.262-3.526-7.791-2.889-15.406-15.35-23.198-42.859-11.961-43.179-1.812,9.92,13.052,11.191,11.602,19.52,13.415,8.309,1.812,13.404,1.805,7.83,7.07-1.918,1.812-9.92.961-16.159,1.267-13.942.686-20.33-10.92-24.45-4.892-3.396,4.958.106,7.151,7.021,6.883-4.79.039-11.138-.253-10.051,4.8,1.83,8.516,9.005-1.58,11.81,1.921-2.393-.64-6.123,1.021-6.26,3.582-.13,2.562,5.321,5.877,11.314.489,3.276-2.956,7.457-4.061,9.983-4.086h0Z"/>
          <path class="cls-5" d="M1836.95,804.206c-5.697-2.868-10.916-4.624-17.595-2.724M1759.531,800.687c-6.246,10.786-2.463,16.11-1.534,21.114M1713.783,755.315c3.487,1.485,5.447-2.713,10.557,1.742-1.408-1.299-3.153,3.456-7.07.299M1738.416,755.315c-2.322,1.485-3.628-2.713-7.038,1.742.94-1.299,2.101,3.456,4.716.299M1730.513,754.939c-.859.845-.943-.672-.296,3.318,1.207,7.33,2.636,10.758-2.34,10.758-5.081,0-3.54-3.428-2.344-10.758.665-3.991.581-2.474-.285-3.318"/>
          <path class="cls-8" d="M1726.1,786.61c4.631,0,7.313-.099,6.588-8.006-.299-3.174,3.171-4.437,1.95-9.589,1.302,6.327-8.537,5.722-8.537,2.854,0,2.868-9.829,3.473-8.534-2.854-1.225,5.152,2.238,6.415,1.946,9.589-.725,7.907,1.957,8.006,6.588,8.006ZM1724.34,772.534l-14.076-3.519M1724.34,776.088l-14.076-3.519M1724.34,772.534l-10.557,3.519M1731.378,772.534l10.557-3.519M1731.378,776.088l10.557-3.519M1731.378,772.534l10.557,3.519"/>
          <path class="cls-2" d="M1667.595,733.096c-2.843-6.317-9.97-.982-10.117,6.852,2.407-5.078,6.341,2.238,8.481.7,1.482-1.066,2.787-4.983,1.636-7.552h0Z"/>
          <path class="cls-2" d="M1664.069,743.653c-2.843-6.317-9.97-.982-10.11,6.852,2.393-5.078,6.331,2.238,8.481.7,1.488-1.063,2.791-4.983,1.629-7.552h0ZM1663.689,759.823c-4.441-3.66-13.714.658-13.232,5.673,2.854-3.547,8.858.616,11.655-.644,1.939-.869,3.389-3.537,1.577-5.029ZM1667.194,802.017c-3.836-4.293-10.543,2.625-9.632,9.227,1.819-5.074,6.915-.317,8.945-2.347,1.411-1.404,2.249-5.131.686-6.88h0ZM1666.297,811.645c-5.191-2.527-10.765,7.492-8.154,13.675.721-5.919,7.404-3.509,9.104-6.479,1.186-2.055,1.158-6.165-.95-7.197h0ZM1673.338,822.104c-5.191-1.897-10.761,5.616-8.161,10.255.728-4.441,7.401-2.632,9.107-4.86,1.186-1.541,1.158-4.624-.947-5.395h0ZM1800.021,836.18c-5.191-1.897-10.765,5.62-8.154,10.255.732-4.441,7.404-2.632,9.104-4.86,1.186-1.541,1.158-4.624-.95-5.395h0ZM1806.595,843.045c-5.673-1.218-10.585,6.38-7.295,10.427.222-4.219,7.436-3.238,8.945-5.497,1.049-1.559.662-4.434-1.65-4.93ZM1800.574,826.056c-4.462-3.086-10.751,4.191-9.1,9.822,1.372-4.782,7.193-1.517,9.107-3.66,1.33-1.485,1.798-4.906-.007-6.162h0ZM1894.571,836.053c-5.673-1.626-10.585,8.502-7.295,13.9.232-5.623,7.446-4.318,8.945-7.327,1.049-2.083.662-5.912-1.65-6.574ZM1891.964,829.258c-4.596-1.883-10.761,3.009-8.938,6.619,1.253-3.143,7.256-1.175,9.136-2.622,1.299-.999,1.682-3.23-.197-3.998h0ZM1897.89,846.522c-5.842-.978-10.466,6.633-6.911,10.469.032-4.131,7.422-3.449,8.84-5.711.999-1.566.45-4.36-1.928-4.758h0ZM1727.743,783.091c2.586,0,3.635.95,3.635,6.827,0,12.454-.123,17.806-3.304,17.806s-2.97-5.085-2.97-14.228c0-4.772,0-7.154-.764-6.76,0-3.111,1.101-3.646,3.403-3.646Z"/>
        </g>
      </g>
    </g>
  </g>
</svg>