<?xml version="1.0" encoding="UTF-8"?>
<svg xmlns="http://www.w3.org/2000/svg" viewBox="0 0 3600.1 2401.738">
  <defs>
    <style>
      .cls-1 {
        fill: #ffd202;
      }

      .cls-1, .cls-2, .cls-3 {
        fill-rule: evenodd;
        stroke-width: 0px;
      }

      .cls-2 {
        fill: #141414;
      }

      .cls-3 {
        fill: #009b3a;
      }
    </style>
  </defs>
  <g id="background">
    <path id="jm" class="cls-3" d="M400,.1h2800c220,0,400,180,400,400v1600c0,220-180,400-400,400H400C180,2400.1,0,2220.1,0,2000.1V400.1C0,180.1,180,.1,400,.1Z"/>
  </g>
  <g id="country">
    <g id="jm-2" data-name="jm">
      <g>
        <path class="cls-2" d="M1393.5,1199.9L13.132,298.621C4.57,331.057,0,365.07,0,400.1v1600C0,2043.21,6.914,2084.783,19.684,2123.768c-2.406-7.397-4.604-14.888-6.584-22.468l1380.4-901.4Z"/>
        <path class="cls-2" d="M3600,400.1c0-34.959-4.552-68.905-13.08-101.283l-1380.22,901.282,1380.22,901.283c8.529-32.377,13.08-66.323,13.08-101.282V400.1Z"/>
      </g>
      <path id="Path" class="cls-1" d="M3229.5,1.1c172.8,12.6,315.1,134.9,357.6,297.6l-1380.4,901.4,1380.4,901.4c-42.5,162.7-184.8,285-357.6,297.6l-1429.4-933.4-1429.4,933.2c-172.8-12.6-315.1-134.9-357.6-297.6l1380.4-901.4L13.1,298.6C55.5,135.9,197.9,13.6,370.7,1.1l1429.4,933.4L3229.5,1.1Z"/>
    </g>
  </g>
</svg>