<?xml version="1.0" encoding="UTF-8"?>
<svg xmlns="http://www.w3.org/2000/svg" viewBox="0 0 3600.1 2401.738">
  <defs>
    <style>
      .cls-1 {
        fill: #141414;
      }

      .cls-1, .cls-2, .cls-3 {
        fill-rule: evenodd;
      }

      .cls-1, .cls-2, .cls-3, .cls-4, .cls-5 {
        stroke-width: 0px;
      }

      .cls-2 {
        fill: #ce1126;
      }

      .cls-3 {
        fill: #fff;
      }

      .cls-4 {
        fill: #eee;
      }

      .cls-5 {
        fill: #007a3d;
      }
    </style>
  </defs>
  <g id="background">
    <path id="jo" class="cls-1" d="M400,.1h2800c220,0,400,180,400,400v1600c0,220-180,400-400,400H400C180,2400.1,0,2220.1,0,2000.1V400.1C0,180.1,180,.1,400,.1Z"/>
  </g>
  <g id="country">
    <g id="jo-2" data-name="jo">
      <g>
        <path class="cls-4" d="M3600,2000.1V800.1H0v1200C0,2220.1,180,2400.1,400,2400.1h2800c220,0,400-180,400-400Z"/>
        <path class="cls-5" d="M3600,2000.1v-400H0v400C0,2220.1,180,2400.1,400,2400.1h2800c220,0,400-180,400-400Z"/>
        <path id="l-t" class="cls-2" d="M0,2000.1V400.1C0,280.1,50,180.1,130,100.1l1570,1100L130,2300.1C50,2220.1,0,2120.1,0,2000.1Z"/>
        <polygon class="cls-3" points="480.995 1235.671 475.612 1307.001 528.1 1258.551 580.923 1307.001 575.54 1235.671 646.197 1224.904 587.318 1184.529 622.983 1122.62 554.679 1143.48 528.1 1076.861 501.853 1143.48 433.552 1122.62 469.217 1184.529 410 1224.904 480.995 1235.671"/>
      </g>
    </g>
  </g>
</svg>