<?xml version="1.0" encoding="UTF-8"?>
<svg xmlns="http://www.w3.org/2000/svg" viewBox="0 0 3600.1 2401.738">
  <defs>
    <style>
      .cls-1 {
        fill: #bb1600;
      }

      .cls-1, .cls-2, .cls-3, .cls-4, .cls-5, .cls-6, .cls-7 {
        stroke-width: 0px;
      }

      .cls-3 {
        fill: #141414;
      }

      .cls-4 {
        fill: #fff;
      }

      .cls-5 {
        fill: #060;
      }

      .cls-6 {
        fill: #b00;
      }

      .cls-7 {
        fill: #eee;
        fill-rule: evenodd;
      }
    </style>
  </defs>
  <g id="background">
    <path id="bg" class="cls-7" d="M400,.1h2800c220,0,400,180,400,400v1600c0,220-180,400-400,400H400C180,2400.1,0,2220.1,0,2000.1V400.1C0,180.1,180,.1,400,.1Z"/>
  </g>
  <g id="country">
    <g id="ke">
      <g id="gm">
        <path class="cls-3" d="M3200,.1H400C180,.1,0,180.1,0,400.1v400h3600v-400C3600,180.1,3420,.1,3200,.1Z"/>
        <rect class="cls-1" x="0" y="933.433" width="3600" height="533.333"/>
        <path class="cls-5" d="M0,2000.1C0,2220.1,180,2400.1,400,2400.1h2800c220,0,400-180,400-400v-400H0v400Z"/>
      </g>
      <g>
        <g id="b">
          <path id="a" class="cls-2" d="M1371.315,1912.605l25.981,15,700.695-1213.639c40.981-10.981,63.481-49.952,85.981-88.923,15-25.981,75-129.904,101.001-264.94-103.944,90.036-163.944,193.959-178.944,219.94-22.5,38.971-45,77.942-34.019,118.923l-700.695,1213.639Z"/>
          <path id="a-2" data-name="a" class="cls-4" d="M1371.315,1912.605l25.981,15,700.695-1213.639c40.981-10.981,63.481-49.952,85.981-88.923,15-25.981,75-129.904,101.001-264.94-103.944,90.036-163.944,193.959-178.944,219.94-22.5,38.971-45,77.942-34.019,118.923l-700.695,1213.639Z"/>
        </g>
        <g id="b-2" data-name="b">
          <path id="a-3" data-name="a" class="cls-2" d="M2228.685,1912.605l-25.981,15-700.695-1213.639c-40.981-10.981-63.481-49.952-85.981-88.923-15-25.981-75-129.904-101.001-264.94,103.944,90.036,163.944,193.959,178.944,219.94,22.5,38.971,45,77.942,34.019,118.923l700.695,1213.639Z"/>
          <path id="a-4" data-name="a" class="cls-4" d="M2228.685,1912.605l-25.981,15-700.695-1213.639c-40.981-10.981-63.481-49.952-85.981-88.923-15-25.981-75-129.904-101.001-264.94,103.944,90.036,163.944,193.959,178.944,219.94,22.5,38.971,45,77.942,34.019,118.923l700.695,1213.639Z"/>
        </g>
        <path class="cls-6" d="M1515,1560.1c45,120,195,360,285,360s240-240,285-360v-720c-45-120-195-360-285-360s-240,240-285,360v720Z"/>
        <path id="c" class="cls-2" d="M2085,1560.1c45-120,75-240,75-360s-30-240-75-360c-45,120-75,240-75,360s30,240,75,360Z"/>
        <path id="c-2" data-name="c" class="cls-2" d="M1515,1560.1c-45-120-75-240-75-360s30-240,75-360c45,120,75,240,75,360s-30,240-75,360Z"/>
        <g>
          <ellipse class="cls-4" cx="1800" cy="1200.1" rx="60" ry="90"/>
          <path id="d" class="cls-4" d="M1815,1287.85s60,120,60,315-60,315-60,315v-630Z"/>
          <path id="d-2" data-name="d" class="cls-4" d="M1785,1112.35s-60-120-60-315,60-315,60-315v630Z"/>
          <path id="d-3" data-name="d" class="cls-4" d="M1785,1287.85s-60,120-60,315,60,315,60,315v-630Z"/>
          <path id="d-4" data-name="d" class="cls-4" d="M1815,1112.35s60-120,60-315-60-315-60-315v630Z"/>
        </g>
      </g>
    </g>
  </g>
</svg>