<?xml version="1.0" encoding="UTF-8"?>
<svg xmlns="http://www.w3.org/2000/svg" viewBox="0 0 3600.1 2401.738">
  <defs>
    <style>
      .cls-1 {
        fill-rule: evenodd;
      }

      .cls-1, .cls-2, .cls-3, .cls-4 {
        stroke-width: 0px;
      }

      .cls-1, .cls-4 {
        fill: #e8112d;
      }

      .cls-2 {
        fill: #ff0;
      }

      .cls-3 {
        fill: none;
      }
    </style>
  </defs>
  <g id="background">
    <path id="kg" class="cls-1" d="M400,.1h2800c220,0,400,180,400,400v1600c0,220-180,400-400,400H400C180,2400.1,0,2220.1,0,2000.1V400.1C0,180.1,180,.1,400,.1Z"/>
  </g>
  <g id="country">
    <g id="kg-2" data-name="kg">
      <g id="svg1047">
        <g id="g1045">
          <circle id="circle1009" class="cls-4" cx="1800" cy="1200.1" r="496"/>
          <circle id="circle1015" class="cls-2" cx="1800" cy="1200.1" r="456"/>
          <path id="path1043" class="cls-2" d="M1800,1954.38l-25.72-257.08c-.88-8.64,2.16-17.44,8.8-23.04,3.96-3.32,9.44-5.88,16.92-5.76,11.04.2,17.72,6.12,21.6,11.92,3.48,5.16,4.84,11.44,4.24,17.64l-25.84,256.28v.04ZM2554.28,1200.1l-257.08-25.72c-8.64-.88-17.44,2.16-23.04,8.8-3.32,3.96-5.88,9.44-5.76,16.92.2,11.04,6.12,17.72,11.92,21.6,5.16,3.48,11.44,4.84,17.64,4.24l256.28-25.84h.04ZM2545,1318.1l-249.88-65.6c-8.4-2.2-17.56-.6-24.12,5.08-3.92,3.4-7.28,8.44-8.32,15.8-1.56,10.96,3.28,18.44,8.36,23.2,4.56,4.24,10.56,6.6,16.76,6.92l257.2,14.6ZM2517.36,1433.18l-236.56-103.88c-7.96-3.48-17.24-3.32-24.6,1.24-4.4,2.76-8.52,7.16-10.68,14.32-3.24,10.56.36,18.72,4.64,24.2,3.84,4.88,9.4,8.16,15.48,9.48l251.72,54.64h0ZM2472.08,1542.54l-217.4-139.6c-7.28-4.68-16.52-6-24.52-2.6-4.8,2.04-9.52,5.76-12.8,12.44-4.84,9.92-2.6,18.56.8,24.64,3.04,5.44,8,9.52,13.8,11.76l240.08,93.36h.04ZM2410.24,1643.46l-192.88-171.88c-6.48-5.76-15.36-8.52-23.8-6.4-5.04,1.24-10.32,4.2-14.6,10.32-6.36,9.04-5.48,17.92-3.08,24.48,2.16,5.84,6.4,10.64,11.8,13.8l222.52,129.76.04-.08ZM2333.36,1733.46l-163.6-199.96c-5.48-6.72-13.84-10.8-22.52-10.04-5.16.44-10.84,2.52-16,7.88-7.68,7.96-8.2,16.84-6.84,23.68,1.2,6.12,4.68,11.52,9.48,15.48l199.48,162.96h0ZM2243.36,1810.34l-130.32-223.08c-4.36-7.48-12-12.84-20.64-13.44-5.16-.36-11.08.8-17.04,5.28-8.84,6.64-10.72,15.36-10.48,22.32.24,6.2,2.8,12.12,6.96,16.76l171.52,192.16h0ZM2142.44,1872.18l-93.8-240.72c-3.16-8.08-9.84-14.56-18.28-16.52-5.04-1.16-11.08-.92-17.68,2.56-9.76,5.16-13,13.48-13.84,20.4-.76,6.16.88,12.4,4.24,17.64l139.36,216.64h0ZM2033.08,1917.46l-55-252.44c-1.84-8.48-7.44-15.92-15.48-19.16-4.8-1.96-10.8-2.64-17.84-.24-10.44,3.6-14.96,11.28-16.84,18-1.72,6-1.08,12.4,1.44,18.08l103.76,235.76h-.04ZM1918,1945.1l-14.84-257.92c-.48-8.68-4.84-16.88-12.28-21.36-4.44-2.68-10.24-4.32-17.6-3.04-10.88,1.92-16.52,8.8-19.48,15.12-2.6,5.64-3,12.08-1.4,18.08l65.6,249.12h0ZM1045.72,1200.1l257.08-25.72c8.64-.88,17.44,2.16,23.04,8.8,3.32,3.96,5.88,9.44,5.76,16.92-.2,11.04-6.12,17.72-11.92,21.6-5.16,3.48-11.44,4.84-17.64,4.24l-256.28-25.84h-.04ZM1055,1082.1l257.92,14.84c8.68.48,16.88,4.84,21.36,12.28,2.68,4.44,4.32,10.24,3.04,17.6-1.92,10.88-8.8,16.52-15.12,19.48-5.64,2.6-12.08,3-18.08,1.4l-249.12-65.6h0ZM1082.64,967.02l252.44,55c8.48,1.84,15.92,7.44,19.16,15.48,1.96,4.8,2.64,10.8.24,17.84-3.6,10.44-11.28,14.96-18,16.84-6,1.72-12.4,1.08-18.08-1.44l-235.76-103.76v.04ZM1127.92,857.66l240.72,93.8c8.08,3.16,14.56,9.84,16.52,18.28,1.16,5.04.92,11.08-2.56,17.68-5.16,9.76-13.48,13-20.4,13.84-6.16.76-12.4-.88-17.64-4.24l-216.64-139.36h0ZM1189.76,756.74l223.08,130.32c7.48,4.36,12.84,12,13.44,20.64.36,5.16-.8,11.08-5.28,17.04-6.64,8.84-15.36,10.72-22.32,10.48-6.2-.24-12.12-2.8-16.76-6.96l-192.16-171.52h0ZM1266.64,666.74l199.96,163.6c6.72,5.48,10.8,13.84,10.04,22.52-.44,5.16-2.52,10.84-7.88,16-7.96,7.68-16.84,8.2-23.68,6.84-6.12-1.2-11.52-4.68-15.48-9.48l-162.96-199.48h0ZM1356.64,589.86l171.88,192.88c5.76,6.48,8.52,15.36,6.4,23.8-1.24,5.04-4.2,10.32-10.32,14.6-9.04,6.36-17.92,5.48-24.48,3.08-5.84-2.16-10.64-6.4-13.8-11.8l-129.76-222.52.08-.04ZM1457.56,528.02l139.6,217.4c4.68,7.28,6,16.52,2.6,24.52-2.04,4.8-5.76,9.52-12.44,12.8-9.92,4.84-18.56,2.6-24.64-.8-5.44-3.04-9.52-8-11.76-13.8l-93.36-240.08v-.04ZM1566.92,482.74l103.88,236.56c3.48,7.96,3.32,17.24-1.24,24.6-2.76,4.4-7.16,8.52-14.32,10.68-10.56,3.24-18.72-.36-24.2-4.64-4.88-3.84-8.16-9.4-9.48-15.48l-54.64-251.72h0ZM1682,455.1l65.6,249.88c2.2,8.4.6,17.56-5.08,24.12-3.4,3.92-8.44,7.28-15.8,8.32-10.96,1.56-18.44-3.28-23.2-8.36-4.24-4.56-6.6-10.56-6.92-16.76l-14.6-257.2ZM1800,445.82l25.72,257.08c.88,8.64-2.16,17.44-8.8,23.04-3.96,3.32-9.44,5.88-16.92,5.76-11.04-.2-17.72-6.12-21.6-11.92-3.48-5.16-4.84-11.44-4.24-17.64l25.84-256.28v-.04ZM1682,1945.1l65.6-249.88c2.2-8.4.6-17.56-5.08-24.12-3.4-3.92-8.44-7.28-15.8-8.32-10.96-1.56-18.44,3.28-23.2,8.36-4.24,4.56-6.6,10.56-6.92,16.76l-14.6,257.2ZM1566.92,1917.46l103.88-236.56c3.48-7.96,3.32-17.24-1.24-24.6-2.76-4.4-7.16-8.52-14.32-10.68-10.56-3.24-18.72.36-24.2,4.64-4.88,3.84-8.16,9.4-9.48,15.48l-54.64,251.72h0ZM1457.56,1872.18l139.6-217.4c4.68-7.28,6-16.52,2.6-24.52-2.04-4.8-5.76-9.52-12.44-12.8-9.92-4.84-18.56-2.6-24.64.8-5.44,3.04-9.52,8-11.76,13.8l-93.36,240.08v.04ZM1356.64,1810.34l171.88-192.88c5.76-6.48,8.52-15.36,6.4-23.8-1.24-5.04-4.2-10.32-10.32-14.6-9.04-6.36-17.92-5.48-24.48-3.08-5.84,2.16-10.64,6.4-13.8,11.8l-129.76,222.52.08.04ZM1266.64,1733.46l199.96-163.6c6.72-5.48,10.8-13.84,10.04-22.52-.44-5.16-2.52-10.84-7.88-16-7.96-7.68-16.84-8.2-23.68-6.84-6.12,1.2-11.52,4.68-15.48,9.48l-162.96,199.48ZM1189.76,1643.46l223.08-130.32c7.48-4.36,12.84-12,13.44-20.64.36-5.16-.8-11.08-5.28-17.04-6.64-8.84-15.36-10.72-22.32-10.48-6.2.24-12.12,2.8-16.76,6.96l-192.16,171.52h0ZM1127.92,1542.54l240.72-93.8c8.08-3.16,14.56-9.84,16.52-18.28,1.16-5.04.92-11.08-2.56-17.68-5.16-9.76-13.48-13-20.4-13.84-6.16-.76-12.4.88-17.64,4.24l-216.64,139.36h0ZM1082.64,1433.18l252.44-55c8.48-1.84,15.92-7.44,19.16-15.48,1.96-4.8,2.64-10.8.24-17.84-3.6-10.44-11.28-14.96-18-16.84-6-1.72-12.4-1.08-18.08,1.44l-235.76,103.76v-.04ZM1055,1318.1l257.92-14.84c8.68-.48,16.88-4.84,21.36-12.28,2.68-4.44,4.32-10.24,3.04-17.6-1.92-10.88-8.8-16.52-15.12-19.48-5.64-2.6-12.08-3-18.08-1.4l-249.12,65.6h0ZM1918,455.1l-14.84,257.92c-.48,8.68-4.84,16.88-12.28,21.36-4.44,2.68-10.24,4.32-17.6,3.04-10.88-1.92-16.52-8.8-19.48-15.12-2.6-5.64-3-12.08-1.4-18.08l65.6-249.12ZM2033.08,482.74l-55,252.44c-1.84,8.48-7.44,15.92-15.48,19.16-4.8,1.96-10.8,2.64-17.84.24-10.44-3.6-14.96-11.28-16.84-18-1.72-6-1.08-12.4,1.44-18.08l103.76-235.76h-.04ZM2142.44,528.02l-93.8,240.72c-3.16,8.08-9.84,14.56-18.28,16.52-5.04,1.16-11.08.92-17.68-2.56-9.76-5.16-13-13.48-13.84-20.4-.76-6.16.88-12.4,4.24-17.64l139.36-216.64h0ZM2243.36,589.86l-130.32,223.08c-4.36,7.48-12,12.84-20.64,13.44-5.16.36-11.08-.8-17.04-5.28-8.84-6.64-10.72-15.36-10.48-22.32.24-6.2,2.8-12.12,6.96-16.76l171.52-192.16h0ZM2333.36,666.74l-163.6,199.96c-5.48,6.72-13.84,10.8-22.52,10.04-5.16-.44-10.84-2.52-16-7.88-7.68-7.96-8.2-16.84-6.84-23.68,1.2-6.12,4.68-11.52,9.48-15.48l199.48-162.96h0ZM2410.24,756.74l-192.88,171.88c-6.48,5.76-15.36,8.52-23.8,6.4-5.04-1.24-10.32-4.2-14.6-10.32-6.36-9.04-5.48-17.92-3.08-24.48,2.16-5.84,6.4-10.64,11.8-13.8l222.52-129.76.04.08ZM2472.08,857.66l-217.4,139.6c-7.28,4.68-16.52,6-24.52,2.6-4.8-2.04-9.52-5.76-12.8-12.44-4.84-9.92-2.6-18.56.8-24.64,3.04-5.44,8-9.52,13.8-11.76l240.08-93.36h.04ZM2517.36,967.02l-236.56,103.88c-7.96,3.48-17.24,3.32-24.6-1.24-4.4-2.76-8.52-7.16-10.68-14.32-3.24-10.56.36-18.72,4.64-24.2,3.84-4.88,9.4-8.16,15.48-9.48l251.72-54.64h0ZM2545,1082.1l-249.88,65.6c-8.4,2.2-17.56.6-24.12-5.08-3.92-3.4-7.28-8.44-8.32-15.8-1.56-10.96,3.28-18.44,8.36-23.2,4.56-4.24,10.56-6.6,16.76-6.92l257.2-14.6Z"/>
        </g>
      </g>
      <g id="Layer_1" data-name="Layer 1">
        <circle class="cls-4" cx="1800" cy="1200.1" r="384"/>
        <path class="cls-2" d="M1735.48,1005.26c6.72,3.08,13.44,6.32,20.24,9.76,7.36-4.48,14.72-8.72,22.08-12.76-6.64-3.28-13.4-6.48-20.32-9.56-7.52,4.08-14.84,8.28-22,12.56ZM2081.64,978.22c-3-4.12-6.12-8.16-9.28-12.12-61.88,8.12-115.56,22.4-162.16,41,5.44,3.48,10.88,7.12,16.28,10.84,82.88-34.64,152.08-39.52,155.16-39.72ZM1822.24,1026.78c-7.2-4.44-14.6-8.76-22.24-12.96-7.52,4.134-14.936,8.455-22.24,12.96,7.4,4.2,14.84,8.6,22.24,13.28,7.4-4.68,14.84-9.08,22.24-13.28ZM1800,990.62c6.76-3.36,13.44-6.52,20.12-9.52-6.56-3.2-13.28-6.32-20.12-9.36-6.84,3.04-13.56,6.16-20.12,9.36,6.64,3,13.36,6.16,20.12,9.52ZM1842.52,992.7c-6.92,3.08-13.68,6.28-20.32,9.56,7.36,4.04,14.72,8.28,22.08,12.76,6.8-3.44,13.56-6.68,20.24-9.76-7.16-4.28-14.48-8.48-22-12.56ZM1867.68,982.18c7.28,3.92,14.56,8,21.88,12.28,87.44-35.36,160.84-41.24,171.32-41.92-4.158-4.685-8.453-9.247-12.88-13.68-68.84,7.72-128.52,22.96-180.32,43.28v.04ZM1782.76,1080.38c5.8,4.4,11.52,9,17.24,13.8,5.68-4.8,11.44-9.36,17.24-13.8-5.56-4.44-11.32-8.8-17.24-13.12-5.85,4.235-11.599,8.61-17.24,13.12ZM1783.8,1108.54c-.76-.64-1.48-1.28-2.24-1.92-4.96-4.16-10.04-8.28-15.2-12.4-162.84,143.44-162.84,350.84-162.64,365.2,11.32,7.68,23.16,14.68,35.4,21,.32-181.56,64.92-297.64,144.68-371.84v-.04ZM1833.64,1094.22c-5.16,4.12-10.24,8.28-15.2,12.4-.76.64-1.48,1.28-2.24,1.92,79.76,74.2,144.36,190.28,144.68,371.84,12.24-6.32,24.08-13.32,35.4-21,.2-14.36.2-221.76-162.64-365.2v.04ZM1565.56,925.98c7.68.32,90.28,4.52,189.64,44.52,6.68-3.24,13.28-6.32,19.88-9.28-56.8-22.36-122.4-38.64-197.96-45.2-3.92,3.24-7.76,6.56-11.52,9.96h-.04ZM1482.36,1315.38c6.72,14.96,14.48,29.36,23.2,43.12,39.08-146.72,115.44-243.72,198.28-307.8-6.36-3.72-12.92-7.36-19.68-10.88-145.96,110.08-195.36,254.84-201.8,275.56h0ZM1715.2,1017.94c-5.64,3.68-11.08,7.48-16.48,11.28,6.68,3.2,13.44,6.6,20.2,10.24,5.56-4,11.12-7.88,16.72-11.6-6.64-3.4-13.48-6.68-20.44-9.88v-.04ZM1824.96,961.22c6.6,2.96,13.2,6.04,19.88,9.28,99.36-40,181.96-44.2,189.64-44.52-3.76-3.4-7.6-6.72-11.52-9.96-75.56,6.6-141.16,22.84-197.96,45.2h-.04ZM2089.56,989.5c-60.36,6.8-108.6,20.68-148.92,38.44,74.68,54.52,145.32,132.72,192.8,244.76,8.84-30.16,13.6-62,13.6-94.96,0-69.56-21.16-134.28-57.48-188.24h0ZM1800,950.66c105.16-42.08,193.32-47.64,205.36-48.2-57.52-41.64-128.52-66.24-205.36-66.24s-147.88,24.6-205.36,66.24c12.04.56,100.2,6.12,205.36,48.2h0Z"/>
        <path class="cls-2" d="M1746.32,1078.82c-6.88-5.04-13.96-10.04-21.36-14.92-160.24,128.12-188.84,307.6-192.04,331.92,10.4,12.32,21.68,23.92,33.72,34.72,19.8-171.04,94.24-281.04,179.68-351.68v-.04ZM1659.36,1027.94c-40.32-17.76-88.56-31.64-148.92-38.44-36.32,53.96-57.48,118.68-57.48,188.24,0,32.96,4.76,64.8,13.6,94.96,47.48-112.04,118.12-190.24,192.8-244.76ZM1800,1123.02c-158.56,149.6-119.84,359.32-116.36,376.56,36.36,12.72,75.52,19.68,116.36,19.68s79.96-6.96,116.36-19.68c3.52-17.24,42.2-226.96-116.36-376.56h0ZM1710.44,994.46c7.32-4.28,14.6-8.4,21.88-12.28-51.8-20.32-111.48-35.56-180.32-43.28-4.4,4.44-8.72,9-12.88,13.68,10.48.68,83.88,6.56,171.32,41.92v-.04ZM1875.04,1063.9c-7.4,4.88-14.48,9.88-21.36,14.92,85.44,70.64,159.88,180.64,179.68,351.68,12.04-10.76,23.32-22.4,33.72-34.72-3.2-24.32-31.8-203.8-192.04-331.92v.04ZM1779.84,1053.42c-7.16-4.64-14.6-9.2-22.24-13.6-5.8,3.92-11.44,7.92-16.96,12,7.36,4.44,14.72,9.12,22,14.12,5.68-4.32,11.44-8.52,17.16-12.52h.04Z"/>
        <path class="cls-2" d="M2094.44,1358.54c8.765-13.794,16.518-28.205,23.2-43.12-6.48-20.72-55.84-165.48-201.8-275.56-6.8,3.52-13.36,7.16-19.68,10.88,82.84,64.12,159.24,161.08,198.28,307.8ZM1673.52,1017.94c5.4-3.72,10.84-7.36,16.28-10.84-46.64-18.6-100.28-32.88-162.16-41-3.2,3.96-6.28,8-9.28,12.12,3.08.2,72.32,5.08,155.16,39.72h0ZM1884.8,1017.94c-7,3.2-13.8,6.48-20.44,9.88,5.6,3.72,11.16,7.6,16.72,11.6,6.76-3.64,13.48-7.04,20.2-10.24-5.36-3.8-10.84-7.56-16.48-11.28v.04ZM1842.4,1039.82c-7.64,4.4-15.08,8.92-22.24,13.6,5.76,4,11.48,8.2,17.16,12.52,7.32-4.96,14.68-9.68,22-14.12-5.52-4.08-11.16-8.08-16.96-12h.04Z"/>
        <ellipse class="cls-3" cx="1800" cy="1177.74" rx="347.04" ry="341.52"/>
      </g>
    </g>
  </g>
</svg>