<?xml version="1.0" encoding="UTF-8"?>
<svg xmlns="http://www.w3.org/2000/svg" viewBox="0 0 3600.1 2401.738">
  <defs>
    <style>
      .cls-1 {
        fill: #e01e24;
      }

      .cls-1, .cls-2, .cls-3, .cls-4, .cls-5, .cls-6, .cls-7, .cls-8, .cls-9 {
        fill-rule: evenodd;
      }

      .cls-1, .cls-6 {
        stroke-width: 0px;
      }

      .cls-2, .cls-3, .cls-10, .cls-11, .cls-4, .cls-5, .cls-7, .cls-8, .cls-9 {
        stroke: #000;
      }

      .cls-2, .cls-3, .cls-4, .cls-5, .cls-7, .cls-8, .cls-9 {
        fill: #fff;
      }

      .cls-2, .cls-3, .cls-7 {
        stroke-linejoin: bevel;
      }

      .cls-2, .cls-11, .cls-5 {
        stroke-width: 7.2px;
      }

      .cls-3 {
        stroke-width: 7.087px;
      }

      .cls-10 {
        stroke-width: 6px;
      }

      .cls-10, .cls-11 {
        fill: none;
      }

      .cls-4 {
        stroke-width: 7.357px;
      }

      .cls-6 {
        fill: #032ea1;
      }

      .cls-7 {
        stroke-width: 7.755px;
      }

      .cls-8 {
        stroke-width: 7.823px;
      }

      .cls-9 {
        stroke-width: 7.838px;
      }
    </style>
  </defs>
  <g id="background">
    <path id="kh" class="cls-1" d="M400,.1h2800c220,0,400,180,400,400v1600c0,220-180,400-400,400H400C180,2400.1,0,2220.1,0,2000.1V400.1C0,180.1,180,.1,400,.1Z"/>
  </g>
  <g id="country">
    <g id="kh-2" data-name="kh">
      <g>
        <path class="cls-6" d="M3600,2000.1v-200H0v200C0,2220.1,180,2400.1,400,2400.1h2800c220,0,400-180,400-400Z"/>
        <path class="cls-6" d="M0,400.1v200h3600v-200C3600,180.1,3420,.1,3200,.1H400C180,.1,0,180.1,0,400.1Z"/>
      </g>
      <g>
        <g>
          <path class="cls-2" d="M1461.97,1125.067h682.8v262.73h-682.8v-262.73Z"/>
          <path class="cls-2" d="M2109.553,1270.15h21.516v98.967h-21.516v-98.967ZM1461.97,1221.25h682.8v30.539h-682.8v-30.539ZM1461.97,1179.85h682.8v26.939h-682.8v-26.939h0Z"/>
          <path class="cls-3" d="M1461.97,1138.511h682.8v26.123h-682.8v-26.123Z"/>
          <path class="cls-2" d="M1641.731,1270.15h21.516v98.967h-21.516v-98.967ZM1935.67,1270.15h21.516v98.967h-21.516v-98.967ZM1467.37,1270.15h21.516v98.967h-21.516v-98.967ZM1509.553,1270.15h21.516v98.967h-21.516v-98.967ZM1554.553,1270.15h21.516v98.967h-21.516v-98.967ZM1599.553,1270.15h21.516v98.967h-21.516v-98.967ZM1976.47,1270.15h21.516v98.967h-21.516v-98.967ZM2021.47,1270.15h21.516v98.967h-21.516v-98.967ZM2066.47,1270.15h21.516v98.967h-21.516v-98.967Z"/>
          <path class="cls-5" d="M1194.914,1401.611c10.556-5.386,22.599-17.906,26.541-31.922h1158.422c3.942,14.016,15.989,26.536,26.55,31.922h-1211.513Z"/>
        </g>
        <path class="cls-5" d="M1785.853,725.111s-.867-24.675,13.5-24.942c14.376.262,13.5,24.942,13.5,24.942h-27ZM1710.914,1052.35v-33.216c-.483-16.608-16.561-17.808-17.03-29.916,0,0-2.077-18.164,2.709-26.452,6.506,24.286,18.337,19.823,18.337,9.844,0-8.719-6.703-16.828-20.447-37.983-4.392-6.769-1.678-27.961,4.481-35.536,2.381,18.417,5.114,27.239,13.022,27.239,4.828,0,8.77-3.145,8.77-12.37,0-11.742-7.95-17.672-11.864-28.35-4.556-12.469-1.416-25.177,6.159-32.283,3.253,18.183,2.278,25.425,10.359,25.425,16.28-5.152,0-28.72-3.478-34.664-3.998-6.928,5.381-20.761,5.381-20.761,5.18,16.139,6.839,17.461,12.422,15.961,7.041-1.889,6.136-12.338-2.461-20.78-5.423-5.339-4.847-13.27.98-19.641,5.85,11.428,13.336,10.739,14.058,3.947l-4.706-26.353h103.528l-5.133,25.5c-1.472,7.289,8.377,8.878,14.494-3.089,5.831,6.37,6.403,14.311.98,19.645-8.592,8.442-9.506,18.886-2.461,20.775,5.578,1.5,7.247.183,12.422-15.961,0,0,8.419,9.422,5.381,20.761-3.483,5.939-19.758,29.522-3.483,34.664,8.077,0,7.111-7.247,10.359-25.425,7.575,7.106,10.716,19.814,6.155,32.283-3.9,10.678-11.855,16.608-11.855,28.35,0,9.225,3.942,12.37,8.761,12.37,7.917,0,10.65-8.817,13.036-27.239,6.15,7.58,8.869,28.772,4.476,35.531-13.739,21.155-20.447,29.264-20.447,37.983,0,9.98,11.817,14.442,18.333-9.844,4.781,8.283,2.7,26.452,2.7,26.452-.469,12.108-16.547,13.308-17.02,29.916v33.216h-176.92,0ZM1754.231,776.228l-2.381-18.75h95.03l-2.377,18.75h-90.272ZM1760.592,757.089l-2.039-15.422h81.619l-2.044,15.422h-77.536,0ZM1773.553,741.128l-1.364-15.417h54.347l-1.355,15.417h-51.628ZM1971.67,1401.611c-12.159-4.683-29.859-17.522-29.859-30.422v-145.781l15.825-20.147h-316.65l15.183,20.156v145.777c0,12.9-12.164,25.739-24.319,30.422l339.82-.005h0Z"/>
        <path class="cls-2" d="M1697.292,1270.15h21.516v98.967h-21.516v-98.967ZM1879.214,1270.15h21.516v98.967h-21.516v-98.967Z"/>
        <path class="cls-5" d="M1635.314,1039.328v165.937h324.136v-35.742l.469-130.2c-13.247,5.208-15.577,17.217-15.577,17.217v70.669h-292.5v-70.659s-3.263-12.014-16.523-17.222h-.005Z"/>
        <path class="cls-5" d="M1915.453,1401.611c-10.598-4.683-33.675-17.522-33.675-30.422v-163.139c2.269-9.108,14.616-14.484,22.561-20.147h-214.931c10.228,5.409,21.637,9.909,25.711,20.156v163.144c0,12.9-18.239,25.739-28.838,30.417l229.172-.009Z"/>
        <path class="cls-5" d="M1944.314,1189.628v-117.52h-29.461v-11.461h-233.039v11.461h-29.461v117.52h291.961ZM1869.014,1401.611c-10.383-4.683-25.5-17.522-25.5-30.422v-139.284l8.531-12.661h-106.139l8.517,12.661v139.289c0,12.914-15.117,25.739-25.5,30.422l140.091-.005h0Z"/>
        <path class="cls-4" d="M1772.114,1219.267h53.794v182.264h-53.794v-182.264Z"/>
        <path class="cls-2" d="M1854.131,1179.189c.122-12,35.03-12.539,52.992-22.772h-215.709c17.963,10.223,52.05,11.067,52.05,22.772l7.298,23.292,89.302,3.586,14.067-26.878h0Z"/>
        <path class="cls-5" d="M1896.314,1052.35c0-29.4,1.228-40.716,10.256-40.716v93.478c-22.139,8.039-37.95,36.3-37.95,36.3h-139.256s-15.811-28.261-37.959-36.3v-93.478c11.133,0,11.203,11.831,11.203,40.716h193.706ZM1906.57,1040.289c0-33.708,29.1-37.5,29.1-37.5v30c-11.067-.478-16.416,9.469-16.416,24.262s8.925,15.037,8.925,15.037v85.139h-21.6l-.009-116.939h0Z"/>
        <path class="cls-5" d="M1691.531,1040.289c0-33.708-29.1-37.5-29.1-37.5v30c11.072-.478,16.416,9.469,16.416,24.262s-8.92,15.037-8.92,15.037v85.139h21.6l.005-116.939h0Z"/>
        <g>
          <path class="cls-10" d="M1748.892,808.028h102.769M1736.714,840.128h125.517M1724.531,879.067h149.424M1711.814,926.65h177.216M1707.731,980.889h182.555"/>
          <path class="cls-11" d="M1652.353,1157.828h291.961M1744.992,1157.889h108.216v39.778h-108.216v-39.778Z"/>
        </g>
        <path class="cls-5" d="M1731.431,1069.75c17.939,21.539,16.28,58.078,16.083,79.617h104.048c-.206-21.539-1.87-58.078,16.069-79.617h-136.2ZM1789.931,822.967l-14.255-7.341v-20.986c5.817,1.744,12.37,2.461,13.008,11.752,2.03-13.261,5.686-12.614,11.442-17.78,5.742,5.161,9.403,4.519,11.428,17.78.642-9.291,7.181-10.003,13.022-11.761v20.986l-14.269,7.345-20.376.005h0Z"/>
        <path class="cls-5" d="M1788.97,857.411l-23.677-16.28v-19.341c8.302,1.922,17.62,2.7,18.53,12.9,2.892-14.541,8.1-22.055,16.289-27.717,8.194,5.662,13.402,13.177,16.294,27.717.909-10.2,10.228-10.978,18.539-12.9v19.341l-23.691,16.28h-22.285Z"/>
        <path class="cls-5" d="M1787.292,911.111l-27.23-23.911v-28.416c9.544,2.817,20.264,3.97,21.314,18.933,3.319-21.356,9.309-32.4,18.717-40.72,9.422,8.32,15.422,19.355,18.741,40.716,1.05-14.963,11.761-16.116,21.3-18.942v28.411l-27.216,23.911-25.627.019h0ZM1837.514,942.85l-24.628,34.055h-27.872l-24.628-34.055h77.128ZM1746.192,1000.028c12.319,6.731,16.861,20.142,18.178,45.319h69.3c1.322-25.177,5.864-38.578,18.183-45.319h-105.661Z"/>
        <path class="cls-2" d="M1852.87,942.85v-34.214c-11.7,3.225-19.275,10.139-22.655,19.547,0-11.358-14.939-37.537-31.242-50.578-16.345,14.592-31.542,38.278-31.238,50.578-2.775-8.948-10.95-16.317-22.65-19.547v34.214h107.784Z"/>
        <path class="cls-2" d="M1858.092,1000.028v-34.209c-12.83,3.22-21.131,10.139-24.839,19.547,0-11.358-16.383-37.547-34.242-50.583-17.916,14.592-34.58,38.283-34.242,50.583-3.047-8.953-12.014-16.322-24.839-19.547v34.209h118.163Z"/>
        <path class="cls-2" d="M1872.492,1070.228v-39.459c-15.961,4.12-25.87,15.914-30.9,22.8,0-21.361-24.122-53.944-42.6-64.608-18.961,10.95-42.6,44.606-42.6,64.608-5.161-6.844-14.939-18.68-30.9-22.8v39.459h147Z"/>
        <path class="cls-2" d="M1863.853,1157.828v-40.57c-14.077,5.517-18.291,19.078-22.716,28.303,1.739-41.161-23.175-85.383-42.145-96.6-18.98,11.217-44.358,56.4-42.145,96.6-4.547-9.164-8.639-22.786-22.716-28.303v40.57h129.722Z"/>
        <path class="cls-5" d="M1854.014,1219.267v-40.57c-14.752,3.511-15.661,8.939-20.353,18.038,1.739-24.586-15.661-52.622-34.641-63.844-18.975,11.222-36.384,39.267-34.641,63.844-4.683-9.094-5.264-14.522-20.344-18.038v40.57h109.978Z"/>
        <g>
          <path class="cls-5" d="M1221.464,1369.689v-122.639c-4.022-15.619-17.283-29.433-27.244-32.198v-107.962l22.444,12.145,25.631,112.856v137.798h-20.831,0Z"/>
          <path class="cls-5" d="M1221.464,1370.167v-123.117c-4.022-15.614-17.283-29.423-27.244-32.189v-115.458c15.061,0,22.444,19.636,22.444,19.636l25.631,112.861v137.32l-20.831.947h0Z"/>
          <path class="cls-5" d="M1205.503,1401.611c10.378-4.683,25.5-17.522,25.5-30.422v-153.281l-7.125-12.647h261.141l-10.191,12.647v153.281c0,12.9,10.383,25.739,20.761,30.422h-290.086,0Z"/>
          <path class="cls-5" d="M1442.892,1401.611c-10.378-4.683-25.5-17.522-25.5-30.422v-145.781l21.722-20.161-177.53.014,21.722,20.147v145.781c0,12.9-15.122,25.739-25.5,30.422h185.086,0Z"/>
          <path class="cls-5" d="M1417.992,1401.611c-10.378-4.683-25.5-17.522-25.5-30.422v-131.789l14.222-20.161h-112.791l14.222,20.161v131.789c0,12.9-15.122,25.739-25.5,30.422h135.347Z"/>
          <path class="cls-5" d="M1323.37,1219.267h53.892v182.358h-53.892v-182.358Z"/>
          <path class="cls-2" d="M1250.053,1270.15h21.516v98.967h-21.516v-98.967ZM1434.553,1270.15h21.516v98.967h-21.516v-98.967ZM1231.692,1103.228h25.922v101.461h-25.922v-101.461ZM1231.692,1084.15h25.772v18.839h-25.772v-18.839Z"/>
          <path class="cls-7" d="M1444.87,1125.067h36.961v78.328h-36.961v-78.328h0Z"/>
          <path class="cls-5" d="M1257.192,1203.911v-173.644c7.392,0,8.531,25.444,25.5,25.444,8.822,0,7.884-10.538,2.93-19.125-4.392-7.608-9.825-18.108-2.442-37.678,5.062,14.977,18.675,19.725,16.162,10.336-4.322-16.125-16.772-18.778-7.439-43.809,3.253,20.878,16.641,19.959,13.392,7.823-3.661-13.683-11.241-19.284-1.898-38.569,5.241,21.9,12.314,20.611,12.314,7.022,0-20.077-.769-41.738,25.219-49.772,0,0,1.5-18.408,10.87-18.408s10.88,18.408,10.88,18.408c25.978,8.039,25.209,29.7,25.209,49.777,0,13.589,7.083,14.878,12.314-7.022,9.347,19.284,1.767,24.891-1.889,38.569-3.267,12.136,10.139,13.064,13.378-7.823,9.338,25.031-3.108,27.684-7.439,43.809-2.508,9.394,11.1,4.641,16.162-10.331,7.378,19.561,1.95,30.061-2.442,37.683-4.955,8.578-5.897,19.12,2.939,19.12,16.959,0,18.098-25.439,25.491-25.439v173.639l-189.211-.009h0ZM1216.594,1072.75v132.478h15.061v-132.816c-5.423-2.742-10.523-3.164-15.061.338h0Z"/>
          <path class="cls-5" d="M1217.072,1158.489c18.67,9.539,37.167,20.597,41.85,46.758h-41.85v-46.758h0ZM1476.07,1118.828v86.442h12.211v-86.658c-3.811-1.786-9.019-2.067-12.211.216Z"/>
          <path class="cls-5" d="M1488.314,1157.828c-18.675,9.539-37.172,20.597-41.85,46.758h41.85v-46.758ZM1364.831,955.928l10.884-9.15v-11.719c-3.984.394-6.155,1.758-9.094,5.616-2.503-7.767-8.006-13.828-15.375-17.597-7.378,3.769-12.877,9.558-15.375,17.325-2.944-3.858-5.114-4.95-9.098-5.344v11.719l10.889,9.15h27.169Z"/>
          <path class="cls-5" d="M1370.653,985.267l5.058-10.95v-15.239c-3.984.403-6.155,1.791-9.098,5.7-2.498-7.88-8.002-14.03-15.37-17.845-7.378,3.825-12.877,9.698-15.38,17.569-2.939-3.9-5.109-5.016-9.094-5.409v15.239l5.062,10.945,38.822-.009Z"/>
          <path class="cls-5" d="M1371.431,1025.05l16.172-19.725v-19.458c-5.916.661-9.145,3.019-13.514,9.637-3.717-13.331-11.878-16.247-22.833-22.716-10.95,6.469-19.125,8.911-22.838,22.242-4.369-6.619-7.598-8.498-13.5-9.164v19.458l16.158,19.725h40.355Z"/>
          <path class="cls-5" d="M1376.17,1064.111s18.844-16.444,19.964-25.467v-20.803c-7.303.853-14.208,2.752-19.603,11.292-4.589-17.217-11.761-22.017-25.27-30.37-13.519,8.353-20.681,13.153-25.275,30.37-5.4-8.55-12.3-10.439-19.598-11.297v20.798c2.377,9.023,19.955,25.463,19.955,25.463l49.828.014Z"/>
          <path class="cls-5" d="M1384.214,1136.228s25.8-28.561,26.4-39.694v-32.437c-9.661,1.336-18.792,7.978-25.922,21.3-6.07-26.845-15.539-45.563-33.422-58.584-17.878,13.022-27.356,31.739-33.417,58.589-7.139-13.331-16.28-19.978-25.931-21.309v32.433c1.847,11.133,26.4,39.698,26.4,39.698l65.892.005h0Z"/>
          <path class="cls-5" d="M1384.214,1178.889s22.055-22.453,26.4-32.198v-32.433c-9.661,1.336-18.792,7.978-25.922,21.3-6.07-26.845-15.539-42.216-33.422-55.237-17.878,13.022-27.356,28.392-33.417,55.242-7.139-13.336-16.28-19.978-25.931-21.309v32.433c5.597,9.745,26.4,32.198,26.4,32.198l65.892.005h0Z"/>
          <path class="cls-5" d="M1393.092,1203.667c-6.436-28.008-11.977-48.778-42.98-69.839-30.998,21.061-36.539,41.831-42.975,69.839h85.955Z"/>
          <path class="cls-5" d="M1409.053,1219.267v-40.57c-14.077,5.522-26.803,13.678-31.5,22.772-5.231-22.528-15.338-32.452-27.914-46.083-12.581,13.631-21,23.555-26.25,46.083-4.692-9.094-17.409-17.25-31.5-22.772v40.57h117.164Z"/>
        </g>
        <g>
          <path class="cls-5" d="M2378.681,1369.689v-122.639c4.022-15.619,17.283-29.433,27.239-32.198v-107.962l-22.439,12.145-25.631,112.856v137.798h20.831Z"/>
          <path class="cls-5" d="M2378.681,1370.167v-123.117c4.022-15.614,17.283-29.423,27.239-32.189v-115.458c-15.056,0-22.439,19.636-22.439,19.636l-25.631,112.861v137.32l20.831.947h0Z"/>
          <path class="cls-5" d="M2394.642,1401.611c-10.378-4.683-25.5-17.522-25.5-30.422v-153.281l7.12-12.647h-261.136l10.186,12.647v153.281c0,12.9-10.378,25.739-20.756,30.422h290.086Z"/>
          <path class="cls-5" d="M2157.253,1401.611c10.378-4.683,25.5-17.522,25.5-30.422v-145.781l-21.722-20.161,177.53.014-21.722,20.147v145.781c0,12.9,15.122,25.739,25.5,30.422h-185.086Z"/>
          <path class="cls-5" d="M2182.153,1401.611c10.378-4.683,25.5-17.522,25.5-30.422v-131.789l-14.222-20.161h112.791l-14.222,20.161v131.789c0,12.9,15.122,25.739,25.5,30.422h-135.347Z"/>
          <path class="cls-5" d="M2276.77,1219.267h-53.892v182.358h53.892v-182.358Z"/>
          <path class="cls-2" d="M2350.092,1270.15h-21.516v98.967h21.516v-98.967ZM2165.592,1270.15h-21.516v98.967h21.516v-98.967ZM2368.453,1103.228h-25.922v101.461h25.922v-101.461ZM2368.453,1084.15h-25.772v18.839h25.772v-18.839Z"/>
          <path class="cls-7" d="M2155.27,1125.067h-36.956v78.328h36.956v-78.328h0Z"/>
          <path class="cls-5" d="M2342.953,1203.911v-173.644c-7.392,0-8.531,25.444-25.5,25.444-8.822,0-7.884-10.538-2.93-19.125,4.392-7.608,9.82-18.108,2.442-37.678-5.062,14.977-18.68,19.725-16.162,10.336,4.317-16.125,16.767-18.778,7.439-43.809-3.253,20.878-16.645,19.959-13.392,7.823,3.661-13.683,11.236-19.284,1.894-38.569-5.236,21.9-12.309,20.611-12.309,7.022,0-20.077.769-41.738-25.219-49.772,0,0-1.5-18.408-10.87-18.408s-10.88,18.408-10.88,18.408c-25.978,8.039-25.209,29.7-25.209,49.777,0,13.589-7.083,14.878-12.314-7.022-9.347,19.284-1.772,24.891,1.889,38.569,3.263,12.136-10.139,13.064-13.378-7.823-9.338,25.031,3.108,27.684,7.439,43.809,2.508,9.394-11.1,4.641-16.162-10.331-7.383,19.561-1.95,30.061,2.442,37.683,4.955,8.578,5.897,19.12-2.944,19.12-16.955,0-18.094-25.439-25.486-25.439v173.639l189.211-.009ZM2383.547,1072.75v132.478h-15.061v-132.816c5.428-2.742,10.528-3.164,15.061.338h0Z"/>
          <path class="cls-5" d="M2383.073,1158.489c-18.67,9.539-37.167,20.597-41.85,46.758h41.85v-46.758h0ZM2124.07,1118.828v86.442h-12.206v-86.658c3.806-1.786,9.014-2.067,12.206.216Z"/>
          <path class="cls-5" d="M2111.831,1157.828c18.675,9.539,37.172,20.597,41.85,46.758h-41.85v-46.758ZM2235.314,955.928l-10.884-9.15v-11.719c3.984.394,6.155,1.758,9.094,5.616,2.503-7.767,8.006-13.828,15.37-17.597,7.383,3.769,12.877,9.558,15.38,17.325,2.939-3.858,5.114-4.95,9.098-5.344v11.719l-10.894,9.15h-27.164Z"/>
          <path class="cls-5" d="M2229.492,985.267l-5.058-10.95v-15.239c3.984.403,6.155,1.791,9.094,5.7,2.503-7.88,8.006-14.03,15.375-17.845,7.378,3.825,12.877,9.698,15.375,17.569,2.944-3.9,5.114-5.016,9.098-5.409v15.239l-5.062,10.945-38.822-.009Z"/>
          <path class="cls-5" d="M2228.714,1025.05l-16.172-19.725v-19.458c5.916.661,9.145,3.019,13.514,9.637,3.717-13.331,11.878-16.247,22.833-22.716,10.95,6.469,19.125,8.911,22.838,22.242,4.369-6.619,7.594-8.498,13.5-9.164v19.458l-16.158,19.725h-40.355Z"/>
          <path class="cls-5" d="M2223.97,1064.111s-18.839-16.444-19.959-25.467v-20.803c7.303.853,14.208,2.752,19.603,11.292,4.589-17.217,11.756-22.017,25.27-30.37,13.519,8.353,20.681,13.153,25.27,30.37,5.4-8.55,12.3-10.439,19.603-11.297v20.798c-2.377,9.023-19.955,25.463-19.955,25.463l-49.833.014Z"/>
          <path class="cls-5" d="M2215.931,1136.228s-25.8-28.561-26.4-39.694v-32.437c9.661,1.336,18.792,7.978,25.922,21.3,6.07-26.845,15.539-45.563,33.417-58.584,17.883,13.022,27.361,31.739,33.422,58.589,7.139-13.331,16.28-19.978,25.931-21.309v32.433c-1.847,11.133-26.4,39.698-26.4,39.698l-65.892.005h0Z"/>
          <path class="cls-5" d="M2215.931,1178.889s-22.055-22.453-26.4-32.198v-32.433c9.661,1.336,18.792,7.978,25.922,21.3,6.07-26.845,15.539-42.216,33.417-55.237,17.883,13.022,27.361,28.392,33.422,55.242,7.139-13.336,16.28-19.978,25.931-21.309v32.433c-5.597,9.745-26.4,32.198-26.4,32.198l-65.892.005h0Z"/>
          <path class="cls-5" d="M2207.053,1203.667c6.436-28.008,11.977-48.778,42.975-69.839,31.003,21.061,36.544,41.831,42.98,69.839h-85.955Z"/>
          <path class="cls-5" d="M2191.092,1219.267v-40.57c14.077,5.522,26.803,13.678,31.5,22.772,5.231-22.528,15.338-32.452,27.914-46.083,12.581,13.631,21,23.555,26.25,46.083,4.687-9.094,17.409-17.25,31.5-22.772v40.57h-117.164Z"/>
        </g>
        <g>
          <path class="cls-5" d="M1164.323,1399.989v37.036h1271.339v-37.041l-1271.339.005h0ZM1141.308,1437.367v48.3h1317.361v-48.3h-1317.361ZM2458.669,1485.667l-1317.361.361-38.508-.361v63.736h1394.386v-63.722l-38.517-.014h0ZM1064.011,1549.811l.009,75.056h1471.983l-.014-75.056h-1471.978ZM2536.003,1624.867v.122h-1471.983v-.122h-38.798v75.061h1549.556v-75.061h-38.775Z"/>
          <path class="cls-9" d="M1302.314,1400.167h96.028v299.611h-96.028v-299.611Z"/>
          <path class="cls-8" d="M1323.553,1400.167h53.503v299.616h-53.503v-299.616Z"/>
          <path class="cls-9" d="M1750.331,1400.167h96.038v299.611h-96.038v-299.611Z"/>
          <path class="cls-8" d="M1772.231,1400.167h53.503v299.616h-53.503v-299.616Z"/>
          <path class="cls-9" d="M2200.992,1400.167h96.028v299.611h-96.028v-299.611Z"/>
          <path class="cls-8" d="M2222.231,1400.167h53.503v299.616h-53.503v-299.616Z"/>
        </g>
        <path class="cls-11" d="M1221.464,1369.689h1158.417M1322.592,1662.128h55.463M1322.592,1624.628h55.463M1322.592,1587.128h55.463M1322.592,1549.628h55.463M1322.592,1512.128h55.463M1322.592,1474.628h55.463M1322.592,1437.128h55.463M1772.47,1662.189h51.642M1772.47,1624.67h51.642M1772.47,1587.147h51.642M1772.47,1549.628h51.642M1772.47,1512.109h51.642M1772.47,1474.591h51.642M1772.47,1437.067h51.642M2221.27,1662.128h55.467M2221.27,1624.628h55.467M2221.27,1587.128h55.467M2221.27,1549.628h55.467M2221.27,1512.128h55.467M2221.27,1474.628h55.467M2221.27,1437.128h55.467"/>
      </g>
    </g>
  </g>
</svg>