<?xml version="1.0" encoding="UTF-8"?>
<svg xmlns="http://www.w3.org/2000/svg" viewBox="0 0 3600.1 2401.738">
  <defs>
    <style>
      .cls-1, .cls-2 {
        stroke-width: 3.68px;
      }

      .cls-1, .cls-2, .cls-3 {
        stroke: #000;
        stroke-miterlimit: 30.568;
      }

      .cls-1, .cls-3 {
        fill: none;
      }

      .cls-4, .cls-5, .cls-6, .cls-7, .cls-8 {
        stroke-width: 0px;
      }

      .cls-2, .cls-5 {
        fill: #f8d000;
      }

      .cls-6 {
        fill: #183070;
      }

      .cls-7 {
        fill: #fff;
      }

      .cls-8 {
        fill: #ce1126;
        fill-rule: evenodd;
      }

      .cls-3 {
        stroke-width: 1.2px;
      }
    </style>
  </defs>
  <g id="background">
    <path id="ki" class="cls-8" d="M400,.1h2800c220,0,400,180,400,400v1600c0,220-180,400-400,400H400C180,2400.1,0,2220.1,0,2000.1V400.1C0,180.1,180,.1,400,.1Z"/>
  </g>
  <g id="country">
    <g id="ki-2" data-name="ki">
      <g>
        <g>
          <path class="cls-5" d="M1846,218.82c-152.64-63.12-246.088-74.72-350.488-75.76-151.192,1.04-223.352,66-367.512,72,57.12,61.52,264.16,76.56,351.44-4.24,129.752,13.52,159.2,48.56,194,92.16-54.16-8.56-116.568-24.16-168.32,33.12-43.68,8.8-63.928,0-138.64,0-34.88,0-46.968,17.12-46.48,48,22.552-31.2,178.48-12.8,216.72,0,29.36,9.84,60.56,50.56,97.76,57.2,97.52,17.36,237.432-33.6,366.472-68.32l279.048-36.88h-191.448l239.448-48h-260.328c-5.512-6.32-18.72-14.48-29.272-21.44,66.96-43.12,126.152-121.52,141.272-159.36,120.728-1.2,198.64-12.4,292.328-34.32-617.448-68.32-476.88,5.36-626,145.84"/>
          <path class="cls-1" d="M1846,218.82c-152.64-63.12-246.088-74.72-350.488-75.76-151.192,1.04-223.352,66-367.512,72,57.12,61.52,264.16,76.56,351.44-4.24,129.752,13.52,159.2,48.56,194,92.16-54.16-8.56-116.568-24.16-168.32,33.12-43.68,8.8-63.928,0-138.64,0-34.88,0-46.968,17.12-46.48,48,22.552-31.2,178.48-12.8,216.72,0,29.36,9.84,60.56,50.56,97.76,57.2,97.52,17.36,237.432-33.6,366.472-68.32l279.048-36.88h-191.448l239.448-48h-260.328c-5.512-6.32-18.72-14.48-29.272-21.44,66.96-43.12,126.152-121.52,141.272-159.36,120.728-1.2,198.64-12.4,292.328-34.32-617.448-68.32-476.88,5.36-626,145.84Z"/>
          <path class="cls-4" d="M1560.48,319.22c6.64,0,12,5.36,12,12s-5.36,12-12,12c-6.56,0-12-5.36-12-12s5.44-12,12-12"/>
          <path class="cls-3" d="M1560.48,319.22c6.64,0,12,5.36,12,12s-5.36,12-12,12c-6.56,0-12-5.36-12-12s5.44-12,12-12Z"/>
          <path class="cls-1" d="M1721.04,306.42s-50.168,29.68-83.44,29.68"/>
          <path class="cls-1" d="M2000.96,372.98s45.84-36.88,87.6-36.88"/>
          <path class="cls-1" d="M1270.56,196.9s37.28-19.52,54.88-24.72"/>
          <path class="cls-1" d="M1425.04,169.06s59.12-25.52,124.96-24.24"/>
          <path class="cls-1" d="M1584.88,175.3s77.52-13.04,149.128,2.88"/>
          <path class="cls-1" d="M1674,194.02s64.32-10.8,126,6.64"/>
          <path class="cls-1" d="M1740.16,213.62s65.52.88,98.08,13.52"/>
          <path class="cls-1" d="M1128,215.06s91.912,25.12,166.64-10.8"/>
          <path class="cls-1" d="M1139.68,225.94s119.36,29.44,173.92-25.2"/>
          <path class="cls-1" d="M1179.68,246.58s89.92,28.96,160.64-45.76"/>
          <path class="cls-1" d="M1263.2,264.74s72.64-20.8,100.168-63.6"/>
          <path class="cls-1" d="M1320,265.94s48.72-33.76,66.232-63.84"/>
          <path class="cls-1" d="M1947.672,227.86s19.048,23.92,90.728,38.8"/>
          <path class="cls-1" d="M1960.32,216.58s30.808,30.8,94.96,38.32"/>
          <path class="cls-1" d="M1975.84,202.1s31.28,26.88,99.36,36.88"/>
          <path class="cls-1" d="M1991.28,186.66s47.84,31.92,102.32,35.6"/>
          <path class="cls-1" d="M2010.16,166.5s33.512,31.28,100,39.04"/>
          <path class="cls-1" d="M2024.24,150.42s39.28,33.76,101.04,38.4"/>
          <path class="cls-1" d="M2038.08,133.62s24.08,27.84,103.512,35.12"/>
          <path class="cls-1" d="M2052.16,115.46s26.8,29.44,102.24,35.84"/>
          <path class="cls-1" d="M2063.12,100.5s47.192,35.6,101.832,34.88"/>
          <path class="cls-1" d="M2072.48,86.9s62.4,37.44,99.6,36.24"/>
          <path class="cls-1" d="M2083.84,69.62s49.6,30.88,95.84,37.68"/>
          <path class="cls-1" d="M1870.72,243.14s20,15.12,38.72,14.48"/>
          <path class="cls-1" d="M1882.24,231.94s17.36,14.8,41.2,14.72"/>
          <path class="cls-1" d="M1896.24,218.18s19.68,18.4,43.28,15.04"/>
          <path class="cls-1" d="M1909.52,204.9s23.52,16,44.56,15.52"/>
          <path class="cls-1" d="M1924.24,189.78s17.44,15.12,45.04,16.56"/>
          <path class="cls-1" d="M1937.36,173.14s20.48,18.16,46.552,18.8"/>
          <path class="cls-1" d="M1951.2,161.14s19.84,12.72,47.92,15.12"/>
          <path class="cls-1" d="M1963.76,147.14s26.8,9.44,51.36,11.76"/>
          <path class="cls-1" d="M1978.24,130.02s18.488,12.96,51.28,12.16"/>
          <path class="cls-1" d="M1991.28,112.9s21.92,14.56,50.088,14.88"/>
          <path class="cls-1" d="M2000.88,96.66s29.44,16.48,54.8,12.8"/>
          <path class="cls-1" d="M2011.6,77.22s18.64,20.4,53.36,19.68"/>
          <path class="cls-1" d="M2019.12,68.42s33.44,18.8,56.08,14"/>
          <path class="cls-1" d="M2033.28,57.78s25.36,15.44,48.56,14.8"/>
          <path class="cls-1" d="M2059.04,50.02s45.192,23.04,106.32-1.92"/>
          <path class="cls-1" d="M2097.52,66.42s91.36,20.96,130.96-15.68"/>
          <path class="cls-1" d="M2169.2,71.86s62.808,6.56,133.04-15.68"/>
          <path class="cls-1" d="M2210.96,72.26s95.36,19.2,261.048.72"/>
          <path class="cls-1" d="M1345.92,263.78s42.64-28.08,60.32-60.4"/>
          <path class="cls-1" d="M1377.84,258.58s34.32-33.28,44.32-53.92"/>
          <path class="cls-1" d="M1409.52,250.02s28.24-25.36,34.488-43.12"/>
          <path class="cls-1" d="M1271.6,205.38s61.272-13.36,207.832,5.44"/>
          <path class="cls-1" d="M1328.24,180.9s51.368-24.88,97.128-32.48"/>
          <path class="cls-1" d="M1379.28,170.58s37.512-17.68,92.872-26.48"/>
          <path class="cls-1" d="M1464.56,167.22s51.92-22.16,115.448-20.08"/>
          <path class="cls-1" d="M1530.24,167.62s71.2-15.92,136.808-6.96"/>
          <path class="cls-1" d="M1720.88,202.42s54.32-2.48,116.808,13.04"/>
          <path class="cls-1" d="M1628,180.58s77.832-4.16,131.192,5.68"/>
          <path class="cls-1" d="M2109.36,68.66s26.872,23.28,101.76,38.08"/>
          <path class="cls-1" d="M2151.6,72.42s42.088,23.92,108.488,32.24"/>
          <path class="cls-1" d="M2195.76,72.74s59.04,25.68,121.44,27.28"/>
          <path class="cls-1" d="M2261.12,78.34s60.16,14.48,134.72,10.56"/>
          <path class="cls-1" d="M1499.28,166.34s40.8-16.8,113.12-15.44"/>
          <path class="cls-1" d="M1768.32,227.46s24.48-2.96,54.872,11.52"/>
          <path class="cls-1" d="M1673.44,302.98c16.88,2.64,32.96,4.64,47.6,3.44,57.28-31.28,96.4-60.64,124.96-87.6"/>
          <path class="cls-2" d="M1396.08,1190.564c-113.183-15.388-214.388-78.43-278.104-173.232,99.275,56.499,217.969,67.862,326.16,31.224"/>
          <path class="cls-2" d="M1393.752,1285.74l-334.576-106.288,348.408-43"/>
          <path class="cls-2" d="M1444.16,1048.524c-99.982-55.241-171.578-150.593-196.736-262.016,72.157,88.551,178.727,142.031,292.848,146.96"/>
          <path class="cls-2" d="M1407.6,1136.42l-273.576-219.992,340.408,85.792"/>
          <path class="cls-2" d="M1540.248,933.484c-73.28-87.621-105.607-202.389-88.832-315.376,35.306,108.631,115.37,196.987,220.008,242.792"/>
          <path class="cls-2" d="M1474.4,1002.244l-175.664-303.944,286.456,202.944"/>
          <path class="cls-2" d="M1671.472,860.892c-36.676-108.178-25.354-226.875,31.112-326.168-6.33,114.052,36.402,225.369,117.424,305.888"/>
          <path class="cls-2" d="M1585.224,901.22l-53.984-346.88,193.784,292.72"/>
          <path class="cls-2" d="M1820.048,840.612c4.883-114.123,58.326-220.713,146.856-292.896-47.106,104.06-47.479,223.295-1.024,327.648"/>
          <path class="cls-2" d="M1725.064,847.06l74.984-342.952,74.936,342.96"/>
          <path class="cls-2" d="M1965.848,875.348c45.774-104.656,134.105-184.752,242.728-220.096-81.515,80.021-124.924,191.079-119.28,305.168"/>
          <path class="cls-2" d="M1874.96,847.06l193.784-292.728-53.984,346.88"/>
          <path class="cls-2" d="M2089.32,960.452c80.492-81.049,191.794-123.819,305.848-117.528-104.916,45.17-185.516,133.039-221.48,241.456"/>
          <path class="cls-2" d="M2014.784,901.236l286.456-202.944-175.656,303.944"/>
          <path class="cls-2" d="M2173.704,1084.42c104.339-46.495,223.578-46.163,327.656.912-114.151,4.21-221.055,57.025-293.76,145.128"/>
          <path class="cls-2" d="M2125.6,1002.26l340.424-85.744-273.608,219.952"/>
          <path class="cls-2" d="M2207.6,1230.428c114.083-5.682,225.151,37.686,305.2,119.168-107.968-37.298-226.732-26.652-326.344,29.256"/>
          <path class="cls-2" d="M2192.4,1136.444l348.416,42.984-334.584,106.296"/>
          <path class="cls-5" d="M1800,840.1c225.328,0,408,182.664,408,408s-182.672,408-408,408-408-182.672-408-408,182.664-408,408-408"/>
          <path class="cls-1" d="M1800,840.1c225.328,0,408,182.664,408,408s-182.672,408-408,408-408-182.672-408-408,182.664-408,408-408Z"/>
        </g>
        <path class="cls-6" d="M3600,2000.1v-704H0v704C0,2220.1,180,2400.1,400,2400.1h2800c220,0,400-180,400-400Z"/>
        <g>
          <path class="cls-7" d="M3563.656,2022.964c-182.92-73.168-368.392-73.168-551.312,0-137.504,55-271.192,55-408.688,0-181.84-72.744-374.44-73.096-572.464-1.088-155.576,56.568-306.824,56.568-462.384,0-198.032-72.024-390.64-71.648-572.464,1.088-137.504,55-271.184,55-408.688,0-182.912-73.168-368.4-73.168-551.312,0-11.613,4.645-23.197,8.888-34.76,12.748,5.926,66.376,28.252,128.217,62.861,181.424,14.418-4.851,28.822-10.152,43.211-15.909,137.504-55,271.184-55,408.688,0,182.912,73.176,368.4,73.176,551.312,0,138.6-55.448,281.064-55.096,435.536,1.088,196.944,71.624,396.664,71.624,593.616,0,154.456-56.176,296.936-56.52,435.536-1.088,182.92,73.176,368.392,73.176,551.312,0,137.496-55,271.184-55,408.688,0,14.39,5.756,28.795,11.057,43.213,15.907,34.608-53.207,56.934-115.047,62.86-181.422-11.563-3.861-23.148-8.104-34.76-12.749Z"/>
          <path class="cls-7" d="M3563.656,1638.964c-182.92-73.168-368.392-73.168-551.312,0-137.496,55-271.184,55-408.688,0-181.84-72.744-374.44-73.096-572.464-1.088-155.576,56.568-306.824,56.568-462.384,0-198.032-72.024-390.64-71.648-572.464,1.088-137.504,55-271.184,55-408.688,0-182.912-73.168-368.4-73.168-551.312,0C24.201,1643.821,12.089,1648.24,0,1652.239v199.532c35.958-8.716,71.857-20.221,107.656-34.543,137.504-55,271.184-55,408.688,0,182.912,73.176,368.4,73.176,551.312,0,138.6-55.448,281.064-55.096,435.536,1.088,196.944,71.624,396.664,71.624,593.616,0,154.456-56.176,296.936-56.52,435.536-1.088,182.92,73.176,368.392,73.176,551.312,0,137.504-55,271.184-55,408.688,0,35.802,14.32,71.699,25.825,107.656,34.54v-199.529c-12.089-3.999-24.201-8.418-36.344-13.275Z"/>
          <path class="cls-7" d="M36.344,1254.964C24.201,1259.821,12.089,1264.24,0,1268.239v199.532c35.958-8.716,71.857-20.221,107.656-34.543,137.504-55,271.184-55,408.688,0,182.912,73.176,368.4,73.176,551.312,0,138.6-55.448,281.064-55.096,435.536,1.088,196.944,71.624,396.664,71.624,593.616,0,154.456-56.176,296.936-56.52,435.536-1.088,182.92,73.176,368.392,73.176,551.312,0,137.504-55,271.184-55,408.688,0,35.802,14.32,71.699,25.825,107.656,34.54v-199.529c-12.089-3.999-24.201-8.418-36.344-13.275-182.92-73.168-368.392-73.168-551.312,0-137.496,55-271.184,55-408.688,0-181.84-72.736-374.44-73.104-572.464-1.088-155.576,56.568-306.824,56.568-462.384,0-198.032-72.016-390.64-71.648-572.464,1.088-137.504,55-271.184,55-408.688,0-182.912-73.168-368.4-73.168-551.312,0Z"/>
        </g>
      </g>
    </g>
  </g>
</svg>