<?xml version="1.0" encoding="UTF-8"?>
<svg xmlns="http://www.w3.org/2000/svg" viewBox="0 0 3600.1 2401.738">
  <defs>
    <style>
      .cls-1 {
        fill: #3a75c4;
      }

      .cls-1, .cls-2, .cls-3, .cls-4, .cls-5, .cls-6 {
        stroke-width: 0px;
      }

      .cls-2 {
        fill: #3d8e33;
      }

      .cls-2, .cls-5 {
        fill-rule: evenodd;
      }

      .cls-3 {
        fill: #fff;
      }

      .cls-4 {
        fill: #ce1126;
      }

      .cls-5 {
        fill: #eee;
      }

      .cls-6 {
        fill: #ffc61e;
      }
    </style>
  </defs>
  <g id="background">
    <path id="km" class="cls-5" d="M400,.1h2800c220,0,400,180,400,400v1600c0,220-180,400-400,400H400C180,2400.1,0,2220.1,0,2000.1V400.1C0,180.1,180,.1,400,.1Z"/>
  </g>
  <g id="country">
    <g id="km-2" data-name="km">
      <path id="_3_4" data-name="3/4" class="cls-4" d="M0,2000.1C0,2220.1,180,2400.1,400,2400.1h2800c220,0,400-180,400-400v-800H0v800Z"/>
      <path id="_4_4" data-name="4/4" class="cls-1" d="M0,2000.1C0,2220.1,180,2400.1,400,2400.1h2800c220,0,400-180,400-400v-200H0v200Z"/>
      <path id="_1_4" data-name="1/4" class="cls-6" d="M3200,.1H400C180,.1,0,180.1,0,400.1v200h3600v-200C3600,180.1,3420,.1,3200,.1Z"/>
      <path id="l-t" class="cls-2" d="M0,2000.1V400.1C0,280.1,50,180.1,130,100.1l1570,1100L130,2300.1C50,2220.1,0,2120.1,0,2000.1Z"/>
      <path class="cls-3" d="M323,1200.1c0-218.441,152.595-401.235,357-447.619-32.805-7.444-66.942-11.381-102-11.381-253.499,0-459,205.501-459,459s205.501,459,459,459c35.058,0,69.195-3.937,102-11.381-204.405-46.383-357-229.178-357-447.619Z"/>
      <path id="a" class="cls-3" d="M680.068,786.66l50.048,153.598-130.954-94.853h161.677l-130.954,94.853,50.184-153.598h0Z"/>
      <path id="a-2" data-name="a" class="cls-3" d="M680.068,1005.676l50.048,153.598-130.954-94.853h161.677l-130.954,94.853,50.184-153.598h0Z"/>
      <path id="a-3" data-name="a" class="cls-3" d="M680.068,1224.693l50.048,153.598-130.954-94.853h161.677l-130.954,94.853,50.184-153.598h0Z"/>
      <path id="a-4" data-name="a" class="cls-3" d="M680.068,1443.71l50.048,153.598-130.954-94.853h161.677l-130.954,94.853,50.184-153.598h0Z"/>
    </g>
  </g>
</svg>