<?xml version="1.0" encoding="UTF-8"?>
<svg xmlns="http://www.w3.org/2000/svg" viewBox="0 0 3600.1 2401.738">
  <defs>
    <style>
      .cls-1, .cls-2, .cls-3, .cls-4, .cls-5 {
        stroke-width: 0px;
      }

      .cls-1, .cls-4 {
        fill: #ed1c27;
      }

      .cls-2 {
        fill: #024fa2;
      }

      .cls-2, .cls-4, .cls-5 {
        fill-rule: evenodd;
      }

      .cls-3, .cls-5 {
        fill: #eee;
      }
    </style>
  </defs>
  <g id="background">
    <path id="kp" class="cls-2" d="M400,.1h2800c220,0,400,180,400,400v1600c0,220-180,400-400,400H400C180,2400.1,0,2220.1,0,2000.1V400.1C0,180.1,180,.1,400,.1Z"/>
  </g>
  <g id="country">
    <g id="kp-2" data-name="kp">
      <rect class="cls-3" x="0" y="400.1" width="3600" height="1600"/>
      <rect class="cls-1" x="0" y="466.764" width="3600" height="1466.672"/>
      <path class="cls-5" d="M466.664,1200.1c0-294.552,238.784-533.336,533.336-533.336s533.336,238.784,533.336,533.336-238.784,533.336-533.336,533.336-533.336-238.784-533.336-533.336h0Z"/>
      <g>
        <path class="cls-4" d="M1000,683.436l-159.656,491.376,245.688,79.832-86.032-571.208Z"/>
        <path class="cls-4" d="M1000,683.436l159.656,491.376-245.688,79.832,86.032-571.208Z"/>
      </g>
      <g>
        <path class="cls-4" d="M1491.376,1040.444h-516.664v258.328l516.664-258.328Z"/>
        <path class="cls-4" d="M1491.376,1040.444l-417.992,303.688-151.84-209,569.832-94.688Z"/>
      </g>
      <g>
        <path class="cls-4" d="M508.624,1040.444l417.992,303.688,151.84-209-569.832-94.688Z"/>
        <path class="cls-4" d="M508.624,1040.444h516.664v258.328l-516.664-258.328Z"/>
      </g>
      <g>
        <path class="cls-4" d="M1303.688,1618.092l-159.656-491.376-245.688,79.824,405.344,411.552Z"/>
        <path class="cls-4" d="M1303.688,1618.092l-417.992-303.688,151.848-209,266.144,512.688h0Z"/>
      </g>
      <g>
        <path class="cls-4" d="M696.312,1618.092l417.992-303.688-151.848-209-266.144,512.688h0Z"/>
        <path class="cls-4" d="M696.312,1618.092l159.656-491.376,245.688,79.824-405.344,411.552Z"/>
      </g>
    </g>
  </g>
</svg>