<?xml version="1.0" encoding="UTF-8"?>
<svg xmlns="http://www.w3.org/2000/svg" viewBox="0 0 3600.1 2401.738">
  <defs>
    <style>
      .cls-1 {
        fill: #141414;
      }

      .cls-1, .cls-2, .cls-3, .cls-4 {
        stroke-width: 0px;
      }

      .cls-1, .cls-4 {
        fill-rule: evenodd;
      }

      .cls-2 {
        fill: #ce1126;
      }

      .cls-3 {
        fill: #eee;
      }

      .cls-4 {
        fill: #007a3d;
      }
    </style>
  </defs>
  <g id="background">
    <path id="kw" class="cls-4" d="M400,.1h2800c220,0,400,180,400,400v1600c0,220-180,400-400,400H400C180,2400.1,0,2220.1,0,2000.1V400.1C0,180.1,180,.1,400,.1Z"/>
  </g>
  <g id="country">
    <g id="kw-2" data-name="kw">
      <path class="cls-3" d="M3600,2000.1V800.1H0v1200C0,2220.1,180,2400.1,400,2400.1h2800c220,0,400-180,400-400Z"/>
      <path class="cls-2" d="M3600,2000.1v-400H0v400C0,2220.1,180,2400.1,400,2400.1h2800c220,0,400-180,400-400Z"/>
      <path id="Path" class="cls-1" d="M124.137,2289.756C47.661,2216.899,0,2114.065,0,2000.1V400.1C0,286.135,47.661,183.301,124.137,110.444l775.863,689.656v800L124.137,2289.756Z"/>
    </g>
  </g>
</svg>