<?xml version="1.0" encoding="UTF-8"?>
<svg xmlns="http://www.w3.org/2000/svg" viewBox="0 0 3600.1 2401.738">
  <defs>
    <style>
      .cls-1, .cls-2 {
        fill: #059334;
      }

      .cls-1, .cls-3, .cls-4, .cls-5, .cls-6, .cls-7, .cls-8, .cls-9 {
        stroke: #fff;
        stroke-linejoin: round;
        stroke-width: 28.8px;
      }

      .cls-10, .cls-2, .cls-11, .cls-12, .cls-13, .cls-14, .cls-15, .cls-16, .cls-17, .cls-18, .cls-19 {
        stroke: #000;
      }

      .cls-10, .cls-2, .cls-11, .cls-12, .cls-13, .cls-14, .cls-15, .cls-16, .cls-18 {
        stroke-width: 4.313px;
      }

      .cls-10, .cls-20, .cls-5 {
        fill: #00493d;
      }

      .cls-3, .cls-17, .cls-18 {
        fill: none;
      }

      .cls-21, .cls-22, .cls-20, .cls-23, .cls-24, .cls-25, .cls-26, .cls-27, .cls-28, .cls-29, .cls-30, .cls-31, .cls-32 {
        stroke-width: 0px;
      }

      .cls-22, .cls-15, .cls-19 {
        fill: #f9d050;
      }

      .cls-4, .cls-14 {
        fill: #fcea83;
      }

      .cls-12, .cls-23, .cls-6 {
        fill: #fff;
      }

      .cls-13, .cls-24, .cls-7 {
        fill: #073163;
      }

      .cls-25 {
        fill: #00247d;
      }

      .cls-25, .cls-30, .cls-32 {
        fill-rule: evenodd;
      }

      .cls-26, .cls-32 {
        fill: #eee;
      }

      .cls-27, .cls-16, .cls-9 {
        fill: #c8102e;
      }

      .cls-28, .cls-30 {
        fill: #cf1b2b;
      }

      .cls-29 {
        fill: #024919;
      }

      .cls-17, .cls-19 {
        stroke-width: 1.941px;
      }

      .cls-31 {
        fill: #0b50a0;
      }
    </style>
  </defs>
  <g id="background">
    <path id="gb" class="cls-25" d="M400,.1h2800c220,0,400,180,400,400v1600c0,220-180,400-400,400H400C180,2400.1,0,2220.1,0,2000.1V400.1C0,180.1,180,.1,400,.1Z"/>
  </g>
  <g id="country">
    <g id="ky">
      <g>
        <g>
          <path id="b" class="cls-6" d="M2969.166,998.947v280.35c0,242.976-115.017,326.361-268.851,392.496-153.834-66.135-270.288-149.52-270.288-392.493v-280.353h539.139Z"/>
          <g id="c">
            <path class="cls-4" d="M2263.251,1648.789c8.625,23.004,70.449,53.196,142.332,14.376,48.882-27.315,80.514-66.132,110.703-135.144,8.628-17.25,12.939-38.82-7.188-51.756-15.813-11.502-41.694-24.441-53.196-35.943-5.748-5.751-11.499-10.065-15.813-14.379,2.874,2.877,5.751,5.751,8.625,10.065,28.755,34.506-1.437,84.825-33.066,115.017-23.004,21.564-64.698,74.76-125.082,24.441-12.939-11.502-43.131,35.94-27.315,73.32v.003ZM3137.37,1648.789c-10.065,23.004-71.886,53.196-142.332,14.376-48.882-27.315-80.514-66.132-112.14-135.144-7.191-17.25-11.505-38.82,8.625-51.756,15.813-11.502,41.694-24.441,53.193-35.943,5.751-5.751,10.065-10.065,15.816-14.379-2.877,2.877-5.751,5.751-8.625,10.065-28.755,34.506,1.437,84.825,31.629,115.017,23.001,21.564,66.135,74.76,126.516,24.441,12.942-11.502,41.694,35.94,27.318,73.32v.003Z"/>
            <path class="cls-4" d="M2700.315,1772.434c115.017,0,291.855-51.759,386.742-232.908,15.816-30.192,0-46.008-18.69-56.07-20.13-8.628-44.568-28.755-57.51-41.694,23.004,23.004,18.69,38.82,2.88,64.698-73.326,122.205-173.964,184.026-313.422,184.026s-240.096-61.821-313.419-184.026c-15.813-25.881-20.13-41.694,1.44-64.698-11.505,12.939-37.38,33.066-57.51,41.694-18.69,10.062-34.506,25.878-18.69,56.07,94.89,181.152,273.162,232.908,388.182,232.908h-.003Z"/>
          </g>
          <g id="d">
            <path class="cls-9" d="M2434.338,1529.461c-2.874-14.376-21.567-8.625-27.315,8.625-7.191-10.062-14.379-20.127-20.13-31.629-17.25-25.878-20.13-43.131,4.314-67.572,11.502-11.502,34.506-24.441,50.319-10.065,33.069,27.318,15.816,71.886-7.188,100.641ZM2964.852,1529.461c2.874-14.376,23.004-8.625,28.755,8.625,7.188-10.062,14.376-20.127,20.127-31.629,17.25-25.878,20.13-43.131-5.751-67.572-10.065-11.502-33.066-24.441-50.319-10.065-31.629,27.318-15.816,71.886,7.188,100.641ZM2263.251,1648.789c-14.376-21.567-25.878-77.637-28.755-92.013-4.311-12.939-5.751-24.441,10.065-30.192,15.816-5.751,30.192,14.376,37.38,31.629,7.188,17.253,18.69,43.131,31.629,74.76-31.629-18.69-57.51-5.751-50.319,15.816h0ZM3137.37,1648.789c12.939-21.567,24.441-77.637,28.755-92.013,2.874-12.939,5.751-24.441-10.065-30.192-15.813-5.751-30.192,14.376-37.38,31.629-7.188,17.253-18.69,43.131-31.629,74.76,31.629-18.69,56.07-5.751,50.319,15.816h0Z"/>
          </g>
          <g id="e">
            <path class="cls-6" d="M2589.609,997.51c-18.69,4.314-31.629,5.751-48.882-10.065-11.502-11.502-8.625-31.629,2.874-38.82,12.942-8.622,24.441-14.373,40.26-10.062,15.81,4.314,57.504,43.131,47.442,44.571-10.065,0-25.878,10.062-41.694,14.376ZM2634.18,928.498c5.751-4.314,12.939-7.188,31.629-8.625,17.253-1.44,30.192-1.44,34.506,11.499,5.751,15.816,10.062,34.506,21.564,43.134-7.188,4.311-43.131,8.625-56.07,1.437-17.25-8.628-21.564-41.694-31.629-47.445ZM2757.822,929.938c5.751-4.314,12.939-4.314,31.629-2.874,18.69,1.437,25.878,2.874,30.192,15.813,4.314,14.376,0,33.069,8.628,46.008-8.628,2.874-37.38,2.874-47.445-7.191-15.816-11.499-14.379-44.568-23.004-51.756Z"/>
            <path class="cls-7" d="M2844.084,938.563c-12.939-2.874-21.567-4.314-27.315,0,7.188,8.625,1.437,43.131,15.813,54.63,10.065,7.191,35.943,8.628,41.694-7.185,7.188-14.379,7.188-35.943-30.192-47.445ZM2696.001,924.187c4.314-4.314,12.939-5.751,30.192-5.751,18.69,0,30.192,2.877,35.94,14.376,5.754,14.379,4.317,33.069,14.379,44.571-4.314,5.751-43.131,5.751-54.63-2.877-15.816-10.062-17.256-43.131-25.881-50.319h0ZM2573.796,937.126c0-7.188,10.065-8.625,35.94-10.065,25.881-2.874,27.318-1.437,35.946,17.253,4.314,10.065,10.062,27.318,21.564,33.069-31.629,7.188-41.691,11.499-58.944,1.437-12.939-7.188-27.318-24.441-30.192-31.629-1.44-4.314-1.44-8.628-4.314-10.065h0Z"/>
          </g>
          <g id="f">
            <path class="cls-1" d="M2576.67,809.17c-10.065,0-18.69-4.314-24.441-11.502-10.065-12.939-37.38-18.69-48.882-7.188-4.314,2.874-10.065,2.874-14.376,4.314-7.191,0-15.816,7.188-12.939,21.564,5.748-4.314,7.188,0,11.499,0,2.877-1.44,1.44,1.44,1.44,4.314,0,7.188,15.813,21.564,30.192,20.13,15.813,0,23.001,5.748,25.878,8.625,4.311,4.311,1.437,2.874,4.311,10.062,4.314,4.314,5.751,5.751-1.437,11.502-10.062,8.628-17.25,28.755,0,44.568,18.69,14.379,66.135,35.943,119.331-5.751,51.756-40.254,132.27-17.25,138.018-2.874,7.191,14.376,10.065,23.004,11.502,30.192,1.44,5.751,8.628,11.502,18.69,10.065,10.065,0,21.567,4.311,27.318,8.625,7.188,4.314,17.25,2.877,14.376-10.065-5.751-40.254-30.192-46.005-33.066-64.695,14.376,1.437,24.441,1.437,30.192-4.314,4.311-5.751,10.062-15.813,15.813-18.69,4.314-2.874,4.314-5.751-1.437-4.314-7.188,1.44-11.502,4.314-24.441,2.877-66.135-7.188-251.598-57.51-287.541-47.445h0Z"/>
            <path class="cls-8" d="M2869.962,858.052c-7.188,4.314-14.376,11.502-27.315,28.755-14.379,18.69-57.51,37.38-110.706,37.38-51.756,0-83.385-8.628-106.389-27.318-12.939-10.062-23.004-15.813-31.629-20.127-15.816-7.188-18.69-23.004-14.379-35.94-4.311,7.185-7.188,14.373-15.813,12.936-5.751,0-17.25,0-14.376,5.751-1.44-2.874-1.44-7.188-2.877-8.625l-2.874-2.877c4.311,2.877,14.376-5.751,21.564-5.751,5.751,1.44,12.939-5.751,11.502-14.376-1.44-7.188-2.874-12.939-4.314-18.69,11.502-5.751,162.462,21.564,192.654,24.441,30.192,1.44,116.454,14.376,104.952,24.441h0Z"/>
            <path class="cls-1" d="M2596.8,803.419c14.376-14.376,31.629-21.567,48.882-17.25h4.314c8.625-7.191,28.752-8.628,40.254-2.88h5.751c17.253-5.748,50.319,0,61.821,11.505l4.314,2.874c38.82-2.874,61.821,14.376,89.139,41.694,2.874,2.874,7.188,8.625,14.376,10.065,8.625,1.437,10.065,5.748,2.874,10.062-8.625,4.314-15.813,11.502-30.189,27.318-12.942,17.25-54.633,34.503-106.392,34.503-50.319,0-80.511-8.625-103.515-25.878-12.939-10.065-23.004-15.816-30.192-20.13-8.625-2.874-20.127-14.376-15.813-25.878,2.874-11.499-4.314-25.878-10.065-40.254,4.314-2.877,15.816-7.188,21.567-4.314l2.874-1.44v.003Z"/>
            <g>
              <path class="cls-5" d="M2851.272,839.362c-27.315-27.315-50.319-44.568-89.139-41.694,0,1.44,0,5.751-1.437,8.628,23.004,8.625,56.07,34.503,70.449,53.193,5.751-5.751,15.813-12.939,20.127-20.127h0ZM2757.822,794.794c-11.502-11.502-44.568-17.25-61.821-11.502,0,5.751,0,14.376-2.877,20.13,10.065,4.311,18.69,14.376,27.318,24.438,5.751-1.437,20.13-5.751,27.315-7.188,2.877-5.751,8.628-18.69,10.065-25.878ZM2690.25,783.292c-11.502-5.751-31.629-4.314-40.257,2.874-2.874,5.751-4.311,17.253-4.311,23.004,5.751,0,14.376,4.314,17.25,7.188,8.628-2.874,20.13-8.625,24.444-12.939,1.437-5.751,4.311-14.376,2.874-20.127h0ZM2596.8,803.419c14.376-14.376,31.629-21.567,48.882-17.25-2.874,4.311-4.314,12.936-4.314,21.564-15.813-1.44-35.94,2.874-44.568,8.625v-12.939Z"/>
              <path class="cls-5" d="M2825.394,862.366c-12.939-18.69-44.568-40.257-66.135-50.319,0,1.437-2.874,7.188-4.314,11.502,8.628,12.939,25.881,41.691,33.069,57.51,7.188-2.88,27.315-11.505,37.38-18.693h0ZM2716.128,893.995c2.874-20.13,4.314-48.882,4.314-58.947,7.188-1.437,21.564-5.751,27.315-7.188,7.188,11.502,24.441,41.694,31.629,56.07-17.25,4.314-46.005,11.502-63.258,10.065ZM2665.809,824.983c7.188-2.874,17.25-8.625,24.441-14.376,5.751,4.311,17.25,14.376,21.567,20.127,0,12.939-4.314,50.319-5.751,63.258-11.502,0-30.192-2.874-40.257-8.625,1.44-21.567,2.874-46.008,0-60.384ZM2593.923,842.236c1.44-2.874,2.874-12.939,2.874-17.25,11.502-7.191,40.26-14.379,61.824-2.88,1.437,14.379,0,50.322-1.44,58.95-18.69-14.379-48.882-34.506-63.258-38.82h0Z"/>
            </g>
            <g>
              <path class="cls-21" d="M2522.037,816.358c-2.874,0-4.314-8.625-10.065-8.625-1.437,0-5.751,1.437-7.188,0,0,2.874,1.44,5.751,2.877,7.188,1.437,4.311,8.625,1.437,14.376,1.437Z"/>
              <path class="cls-3" d="M2522.037,840.799c17.25,0,20.13-21.567,28.755-23.004M2532.102,842.236c12.939,5.751,23.004-24.441,33.066-23.004M2506.224,804.856c4.314,0,7.188-5.751,14.376,1.44,2.877,2.874,7.191,4.311,10.065,4.311M2527.788,826.423c-5.751,8.625-15.816,14.376-21.567,11.502M2503.347,790.48c-4.314,2.874-7.188,8.625-10.065,12.939M2488.971,812.044v7.188"/>
            </g>
          </g>
          <g id="g">
            <path class="cls-8" d="M2642.805,790.48c-30.192-23.004-66.135-44.568-99.201-48.882,21.564,12.939,81.948,60.384,97.764,76.2"/>
            <path class="cls-8" d="M2660.058,768.913c-35.94-24.441-77.637-51.759-117.891-54.63,30.192,15.81,74.76,53.19,99.201,83.385M2706.063,728.659c20.13-44.568,41.694-69.009,70.449-96.327-14.379,30.192-30.195,92.013-37.38,116.454"/>
            <path class="cls-8" d="M2737.695,721.471c14.376-31.629,35.94-58.947,73.323-76.2-18.69,18.69-47.445,74.76-54.633,104.955"/>
            <path class="cls-8" d="M2750.634,750.223c17.25-24.441,51.759-70.449,113.58-94.89-35.943,35.943-89.139,102.078-102.078,127.956M2770.761,781.852c25.878-14.376,77.637-37.38,115.017-30.192-23.004,8.628-92.013,40.257-122.205,69.009"/>
            <path class="cls-8" d="M2765.01,771.79c24.441-25.878,69.009-64.698,116.454-80.511-34.506,33.066-107.829,107.826-117.891,119.328M2696.001,755.974c-17.25-53.196-43.131-103.515-81.948-119.328,21.564,31.629,48.882,77.634,63.258,146.643M2662.932,754.537c-28.755-34.506-67.572-69.009-112.14-76.2,30.189,17.253,80.511,67.575,99.201,116.457"/>
            <path class="cls-8" d="M2678.748,753.1c-35.94-64.698-63.258-76.2-79.074-89.139,12.939,24.441,44.568,89.139,63.261,116.457"/>
            <path class="cls-3" d="M2606.862,748.786c17.25,10.065,43.131,34.506,51.759,50.319"/>
            <path class="cls-8" d="M2606.862,778.978c8.625,7.188,24.441,15.816,38.82,28.755M2777.949,800.542c14.376-11.502,46.005-30.192,61.821-35.94M2767.887,790.48c14.376-18.69,43.131-44.568,53.196-53.196M2808.141,701.341c-12.939,14.376-43.131,50.319-54.63,67.572M2770.761,688.402c-10.065,12.939-30.192,50.319-35.94,63.258M2657.181,691.279c8.625,23.004,24.441,61.821,30.192,77.637M2644.242,715.72c5.751,8.625,17.25,28.755,21.567,43.131"/>
          </g>
          <g id="h">
            <path class="cls-8" d="M2693.124,708.529c0-12.939,8.625-27.315,17.25-27.315,10.065,0,17.256,17.25,17.256,27.315,0,11.502-8.628,21.567-17.253,21.567s-17.253-8.628-17.253-21.567h0Z"/>
            <path class="cls-8" d="M2674.434,720.031c1.44-14.376,11.502-25.878,20.13-24.441,8.625,1.44,12.936,18.69,11.499,28.755-1.44,11.502-11.502,20.127-18.69,18.69-7.188,0-14.376-10.065-12.939-23.004h0ZM2713.254,724.345c-2.874-12.939,2.874-27.315,11.502-28.755,8.625-1.437,17.25,12.939,18.69,24.441,2.874,11.502-4.314,23.004-11.502,23.004-7.188,1.44-17.25-5.751-18.69-18.69Z"/>
            <path class="cls-8" d="M2691.687,735.847c0-14.376,8.625-27.315,17.25-27.315,10.065,0,17.256,15.813,17.256,27.315s-8.628,21.567-17.253,21.567-17.253-8.628-17.253-21.567h0Z"/>
            <path class="cls-8" d="M2665.809,743.035c0-12.939,10.065-27.315,18.69-27.315s17.25,17.25,17.25,27.315c0,11.502-10.062,21.567-17.25,21.567-8.625,0-18.69-8.628-18.69-21.567ZM2719.005,737.284c0-12.939,8.625-27.315,17.25-27.315,10.065,0,17.256,17.25,17.256,27.315,0,11.502-8.628,21.567-17.253,21.567s-17.253-8.628-17.253-21.567h0Z"/>
            <path class="cls-8" d="M2713.254,748.786c0-14.376,10.065-27.315,18.69-27.315s17.25,15.813,17.25,27.315-8.625,21.567-17.25,21.567-18.69-8.628-18.69-21.567Z"/>
            <path class="cls-8" d="M2690.25,761.725c0-14.376,8.625-27.315,17.25-27.315,10.065,0,17.256,17.25,17.256,27.315,0,11.502-8.628,21.567-17.253,21.567s-17.253-8.628-17.253-21.567h0ZM2654.307,761.725c0-14.376,7.188-27.315,14.376-27.315s12.939,17.25,12.939,27.315c0,11.502-7.188,21.567-12.939,21.567-7.188,0-14.376-8.628-14.376-21.567ZM2734.818,758.851c0-12.939,7.188-25.878,14.376-25.878s14.379,15.813,14.379,25.878c0,12.939-8.628,21.567-14.379,21.567-7.188,0-14.376-8.628-14.376-21.567Z"/>
            <path class="cls-8" d="M2743.446,783.292c2.874-14.376,11.502-25.878,17.25-24.441,5.754,1.44,7.191,18.69,4.317,28.755-1.44,12.939-10.065,20.127-15.816,18.69-5.751-1.44-8.625-11.502-5.751-23.004h0Z"/>
            <path class="cls-8" d="M2716.128,778.978c1.44-12.939,10.065-25.878,17.25-24.441,8.628,0,12.942,17.25,11.505,27.315-1.44,12.942-8.628,21.567-15.816,20.13-7.188,0-14.376-10.065-12.939-23.004h0ZM2675.874,783.292c-4.314-14.376-12.939-24.441-18.69-23.004-5.751,1.44-7.188,18.69-4.314,28.755,2.877,11.502,11.502,18.69,17.253,17.25,4.314-1.434,8.625-11.499,5.751-23.001Z"/>
            <path class="cls-8" d="M2665.809,780.415c0-12.939,7.188-25.878,14.376-25.878,8.628,0,14.379,15.813,14.379,25.878,0,12.939-7.188,21.567-14.379,21.567-5.751,0-14.376-8.628-14.376-21.567Z"/>
            <path class="cls-8" d="M2687.373,786.166c0-14.376,8.625-27.315,17.25-27.315,10.065,0,17.256,15.813,17.256,27.315s-8.628,21.567-17.253,21.567-17.253-8.628-17.253-21.567h0ZM2694.564,628.018c-2.874,11.502-12.939,21.567-5.751,37.38-12.939-4.314-24.441-5.751-34.506,5.751,12.942-1.44,24.441,2.877,30.192,11.502-11.502-1.44-17.25,4.314-20.127,11.502,10.065-2.877,20.13-5.751,24.441-4.314-4.314,4.314-11.502,11.502-12.939,17.25,8.625-7.185,18.69-5.748,24.441-10.062-4.314,10.065,4.314,20.13,11.502,30.192-1.44-14.376,7.188-24.441,2.874-31.629,12.939,2.877,14.379,14.376,33.069,14.376-7.188-4.311-11.502-18.69-20.13-18.69,4.314-1.437,21.567-2.874,24.441,0-2.874-5.751-12.939-11.502-18.69-11.502,5.751-5.748,15.816-17.25,23.004-20.127-10.065,1.44-25.878,2.877-31.629,11.502,14.376-11.502,11.502-33.066,27.315-35.94-8.625-1.44-21.564,4.311-31.629,14.376,4.314-8.628,4.314-20.13,10.065-23.004-11.502,2.874-24.441,17.25-28.755,24.441,0-7.188-4.314-18.69-7.188-23.004h0Z"/>
            <path class="cls-8" d="M2701.752,651.022c0,4.314,0,12.939-1.44,15.816M2720.442,649.585c-2.874,2.874-8.625,12.939-8.625,21.567"/>
            <path class="cls-3" d="M2729.067,666.838c-4.314,2.874-8.625,7.188-10.065,12.939"/>
          </g>
        </g>
        <g id="c-2" data-name="c">
          <path class="cls-14" d="M2263.251,1648.789c8.625,23.004,70.449,53.196,142.332,14.376,48.882-27.315,80.514-66.132,110.703-135.144,8.628-17.25,12.939-38.82-7.188-51.756-15.813-11.502-41.694-24.441-53.196-35.943-5.748-5.751-11.499-10.065-15.813-14.379,2.874,2.877,5.751,5.751,8.625,10.065,28.755,34.506-1.437,84.825-33.066,115.017-23.004,21.564-64.698,74.76-125.082,24.441-12.939-11.502-43.131,35.94-27.315,73.32v.003ZM3137.37,1648.789c-10.065,23.004-71.886,53.196-142.332,14.376-48.882-27.315-80.514-66.132-112.14-135.144-7.191-17.25-11.505-38.82,8.625-51.756,15.813-11.502,41.694-24.441,53.193-35.943,5.751-5.751,10.065-10.065,15.816-14.379-2.877,2.877-5.751,5.751-8.625,10.065-28.755,34.506,1.437,84.825,31.629,115.017,23.001,21.564,66.135,74.76,126.516,24.441,12.942-11.502,41.694,35.94,27.318,73.32v.003Z"/>
          <path class="cls-14" d="M2700.315,1772.434c115.017,0,291.855-51.759,386.742-232.908,15.816-30.192,0-46.008-18.69-56.07-20.13-8.628-44.568-28.755-57.51-41.694,23.004,23.004,18.69,38.82,2.88,64.698-73.326,122.205-173.964,184.026-313.422,184.026s-240.096-61.821-313.419-184.026c-15.813-25.881-20.13-41.694,1.44-64.698-11.505,12.939-37.38,33.066-57.51,41.694-18.69,10.062-34.506,25.878-18.69,56.07,94.89,181.152,273.162,232.908,388.182,232.908h-.003Z"/>
        </g>
        <g id="d-2" data-name="d">
          <path class="cls-16" d="M2434.338,1529.461c-2.874-14.376-21.567-8.625-27.315,8.625-7.191-10.062-14.379-20.127-20.13-31.629-17.25-25.878-20.13-43.131,4.314-67.572,11.502-11.502,34.506-24.441,50.319-10.065,33.069,27.318,15.816,71.886-7.188,100.641ZM2964.852,1529.461c2.874-14.376,23.004-8.625,28.755,8.625,7.188-10.062,14.376-20.127,20.127-31.629,17.25-25.878,20.13-43.131-5.751-67.572-10.065-11.502-33.066-24.441-50.319-10.065-31.629,27.318-15.816,71.886,7.188,100.641ZM2263.251,1648.789c-14.376-21.567-25.878-77.637-28.755-92.013-4.311-12.939-5.751-24.441,10.065-30.192,15.816-5.751,30.192,14.376,37.38,31.629,7.188,17.253,18.69,43.131,31.629,74.76-31.629-18.69-57.51-5.751-50.319,15.816h0ZM3137.37,1648.789c12.939-21.567,24.441-77.637,28.755-92.013,2.874-12.939,5.751-24.441-10.065-30.192-15.813-5.751-30.192,14.376-37.38,31.629-7.188,17.253-18.69,43.131-31.629,74.76,31.629-18.69,56.07-5.751,50.319,15.816h0Z"/>
        </g>
        <g>
          <path class="cls-20" d="M2346.639,1519.396l-11.502,5.751c-2.874,1.44-2.874,4.314-2.874,5.751h-1.44l-5.751-12.939h1.44c0,1.437,1.437,2.874,4.311,1.437l24.441-12.939c2.877-1.44,2.877-2.877,1.44-4.314l1.437-1.44,7.188,14.379h-1.44c-1.434-1.437-2.874-2.874-5.748-1.437l-10.065,5.751,4.314,8.625,11.502-4.311c2.874-1.44,1.44-4.314,1.44-5.751h1.434l5.751,12.939c-1.437-1.44-2.874-2.877-5.751-1.44l-24.441,12.942c-2.874,1.437-2.874,2.874-1.437,4.311l-1.44,1.44-7.185-12.939,1.437-1.44c1.44,1.44,2.874,2.877,5.751,1.44l11.502-5.751-4.314-10.065ZM2371.08,1538.086c2.874-1.44,2.874-2.874,1.44-5.751h1.434l14.379,21.567-10.065,7.188v-1.44c5.751-4.311,5.751-10.062,4.314-11.499-1.44-1.44-2.877-2.877-2.877-4.314-1.437,0-1.437-1.44-4.311,1.44-1.44,1.434-10.065,7.185-10.065,7.185,1.44,1.44,2.877,5.751,10.065,1.44h1.437l-15.816,11.499v-1.437c7.191-5.751,4.314-10.062,2.877-11.502l-10.065,7.191c-2.874,1.437-2.874,2.874-2.874,4.311,1.437,0,1.437,1.44,2.874,2.877,1.44,2.874,5.751,5.751,12.939,2.874l1.44,1.44-11.502,4.311-14.379-23.004h1.44c1.437,1.44,2.874,2.877,5.748,1.44l21.567-15.816h0ZM2394.081,1592.719l-10.065,8.625c-1.437,1.44-1.437,4.314,0,5.751h-1.437l-10.065-10.062,1.44-1.44c1.437,1.44,2.874,2.877,5.751,0l18.69-18.69c2.874-1.437,2.874-2.874,1.437-5.751l10.065,11.502c-1.44-1.437-4.314-1.437-5.751,0l-8.628,8.628,7.188,7.188,8.628-7.188c2.874-2.877,1.44-4.314,0-5.751l1.44-1.44,10.062,11.502h-1.44c-1.437,0-2.874-1.437-5.748,1.44l-18.69,17.25c-2.877,2.877-2.877,4.314-1.44,5.751v1.44l-10.062-11.502c1.437,0,4.311,1.44,5.751,0l10.062-10.065-7.188-7.188ZM2415.648,1622.911l4.314,4.314,5.751-12.939s-4.314,1.437-11.502,5.751l1.437,2.874-1.44,1.44-2.874-2.88c-1.437,1.44-2.874,1.44-4.311,2.88-4.314,2.874-2.877,4.311-1.44,5.748v1.44l-7.188-7.191h1.44l5.748-1.437,28.755-15.816,1.44,1.44s-1.44,1.437-14.379,30.192c0,2.874-1.44,4.311,0,7.188l-11.502-10.065,1.44-1.44c1.437,2.88,4.311,2.88,5.748,0,0-1.434,1.44-4.311,1.44-5.748l-4.314-4.314,1.437-1.437ZM2427.15,1651.666l1.44-1.44c1.434,1.44,2.874,1.44,5.748,0l18.69-24.438-1.437-1.44c-2.874-1.437-7.188-1.437-11.502,2.877v-1.44l5.751-7.185,21.567,15.813-7.191,8.628h-1.437c4.314-4.314,2.877-10.065,0-11.502v-1.44l-18.69,24.441c-2.874,1.44-1.44,4.314,0,5.751h-1.44l-11.499-8.625h0Z"/>
          <path class="cls-20" d="M2464.53,1657.417l-7.188,10.065c-1.44,2.874,0,4.311,1.437,5.751l-1.44,1.437-11.499-8.628v-1.437c2.874,1.44,4.314,1.44,5.751-1.44l15.813-21.564c1.44-2.874,0-4.311-1.437-5.751l1.44-1.437,11.499,8.628v1.437c-2.874-1.44-4.311-1.44-5.751,1.44l-7.188,10.062,8.628,5.751,7.188-10.065c1.44-2.874,0-4.314-1.44-5.751l1.44-1.44,11.502,8.628v1.44c-1.44-1.44-4.314-1.44-5.751,1.437l-14.379,23.004c-2.874,1.437-1.437,2.874,0,4.311v1.44l-12.939-8.628h1.44c1.437,0,2.874,0,4.311-1.44l7.188-11.499-8.625-5.751h0ZM2493.285,1697.671l1.44-1.44c1.434,1.44,4.311,1.44,5.748-1.434l11.502-24.441c1.44-2.877,0-4.314-1.44-5.751l24.444,11.499-5.751,11.502-1.44-1.437c4.314-5.751,0-11.502-1.437-12.939-1.437,0-2.874-1.44-4.311-1.44s-1.44,0-2.877,2.88c-1.437,1.434-5.751,10.062-5.751,10.062,1.44,1.44,4.314,4.314,10.065-2.877h1.44l-8.628,17.253-1.44-1.437c4.314-8.625-1.437-10.065-2.874-10.065l-5.751,11.502c-1.44,2.877,0,4.314,1.44,4.314v1.44l-14.379-7.191ZM2534.976,1717.801c-4.314-2.874-4.314-11.502,0-20.13,2.874-8.625,8.625-15.81,14.376-12.936,4.314,1.437,2.877,10.062,0,18.69-4.311,10.062-10.062,15.813-14.376,14.376h-1.44c10.065,4.314,17.256-1.44,21.57-11.502,4.311-8.625,2.874-18.69-5.754-23.004-8.625-4.311-17.25,1.44-21.564,11.502-4.314,10.065-2.877,20.13,5.751,23.004h1.437ZM2579.547,1720.675l5.751-17.25c1.44-2.88,0-4.317-1.44-5.754l7.191,1.44v1.437c-1.44,0-2.877,0-4.314,2.874l-5.751,17.253c-2.874,7.188-7.188,12.939-15.813,10.065-5.751-1.44-10.065-8.628-7.191-15.816l7.191-18.69c1.437-2.874,0-4.314-1.44-5.751v-1.44l12.942,5.754v1.437c-1.44-1.44-4.314-1.44-4.314,1.44l-7.188,18.69c-1.44,5.748-1.44,11.499,2.874,12.936,4.314,1.44,8.628-1.437,11.502-8.625h0Z"/>
          <path class="cls-20" d="M2592.486,1701.985q0-1.44-1.44-1.44l10.065,1.44,8.628,27.315,4.314-17.25c1.437-2.877,0-4.314-1.44-5.751l8.628,1.437-1.44,1.44c-1.437,0-2.874,0-4.311,2.874l-7.188,31.629h-1.44l-11.502-34.506-7.188,23.004c0,4.314,1.44,4.314,2.877,5.751v1.44l-8.628-2.88v-1.437c1.44,1.44,4.314,0,4.314-2.874l7.188-25.878-1.437-4.314h0Z"/>
          <path class="cls-20" d="M2641.368,1730.74c-2.874,12.939-8.625,15.816-11.502,15.816h-2.874s-1.44-1.44,0-2.877l4.311-28.755c1.44-1.437,1.44-2.874,2.877-1.437h2.874c2.877,0,5.751,5.751,4.314,17.253l4.314,1.44c2.874-14.379-2.877-20.13-10.065-21.57-5.751-1.437-14.376-2.874-14.376-2.874v1.44c1.437,1.437,4.311,1.437,2.874,5.748l-4.314,25.881c-1.437,2.874-2.874,4.311-4.311,4.311h-1.44l14.379,2.877c7.188,1.44,14.376,0,17.25-15.816l-4.311-1.437h0ZM2654.307,1719.238c0-2.874-2.874-4.314-4.314-4.314v-1.437l25.881,2.877-1.44,11.499c0-7.188-4.311-10.062-7.188-10.062-1.44-1.44-2.874-1.44-4.314-1.44s-1.437,0-1.437,4.314c0,1.44-1.44,11.502-1.44,11.502,1.44,0,5.754,1.44,8.628-7.188l-1.437,18.69h-1.44c0-8.625-4.311-8.625-5.748-8.625l-1.44,12.939q0,2.874,1.44,2.874l2.874,1.44c4.314,0,8.628-1.44,11.502-10.065h1.44l-2.877,11.502-27.315-2.877c2.874,0,4.311-1.44,5.751-4.314l2.874-27.315h0ZM2701.752,1736.491c0,12.939-4.314,17.25-8.625,17.25q-1.44-1.434-2.877-1.434l-1.44-1.44,1.44-30.192q0-1.437,1.44-1.437h2.874c2.874,0,7.188,4.314,7.188,17.253h5.751c0-14.376-7.188-18.69-14.376-18.69-5.751-1.44-14.379-1.44-14.379-1.44v1.44c1.44,0,4.314,1.44,4.314,4.314l-1.44,27.315c0,2.877-1.437,4.314-2.874,4.314v1.44h12.939c7.191,0,14.379-2.88,15.816-18.693h-5.751,0ZM2743.446,1747.993c0,2.874,1.44,2.874,4.314,2.874v1.44l-15.816,1.437c1.44-1.44,4.314-2.877,4.314-5.751l-2.877-27.315c-1.437-2.877-2.874-2.877-5.751-2.877v-1.44l15.816-1.434c-1.44,1.437-4.314,2.874-2.874,5.751l2.874,27.315ZM2757.822,1750.867v-1.44c1.44,0,2.874-1.434,2.874-4.311l-5.748-30.192h-1.44c-2.874,1.44-5.751,4.314-4.311,10.065h-1.44l-1.437-10.065,25.878-4.314,1.44,10.065h-1.44c0-5.751-4.311-7.188-8.625-7.188h-1.44l5.754,30.192c0,2.874,1.437,4.314,4.311,4.314v1.437l-14.376,1.437h0ZM2819.643,1722.112l-5.751-17.25c0-2.88-2.874-2.88-4.314-2.88v-1.437l7.191-2.874v1.44q-1.44,1.434-1.44,4.311l5.751,18.69c1.44,5.751,1.44,14.376-7.188,17.25-5.751,1.44-12.939-1.434-14.376-10.062l-5.751-18.69c-1.44-2.874-2.877-2.874-4.314-2.874l-1.44-1.44,14.379-4.311v1.437c-1.44,1.44-2.874,2.874-1.44,5.751l4.317,18.69c1.437,5.751,5.751,8.625,10.062,8.625,4.314-1.437,5.751-7.188,4.314-14.376h0ZM2835.459,1712.05c7.188-2.874,5.751-7.188,4.314-11.502-1.44-4.314-4.314-7.188-7.188-5.751-1.44,0-2.877,1.44-1.44,2.877l4.314,14.376,1.44,1.44,2.874,11.499c1.437,2.877,4.311,2.877,5.751,1.44v1.437l-12.939,5.751-1.44-1.44c2.877-1.437,2.877-2.874,2.877-5.751l-10.065-24.441c-1.44-4.311-2.874-2.874-5.751-2.874v-1.44l14.379-5.748c5.748-1.44,11.499,0,14.376,5.751,1.44,7.188-1.44,11.502-7.188,14.376-1.44,0-2.877,1.44-2.877,1.44l-1.437-1.44h0ZM2871.402,1716.361c-4.314,1.44-10.065-4.314-14.376-14.376-4.314-8.628-4.314-17.253,0-18.69,4.311-1.44,10.062,4.311,14.376,12.939s4.314,17.25,0,20.127c8.625-2.874,11.502-12.939,7.188-23.004-4.314-8.625-12.939-14.376-21.564-11.502-8.628,4.314-11.502,14.379-7.191,23.004,4.314,10.065,12.942,15.816,21.567,11.502h0ZM2872.839,1676.107h-2.874l8.625-5.751,25.878,14.376-8.625-15.813c-1.44-2.877-4.314-2.877-5.751-2.877v-1.437l7.188-2.874c-1.44,1.437-2.874,2.874,0,5.751l14.376,28.752-1.437,1.44-31.629-17.253,11.502,21.564c1.437,2.877,4.314,2.877,5.751,1.44v1.437l-7.188,4.311v-1.437c1.437-1.44,1.437-2.874,0-5.751l-11.502-23.004-4.314-2.874h0ZM2937.534,1680.421v-1.44c0-1.434,1.44-2.874,0-5.748l-17.25-24.441h-1.44c-2.877,1.44-4.314,7.188,0,11.502l-1.44,1.437-5.748-10.065,21.564-14.376,5.751,8.625c-4.311-4.311-8.625-4.311-11.502-2.874l-1.437,1.44,17.25,24.438c1.44,2.877,4.317,2.877,5.754,1.44v1.437l-11.502,8.625h0ZM2953.35,1645.915l8.625,10.065c1.44,1.437,4.314,1.437,5.751,0v1.437l-11.502,10.065v-1.44c1.44-1.437,1.44-2.874,0-5.751l-17.25-21.564c-1.44-2.877-2.877-1.44-5.751-1.44l11.502-10.062v1.44c0,1.434-1.44,2.874,0,5.748l7.188,8.628,8.625-5.751-7.188-10.065c-1.44-2.877-4.314-1.44-5.751-1.44l11.502-10.062v1.44c-1.44,1.437-1.44,2.874,0,5.748l17.25,21.567c1.44,1.437,2.88,1.437,4.314,0l1.44,1.437-11.502,10.065-1.44-1.44c1.44-1.437,2.88-2.874,1.44-5.751l-8.628-10.062-8.625,7.188ZM2966.289,1615.723c-1.44-1.44-4.314-1.44-5.751,0v-1.44l18.69-17.25,8.628,8.625h-1.44c-4.311-5.751-10.062-2.874-12.939-1.437,0,1.44-1.44,1.44-2.874,2.877,0,0,0,1.437,1.437,4.311l8.625,8.628c1.44-1.44,5.751-4.314,0-11.502h1.44l11.499,12.939v1.44c-7.188-7.191-10.062-2.88-11.499-1.44l8.625,8.625c1.44,2.877,2.874,2.877,2.874,2.877l4.314-4.314c1.44-1.44,2.877-5.751,0-14.376h1.44l5.748,10.062-18.69,18.69-1.437-1.437c1.44-1.437,2.877-2.874,0-5.751l-18.69-20.127h0ZM3000.78,1575.466c-1.44,1.44-1.44,4.314,1.44,5.751,2.874,2.874,5.748,2.874,11.499,0,2.877-1.44,8.628-2.877,12.939,1.44,7.188,7.185,4.314,12.936,2.877,15.81-1.44,1.44-4.314,2.88-5.751,4.314q-1.44,0-1.44,1.44v1.437l-10.062-8.625h1.44c5.748,2.874,11.499,4.311,14.373,0,2.877-2.877,0-5.751-1.437-7.191-2.874-2.874-5.751-2.874-10.062,0-4.314,1.44-10.065,1.44-14.379-1.437-5.751-5.751-5.751-10.065-2.874-14.376,1.437-1.44,4.314-2.877,5.751-4.314q1.437,0,0-2.874l10.062,7.188h-1.437c-7.188-2.877-11.502-1.44-12.939,1.437h0ZM3013.74,1563.964c-2.874-1.44-4.314,0-5.751,1.44h-1.44l15.819-23.007,10.062,7.191-1.44,1.437c-5.748-4.314-11.499-1.44-12.936,0,0,1.44-1.44,2.874-1.44,4.314-1.437,0-1.437,1.437,1.44,2.874,1.437,1.44,10.062,7.188,10.062,7.188,1.44-1.437,4.314-4.311-1.437-10.062v-1.44l14.376,11.502c-8.625-4.311-10.062,0-11.499,1.44l10.062,7.188c2.877,1.437,4.314,1.437,4.314,1.437,0-1.44,1.44-2.877,2.874-4.314,1.44-2.874,2.877-7.188-2.874-12.939l1.44-1.44,7.185,8.628-14.376,21.567h-1.44c1.44-2.877,1.44-4.314-1.434-7.188l-21.567-15.816h0ZM3052.56,1538.086l-4.314,7.188c-5.751-5.751-8.625-10.062-8.625-10.062l12.939,2.874h2.877c1.437,0,4.311,1.44,5.748,1.44,4.314,1.434,2.877,2.874,1.44,5.748h1.437l7.188-12.939c-2.874,2.877-4.314,1.44-7.188,1.44-30.192-5.754-33.069-7.191-33.069-7.191v1.44l23.004,25.878c1.44,1.437,1.44,4.311,1.44,5.751h1.437l4.311-7.191-1.437-1.437c-1.44,2.877-2.874,4.314-5.751,0l-2.874-2.874,4.311-10.065h-2.874ZM3043.92,1506.457c-1.44,1.44-1.44,4.314,2.877,5.751,4.311,1.44,5.748,0,10.062-2.877,4.314-2.874,8.625-5.748,14.376-2.874,8.628,4.314,7.191,11.502,5.751,14.376-1.437,1.44-2.874,4.314-4.311,5.751v2.877l-11.502-5.751c7.188,1.44,12.939,0,14.376-4.314,1.44-2.874-1.44-5.751-2.874-7.188-2.877-1.44-5.751,0-10.065,2.874-4.314,4.314-8.625,5.751-14.376,2.877-5.751-2.877-8.628-7.188-5.751-11.502,0-2.874,2.874-4.314,4.314-5.751q0-1.44-1.44-2.874v-1.44l11.502,5.751h-1.44c-7.185-1.437-11.499,1.44-11.499,4.314h0Z"/>
        </g>
        <g id="e-2" data-name="e">
          <path class="cls-12" d="M2589.609,997.51c-18.69,4.314-31.629,5.751-48.882-10.065-11.502-11.502-8.625-31.629,2.874-38.82,12.942-8.622,24.441-14.373,40.26-10.062,15.81,4.314,57.504,43.131,47.442,44.571-10.065,0-25.878,10.062-41.694,14.376ZM2634.18,928.498c5.751-4.314,12.939-7.188,31.629-8.625,17.253-1.44,30.192-1.44,34.506,11.499,5.751,15.816,10.062,34.506,21.564,43.134-7.188,4.311-43.131,8.625-56.07,1.437-17.25-8.628-21.564-41.694-31.629-47.445ZM2757.822,929.938c5.751-4.314,12.939-4.314,31.629-2.874,18.69,1.437,25.878,2.874,30.192,15.813,4.314,14.376,0,33.069,8.628,46.008-8.628,2.874-37.38,2.874-47.445-7.191-15.816-11.499-14.379-44.568-23.004-51.756Z"/>
          <path class="cls-13" d="M2844.084,938.563c-12.939-2.874-21.567-4.314-27.315,0,7.188,8.625,1.437,43.131,15.813,54.63,10.065,7.191,35.943,8.628,41.694-7.185,7.188-14.379,7.188-35.943-30.192-47.445ZM2696.001,924.187c4.314-4.314,12.939-5.751,30.192-5.751,18.69,0,30.192,2.877,35.94,14.376,5.754,14.379,4.317,33.069,14.379,44.571-4.314,5.751-43.131,5.751-54.63-2.877-15.816-10.062-17.256-43.131-25.881-50.319h0ZM2573.796,937.126c0-7.188,10.065-8.625,35.94-10.065,25.881-2.874,27.318-1.437,35.946,17.253,4.314,10.065,10.062,27.318,21.564,33.069-31.629,7.188-41.691,11.499-58.944,1.437-12.939-7.188-27.318-24.441-30.192-31.629-1.44-4.314-1.44-8.628-4.314-10.065h0Z"/>
        </g>
        <g>
          <g id="g-2" data-name="g">
            <path class="cls-19" d="M2642.805,790.48c-30.192-23.004-66.135-44.568-99.201-48.882,21.564,12.939,81.948,60.384,97.764,76.2"/>
            <path class="cls-19" d="M2660.058,768.913c-35.94-24.441-77.637-51.759-117.891-54.63,30.192,15.81,74.76,53.19,99.201,83.385M2706.063,728.659c20.13-44.568,41.694-69.009,70.449-96.327-14.379,30.192-30.195,92.013-37.38,116.454"/>
            <path class="cls-19" d="M2737.695,721.471c14.376-31.629,35.94-58.947,73.323-76.2-18.69,18.69-47.445,74.76-54.633,104.955"/>
            <path class="cls-19" d="M2750.634,750.223c17.25-24.441,51.759-70.449,113.58-94.89-35.943,35.943-89.139,102.078-102.078,127.956M2770.761,781.852c25.878-14.376,77.637-37.38,115.017-30.192-23.004,8.628-92.013,40.257-122.205,69.009"/>
            <path class="cls-19" d="M2765.01,771.79c24.441-25.878,69.009-64.698,116.454-80.511-34.506,33.066-107.829,107.826-117.891,119.328M2696.001,755.974c-17.25-53.196-43.131-103.515-81.948-119.328,21.564,31.629,48.882,77.634,63.258,146.643M2662.932,754.537c-28.755-34.506-67.572-69.009-112.14-76.2,30.189,17.253,80.511,67.575,99.201,116.457"/>
            <path class="cls-19" d="M2678.748,753.1c-35.94-64.698-63.258-76.2-79.074-89.139,12.939,24.441,44.568,89.139,63.261,116.457"/>
            <path class="cls-17" d="M2606.862,748.786c17.25,10.065,43.131,34.506,51.759,50.319"/>
            <path class="cls-19" d="M2606.862,778.978c8.625,7.188,24.441,15.816,38.82,28.755M2777.949,800.542c14.376-11.502,46.005-30.192,61.821-35.94M2767.887,790.48c14.376-18.69,43.131-44.568,53.196-53.196M2808.141,701.341c-12.939,14.376-43.131,50.319-54.63,67.572M2770.761,688.402c-10.065,12.939-30.192,50.319-35.94,63.258M2657.181,691.279c8.625,23.004,24.441,61.821,30.192,77.637M2644.242,715.72c5.751,8.625,17.25,28.755,21.567,43.131"/>
          </g>
          <g id="h-2" data-name="h">
            <path class="cls-19" d="M2693.124,708.529c0-12.939,8.625-27.315,17.25-27.315,10.065,0,17.256,17.25,17.256,27.315,0,11.502-8.628,21.567-17.253,21.567s-17.253-8.628-17.253-21.567h0Z"/>
            <path class="cls-19" d="M2674.434,720.031c1.44-14.376,11.502-25.878,20.13-24.441,8.625,1.44,12.936,18.69,11.499,28.755-1.44,11.502-11.502,20.127-18.69,18.69-7.188,0-14.376-10.065-12.939-23.004h0ZM2713.254,724.345c-2.874-12.939,2.874-27.315,11.502-28.755,8.625-1.437,17.25,12.939,18.69,24.441,2.874,11.502-4.314,23.004-11.502,23.004-7.188,1.44-17.25-5.751-18.69-18.69Z"/>
            <path class="cls-19" d="M2691.687,735.847c0-14.376,8.625-27.315,17.25-27.315,10.065,0,17.256,15.813,17.256,27.315s-8.628,21.567-17.253,21.567-17.253-8.628-17.253-21.567h0Z"/>
            <path class="cls-19" d="M2665.809,743.035c0-12.939,10.065-27.315,18.69-27.315s17.25,17.25,17.25,27.315c0,11.502-10.062,21.567-17.25,21.567-8.625,0-18.69-8.628-18.69-21.567ZM2719.005,737.284c0-12.939,8.625-27.315,17.25-27.315,10.065,0,17.256,17.25,17.256,27.315,0,11.502-8.628,21.567-17.253,21.567s-17.253-8.628-17.253-21.567h0Z"/>
            <path class="cls-19" d="M2713.254,748.786c0-14.376,10.065-27.315,18.69-27.315s17.25,15.813,17.25,27.315-8.625,21.567-17.25,21.567-18.69-8.628-18.69-21.567Z"/>
            <path class="cls-19" d="M2690.25,761.725c0-14.376,8.625-27.315,17.25-27.315,10.065,0,17.256,17.25,17.256,27.315,0,11.502-8.628,21.567-17.253,21.567s-17.253-8.628-17.253-21.567h0ZM2654.307,761.725c0-14.376,7.188-27.315,14.376-27.315s12.939,17.25,12.939,27.315c0,11.502-7.188,21.567-12.939,21.567-7.188,0-14.376-8.628-14.376-21.567ZM2734.818,758.851c0-12.939,7.188-25.878,14.376-25.878s14.379,15.813,14.379,25.878c0,12.939-8.628,21.567-14.379,21.567-7.188,0-14.376-8.628-14.376-21.567Z"/>
            <path class="cls-19" d="M2743.446,783.292c2.874-14.376,11.502-25.878,17.25-24.441,5.754,1.44,7.191,18.69,4.317,28.755-1.44,12.939-10.065,20.127-15.816,18.69-5.751-1.44-8.625-11.502-5.751-23.004h0Z"/>
            <path class="cls-19" d="M2716.128,778.978c1.44-12.939,10.065-25.878,17.25-24.441,8.628,0,12.942,17.25,11.505,27.315-1.44,12.942-8.628,21.567-15.816,20.13-7.188,0-14.376-10.065-12.939-23.004h0ZM2675.874,783.292c-4.314-14.376-12.939-24.441-18.69-23.004-5.751,1.44-7.188,18.69-4.314,28.755,2.877,11.502,11.502,18.69,17.253,17.25,4.314-1.434,8.625-11.499,5.751-23.001Z"/>
            <path class="cls-19" d="M2665.809,780.415c0-12.939,7.188-25.878,14.376-25.878,8.628,0,14.379,15.813,14.379,25.878,0,12.939-7.188,21.567-14.379,21.567-5.751,0-14.376-8.628-14.376-21.567Z"/>
            <path class="cls-19" d="M2687.373,786.166c0-14.376,8.625-27.315,17.25-27.315,10.065,0,17.256,15.813,17.256,27.315s-8.628,21.567-17.253,21.567-17.253-8.628-17.253-21.567h0ZM2694.564,628.018c-2.874,11.502-12.939,21.567-5.751,37.38-12.939-4.314-24.441-5.751-34.506,5.751,12.942-1.44,24.441,2.877,30.192,11.502-11.502-1.44-17.25,4.314-20.127,11.502,10.065-2.877,20.13-5.751,24.441-4.314-4.314,4.314-11.502,11.502-12.939,17.25,8.625-7.185,18.69-5.748,24.441-10.062-4.314,10.065,4.314,20.13,11.502,30.192-1.44-14.376,7.188-24.441,2.874-31.629,12.939,2.877,14.379,14.376,33.069,14.376-7.188-4.311-11.502-18.69-20.13-18.69,4.314-1.437,21.567-2.874,24.441,0-2.874-5.751-12.939-11.502-18.69-11.502,5.751-5.748,15.816-17.25,23.004-20.127-10.065,1.44-25.878,2.877-31.629,11.502,14.376-11.502,11.502-33.066,27.315-35.94-8.625-1.44-21.564,4.311-31.629,14.376,4.314-8.628,4.314-20.13,10.065-23.004-11.502,2.874-24.441,17.25-28.755,24.441,0-7.188-4.314-18.69-7.188-23.004h0Z"/>
            <path class="cls-19" d="M2701.752,651.022c0,4.314,0,12.939-1.44,15.816M2720.442,649.585c-2.874,2.874-8.625,12.939-8.625,21.567"/>
            <path class="cls-17" d="M2729.067,666.838c-4.314,2.874-8.625,7.188-10.065,12.939"/>
          </g>
        </g>
        <g id="f-2" data-name="f">
          <path class="cls-2" d="M2576.67,809.17c-10.065,0-18.69-4.314-24.441-11.502-10.065-12.939-37.38-18.69-48.882-7.188-4.314,2.874-10.065,2.874-14.376,4.314-7.191,0-15.816,7.188-12.939,21.564,5.748-4.314,7.188,0,11.499,0,2.877-1.44,1.44,1.44,1.44,4.314,0,7.188,15.813,21.564,30.192,20.13,15.813,0,23.001,5.748,25.878,8.625,4.311,4.311,1.437,2.874,4.311,10.062,4.314,4.314,5.751,5.751-1.437,11.502-10.062,8.628-17.25,28.755,0,44.568,18.69,14.379,66.135,35.943,119.331-5.751,51.756-40.254,132.27-17.25,138.018-2.874,7.191,14.376,10.065,23.004,11.502,30.192,1.44,5.751,8.628,11.502,18.69,10.065,10.065,0,21.567,4.311,27.318,8.625,7.188,4.314,17.25,2.877,14.376-10.065-5.751-40.254-30.192-46.005-33.066-64.695,14.376,1.437,24.441,1.437,30.192-4.314,4.311-5.751,10.062-15.813,15.813-18.69,4.314-2.874,4.314-5.751-1.437-4.314-7.188,1.44-11.502,4.314-24.441,2.877-66.135-7.188-251.598-57.51-287.541-47.445h0Z"/>
          <path class="cls-11" d="M2869.962,858.052c-7.188,4.314-14.376,11.502-27.315,28.755-14.379,18.69-57.51,37.38-110.706,37.38-51.756,0-83.385-8.628-106.389-27.318-12.939-10.062-23.004-15.813-31.629-20.127-15.816-7.188-18.69-23.004-14.379-35.94-4.311,7.185-7.188,14.373-15.813,12.936-5.751,0-17.25,0-14.376,5.751-1.44-2.874-1.44-7.188-2.877-8.625l-2.874-2.877c4.311,2.877,14.376-5.751,21.564-5.751,5.751,1.44,12.939-5.751,11.502-14.376-1.44-7.188-2.874-12.939-4.314-18.69,11.502-5.751,162.462,21.564,192.654,24.441,30.192,1.44,116.454,14.376,104.952,24.441h0Z"/>
          <path class="cls-2" d="M2596.8,803.419c14.376-14.376,31.629-21.567,48.882-17.25h4.314c8.625-7.191,28.752-8.628,40.254-2.88h5.751c17.253-5.748,50.319,0,61.821,11.505l4.314,2.874c38.82-2.874,61.821,14.376,89.139,41.694,2.874,2.874,7.188,8.625,14.376,10.065,8.625,1.437,10.065,5.748,2.874,10.062-8.625,4.314-15.813,11.502-30.189,27.318-12.942,17.25-54.633,34.503-106.392,34.503-50.319,0-80.511-8.625-103.515-25.878-12.939-10.065-23.004-15.816-30.192-20.13-8.625-2.874-20.127-14.376-15.813-25.878,2.874-11.499-4.314-25.878-10.065-40.254,4.314-2.877,15.816-7.188,21.567-4.314l2.874-1.44v.003Z"/>
          <g>
            <path class="cls-10" d="M2851.272,839.362c-27.315-27.315-50.319-44.568-89.139-41.694,0,1.44,0,5.751-1.437,8.628,23.004,8.625,56.07,34.503,70.449,53.193,5.751-5.751,15.813-12.939,20.127-20.127h0ZM2757.822,794.794c-11.502-11.502-44.568-17.25-61.821-11.502,0,5.751,0,14.376-2.877,20.13,10.065,4.311,18.69,14.376,27.318,24.438,5.751-1.437,20.13-5.751,27.315-7.188,2.877-5.751,8.628-18.69,10.065-25.878ZM2690.25,783.292c-11.502-5.751-31.629-4.314-40.257,2.874-2.874,5.751-4.311,17.253-4.311,23.004,5.751,0,14.376,4.314,17.25,7.188,8.628-2.874,20.13-8.625,24.444-12.939,1.437-5.751,4.311-14.376,2.874-20.127h0ZM2596.8,803.419c14.376-14.376,31.629-21.567,48.882-17.25-2.874,4.311-4.314,12.936-4.314,21.564-15.813-1.44-35.94,2.874-44.568,8.625v-12.939Z"/>
            <path class="cls-10" d="M2825.394,862.366c-12.939-18.69-44.568-40.257-66.135-50.319,0,1.437-2.874,7.188-4.314,11.502,8.628,12.939,25.881,41.691,33.069,57.51,7.188-2.88,27.315-11.505,37.38-18.693h0ZM2716.128,893.995c2.874-20.13,4.314-48.882,4.314-58.947,7.188-1.437,21.564-5.751,27.315-7.188,7.188,11.502,24.441,41.694,31.629,56.07-17.25,4.314-46.005,11.502-63.258,10.065ZM2665.809,824.983c7.188-2.874,17.25-8.625,24.441-14.376,5.751,4.311,17.25,14.376,21.567,20.127,0,12.939-4.314,50.319-5.751,63.258-11.502,0-30.192-2.874-40.257-8.625,1.44-21.567,2.874-46.008,0-60.384ZM2593.923,842.236c1.44-2.874,2.874-12.939,2.874-17.25,11.502-7.191,40.26-14.379,61.824-2.88,1.437,14.379,0,50.322-1.44,58.95-18.69-14.379-48.882-34.506-63.258-38.82h0Z"/>
          </g>
          <g>
            <path class="cls-21" d="M2522.037,816.358c-2.874,0-4.314-8.625-10.065-8.625-1.437,0-5.751,1.437-7.188,0,0,2.874,1.44,5.751,2.877,7.188,1.437,4.311,8.625,1.437,14.376,1.437Z"/>
            <path class="cls-18" d="M2522.037,840.799c17.25,0,20.13-21.567,28.755-23.004M2532.102,842.236c12.939,5.751,23.004-24.441,33.066-23.004M2506.224,804.856c4.314,0,7.188-5.751,14.376,1.44,2.877,2.874,7.191,4.311,10.065,4.311M2527.788,826.423c-5.751,8.625-15.816,14.376-21.567,11.502M2503.347,790.48c-4.314,2.874-7.188,8.625-10.065,12.939M2488.971,812.044v7.188"/>
          </g>
        </g>
        <g>
          <path id="b-2" data-name="b" class="cls-23" d="M2969.166,998.947v280.35c0,242.976-115.017,326.361-268.851,392.496-153.834-66.135-270.288-149.52-270.288-392.493v-280.353h539.139Z"/>
          <path class="cls-27" d="M2700.315,1236.169c12.939,0,33.066-11.502,50.319-28.755,18.69-20.127,50.319-27.315,83.388,0,33.066,27.318,53.196,15.816,70.449,0,17.25-15.813,31.629-21.564,64.695-21.564v-186.9h-539.136v186.9c33.066,0,47.445,5.751,64.698,21.564,17.25,15.816,37.38,27.318,70.446,0,34.506-27.315,64.698-20.127,84.825,0,15.816,17.253,35.94,28.755,50.319,28.755h-.003Z"/>
          <path class="cls-31" d="M2700.315,1379.938c17.25,0,51.759-18.69,60.384-23.004,31.629-18.69,54.63-1.437,73.32,7.188,20.13,8.628,57.51,18.69,80.514,0,23.004-18.69,35.943-17.25,51.759-17.25,2.874-21.567,2.874-43.134,2.874-67.575v-17.25c-20.13-4.314-30.192,1.437-51.756,20.127-21.567,18.69-46.008,14.376-77.64,2.874-30.189-12.939-60.381-35.94-90.57,0-8.628,10.065-28.758,24.441-48.885,24.441-21.564,0-40.257-14.376-48.882-24.441-31.629-35.94-60.384-12.939-90.576,0-31.629,11.502-57.51,15.816-79.074-2.874-20.127-18.69-30.192-24.441-51.756-20.13v17.253c0,24.441,1.44,46.008,4.314,67.575,15.813,0,27.315-1.44,50.319,17.25,23.004,18.69,61.821,8.628,80.511,0,20.13-8.625,43.131-25.878,74.76-7.188,8.628,4.314,41.694,23.004,60.384,23.004h0ZM2700.315,1441.759c21.567,0,47.445-8.625,70.449-21.567,28.752-15.813,48.882-8.625,77.634,5.751,30.192,14.379,54.633,10.065,71.886,0,8.625-5.751,15.816-17.25,34.506-12.939-8.628,35.943-21.567,67.572-37.38,93.45-28.755,7.191-44.571,7.191-74.76-5.748-30.195-14.379-67.575-23.004-87.702-10.065-18.69,11.502-38.82,17.25-54.633,17.25s-35.943-5.748-54.633-17.25c-20.13-12.939-57.51-4.314-87.699,10.065-30.192,12.939-46.008,12.939-74.76,5.751-15.816-25.881-28.755-57.51-37.38-93.45,18.69-4.314,25.878,7.185,34.5,12.936,15.816,10.065,41.697,14.379,70.449,0,30.192-14.376,50.322-21.564,79.074-5.751,23.004,12.942,48.882,21.567,70.449,21.567h0ZM2700.315,1671.793c57.51-24.441,110.703-51.759,153.834-89.139-11.502-4.311-18.69-1.437-28.755-8.625-10.062-7.188-40.254-10.065-66.132,4.314-27.318,12.939-38.82,15.813-58.947,15.813s-31.629-2.874-58.947-15.813c-25.878-14.379-56.07-11.502-66.132-4.314-10.065,7.188-17.253,4.314-28.755,8.625,43.131,37.38,94.89,64.698,153.834,89.139Z"/>
          <g>
            <path class="cls-15" d="M2662.932,1069.396c1.44,2.874-1.44,10.065,0,12.939,2.874,5.751,2.874,8.628,7.188,11.502h10.065c31.629,0,69.009-12.939,100.638-12.939,30.192,0,48.882,10.065,66.135,10.065,10.065,0,18.69-7.191,18.69-14.379s-11.502-11.502-35.94-11.502c-34.506,0-53.196,8.628-81.951,8.628-43.131,0-50.319-15.816-50.319-23.004s7.188-17.25,30.192-17.25c7.188,0,12.939-1.44,15.813-4.317,1.44-2.874,5.751-8.625,14.379-12.939,10.062-5.751,30.192,0,40.254-7.188,0,5.751-8.625,14.376-15.813,17.25,14.376-4.311,30.192-4.311,33.066,7.191-7.188-4.314-18.69-1.44-23.004,0-5.751,1.44-8.625,2.877-14.376,4.314,5.751-1.44,8.625,10.062,17.25,10.062-8.625,7.191-23.001,7.191-37.38,1.44-4.311-1.44-15.81-5.751-23.001-5.751-14.376,0-23.004,2.874-23.004,8.625,0,7.188,8.628,11.502,34.506,11.502s40.254-7.188,79.074-7.188c-2.877-4.314,1.437-8.628-4.314-12.939,14.376,0,30.192,4.311,35.94,14.376-1.434-10.065,7.191-18.69,4.317-27.315,8.625,1.437,15.813,10.062,17.25,17.25,0-4.311,5.751-4.311,5.751-8.625,8.628,4.314,12.939,14.376,11.502,23.004,4.314-7.188,8.628-4.314,11.502-12.939,2.877,5.751,1.44,23.001-8.625,28.752,8.625-5.751,21.564-5.751,30.192,4.314-8.628-1.44-12.939,2.877-17.253,4.314-17.253,10.062-46.008,15.813-67.572,14.376-23.004-1.44-25.881-5.751-40.257-5.751,8.628,1.44,25.878,18.69,41.694,18.69,10.065,0,17.25,0,21.564-1.437,4.314-1.44,11.502,0,17.253,2.877,4.314,4.311,12.939,8.625,18.69,7.188-1.437,5.751-4.311,8.625-8.625,10.062,7.188,4.314,2.874,7.191,10.065,12.939-2.877,0-5.751,2.877-10.065,1.44,4.314,4.311,4.314,10.062,8.625,12.939-1.437,0-5.751,1.44-8.625,0,4.314,5.751,0,12.939,4.314,15.813,4.311,5.751-4.314,12.942-11.502,7.191,1.437,4.311-2.877,8.625-7.188,7.188-4.314-1.44-7.191-5.751-5.751-7.188q0-1.44,1.437-2.877c-2.877,4.314-8.628,4.314-11.502,2.877-1.44-1.44-2.877-2.877-2.877-4.314-10.062,2.874-14.376-5.751-12.939-10.065,1.44-4.311,10.065-5.751,12.939-4.311,2.877,1.437,5.751,2.874,8.628,0,2.874-1.44,4.314-4.314,4.314-7.191,0-4.311-4.314-17.25-23.004-15.813-21.567,1.437-56.07-4.314-73.323-10.065-1.44-1.44-2.877-1.44-4.314-2.874,0,5.751-5.751,8.625-5.751,14.376,0,7.188,2.877,12.939,11.502,15.816-4.314,7.188-11.502,5.751-14.376,1.437,0,4.314-5.751,7.188-5.751,12.939-1.44-2.877-2.877-4.314-4.314-7.188-4.314,10.062-15.813,15.813-21.564,12.939-7.191,5.751-15.816,4.314-18.69-1.44-4.314,2.88-10.065,2.88-12.942,0,0,4.314-2.874,2.88-4.311,8.628,0,2.877-5.751,4.314-8.628,2.877-2.874-1.44-4.311-7.191-1.437-10.065-4.314,2.874-8.625,2.874-11.502,0,0-2.877,0-7.188,2.877-8.628h2.874c-2.874-1.437-7.188,0-10.065-1.437-2.874-2.874-2.874-5.751-1.437-8.625,1.44-1.44,5.751-4.314,8.628-1.44l1.437,1.44c0-2.877,1.44-5.751,2.874-5.751,2.877-1.44,7.191-1.44,11.502,2.874,2.877,4.314,5.751,4.314,14.379,2.877,7.188,0,18.69-7.188,27.315-14.379-24.441-4.311-10.065-20.127-2.874-25.878-5.751-1.437-14.379-1.437-20.13,1.44-30.192,15.813-61.821,34.503-81.948,28.752,0,2.877,1.44,5.751,2.874,8.628-4.311,0-12.939,0-15.813-4.314-1.44,2.874-4.314,10.065-1.44,15.813-2.874-2.874-11.499-5.748-15.813-7.188,2.874,2.877,0,8.628,1.44,12.939-4.317-4.311-11.505-7.188-14.379-4.311s-8.628,4.311-12.939,2.874c-2.877,4.314-7.188,7.188-11.502,8.628,0-2.877,0-7.191-1.44-8.628-1.437,4.314-5.748,10.065-11.499,12.939,0-2.874,0-7.188-1.44-10.062,0,5.751-11.499,8.625-12.939,12.939,1.44-4.314,1.44-8.628,1.44-11.502-2.877,4.314-7.191,8.625-14.379,10.065,1.44-2.877,2.877-5.751,1.44-8.628-1.44,5.751-10.065,8.628-17.253,7.188,0,2.877-5.751,7.188-12.939,2.877-4.314-1.44-7.191-5.751-4.314-8.628-5.751,0-11.502-5.751-8.628-10.062,0-1.44,1.44-2.877,1.44-4.314-4.314-2.874-5.751-8.625-1.44-12.939,1.44-1.44,5.751-1.44,8.628-1.44,0-11.499,10.062-11.499,14.376-2.874,2.877,4.314,11.502,11.502,18.69,10.065,2.877,0,4.314-1.44,7.188-1.44,8.628-2.874,25.881-10.062,35.943-18.69,1.44-4.311,1.44-7.188,1.44-10.062-5.751,2.874-11.502,5.751-14.379,10.065v-4.314c-4.314,0-11.502-1.44-14.376-1.44,1.437-1.437,2.874-8.625,5.751-10.062-7.188,1.44-14.379,0-20.13-1.44,2.877-2.874,2.877-7.185,4.314-11.499-2.874,1.44-10.062-1.44-15.813,0,1.437-4.314,2.874-10.065,7.188-11.502-5.751,1.44-12.939,0-20.13-2.877,5.751,0,8.628-7.188,12.942-7.188-11.502,0-14.379-5.751-20.13-8.625,4.314,1.44,7.188-2.877,11.502-2.877-4.314-1.437-11.502-8.625-8.625-12.939-1.44,1.44-2.877,4.314-5.751,5.751-2.877,1.44-8.628,0-12.939-4.311-2.877-5.751-1.44-12.942,4.311-14.379-7.188-1.44-7.188-8.625-4.311-11.502,1.437-2.874,7.188-7.188,10.062-2.874,1.44,1.44,2.877,4.314,4.314,5.751-1.44-2.877-1.44-8.628-1.44-12.939,1.44-4.314,4.317-4.314,8.628-5.751,4.314,0,7.188,4.311,7.188,8.625s1.44,7.188,2.877,12.939c0-1.437,1.44-4.311,1.44-5.751,0-5.751,7.185-4.311,11.499-2.874,4.314,1.44,5.751,10.062,0,14.376-2.874,2.877-1.44,7.188,1.44,10.065,10.062,15.813,27.315,28.755,41.691,30.192,0-5.751,2.874-11.502,7.188-15.816,0-2.874,1.44-7.188,2.877-10.065,1.437-8.625,5.751-12.939,11.502-10.062-1.44-1.44-2.877-2.877-2.877-4.314-4.314-4.314-8.625-11.502-5.751-17.25s11.502-4.314,14.376-1.44c-1.437-8.625,8.628-15.816,8.628-20.13,1.44,4.314,4.314,10.065,2.874,14.379,1.44-5.751,11.502-12.939,18.69-15.813-2.874,4.311,5.751,11.499,4.314,15.813,2.877-7.188,14.376-11.502,23.004-11.502-2.877,2.877-2.877,8.628-2.877,11.502,4.314,0,11.502-1.44,14.379-5.751,0,5.751-2.877,11.502-5.751,14.379,1.44-1.44,7.188-1.44,11.502-1.44-4.314,4.314-2.877,8.628-7.188,11.502,5.751-2.874,12.939-2.874,14.376,2.877,2.874,4.311-1.44,11.502-4.314,15.813-2.874,1.44-5.751,4.314-7.188,4.314h0Z"/>
            <g>
              <path class="cls-18" d="M2573.796,1086.646c-10.065,4.314-12.939,14.376-14.376,20.13"/>
              <path class="cls-18" d="M2572.359,1096.711c-14.376,8.625-20.13,15.816-17.25,31.629M2579.547,1139.842c8.625-2.874,14.376-5.751,21.567-18.69"/>
              <path class="cls-18" d="M2596.8,1126.903c-2.874,5.751,0,15.816-4.314,20.13,7.188-4.314,12.939-10.065,14.379-20.13"/>
              <path class="cls-18" d="M2599.674,1142.716c5.751-2.874,14.376-11.502,18.69-21.567-1.44,4.314,0,11.502-2.874,15.816,7.188-7.188,10.062-11.502,11.499-18.69,0,1.44,1.44,4.314,1.44,5.751,2.874-2.877,5.751-5.751,5.751-11.502M2634.18,1116.838v7.188c5.751-4.314,7.188-10.062,7.188-17.25"/>
              <path class="cls-18" d="M2639.931,1115.401c8.625-5.751,10.065-14.376,10.065-27.315M2649.993,1102.462c5.751-4.314,7.188-7.188,7.188-20.13M2638.491,1043.515c-2.874,0-5.751,1.44-5.751,5.751,0,2.874-4.314,7.188-4.314,11.502-1.437,5.751-4.311,7.188-8.625,5.751q-4.314-2.877-4.314-7.188c0-5.751,7.188-7.191,7.188-12.942,1.44-2.874,2.877-7.188,4.314-7.188-7.188,4.314-17.25,1.44-18.69-7.188"/>
              <path class="cls-18" d="M2651.433,1047.829c-2.874,1.44-5.751-2.874-10.065-1.44-1.437,0-5.751,1.44-7.188,0"/>
              <path class="cls-18" d="M2631.303,1055.017c1.44,1.44,8.625,4.314,15.816,1.44-5.751,1.434-10.065-5.754-4.314-10.065M2618.364,1040.641c-5.751,0-10.065,4.314-8.625,8.625,1.437,4.314,7.188,4.314,11.499,1.44M2608.299,1112.527c1.44-1.44,2.874-4.314,2.874-5.751,2.877,0,5.751-1.44,7.191-2.874,5.751,0,10.062-4.314,11.502-8.628,2.874,0,4.311-7.188,5.748-10.062,1.44,1.437,4.314,0,5.751-5.751,2.877,1.437,7.191,0,8.628-4.314M2591.049,1065.082c0,1.44-2.874,4.314-5.751,5.751,1.44,2.874,0,10.065-2.874,11.502,1.437,2.874,0,7.188-1.44,10.062,0,1.44,1.44,5.751,1.44,7.191M2596.8,1036.327c-2.874,7.188-1.44,15.816,4.314,17.25"/>
              <path class="cls-18" d="M2599.674,1059.331c-1.44,7.188-1.44,17.25-2.874,21.567-1.44,2.874-4.314,12.939,7.188,15.813,12.939,2.877,20.127,1.44,27.315-20.13M2652.87,1132.654c0,1.44-1.44,4.314-4.314,4.314M2662.932,1129.777c0,2.874-2.874,7.188-4.314,8.625M2672.997,1126.903c0,2.874,0,7.188-2.874,8.625M2585.298,1037.764c1.44,0,2.874,2.874,4.314,5.751-4.314-2.877-8.628,4.314-5.751,8.625M2580.984,1062.205c-1.44,1.44-4.314,2.874-5.751,4.314M2576.67,1075.144c-1.44,0-2.874,1.44-4.314,1.44M2507.661,1049.266q0-1.44,1.44-2.874M2494.722,1044.952q-1.44,0-2.874-1.44M2496.159,1065.082h2.874M2490.408,1056.454c-2.874-2.874-7.188-4.314-8.625-4.314M2569.482,1109.65c-10.065,8.625-14.376,15.816-15.816,25.878M2579.547,1116.838c-2.874,5.751-7.188,10.065-11.502,12.939M2523.477,1159.969c-11.502,2.874-20.13,1.44-28.755-4.314-1.437-1.437-2.874-1.437-4.311-2.874M2566.608,1139.842c-1.44,5.751-2.874,12.939-5.751,14.376,11.502-5.751,21.567-14.376,23.004-27.315M2483.22,1167.16c4.314-1.44,8.625,1.44,11.502-1.44M2733.381,1119.715c2.874,1.44,7.188,2.874,8.625,4.314,1.44-2.877,7.191-7.188,11.502-8.628M2631.303,1149.907c-1.44-5.751,1.44-12.939,10.065-15.816M2575.233,1174.348c1.44-2.874,1.44-7.188,2.874-10.065M2511.975,1178.659c-1.44,2.874-4.314,5.751-4.314,8.625M2490.408,1181.536s0-1.44,1.44-1.44c2.874-1.434,7.185-4.311,8.625-7.185M2685.936,1161.409c-2.874,1.44-4.314,0-5.751-1.44M2684.499,1168.597s-1.44,1.44-2.874,1.44M2691.687,1175.785c-1.44,1.44-2.874,2.874-4.314,2.874M2733.381,1178.659c2.874-1.44,4.314-4.314,5.751-10.065M2714.691,1177.222c4.314-1.44,7.188-4.314,11.502-8.625M2754.945,1165.72c0-2.874,0-5.751,1.44-8.625M2861.337,1178.659c-2.874-2.874-2.874-7.188,1.44-10.065,2.874-1.437,4.311-2.874,7.185-4.311"/>
              <path class="cls-18" d="M2773.638,1128.34c-23.004-10.065-21.567-23.004-40.257-21.567M2875.713,1172.908c1.44,1.44,0,5.751,0,7.188M2888.652,1172.908c-1.44,4.314-1.44,5.751-1.44,10.065M2777.949,1037.764h-11.502M2657.181,1086.646c0,2.874,4.314,8.625,15.816,8.625-1.44,0-2.877-1.437-2.877-1.437M2662.932,1069.396c-1.44,1.44-2.874,0-2.874,0-2.877-2.874,1.437-8.625,5.748-11.502-4.311,1.44-7.188,1.44-10.062,1.44-2.877,8.625-11.502,12.936-17.253,7.188-1.44,5.748-8.625,12.939-14.376,11.499-5.751-2.874-7.191-7.188-5.751-11.499-7.188,8.625-15.816,2.874-18.69,0-1.44-2.877,0-10.065,2.874-18.69"/>
            </g>
            <path class="cls-21" d="M2754.945,1124.026c-4.314,2.874-8.625,0-12.939,4.314-2.877,2.874,1.44,4.311,4.314,4.311-1.44,4.314-1.44,5.751,5.751,5.751-2.877,4.314,5.748,5.751,4.311,11.502,4.314-4.311,4.314-10.062,2.877-14.376-1.44-4.314-8.628-7.188-4.314-11.502Z"/>
            <path class="cls-24" d="M2624.115,1078.021c-5.751-2.874-7.188-7.188-5.751-11.502-1.44,2.877-4.314,4.314-7.188,4.314-5.751,12.939-12.939,24.441-21.567,24.441-10.062,1.44-8.625,11.502-1.437,11.502,15.816,2.874,23.004-2.877,35.943-28.755h0ZM2481.783,1043.515c4.314-4.314,1.44-8.625-1.44-10.065-4.311-1.437-12.936,0-17.25,7.191,4.314-1.44,8.625-1.44,10.065,1.437,1.437,2.874,4.311,5.751,8.625,1.437h0ZM2488.971,1017.637c10.065,0,12.939,1.44,14.376,5.751,1.44,2.874-1.437,7.188-4.311,7.188-4.314,0-8.628-2.874-7.191-4.314,1.44-2.874,1.44-7.188-2.874-8.625ZM2517.726,1040.641c7.188,1.44,10.065-2.874,5.751-8.625-1.44-4.314-5.751-7.191-12.939-5.751,7.188,4.311,0,11.502,7.188,14.376h0ZM2464.53,1065.082c4.314,7.188,11.502,7.188,14.376,5.751,4.314-1.44,5.751-5.751,4.314-8.625-2.874-4.314-7.188-5.751-8.625,0-2.877,5.748-7.191,4.311-10.065,2.874ZM2486.094,1152.781c-2.874-5.751-11.502-5.751-18.69,0,2.874-1.44,8.625,0,10.065,2.874,1.437,2.877,4.311,2.877,5.751,2.877,1.437-1.44,4.311-2.877,2.874-5.751h0ZM2497.596,1144.156c0-7.188-10.065-8.625-15.816-5.751,2.877,0,7.191,2.877,7.191,5.751,1.437,2.874,4.311,4.314,5.751,4.314,2.874-1.44,4.311-2.877,2.874-4.314ZM2483.22,1170.034c-8.625-1.44-12.939,8.625-12.939,15.816,1.44-4.314,5.751-7.191,10.065-5.751,4.311,0,5.748-1.44,5.748-4.314,1.44-2.877,0-4.314-2.874-5.751h0ZM2484.657,1194.475c2.874,1.44,5.751-1.44,7.188-5.751,0-2.874,5.751-2.874,7.188-1.44,2.877,1.44,2.877,7.191-1.437,10.065-2.874,1.44-10.065,2.877-12.939-2.874ZM2684.499,1151.344c-2.874-1.44-10.065-4.314-15.816,0,4.314-1.44,7.191,1.44,8.628,4.314,0,2.874,4.314,4.311,5.751,1.437,1.437-1.44,2.874-4.314,1.437-5.751ZM2671.56,1161.409c-5.751-2.874-12.939,4.314-14.376,10.065,1.437-1.44,7.188-4.314,10.062-4.314,2.877,1.44,5.751,0,5.751-2.877,1.44-1.437,1.44-2.874-1.437-2.874ZM2678.748,1172.908c-4.314,0-10.065,5.751-10.065,11.502,1.44-2.877,4.314-4.314,7.191-2.877,2.874,0,7.188-1.437,7.188-4.311s-1.44-4.314-4.314-4.314ZM2691.687,1184.41c-2.874-1.44-7.188,0-7.188,4.314s0,8.625-1.44,10.062c2.88-2.874,5.754-4.311,8.628-5.751,1.44-1.437,2.874-5.751,0-8.625ZM2854.149,1171.471c-2.874-2.874-7.188-1.44-8.625,1.44-1.44,2.874-2.877,10.062,0,15.81,0-2.874,2.874-7.185,5.751-7.185,4.311-1.44,5.748-7.191,2.874-10.065ZM2862.774,1177.222c-5.751,2.874-5.751,12.939-1.44,18.69,0-2.874,1.44-7.188,4.314-8.625,4.314,0,5.751-5.751,4.314-8.628-2.874-2.874-5.751-1.437-7.188-1.437ZM2880.027,1182.973c-2.874-1.44-5.751,1.44-5.751,4.314-1.44,4.311,1.44,10.062,5.751,12.939,0-2.877,1.44-5.751,2.874-7.188,4.314-2.877,2.877-8.628-2.874-10.065h0ZM2892.966,1181.536c-2.874,0-5.751,4.314-2.874,8.625,1.437,2.877,4.311,4.314,10.062,2.877-1.44,0-4.314-4.314-2.874-5.751,1.437-2.877,0-5.751-4.314-5.751h0Z"/>
          </g>
          <g id="i">
            <path class="cls-22" d="M2493.285,1450.387l71.886-221.406,71.886,221.406-188.34-136.581h232.908l-188.34,136.581Z"/>
            <path class="cls-29" d="M2507.661,1430.26l149.52-109.266h-184.026l148.086,109.266-56.07-175.401-57.51,175.401Z"/>
          </g>
          <g id="i-2" data-name="i">
            <path class="cls-22" d="M2763.575,1450.387l71.886-221.406,71.886,221.406-188.34-136.581h232.908l-188.34,136.581Z"/>
            <path class="cls-29" d="M2777.951,1430.26l149.52-109.266h-184.026l148.086,109.266-56.07-175.401-57.51,175.401Z"/>
          </g>
          <g id="i-3" data-name="i">
            <path class="cls-22" d="M2628.428,1607.098l71.886-221.406,71.886,221.406-188.34-136.581h232.908l-188.34,136.581Z"/>
            <path class="cls-29" d="M2642.804,1586.971l149.52-109.266h-184.026l148.086,109.266-56.07-175.401-57.51,175.401Z"/>
          </g>
          <path class="cls-18" d="M2969.166,998.947v280.35c0,242.976-115.017,326.361-268.851,392.496-153.834-66.135-270.288-149.52-270.288-392.493v-280.353h539.139Z"/>
        </g>
      </g>
    </g>
    <g id="mini-gb">
      <path class="cls-25" d="M1600,.1v1200H0V400.1C0,180.1,180,.1,400,.1h1200Z"/>
      <path id="Path" class="cls-32" d="M1534.9.1h65.1v255.8l-545.5,354.3,545.5,354.2v235.7h-96l-679-440.9-679,440.9H0v-203.2l595.5-386.7L31.6,243.9C65.5,164.1,124.5,97.6,198.7,54.3l626.3,406.7L1534.9.1Z"/>
      <path id="Path-2" class="cls-30" d="M0,1189.3v-119.2l708.2-460L60,189.3c17.8-28.7,39.2-54.9,63.4-78.2l676.6,439.4L1600,31.1v119.3l-708.2,459.7,708.2,460v119.2l-800-519.5L0,1189.3Z"/>
      <polygon id="Shape" class="cls-26" points="1000 400.1 1600 400.1 1600 800.1 1000 800.1 1000 1200.1 600 1200.1 600 800.1 0 800.1 0 400.1 600 400.1 600 .1 1000 .1 1000 400.1"/>
      <polygon id="Shape-2" class="cls-28" points="900 500.1 900 .1 700 .1 700 500.1 0 500.1 0 700.1 700 700.1 700 1200.1 900 1200.1 900 700.1 1600 700.1 1600 500.1 900 500.1"/>
    </g>
  </g>
</svg>