<?xml version="1.0" encoding="UTF-8"?>
<svg xmlns="http://www.w3.org/2000/svg" viewBox="0 0 3600.1 2401.738">
  <defs>
    <style>
      .cls-1 {
        stroke: #00afca;
        stroke-miterlimit: 8;
        stroke-width: .914px;
      }

      .cls-1, .cls-2, .cls-3 {
        fill-rule: evenodd;
      }

      .cls-1, .cls-3 {
        fill: #fec50c;
      }

      .cls-2 {
        fill: #00afca;
      }

      .cls-2, .cls-3 {
        stroke-width: 0px;
      }
    </style>
  </defs>
  <g id="background">
    <path id="kz" class="cls-2" d="M400,.1h2800c220,0,400,180,400,400v1600c0,220-180,400-400,400H400C180,2400.1,0,2220.1,0,2000.1V400.1C0,180.1,180,.1,400,.1Z"/>
  </g>
  <g id="country">
    <g id="kz-2" data-name="kz">
      <g>
        <path class="cls-3" d="M2316.643,1009.717c0,178.836-144.974,323.81-323.81,323.81s-323.81-144.974-323.81-323.81,144.974-323.81,323.81-323.81,323.81,144.974,323.81,323.81ZM1992.842,643.622c20.008-.245,27.513-12.453,27.513-27.107,0-19.534-27.513-112.576-27.513-112.576,0,0-27.513,93.041-27.513,112.576,0,14.654,7.505,27.107,27.513,27.107ZM2358.552,1009.916c.245,20.008,12.457,27.513,27.107,27.513,19.534,0,112.576-27.513,112.576-27.513,0,0-93.041-27.513-112.576-27.513-14.65,0-27.107,7.505-27.107,27.513ZM1992.343,1375.541c-20.008.246-27.513,12.457-27.513,27.107,0,19.539,27.513,112.58,27.513,112.58,0,0,27.513-93.041,27.513-112.58,0-14.65-7.505-27.107-27.513-27.107ZM1626.633,1009.416c-.245-20.008-12.457-27.513-27.107-27.513-19.534,0-112.576,27.513-112.576,27.513,0,0,93.041,27.513,112.576,27.513,14.65,0,27.107-7.505,27.107-27.513ZM2133.346,671.139c17.824,7.124,29.067-1.206,34.578-14.506,7.348-17.74,17.947-112.305,17.947-112.305,0,0-59.373,74.366-66.722,92.102-5.507,13.299-3.543,27.361,14.197,34.709ZM2331.446,1150.483c-7.124,17.829,1.206,29.071,14.51,34.582,17.735,7.344,112.305,17.947,112.305,17.947,0,0-74.366-59.374-92.101-66.722-13.304-5.511-27.365-3.543-34.713,14.193ZM1852.216,1348.587c-17.828-7.124-29.071,1.206-34.578,14.506-7.348,17.74-17.947,112.305-17.947,112.305,0,0,59.373-74.366,66.718-92.102,5.511-13.299,3.543-27.361-14.193-34.709ZM1653.998,869.357c7.124-17.829-1.206-29.071-14.506-34.582-17.735-7.348-112.305-17.947-112.305-17.947,0,0,74.366,59.374,92.102,66.722,13.304,5.511,27.365,3.543,34.709-14.193ZM2252.279,750.741c13.744,13.405,27.318,10.011,37.503-.169,13.57-13.575,59.556-96.889,59.556-96.889,0,0-83.314,45.985-96.889,59.56-10.18,10.18-13.744,23.924-.169,37.498ZM2251.86,1269.378c-13.405,13.744-10.011,27.319.169,37.503,13.574,13.575,96.889,59.556,96.889,59.556,0,0-45.985-83.314-59.56-96.889-10.18-10.18-23.924-13.744-37.498-.169h0ZM1733.304,1269.04c-13.744-13.405-27.318-10.011-37.498.169-13.574,13.575-59.56,96.889-59.56,96.889,0,0,83.314-45.985,96.889-59.56,10.18-10.18,13.744-23.924.169-37.498h0ZM1733.562,750.403c13.405-13.744,10.011-27.319-.169-37.498-13.574-13.575-96.889-59.56-96.889-59.56,0,0,45.985,83.314,59.56,96.889,10.18,10.18,23.924,13.744,37.498.169ZM2331.687,869.797c7.568,17.647,21.409,19.704,34.713,14.197,17.735-7.348,92.101-66.722,92.101-66.722,0,0-94.569,10.599-112.305,17.947-13.304,5.511-21.854,16.842-14.51,34.578ZM2132.842,1348.773c-17.642,7.568-19.704,21.405-14.193,34.709,7.348,17.735,66.722,92.102,66.722,92.102,0,0-10.603-94.569-17.947-112.305-5.511-13.304-16.846-21.854-34.582-14.506ZM1653.871,1150.039c-7.568-17.642-21.405-19.704-34.709-14.193-17.735,7.348-92.102,66.722-92.102,66.722,0,0,94.569-10.599,112.305-17.947,13.304-5.511,21.854-16.847,14.506-34.582ZM1852.601,670.953c17.647-7.564,19.704-21.405,14.197-34.709-7.348-17.735-66.722-92.102-66.722-92.102,0,0,10.599,94.569,17.947,112.305,5.511,13.304,16.842,21.854,34.578,14.506ZM2064.55,650.216c18.874,3.509,28.275-6.853,31.082-20.974,3.746-18.832-4.305-113.651-4.305-113.651,0,0-43.725,84.521-47.471,103.348-2.811,14.121,1.862,27.53,20.694,31.276h0ZM2352.372,1081.709c-3.509,18.878,6.857,28.279,20.978,31.086,18.828,3.746,113.647-4.305,113.647-4.305,0,0-84.521-43.725-103.348-47.471-14.121-2.811-27.53,1.862-31.276,20.69ZM1920.986,1369.493c-18.874-3.509-28.275,6.853-31.086,20.973-3.746,18.828,4.309,113.651,4.309,113.651,0,0,43.725-84.521,47.467-103.348,2.811-14.125-1.862-27.53-20.69-31.276ZM1633.096,938.149c3.509-18.878-6.853-28.279-20.974-31.086-18.828-3.746-113.647,4.305-113.647,4.305,0,0,84.521,43.725,103.348,47.471,14.121,2.811,27.526-1.862,31.272-20.69ZM2196.732,705.082c16.097,10.468,28.749,4.491,36.749-7.479,10.662-15.962,39.509-106.646,39.509-106.646,0,0-72.741,61.35-83.407,77.312-7.996,11.975-8.813,26.15,7.149,36.813ZM2297.507,1213.852c-10.463,16.093-4.487,28.745,7.484,36.745,15.962,10.667,106.646,39.513,106.646,39.513,0,0-61.354-72.741-77.316-83.407-11.97-8-26.146-8.813-36.813,7.149ZM1788.842,1314.669c-16.093-10.468-28.745-4.491-36.745,7.484-10.662,15.962-39.513,106.646-39.513,106.646,0,0,72.745-61.354,83.407-77.316,8-11.97,8.813-26.146-7.149-36.813h0ZM1687.92,805.963c10.468-16.097,4.491-28.749-7.479-36.745-15.962-10.667-106.646-39.513-106.646-39.513,0,0,61.354,72.741,77.316,83.407,11.97,8,26.146,8.813,36.808-7.149h0ZM2297.85,806.36c10.866,15.831,24.838,15.149,36.813,7.149,15.962-10.662,77.312-83.407,77.312-83.407,0,0-90.684,28.847-106.646,39.513-11.97,8-18.146,20.783-7.479,36.745ZM2196.258,1314.936c-15.827,10.866-15.145,24.842-7.149,36.813,10.667,15.962,83.407,77.316,83.407,77.316,0,0-28.847-90.684-39.509-106.646-8-11.975-20.787-18.15-36.749-7.484h0ZM1687.729,1213.455c-10.866-15.831-24.842-15.149-36.813-7.149-15.962,10.662-77.316,83.403-77.316,83.403,0,0,90.684-28.847,106.646-39.509,11.97-8,18.15-20.783,7.484-36.745ZM1789.168,704.815c15.831-10.866,15.149-24.838,7.149-36.813-10.667-15.962-83.407-77.312-83.407-77.312,0,0,28.847,90.684,39.513,106.646,8,11.97,20.783,18.146,36.745,7.479h0ZM2352.5,938.619c3.979,18.781,17.151,23.501,31.272,20.694,18.832-3.746,103.348-47.471,103.348-47.471,0,0-94.819-8.055-113.647-4.309-14.121,2.811-24.72,12.258-20.974,31.086ZM2064.046,1369.586c-18.781,3.983-23.501,17.156-20.694,31.276,3.746,18.828,47.471,103.348,47.471,103.348,0,0,8.055-94.819,4.309-113.651-2.811-14.121-12.258-24.72-31.086-20.973h0ZM1633.037,1081.239c-3.983-18.781-17.155-23.501-31.276-20.694-18.828,3.746-103.348,47.471-103.348,47.471,0,0,94.819,8.055,113.647,4.309,14.121-2.811,24.72-12.258,20.978-31.086ZM1921.427,650.123c18.781-3.983,23.501-17.156,20.69-31.276-3.742-18.828-47.471-103.348-47.471-103.348,0,0-8.051,94.819-4.305,113.647,2.811,14.125,12.258,24.724,31.086,20.978h0ZM1933.634,1709.996c-8.686.466-17.126,1.541-25.405,4.085-11.335,1.465-22.188,5.24-33.443,7.014l-4.499.694-7.555.694c.478,2.002.8,4.008.8,6.011,0,2.083-.241,4.085-.8,5.782-.483,1.617-2.015,3.619-3.217,4.855-1.608,1.693-3.297,3.158-5.308,4.08-1.93.927-4.102,1.312-6.269,1.469-2.171.076-4.423,0-6.514-.775-2.171-.694-4.178-2.002-6.028-3.543-2.252.538-4.584.923-6.751,1.156-2.111.233-4.242.233-6.353,0-2.286-.604-4.539-1.325-6.751-2.159-2.179-.865-4.277-1.922-6.269-3.158-8.203,4.622-17.367,9.016-22.349,17.109-2.815,3.699-3.378,7.937-4.021,12.33-.402,5.397,1.046,11.098,3.458,16.11.885,1.46,1.608-5.321,4.339-6.243,4.584-3.623,10.294-6.243,16.08-7.708,4.902-2.392,4.258.152,2.252,3.852-.483,1.93-3.217,9.249.483,5.549,16.317-6.937,34.404-8.322,52.013-9.63,25.562-2.544,51.204-3.086,76.851-3.395,24.114.309,48.233.618,72.351,1.465,11.496.309,23.069,2.772,34.404.923,2.734-.69,6.997-.842,8.605-2.387-5.147-2.849-11.179-2.929-16.885-3.623h-45.981c-12.783-1.232-26.129-1.388-38.184-6.011-3.217-1.232-6.193-4.161-9.249-.999-4.58,1.541-9.486,2.616-14.307,2.929-8.44.614-16.885-1.084-24.681-4.089,5.63-7.475,12.381-14.027,18.574-20.961-4.966-.79-9.901-1.767-14.794-2.929,8.762-5.778,16.88-12.33,25.405-18.497h0Z"/>
        <path class="cls-3" d="M2308.923,1792.621c-17.342,10.442-30.578-8.068-45.075-13.617-10.353,5.634-11.323,24.495-20.995,33.431-11.577,13.202-25.761-3.691-24.703-16.715-13.841,11.695-20.842,38.209-43.225,34.667-10.607-8.673-18.485-26.878-26.586-6.15-6.607,10.129-24.203,24.55-33.312,9.249-2.819-13.511-9.575-29.401-16.91-7.941-5.029,15.179-21.185,26.349-36.813,19.704-8.554-7.014,6.857-32.944-4.034-31.098-16.275,10.785-25.74,37.575-48.453,35.433-8.821-9.926,5.35-26.747-4.326-37.765-11.416,14.696-24.089,36.212-43.843,37.765-9.545-7.759.377-30.002-5.719-33.295-20.271,12.186-41.655,33.905-67.149,27.103,9.934-38.095,51.445-51.458,86.353-54.43,60.059-7.403,123.247,6.205,181.033-15.526,9.333-5.697,31.958-13.774,23.903-26.984-7.136-10.434,18.561-6.353,21.029-18.54-1.528-15.429,11.797-13.304,24.809-14.658,58.353-2.523,115.996,9.799,174.171,11.89,4.398,28.419-27.048,48.377-52.368,39.602-12.093,1.964-30.226-27.877-26.671-6.171-2.438,11.395-.728,26.442-11.115,34.053M1812.44,1734.432c13.511,12.394,22.984-2.337,35.611-7.716,42.349-14.607,79.302-40.127,115.733-65.625,22.07-18.311,41.206-42.061,70.849-48,57.824-17.528,119.289-15.399,177.338-31.577,44.199-60.669,119.272-82.315,182.163-117.189,14.121-4.398,19.577-16.051,24.085-28.914,24.008-37.994,56.711-71.657,95.386-94.654,18.294-10.023,40.127-15.797,60.847-11.213-1.486,24.736-15.64,46.662-32.732,63.767,13.985-.305,26.006-9.164,40.14-8.665,4.842,25.388-22.501,38.671-37.054,54.48,8.106,1.888,39.149,4.241,22.231,12.381-21.558,14.997-46.176,25.295-66.074,42.718,18.362,3.306,20.453,7.217,1.782,13.875-10.108,6.87-29.541,9.27-31.42,22.65,13.871,8.546-6.392,17.033-14.201,19.809-14.946,3.488-30.637,9.998-10.789,21.376-7.509,11.374-23.619,13.799-36.762,12.673,3.987,12.889,9.761,27.31-6.921,32.995-37.405,28.343-81.295,48.965-128.313,53.68,58.734,4.525,119.23-6.404,169.418-38.425,6.624-7.856,41.371-16.296,21.939-22.904-9.151-3.814-28.766-8.055-30.091-15.048,27.183-16.813,61.435-10.832,90.679-20.821.753-9.494-22.243-6.853-30.819-9.012-20.453-1.68-19.251-6.912.466-8.851,24.948-6.624,53.206-7.928,74.193-24.237-17.088-7.937-38.578-.948-56.813-7.429,30.908-13.562,67.369-14.921,95.098-35.289,12.635-14.087-16.182-9.689-24.576-9.346-17.117,2.988-25.029-5.227-5.583-12.356,33.202-24.546,75.246-40.487,98.569-76.072,5.524-7.966,13.003-31.966-4.618-23.331-23.17,7.725-43.56,33.841-69.964,25.761,52.025-40.423,101.528-86.442,137.088-142.387,1.837-16.135-23.424-17.879-30.002-5.211-33.422,32.288-63.674,70.4-106.468,90.646,40.982-39.661,74.87-86.62,104.432-135.293,6.341-14.476,23.373-31.886,14.129-47.958-14.904-12.364-33.545-1.046-41.291,13.752-25.981,34.006-45.71,73.702-79.124,101.397,29.253-55.966,59.539-115.547,60.275-180.106-.089-13.291-2.751-32.864-20.754-30.383-14.273,2.565-10.882,23.979-16.766,34.811-12.952,44.106-19.035,91.869-45.604,130.485,5.981-35.835,16.436-73.198,8.411-109.388-3.755-16.174-29.803-9.215-26.451,6.794-31.124,158.061-136.91,296.296-275.264,376.262-63.352,35.936-134.112,59.103-206.104,69.604-19.365,4.25-40.309,1.757-58.819,8.377-44.851,34.48-72.009,92.174-128.796,110.243-25.452,12.681-58.637,15.251-76.834,38.955-1.575,3.035-1.917,6.548-1.854,9.909"/>
        <path class="cls-3" d="M1981.799,1573.044c-8.381,15.238-13.316,32.758-24.093,46.4-32.428-29.549-79.437-28.571-120.571-30.54-33.951-1.816-70.874-4.952-97.143-29.198-27.632-22.667-50.192-52.102-81.071-70.489-28.182-7.674-56.597-17.278-79.255-36.627-48.428-39.526-76.157-98.171-123.475-138.929-9.02-8.893-19.657-15.784-29.765-23.327-9.604,2.341-5.257,23.094-17.007,12.516-6.396-4.554-22.387-4.999-23.831,1.363,14.468,19.09,28.948,40.889,30.954,65.304-9.867,1.012-27.412-2.087-32.301,1.592,13.201,19.747,29.782,37.009,48.982,50.993-9.156,1.473-27.192.673-30.7,4.364,18.942,15.458,39.255,31.259,64.055,35.23,5.079,6.701-7.424,19.64,3.09,25.363,6.095,2.493,26.209,6.667,12.356,13.613-9.507,6.413-5.981,21.367,6.18,21.029,7.687,3.932,24.948,4.897,26.298,11.704-6.815,6.942-28.017,15.175-9.972,21.68,16.859,9.363,36.085,15.441,55.335,16.11-9.663,8.135-21.566,12.758-31.509,20.415,44.427,26.082,93.672,43.238,142.332,59.759,19.378,6.48,38.976,12.525,59.06,16.33-58.358-3.374-114.764-20.673-167.915-44.351-27.547-12.102-55.285-23.793-83.517-34.21,12.381-6.455,26.701-8.03,39.539-13.613-26.65-5.346-55.763-7.098-79.192-21.765,3.594-6.421,17.202-6.722,24.728-9.989,14.159-3.395,22.938-7.513,2.98-8.745-20.131-5.473-43.217-3.018-60.957-15.179,1.143-7.289,19.708-4.749,27.268-7.894,9.524-1.638,20.11-3.01,27.716-9.426-31.12-12.919-71.822-3.767-96.195-31.285-5.621-10.485,17.456-2.036,24.025-3.784,16.698,0,34.645,5.312,50.548-1.431-45.342-19.932-93.913-38.595-128.495-75.471-3.839-5.93-15.344-22.125-6.061-24.127,26.916,3.568,46.4,32.982,75.187,28.406,3.826-5.164-16.724-13.625-21.854-21.003-41.977-36.072-82.717-75.217-112.14-122.468-2.023-15.78,22.747-18.142,29.266-5.956,32.106,30.963,61.105,67.094,101.088,88.233,14.188,6.887-8.148-8.157-11.124-13.613-36.944-42.959-72.114-88.334-97.934-138.929-4.622-9.117-12.284-25.625,1.545-30.48,13.824-6.938,27.543,2.514,34.552,14.404,27.162,34.307,47.149,75.082,80.986,103.661-28.825-56.017-59.602-114.988-60.347-179.45.677-12.495,1.477-31.395,18.4-30.882,14.21-2.159,11.966,16.059,16.622,24.745,13.998,47.357,20.102,98.616,48.186,140.427-6.201-35.132-15.331-71.31-9.266-107.026,1.397-11.725,14.582-15.276,23.187-8.186,6.955,17.05,8.406,38.108,14.743,56.334,36.068,123.556,117.05,232.22,222.582,305.143,86.912,59.695,190.057,95.327,295.331,101.541,9.507.83,19.052,1.117,28.576,1.706M1854.772,1731.198c0,2.337-2.84,4.233-6.349,4.233s-6.349-1.896-6.349-4.233,2.844-4.233,6.349-4.233,6.349,1.896,6.349,4.233Z"/>
        <path class="cls-1" d="M1852.703,1731.173c0,1.169-.948,2.116-2.116,2.116s-2.116-.947-2.116-2.116.948-2.116,2.116-2.116,2.116.947,2.116,2.116Z"/>
      </g>
      <path class="cls-3" d="M287.56,177.823s-22.874-19.056-30.641-9.498c-12.491,15.378,38.413,91.962,38.413,118.933,0,44.267-29.79,56.305-66.569,62.629-24.681,4.241-64.872-1.774-64.872-1.774,7.568-10.087,12.487-13.058,25.24-13.862-14.197-7.306-28.652-23.175-28.652-47.869,0-38.083,15.81-53.782,15.81-96.715,0-23.818-19.695-54.138-19.695-54.138,34.815,3.454,52.063,35.42,42.252,60.965,5.541.792,10.569-.449,14.891-4.508,2.548,7.081-1.473,15.302-6.857,22.383,4.334,2.298,7.522.918,14.434-.495-.656,7.297-5.067,15.048-15.852,22.341,31.297-8.059,50.557,13.575,50.557,36.22,0,17.105-12.089,29.363-23.903,29.363-3.818,0-9.426-1.558-12.588-3.903-2.235,4.707-1.084,11.01,1.211,15.716-8.656-2.269-14.155-7.369-10.243-17.985-6.65-.605-11.937-2.832-15.534-7.077,3.64-4.635,9.177-7.302,15.534-7.086-4.842-9.909.559-15.454,8.423-19.953,0,0-5.003,19.953,7.767,19.953,5.744,0,10.976-1.854,10.976-10.248,0-7.31-6.442-17.431-21.333-16.787-14.895.643-26.971,10.184-26.971,33.761,0,21.748,17.693,32.567,41.003,33.266,21.024.643,36.889-10.65,36.889-32.152,0-28.622-41.664-93.862-41.664-119.365,0-19.141,17.354-29.82,34.328-29.82,22.019,0,40.597,21.617,40.597,21.617l-12.935,16.085-.013.004ZM293.85,701.014c0,48.639-43.996,73.638-78.574,73.638-46.578,0-71.382-27.64-71.382-63.826,0-20.512,3.788-33.38,13.316-53.012,0,0,76.838-158.59,106.751-219.928,3.733-7.649,4.935-16.36,4.935-29.126,0-19.716-19.272-35.835-39.475-36.326-18.421-.457-38.489,17.041-38.489,36.982,0,24.216,12.66,35.014,25.659,35.014,16,0,22.37-6.527,22.37-17.672,0-7.767-3.78-11.128-9.211-11.128-13.719,0-9.867,18.332-9.867,18.332-6.815-1.482-12.415-8.394-9.215-17.024-5.164-1.129-9.832-3.88-13.321-7.852,3.678-3.539,7.894-6.269,13.321-7.2-3.213-10.527,1.084-15.67,10.362-17.833-1.871,4.047-1.934,7.771-1.312,11.289,14.612-4.127,37.007,2.438,37.007,27.488,0,24.872-17.397,45.816-50.002,40.584,7.755,3.678,11.699,11.213,12.499,19.636-5.926-2.29-12.499-2.616-12.499-2.616,3.81,6.671,9.105,12.423,8.88,25.524-6.044-2.73-11.661-7.78-19.412-4.584,12.165,23.75-2.777,56.419-40.787,64.148,13.909-16.186,20.72-33.659,20.72-51.056,0-56.381-15.788-65.858-15.788-105.054,0-16.402,8.495-34.108,25.329-46.146v.656c-11.124-2.959-18.252-8.398-22.349-15.784,25.422-7.158,62.379-7.026,82.218.724,22.811,2.62,38.73,19.987,43.424,28.804,4.69,8.804,13.803,40.682,0,69.376-15.111,31.407-86.345,181.312-108.554,228.436-4.711,9.994-7.568,20.597-7.568,32.072,0,28.868,26.645,38.946,41.778,38.946,18.095,0,36.516-13.676,36.516-30.76,0-10.828-5.926-17.346-14.476-17.346-20.449,0-19.208,17.266-15.128,28.144-12.728-5.68-20.127-15.818-18.095-26.506-7.204-.982-14.066-4.372-20.394-11.458,4.982-6.239,11.056-10.959,20.394-11.124-4.08-16.588,7.111-23.602,18.095-27.492-3.475,12.174-5.757,26.184,15.128,26.184,15.234,0,27.217,2.616,34.214,12.436.411-13.092,1.642-64.8,1.642-64.8.88-19.433-26.201-18.878-43.42-13.092,6.497-22.383,19.822-34.485,50.658-31.42-7.484-3.107-15.462-10.095-15.462-23.564.008-18.218,14.899-38.404,24.677-44.372l4.889,189.689h-.004ZM293.85,848.354c0-48.639-43.996-73.638-78.574-73.638-46.578,0-71.382,27.64-71.382,63.822,0,20.512,3.788,33.38,13.316,53.012,0,0,76.838,158.591,106.751,219.932,3.733,7.649,4.935,16.36,4.935,29.122,0,19.721-19.272,35.835-39.475,36.33-18.421.457-38.489-17.041-38.489-36.982,0-24.22,12.66-35.018,25.659-35.018,16,0,22.37,6.527,22.37,17.672,0,7.767-3.78,11.132-9.211,11.132-13.719,0-9.867-18.328-9.867-18.328-6.815,1.477-12.415,8.389-9.215,17.016-5.165,1.13-9.833,3.883-13.321,7.856,3.678,3.539,7.894,6.269,13.321,7.196-3.213,10.531,1.084,15.674,10.362,17.837-1.871-4.047-1.934-7.776-1.312-11.289,14.612,4.123,37.007-2.438,37.007-27.492,0-24.872-17.397-45.816-50.002-40.58,7.755-3.683,11.699-11.217,12.499-19.64-5.926,2.294-12.499,2.62-12.499,2.62,3.81-6.671,9.105-12.423,8.876-25.524-6.04,2.726-11.657,7.78-19.407,4.58,12.165-23.746-2.777-56.419-40.787-64.148,13.909,16.186,20.72,33.659,20.72,51.06,0,56.381-15.788,65.854-15.788,105.054,0,16.398,8.495,34.108,25.329,46.146v-.656c-11.124,2.959-18.252,8.394-22.349,15.784,25.422,7.153,62.379,7.026,82.218-.724,22.811-2.624,38.73-19.992,43.424-28.804,4.69-8.804,13.803-40.681,0-69.376-15.111-31.407-86.345-181.316-108.554-228.44-4.711-9.989-7.568-20.593-7.568-32.072,0-28.868,26.645-38.942,41.778-38.942,18.095,0,36.516,13.672,36.516,30.76,0,10.823-5.926,17.342-14.476,17.342-20.449,0-19.208-17.261-15.132-28.144-12.724,5.68-20.123,15.818-18.091,26.51-7.204.982-14.066,4.372-20.394,11.454,4.982,6.239,11.056,10.963,20.394,11.128-4.08,16.584,7.111,23.598,18.091,27.488-3.471-12.169-5.752-26.18,15.132-26.18,15.234,0,27.217-2.616,34.214-12.436.411,13.092,1.642,64.8,1.642,64.8.88,19.429-26.201,18.878-43.42,13.092,6.497,22.383,19.822,34.48,50.658,31.42-7.484,3.103-15.462,10.095-15.462,23.56.004,18.222,14.899,38.408,24.677,44.377l4.889-189.693-.004.005ZM288.093,177.823s22.87-19.056,30.637-9.498c12.495,15.378-38.408,91.962-38.408,118.933,0,44.267,29.786,56.305,66.569,62.629,24.677,4.241,64.872-1.778,64.872-1.778-7.568-10.083-12.491-13.054-25.24-13.858,14.193-7.306,28.648-23.175,28.648-47.869,0-38.083-15.81-53.782-15.81-96.715,0-23.818,19.695-54.138,19.695-54.138-34.811,3.454-52.064,35.42-42.248,60.965-5.545.792-10.574-.449-14.895-4.508-2.544,7.081,1.477,15.302,6.861,22.383-4.339,2.298-7.526.918-14.434-.495.656,7.297,5.062,15.048,15.848,22.341-31.297-8.059-50.552,13.575-50.552,36.22,0,17.101,12.085,29.363,23.903,29.363,3.814,0,9.426-1.558,12.588-3.903,2.231,4.707,1.084,11.005-1.215,15.716,8.66-2.269,14.155-7.369,10.243-17.985,6.65-.605,11.941-2.836,15.539-7.077-3.644-4.635-9.177-7.302-15.539-7.081,4.842-9.913-.554-15.458-8.423-19.958,0,0,5.007,19.953-7.767,19.953-5.74,0-10.976-1.854-10.976-10.243,0-7.314,6.442-17.439,21.338-16.792,14.895.643,26.967,10.184,26.967,33.761,0,21.748-17.693,32.567-41.003,33.266-21.02.643-36.885-10.65-36.885-32.152,0-28.622,41.664-93.862,41.664-119.365,0-19.141-17.354-29.82-34.332-29.82-22.019,0-40.593,21.617-40.593,21.617l12.931,16.085.017.004ZM281.799,701.01c0,48.643,43.996,73.642,78.574,73.642,46.578,0,71.382-27.64,71.382-63.826,0-20.512-3.788-33.38-13.316-53.012,0,0-76.838-158.59-106.751-219.928-3.733-7.649-4.935-16.36-4.935-29.126,0-19.716,19.268-35.835,39.475-36.326,18.417-.457,38.485,17.041,38.485,36.982,0,24.216-12.656,35.018-25.655,35.018-16,0-22.37-6.527-22.37-17.676,0-7.767,3.78-11.128,9.211-11.128,13.719,0,9.867,18.328,9.867,18.328,6.815-1.482,12.415-8.389,9.215-17.016,5.165-1.13,9.833-3.883,13.321-7.856-3.678-3.539-7.898-6.269-13.321-7.196,3.213-10.531-1.084-15.674-10.362-17.837,1.871,4.047,1.934,7.771,1.312,11.289-14.612-4.127-37.007,2.438-37.007,27.488,0,24.872,17.397,45.816,50.006,40.584-7.759,3.683-11.704,11.213-12.504,19.636,5.926-2.29,12.504-2.616,12.504-2.616-3.814,6.671-9.109,12.423-8.885,25.524,6.044-2.73,11.661-7.78,19.407-4.584-12.161,23.75,2.781,56.423,40.792,64.148-13.909-16.186-20.72-33.659-20.72-51.056,0-56.381,15.788-65.858,15.788-105.054,0-16.402-8.495-34.108-25.329-46.146v.656c11.124-2.963,18.252-8.398,22.349-15.788-25.422-7.153-62.379-7.022-82.218.728-22.811,2.624-38.73,19.987-43.424,28.804-4.69,8.804-13.803,40.677,0,69.376,15.111,31.407,86.345,181.312,108.554,228.436,4.711,9.994,7.568,20.597,7.568,32.072,0,28.868-26.645,38.946-41.778,38.946-18.095,0-36.516-13.676-36.516-30.76,0-10.828,5.926-17.346,14.476-17.346,20.449,0,19.208,17.266,15.132,28.148,12.724-5.685,20.123-15.822,18.091-26.51,7.204-.982,14.066-4.372,20.394-11.458-4.982-6.239-11.052-10.959-20.394-11.128,4.076-16.584-7.111-23.598-18.091-27.488,3.471,12.174,5.757,26.184-15.132,26.184-15.234,0-27.217,2.616-34.214,12.436-.411-13.092-1.642-64.804-1.642-64.804-.88-19.429,26.201-18.878,43.42-13.088-6.497-22.383-19.822-34.485-50.658-31.42,7.484-3.107,15.462-10.095,15.462-23.564-.008-18.218-14.899-38.404-24.677-44.372l-4.889,189.689.004-.004ZM281.799,848.354c0-48.639,43.996-73.638,78.574-73.638,46.578,0,71.382,27.64,71.382,63.822,0,20.512-3.788,33.384-13.316,53.012,0,0-76.838,158.595-106.751,219.932-3.733,7.649-4.935,16.36-4.935,29.126,0,19.716,19.268,35.831,39.475,36.326,18.417.457,38.485-17.041,38.485-36.982,0-24.22-12.656-35.018-25.655-35.018-16,0-22.37,6.527-22.37,17.672,0,7.767,3.78,11.128,9.211,11.128,13.719,0,9.867-18.328,9.867-18.328,6.815,1.482,12.415,8.394,9.215,17.02,5.165,1.13,9.832,3.883,13.321,7.856-3.678,3.539-7.898,6.269-13.321,7.196,3.213,10.531-1.084,15.674-10.362,17.837,1.871-4.047,1.934-7.776,1.312-11.289-14.612,4.123-37.007-2.438-37.007-27.492,0-24.872,17.397-45.816,50.006-40.58-7.759-3.683-11.704-11.213-12.504-19.636,5.926,2.29,12.504,2.616,12.504,2.616-3.814-6.671-9.109-12.423-8.885-25.524,6.044,2.726,11.661,7.78,19.407,4.58-12.161-23.75,2.781-56.419,40.792-64.148-13.909,16.186-20.72,33.659-20.72,51.06,0,56.377,15.788,65.854,15.788,105.05,0,16.402-8.495,34.112-25.333,46.15v-.656c11.132,2.959,18.256,8.394,22.353,15.784-25.422,7.153-62.379,7.022-82.218-.724-22.811-2.624-38.73-19.992-43.424-28.804-4.69-8.808-13.803-40.681,0-69.38,15.111-31.403,86.345-181.312,108.554-228.436,4.711-9.994,7.568-20.593,7.568-32.072,0-28.868-26.645-38.946-41.778-38.946-18.095,0-36.516,13.68-36.516,30.764,0,10.823,5.926,17.346,14.476,17.346,20.449,0,19.208-17.266,15.132-28.148,12.724,5.68,20.123,15.818,18.091,26.51,7.204.982,14.066,4.372,20.394,11.454-4.982,6.239-11.056,10.959-20.394,11.128,4.076,16.584-7.111,23.602-18.091,27.488,3.471-12.169,5.757-26.18-15.132-26.18-15.234,0-27.217-2.616-34.214-12.436-.411,13.092-1.642,64.8-1.642,64.8-.88,19.433,26.201,18.878,43.42,13.092-6.497,22.383-19.822,34.48-50.658,31.416,7.484,3.111,15.462,10.099,15.462,23.564-.008,18.222-14.899,38.408-24.677,44.377l-4.889-189.693.004.004ZM287.56,2225.603s-22.874,19.429-30.641,9.685c-12.491-15.678,38.413-93.765,38.413-121.266,0-45.134-29.79-57.409-66.569-63.856-24.681-4.326-64.872,1.812-64.872,1.812,7.568,10.282,12.487,13.308,25.24,14.129-14.197,7.45-28.652,23.627-28.652,48.804,0,38.836,15.81,54.84,15.81,98.616,0,24.288-19.695,55.2-19.695,55.2,34.815-3.522,52.063-36.114,42.252-62.159,5.541-.804,10.569.457,14.891,4.593,2.548-7.217-1.473-15.598-6.857-22.815,4.334-2.349,7.522-.944,14.434.504-.656-7.441-5.067-15.344-15.852-22.785,31.297,8.22,50.557-13.837,50.557-36.927,0-17.439-12.089-29.939-23.903-29.939-3.818,0-9.426,1.587-12.588,3.979-2.235-4.8-1.084-11.225,1.211-16.025-8.656,2.315-14.155,7.513-10.243,18.336-6.65.618-11.937,2.891-15.534,7.217,3.64,4.724,9.177,7.445,15.534,7.225-4.842,10.104.559,15.759,8.423,20.347,0,0-5.003-20.351,7.767-20.351,5.744,0,10.976,1.892,10.976,10.455,0,7.45-6.442,17.773-21.333,17.113-14.895-.656-26.971-10.379-26.971-34.421,0-22.176,17.693-33.206,41.003-33.917,21.024-.656,36.889,10.857,36.889,32.783,0,29.185-41.664,95.704-41.664,121.706,0,19.513,17.354,30.404,34.328,30.404,22.019,0,40.597-22.044,40.597-22.044l-12.935-16.398-.013-.004ZM293.85,1699.067c0-48.635-43.996-73.638-78.574-73.638-46.578,0-71.382,27.64-71.382,63.826,0,20.512,3.788,33.38,13.316,53.012,0,0,76.838,158.591,106.751,219.928,3.733,7.649,4.935,16.36,4.935,29.126,0,19.716-19.272,35.835-39.475,36.326-18.421.457-38.489-17.041-38.489-36.982,0-24.216,12.66-35.014,25.659-35.014,16,0,22.37,6.523,22.37,17.672,0,7.767-3.78,11.124-9.211,11.124-13.719,0-9.867-18.328-9.867-18.328-6.815,1.481-12.415,8.394-9.215,17.024-5.164,1.129-9.832,3.88-13.321,7.852,3.678,3.539,7.894,6.269,13.321,7.196-3.213,10.531,1.084,15.674,10.362,17.837-1.871-4.047-1.934-7.771-1.312-11.289,14.612,4.127,37.007-2.438,37.007-27.488,0-24.872-17.397-45.816-50.002-40.584,7.755-3.683,11.699-11.213,12.499-19.636-5.926,2.29-12.499,2.616-12.499,2.616,3.81-6.671,9.105-12.423,8.876-25.524-6.04,2.73-11.657,7.78-19.407,4.584,12.165-23.75-2.777-56.423-40.787-64.148,13.909,16.186,20.72,33.659,20.72,51.056,0,56.381-15.788,65.854-15.788,105.054,0,16.402,8.495,34.108,25.329,46.146v-.656c-11.124,2.963-18.252,8.398-22.349,15.788,25.422,7.153,62.379,7.022,82.218-.728,22.811-2.624,38.73-19.987,43.424-28.804,4.69-8.804,13.803-40.677,0-69.376-15.111-31.407-86.345-181.312-108.554-228.436-4.711-9.994-7.568-20.597-7.568-32.072,0-28.868,26.645-38.946,41.778-38.946,18.095,0,36.516,13.676,36.516,30.76,0,10.828-5.926,17.346-14.476,17.346-20.449,0-19.208-17.266-15.132-28.148-12.724,5.68-20.123,15.822-18.091,26.51-7.204.982-14.066,4.372-20.394,11.458,4.982,6.239,11.056,10.959,20.394,11.124-4.08,16.588,7.111,23.602,18.091,27.492-3.471-12.174-5.752-26.184,15.132-26.184,15.234,0,27.217-2.616,34.214-12.436.411,13.092,1.642,64.804,1.642,64.804.88,19.429-26.201,18.878-43.42,13.088,6.497,22.383,19.822,34.485,50.658,31.42-7.484,3.107-15.462,10.095-15.462,23.564.004,18.218,14.899,38.404,24.677,44.372l4.889-189.689h-.004ZM293.85,1556.117c0,48.639-43.996,73.638-78.574,73.638-46.578,0-71.382-27.64-71.382-63.822,0-20.512,3.788-33.38,13.316-53.012,0,0,76.838-158.591,106.751-219.928,3.733-7.653,4.935-16.364,4.935-29.126,0-19.721-19.272-35.835-39.475-36.33-18.421-.457-38.489,17.041-38.489,36.982,0,24.22,12.66,35.018,25.659,35.018,16,0,22.37-6.527,22.37-17.672,0-7.767-3.78-11.128-9.211-11.128-13.719,0-9.867,18.328-9.867,18.328-6.815-1.482-12.415-8.389-9.215-17.02-5.164-1.129-9.832-3.88-13.321-7.852,3.678-3.543,7.894-6.273,13.321-7.2-3.213-10.531,1.084-15.674,10.362-17.837-1.871,4.051-1.934,7.776-1.312,11.289,14.612-4.123,37.007,2.438,37.007,27.492,0,24.872-17.397,45.816-50.002,40.58,7.755,3.683,11.699,11.213,12.499,19.636-5.926-2.29-12.499-2.616-12.499-2.616,3.81,6.671,9.105,12.423,8.88,25.524-6.044-2.726-11.661-7.776-19.412-4.58,12.165,23.75-2.777,56.419-40.787,64.148,13.909-16.186,20.72-33.659,20.72-51.056,0-56.381-15.788-65.858-15.788-105.054,0-16.402,8.495-34.112,25.329-46.146v.652c-11.124-2.959-18.252-8.394-22.349-15.784,25.422-7.153,62.379-7.022,82.218.728,22.811,2.62,38.73,19.987,43.424,28.804,4.69,8.804,13.803,40.677,0,69.376-15.111,31.407-86.345,181.312-108.554,228.436-4.711,9.994-7.568,20.597-7.568,32.072,0,28.868,26.645,38.946,41.778,38.946,18.095,0,36.516-13.676,36.516-30.764,0-10.823-5.926-17.342-14.476-17.342-20.449,0-19.208,17.266-15.128,28.144-12.728-5.68-20.127-15.818-18.095-26.51-7.204-.982-14.066-4.372-20.394-11.454,4.982-6.239,11.056-10.959,20.394-11.128-4.08-16.584,7.111-23.598,18.095-27.488-3.475,12.174-5.757,26.18,15.128,26.18,15.234,0,27.217,2.62,34.214,12.436.411-13.092,1.642-64.8,1.642-64.8.88-19.433-26.201-18.878-43.42-13.092,6.497-22.379,19.822-34.48,50.658-31.416-7.484-3.107-15.462-10.099-15.462-23.564.008-18.222,14.899-38.404,24.677-44.372l4.889,189.689-.004-.004ZM288.093,2225.603s22.87,19.433,30.637,9.685c12.495-15.678-38.408-93.765-38.408-121.261,0-45.139,29.786-57.414,66.569-63.86,24.677-4.326,64.872,1.812,64.872,1.812-7.568,10.282-12.491,13.308-25.24,14.129,14.193,7.454,28.648,23.632,28.648,48.808,0,38.832-15.81,54.836-15.81,98.612,0,24.288,19.695,55.2,19.695,55.2-34.811-3.522-52.064-36.114-42.248-62.159-5.545-.808-10.574.457-14.895,4.593-2.544-7.217,1.477-15.598,6.861-22.819-4.339-2.345-7.526-.94-14.434.504.656-7.437,5.062-15.34,15.848-22.781-31.297,8.22-50.552-13.837-50.552-36.927,0-17.439,12.085-29.939,23.903-29.939,3.814,0,9.426,1.587,12.588,3.979,2.231-4.8,1.084-11.225-1.215-16.025,8.66,2.315,14.155,7.513,10.243,18.336,6.65.618,11.941,2.891,15.539,7.221-3.644,4.72-9.177,7.441-15.539,7.221,4.842,10.104-.554,15.759-8.423,20.343,0,0,5.007-20.343-7.767-20.343-5.74,0-10.976,1.888-10.976,10.447,0,7.454,6.442,17.778,21.338,17.117,14.891-.656,26.967-10.383,26.967-34.421,0-22.176-17.693-33.206-41.003-33.917-21.02-.656-36.885,10.857-36.885,32.783,0,29.185,41.664,95.704,41.664,121.706,0,19.513-17.354,30.404-34.332,30.404-22.019,0-40.593-22.044-40.593-22.044l12.931-16.398.017-.004ZM281.799,1699.067c0-48.639,43.996-73.638,78.574-73.638,46.578,0,71.382,27.64,71.382,63.826,0,20.508-3.788,33.38-13.316,53.012,0,0-76.838,158.591-106.751,219.928-3.733,7.649-4.935,16.36-4.935,29.126,0,19.716,19.268,35.835,39.475,36.326,18.417.457,38.485-17.041,38.485-36.982,0-24.22-12.656-35.018-25.655-35.018-16,0-22.37,6.531-22.37,17.676,0,7.767,3.78,11.124,9.211,11.124,13.719,0,9.867-18.328,9.867-18.328,6.815,1.481,12.415,8.394,9.215,17.02,5.165,1.13,9.832,3.883,13.321,7.856-3.678,3.539-7.898,6.269-13.321,7.2,3.213,10.527-1.084,15.67-10.362,17.833,1.871-4.047,1.934-7.771,1.312-11.289-14.612,4.127-37.007-2.438-37.007-27.488,0-24.872,17.397-45.816,50.006-40.584-7.759-3.678-11.704-11.213-12.504-19.636,5.926,2.29,12.504,2.616,12.504,2.616-3.814-6.671-9.109-12.423-8.885-25.524,6.044,2.73,11.661,7.78,19.407,4.584-12.161-23.75,2.781-56.419,40.792-64.148-13.909,16.186-20.72,33.659-20.72,51.056,0,56.381,15.788,65.858,15.788,105.054,0,16.402-8.495,34.108-25.333,46.146v-.656c11.132,2.959,18.256,8.398,22.353,15.784-25.422,7.158-62.379,7.026-82.218-.724-22.811-2.624-38.73-19.987-43.424-28.804-4.69-8.808-13.803-40.682,0-69.376,15.111-31.407,86.345-181.312,108.554-228.436,4.711-9.998,7.568-20.597,7.568-32.076,0-28.863-26.645-38.942-41.778-38.942-18.095,0-36.516,13.676-36.516,30.76,0,10.828,5.926,17.346,14.476,17.346,20.449,0,19.208-17.266,15.132-28.144,12.724,5.68,20.123,15.818,18.091,26.506,7.204.982,14.066,4.372,20.394,11.458-4.982,6.239-11.056,10.959-20.394,11.124,4.076,16.588-7.111,23.602-18.091,27.492,3.471-12.174,5.757-26.184-15.132-26.184-15.234,0-27.217-2.616-34.214-12.436-.411,13.092-1.642,64.8-1.642,64.8-.88,19.433,26.201,18.878,43.42,13.092-6.497,22.383-19.822,34.485-50.658,31.42,7.484,3.107,15.462,10.095,15.462,23.564-.008,18.218-14.899,38.404-24.677,44.372l-4.889-189.689h.004ZM281.799,1556.121c0,48.635,43.996,73.634,78.574,73.634,46.578,0,71.382-27.64,71.382-63.822,0-20.512-3.788-33.38-13.316-53.012,0,0-76.838-158.591-106.751-219.932-3.733-7.649-4.935-16.36-4.935-29.122,0-19.721,19.268-35.835,39.475-36.33,18.417-.457,38.485,17.041,38.485,36.982,0,24.22-12.656,35.018-25.655,35.018-16,0-22.37-6.527-22.37-17.672,0-7.767,3.78-11.128,9.211-11.128,13.719,0,9.867,18.328,9.867,18.328,6.815-1.482,12.415-8.389,9.215-17.016,5.165-1.13,9.833-3.883,13.321-7.856-3.678-3.543-7.898-6.273-13.321-7.2,3.213-10.531-1.084-15.67-10.362-17.837,1.871,4.051,1.934,7.776,1.312,11.289-14.612-4.123-37.007,2.438-37.007,27.492,0,24.872,17.397,45.816,50.006,40.58-7.759,3.683-11.704,11.217-12.504,19.64,5.926-2.294,12.504-2.62,12.504-2.62-3.814,6.671-9.109,12.423-8.885,25.524,6.044-2.726,11.661-7.776,19.407-4.58-12.161,23.746,2.781,56.419,40.792,64.148-13.909-16.186-20.72-33.659-20.72-51.056,0-56.381,15.788-65.858,15.788-105.058,0-16.398-8.495-34.108-25.329-46.142v.652c11.124-2.959,18.252-8.394,22.349-15.784-25.422-7.153-62.379-7.022-82.218.728-22.811,2.624-38.73,19.987-43.424,28.804-4.69,8.804-13.803,40.677,0,69.376,15.111,31.407,86.345,181.312,108.554,228.436,4.711,9.994,7.568,20.597,7.568,32.072,0,28.868-26.645,38.942-41.778,38.942-18.095,0-36.516-13.672-36.516-30.76,0-10.823,5.926-17.342,14.476-17.342,20.449,0,19.208,17.266,15.132,28.144,12.724-5.68,20.123-15.818,18.091-26.51,7.204-.978,14.066-4.368,20.394-11.454-4.982-6.239-11.052-10.963-20.394-11.128,4.076-16.584-7.111-23.598-18.091-27.488,3.471,12.174,5.757,26.18-15.132,26.18-15.234,0-27.217,2.62-34.214,12.436-.411-13.092-1.642-64.8-1.642-64.8-.88-19.429,26.201-18.878,43.42-13.092-6.497-22.379-19.822-34.48-50.658-31.416,7.484-3.107,15.462-10.099,15.462-23.564-.008-18.222-14.899-38.404-24.677-44.372l-4.889,189.689h.004Z"/>
    </g>
  </g>
</svg>