<?xml version="1.0" encoding="UTF-8"?>
<svg xmlns="http://www.w3.org/2000/svg" viewBox="0 0 3600.1 2401.738">
  <defs>
    <style>
      .cls-1 {
        fill: #00a651;
      }

      .cls-1, .cls-2, .cls-3 {
        stroke-width: 0px;
      }

      .cls-1, .cls-3 {
        fill-rule: evenodd;
      }

      .cls-2 {
        fill: #eee;
      }

      .cls-3 {
        fill: #ed1c23;
      }
    </style>
  </defs>
  <g id="background">
    <path id="lb" class="cls-3" d="M400,.1h2800c220,0,400,180,400,400v1600c0,220-180,400-400,400H400C180,2400.1,0,2220.1,0,2000.1V400.1C0,180.1,180,.1,400,.1Z"/>
  </g>
  <g id="country">
    <g id="lb-2" data-name="lb">
      <g>
        <path class="cls-2" d="M0,600.1h3600v1200H0V600.1Z"/>
        <path class="cls-1" d="M1782.361,601.683c-25.691,54.152-74.061,91.998-120.301,127.814-7.605,6.649-26.52,19.529-12.801,29.332,11.756-13.149,44.017,4.265,25.266,18.412-16.794,15.733-39.917,21.496-58.566,34.483-16.515,8.986-33.271,18.361-46.366,32.112-.89,21.486,26.622,9.59,37.789,18.541,14.539,15.559-6.165,41.797-25.247,35.794-24.396.75-41.246,22.243-50.479,42.747-19.083,29.541-55.248,38.296-84.044,55.108-16.477,9.613-32.46,20.251-47.794,31.469-19.773,13.539-2.574,40.335,18.469,33.758,22.711-2.27,43.143-20.134,66.659-14.986,21.321,7.501,27.306,35.398,20.042,54.88-5.386,15.594-18.431,26.58-28.879,38.761-16.965,17.205-39.15,28.376-62.549,33.704-22.607,7.599-42.931,21.464-57.762,40.186-17.208,17.348-34.354,34.974-54.139,49.438-6.25,15.967,11.389,29.566,26.087,29.142,30.988-1.957,52.458-27.34,78.845-40.385,21.901-9.853,47.671,13.776,42.313,36.611-1.697,22.221-22.474,33.492-40.949,40.331-54.31,27.331-101.471,66.969-143.341,110.698-8.66,17.69-32.47,12.481-45.287,24.807-8.349,15.6,12.605,23.826,25.111,22.224,53.734-6.469,103.874-29.208,151.374-54.222,17.664-8.454,34.249-19.58,52.616-26.318,17.25-4.268,41.303,3.236,44.387,22.892-.025,20.748-20.555,32.239-36.817,40.344-50.144,26.375-105.173,40.955-158.764,58.388-20.068-5.614-35.186,30.124-13.175,36.551,23.275,7.985,48.019,1.58,71.826.535,73.618-11.291,138.003-51.169,206.815-76.949,28.61-9.337,62.378,3.692,76.496,30.529,14.185,23.921,12.883,55.377-2.077,78.617-23.645,50.647-59.595,97.194-107.858,126.313-30.291,15.017-65.652,20.758-91.615,43.745-24.016,7.925,12.038,40.407,17.246,14.625,14.429-19.7,39.879-25.589,62.96-26.403,34.692-3.78,71.538-10.186,98.492-34.227,24.165-18.788,47.981-44.707,80.796-45.109,18.133,2.153,36.073,16.74,54.491,7.84,16.116-7.387,41.395-3.059,45.603,16.778,7.694,23.205,31.586,33.765,50.533,46.179,6.858,9.641,29.645,34.502,34.898,12.583-4.24-15.635,1.817-39.559,22.306-34.335,17.895.798,34.949,7.409,52.813,8.489,23.781,4.933,43.624,21.233,57.131,40.917,9.29,12.848,29.642,34.917,44.767,17.883,9.382-17.614-8.53-32.305-23.113-38.596-21.261-13.191-39.442-30.757-58.034-47.389-27.407-25.624-51.068-58.211-55.422-96.484-5.896-38.156-2.793-77.082,2.182-115.14,6.263-24.5,37.561-37.878,59.446-24.858,30.791,14.064,61.374,34.192,96.678,32.011,51.011,1.099,103.431-8.679,153.283,6.117,48.516,15.299,83.202,56.286,130.458,74.02,10.578,6.437,24.114.31,27.99-11.003,4.683-10.164,1.377-23.164-8.403-28.961-54.773-55.346-129.619-82.227-192.991-125.474-19.947-5.072-23.582-37.206-5.136-46.483,24.244-17.639,58.556-9.426,80.064,8.761,18.168,10.651,38.634,18.633,59.949,18.649,21.831-6.839,11.246-38.463-8.299-40.844-35.424-20.02-60.788-52.873-91.472-78.912-17.674-14.976-37.01-30.139-60.757-33.043-12.975-2.368-26.248-2.881-39.401-1.998-12.333-13.418,4.1-33.967,20.052-32.286,16.363,1.102,32.628,2.321,48.972.041,18.266-1.339,36.513-3.23,54.839-3.353,14.796,10.081,44.359-7.336,31.007-24.728-14.587-12.798-35.677-11.687-53.107-18.25-30.602-10.017-61.768-18.219-93.337-24.56-22.072-1.317-19.346-30.399.054-33.609,12.697-4.74,23.734,5.025,35.921,6.538,20.815,4.48,42.304,4.42,63.106,8.96,17.645-8.717,4.005-34.515-11.949-36.022-37.65-13.479-70.189-37.802-102.003-61.466-35.12-26.441-66.978-57.021-102.532-82.854-12.899-7.998-34.043-10.303-37.434-28.037-1.197-16.319,17.984-23.747,31.583-19.931,19.295,5.702,37.27,15.632,56.938,20.511,15.426,2.625,31.333,7.194,46.202,5.25,18.874-11.877-8.099-19.463-17.861-23.582-25.162-13.589-47.525-31.691-70.176-48.959-19.14-16.354,16.236-23.579,28.401-17.281,20.346,8.52,22.664-21.157,7.456-28.623-17.918-7.627-33.325-20.289-49.57-31.333-29.36-20.919-62.606-37.479-98.691-42.079-40.461-4.072-78.228-27.359-99.692-62.001-13.311-19.738-23.082-41.569-32.523-63.344h0ZM1649.497,828.917c20.85.617,17.642,38.245-2.884,35.734-19.938-1.286-18.719-39.777,2.884-35.734ZM1846.189,849.181c20.292-3.635,24.589,33.432,4.319,35.174-21.128,3.787-28.955-37.523-4.319-35.174ZM1788.579,854.012c20.571,4.05,16.914,39.926-3.85,40.236-15.188,3.388-31.561,13.767-46.927,5.99-12.497-13.235,5.563-32.799,19.514-37.099,10.699-2.159,20.546-7.026,31.263-9.128h0ZM1921.168,854.168c19.827,7.235,12.833,42.272-8.077,41.823-19.773,2.656-28.984-30.37-10.544-38.201,5.968-2.118,12.222-3.901,18.621-3.622h0ZM1697.5,893.907c14.58,13.89,5.968,40.692-12.006,47.098-12.953,7.213-30.617,24.282-44.726,10.236-7.659-17.151,11.56-30.066,22.866-39.587,10.088-7.852,21.22-14.979,33.866-17.747ZM1863.983,971.369c20.869,9.863,10.274,47.519-12.63,45.179-18.814-4.775-16.357-37.076,2.593-39.654,3.581-1.374,6.864-3.394,10.037-5.525h0ZM1797.758,975.105c19.52,9.15,4.616,41.759-15.046,37.061-20.384-2.397-20.011-38.273,2.473-35.034,4.236-.209,8.609-.32,12.573-2.026h0ZM1940.514,993.811c21.391-6.646,47.148,15.416,40.208,37.795-9.533,17.348-33.109,19.539-50.001,13.057-19.393-.959-32.438-30.146-15.16-42.507,7.149-5.402,16.16-7.627,24.953-8.346h0ZM1624.499,999.421c17.693-9.635,36.472,19.32,21.429,32.093-9.964,14.669-35.554,20.656-46.835,4.354-9.375-15.936,5.785-42.697,25.409-36.446h-.003ZM1542.883,1013.134c20.064,2.748,33.141,20.995,40.559,38.371,1.808,21.169-29.398,32.786-43.01,17.383-15.309-9.613-28.708-29.383-20.682-47.734,4.946-7.289,14.796-10.293,23.136-8.02h-.003ZM2031.166,1089.659c21.781-5.744,37.589,29.098,18.887,41.699-17.098,15.546-50.343-5.047-41.424-27.23,4.43-8.229,13.298-13.691,22.54-14.47h-.003ZM1753.982,1129.401c18.263,2.327,12.345,34.012-4.54,32.948-18.117-3.363-13.969-34.734,4.54-32.948ZM1661.354,1146.233c14.891-10.55,34.103,15.201,21.714,27.198-14.847,10.471-34.107-14.869-21.714-27.198ZM1808.634,1149.349c17.259,10.502,27.508,30.082,29.655,49.84-8.273,18.462-40.227,14.014-43.83-5.645-6.314-15.549-.494-35.544,14.169-44.188l.006-.006ZM1860.028,1179.899c22.246-5.595,14.261,40.958-4.312,24.811-6.174-7.339-2.869-19.415,4.309-24.811h.003ZM1537.238,1212.315c14.733-4.319,36.206.222,40.271,17.148,1.713,15.904-15.758,24.18-28.563,28.122-20.517,6.339-40.585,16.746-62.653,15.35-16.544-9.464-22.48-28.832-28.376-45.727,15.961-14.983,39.47-10.585,59.256-14.337,6.681-.342,13.374-.507,20.064-.557ZM2037.942,1285.256c18.788-9.226,39.002,20.637,23.272,34.585-19.678,22.673-57.562,26.888-81.096,7.836-2.824-20.061,17.193-34.639,34.984-37.517,7.479-2.118,14.916-5.275,22.841-4.905ZM2143.561,1308.166c21.356-3.679,38.172,26.812,22.923,42.595-14.429,21.784-48.842,27.495-68.517,9.638-7.672-18.057,7.89-36.874,24.453-42.668,7.118-3.036,13.859-6.921,21.141-9.565ZM1612.496,1340.586c19.773-1.957,37.89,17.683,35.297,37.2,14.311,14.099-11.034,40.373-25.295,25.77-12.567-15.245-12.503-35.924-17.37-54.168-.218-4.053,2.78-9.302,7.368-8.802h0ZM1764.291,1351.962c20.444-8.85,46.892,15.635,35.759,36.361-7.95,16.882-38.945,11.221-37.915-8.33-.051-9.356-.804-18.95,2.156-28.034v.003ZM1690.442,1365.209c20.498-4.705,39.302,21.898,27.913,39.644-20.435,1.821-31.045-22.461-27.913-39.644Z"/>
      </g>
    </g>
  </g>
</svg>