<?xml version="1.0" encoding="UTF-8"?>
<svg xmlns="http://www.w3.org/2000/svg" viewBox="0 0 3600.1 2401.738">
  <defs>
    <style>
      .cls-1, .cls-2, .cls-3, .cls-4, .cls-5, .cls-6, .cls-7 {
        fill-rule: evenodd;
      }

      .cls-1, .cls-2, .cls-5 {
        fill: #ffd83d;
      }

      .cls-1, .cls-3, .cls-6, .cls-7 {
        stroke-width: 0px;
      }

      .cls-8 {
        fill: none;
      }

      .cls-8, .cls-2, .cls-4 {
        stroke-width: 5.981px;
      }

      .cls-8, .cls-2, .cls-4, .cls-5 {
        stroke: #000;
        stroke-linecap: round;
        stroke-linejoin: round;
      }

      .cls-5 {
        stroke-width: 7.974px;
      }

      .cls-6 {
        fill: #ce1b26;
      }

      .cls-7 {
        fill: #002b7f;
      }
    </style>
  </defs>
  <g id="background">
    <path id="li" class="cls-7" d="M400,.1h2800c220,0,400,180,400,400v1600c0,220-180,400-400,400H400C180,2400.1,0,2220.1,0,2000.1V400.1C0,180.1,180,.1,400,.1Z"/>
  </g>
  <g id="country">
    <g id="li-2" data-name="li">
      <path id="b" class="cls-6" d="M400,2400.1h2800c220,0,400-180,400-400v-800H0v800C0,2220.1,180,2400.1,400,2400.1Z"/>
      <g>
        <path class="cls-1" d="M666.862,490.604l-7.323,248.499h-252.64c-31.084-60.31-56.752-111.533-56.752-180.894,0-58.047,45.744-104.15,111.674-104.15,69.794,0,146.474,23.472,205.042,36.545Z"/>
        <path class="cls-8" d="M381.818,503.326v144.282M402.933,489.25v190.029M420.528,478.692v228.739M441.642,471.654v179.472M462.757,471.654v179.472M483.871,464.616v186.51M501.466,464.616v186.51M522.581,468.135v186.51M543.695,468.135v186.51M564.809,482.211v186.51M585.924,482.211v211.144M603.519,482.211v186.51M624.633,482.211v186.51"/>
        <path class="cls-4" d="M507.808,471.654c42.841,7.137,136.944,51.607,126.211,111.772-15.209,85.267-64.511,51.047-129.867,38.801l-49.386,16.628c-17.673,18.218-43.693,34.909-61.277,12.933h-29.265v115.467h323.754v-278.974l-180.169-16.628Z"/>
        <path class="cls-5" d="M673.9,452.299c0,10.689-8.665,19.355-19.355,19.355s-19.355-8.665-19.355-19.355,8.665-19.355,19.355-19.355,19.355,8.665,19.355,19.355ZM628.152,441.742c0,10.689-8.665,19.355-19.355,19.355s-19.355-8.665-19.355-19.355,8.665-19.355,19.355-19.355,19.355,8.665,19.355,19.355ZM585.924,431.185c0,10.691-9.452,19.355-21.114,19.355s-21.114-8.664-21.114-19.355,9.452-19.355,21.114-19.355,21.114,8.664,21.114,19.355ZM540.176,424.147c0,10.689-8.665,19.355-19.355,19.355s-19.355-8.665-19.355-19.355,8.665-19.355,19.355-19.355,19.355,8.665,19.355,19.355ZM494.428,420.628c0,10.689-8.665,19.355-19.355,19.355s-19.355-8.665-19.355-19.355,8.665-19.355,19.355-19.355,19.355,8.665,19.355,19.355ZM448.68,422.387c0,11.662-8.664,21.114-19.355,21.114s-19.355-9.452-19.355-21.114,8.664-21.114,19.355-21.114,19.355,9.452,19.355,21.114ZM406.452,436.464c0,11.662-8.664,21.114-19.355,21.114s-19.355-9.452-19.355-21.114,8.664-21.114,19.355-21.114,19.355,9.452,19.355,21.114ZM371.261,462.857c0,10.689-8.665,19.355-19.355,19.355s-19.355-8.665-19.355-19.355,8.665-19.355,19.355-19.355,19.355,8.665,19.355,19.355ZM346.628,498.047c0,10.689-8.665,19.355-19.355,19.355s-19.355-8.665-19.355-19.355h0c0-10.689,8.665-19.355,19.355-19.355s19.355,8.665,19.355,19.355ZM336.07,542.036c0,11.661-9.453,21.114-21.114,21.114s-21.114-9.453-21.114-21.114,9.453-21.114,21.114-21.114,21.114,9.453,21.114,21.114ZM336.07,586.024c0,10.689-8.665,19.355-19.355,19.355s-19.355-8.665-19.355-19.355,8.665-19.355,19.355-19.355,19.355,8.665,19.355,19.355ZM343.109,630.012c0,11.662-8.664,21.114-19.355,21.114s-19.355-9.452-19.355-21.114,8.664-21.114,19.355-21.114,19.355,9.452,19.355,21.114Z"/>
        <path class="cls-5" d="M663.343,479.994l-1.83,25.548c-48.918-7.478-118.269-34.67-182.91-34.67-59.729,0-106.089,23.835-106.089,83.937,0,59.233,25.147,113.099,58.533,167.87l-34.754,16.423c-31.056-60.225-56.703-111.378-56.703-180.644,0-57.97,45.706-114.957,124.381-114.957,69.73,0,140.858,23.44,199.372,36.493Z"/>
        <path class="cls-1" d="M712.575,490.604l7.323,248.499h252.64c31.084-60.31,56.752-111.533,56.752-180.894,0-58.047-45.744-104.15-111.674-104.15-69.79,0-146.474,23.472-205.042,36.545h0Z"/>
        <path class="cls-8" d="M1004.643,503.326v144.282M983.532,489.25v190.029M962.418,478.692v228.739M941.31,471.654v179.472M923.68,471.654v179.472M902.604,464.616v186.51M881.493,464.616v186.51M860.382,468.135v186.51M839.272,468.135v186.51M821.68,482.211v186.51M800.569,482.211v211.144M779.458,482.211v186.51M758.347,482.211v186.51"/>
        <path class="cls-4" d="M871.636,471.654c-42.845,7.137-136.944,51.607-126.211,111.776,15.209,85.263,64.508,51.044,129.867,38.798l49.386,16.624c17.669,18.222,43.693,34.909,61.274,12.933h29.265v115.471h-323.754v-278.974l180.172-16.628Z"/>
        <path class="cls-5" d="M705.565,452.299c0,10.691,9.452,19.355,21.114,19.355s21.114-8.664,21.114-19.355-9.452-19.355-21.114-19.355-21.114,8.664-21.114,19.355h0ZM751.306,441.742c0,10.689,8.665,19.355,19.355,19.355s19.355-8.665,19.355-19.355-8.665-19.355-19.355-19.355-19.355,8.665-19.355,19.355ZM797.043,431.185c0,10.689,8.665,19.355,19.355,19.355s19.355-8.665,19.355-19.355-8.665-19.355-19.355-19.355-19.355,8.665-19.355,19.355ZM842.784,424.147c0,10.689,8.665,19.355,19.355,19.355s19.355-8.665,19.355-19.355-8.665-19.355-19.355-19.355-19.355,8.665-19.355,19.355ZM885.002,420.628c0,10.691,9.452,19.355,21.114,19.355s21.114-8.664,21.114-19.355-9.452-19.355-21.114-19.355-21.114,8.664-21.114,19.355ZM930.742,422.387c0,11.662,8.667,21.114,19.355,21.114s19.355-9.452,19.355-21.114-8.664-21.114-19.355-21.114-19.355,9.452-19.355,21.114ZM972.964,436.464c0,11.662,8.667,21.114,19.355,21.114s19.355-9.452,19.355-21.114-8.664-21.114-19.355-21.114-19.355,9.452-19.355,21.114ZM1008.151,462.857c0,10.689,8.665,19.355,19.355,19.355s19.355-8.665,19.355-19.355-8.665-19.355-19.355-19.355-19.355,8.665-19.355,19.355ZM1032.778,498.047c0,10.689,8.665,19.355,19.355,19.355s19.355-8.665,19.355-19.355h0c0-10.689-8.665-19.355-19.355-19.355s-19.355,8.665-19.355,19.355ZM1046.85,542.036c0,11.662,8.667,21.114,19.355,21.114s19.355-9.452,19.355-21.114-8.664-21.114-19.355-21.114-19.355,9.452-19.355,21.114ZM1046.85,586.024c0,10.689,8.665,19.355,19.355,19.355s19.355-8.665,19.355-19.355-8.665-19.355-19.355-19.355-19.355,8.665-19.355,19.355ZM1036.297,630.012c0,11.662,8.664,21.114,19.355,21.114s19.355-9.452,19.355-21.114-8.664-21.114-19.355-21.114-19.355,9.452-19.355,21.114Z"/>
        <path class="cls-5" d="M719.613,479.994l1.83,25.548c48.918-7.478,118.269-34.67,182.91-34.67,59.729,0,106.089,23.835,106.089,83.937,0,59.233-25.147,113.103-58.533,167.87l34.754,16.423c31.056-60.225,56.703-111.378,56.703-180.644,0-57.969-45.706-114.957-124.381-114.957-69.73,0-140.858,23.44-199.372,36.493ZM691.496,214.763l-21.114,38.917,21.114,38.794,21.114-38.794-21.114-38.917ZM691.496,313.004l-21.114,38.794,21.114,38.917,21.114-38.917s-21.114-38.794-21.114-38.794ZM617.595,302.739l32.692,21.114,32.586-21.114-32.586-21.114-32.692,21.114ZM700.117,302.739l32.586,21.114,32.692-21.114-32.692-21.114-32.586,21.114Z"/>
        <path class="cls-5" d="M705.572,300.98c0,8.746-7.09,15.836-15.836,15.836s-15.836-7.09-15.836-15.836,7.09-15.836,15.836-15.836,15.836,7.09,15.836,15.836ZM733.724,401.273c0,23.321-18.908,42.229-42.229,42.229s-42.229-18.908-42.229-42.229,18.908-42.229,42.229-42.229,42.229,18.908,42.229,42.229Z"/>
        <path class="cls-8" d="M679.246,362.563c0,12.095-.091,19.123-.127,25.724-9.96.431-19.887,1.445-29.729,3.037M730.082,391.325c-9.842-1.592-19.769-2.606-29.729-3.037v-25.724M649.267,411.83c13.38-2.177,26.913-3.272,40.469-3.276,13.791,0,27.301,1.14,40.469,3.276"/>
        <path class="cls-5" d="M649.028,471.654c-3.952,68.882-11.986,139.035-38.47,190.029l43.077-17.641c15.044-57.779,18.204-132.436,22.782-167.726l-27.389-4.663ZM730.445,471.654l-27.389,4.663c4.578,35.289,7.738,109.946,22.782,167.726l43.077,17.641c-26.484-50.995-34.518-121.147-38.47-190.029Z"/>
        <path class="cls-5" d="M689.673,619.455c-51.449,0-89.243,24.299-91.51,86.213-12.577-22.177-65.782-91.932-115.418-82.596-29.525,5.553-55.608,46.575-51.174,93.575-24.443-70.388-96.046-81.924-148.286-40.3,46.385,38.217,67.021,151.056,106.079,199.999h600.619c39.062-48.943,59.821-161.782,106.205-199.999-52.24-41.623-123.846-30.088-148.286,40.3,4.434-47.001-21.776-88.022-51.297-93.575-49.636-9.336-102.718,60.419-115.295,82.596-2.266-61.914-40.184-86.213-91.636-86.213Z"/>
        <path class="cls-4" d="M990.616,875.189c0,22.336-134.794,46.906-300.88,46.906s-300.88-24.57-300.88-46.906,134.794-34.033,300.88-34.033,300.88,11.694,300.88,34.033Z"/>
        <path class="cls-2" d="M705.572,461.097c0,7.774-6.302,14.076-14.076,14.076s-14.076-6.302-14.076-14.076,6.302-14.076,14.076-14.076,14.076,6.302,14.076,14.076Z"/>
        <path class="cls-2" d="M705.572,489.25c0,7.774-7.091,14.076-15.836,14.076s-15.836-6.303-15.836-14.076,7.091-14.076,15.836-14.076,15.836,6.303,15.836,14.076ZM705.572,522.681c0,8.746-7.09,15.836-15.836,15.836s-15.836-7.09-15.836-15.836h0c0-8.746,7.09-15.836,15.836-15.836s15.836,7.09,15.836,15.836Z"/>
        <path class="cls-2" d="M709.091,557.871c0,10.689-8.665,19.355-19.355,19.355s-19.355-8.665-19.355-19.355,8.665-19.355,19.355-19.355,19.355,8.665,19.355,19.355Z"/>
        <path class="cls-2" d="M709.091,598.341c0,11.662-8.664,21.114-19.355,21.114s-19.355-9.452-19.355-21.114,8.664-21.114,19.355-21.114,19.355,9.452,19.355,21.114Z"/>
        <path class="cls-3" d="M681.653,637.05c-2.203-.028-4.283,1.837-3.73,5.374.648,4.17,1.46,11.975,2.238,17.24.88,5.972,4.342,4.518,5.222-.123.88-4.642.524-7.622.746-16.244.113-4.311-2.277-6.218-4.476-6.246ZM697.819,637.05c-2.199.028-4.585,1.935-4.476,6.246.222,8.622-.134,11.602.746,16.244s4.346,6.095,5.222.123c.778-5.265,1.591-13.07,2.242-17.24.549-3.537-1.531-5.402-3.734-5.374h0ZM667.225,639.299c-2.013.282-4.1,2.323-3.98,4.497.218,3.98,1.316,8.752,1.742,14.745.44,6.19,4.782,3.783,5.222.25.44-3.537.936-8.766.5-15.618-.165-2.572-1.284-3.702-2.611-3.874-.29-.037-.583-.037-.873,0h0ZM711.378,639.299c-1.33.172-2.449,1.302-2.615,3.874-.337,5.21-.17,10.44.5,15.618.44,3.533,4.782,5.94,5.222-.25.426-5.993,1.524-10.765,1.742-14.745.12-2.175-1.967-4.216-3.98-4.497-.289-.037-.581-.037-.869,0h0ZM649.939,646.295c-1.844.479-3.537,2.706-2.988,5.25,1.101,5.085,2.115,10.705,2.115,15.867,0,4.42,3.758,2.843,3.98-.25.218-3.097.623-9.653.623-15.618,0-4.459-1.89-5.729-3.73-5.25ZM728.291,646.295c-1.309.366-2.488,1.907-2.488,5.25,0,5.965.405,12.521.623,15.618.222,3.093,3.98,4.67,3.98.25,0-5.162,1.013-10.782,2.115-15.867.549-2.544-1.144-4.772-2.984-5.25-.407-.12-.839-.12-1.246,0h0ZM493.105,646.981c-2.206-.074-3.751,2.931-2.238,6.246,2.418,5.307,4.99,8.653,7.46,14.368,2.203,5.085,5.578,1.914,4.48-1.626-1.101-3.537-2.298-7.474-5.599-14.991-1.239-2.819-2.78-3.955-4.103-3.998h0ZM886.367,646.981c-1.323.042-2.864,1.179-4.103,3.998-3.301,7.517-4.497,11.455-5.599,14.991-1.098,3.54,2.277,6.711,4.48,1.626,2.47-5.715,5.043-9.062,7.46-14.368,1.513-3.315-.032-6.32-2.238-6.246h0ZM509.025,647.231c-1.622.496-2.608,2.565-1.619,4.997,1.985,4.863,4.842,9.85,6.841,15.118,1.76,4.642,5.676,3.326,4.353-.876-1.32-4.198-1.714-6.658-4.353-14.618-1.32-3.977-3.6-5.12-5.222-4.621ZM869.205,647.231c-1.39.296-2.991,1.636-3.98,4.621-2.639,7.96-3.033,10.42-4.353,14.618-1.323,4.202,2.594,5.518,4.353.876,1.999-5.268,4.86-10.255,6.841-15.118.989-2.432.007-4.501-1.619-4.997-.406-.115-.836-.115-1.242,0ZM528.922,651.102c-2.045.391-3.628,3.526-2.238,7.372,1.763,4.863,4.269,9.466,6.468,14.991,2.203,5.528,5.856,4.413,4.976.876s-1.96-9.399-4.603-18.243c-1.154-3.867-3.009-5.3-4.603-4.997h0ZM850.55,651.102c-1.594-.303-3.449,1.13-4.603,4.997-2.643,8.843-3.72,14.706-4.603,18.243-.88,3.537,2.773,4.652,4.976-.876,2.199-5.525,4.705-10.128,6.468-14.991,1.39-3.846-.194-6.982-2.238-7.372h0ZM479.673,653.85c-2.217.229-4.233,3.86-2.861,6.623,2.203,4.423,3.596,5.926,5.722,10.621,2.199,4.863,4.61,1.098,3.73-1.999-.88-3.097-2.009-6.7-3.107-11.12-.806-3.238-2.154-4.258-3.484-4.124h0ZM899.799,653.85c-1.33-.134-2.675.887-3.484,4.124-1.098,4.42-2.228,8.023-3.107,11.12s1.531,6.862,3.73,1.999c2.126-4.694,3.519-6.197,5.722-10.621,1.372-2.762-.644-6.394-2.861-6.623h0ZM633.023,665.037c-2.323-.004-4.804,3.097-3.98,5.996,1.32,4.645,3.361,8.759,4.849,14.745,1.323,5.303,5.071,2.66,4.853-.876-.222-3.537-.823-8.351-2.365-15.867-.577-2.819-1.964-3.998-3.357-3.998h0ZM746.449,665.037c-1.394,0-2.78,1.179-3.357,3.998-1.541,7.517-2.143,12.331-2.365,15.867-.218,3.537,3.533,6.179,4.853.876,1.489-5.986,3.53-10.1,4.849-14.745.827-2.9-1.658-6-3.98-5.996h0ZM689.736,669.785c-2.861,0-3.259,3.86-3.357,6.996-.331,10.283-4.578,20.266-8.21,25.239-3.628,4.976-8.977,3.653-13.928.999s-7.904-4.638-13.182-8.622c-5.282-3.977-9.29-1.65-2.988,7.372,18.38,26.308,38.309,48.795,38.309,91.707,0,5.55.964,7.246,3.357,7.246s3.484-1.696,3.484-7.246c0-42.911,19.805-65.398,38.182-91.707,6.303-9.023,2.298-11.349-2.984-7.372-5.282,3.984-8.235,5.968-13.186,8.622s-10.297,3.977-13.928-.999c-3.632-4.972-7.879-14.956-8.21-25.239-.099-3.136-.496-6.996-3.357-6.996h0ZM549.322,663.348c-.254,0-.506.042-.746.123-1.07.338-1.784,1.636-1.369,3.874.739,4.005,3.501,11.859,4.599,15.618,1.101,3.758,5.704,2.96,4.603-2.126s-1.042-6.619-2.361-12.369c-.721-3.143-2.974-5.074-4.726-5.12h0ZM830.15,663.348c-1.752.046-4.001,1.978-4.726,5.12-1.32,5.75-1.26,7.284-2.361,12.369-1.101,5.085,3.501,5.884,4.603,2.126,1.098-3.758,3.86-11.613,4.599-15.618.415-2.238-.299-3.537-1.369-3.874-.24-.081-.492-.123-.746-.123h0ZM465.867,664.971c-2.305.183-3.955,3.09-1.615,7.372,2.52,4.624,6.848,10.427,8.829,13.742,1.981,3.318,5.405,1.08,2.984-3.121-2.421-4.202-3.234-9.026-6.095-14.995-1.073-2.238-2.72-3.107-4.103-2.998h0ZM913.605,664.971c-1.383-.109-3.03.76-4.103,2.998-2.861,5.968-3.674,10.793-6.095,14.995s1.003,6.44,2.984,3.121c1.981-3.315,6.31-9.118,8.829-13.742,2.34-4.283.69-7.189-1.615-7.372ZM339.755,678.28c-2.657-.141-3.491,4.68-.996,7.872,3.632,4.642,6.162,7.105,10.325,10.87,3.301,2.984,4.262-.89,2.611-3.874-1.65-2.984-4.036-6.018-7.337-10.994-1.812-2.727-3.396-3.808-4.603-3.874h0ZM1039.717,678.28c-1.207.067-2.791,1.147-4.603,3.874-3.297,4.976-5.687,8.009-7.337,10.994-1.65,2.984-.69,6.859,2.611,3.874,4.163-3.765,6.693-6.229,10.325-10.87,2.495-3.192,1.661-8.013-.996-7.872h0ZM359.778,682.281c-2.118.025-3.516,1.598-1.865,5.247,2.365,5.222,5.479,11.138,7.464,15.118,1.978,3.977,8.013,5.314,5.595-.876-2.421-6.19-2.9-9.368-5.099-15.118-1.101-2.872-3.977-4.399-6.095-4.371ZM1019.694,682.281c-2.118-.028-4.994,1.499-6.095,4.371-2.199,5.75-2.678,8.928-5.099,15.118-2.418,6.19,3.618,4.853,5.599.876,1.981-3.98,5.096-9.896,7.46-15.118,1.65-3.649.253-5.222-1.865-5.247ZM320.974,683.653c-3.079.032-3.343,3.132-.619,5.124,3.632,2.653,7.96,5.595,12.187,8.995,4.951,3.98,6.869.32,4.23-2.998-2.643-3.315-5.212-6.679-11.817-9.994-1.65-.83-2.953-1.137-3.98-1.126h0ZM1058.499,683.653c-1.028-.011-2.33.296-3.98,1.126-6.602,3.315-9.174,6.679-11.817,9.994-2.639,3.318-.721,6.978,4.23,2.998,4.226-3.399,8.555-6.341,12.187-8.995,2.724-1.992,2.46-5.092-.619-5.124h0ZM622.079,686.528c-1.724.243-3.209,2.206-2.488,4.747,1.32,4.642,2.819,9.561,3.73,14.368.883,4.642,6.229,4.698,5.349.5-.88-4.202-1.32-9.456-2.861-15.867-.577-2.404-1.784-3.561-2.984-3.748-.247-.037-.499-.037-.746,0h0ZM756.648,686.528c-1.2.186-2.407,1.344-2.984,3.748-1.538,6.412-1.981,11.666-2.861,15.867-.88,4.198,4.469,4.142,5.349-.5.911-4.807,2.411-9.727,3.73-14.368.721-2.541-.764-4.504-2.488-4.747-.247-.037-.499-.037-.746,0ZM502.307,678.589c-1.351.377-2.129,2.974-1.119,6.623,5.613,20.228,7.334,30.883,6.345,35.859-.992,4.972-3.709,5.655-7.337,3.998-3.908-1.798-7.653-3.93-11.194-6.373-3.301-2.323-6.735.457-1.992,4.374,24.099,19.897,40.8,42.637,47.261,70.216,1.32,5.638,4.846,6.299,3.857,0-5.462-34.744-6.514-63.304,1.742-81.213,3.1-6.728-.025-13.193-4.976-2.249-3.301,7.299-8.643,10.174-12.936,3.874-4.29-6.299-13.154-23.11-15.794-30.735-.992-2.861-2.213-4.184-3.234-4.374-.205-.046-.418-.046-.623,0h0ZM876.542,678.589c-1.021.19-2.242,1.513-3.234,4.374-2.639,7.626-11.504,24.436-15.794,30.735-4.293,6.299-9.635,3.424-12.936-3.874-4.951-10.944-8.076-4.48-4.976,2.249,8.256,17.909,7.204,46.469,1.742,81.213-.989,6.299,2.537,5.638,3.857,0,6.461-27.579,23.162-50.319,47.261-70.216,4.744-3.917,1.309-6.697-1.992-4.374-3.54,2.442-7.284,4.574-11.191,6.373-3.632,1.657-6.348.975-7.341-3.998-.989-4.976.732-15.632,6.345-35.859,1.013-3.649.232-6.246-1.119-6.623-.205-.046-.418-.046-.623,0ZM381.171,688.277c-2.175.028-3.977,1.555-2.984,4.87,1.587,5.314,4.87,11.053,5.968,14.368,1.101,3.318,4.642,1.77,3.98-2.872-.658-4.642-.985-7.411-1.865-12.496-.44-2.541-2.924-3.899-5.099-3.871h0ZM998.302,688.277c-2.171-.028-4.659,1.33-5.099,3.871-.88,5.085-1.204,7.855-1.865,12.496s2.879,6.19,3.98,2.872c1.098-3.315,4.381-9.055,5.968-14.368.992-3.315-.809-4.842-2.984-4.87h0ZM455.919,681.338c-2.53-.454-2.893,6.095-.746,8.748,2.861,3.537,6.834,7.812,10.818,12.616,3.301,3.984,5.342.443,3.361-2.872-1.981-3.318-4.92-6.841-10.198-15.245-1.323-2.097-2.393-3.097-3.234-3.248h0ZM923.553,681.338c-.841.151-1.911,1.151-3.23,3.248-5.282,8.404-8.221,11.926-10.202,15.245-1.981,3.315.06,6.855,3.361,2.872,3.984-4.804,7.96-9.079,10.818-12.616,2.147-2.653,1.784-9.202-.746-8.748h0ZM398.21,697.149c-1.569-.113-2.9,1.165-2.238,4.371.918,4.466,2.256,8.168,3.357,12.369,1.098,4.202,3.98,3.48,3.98-.5s-.707-8.418-1.369-12.619c-.331-2.101-2.164-3.512-3.73-3.621h0ZM981.262,697.149c-1.566.109-3.399,1.52-3.73,3.621-.662,4.202-1.369,8.639-1.369,12.619s2.882,4.701,3.98.5c1.101-4.202,2.439-7.904,3.357-12.369.662-3.206-.669-4.483-2.238-4.371h0ZM450.32,702.829c-2.463.373-4.631,2.766-1.742,6.496,4.624,5.968,9.681,10.16,11.444,12.369,1.76,2.21,6.218,1.397,3.357-3.248-2.924-4.744-7.348-10.455-9.325-13.995-.746-1.323-2.256-1.847-3.734-1.622h0ZM928.156,702.829c-1.084.113-2.178.63-2.734,1.622-1.981,3.54-6.405,9.252-9.329,13.995-2.861,4.645,1.598,5.458,3.357,3.248,1.763-2.21,6.823-6.401,11.444-12.369,2.889-3.73.721-6.123-1.742-6.496-.33-.048-.666-.048-.996,0h0ZM368.112,719.512c-1.943-.179-2.615,1.397,0,4.997,5.94,8.178,12.496,20.558,12.936,25.862.44,5.307-2.171,5.247-4.603,5.247-7.263,0-10.811-5.324-17.412-6.869-6.602-1.548-7.562,1.939-2.861,5.37,24.208,17.687,48.472,37.422,58.205,55.351,3.962,7.295,9.315,9.962,6.345,2.998-9.104-21.34-11.31-39.41-9.329-50.351,1.981-10.944,4.684-18.313,4.353-24.616-.331-6.299-3.885-5.87-5.349,0-.989,3.98-2.907,9.255-4.226,11.247-1.32,1.988-6.63,3.104-11.69-3.748-5.064-6.855-17.835-20.048-22.015-23.367-1.569-1.242-3.188-2.016-4.353-2.122h0ZM1011.361,719.512c-1.165.106-2.784.88-4.353,2.122-4.181,3.318-16.951,16.511-22.012,23.367-5.064,6.852-10.371,5.736-11.694,3.748-1.32-1.992-3.238-7.267-4.226-11.247-1.46-5.87-5.018-6.299-5.349,0-.331,6.303,2.372,13.672,4.353,24.616,1.981,10.941-.225,29.011-9.329,50.351-2.97,6.964,2.382,4.297,6.345-2.998,9.734-17.93,33.998-37.665,58.205-55.351,4.701-3.431,3.741-6.918-2.861-5.37-6.602,1.545-10.149,6.869-17.412,6.869-2.432,0-5.043.06-4.603-5.247.44-5.303,6.996-17.683,12.936-25.862,2.615-3.6,1.943-5.177,0-4.997h0Z"/>
        <path class="cls-2" d="M402.933,851.734l7.784,24.612M418.944,847.068l6.897,24.876M436.237,844.228l4.74,25.376M452.287,841.022l5.071,25.309M472.87,838.995l4.124,25.478M494.766,839.019l4.441,25.429M516.137,831.802l3.209,25.612M536.245,833.1l3.209,25.608M555.706,830.507l3.206,25.612M575.236,828.494l1.767,25.752M596.111,828.487l1.531,25.767M615.033,827.185l1.306,25.781M635.902,825.886l1.084,25.788M659.901,825.239l1.084,25.788M976.54,851.734l-7.784,24.613M960.528,847.068l-6.897,24.876M943.235,844.228l-4.74,25.376M927.185,841.022l-5.071,25.309M906.602,838.995l-4.124,25.478M884.706,839.019l-4.441,25.429M863.335,831.802l-3.209,25.612M843.227,833.1l-3.209,25.608M823.767,830.507l-3.206,25.612M804.236,828.494l-1.767,25.752M783.361,828.487l-1.531,25.767M764.439,827.185l-1.306,25.781M743.571,825.886l-1.084,25.788M719.571,825.239l-1.08,25.788M689.736,823.56v28.395"/>
      </g>
    </g>
  </g>
</svg>