<?xml version="1.0" encoding="UTF-8"?>
<svg xmlns="http://www.w3.org/2000/svg" viewBox="0 0 3600.1 2401.738">
  <defs>
    <style>
      .cls-1, .cls-2, .cls-3, .cls-4, .cls-5 {
        fill-rule: evenodd;
      }

      .cls-1, .cls-2, .cls-3, .cls-4, .cls-5, .cls-6 {
        stroke-width: 0px;
      }

      .cls-1, .cls-6 {
        fill: #ffbe29;
      }

      .cls-2 {
        fill: #00534e;
      }

      .cls-3 {
        fill: #eb7400;
      }

      .cls-5 {
        fill: #8d153a;
      }
    </style>
  </defs>
  <g id="background">
    <path id="lk" class="cls-1" d="M400,.1h2800c220,0,400,180,400,400v1600c0,220-180,400-400,400H400C180,2400.1,0,2220.1,0,2000.1V400.1C0,180.1,180,.1,400,.1Z"/>
  </g>
  <g id="country">
    <g id="lk-2" data-name="lk">
      <g>
        <path class="cls-3" d="M152.113,203.275h988.732v1997.884H152.113V203.275Z"/>
        <path class="cls-2" d="M152.113,203.275h494.366v1997.884H152.113V203.275Z"/>
        <path class="cls-5" d="M1289.789,203.275h2170.775v1997.884H1289.789V203.275Z"/>
        <g>
          <path class="cls-6" d="M1468.453,1974.162c-33.652,24.826-102.654,23.032-131.939,51.991-35.091,34.146,2.725,79.263,2.409,83.177l-1.927,23.831s23.663.279,33.626,1.803c14.98,2.294,20.824,14.27,48.714,12.489,70.127-4.468,67.3-66.533,71.268-119.567,3.521-20.196,11.672-46.531,16.301-66.717,3.961-17.27,4.812-44.731,4.817-44.867-.139.277-20.631,41.168-43.27,57.86Z"/>
          <path class="cls-6" d="M3284.343,426.168c33.091-24.823,100.943-23.029,129.739-51.988,34.507-34.149-2.678-79.263-2.367-83.18l1.895-23.825s-23.27-.282-33.065-1.806c-14.733-2.294-20.478-14.27-47.903-12.492-68.958,4.471-66.179,66.537-70.08,119.57-3.464,20.196-11.478,46.527-16.032,66.717-3.904,17.31-4.737,44.866-4.738,44.873.008-.017,20.223-41.121,42.55-57.869Z"/>
          <path class="cls-6" d="M1490.608,372.447c-3.968-53.033-1.141-115.099-71.268-119.57-27.89-1.778-33.734,10.198-48.714,12.492-9.963,1.524-33.626,1.806-33.626,1.806l1.927,23.825c.314,3.917-37.499,49.031-2.409,83.18,29.285,28.958,98.287,27.165,131.939,51.988,22.716,16.751,43.273,57.869,43.273,57.869h0s-.849-27.561-4.82-44.873c-4.63-20.19-12.781-46.521-16.301-66.717Z"/>
          <path class="cls-6" d="M3414.088,2026.153c-28.806-28.958-96.655-27.165-129.739-51.988-22.337-16.748-42.551-57.852-42.56-57.869,0,.009.825,27.563,4.754,44.873,4.532,20.187,12.549,46.518,16.004,66.714,3.929,53.037,1.141,115.099,70.099,119.57,27.412,1.781,33.179-10.195,47.884-12.489,9.824-1.524,33.084-1.806,33.084-1.806l-1.901-23.828c-.317-3.914,36.887-49.031,2.377-83.177Z"/>
        </g>
        <g>
          <path class="cls-6" d="M3004.612,811.015c-5.891,7.105-7.507,12.755-5.783,20.206,2.114,9.127,1.29,10.344-7.013,10.344-10.905,0-32.403-13.979-70.587-45.894-58.224-48.67-128.972-89.924-180.06-104.989-32.783-9.672-102.815-13.446-136.141-7.336-36.07,6.611-78.734,27.288-101.972,49.421-41.184,39.223-41.837,91.417-1.74,138.945l11.488,13.614-7.777,12.099c-11.313,17.604-10.344,41.292,2.402,58.741,5.612,7.685,11.275,13.969,12.584,13.966,1.309-.003,2.741-4.944,3.185-10.981,1.128-15.265,7.669-25.495,18.894-29.545,10.112-3.648,16.65-1.924,62.949,16.59,48.711,19.474,128.814,20.811,213.991,3.575,41.755-8.452,90.995-7.954,112.655,1.138,39.708,16.663,48.914,60.018,19.724,92.925-12.638,14.245-24.823,20.047-65.738,31.297-31.132,8.56-38.507,9.127-109.274,8.42-60.458-.605-82.185.558-106.865,5.72-26.791,5.603-43.273,6.167-121.972,4.18l-90.998-2.298,10.09,8.373c5.549,4.601,13.392,10.268,17.427,12.587,6.861,3.945,6.633,4.475-3.568,8.265-5.996,2.225-19.302,4.047-29.57,4.047h-18.669l-2.513,15.893c-1.382,8.743-1.277,18.948.234,22.681,2.225,5.505,1.394,6.294-4.396,4.186-3.926-1.429-14.863-4.24-24.303-6.246-9.437-2.009-22.142-6.094-28.233-9.082-10.242-5.023-11.38-4.89-15.151,1.797-3.369,5.974-34.992,29.548-39.635,29.548-.748,0-1.714-4.544-2.148-10.1-.431-5.558-4.994-20.022-10.138-32.146-5.143-12.122-10.515-25.346-11.934-29.386-2.142-6.097-3.115-6.411-5.698-1.838-1.714,3.033-4.215,11.298-5.562,18.368-1.344,7.073-6.107,18.561-10.588,25.53l-8.144,12.67-5.197-10.835c-5.577-11.63-14.834-23.692-18.187-23.692-1.131,0-3.058,3.72-4.284,8.265-2.554,9.494-24.509,35.819-29.871,35.819-1.978,0-3.591-7.441-3.591-16.533s-1.743-16.53-3.872-16.53-3.872,2.351-3.872,5.229c0,6.988-18.751,27.833-25.041,27.833-2.744,0-7.159,2.478-9.808,5.508-6.915,7.904-12.568,6.794-9.662-1.892,1.363-4.075.475-13.579-1.968-21.125l-5.78-17.845c-.922-2.858-7.644-2.101-21.863,2.469-22.982,7.381-30.686,6.075-18.865-3.201,4.319-3.388,10.892-15.129,14.603-26.09,3.711-10.962,9.19-20.687,12.172-21.613,4.174-1.296,3.952.304-.97,6.972-3.514,4.76-6.401,11.177-6.414,14.264,0,3.087-2.659,10.404-5.878,16.26-3.217,5.856-5.242,11.228-4.497,11.934.748.71,9.491-2.618,19.432-7.393l18.073-8.68.073,7.767c.044,4.269,2.221,15.538,4.842,25.038l4.763,17.274,12.305-5.666c12.571-5.787,24.481-26.426,24.481-42.427,0-7.91,4.525-6.696,6.376,1.711.545,2.466,3.385,11.725,6.31,20.576l5.321,16.089,8.423-10.157c4.633-5.59,10.442-16.549,12.907-24.357,4.281-13.554,11.003-19.382,11.003-9.539,0,7.092,19.325,32.533,23.051,30.346,1.803-1.055,5.391-10.604,7.973-21.217,5.372-22.072,14.039-37.084,19.547-33.855,2.073,1.214,2.878,3.568,1.794,5.235-1.087,1.667,3.366,16.016,9.89,31.89,4.868,11.833,9.722,23.671,14.562,35.515,2.383,5.879,4.535,5.026,18.523-7.349,8.705-7.701,16.606-16.32,17.556-19.157,1.439-4.284,3.381-4.129,11.519.932,11.383,7.076,49.655,18.475,52.609,15.671,1.106-1.049,2.244-11.117,2.523-22.373l.51-20.466,11.006,2.288c6.053,1.258,18.78,1.179,28.283-.174l17.278-2.456-15.398-10.581c-8.471-5.821-17.033-13.354-19.03-16.739-2.126-3.606-9.662-6.668-18.203-7.397-23.067-1.962-63.957-24.934-63.957-35.933,0-2.063,5.663,1.448,12.587,7.802,15.354,14.099,36.688,22.947,55.315,22.947h13.94l-8.623-11.488c-4.953-6.601-9.396-19.122-10.439-29.421-1.664-16.419-3.394-19.03-20.51-30.945-10.277-7.162-23.01-17.889-28.293-23.847l-9.605-10.828-4.899,12.857c-2.697,7.073-5.99,12.857-7.32,12.857s-6.512-4.132-11.513-9.184c-5.004-5.051-10.1-9.165-11.323-9.139-1.227.019-5.657,6.826-9.846,15.119l-7.618,15.075-5.888-8.689c-3.236-4.779-10.882-13.237-16.992-18.792-6.11-5.558-9.323-10.103-7.14-10.103s9.723,5.787,16.755,12.863l12.79,12.863,5.204-9.425c3.087-5.593,4.247-14.181,2.846-21.128-2.038-10.125-1.752-10.711,2.123-4.357,2.462,4.04,9.944,11.789,16.625,17.214l12.144,9.871,8.382-15.379c8.341-15.306,8.401-15.335,12.198-6.195,5.074,12.223,41.802,42.382,73.071,60.005,4.82,2.716,2.789-6.623-6.113-28.103-2.358-5.685-4.284-15.94-4.284-22.785,0-10.154-2.925-14.673-15.889-24.557-18.716-14.267-24.769-24.414-28.296-47.434-1.429-9.323-4.706-19.695-7.279-23.045-3.822-4.972-4.453-2.19-3.429,15.116.688,11.665-.827,26.17-3.369,32.229l-4.617,11.022-3.568-9.184c-1.965-5.051-10.648-13.836-19.299-19.521-8.651-5.685-14.72-11.291-13.491-12.457,1.23-1.166,10.128,4.015,19.775,11.513,14.698,11.424,17.933,12.66,19.971,7.631,2.39-5.913-.003-31.639-4.624-49.614-2.307-8.978-2.104-8.93,8.949,2.142,8.154,8.167,12.66,17.905,16.156,34.897,4.437,21.587,6.674,25.181,26.601,42.709,11.966,10.527,22.383,18.545,23.143,17.826.76-.726,2.272-27.951,3.356-60.506,2.079-62.43-.273-77.283-15.281-96.573l-7.71-9.91,12.122-13.097c15.817-17.087,23.077-30.784,26.227-49.472l2.561-15.202-13.681,12.98c-11.202,10.629-16.552,12.977-29.526,12.977-12.85,0-17.867-2.155-26.525-11.396-10.388-11.088-28.797-21.758-46.496-26.949-6.541-1.92-8.715-1.084-8.715,3.346,0,3.248-3.613,12.622-8.027,20.83l-8.024,14.926-16.818-16.65c-10.315-10.214-22.557-18.165-31.665-20.564-23.267-6.129-24.525-5.52-24.525,11.846,0,26.338-11.228,31.247-31.433,13.738-15.401-13.345-28.179-16.248-57.388-13.031l-22.557,2.484,4.06,10.201c3.391,8.521,2.627,12.109-4.636,21.787-11.782,15.696-27.101,22.494-50.679,22.494-10.863,0-24.452,2.253-30.204,5.004-5.752,2.751-20.041,5.92-31.754,7.045-11.713,1.122-24.199,3.128-27.745,4.453-5.546,2.076-6.157.364-4.37-12.274,2.738-19.347-10.753-33.617-31.776-33.617-27.279,0-39.86,24.443-29.177,56.681,2.057,6.205,4.747,15.991,5.977,21.746,1.28,5.97,13.567,21.812,28.616,36.897,14.505,14.539,28.214,29.668,30.464,33.617,2.25,3.952,9.691,10.293,16.533,14.093l12.442,6.905-1.642-13.335c-1.803-14.657,1.385-16.954,9.171-6.614,2.782,3.698,9.849,9.675,15.709,13.281,9.225,5.682,10.648,5.796,10.648.862,0-3.131,1.879-10.347,4.18-16.032l4.18-10.344,7.251,14.07c3.987,7.739,16.957,25.327,28.822,39.087,23.023,26.693,37.049,56.526,29.808,63.393-2.935,2.786-10.873,2.57-27.323-.745-12.752-2.567-28.524-3.923-35.052-3.014-13.329,1.854-14.378.13-6.18-10.15,8.651-10.851,7.273-12.641-9.723-12.641-19.664,0-68.479-9.44-87.221-16.869-18.222-7.222-22.424-5.425-27.789,11.887-2.412,7.793-6.832,21.911-9.821,31.373l-5.432,17.208,19.714-1.901c10.841-1.046,24.788-3.423,30.99-5.286,6.205-1.86,11.839-2.849,12.527-2.196.688.653-2.076,7.378-6.142,14.942l-7.393,13.757,12.289-2.51c6.763-1.382,16.932-4.76,22.605-7.507,9.865-4.782,10.657-4.433,18.444,8.081,9.57,15.389,17.227,14.755,18.925-1.565,1.756-16.872,7.295-14.375,17.718,7.983,10.024,21.499,20.45,29.088,22.453,16.346.666-4.234,6.065-11.12,11.998-15.31,12.001-8.468,21.045-5.926,26.233,7.371,5.365,13.766-6.604,27.954-41.425,49.098-69.756,42.357-110.301,100.287-121.877,174.121-10.439,66.597,22.17,135.415,87.585,184.842,31.307,23.653,81.038,48.619,77.879,39.093-13.421-40.453-12.98-117.643.748-130.665,2.06-1.952,1.35,6.1-1.575,17.899-10.898,43.951-6.164,78.969,21.774,161.046,25.27,74.231,21.774,105.956-13.991,126.928-11.488,6.734-18.884,7.843-49.769,7.469-33.512-.409-37.163.269-47.922,8.854-10.429,8.328-23.955,35.664-23.955,48.423,0,6.912,7.663,5.996,22.716-2.709l.009-.016,13.037-7.539,5.578,7.555c7.428,10.062,27.986,9.947,41.625-.234l10.432-7.783,8.734,7.783c11.485,10.236,32.929,10.249,46.622.038,9.586-7.153,10.924-7.298,17.262-1.854,3.778,3.242,14.863,6.937,24.629,8.208,17.591,2.285,17.857,2.161,28.15-13.307,8.62-12.955,9.97-18.196,7.913-30.762-1.366-8.328-2.833-21.736-3.264-29.789-.783-14.587-.697-14.679,20.513-22.075,11.713-4.088,25.27-9.567,30.128-12.179,8.471-4.554,31.827-32.048,31.827-37.467,0-1.436-9.124-3.635-20.275-4.89-44.353-4.982-51.864-28.841-23.029-73.157,47.022-72.273,75.4-142.659,75.587-187.495.086-20.041,1.223-26.769,3.796-22.411,10.505,17.81-8.316,92.491-36.83,146.117l-11.481,21.594,10.955-2.526c6.027-1.388,41.451-16.358,78.721-33.268,102.014-46.283,137.053-55.353,203.074-52.568,55.312,2.332,78.867,13.158,117.919,54.187,20.69,21.736,40.617,37.29,77.077,60.148,77.673,48.705,80.911,52.923,84.603,110.196,3.743,58.031,1.882,61.181-41.935,70.878-37.451,8.287-60.928,25.777-67.224,50.074-3.362,12.977,3.714,13.348,22.595,1.192l13.839-8.908,6.151,8.908c8.09,11.713,25.282,11.76,39.562.108l10.784-8.8,11.025,8.8c17.132,13.674,39.914,10.359,46.34-6.747,1.236-3.286,4.535-2.231,11.215,3.581,12.514,10.898,44.597,15.569,48.061,7.004,1.321-3.27-1.192-11.342-5.584-17.94-18.666-28.036-24.503-41.406-24.747-56.668-.336-21.226,5.986-31.465,30.087-48.73,29.275-20.969,38.323-48.026,16.057-48.026-13.744,0-27.605-12.169-36.44-32.007-17.965-40.323-14.444-85.529,12.518-160.729,27.39-76.383,30.426-90.469,30.533-141.554.092-41.302-.948-48.448-10.331-71.094-5.736-13.845-17.372-34.46-25.862-45.811l-15.433-20.64,19.816-16.444c60.506-50.213,48.128-132.395-24.709-164.06-22.281-9.685-27.849-10.54-66.898-10.277-23.428.155-59.15,3.245-79.381,6.861-20.63,3.689-55.547,6.652-79.498,6.747-38.054.155-44.512-.786-59.175-8.604-15.291-8.154-17.911-12.023-20.906-30.866-.615-3.876-3.318-7.739-6.008-8.588-5.2-1.642-29.218,19.236-32.768,28.486-1.749,4.563-3.179,4.25-8.316-1.838-3.41-4.04-8.173-13.326-10.581-20.633-6.062-18.377,1.382-32.156,22.947-42.477l16.729-8.011-9.865-6.132c-20.358-12.654-54.976-3.996-67.497,16.881-3.54,5.904-7.403,10.746-8.585,10.759-1.179.009-7.91-5.622-14.958-12.518-26.287-25.729-17.242-63.795,17.914-75.419,18.748-6.195,35.338-1.467,38.789,11.054,5.27,19.119,21.654-6.012,18.716-28.708-1.955-15.088-1.661-15.611,8.762-15.611,14.495,0,45.349,19.055,54.89,33.905,11.082,17.246,10.277,44.401-1.921,64.642l-9.577,15.893,12.527-2.513c18.371-3.686,36.219-15.113,45.247-28.974,9.545-14.65,10.572-43.181,2.107-58.576-8.201-14.92-7.263-17.287,4.864-12.245,20.624,8.575,31.649,18.032,39.92,34.241,7.447,14.596,7.862,18.222,3.831,33.417-2.488,9.374-8.024,21.705-12.302,27.402-6.658,8.876-6.886,10.363-1.581,10.363,9.884,0,30.521-9.371,37.854-17.186,3.702-3.949,9.101-13.671,11.995-21.606l5.267-14.425,6.05,10.996c8.553,15.55,25.184,29.545,45.463,38.253,21.809,9.364,30.892,9.891,19.486,1.131-7.691-5.907-21.86-47.564-17.566-51.636,2.526-2.399,32.137,20.424,65.944,50.828,31.982,28.759,52.076,38.18,81.45,38.18,37.524,0,59.371-32.72,42.506-63.659-9.833-18.035-31.738-20.542-44.544-5.096Z"/>
          <path class="cls-1" d="M2587.934,1735.686l14.197-9.07,9.634,9.07c12.622,11.884,27.409,11.618,39.543-.71,5.295-5.381,10.049-9.108,10.565-8.284.517.824,2.878,4.811,5.248,8.861,3.001,5.127,9.168,7.704,20.301,8.483,13.411.941,17.014-.349,22.345-8.008l6.351-9.13,13.975,8.93c38.26,24.446,58.646-1.201,41.549-52.273-8.696-25.967-3.914-40.563,24.107-73.616,11.814-13.937,21.492-28.813,21.505-33.056,0-6.766-2.187-7.672-17.911-7.365-15.05.298-19.451-1.309-27.374-9.976-12.882-14.099-12.118-30.248,2.285-48.169l11.504-14.314-20.412-13.769c-11.228-7.577-31.472-25.498-44.994-39.825-30.359-32.181-60.211-47.44-99.577-50.904l-26.395-2.32.038,19.863c.051,25.568,12.122,50.165,45.07,91.828,37.461,47.374,40.075,54.707,41.593,116.626l1.284,52.362-10.841,10.226c-9.795,9.238-14.21,10.417-45.818,12.229-30.093,1.724-36.415,3.27-45.244,11.044-11.728,10.331-15.233,15.95-18.856,30.213-2.111,8.312-1.255,10.125,4.779,10.125,4.044,0,13.738-4.082,21.546-9.073h.003ZM1790.487,1600.711c3.347-4.506,6.081-11.786,6.081-16.175,0-6.633,2.972-8.401,17.591-10.47l17.588-2.491-11.728-9.32c-13.937-11.072-15.227-19.724-2.944-19.743,12.236,0,32.955-12.667,36.105-22.037,1.464-4.354.542-10.173-2.082-13.161-6.861-7.802-19.756-6.626-22.151,2.022-2.573,9.295-6.883,9.32-16.656.092-14.698-13.88-15.027-42.611-.681-59.34,6.763-7.885,6.702-8.401-1.917-16.539-9.276-8.759-15.899-26.087-11.542-30.204,1.388-1.309,8.715-.266,16.282,2.32,10.756,3.673,15.002,3.727,19.432.253,13.421-10.515-1.119-24.04-22.643-21.058-8.664,1.201-12.242,0-13.487-4.478-.941-3.397-8.518-7.834-17.052-9.986-15.256-3.844-15.363-3.796-15.363,6.68,0,11.481-6.572,13.646-19.065,6.281-10.15-5.986-19.993-1.337-19.993,9.437,0,10.055,10.141,15.012,28.318,13.845,13.94-.897,14.46,9.441,1.22,24.297l-9.523,10.686,7.542,10.803c11.174,16,10.233,42.576-1.974,55.775l-9.567,10.347-6.278-8.297c-8.721-11.532-20.656-10.759-23.926,1.55-2.142,8.059-.371,11.744,9.751,20.282,6.804,5.742,16.739,10.439,22.075,10.439,13.205,0,12.689,10.353-1.039,20.814l-10.74,8.182,16.599,2.57c9.13,1.41,16.599,4.066,16.599,5.901,0,7.035,11.507,28.914,15.205,28.914,2.136,0,6.62-3.689,9.963-8.195v.003Z"/>
          <path class="cls-1" d="M2005.691,1508.642c15.116-5.885,47.83-33.24,47.83-39.999,0-2.123-9.029-11.931-20.066-21.793-23.226-20.751-48.489-55.699-55.036-76.129-3.413-10.654-19.905-28.892-66.362-73.385l-61.818-59.207-17.819,4.456c-9.799,2.453-21.755,4.516-26.569,4.589-8.296.124-8.144.596,2.884,9.025l11.637,8.892,16.314-8.943c15.81-8.664,16.374-8.718,18.323-1.743,1.144,4.082-1.321,11.158-5.692,16.355-4.24,5.039-6.652,10.756-5.365,12.701,1.287,1.949-2.786,6.021-9.051,9.048-11.608,5.616-19.664,24.094-10.502,24.094,8.239,0,26.414-22.142,24.319-29.63-1.071-3.834-.551-7.78,1.154-8.765,7.08-4.091,6.636,13.291-.555,21.844-4.24,5.036-6.652,10.752-5.365,12.701,1.287,1.946-2.786,6.018-9.051,9.048-11.532,5.577-19.67,24.094-10.588,24.094,8.899,0,26.775-21.16,24.56-29.076-1.157-4.142-.71-8.338.998-9.323,4.766-2.754,7.339,10.968,3.315,17.693-2.155,3.603-2.136,8.518.051,12.419,3.958,7.064-.054,20.63-7.352,24.848-3.128,1.806-1.008,5.356,6.576,11.012,10.977,8.186,11.193,9.044,11.193,45.168,0,30.188,1.233,37.981,6.848,43.235,6.303,5.898,6.851,5.92,6.851.263,0-6.176,10.981-13.725,19.962-13.725,2.649,0,19.204,13.852,36.786,30.784,17.686,17.033,36.196,31.529,41.438,32.451,5.21.919,10.851,1.895,12.534,2.168,1.686.276,9.612-2.05,17.617-5.166l.003-.003ZM1819.014,1362.277c0-10.524-20.944-21.762-45.995-24.674-20.225-2.351-20.554-2.218-20.554,8.255,0,8.67,3.182,12.08,17.141,18.38,22.433,10.125,49.408,9.054,49.408-1.962Z"/>
          <path class="cls-1" d="M1839.087,1360.924c10.207-9.77,15.043-21.388,8.902-21.388-7.061,0-25.805,17.743-25.805,24.427,0,10.432,3.483,9.805,16.903-3.039ZM1818.894,1331.579c.83-5.146-2.567-8.582-12.746-12.895-21.955-9.298-48.207-13.605-54.529-8.946-11.646,8.585-3.885,20.107,14.932,22.18,7.577.833,17.851,3.001,22.833,4.817,14.463,5.267,28.217,2.865,29.51-5.156h0ZM1818.865,1302.912c1.182-7.659-3.831-10.401-44.781-24.477-30.568-10.505-44.103-5.552-34.333,12.572,3.403,6.316,9.117,9.2,21.926,11.072,9.529,1.394,22.551,4.117,28.939,6.056,17.065,5.172,26.924,3.35,28.249-5.223h0ZM1839.499,1274.052c6.164-6.595,11.206-14.375,11.206-17.293,0-9.463-24.341,7.279-27.444,18.875-3.72,13.909,2.313,13.323,16.238-1.581h0ZM1818.929,1271.729c1.36-8.483-13.624-16.146-43.092-22.034-21.616-4.319-31.151-1.87-29.535,7.59.884,5.162,8.084,8.937,28.508,14.939,32.688,9.605,42.522,9.494,44.119-.494h0ZM1846.119,1231.562c37.287-16.831,40.51-59.276,5.353-70.419-14.6-4.627-23.92-2.133-29.507,7.894-4.278,7.679-1.417,21.638,4.437,21.638,1.974,0,3.594,2.583,3.594,5.742,0,14.739-56.931,21.416-80.274,9.415-8.205-4.215-11.773-15.157-4.947-15.157,5.099,0,8.626-11.152,6.021-19.036-3.552-10.746-14.232-14.467-29.722-10.36-34.948,9.266-33.966,50.913,1.616,68.584,29.18,14.492,93.144,15.373,123.427,1.699h.003Z"/>
          <path class="cls-1" d="M1823.596,1199.39c2.155-2.054,1.217-5.21-2.39-8.068-7.9-6.259-7.479-15.569,1.188-26.224,6.506-8.002,7.32-19.981,9.558-140.78,3.86-208.176,19.22-364.76,39.461-402.322,8.062-14.955,6.931-15.015-13.896-.732-26.826,18.399-47.25,42.354-65.348,76.652-34.168,64.749-46.043,151.859-46.043,337.814,0,105.585.713,119.396,6.68,129.324,5.666,9.425,5.97,12.907,1.987,22.975-2.58,6.528-3.752,12.765-2.602,13.861,7.628,7.282,63.203,5.352,71.404-2.481v-.019ZM2138.802,1000.889c1.176-1.848-1.426-11.187-5.78-20.748-6.791-14.91-9.529-17.388-19.204-17.388-30.309,0-79.032-13.887-129.264-36.84-29.006-13.256-39.026-16.301-42.503-12.923-8.876,8.617,5.875,29.073,28.718,39.825,20.266,9.539,76.915,21.258,102.759,21.258,14.989,0,15.344.694,6.813,13.335l-6.275,9.301,16.957.447c9.329.244,22.205,1.74,28.616,3.324,16.65,4.113,16.805,4.117,19.166.412l-.004-.003Z"/>
          <path class="cls-4" d="M2316.045,1093.967c0-5.321-15.766-19.74-31.738-29.031-12.546-7.295-14.619-7.517-14.647-1.565-.041,9.035-8.147,31.735-11.329,31.735-1.797,0-4.449-4.437-5.901-9.859-1.448-5.422-7.53-16.105-13.513-23.742l-10.879-13.887-8.471,12.866c-7.894,11.995-21.575,23.739-27.643,23.739-1.451,0-1.733-6.316-.631-14.036,1.198-8.388.273-15.04-2.301-16.533-2.367-1.375-4.303-.894-4.303,1.065,0,4.519-18.998,25.878-23.017,25.878-1.654,0-3.974-6.119-5.153-13.601-1.396-8.778-2.878-17.541-4.446-26.29-1.271-6.981,1.436-2.25,6.012,10.518l8.319,23.216,9.124-14.15c5.017-7.78,9.13-16.282,9.143-18.894,0-2.611,1.708-3.768,3.771-2.57s4.934,10.55,6.379,20.786l2.63,18.605,10.04-10.908c5.52-5.999,11.988-14.032,14.375-17.851,4.259-6.813,4.5-6.807,12.968.314,4.747,3.99,12.042,13.529,16.216,21.204,4.17,7.672,8.141,13.383,8.826,12.692.681-.691,2.209-8.601,3.397-17.579,1.185-8.975,2.244-16.653,2.351-17.059.593-2.225,30.239,16.878,41.21,26.55,7.048,6.218,13.744,10.432,14.879,9.368,1.134-1.062,2.06-10.236,2.06-20.38,0-15.725-1.68-19.936-11.383-28.534-11.155-9.884-11.469-9.938-15.588-2.706-5.349,9.383-11.662,9.517-11.662.25,0-6.766-21.08-32.768-26.566-32.768-1.42,0-5.86,5.714-9.865,12.692-4.006,6.981-8.312,12.689-9.57,12.679-5.409-.032-35.129-32.875-35.113-38.805,0-4.716,2.003-3.508,7.213,4.367,3.958,5.983,11.868,14.917,17.572,19.851,11.557,9.992,15.756,7.561,20.215-11.69,1.271-5.486,3.48-9.973,4.906-9.973,4.941,0,30.812,27.234,34.454,36.266l3.651,9.067,2.767-9.973c3.384-12.198,7.118-12.651,12.521-1.521,2.256,4.649,13.399,14.314,24.766,21.476l20.662,13.028,4.148-13.101c2.282-7.206,5.302-11.348,6.715-9.203,2.104,3.198-3.267,24.908-7.317,29.576-.609.7-7.305-3.163-14.882-8.588l-13.776-9.865-.054,17.658c-.038,9.713-1.1,21.327-2.383,25.818-2.503,8.775-9.155,11.244-9.155,3.397h0ZM2211.284,952.023c-24.595-20.992-28.331-25.796-27.786-35.743l.58-10.588,1.607,10.226c.935,5.974,7.485,14.923,15.74,21.511l14.14,11.282,8.689-10.274c4.779-5.647,8.75-12.378,8.826-14.955.203-6.715,1.382-6.151,18.035,8.62,14.796,13.123,15.024,13.186,17.227,4.681,1.226-4.738.789-13.662-.97-19.828-4.833-16.954-3.885-19.512,3.438-9.288,3.651,5.096,9.52,12.296,13.044,16.003,6.132,6.452,6.506,6.373,8.788-1.873,1.312-4.738,2.408-13.408,2.437-19.271l.054-10.654,13.342,15.458c12.461,14.438,13.608,14.97,17.411,8.091,2.24-4.05,4.101-13.798,4.132-21.657.041-10.157,1.087-12.717,3.616-8.851,4.218,6.455,1.29,24.037-6.503,39.02l-5.59,10.752-7.343-11.687c-9.39-14.945-12.514-14.707-18.539,1.423-5.692,15.24-9.393,16.4-14.942,4.681-3.59-7.583-4.272-6.655-6.82,9.279l-2.833,17.705-16.967-13.459-16.97-13.462-7.628,8.864c-4.196,4.877-7.685,10.974-7.755,13.548-.155,5.584-4.237,5.758-10.458.447h-.003ZM2431.515,875.739c-8.728-7.834-14.739-15.309-13.361-16.612,1.379-1.299,2.931-1.673,3.451-.827.52.846,7.653,8.322,15.855,16.609,18.881,19.09,14.999,19.629-5.945.83ZM2138.463,843.57c-8.239-10.705-7.672-17.797,2.358-29.402,7.247-8.385,10.559-9.523,23.213-7.976,8.119.989,25.59,7.885,38.82,15.316,15.284,8.585,31.094,14.337,43.336,15.766,10.604,1.239,19.277,1.705,19.277,1.036s-4.405-7.561-9.786-15.322c-12.784-18.428-12.346-20.405,2.073-9.364,14.799,11.332,32.501,14.647,72.06,13.494l19.325-.567-11.212-10.648c-15.68-14.898-10.854-16.232,6.462-1.791,16.241,13.548,15.224,14.501-18.96,17.778-14.524,1.394-30.144.383-43.13-2.789-19.426-4.747-20.18-4.678-16.498,1.581,2.12,3.606,5.555,6.557,7.631,6.557s3.778,1.829,3.778,4.063c0,6.867-41.958.827-62.008-8.927-45.802-22.284-51.566-24.214-62.468-20.916-6.069,1.838-12.14,7.216-14.232,12.603-6.981,17.975,19.547,31.947,30.489,16.057,3.169-4.605,2.431-7.755-3.144-13.361-7.634-7.675-6.918-8.769,3.388-5.172,7.314,2.557,8.3,19.432,1.493,25.628-7.786,7.086-25.555,5.08-32.267-3.644h.003Z"/>
          <path class="cls-4" d="M2318.701,799.442c-5.581-5.676-1.204-7.067,23.825-7.568,30.961-.621,49.766-6.161,71.956-21.201,17.778-12.049,22.598-9.678,5.723,2.817-15.395,11.399-39.404,20.161-62.585,22.839-11.222,1.296-24.015,3.093-28.426,3.993-4.408.9-9.13.504-10.493-.881h0Z"/>
          <path class="cls-1" d="M2043.656,1737.666l13.037-7.539,5.577,7.555c7.428,10.062,27.986,9.947,41.625-.234l10.432-7.783,8.734,7.783c11.485,10.236,32.929,10.249,46.622.038,9.586-7.153,10.924-7.298,17.262-1.854,3.778,3.242,14.863,6.937,24.629,8.208,17.591,2.285,17.857,2.161,28.15-13.307,8.62-12.955,9.97-18.196,7.913-30.762-1.366-8.328-2.833-21.736-3.264-29.789-.783-14.587-.697-14.679,20.513-22.075,11.713-4.088,25.27-9.567,30.128-12.179,8.471-4.554,31.827-32.048,31.827-37.467,0-1.436-9.124-3.635-20.275-4.89-44.353-4.982-51.864-28.841-23.029-73.157,47.022-72.273,75.4-142.66,75.587-187.495.085-20.041,1.223-26.769,3.796-22.411,10.505,17.81-8.316,92.491-36.83,146.117l-11.481,21.594,10.955-2.526c6.027-1.388,41.451-16.358,78.721-33.268,102.014-46.283,137.053-55.353,203.074-52.568,55.312,2.332,78.867,13.158,117.919,54.187,20.69,21.736,40.617,37.29,77.077,60.148,77.673,48.705,80.911,52.923,84.603,110.196,3.743,58.031,1.882,61.181-41.935,70.878-37.451,8.287-60.928,25.777-67.224,50.074-3.362,12.977,3.714,13.348,22.595,1.191l13.839-8.908,6.151,8.908c8.09,11.713,25.282,11.76,39.562.108l10.784-8.8,11.025,8.8c17.132,13.674,39.914,10.359,46.34-6.747,1.236-3.286,4.535-2.231,11.215,3.581,12.514,10.898,44.598,15.569,48.061,7.004,1.321-3.27-1.191-11.342-5.584-17.94-18.666-28.036-24.503-41.406-24.747-56.668-.336-21.226,5.986-31.465,30.087-48.73,29.275-20.969,38.323-48.026,16.057-48.026-13.744,0-27.605-12.169-36.441-32.007-17.965-40.323-14.444-85.529,12.518-160.729,27.39-76.383,30.426-90.469,30.533-141.554.092-41.302-.948-48.448-10.331-71.094-5.736-13.845-17.373-34.46-25.862-45.811l-15.433-20.64,19.816-16.444c60.506-50.213,48.128-132.395-24.709-164.06-22.281-9.685-27.849-10.54-66.898-10.277-23.429.155-59.15,3.245-79.381,6.861-20.63,3.689-55.547,6.652-79.498,6.747-38.054.155-44.512-.786-59.175-8.604-15.291-8.154-17.911-12.023-20.906-30.866-.615-3.876-3.318-7.739-6.008-8.588-5.2-1.642-29.218,19.236-32.768,28.486-1.749,4.563-3.178,4.25-8.316-1.838-3.41-4.04-8.173-13.326-10.581-20.633-6.062-18.377,1.382-32.156,22.947-42.477l16.729-8.011-9.865-6.132c-20.358-12.654-54.976-3.996-67.497,16.881-3.54,5.904-7.403,10.746-8.585,10.759-1.179.009-7.91-5.622-14.958-12.518-26.287-25.729-17.243-63.795,17.914-75.419,18.748-6.195,35.338-1.467,38.789,11.054,5.27,19.119,21.654-6.012,18.716-28.708-1.955-15.088-1.661-15.611,8.762-15.611,14.495,0,45.349,19.055,54.89,33.905,11.082,17.246,10.277,44.401-1.92,64.642l-9.577,15.893,12.527-2.513c18.371-3.686,36.219-15.113,45.247-28.974,9.545-14.65,10.572-43.181,2.107-58.576-8.201-14.92-7.263-17.287,4.864-12.245,20.624,8.575,31.649,18.032,39.92,34.241,7.447,14.596,7.862,18.222,3.831,33.417-2.488,9.374-8.024,21.705-12.302,27.402-6.658,8.876-6.886,10.363-1.581,10.363,9.884,0,30.521-9.371,37.854-17.186,3.702-3.949,9.101-13.671,11.995-21.606l5.267-14.425,6.05,10.996c8.553,15.55,25.184,29.545,45.463,38.253,21.809,9.364,30.892,9.89,19.486,1.131-7.691-5.907-21.86-47.564-17.566-51.636,2.526-2.399,32.137,20.424,65.944,50.828,31.982,28.759,52.076,38.18,81.45,38.18,37.524,0,59.371-32.72,42.506-63.659-9.834-18.035-31.738-20.542-44.544-5.096-5.891,7.105-7.507,12.755-5.783,20.206,2.114,9.127,1.29,10.344-7.013,10.344-10.905,0-32.403-13.979-70.587-45.894-58.224-48.67-128.973-89.924-180.06-104.989-32.783-9.672-102.815-13.446-136.141-7.336-36.07,6.611-78.734,27.288-101.972,49.421-41.184,39.223-41.837,91.417-1.74,138.945l11.488,13.614-7.777,12.099c-11.313,17.604-10.344,41.292,2.402,58.741,5.612,7.685,11.275,13.969,12.584,13.966,1.309-.003,2.741-4.944,3.185-10.981,1.128-15.265,7.669-25.495,18.894-29.545,10.112-3.648,16.65-1.924,62.949,16.59,48.711,19.474,128.814,20.811,213.991,3.575,41.755-8.452,90.995-7.954,112.655,1.138,39.708,16.663,48.914,60.018,19.724,92.925-12.638,14.245-24.823,20.047-65.738,31.297-31.132,8.559-38.507,9.127-109.274,8.42-60.458-.605-82.185.558-106.865,5.72-26.791,5.603-43.273,6.167-121.972,4.18l-90.998-2.298,10.09,8.373c5.549,4.601,13.392,10.268,17.426,12.587,6.861,3.945,6.633,4.475-3.568,8.265-5.996,2.225-19.302,4.047-29.57,4.047h-18.669l-2.513,15.893c-1.382,8.743-1.277,18.948.234,22.681,2.225,5.505,1.394,6.294-4.395,4.186-3.926-1.429-14.863-4.24-24.303-6.246-9.437-2.009-22.142-6.094-28.233-9.082-10.242-5.023-11.38-4.89-15.151,1.797-3.369,5.974-34.992,29.548-39.635,29.548-.748,0-1.714-4.544-2.149-10.1-.431-5.558-4.994-20.022-10.138-32.147-5.143-12.122-10.515-25.346-11.934-29.386-2.142-6.097-3.115-6.411-5.698-1.838-1.714,3.033-4.215,11.298-5.562,18.368-1.344,7.073-6.107,18.561-10.588,25.53l-8.144,12.67-5.197-10.835c-5.577-11.63-14.834-23.692-18.187-23.692-1.131,0-3.058,3.72-4.284,8.265-2.554,9.494-24.509,35.819-29.871,35.819-1.978,0-3.59-7.441-3.59-16.533s-1.743-16.53-3.872-16.53-3.872,2.351-3.872,5.229c0,6.988-18.751,27.833-25.041,27.833-2.744,0-7.159,2.478-9.808,5.508-6.915,7.903-12.568,6.794-9.662-1.892,1.363-4.075.475-13.579-1.968-21.125l-5.78-17.845c-.922-2.858-7.644-2.101-21.863,2.469-22.982,7.381-30.686,6.075-18.865-3.201,4.319-3.388,10.892-15.129,14.603-26.09,3.711-10.962,9.19-20.687,12.172-21.613,4.174-1.296,3.952.304-.97,6.972-3.514,4.76-6.401,11.177-6.414,14.264,0,3.087-2.659,10.404-5.878,16.26-3.217,5.856-5.242,11.228-4.497,11.934.748.71,9.491-2.618,19.432-7.393l18.073-8.68.073,7.767c.044,4.269,2.221,15.538,4.842,25.038l4.763,17.274,12.305-5.666c12.571-5.787,24.481-26.426,24.481-42.427,0-7.91,4.525-6.696,6.376,1.711.545,2.466,3.384,11.725,6.31,20.576l5.321,16.089,8.423-10.157c4.633-5.59,10.442-16.549,12.907-24.357,4.281-13.554,11.003-19.382,11.003-9.539,0,7.092,19.325,32.533,23.051,30.346,1.803-1.055,5.39-10.604,7.973-21.217,5.372-22.072,14.039-37.084,19.547-33.855,2.073,1.214,2.878,3.568,1.794,5.235-1.087,1.667,3.366,16.016,9.89,31.89,4.868,11.833,9.722,23.671,14.562,35.515,2.383,5.879,4.535,5.026,18.523-7.349,8.705-7.701,16.606-16.32,17.556-19.157,1.439-4.284,3.381-4.129,11.519.932,11.383,7.076,49.655,18.475,52.609,15.671,1.106-1.049,2.244-11.117,2.523-22.373l.51-20.466,11.006,2.288c6.053,1.258,18.78,1.179,28.283-.174l17.278-2.456-15.398-10.581c-8.471-5.821-17.033-13.354-19.03-16.739-2.126-3.606-9.662-6.668-18.203-7.397-23.067-1.962-63.957-24.934-63.957-35.933,0-2.063,5.663,1.448,12.587,7.802,15.354,14.099,36.688,22.947,55.315,22.947h13.94l-8.623-11.488c-4.953-6.601-9.396-19.122-10.439-29.421-1.664-16.419-3.394-19.03-20.51-30.945-10.277-7.162-23.01-17.889-28.293-23.847l-9.605-10.828-4.899,12.857c-2.697,7.073-5.989,12.857-7.32,12.857s-6.512-4.132-11.513-9.184c-5.004-5.051-10.1-9.165-11.323-9.139-1.226.019-5.657,6.826-9.846,15.119l-7.618,15.075-5.888-8.689c-3.236-4.779-10.882-13.237-16.992-18.792-6.11-5.558-9.323-10.103-7.14-10.103s9.723,5.787,16.755,12.863l12.79,12.863,5.204-9.425c3.087-5.593,4.247-14.181,2.846-21.128-2.038-10.125-1.752-10.711,2.123-4.357,2.462,4.04,9.944,11.789,16.625,17.214l12.144,9.871,8.382-15.379c8.341-15.306,8.401-15.335,12.198-6.195,5.074,12.223,41.802,42.382,73.071,60.005,4.82,2.716,2.789-6.623-6.113-28.103-2.358-5.685-4.284-15.94-4.284-22.785,0-10.154-2.925-14.673-15.889-24.557-18.716-14.267-24.769-24.414-28.296-47.434-1.429-9.323-4.706-19.695-7.279-23.045-3.822-4.972-4.453-2.19-3.429,15.116.688,11.665-.827,26.17-3.369,32.229l-4.617,11.022-3.568-9.184c-1.965-5.051-10.648-13.836-19.299-19.521-8.651-5.685-14.72-11.291-13.491-12.457s10.128,4.015,19.775,11.513c14.698,11.424,17.933,12.66,19.971,7.631,2.39-5.913-.003-31.639-4.624-49.614-2.307-8.978-2.104-8.93,8.949,2.142,8.154,8.167,12.66,17.905,16.156,34.897,4.437,21.587,6.674,25.181,26.601,42.709,11.966,10.527,22.383,18.545,23.143,17.826.761-.726,2.272-27.951,3.356-60.506,2.079-62.43-.273-77.283-15.281-96.573l-7.71-9.91,12.122-13.098c15.817-17.087,23.077-30.784,26.227-49.472l2.561-15.202-13.681,12.98c-11.202,10.629-16.552,12.977-29.526,12.977-12.85,0-17.867-2.155-26.525-11.396-10.388-11.088-28.797-21.758-46.496-26.949-6.541-1.92-8.715-1.084-8.715,3.346,0,3.248-3.613,12.622-8.027,20.83l-8.024,14.926-16.818-16.65c-10.315-10.214-22.557-18.165-31.665-20.564-23.267-6.129-24.525-5.52-24.525,11.846,0,26.338-11.228,31.246-31.433,13.738-15.401-13.345-28.179-16.248-57.388-13.031l-22.557,2.484,4.06,10.201c3.391,8.521,2.627,12.109-4.636,21.787-11.782,15.696-27.101,22.494-50.679,22.494-10.863,0-24.452,2.253-30.204,5.004-5.752,2.751-20.041,5.92-31.754,7.045-11.713,1.122-24.199,3.128-27.745,4.452-5.546,2.076-6.157.364-4.37-12.274,2.738-19.347-10.752-33.617-31.776-33.617-27.279,0-39.86,24.443-29.177,56.681,2.057,6.205,4.747,15.991,5.977,21.746,1.28,5.97,13.567,21.812,28.616,36.897,14.505,14.539,28.214,29.668,30.464,33.617,2.25,3.952,9.691,10.293,16.533,14.093l12.442,6.905-1.642-13.335c-1.803-14.657,1.385-16.954,9.171-6.614,2.782,3.698,9.849,9.675,15.709,13.281,9.225,5.682,10.648,5.796,10.648.862,0-3.131,1.879-10.347,4.18-16.032l4.18-10.344,7.251,14.07c3.987,7.739,16.957,25.327,28.822,39.087,23.023,26.693,37.049,56.526,29.808,63.393-2.935,2.786-10.873,2.57-27.323-.745-12.752-2.567-28.524-3.923-35.052-3.014-13.329,1.854-14.378.13-6.18-10.15,8.651-10.851,7.273-12.641-9.723-12.641-19.664,0-68.479-9.441-87.221-16.869-18.222-7.222-22.424-5.425-27.789,11.887-2.412,7.793-6.832,21.911-9.821,31.373l-5.432,17.208,19.714-1.901c10.841-1.046,24.788-3.422,30.99-5.286,6.205-1.86,11.84-2.849,12.527-2.196s-2.076,7.377-6.142,14.942l-7.393,13.757,12.289-2.51c6.763-1.382,16.932-4.76,22.605-7.507,9.865-4.782,10.657-4.433,18.444,8.081,9.57,15.389,17.227,14.755,18.925-1.565,1.756-16.872,7.295-14.375,17.718,7.983,10.024,21.499,20.45,29.088,22.453,16.346.666-4.234,6.065-11.12,11.998-15.309,12.001-8.468,21.045-5.926,26.233,7.371,5.365,13.766-6.604,27.954-41.425,49.098-69.756,42.357-110.301,100.287-121.877,174.122-10.439,66.597,22.17,135.415,87.585,184.842,31.307,23.653,81.038,48.619,77.879,39.093-13.421-40.453-12.98-117.643.748-130.665,2.06-1.952,1.35,6.1-1.575,17.899-10.898,43.951-6.164,78.969,21.774,161.046,25.27,74.231,21.774,105.956-13.991,126.928-11.488,6.734-18.884,7.843-49.769,7.469-33.512-.409-37.163.269-47.922,8.854-10.429,8.328-23.955,35.664-23.955,48.423,0,6.912,7.663,5.996,22.716-2.709l.009-.016Z"/>
          <path class="cls-1" d="M2587.934,1735.686l14.197-9.07,9.634,9.07c12.622,11.884,27.409,11.618,39.543-.71,5.295-5.381,10.049-9.108,10.565-8.284.517.824,2.878,4.811,5.248,8.861,3.001,5.127,9.168,7.704,20.301,8.483,13.411.941,17.014-.349,22.345-8.008l6.351-9.13,13.975,8.93c38.26,24.446,58.646-1.201,41.549-52.273-8.696-25.967-3.914-40.563,24.107-73.616,11.814-13.937,21.492-28.813,21.505-33.056,0-6.766-2.187-7.672-17.911-7.365-15.05.298-19.451-1.309-27.374-9.976-12.882-14.099-12.118-30.248,2.285-48.169l11.504-14.314-20.412-13.769c-11.228-7.577-31.472-25.498-44.994-39.825-30.359-32.181-60.211-47.44-99.577-50.904l-26.395-2.32.038,19.863c.051,25.568,12.122,50.165,45.07,91.828,37.461,47.374,40.075,54.707,41.593,116.626l1.284,52.362-10.841,10.226c-9.795,9.238-14.21,10.417-45.818,12.229-30.093,1.724-36.415,3.27-45.244,11.044-11.728,10.331-15.233,15.95-18.856,30.213-2.111,8.312-1.255,10.125,4.779,10.125,4.044,0,13.738-4.082,21.546-9.073h.003ZM1790.487,1600.711c3.347-4.506,6.081-11.786,6.081-16.175,0-6.633,2.972-8.401,17.591-10.47l17.588-2.491-11.728-9.32c-13.937-11.072-15.227-19.724-2.944-19.743,12.236,0,32.955-12.667,36.105-22.037,1.464-4.354.542-10.173-2.082-13.161-6.861-7.802-19.756-6.626-22.151,2.022-2.573,9.295-6.883,9.32-16.656.092-14.698-13.88-15.027-42.611-.681-59.34,6.763-7.885,6.702-8.401-1.917-16.539-9.276-8.759-15.899-26.087-11.542-30.204,1.388-1.309,8.715-.266,16.282,2.32,10.756,3.673,15.002,3.727,19.432.253,13.421-10.515-1.119-24.04-22.643-21.058-8.664,1.201-12.242,0-13.487-4.478-.941-3.397-8.518-7.834-17.052-9.986-15.256-3.844-15.363-3.796-15.363,6.68,0,11.481-6.572,13.646-19.065,6.281-10.15-5.986-19.993-1.337-19.993,9.437,0,10.055,10.141,15.012,28.318,13.845,13.94-.897,14.46,9.441,1.22,24.297l-9.523,10.686,7.542,10.803c11.174,16,10.233,42.576-1.974,55.775l-9.567,10.347-6.278-8.297c-8.721-11.532-20.656-10.759-23.926,1.55-2.142,8.059-.371,11.744,9.751,20.282,6.804,5.742,16.739,10.439,22.075,10.439,13.205,0,12.689,10.353-1.039,20.814l-10.74,8.182,16.599,2.57c9.13,1.41,16.599,4.066,16.599,5.901,0,7.035,11.507,28.914,15.205,28.914,2.136,0,6.62-3.689,9.963-8.195v.003Z"/>
          <path class="cls-1" d="M2005.691,1508.642c15.116-5.885,47.83-33.24,47.83-39.999,0-2.123-9.029-11.931-20.066-21.793-23.226-20.751-48.489-55.699-55.036-76.129-3.413-10.654-19.905-28.892-66.362-73.385l-61.818-59.207-17.819,4.456c-9.799,2.453-21.755,4.516-26.569,4.589-8.296.124-8.144.596,2.884,9.025l11.637,8.892,16.314-8.943c15.81-8.664,16.374-8.718,18.323-1.743,1.144,4.082-1.321,11.158-5.692,16.355-4.24,5.039-6.652,10.756-5.365,12.701,1.287,1.949-2.786,6.021-9.051,9.048-11.608,5.616-19.664,24.094-10.502,24.094,8.239,0,26.414-22.142,24.319-29.63-1.071-3.834-.551-7.78,1.154-8.765,7.08-4.091,6.636,13.291-.555,21.844-4.24,5.036-6.652,10.752-5.365,12.701,1.287,1.946-2.786,6.018-9.051,9.048-11.532,5.577-19.67,24.094-10.588,24.094,8.899,0,26.775-21.16,24.56-29.076-1.157-4.142-.71-8.338.998-9.323,4.766-2.754,7.339,10.968,3.315,17.693-2.155,3.603-2.136,8.518.051,12.419,3.958,7.064-.054,20.63-7.352,24.848-3.128,1.806-1.008,5.356,6.576,11.012,10.977,8.186,11.193,9.044,11.193,45.168,0,30.188,1.233,37.981,6.848,43.235,6.303,5.898,6.851,5.92,6.851.263,0-6.176,10.981-13.725,19.962-13.725,2.649,0,19.204,13.852,36.786,30.784,17.686,17.033,36.196,31.529,41.438,32.451,5.21.919,10.851,1.895,12.534,2.168,1.686.276,9.612-2.05,17.617-5.166l.003-.003ZM1819.014,1362.277c0-10.524-20.944-21.762-45.995-24.674-20.225-2.351-20.554-2.218-20.554,8.255,0,8.67,3.182,12.08,17.141,18.38,22.433,10.125,49.408,9.054,49.408-1.962Z"/>
          <path class="cls-1" d="M1839.087,1360.924c10.207-9.77,15.043-21.388,8.902-21.388-7.061,0-25.805,17.743-25.805,24.427,0,10.432,3.483,9.805,16.903-3.039ZM1818.894,1331.579c.83-5.146-2.567-8.582-12.746-12.895-21.955-9.298-48.207-13.605-54.529-8.946-11.646,8.585-3.885,20.107,14.932,22.18,7.577.833,17.851,3.001,22.833,4.817,14.463,5.267,28.217,2.865,29.51-5.156h0ZM1818.865,1302.912c1.182-7.659-3.831-10.401-44.781-24.477-30.568-10.505-44.103-5.552-34.333,12.572,3.403,6.316,9.117,9.2,21.926,11.072,9.529,1.394,22.551,4.117,28.939,6.056,17.065,5.172,26.924,3.35,28.249-5.223h0ZM1839.499,1274.052c6.164-6.595,11.206-14.375,11.206-17.293,0-9.463-24.341,7.279-27.444,18.875-3.72,13.909,2.313,13.323,16.238-1.581h0ZM1818.929,1271.729c1.36-8.483-13.624-16.146-43.092-22.034-21.616-4.319-31.151-1.87-29.535,7.59.884,5.162,8.084,8.937,28.508,14.939,32.688,9.605,42.522,9.494,44.119-.494h0ZM1846.119,1231.562c37.287-16.831,40.51-59.276,5.353-70.419-14.6-4.627-23.92-2.133-29.507,7.894-4.278,7.679-1.417,21.638,4.437,21.638,1.974,0,3.594,2.583,3.594,5.742,0,14.739-56.931,21.416-80.274,9.415-8.205-4.215-11.773-15.157-4.947-15.157,5.099,0,8.626-11.152,6.021-19.036-3.552-10.746-14.232-14.467-29.722-10.36-34.948,9.266-33.966,50.913,1.616,68.584,29.18,14.492,93.144,15.373,123.427,1.699h.003Z"/>
          <path class="cls-1" d="M1823.596,1199.39c2.155-2.054,1.217-5.21-2.39-8.068-7.9-6.259-7.479-15.569,1.188-26.224,6.506-8.002,7.32-19.981,9.558-140.78,3.86-208.176,19.22-364.76,39.461-402.322,8.062-14.955,6.931-15.015-13.896-.732-26.826,18.399-47.25,42.354-65.348,76.652-34.168,64.749-46.043,151.859-46.043,337.814,0,105.585.713,119.396,6.68,129.324,5.666,9.425,5.97,12.907,1.987,22.975-2.58,6.528-3.752,12.765-2.602,13.861,7.628,7.282,63.203,5.352,71.404-2.481v-.019ZM2138.802,1000.889c1.176-1.848-1.426-11.187-5.78-20.748-6.791-14.91-9.529-17.388-19.204-17.388-30.309,0-79.032-13.887-129.264-36.84-29.006-13.256-39.026-16.301-42.503-12.923-8.876,8.617,5.875,29.073,28.718,39.825,20.266,9.539,76.915,21.258,102.759,21.258,14.989,0,15.344.694,6.813,13.335l-6.275,9.301,16.957.447c9.329.244,22.205,1.74,28.616,3.324,16.65,4.113,16.805,4.117,19.166.412l-.004-.003Z"/>
          <path class="cls-5" d="M2316.045,1093.967c0-5.321-15.766-19.74-31.738-29.031-12.546-7.295-14.619-7.517-14.647-1.565-.041,9.035-8.147,31.735-11.329,31.735-1.797,0-4.449-4.437-5.901-9.859-1.448-5.422-7.53-16.105-13.513-23.742l-10.879-13.887-8.471,12.866c-7.894,11.995-21.575,23.739-27.643,23.739-1.451,0-1.733-6.316-.631-14.036,1.198-8.388.273-15.04-2.301-16.533-2.367-1.375-4.303-.894-4.303,1.065,0,4.519-18.998,25.878-23.017,25.878-1.654,0-3.974-6.119-5.153-13.601-1.396-8.778-2.878-17.541-4.446-26.29-1.271-6.981,1.436-2.25,6.012,10.518l8.319,23.216,9.124-14.15c5.017-7.78,9.13-16.282,9.143-18.894,0-2.611,1.708-3.768,3.771-2.57s4.934,10.55,6.379,20.786l2.63,18.605,10.04-10.908c5.52-5.999,11.988-14.032,14.375-17.851,4.259-6.813,4.5-6.807,12.968.314,4.747,3.99,12.042,13.529,16.216,21.204,4.17,7.672,8.141,13.383,8.826,12.692.681-.691,2.209-8.601,3.397-17.579,1.185-8.975,2.244-16.653,2.351-17.059.593-2.225,30.239,16.878,41.21,26.55,7.048,6.218,13.744,10.432,14.879,9.368,1.134-1.062,2.06-10.236,2.06-20.38,0-15.725-1.68-19.936-11.383-28.534-11.155-9.884-11.469-9.938-15.588-2.706-5.349,9.383-11.662,9.517-11.662.25,0-6.766-21.08-32.768-26.566-32.768-1.42,0-5.86,5.714-9.865,12.692-4.006,6.981-8.312,12.689-9.57,12.679-5.409-.032-35.129-32.875-35.113-38.805,0-4.716,2.003-3.508,7.213,4.367,3.958,5.983,11.868,14.917,17.572,19.851,11.557,9.992,15.756,7.561,20.215-11.69,1.271-5.486,3.48-9.973,4.906-9.973,4.941,0,30.812,27.234,34.454,36.266l3.651,9.067,2.767-9.973c3.384-12.198,7.118-12.651,12.521-1.521,2.256,4.649,13.399,14.314,24.766,21.476l20.662,13.028,4.148-13.101c2.282-7.206,5.302-11.348,6.715-9.203,2.104,3.198-3.267,24.908-7.317,29.576-.609.7-7.305-3.163-14.882-8.588l-13.776-9.865-.054,17.658c-.038,9.713-1.1,21.327-2.383,25.818-2.503,8.775-9.155,11.244-9.155,3.397h0ZM2211.284,952.023c-24.595-20.992-28.331-25.796-27.786-35.743l.58-10.588,1.607,10.226c.935,5.974,7.485,14.923,15.74,21.511l14.14,11.282,8.689-10.274c4.779-5.647,8.75-12.378,8.826-14.955.203-6.715,1.382-6.151,18.035,8.62,14.796,13.123,15.024,13.186,17.227,4.681,1.226-4.738.789-13.662-.97-19.828-4.833-16.954-3.885-19.512,3.438-9.288,3.651,5.096,9.52,12.296,13.044,16.003,6.132,6.452,6.506,6.373,8.788-1.873,1.312-4.738,2.408-13.408,2.437-19.271l.054-10.654,13.342,15.458c12.461,14.438,13.608,14.97,17.411,8.091,2.24-4.05,4.101-13.798,4.132-21.657.041-10.157,1.087-12.717,3.616-8.851,4.218,6.455,1.29,24.037-6.503,39.02l-5.59,10.752-7.343-11.687c-9.39-14.945-12.514-14.707-18.539,1.423-5.692,15.24-9.393,16.4-14.942,4.681-3.59-7.583-4.272-6.655-6.82,9.279l-2.833,17.705-16.967-13.459-16.97-13.462-7.628,8.864c-4.196,4.877-7.685,10.974-7.755,13.548-.155,5.584-4.237,5.758-10.458.447h-.003Z"/>
          <path class="cls-4" d="M2431.515,875.739c-8.728-7.834-14.739-15.309-13.361-16.612,1.379-1.299,2.931-1.673,3.451-.827.52.846,7.653,8.322,15.855,16.609,18.881,19.09,14.999,19.629-5.945.83Z"/>
          <path class="cls-5" d="M2138.463,843.57c-8.239-10.705-7.672-17.797,2.358-29.402,7.247-8.385,10.559-9.523,23.213-7.976,8.119.989,25.59,7.885,38.82,15.316,15.284,8.585,31.094,14.337,43.336,15.766,10.604,1.239,19.277,1.705,19.277,1.036s-4.405-7.561-9.786-15.322c-12.784-18.428-12.346-20.405,2.073-9.364,14.799,11.332,32.501,14.647,72.06,13.494l19.325-.567-11.212-10.648c-15.68-14.898-10.854-16.232,6.462-1.791,16.241,13.548,15.224,14.501-18.96,17.778-14.524,1.394-30.144.383-43.13-2.789-19.426-4.747-20.18-4.678-16.498,1.581,2.12,3.606,5.555,6.557,7.631,6.557s3.778,1.829,3.778,4.063c0,6.867-41.958.827-62.008-8.927-45.802-22.284-51.566-24.214-62.468-20.916-6.069,1.838-12.14,7.216-14.232,12.603-6.981,17.975,19.547,31.947,30.489,16.057,3.169-4.605,2.431-7.755-3.144-13.361-7.634-7.675-6.918-8.769,3.388-5.172,7.314,2.557,8.3,19.432,1.493,25.628-7.786,7.086-25.555,5.08-32.267-3.644h.003Z"/>
          <path class="cls-5" d="M2318.701,799.442c-5.581-5.676-1.204-7.067,23.825-7.568,30.961-.621,49.766-6.161,71.956-21.201,17.778-12.049,22.598-9.678,5.723,2.817-15.395,11.399-39.404,20.161-62.585,22.839-11.222,1.296-24.015,3.093-28.426,3.993-4.408.9-9.13.504-10.493-.881h0Z"/>
        </g>
      </g>
    </g>
  </g>
</svg>