<?xml version="1.0" encoding="UTF-8"?>
<svg xmlns="http://www.w3.org/2000/svg" viewBox="0 0 3600.1 2401.738">
  <defs>
    <style>
      .cls-1 {
        fill: #002868;
      }

      .cls-1, .cls-2, .cls-3, .cls-4 {
        stroke-width: 0px;
      }

      .cls-2 {
        fill: #fff;
      }

      .cls-3 {
        fill: #eee;
      }

      .cls-4 {
        fill: #bf0a30;
        fill-rule: evenodd;
      }
    </style>
  </defs>
  <g id="background">
    <path id="lr" class="cls-4" d="M400,.1h2800c220,0,400,180,400,400v1600c0,220-180,400-400,400H400C180,2400.1,0,2220.1,0,2000.1V400.1C0,180.1,180,.1,400,.1Z"/>
  </g>
  <g id="country">
    <g id="lr-2" data-name="lr">
      <g>
        <rect class="cls-3" x="0" y="654.646" width="3600" height="218.181"/>
        <path class="cls-3" d="M3600,400.1c0-65.36-15.888-127.19-43.992-181.818H43.992C15.888,272.91,0,334.74,0,400.1v36.364h3600v-36.364Z"/>
        <rect class="cls-3" x="0" y="1091.009" width="3600" height="218.182"/>
        <path class="cls-3" d="M3556.008,2181.918c28.104-54.628,43.992-116.458,43.992-181.818v-36.363H0v36.363C0,2065.461,15.888,2127.29,43.992,2181.918h3512.015Z"/>
        <rect class="cls-3" x="0" y="1527.373" width="3600" height="218.182"/>
      </g>
      <path class="cls-1" d="M1090.909.1H400C180,.1,0,180.1,0,400.1v690.909h1090.909V.1Z"/>
      <g>
        <g id="b">
          <path id="a" class="cls-2" d="M545.456,218.269l-101.133,311.255,155.627,50.566-54.495-361.821Z"/>
          <path id="a-2" data-name="a" class="cls-2" d="M545.453,218.269l101.133,311.255-155.627,50.566,54.495-361.821Z"/>
        </g>
        <g id="b-2" data-name="b">
          <path id="a-3" data-name="a" class="cls-2" d="M856.722,444.42h-327.273v163.636l327.273-163.636Z"/>
          <path id="a-4" data-name="a" class="cls-2" d="M856.721,444.416l-264.769,192.366-96.183-132.385,360.952-59.981Z"/>
        </g>
        <g id="b-3" data-name="b">
          <path id="a-5" data-name="a" class="cls-2" d="M234.188,444.416l264.769,192.366,96.183-132.385-360.952-59.981Z"/>
          <path id="a-6" data-name="a" class="cls-2" d="M234.187,444.42h327.273v163.636l-327.273-163.636Z"/>
        </g>
        <g id="b-4" data-name="b">
          <path id="a-7" data-name="a" class="cls-2" d="M737.826,810.335l-101.133-311.255-155.627,50.566,256.76,260.688Z"/>
          <path id="a-8" data-name="a" class="cls-2" d="M737.83,810.333l-264.769-192.366,96.183-132.385,168.586,324.751Z"/>
        </g>
        <g id="b-5" data-name="b">
          <path id="a-9" data-name="a" class="cls-2" d="M353.08,810.333l264.769-192.366-96.183-132.385-168.586,324.751Z"/>
          <path id="a-10" data-name="a" class="cls-2" d="M353.083,810.335l101.133-311.255,155.627,50.566-256.76,260.688Z"/>
        </g>
      </g>
    </g>
  </g>
</svg>