<?xml version="1.0" encoding="UTF-8"?>
<svg xmlns="http://www.w3.org/2000/svg" viewBox="0 0 3600.1 2401.738">
  <defs>
    <style>
      .cls-1, .cls-2, .cls-3, .cls-4 {
        stroke-width: 0px;
      }

      .cls-2 {
        fill: #00209f;
      }

      .cls-3 {
        fill: #eee;
      }

      .cls-4 {
        fill: #009543;
        fill-rule: evenodd;
      }
    </style>
  </defs>
  <g id="background">
    <path id="ls" class="cls-4" d="M400,.1h2800c220,0,400,180,400,400v1600c0,220-180,400-400,400H400C180,2400.1,0,2220.1,0,2000.1V400.1C0,180.1,180,.1,400,.1Z"/>
  </g>
  <g id="country">
    <g id="ls-2" data-name="ls">
      <path class="cls-3" d="M3200,.1H400C180,.1,0,180.1,0,400.1v1280h3600V400.1C3600,180.1,3420,.1,3200,.1Z"/>
      <path class="cls-2" d="M3200,.1H400C180,.1,0,180.1,0,400.1v320h3600v-320C3600,180.1,3420,.1,3200,.1Z"/>
      <path class="cls-1" d="M1801.816,760.572l-3.816.08c-8.288.176-15.6,4.568-20.984,8.648-3.229,2.445-6.23,5.176-8.968,8.16l-.832.944c-28.208,4.96-53.944,17.144-74.448,37.056-27.152,26.36-44.448,65.2-49.896,114.656-5.576,50.712,8.32,107.256,22.848,152.2,14.528,44.96,30.424,78.44,30.424,78.44l2.816,5.944-183.008,246.432-36.8-12.72-66.264,141.344,3,1.888s157.392,98.56,385.568,95.864c250.168-2.976,386.8-100.52,386.8-100.52l2.76-1.968-68.528-139.624-32.616,14.192-189.92-251.224,1.472.576s16.672-34.24,31.576-80.088c14.904-45.848,28.904-103.472,21.576-155.048-6.92-48.744-22.256-86.992-49.496-112.984-19.92-19.016-45.496-30.24-75.296-34.712v-.792l-1.128-1.152s-3.768-3.92-9.328-7.76c-5.209-3.626-11.181-6.008-17.456-6.96l-.056-.872ZM1829.696,818.484c20.128,3.776,35.496,11.552,47.776,23.272,18.408,17.568,31.32,46.184,37.496,89.672,5.656,39.816-6,93.968-20.016,137.064-8.6,26.448-16.16,44.8-21.464,56.88l-28.768-38.056-.328-90.232h47.448l-62.4-58.608.256-119.992ZM1767.344,819.076l.88,121.288-56.44,59.12h46.704l-.328,87.504-31.544,42.472c-4.08-8.848-12.256-26.704-22.832-59.44-13.696-42.368-25.536-95.768-21.16-135.528,4.696-42.664,18.792-71.68,38-90.328,12.936-12.56,28.504-20.88,46.72-25.088h0ZM2092.48,1446.82l10.144,14.76-28.584,42.408-29.512-37.8,47.952-19.368ZM1502.32,1460.66l11.984,36.88-35.04,7.384s20.288-40.576,23.056-44.264ZM1539.2,1461.54l51.632,15.68,12,25.816-45.192,12.904-18.44-54.4ZM2011.328,1478.14l14.752,15.68-43.336,34.112-26.744-33.192,55.328-16.6ZM2111.84,1483.7l17.52,35.04-35.04,11.984-2.768-16.592,20.288-30.432ZM1634.16,1489.22l51.64,11.064,14.752,22.128-45.184,17.52-21.208-50.712ZM1914.504,1498.484l13.824,20.288-51.64,24.888-22.128-37.8,59.944-7.376ZM1730.96,1504.02l83.92,3.688,7.368,17.52-65.464,23.976-25.824-45.184ZM2035.28,1512.26l26.744,35.968-57.176,14.744-11.064-19.36,41.496-31.352ZM1522.56,1513.22l7.376,29.504-44.256-17.52,36.88-11.984ZM1610.176,1521.54l23.976,50.72-59.944-14.744-6.448-22.136,42.416-13.84ZM1939.36,1534.42l31.352,36.88-69.16,11.072-13.84-22.128,51.648-25.824ZM1833.344,1541.804l30.432,45.184-81.144,2.768-13.84-23.976,64.552-23.976ZM1711.632,1541.82l29.512,46.112-70.088-10.144-7.376-19.368,47.952-16.6Z"/>
    </g>
  </g>
</svg>