<?xml version="1.0" encoding="UTF-8"?>
<svg xmlns="http://www.w3.org/2000/svg" viewBox="0 0 3600.1 2401.738">
  <defs>
    <style>
      .cls-1 {
        fill: #006233;
      }

      .cls-1, .cls-2 {
        stroke-width: 0px;
      }

      .cls-2 {
        fill: #c1272d;
        fill-rule: evenodd;
      }
    </style>
  </defs>
  <g id="background">
    <path id="ma" class="cls-2" d="M400,.1h2800c220,0,400,180,400,400v1600c0,220-180,400-400,400H400C180,2400.1,0,2220.1,0,2000.1V400.1C0,180.1,180,.1,400,.1Z"/>
  </g>
  <g id="country">
    <g id="ma-2" data-name="ma">
      <path class="cls-1" d="M2152.647,1685.485l-352.647-256.211-352.647,256.211,134.696-414.561-352.665-256.224h435.916l134.701-414.575,134.701,414.575h435.915l-352.665,256.224,134.696,414.561ZM1630.57,1306.176l-74.723,229.979,195.632-142.134-120.909-87.845ZM1848.521,1394.021l195.632,142.134-74.724-229.979-120.908,87.845ZM1649.103,1249.136l150.897,109.633,150.896-109.633-57.638-177.396h-186.517l-57.639,177.396ZM1404.937,1071.74l195.646,142.144,46.184-142.144h-241.83ZM1953.234,1071.74l46.184,142.144,195.646-142.144h-241.829ZM1725.274,1014.7h149.451l-74.726-229.986-74.726,229.986Z"/>
    </g>
  </g>
</svg>