<?xml version="1.0" encoding="UTF-8"?>
<svg xmlns="http://www.w3.org/2000/svg" viewBox="0 0 3600.1 2401.738">
  <defs>
    <style>
      .cls-1 {
        fill: #097754;
      }

      .cls-1, .cls-2, .cls-3, .cls-4, .cls-5, .cls-6, .cls-7, .cls-8, .cls-9, .cls-10, .cls-11 {
        stroke-width: 0px;
      }

      .cls-1, .cls-2, .cls-3, .cls-4, .cls-5, .cls-7, .cls-8, .cls-10, .cls-11 {
        fill-rule: evenodd;
      }

      .cls-3 {
        fill: #b07f55;
      }

      .cls-4 {
        fill: #d10429;
      }

      .cls-5 {
        fill: #dd2e44;
      }

      .cls-6 {
        fill: #ffcc4d;
      }

      .cls-7 {
        fill: #f5d402;
      }

      .cls-8 {
        fill: #0b45bb;
      }

      .cls-9 {
        fill: #265fb5;
      }

      .cls-10 {
        fill: #cc092f;
      }

      .cls-11 {
        fill: #ffd200;
      }
    </style>
  </defs>
  <g id="background">
    <path id="md" class="cls-5" d="M400,.1h2800c220,0,400,180,400,400v1600c0,220-180,400-400,400H400C180,2400.1,0,2220.1,0,2000.1V400.1C0,180.1,180,.1,400,.1Z"/>
  </g>
  <g id="country">
    <g id="md-2" data-name="md">
      <g id="v">
        <path class="cls-6" d="M400,.1C180,.1,0,180.1,0,400.1v1600C0,2220.1,180,2400.1,400,2400.1h2000V.1H400Z"/>
        <path class="cls-9" d="M400,.1C180,.1,0,180.1,0,400.1v1600C0,2220.1,180,2400.1,400,2400.1h800V.1H400Z"/>
      </g>
      <g>
        <path class="cls-2" d="M1695.372,653.741c-6.516,0-12.207,1.638-15.525,4.186,5.417,1.547,9.141,6.513,9.108,12.147v14.802h-15.002c-5.875,0-10.743-3.73-12.315-8.883-2.583,3.277-4.243,8.889-4.243,15.313s1.661,12.042,4.243,15.313c1.537-5.204,6.398-8.984,12.315-8.984h15.002v71.148c.023,5.387-3.389,10.189-8.483,11.941,7.156.963,13.316,10.439,15.002,15.62,1.692-5.172,7.853-14.657,15.009-15.62-5.146-1.703-8.614-6.521-8.594-11.941v-71.154h15.005c5.878,0,10.746,3.73,12.318,8.886,2.58-3.274,4.24-8.889,4.24-15.313s-1.657-12.039-4.24-15.313c-1.54,5.204-6.401,8.981-12.318,8.981h-15.005v-14.799c-.036-5.603,3.635-10.555,9.006-12.15-3.315-2.545-9.01-4.183-15.522-4.183v.003Z"/>
        <path class="cls-7" d="M1695.372,656.91c-3.016.012-6.011.492-8.88,1.423,3.356,2.874,5.577,7.045,5.577,11.805v14.755c0,.209-.063.409-.105.612v2.339h-2.377c-.203.041-.409.101-.621.105h-14.977c-4.779,0-8.959-2.155-11.877-5.394-.84,2.503-1.55,5.362-1.55,8.753,0,3.334.634,6.271,1.445,8.75,2.919-3.308,7.149-5.492,11.982-5.492h18.076c-.022.304-.108.602-.108.913v1.524c.044.2.105.399.108.612v70.923c0,4.605-2.412,8.227-5.581,11.092,2.227,1.365,4.215,3.084,5.888,5.089,1.486,1.759,2.079,3.48,3.099,5.289,1.024-1.806,1.613-3.53,3.099-5.289,1.652-1.958,3.604-3.641,5.783-4.988-3.194-2.855-5.577-6.569-5.577-11.193v-73.876h2.478c.203-.041.406-.101.621-.101h14.977c4.772,0,8.956,2.155,11.874,5.391.84-2.5,1.553-5.356,1.553-8.75-.014-2.975-.501-5.928-1.445-8.75-2.922,3.308-7.149,5.492-11.982,5.492h-14.977c-.212,0-.418-.06-.621-.101h-2.377v-2.339c-.041-.2-.101-.402-.105-.615v-14.752c0-4.706,2.187-8.819,5.476-11.7-2.542-.824-5.441-1.527-8.883-1.527"/>
        <path class="cls-2" d="M1879.225,913.626c-8.968-6.367-16.33-13.563-21.562-21.961-12.6-20.209-17.918-45.019-17.918-70.232,0-10.657,11.944-22.655,11.944-31.272,0-13.028-1.214-20.846-1.214-20.846,4.237.58,11.64,8.097,11.64,8.097,0,0-.254-21.622-7.089-25.4,0,0,2.767-2.843,12.758-3.137-2.808-7.111-16.701-15.788-16.701-15.788.694-1.242,1.978-2.32,3.641-3.239,3.489-1.93,8.395-3.201,12.144-3.945-3.996-.83-8.604-2.098-13.662-3.749-11.551-3.762-25.153-9.285-37.86-15.379-23.197-11.123-40.871-11.839-50.612-11.839-7.07,0-17.48.193-23.584,4.253-5.587,3.708-5.134,8.528-7.089,10.22-4.608,3.987-12.498,3.844-16.298,3.844-24.598,0-25.511,26.315-25.511,26.315,0,0,6.29-9.513,17.411-9.513,18.491,0,32.495,10.068,32.495,13.861,0,1.537-1.908,1.822-2.022,1.822-12.08,0-30.305-6.953-39.99-7.289v4.757c21.616,7.52,43.53,18.162,43.53,65.073,0,29.538-3.54,59.679-18.323,83.389-5.235,8.395-12.689,15.579-21.66,21.961l87.766,15.813,87.766-15.817Z"/>
        <path class="cls-2" d="M1792.024,894.057l-88.945,19.943c-4.047-1.217-23.074-7.099-36.421-14.495-23.498-13.025-35.683-25.986-63.608-27.257v-21.134c0-11.291,4.107-21.464,4.107-32.261-11.773-3.14-44.445-42.893-74.586-60.538-44.35,28.585-78.69,75.508-78.69,97.086,0,0,1.334,463.658,0,625.183,0,9.311-5.641,22.462-5.641,22.462,16.191-6.817,45.868-47.221,52.118-62.582v7.352c24.452-11.095,42.354-40.25,50.371-55.331.143,2.18.517,7.653.517,7.653,21.844-19.052,49.652-131.688,49.652-131.688l46.341,45.317s-16.758,33.851-23.289,39.914c0,0,4.376.555,9.336.513-3.052,4.361-26.347,37.737-33.649,50.327-6.836,11.776-11.656,6.535-22.161,6.535-8.712,0-28.458,13.811-31.703,19.398-3.407,5.872-5.945,13.006-5.945,18.887,0,6.458,6.874,15.313,6.874,15.313.738-3.093,2.05-4.186,2.05-4.186,0,0,18.06,22.389,20.722,25.314,2.073,2.282,11.313,3.762,14.571.821,8.148-7.371,16.035-12.527,23.286-23.175,3.736-5.486,4.018-11.773,8.309-17.664,14.356-19.702,42.918-57.429,49.452-66.049.434,2.399.811,4.399,1.226,6.842,7.403-14.872,42.988-43.286,42.988-43.286l37.23,17.049s-69.512,159.002-131.216,183.451c0,0,26.845,11.348,59.812,28.382,4.811,2.484,9.761,5.153,14.774,7.862,4.411-5.302,8.687-10.715,12.822-16.235,19.714-26.243,38.988-56.656,38.988-56.656,1.344,7.897-9.067,32.292-26.674,62.379-3.46,5.91-7.073,12.09-11.079,18.371,4.475,2.536,8.92,5.123,13.335,7.761,32.657,19.553,63.326,42.031,74.687,62.68l8.014-19.958-8.014-19.958v-697.865l4.006-9.973-3.968-16.504Z"/>
        <path class="cls-3" d="M1793.098,1620.287c-11.535-12.483-35.655-27.732-62.759-41.806,32.774-58.677,49.015-151.431,41.394-169.897,0,0-13.452,48.106-29.893,75.521-15.221,25.387-33.959,53.943-52.073,75.112-14.904-6.344-29.358-11.665-41.704-15.373,54.288-41.72,109.803-179.629,109.803-179.629l-57.407-26.54s-21.48,24.978-28.451,29.614c0,0-2.982-12.419-4.725-16.805,0,0-8.23,6.211-12.733,6.357,0,0-1.347-8.43-2.364-13.937-5.669,3.768-15.1,2.972-15.1,2.972,8.281-3.911,18.079-27.872,18.079-27.872l-54.821-72.745s-19.255,92.304-41.188,111.28v-397.48l17.36,16.086,26.293-24.49v-18.646l-23.314,21.72v-56.256c2.69-4.034,5.225-8.169,7.599-12.397,3.774,6.563,15.972,26.68,30.299,39.042,2.358-9.564,17.873-18.653,17.873-18.653,0,0,5.562,15.031,14.07,18.751,2.991-5.261,20.855-16.904,20.855-16.904,0,0-15.281,2.313-21.47,8.097-5.314-1.188-6.677-22.136-6.677-22.136,0,0-22.487,10.927-26.398,18.751-4.288-1.157-10.962-17.99-13.56-24.899,5.559-.619,11.148-.927,16.742-.922,6.414,0,14.619,3.033,23.213,7.07,9.444,4.437,19.325,10.052,28.147,14.039,11.301,5.105,28.398,6.142,33.382,6.354-5.711,4.002-11.985,7.659-18.796,11.066,0,0,26.908-.247,45.811-9.634,6.744-4.326,13.741-8.639,19.721-13.731-2.592,7.194-6.633,15.693-12.945,22.953,27.761-2.342,41.587-18.158,45.504-23.463,1.841,4.754,5.124,12.381,10.271,18.954h10.033v680.546l-10.071,19.93ZM1587.178,821.014l.498,13.028v38.358c-9.811-3.543-22.142-20.472-28.119-29.421v-5.254c0-4.944,2.77-8.553,4.801-10.508l-5.904-2.202c-2.25,2.694-4.703,6.696-4.703,11.871v3.049l-17.61,19.86-17.315-27.532v-6.725c0-4.532,3.321-9.583,6.107-13.028l-5.806-2.209c-2.931,3.987-6.005,9.358-6.005,14.397v5.46c-4.072,4.427-19.917,21.546-19.917,21.546l-10.106-22.804c12.131-17.642,31.798-37.394,50.337-51.569,0,0,40.202,38.754,53.743,43.685h0ZM1483.099,857.525v30.308l-12.676,13.088v-45.006c0-4.31,1.623-9.501,4.345-15.205l8.331,16.815Z"/>
        <path class="cls-3" d="M1530.634,869.225v19.242l-19.014,15.623v-60.211l19.014,25.346ZM1508.451,904.09l-19.014-15.05v-21.869l19.014-16.954v53.873ZM1581.338,880.373c-3.933,5.245-14.235,18.067-25.352,23.717v-50.704c2.551,4.002,14.248,21.854,25.352,26.987ZM1552.817,856.555v47.535l-19.014-15.107v-16.818l19.014-15.611ZM1483.099,907.259v47.535l-12.676-13.221v-21.093l12.676-13.221ZM1505.282,922.464v17.129l-15.845,15.202v-47.535l15.845,15.205ZM1530.634,907.259v47.535l-19.014-15.306v-16.926l19.014-15.303ZM1552.817,922.565v16.926l-19.014,15.303v-47.535l19.014,15.306ZM1575,954.794l-19.014-15.275v-15.877c6.557-3.426,13.151-9.726,19.014-16.384v47.535ZM1532.744,977.37l17.959-16.133v396.117s1.252,19.654,2.114,32.463l-38.028,37.16v-465.845l17.956,16.238ZM1505.282,1412.574c0,12.746-23.489,42.471-34.859,49.262v-500.596l17.325,16.042,17.534-16.149v451.442Z"/>
        <path class="cls-4" d="M1648.99,1369.447l12.784-8.591s.852,4.145,1.958,9.805c-5.473,7.333-36.922,49.392-52.485,69.921-3.866,5.099-7.118,18.086-7.118,18.086,0,0-5.666-2.627-5.666-7.374,0-4.662.621-10.207.621-10.207,0,0-4.234,4.75-11.554,4.75,0-5.73,11.31-11.944,11.757-20.104-8.623,6.265-16.111,3.049-26.087,6.062-10.86,3.28-13.887,7.751-17.217,7.58-1.965-.105-3.739-3.422-2.992-5.457,1.299-3.527,14.733-13.291,24.126-15.056,2.25-.421,19.946,3.774,23.511-1.616l40.833-61.736c1.515-.355,2.909-.732,4.018-1.42,0,0-.136,11.351,3.511,15.357h0Z"/>
        <path class="cls-4" d="M1568.168,1437.273c.707.878.643,2.168-.108,2.868l-5.742,5.41c-.751.7-1.958.551-2.665-.333-.71-.878-.65-2.168.105-2.871l5.742-5.41c.356-.34.846-.502,1.334-.441.475.06.976.333,1.334.776h0ZM1576.993,1444.648c1.651,2.06,1.543,4.979-.2,6.62l-13.414,12.695c-1.746,1.642-4.56,1.312-6.214-.745-1.654-2.06-1.55-5.083.197-6.721l13.414-12.59c.653-.618,1.546-.995,2.367-1.068,1.372-.124,2.814.526,3.85,1.81h0ZM1583.331,1454.155c1.651,2.06,1.546,4.975-.2,6.617l-13.513,12.698c-1.746,1.638-4.462,1.312-6.116-.748-1.654-2.057-1.55-5.08.2-6.718l13.414-12.59c.653-.615,1.445-.992,2.269-1.068,1.369-.124,2.909.523,3.945,1.81h0ZM1588.975,1461.852c1.379-.105,2.824.358,3.857,1.467,1.657,1.775,1.553,4.38-.197,5.79l-13.446,10.844c-1.749,1.41-4.475,1.128-6.129-.647-1.657-1.771-1.651-4.284.098-5.698l13.544-10.93c.653-.532,1.448-.767,2.272-.827Z"/>
        <path class="cls-2" d="M1792.074,894.057l88.945,19.943c4.047-1.217,23.074-7.099,36.421-14.495,23.501-13.025,35.683-25.986,63.609-27.257v-21.137c0-11.288-4.107-21.461-4.107-32.257,11.773-3.14,44.445-42.893,74.589-60.538,44.347,28.585,78.687,75.508,78.687,97.086,0,0-1.331,463.658,0,625.183,0,9.311,5.641,22.462,5.641,22.462-16.191-6.817-45.868-47.221-52.114-62.582v7.352c-24.452-11.095-42.357-40.25-50.375-55.331-.143,2.18-.517,7.653-.517,7.653-21.844-19.052-49.652-131.688-49.652-131.688l-46.34,45.317s16.761,33.851,23.292,39.914c0,0-4.38.555-9.339.513,3.052,4.361,26.347,37.737,33.652,50.327,6.832,11.776,11.656,6.535,22.161,6.535,8.712,0,28.458,13.811,31.7,19.398,3.41,5.872,5.948,13.006,5.948,18.887,0,6.458-6.877,15.313-6.877,15.313-.738-3.093-2.047-4.186-2.047-4.186,0,0-18.063,22.389-20.725,25.314-2.073,2.282-11.313,3.762-14.568.821-8.151-7.371-16.035-12.527-23.292-23.175-3.73-5.486-4.015-11.773-8.306-17.664-14.356-19.702-42.918-57.429-49.449-66.049-.437,2.399-.811,4.399-1.226,6.842-7.403-14.872-42.991-43.286-42.991-43.286l-37.23,17.049s69.515,159.002,131.216,183.451c0,0-26.841,11.348-59.812,28.382-4.807,2.484-9.761,5.153-14.771,7.862-4.413-5.301-8.689-10.715-12.825-16.235-19.711-26.243-38.988-56.656-38.988-56.656-1.344,7.897,9.063,32.292,26.674,62.379,3.464,5.91,7.073,12.09,11.079,18.371-4.468,2.538-8.899,5.102-13.335,7.761-32.657,19.553-63.323,42.031-74.684,62.68l-8.018-19.958,8.018-19.958v-697.865l-4.009-9.973,3.968-16.504Z"/>
        <path class="cls-3" d="M1791.022,1620.287c11.535-12.483,35.651-27.732,62.756-41.806-32.774-58.677-49.012-151.431-41.394-169.897,0,0,13.452,48.106,29.893,75.521,15.221,25.387,33.959,53.943,52.076,75.112,14.904-6.344,29.355-11.665,41.704-15.373-54.292-41.72-109.806-179.629-109.806-179.629l57.41-26.54s21.476,24.978,28.451,29.614c0,0,2.979-12.419,4.722-16.805,0,0,8.23,6.211,12.736,6.357,0,0,1.344-8.43,2.361-13.937,5.669,3.768,15.1,2.972,15.1,2.972-8.281-3.911-18.079-27.872-18.079-27.872l54.821-72.745s19.255,92.304,41.188,111.28v-397.48l-17.36,16.086-26.293-24.49v-18.65l23.318,21.724v-56.256c-2.692-4.033-5.228-8.169-7.602-12.397-3.771,6.563-15.972,26.68-30.296,39.042-2.361-9.564-17.873-18.653-17.873-18.653,0,0-5.562,15.031-14.07,18.751-2.995-5.261-20.855-16.904-20.855-16.904,0,0,15.281,2.313,21.467,8.097,5.314-1.188,6.677-22.136,6.677-22.136,0,0,22.487,10.927,26.398,18.751,4.288-1.157,10.965-17.99,13.563-24.899-5.56-.618-11.151-.924-16.745-.919-6.414,0-14.619,3.03-23.213,7.067-9.444,4.437-19.325,10.052-28.147,14.039-11.301,5.102-28.394,6.142-33.382,6.354,5.711,4.002,11.985,7.659,18.796,11.066,0,0-26.905-.247-45.811-9.634-6.744-4.326-13.741-8.639-19.721-13.731,2.595,7.194,6.633,15.693,12.945,22.953-27.761-2.345-41.587-18.158-45.507-23.463-1.838,4.754-5.118,12.381-10.268,18.954h-10.033v680.546l10.075,19.93ZM1996.891,821.014l-.494,13.028v38.358c9.811-3.543,22.139-20.472,28.119-29.421v-5.254c0-4.944-2.77-8.556-4.804-10.508l5.904-2.206c2.25,2.697,4.706,6.699,4.706,11.874v3.049l17.61,19.86,17.312-27.532v-6.725c0-4.532-3.318-9.583-6.104-13.028l5.806-2.209c2.931,3.987,6.005,9.358,6.005,14.397v5.46c4.072,4.427,19.914,21.546,19.914,21.546l10.109-22.804c-12.131-17.642-31.801-37.394-50.34-51.569,0,0-40.202,38.754-53.74,43.685h-.003ZM2100.961,857.525v30.308l12.676,13.088v-45.006c0-4.31-1.623-9.501-4.342-15.205l-8.335,16.815Z"/>
        <path class="cls-3" d="M2056.601,869.225v19.242l15.845,15.623v-60.211l-15.845,25.346ZM2078.778,904.09l15.845-15.05v-21.866l-15.845-16.957v53.873ZM2002.741,880.373c3.933,5.245,14.235,18.067,25.352,23.717v-50.704c-2.551,4.002-14.251,21.854-25.352,26.987ZM2031.243,856.555v47.535l19.014-15.107v-16.818l-19.014-15.611ZM2100.961,907.259v47.535l12.676-13.221v-21.093l-12.676-13.221ZM2078.778,922.464v17.129l15.845,15.202v-47.535l-15.845,15.205ZM2056.601,907.259v47.535l15.845-15.306v-16.923l-15.845-15.306ZM2031.243,922.565v16.923l19.014,15.306v-47.535l-19.014,15.306ZM2009.066,954.794l19.014-15.275v-15.877c-6.557-3.426-13.151-9.729-19.014-16.384v47.535ZM2051.322,977.37l-17.959-16.13v396.114s-1.255,19.654-2.114,32.463l38.028,37.16v-465.845l-17.956,16.238ZM2078.772,1412.574c0,12.746,23.489,42.471,34.859,49.262v-500.596l-17.328,16.042-17.531-16.149v451.442Z"/>
        <path class="cls-4" d="M1935.105,1369.447l-12.787-8.588s-.852,4.142-1.955,9.802c5.473,7.333,36.919,49.392,52.482,69.921,3.869,5.102,7.118,18.086,7.118,18.086,0,0,5.669-2.627,5.669-7.374,0-4.662-.621-10.204-.621-10.204,0,0,4.231,4.747,11.551,4.747,0-5.73-11.307-11.947-11.757-20.104,8.626,6.265,16.115,3.049,26.087,6.062,10.863,3.28,13.89,7.751,17.22,7.58,1.965-.105,3.739-3.422,2.988-5.457-1.299-3.527-14.73-13.291-24.123-15.053-2.25-.425-19.946,3.771-23.514-1.616-14.685-22.215-38.529-58.265-40.829-61.739-1.515-.355-2.909-.732-4.021-1.42,0,0,.136,11.351-3.508,15.357h0Z"/>
        <path class="cls-4" d="M2015.911,1437.273c-.707.878-.643,2.168.108,2.868l5.742,5.41c.751.697,1.955.551,2.662-.333.71-.878.65-2.168-.101-2.871l-5.742-5.41c-.355-.341-.846-.503-1.334-.441-.526.08-1.002.358-1.331.776h-.003ZM2007.247,1444.648c-1.889,2.06-1.765,4.975.228,6.62l15.328,12.692c1.996,1.645,5.213,1.315,7.105-.742,1.889-2.06,1.768-5.083-.225-6.721l-15.332-12.59c-.777-.616-1.718-.988-2.706-1.068-1.569-.124-3.217.526-4.399,1.81ZM2000.757,1454.155c-1.654,2.06-1.55,4.975.197,6.617l13.513,12.698c1.743,1.638,4.462,1.312,6.116-.748,1.654-2.057,1.546-5.08-.2-6.718l-13.414-12.59c-.616-.599-1.415-.975-2.269-1.068-1.369-.124-2.909.523-3.945,1.81h.003ZM1995.11,1461.852c-1.442-.123-2.861.417-3.857,1.467-1.657,1.775-1.553,4.38.197,5.79l13.449,10.844c1.749,1.41,4.472,1.128,6.129-.647s1.648-4.284-.095-5.698l-13.548-10.933c-.655-.504-1.45-.792-2.275-.824h0Z"/>
        <path class="cls-3" d="M1771.355,701.384c22.963,0,39.112,10.375,60.839,19.924,5.104,2.262,10.305,4.296,15.588,6.097-2.922,2.567-5.197,5.146-5.847,7.32,0,0,9.738,1.787,14.156,9.862,0,0-9.257,1.043-10.771,6.401,5.188.39,10.34,6.867,10.363,13.117l-13.132-4.069s3.182,14.612,3.182,30.495c0,8.113-11.795,17.661-11.795,31.411,0,43.156,10.971,59.745,18.773,73.087,3.052,5.219,5.533,11.225,10.67,15.756-22.481-11.862-39.188-26.686-39.188-40.456v-52.149h-5.85v52.149c0,9.986,2.462,14.638,2.462,14.638,3.527,11.047,10.664,28.1,15.081,34.967-20.684-11.076-31.189-24.947-31.189-30.09v-71.664h-5.847v72.681l1.128,4.979c-2.507,3.733-5.768,8.154-8.002,9.656-2.231-1.502-5.39-5.929-7.904-9.656l1.131-4.979v-72.681h-5.847v71.664c0,5.143-10.508,19.014-31.189,30.09,4.421-6.867,11.551-23.92,15.078-34.967,0,0,2.462-4.652,2.462-14.638v-52.149h-5.847v52.149c0,13.754-16.647,28.604-39.087,40.456,5.083-4.535,7.53-10.566,10.565-15.756,8.531-14.59,19.081-33.126,19.081-85.896,0-19.803-2.957-33.268-8.103-42.693-1.566-3.109-3.673-11.386,8.309-11.386,6.205,0,20.415,10.879,20.415,10.879,0,0-.586-8.68-7.796-13.624-1.198-.821-3.178-3.4-3.178-5.796,0-1.794,3.106-6.224,5.536-7.317,1.67-.751-24.414-5.254-24.414-16.976,0-2.44,1.55-4.066,6.972-4.066,7.105,0,18.659,8.436,28.933,8.436,7.593,0,10.588-1.832,18.361-1.832,9.504,0,29.329,17.829,36.111,17.179-7.583-4.716-19.829-22.567-38.367-22.567-6.433,0-12.258,1.423-18.263,1.423-7.698,0-15.278-7.016-23.596-7.016-5.574,0-11.801.311-12.72-1.119-1.613-2.491-.162-3.939,1.334-5.996,2.824-3.888,10.752-5.013,18.57-5.286,2.345-.079,4.684-.12,6.877-.098,2.187.022,4.208.105,5.955.105h0Z"/>
        <path class="cls-10" d="M1698.595,727.655s4.76-10.144,16.786-10.144c5.029,0,21.622-.393,21.622-.393,2.212,6.468,12.293,17.281,12.293,28.521,0,0-10.233-20.767-38.795-20.767-7.178,0-11.909,2.779-11.909,2.779l.003.003Z"/>
        <path class="cls-4" d="M1742.958,748.805s-5.641,6.202-6.867,9.51c-5.581-2.209-15.316-12.676-15.316-12.676,0,0,8.252,5.029,22.18,3.166h.003Z"/>
        <path class="cls-2" d="M1733.451,729.794s-6.338-2.054-6.338-4.202c0-2.738,3.077-2.738,4.918-.605,1.268,1.47,1.42,4.807,1.42,4.807ZM1774.648,731.379c0,4.376-4.256,7.923-9.507,7.923s-9.507-3.546-9.507-7.923,4.256-7.923,9.507-7.923,9.507,3.546,9.507,7.923Z"/>
        <path class="cls-7" d="M1771.479,731.379c0,4.376-2.836,7.923-6.338,7.923s-6.338-3.546-6.338-7.923,2.836-7.923,6.338-7.923,6.338,3.546,6.338,7.923Z"/>
        <path class="cls-2" d="M1768.31,729.794c0,1.75-1.419,3.169-3.169,3.169s-3.169-1.419-3.169-3.169,1.419-3.169,3.169-3.169,3.169,1.419,3.169,3.169ZM1602.057,1468.175l33.154,17.724-8.043,36.149-33.154-17.724,8.043-36.149Z"/>
        <path class="cls-2" d="M1453.516,1122.752l-11.614,5.34,131.204,289.521h13.96l-133.549-294.861ZM1608.253,1464.197l-9.472,9.856,5.907,13.136,11.51-5.337-7.945-17.655Z"/>
        <path class="cls-2" d="M1492.609,1350.921s10.952,22.883,19.277,26.021c-4.307-1.185-18.285,4.002-18.285,4.002,0,0,24.649,22.272,45.555,23.733,17.731,1.236,26.338-7.717,26.338-7.717l-3.552-18.998s-10.844-13.246-28.204-19.363c-17.537-6.18-41.131-7.675-41.131-7.675l.003-.003ZM1576.781,1309.724s-15.271,13.237-19.451,28.569c-4.18,15.332,2.725,32.758,2.725,32.758l12.831,24.237s17.785-9.583,25.349-23.913c7.564-14.33,4.788-33.668,4.788-33.668,0,0-14.086,5.311-15.88,7.663,2.976-15.896-10.366-35.645-10.366-35.645h.003ZM1527.462,1304.473s-17.29,6.199-34.083,5.128c-15.994-1.027-29.294-15.271-29.294-15.271,0,0,13.259-9.52,19.803-8.249-7.2-2.792-17.636-21.92-17.636-21.92,0,0,14.831-4.754,27.986.504,13.151,5.264,24.62,20.545,24.62,20.545l8.607,19.264h-.003ZM1533.343,1217.826s8.804,17.99,6.715,24.243c2.732-4.161,13.069-10.648,13.069-10.648,0,0,6.246,29.133.273,47.123-5.977,17.99-24.17,24.842-24.17,24.842l-20.066-38.519s-2.988-14.27,3.27-25.571c6.259-11.301,20.909-21.473,20.909-21.473v.003ZM1419.446,1170.534s19.344-1.939,37.039,5.051c14.793,5.856,19.328,16.501,19.328,16.501l7.286,18.627s-21.055,7.526-37.689,1.771c-16.637-5.761-28.86-24.81-28.86-24.81,0,0,11.627-4.202,16.051-2.627-6.446-2.719-13.151-14.514-13.151-14.514h-.003ZM1479.147,1135.431s8.17,10.654,8.414,22.906c2.177-6.515,12.375-13.716,12.375-13.716,0,0,10.486,25.777,8.186,44.075-2.304,18.301-17.392,29.126-17.392,29.126l-18.818-36.273s-6.132-14.869-4.326-26.401c1.81-11.529,11.561-19.721,11.561-19.721v.003ZM1414.879,1065.71s-3.464,19.917,2.431,31.389c5.267,10.236,8.62,12.483,8.62,12.483-10.043-6.607-25.225-7.178-25.225-7.178,0,0,5.406,21.667,18.32,31.554,12.917,9.884,32.831,7.574,32.831,7.574,0,0,13.098-17.382,12.185-36.108-.913-18.726-15.829-38.798-15.829-38.798,0,0-5.885,12.166-6.401,21.248-3.809-9.361-26.933-22.161-26.933-22.161l.003-.003Z"/>
        <path class="cls-2" d="M1568.665,1394.84l.542,7.111c11.963.111,13.744-1.065,16.812,2.656,2.041,2.481,6.899,4.646,11.782,2.443,4.887-2.202,7.076-7.995,4.845-12.816-2.228-4.823-6.772-5.869-11.149-5.017-2.684.523-4.452,2.637-6.731,3.8-4.332,2.215-16.105,1.825-16.105,1.825l.003-.003Z"/>
        <path class="cls-2" d="M1566.143,1392.121l5.688,4.11c-6.104,9.843-8.008,10.692-6.468,15.126,1.024,2.954.33,8.043-4.05,10.901-4.376,2.855-10.375,1.651-13.269-2.665-2.893-4.319-1.423-8.572,1.556-11.71,1.832-1.93,4.519-2.279,6.674-3.54,4.101-2.402,9.865-12.226,9.865-12.226l.003.003ZM1527.468,1306.111l.539,7.108c11.966.108,13.744-1.065,16.812,2.656,2.041,2.478,6.902,4.646,11.786,2.443,4.89-2.202,7.076-7.992,4.845-12.816s-6.772-5.869-11.149-5.017c-2.687.523-4.452,2.64-6.731,3.8-4.335,2.215-16.105,1.825-16.105,1.825h.003Z"/>
        <path class="cls-2" d="M1528.748,1309.724l5.055,4.716c-7.701,8.385-9.754,8.908-8.918,13.313.558,2.938-.957,7.637-5.812,9.688-4.852,2.054-10.676.041-12.895-4.459-2.212-4.494-.054-8.29,3.442-10.813,2.145-1.546,4.902-1.486,7.263-2.358,4.503-1.661,11.865-10.084,11.865-10.084v-.003ZM1486.271,1223.717l.539,7.108c11.966.111,13.744-1.065,16.815,2.662,2.041,2.472,6.899,4.639,11.786,2.437,4.883-2.202,7.073-7.989,4.842-12.819-2.231-4.82-6.772-5.866-11.149-5.013-2.687.523-4.456,2.64-6.734,3.8-4.332,2.215-16.102,1.822-16.102,1.822l.003.003Z"/>
        <path class="cls-2" d="M1490.72,1220.991l5.055,5.238c-7.704,9.32-9.751,9.9-8.921,14.796.558,3.261-.957,8.483-5.809,10.762s-10.676.041-12.895-4.953c-2.212-4.998-.054-9.215,3.442-12.017,2.145-1.721,4.899-1.651,7.267-2.624,4.503-1.848,11.862-11.202,11.862-11.202h0ZM1445.074,1134.984l.539,7.108c11.966.111,13.747-1.065,16.812,2.656,2.044,2.478,6.902,4.643,11.786,2.446,4.887-2.206,7.076-7.995,4.845-12.819-2.228-4.823-6.772-5.869-11.149-5.017-2.684.526-4.452,2.64-6.731,3.8-4.332,2.215-16.105,1.825-16.105,1.825h.003Z"/>
        <path class="cls-2" d="M1449.526,1132.259l5.051,5.242c-7.701,9.317-9.754,9.897-8.918,14.793.558,3.261-.96,8.483-5.812,10.762s-10.676.044-12.892-4.953c-2.218-4.994-.057-9.219,3.435-12.017,2.149-1.718,4.906-1.651,7.27-2.624,4.5-1.844,11.862-11.199,11.862-11.199l.003-.003Z"/>
        <path class="cls-7" d="M1608.471,1480.851l20.402,10.426-4.95,21.264-20.402-10.426,4.95-21.264ZM1520.417,1287.417c-4.329,1.838-10.746-17.414-15.458-27.96-4.836-10.822-14.65-27.504-11.862-28.806,3.058-1.426,7.089,7.333,12.036,18.409,4.947,11.069,19.337,36.634,15.284,38.355v.003ZM1475.762,1189.137c-4.291,1.689-8.987-9.887-13.658-19.575-4.795-9.941-9.466-16.961-6.699-18.155,3.036-1.312,7.517,7.397,11.443,15.531,3.8,7.885,12.933,20.614,8.911,22.199h.003ZM1577.858,1407.944c-3.505.875-18.802-29.031-31.167-54.336-12.366-25.305-21.575-45.776-18.697-47,3.16-1.347,13.17,22.554,25.542,47.862,12.369,25.308,26.949,52.815,24.322,53.474Z"/>
        <path class="cls-1" d="M1419.734,1078.386s-.494,14.764,4.107,23.14c4.601,8.379,14.875,11.719,14.875,11.719,0,0,.491-14.761-4.107-23.137-4.601-8.379-14.875-11.722-14.875-11.722ZM1410.211,1110.076s11.992.799,18.919,6.798c6.921,6.002,9.602,18.504,9.602,18.504,0,0-7.948.913-14.869-5.086-6.924-6.005-13.652-20.215-13.652-20.215ZM1449.171,1081.555s-4.589,9.425-4.06,19.584c.529,10.163,7.146,21.613,7.146,21.613,0,0,5.983-12.201,5.457-22.364-.526-10.163-6.94-15.956-8.544-18.833h0ZM1429.225,1173.469s5.967,9.003,15.154,13.912c9.187,4.906,22.874,5.089,22.874,5.089,0,0-6.832-9.58-16.019-14.489-9.187-4.906-22.009-4.519-22.009-4.519v.006ZM1432.398,1195.639s4.525,8.693,12.803,12.419c8.284,3.727,25.222,3.419,25.222,3.419,0,0-6.5-8.122-14.78-11.849-8.278-3.73-23.248-3.99-23.248-3.99h.003ZM1477.806,1148.104s-4.636,7.907-4.183,16.618c.456,8.718,5.996,18.241,5.996,18.241,0,0,3.898-10.917,3.442-19.632-.453-8.715-5.257-15.227-5.257-15.227h.003ZM1497.578,1157.611s-9.726,11.561-11.123,23.444c-1.398,11.881,5.53,24.091,5.53,24.091,0,0,11.754-10.445,13.148-22.329,1.398-11.887-7.555-25.203-7.555-25.203v-.003ZM1473.592,1268.844s1.02,4.11,4.573,8.474c3.549,4.367,9.627,8.984,9.627,8.984,0,0,5.869-1.838,13.167-.301,7.295,1.543,16.999,7.878,16.999,7.878,0,0-10.445-15.192-21.289-21.099-10.844-5.907-23.074-3.939-23.074-3.939l-.003.003ZM1473.595,1294.665s13.088-5.042,23.866-3.739c10.778,1.299,20.497,8.981,20.497,8.981,0,0-14.568,4.544-25.346,3.245-10.781-1.299-19.02-8.487-19.02-8.487h.003ZM1529.42,1230.498s-10.521,12.518-11.405,23.381c-.881,10.86,8.534,20.985,8.534,20.985,0,0-.463-6.965,1.157-11.554,1.623-4.586,5.067-9.485,5.067-9.485,0,0,1.467-5.59.9-10.077-.792-6.265-4.253-13.25-4.253-13.25h0ZM1547.084,1246.344s-12.232,11.098-15.465,22.982c-3.236,11.884,2.529,24.553,2.529,24.553,0,0,11.123-7.869,14.356-19.749,3.236-11.884-1.423-27.786-1.423-27.786h.003ZM1574.93,1319.234s4.671,10.613,5.856,19.493c1.188,8.873.089,11.947.089,11.947,0,0-4.833,5.169-6.997,8.208-2.786,3.904-3.194,11.054-3.194,11.054,0,0-9.7-15.693-8.205-27.165,1.496-11.472,12.451-23.539,12.451-23.539v.003ZM1597.183,1344.586s-13.516,9.269-18.878,18.78c-5.368,9.504-2.583,19.245-2.583,19.245,0,0,9.627-.881,14.996-10.388,5.365-9.507,6.462-27.64,6.462-27.64l.003.003ZM1508.454,1382.649s19.442-.532,31.323,2.393c11.884,2.922,16.209,9.298,16.209,9.298,0,0-13.361,6.262-25.244,3.34-11.884-2.922-22.291-15.034-22.291-15.034l.003.003ZM1505.282,1360.45s8.778,13.199,20.126,17.987c15.639,6.598,33.747,3.4,33.747,3.4,0,0-9.837-11.694-23.375-16.856-13.538-5.159-30.499-4.528-30.499-4.528v-.003Z"/>
        <path class="cls-2" d="M2176.713,1088.679l2.545,5.438s-4.132,1.429-6.005,5.131c-1.867,3.701,1.223,8.93,1.223,8.93,0,0-21.47-1.889-24.82.311-3.036,1.984,1.284,16.989-.713,29.665-2.786,17.664-9.688,16.178-9.97,19.6-.276,3.327,2.643,8.521,2.643,8.521,0,0-4.025,1.277-4.884,2.976-1.382,2.732.963,7.77-.71,11.085-9.339,18.491-23.131,45.786-32.248,63.846-1.274,2.519-4.693,3.483-6.408,6.877-1.585,3.131-.304,7.697-.304,7.697,0,0-6.043.364-8.141,4.519-2.228,4.408-.916,10.366-.916,10.366,0,0-3.822.491-5.698,4.208-2.006,3.971,1.391,6.053.513,7.799-12.258,24.265-26.693,52.872-35.502,70.314-3.242,6.414-14.581,7.701-21.163,20.735-6.386,12.644,2.748,21.964,2.748,21.964,0,0-9.482.865-12.001,5.853-2.57,5.083-.539,12.8,6.306,16.317,6.842,3.518,14.321.672,16.888-4.411,2.519-4.988-2.545-13.243-2.545-13.243,0,0,12.844,1.867,19.226-10.778,6.582-13.034,1.033-22.941,4.272-29.355l35.502-70.314c.884-1.746,4.506-.235,6.509-4.205,1.876-3.717,0-7.083,0-7.083,0,0,5.609-2.466,7.837-6.88,2.098-4.151-1.119-9.339-1.119-9.339,0,0,4.414-1.588,5.999-4.719,1.714-3.394.453-6.718,1.727-9.241l32.248-63.843c1.676-3.318,7.064-4.452,8.442-7.187.859-1.699-.507-5.749-.507-5.749,0,0,5.939-.593,8.442-2.773,2.58-2.24-2.656-7.048,9.868-19.708,8.987-9.076,23.482-14.419,23.292-18.063-.206-4.031-14.34-20.428-14.34-20.428,0,0,5.961-.507,7.831-4.205,1.87-3.701.612-8.008.612-8.008l5.898-1.027.003-28.226-22.582,16.631ZM1981.711,1481.814c-.973,1.972-.973,4.284,0,6.256,0,0-7.121-2.244-9.561-1.027-2.301,1.15,0,35.005,0,35.005,0,0,28.404-18.082,27.97-20.63-.456-2.713-6.408-7.289-6.408-7.289,2.138-.336,3.989-1.669,4.985-3.59.935-1.857,1.062-7.156-5.39-10.474-2.418-1.242-4.57-1.613-6.31-1.436-2.89.295-4.7,2.025-5.286,3.185h0Z"/>
        <path class="cls-7" d="M2180.282,1090.723l15.845,6.677-.238-15.845-15.607,9.168ZM2177.683,1100.601c-1.448,3.03-.041,6.908,3.16,8.645,3.207,1.733,6.924.662,8.376-2.364,1.448-3.03.041-6.905-3.163-8.645-1.12-.621-2.395-.906-3.673-.821-2.029.128-3.829,1.348-4.7,3.185h0ZM2154.125,1113.559c-1.363.913.491,12.99.098,23.264-.374,9.688-3.366,12.416-5.004,15.747-1.515,3.074-6.965,6.706-6.965,6.706l4.513,4.674s2.935-4.734,7.552-14.127c5.451-11.069,5.273-31.132,6.874-32.203,1.388-.929,12.752-3.86,12.752-3.86,0,0-10.429-.583-16.187-.507-1.924.025-3.315.095-3.632.307h0Z"/>
        <path class="cls-7" d="M2155.335,1170.287s1.572-4.386,7.054-15.189c6.607-13.025,20.716-22.475,21.045-24.832.342-2.431-4.902-13.852-4.902-13.852,0,0-12.448,2.396-14.207,4.107-1.702,1.648-.951,18.574-7.561,31.605-5.479,10.8-8.173,14.777-8.173,14.777l6.743,3.385Z"/>
        <path class="cls-7" d="M2185.634,1129.55c.098,1.981-15.569,13.75-20.995,24.934-4.595,9.482-6.541,14.777-6.541,14.777l6.249,1.027s-.431-6.75,1.074-9.852c1.629-3.362,2.057-7.479,9.374-13.544,7.758-6.43,18.247-12.055,18.162-13.75-.079-1.569-11.719-16.726-11.719-16.726,0,0,4.303,11.408,4.395,13.136ZM2137.544,1202.709c9.466-19.334,12.359-20.652,13.548-23.089,1.284-2.618.976-6.142-3.239-8.379-1.578-.837-2.935-1.052-4.12-.916-1.984.222-3.423,1.531-4.221,3.163-1.195,2.44-.548,5.698-10.017,25.035l-21.499,43.827s-2.253,4.304,1.962,6.538c4.218,2.234,6.088-2.247,6.088-2.247l21.498-43.932ZM2098.264,1254.44c-1.325,2.038.944,5.026,5.108,6.687,4.161,1.654,8.667,1.341,9.992-.694s-1.055-5.026-5.219-6.687c-2.079-.83-4.196-1.166-5.996-1.039-1.797.124-3.22.719-3.885,1.733ZM2088.894,1265.294c-1.695,3.476.951,8.468,5.923,11.12,4.975,2.646,10.369,1.981,12.064-1.493,1.699-3.48-.951-8.464-5.923-11.117-1.867-.989-3.714-1.515-5.486-1.604-2.944-.146-5.517.919-6.579,3.093ZM2085.588,1279.796c-1.325,2.035.948,5.023,5.105,6.68,4.158,1.661,8.658,1.341,9.986-.691,1.325-2.035-.948-5.026-5.102-6.683-2.082-.83-4.307-1.166-6.104-1.043s-3.22.719-3.885,1.737ZM2082.587,1293.479s-24.573,48.362-33.243,65.383c-2.773,5.435-14.435,8.823-19.001,17.788-4.601,9.016-1.353,17.458,4.646,20.513,5.999,3.058,14.812.833,19.407-8.186,4.566-8.962.463-20.437,3.232-25.872,8.67-17.024,33.249-65.383,33.249-65.383,0,0,2.421-4.256-1.92-6.465-.867-.461-1.857-.638-2.83-.507-2.393.307-3.54,2.728-3.54,2.728h0ZM2019.381,1405.336c-1.99,3.682.285,8.591,5.134,10.917,4.849,2.329,10.467,1.211,12.457-2.472,1.99-3.682-.396-8.591-5.245-10.917-1.696-.842-3.57-1.266-5.463-1.236-2.985.079-5.641,1.407-6.883,3.708ZM1987.089,1480.857c-1.41.051-2.576.517-3.049,1.483-.948,1.933,1.011,4.991,4.373,6.775,3.362,1.784,6.877,1.619,7.827-.317.948-1.939-1.014-4.994-4.37-6.775-1.465-.799-3.114-1.201-4.782-1.166h0ZM1974.296,1490.415v25.295l19.014-14.79s-2.58-4.931-8.22-8.04c-5.644-3.109-10.794-2.469-10.794-2.469v.003ZM1985.533,952.614c0-13.266,17.284-26.341,17.284-26.341h-421.479s17.284,13.072,17.284,26.341v316.293c0,8.335,2.551,13.76,6.607,19.062,4.053,5.714,12.689,13.605,21.651,19.474,27.681,18.127,73.965,37.236,108.982,53.296,29.177,13.383,41.048,18.783,56.215,37.718,15.17-18.935,27.14-24.332,56.32-37.718,35.011-16.057,81.295-35.17,108.979-53.296,8.965-5.869,17.601-13.76,21.654-19.474,4.053-5.302,6.503-10.727,6.503-19.062v-316.293Z"/>
        <path class="cls-4" d="M1608.604,1132.75v-180.532c0-10.217-5.083-16.438-5.083-16.438h377.113s-5.083,6.224-5.083,16.438l.108,180.532-183.527,56.551-183.527-56.551Z"/>
        <path class="cls-8" d="M1977.465,1131.251l-114.794-2.161h-141.186l-114.794,2.161v137.931c0,6.934,7.178,23.172,48.568,43.846,68.416,34.178,121.002,50.134,136.765,69.582,15.763-19.448,68.349-35.407,136.768-69.582,41.387-20.675,48.565-36.913,48.565-43.846l.108-137.931Z"/>
        <path class="cls-2" d="M1860.221,1124.967s66.54-16.65,66.54-87.227c0-55.122-66.711-82.467-68.606-95.622-6.522,22.76,22.284,54.196,22.284,91.423,0,48.169-35.8,50.476-35.8,50.476-8.376,0-11.77,5.936-15.062,5.936-7.048-.729-10.366-9.624-17.334-9.624-6.544,0-11.567,10.033-20.218,10.033s-13.573-10.033-20.12-10.033c-6.962,0-10.283,8.895-17.328,9.624-3.296,0-6.69-5.936-15.069-5.936,0,0-35.797-2.307-35.797-50.476,0-37.226,28.81-68.666,22.284-91.423-1.889,13.155-68.6,40.497-68.6,95.622,0,70.577,66.543,87.227,66.543,87.227l-18.986,34.298s27.498,1.366,42.094,13.719c17.597,14.894,15.886,46.455,15.886,69.414,0,18.089-2.304,37.179-11.656,45.044-12.562,10.569-21.052,11.351-21.052,23.755,0,10.347,8.014,12.423,21.052,19.249,16.697,8.747,15.921,20.475,40.747,20.475s24.151-11.728,40.855-20.475c13.034-6.826,21.045-8.902,21.045-19.249,0-12.404-8.49-13.186-21.045-23.755-9.352-7.872-11.656-26.959-11.656-45.044,0-22.959-1.711-54.52,15.886-69.414,14.597-12.353,42.091-13.719,42.091-13.719l-18.979-34.298Z"/>
        <path class="cls-2" d="M1793.611,948.456l-11.421,32.429-31.101-14.787,14.783,31.101-32.422,11.519,32.422,11.522-14.783,30.999,31.101-14.787,11.421,32.425,11.522-32.425,31.097,14.787-14.78-30.999,32.422-11.522-32.422-11.519,14.78-31.101-31.097,14.787-11.522-32.428ZM1720.775,1130.763s-40.636-9.998-55.816-30.194c-26.537,24.024-58.269,32.349-58.269,32.349,0,0,33.103,15.043,58.269,34.2,11.595-16.723,55.816-36.355,55.816-36.355ZM1863.38,1130.763s44.224,19.632,55.822,36.355c25.162-19.157,58.262-34.2,58.262-34.2,0,0-31.728-8.328-58.262-32.349-15.18,20.193-55.822,30.194-55.822,30.194ZM1739.789,1173.456l-15.845,15.845,15.845,15.845,15.845-15.845-15.845-15.845ZM1844.366,1173.456l-15.845,15.845,15.845,15.845,15.845-15.845-15.845-15.845ZM1734.797,1266.312c0,20.13-1.984,30.736-1.984,30.736,0,0,22.811-6.614,27.355-29.399,2.126-10.683,4.5-50.036-6.474-56.744l-29.751-5.758c3.213,7.831,10.854,32.083,10.854,61.165ZM1830.461,1210.904c-10.974,6.706-8.601,46.058-6.474,56.744,4.541,22.785,27.352,29.399,27.352,29.399,0,0-1.984-10.607-1.984-30.736,0-29.082,7.641-53.338,10.857-61.165l-29.751,5.758ZM1665.311,1212.001c-10.017,2.469-16.073,12.495-13.557,22.342.383,1.505,1.017,2.896,1.733,4.208-1.486-.492-3.027-.795-4.589-.903-.645-.033-1.291-.033-1.936,0-9.482.314-17.385,7.637-18.044,17.135-.707,10.125,7.127,18.843,17.436,19.537,1.537.101,3.033.048,4.481-.203-.884,1.195-1.651,2.472-2.24,3.907-3.857,9.418.814,20.256,10.401,24.047,9.583,3.787,20.507-.9,24.363-10.318.589-1.439.916-2.843,1.122-4.31.911,1.229,1.973,2.339,3.16,3.305,7.923,6.512,19.778,5.482,26.404-2.304,6.507-7.594,5.626-19.025-1.968-25.532-.124-.106-.25-.211-.377-.314-1.19-.956-2.491-1.764-3.876-2.405,1.466-.459,2.87-1.098,4.18-1.901,8.753-5.39,11.402-16.85,5.913-25.45-3.774-5.91-10.401-8.953-17.027-8.515-3.108.206-6.119,1.17-8.769,2.808-1.334.824-2.523,1.737-3.565,2.805.02-1.518-.151-3.032-.51-4.506-2.199-8.62-10.258-14.299-18.96-13.931-1.272.042-2.536.21-3.774.501ZM1866.765,1266.087c1.984,19.483,17.189,35.804,35.959,40.468-3.204-5.46-5.337-11.548-5.993-17.997-2.351-23.105,14.806-41.825,38.256-41.825,3.698,0,7.276.475,10.787,1.356-8.268-14.118-23.834-23.929-40.757-23.929-23.447,0-40.608,18.824-38.253,41.926h0Z"/>
        <path class="cls-11" d="M1696.041,1032.72c0,36.314,19.081,57.736,44.556,57.736,4.861,0,10.176,6.668,14.755,6.668,7.463,0,12.429-8.411,16.976-8.411,5.777,0,9.669,9.228,19.699,9.228s14.029-9.228,19.806-9.228c4.541,0,9.507,8.411,16.973,8.411,4.579,0,9.89-6.668,14.752-6.668,25.479,0,44.559-21.423,44.559-57.736,0-29.618-24.503-65.732-21.825-71.588,0,0,47.792,34.796,47.792,75.79,0,66.036-65.979,82.353-65.979,82.353l14.853,33.943s-20.453,3.115-32.939,13.335c-16.656,13.633-16.875,50.467-16.875,75.378,0,29.345,1.074,41.777,11.519,49.738,11.012,8.401,19.296,10.211,19.296,18.77,0,7.46-8.575,10.508-19.702,15.487-12.657,5.663-13.918,15.487-32.232,15.487s-19.474-9.824-32.131-15.487c-11.126-4.979-19.702-8.027-19.702-15.487,0-8.559,8.284-10.369,19.296-18.77,10.445-7.961,11.519-20.393,11.519-49.738,0-24.912-.219-61.745-16.875-75.378-12.489-10.223-32.939-13.335-32.939-13.335l14.85-33.943s-65.976-16.317-65.976-82.353c0-40.994,47.792-75.79,47.792-75.79,2.681,5.856-21.822,41.97-21.822,71.588ZM1767.071,1305.424c-12.964,0-21.22,2.776-21.22,6.769s8.259,6.668,21.22,6.668c3.451,0,7.374-2.044,7.374-6.668s-3.923-6.769-7.374-6.769ZM1817.081,1305.424c-3.454,0-7.374,2.145-7.374,6.769-.003,4.624,3.92,6.668,7.374,6.668,12.964,0,21.22-2.671,21.22-6.668s-8.259-6.769-21.22-6.769Z"/>
        <path class="cls-11" d="M1792.128,967.47l7.577,21.362,20.408-9.786-9.678,20.513,21.254,7.58-21.254,7.574,9.678,20.408-20.408-9.678-7.682,21.251-7.574-21.251-20.412,9.678,9.681-20.408-21.254-7.574,21.254-7.58-9.681-20.513,20.412,9.786,7.678-21.362h0ZM1701.761,1131.524l-35.528,25.574-.428.513-.745-.618-39.356-23.923s25.114-8.395,39.888-22.994c13.982,15.515,36.168,21.448,36.168,21.448ZM1958.451,1133.07s-25.108,12.648-37.721,23.923l-.713.618-.406-.513c-11.919-13.839-34.048-25.574-34.048-25.574,0,0,21.261-5.932,34.66-21.448,14.159,14.6,38.228,22.994,38.228,22.994h0ZM1738.252,1179.794l7.875,9.447-7.875,9.567-7.97-9.567,7.97-9.447ZM1845.9,1179.794l7.973,9.447-7.973,9.567-7.872-9.567,7.872-9.447ZM1750.37,1217.895c6.259,7.91,5.197,20.7,5.197,38.494,0,17.94-14.707,24.813-14.707,24.813,0-43.121-4.855-53.49-7.409-66.549l16.919,3.242ZM1850.704,1214.653c-2.561,13.063-7.406,23.429-7.406,66.549,0,0-14.707-6.874-14.707-24.813,0-17.794-1.065-30.581,5.194-38.494l16.919-3.242ZM1685.542,1228.825c.367,1.567.467,3.185.298,4.785-.131,1.255-.433,2.487-.897,3.66-2.277-.828-4.683-1.242-7.105-1.223-6.176,0-11.703,2.763-15.512,7.127-1.003-.892-1.878-1.919-2.599-3.052-.863-1.311-1.505-2.756-1.901-4.275-1.92-7.777,2.757-15.655,10.407-17.607.95-.235,1.922-.371,2.9-.406,6.633-.288,12.73,4.186,14.409,10.99h0ZM1707.405,1257.308c-1.423.891-2.931,1.426-4.475,1.775-1.242.262-2.514.35-3.781.263.07-2.471-.294-4.934-1.074-7.279-1.875-5.766-6.138-10.447-11.703-12.854.545-1.249,1.22-2.402,2.098-3.473.976-1.243,2.152-2.315,3.48-3.172,6.823-4.278,15.823-2.18,20.101,4.643.536.849.967,1.784,1.302,2.694,2.402,6.478-.084,13.752-5.948,17.404h0ZM1688.2,1286.444c-1.227-1.052-2.266-2.306-3.071-3.708-.634-1.1-1.112-2.283-1.42-3.514,2.372-.695,4.603-1.802,6.592-3.27,4.904-3.564,8.04-9.064,8.61-15.1,1.353.13,2.659.415,3.949.919,1.485.545,2.868,1.333,4.094,2.332,6.176,5.166,6.962,14.375,1.794,20.548-.645.764-1.368,1.459-2.158,2.073-5.419,4.285-13.103,4.168-18.39-.279h0ZM1654.564,1277.191c.627-1.556,1.531-2.877,2.576-4.066.865-.986,1.841-1.74,2.903-2.437,1.395,2.042,3.138,3.822,5.15,5.261,4.906,3.561,11.105,4.843,17.021,3.521.295,1.328.425,2.656.345,4.04-.06,1.58-.381,3.139-.951,4.614-3.004,7.473-11.519,11.063-18.992,8.056-.925-.378-1.808-.851-2.637-1.41-5.751-3.829-8.015-11.176-5.416-17.579h0ZM1652.961,1242.341c2.892.231,5.643,1.35,7.875,3.204-1.509,1.958-2.663,4.165-3.41,6.522-1.871,5.766-1.175,12.057,1.911,17.274-1.173.691-2.396,1.226-3.736,1.578-1.489.396-3.058.634-4.681.52-8.033-.548-14.083-7.536-13.532-15.569.067-1.005.266-2.012.529-2.944,1.864-6.653,8.151-11.077,15.043-10.584ZM1692.254,1257.435c0,7.876-6.385,14.261-14.261,14.261s-14.261-6.385-14.261-14.261,6.385-14.261,14.261-14.261,14.261,6.385,14.261,14.261ZM1926.761,1239.622c-24.306,4.395-41.799,24.471-39.255,47.919-7.748-5.999-13.414-14.08-14.428-23.017-1.971-17.401,11.545-30.857,31.934-30.857,7.796,0,15.284,2.231,21.749,5.955Z"/>
      </g>
    </g>
  </g>
</svg>