<?xml version="1.0" encoding="UTF-8"?>
<svg xmlns="http://www.w3.org/2000/svg" viewBox="0 0 3600.1 2401.738">
  <defs>
    <style>
      .cls-1 {
        fill: #fff;
      }

      .cls-1, .cls-2, .cls-3, .cls-4 {
        stroke-width: 0px;
      }

      .cls-2 {
        fill: #f4900c;
      }

      .cls-2, .cls-3, .cls-4 {
        fill-rule: evenodd;
      }

      .cls-3 {
        fill: #003893;
      }

      .cls-4 {
        fill: #eee;
      }
    </style>
  </defs>
  <g id="background">
    <path id="mh" class="cls-3" d="M400,.1h2800c220,0,400,180,400,400v1600c0,220-180,400-400,400H400C180,2400.1,0,2220.1,0,2000.1V400.1C0,180.1,180,.1,400,.1Z"/>
  </g>
  <g id="country">
    <g id="mh-2" data-name="mh">
      <path id="Path" class="cls-2" d="M3514.202,152.532c53.732,68.101,85.798,154.09,85.798,247.568v100L91.278,2254.461c-1.851-2.244-3.678-4.508-5.48-6.793L3514.202,152.532h0Z"/>
      <path id="Path-2" data-name="Path" class="cls-4" d="M3600,500.1v400L97.734,2262.092c-2.183-2.516-4.335-5.06-6.456-7.631L3600,500.1Z"/>
      <polygon class="cls-1" points="1109.472 907.092 1620.288 876.388 1109.472 845.684 1390.841 738.514 1093.564 786.389 1337.623 610.036 1062.867 733.221 1252.967 499.709 1019.455 689.809 1142.64 415.053 966.287 659.112 1014.162 361.836 906.992 643.204 876.288 132.388 845.584 643.204 738.414 361.836 786.289 659.112 609.936 415.053 733.121 689.809 499.609 499.709 689.709 733.221 414.953 610.036 659.012 786.389 361.736 738.514 643.104 845.684 132.288 876.388 643.104 907.092 361.736 1014.262 659.012 966.387 414.953 1142.74 689.709 1019.555 499.609 1253.067 733.121 1062.967 609.936 1337.723 786.289 1093.664 738.414 1390.941 845.584 1109.572 876.288 1620.388 906.992 1109.573 1014.162 1390.941 966.287 1093.664 1142.64 1337.723 1019.455 1062.967 1252.967 1253.067 1062.867 1019.555 1337.623 1142.74 1093.564 966.387 1390.841 1014.262 1109.472 907.092"/>
    </g>
  </g>
</svg>