<?xml version="1.0" encoding="UTF-8"?>
<svg xmlns="http://www.w3.org/2000/svg" viewBox="0 0 3600.1 2401.738">
  <defs>
    <style>
      .cls-1, .cls-2, .cls-3, .cls-4 {
        stroke-width: 0px;
      }

      .cls-1, .cls-3 {
        fill: #ffe600;
      }

      .cls-1, .cls-4 {
        fill-rule: evenodd;
      }

      .cls-2, .cls-4 {
        fill: #d20000;
      }
    </style>
  </defs>
  <g id="background">
    <path id="mk" class="cls-4" d="M400,.1h2800c220,0,400,180,400,400v1600c0,220-180,400-400,400H400C180,2400.1,0,2220.1,0,2000.1V400.1C0,180.1,180,.1,400,.1Z"/>
  </g>
  <g id="country">
    <g id="mk-2" data-name="mk">
      <path id="Shape" class="cls-1" d="M400,.1h210.6l893.1,773.8-101.3,145.7L90.376,146.837C163.731,57.263,275.19.1,400,.1h0ZM1600,.1h400l-100,700h-200L1600,.1ZM3200,.1c131.077,0,247.429,63.048,320.383,160.472l-1270.883,759.028-101.3-145.7L3041.3.1h158.7ZM3600,1000.384v399.432l-1300-99.716v-200l1300-99.716ZM3487.39,2278.322c-72.716,75.097-174.601,121.778-287.39,121.778h-189.8l-862-746.9,101.3-145.7,1237.89,770.821h0ZM2000,2400.1h-400l100-700h200l100,700ZM400,2400.1c-112.516,0-214.181-46.456-286.862-121.234l1289.262-771.366,101.3,145.7-862,746.9h-241.7ZM0,1399.815v-399.431l1296.3,99.715v200L0,1399.815Z"/>
      <circle id="Oval" class="cls-2" cx="1800" cy="1200.1" r="600"/>
      <circle id="Oval-2" data-name="Oval" class="cls-3" cx="1800" cy="1200.1" r="400"/>
    </g>
  </g>
</svg>