<?xml version="1.0" encoding="UTF-8"?>
<svg xmlns="http://www.w3.org/2000/svg" viewBox="0 0 3600.1 2401.738">
  <defs>
    <style>
      .cls-1 {
        fill: #ea2839;
      }

      .cls-1, .cls-2, .cls-3, .cls-4 {
        stroke-width: 0px;
      }

      .cls-2 {
        fill: #fecb01;
      }

      .cls-2, .cls-3 {
        fill-rule: evenodd;
      }

      .cls-3 {
        fill: #fff;
      }

      .cls-4 {
        fill: #34b232;
      }
    </style>
  </defs>
  <g id="background">
    <path id="mm" class="cls-2" d="M400,.1h2800c220,0,400,180,400,400v1600c0,220-180,400-400,400H400C180,2400.1,0,2220.1,0,2000.1V400.1C0,180.1,180,.1,400,.1Z"/>
  </g>
  <g id="country">
    <g id="mm-2" data-name="mm">
      <path class="cls-4" d="M3600,2000.1V800.1H0v1200C0,2220.1,180,2400.1,400,2400.1h2800c220,0,400-180,400-400Z"/>
      <path class="cls-1" d="M3600,2000.1v-400H0v400C0,2220.1,180,2400.1,400,2400.1h2800c220,0,400-180,400-400Z"/>
      <g>
        <path class="cls-3" d="M1512.642,1284.502l287.358-884.4,287.358,884.4h-574.716Z"/>
        <path class="cls-3" d="M2032.476,1453.408l-752.316,546.588,287.364-884.4,464.952,337.812h0Z"/>
        <path class="cls-3" d="M1711.2,1557.796l-752.316-546.588h929.916l-177.6,546.588h0Z"/>
        <path class="cls-3" d="M1711.2,1011.208h929.916l-752.316,546.588-177.6-546.588h0Z"/>
        <path class="cls-3" d="M2032.476,1115.596l287.364,884.4-752.316-546.588,464.952-337.812h0Z"/>
      </g>
    </g>
  </g>
</svg>