<?xml version="1.0" encoding="UTF-8"?>
<svg xmlns="http://www.w3.org/2000/svg" viewBox="0 0 3600.1 2401.738">
  <defs>
    <style>
      .cls-1, .cls-2, .cls-3, .cls-4 {
        stroke-width: 0px;
      }

      .cls-1, .cls-4 {
        fill: #c4272f;
      }

      .cls-2 {
        fill: #005197;
      }

      .cls-3 {
        fill: #ffd900;
      }

      .cls-4 {
        fill-rule: evenodd;
      }
    </style>
  </defs>
  <g id="background">
    <path id="mn" class="cls-4" d="M400,.1h2800c220,0,400,180,400,400v1600c0,220-180,400-400,400H400C180,2400.1,0,2220.1,0,2000.1V400.1C0,180.1,180,.1,400,.1Z"/>
  </g>
  <g id="country">
    <g id="mn-2" data-name="mn">
      <path class="cls-2" d="M400,.1C180,.1,0,180.1,0,400.1v1600C0,2220.1,180,2400.1,400,2400.1h2000V.1H400Z"/>
      <path class="cls-1" d="M400,.1C180,.1,0,180.1,0,400.1v1600C0,2220.1,180,2400.1,400,2400.1h800V.1H400Z"/>
      <g>
        <path class="cls-3" d="M270.001,1110.1h150v720h-150v-720ZM780.001,1110.1h150v720h-150v-720ZM450.001,1740.1l150,90,150-90h-300ZM450.001,1650.1h300v60h-300v-60ZM450.001,1110.1l150,90,150-90h-300ZM450.001,1230.1h300v60h-300v-60ZM671.25,1338.262c11.161,15.166,17.195,33.496,17.226,52.326.023,48.882-39.597,88.521-88.476,88.533-38.929.005-70.486,31.562-70.491,70.491.007,38.928,31.563,70.483,70.491,70.488,82.839,0,150-67.158,150-150,0-55.068-30.294-105.681-78.75-131.838h0ZM600,1519.612c16.569,0,30,13.431,30,30s-13.431,30-30,30-30-13.431-30-30,13.431-30,30-30Z"/>
        <path class="cls-3" d="M528.75,1601.938c-11.161-15.166-17.195-33.496-17.226-52.326-.023-48.882,39.597-88.521,88.476-88.533,38.929-.005,70.486-31.562,70.491-70.491-.007-38.928-31.563-70.483-70.491-70.488-82.839,0-150,67.158-150,150,0,55.068,30.294,105.681,78.75,131.838h0ZM600,1420.588c-16.569,0-30-13.431-30-30s13.431-30,30-30,30,13.431,30,30-13.431,30-30,30ZM435.299,911.815c-.111,1.094-.211,2.189-.3,3.285,0,91.127,73.873,165,165,165s165-73.873,165-165c.009-1,.009-2,0-3-28.619,65.562-93.346,107.954-164.883,107.988-71.585-.108-136.301-42.625-164.823-108.282l.006.009Z"/>
        <circle class="cls-3" cx="600.124" cy="870.098" r="120"/>
        <path class="cls-3" d="M612.611,480.138c-14.91,6.765-20.481,18.963-21.681,31.113-.75,10.23,3.765,21.753,4.215,31.758,0,17.217-17.814,22.887-17.814,47.46,0,8.445,7.8,17.751,7.8,39.669-1.35,11.505-7.77,14.1-15,15-8.284,0-15-6.716-15-15,.011-3.845,1.498-7.54,4.155-10.32.474-.536.985-1.037,1.53-1.5,3.42-3.45,8.115-4.785,8.085-13.89,0-4.68-3.03-8.94-5.925-17.226-2.73-8.04-.75-21.48,5.745-29.415-10.5,4.05-16.971,14.115-20.271,23.145-3.48,11.1-.45,17.493-5.22,26.718-2.91,5.97-6.375,8.445-9.66,13.425-3.885,5.43-8.445,18.129-8.445,24.024,0,41.421,33.579,75,75,75h0c41.421,0,75-33.579,75-75h0c0-5.895-4.5-18.594-8.385-24.024-3.285-4.98-6.81-7.455-9.72-13.425-4.71-9.225-1.68-15.618-5.16-26.718-3.3-9.03-9.78-19.092-20.274-23.145,6.495,7.935,8.475,21.375,5.745,29.415-2.91,8.28-5.97,12.54-5.97,17.226,0,9.105,4.665,10.44,8.085,13.89.545.463,1.056.964,1.53,1.5,2.657,2.78,4.144,6.475,4.155,10.32,0,8.284-6.716,15-15,15-8.295-1.05-14.25-4.92-15-15,0-28.878,12.36-30.72,12.36-52.089,0-30.513-27.363-44.958-27.363-67.266,0-7.56,1.77-20.445,12.48-30.645h.003Z"/>
      </g>
    </g>
  </g>
</svg>