<?xml version="1.0" encoding="UTF-8"?>
<svg xmlns="http://www.w3.org/2000/svg" viewBox="0 0 3600.1 2401.738">
  <defs>
    <style>
      .cls-1 {
        fill: #00785e;
      }

      .cls-1, .cls-2, .cls-3 {
        fill-rule: evenodd;
        stroke-width: 0px;
      }

      .cls-2 {
        fill: #fff;
      }

      .cls-3 {
        fill: #fbd116;
      }
    </style>
  </defs>
  <g id="background">
    <path id="mo" class="cls-1" d="M400,.1h2800c220,0,400,180,400,400v1600c0,220-180,400-400,400H400C180,2400.1,0,2220.1,0,2000.1V400.1C0,180.1,180,.1,400,.1Z"/>
  </g>
  <g id="country">
    <g id="mo-2" data-name="mo">
      <path class="cls-2" d="M1710.096,1290.616l-.06-.072-.372-.684.432.756M1884.348,1289.86l-.384.684-.06.072.444-.756M1341.6,1183.3c-58.836,3.672-110.124,18.612-152.4,36.6,58.104,145.128,183.624,246.432,326.4,260.4,40.56,3.972,77.952.444,111.072-6.9-110.328,30.456-239.88,16.26-376.872-98.1-18,7.2-30,10.2-50.4,10.8,241.212,254.304,534.012,87.924,596.4,15.6l1.2-1.164,1.2,1.164c62.388,72.324,355.188,238.704,596.4-15.6-20.4-.6-32.4-3.6-50.4-10.8-136.992,114.36-266.532,128.556-376.872,98.1,33.12,7.344,70.512,10.872,111.072,6.9,142.776-13.968,268.296-115.272,326.4-260.4-42.276-17.988-93.552-32.928-152.4-36.6-128.46-8.016-237.516,41.124-316.8,94.992,97.968-88.452,232.488-135.348,318-126.792,14.076-18.6,20.46-31.008,37.2-46.8-138.48-12.336-252.024,47.52-334.488,116.16,70.116-126.576,69.168-281.976-2.856-407.76-11.822,20.654-25.409,40.247-40.608,58.56,50.652,112.14,53.052,231.54.852,355.14l-.456,1.08c55.044-148.812,22.8-322.596-96.756-442.152l-19.488-19.488-19.488,19.488c-119.556,119.556-151.8,293.34-96.756,442.152l-.456-1.08c-52.2-123.6-49.8-243,.852-355.14-15.195-18.316-28.782-37.908-40.608-58.56-72.024,125.784-72.972,281.184-2.844,407.76-82.476-68.64-196.008-128.496-334.5-116.16,16.74,15.792,23.124,28.2,37.2,46.8,85.512-8.556,220.032,38.34,318,126.792-79.296-53.868-188.34-103.008-316.8-94.992M1481.496,1794.1h631.008c24.503-11.647,48.329-24.667,71.364-39h-773.736c23.035,14.333,46.861,27.353,71.364,39M1365.708,1725.1h862.572c13.818-10.111,27.267-20.718,40.32-31.8h-943.2c13.051,11.079,26.496,21.686,40.308,31.8M1797,1864.636c94.92,0,185.496-17.808,268.272-50.136h-536.556c82.788,32.328,173.352,50.136,268.284,50.136M1283.736,1654.9h1026.516c7.54-7.53,14.902-15.236,22.08-23.112h-1070.676c7.184,7.87,14.546,15.576,22.08,23.112"/>
      <path class="cls-2" d="M1926.3,1521.4c-47.032-19.224-89.914-47.337-126.3-82.8-72.515,71.039-169.774,111.156-271.284,111.9h-330.816c9.833,14.698,20.233,29.009,31.176,42.9h299.64c52.459,2.202,104.825-6.168,153.984-24.612,42.878-16.144,82.583-39.703,117.3-69.6,33.694,30.22,72.636,54.016,114.9,70.212,47.93,18.295,99.129,26.467,150.372,24h299.64c10.941-13.89,21.337-28.2,31.164-42.9h-330.804c-47.702-1.224-94.787-11.084-138.972-29.1"/>
      <path class="cls-3" d="M1827.372,541.816l-30.132-91.008-30.12,91.008-94.92.84,76.296,57.12-28.536,91.524,77.28-55.728,77.292,55.728-28.548-91.536,76.296-57.108-94.908-.84ZM1310.448,884.572l-14.052-64.74-28.584,59.76-67.224-7.248,49.428,45.348-27.492,60.24,59.136-31.728,50.244,44.496-12.9-64.968,58.548-32.76s-67.104-8.4-67.104-8.4ZM1529.916,611.956l-55.476,38.676-53.772-38.664,18.78,63.516-54.792,39.636,67.08.576,19.92,63.156,22.668-63.156,67.104-.6-53.064-39.6s21.552-63.54,21.552-63.54ZM2396.028,872.344l-67.236,7.248-28.572-59.76-14.052,64.74-67.104,8.4,58.536,32.76-12.888,64.956,50.232-44.484,59.136,31.74-27.492-60.252s49.44-45.348,49.44-45.348ZM2175.948,611.98l-53.784,38.652-55.464-38.676,21.54,63.528-53.052,39.612,67.092.6,22.668,63.156,19.92-63.156,67.08-.576-54.78-39.636,18.78-63.516v.012Z"/>
    </g>
  </g>
</svg>