<?xml version="1.0" encoding="UTF-8"?>
<svg xmlns="http://www.w3.org/2000/svg" viewBox="0 0 3600.1 2401.738">
  <defs>
    <style>
      .cls-1 {
        fill: #26ab4d;
      }

      .cls-1, .cls-2, .cls-3, .cls-4 {
        stroke-width: 0px;
      }

      .cls-2 {
        fill: #d01c1f;
      }

      .cls-2, .cls-3 {
        fill-rule: evenodd;
      }

      .cls-3, .cls-4 {
        fill: #fad606;
      }
    </style>
  </defs>
  <g id="background">
    <path id="mr" class="cls-2" d="M400,.1h2800c220,0,400,180,400,400v1600c0,220-180,400-400,400H400C180,2400.1,0,2220.1,0,2000.1V400.1C0,180.1,180,.1,400,.1Z"/>
  </g>
  <g id="country">
    <g id="mr-2" data-name="mr">
      <path class="cls-1" d="M0,480.1h3600v1440H0V480.1Z"/>
      <path class="cls-4" d="M2700,830.17c-95.952,345.219-462.483,602.22-900,602.22s-804.045-257.001-900-602.22c28.662,474.228,420.645,849.93,900,849.93s871.344-375.702,900-849.93Z"/>
      <path class="cls-3" d="M1800,720.106l57.114,175.752h184.8l-149.502,108.63,57.099,175.755-149.511-108.618-149.511,108.618,57.099-175.758-149.502-108.63h184.8l57.114-175.749Z"/>
    </g>
  </g>
</svg>