<?xml version="1.0" encoding="UTF-8"?>
<svg xmlns="http://www.w3.org/2000/svg" viewBox="0 0 3600.1 2401.738">
  <defs>
    <style>
      .cls-1 {
        fill: #a53d08;
      }

      .cls-1, .cls-2, .cls-3, .cls-4, .cls-5, .cls-6, .cls-7, .cls-8 {
        stroke-width: 0px;
      }

      .cls-9 {
        fill: #ffe1cf;
      }

      .cls-9, .cls-10, .cls-11, .cls-12, .cls-13, .cls-14, .cls-15 {
        stroke: #000;
      }

      .cls-9, .cls-11, .cls-14, .cls-15 {
        stroke-width: 1.196px;
      }

      .cls-10, .cls-12 {
        fill: #ff9a08;
      }

      .cls-10, .cls-12, .cls-16 {
        stroke-width: 2.903px;
      }

      .cls-11, .cls-17, .cls-16 {
        fill: none;
      }

      .cls-12, .cls-4, .cls-7, .cls-8 {
        fill-rule: evenodd;
      }

      .cls-3 {
        fill: #fff;
      }

      .cls-4 {
        fill: #00247d;
      }

      .cls-13 {
        fill: #00a2bd;
      }

      .cls-13, .cls-17 {
        stroke-width: 5.437px;
      }

      .cls-17, .cls-16 {
        stroke: #ffdf00;
        stroke-linecap: round;
      }

      .cls-5, .cls-8 {
        fill: #eee;
      }

      .cls-6, .cls-7 {
        fill: #cf1b2b;
      }

      .cls-14 {
        fill: #870f00;
      }

      .cls-15 {
        fill: #008021;
      }
    </style>
  </defs>
  <g id="background">
    <path id="gb" class="cls-4" d="M400,.1h2800c220,0,400,180,400,400v1600c0,220-180,400-400,400H400C180,2400.1,0,2220.1,0,2000.1V400.1C0,180.1,180,.1,400,.1Z"/>
  </g>
  <g id="country">
    <g id="ms">
      <path class="cls-3" d="M2308.398,742.678h770.637l-.918,548.361c6.411,220.44-130.986,357.228-383.793,418.902-179.502-44.58-386.511-136.788-386.817-412.647l.915-554.616h-.024Z"/>
      <path class="cls-13" d="M2325.456,759.208h736.479l-.873,525.465c6.123,211.23-125.184,342.306-366.783,401.406-171.564-42.711-369.396-131.076-369.69-395.415l.876-531.456h-.009Z"/>
      <path class="cls-1" d="M3056.22,1346.914c-26.79,201.63-182.076,289.728-361.965,336.486-159.219-42.714-330.522-110.904-363.729-335.472l725.703-1.014h-.009Z"/>
      <path class="cls-2" d="M2665.095,857.092l-1.026-66.225,52.365.51.513,65.715h143.232l.51,51.339-143.742.51-1.149,605.448-51.078.321-.651-606.279-142.749.513.03-52.365,143.745.513Z"/>
      <g>
        <path class="cls-12" d="M2549.142,1371.901l131.109,136.014c45.336-49.83,13.89-236.088-45.741-270.39-7.146,22.053-19.302,48.498-32.22,57.024-28.425,19.371-98.076,42.018-74.796,56.52,5.31-7.35,19.197-14.295,25.731,2.043,7.761,25.731-28.998,27.366-28.998,27.366,0,0-23.28-2.862-27.366-26.55s34.677-45.315,37.986-46.968c3.267-1.23,53.913-14.703,62.49-59.637,10.62-44.112,21.648-37.575,23.691-38.394,66.165,6.534,109.461,124.986,111.915,208.308,2.448,83.322-33.9,138.462-40.44,142.14-6.531,3.675-157.656-179.307-157.656-179.307l14.295-8.169Z"/>
        <path class="cls-10" d="M2644.719,1245.283l.813,245.475M2630.016,1249.774l.813,223.014M2614.086,1282.042l.813,177.264M2601.015,1294.702l.819,146.637M2587.128,1301.239v123.759M2572.014,1311.043v98.025M2558.946,1318.804v75.15"/>
        <g>
          <path class="cls-16" d="M2547.099,1387.423l135.195,154.8"/>
          <path class="cls-17" d="M2688.828,1289.803s61.272,133.974,4.494,244.251M2531.169,1359.238s4.494-11.844,10.212-6.942M2520.552,1324.93s-24.507,21.645-11.028,35.535"/>
        </g>
      </g>
      <g>
        <path class="cls-15" d="M2717.337,984.232c9.075-7.785,13.785-12.543,19.404-11.676,5.622.864,13.275.429,18.894-1.299,5.64-1.734,33.531-5.19,45-1.299,3.894.432,9.078,2.598,17.07,9.3,8.013,6.705,19.692,18.384,15.798,50.826-3.891,32.439-2.619,46.317-4.329,64.449-3.018,32.01-10.119,58.368-22.92,56.232,17.301,30.279,19.029,56.232,30.27,76.995,11.259,20.763,18.171,63.153,13.842,109.005-4.311,45.852-16.425,148.8,19.899,218.01-6.06,4.323-20.754,0-33.741-13.845-12.969-13.842-18.666-13.386-29.412-5.19-32.868,25.089-63.648,55.326-108.99,25.089-10.386-6.921-13.671-15.222-6.06-36.336,19.029-52.77,28.275-125.175,25.275-159.18v-381.081h0Z"/>
        <path class="cls-9" d="M2748.513,951.79c2.373,7.353,3.666,16.869-.228,25.518-3.891,8.652-4.746,19.035,1.728,31.578,10.386-14.706,25.101-11.679,33.741-20.328,8.658-8.652,10.386-16.872,16.881-18.6-6.495-5.625-16.443-11.679-14.28-28.119,2.166-16.437,25.083-29.844,4.329-54.933-13.404-16.197-32.886-11.679-41.316-5.406-3.969,2.946-7.35,7.134-8.64,9.948-1.311,2.811.324,9.21-2.829,12.978-2.275,2.768-4.891,5.238-7.785,7.35-1.938,1.41-3.15,3.456-1.08,5.841.834.954,2.352,1.158,4.023,1.737-.969,1.944-2.07,3.885-3.15,5.292-1.026,1.32-.591,2.58.645,3.654-1.635,5.19,1.518,5.754-.648,9.648-1.878,3.366-4.422,7.35,2.601,11.247,1.938,1.08,11.148,3.216,16.008,2.595h0ZM2664.378,1037.869c-12.114,3.03-31.575-2.16-46.29-.432-6.495.765-11.679-2.595-10.806-9.084.855-6.489,1.728-16.437.42-25.521-2.016-14.154,4.764-33.738,14.277-55.368,9.51-21.627,14.28-33.738,14.28-43.902,0-6.705.645-14.277,6.702-18.168,4.479-2.877,5.334-5.67,6.93-8.001,3.663-5.409,7.119-6.705,7.557-3.459.264,1.929-.438,3.675-2.166,6.27,3.894-3.246,10.5-7.032,12-8.112,1.521-1.08,9.21-6.486,9.63-1.404,3.036-1.515,5.088-1.41,5.847.213.816,1.755.321,2.49-1.2,3.786,2.166-.432,4.656,3.354.327,6.705,2.28-.756,4.536,3.03.549,6.489-4.14,3.57-8.868,6.057-10.386,8.868-1.518,2.811-11.79,10.707-15.894,12.435-4.119,1.731-4.329,4.104-4.329,10.164,0,66.615-7.992,61.2-7.992,77.214,0,4.323-.873,8.217,3.456,6.918,4.329-1.296,10.593-3.243,17.088-3.243v37.632ZM2666.961,1181.476c19.56-9.774,41.964-13.41,53.64-16.437,11.679-3.03,30.285-12.108,39.36-16.866,9.096-4.761,16.446-11.25,21.63-12.981,5.202-1.728,11.01-5.31,14.28-11.676,16.86-32.874,25.953-59.256,25.953-82.185,0-15.141-3.891-32.01-18.606-19.899-13.824,11.385-28.881,33.33-32.868,49.311-6.06,24.222-11.241,29.415-12.552,34.17-1.29,4.761-6.189,4.755-12.114,6.06-25.518,5.622-31.575,9.51-50.601,23.79-19.026,14.271-39.798,26.82-53.64,34.602-13.842,7.788-16.425,8.652-19.464,14.922-3.018,6.27-5.829,11.031-8.43,13.845-2.601,2.811-3.342,6.096-2.811,9.516.438,2.811-.873,15.786-1.08,20.112-.231,4.326.852,5.409,2.598,5.622,1.728.219,4.104-.648,4.977-5.838-.873,5.19,6.264,3.459,6.702-.432-.228,5.622,7.35,2.379,7.785-2.811,0,3.675,5.733,1.134,6.267-.651,1.29-4.323,2.37-9.081,4.101-12.54,2.526-5.025,5.22-11.529,10.176-15.144,5.622-4.11,3.021-8.649,14.697-14.49h0ZM2807.109,1535.74c1.311,4.758,3.684,10.167,4.539,13.41.87,3.243-.648,4.257-1.5,6.057-4.539,9.516-9.42,24.684-10.179,32.874-.417,4.758-3.663,9.3-5.184,12.111-1.671,3.102-1.023,5.493,2.811,8.433,1.842,1.407,7.785-.432,8.43-3.459,2.166,2.16,6.06,1.299,7.785-1.95,1.956,1.95,5.202.651,7.368-2.592,1.938,1.299,4.746-1.299,5.829-3.03,3.039,1.515,6.285-.321,6.381-6.27.018-1.194.759-3.243,1.632-4.65.855-1.407,1.176-4.11,1.08-6.489-.111-2.379,1.41-7.137,3.459-10.488,2.049-3.354,5.619-9.3,4.101-14.925-1.407-5.238-3.666-4.758-5.622-12.327-4.746-4.974-11.241-11.895-17.94-12.33-6.705-.429-10.599,4.11-12.99,5.625h0ZM2684.049,1572.94c6.057,6.054,19.689,6.27,29.202-3.894-3.456-1.515-11.031-4.974-14.487-7.785-4.764,4.758-10.176,10.164-14.715,11.679Z"/>
        <path class="cls-14" d="M2745.267,885.178c2.373-15.354,13.254-14.994,20.109-13.41,2.808.651,9.741,1.299,16.215-.432,12.834-3.42,22.5,1.08,21.21,13.41,3.456,2.595,7.119,8.649,6.474,13.842-.645,5.19.435,7.353,5.202,8.001,4.746.651,14.925,6.489,8.202,14.706,6.495,3.897,11.469,13.842,8.013,20.55-3.456,6.702-13.842,7.785-18.171,1.728-4.746,2.16-12.549,2.595-17.298-2.376-3.246,3.888-11.469,3.459-12.987,0-1.5-3.462-4.062-5.313-7.119-6.276-3.477-1.08-3.684-10.596,1.5-11.679-.648-2.811-.42-6.054.87-7.569s.21-4.323-2.808-6.705c-3.039-2.379-5.619-11.463-2.601-16.437-5.184,1.731-16.65-3.243-19.026-6.705-2.391-3.459-5.619-3.675-7.785-.648h0Z"/>
        <g>
          <path class="cls-11" d="M2748.513,951.79c8.43-1.08,11.241-6.27,17.508-5.841M2730.552,928.303c.552.486,1.254.882,2.052,1.32,1.71.924,3.57,1.032,5.295,1.245M2733.057,919.354c1.176.405,2.43.999,3.552,2.157M2752.614,885.178c-4.974-4.758,8.43-14.49,22.5-.648,2.622,2.58,9.285,2.595,11.241,1.944M2772.078,892.531c6.495-1.515,16.215-1.515,19.026,5.838,2.829,7.356,8.448,2.595,12.99,11.25,4.536,8.649,11.676,18.381,18.585,11.676M2795.223,941.194c-1.956-2.595-2.811-8.22-1.518-12.114-2.601-3.027-1.521-9.3,0-12.327M2776.617,923.242c.228,2.595,3.684,7.353,9.096,8.22M2812.521,943.573c-3.018-3.894-2.601-7.35-1.938-12.111"/>
          <path class="cls-11" d="M2780.946,900.535c-.21,3.891,2.166,9.084,6.267,10.812.87,2.16,5.202,8.22,13.842,7.356M2802.801,884.746c-4.746-3.684-11.184-8.22-19.689-9.345M2750.013,1008.886c-7.35,9.951-12.114,23.79-8.64,43.257,3.456,19.464,9.078,48.012-5.202,60.99M2806.254,1150.765c-9.951-2.16-24.228-2.16-32.013,3.462-7.785,5.622-20.772,6.054-29.412,1.728"/>
          <path class="cls-11" d="M2785.275,1150.117c-8.658,1.512-12.759,7.569-12.759,23.574s-3.456,39.36-.438,62.286M2769.477,1156.822c-5.619,1.512-11.451,1.728-10.368,16.869M2740.293,1174.123c.21-9.3,3.456-17.952,9.513-16.44M2802.573,1175.854c.438-20.547-4.101-26.385-10.158-26.169,8.22.216,13.824,1.221,17.298,34.821,2.601,25.086,7.842,33.969,13.842,53.64,15.57,51.039,7.785,129.762,15.57,157.446M2790.684,1181.908c16.425,47.583,25.08,100.353-1.728,185.133,18.15,50.178,36.324,86.511,39.78,107.277M2738.772,1294.372c3.018-10.812-7.785-12.111,1.728-50.175,4.119-16.488,4.767-26.385,2.163-31.578"/>
          <path class="cls-11" d="M2742.666,1235.116c-3.894,16.872,12.552,48.447,4.329,71.37M2726.658,1310.812c0,14.706,3.456,33.738,2.601,48.447-.873,14.706,5.127,21.522,12.114,35.469,25.083,50.178,42.153,85.977,39.78,133.23-.42,8.649,2.601,26.817-6.474,32.004M2727.303,1572.724c2.601.216,5.412-1.08,8.658-8.868,3.246-7.788,13.635-54.501,9.303-86.511M2750.451,1513.681c1.29,9.948,1.29,30.279-5.184,46.284"/>
          <path class="cls-11" d="M2766.894,1483.834c3.891,21.195,3.456,40.23.438,53.637M2758.236,1537.468c.438,8.652,4.329,30.279-2.166,32.01M2790.684,1437.118c15.99,25.089,28.539,86.946,41.943,99.918M2804.526,1527.088c-.438-6.921-.873-16.437-4.767-20.763M2631.72,1224.301c.21-4.761-.645-9.3,4.539-16.653M2623.935,1227.112c.645-16.653.42-18.168,5.184-22.71M2617.233,1227.544c.21-11.895-1.311-16.005,3.456-23.574M2676.912,870.688c-1.842,1.188-12.645,9.405-17.184,12.87M2681.562,874.687c-2.052.324-7.995,5.19-18.588,13.41M2681.886,881.392c-3.342,1.512-9.72,7.68-15.57,11.79M2655.285,880.204c-1.614,1.188-4.746,4.65-6.267,5.838M2806.029,1605.166c-.969-1.08-.969-4.869.759-9.084M2813.811,1603.219c-1.176-1.188,0-6.381,1.197-9.732M2821.179,1600.624c-1.404-.648-1.842-3.678.21-7.788M2827.008,1597.594c-.969-.324-1.404-1.947.324-6.702"/>
        </g>
        <path class="cls-2" d="M2741.907,898.801c3.132,4.11,6.381,3.675,6.951,6.324.57,2.652.987,2.838,1.593,3.627.609.78-1.482.624-2.505.201-1.008-.42-3.552-.378-5.109-.357-1.539.024-3.378-1.797-2.22-2.01,1.14-.21.987-.57.816-1.38-.171-.804.645-2.079,1.119-2.31.495-.234.15-.192-.285-1.272-.456-1.08-1.023-3.708-.36-2.823ZM2743.806,895.039c3.51.411,9.57,2.31,12.855,5.946,2.58,2.859.474,2.1-.837,2.208-1.308.108-3.87-.819-5.163-2.445-1.272-1.623-5.088-3.681-7.122-4.218-1.233-.318-2.391-1.803.267-1.491h0Z"/>
      </g>
    </g>
    <g id="mini-gb">
      <path class="cls-4" d="M1600,.1v1200H0V400.1C0,180.1,180,.1,400,.1h1200Z"/>
      <path id="Path" class="cls-8" d="M1534.9.1h65.1v255.8l-545.5,354.3,545.5,354.2v235.7h-96l-679-440.9-679,440.9H0v-203.2l595.5-386.7L31.6,243.9C65.5,164.1,124.5,97.6,198.7,54.3l626.3,406.7L1534.9.1Z"/>
      <path id="Path-2" class="cls-7" d="M0,1189.3v-119.2l708.2-460L60,189.3c17.8-28.7,39.2-54.9,63.4-78.2l676.6,439.4L1600,31.1v119.3l-708.2,459.7,708.2,460v119.2l-800-519.5L0,1189.3Z"/>
      <polygon id="Shape" class="cls-5" points="1000 400.1 1600 400.1 1600 800.1 1000 800.1 1000 1200.1 600 1200.1 600 800.1 0 800.1 0 400.1 600 400.1 600 .1 1000 .1 1000 400.1"/>
      <polygon id="Shape-2" class="cls-6" points="900 500.1 900 .1 700 .1 700 500.1 0 500.1 0 700.1 700 700.1 700 1200.1 900 1200.1 900 700.1 1600 700.1 1600 500.1 900 500.1"/>
    </g>
  </g>
</svg>