<?xml version="1.0" encoding="UTF-8"?>
<svg xmlns="http://www.w3.org/2000/svg" viewBox="0 0 3600.1 2401.738">
  <defs>
    <style>
      .cls-1, .cls-2, .cls-3, .cls-4, .cls-5, .cls-6, .cls-7 {
        fill-rule: evenodd;
      }

      .cls-1, .cls-2, .cls-3, .cls-5, .cls-6, .cls-8, .cls-7 {
        stroke-width: 0px;
      }

      .cls-1, .cls-4 {
        fill: #96877d;
      }

      .cls-2 {
        fill: #e60d2e;
      }

      .cls-4 {
        stroke: #000;
        stroke-width: .809px;
      }

      .cls-4, .cls-9 {
        stroke-miterlimit: 8;
      }

      .cls-9 {
        fill: none;
        stroke: #96877d;
        stroke-width: 2.049px;
      }

      .cls-5 {
        fill: #ccc;
      }

      .cls-6 {
        fill: #d0d0d0;
      }

      .cls-8 {
        fill: #eee;
      }

      .cls-7 {
        fill: #cf142b;
      }
    </style>
  </defs>
  <g id="background">
    <path id="mt" class="cls-7" d="M400,.1h2800c220,0,400,180,400,400v1600c0,220-180,400-400,400H400C180,2400.1,0,2220.1,0,2000.1V400.1C0,180.1,180,.1,400,.1Z"/>
  </g>
  <g id="country">
    <g id="mt-2" data-name="mt">
      <path class="cls-8" d="M400,.1C180,.1,0,180.1,0,400.1v1600C0,2220.1,180,2400.1,400,2400.1h1400V.1H400Z"/>
      <g>
        <path class="cls-2" d="M93.404,333.7v181.349h181.339c0,30.215,30.228,60.443,60.45,60.443v181.336h181.33v-181.336c30.225,0,60.45-30.225,60.45-60.443h181.339v-181.349h-181.339c0-30.215-30.228-60.443-60.45-60.443V91.921h-181.33v181.336c-30.225,0-60.446,30.225-60.446,60.443H93.404Z"/>
        <path class="cls-1" d="M106.069,345.931v156.89h181.01c0,30.161,30.171,60.332,60.342,60.332v181.01h156.874v-181.01c30.174,0,60.342-30.171,60.342-60.332h181.01v-156.89h-181.01c0-30.161-30.171-60.336-60.342-60.336V104.586h-156.874v181.013c-30.174,0-60.342,30.171-60.342,60.332H106.069Z"/>
        <path class="cls-5" d="M112.401,352.032v144.674h180.836c0,30.133,30.142,60.285,60.285,60.285v180.839h144.671v-180.839c30.142,0,60.285-30.152,60.285-60.285h180.836v-144.674h-180.836c0-30.133-30.142-60.275-60.285-60.275V110.918h-144.671v180.839c-30.142,0-60.285,30.142-60.285,60.275,0,0-180.836,0-180.836,0Z"/>
        <path class="cls-1" d="M343.219,288.543c11.015,11.018,8.039,31.852-6.649,46.544-14.688,14.688-35.525,17.664-46.544,6.649-11.015-11.015-8.036-31.852,6.649-46.544,14.691-14.685,35.528-17.664,46.544-6.649Z"/>
        <path class="cls-6" d="M289.71,321.482l3.958-4.36,15.831,8.707-7.916-17.414,3.958-4.357,15.831,34.828-31.662-17.414v.009ZM315.04,295.465l4.072-4.072,24.424,24.424-4.072,4.072-24.424-24.424Z"/>
        <path class="cls-1" d="M561.689,341.755c-11.018,11.015-31.852,8.039-46.544-6.649-14.688-14.688-17.664-35.525-6.649-46.544,11.015-11.015,31.852-8.036,46.544,6.649,14.685,14.691,17.664,35.528,6.649,46.544Z"/>
        <path class="cls-6" d="M528.754,288.246l4.357,3.958-8.704,15.831,17.411-7.916,4.357,3.958-34.828,15.831,17.414-31.662h-.006ZM554.767,313.572l4.069,4.072-24.424,24.427-4.072-4.072,24.427-24.427Z"/>
        <path class="cls-1" d="M508.477,560.187c-11.015-11.018-8.039-31.852,6.649-46.544,14.688-14.688,35.528-17.664,46.54-6.649,11.018,11.015,8.042,31.852-6.649,46.544-14.685,14.685-35.525,17.664-46.54,6.649Z"/>
        <path class="cls-6" d="M561.986,527.252l-3.958,4.357-15.831-8.704,7.916,17.411-3.958,4.357-15.831-34.828,31.662,17.414v-.006ZM536.66,553.265l-4.072,4.072-24.424-24.424,4.072-4.072,24.424,24.424Z"/>
        <path class="cls-1" d="M290.045,507.013c11.018-11.015,31.852-8.039,46.544,6.649,14.688,14.688,17.664,35.528,6.649,46.54-11.015,11.018-31.852,8.042-46.544-6.649-14.685-14.688-17.664-35.525-6.649-46.54Z"/>
        <path class="cls-6" d="M322.98,560.522l-4.357-3.958,8.707-15.834-17.414,7.919-4.357-3.958,34.828-15.831-17.414,31.662h.006ZM296.964,535.196l-4.072-4.072,24.427-24.427,4.069,4.072-24.424,24.427Z"/>
        <path class="cls-9" d="M554.09,425.958c0,69.945-56.704,126.649-126.649,126.649s-126.649-56.704-126.649-126.649,56.704-126.649,126.649-126.649,126.649,56.704,126.649,126.649Z"/>
        <path class="cls-9" d="M525.594,425.958c0,54.209-43.944,98.153-98.153,98.153s-98.153-43.944-98.153-98.153,43.944-98.153,98.153-98.153,98.153,43.944,98.153,98.153Z"/>
        <path class="cls-3" d="M384.697,527.277c0,2.622-2.834,4.749-6.332,4.749s-6.332-2.128-6.332-4.749,2.834-4.749,6.332-4.749,6.332,2.128,6.332,4.749ZM479.683,527.277c0,2.622-2.834,4.749-6.332,4.749s-6.332-2.128-6.332-4.749,2.834-4.749,6.332-4.749,6.332,2.128,6.332,4.749ZM421.637,527.157v6.218h-8.444c-8.444,0-8.444,6.222,0,6.222h8.444v6.218c.029,6.446,7.368,7.229,7.906.541l.535-6.725h8.444c8.444,0,8.444-6.218,0-6.218h-8.444v-6.222c0-6.218-8.441-6.218-8.441,0v-.035ZM307.776,456.854l8.359-2.014-.925-3.913c-.212-.896-.564-1.507-1.054-1.83s-1.33-.412-2.523-.269l-.139-.589,7.197-1.732.139.586c-.823.209-1.406.465-1.741.763-.326.278-.561.649-.671,1.064-.104.412-.076.978.095,1.694l.921,3.913,6.681-1.608c1.077-.26,1.77-.5,2.083-.719.262-.209.445-.502.516-.83.142-.505.153-1.038.032-1.548l-.184-.776.583-.139,2.175,9.22-.583.142-.177-.763c-.209-.887-.617-1.469-1.225-1.748-.393-.171-1.228-.105-2.504.203l-13.732,3.309c-1.077.26-1.773.5-2.083.719-.261.205-.445.491-.522.814-.143.505-.154,1.038-.032,1.548l.177.76-.579.139-3.768-15.986,4.623-1.33.127.554c-.925.513-1.58,1.007-1.957,1.485-.38.475-.611,1.007-.697,1.589-.082.586.009,1.437.272,2.555l1.118,4.737h0ZM302.394,418.748c.158-2.862,1.374-5.281,3.641-7.254,2.267-1.976,5.012-2.872,8.232-2.688,3.312.187,6.006,1.399,8.077,3.638,2.071,2.242,3.021,4.86,2.853,7.865-.168,3.033-1.377,5.525-3.629,7.469-2.248,1.941-5.069,2.818-8.46,2.625-3.464-.196-6.225-1.551-8.28-4.062-1.783-2.178-2.596-4.708-2.435-7.593h0ZM303.553,419.125c-.111,1.973.526,3.597,1.906,4.873,1.719,1.586,4.319,2.479,7.795,2.679,3.559.203,6.342-.412,8.349-1.843,1.526-1.099,2.343-2.618,2.451-4.559.148-1.987-.632-3.931-2.112-5.265-1.523-1.441-4.008-2.261-7.45-2.454-3.736-.215-6.56.37-8.476,1.751-1.526,1.108-2.346,2.717-2.463,4.819ZM335.212,378.793l-2.077,5.509-12.18,3.315c-.177.526-.323.95-.446,1.276-.112.299-.236.594-.37.883l5.937,2.286c1.285.494,2.137.659,2.555.494.586-.215,1.026-.709,1.317-1.482l.304-.804.557.212-3.334,8.846-.557-.215.294-.776c.329-.874.282-1.605-.139-2.197-.231-.332-.928-.725-2.093-1.172l-13.194-5.075c-1.285-.497-2.137-.662-2.555-.497-.592.225-1.035.731-1.33,1.51l-.291.776-.557-.212,2.831-7.52c.826-2.191,1.593-3.749,2.302-4.667s1.624-1.577,2.745-1.976c1.119-.4,2.346-.371,3.445.079,1.254.484,2.188,1.317,2.802,2.498.611,1.184.782,2.717.51,4.597l7.466-2.007c1.71-.459,2.919-.95,3.625-1.482.706-.529,1.333-1.336,1.878-2.416,0,0,.557.215.557.215ZM319.191,389.413c.105-.285.217-.566.336-.845.741-1.969.88-3.616.412-4.939-.418-1.274-1.399-2.284-2.66-2.739-1.273-.491-2.463-.488-3.565.013s-1.903,1.415-2.406,2.742c-.222.589-.424,1.422-.611,2.501l8.495,3.268ZM365.693,316.248l4.224,5.541-.472.31c-1.412-1.146-2.736-1.84-3.964-2.083-1.776-.351-3.521.035-5.234,1.156-2.337,1.529-3.515,3.625-3.534,6.291-.009,2.242.687,4.455,2.08,6.633,1.134,1.767,2.508,3.16,4.116,4.173,1.612,1.016,3.182,1.504,4.715,1.466,1.428-.007,2.825-.42,4.027-1.19.678-.443,1.276-.956,1.795-1.542.519-.589.966-1.241,1.336-1.963l-3.435-5.357c-.595-.931-1.054-1.494-1.38-1.688-.321-.195-.698-.277-1.07-.231-.389.041-.953.304-1.691.788l-.336-.519,7.102-4.651.336.519-.339.222c-.703.462-1.035,1.013-.991,1.659.035.456.37,1.181,1.007,2.172l3.638,5.674c-.626,1.172-1.389,2.264-2.273,3.255-.925.994-1.972,1.868-3.116,2.599-3.546,2.321-6.972,2.935-10.284,1.843-2.447-.79-4.534-2.422-5.889-4.607-1.048-1.64-1.68-3.51-1.843-5.449-.24-2.259.162-4.541,1.159-6.583.836-1.672,2.169-3.106,3.999-4.306.668-.437,1.311-.779,1.925-1.026.617-.247,1.545-.513,2.786-.792.627-.142,1.026-.266,1.197-.38.171-.111.266-.285.288-.526.019-.241-.108-.602-.38-1.083,0,0,.5-.326.5-.326ZM401.281,318.736l-8.178,2.197-.545,3.755c-.136.925-.149,1.589-.041,1.998.085.326.313.57.684.735.37.165,1.077.149,2.112-.054l.155.583-6.652,1.789-.152-.583c.839-.396,1.358-.754,1.551-1.073.396-.646.712-1.827.953-3.543l2.805-19.564.545-.146,12.025,15.78c.966,1.266,1.748,2.049,2.343,2.343.595.294,1.33.355,2.204.174l.155.583-8.334,2.239-.152-.583c.83-.266,1.361-.56,1.593-.883.224-.281.303-.652.212-1.001-.12-.459-.522-1.134-1.2-2.02l-2.083-2.723v-.003ZM400.537,317.692l-5.851-7.665-1.406,9.613,7.257-1.95v.003ZM439.121,317.574l.529.136-2.099,5.915-16.911-.665.025-.602.82.032c.925.038,1.596-.241,2.017-.833.237-.339.383-1.137.431-2.397l.548-14.239c.054-1.377-.063-2.248-.351-2.606-.399-.494-1.013-.76-1.84-.792l-.82-.032.022-.602,9.888.389-.022.602c-1.159-.057-1.979.019-2.454.228-.413.158-.762.448-.991.826-.187.342-.304,1.168-.355,2.479l-.532,13.868c-.038.899.029,1.523.187,1.865.124.239.328.426.576.529.263.117,1.099.206,2.504.26l1.596.063c1.675.067,2.856-.013,3.54-.234.687-.225,1.32-.643,1.903-1.254.583-.614,1.181-1.593,1.792-2.938h-.003ZM468.228,325.446l.469.275-3.638,5.101-16.065-5.37.187-.573.779.26c.877.294,1.599.215,2.166-.234.323-.26.681-.988,1.07-2.182l4.426-13.532c.431-1.308.554-2.175.377-2.603-.25-.586-.766-1.01-1.551-1.273l-.779-.26.187-.573,9.394,3.141-.187.57c-1.099-.38-1.906-.532-2.419-.465-.44.034-.855.216-1.178.516-.272.275-.611,1.039-1.02,2.283l-4.312,13.178c-.279.855-.389,1.469-.332,1.843.051.26.19.481.412.671.218.187.997.503,2.334.95l1.517.507c1.593.532,2.748.788,3.467.766s1.444-.247,2.172-.674c.728-.424,1.57-1.197,2.527-2.321ZM491.683,338l-6.909-4.942-3.201,1.982c-.788.484-1.304.902-1.545,1.247-.193.275-.234.608-.12,1.001.114.396.576.931,1.393,1.605l-.345.494-5.617-4.018.345-.491c.839.399,1.441.57,1.808.516.747-.108,1.846-.617,3.302-1.529l16.667-10.35.462.329-4.297,19.437c-.342,1.564-.437,2.672-.282,3.321.158.652.586,1.26,1.282,1.824l-.345.491-7.039-5.034.345-.491c.735.472,1.298.697,1.691.671.357-.006.691-.182.896-.475.275-.389.529-1.134.769-2.226l.738-3.363h0ZM492.003,336.752l2.077-9.451-8.207,5.066,6.13,4.385h0ZM517.922,341.578l3.53,4.816-5.212,20.71,10.126-7.583c1.08-.807,1.662-1.434,1.751-1.881.127-.592-.066-1.238-.579-1.938l-.45-.614.478-.358,4.531,6.174-.481.361-.459-.63c-.551-.75-1.165-1.115-1.846-1.092-.415.016-1.118.393-2.099,1.13l-14.802,11.085-.345-.472,5.56-22.287-10.813,8.096c-1.077.811-1.665,1.431-1.76,1.868-.117.602.076,1.247.579,1.938l.462.627-.481.361-4.528-6.177.478-.358.45.614c.557.76,1.178,1.127,1.855,1.105.418-.016,1.118-.389,2.102-1.127l12.209-9.147c.218-.963.323-1.646.32-2.055-.029-.536-.14-1.065-.329-1.567-.183-.445-.428-.862-.728-1.238l.481-.361h0ZM545.478,392.896l-4.753,1.957-.203-.583c.811-.418,1.365-.788,1.662-1.111.475-.529.76-1.105.855-1.732s-.01-1.371-.31-2.229l-1.026-2.935-15.742,5.63c-1.266.453-2.007.874-2.226,1.263-.288.538-.291,1.216-.006,2.023l.25.722-.56.199-3.09-8.827.56-.203.26.738c.307.88.788,1.412,1.444,1.593.405.108,1.184-.044,2.337-.456l15.742-5.63-.877-2.501c-.339-.972-.652-1.64-.937-1.998-.413-.484-.97-.823-1.589-.969-.678-.184-1.498-.146-2.454.117l-.203-.583,4.917-1.485,5.949,16.999h0ZM528.177,432.071l-.304-5.889,9.822-8.001c-.054-.601-.093-1.202-.117-1.805l-.003-.507-6.342.336c-1.374.07-2.216.266-2.536.589-.45.437-.652,1.067-.611,1.89l.044.864-.595.032-.488-9.451.595-.032.044.83c.047.931.383,1.583,1.004,1.954.345.209,1.14.282,2.384.215l14.099-.741c1.374-.07,2.22-.266,2.536-.589.45-.446.652-1.089.611-1.925l-.044-.83.595-.032.415,8.036c.12,2.343.041,4.078-.241,5.208-.278,1.122-.876,2.138-1.722,2.926-.861.821-1.993,1.297-3.182,1.336-1.29.087-2.564-.322-3.562-1.143-1.032-.833-1.798-2.166-2.302-3.999l-6.029,4.885c-1.384,1.115-2.292,2.061-2.726,2.834s-.684,1.764-.75,2.976l-.595.032h0ZM538.591,415.816c.013.206.016.386.019.538l.013.374c.108,2.106.64,3.667,1.596,4.689.956,1.02,2.131,1.494,3.527,1.418,1.361-.07,2.447-.56,3.258-1.466.807-.909,1.175-2.071,1.102-3.492-.07-.857-.216-1.705-.437-2.536l-9.078.475ZM544.582,461.251l-1.935,7.45-.576-.152.108-.412c.07-.272.054-.703-.051-1.292-.108-.605-.33-1.185-.655-1.707-.336-.548-.925-1.273-1.77-2.169l-6.69-7.279-5.3-1.406c-1.298-.345-2.147-.415-2.546-.206-.541.285-.921.858-1.146,1.719l-.18.693-.576-.155,2.356-9.074.576.152-.196.757c-.234.906-.13,1.618.313,2.137.272.32,1.001.636,2.185.95l5.003,1.327,10.379-3.511c1.219-.418,1.988-.716,2.315-.893.323-.18.766-.608,1.333-1.289.193-.259.327-.557.393-.874l.576.155-2.371,9.138-.576-.152.123-.475c.127-.476.13-.976.01-1.453-.089-.442-.426-.791-.864-.896-.377-.098-1.134.044-2.276.424l-7.973,2.653,5.43,5.918c.814.89,1.46,1.396,1.938,1.523.576.165,1.193-.048,1.545-.532.203-.247.38-.655.526-1.222l.576.152h0Z"/>
        <path class="cls-4" d="M497.098,445.148c1.912-.386,5.072-.073,5.072-.073,0,0,.275,1.054-.554,1.406.925.424,4.243.294,4.243.294,0,0-1.292.795-1.938,1.111,1.2.092,2.675,1.33,2.675,1.33,0,0-2.767.37-3.964-.149.738,1.184.646,2.22.646,2.22,0,0-4.474-.887-6.089-3.255M487.599,440.984c-1.14,2.742-9.499-2.362-9.499-2.362,0,0,3.682,5.696,9.207,6.332M377.449,498.781h105.192l8.125-6.437-13.539-7.266-20.831-7.058-8.334-4.569-15.413.83-12.915,6.852-17.706,2.077-4.167,4.775-13.124,1.039-20.622-.415,34.369,5.398-28.328-1.453,7.292,6.228Z"/>
        <path class="cls-4" d="M433.555,468.22c-12.735-6.887-16.458,10.078-21.945,14.178,7.399,1.266,12.988-5.721,19.33-9.116,4.809,13.175,12.383,4.455,12.383,4.455,0,0,7.9,12.611,18.421,6.89,2.869,2.175,6.041.203,6.041.203,0,0,3.825.706,4.629-1.013,2.014.709,4.23-1.824,4.23-1.824,0,0,4.379.051,5.234-2.229,6.494,1.165,15.1-13.368,15.1-13.368l2.618-5.066,3.825-.811s.253-2.53-1.811-2.428c-.051-1.52-1.361-2.33-3.223-2.026.355-.912-1.007-1.621-1.007-1.621-3.622.912-3.825,10.129-3.825,10.129,0,0-6.342,4.86-8.656,6.076-.101-5.265-8.859-12.405-7.048-15.799s7.501,5.215,12.484,3.647c4.98-1.57,7.431-8.093,7.65-13.168-1.409-3.442-4.832-9.116-4.832-9.116l-3.223-.203-2.818-6.887s-5.94,3.901-5.839,7.292c.101,3.394,6.241,6.279,6.241,6.279,0,0-3.54,2.229-6.845,1.216-.301,3.445,4.027,2.786,5.639,2.837.804,2.482,3.22,3.85,3.22,3.85,0,0,1.51,3.796-2.416,3.442s-8.558-9.454-14.093-5.265c-5.889,4.455,2.618,12.557,2.618,12.557,0,0-5.186,2.736-8.258,9.723-12.532-10.635-19.881-5.671-33.825-2.837v.003Z"/>
        <path class="cls-4" d="M414.345,450.907c5.519,4.939,1.669,13.149,3.818,14.72,2.283,1.662,5.519-.807,5.519-.807,5.782,1.463,16.126-1.615,16.126-1.615,4.553,2.419,2.758-1.149,5.519-1.007,2.441,5.946,10.61,4.838,10.61,4.838,0,0-7.479-7.257-12.095-9.274-3.556,2.017-13.9,2.321-15.705,2.017-2.007-.336-.741-2.672-1.697-4.031,3.806-3.518.798-12.25-1.273-15.524-8.432-5.338-18.503,3.806-10.822,10.683h0ZM381.1,434.874c-7.004,1.871-19.156-8.945-24.836-4.791-5.677,4.154-3.027,14.372.757,19.46,3.701,4.974-5.411,6.776-7.871,9.733-2.315,2.78.757,5.987.757,5.987l2.574,1.646-.456,3.743,1.365,4.49s1.247,1.086,1.665-.298c1.172,1.159.123,4.515,3.027,4.939-1.039-2.147.76-8.083.76-8.083,0,0,5.072.374,6.358-1.795,1.289-2.172-1.21-6.887-1.21-6.887h1.513c-1.703-1.162-2.27-4.642-2.27-4.642,0,0,7.039-2.207,6.966-7.485-.076-5.278-11.433-10.892-7.27-13.624,4.616-3.03,12.643,7.862,19.536,2.846,6.817-4.965,2.422-.152,2.422-.152,0,0,3.116-6.934-3.787-5.088h0ZM414.776,364.856c-9.055-3.549-27.552-3.768-37.874-8.555-4.528.266-6.548,3.622-6.728,4.958-4.734-.218-7.941,6.782-7.244,8.166-8.615-3.28-12.624,9.53-9.831,12.155-7.346.291-6.44,9.112-7.14,11.569-2.356,5.37.526,7.178,5.174,5.25.7,2.334-.279,3.638-2.381,4.081,12.754,13.713,19.963-8.435,31.149-8.359,13.969-3.844,19.456-10.306,19.456-10.306l5.484.681s9.936-19.64,9.936-19.64ZM440.106,353.134c0,6.994-6.38,12.665-14.248,12.665s-14.248-5.671-14.248-12.665,6.38-12.665,14.248-12.665,14.248,5.671,14.248,12.665Z"/>
        <path class="cls-4" d="M402.959,457.556c-8.147-1.504-21.638-10.122-23.012-21.391,7.586-30.377,46.718-14.514,50.093-37.361-.861-15.074,1.786-29.994,9.983-42.605,3.818-4.933,8.755-6.231,8.755-6.231,0,0,.887,3.217-.405,5.402,6.465-.728,15.325,2.957,21.382,3.321,1.783,3.689,1.631,5.037,1.222,7.27-.405,2.232-2.85,1.662-2.85,1.662-1.58,1.529-3.48,3.084-7.738,2.286-3.207,2.492-9.98,3.116-9.98,3.116,0,0,14.153,15.214,11.813,19.938,2.951,1.403,7.33,8.099,7.33,8.099,0,0,9.673-5.193,12.83-9.967,5.601,0,14.764,5.972,19.349,6.646,3.748,3.098,7.481,6.213,11.199,9.347,0,0-6.668,4.464-9.571-1.453-3.511.31-11.098-8.258-21.587-5.611-.304,9.505-10.588,16.202-10.588,16.202,0,0,9.597-1.371,14.865,1.868,5.446,4.677,13.441,11.009,13.441,11.009l7.127,12.462s-6.516,1.143-8.96-7.475c-2.444,6.956-2.546-4.312-12.218-9.556-2.954.364-4.43.57-6.925-1.453-6.975,1.922-15.223,6.076-25.048,4.984-6.975,2.232-12.067,8.153-19.143,11.424s-9.166,1.662-9.166,1.662l-5.702.206c-.82,3.502-.355,8.827-3.461,9.765,1.985,2.178-1.425,11.474-4.889,13.083,1.631,5.972,6.402,7.802,11.405,10.8,0,0,4.43-2.074,7.333.624,2.9,2.701,5.905,10.385,5.905,10.385,0,0-6.041.418-7.941-.415-1.903-.833-2.09-2.856-4.278-2.286-13.798-12.513-21.074-7.536-22.401-10.382-1.361-2.922,3.258-10.544,1.833-15.372h0Z"/>
        <path class="cls-4" d="M370.537,400.894c.678-.991,5.417,1.111,5.417,1.111l8.663,6.342,17.598,13.32,6.228,10.623-11.237-4.281-15.568-15.698-8.394-6.342s-3.382-4.084-2.707-5.075h0ZM481.266,432.391c-6.396-1.675-22.164,18.184-22.164,18.184l11.889,13.377s.351-22.784,10.274-31.561Z"/>
        <path class="cls-4" d="M402.507,377.692c-3.492,4.585-3.803,13.824.738,17.547.427,5.611,5.082,16.92,8.739,17.981,3.996,1.162,19.963,4.958,26.213,3.926-1.197,10.379,6.754,18.709,14.115,24.168-.054.931-.066,2.068.782,3.22.826,1.115,4.692,1.32,4.863.706,1.716,2.467,10.024,3.552,10.626,2.454.586-1.07-12.222-10.202-15.062-12.991-2.413-4.61-6.985-14.888-8.064-23.132-6.288-7.662-17.079-7.51-17.079-7.51l.342-15.008.605-16.936-5.848-3.1s1.178-.551,1.814-1.238c1.422.624,4.091-2.299,4.436-3.125,1.346.488,2.565.481,2.799-.253.209-.652.45-3.546.94-5.041,4.411-3.98-.646-12.418-7.39-12.554-6.674-.139-8.172,8.153-8.042,8.786.627,2.599.491,3.913,0,4.544-.503.643-2.824,2.064-2.824,2.064,0,0-3.73-1.808-8.267,0-4.537,1.808-9.628,4.236-9.879,7.232-2.068.307-5.446,3.046-6.051,5.37-1.814-.361-4.183,1.187-8.064,7.643-6.956,3.15-7.361,18.383-7.361,18.383,0,0-1.878,2.802-1.966,4.287-.089,1.485.655,2.84,1.564,2.58.101.982,1.361,1.859,1.916,1.551.203.978,1.586,1.529,2.419,1.393.076.671,2.761.503,2.973-.105.237-.668-.263-4.018.051-4.284.291-.247,2.52,1.498,3.125,1.032s-.114-1.954-.453-2.53c-.301-.519-2.216-1.086-2.672-3.511-.453-2.428,1.21-5.785,1.21-5.785,0,0,7.564-6.095,8.419-11.31,5.696.567,8.707-4.531,10.335-6.456h0Z"/>
        <path class="cls-4" d="M389.446,357.361c1.672-5.031,7.716-4.566,7.716-4.566,0,0,2.163-7.001,10.303-2.824,3.065-2.913,11.136,1.263,11.136,1.263,0,0,3.021-4.955,6.985-4.388,7.336,1.051,8.558,9.328,8.106,10.756-4.018,1.247-10.974-4.015-16.262-2.523-3.09,2.147-8.096,4.417-9.964,7.51-4.895.63-10.119-5.544-18.019-5.227h0ZM405.375,364.504c1.808-1.149,6.237-3.166,9.245-.7,3.154,3.518,7.995,6.785,7.995,6.785l5.487,2.397,2.504,1.596-1.637,26.045c-5.082-5.386-9.844-6.329-13.482-12.674-1.95-2.72-.459-9.255-3.853-13.57-3.394-4.316-7.004-7.235-6.26-9.879h0Z"/>
        <path class="cls-4" d="M417.942,372.315s2.973-.484,3.799.123c1.039.304,2.039.564,2.321,1.339,1.127.288,1.9.792,1.9,1.52,1.058.244,1.479,1.887,1.479,1.887l-.985,1.279s-1.127-.912-1.266-1.887c-.712-.304-2.286-.624-2.675-1.523-1.228-.104-2.02-.652-2.251-1.58-1.143.228-2.321-1.159-2.321-1.159ZM443.272,354.167c-1.631-1.966-4.509-.519-4.509-.519l-7.675,14.283-3.359,2.998-.288,11.177,2.783,10.452-.959,8.071s3.866-3.91,4.316-6.104c.434-2.096-1.437-8.9-1.437-8.9,0,0-2.302-4.243.478-12.104,2.783-7.865,9.116-14.384,10.651-19.352h0Z"/>
        <path class="cls-4" d="M463.001,365.799s-12.535,19.716-33.055,26.729c-5.668,1.491-3.613-14.58-3.613-14.58l-1.403.443s-3.163,15.739,4.414,15.904c20.622-4.474,36.092-28.369,36.092-28.369l-2.467-.12.032-.006ZM472.911,472.792s-1.925,1.482-4.455,0c-1.314-3.173-4.857-3.382-4.857-3.382,0,0-2.283-6.849-5.87-4.863-.557-3.543-4.452-1.694-4.452-1.694,0,0-.101-5.126-4.654-4.439,1.517-5.87-6.275-5.5-6.275-5.5,0,0-.253-6.608-11.74-5.284,24.744-11.579,44.327,18.184,44.327,18.184M484.756,473.451s5.478,8.004,8.337,8.068c2.859.06,3.1-7.814,3.1-7.814,0,0,.921,3.401,2.327,2.52-.146,2.394,1.745,3.024,1.745,3.024,0,0-4.942,14.935-18.997.757M440.698,478.036l-1.909,8.295s-2.432,2.33-1.716,2.834c.716.507,4.578-.807,4.578-.807,0,0,6.009-.76,7.821-2.631.663,1.717,2.19,2.951,4.008,3.239,0,0,.19-1.266-.193-2.026,1.336.253,2.482-.203,2.482-.203,0,0,.763-2.327-.956-3.236.193-1.722,1.004-3.239-1.906-3.036-2.147,2.428-7.441,5.212-8.777,4.249s5.246-4.046,3.435-8.096"/>
      </g>
    </g>
  </g>
</svg>