<?xml version="1.0" encoding="UTF-8"?>
<svg xmlns="http://www.w3.org/2000/svg" viewBox="0 0 3600.1 2401.738">
  <defs>
    <style>
      .cls-1 {
        fill: #141414;
        fill-rule: evenodd;
      }

      .cls-1, .cls-2, .cls-3 {
        stroke-width: 0px;
      }

      .cls-2 {
        fill: #ce1126;
      }

      .cls-3 {
        fill: #339e35;
      }
    </style>
  </defs>
  <g id="background">
    <path id="mw" class="cls-1" d="M400,.1h2800c220,0,400,180,400,400v1600c0,220-180,400-400,400H400C180,2400.1,0,2220.1,0,2000.1V400.1C0,180.1,180,.1,400,.1Z"/>
  </g>
  <g id="country">
    <g id="mw-2" data-name="mw">
      <g>
        <path class="cls-2" d="M1699.979,344.851c-.002-93.996,1.871-127.599-9.01-189.311-4.515-25.605-15.592-50.053-32.665-47.042-17.073,3.01-19.121,29.772-14.606,55.377,10.881,61.712,24.135,92.649,56.281,180.976Z"/>
        <path class="cls-2" d="M1749.798,338.292c8.19-93.638,12.985-126.951,7.523-189.376-2.266-25.901-11.171-51.221-28.441-49.71-17.27,1.511-21.643,27.993-19.377,53.894,5.462,62.426,15.968,94.399,40.294,185.193Z"/>
        <path class="cls-2" d="M1824,148.1c0-26-6.664-52-24-52s-24,26-24,52c0,62.664,7.68,95.432,24,188,16.32-92.568,24-125.336,24-188Z"/>
        <path class="cls-2" d="M1956.303,163.874c4.515-25.605,2.467-52.367-14.606-55.377-17.073-3.01-28.15,21.437-32.665,47.042-10.881,61.712-9.008,95.316-9.01,189.311,32.146-88.328,45.4-119.264,56.281-180.976Z"/>
        <path class="cls-2" d="M1890.496,153.099c2.266-25.901-2.107-52.383-19.377-53.894s-26.175,23.809-28.441,49.71c-5.462,62.426-.667,95.738,7.523,189.376,24.326-90.793,34.832-122.767,40.294-185.193Z"/>
        <path class="cls-2" d="M1556.572,390.067c-24.33-90.792-31.218-123.736-57.701-180.529-10.988-23.564-28.016-44.312-43.728-36.985-15.712,7.326-10.763,33.707.225,57.271,26.483,56.793,47.292,83.245,101.204,160.243Z"/>
        <path class="cls-2" d="M1602.996,370.837c-16.324-92.567-20.315-125.986-41.747-184.871-8.893-24.432-24.047-46.585-40.338-40.656s-13.66,32.641-4.768,57.073c21.432,58.885,39.857,87.05,86.852,168.454Z"/>
        <path class="cls-2" d="M1650.92,355.727c-8.194-93.638-9.257-127.277-25.476-187.806-6.729-25.114-19.896-48.503-36.641-44.017-16.745,4.487-16.453,31.326-9.724,56.44,16.219,60.529,32.118,90.192,71.84,175.382Z"/>
        <path class="cls-2" d="M1512,413.269c-32.15-88.326-41.883-120.544-73.215-174.813-13-22.517-31.771-41.701-46.785-33.033-15.013,8.668-7.785,34.517,5.215,57.033,31.332,54.269,54.367,78.807,114.785,150.813Z"/>
        <path class="cls-2" d="M2170.246,470.858c72.003-60.421,98.95-80.586,139.229-128.589,16.713-19.917,28.32-44.118,15.04-55.261s-35.098,4.49-51.81,24.407c-40.28,48.003-55.459,78.042-102.459,159.443Z"/>
        <path class="cls-2" d="M2020.92,180.344c6.729-25.114,7.022-51.953-9.724-56.44-16.745-4.487-29.911,18.903-36.641,44.017-16.219,60.529-17.281,94.168-25.476,187.806,39.722-85.19,55.622-114.854,71.84-175.382Z"/>
        <path class="cls-2" d="M2207.294,504.807c76.995-53.915,105.596-71.655,149.907-115.966,18.385-18.385,32.057-41.482,19.799-53.74-12.258-12.258-35.355,1.414-53.74,19.799-44.31,44.31-62.05,72.911-115.966,149.907Z"/>
        <path class="cls-2" d="M2241.242,541.854c81.401-47,111.44-62.179,159.443-102.459,19.917-16.712,35.551-38.53,24.407-51.81s-35.344-1.673-55.261,15.04c-48.003,40.28-68.169,67.226-128.589,139.229Z"/>
        <path class="cls-2" d="M2202.785,262.457c13-22.517,20.229-48.365,5.215-57.033-15.013-8.668-33.785,10.517-46.785,33.033-31.332,54.269-41.065,86.487-73.215,174.813,60.418-72.006,83.453-96.544,114.785-150.813Z"/>
        <path class="cls-2" d="M2083.856,202.383c8.893-24.432,11.523-51.143-4.768-57.073s-31.445,16.224-40.338,40.656c-21.432,58.885-25.423,92.303-41.747,184.871,46.996-81.404,65.42-109.569,86.852-168.454Z"/>
        <path class="cls-2" d="M2144.632,229.824c10.988-23.564,15.937-49.944.225-57.271-15.712-7.327-32.739,13.421-43.728,36.985-26.483,56.793-33.371,89.737-57.701,180.529,53.912-76.998,74.721-103.45,101.204-160.243Z"/>
        <path class="cls-2" d="M2257.872,300.034c14.913-21.298,24.367-46.418,10.166-56.362-14.201-9.944-34.573,7.532-49.486,28.83-35.943,51.331-48.446,82.578-88.173,167.766,66.463-66.466,91.549-88.903,127.492-140.235Z"/>
        <path class="cls-2" d="M2271.832,581.72c85.188-39.726,116.435-52.23,167.766-88.173,21.298-14.913,38.774-35.285,28.83-49.486-9.944-14.201-35.064-4.747-56.362,10.166-51.331,35.943-73.768,61.029-140.235,127.492Z"/>
        <path class="cls-2" d="M2544.179,737.544c25.114-6.729,48.503-19.896,44.016-36.641s-31.326-16.453-56.44-9.724c-47.275,12.667-75.722,25.14-126.501,48.92h129.108c3.201-.809,6.465-1.658,9.816-2.556Z"/>
        <path class="cls-2" d="M1068.244,691.18c-25.114-6.729-51.953-7.022-56.44,9.724-4.487,16.745,18.902,29.911,44.016,36.641,3.351.898,6.615,1.747,9.816,2.556h129.108c-50.779-23.78-79.226-36.253-126.501-48.92Z"/>
        <path class="cls-2" d="M1800,396.1c-224.669,0-415.799,143.588-486.635,344h973.271c-70.836-200.412-261.966-344-486.635-344Z"/>
        <path class="cls-2" d="M2341.263,715.096c92.567-16.324,125.986-20.315,184.871-41.747,24.432-8.893,46.585-24.047,40.656-40.338-5.929-16.29-32.641-13.66-57.073-4.768-58.885,21.432-87.05,39.857-168.454,86.852Z"/>
        <path class="cls-2" d="M2298.831,624.1c88.326-32.15,120.544-41.883,174.813-73.215,22.517-13,41.701-31.771,33.033-46.785-8.668-15.013-34.517-7.785-57.033,5.215-54.269,31.332-78.807,54.367-150.813,114.785Z"/>
        <path class="cls-2" d="M2322.033,668.672c90.792-24.33,123.736-31.218,180.529-57.701,23.564-10.988,44.312-28.016,36.985-43.728-7.326-15.712-33.707-10.763-57.271.225-56.793,26.483-83.245,47.292-160.243,101.204Z"/>
        <path class="cls-2" d="M1469.62,440.268c-39.726-85.188-52.23-116.435-88.173-167.766-14.913-21.298-35.285-38.774-49.486-28.83-14.201,9.944-4.747,35.064,10.166,56.362,35.943,51.331,61.029,73.768,127.492,140.235Z"/>
        <path class="cls-2" d="M1392.707,504.807c-53.915-76.995-71.655-105.596-115.966-149.907-18.385-18.385-41.482-32.057-53.74-19.799-12.258,12.258,1.414,35.355,19.799,53.74,44.31,44.31,72.911,62.05,149.907,115.966Z"/>
        <path class="cls-2" d="M1073.866,673.349c58.885,21.432,92.303,25.423,184.871,41.747-81.404-46.996-109.569-65.42-168.454-86.852-24.432-8.893-51.143-11.523-57.073,4.768s16.224,31.445,40.656,40.338Z"/>
        <path class="cls-2" d="M1199.315,439.395c48.003,40.28,78.042,55.459,159.443,102.459-60.421-72.003-80.586-98.949-128.589-139.229-19.917-16.712-44.118-28.32-55.261-15.04-11.143,13.28,4.49,35.098,24.407,51.81Z"/>
        <path class="cls-2" d="M1429.754,470.858c-47-81.401-62.179-111.44-102.459-159.443-16.712-19.917-38.53-35.551-51.81-24.407s-1.673,35.344,15.04,55.261c40.28,48.003,67.226,68.169,139.229,128.589Z"/>
        <path class="cls-2" d="M1160.402,493.547c51.331,35.943,82.578,48.446,167.766,88.173-66.466-66.463-88.903-91.549-140.235-127.492-21.298-14.913-46.418-24.367-56.362-10.166s7.532,34.573,28.83,49.486Z"/>
        <path class="cls-2" d="M1097.438,610.971c56.793,26.483,89.736,33.371,180.529,57.701-76.998-53.912-103.45-74.721-160.243-101.204-23.564-10.988-49.944-15.937-57.271-.225s13.421,32.739,36.985,43.728Z"/>
        <path class="cls-2" d="M1126.357,550.885c54.269,31.332,86.487,41.065,174.813,73.215-72.006-60.418-96.544-83.453-150.813-114.785-22.517-13-48.365-20.229-57.033-5.215-8.668,15.013,10.517,33.785,33.033,46.785Z"/>
      </g>
      <path class="cls-2" d="M3600,2000.1V800.1H0v1200C0,2220.1,180,2400.1,400,2400.1h2800c220,0,400-180,400-400Z"/>
      <path class="cls-3" d="M3600,2000.1v-400H0v400C0,2220.1,180,2400.1,400,2400.1h2800c220,0,400-180,400-400Z"/>
    </g>
  </g>
</svg>