<?xml version="1.0" encoding="UTF-8"?>
<svg xmlns="http://www.w3.org/2000/svg" viewBox="0 0 3600.1 2401.738">
  <defs>
    <style>
      .cls-1 {
        fill: #006;
      }

      .cls-1, .cls-2, .cls-3, .cls-4 {
        stroke-width: 0px;
      }

      .cls-1, .cls-4 {
        fill-rule: evenodd;
      }

      .cls-2 {
        fill: #c00;
      }

      .cls-3 {
        fill: #fc0;
      }

      .cls-4 {
        fill: #eee;
      }
    </style>
  </defs>
  <g id="background">
    <path id="bg" class="cls-4" d="M400,.1h2800c220,0,400,180,400,400v1600c0,220-180,400-400,400H400C180,2400.1,0,2220.1,0,2000.1V400.1C0,180.1,180,.1,400,.1Z"/>
  </g>
  <g id="country">
    <g id="my">
      <g>
        <path class="cls-2" d="M3527.74,2228.709c35.088-50.06,59.031-108.429,68.149-171.428H4.111c9.118,63,33.061,121.368,68.149,171.428h3455.479Z"/>
        <rect class="cls-2" x="0" y="1714.426" width="3600" height="171.427"/>
        <path class="cls-2" d="M0,400.1v114.326h3600v-114.326c0-19.377-1.402-38.443-4.1-57.104H4.1C1.402,361.658,0,380.723,0,400.1Z"/>
        <path class="cls-2" d="M72.206,171.567h3455.587C3456.28,69.488,3338.441,1.944,3205.467.139H394.533C261.559,1.944,143.72,69.488,72.206,171.567Z"/>
        <rect class="cls-2" x="0" y="685.853" width="3600" height="171.429"/>
        <rect class="cls-2" x="0" y="1028.711" width="3600" height="171.428"/>
        <rect class="cls-2" x="0" y="1371.569" width="3600" height="171.428"/>
      </g>
      <g id="my-2" data-name="my">
        <path class="cls-1" d="M1600,.1v1200H0V400.1C0,180.1,180,.1,400,.1h1200Z"/>
        <path class="cls-3" d="M1000,314.385l25.476,174.286,98.571-145.952-52.857,168.095,152.143-88.81-120.476,128.571,175.714-14.048-164.286,63.571,164.286,63.571-175.714-14.048,120.476,128.571-152.143-88.81,52.857,168.095-98.571-145.952-25.476,174.286-25.476-174.286-98.571,145.952,52.857-168.095-152.143,88.81,120.476-128.571-175.714,14.048,164.286-63.571-164.286-63.571,175.714,14.048-120.476-128.571,152.143,88.81-52.857-168.095,98.571,145.952,25.476-174.286ZM857.143,321.528c-153.851-68.264-333.91,1.117-402.175,154.968-68.264,153.851,1.117,333.911,154.968,402.175,78.703,34.921,168.504,34.921,247.207,0-153.851,110.386-368.057,75.152-478.444-78.699-110.386-153.851-75.152-368.057,78.699-478.444,119.464-85.714,280.281-85.714,399.745,0Z"/>
      </g>
    </g>
  </g>
</svg>