<?xml version="1.0" encoding="UTF-8"?>
<svg xmlns="http://www.w3.org/2000/svg" viewBox="0 0 3600.1 2401.738">
  <defs>
    <style>
      .cls-1 {
        fill: #fff;
      }

      .cls-1, .cls-2, .cls-3, .cls-4 {
        stroke: #000;
        stroke-linecap: round;
        stroke-linejoin: round;
        stroke-width: 6.299px;
      }

      .cls-1, .cls-2, .cls-5, .cls-6 {
        fill-rule: evenodd;
      }

      .cls-7 {
        fill: #007168;
      }

      .cls-7, .cls-5, .cls-8, .cls-6, .cls-9 {
        stroke-width: 0px;
      }

      .cls-5 {
        fill: #141414;
      }

      .cls-8 {
        fill: #eee;
      }

      .cls-6 {
        fill: #dd2e44;
      }

      .cls-4 {
        fill: none;
      }

      .cls-9 {
        fill: #fce100;
      }
    </style>
  </defs>
  <g id="background">
    <path id="mz" class="cls-5" d="M400,.1h2800c220,0,400,180,400,400v1600c0,220-180,400-400,400H400C180,2400.1,0,2220.1,0,2000.1V400.1C0,180.1,180,.1,400,.1Z"/>
  </g>
  <g id="country">
    <g id="mz-2" data-name="mz">
      <path class="cls-8" d="M3200,.1H400C180,.1,0,180.1,0,400.1v425h3600v-425C3600,180.1,3420,.1,3200,.1Z"/>
      <path class="cls-7" d="M3200,.1H400C180,.1,0,180.1,0,400.1v350h3600v-350C3600,180.1,3420,.1,3200,.1Z"/>
      <path class="cls-8" d="M0,2000.1C0,2220.1,180,2400.1,400,2400.1h2800c220,0,400-180,400-400v-426H0v426Z"/>
      <path class="cls-9" d="M0,2000.1C0,2220.1,180,2400.1,400,2400.1h2800c220,0,400-180,400-400v-350H0v350Z"/>
      <path id="l-t" class="cls-6" d="M0,2000.1V400.1C0,280.1,50,180.1,130,100.1l1570,1100L130,2300.1C50,2220.1,0,2120.1,0,2000.1Z"/>
      <g>
        <path class="cls-9" d="M817.48,1650.04l-292.616-214.24-292.224,214.3,113.328-344.496-294.112-211.696,362.656,1.328,110.452-345.136,110.8,345.32,362.376-1.612-294.176,212.092,113.516,344.14Z"/>
        <path class="cls-1" d="M270.896,1409.808h210.796c16.96,19.028,54.8,26.788,90.844-.224,66.072-36.18,193.892.224,193.892.224l25.168-26.74-61.352-201.36-22.024-23.596s-47.188-28.312-136.86-18.876c-89.668,9.44-121.132-3.144-121.132-3.144,0,0-78.652,9.44-100.68,20.448-2.416,1.96-25.168,25.168-25.168,25.168l-53.484,228.1Z"/>
        <path class="cls-4" d="M313.372,1357.9s201.356-25.172,259.56,51.908c-32.872,22.496-61.812,24.348-92.812,1.58,4.936-8.228,72.36-78.66,243.832-55.06"/>
        <path class="cls-3" d="M528.884,1156.54l-1.572,221.812M708.22,1159.684l37.756,176.192M351.628,1156.916l-20.952,90.864"/>
        <path class="cls-2" d="M133.988,1433.96l49.572,58.124c5.824,3.472,10.992,3.252,16.164,0l73.468-88.16,30.86-38.204c4.776-5.66,6.3-11.972,5.876-17.632l58.992-52.42c4.824.332,7.7.88,12.524,1.204-5.7-1.476-9.88-4.252-5.396-10.5l13.224-10.284,10.284,13.22s-14.688,19.104-16.16,19.104h-16.16l-30.86,27.92,13.488,11.92,20.308,55.672,24.98-17.636-16.16-57.3,35.264-38.208-13.228-20.572,8.82-11.756s122.052,76.84,169.072,56.272c1.272.46,2.84-54.8,2.84-54.8,0,0-126.36-13.224-129.304-38.204-2.936-24.98,27.92-27.92,27.92-27.92l-13.228-19.1,2.944-10.288,22.04,27.92,49.96-42.616,293.872,335.02c16.044-6.504,19.472-10.428,20.576-26.448-.416-.4-288-330.612-288-330.612l22.04-23.504c4.344-4.9,5.872-6.98,5.88-14.7l33.792-29.384c10.164,3.492,16.644,9.584,22.04,17.628l92.912-78.74c2.448,2.448,9.888,4.896,14.936,2.144l153.608-147.444-167.416,118.248-5.876-4.408c0-4.9,6.072-6.108,0-14.692-6.504-7.808-16.16,7.344-17.628,7.344s-24.232-8.04-29.22-18.232l-1.64,27.048-42.612,39.676-32.324-1.472-47.024,45.552-5.876,17.632,7.348,14.696s-24.984,22.04-24.984,20.568c0-1.464-5.048-6.492-5.264-7.144l21.428-19.304,2.94-13.224-7.152-11.164c-2.168,1.576-29.584,30.268-31.056,27.328-2.448-2.744-79.34-89.632-79.34-89.632l4.404-16.16-49.956-54.372c-18.212-6.288-47.02-7.344-52.9,32.328-4.576,9.32-42.612,1.468-42.612,1.468l-20.572,4.408-116.08,164.572,64.652,77.876,132.244-167.508,3.928-47.456,27.748,31.028c9.252,1.188,18.064,1.292,26.448-2.94l78.352,87.452-13.048,12.732c4.408,4.896,7.44,8.024,11.852,12.92,4.408-2.936,8.616-6.46,13.024-9.404,1.472,1.964,3.92,5.688,5.392,7.648-6.564,3.572-11.172,8.328-17.736,11.904-10.504-6.848-20.648-15.376-19.88-28.944l-44.08,36.732-1.468,7.348-130.776,108.732-11.756,1.472-2.936,33.796,85.224-70.528v-10.292l8.816,7.348,66.12-52.892s4.408,5.876,2.944,5.876c-1.472,0-58.78,52.896-58.78,52.896l-1.468,5.876-10.284,8.816-5.88-4.408-79.348,70.528h-11.752l-44.08,44.088c-11.372.988-21.224,2.192-30.86,8.812l-78.96,69.712Z"/>
      </g>
    </g>
  </g>
</svg>