<?xml version="1.0" encoding="UTF-8"?>
<svg xmlns="http://www.w3.org/2000/svg" viewBox="0 0 3600.1 2401.738">
  <defs>
    <style>
      .cls-1, .cls-2, .cls-3, .cls-4, .cls-5, .cls-6 {
        stroke-width: 0px;
      }

      .cls-1, .cls-2, .cls-5, .cls-6 {
        fill-rule: evenodd;
      }

      .cls-1, .cls-3 {
        fill: #003580;
      }

      .cls-2 {
        fill: #d20f34;
      }

      .cls-4 {
        fill: #ffce00;
      }

      .cls-5 {
        fill: #009543;
      }

      .cls-6 {
        fill: #eee;
      }
    </style>
  </defs>
  <g id="background">
    <path id="na" class="cls-1" d="M400,.1h2800c220,0,400,180,400,400v1600c0,220-180,400-400,400H400C180,2400.1,0,2220.1,0,2000.1V400.1C0,180.1,180,.1,400,.1Z"/>
  </g>
  <g id="country">
    <g id="na-2" data-name="na">
      <path id="Path" class="cls-5" d="M3458.232,94.612c86.713,73.374,141.768,183.002,141.768,305.488v1600c0,220.914-179.086,400-400,400H400c-98.427,0-188.551-35.551-258.232-94.512L3458.232,94.612h0Z"/>
      <path id="Path-2" data-name="Path" class="cls-6" d="M2940,.1h260c220.914,0,400,179.086,400,400v161.765L623.81,2400.1h-223.81C179.086,2400.1,0,2221.014,0,2000.1v-162.5L2940,.1Z"/>
      <path id="Path-3" data-name="Path" class="cls-2" d="M3200,.1c220.914,0,400,179.086,400,400L400,2400.1C179.086,2400.1,0,2221.014,0,2000.1L3200,.1Z"/>
      <g>
        <path class="cls-4" d="M720,253.74l62,168,138-114.4-30.4,176.8,176.8-30.4-114.4,138,168,62-168,62,114.4,138-176.8-30.4,30.4,176.8-138-114.4-62,168-62-168-138,114.4,30.4-176.8-176.8,30.4,114.4-138-168-62,168-62-114.4-138,176.8,30.4-30.4-176.8,138,114.4,62-168Z"/>
        <g>
          <circle class="cls-4" cx="720" cy="653.74" r="220"/>
          <path class="cls-3" d="M720,893.74c-64.106,0-124.375-24.964-169.706-70.294s-70.294-105.599-70.294-169.706,24.964-124.376,70.294-169.706c45.33-45.33,105.599-70.294,169.706-70.294s124.375,24.964,169.706,70.294c45.33,45.33,70.294,105.599,70.294,169.706s-24.964,124.375-70.294,169.706-105.599,70.294-169.706,70.294ZM720,453.74c-110.28,0-200,89.72-200,200s89.72,200,200,200,200-89.72,200-200-89.72-200-200-200Z"/>
        </g>
      </g>
    </g>
  </g>
</svg>