<?xml version="1.0" encoding="UTF-8"?>
<svg xmlns="http://www.w3.org/2000/svg" viewBox="0 0 3600.1 2401.738">
  <defs>
    <style>
      .cls-1, .cls-2, .cls-3, .cls-4 {
        stroke-width: 0px;
      }

      .cls-2 {
        fill: #0035ad;
        fill-rule: evenodd;
      }

      .cls-3 {
        fill: #009543;
      }

      .cls-5 {
        fill: #fae600;
        stroke-width: 26.667px;
      }

      .cls-5, .cls-6 {
        stroke: #000;
      }

      .cls-6 {
        stroke-width: 32px;
      }

      .cls-4 {
        fill: #ed4135;
      }
    </style>
  </defs>
  <g id="background">
    <path id="nc" class="cls-2" d="M400,.1h2800c220,0,400,180,400,400v1600c0,220-180,400-400,400H400C180,2400.1,0,2220.1,0,2000.1V400.1C0,180.1,180,.1,400,.1Z"/>
  </g>
  <g id="country">
    <g id="nc-2" data-name="nc">
      <g id="h">
        <path class="cls-4" d="M3600,2000.1V800.1H0v1200C0,2220.1,180,2400.1,400,2400.1h2800c220,0,400-180,400-400Z"/>
        <path class="cls-3" d="M3600,2000.1v-400H0v400C0,2220.1,180,2400.1,400,2400.1h2800c220,0,400-180,400-400Z"/>
      </g>
      <g>
        <circle class="cls-5" cx="1000" cy="1200.1" r="786.56"/>
        <path class="cls-6" d="M866.667,1317.433h266.667M866.667,1120.1h266.667M1000,416.1v1344"/>
        <path class="cls-1" d="M683.307,1922.335c321.019,131.093,621.909,8.053,621.909,8.053,0,0-113.584-122.923-171.808-170.917-56.816-46.816-223.952-44.965-280.987,0-47.595,37.536-184.107,175.84-169.115,162.864h0Z"/>
        <ellipse class="cls-1" cx="1000" cy="1562.767" rx="88" ry="128"/>
        <ellipse class="cls-1" cx="1000" cy="1218.767" rx="106.667" ry="67.52"/>
        <circle class="cls-1" cx="1000" cy="906.767" r="106.667"/>
        <path class="cls-1" d="M1128,509.433c-.032-.069,9.243,15.307-10.203,50.325-92.939,167.376-186.203,170.992-203.904,185.408-19.509,15.883-27.744,14.795-27.744,14.795,1.392-14.336,2.688-72.955,3.707-78.603,14.107-78.203,132.245-77.125,224.704-157.205,14.443-12.507,13.408-14.789,13.408-14.789l.032.069Z"/>
        <g id="a">
          <path class="cls-1" d="M816,869.433s20.875,59.893,24,120c4.987,95.984,96.96,98.667,160,98.667v-53.333c-47.248,0-88.283-7.024-122.667-77.333-16.96-34.683-61.333-88-61.333-88ZM813.333,1642.767s33.579-41.413,72.864-138.533c20.496-50.667,69.067-80.133,113.803-80.133v-74.667c-101.483,0-150.133,37.627-155.269,92.603-10.544,112.949-31.397,200.731-31.397,200.731Z"/>
        </g>
        <g id="a-2" data-name="a">
          <path class="cls-1" d="M1184,869.433s-20.875,59.893-24,120c-4.987,95.984-96.96,98.667-160,98.667v-53.333c47.248,0,88.283-7.024,122.667-77.333,16.96-34.683,61.333-88,61.333-88ZM1186.667,1642.767s-33.579-41.413-72.864-138.533c-20.496-50.667-69.067-80.133-113.803-80.133v-74.667c101.483,0,150.133,37.627,155.269,92.603,10.544,112.949,31.397,200.731,31.397,200.731Z"/>
        </g>
      </g>
    </g>
  </g>
</svg>