<?xml version="1.0" encoding="UTF-8"?>
<svg xmlns="http://www.w3.org/2000/svg" viewBox="0 0 3600.1 2401.738">
  <defs>
    <style>
      .cls-1 {
        fill-rule: evenodd;
      }

      .cls-1, .cls-2 {
        fill: #007934;
      }

      .cls-1, .cls-2, .cls-3 {
        stroke-width: 0px;
      }

      .cls-3 {
        fill: #eee;
      }
    </style>
  </defs>
  <g id="background">
    <path id="nf" class="cls-1" d="M400,.1h2800c220,0,400,180,400,400v1600c0,220-180,400-400,400H400C180,2400.1,0,2220.1,0,2000.1V400.1C0,180.1,180,.1,400,.1Z"/>
  </g>
  <g id="country">
    <g id="nf-2" data-name="nf">
      <g id="v">
        <path class="cls-3" d="M400,.1C180,.1,0,180.1,0,400.1v1600C0,2220.1,180,2400.1,400,2400.1h2000V.1H400Z"/>
        <path class="cls-2" d="M400,.1C180,.1,0,180.1,0,400.1v1600C0,2220.1,180,2400.1,400,2400.1h800V.1H400Z"/>
      </g>
      <path class="cls-1" d="M1813.006,402.813l-9.45,102.09-34.615,5.2s24.04,13.481,28.239,27.022c.672,2.168.403,3.961-.57,5.314-.368.461-.788.878-1.252,1.242-6.965,5.343-27.558,2.827-27.558,2.827,0,0,27.279,22.982,29.38,31.316.044.193.108.377.111.564,0,.158.032.415,0,.567-.028.12-.178.333-.228.45-.225.467-.533.889-.909,1.245-6.414,5.917-36.666,7.574-36.666,7.574,0,0,33.541,23.882,35.642,37.423,1.901,12.27.307,19.458,0,20.687-2.345-2-56.434-47.386-91.322-34.143-1.74.903-2.767,1.762-3.188,2.602-.185.428-.225.904-.114,1.356,2.443,7.549,51.782,15.284,86.197,44.997-.856,7.438-98.087-23.654-101.681-4.183,3.042,5.492,104.641,20.114,112.155,33.351-37.417,1.391-114.715-8.22-112.155,4.072-7.818,14.191,73.008,6.176,106.919,17.75,9.938,11.215,8.978,20.637-8.312,21.819-32.685-15.515-105.835-27.044-106.01-7.235,0,.022-.006.092,0,.114.006.022.105.092.111.111.032.063.063.171.117.228.114.111.374.235.567.339,8.262,4.113,76.38,2.107,102.026,18.992-36.361,8.214-159.655-16.66-160.438-4.522,3.511,5.669,23.02,30.549,56.592,29.507,33.569-1.039,111.236,13.554,116.484,23.97.139.28.179.598.114.903-2.272,7.263-102.277-22.158-140.736-4.069-39.863,18.751,114.303,7.384,139.484,30.299,25.178,22.912-50.33-2.149-50.33-2.149,0,0-104.85-14.527-120.584-7.235-15.737,7.292-33.592,23.967-33.592,23.967,0,0,10.464,20.782,20.954,16.618,1.597-.634,2.69-.764,3.302-.564.016.006.098-.009.114,0,.016.006.101.105.114.111.022.016.092.095.114.114.016.022.095.092.114.114.006.006.108.098.114.111.048.105.095.326.114.453.247,3.125-7.175,12.21-7.175,12.21,0,0,146.931,35.344,179.452,66.587,32.52,31.253-186.737-48.952-186.737-48.952,0,0-88.121,32.283,5.238,34.368-10.407,15.116,4.31,24.42,5.238,24.985,0,0,155.291,32.321,171.025,57.318,15.737,25-105.947-23.996-133.222-37.534-26.312-13.066-99.561,6.912-103.731,13.002-.04.073-.077.148-.111.225-.009.025.006.092,0,.114-.006.076-.006.152,0,.228.003.022-.006.092,0,.111.006.025-.009.095,0,.114.006.022.105.092.111.111.009.025-.006.095,0,.114.048.086.165.257.228.339.016.025.095.092.114.114,4.693,5.134,37.388,12.204,38.374,21.026v.114c.016.472-.13,1.03-.342,1.47-4.12,7.929-43.127,11.301-44.75,18.767-.025.127-.114.323-.114.453,0,8.335,196.232,48.958,248.682,92.703,52.45,43.748-154.176-52.121-154.176-52.121,0,0,11.542,15.62,0,19.787-11.538,4.164-52.533-58.326-119.671-19.787-12.229,15.858,58.62,28.445,76.633,30.188-6.151,15.699-11.513,20.893,13.665,36.517,2.754,1.708,4.297,2.741,4.896,3.28l.114.111.114.114c.006.006-.003.105,0,.114v.114h-.228c-3.901-.608-49.132-23.688-53.861-24.649-.048-.006-.193.003-.228,0h-.114c0,2.085,5.238,27.133,5.238,27.133-23.245-18.745-51.338-24.398-77.654-5.2-.041,1.112-.235,19.087,26.189,30.188-14.891,30.21,16.827,20.83,67.183,48.952-74.836-19.42-80.832,16.656-27.33,24.988,53.502,8.331,200.402,13.551,235.02,58.335,7.301,9.447,9.282,14.197,7.856,15.715-5.774,5.194-58.896-32.951-66.613-34.371-.013.009-.095-.013-.111,0-.038.039-.077.077-.117.114-.095.124-.244.364-.342.567-1.882,4.142-3.641,22.158-3.641,22.158-22.38-12.863-42.915-24.398-69.687-29.846-2.098,4.164-1.657,10.081-3.755,14.245-24.294-17.395-45.456-29.624-80.734-31.316l-4.212,16.732s-29.408-36.456-87.11,0c-32.216,22.931,121.709,8.303,146.884,35.385,25.181,27.079,5.238,31.202,5.238,31.202-20.979-7.637-41.872-15.199-62.851-22.836,0,0-74.554-13.611-95.533,3.052-20.982,16.666,306.307,57.299,315.745,102.09,6.366,24.291-76.893-25.435-148.934-46.803-2.789,7.951-5.641,15.905-8.426,23.856-1.708-1.68-29.576-28.591-60.804-33.24-.009.016-.108.089-.117.114v.225c.048,3.419,6.379,27.814,6.379,27.814,0,0-80.699-37.54-121.608-17.75-40.915,19.787,142.628,30.201,159.411,48.952,1.838,2.05,2.602,3.546,2.507,4.522-.048.198-.125.388-.228.564-4.053,5.898-58.788-15.877-64.22-5.086-6.297,12.499-95.441-22.88-94.392-6.218,1.049,16.666,12.638,26.002,12.638,26.002,0,0,185.679,17.696,191.976,39.568,6.294,21.873-102.819-12.435-102.819-12.435,0,0-10.556,15.547-2.164,22.836.33.285.589.558.681.678v.114h-.114c-3.79-1.242-62.911-39.689-57.159-10.176-23.134-9.146-82.86-37.474-74.469-15.601,8.268,21.552,164.05,52.238,168.636,53.135-4.12.323-70,5.796-66.952,22.953-88.298-53.411-88.089-21.381-86.083-18.881v.114c-4.96-.78-113.593-27.65-27.212,18.767,46.325,24.889,57.613,34.593,57.844,38.326.006.113.006.226,0,.339-.016.098-.079.25-.114.339-.006.022-.101.092-.114.114-.038.06-.07.168-.114.225l-.114.114-.114.114c-.016.013-.092.095-.114.111-.022.016-.092.098-.114.114-1.794,1.141-6.135.662-7.4.678h-.228c-.044.031-.083.07-.114.114l.114.111c1.233,1.822,8.008,20.19,7.628,23.403-.006.054-.098.184-.114.225-.006.016.009.098,0,.114-.003.009-.108-.006-.114,0-.006.003.009.111,0,.114h-.228c-3.787-.948-60.997-31.303-80.62-33.351-19.933-2.085-114.37,26.008-13.662,69.753,100.708,43.745,162.567-10.432,218.164-4.183,55.6,6.249,81.875,15.642,76.633,33.354-5.248,17.705-56.874-58.053-111.134,7.46-61.72-12.128-103.595-19.144-71.734,25.891-100.797-37.401-162.349,11.408-35.414,31.202,124.736,3.651,201.426-30.185,201.426-30.185,0,0,21.042,38.614,51.468,11.532,28.997-25.812,31.278,7.038,32.34,10.176.016.044.098.085.114.111.006.009-.009.111,0,.114h.114c2.24-.558,29.263-12.549,29.263-12.549h7.4v249.965c33.921.349,67.763.669,101.681,1.017,0,0-32.52-217.635-14.688-246.8,17.278-28.252,33.614-25.2,34.615-24.984,0,0,66.102,19.746,73.442,16.618.085-.038.26-.07.342-.111.054-.032.178-.082.228-.114.127-.082.339-.247.456-.339.022-.016.089-.095.114-.114,5.372-4.868-.101-24.084,33.474-21.141,10.369-3.746,6.414-20.155,13.094-24.195.121-.07.333-.165.456-.225.254-.117.631-.254.913-.339.39-.111.916-.181,1.366-.225,10.489-1.043,212.936,56.196,256.991,2.035-11.538-30.204-51.452-2.06-61.942-1.017-9.444,0-49.335-18.748-72.418,0-20.979-15.623-116.372-26.005-116.372-26.005-12.587-12.498,227.643,6.208,241.279-3.166,28.325-28.122-52.428-24.975-65.019-15.601-22.38-13.541-50.501-12.54-67.636-3.166-8.214-19.512-86.219-11.06-129.575-16.618-13.88-8.081-11.57-12.72-2.164-17.75,90.564,3.822,180.672,15.563,271.683,11.532,24.598-31.839-30.968-43.85-65.019-16.732-19.99-32.641-60.858-1.062-88.13-4.183-27.273-3.125-14.688-36.409,19.927-31.202,34.618,5.207,96.519-2.126,108.057-17.753,11.535-15.62-6.889-31.446-63.992-16.618-19.328-18.754-61.824-.032-81.757,6.218-26.518-14.685-88.219-2.044-109.198,3.166-20.538-12.676,108.057-33.351,108.057-33.351,49.636-.871,77.634-9.399,93.369-13.567,75.042-39.93-1.043-44.173-40.421-15.148-24.439-18.948-47.656,1.638-69.683,8.93-20.653,6.836-58.849,11.814-63.539,9.837-.077-.035-.152-.073-.225-.114l-.117-.114-.111-.114v-.226c.032-.077.069-.153.111-.225,3.096-4.763,59.666-39.232,59.666-39.232,0,0,73.445-5.267,88.133-7.349,8.949-1.271,40.316-16.013,40.307-21.48-.263-3.394-13.332-3.083-52.948,6.896-35.667,3.125-56.618,1.106-70.257,2.149-21.933-2.253-31.174-4.548-33.021-6.557-.085-.108-.161-.222-.228-.342-.152-.361-.054-.78.228-1.128.07-.082.25-.26.342-.339,5.378-4.266,40.082-7.349,40.082-7.349,0,0,105.947-9.646,112.953-15.151l.114-.114c.038-.044.089-.181.114-.225.006-.022.108-.092.114-.114,2.18-43.007-89.88-23.146-92.342-22.836.263-30.242-83.091-.444-86.993,0h-.114c-3.587-2.098-5.15-4.313-5.466-6.332-.091-.798-.013-1.607.228-2.374,2.088-6.237,14.688-11.079,14.688-11.079,23.08-5.555,57.587-7.289,66.609-14.584,0,0,65.139-.57,72.875-17.75-15.981-43.786-137.852,7.751-154.173,15.601-3.27,0-5.273-.818-6.262-2.149-5.359-7.774,21.087-33.373,21.974-34.257.009-.006.095-.105.114-.111,4.031-1.135,101.332-6.078,147.796-68.625,3.28-38.675-55.565,21.819-55.565,21.819-4.395-50.159-63.989,3.182-98.607,7.349-34.615,4.164-35.629-15.642-11.5-18.767,24.126-3.121,51.376-1.077,65.019-37.534,13.633-36.456,54.599,2.123,61.942-11.418,7.114-13.12-13.402-24.303-14.688-24.988,0,0,30.4-31.338-18.9-30.299-48.806,1.033-111.907-6.072-113.181-6.218,3.061-1.16,52.77-19.775,99.517-18.767,48.261,1.043,22.021-34.368-24.138-34.368s-70.254-15.601-70.254-15.601l78.68-29.171-5.238-21.819s46.138-36.482-18.903-28.15c-65.041,8.335-72.415,9.383-72.415,9.383,0,0-128.034,19.48-131.061,19.784h-.114c-1.239-.193-13.921-4.104-16.282-8.93-.087-.183-.163-.372-.228-.564-.056-.223-.095-.449-.114-.678-.016-.228-.041-.561,0-.792.526-2.545,4.478-5.295,14.574-7.802,33.569-8.331,152.17-32.254,170.002-26.002,2.297.805,3.977.624,5.01-.225,6.687-6.008-15.56-44.322-70.143-49.744-62.943-6.249-101.681,15.601-101.681,15.601,0,0-40.956-14.635-3.188-27.133,37.765-12.495,97.584,4.183,97.584,4.183,0,0,67.097-19.819,11.497-28.15-55.597-8.338-73.128,7.495-98.604,8.366-10.169-12.606,87.287-15.582,93.369-26.002-10.28-18.757-70.577,0-105.899,0-15.021-6.329-16.016-16.625,1.027-22.953,36.019-1.388,69.874.713,105.896-.675-1.049-19.096.022-41.733-1.024-60.823-45.688-8.29-99.263,6.069-124.913,4.861,6.861-20.836,105.503-26.214,116.487-31.883,22.665-28.125-94.608-.434-97.466,0-20.817-3.052-19.556-16.118-6.376-23.967,30.419-3.473,98.642,4.427,93.48-16.054-3.952-19.188-47.297-8.914-65.13-4.747-17.832,4.164-44.065,1.017-44.065,1.017-11.421-15.265,102.841-9.025,101.798-20.801-1.493-13.522-72.431-4.208-96.56-3.166-18.558-12.714,87.246-21.166,92.228-22.836.025-.016.101-.101.114-.114,3.955-34.625-73.442,0-88.13,0-2.523,0-4.433-.627-5.806-1.695-.326-.279-.631-.582-.913-.906-5.042-5.841-.567-19.22-.567-19.22,0,0,27.58-12.305,29.263-15.262.006-.022.105-.089.114-.111v-.228c-.006-.016-.101-.095-.114-.111-.102-.126-.216-.24-.342-.342-3.239-2.475-22.208-8.721-24.709-8.93h-.114c-.016-.006-.098-.105-.114-.114-.041-.034-.079-.071-.114-.111-.016-.016-.101-.092-.114-.114-1.429-2.912.342-23.628.342-23.628,0,0,21.854-16.26,23.229-22.725.006-.054-.009-.174,0-.225.006-.057-.003-.177,0-.228v-.225c-.003-.048.006-.181,0-.228v-.111c-.016-.063-.089-.165-.114-.228-.009-.022.006-.092,0-.111-.009-.016-.105-.095-.114-.114-.025-.038-.089-.079-.114-.114-.041-.054-.073-.177-.114-.225l-.114-.114c-.11-.081-.224-.156-.342-.225l-.228-.114c-5.52-2.63-28.353,5.2-28.353,5.2v-20.801s19.993-2.158,22.091-11.532c.124-.548.063-1.09,0-1.581-.032-.196-.057-.491-.114-.678-.135-.438-.327-.857-.57-1.245-.041-.054-.187-.171-.228-.225-4.576-5.863-23.229-6.671-23.229-6.671-3.499-36.456-6.978-72.871-10.477-109.321l.012-.01ZM1794.331,759.84v14.359s-23.524-1.198-27.897-4.861c-.022-.016-.095-.095-.114-.114l-.114-.111-.114-.114-.114-.114c-.038-.054-.085-.168-.114-.225-.006-.016.006-.095,0-.114-.006-.016-.108-.092-.114-.111v-.567c.025-.082.07-.254.114-.339.006-.022.101-.092.114-.111.054-.089.155-.254.228-.339l.114-.114.228-.228c.158-.136.364-.307.57-.45,7.891-5.489,23.65-5.359,26.756-6.218.025-.01.092.006.114,0,.025-.01.095-.105.114-.114.016-.01.101.006.114,0,.016-.01.105-.105.114-.114h0ZM1827.694,778.946c.814,0,46.86.393,50.897,6.332.032.048.089.174.114.228.032.076.095.26.114.339.009.054-.003.171,0,.225,0,.082.016.257,0,.339-.022.086-.079.254-.114.339-3.518,7.415-50.102,11.871-50.102,11.871l-.909-19.67v-.003ZM1825.076,807.325c.016.006.095-.009.114,0,.013.006.089-.009.114,0,2.732.716,21.806,1.331,24.138,4.522.022.032.095.082.114.111.009.016-.006.098,0,.114.016.032.105.082.114.114v.564c-.006.016-.108.095-.114.111s.009.098,0,.114c-.032.054-.079.171-.114.228-.04.035-.079.072-.114.111-.016.016.016.095,0,.114-3.955,4.798-21.553,6.104-22.43,6.104h-.117c-.006-.003.009-.105,0-.111-.013-.025-.098-.089-.111-.114-.805-1.623-1.594-11.982-1.594-11.982h0ZM1684.676,845.084c15.037-.776,44.873,2.741,100.886,18.089,0,1.185,1.134,15.604.685,17.978-.003.016-.108.095-.114.111v.114c-.009.009-.101.111-.114.114-.878-.437-101.909-29.263-111.134-28.829-.254.006-.558.022-.799,0-.228-.029-.456-.067-.681-.114-.254-.063-.577-.241-.799-.339-.079-.041-.266-.07-.342-.114-.022-.016-.089-.098-.114-.114-.31-.214-.579-.481-.795-.789-.016-.025-.101-.092-.114-.114-.04-.074-.078-.149-.114-.225-.009-.025.006-.092,0-.114-.016-.048-.105-.181-.114-.225v-.567c.025-.154.063-.306.114-.453.124-.307.38-.707.681-1.017,1.546-1.499,5.416-3.007,12.866-3.391h.003ZM1737.054,887.707c16.105-.574,54.688,8.642,56.82,8.138,0,3.055,1.708,17.493-.228,20.462-.016.025-.095.092-.114.114-.016.022-.095.095-.114.114-.022.016-.092.098-.114.111-.074.043-.15.081-.228.114-.022.009-.089-.003-.114,0-.076.003-.152.003-.228,0-.022-.003-.085.009-.114,0-3.28-.814-60.218-18.77-62.398-26.116-.032-.12-.003-.336,0-.453.042-.345.203-.665.456-.903.036-.04.074-.078.114-.114,1.093-.859,3.35-1.366,6.262-1.47v.003ZM1895.555,927.275c15.379-.301,26.236,1.008,22.202,5.65-10.981,12.648-86.878,23.064-86.878,23.064l-1.366-23.064c1.632-.238,40.196-5.15,66.045-5.65h-.003ZM1678.3,999.177c12.907-.681,42.962,6.357,109.882,34.482l.456,16.621s-113.327-34.127-117.282-39.797c-1.946-2.789-5.562-10.645,6.947-11.304l-.003-.003ZM1900.337,1023.936c3.448-.174,5.875.174,6.718,1.017l.114.114c.048.079.085.257.114.339.016.086.117.247.114.339-.048.479-.406,1.119-1.024,1.81-10.546,11.779-67.183,23.514-67.183,23.514v-15.262h.114c2.583-.086,44.154-11.019,61.032-11.871h0ZM1651.884,1025.971c16.919-.891,55.122,8.021,140.739,48.277,0,.415.761,14.299.453,15.601h-.114c-5.077-1.626-154.058-53.588-154.058-53.588-.162-.567-2.402-9.479,12.98-10.287v-.003ZM1935.52,1090.98c4.332-.181,7.171.193,7.859,1.131.064.143.103.297.114.453-.016.45-.396,1.027-1.141,1.695-13.51,12.115-99.643,26.791-102.705,27.019h-.114c-.009-.003-.101.009-.114,0-.037-.038-.075-.075-.114-.111-.032-.041-.089-.171-.114-.228-.009-.022.006-.092,0-.111-.016-.048-.101-.177-.114-.228-.548-2.808,1.236-12.641,1.366-14.017v-.114h.114c.016.003.095.111.114.114h.114c5.514-.092,71.525-14.641,94.734-15.604ZM1682.287,1128.856c25.641-1.318,103.338,34.057,107.147,35.16h.114c-.399,1.578-.463,14.349-.795,16.39-.009.057.006.197,0,.228-.003.006-.111-.003-.114,0-2.095-1.115-108.583-44.994-113.295-41.492-2.938-6.912.108-9.938,6.947-10.29l-.003.003ZM1911.381,1138.126c5.337-.235,9.241.003,10.477.678.149.092.285.225.342.339.006.016-.003.092,0,.114v.111c-.009.048.022.181,0,.228-.016.022-.098.089-.114.111-.105.123-.22.237-.342.342-7.907,6.978-81.301,21.366-81.301,21.366,0,0-.342-13.5-.342-14.809,2.085-.444,49.465-7.523,71.284-8.48h-.003ZM1905.462,1184.815c5.162-.168,8.826.124,9.678,1.017l.114.114c.022.041-.009.184,0,.225.003.025.111.092.114.114-.003.025-.111.092-.114.114-.009.048.022.177,0,.225-.016.025-.098.089-.114.114-.063.101-.136.235-.228.339-.109.118-.223.232-.342.339-7.923,6.788-70.143,19.784-70.143,19.784,0,0-1.708-14.825-1.708-15.262,1.727.041,43.327-6.481,62.74-7.121l.003-.003ZM1642.89,1188.548c15.012-.944,52.213,5.197,144.038,38.323l3.074,17.864s-152.892-49.003-157.246-50.536c.006,0-.003-.101,0-.114.003-.095-.025-.323,0-.564.054-.45.282-1.157.795-1.81,1.078-1.312,3.54-2.801,9.339-3.166v.003ZM1844.316,1227.324c1.841.393,27.479,1.236,32.223,5.2.025.016.095.095.114.114l.114.114.114.114c.048.06.079.165.117.225.006.022.101.092.111.114.041.082.095.253.114.339.006.022-.003.092,0,.114v.111c0,.048.006.184,0,.228-.003.022.006.089,0,.111-.006.048-.095.181-.114.228-.006.022.009.089,0,.114l-.111.225c-3.955,6.107-30.746,8.366-30.746,8.366,0,0-1.315-11.966-1.936-15.715v-.003ZM1906.374,1262.145c5.967-.143,10.252.536,11.158,2.263.507,1.169-.472,2.893-3.302,5.2-21.965,17.883-69.801,21.366-69.801,21.366v-19.67h.114c2.716-.32,42.008-8.686,61.831-9.158h0ZM1967.292,1280.462c7.58-.285,10.847.976,11.843,2.713.079.152.181.403.228.564.07.295.136.703.114,1.017-.247,2.244-2.69,4.928-4.557,6.671-7.469,6.978-126.504,44.433-126.504,44.433,0,0-.894-24.842-.453-27.022,69.592-20.941,103.633-27.786,119.332-28.375h-.003ZM1890.317,1350.782c7.568-.279,13.487.165,15.259,1.92.129.139.244.291.342.453.041.079.089.257.114.339.022.086-.009.25,0,.339.003.152.038.403,0,.567-.085.333-.317.742-.57,1.131-10.185,9.922-59.666,11.418-59.666,11.418v-12.324c9.292-.311,29.976-3.305,44.522-3.844h0ZM1939.849,1371.02c2.351-.057,3.787.323,3.987,1.017.006.075.006.15,0,.225-.121.577-.811,1.451-2.279,2.488-19.768,13.953-94.053,28.264-94.053,28.264,0,0,.919-9.751,1.366-12.099,2.066-.029,73.204-19.464,90.976-19.895h.003ZM1981.521,1386.506c8.756-.082,15.436,1.201,19.245,3.958h.114v.453c-.374,2.703-5.939,15.42-25.507,20.916-24.405-2.164-127.987,28.239-130.034,28.714-.009-.006-.108.009-.114,0-.006-.038.003-.168,0-.225-.054-1.949,1.366-12.435,1.366-12.435,35.705-21.201,100.591-41.058,134.93-41.381ZM1716.332,1446.198h.681c44.807,4.798,61.542,21.451,66.27,28.154-8.933,15.566-79.745-19.344-72.301-26.794.849-.757,2.605-1.302,5.349-1.359h0ZM1973.098,1449.139c1.778-.07,3.403.295,4.554,1.017.469.314.935.761,1.252,1.245.478.828.751,1.758.799,2.713-4.681,7.181-28.889,4.047-30.404,3.844,1.22-.434,15.199-8.493,23.799-8.819h0ZM1877.109,1497.527c3.324-.136,6.084.197,7.631,1.131.187.12.421.307.567.45.048.048.187.174.228.228.063.076.178.253.228.339.048.086.079.247.114.339.282.843.174,2.012-.567,3.391-7.029,13.085-37.803,8.252-37.803,8.252v-9.155h.111c1.733.146,18.694-4.535,29.494-4.975h-.003ZM1695.838,1532.009c9.469-.475,17.743,5.692,26.417,10.626,19.325-3.923,58.982,3.055,58.982,3.055v17.407c-.032.045-.072.084-.117.114-.013.009-.089-.006-.111,0-3.609.624-50.083-1.391-60.462-7.913-8.465,0-32.432-12.559-34.273-18.992-.016-.057-.105-.174-.114-.228-.016-.079.006-.26,0-.339-.003-.075-.003-.15,0-.225.003-.048-.009-.181,0-.228v-.111c.006-.048.098-.181.114-.228.006-.022-.009-.089,0-.111,3.312-1.752,6.538-2.675,9.564-2.827h0ZM1899.089,1540.6c7.27-.387,10.35,1.844,4.668,9.837-15.813,22.243-56.706,13.113-56.706,13.113l-1.708-13.792c14.422.558,40.785-8.464,53.743-9.158h.003ZM1746.279,1585.708c16.536-.764,34.501,5.768,34.501,5.768.425.837,8.889,17.401,1.369,22.95-.291.209-.596.397-.913.564-9.225,4.798-53.319-3.749-55.908-21.369,5.188-5.438,12.876-7.539,20.95-7.913h0ZM1575.824,1594.299c15.123-.9,32.013,8.35,33.931,9.273.025.006.101-.003.114,0,0,.52-.567,16.732-.567,16.732,0,0-29.935-8.287-39.4-24.988,1.935-.538,3.919-.878,5.923-1.017ZM1863.793,1596.561c16.866-.108,37.239,3.828,40.193,9.498.558,1.16.393,2.437-.681,3.73-8.347,10.03-55.797.903-55.797.903v-12.207c4.221-1.226,10.036-1.886,16.282-1.924h.003Z"/>
    </g>
  </g>
</svg>