<?xml version="1.0" encoding="UTF-8"?>
<svg xmlns="http://www.w3.org/2000/svg" xmlns:xlink="http://www.w3.org/1999/xlink" viewBox="0 0 3600.1 2401.738">
  <defs>
    <style>
      .cls-1 {
        fill: #ccd11e;
      }

      .cls-1, .cls-2, .cls-3, .cls-4, .cls-5, .cls-6, .cls-7, .cls-8, .cls-9, .cls-10, .cls-11, .cls-12, .cls-13, .cls-14, .cls-15, .cls-16, .cls-17, .cls-18, .cls-19, .cls-20, .cls-21, .cls-22, .cls-23, .cls-24, .cls-25, .cls-26, .cls-27, .cls-28, .cls-29 {
        stroke-width: 0px;
      }

      .cls-1, .cls-2, .cls-3, .cls-4, .cls-5, .cls-6, .cls-7, .cls-8, .cls-9, .cls-10, .cls-12, .cls-13, .cls-14, .cls-15, .cls-16, .cls-17, .cls-18, .cls-19, .cls-20, .cls-30, .cls-22, .cls-23, .cls-25, .cls-26, .cls-27, .cls-28, .cls-29 {
        fill-rule: evenodd;
      }

      .cls-2 {
        fill: #025;
      }

      .cls-3 {
        fill: #f60;
      }

      .cls-4 {
        fill: url(#_무제_그라디언트_38-2);
      }

      .cls-5 {
        fill: #93bc30;
      }

      .cls-6 {
        fill: red;
      }

      .cls-7 {
        fill: #c8a400;
      }

      .cls-8 {
        fill: #510000;
      }

      .cls-9 {
        fill: lime;
      }

      .cls-10 {
        fill: url(#_무제_그라디언트_38-3);
      }

      .cls-11 {
        fill: none;
      }

      .cls-12 {
        fill: url(#_무제_그라디언트_38-4);
      }

      .cls-13 {
        fill: #ff3a3a;
      }

      .cls-14 {
        fill: #ff2a2a;
      }

      .cls-15 {
        fill: #0cf;
      }

      .cls-16 {
        fill: url(#_무제_그라디언트_38-5);
      }

      .cls-17, .cls-24 {
        fill: #265fb5;
      }

      .cls-18 {
        fill: #fff;
      }

      .cls-19 {
        fill: #ede71f;
      }

      .cls-20 {
        fill: #c6cb24;
      }

      .cls-21 {
        fill: #eee;
      }

      .cls-30 {
        fill: rgba(23, 192, 235, .62);
        stroke: rgba(23, 192, 235, .62);
        stroke-miterlimit: 8;
        stroke-width: .511px;
      }

      .cls-22 {
        fill: blue;
      }

      .cls-23 {
        fill: purple;
      }

      .cls-25 {
        fill: #9ecb34;
      }

      .cls-26 {
        fill: url(#_무제_그라디언트_38);
      }

      .cls-27 {
        fill: #910000;
      }

      .cls-28 {
        fill: #ff0;
      }

      .cls-29 {
        fill: #97c924;
      }
    </style>
    <linearGradient id="_무제_그라디언트_38" data-name="무제 그라디언트 38" x1="1900.745" y1="1184.807" x2="1912.446" y2="1036.137" gradientTransform="translate(1 2365.2) scale(1 -1)" gradientUnits="userSpaceOnUse">
      <stop offset="0" stop-color="#f5f549"/>
      <stop offset=".52" stop-color="#f5f549"/>
      <stop offset=".64" stop-color="#97c924"/>
      <stop offset="1" stop-color="#97c924"/>
    </linearGradient>
    <linearGradient id="_무제_그라디언트_38-2" data-name="무제 그라디언트 38" x1="1849.578" y1="1185.491" x2="1861.367" y2="1035.719" xlink:href="#_무제_그라디언트_38"/>
    <linearGradient id="_무제_그라디언트_38-3" data-name="무제 그라디언트 38" x1="1789.754" y1="1185.491" x2="1801.543" y2="1035.719" xlink:href="#_무제_그라디언트_38"/>
    <linearGradient id="_무제_그라디언트_38-4" data-name="무제 그라디언트 38" x1="1728.16" y1="1185.628" x2="1739.97" y2="1035.579" xlink:href="#_무제_그라디언트_38"/>
    <linearGradient id="_무제_그라디언트_38-5" data-name="무제 그라디언트 38" x1="1675.439" y1="1184.801" x2="1687.119" y2="1036.406" xlink:href="#_무제_그라디언트_38"/>
  </defs>
  <g id="background">
    <path id="ni" class="cls-17" d="M400,.1h2800c220,0,400,180,400,400v1600c0,220-180,400-400,400H400C180,2400.1,0,2220.1,0,2000.1V400.1C0,180.1,180,.1,400,.1Z"/>
  </g>
  <g id="country">
    <g id="ni-2" data-name="ni">
      <path class="cls-21" d="M3600,2000.1V800.1H0v1200C0,2220.1,180,2400.1,400,2400.1h2800c220,0,400-180,400-400Z"/>
      <path class="cls-24" d="M3600,2000.1v-400H0v400C0,2220.1,180,2400.1,400,2400.1h2800c220,0,400-180,400-400Z"/>
      <g>
        <path class="cls-7" d="M1466.474,1274.328l6.377,24.222,5.768-1.517-6.377-24.222-5.768,1.517ZM2131.777,1274.377l-6.377,24.225-5.768-1.52,6.377-24.222,5.768,1.517ZM1752.056,1514.44l-26.002,36.415,6.609.957,8.027-11.31.028.004,21.459,3.107,4.494,13.123,6.609.954-14.615-42.292-6.609-.957ZM1754.463,1521.123l5.673,16.54-15.801-2.287,10.128-14.252h0ZM2059.598,1380.484l34.621,20.252,18.165-25.274-4.92-2.879-14.53,20.221-.373.517-.44-.257-29.261-17.117-3.262,4.536ZM1550.249,1400.718l-28.772,25.196,3.843,3.85,24.246-21.238-12.721,32.784,4.409,4.413,34.761-9.885-23.81,20.854,3.843,3.85,28.772-25.2-5.835-5.845-35.328,9.885,13.225-32.02-6.634-6.644ZM1533.716,1373.822l-44.453,5.117,3.72,5.543,13.774-1.622.018.021,12.081,18.007-6.725,12.13,3.72,5.546,21.586-39.195-3.72-5.546h0ZM1530.37,1380.089l-8.47,15.294-8.893-13.256,17.363-2.038h0ZM1592.449,1441.008l-23.919,31.763,30.915,23.279,3.396-4.515-25.77-19.404-.524-.398.303-.401,6.672-8.865.303-.401.528.394,23.173,17.451,3.378-4.49-23.17-17.448-.528-.398.303-.401,5.845-7.763.296-.391.528.398,24.781,18.662,3.417-4.536-29.926-22.536ZM1675.137,1492.172l-12.869,36.475,4.73,2.235,12.866-36.475-4.726-2.235ZM1711.728,1505.238c-4.392-1.457-8.615-2.066-12.746-1.809-4.114.26-7.622,1.467-10.532,3.639-2.91,2.168-4.99,5.155-6.264,8.991-1.162,3.457-1.377,7.162-.623,10.73.743,3.621,2.495,6.742,5.293,9.435,2.78,2.678,6.855,4.927,12.25,6.718,5.184,1.721,9.839,2.122,14.076,1.235,4.065-.852,7.411-2.921,10.072-6.211l-5.169-2.854c-5.194,6.183-11.405,4.68-17.873,2.594-9.941-3.42-15.227-10.406-12.338-19.774,3.568-10.188,13.334-10.399,22.033-7.693,6.07,2.009,11.264,4.642,12.021,10.624l5.697.862c-.317-3.586-1.742-6.781-4.35-9.593-2.741-2.952-6.563-5.24-11.546-6.894h0ZM1845.227,1514.578c-4.543.88-8.523,2.414-12,4.663-3.459,2.235-5.93,5.008-7.404,8.326-1.475,3.315-1.83,6.94-1.066,10.906.681,3.583,2.308,6.918,4.712,9.66,2.418,2.798,5.476,4.663,9.23,5.641,3.737.971,8.389.94,13.974-.137,5.36-1.038,9.617-2.963,12.876-5.814,3.128-2.731,5.036-6.172,5.743-10.346l-5.905.042c-1.503,7.936-7.654,9.663-14.316,11.008-10.343,1.883-18.369-1.619-20.435-11.205-1.876-10.631,6.535-15.593,15.449-17.493,6.275-1.214,12.091-1.46,15.681,3.385l5.391-2.038c-2.034-2.974-4.835-5.06-8.488-6.236-3.836-1.235-8.287-1.358-13.443-.362h0ZM1871.87,1509.922l11.307,38.118,37.102-11.008-1.608-5.416-30.926,9.178-.633.187-.141-.482-3.157-10.638-.144-.482.63-.19,27.811-8.249-1.601-5.388-27.808,8.249-.63.19-.144-.486-2.766-9.315-.137-.468.633-.187,29.743-8.826-1.615-5.444-35.916,10.656ZM1915.436,1495.124l16.367,35.761,4.881-2.28-12.978-28.357-.672-1.475,1.629.714,37.165,17.363,6.394-2.988-16.371-35.764-4.895,2.287,12.975,28.342.662,1.446-1.612-.704-37.168-17.331-6.377,2.984ZM1957.615,1475.917l3.174,4.694,14.477-9.266.549-.352.274.405,18.834,27.829,4.92-3.15-18.834-27.829-.274-.405.563-.359,14.548-9.311-3.174-4.694-35.057,22.437ZM2044.198,1402.823l17.785,41.06,4.226-5.166-5.546-12.711.018-.021,13.728-16.786,13.559,2.917,4.23-5.166-43.774-9.294-4.226,5.166h0ZM2051.166,1404.209l17.092,3.67-10.107,12.355-6.985-16.026ZM1630.895,1471.064l-17.933,34.983,4.892,2.72.014.007,6.83-13.327.222-.433.546.303,13.249,7.365c.831.461,1.636.88,2.428,1.27.479,2.442,2.907,14.766,3.959,19.957l6.222,3.459-4.191-21.055c6.084,1.64,10.635.091,13.767-5.792l.116-.253c.063-.113.13-.222.19-.338.971-1.9,1.246-3.959.841-6.19-.401-2.231-1.418-4.16-3.093-5.877-1.675-1.714-4.526-3.72-8.527-5.944l-1.362-.757-18.169-10.1h0ZM1633.246,1478.778l.546.303,13.214,7.344c5.367,2.984,10.997,7.035,8.481,11.944-2.516,4.909-9.864,1.717-14.133-.623l-13.33-7.411-.546-.303.225-.447,5.321-10.378.222-.429ZM1996.276,1448.771l28.29,29.356,4.473-3.941.011-.011-10.775-11.184-.348-.362.496-.436,12.106-10.67c.76-.669,1.464-1.327,2.139-1.981,2.601.334,15.727,2.027,21.269,2.706l5.683-5.011-22.441-2.84c3.832-5.476,3.934-10.494-.781-15.547l-.211-.197c-.088-.099-.176-.201-.271-.299-1.534-1.594-3.48-2.548-5.845-2.889-2.361-.341-4.649.025-6.957,1.112-2.312,1.091-5.335,3.248-8.988,6.468l-1.246,1.098-16.603,14.629h0ZM2004.792,1449.003l.496-.44,12.077-10.642c4.902-4.318,10.965-8.548,14.935-4.427,3.969,4.117-1.858,10.332-5.729,13.777l-12.179,10.737-.5.436-.359-.373-8.393-8.706-.348-.362h0ZM1663.647,868.794l-4.163,44.555,6.194-2.499,1.249-13.812.028-.011,20.112-8.108,10.48,9.083,6.194-2.499-33.899-29.205-6.194,2.495h0ZM1669.087,873.362l13.218,11.44-14.805,5.968,1.587-17.409h0ZM1961.233,882.927l-16.318,35.958-4.796-2.752,16.318-35.958,4.796,2.752ZM1447.643,1134.902l37.277,9.083,8.47-37.869-5.296-1.292-7.063,31.57-.141.644-.475-.113-10.402-2.537-.472-.113.144-.647,6.348-28.385-5.268-1.284-6.348,28.385-.148.647-.468-.116-9.111-2.221-.461-.113.144-.644,6.792-30.362-5.321-1.298-8.203,36.665ZM1461.706,1084.675l36.841,13.598,1.869-5.711-14.038-5.18-.45-.169.208-.633,4.431-13.513c3.994-12.197,3.181-20.055-5.627-23.472-1.743-.665-3.649-.769-5.455-.299-1.812.461-3.464,1.406-4.779,2.734-1.365,1.355-2.618,3.234-3.744,5.638-.813,1.689-1.809,4.293-2.949,7.77l-6.306,19.239ZM1468.825,1080.902l.208-.633,4.416-13.475c2.048-6.246,5.092-12.947,10.262-11.039s3.234,10.314,1.636,15.276l-4.459,13.612-.208.633-.468-.172-10.934-4.036-.454-.165ZM1482.799,1037.037l19.591,12.088c3.635,2.245,6.827,3.364,9.53,3.424,2.696.06,5.307-.964,7.939-3.104,2.604-2.118,5.148-5.314,7.633-9.769l.056-.106c2.463-4.466,3.857-8.372,4.332-11.806.479-3.47.042-6.373-1.33-8.822-1.372-2.456-3.864-4.842-7.499-7.087l-19.591-12.088-2.924,5.272,19.119,11.799c8.583,5.296,7.657,11.655,3.114,19.784l-.056.102c-4.49,8.164-9.29,12.134-17.873,6.838l-19.116-11.799-2.924,5.275h0ZM1509.934,989.526l31.577,24.158,12.025-15.716c5.257-6.172,11.152-15.857,2.421-22.536-7.003-5.36-12.102-.412-12.102-.412,0,0,1.559-4.409-3.012-7.907-1.411-1.08-3.948-2.189-6.074-2.118-2.108.067-4.163.795-6.225,2.196-2.052,1.39-4.325,3.667-6.778,6.873l-11.831,15.463ZM1517.944,988.34l.391-.51,8.122-10.617c2.675-3.491,6.718-8.491,10.796-5.409s.313,8.277-2.396,11.835l-8.125,10.617-.391.51-.401-.306-7.608-5.82-.387-.299ZM1530.809,998.187l.391-.514,8.122-10.613c5.623-7.351,9.368-9.596,12.971-6.838,3.603,2.755,2.309,7.094-3.209,14.305l-8.122,10.617-.391.51-.401-.306-8.974-6.866-.387-.296ZM1581.301,915.464l23.557,31.552,4.596-3.639-23.557-31.552-4.596,3.639ZM1616.242,892.39c-3.927,2.446-7.094,5.307-9.533,8.65-2.432,3.329-3.744,6.799-3.934,10.427-.187,3.625.778,7.133,2.914,10.564,1.92,3.1,4.633,5.63,7.858,7.33,3.262,1.745,6.781,2.389,10.638,1.96,3.839-.429,8.171-2.129,12.999-5.134,4.631-2.889,7.918-6.211,9.941-10.04,1.939-3.67,2.488-7.57,1.654-11.718l-5.497,2.157c1.439,7.946-3.684,11.764-9.424,15.406-8.981,5.462-17.733,5.067-23.092-3.143-5.56-9.255.514-16.899,8.157-21.864,5.423-3.385,10.765-5.701,15.853-2.46l4.304-3.836c-2.967-2.045-6.331-2.991-10.163-2.78-4.022.222-8.221,1.703-12.676,4.48h0ZM1750.089,846.213l2.569,37.478,19.299-1.101c2.924-.142,5.831-.527,8.692-1.151,2.488-.57,4.585-1.309,6.275-2.221,1.736-.948,3.3-2.183,4.624-3.653,1.383-1.506,2.492-3.399,3.304-5.669.809-2.252,1.126-4.803.929-7.682-.232-3.378-1.154-6.341-2.745-8.865-1.591-2.516-3.853-4.504-6.799-6.003-2.238-1.154-4.888-1.879-8.002-2.196h-.014c-2.199-.225-5.455-.232-9.73.014l-18.401,1.049h0ZM1756.423,851.196l.679-.039,11.634-.662c4.395-.253,7.622-.187,9.779.257,6.841,1.893,10.715,6.735,11.057,11.733.345,4.997-1.668,8.516-4.979,11.18-1.26.992-2.963,1.788-5.085,2.4-2.154.619-5.081.753-8.745,1.232l-11.821.676-.683.039-.032-.461-1.774-25.879-.032-.475ZM1806.331,841.729l-2.27,39.695,38.636,2.207.324-5.638-32.21-1.841-.658-.039.032-.503.633-11.078.028-.503.658.039,28.958,1.654.32-5.609-28.958-1.658-.658-.035.028-.503.556-9.702.025-.486.662.035,30.975,1.77.324-5.666-37.404-2.14ZM1908.764,859.068l-14.453,37.728,5.141,2.02,11.455-29.912.595-1.555.64,1.724,13.777,40.138,6.732,2.643,14.449-37.728-5.152-2.024-11.451,29.898-.588,1.531-.63-1.71-13.802-40.114-6.714-2.639ZM1993.369,898.643c-3.864-2.548-7.784-4.233-11.838-5.057-4.04-.82-7.742-.563-11.117.778-3.375,1.341-6.162,3.684-8.386,7.056-2.018,3.038-3.187,6.56-3.385,10.202-.225,3.692.658,7.158,2.66,10.483,1.992,3.308,5.342,6.538,10.086,9.67,4.557,3.005,8.949,4.603,13.27,4.846,4.149.232,7.918-.897,11.342-3.382l-4.254-4.1c-6.619,4.624-12.225,1.559-17.93-2.136-8.713-5.88-12.004-13.999-6.781-22.297,6.092-8.914,15.575-6.584,23.275-1.71,5.339,3.516,9.67,7.408,8.847,13.383l5.282,2.312c.623-3.547.077-7.003-1.714-10.395-1.879-3.561-4.976-6.764-9.357-9.653h0ZM2031.505,927.538l-41.564,16.578,5.043,4.378,12.869-5.173.021.018,16.374,14.213-3.315,13.467,5.043,4.378,10.568-43.481-5.039-4.378h0ZM2029.914,934.464l-4.167,16.976-12.056-10.462,16.223-6.514h0ZM2108.048,1018.513l-44.703,2.048,3.333,5.789,13.851-.676.014.025,10.818,18.795-7.541,11.638,3.329,5.785,24.229-37.619-3.329-5.785ZM2104.279,1024.534l-9.502,14.675-7.964-13.833,17.465-.841ZM2131.239,1071.309c-1.784-4.892-4.114-8.928-6.957-12.123-2.833-3.185-6.113-5.205-9.913-6.106-3.811-.904-7.481-.736-11.05.528-3.493,1.193-6.523,3.451-8.664,6.457-2.161,3.016-3.266,6.721-3.368,11.18-.102,4.469.711,9.107,2.47,13.935,1.857,5.114,4.715,9.806,8.407,13.802l-2.991,1.059,1.918,5.254,5.624-1.992,13.133-4.652-7.295-19.967-4.332,1.534,5.134,14.087.229.63-.465.165-5.69,2.016-.197.07-.225-.158c-4.364-3.758-6.954-8.829-8.815-13.847-3.371-10.202-3.561-20.069,7.475-24.088,10.86-3.554,17.722,5.067,21.153,13.841,2.235,6.289,3.34,12.693-1.432,17.272l2.731,4.448c1.943-1.636,3.399-3.424,4.254-5.412.911-2.115,1.274-4.74,1.087-7.886-.186-3.143-.922-6.486-2.217-10.033l-.003-.014h0ZM2143.598,1101.76l-21.473,4.395c-3.984.816-6.971,2.147-8.963,3.917-1.988,1.763-3.259,4.251-3.871,7.562-.609,3.276-.521,7.288.369,12.172l.021.113c.911,4.877,2.259,8.632,3.991,11.43,1.745,2.826,3.811,4.635,6.281,5.486,2.477.852,5.718.904,9.706.088l21.47-4.399-1.066-5.768-20.952,4.293c-9.406,1.925-12.574-3.287-14.189-12.204l-.021-.113c-1.679-8.903-.595-14.988,8.808-16.916l20.956-4.29-1.066-5.768h0ZM2157.114,1169.924l-41.141-17.592.482,6.658,12.767,5.416.003.028,1.566,21.628-11.856,7.204.482,6.658,38.178-23.338-.482-6.662ZM2151.104,1173.707l-14.938,9.086-1.154-15.92,16.093,6.834ZM1546.124,947.298l26.537,27.846,22.73-21.29-3.772-3.959-18.179,17.032-.468.436-.334-.352-22.43-23.539-4.082,3.825ZM1440.598,1197.587l39.234,2.675.38-5.835.004-.014-14.945-1.021-.482-.032.042-.651,1.031-15.801c.067-.989.102-1.939.12-2.861,2.002-1.478,12.116-8.938,16.36-12.113l.486-7.422-17.254,12.792c-1.098-6.531-4.431-10.258-11.078-10.821l-.278-.004c-.127-.014-.257-.032-.387-.039-2.129-.148-4.107.447-5.954,1.763-1.844,1.316-3.157,3.097-3.998,5.419-.838,2.33-1.439,5.901-1.752,10.67l-.106,1.626-1.418,21.667h-.004ZM1446.57,1192.119l.042-.651,1.031-15.758c.419-6.401,1.693-13.499,7.2-13.123,5.504.377,5.736,8.766,5.43,13.841l-1.038,15.899-.042.651-.5-.032-11.638-.795-.486-.032h0ZM2060.425,954.04l-28.888,26.562,3.47,4.694.007.011,11.008-10.121.355-.327.387.524,9.396,12.7c.588.795,1.172,1.538,1.749,2.249-.443,2.579-2.671,15.589-3.582,21.086l4.413,5.965,3.765-22.247c4.941,4.138,9.635,4.529,14.601.109l.194-.197c.099-.084.201-.162.296-.253,1.569-1.439,2.558-3.329,2.995-5.673.435-2.356.193-4.787-.7-7.01-.908-2.372-2.777-5.514-5.613-9.347l-.968-1.309-12.883-17.416h0ZM2059.788,962.528l.387.524,9.371,12.669c3.804,5.145,7.464,11.44,3.41,15.167-4.05,3.727-9.582-2.449-12.619-6.51l-9.456-12.781-.387-.524.366-.338,8.572-7.879.355-.327Z"/>
        <path class="cls-18" d="M1800.077,907.694l-125.187,217.341-61.323,106.416h373.021l-58.519-101.564-127.992-222.193h0Z"/>
        <path class="cls-30" d="M1799.817,909.661l-9.371,16.265,9.371,219.1,9.368-219.1-9.368-16.265ZM1799.817,1145.027l32.945-178.159-13.267-23.029-19.679,201.188ZM1799.817,1145.027l49.833-148.832-9.706-16.856-40.128,165.688ZM1799.817,1145.027l62.963-126.028-7.658-13.299-55.306,139.327ZM1799.817,1145.027l73.847-107.145-6.412-11.124-67.436,118.269ZM1799.817,1145.027l83.37-90.612-5.666-9.843-77.704,100.455ZM1799.817,1145.027l92.066-75.484-5.233-9.083-86.833,84.567ZM1799.817,1145.027l100.385-61.059-5.036-8.745-95.349,69.804ZM1799.817,1145.027l108.63-46.747-5.036-8.731-103.594,55.478ZM1799.817,1145.027l117.16-31.928-5.247-9.111-111.913,41.039ZM1799.817,1145.027l126.331-16.015-5.694-9.867-120.637,25.883ZM1799.817,1145.027l136.642,1.897-6.454-11.205-130.188,9.308ZM1799.817,1145.027l148.842,23.085-7.7-13.372-141.143-9.713ZM1799.817,1145.027l164.119,49.612-9.762-16.955-154.357-32.657ZM1799.817,1145.027l184.751,85.422-13.369-23.212-171.382-62.21ZM1799.817,1145.027l137.117,88.388h29.539l-166.656-88.388ZM1799.817,1145.027l102.475,88.388h19.538l-122.013-88.388ZM1799.817,1145.027l77.536,88.388h14.347l-91.883-88.388ZM1799.817,1145.027l58.068,88.388h11.36l-69.428-88.388ZM1799.817,1145.027l41.88,88.388h9.568l-51.449-88.388ZM1799.817,1145.027l27.73,88.388h8.428l-36.158-88.388ZM1799.817,1145.027l14.755,88.388h7.798l-22.554-88.388ZM1799.817,1145.027l2.382,88.388h7.506l-9.889-88.388ZM1799.817,1145.027l-9.889,88.388h7.503l2.386-88.388ZM1799.817,1145.027l-22.554,88.388h7.798l14.755-88.388ZM1799.817,1145.027l-36.158,88.388h8.428l27.73-88.388ZM1799.817,1145.027l-51.435,88.388h9.554l41.88-88.388ZM1799.817,1145.027l-69.428,88.388h11.374l58.054-88.388ZM1799.817,1145.027l-91.872,88.388h14.337l77.536-88.388ZM1799.817,1145.027l-121.999,88.388h19.538l102.461-88.388ZM1799.817,1145.027l-166.659,88.388h29.539l137.12-88.388ZM1799.817,1145.027l-171.385,62.21-13.365,23.212,184.751-85.422ZM1799.817,1145.027l-154.357,32.671-9.776,16.955,164.133-49.626ZM1799.817,1145.027l-141.132,9.713-7.7,13.358,148.832-23.071ZM1799.817,1145.027l-130.177-9.308-6.45,11.205,136.628-1.897ZM1799.817,1145.027l-120.623-25.883-4.533,7.858-1.165,2.024,126.32,16.001ZM1799.817,1145.027l-111.899-41.039-5.247,9.111,117.146,31.928ZM1799.817,1145.027l-103.584-55.478-5.036,8.731,108.619,46.747ZM1799.817,1145.027l-95.349-69.79-5.022,8.731,100.371,61.059ZM1799.817,1145.027l-86.836-84.567-5.229,9.083,92.066,75.484ZM1799.817,1145.027l-77.69-100.441-5.666,9.843,83.356,90.598ZM1799.817,1145.027l-67.422-118.283-6.412,11.152,73.833,107.131ZM1799.817,1145.027l-55.306-139.327-7.658,13.299,62.963,126.028ZM1799.817,1145.027l-40.128-165.674-9.706,16.842,49.833,148.832ZM1799.817,1145.027l-19.679-201.202-13.27,23.057,32.949,178.145Z"/>
        <path class="cls-6" d="M1799.817,1062.698c-43.869,0-83.982,16.11-114.799,42.753l-58.121,101.018c-2.197,11.769-3.204,23.73-3.005,35.701h22.195c-.018-.974-.027-1.947-.028-2.921,0-85.211,68.84-154.283,153.758-154.283s153.758,69.072,153.758,154.283c0,.975-.007,1.95-.025,2.921h22.191c.202-11.961-.8-23.912-2.991-35.673l-58.149-101.06c-30.813-26.636-70.923-42.739-114.785-42.739h0Z"/>
        <path class="cls-3" d="M1799.824,1066.214c-46.54,0-88.775,18.5-119.8,48.574l-47.588,82.744c-3.597,14.599-5.286,29.603-5.025,44.636h18.996c-.02-.97-.029-1.94-.028-2.91,0-85.049,68.699-153.994,153.445-153.994s153.449,68.945,153.449,153.994c0,.971-.011,1.943-.028,2.91h18.978c.263-15.038-1.427-30.046-5.025-44.65l-47.588-82.73c-31.021-30.074-73.249-48.574-119.785-48.574Z"/>
        <path class="cls-28" d="M1799.824,1069.733c-50.147,0-95.183,21.934-126.123,56.762l-34.385,59.764c-5.898,18.037-8.733,36.934-8.386,55.907h15.793c-.018-.968-.028-1.935-.028-2.907,0-84.873,68.558-153.677,153.128-153.677s153.128,68.805,153.128,153.677c0,.971-.011,1.939-.028,2.907h15.78c.343-18.979-2.495-37.88-8.396-55.921l-34.374-59.764c-30.932-34.821-75.97-56.748-126.109-56.748h0Z"/>
        <path class="cls-9" d="M1798.057,1073.252c-55.702-.092-107.796,27.545-138.954,73.717l-11.194,19.277c-11.652,23.584-17.475,49.62-16.98,75.92h12.739c-.02-.966-.029-1.933-.028-2.9,0-84.7,69.132-153.364,154.416-153.364s154.416,68.664,154.416,153.364c0,.968-.011,1.935-.028,2.9h12.739c.494-26.258-5.309-52.253-16.923-75.808l-11.321-19.503c-31.171-46.107-83.228-73.696-138.883-73.605h0Z"/>
        <path class="cls-15" d="M1798.065,1076.771c-90.373,0-163.643,72.753-163.643,162.5,0,.968.011,1.932.028,2.896h9.544c-.018-.965-.027-1.931-.028-2.896,0-84.521,68.991-153.033,154.1-153.033s154.1,68.513,154.1,153.033c0,.968-.011,1.932-.028,2.896h9.53c.018-.964.028-1.928.028-2.896,0-89.747-73.26-162.5-163.629-162.5h0Z"/>
        <path class="cls-22" d="M1799.814,1080.29c-89.398,0-161.877,71.184-161.877,158.988,0,.968.014,1.928.028,2.889h6.422c-.021-.963-.032-1.926-.032-2.889,0-84.324,69.603-152.685,155.458-152.685s155.458,68.361,155.458,152.685c0,.964-.011,1.928-.028,2.889h6.419c.018-.961.032-1.921.032-2.889,0-87.804-72.479-158.988-161.877-158.988h-.004Z"/>
        <path class="cls-23" d="M1799.824,1083.809c-87.463,0-158.365,69.611-158.365,155.476,0,.961.007,1.925.028,2.882h3.202c-.018-.961-.027-1.921-.028-2.882,0-84.13,69.466-152.333,155.162-152.333s155.159,68.203,155.159,152.333c0,.961-.011,1.921-.028,2.882h3.188c.021-.957.032-1.921.032-2.882,0-85.865-70.892-155.476-158.351-155.476h0Z"/>
        <path class="cls-18" d="M1613.866,1231.933l-39.438,66.862h450.44l-39.435-66.862h-371.567Z"/>
        <path class="cls-2" d="M1613.212,1228.46l-.493.982h373.858l-.493-.982h-372.873ZM1612.339,1230.184l-.507.999h375.628l-.503-.999h-374.618,0ZM1611.537,1231.761l-.816,1.629h377.852l-.816-1.629h-376.219ZM1610.273,1234.277l-.999,1.981h380.748l-.999-1.981h-378.75ZM1608.683,1237.437l-.999,1.981h383.926l-.996-1.981h-381.931ZM1607.092,1240.594l-.982,1.967h387.076l-.985-1.967h-385.108ZM1605.505,1243.754l-.999,1.967h390.281l-.996-1.967h-388.286ZM1603.788,1247.153l-1.207,2.421h394.135l-1.211-2.421h-391.717Z"/>
        <path class="cls-2" d="M1629.273,1249.532c13.781,2.692,15.107,0,15.107,0h-15.107ZM1954.856,1249.532s1.327,2.692,15.107,0h-15.107ZM1603.144,1250.152c-.633,0-1.263.053-1.89.07l-1.281,2.263c2.143-.183,4.293-.359,6.496-.415,13.158.327,25.101,3.438,39.093,3.438.978,0,1.89-.049,2.833-.07h.352c.398.004.831.06,1.239.07.359,0,.697.007,1.045,0,.489,0,.901.007,1.38,0,.482.007.978,0,1.467,0,.264,0,.507.007.76,0,.274.007.563,0,.831,0,.493,0,.901.007,1.383,0,.482.007.961,0,1.45,0h.904c.412-.011.831-.063,1.253-.07h.338c.943.025,1.869.07,2.847.07,13.978,0,25.922-3.111,39.079-3.438,13.165.327,25.182,3.438,39.164,3.438.978,0,1.904-.049,2.847-.07h.338c.426.004.841.06,1.256.07h.901c.489,0,.971.007,1.453,0,.479.007.961,0,1.45,0,.253,0,.503.007.76,0,.257.007.5,0,.764,0,.489,0,.985.007,1.464,0,.479.007.964,0,1.45,0h.975c.422-.011.831-.063,1.239-.07h.352c.943.025,1.858.07,2.833.07,13.981,0,25.879-3.111,39.023-3.438,13.154.327,25.045,3.438,39.023,3.438.957,0,1.914-.049,2.833-.07h.422c.387.004.771.06,1.172.07.348,0,.7.007,1.042,0,.493,0,.971.007,1.453,0,.479.007.904,0,1.394,0,.26,0,.51.007.76,0,.285.007.556,0,.834,0,.489,0,.971.007,1.45,0,.479.007.89,0,1.383,0h.971c.391-.011.785-.063,1.182-.07h.408c.926.021,1.893.07,2.847.07,13.981,0,25.928-3.111,39.093-3.438,13.168.324,25.094,3.438,39.079,3.438.982,0,1.904-.049,2.847-.07h.341c.422.004.837.06,1.253.07h.901c.493,0,.971.007,1.453,0,.479.007.961,0,1.45,0,.257,0,.503.007.76,0,.257.007.51,0,.778,0,.489,0,.971.007,1.45,0,.479.007.961,0,1.453,0h.971c.422-.011.827-.063,1.239-.07h.355c.943.025,1.869.07,2.843.07,13.981,0,25.869-3.111,39.009-3.438,2.688.067,5.314.313,7.921.56l-1.408-2.477h-.549c-.352-.014-.697,0-1.045,0-.489,0-.971-.007-1.45,0-.482-.007-.89,0-1.383,0-.26,0-.507-.007-.76,0-.285-.007-.556,0-.831,0-.493,0-.989-.007-1.467,0-.479-.007-.89,0-1.38,0-.32-.007-.644,0-.975,0-.686,0-1.323.056-1.999.07-.788-.021-1.622-.07-2.439-.07-13.978,0-25.862,3.041-39.009,3.364-13.168-.32-25.101-3.364-39.093-3.364-.837,0-1.622.053-2.425.07-.679-.014-1.327-.07-2.016-.07-.296-.007-.591,0-.901,0-.489,0-.971-.007-1.45,0-.482-.007-.964,0-1.453,0-.253,0-.503-.007-.76,0-.253-.007-.5,0-.76,0-.489,0-.989-.007-1.467,0-.479-.007-.961,0-1.45,0-.327-.007-.64,0-.975,0-.7,0-1.38.056-2.069.07-.781-.021-1.541-.07-2.354-.07-13.978,0-25.939,3.044-39.093,3.364-13.161-.324-25.101-3.364-39.079-3.364-.82,0-1.619.053-2.425.07-.669-.014-1.334-.07-2.016-.07-.32-.014-.637,0-.971,0-.489,0-.971-.007-1.453,0-.479-.007-.975,0-1.464,0-.26,0-.507-.007-.76,0-.253-.007-.5,0-.764,0-.489,0-.971-.007-1.45,0-.482-.007-.964,0-1.453,0-.327-.007-.644,0-.971,0-.686,0-1.337.056-2.016.07-.806-.021-1.605-.07-2.421-.07-13.981,0-25.869,3.044-39.009,3.364-13.161-.324-25.045-3.364-39.023-3.364-.82,0-1.643.053-2.425.07-.676-.014-1.33-.07-2.016-.07-.352-.014-.697,0-1.042,0-.493,0-.971-.007-1.453,0-.479-.007-.89,0-1.38,0-.264,0-.507-.007-.76,0-.282-.007-.556,0-.834,0-.489,0-.985-.007-1.464,0-.479-.007-.894,0-1.383,0-.299-.007-.591,0-.901,0-.704,0-1.38.056-2.073.07-.778-.021-1.541-.07-2.354-.07-13.992,0-25.922,3.044-39.093,3.364-13.158-.324-25.098-3.364-39.079-3.364-.816,0-1.633.053-2.435.07-.679-.014-1.316-.07-2.002-.07-.296-.007-.588,0-.901,0-.51,0-1.024-.007-1.524,0-.479-.007-.975,0-1.464,0-.257,0-.507-.007-.764,0-.229-.007-.447,0-.69,0-.507,0-1.024-.007-1.52,0-.482-.007-.964,0-1.453,0h-.971,0ZM1598.703,1254.691l-1.422,2.523c3.054-.319,6.119-.52,9.188-.602,13.158.324,25.101,3.438,39.093,3.438.978,0,1.89-.046,2.833-.07.116-.007.236.004.352,0,.398.007.831.056,1.239.07.359,0,.697.007,1.045,0,.489,0,.915.007,1.394,0,.482.007.964,0,1.453,0,.264,0,.507.007.76,0,.274.007.563,0,.831,0,.493,0,.901.007,1.383,0,.482.007.961,0,1.45,0h.904c.412-.014.831-.063,1.253-.07h.338c.943.025,1.869.07,2.847.07,13.978,0,25.935-3.111,39.093-3.438,13.165.324,25.168,3.438,39.15,3.438.978,0,1.904-.046,2.847-.07.116-.007.222.004.338,0,.426.007.841.056,1.256.07h.901c.489,0,.971.007,1.453,0,.479.007.961,0,1.45,0,.253,0,.503.007.76,0,.257.007.5,0,.764,0,.489,0,.985.007,1.464,0,.479.007.964,0,1.45,0h.975c.422-.014.831-.063,1.239-.07h.352c.943.025,1.872.07,2.847.07,13.981,0,25.865-3.111,39.009-3.438,13.154.324,25.045,3.438,39.023,3.438.957,0,1.914-.046,2.833-.07.137-.007.285.004.422,0,.387.007.785.056,1.186.07.348,0,.686.007,1.028,0,.493,0,.971.007,1.453,0,.479.007.904,0,1.394,0,.26,0,.51.007.76,0,.285.007.556,0,.834,0,.489,0,.971.007,1.45,0,.479.007.904,0,1.397,0h.957c.391-.014.785-.063,1.182-.07h.408c.926.025,1.893.07,2.847.07,13.981,0,25.928-3.111,39.093-3.438,13.168.32,25.094,3.438,39.079,3.438.982,0,1.904-.046,2.847-.07.116-.007.225.004.341,0,.422.007.837.056,1.253.07h.901c.493,0,.971.007,1.453,0,.479.007.961,0,1.45,0,.257,0,.521.007.774,0,.257.007.496,0,.764,0,.489,0,.971.007,1.45,0,.479.007.961,0,1.453,0h.971c.422-.014.841-.063,1.253-.07h.341c.943.025,1.869.07,2.843.07,13.981,0,25.869-3.111,39.009-3.438,3.611.088,7.147.415,10.642.802l-1.506-2.664c-.391.014-.778-.011-1.158,0-.676-.014-1.327-.06-2.013-.06-.352-.011-.697,0-1.045,0-.489,0-.971-.007-1.45,0-.482-.007-.89,0-1.383,0-.26,0-.507-.007-.76,0-.285-.007-.556,0-.831,0-.493,0-.989-.007-1.467,0-.479-.007-.89,0-1.38,0h-.975c-.686,0-1.323.046-1.999.06-.788-.021-1.622-.06-2.439-.06-13.978,0-25.862,3.044-39.009,3.368-13.168-.324-25.101-3.368-39.093-3.368-.837,0-1.622.039-2.425.06-.679-.014-1.327-.06-2.016-.06-.296-.007-.591,0-.901,0-.489,0-.971-.007-1.45,0-.482-.007-.964,0-1.453,0-.253,0-.503-.007-.76,0-.253-.007-.5,0-.76,0-.489,0-.989-.007-1.467,0-.479-.007-.961,0-1.45,0h-.975c-.7,0-1.38.046-2.069.06-.781-.021-1.541-.06-2.354-.06-13.978,0-25.939,3.044-39.093,3.368-13.161-.324-25.101-3.368-39.079-3.368-.82,0-1.619.042-2.425.06-.669-.014-1.334-.06-2.016-.06-.32-.011-.637,0-.971,0-.489,0-.971-.007-1.453,0-.479-.007-.975,0-1.464,0-.26,0-.507-.007-.76,0-.253-.007-.5,0-.764,0-.489,0-.971-.007-1.45,0-.482-.007-.964,0-1.453,0h-.971c-.686,0-1.337.046-2.016.06-.806-.021-1.605-.06-2.421-.06-13.981,0-25.869,3.044-39.009,3.368-13.161-.324-25.045-3.368-39.023-3.368-.82,0-1.643.042-2.425.06-.676-.014-1.33-.06-2.016-.06-.352-.011-.697,0-1.042,0-.493,0-.971-.007-1.453,0-.479-.007-.89,0-1.38,0-.264,0-.507-.007-.76,0-.282-.007-.556,0-.834,0-.489,0-.985-.007-1.464,0-.479-.007-.894,0-1.383,0h-.901c-.704,0-1.38.046-2.073.06-.778-.021-1.541-.06-2.354-.06-13.992,0-25.922,3.044-39.093,3.368-13.158-.324-25.098-3.368-39.079-3.368-.816,0-1.633.039-2.435.06-.679-.014-1.316-.06-2.002-.06-.296-.007-.588,0-.901,0-.51,0-1.024-.007-1.524,0-.479-.007-.975,0-1.464,0-.257,0-.507-.007-.764,0-.229-.007-.447,0-.69,0-.507,0-1.024-.007-1.52,0-.482-.007-.964,0-1.453,0h-.971c-.7,0-1.383.046-2.073.06-.774-.021-1.548-.06-2.354-.06h-.014,0ZM1598.703,1259.22c-.883,0-1.735.046-2.608.07l-1.619,2.882c3.927-.454,7.914-.862,11.993-.961,13.158.324,25.101,3.368,39.093,3.368.978,0,1.89-.049,2.833-.074.116-.004.236.007.352,0,.398.007.831.063,1.239.074.359,0,.697.007,1.045,0,.489,0,.901.007,1.38,0,.482.007.975,0,1.467,0,.264,0,.507.007.76,0,.274.007.563,0,.831,0,.493,0,.901.007,1.383,0,.479.007.961,0,1.45,0h.904c.412-.014.831-.067,1.253-.074h.338c.943.028,1.869.074,2.847.074,13.978,0,25.922-3.044,39.079-3.368,13.165.324,25.182,3.368,39.164,3.368.978,0,1.904-.049,2.847-.074.116-.004.225.007.338,0,.426.007.841.063,1.256.074h.901c.489,0,.971.007,1.453,0,.479.007.961,0,1.45,0,.253,0,.503.007.76,0,.253.007.5,0,.764,0,.489,0,.985.007,1.464,0,.479.007.964,0,1.45,0h.975c.422-.014.831-.067,1.239-.074h.352c.943.028,1.872.074,2.847.074,13.981,0,25.865-3.044,39.009-3.368,13.154.324,25.045,3.368,39.023,3.368.957,0,1.914-.049,2.833-.074.137-.004.285.007.422,0,.387.007.785.063,1.186.074.348,0,.686.007,1.028,0,.493,0,.971.007,1.453,0,.479.007.904,0,1.394,0,.26,0,.51.007.76,0,.285.007.556,0,.834,0,.489,0,.971.007,1.45,0,.479.007.894,0,1.383,0h.971c.391-.014.785-.067,1.182-.074h.408c.926.028,1.893.074,2.847.074,13.981,0,25.928-3.044,39.093-3.368,13.168.32,25.094,3.368,39.079,3.368.982,0,1.904-.049,2.847-.074.116-.004.225.007.341,0,.422.007.837.063,1.253.074h.901c.493,0,.971.007,1.453,0,.479.007.961,0,1.45,0,.257,0,.521.007.774,0,.253.007.496,0,.764,0,.489,0,.971.007,1.45,0,.479.007.961,0,1.453,0h.971c.422-.014.841-.067,1.253-.074h.341c.943.028,1.869.074,2.843.074,13.978,0,25.869-3.044,39.009-3.368,4.564.113,9.005.563,13.418,1.087l-1.721-3.009c-.433-.011-.855-.07-1.295-.07-.816,0-1.636.053-2.425.07-.676-.011-1.327-.07-2.013-.07-.352-.011-.683,0-1.031,0-.489,0-.985-.007-1.464,0-.482-.007-.89,0-1.383,0-.26,0-.507-.007-.76,0-.285-.007-.556,0-.831,0-.493,0-.971-.007-1.453,0-.479-.007-.904,0-1.394,0h-.975c-.686,0-1.323.056-1.999.07-.788-.018-1.622-.07-2.439-.07-13.978,0-25.862,3.041-39.009,3.368-13.168-.324-25.098-3.368-39.093-3.368-.834,0-1.622.053-2.425.07-.679-.011-1.313-.07-2.002-.07-.296-.011-.591,0-.901,0-.489,0-.985-.007-1.464,0-.482-.007-.964,0-1.453,0-.253,0-.503-.007-.76,0-.253-.007-.5,0-.76,0-.493,0-.975-.007-1.453,0-.479-.007-.975,0-1.464,0h-.961c-.7,0-1.394.056-2.083.07-.781-.018-1.541-.07-2.354-.07-13.978,0-25.939,3.041-39.093,3.368-13.161-.327-25.101-3.368-39.079-3.368-.82,0-1.619.053-2.425.07-.669-.011-1.334-.07-2.016-.07-.32-.011-.637,0-.971,0-.489,0-.971-.007-1.453,0-.479-.007-.961,0-1.45,0-.26,0-.521-.007-.774,0-.253-.007-.5,0-.764,0-.489,0-.968-.007-1.45,0-.479-.007-.961,0-1.453,0h-.971c-.686,0-1.337.056-2.016.07-.806-.018-1.605-.07-2.421-.07-13.981,0-25.869,3.041-39.009,3.368-13.161-.327-25.045-3.368-39.023-3.368-.82,0-1.64.053-2.425.07-.679-.011-1.33-.07-2.016-.07-.352-.011-.697,0-1.042,0-.493,0-.971-.007-1.453,0-.479-.007-.89,0-1.38,0-.264,0-.507-.007-.76,0-.282-.007-.556,0-.834,0-.489,0-.985-.007-1.464,0-.479-.007-.89,0-1.383,0h-.901c-.704,0-1.38.056-2.073.07-.778-.018-1.541-.07-2.354-.07-13.992,0-25.922,3.044-39.093,3.368-13.158-.327-25.112-3.368-39.093-3.368-.816,0-1.619.053-2.421.07-.676-.011-1.316-.07-2.002-.07-.296-.011-.588,0-.901,0-.51,0-1.024-.007-1.524,0-.479-.007-.975,0-1.464,0-.257,0-.503-.007-.764,0-.229-.007-.447,0-.69,0-.507,0-1.024-.007-1.52,0-.482-.007-.964,0-1.453,0h-.971c-.7,0-1.394.056-2.087.07-.774-.018-1.541-.07-2.354-.07h0ZM1598.703,1263.749c-1.777,0-3.494.056-5.212.141l-1.791,3.153c4.849-.598,9.723-1.179,14.769-1.302,13.158.324,25.101,3.364,39.093,3.364.978,0,1.89-.046,2.833-.07h.352c.398.007.831.06,1.239.07.359,0,.697.007,1.045,0,.489,0,.915.007,1.394,0,.482.007.961,0,1.453,0,.264,0,.507.007.76,0,.274.007.563,0,.831,0,.493,0,.901.007,1.383,0,.479.007.961,0,1.45,0,.303.007.595,0,.904,0,.412-.011.831-.063,1.253-.07h.338c.943.028,1.869.07,2.847.07,13.978,0,25.935-3.044,39.093-3.364,13.165.324,25.168,3.364,39.15,3.364.978,0,1.904-.046,2.847-.07h.338c.426.007.841.06,1.256.07.31,0,.598.007.901,0,.489,0,.971.007,1.453,0,.479.007.961,0,1.45,0,.253,0,.503.007.76,0,.253.007.514,0,.774,0,.493,0,.975.007,1.453,0,.479.007.964,0,1.45,0,.327.007.64,0,.975,0,.422-.011.831-.063,1.239-.07h.352c.943.028,1.872.07,2.847.07,13.981,0,25.865-3.044,39.009-3.364,13.154.324,25.045,3.364,39.023,3.364.957,0,1.914-.049,2.833-.07h.422c.387.007.785.06,1.186.07.348,0,.686.007,1.028,0,.493,0,.985.007,1.467,0,.479.007.89,0,1.38,0,.26,0,.51.007.76,0,.285.007.556,0,.834,0,.489,0,.971.007,1.45,0,.479.007.908,0,1.397,0,.317.007.63,0,.957,0,.391-.011.785-.063,1.182-.07h.422c.926.025,1.879.07,2.833.07,13.981,0,25.928-3.044,39.093-3.364,13.168.32,25.094,3.364,39.079,3.364.982,0,1.904-.046,2.847-.07h.355c.422.007.823.06,1.239.07.31,0,.598.007.901,0,.493,0,.971.007,1.453,0,.479.007.975,0,1.464,0,.257,0,.507.007.76,0,.253.007.496,0,.764,0,.489,0,.971.007,1.45,0,.479.007.961,0,1.453,0,.324.007.637,0,.971,0,.422-.011.841-.063,1.253-.07h.341c.943.028,1.869.07,2.843.07,13.978,0,25.869-3.044,39.009-3.364,5.518.137,10.853.767,16.181,1.432l-1.862-3.283c-1.299-.049-2.579-.141-3.917-.141-.816,0-1.636.053-2.425.07-.676-.014-1.327-.07-2.013-.07-.352-.011-.683,0-1.031,0-.489,0-.985-.007-1.464,0-.482-.007-.89,0-1.383,0-.26,0-.507-.007-.76,0-.285-.007-.556,0-.831,0-.493,0-.971-.007-1.453,0-.479-.007-.904,0-1.394,0-.32-.007-.644,0-.975,0-.686,0-1.323.056-1.999.07-.788-.021-1.622-.07-2.439-.07-14.125,0-26.118,3.097-39.431,3.364-13.003-.377-24.827-3.364-38.671-3.364-.834,0-1.622.053-2.425.07-.679-.014-1.313-.07-2.002-.07-.296-.011-.591,0-.901,0-.489,0-.985-.007-1.464,0-.482-.007-.964,0-1.453,0-.253,0-.503-.007-.76,0-.253-.007-.5,0-.76,0-.493,0-.975-.007-1.453,0-.479-.007-.975,0-1.464,0-.327-.007-.626,0-.961,0-.7,0-1.394.056-2.083.07-.781-.021-1.541-.07-2.354-.07-13.978,0-25.939,3.041-39.093,3.364-13.161-.324-25.101-3.364-39.079-3.364-.82,0-1.619.053-2.425.07-.669-.014-1.334-.07-2.016-.07-.32-.011-.637,0-.971,0-.489,0-.971-.007-1.453,0-.479-.007-.961,0-1.45,0-.26,0-.521-.007-.774,0-.253-.007-.5,0-.764,0-.489,0-.968-.007-1.45,0-.479-.007-.961,0-1.453,0-.327-.007-.644,0-.971,0-.686,0-1.337.056-2.016.07-.806-.021-1.605-.07-2.421-.07-13.981,0-25.869,3.041-39.009,3.364-13.161-.324-25.045-3.364-39.023-3.364-.82,0-1.64.053-2.425.07-.679-.014-1.33-.07-2.016-.07-.352-.011-.697,0-1.042,0-.493,0-.971-.007-1.453,0-.479-.007-.89,0-1.38,0-.264,0-.507-.007-.76,0-.282-.007-.556,0-.834,0-.489,0-.985-.007-1.464,0-.479-.007-.89,0-1.383,0-.299-.007-.591,0-.901,0-.704,0-1.38.056-2.073.07-.778-.021-1.541-.07-2.354-.07-13.84,0-25.665,2.991-38.667,3.364-13.323-.267-25.39-3.364-39.519-3.364-.816,0-1.619.053-2.421.07-.676-.014-1.316-.07-2.002-.07-.296-.011-.588,0-.901,0-.51,0-1.024-.007-1.524,0-.479-.007-.975,0-1.464,0-.257,0-.503-.007-.764,0-.229-.007-.447,0-.69,0-.507,0-1.024-.007-1.52,0-.482-.007-.964,0-1.453,0-.324-.007-.637,0-.971,0-.7,0-1.394.056-2.087.07-.774-.021-1.541-.07-2.354-.07h0ZM1598.703,1268.275c-2.717,0-5.307.158-7.89.345l-1.833,3.223c5.764-.728,11.504-1.425,17.49-1.577,13.158.327,25.101,3.368,39.093,3.368.978,0,1.89-.032,2.833-.056h.352c.398.004.831.046,1.239.056h9.22c.412-.014.831-.049,1.253-.056h.338c.943.025,1.869.056,2.847.056,13.978,0,25.935-3.041,39.093-3.368,13.165.327,25.168,3.368,39.15,3.368.978,0,1.904-.032,2.847-.056h.338c.426.004.841.042,1.256.056h9.216c.422-.014.831-.049,1.239-.056h.352c.943.025,1.872.056,2.847.056,13.981,0,25.865-3.041,39.009-3.368,13.154.327,25.045,3.368,39.023,3.368.957,0,1.914-.035,2.833-.056h.422c.387.004.785.046,1.186.056h9.273c.391-.014.785-.049,1.182-.056h.422c.926.021,1.879.056,2.833.056,13.981,0,25.928-3.041,39.093-3.368,13.168.324,25.094,3.368,39.079,3.368.982,0,1.904-.032,2.847-.056h.355c.422.004.823.042,1.239.056h9.216c.422-.014.841-.049,1.253-.056h.341c.943.025,1.869.056,2.843.056,13.978,0,25.869-3.041,39.009-3.368,6.472.162,12.686.989,18.957,1.777l-1.988-3.48c-2.154-.134-4.314-.289-6.567-.289-.816,0-1.636.056-2.425.074-.676-.014-1.327-.074-2.013-.074-.352-.011-.697,0-1.045,0h-8.245c-.686,0-1.323.063-1.999.074-.788-.021-1.622-.074-2.439-.074-13.978,0-25.862,3.041-39.009,3.368-13.168-.324-25.098-3.368-39.093-3.368-.834,0-1.622.056-2.425.074-.679-.014-1.327-.074-2.016-.074-.296-.007-.591,0-.901,0h-8.315c-.7,0-1.38.063-2.069.074-.781-.021-1.541-.074-2.354-.074-13.978,0-25.939,3.044-39.093,3.368-13.161-.324-25.101-3.368-39.079-3.368-.82,0-1.619.056-2.425.074-.669-.014-1.334-.074-2.016-.074-.32-.011-.637,0-.971,0h-8.315c-.686,0-1.337.063-2.016.074-.806-.021-1.605-.074-2.421-.074-13.981,0-25.883,3.044-39.023,3.368-13.161-.324-25.031-3.368-39.009-3.368-.82,0-1.64.056-2.425.074-.679-.014-1.33-.074-2.016-.074-.352-.011-.697,0-1.042,0h-8.175c-.704,0-1.38.063-2.073.074-.778-.021-1.555-.074-2.365-.074-13.995,0-25.914,3.044-39.083,3.368-13.158-.327-25.112-3.368-39.093-3.368-.816,0-1.619.056-2.421.074-.676-.014-1.33-.074-2.016-.074-.296-.007-.574,0-.887,0h-8.386c-.7,0-1.394.063-2.087.074-.771-.018-1.541-.074-2.354-.074h0ZM1598.703,1272.818c-3.663,0-7.147.229-10.582.545l-1.918,3.354c6.711-.838,13.323-1.735,20.266-1.907,13.158.324,25.101,3.354,39.093,3.354.978,0,1.89-.035,2.833-.056.116-.007.236.004.352,0,.398.004.831.042,1.239.056.359,0,.697.007,1.045,0,.489,0,.901.007,1.38,0,.482.007.975,0,1.467,0,.264,0,.507.007.76,0,.274.007.563,0,.831,0,.493,0,.901.007,1.383,0,.479.007.961,0,1.45,0h.904c.412-.014.831-.053,1.253-.056h.338c.943.021,1.869.056,2.847.056,13.978,0,25.922-3.03,39.079-3.354,13.165.324,25.182,3.354,39.164,3.354.978,0,1.904-.035,2.847-.056.116-.007.225.004.338,0,.426.004.841.042,1.256.056h.901c.489,0,.971.007,1.453,0,.479.007.961,0,1.45,0,.253,0,.503.007.76,0,.253.007.5,0,.764,0,.489,0,.985.007,1.464,0,.479.007.964,0,1.45,0h.975c.422-.014.831-.053,1.239-.056h.352c.943.021,1.872.056,2.847.056,13.981,0,25.865-3.03,39.009-3.354,13.154.324,25.045,3.354,39.023,3.354.957,0,1.914-.035,2.833-.056.137-.007.285.004.422,0,.387.004.785.042,1.186.056.348,0,.686.007,1.028,0,.493,0,.971.007,1.453,0,.479.007.904,0,1.394,0,.26,0,.51.007.76,0,.285.007.556,0,.834,0,.489,0,.971.007,1.45,0,.479.007.894,0,1.383,0h.971c.391-.014.785-.053,1.182-.056h.408c.926.021,1.893.056,2.847.056,13.981,0,25.928-3.03,39.093-3.354,13.168.32,25.094,3.354,39.079,3.354.982,0,1.904-.035,2.847-.056.116-.007.225.004.341,0,.422.004.837.042,1.253.056h.901c.493,0,.971.007,1.453,0,.479.007.961,0,1.45,0,.257,0,.521.007.774,0,.253.007.496,0,.764,0,.489,0,.971.007,1.45,0,.479.007.961,0,1.453,0h.971c.422-.014.841-.053,1.253-.056h.341c.943.021,1.869.056,2.843.056,13.978,0,25.869-3.03,39.009-3.354,7.422.183,14.485,1.228,21.72,2.108l-2.101-3.699c-3.065-.26-6.14-.394-9.216-.401-.816,0-1.636.053-2.425.07-.676-.011-1.327-.07-2.013-.07-.352-.011-.697,0-1.045,0-.489,0-.971-.007-1.45,0-.482-.007-.89,0-1.383,0-.26,0-.507-.007-.76,0-.285-.007-.556,0-.831,0-.493,0-.989-.007-1.467,0-.479-.007-.89,0-1.38,0h-.975c-.686,0-1.323.06-1.999.07-.788-.018-1.622-.07-2.439-.07-13.978,0-25.862,3.044-39.009,3.368-13.168-.324-25.098-3.368-39.093-3.368-.834,0-1.622.053-2.425.07-.679-.011-1.327-.07-2.016-.07-.296-.007-.591,0-.901,0-.489,0-.971-.007-1.45,0-.482-.007-.964,0-1.453,0-.253,0-.503-.007-.76,0-.253-.007-.5,0-.76,0-.493,0-.989-.007-1.467,0-.479-.007-.961,0-1.45,0h-.975c-.7,0-1.38.06-2.069.07-.781-.018-1.541-.07-2.354-.07-13.978,0-25.939,3.044-39.093,3.368-13.161-.324-25.101-3.368-39.079-3.368-.82,0-1.619.053-2.425.07-.669-.011-1.334-.07-2.016-.07-.32-.011-.637,0-.971,0-.489,0-.971-.007-1.453,0-.479-.007-.975,0-1.464,0-.26,0-.507-.007-.76,0-.253-.007-.5,0-.764,0-.489,0-.968-.007-1.45,0-.479-.007-.961,0-1.453,0h-.971c-.686,0-1.337.06-2.016.07-.806-.018-1.605-.07-2.421-.07-13.981,0-25.883,3.044-39.023,3.368-13.161-.324-25.031-3.368-39.009-3.368-.82,0-1.64.053-2.425.07-.679-.011-1.33-.07-2.016-.07-.352-.011-.697,0-1.042,0-.493,0-.971-.007-1.453,0-.479-.007-.89,0-1.38,0-.264,0-.521-.007-.774,0-.282-.007-.542,0-.82,0-.489,0-.985-.007-1.464,0-.479-.007-.89,0-1.383,0h-.901c-.704,0-1.38.06-2.073.07-.778-.018-1.555-.07-2.365-.07-13.995,0-25.914,3.044-39.083,3.368-13.158-.327-25.112-3.368-39.093-3.368-.816,0-1.619.053-2.421.07-.676-.011-1.33-.07-2.016-.07-.296-.007-.574,0-.887,0-.51,0-1.038-.007-1.538,0-.479-.007-.961,0-1.45,0-.257,0-.503-.007-.764,0-.229-.007-.447,0-.69,0-.507,0-1.024-.007-1.52,0-.482-.007-.978,0-1.467,0h-.957c-.7,0-1.394.06-2.087.07-.771-.018-1.541-.07-2.354-.07h0ZM1598.703,1277.347c-4.631,0-9.019.373-13.316.83l-1.946,3.41c7.686-.908,15.139-2.055,23.029-2.249,13.158.324,25.101,3.368,39.093,3.368.978,0,1.89-.049,2.833-.074h.352c.398.007.831.06,1.239.074h9.22c.412-.014.831-.067,1.253-.074h.338c.943.028,1.869.074,2.847.074,13.978,0,25.922-3.044,39.079-3.368,13.165.324,25.182,3.368,39.164,3.368.978,0,1.904-.049,2.847-.074h.338c.426.007.841.06,1.256.074h9.216c.422-.014.831-.067,1.239-.074h.352c.943.028,1.872.074,2.847.074,13.981,0,25.865-3.044,39.009-3.368,13.154.324,25.045,3.368,39.023,3.368.957,0,1.914-.049,2.833-.074h.422c.387.007.785.06,1.186.074h9.273c.391-.014.785-.067,1.182-.074h.408c.926.028,1.893.074,2.847.074,13.981,0,25.928-3.044,39.093-3.368,13.168.32,25.094,3.368,39.079,3.368.982,0,1.904-.049,2.847-.074h.341c.422.007.837.06,1.253.074h9.216c.422-.014.841-.067,1.253-.074h.341c.943.028,1.869.074,2.843.074,13.978,0,25.869-3.044,39.009-3.368,8.375.204,16.265,1.541,24.496,2.463l-2.157-3.783c-3.965-.423-7.949-.647-11.937-.672-.816,0-1.64.049-2.425.07-.676-.014-1.334-.07-2.013-.07-.352-.011-.683,0-1.031,0-.489,0-.985-.007-1.464,0-.482-.007-.89,0-1.383,0-.26,0-.507-.007-.76,0-.282-.007-.556,0-.831,0-.493,0-.971-.007-1.453,0-.479-.007-.904,0-1.394,0-.32-.007-.644,0-.975,0-.686,0-1.323.056-1.999.07-.788-.021-1.608-.07-2.425-.07-13.978,0-25.876,3.041-39.023,3.368-13.168-.324-25.087-3.368-39.079-3.368-.837,0-1.636.049-2.439.07-.679-.014-1.313-.07-2.002-.07-.296-.011-.591,0-.901,0-.489,0-.971-.007-1.45,0-.482-.007-.978,0-1.467,0-.253,0-.503-.007-.76,0-.253-.007-.496,0-.76,0-.489,0-.975-.007-1.453,0-.479-.007-.961,0-1.45,0-.327-.007-.64,0-.975,0-.697,0-1.394.056-2.083.07-.781-.021-1.541-.07-2.354-.07-13.978,0-25.939,3.041-39.093,3.368-13.161-.327-25.101-3.368-39.079-3.368-.82,0-1.615.049-2.425.07-.669-.014-1.334-.07-2.016-.07-.32-.011-.637,0-.971,0-.489,0-.971-.007-1.453,0-.479-.007-.961,0-1.45,0-.26,0-.507-.007-.76,0-.253-.007-.5,0-.764,0-.489,0-.985-.007-1.464,0-.482-.007-.964,0-1.453,0-.327-.007-.644,0-.971,0-.686,0-1.323.056-2.002.07-.806-.021-1.622-.07-2.435-.07-13.981,0-25.869,3.041-39.009,3.368-13.158-.327-25.045-3.368-39.023-3.368-.82,0-1.643.049-2.425.07-.676-.014-1.33-.07-2.016-.07-.352-.011-.683,0-1.028,0-.493,0-.985-.007-1.467,0-.479-.007-.89,0-1.38,0-.264,0-.51-.007-.76,0-.282-.007-.552,0-.834,0-.489,0-.971-.007-1.45,0-.479-.007-.894,0-1.383,0-.299-.007-.591,0-.901,0-.704,0-1.394.056-2.087.07-.778-.021-1.541-.07-2.354-.07-13.992,0-25.925,3.044-39.093,3.368-13.158-.327-25.098-3.368-39.079-3.368-.816,0-1.619.049-2.421.07-.679-.014-1.33-.07-2.016-.07-.296-.011-.588,0-.901,0-.51,0-1.024-.007-1.524,0-.479-.007-.961,0-1.45,0-.257,0-.507-.007-.764,0-.229-.007-.461,0-.704,0-.507,0-1.021-.007-1.52,0-.482-.007-.964,0-1.453,0-.324-.007-.637,0-.971,0-.7,0-1.383.056-2.073.07-.781-.021-1.555-.07-2.368-.07h0ZM1598.703,1281.872c-5.609,0-10.895.482-16.05,1.091l-1.974,3.494c8.692-.918,16.958-2.372,25.791-2.594,13.158.327,25.101,3.368,39.093,3.368.978,0,1.89-.046,2.833-.07h.352c.398.007.831.06,1.239.07.359,0,.697.007,1.045,0,.489,0,.901.007,1.38,0,.482.007.978,0,1.467,0,.264,0,.507.007.76,0,.274.007.563,0,.831,0,.493,0,.901.007,1.383,0,.482.007.961,0,1.45,0,.303.007.595,0,.904,0,.412-.011.831-.063,1.253-.07h.338c.943.025,1.869.07,2.847.07,13.978,0,25.922-3.044,39.079-3.368,13.165.327,25.182,3.368,39.164,3.368.978,0,1.904-.046,2.847-.07h.338c.426.007.841.06,1.256.07.31,0,.598.007.901,0,.489,0,.971.007,1.453,0,.479.007.961,0,1.45,0,.253,0,.503.007.76,0,.257.007.5,0,.764,0,.489,0,.985.007,1.464,0,.479.007.964,0,1.45,0,.327.007.64,0,.975,0,.422-.011.831-.063,1.239-.07h.352c.943.025,1.858.07,2.833.07,13.981,0,25.879-3.044,39.023-3.368,13.154.327,25.045,3.368,39.023,3.368.957,0,1.914-.049,2.833-.07h.422c.387.007.771.06,1.172.07.348,0,.7.007,1.042,0,.493,0,.971.007,1.453,0,.479.007.904,0,1.394,0,.26,0,.51.007.76,0,.285.007.556,0,.834,0,.489,0,.971.007,1.45,0,.479.007.89,0,1.383,0,.313.007.644,0,.971,0,.391-.011.785-.063,1.182-.07h.408c.926.025,1.893.07,2.847.07,13.981,0,25.928-3.044,39.093-3.368,13.168.324,25.094,3.368,39.079,3.368.982,0,1.904-.046,2.847-.07h.341c.422.007.837.06,1.253.07.31,0,.598.007.901,0,.493,0,.971.007,1.453,0,.479.007.961,0,1.45,0,.257,0,.503.007.76,0,.257.007.51,0,.778,0,.489,0,.971.007,1.45,0,.479.007.961,0,1.453,0,.324.007.637,0,.971,0,.422-.011.827-.063,1.239-.07h.355c.943.025,1.869.07,2.843.07,13.981,0,25.869-3.044,39.009-3.368,9.294.232,17.982,1.826,27.216,2.738l-2.143-3.783c-4.719-.531-9.558-.947-14.671-.947-.816,0-1.64.056-2.425.074-.676-.014-1.33-.074-2.013-.074-.352-.011-.683,0-1.031,0h-8.259c-.686,0-1.323.06-1.999.074-.788-.021-1.622-.074-2.439-.074-13.978,0-25.862,3.044-39.009,3.368-13.168-.324-25.101-3.368-39.093-3.368-.837,0-1.622.056-2.425.074-.679-.014-1.313-.074-2.002-.074-.296-.007-.591,0-.901,0h-8.315c-.697,0-1.394.06-2.083.074-.781-.021-1.545-.074-2.354-.074-13.981,0-25.939,3.044-39.093,3.368-13.161-.324-25.101-3.368-39.079-3.368-.82,0-1.615.056-2.425.074-.669-.014-1.334-.074-2.016-.074-.32-.011-.637,0-.971,0h-8.316c-.686,0-1.337.06-2.016.074-.806-.021-1.608-.074-2.421-.074-13.981,0-25.869,3.044-39.009,3.368-13.158-.324-25.045-3.368-39.023-3.368-.82,0-1.643.056-2.425.074-.679-.014-1.33-.074-2.016-.074-.352-.011-.697,0-1.042,0h-8.175c-.704,0-1.38.06-2.073.074-.778-.021-1.541-.074-2.354-.074-13.992,0-25.922,3.044-39.093,3.368-13.154-.324-25.112-3.368-39.093-3.368-.816,0-1.619.056-2.421.074-.679-.014-1.316-.074-2.002-.074-.296-.007-.588,0-.901,0h-8.386c-.7,0-1.397.06-2.087.074-.774-.018-1.541-.074-2.354-.074h0ZM1598.703,1286.401c-6.619,0-12.771.679-18.813,1.432l-1.946,3.442c9.723-.88,18.767-2.639,28.526-2.882,13.158.327,25.101,3.368,39.093,3.368.978,0,1.89-.032,2.833-.056.116-.007.236.004.352,0,.398.004.831.046,1.239.056h9.22c.412-.014.831-.049,1.253-.056h.338c.943.025,1.869.056,2.847.056,13.978,0,25.922-3.041,39.079-3.368,13.165.327,25.182,3.368,39.164,3.368.978,0,1.904-.032,2.847-.056.116-.007.225.004.338,0,.426.004.841.042,1.256.056h9.216c.422-.014.831-.049,1.239-.056h.352c.943.025,1.872.056,2.847.056,13.981,0,25.865-3.041,39.009-3.368,13.154.327,25.045,3.368,39.023,3.368.957,0,1.914-.035,2.833-.056.137-.007.285.004.422,0,.387.004.785.046,1.186.056h9.273c.391-.014.785-.049,1.182-.056h.408c.926.021,1.893.056,2.847.056,13.981,0,25.928-3.041,39.093-3.368,13.168.324,25.094,3.368,39.079,3.368.982,0,1.904-.032,2.847-.056.116-.007.225.004.341,0,.422.004.837.042,1.253.056h9.216c.422-.014.841-.049,1.253-.056h.341c.943.025,1.869.056,2.843.056,13.978,0,25.869-3.041,39.009-3.368,10.191.253,19.661,2.101,29.909,2.938l-2.059-3.625c-5.606-.686-11.324-1.306-17.448-1.306-.816,0-1.636.053-2.425.07-.676-.011-1.327-.07-2.013-.07-.352-.011-.683,0-1.031,0h-8.259c-.686,0-1.323.06-1.999.07-.788-.018-1.622-.07-2.439-.07-13.978,0-25.862,3.041-39.009,3.368-13.168-.324-25.101-3.368-39.093-3.368-.837,0-1.622.053-2.425.07-.679-.011-1.313-.07-2.002-.07-.296-.007-.591,0-.901,0h-8.315c-.7,0-1.394.06-2.083.07-.781-.018-1.541-.07-2.354-.07-13.978,0-25.939,3.044-39.093,3.368-13.161-.324-25.101-3.368-39.079-3.368-.82,0-1.619.053-2.425.07-.669-.011-1.334-.07-2.016-.07-.32-.011-.637,0-.971,0h-8.315c-.686,0-1.337.06-2.016.07-.806-.018-1.605-.07-2.421-.07-13.981,0-25.869,3.044-39.009,3.368-13.161-.324-25.045-3.368-39.023-3.368-.82,0-1.643.053-2.425.07-.676-.011-1.33-.07-2.016-.07-.352-.011-.697,0-1.042,0h-8.175c-.704,0-1.38.06-2.073.07-.778-.018-1.541-.07-2.354-.07-13.992,0-25.925,3.044-39.093,3.368-13.158-.327-25.098-3.368-39.079-3.368-.816,0-1.619.053-2.421.07-.679-.011-1.33-.07-2.016-.07-.296-.007-.588,0-.901,0h-8.386c-.7,0-1.383.06-2.073.07-.781-.014-1.555-.07-2.368-.07h0Z"/>
        <path class="cls-26" d="M1921.32,1189.223c-6.845,0-8.938,3.406-8.938,3.406-10.958,41.771-47.282,84.26-90.503,84.26h-32.358v42.535c0,.011.046,0,.067,0h246.268l-24.774-43.267c-38.875-5.722-70.638-44.921-80.755-83.528,0,0-2.164-3.406-9.005-3.406Z"/>
        <path class="cls-29" d="M1922.678,1189.223c-3.128,0-5.029.714-6.137,1.401-1.056.651-1.256,1.087-1.281,1.137,0,.025-.063.039-.07.067-5.585,20.991-17.367,42.077-33.252,58.008-16.008,16.05-36.19,26.935-58.276,26.935h-30.623v39.139h242.815l-22.663-39.67c-18.704-2.414-35.803-12.475-49.71-26.403-15.903-15.931-27.66-37.014-33.252-58.008l-.067-.067c-.028-.049-.278-.412-1.348-1.07-1.13-.69-3.009-1.467-6.137-1.467h0Z"/>
        <path class="cls-19" d="M1921.724,1189.451c.584,0,1.109.084,1.608.141.095,12.165,0,32.696,0,43.552-.113,9.438-3.294,17.029-7.981,25.971-2.171,6.267-3.913,3.882-9.326,11.521-7.267,2.639-12.644,3.663-20.386,4.906-9.994,1.605-32.231,3.026-43.203.545,14.449-4.304,27.625-13.182,38.773-24.676,2.985-3.076,5.806-6.306,8.453-9.677,4.454-5.694,8.447-11.734,11.94-18.063,1.399-2.503,2.719-5.05,3.959-7.636,1.838-3.874,3.494-7.831,4.962-11.859.493-1.334.971-2.685,1.408-4.022.887-2.675,1.658-5.36,2.351-8.045.007-.025.06-.042.067-.07.025-.046.229-.493,1.274-1.154.538-.345,1.316-.69,2.28-.957.021,0,.049.007.07,0,1.223-.326,2.485-.485,3.751-.475h0Z"/>
        <path class="cls-20" d="M1919.852,1196.493c-1.65,23.233-9.128,50.787-26.632,68.569-6.44,5.145-14.674,9.818-22.635,8.678,27.143-21.213,43.636-53.69,49.267-77.243v-.004Z"/>
        <path class="cls-25" d="M1898.759,1235.199c-4.237,11.367-20.256,28.181-37.401,41.961-4.867.148-7.446.422-11.866.158,10.445-.94,34.789-21.23,49.267-42.12h0Z"/>
        <path class="cls-4" d="M1868.773,1192.643c10.818,41.768,46.642,84.253,89.339,84.253h31.995v42.528c0,.011-.056,0-.067,0h-260.277c-.025,0-.067.011-.067,0v-42.528h31.928c42.697,0,78.577-42.486,89.405-84.253,0,0,2.111-3.42,8.872-3.42s8.872,3.42,8.872,3.42h0Z"/>
        <path class="cls-29" d="M1861.657,1189.223c3.1,0,4.962.778,6.081,1.467,1.063.658,1.313,1.021,1.337,1.07l.07.067c5.539,20.995,17.187,42.077,32.945,58.008,15.874,16.05,35.923,26.938,57.808,26.938h30.208v39.135h-256.891v-39.135h30.341c21.882,0,41.877-10.888,57.737-26.938,15.744-15.931,27.413-37.014,32.949-58.008.011-.028.06-.042.067-.067.025-.049.229-.482,1.27-1.137,1.101-.686,2.984-1.401,6.081-1.401h-.004Z"/>
        <path class="cls-19" d="M1861.918,1189.451c.584,0,1.112.084,1.612.141.091,12.165,0,32.696,0,43.552-.116,9.438-3.297,17.029-7.981,25.971-2.175,6.267-3.917,3.882-9.326,11.521-7.27,2.639-12.647,3.663-20.393,4.906-9.987,1.605-32.228,3.026-43.2.545,14.449-4.304,27.625-13.182,38.773-24.676,2.984-3.076,5.806-6.307,8.453-9.677,4.453-5.695,8.445-11.735,11.94-18.063,1.398-2.504,2.718-5.051,3.959-7.636,1.838-3.874,3.494-7.831,4.962-11.859.489-1.334.968-2.685,1.408-4.022.883-2.675,1.654-5.36,2.351-8.045.003-.025.06-.042.063-.07.028-.046.232-.493,1.274-1.154.538-.345,1.316-.69,2.284-.957.018,0,.049.007.067,0,1.225-.326,2.488-.485,3.755-.475Z"/>
        <path class="cls-20" d="M1856.516,1196.493c-1.534,23.233-8.481,50.787-24.739,68.569-5.975,5.145-13.619,9.818-21.009,8.678,25.196-21.213,40.515-53.69,45.748-77.243v-.004Z"/>
        <path class="cls-25" d="M1835.419,1235.199c-3.934,11.367-18.809,28.181-34.733,41.961-4.515.148-6.911.422-11.015.158,9.695-.94,32.305-21.23,45.748-42.12h0Z"/>
        <path class="cls-10" d="M1808.949,1192.643c10.818,41.768,46.642,84.253,89.335,84.253h31.999v42.528c0,.011-.056,0-.067,0h-260.277c-.025,0-.067.011-.067,0v-42.528h31.928c42.697,0,78.577-42.486,89.405-84.253,0,0,2.111-3.42,8.872-3.42s8.875,3.42,8.875,3.42h-.004Z"/>
        <path class="cls-29" d="M1800.077,1189.223c3.139,0,5.029.778,6.165,1.467,1.077.658,1.327,1.021,1.355,1.07l.067.067c5.616,20.995,17.426,42.077,33.4,58.008,16.096,16.05,36.415,26.938,58.599,26.938h30.619v39.135h-260.411v-39.135h30.757c22.184,0,42.45-10.888,58.533-26.938,15.955-15.931,27.786-37.014,33.396-58.008.014-.028.06-.042.067-.067.028-.049.232-.482,1.288-1.137,1.116-.686,3.023-1.401,6.165-1.401h0Z"/>
        <path class="cls-19" d="M1796.316,1189.339c-.326.061-.651.135-.971.222-.018.004-.053-.007-.07,0-.808.206-1.582.529-2.298.957-1.059.672-1.263,1.112-1.288,1.161-.007.028-.063.046-.07.074-.704,2.699-1.488,5.412-2.382,8.104-.443,1.348-.936,2.699-1.432,4.04-1.484,4.058-3.157,8.045-5.015,11.947-1.256,2.605-2.593,5.17-4.008,7.693-3.54,6.37-7.582,12.448-12.088,18.176-2.696,3.413-5.56,6.679-8.558,9.755-11.286,11.571-24.612,20.506-39.238,24.838,11.106,2.499,16.195-.229,26.305-1.841,7.841-1.253,16.913-2.287,24.271-4.944,5.479-7.689,3.611-5.279,5.81-11.588,4.744-9.005,11.669-17.141,13.39-27.128,6.503-12.267,7.643-34.972,7.643-41.465h0Z"/>
        <path class="cls-20" d="M1796.727,1196.493c-1.654,23.233-9.132,50.787-26.639,68.569-6.44,5.145-14.671,9.818-22.631,8.678,27.143-21.213,43.636-53.69,49.267-77.243l.004-.004Z"/>
        <path class="cls-25" d="M1775.444,1234.953c-3.938,11.367-18.813,28.184-34.733,41.961-4.518.148-6.911.422-11.015.158,9.695-.943,32.302-21.234,45.748-42.12h0Z"/>
        <path class="cls-12" d="M1747.489,1192.643c10.962,41.768,47.268,84.253,90.542,84.253h32.428v42.528c0,.011-.056,0-.067,0h-263.796c-.021,0-.067.011-.067,0v-42.528h32.361c43.274,0,79.636-42.486,90.612-84.253,0,0,2.143-3.42,8.995-3.42s8.991,3.42,8.991,3.42h0Z"/>
        <path class="cls-29" d="M1739.849,1189.223c-3.132,0-5.015.778-6.148,1.467-1.073.658-1.323,1.021-1.348,1.07l-.07.067c-5.599,20.995-17.37,42.077-33.29,58.008-16.047,16.05-36.306,26.938-58.42,26.938h-30.524v39.135h259.598l.813-39.135h-30.662c-22.114,0-43.13-10.888-59.159-26.938-15.906-15.927-27.702-37.014-33.294-58.008-.014-.028-.06-.039-.067-.067-.028-.046-.232-.482-1.284-1.133-1.112-.69-3.012-1.401-6.144-1.401v-.003Z"/>
        <path class="cls-5" d="M1732.81,1196.468c-2.47,35.317-22.649,79.879-45.431,87.558-7.429,2.506-20.425,3.375-24.95,3.938,39.861-18.479,63.414-61.911,70.381-91.496Z"/>
        <path class="cls-16" d="M1677.055,1189.223c-6.753,0-8.882,3.406-8.882,3.406-9.97,38.499-46.73,88.152-84.947,94.05l-18.925,32.745h242.748c.011,0,.067.011.067,0v-42.535h-31.999c-42.648,0-78.436-42.489-89.243-84.26,0,0-2.066-3.406-8.819-3.406Z"/>
        <path class="cls-29" d="M1677.333,1189.223c-3.132,0-5.011.778-6.144,1.467-1.073.658-1.323,1.021-1.348,1.07-.024.021-.048.044-.07.067-5.599,20.995-18.683,42.222-32.273,59.12-13.591,16.899-38.826,33.994-56.09,35.799l-17.106,29.162h242.815v-39.139h-30.655c-22.114,0-42.313-10.884-58.342-26.935-15.903-15.931-27.695-37.014-33.287-58.008-.007-.028-.063-.042-.067-.067-.028-.049-.232-.482-1.284-1.137-1.116-.686-3.016-1.401-6.148-1.401h0Z"/>
        <path class="cls-5" d="M1673.391,1196.264c-2.47,35.317-22.649,79.879-45.431,87.558-7.429,2.502-20.425,3.375-24.95,3.938,39.86-18.479,63.413-61.911,70.381-91.496Z"/>
        <path class="cls-19" d="M1678.233,1189.451c-.584,0-1.109.088-1.608.137-.095,12.12,0,32.569,0,43.383.116,9.396,3.297,16.958,7.981,25.869.271.778.538,1.418.806,1.967,1.626,4.36,2.829,5.873,9.055,10.659,19.791,15.206,44.326,17.483,58.761,16.226-4.522-3.611-9.357-6.89-13.615-9.913,6.788-.222,13.295-.999,17.908-2.038-14.446-4.286-27.621-13.13-38.77-24.577-1.927-2.017-3.784-4.101-5.567-6.246-.766-1.099-1.55-2.185-2.351-3.259-4.434-5.623-8.974-11.835-12.475-18.127-1.396-2.494-2.716-5.031-3.959-7.605-1.837-3.857-3.492-7.798-4.962-11.81-.489-1.33-.968-2.675-1.411-4.008-.868-2.645-1.651-5.318-2.347-8.013-.007-.025-.06-.039-.067-.067-.025-.046-.229-.489-1.274-1.154-.712-.422-1.479-.742-2.28-.95h-.067c-1.226-.326-2.49-.485-3.758-.475h0Z"/>
        <path class="cls-20" d="M1680.429,1196.271c1.65,23.229,9.128,50.784,26.636,68.565,6.44,5.148,14.671,9.818,22.631,8.682-27.139-21.213-43.636-53.694-49.267-77.247h0Z"/>
        <path class="cls-25" d="M1698.025,1227.929c9.273,23.328,32.766,45.121,56.935,59.768,4.501.141,5.835.014,9.927-.239-17.296-9.477-45.171-23.001-66.862-59.528h0Z"/>
        <path class="cls-19" d="M1803.695,1189.339c.018.007.049-.004.07,0,.94.271,1.689.612,2.217.957,1.024.669,1.221,1.105,1.246,1.154.007.028.063.046.07.07.679,2.692,1.436,5.391,2.298,8.073.429,1.341.904,2.689,1.383,4.022,1.429,4.005,3.033,7.988,4.846,11.894,1.212,2.592,2.503,5.147,3.871,7.661,3.411,6.331,7.318,12.383,11.683,18.099,2.601,3.399,5.37,6.651,8.266,9.713,10.902,11.525,23.778,22.015,37.907,26.33-28.117.113-40.314-2.548-50.534-16.237-10.219-13.693-13.992-19.682-16.068-28.047-2.076-8.361-7.858-26.562-7.256-43.689h0Z"/>
        <path class="cls-18" d="M1607.222,1298.324c-11.455,0-24.743,2.372-35.557,3.322l-24.961,42.419,250.578-.028,256.167.028-25.045-42.584c-10.346-1.013-23.219-3.157-34.195-3.157-1.066,0-2.069.035-3.104.067-.707-.014-1.499-.067-2.217-.067-.475,0-.883-.014-1.348,0-.465-.014-.926,0-1.404,0-.718,0-1.383.053-2.09.067-1.035-.032-2.024-.067-3.09-.067-14.333,0-26.46,3.706-40.093,3.706s-25.745-3.706-40.093-3.706c-1.066,0-2.069.035-3.1.067-.711-.014-1.362-.067-2.08-.067-.475,0-.95-.014-1.418,0-.465-.014-.929,0-1.404,0-.718,0-1.453.053-2.161.067-1.035-.032-2.024-.067-3.09-.067-14.33,0-26.446,3.706-40.093,3.706s-25.756-3.706-40.093-3.706c-1.063,0-2.126.035-3.157.067-.707-.014-1.372-.067-2.094-.067-.475,0-.936-.014-1.401,0-.468-.014-.943,0-1.418,0-.721,0-1.386.053-2.094.067-1.031-.032-2.094-.067-3.157-.067-14.333,0-26.393,3.706-40.022,3.706s-25.693-3.706-40.022-3.706c-1.066,0-2.055.035-3.09.067-.707-.014-1.499-.067-2.217-.067-.479,0-.883-.014-1.348,0-.468-.014-.943,0-1.418,0-.718,0-1.369.053-2.08.067-1.031-.032-2.034-.067-3.1-.067-14.347,0-26.432,3.709-40.093,3.706-13.647,0-25.76-3.706-40.093-3.706-1.042,0-2.076.039-3.09.067-.718-.014-1.348-.067-2.076-.067-.496,0-1.003-.014-1.488,0-.465-.014-.943,0-1.418,0-.718,0-1.439.053-2.147.067-1.031-.032-2.024-.067-3.09-.067h0Z"/>
        <path class="cls-2" d="M1601.398,1298.328c-10.48,0-19.756,1.851-29.3,2.921l-1.749,2.935h.197c13.826,0,25.52-3.368,38.527-3.727,13.01.355,24.813,3.727,38.65,3.727.968,0,1.872-.039,2.808-.067h.352c.394.011.823.053,1.228.067.352,0,.686.014,1.031,0,.486,0,.894.014,1.365,0,.475.014.954,0,1.439,0,.26,0,.514.014.764,0,.271.014.552,0,.816,0,.486,0,.894.014,1.369,0,.475.014.954,0,1.439,0h.89c.408-.014.82-.06,1.239-.067h.341c.933.025,1.837.067,2.805.067,13.826,0,25.64-3.368,38.653-3.727,13.021.359,24.915,3.727,38.738,3.727.968,0,1.876-.039,2.808-.067h.338c.419.011.82.053,1.228.067h.901c.486,0,.964.014,1.439,0,.475.014.954,0,1.439,0,.25,0,.493.014.746,0,.253.014.503,0,.764,0,.482,0,.964.014,1.439,0,.475.014.954,0,1.439,0h.957c.419-.014.823-.06,1.228-.067h.338c.936.025,1.841.067,2.808.067,13.826,0,25.594-3.368,38.597-3.727,13.01.359,24.753,3.727,38.58,3.727.947,0,1.897-.042,2.808-.067h.422c.387.011.764.053,1.158.067.348,0,.693.014,1.031,0,.486,0,.964.014,1.439,0,.475.014.883,0,1.369,0,.257,0,.51.014.76,0,.282.014.546,0,.82,0,.482,0,.961.014,1.436,0,.475.014.887,0,1.369,0h.961c.387-.014.774-.06,1.172-.067h.408c.911.025,1.858.067,2.808.067,13.823,0,25.633-3.368,38.65-3.727,13.028.352,24.834,3.727,38.667,3.727.968,0,1.876-.039,2.808-.067h.338c.419.011.82.053,1.228.067h.901c.486,0,.964.014,1.439,0,.475.014.954,0,1.439,0,.253,0,.493.014.75,0,.246.014.489,0,.746,0,.486,0,.978.014,1.453,0,.475.014.954,0,1.439,0h.957c.419-.014.823-.06,1.228-.067h.338c.936.025,1.844.067,2.808.067,13.826,0,25.598-3.368,38.597-3.727,13.006.359,24.827,3.727,38.653,3.727.454,0,.904-.011,1.355-.028l-1.823-3.058c-9.044-1.087-17.958-2.769-27.903-2.769-.806,0-1.633.046-2.411.067-.669-.014-1.299-.067-1.974-.067-.352-.014-.686,0-1.031,0-.486,0-.964-.014-1.439,0-.475-.014-.883,0-1.369,0-.257,0-.514-.014-.76,0-.282-.014-.546,0-.82,0-.486,0-.964-.014-1.439,0-.475-.014-.883,0-1.369,0h-.957c-.679,0-1.323.053-1.988.067-.778-.021-1.591-.067-2.4-.067-13.823,0-25.591,3.301-38.597,3.66-13.021-.359-24.813-3.66-38.65-3.66-.823,0-1.605.046-2.4.067-.672-.014-1.309-.067-1.988-.067-.296-.014-.581,0-.89,0-.486,0-.964-.014-1.436,0-.475-.014-.957,0-1.439,0-.253,0-.496-.014-.75,0-.25-.014-.503,0-.76,0-.482,0-.964-.014-1.439,0-.475-.014-.954,0-1.439,0h-.961c-.693,0-1.376.049-2.059.067-.771-.021-1.527-.067-2.326-.067-13.826,0-25.64,3.301-38.653,3.66-13.013-.359-24.831-3.66-38.653-3.66-.809,0-1.598.046-2.4.067-.658-.014-1.316-.067-1.988-.067-.317-.014-.626,0-.957,0-.486,0-.964-.014-1.439,0-.475-.014-.954,0-1.439,0-.26,0-.5-.014-.746,0-.253-.014-.503,0-.764,0-.486,0-.964-.014-1.439,0-.475-.014-.954,0-1.439,0h-.957c-.679,0-1.32.053-1.992.067-.799-.021-1.587-.067-2.397-.067-13.826,0-25.587,3.301-38.583,3.66-13.013-.359-24.771-3.66-38.597-3.66-.806,0-1.619.046-2.397.067-.669-.014-1.295-.067-1.974-.067-.348-.014-.686,0-1.031,0-.486,0-.964-.014-1.439,0-.475-.014-.883,0-1.369,0-.26,0-.51-.014-.76,0-.278-.014-.546,0-.82,0-.486,0-.964-.014-1.436,0-.475-.014-.887,0-1.369,0h-.904c-.693,0-1.362.049-2.045.067-.771-.021-1.541-.067-2.344-.067-13.837,0-25.626,3.301-38.65,3.66-13.013-.359-24.827-3.66-38.653-3.66-.809,0-1.605.046-2.4.067-.669-.014-1.309-.067-1.988-.067-.292-.014-.577,0-.887,0-.507,0-1.017-.014-1.51,0-.475-.014-.954,0-1.439,0-.253,0-.507-.014-.764,0-.225-.014-.436,0-.676,0-.503,0-1.017-.014-1.51,0-.475-.014-.954,0-1.439,0h-.961c-.693,0-1.376.049-2.059.067-.771-.021-1.524-.067-2.326-.067h.001ZM1601.398,1303.311c-11.648,0-21.801,2.351-32.488,3.304l-1.496,2.484h.324c.936.028,1.841.067,2.808.067,13.826,0,25.52-3.368,38.527-3.727,13.01.359,24.813,3.727,38.65,3.727.968,0,1.872-.039,2.808-.067h.352c.394.011.823.053,1.228.067.352,0,.686.014,1.031,0,.486,0,.894.014,1.365,0,.475.014.954,0,1.439,0,.26,0,.514.014.764,0,.271.014.552,0,.816,0,.486,0,.894.014,1.369,0,.475.014.954,0,1.439,0h.89c.408-.014.82-.056,1.239-.067h.341c.933.028,1.837.067,2.805.067,13.826,0,25.64-3.368,38.653-3.727,13.021.359,24.915,3.727,38.738,3.727.968,0,1.876-.039,2.808-.067h.338c.419.011.82.053,1.228.067h.901c.486,0,.964.014,1.439,0,.475.014.954,0,1.439,0,.25,0,.493.014.746,0,.253.014.503,0,.764,0,.482,0,.964.014,1.439,0,.475.014.954,0,1.439,0h.957c.419-.014.823-.056,1.228-.067h.338c.936.028,1.841.067,2.808.067,13.826,0,25.594-3.368,38.597-3.727,13.01.359,24.753,3.727,38.58,3.727.947,0,1.897-.039,2.808-.067h.422c.387.011.764.053,1.158.067.348,0,.693.014,1.031,0,.486,0,.964.014,1.439,0,.475.014.883,0,1.369,0,.257,0,.51.014.76,0,.282.014.546,0,.82,0,.482,0,.961.014,1.436,0,.475.014.887,0,1.369,0h.961c.387-.014.774-.056,1.172-.067h.408c.911.028,1.858.067,2.808.067,13.823,0,25.633-3.368,38.65-3.727,13.028.355,24.834,3.727,38.667,3.727.968,0,1.876-.039,2.808-.067h.338c.419.011.82.053,1.228.067h.901c.486,0,.964.014,1.439,0,.475.014.954,0,1.439,0,.253,0,.493.014.75,0,.246.014.489,0,.746,0,.486,0,.978.014,1.453,0,.475.014.954,0,1.439,0h.957c.419-.014.823-.056,1.228-.067h.338c.936.028,1.844.067,2.808.067,13.826,0,25.598-3.368,38.597-3.727,13.006.359,24.827,3.727,38.653,3.727.947,0,1.876-.039,2.808-.067h.408c.38.011.757.053,1.126.067l-1.608-2.703c-10.174-1.021-19.995-3.153-31.119-3.153-.806,0-1.619.046-2.397.07-.669-.018-1.313-.07-1.988-.07-.348-.014-.672,0-1.017,0h-2.822c-.257,0-.5-.011-.746,0-.282-.011-.546,0-.82,0h-3.765c-.679,0-1.323.053-1.988.07-.778-.021-1.591-.07-2.4-.07-13.823,0-25.591,3.301-38.597,3.66-13.021-.355-24.813-3.66-38.65-3.66-.827,0-1.605.046-2.4.07-.672-.018-1.309-.07-1.988-.07-.296-.011-.581,0-.89,0h-2.875c-.253,0-.496-.011-.75,0-.25-.011-.5,0-.76,0h-3.839c-.69,0-1.376.053-2.059.07-.771-.021-1.527-.07-2.326-.07-13.826,0-25.64,3.301-38.653,3.66-13.013-.359-24.831-3.66-38.653-3.66-.809,0-1.598.046-2.4.07-.658-.018-1.316-.07-1.988-.07-.317-.014-.626,0-.957,0h-2.879c-.26,0-.514-.011-.764,0-.25-.011-.486,0-.746,0h-3.835c-.679,0-1.323.053-1.992.07-.799-.021-1.587-.07-2.397-.07-13.826,0-25.587,3.301-38.583,3.66-13.013-.359-24.771-3.66-38.597-3.66-.806,0-1.622.046-2.397.07-.669-.018-1.313-.07-1.988-.07-.348-.014-.676,0-1.017,0h-2.822c-.26,0-.496-.011-.746,0-.278-.011-.546,0-.82,0h-3.709c-.693,0-1.362.053-2.045.07-.771-.021-1.541-.07-2.344-.07-13.837,0-25.626,3.304-38.65,3.66-13.013-.359-24.827-3.66-38.653-3.66-.809,0-1.605.046-2.4.07-.669-.018-1.309-.07-1.988-.07-.292-.011-.577,0-.887,0-.507,0-1.017-.011-1.51,0h-1.439c-.253,0-.507-.011-.764,0h-.676c-.503,0-1.017-.011-1.51,0h-2.4c-.693,0-1.376.053-2.059.07-.771-.021-1.524-.07-2.326-.07ZM1601.398,1308.308c-12.743,0-23.743,2.738-35.564,3.456l-1.425,2.386h1.749c.405-.014.848-.06,1.242-.067h.338c.936.028,1.841.067,2.808.067,13.823,0,25.52-3.301,38.527-3.656,13.01.352,24.813,3.656,38.65,3.656.968,0,1.872-.039,2.808-.067h.352c.394.011.823.053,1.228.067h3.836c.26,0,.514.014.764,0,.271.014.552,0,.816,0h3.699c.408-.014.82-.06,1.239-.067h.341c.933.028,1.837.067,2.805.067,13.826,0,25.64-3.301,38.653-3.656,13.021.355,24.901,3.656,38.724,3.656.968,0,1.89-.039,2.822-.067h.338c.419.011.82.053,1.228.067h3.765c.25,0,.507.014.76,0,.253.014.489,0,.75,0h3.836c.419-.014.837-.06,1.242-.067h.338c.936.028,1.841.067,2.808.067,13.826,0,25.598-3.301,38.597-3.656,13.01.355,24.757,3.656,38.58,3.656.947,0,1.897-.039,2.808-.067h.408c.387.011.778.053,1.172.067h3.839c.257,0,.51.014.76,0,.282.014.546,0,.82,0h3.765c.387-.014.774-.06,1.172-.067h.408c.911.028,1.858.067,2.808.067,13.823,0,25.633-3.301,38.65-3.656,13.028.352,24.82,3.656,38.653,3.656.968,0,1.89-.039,2.822-.067h.338c.419.011.82.053,1.228.067h3.779c.253,0,.493.014.75,0,.246.014.489,0,.746,0h3.85c.419-.014.823-.06,1.228-.067h.338c.936.028,1.844.067,2.808.067,13.826,0,25.598-3.301,38.597-3.656,13.006.355,24.827,3.656,38.653,3.656.947,0,1.876-.039,2.808-.067h.408c.398.011.785.053,1.172.067h2.931l-1.467-2.47c-11.317-.834-21.98-3.371-34.237-3.371-.806,0-1.619.046-2.397.067-.669-.014-1.313-.067-1.988-.067-.348-.014-.686,0-1.031,0-.486,0-.95-.011-1.425,0-.475-.011-.897,0-1.383,0-.257,0-.5-.011-.746,0-.282-.011-.546,0-.82,0-.486,0-.964-.011-1.439,0-.475-.011-.897,0-1.38,0h-.961c-.679,0-1.323.053-1.988.067-.778-.021-1.591-.067-2.4-.067-13.823,0-25.58,3.287-38.583,3.646-13.021-.355-24.813-3.646-38.65-3.646-.827,0-1.605.046-2.4.067-.672-.014-1.309-.067-1.988-.067-.296-.011-.581,0-.89,0-.486,0-.964-.011-1.436,0-.475-.011-.957,0-1.439,0-.253,0-.51-.011-.764,0-.246-.011-.486,0-.746,0-.482,0-.964-.011-1.439,0-.475-.011-.954,0-1.439,0h-.961c-.69,0-1.376.049-2.059.067-.771-.021-1.527-.067-2.326-.067-13.826,0-25.64,3.287-38.653,3.646-13.013-.359-24.831-3.646-38.653-3.646-.809,0-1.612.046-2.411.067-.662-.014-1.305-.067-1.978-.067-.317-.014-.626,0-.957,0-.486,0-.964-.011-1.439,0-.475-.011-.954,0-1.439,0-.26,0-.514-.011-.764,0-.25-.011-.486,0-.746,0-.486,0-.964-.011-1.439,0-.475-.011-.954,0-1.439,0h-.957c-.679,0-1.32.053-1.992.067-.799-.021-1.591-.067-2.397-.067-13.826,0-25.587,3.287-38.583,3.646-13.01-.359-24.771-3.646-38.597-3.646-.806,0-1.619.046-2.397.067-.669-.014-1.313-.067-1.988-.067-.348-.014-.686,0-1.031,0-.486,0-.964-.011-1.439,0-.475-.011-.883,0-1.369,0-.257,0-.496-.011-.746,0-.278-.011-.56,0-.834,0-.486,0-.961-.011-1.436,0-.475-.011-.887,0-1.369,0h-.89c-.5,0-4.55.215-6.799.538-2.245.32-24.151,2.678-36.239,3.107-13.013-.359-24.827-3.646-38.653-3.646-.809,0-1.605.046-2.4.067-.669-.014-1.309-.067-1.988-.067-.292-.011-.577,0-.887,0-.507,0-1.017-.011-1.51,0-.475-.011-.954,0-1.439,0-.253,0-.507-.011-.764,0-.225-.011-.436,0-.676,0-.503,0-1.017-.011-1.51,0-.475-.011-.954,0-1.439,0h-.961c-.693,0-1.376.049-2.059.067-.767-.025-1.524-.067-2.326-.067ZM1601.398,1313.291c-13.826,0-25.601,3.287-38.597,3.646h-.056l-1.313,2.196h.141c.25.014.489,0,.75,0,.486,0,.964.014,1.439,0,.475.014.883,0,1.365,0,.345.014.679,0,1.031,0,.405-.014.848-.06,1.242-.067h.338c.936.028,1.841.067,2.808.067,13.823,0,25.52-3.297,38.527-3.656,13.01.355,24.813,3.656,38.65,3.656.968,0,1.876-.039,2.808-.067h.352c.394.011.823.056,1.228.067.352,0,.686.014,1.031,0,.486,0,.894.014,1.365,0,.475.014.954,0,1.439,0,.26,0,.514.014.764,0,.271.014.552,0,.816,0,.486,0,.894.014,1.369,0,.475.014.954,0,1.439,0h.89c.408-.014.82-.056,1.239-.067h.341c.933.028,1.837.067,2.805.067,13.826,0,25.64-3.301,38.653-3.656,13.021.355,24.901,3.656,38.724,3.656.968,0,1.89-.039,2.822-.067h.338c.419.011.82.053,1.228.067h.901c.486,0,.964.014,1.439,0,.475.014.943,0,1.425,0,.25,0,.507.014.76,0,.253.014.489,0,.75,0,.482,0,.964.014,1.439,0,.475.014.954,0,1.439,0h.957c.419-.014.837-.056,1.242-.067h.338c.936.028,1.841.067,2.808.067,13.826,0,25.598-3.301,38.597-3.656,13.01.355,24.757,3.656,38.58,3.656.947,0,1.897-.039,2.808-.067h.408c.387.011.778.056,1.172.067.348,0,.693.014,1.031,0,.486,0,.964.014,1.439,0,.475.014.883,0,1.369,0,.257,0,.51.014.76,0,.282.014.546,0,.82,0,.482,0,.961.014,1.436,0,.475.014.887,0,1.369,0h.961c.387-.014.774-.06,1.172-.067h.408c.911.028,1.858.067,2.808.067,13.823,0,25.633-3.301,38.65-3.656,13.028.352,24.82,3.656,38.653,3.656.968,0,1.89-.039,2.822-.067h.338c.419.011.82.053,1.228.067h.901c.486,0,.964.014,1.439,0,.475.014.954,0,1.439,0,.253,0,.493.014.75,0,.246.014.489,0,.746,0,.486,0,.964.014,1.439,0,.475.014.954,0,1.439,0h.971c.419-.014.823-.056,1.228-.067h.338c.936.028,1.844.067,2.808.067,13.826,0,25.598-3.301,38.597-3.656,13.01.355,24.827,3.656,38.653,3.656.947,0,1.876-.039,2.808-.067h.408c.398.011.785.056,1.172.067h.957c.486,0,.964.014,1.439,0,.475.014.954,0,1.439,0,.257,0,.496.014.746,0,.25.014.503,0,.764,0h.563l-1.341-2.238c-12.517-.521-23.958-3.603-37.341-3.603-.806,0-1.619.035-2.397.053-.669-.014-1.313-.053-1.988-.053-.352-.014-.686,0-1.031,0h-2.808c-.257,0-.5-.011-.746,0-.282-.011-.56,0-.834,0h-3.765c-.679,0-1.323.039-1.988.053-.778-.021-1.591-.053-2.4-.053-13.967,0-25.826,3.35-38.991,3.646-12.859-.415-24.549-3.646-38.242-3.646-.823,0-1.605.032-2.4.053-.672-.014-1.309-.053-1.988-.053-.296-.011-.581,0-.89,0h-2.875c-.253,0-.51-.011-.764,0-.25-.011-.489,0-.746,0h-3.839c-.693,0-1.376.039-2.059.053-.771-.018-1.524-.053-2.326-.053-13.826,0-25.64,3.287-38.653,3.646-13.013-.359-24.845-3.646-38.667-3.646-.809,0-1.598.035-2.397.053-.662-.014-1.32-.053-1.992-.053-.317-.014-.626,0-.957,0h-2.879c-.26,0-.496-.011-.75,0-.246-.011-.486,0-.746,0h-3.85c-.679,0-1.305.039-1.974.053-.802-.021-1.594-.053-2.4-.053-13.826,0-25.601,3.287-38.597,3.646-13.013-.359-24.757-3.646-38.583-3.646-.806,0-1.619.035-2.397.053-.669-.014-1.313-.053-1.988-.053-.348-.014-.686,0-1.031,0h-2.808c-.26,0-.51-.011-.76,0-.278-.011-.546,0-.82,0h-3.695c-.693,0-1.376.039-2.059.053-.771-.018-1.524-.053-2.33-.053-13.689,0-25.383,3.23-38.242,3.646-13.175-.296-25.105-3.646-39.076-3.646-.809,0-1.601.032-2.4.053-.669-.014-1.309-.053-1.988-.053-.292-.011-.577,0-.887,0-.507,0-1.017-.011-1.51,0h-1.439c-.253,0-.493-.011-.75,0h-.69c-.503,0-1.017-.011-1.51,0h-2.4c-.693,0-1.376.039-2.059.053-.76-.018-1.51-.053-2.312-.053h0ZM1601.398,1318.274c-13.826,0-25.601,3.301-38.597,3.66-.984-.032-1.967-.083-2.949-.151l-1.397,2.337h2.301c.267,0,.549.011.816,0,.25.011.489,0,.75,0h3.836c.405-.018.848-.063,1.242-.07h.338c.936.028,1.841.07,2.808.07,13.823,0,25.52-3.301,38.527-3.66,13.01.355,24.813,3.66,38.65,3.66.968,0,1.872-.042,2.808-.07h.352c.394.011.823.053,1.228.07h3.836c.26,0,.514.011.764,0,.271.011.552,0,.816,0h3.699c.408-.018.82-.063,1.239-.07h.341c.933.028,1.837.07,2.805.07,13.826,0,25.64-3.301,38.653-3.66,13.021.359,24.901,3.66,38.724,3.66.968,0,1.89-.042,2.822-.07h.338c.419.011.82.053,1.228.07h3.765c.25,0,.507.011.76,0,.253.011.489,0,.75,0h3.836c.419-.018.837-.063,1.242-.07h.338c.936.028,1.841.07,2.808.07,13.826,0,25.598-3.301,38.597-3.66,13.01.359,24.757,3.66,38.58,3.66.947,0,1.897-.046,2.808-.07h.408c.387.011.778.053,1.172.07h3.839c.257,0,.51.011.76,0,.282.011.546,0,.82,0h3.765c.387-.018.774-.063,1.172-.07h.408c.911.028,1.858.07,2.808.07,13.823,0,25.633-3.301,38.65-3.66,13.028.352,24.82,3.66,38.653,3.66.968,0,1.89-.042,2.822-.07h.338c.419.011.82.053,1.228.07h3.779c.253,0,.493.011.75,0,.246.011.489,0,.746,0h3.85c.419-.018.823-.063,1.228-.07h.338c.936.028,1.844.07,2.808.07,13.826,0,25.598-3.301,38.597-3.66,13.006.359,24.827,3.66,38.653,3.66.947,0,1.876-.046,2.808-.07h.408c.398.011.785.053,1.172.07h3.836c.257,0,.496.011.746,0,.25.011.503,0,.764,0h3.54l-1.369-2.28c-.563.035-1.126.067-1.693.081-13.013-.355-24.771-3.646-38.597-3.646-.806,0-1.619.046-2.397.07-.669-.018-1.313-.07-1.988-.07-.352-.014-.686,0-1.031,0-.486,0-.95-.011-1.425,0-.475-.011-.897,0-1.383,0-.257,0-.5-.011-.746,0-.282-.011-.546,0-.82,0-.486,0-.964-.011-1.439,0-.475-.011-.897,0-1.38,0h-.961c-.679,0-1.323.049-1.988.07-.778-.025-1.591-.07-2.4-.07-13.823,0-25.58,3.287-38.583,3.646-13.021-.355-24.813-3.646-38.65-3.646-.823,0-1.605.046-2.4.07-.672-.018-1.309-.07-1.988-.07-.296-.011-.581,0-.89,0-.486,0-.964-.011-1.436,0-.475-.011-.957,0-1.439,0-.253,0-.51-.011-.764,0-.25-.011-.489,0-.746,0-.482,0-.964-.011-1.439,0-.475-.011-.954,0-1.439,0h-.961c-.693,0-1.376.049-2.059.07-.771-.025-1.527-.07-2.326-.07-13.826,0-25.643,3.29-38.653,3.646-13.013-.355-24.831-3.646-38.653-3.646-.809,0-1.612.046-2.411.07-.662-.018-1.305-.07-1.978-.07-.317-.014-.626,0-.957,0-.486,0-.964-.011-1.439,0-.475-.011-.954,0-1.439,0-.26,0-.514-.011-.764,0-.246-.011-.486,0-.746,0-.486,0-.964-.011-1.439,0-.475-.011-.954,0-1.439,0h-.957c-.679,0-1.32.049-1.992.07-.799-.025-1.587-.07-2.397-.07-13.823,0-25.587,3.29-38.583,3.646-13.01-.355-24.771-3.646-38.597-3.646-.806,0-1.619.046-2.397.07-.669-.018-1.309-.07-1.988-.07-.348-.014-.686,0-1.031,0-.486,0-.964-.011-1.439,0-.475-.011-.883,0-1.369,0-.26,0-.496-.011-.746,0-.278-.011-.56,0-.834,0-.486,0-.964-.011-1.436,0-.475-.011-.887,0-1.369,0h-.89c-.693,0-1.376.049-2.059.07-.771-.025-1.527-.07-2.33-.07-13.837,0-25.626,3.29-38.65,3.646-13.013-.359-24.827-3.646-38.653-3.646-.809,0-1.605.046-2.4.07-.669-.018-1.309-.07-1.988-.07-.292-.011-.577,0-.887,0-.507,0-1.017-.011-1.51,0-.475-.011-.954,0-1.439,0-.253,0-.507-.011-.764,0-.225-.011-.436,0-.676,0-.503,0-1.017-.011-1.51,0-.475-.011-.954,0-1.439,0h-.961c-.693,0-1.376.049-2.059.07-.767-.025-1.524-.07-2.326-.07h0ZM1601.398,1323.256c-13.826,0-25.601,3.301-38.597,3.66-1.936-.058-3.87-.172-5.799-.341l-1.464,2.456h.281c.419.014.816.053,1.225.07h.89c.486,0,.964.011,1.439,0,.475.011.897,0,1.383,0,.267,0,.549.011.816,0,.25.011.489,0,.75,0,.486,0,.964.011,1.439,0,.475.011.883,0,1.365,0,.345.011.679,0,1.031,0,.405-.018.848-.06,1.242-.07h.338c.936.028,1.841.07,2.808.07,13.823,0,25.52-3.29,38.527-3.646,13.01.355,24.813,3.646,38.65,3.646.968,0,1.876-.042,2.808-.07h.352c.394.014.823.053,1.228.07.355,0,.686.011,1.031,0,.486,0,.89.011,1.365,0,.475.011.954,0,1.439,0,.26,0,.514.011.764,0,.271.011.552,0,.816,0,.486,0,.894.011,1.369,0,.475.011.954,0,1.439,0h.89c.408-.018.82-.06,1.239-.07h.341c.933.028,1.841.07,2.805.07,13.826,0,25.643-3.29,38.653-3.646,13.021.355,24.901,3.646,38.724,3.646.968,0,1.89-.042,2.822-.07h.338c.419.014.82.053,1.228.07h.901c.486,0,.964.011,1.439,0,.475.011.943,0,1.425,0,.25,0,.507.011.76,0,.253.011.489,0,.75,0,.482,0,.964.011,1.439,0,.475.011.954,0,1.439,0h.957c.419-.018.837-.06,1.242-.07h.338c.936.028,1.841.07,2.808.07,13.826,0,25.598-3.29,38.597-3.646,13.01.355,24.757,3.646,38.58,3.646.947,0,1.897-.042,2.808-.07h.408c.387.014.778.053,1.172.07.348,0,.693.011,1.031,0,.486,0,.964.011,1.439,0,.475.011.883,0,1.369,0,.257,0,.51.011.76,0,.282.011.546,0,.82,0,.482,0,.961.011,1.436,0,.475.011.887,0,1.369,0h.961c.387-.018.774-.06,1.172-.07h.408c.911.028,1.858.07,2.808.07,13.823,0,25.633-3.29,38.65-3.646,13.028.352,24.82,3.646,38.653,3.646.968,0,1.89-.042,2.822-.07h.338c.419.014.82.053,1.228.07h.901c.486,0,.964.011,1.439,0,.475.011.954,0,1.439,0,.253,0,.493.011.75,0,.246.011.489,0,.746,0,.486,0,.964.011,1.439,0,.475.011.954,0,1.439,0h.971c.419-.018.823-.06,1.228-.07h.338c.936.028,1.844.07,2.808.07,13.826,0,25.598-3.29,38.597-3.646,13.006.355,24.827,3.646,38.653,3.646.947,0,1.876-.042,2.808-.07h.408c.398.014.785.053,1.172.07h.957c.486,0,.964.011,1.439,0,.475.011.954,0,1.439,0,.257,0,.496.011.746,0,.25.011.503,0,.764,0,.486,0,.964.011,1.439,0,.475.011.954,0,1.439,0h.887c.408-.018.809-.06,1.228-.07h.352l1.144.042-1.453-2.446c-1.503.123-3.03.246-4.557.289-13.013-.359-24.771-3.66-38.597-3.66-.806,0-1.619.046-2.397.07-.669-.018-1.313-.07-1.988-.07-.348-.014-.686,0-1.031,0-.486,0-.95-.011-1.425,0-.475-.011-.897,0-1.383,0-.257,0-.5-.011-.746,0-.282-.011-.546,0-.82,0-.486,0-.964-.011-1.439,0-.475-.011-.897,0-1.38,0h-.961c-.679,0-1.323.053-1.988.07-.778-.025-1.591-.07-2.4-.07-13.823,0-25.58,3.301-38.583,3.66-13.021-.355-24.813-3.66-38.65-3.66-.827,0-1.605.046-2.4.07-.672-.018-1.309-.07-1.988-.07-.296-.011-.581,0-.89,0-.486,0-.964-.011-1.436,0-.475-.011-.957,0-1.439,0-.253,0-.51-.011-.764,0-.25-.011-.486,0-.746,0-.482,0-.964-.011-1.439,0-.475-.011-.954,0-1.439,0h-.961c-.69,0-1.376.049-2.059.07-.771-.025-1.527-.07-2.326-.07-13.826,0-25.643,3.301-38.653,3.66-13.013-.359-24.831-3.66-38.653-3.66-.809,0-1.612.046-2.411.07-.662-.018-1.305-.07-1.978-.07-.317-.014-.626,0-.957,0-.486,0-.964-.011-1.439,0-.475-.011-.954,0-1.439,0-.26,0-.514-.011-.764,0-.246-.011-.486,0-.746,0-.486,0-.964-.011-1.439,0-.475-.011-.954,0-1.439,0h-.957c-.679,0-1.32.053-1.992.07-.799-.025-1.587-.07-2.397-.07-13.823,0-25.587,3.301-38.583,3.66-13.01-.359-24.771-3.66-38.597-3.66-.806,0-1.622.046-2.397.07-.669-.018-1.313-.07-1.988-.07-.348-.014-.69,0-1.031,0-.486,0-.964-.011-1.439,0-.475-.011-.883,0-1.369,0-.26,0-.496-.011-.746,0-.278-.011-.546,0-.82,0-.486,0-.975-.011-1.45,0-.475-.011-.887,0-1.369,0h-.89c-.693,0-1.376.049-2.059.07-.771-.025-1.527-.07-2.33-.07-13.837,0-25.626,3.304-38.65,3.66-13.013-.359-24.827-3.66-38.653-3.66-.809,0-1.605.046-2.4.07-.669-.018-1.309-.07-1.988-.07-.292-.011-.577,0-.887,0-.507,0-1.017-.011-1.51,0-.475-.011-.954,0-1.439,0-.253,0-.507-.011-.764,0-.225-.011-.436,0-.676,0-.503,0-1.017-.011-1.51,0-.475-.011-.954,0-1.439,0h-.961c-.693,0-1.376.049-2.059.07-.767-.025-1.524-.07-2.326-.07h0ZM1601.398,1328.239c-13.826,0-25.601,3.301-38.597,3.66-2.867-.104-5.728-.327-8.576-.669l-1.707,2.854h.141c.964,0,1.886-.032,2.819-.056h.341c.419.011.816.042,1.225.056h.89c.486,0,.964.011,1.439,0,.475.011.897,0,1.383,0,.267,0,.549.011.816,0,.25.011.489,0,.75,0,.486,0,.964.011,1.439,0,.475.011.883,0,1.365,0,.345.011.679,0,1.031,0,.405-.018.848-.049,1.242-.056h.338c.936.028,1.841.056,2.808.056,13.823,0,25.52-3.287,38.527-3.646,13.01.355,24.813,3.646,38.65,3.646.968,0,1.876-.032,2.808-.056h.352c.394.011.823.042,1.228.056.355,0,.686.011,1.031,0,.486,0,.89.011,1.365,0,.475.011.954,0,1.439,0,.26,0,.514.011.764,0,.271.011.552,0,.816,0,.486,0,.894.011,1.369,0,.475.011.954,0,1.439,0h.89c.408-.018.82-.049,1.239-.056h.341c.933.028,1.841.056,2.805.056,13.826,0,25.643-3.29,38.653-3.646,13.021.355,24.901,3.646,38.724,3.646.968,0,1.89-.032,2.822-.056h.338c.419.011.82.042,1.228.056h.901c.486,0,.964.011,1.439,0,.475.011.943,0,1.425,0,.25,0,.507.011.76,0,.253.011.489,0,.75,0,.482,0,.964.011,1.439,0,.475.011.954,0,1.439,0h.957c.419-.018.837-.049,1.242-.056h.338c.936.028,1.841.056,2.808.056,13.826,0,25.598-3.29,38.597-3.646,13.01.355,24.757,3.646,38.58,3.646.947,0,1.897-.032,2.808-.056h.408c.387.011.778.042,1.172.056.348,0,.693.011,1.031,0,.486,0,.964.011,1.439,0,.475.011.883,0,1.369,0,.257,0,.51.011.76,0,.282.011.546,0,.82,0,.482,0,.961.011,1.436,0,.475.011.887,0,1.369,0h.961c.387-.018.774-.049,1.172-.056h.408c.911.025,1.858.056,2.808.056,13.823,0,25.633-3.29,38.65-3.646,13.028.355,24.82,3.646,38.653,3.646.968,0,1.89-.032,2.822-.056h.338c.419.011.82.042,1.228.056h.901c.486,0,.964.011,1.439,0,.475.011.954,0,1.439,0,.253,0,.493.011.75,0,.246.011.489,0,.746,0,.486,0,.964.011,1.439,0,.475.011.954,0,1.439,0h.971c.419-.018.823-.049,1.228-.056h.338c.936.028,1.844.056,2.808.056,13.826,0,25.598-3.29,38.597-3.646,13.006.355,24.827,3.646,38.653,3.646.947,0,1.876-.032,2.808-.056h.408c.398.011.785.042,1.172.056h.957c.486,0,.964.011,1.439,0,.475.011.954,0,1.439,0,.257,0,.496.011.746,0,.25.011.503,0,.764,0,.486,0,.964.011,1.439,0,.475.011.954,0,1.439,0h.887c.408-.018.809-.049,1.228-.056h.352c.933.028,1.841.056,2.808.056.436,0,.866-.025,1.299-.042l-1.594-2.689c-2.452.272-4.914.454-7.379.545-13.013-.355-24.771-3.66-38.597-3.66-.806,0-1.619.049-2.397.07-.669-.014-1.313-.07-1.988-.07-.348-.014-.686,0-1.031,0-.486,0-.95-.011-1.425,0-.475-.011-.897,0-1.383,0-.257,0-.5-.011-.746,0-.282-.011-.546,0-.82,0-.486,0-.964-.011-1.439,0-.475-.011-.897,0-1.38,0h-.961c-.679,0-1.323.056-1.988.07-.778-.021-1.591-.07-2.4-.07-13.823,0-25.58,3.301-38.583,3.66-13.021-.355-24.813-3.66-38.65-3.66-.827,0-1.605.046-2.4.07-.672-.014-1.309-.07-1.988-.07-.296-.011-.581,0-.89,0-.486,0-.964-.011-1.436,0-.475-.011-.957,0-1.439,0-.253,0-.51-.011-.764,0-.25-.011-.486,0-.746,0-.482,0-.964-.011-1.439,0-.475-.011-.954,0-1.439,0h-.961c-.69,0-1.376.056-2.059.07-.771-.021-1.527-.07-2.326-.07-13.826,0-25.643,3.304-38.653,3.66-13.013-.355-24.831-3.66-38.653-3.66-.809,0-1.612.049-2.411.07-.662-.014-1.305-.07-1.978-.07-.317-.014-.626,0-.957,0-.486,0-.964-.011-1.439,0-.475-.011-.954,0-1.439,0-.26,0-.514-.011-.764,0-.246-.011-.486,0-.746,0-.486,0-.964-.011-1.439,0-.475-.011-.954,0-1.439,0h-.957c-.679,0-1.32.056-1.992.07-.799-.021-1.587-.07-2.397-.07-13.823,0-25.587,3.304-38.583,3.66-13.01-.355-24.771-3.66-38.597-3.66-.806,0-1.622.049-2.397.07-.669-.014-1.313-.07-1.988-.07-.348-.014-.69,0-1.031,0-.486,0-.964-.011-1.439,0-.475-.011-.883,0-1.369,0-.26,0-.496-.011-.746,0-.278-.011-.546,0-.82,0-.486,0-.975-.011-1.45,0-.475-.011-.887,0-1.369,0h-.89c-.693,0-1.376.056-2.059.07-.771-.021-1.527-.07-2.33-.07-13.837,0-25.626,3.304-38.65,3.66-13.013-.359-24.827-3.66-38.653-3.66-.809,0-1.605.049-2.4.07-.669-.014-1.309-.07-1.988-.07-.292-.011-.577,0-.887,0-.507,0-1.017-.011-1.51,0-.475-.011-.954,0-1.439,0-.253,0-.507-.011-.764,0-.225-.011-.436,0-.676,0-.503,0-1.017-.011-1.51,0-.475-.011-.954,0-1.439,0h-.961c-.693,0-1.376.056-2.059.07-.771-.021-1.524-.07-2.326-.07h0ZM1601.398,1333.222c-13.826,0-25.601,3.304-38.597,3.66-3.885-.106-7.605-.528-11.356-.996l-1.876,3.139c1.021.035,2.03.056,3.09.056.964,0,1.886-.042,2.819-.07h.341c.419.014.816.053,1.225.07h3.713c.267,0,.549.011.816,0,.25.011.489,0,.75,0h3.836c.405-.018.848-.06,1.242-.07h.338c.936.028,1.841.07,2.808.07,13.823,0,25.52-3.304,38.527-3.66,13.01.355,24.813,3.66,38.65,3.66.968,0,1.876-.042,2.808-.07h.352c.394.014.823.053,1.228.07h3.836c.26,0,.514.011.764,0,.271.011.552,0,.816,0h3.699c.408-.018.82-.06,1.239-.07h.341c.933.028,1.841.07,2.805.07,13.826,0,25.643-3.304,38.653-3.66,13.021.355,24.915,3.66,38.738,3.66.968,0,1.876-.042,2.808-.07h.338c.419.014.82.053,1.228.07h3.779c.25,0,.493.011.746,0,.253.011.503,0,.764,0h3.836c.419-.018.823-.06,1.228-.07h.338c.936.028,1.841.07,2.808.07,13.826,0,25.598-3.304,38.597-3.66,13.01.355,24.757,3.66,38.58,3.66.947,0,1.897-.042,2.808-.07h.422c.387.014.764.053,1.158.07h3.839c.257,0,.51.011.76,0,.282.011.546,0,.82,0h3.766c.387-.018.774-.06,1.172-.07h.408c.911.028,1.858.07,2.808.07,13.823,0,25.633-3.304,38.65-3.66,13.028.352,24.834,3.66,38.667,3.66.968,0,1.876-.042,2.808-.07h.338c.419.014.82.053,1.228.07h3.779c.253,0,.493.011.75,0,.246.011.489,0,.746,0h3.85c.419-.018.823-.06,1.228-.07h.338c.936.028,1.844.07,2.808.07,13.826,0,25.598-3.304,38.597-3.66,13.006.355,24.827,3.66,38.653,3.66.947,0,1.876-.042,2.808-.07h.408c.398.014.785.053,1.172.07h3.836c.257,0,.496.011.746,0,.25.011.503,0,.764,0h3.765c.408-.018.809-.06,1.228-.07h.352c.933.028,1.841.07,2.808.07,1.425,0,2.836-.049,4.23-.109l-1.707-2.882c-3.35.394-6.739.693-10.198.792-13.013-.355-24.771-3.66-38.597-3.66-.806,0-1.619.046-2.397.07-.669-.014-1.313-.07-1.988-.07-.352-.011-.672,0-1.017,0-.486,0-.964-.011-1.439,0-.475-.011-.897,0-1.383,0-.257,0-.5-.011-.746,0-.282-.011-.546,0-.82,0-.486,0-.964-.011-1.439,0-.475-.011-.897,0-1.38,0h-.961c-.679,0-1.309.056-1.974.07-.778-.025-1.605-.07-2.414-.07-13.823,0-25.58,3.304-38.583,3.66-13.021-.355-24.813-3.66-38.65-3.66-.823,0-1.605.046-2.4.07-.672-.014-1.309-.07-1.988-.07-.296-.011-.581,0-.89,0-.486,0-.964-.011-1.436,0-.475-.011-.957,0-1.439,0-.253,0-.51-.011-.764,0-.25-.011-.489,0-.746,0-.482,0-.964-.011-1.439,0-.475-.011-.954,0-1.439,0h-.961c-.693,0-1.376.049-2.059.07-.771-.025-1.527-.07-2.326-.07-13.826,0-25.643,3.304-38.653,3.66-13.013-.355-24.831-3.66-38.653-3.66-.809,0-1.598.046-2.4.07-.658-.014-1.316-.07-1.988-.07-.317-.011-.626,0-.957,0-.486,0-.964-.011-1.439,0-.475-.011-.954,0-1.439,0-.26,0-.514-.011-.764,0-.246-.011-.486,0-.746,0-.486,0-.964-.011-1.439,0-.475-.011-.954,0-1.439,0h-.957c-.679,0-1.323.056-1.992.07-.799-.025-1.587-.07-2.397-.07-13.823,0-25.587,3.304-38.583,3.66-13.01-.355-24.771-3.66-38.597-3.66-.806,0-1.619.046-2.397.07-.669-.014-1.309-.07-1.988-.07-.348-.011-.686,0-1.031,0-.486,0-.964-.011-1.439,0-.475-.011-.883,0-1.369,0-.26,0-.496-.011-.746,0-.278-.011-.546,0-.82,0-.486,0-.978-.011-1.45,0-.475-.011-.887,0-1.369,0h-.89c-.693,0-1.376.049-2.059.07-.771-.025-1.527-.07-2.33-.07-13.837,0-25.626,3.304-38.65,3.66-13.013-.355-24.827-3.66-38.653-3.66-.809,0-1.605.046-2.4.07-.669-.014-1.309-.07-1.988-.07-.292-.011-.577,0-.887,0-.507,0-1.017-.011-1.51,0-.475-.011-.954,0-1.439,0-.253,0-.507-.011-.764,0-.225-.011-.436,0-.676,0-.503,0-1.017-.011-1.51,0-.475-.011-.954,0-1.439,0h-.961c-.693,0-1.376.049-2.059.07-.767-.025-1.524-.07-2.326-.07h0ZM1601.398,1338.205c-13.826,0-25.601,3.304-38.597,3.66-4.842-.13-9.463-.711-14.136-1.337l-1.96,3.29c1.946.123,3.899.246,5.954.246.964,0,1.886-.042,2.819-.07h.341c.419.014.816.053,1.225.07h.904c.486,0,.964.011,1.439,0,.475.011.883,0,1.369,0,.267,0,.549.011.816,0,.25.011.489,0,.75,0,.486,0,.964.011,1.439,0,.475.011.897,0,1.379,0,.345.011.665,0,1.017,0,.405-.018.848-.06,1.242-.07h.338c.936.032,1.841.07,2.808.07,13.823,0,25.52-3.301,38.527-3.66,13.01.355,24.813,3.66,38.65,3.66.968,0,1.876-.042,2.808-.07h.352c.394.014.823.056,1.228.07.355,0,.686.011,1.031,0,.486,0,.89.011,1.365,0,.475.011.954,0,1.439,0,.26,0,.514.011.764,0,.271.011.552,0,.816,0,.486,0,.894.011,1.369,0,.475.011.954,0,1.439,0h.89c.408-.018.82-.06,1.239-.07h.341c.933.032,1.841.07,2.805.07,13.826,0,25.643-3.304,38.653-3.66,13.021.355,24.915,3.66,38.738,3.66.968,0,1.876-.042,2.808-.07h.338c.419.014.82.053,1.228.07h.901c.486,0,.964.011,1.439,0,.475.011.954,0,1.439,0,.25,0,.493.011.746,0,.253.011.503,0,.764,0,.482,0,.964.011,1.439,0,.475.011.954,0,1.439,0h.957c.419-.018.823-.06,1.228-.07h.338c.936.032,1.841.07,2.808.07,13.826,0,25.598-3.304,38.597-3.66,13.01.355,24.757,3.66,38.58,3.66.947,0,1.897-.042,2.808-.07h.422c.387.014.764.056,1.158.07.348,0,.693.011,1.031,0,.486,0,.964.011,1.439,0,.475.011.883,0,1.369,0,.257,0,.51.011.76,0,.282.011.546,0,.82,0,.482,0,.961.011,1.436,0,.475.011.887,0,1.369,0h.961c.387-.018.774-.06,1.172-.07h.408c.911.028,1.858.07,2.808.07,13.823,0,25.633-3.304,38.65-3.66,13.028.355,24.834,3.66,38.667,3.66.968,0,1.876-.042,2.808-.07h.338c.419.014.82.053,1.228.07h.901c.486,0,.964.011,1.439,0,.475.011.954,0,1.439,0,.253,0,.493.011.75,0,.246.011.489,0,.746,0,.486,0,.978.011,1.453,0,.475.011.954,0,1.439,0h.957c.419-.018.823-.06,1.228-.07h.338c.936.032,1.844.07,2.808.07,13.826,0,25.598-3.304,38.597-3.66,13.006.355,24.827,3.66,38.653,3.66.947,0,1.876-.042,2.808-.07h.408c.398.014.785.056,1.172.07h.957c.486,0,.964.011,1.439,0,.475.011.954,0,1.439,0,.257,0,.496.011.746,0,.25.011.503,0,.764,0,.486,0,.964.011,1.439,0,.475.011.954,0,1.439,0h.887c.408-.018.809-.06,1.228-.07h.352c.933.032,1.841.07,2.808.07,2.421,0,4.782-.134,7.109-.303l-1.848-3.083c-4.254.556-8.534,1.066-12.936,1.186-13.013-.355-24.771-3.66-38.597-3.66-.806,0-1.619.049-2.397.07-.669-.014-1.313-.07-1.988-.07-.348-.011-.672,0-1.017,0h-2.822c-.257,0-.5-.011-.746,0-.282-.011-.546,0-.82,0h-3.779c-.679,0-1.309.056-1.974.07-.778-.025-1.605-.07-2.414-.07-13.823,0-25.58,3.304-38.583,3.66-13.021-.355-24.813-3.66-38.65-3.66-.827,0-1.605.046-2.4.07-.672-.014-1.309-.07-1.988-.07-.296-.011-.581,0-.89,0h-2.875c-.253,0-.51-.011-.764,0-.25-.011-.486,0-.746,0h-3.839c-.69,0-1.376.056-2.059.07-.771-.021-1.527-.07-2.326-.07-13.826,0-25.643,3.304-38.653,3.66-13.013-.355-24.831-3.66-38.653-3.66-.809,0-1.598.049-2.4.07-.658-.014-1.316-.07-1.988-.07-.317-.011-.626,0-.957,0h-2.879c-.26,0-.514-.011-.764,0-.246-.011-.486,0-.746,0h-3.834c-.679,0-1.323.056-1.992.07-.799-.025-1.587-.07-2.397-.07-13.823,0-25.587,3.304-38.583,3.66-13.01-.355-24.771-3.66-38.597-3.66-.806,0-1.622.049-2.397.07-.669-.014-1.313-.07-1.988-.07-.348-.011-.69,0-1.031,0h-2.808c-.26,0-.496-.011-.746,0-.278-.011-.546,0-.82,0h-3.709c-.693,0-1.362.056-2.045.07-.771-.021-1.541-.07-2.344-.07-13.837,0-25.626,3.304-38.65,3.66-13.013-.355-24.827-3.66-38.653-3.66-.809,0-1.605.046-2.4.07-.669-.014-1.309-.07-1.988-.07-.292-.011-.577,0-.887,0-.507,0-1.017-.011-1.51,0h-1.439c-.253,0-.507-.011-.764,0h-.676c-.503,0-1.017-.011-1.51,0h-2.4c-.693,0-1.376.056-2.059.07-.771-.021-1.524-.07-2.326-.07Z"/>
        <path class="cls-19" d="M1738.079,1189.451c-.584,0-1.112.088-1.612.137-.091,12.12,0,32.569,0,43.383.116,9.396,3.297,16.958,7.985,25.869.271.778.538,1.418.802,1.967,1.629,4.36,2.833,5.873,9.058,10.659,19.788,15.206,44.322,17.483,58.761,16.226-4.526-3.611-9.357-6.89-13.619-9.913,6.792-.222,13.299-.999,17.912-2.038-14.449-4.286-27.625-13.13-38.773-24.577-1.926-2.018-3.783-4.102-5.567-6.246-.767-1.097-1.549-2.184-2.347-3.259-4.437-5.623-8.981-11.835-12.479-18.127-1.397-2.494-2.718-5.03-3.959-7.605-2.447-5.137-4.575-10.42-6.373-15.818-.868-2.645-1.651-5.318-2.347-8.013-.007-.025-.06-.039-.067-.067-.025-.046-.229-.489-1.274-1.154-.713-.423-1.482-.742-2.284-.95h-.067c-1.223-.326-2.485-.486-3.751-.475h0Z"/>
        <path class="cls-1" d="M1739.93,1196.493c1.65,23.233,9.132,50.787,26.636,68.569,6.44,5.145,14.671,9.818,22.631,8.682-27.139-21.213-43.636-53.694-49.267-77.25h0Z"/>
        <path class="cls-25" d="M1757.849,1227.929c9.273,23.328,32.766,45.121,56.931,59.768,4.505.141,5.838.014,9.931-.239-17.296-9.477-45.171-22.997-66.862-59.528h0Z"/>
        <path class="cls-2" d="M1989.508,1291.254c-.788,0-1.577,0-2.365.028-12.855.401-22.075,4.698-44.435,4.698s-24.672-4.29-49.925-3.702c-23.592.553-33.494,5.314-46.297,5.127-12.806-.187-33.614-2.938-49.629-1.158-16.015,1.777-35.025,5.405-47.504,5.437-15.505-.074-31.024-3.079-47.236-1.365-16.212,1.71-23.792,6.317-43.89,6.253-17.278-.053-36.035-2.938-50.569-2.928-13.626.014-28.828,4.033-40.015,6.077l-3.343,6.165c8.914-1.094,33.927-5.131,42.855-5.377,9.301-.257,42.517,2.034,60.841,1.365,18.32-.665,20.467-4.93,42.127-4.93,15.079,0,26.446,1.679,41.919,1.679,9.656,0,18.419-5.229,33.1-5.229.743-.324,1.584,0,2.379,0,.662-.042,1.299-.127,1.974-.151l.95-.028c.482-.018.954-.049,1.429-.06.471-.025.947-.028,1.425-.042.26-.014.51-.032.757-.032.25-.018.486-.018.743-.028.482-.018.957-.039,1.429-.046,12.37-2.168,33.259.19,47.796.982,13.151.728,21.649-2.594,35.367-3.076.795-.028,1.545,0,2.309,0,.679-.042,1.355-.127,2.045-.148l.95-.032c.482-.018.957-.035,1.429-.046.471-.025.947-.042,1.429-.056.257-.014.507-.032.753-.032.253-.018.493,0,.743-.014.479-.018.957-.049,1.429-.06.471-.025.947-.028,1.429-.042.303-.014.588-.032.88-.032.672-.025,1.309.014,1.974,0,.788-.053,1.562-.134,2.379-.162,13.728-.486,25.478,2.696,38.404,2.629,12.894-.845,25.408-3.885,39.121-4.367.799-.028,1.605-.014,2.379-.014.662-.042,1.299-.127,1.971-.151l.954-.028c.482-.018.887-.039,1.358-.046.471-.025.947-.028,1.425-.042.274-.014.535-.032.813-.032.246-.018.5-.021.757-.028.482-.018.887-.039,1.358-.046.468-.025.943-.042,1.425-.06.341-.011.676-.032,1.024-.028.672-.021,1.295.014,1.957,0,.774-.053,1.594-.12,2.393-.148,9.072-.32,23.155.331,32.822,2.108l-3.333-6.106c-9.438-.317-21.072-2.675-32.456-2.675v-.004Z"/>
        <path class="cls-29" d="M1981.094,1280.697c-12.855.845-22.649,3.019-36.327,3.501-.957.035-1.854.014-2.777.014-.116.014-.222.014-.338.018-.401.021-.802.088-1.214.116l-.947.032c-.482.018-.954.049-1.425.06-.468.025-.957.028-1.436.042-.257.014-.496.032-.743.032-.25.018-.489.021-.739.028-.479.018-.954.035-1.422.046-.471.021-.943.028-1.425.046l-.894.028c-.401,0-.799-.035-1.214-.028-.113.011-.222,0-.334.014-.922.063-1.819.144-2.777.176-13.686.482-27.206-1.819-40.096-1.749-12.873.841-24.51,4.902-38.185,5.384-.936.032-1.876.025-2.777.028-.137.014-.267.014-.405.018-.394.021-.778.088-1.158.116l-.95.032c-.479.018-.883.035-1.355.042-.474.025-.948.045-1.422.06-.271.014-.535.032-.809.032-.246.018-.5,0-.753.014-.482.018-.887.049-1.355.06-.471.025-.943.028-1.425.046-.331.018-.672.018-1.017.028-.391,0-.764-.032-1.144-.028-.134.011-.285,0-.419.014-.904.06-1.844.144-2.78.176-13.675.486-25.337-1.812-38.21-1.749-12.855.841-24.454,2.055-38.129,2.537-.957.035-1.854.025-2.78.028-.113.014-.218.014-.334.018-.401.021-.799.074-1.214.102-.327.014-.63.039-.947.046-.475.018-.95.032-1.425.042-.468.025-.943.028-1.422.046-.26.011-.507.028-.757.028-.25.021-.489.021-.739.032-.479.018-.954.035-1.422.046-.471.021-.943.042-1.425.056-.296.014-.591.021-.894.032-.405,0-.799-.035-1.214-.032-.113.014-.222,0-.334.018-.922.063-1.819.127-2.777.162-13.675.482-25.496-.866-38.379-.802-12.869.845-24.496,3.969-38.171,4.452-.957.032-1.854.025-2.78.028-.109.014-.222.014-.334.018-.412.021-.823.07-1.228.102-.303.011-.584.035-.88.042-.479.018-.954.035-1.422.046-.471.021-.873.028-1.355.046-.26.011-.542.028-.809.028-.246.018-.496.021-.753.028-.479.018-.954.035-1.422.046-.471.021-.876.028-1.355.042-.341.021-.672.032-1.02.046-.401,0-.823-.035-1.214-.032-.113.014-.236,0-.348.018-.922.063-1.819.127-2.777.162-13.689.482-25.418-1.819-38.298-1.749-12.57.82-14.449,2.611-27.048,5.247l-9.6,17.62c11.229-1.981,28.096-7.161,42.07-7.172,14.491-.014,31.974,3.794,49.204,3.85,20.041.06,27.6-4.536,43.767-6.243,16.167-1.71,31.643,2.217,47.103,2.291,12.443-.032,31.397-4.578,47.37-6.355,15.97-1.777,30.609,1.235,49.858,1.548,19.249.317,22.272-4.958,45.797-5.507,25.182-.591,27.484,3.692,49.784,3.692,16.779.961,31.186-3.589,46.152-4.716,14.967-1.126,21.91.183,32.854.461l-7.27-13.672c-.123,0-.243.011-.363.014-13.679.482-20.178-3.449-33.051-3.382v-.003Z"/>
        <path class="cls-18" d="M1997.148,1298.335s11.215.929,15.924,1.724c4.709.799,12.229,1.587,12.229,1.587l-1.527-3.033c-2.379,1.267-18.299-1.186-26.625-.278h0Z"/>
        <path class="cls-7" d="M1798.318,900.66l-127.9,221.05-130.751,225.871,255.857-.028,261.445.028-127.943-221.039-130.709-225.881h0ZM1798.318,912.575l125.542,216.95,122.762,212.09-251.099-.014-245.525.014,125.585-216.922,122.734-212.119Z"/>
        <path class="cls-20" d="M1806.827,1196.493c1.541,23.564,8.305,46.884,24.637,64.92,6.007,5.222,13.686,9.959,21.111,8.805-27.428-19.531-40.494-49.833-45.748-73.724Z"/>
        <path class="cls-18" d="M1799.824,1108.443l-.531.011.531,13.017.528-13.017-.528-.011ZM1795.904,1108.735c-.346.041-.691.089-1.035.144l2.231,12.76-1.197-12.904h0ZM1803.741,1108.735l-1.193,12.904,2.228-12.76c-.344-.055-.689-.104-1.035-.144ZM1791.547,1109.622c-.343.1-.684.204-1.024.313l3.956,12.433-2.931-12.746h0ZM1808.097,1109.622l-2.928,12.746,3.952-12.433c-.34-.11-.681-.215-1.024-.313h0ZM1787.342,1111.174c-.32.144-.639.295-.954.45l5.479,11.571-4.526-12.021ZM1812.306,1111.174l-4.54,12.056,5.504-11.595c-.319-.159-.64-.312-.964-.461h0ZM1783.386,1113.324c-.299.194-.591.394-.883.595l6.985,10.684-6.102-11.279h0ZM1816.258,1113.334l-6.056,11.208,6.943-10.624c-.292-.201-.588-.391-.887-.584ZM1779.755,1116.044c-.267.232-.535.461-.795.704l8.301,9.505-7.506-10.209ZM1819.879,1116.044l-7.538,10.258,8.333-9.544c-.264-.243-.528-.482-.795-.714h0ZM1776.535,1119.26c-.236.271-.471.549-.7.827l9.449,8.157-8.748-8.984h0ZM1823.109,1119.26l-8.713,8.949,9.403-8.122c-.225-.28-.455-.555-.69-.827ZM1773.754,1122.927c-.192.301-.38.605-.563.911l10.413,6.676-9.85-7.587ZM1825.879,1122.927l-9.885,7.626,10.459-6.714c-.186-.307-.377-.611-.574-.911h0ZM1771.502,1126.946c-.155.324-.303.655-.45.982l11.184,5.089-10.733-6.07ZM1828.145,1126.956l-10.828,6.109,11.275-5.113c-.145-.333-.294-.664-.447-.992v-.003ZM1769.799,1131.281c-.109.345-.211.693-.31,1.042l11.711,3.364-11.402-4.406h0ZM1829.834,1131.281l-11.391,4.406,11.701-3.364c-.098-.349-.201-.696-.31-1.042h0ZM1768.697,1135.81c-.065.351-.122.703-.172,1.056l11.94,1.601-11.768-2.657h0ZM1830.946,1135.81l-11.757,2.657,11.919-1.601c-.048-.353-.102-.705-.162-1.056h0ZM1768.18,1140.434c-.019.365-.03.729-.035,1.094l12.162-.183-12.127-.911ZM1831.453,1140.434l-12.113.911,12.148.183c-.005-.365-.016-.73-.035-1.094ZM1780.398,1144.235l-12.091.873c.032.362.07.721.113,1.084l11.979-1.957ZM1819.249,1144.235l11.965,1.957c.042-.362.081-.721.113-1.084l-12.077-.873ZM1780.87,1147.064l-11.828,2.636c.077.352.151.707.239,1.056l11.588-3.692h0ZM1818.777,1147.064l11.585,3.692c.088-.348.162-.704.243-1.056l-11.828-2.636h0ZM1781.662,1149.819l-11.3,4.321c.123.334.25.669.38.996l10.92-5.317ZM1818.027,1149.844l10.863,5.293c.134-.327.264-.662.391-.996l-11.254-4.297ZM1816.729,1152.381l10.138,6.883c.176-.303.352-.612.517-.922l-10.656-5.961h0ZM1782.868,1152.406l-10.61,5.937c.165.31.334.619.507.922l10.103-6.859h0ZM1784.385,1154.81l-9.713,7.418c.204.285.419.563.633.838l9.079-8.256ZM1815.258,1154.81l9.069,8.245c.215-.274.44-.545.644-.827l-9.713-7.418ZM1786.261,1156.91l-8.678,8.801c.239.253.486.5.735.743l7.943-9.544ZM1813.386,1156.91l7.943,9.53c.246-.243.493-.489.735-.739l-8.678-8.791h0ZM1788.376,1158.73l-7.46,9.994c.274.215.546.436.827.644l6.633-10.638ZM1811.306,1158.768l6.595,10.585c.282-.204.556-.419.831-.63l-7.425-9.955h0ZM1790.709,1160.165l-6.116,11.071c.299.179.605.345.908.51l5.208-11.581ZM1808.948,1160.19l5.194,11.546c.303-.162.602-.327.897-.5l-6.092-11.046ZM1793.133,1161.464l-4.554,11.729c.317.127.644.236.968.352l3.586-12.081ZM1806.513,1161.464l3.586,12.081c.32-.116.648-.225.964-.352l-4.55-11.729h0ZM1795.776,1162.217l-2.977,12.31c.327.077.658.141.989.208l1.988-12.517h0ZM1803.867,1162.217l1.988,12.517c.334-.067.662-.13.989-.208l-2.977-12.31h0ZM1798.465,1162.579l-1.344,12.641c.341.032.683.063,1.024.084l.32-12.725ZM1801.178,1162.579l.324,12.725c.341-.021.683-.053,1.02-.084l-1.344-12.641h0Z"/>
        <path class="cls-11" d="M1581.899,1034.377h21.114v31.672h-21.114v-31.672Z"/>
        <path class="cls-8" d="M1801.144,1153.061c-2.956-.464-5.624-1.805-8.147-2.273-3.47,2.703-3.836,5.433-3.357,7.756,1.207.521,1.429,1.32,4.029,3.209,2.604,1.893,2.277,2.886,2.122,7.334-.067,1.872.32,5.898,2.657,6.274,2.52.408,4.279-1.292,5.004-4.328.7-2.949,1.918-4.536,3.202-6.348,1.408-6.911-.887-9.357-5.511-11.623h0Z"/>
        <path class="cls-6" d="M1787.008,1134.128c-2.365.056-6.07,3.751-7.717,1.763-.947-1.147-1.105-3.343-.148-5.191,2.22-4.269,4.466-6.363,8.608-8.639,9.442-5.194,15.442-3.523,20.147,3.938,4.36,6.574,8.544,13.826,8.917,19.914.116,1.858,1.122,5.219-.619,6.894-5.352,5.148-18.25-5.321-25.798-3.663-2.537.556-5.469,2.284-7.862.806-1.865-1.147-.306-3.695,1.08-4.797,2.432-1.928,5.961-8.766,5.479-11.729-.267-1.658-.317.662-2.087.704h0Z"/>
        <path class="cls-8" d="M1786.49,1129.3c-4.617,1.774-4.117,4.286-6.436,6.334.654.232,3.262,1.239,5.813-1.2,1.101-.852,2.337-1.168,2.886-1.443-1.299.883-2.231,2.21-2.914,2.727-1.728,1.309-4.409,4.314-5.718,7.355-1.305,3.044-1.833,6.665-1.598,7.101.236.433,1.816,3.1,6.676,4.906,8.657,3.216,10.304,9.716,19.087,9.716,6.88,0,5.775-4.209,11.282-3.315,4.768.774,7.306-2.773,2.71-4.906-5.845-1.869-17.448-.767-22.905.13-1.763-16.269-.236-10.557-.648-17.55-.412-6.992-2.653-7.411.31-13.073-2.463,3.477-5.444,2.928-8.544,3.216h0Z"/>
        <path class="cls-14" d="M1803.734,1119.165c-.141.908-.267,2.104-.194,2.446.303,1.383.609,2.829.968,4.054.398,1.372.56,2.365.834,3.786.285,1.471,1.397,2.041,2.414,2.945,1.288,1.144.292,4.233,1.094,4.36.64.102,1.7-4.371,1.707-5.085.021-.882-.022-1.764-.13-2.639-.458-1.2-.951-2.386-1.478-3.558-.007-.014-.028-.025-.032-.039-.204-.457-.431-.903-.679-1.337-.748-1.292-1.668-2.475-2.734-3.519-.063-.063-.127-.13-.194-.19-.292-.264-.591-.535-.901-.767-.218-.165-.45-.31-.676-.457h0ZM1804.856,1149.672c-3.076-.7-6.106-2.024-8.724-2.706-5.141-1.337-10.621-4.23-14.414-3.033-1.355.521-1.239,1.7-1.668,3.392-.18,1.992-2.555,4.923-.584,3.962,2.935-1.429,10.666,2.734,13.256,4.128,1.225.658,3.818,1.953,4.631,3.811.809,1.858.394,6.549.176,8.565-.229,2.111.51,6.845,2.938,7.411,2.615.612,4.617-1.204,5.634-4.589.989-3.287,1.735-5.173,3.245-7.144,1.506-1.971,3.234-2.822,5.652-3.216,2.414-.398,5.919,1.721,5.919-.76,0-1.629-1.643-3.188-.947-5.423.552-1.76-1.717-1.408-3.603-2.136-4.437-1.189-8.435-1.562-11.511-2.263h0Z"/>
        <path class="cls-27" d="M1794.095,1154.317c-1.51-.549-10.698-4.568-14.059-3.311-1.063.398-1.467-.049-1.482-.795-.018-.743.503-1.833.852-2.675.345-.841.904-2.446,2.386-3.283,3.174-1.788,10.48,1.777,14.358,2.741-.331,1.344-2.171,7.277-2.055,7.323h0Z"/>
        <path class="cls-13" d="M1805.543,1165.831c3.607-6.345,5.937-5.528,10.29-5.437,1.453.032,1.876-1.306,1.548-2.643-1.098,2.47-6.545-.274-9.512,1.038-6.194,2.745-5.043,14.928-7.978,16.117,3.051,2.579,4.424-6.911,5.652-9.076h0Z"/>
      </g>
    </g>
  </g>
</svg>