<?xml version="1.0" encoding="UTF-8"?>
<svg xmlns="http://www.w3.org/2000/svg" viewBox="0 0 3600.818 2401.738">
  <defs>
    <style>
      .cls-1 {
        fill: #b22334;
      }

      .cls-1, .cls-2, .cls-3, .cls-4, .cls-5, .cls-6 {
        stroke-width: 0px;
      }

      .cls-2 {
        fill: #3c3b6e;
      }

      .cls-2, .cls-3, .cls-6 {
        fill-rule: evenodd;
      }

      .cls-3 {
        fill: #d52b1e;
      }

      .cls-4 {
        fill: #fff;
      }

      .cls-5, .cls-6 {
        fill: #eee;
      }
    </style>
  </defs>
  <g id="background">
    <path id="bg" class="cls-3" d="M400,.1h2800c220,0,400,180,400,400v1600c0,220-180,400-400,400H400C180,2400.1,0,2220.1,0,2000.1V400.1C0,180.1,180,.1,400,.1Z"/>
  </g>
  <g id="country">
    <g id="ca">
      <rect class="cls-5" x="1100.478" y=".919" width="1399.045" height="2398.362"/>
      <path class="cls-3" d="M2049.117,1425.642l256.704-207.871-57.834-27.006c-8.082-3.819-12.057-13.057-9.275-21.551l50.74-156.041-147.857,31.373c-8.259,1.72-16.586-2.615-19.914-10.367l-28.643-67.381-115.394,123.851c-6.737,7.107-17.96,7.407-25.067.67-4.391-4.163-6.357-10.277-5.214-16.219l55.652-286.984-89.205,51.56c-8.451,4.951-19.315,2.113-24.265-6.338-.197-.337-.384-.68-.558-1.029l-90.57-177.863-90.568,177.863c-4.382,8.759-15.034,12.308-23.794,7.927-.35-.175-.694-.362-1.032-.56l-89.205-51.56,55.652,286.984c1.851,9.616-4.445,18.912-14.062,20.763-5.942,1.143-12.057-.822-16.219-5.214l-115.394-123.851-28.643,67.381c-3.328,7.752-11.655,12.087-19.914,10.367l-147.857-31.373,50.74,156.042c2.781,8.495-1.194,17.731-9.275,21.551l-57.832,27.006,256.701,207.871c5.895,4.786,8.09,12.794,5.457,19.916l-31.646,87.293,234.335-41.19c14.106-2.427,27.507,7.041,29.932,21.147.316,1.845.434,3.718.346,5.586l-12.274,235.425h49.102l-12.274-235.425c-.661-14.298,10.397-26.422,24.694-27.082,1.869-.086,3.741.031,5.584.349l234.335,41.19-31.646-87.293c-2.63-7.123-.436-15.129,5.457-19.916Z"/>
    </g>
    <g id="us">
      <path class="cls-6" d="M3200,.1H400C180,.1,0,180.1,0,400.1v1600C0,2122.096,55.35,2231.791,142.178,2305.315L3457.822,94.885C3388.07,35.821,3298.004.1,3200,.1Z"/>
      <g>
        <polygon class="cls-1" points="0 1302.698 1646.104 1302.698 1953.897 1097.502 0 1097.502 0 1302.698"/>
        <polygon class="cls-1" points="0 933.467 2199.949 933.467 2507.743 728.271 0 728.271 0 933.467"/>
        <polygon class="cls-1" points="0 1671.928 1092.258 1671.928 1400.051 1466.733 0 1466.733 0 1671.928"/>
        <path class="cls-1" d="M2.109,359.04C.716,372.545,0,386.243,0,400.1v164.136h2753.796l307.794-205.196H2.109Z"/>
        <path class="cls-1" d="M0,2000.1C0,2013.957.716,2027.655,2.109,2041.16h536.301l307.794-205.196H0v164.137Z"/>
        <path class="cls-1" d="M3200,.1H400C254.83.1,127.083,78.479,56.971,195.005h3250.671l150.169-100.113C3388.061,35.828,3298.003.1,3200,.1Z"/>
        <path class="cls-1" d="M142.189,2305.307l150.169-100.113H56.971c22.78,37.86,51.649,71.687,85.217,100.113Z"/>
      </g>
      <path class="cls-2" d="M1600,.1v1200H0V400.1C0,180.1,180,.1,400,.1h1200Z"/>
      <g id="_50" data-name="50">
        <g id="b">
          <path id="a" class="cls-4" d="M239.012,360.015l32.04,98.608-83.88-60.943h103.682l-83.881,60.943,32.04-98.608Z"/>
          <path id="a-2" class="cls-4" d="M239.012,550.796l32.04,98.608-83.88-60.943h103.682l-83.881,60.943,32.04-98.608Z"/>
          <path id="a-3" class="cls-4" d="M239.012,741.577l32.04,98.608-83.88-60.943h103.682l-83.881,60.943,32.04-98.608Z"/>
          <path id="a-4" class="cls-4" d="M239.012,169.234l32.04,98.608-83.88-60.943h103.682l-83.881,60.943,32.04-98.608h0Z"/>
          <path id="a-5" class="cls-4" d="M239.012,932.359l32.04,98.608-83.88-60.943h103.682l-83.881,60.943,32.04-98.608Z"/>
        </g>
        <g id="b-2">
          <path id="a-6" class="cls-4" d="M351.209,264.624l32.04,98.608-83.88-60.943h103.682l-83.881,60.943,32.04-98.608Z"/>
          <path id="a-7" class="cls-4" d="M351.209,455.406l32.04,98.608-83.88-60.943h103.682l-83.881,60.943,32.04-98.608h0Z"/>
          <path id="a-8" class="cls-4" d="M351.209,646.187l32.04,98.608-83.88-60.943h103.682l-83.881,60.943,32.04-98.608Z"/>
          <path id="a-9" class="cls-4" d="M351.209,836.969l32.04,98.608-83.88-60.943h103.682l-83.881,60.943,32.04-98.608Z"/>
        </g>
        <g id="b-3">
          <path id="a-10" class="cls-4" d="M463.407,169.234l32.04,98.608-83.88-60.943h103.682l-83.881,60.943,32.04-98.608h0Z"/>
          <path id="a-11" class="cls-4" d="M463.407,360.015l32.04,98.608-83.88-60.943h103.682l-83.881,60.943,32.04-98.608Z"/>
          <path id="a-12" class="cls-4" d="M463.407,550.796l32.04,98.608-83.88-60.943h103.682l-83.881,60.943,32.04-98.608Z"/>
          <path id="a-13" class="cls-4" d="M463.407,741.577l32.04,98.608-83.88-60.943h103.682l-83.881,60.943,32.04-98.608Z"/>
          <path id="a-14" class="cls-4" d="M463.407,932.359l32.04,98.608-83.88-60.943h103.682l-83.881,60.943,32.04-98.608Z"/>
        </g>
        <g id="b-4">
          <path id="a-15" class="cls-4" d="M575.605,264.624l32.04,98.608-83.88-60.943h103.682l-83.881,60.943,32.04-98.608h0Z"/>
          <path id="a-16" class="cls-4" d="M575.605,455.406l32.04,98.608-83.88-60.943h103.682l-83.881,60.943,32.04-98.608h0Z"/>
          <path id="a-17" class="cls-4" d="M575.605,646.187l32.04,98.608-83.88-60.943h103.682l-83.881,60.943,32.04-98.608h0Z"/>
          <path id="a-18" class="cls-4" d="M575.605,836.969l32.04,98.608-83.88-60.943h103.682l-83.881,60.943,32.04-98.608h0Z"/>
        </g>
        <g id="b-5">
          <path id="a-19" class="cls-4" d="M687.802,169.234l32.04,98.608-83.88-60.943h103.682l-83.881,60.943,32.04-98.608h0Z"/>
          <path id="a-20" class="cls-4" d="M687.802,360.015l32.04,98.608-83.88-60.943h103.682l-83.881,60.943,32.04-98.608Z"/>
          <path id="a-21" class="cls-4" d="M687.802,550.796l32.04,98.608-83.88-60.943h103.682l-83.881,60.943,32.04-98.608Z"/>
          <path id="a-22" class="cls-4" d="M687.802,741.577l32.04,98.608-83.88-60.943h103.682l-83.881,60.943,32.04-98.608Z"/>
          <path id="a-23" class="cls-4" d="M687.802,932.359l32.04,98.608-83.88-60.943h103.682l-83.881,60.943,32.04-98.608Z"/>
        </g>
        <g id="b-6">
          <path id="a-24" class="cls-4" d="M800,264.624l32.04,98.608-83.88-60.943h103.682l-83.881,60.943,32.04-98.608Z"/>
          <path id="a-25" class="cls-4" d="M800,455.406l32.04,98.608-83.88-60.943h103.682l-83.881,60.943,32.04-98.608h0Z"/>
          <path id="a-26" class="cls-4" d="M800,646.187l32.04,98.608-83.88-60.943h103.682l-83.881,60.943,32.04-98.608Z"/>
          <path id="a-27" class="cls-4" d="M800,836.969l32.04,98.608-83.88-60.943h103.682l-83.881,60.943,32.04-98.608Z"/>
        </g>
        <g id="b-7">
          <path id="a-28" class="cls-4" d="M912.198,169.234l32.04,98.608-83.88-60.943h103.682l-83.881,60.943,32.04-98.608h0Z"/>
          <path id="a-29" class="cls-4" d="M912.198,360.015l32.04,98.608-83.88-60.943h103.682l-83.881,60.943,32.04-98.608Z"/>
          <path id="a-30" class="cls-4" d="M912.198,550.796l32.04,98.608-83.88-60.943h103.682l-83.881,60.943,32.04-98.608Z"/>
          <path id="a-31" class="cls-4" d="M912.198,741.577l32.04,98.608-83.88-60.943h103.682l-83.881,60.943,32.04-98.608Z"/>
          <path id="a-32" class="cls-4" d="M912.198,932.359l32.04,98.608-83.88-60.943h103.682l-83.881,60.943,32.04-98.608Z"/>
        </g>
        <g id="b-8">
          <path id="a-33" class="cls-4" d="M1024.395,264.624l32.04,98.608-83.88-60.943h103.682l-83.881,60.943,32.04-98.608Z"/>
          <path id="a-34" class="cls-4" d="M1024.395,455.406l32.04,98.608-83.88-60.943h103.682l-83.881,60.943,32.04-98.608h0Z"/>
          <path id="a-35" class="cls-4" d="M1024.395,646.187l32.04,98.608-83.88-60.943h103.682l-83.881,60.943,32.04-98.608Z"/>
          <path id="a-36" class="cls-4" d="M1024.395,836.969l32.04,98.608-83.88-60.943h103.682l-83.881,60.943,32.04-98.608Z"/>
        </g>
        <g id="b-9">
          <path id="a-37" class="cls-4" d="M1136.592,169.234l32.04,98.608-83.88-60.943h103.682l-83.881,60.943,32.04-98.608h0Z"/>
          <path id="a-38" class="cls-4" d="M1136.592,360.015l32.04,98.608-83.88-60.943h103.682l-83.881,60.943,32.04-98.608Z"/>
          <path id="a-39" class="cls-4" d="M1136.592,550.796l32.04,98.608-83.88-60.943h103.682l-83.881,60.943,32.04-98.608Z"/>
          <path id="a-40" class="cls-4" d="M1136.592,741.577l32.04,98.608-83.88-60.943h103.682l-83.881,60.943,32.04-98.608Z"/>
          <path id="a-41" class="cls-4" d="M1136.592,932.359l32.04,98.608-83.88-60.943h103.682l-83.881,60.943,32.04-98.608Z"/>
        </g>
        <g id="b-10">
          <path id="a-42" class="cls-4" d="M1248.79,264.624l32.04,98.608-83.88-60.943h103.682l-83.881,60.943,32.04-98.608Z"/>
          <path id="a-43" class="cls-4" d="M1248.79,455.406l32.04,98.608-83.88-60.943h103.682l-83.881,60.943,32.04-98.608h0Z"/>
          <path id="a-44" class="cls-4" d="M1248.79,646.187l32.04,98.608-83.88-60.943h103.682l-83.881,60.943,32.04-98.608Z"/>
          <path id="a-45" class="cls-4" d="M1248.79,836.969l32.04,98.608-83.88-60.943h103.682l-83.881,60.943,32.04-98.608Z"/>
        </g>
        <g id="b-11">
          <path id="a-46" class="cls-4" d="M1360.987,169.234l32.04,98.608-83.88-60.943h103.682l-83.881,60.943,32.04-98.608h0Z"/>
          <path id="a-47" class="cls-4" d="M1360.987,360.015l32.04,98.608-83.88-60.943h103.682l-83.881,60.943,32.04-98.608Z"/>
          <path id="a-48" class="cls-4" d="M1360.987,550.796l32.04,98.608-83.88-60.943h103.682l-83.881,60.943,32.04-98.608Z"/>
          <path id="a-49" class="cls-4" d="M1360.987,741.577l32.04,98.608-83.88-60.943h103.682l-83.881,60.943,32.04-98.608Z"/>
          <path id="a-50" class="cls-4" d="M1360.987,932.359l32.04,98.608-83.88-60.943h103.682l-83.881,60.943,32.04-98.608Z"/>
        </g>
      </g>
    </g>
  </g>
</svg>