<?xml version="1.0" encoding="UTF-8"?>
<svg xmlns="http://www.w3.org/2000/svg" viewBox="0 0 3600.1 2401.738">
  <defs>
    <style>
      .cls-1 {
        fill: #dc143c;
      }

      .cls-1, .cls-2, .cls-3 {
        fill-rule: evenodd;
      }

      .cls-1, .cls-2, .cls-3, .cls-4 {
        stroke-width: 0px;
      }

      .cls-2 {
        fill: #fff;
      }

      .cls-3 {
        fill: #eee;
      }

      .cls-4 {
        fill: #003893;
      }
    </style>
  </defs>
  <g id="background">
    <path id="bg" class="cls-3" d="M400,.1h2800c220,0,400,180,400,400v1600c0,220-180,400-400,400H400C180,2400.1,0,2220.1,0,2000.1V400.1C0,180.1,180,.1,400,.1Z"/>
  </g>
  <g id="country">
    <g id="np">
      <g>
        <g>
          <path class="cls-1" d="M896.349,1161.96h1634.596L896.349,128.017v2201.636h1634.596L896.349,678.426v483.533Z"/>
          <path class="cls-4" d="M2699.808,2400.1H825.902V.1l1948.195,1232.307h-1230.222l1155.932,1167.693ZM966.796,2259.207h1395.286l-1016.458-1026.8h-378.828v1026.8ZM1404.402,1091.513h883.39L966.796,255.934v393.521l437.606,442.059ZM966.796,1091.513h239.354l-239.354-241.789v241.789Z"/>
        </g>
        <path class="cls-1" d="M896.349,128.017l1634.596,1033.942h-1155.77v.165l1155.77,1167.529H896.349V128.017Z"/>
        <path class="cls-2" d="M1304.862,1102.883c180.284,0,326.422-146.686,326.422-327.648-28.682,73.208-80.58,133.802-146.686,173.283l-27.861-20.835,54.632-41.128-66.106-17.002,34.967-59.495-68.292,9.868,10.108-67.997-59.276,35.644-16.935-67.174-40.973,54.835-40.973-54.835-17.211,66.901-59.001-35.096,10.105,68.545-68.289-10.143,35.511,59.498-66.651,16.999,54.632,41.128-27.316,21.11c-64.738-38.385-117.457-97.607-146.958-173.283,0,180.962,146.138,327.648,326.422,327.648l-.272-.824ZM1146.385,1586.739l-146.125-18.155,88.601,118.287-135.491,58.32,135.491,57.768-88.601,118.287,146.125-18.155-17.993,147.722,117.228-89.402,57.794,136.992,57.252-136.992,117.77,89.678-17.993-147.446,146.125,18.43-88.601-118.29,135.491-57.765-135.491-58.32,88.601-118.29-146.125,17.882,17.993-147.446-117.225,89.402-57.797-137.268-57.249,136.717-117.773-89.402,17.993,147.446h0Z"/>
      </g>
    </g>
  </g>
</svg>