<?xml version="1.0" encoding="UTF-8"?>
<svg xmlns="http://www.w3.org/2000/svg" viewBox="0 0 3600.1 2401.738">
  <defs>
    <style>
      .cls-1 {
        fill: #fff;
      }

      .cls-1, .cls-2, .cls-3 {
        stroke-width: 0px;
      }

      .cls-2 {
        fill: #002b7f;
        fill-rule: evenodd;
      }

      .cls-3 {
        fill: #ffc61e;
      }
    </style>
  </defs>
  <g id="background">
    <path id="nr" class="cls-2" d="M400,.1h2800c220,0,400,180,400,400v1600c0,220-180,400-400,400H400C180,2400.1,0,2220.1,0,2000.1V400.1C0,180.1,180,.1,400,.1Z"/>
  </g>
  <g id="country">
    <g id="nr-2" data-name="nr">
      <rect class="cls-3" x="0" y="1100.1" width="3600" height="200"/>
      <path class="cls-1" d="M600,2100.1l-51.76-206.816-148.24,153.224,58.576-204.984-204.976,58.576,153.224-148.24-206.824-51.76,206.816-51.76-153.224-148.24,204.984,58.576-58.576-204.976,148.24,153.224,51.76-206.824,51.76,206.816,148.24-153.224-58.576,204.984,204.976-58.576-153.224,148.24,206.824,51.76-206.816,51.76,153.224,148.24-204.984-58.576,58.576,204.976-148.24-153.224-51.76,206.824Z"/>
    </g>
  </g>
</svg>