<?xml version="1.0" encoding="UTF-8"?>
<svg xmlns="http://www.w3.org/2000/svg" viewBox="0 0 3600.1 2401.738">
  <defs>
    <style>
      .cls-1 {
        fill: #fedd00;
      }

      .cls-1, .cls-2, .cls-3, .cls-4, .cls-5, .cls-6, .cls-7, .cls-8 {
        stroke-width: 0px;
      }

      .cls-1, .cls-2, .cls-4, .cls-6, .cls-7, .cls-8 {
        fill-rule: evenodd;
      }

      .cls-2 {
        fill: #00247d;
      }

      .cls-3, .cls-8 {
        fill: #eee;
      }

      .cls-4 {
        fill: #012169;
      }

      .cls-5, .cls-7 {
        fill: #cf1b2b;
      }

      .cls-6 {
        fill: #ffe150;
      }
    </style>
  </defs>
  <g id="background">
    <path id="nu" class="cls-6" d="M400,.1h2800c220,0,400,180,400,400v1600c0,220-180,400-400,400H400C180,2400.1,0,2220.1,0,2000.1V400.1C0,180.1,180,.1,400,.1Z"/>
  </g>
  <g id="country">
    <g id="nu-2" data-name="nu">
      <g id="mini-gb">
        <path class="cls-2" d="M1600,.1v1200H0V400.1C0,180.1,180,.1,400,.1h1200Z"/>
        <path id="Path" class="cls-8" d="M1534.9.1h65.1v255.8l-545.5,354.3,545.5,354.2v235.7h-96l-679-440.9-679,440.9H0v-203.2l595.5-386.7L31.6,243.9C65.5,164.1,124.5,97.6,198.7,54.3l626.3,406.7L1534.9.1Z"/>
        <path id="Path-2" class="cls-7" d="M0,1189.3v-119.2l708.2-460L60,189.3c17.8-28.7,39.2-54.9,63.4-78.2l676.6,439.4L1600,31.1v119.3l-708.2,459.7,708.2,460v119.2l-800-519.5L0,1189.3Z"/>
        <polygon id="Shape" class="cls-3" points="1000 400.1 1600 400.1 1600 800.1 1000 800.1 1000 1200.1 600 1200.1 600 800.1 0 800.1 0 400.1 600 400.1 600 .1 1000 .1 1000 400.1"/>
        <polygon id="Shape-2" class="cls-5" points="900 500.1 900 .1 700 .1 700 500.1 0 500.1 0 700.1 700 700.1 700 1200.1 900 1200.1 900 700.1 1600 700.1 1600 500.1 900 500.1"/>
      </g>
      <g>
        <path class="cls-4" d="M632.406,601.828c0-92.56,75.034-167.594,167.594-167.594s167.594,75.034,167.594,167.594-75.034,167.594-167.594,167.594-167.594-75.034-167.594-167.594Z"/>
        <path class="cls-1" d="M639.317,549.065h122.752l37.932-114.831,37.932,114.831h122.752l-99.309,70.97,37.935,114.831-99.309-70.97-99.309,70.97,37.935-114.831-99.309-70.97ZM134.806,581.025h71.274l22.026-67.314,22.026,67.314h71.274l-57.663,41.605,22.026,67.314-57.663-41.605-57.663,41.605,22.026-67.314-57.663-41.605ZM704.972,250.613h72.594l22.433-68.634,22.433,68.634h72.594l-58.731,42.42,22.433,68.634-58.731-42.42-58.731,42.42,22.433-68.634-58.731-42.42ZM1278.594,581.025h71.274l22.026-67.314,22.026,67.314h71.274l-57.663,41.605,22.026,67.314-57.663-41.605-57.663,41.605,22.026-67.314-57.663-41.605ZM704.972,907.167h72.594l22.433-68.634,22.433,68.634h72.594l-58.731,42.42,22.433,68.634-58.731-42.42-58.731,42.42,22.433-68.634-58.731-42.42Z"/>
      </g>
    </g>
  </g>
</svg>