<?xml version="1.0" encoding="UTF-8"?>
<svg xmlns="http://www.w3.org/2000/svg" viewBox="0 0 3600.1 2401.738">
  <defs>
    <style>
      .cls-1 {
        fill: #00247d;
      }

      .cls-1, .cls-2, .cls-3, .cls-4, .cls-5, .cls-6, .cls-7 {
        stroke-width: 0px;
      }

      .cls-1, .cls-2, .cls-5, .cls-6, .cls-7 {
        fill-rule: evenodd;
      }

      .cls-2 {
        fill: #fff;
      }

      .cls-3, .cls-7 {
        fill: #eee;
      }

      .cls-4, .cls-6 {
        fill: #cf1b2b;
      }

      .cls-5 {
        fill: #c8102e;
      }
    </style>
  </defs>
  <g id="background">
    <path id="gb" class="cls-1" d="M400,.1h2800c220,0,400,180,400,400v1600c0,220-180,400-400,400H400C180,2400.1,0,2220.1,0,2000.1V400.1C0,180.1,180,.1,400,.1Z"/>
  </g>
  <g id="country">
    <g id="mini-gb">
      <path class="cls-1" d="M1600,.1v1200H0V400.1C0,180.1,180,.1,400,.1h1200Z"/>
      <path id="Path" class="cls-7" d="M1534.9.1h65.1v255.8l-545.5,354.3,545.5,354.2v235.7h-96l-679-440.9-679,440.9H0v-203.2l595.5-386.7L31.6,243.9C65.5,164.1,124.5,97.6,198.7,54.3l626.3,406.7L1534.9.1Z"/>
      <path id="Path-2" class="cls-6" d="M0,1189.3v-119.2l708.2-460L60,189.3c17.8-28.7,39.2-54.9,63.4-78.2l676.6,439.4L1600,31.1v119.3l-708.2,459.7,708.2,460v119.2l-800-519.5L0,1189.3Z"/>
      <polygon id="Shape" class="cls-3" points="1000 400.1 1600 400.1 1600 800.1 1000 800.1 1000 1200.1 600 1200.1 600 800.1 0 800.1 0 400.1 600 400.1 600 .1 1000 .1 1000 400.1"/>
      <polygon id="Shape-2" class="cls-4" points="900 500.1 900 .1 700 .1 700 500.1 0 500.1 0 700.1 700 700.1 700 1200.1 900 1200.1 900 700.1 1600 700.1 1600 500.1 900 500.1"/>
    </g>
    <g id="nz">
      <g>
        <path class="cls-2" d="M2560.563,616.06h104.099l32.169-100.467,32.169,100.467h104.099l-84.22,62.094,32.169,100.467-84.217-62.094-84.217,62.094,32.169-100.467-84.22-62.094ZM2145.423,1033.16h104.099l32.169-99.257,32.169,99.257h104.099l-84.22,61.346,32.169,99.257-84.217-61.346-84.217,61.346,32.169-99.257-84.22-61.346ZM2931.338,931.574l93.207.003,28.8-89.575,28.8,89.575,93.207-.003-75.407,55.359,28.803,89.575-75.404-55.359-75.404,55.359,28.803-89.575-75.407-55.359ZM2544.718,1689.786h117.415l36.282-112.573,36.282,112.573h117.415l-94.991,69.572,36.285,112.573-94.991-69.576-94.991,69.576,36.285-112.573-94.991-69.572Z"/>
        <path class="cls-5" d="M2608.099,631.661h68.996l21.321-65.364,21.321,65.364h68.996l-55.819,40.399,21.321,65.364-55.819-40.399-55.819,40.399,21.321-65.364-55.819-40.399ZM2192.958,1049.971h68.996l21.321-65.364,21.321,65.364h68.996l-55.819,40.399,21.321,65.364-55.819-40.399-55.819,40.399,21.321-65.364-55.819-40.399ZM2978.873,945.216h56.893l17.579-55.68,17.579,55.68h56.893l-46.027,34.412,17.582,55.683-46.027-34.412-46.027,34.412,17.582-55.683-46.027-34.412ZM2595.423,1704.176h78.68l24.313-76.259,24.313,76.259h78.68l-63.653,47.13,24.313,76.259-63.653-47.133-63.653,47.133,24.313-76.259-63.653-47.129Z"/>
      </g>
    </g>
  </g>
</svg>