<?xml version="1.0" encoding="UTF-8"?>
<svg xmlns="http://www.w3.org/2000/svg" viewBox="0 0 3600.1 2401.738">
  <defs>
    <style>
      .cls-1, .cls-2 {
        fill: #db161b;
      }

      .cls-1, .cls-2, .cls-3, .cls-4 {
        stroke-width: 0px;
      }

      .cls-2, .cls-5, .cls-6, .cls-7, .cls-8, .cls-9, .cls-10, .cls-11, .cls-12, .cls-13, .cls-14, .cls-15, .cls-16, .cls-17, .cls-18, .cls-19, .cls-20, .cls-21, .cls-22, .cls-23, .cls-24, .cls-25, .cls-4, .cls-26 {
        fill-rule: evenodd;
      }

      .cls-5 {
        stroke-width: .869px;
      }

      .cls-5, .cls-6, .cls-7, .cls-8, .cls-9, .cls-10, .cls-11, .cls-12, .cls-13, .cls-14, .cls-15, .cls-16, .cls-17, .cls-18, .cls-19, .cls-20, .cls-21, .cls-22, .cls-23, .cls-24, .cls-25, .cls-26 {
        fill: #fff;
        stroke: #db161b;
        stroke-miterlimit: 8;
      }

      .cls-6 {
        stroke-width: 1.39px;
      }

      .cls-7 {
        stroke-width: 1.472px;
      }

      .cls-8 {
        stroke-width: 2.246px;
      }

      .cls-9 {
        stroke-width: 1.554px;
      }

      .cls-10 {
        stroke-width: 1.28px;
      }

      .cls-11 {
        stroke-width: .927px;
      }

      .cls-12 {
        stroke-width: 1.278px;
      }

      .cls-13 {
        stroke-width: 1.888px;
      }

      .cls-14 {
        stroke-width: 1.726px;
      }

      .cls-15 {
        stroke-width: 1.281px;
      }

      .cls-16 {
        stroke-width: 1.606px;
      }

      .cls-17 {
        stroke-width: 1.413px;
      }

      .cls-18 {
        stroke-width: 1.278px;
      }

      .cls-19 {
        stroke-width: 1.824px;
      }

      .cls-20 {
        stroke-width: 1.628px;
      }

      .cls-21 {
        stroke-width: .985px;
      }

      .cls-22 {
        stroke-width: 1.416px;
      }

      .cls-23 {
        stroke-width: 1.334px;
      }

      .cls-3 {
        fill: green;
      }

      .cls-24 {
        stroke-width: 1.821px;
      }

      .cls-25 {
        stroke-width: 1.366px;
      }

      .cls-4 {
        fill: #eee;
      }

      .cls-26 {
        stroke-width: 1.464px;
      }
    </style>
  </defs>
  <g id="background">
    <path id="om" class="cls-4" d="M400,.1h2800c220,0,400,180,400,400v1600c0,220-180,400-400,400H400C180,2400.1,0,2220.1,0,2000.1V400.1C0,180.1,180,.1,400,.1Z"/>
  </g>
  <g id="country">
    <g id="om-2" data-name="om">
      <path class="cls-1" d="M3600,2000.1V800.1H0v1200C0,2220.1,180,2400.1,400,2400.1h2800c220,0,400-180,400-400Z"/>
      <path class="cls-3" d="M3600,2000.1v-400H0v400C0,2220.1,180,2400.1,400,2400.1h2800c220,0,400-180,400-400Z"/>
      <path class="cls-1" d="M400,.1C180,.1,0,180.1,0,400.1v1600C0,2220.1,180,2400.1,400,2400.1h800V.1H400Z"/>
      <g>
        <path class="cls-26" d="M931.563,407.745c.169,0,.308.127.308.287v79.707c0,.161-.139.287-.308.287h-147.27c-.169,0-.308-.127-.308-.287v-79.707c0-.161.139-.287.308-.287h147.27Z"/>
        <path class="cls-25" d="M931.576,407.741c.165,0,.3.123.3.275v75.511c0,.152-.135.27-.3.27h-143.062c-.165,0-.3-.118-.3-.27v-75.511c0-.152.135-.275.3-.275h143.062Z"/>
        <path class="cls-5" d="M854.32,428.906l7.39.249.334,3.207,6.042,2.962,4.703-3.701,5.708,2.962-5.37,3.207,1.339,4.441,6.718-.249v5.924l-5.375-.245-2.683,3.697,6.042,4.196-4.703,3.456-5.037-3.701-7.386,1.479.334,5.43-8.058.494-1.006-5.185-6.718-2.713-3.693,3.701-5.708-2.713,3.359-4.196-4.031-2.717h-5.708l-.334-7.648,5.708.494,4.027-4.441-4.699-3.452,6.042-3.951,4.365,3.207,7.39-.985,1.006-3.211h0Z"/>
        <path class="cls-11" d="M864.292,447.924c0,3.503-3.786,6.338-8.451,6.338s-8.455-2.835-8.455-6.338,3.786-6.338,8.455-6.338,8.451,2.839,8.451,6.338Z"/>
        <path class="cls-25" d="M805.065,411.949l-8.451,12.676M813.587,411.949l-12.676,12.676M822.042,411.949l-12.676,12.676M830.497,411.949l-12.676,12.676M838.952,411.949l-12.68,12.676M843.106,411.949l-8.451,12.676M851.556,411.949l-8.451,12.676M860.087,411.949l-12.676,12.676M868.542,411.949l-12.68,12.676M876.993,411.949l-12.676,12.676M885.448,411.949l-12.676,12.676M889.597,411.949l-8.451,12.676M860.087,411.949l-12.676,12.676M898.132,411.949l-12.676,12.676M906.583,411.949l-12.676,12.676M915.038,411.949l-12.676,12.676M923.493,411.949l-12.676,12.676M910.31,411.945l12.676,12.676M901.863,411.945l12.676,12.676M893.417,411.945l12.676,12.676M884.966,411.945l12.676,12.676M880.825,411.945l8.451,12.676M872.299,411.945l12.676,12.676M863.852,411.945l12.676,12.676M855.401,411.945l12.676,12.676M846.955,411.945l12.676,12.676M842.81,411.945l8.451,12.676M834.359,411.945l8.451,12.676M825.837,411.945l12.676,12.676M855.401,411.945l12.676,12.676M817.394,411.945l12.676,12.676M808.944,411.945l12.676,12.676M800.493,411.945l12.676,12.676M796.344,411.945l8.451,12.676M805.065,471.163l-8.451,8.451M813.587,471.163l-12.676,8.451M822.042,471.163l-12.676,8.451M830.497,471.163l-12.676,8.451M838.952,471.163l-12.68,8.451M843.106,471.163l-8.451,8.451M851.556,471.163l-8.451,8.451M860.087,471.163l-12.676,8.451M868.542,471.163l-12.68,8.451M876.993,471.163l-12.676,8.451M885.448,471.163l-12.676,8.451M889.597,471.163l-8.451,8.451M860.087,471.163l-12.676,8.451M898.132,471.163l-12.676,8.451M906.583,471.163l-12.676,8.451M915.038,471.163l-12.676,8.451M923.493,471.163l-12.676,8.451M910.31,471.163l12.676,8.451M901.863,471.163l12.676,8.451M893.417,471.163l12.676,8.451M884.966,471.163l12.676,8.451M880.825,471.163l8.451,8.451M872.299,471.163l12.676,8.451M863.852,471.163l12.676,8.451M855.401,471.163l12.676,8.451M846.955,471.163l12.676,8.451M842.81,471.163l8.451,8.451M834.359,471.163l8.451,8.451M825.837,471.163l12.676,8.451M855.401,471.163l12.676,8.451M817.394,471.163l12.676,8.451M808.944,471.163l12.676,8.451M800.493,471.163l12.676,8.451M796.344,471.163l8.451,8.451"/>
        <path class="cls-26" d="M428.548,403.52c.177,0,.321.127.321.287v79.707c0,.161-.144.287-.321.287h-151.479c-.169,0-.313-.127-.313-.287v-79.707c0-.161.139-.287.317-.287h151.475Z"/>
        <path class="cls-25" d="M424.344,407.745c.165,0,.296.118.296.258v71.32c0,.139-.131.254-.296.254h-143.062c-.169,0-.3-.114-.3-.254v-71.32c0-.139.135-.258.296-.258h143.066Z"/>
        <path class="cls-5" d="M347.083,424.672l7.386.279.338,3.608,6.042,3.33,4.703-4.162,5.704,3.33-5.366,3.608,1.339,4.999,6.718-.279v6.663l-5.375-.279-2.687,4.162,6.042,4.72-4.699,3.887-5.037-4.166-7.386,1.669.338,6.106-8.062.554-1.01-5.827-6.714-3.055-3.693,4.162-5.708-3.051,3.355-4.72-4.027-3.055h-5.708l-.338-8.603,5.708.554,4.031-4.994-4.703-3.887,6.046-4.441,4.365,3.608,7.386-1.111,1.01-3.608Z"/>
        <path class="cls-11" d="M357.042,443.699c0,3.499-3.782,6.338-8.451,6.338s-8.451-2.839-8.451-6.338,3.786-6.338,8.451-6.338,8.451,2.835,8.451,6.338Z"/>
        <path class="cls-25" d="M302.108,407.72l-12.676,12.676M310.563,407.72l-12.676,12.676M314.789,407.72l-8.451,12.676M323.244,407.72l-12.676,12.676M331.699,407.72l-12.676,12.676M340.154,407.72l-12.676,12.676M348.608,407.72l-12.676,12.676M352.83,407.72l-8.451,12.676M361.28,407.72l-8.451,12.676M369.744,407.72l-12.676,12.676M378.199,407.72l-12.676,12.676M386.649,407.72l-12.676,12.676M352.83,407.72l-8.451,12.676M395.104,407.72l-12.676,12.676M399.321,407.72l-8.451,12.676M407.772,407.72l-8.451,12.676M416.239,407.72l-12.676,12.676M403.479,407.72l12.676,12.676M399.27,407.72l8.451,12.676M390.82,407.72l8.451,12.676M382.361,407.72l12.676,12.676M373.914,407.72l12.676,12.676M365.468,407.72l12.676,12.676M357.017,407.72l12.676,12.676M352.804,407.72l8.451,12.676M344.354,407.72l8.451,12.676M335.903,407.72l12.676,12.676M327.452,407.72l12.676,12.676M319.006,407.72l12.676,12.676M352.804,407.72l8.451,12.676M310.559,407.72l12.676,12.676M306.338,407.72l8.451,12.676M297.887,407.72l12.676,12.676M289.441,407.72l12.676,12.676M302.108,466.904l-12.676,12.676M310.563,466.904l-12.676,12.676M314.789,466.904l-8.451,12.676M323.244,466.904l-12.676,12.676M331.699,466.904l-12.676,12.676M340.154,466.904l-12.676,12.676M348.608,466.904l-12.676,12.676M352.83,466.904l-8.451,12.676M361.28,466.904l-8.451,12.676M369.744,466.904l-12.676,12.676M378.199,466.904l-12.676,12.676M386.649,466.904l-12.676,12.676M352.83,466.904l-8.451,12.676M395.104,466.904l-12.676,12.676M399.321,466.904l-8.451,12.676M407.772,466.904l-8.451,12.676M416.239,466.904l-12.676,12.676M403.479,466.904l12.676,12.676M399.27,466.904l8.451,12.676M390.82,466.904l8.451,12.676M382.361,466.904l12.676,12.676M373.914,466.904l12.676,12.676M365.468,466.904l12.676,12.676M357.017,466.904l12.676,12.676M352.804,466.904l8.451,12.676M344.354,466.904l8.451,12.676M335.903,466.904l12.676,12.676M327.452,466.904l12.676,12.676M319.006,466.904l12.676,12.676M352.804,466.904l8.451,12.676M310.559,466.904l12.676,12.676M306.338,466.904l8.451,12.676M297.887,466.904l12.676,12.676M289.441,466.904l12.676,12.676"/>
        <path class="cls-8" d="M514.28,576.054c-187.906,181.969-268.065,204.989-230.442,219.655,37.618,14.666,158.62-79.251,284.535-204,125.916-124.749,203.028-235.77,165.406-250.437-37.618-14.666-19.644,41.235-219.499,234.782Z"/>
        <path class="cls-10" d="M356.049,707.72l64.589,17.421c-60.79,59.239-129.177,83.637-148.17,73.183-18.997-10.454,34.192-34.851,83.582-90.608v.004Z"/>
        <path class="cls-15" d="M357.604,716.17l54.592,13.703c-60.773,55.994-120.879,71.937-136.432,65.087-15.638-6.854,32.468-26.087,81.845-78.794l-.004.004ZM555.684,568.304c-.127.769-.494,4.268-.828,5.662,0,1.923-.19,3.397-.414,4.901-.528,1.314-.439,2.535-2.07,3.021-1.124,1.589-1.83,1.999-3.317,2.641-1.014.799-2.544,1.593-4.141,2.265-1.656.642-3.161.731-4.973.376-1.449-.921-2.518-1.872-3.727-2.641-.283-1.192-.545-2.958-.828-4.149.448,1.221.761,3.177.828,4.901-.161,1.885-.837,2.704-1.656,4.149M538.72,596.699l-.49-.439c1.158,1.039.685.545-1.952-.875-1.893-.875-3.917-1.335-6.346-1.753h-6.832c-2.147-.016-4.285.28-6.346.879-1.373,1.234-3.431,1.935-4.88,3.063-1.487.908-2.125,1.986-2.928,3.507-1.331,1.187-2.189,3.03-3.418,3.938-.549,2.011-1.669,1.944-2.438,3.507,2.299.156,4.145.439,5.366,1.749,2.028.942-1.699-.921-2.438-1.753-1.597-.431-2.011-.875-4.394-.875-2.227-.634-3.575.515-5.856.875-1.331.693-1.703.879-3.418.879M513.499,617.897c-.989.051-5.493.761-7.276,0-1.977-.465-3.156-1.352-4.365-2.903-.592-1.124,0,1.986,0,3.317-.22,2.442-1.056,2.463-2.421,4.149-1.411.769-2.89,1.859-4.365,2.489-1.225.904-2.725,1.513-4.365,2.07-1.47.6-3.19,1.204-4.365,2.079-1.618.989-1.462,2.172-2.421,3.731.182,2.028.566,3.177,1.939,4.149.57,1.403,1.859,2.789,2.907,3.731,1.2,1.906,2.527,2.806-.486,3.321-1.652.604-2.577.127-4.361,0M483.955,646.401c-2.527-.62-5.035-1.313-7.521-2.079h-7.014c-2.721.169-3.241.832-5.518,1.661-1.47,1.246-2.476,2.104-4.513,2.911-1.073,1.153-3.169,3.11-4.01,4.572-.596,1.42-1.001,3.338-1.001,5.404.034,2.425.803,2.839,1.001,4.986.562,1.783,1.479,3.423,3.008,4.986.211.528.368.655,1.001.832"/>
        <path class="cls-18" d="M462.87,676.608c-.211,0-.668,1.018-1.386,1.893-1.568,1.466-1.77,1.576-4.158,1.576-2.155-.072-1.952-.773-3.465-1.263-.71-1.014-1.606-1.817-2.421-3.152-.558-.824-1.048-2.083-1.732-2.835-.634-.938-1.42-1.644-2.079-2.523-.646-.254-.896-.499-1.732-.634,1.994.296,2.172.942,3.465,1.893.608.896,1.208,1.834,1.732,2.839.199,1.348.672,2.408.693,4.099,0,1.745-.008,2.962-.693,4.415-.815.777-1.42,1.585-2.425,2.206-.884.765-1.695,1.61-2.425,2.522-1.086.609-1.876,1.103-3.114,1.893-1.048.554-2.172,1.128-3.811,1.259-2.032-.131-2.637-.655-4.158-1.259-1.289-.866-2.307-1.437-3.465-2.21-.9-.575-1.817-1.716-2.421-2.522-1.876-.423-3.063-.254-4.158.634-.951.592-1.775,1.339-2.425,2.206-.562.258-1.513,1.006-2.075,1.263"/>
        <path class="cls-12" d="M423.845,690.789c.507.215,2.375,1.517,3.194,1.999.511,1.686,1.327,2.603,1.597,4.399.435,1.732.401,3.642.401,5.594-.439,2.045-1.289,3.554-1.999,5.197-1.263.858-1.901,1.492-3.596,2.4-1.721.257-3.458.389-5.197.397-1.217.406-3.592.604-4.796,0-1.779-.241-3.106-.963-4.394-1.597-1.479-.837-2.387-1.627-4.001-2.4-.782-1.149-1.999-2.21-3.194-3.596-.997-1.348-1.728-2.1-2.4-3.596.592,1.707,1.487,3.194,1.999,4.796.908,1.699,1.437,2.303,1.597,4.394.558,1.673.401,3.685.401,5.599-.177,1.297-.266,3.731-.803,4.796v1.2"/>
        <path class="cls-10" d="M359.514,729.049v.575c0-1.546-.042-.761.685,2.294,1.289,1.344,4.31,1.716,6.837,1.149,2.21-1.534,2.142-2.696,6.152-3.444,3.875.232,5.349,1.175,7.521,2.294,2.573,1.082,3.761,1.627,5.468,4.018.845,1.948,1.323,3.266-1.369,4.018-2.138,1.272-4.677,1.973-7.521,2.294-3.156,0-5.434-.308-6.832,1.149-2.172,1.889-2.054,3.008-2.054,6.313-.727,1.023-.875,4.035-1.365,5.168-1.901.752-3.017,1.145-6.156,1.145-.735-1.775-1.555-4.973-2.049-6.887-.537-2.062-.701-4.939-2.049-6.313-1.334-1.622-2.957-2.983-4.787-4.014-.837-.989-2.43-1.808-4.099-2.299,2.679,1.149,3.059,2.392,3.414,5.168-2.358.989-2.987,1.682-6.837,1.72-3.782-.266-4.699-1.073-6.152-2.873-.262,2.882-1.361,3.845-2.049,6.317-1.407,1.732-2.007,3.515-3.423,5.738.604,2.768,1.901,2.907,2.054,6.313.887,2.239.79,4.394,2.734,5.742.866.887,1.517,1.061,3.423,1.149-3.959,0-6.266-.359-8.89-1.724-2.028-1.048-3.562-2.354-5.472-3.444-2.417-1.47-5.408-2.831-8.201-3.444-3.156,0-5.434-.313-6.837,1.149-1.935,1.158-3.237,3.165-4.099,5.738-.634,2.979-.879,4.961.68,6.887,1.158,2.21,1.42,3.072,0,5.738-1.589,1.868-3.955,2.087-7.521,2.873-2.317-.107-4.612-.493-6.837-1.149"/>
        <path class="cls-19" d="M728.117,412.072c82.052-144.549,136.508-267.566,121.555-274.593-14.949-7.027-93.676,104.586-175.728,249.135l54.173,25.458Z"/>
        <path class="cls-9" d="M722.299,407.847c80.599-138.135,136.128-254.768,123.946-260.337-12.182-5.565-87.477,102.025-168.076,240.161"/>
        <path class="cls-24" d="M707.417,336.075c-9.423,16.073-19.428,34.449-29.121,51.634l42.456,20.079c9.693-17.185,20.265-35.29,29.121-51.634l-42.456-20.079Z"/>
        <path class="cls-24" d="M713.054,340.304c-9.646,16.77-16.382,29.607-26.303,47.539l32.59,15.714c9.925-17.932,17.239-30.486,26.307-47.539l-32.594-15.714h0Z"/>
        <path class="cls-24" d="M737.324,359.432l-22.382-10.741-19.872,35.738,22.382,10.741,19.872-35.738ZM737.324,359.432l-42.254,24.997M717.456,395.17l-2.514-46.479M834.507,188.128l-21.127-8.451"/>
        <path class="cls-2" d="M825.499,168.417c.862,2.717,4.644,4.289,8.451,3.507s6.199-3.617,5.341-6.338c-.862-2.717-4.644-4.289-8.451-3.507s-6.199,3.617-5.341,6.338Z"/>
        <path class="cls-8" d="M694.17,571.828c187.906,181.969,268.065,204.989,230.446,219.655-37.623,14.666-158.624-79.251-284.539-204-125.916-124.749-203.028-235.77-165.406-250.437,37.618-14.666,19.644,41.235,219.499,234.782Z"/>
        <path class="cls-10" d="M852.596,703.49l-64.589,17.425c60.786,59.239,129.177,83.637,148.17,73.179,18.997-10.454-34.196-34.847-83.582-90.604Z"/>
        <path class="cls-15" d="M851.045,711.941l-54.587,13.703c60.769,55.999,120.879,71.941,136.432,65.092,15.638-6.854-32.468-26.091-81.845-78.794ZM652.804,564.058c.127.925.494,5.121.828,6.79,0,2.307.19,4.082.414,5.886.528,1.576.439,3.042,2.075,3.621,1.12,1.91,1.825,2.4,3.313,3.169,1.01.959,2.544,1.914,4.141,2.717,1.656.777,3.165.883,4.973.452,1.449-1.103,2.518-2.244,3.727-3.169.283-1.428.545-3.549.828-4.977-.448,1.466-.761,3.811-.828,5.886.161,2.261.837,3.245,1.656,4.977M669.799,592.473l.49-.439c-1.162,1.039-.685.545,1.952-.875,1.893-.875,3.917-1.339,6.346-1.753h6.832c2.658,0,4.449.359,6.346.875,1.373,1.238,3.431,1.939,4.88,3.068,1.487.908,2.125,1.982,2.928,3.503,1.331,1.192,2.189,3.034,3.418,3.942.549,2.011,1.669,1.944,2.438,3.503-2.303.161-4.145.444-5.366,1.753-2.028.942,1.699-.925,2.438-1.753,1.597-.431,2.011-.875,4.394-.875,2.227-.634,3.575.515,5.856.875,1.331.693,1.703.875,3.418.875M695.037,613.672c.985.046,5.493.761,7.272,0,1.982-.465,3.156-1.356,4.365-2.907.596-1.12,0,1.99,0,3.321.22,2.442,1.061,2.463,2.425,4.145,1.407.773,2.886,1.859,4.361,2.493,1.225.904,2.725,1.513,4.365,2.07,1.47.596,3.19,1.204,4.365,2.075,1.623.993,1.462,2.176,2.425,3.735-.186,2.028-.57,3.177-1.939,4.149-.575,1.399-1.859,2.789-2.911,3.731-1.2,1.906-2.527,2.806.486,3.321,1.652.604,2.582.131,4.365,0M724.601,642.172c2.527-.617,5.035-1.311,7.521-2.079h7.018c2.721.177,3.237.837,5.514,1.665,1.47,1.242,2.48,2.104,4.513,2.911,1.077,1.149,3.169,3.11,4.01,4.572.6,1.416,1.006,3.334,1.006,5.4-.038,2.425-.807,2.839-1.006,4.99-.583,1.881-1.616,3.593-3.008,4.986-.211.528-.363.655-1.001.832"/>
        <path class="cls-18" d="M745.707,672.383c.207,0,.668,1.018,1.386,1.893,1.568,1.466,1.77,1.576,4.158,1.576,2.151-.072,1.952-.773,3.461-1.263.714-1.014,1.606-1.817,2.425-3.152.558-.824,1.048-2.083,1.732-2.839.634-.934,1.42-1.639,2.079-2.523.646-.254.896-.494,1.732-.63-1.999.292-2.172.942-3.465,1.893-.631.911-1.21,1.858-1.732,2.835-.199,1.352-.672,2.413-.693,4.103,0,1.741.008,2.962.693,4.411.815.782,1.42,1.589,2.425,2.21.794.71,1.796,1.682,2.425,2.523,1.086.608,1.876,1.103,3.114,1.893,1.044.554,2.172,1.124,3.811,1.259,2.032-.131,2.637-.655,4.158-1.259,1.289-.866,2.307-1.432,3.461-2.21.904-.575,1.821-1.716,2.425-2.523,1.876-.427,3.063-.254,4.158.63.951.592,1.775,1.344,2.421,2.21.566.258,1.513,1.001,2.079,1.259"/>
        <path class="cls-12" d="M784.745,686.563c-.511.215-2.375,1.517-3.199,1.999-.511,1.682-1.327,2.603-1.597,4.399-.435,1.732-.401,3.638-.401,5.594.439,2.045,1.289,3.554,1.999,5.197,1.263.858,1.897,1.492,3.6,2.396,1.593.215,3.156.401,5.193.401,1.221.406,3.592.604,4.8,0,1.779-.241,3.101-.963,4.394-1.597,1.475-.837,2.383-1.627,3.997-2.4.782-1.154,2.003-2.214,3.199-3.596.993-1.348,1.724-2.104,2.396-3.6-.592,1.707-1.487,3.199-1.999,4.8-.908,1.699-1.437,2.303-1.597,4.394-.558,1.673-.401,3.685-.401,5.594.177,1.301.27,3.735.803,4.8v1.196"/>
        <path class="cls-10" d="M849.135,724.832v.621c0-1.677.046-.828-.68,2.485-1.293,1.458-4.314,1.859-6.837,1.247-2.214-1.665-2.146-2.92-6.152-3.731-3.875.249-5.354,1.272-7.521,2.485-2.577,1.175-3.761,1.762-5.472,4.352-.845,2.113-1.318,3.537,1.369,4.352,2.138,1.382,4.677,2.138,7.521,2.489,3.156,0,5.434-.338,6.837,1.242,2.168,2.045,2.049,3.262,2.049,6.841.731,1.107.875,4.369,1.369,5.594,1.897.82,3.013,1.242,6.152,1.242.735-1.918,1.555-5.387,2.049-7.458.537-2.235.701-5.354,2.053-6.841,1.309-1.736,2.931-3.213,4.783-4.352.837-1.069,2.434-1.956,4.103-2.489-2.683,1.247-3.063,2.59-3.418,5.599,2.358,1.073,2.987,1.821,6.837,1.863,3.782-.287,4.699-1.162,6.152-3.106.266,3.118,1.361,4.162,2.049,6.837,1.407,1.88,2.007,3.807,3.418,6.22-.6,2.996-1.897,3.144-2.049,6.837-.887,2.425-.79,4.758-2.734,6.22-.866.963-1.513,1.154-3.418,1.242,3.955,0,6.266-.389,8.886-1.863,2.028-1.137,3.562-2.552,5.472-3.731,2.417-1.593,5.413-3.068,8.201-3.731,3.161,0,5.434-.338,6.837,1.242,1.939,1.259,3.237,3.431,4.103,6.22.634,3.224.875,5.375-.685,7.462-1.153,2.392-1.416,3.325,0,6.216,1.589,2.024,3.959,2.261,7.521,3.11,2.323-.116,4.622-.535,6.837-1.247"/>
        <path class="cls-19" d="M480.334,407.847c-82.052-144.549-136.508-267.566-121.555-274.593,14.949-7.027,93.676,104.586,175.728,249.135l-54.173,25.458Z"/>
        <path class="cls-9" d="M486.152,403.621c-80.599-138.135-136.124-254.768-123.946-260.337,12.182-5.565,87.477,102.025,168.076,240.161"/>
        <path class="cls-24" d="M501.034,331.849c9.423,16.073,19.428,34.449,29.121,51.634l-42.456,20.079c-9.693-17.185-20.265-35.29-29.121-51.634l42.456-20.079Z"/>
        <path class="cls-24" d="M495.397,336.079c9.651,16.77,16.386,29.607,26.307,47.539l-32.594,15.714c-9.921-17.932-17.235-30.486-26.303-47.539l32.59-15.714Z"/>
        <path class="cls-24" d="M471.127,358.456l22.382-9.765,19.872,32.489-22.382,9.765-19.872-32.489ZM471.127,358.456l42.254,22.724M490.999,390.945l2.514-42.254M373.944,183.903l21.127-8.451"/>
        <path class="cls-2" d="M379.115,164.192c-.646,2.717-3.482,4.289-6.338,3.507s-4.648-3.617-4.006-6.338c.646-2.717,3.482-4.289,6.338-3.507s4.648,3.617,4.006,6.338Z"/>
        <path class="cls-16" d="M549.372,331.68c0,122.007.718,167.996-8.18,174.296-8.434,6.748-243.338,0-243.338,34.859s193.479,69.723,251.518,69.718c77.392,0,116.087-34.859,116.087-104.577v-174.296h-116.087Z"/>
        <path class="cls-25" d="M547.17,369.734v16.901c39.235,5.637,79.075,5.637,118.31,0v-16.901c-39.235,5.637-79.075,5.637-118.31,0ZM547.17,331.676v20.282c39.147,6.761,79.163,6.761,118.31,0v-20.282c-39.147,6.761-79.163,6.761-118.31,0Z"/>
        <path class="cls-25" d="M547.17,352.828v16.901c39.236,5.632,79.074,5.632,118.31,0v-16.901c-39.236,5.632-79.074,5.632-118.31,0ZM547.17,386.644v16.901c39.236,5.632,79.074,5.632,118.31,0v-16.901c-39.236,5.632-79.074,5.632-118.31,0Z"/>
        <path class="cls-20" d="M559.855,361.363c0,2.332-2.839,4.225-6.342,4.225s-6.338-1.893-6.338-4.225,2.839-4.225,6.338-4.225,6.342,1.893,6.342,4.225ZM580.969,361.346c0,2.332-2.835,4.225-6.338,4.225s-6.338-1.893-6.338-4.225,2.839-4.225,6.338-4.225,6.338,1.893,6.338,4.225ZM602.087,365.563c0,2.332-2.839,4.225-6.338,4.225s-6.338-1.893-6.338-4.225,2.839-4.225,6.338-4.225,6.338,1.893,6.338,4.225ZM623.206,365.563c0,2.332-2.839,4.225-6.338,4.225s-6.338-1.893-6.338-4.225,2.835-4.225,6.338-4.225,6.338,1.893,6.338,4.225ZM644.324,361.346c0,2.332-2.839,4.225-6.338,4.225s-6.338-1.893-6.338-4.225,2.835-4.225,6.338-4.225,6.338,1.893,6.338,4.225ZM665.438,361.363c0,2.332-2.835,4.225-6.338,4.225s-6.338-1.893-6.338-4.225,2.839-4.225,6.338-4.225,6.338,1.893,6.338,4.225Z"/>
        <path class="cls-25" d="M547.17,420.417l118.31,92.958M559.846,420.421l105.634,80.282M576.748,424.642l88.732,67.606M585.199,424.647l80.282,54.934M597.875,424.647l67.606,46.479M610.551,424.642l54.93,38.028M618.997,424.651l46.479,25.352M631.673,424.642l33.803,21.127M644.349,424.651l21.127,12.676M657.025,424.685l8.451,4.225M547.17,428.872l118.31,92.958M665.51,420.417l-130.986,101.408M652.838,420.417l-114.085,88.732M635.941,424.642l-88.732,67.606M623.269,424.647l-76.056,54.93M614.823,424.647l-67.606,46.479M602.155,424.642l-54.93,38.028M589.479,424.651l-42.254,25.352M576.803,424.642l-29.577,21.127M568.365,424.651l-21.127,12.676M555.693,424.685l-8.451,4.225M665.51,428.868l-130.986,105.634M665.51,441.552l-130.986,101.408M665.51,450.003l-130.986,105.634M665.51,462.687l-130.986,101.408M665.51,471.142l-130.986,101.408M665.51,479.593l-130.986,105.634M665.51,492.273l-130.986,101.408M665.51,500.728l-130.986,105.634M665.51,513.408l-122.535,97.183M665.501,521.859l-109.859,88.732M661.268,538.773l-84.507,67.606M657.042,551.454l-71.831,54.93M648.579,568.368l-33.803,25.352M547.17,441.552l114.085,88.732M547.166,450.003l114.089,88.732M547.166,462.683l109.863,84.507M547.166,471.138l109.863,84.507M547.166,479.589l105.634,84.507M542.941,488.044l105.634,84.507M542.941,500.728l97.183,71.835M538.716,504.954l97.183,76.061M534.49,513.413l92.958,71.831M534.49,521.863l88.732,71.831M534.49,534.548l80.282,59.155M547.17,403.549v16.901c39.235,5.637,79.075,5.637,118.31,0v-16.901c-39.235,5.637-79.075,5.637-118.31,0ZM534.49,543.003l71.831,54.93M534.49,555.683l63.38,46.479M534.49,564.134l54.93,42.254M534.49,572.585l42.254,33.807M534.49,585.269l33.803,25.352M534.49,593.72l21.127,16.901"/>
        <path class="cls-20" d="M559.855,412.089c0,2.337-2.839,4.225-6.342,4.225s-6.338-1.889-6.338-4.225,2.839-4.225,6.338-4.225,6.342,1.893,6.342,4.225ZM580.969,414.185c0,1.166-2.835,2.113-6.338,2.113s-6.338-.946-6.338-2.113,2.839-2.113,6.338-2.113,6.338.946,6.338,2.113ZM602.087,416.289c0,2.337-2.839,4.225-6.338,4.225s-6.338-1.889-6.338-4.225,2.839-4.225,6.338-4.225,6.338,1.893,6.338,4.225ZM623.206,416.289c0,2.337-2.839,4.225-6.338,4.225s-6.338-1.889-6.338-4.225,2.835-4.225,6.338-4.225,6.338,1.893,6.338,4.225ZM644.324,414.185c0,1.166-2.839,2.113-6.338,2.113s-6.338-.946-6.338-2.113,2.835-2.113,6.338-2.113,6.338.946,6.338,2.113ZM665.438,412.089c0,2.337-2.835,4.225-6.338,4.225s-6.338-1.889-6.338-4.225,2.839-4.225,6.338-4.225,6.338,1.893,6.338,4.225Z"/>
        <path class="cls-25" d="M382.386,580.972l139.437-71.831M373.931,576.747l130.986-67.606M369.706,572.517l118.31-63.38M365.48,564.066l105.634-54.93M357.025,555.616l97.183-46.479M361.242,547.161l67.61-33.803M357.017,538.718l50.704-25.352M357.013,530.259l38.028-16.906M395.062,585.201l130.986-67.606M403.517,589.427l126.761-67.606M416.193,593.656l114.085-63.38M428.873,593.661l97.183-50.704M441.545,593.669l88.732-42.254M454.225,597.89l76.056-38.028M466.906,602.124l59.155-29.577M483.807,602.116l46.479-25.352M496.487,606.349l33.803-16.901M513.389,606.332l16.901-12.676M538.749,504.987h-16.901c-5.637,34.986-5.637,70.648,0,105.634h16.901c-5.637-34.986-5.637-70.648,0-105.634ZM310.508,555.607l46.479-38.028M310.508,530.496l46.479,42.254"/>
        <path class="cls-21" d="M382.415,513.379l-25.352,3.418c-5.637,21.663-5.637,39.908,0,61.572l25.352,6.841c-5.637-21.663-5.637-50.168,0-71.831h0Z"/>
        <path class="cls-14" d="M665.523,340.169v-17.366c-17.746.148-29.577-10.183-29.577-20.662l-59.155.144c0,10.335-11.831,20.666-29.577,20.666v17.218h118.31Z"/>
        <path class="cls-17" d="M580.973,280.989h50.704v21.127h-50.704v-21.127Z"/>
        <path class="cls-17" d="M585.199,259.866h42.254v21.127h-42.254v-21.127Z"/>
        <path class="cls-17" d="M585.199,242.986h42.254v16.901h-42.254v-16.901ZM589.424,213.387h33.803v29.577h-33.803v-29.577Z"/>
        <path class="cls-7" d="M589.424,188.039h33.803v25.352h-33.803v-25.352Z"/>
        <path class="cls-6" d="M657.068,166.947c0,18.668-21.756,33.803-48.592,33.803s-48.592-15.135-48.592-33.803,21.752-33.803,48.592-33.803,48.592,15.131,48.592,33.803Z"/>
        <path class="cls-6" d="M632.417,165.168c0,9.33,11.975,24.904,11.975,24.904-8.67,6.118-22.699,10.677-35.915,10.677s-29.675-2.539-35.915-10.677c0,0,11.97-15.575,11.97-24.904s-11.97-21.351-11.97-21.351c8.666-6.118,22.699-10.673,35.915-10.673s27.245,4.555,35.915,10.673c0,0-11.975,12.021-11.975,21.351Z"/>
        <path class="cls-6" d="M624.169,165.147c0,9.325,11.772,28.449,11.772,28.449-8.523,6.114-14.472,7.111-27.465,7.111s-21.33,1.018-27.465-7.111c0,0,11.768-19.124,11.768-28.449s-11.768-24.892-11.768-24.892c8.518-6.114,14.468-7.111,27.465-7.111s18.942.997,27.465,7.111c0,0-11.772,15.566-11.772,24.892ZM572.561,169.055c0,5.835-5.675,10.563-12.676,10.563s-12.676-4.728-12.676-10.563,5.675-10.563,12.676-10.563,12.676,4.732,12.676,10.563ZM665.548,169.055c0,5.834-4.729,10.563-10.563,10.563s-10.563-4.729-10.563-10.563,4.729-10.563,10.563-10.563,10.563,4.729,10.563,10.563Z"/>
        <path class="cls-6" d="M619.061,169.055c0,5.835-5.675,10.563-12.676,10.563s-12.676-4.728-12.676-10.563,5.675-10.563,12.676-10.563,12.676,4.732,12.676,10.563ZM619.061,135.239c0,5.835-5.675,10.563-12.676,10.563s-12.676-4.728-12.676-10.563,5.675-10.563,12.676-10.563,12.676,4.728,12.676,10.563Z"/>
        <path class="cls-22" d="M585.241,329.682c0,5.835-5.675,10.563-12.676,10.563s-12.676-4.728-12.676-10.563,5.675-10.563,12.676-10.563,12.676,4.728,12.676,10.563ZM652.872,329.682c0,5.835-5.675,10.563-12.676,10.563s-12.676-4.728-12.676-10.563,5.675-10.563,12.676-10.563,12.676,4.728,12.676,10.563ZM576.786,302.145h59.155l-29.577,29.577-29.577-29.577Z"/>
        <path class="cls-13" d="M623.282,327.569c0,7.001-7.568,12.676-16.901,12.676s-16.901-5.675-16.901-12.676,7.568-12.676,16.901-12.676,16.901,5.675,16.901,12.676Z"/>
        <path class="cls-10" d="M631.555,428.855c.068,0,.123.042.123.093v20.937c0,.055-.055.097-.123.097h-88.492c-.063,0-.118-.042-.118-.097v-20.937c0-.051.055-.093.118-.093h88.492ZM659.092,412.076c-10.534,0-19.014,7.876-19.014,17.666v15.368c0,9.79,8.48,17.67,19.014,17.67s19.014-7.88,19.014-17.67v-15.368c0-9.79-8.48-17.666-19.014-17.666ZM659.092,418.837c-6.321,0-11.408,6.304-11.408,14.134v8.915c0,7.83,5.087,14.134,11.408,14.134s11.408-6.304,11.408-14.134v-8.915c0-7.83-5.087-14.134-11.408-14.134Z"/>
        <path class="cls-10" d="M557.645,414.81c-6.321,0-11.408,6.49-11.408,14.552v16.137c0,8.058,5.087,14.548,11.408,14.548s11.408-6.49,11.408-14.548v-16.137c0-8.062-5.087-14.552-11.408-14.552ZM557.645,407.851c-10.534,0-19.014,8.108-19.014,18.186v22.783c0,10.073,8.48,18.186,19.014,18.186s19.014-8.113,19.014-18.186v-22.783c0-10.077-8.48-18.186-19.014-18.186Z"/>
        <path class="cls-10" d="M528.055,423.21c-6.317,0-11.404,6.444-11.404,14.447l-.004,3.769c0,8.003,5.092,14.447,11.408,14.447s11.408-6.444,11.408-14.447v-3.769c0-8.003-5.087-14.447-11.408-14.447ZM528.055,416.301c-10.53,0-19.01,8.049-19.01,18.055l-.004,10.365c0,10.006,8.48,18.059,19.014,18.059s19.014-8.054,19.014-18.059v-10.365c0-10.006-8.48-18.055-19.014-18.055Z"/>
        <path class="cls-23" d="M479.451,415.309c-11.235,0-20.286,6.951-20.286,15.587v17.29c0,8.637,9.051,15.587,20.286,15.587s20.282-6.951,20.282-15.587v-17.29c0-8.637-9.046-15.587-20.282-15.587ZM479.451,407.851c-18.727,0-33.803,8.692-33.803,19.483v24.41c0,10.796,15.076,19.487,33.803,19.487s33.803-8.692,33.803-19.487v-24.41c0-10.792-15.076-19.483-33.803-19.483ZM730.948,415.807c-11.937,0-21.549,7.416-21.549,16.627v18.444c0,9.211,9.613,16.627,21.549,16.627s21.549-7.416,21.549-16.627v-18.444c0-9.211-9.613-16.627-21.549-16.627ZM730.948,407.851c-19.897,0-35.915,9.27-35.915,20.785v26.037c0,11.514,16.018,20.785,35.915,20.785s35.915-9.27,35.915-20.785v-26.037c0-11.514-16.018-20.785-35.915-20.785Z"/>
        <path class="cls-10" d="M711.892,428.855c.034,0,.063.042.063.093v20.937c0,.055-.03.097-.063.097h-46.352c-.034,0-.063-.042-.063-.097v-20.937c0-.051.03-.093.063-.093h46.352ZM648.545,424.621c.017,0,.034.059.034.131v29.316c0,.072-.017.131-.034.131h-25.284c-.021,0-.034-.059-.034-.131v-29.316c0-.072.013-.131.034-.131h25.284ZM521.785,424.621c.021,0,.038.059.038.131v29.316c0,.072-.017.131-.038.131h-25.28c-.021,0-.038-.059-.038-.131v-29.316c0-.072.017-.131.038-.131h25.28ZM466.817,424.634c.042,0,.076.068.076.148v33.503c0,.085-.034.152-.076.152h-54.777c-.042,0-.076-.068-.076-.152v-33.503c0-.08.034-.148.076-.148h54.777ZM796.39,424.617c.038,0,.068.076.068.169v37.69c0,.093-.03.169-.068.169h-50.565c-.038,0-.072-.076-.072-.169v-37.69c0-.093.034-.169.072-.169h50.565Z"/>
      </g>
    </g>
  </g>
</svg>