<?xml version="1.0" encoding="UTF-8"?>
<svg xmlns="http://www.w3.org/2000/svg" viewBox="0 0 3600.1 2401.738">
  <defs>
    <style>
      .cls-1 {
        fill: #d21034;
      }

      .cls-1, .cls-2, .cls-3, .cls-4 {
        stroke-width: 0px;
      }

      .cls-1, .cls-3, .cls-4 {
        fill-rule: evenodd;
      }

      .cls-2, .cls-3 {
        fill: #005293;
      }

      .cls-4 {
        fill: #eee;
      }
    </style>
  </defs>
  <g id="background">
    <path id="pa" class="cls-1" d="M400,.1h2800c220,0,400,180,400,400v1600c0,220-180,400-400,400H400C180,2400.1,0,2220.1,0,2000.1V400.1C0,180.1,180,.1,400,.1Z"/>
  </g>
  <g id="country">
    <g id="pa-2" data-name="pa">
      <path class="cls-4" d="M400,2400.1h2800c220,0,400-180,400-400v-800H0v800C0,2220.1,180,2400.1,400,2400.1Z"/>
      <path class="cls-2" d="M400,.1C180,.1,0,180.1,0,400.1v1600C0,2220.1,180,2400.1,400,2400.1h1400V.1H400Z"/>
      <path class="cls-4" d="M1800,.1H400C180,.1,0,180.1,0,400.1v800h1800V.1Z"/>
      <path class="cls-1" d="M2700,1500.1l67.36,207.288,217.96.008-176.328,128.12,67.344,207.292-176.336-128.108-176.336,128.108,67.344-207.292-176.324-128.12,217.956-.008,67.36-207.288Z"/>
      <path class="cls-3" d="M900,300.1l67.36,207.288,217.96.008-176.328,128.12,67.344,207.292-176.336-128.108-176.336,128.108,67.344-207.292-176.324-128.12,217.956-.008,67.36-207.288Z"/>
    </g>
  </g>
</svg>