<?xml version="1.0" encoding="UTF-8"?>
<svg xmlns="http://www.w3.org/2000/svg" viewBox="0 0 3600.1 2401.738">
  <defs>
    <style>
      .cls-1 {
        stroke-linejoin: round;
        stroke-width: 11.551px;
      }

      .cls-1, .cls-2, .cls-3, .cls-4, .cls-5, .cls-6, .cls-7 {
        fill-rule: evenodd;
      }

      .cls-1, .cls-5 {
        fill: #ce1126;
      }

      .cls-1, .cls-6 {
        stroke: #630810;
      }

      .cls-2 {
        stroke-width: 11.551px;
      }

      .cls-2, .cls-3 {
        fill: #083d9c;
        stroke: #083d9c;
      }

      .cls-2, .cls-3, .cls-6 {
        stroke-miterlimit: 8;
      }

      .cls-3 {
        stroke-width: 11.567px;
      }

      .cls-4 {
        fill: #4472c4;
      }

      .cls-4, .cls-5, .cls-8, .cls-7 {
        stroke-width: 0px;
      }

      .cls-8 {
        fill: #eee;
      }

      .cls-6 {
        fill: #630810;
        stroke-linecap: round;
        stroke-width: 16.691px;
      }

      .cls-7 {
        fill: #ff9c10;
      }
    </style>
  </defs>
  <g id="background">
    <path id="pf" class="cls-5" d="M400,.1h2800c220,0,400,180,400,400v1600c0,220-180,400-400,400H400C180,2400.1,0,2220.1,0,2000.1V400.1C0,180.1,180,.1,400,.1Z"/>
  </g>
  <g id="country">
    <g id="pf-2" data-name="pf">
      <g>
        <path class="cls-8" d="M0,600.1h3600v1200H0V600.1Z"/>
        <path class="cls-7" d="M1915.498,693.504l37.083,9.774c16.057,5.122,31.847,11.046,47.31,17.75l37.577,18.557-120.934,213.549.177-91.694c-.646-6.741,8.821-18.136-3.331-19.178-13.52.747-27.106.317-40.556-1.286l42.674-147.473ZM1666.031,696.67l13.653,25.02c-19.431,11.607-20.723,228.279-20.723,228.279,0,0-64.119-129.86-96.725-196.42l-6.035-12.342,43.355-21.575c15.421-6.738,31.173-12.693,47.196-17.842l19.279-5.12ZM2065.545,756.828l21.008,13.092c27.211,18.87,52.545,40.311,75.654,64.027l1.909,2.156-51.587,52.265c-9.131,5.031-17.702,27.375-27.008,18.475-16.901-4.803-34.708-.25-51.996-1.039-12.408-1.662-32.112,6.389-21.768,21.584,12.554,3.701,10.534,22.968-1.39,26.732-13.159,10.885,13.171,15.261,6.861,24.196-33.233,31.837-66.741,63.401-100.078,95.133l.187-88.683,148.208-227.94ZM1520.72,763.161l143.132,222.253-.361,84.871-82.8-79.456s-11.785-.443-11.75-8.764c.06-10.069,11.319-7.415,11.319-20.416s-15.53-12.136-15.53-22.252,10.366-8.061,10.366-22.506-16.284-11.652-36.716-13.092c-20.422-1.444-40.471-.066-42.909,8.998,0,0-33.964-37.371-59.794-65.753l-6.127-6.728,6.374-7.203c23.288-23.934,48.823-45.575,76.252-64.623l8.542-5.329h0ZM2188.99,864.48l6.31,7.07c20.92,25.814,39.324,53.569,54.963,82.886l5.674,11.994-145.868,75.359c-2.017-10.04-6.646-20.229-15.809-25.675,7.605-4.236,13.827-15.644,6.687-22.927-3.245-3.657-13.004-6.811-8.476-13,5.585-6.709,14.615-15.103,10.072-24.598-1.957-6.766-9.052-12.203-9.214-19.27l95.661-71.839ZM1403.459,870.812l82.756,72.228s-13.045,10.255-12.025,19.817c.168,8.827,15.768,9.885,15.518,18.706-.256,9.572-13.808,10.911-14.064,19.732-.681,8.72,13.045,18.196,13.045,18.196l-21.312,22.297-129.644-63.062,10.825-23.36c7.847-15.017,16.4-29.654,25.631-43.862l29.272-40.692ZM2273.452,1000.628l.412.855,5.877,16.11,17.626,56.115,9.229,52.702-197.965,23.031-1.507-80.71,166.328-68.102ZM1324.749,1010.126l147.686,58.449,1.444,80.865-180.475-17.455,4.604-31.194c3.379-17.093,7.585-34.012,12.602-50.698l14.14-39.967ZM2311.105,1162.105l1.824,37.494-12.155,89.155v-.006h-192.209l-1.441-111.271,203.981-15.372ZM1289.063,1165.272l181.65,8.783v114.7l-177.062-1.409-3.936-26.77c-1.764-18.074-2.647-36.223-2.644-54.383l1.992-40.92Z"/>
        <path class="cls-3" d="M1459.748,1323.599c5.522.133,11.17,1.064,16.955,3.017,1.441,29.823,13.007,53.959,13.007,53.959l-174.25-1.377-6.108-17.003-6.45-25.561,10.259,8.264c12.83,9.052,29.813,17.927,46.436,17.221,29.094-1.244,61.504-39.448,100.151-38.52h0ZM2121.47,1323.599c38.919-.928,71.563,37.276,100.87,38.52,33.483,1.415,68.425-35.503,68.425-35.503l-18.925,52.544-180.548,1.415s11.652-24.136,13.105-53.959c5.506-1.861,11.262-2.878,17.072-3.017ZM1363.07,1405.946c31.07-1.406,62.137,35.148,94.67,33.739,32.546-1.403,28.11-9.837,44.378-18.279,8.872,16.873,41.417,35.158,41.417,35.158h-194.299l-.839-1.365-16.999-34.8,7.475-5.756c8.112-4.92,16.43-8.346,24.196-8.698ZM2217.245,1405.946c7.735.351,16.024,3.777,24.104,8.698l20.919,16.164-11.867,24.393-.839,1.365h-212.096s32.422-18.285,41.262-35.158c16.205,8.441,11.785,16.876,44.207,18.279,32.413,1.409,63.356-35.145,94.309-33.739h0ZM1467.939,1475.562c34.838,0,66.776,43.564,103.076,46.471,36.298,2.903,58.075-43.574,105.983-43.574s75.489,42.123,113.231,42.123,76.949-39.214,114.69-40.661c37.754-1.463,75.492,42.111,108.887,40.661,33.391-1.456,62.416-42.123,103.076-43.574,30.848,2.726,63.397,21.337,80.283,39.518l8.112,10.727-10.027,13.919-3.543,4.046-786.538-2.767-1.121-1.279-18.823-26.125,7.181-4.458c22.907-14.606,53.759-35.028,75.533-35.028ZM1572.035,1561.101c27.698-1.453,74.337,36.006,110.774,34.569,36.427-1.444,64.129-30.26,112.221-31.697,48.095-1.434,61.222,34.578,113.687,30.253,52.471-4.316,33.518-34.575,102.019-33.125,42.82.899,81.647,25.434,104.748,43.707l10.638,8.935-13.868,10.632-627.815-2.688-11.728-8.992-14.663-13.662,3.103-1.27c29.174-11.816,90.114-35.585,110.884-36.662h0ZM1679.927,1649.704h4.876c52.474,0,67.067,41.626,103.507,44.954,36.44,3.331,66.944-41.763,112.135-43.425,45.185-1.659,102.193,36.728,102.193,36.728l-93.717,32.223-4.531,1.216c-16.88,3.615-33.939,6.338-51.106,8.159l-46.689,2.466-16.1-.222-42.465-2.245c-50.996-5.42-100.835-18.755-147.724-39.527l-6.111-3.081,10.772-7.849c12.953-8.694,29.595-18.152,47.49-23.962l27.47-5.436h0Z"/>
        <path class="cls-4" d="M1790.501,1732.026l15.831,1.317-5.839,1.849-9.993-3.166Z"/>
        <path class="cls-7" d="M1663.852,1146.274l-88.654-2.577v-35.417l88.654,37.995ZM1663.143,1136.772l-85.545-44.327v-57.654s-10.024,1.437-8.593-10.091c.475-24.025,62.869,43.846,94.847,65.949l-.712,46.126.003-.003ZM1917.153,1149.44l84.016-3.72,1.469-34.274-85.488,37.995h.003ZM1917.505,1130.44l-.355-37.346s78.304-70.037,94.987-82.968c0,14.368-9.059,25.494-9.059,25.494v54.598l-85.57,40.224-.003-.003Z"/>
        <path class="cls-2" d="M1698.681,1462.897l186.807-.111s-41.823-64.259-93.372-59.829c-57.429,1.498-93.435,59.94-93.435,59.94ZM1746.209,1380.531l91.783.044s1.463-28.496-46.623-28.496-45.16,28.452-45.16,28.452Z"/>
        <path class="cls-1" d="M1696.971,1086.54l191.683,50.235v-268.379c-87.796,4.309-160.946-163.602-5.851-175.08-152.172-21.53-169.735,17.221-187.289,58.838l1.46,334.385h-.003ZM1739.842,1328.212c-41.721,67.897-153.252,47.759-179.332.361-7.817-2.175-3.192-292.445-3.192-292.445,0,0-12.462-5.579-13.039-14.501-.57-9.014,16.946-9.831,16.946-21.369s-17.889-7.01-18.247-18.614c.076-11.094,19.096-9.565,18.247-19.821-1.007-11.554-21.302-9.844-22.164-20.498-.659-8.463,14.517-15.841,18.735-19.646l-14.169-.206-31.947.643c-22.696.022.393,4.86.06,17.728-.209,8.406-11.509,13.998-12.519,21.306-.358,7.504,16.17,12.776,16.379,21.78.187,8.033-16.24,8.58-15.651,16.046,1.019,12.633,14.552,15.413,14.349,23.063-.209,7.643-18.209,10.553-18.256,16.651.63,11.794,2.606,298.48,2.606,298.48,28.683,146.042,194.258,183.192,241.194-8.964v.006ZM1847.493,1328.212c41.721,67.897,153.249,47.759,179.332.361,7.814-2.175,3.195-292.445,3.195-292.445,0,0,12.462-5.579,13.035-14.501.57-9.014-15.85-9.834-15.85-21.369s16.797-7.01,17.148-18.614c-.07-11.094-17.63-10.284-16.781-20.543,1.004-11.55,14.79-10.202,15.575-20.856.655-9.173-8.656-14.761-12.874-18.567l13.438-.206,31.944.643c22.699.022-.393,4.86-.057,17.728.206,8.406,11.506,13.998,12.522,21.306.352,7.504-16.176,12.776-16.385,21.78-.184,8.033,16.246,8.58,15.651,16.046-1.02,12.633-14.552,15.413-14.343,23.063.203,7.643,18.206,10.553,18.25,16.651-.624,11.794-2.603,298.48-2.603,298.48-28.686,146.042-194.261,183.192-241.197-8.964v.006Z"/>
        <path class="cls-6" d="M1691.848,1344.163c15.746-8.774,30.057-17.531,40.078-37.995l-61.551,1.456s-28.613,17.544-42.934,36.538h64.411-.003ZM1893.534,1344.163c-16.224-8.774-30.966-17.531-41.291-37.995l63.413,1.456s29.49,17.544,44.238,36.538h-66.364.003ZM1576.781,1284.005l430.607,3.166M1598.945,1182.686l50.66,66.491M1598.945,1249.177l53.826-66.491M1630.607,1176.353l-3.166,41.161M1681.273,1182.686l50.66,66.491M1681.27,1249.177l53.826-66.491M1709.772,1176.353l-3.166,41.161M1763.598,1182.686l50.66,66.491M1763.598,1249.177l53.826-66.491M1792.103,1176.353l-3.166,41.161M1849.089,1182.686l50.66,66.491M1849.089,1249.177l53.826-66.491M1880.77,1176.353l-3.166,41.161M1931.417,1182.686l50.66,66.491M1931.417,1249.177l53.826-66.491M1963.102,1176.353l-3.166,41.161"/>
      </g>
    </g>
  </g>
</svg>