<?xml version="1.0" encoding="UTF-8"?>
<svg xmlns="http://www.w3.org/2000/svg" viewBox="0 0 3600.818 2401.738">
  <defs>
    <style>
      .cls-1 {
        fill: #141414;
      }

      .cls-1, .cls-2, .cls-3, .cls-4 {
        stroke-width: 0px;
      }

      .cls-1, .cls-3 {
        fill-rule: evenodd;
      }

      .cls-2 {
        fill: #fff;
      }

      .cls-3 {
        fill: #ce1126;
      }

      .cls-4 {
        fill: #fcd116;
      }
    </style>
  </defs>
  <g id="background">
    <path id="pg" class="cls-3" d="M400,.1h2800c220,0,400,180,400,400v1600c0,220-180,400-400,400H400C180,2400.1,0,2220.1,0,2000.1V400.1C0,180.1,180,.1,400,.1Z"/>
  </g>
  <g id="country">
    <g id="pg-2" data-name="pg">
      <path id="Path" class="cls-1" d="M3458.232,2305.588c-69.681,58.961-159.805,94.512-258.232,94.512H400C179.086,2400.1,0,2221.014,0,2000.1V400.1C0,277.613,55.054,167.986,141.768,94.612l3316.464,2210.976h0Z"/>
      <path class="cls-4" d="M2228.836,634.572c-26.592,34.341-89.508-34.547-164.883-36.122-75.375-1.57-128.77,72.234-150.75,97.359-21.984,25.13-92.648,157.031-91.078,171.164s43.969-39.253,59.672-48.675c1.57,18.844-17.273,40.828-12.562,47.109s54.956-37.687,72.234-39.258c4.711,12.562-9.422,25.125-4.711,43.969,6.281,6.281,34.547-31.406,53.391-39.258,3.141,14.133-17.273,40.828-6.281,58.102,7.852,1.566,54.956-53.391,70.664-59.672,15.703-6.286-7.856,51.816,0,56.531,14.133-9.422,58.102-59.677,72.234-65.953,14.133-6.281-1.566,64.383,4.711,64.383,17.273-12.562,61.242-72.234,65.953-81.656,4.711-9.422-4.711,91.078,43.969,144.469,48.68,53.391,122.489,114.633,130.336,114.633,9.422-17.273-3.136-53.391,4.711-51.82,21.984,23.555,62.812,58.102,72.234,58.102s-6.281-37.687,6.281-37.687c25.125,23.555,97.359,116.203,238.687,158.602-9.422-26.695-29.841-50.25-31.406-62.812,9.422,1.57,42.403,17.278,48.68,15.703,6.281-1.575-69.094-94.219-64.383-106.781,17.273-1.57,25.125,9.422,31.406,1.566-7.852-12.562-73.805-86.362-73.805-103.641s20.419,3.141,26.695,0c6.281-3.141-25.125-69.094-18.844-76.941,6.281-7.852,75.375,42.398,92.649,42.398s4.711-61.242,12.562-64.388c7.852-3.141,65.958,32.977,78.516,32.977s10.992-26.695,15.703-23.555c4.711,3.141,141.328,139.762,94.219,299.934-47.109,114.633-141.323,175.875-279.516,125.625,7.852,12.562,81.656,73.805,161.742,51.82,80.086-21.984,177.441-84.797,166.453-241.828-10.992-157.031-62.817-179.016-70.664-202.57-7.852-23.555,12.567,6.281,29.836,12.562,17.273,6.286-3.141-32.977-7.852-50.25-4.711-17.278,51.82,36.117,65.953,40.828s-32.976-128.766-47.109-138.187,14.133,3.141,23.555,6.281-86.372-146.039-106.781-146.039,17.269-7.856,28.266-7.856-109.917-97.359-130.336-97.359,43.964-25.125,50.25-26.695c10.992,1.566-139.758-80.086-274.805,1.566-7.852-6.272,63.605-55.739,65.953-76.936.788-5.498-23.55-17.278-25.125-23.555-1.57-6.281,37.687-25.125,39.258-39.258-9.422-12.563-26.695-7.852-36.117-10.992-2.353-11.775,32.981-40.828,29.836-53.391-2.353-7.064-28.266-9.422-34.547-4.706-6.281,4.711,16.491-32.977,12.562-43.969-3.141-4.711-15.703-1.57-28.266,1.57-7.852-1.57,40.828-69.094,31.406-78.516-9.422-9.422-141.328,69.089-190.008,157.027-48.68,87.938-10.987,158.602-17.273,188.438-6.281,29.836-14.137,59.672-34.547,59.672s-67.519-31.406-83.227-47.109c-15.703-15.703-18.844-26.695-40.828-32.977-21.984-6.281-72.234,12.562-91.078,14.133-18.844,1.57-92.649-14.133-97.359-9.422-4.711,4.711,72.234,32.977,89.508,42.398,17.273,9.422,18.848,21.984,31.406,29.836,12.562,7.847,130.336,42.398,92.649,91.078h0ZM2688.938,855.986c37.687,37.687,292.078,207.281,292.078,414.562s-185.297,201-238.687,194.719c59.672,50.25,285.797,40.828,285.797-194.719,0-207.281-292.078-414.563-329.766-433.406-37.687-18.844-47.109-18.844-9.422,18.844Z"/>
      <g>
        <path class="cls-2" d="M1032.441,1812.283l53.695-172.739,53.695,174.619-141.394-107.025h175.397l-141.394,105.145Z"/>
        <path id="a" class="cls-2" d="M901.959,686.8l-107.386,345.478,282.783-210.291h-350.794l282.783,214.05-107.386-349.237Z"/>
        <path id="a-2" data-name="a" class="cls-2" d="M489.459,1214.163l-107.386,345.478,282.783-210.291h-350.794l282.783,214.05-107.386-349.237Z"/>
        <path id="a-3" data-name="a" class="cls-2" d="M1312.5,1176.663l-107.386,345.478,282.783-210.291h-350.794l282.783,214.05-107.386-349.237Z"/>
        <path id="a-4" data-name="a" class="cls-2" d="M901.959,1926.663l-107.386,345.478,282.783-210.291h-350.794l282.783,214.05-107.386-349.237Z"/>
      </g>
    </g>
  </g>
</svg>