<?xml version="1.0" encoding="UTF-8"?>
<svg xmlns="http://www.w3.org/2000/svg" viewBox="0 0 3600.1 2401.738">
  <defs>
    <style>
      .cls-1 {
        fill: #0038a8;
      }

      .cls-1, .cls-2, .cls-3, .cls-4 {
        stroke-width: 0px;
      }

      .cls-1, .cls-2, .cls-4 {
        fill-rule: evenodd;
      }

      .cls-2 {
        fill: #ce1126;
      }

      .cls-3 {
        fill: #fcd116;
      }

      .cls-4 {
        fill: #eee;
      }
    </style>
  </defs>
  <g id="background">
    <path id="ph" class="cls-1" d="M400,.1h2800c220,0,400,180,400,400v1600c0,220-180,400-400,400H400C180,2400.1,0,2220.1,0,2000.1V400.1C0,180.1,180,.1,400,.1Z"/>
  </g>
  <g id="country">
    <g id="ph-2" data-name="ph">
      <path id="b" class="cls-2" d="M400,2400.1h2800c220,0,400-180,400-400v-800H0v800C0,2220.1,180,2400.1,400,2400.1Z"/>
      <path id="l-t" class="cls-4" d="M0,2000.1V400.1C0,280.1,50,180.1,130,100.1l1570,1100L130,2300.1C50,2220.1,0,2120.1,0,2000.1Z"/>
      <path class="cls-3" d="M98.15,388.599l59.086,51.071,68.41-37.657-30.296,71.976,56.959,53.41-77.816-6.576-33.207,70.668-17.798-76.017-77.489-9.75,66.824-40.405-14.673-76.72ZM1428.355,1096.389l1.587,78.078,73.759,25.633-73.776,25.633-1.57,78.078-47.194-62.227-74.757,22.623,44.625-64.108-44.609-64.108,74.757,22.623,47.177-62.227ZM141.27,1808.693l33.207,70.668,77.833-6.56-56.959,53.426,30.296,71.976-68.41-37.673-59.086,51.071,14.673-76.72-66.824-40.405,77.489-9.75,17.781-76.033ZM610.703,785.696l-25.486,25.486,12.645,193.028c-4.302.278-8.555.703-12.759,1.243l-23.229-176.146-20.775,20.791,31.31,157.448c-25.764,5.104-49.713,15.213-70.766,29.33l-89.169-133.483h-29.445l108.177,140.992c-3.403,2.617-6.691,5.333-9.897,8.163l-127.594-145.49h-36.037v36.054l145.474,127.594c-2.83,3.206-5.545,6.511-8.163,9.913l-140.976-108.194v29.445l133.483,89.185c-14.353,21.409-24.321,45.45-29.33,70.733l-157.448-31.31-20.808,20.791,176.162,23.229c-.556,4.204-.981,8.457-1.243,12.759l-193.044-12.645-25.486,25.486,25.486,25.486,193.028-12.645c.294,4.302.703,8.588,1.26,12.792l-176.162,23.196,20.808,20.791,157.448-31.31c5.087,25.748,15.213,49.696,29.314,70.749l-133.467,89.185v29.412l140.976-108.161c2.617,3.403,5.349,6.69,8.179,9.897l-145.49,127.595v36.054h36.054l127.578-145.49c3.223,2.83,6.527,5.562,9.913,8.163l-108.177,140.975h29.429l89.202-133.484c21.404,14.37,45.445,24.35,70.733,29.363l-31.326,157.432,20.808,20.791,23.196-176.146c4.22.54,8.474.965,12.776,1.243l-12.645,193.028,25.486,25.486,25.486-25.486-12.629-193.028c4.286-.278,8.539-.703,12.759-1.243l23.212,176.146,20.791-20.791-31.31-157.465c25.294-5,49.345-14.964,70.766-29.314l89.169,133.483h29.429l-108.161-140.992c3.386-2.617,6.674-5.333,9.897-8.163l127.594,145.49h36.037v-36.054l-145.474-127.595c2.814-3.206,5.545-6.511,8.146-9.913l140.976,108.177v-29.396l-133.483-89.202c14.358-21.408,24.333-45.448,29.347-70.733l157.448,31.31,20.792-20.808-176.146-23.229c.556-4.204.982-8.457,1.243-12.759l193.028,12.645,25.519-25.486-25.486-25.486-193.028,12.645c-.28-4.266-.7-8.521-1.26-12.759l176.129-23.245-20.791-20.791-157.448,31.31c-5.007-25.289-14.976-49.335-29.33-70.75l133.483-89.185v-29.429l-140.992,108.161c-2.617-3.386-5.333-6.674-8.146-9.88l145.474-127.594v-36.054h-36.054l-127.594,145.49c-3.206-2.83-6.511-5.562-9.913-8.163l108.194-140.976h-29.429l-89.185,133.5c-21.408-14.358-45.449-24.332-70.733-29.347l31.31-157.448-20.791-20.791-23.212,176.146c-4.22-.54-8.474-.965-12.759-1.243l12.629-193.028-25.503-25.486Z"/>
    </g>
  </g>
</svg>