<?xml version="1.0" encoding="UTF-8"?>
<svg xmlns="http://www.w3.org/2000/svg" viewBox="0 0 3600.1 2401.738">
  <defs>
    <style>
      .cls-1 {
        fill: #316d3a;
      }

      .cls-1, .cls-2, .cls-3, .cls-4, .cls-5, .cls-6, .cls-7, .cls-8, .cls-9, .cls-10, .cls-11, .cls-12, .cls-13 {
        fill-rule: evenodd;
      }

      .cls-1, .cls-3, .cls-14, .cls-4, .cls-5, .cls-7, .cls-10, .cls-11, .cls-13 {
        stroke: #000;
        stroke-miterlimit: 8;
        stroke-width: 1.795px;
      }

      .cls-2, .cls-6, .cls-15, .cls-16, .cls-8, .cls-9, .cls-12 {
        stroke-width: 0px;
      }

      .cls-3 {
        fill: #e5e5e5;
      }

      .cls-14 {
        fill: none;
      }

      .cls-4 {
        fill: #fff;
      }

      .cls-5 {
        fill: #96877d;
      }

      .cls-6 {
        fill: #00247d;
      }

      .cls-15, .cls-12 {
        fill: #eee;
      }

      .cls-7, .cls-8 {
        fill: #f7e017;
      }

      .cls-16, .cls-9 {
        fill: #cf1b2b;
      }

      .cls-10 {
        fill: #c8102e;
      }

      .cls-11 {
        fill: #337321;
      }

      .cls-13 {
        fill: #006ec7;
      }
    </style>
  </defs>
  <g id="background">
    <path id="gb" class="cls-6" d="M400,.1h2800c220,0,400,180,400,400v1600c0,220-180,400-400,400H400C180,2400.1,0,2220.1,0,2000.1V400.1C0,180.1,180,.1,400,.1Z"/>
  </g>
  <g id="country">
    <g id="pn">
      <g>
        <path class="cls-7" d="M2403.377,1255.558c-38.675,32.454-75.537,79.878-84.603,122.749-25.501,120.594-59.343,147.419-111.556,121.554,0,64.787,57.289,69.696,82.429,31.855,0,60.715,22.237,113.406,72.396,158.314,21.15,18.922,25.14,5.989,15.107-14.967-10.03-20.957-10.03-88.621-30.093-127.42,32.15,22.871,79.406,9.938,75.416-52.815-41.213,23.951-82.185,22.994-86.416-33.889-5.197-66.705,21.03-163.584,67.319-205.381h0ZM2352.299,777.179c2.741-24.002-2.383-48.603-19.775-64.084-33.591-29.763-66.467-19.92-91.008,4.079-36.688-19.92-56.104,50.764-97.679,38.884,6.908,22.921,17.867,32.882,38.595,24.962-21.8,19.92,0,43.923-25.729,67.804,46.575,14.999,71.353-10.92,69.329-55.924,17.867,15.959,45.504,14.999,60.392-3.001-24.775-8.04-24.896-29.643-14.888-49.921,14.888-29.884,84.692-28.683,80.762,37.201Z"/>
        <path class="cls-11" d="M2461.037,1122.982c-52.862,27.951-149.476,15.956-158.467-52.9-8.99-68.86,57.777-99.808,75.758-108.684,27.928-14.036,49.864,10.917,40.874,39.945,30.926-10.917,37.879-46.905,22.896-67.776,40.877,2.998,78.753-27.951,94.697-71.857-14.384,13.677-53.461,4.44-85.586,2.399,9.947-10.914,9.827-32.267,6.832-43.305-33.804,34.789-82.711,18.833-147.442,119.599,9.951-34.907,28.889-104.723,39.917-150.668,1.081-4.56,1.917-9.117,2.519-13.795,3.835-65.858-66.29-67.059-81.273-37.068,16.422,18.472,7.793,40.066,1.917,72.814-6.953,38.868-21.936,128.716-34.881,158.587-3.955-46.905-34.881-49.902-40.877-72.814-8.99,5.996-13.903,21.952-11.985,32.869-11.028-11.998-48.907,2.998-62.813-14.996-14.983,29.871,8.99,59.86,33.924,72.814-14.505.96-17.981,18.475-33.924,18.475,21.457,24.95,43.393,34.907,68.806,36.948,25.412,2.038,44.353,11.516,59.815,42.344,24.934,50.023,119.871,82.413,209.291,37.068Z"/>
        <path class="cls-7" d="M2593.838,1062.631c-29.801,82.543-111.426,141.281-148.288,150.256-62.715,15.192-190.537,77.28-224.766,109.22-5.387-1.195-10.413-3.109-14.124-5.742-16.875-11.963-30.879-50.723-.957-83.621,93.594-87.569,194.127-49.766,256.842-109.461-52.78,27.875-149.248,15.912-158.222-52.758,56.732,14.955,159.3,15.912,240.804-71.658,10.892,12.083,42.728,49.887,48.711,63.764Z"/>
        <path class="cls-11" d="M2401.704,1255.434c-47.481,40.11-72.127,138.654-67.075,205.346,1.442,18.558,6.611,31.129,14.543,38.792,3.486-37.835,29.931-135.659,97.368-179.243,56.979-36.878,145.933-119.494,178.989-214.083-6.008-16.881-15.988-28.857-34.98-40.83-32.815,89.322-120.448,132.186-188.845,190.017h0Z"/>
        <path class="cls-1" d="M2562.148,1023.811c-16.907,25.064-55.401,59.463-92.215,73.296,7.913-8.867,10.432-20.098,10.911-29.437-46.886,17.734-140.66,15.725-178.555,2.009,56.839,14.777,159.611,15.725,241.273-70.812,8.154,8.75,15.11,16.552,18.586,24.943Z"/>
        <path class="cls-11" d="M2205.78,1233.375c-75.47,70.732-25.631,132.43,3.917,146.339-7.834,49.456,38.447,43.511,37.496,84.999,18.748-10.819,23.733-39.587,20.766-62.293,23.733,25.679,83.893-2.969,96.709,44.461,7.951-52.425-32.514-104.733-82.825-99.859,20.766-18.783,8.899-49.452-10.8-57.299-3.914,38.516-47.345,38.516-64.195,26.75-16.85-11.89-30.733-50.406-1.068-83.098Z"/>
        <path class="cls-7" d="M2368.848,1686.008c-8.309,4.681-7.707,15.1-2.529,21.888,10.474,13.579-7.463,44.483,26.483,51.154,9.992,1.99,17.696-3.977,21.549-15.1,10.474-30.67-22.994-34.064-26.002-48.695-3.011-14.631-12.521-13.11-19.502-9.247h0Z"/>
        <path class="cls-7" d="M2397.464,1742.661c-11.231,5.156-21.137,12.473-16.549,48.331,1.813,14.869.967,50.847-12.077,51.329,7.973,3.958,25.124,8.274,32.127-.96,6.766,11.272,22.104,8.037,28.144-5.996,7.973,6.474,19.084-4.437,19.084-13.912,7.007,4.437,21.137-2.038,17.515-23.384,8.575,2.998,19.566-2.998,23.552-8.515-12.562-2.519-44.208-19.429-51.696-32.86-7.488-13.554-27.057-20.028-40.101-14.032h0Z"/>
        <path class="cls-14" d="M2226.232,735.839c4.719-6.893,10.001-13.342,15.845-19.014M2416.373,868.938c8.236-6.309,20.871-7.061,34.859-5.86M2400.528,1841.825c-3.074-4.96-4.24-25.511-2.015-38.028M2429.049,1835.487c-4.925-4.234-14.238-18.868-15.845-31.69M2448.063,1822.811c-7.162-3.131-24.693-24.347-28.521-38.028M2467.077,1800.628c-8.363-1.92-33.82-19.461-44.366-38.028"/>
        <path class="cls-7" d="M2925.437,1233.375c121.605,102.299,129.451,183.59,110.668,231.338-9.865-44.645-60.268-114.116-112.69-132.021l2.022-99.317Z"/>
        <path class="cls-11" d="M2706.135,1176.332h226.787v268.289c0,228.61-127.268,363.768-256.69,435.232-129.302-71.582-256.69-206.743-256.69-435.232v-268.289h159.205c.241,13.861,1.556,34.777,17.943,55.689,37.559-3.705,80.021-31.788,109.445-55.689Z"/>
        <path class="cls-13" d="M2932.923,1176.332v267.972c0,68.872-11.608,129.388-31.354,182.028l-225.336-412.4-225.336,412.4c-19.746-52.758-31.354-113.156-31.354-182.028v-267.972h513.38Z"/>
        <path class="cls-8" d="M2905.986,1605.883c-3.936,12.223-11.209,31.994-16.694,44.217l-214.644-400.941-214.644,400.941c-5.606-12.223-12.758-31.994-16.694-44.217l231.459-431.135,231.218,431.135Z"/>
        <path class="cls-7" d="M2778.693,1754.392c6.005,3.004,17.052,8.528,21.977,10.569,12.007-24.018,13.928-57.888,9.967-87.912-12.971,33.027-56.919,31.947-68.929,51.883,7.327,3.724,14.172,8.528,20.057,12.73-15.012,15.012-50.077,40.113-70.01,46.119v-214.257c0-15.015-5.042-27.504-5.042-39.993v-44.319c0-9.967-2.041-24.5-10.927-24.5-9.006,0-10.93,14.533-10.93,24.5v44.319c0,12.489-5.042,27.022-5.042,39.993v214.257c-10.927-31.947-54.038-21.017-73.971-52.964,7.805-1.924,16.092-2.523,24.018-.96-15.012-50.923-55.959-54.887-63.884-69.899,0,21.017-9.006,69.899,5.042,90.916,3.125-3.724,7.805-7.688,13.57-11.05,16.932,36.992,93.305,37.112,111.318,98.002,14.409-22.459,66.403-48.4,102.787-87.433h0Z"/>
        <path class="cls-7" d="M2676.232,1575.628c16.688,0,69.832-5.457,89.125-5.457,4.972,0,9.114-7.473,9.114-16.726s-4.025-16.726-9.114-16.726c-19.172,0-72.317-5.457-89.125-5.457-16.688,0-69.832,5.457-89.125,5.457-4.972,0-9.114,7.473-9.114,16.726s4.025,16.726,9.114,16.726c19.293,0,72.437,5.457,89.125,5.457ZM2664.292,1489.063c-3.559-2.805-8.189-4.557-13.411-4.557-11.158,0-20.294,8.182-20.294,18.235s9.019,18.235,20.294,18.235c11.158,0,20.177-8.182,20.177-18.235,0-7.831,11.513-7.831,11.513,0,0,15.782-14.242,28.521-31.69,28.521-17.566,0-31.69-12.739-31.69-28.521s14.242-28.521,31.69-28.521c5.223,0,10.207,1.169,14.6,3.156-.355,2.57-1.188,7.482-1.188,11.687Z"/>
        <path class="cls-7" d="M2587.5,1572.459c3.502,0,6.338-7.786,6.338-17.43s-2.836-17.43-6.338-17.43M2593.838,1572.459c5.254,0,9.507-7.786,9.507-17.43s-4.253-17.43-9.507-17.43M2641.373,1575.628c7.029,0,12.676-9.209,12.676-20.599s-5.647-20.599-12.676-20.599M2654.049,1575.628c6.997,0,12.676-9.257,12.676-20.599s-5.679-20.599-12.676-20.599M2692.077,1575.628c7.057,0,12.676-9.982,12.676-22.183s-5.749-22.183-12.676-22.183M2704.754,1575.628c5.248,0,9.507-9.235,9.507-20.599s-4.259-20.599-9.507-20.599M2758.627,1572.459c5.242,0,9.507-7.745,9.507-17.43s-4.266-17.43-9.507-17.43M2565.317,1743.586c6.357-3.984,14.083-7.58,22.183-9.507M2768.134,1746.755c-1.939-1.99-4.139-3.984-6.338-6.338M2777.641,1753.093c13.769-14.809,25.282-31.513,31.69-50.704"/>
        <path class="cls-4" d="M2631.866,1364.299c0-4.966,3.907-7.026,8.528-10.54,5.565-4.24,7.815-6.3,12.79-6.3h64.664c4.735,0,5.92,1.211,5.92,5.815v89.778c0,4.484-1.065,5.815-5.92,5.815h-85.982v-85.538"/>
        <path class="cls-3" d="M2701.851,1458.375c8.591,0,7.042-.241,13.006-6.237,6.325-6.237,5.726-5.755,5.726-11.513v-81.431c0-4.196-1.074-5.397-5.489-5.397h-60.252c-4.772,0-6.801,1.92-11.931,5.875-4.294,3.239-7.875,5.28-7.875,9.837v88.865h66.815Z"/>
        <path class="cls-4" d="M2707.923,1455.735c0,4.478-1.062,5.809-5.894,5.809h-64.385c-4.833,0-5.777-1.211-5.777-5.809v-89.791c0-4.478,1.062-5.809,5.777-5.809h64.385c4.833,0,5.894,1.211,5.894,5.809v89.791Z"/>
        <path class="cls-5" d="M2834.097,1122.513c12.682,14.238,16.872,33.265,9.932,51.934h-18.909c7.9-23.932,2.991-46.67-30.873-49.662-50.622-4.427-109.499,93.575-198.054,105.42-25.85-30.873-24.531-89.623,8.376-117.504-16.992-48.942-52.774-102.787-77.666-126-16.273-2.633-35.062-3.949-47.149-3.232,12.923-27.881,49.782-57.198,79.701-69.164,4.785-7.057,10.052-13.88,14.837-19.981,2.991-38.291,185.131-20.342,223.903,3.47.121,42.956,16.992,185.948,35.902,224.718Z"/>
        <path class="cls-2" d="M2611.005,1146.566c-4.348-66.327-31.405-121.044-69.455-158.28,18.12,5.029,55.204,5.029,80.328-12.93,33.097-21.911,119.586-60.224,151.235-43.821,2.535,5.508,3.987,17.959,2.054,25.862-7.492-19.876-90.96,10.895-114.512,20.355-22.589,10.413-32.615,24.424-24.642,55.791-13.047-10.895-8.578-21.429-22.107-29.332,5.435,12.93,9.906,36.279,11.475,55.195-5.074-13.411-14.01-42.265-33.699-59.267,17.03,32.806,31.89,111.708,24.883,153.612,13.528,0,43.485-13.17,55.445-22.627-10.512,14.964-40.95,25.381-60.519,29.332-8.819,10.417-14.856,37.353-14.375,52.32-1.328-18.437,4.468-63.336,13.89-66.21h0ZM2833.099,1120.875c-16.333-18.304-46.746-28.236-85.563-17.588,5.917-2.992,18.697-8.014,30.058-9.929-1.42-10.41-10.768-55.277-12.305-66.163l10.886-4.427c5.444,26.918,12.308,57.667,16.688,70.111,3.432.957,11.361,2.51,18.225,5.98-2.96-10.407-19.645-85.544-19.172-93.562l14.793-8.014c5.799,40.798,15.148,100.02,26.392,123.592h0Z"/>
        <path class="cls-5" d="M2825.034,1176.332c7.973-24.367,3.02-47.513-31.155-50.558-26.449-2.317-55.192,23.635-89.125,50.558h120.28ZM2606.514,959.895c-14.977,2.101-48.28-.986-65.294-6.668.96-4.693,2.757-9.383,4.912-14.571-10.423,7.162-30.309,21.239-37.857,30.996,23.961,5.184,73.322,7.78,98.239-9.757Z"/>
        <path class="cls-14" d="M2603.345,1112.952c5.466,15.734,9.032,30.879,9.507,44.366M2559.869,916.473c-9.158,12.6-17.217,26.116-19.905,37.569,17.217,5.27,51.287,8.132,66.549,6.186"/>
        <path class="cls-14" d="M2527.289,985.963c6.459,1.074,12.438,2.269,17.579,3.698,17.94,5.01,54.65,5.01,79.526-12.882,24.874-17.892,92.437-73.356,169.092-79.32"/>
        <path class="cls-14" d="M2508.275,969.767c23.844,5.08,72.957,7.501,97.634-9.555,57.461-39.673,113.01-62.899,168.563-65.922"/>
        <path class="cls-11" d="M2926.585,1233.375c83.491,57.847,145.211,113.774,163.154,203.543,17.94,89.772,51.791,113.774,93.537,89.772-9.919,51.845-61.72,57.847-105.379,18.003,3.949,59.885-19.854,131.774-81.577,157.696-3.945-35.883,19.737-64.328,12.92-93.85-2.991-12.961-3.949-42.966,12.917-56.887-32.774,10.92-84.565-9.96-89.471-58.928,37.797,18.003,86.479,21.004,105.379-27.003,18.78-47.763,10.886-129.613-111.48-232.346h0ZM3031.162,767.007c25.682-68.444,92.976-61.419,115.685-32.223,66.217-38.279,75.153,48.334,131.498,31.253-.951,16.111-19.743,31.253-40.532,30.163,21.74,20.111-8.937,50.394,37.553,68.441-39.581,20.111-94.88-.967-109.733-56.45-12.841,26.167-59.33,26.167-78.113,5.089,40.541-11.025,37.569-49.304,14.86-64.445-22.947-15.262-63.371-9.086-71.217,18.171h0ZM2827.743,914.943c18.567,59.837,57.017,115.609,98.461,153.545,47.792,43.802,120.02,32.793,160.387-8.975.957,83.294-85.405,89.759-133.438,63.669-21.201-11.491-38.329-5.505-17.968,12.923,30.904,27.887,98.461,48.591,178.235,65.703,139.415,29.801,89.724,140.384,48.873,139.307,11.728-.241,21.331-12.448,4.43-27.646-120.977-108.786-367.01-65.944-363.055-308.77-25.875,63.669-132.481,38.776-82.651-36.859,15.931,12.926,43.84,13.883,51.867-5.983,6.227-15.439,2.155-42.367-25.755-65.586,4.551-.358,14.495,0,13.414-11.488,1.198,6.702,7.308,16.634,23.001,13.284,4.43,7.061,9.222,11.728,15.569,9.215,1.198-.479,5.032-2.393,3.473-9.456,1.198,13.405,16.891,18.073,25.156,17.116h0Z"/>
        <path class="cls-7" d="M2955.02,1125.666c57.657,37.867,122.97,37.867,183.017-31.871,18.9-21.93,48.692-40.861,69.607-42.899,20.947-2.038,19.87-21.926,35.778-25.881-9.919-2.998-13.88-14.98-28.838-13.421,37.331-12.942,26.334-42.899,44.747-57.277-14.958,5.511-38.282-16.894-59.704,11.504,5.514-12.942-2.028-28.398-7.416-34.39,2.06,14.977-29.294,17.975-35.274,55.838-3.35,21.21-14.951,19.892-16.866-12.942-1.436-24.085-12.92-90.707-26.794-124.498-13.877-33.908-17.106-80.401,1.794-87.351-2.871-4.795-6.82-9.108-11.722-12.223-23.086-15.097-63.637-8.987-71.651,17.975-25.837,67.7,46.771,106.644,40.788,180.336-10.886-54.761-99.523-68.78-98.445-122.581-28.828,12.939-24.88,36.906-13.877,55.838-17.943-27.919-58.731,17.975-93.54-19.892-3.949,49.849,39.831,68.78,75.597,70.698-17.943,31.874,5.983,58.833,29.786,67.703.957-55.841,115.194-32.955,116.392,62.788.954,81.482-86.606,88.431-133.378,62.547h0ZM3114.345,1201.685c138.679,29.887,89.243,140.793,48.609,139.712-25.853-.599-50.514-22.446-52.064-41.409-29.665,15.962-21.803,47.412.954,59.894-62.43-7.444-88.641,33.965-90.19,79.336,11.437-21.004,46.106-22.443,58.975-18.003,12.866,4.44,46.106,6.962,59.451-8.043-10.962,9.485,6.908,31.449-8.458,48.372,52.064-2.041,74.817-50.891,65.881-72.377,67.437-61.694,54.57-162.517-83.158-187.482h0ZM3008.519,1677.262c9.371,5.596,8.135,17.499,1.848,24.997-12.698,14.999,6.411,50.831-32.669,56.903-11.589,1.784-20.098-5.359-23.92-18.095-10.604-35.236,27.865-37.616,31.931-54.162,4.193-16.428,14.92-14.403,22.811-9.643h0Z"/>
        <path class="cls-7" d="M2974.807,1740.23c12.397,6.259,23.093,14.923,16.53,54.878-2.795,16.609-3.403,56.922,11.304,58.006-9.238,4.091-28.565,8.065-36.101-2.526-8.141,12.274-25.159,7.941-31.361-7.945-9.358,6.861-21.27-5.894-20.782-16.485-8.144,4.693-23.584-3.131-18.719-26.959-9.726,3.011-21.879-4.212-26.135-10.47,14.222-2.285,50.444-19.854,59.562-34.656,8.994-14.682,31.237-21.061,45.704-13.842Z"/>
        <path class="cls-14" d="M2964.613,1851.332c5.089-5.562,8.081-29.659,5.238-44.366M2936.092,1841.825c5.726-4.509,16.745-20.475,19.014-34.859M2913.908,1825.98c7.691-3.232,27.032-26.081,31.69-41.197M2894.894,1800.628c9.273-1.566,38.301-18.894,50.704-38.028"/>
        <path class="cls-7" d="M2803.041,1005.206c-1.705,101.855,41.473,153.498,101.361,186.972-22.199-13.031-12.562-57.743-42.569-72.206,7.076-.479,18.298,9.444,35.984,5.498-8.661-18.887-22.811-47.7-55.743-51.642,8.661-.957,27.444,2.031,39.521-2.513-17.198-25.942-62.816-13.506-78.554-66.109h0ZM2793.79,908.101c-3.644-1.226-6.683-4.909-9.719-9.694-15.915,3.435-22.11-6.75-23.324-13.624.97,11.782-8.99,11.291-13.728,11.659,28.426,23.809,32.558,51.42,26.24,67.253-8.138,20.37-36.323,19.388-52.602,6.135-2.066,43.32,53.575,57.679,73.743,3.068,0,9.203,11.662,8.224,14.698,20.37,14.337-23.438,3.4-57.188-15.306-85.167h0Z"/>
        <path class="cls-11" d="M2707.235,707.03c-24.924-22.769-36.425-60.921-35.347-82.737.957-21.819,9.944-45.662,41.818-35.648-9.944,0-2.995,19.79-13.421,21.819,8.509,2.979,19.892-3.936,21.451-8.464,2.038,6.915,14.977,5.007,15.937,12.876,5.032-3.936-.479-23.248-7.91-27.304,5.514-2.979,8.509-18.358,5.993-25.751-5.032.954-12.464,7.989-13.899,17.886,2.516-7.989-.482-27.78-14.501-30.762-3.955,5.486-5.032,18.837.479,26.23-12.939-2.982-31.874,5.482-36.428,16.333.96-13.113,2.878-31.833,11.025-43.634,2.757-3.936-3.955-10.851-9.225-1.432-9.707-18.837-35.591-28.73-47.095-19.312-11.504,9.418-26.841-4.411-36.307,10.372-9.466,14.901-41.581,16.45-39.901,32.188.957,9.418-1.318,23.964-5.993,29.209-11.504,12.876,5.511,22.294,8.509,33.741-2.038-37.673,58.237-110.995,118.629-82.261-5.511,9.418-10.306,28.255-11.982,51.024-2.516,33.741,2.516,81.311,35.347,109.087l12.822-3.457h0Z"/>
        <path class="cls-10" d="M2723.774,587.618c-.364-8.705,15.37-19.965,36.428-19.733,25.416.231,45.022,22.405,65.355,20.313,20.332-2.206,10.287,8.705,6.05,11.608-4.234,2.903-6.775,7.197-5.324,12.537s-1.09,8.823-9.32,3.831c-18.152-10.911-36.187,4.294-60.148-4.063-20.453-7.428-32.435-11.491-33.04-24.493h0Z"/>
        <path class="cls-5" d="M2622.955,823.637c-9.935-31.503-47.757-66.011-66.188-73.946l-.957-16.951c9.935-3.968,33.87-22.966,44.762-33.547,74.687,35.952,176.181-15.027,222.978-67.931l17.952,10.943-8.975,12.023-9.456-5.051c-11.491,13.947-54.219,54.345-67.145,62.883,17.354,4.449,41.172,7.454,47.757,7.092,41.768-30.058,74.564-56.988,90.482-59.032l13.405,18.035-11.969,8.537-9.453-5.533c-44.765,37.033-95.511,117.951-115.498,171.935-27.77-6.012-127.347-2.044-147.695-29.456h0Z"/>
        <path class="cls-14" d="M2755.458,713.023c-6.56-1.775-12.147-3.676-15.668-5.704-8.138,7.859-28.299,14.704-54.051,15.845"/>
        <path class="cls-14" d="M2624.394,811.896c-6.775-36.618,3.993-77.137,23.112-89.42,41.745,27.051,113.257,27.051,155.488-2.481"/>
        <path class="cls-14" d="M2625.528,792.996c31.617-.97,100.315,4.491,117.076,7.038,16.758,2.548,44.927,9.586,41.004,18.2M2641.31,786.544l9.57-7.923-9.57-7.923-9.444,7.818,9.444,8.027Z"/>
        <path class="cls-11" d="M2662.828,600.906c-11.843-16.143-44.287-21.242-51.319.488-3.084,9.589-7.647,19.664-15.421,24.275-7.647,4.494-5.92,18.33-2.589,24.278,8.141,14.688.985,28.768,16.9,38.358,0-11.652,17.395-23.669,32.321-26.705,14.926-3.033,37.378-16.143,40.462-30.831,3.21-14.809,8.388-26.946-20.354-29.862Z"/>
        <path class="cls-5" d="M2590.206,745.347h3.974l.121,27.12c.843.241,1.686.719,2.408,1.195l23.603-13.5,2.047,3.464-23.723,13.624c.121.833.241,1.791.121,2.627l23.603,13.5-2.047,3.467-23.844-13.383c-.602.596-1.445,1.195-2.288,1.432v27.003h-3.974v-27.12c-.843-.241-1.686-.719-2.408-1.195l-23.603,13.5-2.047-3.464,23.723-13.62c-.121-.837-.241-1.794-.121-2.63l-23.603-13.5,2.047-3.464,23.723,13.5c.602-.599,1.445-1.195,2.288-1.436v-27.12h0Z"/>
        <path class="cls-5" d="M2624.853,811.043c-8.277,8.398-19.813,13.529-32.631,13.529-25.406,0-45.919-20.526-45.919-45.951s20.513-45.951,45.919-45.951c14.916,0,28.084,7.114,36.475,18.076-2.329,5.831-5.127,18.78-5.362,24.611-1.629-15.861-14.916-28.223-31.231-28.223-17.366,0-31.351,14.112-31.351,31.37,0,17.379,14.102,31.373,31.351,31.373,14.451,0,27.038-10.147,30.651-23.558.114,6.065.349,19.943,2.098,24.725h0Z"/>
        <path class="cls-11" d="M2573.23,857.498c-2.979-3.514-8.465-13.091-7.869-20.12,4.411-.485,12.879,2.545,16.812,6.544-.475-5.089-2.503-16.118-1.429-21.207,5.486,2.06,16.812,8.604,20.865,16.118-.954-5.089-2.982-18.181-.954-26.179,5.961,3.518,15.858,13.091,17.886,19.635.475-10.058,3.933-26.664,6.915-30.784,4.411,4.484,11.446,8.604,15.858,14.666.954-8.122,5.007-17.696,10.851-20.12,4.411,5.089,11.446,16.602,12.876,29.694,4.411-1.455,10.372-9.092,12.876-13.091,2.507,3.999,5.01,11.031,3.46,19.635,5.482-5.089,11.922-12.118,13.354-18.181,3.933,3.03,11.443,10.546,13.351,18.666-.951-6.544-.475-18.181-2.503-24.725,7.393,3.999,13.354,11.028,14.904,18.666,2.028-7.029,6.439-19.635,10.375-22.665,3.933,8.119,7.989,17.696,7.39,25.694,2.503-5.089,6.439-14.058,10.375-16.121,3.457,5.577,2.979,17.696,2.025,24.24,3.457-5.089,9.897-11.028,13.833-13.088.475,3.03.954,9.089,0,13.573,4.411-2.545,11.922-16.118,14.425-23.146,6.915,3.514,13.833,15.633,14.428,21.692,5.007-2.06,14.904-11.028,17.883-16.118,0,3.514,1.553,13.088-.475,20.602,2.982-3.03,5.961-9.089,7.393-11.633,2.025,5.089.475,17.087-1.55,23.631,4.411-3.999,10.968-6.544,14.904-6.544.475,8.604-5.486,23.635-10.971,34.783-47.453-13.452-147.131-18.542-247.288-24.116h0Z"/>
        <path class="cls-8" d="M2738.035,591.031c-.241-3.774,7.916-12.179,22.668-12.058,17.632.124,33.946,13.278,47.979,12.302,14.156-.973,7.197,3.777,4.199,4.994s-4.678,3.166-3.717,5.359c1.078,2.313-.719,3.774-6.477,1.705-12.594-4.627-25.19,1.825-41.742-1.705-14.273-3.289-22.551-4.994-22.909-10.597h0Z"/>
        <path class="cls-7" d="M2589.252,888.012c-15.018,17.727-29.916,14.771-32.917,3.429-3.004-11.345,8.049-16.663,3.964-26.591-3.964-9.808,6.487-14.299,11.532-9.808,5.045,4.373,21.026-9.808,27.995,4.966,6.965,14.771,12.492,25.051,8.528,30.958-4.085,5.91-16.099,2.957-19.103-2.954h0ZM2651.216,860.302c-2.839-6.706,13.075-19.512,21.34-10.366,8.268,9.146,21.096-9.878,28.252,4.513,7.156,14.511,9.501,22.072,13.079,30.121,3.578,8.17-19.493,12.438-26.648,5.365.989,4.757-19.984,8.537-25.659-5.121-3.084-7.194-6.417-15.611-10.363-24.512h0ZM2755.943,869.597c-3.648-6.855,14.229-16.666,23.517-4.136,2.469-5.2,20.107-6.148,21.286,8.864,1.176,15.008,1.762,23.875,2.234,29.782.469,5.91-10.702,11.348-18.818-3.663-14.463,2.957-21.049-5.2-22.693-13.709-1.765-8.747-3.53-13.002-5.527-17.138h0Z"/>
        <path class="cls-11" d="M2597.245,857.026c-2.339-5.086,13.053-15.135,23.52-7.507,10.467,7.507,25-6.538,31.281,7.023,12.559,27.491,13.297,29.427,9.482,34.755-3.819,5.33-20.196,3.27-24.382-3.996-.742,5.086-14.901,4.24-22.291.244-8.373-4.601-14.283-21.435-17.61-30.518h0ZM2701.939,858.8c-3.527-7.837,20.18-14.815,30.638-.979,5.349-4.896,16.897-5.143,23.463,9.916,6.563,15.062,7.536,23.387,2.795,27.181-3.403,2.694-15.683,4.776-19.696-2.079-5.593,3.549-22.735.488-26.502-9.184-3.768-9.548-7.051-17.997-10.699-24.855h0ZM2803.006,875.295c-.479-6.817,12.188-9.989,16.85,0,4.779,9.986,19.832.938,21.147,17.623.241,3.172-1.791,15.389-6.452,21.264-4.658,5.875-27.84,0-29.272-12.454-1.556-12.572-2.031-19.619-2.272-26.433Z"/>
        <path class="cls-14" d="M2587.5,887.952c-5.457-7.717-12.812-20.164-22.183-6.721M2635.035,887.952c-2.282-3.99-5.238-10.714-6.338-15.845M2685.739,887.952c-2.871-2.51-7.229-7.415-9.507-12.676M2682.57,862.6c9.143,1.005,15.408,9.665,18.162,13.554,2.881,3.892,8.895,10.92,13.528,11.798M2739.613,894.29c-2.83-4.874-5.66-9.143-6.338-12.676M2733.275,859.431c2.732,3.397,4.807,6.208,6.338,9.507M2783.979,900.628c-4.053-8.243-10.439-16.355-15.845-19.014M2780.81,872.107c.507,14.305,21.296,15.233,22.183,25.352M2818.838,875.276c2.155,3.448,2.915,6.893,3.169,12.676"/>
      </g>
    </g>
    <g id="mini-gb">
      <path class="cls-6" d="M1600,.1v1200H0V400.1C0,180.1,180,.1,400,.1h1200Z"/>
      <path id="Path" class="cls-12" d="M1534.9.1h65.1v255.8l-545.5,354.3,545.5,354.2v235.7h-96l-679-440.9-679,440.9H0v-203.2l595.5-386.7L31.6,243.9C65.5,164.1,124.5,97.6,198.7,54.3l626.3,406.7L1534.9.1Z"/>
      <path id="Path-2" class="cls-9" d="M0,1189.3v-119.2l708.2-460L60,189.3c17.8-28.7,39.2-54.9,63.4-78.2l676.6,439.4L1600,31.1v119.3l-708.2,459.7,708.2,460v119.2l-800-519.5L0,1189.3Z"/>
      <polygon id="Shape" class="cls-15" points="1000 400.1 1600 400.1 1600 800.1 1000 800.1 1000 1200.1 600 1200.1 600 800.1 0 800.1 0 400.1 600 400.1 600 .1 1000 .1 1000 400.1"/>
      <polygon id="Shape-2" class="cls-16" points="900 500.1 900 .1 700 .1 700 500.1 0 500.1 0 700.1 700 700.1 700 1200.1 900 1200.1 900 700.1 1600 700.1 1600 500.1 900 500.1"/>
    </g>
  </g>
</svg>