<?xml version="1.0" encoding="UTF-8"?>
<svg xmlns="http://www.w3.org/2000/svg" viewBox="0 0 3600.1 2401.738">
  <defs>
    <style>
      .cls-1 {
        fill: #039;
      }

      .cls-1, .cls-2, .cls-3, .cls-4, .cls-5, .cls-6, .cls-7, .cls-8, .cls-9, .cls-10, .cls-11 {
        fill-rule: evenodd;
      }

      .cls-1, .cls-3, .cls-4, .cls-6, .cls-8, .cls-11 {
        stroke-width: 0px;
      }

      .cls-2 {
        stroke-width: 4.008px;
      }

      .cls-2, .cls-5, .cls-7 {
        stroke-miterlimit: 8;
      }

      .cls-2, .cls-5, .cls-7, .cls-9, .cls-10 {
        stroke: #000;
      }

      .cls-2, .cls-8 {
        fill: #fff;
      }

      .cls-3, .cls-5 {
        fill: red;
      }

      .cls-5 {
        stroke-width: 3.033px;
      }

      .cls-6 {
        fill: #060;
      }

      .cls-7 {
        stroke-width: 2.989px;
      }

      .cls-7, .cls-9, .cls-10, .cls-11 {
        fill: #ff0;
      }

      .cls-9 {
        stroke-width: 3.426px;
      }

      .cls-9, .cls-10 {
        stroke-linecap: round;
        stroke-linejoin: round;
      }

      .cls-10 {
        stroke-width: 3.289px;
      }
    </style>
  </defs>
  <g id="background">
    <path id="pt" class="cls-3" d="M400,.1h2800c220,0,400,180,400,400v1600c0,220-180,400-400,400H400C180,2400.1,0,2220.1,0,2000.1V400.1C0,180.1,180,.1,400,.1Z"/>
  </g>
  <g id="country">
    <g id="pt-2" data-name="pt">
      <path class="cls-6" d="M4.749,338.656v1722.888c27.241,174.779,168.709,313.042,345.004,335.39h1092.463V3.266H349.753C173.458,25.614,31.99,163.878,4.749,338.656Z"/>
      <g>
        <path class="cls-9" d="M1910.349,1572.132c-180.579-5.436-1008.627-522.206-1014.307-604.499l45.724-76.24c82.138,119.323,928.651,621.891,1011.796,604.081l-43.216,76.632"/>
        <path class="cls-9" d="M930.716,880.308c-16.246,43.757,216.712,187.887,496.999,358.483,280.274,170.584,521.946,276.006,539.861,260.888,1.092-1.954,8.812-15.245,8.106-15.138-3.359,5.063-11.531,6.662-24.285,2.983-75.72-21.856-273.217-112.575-517.805-261.005-244.582-148.442-457.377-285.233-490.452-343.355-2.299-4.024-3.939-11.373-3.606-17.088l-.804-.013-7.042,12.317-.966,1.931h-.006v-.003ZM1916.042,1576.469c-3.071,5.576-8.796,5.763-19.672,4.566-67.745-7.501-273.302-107.538-516.535-253.248-283.023-169.542-516.763-324.025-491.405-364.401l6.899-12.206,1.358.424c-22.803,68.422,461.297,345.429,489.799,363.09,280.107,173.664,516.253,275.075,537.15,248.72l-7.602,13.086v-.013l.007-.019Z"/>
        <path class="cls-9" d="M1443.879,1018.039c180.646-1.431,403.561-24.709,531.847-75.888l-27.638-44.954c-75.828,42.01-299.968,69.635-505.735,73.767-243.366-2.242-415.149-24.928-501.223-82.737l-26.09,47.87c158.223,67.02,320.359,81.252,528.842,81.945"/>
        <path class="cls-9" d="M1982.039,942.648c-4.417,7.127-88.157,36.25-211.52,57.739-83.642,12.861-192.747,23.854-328.904,23.987-129.359.12-235.032-9.163-315.033-20.099-129.499-20.473-196.331-48.962-221.041-59.031,2.362-4.737,3.882-8.061,6.158-12.488,71.129,28.559,138.275,45.78,216.937,57.983,79.479,10.857,183.875,20.273,312.595,20.153,135.524-.139,243.426-11.968,326.587-24.443,126.5-20.574,195.6-47.053,205.308-59.351l8.932,15.549h-.019ZM1957.76,896.684c-13.71,11.104-82.027,35.538-202.227,54.896-80.216,11.592-182.213,21.967-312.529,22.097-123.803.12-224.948-8.292-301.884-19.593-122.071-16.078-187.039-45.078-210.462-53.535,2.339-4.071,4.72-8.118,7.143-12.139,18.225,9.252,80.922,34.917,204.659,52.594,76.062,10.876,177.366,18.982,300.551,18.855,129.701-.133,230.536-10.711,310.246-22.243,120.817-16.762,185.829-47.921,195.701-55.722l8.808,14.78v.013l-.006-.003ZM849.024,1235.612c111.315,60.26,358.556,90.627,592.521,92.717,213.03.342,490.556-33.141,594.339-88.496l-2.856-60.313c-32.467,51.068-329.876,100.056-593.791,98.052-263.918-2.004-508.993-43.032-590.688-96.142l.475,54.168"/>
        <path class="cls-9" d="M2042.15,1225.604l.006,14.264c-15.6,18.617-113.417,46.756-236.083,66.57-93.356,14.286-215.069,25.061-366.731,25.061-144.085,0-258.988-10.255-348.095-23.908-140.85-20.47-230.945-56.318-249.03-67.016l.079-16.642c54.326,36.048,201.505,62.419,250.93,70.49,88.524,13.564,202.743,23.74,346.11,23.74,150.953,0,271.982-10.702,364.752-24.893,88.005-12.69,213.378-45.685,238.059-67.659h.003v-.006ZM2042.21,1174.865l.006,14.264c-15.6,18.605-113.417,46.743-236.083,66.557-93.356,14.286-215.069,25.061-366.731,25.061-144.085,0-258.988-10.243-348.095-23.905-140.853-20.463-230.945-56.311-249.03-67.013l.079-16.642c54.326,36.044,201.505,62.419,250.93,70.477,88.524,13.577,202.743,23.756,346.11,23.756,150.95,0,271.982-10.708,364.752-24.909,88.005-12.69,213.375-45.685,238.059-67.659l.003.013ZM1440.741,1561.531c-256.423-1.51-476.137-69.093-522.535-80.264l33.831,52.354c81.955,34.078,296.305,84.868,491.164,79.241,194.865-5.617,365.161-20.539,485.17-78.291l34.689-54.26c-81.784,38.077-360.114,80.831-522.323,81.22"/>
        <path class="cls-10" d="M1942.1,1523.077c-5.056,7.66-10.244,15.233-15.562,22.715-56.587,19.748-145.751,40.483-183.378,46.531-76.857,15.673-195.771,27.249-301.308,27.302-227.085-3.29-412.968-47.288-500.416-84.82l-7.058-12.006,1.153-1.805,11.968,4.594c155.512,55.067,330.177,77.037,495.635,80.983,105.109.364,210.332-11.924,295.422-26.986,130.48-25.874,183.239-45.378,199.428-54.222l4.116-2.286h-.006.006ZM1972.167,1473.988c.133.152.266.298.393.462-3.874,6.478-7.794,12.929-11.759,19.352-30.18,10.677-112.088,34.395-231.695,50.948-78.807,10.626-127.789,20.916-284.558,23.93-293.763-7.396-483.958-64.249-529.143-78.272l-6.697-12.712c170.245,43.988,344.147,74.694,535.849,77.832,143.427-3.024,204.446-13.475,282.599-24.022,139.469-21.467,209.74-44.191,230.831-50.751-.289-.409-.598-.804-.925-1.184l15.122-5.592-.013.013-.003-.003Z"/>
        <path class="cls-9" d="M1975.327,1189.139c.83,168.332-85.419,319.387-154.892,386.026-98.283,94.278-228.595,154.923-380.777,157.719-169.935,3.116-330.168-107.531-373.146-156.139-84.025-95.034-152.438-215.715-154.632-378.358,10.411-183.717,82.623-311.693,187.295-399.451,104.675-87.758,244.053-130.496,360.127-127.441,133.922,3.53,290.362,69.147,398.46,199.412,70.819,85.349,101.487,177.97,117.565,318.231h0ZM1441.102,612.765c326.365,0,594.782,265.257,594.782,590.498s-268.417,590.505-594.782,590.505-592.553-265.26-592.553-590.505,266.188-590.498,592.553-590.498"/>
        <path class="cls-9" d="M1440.633,609.599c326.112,0,592.084,265.982,592.084,592.091s-265.979,592.078-592.084,592.078-592.084-265.969-592.084-592.078,265.979-592.091,592.084-592.091ZM861.578,1201.693c0,318.462,261.543,579.055,579.055,579.055s579.062-260.593,579.062-579.055-261.549-579.068-579.062-579.068-579.055,260.606-579.055,579.068Z"/>
        <path class="cls-9" d="M1442.216,660.258c297.755,0,543.008,243.667,543.008,541.428s-245.259,541.422-543.008,541.422-543.008-243.654-543.008-541.422,245.265-541.428,543.008-541.428ZM912.25,1201.683c0,290.609,239.367,528.415,529.966,528.415s529.966-237.806,529.966-528.415-239.36-528.421-529.966-528.421-529.966,237.806-529.966,528.421Z"/>
        <path class="cls-9" d="M1465.732,606.432h-50.429l.06,1190.501h50.599l-.231-1190.501Z"/>
        <path class="cls-9" d="M1462.449,600.1h12.902l.111,1203.157h-12.912l-.095-1203.157h-.006ZM1412.137,600.11h13.004l.019,1203.157h-13.013V600.11h-.01Z"/>
        <path class="cls-9" d="M2035.884,1223.847v-44.096l-35.835-33.451-203.401-53.956-293.139-29.975-352.965,17.984-251.262,59.952-50.732,37.646v44.106l128.501-57.771,305.107-47.962h293.139l215.367,23.981,149.563,35.968,95.658,47.573Z"/>
        <path class="cls-9" d="M1442.533,1110.531c139.973-.26,275.778,13.39,383.497,34.569,111.157,22.436,189.381,50.498,216.127,82.018l-.028,15.609c-32.254-39.226-137.519-67.982-218.6-84.421-106.898-20.995-241.795-34.55-380.995-34.29-146.884.279-283.659,14.324-388.996,35.075-84.522,16.933-197.246,50.571-211.32,83.753v-16.252c7.729-22.968,91.665-57.29,209.417-81.09,106.126-20.894,243.154-34.699,390.899-34.971h0ZM1442.593,1059.206c139.973-.256,275.778,13.399,383.496,34.569,111.157,22.445,189.381,50.498,216.127,82.018l-.028,15.606c-32.257-39.214-137.519-67.973-218.6-84.405-106.898-21.008-241.795-34.563-380.995-34.29-146.884.266-282.997,14.321-388.344,35.063-81.565,15.613-198.893,50.584-211.979,83.766v-16.262c7.729-22.718,93.366-58.271,209.424-81.09,106.126-20.894,243.154-34.689,390.899-34.971v-.003ZM1439.414,799.601c220.594-1.121,413.006,31.317,501.036,77.101l32.109,56.4c-76.512-41.867-284.093-85.4-532.825-78.89-202.664,1.266-419.212,22.654-527.861,81.508l38.333-65.091c89.17-46.946,299.455-70.768,489.214-71.015"/>
        <path class="cls-9" d="M1443.074,846.648c125.902-.329,247.558,6.69,344.308,23.943,90.101,16.572,176.03,41.449,188.318,54.826l9.524,16.635c-29.88-19.282-104.239-40.756-199.716-58.648-95.883-17.81-217.453-23.712-342.655-23.389-142.107-.478-252.51,6.934-347.259,23.262-100.211,18.532-169.735,45.005-186.887,57.584l9.334-17.585c33.328-16.803,86.204-37.058,175.061-52.87,97.985-17.69,209.563-22.996,349.982-23.759h-.01ZM1443.021,796.416c120.488-.313,239.452,6.323,332.185,22.8,73.137,14.071,145.466,36.038,171.948,55.589l13.931,21.879c-23.683-26.02-112.835-50.675-191.538-64.487-92.02-15.689-206.042-21.894-326.53-22.889-126.446.351-243.302,8.004-333.98,24.323-86.508,16.271-142.335,35.535-165.955,50.577l12.253-18.275c32.596-16.961,85.254-32.536,151.577-45.271,91.349-16.439,208.923-23.896,336.111-24.247h-.003ZM1735.159,1447.569c-108.684-20.166-217.564-23.094-293.617-22.205-366.336,4.268-484.68,74.764-499.124,96.108l-27.378-44.359c93.268-67.191,292.759-104.872,528.488-101.018,122.406,1.992,228.035,10.072,316.895,27.179l-25.27,44.305"/>
        <path class="cls-10" d="M1440.294,1420.577c102.294,1.513,202.702,5.709,299.62,23.642l-7.019,12.294c-90.013-16.49-185.971-22.8-292.255-22.284-135.717-1.054-272.983,11.525-392.489,45.559-37.71,10.414-100.135,34.471-106.499,54.348l-6.981-11.424c2.011-11.75,39.739-36.136,110.27-55.802,136.885-38.897,264.925-45.454,395.354-46.344v.013-.003ZM1444.936,1369.493c105.983,1.966,215.433,6.83,321.818,27.739l-7.308,12.798c-96.07-18.925-187.852-25.235-313.887-27.157-136.148.247-280.566,9.879-411.875,47.759-42.393,12.253-115.558,38.748-117.996,59.725l-6.981-12.276c1.589-19.051,64.927-43.903,121.912-60.351,132.323-38.175,277.118-47.991,414.32-48.237h-.003Z"/>
        <path class="cls-9" d="M1966.879,1484.63l-44.188,68.504-126.953-112.661-329.345-221.389-371.262-203.436-192.757-65.877,41.079-76.11,13.954-7.599,119.759,29.918,395.215,203.436,227.547,143.601,191.62,137.62,77.845,89.753-2.514,14.238Z"/>
        <path class="cls-9" d="M897.154,951.339c33.708-22.939,281.414,87.793,540.602,244.623,258.5,157.279,505.507,335.006,483.211,368.264l-7.333,11.576-3.366,2.663c.722-.516,4.439-5.075-.364-17.408-11.012-36.367-186.228-176.672-476.954-352.819-283.418-169.589-519.622-271.805-543.239-242.587l7.444-14.314h-.003l.003.003ZM1974.355,1484.073c21.312-42.247-208.445-215.93-493.301-385.032-291.407-165.739-501.432-263.297-539.794-234.206l-8.523,15.572c-.073.855.31-1.064,2.112-2.457,6.975-6.108,18.538-5.696,23.753-5.791,66.057.994,254.717,88.116,519.413,240.393,115.982,67.786,489.951,308.467,488.527,376.148.098,5.816.478,7.016-1.7,9.894l9.511-14.517v-.013l.003.009Z"/>
        <path class="cls-2" d="M1086.101,1267.74c0,97.387,39.974,185.465,104.732,249.838,64.886,64.509,153.062,105.214,250.838,105.214,98.277,0,187.466-39.815,252.076-104.077,64.61-64.252,104.65-152.935,104.669-250.664h-.013v-473.965l-712.388-.845.073,474.5h.013Z"/>
        <path class="cls-5" d="M1098.69,1267.724v.269c0,92.97,38.672,177.632,100.714,239.094,62.163,61.583,147.777,99.872,241.437,99.872,94.148,0,179.588-38.011,241.485-99.356,61.887-61.346,100.246-146.014,100.259-239.307h-.013v-459.116l-683.474-.111-.418,458.65M1645.162,946.526l.022,292.176-.247,30.905h.003c0,8.131-.491,17.405-1.444,25.298-5.554,46.192-26.897,86.454-58.509,117.777-37.004,36.665-88.081,59.408-144.374,59.408-55.998,0-105.901-23.531-143.066-60.358-38.121-37.77-60.219-89.557-60.219-143.107l-.079-322.844,407.902.731.009.013h0Z"/>
        <path class="cls-11" d="M1141.425,927.501c.823-32.941,24.741-40.74,24.912-40.857.174-.111,25.833,8.4,25.748,41.161l-50.66-.304"/>
        <path class="cls-7" d="M1124.913,888.461l-4.069,37.707,24.7.054c.238-31.197,23.706-36.386,24.275-36.269.532-.032,23.794,6.896,24.415,36.269h24.763l-4.471-37.995-89.614.225v.013-.003ZM1118.343,926.221h99.993c2.106,0,3.828,2.14,3.828,4.759s-1.722,4.74-3.828,4.74h-99.993c-2.109,0-3.831-2.131-3.831-4.74s1.722-4.759,3.831-4.759Z"/>
        <path class="cls-7" d="M1155.673,926.221c.114-19.751,13.909-25.339,13.979-25.33.006,0,14.403,5.763,14.517,25.33h-28.496M1121.398,872.396h97.045c2.045,0,3.72,2.147,3.72,4.749s-1.675,4.749-3.72,4.749h-97.045c-2.045,0-3.72-2.128-3.72-4.749,0-2.603,1.675-4.749,3.72-4.749ZM1121.284,881.894h94.107c1.982,0,3.606,1.425,3.606,3.163,0,1.748-1.624,3.169-3.606,3.169h-94.107c-1.982,0-3.606-1.422-3.606-3.169,0-1.738,1.624-3.163,3.606-3.163h0ZM1152.516,818.677l7.016.013v5.449h5.12v-5.569l7.187.025v5.547h5.136v-5.569h7.194l-.009,12.576c0,1.973-1.453,3.252-3.138,3.252h-25.235c-1.791-.05-3.228-1.498-3.264-3.29l-.016-12.427h.006l.003-.006ZM1179.372,834.499l1.631,37.897-25.33-.092,1.678-37.903,22.021.098M1148.533,850.232l.807,22.151-25.33.013.716-22.16h23.813-.006v-.003ZM1211.861,850.232l.807,22.151-25.33.013.716-22.16h23.813-.006v-.003ZM1120.854,837.653l7.01.016v4.363h5.129v-4.464l7.184.019v4.445h5.139v-4.461l7.19.009-.013,10.059c0,1.57-1.453,2.593-3.131,2.593h-25.232c-1.691,0-3.264-1.178-3.268-2.628l-.019-9.945h.006l.003-.006ZM1184.182,837.653l7.01.016v4.363h5.129v-4.464l7.184.019v4.445h5.139v-4.461l7.19.009-.013,10.059c0,1.57-1.453,2.593-3.131,2.593h-25.232c-1.691,0-3.264-1.178-3.268-2.628l-.019-9.945h.006l.003-.006Z"/>
        <path class="cls-4" d="M1163.592,845.299c-.193-3.955,6.405-3.999,6.329,0v9.682h-6.329v-9.682M1131.926,857.631c-.022-3.499,6.415-3.568,6.332,0v6.849h-6.329v-6.849M1195.254,857.631c-.022-3.499,6.415-3.568,6.332,0v6.849h-6.329v-6.849"/>
        <path class="cls-11" d="M1141.425,1202.975c.823-32.938,24.741-40.737,24.912-40.854.174-.111,25.833,8.4,25.748,41.161l-50.66-.307"/>
        <path class="cls-7" d="M1124.913,1167.105l-4.069,37.707,24.7.054c.238-31.197,23.706-36.386,24.275-36.272.532-.029,23.794,6.899,24.415,36.272h24.763l-4.471-37.995-89.614.225v.013-.003ZM1118.343,1204.865h99.993c2.106,0,3.828,2.14,3.828,4.759s-1.722,4.74-3.828,4.74h-99.993c-2.109,0-3.831-2.131-3.831-4.74s1.722-4.759,3.831-4.759Z"/>
        <path class="cls-7" d="M1155.673,1204.865c.114-19.751,13.909-25.339,13.979-25.33.006,0,14.403,5.763,14.517,25.33h-28.496M1121.398,1151.036h97.045c2.045,0,3.72,1.431,3.72,3.166s-1.675,3.166-3.72,3.166h-97.045c-2.045,0-3.72-1.418-3.72-3.166,0-1.735,1.675-3.166,3.72-3.166ZM1121.284,1157.372h94.107c1.982,0,3.606,2.137,3.606,4.749s-1.624,4.753-3.606,4.753h-94.107c-1.982,0-3.606-2.137-3.606-4.753s1.624-4.749,3.606-4.749h0ZM1152.516,1094.158l7.016.009v5.449h5.12v-5.569l7.187.025v5.547h5.136v-5.569h7.194l-.009,12.576c0,1.973-1.453,3.252-3.138,3.252h-25.235c-1.791-.05-3.228-1.498-3.264-3.29l-.016-12.427h.006l.003-.003Z"/>
        <path class="cls-7" d="M1179.372,1109.986l1.631,41.053-25.33-.101,1.678-41.06,22.021.108M1148.533,1128.876l.807,22.151-25.33.013.716-22.16h23.813-.006v-.003ZM1211.861,1128.876l.807,22.151-25.33.013.716-22.16h23.813-.006v-.003ZM1120.854,1113.152l7.01.019v5.452h5.129v-5.579l7.184.025v5.557h5.139v-5.579l7.19.013-.013,12.573c0,1.963-1.453,3.242-3.131,3.242h-25.232c-1.791-.047-3.229-1.492-3.268-3.283l-.019-12.434h.006l.003-.006ZM1184.182,1113.152l7.01.019v5.452h5.129v-5.579l7.184.025v5.557h5.139v-5.579l7.19.013-.013,12.573c0,1.963-1.453,3.242-3.131,3.242h-25.232c-1.791-.047-3.229-1.492-3.268-3.283l-.019-12.434h.006l.003-.006Z"/>
        <path class="cls-4" d="M1163.592,1120.777c-.193-3.955,6.405-3.999,6.329,0v9.682h-6.329v-9.682M1131.926,1136.272c-.022-3.496,6.415-3.565,6.332,0v6.852h-6.329v-6.852M1195.254,1136.272c-.022-3.496,6.415-3.565,6.332,0v6.852h-6.329v-6.852"/>
        <path class="cls-11" d="M1250.799,1492.818c-22.87-23.848-11.905-45.993-11.867-46.192.041-.199,23.816-12.032,47.069,11.177l-35.199,35.015"/>
        <path class="cls-7" d="M1207.935,1478.753l24.063,29.642,17.497-17.541c-22.122-22.3-9.242-42.684-8.758-43.007.355-.399,21.742-12.041,43.165,8.353l17.503-17.623-30.304-23.772-63.173,63.939.009.009h-.003ZM1230.934,1509.684l71.44-71.949c1.507-1.517,4.236-1.266,6.066.551,1.827,1.814,2.087,4.534.583,6.051l-71.443,71.946c-1.507,1.517-4.227,1.276-6.054-.538-1.833-1.817-2.099-4.544-.592-6.06h0Z"/>
        <path class="cls-7" d="M1256.774,1483.404c-13.985-14.045-8.508-27.521-8.451-27.565.003-.003,13.979-5.867,27.989,7.887l-19.536,19.678M1194.196,1470.173l68.486-68.973c1.444-1.45,3.977-1.301,5.617.329,1.646,1.631,1.811,4.16.367,5.614l-68.486,68.97c-1.444,1.453-3.967,1.314-5.617-.326-1.64-1.627-1.811-4.16-.367-5.614ZM1201.659,1474.716l65.506-65.971c1.38-1.39,3.853-1.194,5.497.44,1.646,1.637,1.862,4.11.484,5.5l-65.509,65.968c-1.377,1.39-3.853,1.194-5.5-.443-1.643-1.634-1.859-4.107-.478-5.493ZM1177.859,1408.758l5.18-5.199,3.701,3.673,3.771-3.8-3.78-3.755,5.316-5.319,3.765,3.739,3.787-3.812-3.784-3.755,5.303-5.338,8.533,8.489c1.339,1.333,1.137,3.274-.104,4.524l-18.598,18.728c-1.248,1.257-3.407,1.418-4.639.203l-8.454-8.368.003-.003v-.006ZM1208.758,1400.481l28.559,26.023-18.209,18.203-26.194-28.414,15.844-15.812M1199.319,1435.379l15.321,14.102-17.386,17.525-14.283-15.163,16.354-16.468-.003.003h-.003ZM1244.045,1390.33l15.321,14.105-17.386,17.522-14.283-15.16,16.354-16.468-.003.003-.003-.003ZM1169.06,1444.454l5.069-5.079,3.705,3.676,3.698-3.723-3.79-3.765,5.199-5.202,3.777,3.749,3.705-3.733-3.79-3.765,5.196-5.215,8.533,8.492c1.333,1.323,1.153,3.242-.06,4.461l-18.196,18.329c-1.222,1.228-3.356,1.377-4.591.158l-8.457-8.372.003-.003v-.009ZM1213.786,1399.408l5.069-5.079,3.705,3.676,3.698-3.723-3.79-3.765,5.199-5.202,3.777,3.749,3.705-3.733-3.787-3.765,5.193-5.215,8.533,8.492c1.333,1.323,1.153,3.242-.057,4.461l-18.199,18.329c-1.222,1.228-3.356,1.377-4.591.158l-8.457-8.372.006-.006-.003-.006Z"/>
        <path class="cls-4" d="M1207.764,1418.804c-2.774-2.53,1.004-6.393,3.651-3.676l6.526,6.478-3.651,3.676-6.522-6.475M1194.763,1450.837c-2.584-2.543.906-6.158,3.483-3.508l5.041,5.006-3.483,3.505-5.037-5.003M1239.625,1405.655c-2.587-2.543.902-6.162,3.483-3.508l5.041,5.003-3.483,3.508-5.041-5.003"/>
        <path class="cls-11" d="M1416.902,927.501c.769-32.941,23.193-40.74,23.354-40.857.161-.111,24.218,8.4,24.139,41.161l-47.493-.304"/>
        <path class="cls-7" d="M1397.221,888.461l-4.065,37.707,24.7.054c.238-31.197,23.706-36.386,24.275-36.269.529-.032,23.794,6.896,24.415,36.269h24.763l-4.471-37.995-89.614.225v.013l-.003-.003ZM1390.765,926.221h102.934c2.169,0,3.942,2.14,3.942,4.759s-1.773,4.74-3.942,4.74h-102.934c-2.169,0-3.942-2.131-3.942-4.74s1.773-4.759,3.942-4.759Z"/>
        <path class="cls-7" d="M1427.984,926.221c.114-19.751,13.909-25.339,13.979-25.33.006,0,14.403,5.763,14.517,25.33h-28.496M1393.71,872.396h97.045c2.045,0,3.72,2.147,3.72,4.749s-1.675,4.749-3.72,4.749h-97.045c-2.045,0-3.72-2.128-3.72-4.749,0-2.603,1.675-4.749,3.72-4.749ZM1396.648,881.894h91.168c1.919,0,3.492,1.425,3.492,3.163,0,1.748-1.574,3.169-3.492,3.169h-91.168c-1.919,0-3.492-1.422-3.492-3.169,0-1.738,1.574-3.163,3.492-3.163ZM1424.827,818.677l7.719.013v5.449h5.633v-5.569l7.906.025v5.547h5.649v-5.569h7.912l-.013,12.576c0,1.973-1.596,3.252-3.451,3.252h-27.755c-1.865,0-3.584-1.482-3.591-3.29l-.019-12.427h.006l.003-.006ZM1454.85,834.499l1.631,37.897-25.33-.092,1.675-37.903,22.024.098M1420.942,850.232l.706,22.151-22.164.013.627-22.16h20.837-.006v-.003ZM1487.338,850.232l.807,22.151-25.33.013.716-22.16h23.813-.006v-.003ZM1393.165,837.653l7.713.016v4.363h5.642v-4.464l7.903.019v4.445h5.652v-4.461l7.909.009-.013,10.059c0,1.57-1.599,2.593-3.448,2.593h-27.752c-1.862,0-3.591-1.178-3.597-2.628l-.019-9.945h.006l.003-.006ZM1456.493,837.653l7.713.016v4.363h5.642v-4.464l7.903.019v4.445h5.652v-4.461l7.909.009-.013,10.059c0,1.57-1.599,2.593-3.445,2.593h-27.755c-1.859,0-3.591-1.178-3.597-2.628l-.019-9.945h.006l.003-.006Z"/>
        <path class="cls-4" d="M1439.063,845.299c-.098-3.955,3.201-3.999,3.163,0v9.682h-3.163v-9.682M1407.397,857.631c-.013-3.499,3.207-3.568,3.166,0v6.849h-3.163v-6.849M1470.725,857.631c-.013-3.499,3.207-3.568,3.166,0v6.849h-3.166v-6.849"/>
        <path class="cls-11" d="M1736.644,927.501c-.769-32.941-23.193-40.74-23.354-40.857-.158-.111-24.218,8.4-24.136,41.161l47.493-.304"/>
        <path class="cls-7" d="M1759.491,888.461l4.065,37.71-24.697.051c-.241-31.197-23.709-36.386-24.275-36.269-.532-.032-23.797,6.896-24.418,36.269h-24.76l4.471-37.995,89.611.225v.013l.003-.003Z"/>
        <path class="cls-7" d="M1765.947,926.221h-102.934c-2.169,0-3.942,2.14-3.942,4.756s1.773,4.743,3.942,4.743h102.934c2.169,0,3.942-2.131,3.942-4.743s-1.773-4.756-3.942-4.756ZM1728.728,926.221c-.114-19.751-13.909-25.339-13.979-25.33-.006,0-14.403,5.763-14.517,25.33h28.496M1763.006,872.396h-97.045c-2.048,0-3.724,2.147-3.724,4.749s1.678,4.749,3.72,4.749h97.045c2.045,0,3.72-2.128,3.72-4.749,0-2.603-1.675-4.749-3.717-4.749h0ZM1760.064,881.894h-91.165c-1.922,0-3.496,1.425-3.496,3.166s1.574,3.166,3.496,3.166h91.165c1.922,0,3.496-1.425,3.496-3.166s-1.574-3.166-3.496-3.166h0ZM1731.885,818.677l-7.719.013v5.446h-5.633v-5.566l-7.906.025v5.547h-5.649v-5.573h-7.916l.016,12.576c0,1.973,1.599,3.252,3.451,3.252h27.755c1.865,0,3.584-1.482,3.59-3.293l.019-12.424h-.006l-.003-.003Z"/>
        <path class="cls-7" d="M1702.062,834.499l-1.833,37.9,28.496-.095-1.884-37.903-24.776.098M1735.767,850.232l-.706,22.151,22.164.013-.624-22.164h-20.837.006-.003ZM1672.445,850.232l-.706,22.151,22.164.013-.624-22.164h-20.837.003Z"/>
        <path class="cls-7" d="M1763.544,837.653l-7.713.016v4.363h-5.642v-4.464l-7.903.019v4.445h-5.655v-4.464l-7.906.013.013,10.059c0,1.57,1.599,2.596,3.445,2.596h27.755c1.858,0,3.59-1.181,3.594-2.631l.019-9.945h-.003l-.003-.006ZM1700.223,837.653l-7.713.016v4.363h-5.642v-4.464l-7.903.019v4.445h-5.652v-4.464l-7.909.013.013,10.059c0,1.57,1.599,2.596,3.448,2.596h27.752c1.862,0,3.59-1.181,3.597-2.631l.019-9.945h-.006l-.003-.006Z"/>
        <path class="cls-4" d="M1714.493,845.299c.095-3.955-3.204-3.999-3.166,0v9.682h3.166v-9.682M1746.152,857.631c.013-3.499-3.207-3.568-3.166,0v6.849h3.166v-6.849M1682.831,857.631c.013-3.499-3.207-3.568-3.166,0v6.849h3.166v-6.849"/>
        <path class="cls-11" d="M1736.644,1202.975c-.769-32.938-23.193-40.737-23.354-40.854-.158-.111-24.218,8.4-24.136,41.161l47.493-.307"/>
        <path class="cls-7" d="M1759.491,1167.105l4.065,37.707-24.697.054c-.241-31.197-23.709-36.386-24.275-36.272-.532-.029-23.797,6.899-24.418,36.272h-24.76l4.471-37.995,89.611.225v.013l.003-.003ZM1765.947,1204.865h-102.934c-2.169,0-3.942,2.14-3.942,4.759s1.773,4.74,3.942,4.74h102.934c2.169,0,3.942-2.131,3.942-4.74s-1.773-4.759-3.942-4.759Z"/>
        <path class="cls-7" d="M1728.728,1204.865c-.114-19.751-13.909-25.342-13.979-25.33-.006,0-14.403,5.763-14.517,25.33h28.496M1763.006,1151.036h-97.045c-2.048,0-3.724,1.428-3.724,3.166s1.678,3.166,3.72,3.166h97.045c2.045,0,3.72-1.418,3.72-3.166,0-1.738-1.675-3.166-3.717-3.166h0ZM1760.064,1157.372h-91.165c-1.922,0-3.496,2.137-3.496,4.749s1.574,4.749,3.496,4.749h91.165c1.922,0,3.496-2.134,3.496-4.749s-1.574-4.749-3.496-4.749h0ZM1731.885,1094.158l-7.719.009v5.446h-5.633v-5.566l-7.906.025v5.547h-5.649v-5.569h-7.916l.016,12.576c0,1.973,1.599,3.252,3.451,3.252h27.755c1.865,0,3.584-1.482,3.59-3.293l.019-12.424h-.006l-.003-.003Z"/>
        <path class="cls-7" d="M1702.062,1109.986l-1.833,41.053,28.496-.101-1.884-41.06-24.776.108M1735.767,1128.876l-.706,22.151,22.164.013-.624-22.164h-20.837.006-.003ZM1672.445,1128.876l-.706,22.151,22.164.013-.624-22.164h-20.837.003ZM1763.544,1113.155l-7.713.016v5.452h-5.642v-5.579l-7.903.025v5.557h-5.655v-5.579l-7.906.013.013,12.573c0,1.963,1.599,3.242,3.445,3.242h27.755c1.858,0,3.59-1.472,3.594-3.287l.019-12.431h-.003l-.003-.003Z"/>
        <path class="cls-7" d="M1700.223,1113.155l-7.713.016v5.452h-5.642v-5.579l-7.903.025v5.557h-5.652v-5.579l-7.909.013.013,12.573c0,1.963,1.599,3.242,3.448,3.242h27.752c1.862,0,3.59-1.472,3.597-3.287l.019-12.431h-.006l-.003-.003Z"/>
        <path class="cls-4" d="M1714.493,1120.777c.095-3.955-3.204-3.999-3.166,0v9.682h3.166v-9.682M1746.152,1136.272c.013-3.496-3.207-3.565-3.166,0v6.852h3.166v-6.852M1682.831,1136.272c.013-3.496-3.207-3.565-3.166,0v6.852h3.166v-6.852"/>
        <path class="cls-11" d="M1629.416,1492.805c22.873-23.848,11.905-45.993,11.87-46.195-.041-.196-23.816-12.032-47.069,11.18l35.199,35.015"/>
        <path class="cls-7" d="M1672.284,1478.741l-24.063,29.642-17.497-17.541c22.119-22.3,9.242-42.687,8.758-43.007-.355-.399-21.746-12.044-43.168,8.353l-17.5-17.626,30.304-23.769,63.169,63.936-.006.009.003.003ZM1649.288,1509.672l-71.443-71.949c-1.507-1.517-4.236-1.266-6.066.551-1.827,1.814-2.09,4.534-.583,6.048l71.443,71.949c1.507,1.52,4.227,1.276,6.054-.538,1.833-1.817,2.099-4.544.595-6.06Z"/>
        <path class="cls-7" d="M1623.445,1483.392c13.985-14.045,8.508-27.524,8.454-27.565-.006,0-13.982-5.867-27.993,7.887l19.536,19.678M1686.019,1470.157l-68.486-68.973c-1.444-1.45-3.977-1.298-5.617.329-1.646,1.631-1.811,4.16-.367,5.614l68.485,68.973c1.444,1.453,3.967,1.311,5.617-.329,1.64-1.627,1.811-4.16.367-5.614ZM1678.559,1474.701l-65.509-65.971c-1.377-1.387-3.853-1.191-5.497.443-1.646,1.634-1.862,4.107-.481,5.497l65.506,65.968c1.377,1.39,3.853,1.194,5.5-.443,1.646-1.631,1.858-4.103.481-5.493ZM1702.353,1408.739l-5.18-5.199-3.698,3.673-3.774-3.8,3.78-3.758-5.316-5.319-3.768,3.743-3.784-3.812,3.784-3.755-5.303-5.338-8.533,8.489c-1.339,1.33-1.14,3.271.105,4.521l18.598,18.731c1.247,1.257,3.407,1.418,4.639.203l8.454-8.368-.003-.003v-.006ZM1671.457,1400.465l-28.559,26.023,18.206,18.199,26.194-28.411-15.841-15.812M1680.893,1435.36l-15.318,14.102,17.383,17.525,14.28-15.166-16.35-16.464h.003l.003.003ZM1636.17,1390.314l-15.318,14.105,17.383,17.525,14.28-15.166-16.35-16.464h.006ZM1711.156,1444.438l-5.072-5.082-3.704,3.679-3.698-3.727,3.79-3.765-5.199-5.202-3.774,3.749-3.704-3.736,3.787-3.761-5.193-5.215-8.536,8.492c-1.33,1.323-1.153,3.242.06,4.464l18.199,18.326c1.219,1.228,3.353,1.377,4.591.158l8.454-8.372-.003-.003.003-.006ZM1666.433,1399.392l-5.069-5.079-3.704,3.679-3.698-3.727,3.787-3.765-5.199-5.202-3.774,3.749-3.704-3.736,3.787-3.761-5.193-5.212-8.536,8.485c-1.33,1.327-1.153,3.245.06,4.464l18.199,18.332c1.219,1.225,3.356,1.374,4.591.155l8.454-8.372-.003-.003.003-.009Z"/>
        <path class="cls-4" d="M1672.452,1418.788c2.774-2.533-1.004-6.396-3.651-3.679l-6.522,6.478,3.647,3.676,6.522-6.475M1685.449,1450.818c2.587-2.543-.902-6.162-3.483-3.508l-5.041,5.003,3.483,3.508,5.041-5.003M1640.59,1405.639c2.587-2.543-.902-6.162-3.483-3.508l-5.041,5.003,3.483,3.508,5.041-5.003"/>
        <path class="cls-1" d="M1397.892,1214.586v.029c0,13.384,5.012,25.577,13.054,34.423,8.058,8.875,19.159,14.387,31.298,14.387s23.278-5.474,31.301-14.311c8.017-8.827,12.997-21.008,12.997-34.445v-65.155l-88.493-.073-.161,65.139"/>
        <path class="cls-8" d="M1426.385,1174.77c0,5.246-4.253,9.499-9.499,9.499s-9.499-4.253-9.499-9.499,4.253-9.499,9.499-9.499,9.499,4.253,9.499,9.499ZM1477.045,1174.77c0,5.246-4.253,9.499-9.499,9.499s-9.499-4.253-9.499-9.499,4.253-9.499,9.499-9.499,9.499,4.253,9.499,9.499ZM1451.715,1198.517c0,4.373-4.252,7.916-9.499,7.916s-9.499-3.543-9.499-7.916,4.252-7.916,9.499-7.916,9.499,3.543,9.499,7.916ZM1426.385,1223.847c0,4.373-4.252,7.916-9.499,7.916s-9.499-3.543-9.499-7.916,4.252-7.916,9.499-7.916,9.499,3.543,9.499,7.916ZM1477.045,1222.264c0,5.246-4.253,9.499-9.499,9.499s-9.499-4.253-9.499-9.499,4.253-9.499,9.499-9.499,9.499,4.253,9.499,9.499Z"/>
        <path class="cls-1" d="M1397.892,1059.431v.029c0,13.384,5.012,25.577,13.054,34.426,8.058,8.872,19.159,14.384,31.298,14.384s23.278-5.474,31.301-14.311c8.017-8.824,12.997-21.008,12.997-34.445v-65.151l-88.493-.076-.161,65.142"/>
        <path class="cls-8" d="M1426.385,1019.616c0,5.246-4.253,9.499-9.499,9.499s-9.499-4.253-9.499-9.499,4.253-9.499,9.499-9.499,9.499,4.253,9.499,9.499ZM1477.045,1019.616c0,5.246-4.253,9.499-9.499,9.499s-9.499-4.253-9.499-9.499,4.253-9.499,9.499-9.499,9.499,4.253,9.499,9.499ZM1451.715,1041.779c0,5.246-4.253,9.499-9.499,9.499s-9.499-4.253-9.499-9.499,4.253-9.499,9.499-9.499,9.499,4.253,9.499,9.499ZM1426.385,1067.109c0,5.246-4.253,9.499-9.499,9.499s-9.499-4.253-9.499-9.499,4.253-9.499,9.499-9.499,9.499,4.253,9.499,9.499ZM1477.045,1067.109c0,5.246-4.253,9.499-9.499,9.499s-9.499-4.253-9.499-9.499,4.253-9.499,9.499-9.499,9.499,4.253,9.499,9.499Z"/>
        <path class="cls-1" d="M1271.237,1214.586v.029c0,13.384,5.193,25.577,13.52,34.423,8.346,8.875,19.843,14.387,32.416,14.387,12.636,0,24.111-5.474,32.419-14.311,8.302-8.827,13.463-21.008,13.463-34.445v-65.155l-91.653-.073-.168,65.139"/>
        <path class="cls-8" d="M1302.896,1174.77c0,5.246-4.253,9.499-9.499,9.499s-9.499-4.253-9.499-9.499,4.253-9.499,9.499-9.499,9.499,4.253,9.499,9.499ZM1350.389,1174.77c0,5.246-3.543,9.499-7.916,9.499s-7.916-4.252-7.916-9.499,3.543-9.499,7.916-9.499,7.916,4.252,7.916,9.499ZM1325.06,1198.517c0,4.372-3.544,7.916-7.916,7.916s-7.916-3.544-7.916-7.916,3.544-7.916,7.916-7.916,7.916,3.544,7.916,7.916ZM1302.896,1223.847c0,4.373-4.252,7.916-9.499,7.916s-9.499-3.543-9.499-7.916,4.252-7.916,9.499-7.916,9.499,3.543,9.499,7.916ZM1350.389,1222.264c0,5.246-3.543,9.499-7.916,9.499s-7.916-4.252-7.916-9.499,3.543-9.499,7.916-9.499,7.916,4.252,7.916,9.499Z"/>
        <path class="cls-1" d="M1521.382,1214.586v.029c0,13.384,5.012,25.577,13.054,34.423,8.061,8.875,19.159,14.387,31.298,14.387,12.203,0,23.278-5.474,31.301-14.311,8.017-8.827,12.997-21.008,12.997-34.445v-65.155l-88.493-.073-.161,65.139"/>
        <path class="cls-8" d="M1549.874,1174.77c0,5.246-3.543,9.499-7.916,9.499s-7.916-4.252-7.916-9.499,3.543-9.499,7.916-9.499,7.916,4.252,7.916,9.499ZM1600.534,1174.77c0,5.246-4.253,9.499-9.499,9.499s-9.499-4.253-9.499-9.499,4.253-9.499,9.499-9.499,9.499,4.253,9.499,9.499ZM1575.204,1198.517c0,4.373-4.252,7.916-9.499,7.916s-9.499-3.543-9.499-7.916,4.252-7.916,9.499-7.916,9.499,3.543,9.499,7.916ZM1549.874,1223.847c0,4.372-3.544,7.916-7.916,7.916s-7.916-3.544-7.916-7.916,3.544-7.916,7.916-7.916,7.916,3.544,7.916,7.916ZM1600.534,1222.264c0,5.246-4.253,9.499-9.499,9.499s-9.499-4.253-9.499-9.499,4.253-9.499,9.499-9.499,9.499,4.253,9.499,9.499Z"/>
        <path class="cls-1" d="M1397.892,1367.929v.029c0,13.01,5.012,24.868,13.054,33.467,8.058,8.628,19.159,13.988,31.298,13.988s23.278-5.322,31.301-13.916c8.017-8.58,12.997-20.425,12.997-33.489v-63.344l-88.493-.07-.161,63.331"/>
        <path class="cls-8" d="M1426.385,1328.339c0,4.373-4.252,7.916-9.499,7.916s-9.499-3.543-9.499-7.916,4.252-7.916,9.499-7.916,9.499,3.546,9.499,7.916ZM1477.045,1328.339c0,4.373-4.252,7.919-9.499,7.919s-9.499-3.546-9.499-7.919,4.252-7.916,9.499-7.916,9.499,3.546,9.499,7.916ZM1451.715,1352.088c0,5.246-4.253,9.499-9.499,9.499s-9.499-4.253-9.499-9.499,4.253-9.499,9.499-9.499,9.499,4.253,9.499,9.499ZM1426.385,1377.418c0,5.246-4.253,9.499-9.499,9.499s-9.499-4.253-9.499-9.499,4.253-9.499,9.499-9.499,9.499,4.253,9.499,9.499ZM1477.045,1377.418c0,5.246-4.253,9.499-9.499,9.499s-9.499-4.253-9.499-9.499,4.253-9.499,9.499-9.499,9.499,4.253,9.499,9.499Z"/>
      </g>
    </g>
  </g>
</svg>