<?xml version="1.0" encoding="UTF-8"?>
<svg xmlns="http://www.w3.org/2000/svg" viewBox="0 0 3600.818 2401.738">
  <defs>
    <style>
      .cls-1 {
        fill: #0038a8;
      }

      .cls-1, .cls-2, .cls-3, .cls-4 {
        stroke-width: 0px;
      }

      .cls-5 {
        stroke-width: 3.011px;
      }

      .cls-5, .cls-6, .cls-7, .cls-8, .cls-9, .cls-10, .cls-11, .cls-12, .cls-13, .cls-14, .cls-15, .cls-16, .cls-17, .cls-18, .cls-19 {
        stroke: #000;
      }

      .cls-5, .cls-6, .cls-7, .cls-8, .cls-10, .cls-11, .cls-12, .cls-13, .cls-14, .cls-15, .cls-16, .cls-18 {
        fill: #009b3a;
      }

      .cls-6 {
        stroke-width: 3.582px;
      }

      .cls-3 {
        fill: #d52b1e;
        fill-rule: evenodd;
      }

      .cls-7, .cls-17 {
        stroke-width: 2.189px;
      }

      .cls-8 {
        stroke-width: 3.047px;
      }

      .cls-9 {
        fill: #fff;
        stroke-width: 13.407px;
      }

      .cls-9, .cls-19 {
        stroke-miterlimit: 10;
      }

      .cls-10 {
        stroke-width: 3.04px;
      }

      .cls-11 {
        stroke-width: 2.742px;
      }

      .cls-12 {
        stroke-width: 2.342px;
      }

      .cls-13 {
        stroke-width: 2.8px;
      }

      .cls-14 {
        stroke-width: 3.578px;
      }

      .cls-15 {
        stroke-width: 2.887px;
      }

      .cls-4 {
        fill: #eee;
      }

      .cls-16 {
        stroke-width: 3.055px;
      }

      .cls-17 {
        fill: #fedf00;
      }

      .cls-18 {
        stroke-width: 3.12px;
      }

      .cls-19 {
        fill: none;
        stroke-width: 5.364px;
      }
    </style>
  </defs>
  <g id="background">
    <path id="bg" class="cls-3" d="M400,.1h2800c220,0,400,180,400,400v1600c0,220-180,400-400,400H400C180,2400.1,0,2220.1,0,2000.1V400.1C0,180.1,180,.1,400,.1Z"/>
  </g>
  <g id="country">
    <g id="py">
      <g id="h">
        <path class="cls-4" d="M3600,2000.1V800.1H0v1200C0,2220.1,180,2400.1,400,2400.1h2800c220,0,400-180,400-400Z"/>
        <path class="cls-1" d="M3600,2000.1v-400H0v400C0,2220.1,180,2400.1,400,2400.1h2800c220,0,400-180,400-400Z"/>
      </g>
      <g>
        <path class="cls-9" d="M2104.204,1200.02c0,168.065-136.153,304.284-304.211,304.284s-304.196-136.218-304.196-304.284,136.225-304.124,304.196-304.124,304.211,136.131,304.211,304.124Z"/>
        <path class="cls-6" d="M1947.084,1152.9c-7.385-.291-7.429,7.847-7.429,7.847,0,0,.255-2.407.044.327-.142,2.702,1.211,9.291,6.665,9.829,5.756.505,7.669-6.222,7.716-9.487,0-1.295-.422-8.349-6.996-8.509"/>
        <path class="cls-2" d="M1609.149,1321.802l-2.607-4.316c-.262-.48-.942-1.273-2.029-2.455-.516-.582-1.239-.938-2.015-.993-.822-.119-1.66.051-2.371.48-1.011.618-1.673,1.444-1.782,2.455-.193,1.029.287,2.444,1.429,4.353l2.636,4.491,6.738-4.014ZM1634.895,1320.318l-33.091,19.68-10.102-16.975c-1.873-3.185-3.011-5.716-3.455-7.716-.52-2.033-.273-3.938.567-5.833.836-1.913,2.356-3.505,4.473-4.775,1.628-.992,3.478-1.563,5.382-1.662,1.855,0,3.545.458,5.186,1.327,1.011.582,2.189,1.484,3.473,2.793-.305-1.415-.48-2.531-.411-3.396.212-.901.48-1.788.804-2.655.447-1.236.873-2.102,1.138-2.651l6.687-10.647,6.818,11.564-6.818,11.48c-.854,1.451-1.375,2.567-1.444,3.346-.04,1.076.196,2.014.709,2.935l.567.938,13.407-7.978,6.109,10.225ZM1576.64,1293.373l-10.102-30.189,7.789-2.618,6.327,18.924,5.84-1.964-5.949-17.564,7.484-2.44,5.876,17.476,7.164-2.316-6.466-19.473,8.265-2.814,10.262,30.756-36.491,12.222ZM1577.716,1231.918l-.407-2.825c-.265-2.356-.836-3.876-1.709-4.669-.886-.797-2.075-1.171-3.258-1.026-1.107.15-2.124.687-2.873,1.516-.764.924-1.018,2.444-.698,4.655l.324,3.396,8.622-1.047ZM1562.749,1245.7l-2.294-19.615c-.462-4.211.145-7.571,1.905-9.942,1.818-2.349,4.6-3.764,8.338-4.189,3.851-.48,7.04.349,9.462,2.389,2.393,2.069,3.924,5.516,4.495,10.255l.727,6.458,14.167-1.647,1.389,11.869-38.189,4.422ZM1561.414,1170.646l1.229-11.818,22.844,2.458c2.154.245,4.254.837,6.218,1.753,1.949.871,3.651,2.213,4.953,3.905,1.32,1.702,2.247,3.327,2.676,5.08.582,2.313.746,5.145.371,8.4-.214,2.027-.572,4.037-1.069,6.015-.48,2.171-1.225,3.964-2.156,5.342-.987,1.472-2.245,2.743-3.705,3.745-1.402.992-3,1.674-4.687,2-2.531.516-4.702.618-6.589.407l-22.738-2.4,1.225-11.836,23.331,2.531c2.102.211,3.775-.178,5.073-1.244,1.305-1.044,2.036-2.56,2.284-4.56.218-2.109-.215-3.731-1.233-4.985-1.011-1.295-2.582-2.018-4.702-2.265l-23.324-2.527ZM1599.68,1138.311l2.051-5.695c.622-1.927.8-3.418.375-4.495-.411-1.024-1.273-1.801-2.335-2.102-1.145-.393-2.087-.32-3.011.247-.96.582-1.786,1.818-2.444,3.745l-2.029,5.731,7.393,2.567ZM1585.411,1133.307l1.727-4.833c.582-1.767.746-3.109.316-4.015-.316-.869-1.069-1.556-2.225-1.891-.91-.38-1.942-.335-2.814.124-.836.494-1.535,1.553-2.102,3.255l-1.804,4.967,6.902,2.393ZM1567.247,1139.689l7.309-21.062c1.266-3.505,3.066-5.84,5.487-7.164,2.283-1.226,4.978-1.426,7.418-.553,2.098.829,3.698,2.109,4.807,3.982.655,1.236,1.069,2.865,1.069,4.756,1.513-2.4,3.258-3.927,5.2-4.582,1.978-.705,4.135-.669,6.469.145,1.833.633,3.367,1.676,4.582,3.055,1.156,1.455,1.92,3.047,2.298,4.851.174,1.164.087,2.72-.324,4.651-.604,2.705-.96,4.418-1.266,5.218l-6.771,19.382-36.28-12.68ZM1586.855,1090.398l6.218-10.149,24.767,15.011,9.644-15.84,8.073,4.931-15.716,25.982-32.985-19.935ZM1612.258,1052.558l7.647-9.109,29.345,24.811-7.658,9.109-29.335-24.811ZM1665.556,1031.882l10-4.276c1.284,2.691,2.015,5.251,2.116,7.764.1,2.408-.387,4.804-1.418,6.982-1.145,2.211-3.014,4.353-5.578,6.6-3.265,2.655-6.258,4.385-9.091,5.145-2.8.727-5.935.549-9.425-.549-3.367-1.113-6.574-3.534-9.673-7.164-4.029-4.927-5.884-9.76-5.473-14.502.393-4.825,2.993-9.16,7.731-13.156,3.764-3.113,7.255-4.738,10.691-5.004,3.353-.32,6.916.691,10.494,2.935l-6.571,8.524c-1-.655-1.833-1.091-2.545-1.236-1.04-.312-2.146-.325-3.193-.036-1.078.238-2.082.736-2.924,1.451-2.087,1.745-2.993,3.905-2.691,6.487.178,1.927,1.407,4.178,3.545,6.847,2.764,3.273,5.149,5.105,7.113,5.48,2.065.425,3.971-.156,5.753-1.644,1.731-1.484,2.673-3.04,2.709-4.738.051-1.807-.429-3.767-1.571-5.909M1704.465,1008.773l-10.047-10.4,2.531,14.269,7.516-3.869ZM1710.454,1015.085l-12.044,6.124,1.229,6.524-10.818,5.498-4.582-40.836,11.564-5.909,30.349,27.72-11.066,5.658-4.633-4.778ZM1757.229,974.995l2.956,20.764,2.891-.425c2.473-.306,4.204-.851,5.182-1.542.945-.76,1.589-1.731,1.978-3.255.425-1.415.425-3.622-.015-6.702-.567-4.015-1.64-6.702-3.138-7.978-1.527-1.273-3.833-1.731-6.895-1.273l-2.96.411ZM1744.294,968.042l17.462-2.513c3.44-.458,6.236-.425,8.48.215,2.204.592,4.229,1.716,5.898,3.273,1.661,1.599,2.973,3.526,3.851,5.658,1,2.317,1.671,4.762,1.993,7.265.625,4.033.625,7.287-.036,9.604-.548,2.274-1.582,4.403-3.029,6.24-1.462,1.72-3.084,3.011-4.884,3.735-2.192,1.011-4.512,1.719-6.895,2.105l-17.498,2.462-5.342-38.044ZM1796.625,960.587l31.735,2.353-.589,8.185-19.869-1.484-.462,6.102,18.429,1.36-.665,7.8-18.331-1.309-.538,7.502,20.44,1.516-.64,8.665-32.346-2.385,2.837-38.305ZM1845.519,965.075l11.426,3.185-7.898,27.945,17.84,5.04-2.604,9.055-29.28-8.291,10.516-36.934ZM1910.392,1007.736l2.458,1.593c1.891,1.255,3.491,1.785,4.655,1.658,1.18-.083,2.242-.745,2.836-1.767.63-.96.888-2.117.727-3.255-.233-1.127-1.284-2.276-3.138-3.498l-2.836-1.913-4.702,7.182ZM1909.447,987.486l16.524,10.898c3.578,2.349,5.68,5.004,6.327,7.865.691,2.902,0,5.945-2.127,9.095-2.062,3.2-4.738,5.076-7.909,5.622-3.207.513-6.72-.476-10.727-3.113l-5.433-3.607-7.807,11.902-9.964-6.596,21.116-32.066ZM1951.163,1046.111l6.698-12.818-12.72,6.88,6.022,5.938ZM1947.101,1053.751l-9.644-9.476-5.804,3.185-8.64-8.491,17.76-8.204,19.567-9.044,9.193,9.095-16.713,37.582-8.836-8.771,3.116-5.876ZM1982.814,1070.431l2.709,4.28c.324.429.909,1.258,2.12,2.385.556.547,1.294.869,2.073.905.803.095,1.612-.107,2.276-.567,1.018-.655,1.585-1.466,1.767-2.509.138-.993-.393-2.48-1.589-4.28l-2.745-4.385-6.611,4.171ZM1957.105,1072.711l32.411-20.691,10.64,16.676c1.975,3.076,3.226,5.607,3.829,7.571.46,1.949.284,3.994-.502,5.836-.785,1.945-2.225,3.556-4.254,4.887-1.836,1.164-3.6,1.818-5.418,1.818-1.727.105-3.491-.335-5.222-1.065-1.268-.779-2.445-1.697-3.509-2.738.338,1.415.553,2.564.513,3.36-.168.899-.393,1.785-.676,2.655-.289.945-.676,1.856-1.156,2.72l-6.273,10.862-7.273-11.338,6.527-11.636c.873-1.556,1.298-2.669,1.298-3.447.036-1.047-.127-2.036-.818-2.924l-.516-.88-13.185,8.4-6.415-10.065ZM2002.545,1124.493l11.527-8.702-14.411.8,2.884,7.902ZM1995.548,1129.642l-4.618-12.716-6.56.458-4.189-11.407,41.091.48,4.44,12.131-31.2,26.742-4.276-11.745,5.313-3.942ZM2013.948,1170.536l7.913-1.044,2.291,18.327-16.266,1.964c-2.745-3.185-4.844-6.036-5.967-8.636-1.251-2.578-2.051-5.709-2.509-9.371-.589-4.527-.291-8.313.975-11.356,1.142-3.04,3.174-5.571,6.022-7.571,2.873-1.891,6.258-3.145,10.196-3.622,4.153-.545,7.909-.124,11.185,1.236,3.284,1.309,5.92,3.52,7.971,6.633,1.582,2.462,2.633,5.84,3.131,10.225.589,4.189.589,7.389.036,9.567-.414,2.126-1.42,4.093-2.902,5.673-1.558,1.708-3.493,3.029-5.651,3.858l-3.455-11.091c1.375-.687,2.385-1.567,2.993-2.829.625-1.2.785-2.724.625-4.385-.429-2.618-1.498-4.56-3.455-5.869-2.015-1.309-4.978-1.72-8.862-1.236-4.131.509-6.927,1.695-8.553,3.411-1.527,1.804-2.098,4.116-1.815,6.88.145,1.309.531,2.531,1.033,3.662.553,1.2,1.353,2.422,2.458,3.945l3.622-.498-1.018-7.873ZM2038.29,1228.195l-1.353,11.775-22.735-2.564c-2.178-.236-4.301-.841-6.276-1.789-1.916-.909-3.598-2.245-4.916-3.905-1.302-1.658-2.193-3.346-2.618-5.04-.556-2.458-.698-5.218-.327-8.455.255-1.84.615-3.873,1.054-6.047.52-2.178,1.284-3.945,2.247-5.324,1-1.437,2.243-2.688,3.673-3.698,1.673-1.044,3.204-1.698,4.735-1.964,2.498-.476,4.724-.633,6.596-.349l22.771,2.596-1.353,11.745-23.291-2.676c-2.12-.225-3.796.145-5.116,1.189-1.28,1.058-2.051,2.545-2.258,4.582-.233,2.084.16,3.731,1.189,4.985,1.004,1.273,2.567,2.036,4.655,2.353l23.323,2.585ZM2002.901,1271.955l14.487.516-11.695-8.527-2.793,8.011ZM1994.308,1271.518l4.385-12.753-5.367-3.84,3.993-11.476,31.611,26.265-4.349,12.287-40.964,1.007,4.025-11.778,6.665.287ZM2015.534,1306.915l-6.687,11.371-15.142.051,7.247,13.302-6.644,11.233-11.687-24.218-13.862-8.167,6.091-10.276,13.847,8.225,26.837-1.52Z"/>
        <path class="cls-19" d="M2054.582,1200.115c0,140.691-114.007,254.709-254.629,254.709s-254.666-114.022-254.666-254.705,114-254.589,254.662-254.589,254.629,114,254.629,254.582l.004.004Z"/>
        <path class="cls-19" d="M1989.429,1199.205c0,104.724-84.811,189.542-189.48,189.542s-189.52-84.818-189.52-189.542,84.847-189.462,189.513-189.462,189.491,84.844,189.491,189.462h-.004Z"/>
        <path class="cls-17" d="M1799.964,1131.053l15.916,45.564,48.16,1.076-38.378,29.185,13.953,46.175-39.651-27.447-39.666,27.447,13.884-46.175-38.436-29.185,48.255-1.076,15.964-45.564Z"/>
        <path class="cls-11" d="M1887.462,1330.024c-1.607,1.345-8.073,2.069-9.782,2.356-1.731.225-8.52.295-11.393.4-1.582.109-4.629.549-6.214.549-13.92-1.585,22.615-1.364,27.389-3.309M1850.985,1319.256c.909-1.629,5.473-11.782,7.113-14.665,1.673-2.833,5.451-10.385,7.709-13.527,1.164-1.702,5.705-6.633,6.789-4.425-7.909,6.836-14.146,18.775-17.469,26.8-.429.865-3.029,5.335-3.989,6.505-.931,1.145-.549,3.316-2.007,3.491-1.538.193-.462.473-.462.473,0,0,1.316-2.938,2.316-4.655v.004ZM1903.462,1327.02s-6.291-.942-10.193-2.32c-3.884-1.309-10.407-2.313-15.967-2.175-5.505.073-10.546,1.735-15.036,3.447-4.473,1.662-10.265,1.804-10.265,1.804,0,0-3.28.513-1.745-.244,1.458-.727,6.538-4.691,6.538-4.691l3.28-4.491c.945-.262,17.585-22.098,15.775-27.96,2.549-4.313,5.534-12.011,4.415-13.353-.534-.545-12.956,3.942-15.68,6.415-3.156,2.727-5.382,8.407-6.327,11.68-.924,3.251-5.702,5.938-5.702,5.938-3.884,2.793-6.698,11.636-8.018,18.873-1.335,7.142-18.938,11.102-18.938,11.102,0,0-4.884,1.822-.549,3.2.746.211,2.68,3.48,4.233,3.531,2.153.251,13.084-4.429,14.775-4.058,3.713.842,7.387,1.846,11.011,3.011,4.171,1.415,7.611,2.138,10.527,1.062,2.96-1.065,7.186-.655,10.356-.036,3.12.673,6.611.389,8.622-.233,2.156-.655,7.825-3.804,7.825-3.804,0,0,6.131-2.655,9.673-4.316,3.549-1.658,1.393-2.385,1.393-2.385"/>
        <path class="cls-7" d="M1855.633,1348.264s-24.236-12.68-25.538-12.982c-.764-.105-10.996-5.745-15.676-7.2-3.386-1.095-8.055-1.382-9.731-1.273-3.989.28-10.505,2.04-10.505,2.04l6.022,2.462s5.651,2.775,8.415,4.262c3.953,2.087,4.131,4.629,4.131,4.629l21.945,9.655,4.451,3.2s4.051-5.589,16.487-4.793"/>
        <path class="cls-15" d="M1880.007,1297.929c7.622-6.8,11.349-16.466,17.622-21.818,1.018.727,1.018,1.942-.225,4.084-1.185,2.109-2.764,2.836-3.455,3.935-1.28,1.716-5.098,4.887-6.131,6.793-.916,1.804-2.102,4.327-5.429,6.247-3.309,1.978-2.269,5.124-2.545,6.444-.265,1.455-5.364,5.105-7.825,9.618-.469,4.705-.68,2.731-3.534,4.404,5.193-7.829,7.924-12.873,11.524-19.709M1862.877,1319.442c-.491,1.029-15.524,9.564-10.822,8.298,4.673-1.229,18.564-6.244,22.509-8,4.826-2.105,7.72-6.527,11.345-10.12,3.698-3.673,15.138-14.607,17.116-18.822,1.934-4.342,3.695-10.378-4.062-23.935,0,0-1.204,2.593-4.094,5.127-2.858,2.593-7.12,5.462-7.12,5.462l-4.974,4.702s-17.567,32.273-19.898,37.291"/>
        <path class="cls-11" d="M1923.949,1308.086s-9.622-.862-10.458-.862c-.909,0-6.182-.727-13.847-.727-7.593,0-10.444,2.633-12.436,4.753-2.156,2.375-8.145,7.855-8.145,7.855l3.229-.284c7.695-5.993,13.684-3.796,16.073-3.971,2.494-.087,5.494.16,13.2-2.567,7.818-2.742,7.36-.175,6.502.087-3.734,1.344-7.644,2.133-11.607,2.342-5.804.32-10.898,1.444-13.178,1.444-2.298,0-19.236,4.636-19.236,4.636,0,0,18.327,1.073,20.305,1.727,1.964.8,5.047.425,7.593-.796,7.022-3.236,10.196-3.855,13.08-4.509,2.905-.564,6.364-2.527,6.364-2.527,0,0,1.855-1.171,3.564-4.276,1.764-3.185-1.004-2.324-1.004-2.324M1932.942,1257.867c1.156-2.869,4.047-9.607,7.113-12.258,1.869-1.629,5.091-2.389,6.804-3.113.727-.247,5.993-.502-.582,1.305-2.727.727-6.414,2.338-8.051,5.084-2.298,6.378-4.306,11.938-8.574,16.015-3.135,3.291-5.12,7.575-5.12,7.575l-3.36,1.164c6.16-3.771,8.836-10.767,11.771-15.771h0ZM1962.735,1254.275c-3.509,1.171-4.742,2.138-4.742,2.138-7.854,2.356-11.069,7.287-14.509,11.302-1.745,2.102-4.204,3.673-12.491,7.225-7.571,3.255-13.429,8.284-13.571,8.284,0,0-2.4.491-1.942,1.658.178.553,2.225.109,2.225.109,0,0,15.6-2.225,22.102-6.182,4.153-2.604,6.502-4.498,10.436-10.582,1.764-2.687,3.742-7.745,3.833-4.491.305,8.629-13.102,16.996-18.938,19.578-3.127,1.327-7.291,1.876-12.742,2.775-5.386.993-8.662.695-8.269-.491.549-1.716,1.178-2.073,2.6-3.767,2.567-3.058,8.764-4.142,13.327-6.284,5.4-2.418,10.516-5.978,13.08-9.018,2.618-3.073,3.527-4.207,4.24-6.804,2-6.796,2.102-10.56,3.975-12.986,6.589-8.116,7.553-10.735,7.876-14.356.069-.836-3.422,1.924-5.236,2.931-3.549,2.102-4.866,2.102-12.134,4-7.382,1.84-7.218,6.596-8.364,8.844-.334.898-3.327,4.633-4.756,5.324-1.426.724-4.935,5.796-6.233,8.771-.96,2.171-2.676,3.731-4.047,3.556-1.44-.269,2.764-15.989,3.687-18.589,1-2.582,1.196-7.625,1.196-9.324,0-1.625.058-5.905-2.793-6.385-2.836-.48-2.967-4.396-2.967-4.396-6.822,5.909-3.011,16.32-2.276,22.491.731,6.116-1.407,17.436-1.407,17.436,6.589,2.814,1.407,10.822-.64,13.411-2.156,2.629-6.24,3.109-8.073,5.429-1.942,2.385-15.749,21.611-15.749,21.611l17.175-4.866s1.6.284-.964-1.658c-2.6-1.862.836-9.076,3.047-10.844,4.222-3.309,9.927-.902,9.927-.902,0,0,7.964,1.222,17.727-2.655,8.16-3.218,11.669-8.436,15.534-12.364,2.105-2.135,5.953-9.233,8.378-13.436,1.462-2.429,4.08-7.044,2.473-6.495"/>
        <path class="cls-16" d="M1914.036,1300.445c1.309-.531,1.505-.767,3.909-3.389,2.364-2.618.28-7.04-3.378-6.862-1.789.12-3.691-.295-7.207,4.436-3.396,4.735,1.626,6.466,3.534,6.662.815.044,1.891-.313,3.142-.847"/>
        <path class="cls-18" d="M1905.156,1270.511c-2.276,3.807-3.491,8.178-1.702,9.527.4.222,1.986,1.615,3.324,1.615,1.316,0,5.055-1.793,7.182-5.08,2.134-3.185,3.88-6.684-.484-8.858-3.956-1.96-6.676-.127-8.32,2.793"/>
        <path class="cls-11" d="M1918.149,1224.027s.36-.585-1.138-2.138c-2.371-2.429-5.338-6.753-5.338-6.753-4.72,2.582-6.291,7.8-6.291,9.873,0,2.153.8,6.84.073,11.618-.255,1.625-.516,3.484-2.851,9.393-2.389,5.833.338,11.193.873,13.084.407,1.876,2.356,7.709,2.356,7.709,0,0,1.847-1.185,2.473-1.324.727-.196,3.244-.087,3.244-.087,0,0,2.844-5.142,2.945-8,.055-2.109-.28-5.68-1.28-11.164-1.389-7.978-1.302-10.255-.356-14.716.945-4.527,5.291-7.502,5.291-7.502"/>
        <path class="cls-5" d="M1925.193,1231.991s2.68-.64,4.029-3.069c1.702-2.931,1.254-6.044,1.254-6.044-4.153-8.047-9.731-1.553-9.731-1.553-4.996,10.218,4.444,10.669,4.444,10.669"/>
        <path class="cls-14" d="M1939.327,1217.242c-6.196.32-9.244,11.455-9.244,11.455,0,0-1.004,2.753-4.306,4.88-3.513,2.171-1.44,5.291-1.44,10.836s-3.865,15.345-3.865,15.345l-1.44,3.324s.134,2.495,2.393-2.036c3.84-7.622,8.051-5.771,9.636-13.974,1.004-6.102,11.106-8.044,11.106-8.044l-2.84-.531c-10.498-4.92.607-17.189,2.4-19.364,1.905-2.167,3.72-2.167-2.4-1.891"/>
        <path class="cls-8" d="M1937.56,1230.449c-2.836,6.084,5.236,6.378,7.098,5.316.753-.436,2.458-2.462,2.458-2.462,3.273-4.705.28-7.891-1.429-8.346-1.644-.545-5.153-.964-8.127,5.491"/>
        <path class="cls-11" d="M1922.225,1206.842c2.12,3.945,8.036,14.924,9.425,14.24.873-.425.182-2.673.182-2.673,0,0-.178-2.971-1.142-6.564-.945-3.622-.716-8.258-2.604-11.229-1.833-2.967-6.233-6.491-7.964-11.178-1.709-4.702-.367-13.6-.225-14.694.174-1.026.694-.353-.218-1.415-.924-1.153-8.4-5.131-8.4-5.131,0,0,.436,2.902.255,8.156-.073,1.273-.429,2.756-.625,4.967-.174,2.105,1.091,4.756,4.156,10.807,3.56,7.004,5.273,11.302,7.16,14.713M1967.083,1154.613s-2.156,3.593-2.924,4.385c-.8.8-12.985,11.269-13.68,11.709-.589.462-6.953,2.495-12.742,18.145-5.807,15.6-3.295,30.189-3.295,30.189l2.814-.349.48-1.527s.945-5.178,1.673-9.105c.807-3.873,5.149-9.287,8.033-13.284,2.749-3.909,4.964-9.527,4.964-9.527,3.265-6.582,4.836-12.465,8.073-17.055.127,5.465-20.644,39.062-22.869,50.494l6.153-.938c4.913-4.491,11.345-13.92,15.698-20,4.378-6.102,6.24-15.636,7.036-19.862.764-4.175.589-23.273.589-23.273"/>
        <path class="cls-11" d="M1925.673,1158.071c-3.138-2.902-5.578-3.771-5.578-3.771,0,0,.749,5.695.749,9.164s.305,9.32.124,12.436c-.124,3.105-1.673,8.255.534,13.295,2.265,4.971,4.811,7.502,6.611,10.629,1.64,3.062,4.644,18.971,4.644,18.971,0,0-1.098-21.513-.153-27.6.873-5.978,1.16-15.298-.174-19.967-1.393-4.691-3.695-10.185-6.756-13.156M1940.011,1137.067c.945-1.84,3.156-5.644,4.08-11.429.338-2.455.567-6.436.48-9.193-.069-1.844-.8-5.04,0-5.255.713-.175.12.996.524,3.724.196.971-.473,3.665-.596,7.113-.164,2.756-.273,5.062-1.502,8.793-1.069,3.287-.102,6.938-.76,7.964-.709,1.04-2.6,4.985-2.6,4.985,0,0-1.156,3.185-.96,6.084.105,2.967.284,6.175.284,6.175,0,0,1.371-2.545,4.436-2.971,0,0,.694-4.975.694-6.527s1.996-11.745,3.011-14.858c1.389-4.56,2.371-12.502.164-21.72-.611-2.491-1.054-10.291-1.054-10.291,0,0-2.938,2.353-4.684,11.247-.538,2.705.604,9.956.156,17.687-.174,4.262-4.265,21.538-4.818,22.618"/>
        <path class="cls-11" d="M1940.011,1137.067c-.145.262-.196.371-.196.371,0,0,.124-.109.196-.371"/>
        <path class="cls-11" d="M1928.426,1092.227c1.571,0,1.571,1.698,1.247,3.04-.247,1.382-.211,3.945-.211,4.473,0,.604.655,4.265,1.178,6.175.567,1.964,1.549,2.582,1.12,6.524-.291,2.48-2.836,5.393-1.942,9.604.48,2.215,2.065,4.531,2.851,6.436.655,1.327.298,4.571.48,7.222.069,2.582,1.495,4.327,1.495,4.327,0,0-1.764,3.295-2.353-.825-.64-4.727-.854-6.829-1.76-8.967-1.48-3.505-2.836-9.807-.538-14.665.393-.938.698-2.684.698-4.756,0-2.105-1.295-5.702-1.545-7.927-.218-1.771-.073-5.502-.073-6.851M1920.837,1115.816c.371,2.669,1.229,4.189,4.24,9.993.927,1.913,3.033,6.793,3.349,8.349.375,1.556.698,3.433.698,3.909,0,.513.338,4.175.338,4.175v1.52s-8.342-4.862-11.993-7.462c-3.636-2.618-7.767-6.211-10.407-8.382-2.993-2.462-10.124-10.916-10.211-17.687l-3.276-2.971s-2.498,15.051,9.298,24.793c3.404,2.793,7.113,5.873,15.04,9.462,7.949,3.665,6.905,6.942,10.218,13.982,3.262,7.073,5.305,11.142,5.716,13.142.284,2.138-.906,32.207-.906,32.207l.284,2.727s7.265-27.855,10.756-30.964c0,0-6.927-1.065-6.378-11.956l-1.214-7.182s-1.385-8.633,1.214-13.989c0,0,3.084-9.818,2.033-18.305-.658-5.076-.894-6.596-1.513-11.462-.945-7.571-3.978-18.393-4.316-19.702-1.036-3.8-1.389-4.385-2.6-7.389-.36-1.062-1.036-4.567-2.156-4.618-.644-.036-1.626,4.509-1.626,4.509,0,0-1.455,4.953-1.76,6.295-.945,4-3.156,7.356-4.167,16.342-.182,1.629-.36,6.015-.556,6.6-.105.494-.316,3.076-.105,4.065"/>
        <path class="cls-11" d="M1927.029,1153.82s-1.211-2.691-2.444-4.069c-2.473-2.916-5.804-5.393-15.284-10.025-9.444-4.705-11.942-12.436-16.753-15.618-2.207-1.524-6.484-2.247-6.484-2.247,0,0,4.204,5.785,5.2,7.782,1.284,2.545,1.589,4.28,6.789,9.127,5.167,4.866,11.476,6.564,15.538,7.767,5.738,1.782,13.436,7.287,13.436,7.287M1897.265,1109.126c.255.764,2.691,9.076,7.804,15.535,7.818,9.884,22.876,16.945,22.876,16.945-1.407-6.153-3.862-13.265-5.804-16.415-6.847-11.055-24.927-16.473-24.927-16.473,0,0-.32-.422.051.407M1918.851,1113.787c4.051-8.873-8.044-17.345-11.455-23.527,1.262-1.004,2.76,1.629,4.146,3.382,1.982,2.633,7.56,10.255,7.56,10.255l1.727-8.116-14.404-13.105c-.174,1.905-4.625,3.473-4.625,3.473-2.156,12.131,17.055,27.636,17.055,27.636"/>
        <path class="cls-11" d="M1893.771,1093.227c-3.473,1.556-4.705,1.556-4.705,1.556l1.938,5.142,1.127,1.396s4.524,6.545,7.16,7.36c1.102.407,5.222,1.127,9.356,2.898,5.2,2.211,13.691,9.636,13.691,9.636,0,0-14.124-15.927-19.538-27.869l-1.826-6.88-5.12.338s1.407,4.833-2.084,6.425"/>
        <path class="cls-11" d="M1840.913,1083.042c2.374,2.137,4.946,4.044,7.68,5.695,3.116,1.876,12.098,7.16,18.818,8.436,1.571.247,10.007,1.309,10.007,1.309.338-3.698,4.349-4.018,4.349-4.018l-11.953-1.309c-9.64-.713-16.975-4.742-22.684-11.193,7.658,4.644,18.669,11.956,27.593,11.564,36.636-3.6-11.04-4.509-15.174-7.16-4.385-2.705-8.124-7.2-8.124-7.2l-10.742-.48s-5.28-.331.229,4.356"/>
        <path class="cls-11" d="M1884.047,1103.904c2.371-.175,4.029-.618,4.564-3.215.48-2.902-.622-5.007-4.116-5.771-1.942-.48-5.345-.582-6.735,2.869-1.513,3.534,3.989,5.804,3.989,5.804,0,0,1.051.458,2.298.313M1888.156,1082.9c-3.102,0-4.153,2.531-3.491,7.462.818,4.975,8.426,2.8,8.426,2.8l1.407-.727s1.036-.8.462-4.756c-.534-4.051-3.687-4.778-6.807-4.778M1900.611,1086.391h-.12c-.058.036.12,0,.12,0"/>
        <path class="cls-11" d="M1900.494,1086.391c.087-.036.302-.145,1.106-.371,1.582-.6,3.185-4.407,3.185-4.407.8-5.142-2.88-6.415-2.88-6.415-6.207-1.236-6.367,4.207-6.367,4.207-1.709,7.091,4.044,7.022,4.953,6.982M1872.873,1062.035c.345,2.356,3.691,5.767,4.211,6.353.604.527,4.884,4.989,6.327,6.982,1.44,2.004,6.24,11.065,6.24,11.065,0,0,.836-.138,1.193-.829.836-1.411-3.214-12.393-3.622-13.149-1.484-3.335-3.905-5.822-6.345-8.422-.567-.367-2.567-2.935-4.756-5.691,4.338,5.549,15.455,21.327,18.731,28.342,0,0-.396-7.476-.807-11.491-1.385-11.709-4.436-15.335-5.415-17.029-1.727-3.164-6.109-6.24-9.251-7.324-3.131-1.135-6.84-2.691-10.811-3.964-4.102-1.251-.945,2.444.567,5.629,1.891,3.767,3.404,7.145,3.746,9.531"/>
        <path class="cls-11" d="M1857.582,1081.296c4.047,3.429,5.862,5.818,14.254,7.055,8.462,1.327,9.175.764,9.175.764,0,0,4.389-2.12,2.16-3.978-12.436-5.469-24.211-11.978-30.189-19.298,0,0,1.036-1.007,5.345,3.309,2.498,2.531,4.175,3.8,5.705,4.989,4.524,3.164,6.484,4.065,10.996,6.524,2.4,1.309,8.407,2.72,8.407,2.72,0,0,.854-1.818,1.618-2.033.735-.175-.462-3.029-5.684-7.255-2.905-2.402-5.47-5.188-7.625-8.28,0,0-6.182-1.353-12.88-2.469-4.993-.793-14.382-8.08-14.218-6.102.171,2.036,1.407,8.349,3.938,12.364,2.545,4.033,4.971,8.156,8.996,11.695"/>
        <path class="cls-7" d="M1787.673,1334.333c-3.665,1.08-31.171,11.407-31.171,11.407l-7.68,3.076c10.604-2.385,18.727,2.956,18.727,2.956l30.636-14.182s-.087-.465-.851-1.015c-.804-.545-5.953-3.36-9.662-2.244"/>
        <path class="cls-12" d="M1747.662,1349.747c-.204.175-.411.902.124,1.135,1.527.847,1.116,1.182,8.058,2.014,7,.76,11.564-.567,12.76-1.891,1.404-1.538-17.342-4.404-20.945-1.258"/>
        <path class="cls-10" d="M1703.651,1250.805l-1.273-8.596s-1.6-23.244-4.24-27.905c-.505-1.033-.276-3.447-1.953-3.487-3.207-.24-3.207,7.32-3.596,14.171-5.215,34.545,22.338,60.924,22.338,60.924l-11.276-35.105Z"/>
        <path class="cls-13" d="M1840,1353.162s-2.891-.644-1.062-2.902c1.753-2.145,6.964-3.295,8.007-3.295,1.025-.044,3.949.211,6.124.818,2.196.542,5.229,2.476,4.342,3.88-.927,1.335-3.894,3-7.953,3-3.48,0-5.262-.087-6.796-.524-1.484-.564-2.665-.978-2.665-.978"/>
        <path class="cls-7" d="M1810.127,1336.725s-9.458-4.349-18.422-8.735c-11.818-5.771-26.018-13.782-35.906-28.48-12.382-18.196-23.149-27.942-25.749-29.902-2.676-1.964-3.062-2.691-4.044-1.309-.891,1.2-.269,2.244.48,3.516,2.545,4.142,8.804,11.92,11.047,16.098,3.865,7.462,11.869,15.611,11.796,20.444,0,.673-2.335-.48-2.335-.48,0,0-18.727-6.415-26.313-29.105-5.527-16.451-3.178-21.284-4.462-29.502-2.189-14.611-2.636-15.796-9.869-32.175-.196-.407-4.422-7.251-4.989-5.731-.785,1.964.713,9.287.713,9.287l.767,8.436s-.611,18.727-.611,19.862-4.716,12.822,15.324,32.473c0,0,.305,3.338-2.385.4-1.905-2.102-16.251-13.12-20.615-31.244-4.495-18.131-5.149-36.276-1.745-43.811,3.08-6.807,9.265-23.455,6.629-37.993-.305-1.516-.735-5.978-1.695-4.807-.407.567-2.211,7.927-3.298,10.473-1.513,3.484-3.865,6.909-4.593,9.316-1.411,4.084-8.324,10.4-6.971,22.018,1.531,13.353,2.404,15.44,4.011,20.2.549,1.731,1.891,6.153,1.018,6.596-.804.425-3.636-5.287-3.636-5.287,0,0-12.691-24.938-4.866-45.171,7.913-20.145,27.76-39.247,27.76-39.247,0,0,16.124-13.371,19.407-16.484,1.284-1.2.978-2.102.549-1.964-4.007,1.011-35.033,7.429-45.935,44.393,0,0-.567,1.556-1.371,1.171-1-.447,0-2.182,0-2.182,0,0,6.826-26.204,25.975-38.091,20.902-13.036,18.447-11.127,25.36-15.229,4.349-2.705,8.284-6.327,13.149-14.378.498-.898,2.473-5.585,2.211-6.385-.218-.793-1.156.302-1.6,1.629,0,0-5.92,9.142-14.778,12.218-8.887,3.08-16.109-1.309-25.033,8.56-8.946,9.924-16.054,23.665-16.054,23.665,0,0-2.335,3.556-2.851,3.447-.982-.298.48-3.782.48-3.782,0,0,11.938-25.327,21.527-30.473,9.6-5.185,18.153-10.156,23.607-14.364,6.633-5.2,18.051-17.931,22.167-22.316.873-.938,7.004-7.149,8.356-9.164.818-1.098,2.764-2.691,2.444-2.967-.873-.655-6.687,2.138-6.687,2.138,0,0-31.618,8.713-51.287,38.425-.909,1.378-3.073,4.182-4.233,5.367-2.102,2.178-3.153,5.807-3.153,5.807-1.284-1.062,11.12-16.564,11.12-16.564l2.171-10.029s3.673-15.065,11.389-25.702c.764-.967,5.324-5.567,6.095-6.524,1.527-1.658-2.909,1.455-2.124.76,0,0-29.491,21.171-29.491,47.844,0,4.789-2.975,9.164-7.091,15.12-4.811,6.916-6.414,11.164-8.498,21.455-.869,4.327-1.772,8.647-2.709,12.96,0,0,.284,3.807-.945,3.524-1.284-.284-.836-3.433-.836-3.433,0,0,3.011-19.88,5.149-26,2.084-5.942,3.455-9.989,3.455-9.989,0,0-1.229-14.945,2.087-23.138,2.814-7.142,9.942-16.549,11.047-18.902.48-1.026,3.778-7.727,4.702-15.367.127-1.026-.676-.175-2.011,2.807-3.244,7.309-5.953,9.218-11.28,16.095,0,0-13.665,9.905-18.618,39.367,0,0-.164,10.982-1.833,28.196-1.214,12.611-.182,24.422,1.244,31.535.909,4.349,2.64,4.385,1.571,4.913-.665.338.422.058-1.127-3.229-1.891-3.945-3.338-10.015-3.338-18.4,0-15.371,1.335-27.709,1.335-27.709,0,0,1.004-24.836-9.295-36.033-.498-.582,1.804,5.025,2.836,10.615,1.266,6.935-1.033,16.556-1.709,20.302-.658,3.767-7.524,20.182-5.098,35.585,0,0,5.804,26.124,13.291,38.786,0,0,4.655,5.455.538.342-4.08-5.113-12.458-25.44-13.185-27.171-.644-1.662-6.647-14.313-12.298-19.455-2.924-2.727-10.956-7.549-10.956-7.549,0,0-4.364-3.327-1.054,1.091,2.618,3.491,6.135,9.745,7.804,12.473,3.483,5.63,6.58,11.489,9.269,17.538,2.691,5.913,8.946,23.298,8.946,23.298l4,11.026s6.709,3.724,10.364,7.789c2.989,3.291,9.193,10.844,14.342,24.284,2.316,5.945,6.938,11.389,6.938,11.389,0,0-.982,1.887-5.098-5.236-4.058-7.222-8.036-20.764-17.818-31.298-7.433-8.087-27.429-16.236-27.429-16.236,0,0,12.847,22.389,16.036,26.385,5.4,6.4,13.204,15.385,15.218,17.76,2.084,2.422,14.167,17.345,15.949,19.738,2.814,3.731,4.669,5.375,6.145,6.895,3.185,3.393,12.629,9.585,13.364,10.56.138.989.327.175-.473-.411-4.189-2.498-9.189-6.44-14.356-9.8-5.149-3.415-25.033-11.902-38.429-30.364-3.174-5.462-4.687-7.636-5.756-7.073-1.64.869,9.018,36.131,30.935,47.345,0,0,24.178,10.753,29.542,13.989,2.942,1.767,8.873,4.385,11.618,6.596,1.567,1.295-1.426,1.222-1.622,1.185-12.847-1.004-31.287-2.705-42.607-9.273,0,0-4.862-3.411-.873,1.385,3.174,3.709,9.196,12.855,20.815,18.004,11.636,5.105,28.545,8.084,34.731,8.4,6.073.338,27.738.444,31.891,1.789,4.062,1.375,10.978,5.804,14.935,7.08,3.596,1.164,14.447,5.324,14.447,5.324,0,0,3.265,1.789,5.011,2.422,1.96.782,10.087.709,10.662-.811.546-1.364-2.324-3.44-2.324-3.44"/>
        <path class="cls-11" d="M1950.629,1153.1c2.455.898,3.542,8.185,3.542,8.185,0,0-.215-4.171-.215-6.225,0-2.073-1.011-9.833-1.011-9.833l-2.178,1.556c-2.6,2.073-4.044,5.731-4.044,5.731,0,0,1.495-.247,3.905.582"/>
      </g>
    </g>
  </g>
</svg>