<?xml version="1.0" encoding="UTF-8"?>
<svg xmlns="http://www.w3.org/2000/svg" viewBox="0 0 3600.818 2401.738">
  <defs>
    <style>
      .cls-1 {
        fill: #8d1b3d;
      }

      .cls-1, .cls-2 {
        fill-rule: evenodd;
        stroke-width: 0px;
      }

      .cls-2 {
        fill: #eee;
      }
    </style>
  </defs>
  <g id="background">
    <path id="bg" class="cls-2" d="M400,.1h2800c220,0,400,180,400,400v1600c0,220-180,400-400,400H400C180,2400.1,0,2220.1,0,2000.1V400.1C0,180.1,180,.1,400,.1Z"/>
  </g>
  <g id="country">
    <path id="qa" class="cls-1" d="M3600,2000.1V400.1C3600,180.1,3420,.1,3200,.1H492.377l435.874,133.334-435.874,133.335,435.874,133.329-435.874,133.335,435.874,133.335-435.874,133.334,435.874,133.335-435.874,133.329,435.874,133.334-435.874,133.335,435.874,133.335-435.874,133.329,435.874,133.334-435.874,133.335,435.874,133.335-435.874,133.329,435.874,133.335-435.874,133.334h2707.623c220,0,400-180,400-400Z"/>
  </g>
</svg>