<?xml version="1.0" encoding="UTF-8"?>
<svg xmlns="http://www.w3.org/2000/svg" viewBox="0 0 3600.818 2401.738">
  <defs>
    <style>
      .cls-1 {
        fill: #36f;
        fill-rule: evenodd;
      }

      .cls-1, .cls-2, .cls-3 {
        stroke-width: 0px;
      }

      .cls-2 {
        fill: #ff0;
      }

      .cls-3 {
        fill: red;
      }
    </style>
  </defs>
  <g id="background">
    <path id="re" class="cls-1" d="M400,.1h2800c220,0,400,180,400,400v1600c0,220-180,400-400,400H400C180,2400.1,0,2220.1,0,2000.1V400.1C0,180.1,180,.1,400,.1Z"/>
  </g>
  <g id="country">
    <g id="re-2" data-name="re">
      <path class="cls-3" d="M1800,1200.1L142.178,2305.315c69.752,59.064,159.818,94.785,257.822,94.785h2800c98.004,0,188.07-35.721,257.822-94.785l-1657.822-1105.215Z"/>
      <g>
        <polygon class="cls-2" points="3600 1290.1 3600 1110.1 1800 1200.1 3600 1290.1"/>
        <path class="cls-2" d="M62.279,186.429l1737.721,1013.671L213.706,46.432c-61.753,32.762-114.033,81.236-151.427,139.998Z"/>
        <polygon class="cls-2" points="0 1290.1 1800 1200.1 0 1110.1 0 1290.1"/>
        <polygon class="cls-2" points="1710 .1 1800 1200.1 1890 .1 1710 .1"/>
        <path class="cls-2" d="M3386.294,46.432l-1586.294,1153.668L3537.721,186.429c-37.395-58.761-89.675-107.236-151.427-139.998Z"/>
      </g>
    </g>
  </g>
</svg>