<?xml version="1.0" encoding="UTF-8"?>
<svg xmlns="http://www.w3.org/2000/svg" viewBox="0 0 3600.818 2401.738">
  <defs>
    <style>
      .cls-1 {
        fill: #fad201;
      }

      .cls-1, .cls-2, .cls-3, .cls-4, .cls-5 {
        stroke-width: 0px;
      }

      .cls-1, .cls-3 {
        fill-rule: evenodd;
      }

      .cls-2 {
        fill: #e5be01;
      }

      .cls-3, .cls-5 {
        fill: #00a1de;
      }

      .cls-4 {
        fill: #20603d;
      }
    </style>
  </defs>
  <g id="background">
    <path id="rw" class="cls-1" d="M400,.1h2800c220,0,400,180,400,400v1600c0,220-180,400-400,400H400C180,2400.1,0,2220.1,0,2000.1V400.1C0,180.1,180,.1,400,.1Z"/>
  </g>
  <g id="country">
    <g id="rw-2" data-name="rw">
      <path id="_4_4" data-name="4/4" class="cls-4" d="M0,2000.1C0,2220.1,180,2400.1,400,2400.1h2800c220,0,400-180,400-400v-200H0v200Z"/>
      <path id="t" class="cls-3" d="M400,.1h2800c220,0,400,180,400,400v800H0V400.1C0,180.1,180,.1,400,.1Z"/>
      <g>
        <g id="b">
          <path id="a" class="cls-2" d="M3342,627.1l-268.027,15.663,254.84,84.5-262.947-54.24,224.287,147.577-239.953-120.45,178.447,200.6-200.6-178.447,120.45,239.95-147.573-224.287,54.24,262.947-84.5-254.84-15.663,268.027-3.333-390.333,390.333,3.333Z"/>
          <path id="a-2" data-name="a" class="cls-2" d="M3342,627.1l-268.027-15.663,254.84-84.5-262.947,54.24,224.287-147.577-239.953,120.45,178.447-200.6-200.6,178.447,120.45-239.95-147.573,224.287,54.24-262.947-84.5,254.84-15.663-268.027-3.333,390.333,390.333-3.333Z"/>
        </g>
        <g id="b-2" data-name="b">
          <path id="a-3" data-name="a" class="cls-2" d="M2568,627.1l268.027,15.663-254.84,84.5,262.947-54.24-224.287,147.577,239.953-120.45-178.447,200.6,200.6-178.447-120.45,239.95,147.573-224.287-54.24,262.947,84.5-254.84,15.663,268.027,3.333-390.333-390.333,3.333Z"/>
          <path id="a-4" data-name="a" class="cls-2" d="M2568,627.1l268.027-15.663-254.84-84.5,262.947,54.24-224.287-147.577,239.953,120.45-178.447-200.6,200.6,178.447-120.45-239.95,147.573,224.287-54.24-262.947,84.5,254.84,15.663-268.027,3.333,390.333-390.333-3.333Z"/>
        </g>
        <g>
          <circle class="cls-2" cx="2955" cy="627.1" r="114.333"/>
          <path class="cls-5" d="M2955,747.1c-66.168,0-120-53.832-120-120s53.832-120,120-120,120,53.832,120,120-53.832,120-120,120ZM2955,518.433c-59.919,0-108.666,48.748-108.666,108.667s48.747,108.667,108.666,108.667,108.666-48.748,108.666-108.667-48.747-108.667-108.666-108.667Z"/>
        </g>
      </g>
    </g>
  </g>
</svg>