<?xml version="1.0" encoding="UTF-8"?>
<svg xmlns="http://www.w3.org/2000/svg" viewBox="0 0 3600.1 2401.738">
  <defs>
    <style>
      .cls-1 {
        fill: #fff;
      }

      .cls-1, .cls-2 {
        fill-rule: evenodd;
        stroke-width: 0px;
      }

      .cls-2 {
        fill: #006c35;
      }
    </style>
  </defs>
  <g id="background">
    <path id="sa" class="cls-2" d="M400,.1h2800c220,0,400,180,400,400v1600c0,220-180,400-400,400H400C180,2400.1,0,2220.1,0,2000.1V400.1C0,180.1,180,.1,400,.1Z"/>
  </g>
  <g id="country">
    <g id="sa-2" data-name="sa">
      <g>
        <path class="cls-1" d="M2544.469,643.883c20.283-14.501,39.185-30.766,61.773-42.193-6.456,25.931-25.814,45.711-45.638,62.413-10.141,7.909-5.531,22.414-6.915,33.401-5.531-1.317-10.601-2.637-16.132-4.395,5.069,65.927,12.447,131.411,15.673,197.338.459,7.472.921,15.382,7.374,20.216,30.424,27.252,61.773,54.06,83.899,88.781,8.758,13.624,13.368,29.009,17.978,44.39,5.531-25.491,5.072-51.863,2.305-77.791-11.063-100.208-21.204-200.856-29.962-301.504-.925-12.304-2.767-25.051-1.384-37.358.921-11.427,12.447-21.097,23.968-20.216,6.915,5.715,10.604,13.624,14.292,21.537,9.22,20.656,17.516,43.07,15.211,66.364-5.531-1.757-11.063-3.955-17.053-6.152,8.295,68.125,16.594,136.246,21.663,204.811,2.305,46.148,9.22,92.736-.459,138.443-8.299,42.193-29.041,84.826-65.921,108.997-30.887,20.216-66.842,31.646-102.798,39.116-14.751,3.078-29.962,4.398-44.254.44,15.214-8.349,32.27-14.504,48.402-21.533,23.512-10.11,46.1-21.097,67.305-35.161,19.821-13.187,40.566-26.372,55.317-45.711-18.44-49.222-48.864-95.373-92.197-125.699,1.384,48.348,3.689,97.57-3.685,145.479-1.384,11.427-6.456,21.533-14.292,29.446-5.069-20.216-5.531-41.313-7.836-61.969-4.145-44.938-7.833-89.916-11.063-134.929,0-9.23-5.994-16.262-12.906-21.537-27.201-22.854-52.553-48.345-78.829-72.079.921,27.689,5.072,54.937,6.915,82.189,3.226,36.918,3.689,73.836,7.377,110.755,2.305,25.931,2.764,53.18-6.915,77.794-9.682,23.294-31.349,43.07-57.163,44.827-13.827,1.32-27.657,0-41.025-2.197-14.292-2.197-25.355-13.184-31.808-25.491-7.836-14.941-11.987-31.643-18.44-47.025-11.984,2.634-24.431,5.272-33.191,14.501-18.437,17.582-23.968,44.39-32.729,67.244-5.069,13.624-11.063,28.569-24.431,36.041-13.83,7.909-30.887,4.835-44.254-2.637-20.283-10.987-32.729-32.083-38.723-53.62-5.991-16.702,2.305-36.038-7.836-51.863-7.374-14.501-3.226-31.643.462-46.588,7.836-26.808,24.431-49.662,44.254-69.002l-78.829-68.561c2.305,63.287,7.377,126.576-.921,189.426-1.38,12.747-5.991,24.611-15.211,33.841-2.776-12-4.625-24.195-5.531-36.478-6.449-69.366-11.982-138.813-16.597-208.325-.459-7.912-1.843-16.702-8.295-21.977-26.739-25.491-52.553-52.74-76.525-81.309-13.827-17.579-28.119-35.598-35.493-56.694-2.767-8.789-5.072-21.097,3.226-27.689,9.679.877,18.44,5.272,26.736,9.67,15.214,8.789,29.503,20.216,41.949,33.401,5.531,5.715,8.299,13.184,10.604,20.656-7.836,0-15.214-.44-23.05-.44,15.673,22.417,34.113,43.073,55.317,60.652-1.843-58.892-8.295-118.227-11.063-177.119,0-7.912,0-16.702,5.531-23.294,5.072-5.715,12.909-7.912,19.824-10.55,12.906,18.899,22.126,39.996,27.657,62.409,2.305,8.793,1.843,18.019,1.384,27.252-5.531-1.32-11.063-3.078-16.135-4.835,3.689,47.905,8.758,95.373,11.987,143.278.459,6.592.921,13.624,2.764,20.216,2.767,4.835,6.915,7.912,10.604,11.427,32.729,27.689,65.459,55.377,98.647,82.189,19.824-17.142,39.185-34.721,59.006-51.423,4.61-3.955,9.22-7.472,12.909-11.867,3.689-3.955,2.305-9.67,2.305-14.504-6.456-57.575-11.063-115.149-16.135-172.724-1.384-21.097-4.61-41.753-4.61-62.409-.459-12.307,9.22-24.614,21.667-25.054,5.531-.437,7.836,5.715,10.604,9.23,9.22,16.265,16.132,33.844,20.283,52.303,2.305,8.789,1.38,18.019-.462,27.249-5.069-2.197-10.601-4.835-15.673-7.032,6.915,54.06,12.447,108.12,17.516,162.177,14.292-10.547,27.198-22.854,40.569-34.281,14.748-12.744,30.424-25.051,44.713-38.675-17.057-18.459-35.034-35.601-52.553-53.62-11.063-11.427-24.431-22.414-29.041-38.675-3.689-11.427-1.384-23.734.921-34.721,20.745,3.515,38.723,15.822,55.317,28.126,11.525,8.793,21.667,18.899,31.808,29.009-.921-22.854-3.685-45.708-5.531-68.565,0-8.789-.921-18.459,5.072-25.491,5.069-5.712,12.906-7.909,19.361-10.987,13.368,17.582,21.663,38.675,27.198,59.772,2.764,9.67,2.764,19.339,2.302,29.009-5.531-1.32-11.522-2.637-17.053-3.955,1.843,17.579,3.685,34.721,5.991,52.3,21.667-16.262,41.49-34.721,63.154-50.983,7.377-7.032,20.745-12.307,20.745-24.611.462-13.187-2.305-26.812-.462-39.996,1.384-11.427,12.447-20.656,23.971-19.779,11.063,10.55,15.214,23.734,21.204,35.161h0ZM2431.992,770.902c-3.689,3.955-10.604,7.469-10.141,14.064,2.767,5.712,8.299,10.107,12.909,14.941,26.736,24.174,52.088,49.665,80.21,71.639-.925-25.931-3.689-51.423-5.072-77.351-2.305-27.252-3.226-54.5-5.994-81.749-24.893,18.019-47.481,39.116-71.911,58.455h0ZM2364.228,722.994c5.994,6.592,11.525,13.187,17.516,19.779,0-6.592-.459-13.187-.459-19.779h-17.057,0ZM2299.691,883.414c-4.61,3.955-10.141,8.349-9.679,14.945-.462,33.401,3.226,67.684-5.072,100.208-1.843,8.349-7.836,14.061-13.83,19.336-7.374-32.083-7.836-65.047-13.368-97.57-19.821,15.822-38.723,32.964-57.16,50.106,10.601,11.867,21.204,24.611,24.893,40.873,5.991,22.414-.925,48.345-19.361,63.29-22.588,18.899-53.012,21.974-81.131,25.491,4.148,18.459,7.836,37.798,18.899,53.62,6.915,9.23,17.978,18.019,29.962,14.504,12.909-3.518,20.745-15.825,25.355-27.252,9.22-23.294,19.361-46.148,33.191-67.244,11.063-17.579,29.041-32.083,50.245-32.523,6.915.44,16.135-1.757,20.283,5.715,9.22,15.382,12.447,33.841,23.971,48.345,19.361,25.491,60.389,25.931,83.436,4.835,7.836-7.032,7.836-18.459,6.915-28.129-10.604-87.461-18.44-175.802-27.66-263.265-30.883,24.174-59.927,49.665-89.889,74.717h0ZM2136.966,1032.847c-5.072,6.592-7.836,14.941-10.141,23.294,20.745,2.197,41.949-2.197,59.927-12.747,5.531-3.514,11.984-9.23,10.604-16.702-1.384-14.941-13.83-25.491-24.893-34.281-12.447,12.307-24.893,25.931-35.497,40.436ZM1270.265,605.901c5.579-3.508,10.695,2.631,14.416,6.579,11.158,13.596,23.246,27.192,29.756,43.855-5.579.877-11.623,1.754-17.202,2.631,1.393,26.315,23.712,44.296,30.222,69.296,4.651,15.35,5.117,32.014,1.862,47.364-4.651,21.052-22.319,39.47-44.172,42.982-25.577,4.385-54.405-1.754-73.469-20.615-12.554-12.279-17.202-29.823-22.784-45.609-6.044,21.489-14.878,42.101-30.222,58.768-8.834,10.088-20.46,17.104-32.083,23.243,3.255,58.768,9.299,117.537,4.186,175.868-1.862,16.664-2.793,36.399-18.136,47.364-5.579-23.243-6.51-47.364-9.299-71.487-5.113-48.681-8.834-97.361-13.95-146.042-14.413-3.508-30.222-6.579-41.383-17.104-18.598-16.667-24.643-42.541-23.246-66.225.462-18.421,6.51-36.402,10.692-54.383-6.975,7.016-12.554,15.35-15.809,24.56-9.765,29.386-16.274,60.086-29.759,88.151-5.113,10.965-14.878,20.175-26.967,22.806-14.881,3.071-32.549,2.194-44.172-9.211-12.557-12.279-15.347-30.7-17.205-47.364-.931-17.104-2.324-35.525,5.579-51.312,4.651-9.651,14.416-14.913,22.784-19.738-5.579,9.211-12.089,18.421-13.485,28.946-1.859,14.913.931,30.263,3.72,44.736,1.862,8.77,3.72,18.421,10.695,24.56,10.692,9.648,28.829,8.77,39.059-.877,5.579-6.139,8.368-14.036,11.158-21.489,9.299-28.069,16.74-57.014,28.363-84.206,10.23-22.806,28.366-45.173,54.402-49.998-2.789,31.14-17.202,60.082-18.133,91.662-.465,14.033.931,29.383,10.23,40.347,6.975,9.211,18.598,12.279,29.294,15.35-2.789-42.541-6.975-85.083-9.765-128.061-.931-15.79-3.72-32.017-.931-47.807,2.324-10.961,14.416-14.91,23.715-18.418,17.668,25.874,30.687,56.574,30.222,88.151-6.044-1.314-11.623-2.631-17.668-3.945,3.72,36.399,7.437,73.241,11.623,109.64,15.344-4.822,29.294-14.033,38.128-27.628,18.136-25.874,20.926-59.645,12.092-89.468-3.72-12.719-9.765-24.56-12.557-37.716-2.789-12.282,6.048-25.001,17.205-28.946,5.113-2.194,7.441,3.945,9.765,7.453,6.975,14.913,9.299,31.577,12.554,47.807,4.186,21.489,0,43.855,7.906,64.468,6.51,17.544,18.133,33.771,34.873,42.982,13.485,7.453,29.294,9.211,44.637,6.576,7.441-1.314,13.485-7.453,15.344-14.91,3.72-14.036-1.393-28.509-7.441-41.224-13.947-28.946-31.152-56.577-37.662-88.154-2.324-11.402.931-27.192,13.02-34.208h0ZM1902.978,639.238c8.957-15.182,23.101-26.793,39.128-34.382-4.243,11.161-10.841,20.539-16.971,30.364-4.715,7.143-4.715,16.075-5.186,24.111,10.844-.446,21.685-2.232,32.058-4.911-2.831,8.482-5.658,17.414-13.672,22.772-8.957,6.25-22.157,10.271-31.586,2.679-9.898-10.268-11.313-28.129-3.771-40.632Z"/>
        <path class="cls-1" d="M1330.569,620.744c4.629-7.02,13.425-9.651,20.365-12.722,14.349,18.424,23.142,40.794,28.699,63.166,2.314,8.77,1.387,17.544.462,26.318-5.091-1.754-10.645-3.508-15.736-5.262,6.016,42.548,13.422,84.655,18.513,127.203,24.532-11.842,47.208-26.318,72.665-36.845,7.871-3.508,16.202-5.262,24.994-6.139-3.239,7.016-6.944,14.036-14.346,17.104-26.846,13.599-54.155,25.444-80.536,40.357,2.314,21.055,4.629,42.548,7.406,63.603,12.035-15.353,22.68-34.654,43.507-39.48.925,11.405-2.777,25.004,5.554,34.214,12.959,10.091,30.548,3.948,42.583-5.262-.925-16.67,3.701-32.9,6.944-49.127,5.091,2.191,11.569,3.068,13.422,9.211,5.554,15.353,4.164,32.46,0,47.81-4.167,17.547-18.513,30.706-34.252,38.603-9.717,4.825-21.752,7.456-32.397,3.068-11.11-4.385-18.051-14.913-25.456-24.123-6.481,15.79-17.126,30.266-17.588,48.25-1.852,37.722-16.664,73.691-39.344,103.52-39.34,51.318-99.511,82.024-160.604,100.008-35.177,9.651-71.744,18.421-108.769,16.667-19.903-.437-40.268-4.825-57.394-15.35-7.406-4.825-13.884-11.405-21.29-15.793-9.258-1.754-18.975.877-28.695.877-23.142.877-46.284,1.754-68.964-2.191,27.771-9.214,56.004-16.23,83.31-26.321-7.406-49.564,2.314-100.886,27.771-143.873,6.944-11.405,15.736-21.492,24.994-30.266-7.868,15.793-17.588,31.143-21.752,48.69-9.72,36.845-9.258,76.322,1.849,112.29,18.978-6.139,37.491-14.473,55.542-22.369,42.12-18.424,83.313-38.163,121.729-63.603,14.346-10.088,29.158-20.615,38.878-35.968,4.629-7.456,3.701-16.23,3.701-24.564-19.9,3.948-39.34,13.159-60.168,12.722-12.959-.877-26.846-3.511-36.101-13.599-9.258-10.088-9.72-24.564-7.868-37.285,2.777-16.667,10.183-33.334,23.604-44.302,15.274-12.719,37.954-12.282,55.542-4.385,17.123,7.893,26.843,24.564,35.174,40.354,25.922-9.651,43.507-32.46,68.964-43.425.928,13.159-.462,28.512,9.72,39.04,6.019,7.456,16.202,7.016,24.532,7.893-1.39-21.052-4.629-41.671-7.406-62.286-8.793-68.865-17.588-138.171-24.994-207.477-.462-10.088-1.852-20.615,3.239-28.949h0ZM1172.277,920.335c-2.311,4.822,3.242,7.893,6.944,9.647,13.887,4.825,29.161,1.754,43.507-.877-7.406-7.893-16.198-16.667-28.233-17.107-7.868-.437-18.975,0-22.217,8.337ZM1273.178,948.844c.925,14.039,1.387,28.075-3.239,41.234-7.406,22.369-24.532,40.354-42.12,55.27-33.787,27.632-73.593,45.616-112.008,65.794-17.123,10.088-35.639,17.984-54.152,25.881,23.604,1.754,47.212-2.194,70.354-3.948,35.639-2.194,69.888-12.282,102.75-25.441,34.249-14.036,67.574-32.02,94.42-58.341,16.198-15.79,29.158-35.528,34.714-57.901,2.777-10.965,2.777-22.369,3.239-33.774-13.887-.437-28.695,0-41.193-7.016-10.183-5.702-15.739-16.67-21.755-26.321-9.604,9.073-19.98,17.291-31.01,24.564h0ZM1647.524,618.531c5.199-5.87,14.657-4.968,20.802-.902,13.713,9.03,21.752,25.738,20.805,41.994-.472,7.675-3.784,14.451-6.146,21.223-1.893-10.385-1.418-21.223-6.149-30.706-7.092-9.932-20.33-11.74-28.841-19.868-3.309-2.71-4.727-9.03-.472-11.74h0Z"/>
        <path class="cls-1" d="M1838.732,624.632c.921-6.193,6.931-12.826,13.399-9.29,18.019,8.846,30.956,25.653,39.274,43.789-6.469,0-12.937-.443-18.943-.883,3.233,12.383,6.469,24.326,11.55,36.266,6.931,16.81,16.635,32.732,19.409,51.309,3.233,20.346-.462,43.346-14.786,58.825-26.802,30.079-80.4,24.769-103.504-7.517-8.78-11.503-13.399-24.769-18.022-38.482-7.39,29.193-23.101,57.499-49.441,72.538-26.799,16.366-62.378,14.153-87.793-3.097-15.711-10.173-26.337-27.866-26.337-46.442-1.849-27.423,8.78-53.075,12.475-79.615-6.469,6.636-12.475,14.153-15.249,23.443-11.088,29.636-15.711,61.482-31.418,89.345-7.393,13.27-19.871,25.213-35.579,26.539-15.249.883-31.884-4.866-40.664-18.133-7.855-12.386-9.704-27.426-9.704-42.022.462-22.113,5.547-44.672,15.711-64.132,0,27.866-8.318,58.382,5.547,84.478,6.931,14.596,25.412,23.003,39.736,15.04,12.937-7.96,18.947-22.999,23.566-36.712,9.704-29.189,19.868-58.825,34.192-86.248,6.006-11.056,12.475-22.556,22.642-30.519,5.082-4.423,12.475-4.423,18.943-5.75,1.387,24.769-12.475,46.442-17.094,70.328-4.623,20.786-6.006,45.556,8.78,62.805,16.632,18.136,44.356,22.556,67.46,16.366,31.884-10.173,54.988-42.462,56.375-76.078.921-19.903,1.846-41.576-8.78-59.269-4.623-9.287-13.399-19.02-9.704-30.519,2.311-11.5,10.629-20.346,20.33-25.653,6.931,11.06,12.94,22.999,14.324,36.269,3.698,30.519,4.161,61.922,14.786,91.115,6.469,16.81,16.173,34.059,33.271,42.019,15.711,7.52,35.117,9.29,50.365,1.327,9.701-4.866,12.013-16.806,9.701-26.536-6.469-31.846-28.186-57.059-38.349-87.578-5.547-15.48-9.704-31.403-6.469-47.326h0ZM2148.358,619.367c9.613-4.36,23.345-.874,27.92,9.157,1.833,4.794-1.371,9.157-5.034,11.772-6.864-1.308-12.817-4.797-18.766-7.412-7.783,14.824-11.902,31.393-16.48,47.962-3.204-7.849-5.949-16.132-10.984-23.11-6.408-8.72-16.48-13.08-23.804-20.929-2.289-6.975,5.953-14.824,12.817-12.643,10.072,3.052,16.021,12.206,21.971,20.492,2.748-9.157,4.119-20.058,12.361-25.289h0ZM907.067,655.23c7.912-17.06,23.272-29.63,40.027-37.71-4.189,11.224-11.17,20.65-16.756,30.978-4.654,7.181-4.189,16.16-4.654,24.241,10.705-.896,21.41-3.141,32.115-6.735-3.258,8.53-6.516,17.959-14.429,23.794-8.378,6.285-20.945,9.879-29.788,3.594-10.24-8.979-12.101-25.593-6.516-38.163Z"/>
        <path class="cls-1" d="M1497.008,631.952c2.745-14.688,24.237-14.245,31.099-3.119,4.572,8.014,6.858,16.471,11.43,24.481,4.116,8.011,9.147,16.468,6.405,25.814-4.116,14.688-14.634,26.258-16.008,41.835,5.031-2.223,10.062-4.895,15.093-7.564-1.374,8.011,0,18.693-8.232,23.142-10.062,4.895-22.407-4.895-21.492-16.021,1.371-20.03,20.577-35.607,14.631-56.97-19.206,26.261-45.73,49.849-78.196,54.744,14.175-11.573,30.181-19.583,42.985-32.935,8.232-8.011,13.719-18.25,19.206-28.04-6.858-7.121-18.747-13.798-16.92-25.368h0ZM1510.271,630.616c3.201,4.895,7.317,8.9,11.889,11.573-1.83-5.788-6.402-9.793-11.889-11.573ZM1394.742,641.802c6.877-1.776,15.125-4.439,20.625,1.776,16.496,15.537,24.288,40.398,18.788,62.596-3.666-8.435-6.415-17.313-10.54-25.304-6.874-15.097-21.996-23.975-28.873-39.068ZM1246.335,652.349c6.931,7.504,10.164,16.775,8.777,26.932-11.085,1.764-22.173,4.854-33.258,7.504-6.006,1.767-12.472-2.65-13.859-8.831-.462-6.621,1.846-12.801,3.233-19.425,2.311,6.624,4.62,13.244,6.931,20.308,2.77-1.323,6.003-2.207,8.777-3.53v-18.101h6.465c.925,5.297,1.849,11.037,2.774,16.335,3.695-.443,6.928-.883,10.623-1.327-.462-6.621-.462-13.244-.462-19.865h0ZM2183.671,665.302c8.856-2.59,18.646-3.454,27.967-3.454-4.661,5.18-9.787,9.929-16.312,12.519-32.163,12.522-65.259,21.591-96.022,37.564,2.796,5.614,5.592,10.794,8.391,16.407-7.46-1.295-16.316-1.295-21.907-7.339-5.129-4.749-5.595-13.817.465-18.136,5.126-3.885,10.721-6.044,16.781-8.634,26.568-9.499,53.136-20.292,80.638-28.927ZM1701.233,688.352c3.755-3.09,7.979-5.3,11.734-7.507-.469,11.927,3.755,22.528,8.919,33.128,5.161,10.601.937,25.618-11.734,28.268-10.797,3.534-20.653-3.093-28.164-9.277-6.101,5.3-12.674,12.367-21.594,11.044-16.426-.883-24.405-19.878-21.122-34.012,1.409-9.274,8.919-15.017,15.492-20.761-.94,9.72-4.695,19.437-2.349,29.155,1.878,6.624,9.856,6.624,15.489,8.834,1.878-10.601,2.349-21.644,5.164-32.685.94-5.744,7.979-6.187,11.734-8.837.94,9.277.472,18.554,3.287,27.388,2.346,6.624,10.325,8.834,15.958,11.924,2.818-12.807-2.815-24.735-2.815-36.662h0ZM1220.6,706.302c7.067,0,15.546-1.273,21.201,4.243,16.018,14.843,24.028,38.172,17.902,58.955-5.652-13.998-10.363-29.265-22.613-39.869-7.539-6.364-15.078-13.574-16.49-23.329ZM2178.918,760.219c3.299-3.974,7.545-6.624,11.788-9.717,0,11.044,3.774,21.201,8.489,30.918,4.715,9.72,4.715,25.178-7.073,29.595-10.848,4.86-22.164-.883-31.124-7.067-7.073,5.3-15.562,11.927-25.463,9.277-14.618-3.093-20.748-19.878-18.393-33.128.943-9.717,9.432-15.901,16.034-22.084-1.415,10.157-5.658,20.318-2.827,30.475,2.356,6.627,10.373,5.3,16.031,6.627,1.887-11.484.943-23.411,5.661-34.012,3.299-2.65,7.545-4.417,11.788-6.184.472,10.16-1.415,21.201,3.771,30.478,3.302,5.744,10.376,6.184,16.034,7.95-.472-11.044-3.771-22.084-4.715-33.128h0ZM2560.661,776.934c-2.789-6.883,2.786-13.767,10.224-13.767,11.62,0,20.451,9.464,26.026,18.5,9.762,18.497,14.41,40.867,6.507,60.655-4.183-17.636-3.717-40.008-20.448-51.622-7.437-4.303-16.268-6.883-22.309-13.767h0ZM1925.053,816.999c5.063-5.69,13.352-7.437,20.717-5.69,9.207,8.751,7.368,24.503,0,33.695-13.352,17.503-35.449,25.814-57.09,25.814,13.352-7.874,28.547-12.25,40.518-22.316,5.522-3.939,4.604-11.376,5.522-17.503-6.443.877-12.89,2.188-18.874,3.065,2.761-5.69,5.063-11.816,9.207-17.066h0ZM2233.941,828.122c4.176-.902,9.743-3.606,12.526.899-3.245,10.816-14.381,15.321-23.196,19.827-33.401,15.771-65.877,33.344-98.815,50.466-1.39-3.154-3.245-5.858-4.639-9.011,18.557-13.969,38.97-24.332,58.917-35.598,18.557-9.461,36.187-19.824,55.206-26.584h0ZM1608.868,855.393c.925-6.583,5.547-11.408,9.245-16.233,25.428,27.638,47.155,59.664,58.711,96.079,11.098,34.661,13.871,71.075,20.805,106.61,3.698,17.987,6.934,36.852,18.953,51.331,7.859,10.091,19.418,16.233,30.513,22.376,2.311-11.408,5.085-23.693,15.717-30.272,32.362-21.499,69.809-34.661,106.794-46.506-30.051-.877-60.564,0-90.611-.437-24.503-.44-49.007,1.754-73.045-2.634.925-9.214.925-18.864,6.472-27.201,11.095-18.424,30.513-28.955,49.004-38.606,28.202-14.479,56.862-27.201,87.375-35.538-7.859-8.337-19.878-17.55-16.642-31.149,5.547-15.793,19.415-31.589,36.985-31.149,19.415,0,38.368,7.897,55.013,17.55,10.17,6.579,22.651,13.599,26.349,25.884-.462,8.774-5.085,16.67-10.17,23.69-10.632,13.162-29.588,12.285-45.306,14.039-.925,10.531-2.311,23.253-12.944,28.078-3.192-8.269-6.583-16.461-10.17-24.567-38.372,7.02-72.583,26.761-102.633,50.454,85.064.437,169.665-1.757,254.729-1.317,5.547.44,11.095.877,16.642,1.754-3.698,22.376-26.349,33.344-46.23,38.169-40.217,8.774-80.438,16.673-120.658,24.57-30.051,6.142-60.564,13.162-87.837,26.761-10.17,4.825-18.494,13.162-25.428,22.376,19.881,7.456,40.683,11.845,61.488,15.793,6.934,1.754,16.642,3.071,18.491,11.408,2.774,10.968,3.236,26.324-7.396,33.344-13.409,3.071-27.277,0-40.683-2.194-36.985-5.702-72.583-25.007-93.847-56.596-16.183-22.813-20.805-51.331-24.966-78.532-10.632,14.919-21.727,29.835-35.136,42.117-36.057,33.784-79.513,58.35-124.819,78.095-15.72,7.02-35.598,9.214-51.315-.44-11.098-6.579-15.258-20.182-19.881-31.586-42.07,21.496-85.064,42.117-131.756,50.891-28.661,5.265-57.787,9.214-86.913,8.774,15.258-7.456,30.975-13.162,46.23-19.305,50.853-21.059,100.784-44.748,149.788-70.195,6.01-3.508,13.406-6.579,17.566-12.285,4.623-12.722,5.085-26.321,12.019-38.606,6.937-14.916,19.418-26.324,32.824-35.098-8.783,19.304-18.028,39.046-20.802,60.104,29.585-17.987,57.787-38.169,82.749-62.739,6.475-7.02,15.72-15.793,12.022-26.321-4.623-14.919-12.484-28.078-18.032-42.557-8.321-21.059-18.491-42.994-16.179-66.247.462-7.46,6.01-13.162,9.708-18.868,20.343,13.162,33.287,34.661,44.843,55.282-4.16.877-8.783,1.754-12.944,2.631,7.859,21.499,20.802,40.8,24.5,63.616,2.774,17.547-1.387,36.852-13.868,50.014-31.437,33.78-70.268,59.227-106.79,86.869,6.472,3.508,13.406,8.333,21.264,7.897,15.258-.44,30.051-5.706,43.919-11.408,50.853-22.376,92.46-59.668,135.454-94.325-10.632-41.24-29.588-79.849-49.466-117.578-6.934-13.162-12.019-29.835-9.708-46.065h0ZM1854.348,909.792c5.085,7.02,12.022,12.725,20.343,15.796,12.481,2.631,24.5-4.825,33.746-12.725-11.557-8.774-24.962-15.793-39.755-15.793-6.937,0-14.333,5.702-14.333,12.722h0ZM973.02,856.07c.465-5.208,4.635-10.854,10.661-10.42,15.755-1.735,26.875,10.854,36.608,20.837,5.098,5.208,9.268,12.152,6.022,19.532-1.852,8.248-11.582,7.814-18.07,9.549-13.903.868-19.463,15.625-30.124,22.138-21.315,14.324-47.731,25.608-74.144,22.135,6.488-9.116,17.145-13.02,27.34-16.059,19.001-6.076,34.293-19.532,48.193-33.423-3.708-11.284-8.34-22.572-6.488-34.29h0ZM981.825,857.806c.928,7.38,2.78,15.192,6.953,21.705,2.78-6.079,5.56-12.589,7.878-18.665-4.635-1.304-9.733-2.172-14.831-3.04h0ZM1002.678,886.02c5.098-.434,10.195-1.301,15.293-1.735-.928-6.513-2.318-13.023-5.098-19.099-6.488,4.775-7.415,13.453-10.195,20.834h0Z"/>
        <path class="cls-1" d="M1757.047,859.458c2.812-3.394,7.501-5.516,11.253-7.637,0,14.846,11.253,26.302,12.659,40.724,1.406,14.846-18.753,22.48-30.944,15.695-3.752-2.546-7.032-5.516-10.316-8.061-6.564,5.516-13.596,13.574-23.44,11.455-15.005-2.546-22.974-19.089-20.162-32.663,1.409-9.334,9.378-15.271,16.411-20.786-1.406,8.907-4.689,17.392-3.752,26.723.94,6.788,8.91,8.91,14.536,11.88,3.749-10.183,4.686-21.211,6.564-32.242.937-5.937,8.438-6.785,12.659-9.755.469,8.91,0,18.241,2.812,26.726,2.815,5.937,9.378,8.907,14.533,12.301,5.626-11.455-2.343-22.908-2.812-34.36h0ZM1019.009,914.392c7.776-3.496,16.008-7.859,24.697-8.732,8.232-.437,12.348,12.225,5.946,17.462-9.603,7.422-21.036,10.477-32.014,15.28-25.612,12.222-51.22,24.01-76.373,37.542-5.49,3.492-12.348,2.622-18.294,1.748,3.657-7.422,8.688-14.406,16.005-18.773,26.527-16.151,53.05-30.994,80.033-44.527h0ZM1990.968,927.842c1.858-8.755,12.092-10.069,19.532-12.693,1.862,12.693,3.258,25.827,11.164,36.332-4.035.412-8.066.85-12.095,1.314-5.579,8.318-11.626,17.509-20.929,21.888-15.347,7.441-32.555,7.441-49.298,6.564,17.674-4.816,39.534-6.127,51.16-21.888,7.906-9.192-.465-21.011.465-31.517ZM2339.148,940.859c2.321-7.206,10.67-7.206,16.702-6.304,12.988,2.251,22.268,13.507,30.617,22.962,6.032,5.854,7.887,16.211,2.321,23.414-8.353,6.754-21.806,2.701-29.227,11.709-22.268,26.115-56.599,42.773-90.928,39.173,6.494-9.458,17.164-13.51,27.834-16.661,19.02-6.304,33.866-20.713,47.785-34.67-3.711-12.608-9.28-26.115-5.104-39.622h0ZM2347.963,946.26c.928,8.106,2.783,16.211,5.566,23.864,3.249-6.304,6.494-12.608,8.353-19.361-4.642-1.798-9.743-3.15-13.919-4.502ZM2374.87,956.168c-2.783,6.304-4.639,13.057-6.494,19.811,5.104-.45,10.205-1.352,15.309-1.802-1.393-6.304-2.318-12.608-5.104-18.459-.928,0-2.783.45-3.711.45ZM1465.057,954.436c8.853-8.479,24.693-4.015,30.285,6.247,2.793,5.804-3.264,10.265-5.592,14.729-4.661-2.679-9.318-6.25-14.444-7.589-4.658-1.336-6.057,4.018-7.453,7.143-5.592,13.387-8.387,27.667-12.579,41.503-3.261-8.479-5.592-16.958-10.715-24.545-5.592-8.033-14.91-12.497-21.898-19.191-6.522-5.354.465-16.958,7.919-15.619,10.718,1.339,17.24,11.155,24.693,18.298,2.796-7.143,4.661-15.176,9.784-20.976h0ZM911.414,1031.711c8.394-15.119,21.648-26.682,36.665-34.24-3.974,11.117-10.16,20.9-15.901,30.684-4.417,7.115-4.417,15.562-4.86,23.569,10.16-.446,20.321-2.226,30.481-4.449-2.653,8.451-5.744,17.788-13.254,22.68-8.394,5.781-20.321,10.227-29.155,2.669-9.717-11.12-10.601-28.461-3.977-40.914h0ZM1647.755,1097.923c8.197-1.327,17.845-4.866,25.076.883,7.235,4.426,9.644,15.932,2.894,22.126-10.126,5.31-23.148,2.213-31.827,9.736,1.447,11.506,10.61,20.796,12.538,31.859.481,7.08-5.307,12.833-8.682,18.586-2.409-11.063-4.338-23.009-10.607-32.745-3.86-7.08-9.647-14.159-7.716-22.569,1.928-9.29,12.054-13.716,19.289-18.143-.481-2.653-.966-6.193-.966-9.733ZM2002.556,1113.583c3.489-8.979,11.772-13.257,19.184-17.959-3.052,7.27-8.283,14.539-9.157,22.661,3.489,6.415,9.157,11.12,12.209,17.962.874,11.117-14.824,12.826-20.492,5.984-6.541-7.697-5.667-19.669-1.745-28.648h0ZM1918.141,1100.551c12.747-4.376,26.4,0,37.779,6.567-8.191,17.069-27.309,21.448-41.42,31.954.456,1.748.912,5.25.912,7.001,10.015.437,20.482,1.751,29.129-3.502,11.379-6.127,23.215-11.816,35.959-14.444-10.012,8.755-19.571,17.509-29.585,25.827-11.835,9.628-28.221,9.628-42.329,5.69-6.829-2.191-15.477-8.318-13.2-17.072,3.641-10.942,14.565-16.632,23.212-23.196-6.371-.437-12.288-.877-18.662-1.314,5.006-7.004,9.559-15.758,18.206-17.509h0ZM2251.669,1130.345c-4.784-5.436-.478-14.504,6.222-15.41,12.921-2.267,23.927,8.159,29.671,18.583,8.615,14.508,8.134,32.638.956,47.595-2.391-10.426-2.391-21.302-7.656-30.823-7.178-9.518-20.577-11.332-29.193-19.944ZM2460.158,1136.687c16.965-6.158,33.932-14.077,52.274-12.317-4.126,6.598-9.169,12.757-16.965,15.394-28.433,10.556-57.321,20.235-85.292,32.112-8.837,3.998-18.055,7.093-27.515,9.236-.918-2.641-2.292-5.278-3.21-7.919,25.681-14.954,53.193-25.51,80.707-36.507h0ZM2401.612,1704.236h-142.227v-13.422c6.421-5.525,15.141-13.026,15.141-17.367,0-7.501-17.895-22.895-22.024-22.895-4.588,0-22.021,15.79-22.021,22.895,0,4.737,7.798,11.446,14.223,16.974l.459.393v13.817h-1121.756c39.917,39.473,99.1,39.078,217.928,40.262q105.983,1.58,903.369,0v14.21c-6.424,5.525-14.223,13.026-14.223,17.37,0,7.498,16.974,22.892,22.021,22.892,3.214,0,13.764-8.682,19.27-16.183h49.092c3.21,5.525,10.553,8.685,19.27,8.685s16.056-3.553,19.27-8.685h58.724c7.342,8.289,17.433,8.685,23.398,8.685,22.48-.792,27.527-12.237,27.527-51.711-.456-33.157-22.939-36.709-67.441-35.921h0ZM2411.705,1770.945h-52.303c-3.214-5.525-10.553-9.078-19.27-9.078s-16.059,3.553-19.27,9.078h-48.174c-2.752-3.948-8.257-9.078-12.845-12.237v-14.21h152.318c-2.752,10.265-3.21,19.343-.456,26.448h0Z"/>
      </g>
    </g>
  </g>
</svg>