<?xml version="1.0" encoding="UTF-8"?>
<svg xmlns="http://www.w3.org/2000/svg" viewBox="0 0 3600.818 2401.738">
  <defs>
    <style>
      .cls-1 {
        fill: #ed2939;
      }

      .cls-1, .cls-2, .cls-3, .cls-4 {
        stroke-width: 0px;
      }

      .cls-1, .cls-3, .cls-4 {
        fill-rule: evenodd;
      }

      .cls-2, .cls-3 {
        fill: #fff;
      }

      .cls-4 {
        fill: #eee;
      }
    </style>
  </defs>
  <g id="background">
    <path id="bg" class="cls-4" d="M400,.1h2800c220,0,400,180,400,400v1600c0,220-180,400-400,400H400C180,2400.1,0,2220.1,0,2000.1V400.1C0,180.1,180,.1,400,.1Z"/>
  </g>
  <g id="country">
    <g id="sg">
      <path id="t" class="cls-1" d="M400,.1h2800c220,0,400,180,400,400v800H0V400.1C0,180.1,180,.1,400,.1Z"/>
      <g>
        <circle class="cls-2" cx="786.807" cy="601.683" r="449.604"/>
        <path class="cls-1" d="M1378.892,601.683c0,234.32-190.664,424.274-425.858,424.274s-425.858-189.955-425.858-424.274,190.664-424.274,425.858-424.274,425.858,189.955,425.858,424.274Z"/>
        <path class="cls-3" d="M841.156,611.16l-60.668-46.54-60.655,46.563,23.351-75.049-60.861-46.262,75.103.158,23.037-75.154,23.063,75.147,75.103-.187-60.849,46.284,23.376,75.04h0ZM1322.014,611.16l-61.65-46.54-61.634,46.563,23.731-75.049-61.846-46.262,76.312.158,23.411-75.154,23.436,75.147,76.312-.187-61.827,46.284,23.753,75.04h0ZM1081.884,433.781l-60.668-46.544-60.655,46.566,23.351-75.049-60.861-46.262,75.103.158,23.037-75.154,23.066,75.144,75.1-.184-60.845,46.284,23.373,75.04h0ZM932.409,896.234l-61.65-46.544-61.631,46.566,23.728-75.049-61.846-46.262,76.316.158,23.408-75.154,23.436,75.144,76.312-.184-61.827,46.284,23.753,75.04ZM1230.757,896.234l-60.668-46.544-60.655,46.566,23.351-75.049-60.861-46.262,75.1.158,23.041-75.154,23.063,75.144,75.103-.184-60.849,46.284,23.376,75.04h0Z"/>
      </g>
    </g>
  </g>
</svg>