<?xml version="1.0" encoding="UTF-8"?>
<svg xmlns="http://www.w3.org/2000/svg" viewBox="0 0 3600.1 2400.1">
  <defs>
    <style>
      .cls-1 {
        fill: #00247d;
      }

      .cls-1, .cls-2, .cls-3, .cls-4, .cls-5 {
        stroke-width: 0px;
      }

      .cls-1, .cls-4, .cls-5 {
        fill-rule: evenodd;
      }

      .cls-2, .cls-5 {
        fill: #eee;
      }

      .cls-3, .cls-4 {
        fill: #cf1b2b;
      }
    </style>
  </defs>
  <g id="background">
    <path id="bg" class="cls-1" d="M400,.1h2800c220,0,400,180,400,400v1600c0,220-180,400-400,400H400c-220,0-400-180-400-400V400.1C0,180.1,180,.1,400,.1Z"/>
  </g>
  <g id="country">
    <g id="gb">
      <path id="Path" class="cls-5" d="M3229.5,1.1c172.8,12.6,315.1,134.9,357.6,297.6l-1380.4,901.4,1380.4,901.4c-42.5,162.7-184.8,285-357.6,297.6l-1429.4-933.4-1429.4,933.2c-172.8-12.6-315.1-134.9-357.6-297.6l1380.4-901.4L13.1,298.6C55.5,135.9,197.9,13.6,370.7,1.1l1429.4,933.4L3229.5,1.1Z"/>
      <path id="Path-2" class="cls-4" d="M3309.2,15.1c55.6,15.7,106.2,43.1,149.1,79.5l-1524.1,1016-134.2-89.4L3309.2,15.1h0Z"/>
      <path id="Path-3" class="cls-4" d="M3552.5,2189.4c-23.9,44.4-56,83.8-94.2,116.1l-1524.1-1016,134.2-89.4,1484.1,989.4h0v-.1Z"/>
      <path id="Path-4" class="cls-4" d="M291,2384.9c-55.6-15.7-106.2-43.1-149.1-79.5l1524.1-1016,134.2,89.4-1509.2,1006.1h0Z"/>
      <path id="Path-5" class="cls-4" d="M47.7,210.6c23.9-44.4,56-83.8,94.2-116.1l1524.1,1016-134.2,89.4L47.7,210.6h0Z"/>
      <polygon id="Path-6" class="cls-2" points="2100.1 900 3600.1 900 3600.1 1500 2100.1 1500 2100.1 2400 1500.1 2400 1500.1 1500 .1 1500 .1 900 1500.1 900 1500.1 0 2100.1 0 2100.1 900"/>
      <polygon id="Path-7" class="cls-3" points="1980.1 1000 3600.1 1000 3600.1 1400 1980.1 1400 1980.1 2400 1620.1 2400 1620.1 1400 .1 1400 .1 1000 1620.1 1000 1620.1 0 1980.1 0 1980.1 1000"/>
    </g>
  </g>
</svg>