<?xml version="1.0" encoding="UTF-8"?>
<svg xmlns="http://www.w3.org/2000/svg" viewBox="0 0 3600.818 2401.738">
  <defs>
    <style>
      .cls-1 {
        fill: red;
      }

      .cls-1, .cls-2, .cls-3, .cls-4, .cls-5, .cls-6, .cls-7 {
        stroke-width: 0px;
      }

      .cls-1, .cls-2, .cls-3, .cls-4, .cls-7 {
        fill-rule: evenodd;
      }

      .cls-2 {
        fill: #005ce5;
      }

      .cls-3 {
        fill: #ffe500;
      }

      .cls-4 {
        fill: #fff;
      }

      .cls-5 {
        fill: #005da4;
      }

      .cls-6 {
        fill: #ed1c23;
      }

      .cls-7 {
        fill: #eee;
      }
    </style>
  </defs>
  <g id="background">
    <path id="bg" class="cls-7" d="M400,.1h2800c220,0,400,180,400,400v1600c0,220-180,400-400,400H400C180,2400.1,0,2220.1,0,2000.1V400.1C0,180.1,180,.1,400,.1Z"/>
  </g>
  <g id="country">
    <g id="si">
      <g id="h">
        <path class="cls-5" d="M3600,2000.1V800.1H0v1200C0,2220.1,180,2400.1,400,2400.1h2800c220,0,400-180,400-400Z"/>
        <path class="cls-6" d="M3600,2000.1v-400H0v400C0,2220.1,180,2400.1,400,2400.1h2800c220,0,400-180,400-400Z"/>
      </g>
      <g>
        <path class="cls-2" d="M599.751,422.547c-5.345.018-10.689.108-16.031.27-103.652,2.692-200.962,29.476-270.253,62.142l.008.093c-7.58,3.169-15,6.346-22.056,9.524l23.818,373.301c16.5,195.08,143.544,308.658,284.7,353.261,141.161-44.603,268.196-158.18,284.7-353.261l23.683-372.118c-7.271-3.734-14.625-7.304-22.056-10.707l.009-.093c-72.828-34.335-176.599-62.223-286.162-62.404-.08-.005-.161-.008-.241-.008h-.118,0Z"/>
        <path class="cls-4" d="M600.013,680.407l-69.689,136.373-45.055-58.652-117.727,155.907c2.101,9.468,4.553,18.855,7.352,28.141,13.149,22.238,38.417,47.624,70.825,47.624,25.715,0,51.431-20.615,77.147-20.615s51.431,20.615,77.146,20.615,51.431-20.615,77.146-20.615,51.435,20.615,77.151,20.615c32.113,0,57.211-24.917,70.462-47.007,2.888-9.555,5.409-19.217,7.559-28.965l-117.575-155.7-45.055,58.652-69.689-136.373ZM522.866,989.8c-25.715,0-51.431,20.615-77.146,20.615-20.354,0-37.838-7.225-51.38-17.472,4.779,10.17,9.841,20.066,15.376,29.43,10.61,6.608,22.665,11.079,36.004,11.079,25.715,0,51.431-20.615,77.146-20.615s51.431,20.615,77.146,20.615,51.431-20.615,77.146-20.615,51.435,20.615,77.151,20.615c13.145,0,25.035-4.369,35.539-10.821,5.531-9.334,10.589-19.196,15.376-29.328-13.479,10.056-30.803,17.113-50.915,17.113-25.715,0-51.435-20.615-77.151-20.615s-51.431,20.615-77.146,20.615-51.431-20.615-77.146-20.615h0ZM522.866,1033.452c-25.715,0-51.431,20.615-77.146,20.615-5.59,0-10.901-.655-16.048-1.648,44.489,59.561,105.186,99.427,170.29,122.354,64.969-22.889,125.569-62.785,170.032-122.252-5.168,1.006-10.419,1.523-15.685,1.546-25.715,0-51.435-20.615-77.151-20.615s-51.431,20.615-77.146,20.615-51.431-20.615-77.146-20.615h0Z"/>
        <path class="cls-3" d="M485.856,473.386h59.155l-29.577,50.704"/>
        <path class="cls-3" d="M485.856,507.096h59.155l-29.577-50.704M659.096,473.386h59.155l-29.577,50.704"/>
        <path class="cls-3" d="M659.096,507.096h59.155l-29.577-50.704M574.593,587.47h54.93l-27.465,50.704"/>
        <path class="cls-3" d="M574.593,621.18h54.93l-27.465-50.704"/>
        <path class="cls-1" d="M599.793,422.69h0ZM313.496,485.196c-7.394,3.076-14.747,6.251-22.056,9.524l23.818,373.31c16.5,195.08,143.539,308.654,284.7,353.252,141.156-44.599,268.196-158.172,284.7-353.252l23.683-372.127c-7.27-3.736-14.624-7.306-22.056-10.707l-22.103,370.475c-15.317,189.663-133.246,300.084-264.287,343.449-131.041-43.365-248.975-153.786-264.296-343.449l-22.103-370.475Z"/>
      </g>
    </g>
  </g>
</svg>