<?xml version="1.0" encoding="UTF-8"?>
<svg xmlns="http://www.w3.org/2000/svg" viewBox="0 0 3600.818 2401.738">
  <defs>
    <style>
      .cls-1 {
        fill: #0a4ea2;
      }

      .cls-1, .cls-2, .cls-3, .cls-4, .cls-5, .cls-6 {
        stroke-width: 0px;
      }

      .cls-2 {
        fill: #ee1c25;
      }

      .cls-2, .cls-3, .cls-4, .cls-6 {
        fill-rule: evenodd;
      }

      .cls-3 {
        fill: #fff;
      }

      .cls-4 {
        fill: #0b4ea2;
      }

      .cls-5 {
        fill: #ee2024;
      }

      .cls-6 {
        fill: #eee;
      }
    </style>
  </defs>
  <g id="background">
    <path id="bg" class="cls-6" d="M400,.1h2800c220,0,400,180,400,400v1600c0,220-180,400-400,400H400C180,2400.1,0,2220.1,0,2000.1V400.1C0,180.1,180,.1,400,.1Z"/>
  </g>
  <g id="country">
    <g id="sk">
      <g id="h">
        <path class="cls-1" d="M3600,2000.1V800.1H0v1200C0,2220.1,180,2400.1,400,2400.1h2800c220,0,400-180,400-400Z"/>
        <path class="cls-5" d="M3600,2000.1v-400H0v400C0,2220.1,180,2400.1,400,2400.1h2800c220,0,400-180,400-400Z"/>
      </g>
      <g>
        <path class="cls-3" d="M1572.864,566.855h-983.208l-3.369,32.077c-.735,6.972-17.949,175.016-17.949,544.062,0,173.389,58.591,326.362,174.146,454.664,80.96,89.892,186.69,165.575,323.234,231.366l15.537,7.488,15.54-7.488c136.55-65.791,242.286-141.473,323.253-231.366,115.555-128.302,174.149-281.275,174.149-454.664,0-369.043-17.221-537.09-17.953-544.062l-3.378-32.077Z"/>
        <path class="cls-2" d="M1081.257,1798.517c-196.711-94.813-478.091-283.004-478.091-655.27s17.785-541.564,17.785-541.564h920.622s17.794,169.301,17.794,541.564-281.383,560.457-478.11,655.27Z"/>
        <path class="cls-3" d="M1123.263,1046.652c53.177.861,156.918,2.948,249.296-28.031,0,0-2.441,33.131-2.441,71.721s2.441,71.731,2.441,71.731c-84.731-28.42-189.375-29.012-249.296-28.249v205.589h-83.994v-205.589c-59.921-.763-164.558-.171-249.296,28.249,0,0,2.441-33.128,2.441-71.731s-2.441-71.721-2.441-71.721c92.378,30.978,196.119,28.892,249.296,28.031v-129.116c-48.469-.434-118.303,1.884-197.269,28.373,0,0,2.441-33.128,2.441-71.731s-2.441-71.728-2.441-71.728c78.845,26.441,148.604,28.797,197.053,28.379-2.492-81.768-26.258-184.819-26.258-184.819,0,0,48.912,3.825,68.466,3.825s68.47-3.825,68.47-3.825c0,0-23.756,103.058-26.254,184.813,48.456.421,118.208-1.935,197.053-28.379,0,0-2.441,33.128-2.441,71.728s2.441,71.728,2.441,71.728c-78.963-26.482-148.8-28.803-197.269-28.373v129.125h0Z"/>
        <path class="cls-4" d="M1081.206,1317.25c-99.081,0-152.15,137.205-152.15,137.205,0,0-29.443-65.06-110.28-65.06-54.693,0-94.999,48.567-120.624,93.543,99.505,158.045,258.266,255.575,383.047,315.578,124.806-60.006,283.669-157.513,383.18-315.578-25.624-44.976-65.93-93.543-120.624-93.543-80.84,0-110.406,65.06-110.406,65.06,0,0-53.056-137.205-152.143-137.205Z"/>
      </g>
    </g>
  </g>
</svg>