<?xml version="1.0" encoding="UTF-8"?>
<svg xmlns="http://www.w3.org/2000/svg" viewBox="0 0 3600.818 2401.738">
  <defs>
    <style>
      .cls-1 {
        fill: #fcdd09;
      }

      .cls-1, .cls-2, .cls-3, .cls-4, .cls-5, .cls-6 {
        stroke-width: 0px;
      }

      .cls-2 {
        fill: #078930;
      }

      .cls-3 {
        fill: #141414;
      }

      .cls-4 {
        fill: #45b4db;
      }

      .cls-4, .cls-6 {
        fill-rule: evenodd;
      }

      .cls-5 {
        fill: #da121a;
      }

      .cls-6 {
        fill: #eee;
      }
    </style>
  </defs>
  <g id="background">
    <path id="bg" class="cls-6" d="M400,.1h2800c220,0,400,180,400,400v1600c0,220-180,400-400,400H400C180,2400.1,0,2220.1,0,2000.1V400.1C0,180.1,180,.1,400,.1Z"/>
  </g>
  <g id="country">
    <g id="ss">
      <path class="cls-3" d="M3200,.1H400C271.3.1,156.292,61.702,82.998,156.874l295.949,559.015h3221.053v-315.789C3600,180.1,3420,.1,3200,.1Z"/>
      <rect class="cls-5" x="378.947" y="842.205" width="3221.053" height="715.789"/>
      <path class="cls-2" d="M378.947,1684.31l-295.949,559.015c73.29,95.168,188.291,156.768,316.983,156.774h2800.038c219.991-.01,399.981-180.006,399.981-400v-315.79H378.947Z"/>
      <path id="l-t" class="cls-4" d="M0,2000.1V400.1C0,280.1,50,180.1,130,100.1l1570,1100L130,2300.1C50,2220.1,0,2120.1,0,2000.1Z"/>
      <path class="cls-1" d="M784.239,1496.032l-192.306-591.864-192.306,591.83,503.46-365.739H280.779l503.46,365.774Z"/>
    </g>
  </g>
</svg>