<?xml version="1.0" encoding="UTF-8"?>
<svg xmlns="http://www.w3.org/2000/svg" viewBox="0 0 3600.818 2401.738">
  <defs>
    <style>
      .cls-1 {
        fill: #d21034;
      }

      .cls-1, .cls-2, .cls-3, .cls-4 {
        stroke-width: 0px;
      }

      .cls-1, .cls-3 {
        fill-rule: evenodd;
      }

      .cls-3 {
        fill: #12ad2b;
      }

      .cls-4 {
        fill: #ffce00;
      }
    </style>
  </defs>
  <g id="background">
    <path id="st" class="cls-3" d="M400,.1h2800c220,0,400,180,400,400v1600c0,220-180,400-400,400H400C180,2400.1,0,2220.1,0,2000.1V400.1C0,180.1,180,.1,400,.1Z"/>
  </g>
  <g id="country">
    <g id="st-2" data-name="st">
      <rect class="cls-4" x="0" y="685.814" width="3600" height="1028.571"/>
      <path id="l-st" class="cls-1" d="M0,2000.339V399.861c.069-118.044,51.271-224.129,132.657-297.302l967.343,1097.541L132.657,2297.641C51.271,2224.467.069,2118.383,0,2000.339Z"/>
      <g id="c">
        <g id="b">
          <path id="a" class="cls-2" d="M1800,857.243l-105.949,326.077,163.038,52.974"/>
          <path id="a-2" data-name="a" class="cls-2" d="M1800,857.243l105.949,326.077-163.038,52.974"/>
        </g>
        <g id="b-2" data-name="b">
          <path id="a-3" data-name="a" class="cls-2" d="M2126.077,1094.151h-342.857v171.429"/>
          <path id="a-4" data-name="a" class="cls-2" d="M2126.077,1094.151l-277.377,201.526-100.763-138.689"/>
        </g>
        <g id="b-3" data-name="b">
          <path id="a-5" data-name="a" class="cls-2" d="M2001.526,1477.477l-105.949-326.077-163.038,52.974"/>
          <path id="a-6" data-name="a" class="cls-2" d="M2001.526,1477.477l-277.377-201.526,100.763-138.689"/>
        </g>
        <g id="b-4" data-name="b">
          <path id="a-7" data-name="a" class="cls-2" d="M1598.474,1477.477l277.377-201.526-100.763-138.689"/>
          <path id="a-8" data-name="a" class="cls-2" d="M1598.474,1477.477l105.949-326.077,163.038,52.974"/>
        </g>
        <g id="b-5" data-name="b">
          <path id="a-9" data-name="a" class="cls-2" d="M1473.923,1094.151l277.377,201.526,100.763-138.689"/>
          <path id="a-10" data-name="a" class="cls-2" d="M1473.923,1094.151h342.857v171.429"/>
        </g>
      </g>
      <g id="c-2" data-name="c">
        <g id="b-6" data-name="b">
          <path id="a-11" data-name="a" class="cls-2" d="M3000,857.243l-105.949,326.077,163.038,52.974"/>
          <path id="a-12" data-name="a" class="cls-2" d="M3000,857.243l105.949,326.077-163.038,52.974"/>
        </g>
        <g id="b-7" data-name="b">
          <path id="a-13" data-name="a" class="cls-2" d="M3326.077,1094.151h-342.857v171.429"/>
          <path id="a-14" data-name="a" class="cls-2" d="M3326.077,1094.151l-277.377,201.526-100.763-138.689"/>
        </g>
        <g id="b-8" data-name="b">
          <path id="a-15" data-name="a" class="cls-2" d="M3201.526,1477.477l-105.949-326.077-163.038,52.974"/>
          <path id="a-16" data-name="a" class="cls-2" d="M3201.526,1477.477l-277.377-201.526,100.763-138.689"/>
        </g>
        <g id="b-9" data-name="b">
          <path id="a-17" data-name="a" class="cls-2" d="M2798.474,1477.477l277.377-201.526-100.763-138.689"/>
          <path id="a-18" data-name="a" class="cls-2" d="M2798.474,1477.477l105.949-326.077,163.038,52.974"/>
        </g>
        <g id="b-10" data-name="b">
          <path id="a-19" data-name="a" class="cls-2" d="M2673.923,1094.151l277.377,201.526,100.763-138.689"/>
          <path id="a-20" data-name="a" class="cls-2" d="M2673.923,1094.151h342.857v171.429"/>
        </g>
      </g>
    </g>
  </g>
</svg>