<?xml version="1.0" encoding="UTF-8"?>
<svg xmlns="http://www.w3.org/2000/svg" viewBox="0 0 3600.818 2401.738">
  <defs>
    <style>
      .cls-1 {
        fill: gold;
      }

      .cls-1, .cls-2 {
        stroke-width: 0px;
      }

      .cls-2 {
        fill: #c00;
        fill-rule: evenodd;
      }
    </style>
  </defs>
  <g id="background">
    <path id="su" class="cls-2" d="M400,.1h2800c220,0,400,180,400,400v1600c0,220-180,400-400,400H400C180,2400.1,0,2220.1,0,2000.1V400.1C0,180.1,180,.1,400,.1Z"/>
  </g>
  <g id="country">
    <g id="su-2" data-name="su">
      <path class="cls-1" d="M800,150.1l-33.676,103.648h-108.98l88.168,64.056-33.68,103.648,88.168-64.06,88.172,64.06-33.68-103.648,88.168-64.056h-108.98l-33.68-103.648ZM800,204.1l21.556,66.332h69.748l-56.428,41,21.552,66.332-56.428-40.996-56.424,41,21.552-66.336-56.428-41h69.748l21.552-66.332Z"/>
      <g>
        <path class="cls-1" d="M559.197,692.833l74.646,74.969,70.396-69.727c107.076,114.545,219.384,224.957,325.633,339.944,15.964,16.033,41.939,16.123,58.014.197,16.078-15.922,16.165-41.83.198-57.862-114.041-107.318-228.434-215.512-342.51-323.22l94.836-93.938-131.936-18.219-149.277,147.857Z"/>
        <path class="cls-1" d="M800.005,450.099c61.405,34.496,108.026,83.999,135.529,135.748,27.875,52.451,40.127,107.207,40.376,150.987.514,89.77-72.96,162.544-162.965,162.544-48.026,0-91.203-20.718-121.025-53.679l-16.502,13.854c-9.768-3.729-20.832-.897-27.594,7.061-11.765,1.536-21.611,9.65-25.342,20.883-12.406,24.822-34.175,44.285-60.511,53.197-.253.087-.475.197-.696.308-12.181,4.452-24.389,12.492-34.784,22.904-20.538,20.666-30.582,47.111-24.931,65.67-.558,1.613-.845,3.306-.851,5.013,0,8.565,6.965,15.512,15.556,15.512,2.151-.007,4.277-.458,6.245-1.326,18.571,4.18,43.799-6.102,63.53-25.888,11.183-11.249,19.565-24.566,23.676-37.615,9.169-26.141,28.876-47.442,53.91-59.418.594-.284,1.08-.58,1.512-.88,8.393-4.002,14.533-11.561,16.72-20.579,38.394,45.173,95.976,74.017,160.345,75.529,118.058,2.771,206.305-83.904,210.385-208.546,2.054-62.725-22.28-143.61-77.725-209.939-42.379-50.699-104.512-92.789-174.86-111.34h.004Z"/>
      </g>
    </g>
  </g>
</svg>