<?xml version="1.0" encoding="UTF-8"?>
<svg xmlns="http://www.w3.org/2000/svg" viewBox="0 0 3600.818 2401.738">
  <defs>
    <style>
      .cls-1 {
        fill: #dc171d;
      }

      .cls-1, .cls-2, .cls-3, .cls-4, .cls-5, .cls-6, .cls-7, .cls-8, .cls-9, .cls-10, .cls-11, .cls-12, .cls-13, .cls-14, .cls-15, .cls-16, .cls-17, .cls-18 {
        stroke: #000;
      }

      .cls-1, .cls-2, .cls-4, .cls-6, .cls-8, .cls-10, .cls-14, .cls-16, .cls-17 {
        stroke-miterlimit: 15.118;
      }

      .cls-1, .cls-16 {
        stroke-width: 2.133px;
      }

      .cls-19, .cls-20, .cls-21, .cls-22, .cls-23, .cls-24 {
        stroke-width: 0px;
      }

      .cls-19, .cls-5, .cls-7, .cls-9, .cls-12, .cls-13, .cls-15, .cls-16, .cls-18 {
        fill: #f9d90f;
      }

      .cls-2, .cls-4, .cls-10 {
        fill: none;
      }

      .cls-2, .cls-8, .cls-17 {
        stroke-width: 4.8px;
      }

      .cls-25 {
        stroke-width: 1.6px;
      }

      .cls-25, .cls-3, .cls-26 {
        stroke-miterlimit: 7.479;
      }

      .cls-25, .cls-26 {
        stroke: rgba(0, 0, 0, 0);
      }

      .cls-20 {
        fill: #dc181e;
      }

      .cls-20, .cls-23, .cls-24 {
        fill-rule: evenodd;
      }

      .cls-21 {
        fill: #f9b60f;
      }

      .cls-22 {
        fill: #012a87;
      }

      .cls-3 {
        fill: #bc715f;
        stroke-width: 2.134px;
      }

      .cls-4 {
        stroke-width: 5.333px;
      }

      .cls-5 {
        stroke-miterlimit: 7.847;
        stroke-width: 2.4px;
      }

      .cls-6 {
        fill: #62afe1;
      }

      .cls-6, .cls-10 {
        stroke-width: 2.137px;
      }

      .cls-7 {
        stroke-miterlimit: 6.883;
        stroke-width: 2.4px;
      }

      .cls-8, .cls-14, .cls-17 {
        fill: #fff;
      }

      .cls-9 {
        stroke-width: 2.399px;
      }

      .cls-9, .cls-11, .cls-18 {
        stroke-miterlimit: 7.053;
      }

      .cls-11 {
        fill: #008830;
      }

      .cls-11, .cls-18 {
        stroke-width: 2.4px;
      }

      .cls-26 {
        stroke-width: 5.335px;
      }

      .cls-12 {
        stroke-miterlimit: 8.033;
        stroke-width: 2.401px;
      }

      .cls-13 {
        stroke-miterlimit: 7.844;
        stroke-width: 2.4px;
      }

      .cls-14 {
        stroke-width: 4.267px;
      }

      .cls-15 {
        stroke-miterlimit: 6.884;
        stroke-width: 2.4px;
      }

      .cls-17 {
        stroke-linecap: round;
      }

      .cls-23 {
        fill: #032a87;
      }

      .cls-24 {
        fill: #eee;
      }
    </style>
  </defs>
  <g id="background">
    <path id="sx" class="cls-20" d="M400,.1h2800c220,0,400,180,400,400v1600c0,220-180,400-400,400H400C180,2400.1,0,2220.1,0,2000.1V400.1C0,180.1,180,.1,400,.1Z"/>
  </g>
  <g id="country">
    <g id="sx-2" data-name="sx">
      <path id="b" class="cls-23" d="M400,2400.1h2800c220,0,400-180,400-400v-800H0v800C0,2220.1,180,2400.1,400,2400.1Z"/>
      <path id="l-t" class="cls-24" d="M0,2000.1V400.1C0,280.1,50,180.1,130,100.1l1570,1100L130,2300.1C50,2220.1,0,2120.1,0,2000.1Z"/>
      <g>
        <path class="cls-16" d="M808.282,905.954l.504-18.565s-9.978-15.904,1.592-32.978c0,0-24.592-13.002-18.867-33.381,0,0-22.254-5.684-20.621-30.156,0,0-23.987-1.673-26.487-22.113,0,0-24.008,3.951-34.57-15.965,0,0-23.423,4.576-30.035-11.832,0,0-22.778,7.882-36.284-11.409,0,0-24.028,9.716-34.107-8.506-9.938,18.142-33.985,8.506-33.985,8.506-13.344,19.23-36.284,11.248-36.284,11.248-6.37,16.489-29.732,11.812-29.732,11.812-10.522,19.916-34.51,15.945-34.51,15.945-2.358,20.379-26.326,22.052-26.326,22.052,1.895,24.532-20.319,30.095-20.319,30.095,5.846,20.359-18.706,33.34-18.706,33.34,11.873,17.174,1.996,32.937,1.996,32.937l-.564,17.134,397.365,1.834h-.061Z"/>
        <g>
          <path class="cls-3" d="M610.136,793.975c10.65,10.744.698,16.624-9.134,11.103-24.271-18.368-52.651-28.554-91.67-17.451-56.071.199-115.642-3.169-142.875,26.58-1.944,5.731-17.151,27.358,41.672-4.365-3.67,21.936,23.693,4.006,44.843-5.95-14.569,15.229,22.317,17.73,45.641,2.771-11.468,15.388,8.675,14.97,27.781,15.079,27.951.867,12.505,25.175-35.32,26.182-3.49-.249-16.902,6.04,1.197,10.704,8.376.419,1.556,12.099,30.553-2.771-1.795,8.701,10.62,7.016,28.18,1.585,9.952,7.824,18.029-.289,26.585-4.365,36.636,14.322,85.019,28.653,98.022-21.029,30.583-3.518,55.892-8.003,42.19-19.634,39.837,16.235,42.141,9.966,41.532,1.953,19.106,7.226,41.323,16.993,32.278,1.126,18.358,4.684,38.471,6.329,54.156,15.707,15.895,8.232,10.75-6.149,7.02-12.617-8.147-13.026-18.428-16.863-41.642-17.342-19.674-.399-111.883-26.112-159.847,1.635h.269c-.838,0-19.924-17.95-19.924-17.95,4.388-.12,7.559-2.332,10.101-5.611,18.904,1.008,37.849-.98,56.131-5.89,8.526-2.661,13.382,2.412,13.193,6.169,7.798-13.714-3.001-16.554-10.949-15.986-31.65,1.794-50.646.14-65.943-2.531-30.344-15.129-66.85,8.083-33.116,27.208l9.074,5.691Z"/>
          <path class="cls-26" d="M617.265,767.106c-6.352.947-12.903,1.714-15.436,6.109.189-7.236,10.959-7.734,15.436-6.109Z"/>
          <ellipse class="cls-25" cx="613.897" cy="769.775" rx="2.736" ry="2.805"/>
        </g>
        <path class="cls-1" d="M269.795,857.536c12.538,71.116,26.447,143.985,33.26,218.427,14.917,110.241-52.168,202.784-24.653,311.715,16.428,52.248,73.897,82.626,126.488,88.653,69.785,13.183,154.124.04,205.062,52.208,50.938-52.188,135.297-39.025,205.062-52.208,52.611-6.027,110.06-36.404,126.488-88.653,27.515-108.911-39.549-201.474-24.653-311.715,6.833-74.442,20.742-147.311,33.26-218.406-122.82,66.681-244.188-20.077-340.158,35.396-95.95-55.473-217.338,31.284-340.158-35.396v-.02Z"/>
        <path class="cls-6" d="M315.593,914.985c10.825,58.658,22.838,118.788,28.744,180.208,12.84,90.951-45.072,167.307-21.307,257.169,14.171,43.137,63.819,68.193,109.254,73.151,60.271,10.885,133.12.02,177.104,43.097,43.984-43.077,116.853-32.212,177.104-43.097,45.435-4.959,95.083-30.035,109.254-73.151,23.766-89.842-34.147-166.219-21.306-257.169,5.906-61.42,17.94-121.55,28.745-180.208-106.089,55.03-210.908-16.549-293.795,29.208-82.888-45.757-187.707,25.802-293.795-29.228v.02Z"/>
        <g>
          <path class="cls-17" d="M551.816,1079.448l-124.13,85.065v102.4h363.419v-102.4l-124.13-85.065h-115.16Z"/>
          <path class="cls-17" d="M398.196,1249.98v19.573h11.953v100.586h398.473v-100.586h11.953v-19.573h-422.38ZM609.386,968.521l-57.57,56.038v54.889h115.16v-54.889l-57.59-56.038ZM445.626,1178.401h36.404v57.671h-36.404v-57.671ZM548.994,1178.401h36.404v57.671h-36.404v-57.671ZM773.145,1178.401h-36.404v57.671h36.404v-57.671ZM669.798,1178.401h-36.425v57.671h36.425v-57.671Z"/>
          <path class="cls-17" d="M445.626,1278.685h36.404v57.65h-36.404v-57.65ZM773.145,1278.685h-36.404v57.65h36.404v-57.65ZM637.929,1275.419h-57.086v94.72h57.086v-94.72ZM547.663,1249.98h-25.6v120.159h25.6v-120.159ZM671.108,1249.98h25.62v120.159h-25.6l-.02-120.159Z"/>
          <path class="cls-17" d="M706.222,1254.092v-29.672h-193.673v29.672h193.673Z"/>
          <path class="cls-8" d="M551.816,1024.559h115.16M427.686,1164.513h363.419"/>
          <path class="cls-17" d="M389.084,1357.581h440.623v31.143h-440.643l.02-31.143ZM631.357,1036.432h-43.943v31.123h43.943v-31.123Z"/>
          <path class="cls-4" d="M526.377,1224.421v29.672M692.394,1224.421v29.672M678.546,1224.421v29.672M664.718,1224.421v29.672M650.89,1224.421v29.672M637.062,1224.421v29.672M623.214,1224.421v29.672M609.406,1224.421v29.672M595.558,1224.421v29.672M581.729,1224.421v29.672M567.881,1224.421v29.672M554.053,1224.421v29.672M540.225,1224.421v29.672"/>
          <path class="cls-2" d="M706.222,1226.436v27.656"/>
        </g>
        <g>
          <path class="cls-11" d="M422.705,962.801c27.355,17.45,40.285,33.592,40.351,48.56-34.041-1.815-64.819-17.835-40.342-48.56h-.009Z"/>
          <path class="cls-11" d="M444.738,978.681c26.33,14.986,41.188,31.298,45.758,48.795-26.763,4.663-55.312-7.963-45.758-48.795ZM410.687,1004.423c3.545,30.104-.799,51.728-12.187,65.784-19.607-18.785-26.368-49.256,12.187-65.775v-.009Z"/>
          <path class="cls-11" d="M410.715,1004.517c24.75,17.506,37.915,35.2,40.755,53.064-27.082,2.012-54.259-13.35-40.755-53.054v-.009Z"/>
          <path class="cls-11" d="M427.153,980.439l11.397,7.117,12.244-1.203,5.125,8.452s-1.373,17.374-1.382,18.954c-.009,1.589,3.78,11.301,3.78,11.301l-8.332,6.055-22.305,9.139-20.857-16.942-13.156,1.363-5.764-16.34,6.479-13.933,16.278-10.568,16.494-3.394Z"/>
          <path class="cls-11" d="M405.741,989.079c-10.72,28.346-24.543,45.533-41.122,52.772-8.745-25.704-.705-55.865,41.122-52.772Z"/>
          <path class="cls-11" d="M405.684,991.148c-29.734-5.857-48.993-16.613-58.886-31.759,23.895-12.909,54.974-9.994,58.886,31.759ZM462.548,992.163c30.186,2.68,51.682-2.285,65.412-14.065-19.343-19.067-50.008-24.933-65.412,14.065Z"/>
          <path class="cls-11" d="M462.642,992.201c18.205,24.219,36.27,36.874,54.212,39.196,1.232-27.133-14.914-53.844-54.212-39.205v.009ZM453.154,1006.999c22.691,20.092,33.853,39.111,34.728,57.191-27.148-.959-52.482-19.198-34.728-57.191Z"/>
          <path class="cls-11" d="M443.797,1040.291c15.535,26.024,20.406,47.535,15.751,65.023-25.578-9.148-44.188-34.204-15.742-65.023h-.009Z"/>
          <path class="cls-11" d="M432.889,1038.608c3.432,30.104-.987,51.71-12.422,65.737-19.55-18.86-26.189-49.359,12.413-65.737h.009Z"/>
        </g>
        <g>
          <path class="cls-15" d="M413.155,1004.84c-2.25-1.662-3.759-4.139-4.204-6.901-.33-2.267-.147-3.726.881-6.919.514-1.624.918-2.982.918-3.028-.287-.137-.594-.23-.909-.275-.835-.165-.936-.11-2.441,1.285-5.14,4.735-9.821,7.011-13.033,6.313-3.708-.807-5.14-5.965-3.065-11.131,1.753-4.395,5.048-7.084,9.27-7.561,1.355-.195,2.736-.063,4.029.385,1.193.321,2.12.496,2.065.376-.629-.536-1.305-1.015-2.019-1.431-5.186-3.294-8.26-7.093-8.462-10.498-.147-2.478,1.468-4.845,4.24-6.212,4.701-2.283,10.366-.69,13.189,3.707,1.303,2.101,1.643,3.762,1.643,8.084,0,2.505.092,3.946.285,4.019.165.073.587.459.955.872l.652.734,2.57-2.101c2.625-2.147,4.525-3.459,6.645-4.588,2.946-1.56,6.416-2.019,8.15-1.046,3.809,2.129,3.791,9.048-.028,13.783-3.102,3.845-7.811,5.194-12.115,3.487-.996-.396-2.01-.745-3.038-1.046l-1.285-.349,1.982,2.524c2.68,3.395,4.176,5.827,5.213,8.442,1.955,4.919.964,8.718-2.708,10.342-2.827,1.257-6.526.752-9.38-1.266h0Z"/>
          <path class="cls-7" d="M418.262,983.456c-1.37,3.437-4.958,5.236-8.014,4.018l-.009-.003c-3.051-1.222-4.413-4.991-3.045-8.424,1.37-3.437,4.958-5.236,8.014-4.018h0c3.056,1.218,4.423,4.991,3.053,8.428h0Z"/>
        </g>
        <g>
          <path class="cls-9" d="M440.44,972.868c.019,2.332.414,3.798,1.862,6.967.733,1.608,1.326,2.962,1.317,3.009,0,.047-.376.207-.818.338-.771.244-.884.188-2.53-1.091-5.614-4.419-10.438-6.356-13.41-5.397-3.451,1.119-4.044,6.468-1.307,11.564,2.332,4.325,5.887,6.788,9.996,6.938,1.309.097,2.621-.146,3.808-.705,1.091-.423,1.965-.677,1.928-.555-.038.132-.809.846-1.721,1.617-4.495,3.761-6.865,7.869-6.564,11.348.216,2.52,2.116,4.795,4.984,5.97,4.657,2.014,10.065-.127,12.08-4.783.004-.01.009-.02.013-.03.94-2.228,1.016-3.949.376-8.339-.376-2.548-.489-4.015-.32-4.109.308-.277.572-.601.781-.959l.517-.809,2.774,1.937c2.83,1.974,4.843,3.159,7.053,4.137,3.047,1.363,6.441,1.542,7.965.423,3.329-2.463,2.294-9.496-2.069-14.009-3.536-3.657-8.256-4.663-12.131-2.576-.865.47-2.106,1.053-2.746,1.297l-1.185.461,1.533-2.727c2.059-3.667,3.141-6.252,3.752-8.988,1.147-5.152-.376-8.932-4.128-10.304-2.95-1-6.211-.323-8.52,1.768-2.097,1.979-3.287,4.733-3.291,7.615v-.01Z"/>
          <path class="cls-18" d="M440.769,986.576c1.632-3.422,5.421-5.14,8.462-3.837,0,0,.001,0,.002,0,3.039,1.305,4.18,5.134,2.548,8.556-1.632,3.422-5.421,5.14-8.462,3.837,0,0-.001,0-.002,0-3.039-1.305-4.18-5.134-2.548-8.556Z"/>
        </g>
        <g>
          <path class="cls-12" d="M406.984,1038.771c-.61-2.69-.551-4.481.254-8.521.274-1.263.51-2.534.711-3.811-.336-.112-.688-.169-1.042-.168-.957-.068-1.068.013-2.607,1.95-5.259,6.593-10.288,10.133-13.967,9.834-4.265-.345-6.397-6.336-4.629-12.933,1.502-5.605,4.927-9.408,9.606-10.692,1.479-.465,3.054-.539,4.571-.216,1.369.189,2.443.234,2.368.102-.076-.131-1.162-.755-2.421-1.391-6.178-3.096-10.03-7.176-10.622-11.258-.429-2.952,1.133-6.091,4.096-8.212,4.993-3.572,11.713-2.58,15.22,2.25,1.686,2.314,2.238,4.268,2.691,9.488.264,3.03.534,4.754.751,4.812.43.234.821.533,1.159.887l.821.785,2.661-2.978c2.721-3.039,4.717-4.942,6.985-6.662,3.137-2.396,6.988-3.525,9.046-2.641,4.499,1.915,5.209,10.273,1.416,16.649-3.069,5.163-8.222,7.594-13.239,6.25-1.117-.299-2.712-.638-3.516-.743l-1.478-.196,2.49,2.707c3.368,3.651,5.308,6.343,6.752,9.313,2.707,5.624,1.998,10.377-1.955,12.964-3.118,1.946-7.044,2.055-10.267.286-2.949-1.702-5.068-4.542-5.857-7.854h0Z"/>
          <path class="cls-12" d="M415.907,1019.705c-1.174,4.38-5.011,7.158-8.57,6.204s-5.494-5.278-4.32-9.658c1.174-4.38,5.011-7.158,8.57-6.204,3.56.954,5.494,5.278,4.32,9.658Z"/>
        </g>
        <g>
          <path class="cls-5" d="M445.127,1010.411c-.528,2.643-.43,4.38.46,8.316.297,1.224.559,2.455.786,3.694-.325.118-.667.182-1.013.19-.933.09-1.043.014-2.592-1.83-5.303-6.318-10.299-9.641-13.884-9.258-4.147.44-6.092,6.337-4.201,12.736,1.609,5.447,5.049,9.076,9.65,10.214,1.456.417,2.996.451,4.469.098,1.342-.222,2.377-.299,2.309-.159-.071.13-1.116.766-2.333,1.409-5.956,3.177-9.613,7.268-10.089,11.269-.345,2.894,1.258,5.921,4.215,7.916,4.955,3.368,11.489,2.222,14.797-2.572,1.589-2.302,2.086-4.237,2.399-9.346.175-2.953.396-4.643.616-4.708.414-.239.789-.541,1.11-.895l.772-.784,2.682,2.839c2.723,2.903,4.72,4.713,6.977,6.336,3.123,2.262,6.911,3.269,8.899,2.355,4.346-1.982,4.841-10.166.968-16.296-3.125-4.966-8.221-7.223-13.087-5.785-1.084.32-2.629.7-3.412.823l-1.438.229,2.365-2.705c3.195-3.66,5.026-6.327,6.359-9.273,2.519-5.543,1.696-10.175-2.219-12.606-3.096-1.826-6.938-1.834-10.043-.021-2.838,1.735-4.836,4.562-5.524,7.816h0Z"/>
          <path class="cls-13" d="M447.861,1022.747c-4.426.118-7.929,3.438-7.828,7.419.101,3.981,3.769,7.118,8.195,7.01,4.43-.113,7.94-3.434,7.838-7.419h0c-.101-3.984-3.775-7.123-8.205-7.01h0Z"/>
        </g>
        <path class="cls-14" d="M851.036,1085.679h-15.259v-10.845h-12.981v-12.377h-14.876v-78.614l-16.953-29.632-16.932,29.632v78.614h-14.896v12.377h-12.981v10.845h-15.259v16.005l120.139.343v-16.348Z"/>
        <path class="cls-19" d="M610.735,1579.071c61.037.202,136.103-12.256,171.258-30.438l77.244-6.854,1.532,94.236c-65.431,36.082-216.491,43.822-249.711,43.54-33.26.282-186.195-7.599-251.908-43.802l.847-94.297,77.405,6.975c35.155,18.081,112.519,30.639,173.496,30.639h-.161"/>
        <path class="cls-21" d="M359.149,1635.734l79.642-18.202-79.38-11.349-.262,29.551Z"/>
        <path class="cls-19" d="M160.336,1177.151l68.032,21.669-20.561,110.141-64.423,10.018s-10.845-57.933,16.932-141.889"/>
        <path class="cls-21" d="M143.383,1318.979l41.847-57.731,22.576,47.713-64.423,10.018Z"/>
        <path class="cls-10" d="M160.336,1177.151l68.032,21.669-20.561,110.141-64.423,10.018s-10.845-57.933,16.932-141.889v.081l.02-.02ZM359.149,1635.734l80.146-18.202"/>
        <path class="cls-10" d="M185.291,1260.906l22.496,48.055"/>
        <path class="cls-21" d="M860.768,1636.016l-79.642-18.222,79.38-11.349.262,29.571Z"/>
        <path class="cls-19" d="M1059.581,1177.433l-68.032,21.649,20.561,110.141,64.403,10.018s10.885-57.933-16.932-141.889"/>
        <path class="cls-21" d="M1076.514,1319.241l-41.827-57.731-22.576,47.713,64.403,10.018Z"/>
        <path class="cls-10" d="M1059.581,1177.433l-68.032,21.649,20.561,110.141,64.403,10.018s10.885-57.933-16.932-141.889v.081h0ZM860.768,1636.016l-80.146-18.222"/>
        <path class="cls-10" d="M1034.627,1261.168l-22.516,48.055"/>
        <path class="cls-10" d="M610.735,1579.071c61.037.202,136.103-12.256,171.258-30.438l77.244-6.854,1.532,94.236c-65.431,36.082-216.491,43.822-249.711,43.54-33.26.282-186.195-7.599-251.908-43.802l.847-94.297,77.405,6.975c35.155,18.081,112.519,30.639,173.496,30.639h-.161"/>
        <path class="cls-19" d="M1100.28,1256.773l-65.592,4.737c-1.471,55.574-8.204,267.631-261.443,279.141l7.861,77.143c308.269,3.205,331.692-260.092,319.174-361.021"/>
        <path class="cls-10" d="M1100.28,1256.773l-65.592,4.737c-1.471,55.574-8.204,267.631-261.443,279.141l7.861,77.143c308.269,3.205,331.692-260.092,319.174-361.021Z"/>
        <path class="cls-19" d="M119.638,1256.511l65.592,4.737c1.471,55.574,8.204,267.631,261.443,279.141l-7.861,77.143c-308.269,3.205-331.692-260.092-319.174-361.021"/>
        <path class="cls-10" d="M119.638,1256.511l65.592,4.737c1.471,55.574,8.204,267.631,261.443,279.141l-7.861,77.143c-308.269,3.205-331.692-260.092-319.174-361.021Z"/>
        <path class="cls-22" d="M567.719,1625.514c-1.734,1.109-4.072,1.411-6.793,1.27l-12.236-.605,1.048-15.279,12.135.645c1.899.036,3.766.498,5.463,1.351,2.459,1.27,3.528,3.628,3.306,6.894-.161,2.822-1.149,4.636-2.943,5.725M547.138,1649.562l1.209-18.626,14.272.988c4.636.363,8.063-.847,10.381-3.225,2.371-2.271,3.747-5.386,3.83-8.668.282-3.971-.726-7.216-3.084-9.595-2.258-2.298-5.463-3.507-9.474-3.89l-20.399-1.27-2.822,43.822,6.067.403M593.52,1612.896l14.917.161c2.157.202,3.85.443,5.1,1.048,2.298,1.068,3.366,3.225,3.366,6.37,0,2.943-.847,4.918-2.52,6.088-2.033,1.157-4.357,1.703-6.692,1.572l-14.332-.161.121-15.078M593.258,1651.699l.121-18.706,14.009.202c2.479,0,4.314.202,5.584.806,2.076.968,3.084,2.963,3.185,5.705l.363,7.358c.101,1.774.121,2.842.222,3.568.202.524.302,1.068.564,1.472h7.519l-.141-.947c-.971-.582-1.635-1.563-1.814-2.681-.3-1.221-.455-2.472-.464-3.729l-.141-5.846c-.101-2.661-.544-4.495-1.572-5.503-.986-1.334-2.369-2.322-3.951-2.822,1.89-.926,3.539-2.278,4.818-3.951,1.15-2.008,1.709-4.3,1.613-6.612,0-5.039-2.036-8.466-6.249-10.321-2.707-1.098-5.605-1.646-8.527-1.613l-21.024-.202-.161,43.943h6.047M643.087,1642.527c-2.735-3.492-4.288-7.763-4.435-12.195-.302-6.088.867-10.744,3.628-13.888,2.822-3.386,6.45-5.039,11.208-5.281,4.315-.391,8.578,1.178,11.611,4.273,2.983,2.943,4.677,7.055,4.979,12.135.161,4.898-.685,9.272-2.943,13.102-2.217,3.87-5.926,6.067-11.389,6.188-5.684.302-9.938-1.028-12.659-4.334M635.891,1614.851c-2.822,4.354-3.951,9.393-3.669,15.481.423,6.551,2.459,11.994,6.289,16.086,4.233,4.092,9.877,6.148,16.811,5.745,7.418-.322,13.022-3.145,16.811-8.305,3.064-4.677,4.535-10.099,4.233-16.811-.444-5.987-2.177-10.865-5.422-14.493-4.072-4.858-10.079-7.015-18.182-6.692-7.66.484-13.284,3.306-16.912,8.99"/>
        <path class="cls-22" d="M149.672,1338.124l1.008,5.483c-2.159.386-4.176,1.339-5.846,2.762-2.6,2.419-3.467,6.047-2.6,10.986.403,2.096,1.149,4.152,2.096,5.785,1.975,3.346,4.515,4.677,7.761,4.152,2.379-.403,3.951-1.33,4.717-3.024.706-1.693,1.23-4.233,1.411-7.499l.282-6.188c.202-3.83.605-6.833,1.471-8.506,1.351-3.003,3.87-4.878,7.619-5.483,3.727-.751,7.596.154,10.603,2.479,3.064,2.117,5.1,5.826,5.846,10.724.991,4.066.557,8.35-1.23,12.135-1.713,3.528-4.979,5.684-9.978,6.612l-.988-5.563c1.912-.566,3.684-1.528,5.201-2.822,1.955-2.177,2.56-5.342,1.814-9.696-.605-3.548-1.814-5.846-3.628-6.975-1.553-1.293-3.589-1.852-5.584-1.532-2.011.198-3.709,1.579-4.314,3.507-.609,2.682-.96,5.415-1.048,8.164l-.282,6.41c.009,2.494-.556,4.956-1.653,7.196-1.611,3.176-4.723,5.316-8.265,5.684-4.999.847-8.869-.282-11.611-3.487-2.868-3.275-4.755-7.292-5.442-11.591-.967-5.563-.262-9.877,1.975-13.344,2.258-3.548,5.826-5.624,10.663-6.309M146.89,1396.117l43.238-13.022,10.079,30.438-5.261,1.673-8.265-25.015-13.143,3.951,7.64,23.121-5.039,1.613-7.559-23.181-14.654,4.374,8.365,25.58-5.16,1.472-10.24-31.002M166.06,1448.889l39.771-21.085,4.253,7.418-27.354,28.906,39.952-6.833,4.112,7.358-39.67,20.964-2.822-4.878,23.423-12.316c.847-.504,2.157-1.209,4.052-2.217,1.875-.867,3.971-2.016,6.047-3.084l-39.771,6.773-2.903-5.18,27.152-28.805-1.31.665c-.847.484-2.318,1.209-4.314,2.338-1.975,1.209-3.427,1.975-4.394,2.358l-23.342,12.538-2.882-4.979M240.179,1507.467c-2.274-.598-4.322-1.853-5.886-3.608l-8.406-8.668,11.308-10.361,8.466,8.648c1.653,1.613,2.701,3.165,3.245,4.515.806,2.58,0,4.939-2.379,7.156-2.157,1.996-4.314,2.822-6.35,2.318M208.23,1511.499l13.868-12.74,9.837,9.978c3.165,3.225,6.41,4.717,9.817,4.636,3.407-.155,6.637-1.562,9.071-3.951,2.702-2.209,4.288-5.5,4.334-8.99-.04-3.205-1.492-6.208-4.233-9.01l-14.11-14.433-32.917,30.216,4.253,4.294M247.9,1546.815l23.846-37.392,28.2,17.134-2.943,4.455-23.181-13.868-7.156,11.329,21.306,12.901-2.741,4.294-21.327-12.84-8.123,12.639,23.463,14.11-2.822,4.415-28.523-17.174M318.471,1539.598l14.352,4.535c2.016.605,3.487,1.411,4.475,2.278,1.814,1.734,2.318,4.233,1.25,7.237-.887,2.62-2.217,4.314-4.334,5.039-2.327.382-4.711.202-6.954-.524l-13.505-4.314,4.737-14.272M306.115,1576.305l5.967-17.819,13.344,4.354c1.83.359,3.542,1.17,4.979,2.358,1.613,1.472,2.117,3.649,1.29,6.37l-1.996,7.095c-.444,1.734-.685,2.883-.867,3.407,0,.564,0,1.149.101,1.532l7.035,2.298.403-1.008c-.746-.605-1.169-1.673-1.129-3.024.161-.806.403-2.117.847-3.628l1.693-5.684c.706-2.5.967-4.354.343-5.705-.587-1.536-1.584-2.882-2.882-3.89,2.08-.297,4.061-1.077,5.785-2.278,1.745-1.552,3.005-3.575,3.628-5.826,1.613-4.737.726-8.708-2.822-11.691-2.257-1.832-4.824-3.246-7.579-4.173l-20.016-6.168-13.989,41.686,5.846,1.814"/>
        <path class="cls-22" d="M839.559,1548.549c3.746-.689,7.606-.41,11.215.81,4.869,1.641,8.108,5.329,10.082,10.93l-6.062.736c-.989-2.74-2.989-4.999-5.59-6.312-2.868-1.165-6.005-1.502-9.055-.972-3.95.456-7.524,2.558-9.843,5.788-2.362,3.485-3.133,8.189-2.235,14.213.776,4.994,2.513,9.239,5.484,12.116,2.729,2.933,6.781,4.015,12.136,3.367,3.675-.368,7.079-2.096,9.544-4.846,2.406-2.577,3.143-6.515,2.47-11.628l-14.147,1.899-.617-4.85,19.685-2.665,3.405,23.328-3.921.533-2.321-5.405c-1.657,2.389-3.343,4.213-4.794,5.275-2.453,1.85-5.76,3-9.862,3.509-5.051.79-10.214-.356-14.457-3.208-4.752-3.655-7.759-9.012-8.793-16.39-1.158-7.239.104-13.405,3.538-18.221,3.25-4.638,7.916-7.315,14.139-8.068M884,1545.953l14.161-4.842c1.606-.627,3.337-.865,5.053-.694,2.576.249,4.443,1.815,5.475,4.898.96,2.638.918,4.936-.26,6.507-1.549,1.825-3.61,3.143-5.916,3.783l-13.308,4.515-5.185-14.167M897.404,1582.548l-6.53-17.76,13.146-4.478c1.743-.664,3.596-.993,5.461-.969,2.313.324,4.06,1.768,5.18,4.469l2.86,6.766c.35,1.132.875,2.203,1.555,3.173.171.588.587.958.903,1.347l7.142-2.491-.366-.954c-1.048-.019-2.045-.622-2.79-1.785-.529-.816-1.032-1.995-1.752-3.399l-2.238-5.525c-.637-1.873-1.77-3.538-3.279-4.818-1.434-.785-3.022-1.247-4.653-1.355,1.437-1.457,2.464-3.267,2.979-5.248.459-2.246.25-4.577-.603-6.704-1.708-4.708-4.967-7.328-9.596-7.736-2.904-.156-5.809.292-8.532,1.316l-19.88,6.673,15.187,41.607,5.843-2.01M949.236,1561.701l-24.403-37.058,27.851-17.031,2.963,4.449-22.836,14.018,7.535,11.327,21.064-13.042,2.763,4.345-21.064,13.022,8.28,12.49,23.224-14.273,2.944,4.388-28.341,17.365M972.385,1497.427l7.34-7.789c3.39-3.466,6.946-5.014,10.807-4.48,3.844.393,7.736,2.5,11.862,6.245,1.133.888,2.12,2.055,3.144,3.364,1.77,2.411,2.82,4.527,3.467,6.636.557,2.631.372,5.007-.577,7.288-.842,1.476-1.884,2.827-3.097,4.016l-7.359,7.728-25.586-23.068M1010.062,1515.292c5.202-5.55,6.441-11.576,3.563-18.463-1.831-4.038-4.501-7.64-7.831-10.566-3.894-3.829-8.963-6.237-14.391-6.835-5.595-.526-10.409,1.423-14.643,5.882l-12.514,12.916,33.28,30.103,12.515-12.977M1036.885,1481.65l-38.5-23.565,3.256-4.981,38.583,23.446-3.32,5.181M1052.647,1455.386l-41.714-17.576,12.935-29.34,5.063,2.068-10.562,24.161,12.566,5.209,9.882-22.259,4.8,2.104-9.78,22.2,14.063,6.023,10.809-24.459,5.084,2.008-13.186,29.859M1072.876,1404.143l-44.04-10.582,1.596-6.826,41.104-13.039-35.73-8.576,1.408-5.337,44.044,10.32-1.532,6.625-41.17,13.341,35.733,8.414-1.374,5.66M1070.415,1347.93l.646-5.553c2.182.189,4.376-.187,6.371-1.093,3.256-1.674,5.171-4.946,5.744-9.814.268-2.06.163-4.152-.311-6.175-.88-3.685-2.919-5.739-6.198-6.141-2.454-.307-4.239.265-5.533,1.572-1.531,2.064-2.679,4.385-3.391,6.853l-2.121,5.747c-1.399,3.765-2.656,6.363-3.973,7.79-2.167,2.722-5.106,3.616-8.87,3.286-3.785-.305-7.255-2.227-9.52-5.275-2.347-2.865-3.241-6.914-2.566-11.861.319-4.207,1.998-8.196,4.784-11.364,2.531-2.776,6.424-4.036,11.353-3.422l-.565,5.554c-2.018-.165-4.038.291-5.79,1.306-2.565,1.364-4.03,4.301-4.533,8.647-.429,3.601.011,6.028,1.368,7.888,1.265,1.545,3.085,2.534,5.071,2.754,2.173.241,3.878-.413,5.078-2.064.867-1.113,1.941-3.594,3.385-7.599l2.106-6.03c.785-2.365,2.024-4.554,3.646-6.445,2.506-2.515,5.709-3.525,9.735-3.149,4.908.594,8.378,2.693,10.104,6.455,1.685,3.801,2.314,7.966,1.785,12.653-.642,5.331-2.451,9.491-5.707,12.234-3.277,2.823-7.265,3.718-12.095,3.247"/>
      </g>
    </g>
  </g>
</svg>