<?xml version="1.0" encoding="UTF-8"?>
<svg xmlns="http://www.w3.org/2000/svg" viewBox="0 0 3600.818 2401.738">
  <defs>
    <style>
      .cls-1 {
        fill: #141414;
      }

      .cls-1, .cls-2, .cls-3, .cls-4 {
        stroke-width: 0px;
      }

      .cls-2 {
        fill: #ce1126;
      }

      .cls-2, .cls-4 {
        fill-rule: evenodd;
      }

      .cls-3 {
        fill: #eee;
      }

      .cls-4 {
        fill: #007a3d;
      }
    </style>
  </defs>
  <g id="background">
    <path id="sy" class="cls-2" d="M400,.1h2800c220,0,400,180,400,400v1600c0,220-180,400-400,400H400C180,2400.1,0,2220.1,0,2000.1V400.1C0,180.1,180,.1,400,.1Z"/>
  </g>
  <g id="country">
    <g id="sy-2" data-name="sy">
      <g id="h">
        <path class="cls-3" d="M3600,2000.1V800.1H0v1200C0,2220.1,180,2400.1,400,2400.1h2800c220,0,400-180,400-400Z"/>
        <path class="cls-1" d="M3600,2000.1v-400H0v400C0,2220.1,180,2400.1,400,2400.1h2800c220,0,400-180,400-400Z"/>
      </g>
      <path class="cls-4" d="M2084.96,1127.882l239.462.003,73.995-228.576,73.995,228.576,239.462-.003-193.729,141.268,73.998,228.576-193.726-141.271-193.726,141.271,73.998-228.576-193.729-141.267ZM888.127,1127.882l239.462.003,73.995-228.576,73.995,228.576,239.462-.003-193.729,141.268,73.998,228.576-193.726-141.271-193.726,141.271,73.998-228.576-193.729-141.267Z"/>
    </g>
  </g>
</svg>