<?xml version="1.0" encoding="UTF-8"?>
<svg xmlns="http://www.w3.org/2000/svg" viewBox="0 0 3600.818 2401.738">
  <defs>
    <style>
      .cls-1 {
        stroke-width: 6.048px;
      }

      .cls-1, .cls-2, .cls-3, .cls-4, .cls-5, .cls-6, .cls-7, .cls-8 {
        stroke: #000;
      }

      .cls-1, .cls-4 {
        fill: #fff;
      }

      .cls-2 {
        stroke-width: 6.48px;
      }

      .cls-2, .cls-4, .cls-7, .cls-8, .cls-9 {
        stroke-miterlimit: 6;
      }

      .cls-2, .cls-10, .cls-7 {
        fill: #ffd900;
      }

      .cls-3 {
        stroke-width: 6.402px;
      }

      .cls-3, .cls-5, .cls-6 {
        fill: #333;
      }

      .cls-11, .cls-12, .cls-10, .cls-13, .cls-14 {
        stroke-width: 0px;
      }

      .cls-4, .cls-7 {
        stroke-width: 6.048px;
      }

      .cls-5 {
        stroke-width: 4.956px;
      }

      .cls-6 {
        stroke-width: 5.13px;
      }

      .cls-12 {
        fill: #b3b3b3;
      }

      .cls-8, .cls-9 {
        stroke-width: 41.562px;
      }

      .cls-9 {
        stroke: #fff;
      }

      .cls-13 {
        fill: #3e5eb9;
        fill-rule: evenodd;
      }

      .cls-14 {
        fill: #b10c0c;
      }
    </style>
  </defs>
  <g id="background">
    <path id="sz" class="cls-13" d="M400,.1h2800c220,0,400,180,400,400v1600c0,220-180,400-400,400H400C180,2400.1,0,2220.1,0,2000.1V400.1C0,180.1,180,.1,400,.1Z"/>
  </g>
  <g id="country">
    <g id="sz-2" data-name="sz">
      <path class="cls-10" d="M0,450.1h3600v1500H0V450.1Z"/>
      <path class="cls-14" d="M0,600.1h3600v1200H0V600.1Z"/>
      <g>
        <g id="a">
          <path class="cls-4" d="M2957.1,925.78l-145.71,51.426,145.71,51.426,145.71-51.426-145.71-51.426Z"/>
          <path class="cls-7" d="M755.736,960.1h2105.508c10.292,0,18.636,7.675,18.636,17.142h0c0,9.467-8.344,17.142-18.636,17.142H755.736c-10.292,0-18.636-7.675-18.636-17.142h0c0-9.467,8.344-17.142,18.636-17.142Z"/>
          <path class="cls-7" d="M2828.64,994.36c8.562,0,17.154-8.574,17.154-17.142s-8.586-17.142-17.148-17.142M2811.48,994.36c8.562,0,17.154-8.574,17.154-17.142s-8.586-17.142-17.148-17.142M2794.32,994.36c8.562,0,17.154-8.574,17.154-17.142s-8.586-17.142-17.148-17.142"/>
        </g>
        <g id="a-2" data-name="a">
          <path class="cls-4" d="M2817.48,1028.68l-145.71,51.426,145.71,51.426,145.71-51.426-145.71-51.426Z"/>
          <path class="cls-7" d="M616.116,1063h2105.508c10.292,0,18.636,7.675,18.636,17.142h0c0,9.467-8.344,17.142-18.636,17.142H616.116c-10.292,0-18.636-7.675-18.636-17.142h0c0-9.467,8.344-17.142,18.636-17.142Z"/>
          <path class="cls-7" d="M2689.02,1097.26c8.562,0,17.154-8.574,17.154-17.142s-8.586-17.142-17.148-17.142M2671.86,1097.26c8.562,0,17.154-8.574,17.154-17.142s-8.586-17.142-17.148-17.142M2654.7,1097.26c8.562,0,17.154-8.574,17.154-17.142s-8.586-17.142-17.148-17.142"/>
        </g>
        <path class="cls-2" d="M384.216,1174.42h2863.512c13.997,0,25.344,11.512,25.344,25.713h0c0,14.201-11.347,25.713-25.344,25.713H384.216c-13.997,0-25.344-11.512-25.344-25.713h0c0-14.201,11.347-25.713,25.344-25.713Z"/>
      </g>
      <path class="cls-1" d="M2657.1,1200.1c-171.424,171.412-400.008,514.264-857.16,514.264-400.008,0-685.68-342.848-857.16-514.264,171.428-171.444,457.128-514.296,857.16-514.296,457.128,0,685.68,342.852,857.16,514.296Z"/>
      <path class="cls-11" d="M1740.12,864.7c45.608,51.292,7.524,71.976,55.8,75.34,50.908,3.74,22.048,54.204,64.872,55.96,29.94,1.308-2.988,120.904,25.828,160.372,29.36,41.144,53.948,12.056,54.464,41.776.508,30.744-79.904,27.644-81.312,122.34-2.36,54.576-67.86,58.068-70.988,93.188-3.888,33.028,129.044,51.568,127.268,81.136-1.824,29.48-143.532,24.864-149.7,58.484-3.16,30.2,194.676,54.948,210.588,142.28-29.52,9.652-113.516,18.74-176.996,18.788-399.94.288-685.68-342.88-857.1-514.296,171.428-171.44,457.128-514.296,857.16-514.296,0,0-118.732,108.492-59.824,178.892l-.06.036Z"/>
      <g id="d">
        <g id="c">
          <path id="b" class="cls-9" d="M1283.598,1154.362v-137.142M1366.698,1017.22v137.142M1449.858,1017.22v137.142"/>
          <path id="b-2" data-name="b" class="cls-9" d="M1283.598,1382.962v-137.142M1366.698,1245.82v137.142M1449.858,1245.82v137.142"/>
        </g>
        <g id="c-2" data-name="c">
          <path id="b-3" data-name="b" class="cls-9" d="M1532.958,1154.362v-137.142M1616.058,1017.22v137.142M1699.218,1017.22v137.142"/>
          <path id="b-4" data-name="b" class="cls-9" d="M1532.958,1382.962v-137.142M1616.058,1245.82v137.142M1699.218,1245.82v137.142"/>
        </g>
      </g>
      <g id="d-2" data-name="d">
        <g id="c-3" data-name="c">
          <path id="b-5" data-name="b" class="cls-8" d="M1912.158,1154.362v-137.142M1995.258,1017.22v137.142M2078.418,1017.22v137.142"/>
          <path id="b-6" data-name="b" class="cls-8" d="M1912.158,1382.962v-137.142M1995.258,1245.82v137.142M2078.418,1245.82v137.142"/>
        </g>
        <g id="c-4" data-name="c">
          <path id="b-7" data-name="b" class="cls-8" d="M2161.518,1154.362v-137.142M2244.618,1017.22v137.142M2327.778,1017.22v137.142"/>
          <path id="b-8" data-name="b" class="cls-8" d="M2161.518,1382.962v-137.142M2244.618,1245.82v137.142M2327.778,1245.82v137.142"/>
        </g>
      </g>
      <g>
        <path class="cls-6" d="M3068.1,1179.7c-25.968,44.976,19.928-14.96,131.912,60.336,20.752,13.988,38.884,50.936,38.884,76.556-5.268-3.524-9.18-11.364-14.98-16.46-8.124,8.14,7.756,45.464,10.08,63.1-17.508-9.796-15.824-14.436-21.64-26.476,1.16,14.556-3.004,54.64,3.96,70.08-13.8-3.944-12.88-15.048-20.084-17.28,4.9,17.472-4.272,36.488-1.84,56.132-8.06-7.98-16.652-14.232-20.4-17.456-.628,9.352-15.508,33.936-15.844,42.78-6.84-4.132-8.7-10.576-9.84-14.916-8.504,10.684-38.724,50.148-40.66,62.184-23.288-20.568-82.94-70.652-90.704-97.236-6.864,15.088-16.8,20.184-36.44,31.2-7.756-42.132-36.776-89.488-21.256-125.604-11,6.52-20.052,13.044-31.044,21.068,10.416-61.02,63.52-132.572,139.916-168.008h-.02Z"/>
        <path class="cls-12" d="M2971.26,1402.42c10.78-21.552,20.712-28.384,27.68-42.264,12.304-24.392,14.06-43.796,24.784-40.952,10.72,2.844,10.708,12.836-3.18,36.816-13.892,23.984-20.496,29.108-49.284,46.4ZM3044.16,1453.78c-1.388-16.412,3.372-23.264,2.508-33.828-1.48-18.596-9.084-31.356.804-32.264,9.888-.904,14.508,5.44,14.536,24.176.032,18.74-2.868,23.66-17.84,41.92l-.008-.004ZM3099.48,1485.94c-4.32-22.908-1.084-33.068-3.852-47.828-4.812-25.968-14.332-43.06-5.172-45.436s14.696,6.024,18.16,32.36c3.472,26.332,1.64,33.568-9.136,60.904h0ZM3157.02,1325.44c-13.512-10.256-21.396-10.944-30.108-17.532-15.348-11.56-23.112-23.94-28.052-17.796-4.936,6.144-1.432,12.864,14.652,23.532,16.08,10.668,21.528,11.508,43.512,11.796h-.004ZM3147.48,1401.46c-7.12-14.788-14.616-18.54-19.224-28.056-8.14-16.72-8.152-31.188-16.984-27.48-8.832,3.708-9.54,11.28-.096,27.468,9.44,16.184,14.388,19.116,36.304,28.068Z"/>
        <path class="cls-3" d="M484.696,1223.02c-1.452-13.096,1.352-14.664-6.708-24.54,11.732,4.908,12.176,17.952,26.44,8.696,5.236-2.712,7.52-2.8,1.156-17.348,14.872.692,63.576,17.392,71.376,17.776,20.48.944,57.864-21.512,83.812,6.1,24.908,25.176,16.592,51.304,16.592,86.172-10.008-4.796-5.184-7.16-15.804-19.628,7.96,30.476-.424,85.424-.424,117.744-4.088-7.792-3.488-4.412-7.484-12.48-10.62,29.5-23.348,35.572-23.348,70.44-3.832-13.672-.132-10.784-4.396-17.976-10.32,22.4-79.56,41.54-52.88,64.116-24.08-14.12-34.64-12.636-45.56-25.336-4.708,3.036-8.444,8.784-12.82,16.66-42.34-19.48-27.2-61.5-60.372-89.568-5.74,11.768-3.124,10.064-9.328,29.216-6.716-26.604-8.552-43.508-16.104-63.068-6.516,10.84-5.936,6.684-17.768,23.072-4.896-32.408-12.864-40.056-9.712-61.5-12.576,8.872-4.344,5.28-16.916,16.2,11.912-83.04,63.348-144.404,100.26-124.752l-.012.004Z"/>
        <path class="cls-12" d="M432.604,1358.56c10.912-26.736,20.744-35.132,27.796-52.344,12.448-30.252,14.476-54.44,24.932-50.748,10.46,3.688,10.292,16.148-3.7,45.868-13.992,29.732-20.54,36.032-49.028,57.216v.008ZM473.908,1425.46c4.376-23.968,11.276-32.7,14.112-48.136,5.036-27.144,2.228-47.36,11.948-46.292,9.72,1.064,11.916,11.312,5.448,38.312-6.468,27.004-10.932,33.396-31.512,56.116h.004ZM523.312,1471.96c1.232-23.24,6.68-32.308,7.496-47.28,1.476-26.328-3.592-45.172,5.676-45.28s12.572,9.36,9.732,35.716c-2.84,26.36-6.268,32.936-22.904,56.844h0ZM629.4,1319.98c-20.284-20.208-32.548-23.984-45.636-36.98-23.052-22.824-34.188-44.256-42.396-36.66-8.208,7.6-3.268,18.984,21,40.704,24.272,21.72,32.712,24.888,67.032,32.936ZM617.04,1398.1c-13.212-20.292-22.908-25.548-31.44-38.604-15.04-22.944-20.216-42.66-28.74-37.776-8.532,4.884-6.624,15.184,9.68,37.428,16.3,22.236,22.856,26.328,50.5,38.96v-.008Z"/>
        <path class="cls-5" d="M1522.8,777.1c-23.748,45.928,41.58-15.276,143.988,61.616,18.98,14.284,46.184,70.72,46.184,96.88-21.804-4.64-60.416-26.16-60.416-26.16,0,0,45.312,45.384,45.312,97.704-16.008-10.008-24.016-8.508-29.34-20.796,0,16.936,14.24,27.732,14.24,53.892-9.741-7.825-20.155-14.772-31.12-20.76,15.104,26.16-27.52,76.908-6.188,93.848-37.308-5.396-75.48-29.232-90.584-55.392-8.004,5.392-8.872,13.864-9.184,22.892,1.176.98-56.792-43.024-51.464-59.928-7.776,10.908-8.868,16.904-10.644,29.2-21.292-21-40.812-42-47.916-69.152-9.46,12.292-10.056,12.292-19.52,24.588-7.096-43.028-7.096-41.492,7.1-78.368-10.056,6.66-18.336,13.32-28.392,21.52,9.52-62.312,58.092-135.38,127.952-171.568l-.008-.016Z"/>
        <path class="cls-12" d="M1464.24,1001.5c3.8-31.648,12.072-43.572,14.544-63.952,4.412-35.844-.824-62.048,11.88-61.38,12.704.66,16.36,13.88,10.08,49.656-6.276,35.764-11.572,44.452-36.504,75.68v-.004ZM1530.54,1059.46c-2.572-26.7,2.36-38.068.72-55.272-2.82-30.264-12.168-50.764-1.096-52.648,11.068-1.884,16.668,8.268,17.86,38.824,1.196,30.56-1.764,38.7-17.488,69.096h.004ZM1634.04,1106.74c-11.256-23.108-20.928-29.996-28.192-44.868-12.836-26.136-15.52-47.48-25.416-43.616-9.9,3.872-9.356,14.912,4.944,40.496,14.296,25.584,20.76,30.804,48.664,47.988ZM1669.86,899.8c-28.668-15.092-43.392-15.28-61.864-24.98-32.532-17-51.468-36.208-58.188-25.636-6.728,10.572,2.248,21.084,35.788,36.54,33.54,15.456,43.84,16.188,84.268,14.076h-.004ZM1680.36,986.26c-20.872-17.364-33.216-19.92-46.68-31.092-23.72-19.6-35.52-38.856-43.444-31.048-7.92,7.804-2.628,18.112,22.264,36.58,24.896,18.468,33.408,20.76,67.86,25.56h0Z"/>
      </g>
    </g>
  </g>
</svg>