<?xml version="1.0" encoding="UTF-8"?>
<svg xmlns="http://www.w3.org/2000/svg" viewBox="0 0 3600.1 2401.738">
  <defs>
    <style>
      .cls-1 {
        fill: #ce1126;
      }

      .cls-1, .cls-2, .cls-3, .cls-4, .cls-5, .cls-6, .cls-7, .cls-8, .cls-9, .cls-10, .cls-11 {
        stroke-linecap: round;
        stroke-linejoin: round;
      }

      .cls-1, .cls-2, .cls-3, .cls-5, .cls-6, .cls-7, .cls-8, .cls-9, .cls-10, .cls-11 {
        stroke-width: .792px;
      }

      .cls-1, .cls-2, .cls-5, .cls-6, .cls-7, .cls-8, .cls-12, .cls-9, .cls-10, .cls-11 {
        stroke: #000;
      }

      .cls-2, .cls-13, .cls-4 {
        fill: #9e540a;
      }

      .cls-13, .cls-14, .cls-15, .cls-16, .cls-17, .cls-18 {
        stroke-width: 0px;
      }

      .cls-3 {
        stroke: #009e49;
      }

      .cls-3, .cls-19, .cls-9 {
        fill: none;
      }

      .cls-4 {
        stroke: #fcd116;
        stroke-width: 4.32px;
      }

      .cls-5 {
        fill: #f1b2dc;
      }

      .cls-6 {
        fill: #fcad56;
      }

      .cls-7, .cls-12 {
        fill: #fcd116;
      }

      .cls-8 {
        fill: #009e49;
      }

      .cls-14 {
        fill: #00247d;
      }

      .cls-14, .cls-17, .cls-18 {
        fill-rule: evenodd;
      }

      .cls-15, .cls-18 {
        fill: #eee;
      }

      .cls-19 {
        stroke: #fff;
        stroke-width: 20.16px;
      }

      .cls-19, .cls-12 {
        stroke-miterlimit: 10;
      }

      .cls-12 {
        stroke-width: 23.04px;
      }

      .cls-16, .cls-17 {
        fill: #cf1b2b;
      }

      .cls-10 {
        fill: #ffa1a1;
      }
    </style>
  </defs>
  <g id="background">
    <path id="gb" class="cls-14" d="M400,.1h2800c220,0,400,180,400,400v1600c0,220-180,400-400,400H400C180,2400.1,0,2220.1,0,2000.1V400.1C0,180.1,180,.1,400,.1Z"/>
  </g>
  <g id="country">
    <g id="tc">
      <g>
        <path id="b" class="cls-12" d="M3038.4,873.358v259.2c0,172.8-86.4,358.92-302.4,459.72-216-100.8-302.4-286.92-302.4-459.72v-259.2h604.8Z"/>
        <path id="b-2" data-name="b" class="cls-19" d="M3038.4,873.358v259.2c0,172.8-86.4,358.92-302.4,459.72-216-100.8-302.4-286.92-302.4-459.72v-259.2h604.8Z"/>
        <g>
          <path class="cls-6" d="M2626.92,1158.838c-7.92,13.32-21.24,16.2-31.68,11.88-10.8-4.32-20.52-29.52-31.32-43.2-10.44-13.32-13.32-7.56-20.52-15.48-6.84-7.56-17.64-13.32-34.56-21.24-9.36-4.32-19.08-8.28-25.56-24.84,2.52-6.84,9.36-12.6,14.76-14.76,5.4-1.8,9.72-9.72,10.44-16.56.72-6.48,6.48-13.68,14.4-19.08-3.6.72-11.16-.72-14.76-3.24-3.24-2.88-8.64-2.16-11.88.36-3.24,2.16-7.2,2.88-12.96,2.16,2.16-1.8,6.12-5.76,6.48-9.36s4.68-5.4,12.96-5.4c7.92,0,13.32-9.36,19.8-9.36-4.68,0-3.6-7.92-1.08-8.28-11.52-2.16-10.08-11.52-5.4-11.52-.36-1.44-1.8-2.88-7.2-4.68-5.04-1.8-2.52-6.48,1.44-9.36-3.6-7.2-.36-12.6,5.4-17.28-7.92-.36.72-11.52,2.88-17.64,2.16-5.76,3.24-6.48,5.76-2.88,2.88,3.24,9.36,10.8,16.92,12.96,7.2,2.16,11.52,6.12,12.96,12.24,1.44,6.48,4.32,9.72,12.24,12.6,8.28,2.52,19.44,9.36,18,24.84,6.48.36,11.16,2.16,15.12,5.4"/>
          <path class="cls-10" d="M2646.72,963.718c0,8.64,3.96,14.04,9,18.36,5.4,4.32,10.08,7.92,9,13.32-1.08,5.76,1.08,9.36,5.76,12.96,5.04,3.6,8.64,7.92,7.2,15.12-1.44,7.2-.36,11.52,2.52,16.92s7.92,9.72,5.76,18.36c-2.16,8.64-1.08,20.16,1.8,25.92,2.52,5.4,0,9.72-5.04,19.44-5.04,9.36-7.92,12.96-18.36,16.56-10.8,3.24-11.52,9.72-11.52,20.88,0,11.52-7.56,17.28-21.6,15.12-14.4,11.88-23.4-2.16-27-19.8-3.6-17.64-4.32-36.72-25.56-52.2-20.88-15.84-12.6-42.48,5.04-53.28,17.64-10.44,15.48-41.4,13.32-60.48-1.8-19.08,10.8-29.88,20.52-40.32,12.96,5.04,29.16,24.84,29.16,33.12Z"/>
          <path class="cls-5" d="M2616.12,1086.478c-3.96-9.36-8.28-18.72,2.16-38.88,10.8-20.52,3.96-36,.72-46.44-3.24-10.08-3.96-19.44,0-23.76,4.32-3.96,6.12-6.48,6.48-13.32.36-6.48,5.76-4.32,6.48-1.08.72,3.24,1.44,8.64-4.32,18.36-5.76,10.08,16.2,34.56,6.12,60.84-6.84,18.36,2.16,41.76,5.76,57.96,3.6,16.2,5.76,55.08-18,60.84,16.2-7.92,1.08-59.4-5.4-74.52Z"/>
          <path class="cls-9" d="M2509.2,1083.598c3.96.72,6.12-1.44,7.2-3.96s1.8-3.96,5.4-4.32c3.6,0,9.36-1.08,10.8-3.96,1.08-2.88,5.4-.36,9.36-7.56,3.6-7.56,6.12-16.2,15.84-19.44M2584.44,981.718c-3.6,0-14.04.36-18.36,9.72M2536.2,937.078c8.64,2.52,5.04,8.28,9.36,11.52,7.92,6.12.72,12.6,7.2,14.4s6.12,2.88,4.68,10.08c-2.16,8.28,5.76,8.64,2.88,14.04M2522.88,1015.558c5.04-4.68,17.64-8.28,20.52-13.32M2522.52,990.718c7.56-.36,17.64,2.52,19.08-.36M2521.44,982.438c3.6,0,11.16-2.52,12.6-7.56M2516.04,970.918c4.32,0,9.72-.36,15.12-4.32M2510.28,956.878c3.24-2.52,9,.36,14.4-3.24M2515.68,939.598c2.52,0,7.92-.72,7.92,2.52"/>
          <g>
            <g id="d">
              <path class="cls-2" d="M2860.2,1005.478s-25.2-21.24-46.08-35.64c-20.88-14.4-46.08-32.04-46.08-35.64,3.96-2.88,25.2,10.8,54.36,28.44,29.52,18,46.08,35.64,46.08,35.64l-8.28,7.2ZM2858.4,1019.878s-24.48-14.76-48.6-25.2c-25.2-10.44-63-10.44-66.96-14.04,0-3.6,43.92-5.76,75.24,6.84,32.04,14.76,48.6,25.2,48.6,25.2l-8.28,7.2ZM2858.04,1044.358s-26.64-12.24-52.56-18c-25.2-5.76-61.2-3.6-65.52-6.84,0-3.6,44.64-10.8,78.12,0,33.84,10.44,48.24,17.64,48.24,17.64l-8.28,7.2ZM2856.6,1069.198s-20.16-13.68-46.8-16.56c-25.2-2.52-58.68,16.56-63,12.96,0-3.6,29.16-24.84,65.52-21.24,35.64,3.6,52.56,17.64,52.56,17.64l-8.28,7.2ZM2864.88,990.718s-25.56-23.4-25.56-39.24c0-14.04,15.48-35.64,22.32-35.64-3.6,7.2-15.48,21.6-15.48,35.64,0,14.4,27,32.04,27,32.04l-8.28,7.2Z"/>
              <path class="cls-2" d="M2864.88,990.718s5.04-23.4,5.04-39.24c0-21.24-15.12-40.68-13.68-46.08,5.4,5.4,20.52,21.24,20.52,46.08,0,21.6-3.6,32.04-3.6,32.04l-8.28,7.2Z"/>
              <g>
                <path id="c" class="cls-4" d="M2871,983.158c0-6.84-2.52-12.96-6.84-17.64-5.76-6.84-14.4-9-23.4-7.56-10.8,1.8-19.44,8.28-24.84,18.36-7.2,13.32-7.92,27.72-8.28,41.76,0,48.6,1.8,68.4,3.24,116.28.36,14.04,2.88,42.84-3.6,65.52-2.52,9.72-5.4,18.72-9.72,28.08,2.88-11.88,4.32-18,5.76-27,3.96-23.4,2.88-45.36,2.16-66.96-1.44-44.28-3.96-66.96-5.4-120.6-.36-16.2,1.08-28.44,8.64-41.4,7.92-13.32,21.6-23.04,37.08-23.04,6.48,0,11.88,1.08,17.28,4.32,10.8,5.76,15.84,17.64,15.84,29.52l-7.92.36Z"/>
                <path id="c-2" data-name="c" class="cls-13" d="M2871,983.158c0-6.84-2.52-12.96-6.84-17.64-5.76-6.84-14.4-9-23.4-7.56-10.8,1.8-19.44,8.28-24.84,18.36-7.2,13.32-7.92,27.72-8.28,41.76,0,48.6,1.8,68.4,3.24,116.28.36,14.04,2.88,42.84-3.6,65.52-2.52,9.72-5.4,18.72-9.72,28.08,2.88-11.88,4.32-18,5.76-27,3.96-23.4,2.88-45.36,2.16-66.96-1.44-44.28-3.96-66.96-5.4-120.6-.36-16.2,1.08-28.44,8.64-41.4,7.92-13.32,21.6-23.04,37.08-23.04,6.48,0,11.88,1.08,17.28,4.32,10.8,5.76,15.84,17.64,15.84,29.52l-7.92.36Z"/>
              </g>
              <path class="cls-2" d="M2873.16,1156.678s-10.08,18-17.64,30.96-13.68,15.84-19.44,11.88c-5.4-3.96-.72-14.4,3.6-19.44s28.44-28.44,28.44-28.44l5.04,5.04Z"/>
              <path class="cls-2" d="M2875.68,1158.118s-3.96,20.52-7.2,35.28c-2.88,14.76-7.92,19.8-14.04,18-6.48-1.44-5.4-13.32-2.88-19.44,2.52-6.12,17.64-37.08,17.64-37.08l6.48,3.24Z"/>
              <path class="cls-2" d="M2880,1158.838v36c0,15.12-3.6,21.24-10.44,20.88-6.48-.36-7.92-11.88-6.48-18.72,1.08-6.48,10.08-39.96,10.08-39.96l6.84,1.8Z"/>
            </g>
            <g id="d-2" data-name="d">
              <path class="cls-2" d="M2899.8,1005.478s25.2-21.24,46.08-35.64,46.08-32.04,46.08-35.64c-3.96-2.88-25.2,10.8-54.36,28.44-29.52,18-46.08,35.64-46.08,35.64l8.28,7.2ZM2901.6,1019.878s24.48-14.76,48.6-25.2c25.2-10.44,63-10.44,66.96-14.04,0-3.6-43.92-5.76-75.24,6.84-32.04,14.76-48.6,25.2-48.6,25.2l8.28,7.2ZM2901.96,1044.358s26.64-12.24,52.56-18c25.2-5.76,61.2-3.6,65.52-6.84,0-3.6-44.64-10.8-78.12,0-33.84,10.44-48.24,17.64-48.24,17.64l8.28,7.2ZM2903.4,1069.198s20.16-13.68,46.8-16.56c25.2-2.52,58.68,16.56,63,12.96,0-3.6-29.16-24.84-65.52-21.24-35.64,3.6-52.56,17.64-52.56,17.64l8.28,7.2ZM2895.12,990.718s25.56-23.4,25.56-39.24c0-14.04-15.48-35.64-22.32-35.64,3.6,7.2,15.48,21.6,15.48,35.64,0,14.4-27,32.04-27,32.04l8.28,7.2Z"/>
              <path class="cls-2" d="M2895.12,990.718s-5.04-23.4-5.04-39.24c0-21.24,15.12-40.68,13.68-46.08-5.4,5.4-20.52,21.24-20.52,46.08,0,21.6,3.6,32.04,3.6,32.04l8.28,7.2Z"/>
              <g>
                <path id="c-3" data-name="c" class="cls-4" d="M2889,983.158c0-6.84,2.52-12.96,6.84-17.64,5.76-6.84,14.4-9,23.4-7.56,10.8,1.8,19.44,8.28,24.84,18.36,7.2,13.32,7.92,27.72,8.28,41.76,0,48.6-1.8,68.4-3.24,116.28-.36,14.04-2.88,42.84,3.6,65.52,2.52,9.72,5.4,18.72,9.72,28.08-2.88-11.88-4.32-18-5.76-27-3.96-23.4-2.88-45.36-2.16-66.96,1.44-44.28,3.96-66.96,5.4-120.6.36-16.2-1.08-28.44-8.64-41.4-7.92-13.32-21.6-23.04-37.08-23.04-6.48,0-11.88,1.08-17.28,4.32-10.8,5.76-15.84,17.64-15.84,29.52l7.92.36Z"/>
                <path id="c-4" data-name="c" class="cls-13" d="M2889,983.158c0-6.84,2.52-12.96,6.84-17.64,5.76-6.84,14.4-9,23.4-7.56,10.8,1.8,19.44,8.28,24.84,18.36,7.2,13.32,7.92,27.72,8.28,41.76,0,48.6-1.8,68.4-3.24,116.28-.36,14.04-2.88,42.84,3.6,65.52,2.52,9.72,5.4,18.72,9.72,28.08-2.88-11.88-4.32-18-5.76-27-3.96-23.4-2.88-45.36-2.16-66.96,1.44-44.28,3.96-66.96,5.4-120.6.36-16.2-1.08-28.44-8.64-41.4-7.92-13.32-21.6-23.04-37.08-23.04-6.48,0-11.88,1.08-17.28,4.32-10.8,5.76-15.84,17.64-15.84,29.52l7.92.36Z"/>
              </g>
              <path class="cls-2" d="M2886.84,1156.678s10.08,18,17.64,30.96c7.56,12.96,13.68,15.84,19.44,11.88,5.4-3.96.72-14.4-3.6-19.44-4.32-5.04-28.44-28.44-28.44-28.44l-5.04,5.04Z"/>
              <path class="cls-2" d="M2884.32,1158.118s3.96,20.52,7.2,35.28c2.88,14.76,7.92,19.8,14.04,18,6.48-1.44,5.4-13.32,2.88-19.44-2.52-6.12-17.64-37.08-17.64-37.08l-6.48,3.24Z"/>
              <path class="cls-2" d="M2880,1158.838v36c0,15.12,3.6,21.24,10.44,20.88,6.48-.36,7.92-11.88,6.48-18.72-1.08-6.48-10.08-39.96-10.08-39.96l-6.84,1.8Z"/>
            </g>
            <g id="e">
              <path class="cls-2" d="M2880,1158.478c-19.08-.36-20.88-7.2-20.88-7.2,0,0-2.52-8.64-2.88-14.04-.36-.72-5.4-11.52-3.96-16.2-1.8-4.32-6.12-14.76-2.16-16.56-1.8-5.04-4.68-10.8-5.04-16.2-1.44-3.96-5.04-12.6-2.16-15.48,0,0-6.84-14.4-3.6-18,0,0-3.24-14.04,0-17.64,0,0,0-14.4,3.6-18,0,0,0-14.04,3.24-17.64,0,.72,10.08-19.8,33.84-19.8l-.36,30.6h.36v146.16Z"/>
              <path class="cls-9" d="M2880,1079.998c-30.6-.36-37.08-7.2-37.08-7.2M2880,1061.998c-30.6,0-40.68-7.2-40.68-7.2M2880,1044.358c-30.6-.36-40.68-7.2-40.68-7.2M2880,1026.358c-30.6-.36-37.08-7.2-37.08-7.2M2879.64,1012.318c.36,0-23.04,0-26.64-3.6l-6.84-6.84M2880,1144.078c-9,0-19.08-1.44-23.76-6.84M2880,1129.678c-16.92,0-27-6.84-27-6.84,0,0-.36-.72-.72-1.8M2880,1112.038c-22.32-.36-28.44-5.04-29.88-7.56M2880,1097.638c-30.6,0-33.84-7.2-33.84-7.2l-1.08-2.16"/>
            </g>
            <g id="e-2" data-name="e">
              <path class="cls-2" d="M2880,1158.478c19.08-.36,20.88-7.2,20.88-7.2,0,0,2.52-8.64,2.88-14.04.36-.72,5.4-11.52,3.96-16.2,1.8-4.32,6.12-14.76,2.16-16.56,1.8-5.04,4.68-10.8,5.04-16.2,1.44-3.96,5.04-12.6,2.16-15.48,0,0,6.84-14.4,3.6-18,0,0,3.24-14.04,0-17.64,0,0,0-14.4-3.6-18,0,0,0-14.04-3.24-17.64,0,.72-10.08-19.8-33.84-19.8l.36,30.6h-.36v146.16Z"/>
              <path class="cls-9" d="M2880,1079.998c30.6-.36,37.08-7.2,37.08-7.2M2880,1061.998c30.6,0,40.68-7.2,40.68-7.2M2880,1044.358c30.6-.36,40.68-7.2,40.68-7.2M2880,1026.358c30.6-.36,37.08-7.2,37.08-7.2M2880.36,1012.318c-.36,0,23.04,0,26.64-3.6l6.84-6.84M2880,1144.078c9,0,19.08-1.44,23.76-6.84M2880,1129.678c16.92,0,27-6.84,27-6.84,0,0,.36-.72.72-1.8M2880,1112.038c22.32-.36,28.44-5.04,29.88-7.56M2880,1097.638c30.6,0,33.84-7.2,33.84-7.2l1.08-2.16"/>
            </g>
          </g>
          <g id="f">
            <path class="cls-8" d="M2736,1489.678c-15.48,14.4-45.36,5.04-54.72-1.44-9.72,3.24-35.64-6.84-42.48-18-18.72,2.52-25.2-24.12-21.96-30.96,5.04-10.08-3.96-16.56,2.52-23.4,9-8.64-5.04-16.92,3.6-22.68,8.64-6.12-2.16-16.2,6.48-22.68,9-6.84-4.68-16.2,4.68-20.88s-1.08-16.92,6.84-21.6-4.68-16.56,6.12-21.96c10.44-5.4,1.08-14.76,9.36-18.72,9-4.68.72-14.4,9-17.64,9.36-3.96,2.52-14.4,10.44-17.28,6.84-2.52,2.52-9,6.84-14.76h53.28"/>
            <path class="cls-9" d="M2700.36,1239.838c-7.2,7.2,1.44,12.6-5.76,21.24-7.56,9-.72,13.68-6.84,21.6s2.88,11.88-3.96,20.88c-6.84,8.64,1.44,14.04-6.12,21.24-7.2,7.56,1.44,14.04-6.12,21.96-7.2,8.28,1.44,13.68-5.76,20.88-7.56,7.56,1.08,15.48-6.12,22.68-7.2,7.56,1.44,16.92-6.84,25.56-7.92,8.64,1.44,15.48-5.04,21.96-6.84,6.84-.72,13.68-5.4,18.36s-5.4,11.16-3.6,14.04M2714.4,1242.358c-6.48,9,3.6,12.96-2.52,20.16-6.12,7.56,2.52,10.08-2.16,18.72-4.68,8.64,3.6,10.8-2.52,19.44-6.12,8.64,3.24,15.48-3.24,24.12-6.84,8.64,3.24,13.32-2.88,21.96-5.76,9,2.88,13.68-2.52,20.16-5.4,6.84,3.96,13.32-2.88,21.6-6.48,7.92,2.88,14.04-2.52,21.24-5.4,7.56,2.16,15.48-2.52,21.6-4.68,5.76,3.24,14.76-3.6,22.68-6.48,7.92,1.44,13.32-2.52,18.72-3.96,5.4-7.2,13.32-3.24,15.48"/>
          </g>
          <g id="f-2" data-name="f">
            <path class="cls-8" d="M2736,1489.678c15.48,14.4,45.36,5.04,54.72-1.44,9.72,3.24,35.64-6.84,42.48-18,18.72,2.52,25.2-24.12,21.96-30.96-5.04-10.08,3.96-16.56-2.52-23.4-9-8.64,5.04-16.92-3.6-22.68-8.64-6.12,2.16-16.2-6.48-22.68-9-6.84,4.68-16.2-4.68-20.88s1.08-16.92-6.84-21.6,4.68-16.56-6.12-21.96c-10.44-5.4-1.08-14.76-9.36-18.72-9-4.68-.72-14.4-9-17.64-9.36-3.96-2.52-14.4-10.44-17.28-6.84-2.52-2.52-9-6.84-14.76h-53.28"/>
            <path class="cls-9" d="M2771.64,1239.838c7.2,7.2-1.44,12.6,5.76,21.24,7.56,9,.72,13.68,6.84,21.6,6.12,7.92-2.88,11.88,3.96,20.88,6.84,8.64-1.44,14.04,6.12,21.24,7.2,7.56-1.44,14.04,6.12,21.96,7.2,8.28-1.44,13.68,5.76,20.88,7.56,7.56-1.08,15.48,6.12,22.68,7.2,7.56-1.44,16.92,6.84,25.56,7.92,8.64-1.44,15.48,5.04,21.96,6.84,6.84.72,13.68,5.4,18.36s5.4,11.16,3.6,14.04M2757.6,1242.358c6.48,9-3.6,12.96,2.52,20.16,6.12,7.56-2.52,10.08,2.16,18.72,4.68,8.64-3.6,10.8,2.52,19.44,6.12,8.64-3.24,15.48,3.24,24.12,6.84,8.64-3.24,13.32,2.88,21.96,5.76,9-2.88,13.68,2.52,20.16,5.4,6.84-3.96,13.32,2.88,21.6,6.48,7.92-2.88,14.04,2.52,21.24,5.4,7.56-2.16,15.48,2.52,21.6,4.68,5.76-3.24,14.76,3.6,22.68,6.48,7.92-1.44,13.32,2.52,18.72,3.96,5.4,7.2,13.32,3.24,15.48"/>
          </g>
          <path class="cls-3" d="M2736,1489.678v-252"/>
          <path class="cls-9" d="M2736,1250.638c-3.24,14.04,4.68,26.28,0,38.16-4.68,11.52,3.24,16.2.72,25.56-2.88,9.36,3.24,16.2-.72,26.28s5.4,18,0,31.32c-5.4,12.96,3.6,16.2,0,29.52-3.96,15.12,6.84,23.04,0,33.84-6.84,10.8,6.12,13.32.72,25.56-5.4,11.88,3.24,16.56-.72,28.8"/>
          <path class="cls-7" d="M2741.4,1295.998c-1.8,3.96,5.4,13.32,1.44,20.52-4.32,6.84,2.16,17.64-2.16,26.28s6.84,19.44,2.52,29.52c-4.68,10.08,2.16,22.68,0,32.04-1.8,9.36,4.68,27.36,0,33.84-4.68,6.84,4.68,8.64-.72,25.2-5.4,16.56-9,2.52-5.76-2.52,6.84-11.16-7.56-14.76-.72-25.56,6.84-10.8-3.96-18.72,0-33.84,3.6-13.32-5.4-16.56,0-29.52,5.4-13.32-3.96-21.24,0-31.32s-2.16-16.92.72-26.28c2.52-9.36-5.4-14.04-.72-25.56,3.6-11.52,7.2,3.24,5.4,7.2ZM2711.16,1307.518c-2.52,4.32,4.32,12.6-1.8,20.88-4.32,5.76,2.88,12.6-3.24,20.88-3.96,5.76,3.96,12.96-1.44,21.24-3.6,4.68,2.52,13.68-1.8,20.52-4.32,7.2,2.16,12.96-5.4,22.32-4.32,5.04,3.24,17.64-1.44,21.6-4.68,3.96-.36,19.44-3.6,21.6-2.88,2.52,0,13.68-7.92,16.2,3.96-5.4-3.96-10.8,2.52-18.72,6.84-7.92-1.08-16.92,3.6-22.68,4.68-6.12-2.88-14.04,2.52-21.6,5.4-7.2-3.96-13.32,2.52-21.24,6.84-8.28-2.52-14.76,2.88-21.6,5.4-6.48-3.24-11.16,2.52-20.16,6.12-8.64-3.96-13.32,2.88-21.96,6.48-8.64-2.88-15.48,3.24-24.12,6.12-8.64-2.16-10.8,2.52-19.44,8.64,3.24,4.32,21.96,1.44,26.28ZM2693.16,1284.118c-3.6,5.76,1.44,12.6-3.96,19.8-5.4,7.56,0,16.92-5.4,23.04-5.4,5.76,1.44,17.28-5.4,21.96-6.84,4.68-2.52,18.72-7.92,23.4-5.4,4.68,0,18-6.12,24.84s-3.24,20.88-6.84,24.12c-3.24,3.24,4.68,10.08-1.08,14.76-6.12,4.68-6.12,14.04-14.04,20.16,4.68-4.68-1.44-11.52,5.4-18.36,6.48-6.48-2.88-13.32,5.04-21.96,8.28-8.64-.36-18,6.84-25.56,7.2-7.2-1.44-15.12,6.12-22.68,7.2-7.2-1.44-12.6,5.76-20.88,7.56-7.92-1.08-14.4,6.12-21.96,7.56-7.2-.72-12.6,6.12-21.24,6.84-9-2.16-12.96,3.96-20.88,2.88-3.6,2.88-6.84,2.88-9.72,4.32-11.16,4.32,8.28,2.52,11.16Z"/>
          <path class="cls-1" d="M2685.96,1245.958c0-75.6,10.44-101.88,50.04-101.88s50.04,26.28,50.04,101.88h-100.08Z"/>
          <path class="cls-11" d="M2685.96,1245.958c0-75.6,10.44-101.88,50.04-101.88-18,0-29.16,14.04-32.04,23.4-3.24,9.36-1.44,8.64,2.52,5.04,3.96-3.6,2.16,4.32-1.44,8.64-3.24,4.32-6.48,16.92-1.8,12.96,4.68-4.32,8.28.36,3.24,7.56-5.04,6.84-9.36,23.4-4.32,17.64,5.04-5.76,6.12,3.6,2.88,8.28-2.88,4.68-2.52,9,0,6.84,2.88-2.16,2.52,7.56,0,11.52h-19.08ZM2754.72,1244.518c0-11.16.36-37.44-5.76-46.08-4.32-6.84-4.32-14.04.72-6.12s7.56,3.96,3.96-3.96c-4.32-10.08-10.08-21.24-8.64-23.4,1.8-2.52,2.88-1.44,6.48,3.96s4.32-2.52.36-7.92c-3.96-5.04-3.6-6.12,4.68-2.52,14.76,6.12,21.96,23.76,21.96,83.16l-23.76,2.88Z"/>
          <path class="cls-1" d="M2736,1256.758c-15.84,0-33.12-2.52-44.64-7.2-13.68-5.4-14.4-10.08-9.72-15.84,3.6-4.32,10.8-1.8,18,1.44,6.84,2.88,26.28,5.04,36.36,5.04s29.52-2.16,36.36-5.4c7.2-2.88,14.4-5.4,18-1.08,4.68,5.76,3.96,10.44-9.72,15.84-11.52,4.68-28.8,7.2-44.64,7.2Z"/>
        </g>
      </g>
    </g>
    <g id="mini-gb">
      <path class="cls-14" d="M1600,.1v1200H0V400.1C0,180.1,180,.1,400,.1h1200Z"/>
      <path id="Path" class="cls-18" d="M1534.9.1h65.1v255.8l-545.5,354.3,545.5,354.2v235.7h-96l-679-440.9-679,440.9H0v-203.2l595.5-386.7L31.6,243.9C65.5,164.1,124.5,97.6,198.7,54.3l626.3,406.7L1534.9.1Z"/>
      <path id="Path-2" class="cls-17" d="M0,1189.3v-119.2l708.2-460L60,189.3c17.8-28.7,39.2-54.9,63.4-78.2l676.6,439.4L1600,31.1v119.3l-708.2,459.7,708.2,460v119.2l-800-519.5L0,1189.3Z"/>
      <polygon id="Shape" class="cls-15" points="1000 400.1 1600 400.1 1600 800.1 1000 800.1 1000 1200.1 600 1200.1 600 800.1 0 800.1 0 400.1 600 400.1 600 .1 1000 .1 1000 400.1"/>
      <polygon id="Shape-2" class="cls-16" points="900 500.1 900 .1 700 .1 700 500.1 0 500.1 0 700.1 700 700.1 700 1200.1 900 1200.1 900 700.1 1600 700.1 1600 500.1 900 500.1"/>
    </g>
  </g>
</svg>