<?xml version="1.0" encoding="UTF-8"?>
<svg xmlns="http://www.w3.org/2000/svg" viewBox="0 0 3600.818 2401.738">
  <defs>
    <style>
      .cls-1 {
        fill: #002495;
      }

      .cls-1, .cls-2, .cls-3 {
        fill-rule: evenodd;
      }

      .cls-1, .cls-2, .cls-3, .cls-4 {
        stroke-width: 0px;
      }

      .cls-2 {
        fill: #ed2939;
      }

      .cls-3 {
        fill: #fff;
      }

      .cls-4 {
        fill: #eee;
      }
    </style>
  </defs>
  <g id="background">
    <path id="tf" class="cls-1" d="M400,.1h2800c220,0,400,180,400,400v1600c0,220-180,400-400,400H400C180,2400.1,0,2220.1,0,2000.1V400.1C0,180.1,180,.1,400,.1Z"/>
  </g>
  <g id="country">
    <g id="tf-2" data-name="tf">
      <g>
        <path class="cls-3" d="M2129.982,1097.956l77.25,123h219.75v429l-165-258-222,354h138l20.628-39h138.186l159.186,255,159.192-255h138.18l20.628,39h138l-222-354-165,258v-237h99l73.5-117h-172.5v-75h219.75l77.25-123h-732ZM2263.05,1540.156l53.844,83.712-95.838.534,41.994-84.24v-.006ZM2726.79,1548.67l43.062,75.198-87.33-.534,44.274-74.664h-.006Z"/>
        <path class="cls-3" d="M2763.654,1840.798l28.404,89.064,93.48-.51-75.924,54.54,29.37,88.752-75.33-55.356-75.33,55.356,29.364-88.752-75.924-54.54,93.48.51,28.41-89.064Z"/>
        <path class="cls-3" d="M2492.97,2047.498l28.404,89.064,93.48-.51-75.924,54.54,29.37,88.752-75.33-55.356-75.33,55.356,29.364-88.752-75.924-54.54,93.48.51,28.41-89.064Z"/>
        <path class="cls-3" d="M2229.714,1841.164l-28.404,89.064-93.48-.51,75.924,54.54-29.37,88.752,75.33-55.356,75.33,55.356-29.364-88.752,75.924-54.54-93.48.51-28.41-89.064Z"/>
        <path class="cls-3" d="M2991.102,1234.228l28.404,89.064,93.48-.51-75.924,54.54,29.37,88.752-75.33-55.356-75.33,55.356,29.364-88.752-75.924-54.54,93.48.51,28.41-89.064Z"/>
        <path class="cls-3" d="M2005.194,1232.464l28.404,89.064,93.48-.51-75.924,54.54,29.37,88.752-75.33-55.356-75.33,55.356,29.364-88.752-75.924-54.54,93.48.51,28.41-89.064Z"/>
      </g>
      <g>
        <path class="cls-1" d="M1600,.1v1200H0V400.1C0,180.1,180,.1,400,.1h1200Z"/>
        <path class="cls-4" d="M528.882.1h1057.764v1186.931H528.882V.1Z"/>
        <path class="cls-2" d="M1057.764.1h528.882v1186.931h-528.882V.1Z"/>
        <polygon class="cls-4" points="1601.34 .1 1563.51 .1 1563.51 1163.894 0 1163.894 0 1201.724 1601.34 1201.724 1601.34 .1"/>
      </g>
    </g>
  </g>
</svg>