<?xml version="1.0" encoding="UTF-8"?>
<svg xmlns="http://www.w3.org/2000/svg" viewBox="0 0 3600.818 2401.738">
  <defs>
    <style>
      .cls-1 {
        fill: #f8c300;
      }

      .cls-1, .cls-2, .cls-3, .cls-4, .cls-5 {
        stroke-width: 0px;
      }

      .cls-1, .cls-4, .cls-5 {
        fill-rule: evenodd;
      }

      .cls-2 {
        fill: #060;
      }

      .cls-6 {
        fill: none;
        stroke: #f8c300;
        stroke-miterlimit: 8;
        stroke-width: 54.712px;
      }

      .cls-3, .cls-5 {
        fill: #eee;
      }

      .cls-4 {
        fill: #c00;
      }
    </style>
  </defs>
  <g id="background">
    <path id="tj" class="cls-4" d="M400,.1h2800c220,0,400,180,400,400v1600c0,220-180,400-400,400H400C180,2400.1,0,2220.1,0,2000.1V400.1C0,180.1,180,.1,400,.1Z"/>
  </g>
  <g id="country">
    <g id="tj-2" data-name="tj">
      <path class="cls-2" d="M3600,2000.1v-400H0v400C0,2220.1,180,2400.1,400,2400.1h2800c220,0,400-180,400-400Z"/>
      <path class="cls-3" d="M0,600.1h3600v1200H0V600.1Z"/>
      <g>
        <path class="cls-1" d="M1719.718,797.64h61.331l18.951-58.103,18.951,58.103h61.331l-49.618,35.907,18.955,58.103-49.618-35.911-49.618,35.911,18.955-58.103-49.618-35.907ZM1478.873,861.02h61.331l18.951-58.103,18.951,58.103h61.331l-49.618,35.907,18.955,58.103-49.618-35.911-49.618,35.911,18.955-58.103-49.618-35.907ZM1960.563,861.02h61.331l18.951-58.103,18.951,58.103h61.331l-49.618,35.907,18.955,58.103-49.618-35.911-49.618,35.911,18.955-58.103-49.618-35.907ZM1305.634,1035.873h61.331l18.951-59.717,18.951,59.717h61.331l-49.618,36.904,18.955,59.717-49.618-36.908-49.618,36.908,18.955-59.717-49.618-36.904ZM2133.803,1035.873h61.331l18.951-59.717,18.951,59.717h61.331l-49.618,36.904,18.955,59.717-49.618-36.908-49.618,36.908,18.955-59.717-49.618-36.904ZM1242.254,1275.104h61.331l18.951-58.103,18.951,58.103h61.331l-49.618,35.907,18.955,58.103-49.618-35.911-49.618,35.911,18.955-58.103-49.618-35.907ZM2197.183,1275.104h61.331l18.951-58.103,18.951,58.103h61.331l-49.618,35.907,18.955,58.103-49.618-35.911-49.618,35.911,18.955-58.103-49.618-35.907ZM1703.746,1168.604c11.928-20.506,38.227-27.461,58.741-15.541,12.819,7.452,20.889,20.989,21.346,35.81v171.79h32.307v-171.79c.727-23.708,20.544-42.338,44.26-41.607,14.824.45,28.367,8.517,35.823,21.338,17.632-53.134-11.164-110.489-64.318-128.113-53.151-17.62-110.531,11.163-128.159,64.293-6.874,20.718-6.874,43.102,0,63.82"/>
        <path class="cls-5" d="M1728.169,1124.851c28.373-5.945,57.287,7.335,71.831,32.996,14.548-25.661,43.458-38.941,71.831-32.996-5.451-40.648-42.025-69.072-81.697-63.486-32.214,4.534-57.541,30.482-61.965,63.486"/>
        <path class="cls-1" d="M1784.062,1288.832c-6.435,72.528-69.718,126.042-141.351,119.527-29.036-2.663-56.324-15.05-77.442-35.155-27.668,70.318-106.399,104.616-175.851,76.601-10.237-4.13-19.928-9.503-28.855-15.997,12.507,126.393,199.627,100.584,213.566-22.306,58.787,104.493,188.049,74.565,225.87-53.434l-15.938-69.237Z"/>
        <path class="cls-1" d="M1815.883,1288.832c6.431,72.528,69.718,126.042,141.351,119.527,29.036-2.665,56.322-15.052,77.442-35.155,27.667,70.318,106.394,104.616,175.846,76.601,10.238-4.131,19.93-9.504,28.859-15.997-12.507,126.393-199.627,100.589-213.57-22.306-58.783,104.493-188.045,74.565-225.87-53.434l15.942-69.237ZM1660.563,1512.713c-26.704,58.031-80.075,67.999-126.761,21.156,0,0,18.765-13.348,38.856-17.028-3.765-16.141,3.959-38.468,14.848-50.544,11.417,7.855,27.351,23.603,31.407,41.899,28.141-3.668,41.649,4.521,41.649,4.521v-.004ZM1862.772,1505.842c-34.884,51.283-87.871,52.339-125.442.093,0,0,20.184-9.79,40.116-10.116-1.077-16.044,9.887-36.182,22.284-46.006,9.756,9.334,22.618,26.932,23.637,45.085,27.685.963,39.406,10.948,39.406,10.948v-.004Z"/>
        <path class="cls-1" d="M2065.061,1532.775c-42.769,44.92-95.218,37.335-123.786-20.328,0,0,21.507-6.376,41.231-3.452,1.547-16.006,15.646-34.086,29.472-41.763,8.108,10.796,17.937,30.258,15.98,48.33,27.165,5.459,37.103,17.218,37.103,17.218v-.004Z"/>
        <path class="cls-6" d="M1468.31,1641.649c216.435-67.606,446.945-67.606,663.38,0"/>
      </g>
    </g>
  </g>
</svg>