<?xml version="1.0" encoding="UTF-8"?>
<svg xmlns="http://www.w3.org/2000/svg" viewBox="0 0 3600.818 2401.738">
  <defs>
    <style>
      .cls-1 {
        fill: #ffd100;
      }

      .cls-1, .cls-2, .cls-3 {
        fill-rule: evenodd;
        stroke-width: 0px;
      }

      .cls-2 {
        fill: #00247d;
      }

      .cls-3 {
        fill: #fff;
      }
    </style>
  </defs>
  <g id="background">
    <path id="tk" class="cls-2" d="M400,.1h2800c220,0,400,180,400,400v1600c0,220-180,400-400,400H400C180,2400.1,0,2220.1,0,2000.1V400.1C0,180.1,180,.1,400,.1Z"/>
  </g>
  <g id="country">
    <g id="tk-2" data-name="tk">
      <g>
        <path class="cls-1" d="M661.548,1852.492c-35.769-.298,336.324-198.228,647.756-451.752,408.163-332.271,1287.244-864.257,1545.693-950.701,27.006-9.035-55.407,45.998-66.099,63.827-275.939,326.437-55.705,942.433,289.144,1252.09,103.681,79.273,98.388,83.437,290.621,91.201v17.943l-2707.114-22.608h0ZM637.818,1887.776s-26.274,18.767-26.198,32.745c.086,15.515,29.472,36.022,29.472,36.022l2672.113,29.472,49.12-32.745-68.767-42.573-2655.739-22.921Z"/>
        <path class="cls-3" d="M583.099,1571.077h79.891l24.687-76.259,24.687,76.259h79.891l-64.632,47.13,24.687,76.259-64.632-47.133-64.632,47.133,24.687-76.259-64.632-47.13ZM180.634,914.914h70.206l21.695-66.575,21.695,66.575h70.206l-56.798,41.147,21.695,66.575-56.798-41.147-56.798,41.147,21.695-66.575-56.798-41.147ZM595.775,496.604h70.206l21.695-66.575,21.695,66.575h70.206l-56.798,41.146,21.695,66.575-56.798-41.146-56.798,41.146,21.695-66.575-56.798-41.147ZM969.718,810.907l56.893.003,17.579-54.472,17.579,54.472,56.893-.003-46.027,33.664,17.582,54.472-46.027-33.664-46.027,33.664,17.582-54.472-46.027-33.664Z"/>
      </g>
    </g>
  </g>
</svg>