<?xml version="1.0" encoding="UTF-8"?>
<svg xmlns="http://www.w3.org/2000/svg" viewBox="0 0 3600.818 2401.738">
  <defs>
    <style>
      .cls-1 {
        fill: #ffc726;
      }

      .cls-1, .cls-2, .cls-3, .cls-4 {
        fill-rule: evenodd;
        stroke-width: 0px;
      }

      .cls-2 {
        fill: #141414;
      }

      .cls-3 {
        fill: #fff;
      }

      .cls-4 {
        fill: #dc241f;
      }
    </style>
  </defs>
  <g id="background">
    <path id="tl" class="cls-4" d="M400,.1h2800c220,0,400,180,400,400v1600c0,220-180,400-400,400H400C180,2400.1,0,2220.1,0,2000.1V400.1C0,180.1,180,.1,400,.1Z"/>
  </g>
  <g id="country">
    <g id="tl-2" data-name="tl">
      <path id="Path" class="cls-1" d="M0,2000.339V399.861c.069-118.044,51.271-224.129,132.657-297.302l1767.343,1097.541L132.657,2297.641C51.271,2224.467.069,2118.383,0,2000.339Z"/>
      <path id="Path-2" data-name="Path" class="cls-2" d="M0,2000.339V399.861c.069-118.044,51.271-224.129,132.657-297.302l1167.343,1097.541L132.657,2297.641C51.271,2224.467.069,2118.383,0,2000.339Z"/>
      <path class="cls-3" d="M114.431,1234.262l214.979-95.712-24.599-234.035,157.461,174.882,214.979-95.716-117.662,203.797,157.464,174.878-230.182-48.928-117.662,203.797-24.596-234.035-230.182-48.927Z"/>
    </g>
  </g>
</svg>