<?xml version="1.0" encoding="UTF-8"?>
<svg xmlns="http://www.w3.org/2000/svg" xmlns:xlink="http://www.w3.org/1999/xlink" viewBox="0 0 3600.818 2401.738">
  <defs>
    <style>
      .cls-1, .cls-2, .cls-3, .cls-4, .cls-5, .cls-6, .cls-7, .cls-8, .cls-9, .cls-10, .cls-11, .cls-12 {
        stroke-width: 0px;
      }

      .cls-1, .cls-10 {
        fill: #00843d;
      }

      .cls-2, .cls-3, .cls-7, .cls-9, .cls-10, .cls-12 {
        fill-rule: evenodd;
      }

      .cls-2, .cls-5 {
        fill: #d22630;
      }

      .cls-13 {
        clip-path: url(#clippath-2);
      }

      .cls-3 {
        fill: #29ae66;
      }

      .cls-4 {
        fill: none;
      }

      .cls-14 {
        clip-path: url(#clippath-1);
      }

      .cls-15 {
        clip-path: url(#clippath-4);
      }

      .cls-6, .cls-12 {
        fill: #ffc72c;
      }

      .cls-7, .cls-11 {
        fill: #383739;
      }

      .cls-8, .cls-9 {
        fill: #fff;
      }

      .cls-16 {
        clip-path: url(#clippath);
      }

      .cls-17 {
        clip-path: url(#clippath-3);
      }

      .cls-18 {
        clip-path: url(#clippath-5);
      }
    </style>
    <clipPath id="clippath">
      <rect class="cls-4" x="495.515" y="487.699" width="525.594" height="351.451"/>
    </clipPath>
    <clipPath id="clippath-1">
      <rect class="cls-4" x="495.515" y="487.699" width="525.594" height="351.451"/>
    </clipPath>
    <clipPath id="clippath-2">
      <rect class="cls-4" x="495.515" y="487.699" width="525.594" height="351.451"/>
    </clipPath>
    <clipPath id="clippath-3">
      <rect class="cls-4" x="463.852" y="1374.243" width="588.918" height="379.947"/>
    </clipPath>
    <clipPath id="clippath-4">
      <rect class="cls-4" x="463.852" y="1374.243" width="588.918" height="379.947"/>
    </clipPath>
    <clipPath id="clippath-5">
      <rect class="cls-4" x="463.852" y="1374.243" width="588.918" height="379.947"/>
    </clipPath>
  </defs>
  <g id="background">
    <path id="tm" class="cls-3" d="M400,.1h2800c220,0,400,180,400,400v1600c0,220-180,400-400,400H400C180,2400.1,0,2220.1,0,2000.1V400.1C0,180.1,180,.1,400,.1Z"/>
  </g>
  <g id="country">
    <g id="tm-2" data-name="tm">
      <g>
        <path class="cls-9" d="M1787.364,269.229c106.107,45.426,180.447,150.557,180.447,272.973,0,163.973-133.355,296.948-297.793,296.948-73.618,0-140.992-26.666-192.972-70.822,32.156,13.754,67.295,22.059,104.311,23.671,164.286,7.153,303.328-119.892,310.499-283.71,4.167-95.107-37.045-181.726-104.492-239.06h0Z"/>
        <path class="cls-2" d="M435.356,3.266h645.91v2393.668H435.356V3.266Z"/>
        <path class="cls-7" d="M570.361,3.266h22.445l.861.788-62.226,56.859-28.36-26.112-14.815,13.475,22.224,20.641-25.821,24.006,12.275,11.582-61.589,57.071v-23.376l36.402-33.695-12.275-11.582,26.033-24.006-11.427-10.322v14.954h-22.224v-17.902l50.159-46.753h25.396l2.751,16.639h-14.603l15.872,14.742,39.79-36.222-.871-.788ZM538.227,3.266h15.169l-13.064,12.158-2.106-12.158ZM435.356,3.266h41.113l.792.788-12.275,12.424h-15.239v17.056l-14.39,14.533V3.266Z"/>
        <path class="cls-12" d="M572.546,3.266h17.101l.855.785-59.316,54.32-28.284-26.216-17.31,15.939,22.167,20.555-25.754,23.905,12.244,11.538-58.892,54.32v-18.459l38.84-35.861-12.244-11.538,25.963-23.911-15.619-14.47v17.408h-18.788v-15.521l49.184-45.511h22.797l2.327,13.213h-16.889l20.264,18.668,42.219-38.378-.864-.785ZM539.857,3.266h10.696l-9.23,8.546-1.466-8.546ZM435.362,3.266h38.682l.788.785-10.553,10.487h-16.252v18.247l-12.665,12.583V3.266Z"/>
        <path class="cls-7" d="M435.356,281.929v23.259l36.402,33.733-12.275,11.316,26.033,23.886-11.427,10.268v-14.878h-22.224v17.81l50.159,46.515h25.396l2.755-16.344h-14.606l15.872-14.666,39.79,35.829-39.79,36.041-15.872-14.669h14.606l-2.755-16.553h-25.396l-50.159,46.518v17.81h22.224v-14.878l11.427,10.268-26.033,23.886,12.275,11.525-36.402,33.524v23.256l61.589-56.78-12.275-11.525,25.821-23.886-22.224-20.533,14.815-13.412,28.36,25.982,62.226-56.571-62.226-56.574-28.36,26.191-14.815-13.618,22.224-20.536-25.821-23.886,12.275-11.313-61.589-56.992v-.003ZM435.356,394.865v87.584l14.39-14.457v-16.971h15.239l12.275-12.364-12.275-12.152h-15.239v-17.18l-14.39-14.457v-.003ZM540.332,425.878l-2.115,11.943,2.115,12.152,13.121-12.152-13.121-11.943Z"/>
        <path class="cls-12" d="M435.363,281.932v18.738l38.84,36.627-12.244,11.5,25.963,24.275-15.622,14.694v-17.677h-18.785v15.758l49.181,46.211h22.8l2.321-13.203h-16.889l20.264-19.165,42.218,38.97-42.218,38.967-20.264-18.95h16.889l-2.327-13.415h-22.797l-49.184,46.208v15.758h18.788v-17.674l15.619,14.691-25.963,24.275,12.244,11.712-38.84,36.415v18.741l58.892-55.156-12.244-11.712,25.754-24.275-22.167-20.869,17.31-16.183,28.284,26.618,59.316-55.153-59.316-55.156-28.284,26.618-17.31-16.183,22.167-20.869-25.754-24.275,12.244-11.5-58.892-55.368.006.003ZM435.363,396.708v83.902l12.665-12.776v-18.526h16.252l10.553-10.648-10.553-10.648h-16.252v-18.526l-12.665-12.779h0ZM541.323,429.076l-1.475,8.732,1.475,8.729,9.29-8.729-9.29-8.732Z"/>
        <path class="cls-7" d="M435.356,731.571v23.493l36.402,34.075-12.275,11.43,26.033,24.127-11.427,10.369v-15.027h-22.224v17.991l50.159,46.987h25.396l2.755-16.509h-14.606l15.872-14.815,39.79,36.19-39.79,36.405-15.872-14.818h14.606l-2.755-16.718h-25.396l-50.159,46.984v17.991h22.224v-15.027l11.427,10.373-26.033,24.127,12.275,11.639-36.402,33.863v23.493l61.589-57.356-12.275-11.639,25.821-24.127-22.224-20.742,14.815-13.545,28.36,26.245,62.226-57.144-62.226-57.147-28.36,26.457-14.815-13.757,22.224-20.742-25.821-24.127,12.275-11.43-61.589-57.565v-.003ZM435.356,845.65v88.468l14.39-14.603v-17.145h15.239l12.275-12.488-12.275-12.276h-15.239v-17.354l-14.39-14.603h0ZM540.332,876.974l-2.115,12.063,2.115,12.276,13.121-12.276-13.121-12.063Z"/>
        <path class="cls-12" d="M435.363,734.737v18.551l38.84,36.256-12.244,11.383,25.963,24.032-15.622,14.546v-17.497h-18.785v15.597l49.181,45.742h22.8l2.321-13.067h-16.889l20.264-18.972,42.218,38.574-42.218,38.577-20.264-18.763h16.889l-2.327-13.279h-22.797l-49.184,45.742v15.6h18.788v-17.497l15.619,14.546-25.963,24.028,12.244,11.595-38.84,36.048v18.548l58.892-54.595-12.244-11.595,25.754-24.028-22.167-20.66,17.31-16.021,28.284,26.349,59.316-54.595-59.316-54.595-28.284,26.349-17.31-16.021,22.167-20.656-25.754-24.032,12.244-11.383-58.892-54.807h.006ZM435.363,848.358v83.053l12.665-12.649v-18.339h16.252l10.553-10.54-10.553-10.537h-16.252v-18.339l-12.665-12.649ZM541.323,880.4l-1.475,8.641,1.475,8.644,9.29-8.644-9.29-8.641Z"/>
        <path class="cls-7" d="M435.356,1181.214v23.493l36.402,34.075-12.275,11.43,26.033,24.127-11.427,10.369v-15.027h-22.224v17.991l50.159,46.987h25.396l2.755-16.509h-14.606l15.872-14.815,39.79,36.19-39.79,36.402-15.872-14.815h14.606l-2.755-16.718h-25.396l-50.159,46.984v17.991h22.224v-15.027l11.427,10.373-26.033,24.127,12.275,11.639-36.402,33.863v23.493l61.589-57.356-12.275-11.639,25.821-24.127-22.224-20.742,14.815-13.545,28.36,26.242,62.226-57.144-62.226-57.144-28.36,26.457-14.815-13.757,22.224-20.742-25.821-24.127,12.275-11.43-61.589-57.568ZM435.356,1295.293v88.468l14.39-14.606v-17.142h15.239l12.275-12.488-12.275-12.276h-15.239v-17.354l-14.39-14.603ZM540.332,1326.616l-2.115,12.063,2.115,12.276,13.121-12.276-13.121-12.063Z"/>
        <path class="cls-12" d="M435.363,1184.38v18.551l38.84,36.256-12.244,11.383,25.963,24.032-15.622,14.542v-17.493h-18.785v15.597l49.181,45.742h22.8l2.321-13.067h-16.889l20.264-18.972,42.218,38.574-42.218,38.577-20.264-18.763h16.889l-2.327-13.279h-22.797l-49.184,45.742v15.6h18.788v-17.497l15.619,14.542-25.963,24.032,12.244,11.595-38.84,36.045v18.551l58.892-54.595-12.244-11.595,25.754-24.032-22.167-20.656,17.31-16.021,28.284,26.349,59.316-54.595-59.316-54.595-28.284,26.349-17.31-16.021,22.167-20.656-25.754-24.032,12.244-11.383-58.892-54.807h.006ZM435.363,1298v83.053l12.665-12.649v-18.339h16.252l10.553-10.54-10.553-10.54h-16.252v-18.339l-12.665-12.646ZM541.323,1330.039l-1.475,8.644,1.475,8.644,9.29-8.644-9.29-8.644Z"/>
        <path class="cls-7" d="M435.356,1630.856v23.493l36.402,34.075-12.275,11.427,26.033,24.13-11.427,10.369v-15.027h-22.224v17.991l50.159,46.987h25.396l2.755-16.509h-14.606l15.872-14.815,39.79,36.19-39.79,36.402-15.872-14.815h14.606l-2.755-16.718h-25.396l-50.159,46.984v17.991h22.224v-15.027l11.427,10.369-26.033,24.13,12.275,11.639-36.402,33.863v23.493l61.589-57.356-12.275-11.639,25.821-24.13-22.224-20.739,14.815-13.545,28.36,26.242,62.226-57.144-62.226-57.144-28.36,26.457-14.815-13.757,22.224-20.742-25.821-24.127,12.275-11.43-61.589-57.569ZM435.356,1744.935v88.467l14.39-14.606v-17.142h15.239l12.275-12.488-12.275-12.276h-15.239v-17.354l-14.39-14.603ZM540.332,1776.255l-2.115,12.066,2.115,12.276,13.121-12.276-13.121-12.066Z"/>
        <path class="cls-12" d="M435.363,1634.022v18.551l38.84,36.256-12.244,11.382,25.963,24.032-15.622,14.543v-17.497h-18.785v15.6l49.181,45.743h22.8l2.321-13.07h-16.889l20.264-18.972,42.218,38.577-42.218,38.574-20.264-18.76h16.889l-2.327-13.279h-22.797l-49.184,45.743v15.597h18.788v-17.493l15.619,14.543-25.963,24.032,12.244,11.595-38.84,36.044v18.551l58.892-54.595-12.244-11.595,25.754-24.032-22.167-20.656,17.31-16.021,28.284,26.349,59.316-54.595-59.316-54.595-28.284,26.349-17.31-16.021,22.167-20.656-25.754-24.032,12.244-11.382-58.892-54.807h.006ZM435.363,1747.642v83.053l12.665-12.649v-18.339h16.252l10.553-10.54-10.553-10.54h-16.252v-18.339l-12.665-12.646h0ZM541.323,1779.681l-1.475,8.644,1.475,8.641,9.29-8.641-9.29-8.644Z"/>
        <path class="cls-7" d="M1040.153,3.266h41.113v44.802l-14.394-14.533v-17.056h-15.236l-12.275-12.424.792-.788ZM963.226,3.266h15.169l-2.106,12.158-13.064-12.158ZM923.816,3.266h22.442l-.868.788,39.79,36.222,15.872-14.742h-14.606l2.755-16.639h25.396l50.159,46.753v17.902h-22.224v-14.954l-11.43,10.322,26.036,24.006-12.276,11.582,36.402,33.695v23.376l-61.589-57.071,12.276-11.582-25.821-24.006,22.224-20.641-14.818-13.475-28.357,26.112-62.226-56.856.861-.792Z"/>
        <path class="cls-12" d="M1041.847,3.266h39.413v41.566l-12.665-12.643V13.857h-16.252l-10.553-10.534.057-.057ZM966.855,3.266h9.784l-1.339,7.852-8.444-7.852ZM926.185,3.266h17.091l-.06.054,42.218,38.565,20.264-18.757h-16.889l2.327-13.273h22.797l49.184,45.723v15.594h-18.785v-17.49l-15.622,14.542,25.963,24.022-12.244,11.588,38.837,36.032v18.545l-58.892-54.576,12.244-11.588-25.751-24.022,22.164-20.653-17.31-16.012-28.284,26.34-59.316-54.579.063-.054Z"/>
        <path class="cls-7" d="M1081.225,281.929v23.259l-36.402,33.733,12.276,11.316-26.033,23.886,11.43,10.268v-14.878h22.221v17.81l-50.159,46.515h-25.396l-2.755-16.341h14.606l-15.872-14.669-39.79,35.829,39.79,36.041,15.872-14.669h-14.603l2.751-16.553h25.396l50.159,46.518v17.81h-22.221v-14.878l-11.43,10.268,26.033,23.886-12.276,11.525,36.402,33.524v23.256l-61.589-56.78,12.276-11.525-25.821-23.886,22.227-20.536-14.818-13.409-28.36,25.982-62.226-56.571,62.226-56.574,28.36,26.191,14.818-13.618-22.227-20.536,25.821-23.886-12.276-11.313,61.589-56.992v-.003ZM1081.225,394.868v87.581l-14.391-14.457v-16.971h-15.239l-12.276-12.361,12.276-12.155h15.239v-17.18s14.391-14.457,14.391-14.457ZM976.249,425.878l2.118,11.943-2.121,12.152-13.118-12.152,13.121-11.943Z"/>
        <path class="cls-12" d="M1081.219,281.932v18.738l-38.837,36.627,12.241,11.5-25.963,24.275,15.622,14.691v-17.674h18.785v15.758l-49.184,46.211h-22.797l-2.321-13.203h16.889l-20.264-19.165-42.218,38.97,42.218,38.967,20.264-18.95h-16.889l2.327-13.415h22.797l49.184,46.208v15.758h-18.788v-17.674l-15.619,14.691,25.963,24.275-12.244,11.715,38.84,36.412v18.741l-58.892-55.156,12.244-11.712-25.754-24.275,22.164-20.865-17.307-16.186-28.284,26.618-59.316-55.156,59.316-55.149,28.284,26.615,17.31-16.183-22.164-20.869,25.751-24.275-12.244-11.5,58.892-55.365h-.006ZM1081.219,396.708v83.905l-12.665-12.779v-18.526h-16.252l-10.553-10.648,10.553-10.648h16.252v-18.526l12.665-12.779h0ZM975.258,429.076l1.475,8.732-1.475,8.729-9.29-8.729,9.29-8.732Z"/>
        <path class="cls-7" d="M1081.225,731.571v23.493l-36.402,34.075,12.276,11.43-26.033,24.127,11.43,10.369v-15.024h22.221v17.987l-50.159,46.987h-25.396l-2.755-16.509h14.606l-15.872-14.818-39.79,36.193,39.79,36.405,15.872-14.818h-14.603l2.751-16.718h25.396l50.159,46.987v17.987h-22.221v-15.027l-11.43,10.373,26.033,24.127-12.276,11.639,36.402,33.863v23.493l-61.589-57.356,12.276-11.639-25.821-24.127,22.227-20.742-14.818-13.545-28.36,26.245-62.226-57.144,62.226-57.144,28.36,26.454,14.818-13.757-22.227-20.739,25.821-24.127-12.276-11.43,61.589-57.568v-.003ZM1081.225,845.65v88.464l-14.391-14.599v-17.145h-15.239l-12.276-12.484,12.276-12.279h15.239v-17.351l14.391-14.606ZM976.249,876.974l2.118,12.063-2.121,12.276-13.118-12.276,13.121-12.063Z"/>
        <path class="cls-12" d="M1081.219,734.737v18.554l-38.837,36.253,12.241,11.383-25.963,24.032,15.622,14.546v-17.497h18.785v15.597l-49.184,45.742h-22.797l-2.321-13.067h16.889l-20.264-18.972-42.218,38.574,42.218,38.577,20.264-18.76h-16.889l2.327-13.282h22.797l49.184,45.742v15.6h-18.788v-17.497l-15.619,14.546,25.963,24.032-12.244,11.588,38.84,36.051v18.548l-58.892-54.595,12.244-11.595-25.754-24.032,22.164-20.656-17.307-16.021-28.284,26.349-59.316-54.595,59.316-54.595,28.284,26.349,17.31-16.021-22.164-20.656,25.751-24.032-12.244-11.383,58.892-54.807h-.006ZM1081.219,848.358v83.05l-12.665-12.646v-18.339h-16.252l-10.553-10.537,10.553-10.543h16.252v-18.336l12.665-12.649h0ZM975.258,880.4l1.475,8.644-1.475,8.641-9.29-8.644,9.29-8.641Z"/>
        <path class="cls-7" d="M1081.225,1181.214v23.493l-36.402,34.075,12.276,11.43-26.033,24.127,11.43,10.369v-15.027h22.221v17.991l-50.159,46.987h-25.396l-2.755-16.509h14.606l-15.872-14.818-39.79,36.193,39.79,36.405,15.872-14.818h-14.603l2.751-16.718h25.396l50.159,46.987v17.987h-22.221v-15.027l-11.43,10.373,26.033,24.127-12.276,11.639,36.402,33.863v23.493l-61.589-57.356,12.276-11.639-25.821-24.127,22.227-20.742-14.818-13.545-28.36,26.242-62.226-57.144,62.226-57.144,28.36,26.457,14.818-13.757-22.227-20.739,25.821-24.13-12.276-11.43,61.589-57.568h0ZM1081.225,1295.293v88.464l-14.391-14.599v-17.145h-15.239l-12.276-12.488,12.276-12.276h15.239v-17.354l14.391-14.603ZM976.249,1326.616l2.118,12.063-2.121,12.276-13.118-12.276,13.121-12.063Z"/>
        <path class="cls-12" d="M1081.219,1184.38v18.551l-38.837,36.253,12.241,11.386-25.963,24.032,15.622,14.542v-17.493h18.785v15.597l-49.184,45.742h-22.797l-2.321-13.067h16.889l-20.264-18.972-42.218,38.574,42.218,38.574,20.264-18.76h-16.889l2.327-13.279h22.797l49.184,45.742v15.597h-18.788v-17.493l-15.619,14.546,25.963,24.032-12.244,11.588,38.84,36.048v18.554l-58.892-54.598,12.244-11.595-25.754-24.032,22.164-20.656-17.307-16.021-28.284,26.349-59.316-54.595,59.316-54.595,28.284,26.349,17.31-16.021-22.164-20.656,25.751-24.032-12.244-11.383,58.892-54.807h-.006ZM1081.219,1298v83.05l-12.665-12.646v-18.339h-16.252l-10.553-10.54,10.553-10.54h16.252v-18.339l12.665-12.646h0ZM975.258,1330.042l1.475,8.641-1.475,8.644-9.29-8.644,9.29-8.641Z"/>
        <path class="cls-7" d="M1081.225,1630.856v23.493l-36.402,34.075,12.276,11.43-26.033,24.127,11.43,10.369v-15.027h22.221v17.991l-50.159,46.987h-25.396l-2.755-16.509h14.606l-15.872-14.818-39.79,36.193,39.79,36.402,15.872-14.815h-14.603l2.751-16.718h25.396l50.159,46.987v17.987h-22.221v-15.027l-11.43,10.369,26.033,24.127-12.276,11.642,36.402,33.863v23.493l-61.589-57.356,12.276-11.639-25.821-24.127,22.227-20.742-14.818-13.548-28.36,26.248-62.226-57.147,62.226-57.141,28.36,26.457,14.818-13.757-22.227-20.739,25.821-24.13-12.276-11.43,61.589-57.568v-.003ZM1081.225,1744.935v88.464l-14.391-14.603v-17.142h-15.239l-12.276-12.488,12.276-12.276h15.239v-17.354l14.391-14.603ZM976.249,1776.258l2.118,12.063-2.121,12.276-13.118-12.276,13.121-12.063Z"/>
        <path class="cls-12" d="M1081.219,1634.022v18.551l-38.837,36.253,12.241,11.386-25.963,24.032,15.622,14.543v-17.493h18.785v15.597l-49.184,45.743h-22.797l-2.321-13.07h16.889l-20.264-18.969-42.218,38.574,42.218,38.574,20.264-18.76h-16.889l2.327-13.279h22.797l49.184,45.743v15.597h-18.788v-17.493l-15.619,14.543,25.963,24.032-12.244,11.595,38.84,36.044v18.551l-58.892-54.595,12.244-11.595-25.754-24.032,22.164-20.656-17.307-16.021-28.284,26.349-59.316-54.595,59.316-54.595,28.284,26.349,17.31-16.021-22.164-20.656,25.751-24.032-12.244-11.382,58.892-54.807h-.006ZM1081.219,1747.642v83.05l-12.665-12.646v-18.339h-16.252l-10.553-10.54,10.553-10.54h16.252v-18.339l12.665-12.649v.003ZM975.258,1779.684l1.475,8.641-1.475,8.644-9.29-8.644,9.29-8.641ZM488.305,2120.079c3.173,13.567,13.935,23.804,16.496,37.874,5.136-14.669,9.866-26.967,6.332-43.016-2.527-11.478-12.161-19.662-13.276-31.46-10.502,9.464-12.763,22.889-9.553,36.602h0ZM485.642,2176.919c8.91,12.244,21.29,21.635,34.965,27.894-2.694-10.724,2.359-18.798,7.966-27.312,6.757-10.249,10.05-20.315,4.544-32.115-2.568,6.133-6.016,11.231-10.062,16.477-5.984,8.181-9.92,15.461-10.841,25.957-6.921-5.142-9.961-12.82-13.662-20.248-5.639-10.642-14.742-19.539-25.2-25.355,2.78,11.937,4.92,24.56,12.291,34.702h0ZM535.602,2213.41c-1.906,6.801-3.546,13.542-3.179,20.647-5.886-6.355-13.703-11.142-20.675-16.262-9.499-7.7-20.568-13.13-28.331-22.933,1.159,14.429,7.32,26.191,19.013,34.971,12.364,9.274,27.277,14.261,39.454,24-1.824-13.121,2.986-23.633,7.086-35.696,3.416-11.525.111-23.227-7.688-32.011.117,9.736-2.948,18.098-5.68,27.283h0ZM563.348,2257.737c2.561,9.951,9.676,18.051,14.536,26.932-13.102-4.075-24.662-11.199-36.507-17.902-14.109-7.697-29.427-12.602-42.196-22.768,6.355,23.588,22.107,37.263,45.15,44.235,15.758,4.772,29.037,2.391,48.155,10.135-2.191-12.972-6.054-26.976-12.174-38.676-4.749-8.46-10.018-16.803-12.95-26.124-4.249,7.656-6.26,15.442-4.015,24.168ZM611.557,2293.829c4.451,7.704,10.548,14.332,17.854,19.409-18.602,1.187-33.568-10.629-51.701-11.142-11.202-.313-21.834,3.169-33.255,2.125,13.555,9.169,27.746,17.174,44.248,19.314,21.451,2.78,41.237-2.631,64.901-.513-11.06-7.824-16.594-18.298-23.487-29.557-8.976-14.064-17.449-24.089-34.908-26.349,7.007,7.897,11.088,17.677,16.347,26.713ZM677.614,2324.776c-32.767,5.582-64.167,12.811-97.631,13.14,37.46,13.092,72.754,15.461,109.906,1.944,20.077-7.305,35.471-11.215,50.634-10.126,22.16,1.596,49.092,10.36,78.896,41.87l11.715-9.397c-42.719-38.153-98.609-46.794-153.518-37.434l-.003.003Z"/>
        <path class="cls-7" d="M485.626,1097.59l-5.94,8.644,10.645,8.378-10.648,8.378,5.94,8.644,12.37,1.479,11.981-9.524,29.867,19.52v-16.211l-18.798-12.285,18.798-12.285v-16.211l-29.867,19.52-11.981-9.521-12.367,1.475ZM485.626,1040.598l-5.94,8.644,10.645,8.378-10.648,8.378,5.94,8.644,12.37,1.475,11.981-9.524,29.867,19.523v-16.211l-18.798-12.285,18.798-12.285v-16.211l-29.867,19.52-11.981-9.521-12.367,1.475Z"/>
        <path class="cls-7" d="M485.626,1185.459l-5.94-8.644,10.645-8.378-10.648-8.378,5.94-8.644,12.37-1.475,11.981,9.521,29.867-19.52v16.211l-18.798,12.285,18.798,12.285v16.211l-29.867-19.52-11.981,9.524-12.367-1.479ZM1030.999,1097.59l5.94,8.644-10.648,8.378,10.648,8.378-5.94,8.644-12.367,1.479-11.981-9.524-29.87,19.52v-16.211l18.801-12.285-18.801-12.285v-16.211l29.87,19.52,11.981-9.521,12.367,1.475ZM1030.999,1040.598l5.94,8.644-10.648,8.378,10.648,8.378-5.94,8.644-12.367,1.475-11.981-9.524-29.87,19.523v-16.211l18.801-12.285-18.801-12.285v-16.211l29.87,19.52,11.981-9.521,12.367,1.475Z"/>
        <path class="cls-7" d="M1030.999,1185.459l5.94-8.644-10.648-8.378,10.648-8.378-5.94-8.644-12.367-1.475-11.981,9.521-29.87-19.52v16.211l18.801,12.285-18.801,12.285v16.211l29.87-19.52,11.981,9.524,12.367-1.479ZM910.29,943.636v24.155h15.97v10.673h15.692v-19.437h-13.995v-15.391h-17.668ZM957.784,981.63v21.958h17.55v9.704h17.278v-17.671h-15.391v-13.992h-19.437ZM609.499,943.636v24.155h-17.573v10.673h-17.256v-19.437h15.391v-15.391h19.437ZM910.29,1282.422v-21.958h15.97v-9.704h15.692v17.668h-13.995v13.995h-17.668ZM609.499,1282.422v-21.958h-17.573v-9.704h-17.256v17.668h15.391v13.995h19.437ZM957.784,1247.593v-24.152h17.55v-10.677h17.278v19.434h-15.391v15.394h-19.437ZM558.839,981.63v21.958h-17.557v9.704h-17.272v-17.671h15.391v-13.992h19.437ZM558.839,1247.593v-24.152h-17.557v-10.677h-17.272v19.434h15.391v15.394h19.437ZM821.636,942.987l-12.769-12.016-12.548,11.262,10.936,10.287-14.115,13.279h20.957l7.539-7.096,7.542,7.096h20.954l-14.115-13.279,10.933-10.287-12.545-11.262c-4.262,3.999-8.514,8.007-12.769,12.016ZM758.311,942.987c-1.064-1.007-12.769-12.016-12.769-12.016l-12.548,11.262,10.936,10.287-14.115,13.279h20.954l7.542-7.096,7.542,7.096h20.954l-14.115-13.279,10.936-10.287-12.545-11.262c-4.262,3.999-8.514,8.007-12.773,12.016h0ZM694.987,942.987l12.769-12.016,12.548,11.262-10.936,10.287,14.115,13.279h-20.957l-7.539-7.096-7.542,7.096h-20.954l14.115-13.279-10.936-10.287,12.548-11.262c4.262,3.999,8.514,8.007,12.769,12.016h0ZM821.636,1285.148l-12.769,13.105-12.548-12.288,10.936-11.221-14.115-14.485h20.957l7.539,7.741,7.542-7.741h20.954l-14.115,14.486,10.933,11.221-12.545,12.288c-4.262-4.363-8.514-8.736-12.769-13.105h0ZM758.311,1285.148l-12.769,13.105-12.548-12.288,10.936-11.221-14.115-14.485h20.954l7.542,7.741,7.542-7.741h20.954l-14.115,14.486,10.936,11.221-12.545,12.288c-4.262-4.363-8.514-8.736-12.773-13.105h0ZM694.987,1285.148l12.769,13.105,12.548-12.288-10.936-11.221,14.115-14.485h-20.957l-7.539,7.741-7.542-7.741h-20.954l14.115,14.486-10.936,11.221,12.548,12.288c4.262-4.363,8.514-8.736,12.769-13.105h0Z"/>
        <path class="cls-10" d="M539.842,1127.818v12.124l-28.696-18.459-12.538,9.815-11.113-1.304-4.645-6.659,11.259-8.723-11.259-8.72,4.648-6.659,11.11-1.304,12.538,9.812,28.695-18.459v12.127l-20.527,13.203,20.527,13.206ZM539.842,1070.823v12.127l-28.696-18.459-12.538,9.812-11.113-1.304-4.645-6.659,11.259-8.72-11.259-8.72,4.648-6.659,11.11-1.308,12.538,9.815,28.695-18.459v12.127l-20.527,13.203,20.527,13.203ZM539.842,1155.235v-12.127l-28.696,18.459-12.538-9.815-11.113,1.308-4.645,6.655,11.259,8.723-11.259,8.72,4.648,6.659,11.11,1.304,12.538-9.812,28.695,18.459v-12.124l-20.527-13.206,20.527-13.203ZM976.781,1127.818v12.124l30.291-18.459,13.235,9.815,11.728-1.304,4.905-6.659-11.886-8.723,11.886-8.72-4.905-6.659-11.728-1.304-13.235,9.812-30.291-18.459v12.127l21.666,13.203-21.666,13.206ZM976.781,1070.823v12.127l30.291-18.459,13.235,9.812,11.728-1.304,4.905-6.659-11.886-8.72,11.886-8.72-4.905-6.659-11.728-1.308-13.235,9.815-30.291-18.459v12.127l21.666,13.203-21.666,13.203ZM976.781,1155.235v-12.127l30.291,18.459,13.235-9.815,11.728,1.308,4.905,6.655-11.886,8.723,11.886,8.72-4.905,6.659-11.728,1.304-13.235-9.812-30.291,18.459v-12.124l21.666-13.206-21.666-13.203ZM926.381,943.636v15.575h15.572v16.088h-13.884v-10.8h-17.778v-20.862h16.091ZM977.041,981.63v15.572h15.572v16.091h-13.884v-10.8h-17.778v-20.862h16.091ZM590.245,943.636v15.575h-15.575v16.088h13.884v-10.8h17.778v-20.862h-16.088ZM926.381,1282.422v-15.575h15.572v-16.088h-13.884v10.8h-17.778v20.862h16.091ZM590.245,1282.422v-15.575h-15.575v-16.088h13.884v10.8h17.778v20.862h-16.088ZM977.041,1244.427v-14.017h15.572v-14.479h-13.884v9.72h-17.778v18.776h16.091ZM541.194,981.63v15.572h-14.017v16.091h12.497v-10.8h15.999v-20.862h-14.479ZM541.194,1244.427v-14.017h-14.017v-14.479h12.497v9.72h15.999v18.776h-14.479ZM808.322,934.137l13.314,12.317,13.317-12.317,10.48,9.249-11.351,10.496,12.883,11.918h-16.771l-8.558-7.919-8.558,7.919h-16.771l12.883-11.918-11.351-10.496c1.14-1.004,9.451-8.343,10.483-9.249ZM744.997,934.137l13.314,12.317,13.317-12.317,10.477,9.249-11.348,10.496,12.883,11.918h-16.771l-8.558-7.919-8.558,7.919h-16.771l12.883-11.918-11.348-10.496,10.48-9.249ZM708.304,934.137l-13.317,12.317-13.314-12.317c-1.032.906-9.344,8.245-10.483,9.249l11.351,10.496-12.883,11.918h16.771l8.558-7.919,8.558,7.919h16.771l-12.883-11.918,11.351-10.496-10.48-9.249h0ZM808.322,1295.087l13.314-12.32,13.317,12.32c1.029-.909,9.34-8.248,10.48-9.249l-11.351-10.496,12.883-11.918h-16.771l-8.558,7.916-8.558-7.916h-16.771l12.883,11.918-11.351,10.496c1.14,1.001,9.451,8.34,10.483,9.249ZM744.997,1295.087l13.314-12.32,13.317,12.32,10.477-9.249-11.348-10.496,12.883-11.918h-16.771l-8.558,7.916-8.558-7.916h-16.771l12.883,11.918-11.348,10.496,10.48,9.249ZM708.304,1295.087l-13.317-12.32-13.314,12.32c-1.032-.909-9.344-8.248-10.483-9.249l11.351-10.496-12.883-11.918h16.771l8.558,7.916,8.558-7.916h16.771l-12.883,11.918,11.351,10.496c-1.14,1.001-9.451,8.34-10.48,9.249h0Z"/>
        <path class="cls-7" d="M589.726,1226.535v36.89h337.175v-36.89h49.881v-223.846h-49.881v-36.89h-337.175v36.89h-49.884v223.846h49.884Z"/>
        <path class="cls-12" d="M590.134,965.802v36.861h-50.292v220.73h50.292v36.864h336.348v-36.864h50.299v-220.73h-50.299v-36.864h-336.348v.003ZM611.782,979.997h293.06v35.588l12.095,8.9h45.625v177.306h-45.834l-11.886,8.685v35.797h-293.06v-35.588l-12.098-8.894h-45.837v-177.306h45.625l12.31-8.9v-35.588h0Z"/>
        <path class="cls-2" d="M613.418,981.63v32.641l44.159-32.641h-44.159ZM858.83,981.63l44.159,32.641v-32.641h-44.159ZM555.673,1026.141v30.516l41.611-30.516h-41.611ZM919.13,1026.141l41.82,30.728v-30.728h-41.82ZM960.95,1169.188l-41.82,30.947h41.82v-30.947ZM555.673,1169.4v30.735h41.611l-41.611-30.735ZM613.418,1212.002v32.425h43.944l-43.944-32.425ZM902.986,1212.002l-43.938,32.425h43.938v-32.425Z"/>
        <path class="cls-10" d="M856.008,981.63l104.941,77.373v108.047c-.69.513-104.489,77.044-104.941,77.376h-195.397c-.45-.332-104.248-76.863-104.938-77.376v-108.047l104.938-77.373h195.397Z"/>
        <path class="cls-7" d="M580.42,1181.134l-12.082-13.992,11.341-13.134-11.341-13.134,11.341-13.13-11.341-13.133,11.341-13.134-11.341-13.134,11.341-13.134-11.341-13.13,12.082-13.988h355.783l12.082,13.988-11.341,13.13,11.341,13.134-11.341,13.134,11.341,13.134-11.341,13.134,11.341,13.13-11.341,13.134,11.341,13.134-12.082,13.992h-355.783ZM824.986,1000.017l-14.023-12.054-13.165,11.316-13.162-11.316-13.162,11.316-13.162-11.316-13.165,11.316-13.162-11.316-13.162,11.316-13.162-11.316-14.023,12.054v229.187l14.023,12.057,13.162-11.316,13.162,11.313,13.162-11.316,13.165,11.316,13.162-11.316,13.162,11.316,13.162-11.313,13.165,11.316,14.023-12.057v-229.187Z"/>
        <path class="cls-12" d="M796.306,1001.628l-11.082-10.499-11.082,10.499v225.967l11.082,10.499,11.082-10.499v-225.967ZM745.646,1001.628l-12.665-10.499-12.665,10.499v225.967l12.665,10.499,12.665-10.499v-225.967Z"/>
        <path class="cls-12" d="M582.051,1177.936l-10.547-12.665,10.547-12.665h352.521l10.547,12.665-10.547,12.665h-352.521ZM934.569,1101.947l10.55,12.665-10.55,12.665h-352.515l-10.55-12.665,10.55-12.665h352.515ZM934.572,1073.451l10.547-12.665-10.547-12.665h-352.521l-10.547,12.665,10.547,12.665h352.521Z"/>
        <path class="cls-2" d="M821.636,1001.628l-11.082-10.499-11.082,10.499v225.967l11.082,10.499,11.079-10.496.003-225.971ZM717.15,1001.628l-11.082-10.499-11.082,10.499v225.967l11.082,10.499,11.082-10.499v-225.967Z"/>
        <path class="cls-2" d="M582.054,1152.607l-10.55-12.665,10.55-12.665h352.515l10.55,12.665-10.55,12.665h-352.515ZM582.054,1098.781l-10.55-11.082,10.55-11.082h352.515l10.55,11.082-10.55,11.082h-352.515Z"/>
        <path class="cls-2" d="M770.976,1227.596l-12.665,10.499-12.665-10.499v-225.967l12.665-10.499,12.665,10.499v225.967Z"/>
        <path class="cls-7" d="M876.067,1003.794h-236.362v18.89h-30.206v180.693h30.206v18.887h237.214v-18.887h30.206v-180.693h-30.206v-18.89h-.852Z"/>
        <path class="cls-2" d="M640.154,1006.96v18.883h-30.655v177.543h30.655v18.877h25.124l-50.03-41.785v-131.734l50.03-41.785h-25.124ZM851.56,1006.96l49.814,41.785v131.734l-49.814,41.785h25.118v-18.877h30.446v-177.543h-30.446v-18.883h-25.118Z"/>
        <path class="cls-10" d="M669.353,1006.96l-50.356,42.636v130.031l50.356,42.636h178.129l50.144-42.636v-130.031c-.598-.503-49.675-42.241-50.144-42.636h-178.129ZM671.87,1014.173h172.882l45.739,38.818v123.242l-45.739,38.606h-172.882l-45.53-38.606v-123.242l45.53-38.818Z"/>
        <path class="cls-10" d="M716.935,1177.936l7.346,3.363,1.352,9.09-9.249,8.618,13.431,13.757h-12.925l-9.239-9.423-9.239,9.423h-12.925l13.434-13.757-9.249-8.618,1.352-9.09,7.342-3.363,9.283,7.865.503-.424,8.78-7.441ZM769.843,1177.936l7.865,3.363,1.45,9.09-9.907,8.618,14.391,13.757h-13.846l-9.901-9.423-9.898,9.423h-13.849l14.39-13.757-9.904-8.618,1.45-9.09,7.865-3.363,9.945,7.865.538-.424,9.41-7.441ZM800.609,1177.936l-7.868,3.363-1.45,9.09,9.907,8.618-14.39,13.757h13.846l9.901-9.423,9.901,9.423h13.846l-14.391-13.757,9.907-8.618-1.45-9.09-7.868-3.363-9.945,7.865-.541-.424-9.404-7.441ZM716.935,1051.287l7.346-3.363,1.352-9.087-9.249-8.618,13.431-13.76h-12.925l-9.239,9.423-9.239-9.423h-12.925l13.434,13.76-9.249,8.615,1.352,9.09,7.342,3.363,9.283-7.862.503.424,8.78,7.437ZM769.843,1051.287l7.865-3.363,1.45-9.087-9.907-8.618,14.391-13.76h-13.846l-9.901,9.423-9.898-9.423h-13.849l14.39,13.76-9.904,8.615,1.45,9.09,7.865,3.363,9.945-7.862.538.424,9.41,7.437ZM800.609,1051.287l-7.868-3.363-1.45-9.087,9.907-8.618-14.39-13.76h13.846l9.901,9.423,9.901-9.423h13.846l-14.391,13.76,9.907,8.615-1.45,9.09-7.868,3.363-9.945-7.862-.541.424-9.404,7.437ZM891.293,1065.314l-8.21,6.554,8.21,6.551v10.863l-12.627-10.031-9.062,7.916-9.717-1.178c-.361-.64-2.916-5.18-3.423-6.089l8.362-8.033-8.362-8.036c.507-.909,3.062-5.449,3.423-6.089l9.717-1.178,9.062,7.916,12.627-10.027v10.86ZM891.293,1106.475l-8.21,6.554,8.21,6.548v10.867l-12.627-10.031-9.062,7.916c-.728-.089-8.907-1.083-9.717-1.178l-3.423-6.089,8.362-8.033-8.362-8.039,3.423-6.089,9.717-1.175,9.062,7.916,12.627-10.027v10.86ZM891.293,1163.91l-8.21-6.554,8.21-6.551v-10.863l-12.627,10.031-9.062-7.916-9.717,1.175-3.423,6.089c.845.817,8.362,8.036,8.362,8.036l-8.362,8.036,3.423,6.089,9.717,1.175,9.062-7.912,12.627,10.027v-10.86ZM628.496,1065.314l7.463,6.554-7.463,6.551v10.863l11.478-10.031,8.239,7.916,8.834-1.178,3.112-6.089-7.602-8.033,7.602-8.036-3.112-6.089-8.834-1.178-8.239,7.916-11.478-10.027v10.86ZM628.496,1106.475l7.463,6.554-7.463,6.548v10.867l11.478-10.031,8.239,7.916,8.834-1.178,3.112-6.089-7.602-8.033,7.602-8.039-3.112-6.089-8.834-1.175-8.239,7.916-11.478-10.027v10.86ZM628.496,1163.91l7.463-6.554-7.463-6.551v-10.863l11.478,10.031,8.239-7.916,8.834,1.175,3.112,6.089-7.602,8.036,7.602,8.036-3.112,6.089c-2.944.393-5.889.785-8.834,1.175l-8.239-7.912-11.478,10.027v-10.86Z"/>
        <path class="cls-2" d="M673.355,1016.462l-44.223,36.937c3.774,3.122,7.428,6.389,11.212,9.499.959-.864,8.254-7.39,8.254-7.39l10.791,1.479,4.23,7.811-7.615,7.599c1.035,1.026,7.615,7.599,7.615,7.599l-4.23,7.808-10.791,1.266s-7.295-6.31-8.254-7.175l-11.848,9.92v3.378c3.986,3.29,7.849,6.633,11.848,9.92.959-.864,8.254-7.178,8.254-7.178l10.791,1.266,4.23,7.811-7.615,7.599c1.035,1.026,7.615,7.599,7.615,7.599l-4.23,8.02-10.791,1.266s-7.295-6.522-8.254-7.387l-11.848,9.92v3.591l11.848,9.92c.959-.864,8.254-7.387,8.254-7.387l10.791,1.475,4.23,7.811-7.615,7.599,7.615,7.599-4.23,7.811-10.791,1.475s-7.295-6.522-8.254-7.387c-3.771,3.097-7.45,6.193-11.212,9.287,1.868,1.567,43.757,36.551,44.223,36.94h9.733l14.175-13.719-9.1-8.023,1.694-10.974,9.521-4.012,9.733,7.599,9.524-7.599,9.521,4.012,1.903,10.974-9.309,8.023,13.754,13.086,13.754-13.086-9.312-8.023,1.694-10.974,9.733-4.012,9.521,7.599,9.733-7.599,9.521,4.012,1.694,10.974-9.1,8.023,13.542,13.298,13.754-13.298-9.097-8.023,1.691-10.974,9.733-4.012,9.524,7.599,9.521-7.599,9.733,4.012,1.691,10.974-9.097,8.023,14.175,13.719h9.524c.462-.389,42.351-35.373,44.223-36.94-3.771-3.097-7.441-6.18-11.215-9.287-.959.864-8.042,7.387-8.042,7.387l-10.79-1.475-4.442-7.811,7.618-7.599-7.618-7.599,4.442-7.811,10.79-1.475s7.083,6.522,8.042,7.387l11.848-9.92v-3.591l-11.848-9.92c-.959.864-8.042,7.387-8.042,7.387l-10.79-1.266-4.442-8.02s6.583-6.573,7.618-7.599l-7.618-7.599,4.442-7.811,10.79-1.266s7.083,6.313,8.042,7.178c3.974-3.264,7.884-6.456,11.848-9.711v-3.8l-11.848-9.708c-.959.864-8.042,7.175-8.042,7.175l-10.79-1.266-4.442-7.808s6.583-6.573,7.618-7.599l-7.618-7.599,4.442-7.811,10.79-1.479s7.083,6.526,8.042,7.39c3.79-3.119,7.634-6.171,11.424-9.29l-44.432-37.149h-9.524l-14.175,13.719,9.097,8.023-1.691,10.974-9.733,4.224-9.521-7.599-9.524,7.599-9.733-4.224-1.691-10.974,9.097-8.023-13.542-13.086-13.754,13.086,9.1,8.023-1.694,10.974-9.521,4.224-9.733-7.599-9.521,7.599-9.733-4.224-1.694-10.974,9.309-8.023-13.751-13.086-13.754,13.086,9.309,8.023-1.903,10.974-9.521,4.224-9.524-7.599-9.733,7.599-9.521-4.224-1.694-10.974,9.1-8.023-14.387-13.719-9.521.003ZM628.496,1110.391v8.653l5.079-4.433-5.079-4.221Z"/>
        <path class="cls-9" d="M707.747,1206.432l-6.427,6.332h12.665l-6.237-6.332ZM758.216,1206.432l-6.237,6.332h12.665l-6.427-6.332ZM808.968,1206.432l-6.329,6.332h12.665l-6.336-6.332ZM701.319,1016.459l6.421,6.332,6.244-6.332h-12.665ZM751.979,1016.459l6.244,6.332,6.421-6.332h-12.665ZM802.639,1016.459l7.912,6.332,7.919-6.332h-15.831ZM891.293,1067.119l-6.332,4.87,6.332,4.629v-9.499ZM891.293,1108.279l-6.332,4.749,6.332,4.749v-9.499ZM891.293,1152.607l-6.332,3.166,6.332,3.166v-6.332ZM628.496,1067.119v9.499l3.166-4.635-3.166-4.863ZM628.496,1108.279v9.499l3.166-4.863-3.166-4.635ZM628.496,1152.607v6.332l3.166-3.09-3.166-3.242Z"/>
        <path class="cls-7" d="M803.576,1098.857v-15.141h-15.372v-16.597h-56.615v16.597h-15.372v15.141h-21.23v28.344h21.23v15.138h15.372v16.6h56.615v-16.601h15.372v-15.138h21.226v-28.344h-21.226Z"/>
        <path class="cls-12" d="M758.311,1070.285v16.249l-24.722,13.095v11.816h-38.603v-11.022h21.565v-14.375h15.616v-15.765h26.143ZM758.311,1158.939v-17.497l24.722-14.105v-12.725h38.603v11.867h-21.565v15.483h-15.616v16.977h-26.143Z"/>
        <path class="cls-9" d="M783.033,1111.446v-11.816l-24.722-13.096v-16.249h26.144v15.765h15.616v14.375h21.565v11.022h-38.603ZM694.987,1114.612h38.603v12.725l24.722,14.105v17.497h-26.144v-16.977h-15.616v-15.483h-21.565v-11.867Z"/>
        <path class="cls-2" d="M736.148,1114.612v11.997l22.164,13.333v-25.33h-22.164Z"/>
        <path class="cls-10" d="M758.311,1089.282l-22.164,11.664v10.499h22.164v-22.164Z"/>
        <path class="cls-2" d="M780.475,1111.446v-10.499l-22.164-11.664v22.164h22.164Z"/>
        <path class="cls-10" d="M758.311,1139.942l22.164-13.333v-11.997h-22.164v25.33Z"/>
        <path class="cls-7" d="M514.512,1914.119l167.186-90.272h153.226l167.186,90.272v148.746l-167.186,90.269h-153.226l-167.186-90.269v-148.746Z"/>
        <path class="cls-10" d="M681.641,1827.013l-167.129,89.674v146.774l167.129,89.674h153.337l167.132-89.674v-146.774l-167.132-89.674h-153.337ZM684.605,1839.067h147.407l158.223,84.807v132.608l-158.223,84.811h-147.496l-158.216-84.811v-132.608l158.305-84.807Z"/>
        <path class="cls-12" d="M760.749,1989.213v151.257h72.25l156.446-84.738v-64.797h-230.406v-151.257h-72.247l-156.45,84.738v64.794l230.406.003Z"/>
        <path class="cls-9" d="M759.04,1989.213v151.257h-72.247l-156.45-84.738v-64.797h230.406v-151.257h72.25l156.446,84.738v64.794l-230.406.003Z"/>
        <path class="cls-7" d="M772.338,2130.971v-43.403l-14.026,8.903-14.026-8.903v43.403h-43.627l29.44-21.6v-30.811l-44.897-28.499h-31.374v-119.975h31.374l44.897-28.499v-30.811l-29.44-21.6h43.627v43.406l14.026-8.907,14.026,8.907v-43.406h43.631l-29.443,21.6v30.811l44.9,28.499h31.371v119.975h-31.371l-44.9,28.499v30.811l29.443,21.6h-43.631Z"/>
        <path class="cls-12" d="M775.653,1849.177v44.853l-15.017-9.521v12.693l68.739,43.789h22.635v46.553h10.787v-57.546h-30.247l-46.107-29.199v-32.584l26.011-19.039h-36.801ZM656.992,1989.235v57.546h30.035l46.325,29.402v32.584l-26.02,19.039h36.807v-44.85l14.802,9.524v-13.121l-68.739-43.368h-22.423v-46.756h-10.787Z"/>
        <path class="cls-9" d="M707.332,1849.177l26.017,19.039v32.584l-46.322,29.199h-30.035v57.546h10.787v-46.553h22.423l68.739-43.577v-12.906l-14.802,9.521v-44.853h-36.807ZM852.01,1989.235v46.756h-22.635l-68.742,43.368v13.121l15.021-9.527v44.853h36.801l-26.011-19.039v-32.584l46.107-29.402h30.247v-57.546h-10.787,0Z"/>
        <path class="cls-2" d="M669.657,2036.152h21.271l68.967,44.159,68.967-44.159h21.271v-92.156h-21.271l-68.967-44.159-68.967,44.159h-21.271v92.156Z"/>
        <path class="cls-7" d="M806.641,2011.392h14.907v-6.845h-11.215v-12.443h23.968v31.732h-22.977l.003,21.647h-47.297v-31.105h20.815v12.443h-8.061v6.218h21.79v-11.892l-88.591-52.392h-14.907v6.842h11.215v12.443h-23.968v-31.729h22.977v-21.647h47.294v31.105h-20.815v-12.443h8.061v-6.218h-21.787v11.892l88.588,52.392ZM798.573,1959v-11.892h-21.79v6.218h8.061v12.443h-20.815v-31.105h47.297v21.647h22.974v31.729h-23.968v-12.443h11.218v-6.842h-14.91l-88.588,52.392v11.892h21.787v-6.222h-8.061v-12.44h20.815v31.105h-47.294v-21.651h-22.977v-31.729h23.968v12.443h-11.215v6.845h14.907l88.591-52.392ZM954.617,1997.989v47.493h-19.998v-16.771h-20.163v16.771h-19.998v-47.493h19.998v16.771h20.163v-16.771h19.998ZM881.794,2058.148v47.493h-19.998v-16.771h-20.163v16.771h-19.998v-47.493h19.998v16.775h20.163v-16.775h19.998ZM954.617,1982.158v-47.493h-19.998v16.771h-20.163v-16.771h-19.998v47.493h19.998v-16.771h20.163v16.771h19.998ZM562.005,1997.989v47.493h19.998v-16.771h20.163v16.771h19.998v-47.493h-19.998v16.771h-20.163v-16.771h-19.998ZM562.005,1982.158v-47.493h19.998v16.771h20.163v-16.771h19.998v47.493h-19.998v-16.771h-20.163v16.771h-19.998ZM881.794,1918.834v-47.493h-19.998v16.771h-20.163v-16.771h-19.998v47.493h19.998v-16.771h20.163v16.771h19.998ZM634.828,2058.148v47.493h19.998v-16.771h20.163v16.771h19.998v-47.493h-19.998v16.775h-20.163v-16.775h-19.998ZM634.828,1918.834v-47.493h19.998v16.771h20.163v-16.771h19.998v47.493h-19.998v-16.771h-20.163v16.771h-19.998ZM894.459,1887.171v34.828h66.491l-66.491-34.828ZM622.164,2092.976v-34.828h-66.491l66.491,34.828ZM622.164,1887.171v34.828h-66.491l66.491-34.828ZM894.459,2092.976v-34.828h66.491l-66.491,34.828Z"/>
        <path class="cls-2" d="M934.8,2025.431v16.886h16.651v-44.327h-16.651v16.886h-23.693v-16.886h-16.648v44.327h16.648v-16.886h23.693ZM865.146,2088.755v16.886h16.648v-44.327h-16.648v16.886h-23.696v-16.886h-16.648v44.327h16.648v-16.886h23.696ZM934.8,1953.51v-15.679h16.651v41.161h-16.651v-15.682h-23.693v15.682h-16.648v-41.161h16.648v15.679h23.693ZM581.82,2025.431v16.886h-16.648v-44.327h16.648v16.886h23.696v-16.886h16.648v44.327h-16.648v-16.886h-23.696ZM581.82,1953.51v-15.679h-16.648v41.161h16.648v-15.682h23.696v15.682h16.648v-41.161h-16.648v15.679h-23.696ZM865.146,1891.392v-16.886h16.648v44.327h-16.648v-16.886h-23.696v16.886h-16.648v-44.327h16.648v16.886h23.696ZM651.477,2088.755v16.886h-16.648v-44.327h16.648v16.886h23.693v-16.886h16.651v44.327h-16.651v-16.886h-23.693ZM651.477,1891.392v-16.886h-16.648v44.327h16.648v-16.886h23.693v16.886h16.651v-44.327h-16.651v16.886h-23.693Z"/>
        <path class="cls-12" d="M896.707,1890.338v31.029h57.91l-57.91-31.029ZM562.008,2058.781l57.904,31.029v-31.029h-57.907.003Z"/>
        <path class="cls-9" d="M619.909,1890.338l-57.904,31.029h57.904v-31.029ZM896.707,2058.781v31.029l57.91-31.029h-57.91Z"/>
        <path class="cls-12" d="M1028.318,2120.079c-3.173,13.567-13.935,23.804-16.496,37.874-5.136-14.669-9.866-26.967-6.332-43.016,2.527-11.478,12.161-19.662,13.276-31.46,10.502,9.464,12.763,22.889,9.553,36.602ZM1030.981,2176.919c-8.907,12.244-21.29,21.635-34.965,27.894,2.695-10.724-2.359-18.798-7.966-27.312-6.757-10.249-10.05-20.315-4.544-32.115,2.568,6.133,6.016,11.231,10.062,16.477,5.984,8.181,9.92,15.461,10.841,25.957,6.921-5.142,9.961-12.82,13.662-20.248,5.639-10.642,14.742-19.539,25.2-25.355-2.78,11.937-4.917,24.56-12.291,34.702h0ZM981.021,2213.41c1.906,6.801,3.546,13.542,3.179,20.647,5.886-6.355,13.703-11.142,20.675-16.262,9.499-7.7,20.568-13.13,28.331-22.933-1.159,14.429-7.32,26.191-19.013,34.971-12.364,9.274-27.274,14.261-39.454,24,1.824-13.121-2.986-23.633-7.086-35.696-3.416-11.525-.111-23.227,7.688-32.011-.117,9.736,2.948,18.098,5.68,27.283h0ZM953.275,2257.737c-2.561,9.951-9.676,18.051-14.536,26.932,13.102-4.075,24.662-11.199,36.507-17.902,14.109-7.697,29.427-12.602,42.196-22.768-6.355,23.588-22.107,37.263-45.15,44.235-15.758,4.772-29.037,2.391-48.155,10.135,2.191-12.972,6.057-26.976,12.174-38.676,4.749-8.46,10.018-16.803,12.95-26.124,4.249,7.656,6.26,15.442,4.015,24.168h0ZM905.066,2293.829c-4.451,7.703-10.546,14.331-17.851,19.409,18.598,1.187,33.565-10.629,51.698-11.142,11.202-.313,21.834,3.169,33.255,2.125-13.555,9.169-27.746,17.174-44.248,19.314-21.451,2.78-41.237-2.631-64.901-.513,11.06-7.824,16.594-18.298,23.487-29.557,8.976-14.064,17.449-24.089,34.911-26.349-7.01,7.897-11.091,17.677-16.35,26.713ZM839.009,2324.776c32.767,5.582,64.167,12.811,97.631,13.14-37.46,13.092-72.754,15.461-109.906,1.944-20.077-7.305-35.471-11.215-50.634-10.126-22.16,1.596-49.092,10.36-78.896,41.87l-11.715-9.397c42.719-38.153,98.609-46.794,153.518-37.434l.003.003Z"/>
        <path class="cls-7" d="M515.712,283.921l-51.856-31.83v-76.518l51.856-31.833v-40.483l49.004-29.541h39.15l74.489-41.94h159.92l74.492,41.943h39.15l49.004,29.541v40.483l51.853,31.833v76.515l-51.853,31.83v40.487l-49.001,29.541h-39.15l-74.495,41.943h-159.92l-74.489-41.943h-39.15l-49.001-29.541-.003-40.487Z"/>
        <path class="cls-10" d="M679.045,34.941l-74.112,41.592h-38.742l-47.582,28.575v40.126l-51.587,31.513v73.95l51.587,31.513v40.341l47.373,28.572h38.951l74.112,41.598h158.33l74.115-41.598h38.951l47.582-28.572v-40.338l51.584-31.517v-73.947l-51.584-31.513v-40.126l-47.582-28.575h-38.951l-74.115-41.595h-158.33,0ZM683.468,50.278h149.699l74.112,41.595h38.742l36.003,21.641v40.126l51.796,31.513v57.144l-51.796,31.513v40.126l-36.003,21.641h-38.742l-74.112,41.595h-149.699l-74.115-41.595h-38.739l-36.215-21.641v-40.126l-51.587-31.513v-57.144l51.587-31.513v-40.126l36.215-21.641h38.739l74.115-41.595Z"/>
        <path class="cls-12" d="M757.456,214.685V50.769h-74.023l-74.593,41.927h-38.888l-35.18,21.169v40.369l-51.92,31.817v26.922h276.323v163.919h74.023l74.59-41.927h38.888l35.177-21.169v-40.369l51.923-31.821v-26.919l-276.32-.003Z"/>
        <path class="cls-9" d="M482.856,214.688l-.003,26.922,51.926,31.817v40.369l35.174,21.169h38.891l74.59,41.927h74.023v-163.922l276.32.003v-26.922l-51.923-31.814v-40.369l-35.177-21.173h-38.888l-74.59-41.924h-74.023v163.912l-276.32.003Z"/>
        <path class="cls-7" d="M597.154,107.22l-12.668-12.127-12.551,7.947,12.687,12.155-16.29,10.369h35.55l30.64,29.687,9.799-10.632-29.788-28.866v-19.596l-17.379,11.063Z"/>
        <path class="cls-7" d="M657.315,103.414l-12.668-11.487-12.551,7.529,12.69,11.512-16.293,9.825h35.554l30.636,28.126,9.799-10.075-29.788-27.347v-18.564l-17.379,10.48ZM592.018,142.051l-13.194-12.127-13.073,7.947,13.216,12.155-16.968,10.366h37.032l31.912,29.69,10.211-10.635-31.032-28.863v-19.596l-18.105,11.063Z"/>
        <path class="cls-7" d="M758.311,50.76h-32.65l-17.085,16.243h-33.306l-24.611,12.602,5.74,13.795,21.948-11.37h9.613l33.651,38.387,36.7-22.043v-47.614Z"/>
        <path class="cls-2" d="M584.479,98.259l11.189,10.566-9.375,5.886-11.208-10.585,9.394-5.867ZM612.56,100.213v16.686l28.594,27.331-7.342,7.852-29.389-28.084h-29.759s37.897-23.785,37.897-23.785ZM644.641,91.927l11.193,11.189-9.378,6.228-11.205-11.208,9.391-6.209ZM672.722,93.995v17.671l28.594,28.936-7.339,8.318-29.392-29.737h-29.759l37.897-25.187Z"/>
        <path class="cls-2" d="M578.615,133.088l11.721,10.569-9.822,5.886-11.74-10.585,9.841-5.87ZM608.03,135.045v16.686l29.959,27.331-7.691,7.852-30.788-28.084h-31.178l39.698-23.785ZM758.311,50.76h-31.058l-17.066,16.426h-33.549l-22.813,11.823,4.414,10.74,20.622-10.813h10.822l33.179,38.318,35.449-21.556v-44.938Z"/>
        <path class="cls-7" d="M597.15,320.402l-12.665,12.127-12.551-7.947,12.687-12.155-16.29-10.369h35.55l30.64-29.687,9.799,10.632-29.788,28.866v19.596l-17.383-11.063Z"/>
        <path class="cls-7" d="M657.315,324.208l-12.665,11.487-12.554-7.529,12.69-11.512-16.293-9.825h35.554l30.636-28.126,9.799,10.075-29.788,27.347v18.564l-17.379-10.48ZM592.021,285.577l-13.197,12.127-13.073-7.947,13.216-12.152-16.971-10.369h37.035l31.916-29.687,10.208,10.632-31.029,28.866v19.593l-18.104-11.063Z"/>
        <path class="cls-7" d="M758.311,376.849h-32.65l-17.085-16.243h-33.306l-24.611-12.595,5.74-13.792,21.948,11.367h9.613l33.651-38.387,36.7,22.04v47.611Z"/>
        <path class="cls-2" d="M584.479,329.362l11.189-10.566-9.375-5.886-11.208,10.585,9.394,5.867ZM612.56,327.409v-16.686l28.594-27.331-7.342-7.852-29.389,28.084h-29.759s37.897,23.785,37.897,23.785ZM644.641,335.695l11.193-11.189-9.378-6.231-11.205,11.208,9.391,6.212ZM672.722,333.624v-17.668l28.597-28.939-7.346-8.315-29.389,29.737h-29.759l37.897,25.184h0Z"/>
        <path class="cls-2" d="M578.615,294.54l11.721-10.569-9.825-5.883-11.737,10.585,9.841,5.867ZM608.03,292.587v-16.689l29.959-27.328-7.691-7.855-30.788,28.084h-31.178l39.698,23.788ZM758.311,376.849h-31.058l-17.066-16.423h-33.549l-22.813-11.823,4.414-10.74,20.622,10.813h10.822l33.179-38.318,35.449,21.562v44.929Z"/>
        <path class="cls-7" d="M576.212,161.065l-15.524-5.807-.37.256-20.045,13.928v3.742l-32.102,40.648,32.102,40.645v3.749l20.416,14.182,15.524-5.81-9.473-6.279v-11.956l3.765-4.509h16.822v-60.051h-16.822l-3.765-4.512v-11.949l9.473-6.279Z"/>
        <path class="cls-2" d="M541.954,171.288l18.326-12.864,11.145,4.211-7.19,4.819v13.21l4.531,5.484h15.394v55.371h-15.394l-4.531,5.484v13.206l7.19,4.819-11.145,4.211-18.326-12.864v-3.369l-30.617-39.176,30.617-39.176v-3.366Z"/>
        <path class="cls-7" d="M919.441,107.22l12.665-12.127,12.551,7.947-12.687,12.155,16.29,10.369h-35.55l-30.64,29.687-9.799-10.632,29.788-28.866v-19.596l17.383,11.063Z"/>
        <path class="cls-7" d="M859.289,103.414l12.665-11.487,12.554,7.529-12.69,11.512,16.293,9.825h-35.554l-30.636,28.126-9.799-10.075,29.788-27.347v-18.564l17.379,10.48ZM925.773,142.051l12.665-12.127,12.551,7.947-12.687,12.155,16.29,10.366h-35.554l-30.636,29.69-9.799-10.635,29.788-28.863v-19.596l17.383,11.063Z"/>
        <path class="cls-7" d="M758.299,50.76h32.653l17.082,16.243h33.309l24.608,12.602-5.737,13.795-21.948-11.37h-9.613l-33.651,38.387-36.703-22.046v-47.611Z"/>
        <path class="cls-2" d="M932.112,98.259l-11.189,10.566,9.375,5.886,11.208-10.585-9.394-5.867ZM904.034,100.213v16.686l-28.597,27.331,7.346,7.852,29.389-28.084h29.756l-37.893-23.785h0ZM871.963,91.927l-11.189,11.189,9.375,6.228,11.205-11.208-9.391-6.209ZM843.882,93.995v17.671l-28.594,28.936,7.342,8.318,29.389-29.737h29.759l-37.897-25.187Z"/>
        <path class="cls-2" d="M937.976,133.088l-11.725,10.569,9.825,5.886,11.737-10.585-9.837-5.87ZM908.558,135.045v16.686l-29.959,27.331,7.694,7.852,30.788-28.084h31.178l-39.701-23.785ZM758.299,50.76h31.061l17.066,16.426h33.546l22.813,11.823-4.414,10.74-20.622-10.813h-10.822l-33.176,38.318-35.452-21.556v-44.938Z"/>
        <path class="cls-7" d="M919.437,320.402l12.668,12.127,12.551-7.95-12.687-12.152,16.29-10.369h-35.55l-30.64-29.687-9.799,10.632,29.788,28.866v19.596l17.379-11.063Z"/>
        <path class="cls-7" d="M859.289,324.208l12.668,11.487,12.551-7.529-12.69-11.512,16.293-9.825h-35.554l-30.636-28.126-9.799,10.075,29.788,27.347v18.564l17.379-10.48ZM925.773,285.577l12.668,12.127,12.548-7.947-12.687-12.152,16.29-10.369h-35.554l-30.636-29.687-9.799,10.632,29.788,28.866v19.593l17.383-11.063Z"/>
        <path class="cls-7" d="M758.302,376.853h32.65l17.085-16.243h33.302l24.611-12.602-5.737-13.792-21.948,11.37h-9.613l-33.651-38.394-36.703,22.05.003,47.611Z"/>
        <path class="cls-2" d="M932.115,329.362l-11.193-10.566,9.375-5.886,11.208,10.585-9.391,5.867ZM904.034,327.409v-16.686l-28.597-27.331,7.342-7.852,29.392,28.084h29.756s-37.893,23.785-37.893,23.785ZM871.963,335.695l-11.189-11.189,9.375-6.231,11.205,11.208-9.391,6.212ZM843.882,333.624v-17.668l-28.594-28.939,7.342-8.315,29.389,29.737h29.759l-37.897,25.184Z"/>
        <path class="cls-2" d="M937.976,294.54l-11.725-10.569,9.825-5.883,11.74,10.585-9.841,5.867ZM908.558,292.587v-16.689l-29.956-27.328,7.688-7.855,30.792,28.084h31.178l-39.701,23.788ZM758.299,376.849h31.058l17.069-16.423h33.546l22.813-11.823-4.414-10.74-20.622,10.813h-10.822l-33.176-38.318-35.452,21.559v44.932Z"/>
        <path class="cls-7" d="M940.366,161.065l15.524-5.807.37.256,20.042,13.928v3.742l32.106,40.648-32.106,40.645v3.749l-20.413,14.182-15.524-5.81,9.473-6.279v-11.956l-3.765-4.509h-16.822v-60.051h16.822l3.768-4.512v-11.949l-9.476-6.279Z"/>
        <path class="cls-2" d="M976.461,171.288l-19.124-12.864-11.63,4.211,7.504,4.819v13.206l-4.73,5.487h-16.062v55.371h16.062l4.73,5.484v13.206l-7.504,4.819,11.63,4.211,19.124-12.864-.003-3.369,31.95-39.176-31.95-39.176.003-3.366Z"/>
        <path class="cls-7" d="M548.064,247.338l-8.653-7.434v-3.584l-18.564-22.487,18.567-22.493v-3.578l8.65-7.441,15.543,12.554-8.97-.066,13.254,13.361h30.288l23.816-18.5v-48.795h59.576l69.185-42.168v-11.056l-10.582-7.004h-3.353l-11.522,7.659-1.786,5.712-9.011-12.222,17.516-14.618h2.802l19.767-14.406h7.453l19.767,14.406h2.802l17.519,14.615-9.014,12.222-1.783-5.709-11.525-7.662h-3.35l-10.582,7.007v11.06l69.185,42.171h59.573v48.785l23.82,18.5h30.288l13.254-13.361-8.97.07,15.543-12.554,8.65,7.434v3.584l18.564,22.49-18.564,22.487v3.584l-8.65,7.434-15.543-12.551,8.97.07-13.254-13.365h-30.288l-23.82,18.5v48.792h-59.573l-69.185,42.171v11.06l10.582,7.004h3.35l11.525-7.659,1.783-5.712,9.014,12.218-17.519,14.622h-2.802l-19.767,14.406h-7.453l-19.767-14.406h-2.802l-17.519-14.622,9.014-12.218,1.786,5.712,11.522,7.659h3.35l10.585-7.004v-11.06l-69.185-42.174h-59.576v-48.785l-23.82-18.5h-30.285l-13.254,13.361,8.97-.067-15.543,12.551Z"/>
        <path class="cls-12" d="M759.169,351.763l7.564,5.81-7.564,5.813v-11.623ZM735.128,362.332h.279l19.748,14.561h2.305v-11.36l-10.36-7.96,10.363-7.96v-21.334l-73.95-45.6h-54.665v-45.815l-28.227-22.179h-42.573l-10.699,12.158-10.699-12.158-12.636.003,17.345,21.255v3.451l6.868,5.994,11.037-8.634-6.478.051v-2.156l14.435-14.786h31.722l24.912,19.574v48.427h58.284l70.325,43.365v13.045l-11.756,7.874h-4.385l-12.437-8.365-.956-3.103-6.066,8.318,15.806,13.339h2.457l.003-.003ZM547.358,203.407l8.425,9.568h-16.854l8.429-9.568ZM757.466,64.279l-7.561,5.81,7.561,5.807v-11.617ZM960.852,214.691l8.425,9.568,8.425-9.568h-16.851ZM781.225,65.324l-19.745-14.555h-2.308v11.354l10.363,7.963-10.363,7.963v21.331l73.947,45.6h54.665v45.815l28.227,22.179h42.564l10.702-12.155,10.705,12.152h12.633l-17.341-21.252v-3.451l-6.871-5.997-11.034,8.634,6.478-.054v2.163l-14.438,14.783h-31.719l-24.909-19.577v-48.418h-58.287l-70.328-43.365v-13.048l11.756-7.871h4.385l12.437,8.365.959,3.103,6.063-8.318-15.806-13.339h-2.736v-.006Z"/>
        <path class="cls-9" d="M757.463,363.383l-7.558-5.807,7.558-5.81v11.617ZM555.78,214.688l-8.425,9.568-8.425-9.572,16.851.003ZM781.504,362.332h-.279l-19.748,14.561h-2.305v-11.354l10.363-7.966-10.366-7.963v-21.331l73.95-45.6h54.668v-45.815l28.224-22.179h42.567l10.699,12.158,10.702-12.158,12.636.003-17.341,21.255v3.451l-6.871,5.994-11.037-8.634,6.478.051v-2.156l-14.435-14.786h-31.722l-24.909,19.574v48.427h-58.287l-70.328,43.365v13.045l11.756,7.874h4.385l12.437-8.365.959-3.103,6.063,8.318-15.806,13.339h-2.454v-.003ZM969.28,203.407l-8.425,9.568h16.854l-8.428-9.568ZM735.41,65.324l19.745-14.555h2.308v11.354l-10.366,7.963,10.366,7.963.003,21.331-73.954,45.6h-54.662v45.815l-28.227,22.179h-42.579l-10.699-12.155-10.705,12.152h-12.627l17.348-21.252v-3.451l6.868-5.997,11.034,8.634-6.478-.054v2.163l14.438,14.783h31.719l24.912-19.577v-48.418h58.284l70.335-43.365v-13.048l-11.759-7.871h-4.385l-12.44,8.365-.956,3.103-6.063-8.318,15.806-13.339h2.736v-.006ZM759.169,75.9l7.564-5.813-7.564-5.81v11.623Z"/>
        <path class="cls-10" d="M757.466,214.688v-113.256l-73.574,45.287h-53.522v44.922l-27.201,21.34,156.003-.006v113.259l73.567-45.283h53.522v-44.926l27.198-21.334-155.994-.003Z"/>
        <path class="cls-2" d="M603.169,214.685l27.204,21.34v44.919h53.516l73.577,45.287v-113.259h155.994l-27.198-21.334v-44.922h-53.522l-73.567-45.283v113.253h-156.003Z"/>
        <path class="cls-7" d="M679.479,157.883l-12.665-12.127-12.551,7.947,12.687,12.152-16.29,10.369h35.55l30.636,29.69,9.803-10.635-29.788-28.866v-19.589l-17.383,11.06ZM837.154,269.78l12.665,12.127,12.548-7.947-12.684-12.152,16.29-10.369h-35.554l-30.636-29.687-9.799,10.632,29.788,28.866v19.593l17.383-11.063ZM679.479,269.78l-12.668,12.127-12.548-7.947,12.687-12.152-16.29-10.373h35.55l30.636-29.687,9.803,10.635-29.791,28.866v19.593l-17.379-11.063ZM837.154,157.883l12.665-12.127,12.548,7.947-12.684,12.152,16.29,10.369h-35.554l-30.636,29.69-9.799-10.635,29.788-28.866v-19.589l17.383,11.06Z"/>
        <path class="cls-2" d="M849.682,278.741l-11.341-10.734,9.505-5.972,11.36,10.746-9.524,5.959ZM821.218,276.755v-16.942l-28.99-27.749,7.444-7.979,29.794,28.518h30.168l-38.416,24.152h0ZM666.947,148.925l11.345,10.73-9.508,5.978-11.36-10.749,9.524-5.959ZM695.414,150.911v16.946l28.99,27.749-7.444,7.979-29.797-28.521h-30.168l38.419-24.152h0Z"/>
        <path class="cls-10" d="M849.682,148.925l-11.341,10.73,9.505,5.978,11.36-10.749-9.524-5.959ZM821.218,150.911v16.946l-28.99,27.746,7.444,7.979,29.797-28.521h30.165s-38.416-24.149-38.416-24.149ZM666.947,278.741l11.345-10.734-9.505-5.972-11.36,10.746,9.521,5.959ZM695.414,276.755v-16.942l28.987-27.749-7.441-7.979-29.794,28.521h-30.171l38.419,24.149h0Z"/>
        <path class="cls-7" d="M837.47,213.833l-79.156,52.243-79.156-52.243,79.156-52.243,79.156,52.243Z"/>
        <path class="cls-9" d="M757.444,164.757l-75.119,48.237h151.976l-75.116-48.237v98.153l75.119-48.241h-151.979l75.122,48.241-.003-98.153Z"/>
        <path class="cls-7" d="M779.018,232.308v14.77h-41.402v-14.77h-26.796v-36.95h26.796v-14.77h41.402v14.77h26.789v36.95h-26.789Z"/>
        <path class="cls-2" d="M738.592,183.754v14.099h-27.771v15.15h46.626v-29.25h-18.858.003ZM759.182,213.003h46.626v-15.15h-27.768v-14.099h-18.858v29.25ZM710.824,214.663v15.147h27.768v14.102h18.858v-29.25h-46.626ZM759.182,243.912h18.858v-14.102h27.768v-15.147h-46.623v29.25h-.003Z"/>
        <g class="cls-16">
          <g class="cls-14">
            <g class="cls-13">
              <g>
                <path class="cls-11" d="M893.645,815.758v-23.373h63.822v-23.373h63.822v-211.194h-63.822v-23.373h-63.822v-23.373h-63.822v-23.373h-142.835v23.373h-63.822v23.373h-63.828v23.373h-63.822v211.194h63.822v23.373h63.828v23.373h63.822v23.373h142.835v-23.373h63.822Z"/>
                <path class="cls-6" d="M688.787,489.364v23.354h-63.853v23.36h-63.853v23.354h-63.853v207.882h63.853v23.36h63.853v23.351h63.853v23.357h139.327v-23.357h63.86v-23.351h63.856v-23.36h63.85v-207.882h-63.85v-23.354h-63.856v-23.36h-63.86v-23.354h-139.327ZM705.701,506.351h105.502v23.357h63.856v23.357h63.86v23.354h63.85v173.905h-63.85v23.36h-63.86v23.354h-63.856v23.354h-105.499v-23.354h-63.856v-23.354h-63.853v-23.36h-63.853v-173.905h63.853v-23.354h63.853v-23.357h63.853v-23.357Z"/>
                <path class="cls-5" d="M643.485,795.349v-23.376h-63.822v-23.367h-63.825v-170.384h63.825v-23.373h63.822v-23.373h63.822v-23.373h102.196v23.373h63.825v23.373h63.822v23.373h63.825v170.378h-63.825v23.37h-63.822v23.376h-63.825v23.373h-102.199v-23.373l-63.818.003Z"/>
                <path class="cls-11" d="M658.303,548.779l-16.531-12.548v24.095l-15.831,10.103-.041-15.084-15.182,13.697-15.182-13.697-.041,15.084-17.541-11.196v22.344l-14.175,10.306-.041-13.7-16.844,12.253-16.841-12.253-.038,13.7-15.888-11.55v67.678h-18.611v30.807h18.611v67.678l15.888-11.557.038,13.703,16.844-12.253,16.838,12.253.041-13.7,14.175,10.306v22.344l17.541-11.196.044,15.084,15.182-13.694,15.182,13.694.041-15.084,15.831,10.1v24.101l16.528-12.551.038,16.832,16.198-14.552,16.205,14.552.035-16.832,14.821,11.25v25.703l22.16-20.286v23.835l30.649-19.789,30.649,19.789v-23.835l22.157,20.286v-25.703l14.821-11.25.035,16.832,16.202-14.552,16.205,14.552.035-16.832,16.528,12.551v-24.101l15.834-10.1.038,15.084,15.185-13.694,15.182,13.694.041-15.084,17.544,11.196v-22.344l14.175-10.306.041,13.7,16.841-12.253,16.841,12.253.041-13.7,15.885,11.55v-67.675h18.611v-30.807h-18.611v-67.678l-15.885,11.55-.041-13.697-16.841,12.25-16.844-12.253-.035,13.7-14.178-10.306v-22.341l-17.544,11.196-.038-15.084-15.182,13.694-15.185-13.694-.041,15.084-15.834-10.107v-24.095l-16.525,12.548-.038-16.832-16.202,14.552-16.205-14.552-.035,16.835-14.818-11.256v-25.697l-22.16,20.286v-23.839l-30.649,19.789-30.649-19.789v23.839l-22.16-20.286v25.7l-14.818,11.253-.038-16.835-16.202,14.552-16.202-14.552-.035,16.831Z"/>
                <path class="cls-1" d="M531.72,595.218l.041-13.703,15.138,11.018.51-.374,14.631-10.645.038,13.703,15.882-11.544v159.429l-15.882-11.547-.038,13.703-15.141-11.015-15.135,11.015-.044-13.703-15.879,11.547v-66.032h-18.611v-27.369h18.611v-66.032l15.879,11.547ZM660.057,535.762l14.501,13.023,14.501-13.02.035,16.445,16.521-12.545v247.46l-16.521-12.545-.032,16.445-14.501-13.023-14.501,13.023-.032-16.445-16.525,12.545v-247.46l16.521,12.545.032-16.449ZM856.781,535.762l-14.501,13.023-14.501-13.02-.038,16.445-16.518-12.545v247.46l16.518-12.545.035,16.445,14.501-13.023,14.501,13.023.035-16.445,16.521,12.545v-247.46l-16.521,12.545-.032-16.449ZM985.114,595.218l-.041-13.703-15.135,11.018-15.144-11.018-.041,13.703-15.879-11.544v159.429l15.879-11.547.041,13.703,15.141-11.015,15.138,11.015.041-13.703,15.879,11.547v-66.032h18.608v-27.369h-18.608v-66.032l-15.879,11.547Z"/>
                <path class="cls-6" d="M597.226,559.177l13.482,12.165,13.482-12.165.041,14.365,17.535-11.193v202.1l-17.535-11.186-.041,14.362-13.482-12.161-13.482,12.161-.041-14.362-17.535,11.189v-202.103l17.535,11.193.041-14.365ZM729.477,536.003l-22.16-20.283v295.39l22.164-20.289v24.583l28.933-18.681h.003l28.939,18.681v-24.583l22.157,20.289v-295.39l-22.16,20.283v-24.579l-28.936,18.684-28.939-18.681v24.576ZM919.567,559.177l-13.482,12.165-13.485-12.165-.032,14.365-17.541-11.193v202.1l17.541-11.186.032,14.362,13.488-12.161,13.479,12.161.041-14.362,17.535,11.189v-202.103l-17.535,11.193-.041-14.365Z"/>
                <path class="cls-11" d="M540.022,634.384c1.938,1.963,4.255,2.957,6.883,2.957s4.946-.994,6.887-2.957c6.06-6.133,6.263-17.224,6.206-25.21l-8.273,8.78-4.819-8.356-4.819,8.356-8.27-8.78c-.06,7.982.146,19.076,6.206,25.21h0ZM606.608,617.185l-5.107-5.12v-10.211l-11.728,10.917,20.964,21.049,20.96-21.049-11.725-10.917v10.211l-5.104,5.12v-18.086l9.04-7.795-13.172-11.36-13.172,11.36,9.043,7.795v18.086ZM670.398,596.902l-5.104-5.129v-10.205l-11.728,10.914,20.964,21.052,20.96-21.052-11.725-10.914v10.205l-5.107,5.129v-18.089l9.043-7.798-13.172-11.357-13.172,11.357,9.04,7.798v18.089Z"/>
                <path class="cls-8" d="M546.89,613.018l4.483,7.773,6.82-7.235c-.237,9.014-2.207,16.135-5.636,19.602-1.605,1.627-3.511,2.451-5.668,2.451s-4.065-.823-5.668-2.447c-3.429-3.47-5.402-10.591-5.636-19.605l6.817,7.235,4.487-7.773h0ZM676.984,578.019v23.025l8.527-8.561v-6.985l7.548,7.029-18.491,18.573-18.5-18.576,7.548-7.029v6.988l8.527,8.561v-23.025l-8.125-7.007,10.547-9.097,10.547,9.097-8.128,7.007Z"/>
                <path class="cls-5" d="M613.156,598.305v23.022l8.523-8.561v-6.985l7.551,7.029-18.497,18.576-18.497-18.576,7.551-7.029v6.985l8.527,8.561v-23.018l-8.128-7.01,10.547-9.097,10.547,9.097-8.124,7.007Z"/>
                <path class="cls-11" d="M976.813,634.384c-1.938,1.963-4.255,2.957-6.883,2.957s-4.946-.994-6.887-2.957c-6.06-6.133-6.263-17.224-6.203-25.21l8.27,8.78,4.819-8.356,4.819,8.356,8.27-8.78c.06,7.982-.146,19.076-6.206,25.21h0ZM910.227,617.185l5.107-5.12v-10.211l11.728,10.917-20.964,21.049-20.96-21.049,11.725-10.917v10.211l5.104,5.12v-18.086l-9.04-7.795,13.172-11.36,13.175,11.36-9.046,7.795v18.086ZM846.437,596.902l5.104-5.129v-10.205l11.728,10.914-20.964,21.052-20.96-21.052,11.725-10.914v10.205l5.107,5.129v-18.089l-9.043-7.798,13.172-11.357,13.175,11.357-9.043,7.798v18.089Z"/>
                <path class="cls-8" d="M969.945,613.018l-4.483,7.773-6.82-7.235c.238,9.014,2.207,16.135,5.636,19.602,1.605,1.627,3.511,2.451,5.668,2.451s4.065-.823,5.671-2.447c3.426-3.47,5.398-10.591,5.636-19.605l-6.82,7.235-4.487-7.773h0ZM839.851,578.019v23.025l-8.527-8.561v-6.985l-7.548,7.029,18.494,18.573,18.497-18.576-7.548-7.029v6.988l-8.527,8.561v-23.025l8.125-7.007-10.547-9.097-10.547,9.097,8.128,7.007Z"/>
                <path class="cls-5" d="M903.679,598.305v23.022l-8.523-8.561v-6.985l-7.551,7.029,18.497,18.576,18.497-18.576-7.551-7.029v6.985l-8.527,8.561v-23.018l8.128-7.01-10.547-9.097-10.547,9.097,8.124,7.007Z"/>
                <path class="cls-11" d="M783.486,604.596l-6.868-9.53,17.611-16.322-16.42-13.545v9.594l-6.864,5.899v-17.405l15.508-11.484-28.059-20.77-28.053,20.77,15.508,11.484v17.405l-6.868-5.899v-9.594l-16.42,13.545,17.611,16.325-6.864,9.53,50.178-.003Z"/>
                <path class="cls-5" d="M736.661,602.874l5.794-8.042-17.281-16.021,12.101-9.986v6.754l10.29,8.84v-22.005l-14.34-10.616,25.175-18.633,25.175,18.633-14.337,10.616v22.005l10.29-8.84v-6.754l12.101,9.989-17.281,16.021,5.794,8.042-43.482-.003Z"/>
                <path class="cls-11" d="M745.564,551.799l12.823,9.489,12.823-9.489-12.823-9.489-.507.38-12.317,9.109Z"/>
                <path class="cls-1" d="M758.419,544.425c.845.624,8.438,6.247,9.942,7.352-1.504,1.108-9.097,6.735-9.942,7.358-.849-.624-8.441-6.247-9.939-7.358,1.498-1.105,9.09-6.728,9.942-7.352h-.003Z"/>
                <path class="cls-11" d="M540.022,692.443c1.938-1.963,4.255-2.957,6.883-2.957s4.946.994,6.887,2.957c6.06,6.133,6.263,17.224,6.206,25.21l-8.273-8.777-4.819,8.353s-3.932-6.823-4.819-8.353l-8.27,8.777c-.06-7.982.146-19.076,6.206-25.21ZM606.608,709.642l-5.107,5.12v10.211l-11.728-10.914,20.964-21.052,20.96,21.052-11.725,10.914v-10.211l-5.104-5.12v18.086l9.04,7.795-13.172,11.36-13.172-11.36,9.043-7.795v-18.086ZM670.398,729.928l-5.104,5.126v10.208l-11.728-10.917,20.964-21.052,20.96,21.052-11.725,10.917v-10.208l-5.107-5.129v18.089l9.043,7.798-13.172,11.357-13.172-11.357,9.04-7.798v-18.086Z"/>
                <path class="cls-8" d="M546.89,713.809l4.483-7.773,6.82,7.235c-.237-9.014-2.207-16.135-5.636-19.599-1.605-1.631-3.511-2.454-5.668-2.454s-4.065.823-5.668,2.447c-3.429,3.47-5.402,10.591-5.636,19.605l6.817-7.235,4.487,7.773h0ZM676.984,748.808v-23.025l8.527,8.561v6.985l7.548-7.029-18.491-18.573-18.5,18.576,7.548,7.029v-6.988l8.527-8.561v23.025l-8.125,7.007,10.547,9.097,10.547-9.097-8.128-7.007Z"/>
                <path class="cls-5" d="M613.156,728.522v-23.022l8.523,8.565v6.982l7.551-7.029-18.497-18.576-18.497,18.576,7.551,7.029v-6.982l8.527-8.565v23.022l-8.128,7.007,10.547,9.097,10.547-9.097-8.124-7.007Z"/>
                <path class="cls-11" d="M976.813,692.443c-1.938-1.963-4.255-2.957-6.883-2.957s-4.946.994-6.887,2.957c-6.06,6.133-6.263,17.224-6.203,25.21l8.27-8.777,4.819,8.353s3.932-6.823,4.819-8.353l8.27,8.777c.06-7.982-.146-19.076-6.206-25.21ZM910.227,709.642l5.107,5.12v10.211l11.728-10.914-20.964-21.052-20.96,21.052,11.725,10.914v-10.211l5.104-5.12v18.086l-9.04,7.795,13.172,11.36,13.175-11.36-9.046-7.795v-18.086ZM846.437,729.928l5.104,5.126v10.208l11.728-10.917-20.964-21.052-20.96,21.052,11.725,10.917v-10.208l5.107-5.129v18.089l-9.043,7.798,13.172,11.357,13.175-11.357-9.043-7.798v-18.086Z"/>
                <path class="cls-8" d="M969.945,713.809l-4.483-7.773-6.82,7.235c.238-9.014,2.207-16.135,5.636-19.599,1.605-1.631,3.511-2.454,5.668-2.454s4.065.823,5.671,2.447c3.426,3.47,5.398,10.591,5.636,19.605l-6.82-7.235-4.487,7.773h0ZM839.851,748.808v-23.025l-8.527,8.561v6.985l-7.548-7.029,18.494-18.573,18.497,18.576-7.548,7.029v-6.988l-8.527-8.561v23.025l8.125,7.007-10.547,9.097-10.547-9.097,8.128-7.007Z"/>
                <path class="cls-5" d="M903.679,728.522v-23.022l-8.523,8.565v6.982l-7.551-7.029,18.497-18.576,18.497,18.576-7.551,7.029v-6.982l-8.527-8.565v23.022l8.128,7.007-10.547,9.097-10.547-9.097,8.124-7.007Z"/>
                <path class="cls-11" d="M783.486,722.231l-6.868,9.53,17.611,16.322-16.42,13.548v-9.597l-6.864-5.899v17.405l15.508,11.484-28.059,20.77-28.053-20.77,15.508-11.484v-17.405l-6.868,5.899v9.594l-16.42-13.545,17.611-16.325-6.864-9.53,50.178.003Z"/>
                <path class="cls-5" d="M736.661,723.953l5.794,8.042-17.281,16.021,12.101,9.986v-6.754l10.29-8.84v22.005l-14.34,10.616,25.175,18.633,25.175-18.633-14.337-10.616v-22.005l10.29,8.84v6.754l12.101-9.989-17.281-16.021,5.794-8.042-43.482.003Z"/>
                <path class="cls-11" d="M745.564,775.028l12.823-9.489,12.823,9.489-12.823,9.489-.507-.38-12.317-9.109Z"/>
                <path class="cls-1" d="M758.419,782.405c.845-.627,8.438-6.25,9.942-7.355-1.504-1.108-9.097-6.731-9.942-7.358l-9.939,7.358,9.942,7.355h-.003Z"/>
                <path class="cls-11" d="M985.555,653.555h-28.094v-11.243h-85.868l-59.772-39.432h-106.844l-59.772,39.432h-85.868v11.243h-28.094v19.716h28.094v11.243h85.868l59.772,39.435h106.844l59.772-39.435h85.868v-11.243h28.094v-19.716Z"/>
                <path class="cls-5" d="M705.489,604.659l-59.832,39.283h-84.57v11.253h-28.122v16.35h28.119v11.253h84.57l59.835,39.496h105.929l59.62-39.496h84.785v-11.253h28.119v-16.35h-28.119v-11.253h-84.785l-59.62-39.283h-105.929ZM706.756,610.39h103.184l54.76,36.101v5.519h61.105v22.933h-61.105v5.522l-54.76,35.883h-103.181l-54.548-35.883v-5.522h-61.317v-22.933h61.317v-5.519l54.545-36.101Z"/>
                <path class="cls-5" d="M809.506,612.17l53.408,35.208v6.25h61.2v19.567h-61.2v6.25l-53.408,35.212h-102.206l-53.408-35.208v-6.253h-61.203v-19.567h61.203v-6.247l53.405-35.212h102.209Z"/>
                <path class="cls-11" d="M680.777,683.416l23.123,17.43,15.214-11.468-8.843-6.668-6.37,4.803-5.436-4.097,87.084-65.664h-17.687l-87.084,65.664ZM731.253,709.072h17.687l87.084-65.661-23.12-17.433-15.214,11.471,8.84,6.665,6.374-4.803,5.436,4.1-87.087,65.661ZM767.861,709.072h17.683l-87.081-65.661,5.436-4.1,6.37,4.803,8.84-6.665-15.211-11.471-23.123,17.433,87.084,65.661ZM818.34,683.416l-5.436,4.097-6.374-4.803-8.84,6.668,15.214,11.468,23.12-17.43-87.084-65.664h-17.687l87.087,65.664ZM663.252,663.409l15.546,10.369,15.537-10.369-15.54-10.366-15.543,10.366Z"/>
                <path class="cls-11" d="M742.851,663.409l15.54,10.369,15.546-10.369-15.546-10.366-15.54,10.366ZM853.542,663.409l-15.54,10.369-15.543-10.369,15.546-10.366,15.537,10.366Z"/>
                <path class="cls-6" d="M833.186,683.416l-20.273,15.283-12.367-9.321,5.997-4.521,6.37,4.803,8.286-6.244-84.807-63.945h11.987l84.807,63.945ZM780.427,707.353h-11.984l-84.807-63.942,20.277-15.287,12.361,9.325-5.994,4.518-6.364-4.806-8.292,6.25,84.804,63.942ZM748.379,707.353h-11.987l84.807-63.942-8.286-6.25-6.37,4.806-5.994-4.518,12.364-9.325,20.273,15.287-84.807,63.942ZM768.443,619.471h11.984l-84.801,63.942,8.286,6.247,6.37-4.803,5.99,4.521-12.361,9.321-20.273-15.287,84.804-63.942Z"/>
                <path class="cls-1" d="M678.82,655.113l12.45,8.302-12.45,8.302-12.45-8.302,12.45-8.302ZM758.419,655.113l12.45,8.302-12.45,8.302-12.45-8.302,12.45-8.302ZM838.015,655.113l-12.45,8.302,12.45,8.302,12.446-8.302-12.446-8.302Z"/>
              </g>
            </g>
          </g>
        </g>
        <g class="cls-17">
          <g class="cls-15">
            <g class="cls-18">
              <g>
                <path class="cls-5" d="M553.513,1414.53v46.86h-44.527v42.503h-45.135v121.019h45.135v42.5h44.527v46.863h161.911l28.474,17.155-13.684,8.245h-57.73l-4.98-5.63h52.319l-14.739-14.888h-74.84l33.91,35.401h70.183l23.975-14.444,23.975,14.444h70.186l33.907-35.398h-74.84l-14.745,14.881h52.325l-4.98,5.633h-57.736l-13.684-8.245,28.477-17.155h161.911v-46.86h44.527v-42.503h45.131v-121.019h-45.131v-42.503h-44.527v-46.86h-161.911l-28.477-17.155,13.684-8.248h57.736l4.98,5.636h-52.325l14.745,14.881h74.84l-33.907-35.398h-70.186l-23.975,14.441-23.975-14.444h-70.189l-33.91,35.402h74.843l14.739-14.881h-52.316l4.98-5.636h57.73l13.684,8.248-28.474,17.155h-161.911Z"/>
                <path class="cls-6" d="M800.707,1712.491h160.753v-46.819h44.359v-42.579h45.207v-117.568h-45.207v-42.364h-44.359v-46.819h-160.753l-66.75-40.458h-69.074l-30.627,31.985h70.132l11.405-11.436h-52.179l8.03-9.109h59.145l75.622,45.758h138.152v46.816h44.571v42.579h45.204v83.886h-45.204v42.579h-44.571v46.819h-138.152l-75.622,45.543h-59.145l-8.026-8.897h52.179l-11.408-11.44h-70.132l30.627,31.992h69.074l66.75-40.468ZM710.09,1695.754h-138.152v-46.819h-44.359v-42.576h-45.204v-83.889h45.204v-42.579h44.359v-46.816h138.152l75.834-45.758h58.936l8.026,9.109h-51.964l11.408,11.44h70.132l-30.63-31.988h-69.074l-66.75,40.458h-160.749v46.819h-44.577v42.364h-45.204v117.568h45.204v42.58h44.571v46.816h160.749l66.754,40.461h69.074l30.63-31.988h-70.132l-11.408,11.436h51.964l-8.026,8.897h-58.936l-75.831-45.533Z"/>
                <path class="cls-1" d="M931.184,1635.393v46.86h-128.419l-44.444,26.786-44.441-26.786h-128.422v-46.86h-44.53v-42.503h-45.131v-56.979h45.131v-42.507h44.533v-46.86h128.419l44.441-26.777,44.444,26.78h128.419v46.857h44.53v42.507h45.128v56.976h-45.128v42.503l-44.53.003Z"/>
                <path class="cls-11" d="M602.28,1618.97v45.353h70.591l-70.591-46.955v1.602ZM602.28,1509.824v-45.356h70.591l-70.591,46.955v-1.599ZM914.394,1618.97v45.353h-70.591l70.591-46.955v1.602ZM914.394,1509.824v-45.356h-70.591l70.591,46.955v-1.599Z"/>
                <path class="cls-5" d="M603.996,1620.569l63.211,42.047h-63.211v-42.047ZM603.996,1508.225l63.211-42.047h-63.211v42.047ZM912.678,1620.569l-63.211,42.047h63.211v-42.047ZM912.678,1508.225c-2.457-1.634-58.904-39.179-63.211-42.047h63.211v42.047Z"/>
                <path class="cls-11" d="M692.295,1551.941v-23.164h-7.881l-37.792-23.696-.453.285-37.339,23.411h-7.878v23.164h-17.763v24.874h17.763v23.158h7.878l37.792,23.696,37.792-23.696h7.878v-23.158h27.049v-24.874h-27.046Z"/>
                <path class="cls-5" d="M646.629,1507.107l34.569,21.673h-69.135l34.566-21.673ZM681.195,1599.976l-34.566,21.676-34.563-21.676h69.128ZM672.833,1553.657v21.448h-43.108v-21.448h43.108Z"/>
                <path class="cls-6" d="M690.617,1576.815v21.448h-43.108v-21.448h43.108ZM645.79,1576.815v21.448h-43.105v-21.448h43.105ZM717.657,1553.657v21.448h-43.108v-21.448h43.108ZM628.005,1553.657v21.448h-43.108v-21.448h43.108ZM690.617,1530.499v21.451h-43.108v-21.451h43.108ZM645.79,1530.499v21.451h-43.105v-21.451h43.105Z"/>
                <path class="cls-11" d="M616.16,1558.416v11.918h-19.365v-11.918h19.365ZM633.91,1535.261v11.915h-19.368v-11.915h19.368ZM678.735,1535.261v11.915h-19.365v-11.915h19.365ZM660.95,1558.416v11.918h-19.368v-11.918h19.368ZM705.774,1558.416v11.918h-19.365v-11.918h19.365ZM678.735,1581.573v11.918h-19.365v-11.918h19.365ZM633.91,1581.573v11.918h-19.368v-11.918h19.368Z"/>
                <path class="cls-8" d="M614.324,1560.258h-15.717v8.258h15.717v-8.258ZM632.112,1537.101h-15.717v8.261h15.717v-8.261ZM676.898,1537.101h-15.714v8.261h15.714v-8.261ZM659.151,1560.258h-15.717v8.258h15.717v-8.258ZM703.938,1560.258h-15.714v8.258h15.714v-8.258ZM676.898,1583.416h-15.714v8.258h15.714v-8.258ZM632.112,1583.416h-15.717v8.258h15.717v-8.258Z"/>
                <path class="cls-11" d="M824.343,1551.941v-23.164h7.878l37.792-23.696.453.285,37.339,23.411h7.878v23.164h17.766v24.874h-17.766v23.158h-7.878l-37.792,23.696-37.792-23.696h-7.878v-23.158h-27.049v-24.874h27.049Z"/>
                <path class="cls-5" d="M870.006,1507.107l-34.569,21.673h69.135l-34.566-21.673ZM835.441,1599.976l34.566,21.676,34.562-21.676h-69.128ZM843.803,1553.657v21.448h43.108v-21.448h-43.108Z"/>
                <path class="cls-6" d="M826.018,1576.815v21.448h43.108v-21.448h-43.108ZM870.845,1576.815v21.448h43.105v-21.448h-43.105ZM798.978,1553.657v21.448h43.108v-21.448h-43.108ZM888.63,1553.657v21.448h43.108v-21.448h-43.108ZM826.018,1530.499v21.451h43.108v-21.451h-43.108ZM870.845,1530.499v21.451h43.105v-21.451h-43.105Z"/>
                <path class="cls-11" d="M900.475,1558.416v11.918h19.365v-11.918h-19.365ZM882.728,1535.261v11.915h19.365v-11.915h-19.365ZM837.901,1535.261v11.915h19.365v-11.915h-19.365ZM855.689,1558.416v11.918h19.365v-11.918h-19.365ZM810.861,1558.416v11.918h19.365v-11.918h-19.365ZM837.901,1581.573v11.918h19.365v-11.918h-19.365ZM882.728,1581.573v11.918h19.365v-11.918h-19.365Z"/>
                <path class="cls-8" d="M902.311,1560.258h15.717v8.258h-15.717v-8.258ZM884.523,1537.101h15.717v8.261h-15.717v-8.261ZM839.737,1537.101h15.714v8.261h-15.714v-8.261ZM857.484,1560.258h15.717v8.258h-15.717v-8.258ZM812.698,1560.258h15.714v8.258h-15.714v-8.258ZM839.737,1583.416h15.714v8.258h-15.714v-8.258ZM884.523,1583.416h15.717v8.258h-15.717v-8.258Z"/>
                <path class="cls-11" d="M804.003,1513.262v23.161h-7.878l-37.795,23.696-.453-.285-37.336-23.411h-7.878v-23.161h-22.407v-24.874h22.407v-23.161h7.878l37.789-23.696,37.795,23.696h7.878v23.161h22.404v24.874h-22.404Z"/>
                <path class="cls-6" d="M758.337,1558.099l34.569-21.676h-69.135l34.566,21.676ZM792.902,1465.224l-34.566-21.673-34.563,21.673h69.128Z"/>
                <path class="cls-5" d="M802.29,1488.385v-21.442h-43.111v21.445l43.111-.003ZM757.46,1488.385v-21.442h-43.108v21.445l43.108-.003ZM824.701,1511.546v-21.451h-43.108v21.451h43.108ZM779.873,1511.546v-21.451h-43.108v21.451h43.108ZM735.046,1511.546v-21.451h-43.099v21.451h43.099ZM802.29,1534.701v-21.448h-43.111v21.448h43.111ZM757.46,1534.701v-21.448h-43.108v21.448h43.108Z"/>
                <path class="cls-11" d="M745.615,1471.708v11.918h-19.361v-11.918h19.361ZM790.401,1471.708v11.918h-19.361v-11.918h19.361ZM723.201,1494.866v11.915h-19.361v-11.915h19.361ZM768.032,1494.866v11.915h-19.368v-11.915h19.368ZM812.815,1494.866v11.915h-19.358v-11.915h19.358ZM745.615,1518.021v11.918h-19.361v-11.918h19.361ZM790.401,1518.021v11.918h-19.361v-11.918h19.361Z"/>
                <path class="cls-8" d="M743.782,1473.551h-15.717v8.258h15.717v-8.258ZM788.612,1473.551h-15.72v8.258h15.717l.003-8.258ZM721.368,1496.706h-15.717v8.261h15.717v-8.261ZM766.195,1496.706h-15.717v8.261h15.717v-8.261ZM810.982,1496.706h-15.717v8.261h15.717v-8.261ZM743.782,1519.864h-15.717v8.258h15.717v-8.258ZM788.612,1519.864h-15.72v8.258h15.717l.003-8.258Z"/>
                <path class="cls-11" d="M804.003,1640.396v23.161h-7.878l-37.795,23.696-.453-.282-37.336-23.414h-7.878v-23.158h-22.407v-24.877h22.407v-23.158h7.878l37.789-23.696,37.795,23.696h7.878v23.158h22.404v24.877l-22.404-.003Z"/>
                <path class="cls-6" d="M758.337,1685.233l34.569-21.676h-69.135l34.566,21.676ZM792.902,1592.361l-34.566-21.676-34.563,21.676h69.128Z"/>
                <path class="cls-5" d="M802.29,1615.522v-21.445h-43.111v21.445h43.111ZM757.46,1615.522v-21.445h-43.108v21.445h43.108ZM824.701,1638.679v-21.448h-43.108v21.448h43.108ZM779.873,1638.679v-21.448h-43.108v21.448h43.108ZM735.046,1638.679v-21.448h-43.099v21.448h43.099ZM802.29,1661.837v-21.448h-43.111v21.448h43.111ZM757.46,1661.837v-21.448h-43.108v21.448h43.108Z"/>
                <path class="cls-11" d="M745.615,1598.842v11.918h-19.361v-11.918h19.361ZM790.401,1598.842v11.918h-19.361v-11.918h19.361ZM723.201,1622v11.918h-19.361v-11.918h19.361ZM768.032,1622v11.918h-19.368v-11.918h19.368ZM812.815,1622v11.918h-19.358v-11.918h19.358ZM745.615,1645.158v11.915h-19.361v-11.915h19.361ZM790.401,1645.158v11.915h-19.361v-11.915h19.361Z"/>
                <path class="cls-8" d="M743.782,1600.685h-15.717v8.258h15.717v-8.258ZM788.612,1600.685h-15.72v8.258h15.717l.003-8.258ZM721.368,1623.843h-15.717v8.258h15.717v-8.258ZM766.195,1623.843h-15.717v8.258h15.717v-8.258ZM810.982,1623.843h-15.717v8.258h15.717v-8.258ZM743.782,1646.997h-15.717v8.261h15.717v-8.261ZM788.612,1646.997h-15.72v8.261h15.717l.003-8.261Z"/>
              </g>
            </g>
          </g>
        </g>
        <path class="cls-9" d="M708.019,1934.665h42.988v28.616h-17.018v-9.372h7.906v-9.872h-24.763v14.964l41.18,25.608-.013.006h.022l-.01-.006,41.177-25.608v-14.964h-24.76v9.872h7.906v9.372h-17.018v-28.616h42.988v22.325h22.531v29.259h-20.115v-9.372h10.999v-10.518h-16.79l-38.121,23.709v.013l38.121,23.709h16.79v-10.518h-10.999v-9.369h20.115v29.256h-22.531v22.325h-42.991v-28.613h17.022v9.372h-7.906v9.872h24.76v-14.964l-41.18-25.612.003-.003h-.006l.003.003-41.177,25.608v14.964h24.763v-9.872h-7.906v-9.372h17.018v28.616h-42.988v-22.325h-22.531v-29.259h20.112v9.372h-10.996v10.518h16.787l38.131-23.715.013.009v-.016l-.013.006-38.131-23.715h-16.787v10.518h10.996v9.372h-20.112v-29.259h22.531v-22.325ZM1468.939,229.664l34.401,25.039,34.366-24.877-13.108,40.35,34.401,25.039-42.5-.098-13.108,40.35-13.159-40.414-42.503-.098,34.369-24.877-13.159-40.414ZM1619.778,307.826l34.401,25.042,34.369-24.88-13.108,40.354,34.401,25.039-42.503-.101-13.108,40.354-13.159-40.414-42.503-.101,34.373-24.877-13.162-40.414ZM1468.936,383.296l34.401,25.039,34.369-24.877-13.108,40.354,34.401,25.039-42.5-.101-13.108,40.354-13.162-40.414-42.5-.101,34.369-24.877-13.162-40.414ZM1317.841,457.183l34.401,25.039,34.369-24.877-13.108,40.35,34.401,25.039-42.5-.098-13.108,40.354-13.162-40.417-42.5-.098,34.369-24.877-13.162-40.414ZM1468.93,536.136l34.401,25.042,34.369-24.88-13.108,40.354,34.401,25.039-42.5-.101-13.108,40.354-13.162-40.414-42.5-.098,34.369-24.877-13.162-40.417Z"/>
      </g>
    </g>
  </g>
</svg>