<?xml version="1.0" encoding="UTF-8"?>
<svg xmlns="http://www.w3.org/2000/svg" viewBox="0 0 3600.818 2401.738">
  <defs>
    <style>
      .cls-1 {
        fill-rule: evenodd;
      }

      .cls-1, .cls-2 {
        fill: #e70013;
      }

      .cls-1, .cls-2, .cls-3 {
        stroke-width: 0px;
      }

      .cls-3 {
        fill: #fff;
      }
    </style>
  </defs>
  <g id="background">
    <path id="tn" class="cls-1" d="M400,.1h2800c220,0,400,180,400,400v1600c0,220-180,400-400,400H400C180,2400.1,0,2220.1,0,2000.1V400.1C0,180.1,180,.1,400,.1Z"/>
  </g>
  <g id="country">
    <g id="tn-2" data-name="tn">
      <circle class="cls-3" cx="1800" cy="1200.1" r="600"/>
      <path class="cls-2" d="M1800,750.1c-248.528,0-450,201.472-450,450s201.472,450,450,450c143.597-.192,278.481-68.904,363.06-184.95-66.294,60.933-153.017,94.811-243.06,94.95-198.823,0-360-161.177-360-360s161.177-360,360-360c90.041.163,176.752,34.062,243.03,95.01-84.56-116.06-219.432-184.795-363.03-185.01Z"/>
      <path class="cls-2" d="M1650,1200.1l488.43-158.7-301.83,415.5v-513.6l301.8,415.5-488.4-158.7Z"/>
    </g>
  </g>
</svg>