<?xml version="1.0" encoding="UTF-8"?>
<svg xmlns="http://www.w3.org/2000/svg" viewBox="0 0 3600.1 2401.738">
  <defs>
    <style>
      .cls-1 {
        fill: #e30a17;
      }

      .cls-1, .cls-2 {
        fill-rule: evenodd;
        stroke-width: 0px;
      }

      .cls-2 {
        fill: #fff;
      }
    </style>
  </defs>
  <g id="background">
    <path id="tr" class="cls-1" d="M400,.1h2800c220,0,400,180,400,400v1600c0,220-180,400-400,400H400C180,2400.1,0,2220.1,0,2000.1V400.1C0,180.1,180,.1,400,.1Z"/>
  </g>
  <g id="country">
    <g id="tr-2" data-name="tr">
      <path class="cls-2" d="M679.156,1187.435c0-323.455,262.661-585.752,586.562-585.752,208.676,0,391.95,108.725,495.834,272.717-85.738-95.585-210.491-155.839-349.308-155.839-259.029,0-469.067,210.199-469.067,468.874s210.038,468.874,469.52,468.874c138.817,0,263.569-60.253,349.308-155.839-103.884,163.992-287.158,272.717-495.834,272.717-324.355,0-587.015-262.297-587.015-585.752ZM2290.765,1015.275l-202.186,65.693-124.841-172.16v212.935l-201.733,65.693,201.733,65.693v212.935l124.841-172.16,202.186,65.693-124.841-172.16,124.841-172.16Z"/>
    </g>
  </g>
</svg>