<?xml version="1.0" encoding="UTF-8"?>
<svg xmlns="http://www.w3.org/2000/svg" viewBox="0 0 3600.1 2401.738">
  <defs>
    <style>
      .cls-1 {
        fill: #5b97b1;
      }

      .cls-1, .cls-2, .cls-3, .cls-4, .cls-5, .cls-6, .cls-7 {
        stroke-width: 0px;
      }

      .cls-1, .cls-2, .cls-3, .cls-6, .cls-7 {
        fill-rule: evenodd;
      }

      .cls-2 {
        fill: #fedd00;
      }

      .cls-3 {
        fill: #00247d;
      }

      .cls-4, .cls-7 {
        fill: #eee;
      }

      .cls-5, .cls-6 {
        fill: #cf1b2b;
      }
    </style>
  </defs>
  <g id="background">
    <path id="tv" class="cls-1" d="M400,.1h2800c220,0,400,180,400,400v1600c0,220-180,400-400,400H400C180,2400.1,0,2220.1,0,2000.1V400.1C0,180.1,180,.1,400,.1Z"/>
  </g>
  <g id="country">
    <g id="tv-2" data-name="tv">
      <g>
        <path class="cls-2" d="M1793.662,1848.554h108.941l33.664-104.099,33.664,104.099h108.941l-88.137,64.337,33.668,104.099-88.137-64.337-88.137,64.337,33.668-104.099-88.137-64.337ZM2842.606,1397.343h110.152l34.038-102.888,34.038,102.888h110.152l-89.116,63.589,34.041,102.888-89.116-63.589-89.116,63.589,34.042-102.888-89.116-63.589ZM3162.676,1192.568h108.951l33.655-104.099,33.655,104.099h108.951l-88.13,64.337,33.655,104.099-88.13-64.337-88.13,64.337,33.655-104.099-88.13-64.337ZM3162.676,491.005h108.951l33.655-102.888,33.655,102.888h108.951l-88.13,63.589,33.655,102.888-88.13-63.589-88.13,63.589,33.655-102.888-88.13-63.589Z"/>
        <path class="cls-2" d="M2914.869,837.068l88.251-63.89-33.49-103.674,88.032,64.192,88.251-63.89-33.845,103.56,88.035,64.188-108.951-.187-33.842,103.56-33.49-103.674-108.951-.184ZM2598.759,944.814l88.251-63.891-33.49-103.674,88.032,64.192,88.251-63.89-33.845,103.56,88.035,64.188-108.951-.187-33.842,103.563-33.49-103.677-108.951-.184ZM2219.647,1467.248l88.251-63.887-33.49-103.677,88.032,64.192,88.251-63.887-33.845,103.557,88.035,64.192-108.951-.187-33.842,103.56-33.49-103.674-108.951-.187ZM2219.647,1831.881l88.251-63.891-33.493-103.674,88.035,64.191,88.251-63.891-33.845,103.56,88.035,64.188-108.951-.187-33.842,103.563-33.49-103.677-108.951-.184ZM2598.759,1739.578l88.251-63.891-33.49-103.674,88.032,64.192,88.251-63.891-33.845,103.56,88.035,64.191-108.951-.187-33.842,103.56-33.49-103.677-108.951-.184Z"/>
      </g>
    </g>
    <g id="mini-gb">
      <path class="cls-3" d="M1600,.1v1200H0V400.1C0,180.1,180,.1,400,.1h1200Z"/>
      <path id="Path" class="cls-7" d="M1534.9.1h65.1v255.8l-545.5,354.3,545.5,354.2v235.7h-96l-679-440.9-679,440.9H0v-203.2l595.5-386.7L31.6,243.9C65.5,164.1,124.5,97.6,198.7,54.3l626.3,406.7L1534.9.1Z"/>
      <path id="Path-2" class="cls-6" d="M0,1189.3v-119.2l708.2-460L60,189.3c17.8-28.7,39.2-54.9,63.4-78.2l676.6,439.4L1600,31.1v119.3l-708.2,459.7,708.2,460v119.2l-800-519.5L0,1189.3Z"/>
      <polygon id="Shape" class="cls-4" points="1000 400.1 1600 400.1 1600 800.1 1000 800.1 1000 1200.1 600 1200.1 600 800.1 0 800.1 0 400.1 600 400.1 600 .1 1000 .1 1000 400.1"/>
      <polygon id="Shape-2" class="cls-5" points="900 500.1 900 .1 700 .1 700 500.1 0 500.1 0 700.1 700 700.1 700 1200.1 900 1200.1 900 700.1 1600 700.1 1600 500.1 900 500.1"/>
    </g>
  </g>
</svg>