<?xml version="1.0" encoding="UTF-8"?>
<svg xmlns="http://www.w3.org/2000/svg" viewBox="0 0 3600.1 2401.738">
  <defs>
    <style>
      .cls-1, .cls-2, .cls-3, .cls-4 {
        stroke-width: 0px;
      }

      .cls-1, .cls-3 {
        fill-rule: evenodd;
      }

      .cls-1, .cls-4 {
        fill: #000095;
      }

      .cls-2 {
        fill: #fff;
      }

      .cls-3 {
        fill: #fe0000;
      }
    </style>
  </defs>
  <g id="background">
    <path id="tw" class="cls-3" d="M400,.1h2800c220,0,400,180,400,400v1600c0,220-180,400-400,400H400C180,2400.1,0,2220.1,0,2000.1V400.1C0,180.1,180,.1,400,.1Z"/>
  </g>
  <g id="country">
    <g id="tw-2" data-name="tw">
      <path class="cls-1" d="M1600,.1v1200H0V400.1C0,180.1,180,.1,400,.1h1200Z"/>
      <path class="cls-2" d="M800,150.1l-225,839.712,614.712-614.712-839.712,225,839.712,225L575,210.388l225,839.712,225-839.712L410.288,825.1l839.712-225-839.712-225,614.712,614.712-225-839.712"/>
      <circle class="cls-2" cx="800" cy="600.1" r="240"/>
      <path class="cls-4" d="M800,855.1c-68.113,0-132.149-26.524-180.312-74.688-48.164-48.163-74.688-112.199-74.688-180.312s26.524-132.149,74.688-180.312c48.163-48.164,112.199-74.688,180.312-74.688s132.149,26.524,180.312,74.688c48.164,48.163,74.688,112.199,74.688,180.312s-26.524,132.149-74.688,180.312c-48.163,48.164-112.199,74.688-180.312,74.688ZM800,375.1c-124.065,0-225,100.935-225,225s100.935,225,225,225,225-100.935,225-225-100.935-225-225-225Z"/>
    </g>
  </g>
</svg>