<?xml version="1.0" encoding="UTF-8"?>
<svg xmlns="http://www.w3.org/2000/svg" viewBox="0 0 3600.818 2401.738">
  <defs>
    <style>
      .cls-1, .cls-2, .cls-3, .cls-4, .cls-5, .cls-6, .cls-7, .cls-8 {
        stroke-width: 4px;
      }

      .cls-1, .cls-3, .cls-4, .cls-7, .cls-8 {
        stroke: #000;
      }

      .cls-2, .cls-3, .cls-9 {
        fill: #fff;
      }

      .cls-2, .cls-6 {
        stroke: #fff;
      }

      .cls-10 {
        fill: #fcdc02;
      }

      .cls-10, .cls-11, .cls-12, .cls-9 {
        stroke-width: 0px;
      }

      .cls-11 {
        fill: #d90001;
      }

      .cls-12 {
        fill: #141414;
        fill-rule: evenodd;
      }

      .cls-4 {
        fill: #fcdc04;
      }

      .cls-5 {
        stroke: #9ca69c;
      }

      .cls-5, .cls-8 {
        fill: #9ca69c;
      }

      .cls-7 {
        fill: #d90000;
      }
    </style>
  </defs>
  <g id="background">
    <path id="ug" class="cls-12" d="M400,.1h2800c220,0,400,180,400,400v1600c0,220-180,400-400,400H400C180,2400.1,0,2220.1,0,2000.1V400.1C0,180.1,180,.1,400,.1Z"/>
  </g>
  <g id="country">
    <g id="ug-2" data-name="ug">
      <rect class="cls-10" x="0" y="400.1" width="3600" height="800"/>
      <rect class="cls-11" x="0" y="800.1" width="3600" height="400"/>
      <path class="cls-10" d="M0,2000.1C0,2220.1,180,2400.1,400,2400.1h2800c220,0,400-180,400-400v-400H0v400Z"/>
      <path class="cls-11" d="M400,2400.1h2800c220,0,400-180,400-400H0C0,2220.1,180,2400.1,400,2400.1Z"/>
      <circle class="cls-9" cx="1800" cy="1200.1" r="374"/>
      <g>
        <path class="cls-7" d="M1734.08,913.66l-24.256-44.68c9.36-9.36,25.108-16.596,50.212-16.596,0,1.704-2.552,48.94-2.552,48.94l-23.404,12.336Z"/>
        <path class="cls-4" d="M1757.484,901.748l3.404-49.36s50.216-2.98,77.448,29.784c.428-.424-26.808,38.296-26.808,38.296l-54.044-18.72Z"/>
        <path class="cls-7" d="M1812.38,920.044l24.68-38.296c16.6,17.448,23.4,29.788,25.96,48.512.424.424-39.152,9.784-39.152,9.36,0-.428-11.06-19.152-11.488-19.576Z"/>
        <path class="cls-1" d="M1746.42,1552.392s46.384-53.192,136.6-41.7c-13.62-22.132-57.448-19.576-57.448-19.576,0,0-13.616-103.404-2.98-108.512,10.64-5.108,55.744.424,55.744.424,5.956,0,16.172-16.168,8.088-26.38-8.088-10.216-31.92-49.364-22.132-57.024,9.792-7.66,62.98,4.256,62.98,4.256l-150.212-192.344s-15.32-72.34,15.32-107.236c37.024-30.64,33.192-63.828,31.916-63.404-5.108-33.616-56.172-57.876-90.64-26.808-20.428,24.68-6.812,43.404-6.812,43.404,0,0-53.616,14.468-55.744,23.828-2.128,9.364,60.428-1.7,60.428-1.7l-5.96,42.98s-121.704,110.64-28.508,206.384c.848-.424,2.976-4.256,2.976-4.256,0,0,32.768,40.428,67.236,49.36,32.34,33.196,29.36,28.088,29.36,28.088,0,0,6.384,52.344.428,62.556-8.084-2.556-90.64-5.532-102.98-.852-11.064,3.404-53.616,1.276-42.98,70.64,8.084-18.724,15.32-35.32,15.32-35.32,0,0-1.28,25.104,8.936,34.04-1.7-26.384,9.788-44.252,9.788-44.252,0,0,2.128,28.936,8.508,33.188,6.384,4.256,6.384-46.808,41.708-42.552,35.316,4.256,60.848,2.98,60.848,2.98,0,0,11.916,100,8.084,109.36-25.532-5.956-86.38,2.56-90.212,17.876,35.744-2.128,52.344,2.124,52.344,2.124,0,0-28.936,25.536-20,40.428h-.004Z"/>
        <path class="cls-5" d="M1760.764,1006.74s-88.556,97.612-50.348,172.304c2.032-10.416,1.144-16.96,2.424-16.536-2.128-1.28,10.98,8.988,9.984,6.988.28-5.4-3.992-16.972-3.992-16.972l11.98,2.996-6.992-12.98,16.976,1.996s-5.992-15.976-3.992-15.976,13.976,1,13.976,1c-25.184-45.2-1.424-82.732,9.984-122.82h0ZM1791.528,923.02s4.68,33.62-13.616,43.408c-2.98,2.128-14.468,5.96-12.768,12.768,2.128,9.36,7.232,7.66,14.468,5.956,19.148-3.404,41.28-44.256,11.916-62.128v-.004Z"/>
        <circle class="cls-9" cx="1752" cy="952.1" r="7.2"/>
        <path class="cls-7" d="M1730.252,980.044c-4.68,3.832-29.36,29.364-5.108,38.724,25.108-6.808,18.296-11.488,23.832-17.02.14-11.488-12.484-14.468-18.724-21.704Z"/>
        <path class="cls-5" d="M1783.868,1221.328c-1.28,5.532-6.808,25.956.848,41.7,21.28-8.936,31.068-6.384,38.3-1.704-17.44-14.04-24.252-20-39.148-40v.004Z"/>
        <path class="cls-2" d="M1820.464,1317.92l1.28,47.66s16.592,2.98,24.252,0c7.66-2.98-.428-33.192-25.532-47.66Z"/>
        <path class="cls-8" d="M1940.892,1323.88s-30.64-74.04-108.94-92.768c-78.3-18.724-68.088-102.128-61.704-107.236,3.408-7.236,5.96-18.296,28.512-7.656,22.556,10.64,126.384,62.976,141.28,65.528,14.892,2.556,2.128,143.836.852,142.132Z"/>
        <path class="cls-7" d="M1866.424,1230.688c-1.28.848,104.68,62.548,72.764,115.744,30.216-20,20.428-54.892,20.428-54.892,0,0,24.68,64.256-35.32,95.744,6.384,5.536,10.64,4.256,10.64,4.256l-10.216,10.212s-4.68,7.66,35.748-11.92c-11.068,8.94-11.916,15.32-11.916,15.32,0,0,2.976,8.516,29.36-14.464-21.28,22.98-25.96,34.892-25.96,34.468,57.448-5.108,182.56-191.916-39.572-247.24,11.92,12.344,10.212,10.64,10.212,10.64l-56.168,42.132Z"/>
        <path class="cls-3" d="M1871.104,1212.388c14.468,10.212,19.572,13.616,21.276,18.724-13.192-2.976-25.108-2.128-25.108-2.128,0,0-28.508-27.232-33.616-29.36-3.832,0-25.96-14.044-25.96-14.044-11.06-5.532-21.272-43.828,19.58-32.768,42.12,20,48.08,21.704,48.08,21.704,16.74,5.248,33.476,10.5,50.216,15.744l28.936,32.344s-51.488-25.536-57.872-25.96c14.04,11.488,22.128,27.232,22.128,27.232-16.312-4.68-30.496-8.936-47.66-11.488h0Z"/>
        <path class="cls-6" d="M1670.676,983.876s49.36-11.916,55.32-10.212"/>
      </g>
    </g>
  </g>
</svg>