<?xml version="1.0" encoding="UTF-8"?>
<svg xmlns="http://www.w3.org/2000/svg" viewBox="0 0 3600.818 2401.738">
  <defs>
    <style>
      .cls-1 {
        fill: #fff;
      }

      .cls-1, .cls-2 {
        stroke-width: 0px;
      }

      .cls-2 {
        fill: #009edb;
        fill-rule: evenodd;
      }
    </style>
  </defs>
  <g id="background">
    <path id="un" class="cls-2" d="M400,.1h2800c220,0,400,180,400,400v1600c0,220-180,400-400,400H400C180,2400.1,0,2220.1,0,2000.1V400.1C0,180.1,180,.1,400,.1Z"/>
  </g>
  <g id="country">
    <g id="un-2" data-name="un">
      <path id="a" class="cls-1" d="M1988.25,1767.7c-8.082,9.237-18.54,17.868-28.398,25.824-63.699-65.829-138.48-138.786-209.562-138.786-44.07,0-75.81,33.546-112.839,57.216-51.39,32.847-121.878,51.345-182.283,27.24-32.49-12.339-63.969-30.51-87.495-60.03,47.544,32.79,118.74,37.2,172.416,14.931,59.328-24.615,119.712-57.297,187.32-57.297,99.669,0,194.391,67.419,260.841,130.905v-.003ZM1251.63,1560.658c65.988,75.117,173.61,50.949,261.702,69.711,12.261,2.61,23.778,6.681,36.939,4.662-10.47-6.642-24.354-7.389-36.45-11.946-68.349-25.749-79.005-98.901-116.412-149.244,47.778,31.761,87.36,75.246,132.036,116.109,31.092,28.44,69.831,40.611,110.01,48.786-9.654,3.528-22.284,2.697-32.682,5.274-72.168,17.904-152.181,46.164-228.972,20.823-49.56-16.353-101.13-55.083-126.171-104.175h0ZM1145.856,1386.808c41.16,93.189,144.573,100.488,213.333,157.656,13.074,10.872,26.037,20.877,40.398,27.573l.741-.75c-15.867-14.355-33.036-31.464-45.327-49.32-39.3-57.105-26.22-135.156-56.523-195.696,27.531,32.964,53.352,66.906,69.204,104.649,25.509,60.738,34.176,130.026,91.389,176.178-61.92-20.43-133.356-16.362-189.117-52.884-58.611-38.391-112.932-98.988-124.098-167.406ZM1101.765,1198.27c5.952,82.104,93.36,125.961,135.042,193.452,8.901,14.415,18.06,29.295,30.99,40.935-2.016-8.739-9.21-16.485-13.17-25.062-13.365-28.959-19.416-62.469-16.08-96.93,4.062-41.925,21.54-80.859,14.832-124.965,35.925,77.544,24.336,174.486,45.099,258.33,4.593,18.549,15.888,34.782,22.848,52.35-35.298-26.853-81.555-50.688-120.3-81.228-37.47-29.535-69.996-64.152-86.901-109.197-12.18-32.457-15.351-71.172-12.36-107.685h0ZM1104.207,1046.992c4.215-18.324,7.44-37.29,15.414-54.099-15.093,77.451,36.432,133.398,54.024,200.406,6.63,25.251,8.898,52.08,19.11,75.645.951.51,1.776-.48,2.364-1.242-25.419-71.313,11.844-137.22,48.147-193.431,9.54-14.775,14.136-31.98,18.591-49.374,3.924,32.283-2.946,69.654-8.919,102.966-7.689,42.888-22.347,83.085-33.996,124.464-7.671,25.851-5.649,55.026-1.713,82.11l-3.702-2.952c-27.027-49.896-80.352-88.875-96.456-143.334-12.87-43.524-21.774-93.807-12.864-141.159h0ZM1132.713,963.679c0-58.611,22.821-106.422,57.054-150.072.993-.495,1.701-1.491,2.982-1.26-37.683,57.327-3.384,129.687-8.226,194.706l-4.971,66.732c.738.486.738,2.49,2.49,1.722,2.226-7.44,2.901-15.354,4.197-23.037,9.072-53.796,56.31-91.242,96.375-129.222,9.163-8.676,16.294-19.271,20.883-31.026-3.33,26.799-10.806,54.27-22.836,78.624-30.837,62.43-90.396,112.824-101.109,183.771-5.193-67.995-46.839-118.542-46.839-190.938h0ZM1232.049,765.97c18.948-21.012,40.188-37.38,65.472-43.851-49.098,33.759-46.431,94.098-61.464,144.549-5.496,18.447-13.575,35.73-17.871,54.795l1.245.99c8.166-21.552,22.182-42.27,40.443-59.499,34.533-32.58,86.454-52.302,103.542-99.96-.78,66.228-57.237,116.574-108.798,155.52-23.13,17.472-42.78,40.926-54.774,65.514,2.004-18.3,2.913-33.525,1.281-51.387-5.292-57.855-8.727-122.712,30.924-166.671h0ZM1431.333,654.619c-36.438,31.974-60.75,73.131-88.746,110.127-23.28,30.771-55.227,49.836-82.701,75.657,14.829-30.768,17.568-66.024,36.402-95.79,32.205-50.901,85.434-70.656,135.045-89.994h0Z"/>
      <path id="a-2" data-name="a" class="cls-1" d="M1611.75,1767.7c8.082,9.237,18.54,17.868,28.398,25.824,63.699-65.829,138.48-138.786,209.562-138.786,44.07,0,75.81,33.546,112.839,57.216,51.39,32.847,121.878,51.345,182.283,27.24,32.49-12.339,63.969-30.51,87.495-60.03-47.544,32.79-118.74,37.2-172.416,14.931-59.328-24.615-119.712-57.297-187.32-57.297-99.669,0-194.391,67.419-260.841,130.905v-.003ZM2348.37,1560.658c-65.988,75.117-173.61,50.949-261.702,69.711-12.261,2.61-23.778,6.681-36.939,4.662,10.47-6.642,24.354-7.389,36.45-11.946,68.349-25.749,79.005-98.901,116.412-149.244-47.778,31.761-87.36,75.246-132.036,116.109-31.092,28.44-69.831,40.611-110.01,48.786,9.654,3.528,22.284,2.697,32.682,5.274,72.168,17.904,152.181,46.164,228.972,20.823,49.56-16.353,101.13-55.083,126.171-104.175h0ZM2454.144,1386.808c-41.16,93.189-144.573,100.488-213.333,157.656-13.074,10.872-26.037,20.877-40.398,27.573l-.741-.75c15.867-14.355,33.036-31.464,45.327-49.32,39.3-57.105,26.22-135.156,56.523-195.696-27.531,32.964-53.352,66.906-69.204,104.649-25.509,60.738-34.176,130.026-91.389,176.178,61.92-20.43,133.356-16.362,189.117-52.884,58.611-38.391,112.932-98.988,124.098-167.406ZM2498.235,1198.27c-5.952,82.104-93.36,125.961-135.042,193.452-8.901,14.415-18.06,29.295-30.99,40.935,2.016-8.739,9.21-16.485,13.17-25.062,13.365-28.959,19.416-62.469,16.08-96.93-4.062-41.925-21.54-80.859-14.832-124.965-35.925,77.544-24.336,174.486-45.099,258.33-4.593,18.549-15.888,34.782-22.848,52.35,35.298-26.853,81.555-50.688,120.3-81.228,37.47-29.535,69.996-64.152,86.901-109.197,12.18-32.457,15.351-71.172,12.36-107.685h0ZM2495.793,1046.992c-4.215-18.324-7.44-37.29-15.414-54.099,15.093,77.451-36.432,133.398-54.024,200.406-6.63,25.251-8.898,52.08-19.11,75.645-.951.51-1.776-.48-2.364-1.242,25.419-71.313-11.844-137.22-48.147-193.431-9.54-14.775-14.136-31.98-18.591-49.374-3.924,32.283,2.946,69.654,8.919,102.966,7.689,42.888,22.347,83.085,33.996,124.464,7.671,25.851,5.649,55.026,1.713,82.11l3.702-2.952c27.027-49.896,80.352-88.875,96.456-143.334,12.87-43.524,21.774-93.807,12.864-141.159h0ZM2467.287,963.679c0-58.611-22.821-106.422-57.054-150.072-.993-.495-1.701-1.491-2.982-1.26,37.683,57.327,3.384,129.687,8.226,194.706l4.971,66.732c-.738.486-.738,2.49-2.49,1.722-2.226-7.44-2.901-15.354-4.197-23.037-9.072-53.796-56.31-91.242-96.375-129.222-9.163-8.676-16.294-19.271-20.883-31.026,3.33,26.799,10.806,54.27,22.836,78.624,30.837,62.43,90.396,112.824,101.109,183.771,5.193-67.995,46.839-118.542,46.839-190.938h0ZM2367.951,765.97c-18.948-21.012-40.188-37.38-65.472-43.851,49.098,33.759,46.431,94.098,61.464,144.549,5.496,18.447,13.575,35.73,17.871,54.795l-1.245.99c-8.166-21.552-22.182-42.27-40.443-59.499-34.533-32.58-86.454-52.302-103.542-99.96.78,66.228,57.237,116.574,108.798,155.52,23.13,17.472,42.78,40.926,54.774,65.514-2.004-18.3-2.913-33.525-1.281-51.387,5.292-57.855,8.727-122.712-30.924-166.671h0ZM2168.667,654.619c36.438,31.974,60.75,73.131,88.746,110.127,23.28,30.771,55.227,49.836,82.701,75.657-14.829-30.768-17.568-66.024-36.402-95.79-32.205-50.901-85.434-70.656-135.045-89.994h0Z"/>
      <g>
        <path class="cls-1" d="M2244.99,1316.65l-10.764-5.874c-22.716,46.824-52.828,89.682-89.178,126.927l-62.877-62.88c30.804-31.74,55.641-67.77,73.938-106.71l-10.71-5.859c-17.995,38.41-42.251,73.561-71.775,104.016l-56.958-56.958c24.104-25.025,43.681-54.045,57.858-85.767l-10.629-5.799c-13.625,30.711-32.491,58.817-55.752,83.061l-62.946-62.946c17.267-18.266,30.915-39.64,40.218-62.991l-10.632-5.799c-8.724,22.346-21.641,42.816-38.055,60.309l-57.132-57.123c16.219-18.031,25.766-41.077,27.048-65.295h80.868c-.666,21.278-4.971,42.285-12.729,62.109l10.632,5.799c8.604-21.644,13.344-44.629,14.004-67.911h89.145c-.763,38.204-9.152,75.87-24.672,110.787l10.629,5.799c16.209-36.3,25.17-75.75,25.959-116.592h80.715c-.788,53.719-12.993,106.656-35.805,155.298l10.716,5.859c23.436-49.872,36.174-104.535,37.014-161.154h89.139c-.891,72.954-18.078,142.032-48.036,203.82l10.767,5.868c32.229-66.381,49.338-139.686,49.338-215.649,0-64.599-12.378-127.269-35.892-185.409l-11.046,4.749c22.146,54.864,34.152,113.865,34.89,174.702h-89.151c-.723-48.534-10.26-95.598-27.708-139.47l-10.962,4.698c16.83,42.414,26.04,87.882,26.751,134.772h-80.724c-.657-35.212-7.507-70.033-20.238-102.87l-10.965,4.71c12.105,31.345,18.636,64.565,19.299,98.16h-89.154c-.606-21.496-4.685-42.753-12.081-62.946l-10.962,4.704c6.781,18.7,10.54,38.36,11.136,58.242h-80.868c-1.282-24.219-10.83-47.265-27.051-65.295l57.189-57.18c17.661,18.78,31.02,40.59,39.6,64.236l10.959-4.704c-9.18-25.008-23.391-48.081-42.144-67.956l63.039-63.033c26.901,27.999,47.433,60.507,61.041,95.772l10.965-4.71c-14.208-36.63-35.595-70.404-63.579-99.486l57.078-57.09c35.349,36.459,62.508,78.762,80.709,124.677l10.962-4.698c-18.804-47.286-46.815-90.855-83.247-128.388l63.03-63.042c44.58,45.666,78.963,98.655,102.183,156.198l11.046-4.749c-24.534-60.717-61.215-116.484-108.918-164.184-47.877-47.88-103.89-84.645-164.871-109.185l-4.392,11.181c57.669,23.229,110.775,57.654,156.525,102.315l-63.03,63.039c-36.9-35.76-79.65-63.48-126.06-82.26l-4.35,11.088c44.88,18.207,86.244,45.018,121.989,79.692l-57.075,57.078c-27.747-26.694-59.742-47.421-94.425-61.611l-4.356,11.085c33.186,13.599,63.792,33.435,90.36,58.95l-63.03,63.03c-17.73-16.71-38.004-29.826-59.91-38.973l-4.359,11.094c20.637,8.665,39.552,20.963,55.845,36.309l-57.18,57.18c-18.174-16.278-40.953-25.713-65.31-27.042v-80.865c22.912.678,45.503,5.566,66.645,14.421l4.359-11.097c-22.272-9.303-46.254-14.514-71.001-15.24v-89.151c36.096.726,71.07,8.061,103.584,21.387l4.356-11.088c-33.882-13.86-70.338-21.48-107.94-22.206v-80.76c47.865.732,94.278,10.278,137.445,27.78l4.35-11.088c-44.541-18.042-92.409-27.87-141.801-28.602v-89.16c60.72.738,119.613,12.705,174.375,34.755l4.392-11.181c-57.942-23.331-120.378-35.622-184.716-35.622-79.485,0-154.587,18.963-221.187,52.431l5.433,10.398c64.446-32.292,135.75-49.884,209.799-50.778v89.16c-58.465.836-115.997,14.787-168.351,40.824l5.415,10.368c50.139-24.819,105.486-38.418,162.936-39.294v80.73c-43.514.822-86.323,11.144-125.43,30.243l5.445,10.416c37.023-17.97,77.733-27.9,119.985-28.752v89.157c-27.202.784-53.951,7.156-78.585,18.72l5.475,10.458c22.698-10.548,47.46-16.479,73.11-17.274v80.88c-12.23.673-24.252,3.451-35.538,8.211l5.466,10.449c11.437-4.673,23.676-7.068,36.03-7.05,25.398,0,49.275,9.891,67.239,27.849,17.964,17.961,27.852,41.85,27.852,67.251,0,52.434-42.651,95.106-95.094,95.106-25.407,0-49.29-9.894-67.251-27.855-17.961-17.97-27.852-41.85-27.852-67.251s9.891-49.29,27.852-67.251c8.921-8.939,19.535-16.01,31.221-20.799l-5.466-10.452c-10.884,4.599-20.93,10.97-29.73,18.855l-57.21-57.213c14.563-13.717,31.229-25.014,49.365-33.459l-5.475-10.458c-19.193,9.01-36.832,21.012-52.26,35.556l-63.096-63.099c21.8-20.96,46.757-38.366,73.959-51.582l-5.445-10.416c-28.249,13.782-54.172,31.89-76.833,53.67l-57.18-57.174c28.43-27.602,60.989-50.603,96.504-68.175l-5.415-10.368c-36.56,18.143-70.087,41.841-99.39,70.251l-63.162-63.165c35.67-34.844,76.523-63.952,121.104-86.289l-5.43-10.398c-96.264,48.375-174.63,127.209-222.354,223.851l10.359,5.589c22.54-45.833,52.209-87.8,87.9-124.335l63.168,63.168c-29.557,30.438-54.012,65.443-72.423,103.668l10.32,5.571c17.61-36.789,41.22-70.863,70.389-100.944l57.183,57.177c-23.185,24.127-42.194,51.942-56.25,82.308l10.341,5.58c13.488-29.376,31.823-56.272,54.237-79.563l63.096,63.099c-16.254,17.235-29.32,37.218-38.589,59.019l10.425,5.64c8.678-20.816,21.051-39.891,36.519-56.304l57.21,57.21c-15.705,17.556-25.677,40.251-27.06,65.265h-80.886c.679-22.74,5.497-45.165,14.217-66.177l-10.428-5.64c-9.66,22.752-14.984,47.109-15.699,71.817h-89.145c.804-40.119,9.801-78.858,26.1-114.372l-10.344-5.58c-17.449,37.63-26.867,78.483-27.654,119.955h-80.739c.849-55.752,13.638-109.536,37.074-158.496l-10.317-5.571c-23.982,49.8-37.773,105.387-38.649,164.067h-89.163c.876-72.813,17.892-142.974,49.161-206.565l-10.359-5.589c-32.505,65.838-50.856,139.857-50.856,218.112,0,47.868,6.837,94.65,19.896,139.344l11.676-2.94c-12.429-42.387-18.996-86.277-19.518-130.446h89.148c.516,36.833,6.193,73.412,16.866,108.669l11.559-2.91c-10.338-33.894-15.96-69.411-16.518-105.759h80.724c.562,29.201,5.364,58.166,14.256,85.986l11.58-2.922c-8.671-26.86-13.36-54.845-13.92-83.064h89.145c.596,20.886,4.467,41.55,11.472,61.236l11.586-2.925c-6.785-18.722-10.549-38.404-11.151-58.308h80.877c1.279,24.218,10.824,47.264,27.042,65.295l-57.183,57.186c-17.64-18.774-30.996-40.557-39.588-64.17l-11.586,2.922c9.15,25.662,23.574,49.341,42.75,69.666l-63.03,63.036c-30.66-31.92-53.1-69.75-66.39-110.85l-11.58,2.922c13.8,43.158,37.332,82.86,69.573,116.37l-57.087,57.09c-42.69-44.022-73.524-96.537-90.945-153.696l-11.559,2.913c17.952,59.211,49.851,113.631,94.08,159.201l-63.033,63.036c-55.788-57.162-95.634-125.769-117.54-200.457l-11.679,2.94c22.98,78.63,65.37,150.711,124.914,210.24,40.323,40.335,86.412,72.798,136.38,96.72l5.916-10.494c-47.289-22.536-91.032-52.905-129.57-90.531l63.03-63.03c32.243,31.341,69.622,56.921,110.511,75.627l5.88-10.434c-39.471-17.91-75.975-42.606-107.958-73.611l57.081-57.084c26.754,25.74,57.471,45.915,90.735,60.048l5.88-10.416c-32.31-13.56-62.19-33.06-88.17-58.02l63.036-63.036c20.256,19.11,43.836,33.501,69.399,42.66l5.958-10.551c-24.92-8.635-47.73-22.448-66.93-40.53l57.183-57.186c18.162,16.29,40.938,25.719,65.295,27.054v80.877c-18.925-.582-37.653-4.025-55.548-10.212l-5.958,10.551c19.764,7.072,40.523,10.977,61.506,11.568v89.139c-36.888-.738-72.63-8.376-105.747-22.269l-5.877,10.416c34.923,14.844,72.645,23.016,111.624,23.769v80.727c-53.118-.819-104.418-12.495-151.482-33.849l-5.88,10.431c48.855,22.326,102.168,34.503,157.365,35.328v89.136c-70.806-.849-139.14-16.902-201.333-46.53l-5.919,10.494c65.73,31.461,138.18,48.093,213.21,48.093,78.699,0,154.53-18.39,222.774-52.92l-5.634-10.929c-63.645,32.235-135.294,50.865-211.194,51.798v-89.139c60.177-.891,118.104-15.315,170.442-41.64l-5.565-10.788c-51.185,25.808-107.56,39.659-164.877,40.509v-80.727c45.15-.87,88.605-11.7,127.971-31.338l-5.532-10.734c-38.069,19.014-79.894,29.316-122.439,30.159v-89.139c28.755-.84,56.436-7.761,81.63-20.094l-5.49-10.671c-23.758,11.607-49.711,18.033-76.14,18.852v-80.867c24.223-1.279,47.274-10.828,65.304-27.054l57.123,57.129c-13.746,12.901-29.35,23.668-46.29,31.941l5.493,10.671c18.049-8.834,34.662-20.341,49.278-34.131l62.934,62.937c-21.122,20.271-45.198,37.22-71.406,50.268l5.532,10.734c27.319-13.616,52.406-31.311,74.4-52.476l56.955,56.952c-27.894,27.026-59.741,49.646-94.446,67.083l5.565,10.788c35.819-18.005,68.675-41.381,97.428-69.318l62.877,62.877c-35.079,34.239-75.411,63.072-119.553,85.419l5.634,10.929c46.875-23.713,89.679-54.73,126.81-91.89,39.666-39.657,71.673-84.915,95.475-133.935l-.052-.114Z"/>
        <path class="cls-1" d="M1825.26,986.71l.141,3.579,3.009-.144-.165-3.555-2.985.12ZM1820.883,981.832h3.984v3.036h-3.984v-3.036ZM1817.199,981.295l.42-3.003-3.501-.501-.42,2.979,3.501.525ZM1810.743,979.753l-3.48-.504.423-3.012,3.48.504-.423,3.012ZM1782.003,975.742h3.984v3.039h-3.984v-3.039ZM1776.795,982.297l.423-3.006-3.48-.501-.42,3.006,3.477.501ZM1773.675,986.38l-3.996-1.014.726-2.946,3.996,1.017-.726,2.943ZM1766.535,990.121l-.495-3.039,2.955-.495.495,3.036-2.955.498ZM1375.065,1307.251h3.009l-.519-7.584-3.993-1.53v-2.526h-2.49v5.058h3.993v6.582ZM1405.995,1329.505l3.48,2.553,3.501,7.587-1.998,3.528-5.475-5.055-3.996-5.559-1.998-4.554-3.504-9.114,7.476,3.531,2.514,7.083ZM1524.687,1481.356l-3.504,2.028-1.995-3.03-4.983-1.527-.495-4.554-3.996-6.084,5.994,1.026,6.465,5.559,2.514,6.582ZM1784.502,1019.266h-5.484l-.999-11.13,2.994-2.034v-5.565h-17.46l-.495-5.562,2.499-1.521-3.993-1.518-2.994,4.044-.99,4.557-4.989,1.017v2.526h-3.489v6.576l-13.968,11.64-27.924-1.005c-2.004,4.551-6.99-.51-6.99-.51-.99-3.036-7.971,0-7.971,0,0,5.571-9.474-2.529-9.474-2.529l-17.46-12.657c-9.972-9.108-24.93,2.535-25.428,5.061.498,7.089-11.469,1.521-11.469,1.521,0,0-9.972-3.033-11.472,1.017-1.491,4.044-7.986,3.039-7.986,3.039l-.999,2.022-4.989,1.011-.99,3.033-5.988,1.02,14.958-.51c3.99-.507-1.5,8.607-3.99,8.1l-6.972.507-2.502,2.526h-6.48l-2.991,4.056-9.471-.51s-5.49,4.557-4.986,6.072c.498,1.521-.999,6.078-2.499,6.078s-4.488,4.551-3.489,6.069c1.002,1.521-2.991,6.582-2.991,6.582l-.993,5.067-2.991,1.005v13.668l-5.988,4.05v6.072l-8.982,9.618,1.002,8.094-7.476,8.1.99,8.1-4.488,1.518-.99,3.54-1.995,10.626,4.986.51c2.487-1.014,1.992,6.582,0,7.59-2.001,1.014-7.488,3.033-4.488,5.055,2.994,2.034-7.98,1.524-7.98-1.515s-5.988-5.565-7.479-4.551c-1.5,1.008-3.996-4.554-3.996-4.554-5.484-5.565-22.44.504-22.44.504l-2.502,8.097c-5.478,1.017-8.97,10.125-8.97,10.125-4.488,1.521-7.977,7.08-6.48,8.601,1.494,1.521-2.499,2.025-2.499,2.025v11.139l-2.49,3.54.492,12.144c3,0,2.502,5.574,2.502,5.574-4.989.504-3.999,7.086-3.999,7.086l-10.467,3.54-1.992,3.036-12.966-.51-3.489,3.546-3.501-3.546h-24.933l-.99-2.529-4.989-1.02-.504-5.559-7.476.501-1.494,3.039-7.983.501c.498,5.064-7.98,12.66-8.97,10.641-1.011-2.028-6.492-7.602-3.993-8.604,2.496-1.02,8.982-2.037,8.982-2.037v-3.54l-18.459-.501-1.989,3.039-7.488.501v8.1l-3.486,1.014c-2.499,1.512.492,7.086.492,7.086,3.492,3.54-.492,9.102-.492,9.102-3,3.039,2.487,8.613,2.487,8.613,3.993,1.005-2.49,4.044-2.49,4.044.99,5.058,3.99,6.579,3.99,6.579-3,5.058,2.001,7.584,2.001,7.584l.492,8.616,3.492,2.025v5.556l1.992,3.546h7.98l-.498-12.651c-6.984-8.1,5.979-10.125,6.486-7.095.504,3.039,5.988,4.56,5.988,4.56.999,7.596,9.48,12.144,11.964,4.56,2.496-7.602,4.491-3.039,5.988.498,1.497,3.549,10.959,12.153,10.959,12.153h7.488l1.002,7.089c8.475-.51,10.962.516,14.454,12.144,3.498,11.634,12.969,14.673,12.969,14.673l6.984-.504c0-6.066,6.984,1.02,6.984,4.062,0,3.024,13.461,14.667,13.461,14.667l13.461,3.03,12.48,10.137,9.468-1.014h3.996c2.487-8.613,14.46.498,15.45,3.54,1.008,3.036,8.985,8.1,9.972,5.562,1.005-2.526,6.489-1.005,7.488,6.579.996,7.602,4.482,6.081,4.482,6.081l28.431-.507,9.972-8.613,25.44-.498c12.96-.507,4.98-18.225,2.496-18.225-4.491-3.54,1.491-18.216,1.491-18.216l-36.405-33.909c-8.478,0-.999-12.153-.999-12.153,6.48-4.053-1.5-10.62-1.5-10.62,1.002-6.084-3.492-13.17-3.492-13.17-8.97-6.072-6.48-17.718-6.48-17.718v-8.1c-7.476-7.08,2.994-8.1,2.994-8.1,3.486-6.06-2.499-10.62-2.499-10.62l-.495-6.582-7.98-1.017-.99-23.79-17.955-25.803c-3.498-1.02-1.002-7.089-1.002-7.089,4.488-2.532-1.005-8.598-1.005-8.598l-.495-11.139,10.47-1.02,2.496-4.041h4.986l-.495-13.161c2.49-6.579,8.472-3.039,8.472-3.039l6.981.51,3.996-7.596.99-6.075-5.481-.501c-5.985-3.546-2.994-16.701-2.994-16.701,9.477-14.178,20.442-6.078,20.442-6.078l6.99-.501c10.467,7.08.99,20.241.99,20.241-1.995,3.039-.99,12.654-.99,12.654l2.49,16.191-6.486,5.574c-5.481,3.039-5.481,10.122.504,11.64,3.987.501,2.49,10.122-3.498,3.54-8.97,0,4.998,8.1,1.005,6.066,8.979,4.56,6.975-4.044,6.975-4.044l11.979-9.618c4.491-3.54,12.471,7.596,12.471,9.117s19.944.498,19.944.498c5.484,3.543,7.476,12.66,7.476,12.66,5.493-7.095,16.959-.516,8.484,3.54,7.971,5.061,7.971,9.612,7.971,9.612,6.492-2.022,6.492,3.039,6.492,4.56s1.992-7.59,1.992-7.59c-7.479-5.571,9.972-7.596,4.992,2.529l-3,4.56,4.992,4.044.492,11.646c10.977-1.02,7.983-14.685,7.983-14.685l4.986-1.008c0-4.56,3.486-2.028,3.486-2.028-3.486-17.211,7.986-20.241,7.986-20.241,6.48-1.518,6.978-15.192,6.978-15.192-4.482-2.022-1.998-9.105,2.994-3.027,4.98,6.063-2.994-12.156-2.994-12.156l-3.99-3.54-5.481-.504-.504-5.568h-8.97l-1.5,7.089-3.486,1.011-1.005-2.028-1.491,5.568h-8.976l-.495-6.072,5.484-1.518,1.995-3.036,1.491-8.1h6.489l8.475-2.529c.492-8.604,4.986-6.576,4.986-6.576l2.991,2.526,4.488,3.543.501,3.03-2.997,1.518-.492,4.056,1.497,5.565h3.984c1.497-8.1,11.976-8.1,14.964-3.036l2.997-7.086c-6.981-3.54-.132-9.114,1.86-6.579,1.995,2.532,6.615-6.579,6.615-6.579,0,0,3.489,4.554,0-1.521-3.492-6.075,2.49-9.108,2.49-9.108-.993-6.072,6.486-5.061,6.486-5.061l.501-8.094-6.99-.513c-1.485,7.086-7.47,1.017-4.482-.501,3-1.521,5.979-4.56,5.979-4.56v-5.061l2.997-1.011.495-5.061h7.485l6.48-3.036,1.5-2.532,6.978-.504,9.972-9.114-.99-4.044c-5.985,0,0-4.56,0-4.56l.984-7.572h.003Z"/>
        <path class="cls-1" d="M1583.52,1119.46l-8.979-1.011.504,3.54h2.49c3.984,7.089.498,24.294.498,24.294,0,0-5.979.501-6.981-2.529-.99-3.036-3.492,6.582-1.5,8.1,1.995,1.512,8.982,0,9.48,5.571.492,5.562,4.488-3.546,4.488-3.546v-34.419Z"/>
        <path class="cls-1" d="M1585.5,1176.13l1.011-4.557-3.501-1.5.492-7.59,3.009-.522.495-3.555-7.5,5.082-4.98-3.03v12.141l7.989,10.614,2.985-7.083ZM1587.498,1189.297l-3.48.501-.516,4.056,3.996.501v-5.058ZM1583.01,1215.106l-4.23.501v3.555l4.23-.501v-3.555ZM1588.89,1203.088c1.17,0,2.109-.957,2.109-2.139.015-1.173-.924-2.136-2.097-2.151-.004,0-.008,0-.012,0-1.176.008-2.123.968-2.115,2.145v.006c0,1.182.948,2.139,2.115,2.139Z"/>
        <circle class="cls-1" cx="1592.37" cy="1211.59" r="2.13"/>
        <circle class="cls-1" cx="1592.49" cy="1153.78" r="2.13"/>
        <path class="cls-1" d="M1765.53,1092.13v-9.612h-2.985l-.495-3.555-5.499-.501-.99,2.529h-2.49l-.516,4.056h3.009l.492,3.03-1.995,2.025-.99,2.529-3.993,1.026-8.979,8.61-.495,4.032-2.49,3.555-2.985,7.584-10.482.501-1.998,9.114,1.479,7.584,8.979,3.555,1.011-5.058,2.985-1.527.516-5.055,1.974-3.555,3.009-3.531.99-4.056,4.98-3.03,5.994-1.023,2.49-3.03,1.011-6.06.354-4.554,2.139-3.054,5.97-2.529ZM1775.994,1113.4v-7.086l-1.005-6.582-7.47-3.54-5.484,5.061-1.002,7.089v4.551l-4.986,1.014-1.005,13.665-3.984,1.521.501,5.061-10.968,3.036-.999,6.579-3.984,2.529-2.007,6.075-2.49,14.679s4.494,8.604,6.984,4.554c2.496-4.047,6.48-4.554,6.48-4.554l1.5-3.546,13.464.507c.999-5.574,7.482-3.54,7.482-1.011s4.989.501,4.989.501l3.486-5.565h5.481l.501-6.069,2.496-1.521v-9.114c7.983-2.529,6.978-10.119,6.978-10.119l2.007-2.529-1.002-3.54c-3.996-1.521-2.004-5.07.492-4.056,2.502,1.011-3.489-4.557-3.489-4.557-2.991,2.538-5.478-3.033-5.478-3.033h-7.488ZM1783.974,1174.63c-.495,6.072-7.98,8.1-7.98,8.1l-5.484-1.518-2.991-2.532-.501-7.089,4.485-.501.999,3.039,11.472.501ZM1810.914,1142.26c1.08,4.413.99-7.095,2.985-6.582,1.992.504.504-7.08.504-7.08l-8.979,6.57c4.488.51,4.98,5.07,5.49,7.092h0ZM1837.344,1115.92c1.992,4.56,1.5,11.139,8.97,16.2,2.526,1.707-1.497,5.064-3.996,3.54-2.49-1.515-9.462-12.657-9.462-12.657v-6.576c1.494-4.047,3.624-2.469,4.488-.507ZM1843.818,1268.263l-2.985-1.026-3.48,2.55,1.482,1.506,1.482,2.529,3.501-5.559ZM1824.864,1261.69v6.09M1900.977,1251.829l-1.596-2.553-3.972,2.505,1.575,2.577,3.993-2.529ZM2041.314,1359.88l4.494,2.019.492,8.604c5.991,6.072,25.44,1.014,25.44-.507s-1.005-18.723-1.005-18.723l-2.499-2.535-.492-12.66c1.992-6.579-9.48-16.2-10.473-14.16-.999,2.016-7.482.492-7.482,2.523,0,2.019-3.984,12.144-1.992,15.69s-1.5,3.546-1.995,7.086-5.487,9.624-4.488,12.663h0ZM2030.334,1339.63c-.945,3.834-4.479,6.072-6.474,4.551-2.007-1.521,2.481,2.526,3.486,4.56.996,2.019,3.984,2.019,4.989,0,.99-2.037.495-6.579,1.5-8.604.99-2.028-3-2.532-3.501-.51v.003ZM2007.144,1246.78h3.486v9.621h-3.486v-9.621ZM2058.774,1149.34c-2.175-2.949,9.972-8.1,11.967-2.022,1.992,6.066,0,5.061-1.995,4.554-2.001-.51-6.978,1.515-9.972-2.532h0ZM2068.98,1084.522l5.475,1.002.54-2.982-5.499-1.002-.516,2.982ZM2055.534,1086.763l-3.711,2.1-3.246-2.052-1.575,2.55,3.996,2.532.753.477.75-.432,3.012-1.692.375.93,2.772-1.122-1.011-2.526-.633-1.599-1.482.834ZM2074.224,967.12h-7.485s2.496,1.011-4.479-5.571c-6.993-6.576-11.472,1.521-11.472,1.521l-7.98,1.011v8.1l-3.996,1.515.504,5.064,5.484-.504s0,6.072,1.5,3.543c1.5-2.532,13.965.501,12.963,6.579-.405,2.496,12.474,9.105,10.98,17.202,6.48,1.017,4.983,7.599,4.983,7.599l8.475,1.011,2.499-5.061,2.49.507v-3.039l-5.496-1.518-.99-16.2-3.489-2.529.993-4.05-3.984-1.521,1.995-6.576-3.495-7.083ZM2096.154,1018.75l-3.987-.501-8.988,1.518-4.977,9.615s2.49,1.518,4.479,5.061c1.995,3.546,2.997,24.291-2.988,27.84-5.979,3.543.504,1.512.504,1.512l-1.005,11.136c1.5,5.064,3.987,2.538,5.484,0,1.509-2.52,3.006-3.03,4.998-5.562,1.995-2.535,4.983-7.086,5.484-10.632.495-3.54,2.991-9.105,1.491-10.626-1.491-1.518,1.5-8.601,1.5-8.601,0,0,1.995-4.056,0-8.1-1.992-4.053.498-8.61,1.995-10.635l-3.99-2.025ZM2102.184,1039.399l.51-4.05,2.976.384-.51,4.05-2.976-.384ZM2102.004,1053.385l-2.67-1.359,1.497-3.033,2.67,1.356-1.497,3.036ZM2097.654,1013.2l-2.001-4.56s0-4.041.996-6.075c1.005-2.022-1.992-4.041-3.483-4.551-1.5-.51-.996-4.554-1.5-6.582-.495-2.022-3.981-3.54-3.981-3.54,0,0-1.008-7.59-1.008-9.108s-4.485-3.54-2.988-5.064c1.5-1.518,2.499-3.54,3.996-4.557,1.497-1.011-1.5-8.1.99-6.579,2.496,1.521,2.496,4.05,3.495,6.075.996,2.022-.501,9.111,1.995,10.632,2.49,1.512-.504,6.57,3.489,6.57s1.5,9.624,1.5,9.624c0,0-1.005,7.08,1.485,7.59,2.499.507,1.005,12.654,1.005,12.654l-3.99-2.529ZM2065.254,931.18c1.491,2.022,4.485,3.54,4.485,5.571s-.996,3.54,2.001,4.047c2.985.504,4.986-.51,5.979,2.022.999,2.529.999,6.579.504,8.604-.504,2.028.495,5.061,2.985,5.061s2.994.51,2.994,2.028,2.994-5.571,2.994-5.571c-2.499-2.022-4.494-6.582-4.494-6.582,0,0-2.49-7.083-2.49-8.094s-3.486-2.028-4.98-2.532c-1.5-.51-3.999-5.061-3.999-5.061l-5.979.51v-.003ZM2070.234,926.65c-1.5-2.031-2.997-3.546-4.989-4.554-1.989-1.017-3.486-2.028-5.49-2.028-1.992,0-3.981-2.028-2.994-4.554,1.005-2.532-1.5-3.543-1.5-5.571s1.5-2.022,3.996-.504c2.499,1.521,1.995,2.022,3.999,4.56,1.989,2.526,2.982,5.058,4.974,4.551,2.004-.51,3.498,4.554,5.49,3.036,1.995-1.518,1.5,3.54,1.5,3.54l-4.986,1.524ZM2011.884,983.83c2.751,2.796-14.958,2.019-14.958,0s1.5-9.105,5.979-7.596c4.491,1.524,4.983-9.105,4.983-9.105,0,0-3.984.501-.492-1.521,3.489-2.022,0-5.061-1.5-6.579-1.494-1.521-2.991-4.05-2.991-4.05h6.99c2.994-2.028,3.981-11.64,3.981-11.64,5.982,2.022,8.976-2.028,8.976-2.028,0,0,1.011,3.036,3,5.574,1.995,2.526-4.995,3.54-2.499,5.061,2.502,1.518,3.492,6.069,2.502,7.584-1.005,1.521-6.498.51-6.498-1.515s-1.992,2.532,0,5.064c1.995,2.529-2.49,6.069-3.489,6.069s-7.47,1.017-1.992,4.05c5.481,3.036,11.478,1.524,11.478,1.524,0,0,4.485-.51,5.979,2.025,1.5,2.529-.495,3.036-2.988,3.036s-14.466-1.017-14.466-1.017c0,0-3.489,3.546-1.995,5.064h0ZM1979.964,988.39c2.502-.507,8.472-1.017,9.477.504,1.002,1.515-3.492,3.54-3.492,3.54l-5.985,1.014c-1.992-2.532-2.49-4.551,0-5.058ZM2044.314,945.88c3.987-2.022,12.462-2.022,11.967-5.061-.495-3.036,4.983-4.05,4.983-4.05l1.5,6.072,4.488,3.036.501,5.568s1.491-1.011-3.99.51c-5.49,1.518-1.992,4.044-1.992,4.044l-11.973.507-1.5-5.064-3.984-5.562ZM2024.844,918.55c3.03,0-.99,11.64,6.978,10.629,7.98-1.017.51,3.54,6.486,4.047,5.988.51,4.491-4.554,6.483-8.094,2.001-3.543,1.005-5.571-2.49-6.582q-3.498-1.011-4.488-5.067c-.993-4.044-4.986-5.061-4.986-5.061l-1.5-6.069-6.483,4.047-6.48,8.604c0,6.585,3.486,3.546,6.48,3.546ZM2038.044,961.318l1.5-3.036,2.682,1.362-1.5,3.036-2.682-1.362ZM2032.824,956.5h2.994v3.543h-2.994v-3.543ZM2035.341,889.06l.501,4.554-2.973.336-.504-4.548,2.976-.342ZM2026.854,936.25h2.994v2.535h-2.994v-2.535ZM2019,936.199l-.294-3.027,4.989-.498.294,3.024-4.989.501ZM1977.858,984.874l-2.742-1.197,1.5-3.54,2.739,1.194-1.497,3.543ZM1962.204,975.661l-.291-3.015,4.995-.501.291,3.015-4.995.501ZM1864.713,975.226l.141,3.03,10.95-.501-.138-3.03-10.953.501ZM1857.369,979.12l-.993-4.551,2.925-.657.993,4.548-2.925.66ZM1855.272,982.255l-.945-2.88,1.494-.507.945,2.883-1.494.504ZM1880.214,973.72l-.495,3.54,5.478.51s2.49,2.028,2.49,3.54c0,1.521,3.498,3.036,5.49,3.036s7.479-4.05,7.479-4.05c0,0,2.496-7.086.504-6.582-2.001.504-5.988,3.543-6.48.504-.51-3.036-6.483-1.518-6.483-1.518l-7.983,1.02ZM1905.144,968.14c0,1.515-.99,3.54,1.992,4.05,3.006.501,8.49-2.022,8.985,1.011.504,3.036.504,5.067,4.488,6.588,3.984,1.512,6.486,2.022,9.477,2.022s9.48-1.02,9.48-1.02c0,0,7.053,1.104,8.472,2.535,5.484,5.565,8.97,7.083,10.47,4.554,1.494-2.532-.498-8.094-.993-10.119-.504-2.031-7.488-11.646-9.981-9.621-2.49,2.028-2.988,0-7.479,1.515-4.488,1.518-13.965.51-14.46-1.515-.495-2.028-7.476-3.03-7.476-5.061s-4.983-4.554-4.491-1.521c.495,3.036-3.486,4.554-4.5,3.549-.99-1.014-3.984,3.033-3.984,3.033h0ZM2019.864,903.34l3.498-11.13c-4.983-1.014-3.993-6.576-3.993-6.576-.498-4.56-7.476-9.618-9.972-8.1-2.49,1.515-1.5-10.632-1.5-10.632,0,0,4.494-3.03,6.486-1.515,1.995,1.515-16.95-25.305-20.946-22.776-3.987,2.532-12.957-2.529-12.462-7.089.498-4.551-17.952-19.74-17.952-19.74,0,0-5.988-4.041-6.981-1.005-.999,3.033-2.991,5.061,0,6.573,2.988,1.524,2.49-2.526,5.976,1.011,3.492,3.543,9.981,8.1,7.485,11.139-2.496,3.042-5.49,4.05-5.49,4.05l3.498,4.05h5.484l.999,8.601s5.979,3.039,7.479,6.582c1.497,3.54,1.497,5.568,0,7.596-1.5,2.022-4.479,5.565-3.987,9.102.495,3.543,4.488,5.064,4.488,5.064l3.984.51,3,1.518v6.585c3.981-1.017,10.464,4.545,9.969,8.094-.495,3.54.99,1.515,5.979,5.061,4.992,3.54,3.498,4.05,6.987,6.582,3.492,2.52,6.486,1.005,7.971-3.555h0Z"/>
        <path class="cls-1" d="M1937.58,834.52c-.495-2.028-1.5-9.117,1.497-8.61,2.991.51.999,0,4.488,1.521,3.492,1.521,3.99-2.529,3.99-2.529h5.49l6.975,5.562-.999,4.56-4.986.501c-2.49-4.044-7.479-2.526-6.48,1.02.996,3.54-2.49,10.119-4.482,10.62-1.995.51-8.49.51-7.98-2.523.495-3.039,2.487-10.122,2.487-10.122h0ZM1933.59,820.84v-4.047s-.51-4.047-2.994-4.047-6.978-3.033-5.988-5.061c1.005-2.028-8.475-4.05-8.475-4.05,0,0-8.472-8.1-5.481-7.08,2.994,1.008,1.5-3.549,1.5-3.549,0,0-5.991,1.011-7.488.51-1.5-.51-1.002-5.064-1.002-5.064,0,0-5.976-1.518-5.976,0s1.995,1.521,2.982,4.551c1.005,3.036.507,8.1,5.001,9.111,4.488,1.014,5.478,2.022,5.985,4.05.498,2.028,5.979,2.529,5.979,2.529l3.993,2.025,11.964,10.122ZM1878.258,765.172l-3.996-1.002v4.56l5.475.498-1.479-4.056ZM1878.24,747.97c-5.214-3.96,6.975,3.039,6.975,3.039,3.987,0,6.48,3.036,6.48,4.56,0,1.515,5.49,1.011,5.49,1.011l.507-3.549-3.999-5.061-3.486-2.523s-5.484-.51-5.484-2.028-4.491,6.072-6.483,4.551h0ZM1969.98,751c-1.458,4.428-1.992,10.632-4.488,10.632s-1.5,6.585-1.5,6.585c0,0,6.495,0,8.49.501,1.986.501,1.986,5.562,1.986,5.562,7.488-.501,10.482,9.621,9.48,12.15s2.991,2.529,2.991,2.529c0,0,0,8.1-1.002,10.122-.99,2.028,6.486,3.546,8.478,6.582,1.995,3.039-1.002,13.158-2.49,13.665-1.5.51,3.981,2.022,3.486,4.554-.504,2.535,1.5,0,1.995,4.05s1.5,12.651,1.5,12.651l6.975.51c1.002-6.576,13.86-6.831,15.96-6.075,8.478,3.036,14.97,16.197,14.97,19.23s-5.493,3.549-5.493,3.549l1.002,14.67c8.475,2.535,15.456,14.685,14.463,16.71-.999,2.022,5.976,1.521,5.976,1.521,1.005-9.12,9.48-6.078,9.972-3.039.51,3.039,1.998,9.618,1.998,9.618l2.496,4.548,3.489,3.543,5.484-.504,1.5,3.039,6.48,1.017s5.493,6.066,5.988,7.59c.504,1.512,7.98,1.011,9.972,1.512,1.992.51,4.989,2.028,5.484,4.56.504,2.532,3.498,6.579,3.498,6.579,0,0,5.979,1.521,6.48,3.54.498,2.022,2.997,6.579,2.997,6.579l4.974,4.05.504,4.56,5.484.507,1.5,6.066,8.97-.501,4.995-3.543c6.48-3.54,10.971-8.1,11.472-10.125.492-2.025,1.491-9.612,6.48-8.094,4.983,1.518,1.5-11.139,1.5-11.139,0,0-6.981-5.061-6.489-7.596.501-2.526-6.975-7.584-6.48-9.612s-6.483-6.072-5.988-8.097c.495-2.028-3.489-7.596-3.489-7.596l-7.485-7.08-.999-4.56-5.979-.501-11.967-14.679.495-4.053-3.489-.504v-5.565l-3.486-2.028-5.49-.507-10.968-12.141-.999-5.571h-5.484l.993-10.632c3.495-4.557,1.497-13.158,1.497-13.158,0,0-6.99,3.54-10.47,2.022-3.498-1.512,1.491-5.061,1.491-5.061v-4.047l-2.988-3.036s-8.484,1.017-8.979-.501c-.498-1.521-1.992-8.1-1.992-8.1l-.501-8.61-3.486-1.509-.507-3.042-5.478.504v-6.072l-2.997-1.011-2.988-1.518-.498-6.078-10.974-.501-3.489-5.061-3.987-6.075-12.468-1.011-2.994-3.03-4.986-1.02-3.489-1.518-1.497,2.535-9.48.501-.492,3.039c-4.986,2.529-24.93.501-25.44,2.019h0ZM2022.36,737.86c-.789-3.996,9.981-7.59,12.471-4.56,2.499,3.039,9.477,3.552,10.476,18.735.351,5.436-8.979-5.565-8.979-5.565l-7.485-2.532c-3.987-1.017-5.988-3.54-6.48-6.078h-.003ZM1876.089,744.043l-2.724-1.23,2.001-4.56,2.724,1.233-2.001,4.557ZM1850.31,694.33l-6.495-6.582v-5.565l-1.995-2.031-1.992-7.08-6.48-2.025-6.486,2.526-6.981,4.557-7.476,1.02-3.996,4.548,15.96,1.512,2.988,5.07,11.481,1.011,7.47,7.59c6.498,2.028,7.989-1.011,4.002-4.551h0ZM1849.32,669.52c-1.098-4.449-7.485,5.565-.99,7.584,6.48,2.037,12.954,0,12.954,0l1.5-3.033,24.93.51c2.004-2.028,2.994-5.064,2.994-5.064,0,0,5.988-2.028,8.475-1.017,2.496,1.02.507-7.08-1.995-6.069-2.49,1.011-7.473.504-7.473.504h-8.982c-.495-3.54-8.475-2.025-8.97,0-.51,2.025-3.489,2.529-3.489,2.529l-11.472,1.017c-.999,3.039-6.978,5.061-7.482,3.039h0ZM1799.94,754.93c7.668,2.433,10.47.63,10.977-1.392.495-2.025.99-2.535,3.984-3.036,2.991-.51-.501-6.579-3.489-6.075-2.997.507-5.988-1.011-6.48-3.54-.51-2.529-5.496-9.111-5.991-4.05-.498,5.064-3.489,5.064-2.994,8.607.504,3.534,2.001,8.847,3.993,9.486h0ZM1742.61,760.63c-.36-1.791,9.972-2.022,11.472-.51,1.5,1.521.495,4.05,4.986,4.05s2.49,3.039,1.992,4.56c-.495,1.515-5.478,1.011-5.988-.504-.495-1.521-7.98-2.034-7.98-2.034,0,0-3.987-3.039-4.482-5.562h0ZM1908.06,659.41l1.032-.852,5.007-4.05-1.881-2.37-3.948,3.195-2.538-2.58-2.115,2.145,3.48,3.543.963.969ZM1885.518,646l5.502-3.546-1.599-2.559-4.701,3.03-3.198-2.022-1.572,2.574,3.993,2.526.777.51.798-.513ZM1870.008,754.846l2.514-1.623-3.48-5.559-.399-.618-.729-.072-4.98-.525-.306,3.03,4.275.429,3.105,4.938ZM1703.7,888.16l.51,5.571h7.47c2.997,0-2.49-3.543-2.49-3.543,0,0-5.982.51-5.49-2.028h0ZM1713.21,888.325l1.911-2.34,2.991,2.52-1.911,2.34-2.991-2.52ZM1622.346,793.633l2.121-2.148,2.991,3.039-2.121,2.148-2.991-3.039ZM1765.11,1450.033l2.493-2.526,1.458-1.479-1.857-.954-4.98-2.529-1.341,2.718,3.123,1.575-1.032,1.05,2.136,2.145ZM1727.271,1413.754l1.74-2.46-1.926-1.404,1.503-1.266-1.905-2.337-3.006,2.529-1.482,1.263,1.575,1.146,3.501,2.529ZM2099.421,1312.609c-.66-2.58-3.57-3.636-3.897-3.744l-.951,2.886v-.018c.237.09.582.27.93.498l.609,2.625c-.203.304-.424.597-.66.876l2.196,2.055c1.599-1.782,2.19-3.51,1.773-5.178h0ZM2099.154,1302.691l.375-4.554,4.866.762-.375,4.152-4.866-.36ZM2219.601,1263.589c2.13-1.35,4.86-3.801,4.488,1.902-.378,5.691-2.619,3.798-4.488,5.691-1.869,1.902-2.991-5.691,0-7.593ZM2244.981,1242.109c-.042-.099-.069-.45-.09-.705-.066-.837-.174-1.974-.765-3.168l-2.673,1.356c.33.678.396,1.395.453,2.082.075.885.174,1.899,1.023,2.541.537.408,1.212.525,2.019.369l-.57-2.94c.228.039.531.249.603.465h0ZM2238.321,1244.599c.537,2.108,1.178,4.189,1.92,6.234l2.805-1.068c-.021-.027-1.11-2.994-1.827-5.91l-2.898.744ZM2227.431,1256.539l-2.979-.3c-.234,2.391.336,5.34,2.691,5.82l.588-2.976c.021,0,.048.018.054.018-.24-.216-.462-1.44-.354-2.562ZM2214.321,1196.149c-.134-.947-.754-1.756-1.635-2.13-2.214-.972-5.946.639-7.776,1.881l1.656,2.526c1.893-1.281,4.38-1.899,4.935-1.617-.051-.018-.12-.108-.138-.165l2.958-.495ZM2076.201,1034.449c-1.992,2.028-6.48,3.039-6.48,3.039l-1.5,5.568-2.49,2.022s.495,1.518,0,5.061c-.498,3.54-4.989,5.568-4.989,5.568l-1.992,2.532s-12.021.651-13.464,0c-4.491-2.025-1.494-8.1,1.5-7.593,2.985.51-.507-8.607-.507-8.607l3.996-.504s.492-9.114,1.992-9.114-.495-3.033-2.499-4.554c-1.992-1.512-4.482-6.573-6.486-6.069-1.992.501-9.972,0-9.972,0l-1.497,3.039-5.49,1.008s.474,3.915-.483,5.064c-3.006,3.54-14.466,11.13-9.486-1.518l1.491-3.033v-4.56l-8.967-.501s-4.488-1.521-4.488-3.546-.501-4.551-.501-4.551l-10.476-11.64-12.462-1.518-1.002-2.535-7.47-1.011c-8.985-4.551-16.968-.507-15.468,7.086,1.497,7.599,3.984,10.632-.993,10.632s-5.988-4.05-5.988-4.05c0,0-3.984-1.521-3.984.504s-1.5,6.075,0,8.1c1.488,2.019-2.004,5.058-3.501,3.54-1.485-1.521-5.478-6.066-4.479-7.587.993-1.518-6.99-11.139.993-12.654,7.983-1.521-.498-6.078,2.499-7.083l3.984-2.028h3.987l2.496-2.028-6.48-1.005-3.987-.51-7.485-.504c-7.476,5.061-8.97,11.136-8.97,11.136-3.996,7.59-13.464-3.039-9.972-7.086,3.486-4.05-10.974-.51-13.47,1.515-2.499,2.025-9.978,1.014-9.978,1.014-1.491,4.56-8.472-.501-6.48-3.54,1.995-3.039,1.995-5.064,1.995-5.064l-2.49-.507-2.991,5.568c-6.981,0-8.982,4.044-7.488,6.579,1.497,2.526-1.992-.507-2.994,3.036-.99,3.54.507,3.54,3.501,5.061s-1.5,1.521.495,4.047c1.992,2.535,7.98,0,4.491,3.546-3.489,3.54-10.479,2.028-10.479,2.028-.495,4.545-9.972,3.54-10.962,2.022-1.005-1.518-8.478-10.632-8.478-10.632l-9.489-.504c-.99-7.08,4.494-3.54,6.489-9.111,2.004-5.568,3-14.673,3-14.673,0,0-7.989-.507-8.484,2.022-.495,2.532-5.484,4.05-5.484,4.05,0,0-3.993,1.515-2.496,3.54,1.5,2.031-2.994,3.033-2.994,3.033,0,0,.78,3.27-.495,4.56-3.984,4.05-13.968.501-15.456-1.014l-5.988-2.532-5.988-4.047-6.978,3.03-1.992,2.031h-7.485l-.495,6.066,13.464,1.515.999,12.528-5.49-1.89h-3.492l-1.491-3.039-2.997-.51v11.133l2.997,2.535,2.496,2.523,4.989.51.999,6.069,12.459.513,1.5,2.526,7.485.51,14.46,14.67-.999,4.56-2.499,1.518c1.005,3.543-6.474,1.521-6.474,1.521v3.03l3.48.51,3.501,2.019,4.98-8.601c5.487-3.54,7.974,1.521,8.481,4.557.495,3.036-2.499,2.529-2.499,2.529v7.092l2.994,1.005c4.995,6.075-1.992,9.621-1.992,9.621l-1.5,5.058c-1.5,4.557-6.981,3.54-6.981,3.54l-1.989,3.039-5.994,1.521,11.841,1.515c1.128-4.05,4.11-5.061,5.61-3.036,1.5,2.028,1.5,5.571,1.5,5.571l3,.504-.507,5.565,2.997,1.017v16.194l3.489,4.05c5.985-2.526,5.985,1.521,2.988,3.54-2.988,2.019-.999,11.136-.999,11.136l-2.49,2.526v4.053l-2.991,2.025v5.565c-4.989-2.529-10.977-1.524-12.477,0-4.479-3.039-13.956-2.025-13.956.51,2.988,4.05-3.486,5.061-3.486,5.061l-3.498,4.05c2.499,5.061-2.487,5.562-2.487,5.562v9.621l-5.988,5.568.504,13.158c0,3.543,7.476,4.047,8.97,2.025,1.497-2.025,7.485,4.05,7.485,4.05h4.479l1.005-9.114-2.997-1.518v-14.679l4.989-5.571c5.988-2.022,3.993,13.17,3.993,14.685.498,5.565,2.982,5.061,5.484,4.044,4.986-2.022.99,5.577-2.994,5.064-3.987-.501-1.5,5.061-1.5,5.061l2.502,1.017-4.494,3.54-3.981,4.56-4.998-1.524-5.976-.498-1.995-3.552-3.498-.504-.498,7.08-2.49,3.039-5.985,6.081c7.983,0-1.002,5.556-2.994,5.556,4.488,1.521-.495,6.081-11.964,2.541v3.537l-3.996.51,3.501,4.041,3.981.51-1.497,8.601c0,6.579-16.452,2.019-17.952.507l-.498,9.111-2.994.498.498,6.081-.498,8.607,5.484-1.014v3.546l13.47.507,19.452-20.76,11.466-2.523c.993-5.07,5.976,1.014,5.976,1.014,4.992-.519,5.991,3.03,5.991,3.03l6.486,1.014c5.478,1.524,2.166,2.055,2.49,4.056.492,3.03,2.988,2.019,2.988,2.019l1.005-6.579,2.994.504-2.994-3.543-5.493-2.535-5.979-2.526c-3.996-5.565.996-4.554,4.989-4.044h6.48s7.488,10.116,7.488,12.648,3.489,3.042,3.489,3.042l4.479-.51,1.5,3.54h4.488l1.5,3.03h8.976l.498-4.551-8.487-1.509-.492-5.07-5.979-1.518c-2.004-8.598,1.488-11.13,3.984-7.077l2.991.495-.999-7.59,3.489-1.014-.996-10.632-2.988-1.005v-3.546l12.459.516c-.99-6.591.504-9.624.504-9.624h3.489l.498,2.538,15.258,1.44,10.788-12.375c-.543-.945,1.083-1.524-.102-2.736-1.5-1.518-3.498,0-6-1.518-2.49-1.509,0-10.122-.495-12.144-.498-2.022,8.487-5.07,6.99-.507-1.5,4.56,0,6.582,0,6.582,6.48-6.075,11.967.501,11.472,2.022-.51,1.518,3.483,3.039,5.973,1.518,2.499-1.518,5.49,4.56,4.491,7.59-1.002,3.033-9.969,2.532-10.464-.507-.51-3.039-2.01-2.022-2.994-.501-1.005,1.518-5.484,2.526-7.98,1.005-.51-.306-.75-.561-.891-.807l-10.788,12.375.699.072c5.979,3.549,2.994,8.1,1.005,9.114-2.004,1.011-5.493,1.011-5.493,1.011l-.99,2.028-12.969,1.008-1.002,5.067c-6.483-1.023-8.97,6.069-7.476,9.606,1.5,3.54,0,6.579,0,6.579l5.487,2.535,6.975-2.016c1.005-5.07,5.484-6.084,9.48-9.114,3.984-3.039,10.473,5.556,8.472,9.612-1.992,4.044-1.992,5.565-1.992,5.565l.492,4.56-4.98,2.019-3.99,2.028-.507,2.532h-13.46l-2.49,2.526-6.486.519-2.004,3.03-4.479.51s-7.485,3.543-4.488,7.59c2.991,4.053-12.465,3.546-15.966-2.025-.999,5.055-6.48.504-6.48.504l-5.484-1.521-.495-7.584c-.999-5.067-10.476-5.067-9.972-1.518.495,3.543-17.961,1.518-17.961,1.518l-5.982,2.907-5.49,3.168-.495,2.526-8.982,1.011-3.984,2.028-1.494-3.039h-3.99l-3.99,5.574c-10.47.51-20.445,6.579-19.449,9.111.999,2.526-3.984,5.07-3.984,5.07l-4.494,1.5-2.985,4.56-5.985,2.028-1.005,10.632-2.985,2.019v4.56l-3.498,1.005v2.535l-4.983.507,2.985,7.593,4.002,2.028c6.981,1.005,3.984,9.618,3.984,9.618l3.984.498,2.004,5.565,3.984,8.1c1.5,6.081,5.988,4.56,7.98,4.053,1.995-.498,3.984,6.072,3.984,6.072l19.947.51s-.99,2.025,2.499,3.036c3.486,1.005,26.43,2.028,27.432.51-1.005-4.56,12.459-5.574,17.952-1.524,5.478,4.044,12.96,1.524,12.96,1.524l7.482,9.099,4.995,11.139,8.475,2.526,5.979,1.524,2.001,8.604,4.482.507,1.5,5.571c5.49,4.047-1.5,12.654-1.5,12.654v11.13l3.99,2.028-.501,4.053,6.492,6.57,7.476.516,18.954,20.241,14.955,4.551,2.49,8.1,3.999-.507,2.988-2.526,11.967-.507,5.988-5.574,6.48-1.005,55.356-47.07-4.992-3.042v-11.13c8.976-6.576,9.474-18.225.999-19.236-6.432-.768-3.486-7.593,2.499-8.604l3.486-1.512v-4.56l11.469-10.623v-8.1l-24.927-20.76c-10.977-4.041,0-28.341,7.47-27.834,7.488.501-.492-37.452-.492-37.452l-3.996-2.019,1.005-12.153h-5.484l-8.979,11.646-2.49,8.091c-.999,10.641-31.92,8.604-33.42,7.086-1.5-1.521-11.967-6.072-11.967-6.072,0,0-7.98-6.579-9.474-4.551-1.5,2.028-8.475-2.535-8.475-1.014s-6.48-3.537-6.48-3.537l-9.972-3.546,7.485-1.524-1.5-6.069,12.954,6.579c1.5,2.016,7.98,1.521,7.98,1.521l1.995,2.532s3.996-.513,6.498,2.529c2.49,3.039,15.45.507,15.45.507l3.489,3.03,5.484,2.028,15.465.51.495-9.612,2.994-3.039-.498-6.081,3.489-3.03v-5.058l2.994-1.014.495-11.13,2.49-.507v-24.297l-7.479-7.089c-.492,2.535-8.472,2.535-8.472,2.535,0,0-1.995,3.54-3.492,3.54s1.998,4.548.996,7.59c-.996,3.03-4.989,3.03-4.989,3.03l-7.485,2.031-1.992,2.535h-7.98l-.99-6.579,8.97-2.535,4.983-2.526,2.499-5.07c.495-5.052,6.48-4.551,6.48-4.551,0,0,11.472-9.618,11.97-14.166.507-4.557,4.491-17.211,11.469-17.211h12.969c4.983-2.031,3.489-8.607,3.489-8.607l6.486-1.005.999,3.54s8.979,1.011,9.972-.507c1.002-1.512,2.994-5.061,5.49-3.54,2.493,1.515,10.47-3.546,10.47-3.546.498-3.543,12.966-2.025,12.966-2.025l1.5-4.551s-8.475-11.64-9.972-11.64-9.477-7.095-10.479-4.56c-7.968-2.022-7.476-13.161-7.476-13.161l-2.994-7.08c0-4.056-7.47-12.66-8.979-11.64-7.485-5.568-1.992-12.15,0-12.657,1.995-.501,6.99-7.59,6.99-7.59l2.49-7.089,8.475-2.52.999-6.585-4.479-.507s4.98-9.111,7.476-9.111,18.954,0,20.439-1.017c1.5-1.005,4.488-9.105,4.488-10.623s3.999-2.028,5.487-2.538c1.497-.501,4.986-4.551,5.985-6.576.999-2.04-2.484-14.694-4.485-12.669h.003Z"/>
        <path class="cls-1" d="M1799.94,1216.9c.75-.75,1.5,2.28,2.994,1.902,1.485-.381,2.241,2.658.75,2.658-1.5,0-1.5,1.902-1.5,2.661s0,2.652-1.125,3.792c-1.122,1.14-2.25.378-3.747-.378-1.491-.759-2.232-.759-4.11-.759-1.866,0-.378,3.039-.378,3.039,0,0-7.854-.381-6.357-1.524,1.5-1.128,2.994-1.518,1.878-2.28-1.128-.759,0-1.512,0-3.03s3.741-.759,2.61-1.902c-1.113-1.14.024-5.544,1.869-3.039l1.128-2.661c-1.128-1.137-.372-1.521-2.616-2.268-2.244-.759-.381-5.319-.381-5.319l.381-3.036c.747-3.789,8.223-4.173,8.601-.762.369,3.42,0,5.7,0,5.7l2.25.753s-.381,2.289-2.25,2.289,0,1.125-1.125,2.271l1.128,1.89v.003ZM1775.25,1220.71c1.125-2.28,3.738-12.15,6.735-9.111,2.982,3.039,4.86,0,4.86,0,0,0,1.497,1.524.747,4.56-.75,3.03-1.5,6.072-3.375,6.45-1.863.381-3.363,1.521-5.598,1.902-2.241.381-3.369-3.801-3.369-3.801Z"/>
      </g>
    </g>
  </g>
</svg>