<?xml version="1.0" encoding="UTF-8"?>
<svg xmlns="http://www.w3.org/2000/svg" viewBox="0 0 3600 2400">
  <defs>
    <style>
      .cls-1 {
        fill: #b22334;
      }

      .cls-1, .cls-2, .cls-3, .cls-4 {
        stroke-width: 0px;
      }

      .cls-2 {
        fill: #3c3b6e;
      }

      .cls-2, .cls-4 {
        fill-rule: evenodd;
      }

      .cls-3 {
        fill: #fff;
      }

      .cls-4 {
        fill: #eee;
      }
    </style>
  </defs>
  <g id="background">
    <path id="bg" class="cls-4" d="M400,0h2800c220,0,400,180,400,400v1600c0,220-180,400-400,400H400c-220,0-400-180-400-400V400C0,180,180,0,400,0Z"/>
  </g>
  <g id="country">
    <g id="us">
      <g>
        <rect class="cls-1" y="1097.402" width="3600" height="205.196"/>
        <rect class="cls-1" y="728.171" width="3600" height="205.196"/>
        <rect class="cls-1" y="1466.633" width="3600" height="205.195"/>
        <path class="cls-1" d="M3597.891,358.94H2.109c-1.393,13.505-2.109,27.203-2.109,41.06v164.136h3600v-164.136c0-13.857-.716-27.555-2.109-41.06Z"/>
        <path class="cls-1" d="M0,2000c0,13.857.716,27.555,2.109,41.06h3595.782c1.393-13.505,2.109-27.203,2.109-41.06v-164.137H0v164.137Z"/>
        <path class="cls-1" d="M3543.029,194.905C3472.917,78.379,3345.17,0,3200,0H400C254.83,0,127.083,78.379,56.971,194.905h3486.057Z"/>
        <path class="cls-1" d="M56.971,2205.095c70.112,116.526,197.859,194.905,343.029,194.905h2800c145.17,0,272.917-78.379,343.029-194.905H56.971Z"/>
      </g>
      <path class="cls-2" d="M1600,0v1200H0V400C0,180,180,0,400,0h1200Z"/>
      <g id="_50" data-name="50">
        <g id="b">
          <path id="a" class="cls-3" d="M239.012,359.915l32.04,98.608-83.88-60.943h103.682l-83.881,60.943,32.04-98.608Z"/>
          <path id="a-2" class="cls-3" d="M239.012,550.696l32.04,98.608-83.88-60.943h103.682l-83.881,60.943,32.04-98.608Z"/>
          <path id="a-3" class="cls-3" d="M239.012,741.477l32.04,98.608-83.88-60.943h103.682l-83.881,60.943,32.04-98.608Z"/>
          <path id="a-4" class="cls-3" d="M239.012,169.133l32.04,98.608-83.88-60.943h103.682l-83.881,60.943,32.04-98.608h0Z"/>
          <path id="a-5" class="cls-3" d="M239.012,932.259l32.04,98.608-83.88-60.943h103.682l-83.881,60.943,32.04-98.608Z"/>
        </g>
        <g id="b-2">
          <path id="a-6" class="cls-3" d="M351.209,264.524l32.04,98.608-83.88-60.943h103.682l-83.881,60.943,32.04-98.608Z"/>
          <path id="a-7" class="cls-3" d="M351.209,455.306l32.04,98.608-83.88-60.943h103.682l-83.881,60.943,32.04-98.608h0Z"/>
          <path id="a-8" class="cls-3" d="M351.209,646.087l32.04,98.608-83.88-60.943h103.682l-83.881,60.943,32.04-98.608Z"/>
          <path id="a-9" class="cls-3" d="M351.209,836.869l32.04,98.608-83.88-60.943h103.682l-83.881,60.943,32.04-98.608Z"/>
        </g>
        <g id="b-3">
          <path id="a-10" class="cls-3" d="M463.407,169.133l32.04,98.608-83.88-60.943h103.682l-83.881,60.943,32.04-98.608h0Z"/>
          <path id="a-11" class="cls-3" d="M463.407,359.915l32.04,98.608-83.88-60.943h103.682l-83.881,60.943,32.04-98.608Z"/>
          <path id="a-12" class="cls-3" d="M463.407,550.696l32.04,98.608-83.88-60.943h103.682l-83.881,60.943,32.04-98.608Z"/>
          <path id="a-13" class="cls-3" d="M463.407,741.477l32.04,98.608-83.88-60.943h103.682l-83.881,60.943,32.04-98.608Z"/>
          <path id="a-14" class="cls-3" d="M463.407,932.259l32.04,98.608-83.88-60.943h103.682l-83.881,60.943,32.04-98.608Z"/>
        </g>
        <g id="b-4">
          <path id="a-15" class="cls-3" d="M575.605,264.524l32.04,98.608-83.88-60.943h103.682l-83.881,60.943,32.04-98.608h0Z"/>
          <path id="a-16" class="cls-3" d="M575.605,455.306l32.04,98.608-83.88-60.943h103.682l-83.881,60.943,32.04-98.608h0Z"/>
          <path id="a-17" class="cls-3" d="M575.605,646.087l32.04,98.608-83.88-60.943h103.682l-83.881,60.943,32.04-98.608h0Z"/>
          <path id="a-18" class="cls-3" d="M575.605,836.869l32.04,98.608-83.88-60.943h103.682l-83.881,60.943,32.04-98.608h0Z"/>
        </g>
        <g id="b-5">
          <path id="a-19" class="cls-3" d="M687.802,169.133l32.04,98.608-83.88-60.943h103.682l-83.881,60.943,32.04-98.608h0Z"/>
          <path id="a-20" class="cls-3" d="M687.802,359.915l32.04,98.608-83.88-60.943h103.682l-83.881,60.943,32.04-98.608Z"/>
          <path id="a-21" class="cls-3" d="M687.802,550.696l32.04,98.608-83.88-60.943h103.682l-83.881,60.943,32.04-98.608Z"/>
          <path id="a-22" class="cls-3" d="M687.802,741.477l32.04,98.608-83.88-60.943h103.682l-83.881,60.943,32.04-98.608Z"/>
          <path id="a-23" class="cls-3" d="M687.802,932.259l32.04,98.608-83.88-60.943h103.682l-83.881,60.943,32.04-98.608Z"/>
        </g>
        <g id="b-6">
          <path id="a-24" class="cls-3" d="M800,264.524l32.04,98.608-83.88-60.943h103.682l-83.881,60.943,32.04-98.608Z"/>
          <path id="a-25" class="cls-3" d="M800,455.306l32.04,98.608-83.88-60.943h103.682l-83.881,60.943,32.04-98.608h0Z"/>
          <path id="a-26" class="cls-3" d="M800,646.087l32.04,98.608-83.88-60.943h103.682l-83.881,60.943,32.04-98.608Z"/>
          <path id="a-27" class="cls-3" d="M800,836.869l32.04,98.608-83.88-60.943h103.682l-83.881,60.943,32.04-98.608Z"/>
        </g>
        <g id="b-7">
          <path id="a-28" class="cls-3" d="M912.198,169.133l32.04,98.608-83.88-60.943h103.682l-83.881,60.943,32.04-98.608h0Z"/>
          <path id="a-29" class="cls-3" d="M912.198,359.915l32.04,98.608-83.88-60.943h103.682l-83.881,60.943,32.04-98.608Z"/>
          <path id="a-30" class="cls-3" d="M912.198,550.696l32.04,98.608-83.88-60.943h103.682l-83.881,60.943,32.04-98.608Z"/>
          <path id="a-31" class="cls-3" d="M912.198,741.477l32.04,98.608-83.88-60.943h103.682l-83.881,60.943,32.04-98.608Z"/>
          <path id="a-32" class="cls-3" d="M912.198,932.259l32.04,98.608-83.88-60.943h103.682l-83.881,60.943,32.04-98.608Z"/>
        </g>
        <g id="b-8">
          <path id="a-33" class="cls-3" d="M1024.395,264.524l32.04,98.608-83.88-60.943h103.682l-83.881,60.943,32.04-98.608Z"/>
          <path id="a-34" class="cls-3" d="M1024.395,455.306l32.04,98.608-83.88-60.943h103.682l-83.881,60.943,32.04-98.608h0Z"/>
          <path id="a-35" class="cls-3" d="M1024.395,646.087l32.04,98.608-83.88-60.943h103.682l-83.881,60.943,32.04-98.608Z"/>
          <path id="a-36" class="cls-3" d="M1024.395,836.869l32.04,98.608-83.88-60.943h103.682l-83.881,60.943,32.04-98.608Z"/>
        </g>
        <g id="b-9">
          <path id="a-37" class="cls-3" d="M1136.592,169.133l32.04,98.608-83.88-60.943h103.682l-83.881,60.943,32.04-98.608h0Z"/>
          <path id="a-38" class="cls-3" d="M1136.592,359.915l32.04,98.608-83.88-60.943h103.682l-83.881,60.943,32.04-98.608Z"/>
          <path id="a-39" class="cls-3" d="M1136.592,550.696l32.04,98.608-83.88-60.943h103.682l-83.881,60.943,32.04-98.608Z"/>
          <path id="a-40" class="cls-3" d="M1136.592,741.477l32.04,98.608-83.88-60.943h103.682l-83.881,60.943,32.04-98.608Z"/>
          <path id="a-41" class="cls-3" d="M1136.592,932.259l32.04,98.608-83.88-60.943h103.682l-83.881,60.943,32.04-98.608Z"/>
        </g>
        <g id="b-10">
          <path id="a-42" class="cls-3" d="M1248.79,264.524l32.04,98.608-83.88-60.943h103.682l-83.881,60.943,32.04-98.608Z"/>
          <path id="a-43" class="cls-3" d="M1248.79,455.306l32.04,98.608-83.88-60.943h103.682l-83.881,60.943,32.04-98.608h0Z"/>
          <path id="a-44" class="cls-3" d="M1248.79,646.087l32.04,98.608-83.88-60.943h103.682l-83.881,60.943,32.04-98.608Z"/>
          <path id="a-45" class="cls-3" d="M1248.79,836.869l32.04,98.608-83.88-60.943h103.682l-83.881,60.943,32.04-98.608Z"/>
        </g>
        <g id="b-11">
          <path id="a-46" class="cls-3" d="M1360.987,169.133l32.04,98.608-83.88-60.943h103.682l-83.881,60.943,32.04-98.608h0Z"/>
          <path id="a-47" class="cls-3" d="M1360.987,359.915l32.04,98.608-83.88-60.943h103.682l-83.881,60.943,32.04-98.608Z"/>
          <path id="a-48" class="cls-3" d="M1360.987,550.696l32.04,98.608-83.88-60.943h103.682l-83.881,60.943,32.04-98.608Z"/>
          <path id="a-49" class="cls-3" d="M1360.987,741.477l32.04,98.608-83.88-60.943h103.682l-83.881,60.943,32.04-98.608Z"/>
          <path id="a-50" class="cls-3" d="M1360.987,932.259l32.04,98.608-83.88-60.943h103.682l-83.881,60.943,32.04-98.608Z"/>
        </g>
      </g>
    </g>
  </g>
</svg>