<?xml version="1.0" encoding="UTF-8"?>
<svg xmlns="http://www.w3.org/2000/svg" viewBox="0 0 3600.818 2401.738">
  <defs>
    <style>
      .cls-1 {
        fill: #0038a8;
      }

      .cls-1, .cls-2, .cls-3 {
        stroke-width: 0px;
      }

      .cls-4 {
        stroke-width: 4.004px;
      }

      .cls-4, .cls-2, .cls-5 {
        fill: #7b3f00;
      }

      .cls-4, .cls-5, .cls-6, .cls-7 {
        stroke-linecap: square;
      }

      .cls-4, .cls-5, .cls-6, .cls-7, .cls-8, .cls-9, .cls-10, .cls-11 {
        stroke: #7b3f00;
        stroke-miterlimit: 75.591;
      }

      .cls-5 {
        stroke-width: 4.003px;
      }

      .cls-6, .cls-7, .cls-8, .cls-11 {
        fill: #fcd116;
      }

      .cls-6, .cls-8, .cls-10 {
        stroke-width: 8.8px;
      }

      .cls-7, .cls-9, .cls-11 {
        stroke-width: 8.797px;
      }

      .cls-9, .cls-10 {
        fill: none;
      }

      .cls-3 {
        fill: #eee;
        fill-rule: evenodd;
      }
    </style>
  </defs>
  <g id="background">
    <path id="bg" class="cls-3" d="M400,.1h2800c220,0,400,180,400,400v1600c0,220-180,400-400,400H400C180,2400.1,0,2220.1,0,2000.1V400.1C0,180.1,180,.1,400,.1Z"/>
  </g>
  <g id="country">
    <g id="uy">
      <g>
        <path class="cls-1" d="M0,2000.1C0,2046.793,8.112,2091.682,22.99,2133.433h3554.019c14.878-41.751,22.99-86.64,22.99-133.333v-133.333H0v133.333Z"/>
        <rect class="cls-1" x="0" y="1333.433" width="3600" height="266.667"/>
        <rect class="cls-1" x="1333.333" y="800.1" width="2266.667" height="266.667"/>
        <path class="cls-1" d="M1333.333,266.767v266.667h2266.667v-133.333c0-46.693-8.112-91.582-22.99-133.333H1333.333Z"/>
      </g>
      <g>
        <g>
          <g>
            <path class="cls-7" d="M636.47,797.138l44.145,65.915c-181.374,131.24-70.638,208.86-199.17,250.874,79.939-78.009-10.568-90.046,56.787-252.645"/>
            <g>
              <path class="cls-6" d="M553.133,737.601l-15.406,77.822c-221.041-35.434-197.63,97.735-318.215,36.571,111.687,1.353,58.716-72.135,221.315-139.49"/>
              <path class="cls-4" d="M553.133,737.616l-34.829-6.278.36,1.44c-92.912,22.778-143.363,61.293-182.872,90.565-19.769,14.643-36.831,27.083-55.318,33.836-12.254,4.537-25.406,6.116-38.386,4.608,95.921,34.081,89.571-79.363,295.653-46.333l15.392-77.837Z"/>
              <path class="cls-10" d="M517.613,728.502c-187.378,45.873-205.102,156.393-298.101,123.479"/>
            </g>
            <path class="cls-11" d="M666.663,666.762l-62.229-62.215-280.016,404.446,404.474-280.002-62.229-62.229-342.245,342.246"/>
            <g>
              <path class="cls-6" d="M536.287,636.584l-65.901,44.131c-131.254-181.36-208.875-70.638-250.874-199.171,78.009,79.939,90.781-10.41,253.394,56.945"/>
              <path class="cls-4" d="M536.287,636.598l-20.186-29.07-.763,1.267c-81.811-49.602-144.716-58.025-193.368-65.281-24.319-3.628-45.167-6.882-63.021-15.19-11.875-5.452-22.294-13.632-30.409-23.872,43.742,91.918,119.462,7.199,241.832,176.292l65.915-44.145Z"/>
              <path class="cls-10" d="M517.613,605.023c-164.932-100.068-255.611-34.44-298.101-123.479"/>
              <path class="cls-8" d="M666.663,666.762v-88.002l-483.996,88.002,483.996,88.002v-88.002H182.667"/>
              <path class="cls-2" d="M666.663,666.762v88.002-88.002H182.667l483.996,88.002"/>
              <path class="cls-6" d="M595.824,553.232l-77.808-15.392c35.42-221.056-97.749-197.644-36.571-318.229-1.368,111.687,75.907,67.657,143.262,230.256"/>
              <path class="cls-4" d="M595.809,553.247l6.278-34.844-1.44.374c-22.764-92.926-61.293-143.377-90.565-182.886-14.629-19.769-27.069-36.816-33.821-55.318-4.535-12.249-6.113-25.396-4.607-38.371-34.081,95.907,79.363,89.557,46.333,295.653l77.822,15.392Z"/>
              <path class="cls-10" d="M604.923,517.712c-45.858-187.378-156.393-205.088-123.479-298.101"/>
              <path class="cls-8" d="M666.663,666.762l62.229-62.215-404.474-280.016,280.016,404.46,62.229-62.229-342.245-342.246"/>
              <path class="cls-2" d="M666.663,666.762l-62.229,62.229,62.229-62.229-342.245-342.246,280.016,404.474"/>
              <path class="cls-6" d="M696.856,536.401l-44.145-65.915c181.374-131.254,70.638-208.86,199.17-250.874-79.939,78.009,10.108,90.881-57.247,253.48"/>
              <path class="cls-4" d="M696.841,536.386l29.056-20.186-1.267-.763c49.602-81.796,58.039-144.702,65.281-193.354,3.628-24.333,6.882-45.182,15.205-63.035,5.45-11.868,13.624-22.282,23.858-30.395-91.918,43.727-7.199,119.448-176.292,241.818l44.159,65.915Z"/>
              <path class="cls-10" d="M728.417,517.712c100.053-164.932,34.426-255.611,123.465-298.101"/>
              <path class="cls-8" d="M666.663,666.762h88.002l-88.002-483.996-88.002,483.996h88.002V182.766"/>
              <path class="cls-2" d="M666.663,666.762h-88.002,88.002V182.766l-88.002,483.996"/>
              <path class="cls-6" d="M780.193,595.923l15.406-77.808c221.041,35.434,197.63-97.749,318.229-36.571-111.701-1.353-61.941,72.509-224.54,139.864"/>
              <path class="cls-4" d="M780.193,595.909l34.829,6.278-.36-1.44c92.912-22.763,143.363-61.279,182.872-90.565,19.769-14.629,36.831-27.069,55.318-33.821,12.254-4.537,25.406-6.116,38.386-4.608-95.921-34.081-89.557,79.363-295.653,46.333l-15.392,77.822Z"/>
              <path class="cls-10" d="M815.713,605.023c187.378-45.858,205.102-156.393,298.115-123.479"/>
              <path class="cls-8" d="M666.663,666.762l62.229,62.229,280.002-404.46-404.474,280.016,62.229,62.215,342.245-342.246"/>
              <path class="cls-2" d="M666.663,666.762l-62.229-62.215,62.229,62.215,342.245-342.246-404.474,280.031"/>
              <path class="cls-6" d="M797.039,696.955l65.901-44.131c131.254,181.36,208.875,70.638,250.889,199.156-78.024-79.939-92.667,9.517-255.28-57.838"/>
              <path class="cls-4" d="M797.039,696.955l20.186,29.056.763-1.282c81.811,49.602,144.716,58.039,193.368,65.281,24.319,3.628,45.182,6.897,63.021,15.205,11.875,5.452,22.294,13.632,30.409,23.872-43.727-91.918-119.462-7.214-241.832-176.292l-65.915,44.159Z"/>
              <path class="cls-10" d="M815.713,728.502c164.931,100.068,255.611,34.44,298.115,123.479"/>
              <path class="cls-8" d="M666.663,666.762v88.002l483.996-88.002-483.996-88.002v88.002h483.996"/>
              <path class="cls-2" d="M666.663,666.762v-88.002,88.002h483.996l-483.996-88.002"/>
              <path class="cls-6" d="M737.502,780.306l77.822,15.392c-35.448,221.056,97.735,197.63,36.571,318.229,1.353-111.687-72.193-59.968-139.533-222.567"/>
              <path class="cls-4" d="M737.516,780.292l-6.278,34.829,1.44-.36c22.778,92.912,61.293,143.363,90.565,182.886,14.629,19.769,27.069,36.816,33.821,55.318,4.539,12.248,6.123,25.395,4.622,38.371,34.081-95.921-79.377-89.557-46.348-295.653l-77.822-15.392Z"/>
              <path class="cls-10" d="M728.417,815.827c45.844,187.378,156.365,205.088,123.45,298.1"/>
              <path class="cls-8" d="M666.663,666.762l-62.229,62.229,404.474,280.016-280.016-404.46-62.229,62.215,342.245,342.246"/>
              <path class="cls-2" d="M666.663,666.762l62.229-62.215-62.229,62.215,342.245,342.246-280.016-404.46"/>
            </g>
          </g>
          <path class="cls-5" d="M636.484,797.138l-29.056,20.201,1.267.763c-49.602,81.796-58.025,144.702-65.281,193.354-3.628,24.333-6.882,45.182-15.205,63.021-5.448,11.873-13.622,22.292-23.858,30.409,91.918-43.727,7.199-119.462,176.292-241.832l-44.159-65.915Z"/>
          <g>
            <path class="cls-9" d="M604.923,815.827c-100.068,164.917-34.441,255.597-123.479,298.1"/>
            <path class="cls-11" d="M666.663,666.762h-88.002l88.002,484.01,88.002-484.01h-88.002v484.01"/>
          </g>
        </g>
        <path class="cls-2" d="M666.663,666.762h88.002-88.002v484.01l88.002-484.01"/>
        <path class="cls-2" d="M666.663,666.762l62.229,62.229-62.229-62.229-342.245,342.246,404.474-280.016"/>
        <circle class="cls-11" cx="666.663" cy="666.762" r="161.332"/>
        <g>
          <path class="cls-2" d="M785.462,602.229c-10.266,11.735-16.126-8.783-52.798-8.783s-42.532,21.986-48.407,17.58c-5.86-4.391,30.812-30.798,42.547-32.252,11.72-1.469,45.455,10.266,58.658,23.469M742.93,615.432c10.266,8.797,1.469,27.875-8.797,27.875s-29.329-17.609-20.532-29.343"/>
          <path class="cls-2" d="M694.523,628.636c1.469-17.609,16.14-20.532,39.595-20.532s33.749,17.595,42.547,22c-10.266,0-19.063-14.672-42.532-14.672s-23.469,0-39.595,14.672M698.929,633.027c5.874-8.783,13.203,8.812,29.329,8.812s24.938-4.406,35.204-11.735c10.266-7.343-14.672,17.595-30.798,17.595s-38.141-8.797-33.735-14.672M584.535,613.964c-7.343,2.937-19.078,17.609,0,27.875-14.686-10.266-2.937-24.938,0-27.875Z"/>
          <path class="cls-2" d="M748.805,613.964c2.923,2.937,14.657,17.609,0,27.875,19.063-10.266,7.329-24.938,0-27.875ZM643.194,677.028c-13.203,2.937-8.797,22-20.532,23.469-11.735,1.469-17.595,14.672-16.126,13.203,7.329-5.86,23.469-10.266,35.189-10.266s14.672,7.343,24.938,7.343,13.203-7.343,24.938-7.343,27.861,4.406,35.204,10.266c1.454,1.469-4.406-11.735-16.126-13.203-11.749-1.469-7.343-20.532-20.546-23.469,0,5.875,4.391,4.406,5.86,13.203,0,7.343-13.189,7.343-16.126,0,2.937,11.735-5.874,11.735-13.203,11.735s-16.126,0-13.203-11.735c-2.923,7.343-16.126,7.343-16.126,0,1.469-8.797,5.86-7.343,5.86-13.203ZM597.724,726.903c-11.735,8.797-14.657,13.203-16.126,23.469,3.513-6.162,5.241-8.697,7.919-12.31l-2.045-.893c.849.101,1.613.23,2.448.346,1.757-2.39,3.34-4.463,7.804-10.611h0Z"/>
          <path class="cls-2" d="M589.906,737.515l-.187.259c1.843.432,3.787.619,5.817.634-1.866-.331-3.738-.629-5.615-.893h-.014ZM595.536,738.408c9.157,1.613,16.328,3.715,22.908,5.846,8.207-.605,19.538-2.692,48.234-2.692s39.998,2.088,48.205,2.692c6.58-2.131,13.765-4.233,22.893-5.846-16.155.058-37.695-11.519-47.658-11.519-11.72,0-14.657,2.937-23.455,2.937s-11.735-2.923-23.469-2.923c-9.949,0-31.489,11.562-47.658,11.504h0ZM737.776,738.408c2.045,0,4.003-.216,5.831-.634l-.187-.259c-1.958.288-3.844.576-5.63.893h-.014Z"/>
          <path class="cls-2" d="M743.42,737.515c.821-.115,1.584-.245,2.448-.346-.734.302-1.339.576-2.059.893,2.678,3.614,4.406,6.148,7.919,12.31-1.469-10.266-4.391-14.672-16.126-23.469,4.463,6.148,6.047,8.207,7.818,10.611h0Z"/>
          <path class="cls-2" d="M743.823,738.062c-.024-.037-.053-.071-.086-.101-15.305,5.903-20.69,6.911-28.854,6.292-13.909,4.507-25.37,9.056-48.22,9.056s-34.311-4.55-48.22-9.056c-8.164.605-13.549-.389-28.854-6.292-.02.036-.044.07-.072.101,46.074,19.826,41.035,26.968,77.146,26.968s31.071-7.142,77.146-26.968h.014ZM589.589,737.961c.047-.063.095-.125.144-.187-.778-.173-1.541-.346-2.261-.605.835.331,1.339.489,2.117.792h0ZM743.736,737.961c.778-.302,1.296-.461,2.131-.792-.72.259-1.497.432-2.261.605.047.063.095.125.144.187h-.014ZM547.863,602.229c10.266,11.735,16.126-8.783,52.798-8.783s42.532,21.986,48.407,17.58-30.812-30.798-42.532-32.252c-11.72-1.454-45.47,10.266-58.673,23.469M590.395,615.432c-10.266,8.797-1.469,27.875,8.797,27.875s29.344-17.609,20.532-29.343"/>
          <path class="cls-2" d="M638.802,628.636c-1.469-17.609-16.126-20.532-39.595-20.532s-33.749,17.595-42.547,22c10.266,0,19.063-14.672,42.532-14.672s23.469,0,39.595,14.672M634.396,633.027c-5.86-8.783-13.203,8.812-29.329,8.812s-24.938-4.406-35.204-11.735c-10.266-7.329,14.672,17.595,30.812,17.595s38.126-8.797,33.721-14.672M666.663,778.233c-7.343,0-26.392,4.406,0,4.406s7.343-4.406,0-4.406"/>
        </g>
      </g>
    </g>
  </g>
</svg>