<?xml version="1.0" encoding="UTF-8"?>
<svg xmlns="http://www.w3.org/2000/svg" viewBox="0 0 3600.818 2401.738">
  <defs>
    <style>
      .cls-1, .cls-2, .cls-3, .cls-4, .cls-5, .cls-6 {
        stroke-width: 0px;
      }

      .cls-1, .cls-4 {
        fill: #fff;
      }

      .cls-2 {
        fill: #1eb53a;
      }

      .cls-2, .cls-4, .cls-5 {
        fill-rule: evenodd;
      }

      .cls-3 {
        fill: #ce1126;
      }

      .cls-5 {
        fill: #0099b5;
      }

      .cls-6 {
        fill: #eee;
      }
    </style>
  </defs>
  <g id="background">
    <path id="uz" class="cls-2" d="M400,.1h2800c220,0,400,180,400,400v1600c0,220-180,400-400,400H400C180,2400.1,0,2220.1,0,2000.1V400.1C0,180.1,180,.1,400,.1Z"/>
  </g>
  <g id="country">
    <g id="uz-2" data-name="uz">
      <g>
        <path class="cls-5" d="M4.225,342.144v473.449h3595.775v-415.493C3600,180.1,3420,.1,3200,.1H400C199.673.1,32.519,149.35,4.225,342.144Z"/>
        <rect class="cls-3" x="4.225" y="769.114" width="3595.775" height="861.972"/>
        <rect class="cls-6" x="4.225" y="815.593" width="3595.775" height="769.014"/>
        <circle class="cls-1" cx="676.056" cy="384.607" r="287.324"/>
        <path class="cls-5" d="M1056.338,384.607c0,158.683-128.641,287.324-287.324,287.324s-287.324-128.641-287.324-287.324S610.331,97.283,769.014,97.283s287.324,128.641,287.324,287.324Z"/>
        <path class="cls-4" d="M790.141,598.194h43.576l13.466-40.348,13.466,40.348h43.576l-35.256,24.938,13.466,40.348-35.252-24.938-35.252,24.938,13.466-40.348-35.256-24.938ZM1022.535,598.194h41.962l12.968-40.348,12.968,40.348h41.962l-33.951,24.938,12.968,40.348-33.946-24.938-33.946,24.938,12.968-40.348-33.951-24.938ZM1250.704,598.194h43.576l13.466-40.348,13.466,40.348h43.576l-35.256,24.938,13.466,40.348-35.252-24.938-35.252,24.938,13.466-40.348-35.257-24.938ZM1483.099,598.194h41.962l12.968-40.348,12.968,40.348h41.962l-33.951,24.938,12.968,40.348-33.946-24.938-33.946,24.938,12.968-40.348-33.951-24.938ZM1711.268,598.194h43.576l13.466-40.348,13.466,40.348h43.576l-35.256,24.938,13.466,40.348-35.252-24.938-35.252,24.938,13.466-40.348-35.257-24.938ZM1022.535,367.414h41.962l12.968-41.962,12.968,41.962h41.962l-33.951,25.935,12.968,41.962-33.946-25.935-33.946,25.935,12.968-41.962-33.951-25.935ZM1250.704,367.414h43.576l13.466-41.962,13.466,41.962h43.576l-35.256,25.935,13.466,41.962-35.252-25.935-35.252,25.935,13.466-41.962-35.257-25.935ZM1483.099,367.414h41.962l12.968-41.962,12.968,41.962h41.962l-33.951,25.935,12.968,41.962-33.946-25.935-33.946,25.935,12.968-41.962-33.951-25.935ZM1711.268,367.414h43.576l13.466-41.962,13.466,41.962h43.576l-35.256,25.935,13.466,41.962-35.252-25.935-35.252,25.935,13.466-41.962-35.257-25.935ZM1250.704,137.631h43.576l13.466-40.348,13.466,40.348h43.576l-35.256,24.938,13.466,40.348-35.252-24.938-35.252,24.938,13.466-40.348-35.257-24.938ZM1483.099,137.631h41.962l12.968-40.348,12.968,40.348h41.962l-33.951,24.938,12.968,40.348-33.946-24.938-33.946,24.938,12.968-40.348-33.951-24.938ZM1711.268,137.631h43.576l13.466-40.348,13.466,40.348h43.576l-35.256,24.938,13.466,40.348-35.252-24.938-35.252,24.938,13.466-40.348-35.257-24.938Z"/>
      </g>
    </g>
  </g>
</svg>