<?xml version="1.0" encoding="UTF-8"?>
<svg xmlns="http://www.w3.org/2000/svg" viewBox="0 0 3600.818 2401.738">
  <defs>
    <style>
      .cls-1 {
        fill: #002674;
      }

      .cls-1, .cls-2, .cls-3 {
        stroke-width: 0px;
      }

      .cls-2 {
        fill: #007c2e;
      }

      .cls-3 {
        fill: #fcd022;
        fill-rule: evenodd;
      }
    </style>
  </defs>
  <g id="background">
    <path id="vc" class="cls-3" d="M400,.1h2800c220,0,400,180,400,400v1600c0,220-180,400-400,400H400C180,2400.1,0,2220.1,0,2000.1V400.1C0,180.1,180,.1,400,.1Z"/>
  </g>
  <g id="country">
    <g id="vc-2" data-name="vc">
      <path class="cls-2" d="M3200,.1h-500v2400h500c220,0,400-180,400-400V400.1C3600,180.1,3420,.1,3200,.1Z"/>
      <path class="cls-1" d="M400,.1C180,.1,0,180.1,0,400.1v1600C0,2220.1,180,2400.1,400,2400.1h500V.1h-500Z"/>
      <path class="cls-2" d="M1573.331,1733.35l226.669,426.675,226.669-426.675-226.669-426.656-226.669,426.656ZM1280.006,1200.1l226.669,426.656,226.65-426.656-226.65-426.675-226.669,426.675ZM1866.675,1200.1l226.65,426.675,226.688-426.675-226.688-426.675-226.65,426.675Z"/>
    </g>
  </g>
</svg>