<?xml version="1.0" encoding="UTF-8"?>
<svg xmlns="http://www.w3.org/2000/svg" xmlns:xlink="http://www.w3.org/1999/xlink" viewBox="0 0 3600.1 2401.738">
  <defs>
    <style>
      .cls-1 {
        fill: url(#_무제_그라디언트_15-4);
      }

      .cls-1, .cls-2, .cls-3, .cls-4, .cls-5, .cls-6, .cls-7, .cls-8, .cls-9, .cls-10, .cls-11, .cls-12, .cls-13, .cls-14, .cls-15, .cls-16, .cls-17, .cls-18, .cls-19, .cls-20, .cls-21, .cls-22 {
        stroke: #000;
      }

      .cls-1, .cls-2, .cls-3, .cls-4, .cls-5, .cls-6, .cls-7, .cls-8, .cls-9, .cls-10, .cls-11, .cls-13, .cls-14, .cls-15, .cls-16, .cls-17, .cls-19, .cls-20 {
        stroke-width: 2.832px;
      }

      .cls-2 {
        fill: url(#_무제_그라디언트_15-2);
      }

      .cls-3 {
        fill: url(#_무제_그라디언트_15-5);
      }

      .cls-4 {
        fill: url(#_무제_그라디언트_15-11);
      }

      .cls-5 {
        fill: url(#_무제_그라디언트_15-10);
      }

      .cls-6 {
        fill: url(#_무제_그라디언트_15-8);
      }

      .cls-7, .cls-16, .cls-18, .cls-23, .cls-21 {
        fill: none;
      }

      .cls-7, .cls-18 {
        stroke-linejoin: round;
      }

      .cls-24, .cls-25, .cls-26, .cls-27, .cls-28, .cls-29, .cls-30 {
        stroke-width: 0px;
      }

      .cls-8, .cls-25 {
        fill: #fff;
      }

      .cls-9 {
        fill: url(#_무제_그라디언트_15-12);
      }

      .cls-10 {
        fill: url(#_무제_그라디언트_15);
      }

      .cls-11 {
        fill: url(#_무제_그라디언트_15-9);
      }

      .cls-12, .cls-13 {
        fill: #ffc72c;
      }

      .cls-12, .cls-23, .cls-21, .cls-22 {
        stroke-width: 5.661px;
      }

      .cls-26 {
        fill: #00247d;
      }

      .cls-26, .cls-29, .cls-30 {
        fill-rule: evenodd;
      }

      .cls-14 {
        fill: url(#_무제_그라디언트_15-7);
      }

      .cls-15 {
        fill: #9c5100;
      }

      .cls-27, .cls-30 {
        fill: #eee;
      }

      .cls-17 {
        fill: url(#_무제_그라디언트_15-6);
      }

      .cls-28, .cls-29 {
        fill: #cf1b2b;
      }

      .cls-18 {
        stroke-width: 5.097px;
      }

      .cls-23 {
        stroke: #ffc72c;
      }

      .cls-19 {
        fill: url(#_무제_그라디언트_15-3);
      }

      .cls-20 {
        fill: #ffc6b5;
      }

      .cls-22 {
        fill: #006129;
      }
    </style>
    <linearGradient id="_무제_그라디언트_15" data-name="무제 그라디언트 15" x1="1719.77" y1="1624.239" x2="1688.174" y2="1634.775" gradientTransform="translate(708.323 4472.896) scale(.996 -2.253)" gradientUnits="userSpaceOnUse">
      <stop offset="0" stop-color="red"/>
      <stop offset="1" stop-color="#ff0"/>
    </linearGradient>
    <linearGradient id="_무제_그라디언트_15-2" data-name="무제 그라디언트 15" x1="1718.22" y1="1587.566" x2="1686.624" y2="1598.102" gradientTransform="translate(707.551 4514.2) scale(.996 -2.253)" xlink:href="#_무제_그라디언트_15"/>
    <linearGradient id="_무제_그라디언트_15-3" data-name="무제 그라디언트 15" x1="1717.584" y1="1551.421" x2="1685.988" y2="1561.957" gradientTransform="translate(707.234 4554.909) scale(.996 -2.253)" xlink:href="#_무제_그라디언트_15"/>
    <linearGradient id="_무제_그라디언트_15-4" data-name="무제 그라디언트 15" x1="1771.223" y1="1512.278" x2="1739.627" y2="1522.814" gradientTransform="translate(733.95 4598.995) scale(.996 -2.253)" xlink:href="#_무제_그라디언트_15"/>
    <linearGradient id="_무제_그라디언트_15-5" data-name="무제 그라디언트 15" x1="1710.586" y1="1480.258" x2="1678.991" y2="1490.794" gradientTransform="translate(703.749 4635.059) scale(.996 -2.253)" xlink:href="#_무제_그라디언트_15"/>
    <linearGradient id="_무제_그라디언트_15-6" data-name="무제 그라디언트 15" x1="1712.177" y1="1442.425" x2="1680.581" y2="1452.961" gradientTransform="translate(704.541 4677.669) scale(.996 -2.253)" xlink:href="#_무제_그라디언트_15"/>
    <linearGradient id="_무제_그라디언트_15-7" data-name="무제 그라디언트 15" x1="2013.464" y1="1623.643" x2="1981.868" y2="1634.179" gradientTransform="translate(854.603 4473.568) scale(.996 -2.253)" xlink:href="#_무제_그라디언트_15"/>
    <linearGradient id="_무제_그라디언트_15-8" data-name="무제 그라디언트 15" x1="2010.765" y1="1587.643" x2="1979.169" y2="1598.179" gradientTransform="translate(853.259 4514.114) scale(.996 -2.253)" xlink:href="#_무제_그라디언트_15"/>
    <linearGradient id="_무제_그라디언트_15-9" data-name="무제 그라디언트 15" x1="2007.167" y1="1550.846" x2="1975.571" y2="1561.382" gradientTransform="translate(851.467 4555.557) scale(.996 -2.253)" xlink:href="#_무제_그라디언트_15"/>
    <linearGradient id="_무제_그라디언트_15-10" data-name="무제 그라디언트 15" x1="2011.215" y1="1514.647" x2="1979.619" y2="1525.183" gradientTransform="translate(853.483 4596.327) scale(.996 -2.253)" xlink:href="#_무제_그라디언트_15"/>
    <linearGradient id="_무제_그라디언트_15-11" data-name="무제 그라디언트 15" x1="2010.315" y1="1478.448" x2="1978.719" y2="1488.984" gradientTransform="translate(853.035 4637.097) scale(.996 -2.253)" xlink:href="#_무제_그라디언트_15"/>
    <linearGradient id="_무제_그라디언트_15-12" data-name="무제 그라디언트 15" x1="2010.765" y1="1442.05" x2="1979.169" y2="1452.586" gradientTransform="translate(853.259 4678.091) scale(.996 -2.253)" xlink:href="#_무제_그라디언트_15"/>
  </defs>
  <g id="background">
    <path id="gb" class="cls-26" d="M400,.1h2800c220,0,400,180,400,400v1600c0,220-180,400-400,400H400C180,2400.1,0,2220.1,0,2000.1V400.1C0,180.1,180,.1,400,.1Z"/>
  </g>
  <g id="country">
    <g id="vg">
      <path class="cls-25" d="M2328.78,732.304l751.203-2.79-1.395,668.979s26.481,101.739-314.976,256.44c122.646-12.543,256.44-143.55,256.44-143.55,0,0,54.357-69.684,80.838-30.66,26.478,39.021,51.564,58.533,71.076,73.863,19.512,15.33,34.842,57.144,5.577,87.804-29.265,30.66-75.261,34.842-87.804-2.79-19.512,9.759-139.371,154.704-384.66,161.67-249.471-4.179-386.055-163.062-386.055-163.062,0,0-33.45,52.962-80.835,11.151-45.99-54.354-11.148-89.196-11.148-89.196,0,0,39.021-22.299,50.172-37.632,18.12-20.904,23.694-48.78,54.354-48.78,36.237,2.79,50.172,32.055,50.172,32.055,0,0,125.433,132.402,260.622,149.127-305.208-146.349-316.359-236.94-314.964-259.239l1.395-663.399-.012.009Z"/>
      <path class="cls-22" d="M2346.897,750.421l716.361-4.182v643.89c1.395,83.622-139.371,168.639-359.574,277.347-227.172-117.072-358.182-188.148-359.574-278.739l2.79-638.313-.003-.003Z"/>
      <g id="c">
        <path class="cls-23" d="M2444.382,845.587l42.285-62.103,42.492,62.232"/>
        <path class="cls-13" d="M2495.157,822.37c.125,4.638-3.533,8.498-8.171,8.623s-8.498-3.533-8.623-8.171c-.004-.149-.004-.298,0-.446.122-4.638,3.98-8.299,8.617-8.177,4.464.117,8.056,3.707,8.177,8.171Z"/>
        <path class="cls-13" d="M2452.332,891.457l65.556.186s1.026-8.508-6.849-13.68c34.338-4.719,25.416-35.007,54.174-36.723,5.58.858-15.024,12.876-15.024,12.876,0,0-17.337,12.234-9.441,18.456,6.27,4.938,9.012-3.003,9.87-9.012.858-6.009,27.9-9.87,24.036-27.042-6.438-14.16-44.208,9.444-44.208,9.444l-26.946-.15c-1.68-3.024-9.105-15.15-16.776-15.21-9.099.333-15.51,15.36-15.51,15.36h-60.945s-2.088,15.636,28.815,18.642c6.957,9.087,12.351,11.625,18.399,13.977-4.032,3.36-5.169,7.425-5.151,12.876h0ZM2457.051,878.152l54.6-.186"/>
        <path class="cls-13" d="M2432.043,845.959s4.368,25.539,24.528,31.587"/>
        <path class="cls-10" d="M2428.683,845.623c2.016-9.744,5.712-11.424,9.744-23.856.672-12.099-9.744-10.755-6.72-18.48,5.376-8.4,2.688-16.47-7.392-22.851,2.016,11.088-13.104,21.504-13.104,30.576s7.728,7.059,6.72,20.835c.672,8.064-2.016,6.048-2.688,13.776h13.44Z"/>
        <path class="cls-13" d="M2494.485,785.071c.002,4.266-3.456,7.726-7.722,7.728-4.266.002-7.726-3.456-7.728-7.722s3.456-7.726,7.722-7.728c4.266-.002,7.726,3.456,7.728,7.722h0Z"/>
      </g>
      <g id="c-2" data-name="c">
        <path class="cls-23" d="M2442.066,969.499l42.285-62.103,42.492,62.232"/>
        <path class="cls-13" d="M2492.841,946.282c.125,4.638-3.533,8.498-8.171,8.623s-8.498-3.533-8.623-8.171c-.004-.149-.004-.298,0-.446.122-4.638,3.98-8.299,8.617-8.177,4.464.117,8.056,3.707,8.177,8.171Z"/>
        <path class="cls-13" d="M2450.016,1015.369l65.556.186s1.026-8.508-6.849-13.68c34.338-4.719,25.416-35.007,54.174-36.723,5.58.858-15.024,12.876-15.024,12.876,0,0-17.337,12.234-9.441,18.456,6.27,4.938,9.012-3.003,9.87-9.012.858-6.009,27.9-9.87,24.036-27.042-6.438-14.16-44.208,9.444-44.208,9.444l-26.946-.15c-1.68-3.024-9.105-15.15-16.776-15.21-9.099.333-15.51,15.36-15.51,15.36h-60.945s-2.088,15.636,28.815,18.642c6.957,9.087,12.351,11.625,18.399,13.977-4.032,3.36-5.169,7.425-5.151,12.876h0ZM2454.735,1002.064l54.6-.186"/>
        <path class="cls-13" d="M2429.727,969.871s4.368,25.539,24.528,31.587"/>
        <path class="cls-2" d="M2426.367,969.535c2.016-9.744,5.712-11.424,9.744-23.856.672-12.099-9.744-10.755-6.72-18.48,5.376-8.4,2.688-16.47-7.392-22.851,2.016,11.088-13.104,21.504-13.104,30.576s7.728,7.059,6.72,20.835c.672,8.064-2.016,6.048-2.688,13.776h13.44Z"/>
        <path class="cls-13" d="M2492.169,908.983c.002,4.266-3.456,7.726-7.722,7.728-4.266.002-7.726-3.456-7.728-7.722s3.456-7.726,7.722-7.728c4.266-.002,7.726,3.456,7.728,7.722h0Z"/>
      </g>
      <g id="c-3" data-name="c">
        <path class="cls-23" d="M2441.115,1091.626l42.285-62.103,42.492,62.232"/>
        <path class="cls-13" d="M2491.89,1068.409c.125,4.638-3.533,8.498-8.171,8.623s-8.498-3.533-8.623-8.171c-.004-.149-.004-.298,0-.446.122-4.638,3.98-8.299,8.617-8.177,4.464.117,8.056,3.707,8.177,8.171Z"/>
        <path class="cls-13" d="M2449.065,1137.496l65.556.186s1.026-8.508-6.849-13.68c34.338-4.719,25.416-35.007,54.174-36.723,5.58.858-15.024,12.876-15.024,12.876,0,0-17.337,12.234-9.441,18.456,6.27,4.938,9.012-3.003,9.87-9.012.858-6.009,27.9-9.87,24.036-27.042-6.438-14.16-44.208,9.444-44.208,9.444l-26.946-.15c-1.68-3.024-9.105-15.15-16.776-15.21-9.099.333-15.51,15.36-15.51,15.36h-60.945s-2.088,15.636,28.815,18.642c6.957,9.087,12.351,11.625,18.399,13.977-4.032,3.36-5.169,7.425-5.151,12.876h0ZM2453.784,1124.191l54.6-.186"/>
        <path class="cls-13" d="M2428.776,1091.998s4.368,25.539,24.528,31.587"/>
        <path class="cls-19" d="M2425.416,1091.662c2.016-9.744,5.712-11.424,9.744-23.856.672-12.099-9.744-10.755-6.72-18.48,5.376-8.4,2.688-16.47-7.392-22.851,2.016,11.088-13.104,21.504-13.104,30.576s7.728,7.059,6.72,20.835c.672,8.064-2.016,6.048-2.688,13.776h13.44Z"/>
        <path class="cls-13" d="M2491.218,1031.11c.002,4.266-3.456,7.726-7.722,7.728-4.266.002-7.726-3.456-7.728-7.722s3.456-7.726,7.722-7.728c4.266-.002,7.726,3.456,7.728,7.722h0Z"/>
      </g>
      <g id="c-4" data-name="c">
        <path class="cls-23" d="M2521.263,1223.884l42.285-62.103,42.492,62.232"/>
        <path class="cls-13" d="M2572.038,1200.667c.125,4.638-3.533,8.498-8.171,8.623s-8.498-3.533-8.623-8.171c-.004-.149-.004-.298,0-.446.122-4.638,3.98-8.299,8.617-8.177,4.464.117,8.056,3.707,8.177,8.171Z"/>
        <path class="cls-13" d="M2529.213,1269.754l65.556.186s1.026-8.508-6.849-13.68c34.338-4.719,25.416-35.007,54.174-36.723,5.58.858-15.024,12.876-15.024,12.876,0,0-17.337,12.234-9.441,18.456,6.27,4.938,9.012-3.003,9.87-9.012.858-6.009,27.9-9.87,24.036-27.042-6.438-14.16-44.208,9.444-44.208,9.444l-26.946-.15c-1.68-3.024-9.105-15.15-16.776-15.21-9.099.333-15.51,15.36-15.51,15.36h-60.945s-2.088,15.636,28.815,18.642c6.957,9.087,12.351,11.625,18.399,13.977-4.032,3.36-5.169,7.425-5.151,12.876h0ZM2533.932,1256.449l54.6-.186"/>
        <path class="cls-13" d="M2508.924,1224.256s4.368,25.539,24.528,31.587"/>
        <path class="cls-1" d="M2505.564,1223.92c2.016-9.744,5.712-11.424,9.744-23.856.672-12.099-9.744-10.755-6.72-18.48,5.376-8.4,2.688-16.47-7.392-22.851,2.016,11.088-13.104,21.504-13.104,30.576s7.728,7.059,6.72,20.835c.672,8.064-2.016,6.048-2.688,13.776h13.44Z"/>
        <path class="cls-13" d="M2571.366,1163.368c.002,4.266-3.456,7.726-7.722,7.728-4.266.002-7.726-3.456-7.728-7.722s3.456-7.726,7.722-7.728c4.266-.002,7.726,3.456,7.728,7.722h0Z"/>
      </g>
      <g id="c-5" data-name="c">
        <path class="cls-23" d="M2430.66,1332.076l42.285-62.103,42.492,62.232"/>
        <path class="cls-13" d="M2481.435,1308.859c.125,4.638-3.533,8.498-8.171,8.623s-8.498-3.533-8.623-8.171c-.004-.149-.004-.298,0-.446.122-4.638,3.98-8.299,8.617-8.177,4.464.117,8.056,3.707,8.177,8.171Z"/>
        <path class="cls-13" d="M2438.61,1377.946l65.556.186s1.026-8.508-6.849-13.68c34.338-4.719,25.416-35.007,54.174-36.723,5.58.858-15.024,12.876-15.024,12.876,0,0-17.337,12.234-9.441,18.456,6.27,4.938,9.012-3.003,9.87-9.012.858-6.009,27.9-9.87,24.036-27.042-6.438-14.16-44.208,9.444-44.208,9.444l-26.946-.15c-1.68-3.024-9.105-15.15-16.776-15.21-9.099.333-15.51,15.36-15.51,15.36h-60.945s-2.088,15.636,28.815,18.642c6.957,9.087,12.351,11.625,18.399,13.977-4.032,3.36-5.169,7.425-5.151,12.876h0ZM2443.329,1364.641l54.6-.186"/>
        <path class="cls-13" d="M2418.321,1332.448s4.368,25.539,24.528,31.587"/>
        <path class="cls-3" d="M2414.961,1332.112c2.016-9.744,5.712-11.424,9.744-23.856.672-12.099-9.744-10.755-6.72-18.48,5.376-8.4,2.688-16.47-7.392-22.851,2.016,11.088-13.104,21.504-13.104,30.576s7.728,7.059,6.72,20.835c.672,8.064-2.016,6.048-2.688,13.776h13.44Z"/>
        <path class="cls-13" d="M2480.763,1271.56c.002,4.266-3.456,7.726-7.722,7.728-4.266.002-7.726-3.456-7.728-7.722s3.456-7.726,7.722-7.728c4.266-.002,7.726,3.456,7.728,7.722h0Z"/>
      </g>
      <g id="c-6" data-name="c">
        <path class="cls-23" d="M2433.036,1459.906l42.285-62.103,42.492,62.232"/>
        <path class="cls-13" d="M2483.811,1436.689c.125,4.638-3.533,8.498-8.171,8.623s-8.498-3.533-8.623-8.171c-.004-.149-.004-.298,0-.446.122-4.638,3.98-8.299,8.617-8.177,4.464.117,8.056,3.707,8.177,8.171Z"/>
        <path class="cls-13" d="M2440.986,1505.776l65.556.186s1.026-8.508-6.849-13.68c34.338-4.719,25.416-35.007,54.174-36.723,5.58.858-15.024,12.876-15.024,12.876,0,0-17.337,12.234-9.441,18.456,6.27,4.938,9.012-3.003,9.87-9.012.858-6.009,27.9-9.87,24.036-27.042-6.438-14.16-44.208,9.444-44.208,9.444l-26.946-.15c-1.68-3.024-9.105-15.15-16.776-15.21-9.099.333-15.51,15.36-15.51,15.36h-60.945s-2.088,15.636,28.815,18.642c6.957,9.087,12.351,11.625,18.399,13.977-4.032,3.36-5.169,7.425-5.151,12.876h0ZM2445.705,1492.471l54.6-.186"/>
        <path class="cls-13" d="M2420.697,1460.278s4.368,25.539,24.528,31.587"/>
        <path class="cls-17" d="M2417.337,1459.942c2.016-9.744,5.712-11.424,9.744-23.856.672-12.099-9.744-10.755-6.72-18.48,5.376-8.4,2.688-16.47-7.392-22.851,2.016,11.088-13.104,21.504-13.104,30.576s7.728,7.059,6.72,20.835c.672,8.064-2.016,6.048-2.688,13.776h13.44Z"/>
        <path class="cls-13" d="M2483.139,1399.39c.002,4.266-3.456,7.726-7.722,7.728-4.266.002-7.726-3.456-7.728-7.722-.002-4.266,3.456-7.726,7.722-7.728,4.266-.002,7.726,3.456,7.728,7.722h0Z"/>
      </g>
      <g id="c-7" data-name="c">
        <path class="cls-23" d="M2883.222,847.603l42.285-62.103,42.492,62.232"/>
        <path class="cls-13" d="M2933.997,824.386c.125,4.638-3.533,8.498-8.171,8.623s-8.498-3.533-8.623-8.171c-.004-.149-.004-.298,0-.446.122-4.638,3.98-8.299,8.617-8.177,4.464.117,8.056,3.707,8.177,8.171Z"/>
        <path class="cls-13" d="M2891.172,893.473l65.556.186s1.026-8.508-6.849-13.68c34.338-4.719,25.416-35.007,54.174-36.723,5.58.858-15.024,12.876-15.024,12.876,0,0-17.337,12.234-9.441,18.456,6.27,4.938,9.012-3.003,9.87-9.012.858-6.009,27.9-9.87,24.036-27.042-6.438-14.16-44.208,9.444-44.208,9.444l-26.946-.15c-1.68-3.024-9.105-15.15-16.776-15.21-9.099.333-15.51,15.36-15.51,15.36h-60.945s-2.088,15.636,28.815,18.642c6.957,9.087,12.351,11.625,18.399,13.977-4.032,3.36-5.169,7.425-5.151,12.876h0ZM2895.891,880.168l54.6-.186"/>
        <path class="cls-13" d="M2870.883,847.975s4.368,25.539,24.528,31.587"/>
        <path class="cls-14" d="M2867.523,847.639c2.016-9.744,5.712-11.424,9.744-23.856.672-12.099-9.744-10.755-6.72-18.48,5.376-8.4,2.688-16.47-7.392-22.851,2.016,11.088-13.104,21.504-13.104,30.576s7.728,7.059,6.72,20.835c.672,8.064-2.016,6.048-2.688,13.776h13.44Z"/>
        <path class="cls-13" d="M2933.325,787.087c.002,4.266-3.456,7.726-7.722,7.728-4.266.002-7.726-3.456-7.728-7.722s3.456-7.726,7.722-7.728c4.266-.002,7.726,3.456,7.728,7.722h0Z"/>
      </g>
      <g id="c-8" data-name="c">
        <path class="cls-23" d="M2879.19,969.241l42.285-62.103,42.492,62.232"/>
        <path class="cls-13" d="M2929.965,946.024c.125,4.638-3.533,8.498-8.171,8.623s-8.498-3.533-8.623-8.171c-.004-.149-.004-.298,0-.446.122-4.638,3.98-8.299,8.617-8.177,4.464.117,8.056,3.707,8.177,8.171Z"/>
        <path class="cls-13" d="M2887.14,1015.111l65.556.186s1.026-8.508-6.849-13.68c34.338-4.719,25.416-35.007,54.174-36.723,5.58.858-15.024,12.876-15.024,12.876,0,0-17.337,12.234-9.441,18.456,6.27,4.938,9.012-3.003,9.87-9.012.858-6.009,27.9-9.87,24.036-27.042-6.438-14.16-44.208,9.444-44.208,9.444l-26.946-.15c-1.68-3.024-9.105-15.15-16.776-15.21-9.099.333-15.51,15.36-15.51,15.36h-60.945s-2.088,15.636,28.815,18.642c6.957,9.087,12.351,11.625,18.399,13.977-4.032,3.36-5.169,7.425-5.151,12.876h0ZM2891.859,1001.806l54.6-.186"/>
        <path class="cls-13" d="M2866.851,969.613s4.368,25.539,24.528,31.587"/>
        <path class="cls-6" d="M2863.491,969.277c2.016-9.744,5.712-11.424,9.744-23.856.672-12.099-9.744-10.755-6.72-18.48,5.376-8.4,2.688-16.47-7.392-22.851,2.016,11.088-13.104,21.504-13.104,30.576s7.728,7.059,6.72,20.835c.672,8.064-2.016,6.048-2.688,13.776h13.44Z"/>
        <path class="cls-13" d="M2929.293,908.725c.002,4.266-3.456,7.726-7.722,7.728-4.266.002-7.726-3.456-7.728-7.722-.002-4.266,3.456-7.726,7.722-7.728,4.266-.002,7.726,3.456,7.728,7.722h0Z"/>
      </g>
      <g id="c-9" data-name="c">
        <path class="cls-23" d="M2873.814,1093.57l42.285-62.103,42.492,62.232"/>
        <path class="cls-13" d="M2924.589,1070.353c.125,4.638-3.533,8.498-8.171,8.623s-8.498-3.533-8.623-8.171c-.004-.149-.004-.298,0-.446.122-4.638,3.98-8.299,8.617-8.177,4.464.117,8.056,3.707,8.177,8.171Z"/>
        <path class="cls-13" d="M2881.764,1139.44l65.556.186s1.026-8.508-6.849-13.68c34.338-4.719,25.416-35.007,54.174-36.723,5.58.858-15.024,12.876-15.024,12.876,0,0-17.337,12.234-9.441,18.456,6.27,4.938,9.012-3.003,9.87-9.012.858-6.009,27.9-9.87,24.036-27.042-6.438-14.16-44.208,9.444-44.208,9.444l-26.946-.15c-1.68-3.024-9.105-15.15-16.776-15.21-9.099.333-15.51,15.36-15.51,15.36h-60.945s-2.088,15.636,28.815,18.642c6.957,9.087,12.351,11.625,18.399,13.977-4.032,3.36-5.169,7.425-5.151,12.876h0ZM2886.483,1126.135l54.6-.186"/>
        <path class="cls-13" d="M2861.475,1093.942s4.368,25.539,24.528,31.587"/>
        <path class="cls-11" d="M2858.115,1093.606c2.016-9.744,5.712-11.424,9.744-23.856.672-12.099-9.744-10.755-6.72-18.48,5.376-8.4,2.688-16.47-7.392-22.851,2.016,11.088-13.104,21.504-13.104,30.576s7.728,7.059,6.72,20.835c.672,8.064-2.016,6.048-2.688,13.776h13.44Z"/>
        <path class="cls-13" d="M2923.917,1033.054c.002,4.266-3.456,7.726-7.722,7.728-4.266.002-7.726-3.456-7.728-7.722s3.456-7.726,7.722-7.728c4.266-.002,7.726,3.456,7.728,7.722h0Z"/>
      </g>
      <g id="c-10" data-name="c">
        <path class="cls-23" d="M2879.862,1215.88l42.285-62.103,42.492,62.232"/>
        <path class="cls-13" d="M2930.637,1192.663c.125,4.638-3.533,8.498-8.171,8.623s-8.498-3.533-8.623-8.171c-.004-.149-.004-.298,0-.446.122-4.638,3.98-8.299,8.617-8.177,4.464.117,8.056,3.707,8.177,8.171Z"/>
        <path class="cls-13" d="M2887.812,1261.75l65.556.186s1.026-8.508-6.849-13.68c34.338-4.719,25.416-35.007,54.174-36.723,5.58.858-15.024,12.876-15.024,12.876,0,0-17.337,12.234-9.441,18.456,6.27,4.938,9.012-3.003,9.87-9.012.858-6.009,27.9-9.87,24.036-27.042-6.438-14.16-44.208,9.444-44.208,9.444l-26.946-.15c-1.68-3.024-9.105-15.15-16.776-15.21-9.099.333-15.51,15.36-15.51,15.36h-60.945s-2.088,15.636,28.815,18.642c6.957,9.087,12.351,11.625,18.399,13.977-4.032,3.36-5.169,7.425-5.151,12.876h0ZM2892.531,1248.445l54.6-.186"/>
        <path class="cls-13" d="M2867.523,1216.252s4.368,25.539,24.528,31.587"/>
        <path class="cls-5" d="M2864.163,1215.916c2.016-9.744,5.712-11.424,9.744-23.856.672-12.099-9.744-10.755-6.72-18.48,5.376-8.4,2.688-16.47-7.392-22.851,2.016,11.088-13.104,21.504-13.104,30.576s7.728,7.059,6.72,20.835c.672,8.064-2.016,6.048-2.688,13.776h13.44Z"/>
        <path class="cls-13" d="M2929.965,1155.364c.002,4.266-3.456,7.726-7.722,7.728-4.266.002-7.726-3.456-7.728-7.722-.002-4.266,3.456-7.726,7.722-7.728,4.266-.002,7.726,3.456,7.728,7.722h0Z"/>
      </g>
      <g id="c-11" data-name="c">
        <path class="cls-23" d="M2878.518,1338.19l42.285-62.103,42.492,62.232"/>
        <path class="cls-13" d="M2929.293,1314.973c.125,4.638-3.533,8.498-8.171,8.623s-8.498-3.533-8.623-8.171c-.004-.149-.004-.298,0-.446.122-4.638,3.98-8.299,8.617-8.177,4.464.117,8.056,3.707,8.177,8.171Z"/>
        <path class="cls-13" d="M2886.468,1384.06l65.556.186s1.026-8.508-6.849-13.68c34.338-4.719,25.416-35.007,54.174-36.723,5.58.858-15.024,12.876-15.024,12.876,0,0-17.337,12.234-9.441,18.456,6.27,4.938,9.012-3.003,9.87-9.012.858-6.009,27.9-9.87,24.036-27.042-6.438-14.16-44.208,9.444-44.208,9.444l-26.946-.15c-1.68-3.024-9.105-15.15-16.776-15.21-9.099.333-15.51,15.36-15.51,15.36h-60.945s-2.088,15.636,28.815,18.642c6.957,9.087,12.351,11.625,18.399,13.977-4.032,3.36-5.169,7.425-5.151,12.876h0ZM2891.187,1370.755l54.6-.186"/>
        <path class="cls-13" d="M2866.179,1338.562s4.368,25.539,24.528,31.587"/>
        <path class="cls-4" d="M2862.819,1338.226c2.016-9.744,5.712-11.424,9.744-23.856.672-12.099-9.744-10.755-6.72-18.48,5.376-8.4,2.688-16.47-7.392-22.851,2.016,11.088-13.104,21.504-13.104,30.576s7.728,7.059,6.72,20.835c.672,8.064-2.016,6.048-2.688,13.776h13.44Z"/>
        <path class="cls-13" d="M2928.621,1277.674c.002,4.266-3.456,7.726-7.722,7.728-4.266.002-7.726-3.456-7.728-7.722s3.456-7.726,7.722-7.728c4.266-.002,7.726,3.456,7.728,7.722h0Z"/>
      </g>
      <g id="c-12" data-name="c">
        <path class="cls-23" d="M2879.19,1461.172l42.285-62.103,42.492,62.232"/>
        <path class="cls-13" d="M2929.965,1437.955c.125,4.638-3.533,8.498-8.171,8.623s-8.498-3.533-8.623-8.171c-.004-.149-.004-.298,0-.446.122-4.638,3.98-8.299,8.617-8.177,4.464.117,8.056,3.707,8.177,8.171Z"/>
        <path class="cls-13" d="M2887.14,1507.042l65.556.186s1.026-8.508-6.849-13.68c34.338-4.719,25.416-35.007,54.174-36.723,5.58.858-15.024,12.876-15.024,12.876,0,0-17.337,12.234-9.441,18.456,6.27,4.938,9.012-3.003,9.87-9.012.858-6.009,27.9-9.87,24.036-27.042-6.438-14.16-44.208,9.444-44.208,9.444l-26.946-.15c-1.68-3.024-9.105-15.15-16.776-15.21-9.099.333-15.51,15.36-15.51,15.36h-60.945s-2.088,15.636,28.815,18.642c6.957,9.087,12.351,11.625,18.399,13.977-4.032,3.36-5.169,7.425-5.151,12.876h0ZM2891.859,1493.737l54.6-.186"/>
        <path class="cls-13" d="M2866.851,1461.544s4.368,25.539,24.528,31.587"/>
        <path class="cls-9" d="M2863.491,1461.208c2.016-9.744,5.712-11.424,9.744-23.856.672-12.099-9.744-10.755-6.72-18.48,5.376-8.4,2.688-16.47-7.392-22.851,2.016,11.088-13.104,21.504-13.104,30.576s7.728,7.059,6.72,20.835c.672,8.064-2.016,6.048-2.688,13.776h13.44Z"/>
        <path class="cls-13" d="M2929.293,1400.656c.002,4.266-3.456,7.726-7.722,7.728-4.266.002-7.726-3.456-7.728-7.722-.002-4.266,3.456-7.726,7.722-7.728,4.266-.002,7.726,3.456,7.728,7.722h0Z"/>
      </g>
      <g>
        <path class="cls-13" d="M2747.529,1519.045s17.106,39.441,36.591,15.207c19.482-24.237,12.354-34.689,12.354-34.689l-43.719-23.76-12.828,27.084,7.602,16.158Z"/>
        <path class="cls-20" d="M2785.071,1513.816s2.85.477,5.226-3.801-5.226-6.18-8.55-10.929l-3.804,7.602,7.128,7.128ZM2686.227,1503.361l-38.49,20.91s-19.011,3.801-20.436,0c-1.425-3.804.477-7.128,10.455-7.605,9.981-.474,37.065-25.185,37.065-25.185l11.406,11.88h0ZM2686.704,819.547s.951,9.03,1.425,13.782c.477,4.752-7.602,14.73-8.079,14.256s-4.275.474-3.801,3.324c.477,2.85,6.18,3.804,6.18,3.804,0,0-2.379,9.978,0,10.452,2.373.477-6.18,12.831,0,16.158,6.177,3.327,16.629,7.602,21.381,6.654,4.752-.951,0,18.531,0,18.531l-13.305,28.512,73.182-7.602-15.207-24.237s-7.128-4.752-5.226-18.531c1.899-13.782-.951-76.032-.951-76.032l-52.272-7.128-3.327,18.057h0ZM2673.396,927.892s-23.76,10.929-22.809,40.392c-6.18,28.512-9.504,57.024-9.504,57.024,0,0-28.038,31.839-36.591,43.245-8.553,11.403-21.384,34.689-26.136,40.866-4.752,6.18-23.286,26.61-22.809,34.215.474,7.602-4.278,41.34,14.256,45.144,4.752,1.899,19.959-38.97,19.959-38.97,0,0,.948-17.58-4.278-20.907-5.226-3.324,11.406-14.73,11.406-14.73,0,0,31.836-23.286,38.964-28.989,7.128-5.7,26.61-27.561,26.61-27.561l10.932-129.729h0Z"/>
        <path class="cls-8" d="M2700.483,905.56s6.18,16.632,19.959,13.782c13.782-2.85,29.94-15.684,29.94-15.684,0,0,12.828-.474,14.73,1.428,1.899,1.899,34.689,33.738,33.738,43.716-.951,9.981-15.207,7.128-20.433,13.782-5.229,6.654-13.782,23.286-11.406,35.64,2.376,12.357,9.504,28.512,8.553,34.689-.948,6.18-6.177,8.079-6.177,11.406s4.278,9.03,4.278,15.207-5.703,15.207-4.752,21.384c.951,6.18,1.425,24.234,1.425,24.234l-1.425,83.637s4.752,2.85,5.226,7.602c.477,4.752,32.313,143.037,32.313,143.037,0,0-1.425,4.275-4.752,3.801-3.324-.477,12.831,21.384,13.308,27.561.474,6.18,16.632,54.648,16.155,61.302-.474,6.651-2.85,21.384-4.275,21.858-1.428.474,10.452,30.414,8.55,35.166-1.899,4.752-21.381,4.275-21.381,4.275l-5.229-.948s.477,6.177-3.324,6.651-31.839-1.425-31.839-1.425c0,0-8.079,12.354-12.831,11.88-4.752-.474-10.929-9.03-12.357-7.602-1.425,1.425,4.278,9.501,2.85,11.88-1.422,2.376-25.659,7.602-30.411-3.804-4.752-11.403,2.85-8.55,1.428-10.929-1.428-2.376-12.357-8.553-15.684-6.651-3.327,1.899,8.556,4.752,8.079,9.504-.474,4.752-10.455,11.88-14.256,11.88s-12.831-17.583-26.136-15.684c-13.305,1.902-21.858,5.229-21.858,5.229,0,0-15.684,6.651-22.335,5.226-6.654-1.425-9.504-6.654-9.504-9.504s4.752-15.207,4.275-19.008-4.275-7.602-4.275-13.305,10.929-25.185,10.929-25.185l-.474-87.438s-9.981,0-10.455-6.18c-.474-6.18,15.207-138.282,17.58-146.835,2.379-8.553,8.556-38.967,8.556-38.967,0,0-7.128,3.327-7.605,0-.474-3.327,21.384-78.882,21.384-78.882,0,0,3.804-37.542,3.804-47.52s-1.902-23.76-1.902-23.76c0,0-19.509-8.259-19.959-20.91-1.785-20.127,18.534-31.362,20.91-38.016l9.504-26.61s10.455-18.06,27.561-20.91h0Z"/>
        <path class="cls-13" d="M2693.355,1509.064s-46.095,24.237-52.746,26.136c-6.654,1.902-10.932-8.079-4.278-9.978,6.654-1.902,17.106-2.85,17.106-2.85,0,0-15.681-12.36-15.204-12.834.474-.474,21.384-8.076,21.858-8.076s6.654,12.354,10.929,11.403c4.278-.951,16.632-10.452,16.632-10.452,0,0,6.654,7.602,5.703,6.651h0Z"/>
        <path class="cls-20" d="M2758.296,1522.369c4.359,5.622,6.06,15.369,16.041,9.666,9.981-5.7-5.112-16.284-5.112-16.284l-10.929,6.618h0Z"/>
        <path class="cls-20" d="M2776.515,1521.418s4.752,3.801,9.03-.474-8.556-13.308-8.556-13.308l-6.177,7.128,5.703,6.654ZM2796.951,950.98c.474,0,15.681,47.046,17.58,58.926,1.902,11.88,8.082,59.4,5.706,66.051-2.376,6.654-26.61,38.49-29.463,46.569-2.85,8.079-19.959,38.97-19.959,38.97,0,0-4.278,30.411-6.18,31.836-1.899,1.428,4.908,8.892,4.278,11.406-.942,2.829-13.779,16.158-19.482,14.73-5.7-1.425-14.73-8.079-15.207-14.256-.477-6.177.474-26.61,4.752-31.836,4.278-5.229,26.61-57.975,28.038-61.302,1.425-3.327,20.43-44.67,20.91-51.798.474-7.128-5.916-23.61-12.636-29.658-14.955-44.019-9.078-70.566,21.663-79.638h0Z"/>
        <path class="cls-15" d="M2685.276,816.697s10.455,1.425,16.158-1.902c5.7-3.324,12.354-4.752,17.106,1.902,4.752,6.654,8.079,6.18,8.079,6.18,0,0-7.128,17.58,0,19.482,7.128,1.899,10.455,1.899,10.929,4.275.477,2.376-6.18,7.605-4.278,9.981,1.902,2.376,5.229,5.226,5.703,7.128.477,1.899-4.275,9.978-2.85,11.88,1.425,1.899,5.7,9.504,8.553,9.504s.951,11.88,9.504,9.03,8.079-10.458,8.079-10.458c0,0,9.03-1.425,11.406-9.504,2.373-8.076,8.076-9.978,8.076-9.978,0,0,11.406-6.18-3.801-15.681,0-66.528-43.719-59.4-43.719-59.4,0,0-5.226-11.88-13.779-10.455s-9.03,11.406-15.21,10.455c-6.174-.951-7.599-5.229-8.076-4.752-.474.474-5.7,9.978-5.7,12.354s-16.635-3.327-15.21,9.03c1.428,12.354,9.504,11.88,9.03,10.929h0Z"/>
        <g>
          <path class="cls-16" d="M2762.259,924.091s-42.294,27.087-41.34,36.591M2771.763,928.843s-9.504,10.455-9.978,10.455M2784.594,940.249s-20.91,17.106-17.58,28.038M2685.753,921.715s-6.18,12.831-4.752,17.106c1.425,4.278,11.88,20.436,13.305,30.414,1.425,9.978,0,17.109,0,17.109M2674.824,945.475s1.902,15.207,4.752,18.06c2.85,2.85,10.455,15.678,11.406,20.907M2671.023,1008.676s12.354,6.18,23.76-17.58M2713.314,974.464c-.474,0-9.03,23.286,6.18,31.839,15.204,8.553,26.61,7.602,33.261,5.226,6.654-2.376,13.782-6.651,13.782-6.651M2706.663,1002.976s.951,31.365,47.046,62.25M2708.562,1032.436s-.474,27.561,17.58,39.918M2699.058,1000.123s-13.782,40.866-24.711,45.144M2694.783,1030.06s-.474,29.46-4.278,39.918M2686.704,1077.106s9.504,11.88,19.959,10.929c10.455-.948,14.73-13.305,21.858-11.403,7.128,1.899,13.782,7.602,30.414,6.177M2735.175,1095.163s0,24.234,4.278,26.61,2.376,24.711,2.376,24.711M2677.2,1083.76s-.474,22.809-3.327,30.888c-2.85,8.079-8.553,21.861-7.602,33.741M2648.211,1161.691c2.376-.951,10.455-8.079,10.455-8.079M2662.944,1158.841s-20.433,87.438-14.73,139.71M2667.696,1163.119s-10.455,65.58-5.7,77.934"/>
          <path class="cls-16" d="M2662.467,1161.217c.474,0,39.918,2.85,39.918,2.85M2708.088,1158.841s10.929,5.7,26.136,4.752M2703.336,1190.68s-1.902,112.149-4.752,136.86M2761.785,1216.339s12.354,98.367,19.482,107.394M2738.025,1228.696s7.602,86.961,11.88,94.566M2630.154,1353.673s14.73-4.752,28.035-19.008c15.21,20.433,38.493.951,38.493.951,0,0,36.114,24.711,52.272-2.85,24.711,16.155,37.065-2.379,37.065-2.379,0,0,9.03,13.782,15.684,12.357M2762.259,1352.248s18.534,86.961,46.095,111.672"/>
          <path class="cls-16" d="M2666.745,1343.218s2.376,72.705,6.654,124.026M2663.418,1425.43s-2.376,47.52-5.229,50.847M2635.38,1481.026s5.226,20.433,31.362,1.425c26.136-19.008,26.61,7.128,27.564,9.981.948,2.85,5.226,23.283,15.204,6.177M2730.423,1470.574s-4.278,42.291,33.264,11.403c37.542-30.885,43.719-.474,44.67,9.03M2730.897,800.539s-3.327,20.91,19.008,19.008c-2.85,11.406,5.7,15.207,5.7,15.207M2772.24,847.585c.477,0,9.978,6.18-.474,13.782M2739.927,864.217s4.752,5.7,9.978,4.278c5.229-1.425,13.782,5.226,13.782,5.226,0,0,7.128,2.376,8.079.951M2710.938,882.274s16.158,6.18,26.61-19.482M2681.001,855.187l9.504.474M2575.569,1154.872l.744,20.826M2556.039,1153.327s13.35,22.329,12.237,34.23"/>
          <path class="cls-7" d="M2682.426,864.691h8.553l-7.602,3.327M2734.995,1199.986s9.984-1.05,9.669,15.618c6.375-20.706,19.338-21.198,19.338-21.198"/>
          <path class="cls-18" d="M2694.306,838.081c1.425,0,6.651-1.902,7.602-.474.951,1.425-5.7,2.376-7.602.474Z"/>
        </g>
      </g>
      <g>
        <path class="cls-12" d="M2700.897,1675.837c200.694-5.574,330.306-150.519,328.914-151.914-1.395-1.392,26.481-40.416,48.78-34.842,22.299,5.574,54.354,71.079,93.378,85.014,19.512,30.66-5.577,58.536-13.938,64.11-8.361,5.577-45.99,20.91-51.567-1.392-5.574-22.299-16.725-18.12-16.725-18.12,0,0-178.392,174.213-384.66,167.247-213.234,1.392-388.842-167.244-388.842-167.244l-15.33,16.722s-16.725,18.12-25.086,16.725c-8.361-1.392-44.598-25.086-47.385-48.78-2.79-23.691,22.299-39.021,22.299-39.021,0,0,61.32-47.388,68.292-72.474,13.935-13.938,40.416,9.756,40.416,9.756,0,0,161.67,185.361,341.457,174.21l-.003.003Z"/>
        <path class="cls-21" d="M2246.565,1568.038s16.584-4.422,22.665,2.49c6.081,6.906,47.814,47.814,47.814,47.814"/>
        <path class="cls-21" d="M2284.431,1587.385l-16.584,12.438s41.736,8.289,32.34,35.655M3157.02,1566.655s-8.292-4.422-21.282,5.25c-12.99,9.675-45.882,46.437-45.882,46.437"/>
        <path class="cls-21" d="M3119.7,1586.281l17.967,13.821s-37.59,2.487-29.298,38.142"/>
      </g>
      <path class="cls-24" d="M2458.992,1612.288c-1.086,3.156-3.963-.087-6.351.549-6.282.237-11.502,4.335-16.884,7.131l-55.221,32.193c-1.86-.609-1.419-2.112-.966-3.618,4.908-22.989,10.005-45.939,14.775-68.958.792-4.026,2.07-9.03-1.818-11.958-1.653-1.128.903-3.42,1.965-1.338l28.23,20.13c-.906,2.655-2.511.795-4.116-.282-3.909-3.759-8.619-.285-8.505,4.464-3.357,15.156-6.63,30.33-9.954,45.495,12.495-7.428,25.134-14.622,37.518-22.236,4.422-1.968,7.68-7.893,3.087-11.565-1.746-1.029-4.632-3.84-1.755-4.266l19.995,14.259h0ZM2478.825,1708.246c-.504,1.716-1.398,2.094-2.766.858l-33.222-18.168c.501-1.716,1.398-2.094,2.766-.858,3,2.04,7.902,2.814,10.089-.765,4.398-7.05,8.103-14.517,12.18-21.759,5.535-10.26,11.307-20.4,16.677-30.744,2.568-3.666-.3-8.184-3.894-9.753-1.215-.651-3.003-1.134-1.47-2.592.741-.912,2.316,1.035,3.39,1.269l31.851,17.418c-.504,1.716-1.401,2.094-2.769.858-3-2.04-7.926-2.82-10.14.735-4.395,7.053-8.1,14.52-12.174,21.762-5.541,10.26-11.31,20.4-16.68,30.744-2.565,3.69.291,8.241,3.942,9.78l2.22,1.215h0ZM2606.652,1678.264l-9.021,25.329c-3.696-.39-1.239-5.124-2.388-7.62-1.32-11.4-9.729-22.041-21.18-24.48-8.76-2.385-18,2.124-23.145,9.246-7.77,10.611-12.495,23.559-13.161,36.705-.444,7.47,2.985,15.138,9.51,19.071,5.169,3.408,11.451,4.779,17.589,4.608,2.166-6.39,4.758-12.645,6.561-19.143.741-4.23-3.63-6.78-7.125-7.749-.543-1.23.81-2.736,2.235-1.416l33.111,11.796c-.396,4.074-5.001-.327-7.551,1.299-4.08,1.566-4.428,6.471-5.973,10.02l-4.035,11.325c-14.838,1.05-30.132-2.088-43.044-9.558-12.555-7.911-21.045-23.184-18.576-38.166,1.914-12.822,9.903-24.831,21.726-30.495,10.86-5.772,24.111-5.748,35.388-1.176,6.165,2.079,11.49,5.892,16.26,10.23,2.892,3.9,8.487,3.909,10.86-.525l1.959.699M2660.508,1764.703c-.066,1.347-.216,2.58-1.83,1.83l-37.914-5.745c.069-1.347.219-2.58,1.83-1.83,3.288.672,7.692.618,9.279-2.928,1.605-5.064,1.926-10.428,2.85-15.645,2.169-14.568,4.485-29.118,6.558-43.701.804-3.144-.27-6.699-3.525-7.92-1.842-.87-3.897-1.002-5.88-1.332.069-1.35.219-2.58,1.83-1.83l37.914,5.745c-.066,1.347-.216,2.58-1.83,1.827-3.303-.681-7.689-.591-9.333,2.922-1.605,5.064-1.926,10.428-2.85,15.645-2.169,14.568-4.485,29.118-6.558,43.701-.798,3.135.282,6.762,3.555,7.944,1.86.846,3.915.99,5.904,1.32v-.003ZM2762.862,1739.842l-1.5,26.886-67.638,3.45c-.414-1.644.03-2.52,1.818-2.175,3.399.087,7.779-1.356,8.211-5.256.3-6.681-.45-13.365-.672-20.043-.729-13.326-1.257-26.661-2.13-39.975.375-3.966-3.198-6.903-6.96-6.783-1.194-.606-4.425,1.245-4.101-.93-.546-1.767,1.905-.828,2.94-1.164l37.623-1.92c.414,1.647-.027,2.52-1.818,2.175-3.474-.018-7.995.828-8.955,4.752-.549,5.778.258,11.592.411,17.385.762,13.875,1.302,27.768,2.22,41.631-.282,3.63,2.631,6.84,6.39,6.141,5.49-.273,11.1-.039,16.461-1.419,7.521-2.001,11.622-9.45,13.68-16.41,1.35-1.881.234-6.573,3.213-6.303l.807-.042M2815.592,1674.757c-1.794.03-1.002,2.319-1.458,3.519-2.994,22.428-5.832,44.88-8.928,67.296-.753,4.965-1.992,10.764-6.891,13.275-1.809.642-.216,3.486,1.44,1.905l22.587-6.777c-.285-3.804-4.62-.348-7.05-1.017-5.181-.006-5.952-6.3-5.232-10.23l.939-7.971,25.875-7.782c3.3,4.158,6.942,8.07,9.93,12.459,2.241,4.23-3.21,6.165-6.375,6.981-1.479.156-.189,3.255,1.161,1.815l34.002-10.191c-.102-3.849-5.031-.24-7.107-2.811-6.363-4.782-10.932-11.436-16.2-17.325l-36.693-43.146h0ZM2815.404,1701.664l18.375,21.936-22.029,6.564,3.654-28.5ZM2931.3,1624.237l9.777,18.18c-3.042,2.616-4.623-3.447-7.38-4.371-4.521-3.804-11.337-4.524-16.371-1.296-2.061,1.071-4.095,2.19-6.144,3.285,9.831,18.204,19.527,36.48,29.445,54.636,1.533,4.656,7.254,5.529,10.944,2.904,1.428-1.035,2.718-1.62,3.18.564-4.992,2.895-10.446,5.646-15.615,8.484l-19.527,10.5c-1.53-1.59-.507-2.409,1.221-3.018,4.626-1.719,6.405-7.335,3.306-11.289-9.618-18.075-19.38-36.078-29.055-54.126-5.388,2.985-12.27,5.676-13.629,12.396-1.53,4.23.72,9.405.72,13.002-1.659,1.722-2.094-.627-2.862-1.869l-8.355-15.54,60.345-32.439v-.003ZM2977.052,1597.111l18.699,24.789c4.335-2.757,7.956-7.68,6.654-13.059.501-4.2-5.508-8.964-3.444-11.91,1.359-.843,2.16,2.301,3.285,3.132l21.354,28.308c-2.784,3.171-4.8-3.294-7.749-3.993-4.161-2.958-9.999-4.431-14.46-1.191-3.33,1.062-3.174,2.931-.909,4.986,5.01,6.468,9.66,13.23,15.009,19.425,3.273,3.177,7.344-.144,10.116-2.352,7.164-4.878,13.455-12.495,13.086-21.63.468-3.99-2.037-8.442-2.01-11.805,1.605-2.139,2.055,1.179,2.976,2.265l10.098,18.24-52.632,39.699c-2.283-1.62-.036-2.571,1.404-3.69,4.914-3.036,3.351-9.234-.264-12.639-11.244-14.808-22.29-29.772-33.678-44.469-2.916-3.954-8.295-1.872-11.235.885-1.221,1.731-3.132-1.737-.819-1.992l49.629-37.437,13.584,18.009c-3.147,3.192-5.934-3.921-9.525-4.293-6.519-3.393-14.271-.66-19.659,3.63-3.222,2.292-6.342,4.725-9.51,7.092"/>
    </g>
    <g id="mini-gb">
      <path class="cls-26" d="M1600,.1v1200H0V400.1C0,180.1,180,.1,400,.1h1200Z"/>
      <path id="Path" class="cls-30" d="M1534.9.1h65.1v255.8l-545.5,354.3,545.5,354.2v235.7h-96l-679-440.9-679,440.9H0v-203.2l595.5-386.7L31.6,243.9C65.5,164.1,124.5,97.6,198.7,54.3l626.3,406.7L1534.9.1Z"/>
      <path id="Path-2" class="cls-29" d="M0,1189.3v-119.2l708.2-460L60,189.3c17.8-28.7,39.2-54.9,63.4-78.2l676.6,439.4L1600,31.1v119.3l-708.2,459.7,708.2,460v119.2l-800-519.5L0,1189.3Z"/>
      <polygon id="Shape" class="cls-27" points="1000 400.1 1600 400.1 1600 800.1 1000 800.1 1000 1200.1 600 1200.1 600 800.1 0 800.1 0 400.1 600 400.1 600 .1 1000 .1 1000 400.1"/>
      <polygon id="Shape-2" class="cls-28" points="900 500.1 900 .1 700 .1 700 500.1 0 500.1 0 700.1 700 700.1 700 1200.1 900 1200.1 900 700.1 1600 700.1 1600 500.1 900 500.1"/>
    </g>
  </g>
</svg>