<?xml version="1.0" encoding="UTF-8"?>
<svg xmlns="http://www.w3.org/2000/svg" viewBox="0 0 3600.818 2401.738">
  <defs>
    <style>
      .cls-1, .cls-2, .cls-3, .cls-4, .cls-5, .cls-6, .cls-7, .cls-8, .cls-9 {
        stroke: #010002;
        stroke-width: 8.471px;
      }

      .cls-1, .cls-2, .cls-10 {
        fill: none;
      }

      .cls-1, .cls-3, .cls-6, .cls-7, .cls-9 {
        stroke-miterlimit: 10;
      }

      .cls-3 {
        fill: #0081c6;
      }

      .cls-10, .cls-11 {
        stroke-width: 0px;
      }

      .cls-4 {
        fill: #fff;
      }

      .cls-5, .cls-6 {
        fill: #f4c53d;
      }

      .cls-7 {
        fill: #162667;
      }

      .cls-8 {
        fill: #a60032;
      }

      .cls-11 {
        fill: #eee;
        fill-rule: evenodd;
      }

      .cls-9 {
        fill: #369443;
      }
    </style>
  </defs>
  <g id="background">
    <path id="bg" class="cls-11" d="M400,.1h2800c220,0,400,180,400,400v1600c0,220-180,400-400,400H400C180,2400.1,0,2220.1,0,2000.1V400.1C0,180.1,180,.1,400,.1Z"/>
  </g>
  <g id="country">
    <g id="vi">
      <path class="cls-9" d="M1123.048,1625.033s-2.917-19.736,34.565-34.21c37.482-14.473,40.396-68.42,32.9-104.386,0,0-19.573,34.21-43.31,45.614,0,0-38.73,20.177-40.503,58.715,0,0-.308,14.089-3.224,25.053-1.595,6.003-18.74-48.246,13.742-88.594,33.521-41.642,42.895-75.436,16.241-141.224,0,0-2.499,39.911-28.735,62.719-26.236,22.806-29.574,24.562-29.153,78.946,0,0,.418,18.858-9.577,25,0,0-20.406-29.825-25.821-49.561-5.413-19.736-7.912-28.069,15.408-50.877,0,0,74.714-48.282,20.824-153.944,0,0-1.666,36.404-27.487,57.894-25.821,21.49-23.737,35.963-24.988,73.245-1.251,37.279-3.75,34.648-6.663,39.911,0,0-47.475-87.278-10.828-133.77,36.647-46.492,57.055-56.14,16.659-142.54,0,0,1.793,44.298-30.545,66.229-32.338,21.93-24.841,73.245-24.841,73.245,0,0,2.081,19.299-4.58,33.332,0,0-45.747-89.226-2.081-137.28,37.064-40.789,39.563-69.298,19.573-127.192,0,0-2.499,26.756-22.905,41.226-20.406,14.473-36.647,28.947-32.9,84.647,0,0,1.666,39.035-3.332,49.999,0,0-19.158-35.526-24.57-58.772-5.413-23.246-7.497-36.841,6.663-60.088s70.382-89.912,3.332-185.96c0,0-2.081,31.141-19.158,59.209-17.074,28.069-9.162,61.403-5.413,86.84s-8.745,49.999-8.745,49.999c0,0-29.153-53.509-22.905-114.909,6.246-61.403-18.74-111.84-75.38-148.244,0,0-41.229,95.613,14.993,144.296,0,0,47.893,47.368,59.969,104.824,0,0-36.232-3.51-69.131-67.542-32.9-64.035-101.198-53.946-105.781-54.384,0,0,11.246,99.12,116.191,127.192,0,0,67.05,11.404,79.544,60.525,0,0,11.243,33.772,15.826,51.752,0,0-21.239-8.332-40.814-37.279-19.573-28.947-17.074-32.456-83.291-39.035,0,0-26.654-3.072-40.814-21.93,0,0,27.902,104.824,99.532,103.945,0,0,65.384-7.016,102.031,78.946,0,0-7.078-4.385-16.659-10.967-9.577-6.579-33.733-18.858-81.626-13.158s-61.22-2.194-73.296-6.141c0,0,48.308,88.594,116.609,62.279,68.298-26.315,101.286,69.642,102.031,71.489,0,0-9.162-7.019-21.239-18.861-12.076-11.842-37.149-26.445-84.542-11.404,0,0-34.148,13.158-68.716,2.632,0,0,33.318,64.472,111.193,53.509,77.876-10.967,97.451,57.456,97.451,57.456,0,0-10.41-6.141-17.492-11.842-7.078-5.701-33.318-20.615-89.537-3.947-56.222,16.667-76.628-2.632-76.628-2.632,0,0,31.234,57.016,91.203,63.594,0,0,33.318-.438,47.475-5.701,14.16-5.263,51.639-13.595,77.461,23.684,0,0-7.078,1.316-17.907-3.51,0,0-39.979-14.473-70.382,10.964,0,0-27.069,27.631-65.384,22.368,0,0,49.559,48.246,128.267,7.457,0,0,26.654-19.299,46.227-4.385,19.578,14.922,64.972-14.465,64.972-14.465h.001Z"/>
      <path class="cls-6" d="M1561.161,436.457s-9.143-81.622,56.084-89.472c68.022-8.188,101.616,6.141,101.616,6.141l30.539,59.941-10.552,40.351-42.201,19.299s7.219-61.988-49.604-63.278c-14.398-.327-22.859,5.382-45.631,1.767-22.902-3.637-35.15,21.529-40.252,25.251h0Z"/>
      <path class="cls-6" d="M2020.094,638.5c-9.718,12.573-48.587,16.958-48.587,16.958,0,0,39.978,30.7,57.194,74.561,17.215,43.858-463.378.291-463.378.291,0,0,20.824-14.911,34.983-42.983,0,0-21.239,7.895-42.477-13.158,0,0,15.826,5.263,36.647-26.315,0,0,30.819-39.473,52.472-49.999,0,0-9.995,6.141-34.148-7.016,0,0,41.647-5.263,56.637-76.314,0,0,2.499-15.789,18.325-38.595,15.826-22.808,12.494,4.385,41.647-30.703,0,0,13.327-24.853,1.666-40.057s-24.155-9.648-48.587-24.268c-24.432-14.62-35.26-22.808-26.931-45.321,8.329-22.515,29.986-19.005,33.038-19.005s4.721-19.59,31.375-33.041c26.654-13.451,97.451-7.604,108-1.753,10.552,5.848,53.305,18.421,78.294,81.577,24.989,63.157-6.664,86.84,61.358,182.16,0,0-27.207,5.848-44.699.585,0,0,35.258,62.572,97.172,92.397h0Z"/>
      <path class="cls-1" d="M1722.745,371.984c-55.389-2.632-34.148-55.409-34.148-55.409"/>
      <path class="cls-6" d="M1818.946,379.221s-9.787-4.605-18.065-15.569c-11.619-15.385-37.53-22.806-51.481-8.332,0,0-14.16,15.789-26.654,16.667,0,0,14.16,4.385,23.946,13.378,9.787,8.99,19.991,15.569,34.565,13.595,14.575-1.974,16.868-9.648,23.737-14.253,6.873-4.611,13.951-5.486,13.951-5.486h0Z"/>
      <path class="cls-5" d="M2179.177,1168.022s51.642,42.104,94.952,0c0,0,17.492,21.052,52.472,14.911,34.983-6.141,40.814-24.562,44.146-35.088,0,0,30.263,17.656,55.804,3.71,25.545-13.945,25.545-34.995,25.545-34.995,0,0,44.422,8.756,67.188-21.352,22.766-30.107,8.886-59.932-3.332-63.442,0,0,48.028,12.582,61.082-28.653,11.105-35.088-13.883-53.215-13.883-53.215,0,0,101.198-.486,142.707-32.163,0,0,34.428-21.637,13.883-44.442,0,0,91.064-14.62,113.83-50.877,0,0,9.995-9.942,6.664-27.484,0,0-.556-9.942-10.552-10.526,0,0,103.849-16.041,133.821-50.293,0,0,14.437-15.789,7.219-36.841,0,0-1.528-5.557-4.026-9.284,0,0,94.534-19.957,141.176-62.061,0,0,26.925-23.989,13.045-56.151,0,0,157.979-43.262,121.332-112.851,0,0,73.852-23.977,50.53-90.641,0,0,61.082-30.994,34.428-80.115-25.508-47.012-103.835,8.186-196.585,33.849,0,0-250.967,79.016-374.558,100.043l-351.168,522.824-204.898,78.946-20.824,146.191h0Z"/>
      <path class="cls-5" d="M2176.681,782.94s32.914-24.709,91.621,4.385c0,0,19.765,13.609,35.314-1.302,12.991-12.46,14.208-35.432-3.662-48.697-43.728-32.456-59.972-129.823,6.664-170.171,0,0,96.618-57.309,450.906-147.47,0,0,29.684-8.231,45.509-4.283,17.427,4.345,29.43,19.299,31.892,32.092,0,0,15.854,45.052-37.446,70.831,0,0-24.062,11.012-48.864,18.13,0,0,27.241-5.89,38.869,21.052,11.105,25.731-4.998,52.046-54.971,69.004,0,0-13.517,5.26-32.761,9.942,0,0,42.757,12.28,22.21,46.783,0,0-18.325,36.257-83.014,42.689,0,0,48.307,5.263,14.16,51.168,0,0-14.993,25.146-62.191,34.503,0,0,35.817,1.169,17.768,33.332-18.045,32.163-60.514,50.293-102.302,53.215,0,0-22.634,1.169-38.46-2.341,0,0,39.702,19.883,16.379,53.215,0,0-17.212,23.684-60.245,22.515,0,0,11.17,37.223-20.406,51.315-24.57,10.964-44.976-6.579-44.976-6.579,0,0,8.329,39.911-27.487,53.946,0,0-17.907,9.21-44.561,0,0,0-20.406,45.614-92.869,13.595-72.469-32.013-17.077-300.87-17.077-300.87Z"/>
      <path class="cls-2" d="M3292.783,366.281s-113.83,65.907-468.336,131.814"/>
      <path class="cls-5" d="M1259.845,1531.76s-42.201,72.514-93.287,73.683c0,0-87.874-10.695-112.721,12.28-17.325,16.024-34.984,29.24-42.201,70.176-7.217,40.936,13.881,49.708,18.878,51.462,0,0,3.888,29.24,32.761,21.637,0,0,1.666,30.409,52.752,15.789,51.086-14.62,72.186-9.942,82.182-60.819,9.995-50.877,19.223-50.044,28.32-56.14,12.217-8.188,35.167-15.925,52.196-25.731,15.298-8.809,73.852-38.598,93.84-40.936,19.99-2.338,15.546-69.589,15.546-69.589h-51.639l-24.988-36.841-51.639,45.03h0Z"/>
      <path class="cls-2" d="M3242.253,456.924s-308.089,100.501-451.567,112.851M3120.92,569.775s-180.737,56.736-392.389,92.538M2966.697,687.988s-204.203,49.05-301.692,57.191"/>
      <path class="cls-1" d="M2829.682,784.403s-172.724,36.023-216.486,40.354"/>
      <path class="cls-3" d="M2635.262,1047.101l8.648,274.069-48.392-28.074-80.566,347.799-33.241-23.881,78.426-333.207-54.686,1.005,129.811-237.71Z"/>
      <path class="cls-1" d="M2719.739,873.291s-126.048,19.152-176.213,18.127M2563.152,949.899s-50.965-2.394-75.456-6.46M2515.951,1031.77s-43.313-11.695-68.855-28.069M2452.097,1116.563s-33.318-12.864-49.42-47.952M2370.749,1147.848s-25.821-23.099-27.487-48.83"/>
      <path class="cls-3" d="M2948.276,1168.974l-114.536,246.263-30.214-48.714-241.816,285.733-26.182-29.311,240.898-282.116-48.731-26.151,220.582-145.703Z"/>
      <path class="cls-1" d="M2274.13,1168.022s9.668-8.338,3.055-44.589"/>
      <path class="cls-3" d="M2843.802,988.2l-59,267.089-39.846-40.309-216.426,416.157-33.352-19.468,217.883-415.307-53.068-13.934,183.809-194.228Z"/>
      <path class="cls-1" d="M2286.624,1070.218s4.998-10.379,3.332-26.753"/>
      <path class="cls-5" d="M1422.486,1168.025s-51.639,42.104-94.953,0c0,0-17.492,21.052-52.472,14.911-34.981-6.141-40.814-24.562-44.146-35.088,0,0-30.263,17.656-55.804,3.71-25.544-13.945-25.544-34.998-25.544-34.998,0,0-44.423,8.756-67.189-21.352-22.766-30.107-8.886-59.932,3.332-63.442,0,0-48.028,12.582-61.082-28.653-11.105-35.088,13.883-53.215,13.883-53.215,0,0-101.198-.486-142.707-32.163,0,0-34.427-21.637-13.881-44.442,0,0-91.064-14.62-113.83-50.877,0,0-9.995-9.942-6.663-27.484,0,0,.556-9.942,10.549-10.526,0,0-103.849-16.041-133.821-50.293,0,0-14.437-15.789-7.22-36.841,0,0,1.528-5.557,4.026-9.284,0,0-94.534-19.957-141.179-62.061,0,0-26.925-23.989-13.045-56.151,0,0-157.982-43.262-121.333-112.851,0,0-73.852-23.977-50.53-90.641,0,0-61.082-30.994-34.427-80.115,25.508-47.012,103.838,8.186,196.585,33.849,0,0,250.967,79.016,374.558,100.043l351.168,522.824,204.898,78.946,20.826,146.194h0Z"/>
      <path class="cls-1" d="M2468.756,551.075s-58.303,23.393-77.737,55.556c-19.435,32.163-6.636,63.422,0,81.357,3.334,9.013,44.422,88.23-3.888,145.539"/>
      <path class="cls-5" d="M1424.984,782.944s-32.914-24.709-91.621,4.385c0,0-19.765,13.609-35.311-1.302-12.991-12.46-14.211-35.432,3.662-48.697,43.728-32.456,59.969-129.823-6.663-170.171,0,0-96.618-57.309-450.906-147.47,0,0-29.684-8.231-45.51-4.283-17.427,4.345-29.43,19.299-31.892,32.092,0,0-15.854,45.052,37.446,70.831,0,0,24.062,11.012,48.864,18.13,0,0-27.241-5.89-38.869,21.052-11.105,25.731,4.998,52.046,54.971,69.004,0,0,13.516,5.26,32.761,9.942,0,0-42.757,12.28-22.21,46.783,0,0,18.325,36.257,83.015,42.689,0,0-48.308,5.263-14.16,51.168,0,0,14.993,25.146,62.191,34.503,0,0-35.817,1.169-17.768,33.332,18.045,32.163,60.514,50.293,102.305,53.215,0,0,22.633,1.169,38.459-2.338,0,0-39.702,19.883-16.379,53.215,0,0,17.212,23.684,60.249,22.515,0,0-11.17,37.225,20.406,51.315,24.57,10.964,44.976-6.579,44.976-6.579,0,0-8.329,39.911,27.487,53.946,0,0,17.907,9.21,44.561,0,0,0,20.406,45.614,92.869,13.595,72.457-32.019,17.068-300.872,17.068-300.872Z"/>
      <path class="cls-1" d="M2467.923,895.805s-.276-.294-20.824-6.726M2590.916,811.597s-34.752,6.997-68.855,7.31M2638.947,725.925s-40.814,4.094-79.126,3.51M2699.749,636.453s-58.859,11.695-90.511,12.28M2748.613,536.455s-72.59,20.719-126.605,28.069M2502.071,607.213s52.196,48.536-10.552,93.566c0,0,26.098,40.936-26.098,83.624"/>
      <path class="cls-5" d="M1429.285,1197.485s-10.633,57.086-94.947,128.939c0,0-65.054,57.385-63.388,123.465,1.697,67.29-11.661,74.852-37.203,97.66,0,0,52.752,4.094,78.294-30.994,0,0-1.109,58.478-8.886,63.741,0,0,16.543,1.056,40.534-25.146,0,0,14.437-15.205,27.764-21.052,0,0-15.546,40.351-3.332,77.777,0,0,3.888-14.62,24.432-21.052,0,0,37.203-7.604,51.642-61.403,0,0,9.439-35.673,67.742-67.251,0,0,66.076-24.923,64.413-57.49s-147.066-207.193-147.066-207.193Z"/>
      <path class="cls-1" d="M2479.304,804.58s7.773,78.059-87.733,78.065c0,0,18.325,69.591-73.852,67.254,0,0-10.552,55.553-77.184,44.442"/>
      <path class="cls-5" d="M2341.917,1531.76s42.201,72.514,93.287,73.683c0,0,87.874-10.695,112.721,12.28,17.325,16.024,34.983,29.24,42.201,70.176,7.219,40.936-13.883,49.705-18.881,51.462,0,0-3.888,29.24-32.761,21.637,0,0-1.666,30.409-52.752,15.789s-72.186-9.942-82.182-60.819c-9.995-50.877-19.223-50.044-28.32-56.14-12.217-8.188-35.167-15.925-52.196-25.731-15.298-8.809-73.852-38.595-93.84-40.936-19.991-2.338-15.549-69.589-15.549-69.589h51.64l24.989-36.841,51.645,45.03h0Z"/>
      <path class="cls-5" d="M2172.477,1197.485s10.634,57.086,94.947,128.939c0,0,65.054,57.385,63.388,123.465-1.697,67.29,11.661,74.852,37.203,97.66,0,0-52.752,4.094-78.294-30.994,0,0,1.11,58.478,8.886,63.741,0,0-16.546,1.056-40.534-25.146,0,0-14.437-15.205-27.764-21.052,0,0,15.547,40.351,3.332,77.777,0,0-3.888-14.62-24.432-21.052,0,0-37.203-7.601-51.642-61.403,0,0-9.439-35.673-67.742-67.251,0,0-66.079-24.923-64.413-57.49,1.666-32.567,147.066-207.193,147.066-207.193h0Z"/>
      <path class="cls-2" d="M2387.311,1605.443s15.112,3.363,47.892,0"/>
      <path class="cls-1" d="M2527.381,1646.379s46.088-7.016,43.866,92.982M2499.617,1669.184s41.647-5.263,38.869,91.813"/>
      <path class="cls-2" d="M2097.597,1435.272s19.991,4.094,33.874,19.883c13.881,15.789,40.534,12.864,40.534,12.864,0,0-14.437-11.695-19.435-40.936-4.998-29.241-21.1-38.01-21.1-38.01M2179.158,1361.383s19.991,4.094,33.871,19.883c13.881,15.789,40.534,12.864,40.534,12.864,0,0-14.437-11.695-19.435-40.936-4.998-29.241-21.1-38.01-21.1-38.01M2192.903,1474.889s17.455,3.575,29.574,17.362c12.121,13.784,35.393,11.232,35.393,11.232,0,0-12.607-10.213-16.969-35.74-4.362-25.53-18.423-33.188-18.423-33.188"/>
      <path class="cls-6" d="M1866.203,1933.509s15.137,66.796,67.745,61.403c0,0,37.203-3.51,34.428-65.497,0,0,54.971,29.24,63.857-43.274,0,0,49.974,11.695,49.42-56.14,0,0,46.645,8.188,41.091-52.046,0,0,50.53,13.448,50.53-43.274,0,0,118.272-19.615-128.267-244.441l-219.888,130.992,41.085,312.277h0Z"/>
      <path class="cls-5" d="M1841.771,1633.746s36.647,32.516,62.744-16.024c0,0,35.537-1.753,41.091-28.653,0,0,28.876-2.925,34.428-30.409,0,0,39.425-4.094,38.315-37.426,0,0,71.675-5.534.023-86.682-71.653-81.151-193.259,134.637-193.259,134.637l16.659,64.557Z"/>
      <path class="cls-1" d="M1968.376,1929.415s-5.554-117.544-107.427-285.961M2032.233,1886.142s15.826-67.835-127.714-268.416c0,0,16.659-47.952-34.428-78.655M2081.65,1830.001s4.441-73.392-136.04-240.932c0,0,12.409-43.274-38.496-77.777M2122.741,1777.955s-5.274-74.267-142.707-219.295c0,0,6.875-44.442-42.373-71.929M2173.27,1734.682s-9.995-84.793-154.921-213.447c0,0,4.998-33.332-43.313-67.251"/>
      <path class="cls-6" d="M1735.556,1933.509s-15.137,66.796-67.742,61.403c0,0-37.203-3.51-34.428-65.497,0,0-54.971,29.24-63.857-43.274,0,0-49.974,11.695-49.42-56.14,0,0-46.645,8.188-41.091-52.046,0,0-50.53,13.451-50.53-43.274,0,0-118.272-19.615,128.267-244.441l219.888,130.992-41.088,312.277h0Z"/>
      <path class="cls-5" d="M1759.991,1633.746s-36.647,32.516-62.747-16.021c0,0-35.537-1.753-41.088-28.653,0,0-28.876-2.925-34.428-30.409,0,0-39.425-4.094-38.315-37.426,0,0-71.675-5.534-.023-86.682,71.653-81.151,193.259,134.634,193.259,134.634l-16.659,64.557h0Z"/>
      <path class="cls-1" d="M1633.386,1929.415s5.551-117.544,107.427-285.961M1569.529,1886.142s-15.826-67.835,127.714-268.416c0,0-16.659-47.952,34.428-78.652"/>
      <path class="cls-5" d="M1800.881,1613.631c35.526,0,75.781,221.927,65.333,355.632-3.795,48.559-29.808,88.221-65.333,88.221s-61.539-39.662-65.333-88.221c-10.447-133.705,29.808-355.632,65.333-355.632"/>
      <path class="cls-1" d="M1520.109,1830.001s-4.441-73.392,136.043-240.932c0,0-12.409-43.274,38.496-77.777M1479.019,1777.955s5.274-74.267,142.707-219.295c0,0-6.875-44.442,42.373-71.929"/>
      <ellipse class="cls-5" cx="1800.881" cy="1611.875" rx="49.157" ry="72.805"/>
      <path class="cls-1" d="M1428.489,1734.682s9.995-84.793,154.921-213.447c0,0-4.998-33.332,43.313-67.251"/>
      <path class="cls-4" d="M1800.881,1595.973s416.922-184.752,417.964-612.155h-835.928c1.042,427.403,417.964,612.155,417.964,612.155Z"/>
      <path class="cls-1" d="M1575.823,983.815h64.303M1447.22,983.815h64.303M1704.429,983.815h64.3"/>
      <path class="cls-8" d="M1447.22,983.815v273.089s31.934,63.337,64.303,103.059v-376.148h-64.303ZM1575.823,983.815v450.169s40.213,39.43,64.303,58.439v-508.608h-64.303,0ZM1704.429,983.815v556.45s45.877,29.63,64.303,39.352v-595.801h-64.303Z"/>
      <path class="cls-2" d="M1447.22,983.815h64.303M1575.823,983.815h64.303M1704.429,983.815h64.3"/>
      <path class="cls-8" d="M2154.543,983.815v273.089s-31.934,63.337-64.3,103.059v-376.148h64.3ZM2025.936,983.815v450.169s-40.213,39.43-64.303,58.439v-508.608h64.303ZM1897.332,983.815v556.45s-45.877,29.63-64.303,39.352v-595.801h64.303Z"/>
      <path class="cls-10" d="M2241.287,2009.273l-38.73,47.368M2154.543,2004.012l106.732,98.677"/>
      <path class="cls-3" d="M2474.926,1758.035l-16.213,66.282,44.383,44.214-62.728,264.957-55.793-74.942-82.67,38.584,62.728-264.957,58.156-16.216,15.1-66.164s17.591-6.889,37.036,8.242h0Z"/>
      <path class="cls-3" d="M2489.786,1714.327l-31.948,59.605,32.005,54.805-125.706,238.831-35.475-87.594-89.336,14.736,125.706-238.831,60.158.189,30.844-59.794s22.441-.048,33.753,18.054h0Z"/>
      <path class="cls-3" d="M2495.178,1731.66l-84.977,107.958,19.477,60.983-173.497,202.93-15.854-93.755-90.192-6.808,173.497-202.93,58.577,14.437,90.139-114.607s24.172,12.009,22.831,31.793h0Z"/>
      <path class="cls-2" d="M308.883,366.284s113.83,65.907,468.336,131.814M359.413,456.924s308.089,100.501,451.567,112.851M480.746,569.775s180.737,56.736,392.389,92.538M634.967,687.988s204.203,49.047,301.691,57.191"/>
      <path class="cls-1" d="M771.981,784.406s172.724,36.023,216.486,40.354M881.927,873.293s126.048,19.152,176.214,18.127M1038.514,949.899s50.965-2.394,75.456-6.46M1085.712,1031.77s43.313-11.695,68.855-28.069M1149.569,1116.563s33.318-12.864,49.42-47.952M1230.918,1147.851s25.821-23.099,27.487-48.83M1327.536,1168.025s-9.668-8.338-3.055-44.589M1315.042,1070.218s-4.998-10.379-3.332-26.753M1132.91,551.075s58.303,23.39,77.737,55.553c19.435,32.163,6.635,63.422,0,81.357-3.335,9.013-44.423,88.23,3.888,145.539M1133.743,895.805s.277-.294,20.824-6.726M1010.75,811.597s34.752,6.997,68.855,7.31M962.719,725.925s40.814,4.094,79.127,3.51"/>
      <path class="cls-9" d="M1114.413,1746.134s-1.248-35.523,43.725-38.154l132.426,184.199s-4.998,11.842-64.964,10.526c0,0-6.35-.042-9.682,6.974-5.116,10.772-101.506-163.544-101.506-163.544h0Z"/>
      <path class="cls-1" d="M901.917,636.453s58.859,11.695,90.511,12.28M853.053,536.455s72.59,20.719,126.604,28.069M1099.595,607.215s-52.196,48.536,10.549,93.566c0,0-26.098,40.936,26.098,83.624M1122.362,804.583s-7.773,78.059,87.733,78.065c0,0-18.325,69.591,73.852,67.254,0,0,10.549,55.556,77.184,44.442"/>
      <path class="cls-2" d="M1214.313,1605.443s-15.112,3.363-47.893,0"/>
      <path class="cls-1" d="M1074.246,1646.379s-46.088-7.016-43.866,92.982M1102.01,1669.184s-41.647-5.263-38.869,91.81"/>
      <path class="cls-2" d="M1504.165,1435.269s-19.99,4.094-33.871,19.883c-13.881,15.789-40.534,12.864-40.534,12.864,0,0,14.437-11.695,19.435-40.936,4.998-29.241,21.1-38.01,21.1-38.01M1422.604,1361.383s-19.99,4.094-33.871,19.883c-13.881,15.789-40.534,12.864-40.534,12.864,0,0,14.437-11.695,19.435-40.936,4.998-29.241,21.1-38.01,21.1-38.01M1408.859,1474.886s-17.455,3.575-29.574,17.359c-12.121,13.787-35.393,11.232-35.393,11.232,0,0,12.607-10.213,16.969-35.743,4.362-25.53,18.424-33.188,18.424-33.188"/>
      <path class="cls-7" d="M2218.845,673.294s-204.582,107.015-417.964-8.773c-213.383,115.787-417.964,8.773-417.964,8.773v310.52h835.929v-310.52Z"/>
      <path class="cls-3" d="M341.978,1478.562c20.259-8.27,34.848-16.252,34.786-37.869-.014-5.153-2.877-16.554-8.626-34.204l-136.029-415.736c-8.056-24.697-14.146-39.38-16.969-44.79-6.116-11.709-18.119-16.475-34.286-23.209h172.891c-18.782,8.874-35.904,15.922-35.743,35.834.062,7.604,2.2,18.325,6.61,32.168l104.208,326.233,104.106-326.233c4.41-13.844,6.689-24.565,6.616-32.168-.201-20.465-18.031-27.84-35.551-35.834h167.557c-15.321,6.138-27.806,10.95-34.221,23.209-2.829,5.41-8.914,20.092-16.967,44.79l-136.029,415.736c-5.754,17.647-7.835,29.243-8.629,34.611,0,0-6.26,26.293,34.786,37.46l-168.508.003h0ZM3240.839,1435.805v-470.708c0-8.143-1.344-14.386-4.024-18.731-2.685-4.34-14.372-16.854-31.045-23.616h155.788c-16.676,5.52-28.365,18.935-31.045,23.413-2.685,4.478-4.024,10.789-4.024,18.935v470.708c0,8.417,1.386,14.863,4.168,19.341,2.775,4.478,14.228,15.411,30.901,23.413h-155.788c16.676-7.587,28.359-19.27,31.045-23.616,2.679-4.337,4.024-10.721,4.024-19.138Z"/>
    </g>
  </g>
</svg>