<?xml version="1.0" encoding="UTF-8"?>
<svg xmlns="http://www.w3.org/2000/svg" viewBox="0 0 3600.1 2401.738">
  <defs>
    <style>
      .cls-1 {
        fill: #da251d;
      }

      .cls-1, .cls-2 {
        fill-rule: evenodd;
        stroke-width: 0px;
      }

      .cls-2 {
        fill: #ff0;
      }
    </style>
  </defs>
  <g id="background">
    <path id="vn" class="cls-1" d="M400,.1h2800c220,0,400,180,400,400v1600c0,220-180,400-400,400H400C180,2400.1,0,2220.1,0,2000.1V400.1C0,180.1,180,.1,400,.1Z"/>
  </g>
  <g id="country">
    <g id="vn-2" data-name="vn">
      <g>
        <path class="cls-2" d="M1567.112,1202.484l234.716-722.384,234.712,722.384h-469.428Z"/>
        <path class="cls-2" d="M1991.712,1340.444l-614.492,446.456,234.72-722.38,379.772,275.924h0Z"/>
        <path class="cls-2" d="M1729.296,1425.708l-614.496-446.452h759.56l-145.064,446.452h0Z"/>
        <path class="cls-2" d="M1729.296,979.256h759.556l-614.492,446.452-145.064-446.452Z"/>
        <path class="cls-2" d="M1991.712,1064.52l234.72,722.38-614.492-446.456,379.772-275.924h0Z"/>
      </g>
    </g>
  </g>
</svg>