<?xml version="1.0" encoding="UTF-8"?>
<svg xmlns="http://www.w3.org/2000/svg" viewBox="0 0 3600.818 2401.738">
  <defs>
    <style>
      .cls-1 {
        fill: #d21034;
      }

      .cls-1, .cls-2, .cls-3, .cls-4, .cls-5 {
        stroke-width: 0px;
      }

      .cls-1, .cls-2, .cls-5 {
        fill-rule: evenodd;
      }

      .cls-2 {
        fill: #141414;
      }

      .cls-6 {
        stroke: #fdce12;
        stroke-width: 3.075px;
      }

      .cls-6, .cls-4, .cls-5 {
        fill: #fdce12;
      }

      .cls-3 {
        fill: #009543;
      }
    </style>
  </defs>
  <g id="background">
    <path id="vu" class="cls-1" d="M400,.1h2800c220,0,400,180,400,400v1600c0,220-180,400-400,400H400C180,2400.1,0,2220.1,0,2000.1V400.1C0,180.1,180,.1,400,.1Z"/>
  </g>
  <g id="country">
    <g id="vu-2" data-name="vu">
      <path class="cls-3" d="M0,1200.1h3600v800c0,220.914-179.086,400-400,400H400C179.086,2400.1,0,2221.014,0,2000.1v-800Z"/>
      <path class="cls-2" d="M0,1000.1v1000.239c.015,25.284,2.383,50.017,6.883,73.997l1398.777-874.236L6.883,325.864C2.383,349.845.015,374.578,0,399.861v600.239Z"/>
      <path class="cls-2" d="M132.657,2297.641l1445.288-897.541h2022.055v-150H1514.34L38.858,2172.276c22.826,47.793,54.853,90.349,93.799,125.365Z"/>
      <path class="cls-2" d="M3600,1150.1v-150h-2022.055L132.657,102.559c-38.946,35.016-70.973,77.572-93.799,125.365l1475.482,922.176h2085.66Z"/>
      <path class="cls-5" d="M3600,1150.1v100H1514.34L38.851,2172.28c-14.657-30.689-25.518-63.538-31.975-97.94l1398.784-874.24L6.876,325.86c6.457-34.402,17.318-67.252,31.975-97.94l1475.489,922.18h2085.66Z"/>
      <g>
        <path class="cls-4" d="M394.349,1367.765v99.864c86.879,0,257.381-66.572,257.381-280.924s-181.868-254.134-236.274-254.134-222.466,38.974-222.466,214.352,164.824,191.614,197.3,191.614,154.267-29.229,140.466-160.761c0,37.347-42.222,116.108-130.724,116.108s-143.709-65.772-143.709-130.72,53.587-151.835,146.957-151.835,161.573,82.812,161.573,166.447-65.764,189.99-170.503,189.99h0Z"/>
        <path class="cls-6" d="M318.231,1237.753l5.177,3.347s41.104-93.775,151.624-160.455c-14.004,7.613-87.989,44.454-156.802,157.108Z"/>
        <path class="cls-4" d="M328.887,1221.617s-12.786-26.185-1.524-37.749c11.269-11.576,6.092,30.749,6.092,30.749l4.871-7.004s-7.613-31.971.915-38.672c8.524-6.694,4.262,30.753,4.262,30.753l5.173-6.697s-5.48-31.056,2.742-36.842,3.044,29.233,3.044,29.233l6.089-7.007s-4.565-29.532,5.48-36.532c10.052-7.007,1.218,28.008,1.218,28.008l6.697-7.306s-3.044-27.1,5.483-33.188c8.524-6.089,1.218,25.572,1.218,25.572l6.089-6.391s-1.827-25.27,6.395-31.052c8.221-5.79.609,24.052.609,24.052l6.395-6.092s-1.52-25.27,8.83-30.14-1.827,23.749-1.827,23.749l7-6.089s2.133-29.535,10.963-32.277c8.827-2.742-3.959,26.188-3.959,26.188l6.395-5.181s3.347-25.27,13.089-28.314c9.745-3.044-6.089,23.137-6.089,23.137l6.395-4.871s7.004-25.27,16.137-28.008c9.137-2.742-9.435,23.749-9.435,23.749l6.089-4.262s10.044-22.841,18.266-24.362-9.133,18.878-9.133,18.878l7.613-4.568s13.092-23.746,17.661-16.439c4.565,7.306-18.266,17.963-18.266,17.963l-7.616,4.262s27.709-13.092,31.056-6.395c3.351,6.697-38.059,10.963-38.059,10.963l-6.697,4.568s27.709-7.616,24.358-.609c-3.347,7-30.749,5.48-30.749,5.48l-6.399,4.565s27.709-6.697,24.055-.303c-3.653,6.395-30.753,5.782-30.753,5.782l-6.697,5.483s27.1-7.004,23.14,1.218c-3.959,8.221-34.709,7.915-34.709,7.915l-7.613,7.004s28.62-9.742,26.185-2.133c-2.435,7.613-35.019,11.572-35.019,11.572l-7.306,7.306s30.753-10.351,21.624-.915c-9.137,9.443-31.365,11.878-31.365,11.878l-8.827,10.653s30.447-18.266,26.181-7.915c-4.262,10.351-34.096,17.358-34.096,17.358l-6.089,7.306s27.399-15.834,24.661-7.004c-2.742,8.83-31.971,18.266-31.971,18.266l-4.871,6.701s32.273-19.181,29.532-9.439c-2.742,9.742-33.491,16.745-33.491,16.745l-3.956,6.089s29.834-17.048,30.14-8.83c.303,8.221-35.019,16.443-35.019,16.443l-.605-7.004h0Z"/>
      </g>
    </g>
  </g>
</svg>