<?xml version="1.0" encoding="UTF-8"?>
<svg xmlns="http://www.w3.org/2000/svg" viewBox="0 0 3600.818 2401.738">
  <defs>
    <style>
      .cls-1 {
        fill: #002495;
      }

      .cls-1, .cls-2, .cls-3 {
        fill-rule: evenodd;
      }

      .cls-1, .cls-2, .cls-3, .cls-4 {
        stroke-width: 0px;
      }

      .cls-2 {
        fill: #ed2939;
      }

      .cls-3 {
        fill: #fff;
      }

      .cls-4 {
        fill: #eee;
      }
    </style>
  </defs>
  <g id="background">
    <path id="wf" class="cls-2" d="M400,.1h2800c220,0,400,180,400,400v1600c0,220-180,400-400,400H400C180,2400.1,0,2220.1,0,2000.1V400.1C0,180.1,180,.1,400,.1Z"/>
  </g>
  <g id="country">
    <g id="wf-2" data-name="wf">
      <path class="cls-3" d="M2518.734,1104.322l-287.335-287.335h574.67l-287.335,287.335ZM2422.955,1200.1l-287.335-287.335v574.67l287.335-287.335ZM2518.734,1295.878l-287.335,287.335h574.67l-287.335-287.335ZM2614.512,1200.1l287.335-287.335v574.67l-287.335-287.335Z"/>
      <g>
        <path class="cls-1" d="M1600,.1v1200H0V400.1C0,180.1,180,.1,400,.1h1200Z"/>
        <path class="cls-4" d="M528.882.1h1057.764v1186.931H528.882V.1Z"/>
        <path class="cls-2" d="M1057.764.1h528.882v1186.931h-528.882V.1Z"/>
        <polygon class="cls-4" points="1601.34 .1 1563.51 .1 1563.51 1163.894 0 1163.894 0 1201.724 1601.34 1201.724 1601.34 .1"/>
      </g>
    </g>
  </g>
</svg>