<?xml version="1.0" encoding="UTF-8"?>
<svg xmlns="http://www.w3.org/2000/svg" viewBox="0 0 3600.818 2401.738">
  <defs>
    <style>
      .cls-1 {
        fill: #ce1126;
      }

      .cls-1, .cls-2, .cls-3 {
        fill-rule: evenodd;
        stroke-width: 0px;
      }

      .cls-2 {
        fill: #fff;
      }

      .cls-3 {
        fill: #002b7f;
      }
    </style>
  </defs>
  <g id="background">
    <path id="ws" class="cls-1" d="M400,.1h2800c220,0,400,180,400,400v1600c0,220-180,400-400,400H400C180,2400.1,0,2220.1,0,2000.1V400.1C0,180.1,180,.1,400,.1Z"/>
  </g>
  <g id="country">
    <g id="ws-2" data-name="ws">
      <path class="cls-3" d="M1600,.1v1200H0V400.1C0,180.1,180,.1,400,.1h1200Z"/>
      <path class="cls-2" d="M666.901,147.641h101.679l31.42-96.837,31.42,96.837h101.679l-82.259,59.848,31.42,96.837-82.259-59.848-82.259,59.848,31.42-96.837-82.259-59.848ZM299.296,447.641h101.679l31.42-96.837,31.42,96.837h101.679l-82.259,59.848,31.42,96.837-82.259-59.848-82.259,59.848,31.42-96.837-82.259-59.848ZM1051.408,390.48h95.223l29.425-90.38,29.425,90.38h95.223l-77.037,55.859,29.425,90.38-77.037-55.859-77.037,55.859,29.425-90.38-77.037-55.859ZM899.296,669.882h62.945l19.449-61.331,19.449,61.331h62.945l-50.924,37.901,19.454,61.331-50.924-37.906-50.924,37.906,19.454-61.331-50.924-37.901ZM633.099,953.538l127.504.004,39.397-121.048,39.397,121.048,127.504-.004-103.153,74.81,39.401,121.048-103.149-74.81-103.149,74.81,39.401-121.048-103.154-74.81Z"/>
    </g>
  </g>
</svg>