<?xml version="1.0" encoding="UTF-8"?>
<svg xmlns="http://www.w3.org/2000/svg" viewBox="0 0 3600.818 2401.738">
  <defs>
    <style>
      .cls-1 {
        fill: #d0a650;
      }

      .cls-1, .cls-2, .cls-3 {
        stroke-width: 0px;
      }

      .cls-2 {
        fill: #244aa5;
        fill-rule: evenodd;
      }

      .cls-3 {
        fill: #fff;
      }
    </style>
  </defs>
  <g id="background">
    <path id="xk" class="cls-2" d="M400,.1h2800c220,0,400,180,400,400v1600c0,220-180,400-400,400H400C180,2400.1,0,2220.1,0,2000.1V400.1C0,180.1,180,.1,400,.1Z"/>
  </g>
  <g id="country">
    <g id="xk-2" data-name="xk">
      <path id="path26" class="cls-1" d="M1818.165,760.639c14.058,16.406,23.469,32.8,23.469,52.74-11.803,5.835-28.111,8.218-37.523,18.764,58.605-8.222,70.28,59.735,135.914,33.947,2.383,9.412,11.795,17.626,23.465,14.075l7.029-18.717c25.728-7.029,18.699,35.136,46.926,26.918,14.066,11.735,4.655,31.628,14.066,45.745,0,16.376,7.033,30.434,14.053,44.488,7.033-8.158,11.675-19.893,28.111-16.376,11.675,12.864,21.087,24.599,23.461,38.652-4.761,26.982-11.79,50.387,16.321,64.441v8.218c18.823,8.218,60.992-8.218,60.992,24.599-2.391,11.735,11.671,1.194,16.436,8.218,11.675-4.706,28.111-2.319,42.165-2.319,11.675,24.599-14.053,42.165-21.082,64.441,11.671,11.675,7.029,32.817,4.646,46.806l-7.033,3.517c18.699,3.512,42.165-2.259,58.61,8.282l30.494,11.671c14.053-8.154,30.374-9.407,49.194-8.154,14.058,10.546-4.766,28.111,7.033,36.27,16.441,0,30.494,2.387,32.753,16.445l2.383,4.642c11.675-21.087,44.552-7.033,58.61-22.212,23.465,0,28.107,25.728,39.778,39.786,4.77,36.389-39.778,52.834-25.724,89.099-9.412,17.566-28.111,31.628-42.165,48.064,4.642,2.383,2.255,8.158,2.255,11.671-14.053,8.287-2.255,32.881-21.082,35.149-2.259,15.303-30.37,9.407-21.082,25.844,18.819,24.599-9.288,39.786-9.288,62.122-11.799,12.924-35.264-11.799-35.264,12.924-14.058,3.512-28.111-12.924-37.399,1.134-4.766,16.441,9.288,22.212,7.029,38.652,23.345-2.387,30.374,21.082,39.786,35.14l23.465,23.465c-23.465,18.699-53.964-2.387-82.079,8.154-7.029-3.512,0-12.8-7.029-16.312-7.029-8.287-21.082-8.287-32.753-10.55,2.259,10.55-18.823,14.058-9.412,26.858,0,3.512,4.642,14.058-4.646,14.058-18.823,5.899-16.436-16.312-32.881-8.158-21.082,8.158-4.642,39.786-35.136,36.27,4.642,28.24-46.811,46.939-11.675,71.538,4.642,4.646,2.259,14.053,2.259,21.082-21.087,18.824-58.49,11.799-81.951,4.766-18.823-4.766-7.029-28.235-14.053-41.035-7.029-11.795-28.111-19.953-28.111-36.394-14.066-5.78-25.852-9.403-35.264-21.087-32.753,31.628-72.65,62.122-119.474,63.251-21.082,10.541-32.877,52.839-65.634,35.26-12.864,21.091-51.581,0-53.904,30.379-15.247,5.895-8.218,25.848-17.566,35.136-3.517,23.465,0,43.418,19.889,57.48,8.218,17.566-17.57,17.566-7.029,34.011,2.387,5.775,0,14.053-3.512,16.436-7.029,3.512-9.348,7.033-7.029,14.058-5.835,0-8.214,3.512-12.864,8.154-5.899,11.675-24.599,17.57-37.523,25.728-12.864,3.512-22.276-5.775-30.434-14.053-2.387,12.924-12.924,19.953-25.788,19.953-18.764,0-15.247-16.441-29.305-23.465,5.835-21.087-12.924-30.374-7.029-49.198,15.243-11.671,40.975-19.953,33.947-44.548-16.376-19.833-10.541-49.198-26.918-72.663-10.541-9.288-28.111-23.341-22.276-45.681,15.247-17.566,0-38.652-8.218-57.352-3.512-15.307-12.864-29.36-12.864-46.935-25.788-15.183-26.982-55.093-63.311-58.605-25.788,0-30.434-32.757-56.223-30.498-2.383-4.642-8.218-8.154-12.924-12.8-18.699,12.8-42.165-3.512-65.574,2.259-15.247-25.728,12.864-60.868-28.171-76.18v-16.312c4.706,2.255,7.029-2.391,8.218-4.77,2.323-17.57-29.305-19.829-16.376-39.786-7.029-5.895-15.247-8.282-10.541-19.953-17.63-36.27-70.34-32.753-82.075-69.146,9.412-8.154,9.412-16.441,12.928-23.465-8.223-14.058-10.541-29.245-8.223-44.428,8.223-2.387,12.864-12.924,17.57-21.211-10.541-7.025-23.41-17.566-35.14-14.053-21.082-3.512-36.334-19.829-55.093-29.241-4.706-4.646-2.319-12.924-2.319-18.699,25.784-8.287-3.512-44.616,28.111-39.906,8.223-10.541,25.788-14.058,38.657-22.276,12.924-2.319,23.465,2.383,36.329,5.9,10.541,13.994,29.305,8.158,39.842,19.889,10.541-2.383,23.469-8.223,36.334-2.383,0-19.893,9.352-31.628,23.465-45.686,2.323-8.158,15.187-14.053,25.728-18.699,19.957,4.646,43.363,4.646,57.48-9.412,9.352,5.895,17.57-5.835,28.111-5.835,12.86-2.383,23.405,1.129,32.817,7.029,1.129-23.469,42.165-3.517,50.387-31.628,9.352-18.764-25.788-25.788-23.469-42.229-5.835-18.764,8.223-28.111,15.247-40.975,8.218-3.517,17.57-8.218,28.111-5.899,26.982-9.352,5.895-64.441,49.258-44.488,0,5.84-2.383,12.864,1.129,14.058,15.247,0,17.587-17.587,28.175-23.465,4.642-16.376-5.895-36.329,8.158-49.198,7.029-1.189,12.924-3.512,17.57-9.412,0-12.864-7.029-19.889-17.57-28.111-3.512,5.857-12.864,1.194-18.746,3.517,0-14.058-8.175-23.405-10.558-36.334-7.029-3.512-10.541-9.348-8.158-17.57,10.541-10.541,0-36.329,24.599-30.481,9.352-8.171,25.788-2.336,35.14-16.394,24.599-14.053,57.412-14.053,76.175-39.842,8.218,1.189,17.57-7.029,25.788,0,2.327,15.243,24.603,9.343,24.603,23.431"/>
      <path id="polygon37" class="cls-3" d="M1999.6,442.9l-32.4-99.6-32,99.6h-104.8l84.8,61.6-32.4,99.6,84.4-61.6,84.8,61.6-32.4-99.6,84.8-61.6h-104.8Z"/>
      <path id="polygon39" class="cls-3" d="M2329.2,500.9l-32.4-99.2-32,99.2h-104.8l84.8,61.6-32.4,99.6,84.4-61.6,84.8,61.6-32.4-99.6,84.8-61.6h-104.8Z"/>
      <path id="polygon41" class="cls-3" d="M2643.6,615.3l-32-99.2-32.4,99.2h-104.8l84.8,61.6-32.4,99.6,84.8-61.6,84.4,61.6-32.4-99.6,84.8-61.6h-104.8Z"/>
      <path id="polygon43" class="cls-3" d="M1664.8,442.9l-32-99.6-32.4,99.6h-104.8l84.8,61.6-32.4,99.6,84.8-61.6,84.4,61.6-32.4-99.6,84.8-61.6h-104.8Z"/>
      <path id="polygon45" class="cls-3" d="M1335.2,500.9l-32-99.2-32.4,99.2h-104.8l84.8,61.6-32.4,99.6,84.8-61.6,84.4,61.6-32.4-99.6,84.8-61.6h-104.8Z"/>
      <path id="polygon47" class="cls-3" d="M1020.8,615.3l-32.4-99.2-32,99.2h-104.8l84.8,61.6-32.4,99.6,84.4-61.6,84.8,61.6-32.4-99.6,84.8-61.6h-104.8Z"/>
    </g>
  </g>
</svg>