<?xml version="1.0" encoding="UTF-8"?>
<svg xmlns="http://www.w3.org/2000/svg" viewBox="0 0 3600.818 2401.738">
  <defs>
    <style>
      .cls-1 {
        fill: #141414;
      }

      .cls-1, .cls-2, .cls-3 {
        stroke-width: 0px;
      }

      .cls-2 {
        fill: #ce1126;
        fill-rule: evenodd;
      }

      .cls-3 {
        fill: #eee;
      }
    </style>
  </defs>
  <g id="background">
    <path id="ye" class="cls-2" d="M400,.1h2800c220,0,400,180,400,400v1600c0,220-180,400-400,400H400C180,2400.1,0,2220.1,0,2000.1V400.1C0,180.1,180,.1,400,.1Z"/>
  </g>
  <g id="country">
    <g id="ye-2" data-name="ye">
      <path class="cls-3" d="M3600,2000.1V800.1H0v1200C0,2220.1,180,2400.1,400,2400.1h2800c220,0,400-180,400-400Z"/>
      <path class="cls-1" d="M3600,2000.1v-400H0v400C0,2220.1,180,2400.1,400,2400.1h2800c220,0,400-180,400-400Z"/>
    </g>
  </g>
</svg>