<?xml version="1.0" encoding="UTF-8"?>
<svg xmlns="http://www.w3.org/2000/svg" viewBox="0 0 3600.818 2401.738">
  <defs>
    <style>
      .cls-1, .cls-2 {
        stroke-width: 9.6px;
      }

      .cls-1, .cls-2, .cls-3, .cls-4, .cls-5 {
        stroke: #000;
      }

      .cls-1, .cls-6 {
        fill: #d42e12;
      }

      .cls-7, .cls-8, .cls-9, .cls-6, .cls-10 {
        stroke-width: 0px;
      }

      .cls-8 {
        fill: #dfdfdf;
      }

      .cls-2 {
        fill: #171796;
      }

      .cls-3 {
        stroke-width: 8.969px;
      }

      .cls-3, .cls-9 {
        fill: #fff;
      }

      .cls-4 {
        fill: none;
        stroke-width: 8.16px;
      }

      .cls-5 {
        fill: #e9d315;
        stroke-width: 7.8px;
      }

      .cls-10 {
        fill: #eee;
        fill-rule: evenodd;
      }
    </style>
  </defs>
  <g id="background">
    <path id="bg" class="cls-10" d="M400,.1h2800c220,0,400,180,400,400v1600c0,220-180,400-400,400H400C180,2400.1,0,2220.1,0,2000.1V400.1C0,180.1,180,.1,400,.1Z"/>
  </g>
  <g id="country">
    <g id="yt">
      <path class="cls-6" d="M883.262,504.311V243.004h85.205l55.728,198.864,54.965-198.864h85.584v261.307h-54.01v-210.749l-56.87,210.749h-58.958l-57.629-210.749v210.749h-54.014M1327.55,295.338l-38.798,111.226h77.794l-38.99-111.226M1294.08,243.004h66.566l100.992,261.307h-60.48l-19.018-53.75h-108.605l-18.451,53.75h-60.672l99.667-261.307M1615.699,504.311h-57.629v-97.392l-101.755-163.915h70.56l59.914,112.646,55.344-112.646h65.808l-92.242,163.92v97.387M1779.643,373.924c0,28.738,6.85,51.091,20.544,67.056,13.694,15.85,32.837,23.77,57.437,23.77,24.85,0,44.189-7.92,58.008-23.77,13.824-15.965,20.736-38.318,20.736-67.056s-6.912-51.029-20.736-66.878c-13.824-15.965-33.158-23.952-58.008-23.952-24.6,0-43.742,7.93-57.437,23.774-13.694,15.85-20.544,38.198-20.544,67.056M1720.877,373.924c0-42.221,12.298-75.686,36.898-100.406,24.72-24.835,58.008-37.248,99.85-37.253,41.842,0,75.125,12.418,99.85,37.253,24.854,24.835,37.282,58.306,37.282,100.406s-12.432,75.571-37.282,100.406c-24.72,24.835-58.008,37.253-99.85,37.253s-75.125-12.418-99.85-37.248c-24.6-24.84-36.898-58.31-36.898-100.411M2098.411,504.311v-214.651h-83.117v-46.656h223.286v46.656h-82.541v214.656h-57.629M2329.684,504.316v-214.656h-83.117v-46.656h223.286v46.656h-82.541v214.656h-57.633M2502.946,504.316V243.004h203.319v45.418h-146.448v55.694h133.891v44.707h-133.896v67.234h153.298v48.25h-210.163"/>
      <g id="a">
        <path class="cls-8" d="M1058.726,695.207c-24.36,3.427-42.72,10.118-67.248,24.874-7.891,4.8-15.264,8.232-16.637,7.718s-2.918-4.632-3.605-9.605c-.686-4.632-2.232-9.95-3.432-11.496-3.432-4.8-6.691-.859-13.037,15.264-2.914,7.728-6.173,15.101-7.032,16.128-3.086,3.773-7.205,2.4-12.182-3.773-4.973-6.346-12.518-8.232-14.237-3.6-.514,1.368-.173,6.859.859,12.35,3.086,16.128-1.886,18.528-15.955,7.718-12.178-9.437-16.81-11.323-21.442-8.923-4.8,2.578-4.632,6.178,1.546,20.414,5.314,12.355,5.659,21.274.514,14.064-1.373-1.882-7.723-6.173-14.242-9.259-6.518-3.259-16.637-8.578-22.642-12.01-6-3.259-14.237-7.2-18.355-8.746-7.55-2.573-48.374-8.578-51.806-7.378-1.027.341,4.632,4.973,12.35,10.464,16.982,11.664,49.579,41.515,49.579,45.288,0,2.232-1.891,2.573-13.728,1.546-15.61-1.373-15.264-1.891-11.837,14.41,1.2,5.659,1.373,9.432.346,10.464s-6.346.686-14.41-1.032c-7.032-1.373-13.21-2.573-13.896-2.573-2.573,0-1.373,13.55,2.232,25.046,3.432,10.805,3.432,11.837.686,13.723-3.432,2.573-7.378,1.373-33.456-10.637-15.437-7.2-19.382-8.405-27.787-8.064-5.318.173-11.664,1.373-14.237,2.746l-4.8,2.4,11.146,12.01c13.21,14.41,26.592,33.624,28.646,41.342,3.778,12.864-8.918,15.096-51.634,9.61-23.328-3.091-39.11-2.573-46.829,1.541-6.005,3.091-26.592,22.301-26.592,24.874,0,.864,9.95,2.064,22.128,2.573,25.56,1.032,44.088,5.491,59.357,13.896,14.41,7.891,14.064,9.61-1.546,9.61-13.037,0-20.582,2.054-27.446,7.546-3.259,2.573-3.259,2.746,0,6.346,4.973,5.491,14.582,9.782,26.419,11.664,6,1.032,11.15,2.064,11.491,2.578.346.341-4.973,1.541-11.837,2.573-17.837,2.914-42.883,10.291-55.066,16.464-10.978,5.491-11.491,6.178-13.723,22.128l-1.027,6.523,5.486-1.2c8.578-1.886,52.838-2.918,60.043-1.373,10.978,2.4,7.891,4.8-9.091,6.864-21.274,2.573-33.283,4.973-38.942,7.886l-4.464,2.4,9.264,4.464c5.15,2.573,16.987,6.178,26.419,8.064,40.142,8.232,45.12,12.864,11.496,11.15-27.619-1.373-38.597-.346-37.738,3.946.854,4.8,17.837,13.037,35.506,17.496,10.81,2.746,6.691,4.8-10.978,5.491-15.955.514-27.96,4.632-32.938,11.318-3.946,4.978-1.541,27.619,3.091,30.538,1.027.514,3.086-.173,4.632-1.546,1.541-1.546,8.573-5.318,15.61-8.75,13.21-6.346,13.378-6.346,32.251-3.427,8.064,1.2,15.096,7.891,21.096,20.242,2.918,5.832,8.923,15.096,13.382,20.582s9.605,11.837,11.323,14.069c3.259,3.946,3.259,4.118-.346,11.323-1.886,4.114-3.946,8.746-4.459,10.291-3.086,10.637-55.584,7.032-96.922-6.691-16.469-5.486-40.829-17.496-51.806-25.56l-8.405-6.173v6.686c0,16.469,12.864,44.434,25.728,55.925l8.237,7.378-8.405,16.128c-10.464,20.064-11.15,27.787-3.091,35.851,2.918,3.086,4.978,6.518,4.291,7.891-.514,1.368-4.978,4.8-9.95,7.546-15.437,8.75-14.75,7.891-8.405,11.15,3.086,1.714,11.491,3.432,18.355,3.946,7.546.686,13.55,1.886,14.582,3.264,4.286,5.141-4.632,16.464-20.074,25.728-2.573,1.541-.686,2.227,10.464,3.946,7.55,1.027,18.528,2.059,24.36,2.227l10.637.346-3.6,6.518c-4.291,7.718-12.355,16.128-19.046,20.242l-4.8,3.086,5.318.686c2.914.518,8.918.173,13.378-.514,12.864-2.059,28.478-1.714,31.91.686,5.314,3.946.854,12.864-12.528,25.728l-11.664,11.328,7.55,1.2c14.237,2.059,32.251-.173,41.856-5.146,4.978-2.4,9.264-4.291,9.61-3.946,2.4,2.573-6.864,27.446-12.864,34.306-1.378,1.546-2.064,3.432-1.378,4.291.686.686,9.95,1.2,20.414,1.2,14.928,0,20.587-.686,25.046-3.086,3.259-1.546,6.173-2.918,6.518-2.918.173,0,.514,3.6.514,8.064,0,5.832-1.2,9.432-4.459,13.723l-4.286,5.664h4.8c11.15-.178,37.57-8.75,47.006-15.614,6.173-4.286,6.686-4.118,6.686,2.232-.168,7.2-3.946,17.664-7.891,22.128-3.6,4.118-2.741,4.118,14.064-.173,15.101-3.773,28.478-9.091,35.342-13.896,6.346-4.632,7.032-4.114,5.664,3.091-1.546,8.578-4.805,13.55-11.328,16.982-2.914,1.373-4.973,3.086-4.459,3.427,1.373,1.546,37.57-4.114,45.806-7.032,4.114-1.373,8.918-3.946,10.632-5.486,2.918-2.578,3.091-2.578,3.091,1.541,0,2.4-1.886,7.891-4.291,12.35s-4.286,8.41-4.286,8.923c0,1.373,9.432-1.546,20.414-6.35,6-2.741,13.037-4.973,15.61-4.973,5.832,0,12.691,5.318,18.01,13.728,2.918,4.627,7.378,8.059,15.955,12.346l12.01,6.005.686-7.032c.854-6.346,29.16-80.798,31.906-83.712,1.2-1.2,35.683,22.469,68.962,47.174,20.069,14.923,66.216,60.725,79.766,79.248,37.224,50.784,49.406,85.776,49.579,142.387,0,31.219-2.064,47.856-9.264,77.88-15.782,64.157-52.493,125.227-94.176,156.106-27.451,20.414-59.87,27.274-120.254,25.387-73.08-2.232-118.709-17.496-152.506-50.606-25.046-24.701-41.51-56.952-48.374-94.69-1.027-6.178-1.886-21.274-1.886-33.456,0-41.856,9.437-70.848,30.019-92.976,17.842-19.042,36.883-29.506,61.243-33.278,23.155-3.6,49.574,4.118,65.87,19.042,11.323,10.464,11.837,15.442,2.918,33.278-7.891,15.955-8.578,20.074-3.6,25.046,4.627,4.632,14.237,4.464,25.214-.859,15.955-7.373,23.846-25.387,22.474-50.434-1.373-22.469-11.837-37.056-35.51-49.056-22.992-11.496-34.656-13.728-70.507-13.555-29.674,0-32.765.341-47.174,4.8-28.819,8.75-46.32,20.414-59.866,39.288-30.878,43.57-47.861,118.368-37.915,166.738,7.723,36.883,28.306,76.853,56.952,109.79,48.379,55.92,112.536,81.485,204.653,81.485,68.275,0,116.654-13.037,164.688-44.256,53.52-34.656,88.171-79.598,117.504-152.16,7.891-19.901,10.978-32.256,12.35-49.406.514-8.41,1.886-15.269,3.432-16.987,6.864-7.891,9.264-30.36,4.973-44.942l-2.573-8.232,5.318-4.632c9.437-8.41,8.405-26.592-2.227-38.77l-4.978-5.664,5.664-5.659c7.373-7.546,10.632-21.787,9.264-40.656-.864-13.037-6.691-31.219-9.95-31.219-3.432,0-1.2-4.632,3.773-7.55,7.718-4.632,11.837-12.35,11.837-22.642,0-20.76-8.578-52.666-14.928-55.066-2.573-1.032-3.086-5.664-.682-5.664,3.946,0,9.264-16.128,10.118-30.706,1.032-18.355-2.573-32.419-10.118-39.97l-4.978-5.146,5.318-10.978c4.632-9.437,5.318-12.182,4.464-20.074-1.891-18.182-21.96-51.806-37.056-61.757-5.491-3.6-7.032-5.659-7.032-9.6,0-11.496-9.437-28.483-25.219-45.466-16.464-17.496-21.787-25.387-25.219-37.738-2.4-7.891-4.973-12.01-12.178-19.214-8.405-8.4-26.246-19.042-36.883-21.787-2.227-.514-3.432-2.227-3.432-4.973-.168-10.978-13.723-29.333-25.728-34.824-6.005-2.746-6.864-3.773-6.864-8.746,0-7.037-5.832-14.069-19.555-23.506-13.037-8.746-33.624-14.064-65.357-16.81-66.734-5.491-96.408-16.642-127.8-47.861-19.042-18.869-26.419-31.565-33.283-56.611-5.659-20.755-6-40.138-.854-55.234,3.6-10.637,15.096-32.256,17.15-32.256.686,0-.341,5.664-2.227,12.355-4.464,16.296-4.978,43.056-.859,56.093,5.664,18.187,16.814,31.738,32.424,39.802,10.637,5.486,15.782,6.686,33.965,8.4,18.869,1.718,31.565,5.491,37.738,11.155,9.264,8.578,30.024,9.605,49.92,2.746,5.146-1.886,14.755-3.946,21.446-4.464l12.35-1.2,15.95,11.15c16.469,11.323,87.662,51.466,100.186,56.438,22.814,9.091,48.547,2.746,59.352-14.582,8.75-13.891.859-26.928-36.365-60.552-30.192-27.106-37.397-36.37-41.342-52.152-1.718-6.686-7.205-21.269-12.528-32.251-12.518-26.928-12.691-31.56-.854-43.915,4.632-4.973,9.778-11.832,11.15-15.437,2.746-6.346,3.946-20.755,2.059-22.814-1.032-.859-12.523,1.541-18.528,3.773-1.886.686-2.227-1.886-1.714-13.723.341-9.264-.346-16.642-1.546-19.901l-2.227-5.146-6.178,6.005c-6.346,6.178-10.978,7.718-13.037,4.464-.514-.864-1.718-5.837-2.573-10.982-1.718-10.81-8.578-27.619-10.296-25.56-.686.686-2.227,4.286-3.427,7.718-1.032,3.6-2.573,6.518-3.432,6.518-.686,0-1.886-4.118-2.573-9.091-1.886-14.75-3.946-20.928-8.578-25.214-3.773-3.605-4.8-3.778-6.005-1.718-.859,1.373-1.714,4.464-1.714,6.864,0,7.546-4.805,22.814-11.15,35.678-12.355,24.706-24.019,22.301-48.034-9.432-13.728-18.187-15.782-23.846-12.01-32.078,9.091-19.214,47.174-45.12,83.03-56.27,6.686-2.054,12.178-4.286,12.178-4.973,0-3.264-8.578-10.978-16.128-14.582-8.573-3.946-18.528-4.8-32.76-2.914h0Z"/>
        <path class="cls-7" d="M704.328,1036.132c10.896-6.053-41.957-5.102-53.131-4.982-7.565,2.28-14.515,5.578-16.838,4.502-2.323-1.08-.456-9.528,1.901-23.885,8.318-6.83,16.934-10.488,26.102-13.162,8.741-3.101,16.454-5.136,26.429-8.318,9.562-1.142,12.658-.706,26.266-3.672-15.96-2.539-27.293-.59-43.166-17.304,6.418-3.859,8.942-8.741,16.656-10.594,7.714-1.651,10.426-1.392,16.762-1.392,12.144,0,15.696,2.222,7.57-3.638-8.131-5.856-23.65-12.504-41.074-15.672-15.312-2.64-38.544-2.722-49.738-3.173,5.136-10.162,14.698-16.099,20.506-22.435,9.504-11.616,31.344-11.352,64.08-6.072,51.744,6.336,54.912,0,22.176-41.184l-20.808-22.901,13.2-5.242,14.414-.389c13.728,3.168,31.21,13.747,41.77,17.971,16.896,7.392,15.984.432,10.704-13.296-4.224-11.616-1.166-11.558-2.803-24.413,8.448,0,30.72,8.448,30.72,3.168,0-6.336-2.918-10.574-4.56-25.147,7.392,0,23.966,1.987,27.614,1.2s-5.074-9.187-13.954-17.146l-22.858-20.486-32.29-21.773,47.904,6c14.789,0,38.179,16.061,50.587,22.526,6.202,3.235,12.091,4.238,15.821,8.146,8.53,3.168-1.723,11.626,4.464,3.84,3.149-5.664-11.453-22.416-9.47-31.166,10.469-19.963,33.936,16.589,39.038,10.68,9.768-1.056-4.781-23.798,2.966-28.411,11.054-6.576,17.347,16.027,23.299,12.029,5.952-3.998,9.806-32.976,19.214-36.61,9.408-3.643,5.573,29.568,11.909,25.08,13.728-9.504,43.44-28.152,67.882-31.536,12.216-1.69,26.453-5.203,38.51-3.034,12.048,2.174,23.424,10.459,26.702,20.582-16.234,4.733-18.797,5.17-35.693,12.562-16.896,6.336-39.072,22.176-49.632,32.736-17.952,20.064-17.952,22.176,2.112,47.52,25.344,34.848,38.016,32.736,51.744-7.392,5.808-15.84,3.998-25.901,6.754-31.296,1.594,1.162,7.373,3.557,10.848,8.995,3.048,4.752,5.76,25.776,5.731,31.267,2.544-1.546,4.915-8.448,7.296-19.526,6.346,12.24,8.16,16.267,10.272,22.075s.288,21.221,6.624,21.221c3.696,0,8.179-7.138,16.046-14.088,6.797,12.758,5.827,28.704,3.115,40.79,5.318-1.738,16.229-5.453,21.528-5.952,1.651,6.365,1.546,14.016.259,19.805-3.854,8.28-5.05,15.413-13.498,21.749-12.672,10.56-12.672,16.896,0,41.184,8.448,15.84,14.784,33.792,14.784,41.184,0,6.336,19.008,27.456,43.296,47.52,29.568,25.344,40.128,41.184,35.904,52.8-10.56,25.344-43.296,32.736-72.864,16.896-13.728-7.392-44.352-24.288-68.64-38.016-16.368-8.976-27.144-18.763-37.128-25.037-16.042-.216-28.267,1.258-42.072,8.141-21.12,3.168-38.016,1.056-42.24-5.28s-21.12-11.616-36.96-11.616c-42.24,0-69.893-27.936-71.549-68.837-.634-17.779,1.766-29.006,7.666-49.022-23.314,36.816-24.682,53.794-16.31,86.275,10.085,45.341,56.962,103.392,160.45,104.448,19.536.528,35.904,6.067,54.379,9.768,11.808,6.994,37.003,20.386,31.886,37.176,19.162,5.112,32.314,24.974,32.592,41.275,47.04,14.078,53.27,41.669,53.27,46.949s11.616,21.12,26.4,34.848c14.784,13.728,24.581,35.923,22.762,48.163,16.368,8.448,22.234,20.789,32.189,34.205,8.438,17.131,22.488,38.448,1.762,64.07,21.701,8.045,20.75,69.49,3.422,78.389,12.749,8.76,15.485,30.139,18.202,59.237.12,9.792-3.043,18.557-18.59,26.304,4.142,2.088,7.44,7.824,9.691,15.326,2.256,7.498,3.47,16.766,3.456,25.91-.01,9.144-1.248,18.173-3.912,25.19s-6.734,12.038-12.418,13.166c19.378,12.653,18.912,46.128,2.208,49.574,9.355,17.088,6.418,50.669-5.52,57.264,2.611,34.469-11.04,58.92-18.269,77.136-14.458,36.432-33.499,67.32-57.374,93.259-23.875,25.939-52.584,46.925-86.376,63.557-73.92,35.904-199.584,34.848-271.392-2.112-63.36-32.736-115.104-103.488-125.664-172.128-9.504-61.248,20.064-151.008,58.08-179.52,60.192-44.352,177.408-29.568,194.304,24.288,8.448,27.456-2.112,60.192-22.176,67.584-26.4,9.504-36.96-3.168-22.176-26.4,10.56-17.952,9.504-23.232-7.392-36.96-50.688-36.96-126.72-4.224-144.672,61.248-22.176,84.48,12.672,170.016,83.424,204.864,59.136,29.568,178.464,31.68,220.704,5.28,82.368-51.744,134.112-192.192,108.768-297.792-13.728-58.08-70.752-129.888-144.672-179.52l-46.464-32.736-16.896,43.296c-8.976,22.704-16.896,35.314-14.76,49.656-13.718-8.366-18.672-6.854-28.138-15.773-4.224-9.504-12.014-20.155-23.63-16.987-2.64.792-18.648,10.214-34.584,12.384,5.491-12.83,11.054-13.2,10.402-25.987-8.544,10.896-33.024,12.245-64.762,15.605,24.83-14.213,20.117-16.992,21.965-28.944-9.504,10.752-33.226,17.453-60.658,22.387,14.146-14.779,11.726-19.32,13.114-32.779-13.91,13.69-47.789,21.336-60.355,20.53,11.006-12.806,11.184-12.638,10.968-28.474-12.35,9.696-35.174,8.328-55.589,4.718,12.581-13.474,16.435-28.334,17.155-39.624-16.55,15.384-43.656,12.067-61.368,9.13,13.872-12.302,22.277-19.234,26.587-26.952,5.021-9.706,1.637-12.874-15.259-12.874-11.616,0-19.651,7.45-36.797.883,24.859-9.826,31.608-41.592,37.19-42.235,22.238-2.554-30.936,40.474,16.666,31.416,11.89-1.709,17.299-1.502,26.117-.998-6.178,9.077-7.234,9.451-12.552,16.214-5.976,8.808-7.166,20.29-21.307,27.71,12,.072,21.816,1.166,29.76-5.141s8.035-8.88,24.787-20.938c2.285,12.629,1.157,15.158-.082,23.53-2.141,14.486-4.939,18.298-9.298,29.755,18.192,4.219,29.371-1.522,32.544-9.37,4.752-4.963,11.539-17.597,20.866-20.15,3.787,11.381-.24,11.822-1.632,21.466-3.97,10.843-4.954,18.562-8.352,28.738,18.461-5.251,29.798-11.909,41.482-25.968q20.064-16.896,13.728,5.28c-2.611,14.784-1.978,18.091-7.344,30.85,17.779-3.096,34.272-11.314,43.248-25.57,10.56-15.84,11.616-14.784,7.392,5.28-.595,13.498,1.747,15.682-1.574,28.738,16.138-3.408,27.974-9.73,36.422-23.458,10.56-15.84,11.616-14.784,7.392,5.28-2.64,12.672,2.208,15.283-5.27,28.507,18.235-7.776,18.998-5.803,25.334-15.835,4.224-8.448,11.184,2.832,19.632,18.672,6.864,12.144,12.442,13.075,17.558,13.666,1.253-9.264,5.05-15.442,13.498-35.506,9.504-23.232,15.84-42.24,14.784-44.352-2.112-1.056-28.512-14.784-58.08-30.624-30.624-14.784-55.968-31.68-55.968-38.016,0-5.28-5.28-9.504-12.672-9.504-16.896,0-61.248-42.24-61.248-58.08,0-7.392-9.504-25.344-21.12-39.072-15.84-21.12-33.792-28.512-81.312-33.792-33.595-5.938-61.781-14.784-79.2-24.288-8.717-4.56-9.907-8.414-16.603-11.016-.264,5.544,3.403,22.632,15.547,34.248,6.864,7.392,13.896,8.995,20.141,12.854-5.875,5.981-10.109,17.242-14.861,25.162-10.56,16.896-10.56,22.176,4.224,27.456,13.728,5.28,13.728,8.448,2.112,15.84-4.752,3.696-11.904,6.24-16.915,9.47,7.848,1.944,13.982,2.438,28.958-1.392,19.008-11.506,20.462-8.112,12.245,3.538-6.734,10.162-11.285,21.514-21.077,29.395,11.208.6,16.325-1.411,26.357-5.107,10.56-4.224,19.498-7.056,12.24,9.336-6.893,11.458-3.086-6.163-9.629,8.957-11.275,2.174-36.878-.514-55.603-5.04,16.848-9.24,23.011-16.464,25.123-21.216,3.168-9.504-5.923-8.928-14.371-8.928-3.696,0-15.912,1.474-25.042-8.654,7.584-4.128,19.114-7.867,26.054-16.574-21.648-12.48-9.072-31.402-4.022-40.387,4.176-7.181,4.517-10.982,9.37-18.437-6.662-.48-16.392-13.104-21.144-21.552-10.032-17.952-14.386-35.006-12.931-49.685,14.309,11.04,19.858,14.602,28.771,19.032,15.13,9.043,47.602,20.424,76.291,24.768,28.69,4.334,53.597,3.773,53.597-6.787s11.482-9.682,3.178-18.125c-15.547-15.811-23.914-30.005-28.757-43.992-9.053-10.958-20.482-11.765-35.63-11.923-8.035,4.296-23.712,8.04-30.95,18.494-6.806-3.254-10.315-24.226-6.864-34.21,1.478-4.286,18.965-12.499,28.829-12.845,9.859-.346,15.096,2.462,23.779-1.214-10.224-2.947-15.811-2.774-26.462-8.083-9.47-4.723-18.653-7.526-17.41-13.536,1.536-7.44,53.918-2.366,61.31-2.102,6.072.264-11.453-7.008-24.365-8.64-8.472-3.038-27.36-1.853-46.464-16.032,14.098-9.058,21.523-5.246,33.082-9.514M721.483,1040.49c-4.253,8.957-55.166,6.518-41.006,10.219,0,0,39.326,7.248,52.339,18.418,2.304,9.888-11.424,14.27-11.424,14.27l-49.872-5.314c-.528,6.826,48.48,9.403,46.8,19.661-.552,3.322,2.712,9.586-13.603,7.728-14.851.682-33.072-.83-44.102,4.877-8.016,3.994-8.976,12.878-6.461,20.482,7.253-5.914,18.797-10.781,25.133-12.893,13.526-1.752,23.314,1.027,32.458,4.939s15.499,8.098,23.448,23.741c5.28,13.728,22.176,29.568,38.016,35.904,16.896,5.28,43.891,19.742,55.968,35.904,13.392,17.914,23.376,32.434,55.632,51.062,31.68,28.512,4.32,18.379,17.885,20.462,36.36,5.582,56.371,14.011,62.707,22.459,7.392,8.448,24.288,17.952,38.016,21.12,14.784,4.224,26.4,11.616,26.4,16.896,0,6.336,7.392,10.56,16.896,10.56,23.232,0,126.72,108.768,145.728,152.064,35.904,81.312,42.24,110.88,42.24,190.08-1.056,52.8-7.392,100.32-16.896,122.496-21.12,49.632-111.182,149.357-135.47,149.357-4.296,1.21-2.558.768-7.651,1.594-2.333,3.485-3.667,3.821-11.918,7.675-11.99,5.995-27.36,8.918-46.109,9.456-18.749.533-40.867-1.32-66.36-4.896-25.488-3.571-50.486-8.861-69.106-15.038-18.624-6.178-25.474-9.518-30.874-15.216-1.613-1.704-5.904-3.922-5.184-11.342-3.83,3.494-12.734,2.669-23.376-6.96-8.64-7.824-16.954-11.462-12.624-19.325-11.424-1.195-13.378-6.048-22.378-18.701-5.923-8.328-12.653-15.686-9.773-27.456-7.872,1.56-11.77-9.451-16.277-19.882-3.955-9.144-11.002-21.6-2.232-26.107-10.08.25-8.189-12.077-9.418-20.65-1.224-8.573-3.754-21.888,6.413-24.216-10.416-3.288-5.952-14.045-4.387-23.693,2.198-13.536,3.442-20.856,12.082-22.646-7.723-3.451-3.014-16.147,2.078-33.475,4.08-13.896,13.43-18.96,24.192-16.656-10.291-7.853,8.506-20.664,12.547-24.034,11.222-9.37,23.986-12.845,26.491-6.758-1.08-11.4,38.726-12.403,53.952-10.685,15.23,1.718,28.608,8.582,42.864,20.198,22.176,17.952,23.232,23.232,11.616,42.24-13.728,24.288-3.168,29.568,16.896,9.504,21.12-21.12,14.784-47.52-15.84-71.808-23.232-19.008-39.072-22.176-79.2-19.008-70.752,7.392-99.264,29.568-119.328,95.04-31.68,108.768,11.616,216.48,106.656,262.944,42.24,20.064,67.584,25.344,136.224,25.344,100.32-1.056,162.624-25.344,220.704-89.76,35.904-39.072,76.032-141.144,63.36-160.152-20.611-8.77,0-8.808,6.336-8.808,8.448,0,11.616-43.752-4.109-51.706,31.387.115,14.765-39.106-4.128-46.824,16.915-.403,25.286-16.944,25.79-34.445.499-17.501-6.864-35.957-21.413-40.19-10.968-3.192-.869-6.106,9.427-8.448,12.278-2.794,16.997-4.627,15.485-26.501-1.824-14.333-6.864-38.299-17.256-42.715-10.694-4.546-27.35-5.866-36.638-6.696,11.28-3.638,22.032-5.75,30.734-6.475,19.008-7.92,25.416-46.363,8.328-57.125-17.093-10.766-60.11,10.392-62.371,1.661,8.386-9.178,34.368-11.434,45.907-19.824,14.122-13.886,27.144-27.144,3.912-59.88-11.616-17.952-9.768-22.402-23.218-27.36-17.827-.72-56.064,23.28-85.315,22.344,13.397-11.15,58.963-20.098,73.502-30.643,14.539-10.541,3.504-26.918-11.434-45.648-17.952-15.84-25.344-16.896-48.576-6.336-15.84,6.336-40.91,12.926-68.078,17.472,10.546-10.882,58.574-22.752,69.134-31.2,20.064-14.784,20.064-20.986,1.056-42.106l-28.435-11.693-31.757,16.834c-23.232,10.56-59.184,23.098-59.184,19.93,0-2.112,32.784-16.762,49.68-26.266,17.952-9.504,28.886-23.232,28.886-30.624,0-26.4-24.36-29.904-61.694-3.888-19.008,11.088-66.461,25.56-69.298,20.222-3.514-6.619,31.824-13.099,49.306-21.614,17.357-9.902,49.954-26.141,49.954-34.589-4.286-14.323-23.554-24.547-106.978-34.051-62.304-7.392-95.04-27.456-122.496-72.864-33.792-54.912-27.456-102.432,17.952-145.728l38.016-35.904-22.176,33.792c-41.184,59.136-21.12,129.888,36.96,129.888,13.728,0,33.792,5.28,44.352,12.672,14.784,8.448,27.653,6.624,40.066,2.971l20.184-5.942,6.994-1.512-29.227-19.805c-32.736-15.84-46.464-46.464-28.512-64.416,6.336-6.336,8.448,0,5.28,16.896-4.224,20.064,0,29.568,14.784,34.848,10.56,5.28,31.68,16.896,45.408,27.456,45.408,32.736,106.656,70.752,112.992,70.752,3.168,0-2.112-10.56-13.728-24.288-11.616-12.672-5.28-10.56,13.728,7.392,28.512,25.344,36.96,28.512,50.688,16.896,23.232-19.008,20.064-27.456-20.064-52.8-24.288-13.728-41.184-35.904-49.632-61.248-6.336-21.12-16.896-44.352-21.12-50.688-6.336-7.392-3.168-16.896,6.336-25.344,8.976-7.392,17.952-24.562,16.992-30.845-4.166.782-7.334,1.949-11.712,4.445-5.28,3.168-10.56-1.056-10.56-10.56,0-4.752,3.658-22.752,2.669-27.173-2.496,4.579-10.061,15.029-13.229,16.613-5.28,3.168-11.616,0-11.616-7.392-1.584-15.312-3.552-19.79-4.862-26.995-2.165,3.936-13.104,19.723-18.062,23.51,4.214-11.654.883-49.066-.931-52.546-.307,10.022-5.957,27.84-7.656,34.282-11.213,15.811-13.939,19.267-26.558,23.088-10.694.398-15.85-3.979-30.634-21.403-14.784-17.952-23.827-31.402-24.686-40.56,0-9.504,31.33-47.088,68.429-61.229,15.715-5.712,17.846-7.325,27.49-9.898-2.626-.595-6.48-4.262-17.942-6.403-6-1.118-30.317-1.037-46.008,6.413-14.03,4.502-46.464,18.355-61.248,33.139-8.016,1.349,1.08-25.627-8.28-21.73-9.36,3.888-5.654,31.987-13.555,36.202-11.846,6.317-13.757-14.429-19.037-14.429-5.28.528,4.253,24.614-5.554,30.226-6.418,3.672-28.646-23.616-31.286-19.392-1.949,3.298,17.16,25.862,12.01,29.213-6.365,5.016-5.746,11.731-19.824,6.154-11.539-5.818-62.496-37.81-75.619-36.893,12.178,7.987,21.648,17.698,34.853,29.76,21.12,22.176,27.091,24.941,10.195,27.514-15.696-2.573-19.574-7.315-27.322-2.078-3.874,2.621,3.542,22.608-1.704,25.81-5.246,3.197-23.261-3.835-25.272-1.752-8.05,8.314,6.274,19.459,1.522,31.603-6.336,17.952-9.504,17.952-30.624,3.168-16.896-12.144-38.496-20.832-39.139-16.238-.854,6.038,4.291,8.846,13.795,22.574,30.624,43.296,22.176,51.744-38.016,45.408,0,0-49.018-14.299-63.696,8.112,14.496-2.726,49.243,4.186,58.507,8.208,5.021,2.174,15.888,8.683,25.272,16.142,4.69,3.73,1.978,6.658-.864,14.904-10.987,3.96-22.954,6.379-35.914,5.654,39.192,15.778,35.683,2.736,49.891,10.656-10.205,16.838-18.326,15.59-53.232,20.482-8.65,4.128-17.006,6.082-26.51,8.722-9.768,2.64-15.811,10.219-13.397,11.083,2.41.864,11.99-1.555,22.752-2.621,12.624.163,6.091.053,34.378,2.966,13.224,3.226,19.142,12.936,16.584,18.23h0Z"/>
        <path class="cls-7" d="M1080.802,934.679c0,6.173-3.586,11.174-8.006,11.174s-8.006-5.002-8.006-11.174,3.586-11.17,8.006-11.17c4.31,0,7.848,4.762,8.002,10.776"/>
        <path class="cls-4" d="M1096.891,942.921c-5.069,12.826-19.954,19.258-33.245,14.366-13.296-4.886-19.963-19.248-14.894-32.069,5.069-12.826,19.954-19.258,33.245-14.366,13.277,4.882,19.949,19.21,14.914,32.026"/>
        <path class="cls-4" d="M1003.728,901.348c33.336-17.582,79.397,9.696,79.397,9.696"/>
        <path class="cls-8" d="M753.826,1204.084c-1.19-5.664,1.392-8.477,10.56-14.362,11.318,1.406,30.979,9.456,43.44,20.491,21.226,18.797,24.446,25.805,36.413,41.89-4.882,9.662-8.054,11.75-17.314,20.76-9.398,6.154-14.962,9.888-21.346,12.946-5.098-15.806-11.299-23.616-25.378-41.779-6.581-10.042-26.045-17.688-35.914-25.123,2.131-7.862,6.034-8.482,9.538-14.822h0ZM833.222,1278.633c9.72-6.274,12.298-15.144,19.046-19.21,8.89,3.826,6.576,4.925,21.01,12,15.514,9.811,9.902,7.627,21.869,23.712-4.882,9.662-7.45,14.174-14.885,24.398-8.189,7.363-8.299,12.922-15.893,22.032-14.194-3.682-23.424-9.072-34.464-21.773-7.8-9.437-16.958-9.811-20.765-25.728,10.008-6.653,18.154-9.696,24.082-15.432ZM888.379,1323.484c7.296-9.907,8.664-16.963,14.803-24.058,10.709,1.402,19.31,3.106,31.92,7.152,17.333,3.744,19.603,9.442,28.536,18.864-4.882,9.662-5.63,22.051-9.432,39.547-2.736,12.216-5.266,18.984-10.44,29.914-14.189-6.106-24.629-11.496-36.888-19.354-12.648-7.618-24.835-15.264-30.461-31.181,6.374-11.501,6.034-15.149,11.962-20.88v-.005ZM964.138,1370.759c3.053-13.546,2.602-27.874,9.35-38.606,10.709,1.406,9.005,4.925,21.614,8.976,13.09,5.568,22.027,7.013,29.141,21.283-11.549,10.877-14.112,9.326-17.918,26.822-2.731,12.216,2.616,29.285-2.558,40.219-14.189-6.11-15.538-9.682-27.797-17.534-12.648-7.622-13.92-4.358-21.974-12.398,4.555-13.92,7.243-20.602,10.142-28.762h0ZM1016.261,1390.151c6.082-12.336,8.664-15.144,15.408-21.024,12.528,5.04,18.096,1.891,30.106,12.605,11.27,7.992,34.752,27.624,43.685,37.046-8.515,4.205-16.464,7.114-26.4,20.15-9.936,13.037-7.085,16.56-12.864,31.128-10.555-6.715-15.538-10.286-25.378-16.32-10.219-9.437-14.525-12.24-26.218-20.275,4.56-13.32-.029-32.726,1.661-43.31h0ZM1085.962,1447.127c6.082-12.336,14.726-14.544,21.47-20.424,12.528,5.04,17.491,15.84,29.496,26.554,14.909,16.474,17.174,19.138,24.288,29.165-10.939,5.419-14.04,5.904-23.976,14.698-10.272,9.096-13.142,9.283-20.131,17.184-7.526-8.53-6.451-7.858-16.286-17.534-10.224-9.437-11.496-9.202-25.008-21.485,3.95-13.925,6.034-18.782,10.147-28.157h0ZM1144.147,1505.918c7.296-5.664,14.117-9.691,20.256-13.757,5.866,6.864,11.429,12.202,14.952,19.886,5.818,7.382,6.269,8.832,10.958,18.859-10.944,5.424-9.802,4.085-17.918,8.03-7.891,3.84-11.328,8.074-20.741,14.16-7.522-8.534-2.208-5.438-12.038-15.11-4.766-5.803-7.258-10.416-14.702-17.856,10.613-9.072,12.096-10.296,19.234-14.208v-.005ZM1172.938,1548.647c8.813-4.152,12.605-6.36,19.958-9.514,4.949,9.283,6.274,10.685,9.792,18.37,2.184,6.475,3.845,9.744,7.632,20.376-8.218,2.995-10.714,3.782-16.104,6.211-5.506,2.486-11.328,5.952-17.712,9.614-6.005-11.261-5.842-8.77-9.312-15.413-3.25-6.408-5.438-8.299-11.366-16.944,8.794-6.653,11.486-9.086,17.112-12.701ZM1194.797,1592.361c8.813-4.152,8.746-3.144,16.099-6.298,4.954,9.283,8.419,25.68,11.083,35.726,1.968,11.4,3.629,24.096,4.195,37.944-7.786,1.498-4.57.576-11.386,1.93-6.773,1.344-7.138,1.603-14.381,4.618-2.15-15.115-4.013-23.448-7.93-33.778-2.606-7.262-8.006-23.722-13.939-32.371,7.512-4.08,10.632-4.157,16.258-7.771h0ZM1213.867,1670.572c2.722-.634,5.635-1.114,11.386-1.584,1.094,19.781,1.133,24.61.581,44.299-1.459,20.616-1.728,37.382-5.016,58.301-3.72-1.075-4.574-2.208-11.386-2.573-6.802-.36-6.398-.475-13.426-.034,4.92-19.613,5.088-26.338,6.542-49.699.61-18.192.562-24.072-.902-44.558,5.366-1.723,7.666-2.894,12.221-4.152h0ZM1204.44,1778.572c2.722-.634,9.494.173,15.245-.298-6.192,34.781-11.299,47.755-22.992,69.154-13.891,20.189-27.442,39.101-45.302,58.306-2.208-1.531-3.715-3.552-5.813-5.573-2.026-1.954-3.73-2.544-6.144-4.747,20.352-26.904,23.947-34.91,36.12-59.558,10.032-24.619,11.702-31.358,18.379-58.272,5.366,2.136,5.952,2.246,10.507.989h0ZM1140.581,1905.858c3.48,2.246,1.776,1.454,7.104,4.848-8.338,9.922-14.304,15.61-29.851,31.008-11.746,8.616-15.264,16.133-39.312,25.834-2.861-3.216-2.981-3.643-4.368-5.702-1.344-1.982-1.915-2.491-3.422-6.355,12.206-3.758,26.65-12.274,35.818-21.49,15.178-13.051,18.994-18.931,29.098-31.699,2.338,1.526,3.408,2.088,4.934,3.557ZM1064.669,1965.412c1.91,3.024,1.186,3.898,2.981,7.464-10.906,6.494-13.344,7.046-40.094,12.264-32.88,1.114-46.728.326-62.17-1.752.562-4.114.61-4.493.792-8.381.173-3.677-.302-2.477-.014-6.413,30.744,2.04,40.08-.019,52.243-.802,21.883-2.045,38.376-7.19,43.574-8.51,2.338,4.258,2.074,3.139,2.688,6.125v.005ZM957.312,1975.694c-.658,3.245-.528,2.189-1.517,6.826-25.478-4.43-25.987-3.878-56.813-10.234-23.232-6.605-30.898-11.616-45.264-19.267-1.051-5.074-.758-4.464.394-6.576,1.522-2.784.374-1.896,3.821-3.994,17.083,10.258,35.381,13.267,45.187,16.56,23.376,4.814,34.944,6.096,54.72,8.203-.24,4.469-.288,5.496-.528,8.482h0ZM847.166,1939.91c-3.869,2.928-4.157,4.286-9.019,3.61-7.934-1.104-8.957-3.346-16.579-9.571-3.734-3.053-9.542-8.962-8.386-11.078,1.522-2.784,4.09-11.155,7.464-5.702,2.947,4.771,15.523,12.144,22.973,17.261,5.928,4.07,5.05,4.344,3.547,5.482h0ZM809.026,1913.764c-4.512,1.426-3.379,2.323-7.09-.888-3.01-2.606-5.102-6.994-10.579-13.43-3.125-3.672-9.379-14.256-9.672-16.646-.835-6.859,2.986-11.386,5.962-5.707,5.309,10.128,12.096,20.717,21.475,29.261,5.318,4.843,1.704,6.845-.096,7.411h0ZM781.598,1869.623c-4.512,1.426-4.022,2.323-7.728-.888-3.01-2.606-6.019-9.374-9.514-17.074-2.054-4.531-6.624-11.314-4.958-15.792,1.853-4.973,8.347-8.381,10.032-2.275,3.053,11.021,4.056,11.165,9.264,24.12,2.006,4.992,4.704,11.342,2.904,11.909h0ZM766.81,1822.694c-1.766,3.398-5.021,2.986-10.306.61-4.253-1.91-2.659-8.64-3.293-17.069-.336-4.531-1.267-8.746-.029-14.722,1.075-5.198,10.877-7.08,11.534-.778.48,4.594-.202,7.267.691,15.12,1.44,12.691,2.784,14.189,1.402,16.838h0ZM762.955,1778.337c-1.027,2.87-5.232,1.915-7.728-1.104-2.976-3.595.552-9.926.773-17.074.144-4.541,1.406-9.115,3.83-14.717,1.502-3.485,6.931-3.898,7.032,2.438.048,3.091-.826,7.109-1.666,13.834-.926,7.378-.6,12.048-2.242,16.622h0ZM770.453,1733.553c-1.027,2.87-5.606.149-6.446-3.677-1.262-5.736,2.722-12.058,4.416-18.998,1.43-5.827,4.056-12.758,8.76-16.651,3.432-2.832,9.638-4.402,8.318,1.8-1.022,4.8-7.896,13.968-10.238,21.758-2.141,7.123-3.168,11.189-4.81,15.768ZM798.523,1682.337c-3.043.12-6.576.974-5.587-2.818.878-3.379,4.162-5.05,10.416-9.998,3.202-2.534,8.822-7.162,11.971-8.722,3.634-1.8,10.762-4.051,8.323,1.795-1.022,2.448-4.258,3.466-10.027,7.402-6.144,4.195-13.027,12.264-15.096,12.341h0Z"/>
      </g>
      <g id="a-2" data-name="a">
        <path class="cls-8" d="M2541.274,695.207c24.36,3.427,42.72,10.118,67.248,24.874,7.891,4.8,15.264,8.232,16.637,7.718s2.918-4.632,3.605-9.605c.686-4.632,2.232-9.95,3.432-11.496,3.432-4.8,6.691-.859,13.037,15.264,2.914,7.728,6.173,15.101,7.032,16.128,3.086,3.773,7.205,2.4,12.182-3.773,4.973-6.346,12.518-8.232,14.237-3.6.514,1.368.173,6.859-.859,12.35-3.086,16.128,1.886,18.528,15.955,7.718,12.178-9.437,16.81-11.323,21.442-8.923,4.8,2.578,4.632,6.178-1.546,20.414-5.314,12.355-5.659,21.274-.514,14.064,1.373-1.882,7.723-6.173,14.242-9.259,6.518-3.259,16.637-8.578,22.642-12.01,6-3.259,14.237-7.2,18.355-8.746,7.55-2.573,48.374-8.578,51.806-7.378,1.027.341-4.632,4.973-12.35,10.464-16.982,11.664-49.579,41.515-49.579,45.288,0,2.232,1.891,2.573,13.728,1.546,15.61-1.373,15.264-1.891,11.837,14.41-1.2,5.659-1.373,9.432-.346,10.464s6.346.686,14.41-1.032c7.032-1.373,13.21-2.573,13.896-2.573,2.573,0,1.373,13.55-2.232,25.046-3.432,10.805-3.432,11.837-.686,13.723,3.432,2.573,7.378,1.373,33.456-10.637,15.437-7.2,19.382-8.405,27.787-8.064,5.318.173,11.664,1.373,14.237,2.746l4.8,2.4-11.146,12.01c-13.21,14.41-26.592,33.624-28.646,41.342-3.778,12.864,8.918,15.096,51.634,9.61,23.328-3.091,39.11-2.573,46.829,1.541,6.005,3.091,26.592,22.301,26.592,24.874,0,.864-9.95,2.064-22.128,2.573-25.56,1.032-44.088,5.491-59.357,13.896-14.41,7.891-14.064,9.61,1.546,9.61,13.037,0,20.582,2.054,27.446,7.546,3.259,2.573,3.259,2.746,0,6.346-4.973,5.491-14.582,9.782-26.419,11.664-6,1.032-11.15,2.064-11.491,2.578-.346.341,4.973,1.541,11.837,2.573,17.837,2.914,42.883,10.291,55.066,16.464,10.978,5.491,11.491,6.178,13.723,22.128l1.027,6.523-5.486-1.2c-8.578-1.886-52.838-2.918-60.043-1.373-10.978,2.4-7.891,4.8,9.091,6.864,21.274,2.573,33.283,4.973,38.942,7.886l4.464,2.4-9.264,4.464c-5.15,2.573-16.987,6.178-26.419,8.064-40.142,8.232-45.12,12.864-11.496,11.15,27.619-1.373,38.597-.346,37.738,3.946-.854,4.8-17.837,13.037-35.506,17.496-10.81,2.746-6.691,4.8,10.978,5.491,15.955.514,27.96,4.632,32.938,11.318,3.946,4.978,1.541,27.619-3.091,30.538-1.027.514-3.086-.173-4.632-1.546-1.541-1.546-8.573-5.318-15.61-8.75-13.21-6.346-13.378-6.346-32.251-3.427-8.064,1.2-15.096,7.891-21.096,20.242-2.918,5.832-8.923,15.096-13.382,20.582s-9.605,11.837-11.323,14.069c-3.259,3.946-3.259,4.118.346,11.323,1.886,4.114,3.946,8.746,4.459,10.291,3.086,10.637,55.584,7.032,96.922-6.691,16.469-5.486,40.829-17.496,51.806-25.56l8.405-6.173v6.686c0,16.469-12.864,44.434-25.728,55.925l-8.237,7.378,8.405,16.128c10.464,20.064,11.15,27.787,3.091,35.851-2.918,3.086-4.978,6.518-4.291,7.891.514,1.368,4.978,4.8,9.95,7.546,15.437,8.75,14.75,7.891,8.405,11.15-3.086,1.714-11.491,3.432-18.355,3.946-7.546.686-13.55,1.886-14.582,3.264-4.286,5.141,4.632,16.464,20.074,25.728,2.573,1.541.686,2.227-10.464,3.946-7.55,1.027-18.528,2.059-24.36,2.227l-10.637.346,3.6,6.518c4.291,7.718,12.355,16.128,19.046,20.242l4.8,3.086-5.318.686c-2.914.518-8.918.173-13.378-.514-12.864-2.059-28.478-1.714-31.91.686-5.314,3.946-.854,12.864,12.528,25.728l11.664,11.328-7.55,1.2c-14.237,2.059-32.251-.173-41.856-5.146-4.978-2.4-9.264-4.291-9.61-3.946-2.4,2.573,6.864,27.446,12.864,34.306,1.378,1.546,2.064,3.432,1.378,4.291-.686.686-9.95,1.2-20.414,1.2-14.928,0-20.587-.686-25.046-3.086-3.259-1.546-6.173-2.918-6.518-2.918-.173,0-.514,3.6-.514,8.064,0,5.832,1.2,9.432,4.459,13.723l4.286,5.664h-4.8c-11.15-.178-37.57-8.75-47.006-15.614-6.173-4.286-6.686-4.118-6.686,2.232.168,7.2,3.946,17.664,7.891,22.128,3.6,4.118,2.741,4.118-14.064-.173-15.101-3.773-28.478-9.091-35.342-13.896-6.346-4.632-7.032-4.114-5.664,3.091,1.546,8.578,4.805,13.55,11.328,16.982,2.914,1.373,4.973,3.086,4.459,3.427-1.373,1.546-37.57-4.114-45.806-7.032-4.114-1.373-8.918-3.946-10.632-5.486-2.918-2.578-3.091-2.578-3.091,1.541,0,2.4,1.886,7.891,4.291,12.35s4.286,8.41,4.286,8.923c0,1.373-9.432-1.546-20.414-6.35-6-2.741-13.037-4.973-15.61-4.973-5.832,0-12.691,5.318-18.01,13.728-2.918,4.627-7.378,8.059-15.955,12.346l-12.01,6.005-.686-7.032c-.854-6.346-29.16-80.798-31.906-83.712-1.2-1.2-35.683,22.469-68.962,47.174-20.069,14.923-66.216,60.725-79.766,79.248-37.224,50.784-49.406,85.776-49.579,142.387,0,31.219,2.064,47.856,9.264,77.88,15.782,64.157,52.493,125.227,94.176,156.106,27.451,20.414,59.87,27.274,120.254,25.387,73.08-2.232,118.709-17.496,152.506-50.606,25.046-24.701,41.51-56.952,48.374-94.69,1.027-6.178,1.886-21.274,1.886-33.456,0-41.856-9.437-70.848-30.019-92.976-17.842-19.042-36.883-29.506-61.243-33.278-23.155-3.6-49.574,4.118-65.87,19.042-11.323,10.464-11.837,15.442-2.918,33.278,7.891,15.955,8.578,20.074,3.6,25.046-4.627,4.632-14.237,4.464-25.214-.859-15.955-7.373-23.846-25.387-22.474-50.434,1.373-22.469,11.837-37.056,35.51-49.056,22.992-11.496,34.656-13.728,70.507-13.555,29.674,0,32.765.341,47.174,4.8,28.819,8.75,46.32,20.414,59.866,39.288,30.878,43.57,47.861,118.368,37.915,166.738-7.723,36.883-28.306,76.853-56.952,109.79-48.379,55.92-112.536,81.485-204.653,81.485-68.275,0-116.654-13.037-164.688-44.256-53.52-34.656-88.171-79.598-117.504-152.16-7.891-19.901-10.978-32.256-12.35-49.406-.514-8.41-1.886-15.269-3.432-16.987-6.864-7.891-9.264-30.36-4.973-44.942l2.573-8.232-5.318-4.632c-9.437-8.41-8.405-26.592,2.227-38.77l4.978-5.664-5.664-5.659c-7.373-7.546-10.632-21.787-9.264-40.656.864-13.037,6.691-31.219,9.95-31.219,3.432,0,1.2-4.632-3.773-7.55-7.718-4.632-11.837-12.35-11.837-22.642,0-20.76,8.578-52.666,14.928-55.066,2.573-1.032,3.086-5.664.682-5.664-3.946,0-9.264-16.128-10.118-30.706-1.032-18.355,2.573-32.419,10.118-39.97l4.978-5.146-5.318-10.978c-4.632-9.437-5.318-12.182-4.464-20.074,1.891-18.182,21.96-51.806,37.056-61.757,5.491-3.6,7.032-5.659,7.032-9.6,0-11.496,9.437-28.483,25.219-45.466,16.464-17.496,21.787-25.387,25.219-37.738,2.4-7.891,4.973-12.01,12.178-19.214,8.405-8.4,26.246-19.042,36.883-21.787,2.227-.514,3.432-2.227,3.432-4.973.168-10.978,13.723-29.333,25.728-34.824,6.005-2.746,6.864-3.773,6.864-8.746,0-7.037,5.832-14.069,19.555-23.506,13.037-8.746,33.624-14.064,65.357-16.81,66.734-5.491,96.408-16.642,127.8-47.861,19.042-18.869,26.419-31.565,33.283-56.611,5.659-20.755,6-40.138.854-55.234-3.6-10.637-15.096-32.256-17.15-32.256-.686,0,.341,5.664,2.227,12.355,4.464,16.296,4.978,43.056.859,56.093-5.664,18.187-16.814,31.738-32.424,39.802-10.637,5.486-15.782,6.686-33.965,8.4-18.869,1.718-31.565,5.491-37.738,11.155-9.264,8.578-30.024,9.605-49.92,2.746-5.146-1.886-14.755-3.946-21.446-4.464l-12.35-1.2-15.95,11.15c-16.469,11.323-87.662,51.466-100.186,56.438-22.814,9.091-48.547,2.746-59.352-14.582-8.75-13.891-.859-26.928,36.365-60.552,30.192-27.106,37.397-36.37,41.342-52.152,1.718-6.686,7.205-21.269,12.528-32.251,12.518-26.928,12.691-31.56.854-43.915-4.632-4.973-9.778-11.832-11.15-15.437-2.746-6.346-3.946-20.755-2.059-22.814,1.032-.859,12.523,1.541,18.528,3.773,1.886.686,2.227-1.886,1.714-13.723-.341-9.264.346-16.642,1.546-19.901l2.227-5.146,6.178,6.005c6.346,6.178,10.978,7.718,13.037,4.464.514-.864,1.718-5.837,2.573-10.982,1.718-10.81,8.578-27.619,10.296-25.56.686.686,2.227,4.286,3.427,7.718,1.032,3.6,2.573,6.518,3.432,6.518.686,0,1.886-4.118,2.573-9.091,1.886-14.75,3.946-20.928,8.578-25.214,3.773-3.605,4.8-3.778,6.005-1.718.859,1.373,1.714,4.464,1.714,6.864,0,7.546,4.805,22.814,11.15,35.678,12.355,24.706,24.019,22.301,48.034-9.432,13.728-18.187,15.782-23.846,12.01-32.078-9.091-19.214-47.174-45.12-83.03-56.27-6.686-2.054-12.178-4.286-12.178-4.973,0-3.264,8.578-10.978,16.128-14.582,8.573-3.946,18.528-4.8,32.76-2.914h0Z"/>
        <path class="cls-7" d="M2895.672,1036.132c-10.896-6.053,41.957-5.102,53.131-4.982,7.565,2.28,14.515,5.578,16.838,4.502,2.323-1.08.456-9.528-1.901-23.885-8.318-6.83-16.934-10.488-26.102-13.162-8.741-3.101-16.454-5.136-26.429-8.318-9.562-1.142-12.658-.706-26.266-3.672,15.96-2.539,27.293-.59,43.166-17.304-6.418-3.859-8.942-8.741-16.656-10.594-7.714-1.651-10.426-1.392-16.762-1.392-12.144,0-15.696,2.222-7.57-3.638,8.131-5.856,23.65-12.504,41.074-15.672,15.312-2.64,38.544-2.722,49.738-3.173-5.136-10.162-14.698-16.099-20.506-22.435-9.504-11.616-31.344-11.352-64.08-6.072-51.744,6.336-54.912,0-22.176-41.184l20.808-22.901-13.2-5.242-14.414-.389c-13.728,3.168-31.21,13.747-41.77,17.971-16.896,7.392-15.984.432-10.704-13.296,4.224-11.616,1.166-11.558,2.803-24.413-8.448,0-30.72,8.448-30.72,3.168,0-6.336,2.918-10.574,4.56-25.147-7.392,0-23.966,1.987-27.614,1.2s5.074-9.187,13.954-17.146l22.858-20.486,32.29-21.773-47.904,6c-14.789,0-38.179,16.061-50.587,22.526-6.202,3.235-12.091,4.238-15.821,8.146-8.53,3.168,1.723,11.626-4.464,3.84-3.149-5.664,11.453-22.416,9.47-31.166-10.469-19.963-33.936,16.589-39.038,10.68-9.768-1.056,4.781-23.798-2.966-28.411-11.054-6.576-17.347,16.027-23.299,12.029-5.952-3.998-9.806-32.976-19.214-36.61-9.408-3.643-5.573,29.568-11.909,25.08-13.728-9.504-43.44-28.152-67.882-31.536-12.216-1.69-26.453-5.203-38.51-3.034-12.048,2.174-23.424,10.459-26.702,20.582,16.234,4.733,18.797,5.17,35.693,12.562,16.896,6.336,39.072,22.176,49.632,32.736,17.952,20.064,17.952,22.176-2.112,47.52-25.344,34.848-38.016,32.736-51.744-7.392-5.808-15.84-3.998-25.901-6.754-31.296-1.594,1.162-7.373,3.557-10.848,8.995-3.048,4.752-5.76,25.776-5.731,31.267-2.544-1.546-4.915-8.448-7.296-19.526-6.346,12.24-8.16,16.267-10.272,22.075-2.112,5.808-.288,21.221-6.624,21.221-3.696,0-8.179-7.138-16.046-14.088-6.797,12.758-5.827,28.704-3.115,40.79-5.318-1.738-16.229-5.453-21.528-5.952-1.651,6.365-1.546,14.016-.259,19.805,3.854,8.28,5.05,15.413,13.498,21.749,12.672,10.56,12.672,16.896,0,41.184-8.448,15.84-14.784,33.792-14.784,41.184,0,6.336-19.008,27.456-43.296,47.52-29.568,25.344-40.128,41.184-35.904,52.8,10.56,25.344,43.296,32.736,72.864,16.896,13.728-7.392,44.352-24.288,68.64-38.016,16.368-8.976,27.144-18.763,37.128-25.037,16.042-.216,28.267,1.258,42.072,8.141,21.12,3.168,38.016,1.056,42.24-5.28,4.224-6.336,21.12-11.616,36.96-11.616,42.24,0,69.893-27.936,71.549-68.837.634-17.779-1.766-29.006-7.666-49.022,23.314,36.816,24.682,53.794,16.31,86.275-10.085,45.341-56.962,103.392-160.45,104.448-19.536.528-35.904,6.067-54.379,9.768-11.808,6.994-37.003,20.386-31.886,37.176-19.162,5.112-32.314,24.974-32.592,41.275-47.04,14.078-53.27,41.669-53.27,46.949s-11.616,21.12-26.4,34.848c-14.784,13.728-24.581,35.923-22.762,48.163-16.368,8.448-22.234,20.789-32.189,34.205-8.438,17.131-22.488,38.448-1.762,64.07-21.701,8.045-20.75,69.49-3.422,78.389-12.749,8.76-15.485,30.139-18.202,59.237-.12,9.792,3.043,18.557,18.59,26.304-4.142,2.088-7.44,7.824-9.691,15.326-2.256,7.498-3.47,16.766-3.456,25.91.01,9.144,1.248,18.173,3.912,25.19s6.734,12.038,12.418,13.166c-19.378,12.653-18.912,46.128-2.208,49.574-9.355,17.088-6.418,50.669,5.52,57.264-2.611,34.469,11.04,58.92,18.269,77.136,14.458,36.432,33.499,67.32,57.374,93.259,23.875,25.939,52.584,46.925,86.376,63.557,73.92,35.904,199.584,34.848,271.392-2.112,63.36-32.736,115.104-103.488,125.664-172.128,9.504-61.248-20.064-151.008-58.08-179.52-60.192-44.352-177.408-29.568-194.304,24.288-8.448,27.456,2.112,60.192,22.176,67.584,26.4,9.504,36.96-3.168,22.176-26.4-10.56-17.952-9.504-23.232,7.392-36.96,50.688-36.96,126.72-4.224,144.672,61.248,22.176,84.48-12.672,170.016-83.424,204.864-59.136,29.568-178.464,31.68-220.704,5.28-82.368-51.744-134.112-192.192-108.768-297.792,13.728-58.08,70.752-129.888,144.672-179.52l46.464-32.736,16.896,43.296c8.976,22.704,16.896,35.314,14.76,49.656,13.718-8.366,18.672-6.854,28.138-15.773,4.224-9.504,12.014-20.155,23.63-16.987,2.64.792,18.648,10.214,34.584,12.384-5.491-12.83-11.054-13.2-10.402-25.987,8.544,10.896,33.024,12.245,64.762,15.605-24.83-14.213-20.117-16.992-21.965-28.944,9.504,10.752,33.226,17.453,60.658,22.387-14.146-14.779-11.726-19.32-13.114-32.779,13.91,13.69,47.789,21.336,60.355,20.53-11.006-12.806-11.184-12.638-10.968-28.474,12.35,9.696,35.174,8.328,55.589,4.718-12.581-13.474-16.435-28.334-17.155-39.624,16.55,15.384,43.656,12.067,61.368,9.13-13.872-12.302-22.277-19.234-26.587-26.952-5.021-9.706-1.637-12.874,15.259-12.874,11.616,0,19.651,7.45,36.797.883-24.859-9.826-31.608-41.592-37.19-42.235-22.238-2.554,30.936,40.474-16.666,31.416-11.89-1.709-17.299-1.502-26.117-.998,6.178,9.077,7.234,9.451,12.552,16.214,5.976,8.808,7.166,20.29,21.307,27.71-12,.072-21.816,1.166-29.76-5.141-7.944-6.307-8.035-8.88-24.787-20.938-2.285,12.629-1.157,15.158.082,23.53,2.141,14.486,4.939,18.298,9.298,29.755-18.192,4.219-29.371-1.522-32.544-9.37-4.752-4.963-11.539-17.597-20.866-20.15-3.787,11.381.24,11.822,1.632,21.466,3.97,10.843,4.954,18.562,8.352,28.738-18.461-5.251-29.798-11.909-41.482-25.968q-20.064-16.896-13.728,5.28c2.611,14.784,1.978,18.091,7.344,30.85-17.779-3.096-34.272-11.314-43.248-25.57-10.56-15.84-11.616-14.784-7.392,5.28.595,13.498-1.747,15.682,1.574,28.738-16.138-3.408-27.974-9.73-36.422-23.458-10.56-15.84-11.616-14.784-7.392,5.28,2.64,12.672-2.208,15.283,5.27,28.507-18.235-7.776-18.998-5.803-25.334-15.835-4.224-8.448-11.184,2.832-19.632,18.672-6.864,12.144-12.442,13.075-17.558,13.666-1.253-9.264-5.05-15.442-13.498-35.506-9.504-23.232-15.84-42.24-14.784-44.352,2.112-1.056,28.512-14.784,58.08-30.624,30.624-14.784,55.968-31.68,55.968-38.016,0-5.28,5.28-9.504,12.672-9.504,16.896,0,61.248-42.24,61.248-58.08,0-7.392,9.504-25.344,21.12-39.072,15.84-21.12,33.792-28.512,81.312-33.792,33.595-5.938,61.781-14.784,79.2-24.288,8.717-4.56,9.907-8.414,16.603-11.016.264,5.544-3.403,22.632-15.547,34.248-6.864,7.392-13.896,8.995-20.141,12.854,5.875,5.981,10.109,17.242,14.861,25.162,10.56,16.896,10.56,22.176-4.224,27.456-13.728,5.28-13.728,8.448-2.112,15.84,4.752,3.696,11.904,6.24,16.915,9.47-7.848,1.944-13.982,2.438-28.958-1.392-19.008-11.506-20.462-8.112-12.245,3.538,6.734,10.162,11.285,21.514,21.077,29.395-11.208.6-16.325-1.411-26.357-5.107-10.56-4.224-19.498-7.056-12.24,9.336,6.893,11.458,3.086-6.163,9.629,8.957,11.275,2.174,36.878-.514,55.603-5.04-16.848-9.24-23.011-16.464-25.123-21.216-3.168-9.504,5.923-8.928,14.371-8.928,3.696,0,15.912,1.474,25.042-8.654-7.584-4.128-19.114-7.867-26.054-16.574,21.648-12.48,9.072-31.402,4.022-40.387-4.176-7.181-4.517-10.982-9.37-18.437,6.662-.48,16.392-13.104,21.144-21.552,10.032-17.952,14.386-35.006,12.931-49.685-14.309,11.04-19.858,14.602-28.771,19.032-15.13,9.043-47.602,20.424-76.291,24.768-28.69,4.334-53.597,3.773-53.597-6.787s-11.482-9.682-3.178-18.125c15.547-15.811,23.914-30.005,28.757-43.992,9.053-10.958,20.482-11.765,35.63-11.923,8.035,4.296,23.712,8.04,30.95,18.494,6.806-3.254,10.315-24.226,6.864-34.21-1.478-4.286-18.965-12.499-28.829-12.845-9.859-.346-15.096,2.462-23.779-1.214,10.224-2.947,15.811-2.774,26.462-8.083,9.47-4.723,18.653-7.526,17.41-13.536-1.536-7.44-53.918-2.366-61.31-2.102-6.072.264,11.453-7.008,24.365-8.64,8.472-3.038,27.36-1.853,46.464-16.032-14.098-9.058-21.523-5.246-33.082-9.514M2878.517,1040.49c4.253,8.957,55.166,6.518,41.006,10.219,0,0-39.326,7.248-52.339,18.418-2.304,9.888,11.424,14.27,11.424,14.27l49.872-5.314c.528,6.826-48.48,9.403-46.8,19.661.552,3.322-2.712,9.586,13.603,7.728,14.851.682,33.072-.83,44.102,4.877,8.016,3.994,8.976,12.878,6.461,20.482-7.253-5.914-18.797-10.781-25.133-12.893-13.526-1.752-23.314,1.027-32.458,4.939s-15.499,8.098-23.448,23.741c-5.28,13.728-22.176,29.568-38.016,35.904-16.896,5.28-43.891,19.742-55.968,35.904-13.392,17.914-23.376,32.434-55.632,51.062-31.68,28.512-4.32,18.379-17.885,20.462-36.36,5.582-56.371,14.011-62.707,22.459-7.392,8.448-24.288,17.952-38.016,21.12-14.784,4.224-26.4,11.616-26.4,16.896,0,6.336-7.392,10.56-16.896,10.56-23.232,0-126.72,108.768-145.728,152.064-35.904,81.312-42.24,110.88-42.24,190.08,1.056,52.8,7.392,100.32,16.896,122.496,21.12,49.632,111.182,149.357,135.47,149.357,4.296,1.21,2.558.768,7.651,1.594,2.333,3.485,3.667,3.821,11.918,7.675,11.99,5.995,27.36,8.918,46.109,9.456,18.749.533,40.867-1.32,66.36-4.896,25.488-3.571,50.486-8.861,69.106-15.038,18.624-6.178,25.474-9.518,30.874-15.216,1.613-1.704,5.904-3.922,5.184-11.342,3.83,3.494,12.734,2.669,23.376-6.96,8.64-7.824,16.954-11.462,12.624-19.325,11.424-1.195,13.378-6.048,22.378-18.701,5.923-8.328,12.653-15.686,9.773-27.456,7.872,1.56,11.77-9.451,16.277-19.882,3.955-9.144,11.002-21.6,2.232-26.107,10.08.25,8.189-12.077,9.418-20.65,1.224-8.573,3.754-21.888-6.413-24.216,10.416-3.288,5.952-14.045,4.387-23.693-2.198-13.536-3.442-20.856-12.082-22.646,7.723-3.451,3.014-16.147-2.078-33.475-4.08-13.896-13.43-18.96-24.192-16.656,10.291-7.853-8.506-20.664-12.547-24.034-11.222-9.37-23.986-12.845-26.491-6.758,1.08-11.4-38.726-12.403-53.952-10.685-15.23,1.718-28.608,8.582-42.864,20.198-22.176,17.952-23.232,23.232-11.616,42.24,13.728,24.288,3.168,29.568-16.896,9.504-21.12-21.12-14.784-47.52,15.84-71.808,23.232-19.008,39.072-22.176,79.2-19.008,70.752,7.392,99.264,29.568,119.328,95.04,31.68,108.768-11.616,216.48-106.656,262.944-42.24,20.064-67.584,25.344-136.224,25.344-100.32-1.056-162.624-25.344-220.704-89.76-35.904-39.072-76.032-141.144-63.36-160.152,20.611-8.77,0-8.808-6.336-8.808-8.448,0-11.616-43.752,4.109-51.706-31.387.115-14.765-39.106,4.128-46.824-16.915-.403-25.286-16.944-25.79-34.445-.499-17.501,6.864-35.957,21.413-40.19,10.968-3.192.869-6.106-9.427-8.448-12.278-2.794-16.997-4.627-15.485-26.501,1.824-14.333,6.864-38.299,17.256-42.715,10.694-4.546,27.35-5.866,36.638-6.696-11.28-3.638-22.032-5.75-30.734-6.475-19.008-7.92-25.416-46.363-8.328-57.125,17.093-10.766,60.11,10.392,62.371,1.661-8.386-9.178-34.368-11.434-45.907-19.824-14.122-13.886-27.144-27.144-3.912-59.88,11.616-17.952,9.768-22.402,23.218-27.36,17.827-.72,56.064,23.28,85.315,22.344-13.397-11.15-58.963-20.098-73.502-30.643-14.539-10.541-3.504-26.918,11.434-45.648,17.952-15.84,25.344-16.896,48.576-6.336,15.84,6.336,40.91,12.926,68.078,17.472-10.546-10.882-58.574-22.752-69.134-31.2-20.064-14.784-20.064-20.986-1.056-42.106l28.435-11.693,31.757,16.834c23.232,10.56,59.184,23.098,59.184,19.93,0-2.112-32.784-16.762-49.68-26.266-17.952-9.504-28.886-23.232-28.886-30.624,0-26.4,24.36-29.904,61.694-3.888,19.008,11.088,66.461,25.56,69.298,20.222,3.514-6.619-31.824-13.099-49.306-21.614-17.357-9.902-49.954-26.141-49.954-34.589,4.286-14.323,23.554-24.547,106.978-34.051,62.304-7.392,95.04-27.456,122.496-72.864,33.792-54.912,27.456-102.432-17.952-145.728l-38.016-35.904,22.176,33.792c41.184,59.136,21.12,129.888-36.96,129.888-13.728,0-33.792,5.28-44.352,12.672-14.784,8.448-27.653,6.624-40.066,2.971l-20.184-5.942-6.994-1.512,29.227-19.805c32.736-15.84,46.464-46.464,28.512-64.416-6.336-6.336-8.448,0-5.28,16.896,4.224,20.064,0,29.568-14.784,34.848-10.56,5.28-31.68,16.896-45.408,27.456-45.408,32.736-106.656,70.752-112.992,70.752-3.168,0,2.112-10.56,13.728-24.288,11.616-12.672,5.28-10.56-13.728,7.392-28.512,25.344-36.96,28.512-50.688,16.896-23.232-19.008-20.064-27.456,20.064-52.8,24.288-13.728,41.184-35.904,49.632-61.248,6.336-21.12,16.896-44.352,21.12-50.688,6.336-7.392,3.168-16.896-6.336-25.344-8.976-7.392-17.952-24.562-16.992-30.845,4.166.782,7.334,1.949,11.712,4.445,5.28,3.168,10.56-1.056,10.56-10.56,0-4.752-3.658-22.752-2.669-27.173,2.496,4.579,10.061,15.029,13.229,16.613,5.28,3.168,11.616,0,11.616-7.392,1.584-15.312,3.552-19.79,4.862-26.995,2.165,3.936,13.104,19.723,18.062,23.51-4.214-11.654-.883-49.066.931-52.546.307,10.022,5.957,27.84,7.656,34.282,11.213,15.811,13.939,19.267,26.558,23.088,10.694.398,15.85-3.979,30.634-21.403,14.784-17.952,23.827-31.402,24.686-40.56,0-9.504-31.33-47.088-68.429-61.229-15.715-5.712-17.846-7.325-27.49-9.898,2.626-.595,6.48-4.262,17.942-6.403,6-1.118,30.317-1.037,46.008,6.413,14.03,4.502,46.464,18.355,61.248,33.139,8.016,1.349-1.08-25.627,8.28-21.73,9.36,3.888,5.654,31.987,13.555,36.202,11.846,6.317,13.757-14.429,19.037-14.429,5.28.528-4.253,24.614,5.554,30.226,6.418,3.672,28.646-23.616,31.286-19.392,1.949,3.298-17.16,25.862-12.01,29.213,6.365,5.016,5.746,11.731,19.824,6.154,11.539-5.818,62.496-37.81,75.619-36.893-12.178,7.987-21.648,17.698-34.853,29.76-21.12,22.176-27.091,24.941-10.195,27.514,15.696-2.573,19.574-7.315,27.322-2.078,3.874,2.621-3.542,22.608,1.704,25.81,5.246,3.197,23.261-3.835,25.272-1.752,8.05,8.314-6.274,19.459-1.522,31.603,6.336,17.952,9.504,17.952,30.624,3.168,16.896-12.144,38.496-20.832,39.139-16.238.854,6.038-4.291,8.846-13.795,22.574-30.624,43.296-22.176,51.744,38.016,45.408,0,0,49.018-14.299,63.696,8.112-14.496-2.726-49.243,4.186-58.507,8.208-5.021,2.174-15.888,8.683-25.272,16.142-4.69,3.73-1.978,6.658.864,14.904,10.987,3.96,22.954,6.379,35.914,5.654-39.192,15.778-35.683,2.736-49.891,10.656,10.205,16.838,18.326,15.59,53.232,20.482,8.65,4.128,17.006,6.082,26.51,8.722,9.768,2.64,15.811,10.219,13.397,11.083-2.41.864-11.99-1.555-22.752-2.621-12.624.163-6.091.053-34.378,2.966-13.224,3.226-19.142,12.936-16.584,18.23h0Z"/>
        <path class="cls-7" d="M2519.198,934.679c0,6.173,3.586,11.174,8.006,11.174s8.006-5.002,8.006-11.174-3.586-11.17-8.006-11.17c-4.31,0-7.848,4.762-8.002,10.776"/>
        <path class="cls-4" d="M2503.109,942.921c5.069,12.826,19.954,19.258,33.245,14.366,13.296-4.886,19.963-19.248,14.894-32.069-5.069-12.826-19.954-19.258-33.245-14.366-13.277,4.882-19.949,19.21-14.914,32.026"/>
        <path class="cls-4" d="M2596.272,901.348c-33.336-17.582-79.397,9.696-79.397,9.696"/>
        <path class="cls-8" d="M2846.174,1204.084c1.19-5.664-1.392-8.477-10.56-14.362-11.318,1.406-30.979,9.456-43.44,20.491-21.226,18.797-24.446,25.805-36.413,41.89,4.882,9.662,8.054,11.75,17.314,20.76,9.398,6.154,14.962,9.888,21.346,12.946,5.098-15.806,11.299-23.616,25.378-41.779,6.581-10.042,26.045-17.688,35.914-25.123-2.131-7.862-6.034-8.482-9.538-14.822h0ZM2766.778,1278.633c-9.72-6.274-12.298-15.144-19.046-19.21-8.89,3.826-6.576,4.925-21.01,12-15.514,9.811-9.902,7.627-21.869,23.712,4.882,9.662,7.45,14.174,14.885,24.398,8.189,7.363,8.299,12.922,15.893,22.032,14.194-3.682,23.424-9.072,34.464-21.773,7.8-9.437,16.958-9.811,20.765-25.728-10.008-6.653-18.154-9.696-24.082-15.432ZM2711.621,1323.484c-7.296-9.907-8.664-16.963-14.803-24.058-10.709,1.402-19.31,3.106-31.92,7.152-17.333,3.744-19.603,9.442-28.536,18.864,4.882,9.662,5.63,22.051,9.432,39.547,2.736,12.216,5.266,18.984,10.44,29.914,14.189-6.106,24.629-11.496,36.888-19.354,12.648-7.618,24.835-15.264,30.461-31.181-6.374-11.501-6.034-15.149-11.962-20.88v-.005ZM2635.862,1370.759c-3.053-13.546-2.602-27.874-9.35-38.606-10.709,1.406-9.005,4.925-21.614,8.976-13.09,5.568-22.027,7.013-29.141,21.283,11.549,10.877,14.112,9.326,17.918,26.822,2.731,12.216-2.616,29.285,2.558,40.219,14.189-6.11,15.538-9.682,27.797-17.534,12.648-7.622,13.92-4.358,21.974-12.398-4.555-13.92-7.243-20.602-10.142-28.762h0ZM2583.739,1390.151c-6.082-12.336-8.664-15.144-15.408-21.024-12.528,5.04-18.096,1.891-30.106,12.605-11.27,7.992-34.752,27.624-43.685,37.046,8.515,4.205,16.464,7.114,26.4,20.15s7.085,16.56,12.864,31.128c10.555-6.715,15.538-10.286,25.378-16.32,10.219-9.437,14.525-12.24,26.218-20.275-4.56-13.32.029-32.726-1.661-43.31h0ZM2514.038,1447.127c-6.082-12.336-14.726-14.544-21.47-20.424-12.528,5.04-17.491,15.84-29.496,26.554-14.909,16.474-17.174,19.138-24.288,29.165,10.939,5.419,14.04,5.904,23.976,14.698,10.272,9.096,13.142,9.283,20.131,17.184,7.526-8.53,6.451-7.858,16.286-17.534,10.224-9.437,11.496-9.202,25.008-21.485-3.95-13.925-6.034-18.782-10.147-28.157h0ZM2455.853,1505.918c-7.296-5.664-14.117-9.691-20.256-13.757-5.866,6.864-11.429,12.202-14.952,19.886-5.818,7.382-6.269,8.832-10.958,18.859,10.944,5.424,9.802,4.085,17.918,8.03,7.891,3.84,11.328,8.074,20.741,14.16,7.522-8.534,2.208-5.438,12.038-15.11,4.766-5.803,7.258-10.416,14.702-17.856-10.613-9.072-12.096-10.296-19.234-14.208v-.005ZM2427.062,1548.647c-8.813-4.152-12.605-6.36-19.958-9.514-4.949,9.283-6.274,10.685-9.792,18.37-2.184,6.475-3.845,9.744-7.632,20.376,8.218,2.995,10.714,3.782,16.104,6.211,5.506,2.486,11.328,5.952,17.712,9.614,6.005-11.261,5.842-8.77,9.312-15.413,3.25-6.408,5.438-8.299,11.366-16.944-8.794-6.653-11.486-9.086-17.112-12.701ZM2405.203,1592.361c-8.813-4.152-8.746-3.144-16.099-6.298-4.954,9.283-8.419,25.68-11.083,35.726-1.968,11.4-3.629,24.096-4.195,37.944,7.786,1.498,4.57.576,11.386,1.93,6.773,1.344,7.138,1.603,14.381,4.618,2.15-15.115,4.013-23.448,7.93-33.778,2.606-7.262,8.006-23.722,13.939-32.371-7.512-4.08-10.632-4.157-16.258-7.771h0ZM2386.133,1670.572c-2.722-.634-5.635-1.114-11.386-1.584-1.094,19.781-1.133,24.61-.581,44.299,1.459,20.616,1.728,37.382,5.016,58.301,3.72-1.075,4.574-2.208,11.386-2.573,6.802-.36,6.398-.475,13.426-.034-4.92-19.613-5.088-26.338-6.542-49.699-.61-18.192-.562-24.072.902-44.558-5.366-1.723-7.666-2.894-12.221-4.152h0ZM2395.56,1778.572c-2.722-.634-9.494.173-15.245-.298,6.192,34.781,11.299,47.755,22.992,69.154,13.891,20.189,27.442,39.101,45.302,58.306,2.208-1.531,3.715-3.552,5.813-5.573,2.026-1.954,3.73-2.544,6.144-4.747-20.352-26.904-23.947-34.91-36.12-59.558-10.032-24.619-11.702-31.358-18.379-58.272-5.366,2.136-5.952,2.246-10.507.989h0ZM2459.419,1905.858c-3.48,2.246-1.776,1.454-7.104,4.848,8.338,9.922,14.304,15.61,29.851,31.008,11.746,8.616,15.264,16.133,39.312,25.834,2.861-3.216,2.981-3.643,4.368-5.702,1.344-1.982,1.915-2.491,3.422-6.355-12.206-3.758-26.65-12.274-35.818-21.49-15.178-13.051-18.994-18.931-29.098-31.699-2.338,1.526-3.408,2.088-4.934,3.557ZM2535.331,1965.412c-1.91,3.024-1.186,3.898-2.981,7.464,10.906,6.494,13.344,7.046,40.094,12.264,32.88,1.114,46.728.326,62.17-1.752-.562-4.114-.61-4.493-.792-8.381-.173-3.677.302-2.477.014-6.413-30.744,2.04-40.08-.019-52.243-.802-21.883-2.045-38.376-7.19-43.574-8.51-2.338,4.258-2.074,3.139-2.688,6.125v.005ZM2642.688,1975.694c.658,3.245.528,2.189,1.517,6.826,25.478-4.43,25.987-3.878,56.813-10.234,23.232-6.605,30.898-11.616,45.264-19.267,1.051-5.074.758-4.464-.394-6.576-1.522-2.784-.374-1.896-3.821-3.994-17.083,10.258-35.381,13.267-45.187,16.56-23.376,4.814-34.944,6.096-54.72,8.203.24,4.469.288,5.496.528,8.482h0ZM2752.834,1939.91c3.869,2.928,4.157,4.286,9.019,3.61,7.934-1.104,8.957-3.346,16.579-9.571,3.734-3.053,9.542-8.962,8.386-11.078-1.522-2.784-4.09-11.155-7.464-5.702-2.947,4.771-15.523,12.144-22.973,17.261-5.928,4.07-5.05,4.344-3.547,5.482h0ZM2790.974,1913.764c4.512,1.426,3.379,2.323,7.09-.888,3.01-2.606,5.102-6.994,10.579-13.43,3.125-3.672,9.379-14.256,9.672-16.646.835-6.859-2.986-11.386-5.962-5.707-5.309,10.128-12.096,20.717-21.475,29.261-5.318,4.843-1.704,6.845.096,7.411h0ZM2818.402,1869.623c4.512,1.426,4.022,2.323,7.728-.888,3.01-2.606,6.019-9.374,9.514-17.074,2.054-4.531,6.624-11.314,4.958-15.792-1.853-4.973-8.347-8.381-10.032-2.275-3.053,11.021-4.056,11.165-9.264,24.12-2.006,4.992-4.704,11.342-2.904,11.909h0ZM2833.19,1822.694c1.766,3.398,5.021,2.986,10.306.61,4.253-1.91,2.659-8.64,3.293-17.069.336-4.531,1.267-8.746.029-14.722-1.075-5.198-10.877-7.08-11.534-.778-.48,4.594.202,7.267-.691,15.12-1.44,12.691-2.784,14.189-1.402,16.838h0ZM2837.045,1778.337c1.027,2.87,5.232,1.915,7.728-1.104,2.976-3.595-.552-9.926-.773-17.074-.144-4.541-1.406-9.115-3.83-14.717-1.502-3.485-6.931-3.898-7.032,2.438-.048,3.091.826,7.109,1.666,13.834.926,7.378.6,12.048,2.242,16.622h0ZM2829.547,1733.553c1.027,2.87,5.606.149,6.446-3.677,1.262-5.736-2.722-12.058-4.416-18.998-1.43-5.827-4.056-12.758-8.76-16.651-3.432-2.832-9.638-4.402-8.318,1.8,1.022,4.8,7.896,13.968,10.238,21.758,2.141,7.123,3.168,11.189,4.81,15.768ZM2801.477,1682.337c3.043.12,6.576.974,5.587-2.818-.878-3.379-4.162-5.05-10.416-9.998-3.202-2.534-8.822-7.162-11.971-8.722-3.634-1.8-10.762-4.051-8.323,1.795,1.022,2.448,4.258,3.466,10.027,7.402,6.144,4.195,13.027,12.264,15.096,12.341h0Z"/>
      </g>
      <path class="cls-7" d="M1338.504,1979.678c-62.304,21.12-152.064,64.416-187.968,88.704-11.616,8.448-10.56,17.952,7.392,53.856,12.672,23.232,25.344,43.296,27.456,43.296,3.168,0,38.016-15.84,77.088-35.904,39.072-19.008,88.992-44.088,111.936-48.576,17.544-3.432,33.566-6.682,43.483-10.8,3.994,9.696,1.536,4.291,8.813,19.526,10.464,21.888,3.95,21.394,22.037,27.384,19.075,6.317,66.115-19.214,66.115-19.214,54.912-19.008,85.536-21.12,283.008-21.12s228.096,2.112,283.008,22.176c0,0,44.189,15.034,49.872,16.848,5.64,1.81,8.621,3.235,14.582,1.805,5.438-1.306,11.102-9.624,13.608-14.645,0,0,12.144-29.179,15.264-39.418,10.517,5.064,29.698,11.65,48.178,17.458,22.176,7.392,71.808,29.568,110.88,48.576,39.072,20.064,73.92,35.904,77.088,35.904,2.112,0,14.784-20.064,27.456-43.296,25.344-49.632,27.456-45.408-64.416-92.928-122.496-63.36-244.992-91.872-256.608-61.248-2.112,5.808-3.902,9.206-6.806,16.738-12.274-2.827-44.41-10.402-76.618-15.682-99.264-17.952-371.712-17.952-470.976,0-32.208,5.28-53.981,14.088-72.182,19.138-10.301-20.611-8.146-12.413-10.258-18.221-8.448-21.12-64.344-17.813-141.432,9.643h0Z"/>
      <g>
        <path class="cls-8" d="M1438.8,1964.5c-45.346,1.426-130.397,30.466-216.451,74.251-73.92,36.96-76.013,39.077-55.949,78.149,8.448,17.952,17.995,33.888,19.051,36,.024.014.12.144.149.149,3.936,1.037,36.85-13.56,74.698-33,40.128-20.064,90.926-42.115,113.102-48.451,16.368-5.808,28.262-6.336,42.898-9.446-2.669-15.557.638-2.141-9.744-31.8,11.976-30.043,35.117-56.002,57.6-61.651-5.784-3.086-14.352-4.546-25.354-4.2h0Z"/>
        <path class="cls-8" d="M1785.749,1965.249c-87.538.835-173.616,5.112-213,11.251-67.056,11.088-103.214,32.342-128.102,45.298-9.101,6.797-17.088,8.448-27,14.4,7.858,17.798,7.55,28.512,14.256,44.102,7.046,16.402,3.523,26.77,22.8,27.298,19.267.528,61.2-20.251,61.2-20.251,53.856-19.008,85.584-21.149,282-21.149,197.472,0,237.254,6.288,282.898,22.2,33.086,11.39,46.728,20.381,60,18,6.816-1.224,10.368-11.069,15.149-22.949,6.514-16.186,14.371-37.92,18.302-65.102-10.382-1.512-5.798,3.792-19.954-2.544-30.562-13.704-36.374-14.746-56.549-23.251-23.942-10.104-46.339-10.123-81.451-16.656-41.184-6.336-132.72-8.813-222.149-10.646-2.827.019-5.578-.029-8.4,0h0Z"/>
        <path class="cls-8" d="M2152.651,1965.402c-5.962.048-11.026.691-15.302,1.949,9.216,5.794,19.978,15.47,25.954,18.6,22.176,11.616,22.085,22.354,19.949,42.302-.989,9.216-1.834,12.73-5.4,25.349,8.275,3.734,28.704,12.192,45.6,18,21.12,6.336,71.774,28.387,111.902,48.451,37.238,19.123,69.758,33.528,74.544,33,.096-.014.24-.125.302-.149h.149c1.056-2.112,10.608-18.048,19.056-36,13.728-26.4,14.755-35.808,4.195-44.256-23.232-19.008-117.216-62.414-184.8-85.646-43.262-14.419-75.082-21.768-96.149-21.6Z"/>
        <path class="cls-8" d="M2126.102,1973.951c-.722.791-1.374,1.644-1.949,2.549-3.202,3.902-3.653,8.078-4.651,12.902,6.998,2.472,30.605,17.179,42.749,16.651,2.602,0,4.656-.115,5.851-.6l.302-.154c.029-.014.12-.134.144-.144.106-.072.23-.226.302-.302.034-.038.125-.11.149-.154.014-.024.144-.125.154-.144.01-.029-.005-.13,0-.154v-.451c-.108-.44-.313-.849-.6-1.2-1.694-2.198-6.84-5.755-16.954-11.4-7.133-3.984-18.682-11.837-25.498-17.4h0ZM1470.451,1974.249c-6.936,5.28-18.696,12.566-26.251,17.702-13.57,9.216-15.59,16.368-21.451,29.246-.115.243-.214.493-.298.749v.154h.298c1.92-.878,12.187-10.128,36.754-18.451,21.072-7.862,9.859-4.018,22.944-9.451-8.621-13.325-9.744-14.232-10.8-17.4-.306-.891-.708-1.746-1.2-2.549h.005Z"/>
      </g>
      <path class="cls-7" d="M1561.968,2005.598l2.419,20.914,14.333-1.661c5.17-.595,8.717-1.858,10.646-3.778,1.958-1.925,2.712-4.848,2.256-8.755-.422-3.658-1.728-6.13-3.912-7.402-2.189-1.277-5.99-1.603-11.41-.974l-14.333,1.656M1552.915,1999.295l23.928-2.765c3.888-.451,6.754-.61,8.611-.485,1.882.12,3.595.49,5.136,1.104,2.765,1.123,4.963,2.88,6.6,5.266,1.661,2.386,2.688,5.294,3.091,8.736.384,3.322,0,6.254-1.152,8.794-1.152,2.51-3.062,4.598-5.731,6.269,2.482.389,4.32,1.325,5.506,2.803,1.219,1.474,2.174,4.094,2.866,7.862l1.891,10.104c.389,2.16.859,3.763,1.402,4.805.475.925,1.267,1.648,2.232,2.035l.202,1.718-9.682,1.118c-.931-1.195-1.795-3.883-2.592-8.064-.01-.085-.018-.169-.024-.254l-1.44-7.987c-.754-4.104-1.944-6.682-3.566-7.742-1.622-1.056-5.395-1.243-11.318-.557l-13.579,1.57,3.058,26.448-8.299.955-7.138-61.728M1626.221,2028.273l19.31-1.416-11.597-26.645-7.714,28.061M1610.189,2055.341l18.466-63.667,9.298-.682,27.648,60.278-9.13.672-7.92-18.034-24.408,1.79-5.246,18.998-8.707.638M1695.581,2049.931l-1.824-62.112,8.434-.25.749,25.512,32.218-.946-.749-25.512,8.477-.25,1.824,62.112-8.482.254-.85-29.098-32.218.946.85,29.093-8.434.25M1768.92,2022.465l19.368-.101-9.758-27.374-9.605,27.475M1751.083,2048.376l22.757-62.261,9.326-.048,23.477,62.021-9.154.048-6.672-18.528-24.47.125-6.528,18.6-8.736.043M1856.904,2025.83l8.184.144c-.499,7.555-3.187,13.541-8.074,17.957-4.858,4.387-11.088,6.518-18.677,6.384-8.746-.144-15.552-3.25-20.429-9.293-4.848-6.048-7.181-14.347-6.998-24.893.168-9.73,2.904-17.4,8.208-23.021,5.299-5.645,12.365-8.395,21.192-8.242,7.032.12,12.749,2.035,17.16,5.741,4.435,3.706,6.95,8.698,7.546,14.981l-8.266-.144c-.72-4.118-2.534-7.296-5.448-9.542-2.914-2.275-6.734-3.451-11.458-3.533-6.298-.11-11.232,2.016-14.794,6.37-3.533,4.354-5.376,10.555-5.51,18.595-.13,7.594,1.565,13.714,5.083,18.36,3.552,4.646,8.304,7.018,14.266,7.123,5.088.086,9.278-1.416,12.566-4.512,3.317-3.12,5.136-7.277,5.448-12.48M1874.645,2049.345l2.846-62.074,8.429.384-1.166,25.498,32.194,1.478,1.171-25.498,8.467.384-2.842,62.078-8.472-.384,1.334-29.083-32.198-1.474-1.334,29.078-8.429-.384M1937.14,2052.586l4.301-61.992,8.419.581-4.301,61.997-8.419-.586M1972.756,2000.241l-2.035,20.952,14.362,1.397c5.179.504,8.914.019,11.203-1.454,2.318-1.469,3.667-4.162,4.051-8.083.355-3.667-.398-6.355-2.27-8.064-1.867-1.704-5.52-2.822-10.944-3.35l-14.362-1.397M1965.235,1992.178l23.976,2.333c3.888.374,6.73.821,8.515,1.334,1.819.518,3.413,1.238,4.795,2.16,2.462,1.68,4.243,3.864,5.338,6.542,1.123,2.678,1.522,5.741,1.186,9.182-.326,3.331-1.315,6.12-2.976,8.357-1.656,2.213-3.965,3.854-6.922,4.925,2.342.907,3.936,2.208,4.795,3.898.878,1.699,1.258,4.464,1.142,8.294l-.278,10.272c-.072,2.198.048,3.859.36,4.992.346,1.109.931,1.93,1.752,2.462l-.168,1.718-9.696-.941c-.658-1.363-.936-4.176-.835-8.434l.024-.25.283-8.112c.12-4.171-.499-6.941-1.862-8.318s-5.016-2.352-10.944-2.928l-13.608-1.325-2.578,26.496-8.314-.811,6.014-61.848M2016.446,2060.078l8.098-61.613,8.362,1.099-8.093,61.613-8.366-1.104"/>
      <path class="cls-2" d="M1438.632,770.759c-28.584,14.88-43.469,36.811-45.816,66.571-2.352,32.112,4.699,54.821,23.102,72.053,8.222,8.222,15.274,16.056,15.274,18.014,0,1.565-6.264,9.398-14.098,16.838-18.403,17.232-28.978,39.941-28.978,63.437,0,24.278,7.44,41.117,27.408,63.048l16.45,18.01-18.014,19.973c-36.024,39.941-34.848,85.762,2.741,123.744l16.056,16.838h737.376l18.01-19.186c34.848-37.2,34.848-77.539.389-120.221l-17.616-21.538,16.445-19.584c36.024-43.07,35.242-82.622-1.958-124.128-16.838-18.408-17.232-21.936-3.917-30.547,21.538-14.491,34.848-63.437,25.061-93.202-14.486-44.64-76.752-74.4-114.734-54.821-7.051,3.523-21.149,13.315-31.718,21.538-10.574,8.616-20.366,15.274-22.32,15.274-1.57,0-10.968-7.051-20.755-15.667-37.987-32.496-82.627-30.149-120.614,6.658l-14.486,14.098-19.19-17.621c-38.765-36.418-87.322-34.848-126.874,3.523l-14.491,14.098-15.662-14.098c-23.102-21.144-38.376-27.408-65.006-27.802-25.45-.394-49.339,10.181-68.136,30.542l-9.398,9.792-20.362-17.232c-37.594-32.112-67.747-37.594-104.16-18.403h-.005Z"/>
      <path class="cls-1" d="M1419.619,1272.263c-38.376,42.682-37.982,86.15.782,129.226l14.491,16.056-16.45,18.014c-9.005,9.792-18.797,23.885-21.926,30.936-12.528,30.149-3.134,70.483,21.538,93.59,14.88,14.486,15.269,20.362,1.171,37.594-6.264,7.44-13.704,18.01-16.445,23.491-29.371,55.608,14.491,125.314,79.493,125.314,25.843,0,45.427-8.227,63.048-27.024,14.098-14.88,21.538-15.269,34.066-1.954,18.408,20.362,42.686,32.89,63.048,32.89,23.89,0,38.77-7.44,63.048-30.542l18.403-18.014,16.838,18.408c36.418,39.158,73.229,40.334,122.179,3.13l19.968-14.88,17.232,15.662c21.538,18.797,37.594,26.237,58.738,26.237s36.811-8.222,61.483-32.496l20.362-19.584,15.662,14.098c30.154,27.024,46.603,35.635,68.53,35.635,22.714,0,38.77-7.44,61.478-27.802,21.149-19.19,32.506-41.51,29.76-59.914-2.736-19.973-20.75-56.39-34.066-68.923l-11.357-10.963,17.621-19.968c38.376-45.038,38.77-79.886.787-124.531l-15.667-18.797,16.45-19.968c36.806-43.469,36.418-83.803-.782-123.355l-19.973-20.75-366.528.389-366.533.394-16.45,18.403h0Z"/>
      <path class="cls-7" d="M1338.504,1221.47s.24,366.398.989,506.309c-1.248,20.702,10.882,25.718,28.646,39.504,28.733,22.296,59.386,45.638,223.805,32.88,151.008,1.056,182.688,12.672,198.528,72.864l8.448,33.792,7.392-33.792c11.616-58.08,47.453-71.808,193.181-72.864,187.603,2.818,203.184-8.957,230.064-31.891,0,0,19.642-15.12,24.706-29.635,5.683-16.296,2.962-29.616,2.962-29.616v-1000.771h-918.72v513.221ZM2246.664,1225.694l1.973,422.731c0,56.909,4.099,74.362-1.973,85.205-6.072,10.843-18.365,25.277-18.365,25.277-28.512,28.512-52.656,34.344-182.688,32.664-84,.23-129.379,2.554-195.552,12.998-10.387,9.326-38.928,8.496-52.195,62.779-17.218-54.283-29.501-51.922-29.501-51.922-70.306-29.501-101.75-23.626-214.435-24.773-72.864,10.56-151.008-3.168-180.576-32.736,0,0-4.402,1.195-24.288-22.315.192-102.974,0-509.904,0-509.904v-506.88h897.6v506.88-.005Z"/>
      <path class="cls-9" d="M1670.822,939.023c-27.797,57.514-28.973,83.323-5.875,129.408,18.014,35.39,39.154,57.878,68.126,72.259,75.562,37.973,172.267,9.955,210.24-60.83,23.496-43.507,20.755-116.136-5.088-147.84l-7.046-8.482-6.658,25.07c-9.394,35.76-18.792,53.827-37.584,72.998-35.232,35.76-83.784,43.872-133.896,21.754-38.76-17.328-54.422-41.294-68.909-108.024l-3.523-16.589-9.787,20.275h0Z"/>
      <path class="cls-7" d="M1661.64,942.686c-23.232,52.8-21.12,79.2,7.392,135.168,73.92,145.728,293.568,90.816,292.512-73.92-1.056-26.4-.24-43.594-14.784-72.864-6.864-12.144-9.802-15.749-14.698-23.093-1.934,7.954-4.838,22.037-10.646,45.269-21.12,81.312-90.816,119.328-163.68,88.704-41.184-16.896-60.192-44.352-70.752-101.376l-7.392-36.96-17.952,39.072h0ZM1733.448,1047.23c50.688,32.736,127.776,22.176,166.848-21.12,15.84-17.952,25.57-45.96,29.568-60.192,3.946-14.045,4.718-16.147,7.104-30.178,6.125,13.598,9.494,20.746,12.384,41.779,4.272,31.07-2.592,57.038-9.984,76.046-36.96,97.152-155.232,126.72-229.152,57.024-35.904-32.736-64.416-97.066-48.821-138.576,5.53-14.717,6.792-23.107,14.026-38.645,1.306,10.613,2.059,25.157,9.451,47.333,9.504,30.624,26.4,52.8,48.576,66.528h0Z"/>
      <g id="b">
        <path class="cls-5" d="M1619.606,1428.47c-.706,22.843.394,33.293,4.003,50.227-11.496-11.098-23.078-18.85-39.01-28.094-20.29-11.779-45.912-23.021-54.614-8.65-8.376,13.829,15.648,32.77,34.454,43.382,20.563,11.602,32.419,13.19,45.797,18.437-11.328,5.99-26.784,10.013-43.906,21-16.805,10.781-41.928,33.086-32.4,47.328,9.701,14.496,37.728-1.795,53.53-12.37,13.162-8.808,30.576-22.714,37.349-29.827-1.339,10.214-5.386,30.576-5.088,50.04.37,23.645,3.638,50.102,21.245,50.054,17.976-.043,21.797-31.2,21.514-52.267-.293-22.013-2.808-37.574-4.973-48.437,10.987,11.254,22.686,21.789,35.026,31.541,12.787,10.08,44.098,25.008,53.472,10.704,9.552-14.554-5.314-29.026-32.621-46.354-19.138-12.144-32.688-16.301-45.158-21.466,12.61-5.17,26.39-6.494,46.546-18.744,29.899-18.173,42.566-30.326,33.403-45.974-8.909-15.211-26.914-6.902-54.254,10.493-14.65,9.322-28.358,21.672-37.646,30.557,2.122-13.982,4.406-34.589,4.234-49.858-.264-22.694-5.232-52.032-20.688-52.118-15.456-.091-19.44,25.411-20.213,50.395h0Z"/>
        <path class="cls-3" d="M1663.978,1503.935c-.008,13.284-10.783,24.046-24.067,24.038-13.284-.008-24.046-10.783-24.038-24.067.008-13.284,10.783-24.046,24.067-24.038,13.273.008,24.03,10.766,24.038,24.038"/>
      </g>
      <g id="b-2" data-name="b">
        <path class="cls-5" d="M1934.63,1428.47c-.706,22.843.394,33.293,4.003,50.227-11.496-11.098-23.078-18.85-39.01-28.094-20.29-11.779-45.912-23.021-54.614-8.65-8.376,13.829,15.648,32.77,34.454,43.382,20.563,11.602,32.419,13.19,45.797,18.437-11.328,5.99-26.784,10.013-43.906,21-16.805,10.781-41.928,33.086-32.4,47.328,9.701,14.496,37.728-1.795,53.53-12.37,13.162-8.808,30.576-22.714,37.349-29.827-1.339,10.214-5.386,30.576-5.088,50.04.37,23.645,3.638,50.102,21.245,50.054,17.976-.043,21.797-31.2,21.514-52.267-.293-22.013-2.808-37.574-4.973-48.437,10.987,11.254,22.686,21.789,35.026,31.541,12.787,10.08,44.098,25.008,53.472,10.704,9.552-14.554-5.314-29.026-32.621-46.354-19.138-12.144-32.688-16.301-45.158-21.466,12.61-5.17,26.39-6.494,46.546-18.744,29.899-18.173,42.566-30.326,33.403-45.974-8.909-15.211-26.914-6.902-54.254,10.493-14.65,9.322-28.358,21.672-37.646,30.557,2.122-13.982,4.406-34.589,4.234-49.858-.264-22.694-5.232-52.032-20.688-52.118-15.456-.091-19.44,25.411-20.213,50.395h0Z"/>
        <path class="cls-3" d="M1979.002,1503.935c-.008,13.284-10.783,24.046-24.067,24.038-13.284-.008-24.046-10.783-24.038-24.067.008-13.284,10.783-24.046,24.067-24.038,13.273.008,24.03,10.766,24.038,24.038"/>
      </g>
    </g>
  </g>
</svg>