<?xml version="1.0" encoding="UTF-8"?>
<svg xmlns="http://www.w3.org/2000/svg" viewBox="0 0 3600.818 2401.738">
  <defs>
    <style>
      .cls-1 {
        stroke: #000;
        stroke-linecap: round;
        stroke-linejoin: round;
        stroke-width: 3.857px;
      }

      .cls-1, .cls-2 {
        fill: #ef7d00;
      }

      .cls-3, .cls-4, .cls-5, .cls-2 {
        stroke-width: 0px;
      }

      .cls-4 {
        fill: #de200f;
      }

      .cls-5 {
        fill: #1a8a00;
        fill-rule: evenodd;
      }
    </style>
  </defs>
  <g id="background">
    <path id="zm" class="cls-5" d="M400,.1h2800c220,0,400,180,400,400v1600c0,220-180,400-400,400H400C180,2400.1,0,2220.1,0,2000.1V400.1C0,180.1,180,.1,400,.1Z"/>
  </g>
  <g id="country">
    <g id="zm-2" data-name="zm">
      <rect class="cls-4" x="2314.286" y="857.243" width="857.143" height="1542.857"/>
      <path class="cls-2" d="M2742.857,2400.1h457.143c220,0,400-180,400-400V857.243h-857.143v1542.857Z"/>
      <rect class="cls-3" x="2742.857" y="857.243" width="428.571" height="1542.857"/>
      <g>
        <path class="cls-1" d="M3285.3,288.673s147.432-57.782,161.715-69.696c6.497,7.149-59.102,79.824-186.396,106.629,115.603-25.018,214.325-103.649,234.46-101.266,5.846,1.191,4.543,76.845-260.439,142.371,183.149-44.083,289.663-125.097,288.365-116.16,1.298,1.786-18.185,63.737-178.603,111.989,44.813-9.531,166.264-77.441,164.966-64.335,3.895,5.362-117.555,148.327-337.075,101.865,175.358,41.698,289.011-58.975,305.249-57.189,3.249.597-32.475,88.164-253.291,93.525,105.866-10.126,75.336-.597,75.336-.597,0,0-62.349,44.676-137.686,14.299,59.102,14.894,65.595,15.487,66.893,20.253-3.895,5.955-52.606,14.892-99.367-8.342,37.668,14.297,71.441,16.68,72.089,22.042-.648,1.786-24.677,14.297-46.109,5.362-21.432-8.938-218.873-120.331-218.873-120.331l336.427-84.588,12.339,4.169ZM2889.794,589.994c-29.583,0-30.401,24.146-30.401,24.146,0,0-2.441,1.743-.813,13.447,4.886-7.97,7.329-10.457,7.329-10.457,3.257.497,16.827,4.231,38.27-11.203-19.543,18.669-7.869,25.641-7.869,25.641,0,0-4.615,14.688,10.31,17.676-4.611-5.976-1.898-11.203-1.898-11.203,0,0,20.897-1.99,19.543-25.39.814,21.156,13.3,26.385,13.3,26.385,0,0,0,11.7,13.569,12.698-7.325-5.976-5.7-15.187-5.7-15.187,0,0,17.643-11.7,2.715-31.617,8.957-4.731,16.286-17.923,16.286-17.923,0,0-12.213-4.731-17.913-8.712-2.717-5.23-.271-33.857-.271-33.857l-7.33-37.095-20.901,57.759c.813-8.217,1.358,24.893-28.226,24.893h0Z"/>
        <path class="cls-1" d="M3035.904,506.695c.648.597,22.083,22.639,42.864,21.446,7.792-5.955-16.238-19.061-16.238-22.041,8.443,7.149,44.163,35.145,66.896,25.018,9.091-11.914-16.238-10.125-44.165-42.293,19.483,11.914,68.194,38.124,90.926,27.998,9.746-9.531-50.659-39.319-70.793-62.549l-51.955-24.422-70.793,53.018,53.258,23.825ZM2956.02,325.607s24.029-13.106,120.151-6.554c10.392,1.191,65.595-17.275,83.133-22.635,27.926-4.766,116.902-22.637,140.935-39.317,16.886-1.786-4.55,28.594-25.978,35.743-22.735,9.531-105.216,35.741-134.443,32.167,35.073.597,15.59,26.806-42.866,14.297,27.929,14.297,17.537,16.68,17.537,16.68,0,0-49.358,2.383-62.349-7.745,33.125,11.318,19.485,15.489,19.485,15.489,0,0-33.771,2.978-49.361-3.574,24.029,6.552,11.691,10.723,11.691,10.723,0,0-19.483,2.978-35.721-2.383-16.234-5.362-40.917-42.891-42.214-42.891v.002ZM2994.561,519.042l3.532,58.255s-1.903,2.988-3.532,4.731c-1.628,1.742-45.057-6.226-39.086,24.146,0,12.449.274,15.684,9.502,22.654-2.445-8.215-1.628-13.939-1.628-13.939,0,0,12.213,6.722,24.156-11.7-8.143,18.171-2.445,24.645-.543,25.143,1.901,3.238-3.256,17.923,13.029,17.674-6.24-5.477-3.257-13.445-3.257-13.445,0,0,17.102-2.486,11.129-30.867,6.243-5.726,8.685-.249,8.685-.249,0,0,1.899,16.927,16.827,13.443,6.789,3.483-1.083,12.694-1.083,12.694,0,0,10.855.25,14.112-8.215,3.257-8.463,7.058-23.65-10.858-29.873-2.17-5.973,7.06-6.471,7.06-6.471,0,0,11.4,3.483,14.655,8.712,3.257,5.229,2.172-13.69-11.942-15.684-17.371-.499-18.456-3.734-18.456-4.479s-2.985-42.321-4.342-54.271l-27.958,1.74Z"/>
        <path class="cls-1" d="M3054.975,568.686c.213-2.671-29.633-39.53-22.061-44.294,7.569,1.428,19.982,18.194,30.038,12.751-3.048-6.533-12.031-2.854-22.234-19.582-10.197-18.912-11.686-47.302-47.407-78.271,23.126,32.77,75.586,51.981,77.808,42.425,2.222-9.557-46.193-45.691-43.714-54.399,9.629,17.885,58.243,57.734,94.06,54.434,2.455-7.671-29.331-23.157-37.51-37.615-22.881-14.098-84.111-62.506-85.337-73.733-22.282-29.806-36.19-38.823-42.669-42.257-2.503-2.703-3.13-5.289-3.621-6.933-13.831-29.907,4.49-39.617,15.213-41.055,8.823-.898,11.386.312,17.736-2.508-7.519-2.698-15.034-5.222-22.553-7.92,9.804,6.597,34.843.789,29.417,19.786,10.976-3.831,34.337-29.321-26.475-35.074-19.792-20.823-101.158-32.791-121.526,58.094,1.628,1.274,2.479,2.321,7.654,5.866-25.695-11.422-95.007-20.232-119.986-23.933-67.481-17.858-137.561-60.891-144.298-55.599-9.01,3.669,40.773,46.149,38.184,47.088-43.166-23.085-82.598-39.439-119.289-54.321-25.814-8.851-51.669-29.455-54.518-25.536-9.501,18.051,41.383,63.422,50.849,68.76,9.468,5.105,83.909,36.777,82.812,37.173-112.125-46.678-130.923-55.14-136.55-60.523-9.881-2.04-33.955-31.853-40.663-29.937-3.674,3.309,3.693,50.417,57.195,71.561,8.721,5.829,114.686,40.695,113.649,43.428-.257.684-121.368-45.845-126.072-47.51-23.35-8.398-52.001-37.834-57.358-34.526-5.112,3.005,13.208,34.867,36.802,44.859,12.369,5.006,59.806,26.558,102.547,40.274,2.727.903-76.826-27.67-115.073-42.331-17.342-8.829-25.509-19.831-28.149-17.463-3.909,2.366,6.312,49.435,129.223,75.994,3.236,1.263,43.263-8.698,41.285-7.377-.495.331-39.747,8.169-43.569,7.899-3.401-.477-24.905,2.335-25.294,3.358-1.3,3.183,7.792,20.037,71.253,16.522,8.114-.447,52.142-14.707,48.442-11.64-1.851,1.536-59.954,18.852-64.378,19.193-3.843.499-24.257,2.457-25.011,4.449-.921,2.715,15.11,14.709,49.19,16.632,30.175,1.469,87.514-16.911,86.362-15.72-1.149,1.191-55.275,18.202-56.691,19.239-1.958,1.017-21.778,2.002-22.474,3.398-1.615,3.473,28.591,29.379,117.921,1.731-8.974,11.119-52.274,18.722-52.212,20.726-.2,1.452,9.54,10.083,24.679,13.173,7.569,1.543,17.931,1.229,27.398-.142,17.002-3.122,34.92-9.291,57.686-28.591,2.721,6.057-56.87,33.717-54.072,36.355,12.921,10.989,55.845-1.418,58.656-2.858,2.813-1.443,82.654-42.737,82.38-47.517,1.239,6.125-102.936,58.044-101.811,60.173,6.686,9.789,42.274-.514,43.975-1.414,1.697-.897,45.417-22.56,46.615-23.198,1.195-.639-51.382,28.224-46.697,32.618-2.265,18.742,82.111-12.936,88.723-16.881,3.307-1.971-40.533,17.679-40.649,27.015,14.117,21.891,59.319,14.947,66.292,10.131,3.489-2.409-4.102,16.262-1.658,14.566.852-.351,9.831-10.09,13.286-17.139-1.102,6.117-6.058,15.753-8.949,26.808-2.897,11.055-3.725,23.53-7.697,36.785-.912,5.822,27.852-11.383,23.674-52.51,2.462,21.393-9.084,61.394-6.062,63.473,6.043,4.159,22.749-19.922,24.437-36.206,4.961,8.225,15.374,25.394,24.331,29.343-.975-12.442.171-11.871-3.86-24.101,2.326-16.234,2.65-38.705,3.213-64.08,24.341,42.768,34.049,60.828,27.249,93.579,7.238,2.769,18.799-22.86,17.866-36.051,9.295,36.653,49.414,42.149,50.052,41.083h0Z"/>
        <path class="cls-1" d="M2649.557,297.165s-16.567,11.481-37.183,10.805c5.153,18.909,47.859,4.389,47.859,4.389,0,0-20.618,20.937-35.343,24.314,8.836,6.754,46.02,4.389,52.28,1.013,6.257-3.377,17.302-16.546,17.302-16.546,0,0-38.289,40.521-43.812,40.183-.737,4.728,40.131,3.039,48.6-4.051,8.465-7.092,29.818-17.559,29.818-17.559,0,0-55.959,35.794-58.538,35.794,20.985,5.064,62.955-6.079,89.832-21.274-39.763,24.312-43.44,28.702-63.691,36.806,18.041,3.715,27.24,14.859,88.358-9.454,34.976-15.195,54.854-42.885,54.854-42.885-21.72,26.676-55.961,49.303-93.878,71.589-2.211,4.051,40.495,20.595,94.982-31.406M2945.556,409.948s3.682,15.871,18.408,28.029c14.729,12.154,15.833,23.973,15.833,23.973M2938.195,306.619s5.153,14.182,20.247,23.301c15.463,9.117,38.661,37.817,40.5,42.885,1.783,6.13,10.675,50.314,9.939,55.039"/>
        <path class="cls-1" d="M2844.315,328.567c1.104,5.403-21.723,32.755,9.569,64.834-28.349,31.74-28.346,35.794-28.346,35.794,0,0,15.83,8.103,44.177-14.184,46.756,52.68,31.176,76.786,31.176,76.786"/>
        <path class="cls-1" d="M2897.167,454.609s-4.306-5.657,3.372-26.787c6.914,7.639,14.602,9.269,17.973,12.362,3.369,3.093,38.671,7.779,40.915,29.417M2938.668,256.269c0-1.589-7.109-15.579-33.627,1.908,14.211.795,28.251,8.266,33.627-1.908ZM3191.775,320.245c1.298.597,79.234,16.083,105.214,8.34-33.123,40.509-99.369,13.106-99.369,13.106,32.472,8.935,33.773,8.34,44.162,16.68,3.249,7.743-59.75,4.169-80.534-6.554,57.804,16.68,59.102,15.489,61.053,22.041,2.601,8.935-94.824-2.383-103.267-14.297,25.98,18.466,40.269,22.041,54.555,30.381-17.537,7.149-50.007,14.295-109.761-24.423,78.583,65.527,149.378,61.354,160.421,73.269-27.278,36.934-133.143-22.039-181.855-51.823-48.71-29.786,106.514,72.079,120.806,70.291-7.149,10.126-58.454,1.191-61.702-3.574"/>
        <path class="cls-1" d="M3211.908,388.749c-9.089,1.191-36.367,1.191-40.264.597M2626.731,286.358s59.273,28.702,84.309,26.678c-6.627,5.739-16.57,8.103-16.57,8.103,6.261,2.364,23.565,10.805,49.706,5.403-6.261,5.739-14.36,12.156-14.36,12.156,0,0,22.459,7.766,47.863-4.389-7.731,8.777-12.153,15.194-12.153,15.194l17.674,1.013"/>
      </g>
    </g>
  </g>
</svg>