<?xml version="1.0" encoding="UTF-8"?>
<svg xmlns="http://www.w3.org/2000/svg" viewBox="0 0 3600.818 2401.738">
  <defs>
    <style>
      .cls-1 {
        fill: #d40000;
      }

      .cls-1, .cls-2, .cls-3, .cls-4, .cls-5, .cls-6, .cls-7 {
        stroke-width: 0px;
      }

      .cls-2, .cls-5, .cls-6, .cls-7 {
        fill-rule: evenodd;
      }

      .cls-4, .cls-7 {
        fill: #ffd200;
      }

      .cls-5 {
        fill: #fff;
      }

      .cls-6 {
        fill: #006400;
      }
    </style>
  </defs>
  <g id="background">
    <path id="zw" class="cls-6" d="M400,.1h2800c220,0,400,180,400,400v1600c0,220-180,400-400,400H400C180,2400.1,0,2220.1,0,2000.1V400.1C0,180.1,180,.1,400,.1Z"/>
  </g>
  <g id="country">
    <g id="zw-2" data-name="zw">
      <path class="cls-4" d="M3595.895,2057.243c2.701-18.674,4.105-37.752,4.105-57.143V400.1c0-19.391-1.405-38.469-4.105-57.143H4.105C1.405,361.631,0,380.709,0,400.1v1600C0,2019.491,1.405,2038.569,4.105,2057.243h3591.789Z"/>
      <rect class="cls-1" x="0" y="685.814" width="3600" height="1028.571"/>
      <rect class="cls-3" x="0" y="1028.671" width="3600" height="342.857"/>
      <path id="Path" class="cls-2" d="M0,2000.339V399.861c.069-118.044,51.271-224.129,132.657-297.302l1520.243,1097.541L132.657,2297.641C51.271,2224.467.069,2118.383,0,2000.339Z"/>
      <path id="Path-2" data-name="Path" class="cls-5" d="M57.783,192.894l1395.117,1007.206L57.783,2207.306C21.151,2146.936.044,2076.101,0,2000.339V399.861c.044-75.762,21.151-146.598,57.783-206.968h0Z"/>
      <path class="cls-1" d="M552.725,652.225l287.778,885.674L87.101,990.523h931.25l-753.398,547.377,287.771-885.674Z"/>
      <g>
        <path class="cls-7" d="M528.842,866.86c-17.782-20.367-48.708-22.463-69.076-4.681-3.482,3.04-6.516,6.557-9.011,10.448-8.818-.213-17.636.432-26.329,1.927-8.132,1.397-15.187,6.416-19.175,13.64-3.99,7.22-4.481,15.863-1.335,23.489l29.715-1.764c12.173,6.872,19.858,19.617,20.254,33.59l3.345,118.065c-5.74,11.859-8.642,24.892-8.475,38.066.208,15.864,1.463,31.691,3.778,47.389,2.319,15.76-2.865,31.698-14.01,43.078-17.275,17.641-32.295,37.356-44.718,58.694-9.538,16.39-7.858,36.985,4.21,51.613l33.853,130.989h254.085l14.1-111.14c5.985-47.181,32.891-89.162,73.261-114.305l9.997,2.837c7.76,2.2,15.835-2.308,18.035-10.068,1.619-5.711-.379-11.833-5.056-15.489l-240.355-187.95-6.32-79.107c-1.457-18.242-8.74-35.532-20.773-49.319"/>
        <path class="cls-3" d="M526.406,869.012l-.201-.225,4.871-4.307.201.228-4.871,4.303ZM526.206,868.787c-1.315-1.487-2.743-2.899-4.248-4.213l4.283-4.898c1.685,1.47,3.307,3.079,4.836,4.808l-4.871,4.303ZM526.247,859.665v.01l-2.141,2.449,2.141-2.46ZM521.965,864.584c-1.486-1.295-3.054-2.492-4.694-3.584l3.594-5.431c1.896,1.259,3.694,2.629,5.383,4.096l-4.283,4.919ZM517.27,861c-8.461-5.615-18.55-8.255-28.677-7.503l-.46-6.524c11.672-.865,23.174,2.245,32.732,8.596l-3.594,5.431ZM488.593,853.497l-.297.028-.46-6.524.301-.028.457,6.524ZM487.811,846.993h.031l.228,3.262-.259-3.262ZM488.32,853.521c-2.079.163-4.058.45-5.912.848l-1.353-6.372c2.283-.488,4.549-.83,6.753-1.003l.512,6.528ZM482.408,854.369c-1.937.408-3.84.951-5.687,1.609l-2.169-6.144c2.11-.744,4.29-1.363,6.503-1.837l1.353,6.372ZM476.721,855.977c-9.567,3.388-17.736,9.862-23.219,18.403l-5.48-3.511c6.262-9.762,15.596-17.162,26.529-21.032l2.169,6.14ZM453.502,874.381l-2.819,1.508.08-3.262,2.74,1.754ZM450.683,875.889c-.291-.007-.581-.012-.872-.014l.08-6.524c.381,0,.675.014.955.014l-.156,6.524h-.007ZM449.811,875.875h-.01l.048-3.262-.038,3.262ZM449.801,875.875c-1.197-.014-2.404-.028-3.587-.014l-.048-6.524c1.252-.01,2.511-.007,3.746.014l-.111,6.524ZM446.213,875.861c-1.131.007-2.338.041-3.573.076l-.228-6.524c1.197-.038,2.453-.076,3.75-.076l.052,6.524ZM442.64,875.937c-5.92.212-11.818.823-17.656,1.827l-1.097-6.424c6.158-1.055,12.35-1.705,18.524-1.927l.228,6.524ZM424.984,877.764l-.128.028-1.097-6.424.131-.028,1.093,6.424ZM423.745,871.364h.01l.547,3.21-.56-3.21h.003ZM424.869,877.785c-.995.174-1.978.411-2.944.709l-1.91-6.22c1.235-.381,2.491-.692,3.729-.91l1.124,6.42ZM421.926,878.494c-.952.3-1.884.658-2.792,1.072l-2.677-5.943c1.157-.524,2.346-.974,3.56-1.349l1.91,6.22ZM416.446,873.623h.01l1.339,2.972-1.349-2.972ZM419.144,879.563c-4.675,2.126-8.541,5.702-11.025,10.198l-5.711-3.138c3.158-5.731,8.081-10.291,14.038-13l2.698,5.94ZM402.394,886.647l.01-.028,2.857,1.57-2.868-1.543ZM408.13,889.733l-.176.332-5.735-3.086.176-.332,5.735,3.086ZM402.218,886.993v-.014l2.868,1.543-2.868-1.529ZM407.954,890.048c-.45.848-.875,1.768-1.245,2.747l-6.088-2.325c.429-1.131.972-2.304,1.598-3.477l5.736,3.055ZM400.62,890.484v-.014l3.044,1.162-3.044-1.148ZM406.708,892.777c-.353.944-.657,1.903-.896,2.864l-6.317-1.557c.301-1.218.681-2.428,1.124-3.598l6.088,2.29ZM399.496,894.098v-.01l3.162.778-3.162-.768ZM405.812,895.631c-1.203,4.932-.809,10.119,1.124,14.813l-6.019,2.473c-2.455-5.964-2.952-12.554-1.418-18.819l6.313,1.532ZM404.117,914.944l-3.196-2.027,3.01-1.235.187,3.262ZM403.737,908.42l29.712-1.764.381,6.528-29.708,1.761-.384-6.524ZM433.448,906.656l1.771.422-1.577,2.84-.194-3.262ZM435.22,907.078l.751.425-3.321,5.608c-.199-.116-.397-.232-.595-.349l3.158-5.684h.007ZM435.97,907.503c1.795,1.059,3.511,2.255,5.123,3.553l-4.075,5.075c-1.359-1.093-2.819-2.11-4.359-3.016l3.311-5.611ZM441.093,911.056c1.605,1.294,3.124,2.705,4.514,4.207l-4.763,4.431c-1.176-1.27-2.463-2.463-3.826-3.563l4.075-5.075ZM445.608,915.262c7.143,7.669,11.25,17.676,11.554,28.152l-6.528.18c-.25-8.892-3.73-17.388-9.79-23.9l4.763-4.431ZM457.162,943.414l3.345,118.065-6.524.18-3.349-118.065,6.528-.18ZM460.507,1061.479l-.332,1.505-2.93-1.411,3.262-.09v-.003ZM460.175,1062.984c-.19.391-.457.958-.723,1.539l-5.912-2.733c.214-.467.457-.979.775-1.633l5.86,2.826ZM453.54,1061.808v-.01l2.958,1.363-2.958-1.349v-.003ZM459.455,1064.506c-.72,1.567-1.401,3.193-2.038,4.843l-6.068-2.345c.664-1.719,1.398-3.459,2.19-5.196l5.915,2.698ZM451.34,1067.014l.01-.01,3.034,1.176-3.044-1.166ZM457.428,1069.339c-.623,1.633-1.197,3.286-1.716,4.943l-6.223-1.937c.56-1.788,1.176-3.573,1.851-5.327l6.088,2.321ZM455.712,1074.282c-2.547,8.195-3.789,16.741-3.681,25.322l-6.524.076c-.117-9.263,1.227-18.487,3.982-27.332l6.223,1.937v-.003ZM452.032,1099.604c0,.55.01,1.11.031,1.716l-6.524.104c-.007-.547-.01-1.152-.035-1.747l6.528-.08v.007ZM452.063,1101.32c.041,2.114.086,4.3.176,6.524l-6.524.228c-.081-2.217-.14-4.434-.176-6.652l6.524-.104v.003ZM452.239,1107.844c.069,2.076.173,4.255.301,6.521l-6.524.356c-.123-2.215-.224-4.431-.301-6.649l6.524-.228ZM452.54,1114.365c.592,10.828,1.671,21.569,3.231,32.192l-6.452.937c-1.6-10.868-2.702-21.804-3.304-32.773l6.524-.356ZM455.771,1146.557l.035.149-6.455.941-.031-.152,6.452-.937ZM455.806,1146.706v.01l-3.228.46,3.228-.47ZM455.806,1146.716c.339,2.363.522,4.719.553,7.033l-6.528.08c-.029-2.072-.19-4.14-.481-6.192l6.452-.917.003-.003ZM456.359,1153.749c.031,2.307-.09,4.639-.363,6.96l-6.472-.74c.228-1.999.336-4.065.311-6.144l6.524-.076ZM455.996,1160.709c-1.394,11.945-6.717,23.088-15.131,31.68l-4.635-4.566c7.395-7.555,12.071-17.353,13.294-27.854l6.472.74ZM440.865,1192.389l-.01.031-2.307-2.311,2.318,2.28ZM440.855,1192.42c-.086.086.553-.73.381-.467l-5.431-3.618c.187-.284.318-.415.432-.533l4.618,4.618ZM441.235,1191.953l-.398.474-2.318-2.283,2.716,1.809ZM440.838,1192.427c-2.386,2.443-4.73,4.926-7.033,7.448l-4.815-4.407c2.359-2.577,4.763-5.113,7.209-7.607l4.639,4.566ZM428.99,1195.478v-.01l2.408,2.204-2.408-2.193ZM433.805,1199.864c-2.305,2.524-4.568,5.087-6.787,7.686l-4.947-4.231c2.262-2.653,4.569-5.267,6.919-7.842l4.815,4.386ZM422.061,1203.32h.01l2.47,2.117-2.484-2.117h.003ZM427.032,1207.551c-11.382,13.365-21.552,27.717-30.39,42.885l-5.628-3.262c9.027-15.51,19.417-30.186,31.047-43.853l4.971,4.231ZM391,1247.174h.01l2.812,1.633-2.83-1.633h.007ZM396.659,1250.436l-.131.218-5.659-3.262.128-.218,5.663,3.262ZM396.528,1250.654c-1.245,2.169-2.273,4.379-3.075,6.583l-6.116-2.217c.962-2.65,2.141-5.21,3.532-7.628l5.659,3.262ZM393.452,1257.237c-.814,2.241-1.436,4.548-1.858,6.894l-6.4-1.145c.484-2.705,1.2-5.376,2.138-7.967l6.119,2.217ZM391.595,1264.131c-2.193,12.167,1.08,24.683,8.949,34.219l-5.023,4.13c-9.082-11.006-12.86-25.451-10.329-39.495l6.403,1.145ZM400.544,1298.35l.637,1.245-3.148.82,2.511-2.065ZM401.18,1299.596l33.856,130.989-6.296,1.636-33.856-130.989,6.296-1.636ZM431.888,1434.667l-3.148-2.446,3.148-.82v3.266ZM431.888,1428.139h254.085v6.528h-254.098l.014-6.528ZM689.197,1431.809l-3.224,2.857v-3.262l3.224.405ZM682.749,1430.997l14.1-111.14,6.452.816-14.103,111.136-6.448-.813ZM703.311,1320.659l-.01.01-3.224-.405,3.234.394ZM696.835,1319.871c.048-.394-.086.796.041-.197l6.452.841c-.118.886.048-.367-.01.149l-6.472-.792h-.01ZM703.321,1320.5v.01l-3.228-.422,3.228.408v.003ZM696.87,1319.687c.865-6.784,2.148-13.422,3.809-19.86l6.32,1.605c-1.624,6.272-2.852,12.641-3.677,19.068l-6.452-.813ZM700.678,1299.828c1.671-6.476,3.744-12.842,6.206-19.061l6.068,2.397c-2.36,5.959-4.349,12.059-5.953,18.265l-6.32-1.602ZM706.884,1280.767c12.715-32.119,35.403-59.31,64.727-77.571l3.442,5.535c-28.134,17.524-49.902,43.614-62.101,74.433l-6.068-2.397ZM771.611,1203.196l2.601-.37-.882,3.138-1.719-2.767ZM774.212,1202.826l9.997,2.837-1.761,6.275-9.997-2.837,1.761-6.275ZM784.21,1205.662h.01l-.889,3.138.879-3.138ZM784.22,1205.662l.08.035-1.785,6.272-.076-.035,1.782-6.272ZM782.542,1211.958h-.035l.892-3.134-.858,3.134ZM784.272,1205.687c.675.183,1.418.311,2.207.363l-.484,6.528c-1.168-.093-2.325-.3-3.452-.619l1.73-6.272ZM786.479,1206.05c.771.048,1.508.041,2.179-.038l.761,6.472c-1.159.138-2.311.173-3.425.09l.484-6.524ZM788.658,1206.012c3.762-.444,7.053-2.739,8.769-6.116l5.815,2.93c-2.705,5.325-7.889,8.948-13.82,9.658l-.765-6.472ZM803.253,1202.815l-.01.01-2.906-1.463,2.916,1.453ZM797.417,1199.91l.038-.08,5.839,2.906-.041.08-5.836-2.906ZM797.455,1199.83c.346-.699.623-1.408.813-2.096l6.272,1.73c-.311,1.131-.726,2.238-1.245,3.273l-5.839-2.906ZM804.55,1199.453l-.01.01-3.138-.865,3.148.854ZM798.254,1197.747c.183-.678.308-1.404.363-2.155l6.528.484c-.089,1.143-.289,2.275-.595,3.38l-6.296-1.709ZM805.145,1196.063v.01l-3.266-.242,3.266.232ZM798.618,1195.603c.286-3.78-1.33-7.454-4.31-9.797l4.002-5.127c4.701,3.667,7.265,9.437,6.836,15.383l-6.528-.46ZM794.307,1185.806l-240.355-187.953,4.002-5.127,240.355,187.953-4.002,5.127ZM553.953,997.853l-1.263-2.307,3.262-.256-1.999,2.563ZM552.69,995.545l-6.317-79.107,6.524-.509,6.317,79.107-6.524.508ZM546.373,916.439l-.035-.277,6.528-.512.031.277-6.524.512ZM552.877,915.643v.007l-3.266.256,3.266-.263ZM546.349,916.172c-.197-2.446-.504-4.881-.92-7.299l6.42-1.097c.47,2.705.82,5.341,1.024,7.863l-6.524.533ZM545.429,908.873c-.42-2.402-.948-4.785-1.581-7.14l6.296-1.678c.682,2.525,1.252,5.109,1.705,7.721l-6.42,1.097ZM543.848,901.733c-3.24-12.095-9.204-23.289-17.435-32.725l4.895-4.29c8.891,10.189,15.334,22.276,18.836,35.337M528.191,1081.516c-.035.073.048-.135-.041.131l-6.244-1.885c.035-.09.048-.145.138-.38l6.14,2.138.007-.003ZM528.15,1081.647l-.031.08-3.096-1.024,3.127.944ZM528.119,1081.727c-.569,1.705-1.04,3.441-1.411,5.199l-6.372-1.325c.417-2.001.949-3.976,1.591-5.915l6.192,2.041ZM526.707,1086.926c-.366,1.743-.634,3.506-.803,5.279l-6.472-.585c.187-2.034.495-4.051.903-6.019l6.372,1.325ZM525.905,1092.205c-.857,9.123.958,18.298,5.224,26.408l-5.76,3.034c-4.848-9.222-6.911-19.654-5.936-30.027l6.472.585ZM531.128,1118.613l.045.069-5.763,3.034-.041-.069,5.763-3.034h-.003ZM531.173,1118.682c.841,1.602,1.778,3.148,2.788,4.622l-5.376,3.667c-1.152-1.681-2.214-3.442-3.172-5.258l5.76-3.03ZM533.962,1123.304c1.017,1.487,2.117,2.913,3.262,4.241l-4.919,4.251c-1.33-1.537-2.573-3.147-3.722-4.822l5.379-3.67ZM537.224,1127.545c6.026,6.966,13.959,12.015,22.821,14.526l-1.764,6.272c-10.089-2.861-19.12-8.613-25.979-16.546"/>
        <path class="cls-3" d="M557.768,997.974l-98.666,67.425-3.67-5.376,98.669-67.425"/>
        <path class="cls-7" d="M503.478,891.037c.117-7.15-5.585-13.041-12.735-13.158-7.15-.117-13.041,5.585-13.158,12.735-.002.141-.002.282,0,.423.117,7.15,6.008,12.852,13.158,12.735,6.985-.114,12.621-5.749,12.735-12.735"/>
        <path class="cls-3" d="M500.216,891.037v-.028h6.528v.028h-6.528ZM500.216,891.009c0-2.562-1.017-5.018-2.83-6.829l4.59-4.618c3.047,3.032,4.762,7.152,4.767,11.45l-6.528-.003ZM497.387,884.181c-1.807-1.805-4.254-2.822-6.808-2.83l.031-6.524c4.269.015,8.358,1.719,11.374,4.739l-4.587,4.615h-.01ZM490.589,874.827h.01l-.01,3.262v-3.262ZM490.589,881.351h-.048v-6.524h.048v6.524ZM490.541,881.351h-.035v-6.524h.035v6.524ZM490.506,881.351c-2.56,0-5.016,1.018-6.825,2.83l-4.618-4.587c3.031-3.046,7.15-4.761,11.447-4.767l-.003,6.524ZM483.681,884.181c-1.806,1.808-2.823,4.256-2.83,6.811l-6.524-.028c.011-4.269,1.716-8.36,4.739-11.374l4.615,4.587v.003ZM474.327,890.978v-.01l3.262.01h-3.262ZM480.851,890.978v.052h-6.524v-.052h6.524ZM480.851,891.03v.028h-6.524v-.028h6.524ZM480.851,891.058c0,2.674,1.086,5.092,2.83,6.829l-4.587,4.618c-3.045-3.032-4.76-7.15-4.767-11.447h6.524ZM483.681,897.886c1.806,1.806,4.254,2.824,6.808,2.833l-.031,6.524c-4.269-.013-8.359-1.717-11.374-4.739l4.59-4.615.007-.003ZM490.478,907.244h-.01l.01-3.262v3.262ZM490.478,900.72h.048v6.524h-.048v-6.524ZM490.527,900.72h.031v6.524h-.035l.003-6.524ZM490.558,900.72c2.562,0,5.019-1.019,6.829-2.833l4.615,4.587c-3.03,3.046-7.147,4.762-11.443,4.77v-6.524ZM497.387,897.886c1.733-1.737,2.823-4.151,2.83-6.808l6.524.028c-.013,4.269-1.717,8.359-4.739,11.374l-4.615-4.587v-.007ZM506.74,891.089v.01l-3.262-.01h3.262ZM500.216,891.089v-.052h6.524v.052M477.295,1200.093l.228-.118,2.906,5.839-.228.118-2.906-5.839ZM480.443,1205.808l-.01.01-1.453-2.92,1.463,2.909ZM477.513,1199.993c2.671-1.349,5.192-2.906,7.524-4.635l3.874,5.224c-2.67,1.977-5.503,3.724-8.468,5.224l-2.93-5.812ZM485.037,1195.357c2.335-1.73,4.521-3.656,6.521-5.735l4.691,4.514c-2.26,2.35-4.713,4.507-7.334,6.448l-3.878-5.227ZM491.558,1189.622c10.414-10.839,15.637-25.649,14.328-40.622l6.524-.564c1.461,16.851-4.431,33.512-16.162,45.697"/>
        <path class="cls-3" d="M522.065,1131.215l-.228.118-2.909-5.839.228-.118,2.906,5.839h.003ZM518.903,1125.501l.031-.01,1.453,2.92-1.484-2.909ZM521.861,1131.316c-.927.477-1.778,1.003-2.525,1.56l-3.895-5.199c1.089-.823,2.246-1.551,3.459-2.176l2.961,5.815ZM519.336,1132.876c-.779.587-1.508,1.237-2.179,1.944l-4.712-4.483c.923-.969,1.925-1.858,2.996-2.66l3.895,5.199ZM517.156,1134.82c-3.46,3.649-5.188,8.607-4.746,13.616l-6.524.564c-.59-6.873,1.798-13.67,6.559-18.663M558.702,1226.958l-.048.035-2.421-6.047.048-.035,2.421,6.047ZM558.654,1226.993c-3.362,1.349-6.853,2.781-10.426,4.262l-2.501-6.019c3.383-1.401,6.884-2.837,10.502-4.293l2.425,6.05ZM548.228,1231.254c-3.48,1.442-6.95,2.906-10.392,4.376l-2.553-5.991c3.48-1.487,6.97-2.961,10.447-4.4l2.498,6.016ZM537.836,1235.63c-17.764,7.58-35.327,15.623-52.671,24.122l-2.857-5.86c17.443-8.547,35.106-16.635,52.972-24.256"/>
        <path class="cls-3" d="M556.319,1220.904l.118-.041,2.345,6.068-.118.038-2.345-6.064ZM558.83,1226.913l-.048.01-1.173-3.03,1.221,3.02ZM556.381,1220.87c3.655-1.476,7.199-3.211,10.606-5.192l3.262,5.628c-3.668,2.137-7.483,4.01-11.416,5.608l-2.453-6.043ZM566.987,1215.677c3.357-1.957,6.57-4.15,9.617-6.562l4.054,5.127c-3.299,2.597-6.777,4.957-10.409,7.064l-3.262-5.628ZM576.604,1209.115c15.808-12.472,26.532-30.275,30.165-50.08l6.4,1.169c-3.907,21.365-15.465,40.574-32.51,54.034M524.231,1234.707h212.03v6.528h-212.03"/>
        <path class="cls-7" d="M573.1,1277.733c0-13.58-11.009-24.589-24.589-24.589s-24.589,11.009-24.589,24.589c.161,13.579,11.3,24.456,24.879,24.295,13.351-.159,24.136-10.943,24.295-24.295"/>
        <path class="cls-3" d="M569.834,1277.733v-.031h6.528v.031h-6.528ZM569.834,1277.702c-.002-5.652-2.252-11.071-6.254-15.062l4.618-4.618c5.227,5.215,8.164,12.296,8.164,19.68h-6.528ZM568.181,1258.022h.01l-2.307,2.311,2.293-2.311h.003ZM563.594,1262.64c-3.984-3.987-9.387-6.23-15.024-6.237v-6.528c7.36.006,14.416,2.937,19.614,8.147l-4.59,4.618ZM548.57,1256.403h-.048v-6.528h.048v6.528ZM548.522,1256.403h-.035v-6.528h.035v6.528ZM548.487,1256.403c-5.649-.005-11.067,2.24-15.055,6.241l-4.618-4.587c5.211-5.234,12.291-8.178,19.676-8.181l-.003,6.528ZM533.432,1262.644c-3.988,3.986-6.231,9.392-6.237,15.031h-6.524c.005-7.36,2.935-14.417,8.143-19.618l4.618,4.587ZM527.195,1277.674v.048h-6.524v-.048h6.524ZM527.195,1277.723v.031h-6.524v-.035l6.524.003ZM527.195,1277.754c-.003,5.649,2.242,11.067,6.241,15.058l-4.587,4.615c-5.233-5.21-8.177-12.289-8.181-19.673h6.528ZM533.436,1292.812c3.985,3.988,9.39,6.231,15.027,6.237v6.524c-7.36-.006-14.416-2.937-19.614-8.147l4.587-4.615ZM548.463,1299.049h.048v6.524h-.048v-6.524ZM548.511,1299.049h.031v6.524h-.035l.003-6.524ZM548.542,1299.049c5.651-.003,11.068-2.253,15.058-6.254l4.618,4.615c-5.215,5.226-12.294,8.163-19.676,8.164v-6.524ZM568.219,1297.396v.01l-2.311-2.311,2.311,2.297v.003ZM563.601,1292.809c3.988-3.985,6.231-9.39,6.237-15.027h6.524c-.006,7.359-2.935,14.415-8.143,19.614l-4.618-4.587ZM569.838,1277.782v-.048h6.524v.048"/>
        <path class="cls-7" d="M670.915,1277.733c.161-13.579-10.716-24.718-24.295-24.879-13.579-.161-24.718,10.716-24.879,24.295-.002.195-.002.39,0,.584.161,13.579,11.3,24.456,24.879,24.295,13.351-.159,24.136-10.943,24.295-24.295"/>
        <path class="cls-3" d="M667.653,1277.733v-.031h6.524v.031h-6.524ZM667.653,1277.702c-.001-5.652-2.252-11.071-6.254-15.062l4.615-4.618c5.226,5.216,8.163,12.296,8.164,19.68h-6.524ZM665.999,1258.022h.01l-2.307,2.311,2.293-2.311h.003ZM661.412,1262.64c-3.985-3.988-9.39-6.231-15.027-6.237v-6.528c7.36.006,14.416,2.937,19.614,8.147l-4.587,4.618ZM646.385,1256.403h-.048v-6.528h.048v6.528ZM646.336,1256.403h-.031v-6.528h.035l-.003,6.528ZM646.305,1256.403c-5.65-.004-11.07,2.241-15.062,6.241l-4.615-4.587c5.211-5.233,12.291-8.177,19.676-8.181v6.528ZM631.244,1262.644c-3.988,3.986-6.231,9.392-6.237,15.031h-6.524c.006-7.361,2.937-14.418,8.147-19.618l4.615,4.587ZM625.006,1277.674v.048h-6.524v-.048h6.524ZM625.006,1277.723v.031h-6.524v-.035l6.524.003ZM625.006,1277.754c-.003,5.649,2.242,11.067,6.241,15.058l-4.587,4.615c-5.232-5.21-8.175-12.289-8.178-19.673h6.524ZM631.247,1292.812c3.986,3.988,9.392,6.231,15.031,6.237v6.524c-7.361-.005-14.418-2.936-19.618-8.147l4.587-4.615ZM646.278,1299.049h.048v6.524h-.048v-6.524ZM646.326,1299.049h.031v6.524h-.035l.003-6.524ZM646.357,1299.049c5.651-.002,11.069-2.253,15.058-6.254l4.615,4.615c-5.214,5.225-12.292,8.162-19.673,8.164v-6.524ZM666.03,1297.396v.01l-2.307-2.311,2.307,2.297v.003ZM661.415,1292.809c3.988-3.985,6.231-9.39,6.237-15.027h6.524c-.006,7.36-2.937,14.416-8.147,19.614l-4.615-4.587ZM667.653,1277.782v-.045h6.524v.048M596.412,1190.833c1.148.346,2.3.671,3.439.976l-1.681,6.296c-1.211-.325-2.432-.671-3.622-1.027l1.865-6.244ZM599.851,1191.808c1.809.484,3.553.92,5.21,1.294l-1.429,6.348c-1.83-.411-3.651-.86-5.462-1.346l1.681-6.296ZM605.06,1193.102c1.754.394,3.504.758,5.251,1.079l-1.169,6.4c-1.844-.342-3.681-.719-5.511-1.131l1.429-6.348ZM610.311,1194.181c8.178,1.501,16.542,2.238,24.948,2.19l.031,6.524c-8.766.044-17.517-.732-26.138-2.318"/>
        <path class="cls-3" d="M635.26,1196.371c1.152-.003,2.259-.069,3.276-.166l.668,6.472c-1.356.138-2.667.211-3.923.218l-.031-6.524h.01ZM638.536,1196.205h.01l.318,3.238-.332-3.238h.003ZM638.546,1196.205c1.84-.183,3.67-.519,5.459-.993l1.657,6.296c-2.089.553-4.262.948-6.479,1.169l-.637-6.472ZM644.005,1195.212c1.757-.46,3.494-1.072,5.168-1.813l2.626,5.964c-1.961.865-4.023,1.588-6.137,2.145l-1.657-6.296ZM649.173,1193.399c8.037-3.54,14.454-9.966,17.981-18.009l5.96,2.594c-4.177,9.544-11.784,17.173-21.316,21.378"/>
        <path class="cls-3" d="M772.431,1209.094l-214.137-60.745,1.761-6.275,214.14,60.752M402.322,1313.828h298.17v6.524h-298.17M471.155,1378.627h221.079v6.528h-221.083"/>
        <path class="cls-3" d="M574.508,1356.474l-24.125,23.8-4.566-4.635,24.125-23.803"/>
        <path class="cls-3" d="M528.534,1354.149l24.129,23.807-4.566,4.635-24.129-23.8"/>
        <path class="cls-3" d="M530.817,1356.474l-24.129,23.8-4.566-4.635,24.129-23.803"/>
        <path class="cls-3" d="M484.84,1354.149l24.132,23.807-4.566,4.635-24.132-23.8M618.199,1356.474l-24.125,23.8-4.566-4.635,24.125-23.803"/>
        <path class="cls-3" d="M572.225,1354.149l24.129,21.486-4.566,4.639-24.125-21.482M661.9,1356.474l-24.132,23.8-4.566-4.635,24.132-23.803"/>
        <path class="cls-3" d="M615.919,1354.149l24.135,21.486-4.566,4.639-24.132-21.482M696.946,1365.046l-15.484,15.228-4.566-4.635,15.487-15.231"/>
        <path class="cls-3" d="M659.617,1354.149l24.129,23.807-4.566,4.635-24.129-23.8M574.508,1323.361l-24.125,23.803-4.566-4.635,24.125-23.807"/>
        <path class="cls-3" d="M528.534,1321.044l24.129,23.8-4.566,4.639-24.129-23.8"/>
        <path class="cls-3" d="M530.817,1323.361l-24.129,23.803-4.566-4.635,24.129-23.807"/>
        <path class="cls-3" d="M484.84,1321.044l24.132,23.8-4.566,4.639-24.132-23.8M618.199,1323.361l-24.125,23.803-4.566-4.635,24.125-23.807"/>
        <path class="cls-3" d="M572.225,1321.044l24.129,23.8-4.566,4.639-24.125-23.8M661.9,1323.361l-24.132,23.803-4.566-4.635,24.132-23.807"/>
        <path class="cls-3" d="M615.919,1321.044l24.135,23.8-4.566,4.639-24.132-23.8M701.751,1327.218l-20.289,19.946-4.566-4.635,20.289-19.95"/>
        <path class="cls-3" d="M659.617,1321.044l24.129,23.8-4.566,4.639-24.129-23.8M462.378,911.492l-28.556,1.695-.387-6.528,28.56-1.695M480.149,1205.957l-.086.041-2.802-5.888.086-.041,2.802,5.888ZM477.202,1200.142l.048-.035,1.401,2.947-1.449-2.913ZM480.107,1205.977c-5.542,2.767-10.72,6.019-15.47,9.651l-3.954-5.168c5.168-3.954,10.698-7.409,16.518-10.319l2.906,5.836ZM464.637,1215.629c-4.732,3.624-9.116,7.679-13.097,12.114l-4.843-4.359c4.252-4.732,8.934-9.058,13.986-12.924l3.954,5.168ZM451.541,1227.743c-20.765,23.111-29.118,54.814-22.437,85.157l-6.369,1.401c-7.132-32.396,1.788-66.243,23.959-90.917M485.158,1259.745l-.401.197-2.854-5.86.401-.197,2.854,5.86ZM481.879,1254.093l.031-.01,1.425,2.93-1.456-2.92ZM484.784,1259.928c-2.781,1.391-5.41,2.992-7.856,4.77l-3.826-5.275c2.774-2.015,5.71-3.798,8.776-5.331l2.906,5.836ZM476.928,1264.699c-2.439,1.771-4.73,3.738-6.849,5.881l-4.635-4.566c2.368-2.403,4.93-4.607,7.659-6.59l3.826,5.275ZM470.079,1270.58c-10.758,10.89-16.771,26.654-15.978,42.522l-6.441.228c-.882-17.694,5.753-35.139,17.781-47.316"/>
        <path class="cls-3" d="M408.621,1282.327l-6.116-.412-.09,2.397c-.035-.086.104-2.349.09-2.397l6.119.415-.003-.003ZM402.415,1284.313l6.22-1.937-6.13-.457-.09,2.394ZM408.635,1282.376c.46,1.571,1,3.138,1.602,4.68l-6.068,2.366c-.657-1.685-1.232-3.335-1.754-5.109l6.22-1.937ZM410.237,1287.056c.598,1.543,1.27,3.051,1.986,4.504l-5.836,2.878c-.809-1.647-1.557-3.324-2.214-5.016l6.064-2.366ZM412.222,1291.56c3.741,7.58,9.112,14.238,15.729,19.496l-4.054,5.096c-7.367-5.858-13.347-13.273-17.511-21.714"/>
        <path class="cls-3" d="M408.466,1284.514l-7.472,17.196-5.96-2.594,7.472-17.2M422.735,1314.301l.294-2.221,5.836,2.906-.035.073-6.095-.758ZM428.865,1314.99l-5.812-2.961,5.812,2.961ZM423.053,1312.029c.806-1.536,1.567-3.044,2.287-4.501l5.86,2.857c-.789,1.605-1.581,3.169-2.363,4.656l-5.784-3.013ZM425.34,1307.528c.851-1.733,1.588-3.266,2.179-4.556l5.912,2.698c-.83,1.806-1.577,3.383-2.231,4.715l-5.86-2.857ZM427.519,1302.972c3.607-7.854,6.693-15.937,9.236-24.198l6.22,1.91c-2.628,8.53-5.818,16.877-9.548,24.986"/>
        <path class="cls-3" d="M447.666,1313.329l-.035-.086,6.348-1.453.031.09-6.344,1.449ZM453.99,1311.773v.007l-3.176.726,3.176-.74v.007ZM447.642,1313.25c-.362-1.551-.743-3.097-1.142-4.639l6.296-1.636c.457,1.757.858,3.356,1.193,4.795l-6.348,1.481ZM446.5,1308.611c-.346-1.297-.771-2.837-1.28-4.604l6.275-1.785c.384,1.335.82,2.93,1.297,4.753l-6.292,1.636ZM451.482,1302.208l.01.01-3.138.892,3.124-.906.003.003ZM445.238,1304.02c-2.272-7.836-5.061-15.513-8.347-22.98l-.138-2.266,6.102-.36c3.398,7.732,6.28,15.68,8.627,23.793M477.278,1430.689l-9.444-48.603,6.403-1.242,9.447,48.603"/>
        <path class="cls-3" d="M468.069,1382.937l-22.174-64.803,6.168-2.093,22.174,64.803"/>
        <path class="cls-3" d="M487.126,1356.474l-17.328,17.106-4.566-4.639,17.331-17.106M487.126,1323.361l-25.803,25.446-4.566-4.635,25.806-25.45"/>
      </g>
    </g>
  </g>
</svg>