<?xml version="1.0" encoding="utf-8"?>
<!-- Generator: Adobe Illustrator 28.2.0, SVG Export Plug-In . SVG Version: 6.00 Build 0)  -->
<svg version="1.1"
	 id="svg2" xmlns:inkscape="http://www.inkscape.org/namespaces/inkscape" xmlns:svg="http://www.w3.org/2000/svg" xmlns:rdf="http://www.w3.org/1999/02/22-rdf-syntax-ns#" xmlns:sodipodi="http://sodipodi.sourceforge.net/DTD/sodipodi-0.dtd" xmlns:dc="http://purl.org/dc/elements/1.1/" xmlns:cc="http://creativecommons.org/ns#" inkscape:version="0.91 r13725" sodipodi:docname="Activision.svg"
	 xmlns="http://www.w3.org/2000/svg" xmlns:xlink="http://www.w3.org/1999/xlink" x="0px" y="0px" viewBox="0 0 1000 257.8"
	 style="enable-background:new 0 0 1000 257.8;" xml:space="preserve">
<style type="text/css">
	.st0{fill:#FFFFFF;}
</style>
<g id="g4192" transform="matrix(2.6858977,0,0,2.6858977,251.10894,-896.49681)">
	<path id="path47" inkscape:connector-curvature="0" class="st0" d="M34.7,360.1h14.9v56.7H34.7V360.1z"/>
	<path id="path49" inkscape:connector-curvature="0" class="st0" d="M252,392.6v23.9l-14.9-0.1v-58.1l26.9,23.2v-21.4h14.8v58.8
		L252,392.6"/>
	<path id="path51" inkscape:connector-curvature="0" class="st0" d="M-40.1,388.3c0-16.1,13.1-29.1,29.1-29.1c7.2,0,13.9,2.7,19,7
		l-9.6,10.9c-2.5-2.1-5.8-3.4-9.4-3.4c-8,0-14.6,6.5-14.6,14.6c0,8,6.5,14.6,14.6,14.6c3.6,0,6.9-1.3,9.5-3.5l9.6,10.9
		c-5.1,4.5-11.8,7.1-19.1,7.1C-27,417.4-40.1,404.4-40.1,388.3"/>
	<path id="path53" inkscape:connector-curvature="0" class="st0" d="M77.8,429.8l-28.1-74.7H26.2V417H10.8v-61.9h-34l7.9-14.9h76
		l17.1,44.8L95,340.2h73.6l8.1,14.9h-70.7L77.8,429.8"/>
	<path id="path55" inkscape:connector-curvature="0" class="st0" d="M125.3,416.6v-12.5h10.2c1.7,0,4.8-0.1,5.6-2.8
		c1.6-5.5-15.2-14.4-15.2-28c0-10.3,7.5-13.4,12.5-13.4h15.5v12.3h-9.6c0,0-2.7,0-3.5,1.1c-4.1,5.9,15.4,14.6,15.4,30.5
		c0,8.3-7.1,12.7-14.3,12.7H125.3"/>
	<path id="path57" inkscape:connector-curvature="0" class="st0" d="M106.2,359.9H121v56.7h-14.9V359.9z"/>
	<path id="path59" inkscape:connector-curvature="0" class="st0" d="M158.7,359.9h14.9v56.7h-14.9V359.9z"/>
	<path id="path63" inkscape:connector-curvature="0" sodipodi:nodetypes="cccccccccccc" class="st0" d="M-51.3,416.8l-3.9-10.5
		h-18.4l-3.9,10.5h-15.8l29-83l29,83H-51.3 M-69.2,391.1h8.8l-4.4-14.5L-69.2,391.1"/>
	<path id="path65" inkscape:connector-curvature="0" class="st0" d="M176.3,388.3c0-16.1,13.1-29.2,29.2-29.2
		c16.1,0,29.2,13.1,29.2,29.2c0,16.1-13.1,29.2-29.2,29.2C189.3,417.5,176.3,404.4,176.3,388.3 M190.9,388.3c0,8,6.5,14.5,14.5,14.5
		c8,0,14.5-6.5,14.5-14.5c0-8-6.5-14.5-14.5-14.5C197.4,373.8,190.9,380.3,190.9,388.3"/>
</g>
</svg>
