<?xml version="1.0" encoding="UTF-8"?>
<svg xmlns="http://www.w3.org/2000/svg" xmlns:xlink="http://www.w3.org/1999/xlink" width="px" height="100px" viewBox="0 0 442 100" version="1.1">
<g id="surface1">
<path style=" stroke:none;fill-rule:nonzero;fill:rgb(1.176471%,1.176471%,0.392157%);fill-opacity:1;" d="M 441.957031 79.464844 C 440.53125 83.125 437.542969 85.132812 434.292969 86.917969 C 430.949219 88.707031 427.742188 90.667969 424.445312 92.5 C 419.765625 95.042969 414.777344 93.792969 411.746094 89.464844 C 405.195312 80 400.605469 69.730469 398.824219 58.304688 C 398.511719 56.292969 397.890625 56.25 396.328125 57.1875 C 394.144531 58.4375 393.078125 59.910156 393.121094 62.679688 C 393.253906 69.644531 392.988281 76.652344 392.898438 83.617188 C 392.808594 89.285156 389.46875 93.125 383.808594 93.4375 C 379.886719 93.660156 375.921875 93.660156 372 93.394531 C 366.746094 92.992188 363.625 89.332031 363.445312 84.105469 C 363.402344 82.8125 364.027344 80.9375 362.867188 80.355469 C 361.753906 79.820312 360.640625 81.429688 359.570312 82.144531 C 356.941406 83.839844 354.445312 85.667969 351.816406 87.320312 C 347.273438 90.222656 342.058594 89.195312 338.894531 84.777344 C 337.960938 83.480469 337.425781 83.570312 336.445312 84.730469 C 322.589844 100.445312 298.929688 100.3125 285.207031 84.417969 C 283.46875 82.367188 283.199219 82.367188 281.507812 84.375 C 265.824219 103.035156 236.015625 99.332031 225.320312 77.410156 C 223.984375 74.6875 224.164062 74.332031 221.667969 76.742188 C 220.199219 78.167969 218.503906 79.417969 216.945312 80.804688 C 214.71875 82.8125 212.179688 83.75 209.191406 83.304688 C 207.988281 83.125 207.453125 83.570312 207.007812 84.644531 C 206.519531 85.894531 205.804688 87.054688 205.226562 88.214844 C 202.6875 93.214844 197.964844 95.042969 192.707031 92.855469 C 189.277344 91.429688 185.933594 89.910156 182.59375 88.257812 C 181.210938 87.589844 180.230469 87.679688 178.984375 88.527344 C 165.929688 97.679688 148.238281 95.667969 137.054688 83.882812 C 126.363281 72.589844 125.605469 54.867188 135.316406 42.457031 C 137.144531 40.089844 137.101562 40.132812 134.738281 38.125 C 132.601562 36.339844 131.53125 33.882812 131.484375 31.070312 C 131.398438 27.945312 131.351562 24.820312 131.484375 21.695312 C 131.707031 16.070312 135.363281 12.589844 141.019531 12.410156 C 141.242188 12.410156 141.464844 12.410156 141.691406 12.410156 C 144.40625 12.367188 146.144531 11.070312 146.945312 8.660156 C 148.0625 5.179688 150.957031 2.722656 154.609375 2.589844 C 159.289062 2.410156 163.96875 2.367188 168.644531 2.542969 C 173.234375 2.722656 176.398438 5.714844 176.976562 10.269531 C 177.246094 12.1875 178.136719 12.457031 179.785156 12.457031 C 193.730469 12.410156 207.675781 12.457031 221.667969 12.410156 C 225.589844 12.410156 229.066406 13.082031 231.160156 16.832031 C 231.648438 17.722656 232.496094 17.589844 233.34375 17.542969 C 245.195312 16.695312 257.046875 15.847656 268.855469 15 C 284.226562 13.882812 299.640625 12.769531 315.015625 11.652344 C 324.636719 10.9375 334.261719 10.222656 343.886719 9.554688 C 346.738281 9.332031 349.367188 9.957031 351.460938 12.007812 C 353.6875 14.195312 355.871094 16.382812 357.964844 18.75 C 359.035156 19.957031 360.195312 19.820312 361.398438 19.464844 C 362.734375 19.0625 362.15625 17.902344 362.199219 17.007812 C 362.378906 14.730469 361.886719 12.410156 362.601562 10.132812 C 363.757812 6.292969 366.921875 3.707031 370.886719 3.617188 C 375.65625 3.527344 380.378906 3.527344 385.144531 3.617188 C 390.136719 3.707031 393.789062 7.277344 394.011719 12.277344 C 394.144531 14.554688 393.96875 16.875 393.921875 19.195312 C 393.921875 19.820312 393.835938 20.667969 394.503906 20.980469 C 395.125 21.292969 395.527344 20.535156 395.972656 20.179688 C 401.988281 15.757812 408.003906 11.25 414.0625 6.875 C 419.230469 3.167969 425.515625 4.644531 428.230469 10.042969 C 429.167969 11.917969 429.210938 13.929688 428.988281 15.9375 C 428.367188 22.320312 427.832031 28.792969 427.742188 35.269531 C 427.5625 47.769531 430.816406 59.152344 438.523438 69.152344 C 439.90625 70.9375 441.019531 72.945312 441.910156 75 Z M 356.09375 27.230469 C 354.179688 25.3125 352.261719 23.347656 350.304688 21.472656 C 348.742188 20 347.585938 20.3125 346.960938 22.410156 C 346.648438 23.527344 346.695312 24.730469 346.605469 25.894531 C 345.9375 27.589844 346.472656 29.644531 345.179688 31.207031 C 342.996094 32.230469 340.8125 33.167969 338.671875 34.285156 C 336.578125 35.402344 336.625 36.5625 338.628906 37.855469 C 338.984375 38.167969 339.34375 38.4375 339.875 38.4375 C 340.5 38.792969 341.078125 39.242188 341.746094 39.464844 C 344.464844 40.445312 346.738281 41.742188 346.605469 45.179688 C 346.515625 45.3125 346.558594 45.445312 346.695312 45.582031 C 346.695312 45.847656 346.738281 46.070312 346.738281 46.339844 C 346.871094 47.367188 346.871094 48.394531 347.09375 49.417969 C 347.628906 51.742188 348.964844 52.1875 350.703125 50.535156 C 351.996094 49.332031 353.289062 48.082031 354.359375 46.652344 C 355.515625 45.132812 356.941406 44.820312 358.636719 45.179688 C 360.285156 45.492188 361.976562 45.804688 363.667969 45.980469 C 364.648438 46.070312 365.808594 46.519531 366.476562 45.3125 C 367.054688 44.242188 366.386719 43.347656 365.941406 42.410156 C 364.871094 40.179688 363.222656 38.167969 362.644531 35.714844 C 363.089844 34.507812 364.160156 33.570312 364.027344 32.1875 C 364.203125 32.007812 364.339844 31.832031 364.515625 31.652344 C 365.09375 31.429688 365.140625 30.894531 365.316406 30.402344 C 365.585938 29.910156 365.941406 29.417969 366.164062 28.839844 C 367.054688 26.695312 366.566406 26.027344 364.070312 26.027344 C 361.351562 26.429688 358.722656 26.832031 356.09375 27.230469 Z M 171.988281 19.285156 C 169.582031 19.644531 168.914062 18.480469 169.226562 16.25 C 169.402344 14.777344 169.226562 13.257812 169.359375 11.785156 C 169.492188 10 168.601562 9.375 166.996094 9.375 C 163.121094 9.375 159.289062 9.375 155.414062 9.375 C 153.808594 9.375 153.140625 10.132812 153.230469 11.695312 C 153.320312 13.617188 153.183594 15.582031 153.320312 17.5 C 153.40625 18.882812 152.875 19.285156 151.535156 19.242188 C 148.105469 19.152344 144.71875 19.285156 141.289062 19.195312 C 139.195312 19.105469 138.304688 20 138.347656 22.054688 C 138.390625 24.597656 138.4375 27.097656 138.347656 29.644531 C 138.304688 31.785156 139.285156 32.5 141.332031 32.410156 C 144.09375 32.277344 146.8125 32.367188 149.574219 32.367188 C 154.65625 32.410156 153.542969 31.382812 153.71875 37.054688 C 153.765625 37.855469 153.40625 38.167969 152.605469 38.4375 C 135.675781 43.527344 129.75 64.644531 141.777344 78.214844 C 151.179688 88.792969 168.734375 89.152344 178.136719 78.527344 C 183.039062 72.992188 184.820312 66.25 185.398438 59.0625 C 185.488281 57.589844 184.730469 57.007812 183.4375 56.917969 C 181.34375 56.832031 179.296875 56.832031 177.199219 56.832031 C 172.253906 56.832031 172.253906 56.832031 171.230469 61.519531 C 170.964844 62.769531 170.695312 63.972656 170.25 65.179688 C 169.359375 67.632812 167.976562 69.6875 165.660156 70.9375 C 159.289062 74.417969 151.179688 70 150.15625 62.5 C 149.753906 59.644531 150.289062 57.054688 152.25 54.820312 C 152.652344 54.375 153.050781 53.839844 153.71875 54.019531 C 154.566406 54.242188 154.121094 55 154.164062 55.535156 C 154.210938 58.125 154.210938 60.714844 154.253906 63.347656 C 154.300781 65.847656 154.789062 66.382812 157.238281 66.429688 C 159.914062 66.472656 162.585938 66.472656 165.261719 66.429688 C 168.023438 66.382812 168.378906 66.070312 168.46875 63.394531 C 168.558594 59.730469 168.601562 56.117188 168.601562 52.457031 C 168.601562 51.207031 168.957031 50.757812 170.292969 50.804688 C 173.679688 50.9375 177.113281 50.757812 180.542969 51.207031 C 187.09375 52.054688 190.390625 56.292969 189.410156 62.8125 C 189.277344 63.839844 188.964844 64.820312 188.742188 65.847656 C 187.804688 69.957031 185.933594 73.617188 184.0625 77.367188 C 183.484375 78.527344 182.949219 79.867188 184.507812 80.625 C 188.117188 82.367188 191.726562 84.019531 195.425781 85.582031 C 196.359375 85.980469 197.386719 85.894531 198.054688 84.6875 C 202.152344 77.230469 204.871094 69.417969 204.871094 60.757812 C 204.871094 47.5 196.269531 38.257812 183.039062 37.410156 C 178.984375 37.144531 174.882812 37.1875 170.785156 37.054688 C 170.117188 37.007812 169.269531 37.410156 168.957031 36.339844 C 168.15625 33.75 169.179688 32.320312 171.765625 32.367188 C 173.191406 32.367188 174.570312 32.320312 175.996094 32.320312 C 183.707031 32.320312 191.460938 32.320312 199.167969 32.320312 C 200.191406 32.320312 201.527344 32.632812 201.484375 30.804688 C 201.394531 27.679688 201.441406 24.554688 201.441406 21.429688 C 201.441406 20.222656 200.996094 19.417969 199.703125 19.285156 C 190.390625 19.332031 181.210938 19.332031 171.988281 19.285156 Z M 385.8125 35.667969 C 385.8125 34.597656 385.8125 34.152344 385.8125 33.707031 C 385.949219 26.875 386.035156 20.042969 386.214844 13.214844 C 386.261719 11.117188 385.457031 10.269531 383.320312 10.3125 C 379.398438 10.445312 375.433594 10.402344 371.511719 10.355469 C 369.730469 10.355469 368.882812 11.117188 368.925781 12.902344 C 368.925781 13.570312 368.925781 14.242188 368.925781 14.910156 C 369.148438 25 369.371094 35.089844 369.597656 45.222656 C 369.640625 46.5625 369.148438 47.320312 368.035156 48.082031 C 358.410156 54.644531 348.878906 61.339844 339.296875 67.902344 C 337.691406 69.019531 337.605469 70.132812 338.628906 71.605469 C 340.054688 73.660156 341.480469 75.757812 342.90625 77.855469 C 344.644531 80.402344 346.78125 80.804688 349.324219 79.105469 C 355.648438 74.820312 361.976562 70.535156 368.304688 66.25 C 368.792969 65.9375 369.238281 65.355469 369.863281 65.757812 C 370.042969 65.894531 369.996094 66.429688 369.996094 66.785156 C 370.042969 72.054688 370.085938 77.320312 370.175781 82.589844 C 370.21875 85.089844 370.664062 85.535156 373.203125 85.582031 C 376.101562 85.625 378.996094 85.625 381.894531 85.582031 C 384.34375 85.535156 384.835938 85.042969 384.878906 82.542969 C 385.011719 73.929688 385.191406 65.3125 385.28125 56.695312 C 385.28125 55.269531 385.769531 54.375 386.929688 53.570312 C 392.1875 50.089844 397.355469 46.519531 402.566406 42.945312 C 403.546875 42.277344 404.171875 42.144531 404.214844 43.617188 C 404.261719 44.730469 404.394531 45.847656 404.4375 46.964844 C 404.882812 60.667969 409.160156 73.125 416.914062 84.375 C 417.941406 85.847656 419.054688 86.25 420.65625 85.269531 C 424.398438 83.035156 428.230469 80.9375 432.019531 78.707031 C 434.46875 77.277344 434.605469 76.742188 432.953125 74.332031 C 430.636719 70.980469 428.320312 67.589844 426.359375 64.019531 C 420.925781 54.152344 419.675781 43.394531 419.855469 32.367188 C 419.945312 26.339844 420.433594 20.355469 421.058594 14.375 C 421.148438 13.394531 421.191406 12.320312 420.210938 11.785156 C 419.320312 11.292969 418.472656 11.832031 417.714844 12.320312 C 417.226562 12.632812 416.738281 12.992188 416.246094 13.347656 C 409.027344 18.660156 401.808594 24.019531 394.546875 29.285156 C 391.917969 31.429688 389.066406 33.347656 385.8125 35.667969 Z M 281.996094 24.957031 C 282.21875 28.214844 282.53125 31.472656 282.710938 34.730469 C 282.800781 36.917969 283.78125 37.679688 285.964844 37.5 C 295.140625 36.742188 304.277344 36.160156 313.453125 35.402344 C 314.925781 35.269531 315.414062 35.714844 315.503906 37.144531 C 315.683594 40.9375 315.996094 44.6875 316.261719 48.480469 C 316.351562 49.597656 316.171875 50.9375 317.554688 51.292969 C 318.890625 51.652344 319.691406 50.667969 320.496094 49.730469 C 326.554688 42.5 332.660156 35.3125 338.71875 28.125 C 341.078125 25.355469 343.441406 22.589844 345.757812 19.777344 C 346.25 19.195312 346.828125 18.527344 346.335938 17.589844 C 345.847656 16.652344 345.046875 16.429688 344.109375 16.519531 C 343.664062 16.5625 343.21875 16.5625 342.773438 16.5625 C 331.589844 17.320312 320.449219 18.082031 309.265625 18.839844 C 300.890625 19.417969 292.558594 20 284.179688 20.625 C 282.710938 20.714844 281.773438 21.339844 281.996094 22.992188 C 282.042969 23.617188 281.996094 24.285156 281.996094 24.957031 Z M 293.539062 61.695312 L 293.539062 61.742188 C 291.976562 61.742188 290.417969 61.742188 288.859375 61.742188 C 283.734375 61.742188 283.421875 62.097656 284.492188 67.054688 C 287.566406 81.652344 301.378906 90.804688 316.039062 87.855469 C 326.554688 85.757812 335.289062 76.472656 336.800781 65.757812 C 337.292969 62.320312 336.800781 61.742188 333.238281 61.742188 C 329.226562 61.742188 325.21875 61.832031 321.207031 61.742188 C 319.515625 61.695312 318.625 62.367188 318.132812 63.929688 C 317.019531 67.589844 314.035156 69.867188 310.46875 69.910156 C 307.082031 69.957031 304.054688 67.679688 302.9375 64.105469 C 302.40625 62.410156 301.425781 61.5625 299.507812 61.652344 C 297.546875 61.832031 295.542969 61.695312 293.539062 61.695312 Z M 238.289062 61.742188 C 235.925781 61.742188 233.519531 61.695312 231.160156 61.785156 C 229.375 61.832031 228.574219 62.632812 228.84375 64.644531 C 230.980469 80.582031 244.703125 90.714844 260.523438 87.902344 C 271.035156 86.027344 280.347656 76.160156 281.550781 65.535156 C 281.953125 62.1875 281.550781 61.742188 278.253906 61.742188 C 274.109375 61.695312 269.921875 61.785156 265.777344 61.695312 C 264.128906 61.652344 263.375 62.457031 262.925781 63.882812 C 261.769531 67.589844 258.871094 69.867188 255.265625 69.867188 C 251.832031 69.910156 248.890625 67.679688 247.6875 64.105469 C 247.109375 62.457031 246.21875 61.519531 244.257812 61.652344 C 242.296875 61.875 240.292969 61.742188 238.289062 61.742188 Z M 216.8125 19.242188 C 215.253906 19.242188 213.691406 19.285156 212.132812 19.242188 C 210.21875 19.152344 209.371094 19.820312 209.328125 21.917969 C 208.96875 38.707031 208.523438 55.445312 208.125 72.230469 C 208.078125 73.4375 207.902344 74.730469 209.28125 75.3125 C 210.527344 75.847656 211.375 74.910156 212.222656 74.195312 C 220.734375 66.785156 229.242188 59.375 237.707031 51.964844 C 238.511719 51.25 239.578125 50.582031 239.089844 49.195312 C 238.554688 47.769531 237.261719 47.855469 236.105469 47.8125 C 233.121094 47.769531 230.179688 47.679688 227.191406 47.855469 C 225.320312 47.992188 224.964844 47.367188 224.964844 45.625 C 224.875 37.8125 224.652344 30.042969 224.519531 22.230469 C 224.476562 19.777344 223.941406 19.195312 221.535156 19.152344 C 219.929688 19.195312 218.371094 19.195312 216.8125 19.242188 Z M 233.964844 28.304688 C 234.1875 31.339844 234.5 34.597656 234.632812 37.855469 C 234.722656 39.777344 235.613281 40.402344 237.484375 40.269531 C 241.496094 39.910156 245.460938 39.730469 249.472656 39.375 C 251.074219 39.242188 251.742188 39.6875 251.742188 41.382812 C 251.832031 44.777344 252.144531 48.214844 252.367188 51.605469 C 252.457031 52.632812 252.722656 53.527344 253.792969 53.929688 C 254.90625 54.332031 255.621094 53.570312 256.246094 52.8125 C 263.460938 43.660156 270.636719 34.464844 277.808594 25.3125 C 278.433594 24.554688 279.28125 23.707031 278.523438 22.542969 C 277.855469 21.519531 276.785156 21.5625 275.714844 21.652344 C 272.238281 21.917969 268.765625 22.1875 265.289062 22.410156 C 255.976562 23.035156 246.621094 23.660156 237.308594 24.332031 C 233.964844 24.507812 233.832031 24.777344 233.964844 28.304688 Z M 284.269531 54.957031 C 289.304688 54.910156 294.339844 55 299.375 54.910156 C 304.675781 54.777344 308.640625 56.5625 310.246094 62.007812 C 310.335938 62.367188 310.46875 62.945312 311.046875 62.902344 C 311.582031 62.855469 311.804688 62.457031 311.851562 62.007812 C 311.984375 61.117188 312.296875 60.269531 312.832031 59.554688 C 313.765625 58.394531 313.410156 57.632812 312.386719 56.742188 C 310.648438 55.3125 309.757812 53.347656 309.578125 51.160156 C 309.398438 49.332031 309.222656 47.457031 309.175781 45.625 C 309.132812 44.152344 308.417969 43.707031 307.039062 43.839844 C 300.621094 44.332031 294.160156 44.644531 287.746094 45.3125 C 283.511719 45.714844 279.949219 44.957031 277.453125 41.25 C 276.917969 40.445312 276.382812 40.269531 275.714844 41.117188 C 272.507812 45.222656 269.300781 49.285156 266.136719 53.394531 C 265.289062 54.507812 265.554688 55.042969 267.070312 55 C 272.820312 54.910156 278.523438 54.957031 284.269531 54.957031 Z M 342.949219 57.5 C 340.722656 54.597656 340.320312 51.339844 339.832031 48.035156 C 339.566406 46.160156 337.425781 46.027344 336.089844 45.269531 C 335.066406 44.6875 334.394531 45.804688 333.773438 46.519531 C 331.902344 48.707031 330.03125 50.9375 328.203125 53.214844 C 327.890625 53.617188 327.179688 54.105469 327.625 54.730469 C 327.847656 55 328.558594 54.957031 329.050781 54.957031 C 333.773438 55 338.628906 54.152344 342.949219 57.5 Z M 342.949219 57.5 "/>
<path style=" stroke:none;fill-rule:nonzero;fill:rgb(1.176471%,1.176471%,0.784314%);fill-opacity:1;" d="M 0.0429688 62.5 C 2.363281 60.222656 3.519531 57.097656 5.523438 54.644531 C 8.777344 50.625 8.644531 45.625 9.800781 41.027344 C 11.941406 32.5 15.28125 24.507812 20.71875 17.589844 C 27.359375 9.105469 36.046875 3.527344 46.429688 0.535156 C 47.140625 0.3125 48.078125 1.027344 48.609375 0.0429688 L 61.085938 0.0429688 C 63.625 1.207031 66.433594 1.207031 69.0625 2.1875 C 76.457031 4.957031 82.742188 9.152344 87.820312 15.355469 C 92.320312 20.804688 95.128906 27.054688 97.578125 33.527344 C 99.582031 38.792969 100.875 44.242188 101.988281 49.730469 C 102.613281 52.8125 105.019531 54.730469 106.445312 57.277344 C 107.425781 58.972656 108.671875 60.492188 109.742188 62.097656 C 111.125 64.152344 110.589844 65.9375 108.273438 66.964844 C 107.558594 66.519531 106.933594 65.847656 106 66.070312 C 104.796875 66.070312 103.414062 65.757812 103.773438 67.769531 C 102.167969 69.152344 102.835938 71.160156 102.523438 72.855469 C 101.144531 80.894531 98.601562 88.304688 91.5625 93.257812 C 87.867188 95.894531 83.542969 96.785156 79.265625 97.679688 C 75.210938 98.570312 71.203125 99.507812 67.011719 99.507812 C 66.699219 99.507812 66.433594 99.597656 66.390625 99.957031 L 43.21875 99.957031 C 43.128906 99.597656 42.90625 99.507812 42.597656 99.507812 C 36.402344 99.375 30.386719 97.992188 24.640625 95.847656 C 16.84375 92.945312 11.183594 87.679688 8.910156 79.285156 C 8.152344 76.429688 7.574219 73.617188 7.574219 70.667969 C 7.574219 68.839844 7.171875 67.320312 4.722656 67.8125 C 2.761719 68.214844 1.425781 66.964844 0 66.027344 Z M 5.257812 60.355469 C 5.125 60.402344 5.078125 60.445312 5.078125 60.582031 C 4.589844 61.382812 3.742188 61.917969 3.609375 62.945312 C 3.03125 63.75 3.03125 64.332031 3.652344 64.644531 C 5.125 64.195312 7.707031 65.269531 7.128906 62.054688 C 7.128906 61.742188 7.128906 61.429688 7.128906 61.160156 L 7.128906 57.410156 C 6.28125 58.527344 5.660156 59.242188 5.390625 60.269531 Z M 13.855469 37.320312 C 13.5 37.632812 13.367188 38.035156 13.457031 38.480469 C 11.226562 45.132812 9.890625 51.964844 10.292969 59.019531 C 10.695312 66.070312 9.757812 73.125 12.34375 80.089844 C 14.613281 86.292969 18.847656 90.355469 24.59375 92.632812 C 30.296875 94.910156 36.359375 96.160156 42.597656 96.652344 C 56.941406 97.722656 71.066406 97.320312 84.96875 93.035156 C 91.921875 90.894531 95.617188 86.070312 97.980469 79.777344 C 100.027344 74.285156 100.164062 68.527344 100.207031 62.722656 C 100.253906 56.382812 99.40625 50.132812 97.890625 44.0625 C 97.089844 40.847656 95.972656 37.589844 94.773438 34.417969 C 92.542969 28.347656 89.960938 22.589844 85.90625 17.5 C 80.113281 10.355469 72.9375 5.625 63.804688 3.972656 C 63.714844 3.480469 63.402344 3.304688 62.957031 3.082031 C 58.679688 1.027344 54.136719 2.007812 49.679688 1.875 C 49.28125 1.875 49.101562 2.277344 49.011719 2.679688 C 48.921875 2.769531 48.832031 2.769531 48.699219 2.722656 C 48.300781 2.679688 47.941406 2.722656 47.675781 3.082031 C 47.585938 3.125 47.496094 3.167969 47.363281 3.257812 C 46.070312 3.617188 44.691406 3.707031 43.53125 4.507812 C 42.597656 4.332031 42.328125 5.582031 41.480469 5.445312 C 39.96875 5.445312 38.988281 6.5625 37.695312 7.097656 C 33.550781 8.839844 30.164062 11.605469 27.046875 14.730469 C 26.957031 14.820312 26.867188 14.957031 26.777344 15.042969 C 21.34375 20.089844 17.824219 26.292969 15.148438 33.082031 C 13.855469 33.75 14.4375 35 14.257812 35.980469 C 13.992188 36.117188 13.855469 36.339844 13.902344 36.652344 C 13.902344 36.875 13.855469 37.097656 13.855469 37.320312 Z M 103.058594 58.082031 C 103.058594 59.820312 103.015625 61.339844 103.058594 62.855469 C 103.105469 63.75 103.460938 64.507812 104.394531 64.644531 C 105.242188 64.777344 106.179688 65.042969 106.890625 64.332031 C 107.292969 63.972656 107.023438 63.347656 106.847656 63.125 C 105.507812 61.5625 104.976562 59.332031 103.058594 58.082031 Z M 103.058594 58.082031 "/>
<path style=" stroke:none;fill-rule:nonzero;fill:rgb(16.862745%,13.333333%,12.156863%);fill-opacity:1;" d="M 103.816406 67.769531 C 103.460938 65.757812 104.886719 66.070312 106.042969 66.070312 C 106.042969 66.605469 106.042969 67.1875 106.042969 67.722656 C 105.285156 67.722656 104.53125 67.722656 103.816406 67.769531 Z M 103.816406 67.769531 "/>
<path style=" stroke:none;fill-rule:nonzero;fill:rgb(14.117647%,11.372549%,0%);fill-opacity:1;" d="M 106.042969 67.722656 C 106.042969 67.1875 106.042969 66.605469 106.042969 66.070312 C 107.023438 65.894531 107.648438 66.519531 108.316406 66.964844 C 107.691406 67.589844 106.980469 67.992188 106.042969 67.722656 Z M 106.042969 67.722656 "/>
<path style=" stroke:none;fill-rule:nonzero;fill:rgb(98.823529%,88.627451%,0%);fill-opacity:1;" d="M 199.613281 19.332031 C 200.90625 19.464844 201.351562 20.269531 201.351562 21.472656 C 201.351562 24.597656 201.351562 27.722656 201.394531 30.847656 C 201.441406 32.679688 200.148438 32.367188 199.078125 32.367188 C 191.371094 32.367188 183.617188 32.367188 175.910156 32.367188 C 174.484375 32.367188 173.101562 32.410156 171.675781 32.410156 C 169.046875 32.367188 168.066406 33.792969 168.867188 36.382812 C 169.179688 37.457031 170.070312 37.097656 170.695312 37.097656 C 174.75 37.230469 178.847656 37.1875 182.949219 37.457031 C 196.183594 38.257812 204.78125 47.5 204.78125 60.804688 C 204.78125 69.417969 202.0625 77.230469 197.964844 84.730469 C 197.296875 85.980469 196.269531 86.027344 195.335938 85.625 C 191.683594 84.0625 188.027344 82.367188 184.417969 80.667969 C 182.816406 79.910156 183.394531 78.617188 183.972656 77.410156 C 185.800781 73.707031 187.714844 70 188.652344 65.894531 C 188.875 64.867188 189.140625 63.882812 189.320312 62.855469 C 190.300781 56.339844 187.003906 52.097656 180.453125 51.25 C 177.066406 50.804688 173.636719 50.980469 170.207031 50.847656 C 168.914062 50.804688 168.511719 51.25 168.511719 52.5 C 168.511719 56.160156 168.46875 59.777344 168.378906 63.4375 C 168.289062 66.117188 167.933594 66.472656 165.171875 66.472656 C 162.496094 66.519531 159.824219 66.519531 157.152344 66.472656 C 154.699219 66.429688 154.210938 65.894531 154.164062 63.394531 C 154.121094 60.804688 154.121094 58.214844 154.078125 55.582031 C 154.078125 55.042969 154.476562 54.285156 153.628906 54.0625 C 152.960938 53.882812 152.5625 54.464844 152.160156 54.867188 C 150.199219 57.054688 149.664062 59.644531 150.066406 62.542969 C 151.089844 70 159.199219 74.417969 165.570312 70.980469 C 167.890625 69.6875 169.316406 67.632812 170.160156 65.222656 C 170.605469 64.0625 170.875 62.8125 171.140625 61.5625 C 172.167969 56.875 172.121094 56.875 177.113281 56.875 C 179.207031 56.875 181.253906 56.875 183.351562 56.964844 C 184.640625 57.007812 185.398438 57.632812 185.308594 59.105469 C 184.777344 66.292969 182.949219 73.035156 178.046875 78.570312 C 168.691406 89.152344 151.089844 88.839844 141.691406 78.257812 C 129.660156 64.6875 135.628906 43.570312 152.515625 38.480469 C 153.320312 38.257812 153.628906 37.902344 153.628906 37.097656 C 153.453125 31.429688 154.566406 32.457031 149.488281 32.410156 C 146.722656 32.367188 144.007812 32.320312 141.242188 32.457031 C 139.195312 32.542969 138.214844 31.832031 138.257812 29.6875 C 138.347656 27.144531 138.304688 24.644531 138.257812 22.097656 C 138.214844 20.042969 139.105469 19.152344 141.199219 19.242188 C 144.628906 19.332031 148.015625 19.195312 151.449219 19.285156 C 152.785156 19.332031 153.320312 18.929688 153.230469 17.542969 C 153.097656 15.625 153.230469 13.660156 153.140625 11.742188 C 153.050781 10.132812 153.71875 9.417969 155.324219 9.417969 C 159.199219 9.417969 163.03125 9.417969 166.910156 9.417969 C 168.511719 9.417969 169.402344 10.089844 169.269531 11.832031 C 169.136719 13.304688 169.359375 14.820312 169.136719 16.292969 C 168.824219 18.527344 169.492188 19.6875 171.898438 19.332031 C 172.390625 19.820312 173.011719 19.6875 173.59375 19.6875 C 181.746094 19.6875 189.898438 19.6875 198.007812 19.6875 C 198.632812 19.6875 199.167969 19.730469 199.613281 19.332031 Z M 199.613281 19.332031 "/>
<path style=" stroke:none;fill-rule:nonzero;fill:rgb(98.823529%,88.627451%,0%);fill-opacity:1;" d="M 385.8125 35.667969 C 389.066406 33.394531 391.917969 31.429688 394.679688 29.375 C 401.945312 24.0625 409.160156 18.75 416.378906 13.394531 C 416.871094 13.035156 417.316406 12.679688 417.851562 12.367188 C 418.609375 11.875 419.453125 11.339844 420.34375 11.832031 C 421.324219 12.367188 421.28125 13.4375 421.191406 14.417969 C 420.613281 20.402344 420.078125 26.382812 419.988281 32.410156 C 419.8125 43.4375 421.058594 54.195312 426.496094 64.0625 C 428.453125 67.632812 430.773438 70.980469 433.089844 74.375 C 434.738281 76.742188 434.605469 77.277344 432.152344 78.75 C 428.410156 80.980469 424.578125 83.082031 420.792969 85.3125 C 419.1875 86.25 418.074219 85.894531 417.046875 84.417969 C 409.296875 73.167969 404.972656 60.714844 404.574219 47.007812 C 404.527344 45.894531 404.394531 44.777344 404.351562 43.660156 C 404.304688 42.1875 403.679688 42.320312 402.703125 42.992188 C 397.488281 46.5625 392.320312 50.132812 387.0625 53.617188 C 385.859375 54.417969 385.414062 55.3125 385.414062 56.742188 C 385.324219 65.355469 385.144531 73.972656 385.011719 82.589844 C 384.96875 85.089844 384.476562 85.625 382.027344 85.625 C 379.128906 85.667969 376.234375 85.667969 373.339844 85.625 C 370.796875 85.582031 370.351562 85.089844 370.308594 82.632812 C 370.21875 77.367188 370.175781 72.097656 370.128906 66.832031 C 370.128906 66.472656 370.175781 65.9375 369.996094 65.804688 C 369.371094 65.402344 368.925781 65.980469 368.4375 66.292969 C 362.109375 70.582031 355.785156 74.867188 349.457031 79.152344 C 346.917969 80.847656 344.777344 80.445312 343.039062 77.902344 C 341.613281 75.804688 340.1875 73.75 338.761719 71.652344 C 337.738281 70.179688 337.828125 69.0625 339.429688 67.945312 C 349.011719 61.339844 358.546875 54.6875 368.171875 48.125 C 369.328125 47.367188 369.773438 46.5625 369.730469 45.269531 C 369.460938 35.179688 369.285156 25.089844 369.0625 14.957031 C 369.0625 14.285156 369.0625 13.617188 369.0625 12.945312 C 369.015625 11.160156 369.863281 10.402344 371.644531 10.402344 C 375.566406 10.445312 379.53125 10.445312 383.453125 10.355469 C 385.589844 10.3125 386.394531 11.160156 386.347656 13.257812 C 386.171875 20.089844 386.082031 26.917969 385.949219 33.75 C 385.8125 34.152344 385.8125 34.597656 385.8125 35.667969 Z M 385.8125 35.667969 "/>
<path style=" stroke:none;fill-rule:nonzero;fill:rgb(98.823529%,88.627451%,0%);fill-opacity:1;" d="M 281.996094 24.957031 C 281.996094 24.285156 282.042969 23.617188 281.996094 22.945312 C 281.820312 21.25 282.753906 20.667969 284.179688 20.582031 C 292.558594 20 300.890625 19.375 309.265625 18.792969 C 320.449219 18.035156 331.589844 17.277344 342.773438 16.519531 C 343.21875 16.472656 343.664062 16.472656 344.109375 16.472656 C 345.046875 16.429688 345.847656 16.605469 346.335938 17.542969 C 346.828125 18.480469 346.25 19.152344 345.757812 19.730469 C 343.441406 22.542969 341.078125 25.3125 338.71875 28.082031 C 332.613281 35.269531 326.554688 42.457031 320.496094 49.6875 C 319.691406 50.625 318.847656 51.605469 317.554688 51.25 C 316.21875 50.894531 316.351562 49.554688 316.261719 48.4375 C 315.996094 44.644531 315.683594 40.894531 315.503906 37.097656 C 315.414062 35.667969 314.925781 35.222656 313.453125 35.355469 C 304.277344 36.117188 295.140625 36.695312 285.964844 37.457031 C 283.78125 37.632812 282.84375 36.917969 282.710938 34.6875 C 282.53125 31.472656 282.21875 28.214844 281.996094 24.957031 Z M 281.996094 24.957031 "/>
<path style=" stroke:none;fill-rule:nonzero;fill:rgb(98.431373%,88.235294%,0%);fill-opacity:1;" d="M 293.539062 61.695312 C 295.542969 61.695312 297.546875 61.785156 299.554688 61.652344 C 301.425781 61.519531 302.40625 62.367188 302.984375 64.105469 C 304.097656 67.679688 307.128906 69.957031 310.515625 69.910156 C 314.078125 69.867188 317.0625 67.589844 318.175781 63.929688 C 318.667969 62.320312 319.558594 61.695312 321.253906 61.742188 C 325.261719 61.832031 329.273438 61.742188 333.28125 61.742188 C 336.800781 61.742188 337.335938 62.320312 336.847656 65.757812 C 335.332031 76.472656 326.597656 85.757812 316.082031 87.855469 C 301.46875 90.804688 287.613281 81.652344 284.539062 67.054688 C 283.511719 62.097656 283.824219 61.742188 288.902344 61.742188 C 290.464844 61.742188 292.023438 61.742188 293.582031 61.742188 L 293.582031 61.695312 Z M 293.539062 61.695312 "/>
<path style=" stroke:none;fill-rule:nonzero;fill:rgb(98.431373%,88.235294%,0%);fill-opacity:1;" d="M 238.289062 61.742188 C 240.292969 61.742188 242.296875 61.875 244.304688 61.695312 C 246.261719 61.519531 247.15625 62.457031 247.734375 64.152344 C 248.9375 67.722656 251.878906 69.957031 255.308594 69.910156 C 258.871094 69.867188 261.8125 67.632812 262.972656 63.929688 C 263.417969 62.5 264.175781 61.695312 265.824219 61.742188 C 269.96875 61.832031 274.15625 61.742188 278.300781 61.785156 C 281.640625 61.832031 281.996094 62.277344 281.597656 65.582031 C 280.394531 76.207031 271.125 86.070312 260.566406 87.945312 C 244.75 90.757812 230.980469 80.625 228.886719 64.6875 C 228.621094 62.679688 229.421875 61.875 231.203125 61.832031 C 233.519531 61.695312 235.925781 61.785156 238.289062 61.742188 Z M 238.289062 61.742188 "/>
<path style=" stroke:none;fill-rule:nonzero;fill:rgb(98.823529%,88.235294%,0%);fill-opacity:1;" d="M 216.8125 19.242188 C 218.371094 19.242188 219.929688 19.242188 221.488281 19.242188 C 223.894531 19.285156 224.429688 19.820312 224.476562 22.320312 C 224.652344 30.132812 224.875 37.902344 224.921875 45.714844 C 224.921875 47.410156 225.277344 48.082031 227.148438 47.945312 C 230.089844 47.722656 233.074219 47.855469 236.058594 47.902344 C 237.21875 47.902344 238.511719 47.8125 239.046875 49.285156 C 239.578125 50.667969 238.464844 51.339844 237.664062 52.054688 C 229.152344 59.464844 220.6875 66.875 212.179688 74.285156 C 211.332031 75 210.527344 75.9375 209.238281 75.402344 C 207.855469 74.820312 208.035156 73.527344 208.078125 72.320312 C 208.480469 55.535156 208.925781 38.792969 209.28125 22.007812 C 209.328125 19.910156 210.21875 19.242188 212.089844 19.332031 C 213.691406 19.285156 215.253906 19.242188 216.8125 19.242188 Z M 216.8125 19.242188 "/>
<path style=" stroke:none;fill-rule:nonzero;fill:rgb(98.823529%,88.627451%,0%);fill-opacity:1;" d="M 233.964844 28.304688 C 233.875 24.777344 233.964844 24.554688 237.308594 24.285156 C 246.621094 23.617188 255.976562 22.992188 265.289062 22.367188 C 268.765625 22.144531 272.238281 21.875 275.714844 21.605469 C 276.785156 21.519531 277.855469 21.472656 278.523438 22.5 C 279.28125 23.660156 278.433594 24.507812 277.808594 25.269531 C 270.636719 34.464844 263.417969 43.617188 256.246094 52.769531 C 255.621094 53.527344 254.953125 54.285156 253.792969 53.882812 C 252.722656 53.527344 252.414062 52.589844 252.367188 51.5625 C 252.144531 48.167969 251.832031 44.730469 251.742188 41.339844 C 251.699219 39.644531 251.074219 39.195312 249.472656 39.332031 C 245.460938 39.6875 241.496094 39.867188 237.484375 40.222656 C 235.613281 40.402344 234.769531 39.777344 234.632812 37.8125 C 234.5 34.597656 234.1875 31.339844 233.964844 28.304688 Z M 233.964844 28.304688 "/>
<path style=" stroke:none;fill-rule:nonzero;fill:rgb(98.823529%,69.411765%,32.941176%);fill-opacity:1;" d="M 363.980469 25.980469 C 366.476562 26.027344 366.96875 26.652344 366.074219 28.792969 C 365.851562 29.332031 365.496094 29.820312 365.230469 30.355469 C 364.960938 30.355469 364.695312 30.355469 364.425781 30.355469 C 358.902344 29.730469 354.179688 32.5 349.277344 34.195312 C 347.40625 34.867188 345.714844 35.714844 343.621094 35.804688 C 341.835938 35.847656 339.832031 36.070312 338.585938 37.855469 C 336.578125 36.519531 336.535156 35.355469 338.628906 34.285156 C 340.769531 33.167969 342.949219 32.230469 345.132812 31.207031 C 345.492188 31.207031 345.800781 31.207031 346.160156 31.207031 C 347.941406 32.1875 349.722656 31.695312 351.417969 31.027344 C 352.53125 30.582031 353.601562 30.3125 354.804688 30.355469 C 356.675781 30.445312 357.921875 29.644531 358.1875 27.679688 C 360.328125 27.855469 362.15625 26.964844 363.980469 25.980469 Z M 363.980469 25.980469 "/>
<path style=" stroke:none;fill-rule:nonzero;fill:rgb(98.823529%,76.862745%,23.137255%);fill-opacity:1;" d="M 346.558594 45.179688 C 346.738281 41.785156 344.421875 40.492188 341.703125 39.464844 C 341.035156 39.195312 340.457031 38.792969 339.832031 38.4375 C 342.996094 38.394531 346.070312 38.394531 349.101562 37.007812 C 353.867188 34.910156 358.859375 33.304688 363.9375 32.144531 C 364.070312 33.570312 363 34.507812 362.554688 35.667969 C 361.441406 35.894531 361.84375 36.785156 361.753906 37.5 C 360.683594 37.1875 359.703125 37.007812 358.546875 37.410156 C 356.050781 38.257812 353.464844 38.839844 350.925781 39.597656 C 347.273438 40.714844 346.738281 41.429688 346.558594 45.179688 Z M 346.558594 45.179688 "/>
<path style=" stroke:none;fill-rule:nonzero;fill:rgb(99.215686%,73.333333%,28.235294%);fill-opacity:1;" d="M 363.9375 32.144531 C 358.859375 33.347656 353.867188 34.910156 349.101562 37.007812 C 346.027344 38.347656 342.996094 38.394531 339.832031 38.4375 C 339.34375 38.4375 338.941406 38.167969 338.585938 37.855469 C 339.789062 36.070312 341.835938 35.847656 343.621094 35.804688 C 345.714844 35.757812 347.40625 34.867188 349.277344 34.195312 C 354.222656 32.457031 358.902344 29.730469 364.425781 30.355469 C 364.425781 30.757812 364.425781 31.160156 364.425781 31.605469 C 364.292969 31.785156 364.117188 31.964844 363.9375 32.144531 Z M 363.9375 32.144531 "/>
<path style=" stroke:none;fill-rule:nonzero;fill:rgb(99.607843%,87.843137%,32.156863%);fill-opacity:1;" d="M 346.695312 46.339844 C 346.695312 46.070312 346.648438 45.847656 346.648438 45.582031 C 348.121094 45.535156 348.164062 43.792969 349.234375 43.394531 C 353.332031 41.695312 357.476562 40.179688 361.796875 39.285156 C 362.554688 39.644531 362.734375 40.269531 362.734375 41.027344 C 361.488281 40.9375 360.417969 41.339844 359.839844 42.5 C 359.257812 43.617188 360.996094 43.660156 360.953125 44.597656 C 357.964844 43.4375 355.160156 43.167969 352.933594 46.027344 C 352.707031 45.445312 353.421875 44.332031 352.085938 44.417969 C 350.4375 44.507812 349.277344 45.3125 348.964844 47.007812 C 348.789062 48.035156 348.652344 49.195312 350.304688 49.152344 C 349.855469 49.867188 349.277344 50.179688 348.429688 49.777344 C 347.71875 49.417969 347.539062 48.882812 347.539062 48.167969 C 347.496094 47.457031 347.71875 46.605469 346.695312 46.339844 Z M 346.695312 46.339844 "/>
<path style=" stroke:none;fill-rule:nonzero;fill:rgb(94.509804%,79.215686%,7.45098%);fill-opacity:1;" d="M 362.734375 41.027344 C 362.734375 40.269531 362.601562 39.597656 361.796875 39.285156 C 361.796875 38.707031 361.753906 38.125 361.753906 37.5 C 361.84375 36.832031 361.441406 35.9375 362.554688 35.667969 C 363.179688 38.167969 364.785156 40.132812 365.851562 42.367188 C 366.296875 43.304688 366.96875 44.195312 366.386719 45.269531 C 365.71875 46.472656 364.5625 46.027344 363.582031 45.9375 C 361.886719 45.757812 360.238281 45.445312 358.546875 45.132812 C 356.808594 44.820312 355.425781 45.089844 354.269531 46.605469 C 353.199219 48.035156 351.90625 49.242188 350.613281 50.492188 C 348.921875 52.144531 347.539062 51.695312 347.003906 49.375 C 346.78125 48.394531 346.738281 47.320312 346.648438 46.292969 C 347.675781 46.5625 347.453125 47.410156 347.453125 48.125 C 347.453125 48.839844 347.585938 49.417969 348.34375 49.730469 C 349.1875 50.132812 349.769531 49.820312 350.214844 49.105469 C 351.460938 48.347656 351.90625 46.964844 352.84375 45.980469 C 355.070312 43.082031 357.878906 43.394531 360.863281 44.554688 C 361.796875 44.6875 362.734375 44.820312 363.667969 44.910156 C 364.292969 44.957031 364.871094 44.820312 365.140625 44.195312 C 365.40625 43.617188 365.183594 43.125 364.605469 42.679688 C 363.980469 42.230469 363.359375 41.605469 362.734375 41.027344 Z M 362.734375 41.027344 "/>
<path style=" stroke:none;fill-rule:nonzero;fill:rgb(99.607843%,83.137255%,25.490196%);fill-opacity:1;" d="M 361.753906 37.5 C 361.753906 38.082031 361.796875 38.660156 361.796875 39.285156 C 357.476562 40.179688 353.332031 41.695312 349.234375 43.394531 C 348.164062 43.839844 348.074219 45.535156 346.648438 45.582031 C 346.515625 45.492188 346.515625 45.355469 346.558594 45.179688 C 346.738281 41.429688 347.273438 40.714844 350.925781 39.597656 C 353.464844 38.839844 356.050781 38.257812 358.546875 37.410156 C 359.703125 37.054688 360.683594 37.1875 361.753906 37.5 Z M 361.753906 37.5 "/>
<path style=" stroke:none;fill-rule:nonzero;fill:rgb(90.588235%,29.411765%,4.313725%);fill-opacity:1;" d="M 346.558594 25.9375 C 346.695312 24.777344 346.605469 23.570312 346.917969 22.457031 C 347.496094 20.355469 348.699219 20.042969 350.257812 21.519531 C 352.21875 23.394531 354.132812 25.355469 356.050781 27.277344 C 355.738281 27.320312 355.382812 27.367188 355.070312 27.410156 C 354.625 27.1875 354.222656 26.964844 353.777344 26.742188 C 352.484375 25.3125 351.371094 23.660156 349.324219 23.167969 C 348.519531 21.695312 348.03125 22.632812 347.453125 23.347656 C 346.871094 24.0625 347.453125 25.222656 346.558594 25.9375 Z M 346.558594 25.9375 "/>
<path style=" stroke:none;fill-rule:nonzero;fill:rgb(99.215686%,88.235294%,0%);fill-opacity:1;" d="M 199.613281 19.332031 C 199.167969 19.730469 198.632812 19.644531 198.140625 19.644531 C 189.988281 19.644531 181.835938 19.644531 173.726562 19.644531 C 173.144531 19.644531 172.523438 19.777344 172.03125 19.285156 C 181.210938 19.332031 190.390625 19.332031 199.613281 19.332031 Z M 199.613281 19.332031 "/>
<path style=" stroke:none;fill-rule:nonzero;fill:rgb(96.470588%,40.392157%,17.254902%);fill-opacity:1;" d="M 346.558594 25.9375 C 347.40625 25.269531 346.828125 24.105469 347.453125 23.304688 C 348.03125 22.589844 348.519531 21.652344 349.324219 23.125 C 347.453125 24.867188 347.183594 27.230469 346.648438 29.507812 L 346.160156 31.25 C 345.800781 31.25 345.492188 31.25 345.132812 31.25 C 346.425781 29.6875 345.890625 27.632812 346.558594 25.9375 Z M 346.558594 25.9375 "/>
<path style=" stroke:none;fill-rule:nonzero;fill:rgb(99.607843%,58.823529%,36.470588%);fill-opacity:1;" d="M 355.070312 27.367188 C 355.382812 27.320312 355.738281 27.277344 356.050781 27.230469 C 358.679688 26.832031 361.308594 26.429688 363.9375 25.980469 C 362.109375 26.964844 360.285156 27.855469 358.144531 27.679688 C 357.210938 27.230469 356.007812 28.660156 355.070312 27.367188 Z M 355.070312 27.367188 "/>
<path style=" stroke:none;fill-rule:nonzero;fill:rgb(98.823529%,76.862745%,23.137255%);fill-opacity:1;" d="M 364.425781 31.605469 C 364.425781 31.207031 364.425781 30.804688 364.425781 30.355469 C 364.695312 30.355469 364.960938 30.355469 365.230469 30.355469 C 365.050781 30.847656 365.007812 31.382812 364.425781 31.605469 Z M 364.425781 31.605469 "/>
<path style=" stroke:none;fill-rule:nonzero;fill:rgb(99.215686%,88.235294%,0%);fill-opacity:1;" d="M 26.734375 15.042969 C 26.824219 14.957031 26.910156 14.820312 27 14.730469 C 28.425781 14.867188 29.496094 14.285156 30.566406 13.394531 C 33.550781 10.980469 36.492188 8.570312 40.144531 7.230469 C 41.082031 6.875 41.4375 6.339844 41.4375 5.445312 C 42.328125 5.582031 42.597656 4.332031 43.488281 4.507812 C 45.9375 5.625 47.097656 5.269531 47.320312 3.257812 C 47.40625 3.214844 47.496094 3.125 47.628906 3.082031 C 48.03125 3.167969 48.34375 2.992188 48.65625 2.722656 C 48.789062 2.769531 48.878906 2.769531 48.96875 2.679688 C 53.914062 2.855469 58.949219 2.097656 63.761719 3.972656 C 72.851562 5.625 80.066406 10.355469 85.859375 17.5 C 89.960938 22.589844 92.5 28.347656 94.726562 34.417969 C 95.886719 37.589844 97.042969 40.847656 97.847656 44.0625 C 99.359375 50.132812 100.207031 56.382812 100.164062 62.722656 C 100.117188 68.527344 99.984375 74.332031 97.933594 79.777344 C 95.574219 86.070312 91.875 90.894531 84.925781 93.035156 C 71.023438 97.320312 56.898438 97.722656 42.550781 96.652344 C 36.3125 96.160156 30.296875 94.910156 24.550781 92.632812 C 18.804688 90.355469 14.613281 86.292969 12.296875 80.089844 C 9.714844 73.167969 10.648438 66.070312 10.246094 59.019531 C 9.847656 51.964844 11.183594 45.132812 13.410156 38.480469 C 14.214844 39.019531 13.457031 40.042969 14.4375 41.070312 C 13.855469 39.507812 15.328125 38.304688 13.8125 37.277344 C 13.855469 37.054688 13.855469 36.875 13.902344 36.652344 C 14.035156 36.429688 14.125 36.207031 14.257812 35.980469 C 14.4375 34.957031 13.855469 33.75 15.148438 33.082031 C 15.640625 33.257812 16.039062 34.554688 16.574219 32.945312 C 17.378906 30.582031 18.625 28.394531 19.605469 26.117188 C 19.828125 25.625 20.003906 25.132812 20.628906 25.132812 C 21.566406 25.132812 21.296875 25.894531 21.433594 26.429688 C 21.519531 29.867188 22.589844 31.25 25.664062 32.007812 C 29.675781 32.992188 35.199219 30.492188 37.070312 26.875 C 38.765625 23.617188 37.339844 20.582031 33.773438 19.6875 C 32.035156 19.242188 30.386719 19.644531 28.738281 19.777344 C 27.359375 19.820312 25.886719 19.507812 25.261719 21.292969 L 25.261719 21.339844 C 24.550781 20.980469 22.945312 21.117188 24.550781 19.644531 C 25.308594 18.929688 25.664062 17.769531 26.554688 17.097656 C 27.269531 16.429688 27.089844 15.757812 26.734375 15.042969 Z M 55.207031 41.5625 C 57.566406 41.5625 59.527344 40.714844 61.132812 39.019531 C 62.066406 38.035156 63.269531 36.875 62.023438 35.582031 C 60.550781 34.019531 59.929688 35.980469 59.171875 36.742188 C 56.941406 38.972656 54.226562 39.332031 51.996094 37.679688 C 50.929688 36.875 50.660156 36.070312 51.375 34.867188 C 52.355469 33.214844 53.867188 32.589844 55.5625 32.277344 C 56.363281 32.144531 57.03125 31.832031 56.988281 30.894531 C 56.941406 30 56.230469 29.6875 55.472656 29.554688 C 55.027344 29.464844 54.582031 29.554688 54.136719 29.417969 C 52.53125 29.019531 51.152344 28.257812 50.839844 26.519531 C 50.617188 25.042969 51.460938 23.972656 52.710938 23.257812 C 54.269531 22.367188 55.5625 22.945312 56.765625 24.019531 C 58.28125 25.355469 58.992188 27.097656 59.347656 29.0625 C 59.4375 29.597656 59.660156 30.355469 60.417969 30.269531 C 61.085938 30.179688 61.441406 29.644531 61.578125 28.839844 C 62.066406 25.3125 58.636719 20.804688 54.984375 20.269531 C 50.972656 19.6875 47.40625 23.480469 48.164062 27.5 C 48.476562 29.242188 50.707031 30.042969 50.707031 31.429688 C 50.660156 32.902344 48.699219 34.019531 48.566406 35.894531 C 48.300781 39.105469 51.015625 41.519531 55.207031 41.5625 Z M 78.417969 19.195312 C 72.804688 19.195312 70.398438 22.632812 72.449219 26.742188 C 74.230469 30.269531 80.023438 32.902344 83.855469 31.832031 C 87.820312 30.757812 89.15625 27.457031 86.929688 23.972656 C 84.835938 20.625 81.492188 19.507812 78.417969 19.195312 Z M 20.40625 36.964844 C 20.273438 36.429688 19.960938 36.117188 19.472656 36.429688 C 18.179688 37.320312 17.734375 38.75 17.601562 40.222656 C 17.554688 40.757812 18.179688 40.847656 18.535156 40.402344 C 19.292969 39.332031 19.425781 37.902344 20.40625 36.964844 Z M 87.953125 35.3125 C 87.507812 35.847656 87.6875 36.429688 87.777344 36.964844 C 87.867188 37.902344 88.3125 38.617188 89.113281 39.105469 C 89.246094 39.195312 89.601562 39.152344 89.648438 39.0625 C 90.09375 38.214844 89.558594 37.542969 89.292969 36.832031 C 89.023438 36.117188 88.933594 35.3125 87.953125 35.3125 Z M 22.457031 40.269531 C 23.214844 39.019531 23.660156 37.855469 23.390625 36.519531 C 23.347656 36.207031 22.902344 36.207031 22.632812 36.429688 C 21.566406 37.410156 21.699219 38.660156 21.964844 39.910156 C 21.964844 39.957031 22.054688 40 22.457031 40.269531 Z M 84.433594 35.269531 C 83.765625 36.160156 84.035156 36.917969 84.210938 37.722656 C 84.390625 38.4375 84.789062 39.105469 85.546875 38.882812 C 86.617188 38.617188 85.816406 37.855469 85.683594 37.320312 C 85.546875 36.519531 85.414062 35.714844 84.433594 35.269531 Z M 82.117188 37.5 C 81.804688 36.875 82.429688 35.582031 81.316406 35.355469 C 80.425781 35.222656 80.691406 36.292969 80.691406 36.917969 C 80.691406 37.769531 80.425781 38.972656 81.492188 39.152344 C 82.339844 39.285156 81.894531 38.167969 82.117188 37.5 Z M 82.117188 37.5 "/>
<path style=" stroke:none;fill-rule:nonzero;fill:rgb(96.470588%,87.843137%,16.078431%);fill-opacity:1;" d="M 26.734375 15.042969 C 27.046875 15.757812 27.269531 16.429688 26.511719 17.007812 C 25.621094 17.679688 25.308594 18.882812 24.507812 19.554688 C 22.859375 21.027344 24.507812 20.894531 25.21875 21.25 C 23.613281 22.679688 22.1875 24.285156 21.433594 26.382812 C 21.34375 25.847656 21.566406 25.089844 20.628906 25.089844 C 20.003906 25.089844 19.828125 25.582031 19.605469 26.070312 C 18.578125 28.347656 17.378906 30.535156 16.574219 32.902344 C 15.996094 34.507812 15.640625 33.214844 15.148438 33.035156 C 17.824219 26.292969 21.34375 20.089844 26.734375 15.042969 Z M 26.734375 15.042969 "/>
<path style=" stroke:none;fill-rule:nonzero;fill:rgb(96.470588%,87.843137%,16.078431%);fill-opacity:1;" d="M 41.480469 5.445312 C 41.480469 6.339844 41.171875 6.875 40.191406 7.230469 C 36.535156 8.570312 33.550781 10.980469 30.609375 13.394531 C 29.496094 14.285156 28.425781 14.867188 27.046875 14.730469 C 30.210938 11.605469 33.550781 8.839844 37.738281 7.097656 C 38.988281 6.605469 39.96875 5.445312 41.480469 5.445312 Z M 41.480469 5.445312 "/>
<path style=" stroke:none;fill-rule:nonzero;fill:rgb(98.431373%,88.235294%,0%);fill-opacity:1;" d="M 103.058594 58.082031 C 105.019531 59.332031 105.507812 61.5625 106.890625 63.125 C 107.070312 63.347656 107.335938 63.929688 106.933594 64.332031 C 106.179688 65.042969 105.242188 64.730469 104.441406 64.644531 C 103.503906 64.507812 103.105469 63.75 103.105469 62.855469 C 103.015625 61.339844 103.058594 59.820312 103.058594 58.082031 Z M 103.058594 58.082031 "/>
<path style=" stroke:none;fill-rule:nonzero;fill:rgb(5.098039%,5.882353%,13.72549%);fill-opacity:1;" d="M 63.761719 3.972656 C 58.949219 2.097656 53.914062 2.855469 48.96875 2.679688 C 49.101562 2.320312 49.28125 1.875 49.636719 1.875 C 54.089844 2.007812 58.636719 1.027344 62.914062 3.082031 C 63.359375 3.304688 63.671875 3.480469 63.761719 3.972656 Z M 63.761719 3.972656 "/>
<path style=" stroke:none;fill-rule:nonzero;fill:rgb(98.823529%,88.235294%,0%);fill-opacity:1;" d="M 7.085938 62.054688 C 7.664062 65.269531 5.078125 64.195312 3.609375 64.644531 C 3.609375 64.0625 3.566406 63.527344 3.566406 62.945312 C 4.855469 63.035156 5.96875 62.589844 7.085938 62.054688 Z M 7.085938 62.054688 "/>
<path style=" stroke:none;fill-rule:nonzero;fill:rgb(99.215686%,88.235294%,0%);fill-opacity:1;" d="M 5.347656 60.222656 C 5.613281 59.242188 6.28125 58.480469 7.085938 57.367188 C 7.085938 58.882812 7.085938 60 7.085938 61.117188 C 6.28125 61.292969 5.4375 61.695312 5.035156 60.535156 C 5.035156 60.402344 5.125 60.355469 5.214844 60.3125 C 5.300781 60.355469 5.390625 60.445312 5.480469 60.492188 C 5.480469 60.402344 5.390625 60.3125 5.347656 60.222656 Z M 5.347656 60.222656 "/>
<path style=" stroke:none;fill-rule:nonzero;fill:rgb(96.470588%,87.843137%,16.078431%);fill-opacity:1;" d="M 5.035156 60.582031 C 5.4375 61.785156 6.28125 61.339844 7.085938 61.160156 C 7.085938 61.472656 7.085938 61.785156 7.085938 62.054688 C 5.96875 62.542969 4.855469 63.035156 3.609375 62.945312 C 3.699219 61.917969 4.542969 61.339844 5.035156 60.582031 Z M 5.035156 60.582031 "/>
<path style=" stroke:none;fill-rule:nonzero;fill:rgb(96.470588%,87.843137%,16.078431%);fill-opacity:1;" d="M 47.363281 3.257812 C 47.140625 5.269531 46.027344 5.667969 43.53125 4.507812 C 44.691406 3.660156 46.070312 3.617188 47.363281 3.257812 Z M 47.363281 3.257812 "/>
<path style=" stroke:none;fill-rule:nonzero;fill:rgb(96.470588%,87.843137%,16.078431%);fill-opacity:1;" d="M 13.855469 37.320312 C 15.417969 38.347656 13.902344 39.554688 14.480469 41.117188 C 13.5 40.042969 14.257812 39.0625 13.457031 38.527344 C 13.367188 38.035156 13.5 37.632812 13.855469 37.320312 Z M 13.855469 37.320312 "/>
<path style=" stroke:none;fill-rule:nonzero;fill:rgb(96.470588%,87.843137%,16.078431%);fill-opacity:1;" d="M 3.609375 62.945312 C 3.609375 63.527344 3.652344 64.0625 3.652344 64.644531 C 3.03125 64.285156 2.984375 63.75 3.609375 62.945312 Z M 3.609375 62.945312 "/>
<path style=" stroke:none;fill-rule:nonzero;fill:rgb(5.098039%,5.882353%,13.72549%);fill-opacity:1;" d="M 48.65625 2.722656 C 48.386719 2.992188 48.078125 3.167969 47.628906 3.082031 C 47.941406 2.722656 48.253906 2.679688 48.65625 2.722656 Z M 48.65625 2.722656 "/>
<path style=" stroke:none;fill-rule:nonzero;fill:rgb(96.470588%,87.843137%,16.078431%);fill-opacity:1;" d="M 14.257812 35.980469 C 14.125 36.207031 14.035156 36.429688 13.902344 36.652344 C 13.855469 36.382812 13.992188 36.160156 14.257812 35.980469 Z M 14.257812 35.980469 "/>
<path style=" stroke:none;fill-rule:nonzero;fill:rgb(96.470588%,87.843137%,16.078431%);fill-opacity:1;" d="M 5.347656 60.222656 C 5.390625 60.3125 5.4375 60.402344 5.523438 60.492188 C 5.4375 60.445312 5.347656 60.355469 5.257812 60.3125 Z M 5.347656 60.222656 "/>
<path style=" stroke:none;fill-rule:nonzero;fill:rgb(99.607843%,66.666667%,38.039216%);fill-opacity:1;" d="M 355.070312 27.367188 C 355.960938 28.707031 357.210938 27.230469 358.1875 27.722656 C 357.921875 29.6875 356.675781 30.492188 354.804688 30.402344 C 353.601562 30.355469 352.53125 30.625 351.417969 31.070312 C 349.722656 31.785156 347.941406 32.277344 346.160156 31.25 C 346.335938 30.667969 346.472656 30.089844 346.648438 29.507812 C 349.054688 28.570312 351.417969 27.632812 353.824219 26.695312 Z M 355.070312 27.367188 "/>
<path style=" stroke:none;fill-rule:nonzero;fill:rgb(99.607843%,91.764706%,47.45098%);fill-opacity:1;" d="M 362.734375 41.027344 C 363.402344 41.605469 364.027344 42.230469 364.738281 42.769531 C 365.316406 43.167969 365.542969 43.660156 365.273438 44.285156 C 365.007812 44.867188 364.382812 45.042969 363.804688 45 C 362.867188 44.910156 361.933594 44.777344 360.996094 44.644531 C 361.085938 43.707031 359.304688 43.707031 359.882812 42.542969 C 360.417969 41.382812 361.441406 40.9375 362.734375 41.027344 Z M 362.734375 41.027344 "/>
<path style=" stroke:none;fill-rule:nonzero;fill:rgb(99.607843%,91.764706%,47.45098%);fill-opacity:1;" d="M 352.886719 46.027344 C 351.90625 47.007812 351.460938 48.4375 350.257812 49.152344 C 348.609375 49.195312 348.742188 48.035156 348.921875 47.007812 C 349.234375 45.3125 350.4375 44.507812 352.039062 44.417969 C 353.378906 44.332031 352.664062 45.445312 352.886719 46.027344 Z M 352.886719 46.027344 "/>
<path style=" stroke:none;fill-rule:nonzero;fill:rgb(99.607843%,58.823529%,36.470588%);fill-opacity:1;" d="M 353.824219 26.695312 C 351.417969 27.632812 349.054688 28.570312 346.648438 29.507812 C 347.226562 27.230469 347.453125 24.820312 349.324219 23.125 C 351.371094 23.617188 352.53125 25.269531 353.824219 26.695312 Z M 353.824219 26.695312 "/>
<path style=" stroke:none;fill-rule:nonzero;fill:rgb(3.921569%,3.529412%,0%);fill-opacity:1;" d="M 55.207031 41.5625 C 51.015625 41.519531 48.300781 39.152344 48.523438 35.847656 C 48.65625 33.972656 50.660156 32.902344 50.660156 31.382812 C 50.707031 30 48.476562 29.195312 48.121094 27.457031 C 47.363281 23.4375 50.929688 19.644531 54.9375 20.222656 C 58.546875 20.757812 61.976562 25.269531 61.53125 28.792969 C 61.441406 29.554688 61.085938 30.132812 60.375 30.222656 C 59.660156 30.3125 59.4375 29.554688 59.304688 29.019531 C 58.949219 27.054688 58.234375 25.3125 56.71875 23.972656 C 55.515625 22.945312 54.226562 22.320312 52.664062 23.214844 C 51.417969 23.929688 50.570312 25 50.792969 26.472656 C 51.0625 28.214844 52.488281 28.972656 54.089844 29.375 C 54.535156 29.464844 54.984375 29.417969 55.429688 29.507812 C 56.1875 29.644531 56.898438 29.957031 56.941406 30.847656 C 56.988281 31.785156 56.363281 32.054688 55.515625 32.230469 C 53.78125 32.542969 52.308594 33.167969 51.328125 34.820312 C 50.617188 36.027344 50.839844 36.832031 51.953125 37.632812 C 54.179688 39.285156 56.898438 38.929688 59.125 36.695312 C 59.882812 35.9375 60.507812 33.972656 61.976562 35.535156 C 63.226562 36.832031 62.023438 37.992188 61.085938 38.972656 C 59.527344 40.667969 57.523438 41.5625 55.207031 41.5625 Z M 55.207031 41.5625 "/>
<path style=" stroke:none;fill-rule:nonzero;fill:rgb(16.862745%,13.333333%,12.156863%);fill-opacity:1;" d="M 78.417969 19.195312 C 81.492188 19.507812 84.835938 20.625 86.972656 23.972656 C 89.15625 27.457031 87.867188 30.757812 83.898438 31.832031 C 80.066406 32.902344 74.230469 30.269531 72.492188 26.742188 C 70.398438 22.632812 72.804688 19.195312 78.417969 19.195312 Z M 80.960938 28.660156 C 84.300781 28.660156 85.191406 27.855469 84.390625 26.117188 C 83.320312 23.839844 79.042969 21.785156 76.59375 22.5 C 75.167969 22.902344 74.410156 23.707031 75.390625 25.269531 C 76.90625 27.542969 79.085938 28.480469 80.960938 28.660156 Z M 80.960938 28.660156 "/>
<path style=" stroke:none;fill-rule:nonzero;fill:rgb(15.686275%,12.156863%,10.196078%);fill-opacity:1;" d="M 21.433594 26.429688 C 22.144531 24.332031 23.613281 22.769531 25.21875 21.292969 C 25.21875 21.292969 25.21875 21.25 25.21875 21.25 C 26.378906 20.757812 27.535156 20.222656 28.695312 19.730469 C 30.386719 19.597656 32.035156 19.195312 33.730469 19.644531 C 37.292969 20.582031 38.675781 23.570312 37.027344 26.832031 C 35.15625 30.445312 29.628906 32.992188 25.621094 31.964844 C 22.589844 31.207031 21.519531 29.820312 21.433594 26.429688 Z M 27.136719 29.0625 C 29.628906 28.929688 31.769531 28.125 33.460938 26.25 C 34.128906 25.492188 34.710938 24.597656 34.308594 23.660156 C 33.90625 22.679688 32.75 22.542969 31.8125 22.589844 C 29.273438 22.679688 27.046875 23.570312 25.441406 25.625 C 24.953125 26.25 24.328125 26.875 24.773438 27.8125 C 25.308594 28.792969 26.199219 29.019531 27.136719 29.0625 Z M 27.136719 29.0625 "/>
<path style=" stroke:none;fill-rule:nonzero;fill:rgb(14.117647%,11.372549%,0%);fill-opacity:1;" d="M 20.40625 36.964844 C 19.382812 37.945312 19.292969 39.375 18.492188 40.402344 C 18.179688 40.847656 17.511719 40.757812 17.554688 40.222656 C 17.6875 38.75 18.132812 37.367188 19.425781 36.429688 C 20.003906 36.070312 20.273438 36.429688 20.40625 36.964844 Z M 20.40625 36.964844 "/>
<path style=" stroke:none;fill-rule:nonzero;fill:rgb(14.117647%,11.372549%,0%);fill-opacity:1;" d="M 87.953125 35.3125 C 88.933594 35.355469 89.023438 36.117188 89.246094 36.785156 C 89.515625 37.5 90.046875 38.214844 89.601562 39.019531 C 89.558594 39.105469 89.203125 39.152344 89.066406 39.0625 C 88.265625 38.570312 87.820312 37.855469 87.730469 36.917969 C 87.730469 36.429688 87.507812 35.804688 87.953125 35.3125 Z M 87.953125 35.3125 "/>
<path style=" stroke:none;fill-rule:nonzero;fill:rgb(14.117647%,11.372549%,0%);fill-opacity:1;" d="M 22.457031 40.269531 C 22.054688 40 21.964844 39.957031 21.964844 39.910156 C 21.742188 38.660156 21.566406 37.410156 22.632812 36.429688 C 22.859375 36.207031 23.304688 36.207031 23.390625 36.519531 C 23.660156 37.855469 23.214844 39.019531 22.457031 40.269531 Z M 22.457031 40.269531 "/>
<path style=" stroke:none;fill-rule:nonzero;fill:rgb(14.117647%,11.372549%,0%);fill-opacity:1;" d="M 84.433594 35.269531 C 85.371094 35.714844 85.503906 36.519531 85.683594 37.320312 C 85.769531 37.855469 86.617188 38.617188 85.546875 38.882812 C 84.835938 39.0625 84.390625 38.4375 84.210938 37.722656 C 84.035156 36.917969 83.8125 36.117188 84.433594 35.269531 Z M 84.433594 35.269531 "/>
<path style=" stroke:none;fill-rule:nonzero;fill:rgb(14.117647%,11.372549%,0%);fill-opacity:1;" d="M 82.117188 37.5 C 81.894531 38.167969 82.339844 39.285156 81.449219 39.152344 C 80.378906 38.972656 80.648438 37.769531 80.648438 36.917969 C 80.648438 36.339844 80.425781 35.222656 81.269531 35.355469 C 82.429688 35.582031 81.804688 36.832031 82.117188 37.5 Z M 82.117188 37.5 "/>
<path style=" stroke:none;fill-rule:nonzero;fill:rgb(96.470588%,87.843137%,16.078431%);fill-opacity:1;" d="M 28.695312 19.730469 C 27.535156 20.222656 26.378906 20.757812 25.21875 21.25 C 25.796875 19.464844 27.3125 19.730469 28.695312 19.730469 Z M 28.695312 19.730469 "/>
<path style=" stroke:none;fill-rule:nonzero;fill:rgb(97.254902%,97.254902%,97.254902%);fill-opacity:1;" d="M 80.960938 28.660156 C 79.085938 28.480469 76.859375 27.542969 75.390625 25.222656 C 74.410156 23.660156 75.167969 22.855469 76.59375 22.457031 C 79 21.785156 83.320312 23.792969 84.390625 26.070312 C 85.191406 27.8125 84.300781 28.660156 80.960938 28.660156 Z M 80.960938 28.660156 "/>
<path style=" stroke:none;fill-rule:nonzero;fill:rgb(97.254902%,97.254902%,97.254902%);fill-opacity:1;" d="M 27.136719 29.0625 C 26.199219 29.019531 25.261719 28.839844 24.816406 27.8125 C 24.371094 26.875 24.996094 26.25 25.484375 25.625 C 27.089844 23.570312 29.316406 22.679688 31.859375 22.589844 C 32.792969 22.542969 33.953125 22.679688 34.351562 23.660156 C 34.710938 24.597656 34.175781 25.492188 33.507812 26.25 C 31.8125 28.125 29.628906 28.882812 27.136719 29.0625 Z M 27.136719 29.0625 "/>
</g>
</svg>
