<?xml version="1.0" encoding="UTF-8"?>
<svg xmlns="http://www.w3.org/2000/svg" xmlns:xlink="http://www.w3.org/1999/xlink" width="536px" height="100px" viewBox="0 0 535 100" version="1.1">
<g id="surface1">
<path style=" stroke:none;fill-rule:nonzero;fill:rgb(100%,100%,100%);fill-opacity:1;" d="M 46.132812 13.214844 C 48.941406 9.675781 50.914062 4.890625 50.394531 0 C 46.234375 0.207031 41.140625 2.707031 38.230469 6.347656 C 35.628906 9.367188 33.238281 14.359375 33.863281 19.042969 C 38.542969 19.457031 43.117188 16.648438 46.132812 13.214844 M 50.292969 19.875 C 43.53125 19.457031 37.710938 23.726562 34.488281 23.726562 C 31.261719 23.726562 26.273438 20.082031 20.96875 20.1875 C 14.003906 20.292969 7.453125 24.246094 3.917969 30.59375 C -3.359375 43.183594 2.046875 61.8125 9.117188 72.007812 C 12.546875 77.105469 16.707031 82.621094 22.21875 82.414062 C 27.417969 82.207031 29.390625 79.085938 35.628906 79.085938 C 41.871094 79.085938 43.742188 82.414062 49.148438 82.308594 C 54.867188 82.207031 58.402344 77.210938 61.832031 72.214844 C 65.785156 66.492188 67.449219 60.875 67.449219 60.5625 C 67.34375 60.457031 56.53125 56.296875 56.425781 43.808594 C 56.320312 33.402344 64.953125 28.40625 65.367188 28.097656 C 60.585938 20.914062 52.996094 20.082031 50.292969 19.875 M 103.214844 5.203125 L 116.003906 5.203125 L 143.664062 81.476562 L 131.289062 81.476562 L 124.324219 60.875 L 94.898438 60.875 L 87.828125 81.476562 L 75.453125 81.476562 Z M 98.121094 51.300781 L 121.101562 51.300781 L 109.664062 17.792969 L 109.453125 17.792969 Z M 150.734375 25.804688 L 162.171875 25.804688 L 162.171875 35.378906 L 162.484375 35.378906 C 165.808594 28.71875 171.945312 24.765625 179.847656 24.765625 C 193.988281 24.765625 203.136719 35.898438 203.136719 53.589844 L 203.136719 53.695312 C 203.136719 71.382812 193.988281 82.519531 180.054688 82.519531 C 172.152344 82.519531 165.808594 78.460938 162.484375 72.007812 L 162.171875 72.007812 L 162.171875 99.894531 L 150.734375 99.894531 Z M 191.386719 53.695312 C 191.386719 41.832031 185.773438 34.546875 176.832031 34.546875 C 168.203125 34.546875 162.066406 42.039062 162.066406 53.589844 L 162.066406 53.695312 C 162.066406 65.246094 168.203125 72.738281 176.832031 72.738281 C 185.773438 72.738281 191.386719 65.453125 191.386719 53.695312 Z M 211.871094 25.804688 L 223.308594 25.804688 L 223.308594 35.378906 L 223.621094 35.378906 C 226.949219 28.71875 233.082031 24.765625 240.984375 24.765625 C 255.125 24.765625 264.277344 35.898438 264.277344 53.589844 L 264.277344 53.695312 C 264.277344 71.382812 255.125 82.519531 241.195312 82.519531 C 233.292969 82.519531 226.949219 78.460938 223.621094 72.007812 L 223.308594 72.007812 L 223.308594 99.894531 L 211.871094 99.894531 Z M 252.527344 53.695312 C 252.527344 41.832031 246.914062 34.546875 237.96875 34.546875 C 229.339844 34.546875 223.207031 42.039062 223.207031 53.589844 L 223.207031 53.695312 C 223.207031 65.246094 229.339844 72.738281 237.96875 72.738281 C 246.914062 72.738281 252.527344 65.453125 252.527344 53.695312 Z M 292.871094 61.1875 L 292.765625 60.355469 L 304.308594 60.355469 L 304.410156 61.082031 C 305.453125 68.15625 312.523438 72.527344 322.710938 72.527344 C 332.902344 72.527344 339.347656 67.949219 339.347656 60.769531 L 339.347656 60.664062 C 339.347656 54.527344 335.1875 51.195312 325.101562 49.011719 L 316.785156 47.242188 C 301.8125 44.121094 294.636719 37.148438 294.636719 25.910156 L 294.636719 25.804688 C 294.742188 12.800781 306.179688 3.851562 322.296875 3.851562 C 338.203125 3.851562 349.121094 12.488281 349.851562 25.285156 L 349.953125 26.222656 L 338.414062 26.222656 L 338.308594 25.496094 C 337.269531 18.417969 331.132812 14.152344 322.089844 14.152344 C 312.625 14.257812 306.59375 18.730469 306.59375 25.390625 L 306.59375 25.496094 C 306.59375 31.21875 310.960938 34.652344 320.425781 36.734375 L 328.742188 38.5 C 344.441406 41.832031 351.203125 48.28125 351.203125 60.042969 L 351.203125 60.144531 C 351.203125 74.089844 340.179688 82.933594 322.089844 82.933594 C 305.140625 82.726562 293.804688 74.609375 292.871094 61.1875 Z M 363.78125 66.804688 L 363.78125 34.964844 L 355.777344 34.964844 L 355.777344 25.910156 L 363.78125 25.910156 L 363.78125 11.34375 L 375.429688 11.34375 L 375.429688 25.804688 L 385.824219 25.804688 L 385.824219 34.859375 L 375.429688 34.859375 L 375.429688 66.078125 C 375.429688 71.695312 377.925781 73.464844 382.8125 73.464844 C 384.058594 73.464844 384.996094 73.359375 385.824219 73.257812 L 385.824219 82.101562 C 384.472656 82.308594 382.289062 82.621094 380.003906 82.621094 C 369.085938 82.621094 363.78125 77.941406 363.78125 66.804688 Z M 391.441406 53.695312 L 391.441406 53.589844 C 391.441406 35.796875 401.941406 24.871094 417.746094 24.871094 C 433.550781 24.871094 444.15625 35.796875 444.15625 53.589844 L 444.15625 53.695312 C 444.15625 71.59375 433.65625 82.621094 417.746094 82.621094 C 401.941406 82.621094 391.441406 71.488281 391.441406 53.695312 Z M 432.511719 53.695312 L 432.511719 53.589844 C 432.511719 41.414062 426.6875 34.441406 417.746094 34.441406 C 409.011719 34.441406 403.085938 41.519531 403.085938 53.589844 L 403.085938 53.695312 C 403.085938 65.972656 408.910156 73.050781 417.851562 73.050781 C 426.792969 73.050781 432.511719 65.972656 432.511719 53.695312 Z M 453.097656 25.804688 L 464.535156 25.804688 L 464.535156 35.378906 L 464.847656 35.378906 C 466.617188 28.824219 471.296875 24.765625 477.636719 24.765625 C 479.300781 24.765625 480.652344 25.078125 481.589844 25.183594 L 481.589844 35.796875 C 480.652344 35.378906 478.679688 35.171875 476.496094 35.171875 C 469.113281 35.171875 464.640625 39.957031 464.640625 48.28125 L 464.640625 81.476562 L 453.203125 81.476562 L 453.203125 25.804688 Z M 483.667969 53.902344 C 483.667969 36.421875 493.753906 24.765625 509.246094 24.765625 C 524.84375 24.765625 534.410156 36.003906 534.410156 52.652344 L 534.410156 56.503906 L 495.003906 56.503906 C 495.210938 67.011719 500.929688 73.152344 510.078125 73.152344 C 516.835938 73.152344 521.308594 69.613281 522.765625 65.453125 L 522.972656 65.035156 L 533.890625 65.035156 L 533.785156 65.660156 C 532.019531 74.503906 523.386719 82.519531 509.976562 82.519531 C 493.546875 82.621094 483.667969 71.382812 483.667969 53.902344 Z M 495.3125 48.492188 L 523.179688 48.492188 C 522.246094 38.917969 516.835938 34.132812 509.351562 34.132812 C 501.96875 34.132812 496.25 39.125 495.3125 48.492188 Z M 495.3125 48.492188 "/>
</g>
</svg>
