<?xml version="1.0" encoding="utf-8"?>
<!-- Generator: Adobe Illustrator 28.2.0, SVG Export Plug-In . SVG Version: 6.00 Build 0)  -->
<svg version="1.1"
	 id="svg8" xmlns:svg="http://www.w3.org/2000/svg" xmlns:cc="http://creativecommons.org/ns#" xmlns:rdf="http://www.w3.org/1999/02/22-rdf-syntax-ns#" xmlns:dc="http://purl.org/dc/elements/1.1/"
	 xmlns="http://www.w3.org/2000/svg" xmlns:xlink="http://www.w3.org/1999/xlink" x="0px" y="0px" viewBox="0 0 4093.7 420.1"
	 style="enable-background:new 0 0 4093.7 420.1;" xml:space="preserve">
<style type="text/css">
	.st0{fill:#FFFFFF;}
</style>
<g id="g940" transform="matrix(18.80715,0,0,18.80715,6.3133983,-1218.1933)">
	<path id="path852" class="st0" d="M3.6,86.7h-4l9-19.8l-1.1-1.6h4.3l9.6,21.4h-4.1l-2.6-5.9l-4-10.3l-3.3,7.7h6.3l1,2.6H6.1
		L3.6,86.7z"/>
	<path id="path890" class="st0" d="M35.1,86.7V66.9l-1-1.5h9.4l0.7,0.1l0.7,0.1l1,0.3l0.6,0.3l0.6,0.5l0.6,0.6l0.6,0.6l0.4,0.7
		l0.3,0.7l0.3,0.8l0.1,0.9l0,0.6l0,0.8l-0.2,0.7L49,73.8l-0.4,0.7l-1,1.1L47,76.2l-0.7,0.3l-0.9,0.5l-1,0.3l-0.2,0.1l7.2,9.2h-4.8
		l-6.1-8.5h-1.7v-2.5h1.9l1,0l1.2-0.2l0.9-0.4l0.8-0.5l0.5-0.6l0.3-0.7l0.2-1l0.1-0.8l-0.1-0.7l-0.4-0.7l-0.4-0.6l-0.7-0.7l-0.9-0.5
		L42.6,68l-0.9-0.1H39v18.9v0L35.1,86.7L35.1,86.7z"/>
	<path id="path892" class="st0" d="M69.7,86.7h3.8V71l-2.3-3.1h9.2v-2.6H62.9l1.9,2.7h4.9L69.7,86.7L69.7,86.7z"/>
	<rect id="rect894" x="95.4" y="65.3" class="st0" width="3.7" height="21.3"/>
	<path id="path896" class="st0" d="M116.7,86.7h3.8v-8.9h7.7v-3h-7.8v-6.7h9.5l1.2-2.8h-14.5L116.7,86.7L116.7,86.7z"/>
	<path id="path852-8" class="st0" d="M143.1,86.7h-4l9-19.8l-1.1-1.6h4.3l9.6,21.4h-4.1l-2.6-5.9l-4-10.3l-3.3,7.7h6.3l1,2.6h-8.5
		L143.1,86.7z"/>
	<path id="path928" class="st0" d="M199.4,65.4h18l-1.8,2.8h-7.6l2.3,2.9v15.6h-3.8V68.1h-7L199.4,65.4z"/>
	<path id="path930" class="st0" d="M186.5,68.9l-0.5-0.2l-0.3-0.1l-0.4-0.2l-0.5-0.2l-0.6-0.1l-0.8-0.1l-0.8-0.1l-0.2,0h-0.5l-0.4,0
		l-0.5,0.1l-0.6,0.1l-0.8,0.3l-0.6,0.3l-0.9,0.5l-0.6,0.5l-0.7,0.7l-0.6,0.9l-0.5,0.9l-0.5,1l-0.4,1l-0.2,1.5l0,0.8l0.1,0.8l0.3,1.5
		l0.4,1.1l0.6,1l0.6,0.8l0.7,0.7l1.1,0.7l0.9,0.5l1.3,0.4l1,0.1l1.6-0.1l1-0.2l0.9-0.2l0.8-0.3l0.8-0.4l1.6,2.7l-0.5,0.2l0.5-0.2
		l0.1,0.1l-0.9,0.4l-0.7,0.2l-0.8,0.2l-1,0.3L184,87l-1.3,0.1h-0.3l-0.6,0l-0.9,0l-0.7,0l-0.8-0.1l-0.7-0.2l-0.5-0.2l-0.6-0.2
		l-0.8-0.4l-0.9-0.5l-0.8-0.5l-0.8-0.6l-0.6-0.5l-0.6-0.7l-0.4-0.7l-0.5-0.8l-0.3-0.8l-0.3-0.9l-0.3-1.2l-0.3-1.1l-0.1-0.7l-0.1-0.9
		v-0.7l0.1-0.9l0.2-1l0.2-0.8l0.3-0.8l0.4-0.9l0.4-0.8l0.3-0.7l0.4-0.6l0.5-0.5l0.7-0.6l0.9-0.8l1.2-0.6l1.1-0.6l0.9-0.4l1.6-0.4
		l1.5-0.2l0.8,0l0.5,0l1.1,0.1l1.2,0.2l0.9,0.3l1.2,0.3l1,0.5L186.5,68.9z"/>
</g>
</svg>
