<?xml version="1.0" encoding="utf-8"?>
<!-- Generator: Adobe Illustrator 28.2.0, SVG Export Plug-In . SVG Version: 6.00 Build 0)  -->
<svg version="1.1" id="be453618-7c74-4c2c-8cd1-f86f1901c5ba"
	 xmlns="http://www.w3.org/2000/svg" xmlns:xlink="http://www.w3.org/1999/xlink" x="0px" y="0px" viewBox="0 0 1000 228.2"
	 style="enable-background:new 0 0 1000 228.2;" xml:space="preserve">
<style type="text/css">
	.st0{fill:#FFFFFF;}
</style>
<path class="st0" d="M1000,24.7v142.7c0,13.6-11,24.7-24.6,24.7c0,0,0,0,0,0H81.9v-24.6h893.5V24.6H24.6v111.1l57.3,57.6v34.9
	L10,155.9c-6.4-6.5-10-15.2-10-24.3V29.5C0,13.2,13.2,0,29.4,0h0h945.9C989,0,1000,11.1,1000,24.7z"/>
<rect x="466.5" y="55.7" class="st0" width="17.3" height="79.6"/>
<path class="st0" d="M191.1,61.8c-2.6-6.3-9.8-9.3-16.1-6.7c-3,1.2-5.4,3.7-6.7,6.7l-30.4,73h18.8l7.3-17.5h31.6l7.3,17.5h18.8
	L191.1,61.8z M169.5,103.8l10.2-24.4l10.2,24.4H169.5z"/>
<path class="st0" d="M643.6,61.8c-2.6-6.3-9.8-9.3-16.1-6.7c-3,1.2-5.4,3.7-6.7,6.7l-30.4,73h18.8l7.3-17.5H648l7.3,17.5H674
	L643.6,61.8z M622,103.8l10.2-24.4l10.2,24.4H622z"/>
<path class="st0" d="M431.2,61.8c-2.6-6.3-9.8-9.3-16.1-6.7c-3,1.2-5.4,3.7-6.7,6.7l-30.4,73h18.8l7.3-17.4h31.6l7.3,17.5h18.8
	L431.2,61.8z M409.6,103.8l10.1-24.4l10.2,24.4H409.6z"/>
<path class="st0" d="M586.3,55.7v69.5c0,10.9-14,15.3-20.2,6.4l-32-46.1v49.9h-17.3V66.7c0-11.2,14.4-15.7,20.8-6.5l31.5,45.3V55.7
	H586.3z"/>
<path class="st0" d="M295.5,55.7v69.5c0,10.9-14,15.3-20.2,6.4l-32-46.1v49.9h-17.4V66.7c0-11.2,14.4-15.7,20.8-6.5l31.5,45.3V55.7
	H295.5z"/>
<path class="st0" d="M900,136.8c-29.4,0-44.4-19.9-44.4-40.6c0-24.2,20.5-41.6,43.9-41.6c25.4,0,44.3,15,44.3,42.2
	C943.8,118.1,927.1,136.8,900,136.8z M924.9,96.2c0.1-15.6-9.9-26.1-23.8-27c-13.4-0.8-26.3,10.9-26.3,26.6c0,15,11,26.8,25,26.9
	C914.2,122.7,924.8,111.6,924.9,96.2L924.9,96.2z"/>
<path class="st0" d="M821.6,122.7c-14-0.1-25.1-11.9-25-26.9c0-15.7,12.9-27.5,26.3-26.6c7.6,0.3,14.5,4.1,18.9,10.3l10.8-14.2
	c-7.9-7-18.9-10.7-31.4-10.7c-23.4,0-43.9,17.3-43.9,41.6c0,20.8,15,40.6,44.4,40.6c12.6,0,22.9-4,30.4-10.5l-10.5-13.7
	C837,119.1,829.5,122.9,821.6,122.7z"/>
<path class="st0" d="M766.2,135.4h-17.3V85.1l-17.7,26.2c-3.4,5-10.1,6.3-15.1,3c-1.2-0.8-2.2-1.8-3-3l-17.7-26.2v50.3h-17.3v-69
	c0-12.9,15.7-14.6,22.5-4.6l21.5,31.9l21.5-31.9c6.8-10.1,22.5-8.4,22.5,4.6L766.2,135.4z"/>
<path class="st0" d="M339.5,55.7h-21.4c-3.8,0-6.9,3.1-6.9,6.9v65.9c0,3.8,3.1,6.9,6.9,6.9h23.7c25.4,0,39.2-19.6,39.2-40.4
	C381.1,71.9,364.9,55.7,339.5,55.7z M339.5,121.4h-11V70.5h11c12.7,0,23.1,8.3,23.1,25.6C362.6,111.2,351.1,121.4,339.5,121.4z"/>
<path class="st0" d="M131.8,75.4c0-10.9-10.2-19.6-22.8-19.6H71.4c-3.8,0-6.9,3.1-6.9,6.9l0,0v65.9c0,3.8,3.1,6.9,6.9,6.9l0,0h44.5
	c13.2,0,20.4-10.5,20.4-21.3c0-12.2-8.8-17.4-17.3-19.6C128.8,90.4,131.8,84.9,131.8,75.4z M103.7,70.5c6.8,0,10,3.3,10,8.5
	c0,4.5-2.7,9.7-10,9.7H81.8V70.5L103.7,70.5z M117.9,111.7c0,4.6-2.8,9.8-11.2,9.8H81.8v-19.5h25.4
	C115.3,101.9,117.9,106.6,117.9,111.7z"/>
</svg>
