<svg xmlns="http://www.w3.org/2000/svg" xml:space="preserve" width="1000px" height="458px" x="0px" y="0px" viewBox="0 271 1000 458"><path fill="#ffffff" d="M928.551 679.708c-4.468 0-8.482 0-12.059-.447-7.591-.444-15.181-.893-22.772-.893-4.91 0-4.91 0-5.359-4.911l-7.146-81.276-7.143-67.43-4.911-41.529-4.468-36.171-8.039-56.268c-2.68-20.093-5.803-39.742-9.822-59.84-.448-3.123-.448-3.571 3.128-4.02 13.842-2.68 28.132-4.019 42.421-4.019h4.912c2.23.447 3.57 1.787 4.02 4.467l1.787 30.812 12.502 166.567 6.251 76.36 4.02 43.767 2.678 34.831zM381.068 322.905h8.039c4.02 0 4.911 1.34 4.911 5.358l3.576 54.037 8.038 112.083 4.912 58.499 3.57 45.105 7.147 77.7c0 3.572-.448 4.02-4.02 4.02l-32.155-1.34c-2.231.448-3.571-.892-3.571-3.127l-1.34-15.63c-1.34-13.394-2.68-26.792-3.571-40.634l-7.147-70.558-7.591-63.859-5.359-45.101-5.803-41.086c-2.68-18.31-5.808-37.063-8.931-55.372l-2.235-12.502c-.444-2.236 0-3.128 2.235-3.576 12.503-2.23 24.561-4.461 39.295-4.017zM830.31 502.87c11.162 0 12.502.448 14.29 11.162a620.396 620.396 0 0 1 5.359 40.19l4.911 43.317 9.379 91.99c.443 2.236 0 3.128-2.236 3.128l-34.831 4.02c-3.571.443-4.468 0-4.911-3.571l-20.097-102.709-12.502-68.326-1.788-9.379c-.443-1.783.448-3.123 2.236-3.571 13.841-3.123 27.24-5.359 40.19-6.251zm-507.741 0c12.058-.448 13.397.892 14.737 12.059 3.128 18.31 5.359 36.171 7.147 54.48l5.803 53.583 3.571 36.176 3.128 29.022c0 4.02-.448 4.916-4.02 5.359l-33.043 3.128c-3.575.443-4.468 0-4.915-3.571l-27.24-140.224-7.143-39.742c-.448-2.231.443-3.571 2.68-4.02 13.842-3.122 26.793-5.358 39.295-6.25zm170.587 138.432v57.159c.448 2.68-.892 4.02-3.571 3.576h-10.719c-7.591 0-15.182.443-22.772.892-4.02.448-4.468.448-4.916-4.468l-7.143-80.38-3.571-39.742-5.359-60.73c-.448-4.916.448-5.808 4.463-6.256 12.507-1.34 25.009-1.34 37.516-.892l9.374 1.34c3.576 1.34 4.02 1.788 4.02 5.359l1.34 24.112.448 26.797c.446 24.56.89 48.672.89 73.233zM1000 643.981v54.928c0 2.231-.893 3.571-3.128 3.128H980.8c-6.252 0-12.508.443-18.311.892-3.57.448-4.02 0-4.467-4.02l-9.375-104.496-4.916-51.801-1.783-26.344c-.447-3.576.443-4.468 4.02-4.468 14.734-1.788 29.92-2.231 44.654-.448 5.806.448 6.698 2.236 7.146 8.039l1.34 59.392.892 65.198zM817.36 407.753c4.463 0 8.482.447 11.61.892 2.231.448 3.123 1.34 3.571 3.575l5.803 62.071c1.34 5.358.448 6.251-4.911 6.251l-15.182.892c-3.127.448-4.467.896-4.467-4.016l-6.252-50.465-1.783-14.289c-.448-2.68.443-4.02 3.123-4.464l8.488-.447zm-505.954 0c3.571 0 7.146.447 10.271.892 1.787.448 2.68 1.34 3.127 3.575l1.784 15.63 4.467 48.673c.448 3.571.448 4.02-3.127 4.02l-17.413.892c-3.572.448-4.02 0-4.468-3.571l-4.02-35.723-3.571-29.92c-.448-2.235.448-3.575 2.68-3.575 3.128-.446 6.699-.893 10.27-.893zm178.178 44.657v30.812c.448 4.911-.448 4.911-4.468 4.911-5.803 0-11.162-.444-16.521-.893-3.571-.447-4.02-.447-3.571-4.019l-1.34-37.959c0-8.482 0-16.97-.448-25.452-.443-4.02 0-4.467 4.02-4.467 6.251 0 12.502.447 18.758 1.339 3.571 0 3.571.896 3.571 4.468v31.26h-.001zm507.288.444v30.815c0 4.02-.444 4.464-4.463 4.464l-16.969-.893c-2.68-.447-4.02-1.787-3.572-4.019l-1.34-63.859c0-3.571.443-4.019 4.02-4.019 5.803 0 11.162.447 16.521.896 6.698.443 5.802 1.783 5.802 6.694l.001 29.921zM297.565 476.97c.443 5.359 0 6.252-5.359 6.699l-10.719 2.68c-3.571 1.34-4.02.444-4.463-2.68l-11.167-62.967c-1.34-4.02-.448-4.911 3.571-5.358l15.63-2.68c3.576-.444 4.468-.444 4.468 3.127 1.34 7.591 2.68 15.182 3.571 22.772l4.468 35.728v2.679zm475.137-61.179c6.699-1.34 13.842-2.231 20.989-3.127 2.231-.444 3.123.896 3.571 3.127l3.571 24.561c1.788 12.059 3.128 24.112 3.575 36.171v3.571c.444 1.788-.447 3.128-2.235 3.575l-14.29 3.124c-2.231.447-3.123-.444-3.571-2.68l-11.61-66.534v-1.788zm-317.057 48.23c0 7.143-.448 13.842-.892 20.093 0 2.235-.896 3.127-3.128 3.575l-13.842 1.34c-2.231.443-3.128-.896-3.128-3.128-.892-6.698-1.34-12.949-1.783-19.648-.896-12.059-1.788-24.561-2.236-37.063l-.892-8.931c-.448-1.788.448-2.68 2.231-2.68l18.31-1.34c3.128 0 4.02.444 4.02 4.02l1.34 43.762zm506.397-7.148c.447 8.487.447 17.418 0 25.9.447 4.02-.443 4.915-4.463 4.915l-12.508 1.34c-2.23.443-3.57-.896-3.57-3.128-.449-11.162-1.34-22.771-2.232-33.938l-1.787-31.26c-.448-2.231.448-3.123 2.23-3.123l17.867-1.34c3.123 0 3.57.444 3.57 4.02.893 12.054 1.341 24.56.893 36.614zM280.147 609.15c7.147 8.487 8.487 17.861 5.359 28.132-2.68 9.827-7.591 18.31-14.738 25.457-11.61 12.058-25.004 21.88-39.741 29.471-25.452 13.398-51.801 22.777-79.937 27.688-20.093 4.02-40.19 6.699-60.283 8.039-6.251.443-12.502.443-18.758.443H58.656c-3.575 0-4.468-.892-4.915-4.463L50.617 680.6l-8.486-85.292-9.374-81.276-5.359-43.313-5.808-41.53c-3.123-22.776-7.143-45.549-11.162-68.326C7.3 342.553 4.177 324.245.157 305.939c-.448-2.235 0-4.02 2.231-4.467l62.07-25.9c4.02-1.788 7.591-3.128 11.61-4.02 2.68-.448 4.02.448 3.571 3.128 0 7.143 0 14.29-.443 21.881l-.448 5.803c-.443 25.899-.443 51.8 0 78.148.448 22.776 1.788 45.997 3.128 68.77 2.231 35.727 5.803 71.449 9.379 106.729 0 3.571.443 3.571 4.463 3.128 7.591-1.34 14.738-1.788 22.329-1.788 23.668 0 47.332 2.68 70.109 8.482 20.093 4.915 39.299 11.614 58.499 20.097 9.379 4.468 17.861 9.822 25.9 16.078 3.129 2.231 5.36 4.463 7.592 7.142zm503.274-4.019c9.378 7.591 12.502 17.861 9.822 29.92-2.231 9.827-6.699 18.31-13.398 25.9-10.714 12.058-23.221 21.437-37.063 29.027-26.792 14.738-55.371 25.009-85.739 30.368-16.521 3.123-33.048 5.803-49.569 7.143-9.378.892-19.648 1.34-29.919.892h-12.059c-2.675.448-4.015-.892-4.015-3.571-.896-12.502-1.788-25.009-3.128-37.511l-7.147-76.36-7.591-66.538-9.374-75.021c-1.34-12.95-3.128-26.349-5.359-39.299l-8.039-50.017c-3.571-23.664-8.039-47.333-12.949-71.001l-.448-3.124c-.892-2.235 0-4.02 2.231-4.467 21.885-8.931 43.317-18.758 65.198-27.24 5.808-2.231 12.95-4.911 12.507.448-1.788 16.521-1.34 33.043-1.788 49.12-.448 13.394-.448 26.792.448 39.742v10.271c0 16.078.443 32.155 1.783 47.78.896 20.989 2.236 42.427 4.02 63.415l4.02 45.102c.447 8.482 1.34 16.521 2.68 25.009 0 4.911.892 4.463 4.911 4.019 8.038-1.339 16.077-1.787 24.116-1.787 28.132.448 55.372 4.911 82.164 12.502 18.309 4.915 35.727 11.61 52.696 20.545 7.591 4.014 14.29 8.93 20.989 14.733zm-645.724 78.597c6.698-4.02 18.309-12.058 34.382-24.56 16.078-12.95 25.9-21.438 29.92-25.9-24.112-10.719-49.121-20.098-75.021-28.58l10.719 79.04zm570.254-48.229c1.34-1.34.892-2.231-.448-3.128l-10.718-4.463c-18.753-8.039-37.511-15.187-56.712-21.438l-2.68-.892c-.892-.448-1.783 0-3.123.448l10.714 77.252c1.34 0 2.236-.447 2.68-.892 17.418-12.506 34.831-25.456 52.249-39.298l8.038-7.589z"/></svg>