<?xml version="1.0" encoding="utf-8"?>
<!-- Generator: Adobe Illustrator 28.2.0, SVG Export Plug-In . SVG Version: 6.00 Build 0)  -->
<svg version="1.1"
	 id="svg5" xmlns:inkscape="http://www.inkscape.org/namespaces/inkscape" xmlns:sodipodi="http://sodipodi.sourceforge.net/DTD/sodipodi-0.dtd" xmlns:svg="http://www.w3.org/2000/svg" inkscape:version="1.2.1 (9c6d41e410, 2022-07-14)" sodipodi:docname="Call of Duty 2023.svg"
	 xmlns="http://www.w3.org/2000/svg" xmlns:xlink="http://www.w3.org/1999/xlink" x="0px" y="0px" viewBox="0 0 637.3 112.7"
	 style="enable-background:new 0 0 637.3 112.7;" xml:space="preserve">
<style type="text/css">
	.st0{fill:#FFFFFF;}
</style>
<g id="layer1" transform="translate(6.7561777,-88.9)" inkscape:groupmode="layer" inkscape:label="Layer 1">
	
		<path id="rect354" sodipodi:nodetypes="ssssssssssssccccccccsssssssssccccccssssscccccccccccccccccsssssscccssssscssccccccccccccccccssccccssccccccccccccccccccssssccsscsssscscsccccccccccccccccc" class="st0" d="
		M7.9,88.9c-1.3,0-2.4,1.2-2.9,1.8c-3.7,4-8.2,9-10.7,12.6c-0.6,0.9-1,1.6-1,2.8v78.3c0,1.2,0.4,1.9,1,2.8
		c2.6,3.6,7.1,8.6,10.7,12.6c0.6,0.6,1.6,1.8,2.9,1.8h43.5c1.3,0,2.4-1.2,2.9-1.8c3.7-4,8.3-9,10.8-12.6c0.6-0.9,1.1-1.6,1.1-2.8
		V153H37.8v29.9H21.5v-75.3h16.3v30h28.4v-31.6c0-1.2-0.5-1.9-1.1-2.8c-2.6-3.6-7.1-8.6-10.8-12.6c-0.6-0.6-1.6-1.8-2.9-1.8H7.9z
		 M87.5,88.9c-1.3,0-2.4,1.2-2.9,1.8c-3.7,4-8.2,9-10.7,12.6c-0.6,0.9-1,1.6-1,2.8v95.5H101v-33.1h16.3v33.1h28.4v-95.5
		c0-1.2-0.5-1.9-1.1-2.8c-2.6-3.6-7.1-8.6-10.8-12.6c-0.6-0.6-1.6-1.8-2.9-1.8H87.5z M152,88.9v112.7h52.9v-21.3h-21.8V88.9H152z
		 M210.2,88.9v112.7h52.9v-21.3h-21.8V88.9H210.2z M335.2,88.9v112.7h58.4c1.3,0,2.4-1.2,2.9-1.8c3.7-4,8.2-9,10.7-12.6
		c0.6-0.9,1-1.6,1-2.8v-78.3c0-1.2-0.4-1.9-1-2.8c-2.6-3.6-7.1-8.6-10.7-12.6c-0.6-0.6-1.6-1.8-2.9-1.8H335.2z M415,88.9v95.5
		c0,1.2,0.4,1.9,1,2.8c2.6,3.6,7.1,8.6,10.7,12.6c0.6,0.6,1.6,1.8,2.9,1.8h43.5c1.3,0,2.4-1.2,2.9-1.8c3.7-4,8.3-9,10.8-12.6
		c0.6-0.9,1.1-1.6,1.1-2.8V88.9h-28.4v94h-16.3v-94H415z M494,88.9v23.2h16.5v89.5h28.4v-89.5h16.5V88.9H494z M561,88.9v48.9
		c0,1.2,0.4,2.1,1,3c2.8,3.6,14.1,17.4,18.5,22.3v38.5h30.5v-38.4c4.3-4.8,15.8-18.7,18.5-22.3c0.7-0.9,1-1.8,1-3V88.9h-26.4v41.9
		l-6.9,8.2h-2.9l-6.9-8.2V88.9H561z M101,107.6h16.3v42.1H101V107.6z M363.7,107.6h16.4v75.3h-16.4L363.7,107.6z M261.2,111.5
		c-0.5,0-0.9,0.5-1.1,0.7c-1.3,1.5-3,3.4-3.9,4.8c-0.2,0.3-0.4,0.6-0.4,1v35.6c0,0.4,0.2,0.7,0.4,1c0.9,1.4,2.6,3.3,3.9,4.8
		c0.2,0.2,0.6,0.7,1.1,0.7h22c0.2,0,1-0.5,1.2-0.7c1.3-1.5,3-3.4,3.9-4.8c0.2-0.3,0.4-0.6,0.4-1V118c0-0.4-0.2-0.7-0.4-1
		c-0.9-1.4-2.6-3.3-3.9-4.8c-0.2-0.2-0.9-0.7-1.2-0.7H261.2z M294.3,111.5v48.7h12.5V144h13.6v-11.2h-13.6v-10.1h15.4v-11.2h-15.4
		L294.3,111.5z M268.4,121.8h7.9v28h-7.9V121.8z"/>
</g>
</svg>
