<?xml version="1.0" encoding="utf-8"?>
<!-- Generator: Adobe Illustrator 28.2.0, SVG Export Plug-In . SVG Version: 6.00 Build 0)  -->
<svg version="1.1"
	 id="svg987" xmlns:inkscape="http://www.inkscape.org/namespaces/inkscape" xmlns:sodipodi="http://sodipodi.sourceforge.net/DTD/sodipodi-0.dtd" xmlns:rdf="http://www.w3.org/1999/02/22-rdf-syntax-ns#" xmlns:dc="http://purl.org/dc/elements/1.1/" xmlns:cc="http://creativecommons.org/ns#" xmlns:svg="http://www.w3.org/2000/svg" inkscape:version="1.1.2 (b8e25be833, 2022-02-05)" sodipodi:docname="Capcom.svg"
	 xmlns="http://www.w3.org/2000/svg" xmlns:xlink="http://www.w3.org/1999/xlink" x="0px" y="0px" viewBox="0 0 1000 185.3"
	 style="enable-background:new 0 0 1000 185.3;" xml:space="preserve">
<style type="text/css">
	.st0{fill:#FFFFFF;}
</style>
<g>
	<path class="st0" d="M717.7,39.2c-60.4,0-60.4,106.8,0,106.8C778.2,146.1,778.2,39.2,717.7,39.2z"/>
	<polygon class="st0" points="230.9,94 259.6,94 245.2,53.7 	"/>
	<path class="st0" d="M392.3,42v60.4c17.9-4,43.1-20.9,43.1-39.2C435.4,49.6,430.2,42,392.3,42z"/>
	<path class="st0" d="M989.1,130.8l-11.4-80.6c-1.1-3.3,3.8-6.6,8.7-6.6V4.9h-86.1l-7.1,16.9l-5.9-16.9h-83.5v36
		c-20.1-26.7-48.4-40.3-86.6-40.3c-38.1,0-64.8,14.8-78.4,33.8C626.1,14.2,593.5,0,564.5,0c-29.9,0-62.1,15.3-79,38.8
		c-15.8-24-35.3-34.4-57.2-34.4h-97.5v40.9c3.2,0,6.6,2.2,7.1,4.4v87.9c-2.7,0-5.5-1.3-7.1-5.2L281.7,4.9h-61l-48.5,125.9
		c0,0-2.1,4.9-5.4,6v-23h-38.2c-0.5,11-16.8,13.2-21.2,13.2c-9.9,0-36.4-8.2-36.4-39.9c0-6.6,10.1-32.4,23.9-32.4
		c3.6,0,15,6.8,5,20.9l29.7,19.9l47.3-50.2C153.3,13.4,126.4,0.2,96,0.2C42.5,0.2,0,42.9,0,92.6c0,47.4,48.4,90.4,96,90.4h322v-37
		c-7.7-2.2-9.3-5.6-9.3-9.2c21.3-3.8,58.9-23,64.3-31.6c0,24,34.4,77.4,113.4,77.4h51.8v-30.5c10.4,15.8,42,33.2,79,33.2
		c34.4,0,60.5-14.7,67.6-22.3v20.5h80.1v-32.9h48.5v32.9h86.6v-43.4C995.6,140.1,990.2,134.6,989.1,130.8z M149.3,167.4H103v0
		c-54.5,0-86.1-40.9-86.1-74.7c0-36.5,31.6-75.2,79.1-75.2c24.4,0,43,8.8,57.7,27.8l-26.1,29.5l-8.8-6.1c8.8-22.9-16.3-30.5-24-30.5
		C67,38.1,54.5,71.3,54.5,90c0,39.8,33.2,53.9,55.3,53.9c10.3,0,22.6-3.8,28-13.3h11.4V167.4z M328.6,166.4h-54.4v-10.5
		c2.2,0,6.6-2.4,5.4-6l-12.1-33.8h-44.4l-11.2,31.1c-1.6,3.5,1.1,8.2,7.7,9.2v10h-46.3v-9.6c2.7,0,6-1.4,8.2-4.2l51.2-130.6h37.8
		l48.8,125.1c1.1,2.7,6,8.2,9.2,9.8V166.4z M392.3,122.3V150c0,2.6,3.4,4.2,6.6,5.4v10.9h-50.7v-11.5c2.7-0.6,6.6-2,6.6-4.9V36
		c-0.6-2.1-3.1-3.1-6.6-3.6V21.8h76.9c39.8,0,47.9,27.9,47.9,40.9C473,92.3,436.6,114.7,392.3,122.3z M566.7,38.1
		c-18.5,0-38.7,13.1-38.7,49.5c0,30.4,26.2,56.3,53.7,56.3c10.3,0,22.6-3.8,28-13.3h11.4v35.7h-43v0c-54.5,0-89.4-39.8-89.4-78.7
		c0-36.5,31.6-70.1,79-70.1c24.4,0,43.1,8.8,57.8,27.8l-26.1,29.5l-8.8-6.1C599.5,45.8,574.4,38.1,566.7,38.1z M718.2,168.7
		c-110.1,0-110.1-151.8,0-151.8C828.3,16.9,828.3,168.7,718.2,168.7z M984.8,164.9h-54.5v-9.7c3.3-0.6,9.2-4,8.2-7.5l-12.6-85.6
		l-24,71h-26.1l-22.9-64.9l-13.1,79.5c-0.7,3,2.8,5.3,7.7,7.5v9.7h-44.2v-9.7c3.6-1,5.5-2.9,6.5-5.1l18.5-112.8c1.1-3.9-3.2-6-7-7.2
		v-10h53.3L893.2,79l19.1-58.8h55v10c-2.1,0.6-8.1,3.3-6.5,7.2L977,150.1c0.8,2.5,4.2,4.6,7.8,5.1V164.9z"/>
</g>
</svg>
