<svg xmlns="http://www.w3.org/2000/svg" xml:space="preserve" width="300px" height="164.242px" x="0px" y="0px" viewBox="0 0 300 164.242"><path fill="#DC0D15" d="M27.807 146.344c2.376-2.556 5.169-5.442 6.836-6.8a36.578 36.578 0 0 1-2.012-.252c-1.738 1.583-3.955 3.898-5.941 6.021-2.519 2.714-4.592 5.087-4.592 5.098-.033.02-.044.064-.076.091-1.646.454-4.436 1.221-6.293 1.727-2.753.763-5.223.576-5.223 2.375 0 0-2.849 1.529-2.182 3.807 0 0 5.716-4.564 10.606-5.338 0 0-2.988 1.943-2.716 4.576 0 0 4.025-6.025 8.728-2.37 0 0-2.096-2.848-1.223-4.413.752-.854 2.308-2.604 4.088-4.522m-9.053-71.129a1.86 1.86 0 0 1-.768.15 2.122 2.122 0 0 1-1.954-1.332c-.03-.066-.07-.147-.082-.232l-.621.206c.52 1.52 2.091 2.351 3.507 1.86.357-.127.676-.317.923-.56.778-.73 1.094-1.924.707-3.055l-1.423.485c.09.21.15.437.15.68 0 .209-.038.4-.12.581l.648.396c-.112.17-.25.34-.416.482a1.75 1.75 0 0 1-.551.34m57.596-4.614-28.11 6.856v-.03l.008.03L103.153 53.7l-45.25 5.542L82.125 41.55 56.17 51.682l3.92-7.865-18.568 13.374-.157-.282L67.688 0 24.883 50.664l-.267-27.623L8.91 59.964 8.095 49.08.357 77.402l.014-.009v.009s1.042-.772 2.445-1.195c.113-.03.225-.058.34-.091.014 0 .027-.012.044-.012.113-.024.225-.05.34-.07.014 0 .03-.01.051-.01.116-.02.227-.037.357-.045v-.012c.121-.01.24-.016.353-.026h.074c.114-.011.237-.011.364 0 .008 0 .014 0 .043.01.107 0 .212.006.325.028.023.008.036.008.06.008.125.016.236.036.348.067a5.315 5.315 0 0 1 .445.123c2.647.958 4.899 0 4.899 0s2.492 1.6 2.492 2.942h-.005v.006s-3.28.192-3.28-1.261c0 0-4.196-1.488-10.066.685l12.38 5.324c-.009-.057-.661-2.362.055-3.163.226-.277.623-.374 1.244-.164.227.08.391.06.494-.038.961-.993-3.707-9.613-3.707-9.613s-4.19-.407-7.819 3.386c-.24.251-.49.521-.723.817v-.013.013a15.9 15.9 0 0 1 3.509-4.142c1.175-.988 2.647-1.872 4.4-2.372.48-1.152-.13-.401.86-1.007.008 0 .008-.01.008-.01.465-3.04 2.186-10.87 8.12-17.564a26.63 26.63 0 0 1 1.247-1.319s-1.522 2.86-1.522 4.85c.043-.05 1.546-2.304 3.622-4.365v-.009s-.025.032-.055.09c-.387.824-3.216 6.866-2.92 8.63.007.016.013.026.013.043l5.721-5.242-.024.016c-.166.226-5.371 7.267-5.885 9.68v.016l8.662-6.187-.009.01c-.027.05-1.09 1.531-1.537 2.344-.317.581-.364.778-.364.838l.015.047 4.663-2.001s-.202.243-.528.596l-1.735 1.764-.429.453-3.153 3.189-.06.072-2.4 2.44-1.54 1.568s-1.259 1.31-1.41 1.99c-.15.669.558 1.082.558 1.082h-.007c.641.358 1.16.91 1.462 1.573.17.401.263.837.263 1.306 0 .917-.375 1.75-1.003 2.35a3.479 3.479 0 0 1-2.442.984c-.87 0-1.644-.314-2.25-.82.106.142 1.812 2.285 4.942.618l3.868-2.819.167-.13 4-2.925c.944 1.113 1.835 2.455 2.641 3.976-2.377 2.258-6.429 6.174-10.474 10.456-2.41 2.546-4.817 5.238-6.87 7.78l1.443-6.777.118-.56s-.006 0-.006.01c-.016.005-.024.005-.036.016 0 .006-.019.016-.019.016-.013.007-.03.007-.037.03-.009 0-.02.006-.02.024-.016.007-.04.017-.055.027-.009.006-.015.029-.04.033-.012.007-.035.032-.056.038-.011.02-.026.027-.049.045-.016.015-.027.031-.06.038-.022.024-.036.044-.06.057-.02.016-.044.045-.069.047-.02.03-.044.058-.065.065-.031.023-.055.05-.085.068-.022.018-.045.045-.063.067-.034.026-.073.046-.094.083-.04.015-.052.04-.091.058-.022.036-.06.064-.098.097-.022.024-.06.052-.084.08-.038.032-.082.068-.113.107-.03.028-.05.055-.09.074a.533.533 0 0 1-.128.128.364.364 0 0 0-.075.074.9.9 0 0 1-.085.075c0 .01-.006.01-.006.01-.043.04-.09.093-.135.142a.36.36 0 0 0-.097.1c-.055.041-.094.087-.138.13-.038.035-.077.079-.113.112-.03.046-.07.082-.09.11-.015.012-.036.034-.053.05 0 .006-.014.017-.03.035a4.779 4.779 0 0 0-.084.085c-.038.045-.075.08-.113.125-.008.016-.014.028-.03.032-.016.017-.029.025-.045.04a.29.29 0 0 1-.076.09.851.851 0 0 1-.15.165c-.038.059-.084.098-.121.155-.045.057-.106.117-.152.17-.045.057-.087.1-.128.158-.06.062-.104.129-.165.192-.038.05-.085.103-.133.163-.049.07-.1.13-.161.21-.045.041-.084.102-.13.154-.057.087-.119.159-.18.238-.047.06-.083.101-.113.156-.075.097-.152.193-.227.292-.023.037-.062.082-.082.12-.106.145-.218.292-.32.447l-.012.016c-.101.147-.205.293-.303.441a1.573 1.573 0 0 1-.088.14c-.07.113-.15.227-.227.347-.04.056-.07.112-.113.17-.069.113-.138.215-.212.328l-.111.192c-.06.11-.139.228-.21.342-.032.068-.077.134-.113.206-.07.113-.13.233-.207.347-.039.06-.083.14-.12.21-.07.133-.138.247-.207.367-.032.068-.072.144-.11.222a44.508 44.508 0 0 0-.945 1.846v.013l-1.593.266c.32-.82.634-1.563.976-2.27l-2.596 3.657 2.596-.255c-2.221 5.103-3.85 11.78-3.85 21.291l2.115-1.338c1.862 10.613 10.614 15.28 10.614 15.28l-.015-.067c4.82 3.154 10.688 5.361 17.155 6.236.896.114 1.624.18 1.788.196.006 0 .006 0 .006-.004.117.011.22.031.333.031 3.502.306 6.904.18 10.157-.294a5.316 5.316 0 0 0-.015.372c0 2.102 1.167 3.831 2.657 3.976-3.059 5.197-5.534 12.105-5.541 12.138-.119.318-.363.905-.61 1.082-.753.17-.813.209-1.646.467l.013-.01c-.282-.273-2.697-.724-5.156.198.006.013.006.013.02.024-1.393.61-2.747 1.727-3.686 3.574 1-.807 2.866-2.12 4.383-1.937-1.798 1.024-4.904 2.98-5.26 5.794 0 0 10.787-7.568 16.106-6.17 0 0-.774.88 1.056 4.148l.838-3.041c.958-2.95-2.737-3.385-4.29-3.449.007-.021.007-.031.007-.036 0 0 .172-.472.474-1.254.915-2.363 3.047-7.587 5.38-11.315.044-.08.074-.161.099-.24l-.438-.601c.005 0 .315-.34.484-.59.309-.489.737-1.32.745-2.417 0-.86-.21-1.948-.825-3.298l1.383-.64c.074.175.149.338.222.497.02.06.04.113.058.159.044.115.087.226.126.339.023.052.042.113.063.17.038.123.072.237.113.35.007.034.03.08.037.12l7.896-2.384-1.75-1.439H58.6l-.078-.078-.04-.031-29.86-27.195c.009 0 .016.014.016.014l-.007-.014a1813.83 1813.83 0 0 0 34.41 16.342c16.183 7.46 26.429 11.802 31.714 13.969.045.027.094.046.13.062h.009c.768.316 1.426.582 1.982.808 1.131.442 2.19.853 2.248.88.09-.051.197-.08.288-.126L39.04 96.377 76.35 70.602zM34.57 83.363l-9.002 6.846 6.46-14.206v-.013c1.027 2.18 1.89 4.67 2.548 7.373h-.007zm32.133 48.983.227 1.081h-.006l10.518 6.204 2.662 1.546-1.455-3.746c8.678 2.56 15.744 2.703 20.444.488 0 0-.006 0-.006.004-8.18 2.416-28.465-4.418-32.384-5.577"/><path d="M10.066 77.864c0 1.454 3.28 1.262 3.28 1.262 0-1.337-2.487-2.943-2.487-2.943s-2.252.952-4.914 0c-1.065-.386-2.18-.26-3.129.03C1.555 77.055 0 78.56 0 78.56c5.872-2.185 10.066-.696 10.066-.696m21.963-1.86-6.46 14.206 9-6.846c-.65-2.705-1.525-5.185-2.54-7.36m67.109 61.904s-20.218-7.587-70.517-32.06l29.978 27.302h.011c2.687-1.115 4.576-1.908 8.314.278l-.22-1.082c3.91 1.16 24.272 8.029 32.434 5.562m-48.676-1.928c.615 1.35.825 2.436.825 3.298-.008 1.097-.436 1.928-.745 2.416-.17.252-.48.59-.484.59l.898 1.231c.097-.064 1.85-1.387 1.85-4.237 0-1.11-.267-2.424-.965-3.94l-1.379.642zm-18.045 3.273c1.426.227 2.725.348 2.725.348l.067-.753s-1.273-.115-2.67-.341l-.122.746zm-1.025-64.541c-.806-1.521-1.697-2.864-2.641-3.977l-8.035 5.885c-3.244 1.713-4.956-.634-4.956-.634a3.47 3.47 0 0 0 2.264.826c1.908 0 3.44-1.504 3.446-3.334 0-.464-.095-.907-.27-1.296a3.392 3.392 0 0 0-1.462-1.58l.013-.005s-.708-.412-.558-1.081c.151-.679 1.41-1.99 1.41-1.99l-.009.006 3.95-4.014.059-.072 3.582-3.641 1.735-1.764c.326-.354.52-.588.52-.588l-4.67 1.992s-.09-.05.364-.886c.452-.829 1.546-2.354 1.546-2.354l-8.67 6.188c.502-2.43 5.917-9.701 5.917-9.701l-5.721 5.235c-.384-1.825 2.962-8.759 2.962-8.759-2.106 2.089-3.622 4.378-3.622 4.378 0-2 1.516-4.863 1.516-4.863-6.949 6.95-8.876 15.648-9.36 18.883-1.008.629-.389-.137-.87 1.019-4.665 1.318-7.312 5.479-7.914 6.512 3.785-4.67 8.548-4.203 8.548-4.203s5.687 10.51 3.213 9.662c-2.493-.864-1.299 3.316-1.299 3.316l-4.653-2.007c.767 1.52 2.277 5.097 1.41 8.82-.959 1.453-1.908 3.228-2.749 5.415l1.593-.267c.311-.667.62-1.273.93-1.855.044-.075.093-.147.125-.22.062-.123.131-.24.206-.364.038-.072.082-.152.121-.22.067-.112.126-.226.198-.339.045-.08.09-.146.121-.215.072-.113.133-.228.211-.333a1.61 1.61 0 0 1 .111-.188c.068-.113.143-.227.212-.335a.808.808 0 0 1 .113-.173c.065-.113.146-.227.227-.34.031-.053.052-.103.088-.147.098-.15.202-.294.303-.435 0-.006.013-.016.013-.024.1-.153.206-.293.307-.435.032-.035.064-.083.094-.123.075-.104.144-.195.22-.297a1.14 1.14 0 0 1 .12-.146c.054-.081.113-.163.174-.248a.947.947 0 0 0 .127-.155c.056-.072.114-.141.17-.21.042-.05.095-.1.133-.155.06-.07.105-.131.159-.192.047-.052.083-.105.128-.157.052-.062.103-.123.158-.177.037-.05.083-.095.12-.144.051-.065.106-.112.142-.17.046-.04.085-.095.13-.136.048-.05.091-.098.143-.15.039-.052.075-.08.114-.127a1.6 1.6 0 0 0 .143-.153c.03-.029.075-.074.113-.121a.798.798 0 0 1 .138-.129c.028-.031.058-.066.097-.1.045-.047.092-.102.135-.14.038-.027.058-.063.091-.083l.202-.206c.04-.02.061-.047.091-.073.03-.04.075-.076.113-.11.023-.027.062-.056.084-.08.037-.032.076-.06.098-.097.039-.016.053-.042.09-.056.024-.036.061-.056.095-.082a.477.477 0 0 1 .063-.068c.03-.02.054-.046.085-.068a.184.184 0 0 0 .065-.065c.025-.004.05-.032.068-.05.025-.01.04-.032.06-.055.034-.008.045-.026.061-.04.023-.017.038-.024.05-.046.02-.005.043-.027.056-.034.024-.006.03-.028.039-.033.014-.01.039-.02.055-.03 0-.015.011-.02.02-.02.007-.024.024-.024.037-.033 0 0 .019-.01.019-.016.012-.01.02-.01.036-.017 0-.01.006-.01.006-.01l-.118.562-1.444 6.776c5.47-6.776 13.548-14.639 17.345-18.234m-16.07-.706.628-.205c.013.084.051.165.082.233a2.12 2.12 0 0 0 1.954 1.33c.264 0 .521-.04.768-.148.416-.17.748-.47.967-.822l-.648-.388a1.4 1.4 0 0 0 .12-.589c0-.244-.06-.469-.15-.68l1.423-.485c.515 1.514-.21 3.133-1.635 3.622-1.416.485-2.99-.34-3.51-1.868"/><path fill="#FFF" d="M146.927 85.388c-.96-.257-2.394-.399-4.258-.399h-4.052v22.893l.43-.3 3.331-2.348.119-.088V98.67h1.271c2.35 0 4.258-.627 5.659-1.843 1.413-1.242 2.123-2.923 2.123-5.015 0-1.961-.669-3.6-1.982-4.893a5.947 5.947 0 0 0-2.641-1.531m-3.374 9.982h-1.066v-7.017h1.196c3.06 0 4.602 1.133 4.602 3.394 0 2.415-1.585 3.623-4.732 3.623m24.918 2.749c1.338-.377 2.446-1.102 3.298-2.168.935-1.164 1.4-2.588 1.4-4.204 0-2.07-.754-3.773-2.242-5.043-1.336-1.13-3.523-1.716-6.498-1.716h-4.171v22.892l.42-.3 3.343-2.347.117-.088v-6.553h.184l6.231 8.926.15.225.226-.162 2.673-1.93.226-.161-.161-.224-5.196-7.147zm-4.333-2.749V88.353h1.196c3.062 0 4.603 1.133 4.603 3.394 0 2.415-1.583 3.622-4.733 3.622h-1.066zm-53.823-9.7c-1.315-.453-3.116-.682-5.346-.682h-4.904v22.634h4.85c2.252 0 4.019-.205 5.271-.625 1.326-.42 2.627-1.174 3.846-2.24 2.414-2.147 3.653-4.98 3.653-8.453 0-3.437-1.187-6.271-3.512-8.393-1.153-1.047-2.448-1.8-3.858-2.242m1.087 16.298a7.178 7.178 0 0 1-2.598 1.517c-.946.316-2.174.464-3.632.464h-1.227v-15.27h1.227c2.751 0 4.863.656 6.25 1.94 1.565 1.454 2.341 3.36 2.341 5.688 0 2.316-.786 4.213-2.361 5.66m-25.466-13.71c1.43 0 2.844.41 4.223 1.218l.239.139.13-.237 1.616-2.792.14-.236-.237-.143c-1.888-1.086-3.872-1.636-5.877-1.636-3.705 0-6.765 1.387-9.093 4.136-1.899 2.254-2.858 4.84-2.858 7.707 0 3.189 1.154 5.972 3.407 8.234 2.284 2.241 5.064 3.384 8.288 3.384 2.132 0 4.193-.561 6.133-1.658l.138-.088v-.225l-.03-.064-1.627-2.815-.142-.246-.247.161a8.866 8.866 0 0 1-1.305.702c-.788.365-1.756.548-2.89.548-2.174 0-4.04-.775-5.55-2.308-1.499-1.527-2.262-3.438-2.262-5.668 0-2.26.763-4.203 2.263-5.753 1.5-1.575 3.363-2.36 5.541-2.36m188.686.421h5.075v19.203l.433-.3 3.33-2.347.118-.088V88.679h5.066V84.99h-14.022v3.686zM192.57 84.58c-3.245 0-6.068 1.157-8.375 3.429-2.328 2.273-3.503 5.033-3.503 8.2 0 3.6 1.294 6.564 3.84 8.794 2.302 2.008 4.955 3.03 7.865 3.03 3.278 0 6.121-1.154 8.438-3.415 2.318-2.253 3.493-5.035 3.493-8.278 0-3.213-1.165-6.016-3.47-8.301-2.294-2.297-5.075-3.459-8.288-3.459m5.541 17.453c-1.543 1.541-3.45 2.315-5.681 2.315-2.037 0-3.88-.765-5.442-2.285-1.585-1.51-2.383-3.461-2.383-5.818 0-2.23.775-4.142 2.295-5.66 1.52-1.543 3.418-2.328 5.627-2.328 2.221 0 4.106.785 5.606 2.328 1.52 1.531 2.283 3.458 2.283 5.722-.001 2.231-.778 4.16-2.305 5.726m65.902-16.956-8.123 8.33V84.74l-.432.313-3.33 2.34-.12.084v20.402l.442-.3 3.332-2.347.107-.088v-6.822l.397-.39 7.76 9.594.15.193.217-.14 2.855-1.93.249-.172-.194-.238-8.266-9.958 9.805-9.818.465-.475H264.1l-.087.087zm-47.733 2.328-.12.087v12.06c0 1.825-.193 3.104-.57 3.816-.334.668-.926.981-1.81.981-.646 0-1.348-.245-2.101-.753l-.248-.162-.14.247-1.649 2.846-.13.237.227.141c1.249.744 2.607 1.132 4.042 1.132 1.918 0 3.48-.701 4.643-2.057.595-.69 1.015-1.541 1.273-2.534.237-.86.367-2.134.367-3.879V84.741l-.444.313-3.34 2.35zm23.853 1.273.085-.076 3.071-3.135.452-.475h-13.103v22.634h9.568l.088-.074 2.995-3.136.445-.464h-9.216v-7.028h2.833l.075-.088 3.115-3.123.465-.475h-6.488v-4.558h5.615zM296.043 92.485a3.962 3.962 0 0 1-3.956-3.955 3.947 3.947 0 0 1 3.956-3.956A3.934 3.934 0 0 1 300 88.53a3.948 3.948 0 0 1-3.956 3.955m0-7.32a3.334 3.334 0 0 0-3.359 3.364 3.356 3.356 0 0 0 3.36 3.357 3.355 3.355 0 0 0 3.358-3.357 3.334 3.334 0 0 0-3.359-3.363m1.083 5.636-1.175-1.788h-.785v1.788h-.634v-4.535h1.846c.766 0 1.477.541 1.477 1.383 0 1.007-.898 1.342-1.157 1.342l1.213 1.81h-.785zm-.748-3.97h-1.212v1.601h1.212c.393 0 .821-.316.821-.783 0-.504-.428-.819-.821-.819"/></svg>