<?xml version="1.0" encoding="utf-8"?>
<!-- Generator: Adobe Illustrator 28.2.0, SVG Export Plug-In . SVG Version: 6.00 Build 0)  -->
<svg version="1.1"
	 id="svg5" xmlns:sodipodi="http://sodipodi.sourceforge.net/DTD/sodipodi-0.dtd" xmlns:svg="http://www.w3.org/2000/svg" xmlns:inkscape="http://www.inkscape.org/namespaces/inkscape" sodipodi:docname="drawing.svg"
	 xmlns="http://www.w3.org/2000/svg" xmlns:xlink="http://www.w3.org/1999/xlink" x="0px" y="0px" viewBox="0 0 682 159.7"
	 style="enable-background:new 0 0 682 159.7;" xml:space="preserve">
<style type="text/css">
	.st0{fill:#FFFFFF;}
</style>
<sodipodi:namedview  bordercolor="#666666" borderopacity="1.0" id="namedview7" inkscape:current-layer="layer1" inkscape:cx="526.03299" inkscape:cy="40.846213" inkscape:document-units="mm" inkscape:pagecheckerboard="0" inkscape:pageopacity="0.0" inkscape:pageshadow="2" inkscape:window-height="1017" inkscape:window-maximized="1" inkscape:window-width="1920" inkscape:window-x="-8" inkscape:window-y="-8" inkscape:zoom="0.90583672" pagecolor="#ffffff" showgrid="false">
	</sodipodi:namedview>
<g id="layer1" transform="translate(-4.6983262,-142.85212)" inkscape:groupmode="layer" inkscape:label="Layer 1">
	<g id="g839" transform="matrix(0.34012396,0,0,0.34012396,4.6983262,142.85187)">
		<path id="path1055" class="st0" d="M172.6,250.3c-3.4,0-6.8,0.3-9.9,1.1c-11.9,3.1-20.7,14.5-20.1,26.4v62.4
			c0,13.9,12.5,26.4,26.4,26.6h76.5c14.2,0,26.9-12.8,27.2-26.9v-63.2c-0.6-13.9-12.5-25.8-26.4-26.4H172.6z M170.6,275.8h73.4v66.3
			h-73.4V275.8z"/>
		<path id="path826" class="st0" d="M1156.8,0c-8.4-0.1-16.8,2.9-23,8.5c-8.5,7.7-12.2,19.3-12.8,30.6c-0.3,5.1,2,10.2,3.4,15
			c-0.9,1.1-2,2.3-3.1,3.4c-2.3-1.7-4-4.5-6.8-4.5c-8.5-0.3-17.6,2.5-23.8,8.5c-9.4,8.8-14.5,21-16.7,33.5c-1.7,9.6-2.3,19.8,0,29.8
			c0.3,1.4,0,3.1,0,4.5c-3.7,1.1-7.4,2.3-11.1,1.7c-3.1-0.6-6.8,0-8.2,2.8c-1.4,10.2-0.3,20.4-2.8,30.3c-0.9,5.1-1.7,10.2-1.4,15.3
			c6,2,12.2,2.6,18.4,4c-4.8,0.3-10.2,2-13,6.2c-0.9,7.9-0.6,16.2,1.4,24.1c0.9,7.4,0.9,15,1.7,22.4c-0.6-0.3-2-0.6-2.5-0.9
			c-5.1,2-4.5,8.2-6,12.5c1.1,0.9,2.6,2,3.7,2.8c-1.1,1.7-2.3,3.7-3.4,5.4l2.6,4.3c-0.3,1.4-0.6,2.6-0.9,4c0.6,2,2.3,3.4,3.4,4.8
			c-2.3,13.3-4.8,26.4-6,39.7c-0.6,4.5,1.1,9.1,0.6,13.6c0,3.7-2.8,6.2-4.5,9.4c-1.7,2.6-1.7,5.7-4,7.7c-3.4,3.7-5.4,8.2-7.9,12.5
			c-2.6,5.1-6,9.9-6,15.9c-0.3,2.6,0,5.1-0.9,7.7c-2.3,6-6.8,10.8-8.5,17c-0.9,3.7-1.1,7.7-0.9,11.3c0,2.3,2,3.4,3.4,4.8
			c-3.7,13.3-6.8,26.6-10.5,40c-1.7,4.8-1.1,10.2-0.3,15.3c0.3,1.1,0,2.6,1.1,3.4c10.8,3.4,22.1,2.3,33.2,0.8
			c0.6-3.4,1.4-6.8,0.3-10.2c-1.1-2.6-2.8-4.8-2.8-7.7c-0.3-6.2-0.3-12.8,0.6-19c1.7-6.5,4.5-12.5,7.1-18.7c2.3-0.3,5.1-0.9,6.2-3.1
			c2.8-5.4,4.3-11.3,6.2-17c4-7.7,8.2-15.6,10.2-24.1c1.1-3.4-1.1-7.1-0.6-10.5c1.4-3.1,3.1-6.2,4.3-9.6c1.1-2.6,4-3.1,5.7-5.1
			c2.6-3.1,3.7-6.8,5.4-10.5c2.3-1.1,4.8-2,6.2-4.3c1.1-2.8,1.7-5.7,2-8.8c0.6-6.2,3.4-11.9,5.4-17.6c1.7-4.5,3.4-9.1,5.4-13.6
			c2-2.6,4.8-4.5,6.5-7.4c2-2.8,2.6-6.5,3.4-9.9c2,4.3,4,8.8,7.1,12.2c2.8,2,6.5,1.7,9.6,2c7.4,11.1,15,22.4,22.4,33.5
			c3.1,5.4,10.5,4.3,15.6,3.7c1.1,2.3,3.1,4.2,4,6.8c-0.3,4.8-0.9,9.9-1.4,14.7c-2.3,2-4.2,4.3-4,7.4c0.3,11.1,1.1,22.1,3.1,32.9
			c1.1,4,2.5,8.2,2.5,12.5c-0.3,1.7,1.7,2.3,2.8,2.8c0.6,8.8,1.1,17.9,1.7,26.6c0.3,2.6-2.3,4.3-2.8,6.8c-1.4,7.4-4.2,14.7-3.7,22.4
			c6,4.5,13.6,2,20.1,1.7c4.8,0.6,9.4,2.6,14.2,3.7c12.2,1.7,24.4,1.7,36.6,0c0.6-3.4,1.7-7.1-0.3-10.2c-5.1-5.1-12.2-5.7-18.1-8.5
			c-5.4-5.4-10.5-11.3-15-17.6c-3.4-9.4-0.9-19-1.1-28.6c3.4-3.1,3.4-7.7,3.7-11.9c0.3-4.5-1.7-9.1-2-13.6c0.9-6,2.3-11.9,2.8-17.9
			c0.9-8.5,1.4-17,2-25.5c0-3.7,0.6-7.4-1.4-10.5c-2.3-3.4-1.1-7.7-2.3-11.3c-0.9,0-2.5,0.3-3.4,0.3c-4.8-12.8-9.4-25.5-15.3-37.7
			c-6-12.8-14.2-24.1-23.8-34.3c-1.7-3.4-1.7-7.4-2.8-11.1c-1.4-3.1,1.1-5.7,2.3-8.2c3.1,1.4,6,2.8,9.4,3.1
			c5.1-5.4,8.8-12.8,8.5-20.1c0.6-10.2,1.7-20.4,2-30.6c0-3.1-1.1-6-2.3-8.5c-1.7-3.4-6-4.5-9.1-6c1.4-3.4,3.4-6.8,2.8-10.8
			c6.5,3.7,12.8,7.7,19.6,10.8c6.2,2.8,12.8,6.2,19.8,5.7c1.4,1.1,2.8,2.6,4.8,2c5.4-0.3,9.9-4.3,13.3-8.2c4.8-2,8.8-6.2,9.9-11.3
			c1.1-5.7,2.6-11.6,4-17.3c2.6-0.6,5.4-1.4,7.9-2c-2.3-8.2-5.4-16.4-4-25.2c1.7-0.6,3.4-1.7,4.5-3.4c1.7-3.1,6.5-4.2,5.7-8.5
			c2.3-0.3,4-1.1,5.7-2.5h40.5v-5.4c4.8,0.9,9.9,1.1,14.7-0.3h24.7c1.4,0.9,2.5,1.4,4,2.3c0.6-0.3,1.4-1.1,1.7-1.4h13.6
			c0.3-2,0.3-4.3-0.3-6.5h-13.3c-0.3-0.3-1.1-0.8-1.7-1.1c-1.4,0.6-2.8,1.1-3.7,2.3c-9.4,0-18.4,0.3-27.5,0c-0.6-1.7,0-3.1,1.1-4.3
			c-0.3-1.1-0.6-2-0.9-2.8c-1.7-0.6-3.1,0.3-4.3,1.4c0-0.6-0.3-1.7-0.3-2.3c-0.6,0-1.1-0.3-1.4-0.6c-0.3-5.1,0-9.9,0-15h-3.7v18.4
			h-3.1v-4.8c-32.9,0-66-0.3-98.9,0c-0.3-1.1-0.3-2.3-0.3-3.4c-1.7-0.3-4,0.3-5.4-0.9c-0.9-2.8-0.6-5.7-0.9-8.5
			c-0.6,0.3-1.7,0.6-2.3,0.6c0,4-1.4,7.7-1.7,11.6c-2.6,0.3-5.7-0.9-7.7,1.1c-5.4,1.1-10.8,2.3-16.2,2.5c0.9-0.6,1.4-1.1,2.3-1.7
			c-0.6-4-2-7.7-1.4-11.6c3.7-1.4,8.2-2.3,10.8-5.4c3.1-9.4,1.1-19-2.5-27.8c0-1.4,1.1-3.4-0.3-4.5c-2.8-2.3-6.5-3.1-9.6-5.1
			c-4-2.6-7.7-5.1-11.9-6.5c-2.8-0.9-5.6-1.3-8.5-1.4C1157.4,0,1157.1,0,1156.8,0L1156.8,0z M1231.1,88.1c1.7-0.2,3.2,0,4.2,1.2
			c0,2.3,1.1,6.2-2,7.1c-4,0.3-7.9,0-11.9,0c1.4-0.9,3.1-0.9,4.5-1.4c1.1-1.7,0.6-3.7,0.3-5.7C1227.7,88.9,1229.5,88.3,1231.1,88.1z
			 M1218.6,97.8c5.1,0.6,10.2,0,15.3,0.3c-4.3,4.3-7.1,9.4-10.8,14.2c-2.6-3.1-4-7.9-6.8-11.1C1217.2,100.1,1217.8,98.9,1218.6,97.8
			z"/>
		<path id="path824" class="st0" d="M1169.9,112C1170.4,112.3,1170.4,112.3,1169.9,112z"/>
		<path id="path1067" class="st0" d="M870.2,250.6h85.3c9.9,0.3,21,1.4,28.6,8.5c7.4,7.4,8.2,18.7,8.2,28.6
			c-0.3,8.5,0,17.3-3.4,24.9c-4.5,7.7-12.5,13-21.3,15.3c12.5,14.2,24.7,28.6,37.1,42.8h-30.3c-3.1,0-6.2,0-8.8-1.4
			c-3.1-1.7-5.1-4.8-7.4-7.4c-15.3-18.7-30.3-37.7-45.6-56.4h38.6c3.7-0.3,7.7-0.3,10.5-3.1c2.3-3.7,1.7-8.2,2-12.5
			c-0.3-3.7,0.3-7.9-2.3-11.1c-2.8-2.3-6.8-2.6-10.2-2.6h-52.4v91.3c-9.6,0.3-19,0-28.6,0C870,328.3,870.2,289.4,870.2,250.6z"/>
		<path id="path1065" class="st0" d="M739.3,250.6h113.4c-0.3,8.2-4.3,16.7-11.1,21.3c-4.3,2.8-9.6,4.3-14.7,4.3h-59v20.1h71.7
			c0,9.9-6,19.8-15.3,23.8c-3.4,1.4-7.4,2-11.1,2h-45.1v20.1h85.3c0,12.8-10.2,24.9-23.2,25.2h-90.7
			C739.6,328.3,739.3,289.4,739.3,250.6z"/>
		<path id="path1063" class="st0" d="M597,275.8c0-13,10.8-25.8,24.4-25.2h108c0,6.5-2.8,13-7.1,17.9c-4.8,5.1-11.9,7.4-18.7,7.4
			h-26.6v91.3h-28.6v-91.3H597z"/>
		<path id="path1061" class="st0" d="M448.2,250.3c15.3-1.1,31.5,3.1,43.4,13.3c22.7,21.5,45.6,42.8,68.3,64.1v-48.8
			c-0.3-10.2,5.4-20.1,14.5-25.2c4.3-2.6,9.1-3.4,13.9-3.7c0.3,38.8,0,78,0,116.8h-27.5l-84.2-79.9v79.9h-28.3L448.2,250.3z"/>
		<path id="path1059" class="st0" d="M294,335.9v-85.6c8.5,0.3,17.3,4,22.4,11.1c3.7,4.8,5.7,10.8,6,16.7v64.1
			c24.4-0.3,48.8,0,73.4,0v-91.6h28.3v89.9c-0.3,14.2-12.5,26.4-26.6,26.9c-25.2,0.3-50.5,0-75.7,0c-11.1,0-21.8-7.1-26.1-17.6
			C294.2,345.3,294,340.7,294,335.9z"/>
		<path id="path1053" class="st0" d="M0,276.9c0.3-14.2,13-26.4,26.9-26.6h72.9c13.9,0,26.4,12.2,27.2,26.1H31.2v64.1H127
			c-0.6,9.1-5.7,17.9-13.6,22.4c-4.8,2.8-10.2,4-15.6,4H26.6c-13.9-0.3-26.4-12.8-26.4-26.6C0,319.2,0,298.2,0,276.9z"/>
		<path id="path1041" class="st0" d="M1222.3,88.7C1222.9,89.3,1222.9,89.3,1222.3,88.7"/>
		<path id="path828" class="st0" d="M1263.1,267.3c4.3-9.9,14.5-16.7,25.2-16.7h69.4c5.7-0.3,11.6,0.6,16.7,3.4
			c7.9,4.3,13,12.8,14.5,21.5c-33.2,0.3-66.6,0-99.8,0v20.1h67.7c5.1,0,10.5-0.3,15.6,1.4c11.3,3.7,19.3,15.3,18.7,27.2
			c-0.3,8.5,1.1,17.6-2.3,25.8c-4.3,9.9-14.7,17-25.5,16.7h-76c-13.6-0.3-25.8-11.9-26.6-25.2h101.8v-20.7h-74.3
			c-15,0.3-28.6-13.3-27.8-28.3C1261.1,284.3,1259.4,275.2,1263.1,267.3L1263.1,267.3z M1412.2,252.3c4.8-2.3,10.2-1.7,15-1.7h95
			c0,9.9-6,20.1-15.9,23.5c-6.2,2.3-12.8,1.7-19.3,1.7h-14.2v91.3h-28.3v-91.3c-15.9,0.3-32,0-47.9,0
			C1397.2,265.9,1402.9,256,1412.2,252.3L1412.2,252.3z M1533.5,250.6h84.8c9.6,0.3,20.4,1.1,28.3,7.7c7.9,7.1,9.1,18.4,9.1,28.3
			c-0.3,8.5,0,17.6-3.1,25.8c-4.5,7.9-12.5,13.3-21.3,15.6c8.2,9.1,16.4,18.4,24.7,27.5c3.4,4,7.1,7.4,10.2,11.9h-31.7
			c-4.3,0-8.8-1.7-11.3-5.1c-15.6-19-31.2-37.7-46.8-56.7h39.1c4-0.3,9.4-0.6,10.5-5.1c1.4-6.2,1.4-12.8,0.3-19
			c-0.9-4.5-6.2-5.1-9.9-5.4h-54.1v91.3h-28.6V250.6z M1687.5,250.6h28.3c0.3,38.8,0,78,0,116.8h-28.3V250.6z M1747.8,250.6h28.3
			v44.5c1.7-0.3,3.7,0.3,5.1-1.1c18.4-14.5,36.6-28.9,55-43.4h41.4c-21.5,19-43.4,37.7-65.2,56.7c25.5,20.1,51.3,40,76.5,60.1h-41.4
			c-3.7,0-7.1-1.1-9.9-3.4c-19.3-14.5-38.6-29.2-57.5-43.7h-4.3v47.1c-9.4-0.3-19,0-28.3,0C1747.8,328.3,1747.8,289.4,1747.8,250.6z
			 M1891.8,250.6h113.4c-0.3,7.1-3.1,13.9-8.2,18.7c-5.1,4.5-11.9,6.8-18.7,6.5h-58.1v20.1h71.7c-0.3,10.2-6.2,20.4-16.2,23.8
			c-6,2.6-12.5,1.7-18.7,1.7h-36.9c-0.3,6.8-0.3,13.6,0,20.1h85c0.3,10.5-6.8,21-17,24.1c-5.4,1.7-11.1,1.1-16.4,1.1h-80.5
			C1892.1,328.3,1891.8,289.4,1891.8,250.6z M1282.4,411.3c2.8-3.4,7.9-3.4,12.2-3.7c5.4,0,11.1-0.3,16.2,1.7c4,2,4,7.1,4.3,11.1
			h-7.9c-0.6-2.3-0.6-5.4-3.4-5.7c-4.3-0.6-8.8-0.9-13,0.3c-3.4,1.1-3.1,5.4-3.4,8.5c0.3,5.1-0.6,10.5,0.9,15.6
			c0.9,2.8,4.3,3.1,6.8,3.4c3.4,0,7.4,0.6,10.5-1.1c2.3-2,1.7-5.7,2-8.5h-10.5v-6h18.1c-0.3,6.5,1.4,13.9-2.8,19.3
			c-4.8,3.4-11.1,2.8-16.4,3.1c-5.1-0.3-11.6-0.3-14.5-5.1c-2.8-5.7-2.3-12.5-2-18.7C1279.6,420.7,1279,415.3,1282.4,411.3
			L1282.4,411.3z M1332.8,407.9h7.9v34c6.5,0.3,13,0,19.3,0v7.1h-27.2L1332.8,407.9z M1382.7,408.5c7.4-1.4,15-1.7,22.1,0.6
			c5.4,2,5.7,8.5,6.2,13.6c0,7.4,0.9,15.3-2.3,22.1c-3.1,4.3-9.1,4.3-13.9,4.5c-5.7,0-12.5,0.6-17-3.4c-3.1-4-3.1-9.4-3.4-13.9
			c0-6.2-0.3-12.5,2-18.4C1377.1,410.7,1379.9,409,1382.7,408.5 M1387,414.7c-1.4,0.3-3.4,0.9-3.7,2.6c-1.1,6-0.9,11.9-0.9,17.9
			c0.3,2.6,0.3,6.5,3.7,6.8c4.8,0.6,10.8,1.7,15.3-1.1c2.3-5.7,1.4-12.2,1.4-18.4c-0.3-2.6,0.3-6.5-2.8-7.4
			C1395.8,413.9,1391.2,414.1,1387,414.7L1387,414.7z M1428.7,407.9h23c3.4,0.3,7.7,1.1,8.8,4.8c1.7,5.1,1.4,13-4.8,15
			c7.7,1.7,7.9,11.6,5.1,17.3c-2,3.4-6.5,4-10.2,4h-21.8V407.9 M1436.6,414.4v10.5c4.3,0,8.5,0.3,12.8-0.3c5.4,0,5.1-9.9,0-10.2
			C1445.1,414.1,1440.9,414.4,1436.6,414.4 M1436.6,442.5c4.8,0,9.4,0.3,14.2-0.3c4.5-0.6,4-6.8,2.6-9.9c-5.1-2.6-11.1-0.6-16.7-1.4
			V442.5z M1490.2,407.9c4-0.3,7.9,0,11.9,0c4.5,13.6,9.4,27.5,13.9,41.1h-8.2c-0.9-2.6-1.7-5.4-2.6-7.9h-17.6
			c-0.9,2.6-1.7,5.4-2.6,7.9h-8.5C1481.1,435.4,1485.9,421.8,1490.2,407.9 M1489.3,435.4h13.9c-2.3-6.8-4.5-13.9-6.8-20.7
			C1493.6,421.2,1491.9,428.3,1489.3,435.4z M1531.8,407.9h7.9v34h19.3v7.1h-27.2V407.9z M1610.4,408.2c7.1-1.1,14.7-1.7,21.5,0.9
			c4.8,1.7,5.7,7.7,6,12.2c0.3,7.4,0.9,15-1.7,22.1c-1.4,4.3-6.8,5.1-10.8,5.7c-6.2,0.3-12.8,0.9-18.7-1.7c-4.3-2-5.1-7.4-5.4-11.3
			c-0.6-7.4-0.6-15,1.4-22.4C1603.8,410.5,1607.2,408.8,1610.4,408.2 M1613.5,414.7c-2.3,0.3-3.7,2.3-3.7,4.5
			c-0.6,6.5-0.9,13.6,0.3,20.1c0.9,3.4,5.4,3.1,8.2,3.4c3.4-0.3,7.9,0.6,10.5-2.3c2-5.7,1.1-11.9,1.1-17.9c-0.3-2.6,0-6.8-3.1-7.4
			C1622.3,413.9,1617.7,414.1,1613.5,414.7L1613.5,414.7z M1655.4,407.9h27.2v6.5h-19.6v11.1h18.4v6.8h-18.4V449h-7.9
			C1655.4,435.4,1655.7,421.5,1655.4,407.9L1655.4,407.9z M1699.9,407.9h27.5v6.5h-19.6v11.1h18.4v6.8h-18.4v17h-7.9V407.9z
			 M1743.6,407.9h28.1v6.8h-20.4v10.5h19.3v6h-19.3v11.3c6.8,0.3,13.6,0,20.7,0v6.5h-28.3V407.9z M1790.1,407.9h13.3
			c6,11.1,11.3,22.4,17,33.7v-33.7h7.9V449H1815c-6-11.3-12.2-22.7-17.3-34.6c0.3,11.6,0,23,0.3,34.6h-7.9V407.9z M1847.6,412.4
			c2-4,7.1-4.5,10.8-4.8c5.4,0,11.1-0.6,16.2,1.7c3.7,2,3.7,6.8,4,10.5c-2.6,0.3-5.1,0.3-7.9,0c-0.6-2-0.3-5.4-3.1-5.7
			c-3.7-0.6-7.7-0.6-11.1,0.3c-2.8,1.1-2.6,4.8-2.3,7.1c0.3,3.1,4,2.6,6,3.1c5.4,0.6,11.6,0,16.4,3.1c3.4,4.3,2.6,10.2,1.7,15.3
			c-0.9,4.3-5.1,5.7-8.8,6c-6.2,0.6-13,0.9-19-1.1c-4.5-2-4.5-7.7-4.8-11.9h7.7c0.3,2.3-0.3,5.7,2.6,6.5c4.5,0.9,9.1,1.1,13.6-0.3
			c2.6-2,2.3-6.2,1.1-9.1c-3.7-2.3-8.5-1.1-12.8-2c-4-0.6-9.4-0.6-11.1-5.1C1845.9,421.8,1845.9,416.7,1847.6,412.4L1847.6,412.4z
			 M1897.2,407.9h7.9V449h-7.9V407.9z M1920.8,407.9h8.2c3.7,11.6,7.9,23,11.1,34.6c3.1-11.6,7.4-23.2,11.1-34.6h8.5
			c-4.5,13.6-8.8,27.5-13.3,41.1h-12.2C1929.5,435.4,1925.3,421.5,1920.8,407.9L1920.8,407.9z M1974.3,407.9h28.3v6.5h-20.4v10.5
			h19.3v6h-19.3v11.3c6.8,0.3,13.6,0,20.7,0v6.5h-28.3C1974.3,435.4,1974.3,421.5,1974.3,407.9L1974.3,407.9z"/>
	</g>
</g>
</svg>
