<?xml version="1.0" encoding="utf-8"?>
<!-- Generator: Adobe Illustrator 28.2.0, SVG Export Plug-In . SVG Version: 6.00 Build 0)  -->
<svg version="1.1"
	 id="svg259" xmlns:svg="http://www.w3.org/2000/svg" xmlns:cc="http://creativecommons.org/ns#" xmlns:rdf="http://www.w3.org/1999/02/22-rdf-syntax-ns#" xmlns:dc="http://purl.org/dc/elements/1.1/"
	 xmlns="http://www.w3.org/2000/svg" xmlns:xlink="http://www.w3.org/1999/xlink" x="0px" y="0px" viewBox="0 0 1481.5 207.3"
	 style="enable-background:new 0 0 1481.5 207.3;" xml:space="preserve">
<style type="text/css">
	.st0{fill:#FFFFFF;}
</style>
<g id="layer1" transform="translate(273.51684,-63.614157)">
	<path id="path45" class="st0" d="M-246.2,211.3c-2.4-0.1-5.4-0.6-7.6-1.1c-3-0.7-7.2-2.5-9.9-4.1c-1.3-0.8-2.4-1.7-3.7-3
		c-3.1-3.1-4.8-6.2-5.4-9.8l-0.2-1.2v-31.7c0-30.3,0-31.8,0.2-32.7c0.7-4.4,3.7-8.7,8-11.8c3-2.1,6.2-3.7,9.9-4.8
		c3-0.9,5.6-1.4,9-1.6c2.5-0.2,78.4-0.1,80,0.1c3.4,0.3,5.4,0.7,7.6,1.2c3.8,0.9,7.1,2.4,9.8,4.3c4.7,3.2,7.3,7.7,7.9,13.5
		c0.2,1.5,0.1,4.2-0.2,5.4c-0.3,1.3-0.8,2.7-1.4,3.7c-0.6,1-2,2.4-3.7,3.8c-1.5,1.2-2.2,1.8-4.4,3.1c-6.8,4.1-12.6,5.6-21.5,5.6
		l-1.9,0v-9.7v-9.7h-33.2h-33.2v29.8v29.8h33.3h33.3v-10.3v-10.3h16.4h16.4v10.6c0,11.1,0,11.9-0.4,13.9c-1.3,6.5-6,11.6-13.4,14.7
		c-3.6,1.5-7.7,2.3-12.9,2.6C-169,211.3-244.7,211.3-246.2,211.3L-246.2,211.3z"/>
	<path id="path47" class="st0" d="M-112,200.6c-0.8,0-2.6-0.2-3.5-0.4c-2.8-0.4-4.8-1.1-7.3-2.4c-2-1-3.2-1.9-4.7-3.4
		c-2.3-2.3-3.4-4.3-3.9-7l-0.1-0.8l0-23.2c0-16.3,0-23.4,0-23.9c0.2-2.5,1.1-4.5,2.9-6.9c0.5-0.7,1.9-2.1,2.7-2.7
		c2.2-1.7,4.5-2.8,7.9-3.7c2.2-0.6,4-0.9,6.2-1.1c1.6-0.1,58.8-0.1,59.8,0.1c4.6,0.5,7.6,1.3,10.5,2.8c1.7,0.9,3.1,1.9,4.2,3
		c2,2,3.1,4.2,3.6,7.3c0.1,0.7,0.1,1.8,0.1,24.7c0,22.7,0,24-0.1,24.6c-0.5,2.8-1.5,4.7-3.4,6.8c-1.9,2.1-3.9,3.3-7,4.4
		c-2.5,0.9-5.1,1.4-8.8,1.6C-54.1,200.7-110.9,200.7-112,200.6L-112,200.6z M-57.9,163.1V141h-24.6h-24.6v22.1v22.1h24.6h24.6V163.1
		z"/>
	<path id="path49" class="st0" d="M-3,200.7c-3.2-0.1-6.5-0.6-8.5-1.3c-2.8-1-5.3-2.2-6.8-3.5c-2.6-2.2-4.5-5-5.2-7.7l-0.3-1.1l0-31
		l0-31l3,0.1c4.8,0.1,7.7,0.4,10.9,1.3c2,0.6,4.5,1.6,5.9,2.5c2,1.3,3.4,3.1,4.1,5.3c0.6,1.8,0.5,0.4,0.5,26.8v24h21.8h21.8v-30v-30
		h12.2h12.2v30.5c0,33,0,31.1-0.5,32.8c-0.7,2.4-3.1,5.7-5.7,7.7c-2.5,1.9-6.3,3.5-10,4.1c-2.9,0.5-1.5,0.5-29,0.5
		C9.3,200.7-2.6,200.7-3,200.7L-3,200.7z"/>
	<path id="path51" class="st0" d="M78.5,162.7l0-37.6l2.7,0c2.9,0,6.6,0.1,8.3,0.3c2.8,0.3,6.9,1.5,10.1,2.9
		c2.8,1.2,4.3,2.1,5.8,3.4c0.7,0.6,27,26.5,27.9,27.4c0.3,0.3,1,0.9,1.5,1.4c0.6,0.5,1.6,1.4,2.2,2.1c1.3,1.3,2.8,2.7,4.2,3.9
		l0.9,0.8l0-14.4c0-14.3,0-14.4,0.2-15.4c0.9-4.9,3.3-7.8,8.3-10c3.7-1.6,7.6-2.3,13.2-2.5l2.6-0.1v37.6v37.6l-19.4,0
		c-25.9-24.8-25.9-24.8-44-42.4l0,21.2l0,21.2H90.8H78.5L78.5,162.7z"/>
	<path id="path53" class="st0" d="M211.4,170.9v-29.8h-18.7h-18.7l0-2.3c0.1-3.2,0.4-4.9,1.2-6.7c0.8-1.7,1.7-2.8,3-3.7
		c2.5-1.7,5.7-2.7,10-3.1c0.8-0.1,14.7-0.1,42.9-0.1h41.7v2.3c0,2.5-0.1,3.5-0.4,4.7c-0.4,1.6-1,2.8-1.9,3.8
		c-2.4,2.8-5.2,4.1-9.9,4.7c-2.3,0.3-3.9,0.3-14.2,0.4l-10.4,0l0,23.4c0,25.3-0.1,36-0.1,36s-15.3,0.1-24.6,0.1L211.4,170.9z"/>
	<path id="path55" class="st0" d="M297.9,200.7c-2.1-0.1-4.2-0.3-6.2-0.7c-2.2-0.5-5.3-1.7-7.6-3.1c-2.4-1.4-5.1-4.5-6.1-7
		c-0.4-0.9-0.5-1.5-0.8-2.6c-0.2-0.8-0.2-2-0.2-24.2c0-18.1,0-23.5,0.1-24c0.3-1.8,0.9-3.3,2-4.9c1.7-2.7,3.5-4.2,6.7-5.8
		c3.2-1.6,5.7-2.4,9.6-2.9c0.9-0.1,3.9-0.2,29.6-0.2c19.5,0,29.1,0,30.3,0.1c3.8,0.2,6.9,0.8,9.6,1.9c2.7,1.1,5.6,3,7.1,4.7
		c2,2.4,2.9,4.8,3.1,8.3l0.1,0.9h-36.8h-36.8v7v7h23.2h41.7v7.9v7.9h-41.7h-23.2v7.1v7.1h36.8h36.8l-0.1,0.9
		c-0.1,1.4-0.3,2.6-0.7,3.8c-1.2,3.6-3.8,6.5-7.6,8.3c-3.5,1.6-6.7,2.3-11.9,2.5C353,200.7,300.2,200.8,297.9,200.7L297.9,200.7z"/>
	<path id="path57" class="st0" d="M440.9,185.2c-6.5-8.6-14.3-18.9-17.3-22.9c-3-4-5.5-7.2-5.5-7.2c0,0,8.5,0,18.9,0h18.9v-7v-7
		h-24.6h-24.6l0,22.1l0,22.1l-0.1,1c-0.4,3-1.1,5.2-2.3,7c-2.3,3.7-6.2,5.7-12.4,6.5c-2.4,0.3-3.4,0.3-6.5,0.4l-3.1,0v-37.6v-37.6
		l39.1,0c28.4,0,39.3,0,39.9,0.1c2.5,0.3,3.9,0.5,5.6,0.9c2.8,0.7,4.9,1.7,7,3.1c1.1,0.8,1.6,1.1,2.3,1.9c2.3,2.3,3.5,5,3.7,8.5
		c0.1,1.1,0.1,15.7,0,16.9c-0.3,3.6-1.5,6.4-3.9,8.8c-0.9,0.9-1.4,1.3-2.3,1.9c-3.3,2.2-8,3.5-13.6,3.8c-0.5,0-1,0.1-1,0.1
		c0,0,5.2,6.7,11.5,14.8c6.3,8.1,11.6,14.8,11.6,14.8c0,0.1-1.6,0.1-14.7,0.1l-14.7,0L440.9,185.2z"/>
	<path id="path61" class="st0" d="M573.7,235c-0.7-0.1-1.7-0.3-2.3-0.6c-1.3-0.6-3.4-2.1-5.3-4c-1.5-1.5-1.6-1.5-1.6-2.4v-0.9
		l-1.3-0.3l-1.3-0.3l0.1-0.6c0.7-4.5,0.5-8.7-0.6-12.6c-0.5-1.7-1-2.5-2.1-3c-0.5-0.3-1-0.6-1.1-0.7c-0.3-0.2-1.3-3.3-2.1-6.1
		c-0.5-1.8-1.7-8-2.5-12.6l-0.6-3.6L542.2,175l-10.8-12.2l-1.6,3.9c-5.7,13.7-8.4,20.4-10.4,26.2c-2.7,8-3.9,10.5-6.4,13.7
		c-1.2,1.5-3.6,3.2-7.1,5c-3.6,1.9-6.4,2.6-7.4,2c-0.2-0.1-0.4-0.2-0.5-0.1c-0.1,0.1,0.2,1.2,0.6,2.5c0.7,2.6,1,4.1,1.1,5
		c0,0.6,0.1,0.7,1.5,1.1c0.8,0.3,1.6,0.7,1.8,0.9c0.7,0.9,0.2,2.1-1.3,2.6c-1,0.3-5.5,0.4-7.2,0.2c-2-0.3-3.5-1-4.7-2.3
		c-1.1-1.2-2.2-3.5-2.6-5.3c-0.6-3.2-0.8-3.4-1.9-2.1c-0.3,0.4-0.6,0.6-0.6,0.6c-0.3-0.3-0.6-2.3-0.6-3.4c0-1.2,0.1-1.5,0.7-2.8
		c1.2-2.3,2-3.4,4.6-6.3l2.5-2.7l-0.1-1.6l-0.1-1.6l2.6-2.5c1.4-1.4,3.4-3.2,4.4-4c1-0.9,1.8-1.6,1.8-1.6c0-0.4,2.8-12.7,3.5-15.3
		c1-4,4.9-18,6.5-23.3l1-3.5l-0.3-1.3c-0.4-2-0.7-6.5-0.6-9.2c0.1-3,0.7-6.6,1.5-10.1c0.7-3.1,0.8-3.8,1.6-11.4
		c0.5-5.2,0.7-7.2,1.1-14.7c0.2-4.1,0.9-6.1,3.1-9c1.2-1.6,3.7-4.5,4.6-5.5l0.9-0.9l1.4,0.1c1.1,0.1,1.6,0.1,2-0.1
		c0.3-0.1,1.3-0.5,2.3-0.8c1-0.3,1.8-0.6,1.8-0.6c0-0.1-0.2-0.3-0.5-0.4l-0.5-0.3l-0.1-2.9c-0.1-1.6-0.1-4.1-0.1-5.5
		c0-2.3,0.1-2.8,0.4-3.8c1.2-3.4,3.4-5.4,7.1-6.7c1.1-0.4,2-0.5,4.5-0.7c4.9-0.3,7,0,9.2,1.5c3.4,2.3,5.7,5.7,6.6,9.7
		c0.2,0.9,0.4,1.3,1.2,2.2c0.5,0.6,0.9,1.2,0.8,1.2c-0.1,0.1-1.1,0.5-2.2,1c-2,0.8-2.1,0.9-2.5,1.7c-0.4,0.8-0.4,0.9-0.1,2.2
		c0.3,1.1,0.3,1.5,0.1,2.6c-0.1,0.7-0.3,1.4-0.3,1.5c-0.1,0.2,0.4,0.2,1.8,0.2h1.9l0.8-1.4c0.5-0.7,1.2-1.7,1.6-2.2l0.8-0.9h3.6h3.6
		v-0.6v-0.6h2h2v1.4v1.4h3.8h3.8v0.6v0.6h4h4v-0.6c0-0.5,0-0.6,0.7-0.6h0.7v-1.2V83h0.6c0.5,0,0.6,0.1,0.6,0.4
		c0,0.3,0.1,0.4,0.7,0.4h0.7v2.1V88h3.2h3.2v-1.3v-1.3h1h1v1.5v1.5h3.4h3.4v-1.6v-1.6h1.6h1.6v3.4V92h2.6h2.6v2.1v2.1h-10.1h-10.1
		l-0.2,1.1c-0.1,0.6-0.4,1.4-0.7,1.8c-0.7,1-3.2,2.2-5,2.4c-0.4,0-0.5,0.1-0.5,1.3c-0.1,1.4,0.4,3.8,1.3,6.1c0.9,2.3,3,6.9,4,8.7
		c0.5,0.9,0.8,1.6,0.8,1.6c0,0-1,0.5-2.2,1.1c-2.4,1.2-2,1.4-3.9-2c-1.8-3.2-2.8-5.6-3.8-9.7c-0.5-2-1-3.6-1-3.7
		c-0.1-0.2-0.7,0.5-1.6,2.2l-1,1.8l-1.8,0.4c-1.3,0.3-2.3,0.4-3.8,0.4c-2.3,0-1.9-0.2-4.9,2.6c-1.1,1-2.1,1.9-2.3,1.9
		c-0.2,0.1-0.9,0.5-1.5,1c-1.3,1-3.8,2.6-5.3,3.4l-1.1,0.6l-4.6-0.3c-2.5-0.2-5-0.4-5.4-0.4l-0.8-0.1l-0.1,1.1
		c-0.2,1.6-0.6,2.6-1.3,2.9c-0.8,0.3-1,1.2-1.3,4.6c-0.3,2.9-0.4,3.3-1.3,3.5c-0.2,0.1-0.5,0.4-0.7,0.7c-0.6,1.1-0.8,2.5-1,6.6
		l-0.1,4.1l0.8-0.1c0.6-0.1,1,0,1.6,0.2c1.9,0.8,5.5,4.5,7.9,7.8c0.6,0.9,1.5,2,2,2.6c1.9,2.2,3.6,5.4,4.6,8.6
		c0.4,1.1,0.7,2.2,0.7,2.3c0,0.1-0.4,0.9-0.9,1.7s-0.9,1.6-0.9,1.7c0,0.1,2.4,3.1,5.3,6.8l5.3,6.6l1.2,4.8
		c2.1,8.4,3.1,14.3,3.5,19.4c0.1,2.1,0,2.4-1.9,4.4c-0.9,0.9-1.5,1.7-1.6,2.2c-0.3,0.9-0.1,2.1,0.5,3.9c0.2,0.7,0.4,1.5,0.4,1.8
		c0,0.7,2.1,2.5,4.5,3.9c1.7,1,2.4,1.5,3.2,2.5c2.7,3,4,6,4,8.7c0,0.8-0.1,1.2-0.5,1.9c-0.9,1.4-1.4,1.5-5.5,1.6
		C576.6,235.2,574.4,235.1,573.7,235L573.7,235z M554.2,104.2c1.1-0.1,2.2-0.3,2.5-0.4c0.3-0.1,0.9-0.7,1.4-1.2c0.8-0.9,1-1,2.2-1.4
		c1.6-0.5,5.7-2.3,6.8-3c0.4-0.3,1.1-0.8,1.5-1.2l0.7-0.7l-4.9-0.1c-6.8-0.2-6.8-0.2-9.4,1.1c-2.7,1.3-3.6,2-3.9,2.7
		c-0.1,0.3-0.4,1.5-0.7,2.6l-0.4,2.1l1.1-0.1C551.8,104.5,553.2,104.3,554.2,104.2L554.2,104.2z"/>
	<path id="path63" class="st0" d="M625.7,211.3c-2.3-0.1-6-0.6-8.1-1c-3.8-0.8-8.7-2.8-11.5-4.7c-2.6-1.8-5.1-4.3-6.5-6.4
		c-0.5-0.8-1.2-2.3-1.5-3.2c-0.5-1.5-0.9-3.6-0.9-5.1v-0.7h50.1h50.1v-9.5v-9.5l-35.3,0c-35.3,0-37.7,0-40.6-0.3
		c-3.4-0.4-5.7-0.8-8.1-1.7c-3.4-1.2-6.2-2.6-8.4-4.3c-2.7-2.1-4.8-4.6-5.9-6.9c-0.7-1.4-1.1-2.6-1.4-4.1c-0.4-2-0.4-2.7-0.4-13.7
		c0-11.3,0-10.8,0.6-13.3c0.8-3.7,2.6-6.8,5.4-9.6c3.1-3,6.9-5.2,11.8-6.4c2.7-0.7,4.6-1.1,7.5-1.4c1.3-0.2,4.1-0.2,39.6-0.2
		c27,0,38.8,0,40.3,0.1c8.1,0.4,14.2,2,19.5,5.1c3.5,2.1,5.9,4.9,7.2,8.4c0.7,2,1.1,4.1,1.2,6.3l0.1,1.4h-49.7H631v9.4v9.4l33.9,0
		c20.4,0,34.8,0,36.1,0.1c3.5,0.1,6,0.5,9.8,1.2c5.5,1.1,9.4,2.8,12.7,5.4c1.8,1.5,3.9,4,5,6c0.9,1.6,1.5,3.5,1.7,5.4
		c0.1,0.5,0.1,5,0.1,12.4c0,13.2,0,13.1-0.7,15.7c-1.3,4.9-4.5,8.7-9.5,11.2c-4.9,2.5-10.5,3.8-17.8,4.2
		C700.9,211.3,627.4,211.3,625.7,211.3L625.7,211.3z"/>
	<path id="path69" class="st0" d="M956.8,200.5c3.3-0.3,5.7-1,8.7-2.4c2.4-1.1,3.9-2.2,5.5-4c2.1-2.2,3.2-4.4,3.6-6.9
		c0.1-0.7,0.1-4.4,0.1-31.4v-30.6h-12.1h-12.1v37.8v37.8l2.5,0C954.5,200.6,956.2,200.6,956.8,200.5L956.8,200.5z"/>
	<path id="path71" class="st0" d="M987.3,162.9v-37.8h12.2h12.2l0,16.6l0,16.6l15.7-16.6l15.7-16.6h13.5h13.5l-0.3,0.3
		c-0.2,0.2-7.6,8.1-16.5,17.7c-8.9,9.5-16.2,17.3-16.2,17.4c0,0,9.8,9,21.8,19.9c12,10.9,21.9,20,22,20.1c0.2,0.2,0,0.2-11,0.1
		c-12,0-11.7,0-14.1-0.5c-1.2-0.2-3.4-0.9-4.9-1.5c-2.1-0.8-3.4-1.6-5.5-3.2c-0.8-0.6-1.8-1.4-2.2-1.7c-0.5-0.3-7.7-6.7-16.2-14.1
		l-15.3-13.5l0,11.2c0,11-0.1,11.2-0.2,11.9c-0.4,1.6-0.8,2.6-1.7,4c-2,3.1-5,5-10.1,6.3c-3.1,0.8-5.5,1.1-9.4,1.2l-3,0L987.3,162.9
		z"/>
	<path id="path53-1" class="st0" d="M773,170.9v-29.8h-18.7h-18.7l0-2.3c0.1-3.2,0.4-4.9,1.2-6.7c0.8-1.7,1.7-2.8,3-3.7
		c2.5-1.7,5.7-2.7,10-3.1c0.8-0.1,14.7-0.1,42.9-0.1h41.7v2.3c0,2.5-0.1,3.5-0.4,4.7c-0.4,1.6-1,2.8-1.9,3.8
		c-2.4,2.8-5.2,4.1-9.9,4.7c-2.3,0.3-3.9,0.3-14.2,0.4l-10.4,0l0,23.4c0,25.3-0.1,36-0.1,36s-15.3,0.1-24.6,0.1L773,170.9z"/>
	<path id="path57-7" class="st0" d="M901.2,185.2c-6.5-8.6-14.3-18.9-17.3-22.9c-3-4-5.5-7.2-5.5-7.2c0,0,8.5,0,18.9,0h18.9v-7v-7
		h-24.6H867l0,22.1l0,22.1l-0.1,1c-0.4,3-1.1,5.2-2.3,7c-2.3,3.7-6.2,5.7-12.4,6.5c-2.4,0.3-3.4,0.3-6.5,0.4l-3.1,0v-37.6v-37.6
		l39.1,0c28.4,0,39.3,0,39.9,0.1c2.5,0.3,3.9,0.5,5.6,0.9c2.8,0.7,4.9,1.7,7,3.1c1.1,0.8,1.6,1.1,2.3,1.9c2.3,2.3,3.5,5,3.7,8.5
		c0.1,1.1,0.1,15.7,0,16.9c-0.3,3.6-1.5,6.4-3.9,8.8c-0.9,0.9-1.4,1.3-2.3,1.9c-3.3,2.2-8,3.5-13.6,3.8c-0.5,0-1,0.1-1,0.1
		c0,0,5.2,6.7,11.5,14.8c6.3,8.1,11.6,14.8,11.6,14.8c0,0.1-1.6,0.1-14.7,0.1l-14.7,0L901.2,185.2z"/>
	<path id="path55-0" class="st0" d="M1100.5,200.7c-2.1-0.1-4.2-0.3-6.2-0.7c-2.2-0.5-5.3-1.7-7.6-3.1c-2.4-1.4-5.1-4.5-6.1-7
		c-0.4-0.9-0.5-1.5-0.8-2.6c-0.2-0.8-0.2-2-0.2-24.2c0-18.1,0-23.5,0.1-24c0.3-1.8,0.9-3.3,2-4.9c1.7-2.7,3.5-4.2,6.7-5.8
		c3.2-1.6,5.7-2.4,9.6-2.9c0.9-0.1,3.9-0.2,29.6-0.2c19.5,0,29.1,0,30.3,0.1c3.8,0.2,6.9,0.8,9.6,1.9c2.7,1.1,5.6,3,7.1,4.7
		c2,2.4,2.9,4.8,3.1,8.3l0.1,0.9H1141h-36.8v7v7h23.2h41.7v7.9v7.9h-41.7h-23.2v7.1v7.1h36.8h36.8l-0.1,0.9
		c-0.1,1.4-0.3,2.6-0.7,3.8c-1.2,3.6-3.8,6.5-7.6,8.3c-3.5,1.6-6.7,2.3-11.9,2.5C1155.6,200.7,1102.8,200.8,1100.5,200.7
		L1100.5,200.7z"/>
	<path id="path55-1" class="st0" d="M782.4,269.9c-1.7-0.2-2.9-0.4-3.9-0.7c-1.7-0.7-2.7-1.6-3.5-3.1c-0.6-1.2-0.9-2.7-1-5.1
		c-0.1-1.2-0.1-4.7,0-4.7c8.3,0,5.8,0,9.2,0v5.3H799h15.8v-5.1v-5.1l-15.1,0c-10.9,0-15.3,0-15.7-0.1c-2.5-0.3-3.7-0.6-4.9-1.5
		c-1.4-0.9-2.4-2.5-2.8-4.4c-0.3-1.6-0.3-1.8-0.3-7c0-5.3,0-5.6,0.4-7.2c0.5-2.2,1.7-3.8,3.5-4.7c1.2-0.6,3-1,5.4-1.1
		c1.4-0.1,27.7-0.1,29,0c4,0.2,6,1,7.5,2.8c0.8,1,1.3,2.3,1.5,4c0.1,0.7,0.2,2.4,0.2,3.2l0,2.8c-3.4,0-3.1,0-9.2,0
		c0,0-0.1-0.9-0.1-2.5v-2.5h-14.6h-14.6v4.8v4.8l14.8,0c9.7,0,15,0,15.5,0.1c2.3,0.2,4.3,0.7,5.4,1.4c0.6,0.3,1.6,1.3,1.9,1.8
		c0.6,1.1,1.1,2.7,1.3,4.8c0.1,0.9,0.1,8.5,0.1,10c-0.2,3.1-0.8,5.2-1.9,6.6c-0.9,1.2-2.6,2-4.7,2.3c-1.7,0.3-1.7,0.3-18.5,0.3
		C790.1,270,782.7,269.9,782.4,269.9L782.4,269.9z"/>
	<path id="path57-9" class="st0" d="M853.1,269.9c-2.4-0.2-3.5-0.4-4.7-1c-1.3-0.6-2.3-1.5-2.9-2.8c-0.6-1.3-0.9-2.8-1.1-5.3
		c-0.1-1.6-0.1-24.7,0-26.3c0.2-4.1,1-6.1,3-7.6c1.3-0.9,3.4-1.4,6.3-1.6c0.8,0,6.4-0.1,18.9,0c19.1,0,18.2,0,19.9,0.3
		c2.1,0.4,3.3,0.9,4.3,1.8c1.3,1.1,2,2.7,2.4,5.7c0.1,0.6,0.1,2.1,0.1,13.8c0,9,0,13.4,0,14.1c-0.2,3.6-1.1,5.9-2.7,7.1
		c-0.9,0.6-2.2,1.2-3.5,1.5c-1.7,0.3-0.4,0.3-21,0.3C861.9,270,853.3,269.9,853.1,269.9L853.1,269.9z M889.1,247.4v-14.1H872h-17.1
		v14.1v14.1H872h17.1V247.4z"/>
	<path id="path59" class="st0" d="M930.1,269.9c-2.4-0.2-3.5-0.4-4.7-1c-0.8-0.4-1.3-0.7-1.8-1.2c-1.2-1.3-1.8-2.9-2.1-5.7
		c-0.1-0.6-0.1-4.9-0.1-18.7l0-18l5.2,0l5.2,0l0,18.1l0,18.1h14.7h14.7v-18.1v-18.1h5.2h5.2l0,18.1c0,13.7,0,18.3-0.1,18.7
		c-0.5,3.3-1.2,5-2.6,6.1c-0.9,0.7-2.3,1.3-3.6,1.5c-1.8,0.3-0.7,0.3-18.5,0.3C937.8,270,930.2,269.9,930.1,269.9L930.1,269.9z"/>
	<path id="path67" class="st0" d="M994.5,247.6v-22.4l19.9,0c14.8,0,20.1,0,20.5,0.1c2.2,0.3,3.7,0.8,4.9,1.5c0.5,0.3,1.2,1,1.6,1.5
		c0.6,0.9,1.1,2.2,1.3,3.7c0.1,0.7,0.1,1.3,0.1,7.1c0,4.9,0,6.5-0.1,7c-0.5,4.3-2.6,6.2-7.3,6.9c-0.6,0.1-1.4,0.1-4.6,0.1l-3.9,0
		l10.2,8.4c5.6,4.6,10.2,8.4,10.2,8.4c0,0-3,0.1-7.4,0.1l-7.5,0l-9-8.4l-9-8.4l-4.9,0l-4.9,0v8.5v8.5h-5.1h-5.1L994.5,247.6z
		 M1029.5,245.4c1.6-0.2,2.4-0.6,2.8-1.4c0.3-0.7,0.3-0.7,0.4-4.5c0-3,0-3.6-0.1-4c-0.1-0.6-0.3-1-0.6-1.4c-0.4-0.5-1.4-0.8-2.7-1
		c-0.4,0-5-0.1-12.6-0.1l-12,0v6.2v6.2h12C1025.1,245.4,1029.1,245.4,1029.5,245.4L1029.5,245.4z"/>
	<path id="path69-3" class="st0" d="M1071.7,269.9c-2.3-0.2-3.6-0.4-4.8-1.1c-1.4-0.7-2.2-1.5-2.8-2.9c-0.6-1.3-0.9-2.6-1-5.1
		c-0.1-1.5-0.1-25.1,0-26.6c0.2-3.9,1-5.8,2.8-7.3c1.3-1,3.1-1.5,6-1.7c1.1-0.1,29.9-0.1,31,0c2.1,0.2,3.9,0.6,5,1.1
		c0.9,0.5,1.7,1.1,2.2,1.9c0.7,1,1.2,2.6,1.5,4.7c0.1,0.9,0.2,8.7,0.1,8.7c-3.9,0-6.1,0-10.3,0c0,0-0.1-1.5-0.1-4.2v-4.2h-14h-14
		v14.1v14.1h14h14v-4.8v-4.8l0.2,0c9.5,0,10.2,0,10.2,0s0,9.6-0.1,10.1c-0.2,1.4-0.5,2.9-0.8,3.7c-0.8,1.8-2,2.9-4.1,3.6
		c-1.1,0.4-2.3,0.5-4.3,0.6C1101.1,270,1072.7,270,1071.7,269.9L1071.7,269.9z"/>
	<path id="path71-6" class="st0" d="M1133.1,247.6v-22.4h22.9h22.9v3.8v3.8h-17.6h-17.6v4.9v4.9h10.3h10.3v3.8v3.8h-10.3h-10.3v5.5
		v5.5h17.8h17.8v4.2v4.2h-23.1h-23.1V247.6z"/>
	<path id="path1146" class="st0" d="M1187,232.3v-5.8h-2h-2v-0.9v-0.9l4.5,0c2.5,0,4.7,0,5,0l0.5,0v0.9v0.9h-2.1h-2.1v5.8v5.8h-0.9
		h-0.9V232.3z"/>
	<path id="path1210" class="st0" d="M1194,238c0-0.1,0.2-3.1,0.4-6.8c0.2-3.7,0.4-6.7,0.4-6.7c0,0,0.5,0,1,0h1l1.9,5.2
		c1,2.8,1.9,5.2,1.9,5.2c0,0,0.9-2.3,1.9-5.2l1.9-5.2l1,0l1,0l0,0.1c0,0,0.2,3,0.4,6.6c0.2,3.6,0.4,6.7,0.4,6.7l0,0.1h-0.7h-0.7
		l0-0.1c0,0-0.1-2.5-0.2-5.4c-0.1-2.9-0.2-5.3-0.2-5.3c0,0-0.4,1.1-2,5.4l-2,5.4l-0.7,0l-0.7,0l-2-5.4c-1.1-3-2-5.4-2-5.4
		c0,0-0.5,10.7-0.5,10.8v0.1h-0.8L1194,238L1194,238z"/>
	<path id="path1146-7" class="st0" d="M1187,132.3v-5.8h-2h-2v-0.9v-0.9l4.5,0c2.5,0,4.7,0,5,0l0.5,0v0.9v0.9h-2.1h-2.1v5.8v5.8
		h-0.9h-0.9V132.3z"/>
	<path id="path1210-2" class="st0" d="M1194,138c0-0.1,0.2-3.1,0.4-6.8c0.2-3.7,0.4-6.7,0.4-6.7c0,0,0.5,0,1,0h1l1.9,5.2
		c1,2.8,1.9,5.2,1.9,5.2c0,0,0.9-2.3,1.9-5.2l1.9-5.2l1,0l1,0l0,0.1c0,0,0.2,3,0.4,6.6c0.2,3.6,0.4,6.7,0.4,6.7l0,0.1h-0.7h-0.7
		l0-0.1c0,0-0.1-2.5-0.2-5.4c-0.1-2.9-0.2-5.3-0.2-5.3c0,0-0.4,1.1-2,5.4l-2,5.4l-0.7,0l-0.7,0l-2-5.4c-1.1-3-2-5.4-2-5.4
		c0,0-0.5,10.7-0.5,10.8v0.1h-0.8L1194,138L1194,138z"/>
</g>
</svg>
