<?xml version="1.0" encoding="utf-8"?>
<!-- Generator: Adobe Illustrator 28.2.0, SVG Export Plug-In . SVG Version: 6.00 Build 0)  -->
<svg version="1.1"
	 id="svg834" xmlns:sodipodi="http://sodipodi.sourceforge.net/DTD/sodipodi-0.dtd" xmlns:svg="http://www.w3.org/2000/svg" xmlns:inkscape="http://www.inkscape.org/namespaces/inkscape" sodipodi:docname="Counter-Strike 2023.svg"
	 xmlns="http://www.w3.org/2000/svg" xmlns:xlink="http://www.w3.org/1999/xlink" x="0px" y="0px" viewBox="0 0 1000 92"
	 style="enable-background:new 0 0 1000 92;" xml:space="preserve">
<style type="text/css">
	.st0{fill-rule:evenodd;clip-rule:evenodd;fill:#FFFFFF;}
</style>
<sodipodi:namedview  bordercolor="#666666" borderopacity="1.0" id="namedview836" inkscape:current-layer="svg834" inkscape:cx="500" inkscape:cy="45.864046" inkscape:pagecheckerboard="0" inkscape:pageopacity="0.0" inkscape:pageshadow="2" inkscape:window-height="1017" inkscape:window-maximized="1" inkscape:window-width="1920" inkscape:window-x="-8" inkscape:window-y="-8" inkscape:zoom="1.221" pagecolor="#ffffff" showgrid="false">
	</sodipodi:namedview>
<path id="path832" class="st0" d="M607.9,12.2C607.9,12.3,607.9,12.3,607.9,12.2L607.9,12.2l5.5,0.1c0.1,0,0.2,0.1,0.2,0.2v1.1
	c0,0.1-0.1,0.2-0.2,0.2H608c0,0-0.1,0-0.1,0.1v2.4c0,0.2-0.2,0.4-0.4,0.4l-14.2,0c-0.1,0-0.1,0.1-0.2,0.1l-0.6,2.8
	c0,0.1-0.1,0.2-0.1,0.3l-0.5,0.8c0,0.1-0.1,0.1,0,0.2l1.2,5.1c0,0.1-0.1,0.3-0.2,0.3l-5.1,1.1c-0.1,0-0.3,0-0.3-0.2l-0.5-2.3
	c0-0.1-0.1-0.1-0.1,0l-1.7,4.1c-0.1,0.2-0.3,0.4-0.5,0.6c-0.8,0.5-2.5,1.1-3.5,1.1c-0.2,0-0.5-0.1-0.7-0.2l-3.6-2
	c-0.1-0.1-0.2,0-0.3,0.1l-1.3,1.4c-0.1,0.1-0.1,0.2,0,0.3l0.9,1.1c0.1,0.1,0.1,0.2,0,0.4l-4.4,8.2c-0.1,0.1-0.2,0.2-0.3,0.2
	l-1.3,0.1c-0.1,0-0.2,0.1-0.1,0.2l0.3,4.3c0,0.1,0.1,0.3,0.2,0.4c0.1,0.1,0.2,0.2,0.3,0.3c0.2,0.1,0.3,0.3,0.4,0.4
	c0.8,1.4,4.3,7.6,4.9,8.6c0.1,0.2,0.3,0.5,0.4,0.8c0.9,1.6,2.7,4.6,2.8,5.4c0.2,1.3,0.3,2.5,0,3.6l-7.2,17.1c0,0.1-0.1,0.2-0.2,0.3
	l-2.3,2.3c-0.1,0.1-0.1,0.2-0.1,0.4l1.2,1.8c0.2,0.2,0.4,0.4,0.7,0.5l4.5,1.4c0,0,0.1,0,0.1,0c0,0,0.1,0,0.1,0.1c0,0,0,0,0,0
	c0,0,0,0,0,0c0,0,0,0,0,0c0,0,0,0,0,0v0c0,0.1,0.1,0.1,0.1,0.3c0,0,0,0.1,0,0.1v0v0.1c0,0,0,0,0,0l0,0.1c-0.1,0.5-0.4,1-0.8,1.3
	c-0.2,0.2-0.4,0.3-0.9,0.5c0,0-0.1,0-0.1,0c-0.6,0.2-1.5,0.4-2.8,0.5c-0.1,0-0.2,0-0.3,0c-0.4,0-1.1,0-1.1,0h0l-9.7-0.1
	c-0.1,0-0.2-0.1-0.2-0.2l0.6-4.1c0-0.4,0.2-0.7,0.3-1c0.1-0.3,0.3-0.6,0.3-0.9l1.6-5.6c0-0.2,0.1-0.4,0.1-0.6l1.7-8.1l3.9-6.9
	c0.1-0.1,0-0.3-0.1-0.4c-0.2-0.1-0.4-0.2-0.6-0.3c-0.5-0.2-1-0.5-1.2-0.7c-1.2-1.3-3.9-5.2-4.4-6c-0.3-0.4-0.6-0.9-1-1.5
	c-0.6-0.9-1.2-2-1.6-2.4c-0.2-0.2-0.4-0.3-0.7-0.2l-0.4,0.1c-0.2,0.1-0.3,0.2-0.4,0.3l-6.5,14.4c-0.2,0.5-0.7,1.3-1.1,1.7
	l-13.7,16.1l0.1,0.7l-0.4,4.9c0,0.6-0.5,1.2-1,1.1l-7.2,0l-0.4-0.7l-0.1-0.3c0-0.1,0-0.2,0-0.3l2.4-4.1c0.1-0.3,0.3-1.7,0.3-2
	l-0.5-0.9c0-0.4,0.1-0.9,0.3-1.2l7.1-14.9c0.6-1.2,1.9-2.9,2.9-3.8l2.1-1.6c0.1-0.1,0.1-0.1,0.1-0.2l0.6-3.5c0-0.2,0-0.3,0.1-0.5
	l0.8-8.7c0-0.3,0.3-0.6,0.6-0.6l1.3,0c0.1,0,0.2-0.1,0.2-0.2l2.3-5.8c0,0,0-0.1,0-0.1c0-0.1,0.1-0.1,0.1-0.1l1.7-1.5
	c0-0.1,0.1-0.2,0.1-0.2l1.2-3.7c0-0.1,0-0.2-0.1-0.2l-2.4-1.5c-0.1-0.1-0.1-0.3-0.1-0.4l3.4-9.7c0.1-0.1,0.2-0.2,0.3-0.2l2.2,0
	c0.1,0,0.2-0.1,0.3-0.2c0,0,0.4-0.8,2.8-5.9c2.4-5.1,5.7-6.9,7.1-7c0.8,0,2.4-0.1,2.4-0.1c0.1,0,0.2-0.1,0.2-0.2l0.7-1.2l-1.3-0.6
	c-0.1-0.1-0.2-0.2-0.2-0.3l-0.2-3.7c0-0.1,0.1-0.8,0.2-0.9l0.4-0.8c0.3-0.6,0.7-1.1,1.1-1.6c1-1,3-2.3,6-1.8c6.1,1,7.4,5.4,7.6,6
	c0,0.1,0,0.1,0.1,0.1l0.9,0.3c0.1,0,0.1,0.1,0.1,0.2l-0.9,3.8c0,0.1-0.1,0.2-0.2,0.2l-1.3-0.1c-0.1,0-0.2,0.1-0.2,0.2l0,0.7
	c0,0.1,0.1,0.2,0.2,0.2h24.9c0,0,0.1,0,0.1,0c0.2-0.2,0.4-0.5,0.5-0.8c0.2-0.3,0.3-0.5,0.3-0.5c0.1-0.1,0.2-0.2,0.4-0.2
	c0.2,0,0.4,0.2,0.4,0.5l0,0.2C607.9,11.2,607.9,12,607.9,12.2z M686.9,81.5h9.5l0,0c4,0,7.6-2.4,9.2-6.1l16-37.6h16.3
	c2.5,0,5.1-1.6,6-3.7l3.8-9h-57.3L685,37.8h20.6L686.9,81.5z M879,65.8h5l10.7,15.7H912l-18.9-27.3L935,25.1h-23.6
	c-1,0-2,0.3-2.8,0.9l-37.3,25.7l11.4-26.6h-15.7l-24.1,56.4h15.7l6.8-15.7L879,65.8z M141,69.4c-3.1,7.4-10.4,12.2-18.4,12.2H78
	c-7.2,0-12-7.3-9.2-13.9l13-30.4c3.1-7.4,10.4-12.1,18.4-12.1h44.6c7.2,0,12,7.3,9.2,13.9L141,69.4z M126.4,65.7l11.9-27.8h-48
	l6.1,3L84.5,68.7h37.3C123.8,68.7,125.6,67.5,126.4,65.7L126.4,65.7z M166.6,68.7L185,25.2l0,0h-9.6c-4,0-7.6,2.4-9.2,6.1
	l-15.6,36.4c-2.8,6.6,2,13.9,9.2,13.9h40.9c8,0,15.3-4.8,18.4-12.2l18.8-44.2l-9.5,0c-4,0-7.6,2.4-9.2,6.1l-14.6,34.4
	c-0.8,1.9-2.6,3.1-4.6,3.1L166.6,68.7z M331.5,81.6h-9.5l18.7-43.7h-20.6l5.5-12.7h57.3l-3.8,9c-0.9,2.1-3.5,3.7-6,3.7h-16.3
	l-16,37.6C339.2,79.2,335.5,81.6,331.5,81.6L331.5,81.6z M512.6,81.6L512.6,81.6L512.6,81.6L512.6,81.6z M505.7,68.7l6.9,12.8h-16.8
	l-6.9-12.9H459l-2.9,6.8c-1.6,3.7-5.2,6.1-9.2,6.1h-9.6l24.1-56.4H515c7.2,0,12,7.3,9.2,13.9l-10.4,24.3
	C512.4,66.6,509.2,68.7,505.7,68.7z M508.9,37.8L508.9,37.8l-44.2,0l6.1,3l-6.5,15.3h33.5c2,0,3.8-1.2,4.6-3L508.9,37.8z M13.8,37.2
	c3.2-7.3,10.4-12.1,18.4-12.1h47.4l-4.1,9.6c-0.8,1.8-2.6,3-4.6,3H22l6.4,3L16.6,68.7H61l-4.2,9.8c-0.8,1.8-2.6,3-4.6,3H10
	c-7.2,0-12-7.3-9.2-13.9L13.8,37.2z M234.2,81.6c4,0,7.6-2.4,9.2-6.1h0L256.9,44l18.5,34.9c0.9,1.6,2.6,2.7,4.4,2.7H290
	c2,0,3.8-1.2,4.6-3l22.8-53.4l-9.8,0c-4,0-7.6,2.4-9.2,6.1l-14.1,32.9l-19.2-36.4c-0.9-1.6-2.6-2.7-4.4-2.7l-12,0l-24.1,56.4H234.2z
	 M433.5,48.6h-36.3l3.3-7.8l-6.3-3h48.5c2,0,3.8-1.2,4.6-3l4.1-9.6h-53.9c-4,0-7.6,2.4-9.2,6.1l-18.5,43.4c-1.4,3.3,1,7,4.6,7h49.6
	c2,0,3.8-1.2,4.6-3l4.2-9.8h-44.3l3.9-9.1h33c2,0,3.8-1.2,4.6-3L433.5,48.6z M853.9,25.1h-16.2l-24.1,56.4h11.8
	c2.5,0,5.2-1.7,6.1-3.8l14-33.1L853.9,25.1z M806.7,81.5L806.7,81.5l-6.9-12.8c3.5,0,6.7-2.1,8.1-5.3L818.3,39
	c2.8-6.6-2-13.9-9.2-13.9h-53.6l-24.1,56.4h9.6c4,0,7.6-2.4,9.2-6.1l2.9-6.8h29.8l6.9,12.9H806.7L806.7,81.5L806.7,81.5z M803,37.8
	l-44.2,0l6.1,3l-6.5,15.3h33.5c2,0,3.8-1.2,4.6-3L803,37.8z M945.7,48.5H982h0l-3.4,8c-0.8,1.8-2.6,3-4.6,3h-33l-3.9,9.1h44.3
	l-4.2,9.8c-0.8,1.8-2.6,3-4.6,3H923c-3.6,0-6-3.7-4.6-7l18.5-43.4c1.6-3.7,5.2-6.1,9.2-6.1h53.9l-4.1,9.6c-0.8,1.8-2.6,3-4.6,3
	h-48.5l6.3,3L945.7,48.5z M651.8,59.6l-3.9,9h-45.5c-2,0-3.8,1.2-4.6,3l-4.2,9.8H645c8,0,15.2-4.8,18.4-12.1l3.8-8.8
	c2.8-6.6-2-13.9-9.2-13.9h-33.6l2.5-5.8l-6.3-3h53.1c2,0,3.8-1.2,4.6-3l4.1-9.6h-51.4c-8,0-15.3,4.8-18.4,12.2l-2.1,4.9l-1.5,3.5
	c-2.8,6.6,2,13.9,9.2,13.9h3.7L651.8,59.6z"/>
</svg>
