<?xml version="1.0" encoding="utf-8"?>
<!-- Generator: Adobe Illustrator 28.2.0, SVG Export Plug-In . SVG Version: 6.00 Build 0)  -->
<svg version="1.1"
	 id="svg5" xmlns:sodipodi="http://sodipodi.sourceforge.net/DTD/sodipodi-0.dtd" xmlns:svg="http://www.w3.org/2000/svg" xmlns:inkscape="http://www.inkscape.org/namespaces/inkscape" sodipodi:docname="drawing.svg"
	 xmlns="http://www.w3.org/2000/svg" xmlns:xlink="http://www.w3.org/1999/xlink" x="0px" y="0px" viewBox="0 0 1731.5 355"
	 style="enable-background:new 0 0 1731.5 355;" xml:space="preserve">
<style type="text/css">
	.st0{fill:#FFFFFF;}
	.st1{fill-rule:evenodd;clip-rule:evenodd;fill:#FFFFFF;}
</style>
<g id="layer1" transform="translate(211.85126,-51.40381)" inkscape:groupmode="layer" inkscape:label="Layer 1">
	<g id="g836" transform="matrix(1.0986539,0,0,1.0986539,-211.85126,51.40381)">
		<g>
			<path class="st0" d="M1467.9,323.2h-372.4l55.4-130.2c18-42.2,59.1-69.5,104.8-69.5l205.7,0l21.6-50.7h-281L1232.9,0H1519
				c19.1,0,36.9,9.6,47.5,25.6c10.7,16.1,12.5,36.4,4.9,54.1l-35.4,83.4c-8.8,20.6-28.9,34.3-51.2,34.8l-1.2,0l-243.4,0l-22,51.7
				h237.8c9.6,0,18.4,4.8,23.7,12.8c5,7.6,6.1,17.1,3,25.6v0.1L1467.9,323.2z M1116.9,309h341.6l10.7-25.1c1.9-4.6,1.5-9.6-1.2-13.7
				c-2.7-4.1-7.1-6.4-11.9-6.4h-259.3l34-80h253.7c16.8-0.4,31.8-10.6,38.4-26.1l35.4-83.4c5.7-13.4,4.3-28.6-3.7-40.8
				c-8-12-21.3-19.2-35.7-19.2h-276.8l-18.8,44.3h281l-33.6,79.1h-215.1c-40,0-76.1,23.9-91.8,60.9L1116.9,309z"/>
		</g>
		<path id="path826" class="st1" d="M69.4,8.8C52.2,8.8,36.6,19,29.8,34.7l-28,65.4C-4.3,114.3,6.1,130,21.6,130h91.2
			c4.3,0,8.2-2.6,9.9-6.5l9.1-21.1h-96l25.7-59.8L47.6,36h105.6c4.3,0,8.2-2.6,9.9-6.5L172,8.8L69.4,8.8z M304.7,103.9
			c-6.8,15.8-22.4,26.1-39.7,26.1h-96.4c-15.5,0-25.9-15.7-19.8-29.9l28-65.2c6.8-15.8,22.4-26.1,39.7-26.1h96.4
			c15.5,0,25.9,15.7,19.8,29.9L304.7,103.9z M273.1,95.8L298.8,36H195.2l13.3,6.5l-25.7,59.8h80.4
			C267.6,102.4,271.5,99.8,273.1,95.8L273.1,95.8z M389.2,310.4h-20.5l40.4-94c-1.6,0-44.6,0-44.6,0l11.8-27.2h124l-8.2,19.3
			c-2,4.6-7.5,7.9-13,7.9h-35.3l-34.7,80.9C405.7,305.2,397.8,310.4,389.2,310.4L389.2,310.4z M794.9,276.7H784l-29.7,0l-14.7,33.7
			h-34.1l52.2-121.2h34l-24.6,57.2l80.7-55.3c1.8-1.2,3.9-1.9,6.1-1.9H905l-90.4,62.5l40.8,58.7h-37.3L794.9,276.7L794.9,276.7z
			 M729.7,189.2h-34.9l-52.1,121.2h25.4c5.5,0,11.3-3.6,13.3-8.2l30.4-71L729.7,189.2z M627.5,310.4h-36.4l-15-27.6h-64.4l-6.3,14.6
			c-3.4,7.9-11.2,13-19.9,13h-20.8l52.1-121.2h115.8c15.5,0,26,15.7,19.9,29.9l-22.4,52.3c-3,6.9-9.8,11.4-17.4,11.4L627.5,310.4
			L627.5,310.4z M638.9,250.3l-19.3-33.9l-95.5,0.1l13.2,6.4l-14.1,32.9h72.4c4.3,0,8.2-2.6,9.9-6.5l14-32.8L638.9,250.3z
			 M928.2,239.5h78.3l-7.4,17.1c-1.7,3.9-5.6,6.5-9.9,6.5H918l-8.5,19.6h95.6l-9,21.1c-1.7,4-5.6,6.5-9.9,6.5H879.2
			c-7.7,0-13-7.9-9.9-15l40-93.2c3.4-7.9,11.2-13,19.8-13h116.3l-8.9,20.7c-1.7,4-5.6,6.5-9.9,6.5H921.9l13.5,6.4L928.2,239.5z
			 M360.3,102.3l39.8-93.5h-20.8c-8.6,0-16.5,5.1-19.9,13l-33.7,78.2c-6.1,14.2,4.4,29.9,19.9,29.9H434c17.3,0,33-10.3,39.8-26.2
			l40.6-95l-20.5,0c-8.7,0-16.5,5.1-19.9,13.1l-31.6,73.9c-1.7,4-5.6,6.6-10,6.6L360.3,102.3z M716.5,130H696l40.4-94
			c-1.6,0-44.6,0-44.6,0l11.8-27.2h124l-8.2,19.3c-2,4.6-7.5,7.9-13,7.9h-35.3l-34.7,80.9C733,124.8,725.2,130,716.5,130z
			 M1108.1,130L1108.1,130L1108.1,130L1108.1,130z M1093.3,102.4l14.8,27.6h-36.4l-15-27.6h-64.4l-6.3,14.6
			c-3.4,7.9-11.2,13-19.9,13h-20.8L997.5,8.8h115.8c15.5,0,26,15.7,19.9,29.9l-22.4,52.3C1107.7,97.9,1100.9,102.4,1093.3,102.4
			L1093.3,102.4z M1100.2,36l19.3,33.9L1100.2,36l-14,32.8c-1.7,4-5.6,6.5-9.9,6.5h-72.4l14.1-32.9l-13.2-6.4L1100.2,36z
			 M937.3,59.1h-78.5l7.2-16.7L852.4,36h104.9c4.3,0,8.2-2.6,9.9-6.5l8.9-20.7H859.6c-8.7,0-16.5,5.1-19.9,13L799.7,115
			c-3,7.1,2.2,15,9.9,15H917c4.3,0,8.3-2.6,9.9-6.5l9-21.1h-95.9l8.5-19.6h71.4c4.3,0,8.2-2.6,9.9-6.5L937.3,59.1z M526.3,116.9
			c-3.4,7.9-11.2,13-19.9,13h-20.8L537.7,8.8l26,0c4,0,7.7,2.2,9.6,5.7l41.6,78.1l30.5-70.8c3.4-7.9,11.2-13,19.8-13l21.1,0
			L637,123.5c-1.7,4-5.6,6.5-9.9,6.5H605c-4,0-7.7-2.2-9.5-5.7l-40-75L526.3,116.9L526.3,116.9z M284.4,282.7l8.3-19.4l0,0l-64.8,0
			h-7.9c-15.5,0-25.9-15.7-19.9-29.9l3.2-7.6l4.5-10.6c6.8-15.9,22.4-26.2,39.8-26.2h111l-8.9,20.7c-1.7,4-5.6,6.5-9.9,6.5H225.1
			l13.6,6.5l-5.3,12.5H306c15.5,0,26,15.7,19.9,29.9l-8.1,18.9c-6.8,15.8-22.4,26.1-39.7,26.1H167l9.1-21.1c1.7-3.9,5.6-6.5,9.9-6.5
			H284.4z"/>
	</g>
</g>
</svg>
