<?xml version="1.0" encoding="utf-8"?>
<!-- Generator: Adobe Illustrator 28.2.0, SVG Export Plug-In . SVG Version: 6.00 Build 0)  -->
<svg version="1.1"
	 id="svg259" xmlns:svg="http://www.w3.org/2000/svg" xmlns:cc="http://creativecommons.org/ns#" xmlns:rdf="http://www.w3.org/1999/02/22-rdf-syntax-ns#" xmlns:dc="http://purl.org/dc/elements/1.1/"
	 xmlns="http://www.w3.org/2000/svg" xmlns:xlink="http://www.w3.org/1999/xlink" x="0px" y="0px" viewBox="0 0 1481.5 172.6"
	 style="enable-background:new 0 0 1481.5 172.6;" xml:space="preserve">
<style type="text/css">
	.st0{fill:#FFFFFF;}
</style>
<path id="path45" class="st0" d="M27.4,147.6c-2.4-0.1-5.4-0.6-7.6-1.1c-3-0.7-7.2-2.5-9.9-4.1c-1.3-0.8-2.4-1.7-3.7-3
	c-3.1-3.1-4.8-6.2-5.4-9.8l-0.2-1.2V96.6c0-30.3,0-31.8,0.2-32.7c0.7-4.4,3.7-8.7,8-11.8c3-2.1,6.2-3.7,9.9-4.8c3-0.9,5.6-1.4,9-1.6
	c2.5-0.2,78.4-0.1,80,0.1c3.4,0.3,5.4,0.7,7.6,1.2c3.8,0.9,7.1,2.4,9.8,4.3c4.7,3.2,7.3,7.7,7.9,13.5c0.2,1.5,0.1,4.2-0.2,5.4
	c-0.3,1.3-0.8,2.7-1.4,3.7c-0.6,1-2,2.4-3.7,3.8c-1.5,1.2-2.2,1.8-4.4,3.1c-6.8,4.1-12.6,5.6-21.5,5.6l-1.9,0v-9.7v-9.7H66.6H33.4
	v29.8v29.8h33.3H100v-10.3v-10.3h16.4h16.4v10.6c0,11.1,0,11.9-0.4,13.9c-1.3,6.5-6,11.6-13.4,14.7c-3.6,1.5-7.7,2.3-12.9,2.6
	C104.6,147.7,28.9,147.7,27.4,147.6L27.4,147.6z"/>
<path id="path47" class="st0" d="M161.5,137c-0.8,0-2.6-0.2-3.5-0.4c-2.8-0.4-4.8-1.1-7.3-2.4c-2-1-3.2-1.9-4.7-3.4
	c-2.3-2.3-3.4-4.3-3.9-7l-0.1-0.8l0-23.2c0-16.3,0-23.4,0-23.9c0.2-2.5,1.1-4.5,2.9-6.9c0.5-0.7,1.9-2.1,2.7-2.7
	c2.2-1.7,4.5-2.8,7.9-3.7c2.2-0.6,4-0.9,6.2-1.1c1.6-0.1,58.8-0.1,59.8,0.1c4.6,0.5,7.6,1.3,10.5,2.8c1.7,0.9,3.1,1.9,4.2,3
	c2,2,3.1,4.2,3.6,7.3c0.1,0.7,0.1,1.8,0.1,24.7c0,22.7,0,24-0.1,24.6c-0.5,2.8-1.5,4.7-3.4,6.8c-1.9,2.1-3.9,3.3-7,4.4
	c-2.5,0.9-5.1,1.4-8.8,1.6C219.5,137.1,162.6,137.1,161.5,137L161.5,137z M215.6,99.5V77.4H191h-24.6v22.1v22.1H191h24.6V99.5z"/>
<path id="path49" class="st0" d="M270.5,137.1c-3.2-0.1-6.5-0.6-8.5-1.3c-2.8-1-5.3-2.2-6.8-3.5c-2.6-2.2-4.5-5-5.2-7.7l-0.3-1.1
	l0-31l0-31l3,0.1c4.8,0.1,7.7,0.4,10.9,1.3c2,0.6,4.5,1.6,5.9,2.5c2,1.3,3.4,3.1,4.1,5.3c0.6,1.8,0.5,0.4,0.5,26.8v24h21.8h21.8v-30
	v-30h12.2H342V92c0,33,0,31.1-0.5,32.8c-0.7,2.4-3.1,5.7-5.7,7.7c-2.5,1.9-6.3,3.5-10,4.1c-2.9,0.5-1.5,0.5-29,0.5
	C282.8,137.1,270.9,137.1,270.5,137.1L270.5,137.1z"/>
<path id="path51" class="st0" d="M352.1,99.1l0-37.6l2.7,0c2.9,0,6.6,0.1,8.3,0.3c2.8,0.3,6.9,1.5,10.1,2.9c2.8,1.2,4.3,2.1,5.8,3.4
	c0.7,0.6,27,26.5,27.9,27.4c0.3,0.3,1,0.9,1.5,1.4c0.6,0.5,1.6,1.4,2.2,2.1c1.3,1.3,2.8,2.7,4.2,3.9l0.9,0.8l0-14.4
	c0-14.3,0-14.4,0.2-15.4c0.9-4.9,3.3-7.8,8.3-10c3.7-1.6,7.6-2.3,13.2-2.5l2.6-0.1v37.6v37.6l-19.4,0c-25.9-24.8-25.9-24.8-44-42.4
	l0,21.2l0,21.2h-12.2H352L352.1,99.1z"/>
<path id="path53" class="st0" d="M484.9,107.3V77.5h-18.7h-18.7l0-2.3c0.1-3.2,0.4-4.9,1.2-6.7c0.8-1.7,1.7-2.8,3-3.7
	c2.5-1.7,5.7-2.7,10-3.1c0.8-0.1,14.7-0.1,42.9-0.1h41.7v2.3c0,2.5-0.1,3.5-0.4,4.7c-0.4,1.6-1,2.8-1.9,3.8
	c-2.4,2.8-5.2,4.1-9.9,4.7c-2.3,0.3-3.9,0.3-14.2,0.4l-10.4,0l0,23.4c0,25.3-0.1,36-0.1,36s-15.3,0.1-24.6,0.1L484.9,107.3z"/>
<path id="path55" class="st0" d="M571.4,137.1c-2.1-0.1-4.2-0.3-6.2-0.7c-2.2-0.5-5.3-1.7-7.6-3.1c-2.4-1.4-5.1-4.5-6.1-7
	c-0.4-0.9-0.5-1.5-0.8-2.6c-0.2-0.8-0.2-2-0.2-24.2c0-18.1,0-23.5,0.1-24c0.3-1.8,0.9-3.3,2-4.9c1.7-2.7,3.5-4.2,6.7-5.8
	c3.2-1.6,5.7-2.4,9.6-2.9c0.9-0.1,3.9-0.2,29.6-0.2c19.5,0,29.1,0,30.3,0.1c3.8,0.2,6.9,0.8,9.6,1.9c2.7,1.1,5.6,3,7.1,4.7
	c2,2.4,2.9,4.8,3.1,8.3l0.1,0.9h-36.8h-36.8v7v7h23.2h41.7v7.9v7.9h-41.7h-23.2v7.1v7.1h36.8h36.8l-0.1,0.9
	c-0.1,1.4-0.3,2.6-0.7,3.8c-1.2,3.6-3.8,6.5-7.6,8.3c-3.5,1.6-6.7,2.3-11.9,2.5C626.5,137.1,573.7,137.1,571.4,137.1L571.4,137.1z"
	/>
<path id="path57" class="st0" d="M714.4,121.6c-6.5-8.6-14.3-18.9-17.3-22.9c-3-4-5.5-7.2-5.5-7.2c0,0,8.5,0,18.9,0h18.9v-7v-7
	h-24.6h-24.6l0,22.1l0,22.1l-0.1,1c-0.4,3-1.1,5.2-2.3,7c-2.3,3.7-6.2,5.7-12.4,6.5c-2.4,0.3-3.4,0.3-6.5,0.4l-3.1,0V99.1V61.5
	l39.1,0c28.4,0,39.3,0,39.9,0.1c2.5,0.3,3.9,0.5,5.6,0.9c2.8,0.7,4.9,1.7,7,3.1c1.1,0.8,1.6,1.1,2.3,1.9c2.3,2.3,3.5,5,3.7,8.5
	c0.1,1.1,0.1,15.7,0,16.9c-0.3,3.6-1.5,6.4-3.9,8.8c-0.9,0.9-1.4,1.3-2.3,1.9c-3.3,2.2-8,3.5-13.6,3.8c-0.5,0-1,0.1-1,0.1
	c0,0,5.2,6.7,11.5,14.8c6.3,8.1,11.6,14.8,11.6,14.8c0,0.1-1.6,0.1-14.7,0.1l-14.7,0L714.4,121.6z"/>
<path id="path61" class="st0" d="M847.2,171.4c-0.7-0.1-1.7-0.3-2.3-0.6c-1.3-0.6-3.4-2.1-5.3-4c-1.5-1.5-1.6-1.5-1.6-2.4v-0.9
	l-1.3-0.3l-1.3-0.3l0.1-0.6c0.7-4.5,0.5-8.7-0.6-12.6c-0.5-1.7-1-2.5-2.1-3c-0.5-0.3-1-0.6-1.1-0.7c-0.3-0.2-1.3-3.3-2.1-6.1
	c-0.5-1.8-1.7-8-2.5-12.6l-0.6-3.6l-10.8-12.2l-10.8-12.2l-1.6,3.9c-5.7,13.7-8.4,20.4-10.4,26.2c-2.7,8-3.9,10.5-6.4,13.7
	c-1.2,1.5-3.6,3.2-7.1,5c-3.6,1.9-6.4,2.6-7.4,2c-0.2-0.1-0.4-0.2-0.5-0.1c-0.1,0.1,0.2,1.2,0.6,2.5c0.7,2.6,1,4.1,1.1,5
	c0,0.6,0.1,0.7,1.5,1.1c0.8,0.3,1.6,0.7,1.8,0.9c0.7,0.9,0.2,2.1-1.3,2.6c-1,0.3-5.5,0.4-7.2,0.2c-2-0.3-3.5-1-4.7-2.3
	c-1.1-1.2-2.2-3.5-2.6-5.3c-0.6-3.2-0.8-3.4-1.9-2.1c-0.3,0.4-0.6,0.6-0.6,0.6c-0.3-0.3-0.6-2.3-0.6-3.4c0-1.2,0.1-1.5,0.7-2.8
	c1.2-2.3,2-3.4,4.6-6.3l2.5-2.7l-0.1-1.6l-0.1-1.6l2.6-2.5c1.4-1.4,3.4-3.2,4.4-4c1-0.9,1.8-1.6,1.8-1.6c0-0.4,2.8-12.7,3.5-15.3
	c1-4,4.9-18,6.5-23.3l1-3.5l-0.3-1.3c-0.4-2-0.7-6.5-0.6-9.2c0.1-3,0.7-6.6,1.5-10.1c0.7-3.1,0.8-3.8,1.6-11.4
	c0.5-5.2,0.7-7.2,1.1-14.7c0.2-4.1,0.9-6.1,3.1-9c1.2-1.6,3.7-4.5,4.6-5.5l0.9-0.9l1.4,0.1c1.1,0.1,1.6,0.1,2-0.1
	c0.3-0.1,1.3-0.5,2.3-0.8c1-0.3,1.8-0.6,1.8-0.6c0-0.1-0.2-0.3-0.5-0.4l-0.5-0.3l-0.1-2.9c-0.1-1.6-0.1-4.1-0.1-5.5
	c0-2.3,0.1-2.8,0.4-3.8c1.2-3.4,3.4-5.4,7.1-6.7c1.1-0.4,2-0.5,4.5-0.7c4.9-0.3,7,0,9.2,1.5c3.4,2.3,5.7,5.7,6.6,9.7
	c0.2,0.9,0.4,1.3,1.2,2.2c0.5,0.6,0.9,1.2,0.8,1.2c-0.1,0.1-1.1,0.5-2.2,1c-2,0.8-2.1,0.9-2.5,1.7c-0.4,0.8-0.4,0.9-0.1,2.2
	c0.3,1.1,0.3,1.5,0.1,2.6c-0.1,0.7-0.3,1.4-0.3,1.5c-0.1,0.2,0.4,0.2,1.8,0.2h1.9l0.8-1.4c0.5-0.7,1.2-1.7,1.6-2.2l0.8-0.9h3.6h3.6
	v-0.6v-0.6h2h2v1.4v1.4h3.8h3.8v0.6v0.6h4h4v-0.6c0-0.5,0-0.6,0.7-0.6h0.7v-1.2v-1.2h0.6c0.5,0,0.6,0.1,0.6,0.4
	c0,0.3,0.1,0.4,0.7,0.4h0.7v2.1v2.1h3.2h3.2v-1.3v-1.3h1h1v1.5v1.5h3.4h3.4v-1.6v-1.6h1.6h1.6V25v3.4h2.6h2.6v2.1v2.1h-10.1H869
	l-0.2,1.1c-0.1,0.6-0.4,1.4-0.7,1.8c-0.7,1-3.2,2.2-5,2.4c-0.4,0-0.5,0.1-0.5,1.3c-0.1,1.4,0.4,3.8,1.3,6.1c0.9,2.3,3,6.9,4,8.7
	c0.5,0.9,0.8,1.6,0.8,1.6c0,0-1,0.5-2.2,1.1c-2.4,1.2-2,1.4-3.9-2c-1.8-3.2-2.8-5.6-3.8-9.7c-0.5-2-1-3.6-1-3.7
	c-0.1-0.2-0.7,0.5-1.6,2.2l-1,1.8l-1.8,0.4c-1.3,0.3-2.3,0.4-3.8,0.4c-2.3,0-1.9-0.2-4.9,2.6c-1.1,1-2.1,1.9-2.3,1.9
	c-0.2,0.1-0.9,0.5-1.5,1c-1.3,1-3.8,2.6-5.3,3.4l-1.1,0.6l-4.6-0.3c-2.5-0.2-5-0.4-5.4-0.4l-0.8-0.1l-0.1,1.1
	c-0.2,1.6-0.6,2.6-1.3,2.9c-0.8,0.3-1,1.2-1.3,4.6c-0.3,2.9-0.4,3.3-1.3,3.5c-0.2,0.1-0.5,0.4-0.7,0.7c-0.6,1.1-0.8,2.5-1,6.6
	l-0.1,4.1l0.8-0.1c0.6-0.1,1,0,1.6,0.2c1.9,0.8,5.5,4.5,7.9,7.8c0.6,0.9,1.5,2,2,2.6c1.9,2.2,3.6,5.4,4.6,8.6
	c0.4,1.1,0.7,2.2,0.7,2.3c0,0.1-0.4,0.9-0.9,1.7c-0.5,0.8-0.9,1.6-0.9,1.7c0,0.1,2.4,3.1,5.3,6.8l5.3,6.6l1.2,4.8
	c2.1,8.4,3.1,14.3,3.5,19.4c0.1,2.1,0,2.4-1.9,4.4c-0.9,0.9-1.5,1.7-1.6,2.2c-0.3,0.9-0.1,2.1,0.5,3.9c0.2,0.7,0.4,1.5,0.4,1.8
	c0,0.7,2.1,2.5,4.5,3.9c1.7,1,2.4,1.5,3.2,2.5c2.7,3,4,6,4,8.7c0,0.8-0.1,1.2-0.5,1.9c-0.9,1.4-1.4,1.5-5.5,1.6
	C850.1,171.6,847.9,171.5,847.2,171.4L847.2,171.4z M827.7,40.6c1.1-0.1,2.2-0.3,2.5-0.4c0.3-0.1,0.9-0.7,1.4-1.2
	c0.8-0.9,1-1,2.2-1.4c1.6-0.5,5.7-2.3,6.8-3c0.4-0.3,1.1-0.8,1.5-1.2l0.7-0.7l-4.9-0.1c-6.8-0.2-6.8-0.2-9.4,1.1
	c-2.7,1.3-3.6,2-3.9,2.7c-0.1,0.3-0.4,1.5-0.7,2.6l-0.4,2.1l1.1-0.1C825.3,40.8,826.7,40.7,827.7,40.6L827.7,40.6z"/>
<path id="path63" class="st0" d="M899.2,147.6c-2.3-0.1-6-0.6-8.1-1c-3.8-0.8-8.7-2.8-11.5-4.7c-2.6-1.8-5.1-4.3-6.5-6.4
	c-0.5-0.8-1.2-2.3-1.5-3.2c-0.5-1.5-0.9-3.6-0.9-5.1v-0.7h50.1h50.1V117v-9.5l-35.3,0c-35.3,0-37.7,0-40.6-0.3
	c-3.4-0.4-5.7-0.8-8.1-1.7c-3.4-1.2-6.2-2.6-8.4-4.3c-2.7-2.1-4.8-4.6-5.9-6.9c-0.7-1.4-1.1-2.6-1.4-4.1c-0.4-2-0.4-2.7-0.4-13.7
	c0-11.3,0-10.8,0.6-13.3c0.8-3.7,2.6-6.8,5.4-9.6c3.1-3,6.9-5.2,11.8-6.4c2.7-0.7,4.6-1.1,7.5-1.4c1.3-0.2,4.1-0.2,39.6-0.2
	c27,0,38.8,0,40.3,0.1c8.1,0.4,14.2,2,19.5,5.1c3.5,2.1,5.9,4.9,7.2,8.4c0.7,2,1.1,4.1,1.2,6.3l0.1,1.4h-49.7h-49.7v9.4v9.4l33.9,0
	c20.4,0,34.8,0,36.1,0.1c3.5,0.1,6,0.5,9.8,1.2c5.5,1.1,9.4,2.8,12.7,5.4c1.8,1.5,3.9,4,5,6c0.9,1.6,1.5,3.5,1.7,5.4
	c0.1,0.5,0.1,5,0.1,12.4c0,13.2,0,13.1-0.7,15.7c-1.3,4.9-4.5,8.7-9.5,11.2c-4.9,2.5-10.5,3.8-17.8,4.2
	C974.4,147.7,900.9,147.7,899.2,147.6L899.2,147.6z"/>
<path id="path69" class="st0" d="M1230.3,136.9c3.3-0.3,5.7-1,8.7-2.4c2.4-1.1,3.9-2.2,5.5-4c2.1-2.2,3.2-4.4,3.6-6.9
	c0.1-0.7,0.1-4.4,0.1-31.4V61.5h-12.1h-12.1v37.8V137l2.5,0C1228,137,1229.7,137,1230.3,136.9L1230.3,136.9z"/>
<path id="path71" class="st0" d="M1260.8,99.3V61.5h12.2h12.2l0,16.6l0,16.6l15.7-16.6l15.7-16.6h13.5h13.5l-0.3,0.3
	c-0.2,0.2-7.6,8.1-16.5,17.7c-8.9,9.5-16.2,17.3-16.2,17.4c0,0,9.8,9,21.8,19.9c12,10.9,21.9,20,22,20.1c0.2,0.2,0,0.2-11,0.1
	c-12,0-11.7,0-14.1-0.5c-1.2-0.2-3.4-0.9-4.9-1.5c-2.1-0.8-3.4-1.6-5.5-3.2c-0.8-0.6-1.8-1.4-2.2-1.7c-0.5-0.3-7.7-6.7-16.2-14.1
	l-15.3-13.5l0,11.2c0,11-0.1,11.2-0.2,11.9c-0.4,1.6-0.8,2.6-1.7,4c-2,3.1-5,5-10.1,6.3c-3.1,0.8-5.5,1.1-9.4,1.2l-3,0L1260.8,99.3z
	"/>
<path id="path53-1" class="st0" d="M1046.5,107.3V77.5h-18.7h-18.7l0-2.3c0.1-3.2,0.4-4.9,1.2-6.7c0.8-1.7,1.7-2.8,3-3.7
	c2.5-1.7,5.7-2.7,10-3.1c0.8-0.1,14.7-0.1,42.9-0.1h41.7v2.3c0,2.5-0.1,3.5-0.4,4.7c-0.4,1.6-1,2.8-1.9,3.8
	c-2.4,2.8-5.2,4.1-9.9,4.7c-2.3,0.3-3.9,0.3-14.2,0.4l-10.4,0l0,23.4c0,25.3-0.1,36-0.1,36s-15.3,0.1-24.6,0.1L1046.5,107.3z"/>
<path id="path57-7" class="st0" d="M1174.8,121.6c-6.5-8.6-14.3-18.9-17.3-22.9c-3-4-5.5-7.2-5.5-7.2c0,0,8.5,0,18.9,0h18.9v-7v-7
	h-24.6h-24.6l0,22.1l0,22.1l-0.1,1c-0.4,3-1.1,5.2-2.3,7c-2.3,3.7-6.2,5.7-12.4,6.5c-2.4,0.3-3.4,0.3-6.5,0.4l-3.1,0V99.1V61.5
	l39.1,0c28.4,0,39.3,0,39.9,0.1c2.5,0.3,3.9,0.5,5.6,0.9c2.8,0.7,4.9,1.7,7,3.1c1.1,0.8,1.6,1.1,2.3,1.9c2.3,2.3,3.5,5,3.7,8.5
	c0.1,1.1,0.1,15.7,0,16.9c-0.3,3.6-1.5,6.4-3.9,8.8c-0.9,0.9-1.4,1.3-2.3,1.9c-3.3,2.2-8,3.5-13.6,3.8c-0.5,0-1,0.1-1,0.1
	c0,0,5.2,6.7,11.5,14.8c6.3,8.1,11.6,14.8,11.6,14.8c0,0.1-1.6,0.1-14.7,0.1l-14.7,0L1174.8,121.6z"/>
<path id="path55-0" class="st0" d="M1374,137.1c-2.1-0.1-4.2-0.3-6.2-0.7c-2.2-0.5-5.3-1.7-7.6-3.1c-2.4-1.4-5.1-4.5-6.1-7
	c-0.4-0.9-0.5-1.5-0.8-2.6c-0.2-0.8-0.2-2-0.2-24.2c0-18.1,0-23.5,0.1-24c0.3-1.8,0.9-3.3,2-4.9c1.7-2.7,3.5-4.2,6.7-5.8
	c3.2-1.6,5.7-2.4,9.6-2.9c0.9-0.1,3.9-0.2,29.6-0.2c19.5,0,29.1,0,30.3,0.1c3.8,0.2,6.9,0.8,9.6,1.9c2.7,1.1,5.6,3,7.1,4.7
	c2,2.4,2.9,4.8,3.1,8.3l0.1,0.9h-36.8h-36.8v7v7h23.2h41.7v7.9v7.9H1401h-23.2v7.1v7.1h36.8h36.8l-0.1,0.9c-0.1,1.4-0.3,2.6-0.7,3.8
	c-1.2,3.6-3.8,6.5-7.6,8.3c-3.5,1.6-6.7,2.3-11.9,2.5C1429.2,137.1,1376.3,137.1,1374,137.1L1374,137.1z"/>
<path id="path1146-7" class="st0" d="M1460.5,68.6v-5.8h-2h-2V62v-0.9l4.5,0c2.5,0,4.7,0,5,0l0.5,0V62v0.9h-2.1h-2.1v5.8v5.8h-0.9
	h-0.9V68.6z"/>
<path id="path1210-2" class="st0" d="M1467.5,74.4c0-0.1,0.2-3.1,0.4-6.8c0.2-3.7,0.4-6.7,0.4-6.7c0,0,0.5,0,1,0h1l1.9,5.2
	c1,2.8,1.9,5.2,1.9,5.2c0,0,0.9-2.3,1.9-5.2l1.9-5.2l1,0l1,0l0,0.1c0,0,0.2,3,0.4,6.6s0.4,6.7,0.4,6.7l0,0.1h-0.7h-0.7l0-0.1
	c0,0-0.1-2.5-0.2-5.4c-0.1-2.9-0.2-5.3-0.2-5.3c0,0-0.4,1.1-2,5.4l-2,5.4l-0.7,0l-0.7,0l-2-5.4c-1.1-3-2-5.4-2-5.4
	c0,0-0.5,10.7-0.5,10.8v0.1h-0.8L1467.5,74.4L1467.5,74.4z"/>
</svg>
