<?xml version="1.0" encoding="UTF-8"?>
<svg xmlns="http://www.w3.org/2000/svg" xmlns:xlink="http://www.w3.org/1999/xlink" width="px" height="100px" viewBox="0 0 525 100" version="1.1">
<g id="surface1">
<path style=" stroke:none;fill-rule:nonzero;fill:rgb(255,255,255);fill-opacity:1;" d="M 513.304688 77.394531 L 513.304688 18.589844 L 523.632812 18.589844 L 523.632812 77.480469 L 513.304688 77.480469 Z M 491.023438 77.394531 L 491.023438 18.589844 L 501.355469 18.589844 L 501.355469 77.480469 L 491.023438 77.480469 Z M 482.316406 56.195312 C 482.316406 70.382812 475.230469 77.992188 462.171875 77.992188 C 449.109375 77.992188 442.023438 70.382812 442.023438 56.195312 C 442.023438 42.007812 449.109375 34.402344 462.171875 34.402344 C 475.230469 34.402344 482.316406 42.007812 482.316406 56.195312 Z M 472.5 56.195312 C 472.5 44.742188 468.660156 42.605469 462.683594 42.605469 C 456.707031 42.605469 452.867188 44.742188 452.867188 56.195312 C 452.867188 67.648438 456.707031 69.785156 462.683594 69.785156 C 468.144531 69.785156 472.5 67.648438 472.5 56.195312 Z M 437.671875 34.402344 L 437.671875 43.121094 C 432.207031 43.121094 425.71875 43.121094 425.71875 45.855469 L 425.71875 77.480469 L 415.390625 77.480469 L 415.390625 39.871094 C 415.902344 33.289062 437.671875 34.402344 437.671875 34.402344 Z M 375.609375 94.316406 C 383.292969 75.257812 382.695312 76.878906 383.292969 75.257812 L 368.011719 34.914062 L 378.9375 34.914062 L 388.757812 64.316406 L 397.976562 34.914062 L 408.902344 34.914062 L 392.597656 78.503906 L 386.621094 94.316406 C 386.621094 94.316406 375.609375 94.316406 375.609375 94.316406 Z M 362.035156 51.835938 L 362.035156 77.480469 L 351.707031 77.480469 L 351.707031 51.238281 C 351.707031 47.394531 350.597656 43.632812 341.378906 43.632812 C 338.988281 43.71875 336.597656 44.058594 334.292969 44.742188 L 334.292969 77.480469 L 323.964844 77.480469 L 323.964844 18.589844 L 334.292969 18.589844 L 334.292969 35.511719 C 337.023438 34.316406 340.011719 33.804688 343 33.890625 C 355.464844 34.402344 362.035156 40.898438 362.035156 51.835938 Z M 304.925781 69.273438 C 308.683594 69.101562 312.355469 68.417969 315.855469 67.050781 L 315.855469 75.769531 C 311.839844 77.394531 307.660156 78.078125 303.304688 77.90625 C 290.242188 77.90625 283.160156 70.300781 283.160156 56.109375 C 283.160156 41.921875 290.242188 33.804688 303.304688 33.804688 C 307.574219 33.972656 311.757812 34.65625 315.855469 36.027344 L 315.855469 44.742188 C 312.355469 43.375 308.683594 42.691406 304.925781 42.605469 C 297.839844 42.605469 293.488281 44.742188 293.488281 55.683594 C 293.488281 67.050781 297.839844 69.273438 304.925781 69.273438 Z M 276.585938 50.726562 L 276.585938 77.394531 L 266.769531 77.394531 L 266.769531 50.726562 C 266.769531 46.878906 266.769531 43.121094 258.0625 43.121094 C 255.328125 43.121094 249.867188 43.632812 249.867188 45.257812 L 249.867188 77.394531 L 240.046875 77.394531 L 240.046875 42.007812 C 240.046875 34.914062 248.757812 33.804688 259.597656 33.804688 C 270.609375 34.402344 276.585938 38.761719 276.585938 50.726562 Z M 230.316406 34.914062 L 230.316406 58.332031 C 230.316406 70.898438 225.964844 78.503906 211.28125 78.503906 C 196.597656 78.503906 192.757812 70.898438 192.757812 58.332031 L 192.757812 34.914062 L 202.574219 34.914062 L 202.574219 59.445312 C 202.574219 66.539062 205.304688 68.675781 211.28125 68.675781 C 217.257812 68.675781 219.988281 66.539062 219.988281 59.445312 L 219.988281 34.914062 Z M 184.644531 34.402344 L 184.644531 43.121094 C 179.183594 43.121094 172.695312 43.121094 172.695312 45.855469 L 172.695312 77.480469 L 162.367188 77.480469 L 162.367188 39.871094 C 162.878906 33.289062 184.644531 34.402344 184.644531 34.402344 Z M 142.132812 69.273438 C 145.71875 69.1875 149.21875 68.417969 152.464844 67.050781 L 152.464844 75.769531 C 148.453125 77.394531 144.269531 78.078125 139.914062 77.90625 C 126.855469 77.90625 119.769531 70.300781 119.769531 56.109375 C 119.769531 41.921875 126.855469 33.804688 139.914062 33.804688 C 144.183594 33.972656 148.367188 34.65625 152.464844 36.027344 L 152.464844 44.742188 C 149.132812 43.460938 145.632812 42.691406 142.132812 42.605469 C 135.046875 42.605469 130.695312 44.742188 130.695312 55.683594 C 130.183594 67.050781 135.132812 69.273438 142.132812 69.273438 Z M 13.230469 56.195312 C 13.230469 32.351562 32.523438 13.121094 56.339844 13.121094 C 78.792969 13.207031 97.402344 30.46875 99.195312 52.863281 L 99.195312 50.128906 C 99.195312 23.035156 77.257812 1.070312 50.195312 1.070312 C 23.132812 1.070312 1.195312 23.121094 1.195312 50.214844 C 1.195312 77.308594 23.132812 99.1875 50.195312 99.1875 L 53.4375 99.1875 C 30.902344 97.648438 13.316406 78.847656 13.230469 56.195312 Z M 13.230469 56.195312 "/>
<path style=" stroke:none;fill-rule:nonzero;fill:rgb(255,255,255);fill-opacity:1;" d="M 79.5625 58.332031 C 70.855469 58.332031 63.855469 51.324219 63.769531 42.691406 C 63.769531 36.027344 67.867188 30.128906 74.097656 27.820312 C 69.230469 25.257812 63.855469 23.890625 58.304688 23.972656 C 39.355469 23.972656 23.988281 39.359375 23.988281 58.332031 C 23.988281 77.308594 39.355469 92.691406 58.304688 92.691406 C 77.257812 92.691406 92.621094 77.308594 92.621094 58.332031 C 92.707031 56.109375 92.535156 53.972656 92.109375 51.753906 C 89.464844 56.109375 84.597656 58.589844 79.5625 58.332031 Z M 79.5625 58.332031 "/>
</g>
</svg>
