<?xml version="1.0" encoding="utf-8"?>
<!-- Generator: Adobe Illustrator 28.2.0, SVG Export Plug-In . SVG Version: 6.00 Build 0)  -->
<svg version="1.1"
	 id="svg6573" xmlns:sodipodi="http://sodipodi.sourceforge.net/DTD/sodipodi-0.dtd" xmlns:svg="http://www.w3.org/2000/svg" xmlns:cc="http://creativecommons.org/ns#" xmlns:rdf="http://www.w3.org/1999/02/22-rdf-syntax-ns#" xmlns:dc="http://purl.org/dc/elements/1.1/" xmlns:inkscape="http://www.inkscape.org/namespaces/inkscape" sodipodi:docname="Day of Defeat.svg"
	 xmlns="http://www.w3.org/2000/svg" xmlns:xlink="http://www.w3.org/1999/xlink" x="0px" y="0px" viewBox="0 0 400 43"
	 style="enable-background:new 0 0 400 43;" xml:space="preserve">
<style type="text/css">
	.st0{fill:#FFFFFF;}
</style>
<g id="layer1" transform="translate(0,-285.61256)" inkscape:groupmode="layer" inkscape:label="Capa 1">
	<g id="g6543" transform="matrix(3.1520113,0,0,3.1520113,-12.442189,-569.48427)">
		<path id="path968" inkscape:connector-curvature="0" class="st0" d="M4.1,271.3c0.3,0,0.7,0,1,0s0.7,0,1,0c0,0,0.1,0,0.1,0
			c0,0,0.1,0,0.1,0c0.1,0,0.3,0,0.4,0s0.3,0,0.4,0c1.2,0,2.4,0.1,3.6,0.3s2.1,0.8,2.9,1.8c0.6,0.7,1.1,1.4,1.6,2.2
			c0.5,0.8,0.7,1.6,0.7,2.6c0,0.2,0,0.4-0.1,0.6c0,0.2-0.1,0.4-0.1,0.6c-0.3,1.2-0.9,2.3-1.7,3.2c-0.9,0.9-1.8,1.6-2.9,2.1
			c-0.4,0.1-0.9,0.1-1.3,0.2c-0.4,0-0.9,0-1.3,0s-0.9,0-1.3,0s-0.9-0.1-1.3-0.1c-0.3,0-0.6,0-0.9,0c-0.3,0-0.6,0-1-0.1
			c0-0.8,0-1.6,0-2.4c0-0.8,0-1.7,0.1-2.5c0-0.5,0-0.9,0-1.4c0-0.5,0-0.9,0-1.4c0-1,0-1.9,0.1-2.9C4.1,273.2,4.1,272.2,4.1,271.3
			L4.1,271.3z M13.3,275.9c-0.5-0.7-1.1-1.3-1.7-1.8c-0.6-0.5-1.3-0.9-2.1-1.1c-0.2,0-0.4,0-0.6,0c-0.2,0-0.4,0-0.6-0.1
			c-0.1,0-0.2,0-0.3,0c-0.1,0-0.2,0-0.3,0c-0.1,0-0.2,0-0.3,0c-0.1,0-0.2,0-0.3,0c-0.2,0-0.4,0-0.6,0S6.3,272.9,6,273L6,283
			c0.3,0,0.6,0.1,1,0.1c0.3,0,0.7,0.1,1,0.1c1,0,2-0.2,2.9-0.5c0.9-0.4,1.7-1,2.3-1.9c0.3-0.3,0.5-0.7,0.6-1.1
			c0.1-0.4,0.2-0.9,0.2-1.3c0,0,0-0.1,0-0.1s0-0.1,0-0.1c0-0.4-0.1-0.8-0.2-1.2C13.7,276.5,13.5,276.2,13.3,275.9L13.3,275.9z
			 M9.5,273.5c0.6,0.2,1.2,0.5,1.7,0.9c0.6,0.4,1,0.8,1.5,1.4c0.2,0.4,0.4,0.8,0.5,1.2c0.1,0.4,0.2,0.8,0.2,1.3c0,0.1,0,0.2,0,0.3
			c0,0.1,0,0.1,0,0.2c-0.1,0.8-0.5,1.5-1,2c-0.5,0.6-1.1,1.1-1.7,1.5c-0.4,0.2-0.8,0.3-1.2,0.4c-0.4,0.1-0.9,0.1-1.3,0.1
			c-0.2,0-0.5,0-0.7,0c-0.2,0-0.4,0-0.7,0c-0.1,0-0.1,0-0.2,0c-0.1,0-0.1,0-0.2,0v-9.3c0.1-0.1,0.3-0.1,0.5-0.1c0.2,0,0.3,0,0.5,0
			c0.1,0,0.3,0,0.4,0c0.1,0,0.3,0,0.4,0c0.1,0,0.2,0,0.3,0.1c0.1,0,0.2,0,0.3,0.1c0.1,0,0.2,0,0.3,0.1
			C9.3,273.4,9.4,273.4,9.5,273.5L9.5,273.5z M10.9,276.2l-1.1-0.9c-0.1,0-0.2,0-0.3-0.1c-0.1,0-0.2-0.1-0.2-0.1c0,0,0,0,0,0l0,0
			c-0.1,0-0.2-0.1-0.3-0.1c-0.1,0-0.2-0.1-0.3-0.1c-0.1,0-0.1,0-0.2,0.1c-0.1,0-0.1,0-0.2,0.1l-0.1,5.1c0,0,0,0.1,0,0.1
			c0,0,0,0.1,0,0.1c0,0.1,0,0.2,0.1,0.3c0.1,0.1,0.2,0.1,0.3,0.1c0.7,0,1.3-0.2,1.8-0.7c0.5-0.5,0.9-1,1.2-1.6
			c0-0.1,0.1-0.2,0.1-0.3c0-0.1,0-0.2,0-0.3c0-0.3-0.1-0.6-0.2-0.9C11.2,276.8,11.1,276.5,10.9,276.2z"/>
		<path id="path971" inkscape:connector-curvature="0" class="st0" d="M24.5,271.3c0.1,0,0.4,0.7,0.8,1.9c0.5,1.2,1,2.6,1.5,4.2
			c0,0.1,0.1,0.2,0.1,0.3c0,0.1,0.1,0.2,0.1,0.3c0.6,1.6,1,3,1.5,4.3c0.4,1.3,0.7,2.1,0.7,2.4h-4.2c-0.1-0.1-0.2-0.2-0.3-0.4
			c-0.1-0.1-0.1-0.3-0.2-0.4c-0.1-0.3-0.2-0.5-0.3-0.8c0-0.2-0.1-0.4-0.1-0.4c-0.2,0-0.5,0.1-0.8,0.1c-0.3,0-0.6,0-0.9,0
			c0,0,0,0-0.1,0c0,0,0,0-0.1,0c-0.2,0-0.4,0-0.6,0c-0.2,0-0.4,0-0.5,0c-0.2,0-0.4,0-0.6,0c-0.2,0-0.3,0-0.5,0c0,0-0.1,0-0.1,0
			c0,0-0.1,0-0.1,0c0,0.1-0.1,0.2-0.1,0.4c0,0.2-0.1,0.3-0.1,0.5c-0.1,0.3-0.1,0.5-0.2,0.7c-0.1,0.2-0.2,0.3-0.3,0.3l-3.8-0.1
			c0,0,0,0,0-0.1c0,0,0-0.1,0-0.1c0-0.4,0.3-1.3,0.8-2.8c0.6-1.5,1.2-3.1,1.9-4.8c0.4-1.1,0.8-2.1,1.2-3.1c0.4-1,0.7-1.9,1-2.6
			c0.2,0,0.4,0,0.7,0c0.3,0,0.6,0,1,0c0,0,0.1,0,0.1,0c0,0,0.1,0,0.1,0c0.2,0,0.4,0,0.6,0c0.2,0,0.4,0,0.6,0c0.2,0,0.4,0,0.6,0
			C24.3,271.3,24.4,271.3,24.5,271.3C24.5,271.3,24.5,271.3,24.5,271.3C24.5,271.3,24.5,271.3,24.5,271.3L24.5,271.3z M23.2,273.1
			c-0.1,0-0.2-0.1-0.4-0.1c-0.1,0-0.2,0-0.3,0c-0.1,0-0.2,0-0.3,0c-0.1,0-0.2,0-0.3-0.1c0,0.1-0.1,0.2-0.1,0.3
			c0,0.1-0.1,0.2-0.1,0.3c-0.7,1.6-1.3,3.2-2,4.8c-0.6,1.6-1.2,3.2-1.8,4.8c0,0,0,0,0,0c0,0,0,0,0,0c0,0,0.1,0,0.1,0
			c0,0,0,0,0.1,0.1c0,0,0,0,0,0c0,0,0,0,0,0c0,0,0,0,0,0c0,0,0-0.1,0.1-0.2c0-0.1,0.1-0.2,0.1-0.3c0.1-0.2,0.1-0.3,0.2-0.5
			c0,0,0-0.1,0-0.1c0,0,0-0.1,0-0.1c0.1-0.2,0.1-0.3,0.2-0.4c0.1-0.1,0.1-0.2,0.2-0.3l7-0.1c0,0,0,0.1,0.1,0.2s0.2,0.3,0.3,0.5
			c0,0.1,0.1,0.2,0.1,0.3c0,0.1,0.1,0.2,0.1,0.3c0,0.1,0,0.2,0.1,0.3c0,0.1,0,0.2,0.1,0.2c0.1,0,0.1,0.1,0.2,0.1
			c0.1,0,0.1-0.1,0.2-0.2c-0.4-1.1-0.8-2.3-1.3-3.4c-0.4-1.1-0.9-2.3-1.4-3.4c-0.2-0.5-0.4-1-0.6-1.5
			C23.6,274.2,23.4,273.7,23.2,273.1L23.2,273.1z M22.8,273.5l2.9,7.6h-6.6c0.1-0.4,0.3-0.9,0.5-1.4c0.2-0.5,0.4-1.1,0.6-1.7
			c0-0.1,0-0.1,0.1-0.2c0-0.1,0.1-0.1,0.1-0.2c0.4-1,0.8-1.9,1.1-2.7c0.3-0.8,0.5-1.2,0.5-1.2c0-0.1,0.1-0.2,0.1-0.2
			c0.1,0,0.1,0,0.2,0c0,0,0,0,0.1,0c0,0,0,0,0.1,0c0,0,0.1,0,0.1,0s0.1,0,0.1,0C22.8,273.5,22.8,273.5,22.8,273.5
			C22.8,273.5,22.8,273.5,22.8,273.5L22.8,273.5z M23.6,280c0-0.2-0.1-0.4-0.1-0.5c0-0.2-0.1-0.4-0.2-0.6c-0.1-0.3-0.2-0.6-0.4-0.9
			c-0.1-0.3-0.3-0.6-0.5-0.8c-0.1,0.1-0.1,0.3-0.2,0.4c-0.1,0.1-0.1,0.2-0.2,0.4c-0.2,0.3-0.4,0.7-0.5,1c-0.1,0.3-0.2,0.7-0.2,1.1
			c0.1,0,0.1,0,0.2,0c0.1,0,0.1,0,0.2,0c0.1,0,0.2,0,0.3,0c0.1,0,0.2,0,0.3,0c0,0,0.1,0,0.1,0c0.1,0,0.1,0,0.2,0c0,0,0.1,0,0.1,0
			c0,0,0.1,0,0.1,0c0.1,0,0.2,0,0.3,0C23.3,280.1,23.4,280,23.6,280L23.6,280z"/>
		<path id="path974" inkscape:connector-curvature="0" class="st0" d="M28.8,271.5c0.3,0,0.5,0,0.8,0c0.3,0,0.5,0,0.8-0.1
			c0.2,0,0.4,0,0.6,0c0.2,0,0.4,0,0.6-0.1c0.1,0,0.3,0,0.4,0c0.1,0,0.3,0,0.4,0c0.1,0,0.2,0,0.3,0c0.1,0,0.2,0,0.3,0
			c0.1,0,0.2,0,0.3,0c0.1,0,0.2,0,0.3,0l1.8,2.7c0.3-0.3,0.5-0.6,0.7-0.9c0.2-0.4,0.4-0.8,0.5-1.1c0-0.1,0.1-0.2,0.1-0.3
			c0-0.1,0-0.2,0.1-0.3l4.5,0l-0.2,1l-5.6,12.5l-5.3-0.2v-0.4c0.7-1,1.3-1.9,1.8-3c0.5-1,1-2.1,1.5-3.1l-0.1-0.4
			c-0.8-1-1.6-2.1-2.4-3.1C30.2,273.7,29.5,272.6,28.8,271.5L28.8,271.5z M32.5,273H32c0.3,0.5,0.6,1,0.9,1.4c0.3,0.5,0.7,0.9,1,1.4
			c0,0,0,0,0.1,0.1c0,0,0,0,0.1,0.1c0.3,0.4,0.5,0.7,0.8,1.1c0.3,0.4,0.5,0.7,0.8,1.1l-2.4,4.9c0,0,0,0,0,0c0,0,0,0,0.1,0
			c0,0,0,0,0,0c0,0,0,0,0.1,0c0,0,0.1,0,0.1,0c0,0,0.1,0,0.1,0c0,0,0.1,0,0.1,0c0,0,0.1,0,0.1-0.1l4.8-9.8l-0.5-0.1
			c-0.2,0.3-0.4,0.6-0.5,0.9c-0.1,0.3-0.3,0.6-0.4,1c0,0,0,0,0,0.1c0,0,0,0,0,0.1c-0.2,0.4-0.4,0.8-0.6,1.2
			c-0.2,0.4-0.4,0.8-0.7,1.1c-0.1-0.1-0.2-0.2-0.3-0.4c-0.1-0.1-0.2-0.2-0.3-0.4c-0.5-0.6-1-1.2-1.5-1.8
			C33.4,274.3,32.9,273.6,32.5,273L32.5,273z"/>
		<path id="path983" inkscape:connector-curvature="0" class="st0" d="M61.1,271.3c0.3,0,0.7,0,1,0s0.7,0,1,0c0,0,0.1,0,0.1,0
			c0,0,0.1,0,0.1,0c0.1,0,0.3,0,0.4,0s0.3,0,0.4,0c1.2,0,2.4,0.1,3.6,0.3s2.1,0.8,2.9,1.8c0.6,0.7,1.1,1.4,1.6,2.2
			c0.5,0.8,0.7,1.6,0.7,2.6c0,0.2,0,0.4-0.1,0.6c0,0.2-0.1,0.4-0.1,0.6c-0.3,1.2-0.9,2.3-1.7,3.2s-1.8,1.6-2.9,2.1
			c-0.4,0.1-0.9,0.1-1.3,0.2c-0.4,0-0.9,0-1.3,0s-0.9,0-1.3,0c-0.4,0-0.9-0.1-1.3-0.1c-0.3,0-0.6,0-0.9,0c-0.3,0-0.6,0-1-0.1
			c0-0.8,0-1.6,0-2.4c0-0.8,0-1.7,0.1-2.5c0-0.5,0-0.9,0-1.4c0-0.5,0-0.9,0-1.4c0-1,0-1.9,0.1-2.9C61.1,273.2,61.1,272.2,61.1,271.3
			L61.1,271.3z M70.3,275.9c-0.5-0.7-1.1-1.3-1.7-1.8c-0.6-0.5-1.3-0.9-2.1-1.1c-0.2,0-0.4,0-0.6,0c-0.2,0-0.4,0-0.6-0.1
			c-0.1,0-0.2,0-0.3,0c-0.1,0-0.2,0-0.3,0c-0.1,0-0.2,0-0.3,0c-0.1,0-0.2,0-0.3,0c-0.2,0-0.4,0-0.6,0c-0.2,0-0.4,0.1-0.6,0.1
			l-0.1,10c0.3,0,0.6,0.1,1,0.1c0.3,0,0.7,0.1,1,0.1c1,0,2-0.2,2.9-0.5c0.9-0.4,1.7-1,2.3-1.9c0.3-0.3,0.5-0.7,0.6-1.1
			c0.1-0.4,0.2-0.9,0.2-1.3c0,0,0-0.1,0-0.1s0-0.1,0-0.1c0-0.4-0.1-0.8-0.2-1.2C70.6,276.5,70.5,276.2,70.3,275.9L70.3,275.9z
			 M66.4,273.5c0.6,0.2,1.2,0.5,1.7,0.9c0.6,0.4,1,0.8,1.5,1.4c0.2,0.4,0.4,0.8,0.5,1.2c0.1,0.4,0.2,0.8,0.2,1.3c0,0.1,0,0.2,0,0.3
			c0,0.1,0,0.1,0,0.2c-0.1,0.8-0.5,1.5-1,2c-0.5,0.6-1.1,1.1-1.7,1.5c-0.4,0.2-0.8,0.3-1.2,0.4c-0.4,0.1-0.9,0.1-1.3,0.1
			c-0.2,0-0.5,0-0.7,0c-0.2,0-0.4,0-0.7,0c-0.1,0-0.1,0-0.2,0c-0.1,0-0.1,0-0.2,0v-9.3c0.1-0.1,0.3-0.1,0.5-0.1c0.2,0,0.3,0,0.5,0
			c0.1,0,0.3,0,0.4,0c0.1,0,0.3,0,0.4,0c0.1,0,0.2,0,0.3,0.1c0.1,0,0.2,0,0.3,0.1c0.1,0,0.2,0,0.3,0.1
			C66.2,273.4,66.3,273.4,66.4,273.5L66.4,273.5z M67.8,276.2l-1.1-0.9c-0.1,0-0.2,0-0.3-0.1c-0.1,0-0.2-0.1-0.2-0.1c0,0,0,0,0,0
			l0,0c-0.1,0-0.2-0.1-0.3-0.1c-0.1,0-0.2-0.1-0.3-0.1c-0.1,0-0.1,0-0.2,0.1c-0.1,0-0.1,0-0.2,0.1l-0.1,5.1c0,0,0,0.1,0,0.1
			c0,0,0,0.1,0,0.1c0,0.1,0,0.2,0.1,0.3c0.1,0.1,0.2,0.1,0.3,0.1c0.7,0,1.3-0.2,1.8-0.7c0.5-0.5,0.9-1,1.2-1.6
			c0-0.1,0.1-0.2,0.1-0.3c0-0.1,0-0.2,0-0.3c0-0.3-0.1-0.6-0.2-0.9C68.2,276.8,68,276.5,67.8,276.2L67.8,276.2z"/>
		<path id="path986" inkscape:connector-curvature="0" class="st0" d="M73.9,271.6c0.7-0.1,1.4-0.1,2.2-0.1c0.7,0,1.4,0,2.2,0
			c0.2,0,0.3,0,0.5,0c0.2,0,0.3,0,0.5,0c0.6,0,1.2,0,1.8,0c0.6,0,1.2-0.1,1.8-0.1c0.2,0.7,0.4,1.3,0.5,2c0.2,0.7,0.3,1.4,0.3,2.1
			c-0.8-0.1-1.6-0.2-2.4-0.3c-0.8-0.1-1.7-0.1-2.5-0.1c-0.1,0-0.3,0-0.4,0c-0.1,0-0.3,0-0.5,0c-0.1,0.1-0.2,0.2-0.2,0.3
			c0,0.1-0.1,0.2-0.1,0.3c0,0.1,0,0.1,0,0.2c0,0.1,0,0.1,0,0.2c0,0.1,0,0.1,0,0.2c0,0.1,0,0.1,0,0.2c0,0,0,0,0,0.1c0,0,0,0,0,0.1
			c0.4,0,0.8,0,1.2,0.1c0.4,0,0.9,0,1.3,0c0.3,0,0.7,0,1,0s0.7-0.1,1-0.1c0,0.2,0.1,0.5,0.1,0.7c0.1,0.2,0.2,0.4,0.2,0.7
			c0,0,0,0.1,0.1,0.1c0,0,0,0.1,0.1,0.1c0.1,0.2,0.2,0.4,0.2,0.7s0.1,0.5,0.1,0.7c0,0.1,0,0.2,0,0.3c0,0.1,0,0.2-0.1,0.3h-5.1
			c-0.1,0.1-0.1,0.2-0.1,0.4c0,0.1,0,0.3,0,0.4c0,0.1,0,0.2,0,0.3s0,0.2,0,0.3c0,0,0,0.1,0,0.1c0,0,0,0.1,0,0.1
			c0.4,0,0.7,0.1,1.1,0.1c0.4,0,0.7,0,1.1,0c0.1,0,0.2,0,0.3,0c0.1,0,0.2,0,0.3,0c0.3,0,0.5,0,0.8,0c0.3,0,0.5,0,0.8,0
			c0.3,0,0.5,0,0.7,0c0.3,0,0.5,0,0.8,0c0,0,0,0.1,0.1,0.1c0,0,0,0.1,0,0.1c0,0,0,0.1,0,0.1c0,0,0,0.1,0,0.1c0,0.2,0,0.3-0.1,0.5
			c0,0.2-0.1,0.3-0.2,0.5c0,0,0,0,0,0.1c0,0,0,0,0,0c0,0.1-0.1,0.3-0.1,0.4c0,0.1-0.1,0.3-0.1,0.4l-0.3,0.9h-8.9
			c0-1.2-0.1-2.4-0.1-3.6c0-1.2,0-2.3,0-3.5c0-1,0-2.1,0-3.1C73.9,273.7,73.9,272.7,73.9,271.6L73.9,271.6z M81.7,273.4
			C81.7,273.4,81.7,273.3,81.7,273.4c0.1-0.1,0.1-0.1,0.1-0.1c0,0,0,0,0-0.1c0,0,0-0.1-0.1-0.1c0,0,0,0-0.1-0.1s0,0,0-0.1
			c-0.4,0-0.8,0-1.2,0s-0.8,0-1.2,0c-0.6,0-1.2,0-1.8,0c-0.6,0-1.2,0-1.8,0c0,0.7,0,1.4,0,2.2c0,0.8,0,1.5,0,2.3c0,0.1,0,0.1,0,0.2
			c0,0.1,0,0.1,0,0.2c0,1.1,0,2.1,0,3.1c0,1,0.1,1.9,0.1,2.7c0.5,0,1,0,1.5,0.1c0.5,0,1,0,1.5,0c0.5,0,1,0,1.4,0c0.5,0,1,0,1.4-0.1
			c0,0,0-0.1,0-0.1c0,0,0-0.1,0-0.1c0,0,0-0.1-0.1-0.1c0,0,0-0.1-0.1-0.1c0,0,0,0,0,0s0,0,0,0c-0.3,0-0.6,0-0.9,0
			c-0.3,0-0.6,0-0.9,0c-0.1,0-0.3,0-0.5,0c-0.1,0-0.3,0-0.4,0c-0.4,0-0.8,0-1.3,0c-0.4,0-0.9,0-1.3-0.1c0-0.5,0-0.9-0.1-1.4
			c0-0.5,0-0.9,0-1.3c0-0.3,0-0.7,0-1c0-0.3,0-0.7,0.1-1c0.4,0,0.7,0,1-0.1c0.3,0,0.7,0,1,0c0.2,0,0.5,0,0.7,0c0.3,0,0.5,0,0.8,0
			c0.2,0,0.5,0,0.8,0c0.3,0,0.5,0,0.8,0c0-0.1,0-0.1,0-0.2c0,0-0.1-0.1-0.1-0.1c0,0,0,0,0,0c0,0,0,0,0,0h-4.9c0,0,0-0.1,0-0.3
			c0-0.2,0-0.5-0.1-0.8c0-0.2,0-0.4-0.1-0.7c0-0.2,0-0.5,0-0.7c0-0.1,0-0.3,0-0.4c0-0.1,0-0.3,0-0.4c0-0.3,0-0.5,0-0.8
			c0-0.2,0.1-0.4,0.1-0.6L81.7,273.4L81.7,273.4z"/>
		<path id="path998" inkscape:connector-curvature="0" class="st0" d="M85,271.3c0.8,0.1,1.6,0.1,2.5,0.1c0.9,0,1.8,0,2.7,0
			c0,0,0,0,0,0c0,0,0,0,0.1,0c0.1,0,0.3,0,0.4,0c0.2,0,0.3,0,0.5,0c0.5,0,1.1,0,1.6,0c0.5,0,1,0,1.5,0.1l0.4,4.2
			c-0.2,0-0.4-0.1-0.6-0.1c-0.2,0-0.4-0.1-0.6-0.1c-0.5-0.1-1.1-0.2-1.6-0.3c-0.6-0.1-1.1-0.1-1.7-0.1c-0.2,0-0.4,0-0.7,0
			c-0.2,0-0.4,0-0.6,0.1c-0.1,0.1-0.1,0.2-0.1,0.4c0,0.1,0,0.3,0,0.4c0,0.1,0,0.2,0,0.3c0,0.1,0,0.2,0,0.3c0,0.1,0,0.2,0,0.3
			c0,0.1,0,0.2,0,0.3c0.3,0.1,0.7,0.2,1.1,0.2c0.4,0,0.8,0,1.2,0c0.1,0,0.3,0,0.4,0c0.1,0,0.3,0,0.4,0c0.1,0,0.1,0,0.2,0
			c0.1,0,0.1,0,0.2,0c0.2,0,0.4,0,0.6,0c0.2,0,0.4,0,0.6,0c0.1,0,0.1,0,0.2,0c0.1,0,0.1,0,0.2,0c0,0.3,0.1,0.5,0.1,0.8
			c0,0.3,0.1,0.5,0.1,0.8c0,0.1,0,0.3,0,0.4c0,0.1,0,0.2,0,0.4c0,0.2,0,0.4,0.1,0.6s0,0.4,0.1,0.6l-0.3,0.2
			c-0.4-0.1-0.9-0.2-1.3-0.2c-0.5,0-0.9-0.1-1.4-0.1c-0.1,0-0.2,0-0.4,0c-0.1,0-0.2,0-0.3,0c-0.2,0-0.4,0-0.7,0c-0.2,0-0.4,0-0.6,0
			l-0.1,0.2l0.2,3.7c-0.2,0-0.4,0-0.6,0s-0.4,0-0.7,0c-0.1,0-0.3,0-0.5,0c-0.1,0-0.3,0-0.5,0c-0.4,0-0.8-0.1-1.2-0.1
			c-0.4,0-0.7-0.1-1.1-0.1l-0.3-0.5c0.1-1.2,0.1-2.3,0.1-3.3c0-1,0.1-2,0.1-3c0-1,0-2-0.1-3c0-1-0.1-2.1-0.2-3.3L85,271.3L85,271.3z
			 M92.8,273.5v-0.3c-0.5,0-0.9,0-1.4,0s-0.9,0-1.4,0c-0.6,0-1.1,0-1.7,0c-0.6,0-1.1,0-1.7,0c0,0.7,0,1.4,0,2.2c0,0.8,0,1.5,0,2.3
			c0,0.2,0,0.4,0,0.7c0,0.2,0,0.4,0,0.6c0,0.7,0,1.4,0,2.1s0,1.3,0,1.9c0,0,0,0.1,0,0.1c0,0,0.1,0,0.1,0c0,0,0,0,0,0c0,0,0,0,0.1,0
			s0,0,0,0c0,0,0,0,0,0c0,0,0,0,0.1,0c0,0,0,0,0.1,0c0-0.2,0-0.4,0.1-0.6c0-0.2,0-0.4,0-0.6c0-0.1,0-0.1,0-0.2c0-0.1,0-0.1,0-0.2
			c0-0.3,0-0.5,0-0.8c0-0.3,0-0.5,0-0.7c0-0.1,0-0.2,0-0.2c0-0.1,0-0.1,0-0.2l0.3-0.3l5.1,0.1v-0.3c-0.4,0-0.7-0.1-1.1-0.1
			c-0.4,0-0.8,0-1.2-0.1c-0.2,0-0.4,0-0.6,0c-0.2,0-0.4,0-0.6,0c-0.3,0-0.6,0-0.9,0c-0.3,0-0.6,0-0.8,0v-5.2L92.8,273.5L92.8,273.5z
			"/>
		<path id="path995" inkscape:connector-curvature="0" class="st0" d="M95.6,271.6c0.7-0.1,1.4-0.1,2.2-0.1c0.7,0,1.4,0,2.2,0
			c0.2,0,0.3,0,0.5,0c0.2,0,0.3,0,0.5,0c0.6,0,1.2,0,1.8,0c0.6,0,1.2-0.1,1.8-0.1c0.2,0.7,0.4,1.3,0.5,2s0.3,1.4,0.3,2.1
			c-0.8-0.1-1.6-0.2-2.4-0.3c-0.8-0.1-1.7-0.1-2.5-0.1c-0.1,0-0.3,0-0.4,0c-0.1,0-0.3,0-0.5,0c-0.1,0.1-0.2,0.2-0.2,0.3
			c0,0.1-0.1,0.2-0.1,0.3c0,0.1,0,0.1,0,0.2c0,0.1,0,0.1,0,0.2c0,0.1,0,0.1,0,0.2c0,0.1,0,0.1,0,0.2c0,0,0,0,0,0.1c0,0,0,0,0,0.1
			c0.4,0,0.8,0,1.2,0.1c0.4,0,0.9,0,1.3,0c0.3,0,0.7,0,1,0c0.3,0,0.7-0.1,1-0.1c0,0.2,0.1,0.5,0.1,0.7c0.1,0.2,0.2,0.4,0.2,0.7
			c0,0,0,0.1,0.1,0.1c0,0,0,0.1,0.1,0.1c0.1,0.2,0.2,0.4,0.2,0.7c0.1,0.2,0.1,0.5,0.1,0.7c0,0.1,0,0.2,0,0.3c0,0.1,0,0.2-0.1,0.3
			h-5.1c-0.1,0.1-0.1,0.2-0.1,0.4c0,0.1,0,0.3,0,0.4c0,0.1,0,0.2,0,0.3c0,0.1,0,0.2,0,0.3c0,0,0,0.1,0,0.1c0,0,0,0.1,0,0.1
			c0.4,0,0.7,0.1,1.1,0.1c0.4,0,0.7,0,1.1,0c0.1,0,0.2,0,0.3,0c0.1,0,0.2,0,0.3,0c0.3,0,0.5,0,0.8,0c0.3,0,0.5,0,0.8,0
			c0.3,0,0.5,0,0.7,0c0.3,0,0.5,0,0.8,0c0,0,0,0.1,0.1,0.1c0,0,0,0.1,0,0.1c0,0,0,0.1,0,0.1c0,0,0,0.1,0,0.1c0,0.2,0,0.3-0.1,0.5
			c0,0.2-0.1,0.3-0.2,0.5c0,0,0,0,0,0.1c0,0,0,0,0,0c0,0.1-0.1,0.3-0.1,0.4c0,0.1-0.1,0.3-0.1,0.4l-0.3,0.9h-8.9
			c0-1.2-0.1-2.4-0.1-3.6c0-1.2,0-2.3,0-3.5c0-1,0-2.1,0-3.1C95.6,273.7,95.6,272.7,95.6,271.6L95.6,271.6z M103.3,273.4
			C103.4,273.4,103.4,273.3,103.3,273.4c0.1-0.1,0.1-0.1,0.1-0.1c0,0,0,0,0-0.1c0,0,0-0.1-0.1-0.1c0,0,0,0-0.1-0.1c0,0,0,0,0-0.1
			c-0.4,0-0.8,0-1.2,0c-0.4,0-0.8,0-1.2,0c-0.6,0-1.2,0-1.8,0c-0.6,0-1.2,0-1.8,0c0,0.7,0,1.4,0,2.2c0,0.8,0,1.5,0,2.3
			c0,0.1,0,0.1,0,0.2c0,0.1,0,0.1,0,0.2c0,1.1,0,2.1,0,3.1c0,1,0.1,1.9,0.1,2.7c0.5,0,1,0,1.5,0.1c0.5,0,1,0,1.5,0c0.5,0,1,0,1.4,0
			c0.5,0,1,0,1.4-0.1c0,0,0-0.1,0-0.1c0,0,0-0.1,0-0.1c0,0,0-0.1-0.1-0.1c0,0,0-0.1-0.1-0.1c0,0,0,0,0,0s0,0,0,0c-0.3,0-0.6,0-0.9,0
			c-0.3,0-0.6,0-0.9,0c-0.1,0-0.3,0-0.5,0c-0.1,0-0.3,0-0.4,0c-0.4,0-0.8,0-1.3,0c-0.4,0-0.9,0-1.3-0.1c0-0.5,0-0.9-0.1-1.4
			c0-0.5,0-0.9,0-1.3c0-0.3,0-0.7,0-1c0-0.3,0-0.7,0.1-1c0.4,0,0.7,0,1-0.1c0.3,0,0.7,0,1,0c0.2,0,0.5,0,0.7,0c0.3,0,0.5,0,0.8,0
			c0.2,0,0.5,0,0.8,0c0.3,0,0.5,0,0.8,0c0-0.1,0-0.1,0-0.2c0,0-0.1-0.1-0.1-0.1c0,0,0,0,0,0c0,0,0,0,0,0h-4.9c0,0,0-0.1,0-0.3
			c0-0.2,0-0.5-0.1-0.8c0-0.2,0-0.4-0.1-0.7c0-0.2,0-0.5,0-0.7c0-0.1,0-0.3,0-0.4c0-0.1,0-0.3,0-0.4c0-0.3,0-0.5,0-0.8
			c0-0.2,0.1-0.4,0.1-0.6L103.3,273.4L103.3,273.4z"/>
		<path id="path992" inkscape:connector-curvature="0" class="st0" d="M115.6,271.3c0.1,0,0.4,0.7,0.8,1.9c0.5,1.2,1,2.6,1.5,4.2
			c0,0.1,0.1,0.2,0.1,0.3c0,0.1,0.1,0.2,0.1,0.3c0.6,1.6,1,3,1.5,4.3c0.4,1.3,0.7,2.1,0.7,2.4h-4.2c-0.1-0.1-0.2-0.2-0.3-0.4
			c-0.1-0.1-0.1-0.3-0.2-0.4c-0.1-0.3-0.2-0.5-0.3-0.8c0-0.2-0.1-0.4-0.1-0.4c-0.2,0-0.5,0.1-0.8,0.1c-0.3,0-0.6,0-0.9,0
			c0,0,0,0-0.1,0c0,0,0,0-0.1,0c-0.2,0-0.4,0-0.6,0c-0.2,0-0.4,0-0.5,0c-0.2,0-0.4,0-0.6,0c-0.2,0-0.3,0-0.5,0c0,0-0.1,0-0.1,0
			c0,0-0.1,0-0.1,0c0,0.1-0.1,0.2-0.1,0.4c0,0.2-0.1,0.3-0.1,0.5c-0.1,0.3-0.1,0.5-0.2,0.7c-0.1,0.2-0.2,0.3-0.3,0.3l-3.8-0.1
			c0,0,0,0,0-0.1c0,0,0-0.1,0-0.1c0-0.4,0.3-1.3,0.8-2.8c0.6-1.5,1.2-3.1,1.9-4.8c0.4-1.1,0.8-2.1,1.2-3.1c0.4-1,0.7-1.9,1-2.6
			c0.2,0,0.4,0,0.7,0c0.3,0,0.6,0,1,0c0,0,0.1,0,0.1,0c0,0,0.1,0,0.1,0c0.2,0,0.4,0,0.6,0c0.2,0,0.4,0,0.6,0c0.2,0,0.4,0,0.6,0
			C115.4,271.3,115.5,271.3,115.6,271.3C115.6,271.3,115.6,271.3,115.6,271.3C115.6,271.3,115.6,271.3,115.6,271.3L115.6,271.3z
			 M114.2,273.1c-0.1,0-0.2-0.1-0.4-0.1c-0.1,0-0.2,0-0.3,0c-0.1,0-0.2,0-0.3,0c-0.1,0-0.2,0-0.3-0.1c0,0.1-0.1,0.2-0.1,0.3
			c0,0.1-0.1,0.2-0.1,0.3c-0.7,1.6-1.3,3.2-2,4.8c-0.6,1.6-1.2,3.2-1.8,4.8c0,0,0,0,0,0c0,0,0,0,0,0c0,0,0.1,0,0.1,0
			c0,0,0,0,0.1,0.1c0,0,0,0,0,0c0,0,0,0,0,0c0,0,0,0,0,0c0,0,0-0.1,0.1-0.2c0-0.1,0.1-0.2,0.1-0.3c0.1-0.2,0.1-0.3,0.2-0.5
			c0,0,0-0.1,0-0.1c0,0,0-0.1,0-0.1c0.1-0.2,0.1-0.3,0.2-0.4c0.1-0.1,0.1-0.2,0.2-0.3l7-0.1c0,0,0,0.1,0.1,0.2
			c0.1,0.1,0.2,0.3,0.3,0.5c0,0.1,0.1,0.2,0.1,0.3c0,0.1,0.1,0.2,0.1,0.3c0,0.1,0,0.2,0.1,0.3c0,0.1,0,0.2,0.1,0.2
			c0.1,0,0.1,0.1,0.2,0.1c0.1,0,0.1-0.1,0.2-0.2c-0.4-1.1-0.8-2.3-1.3-3.4c-0.4-1.1-0.9-2.3-1.4-3.4c-0.2-0.5-0.4-1-0.6-1.5
			C114.6,274.2,114.4,273.7,114.2,273.1L114.2,273.1z M113.9,273.5l2.9,7.6h-6.6c0.1-0.4,0.3-0.9,0.5-1.4c0.2-0.5,0.4-1.1,0.6-1.7
			c0-0.1,0-0.1,0.1-0.2c0-0.1,0.1-0.1,0.1-0.2c0.4-1,0.8-1.9,1.1-2.7c0.3-0.8,0.5-1.2,0.5-1.2c0-0.1,0.1-0.2,0.1-0.2
			c0.1,0,0.1,0,0.2,0c0,0,0,0,0.1,0c0,0,0,0,0.1,0c0,0,0.1,0,0.1,0c0,0,0.1,0,0.1,0C113.8,273.5,113.8,273.5,113.9,273.5
			C113.9,273.5,113.9,273.5,113.9,273.5L113.9,273.5z M114.6,280c0-0.2-0.1-0.4-0.1-0.5c0-0.2-0.1-0.4-0.2-0.6
			c-0.1-0.3-0.2-0.6-0.4-0.9c-0.1-0.3-0.3-0.6-0.5-0.8c-0.1,0.1-0.1,0.3-0.2,0.4c-0.1,0.1-0.1,0.2-0.2,0.4c-0.2,0.3-0.4,0.7-0.5,1
			c-0.1,0.3-0.2,0.7-0.2,1.1c0.1,0,0.1,0,0.2,0c0.1,0,0.1,0,0.2,0c0.1,0,0.2,0,0.3,0c0.1,0,0.2,0,0.3,0c0,0,0.1,0,0.1,0
			c0.1,0,0.1,0,0.2,0c0,0,0.1,0,0.1,0c0,0,0.1,0,0.1,0c0.1,0,0.2,0,0.3,0C114.4,280.1,114.5,280,114.6,280L114.6,280z"/>
		<path id="path989" inkscape:connector-curvature="0" class="st0" d="M130.9,271.5c0,0.4-0.1,0.8-0.2,1.1c-0.1,0.4-0.2,0.8-0.3,1.1
			c-0.1,0.3-0.2,0.6-0.2,0.9c-0.1,0.3-0.1,0.6-0.2,0.9c-0.2,0-0.3,0-0.5,0c-0.2,0-0.3-0.1-0.5-0.1c-0.2,0-0.3-0.1-0.5-0.1
			c-0.2,0-0.4-0.1-0.5-0.1c-0.1,0-0.1,0-0.2,0c-0.1,0-0.1,0-0.2,0c-0.1,0.8-0.1,1.5-0.2,2.2c0,0.7-0.1,1.4-0.1,2.2
			c0,0.5,0,1.1,0,1.7c0,0.6,0,1.1,0.1,1.7l0.2,1.8H123l-0.2-0.2c0.1-0.6,0.1-1.2,0.2-1.8c0.1-0.6,0.1-1.2,0.2-1.8
			c0-0.6,0.1-1.2,0.1-1.7s0-1.2,0-1.8c0-0.4,0-0.9,0-1.3c0-0.4,0-0.9-0.1-1.3c-0.1,0-0.1,0-0.2-0.1c-0.1,0-0.1,0-0.2,0
			c-0.1,0-0.1,0-0.2,0c-0.1,0-0.1,0-0.2,0c-0.2,0-0.4,0-0.6,0c-0.2,0-0.4,0-0.5,0.1c-0.2,0-0.4,0.1-0.5,0.1c-0.2,0-0.3,0-0.5,0
			c-0.1,0-0.1,0-0.2,0c-0.1,0-0.1,0-0.2,0c0.1-0.2,0.1-0.4,0.2-0.5c0-0.2,0.1-0.4,0.2-0.5c0,0,0,0,0,0c0,0,0,0,0,0
			c0.1-0.5,0.3-0.9,0.4-1.4c0.1-0.5,0.3-0.9,0.5-1.4c0.7,0.1,1.5,0.2,2.2,0.2c0.8,0,1.5,0.1,2.3,0.1c0.3,0,0.6,0,1,0
			c0.3,0,0.7,0,1,0c0.1,0,0.2,0,0.3,0c0.1,0,0.2,0,0.3,0c0.4,0,0.9,0,1.3,0S130.4,271.5,130.9,271.5L130.9,271.5z M129,273l-5.9,0
			c0,0-0.1,0.1-0.2,0.1c-0.1,0-0.1,0-0.2,0c0,0,0,0-0.1,0c0,0,0,0,0,0c-0.1,0-0.3,0.1-0.4,0.1c-0.1,0-0.2,0.1-0.2,0.3c0,0,0,0,0,0
			c0,0,0,0,0,0s0,0,0,0l0,0c0.1,0,0.3,0,0.5,0.1c0.2,0,0.3,0,0.5,0c0.1,0,0.2,0,0.3,0c0.1,0,0.2,0,0.3,0c0.1,0,0.2,0,0.3,0
			c0.1,0,0.2,0,0.3,0c0.2,0,0.3,0,0.5,0c0.2,0,0.3,0,0.4,0.1v9.6l0.6,0l0-9.4l0.1-0.2h2.7L129,273L129,273z"/>
		<path id="path980" inkscape:connector-curvature="0" class="st0" d="M51.6,275.8c0.4,0,0.7,0.1,1.1,0.1c0.4,0,0.8,0,1.2,0
			c0,0,0,0,0,0c0,0,0,0,0,0c0.1,0,0.1,0,0.2,0c0.1,0,0.1,0,0.2,0c0.2,0,0.5,0,0.7,0c0.2,0,0.5,0,0.7,0l0.2,1.9c-0.1,0-0.2,0-0.3,0
			c-0.1,0-0.2,0-0.3,0c-0.2,0-0.5-0.1-0.7-0.1c-0.3,0-0.5-0.1-0.8-0.1c-0.1,0-0.2,0-0.3,0c-0.1,0-0.2,0-0.3,0c0,0.1,0,0.1-0.1,0.2
			c0,0.1,0,0.1,0,0.2c0,0,0,0.1,0,0.1c0,0,0,0.1,0,0.1c0,0.1,0,0.1,0,0.2c0,0,0,0.1,0,0.1c0.2,0,0.3,0.1,0.5,0.1c0.2,0,0.4,0,0.5,0
			c0.1,0,0.1,0,0.2,0c0.1,0,0.1,0,0.2,0c0,0,0.1,0,0.1,0c0,0,0.1,0,0.1,0c0.1,0,0.2,0,0.3,0c0.1,0,0.2,0,0.3,0c0,0,0.1,0,0.1,0
			c0,0,0.1,0,0.1,0c0,0.1,0,0.3,0.1,0.4c0,0.1,0,0.3,0,0.4c0,0.1,0,0.1,0,0.2c0,0.1,0,0.1,0,0.2c0,0.1,0,0.2,0,0.3
			c0,0.1,0,0.2,0,0.3l-0.1,0.1c-0.2,0-0.4-0.1-0.6-0.1c-0.2,0-0.4,0-0.6,0c-0.1,0-0.1,0-0.2,0c-0.1,0-0.1,0-0.2,0
			c-0.1,0-0.2,0-0.3,0c-0.1,0-0.2,0-0.3,0l-0.1,0.1l0.1,1.7c-0.1,0-0.2,0-0.3,0c-0.1,0-0.2,0-0.3,0c-0.1,0-0.1,0-0.2,0
			c-0.1,0-0.1,0-0.2,0c-0.2,0-0.4,0-0.5,0c-0.2,0-0.3,0-0.5-0.1l-0.1-0.2c0-0.5,0-1,0.1-1.5c0-0.5,0-0.9,0-1.4c0-0.5,0-0.9,0-1.4
			c0-0.5,0-1-0.1-1.5L51.6,275.8L51.6,275.8z M55.1,276.8v-0.1c-0.2,0-0.4,0-0.6,0c-0.2,0-0.4,0-0.6,0c-0.3,0-0.5,0-0.8,0
			c-0.3,0-0.5,0-0.8,0c0,0.3,0,0.6,0,1c0,0.3,0,0.7,0,1c0,0.1,0,0.2,0,0.3c0,0.1,0,0.2,0,0.3c0,0.3,0,0.6,0,0.9c0,0.3,0,0.6,0,0.9
			c0,0,0,0,0,0c0,0,0,0,0,0c0,0,0,0,0,0c0,0,0,0,0,0c0,0,0,0,0,0c0,0,0,0,0,0c0,0,0,0,0,0c0,0,0,0,0,0c0-0.1,0-0.2,0-0.3
			c0-0.1,0-0.2,0-0.3c0,0,0-0.1,0-0.1c0,0,0-0.1,0-0.1c0-0.1,0-0.2,0-0.4c0-0.1,0-0.2,0-0.3c0,0,0-0.1,0-0.1c0,0,0-0.1,0-0.1
			l0.1-0.1l2.3,0v-0.1c-0.2,0-0.3,0-0.5,0c-0.2,0-0.4,0-0.5,0c-0.1,0-0.2,0-0.3,0c-0.1,0-0.2,0-0.3,0c-0.1,0-0.3,0-0.4,0
			c-0.1,0-0.3,0-0.4,0v-2.4L55.1,276.8L55.1,276.8z"/>
		<path id="path977" inkscape:connector-curvature="0" class="st0" d="M47.2,275.3c-0.2,0-0.5,0-0.7,0.1c-0.2,0-0.5,0.1-0.7,0.1
			c-0.4,0.2-0.8,0.5-1.1,0.9c-0.3,0.4-0.5,0.8-0.7,1.3c0,0.1-0.1,0.3-0.1,0.4c0,0.1,0,0.3,0,0.5v0v0c0,0.4,0.1,0.8,0.2,1.2
			c0.1,0.4,0.3,0.7,0.6,1c0.4,0.5,0.9,0.9,1.4,1c0.6,0.1,1.2,0.2,1.8,0.2c0.5-0.1,0.9-0.3,1.3-0.6s0.7-0.7,1-1.2c0,0,0,0,0,0
			c0,0,0,0,0-0.1c0.1-0.2,0.1-0.4,0.2-0.7c0.1-0.2,0.1-0.5,0.1-0.7c0-0.1,0-0.2,0-0.2c0-0.1,0-0.2,0-0.2c0-0.3,0-0.6-0.1-0.8
			c-0.1-0.3-0.2-0.5-0.4-0.7c-0.3-0.6-0.7-1-1.2-1.2c-0.5-0.2-1-0.3-1.5-0.3h-0.1H47.2z M47.2,276.1c0.1,0,0.2,0,0.3,0
			c0.1,0,0.2,0,0.3,0c0.3,0.1,0.6,0.2,0.8,0.3c0.3,0.2,0.5,0.4,0.7,0.6c0.2,0.2,0.3,0.5,0.4,0.7c0.1,0.3,0.1,0.6,0.1,0.8
			c0,0.2,0,0.3,0,0.5c0,0.2,0,0.3-0.1,0.5c-0.2,0.5-0.6,0.9-1,1.2c-0.4,0.3-0.9,0.4-1.4,0.4h-0.1c0,0-0.1,0-0.1,0
			c-0.5-0.1-0.9-0.3-1.3-0.6c-0.4-0.3-0.7-0.7-0.8-1.2c0,0,0-0.1,0-0.1c0-0.1,0-0.1,0-0.2c0,0,0-0.1,0-0.1v-0.2
			c0-0.4,0.1-0.8,0.2-1.2c0.2-0.4,0.4-0.7,0.7-0.9c0.2-0.2,0.4-0.3,0.7-0.4C46.7,276.2,47,276.1,47.2,276.1z M47.4,276.3
			C47.4,276.4,47.4,276.4,47.4,276.3c0,0.1,0,0.1,0.1,0.2c0,0.2,0.1,0.4,0.2,0.6s0.1,0.4,0.2,0.6c0,0.1,0,0.1,0.1,0.2c0,0,0,0,0,0
			c0,0,0,0,0,0c0,0,0.1,0,0.2,0c0.2,0,0.4,0,0.6,0c0.2,0,0.4,0,0.6,0c0.1,0,0.1,0,0.2,0c0,0,0,0,0,0c-0.1-0.2-0.2-0.5-0.3-0.7
			c0,0,0,0,0,0c0,0,0,0,0,0c-0.2-0.2-0.4-0.3-0.6-0.5c-0.2-0.1-0.5-0.2-0.7-0.3c-0.1,0-0.1,0-0.2,0
			C47.5,276.4,47.5,276.4,47.4,276.3C47.4,276.4,47.4,276.3,47.4,276.3L47.4,276.3z M47.2,276.4c-0.3,0-0.7,0.1-0.9,0.3
			c-0.3,0.2-0.6,0.4-0.8,0.8c-0.1,0.1-0.2,0.3-0.2,0.5c0,0,0.1,0,0.1,0c0.2,0,0.4,0,0.6,0c0.2,0,0.4,0,0.6,0c0.1,0,0.1,0,0.2,0
			c0,0,0,0,0,0c0,0,0,0,0,0c0,0,0-0.1,0.1-0.2c0-0.2,0.1-0.4,0.2-0.6C47.1,276.9,47.1,276.6,47.2,276.4
			C47.2,276.4,47.2,276.4,47.2,276.4L47.2,276.4z M49.5,278C49.5,278,49.5,278,49.5,278c0,0-0.1,0.1-0.2,0.1
			c-0.1,0.1-0.3,0.2-0.5,0.3s-0.4,0.2-0.5,0.3c-0.1,0-0.1,0.1-0.2,0.1c0,0,0,0,0,0c0,0,0,0,0,0c0,0,0,0.1,0.1,0.2
			c0.1,0.2,0.1,0.4,0.2,0.6c0.1,0.2,0.1,0.4,0.2,0.6c0,0.1,0,0.1,0.1,0.2c0,0,0,0,0,0.1c0,0,0.1-0.1,0.1-0.1c0.3-0.3,0.6-0.6,0.7-1
			c0,0,0-0.1,0-0.1c0-0.1,0-0.1,0-0.2c0,0,0-0.1,0-0.1c0-0.1,0-0.1,0-0.2C49.6,278.5,49.6,278.3,49.5,278L49.5,278z M45.2,278.1
			c0,0.2-0.1,0.4-0.1,0.5c0,0,0,0.1,0,0.1v0.1c0,0.2,0,0.3,0,0.5c0,0.2,0.1,0.3,0.2,0.4c0.2,0.3,0.4,0.6,0.6,0.8c0,0,0-0.1,0.1-0.2
			c0.1-0.2,0.1-0.4,0.2-0.6c0.1-0.2,0.1-0.4,0.2-0.6c0-0.1,0-0.1,0.1-0.2c0,0,0,0,0,0c0,0,0,0,0,0c0,0-0.1-0.1-0.2-0.1
			c-0.1-0.1-0.3-0.2-0.5-0.3C45.6,278.3,45.4,278.2,45.2,278.1C45.2,278.1,45.2,278.1,45.2,278.1L45.2,278.1z M47.3,279.6
			C47.3,279.6,47.3,279.6,47.3,279.6c-0.1,0.1-0.1,0.1-0.2,0.1c-0.1,0.1-0.3,0.2-0.5,0.4s-0.3,0.3-0.5,0.4c-0.1,0-0.1,0.1-0.1,0.1
			c0,0,0.1,0,0.1,0.1c0.4,0.2,0.7,0.3,1.1,0.4c0,0,0.1,0,0.1,0h0.1h0h0h0h0c0,0,0.1,0,0.1,0c0,0,0.1,0,0.1,0
			c0.3-0.1,0.6-0.2,0.9-0.3c0,0,0,0,0,0c0,0-0.1-0.1-0.2-0.1c-0.1-0.1-0.3-0.2-0.5-0.4c-0.2-0.1-0.3-0.3-0.5-0.4
			C47.4,279.7,47.4,279.6,47.3,279.6C47.3,279.6,47.3,279.6,47.3,279.6L47.3,279.6z"/>
		<path id="path1001-7-9-9-4" inkscape:connector-curvature="0" sodipodi:nodetypes="ccc" class="st0" d="M42.2,281.4
			c0.4-0.2,0.3-3.9,0.1-5C41.9,277.4,42,281.1,42.2,281.4z"/>
		<path id="path1001-7-9-9-4-8" inkscape:connector-curvature="0" sodipodi:nodetypes="ccc" class="st0" d="M58.4,276.4
			c-0.4,0.2-0.3,3.9-0.1,5C58.7,280.4,58.6,276.6,58.4,276.4z"/>
	</g>
</g>
</svg>
