<?xml version="1.0" encoding="UTF-8"?>
<svg id="_레이어_1" data-name="레이어 1" xmlns="http://www.w3.org/2000/svg" version="1.1" xmlns:svg="http://www.w3.org/2000/svg" viewBox="0 0 1033.1 565">
  <defs>
    <style>
      .cls-1 {
        fill: #fff;
        stroke-width: 0px;
      }
    </style>
  </defs>
  <path class="cls-1" d="M945,304.4h0s-4.8,0-4.8,0c-1.2,0-2.3.4-3.3,1.4-1.3,1.3-1.5,3.1-1.2,4.8,3.9,20.6,5.9,40.7,6.5,59.7h-59.8c-1.4,0-2.5.5-3.4,1.4-.9.9-1.5,2.1-1.5,4.1v17.2c0,3.4,2.4,5.3,5.2,5.3h59.4c-.4,13.1-1.5,25.4-2.9,36.5-1.1,8.4-2.3,16.4-3.7,23.5-.3,2.1.3,3.4,1.3,4.5,1.2,1.2,2.6,1.5,4.2,1.5h5.9s9.2,0,9.2,0c2.4,0,4.1-1.1,5.1-2.2,1.5-1.6,1.8-3.3,2-4.2,1.2-7,2.4-14.7,3.3-22.9,1.3-11.1,2.2-23.4,2.7-36.6h58.6c2.8,0,5.2-1.9,5.2-5.3v-17.2c0-1.9-.6-3.1-1.5-4.1-.9-.9-2-1.4-3.4-1.4h-58.9c-.4-11.3-1.2-23.1-2.5-35.1-.9-8.1-2.1-16.3-3.5-24.6-.3-1.7-.9-3.4-2.6-4.7-1.1-.9-2.7-1.5-3.8-1.5h-8s0,0,0,0h-1.6s-2.2,0-2.2,0Z"/>
  <path class="cls-1" d="M549.9,0c-38.8,0-76.7,4.8-113.3,13.9-30.6,7.7-59.9,18.5-87.6,32.1-10.3,5.1-19.9,10.3-29.1,15.8-17.9,10.6-34.2,22-49.5,34.4-11.8,9.6-22.5,19.3-31.8,28.4-6.2,6.1-11.9,12.1-17.8,18.7-.5.6-1.1,1.2-1.6,1.8-.9,1.1-2.1,2.7-1.5,4.9.2.7.6,1.4,1.1,1.9,1,.9,2.2,1.1,3.3,1,1.3,0,2.7-.9,3.5-1.5.5-.4,1.1-.9,1.6-1.4,1.8-1.9,3.5-3.7,5.3-5.6,3.2-3.3,6.4-6.5,9.8-9.8,12.6-12.2,28.4-25.6,45.6-37.8,9.3-6.6,19.1-13,29.7-19.3,8.7-5.1,25.2-14.3,46-23.3,18.4-7.9,36.3-14.1,53.1-18.9,12.1-3.4,24.7-6.5,37.4-8.9,11.2-2.2,22.6-3.9,34.1-5.2,17.6-2,35.1-3,52.7-3,40.7,0,82.3,5.5,122.2,16.7,14.4,4,28.5,8.8,42.2,14.2,17.8,7,34.1,14.7,51.6,24.5,32.2,18,60.9,40,86.7,66.1,12.6,12.7,23.4,25.4,32.8,37.9,11.7,15.6,21.1,30.7,28.6,44.5,4.8,8.8,8.8,17.1,12,24.4,6.9,15.3,10.9,27.8,10.9,27.8.4,1.2.8,1.7,1.3,2.5,1.2,1.7,3.2,2.6,5.3,2.6h16.6c1.3,0,1.8-.3,2.5-.7.6-.4,1.5-1.2,1.9-2.1.5-1.1.6-2.5.2-3.8-6-17.9-14.2-36.7-23.9-54.8-15.1-28.1-38-62.6-71.3-95.3-29.5-28.9-59.2-49.3-84-63.5-30.8-17.7-63.5-31.5-98.2-41.4C636.5,6,593.1,0,549.9,0Z"/>
  <path class="cls-1" d="M473.5,382.4c.6,0,.7.1,1.3.2,6.4.9,11.4,1.8,15.9,2.9,5.2,1.3,9.6,3,12.8,4.7,2.4,1.4,4.4,2.8,6,4.4.9.9,1.7,1.9,2.5,3,1.1,1.6,2.7,4.5,3.5,6.3.7,1.5,1.1,2.7,1.2,3.1.8,2.3,1.3,4.8,1.7,7.3.5,4.2.5,8.1-.1,11.9-.6,3.8-1.9,9.5-6.4,15.5-3.8,5.1-9.1,9.1-15.3,12.1-7.5,3.6-15.4,5.4-23.3,6.3-14.8,1.6-30.9-1.3-44.2-7.9-4.2-2.1-7.9-4.3-11.2-6.8-3.2-2.4-6.3-5.1-8.6-8.2-3.6-4.9-5-9.3-4.9-13.6,0-4.1,1.3-7.9,3.3-10.7,2.3-3.4,6-5.9,10.1-7.6,7.1-2.9,15.7-3.7,22.8-3.5,8.5.3,23.8,3,31.9,5.8,2.2.8,10.5,4,11.9,5.5,1,1,1.7,2.5,1.2,3.9-1.9,5.7-15.6,8.6-19.5,9.2-10.6,1.6-16.2-2.4-28.3-7.1-3-1.2-7-2.5-10-2.8-3-.3-6.5,0-9.1,1.5-2.7,1.4-4.1,3.8-4,6.4,0,2.4,1.9,4.6,5.9,6.3,1.8.8,3.4,1.4,5.1,1.9,4.3,1.4,8.4,1.9,13,2,9.1.2,18.6-.5,27.9-2.4,10-2.1,19.5-5.6,27.5-11.3,2.1-1.5,4.2-3.7,4.2-6.5,0-5.6-9.7-9-9.7-9-8.7-3.6-23.2-5.5-33.7-6.6-2.1-.2-4-.4-5.6-.6-1.9-.2-4.1-.4-6.2-.5-1.6-.1-3.1-.2-4.9-.4-1.7-.1-3.9-.3-5.5-.4-3.6-.3-6.9-.6-9.4-.9-1.3-.1-4.6-.5-8.1-1.1-2.4-.4-4.8-.9-7.1-1.8-2.2-.9-4.3-2.3-6.1-4.1-1.5-1.6-2.7-3.5-3.1-5.5-1.8-7,.5-15.7,4.4-21.4,10.3-14.8,34.4-20.4,52.3-22.6,17.4-2.2,45.5-2.2,62.6,6.9,2.6,1.4,4,2.7,3.4,5.5-1.1,5.3-5.1,8.7-9.9,10.2-5,1.6-15.5,2.2-20.1,2.5-20.6,1.2-45.5.5-65.2,5.9-1.5.4-4.2,1.2-5,2.1-1.6,1.8,0,2.9,2.3,3.6,1.6.5,3.7.9,6.6,1.3l43.4,5.1Z"/>
  <path class="cls-1" d="M625.5,438.2c-3.8,9-14,18.7-26.5,12.7-12.4-6-32.2-46.5-32.2-46.5,0,0-7.5-15.1-8.9-14.7,0,0-1.6-2.9-2.6,13.6-1,16.4.2,48.5-6.4,53.5-6.2,5-13.7,3-17.6-2.9-3.5-5.8-5-19.7-3.1-43.9,2.3-24.3,7.9-50.2,15.2-58.3,7.2-8,13-2.2,15.2,0,0,0,9.6,8.8,25.6,34.4l2.8,4.8s14.5,24.3,16,24.2c0,0,1.2,1.1,2.2.3,1.5-.4.9-8.2.9-8.2,0,0-3-26.4-16.2-71.2,0,0-2-5.6-.7-10.8,1.3-5.3,6.6-2.8,6.6-2.8,0,0,20.4,10.3,30.4,43.6,9.9,33.3,3.2,63.3-.7,72.4"/>
  <path class="cls-1" d="M739.4,365.3c-14.5,3.3-52.5,5.2-52.5,5.2l-4.8,15s19-1.6,32.8-.2c0,0,4.5-.5,5,5.1.2,5.2-.4,10.8-.4,10.8,0,0-.3,3.4-5.1,4.3-5.2.9-41,2.3-41,2.3l-5.8,19.6s-2.2,4.5,2.7,3.2c4.5-1.2,41.9-8.2,46.8-7.2,5.3,1.3,11,8.3,9.4,14.6-2,7.9-39.4,31.7-62.1,30.1,0,0-12,.8-22.1-15.4-9.4-15.4,3.6-44.6,3.6-44.6,0,0-5.9-13.6-1.6-18.2,0,0,2.6-2.3,10.1-2.8l9.1-19s-10.4.7-16.6-7c-5.8-7.3-6.3-10.6-1.8-12.6,4.7-2.3,48.2-10.3,78.1-9.3,0,0,10.4-1,19.4,17,0,0,4.4,7.3-3.1,9"/>
  <path class="cls-1" d="M837.7,375.5s-.1-1.1-.7-2.2c-1.1-2.3-4.1-4.7-11.2,3.3-9,10-25.3,28.7-38.4,54.1,13.8-1.6,27-9,31-12.8,3.8-3.4,10.7-10.3,15.2-19.6,2.5-5.2,4.2-11.1,4.3-17.6,0-1.7,0-3.4-.3-5.2M845,418.3c-9.3,16.2-35.6,50.2-70.5,42.2-4.3,10.4-8.3,20.8-12,32-6.2,18.9-11.3,39.9-14.8,66.5,0,0-1.2,8.2-8,5.4-5.4-1.9-13.5-9.3-17.7-20.1-1.1-2.8-1.9-5.8-2.4-9-.6-5.1-.5-11.1.3-17.8,1.4-12,5-26.3,10.6-42.2,3.9-10.9,8.7-22.6,14.4-34.8-5.4-8.8-9.1-21.4-6-39.4,0,0,1.5-11,9.2-26,5.7-11.2,14.7-24.6,29-37.4,0,0,4-3.5,6.3-2.4,2.6,1.1,1.4,11.9-.6,17.2-2.1,5.3-17,31.1-17,31.1,0,0-9.3,17.4-6.7,31.2,8.2-12.5,21.1-31,35.2-45.5,12.1-12.5,25.1-22,36.4-22.1,6.6,0,13.1,3.1,17.5,11.3,3.6,6.6,5.3,15.5,5.3,24.8s-2.9,25.3-8.4,35"/>
  <path class="cls-1" d="M360.7,318.8s-2.7,4.8-3.3,5.7c-.3.5-1.3,1.8-2.5,2.8-.9.8-1.9,1.3-3.2,1.5-1.4.1-2.7-.4-4.2-1.6-3.5-3.2-5.6-8-5.7-12.7,0-2.1.3-4.4-.1-6.1-.3-1.5-1.3-3.1-2.4-4.7-1-1.4-2-2.8-2.8-4.1-.7-1.2-1.2-2.4-1.6-3.5-1.4-3.5-1.8-6.6-1.9-9.4-.6-11.6,5.5-22.4,13.5-30.8,8-8.6,18.4-15.6,29.8-20.4,10.8-4.5,26.7-7.6,38.5-3.5,3.9,1.3,9.2,4.6,11.9,8,.6.7,1.1,1.5,1.6,1.9.5.3,1.9.5,3,.7,3.8.7,9.2,3.5,11.5,5.4,4.4,3.9,6.9,7.5,8,12.9,1.1,5,.2,10.7-1.8,15.8-2.1,5.4-5.5,10.3-9.1,14-12.1,12.4-24,21-39.4,27.1-4.9,1.9-11.5,3.5-16.7,4.1-2.7.3-5.3.4-7.7.3-2.7-.1-5.4-.5-7.7-.9,0,0-5.7-1.2-7.5-2.3h0ZM386.3,300c6.2-.6,11.5-1.7,16.5-3.3,2.7-.8,5.4-1.9,8-3.2,5.7-2.8,11.5-6.8,15.3-10.1,2-1.8,3.7-3.6,5-5.4,2.7-3.6,4.3-7.6,3.8-11.9-.4-3.6-2.8-6.3-5.7-7.5-6.6-2.9-14,.5-19.3,3.6-3.9,2.2-9.7,6.6-15.1,11.2-6.4,5.5-12.6,11.7-16.4,16.7-2.2,3-4.4,5.9-6.4,9,.3.9,7.5,1.3,11.5,1M350.9,290.4c2.1-3.3,4.5-6.6,6.9-9.6,2.6-3.4,7.1-8.5,8.9-10.4,3.9-4.2,8.1-8.2,11.7-11.3,2.2-1.8,4.6-3.9,4.6-3.9,0,0-1.7,0-4,.5-1.1.2-3,.7-4.5,1.3-1.9.7-3.4,1.3-4.8,2-4.3,2.2-8,5.1-9.7,6.6-3.2,2.8-6.6,6.4-8.8,10.3-1.3,2.3-2.1,4.7-2.3,7.1-.1,1.6.1,3.3.8,4.9.5,1.1,1.2,2.5,1.2,2.5"/>
  <path class="cls-1" d="M374.5,342.7c.5,0,1.2.3,1.8.5,5.4,2,7.6,7.1,9,12.6,3.1,12.8,4.4,41,4.9,52.1.4,8.3.6,16.5.9,24.7.3,6.9.9,16.2-.6,22.7-.5,2.3-2.1,5.1-4.4,6.5-2.5,1.7-8.4,1.8-11.6,1.1-7.9-1.6-10.5-6.7-11.6-14.6-2.7-18.7-1.4-55.4.2-70.9.5-5.1,2.4-21.5,5.1-28.4.9-2.3,2.9-7,6.3-6.3"/>
  <path class="cls-1" d="M83.5,207.8c-6.3,0-17.7,0-30.8,1.6-9,1.1-18.4,2.9-27,5.3-4.8,1.3-8.7,2.9-12.2,5.1-3.9,2.6-7.2,6-9.8,10.6-2.4,4.3-4.7,8.9-3.5,13.7,1.1,4,6.5,5.3,11.4,6.1,4.4.7,14.4,1.2,17.1-2,.7-.8,1.1-3,0-4.4-1-1.8-3.5-3-5.9-3.5-2-.4-5.5-.7-7.6-1-1.5-.2-2.2-.5-2.6-.7-.1,0-.2-.1-.3-.2-.1,0-.1-.2-.1-.2,0,0,0-.1.1-.2.1-.1.3-.3.5-.4,1.7-1.1,7.2-2.6,8.5-3,6.2-1.7,15.9-2.8,23.7-3.2,7.8-.4,15.6-.4,22-.2,26,.8,51.2,5,76.4,12.2,13.7,3.9,27.7,8.8,42.5,14.6,20.8,8.2,42.1,19.5,61.8,33.4,17.5,12.3,33,26.2,45.1,41.6,7.3,9.4,16.1,23.6,20.4,37.4,1.5,4.7,2.8,10.1,2.9,16.4.1,6.1-.8,13.2-3.5,20.2-5,13.1-15.5,25.3-32.8,34.3-6.4,3.3-13.7,6.3-22.1,8.6-9,2.6-18.2,4.2-27.5,5.2-10.9,1.2-21.7,1.4-32.8,1.1-1.6,0-4.8-.2-8.5-.6-9.5-.9-18.1-2.3-23-3.3l-1.7-80c12.4.2,26,1.6,38.9,3.9,7.2,1.3,19.3,3.7,34.3,8.5,3,1,6.6,3.2,6.9,6.4.1,1.3-.4,2.5-1.2,3.7-2.2,3-5.9,5.3-9.1,6.8-1.9.9-3.5,1.6-4.3,2.4-.8,1.1-.9,2.7.3,3.6,1.5,1.2,4,2.1,6.4,2.6,12.4,2.8,20.7-2.7,25.5-8,5.2-5.7,6.7-10.2,7.2-14.8.8-8-2.8-14.2-4.6-16.8-4.6-6.4-11.6-10.7-17.2-13.4-12.8-6.1-27.4-9.3-34.9-10.6-9.4-1.7-21.5-3-35.3-3.3-6.5-.1-13,.2-13,.2,0,0-.3-10.9-.7-18.1-.8-11.9-4.1-35.1-14.8-41.8-2-1.2-4.4-1.3-5.8.5-2.1,2.7-4.2,13.1-4.6,15.8-.5,2.6-.9,5.8-1.4,9.2-.7,5.4-1.3,11.4-1.7,16.2-.2,2.7-.8,11.5-.9,20.8-.1.1-.3.3-.5.5,0,0-4.8.7-11,2-20.4,4.1-34.5,9.7-40,12.1-9.9,4.3-24.1,12-28.4,22-1,2.5-1.4,4-1.5,6.6-.3,5.6,1.8,10.5,3.6,13.7,4.7,8.8,14,18.3,21.9,25.4,5.7,5.1,13.9,11.5,20.6,16,5.4,3.7,9.5,6.3,13.3,8.5,4.4,2.6,8.7,4.9,13.1,7,2.4,1.1,5.3,2.6,8,3.9,0,0,.4,3.8.9,8.1.5,4.6,1,9.4,2.9,13.7.7,1.6,1.5,3,2.6,4.2,3.1,3.5,6.6,4.2,8,4.5,3,.5,5.8.2,8.8-.3,1.2-.2,2.5-.7,3.5-1.2,1.6-.8,2.9-2.1,3.8-4,1.3-2.6,1.8-6.8,1.8-7.4.2-2.4,0-5.1,0-5.1,0,0,9.6,2.3,16.2,3.5,10.9,1.9,21.5,3.1,33.9,3.3,15,.2,31.1-1.7,48.3-5.9,10.4-2.5,20.3-5.8,29.9-10.3,9-4.2,17-9.1,23.9-14.8,5.2-4.3,10.7-9.7,15.9-17.2,1.5-2.1,2.8-4.2,3.8-5.9.3-.5,1.1-1.7,2.2-3.6,3.1-5.2,6.9-13.2,8.8-23.4.5-3,.9-6,1.1-9,.7-13-1.9-26.1-7-38.1-1.1-2.8-5.2-12.8-14-25.4-7.6-11-16.5-21.2-25.8-30.5-6.2-6.2-10.9-10.5-18.8-17.2-11.3-9.4-22-16.4-25.3-18.6-10.9-7.2-23.6-14.2-34.7-19.6-17.9-8.7-35.4-15.3-52.8-20.7-6-1.9-11.7-3.5-16.7-4.8-10.4-2.8-26.3-6.6-43-8.7-10.1-1.3-19.9-2-28.1-2.1h0ZM133.3,373.8s-.3,11.8-.3,23.8c0,12.3,0,24.8.2,33.6.1,7.3.2,12.1.2,12.1,0,0-8.5-2.8-12.9-5-8.1-3.5-15.8-7.5-23.1-12.1-9.3-5.8-17.1-11.7-24.4-18.3-1.5-1.3-4.1-3.9-5.4-5.2-3.3-3.3-6.7-6.7-5.9-11.2.6-3.4,8-6.7,10.8-7.5,6.7-1.9,13.5-3.7,20.7-5.1,7.7-1.6,15.1-2.8,20.4-3.4,7.3-1.1,19.7-1.7,19.7-1.7h0Z"/>
</svg>