<?xml version="1.0" encoding="utf-8"?>
<!-- Generator: Adobe Illustrator 28.2.0, SVG Export Plug-In . SVG Version: 6.00 Build 0)  -->
<svg version="1.1"
	 id="svg8" xmlns:cc="http://creativecommons.org/ns#" xmlns:svg="http://www.w3.org/2000/svg" xmlns:dc="http://purl.org/dc/elements/1.1/" xmlns:rdf="http://www.w3.org/1999/02/22-rdf-syntax-ns#"
	 xmlns="http://www.w3.org/2000/svg" xmlns:xlink="http://www.w3.org/1999/xlink" x="0px" y="0px" viewBox="0 0 111.8 22.7"
	 style="enable-background:new 0 0 111.8 22.7;" xml:space="preserve">
<style type="text/css">
	.st0{fill:#FFFFFF;stroke:#0000FF;stroke-width:0.75;stroke-miterlimit:11.3386;stroke-opacity:0;}
	.st1{fill:#FFFFFF;stroke:#0000FF;stroke-width:0.75;stroke-miterlimit:11.3386;stroke-opacity:4.020099e-02;}
	.st2{fill:#FFFFFF;stroke:#0000F0;stroke-width:0.75;stroke-miterlimit:11.3386;stroke-opacity:0;}
	.st3{fill:#FFFFFF;stroke:#0000E7;stroke-width:0.75;stroke-miterlimit:11.3386;stroke-opacity:0;}
</style>
<path id="path904" class="st0" d="M0,1h1.6l0.2,0.1l0.3,0.2l0.2,0.1l0.2,0.2l0,0.4v18.1v0.4l-0.1,0.4l-0.2,0.4l-0.3,0.4l-0.3,0.2
	L1.3,22l-0.7,0.2h5.3l1.5,0.1l2.5,0.2h1.7l3.7-0.6l2.5-1.1l1.6-1.2l1.1-1l0.9-1.2l0.7-1.1l0.5-1.2L23,13l0.3-1.6l-0.4-2.3l-0.7-2.3
	l-0.9-1.5L20,3.6l-2.2-1.3l-2.3-0.8L12.6,1L6,0.8L6.1,2l3.1-0.1L11,2l2.7,0.8l2.2,1.4l1.9,2.1L19.1,9l0.3,2.8l-0.1,2.6L18.8,16
	L18,18l-1.4,1.6l-2.1,1.2l-3.3,0.5H8.6L7.7,21l-1.2-0.9l-0.4-0.6V2.2L6,0.8L0,1L0,1z"/>
<path id="path906" class="st1" d="M42.9,1.6l-1.8,0.2l-1.5,0.5L37.2,4l-1.5,4.2L35.6,12l0.6,2.5l1.4,2.9l2.5,2.7l2.8,1.2l3,0.1
	l2.5-1.1l1.3-1.6l1.2-2.7l0.4-4.8l-1-4.6l-1.9-2.9l-3-1.9c0,0-1.4-0.1-2-0.2s-0.3-1.3-0.3-1.3h2.5l2.5,0.5l2.2,1l1.8,1.4L54,5.5
	l0.7,2.3l0.5,3.4l-0.4,3.3l-1,2.2l-2.9,3.6l-2.5,1.3L45,22.7h-3.1L39,22.2l-2.8-1.6l-2.2-2L33,17l-1.2-3.2l-0.1-3L32,8.6l1.1-2.8
	l2.2-2.9L38.6,1L42,0.4h1.1l0.1,1.3L42.9,1.6z"/>
<path id="path908" class="st0" d="M63.3,0.5l-0.5,1.7l-0.2,1.1l-0.1,0.8l0.3,0.6l0.5-0.9l0.7-1l1-0.5l5.9-0.1v18.1l-0.1,0.4
	l-0.4,0.8L70,21.7l-1.4,0.1v0.5l4.4-0.2l4.6,0.2l0.1-0.4l-2.2-0.2L74.7,21l-0.2-0.8l0.1-18.1h4.5l1.7,0.5l0.7,0.7l0.2,1.3L81.5,5
	l0.4-0.7l-0.2-3.8l-1.5,0.3l-7.5,0.1l-8.2-0.1l-0.9-0.4L63.3,0.5z"/>
<path id="path910" class="st2" d="M90,21.2l-0.8,0.4l-1.7,0.1v0.6l4-0.2l3.2,0.2l0.1-0.7l-1.6-0.1l-0.3-0.4v-0.4l1.1-3.3l4.4-0.1
	l4.4,0.1l1.6,4.1l-0.8,0.4l0.2,0.4l3.8-0.1l3.4,0.1v-0.6l-1.8-0.1l-1.3-1.2l-1.4-2.6l0.3-0.5l2.5-0.6l2.5-0.3v-0.5h-6.1L99,0
	l-6.8,16l2.4-0.1L98.3,6c0,0,3.8,9.4,3.7,9.7c-0.1,0.3-0.2,0.2-0.2,0.2h-7.2L92.2,16L90,21.2z"/>
<path id="path914" class="st3" d="M92.3,15.9l-0.1,0.2l2.4-0.1l0,0l0.1-0.1l-1.1-0.1L92.3,15.9z"/>
</svg>
