<?xml version="1.0" encoding="UTF-8"?>
<svg xmlns="http://www.w3.org/2000/svg" xmlns:xlink="http://www.w3.org/1999/xlink" width="px" height="100px" viewBox="0 0 500 100" version="1.1">
<g id="surface1">
<path style=" stroke:none;fill-rule:nonzero;fill:rgb(99.215686%,99.215686%,99.215686%);fill-opacity:1;" d="M 499.953125 90.296875 C 499.953125 93.191406 499.910156 96.089844 499.980469 98.984375 C 500 99.824219 499.828125 100.113281 498.984375 99.960938 C 498.597656 99.890625 498.183594 99.949219 497.78125 99.949219 L 79.578125 99.949219 C 80.226562 99.023438 81.191406 99.496094 81.992188 99.476562 C 92.574219 99.195312 99.351562 92.480469 99.59375 81.878906 C 99.746094 75.132812 99.851562 68.386719 99.839844 61.640625 C 99.816406 46.789062 99.773438 31.933594 99.597656 17.078125 C 99.523438 10.507812 96.703125 5.316406 90.832031 2.082031 C 89.269531 1.21875 87.511719 0.714844 85.84375 0.0429688 C 223.15625 0.0429688 360.46875 0.046875 497.785156 0 C 499.589844 0 500.007812 0.40625 500 2.214844 C 499.921875 19.671875 499.953125 37.125 499.953125 54.582031 C 499.164062 53.515625 499.289062 52.195312 498.980469 51 C 497.339844 44.671875 493.714844 40.136719 487.15625 38.691406 C 480.242188 37.164062 473.8125 38.113281 469.058594 44 C 467.894531 45.441406 467.546875 44.808594 466.898438 43.832031 C 465.03125 41.019531 462.460938 39.230469 459.125 38.628906 C 452.972656 37.519531 447.148438 37.621094 442.898438 43.339844 C 442.726562 43.085938 442.566406 42.917969 442.484375 42.71875 C 441.191406 39.5 438.75 38.097656 435.601562 38.78125 C 432.164062 39.523438 431.210938 40.863281 431.21875 44.863281 C 431.230469 49.207031 431.226562 53.546875 431.226562 57.890625 C 431.222656 67.703125 431.222656 77.515625 431.21875 87.328125 C 431.21875 89.207031 431.230469 91.132812 433.023438 92.289062 C 435.425781 93.84375 438.007812 93.933594 440.59375 92.730469 C 442.828125 91.695312 443.183594 89.75 443.167969 87.507812 C 443.113281 78.742188 443.105469 69.976562 443.164062 61.210938 C 443.191406 57.585938 443.964844 54.15625 446.933594 51.675781 C 451.511719 47.84375 457.183594 49.582031 458.777344 55.28125 C 459.234375 56.914062 459.476562 58.5625 459.472656 60.273438 C 459.441406 69.441406 459.441406 78.609375 459.464844 87.777344 C 459.476562 91.445312 461.195312 93.273438 464.789062 93.589844 C 468.867188 93.949219 471.261719 91.78125 471.285156 87.519531 C 471.328125 78.914062 471.296875 70.3125 471.289062 61.703125 C 471.285156 58.933594 471.660156 56.253906 473.097656 53.816406 C 474.820312 50.886719 478.101562 49.289062 481.496094 49.792969 C 484.890625 50.292969 486.582031 52.554688 487.371094 55.683594 C 487.789062 57.332031 487.910156 59.007812 487.90625 60.707031 C 487.886719 69.632812 487.875 78.5625 487.890625 87.488281 C 487.902344 91.675781 490.484375 93.917969 494.675781 93.59375 C 497.050781 93.410156 498.6875 92.183594 499.953125 90.296875 Z M 142.800781 51.246094 C 142.683594 51.023438 142.550781 50.882812 142.558594 50.75 C 142.96875 41.191406 142.714844 31.625 142.671875 22.0625 C 142.652344 18.359375 140.582031 16.433594 136.929688 16.402344 C 131.789062 16.355469 126.648438 16.347656 121.507812 16.449219 C 118.238281 16.511719 116.242188 18.511719 116.234375 21.773438 C 116.195312 41.792969 116.199219 61.816406 116.234375 81.835938 C 116.238281 84.941406 118.144531 87.21875 121.15625 87.332031 C 126.367188 87.527344 131.597656 87.53125 136.808594 87.3125 C 138.535156 87.238281 139.105469 87.429688 139.511719 89.210938 C 140.507812 93.558594 144.621094 95.363281 148.167969 93.160156 C 157.058594 87.632812 164.464844 80.710938 168.648438 70.851562 C 169.144531 69.675781 169.5625 69.960938 170.074219 70.746094 C 170.335938 71.148438 170.507812 71.601562 170.738281 72.027344 C 175.054688 80.019531 180.375 87.203125 187.617188 92.8125 C 190.335938 94.917969 193.308594 94.523438 195.421875 91.855469 C 198.074219 88.503906 197.691406 85.488281 194.121094 82.742188 C 187.398438 77.574219 181.929688 71.375 178.183594 63.722656 C 176.824219 60.949219 176.847656 60.941406 179.796875 60.941406 C 184.214844 60.941406 188.632812 60.859375 193.050781 60.964844 C 195.019531 61.011719 196.042969 60.09375 196.570312 58.390625 C 197.230469 56.25 197.324219 54.121094 196.242188 52.066406 C 195.738281 51.113281 195.113281 50.207031 193.902344 50.273438 C 192.394531 50.355469 192.242188 49.574219 192.269531 48.335938 C 192.351562 45.042969 192.402344 41.742188 192.316406 38.449219 C 192.203125 34.039062 192.71875 29.601562 191.933594 25.214844 C 191.410156 22.289062 189.765625 20.703125 186.84375 20.214844 C 183.492188 19.65625 180.09375 19.78125 176.75 19.996094 C 174.496094 20.140625 173.847656 19.488281 174.050781 17.394531 C 174.253906 15.316406 174.019531 13.300781 171.976562 12.140625 C 169.882812 10.953125 167.671875 10.941406 165.523438 12.015625 C 163.542969 13.007812 163.019531 14.8125 163.042969 16.867188 C 163.046875 17.269531 163 17.675781 163.050781 18.070312 C 163.238281 19.480469 162.839844 20.066406 161.242188 19.957031 C 158.847656 19.789062 156.425781 19.910156 154.019531 19.941406 C 148.226562 20.015625 145.972656 22.148438 145.871094 27.941406 C 145.761719 34.292969 145.605469 40.660156 145.925781 46.992188 C 146.066406 49.730469 145.03125 50.695312 142.800781 51.246094 Z M 244.433594 13.769531 C 232.792969 13.769531 221.148438 13.761719 209.503906 13.777344 C 205.558594 13.78125 203.574219 15.632812 203.640625 19.15625 C 203.707031 22.65625 205.492188 24.242188 209.449219 24.25 C 218.445312 24.269531 227.441406 24.339844 236.433594 24.199219 C 238.476562 24.167969 238.339844 25.222656 238.441406 26.535156 C 238.5625 28.074219 237.730469 28.152344 236.507812 28.125 C 233.058594 28.054688 229.601562 28.03125 226.152344 28.136719 C 221.261719 28.285156 218.921875 30.664062 218.90625 35.515625 C 218.871094 47.65625 218.867188 59.796875 218.917969 71.9375 C 218.9375 76.707031 221.511719 79.1875 226.265625 79.195312 C 237.988281 79.207031 249.714844 79.207031 261.4375 79.195312 C 266.714844 79.1875 269.128906 76.8125 269.136719 71.566406 C 269.15625 59.746094 269.160156 47.929688 269.128906 36.109375 C 269.117188 30.492188 266.675781 28.128906 260.992188 28.121094 C 257.617188 28.117188 254.246094 28.09375 250.875 28.179688 C 249.535156 28.210938 249.074219 27.792969 249.03125 26.410156 C 248.976562 24.742188 249.488281 24.210938 251.191406 24.222656 C 260.75 24.292969 270.304688 24.277344 279.859375 24.238281 C 283.296875 24.226562 284.78125 22.789062 284.984375 19.535156 C 285.214844 15.765625 283.425781 13.796875 279.609375 13.785156 C 267.882812 13.761719 256.160156 13.777344 244.433594 13.769531 Z M 243.933594 92.710938 C 253.496094 92.710938 263.054688 92.714844 272.617188 92.710938 C 280.167969 92.707031 283.414062 89.441406 283.421875 81.800781 C 283.433594 67.886719 283.421875 53.96875 283.421875 40.054688 C 283.421875 39.492188 283.4375 38.929688 283.40625 38.367188 C 283.230469 35.125 281.664062 33.558594 278.421875 33.363281 C 274.46875 33.128906 272.492188 35.007812 272.484375 39.109375 C 272.46875 52.21875 272.472656 65.328125 272.480469 78.441406 C 272.480469 82.15625 272.496094 82.15625 268.792969 82.15625 C 252.5625 82.152344 236.335938 82.152344 220.105469 82.140625 C 215.554688 82.140625 215.449219 83.089844 215.445312 77.417969 C 215.4375 64.308594 215.480469 51.199219 215.460938 38.089844 C 215.457031 34.691406 213.632812 32.957031 210.195312 32.875 C 206.910156 32.800781 204.976562 34.417969 204.777344 37.667969 C 204.617188 40.3125 204.664062 42.972656 204.671875 45.628906 C 204.699219 58.253906 204.585938 70.882812 204.859375 83.503906 C 204.996094 89.804688 208.445312 92.699219 214.769531 92.707031 C 224.492188 92.726562 234.210938 92.714844 243.933594 92.714844 Z M 422.023438 66.0625 C 421.917969 63.792969 421.84375 61.554688 421.339844 59.339844 C 416.164062 36.675781 391.332031 32.597656 377.933594 43.558594 C 370.128906 49.945312 367.207031 58.5 367.789062 68.375 C 368.289062 76.816406 371.53125 84.054688 378.425781 89.050781 C 387.699219 95.773438 397.878906 96.457031 407.9375 91.167969 C 417.839844 85.964844 421.765625 76.917969 422.023438 66.0625 Z M 339.558594 38.117188 C 331.144531 38.042969 325.328125 39.808594 320.734375 43.640625 C 312.5 50.507812 309.859375 59.566406 310.921875 69.953125 C 313.097656 91.203125 334.117188 99.085938 349.996094 91.246094 C 354.4375 89.050781 357.820312 85.652344 359.511719 80.859375 C 360.445312 78.222656 359.5625 75.890625 357.242188 74.382812 C 354.097656 72.339844 351.605469 73.046875 349 76.730469 C 343.3125 84.78125 331.085938 84.546875 325.726562 76.277344 C 323.058594 72.164062 322.304688 67.601562 323.117188 62.875 C 324.167969 56.789062 327.136719 51.914062 333.433594 50.199219 C 339.699219 48.492188 345.136719 50.074219 349.234375 55.425781 C 351.164062 57.941406 354.035156 58.324219 356.652344 56.546875 C 359.429688 54.660156 360.15625 52.109375 358.515625 49.261719 C 353.855469 41.175781 346.351562 38.367188 339.558594 38.117188 Z M 299.484375 93.574219 C 303.269531 93.515625 306.710938 89.839844 306.652344 85.917969 C 306.589844 81.699219 303.175781 78.167969 299.25 78.261719 C 295.027344 78.363281 291.703125 81.917969 291.851562 86.167969 C 292 90.398438 295.34375 93.640625 299.484375 93.574219 Z M 299.484375 93.574219 "/>
<path style=" stroke:none;fill-rule:nonzero;fill:rgb(1.176471%,27.45098%,54.117647%);fill-opacity:1;" d="M 85.84375 0.046875 C 87.511719 0.714844 89.269531 1.21875 90.832031 2.082031 C 96.703125 5.316406 99.523438 10.507812 99.597656 17.078125 C 99.773438 31.933594 99.816406 46.789062 99.839844 61.644531 C 99.851562 68.386719 99.746094 75.132812 99.59375 81.878906 C 99.351562 92.480469 92.574219 99.195312 81.992188 99.476562 C 81.1875 99.496094 80.226562 99.023438 79.578125 99.949219 L 58.363281 99.949219 C 57.882812 99.328125 57.402344 99.539062 56.917969 99.949219 L 48.722656 99.949219 C 45.347656 99.164062 41.972656 99.171875 38.597656 99.949219 L 25.582031 99.949219 C 25.203125 99.140625 24.464844 99.5 23.890625 99.488281 C 21.726562 99.4375 19.5625 99.511719 17.398438 99.449219 C 8.558594 99.195312 2.269531 93.878906 0.542969 85.234375 C 0.453125 84.796875 0.652344 84.234375 0.03125 84.023438 L 0.03125 16.453125 C 0.554688 16.167969 0.453125 15.640625 0.496094 15.183594 C 1.15625 8.605469 4.695312 4.140625 10.554688 1.332031 C 11.535156 0.863281 12.8125 1.097656 13.53125 0.046875 C 37.636719 0.046875 61.742188 0.046875 85.84375 0.046875 Z M 2.902344 60 C 3.011719 60.027344 3.121094 60.054688 3.234375 60.082031 C 3.648438 59.105469 4.058594 58.128906 4.484375 57.15625 C 7.015625 51.339844 9.496094 45.5 12.113281 39.722656 C 13.21875 37.289062 15.101562 37.042969 16.839844 39.007812 C 21.152344 43.886719 25.375 48.839844 29.691406 53.710938 C 31.171875 55.378906 31.316406 57.050781 30.417969 59.023438 C 29.023438 62.089844 27.554688 65.144531 26.453125 68.316406 C 25.542969 70.9375 23.984375 71.910156 21.292969 72.003906 C 15.753906 72.199219 10.230469 72.710938 4.695312 72.996094 C 3.238281 73.070312 2.738281 73.597656 2.796875 75.039062 C 2.894531 77.527344 2.789062 80.023438 2.863281 82.515625 C 3.101562 90.515625 9.105469 96.414062 17.089844 96.507812 C 20.546875 96.546875 24 96.492188 27.453125 96.535156 C 28.472656 96.546875 29.34375 96.3125 30.128906 95.671875 C 32.054688 94.097656 34.046875 92.59375 35.917969 90.953125 C 37.6875 89.398438 37.566406 88.371094 35.453125 87.378906 C 32.332031 85.917969 29.125 84.640625 25.976562 83.234375 C 22.65625 81.75 22.550781 81.492188 23.96875 78.230469 C 27.875 69.25 31.796875 60.277344 35.726562 51.308594 C 37.023438 48.355469 37.460938 48.226562 40.476562 49.539062 C 56.429688 56.464844 72.382812 63.386719 88.34375 70.296875 C 91.199219 71.535156 91.472656 72 90.261719 74.796875 C 87.398438 81.421875 84.515625 88.039062 81.527344 94.609375 C 80.757812 96.300781 81.328125 96.539062 82.839844 96.542969 C 90.265625 96.550781 96.660156 90.582031 96.925781 83.183594 C 97.082031 78.84375 97.003906 74.5 97.011719 70.15625 C 97.019531 66.65625 97.007812 66.65625 93.503906 67.445312 C 93.269531 67.5 93.03125 67.527344 92.792969 67.558594 C 86.320312 68.382812 79.761719 65.285156 76.757812 59.980469 C 73.339844 53.949219 73.886719 46.988281 78.207031 41.460938 C 81.832031 36.816406 88.855469 34.691406 94.988281 36.519531 C 96.613281 37.003906 97.070312 36.753906 97.042969 35.011719 C 96.945312 28.738281 96.976562 22.464844 96.972656 16.191406 C 96.96875 14.808594 96.730469 13.488281 96.226562 12.191406 C 93.703125 5.71875 88.820312 2.644531 81.082031 2.65625 C 71.363281 2.667969 61.644531 2.632812 51.921875 2.664062 C 39.792969 2.707031 27.660156 2.632812 15.535156 2.917969 C 8.941406 3.078125 3.046875 9.027344 2.960938 15.609375 C 2.769531 30.402344 2.902344 45.203125 2.902344 60 Z M 96.933594 51.917969 C 96.941406 47.847656 94.398438 45.039062 90.636719 44.964844 C 86.851562 44.886719 83.542969 48.191406 83.570312 52.027344 C 83.589844 55.457031 86.996094 58.773438 90.496094 58.773438 C 94.144531 58.777344 96.925781 55.8125 96.933594 51.917969 Z M 71.828125 96.503906 C 75.265625 96.488281 75.949219 95.980469 75.960938 93.621094 C 75.972656 91.402344 74.21875 89.640625 72.035156 89.671875 C 69.722656 89.703125 67.996094 91.53125 68.125 93.90625 C 68.265625 96.519531 70.105469 96.644531 71.828125 96.503906 Z M 41.980469 95.921875 C 44.066406 96.429688 45.648438 96.53125 47.246094 96.519531 C 48.132812 96.511719 49.144531 96.574219 49.558594 95.628906 C 49.953125 94.71875 49.335938 93.914062 48.757812 93.253906 C 47.976562 92.363281 47.011719 92.574219 46.148438 93.117188 C 44.882812 93.90625 43.671875 94.773438 41.980469 95.921875 Z M 41.980469 95.921875 "/>
<path style=" stroke:none;fill-rule:nonzero;fill:rgb(1.176471%,27.45098%,54.117647%);fill-opacity:1;" d="M 499.953125 90.296875 C 498.6875 92.183594 497.050781 93.410156 494.675781 93.59375 C 490.484375 93.917969 487.902344 91.675781 487.890625 87.488281 C 487.875 78.5625 487.882812 69.636719 487.90625 60.707031 C 487.910156 59.007812 487.789062 57.335938 487.371094 55.6875 C 486.578125 52.554688 484.890625 50.292969 481.496094 49.792969 C 478.101562 49.289062 474.820312 50.886719 473.09375 53.816406 C 471.660156 56.253906 471.285156 58.933594 471.289062 61.707031 C 471.296875 70.3125 471.328125 78.917969 471.285156 87.523438 C 471.261719 91.78125 468.867188 93.949219 464.789062 93.589844 C 461.195312 93.273438 459.472656 91.445312 459.464844 87.78125 C 459.4375 78.609375 459.4375 69.441406 459.46875 60.273438 C 459.476562 58.566406 459.234375 56.914062 458.777344 55.285156 C 457.183594 49.582031 451.511719 47.84375 446.933594 51.675781 C 443.964844 54.160156 443.1875 57.585938 443.164062 61.210938 C 443.105469 69.976562 443.113281 78.742188 443.167969 87.507812 C 443.183594 89.75 442.828125 91.695312 440.59375 92.734375 C 438.007812 93.933594 435.425781 93.84375 433.023438 92.289062 C 431.230469 91.132812 431.21875 89.207031 431.21875 87.328125 C 431.222656 77.515625 431.222656 67.703125 431.222656 57.894531 C 431.222656 53.550781 431.230469 49.207031 431.21875 44.863281 C 431.210938 40.863281 432.164062 39.523438 435.601562 38.78125 C 438.75 38.097656 441.191406 39.5 442.484375 42.71875 C 442.566406 42.917969 442.726562 43.085938 442.898438 43.34375 C 447.148438 37.625 452.96875 37.519531 459.125 38.632812 C 462.460938 39.234375 465.027344 41.019531 466.898438 43.835938 C 467.546875 44.8125 467.894531 45.441406 469.058594 44 C 473.8125 38.113281 480.242188 37.164062 487.15625 38.691406 C 493.714844 40.136719 497.339844 44.675781 498.976562 51 C 499.289062 52.199219 499.164062 53.515625 499.953125 54.582031 Z M 499.953125 90.296875 "/>
<path style=" stroke:none;fill-rule:nonzero;fill:rgb(99.215686%,99.215686%,99.215686%);fill-opacity:1;" d="M 0.0351562 84.023438 C 0.652344 84.234375 0.457031 84.796875 0.542969 85.234375 C 2.269531 93.878906 8.558594 99.195312 17.398438 99.449219 C 19.5625 99.511719 21.730469 99.4375 23.894531 99.488281 C 24.464844 99.5 25.203125 99.140625 25.585938 99.949219 C 17.550781 99.949219 9.515625 99.917969 1.480469 99.980469 C 0.273438 99.992188 -0.0195312 99.710938 0 98.5 C 0.0820312 93.675781 0.0351562 88.847656 0.0351562 84.023438 Z M 0.0351562 84.023438 "/>
<path style=" stroke:none;fill-rule:nonzero;fill:rgb(99.215686%,99.215686%,99.215686%);fill-opacity:1;" d="M 13.53125 0.046875 C 12.8125 1.097656 11.535156 0.863281 10.554688 1.332031 C 4.695312 4.140625 1.15625 8.605469 0.5 15.183594 C 0.453125 15.640625 0.558594 16.167969 0.0351562 16.453125 C 0.0351562 11.386719 0.0703125 6.320312 0.00390625 1.253906 C -0.0117188 0.214844 0.199219 -0.0078125 1.238281 0.0117188 C 5.335938 0.0898438 9.433594 0.046875 13.53125 0.046875 Z M 13.53125 0.046875 "/>
<path style=" stroke:none;fill-rule:nonzero;fill:rgb(99.215686%,99.215686%,99.215686%);fill-opacity:1;" d="M 38.601562 99.949219 C 41.976562 99.171875 45.347656 99.164062 48.722656 99.949219 Z M 38.601562 99.949219 "/>
<path style=" stroke:none;fill-rule:nonzero;fill:rgb(99.215686%,99.215686%,99.215686%);fill-opacity:1;" d="M 56.917969 99.949219 C 57.402344 99.539062 57.882812 99.328125 58.367188 99.949219 Z M 56.917969 99.949219 "/>
<path style=" stroke:none;fill-rule:nonzero;fill:rgb(1.176471%,27.45098%,54.117647%);fill-opacity:1;" d="M 142.800781 51.246094 C 145.027344 50.691406 146.066406 49.730469 145.925781 46.992188 C 145.605469 40.65625 145.761719 34.292969 145.871094 27.941406 C 145.96875 22.148438 148.226562 20.015625 154.015625 19.941406 C 156.425781 19.910156 158.84375 19.789062 161.242188 19.953125 C 162.839844 20.066406 163.238281 19.476562 163.050781 18.070312 C 162.996094 17.675781 163.046875 17.269531 163.042969 16.867188 C 163.019531 14.8125 163.542969 13.003906 165.523438 12.015625 C 167.671875 10.941406 169.882812 10.949219 171.972656 12.140625 C 174.019531 13.300781 174.253906 15.316406 174.050781 17.394531 C 173.847656 19.488281 174.496094 20.140625 176.746094 19.996094 C 180.09375 19.78125 183.492188 19.652344 186.839844 20.214844 C 189.765625 20.703125 191.40625 22.289062 191.929688 25.214844 C 192.71875 29.601562 192.199219 34.039062 192.3125 38.449219 C 192.398438 41.742188 192.347656 45.042969 192.269531 48.335938 C 192.238281 49.574219 192.394531 50.355469 193.902344 50.273438 C 195.109375 50.203125 195.738281 51.113281 196.242188 52.066406 C 197.324219 54.117188 197.230469 56.25 196.570312 58.386719 C 196.039062 60.09375 195.015625 61.011719 193.046875 60.964844 C 188.632812 60.859375 184.214844 60.941406 179.796875 60.941406 C 176.84375 60.941406 176.824219 60.945312 178.179688 63.722656 C 181.925781 71.371094 187.394531 77.574219 194.117188 82.738281 C 197.691406 85.484375 198.074219 88.503906 195.421875 91.851562 C 193.308594 94.523438 190.335938 94.917969 187.617188 92.8125 C 180.375 87.203125 175.054688 80.019531 170.738281 72.027344 C 170.507812 71.601562 170.332031 71.144531 170.074219 70.746094 C 169.558594 69.960938 169.144531 69.675781 168.644531 70.847656 C 164.464844 80.710938 157.058594 87.632812 148.167969 93.160156 C 144.621094 95.363281 140.503906 93.558594 139.511719 89.210938 C 139.101562 87.425781 138.535156 87.238281 136.804688 87.3125 C 131.59375 87.53125 126.367188 87.523438 121.152344 87.328125 C 118.144531 87.21875 116.238281 84.941406 116.234375 81.835938 C 116.199219 61.8125 116.195312 41.792969 116.234375 21.769531 C 116.238281 18.511719 118.238281 16.511719 121.507812 16.449219 C 126.644531 16.347656 131.789062 16.355469 136.925781 16.402344 C 140.582031 16.433594 142.652344 18.355469 142.667969 22.0625 C 142.714844 31.625 142.964844 41.1875 142.554688 50.75 C 142.550781 50.882812 142.683594 51.019531 142.796875 51.246094 Z M 142.730469 58.847656 C 142.730469 66.480469 142.71875 73.433594 142.753906 80.390625 C 142.757812 80.972656 142.15625 81.71875 142.878906 82.128906 C 143.503906 82.488281 144.066406 81.914062 144.601562 81.585938 C 151.941406 77.09375 157.390625 71.066406 160.195312 62.765625 C 160.796875 60.984375 160.1875 60.871094 158.785156 60.890625 C 154.9375 60.9375 151.089844 60.925781 147.242188 60.964844 C 145.621094 60.980469 144.023438 61.003906 142.730469 58.847656 Z M 181.777344 40.605469 L 181.777344 36.027344 C 181.777344 30.414062 181.777344 30.472656 176.121094 30.398438 C 174.542969 30.375 174.046875 30.820312 174.03125 32.417969 C 173.96875 37.789062 174.441406 43.175781 173.648438 48.527344 C 173.464844 49.761719 173.960938 50.304688 175.242188 50.25 C 176.84375 50.1875 178.453125 50.15625 180.050781 50.261719 C 181.382812 50.351562 181.863281 49.949219 181.808594 48.550781 C 181.699219 45.90625 181.777344 43.253906 181.777344 40.605469 Z M 156.324219 40.105469 C 156.324219 42.113281 156.324219 44.117188 156.324219 46.121094 C 156.324219 50.277344 156.324219 50.167969 160.535156 50.285156 C 162.515625 50.335938 163.007812 49.605469 162.980469 47.78125 C 162.914062 43.695312 163.023438 39.605469 163.058594 35.515625 C 163.105469 30.179688 163.105469 30.222656 157.734375 30.421875 C 156.566406 30.464844 156.253906 30.765625 156.296875 31.929688 C 156.390625 34.652344 156.328125 37.382812 156.324219 40.105469 Z M 132.214844 66.683594 C 132.226562 66.683594 132.242188 66.683594 132.257812 66.683594 C 132.257812 63.710938 132.226562 60.742188 132.269531 57.769531 C 132.289062 56.523438 132.019531 55.746094 130.542969 55.957031 C 129.914062 56.046875 129.253906 56.027344 128.621094 55.953125 C 127.210938 55.785156 126.675781 56.199219 126.710938 57.777344 C 126.824219 63.078125 126.757812 68.378906 126.757812 73.679688 C 126.753906 77.144531 127.070312 77.394531 130.550781 77.046875 C 131.820312 76.921875 132.320312 76.507812 132.253906 75.117188 C 132.121094 72.3125 132.214844 69.496094 132.214844 66.683594 Z M 132.203125 36.015625 C 132.203125 33.445312 132.164062 30.875 132.222656 28.308594 C 132.246094 27.136719 131.996094 26.460938 130.628906 26.65625 C 129.925781 26.757812 129.179688 26.753906 128.472656 26.652344 C 127.011719 26.445312 126.726562 27.136719 126.738281 28.4375 C 126.789062 33.574219 126.777344 38.710938 126.730469 43.847656 C 126.71875 45.035156 126.972656 45.683594 128.332031 45.484375 C 129.035156 45.378906 129.78125 45.386719 130.488281 45.484375 C 131.921875 45.683594 132.25 45 132.21875 43.722656 C 132.15625 41.152344 132.203125 38.585938 132.203125 36.015625 Z M 132.203125 36.015625 "/>
<path style=" stroke:none;fill-rule:nonzero;fill:rgb(1.176471%,27.45098%,54.117647%);fill-opacity:1;" d="M 244.433594 13.773438 C 256.160156 13.777344 267.882812 13.757812 279.609375 13.785156 C 283.425781 13.796875 285.214844 15.765625 284.984375 19.535156 C 284.78125 22.789062 283.296875 24.226562 279.859375 24.238281 C 270.304688 24.277344 260.75 24.292969 251.191406 24.222656 C 249.488281 24.207031 248.976562 24.742188 249.03125 26.410156 C 249.074219 27.792969 249.535156 28.210938 250.875 28.175781 C 254.246094 28.09375 257.617188 28.117188 260.992188 28.121094 C 266.675781 28.128906 269.113281 30.492188 269.128906 36.109375 C 269.160156 47.929688 269.15625 59.746094 269.136719 71.5625 C 269.125 76.8125 266.714844 79.1875 261.4375 79.195312 C 249.714844 79.207031 237.988281 79.207031 226.265625 79.195312 C 221.511719 79.1875 218.9375 76.707031 218.917969 71.9375 C 218.867188 59.796875 218.871094 47.65625 218.90625 35.515625 C 218.921875 30.664062 221.261719 28.285156 226.152344 28.136719 C 229.601562 28.03125 233.058594 28.054688 236.507812 28.125 C 237.730469 28.152344 238.5625 28.074219 238.441406 26.535156 C 238.339844 25.222656 238.476562 24.167969 236.433594 24.199219 C 227.441406 24.339844 218.445312 24.265625 209.449219 24.25 C 205.492188 24.242188 203.707031 22.652344 203.640625 19.15625 C 203.574219 15.632812 205.558594 13.78125 209.503906 13.773438 C 221.148438 13.761719 232.792969 13.769531 244.433594 13.773438 Z M 258.675781 63.644531 C 258.675781 62.84375 258.664062 62.042969 258.679688 61.242188 C 258.71875 59.210938 257.699219 58.191406 255.621094 58.183594 C 251.230469 58.164062 249.035156 60.355469 249.039062 64.765625 C 249.042969 67.566406 250.429688 68.96875 253.199219 68.96875 C 256.835938 68.972656 258.664062 67.199219 258.675781 63.648438 Z M 238.433594 63.53125 C 238.433594 62.488281 238.3125 61.425781 238.460938 60.402344 C 238.710938 58.667969 237.992188 58.089844 236.347656 58.164062 C 234.585938 58.238281 232.820312 58.230469 231.058594 58.179688 C 229.832031 58.144531 229.316406 58.601562 229.375 59.867188 C 229.460938 61.710938 229.433594 63.558594 229.433594 65.40625 C 229.4375 67.78125 230.65625 68.960938 233.085938 68.953125 C 236.660156 68.941406 238.441406 67.132812 238.433594 63.53125 Z M 253.878906 48.078125 C 257.0625 48.039062 258.65625 46.460938 258.664062 43.335938 C 258.671875 40.171875 257.066406 38.589844 253.839844 38.589844 C 250.601562 38.589844 249.007812 40.175781 249.050781 43.347656 C 249.09375 46.539062 250.703125 48.113281 253.878906 48.078125 Z M 238.410156 43.554688 C 238.453125 40.257812 237.109375 38.605469 234.378906 38.59375 C 231.039062 38.578125 229.386719 40.269531 229.425781 43.671875 C 229.460938 46.601562 230.929688 48.058594 233.835938 48.039062 C 236.84375 48.019531 238.367188 46.523438 238.410156 43.554688 Z M 238.410156 43.554688 "/>
<path style=" stroke:none;fill-rule:nonzero;fill:rgb(1.176471%,27.45098%,54.117647%);fill-opacity:1;" d="M 243.933594 92.710938 C 234.210938 92.710938 224.492188 92.722656 214.769531 92.707031 C 208.445312 92.695312 204.996094 89.804688 204.859375 83.5 C 204.585938 70.882812 204.699219 58.25 204.671875 45.625 C 204.664062 42.972656 204.617188 40.3125 204.777344 37.667969 C 204.976562 34.417969 206.910156 32.800781 210.195312 32.875 C 213.632812 32.953125 215.457031 34.6875 215.460938 38.089844 C 215.480469 51.199219 215.4375 64.308594 215.445312 77.417969 C 215.449219 83.085938 215.554688 82.136719 220.105469 82.140625 C 236.335938 82.152344 252.5625 82.152344 268.792969 82.15625 C 272.496094 82.15625 272.480469 82.152344 272.480469 78.4375 C 272.472656 65.328125 272.46875 52.214844 272.484375 39.105469 C 272.492188 35.007812 274.46875 33.125 278.421875 33.363281 C 281.664062 33.558594 283.230469 35.125 283.40625 38.363281 C 283.4375 38.925781 283.421875 39.488281 283.421875 40.054688 C 283.421875 53.96875 283.433594 67.882812 283.421875 81.796875 C 283.414062 89.441406 280.167969 92.707031 272.617188 92.707031 C 263.054688 92.710938 253.496094 92.710938 243.933594 92.710938 Z M 243.933594 92.710938 "/>
<path style=" stroke:none;fill-rule:nonzero;fill:rgb(1.176471%,27.45098%,54.117647%);fill-opacity:1;" d="M 422.023438 66.0625 C 421.765625 76.917969 417.839844 85.964844 407.9375 91.167969 C 397.878906 96.457031 387.699219 95.773438 378.425781 89.050781 C 371.53125 84.054688 368.289062 76.816406 367.792969 68.375 C 367.207031 58.5 370.128906 49.945312 377.933594 43.558594 C 391.332031 32.597656 416.164062 36.675781 421.339844 59.339844 C 421.84375 61.554688 421.917969 63.792969 422.023438 66.0625 Z M 379.839844 66.160156 C 379.667969 67.59375 379.945312 69.351562 380.421875 71.050781 C 382.019531 76.765625 385.386719 80.984375 391.285156 82.507812 C 397 83.980469 402.015625 82.320312 405.804688 77.832031 C 411.484375 71.097656 411.257812 60.808594 405.527344 54.074219 C 400.226562 47.84375 390.484375 47.492188 384.808594 53.410156 C 381.515625 56.847656 379.792969 60.984375 379.84375 66.160156 Z M 379.839844 66.160156 "/>
<path style=" stroke:none;fill-rule:nonzero;fill:rgb(1.176471%,27.45098%,54.117647%);fill-opacity:1;" d="M 339.558594 38.117188 C 346.351562 38.363281 353.855469 41.175781 358.515625 49.261719 C 360.15625 52.105469 359.433594 54.65625 356.652344 56.546875 C 354.035156 58.324219 351.164062 57.941406 349.234375 55.421875 C 345.136719 50.074219 339.703125 48.492188 333.433594 50.199219 C 327.140625 51.914062 324.167969 56.789062 323.121094 62.871094 C 322.304688 67.597656 323.058594 72.164062 325.726562 76.277344 C 331.089844 84.546875 343.3125 84.78125 349.003906 76.730469 C 351.605469 73.046875 354.097656 72.335938 357.246094 74.382812 C 359.5625 75.890625 360.445312 78.222656 359.515625 80.855469 C 357.820312 85.652344 354.4375 89.050781 349.996094 91.242188 C 334.117188 99.085938 313.101562 91.203125 310.921875 69.953125 C 309.859375 59.566406 312.5 50.507812 320.734375 43.636719 C 325.328125 39.804688 331.148438 38.039062 339.558594 38.113281 Z M 339.558594 38.117188 "/>
<path style=" stroke:none;fill-rule:nonzero;fill:rgb(99.607843%,55.294118%,1.568627%);fill-opacity:1;" d="M 299.484375 93.574219 C 295.34375 93.640625 292 90.398438 291.851562 86.167969 C 291.703125 81.917969 295.027344 78.363281 299.25 78.261719 C 303.175781 78.167969 306.589844 81.699219 306.652344 85.917969 C 306.710938 89.839844 303.269531 93.515625 299.484375 93.574219 Z M 299.484375 93.574219 "/>
<path style=" stroke:none;fill-rule:nonzero;fill:rgb(99.215686%,99.215686%,99.215686%);fill-opacity:1;" d="M 2.902344 60 C 2.902344 45.203125 2.769531 30.402344 2.960938 15.609375 C 3.046875 9.027344 8.941406 3.078125 15.535156 2.917969 C 27.660156 2.628906 39.792969 2.703125 51.921875 2.664062 C 61.640625 2.632812 71.363281 2.667969 81.082031 2.65625 C 88.820312 2.644531 93.699219 5.71875 96.226562 12.191406 C 96.730469 13.488281 96.96875 14.808594 96.96875 16.191406 C 96.976562 22.464844 96.945312 28.738281 97.042969 35.011719 C 97.070312 36.753906 96.613281 37.003906 94.988281 36.519531 C 88.855469 34.6875 81.832031 36.816406 78.207031 41.457031 C 73.886719 46.988281 73.339844 53.949219 76.757812 59.980469 C 79.761719 65.285156 86.320312 68.382812 92.792969 67.558594 C 93.03125 67.527344 93.269531 67.5 93.503906 67.445312 C 97.007812 66.65625 97.019531 66.65625 97.011719 70.15625 C 97 74.5 97.082031 78.84375 96.925781 83.183594 C 96.660156 90.582031 90.265625 96.550781 82.839844 96.542969 C 81.328125 96.539062 80.757812 96.300781 81.527344 94.609375 C 84.515625 88.039062 87.398438 81.421875 90.261719 74.796875 C 91.472656 72 91.199219 71.53125 88.34375 70.296875 C 72.382812 63.382812 56.429688 56.464844 40.476562 49.535156 C 37.460938 48.226562 37.023438 48.355469 35.726562 51.308594 C 31.796875 60.277344 27.871094 69.25 23.96875 78.230469 C 22.550781 81.492188 22.65625 81.75 25.976562 83.234375 C 29.125 84.640625 32.332031 85.914062 35.453125 87.378906 C 37.566406 88.371094 37.6875 89.398438 35.917969 90.953125 C 34.046875 92.59375 32.054688 94.09375 30.125 95.671875 C 29.339844 96.3125 28.472656 96.546875 27.453125 96.53125 C 24 96.492188 20.542969 96.546875 17.089844 96.507812 C 9.101562 96.414062 3.101562 90.515625 2.863281 82.515625 C 2.789062 80.023438 2.894531 77.527344 2.796875 75.035156 C 2.738281 73.597656 3.234375 73.066406 4.695312 72.992188 C 10.230469 72.710938 15.753906 72.199219 21.289062 72.003906 C 23.984375 71.910156 25.542969 70.9375 26.453125 68.316406 C 27.554688 65.140625 29.023438 62.089844 30.417969 59.023438 C 31.316406 57.050781 31.167969 55.378906 29.691406 53.710938 C 25.375 48.839844 21.152344 43.882812 16.839844 39.007812 C 15.101562 37.042969 13.21875 37.285156 12.113281 39.722656 C 9.496094 45.5 7.015625 51.339844 4.480469 57.15625 C 4.058594 58.128906 3.648438 59.105469 3.230469 60.082031 C 3.121094 60.054688 3.011719 60.027344 2.898438 60 Z M 73.390625 34.800781 C 73.585938 24.945312 65.628906 16.652344 55.859375 16.527344 C 46.085938 16.40625 37.890625 24.226562 37.640625 33.917969 C 37.378906 43.960938 45.164062 52.179688 55.195312 52.449219 C 64.941406 52.707031 73.195312 44.707031 73.390625 34.800781 Z M 73.390625 34.800781 "/>
<path style=" stroke:none;fill-rule:nonzero;fill:rgb(99.215686%,99.215686%,99.215686%);fill-opacity:1;" d="M 96.933594 51.917969 C 96.925781 55.8125 94.144531 58.777344 90.496094 58.773438 C 86.996094 58.773438 83.589844 55.457031 83.566406 52.027344 C 83.542969 48.191406 86.851562 44.890625 90.636719 44.964844 C 94.398438 45.039062 96.941406 47.847656 96.933594 51.917969 Z M 96.933594 51.917969 "/>
<path style=" stroke:none;fill-rule:nonzero;fill:rgb(99.215686%,99.215686%,99.215686%);fill-opacity:1;" d="M 71.828125 96.503906 C 70.105469 96.644531 68.265625 96.519531 68.121094 93.90625 C 67.996094 91.53125 69.722656 89.703125 72.03125 89.671875 C 74.21875 89.640625 75.96875 91.402344 75.960938 93.621094 C 75.949219 95.980469 75.265625 96.488281 71.828125 96.503906 Z M 71.828125 96.503906 "/>
<path style=" stroke:none;fill-rule:nonzero;fill:rgb(99.215686%,99.215686%,99.215686%);fill-opacity:1;" d="M 41.980469 95.921875 C 43.671875 94.773438 44.882812 93.90625 46.144531 93.117188 C 47.011719 92.574219 47.976562 92.367188 48.757812 93.253906 C 49.335938 93.914062 49.949219 94.71875 49.554688 95.628906 C 49.144531 96.574219 48.132812 96.515625 47.246094 96.519531 C 45.648438 96.53125 44.0625 96.429688 41.980469 95.921875 Z M 41.980469 95.921875 "/>
<path style=" stroke:none;fill-rule:nonzero;fill:rgb(99.215686%,99.215686%,99.215686%);fill-opacity:1;" d="M 142.730469 58.847656 C 144.023438 61.003906 145.621094 60.980469 147.242188 60.964844 C 151.089844 60.925781 154.9375 60.9375 158.785156 60.890625 C 160.1875 60.871094 160.796875 60.984375 160.195312 62.769531 C 157.390625 71.066406 151.941406 77.09375 144.601562 81.585938 C 144.066406 81.914062 143.507812 82.488281 142.878906 82.132812 C 142.15625 81.71875 142.757812 80.972656 142.753906 80.390625 C 142.71875 73.433594 142.730469 66.480469 142.730469 58.847656 Z M 142.730469 58.847656 "/>
<path style=" stroke:none;fill-rule:nonzero;fill:rgb(99.215686%,99.215686%,99.215686%);fill-opacity:1;" d="M 181.777344 40.605469 C 181.777344 43.253906 181.699219 45.90625 181.808594 48.550781 C 181.863281 49.949219 181.386719 50.351562 180.050781 50.261719 C 178.453125 50.15625 176.84375 50.1875 175.242188 50.25 C 173.960938 50.304688 173.464844 49.761719 173.648438 48.527344 C 174.441406 43.175781 173.972656 37.789062 174.03125 32.417969 C 174.046875 30.820312 174.542969 30.375 176.121094 30.398438 C 181.777344 30.472656 181.777344 30.414062 181.777344 36.027344 C 181.777344 37.554688 181.777344 39.078125 181.777344 40.605469 Z M 181.777344 40.605469 "/>
<path style=" stroke:none;fill-rule:nonzero;fill:rgb(99.215686%,99.215686%,99.215686%);fill-opacity:1;" d="M 156.324219 40.105469 C 156.324219 37.378906 156.390625 34.652344 156.296875 31.929688 C 156.253906 30.765625 156.566406 30.464844 157.734375 30.421875 C 163.105469 30.222656 163.105469 30.179688 163.058594 35.515625 C 163.023438 39.605469 162.914062 43.695312 162.980469 47.78125 C 163.007812 49.605469 162.515625 50.335938 160.535156 50.285156 C 156.324219 50.167969 156.320312 50.277344 156.324219 46.121094 C 156.324219 44.117188 156.324219 42.109375 156.324219 40.105469 Z M 156.324219 40.105469 "/>
<path style=" stroke:none;fill-rule:nonzero;fill:rgb(99.215686%,99.215686%,99.215686%);fill-opacity:1;" d="M 132.214844 66.683594 C 132.214844 69.496094 132.121094 72.3125 132.253906 75.117188 C 132.320312 76.507812 131.820312 76.921875 130.546875 77.046875 C 127.070312 77.394531 126.753906 77.144531 126.753906 73.679688 C 126.757812 68.378906 126.824219 63.078125 126.710938 57.777344 C 126.675781 56.199219 127.207031 55.785156 128.621094 55.953125 C 129.253906 56.03125 129.914062 56.046875 130.542969 55.957031 C 132.019531 55.75 132.289062 56.523438 132.269531 57.773438 C 132.222656 60.742188 132.253906 63.714844 132.253906 66.683594 C 132.238281 66.683594 132.226562 66.683594 132.210938 66.683594 Z M 132.214844 66.683594 "/>
<path style=" stroke:none;fill-rule:nonzero;fill:rgb(99.215686%,99.215686%,99.215686%);fill-opacity:1;" d="M 132.203125 36.015625 C 132.199219 38.582031 132.15625 41.152344 132.21875 43.71875 C 132.25 45 131.921875 45.683594 130.488281 45.484375 C 129.78125 45.386719 129.035156 45.378906 128.328125 45.484375 C 126.972656 45.683594 126.71875 45.035156 126.730469 43.847656 C 126.777344 38.710938 126.789062 33.574219 126.738281 28.4375 C 126.726562 27.136719 127.011719 26.445312 128.472656 26.652344 C 129.179688 26.753906 129.921875 26.757812 130.628906 26.65625 C 131.996094 26.460938 132.246094 27.136719 132.21875 28.308594 C 132.164062 30.875 132.203125 33.445312 132.203125 36.015625 Z M 132.203125 36.015625 "/>
<path style=" stroke:none;fill-rule:nonzero;fill:rgb(99.215686%,99.215686%,99.215686%);fill-opacity:1;" d="M 258.675781 63.644531 C 258.664062 67.199219 256.835938 68.972656 253.199219 68.96875 C 250.429688 68.96875 249.042969 67.566406 249.039062 64.765625 C 249.035156 60.355469 251.226562 58.164062 255.621094 58.183594 C 257.699219 58.191406 258.71875 59.210938 258.679688 61.242188 C 258.664062 62.042969 258.675781 62.84375 258.675781 63.644531 Z M 258.675781 63.644531 "/>
<path style=" stroke:none;fill-rule:nonzero;fill:rgb(99.215686%,99.215686%,99.215686%);fill-opacity:1;" d="M 238.433594 63.53125 C 238.441406 67.132812 236.660156 68.941406 233.089844 68.953125 C 230.652344 68.960938 229.4375 67.78125 229.4375 65.40625 C 229.433594 63.558594 229.460938 61.710938 229.378906 59.867188 C 229.320312 58.601562 229.832031 58.144531 231.058594 58.179688 C 232.820312 58.226562 234.589844 58.238281 236.347656 58.164062 C 237.992188 58.089844 238.714844 58.667969 238.460938 60.402344 C 238.3125 61.425781 238.433594 62.488281 238.4375 63.53125 Z M 238.433594 63.53125 "/>
<path style=" stroke:none;fill-rule:nonzero;fill:rgb(99.215686%,99.215686%,99.215686%);fill-opacity:1;" d="M 253.878906 48.078125 C 250.703125 48.113281 249.09375 46.539062 249.050781 43.347656 C 249.007812 40.175781 250.605469 38.589844 253.839844 38.589844 C 257.066406 38.59375 258.675781 40.175781 258.664062 43.335938 C 258.65625 46.460938 257.0625 48.039062 253.878906 48.078125 Z M 253.878906 48.078125 "/>
<path style=" stroke:none;fill-rule:nonzero;fill:rgb(99.215686%,99.215686%,99.215686%);fill-opacity:1;" d="M 238.410156 43.554688 C 238.371094 46.523438 236.84375 48.019531 233.835938 48.039062 C 230.929688 48.058594 229.460938 46.601562 229.429688 43.671875 C 229.386719 40.269531 231.039062 38.578125 234.378906 38.59375 C 237.109375 38.605469 238.453125 40.257812 238.410156 43.554688 Z M 238.410156 43.554688 "/>
<path style=" stroke:none;fill-rule:nonzero;fill:rgb(99.215686%,99.215686%,99.215686%);fill-opacity:1;" d="M 379.839844 66.160156 C 379.792969 60.984375 381.515625 56.847656 384.808594 53.410156 C 390.484375 47.492188 400.222656 47.84375 405.527344 54.074219 C 411.257812 60.808594 411.484375 71.097656 405.800781 77.832031 C 402.015625 82.320312 397 83.980469 391.285156 82.507812 C 385.386719 80.984375 382.019531 76.765625 380.417969 71.050781 C 379.945312 69.351562 379.667969 67.59375 379.839844 66.160156 Z M 379.839844 66.160156 "/>
<path style=" stroke:none;fill-rule:nonzero;fill:rgb(1.176471%,27.45098%,54.117647%);fill-opacity:1;" d="M 73.390625 34.800781 C 73.191406 44.703125 64.941406 52.707031 55.195312 52.449219 C 45.164062 52.179688 37.378906 43.960938 37.640625 33.917969 C 37.890625 24.226562 46.085938 16.40625 55.859375 16.527344 C 65.628906 16.652344 73.585938 24.945312 73.390625 34.800781 Z M 63.363281 35.429688 C 63.304688 30.957031 59.660156 27.457031 55.128906 27.523438 C 50.792969 27.589844 47.257812 31.230469 47.28125 35.609375 C 47.308594 40.117188 50.886719 43.636719 55.429688 43.617188 C 59.933594 43.597656 63.417969 40 63.363281 35.429688 Z M 63.363281 35.429688 "/>
<path style=" stroke:none;fill-rule:nonzero;fill:rgb(99.215686%,99.215686%,99.215686%);fill-opacity:1;" d="M 63.363281 35.429688 C 63.417969 40 59.933594 43.597656 55.429688 43.617188 C 50.886719 43.636719 47.308594 40.117188 47.28125 35.609375 C 47.257812 31.230469 50.792969 27.589844 55.128906 27.523438 C 59.660156 27.457031 63.304688 30.957031 63.363281 35.429688 Z M 63.363281 35.429688 "/>
</g>
</svg>
