<svg xmlns="http://www.w3.org/2000/svg" xml:space="preserve" width="647.16699" height="750.97699" viewBox="0 0 647.16699 750.97701"><defs><clipPath id="a" clipPathUnits="userSpaceOnUse"><path d="M0 790.889h900V0H0Z"/></clipPath></defs><g clip-path="url(#a)" transform="matrix(1.33333 0 0 -1.33333 -278.052 902.583)"><path d="M58.771 0C15.843 0 0 15.843 0 58.791v518.234c0 4.86.196 9.374.625 13.557.977 9.375 1.162 18.458 9.88 28.8.853 1.014 9.753 7.64 9.753 7.64 4.788 2.347 8.059 4.076 13.459 6.25L294.51 742.534c13.538 6.207 19.202 8.626 29.035 8.432h.077c9.832.194 15.494-2.225 29.034-8.432L613.45 633.271c5.402-2.173 8.67-3.902 13.46-6.25 0 0 8.9-6.625 9.751-7.638 8.719-10.343 8.902-19.426 9.88-28.801.428-4.183.626-8.697.626-13.557V58.791C647.166 15.843 631.323 0 588.396 0H58.771zm418.006 97.328h21.293c35.607 0 52.8 17.278 52.8 53.06v58.827h-42.977v-56.36c0-11.517-5.324-16.86-16.377-16.86h-7.371c-11.46 0-16.784 5.343-16.784 16.86v181.817c0 11.519 5.324 16.863 16.784 16.863h8.193c11.047 0 16.371-5.344 16.371-16.863V269.68h42.982v67.045c0 35.79-17.598 53.474-53.214 53.474h-21.7c-35.608 0-53.216-17.684-53.216-53.474V150.803c0-35.79 17.608-53.475 53.216-53.475zm-381.3 2.469h97.427v39.896h-53.63v81.448h51.578v39.896h-51.579v86.797h54.448v39.898H95.477V99.797zm119.388 0h68.77c35.614 0 53.215 17.685 53.215 53.474v76.512c0 35.783-17.6 53.467-53.215 53.467h-24.969v104.482h-43.8V99.797zm141.742 0h43.807v287.935h-43.807V99.797zm-97.941 38.666v106.129h18.014c11.053 0 16.369-5.353 16.369-16.871v-72.397c0-11.516-5.316-16.861-16.37-16.861h-18.013zM138.037 456.234h5.111l1.317.12 1.308.12h1.188l1.187.118 1.309.24 1.076.12 1.188.24 1.19.238 1.073.238 1.069.238 1.07.24 1.076.36 1.069.238.949.36 1.076.357 1.068.478 1.069.479 1.076.478 1.07.598 1.067.479.959.597 1.066.598.95.596 1.075.6.95.716.949.598.957.717.949.718.955.836.951.717-.718.957-.829.836-.718.957-.828.955-.72.957-.708.836-.838.957-.71.955-.718.84-.83.955-.715.955-.832.957-.717.838-.709.955-.835.957-.713.955-.836.838-.711.955-.955-.717-.95-.835-.957-.6-.949-.717-.949-.598-.955-.597-.951-.596-1.069-.6-.955-.476-.949-.479-.957-.359-1.068-.36-1.069-.357-1.076-.238-1.187-.24-1.19-.239-1.19-.119-1.306-.12-1.314-.118h-2.496l-1.19.117-1.074.121-1.19.239-1.068.24-1.076.357-1.068.358-1.069.478-1.07.479-.955.597-.95.598-.956.6-.83.714-.836.72-.83.716-.717.836-.83.838-.717.955-.592.838-.598.955-.59 1.076-.597.957-.479 1.076-.357 1.076-.473 1.075-.36 1.195-.237 1.19-.239 1.074-.24 1.316-.12 1.195-.11 1.194v2.752l.11 1.193.12 1.076.121 1.197.238 1.075.24 1.076.239 1.076.357 1.076.354.955.478 1.196.477 1.076.592 1.076.595.957.598.955.711.957.717.836.83.838.719.836.828.717.957.718.95.717.948.598.955.597 1.07.479 1.069.479 1.074.476 1.19.36 1.187.357 1.197.24 1.188.24 1.187.118 1.31.12h2.733l1.317-.12 1.308-.118 1.188-.12 1.187-.241 1.196-.238 1.19-.358 1.068-.24 1.07-.476.955-.479 1.068-.479.836-.478.951-.598v-10.877h-17.377v-17.445H178.38V533.09l-.83.717-.957.716-.83.598-.955.719-.95.596-.949.718-.957.598-.949.598-1.076.595-1.069.6-1.07.598-1.074.47-1.07.598-1.188.476-1.068.481-1.196.477-1.068.478-1.07.36-1.074.357-1.07.361-1.188.358-1.069.359-1.195.238-1.07.239-1.188.24-1.195.238-1.19.12-1.306.12-1.19.12-1.306.119-1.198.119-1.306.119h-5.119l-1.188-.12-1.308-.118-1.188-.12-1.187-.119-1.198-.12-1.187-.24-1.19-.24-1.068-.238-1.195-.238-1.069-.36-1.187-.238-1.076-.359-1.07-.478-1.069-.36-1.188-.478-1.076-.477-1.068-.476-1.068-.479-1.079-.598-.947-.591-1.068-.598-.957-.6-.95-.595-.954-.72-.95-.714-.95-.719-.837-.717-.83-.716-.838-.838-.828-.717-.838-.836-.83-.838-.717-.836-.71-.957-.717-.836-.598-.957-.711-.957-.596-.955-.591-.957-.598-1.076-.598-.955-.47-1.076-.479-1.077-.477-1.076-.472-1.074-.358-.957-.478-1.076-.24-1.076-.352-1.074-.238-1.196-.36-1.078-.238-1.193-.12-1.076-.24-1.198-.116-1.074-.122-1.195-.113-1.196-.117-1.195V500.217l.117-1.315v-1.195l.113-1.195.122-1.315.238-1.19.119-1.195.238-1.076.36-1.195.238-1.195.351-1.076.36-1.196.357-1.074.479-1.197.472-1.074.477-1.077.478-1.076.471-1.076.598-1.076.597-.955.592-.957.596-.957.6-.955.709-.957.716-.955.711-.958.717-.837.83-.836.717-.838.832-.834.836-.84.828-.715.957-.838.83-.717.95-.716.956-.598.95-.719.957-.596.947-.597 1.07-.6 1.076-.597 1.067-.596 1.07-.479 1.074-.478 1.19-.598.95-.357 1.187-.362 1.078-.476 1.068-.24 1.068-.36 1.194-.238 1.07-.357 1.188-.24 1.189-.12 1.195-.238 1.19-.121 1.185-.117 1.19-.121 1.195-.12zm375.135.24h5.119l1.309.118 1.308.12h1.188l1.314.12 1.188.238 1.308.121 1.19.239 1.076.238 1.187.238 1.188.24 1.07.24 1.194.358 1.07.36 1.068.24 1.196.476 1.07.36 1.066.476 1.07.479 1.196.478 1.068.598.95.478 1.076.598 1.07.598.95.597 1.073.72.952.595.955.719.949.716.947.717-.709.957-.598.955-.709.957-.718.957-.71 1.075-.597.957-.719.957-.71.955-.596.957-.711.957-.717.955-.598.957-.71 1.076-.717.955-.711.957-.596.955-.711.957-.957-.716-1.068-.6-.95-.596-.957-.719-1.068-.476-.957-.6-1.068-.478-.95-.477-1.076-.478-.949-.479-1.066-.357-.957-.479-1.309-.357-1.19-.36-1.187-.357-1.195-.24-1.188-.24-1.19-.239-1.187-.12-1.195-.12-1.068-.12h-2.618l-1.306.24-1.198.24-1.066.238-.95.478-.837.479-1.07.957-.717 1.076-.469 1.076-.121 1.193v.24l.121 1.555.59 1.315.478.717.829.838 1.076.595.949.598 1.187.478 1.317.479 1.428.478.949.239.95.36 1.075.237 1.069.36 1.187.238 1.317.36 1.306.357 1.309.36 1.306.24 1.188.357 1.308.36 1.196.238 1.19.359 1.187.357 1.068.36 1.197.359 1.069.357 1.068.36 1.315.47 1.187.598 1.19.479 1.189.597 1.074.598 1.07.598.948.597.957.717.95.598.95.838.955.836.83.957.836.836.711.957.717 1.074.59.957.6 1.076.476.957.36 1.074.35 1.076.24 1.077.237 1.195.24 1.195.12 1.196.119 1.314V519.701l-.12 1.315-.118 1.197-.12 1.312-.24 1.198-.357 1.193-.232 1.076-.36 1.196-.476 1.076-.48.959-.472 1.074-.595.955-.598.957-.71.957-.6.955-.71.836-.835.838-.711.717-.955.838-.83.716-.958.72-.949.587-.949.719-1.076.596-1.069.48-1.068.596-1.197.478-1.188.48-1.187.358-1.188.36-1.076.357-1.19.24-1.068.238-1.068.239-1.195.24-1.19.12-1.068.118-1.195.121-1.307.12-1.19.119h-5l-1.189-.12h-1.307l-1.187-.119-1.195-.12-1.309-.12-1.188-.238-1.187-.121-1.197-.239-1.19-.238-1.187-.24-1.188-.238-1.195-.358-1.068-.24-1.19-.36-1.19-.359-1.074-.478-1.187-.358-1.068-.357-1.19-.479-1.076-.478-1.068-.479-1.07-.59-1.075-.478-1.068-.6-.95-.595-1.076-.598-.949-.598-.957-.597-.95-.717-.948-.719-.955-.717-.952-.716-.836-.717-.949-.836.717-.957.83-.838.717-.957.83-.955.717-.836.71-.957.837-.957.71-.836.837-.955.71-.838.836-.957.711-.957.717-.836.83-.955.717-.957.83-.838.717-.955.95.717 1.07.718.955.717 1.07.717.955.598 1.07.716.947.598 1.079.477.947.6 1.068.478 1.076.476 1.069.48 1.07.358 1.076.479 1.188.357 1.19.36 1.068.357 1.195.24 1.187.24 1.188.239 1.308.119 1.196.238h1.19l1.306.12h2.615l1.309-.12 1.195-.238 1.068-.24 1.069-.239.957-.36.83-.476.957-.716.709-.838.478-.957.36-1.075.117-1.197v-.238l-.117-1.434-.479-1.197-.597-.836-.83-.717-.958-.717-.949-.478-1.068-.479-1.195-.478-1.428-.596-.83-.24-.947-.238-1.077-.36-1.07-.24-1.187-.357-1.196-.239-1.306-.359-1.19-.238-1.308-.36-1.188-.238-1.197-.36-1.186-.24-1.19-.357-1.075-.357-1.188-.24-1.07-.36-1.069-.357-1.076-.36-1.306-.478-1.19-.479-1.19-.478-1.193-.479-1.068-.596-1.19-.597-.955-.598-1.07-.598-.95-.716-.954-.598-.83-.719-.836-.836-.83-.838-.719-.837-.709-.836-.598-.836-.591-.957-.598-1.075-.479-.83-.357-.957-.352-1.076-.359-.955-.238-1.195-.24-1.076-.12-1.196-.119-1.195-.119-1.315v-2.75l.12-1.195.118-1.076.12-1.195.24-1.075.238-1.076.36-1.078.238-1.074.47-1.076.479-1.076.478-1.075.592-1.078.596-1.074.71-.957.72-.957.828-.955.838-.836.83-.957.955-.838.83-.598.955-.716.951-.717.947-.598 1.077-.598 1.07-.478 1.068-.598 1.076-.476 1.188-.362 1.187-.476 1.077-.36.949-.24 1.07-.238 1.076-.238 1.188-.239 1.068-.24 1.19-.119 1.195-.12 1.187-.12 1.188-.117zm-289.088.837H246.1l.476 1.076.479 1.074.472 1.076.477 1.197.36 1.075.47 1.076.478 1.076.477 1.076.48 1.076.471 1.194.479 1.078.478 1.074.35 1.076.478 1.076.479 1.077.478 1.193.471 1.076.479 1.076.478 1.076.47 1.077.36 1.074.477 1.197.472 1.076.479 1.076.477 1.075.478 1.076.47 1.076.48 1.195.359 1.076.47 1.075.477 1.076.478 1.078.479 1.074.47 1.195.48 1.069.478 1.078.351 1.074.477 1.076.48 1.077.471 1.076.478 1.195.479 1.076.479 1.074.47 1.077.358 1.076.478 1.076.47 1.193.48 1.076.478 1.077.476 1.076.473 1.076.479 1.074.357 1.197.473 1.077.476 1.074.479 1.076.47 1.076.479 1.076.479 1.196.478 1.076.352 1.076.478 1.074.479 1.078.47 1.075.477 1.195.478 1.076.479 1.076.47 1.076.36 1.075.479 1.076.47 1.195.479 1.076.476 1.076.473 1.077.477 1.074.478 1.07.36 1.193.47 1.077.479 1.076.476 1.078h-24.517l-.471-1.078-.36-1.076-.476-1.077-.479-1.193-.353-1.07-.477-1.074-.478-1.077-.352-1.076-.478-1.076-.479-1.076-.357-1.074-.47-1.196-.48-1.076-.359-1.076-.478-1.076H217.775l-.47 1.076-.36 1.076-.478 1.076-.477 1.196-.351 1.074-.479 1.076-.478 1.076-.358 1.076-.47 1.077-.481 1.074-.357 1.07-.473 1.193-.477 1.077-.359 1.076-.478 1.078h-24.034l.471-1.078.479-1.076.476-1.077.473-1.193.36-1.07.478-1.074.476-1.077.47-1.076.48-1.076.478-1.195.47-1.076.48-1.075.357-1.076.478-1.076.47-1.076.481-1.195.477-1.075.472-1.078.479-1.074.477-1.076.359-1.076.47-1.196.48-1.076.478-1.076.47-1.076.479-1.074.478-1.077.471-1.197.36-1.074.478-1.076.477-1.076.472-1.077.477-1.076.478-1.193.471-1.076.479-1.076.357-1.077.478-1.074.471-1.076.479-1.195.478-1.076.47-1.077.48-1.076.478-1.074.36-1.078.47-1.069.479-1.195.476-1.074.473-1.078.476-1.076.479-1.075.47-1.076.36-1.195.478-1.076.477-1.076.473-1.075.478-1.076.477-1.076.472-1.197.477-1.074.36-1.077.476-1.076.473-1.076.476-1.076.48-1.193.471-1.077.479-1.076.478-1.076.35-1.074.478-1.078.479-1.194.478-1.076.471-1.076.48-1.076.477-1.076.47-1.075.36-1.197.479-1.076.478-1.074.471-1.076zm68.578.595H317.062l.59.96.598 1.073.709.95.6 1.076.597.955.59 1.078.598.947.71 1.078.596.956.6.957.59 1.068.598.957.71 1.074.598.957.598 1.069.59.955.716.957.6 1.07.59.955.598 1.076.591.957.717 1.069.598.957.59 1.074.597.95.59.956.719 1.076.598.957.59 1.076.597.95.59 1.076.719.955.597 1.068.59.957.598-.957.597-1.068.711-.955.596-1.076.592-.95.598-1.076.71-.957.598-1.076.598-.957.59-.95.716-1.073.592-.957.598-1.069.596-.957.71-1.076.598-.955.6-1.07.588-.957.601-.955.71-1.069.597-.957.596-1.074.593-.957.715-1.068.592-.957.596-.956.6-1.078.708-.947.6-1.078.588-.955.6-1.076.716-.95.592-1.074.596-.959H383.699V544.918H360.734v-51.453l-.595.957-.711 1.084-.6.955-.709.959-.598 1.074-.718.957-.588.955-.6 1.084-.709.955-.6.957-.714.957-.592 1.082-.717.957-.59.956-.6 1.076-.716.963-.592.957-.717 1.074-.59.957-.716.957-.59 1.082-.6.957-.715.957-.591 1.076-.717.963-.592.955-.717.957-.597 1.076-.592.961-.715.96-.592 1.075-.717.956-.597.955-.711 1.084-.598.957h-.47l-.717-1.077-.598-.964-.711-1.075-.598-.957-.71-1.074-.598-.965-.71-1.076-.597-.957-.719-1.074-.59-.955-.716-1.086-.59-.955-.717-1.076-.6-.956-.709-1.083-.6-.956-.708-1.076-.717-.957-.598-1.082-.71-.955-.598-1.076-.71-.957-.597-1.084-.71-.955-.598-1.076-.717-.957-.592-1.075-.717-.964-.59-1.075-.718-.957-.596-1.076-.711-.955-.6-1.084-.709-.957V544.918h-22.613V457.906zm108.611 0H470.055V477.633H423.998v14.224h41.416V510.377H423.998V525.199h46.655V544.918H401.272V457.906zm-166.36 26.834-.472 1.076-.357 1.082-.479 1.198-.478 1.082-.354 1.074-.476 1.078-.479 1.201-.47 1.076-.36 1.077-.478 1.082-.479 1.076-.351 1.195-.479 1.084-.478 1.074-.358 1.076-.47 1.083-.479 1.195-.478 1.076-.35 1.084-.479 1.076-.478 1.195-.36 1.082-.47 1.077h20.109l-.476-1.077-.36-1.082-.47-1.195-.479-1.076-.36-1.084-.47-1.076-.477-1.195-.361-1.083-.478-1.076-.47-1.074-.359-1.084-.478-1.195-.352-1.076-.478-1.082-.479-1.077-.357-1.076-.473-1.2-.476-1.079-.36-1.074-.478-1.082-.47-1.198-.358-1.082-.479-1.076zm-36.108 163.344h250.738l-127.98 42.205-122.758-42.205z" style="fill:#fff;fill-opacity:1;fill-rule:evenodd;stroke:none;stroke-width:1.33333" transform="matrix(.75 0 0 -.75 208.539 676.937)"/></g></svg>