<svg width="66" height="100" viewBox="0 0 66 100" fill="none" xmlns="http://www.w3.org/2000/svg">
<g clip-path="url(#clip0_1340_4728)">
<path fill-rule="evenodd" clip-rule="evenodd" d="M32.4429 83.0264C31.3256 83.0264 30.8984 83.7022 30.8984 84.2401V87.51C30.8984 88.0622 31.3256 88.738 32.4429 88.738C33.5602 88.738 33.9887 88.0622 33.9887 87.51V84.2375C33.9887 83.6996 33.5746 83.0264 32.4429 83.0264Z" fill="white"/>
<path fill-rule="evenodd" clip-rule="evenodd" d="M36.0138 77.2478C34.5045 77.9406 33.8742 78.2102 32.7777 78.1881H32.7686C31.6734 78.2102 31.0418 77.9406 29.5325 77.2478L0.464897 65.0692C0.293 65.0002 0.141946 64.939 0 64.8726V94.0429C0 98.3925 1.60437 99.9968 5.95259 99.9968H59.595C63.9419 99.9968 65.5463 98.3925 65.5463 94.0429V64.8726C65.4043 64.9364 65.2533 65.0028 65.0827 65.0692L36.0138 77.2478ZM15.071 90.9149C12.891 90.9149 11.1395 89.7846 11.1395 87.576H13.5122C13.5122 88.5553 14.5475 88.735 15.2507 88.735C16.0789 88.735 16.4787 88.4459 16.4787 87.9758C16.4787 87.5343 15.9682 87.3559 15.0579 87.0525L13.4848 86.5316C12.7946 86.2972 11.3869 85.676 11.3869 83.8958C11.3869 82.0466 12.7803 80.846 15.071 80.846C17.2106 80.846 18.7694 81.9372 18.7694 84.1589H16.3823C16.3823 83.3853 15.7312 83.0272 14.9616 83.0272C14.2297 83.0272 13.8026 83.302 13.8026 83.7721C13.8026 84.2422 14.1464 84.3646 14.7819 84.586L16.3133 85.1069C17.8448 85.6278 18.8657 86.1969 18.8657 87.8521C18.8657 89.6322 17.6651 90.9149 15.071 90.9149V90.9149ZM27.4072 83.1197H24.8261V90.7092H22.4482V83.121H19.8541V81.0504H27.4072V83.1197ZM36.3615 87.4249C36.3615 89.6387 34.8287 90.9149 32.4417 90.9149C30.0547 90.9149 28.5232 89.6322 28.5232 87.4249V84.3607C28.5232 82.1261 30.069 80.8447 32.4417 80.8447C34.8144 80.8447 36.3615 82.1287 36.3615 84.3607V87.4249ZM46.1023 90.7079H43.7973L41.8101 87.1762H40.8178V90.7092H38.4438V81.0504H42.68C44.7493 81.0504 45.8054 82.1964 45.8054 84.1146C45.8054 85.37 45.2533 86.3636 44.3287 86.9157L46.1088 89.9369L46.1023 90.7079ZM54.4081 90.7079H47.9229V81.0491H54.3795V83.1197H50.2956V84.8855H53.7453V86.8389H50.2956V88.6321H54.4081V90.7079Z" fill="white"/>
<path fill-rule="evenodd" clip-rule="evenodd" d="M42.2808 83.1206H40.8184V85.2172H42.2808C42.984 85.2172 43.3981 84.9971 43.3981 84.1559C43.3981 83.3407 42.984 83.1206 42.2808 83.1206Z" fill="white"/>
<path fill-rule="evenodd" clip-rule="evenodd" d="M29.6801 23.0642V15.7312C29.6801 14.5591 29.141 14.0239 28.0224 14.0239H26.1992V24.7727H28.0224C29.141 24.7727 29.6801 24.231 29.6801 23.0642Z" fill="white"/>
<path fill-rule="evenodd" clip-rule="evenodd" d="M23.0417 48.363H23.1615H23.2813H23.4024H23.5222H23.642H23.7618H23.8699H23.9897H24.1108H24.2307H24.3505H24.4703H24.5901H24.7112H24.831L24.7828 48.2549L24.7463 48.1455L24.6995 48.0244L24.6513 47.9163L24.6148 47.8069L24.5666 47.6975L24.5185 47.5777L24.4833 47.4683L24.4351 47.3589L24.3869 47.2508L24.3505 47.1414L24.3023 47.0203L24.2671 46.9123L24.2189 46.8029L24.1708 46.6948L24.1343 46.5854L24.0861 46.4643L24.0379 46.3562L24.0028 46.2468L23.9546 46.1374L23.9064 46.0176L23.8699 45.9082L23.8217 45.7988L23.7749 45.9082L23.7384 46.0176L23.6902 46.1374L23.642 46.2468L23.6056 46.3562L23.5574 46.4643L23.5092 46.5854L23.4623 46.6948L23.4259 46.8029L23.3777 46.9123L23.3295 47.0203L23.2943 47.1414L23.2462 47.2508L23.198 47.3589L23.1615 47.4683L23.1133 47.5777L23.0651 47.6975L23.017 47.8069L22.9818 47.9163L22.9336 48.0244L22.8854 48.1455L22.849 48.2549L22.8008 48.363H22.9219H23.0417Z" fill="white"/>
<path fill-rule="evenodd" clip-rule="evenodd" d="M59.5951 0H5.95275C1.60453 0 0.000155707 1.60439 0.000155707 5.95391V57.1403C-0.00203165 57.599 0.0188281 58.0575 0.0626613 58.5141C0.162935 59.4635 0.181175 60.3829 1.0641 61.4312C1.15005 61.5328 2.0512 62.2047 2.0512 62.2047C2.53694 62.4417 2.86771 62.6175 3.41466 62.8376L29.8296 73.9068C31.2008 74.5345 31.7738 74.7806 32.77 74.7598H32.7778C33.7728 74.7806 34.3406 74.5345 35.7183 73.9068L62.1319 62.8376C62.6789 62.6175 63.0096 62.4469 63.4954 62.2047C63.4954 62.2047 64.3966 61.5328 64.4825 61.4312C65.3654 60.3829 65.385 59.4635 65.4839 58.5141C65.5278 58.0575 65.5486 57.599 65.5464 57.1403V5.95391C65.5529 1.60439 63.9421 0 59.5951 0ZM36.122 10.1068H40.5497V39.2773H36.122V10.1068ZM34.1856 46.4501L34.2455 46.5477L34.3054 46.4501L34.3653 46.3433L34.4369 46.2456L34.4968 46.1375L34.5567 46.0412L34.6179 45.9331L34.6896 45.8367L34.7495 45.7286L34.8094 45.6309L34.8693 45.5359L34.9422 45.4278L35.0008 45.3301L35.062 45.2233L35.1219 45.1257L35.1935 45.0176L35.2534 44.9212L35.3147 44.8131L35.3732 44.7168L35.4344 44.6204L35.5061 44.5123L35.566 44.416L35.6272 44.3079L35.6858 44.2102L35.7587 44.1034L35.8186 44.0057L35.8785 43.9094L35.9384 43.8013L36.01 43.7049L36.0713 43.5968L36.1299 43.5005L36.1911 43.3911L36.2627 43.296L36.3226 43.1879L36.3838 43.0903H38.8451V51.8727H36.527V46.6793L36.4671 46.7769L36.3955 46.885L36.3343 46.9827L36.2627 47.0791L36.2028 47.1872L36.1299 47.2835L36.0713 47.3799L36.01 47.4893L35.9384 47.5856L35.8785 47.682L35.8069 47.7797L35.747 47.8891L35.6741 47.9854L35.6142 48.0818L35.5543 48.1899L35.4813 48.2875L35.4227 48.3839L35.3498 48.492L35.2899 48.5884L35.2183 48.686L35.1584 48.7941L35.0985 48.8918L35.0255 48.9882L34.9656 49.0962L34.894 49.1939L34.8341 49.2903L34.7612 49.3867L34.7013 49.4947L34.6414 49.5924L34.5698 49.6888L34.5099 49.7982L34.4369 49.8945L34.377 49.9909L34.3054 50.1003L34.2455 50.1967H34.1973L34.1244 50.0873L34.0645 49.9909L33.9929 49.8815L33.9329 49.7851L33.8613 49.6771L33.8001 49.5794L33.7285 49.4713L33.6686 49.3749L33.5957 49.2655L33.5371 49.1692L33.4641 49.0598L33.4042 48.9634L33.3326 48.8553L33.2714 48.759L33.1998 48.6496L33.1399 48.5532L33.0683 48.4438L32.9953 48.3474L32.9354 48.2381L32.8638 48.1417L32.8039 48.0336L32.7323 47.9372L32.6711 47.8278L32.5994 47.7315L32.5395 47.6221L32.4666 47.5257L32.4067 47.4177L32.3351 47.32L32.2752 47.2119L32.2036 47.1142L32.1423 47.0061L32.0707 46.9098L32.0108 46.8004L31.9392 46.704V51.8727H29.6564V43.0903H32.1189L32.1788 43.1879L32.2387 43.296L32.3103 43.3911L32.3715 43.5005L32.4315 43.5968L32.4914 43.7049L32.5513 43.8013L32.6229 43.9094L32.6828 44.0057L32.744 44.1034L32.8039 44.2102L32.8638 44.3079L32.9354 44.416L32.9953 44.5123L33.0565 44.6204L33.1151 44.7168L33.1881 44.8131L33.248 44.9212L33.3079 45.0176L33.3678 45.1257L33.4277 45.2233L33.5006 45.3301L33.5605 45.4278L33.6204 45.5359L33.6803 45.6309L33.7402 45.7286L33.8131 45.8367L33.873 45.9331L33.9329 46.0412L33.9929 46.1375L34.0528 46.2456L34.1244 46.3433L34.1856 46.4501ZM21.766 10.1068H28.7318C32.339 10.1068 34.1205 11.8987 34.1205 15.5229V23.2726C34.1205 26.8967 32.339 28.6886 28.7318 28.6886H26.2028V39.2707H21.766V10.1068ZM9.67329 10.1068H19.5418V14.1438H14.1101V22.3936H19.3334V26.4305H14.1101V35.2338H19.6251V39.2707H9.67329V10.1068ZM18.121 46.8785V50.6785L18.0377 50.7514L17.9413 50.8243L17.8579 50.8842L17.7603 50.9572L17.6652 51.0171L17.5689 51.0887L17.4725 51.1499L17.3774 51.2098L17.268 51.2697L17.1599 51.3309L17.0531 51.3908L16.9438 51.439L16.8357 51.4989L16.7159 51.5471L16.6078 51.5953L16.488 51.6435L16.3799 51.6916L16.2718 51.7281L16.1637 51.7646L16.0556 51.801L15.9358 51.8362L15.8277 51.8727L15.7066 51.8974L15.5985 51.9208L15.4787 51.9456L15.3589 51.969L15.2391 51.982L15.1089 51.9938L14.9891 52.0055L14.8589 52.0172L14.7378 52.0302L14.6075 52.0419H14.0866L13.9668 52.0302L13.8366 52.0172L13.7168 52.0055L13.597 51.9938L13.4772 51.982L13.3574 51.9573L13.2363 51.9326L13.1295 51.9091L13.0084 51.8844L12.9003 51.8492L12.7805 51.8245L12.6724 51.788L12.5643 51.7398L12.4562 51.7034L12.3364 51.6552L12.227 51.607L12.1202 51.5588L12.0121 51.5106L11.9027 51.4507L11.8077 51.3908L11.6996 51.3309L11.6032 51.2697L11.5069 51.2098L11.4105 51.1369L11.3154 51.0652L11.2191 50.9923L11.1344 50.9207L11.0511 50.8478L10.9664 50.7631L10.8831 50.6915L10.7984 50.6069L10.7138 50.5222L10.6422 50.4376L10.5705 50.3412L10.4976 50.2566L10.4377 50.1602L10.3661 50.0638L10.3062 49.9675L10.2463 49.8711L10.1851 49.7617L10.1252 49.6653L10.0783 49.5572L10.0301 49.4479L9.98193 49.3398L9.93374 49.2317L9.89728 49.1353L9.84909 49.0259L9.82565 48.9178L9.7892 48.8084L9.76575 48.6886L9.72928 48.5793L9.70585 48.4595L9.69283 48.3501L9.66938 48.2303L9.65636 48.1209L9.64465 48.0011L9.63292 47.8799L9.6212 47.7588V47.3682L9.63292 47.2379V47.1168L9.64465 46.9957L9.65636 46.8655L9.6811 46.7444L9.69283 46.6246L9.71757 46.5152L9.75403 46.3954L9.77746 46.2743L9.81263 46.1662L9.84909 46.0451L9.88556 45.937L9.93374 45.8159L9.98193 45.7078L10.0301 45.5984L10.0783 45.4903L10.1252 45.3809L10.1851 45.2728L10.2463 45.1765L10.3062 45.0801L10.3661 44.9837L10.426 44.8874L10.4976 44.791L10.5705 44.6933L10.6422 44.597L10.7138 44.5123L10.7984 44.4277L10.8701 44.3443L10.9547 44.2597L11.0394 44.175L11.1227 44.1021L11.2191 44.0188L11.3024 43.9458L11.3988 43.8729L11.4951 43.813L11.5915 43.7401L11.6879 43.6802L11.7829 43.6203L11.891 43.5591L12.0004 43.4992L12.1072 43.4393L12.2153 43.3911L12.3234 43.3429L12.4445 43.2817L12.5396 43.2465L12.6593 43.2101L12.7688 43.1619L12.8768 43.1371L12.9836 43.1007L13.1047 43.0772L13.2128 43.0408L13.3326 43.016L13.4524 43.0043L13.5735 42.9809L13.6933 42.9678L13.8131 42.9561L13.933 42.9444L14.0541 42.9327H14.575L14.7052 42.9444L14.8354 42.9561H14.9552L15.075 42.9678L15.2053 42.9926L15.3133 43.0043L15.4332 43.029L15.553 43.0525L15.6624 43.0772L15.7704 43.1007L15.8772 43.1254L15.9866 43.1619L16.0947 43.1853L16.1898 43.2218L16.2992 43.2582L16.4059 43.3064L16.514 43.3546L16.6234 43.4028L16.7302 43.4627L16.8383 43.5109L16.9347 43.5721L17.0427 43.632L17.1391 43.6919L17.2472 43.7531L17.3436 43.8247L17.4386 43.8859L17.5363 43.9576L17.6314 44.0305L17.7277 44.1151L17.8241 44.1868L17.7512 44.2831L17.6678 44.3678L17.5949 44.4641L17.5115 44.5605L17.4386 44.6582L17.367 44.7415L17.2823 44.8392L17.2107 44.9355L17.1391 45.0202L17.0558 45.1166L16.9828 45.2129L16.8995 45.3093L16.8266 45.3939L16.7549 45.4903L16.6703 45.5867L16.5987 45.683L16.514 45.7677L16.4424 45.8641L16.346 45.7911L16.251 45.7078L16.1533 45.6466L16.0582 45.575L15.9619 45.5137L15.8655 45.4538L15.7704 45.3939L15.6624 45.3327L15.566 45.2846L15.4696 45.2364L15.3733 45.1999L15.2652 45.1647L15.1571 45.1283L15.049 45.1035L14.9292 45.0801L14.8094 45.0554L14.6896 45.0436L14.5593 45.0319L14.4291 45.0202H14.1778L14.058 45.0319L13.9486 45.0436L13.8288 45.0684L13.7207 45.0918L13.6126 45.1283L13.5045 45.1647L13.3964 45.2129L13.2883 45.2611L13.192 45.321L13.0969 45.3809L13.0005 45.4421L12.9159 45.5137L12.8313 45.5867L12.7479 45.6596L12.6763 45.7429L12.5916 45.8276L12.52 45.924L12.4601 46.0086L12.4002 46.105L12.3403 46.2144L12.2791 46.3107L12.2309 46.4188L12.1958 46.5282L12.1476 46.6363L12.1111 46.7574L12.0877 46.8772L12.0629 46.9853L12.0395 47.1155L12.0265 47.2366L12.016 47.3564V47.6338L12.0265 47.7549L12.0395 47.863L12.0512 47.9841L12.0746 48.0922L12.0994 48.2016L12.1241 48.3097L12.1593 48.4191L12.1958 48.5154L12.2439 48.6353L12.2921 48.7446L12.352 48.8527L12.4119 48.9491L12.4718 49.0455L12.5434 49.1431L12.6164 49.2265L12.6997 49.3111L12.7726 49.3958L12.856 49.4687L12.9524 49.5403L13.0487 49.6132L13.1438 49.6731L13.2402 49.733L13.3482 49.7825L13.4563 49.8307L13.5644 49.8789L13.6855 49.9154L13.8053 49.9505L13.9252 49.9753L14.0449 49.9987L14.1661 50.0117L14.2963 50.0234H14.5724L14.7026 50.0117L14.8328 49.9987L14.9526 49.987L15.0724 49.9635L15.1935 49.9388L15.3133 49.9023L15.4214 49.8789L15.5295 49.8307L15.6259 49.7825L15.734 49.733L15.8186 49.6849L15.9137 49.625V48.5167H14.1609V46.7587H18.1236L18.121 46.8785ZM19.8634 51.8727H19.0117L19.0586 51.7646L19.1068 51.6552L19.155 51.5471L19.2032 51.426L19.2396 51.3179L19.2878 51.2098L19.336 51.1017L19.3829 50.9923L19.4311 50.8842L19.4792 50.7631L19.5274 50.6551L19.5756 50.547L19.6121 50.4376L19.6603 50.3295L19.7071 50.2201L19.7553 50.1003L19.8035 49.9909L19.8517 49.8828L19.8999 49.7747L19.9481 49.6653L19.9845 49.5572L20.0314 49.4361L20.0796 49.328L20.1291 49.2187L20.176 49.1106L20.2241 49.0025L20.2723 48.8931L20.3205 48.7733L20.357 48.6639L20.4052 48.5558L20.4533 48.4464L20.5002 48.3383L20.5484 48.2303L20.5966 48.1091L20.6448 48.0011L20.693 47.8917L20.7294 47.7836L20.7776 47.6755L20.8245 47.5661L20.8727 47.445L20.9208 47.3369L20.969 47.2288L21.0172 47.1194L21.0654 47.0113L21.1019 46.9033L21.1487 46.7952L21.1969 46.6741L21.2451 46.566L21.2933 46.4566L21.3415 46.3485L21.3897 46.2391L21.4365 46.131L21.473 46.0099L21.5212 45.9018L21.5694 45.7937L21.6175 45.6843L21.6657 45.5763L21.7139 45.4682L21.7621 45.3471L21.8103 45.239L21.8454 45.1296L21.8936 45.0215L21.9418 44.9121L21.99 44.804L22.0382 44.6829L22.0864 44.5748L22.1345 44.4667L22.1827 44.3574L22.2179 44.2493L22.2661 44.1399L22.3143 44.0201L22.3624 43.9107L22.4106 43.8026L22.4588 43.6945L22.507 43.5851L22.5539 43.477L22.5903 43.3559L22.6385 43.2478L22.6867 43.1384L22.7349 43.0304H24.9565L25.0047 43.1384L25.0529 43.2478L25.1011 43.3559L25.1493 43.477L25.1857 43.5851L25.2326 43.6945L25.2808 43.8026L25.329 43.9107L25.3772 44.0201L25.4253 44.1399L25.4735 44.2493L25.5217 44.3574L25.5569 44.4667L25.605 44.5748L25.6532 44.6829L25.7014 44.804L25.7496 44.9121L25.7978 45.0215L25.846 45.1296L25.8941 45.239L25.9293 45.3471L25.9775 45.4682L26.0257 45.5763L26.0739 45.6843L26.122 45.7937L26.1702 45.9018L26.2184 46.0099L26.2666 46.131L26.3017 46.2391L26.3499 46.3485L26.3981 46.4566L26.4463 46.566L26.4945 46.6741L26.5427 46.7952L26.5909 46.9033L26.639 47.0113L26.6742 47.1194L26.7224 47.2288L26.7706 47.3369L26.8188 47.445L26.8669 47.5661L26.9151 47.6755L26.9633 47.7836L27.0102 47.8917L27.0466 48.0011L27.0948 48.1091L27.143 48.2303L27.1912 48.3383L27.2394 48.4464L27.2876 48.5558L27.3344 48.6639L27.3826 48.7733L27.4191 48.8931L27.4673 49.0025L27.5155 49.1106L27.5636 49.2187L27.6105 49.328L27.6587 49.4361L27.7082 49.5572L27.7564 49.6653L27.7915 49.7747L27.8397 49.8828L27.8879 49.9909L27.9348 50.1003L27.9843 50.2201L28.0324 50.3295L28.0806 50.4376L28.1275 50.547L28.164 50.6551L28.2122 50.7631L28.2603 50.8842L28.3085 50.9923L28.3567 51.1017L28.4036 51.2098L28.4518 51.3179L28.5 51.426L28.5364 51.5471L28.5846 51.6552L28.6328 51.7646L28.681 51.8727H26.2067L26.1598 51.7646L26.1233 51.6552L26.0752 51.5471L26.027 51.426L25.9918 51.3179L25.9436 51.2098L25.8954 51.1017L25.859 50.9923L25.8108 50.8842L25.7626 50.7762L25.7262 50.6668L25.6793 50.547L25.6311 50.4376L25.5946 50.3295L25.5465 50.2201H22.0994L22.0512 50.3295L22.016 50.4376L21.9679 50.547L21.9184 50.6668L21.8832 50.7762L21.835 50.8842L21.7868 50.9923L21.7504 51.1017L21.7035 51.2098L21.6553 51.3179L21.6189 51.426L21.5707 51.5471L21.5225 51.6552L21.4873 51.7646L21.4378 51.8727H19.8647H19.8634ZM32.5135 69.9141L20.0796 65.6401H45.4735L32.5135 69.9141ZM47.6196 50.0039V51.8727H40.6174V43.0903H47.5597V45.0814H42.9107V46.5139H47.0909V48.3865H42.9107V49.8828H47.6196V50.0039ZM42.9029 34.1047V15.2741C42.9029 11.6487 44.6856 9.85676 48.2916 9.85676H50.4468C54.0541 9.85676 55.7952 11.607 55.7952 15.2312V21.1903H51.4417V15.4812C51.4417 14.3092 50.9026 13.7739 49.784 13.7739H49.0378C47.8762 13.7739 47.337 14.3144 47.337 15.4812V33.8963C47.337 35.0684 47.8762 35.6036 49.0378 35.6036H49.8673C50.986 35.6036 51.5251 35.0632 51.5251 33.8963V27.3135H55.8785V34.1047C55.8785 37.7289 54.0957 39.5208 50.4885 39.5208H48.2903C44.683 39.5208 42.9003 37.7289 42.9003 34.1047H42.9029ZM55.9332 49.1679V49.3254L55.9215 49.4557L55.9098 49.5755L55.8967 49.7057L55.8733 49.8268L55.8368 49.9479L55.8134 50.056L55.7769 50.1771L55.7288 50.2852L55.6806 50.3816L55.6337 50.4897L55.5725 50.5873L55.5126 50.6837L55.441 50.7801L55.3811 50.8764L55.3094 50.9611L55.2248 51.0457L55.1532 51.1173L55.0568 51.202L54.9721 51.2749L54.8758 51.3465L54.7807 51.4064L54.6844 51.4794L54.5763 51.5393L54.4682 51.5875L54.3601 51.6474L54.239 51.6955L54.1192 51.7437L53.9994 51.7802L53.8796 51.8167L53.7715 51.8531L53.6504 51.8766L53.5436 51.9013L53.4355 51.9247L53.3144 51.9495L53.1946 51.9612L53.0865 51.9742L52.9667 51.9859L52.8365 51.9977L52.7167 52.0094H52.2127L52.0916 51.9977H51.9613L51.8415 51.9859L51.7204 51.9742L51.5902 51.9612L51.4704 51.9378L51.3506 51.9247L51.2295 51.9013L51.1097 51.8766L50.9899 51.8531L50.8701 51.8284L50.7489 51.7932L50.6409 51.7685L50.521 51.732L50.4012 51.6955L50.2931 51.6474L50.1734 51.6122L50.0653 51.5757L49.9455 51.5276L49.8361 51.4794L49.7293 51.4312L49.6212 51.3713L49.5118 51.3231L49.4037 51.2619L49.3087 51.202L49.1993 51.1421L49.1042 51.0809L49.0078 51.021L48.9115 50.9494L48.8164 50.8764L48.72 50.8035L48.6237 50.7319L48.539 50.6589L48.4427 50.5743L48.5156 50.4779L48.5989 50.3933L48.6719 50.2969L48.7552 50.2006L48.8281 50.1159L48.8997 50.0196L48.9844 49.9232L49.056 49.8385L49.1407 49.7422L49.2123 49.6575L49.2969 49.5612L49.3686 49.4648L49.4402 49.3801L49.5248 49.2838L49.5964 49.1874L49.6798 49.1028L49.7527 49.0064L49.8491 49.0793L49.9559 49.1509L50.0535 49.2239L50.1603 49.2955L50.2567 49.3567L50.3648 49.4283L50.4611 49.4895L50.5692 49.5377L50.6656 49.5976L50.7737 49.6458L50.8818 49.694L50.9899 49.7422L51.0979 49.7786L51.206 49.8268L51.3258 49.8633L51.4457 49.8997L51.5537 49.9349L51.6749 49.9596L51.7946 49.9831L51.9145 50.0078L52.0447 50.0196L52.1658 50.0443H52.2856L52.4158 50.056H52.6763L52.8065 50.0443L52.9263 50.0196L53.0344 49.9961L53.1425 49.9714L53.2388 49.9349L53.3222 49.8867L53.4199 49.8151L53.4915 49.7304L53.5397 49.6341L53.5748 49.5247L53.5879 49.4049V49.3801L53.5748 49.2356L53.5267 49.1145L53.4667 49.0298L53.3834 48.9582L53.287 48.8853L53.1907 48.8371L53.0826 48.7889L52.9628 48.7407L52.8182 48.6808L52.7349 48.6561L52.6385 48.6326L52.5304 48.5962L52.4223 48.5714L52.3025 48.5363L52.1814 48.5115L52.0512 48.4751L51.9314 48.4516L51.8012 48.4152L51.6814 48.3904L51.5603 48.3553L51.4404 48.3305L51.3206 48.2941L51.2125 48.2576L51.0927 48.2342L50.9847 48.1977L50.8766 48.1612L50.7685 48.1261L50.6382 48.0766L50.5185 48.0284L50.3986 47.9802L50.2788 47.932L50.1707 47.8721L50.0509 47.8122L49.9533 47.751L49.8465 47.6911L49.7501 47.6182L49.6538 47.5583L49.5704 47.4867L49.4858 47.402L49.4011 47.3174L49.3295 47.2327L49.2579 47.1481L49.1967 47.0634L49.1381 46.9671L49.0768 46.859L49.0287 46.7743L48.9922 46.678L48.9571 46.5699L48.9219 46.4735L48.8971 46.3524L48.8724 46.2443L48.8607 46.1232L48.849 46.0021L48.8372 45.8719V45.5932L48.849 45.4734L48.8607 45.364L48.8724 45.2442L48.8971 45.1348L48.9219 45.0267L48.9571 44.9186L48.9818 44.8092L49.0287 44.7011L49.0768 44.5918L49.125 44.4837L49.1849 44.3756L49.2448 44.2662L49.3178 44.1698L49.3894 44.0735L49.474 43.9771L49.5574 43.8924L49.642 43.7961L49.7384 43.7114L49.8217 43.6515L49.9181 43.5786L50.0145 43.507L50.1095 43.4458L50.2189 43.3859L50.327 43.3377L50.4338 43.2778L50.5432 43.2296L50.663 43.1931L50.7828 43.145L50.8909 43.1085L50.9873 43.0837L51.0953 43.0603L51.2034 43.0356L51.3232 43.0121L51.4313 42.9874L51.5511 42.9757L51.6722 42.9639L51.792 42.9509L51.9119 42.9392H52.4328L52.563 42.9509L52.6932 42.9639H52.813L52.9432 42.9757L53.063 42.9991L53.1933 43.0121L53.3131 43.0356L53.4225 43.0603L53.5423 43.0837L53.6621 43.1085L53.7702 43.1319L53.89 43.1684L53.9981 43.2049L54.1061 43.2296L54.2273 43.2778L54.334 43.3129L54.4421 43.3611L54.5502 43.4106L54.6713 43.4588L54.7794 43.5187L54.8745 43.5669L54.9839 43.6268L55.0907 43.688L55.187 43.7479L55.2951 43.8208L55.3915 43.8807L55.4878 43.9523L55.5842 44.0253L55.6793 44.0982L55.6076 44.1946L55.5478 44.2909L55.4761 44.3873L55.4032 44.4837L55.3316 44.5918L55.2717 44.6894L55.1987 44.7858L55.1271 44.8822L55.0672 44.9785L54.9956 45.0749L54.9227 45.1713L54.8628 45.2676L54.7911 45.377L54.7182 45.4734L54.6466 45.5697L54.5867 45.6661L54.5151 45.7625L54.4187 45.6909L54.3106 45.6296L54.2142 45.5697L54.1179 45.4968L54.0098 45.4486L53.9134 45.3887L53.8053 45.3405L53.7103 45.2924L53.6009 45.2442L53.5058 45.196L53.3977 45.1595L53.3014 45.1114L53.1711 45.0749L53.05 45.0384L52.9302 45.0033L52.8104 44.9785L52.6906 44.9538L52.5695 44.9303L52.4497 44.9186L52.3299 44.9056L52.2218 44.8939H51.9613L51.8311 44.9186L51.71 44.9421L51.6019 44.9668L51.5069 45.015L51.4222 45.0632L51.3141 45.1595L51.2412 45.2676L51.1943 45.377L51.1826 45.4968V45.5216L51.1943 45.6778L51.2542 45.8081L51.3024 45.881L51.3857 45.9656L51.4938 46.0255L51.5902 46.0854L51.71 46.1336L51.8402 46.1818L51.9848 46.23L52.0799 46.2547L52.1762 46.2912L52.2843 46.3146L52.3924 46.3511L52.5122 46.3758L52.6424 46.4123L52.7726 46.4475L52.9029 46.4839L53.0331 46.5087L53.1529 46.5438L53.2831 46.5803L53.4029 46.605L53.5227 46.6415L53.6426 46.6767L53.7506 46.7131L53.8718 46.7496L53.9798 46.786L54.0879 46.8212L54.2181 46.8694L54.338 46.9293L54.4578 46.9775L54.5776 47.0387L54.6857 47.0986L54.7937 47.1585L54.8901 47.2197L54.9865 47.2913L55.0815 47.3525L55.1779 47.4359L55.2743 47.5205L55.3576 47.6169L55.4423 47.7015L55.5139 47.7979L55.5868 47.9073L55.6467 48.0037L55.7066 48.1117L55.7548 48.2081L55.7913 48.3175L55.8264 48.4256L55.8512 48.535L55.8746 48.6548L55.8994 48.7759L55.9111 48.8957L55.9228 49.0259L55.9332 49.1679Z" fill="white"/>
</g>
<defs>
<clipPath id="clip0_1340_4728">
<rect width="65.5476" height="100" fill="white"/>
</clipPath>
</defs>
</svg>
