<?xml version="1.0" encoding="utf-8"?>
<!-- Generator: Adobe Illustrator 28.2.0, SVG Export Plug-In . SVG Version: 6.00 Build 0)  -->
<svg version="1.1" id="레이어_1" xmlns="http://www.w3.org/2000/svg" xmlns:xlink="http://www.w3.org/1999/xlink" x="0px"
	 y="0px" viewBox="0 0 95.5 18" style="enable-background:new 0 0 95.5 18;" xml:space="preserve">
<style type="text/css">
	.st0{fill-rule:evenodd;clip-rule:evenodd;fill:#FFFFFF;}
</style>
<path class="st0" d="M55,7.1c0.3,0,0.6,0.1,0.8,0.3C56,7.6,56,7.8,56,8.2l0,7.7c0,0.8-0.6,1.3-1.7,1.6c-1,0.2-2.1,0.4-3.6,0.4
	c-0.1,0-0.2,0-0.2,0c-1.3,0-2.6-0.2-3.7-0.7c-1-0.4-1.8-0.9-2.2-1.5c-1.2-1.4-1.8-3.7-1.8-6.8c0-1.4,0.2-2.7,0.5-3.8
	c0.4-1.1,0.9-2.1,1.6-2.8c0.7-0.8,1.6-1.4,2.5-1.8c1-0.4,2.1-0.6,3.4-0.6c0.7,0,1.3,0.1,2.1,0.3c0.8,0.2,1.5,0.6,2,0.8L55,1.2
	c0.6,0.3,1,0.8,1,1.2c0,0.3-0.3,1.2-0.5,1.5c-0.1,0.3-0.5,1.2-0.8,1.5c-0.2,0.3-0.5,0.4-0.8,0.4h0l0,0c-0.1,0-0.3-0.1-0.5-0.2
	c-0.1-0.1-0.3-0.2-0.4-0.2l0,0l0,0c-0.3-0.2-0.7-0.4-1-0.5l-0.2-0.1l0,0h0c-0.3-0.1-0.6-0.2-1-0.2c-0.1,0-0.3,0-0.4,0
	c-0.7,0.1-1.7,0.6-2.1,1.3l0,0c-0.5,0.9-0.8,1.3-0.8,3.2c0,1.3,0.3,2.3,0.9,3c0.6,0.6,1.4,1,2.3,1c0.5,0,0.9,0,1.4-0.1l0-1.7l-1.6,0
	c-0.2,0-0.5-0.1-0.6-0.4c-0.1-0.2-0.2-0.5-0.2-1l0-1.6c0-0.4,0.1-0.8,0.2-1c0.2-0.3,0.4-0.4,0.6-0.4L55,7.1z M65.9,1.1
	c0-0.4,0.2-0.9,1.4-0.9l1.9,0c1.2,0,1.4,0.5,1.4,0.9l0,10.8c0,1.7-0.7,3.3-1.9,4.5c-1.1,1-2.9,1.6-5,1.6h0c-2.1,0-3.9-0.6-5-1.6
	c-1.2-1.2-1.9-2.8-1.9-4.5l0-10.8c0-0.4,0.2-0.9,1.4-0.9l1.9,0c1.2,0,1.4,0.5,1.4,0.9l0,9.3c0,0.9,0.2,1.5,0.7,2
	c0.4,0.4,0.9,0.6,1.5,0.6c0.5,0,1,0,1.5-0.5c0.5-0.5,0.7-1.2,0.7-2.1L65.9,1.1z M85.6,1.4L85.6,1.4c0.1-0.3,0.2-0.5,0.2-0.7
	c0-0.1,0-0.3-0.3-0.4c-0.2-0.1-0.6-0.2-1.1-0.2h-2.2c-0.8,0-1.2,0.2-1.4,0.5l-2.2,3.8l-2.2-3.8c-0.2-0.3-0.7-0.5-1.4-0.5l-2.3,0
	c-0.5,0-0.9,0.1-1.2,0.2c-0.3,0.1-0.3,0.3-0.3,0.4c0,0.1,0.1,0.4,0.2,0.6l0,0l0,0l4.5,7.7l0,7.9c0,0.4,0.2,0.9,1.4,0.9l2.4,0
	c0.4,0,0.7-0.1,1-0.2c0.3-0.1,0.4-0.4,0.4-0.7l0-7.8L85.6,1.4z M93.4,7.8c0.6,0.4,1.1,0.9,1.5,1.6c0.4,0.7,0.6,1.6,0.6,2.7
	c0,1.3-0.3,2.4-0.8,3.2c-0.5,0.9-1.5,1.5-2.3,1.9c-0.8,0.4-1.8,0.4-2.6,0.4h0c-1,0-1.8-0.1-2.6-0.3c-0.8-0.2-1-0.4-1.5-0.8
	c-0.6-0.4-0.8-0.9-0.8-1.4c0-0.3,0.1-0.7,0.3-1.1c0.2-0.4,0.4-0.7,0.6-1c0.2-0.3,0.6-0.6,1-0.6c0.2,0,0.4,0.1,0.9,0.4
	c0.4,0.2,0.8,0.4,1.1,0.5c0.3,0.1,0.6,0.2,1,0.2c0.4,0,0.7-0.1,1-0.3c0.1-0.1,0.2-0.2,0.2-0.6c0-0.3-0.1-0.4-0.3-0.6
	c-0.3-0.2-0.8-0.5-1.5-0.9l0,0l-0.9-0.5l0,0l0,0c-0.9-0.5-1.7-1.1-2.2-1.9c-0.6-0.8-0.9-1.9-0.9-3.3c0-1.2,0.3-2.2,0.8-3
	c0.5-0.8,1.2-1.4,2-1.8c0.8-0.4,1.7-0.6,2.6-0.5h0c0.7,0,1.4,0.1,2,0.3c0.6,0.2,1.1,0.4,1.5,0.7l0,0c0.5,0.4,0.7,0.8,0.7,1.3
	c0,0.3-0.1,0.7-0.2,1.1c-0.1,0.4-0.3,0.7-0.5,1c-0.3,0.4-0.6,0.6-1,0.6c-0.2,0-0.4-0.1-0.6-0.2c-0.1-0.1-0.2-0.1-0.3-0.2
	c-0.4-0.2-0.8-0.2-1.3-0.2c-0.8,0-1,0.2-1,0.2c-0.2,0.2-0.2,0.3-0.2,0.4c0,0.2,0,0.4,0.1,0.5C90,5.9,90.1,6,90.3,6.1
	c0.3,0.1,0.6,0.4,1.1,0.6C92.2,7.1,92.9,7.4,93.4,7.8z M42.6,13.8c0-0.4-0.3-0.7-0.7-0.7l-3.2,0c-0.3,0-0.5-0.2-0.5-0.5l0-11.8
	c0-0.4-0.3-0.7-0.7-0.7l-3.7,0c-0.4,0-0.7,0.3-0.7,0.7l0,16.4c0,0.4,0.3,0.7,0.7,0.7l8.1,0c0.4,0,0.7-0.3,0.7-0.7c0,0,0,0,0,0
	L42.6,13.8z M9.4,8.3l0,3.3c0,0.4-0.4,0.8-0.8,0.8l-3.2,0c-0.2,0-0.3,0.2-0.3,0.3l0,4.5c0,0.4-0.4,0.8-0.8,0.8l-3.5,0
	C0.4,18,0,17.6,0,17.2L0,1.1c0-0.4,0.4-0.8,0.8-0.8c0,0,0,0,0,0l8.2,0c0.4,0,0.8,0.4,0.8,0.8c0,0,0,0,0,0l0,3.3
	c0,0.4-0.4,0.8-0.8,0.8l-3.6,0c-0.2,0-0.3,0.2-0.3,0.3l0,1.7c0,0.2,0.2,0.3,0.3,0.3l3.2,0C9.1,7.5,9.4,7.9,9.4,8.3z M16.6,9.5
	c0,0.2,0.2,0.4,0.5,0.4c0.2,0,0.4-0.2,0.4-0.4l-0.1-0.8c0-0.2-0.2-0.4-0.5-0.4c-0.2,0-0.4,0.2-0.4,0.4L16.6,9.5z M13.9,9.6
	c0,0.2,0.2,0.4,0.5,0.4c0.2,0,0.4-0.2,0.4-0.4l-0.1-0.8c0-0.2-0.2-0.4-0.5-0.4c-0.2,0-0.4,0.2-0.4,0.4L13.9,9.6z M22.4,17.1
	L22.4,17.1L18.6,0.8v0l0,0c-0.1-0.3-0.4-0.5-0.7-0.5l-4.6,0c-0.3,0-0.6,0.2-0.7,0.5l0,0L8.8,17.1v0c-0.1,0.2,0,0.4,0.1,0.6
	C9.1,17.9,9.3,18,9.5,18l3.3,0c0.3,0,0.6-0.2,0.7-0.5l1-3.6c0.1-0.2,0.2-0.4,0.4-0.4l1.4,0c0.2,0,0.4,0.1,0.5,0.3v0l0,0l1.1,3.6
	c0.1,0.3,0.4,0.5,0.7,0.5l3.4,0c0.4,0,0.7-0.3,0.7-0.7C22.4,17.2,22.4,17.2,22.4,17.1z M15.8,11.5c-1.7,0.1-3.3-1-3.4-2.8
	c-0.1-1.7,1.2-3.2,2.9-3.3c1.7-0.1,3.3,1.1,3.4,2.8C18.9,10,17.6,11.4,15.8,11.5z M31.8,13.1l-3.2,0c-0.3,0-0.5-0.2-0.5-0.5l0-11.8
	c0-0.4-0.3-0.7-0.7-0.7l-3.7,0c-0.4,0-0.7,0.3-0.7,0.7c0,0,0,0,0,0l0,16.4c0,0.4,0.3,0.7,0.7,0.7l8.1,0c0.2,0,0.4-0.1,0.6-0.3
	c0.1-0.1,0.1-0.2,0.1-0.4l0-3.4C32.5,13.4,32.2,13.1,31.8,13.1z"/>
</svg>
