<?xml version="1.0" encoding="UTF-8"?>
<svg xmlns="http://www.w3.org/2000/svg" xmlns:xlink="http://www.w3.org/1999/xlink" width="px" height="100px" viewBox="0 0 422 100" version="1.1">
<g id="surface1">
<path style=" stroke:none;fill-rule:evenodd;fill:rgb(100%,88.235294%,0%);fill-opacity:1;" d="M 41.921875 11.34375 L 46.808594 13.644531 L 51.722656 11.332031 L 46.824219 2.441406 Z M 46.808594 15.355469 L 33.925781 9.300781 L 26.152344 23.421875 L 11.679688 26.199219 L 13.359375 39.671875 L 2.558594 51.210938 L 13.382812 62.769531 L 11.699219 76.246094 L 26.132812 79.019531 L 33.914062 93.148438 L 46.828125 87.078125 L 59.714844 93.140625 L 67.488281 79.015625 L 81.957031 76.242188 L 80.285156 62.769531 L 91.078125 51.222656 L 80.253906 39.671875 L 81.941406 26.195312 L 67.511719 23.421875 L 59.726562 9.285156 L 46.808594 15.359375 Z M 65.109375 15.847656 L 68.515625 22.035156 L 74.210938 23.128906 L 75.746094 10.847656 Z M 19.417969 23.136719 L 25.148438 22.035156 L 28.550781 15.859375 L 17.890625 10.847656 Z M 81.878906 39.136719 L 86.523438 44.097656 L 93.636719 36.488281 L 82.480469 34.351562 Z M 0 36.488281 L 7.109375 44.085938 L 11.734375 39.136719 L 11.140625 34.355469 Z M 0 65.945312 L 11.160156 68.085938 L 11.761719 63.296875 L 7.113281 58.335938 Z M 81.90625 63.296875 L 82.496094 68.082031 L 93.632812 65.945312 L 86.53125 58.351562 L 81.902344 63.300781 Z M 68.488281 80.402344 L 65.085938 86.578125 L 75.746094 91.589844 L 74.21875 79.300781 L 68.488281 80.398438 Z M 17.890625 91.589844 L 28.535156 86.585938 L 25.128906 80.402344 L 19.425781 79.300781 Z M 41.914062 91.101562 L 46.808594 100 L 51.714844 91.089844 L 46.828125 88.789062 L 41.90625 91.101562 Z M 41.914062 91.101562 "/>
<path style=" stroke:none;fill-rule:evenodd;fill:rgb(0%,0%,0%);fill-opacity:1;" d="M 38.203125 39.882812 C 36.875 39.882812 35.796875 38.800781 35.796875 37.46875 C 35.796875 36.136719 36.875 35.058594 38.203125 35.058594 C 39.535156 35.058594 40.617188 36.140625 40.617188 37.476562 L 40.617188 39.882812 Z M 62.707031 35.972656 C 61.878906 35.972656 61.207031 36.644531 61.207031 37.472656 C 61.207031 38.800781 60.132812 39.878906 58.804688 39.882812 L 43.617188 39.882812 L 43.617188 37.476562 C 43.617188 34.484375 41.195312 32.058594 38.207031 32.054688 C 35.21875 32.054688 32.796875 34.480469 32.796875 37.472656 C 32.796875 40.464844 35.21875 42.890625 38.207031 42.890625 L 40.617188 42.890625 L 40.617188 51.238281 L 38.203125 51.238281 C 37.375 51.238281 36.703125 51.914062 36.703125 52.742188 C 36.703125 53.574219 37.375 54.246094 38.203125 54.246094 L 40.613281 54.246094 L 40.613281 62.585938 C 40.609375 63.914062 39.53125 64.988281 38.203125 64.984375 C 37.398438 65.019531 36.765625 65.679688 36.765625 66.484375 C 36.765625 67.292969 37.398438 67.953125 38.203125 67.988281 C 41.1875 67.988281 43.617188 65.5625 43.617188 62.585938 L 43.617188 54.246094 L 56.460938 54.246094 C 57.289062 54.246094 57.960938 53.574219 57.960938 52.746094 C 57.960938 51.914062 57.289062 51.242188 56.460938 51.242188 L 43.617188 51.242188 L 43.617188 42.886719 L 58.804688 42.886719 C 61.785156 42.882812 64.203125 40.460938 64.203125 37.476562 C 64.203125 36.644531 63.535156 35.972656 62.707031 35.972656 Z M 62.707031 35.972656 "/>
<path style=" stroke:none;fill-rule:evenodd;fill:rgb(100%,100%,100%);fill-opacity:1;" d="M 410.078125 20.421875 C 405.511719 20.414062 401.808594 16.707031 401.804688 12.136719 C 401.808594 7.5625 405.511719 3.855469 410.078125 3.851562 C 414.648438 3.855469 418.347656 7.5625 418.355469 12.136719 C 418.347656 16.707031 414.648438 20.414062 410.078125 20.421875 Z M 410.078125 2.410156 C 404.714844 2.410156 400.363281 6.765625 400.363281 12.136719 C 400.363281 17.507812 404.714844 21.863281 410.078125 21.863281 C 415.445312 21.863281 419.792969 17.507812 419.792969 12.136719 C 419.792969 6.765625 415.445312 2.410156 410.078125 2.410156 Z M 411.949219 11.382812 C 411.609375 11.621094 411.148438 11.738281 410.570312 11.738281 L 407.695312 11.738281 L 407.695312 8.515625 L 410.726562 8.515625 C 411.152344 8.515625 411.492188 8.582031 411.746094 8.710938 C 412.222656 8.953125 412.457031 9.414062 412.457031 10.085938 C 412.457031 10.710938 412.289062 11.140625 411.949219 11.382812 Z M 413.699219 16.0625 C 413.644531 15.796875 413.613281 15.53125 413.609375 15.261719 L 413.566406 13.996094 C 413.546875 13.449219 413.441406 13.050781 413.253906 12.808594 C 413.035156 12.539062 412.75 12.335938 412.425781 12.214844 C 412.820312 12.019531 413.160156 11.71875 413.402344 11.351562 C 413.652344 10.929688 413.773438 10.449219 413.753906 9.960938 C 413.753906 8.878906 413.316406 8.136719 412.449219 7.738281 C 411.992188 7.523438 411.410156 7.421875 410.703125 7.421875 L 406.421875 7.421875 L 406.421875 16.851562 L 407.695312 16.851562 L 407.695312 12.808594 L 410.519531 12.808594 C 411.027344 12.808594 411.398438 12.863281 411.636719 12.980469 C 412.050781 13.191406 412.273438 13.605469 412.300781 14.21875 L 412.382812 15.792969 C 412.394531 16.160156 412.417969 16.410156 412.445312 16.539062 C 412.46875 16.664062 412.503906 16.769531 412.546875 16.851562 L 414.113281 16.851562 L 414.113281 16.640625 C 413.914062 16.554688 413.78125 16.363281 413.699219 16.0625 Z M 192.863281 38.59375 C 190.644531 38.59375 189.90625 40.078125 189.90625 42.09375 L 189.90625 81.8125 C 189.90625 83.890625 190.847656 85.316406 192.863281 85.316406 C 194.875 85.316406 195.820312 83.890625 195.820312 81.816406 L 195.820312 42.089844 C 195.820312 40.078125 195.085938 38.589844 192.863281 38.589844 Z M 246.167969 50.496094 C 239.976562 50.496094 235.679688 55.078125 234.800781 56.554688 C 233.933594 55.144531 231.167969 50.496094 224.046875 50.496094 C 219.738281 50.496094 215.777344 51.988281 213.484375 56.09375 L 213.359375 55.953125 L 213.359375 53.59375 C 213.359375 51.988281 212.351562 50.898438 210.734375 50.898438 C 209.117188 50.898438 208.105469 51.988281 208.105469 53.59375 L 208.105469 81.8125 C 208.105469 83.828125 208.84375 85.316406 211.0625 85.316406 C 213.292969 85.316406 214.027344 83.828125 214.027344 81.816406 L 214.027344 65.589844 C 214.027344 60.199219 217.855469 56.023438 223.039062 56.023438 C 228.75 56.023438 230.703125 59.519531 230.703125 65.511719 L 230.703125 81.8125 C 230.703125 83.828125 231.457031 85.316406 233.664062 85.316406 C 235.871094 85.316406 236.613281 83.828125 236.613281 81.816406 L 236.613281 65.589844 C 236.613281 60.199219 240.449219 56.023438 245.640625 56.023438 C 251.347656 56.023438 253.292969 59.519531 253.292969 65.511719 L 253.292969 81.8125 C 253.292969 83.828125 254.027344 85.316406 256.257812 85.316406 C 258.46875 85.316406 259.207031 83.828125 259.207031 81.816406 L 259.207031 63.699219 C 259.207031 55.421875 254.636719 50.496094 246.167969 50.496094 Z M 390.136719 62.878906 L 379.644531 61.003906 C 377.292969 60.597656 374.8125 60.539062 374.8125 58.316406 C 374.8125 56.503906 376.359375 56.425781 377.828125 56.425781 L 391.617188 56.425781 C 393.492188 56.425781 394.847656 55.550781 394.847656 53.667969 C 394.847656 51.785156 393.492188 50.898438 391.617188 50.898438 L 377.898438 50.898438 C 372.855469 50.898438 368.886719 53.738281 368.886719 59.054688 C 368.886719 62.617188 371.507812 65.238281 376.898438 66.121094 L 387.519531 67.871094 C 391.207031 68.480469 392.222656 70.570312 392.222656 73.320312 C 392.222656 76.289062 390.46875 79.585938 385.09375 79.585938 L 371.316406 79.585938 C 369.34375 79.585938 368.082031 80.457031 368.082031 82.351562 C 368.082031 84.230469 369.34375 85.101562 371.316406 85.101562 L 385.496094 85.101562 C 392.960938 85.101562 397.726562 80.605469 397.726562 72.863281 C 397.726562 67.871094 395.65625 63.90625 390.136719 62.878906 Z M 322.382812 50.496094 C 318.082031 50.496094 315.1875 52.121094 313.90625 56.351562 L 313.78125 56.351562 L 313.78125 54.402344 C 313.78125 52.386719 313.035156 50.898438 310.816406 50.898438 C 308.601562 50.898438 307.863281 52.386719 307.863281 54.398438 L 307.863281 81.8125 C 307.863281 83.828125 308.601562 85.316406 310.816406 85.316406 C 313.039062 85.316406 313.78125 83.828125 313.78125 81.816406 L 313.78125 63.972656 C 313.78125 58.710938 317.949219 56.023438 322.863281 56.023438 C 325 56.023438 325.890625 55.015625 325.890625 53.136719 C 325.890625 51.183594 324.605469 50.496094 322.382812 50.496094 Z M 291.128906 72.992188 C 291.128906 78.832031 287.839844 80.925781 282.25 80.925781 C 277.214844 80.925781 274.316406 79.109375 274.316406 75.070312 C 274.316406 68.746094 283.402344 66.859375 291.128906 66.859375 Z M 286.554688 50.898438 L 274.117188 50.898438 C 272.160156 50.898438 270.890625 51.785156 270.890625 53.667969 C 270.890625 55.550781 272.164062 56.425781 274.117188 56.425781 L 285.679688 56.425781 C 289.785156 56.425781 291.128906 57.367188 291.128906 60.265625 L 291.128906 62.28125 C 282.449219 62.828125 268.402344 63.625 268.402344 75.335938 C 268.402344 81.746094 273.84375 85.507812 281.3125 85.507812 C 285.882812 85.507812 288.027344 84.296875 291.53125 81.683594 C 291.53125 83.828125 292.394531 85.101562 294.28125 85.101562 C 296.175781 85.101562 297.046875 83.828125 297.046875 81.683594 L 297.046875 63.023438 C 297.046875 57.035156 295.429688 50.898438 286.554688 50.898438 Z M 349.011719 63.296875 L 349.011719 63.164062 C 352.773438 61.878906 358.226562 57.503906 358.226562 53.136719 C 358.226562 51.65625 357.214844 50.433594 356.074219 50.433594 C 353.855469 50.433594 353.371094 51.988281 351.238281 55.015625 C 348.816406 58.585938 344.230469 61.003906 339.800781 61.003906 L 338.382812 61.003906 L 338.382812 42.09375 C 338.382812 40.078125 337.648438 38.59375 335.429688 38.59375 C 333.207031 38.59375 332.464844 40.078125 332.464844 42.09375 L 332.464844 81.8125 C 332.464844 83.828125 333.207031 85.316406 335.429688 85.316406 C 337.648438 85.316406 338.382812 83.828125 338.382812 81.816406 L 338.382812 65.316406 C 349.613281 66.859375 353.246094 70.425781 354.863281 81.867188 C 355.117188 83.773438 355.398438 85.316406 357.757812 85.316406 C 359.703125 85.316406 360.78125 84.292969 360.78125 82.140625 C 360.78125 74.46875 356.800781 65.652344 349.011719 63.296875 Z M 124.226562 30.925781 L 119.546875 30.925781 C 117.023438 30.84375 115.023438 28.773438 115.023438 26.246094 C 115.023438 23.722656 117.023438 21.652344 119.546875 21.570312 C 122.136719 21.570312 124.226562 23.671875 124.226562 26.246094 Z M 163.8125 23.152344 C 162.988281 23.148438 162.199219 23.472656 161.617188 24.054688 C 161.03125 24.632812 160.703125 25.421875 160.703125 26.246094 C 160.703125 27.488281 160.207031 28.679688 159.332031 29.554688 C 158.453125 30.433594 157.261719 30.925781 156.023438 30.925781 L 130.429688 30.925781 L 130.429688 26.246094 C 130.414062 20.238281 125.546875 15.371094 119.546875 15.363281 C 113.550781 15.378906 108.695312 20.242188 108.691406 26.246094 C 108.699219 32.246094 113.550781 37.113281 119.546875 37.128906 L 124.226562 37.128906 L 124.226562 53.515625 L 119.546875 53.515625 C 117.839844 53.515625 116.457031 54.914062 116.457031 56.621094 C 116.457031 58.328125 117.839844 59.710938 119.546875 59.710938 L 124.226562 59.710938 L 124.226562 76.183594 C 124.226562 78.773438 122.132812 80.875 119.546875 80.875 C 117.835938 80.875 116.453125 82.261719 116.453125 83.972656 C 116.453125 85.683594 117.835938 87.070312 119.546875 87.070312 C 125.550781 87.066406 130.417969 82.195312 130.429688 76.183594 L 130.429688 59.710938 L 155.871094 59.710938 C 157.582031 59.71875 158.976562 58.335938 158.980469 56.621094 C 158.980469 54.914062 157.589844 53.515625 155.875 53.515625 L 130.429688 53.515625 L 130.429688 37.128906 L 156.023438 37.128906 C 162.023438 37.117188 166.886719 32.25 166.894531 26.246094 C 166.894531 24.539062 165.515625 23.152344 163.8125 23.152344 Z M 174.582031 50.710938 C 172.355469 50.710938 171.613281 52.183594 171.613281 54.207031 L 171.613281 81.8125 C 171.613281 83.828125 172.355469 85.316406 174.582031 85.316406 C 176.792969 85.316406 177.542969 83.828125 177.542969 81.816406 L 177.542969 54.203125 C 177.542969 52.179688 176.792969 50.703125 174.582031 50.703125 Z M 174.582031 39.199219 C 172.421875 39.199219 171.417969 41.074219 171.417969 43.101562 C 171.417969 45.128906 172.421875 47 174.582031 47 C 176.726562 47 177.746094 45.128906 177.746094 43.101562 C 177.746094 41.074219 176.726562 39.199219 174.582031 39.199219 Z M 391.136719 25.386719 C 392.152344 24.046875 393.046875 22.628906 393.894531 21.164062 C 394.855469 19.476562 393.59375 18.058594 391.359375 18.058594 C 388.851562 18.058594 385.207031 18.109375 383.394531 18.183594 C 381.808594 18.253906 381.90625 20.640625 383.394531 20.59375 C 385.578125 20.542969 389.003906 20.417969 390.566406 20.441406 C 391.113281 20.441406 391.214844 20.84375 390.988281 21.261719 C 389.027344 24.960938 385.109375 28.9375 380.589844 30.503906 C 378.730469 31.148438 379.574219 33.585938 381.386719 32.914062 C 384.78125 31.621094 387.464844 29.609375 389.644531 27.175781 C 391.683594 28.390625 394.242188 30.652344 395.453125 32.167969 C 396.621094 33.632812 398.484375 31.699219 397.492188 30.304688 C 396.347656 28.710938 393.195312 26.628906 391.136719 25.386719 Z M 339.734375 25.164062 L 355.316406 25.164062 C 355.648438 25.183594 355.976562 25.0625 356.214844 24.832031 C 356.457031 24.601562 356.589844 24.277344 356.585938 23.945312 C 356.59375 23.609375 356.464844 23.28125 356.222656 23.046875 C 355.984375 22.8125 355.65625 22.6875 355.320312 22.703125 L 339.734375 22.703125 C 339.390625 22.691406 339.054688 22.820312 338.808594 23.058594 C 338.558594 23.296875 338.417969 23.625 338.417969 23.96875 C 338.417969 24.566406 338.84375 25.164062 339.734375 25.164062 Z M 376.9375 20.46875 C 377.855469 18.703125 376.195312 17.363281 374.28125 17.460938 C 373.289062 17.511719 372.074219 17.609375 371.007812 17.683594 L 371.183594 17.433594 C 372.347656 15.773438 369.867188 14.578125 369.046875 15.96875 C 367.90625 17.933594 364.679688 22.503906 362.296875 23.96875 C 360.609375 25.011719 362.074219 27.148438 363.738281 26.03125 C 365.445312 24.863281 367.632812 22.253906 369.320312 20.019531 C 370.4375 19.894531 372.246094 19.71875 373.289062 19.695312 C 373.882812 19.671875 374.085938 20.144531 373.882812 20.613281 C 372.050781 24.839844 367.953125 29.808594 362.449219 31.71875 C 360.386719 32.445312 361.402344 34.875 363.515625 34.054688 C 370.484375 31.300781 373.910156 26.253906 376.9375 20.46875 Z M 274.777344 30.703125 C 276.414062 29.722656 277.945312 28.574219 279.34375 27.273438 C 279.320312 29.335938 279.246094 31.96875 279.21875 33.308594 C 279.21875 34.179688 279.816406 34.605469 280.410156 34.578125 C 281.007812 34.550781 281.550781 34.082031 281.527344 33.261719 C 281.476562 31.472656 281.527344 26.851562 281.578125 24.9375 C 282.34375 24.046875 283.113281 23.074219 283.910156 22.007812 C 284.851562 20.714844 282.890625 19.324219 281.945312 20.8125 C 279.914062 24.015625 276.515625 27.324219 273.214844 28.9375 C 272.492188 29.289062 272.394531 30.058594 272.746094 30.550781 C 273.117188 31.074219 273.882812 31.253906 274.777344 30.703125 Z M 266.1875 17.710938 C 262.496094 17.652344 258.808594 17.695312 255.121094 17.835938 C 253.355469 17.910156 253.53125 20.34375 255.171875 20.296875 C 258.742188 20.171875 262.660156 20.019531 265.09375 20.09375 C 266.015625 20.121094 266.085938 20.738281 265.886719 21.410156 C 264.769531 25.0625 261.523438 29.585938 256.039062 31.324219 C 254.152344 31.917969 255.070312 34.527344 257.179688 33.734375 C 264.128906 31.074219 267.15625 26.253906 268.890625 21.289062 C 269.613281 19.25 268.195312 17.738281 266.183594 17.710938 Z M 308.207031 22.058594 C 306.769531 24.738281 304.808594 27.050781 302.675781 28.265625 C 302.199219 28.542969 301.90625 28.492188 301.929688 27.945312 C 301.953125 27.101562 302.203125 20.539062 302.230469 19.570312 C 302.1875 18.914062 301.644531 18.402344 300.988281 18.402344 C 300.332031 18.402344 299.789062 18.914062 299.746094 19.570312 C 299.746094 21.039062 299.574219 26.949219 299.398438 29.1875 C 299.222656 31.324219 300.988281 31.96875 302.597656 31.175781 C 305.976562 29.460938 308.753906 26.378906 310.46875 23.300781 C 311.332031 21.757812 309.101562 20.390625 308.207031 22.058594 Z M 333.203125 22.652344 C 334.714844 20.9375 333.101562 19.050781 330.871094 19.027344 C 326.75 18.953125 320.648438 19.078125 316.753906 19.152344 C 314.742188 19.199219 314.914062 21.734375 316.777344 21.660156 C 320.621094 21.511719 326.679688 21.410156 329.777344 21.433594 C 330.523438 21.433594 330.324219 21.957031 330.003906 22.28125 C 328.859375 23.421875 326.304688 25.386719 324.890625 26.253906 C 323.90625 25.574219 322.878906 24.957031 321.8125 24.414062 C 320.074219 23.523438 318.886719 25.660156 320.25 26.308594 C 322.261719 27.25 325.210938 29.808594 326.105469 31.222656 C 326.578125 31.996094 327.347656 32.015625 327.917969 31.648438 C 328.585938 31.222656 328.796875 30.34375 328.390625 29.660156 C 328.066406 29.0625 327.542969 28.46875 326.925781 27.871094 C 329.132812 26.429688 331.714844 24.367188 333.203125 22.652344 Z M 295.230469 20.070312 C 295.453125 24.8125 293.246094 28.640625 289.570312 30.28125 C 287.6875 31.121094 289.050781 33.511719 290.960938 32.441406 C 295.828125 29.734375 297.960938 24.566406 297.789062 19.871094 C 297.738281 18.28125 295.128906 18.15625 295.230469 20.070312 Z M 295.230469 20.070312 "/>
</g>
</svg>
