<?xml version="1.0" encoding="utf-8"?>
<!-- Generator: Adobe Illustrator 28.2.0, SVG Export Plug-In . SVG Version: 6.00 Build 0)  -->
<svg version="1.1" id="레이어_1" xmlns="http://www.w3.org/2000/svg" xmlns:xlink="http://www.w3.org/1999/xlink" x="0px"
	 y="0px" viewBox="0 0 79.9 22" style="enable-background:new 0 0 79.9 22;" xml:space="preserve">
<style type="text/css">
	.st0{fill:#FFFFFF;}
</style>
<path class="st0" d="M0,11c0,6,0,11,0,11c0,0,4.1-0.8,4.7-0.9l0.3,0V13h3.1v-0.7c0-0.4,0-1.5,0-2.3l0-1.6H5V4.8h1.8c1,0,1.8,0,1.8,0
	c0-0.1,0.4-4.3,0.4-4.5l0-0.2H0L0,11L0,11z M75.6,0.6l-4,0.3v19.9l0.2,0c0.1,0,7.9,0.6,8.1,0.6c0,0,0.1-0.5,0.1-2.5v-2.5h-3.4v-3.6
	h2.9V8.6h-3V5.8l0.1,0c0.1,0,0.6,0,1.1-0.1c0.6,0,1.3,0,1.7-0.1l0.6,0V0.3l-0.1,0C79.6,0.3,77.8,0.5,75.6,0.6z M49.7,1.3
	c0.1,0.5,0.6,8,0.6,8c0,0-0.7-1.8-1.7-4C48.1,4,47.5,2.6,47,1.3c0-0.1-1.4,0.2-3.7,0.7L43,2v17.2h4.5l0-0.4c0-0.7-0.2-6.2-0.2-6.4
	c0-0.2,0.2,0.1,1.6,3.6c0.9,2.1,1.6,3.8,1.6,3.8c0,0,0.7,0,1.9-0.1c1-0.1,1.9-0.2,1.9-0.2c0,0,0-3.6-0.1-8c0-4.4-0.1-8.5-0.1-9.2
	l0-1.2h-4.5L49.7,1.3L49.7,1.3z M14.1,1.4c-3,0.2-4.7,2.2-5.2,6.4c-0.1,0.9-0.1,3.8-0.1,4.8c0.3,3.3,1.2,5.4,2.8,6.5
	c0.9,0.6,2.2,0.9,3.4,0.8c1.5-0.1,2.5-0.5,3.3-1.4c0.7-0.7,1.1-1.4,1.5-2.6c0.5-1.6,0.8-4,0.7-6.5c-0.1-2.8-0.6-4.6-1.5-5.9
	c-0.8-1.3-2.2-2-3.7-2.1c-0.2,0-0.5,0-0.6,0C14.6,1.3,14.3,1.3,14.1,1.4z M14.8,5.3c0.4,0.4,0.5,2,0.5,5.3c0,4.1-0.3,5.9-0.8,5.5
	c-0.2-0.2-0.4-1-0.5-2.3c-0.1-1-0.1-5.4,0-6.4c0.1-1.3,0.3-2,0.5-2.2C14.7,5.1,14.7,5.1,14.8,5.3z M21.2,10.4v9.1h4.6l0-0.6
	c0-0.4,0.1-1.5,0.1-2.6c0-1.1,0.1-2,0.1-2.1c0-0.1,0.2,0.6,0.9,2.8c0.5,1.6,0.9,3,0.9,3c0,0,4.8-0.3,4.8-0.4c0,0-0.5-1.7-1.2-3.6
	l-1.2-3.6l0.3-0.2c0.8-0.7,1.5-2.1,1.7-3.5c0.1-0.6,0-2.1-0.1-2.7c-0.5-2.2-1.8-3.9-3.5-4.5c-0.7-0.3-0.7-0.3-4.2-0.3l-3.3,0
	L21.2,10.4L21.2,10.4z M26.4,5.6c0.4,0.2,0.7,0.6,0.8,1.2c0.1,0.4,0.1,1.7,0,2.1c-0.2,0.8-0.6,1.2-1.2,1.4l-0.1,0v-5l0.2,0
	C26.2,5.5,26.3,5.6,26.4,5.6z M32.5,3.7V6h2.6v13.4h4.8V6.8h2.6V2.2l-0.1,0c-0.1,0-9.7-0.8-9.9-0.8C32.5,1.4,32.5,1.9,32.5,3.7z
	 M55.3,10.9V20h5V1.9h-5V10.9z M66,2.5c-2.7,0.1-5,0.3-5.1,0.3c-0.1,0-0.1,0.2-0.1,2.3v2.3h2.6v13.1h4.9V6.9H71V4.6
	c0-1.3,0-2.3,0-2.3C71,2.3,68.7,2.4,66,2.5z"/>
</svg>
