<?xml version="1.0" encoding="utf-8"?>
<!-- Generator: Adobe Illustrator 28.2.0, SVG Export Plug-In . SVG Version: 6.00 Build 0)  -->
<svg version="1.1" id="레이어_1" xmlns="http://www.w3.org/2000/svg" xmlns:xlink="http://www.w3.org/1999/xlink" x="0px"
	 y="0px" viewBox="0 0 1403 255" style="enable-background:new 0 0 1403 255;" xml:space="preserve">
<style type="text/css">
	.st0{opacity:0.959;fill-rule:evenodd;clip-rule:evenodd;fill:#FFFFFF;enable-background:new    ;}
	.st1{opacity:0.957;fill-rule:evenodd;clip-rule:evenodd;fill:#FFFFFF;enable-background:new    ;}
	.st2{opacity:0.965;fill-rule:evenodd;clip-rule:evenodd;fill:#FFFFFF;enable-background:new    ;}
	.st3{opacity:0.966;fill-rule:evenodd;clip-rule:evenodd;fill:#FFFFFF;enable-background:new    ;}
	.st4{opacity:0.967;fill-rule:evenodd;clip-rule:evenodd;fill:#FFFFFF;enable-background:new    ;}
</style>
<g>
	<path class="st0" d="M337.5,254.5c-1.7,0-3.3,0-5,0c-10.5-26.4-21.4-52.7-32.5-79c-3.1-1-6.2-1.3-9.5-1c0.6,22.9,0.6,45.7,0,68.5
		c-25,0.5-50,0.7-75,0.5c0.7-78,1.2-156,1.5-234c1.2-1.4,2.7-2.2,4.5-2.5c32.8-6.8,65.8-8.6,99-5.5c26.5,2.5,49,13.2,67.5,32
		c18,26.4,22.4,55.1,13,86c-3.2,7.5-7.2,14.5-12,21c-6.7,6.2-13.5,12.2-20.5,18c12.9,27.5,26.1,54.8,39.5,82c0.5,2,0.7,4,0.5,6
		C384.7,249.1,361,251.8,337.5,254.5z M290.5,59.5c24.8-2.4,37.4,8.8,38,33.5c1.1,13.1-4.2,22.4-16,28c-7.2,2.2-14.3,3-21.5,2.5
		C289.5,102.1,289.3,80.8,290.5,59.5z"/>
</g>
<g>
	<path class="st1" d="M-0.5,140.5c0-9.3,0-18.7,0-28C0,87.1,6.8,63.4,20,41.5C37.2,16.8,61.1,3.3,91.5,1c24.3-2.6,47.3,1.7,69,13
		c30,21.2,44.9,50.4,44.5,87.5c-5.8,0.8-11.6,1.3-17.5,1.5c-21,0.7-42,0.7-63,0c-0.5-0.5-1-1-1.5-1.5c-0.2-11.8-2.5-23.1-7-34
		c-8.3-9.3-16.7-9.3-25,0c-5.6,12-8.3,24.7-8,38c-0.8,17.7-0.5,35.4,1,53c0.8,9.1,3.1,17.8,7,26c7.5,8.2,15.5,8.9,24,2
		c3-4.6,5-9.6,6-15c1.6-8.9,2.6-17.9,3-27c0.5-0.5,1-1,1.5-1.5c26.7-0.5,53.3-0.2,80,1c2.4,21.7-1.4,42.6-11.5,62.5
		c-15.4,26-38.2,40.8-68.5,44.5c-27.3,4-53.3,0-78-12C24.2,223.3,9.7,201.4,4,173.5C2.2,162.4,0.7,151.4-0.5,140.5z"/>
</g>
<g>
	<path class="st1" d="M680.5,3.5c16.3-0.2,32.7,0,49,0.5c1.3,0.3,2.4,0.8,3.5,1.5c16.3,81.7,32.7,163.4,49,245c-0.5,0.5-1,1-1.5,1.5
		c-25.7,0.7-51.3,0.7-77,0c-1.5-1.5-2.3-3.3-2.5-5.5c-1-10.6-2.5-21.1-4.5-31.5c-12-0.2-24-0.7-36-1.5c-2.3,0.7-4.6,1.2-7,1.5
		c-1.1,8.4-2.4,16.7-4,25c-8.6,1.1-17.3,1.6-26,1.5c-16.7-0.5-33.3-0.9-50-1c16.2-77.6,32-155.3,47.5-233c0.5-0.5,1-1,1.5-1.5
		C642,5,661.3,4.2,680.5,3.5z M674.5,68.5c5.5,29.1,10.2,58.4,14,88c-9,0-18,0-27,0C664.9,127,669.2,97.7,674.5,68.5z"/>
</g>
<g>
	<path class="st2" d="M557.5,4.5c3.9-0.3,7.8,0,11.5,1c1.2,21.3,1.6,42.7,1,64c-8,0.7-16,1.4-24,2c-0.8-0.1-1.4-0.5-2-1
		c-17.8,0.8-35.6,1.5-53.5,2c0,8.3,0,16.7,0,25c21.3,0,42.7,0,64,0c0.1,19.9,0.1,39.8,0,59.5c-21,0.5-42,0.7-63,0.5c0,8,0.3,16,1,24
		c25.6,1.4,51.3,2.2,77,2.5c1.3,21.4,1.3,42.9,0,64.5c-50.4-1.1-100.7-2.5-151-4c-1.6-78.7-3.1-157.3-4.5-236
		c1.7-0.7,3.6-1.2,5.5-1.5C465.7,6.4,511.7,5.6,557.5,4.5z"/>
</g>
<g>
	<path class="st3" d="M1161.5,4.5c25.7-0.2,51.3,0,77,0.5c1,0.5,1.7,1.4,2,2.5c-15.5,80.6-30.7,161.3-45.5,242
		c-0.4,0.9-0.9,1.8-1.5,2.5c-35,0.7-70,0.3-105-1c-1.9-0.3-3.8-0.8-5.5-1.5c-13.6-77.8-28.1-155.5-43.5-233
		c26.2-0.6,52.4-0.6,78.5,0c5.6,53.1,12.3,106.1,20,159c8.3-55.9,15.7-111.9,22-168C1160.5,6.5,1161,5.5,1161.5,4.5z"/>
</g>
<g>
	<path class="st4" d="M1402.5,6.5c0,21.3,0,42.7,0,64c-26.7,0.4-53.3,1.1-80,2c0,8.3,0,16.7,0,25c21.6-0.3,43.1,0,64.5,1
		c0.8,19.6,0.7,39.1-0.5,58.5c-20.7,0.5-41.3,0.7-62,0.5c-0.3,7.9,0,15.8,1,23.5c24,1.6,48,2.6,72,3c1.8,0.4,3.4,0.9,5,1.5
		c0,20.7,0,41.3,0,62c-3.2,0.6-6.6,1-10,1c-44-1.7-88-2.9-132-3.5c-3.6-0.2-7.1-0.7-10.5-1.5c-0.1-77.4-1.3-154.7-3.5-232
		c0.2-1.1,0.5-2.1,1-3c2.9-0.8,5.9-1.3,9-1.5c48.1-1.2,96.1-1.8,144-2C1401,5.7,1401.7,6.2,1402.5,6.5z"/>
</g>
<g>
	<path class="st1" d="M921.5,5.5c6-0.2,12,0,18,0.5c0.5,0.5,1,1,1.5,1.5c-0.3,22.6-0.6,45.3-1,68c-15.7,0.7-31.3,1.3-47,2
		c-0.3,56.1,0,112.1,1,168c-0.5,0.5-1,1-1.5,1.5c-25,0.8-50,0.7-75-0.5c-0.6-56.2-1.1-112.5-1.5-169c-15.7-0.7-31.3-1.3-47-2
		c-0.8-22.7-0.7-45.3,0.5-68C820.3,6.8,871,6.2,921.5,5.5z"/>
</g>
<g>
	<path class="st3" d="M953.5,6.5c24.9-0.3,49.7,0,74.5,1c0.6,77.3,1.4,154.7,2.5,232c0.1,2.4-0.6,4.6-2,6.5c-25,0.5-50,0.7-75,0.5
		c-0.6-79.3-1.1-158.7-1.5-238C952.7,8,953.2,7.3,953.5,6.5z"/>
</g>
</svg>
