<?xml version="1.0" encoding="utf-8"?>
<!-- Generator: Adobe Illustrator 28.2.0, SVG Export Plug-In . SVG Version: 6.00 Build 0)  -->
<svg version="1.1"
	 id="svg5" xmlns:svg="http://www.w3.org/2000/svg" xmlns:sodipodi="http://sodipodi.sourceforge.net/DTD/sodipodi-0.dtd" xmlns:inkscape="http://www.inkscape.org/namespaces/inkscape"
	 xmlns="http://www.w3.org/2000/svg" xmlns:xlink="http://www.w3.org/1999/xlink" x="0px" y="0px" viewBox="0 0 631.6 63.8"
	 style="enable-background:new 0 0 631.6 63.8;" xml:space="preserve">
<style type="text/css">
	.st0{fill:#FFFFFF;}
</style>
<g id="layer1" transform="translate(4.7365331,-21.365297)" inkscape:groupmode="layer" inkscape:label="Layer 1">
	<g id="g1067" transform="matrix(0.26458333,0,0,0.26458333,-88.654629,21.365297)">
		<path id="path916" class="st0" d="M317.2,235V5.5H414c25.7,0,45.8,4.9,60.4,14.6c13.9,8.6,22.3,23.9,21.9,40.2v2.2
			c0.2,10.6-2.7,21-8.5,29.9c-6.4,9.2-15.7,16-26.4,19.4v0.3c14.6,2.5,25.7,8.4,33.3,17.7c7.8,9.9,11.8,22.1,11.4,34.7v3.1
			c0,21-7.7,37.4-23.1,49.3C467.7,229,446.8,235,420.5,235H317.2z M406,92.5c3.7,0.4,7.5-0.7,10.5-2.9c2.1-2,3.1-5.5,3.1-10.6
			c0-4.9-1-8.3-3.1-10.2c-3.1-2.1-6.8-3.1-10.5-2.8h-4v26.5H406z M405.4,174.5c5.3,0,9.1-1.1,11.3-3.4c2.2-2.3,3.2-6.2,3.2-11.7
			c0-5.3-1.1-9.1-3.2-11.3c-2.2-2.2-5.9-3.2-11.3-3.2H402v29.6H405.4z"/>
		<path id="path918" class="st0" d="M736.3,235h-91.6l-3.4-28.1h-32.4l-3.7,28.1h-91.3L564.5,5.6h120.6L736.3,235z M622.5,99.3
			l-5.9,45.3h16.7l-5.6-45.3L625.2,78h-0.6L622.5,99.3z"/>
		<path id="path920" class="st0" d="M853.1,235h-88.5V77.1h-39.5V5.6h167.8v71.5h-39.8V235z"/>
		<path id="path922" class="st0" d="M1042.8,235h-88.5V77.1h-39.5V5.6h167.8v71.5h-39.8V235z"/>
		<path id="path924" class="st0" d="M1248.8,235H1101V5.5h88.8v157.9h58.9L1248.8,235z"/>
		<path id="path926" class="st0" d="M1427.3,235h-159.7V5.5h156.7v68.2h-67.8v15.4h60.4v60.7h-60.4v15.4h70.9L1427.3,235z"/>
		<path id="path928" class="st0" d="M1551.3,235V5.5H1653c31.2,0,54.4,6.1,69.5,18.3c15.1,12.2,22.7,29.5,22.7,51.7v4.9
			c0.4,12.8-2.5,25.4-8.5,36.7c-5.5,10-14.8,17.4-25.7,20.7v0.3c10.3,2.2,19,8.9,23.6,18.3c4.8,9.6,7.3,21.9,7.6,37.2V210
			c0.4,11.5,1.7,19.8,4,25h-87.6c-1.8-12-2.6-24.2-2.5-36.4v-10.8c0.2-4.9-1.1-9.8-3.7-14c-2.8-3.2-6.9-4.9-11.1-4.5h-1.2V235
			H1551.3z M1644.7,114.4c3.5,0.2,6.9-1.4,9.1-4.2c2.2-2.8,3.2-8.1,3.2-15.9V90c0-7.8-1.1-13.1-3.2-15.9c-2.2-2.8-5.6-4.3-9.1-4.2
			h-4.6v44.4L1644.7,114.4z"/>
		<path id="path930" class="st0" d="M1784.2,216c-16.8-16.5-25.1-41.1-25.1-73.5V98c0-32.3,8.4-56.7,25.1-73.2
			C1801,8.3,1825.5,0,1857.7,0c32.3,0,56.8,8.3,73.5,24.8c16.8,16.6,25.1,41,25.1,73.2v44.4c0,32.3-8.4,56.7-25.3,73.4
			s-41.3,25-73.4,25C1825.5,240.8,1801,232.5,1784.2,216z M1867.3,154.8V86.3c0-9.3-3.2-13.9-9.6-13.9c-6.2,0-9.3,4.6-9.3,13.9v68.5
			c0,9,3.1,13.6,9.3,13.6C1864.2,168.4,1867.3,163.8,1867.3,154.8z"/>
		<path id="path932" class="st0" d="M2102.9,235h-88.8v-59.5L1951.5,5.6h93.7l12,78l1.2,11.7h0.3l1.2-11.7l11.7-78h93.7l-62.6,169.9
			V235H2102.9z"/>
		<path id="path934" class="st0" d="M2362.6,235H2271l-3.4-28.1h-32.4l-3.7,28.1h-91.3l50.6-229.4h120.6L2362.6,235z M2248.8,99.3
			l-5.9,45.3h16.7l-5.6-45.3l-2.5-21.3h-0.6L2248.8,99.3z"/>
		<path id="path936" class="st0" d="M2525.7,235H2378V5.5h88.8v157.9h58.9V235z"/>
		<path id="path938" class="st0" d="M2704.3,235h-159.7V5.5h156.7v68.2h-67.8v15.4h60.4v60.7h-60.4v15.4h70.9L2704.3,235L2704.3,235
			z"/>
	</g>
</g>
</svg>
