<?xml version="1.0" encoding="utf-8"?>
<!-- Generator: Adobe Illustrator 28.2.0, SVG Export Plug-In . SVG Version: 6.00 Build 0)  -->
<svg version="1.1" id="레이어_1" xmlns="http://www.w3.org/2000/svg" xmlns:xlink="http://www.w3.org/1999/xlink" x="0px"
	 y="0px" viewBox="0 0 300.3 135.6" style="enable-background:new 0 0 300.3 135.6;" xml:space="preserve">
<style type="text/css">
	.st0{fill:#FFFFFF;}
</style>
<g transform="translate(0.000000,136.000000) scale(0.100000,-0.100000)">
	<path class="st0" d="M131,1353.7c-52-17-89-46-108-86c-22-46-26-127-9-172c16-42,68-92,130-123c67-34,81-50,77-87c-5-41-32-36-38,7
		l-5,35l-89,3l-89,3l6-60c6-70,32-118,79-146c51-31,178-28,235,4c78,45,107,163,64,256c-23,50-40,65-126,112c-66,36-70,41-70,73
		c0,50,29,48,33-2l3-38h85h84v48c0,67-34,130-84,156C266,1358.7,174,1366.7,131,1353.7z"/>
	<path class="st0" d="M508,1330.7c-2-7-26-147-53-311c-36-219-46-300-37-303c6-3,47-4,91-2l79,3l3,38c3,35,5,37,37,37
		c35,0,45-13,45-56c0-24,1-24,90-24c83,0,90,2,90,20s-85,540-95,588c-5,21-9,22-126,22C545,1342.7,511,1339.7,508,1330.7z
		 M646,1005.7c5-58,4-63-15-63s-20,4-14,53c3,28,6,70,7,92c1,39,1,39,9,10C637,1081.7,643,1039.7,646,1005.7z"/>
	<path class="st0" d="M829,1315.7c3-16,26-156,52-313l47-285l118-3c64-1,117-1,118,0c0,2,24,144,53,316l52,312h-92h-91l-13-157
		c-7-87-15-187-19-223c-7-65-7-64-19,65c-7,72-15,172-19,223l-6,92h-93h-93L829,1315.7z"/>
	<path class="st0" d="M1303,1027.7v-316l158,3l157,3v80v80l-72,3l-73,3v39v40h65h65v75v75h-66h-65l3,38l3,37l68,3l67,3v74v75h-155
		h-155V1027.7z"/>
	<path class="st0" d="M1863,1262.7v-80h40h40v-235v-236l88,3l87,3l3,233l2,232h40h40v80v80h-170h-170V1262.7z"/>
	<path class="st0" d="M2243,1027.7v-316l88,3l87,3l3,118c2,94,5,117,17,117s15-23,17-117l3-118l88-3l87-3v316v315h-90h-90v-115
		c0-96-3-115-15-115s-15,19-15,115v115h-90h-90V1027.7z"/>
	<path class="st0" d="M2683,1027.7v-315h160h160v85v85h-70h-70v40v40h60h60v75v75h-60h-60v40v40h65h65v75v75h-155h-155V1027.7z"/>
	<path class="st0" d="M1178,647.7c-47-17-88-61-104-114c-6-22-11-108-11-203c0-186,12-241,61-282c56-48,154-59,224-27
		c92,42,105,82,105,313c0,196-9,238-58,281C1346,659.7,1251,673.7,1178,647.7z M1277,486.7c3-9,6-78,6-154c0-146-4-170-26-170
		c-11,0-14,30-14,163c0,90,3,167,7,170C1261,506.7,1270,503.7,1277,486.7z"/>
	<path class="st0" d="M343,630.7c1-7,20-148,43-313l43-300h114h115l12,155c6,85,12,175,13,200l2,45l8-52c4-29,11-112,15-185
		c3-73,9-141,11-151c5-16,17-17,117-15l112,3l42,290c23,160,42,300,42,313c1,21-2,22-88,22h-88l-6-67c-4-38-10-126-13-196
		c-4-70-10-124-14-120s-13,85-19,178c-7,94-15,178-17,188c-5,15-18,17-99,17h-93l-5-32c-3-18-12-109-18-202c-14-189-23-186-33,9
		c-4,72-10,151-13,178l-6,47h-88C367,642.7,343,639.7,343,630.7z"/>
	<path class="st0" d="M1503,327.7v-314l88,2l87,2l3,103c2,92,10,119,26,93c3-5,6-31,6-57c1-27,4-70,7-96l5-48l84,1l84,1v94
		c0,102-15,155-48,173c-19,10-19,12,14,45c34,34,34,35,34,124c0,76-3,94-23,123c-39,59-73,69-229,69h-138V327.7z M1708,422.7
		c0-50-4-75-12-77c-10-4-13,16-13,77s3,81,13,78C1704,497.7,1708,472.7,1708,422.7z"/>
	<path class="st0" d="M1933,327.7v-315h119c65,0,133,3,150,6l31,6v79v79h-60h-60v230v230h-90h-90V327.7z"/>
	<path class="st0" d="M2265,330.7l3-313h135c147,1,178,9,219,61c35,45,42,96,39,272c-3,189-15,228-77,269c-31,21-45,23-178,23h-143
		L2265,330.7z M2481,329.7c2-152,2-157-18-157c-19,0-20,6-20,161c0,147,1,160,18,157C2476,487.7,2478,470.7,2481,329.7z"/>
</g>
</svg>
