<?xml version="1.0" encoding="UTF-8"?>
<svg xmlns="http://www.w3.org/2000/svg" version="1.1" xmlns:inkscape="http://www.inkscape.org/namespaces/inkscape" xmlns:sodipodi="http://sodipodi.sourceforge.net/DTD/sodipodi-0.dtd" xmlns:svg="http://www.w3.org/2000/svg" viewBox="0 0 1000.1 840.7">
  <defs>
    <style>
      .cls-1 {
        stroke-miterlimit: 10;
      }

      .cls-1, .cls-2 {
        fill: #fff;
        stroke: #fff;
      }

      .cls-2 {
        stroke-miterlimit: 28.2;
        stroke-width: 10.6px;
      }
    </style>
  </defs>
  <g id="svg2" inkscape:version="1.1 (c68e22c387, 2021-05-23)">
    <sodipodi:namedview id="namedview18" bordercolor="#666666" borderopacity="1.0" fit-margin-bottom="0" fit-margin-left="0" fit-margin-right="0" fit-margin-top="0" inkscape:current-layer="svg2" inkscape:cx="433.19014" inkscape:cy="268.33977" inkscape:pagecheckerboard="0" inkscape:pageopacity="0.0" inkscape:pageshadow="2" inkscape:window-height="705" inkscape:window-maximized="1" inkscape:window-width="1366" inkscape:window-x="-8" inkscape:window-y="-8" inkscape:zoom="0.54594964" pagecolor="#ffffff" showgrid="false"/>
    <g id="layer1">
      <path id="path68" class="cls-1" d="M251.5,131.5c-14.2-20.1-37.6-33.2-64-33.2-43.3,0-78.4,35.1-78.4,78.3s35.1,78.3,78.4,78.3,58.5-18.5,71-45.2h-69.2v-35.6h110.4c0,.8,0,1.7,0,2.5,0,11.5-1.7,22.7-5,33.1-14.1,45.9-56.9,79.3-107.4,79.3s-112.4-50.4-112.4-112.4,50.3-112.4,112.4-112.4,85.5,27.7,102.9,67.3h-38.9Z"/>
      <path id="path70" class="cls-1" d="M419.1,66.5h0s-142,213.9-142,213.9h44l30.3-45.7h67.7v45.8h36.6V66.5h-36.6ZM375.7,198l43.4-65.3v65.3h-43.4Z"/>
      <path id="path72" class="cls-1" d="M742.6,66.5h0s-97.9,147.4-97.9,147.4V66.5h-36.6s-142,213.9-142,213.9h44l98-147.6v147.7h36.6v-.3l97.9-147.5v147.7h36.6V66.5h-36.6,0Z"/>
      <path id="path74" class="cls-1" d="M920.1,103.1v-36.6h-111.3v214h36.6c0-.1,74.6-.1,74.6-.1v-36.6h-74.6v-49.9h74.6v-36.6h-74.6v-54.1h74.6Z"/>
      <path id="path86" class="cls-1" d="M562.5,456.5c11.7-26.4,29.4-66.2,29.4-66.2h-35.9l-18.9,42.6-28.2-26c12.9-10.4,24.2-23.5,24.2-45.3s-4.6-22.8-13-31.2c-9.6-9.5-23-15-37-15-24.2,0-49.2,17.3-49.2,46.2s11.1,33.2,22.1,42.8c-20.4,14.5-38.2,29.9-38.2,61.6s6.5,34.4,18.4,46.2c11.9,11.9,28.6,18.5,46.9,18.5,34.7,0,52-16.8,65.1-42.8l42.6,39.4,22.3-24.1-50.7-46.8ZM470.1,353.3c3.1-3.1,8.1-5,12.9-5s10.4,2.1,13.7,5.4c2.3,2.3,3.4,4.9,3.4,8,0,9.2-4.4,14.2-16.5,23.2-10.6-8.5-17-14.4-17-23.2s1.1-6,3.5-8.4M522.2,466.2c-11.3,25.3-19.4,31.8-39.2,31.8s-17.9-3.1-23.7-8.8c-5.7-5.7-8.7-13.7-8.7-23,0-17.3,8.9-24.1,30.7-39.2.1,0,.2-.2.3-.2l41.2,38.1-.7,1.5h0Z"/>
      <path id="path76" class="cls-1" d="M413.7,557.2h0l-142,213.9h44l30.3-45.7h67.7v45.8h36.6v-214h-36.6ZM370.3,688.8l43.4-65.3v65.3h-43.4Z"/>
      <path id="path78" class="cls-1" d="M114,771.1h0s97.9-147.5,97.9-147.5v147.5h36.6s142-213.9,142-213.9h-44l-98,147.6v-147.7h-36.6v.3l-97.9,147.4v-147.7h-36.6v214h36.6Z"/>
      <path id="path80" class="cls-1" d="M899,557.2v86.1h-66.1v-86.1h-36.6v213.9h36.6v-91.1h66.1v91.1h36.6v-213.9h-36.6Z"/>
      <path id="path82" class="cls-1" d="M584.2,557.2h-119.6v36.6h41.5v177.3h36.6v-177.3h41.4v-36.6Z"/>
      <path id="path84" class="cls-1" d="M744.5,713.4c-14.1,15.6-34.4,25.4-57.1,25.4-42.5,0-76.9-34.4-76.9-76.8s34.4-76.8,76.9-76.8,42.4,10,56.5,25.5h42.9c-18.8-35.7-56.2-60.9-99.4-60.9-62,0-112.3,50.3-112.3,112.3s50.3,112.3,112.3,112.3,81.1-24.8,99.8-60.9h-42.7Z"/>
      <path id="path2915" class="cls-2" d="M5.3,65v717.3s0,53.1,59.7,53.1h876.6s53.2,0,53.2-53.1V65s0-59.7-53.2-59.7H65S5.3,5.3,5.3,65h0Z"/>
    </g>
  </g>
</svg>