<?xml version="1.0" encoding="UTF-8"?>
<svg id="_레이어_1" data-name=" 레이어 1" xmlns="http://www.w3.org/2000/svg" version="1.1" xmlns:inkscape="http://www.inkscape.org/namespaces/inkscape" xmlns:sodipodi="http://sodipodi.sourceforge.net/DTD/sodipodi-0.dtd" xmlns:svg="http://www.w3.org/2000/svg" viewBox="0 0 1000.1 840.7">
  <defs>
    <style>
      .cls-1 {
        fill: #fff;
        stroke-width: 0px;
      }
    </style>
  </defs>
  <sodipodi:namedview id="namedview18" bordercolor="#666666" borderopacity="1.0" fit-margin-bottom="0" fit-margin-left="0" fit-margin-right="0" fit-margin-top="0" inkscape:current-layer="svg2" inkscape:cx="433.19014" inkscape:cy="268.33977" inkscape:pagecheckerboard="0" inkscape:pageopacity="0.0" inkscape:pageshadow="2" inkscape:window-height="705" inkscape:window-maximized="1" inkscape:window-width="1366" inkscape:window-x="-8" inkscape:window-y="-8" inkscape:zoom="0.54594964" pagecolor="#ffffff" showgrid="false"/>
  <g>
    <path class="cls-1" d="M483,498c19.8,0,27.9-6.5,39.2-31.8h0v.2c0,0,0-.2,0-.2h0s.6-1.3.6-1.3l-41.2-38.1c0,0-.2.2-.3.2-21.8,15.1-30.7,21.9-30.7,39.2s3,17.3,8.7,23c5.8,5.7,3.9,8.8,23.7,8.8Z"/>
    <polygon class="cls-1" points="419.1 132.7 375.7 198 419.1 198 419.1 132.7"/>
    <polygon class="cls-1" points="413.7 688.8 413.7 623.5 370.3 688.8 413.7 688.8"/>
    <polygon class="cls-1" points="562.5 456.4 562.4 456.4 562.5 456.5 562.5 456.4"/>
    <path class="cls-1" d="M483.6,384.9c12.1-9,16.5-14,16.5-23.2s-1.1-5.7-3.4-8c-3.3-3.3-8.9-5.4-13.7-5.4s-9.8,1.9-12.9,5c-2.4,2.4-3.5-.4-3.5,8.4s6.4,14.7,17,23.2Z"/>
    <path class="cls-1" d="M993,33c-6.7-15.1-21.1-33-51.4-33H65c-.7,0-16.4,0-32.2,8C17.8,15.5,0,31.5,0,65v717.3c0,.6,0,14.8,8.1,29.1,7.5,13.3,23.5,29.3,56.9,29.3h876.6c.6,0,14.7,0,29-7.2,13.5-6.7,29.5-21.1,29.5-51.2V65c0-.7,0-16.2-7.1-32ZM808.8,66.5h111.3v36.6h0c0,.1-74.7.1-74.7.1v54.1h74.6v36.6h-74.6v49.9h74.6v36.6s-74.6,0-74.6.1h-36.6V66.5ZM608.1,66.5h36.6v147.4l97.9-147.4h36.6v213.9h-36.6v-147.7l-97.9,147.5v.3h-36.6v-147.7l-98,147.6h-44l142-213.9ZM433.9,361.6c0-28.9,25-46.2,49.2-46.2s27.4,5.5,37,15c8.4,8.4,13,9.4,13,31.2s-11.3,34.9-24.2,45.3l28.2,26,18.9-42.6h35.9s-17.7,39.8-29.4,66.2l50.6,46.7-22.3,24.1-42.6-39.4c-13.1,26-30.4,42.8-65.1,42.8s-35-6.6-46.9-18.5c-11.9-11.8-18.4-14.5-18.4-46.2s17.8-47.1,38.2-61.6c-11-9.6-22.1-13.9-22.1-42.8ZM455.7,66.5v214h-36.6v-45.8h-67.7l-30.3,45.7h-44l142-213.9h36.6ZM187.3,64.2c62.1,0,85.5,27.7,102.9,67.3h-38.7c-14.2-20.1-37.6-33.2-64-33.2-43.3,0-78.4,35.1-78.4,78.3s35.1,78.3,78.4,78.3,58.5-18.5,71-45.2h-69.2v-35.6h110.4v2.5c0,11.5-1.7,22.7-5,33.1-14.1,45.9-56.9,79.3-107.4,79.3s-112.4-50.4-112.4-112.4,50.3-112.4,112.4-112.4ZM211.9,771.1v-147.5l-97.9,147.5h0s-36.6,0-36.6,0v-214h36.6v147.7l97.9-147.4v-.3h36.6v147.7l98-147.6h44l-142,213.9h-36.6ZM450.3,771.2h-36.6v-45.8h-67.7l-30.3,45.7h-44l142-213.9h0s36.6,0,36.6,0v214ZM542.7,771.1h-36.6v-177.3h-41.5v-36.6h119.5v36.6h-41.4v177.3ZM687.4,774.4c-62,0-112.3-50.3-112.3-112.3s50.3-112.3,112.3-112.3,80.6,25.2,99.4,60.9h-42.9c-14.1-15.5-14-25.5-56.5-25.5s-76.9,34.4-76.9,76.8,34.4,76.8,76.9,76.8,43-9.8,57.1-25.4h0c0,0,42.7,0,42.7,0-18.7,36.1-37.8,60.9-99.8,60.9ZM935.6,771.1h-36.6v-91.1h-66.1v91.1h-36.6v-213.9h36.6v86.1h66.1v-86.1h0s36.6,0,36.6,0v213.9Z"/>
  </g>
</svg>