<?xml version="1.0" encoding="UTF-8" standalone="no"?>
<svg
   xmlns:dc="http://purl.org/dc/elements/1.1/"
   xmlns:cc="http://creativecommons.org/ns#"
   xmlns:rdf="http://www.w3.org/1999/02/22-rdf-syntax-ns#"
   xmlns:svg="http://www.w3.org/2000/svg"
   xmlns="http://www.w3.org/2000/svg"
   xmlns:xlink="http://www.w3.org/1999/xlink"
   xmlns:sodipodi="http://sodipodi.sourceforge.net/DTD/sodipodi-0.dtd"
   xmlns:inkscape="http://www.inkscape.org/namespaces/inkscape"
   width="702.57227"
   height="123.02448"
   viewBox="0 0 702.57226 123.02448"
   version="1.1"
   id="svg4532"
   sodipodi:docname="Google_TV_2020.svg"
   style="fill:none"
   inkscape:version="1.0.2-2 (e86c870879, 2021-01-15)">
  <metadata
     id="metadata4538">
    <rdf:RDF>
      <cc:Work
         rdf:about="">
        <dc:format>image/svg+xml</dc:format>
        <dc:type
           rdf:resource="http://purl.org/dc/dcmitype/StillImage" />
        <dc:title />
      </cc:Work>
    </rdf:RDF>
  </metadata>
  <defs
     id="defs4536">
    <linearGradient
       id="linearGradient4501">
      <stop
         id="stop4503"
         offset="0"
         style="stop-color:#196eef;stop-opacity:1" />
      <stop
         style="stop-color:#186dee;stop-opacity:1"
         offset="0.5"
         id="stop4509" />
      <stop
         id="stop4505"
         offset="1"
         style="stop-color:#1065e7;stop-opacity:1" />
    </linearGradient>
    <linearGradient
       id="linearGradient4511">
      <stop
         id="stop4513"
         offset="0"
         style="stop-color:#de5744;stop-opacity:1" />
      <stop
         style="stop-color:#db4632;stop-opacity:1"
         offset="0.5"
         id="stop4523" />
      <stop
         id="stop4515"
         offset="1"
         style="stop-color:#d13d29;stop-opacity:1" />
    </linearGradient>
    <linearGradient
       id="linearGradient4535">
      <stop
         id="stop4537"
         offset="0"
         style="stop-color:#1a6fef;stop-opacity:1" />
      <stop
         style="stop-color:#1e72ef;stop-opacity:1"
         offset="0.25"
         id="stop4547" />
      <stop
         style="stop-color:#166bec;stop-opacity:1"
         offset="0.5"
         id="stop4545" />
      <stop
         style="stop-color:#1267e9;stop-opacity:1"
         offset="0.75"
         id="stop4543" />
      <stop
         id="stop4539"
         offset="1"
         style="stop-color:#1063e5;stop-opacity:0.87450981" />
    </linearGradient>
    <linearGradient
       id="linearGradient4551">
      <stop
         id="stop4553"
         offset="0"
         style="stop-color:#0aa561;stop-opacity:1" />
      <stop
         style="stop-color:#009b58;stop-opacity:1"
         offset="0.5"
         id="stop4559" />
      <stop
         id="stop4555"
         offset="1"
         style="stop-color:#00914b;stop-opacity:1" />
    </linearGradient>
    <linearGradient
       id="linearGradient4561">
      <stop
         id="stop4563"
         offset="0"
         style="stop-color:#de5644;stop-opacity:1" />
      <stop
         style="stop-color:#da4531;stop-opacity:1"
         offset="0.5"
         id="stop4569" />
      <stop
         id="stop4565"
         offset="1"
         style="stop-color:#ce3a28;stop-opacity:1" />
    </linearGradient>
    <linearGradient
       gradientTransform="matrix(1.8017479,0,0,1.8017479,3716.8332,-2503.325)"
       gradientUnits="userSpaceOnUse"
       y2="3068.1067"
       x2="-4342.5"
       y1="2979.1479"
       x1="-4342.5"
       id="linearGradient4531"
       xlink:href="#linearGradient4525"
       inkscape:collect="always" />
    <linearGradient
       id="linearGradient4525">
      <stop
         id="stop4527"
         offset="0"
         style="stop-color:#ffc01a;stop-opacity:1" />
      <stop
         style="stop-color:#ffba03;stop-opacity:1"
         offset="0.5"
         id="stop4533" />
      <stop
         id="stop4529"
         offset="1"
         style="stop-color:#ffb300;stop-opacity:1" />
    </linearGradient>
    <linearGradient
       gradientTransform="matrix(1.8017479,0,0,1.8017479,3716.8332,-2503.325)"
       gradientUnits="userSpaceOnUse"
       y2="3070.1477"
       x2="-4561.0913"
       y1="2932.0034"
       x1="-4561.0913"
       id="linearGradient4507"
       xlink:href="#linearGradient4501"
       inkscape:collect="always" />
    <linearGradient
       gradientTransform="matrix(1.8017479,0,0,1.8017479,3716.8332,-2503.325)"
       gradientUnits="userSpaceOnUse"
       y2="3068.3008"
       x2="-4444.6431"
       y1="2978.9692"
       x1="-4444.6431"
       id="linearGradient4517"
       xlink:href="#linearGradient4511"
       inkscape:collect="always" />
    <linearGradient
       gradientTransform="matrix(1.8017479,0,0,1.8017479,3718.2618,-2503.325)"
       gradientUnits="userSpaceOnUse"
       y2="3122.3982"
       x2="-4248.9287"
       y1="2978.9692"
       x1="-4248.9287"
       id="linearGradient4541"
       xlink:href="#linearGradient4535"
       inkscape:collect="always" />
    <linearGradient
       gradientTransform="matrix(1.8017479,0,0,1.8017479,3717.9046,-2502.2536)"
       gradientUnits="userSpaceOnUse"
       y2="3065.79"
       x2="-4184.2856"
       y1="2934.5051"
       x1="-4184.2856"
       id="linearGradient4557"
       xlink:href="#linearGradient4551"
       inkscape:collect="always" />
    <linearGradient
       gradientTransform="matrix(1.8017479,0,0,1.8017479,3716.8332,-2503.325)"
       gradientUnits="userSpaceOnUse"
       y2="3068.1067"
       x2="-4118.3931"
       y1="2978.9692"
       x1="-4118.3931"
       id="linearGradient4567"
       xlink:href="#linearGradient4561"
       inkscape:collect="always" />
  </defs>
  <sodipodi:namedview
     pagecolor="#ffffff"
     bordercolor="#666666"
     borderopacity="1"
     objecttolerance="10"
     gridtolerance="10"
     guidetolerance="10"
     inkscape:pageopacity="0"
     inkscape:pageshadow="2"
     inkscape:window-width="1366"
     inkscape:window-height="705"
     id="namedview4534"
     showgrid="false"
     inkscape:zoom="1"
     inkscape:cx="414.45687"
     inkscape:cy="34.58971"
     inkscape:window-x="-8"
     inkscape:window-y="-8"
     inkscape:window-maximized="1"
     inkscape:current-layer="layer10"
     inkscape:snap-global="true"
     inkscape:document-rotation="0"
     inkscape:snap-bbox="false"
     inkscape:bbox-nodes="true"
     inkscape:bbox-paths="false"
     inkscape:snap-bbox-edge-midpoints="false"
     inkscape:snap-nodes="true"
     showguides="true"
     inkscape:guide-bbox="true" />
  <g
     inkscape:groupmode="layer"
     id="layer10"
     inkscape:label="Layer 1"
     transform="translate(102.79819,12.000402)">
    <g
       id="g9396">
      <path
         id="path4522"
         style="clip-rule:evenodd;fill:#767676;fill-opacity:1;fill-rule:evenodd;stroke:none;stroke-width:1.41367"
         d="m 470.62954,2.675379 v 9.90625 H 492.944 v 70.378907 h 10.1875 V 12.581629 h 22.18945 v -9.90625 z m 61.39649,0 27.99609,80.285157 h 10.66992 L 599.77408,2.675379 H 588.3815 L 565.47915,67.796473 543.42642,2.675379 Z"
         sodipodi:nodetypes="ccccccccccccccccc" />
      <g
         id="g9367">
        <path
           style="fill:#4285f4;fill-opacity:1;stroke:none;stroke-width:1.41367"
           d="m 18.590274,-12.000402 h -82.467915 c -7.155306,0 -12.976572,5.8696431 -12.976572,13.0844283 V 14.168457 H 23.683768 c 7.155364,0 12.976325,5.869662 12.976325,13.084429 V 6.2199508 c 0,-10.1495996 -8.125116,-18.2203528 -18.069819,-18.2203528 z"
           id="path4524"
           sodipodi:nodetypes="cccccccc" />
        <path
           style="fill:#34a853;fill-opacity:1;stroke:none;stroke-width:1.41367"
           d="m -84.728005,-12.000402 c -9.944702,0 -18.070185,8.1930646 -18.070185,18.2203528 V 51.342656 c 0,7.215013 5.821253,13.084553 12.97657,13.084553 h 12.976508 V 1.0840263 c 0,-7.2147801 5.821267,-13.0844283 12.976571,-13.0844283 z"
           id="path4526"
           sodipodi:nodetypes="cccccccc" />
        <path
           style="fill:#fbbc05;fill-opacity:1;stroke:none;stroke-width:1.41367"
           d="m -84.728005,90.580941 h 82.4677325 c 7.155367,0 12.9769395,-5.869539 12.9769395,-13.084553 V 64.411836 H -89.82162 c -7.155317,0 -12.97657,-5.869541 -12.97657,-13.084554 v 21.155553 c 0,9.904734 8.004217,18.098106 18.070185,18.098106 z"
           id="path4528"
           sodipodi:nodetypes="cccccccc" />
        <path
           style="fill:#ea4335;fill-opacity:1;stroke:none;stroke-width:1.41367"
           d="m 18.589044,90.623371 c 9.944704,0 18.070434,-8.192757 18.070434,-18.220477 V 27.28025 c 0,-7.214767 -5.821575,-13.084429 -12.976325,-13.084429 h -12.97694 v 63.343613 c 0,7.214398 -5.8209578,13.083937 -12.9763248,13.083937 z"
           id="path4530"
           sodipodi:nodetypes="cccccccc" />
      </g>
      <path
         id="path1847"
         style="fill:#767676;fill-opacity:1;stroke:none;stroke-width:1.32192"
         d="M 131.95434,47.810017 V 35.370793 h 41.91798 c 0.40979,2.167949 0.6213,4.732468 0.6213,7.508482 0,9.332723 -2.63463,20.790565 -10.77362,29.095395 -8.08176,8.246413 -18.21602,12.76971 -31.75244,12.76971 -25.08998,0 -46.18777,-20.436845 -46.18777,-45.526808 0,-25.089985 21.09779,-45.5268084 46.18777,-45.5268084 13.88012,0 23.76806,5.44628093 31.19723,12.5449709 l -8.77753,8.7775415 c -5.32732,-4.996848 -12.54498,-8.8832893 -22.43292,-8.8832893 -18.32177,0 -32.651344,14.7658043 -32.651344,33.0875853 0,18.321759 14.329574,33.087563 32.651344,33.087563 11.88403,0 18.65224,-4.772109 22.98813,-9.108006 3.5163,-3.516292 5.82965,-8.539582 6.74177,-15.400334 z m 299.71818,17.277459 9.99367,6.662456 c -3.22547,4.772131 -10.99833,12.994448 -24.42901,12.994448 -16.65615,0 -29.09538,-12.875479 -29.09538,-29.320113 0,-17.436092 12.54497,-29.320112 27.65449,-29.320112 15.21525,0 22.65765,12.108759 25.08998,18.652246 l 1.33514,3.331217 -39.19483,16.233138 c 3.00075,5.882537 7.66711,8.883289 14.2106,8.883289 6.55671,0 11.1041,-3.225469 14.43534,-8.116569 z M 400.91151,54.538578 427.1119,43.659216 c -1.44089,-3.661725 -5.77679,-6.213022 -10.87938,-6.213022 -6.54349,0 -15.65149,5.776788 -15.32101,17.092384 z M 382.73516,-2.964798 V 82.959781 H 370.17695 V -2.964798 Z m -20.15924,83.492271 c 0,21.652977 -12.76971,30.496607 -27.866,30.496607 -14.2106,0 -22.7634,-9.50458 -25.98887,-17.277442 l 11.20985,-4.666383 c 1.99609,4.772131 6.88717,10.403486 14.7658,10.403486 9.66321,0 15.65149,-5.961842 15.65149,-17.184911 v -4.216906 h -0.44945 c -2.88179,3.555955 -8.43384,6.662456 -15.43998,6.662456 -14.66005,0 -28.09074,-12.76971 -28.09074,-29.201144 0,-16.550403 13.43069,-29.42586 28.09074,-29.42586 6.99294,0 12.54499,3.106501 15.43998,6.556709 h 0.44945 v -4.772131 h 12.22773 z m -11.3156,-24.984237 c 0,-10.324159 -6.88719,-17.872304 -15.65149,-17.872304 -8.88329,0 -16.32568,7.548145 -16.32568,17.872304 0,10.218412 7.44239,17.660809 16.32568,17.660809 8.7643,0 15.65149,-7.442397 15.65149,-17.660809 z m -49.49257,-0.105747 c 0,16.880867 -13.20595,29.320112 -29.41264,29.320112 -16.2067,0 -29.41265,-12.439245 -29.41265,-29.320112 0,-16.986637 13.20595,-29.320113 29.41265,-29.320113 16.20669,0 29.41264,12.320254 29.41264,29.320113 z m -12.87546,0 c 0,-10.548898 -7.65389,-17.766557 -16.53718,-17.766557 -8.88329,0 -16.53718,7.217659 -16.53718,17.766557 0,10.443128 7.65389,17.766556 16.53718,17.766556 8.88329,0 16.53718,-7.336628 16.53718,-17.766556 z m -50.57653,0 c 0,16.880867 -13.20595,29.320112 -29.41265,29.320112 -16.2067,0 -29.41265,-12.439245 -29.41265,-29.320112 0,-16.999859 13.20595,-29.320113 29.41265,-29.320113 16.2067,0 29.41265,12.320254 29.41265,29.320113 z m -12.87547,0 c 0,-10.548898 -7.6539,-17.766557 -16.53718,-17.766557 -8.88328,0 -16.53718,7.217659 -16.53718,17.766557 0,10.443128 7.6539,17.766556 16.53718,17.766556 8.88328,0 16.53718,-7.336628 16.53718,-17.766556 z"
         sodipodi:nodetypes="cccccccccccccccccccccccccccccccccccccccccccccccccccccccccccccccccccccccccccc" />
    </g>
  </g>
</svg>
