<?xml version="1.0" encoding="UTF-8"?>
<svg xmlns="http://www.w3.org/2000/svg" xmlns:xlink="http://www.w3.org/1999/xlink" width="303px" height="100px" viewBox="0 0 303 100" version="1.1">
<g id="surface1">
<path style=" stroke:none;fill-rule:nonzero;fill:rgb(91.764706%,26.27451%,20.784314%);fill-opacity:1;" d="M 129.664062 52.625 C 129.664062 67.003906 118.441406 77.597656 104.664062 77.597656 C 90.886719 77.597656 79.660156 67.003906 79.660156 52.625 C 79.660156 38.144531 90.886719 27.648438 104.664062 27.648438 C 118.441406 27.648438 129.664062 38.144531 129.664062 52.625 Z M 118.722656 52.625 C 118.722656 43.636719 112.214844 37.488281 104.664062 37.488281 C 97.113281 37.488281 90.605469 43.636719 90.605469 52.625 C 90.605469 61.519531 97.113281 67.757812 104.664062 67.757812 C 112.214844 67.757812 118.722656 61.507812 118.722656 52.625 Z M 118.722656 52.625 "/>
<path style=" stroke:none;fill-rule:nonzero;fill:rgb(98.431373%,73.72549%,1.960784%);fill-opacity:1;" d="M 183.605469 52.625 C 183.605469 67.003906 172.378906 77.597656 158.601562 77.597656 C 144.824219 77.597656 133.597656 67.003906 133.597656 52.625 C 133.597656 38.15625 144.824219 27.648438 158.601562 27.648438 C 172.378906 27.648438 183.605469 38.144531 183.605469 52.625 Z M 172.660156 52.625 C 172.660156 43.636719 166.152344 37.488281 158.601562 37.488281 C 151.050781 37.488281 144.542969 43.636719 144.542969 52.625 C 144.542969 61.519531 151.050781 67.757812 158.601562 67.757812 C 166.152344 67.757812 172.660156 61.507812 172.660156 52.625 Z M 172.660156 52.625 "/>
<path style=" stroke:none;fill-rule:nonzero;fill:rgb(25.882353%,52.156863%,95.686275%);fill-opacity:1;" d="M 235.296875 29.15625 L 235.296875 73.996094 C 235.296875 92.4375 224.441406 99.972656 211.609375 99.972656 C 199.527344 99.972656 192.257812 91.875 189.515625 85.253906 L 199.042969 81.28125 C 200.742188 85.34375 204.898438 90.140625 211.597656 90.140625 C 219.8125 90.140625 224.902344 85.0625 224.902344 75.503906 L 224.902344 71.910156 L 224.519531 71.910156 C 222.070312 74.941406 217.351562 77.585938 211.394531 77.585938 C 198.933594 77.585938 187.515625 66.710938 187.515625 52.714844 C 187.515625 38.617188 198.933594 27.648438 211.394531 27.648438 C 217.339844 27.648438 222.058594 30.292969 224.519531 33.234375 L 224.902344 33.234375 L 224.902344 29.167969 L 235.296875 29.167969 Z M 225.675781 52.714844 C 225.675781 43.917969 219.820312 37.488281 212.371094 37.488281 C 204.820312 37.488281 198.492188 43.917969 198.492188 52.714844 C 198.492188 61.417969 204.820312 67.757812 212.371094 67.757812 C 219.820312 67.757812 225.675781 61.417969 225.675781 52.714844 Z M 225.675781 52.714844 "/>
<path style=" stroke:none;fill-rule:nonzero;fill:rgb(20.392157%,65.882353%,32.54902%);fill-opacity:1;" d="M 252.433594 2.875 L 252.433594 76.066406 L 241.757812 76.066406 L 241.757812 2.875 Z M 252.433594 2.875 "/>
<path style=" stroke:none;fill-rule:nonzero;fill:rgb(91.764706%,26.27451%,20.784314%);fill-opacity:1;" d="M 294.03125 60.84375 L 302.527344 66.519531 C 299.785156 70.582031 293.179688 77.585938 281.761719 77.585938 C 267.601562 77.585938 257.027344 66.621094 257.027344 52.613281 C 257.027344 37.761719 267.691406 27.636719 280.535156 27.636719 C 293.472656 27.636719 299.796875 37.953125 301.863281 43.527344 L 303 46.363281 L 269.683594 60.191406 C 272.234375 65.203125 276.199219 67.757812 281.761719 67.757812 C 287.335938 67.757812 291.199219 65.011719 294.03125 60.84375 Z M 267.882812 51.859375 L 290.15625 42.589844 C 288.929688 39.472656 285.246094 37.296875 280.90625 37.296875 C 275.34375 37.296875 267.601562 42.21875 267.882812 51.859375 Z M 267.882812 51.859375 "/>
<path style=" stroke:none;fill-rule:nonzero;fill:rgb(25.882353%,52.156863%,95.686275%);fill-opacity:1;" d="M 39.25 46.125 L 39.25 35.53125 L 74.882812 35.53125 C 75.234375 37.378906 75.414062 39.5625 75.414062 41.925781 C 75.414062 49.875 73.242188 59.707031 66.253906 66.710938 C 59.457031 73.804688 50.769531 77.585938 39.261719 77.585938 C 17.933594 77.585938 0 60.179688 0 38.808594 C 0 17.433594 17.933594 0.0273438 39.261719 0.0273438 C 51.0625 0.0273438 59.46875 4.667969 65.78125 10.714844 L 58.320312 18.191406 C 53.792969 13.933594 47.65625 10.625 39.25 10.625 C 23.675781 10.625 11.496094 23.199219 11.496094 38.808594 C 11.496094 54.414062 23.675781 66.992188 39.25 66.992188 C 49.355469 66.992188 55.105469 62.925781 58.792969 59.234375 C 61.78125 56.238281 63.75 51.960938 64.523438 46.113281 Z M 39.25 46.125 "/>
</g>
</svg>
