<?xml version="1.0" encoding="UTF-8"?>
<svg id="Layer_1" data-name="Layer 1" xmlns="http://www.w3.org/2000/svg" viewBox="0 0 16187 2371">
  <defs>
    <style>
      .cls-1 {
        fill: #fff;
      }
    </style>
  </defs>
  <path class="cls-1" d="m54,2317v-452h160.1c-22.2-8.9-44.2-20.5-65.8-34.9-78-51.9-94.3-116.4-94.3-161.4V617.8c0-32.8,8.6-64.1,25.5-92.9,15.7-26.7,38.8-51.4,68.7-73.4l1.1-.8,1.2-.8c52.2-34.5,109.6-52,170.3-52h801.2v1701.7c0,33.6-9.3,65.1-27.5,93.6-16.7,26.1-41.1,49.8-72.5,70.3-51.9,35.4-108,53.4-166.8,53.4H54Zm15277.8-431c-58.8,0-116.8-18.8-172.5-55.9-78-51.9-94.3-116.4-94.3-161.4h0c0,44.9-16.4,109.4-94.4,161.4-55.7,37.1-113.7,55.9-172.4,55.9h-534.4c-58.9,0-115-18-166.9-53.5-31-20.5-55.1-44.2-71.7-70.2-18-28.3-27.5-59.5-28.1-92.7v-.5s0-732,0-732h-70v731.7c0,45-16.4,109.5-94.4,161.4-55.6,37.1-113.6,55.9-172.4,55.9h-534.4c-58.8,0-116.8-18.8-172.5-55.9-78-51.9-94.3-116.4-94.3-161.4v217.3h-801.2c-58.8,0-116.8-18.8-172.5-55.9-78-52-94.3-116.5-94.3-161.5v-535.2c0-32.8,9.2-63.7,27.2-91.8,16.3-25.4,40.1-48.7,70.8-69.1,20.3-14.7,41.4-26.5,63.1-35.5h-161.1v-319.5c0-32.8,8.6-64,25.5-92.8,15.7-26.7,38.8-51.3,68.7-73.3l1.1-.8,1.2-.8c52.2-34.4,109.5-51.8,170.3-51.8h534.4c58.4,0,115.1,17.4,168.5,51.6l1.2.8,1.2.8c30,21.6,53.3,46.1,69.3,72.8,17.1,28.6,26,59.8,26.7,92.9v.5s0-219.3,0-219.3h1068v87h70v-87h536v87h532v132.8c0-32.8,8.6-64.1,25.5-92.9,15.7-26.7,38.8-51.4,68.7-73.4l1.1-.8,1.2-.8c52.2-34.5,109.6-52,170.3-52h534.4c58.4,0,115.1,17.4,168.5,51.6l1.2.8,1.2.8c30,21.6,53.3,46.1,69.3,72.8,17.1,28.6,26,59.8,26.7,92.9v.5s0,1051.4,0,1051.4c0,45-16.4,109.5-94.4,161.4-55.6,37.1-113.6,55.9-172.4,55.9h-534.4Zm-4801,0c-58.9,0-115-18-166.9-53.5-31-20.5-55.1-44.2-71.7-70.2-18-28.3-27.5-59.5-28.1-92.7v-.5s0-732,0-732h-70v344h-532v605h-536v-217.2c0,44.9-16.4,109.4-94.4,161.4-55.7,37.1-113.7,55.9-172.4,55.9h-534.4c-58.8,0-116.8-18.8-172.5-55.9-78-51.9-94.3-116.4-94.3-161.4v217.3h-1068v-217.4c0,45-16.4,109.5-94.4,161.5-55.7,37.1-113.7,55.9-172.4,55.9h-534.4c-58.9,0-115-18-166.9-53.5-31-20.5-55.1-44.2-71.7-70.2-18-28.3-27.5-59.5-28.1-92.7v-.5s0-732,0-732h-104v-452h104v-87h536v87h532V54h536v344h265.2c58.4,0,115.1,17.4,168.5,51.6l1.2.8,1.2.8c30,21.6,53.3,46.1,69.3,72.8,17.1,28.6,26,59.8,26.7,92.9v.5s0,.5,0,.5c0-32.8,8.6-64.1,25.5-92.9,15.7-26.7,38.8-51.4,68.7-73.4l1.1-.8,1.2-.8c53-35,108.7-52,170.3-52h534.4c58.4,0,115,17.4,168.5,51.6l1.2.8,1.2.8c30,21.6,53.3,46.1,69.3,72.8,17.1,28.6,26,59.8,26.7,92.9v.5s0,.4,0,.4c0-32.8,8.6-64.1,25.5-92.9,15.7-26.7,38.8-51.4,68.7-73.4l1.1-.8,1.2-.8c52.2-34.5,109.5-52,170.2-52h801.4v87h70v-87h536v87h532v1183.6c0,45-16.4,109.5-94.4,161.5-55.7,37.1-113.7,55.9-172.4,55.9h-534.4Zm-5938,0c-58.8,0-116.8-18.8-172.5-55.9-78-51.9-94.3-116.4-94.3-161.4v217.3h-1869.2c-58.8,0-116.8-18.8-172.5-55.9-78-52-94.3-116.5-94.3-161.5v217.4h-1068V398h801.2c58.4,0,115,17.4,168.4,51.6l1.2.8,1.2.8c30,21.6,53.3,46,69.3,72.8,17.1,28.6,26,59.8,26.7,92.9v.6c0-32.8,8.6-64,25.5-92.8,15.7-26.7,38.8-51.3,68.7-73.3l1.1-.8,1.2-.8c52.2-34.4,109.5-51.8,170.3-51.8h534.4c58.4,0,115.1,17.4,168.5,51.6l1.2.8,1.2.8c30,21.6,53.3,46.1,69.3,72.8,17.1,28.6,26,59.8,26.7,92.9v.5s0-219.3,0-219.3h536v45.2c71.1-30,159.8-45.2,265.2-45.2s115.1,17.4,168.5,51.6l1.2.8,1.2.8c30,21.6,53.3,46.1,69.3,72.8,17.1,28.6,26,59.8,26.7,92.9v.5s0,.5,0,.5c0-32.8,8.6-64.1,25.5-92.9,15.7-26.7,38.8-51.4,68.7-73.4l1.1-.8,1.2-.8c52.2-34.5,109.6-52,170.4-52h265.2V54h536v1832h-801.2Zm-2435-742.9c6.3,6.7,11.8,14,16.3,21.7,10.5,18,15.9,37.9,15.9,59.4v-90.9c0-32.8,9.2-63.7,27.2-91.8,16.3-25.4,40.1-48.6,70.7-69.1,20.4-14.7,41.4-26.5,63.2-35.5h-161.1v123.9c0,31.3-11.2,59.7-32.2,82.2Z"/>
  <path d="m7472,108v344h319.2c48.1,0,94.6,14.3,139.3,43,48.1,34.6,72.6,75.6,73.5,122.8v1214.2h-428V796h-104v1036h-428V108h428m-2132,0v1724h-747.2c-48.1,0-95.6-15.6-142.5-46.8-46.9-31.2-70.3-70-70.3-116.5V617.8c0-46.4,24.1-87.3,72.2-122.8,44.8-29.5,91.8-43,140.6-43h319.2V108h428m-532,1380h104v-692h-104v692M15866.2,452c48.1,0,94.6,14.3,139.3,43,48.1,34.6,72.6,75.6,73.5,122.8v1050.8c0,46.4-23.4,85.2-70.3,116.5-46.9,31.2-94.3,46.8-142.5,46.8h-534.4c-48.1,0-95.6-15.6-142.5-46.8-46.9-31.2-70.3-70-70.3-116.5V617.8c0-46.4,24.1-87.3,72.2-122.8,44.8-29.5,91.8-43,140.6-43h534.4m-319.2,1036h104v-692h-104v692m-1068-1036v87h532v344h-532v605h104v-518h428v698.6c0,46.4-23.4,85.3-70.3,116.5-46.9,31.2-94.3,46.8-142.5,46.8h-534.4c-48.1,0-93.7-14.8-136.8-44.3-49.8-32.9-75.2-72.7-76-119.1v-785.5h-104v-344h104v-87h428m-606,0v1216.7c0,46.4-23.4,85.2-70.3,116.5-46.9,31.2-94.3,46.8-142.5,46.8h-534.4c-48.1,0-95.6-15.6-142.5-46.8-46.9-31.2-70.3-70-70.3-116.5V452h428v1036h104V452h428m-1280.8,0c48.1,0,94.6,14.3,139.3,43,48.1,34.6,72.6,75.6,73.5,122.8v1214.2h-747.2c-48.1,0-95.6-15.6-142.5-46.8-46.9-31.2-70.3-70.1-70.3-116.5v-535.2c0-44.8,24.9-83.6,74.7-116.5,43.1-31.3,89.1-46.9,138.1-46.9h319.2v-174h-104v87h-428v-265.5c0-46.3,24.1-87.2,72.2-122.5,44.8-29.5,91.8-42.9,140.6-42.9h534.4m-319.2,1036h104v-174h-104v174m-1527-1036v87h532v344h-532v605h104v-518h428v698.6c0,46.4-23.4,85.3-70.3,116.5-46.9,31.2-94.3,46.8-142.5,46.8h-534.4c-48.1,0-93.7-14.8-136.8-44.3-49.8-32.9-75.2-72.7-76-119.1v-785.5h-104v-344h104v-87h428m-606,0v344h-532v87h532v344h-532v605h-428V617.8c0-46.4,24-87.3,72.2-122.8,44.7-29.5,91.8-43,140.5-43h747.4m-1280.8,0c48.1,0,94.6,14.4,139.3,43.1,48.1,34.6,72.6,75.6,73.5,122.8v696.1h-532v174h104v-87h428v267.8c0,46.4-23.4,85.2-70.3,116.4-46.9,31.2-94.3,46.8-142.5,46.8h-534.4c-48.1,0-95.6-15.6-142.5-46.8-46.9-31.2-70.3-70-70.3-116.5V617.8c0-46.4,24.1-87.3,72.2-122.8,44.8-29.5,89.8-43,140.6-43h534.4m-319.2,518h104v-174h-104v174m-2136-518v87h532v344h-532v605h104v-518h428v698.6c0,46.4-23.4,85.3-70.3,116.5-46.9,31.2-94.4,46.8-142.5,46.8h-534.4c-48.1,0-93.7-14.8-136.8-44.3-49.8-32.9-75.2-72.7-76-119.1v-785.5h-104v-344h104v-87h428m-2344.8,0c48.1,0,94.6,14.3,139.3,43,48.1,34.6,72.6,75.6,73.5,122.8v1214.2h-428V796h-104v1036h-428V452h428v85c69.2-55.9,176-85,319.2-85m-1068,0c48.1,0,94.6,14.3,139.3,43,48.1,34.6,72.6,75.6,73.5,122.8v1214.2h-747.2c-48.1,0-95.6-15.6-142.5-46.8-46.9-31.2-70.3-70.1-70.3-116.5v-535.2c0-44.8,24.9-83.6,74.7-116.5,43.1-31.3,89.1-46.9,138.1-46.9h319.2v-174h-104v87h-428v-265.5c0-46.3,24.1-87.2,72.2-122.5,44.8-29.5,91.8-42.9,140.6-42.9h534.4m-319.2,1036h104v-174h-104v174M1923.2,452c48.1,0,94.6,14.4,139.3,43.1,48.1,34.6,72.6,75.6,73.5,122.8v443c0,24.5-11.3,44.1-33.8,58.9-22.5,14.8-46.9,22.2-73.3,22.2,26.3,1.7,50.8,9.9,73.3,24.7,22.5,14.8,33.8,34,33.8,57.6v607.8h-428v-518h-104v518h-428V452h747.2m-319.2,518h104v-174h-104v174m-536-518v1647.7c0,46.4-25.3,86.1-76,119-43.1,29.5-88.7,44.3-136.8,44.3H108v-344h532v-87h-319.2c-48.1,0-95.6-15.6-142.5-46.8-46.9-31.2-70.3-70-70.3-116.5V617.8c0-46.4,24.1-87.3,72.2-122.8,44.8-29.5,91.8-43,140.6-43h747.2m-532,1036h104v-692h-104v692M7580,0h-644v431h-424v-87h-644v87h-104v560h104v679.5c.8,43.3,13.1,84,36.6,120.8,20.7,32.4,49.9,61.3,87.1,86,61,41.7,127.3,62.8,197.1,62.8h534.4c69.6,0,137.7-21.9,202.4-65,3.5-2.4,7-4.8,10.4-7.2v72.2h1176v-72.2c3.4,2.4,6.9,4.9,10.4,7.2,64.6,43.1,132.7,65,202.4,65h534.4c69.6,0,137.6-21.8,202.3-64.9,3.6-2.4,7-4.8,10.4-7.2v72.2h644v-605h494v335.5c.8,43.3,13.1,84,36.6,120.8,20.7,32.4,49.9,61.3,87.1,86,61,41.6,127.3,62.8,197.1,62.8h534.4c69.6,0,137.7-21.9,202.4-65,36.7-24.4,65.4-53.6,85.3-86.6,22-36.4,33.1-76.7,33.1-119.8V431h-532v-87h-1461.4c-71.5,0-138.8,20.5-200,60.9l-2.3,1.5-2.2,1.6c-26,19.2-46.5,39.2-62.4,59.3-16.3-20.5-37.3-40.8-64-60l-2.4-1.7-2.4-1.6c-62.3-39.9-128.7-60.1-197.6-60.1h-534.4c-72.5,0-138,19.9-200.1,60.9l-2.3,1.5-2.3,1.7c-26,19.2-46.5,39.2-62.4,59.3-16.3-20.5-37.3-40.8-64.1-60.1l-2.4-1.7-2.4-1.6c-62.2-39.9-128.7-60.1-197.6-60.1h-211.2V0h0Zm-2132,0h-644v344h-211.2c-71.6,0-138.9,20.5-200.1,60.9l-2.3,1.5-2.3,1.7c-26,19.2-46.5,39.2-62.4,59.3-16.3-20.5-37.3-40.8-64.1-60.1l-2.4-1.7-2.4-1.6c-62.2-39.9-128.7-60.1-197.6-60.1s-149.7,8.1-211.2,24.1v-24.1h-644v71.1c-3.4-2.6-6.8-5.2-10.4-7.8l-2.4-1.7-2.4-1.6c-62.2-39.9-128.7-60.1-197.6-60.1h-534.4c-71.5,0-138.8,20.4-200,60.7l-2.3,1.5-2.2,1.6c-26.1,19.2-46.6,39.3-62.7,59.4-16.3-20.5-37.3-40.7-64-60l-2.4-1.7-2.4-1.6c-62.3-39.9-128.7-60.1-197.6-60.1H320.8c-71.5,0-138.8,20.5-200.1,60.9l-2.3,1.5-2.3,1.7C20.1,478.8,0,561.2,0,617.8v1050.8c0,43.1,11.1,83.3,33.1,119.7,4.7,7.7,9.8,15.3,15.4,22.6H0v560h855.2c69.7,0,135.9-21,196.8-62.5,37.7-24.7,67.3-53.6,88-86.1,23.9-37.4,36-78.7,36-122.7v-159.7h1068v-72.2c3.4,2.4,6.8,4.8,10.4,7.2,64.7,43.1,132.8,65,202.4,65h1923.2v-72.2c3.4,2.4,6.9,4.9,10.4,7.2,64.6,43.1,132.7,65,202.4,65h855.2V0h0Zm10418.2,344h-534.4c-71.5,0-138.8,20.5-200.1,60.9l-2.3,1.5-2.3,1.7c-10.2,7.5-19.5,15.2-28.1,22.9h-512v-87h-1782v71.1c-3.4-2.6-6.8-5.2-10.4-7.8l-2.4-1.7-2.4-1.6c-62.2-39.9-128.7-60.1-197.6-60.1h-534.4c-71.5,0-138.8,20.4-200,60.7l-2.3,1.5-2.2,1.6c-96.1,70.6-116.2,152.9-116.2,209.6v373.5h51.2c-5.6,7-10.7,14.1-15.4,21.4-23.7,37-35.8,77.7-35.8,121v535.2c0,43,11.1,83.3,33.1,119.7,19.9,33.1,48.6,62.2,85.3,86.7,64.7,43.1,132.8,65,202.4,65h855.2v-72.2c3.4,2.4,6.9,4.9,10.4,7.2,64.6,43.1,132.7,65,202.4,65h534.4c69.6,0,137.7-21.9,202.4-65,36.6-24.4,65.3-53.5,85.3-86.6,5.6-9.3,10.5-18.9,14.7-28.7,4.8,10.8,10.4,21.3,17,31.5,20.7,32.4,49.9,61.3,87.1,86,61,41.6,127.3,62.8,197.1,62.8h534.4c69.6,0,137.7-21.9,202.4-65,25.4-16.9,46.9-36.1,64.4-57.2,17.5,21.2,39.1,40.3,64.4,57.2,64.6,43.1,132.7,65,202.4,65h534.4c69.6,0,137.7-21.9,202.4-65,36.6-24.4,65.3-53.5,85.3-86.6,22-36.4,33.1-76.7,33.1-119.8V615.8c-1.1-57-22.5-139.5-118.4-208.5l-2.4-1.7-2.4-1.6c-62.2-39.9-128.7-60.1-197.6-60.1h0Z"/>
</svg>