<?xml version="1.0" encoding="utf-8"?>
<!-- Generator: Adobe Illustrator 28.2.0, SVG Export Plug-In . SVG Version: 6.00 Build 0)  -->
<svg version="1.1"
	 id="svg57" xmlns:sodipodi="http://sodipodi.sourceforge.net/DTD/sodipodi-0.dtd" xmlns:svg="http://www.w3.org/2000/svg" xmlns:cc="http://creativecommons.org/ns#" xmlns:rdf="http://www.w3.org/1999/02/22-rdf-syntax-ns#" xmlns:dc="http://purl.org/dc/elements/1.1/" xmlns:inkscape="http://www.inkscape.org/namespaces/inkscape" sodipodi:docname="4352464236t.svg"
	 xmlns="http://www.w3.org/2000/svg" xmlns:xlink="http://www.w3.org/1999/xlink" x="0px" y="0px" viewBox="0 0 661.7 47.5"
	 style="enable-background:new 0 0 661.7 47.5;" xml:space="preserve">
<style type="text/css">
	.st0{fill:#FFFFFF;}
</style>
<sodipodi:namedview  bordercolor="#666666" borderopacity="1.0" id="base" inkscape:current-layer="layer1" inkscape:cx="167.96598" inkscape:cy="56.668057" inkscape:document-units="mm" inkscape:pageopacity="0.0" inkscape:pageshadow="2" inkscape:window-height="987" inkscape:window-maximized="1" inkscape:window-width="1680" inkscape:window-x="-8" inkscape:window-y="-8" inkscape:zoom="1.1046875" pagecolor="#ffffff" showgrid="false">
	</sodipodi:namedview>
<g id="layer1" transform="translate(-81.21584,-147.06557)" inkscape:groupmode="layer" inkscape:label="Layer 1">
	<polyline id="polyline6" class="st0" points="106.8,153.5 106.8,192.9 100.1,192.9 100.1,175.6 88.1,175.6 88.1,192.9 81.2,192.9 
		81.2,153.5 88.1,153.5 88.1,169.1 100.1,169.1 100.1,153.5 106.8,153.5 	"/>
	<polyline id="polyline8" class="st0" points="180.5,194.6 172.3,173.5 160.4,192.7 152.9,192.7 169.6,165.2 167.7,159.8 
		161.2,159.8 161.2,153.3 172.3,153.3 185.1,186.5 190.7,184.6 192.6,191 180.5,194.6 	"/>
	<polyline id="polyline10" class="st0" points="250.6,186.6 270.3,186.6 270.3,193 243.6,193 243.6,153.3 250.6,153.3 250.6,186.6 	
		"/>
	<polyline id="polyline12" class="st0" points="344.6,153.5 345.2,153.5 345.2,160 330.9,160 330.9,169.2 342.5,169.2 342.5,175.6 
		330.9,175.6 330.9,192.9 323.9,192.9 323.9,153.5 344.6,153.5 	"/>
	<rect id="rect14" x="388" y="169.4" class="st0" width="19.9" height="7.4"/>
	<polyline id="polyline16" class="st0" points="457.8,186.8 477.3,186.8 477.3,193.1 450.9,193.1 450.9,153.9 457.8,153.9 
		457.8,186.8 	"/>
	<polyline id="polyline18" class="st0" points="535.6,153.6 536.2,153.6 536.2,193.1 529.3,193.1 529.3,153.6 535.6,153.6 	"/>
	<path id="path20" inkscape:connector-curvature="0" class="st0" d="M690.2,186.9v6.4h-24.7v-39.5h24v6.4h-17.1v9.2h14.9v6.5h-14.9
		v11L690.2,186.9z"/>
	<path id="path22" inkscape:connector-curvature="0" class="st0" d="M726.6,174.7v-4.6c2.3-2.8,4.1-5,5.5-6.7
		c1.4-1.7,2.5-3.2,3.3-4.3c0.8-1.2,1.3-2.1,1.6-3c0.3-0.8,0.4-1.7,0.4-2.6c0-0.2-0.1-0.5-0.2-0.8c-0.1-0.3-0.3-0.6-0.5-0.9
		c-0.2-0.3-0.5-0.5-0.8-0.7c-0.3-0.2-0.7-0.3-1.2-0.3c-0.5,0-0.8,0.2-1,0.5c-0.2,0.3-0.4,0.7-0.5,1.2c-0.1,0.5-0.2,1-0.2,1.5
		c0,0.5,0,1,0,1.5h-5.5c-0.2-1.4-0.2-2.6,0.1-3.6c0.3-1,0.8-1.9,1.5-2.6c0.7-0.7,1.5-1.2,2.5-1.5c1-0.4,2-0.5,3.2-0.5
		c1.1,0,2.2,0.1,3.1,0.4c1,0.2,1.8,0.7,2.6,1.2c0.7,0.6,1.3,1.3,1.7,2.3c0.4,0.9,0.7,2.1,0.7,3.5c0,1.4-0.4,2.9-1.2,4.4
		c-0.8,1.6-1.7,3.1-2.8,4.6c-1.1,1.5-2.2,2.9-3.3,4.2c-1.1,1.3-2,2.4-2.7,3.4h9.9v3.7L726.6,174.7"/>
	<polyline id="polyline24" class="st0" points="613.5,153.8 614.1,153.8 614.1,160.3 599.8,160.3 599.8,169.5 611.4,169.5 
		611.4,175.9 599.8,175.9 599.8,193.3 592.8,193.3 592.8,153.8 613.5,153.8 	"/>
</g>
</svg>
