<?xml version="1.0" encoding="utf-8"?>
<!-- Generator: Adobe Illustrator 28.2.0, SVG Export Plug-In . SVG Version: 6.00 Build 0)  -->
<svg version="1.1"
	 id="svg1153" xmlns:svg="http://www.w3.org/2000/svg" xmlns:cc="http://creativecommons.org/ns#" xmlns:rdf="http://www.w3.org/1999/02/22-rdf-syntax-ns#" xmlns:dc="http://purl.org/dc/elements/1.1/"
	 xmlns="http://www.w3.org/2000/svg" xmlns:xlink="http://www.w3.org/1999/xlink" x="0px" y="0px" viewBox="0 0 1884.3 582.4"
	 style="enable-background:new 0 0 1884.3 582.4;" xml:space="preserve">
<style type="text/css">
	.st0{fill:#FFFFFF;}
</style>
<g id="layer1" transform="translate(11.432919,222.50286)">
	<path id="path60" class="st0" d="M296.2-177.2v-38.2h7.3h7.3v14.7v14.7h13.2h13.2v-14.7v-14.7h7.3h7.3v38.2v38.2h-7.3h-7.3v-16.2
		v-16.2h-13.2h-13.2v16.2v16.2h-7.3h-7.3V-177.2z M465.6-167.7l10.5-28.6l3.1-9.5l3.1-9.5h7.8h7.8l3.1,9.5l3.1,9.5l10.5,28.6
		l10.5,28.6h-8.8h-8.8l-2.8-7.3l-2.8-7.3h-11.9h-11.9l-2.8,7.3l-2.8,7.3h-8.8h-8.8L465.6-167.7z M490.1-190.5l-7.9,25h15.7
		L490.1-190.5z M628.1-177.2v-38.2h7.3h7.3v30.8v30.8h17.6h17.6v7.3v7.3h-25h-25L628.1-177.2z M783.8-177.2v-38.2h26.4h26.4v7.3v7.3
		H819h-17.6v8.8v8.8h14.7h14.7v5.9v5.9h-14.7h-14.7v16.2v16.2h-8.8h-8.8L783.8-177.2z M1080.4-177.2v-38.2h8.8h8.8v30.8v30.8h17.6
		h17.6v7.3v7.3h-26.4h-26.4V-177.2z M1239-177.2v-38.2h7.3h7.3v38.2v38.2h-7.3h-7.3V-177.2z M1365.3-177.2v-38.2h26.4h26.4v7.3v7.3
		h-17.6h-17.6v8.8v8.8h14.7h14.7v5.9v5.9h-14.7h-14.7v16.2v16.2h-8.8h-8.8V-177.2z M1523.9-177.2v-38.2h25h25v7.3v7.3h-17.6h-17.6
		v7.3v7.3h16.2h16.2v7.3v7.3h-16.2h-16.2v8.8v8.8h17.6h17.6v7.3v7.3h-25h-25V-177.2z M939.4-169.9v-7.3h16.2h16.2v7.3v7.3h-16.2
		h-16.2V-169.9z"/>
	<path id="path1134" class="st0" d="M-4.3,351.9C-1.2,343.6,111.8,23.3,116,11c3.3-9.8,6.5-18,7.4-19c3.4-3.7,4.2-3.9,26.4-3.9
		c22.1,0,22.9,0.1,26.4,3.9c1.1,1.2,21,59.6,61.5,180.4c32.9,98.2,60,179,60.2,179.5c0.3,0.7-1.4,0.9-6.8,0.9h-7.1l-4.5-12.9
		c-2.5-7.1-12-35.5-21.2-63l-16.7-50.1h-93.6H54.4l-22.2,62.8L9.9,352.4l-7.3,0.2C-3.1,352.8-4.6,352.6-4.3,351.9L-4.3,351.9z
		 M212.9,141.7c-13.2-39.3-29.1-86.8-35.4-105.6L166.1,2h-16.4h-16.4l-5,15c-3.6,10.7-65.4,186.1-68.9,195.3
		c-0.3,0.7,17.7,0.9,88.5,0.9h88.8L212.9,141.7z M1567.9,352.5c0-0.2,28.2-42.1,62.7-93.1l62.7-92.8l-1.3-2
		c-0.7-1.1-28.8-41.1-62.3-88.9c-33.6-47.8-61-87.1-61-87.2c0-0.2,3.7-0.3,8.1-0.3h8.1l60.3,85.9l60.3,85.9h11.3h11.3l60.3-85.9
		l60.3-85.9h8.2c4.5,0,8.2,0.1,8.2,0.3c0,0.2-27.5,39.4-61,87.2c-33.6,47.8-61.6,87.8-62.3,88.9l-1.3,2l62.7,92.8
		c34.5,51,62.7,92.9,62.7,93.1c0,0.2-3.6,0.3-8.1,0.3l-8.1,0l-60.5-89.5l-60.5-89.5h-11.9H1705l-60.5,89.5l-60.5,89.5l-8.1,0
		C1571.5,352.8,1567.9,352.7,1567.9,352.5L1567.9,352.5z M1066.6,346v-6.8h11.2c9.4,0,11.9-0.2,15.2-1.5c4.3-1.6,9.7-6.3,11.6-10.1
		c0.6-1.2,18-31,38.6-66.2l37.4-64l-67.2-103.2c-36.9-56.8-67.2-103.4-67.2-103.5c0-0.2,3.6-0.3,8.1-0.3l8.1,0l63,96.8
		c51.2,78.6,63.2,96.6,63.9,95.6c0.5-0.6,24.4-41.4,53.3-90.6c56.5-96.4,55.9-95.5,64.7-99.9c6.4-3.2,11.5-4.2,22.5-4.2h10v6.7v6.7
		L1329,1.7c-9.8,0.3-11,0.4-14.4,2.3c-4.9,2.6-8.2,6.1-11.9,12.8c-1.7,3.1-44.8,76.6-95.8,163.4c-99.8,170-95.6,163.3-104.7,168.2
		c-6.4,3.4-11.5,4.3-24.1,4.3h-11.5V346z M618.9,352c-2.3-0.4-6.8-2-10.2-3.6c-11.1-5.4-19.4-16.6-21.3-28.6
		c-0.5-3.2-0.8-59.9-0.8-168.3l0-163.4h6.7h6.7l0.2,165.6l0.2,165.6l2,4.1c2.9,6.1,6.8,10.1,12.5,12.9l5,2.5l84.6,0.2l84.6,0.2v6.7
		v6.7l-83.1-0.1C660.4,352.7,621.2,352.3,618.9,352L618.9,352z"/>
</g>
</svg>
