<?xml version="1.0" encoding="utf-8"?>
<!-- Generator: Adobe Illustrator 28.2.0, SVG Export Plug-In . SVG Version: 6.00 Build 0)  -->
<svg version="1.1"
	 id="svg167" xmlns:cc="http://creativecommons.org/ns#" xmlns:svg="http://www.w3.org/2000/svg" xmlns:dc="http://purl.org/dc/elements/1.1/" xmlns:rdf="http://www.w3.org/1999/02/22-rdf-syntax-ns#"
	 xmlns="http://www.w3.org/2000/svg" xmlns:xlink="http://www.w3.org/1999/xlink" x="0px" y="0px" viewBox="0 0 969.7 102.8"
	 style="enable-background:new 0 0 969.7 102.8;" xml:space="preserve">
<style type="text/css">
	.st0{fill:#FFFFFF;}
</style>
<g id="layer1" transform="translate(1.1099837,-143.25121)">
	<path id="path145" class="st0" d="M-1.1,177.2v-33.8h6h6v13.2v13.2h9.9h9.9v-13.2v-13.2h6h6v33.8V211h-6h-6v-14.7v-14.7h-9.9H11
		v14.7V211H5h-6V177.2z"/>
	<path id="path147" class="st0" d="M150.4,197c-3.7-9.8-6.7-17.9-6.8-17.9c0,0-4.5,7.3-9.9,16.2l-9.8,16.2h-6.4
		c-5.9,0-6.4-0.1-6.1-0.8c0.2-0.5,6.4-11.1,13.8-23.6l13.5-22.8l-1.4-4.4l-1.4-4.4l-5.6-0.1l-5.6-0.1v-5.9v-5.9h9.6
		c7.2,0,9.6,0.2,9.8,0.6c0.1,0.3,4.9,13.1,10.7,28.3c5.8,15.2,10.5,27.7,10.6,27.8c0.1,0.1,2.1-0.6,4.6-1.4c2.5-0.8,4.6-1.3,4.8-1.1
		c0.3,0.4,3,9.5,3.1,10.6c0,0.2-4.6,1.8-10.3,3.5c-5.7,1.7-10.3,3.1-10.3,3.1C157.1,214.9,154,206.8,150.4,197L150.4,197z"/>
	<path id="path151" class="st0" d="M249.7,177.5v-33.6h6h6v27.9v27.9h16.4h16.4v5.6v5.6h-22.4h-22.4V177.5z"/>
	<path id="path153" class="st0" d="M370.1,177.5v-33.6h17.8h17.8v5.6v5.6h-11.8h-11.8v7.6v7.6h9.6h9.6v5.6v5.6h-9.6h-9.6v14.7V211
		h-6h-6L370.1,177.5z"/>
	<path id="path155" class="st0" d="M473.6,176.3v-5.9h15.6h15.6v5.9v5.9h-15.6h-15.6V176.3z"/>
	<path id="path169" class="st0" d="M554.8,177.3v-33.4h6h6v27.9v27.9h16.2h16.2v5.5v5.5H577h-22.1L554.8,177.3z"/>
	<path id="path175" class="st0" d="M688.8,177.2v-33.6h5.8h5.8v33.6v33.6h-5.8h-5.8V177.2z"/>
	<path id="path183" class="st0" d="M795,177.4v-33.6h17.9h17.9v5.7v5.7h-11.9h-11.9v7.6v7.6h9.5h9.5v5.5v5.5h-9.5h-9.5v14.7V211h-6
		h-6V177.4z"/>
	<path id="path185" class="st0" d="M905.6,177.4v-33.6h20.3h20.3v5.5v5.5h-14.3h-14.3v7.6v7.6h12.4h12.4v5.7v5.7h-12.4h-12.4v9.2
		v9.2h15h15v5.5v5.5h-20.9h-20.9V177.4z"/>
	<g id="g78" transform="matrix(3.1656279,0,0,3.1656279,-352.8153,-826.17835)">
		<path id="path193" class="st0" d="M414.8,308.1v-1h0.6h0.6l0.1,0.1l0.1,0.1l0,0c0,0,0,0.1,0,0.2c0,0,0,0,0,0.1
			c0,0.2-0.1,0.3-0.2,0.4c-0.1,0.1-0.2,0.1-0.3,0.1c0,0,0,0,0,0c0,0,0,0.1,0,0.1c0,0,0,0,0,0c0,0,0.1,0,0.1,0c0,0,0,0,0,0
			c0.1,0,0.1,0.2,0.2,0.3c0,0,0.1,0.1,0.1,0.3c0.1,0.1,0.1,0.2,0.1,0.2c0,0,0,0-0.2,0l-0.2,0l-0.1-0.2c0-0.1-0.1-0.2-0.1-0.2
			c0-0.1-0.1-0.1-0.1-0.2c-0.1-0.1-0.2-0.3-0.2-0.3c-0.1,0-0.1-0.1-0.3-0.1h-0.1v0.4v0.4H415h-0.1L414.8,308.1z M415.7,308
			c0,0,0.1,0,0.1-0.1c0,0,0,0,0.1-0.1c0.1-0.1,0.1-0.1,0.1-0.1c0,0,0-0.1,0-0.1c0,0,0-0.1,0-0.1c0,0,0,0,0,0c0,0,0,0-0.1-0.1l0,0
			h-0.3h-0.3v0.3v0.3l0.3,0C415.6,308,415.7,308,415.7,308L415.7,308z"/>
		<path id="path195" class="st0" d="M415.4,309.9c-0.2,0-0.4-0.1-0.5-0.2c0,0-0.1-0.1-0.2-0.1c-0.1,0-0.2-0.1-0.4-0.3
			c-0.2-0.2-0.3-0.4-0.4-0.7c-0.1-0.2-0.1-0.3-0.1-0.6c0-0.3,0-0.4,0.1-0.6c0.1-0.2,0.2-0.5,0.4-0.7c0.1-0.1,0.3-0.3,0.4-0.3
			c0.1-0.1,0.3-0.1,0.5-0.2c0.1,0,0.2,0,0.4,0c0.3,0,0.3,0,0.7,0.1c0.2,0.1,0.2,0.1,0.4,0.2c0.3,0.2,0.4,0.4,0.5,0.6
			c0.2,0.4,0.3,0.9,0.2,1.3c0,0.1,0,0.2-0.1,0.2c-0.1,0.1-0.2,0.5-0.3,0.6c-0.1,0.2-0.3,0.3-0.4,0.3c0,0-0.1,0-0.2,0.1
			c-0.1,0.1-0.3,0.1-0.4,0.2C415.8,309.9,415.5,309.9,415.4,309.9L415.4,309.9z M415.9,309.5c0.2,0,0.5-0.1,0.7-0.3
			c0.1-0.1,0.3-0.2,0.3-0.4c0.1-0.2,0.2-0.5,0.2-0.8c0-0.3-0.1-0.6-0.2-0.9c-0.1-0.1-0.3-0.3-0.4-0.4c-0.1,0-0.1-0.1-0.2-0.1
			c-0.1-0.1-0.2-0.1-0.5-0.2c-0.3-0.1-0.6,0-0.8,0.2c0,0-0.1,0.1-0.1,0.1c-0.2,0.1-0.3,0.2-0.4,0.4c0,0.1-0.1,0.1-0.1,0.2
			c-0.1,0.1-0.2,0.4-0.2,0.6c0,0.2,0.1,0.6,0.2,0.8c0,0,0.1,0.1,0.1,0.2c0.1,0.1,0.2,0.3,0.3,0.3c0.1,0.1,0.4,0.2,0.5,0.3
			C415.4,309.6,415.7,309.6,415.9,309.5L415.9,309.5z"/>
	</g>
	<g id="layer1-9" transform="matrix(0.09556948,0,0,0.09556948,230.32376,159.71964)">
		<path id="path55" class="st0" d="M5240.5,901.5c-10-0.9-16.4-2.1-22-4.3c-9.7-3.8-15.6-8.9-20-17.8c-3.5-6.9-5.2-15.6-5.9-29.3
			c-0.3-6.9-0.5-26.6-0.2-26.6c47.5,0,33.3,0.1,52.5,0.1v30h90h90v-28.9v-28.9l-86.3-0.1c-62.4-0.1-87.2-0.2-89.7-0.5
			c-14.4-1.7-20.9-3.6-28.2-8.3c-7.9-5.1-13.4-14-15.7-25.3c-1.9-9.4-1.9-10.4-1.9-40.2c0-30.1,0.1-31.8,2-41.1
			c2.6-12.4,9.5-21.7,20-27c6.6-3.3,17.2-5.5,30.7-6.3c7.8-0.5,158-0.5,165.8,0c22.7,1.4,34.5,5.9,42.7,16.3
			c4.4,5.5,7.3,13,8.7,22.9c0.6,3.9,1.2,13.5,1.2,18.5l0,15.9c-19.2,0-17.6,0-52.4,0c-0.2,0-0.3-5.4-0.3-14.5v-14.5h-83.3h-83.3
			v27.4v27.4l84.4,0c55.2,0,85.8,0.1,88.5,0.4c13.4,1.2,24.3,4,30.9,8.1c3.2,1.9,9,7.7,10.6,10.5c3.7,6.3,6.2,15.5,7.6,27.5
			c0.6,4.9,0.8,48.4,0.3,57c-1,17.6-4.4,29.6-10.8,37.5c-5.4,6.7-14.9,11.4-26.9,13.3c-9.6,1.6-9.6,1.6-105.3,1.5
			C5284.5,901.8,5242.3,901.7,5240.5,901.5L5240.5,901.5z"/>
		<path id="path57" class="st0" d="M5644.1,901.7c-13.8-1.1-19.7-2.4-26.8-5.8c-7.7-3.6-12.9-8.7-16.6-16.1
			c-3.7-7.3-5.4-16-6.1-30.3c-0.4-9.2-0.4-141,0-150.1c1.1-23.6,5.6-34.9,17.3-43.2c7.3-5.2,19.1-8.2,36.1-9.2
			c4.7-0.3,36.6-0.3,108.1-0.2c109.2,0.1,104.1,0.1,113.6,1.8c11.9,2.2,18.6,4.9,24.6,10.1c7.4,6.4,11.3,15.6,13.6,32.7
			c0.5,3.7,0.6,11.8,0.7,78.9c0.1,51.1,0,76.6-0.2,80.7c-1.3,20.3-6.4,33.9-15.3,40.7c-4.9,3.7-12.6,6.9-19.7,8.3
			c-9.9,1.9-2.2,1.8-119.8,1.9C5694.1,901.8,5644.9,901.7,5644.1,901.7L5644.1,901.7z M5849.2,773.1v-80.6h-97.7h-97.7v80.6v80.6
			h97.7h97.7V773.1z"/>
		<path id="path59" class="st0" d="M6083.3,901.7c-13.8-1.2-19.7-2.4-26.8-5.8c-4.3-2.1-7.4-4.2-10.3-7.1
			c-7.1-7.3-10.4-16.4-12.1-32.6c-0.3-3.2-0.5-27.9-0.6-106.8l-0.1-102.7l29.9,0.1l29.9,0.1l0.1,103.4l0.1,103.4h84.2h84.2V750.2
			V646.7h29.8h29.8l-0.1,103.6c-0.1,78.2-0.2,104.3-0.5,106.5c-2.7,18.8-6.9,28.6-14.9,34.8c-4.9,3.7-13.4,7.3-20.4,8.5
			c-10.1,1.8-3.8,1.7-105.8,1.7C6127.3,901.8,6084.1,901.7,6083.3,901.7L6083.3,901.7z"/>
		<path id="path67" class="st0" d="M6451.3,774.3V646.5l113.7,0.1c84.4,0.1,114.5,0.2,116.9,0.5c12.3,1.5,21.4,4.3,27.9,8.6
			c2.8,1.8,7,5.8,8.9,8.5c3.7,5.1,6.3,12.6,7.6,21.3c0.6,3.9,0.6,7.6,0.6,40.4c0,27.8-0.1,36.9-0.5,39.7
			c-3.1,24.4-14.7,35.3-41.6,39.2c-3.4,0.5-7.8,0.6-26.1,0.8l-22.1,0.2l58.3,47.8c32.1,26.3,58.4,48,58.4,48.2
			c0.1,0.2-17,0.3-42.4,0.3l-42.5,0l-51.3-48.2l-51.3-48.2l-28,0l-28,0v48.2v48.2h-29.3h-29.3L6451.3,774.3z M6650.9,761.5
			c9.1-0.9,13.9-3.3,16.1-7.8c1.9-4,1.9-4,2.1-26c0.1-17,0-20.8-0.4-23c-0.6-3.3-1.8-5.9-3.4-7.7c-2.4-2.7-8.2-4.8-15.3-5.5
			c-2-0.2-28.6-0.3-71.7-0.3l-68.5,0v35.4v35.4h68.7C6625.8,761.8,6648.3,761.7,6650.9,761.5L6650.9,761.5z"/>
		<path id="path69" class="st0" d="M6891.5,901.6c-12.9-0.9-20.3-2.5-27.4-6c-7.9-3.9-12.6-8.7-16.3-16.3c-3.6-7.4-5.1-15-5.8-29
			c-0.5-8.7-0.5-143.2,0-151.9c1.2-22.4,5.5-33.4,16.2-41.4c7.5-5.6,17.9-8.6,34.3-9.9c6.2-0.5,170.9-0.5,177.2,0
			c11.7,0.9,22.5,3.3,28.7,6.4c5.2,2.6,9.8,6.5,12.8,10.6c4.1,5.7,7,14.9,8.6,27c0.7,5,1.1,49.8,0.5,49.8c-22.2,0-34.9,0-58.9,0
			c-0.2,0-0.3-8.6-0.3-24.1v-24.1h-79.9h-79.9v80.6v80.6h79.9h79.9v-27.4V799l1.3,0.2c54.4,0,58.3,0,58.3,0s-0.3,54.6-0.7,57.7
			c-1,7.9-3,16.6-4.9,20.9c-4.4,10.5-11.2,16.5-23.2,20.4c-6.3,2-13.2,3.1-24.4,3.6C7059.5,902.2,6897.4,902,6891.5,901.6
			L6891.5,901.6z"/>
		<path id="path71" class="st0" d="M7242.4,774.4V646.8h130.5h130.5v21.9v21.9h-100.6h-100.6v28.2V747h58.7h58.7v21.9v21.9h-58.7
			h-58.7v31.5v31.5H7404h101.8v24.1V902h-131.7h-131.7L7242.4,774.4z"/>
		<g id="flowRoot73" transform="matrix(1.508405,0,0,1.508405,-1242.8784,-540.85737)">
		</g>
		<path id="path1146" class="st0" d="M7549.8,686.6v-32.9h-11.6h-11.6v-5v-5l25.7,0.1c14.1,0,27.1,0.1,28.8,0.1l3.1,0v4.9v4.9h-12.1
			H7560v32.9v32.9h-5.1h-5.1L7549.8,686.6z"/>
		<path id="path1210" class="st0" d="M7590,719.2c0-0.3,1.1-17.7,2.3-38.7c1.2-21,2.2-38.2,2.3-38.2c0,0,2.6,0,5.8,0h5.8l10.9,29.4
			c6,16.2,10.9,29.5,10.9,29.5c0,0,5-13.2,11-29.4l10.9-29.5l5.8,0l5.8,0l0,0.3c0,0.2,1,17.2,2.2,38c1.2,20.7,2.2,38,2.3,38.4l0,0.8
			h-4.2h-4.2l0-0.4c0-0.2-0.7-14-1.4-30.7c-0.7-16.6-1.4-30.4-1.4-30.5c0-0.2-2.4,6.1-11.4,30.6l-11.3,30.9l-4,0l-4,0l-11.3-31
			c-6.2-17-11.3-31-11.3-30.9c0,0-2.8,61.1-2.8,61.6v0.3h-4.3h-4.3L7590,719.2z"/>
		<g id="flowRoot1212">
		</g>
	</g>
</g>
</svg>
