<?xml version="1.0" encoding="utf-8"?>
<!-- Generator: Adobe Illustrator 28.2.0, SVG Export Plug-In . SVG Version: 6.00 Build 0)  -->
<svg version="1.1"
	 id="svg8" xmlns:cc="http://creativecommons.org/ns#" xmlns:svg="http://www.w3.org/2000/svg" xmlns:dc="http://purl.org/dc/elements/1.1/" xmlns:rdf="http://www.w3.org/1999/02/22-rdf-syntax-ns#"
	 xmlns="http://www.w3.org/2000/svg" xmlns:xlink="http://www.w3.org/1999/xlink" x="0px" y="0px" viewBox="0 0 1623.6 300.1"
	 style="enable-background:new 0 0 1623.6 300.1;" xml:space="preserve">
<style type="text/css">
	.st0{fill:#FFFFFF;}
</style>
<g id="flowRoot34" transform="matrix(0.26458333,0,0,0.26458333,-493.45746,176.84128)">
</g>
<g id="flowRoot42" transform="matrix(0.26458333,0,0,0.26458333,-493.45746,176.84128)">
</g>
<path id="path145" class="st0" d="M4.3,67.8V16h9.4H23v20.3v20.3h15.4h15.4V36.2V16h9.4h9.4v51.8v51.8h-9.4h-9.4V97V74.5H38.4H23V97
	v22.5h-9.4H4.3V67.8z"/>
<path id="path147" class="st0" d="M240.4,98.1c-5.8-15.1-10.5-27.4-10.6-27.4c0,0-7,11.1-15.4,24.8l-15.3,24.8h-10
	c-9.2,0-10-0.1-9.5-1.3c0.3-0.7,10-17,21.6-36.2l21.1-34.9l-2.2-6.8l-2.2-6.8l-8.8-0.2l-8.8-0.2v-9v-9h14.9c11.3,0,15,0.2,15.3,0.9
	c0.2,0.5,7.7,20,16.7,43.4s16.4,42.5,16.5,42.6c0.1,0.1,3.3-0.9,7.1-2.2c3.8-1.3,7.2-2,7.5-1.7c0.5,0.6,4.7,14.5,4.9,16.3
	c0,0.3-7.2,2.8-16.1,5.4c-8.9,2.6-16.1,4.8-16.1,4.8C250.9,125.5,246.2,113.2,240.4,98.1L240.4,98.1z"/>
<path id="path149" class="st0" d="M0,273.5v-2.1h155.7h155.7v2.1v2.1H155.7H0V273.5z"/>
<path id="path151" class="st0" d="M395.4,68.2V16.8h9.4h9.4v42.8v42.8h25.5h25.5v8.6v8.6h-34.9h-34.9V68.2z"/>
<path id="path153" class="st0" d="M583.1,68.2V16.8h27.8h27.8v8.6v8.6h-18.4h-18.4v11.6v11.6h15h15V66v8.6h-15h-15v22.5v22.5h-9.4
	h-9.4V68.2z"/>
<path id="path155" class="st0" d="M744.5,66.4v-9h24.4h24.4v9v9h-24.4h-24.4V66.4z"/>
<path id="path157" class="st0" d="M382.7,269.7v-29.5H400h17.4v3.7v3.7H404h-13.4v8v8h9.6h9.6v3.6v3.6h-9.6h-9.6v10.5v10.5H404h13.4
	v3.7v3.7H400h-17.4V269.7z"/>
<path id="path159" class="st0" d="M470,269.7v-29.4l4.9-0.2c10.7-0.4,17.9,0.5,23.2,3.1c2.7,1.3,5.6,4,6.7,6.3
	c1.3,2.7,1.6,4.5,1.4,8.9c-0.2,6.2-1.5,9.7-4.8,13c-4,4-10.4,6-18.3,5.6c-1.9-0.1-3.8-0.2-4.2-0.3l-0.7-0.2v11.3v11.3h-4.1H470
	V269.7z M488.7,269c2.3-0.5,4.8-1.7,6.2-2.9c2.3-2,3.4-6,2.9-9.8c-0.6-4-3.3-6.8-8.1-8c-2.3-0.6-6.5-1-9.1-0.8l-2.4,0.2v10.7v10.7
	l1,0.1C481.8,269.5,487,269.4,488.7,269L488.7,269z"/>
<path id="path161" class="st0" d="M555.7,269.7v-29.5h4.1h4.1v29.5v29.5h-4.1h-4.1V269.7z"/>
<path id="path163" class="st0" d="M625.4,300c-1.3-0.1-3.2-0.4-4.1-0.6c-1.5-0.4-5.2-2-6.3-2.7c-0.3-0.2,0-1,1-3.8
	c0.8-2,1.5-3.7,1.6-3.8c0.1-0.1,0.7,0.1,1.3,0.5c1.5,1,5.4,2.5,7.2,2.8c4.5,0.8,9-0.3,11.2-2.8c1.5-1.7,2-3.1,2-5.9
	c0-2.3-0.1-2.7-0.9-4.3c-0.7-1.5-1.2-2-2.7-3.1c-2-1.5-4.8-3-9-4.9c-3.5-1.5-6.6-3.5-8.3-5.4c-4.1-4.4-5.2-12.4-2.4-18.1
	c2-4.1,5.6-6.8,10.5-7.9c3.9-0.9,11.5-0.4,15.1,0.9c1.7,0.6,3,1.4,3,1.9c0,0.2-1.2,3.7-2.1,6.2c-0.2,0.6-0.2,0.6-3-0.6
	c-3.8-1.6-5.8-2-8.7-1.9c-3.6,0.2-6,1.7-7.5,4.7c-0.9,1.9-0.9,4.9,0.1,7c1.4,3.1,2.5,3.8,10.4,7.8c6.4,3.2,7.3,3.8,9,5.3
	c3.2,3,4.8,7.1,4.8,12.5c0,4.6-1.3,7.7-4.4,10.8c-1.6,1.6-2.4,2.2-4.7,3.2C634.6,299.8,631,300.4,625.4,300L625.4,300z"/>
<path id="path165" class="st0" d="M713.4,300c-9.4-0.8-16.5-7.4-19.7-18.4c-2.1-7.3-2-18.1,0.3-24.8c2.7-7.9,7.4-13.3,13.6-15.8
	c4.8-1.9,12.6-1.9,18.1,0.1c3.7,1.3,6.3,3.2,8.9,6.3c4.7,5.8,6.8,13.8,6.4,23.9c-0.3,6.6-1.3,11.5-3.5,15.9
	C733,296.4,724.5,300.9,713.4,300L713.4,300z M720.9,291.8c6.3-2.1,10.3-8.3,11.4-17.6c1.1-9.8-0.9-18.8-5.1-23.1
	c-3.3-3.3-8.6-5-13.6-4.1c-6.7,1.1-11.1,6.8-12.3,16.4c-0.4,3.2-0.2,11.5,0.4,14.2c1.9,8.4,6,13.7,11.6,14.9
	C715,292.7,719,292.4,720.9,291.8L720.9,291.8z"/>
<path id="path167" class="st0" d="M791.6,269.6v-29.5h10.3c7.8,0,10.9,0.2,13.1,0.8c12.7,3.7,18.6,13.4,17.8,29.1
	c-0.5,10.4-2.7,16.6-7.8,21.6c-5.6,5.6-11.5,7.4-24.9,7.4l-8.6,0L791.6,269.6z M810.7,291.1c4.6-1,9.8-6,11.8-11.4
	c1.5-4.1,2.2-11.3,1.5-16c-1.2-8.4-5.2-13.5-12-15.3c-3.2-0.8-8.5-1.1-10.7-0.5l-1.2,0.3v21.4c0,24.3-0.5,21.8,4.9,21.9
	C806.6,291.6,809.2,291.4,810.7,291.1L810.7,291.1z"/>
<path id="path169" class="st0" d="M871.2,67.9V16.7h9.3h9.3v42.7v42.7H915h25.2v8.5v8.5h-34.5h-34.5L871.2,67.9z"/>
<path id="path171" class="st0" d="M883.3,269.7v-29.5h17.4h17.4v3.7v3.7h-13.4h-13.4v8v8h9.6h9.6v3.6v3.6h-9.6h-9.6v10.5v10.5h13.4
	h13.4v3.7v3.7h-17.4h-17.4V269.7z"/>
<path id="path173" class="st0" d="M1059.6,299.5c-8.8-2.5-15.2-10.9-17-22.5c-0.8-5.2-0.5-13.8,0.6-18.1c1-3.7,3.6-9.2,5.5-11.4
	c3.1-3.8,7.4-6.5,11.6-7.5c2.7-0.7,9.6-0.5,12.7,0.2c6.5,1.5,11.2,5.4,14.3,11.6c2.9,5.8,3.3,8.2,3.4,17.2c0,8.5-0.4,11.2-2.3,16.2
	c-2.6,6.8-7.7,11.8-13.9,13.8C1071.2,300,1062.4,300.3,1059.6,299.5L1059.6,299.5z M1069.1,292.1c5.9-1.2,10.1-6,12.2-13.5
	c1-3.5,1-15.6,0-19.1c-2-7.2-6-11.3-12.5-12.4c-3.4-0.6-6.3-0.2-9.1,1.2c-4,2-6.6,5.7-8.1,11.9c-1.1,4.6-1.1,13.2,0,17.8
	C1054.5,289.1,1060.5,294,1069.1,292.1L1069.1,292.1z"/>
<path id="path175" class="st0" d="M1080.1,67.8V16.4h9h9v51.5v51.5h-9h-9V67.8z"/>
<path id="path177" class="st0" d="M1320.2,273.5v-2.1h151.7h151.7l-0.1,2.1l-0.1,2.1l-151.6,0.1l-151.6,0.1V273.5z"/>
<path id="path179" class="st0" d="M1234,269.6v-29.5h17.5h17.5v4v4h-13.5H1242v7.7v7.7h9.6h9.6v3.7v3.7h-9.6h-9.6v10.4v10.4h13.5
	h13.5v3.7v3.7h-17.5H1234V269.6z"/>
<path id="path181" class="st0" d="M1164.5,279.1l-14.6-20.9l-0.1,20.4l-0.1,20.4h-4h-4v-29.5v-29.5l1.7,0c1.7,0,2.3,0.7,16.1,19.9
	l14.3,19.9l0.1-19.9l0.1-19.9h4h4v30v30l-1.5,0C1179.2,300,1177.6,297.9,1164.5,279.1L1164.5,279.1z"/>
<path id="path183" class="st0" d="M1245.7,68.1V16.6h27.9h27.9v8.8v8.8h-18.6h-18.6v11.7v11.7h14.9h14.9V66v8.5h-14.9h-14.9V97v22.6
	h-9.3h-9.3L1245.7,68.1z"/>
<path id="path185" class="st0" d="M1418.2,68.1V16.6h31.6h31.6v8.5v8.5h-22.3h-22.3v11.7V57h19.4h19.4v8.8v8.8h-19.4h-19.4v14.1
	v14.1h23.4h23.4v8.5v8.5h-32.6h-32.6V68.1z"/>
<path id="path187" class="st0" d="M1577.5,63.6v-6.1l9.8-11.9c14.4-17.4,17.8-22.8,17.8-28.6c0-4.1-2.9-7.4-6.6-7.4
	c-2.6,0-3.5,1.6-4.2,6.9l-0.6,4.2h-7.1h-7.1l-0.1-2c-0.3-6.2,0.8-9.7,4.1-13.3c3.8-4.3,10.8-6.2,18.8-5.3c6.4,0.7,10.1,2.4,13.1,5.9
	c3.8,4.5,5.1,12.7,2.9,19c-2.2,6.4-7.5,14.7-17.3,26.6c-3.3,4-6,7.5-6,7.6c0,0.2,5.5,0.3,12.2,0.3h12.2v5v5h-21h-21L1577.5,63.6z"/>
<path id="path193" class="st0" d="M1503.7,24.9v-4.8h3h3l0.6,0.6l0.6,0.6l0,0.2c0,0.2,0.1,0.4,0.2,0.7c0.1,0.2,0.1,0.2,0.1,0.5
	c0,0.9-0.3,1.5-1,2c-0.4,0.3-1,0.5-1.4,0.5c-0.1,0-0.2,0-0.2,0c0,0,0.2,0.3,0.2,0.3c0,0,0.1,0.1,0.1,0.1c0.1,0,0.3,0.1,0.4,0.2
	c0.1,0,0.2,0.1,0.2,0.2c0.3,0.2,0.7,0.7,0.9,1.4c0.1,0.1,0.4,0.7,0.7,1.2c0.3,0.5,0.6,1,0.6,1c0,0-0.1,0-0.9,0l-0.9,0l-0.4-0.8
	c-0.2-0.4-0.5-0.8-0.5-0.9c-0.1-0.3-0.3-0.6-0.5-0.9c-0.3-0.5-0.9-1.2-1.1-1.4c-0.3-0.2-0.7-0.2-1.6-0.2h-0.6v2.1v2.1h-0.7h-0.7
	L1503.7,24.9z M1508,24.2c0.2,0,0.4-0.1,0.7-0.2c0.1-0.1,0.2-0.2,0.4-0.3c0.3-0.3,0.4-0.5,0.5-0.7c0.1-0.2,0.1-0.3,0-0.5
	c-0.1-0.2-0.2-0.3-0.2-0.5c0-0.1,0-0.1,0-0.1c0,0-0.2-0.1-0.5-0.4l-0.2-0.2h-1.7h-1.7v1.5v1.5l1.3,0
	C1507.6,24.3,1507.8,24.3,1508,24.2L1508,24.2z"/>
<path id="path195" class="st0" d="M1506.4,33.5c-1-0.2-1.9-0.5-2.6-0.9c-0.2-0.1-0.6-0.3-0.8-0.4c-0.7-0.2-1-0.5-1.8-1.2
	c-1.2-1.2-1.6-1.9-1.9-3.4c-0.3-1.1-0.3-1.7-0.3-2.9c0-1.2,0.1-1.8,0.4-2.9c0.4-1.2,1.2-2.5,2.1-3.5c0.5-0.5,1.6-1.3,2.1-1.6
	c0.6-0.3,1.5-0.6,2.2-0.7c0.5-0.1,0.9-0.1,1.8-0.1c1.3,0,1.7,0.1,3.3,0.6c1.1,0.4,1.1,0.4,1.8,0.9c1.3,0.9,2.1,1.9,2.6,3
	c1,2,1.3,4.1,0.8,6.4c-0.1,0.4-0.2,0.9-0.3,1.1c-0.3,0.7-1.1,2.3-1.4,2.7c-0.6,0.8-1.3,1.3-2.2,1.6c-0.2,0.1-0.6,0.2-0.8,0.4
	c-0.6,0.3-1.4,0.7-2.1,0.8C1508.7,33.5,1507.1,33.6,1506.4,33.5L1506.4,33.5z M1508.8,31.8c1.2-0.1,2.4-0.6,3.4-1.3
	c0.6-0.4,1.3-1.2,1.6-1.7c0.6-1,1-2.4,1-3.7c0.1-1.5-0.3-3.1-1-4.4c-0.4-0.6-1.3-1.5-1.9-1.9c-0.3-0.2-0.7-0.4-0.9-0.5
	c-0.7-0.4-0.9-0.5-2.5-0.8c-1.4-0.3-3,0.1-4.2,0.8c-0.1,0.1-0.5,0.3-0.7,0.4c-0.9,0.5-1.6,1.1-2,2c-0.1,0.3-0.4,0.7-0.5,0.8
	c-0.5,0.7-0.9,1.8-1,2.9c-0.1,1.2,0.3,2.8,1,3.8c0.1,0.1,0.3,0.5,0.4,0.8c0.3,0.6,0.8,1.2,1.3,1.6c0.7,0.5,2,1.1,2.5,1.2
	C1506.3,31.9,1507.8,32,1508.8,31.8L1508.8,31.8z"/>
</svg>
