<?xml version="1.0" encoding="utf-8"?>
<!-- Generator: Adobe Illustrator 28.2.0, SVG Export Plug-In . SVG Version: 6.00 Build 0)  -->
<svg version="1.1"
	 id="svg8" xmlns:sodipodi="http://sodipodi.sourceforge.net/DTD/sodipodi-0.dtd" xmlns:svg="http://www.w3.org/2000/svg" xmlns:cc="http://creativecommons.org/ns#" xmlns:rdf="http://www.w3.org/1999/02/22-rdf-syntax-ns#" xmlns:dc="http://purl.org/dc/elements/1.1/" xmlns:inkscape="http://www.inkscape.org/namespaces/inkscape" sodipodi:docname="Half-Life Wordmark Orange.svg"
	 xmlns="http://www.w3.org/2000/svg" xmlns:xlink="http://www.w3.org/1999/xlink" x="0px" y="0px" viewBox="0 0 1518.8 112.1"
	 style="enable-background:new 0 0 1518.8 112.1;" xml:space="preserve">
<style type="text/css">
	.st0{fill:#FFFFFF;}
</style>
<sodipodi:namedview  bordercolor="#666666" borderopacity="1" gridtolerance="10" guidetolerance="10" id="namedview34" inkscape:current-layer="svg8" inkscape:cx="1320.6679" inkscape:cy="1422.0304" inkscape:pageopacity="0" inkscape:pageshadow="2" inkscape:window-height="987" inkscape:window-maximized="1" inkscape:window-width="1680" inkscape:window-x="-8" inkscape:window-y="-8" inkscape:zoom="0.25" objecttolerance="10" pagecolor="#ffffff" showgrid="false">
	</sodipodi:namedview>
<g id="flowRoot34" transform="matrix(0.26458333,0,0,0.26458333,-489.7059,245.27948)">
</g>
<g id="flowRoot42" transform="matrix(0.26458333,0,0,0.26458333,-489.7059,245.27948)">
</g>
<path id="path145" inkscape:connector-curvature="0" class="st0" d="M0,53.1V0.1h9.4h9.4v20.7v20.7h15.5h15.5V20.9V0.1h9.4h9.4v52.9
	V106h-9.4h-9.4V83V60H34.3H18.9v23v23H9.4H0V53.1z"/>
<path id="path147" inkscape:connector-curvature="0" class="st0" d="M237.2,84.1c-5.8-15.4-10.6-28-10.6-28s-7,11.4-15.5,25.3
	l-15.4,25.3h-10.1c-9.2,0-10-0.1-9.6-1.3c0.3-0.7,10-17.4,21.7-37l21.2-35.7l-2.2-6.9l-2.2-6.9l-8.8-0.2l-8.8-0.2V9.3V0.1h15
	c11.3,0,15.1,0.2,15.4,1c0.2,0.5,7.7,20.5,16.7,44.3c9,23.8,16.5,43.4,16.5,43.5c0.1,0.1,3.3-0.9,7.1-2.2c3.8-1.3,7.2-2.1,7.5-1.7
	c0.5,0.6,4.7,14.8,4.9,16.6c0,0.4-7.2,2.8-16.1,5.5c-8.9,2.7-16.2,4.9-16.2,4.9C247.7,112.1,243,99.5,237.2,84.1L237.2,84.1z"/>
<path id="path151" inkscape:connector-curvature="0" class="st0" d="M392.9,53.6V1h9.4h9.4v43.7v43.7h25.6H463v8.8v8.8h-35.1h-35.1
	V53.6z"/>
<path id="path153" inkscape:connector-curvature="0" class="st0" d="M581.4,53.6V1h27.9h27.9v8.8v8.8h-18.5h-18.5v11.9v11.9h15.1
	h15.1v8.8v8.8h-15.1h-15.1v23v23h-9.4h-9.4L581.4,53.6z"/>
<path id="path155" inkscape:connector-curvature="0" class="st0" d="M743.5,51.7v-9.2H768h24.5v9.2v9.2H768h-24.5V51.7z"/>
<path id="path169" inkscape:connector-curvature="0" class="st0" d="M870.8,53.2V0.9h9.3h9.3v43.7v43.7h25.3h25.3v8.7v8.7h-34.7
	h-34.7V53.2z"/>
<path id="path175" inkscape:connector-curvature="0" class="st0" d="M1080.7,53.2V0.6h9.1h9.1v52.6v52.6h-9.1h-9.1V53.2z"/>
<path id="path183" inkscape:connector-curvature="0" class="st0" d="M1247,53.4V0.8h28h28v9v9h-18.7h-18.7v11.9v11.9h14.9h14.9v8.7
	v8.7h-14.9h-14.9V83v23.1h-9.3h-9.3L1247,53.4z"/>
<path id="path185" inkscape:connector-curvature="0" class="st0" d="M1420.3,53.4V0.8h31.7h31.7v8.7v8.7h-22.4h-22.4v11.9V42h19.5
	h19.5v9v9h-19.5h-19.5v14.4v14.4h23.5h23.5v8.7v8.7h-32.8h-32.8V53.4z"/>
<path id="path193" inkscape:connector-curvature="0" class="st0" d="M1506.1,9.3V4.4h3h3l0.6,0.6l0.6,0.6l0,0.2
	c0,0.2,0.1,0.4,0.2,0.7c0.1,0.2,0.1,0.2,0.1,0.5c0,0.9-0.3,1.6-1,2c-0.4,0.3-1,0.5-1.4,0.5c-0.1,0-0.2,0-0.2,0c0,0,0.2,0.3,0.2,0.4
	c0,0,0.1,0.1,0.1,0.1c0.1,0,0.3,0.1,0.4,0.2c0.1,0,0.2,0.1,0.2,0.2c0.3,0.2,0.7,0.8,0.9,1.4c0.1,0.1,0.4,0.7,0.7,1.3
	c0.3,0.6,0.6,1,0.6,1c0,0-0.1,0-0.9,0l-0.9,0l-0.5-0.8c-0.2-0.4-0.5-0.8-0.5-0.9c-0.1-0.3-0.3-0.7-0.5-0.9c-0.3-0.5-0.9-1.3-1.1-1.4
	c-0.3-0.2-0.7-0.3-1.6-0.3h-0.6V12v2.1h-0.7h-0.7L1506.1,9.3z M1510.4,8.6c0.2,0,0.4-0.1,0.7-0.3c0.1-0.1,0.2-0.2,0.4-0.3
	c0.3-0.3,0.4-0.5,0.5-0.7c0.1-0.2,0.1-0.3,0-0.5c-0.1-0.2-0.2-0.3-0.2-0.5c0-0.1,0-0.1,0-0.1c0,0-0.2-0.2-0.5-0.4l-0.2-0.2h-1.7
	h-1.7v1.5v1.5l1.3,0C1510,8.7,1510.3,8.6,1510.4,8.6L1510.4,8.6z"/>
<path id="path195" inkscape:connector-curvature="0" class="st0" d="M1508.8,18c-1-0.2-1.9-0.5-2.6-1c-0.2-0.1-0.6-0.3-0.8-0.4
	c-0.7-0.2-1-0.5-1.8-1.2c-1.2-1.2-1.6-1.9-2-3.4c-0.3-1.1-0.3-1.7-0.3-3c0-1.3,0.1-1.9,0.4-2.9c0.4-1.2,1.2-2.6,2.1-3.6
	c0.5-0.5,1.6-1.3,2.1-1.6c0.6-0.3,1.5-0.6,2.2-0.8c0.5-0.1,0.9-0.1,1.8-0.2c1.3,0,1.7,0.1,3.3,0.6c1.1,0.4,1.1,0.4,1.8,0.9
	c1.3,1,2.1,1.9,2.7,3c1,2.1,1.3,4.2,0.8,6.6c-0.1,0.4-0.2,0.9-0.3,1.1c-0.3,0.7-1.1,2.4-1.5,2.8c-0.6,0.8-1.3,1.3-2.2,1.6
	c-0.2,0.1-0.6,0.2-0.8,0.4c-0.6,0.3-1.4,0.7-2.1,0.8C1511.1,18.1,1509.6,18.2,1508.8,18L1508.8,18z M1511.2,16.4
	c1.2-0.2,2.4-0.6,3.4-1.3c0.6-0.4,1.3-1.2,1.6-1.8c0.6-1,1-2.4,1.1-3.8c0.1-1.5-0.3-3.2-1.1-4.5c-0.4-0.6-1.3-1.6-1.9-1.9
	c-0.3-0.2-0.7-0.4-0.9-0.5c-0.7-0.4-1-0.5-2.5-0.9c-1.4-0.3-3.1,0.1-4.2,0.9c-0.1,0.1-0.5,0.3-0.7,0.4c-0.9,0.5-1.6,1.2-2,2
	c-0.1,0.3-0.4,0.7-0.5,0.9c-0.5,0.7-0.9,1.9-1,2.9c-0.1,1.2,0.3,2.9,1,3.9c0.1,0.1,0.3,0.5,0.4,0.8c0.3,0.6,0.8,1.3,1.4,1.6
	c0.7,0.5,2,1.2,2.5,1.3C1508.7,16.4,1510.3,16.5,1511.2,16.4L1511.2,16.4z"/>
</svg>
