<?xml version="1.0" encoding="utf-8"?>
<!-- Generator: Adobe Illustrator 28.2.0, SVG Export Plug-In . SVG Version: 6.00 Build 0)  -->
<svg version="1.1"
	 id="svg8" xmlns:cc="http://creativecommons.org/ns#" xmlns:svg="http://www.w3.org/2000/svg" xmlns:dc="http://purl.org/dc/elements/1.1/" xmlns:rdf="http://www.w3.org/1999/02/22-rdf-syntax-ns#" xmlns:inkscape="http://www.inkscape.org/namespaces/inkscape" xmlns:sodipodi="http://sodipodi.sourceforge.net/DTD/sodipodi-0.dtd" inkscape:version="0.92.1 r15371" sodipodi:docname="Half-Life 2 Episode Two.svg"
	 xmlns="http://www.w3.org/2000/svg" xmlns:xlink="http://www.w3.org/1999/xlink" x="0px" y="0px" viewBox="0 0 1623.6 300.9"
	 style="enable-background:new 0 0 1623.6 300.9;" xml:space="preserve">
<style type="text/css">
	.st0{fill:#FFFFFF;}
</style>
<sodipodi:namedview  bordercolor="#666666" borderopacity="1" gridtolerance="10" guidetolerance="10" id="namedview32" inkscape:current-layer="svg8" inkscape:cx="1153.4875" inkscape:cy="380.01275" inkscape:pageopacity="0" inkscape:pageshadow="2" inkscape:window-height="987" inkscape:window-maximized="1" inkscape:window-width="1680" inkscape:window-x="-8" inkscape:window-y="-8" inkscape:zoom="0.35355339" objecttolerance="10" pagecolor="#ffffff" showgrid="false">
	</sodipodi:namedview>
<g id="flowRoot34" transform="matrix(0.26458333,0,0,0.26458333,-493.45465,23.442025)">
</g>
<g id="flowRoot42" transform="matrix(0.26458333,0,0,0.26458333,-493.45465,23.442025)">
</g>
<path id="path97" inkscape:connector-curvature="0" class="st0" d="M4.5,68.2V16.8h9.4h9.4v20.3v20.3h15.4H54V37.1V16.8h9.4h9.4
	v51.4v51.4h-9.4H54V97.1V74.6H38.6H23.3v22.5v22.5h-9.4H4.5V68.2z"/>
<path id="path99" inkscape:connector-curvature="0" class="st0" d="M251,124.4c-3.6-10-20-51.8-20.4-52.3
	c-0.3-0.3-7.3,10.3-15.6,23.6l-15,24.2l-10.3,0.2c-5.6,0.1-10.3,0.1-10.3-0.1c0-0.2,9.8-16.4,21.7-36.2l21.7-35.8l-2.3-7l-2.3-7
	h-8.5h-8.5v-8.6v-8.6H216h14.9l16.4,42.8c9,23.6,16.7,43,16.9,43.2c0.3,0.2,3.5-0.7,7.1-1.9c3.6-1.2,6.8-2.2,7.1-2.2
	c0.5,0,5.5,17.3,5.1,17.6c-0.1,0.1-7,2.1-15.3,4.5c-8.3,2.4-15.4,4.5-15.9,4.7C251.9,125.7,251.3,125.2,251,124.4L251,124.4z"/>
<path id="path101" inkscape:connector-curvature="0" class="st0" d="M0,273.7v-2h151.6h151.6v2v2H151.6H0V273.7z"/>
<path id="path103" inkscape:connector-curvature="0" class="st0" d="M396.1,68.3V17h9.3h9.3v42.7v42.7h25.5h25.5v8.5v8.5h-34.8
	h-34.8L396.1,68.3z"/>
<path id="path105" inkscape:connector-curvature="0" class="st0" d="M374.4,270v-29.5h17.5h17.5v3.7v3.7h-13.3h-13.3v8v8h9.3h9.3
	v3.7v3.7h-9.3h-9.3v10.4V292h13.3h13.3v3.7v3.7h-17.5h-17.5V270z"/>
<path id="path107" inkscape:connector-curvature="0" class="st0" d="M462,270v-29.4l4.1-0.4c4.6-0.4,13.7,0,17.9,0.9
	c7.2,1.5,12.4,5.6,13.9,11c1,3.5,0.7,10.1-0.6,14c-1.3,3.6-4.9,7.4-8.6,9c-3.7,1.7-10.7,2.7-15,2.2l-3.2-0.4v11.2v11.2h-4.2H462
	L462,270z M482.9,268.6c5-1.6,8-7.4,6.6-12.7c-1.3-5.1-5.4-7.4-13.7-7.8l-5.4-0.2v10.6c0,10.6,0,10.7,1.2,10.9
	C473.6,269.8,480.7,269.3,482.9,268.6z"/>
<path id="path109" inkscape:connector-curvature="0" class="st0" d="M583.5,68.3V17h27.9h27.9v8.5V34h-18.6h-18.6v11.7v11.7h15.1
	h15.1v8.5v8.5h-15.1h-15.1v22.6v22.6h-9.3h-9.3L583.5,68.3z"/>
<path id="path111" inkscape:connector-curvature="0" class="st0" d="M547.4,270v-29.5h4.5h4.5V270v29.5h-4.5h-4.5V270z"/>
<path id="path113" inkscape:connector-curvature="0" class="st0" d="M613.8,299.8c-2.7-0.8-6.3-2.4-6.6-3c-0.1-0.2,0.1-1.3,0.5-2.3
	c0.4-1.1,1.1-2.7,1.5-3.7l0.7-1.8l3.4,1.6c4.6,2.3,10.2,2.6,13.7,0.8c3.1-1.6,4.4-3.9,4.4-7.6c0-5.3-1.9-7.2-12.1-12
	c-9.9-4.7-12.8-8.9-12.4-17.7c0.2-3.5,0.5-4.8,1.7-6.8c1.8-3.1,4.7-5.4,8-6.6c3.5-1.2,12.1-1.2,16.2,0c4.8,1.4,4.7,1.4,3.2,5.7
	c-0.7,2.1-1.3,3.7-1.4,3.7s-1.5-0.6-3.2-1.4c-4.3-1.9-9.9-2.3-12.3-0.8c-4.1,2.6-5,7.5-2.3,11.8c1.4,2.2,2.3,2.8,9.6,6.5
	c8.9,4.6,11,6.4,12.6,11.1c1.3,3.9,1.2,10-0.2,13.1c-1.5,3.4-4.6,6.3-8.6,8.1c-3,1.4-4.2,1.6-8.8,1.8
	C618.2,300.4,615.3,300.2,613.8,299.8L613.8,299.8z"/>
<path id="path115" inkscape:connector-curvature="0" class="st0" d="M701.2,299.9c-5.2-1.6-10-6.1-13.1-12.4c-2.7-5.5-3-7.2-3-17.3
	c0-10.4,0.2-11.7,3.2-17.5c4.3-8.4,10-12.4,18.4-13c15.2-1.1,24.1,6.6,26.8,23.2c1.2,7.6-0.1,19.2-2.9,24.7
	C725.3,298,712.7,303.3,701.2,299.9L701.2,299.9z M716.9,289.9c5-3.3,7.4-9.7,7.4-20.3c0.1-15.2-4.6-21.8-15.7-21.8
	c-4.4,0-5.6,0.5-8.7,3.5c-4.4,4.4-6.2,10.7-5.6,20.3c0.5,8.7,3.6,16.1,8,18.9C705.8,292.9,712.9,292.5,716.9,289.9L716.9,289.9z"/>
<path id="path117" inkscape:connector-curvature="0" class="st0" d="M745.1,66.3v-9.6h24.4h24.4v9.6v9.6h-24.4h-24.4V66.3z"/>
<path id="path119" inkscape:connector-curvature="0" class="st0" d="M784.6,270.1v-29.4l3.5-0.4c6.2-0.7,17,0,20.8,1.3
	c12.2,4.2,17.5,14.3,16.4,31.1c-0.8,11.8-5.5,19.7-14,23.7c-4.6,2.2-10.2,3.1-19.2,3.1l-7.6,0V270.1z M805.9,290.3
	c7.2-3,11.5-12.6,10.9-23.9c-0.4-7-1.6-10.1-5.1-13.7c-3.6-3.6-7-4.7-14-4.7h-4.6v21.7v21.7l2.5,0.2
	C799.5,292,803.2,291.5,805.9,290.3L805.9,290.3z"/>
<path id="path121" inkscape:connector-curvature="0" class="st0" d="M871.7,68.2l0.1-51.4l9.2-0.1l9.2-0.1v43v43h25.5h25.5v8.5v8.5
	h-34.8h-34.8L871.7,68.2z"/>
<path id="path123" inkscape:connector-curvature="0" class="st0" d="M875.9,270v-29.5h17.5h17.5v3.7v3.7h-13.3h-13.3v8v8h9.3h9.3
	v3.7v3.7h-9.3h-9.3v10.4v10.4h13.3h13.3v3.7v3.7h-17.5h-17.5V270z"/>
<path id="path125" inkscape:connector-curvature="0" class="st0" d="M1080.6,68.3V16.5h9.4h9.4v51.8v51.8h-9.4h-9.4V68.3z"/>
<path id="path127" inkscape:connector-curvature="0" class="st0" d="M1245.8,68.3V16.5h28.2h28.2v9v9h-18.4h-18.4v11.6v11.6h14.6
	h14.6v8.6v8.6h-14.6h-14.6v22.5v22.5h-9.8h-9.8L1245.8,68.3z"/>
<path id="path129" inkscape:connector-curvature="0" class="st0" d="M1419.2,68.3V16.5h31.5h31.5v8.6v8.6h-22.1H1438v11.6v11.6h19.1
	h19.1v9v9h-19.1H1438V89v13.9h23.3h23.3v8.6v8.6h-32.7h-32.7V68.3z"/>
<path id="path131" inkscape:connector-curvature="0" class="st0" d="M1578.4,63.6l0-6.2l9.4-11.3c12-14.3,16.5-21,17.5-25.8
	c1-4.5,0.3-6.7-2.6-9c-4.1-3.2-6.8-1.1-7.6,5.8l-0.5,3.8h-6.9c-7.5,0-7.9-0.2-7.9-4.4c0-6.9,5-13.4,12-15.4
	c10.9-3.3,22.3,0.2,26.5,8c2.6,4.8,2.4,13.7-0.3,19.4c-2.7,5.7-8.1,13.7-15.9,23.2l-6.4,7.9l12.3,0.2l12.3,0.2V65v4.9h-21h-21
	L1578.4,63.6z"/>
<path id="path133" inkscape:connector-curvature="0" class="st0" d="M1243.6,298.3c-7.9-3.9-12.8-13.3-13.4-25.8
	c-1.1-21.1,9.4-34.1,26.5-32.8c12.6,1,20.2,9.1,22,23.6c1.6,12.9-1.3,24.2-7.7,30.7c-4.8,4.8-9,6.3-17.3,6.3
	C1248.6,300.3,1246.9,300,1243.6,298.3L1243.6,298.3z M1258,292c3.7-1,7.6-4.5,9.5-8.4c2.4-4.9,3.4-13.2,2.4-19.8
	c-1.5-9.8-5.1-14.5-12.4-16c-5.4-1.1-9.4-0.1-12.8,3.5c-8.3,8.5-7.1,32,2,38.8C1250.3,292.8,1253.3,293.3,1258,292L1258,292z"/>
<path id="path135" inkscape:connector-curvature="0" class="st0" d="M1132.8,270.8c-4.9-15.8-9-29.3-9.2-30
	c-0.3-1.1,0.2-1.3,4.1-1.3h4.5l5.1,17.8c2.8,9.8,5.4,18.7,5.8,19.7c0.6,1.6,1.6-1.1,6.9-17.6c5.4-17.1,6.3-19.5,7.8-19.8
	c1.7-0.2,1.8,0.1,12.4,33.8c0.9,2.8,1.8,4.7,2.1,4.2s3-9.2,6-19.5l5.5-18.7h4.4c2.4,0,4.4,0.2,4.4,0.5c0,0.3-2.9,10-6.4,21.6
	c-12.4,40.7-11.5,38.1-13.3,37.8c-1.4-0.2-2.5-2.8-8.4-19.7l-6.7-19.5l-6.4,19.7c-5.7,17.6-6.5,19.7-8,19.7
	C1141.9,299.5,1140.9,296.8,1132.8,270.8L1132.8,270.8z"/>
<path id="path137" inkscape:connector-curvature="0" class="st0" d="M1053.6,273.6v-25.9h-9h-9V244v-3.8h23.3h23.3v3.8v3.8h-9.8
	h-9.8v25.9v25.9h-4.5h-4.5V273.6z"/>
<path id="path141" inkscape:connector-curvature="0" class="st0" d="M1507.5,33.8c-1.1-0.1-2.2-0.5-3-1.1c-0.2-0.1-0.4-0.2-0.5-0.3
	c-0.3-0.1-0.8-0.3-1.2-0.6c-0.6-0.4-1.4-1.3-2-2.2c-0.4-0.7-0.9-2.1-1-3.6c-0.2-1.9,0-3.5,0.8-5.1c0.2-0.6,0.4-0.8,1-1.7
	c0.6-0.8,1.3-1.4,2.2-2c1.3-0.9,3.4-1.4,5.2-1.2c0.9,0.1,1.4,0.2,2.6,0.6c1.1,0.4,1.3,0.4,2.2,1.1c0.6,0.4,1.4,1.3,1.8,1.8
	c0.7,1,1.3,2.4,1.5,3.7c0.1,0.7,0.2,2,0.1,2.8c-0.2,1.3-0.4,2.2-0.9,3c-0.1,0.2-0.3,0.5-0.4,0.8c-0.5,1.1-1.2,1.9-2.2,2.4
	c-0.2,0.1-0.5,0.2-0.6,0.3c-0.1,0-0.5,0.2-0.7,0.3c-0.9,0.5-1.7,0.8-2.5,0.9C1509.3,33.8,1508.1,33.8,1507.5,33.8L1507.5,33.8z
	 M1509.5,32.1c1-0.1,1.7-0.3,2.7-0.8c0.8-0.4,1.2-0.7,1.7-1.2c0.6-0.6,1-1.3,1.4-2.4c0.8-2.5,0.5-5.3-0.8-7.2
	c-0.3-0.5-1.1-1.2-1.6-1.5c-0.6-0.4-0.9-0.5-1.2-0.8c-0.4-0.2-0.7-0.4-1.3-0.5c-0.2,0-0.6-0.1-0.8-0.2c-1.4-0.3-3,0-4.3,0.7
	c-0.2,0.1-0.6,0.4-0.8,0.5c-1,0.5-1.6,1.1-2.1,2.1c-0.1,0.2-0.3,0.5-0.4,0.6c-0.4,0.6-0.8,1.5-1,2.3c-0.1,0.6-0.1,1.5,0,2.1
	c0.2,0.9,0.5,1.6,0.9,2.3c0.1,0.2,0.3,0.5,0.4,0.7c0.2,0.5,0.5,0.9,0.9,1.2c0.4,0.4,0.6,0.5,1.2,0.8c1.5,0.8,1.6,0.8,2.6,1
	C1507.8,32.2,1508.9,32.2,1509.5,32.1L1509.5,32.1z"/>
<path id="path143" inkscape:connector-curvature="0" class="st0" d="M1504.5,25.1v-4.8h3h3l0.6,0.6c0.5,0.5,0.6,0.6,0.6,0.8
	c0,0.1,0.1,0.3,0.1,0.5c0.2,0.6,0.1,1.4-0.2,2c-0.2,0.3-0.6,0.7-1,0.9c-0.3,0.2-0.5,0.3-1,0.3l-0.3,0.1l0.1,0.2
	c0.1,0.1,0.2,0.2,0.2,0.2c0.2,0,0.7,0.4,1,0.7c0.1,0.1,0.3,0.5,0.5,0.9c0.2,0.4,0.6,1.1,0.8,1.6c0.3,0.5,0.5,0.9,0.5,0.9
	c0,0-0.4,0-0.9,0h-0.9l-0.4-0.7c-0.2-0.4-0.6-1-0.7-1.3c-0.3-0.6-0.7-1.2-1.2-1.7c-0.3-0.3-0.8-0.4-1.8-0.4l-0.6,0v2.1v2.1h-0.8
	h-0.8L1504.5,25.1z M1509.3,24.3c0.5-0.3,1.1-0.9,1.1-1.3c0-0.1-0.1-0.2-0.1-0.3c-0.1-0.1-0.1-0.3-0.1-0.4c0-0.1,0-0.2-0.1-0.2
	c0,0-0.2-0.1-0.4-0.3l-0.3-0.3h-1.7h-1.7V23v1.5l1.5,0l1.5,0L1509.3,24.3z"/>
<path id="path177-0" inkscape:connector-curvature="0" class="st0" d="M1320.2,273.8v-2.1h151.7h151.7l-0.1,2.1l-0.1,2.1l-151.6,0.1
	l-151.6,0.1L1320.2,273.8z"/>
</svg>
