<?xml version="1.0" encoding="UTF-8"?>
<svg id="_레이어_1" data-name="레이어 1" xmlns="http://www.w3.org/2000/svg" version="1.1" viewBox="0 0 119 59">
  <defs>
    <style>
      .cls-1 {
        fill: #fff;
        stroke-width: 0px;
      }
    </style>
  </defs>
  <path class="cls-1" d="M1.2,58h9.7V16.6H1.2s0,41.4,0,41.4ZM6.1,11.2c3,0,5.4-2.3,5.4-5.3S9.1.6,6.1.6.7,2.9.7,5.9s2.4,5.3,5.4,5.3ZM43.3.7c-16.4,0-26.8,11.2-26.8,29.1s10.3,29.1,26.8,29.1,26.7-11.2,26.7-29.1S59.7.7,43.3.7ZM43.3,9.3c10,0,16.4,8,16.4,20.5s-6.4,20.5-16.4,20.5-16.4-8-16.4-20.5,6.4-20.5,16.4-20.5ZM74.2,42.1c.4,10.4,8.9,16.8,21.9,16.8s22.2-6.7,22.2-17.4-4.8-13.1-16.3-15.7l-6.5-1.5c-6.9-1.6-9.8-3.8-9.8-7.6s4.3-7.8,10.7-7.8,10.9,3.2,11.3,8.4h9.6c-.2-9.9-8.4-16.6-20.9-16.6s-21,6.8-21,16.8,4.9,13,15.3,15.4l7.3,1.7c7.1,1.7,10,4,10,8.1s-4.7,8-11.5,8-12.1-3.4-12.7-8.6h-9.8Z"/>
</svg>