<?xml version="1.0" encoding="UTF-8"?>
<svg xmlns="http://www.w3.org/2000/svg" xmlns:xlink="http://www.w3.org/1999/xlink" width="px" height="100px" viewBox="0 0 496 100" version="1.1">
<g id="surface1">
<path style=" stroke:none;fill-rule:evenodd;fill:rgb(100%,100%,100%);fill-opacity:1;" d="M 295.066406 12.601562 C 296.9375 11.324219 299.347656 11.148438 301.382812 12.144531 C 303.414062 13.140625 304.757812 15.148438 304.898438 17.410156 C 305.039062 19.667969 303.957031 21.828125 302.0625 23.070312 C 299.171875 24.960938 295.300781 24.167969 293.382812 21.296875 C 291.464844 18.425781 292.21875 14.546875 295.066406 12.601562 Z M 400.359375 28.160156 C 398.042969 27.328125 395.65625 27.152344 393.121094 27.152344 C 390.242188 27.097656 387.378906 27.589844 384.683594 28.605469 C 382.3125 29.519531 380.164062 30.9375 378.386719 32.757812 L 378.386719 12.359375 L 368.066406 12.359375 L 368.066406 70.921875 L 378.515625 70.921875 L 378.515625 49.445312 C 378.25 45.816406 379.453125 42.230469 381.851562 39.496094 C 383.011719 38.304688 384.417969 37.375 385.972656 36.777344 C 387.527344 36.179688 388.730469 36.035156 390.855469 36.035156 C 392.394531 36.035156 393.730469 36.140625 395.070312 36.664062 C 396.410156 37.160156 397.613281 37.957031 398.59375 38.992188 C 400.585938 41.457031 401.367188 44.5625 401.367188 47.746094 L 401.367188 70.984375 L 411.691406 70.984375 L 411.691406 46.425781 C 411.691406 43.628906 411.535156 41.09375 410.671875 38.574219 C 409.804688 36.050781 408.4375 33.730469 406.65625 31.75 C 404.683594 29.808594 402.664062 28.949219 400.359375 28.160156 Z M 426.734375 12.546875 L 437.121094 12.546875 L 437.0625 27.15625 L 447.449219 27.15625 L 447.449219 36.476562 L 437.0625 36.476562 L 436.996094 71.113281 L 426.671875 71.046875 L 426.734375 36.476562 L 416.347656 36.414062 L 416.410156 27.15625 L 426.734375 27.15625 Z M 187.074219 26.84375 C 184 26.765625 180.941406 27.300781 178.074219 28.414062 C 175.621094 29.394531 173.457031 30.976562 171.777344 33.011719 L 171.777344 27.21875 L 161.328125 27.21875 L 161.328125 71.742188 L 171.964844 71.742188 L 171.964844 49.195312 C 171.851562 47.40625 172.085938 45.609375 172.65625 43.90625 C 173.234375 42.203125 174.15625 40.636719 175.367188 39.3125 C 176.582031 38.15625 178.015625 37.257812 179.585938 36.664062 C 181.15625 36.082031 182.820312 35.804688 184.496094 35.847656 C 185.984375 35.847656 187.457031 35.996094 188.835938 36.539062 C 190.191406 37.050781 191.433594 37.820312 192.488281 38.808594 C 194.566406 41.210938 195.628906 44.324219 195.445312 47.496094 L 195.445312 71.742188 L 206.085938 71.742188 L 206.085938 45.835938 C 206.089844 43.050781 206.089844 40.855469 205.277344 38.484375 C 204.441406 36.035156 203.066406 33.800781 201.257812 31.953125 C 199.445312 30.105469 197.5625 28.769531 195.132812 27.882812 C 192.699219 27 190.324219 26.921875 187.203125 26.84375 Z M 313.320312 79.421875 C 313.816406 81.339844 314.535156 83.203125 315.464844 84.964844 C 317.359375 88.414062 320.167969 91.269531 323.585938 93.214844 C 330.96875 97.132812 339.8125 97.132812 347.191406 93.214844 C 350.609375 91.269531 353.421875 88.414062 355.3125 84.964844 C 356.242188 83.203125 356.960938 81.339844 357.457031 79.421875 L 346.941406 79.421875 C 346.347656 80.804688 345.5625 82.097656 344.613281 83.265625 C 343.453125 84.519531 342.035156 85.507812 340.457031 86.160156 C 337.238281 87.421875 333.664062 87.421875 330.449219 86.160156 C 328.859375 85.523438 327.441406 84.535156 326.292969 83.265625 C 325.339844 82.097656 324.558594 80.804688 323.964844 79.421875 Z M 142.253906 27.152344 L 153.207031 27.152344 L 153.207031 71.105469 L 142.253906 71.105469 Z M 303.664062 27.152344 L 292.710938 27.152344 L 292.710938 71.105469 L 303.664062 71.105469 Z M 96.800781 38.808594 L 118.960938 12.542969 L 132.496094 12.542969 L 111.34375 38.175781 L 134.007812 71.113281 L 119.402344 71.113281 L 102.53125 46.238281 L 96.800781 53.226562 L 96.800781 71.113281 L 84.589844 71.113281 L 84.589844 12.546875 L 96.800781 12.546875 Z M 476.148438 45.730469 L 470.925781 44.660156 C 465.890625 43.589844 463.8125 42.078125 463.8125 39.433594 C 463.8125 36.789062 466.835938 34.015625 471.304688 34.015625 C 473.140625 34.015625 474.925781 34.242188 476.40625 35.292969 C 477.886719 36.34375 478.917969 37.910156 479.300781 39.683594 L 487.796875 39.683594 C 487.484375 32.320312 480.746094 27.089844 471.242188 27.089844 C 461.734375 27.089844 454.746094 32.253906 454.746094 40.0625 C 454.746094 46.359375 458.648438 50.328125 466.457031 51.964844 L 472.121094 53.097656 C 477.410156 54.234375 479.550781 55.867188 479.550781 58.578125 C 479.550781 61.285156 476.214844 64.117188 471.554688 64.117188 C 466.898438 64.117188 462.929688 61.914062 462.492188 58.449219 L 453.804688 58.449219 C 454.117188 66.132812 460.792969 71.046875 471.050781 71.046875 C 481.3125 71.046875 488.550781 65.878906 488.550781 57.570312 C 488.550781 51.144531 484.902344 47.554688 476.148438 45.730469 Z M 281.566406 12.546875 L 270.863281 12.546875 L 270.863281 71.113281 L 281.566406 71.113281 Z M 144.609375 12.601562 C 147.5 10.667969 151.410156 11.445312 153.339844 14.335938 C 155.269531 17.230469 154.492188 21.140625 151.601562 23.070312 C 148.710938 25.003906 144.804688 24.226562 142.871094 21.332031 C 140.941406 18.441406 141.71875 14.53125 144.609375 12.601562 Z M 337.417969 25.347656 C 342.03125 25.382812 352.171875 24.976562 356.949219 20.867188 L 358.460938 30.125 L 351.460938 31.402344 C 353.015625 32.886719 354.335938 34.59375 355.375 36.476562 C 359.242188 43.9375 359.242188 52.816406 355.375 60.277344 C 353.441406 63.714844 350.613281 66.566406 347.195312 68.527344 C 339.8125 72.445312 330.96875 72.445312 323.585938 68.527344 C 320.167969 66.582031 317.359375 63.726562 315.464844 60.277344 C 311.484375 52.84375 311.484375 43.910156 315.464844 36.476562 C 317.34375 33.03125 320.160156 30.195312 323.585938 28.289062 C 327.8125 25.980469 332.621094 24.957031 337.417969 25.347656 Z M 237.753906 25.328125 C 241.894531 25.273438 245.980469 26.316406 249.589844 28.351562 C 252.980469 30.253906 255.769531 33.070312 257.648438 36.476562 C 261.585938 43.941406 261.585938 52.871094 257.648438 60.339844 C 255.753906 63.789062 252.941406 66.644531 249.527344 68.589844 C 242.144531 72.507812 233.300781 72.507812 225.917969 68.589844 C 222.5 66.644531 219.691406 63.789062 217.796875 60.339844 C 213.859375 52.871094 213.859375 43.941406 217.796875 36.476562 C 219.695312 33.0625 222.507812 30.25 225.917969 28.351562 C 229.519531 26.296875 233.609375 25.253906 237.753906 25.328125 Z M 242.789062 61.539062 C 244.367188 60.882812 245.785156 59.894531 246.945312 58.640625 C 249.4375 55.816406 250.746094 52.140625 250.59375 48.375 C 250.746094 44.648438 249.4375 41.011719 246.945312 38.238281 C 245.789062 36.964844 244.371094 35.953125 242.789062 35.277344 C 239.570312 34.015625 235.996094 34.015625 232.78125 35.277344 C 231.179688 35.917969 229.753906 36.933594 228.625 38.238281 C 226.109375 41 224.796875 44.644531 224.972656 48.375 C 224.796875 52.144531 226.105469 55.832031 228.625 58.640625 C 229.773438 59.910156 231.191406 60.898438 232.78125 61.539062 C 235.996094 62.800781 239.570312 62.800781 242.789062 61.539062 Z M 340.457031 61.476562 C 342.035156 60.820312 343.453125 59.832031 344.613281 58.578125 C 349.488281 52.652344 349.488281 44.101562 344.613281 38.175781 C 343.445312 36.914062 342.03125 35.90625 340.457031 35.214844 C 338.863281 34.558594 337.148438 34.238281 335.421875 34.269531 C 333.714844 34.203125 332.011719 34.527344 330.449219 35.214844 C 328.871094 35.898438 327.453125 36.90625 326.292969 38.175781 C 321.417969 44.101562 321.417969 52.652344 326.292969 58.578125 C 327.453125 59.847656 328.871094 60.855469 330.449219 61.539062 C 332.03125 62.164062 333.71875 62.484375 335.421875 62.480469 C 337.152344 62.496094 338.867188 62.152344 340.457031 61.476562 Z M 340.457031 61.476562 "/>
<path style=" stroke:none;fill-rule:evenodd;fill:rgb(4.705882%,65.098039%,47.058824%);fill-opacity:1;" d="M 38.449219 26.035156 C 38.464844 23.039062 39.277344 20.101562 40.804688 17.527344 C 42.273438 15.078125 44.296875 13.164062 46.886719 11.792969 C 49.476562 10.421875 52.398438 9.746094 55.652344 9.761719 C 58.867188 9.78125 61.761719 10.496094 64.332031 11.898438 C 66.90625 13.300781 68.910156 15.238281 70.339844 17.707031 C 71.777344 20.175781 72.480469 22.976562 72.460938 26.109375 C 72.441406 29.246094 71.699219 32.042969 70.234375 34.511719 C 68.789062 36.96875 66.683594 38.964844 64.15625 40.277344 C 61.597656 41.636719 58.726562 42.308594 55.554688 42.304688 L 55.554688 42.308594 L 38.449219 42.308594 Z M 38.449219 26.035156 "/>
<path style=" stroke:none;fill-rule:evenodd;fill:rgb(94.117647%,24.313725%,24.313725%);fill-opacity:1;" d="M 38.449219 58.582031 C 38.4375 61.574219 37.621094 64.511719 36.09375 67.089844 C 34.628906 69.539062 32.601562 71.449219 30.011719 72.824219 C 27.421875 74.195312 24.5 74.871094 21.246094 74.851562 C 18.03125 74.832031 15.136719 74.121094 12.566406 72.71875 C 9.992188 71.3125 7.988281 69.375 6.558594 66.910156 C 5.125 64.441406 4.417969 61.640625 4.4375 58.503906 C 4.457031 55.371094 5.199219 52.570312 6.664062 50.101562 C 8.109375 47.648438 10.21875 45.648438 12.742188 44.335938 C 15.304688 42.980469 18.171875 42.308594 21.34375 42.3125 L 21.34375 42.308594 L 38.449219 42.308594 Z M 38.449219 58.582031 "/>
</g>
</svg>
