<?xml version="1.0" encoding="UTF-8"?>
<svg xmlns="http://www.w3.org/2000/svg" xmlns:xlink="http://www.w3.org/1999/xlink" width="px" height="100px" viewBox="0 0 388 100" version="1.1">
<g id="surface1">
<path style=" stroke:none;fill-rule:evenodd;fill:rgb(100%,100%,100%);fill-opacity:1;" d="M 28.871094 99.316406 L 43.25 99.316406 C 48.363281 99.316406 52.503906 95.160156 52.503906 90.03125 L 52.503906 88.234375 C 52.503906 83.113281 48.363281 78.953125 43.25 78.953125 L 28.871094 78.953125 C 24.136719 78.929688 20.304688 75.085938 20.300781 70.347656 L 20.300781 12.851562 C 20.300781 7.730469 16.15625 3.570312 11.039062 3.570312 L 9.253906 3.570312 C 4.144531 3.570312 0 7.730469 0 12.851562 L 0 70.347656 C 0 86.28125 12.992188 99.316406 28.871094 99.316406 M 207.507812 23.941406 L 217.269531 23.941406 L 217.269531 90.035156 C 217.269531 95.160156 221.414062 99.3125 226.519531 99.3125 L 228.316406 99.3125 C 233.429688 99.3125 237.566406 95.160156 237.566406 90.03125 L 237.566406 23.941406 L 247.328125 23.941406 C 252.441406 23.941406 256.578125 19.78125 256.578125 14.652344 L 256.578125 12.859375 C 256.578125 7.734375 252.433594 3.578125 247.328125 3.578125 L 207.507812 3.578125 C 202.394531 3.578125 198.257812 7.734375 198.257812 12.859375 L 198.257812 14.652344 C 198.257812 19.78125 202.402344 23.945312 207.507812 23.945312 M 273.289062 99.128906 C 273.894531 99.246094 274.523438 99.316406 275.15625 99.316406 L 312.457031 99.316406 C 317.570312 99.316406 321.710938 95.160156 321.710938 90.03125 L 321.710938 88.234375 C 321.710938 83.113281 317.566406 78.953125 312.457031 78.953125 L 286.195312 78.953125 L 286.195312 61.707031 L 306.613281 61.707031 C 311.71875 61.707031 315.863281 57.554688 315.863281 52.421875 L 315.863281 50.625 C 315.863281 45.5 311.71875 41.339844 306.609375 41.339844 L 286.195312 41.339844 L 286.195312 23.941406 L 312.457031 23.941406 C 317.570312 23.941406 321.710938 19.78125 321.710938 14.660156 L 321.710938 12.863281 C 321.710938 7.734375 317.566406 3.578125 312.457031 3.578125 L 275.15625 3.578125 C 270.042969 3.578125 265.898438 7.734375 265.898438 12.863281 L 265.898438 90.035156 C 265.898438 94.523438 269.070312 98.269531 273.289062 99.136719 M 84.636719 32.800781 C 84.636719 28.523438 87.636719 24.699219 91.855469 24.035156 C 97.164062 23.210938 101.792969 27.363281 101.792969 32.542969 L 101.792969 53.753906 L 84.636719 53.753906 Z M 73.585938 99.316406 L 75.378906 99.316406 C 80.492188 99.316406 84.636719 95.160156 84.636719 90.03125 L 84.636719 74.117188 L 101.792969 74.117188 L 101.792969 90.03125 C 101.792969 95.160156 105.929688 99.316406 111.039062 99.316406 L 112.832031 99.316406 C 117.945312 99.316406 122.085938 95.160156 122.085938 90.03125 L 122.085938 32.542969 C 122.085938 15.824219 107.78125 2.292969 90.851562 3.664062 C 75.761719 4.886719 64.335938 17.941406 64.335938 33.136719 L 64.335938 90.03125 C 64.335938 95.160156 68.476562 99.316406 73.589844 99.316406 Z M 165.3125 23.941406 L 179.683594 23.941406 C 184.792969 23.941406 188.9375 19.777344 188.9375 14.648438 L 188.9375 12.851562 C 188.9375 7.730469 184.792969 3.570312 179.683594 3.570312 L 165.304688 3.570312 C 149.433594 3.570312 136.441406 16.605469 136.441406 32.542969 L 136.441406 90.03125 C 136.441406 95.160156 140.574219 99.3125 145.6875 99.3125 L 147.476562 99.3125 C 152.589844 99.3125 156.726562 95.160156 156.726562 90.03125 L 156.726562 64.234375 L 179.683594 64.234375 C 184.792969 64.234375 188.9375 60.078125 188.9375 54.945312 L 188.9375 53.160156 C 188.9375 48.03125 184.792969 43.871094 179.683594 43.871094 L 156.726562 43.871094 L 156.726562 32.542969 C 156.726562 27.804688 160.589844 23.933594 165.3125 23.933594 M 362.421875 99.316406 L 376.796875 99.316406 C 381.910156 99.316406 386.046875 95.160156 386.046875 90.03125 L 386.046875 88.234375 C 386.046875 83.113281 381.902344 78.953125 376.796875 78.953125 L 362.421875 78.953125 C 357.699219 78.953125 353.839844 75.082031 353.839844 70.347656 L 353.839844 12.851562 C 353.839844 7.730469 349.695312 3.570312 344.589844 3.570312 L 342.796875 3.570312 C 337.683594 3.570312 333.542969 7.730469 333.542969 12.851562 L 333.542969 70.347656 C 333.542969 86.28125 346.535156 99.316406 362.421875 99.316406 "/>
</g>
</svg>
