<?xml version="1.0" encoding="utf-8"?>
<!-- Generator: Adobe Illustrator 28.2.0, SVG Export Plug-In . SVG Version: 6.00 Build 0)  -->
<svg version="1.1" id="레이어_1" xmlns="http://www.w3.org/2000/svg" xmlns:xlink="http://www.w3.org/1999/xlink" x="0px"
	 y="0px" viewBox="0 0 505.2 329.8" style="enable-background:new 0 0 505.2 329.8;" xml:space="preserve">
<style type="text/css">
	.st0{fill:#FFFFFF;}
</style>
<path class="st0" d="M477.2,139.1c-8.6-2.2-16.1-4-16.1-11.1c0-5.6,4.2-9,11-9s11.5,3.7,13.1,10.1l16.9-8.1
	c-4.4-11.3-15.4-18-29.5-18c-18.1,0-30.8,11.1-30.8,26.9c0,19.4,14.1,23,26.5,26.2c8.7,2.2,16.2,4.2,16.2,11.5c0,6-4.8,9.9-12.3,9.9
	s-13.6-4.1-15.3-10.1l-16.9,8.1c4.7,11.1,16.7,17.9,31.4,17.9c19.7,0,32.4-11,32.4-28C504,145.8,489.1,142.1,477.2,139.1
	L477.2,139.1z M481.2,64h9.8V50.7h10l2.5-8.7H491v-8.4h14.2v-8.9h-24L481.2,64z M456.5,65.2c11.3,0,20.6-9.2,20.6-20.4
	c0-11.3-9.2-20.4-20.6-20.4c-11.3,0-20.6,9.2-20.6,20.4C436,56,445.2,65.2,456.5,65.2z M456.5,33.8c6.1,0,11,4.9,11,11
	c0,6-4.9,11-11,11s-11-4.9-11-11S450.5,33.8,456.5,33.8z M272.8,103.5l4.2,8.7v78.7h18.3v-57.5l41.1,57.5h19.1v-87.4h-18.3v58.3
	l-40.8-58.3L272.8,103.5z M411.1,107.1c-5.4-2.2-13.2-3.6-17.3-3.6H364v87.4h29.7c6.1,0,11.9-1.1,17.3-3.3s10.2-5.3,14.3-9.2
	s7.3-8.5,9.6-13.8s3.5-11,3.5-17.2c0-6.1-1.2-11.9-3.5-17.2s-5.5-9.9-9.6-13.8C421.3,112.5,416.6,109.4,411.1,107.1z M417.1,157.6
	c-1.3,3.2-3.2,5.9-5.5,8.2s-5,4.2-8.2,5.5c-3.2,1.4-6.6,2-10.2,2h-10.4v-52.1h10.5c3.6,0,7,0.7,10.2,2.1s5.9,3.2,8.2,5.5
	s4.1,5.1,5.5,8.3c1.3,3.2,2,6.6,2,10.2C419.2,151,418.5,154.4,417.1,157.6z M64.5,103.5v87.4h52V174l-33-0.2v-19.1H109l4.6-16.5
	H83.5v-17.7h33v-17H64.5z M265.6,138.2h-30.2v-17.7h33.1v-17h-52v87.4h52V174l-33.1-0.2v-19.1H261L265.6,138.2z M308.3,80.9
	c3,3.2,6.7,5.6,11,7.3c4.3,1.7,9.3,2.6,14.8,2.6s10.5-0.8,14.8-2.5c4.4-1.7,8.1-4.1,11.1-7.2c3-3.1,5.4-6.9,7-11.4
	c1.7-4.5,2.5-9.5,2.5-14.9l0.3-54.3h-19.1l-0.3,53.2c0,5.9-1.4,10.5-4.2,13.9c-2.8,3.4-6.8,5.1-12.1,5c-5.3,0-9.3-1.7-12-5.2
	c-2.7-3.4-4.1-8.1-4.1-14l0.3-53.1h-19.1l-0.3,54c0,5.5,0.8,10.5,2.4,15C303,73.9,305.3,77.7,308.3,80.9L308.3,80.9z M216.5,77
	c4.1,4.1,8.9,7.4,14.4,9.8c5.6,2.4,11.5,3.6,18,3.6c6.3,0,12.1-1,17.4-3.2s9.9-5.2,13.8-9s6.9-8.4,9.1-13.7c1.6-3.8,2.6-7.8,3.1-12
	c0.2-1.6,0.4-8.9,0.2-12.2h-43.4l-7.7,15.8h30.9c-1.2,5-3.9,9.1-8.1,12.2c-4.2,3.1-9.2,4.6-15.1,4.6c-3.8,0-7.3-0.8-10.5-2.2
	c-3.3-1.5-6.1-3.5-8.5-6c-2.4-2.5-4.3-5.4-5.7-8.8s-2-7-2-10.8s0.7-7.4,2.1-10.8s3.3-6.3,5.8-8.8c2.4-2.5,5.3-4.4,8.5-5.8
	c3.2-1.4,6.7-2.1,10.5-2.1c5.1,0,9.6,1.2,13.5,3.4c3.9,2.3,7,5.5,9.1,9.8l17.1-8.1c-3.6-7.1-8.8-12.6-15.8-16.6S258.3,0,249.4,0
	c-6.3,0-12.2,1.1-17.8,3.5c-5.6,2.3-10.5,5.6-14.7,9.6c-4.2,4.1-7.5,8.9-9.9,14.3c-2.5,5.5-3.7,11.3-3.7,17.5s1.1,12.1,3.5,17.6
	C209.2,68.1,212.4,72.9,216.5,77L216.5,77z M0,0.5l4.3,9v69.7l-4.3,9h53.3l4.8-17.1H23.2V0.5H0z M0,103.2l4.3,9.1v69.6L0,191h53.3
	l4.8-17.2H23.2v-70.6L0,103.2z M64.5,0.7v87.5h52V71.3l-33-0.2V51.9H109l4.6-16.4H83.5V17.8h33V0.7H64.5z M378.1,0.7v87.5h52V71.3
	L397,71.1V51.9h25.6l4.6-16.4H397V17.8h33.1V0.7H378.1z M141.9,88.2l6.6-17.1h35l6.8,17.1H210L174.9,0.5H148l5.6,11.4l-31,76.3
	H141.9z M166.3,25l10.9,29.4h-22.3L166.3,25z M155.9,173.9c-0.2-0.1-0.5-0.2-0.7-0.3c-3.3-1.5-6.1-3.5-8.5-6s-4.3-5.4-5.7-8.8
	s-2-7-2-10.8s0.7-7.4,2.1-10.8s3.3-6.3,5.8-8.8c2.4-2.5,5.3-4.4,8.5-5.8s6.7-2.1,10.5-2.1c5.1,0,9.6,1.2,13.5,3.4
	c3.9,2.3,7,5.5,9.1,9.8l17.1-8.1c-3.6-7.1-8.8-12.6-15.8-16.6s-14.9-6.1-23.8-6.1c-6.3,0-12.2,1.1-17.8,3.5
	c-5.6,2.3-10.5,5.6-14.7,9.6c-4.2,4.1-7.5,8.9-9.9,14.3c-2.5,5.5-3.7,11.3-3.7,17.5s1.1,12.1,3.5,17.6s5.6,10.3,9.7,14.4
	c3.9,3.9,8.5,7.1,13.7,9.4L155.9,173.9z"/>
<path class="st0" d="M209.1,143.3h-43.5l-7.7,15.8h30.9c-1.2,5-3.9,9.1-8.1,12.2s-9.2,4.6-15.1,4.6c-2.6,0-5.1-0.4-7.5-1.1
	l-4.2,17.2c3.7,0.9,7.5,1.4,11.5,1.4c6.3,0,12.1-1,17.4-3.2s9.9-5.2,13.8-9s6.9-8.4,9.1-13.7c1.6-3.8,2.6-7.8,3.1-12
	C209,153.9,209.3,146.6,209.1,143.3z"/>
<path class="st0" d="M124.5,240.6c9.4-21.2,34.2-71.4,35.1-73.1c0.8-1.5,0.8-2.3-0.4-0.6c-6,8.7-15.9,23-24.8,35.9
	c-4.4,6.3-7.8,9-9.6,10.1c-0.9,0.6-1.6,1.4-2,2.3c-2.5,5.9-25.1,57.1-29.5,68.9c-1.9-9.5-4.2-24.1-4.3-30c0-1.4,0.3-3-0.7-1
	c-0.5,1.1-1.9,3.7-1.9,3.7l-2,0.4c-5.6,6.2-14,17.5-28.3,34.9c0,0,12.8-36.8,14.5-41.2c4-9.7-1.5-1.5,3.3-13.8
	c0.8-1.9,6.9-20.1,8.6-25.2c0.6-1.8,0.4-1.4-1.3,0.9c-2.6,3.7-8.6,12.1-10.1,13.8c-1.3,1.3-8.4,20.1-8.9,21.5c-0.6,1.7-1,1.7-0.7,0
	c0.7-3.2,3.6-16,4-17.6c0.3-1.2-1.4,0.6-2.5,4c-0.8,2.5-3.8,11.6-6.3,20.3c-2.2,7.5-21,73.1-21.5,75c2.9-2.5,8.1-10.7,10.8-11.5
	c2-0.6,2.1-3,4.9-6.4c7-8.8,11.6-15.3,31.3-37.8c3,15.9,6.9,42.5,6.9,42.5s2.9-3.7,4.4-7.8c1.4-4,2.7-2.8,3.2-4.4
	C100.8,290.9,115.1,261.8,124.5,240.6L124.5,240.6z M218.3,261.1c2.5-3.3,7-11,7-17.7c0-7.2-5.9-12.9-19.4-12.9
	c-8.4,0-17,2.9-28.9,7.2c-3.1,1.1-2.7,1.3,0.1,0.9c2.9-0.4,8.3-1.4,10.1-1.7c1.9-0.4,1.5,1.9,5.2,1c-1.4,2.5-5.4,10.5-9.9,20.6
	c-6.1,13.7-8.9,21.9-9.4,23.5c-0.5,2.2,5.5,1.7,2.3,3.5c-4.1,2.3-9.7,5.4-15.8,8.4c-3.3,1.6-6.8,3.2,3,0.1
	C190.6,285.1,206.2,276.9,218.3,261.1L218.3,261.1z M190,260.5c4.7-11.3,8.1-17.5,9.3-20.6c0.4-1.2-0.7-1.3-2.9-2.6
	c1.7-0.2,5.1-0.6,6.9-0.6c6.9,0,13,1.8,13,7.8c0,11.1-17.1,30.4-34.9,37.8C181.3,282.3,184,274.9,190,260.5L190,260.5z"/>
<path class="st0" d="M277.9,275.3l-0.8-1.9c0,0-9.4-7.2-14.6-11.7c15.8-7.2,61.1-27.6,58.5-47.9c-1.5-11.3-19.1-14.7-30.9-14.7
	c-30.3,0-74,11.2-85.3,15.3c-0.3,0.1-0.3,0.2,0.1,0.2c25.5-4.4,98.4-12.8,99.5,2.6c0.8,11.8-38.4,34-49.2,39.3l-0.9-0.8
	c4.2-11.6,9.1-23.1,9.8-24.9c0.2-0.5,0-0.7-0.4-1c-0.5-0.3-2-1.2-2.5-1.6c-0.5-0.3-0.5-0.5-0.2-1.1c1-1.6,2.5-3.6,3.2-4.5
	c0.6-0.8,0.3-0.7-0.4-0.6c-3.9,0.7-13.8,2.8-27.8,8.5c-1,0.4-0.9,0.6,0.2,0.3c4.2-1,18.4-4.9,16.2,0.9c-0.7,1.9-3.6,9.2-7.9,20.6
	c-3,0-3.1,1.4-4.6,1.9c-1.1,0.4-6.4-0.7-4.2,1.2c1.6,1.4,2.5,2.2,5.7,5.1c-4.8,12.7-12.2,33-12.2,33c-0.6,1.7,1.6,1.8,3.3,4.4
	c2,2.9,3.2,8.3,4.5,4.8c1.6-4.3,9.8-28.5,12.8-35.5c0,0,12.3,9.8,16.1,12.7c7.9,6,14.6,11.4,21,15.5c4.4,2.9,5.6,3-0.8-2.2
	c-10.7-8.7-9.3-8.7,5.7,1.3c2,1.4,4,2.6,5.9,2.6c1.4,0.1,2.2,0.2,6.6,3c3.3,2.1,5.6,3.6,11.3,7.5c7.4,5.1,8.8,4.8,1.7-0.8
	S277.9,275.3,277.9,275.3L277.9,275.3z M458.7,207.8c-29.2-1.8-94.9,3.2-118.9,9.1c-0.9,0.2-0.9,0.7-0.7,1.3c0.2,0.8,3,2.1,3.2,3.2
	c0.4,2.4,3.8,1.8,3,3.8s-6.5,16.3-6.5,16.3c-2.6,1-6.8,2.8-6.9,3.1c-0.3,0.7,3.4,2.3,3.5,5c-2.8,6.9-6.8,18.9-7.4,20.5
	c-0.5,1.5,1.8,2,2.5,3.5c0.7,1.6,1.8,4.5,2.2,5.1c0.8,1.2,1.1,0.3,1.6-0.8c0.6-1.6,2.5-7,3.4-9.6c1.8-5.1,6.9-20.2,6.9-20.2
	c7.6-3,11.5-3.3,11.6-4c0-1.1,2.2-2.3,2.2-2.3s1.2-0.8,1.2-1.3s2-0.9,3-1.5s0.6-1-0.2-1.2c-5.2-0.1-10.1,0.5-14.4,1.5
	c1.5-4.1,5-13.5,6.5-16.5c7.7-2,16.1-3.5,26.9-5.1c-3.2,8.5-10.4,28.6-11.3,31c-1.1,2.9-2.2,3.9-1.9,5s-2.5,7.9-4.2,13.2
	c-0.6,2-0.5,2.2,0.1,2.8c0.3,0.3,0.5,0.4,1.2-0.8c2.2-4.4,3.2-2.9,1,3.3c-0.1,0.3-0.1,0.4,0.1,0.6c1,1.8,3.7,4.8,4.4,2.6
	c4.5-14.1,10.7-34.3,19.7-58.9c12.8-1.6,16.4-1.9,21.3-2.4c2.1-0.2,2.8-2.4,6-2.7c13.9-1.2,29.8-2.4,40.9-3.2
	C459.5,208,459.9,207.8,458.7,207.8L458.7,207.8z M133.1,255c-2.2,0.8-1.6,1.5-3.5,3.4c-0.7,0.8-2.3,0.4-2.7,1.3
	c-3.4,8-11.4,26-13.6,33.8c-0.3,1,0.3,1.9,0.9,2.2c0,0,1.2-3.6,1.8-3.1c1,0.8,0,5.2,0.8,5.7c1.4,0.8,2.6,1.4,3.4-0.4
	c1-2.2,4.4-11.9,8.6-21.7c3.4-8.1,8-17.3,10.9-21.5C141.8,251.7,135.3,254.3,133.1,255L133.1,255z M155.9,263.8
	c3.8-7.4,8.2-15.3,10-18.5c1-1.8-6.7,1.2-7.9,1.8c-1.3,0.6-3,1.2-4.4,3.9c-1.5,2.8-7,13.9-11.1,23.8c-1.6,4-5.8,11.8-6.3,13.1
	c0,0.5,0.1,1.7,0.7,3c0.2,0.4,2.5-0.4,2.8,0.1c0.2,0.4-6.3,3.9-7.9,5c-0.8,0.6-0.7,0.6,0,0.3c3.2-1.1,18.2-5.6,26.5-8.4
	c0.5-0.6,1.7-2.3,3-4.6c-1.1,0.2-3.8,0.7-4.7,0.9c-0.4,0.1-0.7-0.3,0-0.7c1.3-0.7,13-6.6,8.2-5.2s-11.9,3.4-19.2,6.4
	C145.5,284.8,151,273.4,155.9,263.8L155.9,263.8z"/>
<path class="st0" d="M321.2,236.9c-1.2,1.2-2.3,4.3-3.9,5.5c-0.9,0.6-3.8,1.7-4.2,2.6c-2.7,7.1-9.9,27.1-10.2,29.7
	c-0.1,1.1,0.4,1.4,1.2,1.7c1.8,0.8,2.7-1.2,4.2-0.5c0.8,0.4-0.1,2.5,0.3,3.2c0.6,1.1,1.2,0.3,1.9-1.9c1.8-5.9,6.7-20.6,9.1-26.6
	c2.3-5.7,4.2-10.3,5.8-14.2C325.9,235.1,322.4,235.7,321.2,236.9L321.2,236.9z M473.2,207.9h-1.8v-1h4.8v1h-1.8v4.2h-1.1v-4.2H473.2
	z M477.4,206.8h1.2l1.8,2.8l1.8-2.8h1.2v5.2h-1.1v-3.5l-1.8,2.8h-0.1l-1.8-2.8v3.5h-1.1v-5.2H477.4z"/>
</svg>
