<?xml version="1.0" encoding="utf-8"?>
<!-- Generator: Adobe Illustrator 28.2.0, SVG Export Plug-In . SVG Version: 6.00 Build 0)  -->
<svg version="1.1" id="레이어_1" xmlns="http://www.w3.org/2000/svg" xmlns:xlink="http://www.w3.org/1999/xlink" x="0px"
	 y="0px" viewBox="0 0 600 229.4" style="enable-background:new 0 0 600 229.4;" xml:space="preserve">
<style type="text/css">
	.st0{fill:#FFFFFF;}
</style>
<g>
	<path class="st0" d="M566.8,164.8c-10.2-2.6-19-4.8-19-13.2c0-6.6,5-10.8,13-10.8c7.4-0.4,14.2,4.6,15.6,12l20-9.6
		C591,130,578,122,561.4,122c-21.6,0-36.6,13.2-36.6,32c0,23,16.6,27.4,31.4,31.2c10.4,2.6,19.2,5,19.2,13.6
		c0,7.2-5.8,11.8-14.6,11.8s-16.2-4.8-18.2-12l-20,9.6c5.6,13.2,19.8,21.2,37.4,21.2c23.4,0,38.4-13,38.4-33.4
		C598.4,172.8,580.8,168.4,566.8,164.8L566.8,164.8z"/>
	<path class="st0" d="M600,29v10.6h-17v10h14.8L595,59.8h-12v15.8h-11.6V29L600,29z"/>
	<path class="st0" d="M542.2,39.8c7.2,0,13,5.8,13,13s-5.8,13-13,13s-13-5.8-13-13S535,39.8,542.2,39.8z M542.2,77
		c13.4,0,24.2-11,24.2-24.4s-11-24.2-24.4-24.2s-24.2,11-24.2,24.2C517.8,66.2,528.8,77.2,542.2,77z"/>
	<path class="st0" d="M329,226.4h21.6v-68.2l49,68.2h22.6V122.6h-21.8v69.2L352,122.6h-28l5,10.2L329,226.4z"/>
	<path class="st0" d="M495.4,186.8c-3,7.4-9,13.2-16.2,16.4c-3.8,1.6-7.8,2.4-12,2.4h-12.4v-62h12.4c4.2,0,8.2,0.8,12,2.4
		c7.4,3,13.2,9,16.2,16.4C498.6,170.4,498.6,179,495.4,186.8L495.4,186.8z M488.2,126.8c-6.6-2.6-13.6-4-20.6-4.4h-35.4v103.8h35.4
		c14,0,27.4-5.2,37.6-14.8c4.8-4.6,8.8-10.2,11.4-16.4c8.6-19.6,4-42.4-11.4-57.2C500.2,133.2,494.6,129.4,488.2,126.8z"/>
	<path class="st0" d="M138.4,226.4H76.6V122.6h61.8v20.2H99.2v21H135l-5.4,19.6H99.2v22.8l39.2,0.2L138.4,226.4z"/>
	<path class="st0" d="M279.6,142.8h39.2v-20.2h-61.6v103.8h61.6v-20l-39.2-0.2v-22.8H310l5.4-19.6h-35.8V142.8z"/>
	<path class="st0" d="M358,82c-2-5.8-3-11.8-2.8-17.8l0.4-64H378l-0.2,63c0,7,1.6,12.6,4.8,16.6c7.6,8,20.4,8.2,28.2,0.4l0.4-0.4
		c3.4-4,5-9.6,5-16.6L416.4,0h22.8l-0.4,64.6c0,6-0.8,12-2.8,17.8c-1.8,5-4.8,9.6-8.4,13.6c-3.8,3.8-8.2,6.8-13.2,8.6
		c-11.4,4-23.8,4-35.2-0.2c-5-2-9.4-4.8-13-8.8C362.6,91.8,359.8,87.2,358,82L358,82z"/>
	<path class="st0" d="M245.6,74c-2.8-6.6-4.2-13.8-4.2-20.8c0-7.2,1.6-14.2,4.4-20.8c2.8-6.4,6.8-12.2,11.8-17c5-5,11-8.8,17.4-11.4
		c6.6-2.8,13.8-4.2,21.2-4c9.8-0.2,19.6,2.4,28.2,7.2c8,4.6,14.6,11.4,18.8,19.8l-20.4,9.6c-2.4-4.8-6.2-8.8-10.8-11.6
		c-4.8-2.8-10.4-4-16-4c-4.2,0-8.6,0.8-12.4,2.4c-3.8,1.6-7.2,4-10,7c-3,3-5.2,6.6-6.8,10.4c-3.4,8.2-3.4,17.2-0.2,25.4
		c3,7.8,9.2,14.2,16.8,17.6c4,1.8,8.2,2.8,12.6,2.6c6.4,0.2,12.8-1.8,18-5.4c4.8-3.4,8.2-8.6,9.6-14.4h-37l9.2-18.8h51.6
		c0.2,4,0,12.6-0.2,14.4c-0.6,4.8-1.8,9.6-3.6,14.2c-5,12.4-14.8,22-27.2,27c-20.4,8.2-43.6,3.4-59.2-12.2
		C252.2,86.2,248.4,80.4,245.6,74L245.6,74z"/>
	<path class="st0" d="M5.2,93.6V11L0,0.2h27.6V84H69l-5.8,20.4H0L5.2,93.6z"/>
	<path class="st0" d="M5.2,215.6V133L0,122.2h27.6V206H69l-5.8,20.4H0L5.2,215.6z"/>
	<path class="st0" d="M138.4,104.4H76.6V0.6h61.8v20.2H99.2v21H135l-5.4,19.6H99.2V84l39.2,0.2L138.4,104.4z"/>
	<path class="st0" d="M510.8,104.4h-61.6V0.6H511v20.2h-39.2v21h35.8l-5.4,19.6h-30.4V84l39.2,0.2v20.2L510.8,104.4z"/>
	<path class="st0" d="M197.6,29.4l13,35H184L197.6,29.4z M168.6,104.4l7.8-20.2H218l8,20.2h23.4L207.6,0.2h-32l6.8,13.6l-36.8,90.6
		L168.6,104.4z"/>
	<path class="st0" d="M185.2,228c3.8,0.8,7.6,1.2,11.6,1.2c7,0.2,14-1.2,20.6-3.8c12.4-5,22.2-14.6,27.2-27c1.8-4.6,3-9.4,3.6-14.2
		c0.4-4.8,0.4-9.6,0.2-14.6h-51.6v0.2l-9.2,18.8h36.8c-1.4,5.8-4.8,11-9.6,14.4c-5.2,3.8-11.4,5.6-17.8,5.4c-2,0-3.8-0.2-5.8-0.6
		l-4.6-1.2c-0.8-0.2-1.4-0.6-2.2-0.8c-7.6-3.4-13.8-9.6-16.8-17.6c-3.2-8.2-3.2-17.4,0.2-25.6c1.6-3.8,4-7.4,6.8-10.4
		s6.4-5.2,10.2-6.8c4-1.6,8.2-2.4,12.4-2.4c5.6-0.2,11.2,1.2,16,4c4.6,2.8,8.4,6.8,10.8,11.6l20.4-9.6c-4.2-8.4-10.6-15.2-18.8-19.8
		c-8.6-4.8-18.2-7.2-28.2-7.2c-14.4-0.2-28.2,5.4-38.6,15.6c-5,4.8-9,10.6-11.8,17c-5.8,13.2-5.8,28.4-0.2,41.6
		c2.8,6.4,6.6,12.2,11.4,17.2c4.4,4.4,9.6,8,15.2,10.8C177.3,226,181.3,227.4,185.2,228L185.2,228z"/>
</g>
</svg>
