<?xml version="1.0" encoding="utf-8"?>
<!-- Generator: Adobe Illustrator 28.2.0, SVG Export Plug-In . SVG Version: 6.00 Build 0)  -->
<svg version="1.1"
	 id="Layer_1" xmlns:svg="http://www.w3.org/2000/svg" xmlns:cc="http://creativecommons.org/ns#" xmlns:rdf="http://www.w3.org/1999/02/22-rdf-syntax-ns#" xmlns:dc="http://purl.org/dc/elements/1.1/"
	 xmlns="http://www.w3.org/2000/svg" xmlns:xlink="http://www.w3.org/1999/xlink" x="0px" y="0px" viewBox="0 0 467 167.6"
	 style="enable-background:new 0 0 467 167.6;" xml:space="preserve">
<style type="text/css">
	.st0{fill:#FFFFFF;}
</style>
<path id="path530" class="st0" d="M185,22.3c1-1.2-2.2-1.3-2.2-1.3C184.8,21.4,183.9,23.4,185,22.3z"/>
<path id="path532" class="st0" d="M121.8,142.4c-1-0.6-2.3-0.3-1.4,0.7C121.2,144.1,122.8,143,121.8,142.4z"/>
<path id="path534" class="st0" d="M117,144.1c1.7,1.2,2-1.9,1-1.6C117.9,142.4,115.2,142.9,117,144.1z"/>
<path id="path536" class="st0" d="M179.2,26.5c2.4,0.2,4-3,2.8-3.6c-1.2-0.7-1.1,2-1.1,2C180.3,24.8,176.7,26.3,179.2,26.5z"/>
<path id="path538" class="st0" d="M179.9,23.3c1-0.4-1.9-2.3-1.3-1.2C178.6,22.1,178.9,23.7,179.9,23.3z"/>
<path id="path540" class="st0" d="M183.6,18.9c0.5-1.4-0.6-1.7-0.6-1.7C182.3,18.5,183.1,20.3,183.6,18.9z"/>
<path id="path542" class="st0" d="M181.9,20.5c1.1-0.2-1.1-2.3-0.9-1.4C180.9,19.2,180.8,20.7,181.9,20.5z"/>
<path id="path544" class="st0" d="M191.9,10.6c1.4-0.8,1.1-3.1,0-1.6C191.9,9,190.5,11.4,191.9,10.6z"/>
<path id="path546" class="st0" d="M218.7,4.9c1.7,0,0-2-0.4-1.4C218.3,3.6,217,4.9,218.7,4.9z"/>
<path id="path548" class="st0" d="M222.8,1.5c1.2-0.8-0.9-2-0.9-1.2C221.9,0.3,221.5,2.3,222.8,1.5z"/>
<path id="path550" class="st0" d="M186.5,19.7c-0.5-0.6-2.2,0-2.2,0C183.4,20,187,20.4,186.5,19.7z"/>
<path id="path552" class="st0" d="M202.8,9.4c2.9-1.2,0.1-1.6-0.4-1.1c0,0-0.8,0.9-1.7,1.1S199.9,10.6,202.8,9.4z"/>
<path id="path554" class="st0" d="M113.1,144.1c-1.2,0.1-0.9,1.6-0.9,1.6c-1,0.4-1.2,0.8-1.1,1.3c0.1,0.5,1.3,1,2.2,0
	C114.2,146,114.3,144,113.1,144.1L113.1,144.1z"/>
<path id="path556" class="st0" d="M187.8,13.5c0.6-1.4-1.7-2.7-1.2-1.3C186.6,12.2,187.1,14.9,187.8,13.5z"/>
<path id="path558" class="st0" d="M184.6,16.3c1.1,0-1.5-3.7-1.4-2.1C183.2,14.3,183.5,16.4,184.6,16.3z"/>
<path id="path560" class="st0" d="M228.7,117.9c0.3-1.1,1.1-2.3,2.1-2.5c-0.1,0-0.2,0-0.3,0c-3.2-0.1-6.4-0.3-9.6-0.4
	c-1.3-0.1-3.7-4.8-3.6-6.1c0.2-2.6,0-5.4-1.1-7.9c-0.6-1.3-2.5-4.3-4.2-4.4c-5.8-0.4-11.6-0.7-17.3-1.1c-3-0.2-6-0.6-9-1
	c-3.6-0.4-6.2-0.4-9.3-2.2c-1.8-1-1.5-1.1-1.5-3.2c0-2.1,0-4.2,0-6.3c0-3,2.7-6.4,4-9c1.4-2.8,3.2-5.1,5.1-7.6
	c0.9-1.3,2.1-2.5,2.9-3.9c0.7-1.2,0.8-3.1,1.7-4.1c1.1-1.1,1.9-2,2.7-3c0.1-0.8,0.4-1.5,1.1-1.5c0.5-0.8,1-1.7,1.6-2.8
	c0.1-0.2,0.2-0.4,0.3-0.6c-0.1-1.3,0.2-2.8,1.5-3.3c0.7-1.5,1.5-3,2.5-4.3c2.3-2.8,4.9-5.5,6.9-8.5c0.8-1.2,1.1-2.8,2.1-3.8
	c1.4-1.4,2.8-2.8,4.2-4.2c1.6-1.6,6.3-1.6,8.6-1.8c3.6-0.3,7.3,0,10.8,0c0.3,0,0.7,0,1.1-0.1c-0.5-0.7-0.9-1.3,0.4-1.6
	c1.7-0.4,1.8-1.8,1.6-2.8c-0.9-0.3-1.7-0.6-1.7-0.6c0.2-2.8,1-6.3-2.8-9.2c-3.7-2.9-9.1,3.3-9.1,3.3c-0.4,0.7-1.7-0.5-1.7-0.5
	c-2.2-3.3-4.7,0.2-4.5-0.6c0.1-0.3,0-0.6-0.1-0.8c-0.3,0.1-0.5,0.1-0.6,0.1c0,0.1,0,0.3-0.2,0.7c-0.6,1.3-1.7,0-1.7,0
	c0.7-0.5,0.9-1,0.8-1.4c-0.2-0.2-0.4-0.3-0.6-0.4c-0.5,0.2-1.1,0.2-1.6-0.1c-0.5-0.3-0.5-0.6-0.4-1c-0.3-0.1-0.7-0.2-1-0.3
	c0.1,0.3,0.2,0.7,0.4,1c0.8,1.5-1.6,1.5-1.2,0c0.1-0.5,0-0.9-0.3-1.1c-0.5,0-1.1,0-1.6,0c-1.6,1.3-1.6,0.5-1.7,1.8
	c-0.1,1.4-2.5,1.1-0.8-1c0.1-0.1,0.2-0.2,0.3-0.4c-1,0.3-2,0.6-3,1.1c1.2-0.5,0.7,1.2-1.3,2.4c-5.3,2.9-4.6,1-4.6,1
	c-5.8,4.3-12.1,12.7-12.1,12.7c-2,0.3-2.5,1.2-1.6,1.7c1,0.5-0.3,1-0.3,1c-2.6,0.9-1.6,4.1-1.6,4.1c-1.5,1-1,4.4-1,4.4
	c-1.1,0.1-2.4,1.2-1.1,1.5c1.2,0.4,0.9,1.6,0.9,1.6c-2.4,2.3-2.3,6.5-2.3,6.5c-4.5,3.2-3.7,8.7-3.7,8.7s-1.2-0.3-4.5,3.1
	c-3.3,3.4-1.4,10.2-1.4,10.2c6.1,5.1-3.6,9.1-4.5,5.1c-0.9-4-4.5-1.9-3.5,0.7c1,2.5-0.9,3.7-0.9,3.7c-0.1-5.5-1.5-4.4-3.3-3.4
	c-1.8,1.1-2.5-0.6-4.8-2c-2.3-1.4-9,0.3-9,0.3s-1.3-6-6.2-7.6c-6.1-2.1-11.5,1.8-13.5,7.8c-2,5.9,4.2,11.2,5.9,12.2
	c1.7,1,6.7,0.4,6.7,0.4c-0.2,2.9,2.5,3.3,2.5,3.3c-0.1,2.1,1.2,3.3,2,4.6c2-0.6-0.2-1.1-0.1-2.3c0.1-1.2,3.3-0.6,2.9,2.4
	c0,0,1-0.2,0.7-1.6s2.7-0.6,2.5,0.6c-0.2,1.2,0.7,1.3-2.1,2c-2.8,0.7,0.3-0.3,0.2,1.2c0,0-0.6,0.9-1.7,0c-0.8-0.7-1-0.5-2.5,1
	c-1.3,2.6,2.5,0.8,1.1,3.3c-1.5,2.5-0.2,4.6-0.2,4.6c2.4,0.5,2.6,2.5,2.6,2.5s-2.1,0-2,1.2c0.1,1.2,1.5,1.4,1.5,1.4
	c-1.5,3.4,3,2.4,0.6,5.1c-2.4,2.7,1.7,2.2,1.7,2.2c0.3,2,2.7,3.8,2.7,3.8c7.7,0.1,2.1,3.4,2.1,3.4s3.1,4,7.1,4.1
	c4,0.1,2.5,1.3,4.1,1.9c1.6,0.6,3.3-1.5,5.1,4.2c1.8,5.7,7,5.8,12.3,2.2c5.4-3.6,0.8-6.4-1.7-6.1c-2.4,0.4-5.1,2.6-5.9,1.4
	c-0.8-1.2,3.3-2.2,3.3-2.2c5.2-0.7,6.9-4.6,6.9-4.6c2.4-0.2,11.9-2.9,8.7-5.7c-3.2-2.8,2.4-3.7,2.4-3.7c-1,2.1,3.5,1.9,3.5,1.9
	c1.7,3.6,6.1,1.7,4.5,1.1s0.5-4,2.4-0.2c1.9,3.9,4.7,0,4.7,0c3.2,4.1,8.3,6.1,8.3,6.1s-2.1,0.3-2.6,0.9c-1.8,2.1,2.3,1.8,4.8,1.5
	c2.5-0.3,3.8-3.2,4.3-1.6s2.1,1,2,0c0-1,1-0.9,1-0.9c-2.1-2.1,1.7-2.5,1.7-2.5c2.4-2.8,3.3,0.7,4.4,1.6c1.2,0.9,3.6,0.5,2.5-2
	C230.5,120.1,228.3,119.8,228.7,117.9L228.7,117.9z M211.8,14.7c0,0,1.4,2-0.9,2C208.6,16.6,211.8,14.7,211.8,14.7z M212.5,23.4
	c0.1,1.5-1,0.6-1.2,0c-0.2-0.6-1.1-1.1-3.3-0.7C208.1,22.8,212.4,21.9,212.5,23.4L212.5,23.4z M206.7,10.4c0.8,0.5,1.2,1.2,0,1.8
	C205.5,12.7,206.7,10.4,206.7,10.4z M202.7,35.9c-1.9,1.5,0-1.8,0-1.8C203.3,33.1,204.6,34.4,202.7,35.9z M201.9,11.9
	c0.9-0.2,2,0.8,0.6,1.3C201.1,13.6,201.9,11.9,201.9,11.9z M185.4,27.1c0.8,0.1,1.2,1.2,0,1.2C184.2,28.3,185.4,27.1,185.4,27.1z
	 M187.5,29.1c0,0,2.9,0.6-1.1,0.6C182.4,29.8,187.5,29.1,187.5,29.1z M183.4,32.9c1,0.8,0,1.4-0.9,1.1
	C182.6,34,182.4,32.1,183.4,32.9z M181.6,35.5c1.1,0.6-0.9,1.9-1.2,1.8C180.3,37.3,180.5,34.9,181.6,35.5z M158.2,94.6
	c0.6,0.6-1.4,3-2.4-0.2C155.7,94.5,157.6,94.1,158.2,94.6z M155.5,97.5c0.7-0.6,1.4,0.4,1.4,0.4s-1.7-0.9-1.1,1
	C155.7,98.9,154.8,98,155.5,97.5z M146.6,93.1c1.1-2,6.8,1.4,6,2.3s-2.2-1.2-3-1.8c-0.8-0.5-1.9-0.4-1.9-0.4
	C147,92.5,145.4,95,146.6,93.1L146.6,93.1z M148.5,96.4c0,0-0.1-2.1,0.9-1.6C150.5,95.2,150,96.3,148.5,96.4z M145.5,93.9
	c0.7,0-0.4,1.8-0.4,1.3C145.1,95.2,144.8,93.9,145.5,93.9z M154.7,102.1c-0.7-0.6-2.7-1.3-2.1,0c0.6,1.3-0.7,1.2-0.7,0.7
	c0.1-0.5-0.3-2.5-1.5-1.8s1,2.8,1,2.8c1.1,3.2-1.8-0.6-1.8-0.6c0.7-1.4-1.1-2-2.3-1.8c-1.2,0.2-0.3-1.4-0.3-1.4
	c-1.8-0.2-1.2-0.9-3.3-1.4c-2-0.5-3,1.8-2.4,1.6c0.6-0.2,2.5,0.2,2.9,0.6c0.3,0.4-0.7,1.2-2.8,0.6s-1.8-1.7-0.4-3.2
	c1.5-1.5,4.6-0.8,4.6-0.8c0.6,0.2,1.8-0.3,1.8-0.3s1-0.3-0.4,0.9c-1.4,1.2,1.3,1.9,2.3,1.3c0.9-0.6,3.7-1.9,2.6-1.2
	c-1,0.7-0.9,2.1-0.2,2.3s1.5,1.2,2.7,0.3c1.2-0.9,1.5-0.1,1.6,1C156.1,102.8,155.4,102.7,154.7,102.1z M156,98.1
	c0.6-0.7,1.8,1.8,1.8,1.8S155.4,98.8,156,98.1z M158.3,102.2c-2.4,0.1,0.7-0.4,0.3-1C158.6,101.2,160.7,102,158.3,102.2z
	 M161.5,98.4c-0.5,0.7-1.1,0.2-1.4,0c-0.3-0.2-0.6-0.5-0.6-0.5S162,97.7,161.5,98.4L161.5,98.4z M162.7,96.9
	c-0.4,0.8-1.1,0.2-1.5-0.1C161.3,96.7,163.2,96.1,162.7,96.9z M163.6,101.5c-0.4-0.6,1.3-2.4,1.6-0.2c0,0-0.4-1.1-0.9-0.7
	c-0.5,0.4-0.5,0.6-0.5,0.8s0.2,1.4-1.1,1.6C162.8,103,164,102.2,163.6,101.5L163.6,101.5z M163.6,107.2c-1.6-2.6,0-3.2,0-3.2
	C164.8,105.7,163.6,107.2,163.6,107.2z M164.5,101.2C164.5,101.2,164.2,101.1,164.5,101.2c0.6,0.1,1,1.4,1,1.4s0,0-1-0.4
	C163.5,101.8,164.5,101.2,164.5,101.2L164.5,101.2z M165.8,105.8c0,0-1.8-2.1-0.7-2.8C166.5,102.2,165.8,105.8,165.8,105.8z"/>
<path id="path562" class="st0" d="M201,10.8C201,10.8,201,10.8,201,10.8c-0.9,0.4-3.5-0.4-1.3-1.6c4-2.2,0-1.2,0-1.2
	c-3.3-5-5.1-0.3-5.7,1.2c-0.5,1.5-1.2,3.4-2.3,2.7c-1.1-0.7-2-1.7-2.7,0.3s-0.3,3.9-2,2.6c-1.7-1.3-2.3-0.4-1.5,0.4
	c0.8,0.7,0.5,1.2,0.5,1.2c-2.5,1,0.6,3,0.6,3c-0.4-2.1,1.2-1.2,1.2-1.2c0.5,1.7,0.8,0,0.8,0c-1.3-1.7,0.5-1.5,0.5-1.5
	c1.7-0.9-1.7-1.1,1.1-1.5c2.8-0.4-0.1-0.3,3.6-2.3c3.6-2,1.4,1.4,1.4,1.4v0c0.4-0.3,0.8-0.6,1.2-0.9C197.8,12.3,199.4,11.4,201,10.8
	L201,10.8z"/>
<path id="path564" class="st0" d="M225.8,126c-0.7-0.5-2.2-0.4-2.2-0.4s0.1,0.5-0.3,1.2s-0.8,2.9,0.9,3.3c1.7,0.4,2.6-0.5,2.7-1.5
	C226.9,127.7,226.5,126.5,225.8,126L225.8,126z"/>
<path id="path566" class="st0" d="M217.9,66.4c-1.1-2.5-0.2-4.9-2.9-6.7c-2.8-1.9-2.9-0.6-4.8,1.5c-1.6,1.8-3.1,3.6-4.7,5.4
	c-1,1.2-1.3,3.1-1.7,4.6c-0.9,2.8,1.4,4.2,3.7,5.6c4.5,0.2,9.1,0,13.4-1.2c1.9-0.5,3.7-1.2,5.4-2.2c0.5-1.4-2.8-1.7-3.3-1.9
	C220,70.4,219.1,69,217.9,66.4L217.9,66.4z"/>
<ellipse id="ellipse568" transform="matrix(0.9209 -0.3898 0.3898 0.9209 -21.7789 126.5901)" class="st0" cx="301" cy="117" rx="1.6" ry="1.7"/>
<path id="path570" class="st0" d="M266.2,48.1c0.1-2.8-1.6-6.1-4.6-9.1c-3-2.9-0.4-5.4-0.4-5.4c0.4-0.9,1.6-6.7-3.3-6.5
	c-4.9,0.3-8.1,3.4-8.1,3.4c0-0.6-1.4-5.3-3.7-6.2s5.9-5.9,0.9-8.7c-5-2.8-8.3,5.5-8.3,5.5c-1-0.7-2.5,0.5-2.5,0.5
	c-0.2-0.4-0.8-0.7-1.4-1c-0.1,0.4-0.1,0.8-0.1,1.2c0.1,3.1-0.5,2-0.5,2c-0.8-0.4-0.7,0.1-0.5,0.8c0.4,0,0.8,0,1.2,0.1
	c1.5,0.4,3.2,1.8,4.6,2.6c0.2,0.1,0.4,0.4,0.6,0.7v0c0,0,0.2,0.5,2,3.7c1.9,3.3,0.6-3.9,0.4-5.1c-0.2-1.2,2.6,2.9,1.5,5.6
	c-1.1,2.7,1.3,5,1.3,5c-0.7-5.4,4.8-0.9,2.9-1s-1.3,1.2-1.3,1.2c2.9,2.4,0,3.4,0,3.4c-2-3.9-1.5,1.1-1.1,3.3
	c0.3,1.5-2.7,3.9-4.8,5.3c0.1,4.7,0.2,9.4,0.1,14.1c0,2.3,0,4.6-0.1,6.8c0,1.2-0.5,3,0.3,4c1.6,1.9,2.6,3.2,4.9,4.2
	c2.6,1.1,5.1,3.1,5.1,6.1c0.7,2.5,0,5.2-1,7.5c-0.8,2-1.1,2.6-3.2,3.2c-1.3,0.4-2.5,0.9-3.6,1.6c-2.1,1.5-3.1,3.8-3.5,6.3
	c-0.3,1.6-0.4,3.2-0.3,4.9c0.1,2.2-0.3,3-1.8,4.7c-2.2,2.6-3.9,2.7-6.8,2.6c0.5,0.1,1,0.5,1.5,1.3c1.8,2.8,3.3,2.2,5-0.4
	c1.7-2.6,4.7,1.3,6.4,2.8c1.7,1.5,6.9-1.1,6.9-1.1c0.2-4-2.6-3.9-2.6-3.9c-3.4-6.9,1.9-6.3,3.4-6.4c1.5-0.1,1.3-1.1,3.7-2.1
	c2.4-1.1,6.1,0.1,7.1-1.2c1-1.3,3.6-7.2,3.3-10.2c-0.4-3-0.3-4.8,1.1-7.5c1.3-2.7,3.5-9.4,2-13.6c-1.5-4.2,1.8-6.2,2.7-7
	c0.9-0.8,1.2-3.3-0.4-6.3C269.8,56.9,266.1,50.9,266.2,48.1L266.2,48.1z M246,33.7c-3.4,0.2-0.4-1.5-0.4-1.5S249.4,33.5,246,33.7z"
	/>
<path id="path572" class="st0" d="M117.9,148.5c1.3-1.2-0.4-1.6-1.5-1.2C115.2,147.9,116.6,149.8,117.9,148.5z"/>
<path id="path574" class="st0" d="M236.5,128c0,0-4.1-0.2-3.6,1.8c0.4,2,2.9,3.1,4,0.9C238,128.5,236.8,128.2,236.5,128z"/>
<path id="path576" class="st0" d="M118.3,145.1c-1,0-2.8,1.2-0.9,1C119.3,145.9,119,145.1,118.3,145.1z"/>
<path id="path578" class="st0" d="M122.1,146.2c-0.4-0.7-0.8-0.8-1.4-0.5c-0.5,0.3-1,1.6,0,1.8C121.6,147.6,122.4,146.9,122.1,146.2
	z"/>
<path id="path580" class="st0" d="M116.8,151.4c-1.3,1.5,0.7,3.2,1.4,1.5C118.9,151,117.7,150.4,116.8,151.4z"/>
<path id="path582" class="st0" d="M219.9,131.6c-0.8,2.5,1.7,4.2,1.7,4.2s0,0,0.3-1.1c0.3-1.1,2-0.1,1.7-2.4
	C223.3,130.1,220.7,129.1,219.9,131.6z"/>
<ellipse id="ellipse584" class="st0" cx="129" cy="152.3" rx="8" ry="8.2"/>
<ellipse id="ellipse586" transform="matrix(0.9836 -0.1803 0.1803 0.9836 -21.1105 41.6719)" class="st0" cx="218.7" cy="137" rx="1.5" ry="1.9"/>
<ellipse id="ellipse588" class="st0" cx="208.5" cy="164.8" rx="2.9" ry="2.8"/>
<g id="g1046" transform="translate(-59.348139,-53.915266)">
	<path id="path592" class="st0" d="M180.4,115.5c-0.8-1.6-0.2,1.8-0.2,1.8S181.2,117.1,180.4,115.5z"/>
	<path id="path594" class="st0" d="M164.5,93.9c1.6-1.5-0.9,0.9-0.5-1.2C164,92.7,162.9,95.3,164.5,93.9z"/>
	<path id="path596" class="st0" d="M179.9,121c1.5,0.9,0.9-2.4,1.9-0.9c1.1,1.5,4.4,1.2,2.5,0.9c-1.9-0.3-2.1-3.2-2-1.8
		c0.1,1.4-5.1-1.6-2.4,0.3c2.1,1.4-0.4,0.8-1.5,0.4c0.2,0.2,0.5,0.7,0.7,1.1C179.1,120.8,179.3,120.6,179.9,121L179.9,121z"/>
	<path id="path598" class="st0" d="M174.7,95.3c-0.2-1.2-1.8-0.9-1.8-0.9S175,96.5,174.7,95.3z"/>
	<path id="path600" class="st0" d="M183.7,110.2c-1.2,0-0.6,0.9-0.6,0.9C184.7,110.6,184.9,110.3,183.7,110.2z"/>
	<path id="path602" class="st0" d="M178.5,120c-0.1-0.1-0.2-0.2-0.4-0.2C178,119.8,178.1,119.9,178.5,120z"/>
	<path id="path604" class="st0" d="M226,86.6c1.5-2.2-0.1-1.5-0.5-1.4C225.6,85.2,224.5,88.8,226,86.6z"/>
	<path id="path606" class="st0" d="M175.6,93.5c0,0-1.6-2.9-1.6-1.5C173.8,93.4,175.3,93.5,175.6,93.5z"/>
	<path id="path608" class="st0" d="M224.1,86.8c-0.3,0-1.1,1.3-1.3,1.6C222.8,88.5,224.4,86.9,224.1,86.8z"/>
	<path id="path610" class="st0" d="M183.7,119.5c2.2-0.4,0.5-2.1,0.5-2.1c-5.9-6.1,3.1,0.4,0-2.4c-3.1-2.8-3.4-0.5-1.6,1.2
		C184.2,117.8,181.5,119.9,183.7,119.5L183.7,119.5z"/>
	<path id="path612" class="st0" d="M179.2,121.1c0.1,0.4,0.5,1.2,0.5,1.2S179.5,121.7,179.2,121.1z"/>
	<path id="path614" class="st0" d="M202.6,85.6c0,0-2.5-1.8-2.1-1.2C200.9,85,202.6,85.6,202.6,85.6z"/>
	<path id="path616" class="st0" d="M208.3,89.1c-0.8-0.8-4.6-2.5-4.6-2.5C205.7,88.8,208.6,89.5,208.3,89.1z"/>
	<path id="path618" class="st0" d="M208.8,82.9c1.7-1.2,0-1.2,0-1.2S207.1,84.2,208.8,82.9z"/>
	<path id="path620" class="st0" d="M198.8,87.5c1,0.3,1.5-1.4,0.5-1.6C199.3,85.9,197.8,87.2,198.8,87.5z"/>
	<path id="path622" class="st0" d="M183.3,111.5c0.8-0.4,1.2,0.3,1.2,0.3c0.9,0.5,3.2-0.1,3.4-2c0.2-1.9-2.2,1.7-2.2,1.7
		c2.3-4-1.3-1.2-1.3-1.2C186.2,109.7,184.2,111,183.3,111.5L183.3,111.5z"/>
	<path id="path624" class="st0" d="M204.1,84.9c0.7-0.4,0.4-2.1,0.2-1.7C204.3,83.3,203.4,85.3,204.1,84.9z"/>
	<path id="path626" class="st0" d="M210.7,91.2c0,0-1.1,4.4,0,2.8C211.9,92.5,210.7,93.3,210.7,91.2z"/>
	<path id="path628" class="st0" d="M183.3,111.5c-0.1,0-0.2,0.1-0.3,0.1C182.8,111.9,183,111.8,183.3,111.5z"/>
	<path id="path630" class="st0" d="M185.5,103.6c1.7-1.1,0.1,0.6,0.1,0.6c-0.4,2,2.1,3.6,2.5,2.8c0.3-0.8-1.4-3-0.5-2.9
		c0.9,0,0.4,2.1,1.1,0.8c0.7-1.2-2-6.7-2.1-4.9c-0.1,1.8,2,1.7,0.2,2.2c-1.7,0.5-0.4-1.5-0.4-1.5
		C185.3,101.2,183.7,104.7,185.5,103.6z"/>
	<path id="path632" class="st0" d="M210.6,86.9c-3.6-1.6-2.1,1-2.1,1c3.7-0.4,1.5,0.7,1.5,0.7c-0.9,1.4-0.3,1.7,0.8,1.4
		c1.1-0.4-1.2-0.3,0.3-1.1c1.5-0.8,0.2-0.9,1-2.5c0.8-1.6,0.3-2.5,0.3-2.5c-1.3-1,0.1-0.9,0.1-0.9c2.2-1.4-1.4-1.3-1.4-1.3
		c-1,1.8-1.7,2.1-0.4,3.3C212,86.2,210.6,86.9,210.6,86.9z"/>
	<path id="path634" class="st0" d="M141.7,141.4c0.5,0.3,0-1.5,0-1.5C141.5,140.3,141.2,141.1,141.7,141.4z"/>
	<path id="path636" class="st0" d="M89.3,114.6c0-0.5,1.6-2.2,0.5-2.4L89.3,114.6C89.3,114.6,89.3,114.6,89.3,114.6z"/>
	<path id="path638" class="st0" d="M90.9,106.5l-0.5,2.5C90.9,108.4,91.8,107.8,90.9,106.5z"/>
	<path id="path640" class="st0" d="M155.9,93.7c-0.9,0.7,0,1.9,0,1.9C156.7,94.7,156.8,93,155.9,93.7z"/>
	<path id="path642" class="st0" d="M90.7,110.3c-0.2-0.1-0.4-0.2-0.5-0.3l-0.3,1.2C90.2,111,90.4,110.7,90.7,110.3z"/>
	<path id="path644" class="st0" d="M93.5,102.3c0-0.1,0-0.3,0-0.4c-0.1,0-0.2,0.1-0.2,0.1c0,0,0,0,0,0
		C93.1,102.4,93.3,102.4,93.5,102.3z"/>
	<path id="path646" class="st0" d="M93.5,103.2c0-0.3,0-0.5,0-0.8C93.2,102.9,93,103.4,93.5,103.2z"/>
	<path id="path648" class="st0" d="M92.9,102.2c0.1-0.1,0.3-0.2,0.4-0.2C93.1,102,93,102.1,92.9,102.2z"/>
	<path id="path650" class="st0" d="M93.5,101.3c0,0.2,0,0.4,0,0.6c0.2-0.1,0.3-0.2,0.4-0.2C94.3,101.1,94.5,100.7,93.5,101.3z"/>
	<path id="path652" class="st0" d="M94,101.7c-0.1,0.2-0.2,0.4-0.3,0.6C94.1,102,94.7,101.4,94,101.7z"/>
	<path id="path654" class="st0" d="M87.8,116.2c0-0.7,0.7-2.2,0.6-2.8l2.5-6.9c-0.4,0.1-0.7,0.2-1,0.5c0.3-0.4,0.2-1.1,0.7-1.2
		c0,0.4,0.1,0.6,0.5,0.7c-0.3-0.6,0.7-1.1,0.7-0.7c-0.7,2.4,2-0.4,1.9-1.4c-0.1,0-1.2-1.6-0.8-2.2c-0.2,0.1-0.5,0.3-0.8,0.5
		c-0.1-0.6,0.5-0.8,0.5-1.4c-0.2,0-0.6-0.3-0.7,0c-2.2-0.1,1.1,1.3-0.9,1.2c-0.5,0.7-0.4,1.3,0.2,1.7c-0.2,0-0.3,0.1-0.5,0.2
		c-0.5,0.4,1.9-0.3,0.2,1.2c0.6-0.9-0.5-0.6-0.9-0.9c0.3,0.9-0.9,1.9-0.2,2.6c-2.1,2.2-2.6,8.8-2.8,9.6c0.6-1.1,0.5-0.8-0.1,1
		l0.8-2.2C87.7,115.8,87.7,116,87.8,116.2z"/>
	<path id="path656" class="st0" d="M86.9,116.8C86.9,116.9,86.9,116.9,86.9,116.8C86.9,116.9,86.9,116.9,86.9,116.8z"/>
	<path id="path658" class="st0" d="M90.2,110l0.2-1C90.1,109.3,89.9,109.6,90.2,110z"/>
	<path id="path660" class="st0" d="M94.2,108.4c0-0.8-0.3-1.2-0.9-1.2c0.2,0.6-0.7,1.7,0,2.1C93,108.5,94.1,109,94.2,108.4z"/>
	<path id="path662" class="st0" d="M91.4,107c0.1,0.9-0.6,1.4,0.2,1.9C91.5,108.3,91.9,107.2,91.4,107z"/>
	<path id="path664" class="st0" d="M89.7,112.2C89.7,112.2,89.7,112.2,89.7,112.2l0.2-1C88.5,113,88.8,112.5,89.7,112.2z"/>
	<path id="path666" class="st0" d="M89.1,115.3l-0.6,2.8C89.1,117.8,89.7,117.6,89.1,115.3z"/>
	<path id="path668" class="st0" d="M88.1,120.2l0.4-2.2C88.1,118.3,87.7,118.7,88.1,120.2z"/>
	<path id="path670" class="st0" d="M89.1,115.3l0.2-0.7c-0.1-0.1-0.3-0.2-0.5-0.2C88.9,114.7,89,115,89.1,115.3z"/>
	<path id="path672" class="st0" d="M93.5,102.4c0-0.1,0.1-0.1,0.1-0.2c0,0-0.1,0-0.1,0.1C93.5,102.3,93.5,102.4,93.5,102.4z"/>
	<path id="path674" class="st0" d="M108.1,135.6c1.2-1.8-0.7,1.3,0-2.3C108.1,133.3,106.8,137.4,108.1,135.6z"/>
	<path id="path676" class="st0" d="M106.9,130.1c0,0-2-0.2-1.3,1.1C106.4,132.5,106.7,130.7,106.9,130.1z"/>
	<path id="path678" class="st0" d="M103.2,133.3c2.3,0.4,0.2-1.6,0.2-1.6S100.9,132.9,103.2,133.3z"/>
	<path id="path680" class="st0" d="M96.8,87.6l0-0.8C97.1,86.4,94.6,89,96.8,87.6z"/>
	<path id="path682" class="st0" d="M225.4,89.2c1.4-0.8,0-1.3,0-1.3S224,90,225.4,89.2z"/>
	<path id="path684" class="st0" d="M86,120.2c0.4-1,0.7-1.8,0.9-2.4L86,120.2z"/>
	<path id="path686" class="st0" d="M87.4,116.7c0.1,1.2,0,2.4-0.2,3.5C87.9,119.1,88,117.9,87.4,116.7z"/>
	<path id="path688" class="st0" d="M96.8,111l-0.2-0.9c-0.5,0.5-1.1,0.8-1.4,1.4C95.7,111.6,96.5,110.8,96.8,111z"/>
	<path id="path690" class="st0" d="M109.5,149c-0.2-2.8-3.2-0.6-3.2-0.6s0.1-0.9-0.7,0.8c-0.8,1.6,4.7-2.9,3.2-0.2
		C107.3,151.7,109.5,149,109.5,149L109.5,149z"/>
	<path id="path692" class="st0" d="M147.9,105.5c-0.9-0.6,0.2,1.5,0.2,1.5C149,106.1,148.8,106.2,147.9,105.5z"/>
	<path id="path694" class="st0" d="M91.6,92.1l0.6-1.7c-1-0.9-1.4,2.1-1.1,2.7C91.5,92.9,91.1,92.1,91.6,92.1z"/>
	<path id="path696" class="st0" d="M92.3,96l-0.1-0.1c0.7-0.6,0.2-1.9,0.2-2.6l-0.2,1.7c-0.1,0.2-0.3,0.3-0.5,0.2
		c0.1,0.1,0.2,0.3,0.2,0.5l-0.5-0.5C89.4,95.2,91.6,97.3,92.3,96z"/>
	<path id="path698" class="st0" d="M86.9,113.4c0.1-0.4,0.6-1.8-0.2-2.4C86.9,112.1,86.6,112.7,86.9,113.4z"/>
	<path id="path700" class="st0" d="M96.6,116.4l-0.2-1.4C95.9,115.6,96,116.1,96.6,116.4z"/>
	<path id="path702" class="st0" d="M95.9,92.1C92.1,89.8,96.1,96.5,95.9,92.1z"/>
	<path id="path704" class="st0" d="M94.9,99.2c-0.1,0.6-0.8,0.5-0.7,1.2c0.3,0,0.5,0.1,0.7,0.2C94.9,100.4,95.2,99.2,94.9,99.2z"/>
	<path id="path706" class="st0" d="M96.6,96.1c0,0.5,0.2,1.7-0.5,1.9c0.3,0,0.4,0.4,0.7,0.5L96.6,96.1z"/>
	<path id="path708" class="st0" d="M96.6,94.2c-0.1,1.1-1.5-0.2-1.7,0.5c0.6,0.7,1.2,0.3,1.9,0L96.6,94.2z"/>
	<path id="path710" class="st0" d="M102.3,147.5c2-1.2,1.6,3.2,2.2,0.3C105.1,144.9,102.3,147.5,102.3,147.5z"/>
	<path id="path712" class="st0" d="M460,85.3c1.6-0.5-0.9-0.1-1.2-1C458.8,84.3,458.3,85.8,460,85.3z"/>
	<path id="path714" class="st0" d="M458.8,90c1.1-0.8,0.5-0.6-0.4-1.6C458.4,88.4,457.7,90.8,458.8,90z"/>
	<path id="path716" class="st0" d="M455.7,90.8c-0.9,0-0.5-1.1-0.5-1.1C453.8,91.9,456.6,90.8,455.7,90.8z"/>
	<path id="path718" class="st0" d="M459.4,91.1c2.1-1.8-1.4,1.3-1.6,0C457.8,91.1,457.3,92.9,459.4,91.1z"/>
	<path id="path720" class="st0" d="M462.5,85.4c1.3-1.3,0.7-1.7,0.7-1.7S461.2,86.8,462.5,85.4z"/>
	<path id="path722" class="st0" d="M466.3,100c2.2,0.9,2.1-4.4,0.6-3.3C466.9,96.8,464.1,99.1,466.3,100z"/>
	<path id="path724" class="st0" d="M462.8,116.2c0,0-0.2,1.6,0.4,2c0.7,0.4,1.2,2.5,3,0.8c1.8-1.7-2.7-2.3-2.7-2.3
		C464.9,116.2,462.8,116.2,462.8,116.2z"/>
	<path id="path726" class="st0" d="M467.4,117.2c0.7-0.3,1.1-1.2,1.1-2C468.4,115.2,466.7,117.5,467.4,117.2z"/>
	<path id="path728" class="st0" d="M445.3,90.6c1.5-1.1,0.4-3.1,0.8-3.5c0.3-0.4-3.8-0.7-2.4,1.1c1.4,1.8,0,1.7,0,1.7
		c-1.2-1.4-2.7-0.2-2.7-0.2C442.3,92.5,443.8,91.7,445.3,90.6z"/>
	<path id="path730" class="st0" d="M444.3,95.3c0.5-0.7-1.7-2.2-1.2-0.8s0.4,2.3,0.4,2.3S443.8,96,444.3,95.3z"/>
	<path id="path732" class="st0" d="M442.6,92.3c0,0,0.5,0.8,1,0.8c0,0-0.1,0.4,0.8-0.3C445.4,92.1,442.6,92.3,442.6,92.3z"/>
	<path id="path734" class="st0" d="M437.9,88.7c1.1-0.4,1.1-1.9,0.4-1.6c-0.7,0.4-0.8,0.7-1.7,0C436.6,87.1,436.8,89.1,437.9,88.7z"
		/>
	<path id="path736" class="st0" d="M441.8,85.9c0,0-0.8-2.8-0.6,0.6S441.8,86.1,441.8,85.9z"/>
	<path id="path738" class="st0" d="M446.1,85.9c1.9-1.2-1.3-1.8-1.9-1.4l-1.3,1.2C443,85.7,444.2,87,446.1,85.9z"/>
	<path id="path740" class="st0" d="M449.8,83.6c0.7-0.6-1.1-1.4-1.5-0.5C448.3,83,449.1,84.2,449.8,83.6z"/>
	<path id="path742" class="st0" d="M470.2,101.4c1.6,0,1.8-2.8,0.8-1.9C471,99.5,468.6,101.4,470.2,101.4z"/>
	<path id="path744" class="st0" d="M476.9,91.2c0.4-1.1-0.8-0.5-0.8-0.5C476.4,92.4,476.4,92.3,476.9,91.2z"/>
	<path id="path746" class="st0" d="M508.8,97.2c1.2-1,0.9-8.3,0.9-8.3c-0.4-1.1-2.2-1.2-1.5,0.7c0.8,1.9,0.2,4.7-0.5,5.8
		C506.9,96.6,507.6,98.2,508.8,97.2z"/>
	<path id="path748" class="st0" d="M479.8,92.7C479.8,92.7,479.8,92.8,479.8,92.7c-0.1,0.1-0.1,0.1-0.1,0.1
		C479.8,92.8,479.8,92.7,479.8,92.7z"/>
	<path id="path750" class="st0" d="M492.3,95.5c0,0,0,1.2,0.6,0c0.6-1.2,1.2,0,1.6,0.5c0.4,0.5,0.4-0.3,0.4-0.3
		S492.5,91.3,492.3,95.5z"/>
	<path id="path752" class="st0" d="M378.2,124.1c1.3-1-0.1-1.5-0.1-1.5S376.9,125.1,378.2,124.1z"/>
	<path id="path754" class="st0" d="M517.9,103.6c0,0-0.8,1.8,0,1.6C518.7,105.1,518.6,103.1,517.9,103.6z"/>
	<path id="path756" class="st0" d="M521.5,107.8c1.4-1.5-0.3-1.4-0.3-1.4S520.1,109.3,521.5,107.8z"/>
	<path id="path758" class="st0" d="M519.3,89.6c-0.4-1.1-0.2,1.7-0.8,0.4c0,0-1.6,1-1.3,1.6C517.4,92.2,519.7,90.7,519.3,89.6z"/>
	<path id="path760" class="st0" d="M518.8,108.8c0.9,0.2,0.5-2.4-0.8-2.4C518,106.4,517.9,108.6,518.8,108.8z"/>
	<path id="path762" class="st0" d="M478.7,93c-1.8,2,0.4,0.2,1-0.2C479.8,92.4,479.9,91.7,478.7,93z"/>
	<path id="path764" class="st0" d="M479.4,95.4c1.6-0.9,1.6-3.9,0.7-2.6c-0.3,0.4-0.3,0.3-0.3,0.1C479.4,93.5,477.9,96.2,479.4,95.4
		z"/>
	<path id="path766" class="st0" d="M470.8,102.9c0,0-1.7,4.1,0.4,2.3C473.2,103.3,471.4,101.8,470.8,102.9z"/>
	<path id="path768" class="st0" d="M470.1,146.4c-1.2,1-2.4,3-3,4.5C469.4,150,471,148.5,470.1,146.4z"/>
	<path id="path770" class="st0" d="M476.9,94.5c0.7-0.2-1.6-0.8-1.6-0.8C474.7,93.9,476.2,94.7,476.9,94.5z"/>
	<path id="path772" class="st0" d="M441.1,92c-0.4-0.6-7-4.8-7-4.8C438,92,441.5,92.5,441.1,92z"/>
	<path id="path774" class="st0" d="M470.6,96.3c1.5,0.1,1.5-0.6-0.2-1.2C470.4,95.1,469.1,96.1,470.6,96.3z"/>
	<path id="path776" class="st0" d="M478,88.5c0.1-0.4,0.3,0.4,1-0.8c0.8-1.2-0.8-0.4-1,0c-0.2,0.4-0.9,0.6-0.9,0.6
		c-0.4,0.2-1.3,0.2-0.7,1.1C477.1,90.3,477.9,88.9,478,88.5z"/>
	<path id="path778" class="st0" d="M493.1,92.7c1.2-1.1-0.6-0.9-1.2-0.5C491.9,92.2,491.8,93.7,493.1,92.7z"/>
	<path id="path780" class="st0" d="M400.2,72.4c1.1,0.5,2.2-0.4,1.6-0.5c0,0-0.2,0.5-1.1-0.8S399.1,71.9,400.2,72.4L400.2,72.4z"/>
	<path id="path782" class="st0" d="M400.2,74.2c-0.1,0-0.2-0.1-0.2-0.2c-0.1,0.3-0.4,0.7-0.4,0.8C399.8,74.9,400.4,74.5,400.2,74.2z
		"/>
	<path id="path784" class="st0" d="M401.4,70.7c1.5,0,0.9-2.9,0-2.1c-0.9,0.8,0,0.3,0,0.3S399.8,70.7,401.4,70.7z"/>
	<path id="path786" class="st0" d="M399.4,75.6c0.2-0.1,0.1-0.2-0.1-0.3C399.2,75.5,399.3,75.6,399.4,75.6z"/>
	<path id="path788" class="st0" d="M403.6,58.9c0.1-0.5,0-0.8,0.1-1.3c-0.6-0.1-1.4,3.9-0.9,4.2C403.1,60.8,403.5,59.9,403.6,58.9z"
		/>
	<path id="path790" class="st0" d="M401.8,66.9c0,0,0.6-0.1,0.1-1c-0.5-0.9,0.2-0.4,0.8-1.1c0.6-0.7,1.6-1.4,0-1
		C402.7,63.9,399.9,65.4,401.8,66.9z"/>
	<path id="path792" class="st0" d="M408.8,96.4c2.5,0,0.2-1-0.9-1C407.8,95.4,406.2,96.4,408.8,96.4z"/>
	<path id="path794" class="st0" d="M411.5,129.9c-1,0.3-3.3,0.8-1.7-0.1c0,0-4.6,0.8,0,1.8c0,0-4.3-0.7-2.7,0.5
		c1.5,1.2,3.5-0.2,3.8-1.1C411,130.9,410.7,130.3,411.5,129.9z"/>
	<path id="path796" class="st0" d="M399,80.6c0,0.1,0.4-1.1,0.3-1.1c0-0.2-0.1-0.2,0-0.3c0-0.1,0.1-0.6,0.2-0.9
		c0-0.1,0.4-2.4,0.2-1.2c-0.8-0.7-1,3.6-1.1,3.6c0.1-0.5-0.4,0.4-0.4,0.7c0.3-0.1,0.3,0,0.6-0.1C399,81.1,399.1,80.9,399,80.6
		L399,80.6z"/>
	<path id="path798" class="st0" d="M398.2,82.6C398.3,82,398.1,82.4,398.2,82.6z"/>
	<path id="path800" class="st0" d="M395.6,94.3c0,0-0.2-0.8,0-0.8c0-0.1,0-0.1,0-0.3c0.3,0.1,2.6-6.4,2.2-7c0.1-0.2,0-1.4,0.3-1.7
		c0,0,0-0.3,0.1-0.5c-0.1,0-0.3-0.1-0.3-0.1c0,0.1,0,0.1,0.1,0.1c-0.1,0.4,0-1.1-0.5-0.8c-0.2,0.1-0.1,0.5-0.2,0.9
		c-0.5-0.1-0.4,1.2-0.5,1.5c0-0.1-0.8,1.3-0.6,1.7C395.6,88.7,395.3,93.9,395.6,94.3z M396.3,91.5C396.2,91.8,395.7,91.4,396.3,91.5
		z"/>
	<path id="path802" class="st0" d="M392.2,95.5c1.1-0.1,0.8-0.8,0-0.9C392.2,94.6,391.1,95.6,392.2,95.5z"/>
	<path id="path804" class="st0" d="M395.7,93.6C395.7,93.6,395.7,93.6,395.7,93.6C395.6,93.7,395.7,93.7,395.7,93.6z"/>
	<path id="path806" class="st0" d="M398.2,83.5c-0.1-0.1,0-0.6-0.1-0.9c-0.2,0.4-0.2,0.7,0,1.1C398.2,83.7,398.3,83.6,398.2,83.5
		L398.2,83.5z"/>
	<path id="path808" class="st0" d="M397.7,83.2l0.2-0.8C397.8,82.5,397.7,83.1,397.7,83.2z"/>
	<path id="path810" class="st0" d="M397.9,82C398,81.9,397.8,81.6,397.9,82z"/>
	<path id="path812" class="st0" d="M432.5,91.7c1.6-1.2-0.4-2.8-0.4-2.8v-0.1C432.1,88.8,430.9,92.9,432.5,91.7z"/>
	<path id="path814" class="st0" d="M419.5,101.4c1.3-0.5-2.4,1.3-1.3,2.2c0,0,0.8,0.1,0.4-0.4c0,0-0.6-0.4,0.7-1.1s1.1-3.2-0.8-0.8
		C416.6,103.8,418.2,101.9,419.5,101.4z"/>
	<path id="path816" class="st0" d="M425.3,112.9c-1,0.7,1.1,1.4,1.4-0.5c0.3-2-0.3,0.7-0.9-0.8c-0.6-1.4,0.7-3.6,0.5-3.8
		c-0.2-0.2-0.3-1-1-0.3c0,0-0.2,3.6,0,4.3S426.4,112.3,425.3,112.9z"/>
	<path id="path818" class="st0" d="M424.1,105.6c3.7,1.5,5-2.3,3-1.2c-2,1.1-1.2,0-1.2,0c1.8-1.2-1.1-1.5-1.1-1.5
		C425.2,105.1,420.4,104.1,424.1,105.6z"/>
	<path id="path820" class="st0" d="M417.7,115.5c-1.6,0.6,1,0.3,2.3-0.9c0.5-0.1,1.4-0.4,1.9-0.7c0.7-0.4-1-1.9-2.2-2.1c0,0,0,0,0,0
		c-0.4-0.3-0.8-0.6-1.4-1c0,0,0.6,1.7-2.5,2.3C412.7,113.8,420.5,114.3,417.7,115.5L417.7,115.5z M420.6,113.9
		c0.2-0.5,0.2-1-0.3-1.6C421.3,112.6,422.7,113.1,420.6,113.9z M420.1,113c0.1,0.5,0.1,0.9-0.1,1.2c0,0-0.1,0.1-0.2,0.2
		c-0.5,0.5-1.6,0.3-2.6-1.1C417.2,113.3,419.7,111.1,420.1,113L420.1,113z"/>
	<path id="path822" class="st0" d="M418.9,108.8c1-3.1-0.2,0.7,1.4-1.5c1.7-2.2-0.2-3.8-1-3.6c-0.8,0.2-0.2,1.3-0.2,1.3
		c-1.9-0.2-2,2-2,2C419.1,107.2,418.9,108.8,418.9,108.8L418.9,108.8z M419.8,105.6c0,0,1.3-0.2-0.2,0.6
		C418,106.9,418.6,106.1,419.8,105.6z"/>
	<path id="path824" class="st0" d="M439.1,92.9c-1.9,0,0,1.6,1.6,1.7C442.2,94.8,439.1,92.9,439.1,92.9z"/>
	<path id="path826" class="st0" d="M427.2,102.2c2.4,0.5-0.2-1-0.3-1.3C426.8,100.9,424.7,101.6,427.2,102.2z"/>
	<path id="path828" class="st0" d="M432.4,93.8c0,0-0.7,2.4,0.3,1.6C433.6,94.5,432.6,92.8,432.4,93.8z"/>
	<path id="path830" class="st0" d="M415.3,116.4c0.6-0.3,1.1-0.6,1.1-0.6S415.6,116.1,415.3,116.4z"/>
	<path id="path832" class="st0" d="M412.8,128.7c1,0.7,1,0.2,0-1.1C412.8,127.6,411.8,128,412.8,128.7z"/>
	<path id="path834" class="st0" d="M413.1,121.7c1.6-0.8,0.9-1.6,0.9-1.6S411.5,122.5,413.1,121.7z"/>
	<path id="path836" class="st0" d="M412,97c1.1-1.1-0.1-2.4-0.5-1.7C411.5,95.4,411,98.1,412,97z"/>
	<path id="path838" class="st0" d="M415.1,118.1c-3.3-0.1,2.6,0.6,1.8,1.7c-0.9,1.1,0.9-1.1,2.7-0.2c1.7,0.9-0.8-1.3-2.6-0.7
		c-1.7,0.6,0.7-1.7-1.1-1.8c-0.7-0.1-0.7-0.3-0.5-0.5c-0.4,0.2-0.9,0.4-1.2,0.5C415.2,117.2,417.6,118.1,415.1,118.1L415.1,118.1z"
		/>
	<path id="path840" class="st0" d="M411.8,129.8c-0.1,0-0.2,0.1-0.3,0.1C412,129.8,412.2,129.7,411.8,129.8z"/>
	<path id="path842" class="st0" d="M418.2,117.7c0,0,2.1,2.2,1.7,1C419.5,117.5,418.2,117.7,418.2,117.7z"/>
	<path id="path844" class="st0" d="M414.1,116.9c-0.3-0.1-0.5-0.1-0.4,0C413.8,116.9,413.9,116.9,414.1,116.9z"/>
	<path id="path846" class="st0" d="M94.7,96.1c0.5-0.7,0.1-2-0.9-1.9c-0.3,0.3-1,1.5-0.5,1.9c0-0.3,0.1-0.5,0.5-0.5
		c0,0.6-1.3,1-0.5,1.7c-0.1-0.5,0.7,0.1,0.7,0.2c-1.1-0.1-0.6,2.5-0.9,2.6c0.1-0.2,0-0.4-0.1-0.5c-0.3,0-0.7,1.7-0.4,1.7
		C94.5,100.9,94.6,95.6,94.7,96.1z"/>
	<path id="path848" class="st0" d="M193.5,121.9c-1.4,1-2.9-2.5-3.1-1.2c-0.3,1.7-1.7,1.7-1.8,1.6s-2.9,1.8-1.3,2.7
		c1.6,0.9,1.4,1.8,0.2,1.1c-1.2-0.7-1.1,0.4-1.1,0.4c1.6,1.6,1.1,4.6,1.1,4.6c1.5-0.8-0.6-4.1,0.8-4.4c0.8-0.2,0.7-0.4,0.7-0.5
		c0,0,0.1,0.2,0.5,0.4c1.2,0.8,1.8,0.1,1.8,0.1S192.4,124,193.5,121.9L193.5,121.9z M191,126.1C191,126.1,191,126.1,191,126.1
		c0.1-0.2-0.8-0.6-0.8-0.6s-1.6-1.8,0.1-3.1c1.6-1.3,0.2,0,1.3,0.9C192.5,124.1,191.2,125.8,191,126.1
		C191,126.1,191,126.1,191,126.1z"/>
	<path id="path850" class="st0" d="M194.4,120.5c0.8-2,0-0.6-0.9,1.4C193.8,121.7,194.1,121.3,194.4,120.5z"/>
	<path id="path852" class="st0" d="M190.2,117.9c0.9,0.1,0.6,1.7,0.6,1.7c0.6-1.7,1.6-0.7,0.2-2c-1.4-1.3,0-0.5,1.5-1s3.4-1.5,2-1.6
		s-1.2-0.3-1.3-0.9c-0.1-0.6-0.4-1.3,0.9-2c1.2-0.7-2.2-1-1.4,0.2c0.7,1.2-0.5,1.1-0.5,1.1c-1.2,0.4-1,1.1-1,1.1
		c0.4,0,1.5-0.6,1.5,0.6c0,1.3-1.1,0.8-1.1,0.8c-1.3-2-1,0.7-1,0.7C189.5,116.4,189.2,117.8,190.2,117.9L190.2,117.9z"/>
	<path id="path854" class="st0" d="M185.2,129.8c0.5,1.1,0,0.5-0.6,1c-0.6,0.5-2.5,3.5-2.5,3.5c0.2,0.9,0.7,0.4,1,0.3
		c0.3,0,0.5-2.6,1.9-3.4c1.3-0.8,0.2,1.6,1.1-0.1S184.7,128.7,185.2,129.8z"/>
	<path id="path856" class="st0" d="M188,141.4c0,0-1.4,2.9,0,1.5C189.4,141.4,188,141.4,188,141.4z"/>
	<path id="path858" class="st0" d="M185.4,114.8c-0.7-2.3,0,0.1,0,0.1s0.2,2.9,0.9,2.5C187.1,116.9,186.1,117.1,185.4,114.8z"/>
	<path id="path860" class="st0" d="M191.9,129.3c0-0.1-1.9,3.7-0.4,2.4C193,130.4,191.6,130.8,191.9,129.3z"/>
	<path id="path862" class="st0" d="M444.7,126.2c1.1-0.2-1.4-0.6-1.4-0.6C443.9,126.4,443.7,126.4,444.7,126.2z"/>
	<path id="path864" class="st0" d="M222.8,99.1c-4-0.1-8.1-0.1-12.1-0.2c-0.1,0-0.2,0-0.3,0c-3.2,11.1-2.9,8-2.9,8
		c0.9-2.1,1.3-5.8,1.4-8.1c-6.3-0.1-12.2-0.1-18.5,0.9c-2.5,4.2-1.9,9.5,2.9,10.7c4.1,1,7.2,1.1,7.4,6.2c0.1,1.3,0.1,2.6,0.2,3.9
		c-0.4,0.3-1,0.6-1.9,0.9c-1.9,0.6-1.4-0.7-2.2-1.7c-0.8-1-2.5-1.4,0.7-2.6c0,0,0.7,2,0,2.4c0,0,2,1.4,1.4-0.2
		c-0.6-1.6-0.6,0.5-0.7-2.2c0-2.6,0-4.1-2.3-1.2c-2.3,2.9,3.4-0.6-2.4,2.6c0,0-1.1,2.7,1.2,0.7c0,0,1.1,1.5,0,2.8
		c-1.1,1.3-1.2,1.8,0,1.4s1.4,2.2-0.5,2.3c-1.9,0.1-0.5,3.3,4.5-3c0.8-1,1.5-1.3,2.2-1.3c0,1,0.1,2.1,0.1,3.1
		c0.7,0.3,1.5,1.7,1.6,2.4c0.2,0.9-0.4,2.7-0.7,1.2c-0.1-0.7-0.5-1.3-0.9-1.8c0.1,1.8,0.1,3.6,0.2,5.5c-0.5,0.2-1,0.7,0.1,1.4
		c0.1,2,0.2,3.9,0.2,5.9c0.1,2.2,0.9,4.5,0.7,6.5c-0.4,5.4,0.4,7.3,5.7,7.6c6.8,0.3,7.8-2.8,7.9-8.7c0.1-8.8,0.2-17.6,0.3-26.4
		c0-2.3-0.2-4,0.9-6c2.1-3.9,9.2,0.6,9.6-6.1C226.8,102.6,226.9,99.2,222.8,99.1L222.8,99.1z M206.7,110.6c-0.9-0.4-0.1-1.6,0.3-1.9
		c0,0,0.3-0.3,0.5,0.1C207.6,109.3,207.6,111,206.7,110.6z M211.2,102.6c-0.7,1.1,0-1.8,0-1.8C211.3,101.2,211.9,101.5,211.2,102.6z
		"/>
	<path id="path866" class="st0" d="M196.5,113c0.9-0.6,0.2-1.5,0-1.1C196.5,111.9,195.6,113.6,196.5,113z"/>
	<path id="path868" class="st0" d="M197.9,129.3c0.7,0,0.7,0.3,0.4,1.3c-0.3,1,0.3,0.6,0.3,0.6c0.3-1.9-0.3-2-0.5-2.3
		c-0.2-0.3,1.5-1.1,0.9-1.7C198.4,126.5,197.2,129.2,197.9,129.3L197.9,129.3z"/>
	<path id="path870" class="st0" d="M442.7,127.9c0.7,0.3,0.2,1.9,2.2,0.5S442.7,127.9,442.7,127.9z"/>
	<path id="path872" class="st0" d="M195.6,129.7c0,0,0.4,2.4,0.9,1.5C197.1,130.2,196,129.5,195.6,129.7z"/>
	<path id="path874" class="st0" d="M179.4,129.7c0,0-0.8,1.4-2.5,0.5c0,0-1.2,1.8,0.4,2.8c0,0-1.1,0.6-0.6,1.2s3,0.4,2.9-2.3
		C179.6,129,178.3,132.8,179.4,129.7L179.4,129.7z M178.2,132.7c-0.7-1-0.6-2.1,0.1-0.6C179.1,133.6,178.2,132.7,178.2,132.7z"/>
	<path id="path876" class="st0" d="M147.9,109.7c-0.9-0.4,0.5,1.5,0.5,1.5C148.6,110.7,148.9,110.1,147.9,109.7z"/>
	<path id="path878" class="st0" d="M181.4,125.2C181.4,125.1,181.4,125.1,181.4,125.2c-0.3-0.1-0.5-0.2-0.8-0.3
		c-0.1-0.7-0.2-1.5-0.5-0.7c-0.1,0.2-0.1,0.3-0.2,0.5c-1.7-0.4-1.2,0.1-0.7,0.7c-0.3,0.1-0.5,0-0.5,0c0.1,0.3,0.3,0.6,0.4,0.8
		c0,0,0,0,0,0c0,0.3,0.2,0.6,0.3,0.9c0,0.1-0.1,0.1-0.2,0.2c0,0,2.5,1.5,1.8-0.5c0,0,0-1.4,1,0.7C182.9,129.4,184,126.5,181.4,125.2
		z M179.4,125.8c0.1,0.2,0.2,0.4,0.2,0.6C179.4,126.3,179.3,126.1,179.4,125.8z M179.5,127.1c-0.1-0.2-0.1-0.4-0.1-0.6
		c0.1,0.1,0.2,0.2,0.3,0.2C179.6,126.9,179.6,127,179.5,127.1z"/>
	<path id="path880" class="st0" d="M148.8,108.8c0.5-0.7,0.4-1-0.8-0.5C146.7,108.8,148.8,108.8,148.8,108.8z"/>
	<path id="path882" class="st0" d="M132.3,136.9c0.6,0.2-0.3-2.6-0.3-2.6C131.6,134.9,131.7,136.8,132.3,136.9z"/>
	<path id="path884" class="st0" d="M139,137c1.1-0.8,0.1-1.1-0.7-1.3C138.3,135.6,137.9,137.8,139,137z"/>
	<path id="path886" class="st0" d="M116,153.7c0-0.1-0.1-0.2-0.2-0.2C115.8,153,114.8,154.8,116,153.7z"/>
	<path id="path888" class="st0" d="M134.4,135.6c0.5-0.7,0.9-1-0.4-1.5C134.1,134.1,133.9,136.4,134.4,135.6z"/>
	<path id="path890" class="st0" d="M177.9,122.7c0.3-5-7.2-6-8.5-1.8c0,0-4-0.6-5.5,0.7c0,0-2.6,2.1-2.4,1.5c0.7-2,1.5-3.6,2.5-5.5
		c1.2-2.3-0.9-5.5,1.5-7.6c1.5-1.4,14.8-0.4,14.8-3.6c0.8-1.3,1-2.9,0.8-4.4l0,0c0,0,0.1-5.1-4.8-7.3c0,0-1-1.1-0.6,1
		c0.3,1.3,0.4,1.6,0.2,1.8c-4-0.5-7.8-2.3-11.9-0.5c-0.1,0-0.3,0-0.4,0c-0.8-1.5-1.4-0.5-1.7,0c-0.3,0-0.6,0-0.9,0
		c-1-2.1-2-1-2.6,0.1c-1.9,0.1-3.7,0.1-5.6,0.2c-0.2-0.5-0.5-1.1-1-0.9c-0.5,0.2-0.2,0.6,0.1,1c-3.9,0.9-3.7,7.6-2.4,10.6
		c0.4,1,0.4,2.1,0.2,3.3c-0.4,0.2-0.8,0.6-1.3,0.9c-0.8,0.6,0.1,0.8,0.9,0.8c-0.3,1.1-0.6,2.3-0.6,3.4c0,1,0,2.1,0,3.1
		c-0.7,0.2-1.4,0.6,0,1c0,3.2,0,6.4,0,9.6c0,6.7,1,13,1,19.7c0,4.1,13,4.8,13.3,0.1c0.3-4.7,0.7-9.3,1-14c0.3-4,1.4-5.9,6-5.9
		C177.2,130,177.6,129.2,177.9,122.7z M176.9,96.2c1,0.4,1.6,1.4,1.2,1.6c-0.2-0.1-0.4-0.1-0.5-0.1
		C176.9,97.2,176.9,96.2,176.9,96.2z"/>
	<path id="path892" class="st0" d="M178.8,144.5c-2.3-1-1,0.8-1,0.8C178.1,145.3,181.1,145.6,178.8,144.5z"/>
	<path id="path894" class="st0" d="M199.7,117.9c0,0-0.3,1,0.4,1.3C200.7,119.5,200.6,117.6,199.7,117.9z"/>
	<path id="path896" class="st0" d="M175.5,133.8c-1.5,0.1,0.4,3.7-0.3,2.6c-0.7-1.2-0.9-3.7-0.8-0.6s1.8,1.2,1.1-0.1
		c-0.6-1.3,0.1-1.3,0.1-1.3C176.2,134.2,175.5,133.8,175.5,133.8L175.5,133.8z"/>
	<path id="path898" class="st0" d="M167.4,112.4c2-1.1-0.5-1.2-0.5-1.2S165.4,113.5,167.4,112.4z"/>
	<path id="path900" class="st0" d="M325.9,132.8c1.4-0.8,1.8-0.3,0.4-2.7C326.2,130.1,324.5,133.6,325.9,132.8z"/>
	<path id="path902" class="st0" d="M375.1,138.7c0,0-0.8,2.3,0.9,1.3C377.7,139,375.2,138,375.1,138.7z"/>
	<path id="path904" class="st0" d="M378.2,143.8C378.2,143.7,378.2,143.7,378.2,143.8C378.2,143.7,377.9,143.8,378.2,143.8z"/>
	<path id="path906" class="st0" d="M373,138.3c-0.2,0-1.3,1.5-0.6,1.6S374.8,138.1,373,138.3z"/>
	<path id="path908" class="st0" d="M375.7,118.3c0-9.5-6.7-15.2-14.6-18.2c0,0.2,0,0.3,0,0.6c-0.3,1-2,1.6-1.6,0.9s-0.2-1.6-0.2-1.6
		c-1.8-0.3-1.2-0.5-0.4-0.6c-0.5-0.1-1-0.3-1.4-0.4c-0.5,0.5-0.1,1.1-1,1.1c-1.2,0,0.6,1.6,0,2s-1.1,0.3-1-0.6c0.1-0.9,0.8-2-1-0.5
		s-2.1-0.8-1.3-0.8s1.2-0.2,1.4-0.9c0.2-0.7,1.2-0.2,2.1-0.5c-2.7-0.6-5.5-1-8-1.1c-0.3,0.6-0.7,1.3-1.3,2.2
		c-2.4,3.4-1.5-0.5-1.5-0.5c1.1-0.5,1.8-1.1,2.3-1.7c-0.1,0-0.2,0-0.4,0c-0.3,0-0.7,0-1,0c-0.6,0.7-1.2,0.1-1.5,1.2
		c-0.4,1.8-1.2,0-0.8,2.2c0.4,2.2-1.2,1-1.2,1c-3.5,0.2-2.3-0.5-0.6-0.4c1.7,0.2,0.5-0.4,0.6-1.2c0.1-0.8,1.3-0.1,0.9-1.4
		c-0.4-1.3-0.9,0.3-0.9,0.3c-2.5-0.4-3.2,0.5-3.2,0.5c0-0.7-1.4-0.8-0.7-1.2c0.7-0.3,2.3-1.4,0.2-1.5c-0.4,0-0.6-0.1-0.8-0.2
		c-4.2,0-7.9,1.1-8,5.6c-0.1,7.3-0.1,14.7-0.2,22c-0.1,5.6-0.3,11.3,0.2,16.9c0.3,3.4-0.5,9.8,4.7,9.4c3.7-0.3,7.4-0.1,11.2,0.1
		c1.3,0.1,2.6,0,3.9-0.1c0.1,0.4,0,0.8-0.6,1.4c-1.7,1.6,1.7-0.5,1.7,0.3c0,0.8,3.3-0.7,0.8-1.9c0.7-0.1,1.3-0.2,2-0.4
		c0.1,0.3,0.2,0.5,0.1,0.8c-0.3,0.7,0.8,0.6,1.4-1.1c1.9-0.5,3.8-1.3,5.5-2.1c0.4,0.6,0.8,1.3,0.4,1.8c-0.6,1.1,1.7-0.8,1.3-2.8
		c0.5-0.3,1-0.6,1.5-0.9C374.5,139,376.2,130.5,375.7,118.3L375.7,118.3z M360.4,128.3c-0.2,0.8-0.4,1.5-0.8,2.3
		c-1.6,0-3.4,0.6-2.4,3.4c-1.3,1.4-3,2.5-4.6,3.1c-0.4-2.4-1.8-0.8-2.7,0.5c-2.1-0.1-4-1.2-5.3-3.8c-1.8-3.8-0.5-11.3-0.6-15.5
		c-0.1-4.9,1.2-8.1,6.1-9.1C359.8,107.2,361.1,122.7,360.4,128.3z M369.6,109.1c-1.7,0.4,0-2.5,0-2.5
		C370.2,105.1,371.2,108.7,369.6,109.1z"/>
	<path id="path910" class="st0" d="M444.3,121.2c1.2,0.5,2-1.4,0.8-1.2C445,120,443,120.7,444.3,121.2z"/>
	<path id="path912" class="st0" d="M378.4,143.7c-0.1,0-0.2,0-0.2,0c-0.2,0.2-1.2,1.2-0.3,1.3C378.9,145.1,379.1,143.6,378.4,143.7
		L378.4,143.7z"/>
	<path id="path914" class="st0" d="M369.6,144.3c0,0-1.9,2.6,0.4,2.7C370.6,147,371.4,145.2,369.6,144.3z"/>
	<path id="path916" class="st0" d="M410.5,133.8c0,0,0.3,2.4-0.4,0.5s-1.6,1.8-0.9,2.8c0,0,0.1-2.4,1.2-0.9c1.1,1.4-0.5,0.1-1.5,1.7
		s4.4-1.3,4.5-2.7c0.1-1.4-0.6,0.5-1.4,0c-0.8-0.5,2-1.2,2.1-2.1S411.3,132,410.5,133.8L410.5,133.8z"/>
	<path id="path918" class="st0" d="M417.2,122.5c0,0,2.4-0.4,0.9-2c-1.5-1.6-0.5,1.6-2.9,2c-2.5,0.4-3.6,2.4,0.6,2
		C420,124,408.9,124,417.2,122.5L417.2,122.5z"/>
	<path id="path920" class="st0" d="M407.5,139.8c-4.3,0.2-12.2,0.9-10.1-6.4c2.3-8.1,13.5,0.1,13.5-9.9c0-2.7-0.1-4.5-2.8-5.1
		c-2-0.4-7.9,0-9-1.4c-1.2-1.6-1.7-2.9-1.6-4c0.6,0.8,0.2,2.3,1.2,1c0.7-0.9,0-1.7-0.9-2.4c0.6-1.1,1.9-1.9,3.6-2.4
		c0.5,0.4,0.9,0.8,0.9,1.1c-0.1,0.3,0.3-0.4,0.9-1.5c0.3,0,0.7-0.1,1-0.1c0.2,0,0.4,0,0.6,0c-0.1,0.2-0.1,0.3,0.1,0.3
		c0.5,0.2,1.1,0,1.5-0.4c2.5-0.1,5.6-0.4,5.6-3.3c0-2,0.5-7.9-2.5-8c-2.1,0-4.2-0.1-6.3-0.2c0.2-0.9,0.4-1.6,0.6-1.9
		c0.1-0.1,0.2-1.6,0.4-1.8c0.2-0.3,0.4-3,0.5-3.3c0.7-1.1,2.5-6.9,1.8-8.3c0.1,0.1-0.3-1.1-0.3-1.8c-0.5,1.6-1.3,7-1.8,7
		c0.3-1.3-0.5,2-0.5,1.9c0,0.1-0.2,1.2-0.3,1.6c-0.1,0.3-0.4,1.4-0.6,1.8c0,0-0.6,1.1-0.6,1.1c-0.1,0-0.1-0.1-0.2-0.2
		c-0.2,0.9,0.4,0.4,0.4,0.8c-0.1,0.4,0.1,2.3-1.1,2.1c-0.7-0.3-0.1-1.6-0.2-1.9c0.6-0.2-0.2-0.3-0.3-0.5c1.1,0.2,0.7-1.1,0.9-1.6
		c-0.8-0.1-1,0.3-0.5,1.3c-1,0.1-0.9,0.6-1.5,2.2c0.2,0.3,0.2,0.6-0.2,0.9c0,0.1,0.1,0.3,0.2,0.5c-0.7,0-1.3-0.1-2-0.1
		c-0.1-0.3-0.2-0.6-0.3-0.9c-0.3-0.9-0.6,0.1-0.7,0.8c-0.5,0-0.9,0-1.4,0c-1.1,4.8-5.9,18-5.9,18c0.6-3.9,3.4-14,5-18
		c-2.7,0-5.3,0.1-7.8,0.4c-1.2,0.2-2.3,0.3-3.5,0.5c-3.1,1.1-1,8.9-1,11.1c-1.8,4.6-0.2,12.3-0.1,17c0.3,7.5,0.5,15,1.1,22.5
		c0.4,5.1,17.3,2.9,21.2,2.8c2.6-0.1,8.9,0.8,9.2-3C413.6,143.4,413.5,139.6,407.5,139.8L407.5,139.8z M400.4,94.4
		c0.3,0,0,0.5,0,0.7C399.8,95,400.4,94.7,400.4,94.4z M388.6,118.3c-2,0.1,0.3-1.7,0.3-1.7s0,0,0,0.2S390.6,118.3,388.6,118.3z"/>
	<path id="path922" class="st0" d="M406.1,80.2c0.1-0.2,0.1-0.3,0.2-0.4C406.2,79.8,406.1,80,406.1,80.2z"/>
	<path id="path924" class="st0" d="M67.4,141.8c0,0-1.2,4.4,0,3.5c1.2-0.9,1.2-1.5,2.1-1.1c0.9,0.4-1.3-1.4-2-0.3
		C67.6,143.9,67.6,142,67.4,141.8L67.4,141.8z"/>
	<path id="path926" class="st0" d="M378.8,138.7c0,0-1.3,1.1,0,2.2C380.2,142,379.9,136.9,378.8,138.7z"/>
	<path id="path928" class="st0" d="M229.7,81.5c0,0-0.8,0.9,0,0.7S230,81.6,229.7,81.5z"/>
	<path id="path930" class="st0" d="M344.9,154c1.9,0.5-0.3-2.4-0.3-2.4C342.1,152.4,343,153.4,344.9,154z"/>
	<path id="path932" class="st0" d="M349.8,155.6c2.1,0.4,1-1.2,0.7-1.9C350.5,153.7,347.7,155.1,349.8,155.6z"/>
	<path id="path934" class="st0" d="M355.1,154.3c0,0-1.9,3.1,0,1.9C357,155,355.9,153.9,355.1,154.3z"/>
	<path id="path936" class="st0" d="M143.5,143.7c0,0-1.8,0.1-2.2-1.4c-0.2-0.9-0.7-0.4-1.3-0.1c-0.9-0.5-2.1-0.8-3.8-0.7
		c-4.3,0.2-12.3,0.9-10.2-6.5c2.3-8.2,13.6,0.1,13.6-10c0-2.7-0.1-4.6-2.8-5.2c-0.9-0.2-2.6-0.2-4.3-0.3c-0.1,2.1-0.9,2-0.7,1.5
		c0.1-0.2,0-0.9-0.1-1.6c-1.8-0.1-3.5-0.4-4-1c-4.1-5.4,0.1-7.7,5.1-8.2c2.4-0.2,7.8,0.4,7.8-3.4c0-2,0.5-8-2.6-8.1
		c-4.8-0.1-9.8-0.5-14.7-0.6c-1,2.4-0.3,4.5-1.1,5.9c-1,1.7-1.4,0.4-1.4,0.4c1.6-3.7,1.6-5.5,1.1-6.4c-2.4,0-4.8,0.1-7.1,0.5
		c-1.2,0.2-2.4,0.3-3.5,0.5c-3.1,1.2-1,9-1,11.2c-0.3,0.7-0.5,1.5-0.6,2.3c2.8,0.9,2.6,4.4,2.8,5.5c0.3,1.4-2.2,3.7-2.2-0.8
		c0-1.8-0.4-2.7-0.8-3.2c-0.3,4.4,0.6,9.7,0.7,13.4c0,0.2,0,0.3,0,0.5c-0.6,0.2-1.3,0.5-0.8,1.1c0.9,1.1,1.1,1.5,0.3,2.1
		c-0.7,0.6-0.6,0.9,0.7,1.3c0.2,5.9,0.5,11.8,0.9,17.7c0.1,1.6,1.9,2.5,4.5,3c0,0,0,0,0,0c0,0,0,0,0,0c0.7,0.1,1.3,0.2,2.1,0.3
		c-0.2,0.6-0.6,1.1-0.9,1.4c0,0.2-0.3,1.8-0.3,1.6c0,0.3-0.5,1.1-0.4,1.5c0.2,1-0.7,6.1-1.1,6.8c-0.1,0.1-0.2,1.2-0.3,1.3
		c-0.1,0.2-0.2,2.2-0.4,2.4c-0.5,0.8-1.8,5-1.2,6c0-0.1,0.2,0.8,0.2,1.3c0.4-1.2,0.9-5.1,1.3-5.1c-0.2,1,0.4-1.5,0.4-1.4
		c0-0.1,0.2-0.8,0.2-1.1c0.1-0.2,0.3-1,0.4-1.3c0,0,0.4-0.8,0.4-0.8c0.1,0,0.1,0.1,0.2,0.1c0.1-0.6-0.3-0.3-0.3-0.6
		c0.1-0.3-0.1-1.7,0.8-1.5c0.5,0.2,0.1,1.1,0.1,1.4c-0.4,0.1,0.2,0.2,0.2,0.3c-0.8-0.1-0.5,0.8-0.6,1.2c0.6,0.1,0.7-0.2,0.4-0.9
		c0.7-0.1,0.6-0.5,1.1-1.6c-0.2-0.2-0.1-0.4,0.1-0.7c-0.1-0.3-0.5-1.3,0-0.8c0.3-1.5,1.7-3.8,1.5-5.9c-0.1-1,0.1-2.2,0.4-3.6
		c1.3,0,2.6,0,3.8,0c-0.8,2.2-1.8,5-1.5,5.4c-0.1,0.3-0.1,1.7-0.4,1.9c0,0,0,0.4-0.1,0.6c0.1,0,0.3,0.1,0.4,0.2c0-0.1,0-0.1-0.1-0.1
		c0.2-0.5-0.1,1.3,0.5,1c0.2-0.1,0.2-0.6,0.3-1c0.6,0.1,0.5-1.4,0.6-1.7c0,0.1,1-1.5,0.8-1.9c0.3-0.7,0.6-2.6,0.8-4.3
		c3.2-0.2,6-0.4,7.4-0.5c2.3-0.1,7.6,0.6,9-1.9l0,0c0,0,0,0,0-0.1c0.1-0.2,0.2-0.4,0.2-0.7c0.5-1.4,1.8-4.6,4-6.3
		C146,144.2,142.3,146.9,143.5,143.7L143.5,143.7z M120,99.3c2.2,0.5,2.3,1.2,0.4,1.7C118.4,101.5,120,99.3,120,99.3z M119.4,110.4
		c0,0.6,0,2.2-0.8,2.1C117.8,112.3,119.4,110.4,119.4,110.4z M119,153.7C119,153.8,119,153.9,119,153.7L119,153.7z M118.3,113
		c0,0.3,0.3,2.2-0.6,2C116.9,114.9,118.3,113,118.3,113z M114.3,113.1c0.5-0.1,2.2,0.5,0.6,0.9C113.3,114.5,114.3,113.1,114.3,113.1
		z M111.6,123.5c-2.4-0.3-0.2-1.8-0.2-1.8h0.2C112.4,122.1,113.9,123.8,111.6,123.5z M114.8,117.7c-2.1-1,0-2,0-2
		C115.5,115.3,116.9,118.7,114.8,117.7z M117.1,118.6c0.5-1-0.9-1.9-0.4-1.8c0.5,0,0.7-1.1,0.7-1.1
		C119.4,116.8,116.6,119.6,117.1,118.6z M117.5,163c-0.8,0.1,0.1-0.8-0.3-1C117.3,161.6,117.5,162.8,117.5,163z M117.7,165.7
		c-0.2,0,0-0.3,0-0.5C118.1,165.2,117.6,165.4,117.7,165.7z M118.1,158.9c-0.2-0.1-0.2-0.2-0.1-0.3
		C118.1,158.4,118.1,158.5,118.1,158.9z M118,158.3C118.1,157.8,118.7,158.4,118,158.3z M119.1,155.6c-0.5-0.2,0,1.9-0.6,1.9
		c-0.1,0-0.2-0.9-0.2-1c0-0.2,0.3-0.9,0.2-1.2c0.1-0.3,0.1-0.6,0.2-1C118.9,154.8,119.2,154.9,119.1,155.6z M119.7,117.9
		c-1.3-0.3,0.8-2.2,0.8-2.2C121.6,116.3,121,118.2,119.7,117.9z"/>
	<path id="path938" class="st0" d="M356,153.2c1-0.4,1.3-1.1,0.2-2.1C355.9,150.9,355,153.6,356,153.2z"/>
	<path id="path940" class="st0" d="M352.4,133.7c1.3,0.5,0.8,1.8,0.8,1.8c0.9-2,1.9-2.7,1.9-2.7
		C353.5,126.8,351.1,133.2,352.4,133.7L352.4,133.7z"/>
	<path id="path942" class="st0" d="M225.9,81.1c0,0-1.8,2.1,0.1,1.4C227.9,81.8,225.9,81.1,225.9,81.1z"/>
	<path id="path944" class="st0" d="M347.8,133.4c0,0-1.5,2,0,1.7C349.3,134.8,347.8,133.4,347.8,133.4z"/>
	<path id="path946" class="st0" d="M352.1,128.4c-0.6-2.7-3-3.4-3-3.4s1.7,2.1,0.4,4.4c0,0-2.2,5.2,0.8,3.9c3-1.3-1.6-2.7,0-4.8
		C350.3,128.4,352.7,131,352.1,128.4z"/>
	<path id="path948" class="st0" d="M344.9,130.1c0,0-0.1,2.6,1.4,1.5C347.8,130.5,344.9,130.1,344.9,130.1z"/>
	<path id="path950" class="st0" d="M346.1,133.1c0.2,1.4,1.3,0.1,0.8-1.2C347,131.9,345.9,131.7,346.1,133.1z"/>
	<path id="path952" class="st0" d="M358.4,152.5c0,0-1.6,2.7,0.2,2.1C360.4,154.1,359.9,151.8,358.4,152.5z"/>
	<path id="path954" class="st0" d="M132.9,133.3c0.6,0.1,0-0.9,0-0.9C132.6,132.9,132.2,133.2,132.9,133.3z"/>
	<path id="path956" class="st0" d="M99.8,164.7c0.3,0.9-0.1,1.5,0.2,1.4C100.4,166,99.7,164.3,99.8,164.7z"/>
	<path id="path958" class="st0" d="M103.2,167c0.1,0.4,1.4,0.4,1.4,0S103.2,167,103.2,167z"/>
	<path id="path960" class="st0" d="M108.8,162.9c-1.3-0.8-0.2-0.1,0.4-2.6c0,0-2.2,2.3-1.2,4S110,163.7,108.8,162.9z"/>
	<path id="path962" class="st0" d="M102.6,162.3c-0.8,0.3-1.2,2.5-0.8,3.1c0.4,0.6,0.5-0.3,0.5-0.3c-1-1.6,0.3-2.3,0.3-2.3
		S103.4,162,102.6,162.3L102.6,162.3z"/>
	<path id="path964" class="st0" d="M109.9,189.9C109.7,190.7,110.4,190.3,109.9,189.9z"/>
	<path id="path966" class="st0" d="M105.4,156.9c0,0,0.2-1.4-1.2,0.1s-2,2.1-2,2.1s-1.7,1.6-1.2-0.7c0.5-2.3-0.1-1.5-1-1.5
		c-0.9,0-0.2-0.5,0.5-1.3c0.7-0.8,2.1,0.1,1.3-1.6S100,154,100,155c0,1-1.2-1.3-3.7-1.1c0,0-1.9,1.9-0.3,3.4
		c1.7,1.6-1.7-2.5,1.2-1.5c0.7,0.2,1.2,0.3,1.4,0.3c-0.2,0.2-0.5,0.6-0.7,1.6c0,0,2.6-0.9,1.5,2.1c0,0-1.4,0.1,0,0.8
		c1.4,0.7-1.6,2.8-1.2,0.2c0.4-2.5-2,1.4,0.1,2.3C100.5,164,103.3,157.9,105.4,156.9L105.4,156.9z"/>
	<path id="path968" class="st0" d="M104.8,161.2c-1.1,0.7-1.1,3.4-1.1,3.4s2.2-1.3,2.2-2.3S105.9,160.6,104.8,161.2z"/>
	<path id="path970" class="st0" d="M111.6,186.3C110.7,188.1,112.4,186.3,111.6,186.3z"/>
	<path id="path972" class="st0" d="M111.8,188.4C111.7,188.5,111.9,188.9,111.8,188.4z"/>
	<path id="path974" class="st0" d="M111.3,183.7c-0.8,0.6,0.2,1.8,0.3,2.3c0-0.3,0.4-0.9,0.3-1.1C111.7,184.8,111.2,184,111.3,183.7
		z"/>
	<path id="path976" class="st0" d="M110.9,157.4c0.5-1.5,1.8-1.6,2-0.6s-0.5,1.1-0.5,1.1s1.9,1.5,0.8,2.4c-1.1,0.9,4.8-3.1,0.5-4.7
		c-4.4-1.6-3.4-0.1-5.9,1.4c0,0,1.7,4.1,2.5,3.3C111.1,159.6,110.5,158.9,110.9,157.4z"/>
	<path id="path978" class="st0" d="M110.9,182.4c0,0.1,0,0.2-0.1,0.3C111.2,182.8,111,182.4,110.9,182.4z"/>
	<path id="path980" class="st0" d="M113.6,161.7c-0.2,0.3,0.2,0.2,0.3,0.3c0-0.1,0-0.2,0.1-0.3C113.8,161.6,113.7,161.8,113.6,161.7
		z"/>
	<path id="path982" class="st0" d="M87.1,165.4c-3.5,0-1.2,1.1-3.1,2c-1.9,0.9,5.4-2.2-0.4,3.4C83.6,170.8,90.6,165.4,87.1,165.4z"
		/>
	<path id="path984" class="st0" d="M69.2,156c0.3-0.8,1-1.4,1.3-2.2c-2.9-0.8-3.9-2.3-3.1-4.7c0-0.4,0-0.8,0.1-1.5
		c0.9,0.2,1-0.6,1.2-1.2c-1-0.4-2.3,0.8-2.6-1c0.2-0.2,0.5-1.7,0.2-1.3c-1.5,0.6-2.4,1.5-2.5,2.9c-0.3-0.8-1.2-2.3-0.2-2.5
		c-0.4-0.1-0.9-0.3-1.3-0.5c1,1.5,1.3,3.1,0.8,4.9c0.4-1.9-2.3,1.8-2.7,0c1.8-5.4-2.5-3.4-0.1,1c2.2-0.3,3.6,0.5,4.1,2.2
		c-0.1-0.5,0.1-1,0.5-1.3c0.2,0.7,0.3,1.2,1,0.5c-0.9,1.2-0.7,1.4,0.6,0.8c-0.2,3.4-0.9,3.5-2.1,0.4c-2.2,1.5-0.2,2.8,1.1,3.2
		c-0.2,0.1-0.4,0.3-0.5,0.6c-0.1,1.2,0.3,1.9,1.2,2.2c-0.1,0-0.2,0.1-0.3,0.2c0.1,0.7,1.5,1.1,1.2,2c2.3-1.1,3.5-2.9,3.6-5.5
		C70.6,155,69.7,156.2,69.2,156z"/>
	<path id="path986" class="st0" d="M96.1,165.7c1.5-1,1.2,2.3,1.4,0.2S96.1,165.7,96.1,165.7z"/>
	<path id="path988" class="st0" d="M516.7,131.2c1.1-0.7-1.1-2.1-1.1-3.1c0-1-0.8-1.2-0.8-1.2s0.1-0.2,1.8,0.6c1.7,0.8,0-1.9,0-1.9
		c2.8,0,0-2.6,0-2.6c1-0.2,0.5-1,0.5-1c0.7-0.8-0.1-3.1,0-5.7c0.1-2.6,0.7-0.9,0.7-0.9c0.4,1.9,1.2,2.5,2,2.4
		c-0.5-4.4-1.9-8.4-4.5-11.6c0.1-0.3,0.2-0.7,0.3-1.2c0.2-2-1.7-1.7-2.3-2.4c-0.3-0.5-0.6,0.3-0.8,1c-1.1-0.8-2.2-1.6-3.6-2.3
		c-5-2.5-9.4-4.2-15.2-4.3c-4.2-0.1-11.9-1.7-16.3,0.3c-1.4-0.4-3-0.6-3.2,0.4c-0.3,1.3-0.6,2.6,0.1,3.4c0,0.2-0.1,0.4-0.1,0.7
		c-0.1,12.1-1.4,24.7-0.3,36.8c0.2,2.2-0.2,6.4,0.5,9.1c0.5-0.2,1-0.2,1.5,0.1c1.5,0.9,1.6,1.4-0.2,2c0.2,0.1,0.4,0.2,0.5,0.3
		c0.2-0.1,0.5-0.2,0.8-0.4c0,0,0.2-0.2,0.4,0.8c0.6,0.2,1.3,0.3,2,0.4c0.7-0.4,1.9-0.8,2.7,0c0.2-0.6,0.8-1.6,1.7-1.2
		c0.7,0.2,0.9,0.8,1.1,1.2c0.6,0,1.2,0,1.7,0c5.9,0.3,12.7,0.1,18.2-2.7c7.4-3.8,11.9-8.7,14-15.6
		C513.7,134.7,515.7,131.9,516.7,131.2L516.7,131.2z M477.3,132.5c0,0-1.5,0-1.5,0.4c0,0.3,2.5,0.4,2.6,0.8c0.1,0.4-2.1,3-4.1-1.5
		C474.4,132.2,477,130.9,477.3,132.5L477.3,132.5z M475.6,139.5c-0.6,0.5-1.4,0.7-1-1C474.6,138.5,476.2,139,475.6,139.5z
		 M474.5,142.8c0,0,3-1.8,2.8,1.2c0,0-1.6-0.4-1.7,0.7C475.5,144.7,475.5,143.1,474.5,142.8L474.5,142.8z M475.5,146.2
		c0,0,2.1-1.9,2.6-1.2C478.6,145.7,476.5,146.2,475.5,146.2z M478.1,147.8c0,0-0.3-2,0.6-0.6C479.7,148.6,478.5,147.8,478.1,147.8z
		 M479.1,146.5c0,0-0.1-3.1,1.7-1.8S480.2,146.6,479.1,146.5z M495.3,137.2c-10.9,2-7.5-18.6-6.7-25.3
		C501.7,98.9,514.3,133.6,495.3,137.2z M513,126.4c-1,0.8-0.6-0.5-0.6-0.5c1.6-1.4,2,0.5,2,0.5C513.9,126.1,514,125.6,513,126.4z"/>
	<path id="path990" class="st0" d="M524.9,106.4c0,0-2.5,4.1,0.3,2.8C528,107.9,524.9,106.4,524.9,106.4z"/>
	<path id="path992" class="st0" d="M64.6,142.7c1.3-1.1,0.3-1.7,0.3-1.7S63.3,143.8,64.6,142.7z"/>
	<path id="path994" class="st0" d="M69.4,149.2c-0.1,0.3-0.2,0.5-0.2,0.8C69.6,152,71,150.4,69.4,149.2z"/>
	<path id="path996" class="st0" d="M88.1,152.2c-0.7-1.2,0-1.8,0.9-1.7c0.9,0.2,0.5-0.7,0.5-0.7c-1.6-1.4,0.8-1.6,1.2-0.9
		c0.4,0.8,1.1,0.9-0.2,2.1c-0.6,0.6-1.2,1.4-1.6,2.1c3.3,0,6.6-0.3,9.8-0.8c0.3,0,0.5-0.2,0.8-0.3c1.7,0.5,1.8-0.7,1.5-1.9
		c1.4-3.3,0.9-8.9-0.5-9c-4.9-0.3-15,1.3-15.1-6.1c-0.1-5.2-0.1-10.4-0.2-15.5c-0.1-5.2-0.1-10.4-0.2-15.5c0-2.7-1.1-4.5-3.8-4.8
		c-5.7-0.8-9-0.4-10.8,5.5c-0.3,2.2-0.3,4.4-0.1,6.6c-1.3,0.1-2.8,0.3-2.9,0.9c-0.2,1,1.8,5,4.2,8c0.2,2.2,0.1,4.4-0.1,6.6
		c-0.6,0.7-1.1,1.9-0.3,4.3c0,0.9,0,1.7,0,2.6c0.2,4.3-2.8,18.4,3.8,18.9c1.2,0.1,2.3,0.2,3.5,0.3c-0.9,2.7-2.5,8.1-2.2,10.1
		c0.3,2.5,1.1-4.9,2.3-10.1c3.2,0.2,6.5,0.4,9.7,0.4C88.4,152.9,88.3,152.6,88.1,152.2L88.1,152.2z M72,114.7c1.2,0.5,0.8,0.9-0.2,1
		C70.8,115.8,72,114.7,72,114.7z M73.2,148.4c-1.3,1.6-0.4-2.1-0.4-2.1s-0.5,0.2,0-0.2C73.3,145.8,74.5,146.9,73.2,148.4z
		 M74.2,131.4c-1.2,0.8-2.7-0.9-1.6-0.8C72.6,130.6,75.4,130.7,74.2,131.4z M74,124.5c-1.7,0,0-2,0-2
		C75.3,123.6,75.8,124.6,74,124.5z M81.2,135.6c0,0,1.8-0.8,1.9,1S79.5,138.3,81.2,135.6z"/>
	<path id="path998" class="st0" d="M111.6,183.3c0.4-0.6,0.5-1.2,0.4-1.9C111.9,181.5,111.2,183.3,111.6,183.3z"/>
	<path id="path1000" class="st0" d="M94.8,162.9c-0.5,0.4-0.7,1,0.8,1.2C97.2,164.3,94.8,162.9,94.8,162.9z"/>
	<path id="path1002" class="st0" d="M92.6,165.4c-0.6,0.6-0.5,1.3,0.9,0.6C94.9,165.2,92.6,165.4,92.6,165.4z"/>
	<path id="path1004" class="st0" d="M90.6,155.7c0,0-0.3,2.5,0.9,1.2C92.7,155.5,91.7,155.5,90.6,155.7z"/>
	<path id="path1006" class="st0" d="M86.8,159.3c1.7-2.2,3.4-0.2,2.3-1.6C88.1,156.4,86.8,159.3,86.8,159.3z"/>
	<path id="path1008" class="st0" d="M523.8,88.9c0,0-1.3,1.8-0.2,1.7C524.8,90.5,524.5,87.7,523.8,88.9z"/>
	<path id="path1010" class="st0" d="M120.7,171.8c0-0.2,0-0.3-0.1-0.3C120.4,171.6,120.4,171.7,120.7,171.8z"/>
	<path id="path1012" class="st0" d="M120.4,162.7C120.3,163.4,120.6,162.9,120.4,162.7z"/>
	<path id="path1014" class="st0" d="M121.3,165c-0.1,0.2-0.3,0.4-0.1,0.8c0-0.1-0.4,1.3-0.4,1.2c0,0.2,0.1,0.2,0,0.4
		c-0.1,0.1-0.2,0.6-0.3,1c0,0.1-0.6,2.8-0.3,1.4c0.9,0.8,1.3-4.1,1.4-4.1c-0.1,0.6,0.5-0.4,0.4-0.8C121.7,165,121.6,164.9,121.3,165
		z"/>
	<path id="path1016" class="st0" d="M122.5,163.7c0.4,0.1,0.5-0.8,0.3-0.9C122.7,162.8,122.6,163.6,122.5,163.7z"/>
	<path id="path1018" class="st0" d="M120.8,163.4C120.7,163.5,120.9,163.9,120.8,163.4z"/>
	<path id="path1020" class="st0" d="M112.1,180.6c0.3,0.1,0.4-0.1,0.2-0.7C112.1,180.1,112,180.3,112.1,180.6z"/>
	<path id="path1022" class="st0" d="M458.7,150.3c0.2,0.3,0.5,0.5,0.9,0.7c0.1-0.2,0.1-0.4,0.1-0.5c0-1.2-0.1-0.9-0.8-1.3
		c-0.6-0.4,0.7-0.6,1.4-1.1c0.7-0.6-0.8-1.3-0.9-1.8c-0.1-0.5,0.6-0.3,1.1-0.7c0.5-0.4,0.2-1.8-0.2-2.7c0,0,1.4,1.8,1.6-0.6
		c0.2-2.4,2.2,0.4,2.1,1.2c0,0,1.4,0.2,0,0.9c-1.4,0.8-0.5,0.7,0.1,1.1c0.6,0.4-0.3,2.3-1.2,0.8s-1-1.1-0.7,0.5c0,0-2.9,0,0.8,2.4
		c0,0,1.7-2.3,1.8,0.6c0,0.6,0,1.2,0,1.7c0.3,0,0.6-0.1,0.9-0.2c0-0.5,0.2-1.1,0.7-1.6c0.9-1.1,2.1-3.3,3.1-5
		c-0.1-0.3-0.2-0.6-0.3-0.9c-2.9,4.1-4.3,4.4-3,2.8c0.9-1.1,1.7-3.2,2.2-4.9c-0.5-1.2-1.1-2.3-1.8-2.6c-3-1.5-1.8-1.6-1.3-4.8
		c0.5-4-1.1-7.8-2.5-11.4c-2.2-5.4-4.4-10.9-6.6-16.4c-1.9-4.8-3.1-7.6-8.6-8.2c-0.7-0.1-1.4-0.2-2.2-0.2c1.1-3.8,2.9-9.9,3.2-11
		c0.5-1.6-0.8-1-0.8-1c-0.8,3.1-2.4,9.4-3,11.9c-4.5-0.3-9.9,0.1-11.2,4.9c-1.1,3.8-2.1,7.5-3.2,11.3c0,0.1-0.1,0.2-0.1,0.2
		c-1.9-0.3-1.2,1.6-0.8,2.5c-0.1,0.4-0.3,0.9-0.5,1.3c-0.7-0.1-1.5-0.1-2.2-0.2c-0.4,0-0.6,0-0.6,0c0.1,0,0.2-0.2-0.3-0.8
		c-1-1.2,2.7-2.5,1.9-4.1c0,0-1.3,2.7-3.6,3.1c0,0-0.7,0.8,0.7,1c1.4,0.1,1,1-0.9,0.8s-0.7,2.9-0.6,2.9s1.3,0.8,0.5,2.4
		c-0.6,1.1,1.8-0.3,2.6,0.6c-0.7,1.8-1.5,3.5-2.1,5.2c-2.1,5.3-5.5,11.2-6.3,16.7c-0.9,5.7,2.4,6.1,7.9,5.4c4-0.7,4.7-2.4,6.9-5.6
		c2.4-3.4,4.3-2.6,8.5-2.8c2.4-0.1,5.4-1.5,8-1C455.4,142.9,454.4,147.8,458.7,150.3L458.7,150.3z M426.6,122c-1.4,0.1-1.1,2-1.6,0
		s1.8-2.6,1.8-2.6s0.9,0.3,1,0c0-0.1,0-0.1,0,0c0,0,0,0,0,0C427.8,119.8,427.9,121.8,426.6,122z M440.2,103c1,0.2,0.4,1.5-0.5,2.1
		C439.7,105,439.2,102.8,440.2,103z M429.1,136.9c0,0-0.2-3.7,0.7-3.5C430.7,133.6,431.1,135.6,429.1,136.9z M429.8,131.2
		c0-2.3,0.9,0.4,0.8-1.3c0,0-0.6-2.4,1.2-0.9C433.5,130.6,429.8,133.5,429.8,131.2z M432.8,123.1c0,0,1-12.9,3-12.3
		C437.7,111.5,434.1,120.2,432.8,123.1z M436.7,110.6c0,0,0.4-3.9,1.2-3.4S437.2,110,436.7,110.6z M439,109c0,0,0-1.5,0.7-1.2
		C440.5,108.1,439.5,108.9,439,109z M443.8,139.1c0,0-1.3-3.4,0.4-2.8S444,137.9,443.8,139.1z M448.3,127.4
		c-2.9,4.3-7.6,4.4-7.9,0.8c0.5-0.1,0.9-0.3,0.8-0.7c-0.1-0.9-0.5-0.8,1.2-1.8c1.7-0.9-1.2-2,0.4-3.4c1.6-1.3-0.3-0.1,0-0.9
		s-1.2-1,0.3-1.7c0.7-0.3,0.9-0.9,1-1.4c1.1-0.3,1.9,0.4,2.6,1.6c-0.2,0.4-0.4,0.9-0.6,1.3c-0.6,1.3,1.1,1.3-1,1.3
		c-0.1,0-0.1,0-0.2,0c-2.4,0,4.2,1.9,0.7,2.4c-1.7,0.2,0.7,0.6,2.8,0.6C448.3,126.4,448.3,127,448.3,127.4L448.3,127.4z
		 M447.5,108.8c-1.8,1.9,0.1-3.4,0.7-3.2C449.7,106,449.3,106.9,447.5,108.8z M449.4,117c0,0,1.1-2.5,2-1.8
		C452.2,115.9,451,117.2,449.4,117z"/>
	<path id="path1024" class="st0" d="M117,155C117,155,117,155,117,155C117,155,117,155,117,155z"/>
	<path id="path1026" class="st0" d="M113.6,175.9c0,0.1-0.1,0.3-0.1,0.3C113.6,176.2,113.6,176.1,113.6,175.9z"/>
	<path id="path1028" class="st0" d="M122.1,162.3c0.1,0.1,0,0.8,0.1,1c0.3-0.4,0.3-0.8,0-1.3C122.1,162.1,122.1,162.2,122.1,162.3z"
		/>
	<path id="path1030" class="st0" d="M113.4,176.3c-0.2,0.5-0.2,1.3-0.5,1.8c0.2-1,0.4-1.9,0.5-2.9c-0.1,0-0.1,0-0.1,0.1
		c-0.2,1.2-1.6,3.3-0.9,4.5c0-0.6,0.2-1.1,0.6-1.6c0,0.3-0.1,0.6-0.1,1c0.1-0.7,0.5-2.2,0.6-2.3
		C113.5,176.8,113.7,176.5,113.4,176.3L113.4,176.3z"/>
	<path id="path1032" class="st0" d="M112.8,179.6c0-0.1,0-0.3,0-0.4C112.8,179.4,112.7,179.6,112.8,179.6z"/>
	<path id="path1034" class="st0" d="M112.6,179.7c-0.2,0.8-0.1,0.8,0.1-0.1C112.7,179.7,112.6,179.7,112.6,179.7z"/>
	<path id="path1036" class="st0" d="M114,183.9C113.7,183.9,114.3,184.6,114,183.9z"/>
	<path id="path1038" class="st0" d="M119.8,173.3c0,0.1-0.1,0.2-0.1,0.2C119.8,173.4,119.8,173.3,119.8,173.3z"/>
	<path id="path1040" class="st0" d="M115.4,187.6c-0.1,0.5-0.1,0.9-0.2,1.5c0.7,0.1,1.7-4.4,1.2-4.8
		C116.1,185.4,115.6,186.4,115.4,187.6z"/>
	<path id="path1042" class="st0" d="M116.9,167.3c-0.2,0.9-0.9,3.2-0.8,3.7c0.5,0.3,0,0.8,0.4,1.1c0.9-1,0.1-2.7,0.5-3.6
		c0.1,0,0.2,0,0.3,0.1C117.3,168.4,117.3,167.3,116.9,167.3L116.9,167.3z"/>
	<path id="path1044" class="st0" d="M119.6,173c0.1,0,0.2,0.1,0.2,0.2c0.1-0.3,0.5-0.8,0.5-0.9C120,172.3,119.4,172.8,119.6,173z"/>
</g>
</svg>
