<?xml version="1.0" encoding="UTF-8"?>
<svg xmlns="http://www.w3.org/2000/svg" xmlns:xlink="http://www.w3.org/1999/xlink" width="px" height="100px" viewBox="0 0 948 100" version="1.1">
<defs>
<linearGradient id="linear0" gradientUnits="userSpaceOnUse" x1="253.40244" y1="46.715401" x2="253.40244" y2="0.715467" gradientTransform="matrix(2.161202,0,0,2.16154,0.000046272,-1.539807)">
<stop offset="0" style="stop-color:rgb(88.627451%,90.196078%,91.372549%);stop-opacity:1;"/>
<stop offset="1" style="stop-color:rgb(100%,100%,100%);stop-opacity:1;"/>
</linearGradient>
</defs>
<g id="surface1">
<path style=" stroke:none;fill-rule:evenodd;fill:rgb(25.098039%,73.72549%,95.686275%);fill-opacity:1;" d="M 210.148438 61.136719 C 210.148438 39.648438 192.707031 22.230469 171.1875 22.230469 C 149.671875 22.230469 132.230469 39.648438 132.230469 61.136719 C 132.230469 82.625 149.671875 100.042969 171.1875 100.042969 C 192.707031 100.042969 210.148438 82.625 210.148438 61.136719 Z M 210.148438 61.136719 "/>
<path style=" stroke:none;fill-rule:evenodd;fill:rgb(0%,87.843137%,32.941176%);fill-opacity:1;" d="M 144.035156 61.136719 C 144.035156 39.648438 126.589844 22.230469 105.074219 22.230469 C 83.558594 22.230469 66.113281 39.648438 66.113281 61.136719 C 66.113281 82.625 83.558594 100.042969 105.074219 100.042969 C 126.589844 100.042969 144.035156 82.625 144.035156 61.136719 Z M 144.035156 61.136719 "/>
<path style=" stroke:none;fill-rule:evenodd;fill:rgb(100%,50.196078%,0%);fill-opacity:1;" d="M 77.921875 61.136719 C 77.921875 39.648438 60.476562 22.230469 38.960938 22.230469 C 17.441406 22.230469 0 39.648438 0 61.136719 C 0 82.625 17.441406 100.042969 38.960938 100.042969 C 60.476562 100.042969 77.921875 82.625 77.921875 61.136719 Z M 77.921875 61.136719 "/>
<path style=" stroke:none;fill-rule:evenodd;fill:rgb(100%,100%,100%);fill-opacity:1;" d="M 72.019531 81.738281 C 68.148438 75.5625 66.101562 68.421875 66.109375 61.136719 C 66.109375 53.570312 68.273438 46.511719 72.015625 40.539062 C 75.882812 46.710938 77.929688 53.851562 77.921875 61.136719 C 77.921875 68.703125 75.757812 75.765625 72.019531 81.738281 Z M 138.132812 40.539062 C 142 46.710938 144.046875 53.851562 144.035156 61.136719 C 144.035156 68.703125 141.875 75.765625 138.132812 81.738281 C 134.261719 75.5625 132.21875 68.421875 132.230469 61.136719 C 132.230469 53.570312 134.390625 46.511719 138.132812 40.539062 Z M 138.132812 40.539062 "/>
<path style=" stroke:none;fill-rule:evenodd;fill:url(#linear0);" d="M 453.949219 24.074219 C 456.707031 24.074219 458.589844 23.820312 461.097656 23.3125 C 465.742188 22.679688 467.496094 20.652344 468.25 14.445312 C 468.625 11.40625 468.875 8.746094 469.003906 5.707031 L 487.816406 5.707031 L 487.816406 24.074219 L 505.128906 24.074219 L 505.128906 44.464844 L 487.816406 44.464844 L 487.816406 62.070312 C 487.816406 74.738281 489.699219 76.128906 500.488281 76.128906 L 505.132812 76.128906 L 505.132812 97.535156 L 493.589844 97.535156 C 471.636719 97.535156 466.242188 89.558594 466.242188 66.632812 L 466.242188 44.464844 L 435.9375 44.464844 L 435.9375 62.070312 C 435.9375 74.738281 437.816406 76.128906 448.605469 76.128906 L 453.246094 76.128906 L 453.246094 97.535156 L 441.707031 97.535156 C 419.753906 97.535156 414.359375 89.558594 414.359375 66.632812 L 414.359375 44.464844 L 402.066406 44.464844 L 402.066406 25.335938 C 404.824219 25.335938 406.707031 25.085938 409.214844 24.582031 C 413.855469 23.945312 415.613281 21.917969 416.367188 15.710938 C 416.742188 12.671875 416.992188 8.746094 417.117188 5.703125 L 435.9375 5.703125 L 435.9375 24.074219 Z M 257.183594 6.71875 L 280.769531 6.71875 L 280.769531 74.867188 L 318.527344 74.867188 L 318.527344 97.535156 L 257.183594 97.535156 Z M 361.925781 99.4375 C 336.710938 99.4375 324.917969 85.253906 324.917969 62.578125 L 324.917969 60.425781 C 324.917969 36.867188 339.597656 22.554688 362.300781 22.554688 C 388.019531 22.554688 398.933594 39.398438 398.933594 59.285156 L 398.933594 67.519531 L 347.628906 67.519531 C 348.75 76.382812 353.773438 81.199219 362.550781 81.199219 C 368.949219 81.199219 372.464844 78.410156 374.21875 74.234375 L 398.429688 74.234375 C 394.417969 89.683594 383.128906 99.4375 361.925781 99.4375 Z M 347.625 53.078125 L 376.355469 53.078125 C 375.347656 44.84375 371.085938 40.03125 362.550781 40.03125 C 354.023438 40.03125 349.132812 44.464844 347.625 53.078125 Z M 547.652344 99.4375 C 522.441406 99.4375 510.648438 85.253906 510.648438 62.578125 L 510.648438 60.425781 C 510.648438 36.867188 525.324219 22.554688 548.027344 22.554688 C 573.746094 22.554688 584.660156 39.398438 584.660156 59.285156 L 584.660156 67.519531 L 533.355469 67.519531 C 534.484375 76.382812 539.5 81.199219 548.28125 81.199219 C 554.679688 81.199219 558.191406 78.410156 559.949219 74.234375 L 584.15625 74.234375 C 580.144531 89.683594 568.855469 99.4375 547.65625 99.4375 Z M 533.351562 53.078125 L 562.082031 53.078125 C 561.078125 44.84375 556.8125 40.03125 548.28125 40.03125 C 539.75 40.03125 534.859375 44.464844 533.351562 53.078125 Z M 594.066406 97.535156 L 594.066406 24.074219 L 612.382812 24.074219 L 615.515625 39.148438 C 617.902344 27.75 625.300781 23.0625 638.347656 23.0625 L 642.488281 23.0625 L 642.488281 47.253906 L 633.957031 47.253906 C 620.660156 47.253906 617.398438 51.941406 617.398438 64.984375 L 617.398438 97.539062 Z M 672.34375 85.253906 L 670.585938 97.539062 L 650.636719 97.539062 L 650.636719 0.00390625 L 673.21875 0.00390625 L 673.21875 35.855469 C 677.109375 27.492188 684.382812 22.554688 694.542969 22.554688 C 710.851562 22.679688 722.898438 33.953125 722.898438 58.78125 L 722.898438 61.058594 C 722.898438 86.011719 711.980469 99.4375 694.042969 99.4375 C 683.003906 99.4375 675.851562 93.867188 672.34375 85.253906 Z M 700.1875 60.929688 L 700.1875 59.15625 C 700.1875 47.503906 694.667969 41.679688 686.765625 41.679688 C 678.484375 41.679688 672.839844 48.136719 672.839844 58.902344 L 672.839844 60.550781 C 672.839844 73.34375 678.359375 79.296875 686.640625 79.296875 C 695.046875 79.296875 700.191406 73.851562 700.191406 60.929688 Z M 729.910156 62.574219 L 729.910156 60.296875 C 729.910156 35.34375 745.21875 22.550781 766.667969 22.550781 C 788.496094 22.550781 803.300781 35.722656 803.300781 60.296875 L 803.300781 62.574219 C 803.300781 87.023438 788.746094 99.433594 766.542969 99.433594 C 742.957031 99.433594 729.910156 87.023438 729.910156 62.574219 Z M 780.59375 62.324219 L 780.59375 60.296875 C 780.59375 48.265625 775.574219 42.054688 766.792969 42.054688 C 758.261719 42.054688 752.617188 48.011719 752.617188 60.296875 L 752.617188 62.324219 C 752.617188 73.59375 758.261719 79.550781 766.667969 79.550781 C 775.074219 79.550781 780.59375 73.851562 780.59375 62.324219 Z M 839.671875 76.761719 L 826.375 97.535156 L 799.53125 97.535156 L 826.378906 59.285156 L 802.042969 24.074219 L 827.886719 24.074219 L 839.804688 42.691406 L 851.71875 24.074219 L 877.4375 24.074219 L 853.226562 59.03125 L 879.070312 97.535156 L 852.972656 97.535156 Z M 926.605469 84.742188 C 922.96875 93.355469 915.691406 98.929688 904.527344 98.929688 C 886.960938 98.929688 875.921875 86.132812 875.921875 60.929688 L 875.921875 58.777344 C 875.921875 34.074219 887.964844 22.679688 904.652344 22.679688 C 915.1875 22.679688 922.089844 27.109375 925.726562 34.582031 L 925.726562 0.00390625 L 948.183594 0.00390625 L 948.183594 97.539062 L 928.738281 97.539062 Z M 925.976562 60.804688 L 925.976562 59.15625 C 925.976562 48.011719 920.582031 41.679688 912.429688 41.679688 C 903.898438 41.679688 898.878906 47.628906 898.878906 59.15625 L 898.878906 60.804688 C 898.878906 73.976562 904.273438 79.296875 912.050781 79.296875 C 920.457031 79.296875 925.976562 73.21875 925.976562 60.804688 Z M 925.976562 60.804688 "/>
</g>
</svg>
