<?xml version="1.0" encoding="utf-8"?>
<!-- Generator: Adobe Illustrator 28.2.0, SVG Export Plug-In . SVG Version: 6.00 Build 0)  -->
<svg version="1.1" id="레이어_1" xmlns="http://www.w3.org/2000/svg" xmlns:xlink="http://www.w3.org/1999/xlink" x="0px"
	 y="0px" viewBox="0 0 800 293" style="enable-background:new 0 0 800 293;" xml:space="preserve">
<style type="text/css">
	.st0{fill:#FFFFFF;}
</style>
<g id="layer101">
	<path class="st0" d="M760,290.8c-10.7-4.8-17-15.5-12.6-21.4c1-1.4,2.1-1.7,5.1-1.2c5,0.8,8,2.9,11,7.8c1.4,2.2,3.8,4.4,5.2,5
		c3.9,1.5,8.3-3.3,12.3-13.4c3.2-8.1,3.3-8.4,2.7-20.2c-0.7-13.6-2.5-23-6-31.3c-1.3-3.1-5.1-13.8-8.5-23.7
		c-3.3-9.9-7.9-22.7-10.2-28.5c-16.3-41.1-18.6-51.9-13.9-64.5c4.6-12.4,14.4-18.7,26-16.9c3.2,0.5,5.3,1.8,8.4,4.9
		c4.6,4.6,6,8.7,4.2,12.5c-2,4.1-5.3,3.8-10.2-1c-3.9-3.8-4.5-4.1-6.6-3c-6,3.1-6.9,4.8-6.9,12.9c0,4.2,0.7,10.6,1.5,14.4
		c2.2,10.7,10.8,35.4,16.8,48.3c5.1,11,13.8,36,18.9,54.3c1.6,5.7,2.2,11.4,2.6,23c0.4,14.9,0.3,15.6-2.3,22.5
		c-4.2,10.7-7.2,14.6-14,18.3C776,293.6,767.2,294.1,760,290.8z"/>
	<path class="st0" d="M704.7,285.5c-10.3-3.5-19.9-7.1-21.2-8c-7.2-4.7-8.8-16.7-6.8-51.1c1.6-27.2,1.3-57.8-0.7-74.5
		c-1-9-1-13.5,0.6-31.3l1.8-20.8l-2.3-5.2c-3.6-8.2-3.7-9.1-0.4-10.7c1.5-0.7,6.9-1.5,11.8-1.7c8.5-0.4,9.9-0.2,25.4,4.6
		c9,2.7,16.6,5.3,16.9,5.6c0.4,0.3,0.1,1.4-0.5,2.3c-1.5,2.4-6.9,2.1-17.6-0.9c-8.3-2.3-8.9-2.3-10.1-0.7c-1.2,1.6-2.2,7.1-7.2,39.1
		l-1.7,10.8l2.9,4.2c4,5.7,17.5,16.9,25.1,20.8c6.3,3.2,7.6,5.2,5.1,7.7c-2.1,2.1-4,1.3-16.4-6.9c-6.8-4.5-12.6-7.9-13.1-7.6
		s-0.9,10.4-1.1,22.4c-0.1,18.2-1.6,43.8-3.9,70.2l-0.5,5.3l5.1,4.8c5.3,5,16.5,11.3,26.6,15c3.3,1.3,6.8,2.9,7.8,3.8
		c3.6,3.2,0.8,9.2-4.4,9.2C724.6,291.9,715,289,704.7,285.5z"/>
	<path class="st0" d="M14,287.9c-4.3-6.1-4.3-6-5.8-110c-0.9-66.1-1.1-71.1-3.1-80.1C4,92.5,2.3,86.3,1.5,83.9
		c-0.8-2.3-1.5-6-1.5-8.1c0-6,2.5-7,16.5-7.2c14.2-0.2,13.7-0.6,19.1,15.6c2,6.1,6.8,17.9,10.6,26c7.1,15.1,8.3,19.1,17.8,59
		c1.9,7.5,3.9,14.2,4.7,14.8c0.7,0.6,1.4,1,1.5,0.8c0.1-0.2,0.5-24.2,0.8-53.4l0.5-53l4.1-0.3c2.8-0.2,4.8,0.3,6.4,1.6l2.3,1.9
		L83,97.5c-0.8,10.4-1.5,44.5-1.9,98.9c-0.3,45.7-1,83.6-1.4,84.3c-1.2,1.8-4.5,1.5-5.6-0.7c-0.6-1-2.2-10.9-3.6-21.9
		c-2.5-19.8-5.3-35.1-10-54.7c-4.6-19-6.4-27.1-10-43.5c-4.6-21.2-8-34.6-10-39.5c-6.5-15.9-10.7-24-12.5-24
		c-1.8,0-1.8-0.3,0.5,30.4c1.7,24,1.8,51.8,0.5,104.4c-0.7,30.2-0.6,36.4,0.6,39.2c0.8,1.9,1.4,5.9,1.4,8.9c0,7.5-2.7,10.7-9.7,11.3
		C16.6,291.1,16.2,291,14,287.9z"/>
	<path class="st0" d="M635.6,287.7c-6.7-8.9-11.1-26.4-14.1-56.5c-1.5-15.4-2.1-18.3-3.5-18.3c-2,0-2,0.4-4.9,46.4
		c-0.5,7.9-1.4,15.3-2,16.5c-1.4,2.5-5.8,3.8-8,2.4c-1.2-0.8-1.8-3.6-2.3-11.9c-1.7-24.6-3.9-51.8-5.3-65.4
		c-1.2-11.2-1.4-21.7-0.9-46c0.3-17.3,0.1-37.2-0.4-44.2c-0.9-11.5-1.3-13.2-4.1-18.3c-3.8-6.6-3.2-8.4,3.1-11
		c6.3-2.5,13.4-2.9,20.3-1.2c3.3,0.8,8.7,1.8,12,2.2c13.3,1.4,21,5.5,24.9,13.3c2,4,2.6,8.2,4.5,28.7c3.5,39.7,2.7,60.2-3,73.4
		c-2.9,6.8-6,8.5-13.8,7.6c-4.9-0.6-5.9-0.4-7.5,1.4c-1.7,1.9-1.7,2.6-0.2,17.3c1.4,13.7,3.9,27.7,9.3,51.8c0.9,4.1,1.7,9.1,1.7,11
		C641.5,291.7,638.9,292,635.6,287.7z M636.4,188.6c2.6-2.6,3.7-7.9,5.7-26.2c1.1-9.4,1-14.3-0.5-32.4c-2.5-29.6-4.4-35.9-12-39.5
		c-5-2.3-9.2-2-12.1,0.9c-2.1,2-2.5,3.4-2.5,8.2c0,3.2-0.5,23.1-1,44.2c-0.6,24.8-0.6,39.1,0.1,40.2c1.2,2.3,4.1,3.9,9.9,5.5
		C630.9,191.4,633.8,191.2,636.4,188.6z"/>
	<path class="st0" d="M408.9,286.3c-2.1-2.5-1.9-56.6,0.4-87.9c4.4-63.2,4.4-78.9-0.4-98.1c-1.2-4.6-1.8-9.5-1.5-10.9
		c0.9-3.6,5.4-5.5,13-5.5c11.8,0,13.7,2.2,17.1,19.3c1.3,6.8,3.4,15.7,4.6,19.8c4,14,5.8,23.4,6.9,36.4c2.3,28.5,3.1,36,3.9,36.8
		c1.6,1.6,1.3,3,8-32.8c6.6-34.6,8.1-43.9,8.7-52.3c0.6-7.5,1.2-9.8,4.6-16.4c3.7-7.2,4.2-7.7,8.8-9.2c6.3-2.1,10.4-2,12.1,0.1
		c1.8,2.1,1.8,48.3,0,74.3c-2.9,43.9-3.3,52.9-3.5,75c-0.1,19.2,0.3,25.6,1.8,34.7c2.7,15.6,1.2,18.3-10.4,18.3
		c-5.8,0-5.4,1.1-7.1-19.8c-1.5-18.3-0.6-82.5,1.5-108.6c0.9-10.5,1.3-19.2,1.1-19.5c-1.3-1.2-2.5,2.2-4.9,12.9
		c-5.4,24.6-9.2,44.9-17.7,93.8c-2.8,16.2-5.6,31.3-6.3,33.5c-1.2,4.2-3.8,5.9-5.8,3.9c-0.6-0.6-0.9-13.4-0.9-34.4
		c0.1-18.4-0.3-38.4-0.8-44.4c-0.6-6-1.5-18.8-2.1-28.4c-0.9-15.8-3.2-37.9-4.5-43.7c-0.3-1.3-1-2.3-1.5-2.3c-0.6,0-1,5.6-1,14.3
		c0,18.2-1.5,48.5-4.1,84.7c-2.8,38.3-4.2,50.1-6.6,54.2c-1.7,3-2.4,3.3-6.9,3.6C411.6,287.9,410,287.6,408.9,286.3z"/>
	<path class="st0" d="M562.4,285.9c-2.9-1.1-3.3-3.5-3.3-16.7c0-6.2-0.2-11.7-0.5-12.2c-0.4-0.5-1.1-8.9-1.6-18.6
		c-0.6-9.7-1.5-18.6-2-19.6c-1.9-3.4-4.7-4.1-13.1-3.4c-4.3,0.4-8.5,1.2-9.3,1.8c-1,0.9-2.3,8-4.5,24.7c-1.7,12.9-3.1,25.5-3.2,28
		c-0.2,6.8-1.2,9.3-4.8,11.7c-3.7,2.5-4.9,2.7-7,1.4c-1.1-0.7-1.4-3.3-1.3-11.3c0.3-15.1,4-49.6,6.6-61.6
		c2.3-10.5,6.6-38.3,6.7-42.7c0-2.2,0.6-7.6,1.4-12c0.9-4.4,2-12.7,2.5-18.5s1.4-13.6,2-17.5c0.5-3.8,1.5-14,2.1-22.5
		c0.6-8.5,1.6-16.3,2-17.2c2.5-4.6,9.7-2.6,12.4,3.5c2.8,6.5,6.6,20.4,8.1,29.7c0.9,5.2,3.1,18.5,5,29.5c4.7,27.7,9.1,70.4,9.9,96
		c0.2,7.7,1.1,20.2,2,27.7c0.8,7.5,1.2,14.4,0.9,15.3c-0.5,1.3-7.5,5.7-8.6,5.4C564.6,286.8,563.5,286.4,562.4,285.9z M552.4,204
		c2.1-1.7,2.1-7.1,0-22.6c-0.8-6.6-1.9-16.3-2.4-21.5c-1.5-16.3-4.2-26.1-6.6-23.7c-0.3,0.3-1.7,8.5-3,18.1
		c-1.2,9.6-2.8,20.1-3.3,23.3c-0.6,3.2-1.5,9.9-2,14.8c-0.8,7.5-0.7,9.4,0.6,11.4c1.4,2.1,2,2.3,8.3,1.9
		C547.7,205.5,551.5,204.7,552.4,204z"/>
	<path class="st0" d="M359.9,282.4c-1.5-0.8-3-2.2-3.3-3.2c-0.4-0.9-0.6-12.1-0.5-24.8c0.1-12.6,0.1-48.9-0.1-80.5
		c-0.1-54-0.8-71.2-2.9-73.3c-0.4-0.4-3.5-1.2-6.9-1.7c-8.3-1.1-10.2-2.3-10.2-6.4c0-5.5,3-7.3,14.6-8.7c7.6-0.9,13.8-1,25.4-0.2
		c14.1,0.9,15.5,1.2,17.2,3.3c2.1,2.6,2.3,5.9,0.5,8.4c-1.1,1.5-3.2,2-9.1,2.4c-6.2,0.4-7.9,0.8-8.7,2.4c-0.6,1-0.8,2.6-0.5,3.6
		c0.5,1.6,2,97.2,1.8,113.2c-0.1,4.1-0.3,18.5-0.4,32c-0.4,27.3-0.7,28.9-7.1,32.9C365.7,284.2,363.5,284.4,359.9,282.4z"/>
	<path class="st0" d="M245.6,281.6c-1.9-1.4-1.9-2.7-1.3-34.8c0.4-18.4,1.2-39.5,1.7-46.9c0.5-7.4,1.5-23.4,2-35.5
		c1.8-38.8,3.9-74.9,4.6-79.8c0.5-3.5,1.3-5.3,3-6.4c3-1.9,8.7-1,11.6,1.9c2.3,2.3,2.3,3.8-0.9,55.5c-0.9,15-1.4,27.6-0.9,28
		c0.8,0.8,27.7,2.1,30.8,1.5c0.9-0.2,1.9-1.4,2.2-2.5c0.3-1.2,1.1-20.4,1.6-42.7c0.6-22.3,1.3-41.1,1.5-41.8c0.8-2.1,5-3.2,8.9-2.1
		c6.7,1.8,6.8,2.4,6.8,35.1c0,16.5-0.5,31.9-1.1,35.3c-0.5,3.3-1.3,18.4-1.6,33.5c-0.3,15.1-1.2,34-2,42c-0.8,8-1.9,23.7-2.6,35
		c-1.4,24.5-1.6,25-9.3,25c-3.6,0-5.8-0.5-6.6-1.5c-1.8-2.1-1.4-30.6,0.5-44.4c1.2-8.5,3.7-47.1,3.6-55.5c0-3.4-2-4.1-13.8-4.5
		c-13.4-0.4-19,0.8-19.7,4.2c-0.3,1.2-1,11.2-1.6,22.2s-1.5,26.1-2,33.5c-0.5,7.4-0.9,20.3-1,28.6c0,12.4-0.3,15.4-1.5,16.4
		C256.1,282.9,247.9,283.3,245.6,281.6z"/>
	<path class="st0" d="M114.6,273.7c-1.4-1.9-1.6-6.4-1.6-29.3c0.1-14.8,0.5-34.2,1-43c1.1-19,3.1-62.3,3.2-68
		c0-2.2-0.3-12.3-0.7-22.5c-0.5-14.3-0.3-19.5,0.7-23l1.4-4.5l5.3-0.3c3-0.2,5.9,0.2,6.7,0.9c2.8,2.3,1,93.7-2.7,136.2
		c-0.8,9.5-0.8,17.6,0,30.5c1.3,19.5,0.8,23.3-3,24.3C119.8,276.4,116.2,276,114.6,273.7z"/>
	<path class="st0" d="M183.5,272c-11.6-6.7-18.3-18.4-23.7-41.6c-3-12.7-3.5-53-1.4-99.4c1.4-29.4,1.9-34.9,3.4-37.5
		c5.2-8.9,31.7-11.5,46.5-4.6c8.2,3.9,12.2,15.3,12.1,34.3c0,9.8-0.3,12.1-1.8,13.5c-1.6,1.6-1.8,1.6-3.6-0.5c-1-1.3-2.4-5.6-3-9.5
		c-4.5-26.7-8.9-35.8-17.6-35.8c-5.7,0-12.6,6.1-14.3,12.8c-1.1,4.2-2.8,38.9-3.7,78.2c-1,38.7,2.1,65.7,8.3,73.1
		c4.3,5.1,10.7,7.2,15.8,5.3c3-1.2,8.7-16.8,11-30.4c1-5.6,1.1-11.6,0.5-24c-1.1-21.1-2-23.4-9.9-25.6c-3.1-0.9-6.4-2.3-7.3-3.2
		c-2.2-1.9-2.3-5.1-0.3-5.8c3.8-1.5,27.9,4.6,28.9,7.2c0.3,0.9,0.1,4.6-0.5,8.2c-0.7,4.1-1,11.6-0.6,19.7
		c1.5,32.8-4.9,56.6-17.3,64.9C198.4,275.8,190.3,276.1,183.5,272z"/>
	<path class="st0" d="M321.4,60.7c-0.5-0.7-1.1-6.2-1.5-12.3c-0.4-6-1.3-18-1.9-26.5c-0.7-8.5-1.3-16.6-1.4-17.9
		c-0.1-3,2.7-5,5.2-3.5c1.3,0.8,1.9,3.2,2.5,10c0.5,4.9,1.6,16.8,2.5,26.4l1.7,17.5l5.2,0.3c3.3,0.2,5.3,0.8,5.7,1.7
		c1.1,3-0.5,4.2-6.6,4.9C324.2,62.2,322.2,62.1,321.4,60.7z"/>
	<path class="st0" d="M414.8,60.8c-1.6-0.9-1.8-2.9-1.7-19.2c0-28.7,1-33.6,6.3-33.7c1.7,0,1.8,1.1,1.6,22.8
		c-0.2,12.5-0.2,23.3-0.1,24c0,0.7,1.7,1.2,4.5,1.2c5.2,0,8.4,2.3,6.5,4.6C430.5,62.2,417.5,62.4,414.8,60.8z"/>
	<path class="st0" d="M440,60.9l-3.5-0.5l0.4-24.5c0.2-13.6,0.8-25.3,1.3-26.4c0.9-1.6,1.8-1.8,7.1-1.2c6.2,0.6,8.7,1.8,8.7,4.2
		c0,1.9-3.6,3.5-6.3,2.9c-2.2-0.6-2.5-0.3-3.1,4.1c-1,7.8-0.9,8.2,2.5,8.6c6.3,0.6,6.1,6.8-0.2,6.8c-2.7,0-2.9,0.3-2.9,3.9
		c0,2.1-0.3,6.6-0.6,9.9c-0.7,6.7-0.9,6.5,5.9,7.7c2.7,0.4,3.7,1.1,3.7,2.4c0,1.6-0.9,2-4.7,2.3C445.6,61.2,441.9,61.2,440,60.9z"/>
	<path class="st0" d="M350.1,59c-1.6-1.6-2-4.1-2.5-16.7c-1.4-31.7-1.3-33.9,1-34.2c4.5-0.6,5.2,1.9,6.5,24.9
		c0.7,11.8,0.9,22.7,0.6,24.1C354.8,60.5,352.4,61.3,350.1,59z"/>
	<path class="st0" d="M373.4,59.7c-0.4-0.6-1.1-8.9-1.5-18.2c-0.5-9.4-1.1-19.4-1.4-22.2c-0.6-4.9-0.8-5.2-4.6-6.7
		c-3-1.2-4-2.1-3.7-3.4c0.3-1.6,1.4-1.8,10.3-1.6c10.3,0.3,13.2,1.4,11.9,4.6c-0.6,1.7-2.1,2.1-5.8,1.7c-1.7-0.1-1.8,0.4-1.2,6.7
		c1.8,20.3,2.8,37.5,2.2,38.8C379,61.2,374.4,61.4,373.4,59.7z"/>
	<path class="st0" d="M398.2,59.2c-0.5-1-1.2-8.9-1.6-17.5c-0.3-8.7-0.9-18.4-1.2-21.6c-0.6-5.5-0.8-5.9-3.8-6.8
		c-3.5-1-4.6-3.8-1.9-5.2c1-0.5,5.6-0.6,10.3-0.3c7.8,0.5,8.5,0.8,8.8,2.8c0.4,2.5-2.7,4.6-5.3,3.6c-1.9-0.7-1.8,1.6,0.7,31
		c0.8,9.9,0.8,13-0.2,14.2C402.3,61.4,399.3,61.3,398.2,59.2z"/>
</g>
</svg>
