<?xml version="1.0" encoding="utf-8"?>
<!-- Generator: Adobe Illustrator 28.3.0, SVG Export Plug-In . SVG Version: 6.00 Build 0)  -->
<svg version="1.1" id="레이어_1" xmlns="http://www.w3.org/2000/svg" xmlns:xlink="http://www.w3.org/1999/xlink" x="0px"
	 y="0px" viewBox="0 0 176 40" style="enable-background:new 0 0 176 40;" xml:space="preserve">
<style type="text/css">
	.st0{fill:#F2F2F2;}
	.st1{fill:#FFBD3F;}
	.st2{fill:#FFFFFF;}
</style>
<path d="M37,19.5C37,29.1,29.1,37,19.5,37S2,29.1,2,19.5C2,9.8,9.8,2,19.5,2C29.1,2,37,9.8,37,19.5"/>
<path class="st0" d="M17.2,32.9l3.4-3.4L14.1,23c-0.3-0.3-0.6-0.6-0.7-1c-0.4-0.8-0.5-2,0.4-2.9c1.1-1.1,2.6-0.6,4,0.8l6.3,6.3
	l3.4-3.4l-6.6-6.6c-0.3-0.3-0.6-0.7-0.8-1c-0.4-0.9-0.4-2,0.4-2.8c1.1-1.1,2.6-0.7,4.2,0.9l6.1,6.1l3.4-3.4l-6.6-6.6
	c-3.4-3.4-6.5-3.2-8.7-1.1c-0.8,0.8-1.3,1.7-1.6,2.7c-0.2,0.9-0.3,1.9-0.1,2.8l0,0c-1.7-0.7-3.5-0.3-5,1.2c-1.9,1.9-1.9,4-1.6,5.2
	l-0.1,0.1l-1.7-1.4l-2.9,2.9c1,0.9,2.3,2.1,3.7,3.5C9.5,25.3,17.2,32.9,17.2,32.9z"/>
<path class="st1" d="M20,0C8.9,0,0,9,0,20s9,20,20,20c11,0,20-9,20-20v0C40,8.9,31,0,20,0z M19.9,4.3c8.6,0,15.7,7,15.7,15.6v0
	c0,8.7-7,15.7-15.7,15.7s-15.7-7-15.7-15.7C4.2,11.3,11.2,4.3,19.9,4.3L19.9,4.3z"/>
<path class="st2" d="M46.5,27.9h4.6v-8.8c0-0.4,0-0.8,0.2-1.2c0.3-0.8,1-1.7,2.2-1.7c1.5,0,2.2,1.3,2.2,3.2v8.5h4.6v-8.9
	c0-0.4,0.1-0.9,0.2-1.2c0.3-0.9,1.1-1.6,2.2-1.6c1.5,0,2.2,1.3,2.2,3.5v8.3h4.6V19c0-4.5-2.2-6.6-5.1-6.6c-1.1,0-2,0.2-2.9,0.7
	c-0.8,0.5-1.4,1.1-2,1.8h-0.1c-0.7-1.6-2.2-2.6-4.2-2.6c-2.6,0-3.9,1.4-4.6,2.4h-0.1l-0.2-2h-4c0.1,1.3,0.1,2.9,0.1,4.8L46.5,27.9
	L46.5,27.9z M85.8,21.9c0.1-0.3,0.2-1.1,0.2-1.9c0-3.8-1.9-7.6-6.8-7.6c-5.3,0-7.7,4.2-7.7,8.1c0,4.7,2.9,7.8,8.1,7.8
	c2,0,3.9-0.3,5.5-1l-0.6-3.2c-1.3,0.4-2.6,0.6-4.2,0.6c-2.2,0-4.1-0.9-4.3-2.9C76,21.9,85.8,21.9,85.8,21.9z M76,18.6
	c0.1-1.3,0.9-3.1,2.9-3.1c2.2,0,2.7,1.9,2.7,3.1L76,18.6L76,18.6z M88.6,9.5v3.3h-2v3.5h2v6.2c0,2.1,0.4,3.6,1.3,4.5
	c0.7,0.8,2,1.3,3.5,1.3c1.3,0,2.5-0.2,3.1-0.4l0-3.6c-0.5,0.1-0.9,0.1-1.4,0.1c-1.4,0-1.9-0.8-1.9-2.7v-5.5h3.4v-3.5h-3.4V8.4
	C93.2,8.4,88.6,9.5,88.6,9.5z M111.2,19c0-3.6-1.6-6.5-6.7-6.5c-2.8,0-4.8,0.7-5.9,1.3l0.9,3c1-0.6,2.6-1.1,4.2-1.1
	c2.3,0,2.8,1.1,2.8,2v0.2c-5.4,0-8.9,1.9-8.9,5.8c0,2.4,1.8,4.7,4.9,4.7c1.8,0,3.3-0.7,4.3-1.9h0.1l0.3,1.5h4.2
	c-0.2-0.8-0.2-2.2-0.2-3.7L111.2,19L111.2,19z M106.6,22.4c0,0.3,0,0.6-0.1,0.8c-0.3,1-1.3,1.7-2.5,1.7c-1.1,0-1.9-0.6-1.9-1.8
	c0-1.8,1.9-2.4,4.4-2.4V22.4z M125,24.1c-0.7,0.3-1.6,0.5-2.7,0.5c-2.3,0-4.2-1.5-4.2-4.2c0-2.5,1.6-4.2,4.1-4.2
	c1.2,0,2.1,0.2,2.6,0.5l0.7-3.5c-1-0.4-2.4-0.6-3.6-0.6c-5.6,0-8.7,3.6-8.7,8.1c0,4.8,3.1,7.8,8,7.8c1.8,0,3.4-0.3,4.2-0.7L125,24.1
	L125,24.1z M127.4,27.9h4.7v-7.7c0-0.4,0-0.7,0.1-1.1c0.3-1.5,1.5-2.4,3.2-2.4c0.5,0,0.9,0.1,1.3,0.2v-4.5c-0.3-0.1-0.6-0.1-1-0.1
	c-1.5,0-3.3,0.9-4.1,3.1h-0.1l-0.2-2.8h-4.1c0.1,1.3,0.1,2.8,0.1,5L127.4,27.9L127.4,27.9z M143,27.9V12.8h-4.7v15.2H143z
	 M140.7,6.2c-1.5,0-2.5,1-2.5,2.4c0,1.3,1,2.4,2.5,2.4c1.6,0,2.5-1.1,2.5-2.4C143.2,7.2,142.2,6.2,140.7,6.2L140.7,6.2z M146.7,9.5
	v3.3h-2v3.5h2v6.2c0,2.1,0.4,3.6,1.3,4.5c0.7,0.8,2,1.3,3.5,1.3c1.3,0,2.5-0.2,3.1-0.4l0-3.6c-0.5,0.1-0.9,0.1-1.4,0.1
	c-1.4,0-1.9-0.8-1.9-2.7v-5.5h3.4v-3.5h-3.4V8.4C151.3,8.4,146.7,9.5,146.7,9.5z M161.3,27.9V12.8h-4.7v15.2H161.3L161.3,27.9z
	 M159,6.2c-1.5,0-2.5,1-2.5,2.4c0,1.3,1,2.4,2.5,2.4c1.6,0,2.5-1.1,2.5-2.4C161.4,7.2,160.5,6.2,159,6.2L159,6.2z M175.1,24.1
	c-0.7,0.3-1.6,0.5-2.7,0.5c-2.3,0-4.2-1.5-4.2-4.2c0-2.5,1.6-4.2,4.1-4.2c1.2,0,2.1,0.2,2.6,0.5l0.7-3.5c-1-0.4-2.4-0.6-3.6-0.6
	c-5.6,0-8.7,3.6-8.7,8.1c0,4.8,3.1,7.8,8,7.8c1.8,0,3.4-0.3,4.2-0.7L175.1,24.1L175.1,24.1z"/>
</svg>
