<?xml version="1.0" encoding="UTF-8"?>
<svg xmlns="http://www.w3.org/2000/svg" xmlns:xlink="http://www.w3.org/1999/xlink" width="469px" height="100px" viewBox="0 0 468 100" version="1.1">
<g id="surface1">
<path style=" stroke:none;fill-rule:nonzero;fill:rgb(100%,100%,100%);fill-opacity:1;" d="M 165.222656 57.597656 L 162.433594 65.503906 L 162.199219 65.503906 C 161.734375 63.722656 160.882812 61.007812 159.488281 57.75 L 144.53125 20.15625 L 129.882812 20.15625 L 129.882812 80.078125 L 139.570312 80.078125 L 139.570312 43.101562 C 139.570312 40.773438 139.570312 38.140625 139.492188 34.882812 C 139.414062 33.253906 139.261719 32.015625 139.183594 31.085938 L 139.414062 31.085938 C 139.878906 33.410156 140.421875 35.117188 140.8125 36.203125 L 158.789062 79.921875 L 165.609375 79.921875 L 183.433594 35.8125 C 183.820312 34.804688 184.207031 32.789062 184.597656 31.085938 L 184.828125 31.085938 C 184.597656 35.503906 184.441406 39.457031 184.363281 41.859375 L 184.363281 79.84375 L 194.671875 79.84375 L 194.671875 20 L 180.566406 20 Z M 204.433594 36.898438 L 214.507812 36.898438 L 214.507812 79.84375 L 204.433594 79.84375 Z M 209.550781 18.757812 C 207.84375 18.757812 206.449219 19.378906 205.289062 20.464844 C 204.125 21.550781 203.503906 22.945312 203.503906 24.652344 C 203.503906 26.277344 204.125 27.675781 205.289062 28.757812 C 206.449219 29.84375 207.84375 30.386719 209.550781 30.386719 C 211.253906 30.386719 212.726562 29.765625 213.8125 28.757812 C 214.976562 27.675781 215.59375 26.277344 215.59375 24.652344 C 215.59375 23.023438 214.976562 21.628906 213.8125 20.464844 C 212.804688 19.378906 211.332031 18.757812 209.550781 18.757812 M 250.234375 36.511719 C 248.375 36.125 246.4375 35.890625 244.578125 35.890625 C 240.007812 35.890625 235.820312 36.898438 232.332031 38.914062 C 228.847656 40.929688 226.058594 43.722656 224.273438 47.210938 C 222.414062 50.773438 221.484375 54.882812 221.484375 59.613281 C 221.484375 63.722656 222.414062 67.363281 224.195312 70.699219 C 225.980469 73.953125 228.460938 76.589844 231.792969 78.371094 C 234.96875 80.15625 238.6875 81.085938 242.875 81.085938 C 247.679688 81.085938 251.785156 80.078125 255.039062 78.21875 L 255.117188 78.140625 L 255.117188 68.835938 L 254.730469 69.148438 C 253.257812 70.234375 251.554688 71.164062 249.847656 71.707031 C 248.066406 72.324219 246.4375 72.636719 245.042969 72.636719 C 241.011719 72.636719 237.835938 71.472656 235.589844 68.914062 C 233.265625 66.433594 232.101562 63.023438 232.101562 58.757812 C 232.101562 54.339844 233.265625 50.851562 235.667969 48.292969 C 238.070312 45.738281 241.246094 44.417969 245.121094 44.417969 C 248.375 44.417969 251.707031 45.503906 254.730469 47.675781 L 255.117188 47.984375 L 255.117188 38.140625 L 255.039062 38.0625 C 253.722656 37.519531 252.25 36.898438 250.234375 36.511719 M 283.480469 36.203125 C 281 36.203125 278.675781 36.976562 276.660156 38.605469 C 274.957031 40 273.792969 42.015625 272.785156 44.417969 L 272.710938 44.417969 L 272.710938 36.898438 L 262.636719 36.898438 L 262.636719 79.84375 L 272.710938 79.84375 L 272.710938 57.90625 C 272.710938 54.1875 273.484375 51.085938 275.1875 48.835938 C 276.894531 46.511719 279.0625 45.347656 281.699219 45.347656 C 282.628906 45.347656 283.558594 45.582031 284.722656 45.738281 C 285.804688 46.046875 286.582031 46.355469 287.125 46.746094 L 287.511719 47.054688 L 287.511719 36.976562 L 287.277344 36.898438 C 286.582031 36.433594 285.1875 36.203125 283.480469 36.203125 M 310.914062 35.96875 C 303.863281 35.96875 298.207031 38.0625 294.253906 42.171875 C 290.222656 46.277344 288.285156 51.9375 288.285156 59.070312 C 288.285156 65.738281 290.300781 71.164062 294.175781 75.117188 C 298.050781 78.992188 303.320312 81.007812 309.90625 81.007812 C 316.804688 81.007812 322.308594 78.914062 326.257812 74.730469 C 330.289062 70.542969 332.226562 64.960938 332.226562 58.0625 C 332.226562 51.242188 330.367188 45.8125 326.570312 41.859375 C 322.925781 37.90625 317.578125 35.96875 310.914062 35.96875 M 318.976562 68.992188 C 317.113281 71.394531 314.167969 72.558594 310.527344 72.558594 C 306.886719 72.558594 303.941406 71.394531 301.847656 68.835938 C 299.753906 66.433594 298.75 62.945312 298.75 58.527344 C 298.75 53.953125 299.832031 50.464844 301.847656 47.984375 C 303.941406 45.503906 306.808594 44.261719 310.449219 44.261719 C 314.015625 44.261719 316.804688 45.425781 318.820312 47.828125 C 320.835938 50.234375 321.917969 53.722656 321.917969 58.292969 C 321.765625 62.945312 320.910156 66.589844 318.976562 68.992188 M 354.699219 54.730469 C 351.523438 53.410156 349.507812 52.402344 348.578125 51.550781 C 347.804688 50.773438 347.414062 49.691406 347.414062 48.292969 C 347.414062 47.132812 347.878906 45.96875 349.042969 45.195312 C 350.207031 44.417969 351.523438 44.03125 353.460938 44.03125 C 355.164062 44.03125 356.949219 44.339844 358.652344 44.804688 C 360.359375 45.269531 361.90625 45.96875 363.148438 46.898438 L 363.535156 47.210938 L 363.535156 37.75 L 363.300781 37.675781 C 362.140625 37.210938 360.589844 36.746094 358.730469 36.355469 C 356.871094 36.046875 355.164062 35.890625 353.769531 35.890625 C 348.964844 35.890625 345.011719 37.054688 341.914062 39.613281 C 338.8125 42.015625 337.339844 45.269531 337.339844 49.070312 C 337.339844 51.085938 337.652344 52.867188 338.347656 54.339844 C 339.046875 55.8125 340.054688 57.210938 341.449219 58.371094 C 342.84375 59.457031 344.859375 60.699219 347.648438 61.859375 C 349.972656 62.867188 351.753906 63.644531 352.839844 64.261719 C 353.925781 64.882812 354.621094 65.582031 355.164062 66.125 C 355.554688 66.746094 355.785156 67.519531 355.785156 68.527344 C 355.785156 71.394531 353.617188 72.789062 349.199219 72.789062 C 347.492188 72.789062 345.710938 72.480469 343.617188 71.78125 C 341.527344 71.085938 339.589844 70.078125 337.960938 68.914062 L 337.574219 68.605469 L 337.574219 78.449219 L 337.804688 78.527344 C 339.277344 79.226562 341.0625 79.691406 343.230469 80.234375 C 345.402344 80.621094 347.339844 80.929688 349.042969 80.929688 C 354.234375 80.929688 358.496094 79.765625 361.519531 77.210938 C 364.621094 74.730469 366.246094 71.550781 366.246094 67.441406 C 366.246094 64.574219 365.472656 62.015625 363.765625 60.078125 C 361.519531 58.21875 358.730469 56.277344 354.699219 54.730469 M 392.828125 35.96875 C 385.777344 35.96875 380.121094 38.0625 376.167969 42.171875 C 372.214844 46.277344 370.199219 51.9375 370.199219 59.070312 C 370.199219 65.738281 372.214844 71.164062 376.089844 75.117188 C 379.964844 78.992188 385.234375 81.007812 391.820312 81.007812 C 398.71875 81.007812 404.21875 78.914062 408.171875 74.730469 C 412.203125 70.542969 414.140625 64.960938 414.140625 58.0625 C 414.140625 51.242188 412.28125 45.8125 408.484375 41.859375 C 404.839844 37.90625 399.492188 35.96875 392.828125 35.96875 M 400.8125 68.992188 C 398.949219 71.394531 396.007812 72.558594 392.363281 72.558594 C 388.644531 72.558594 385.777344 71.394531 383.683594 68.835938 C 381.589844 66.433594 380.585938 62.945312 380.585938 58.527344 C 380.585938 53.953125 381.667969 50.464844 383.683594 47.984375 C 385.777344 45.503906 388.644531 44.261719 392.285156 44.261719 C 395.773438 44.261719 398.640625 45.425781 400.65625 47.828125 C 402.671875 50.234375 403.753906 53.722656 403.753906 58.292969 C 403.753906 62.945312 402.75 66.589844 400.8125 68.992188 M 468 45.195312 L 468 36.898438 L 457.847656 36.898438 L 457.847656 24.1875 L 457.539062 24.261719 L 447.929688 27.132812 L 447.695312 27.210938 L 447.695312 36.898438 L 432.507812 36.898438 L 432.507812 31.472656 C 432.507812 28.992188 433.125 27.054688 434.210938 25.8125 C 435.296875 24.574219 436.925781 23.953125 438.9375 23.953125 C 440.332031 23.953125 441.804688 24.261719 443.433594 24.960938 L 443.820312 25.195312 L 443.820312 16.433594 L 443.589844 16.355469 C 442.195312 15.890625 440.332031 15.582031 437.929688 15.582031 C 434.910156 15.582031 432.273438 16.277344 429.871094 17.441406 C 427.46875 18.757812 425.6875 20.542969 424.371094 22.945312 C 423.050781 25.269531 422.355469 27.90625 422.355469 30.929688 L 422.355469 36.898438 L 415.300781 36.898438 L 415.300781 45.117188 L 422.355469 45.117188 L 422.355469 79.84375 L 432.507812 79.84375 L 432.507812 45.195312 L 447.695312 45.195312 L 447.695312 67.285156 C 447.695312 76.355469 451.957031 80.929688 460.484375 80.929688 C 461.878906 80.929688 463.351562 80.699219 464.746094 80.464844 C 466.21875 80.15625 467.300781 79.765625 467.921875 79.457031 L 468 79.378906 L 468 71.085938 L 467.613281 71.394531 C 466.992188 71.78125 466.449219 72.09375 465.519531 72.324219 C 464.746094 72.558594 464.046875 72.636719 463.503906 72.636719 C 461.492188 72.636719 460.09375 72.171875 459.085938 71.007812 C 458.15625 69.921875 457.691406 68.140625 457.691406 65.503906 L 457.691406 45.195312 Z M 468 45.195312 "/>
<path style=" stroke:none;fill-rule:nonzero;fill:rgb(94.901961%,31.372549%,13.333333%);fill-opacity:1;" d="M 0 0 L 47.503906 0 L 47.503906 47.519531 L 0 47.519531 Z M 0 0 "/>
<path style=" stroke:none;fill-rule:nonzero;fill:rgb(49.803922%,72.941176%,0%);fill-opacity:1;" d="M 52.464844 0 L 99.96875 0 L 99.96875 47.519531 L 52.464844 47.519531 Z M 52.464844 0 "/>
<path style=" stroke:none;fill-rule:nonzero;fill:rgb(0%,64.313725%,93.72549%);fill-opacity:1;" d="M 0 52.480469 L 47.503906 52.480469 L 47.503906 100 L 0 100 Z M 0 52.480469 "/>
<path style=" stroke:none;fill-rule:nonzero;fill:rgb(100%,72.54902%,0%);fill-opacity:1;" d="M 52.464844 52.480469 L 99.96875 52.480469 L 99.96875 100 L 52.464844 100 Z M 52.464844 52.480469 "/>
</g>
</svg>
