<svg width="3347" height="706" xmlns="http://www.w3.org/2000/svg" xmlns:xlink="http://www.w3.org/1999/xlink" xml:space="preserve" overflow="hidden"><defs><clipPath id="clip0"><rect x="528" y="886" width="3347" height="706"/></clipPath><linearGradient x1="2201.5" y1="915" x2="2201.5" y2="1308" gradientUnits="userSpaceOnUse" spreadMethod="reflect" id="fill1"><stop offset="0" stop-color="#D0C5C0"/><stop offset="0.99" stop-color="#ABA09C"/><stop offset="1" stop-color="#ABA09C"/></linearGradient><linearGradient x1="2110" y1="1177" x2="2110" y2="1184" gradientUnits="userSpaceOnUse" spreadMethod="reflect" id="fill2"><stop offset="0" stop-color="#EDE5E2"/><stop offset="0.5" stop-color="#DED5D1"/><stop offset="1" stop-color="#D0C5C0"/></linearGradient><linearGradient x1="1367" y1="1177" x2="1367" y2="1184" gradientUnits="userSpaceOnUse" spreadMethod="reflect" id="fill3"><stop offset="0" stop-color="#EDE5E2"/><stop offset="0.5" stop-color="#DED5D1"/><stop offset="1" stop-color="#D0C5C0"/></linearGradient><linearGradient x1="1552.5" y1="1177" x2="1552.5" y2="1184" gradientUnits="userSpaceOnUse" spreadMethod="reflect" id="fill4"><stop offset="0" stop-color="#EDE5E2"/><stop offset="0.5" stop-color="#DED5D1"/><stop offset="1" stop-color="#D0C5C0"/></linearGradient><linearGradient x1="3735.5" y1="1177" x2="3735.5" y2="1184" gradientUnits="userSpaceOnUse" spreadMethod="reflect" id="fill5"><stop offset="0" stop-color="#EDE5E2"/><stop offset="0.5" stop-color="#DED5D1"/><stop offset="1" stop-color="#D0C5C0"/></linearGradient><linearGradient x1="633" y1="1301" x2="633" y2="1308" gradientUnits="userSpaceOnUse" spreadMethod="reflect" id="fill6"><stop offset="0" stop-color="#EDE5E2"/><stop offset="0.5" stop-color="#DED5D1"/><stop offset="1" stop-color="#D0C5C0"/></linearGradient><linearGradient x1="681" y1="1245" x2="681" y2="1252" gradientUnits="userSpaceOnUse" spreadMethod="reflect" id="fill7"><stop offset="0" stop-color="#EDE5E2"/><stop offset="0.5" stop-color="#DED5D1"/><stop offset="1" stop-color="#D0C5C0"/></linearGradient><linearGradient x1="693" y1="1204" x2="693" y2="1211" gradientUnits="userSpaceOnUse" spreadMethod="reflect" id="fill8"><stop offset="0" stop-color="#EDE5E2"/><stop offset="0.5" stop-color="#DED5D1"/><stop offset="1" stop-color="#D0C5C0"/></linearGradient><linearGradient x1="822" y1="1217" x2="822" y2="1224" gradientUnits="userSpaceOnUse" spreadMethod="reflect" id="fill9"><stop offset="0" stop-color="#EDE5E2"/><stop offset="0.5" stop-color="#DED5D1"/><stop offset="1" stop-color="#D0C5C0"/></linearGradient><linearGradient x1="966" y1="1301" x2="966" y2="1308" gradientUnits="userSpaceOnUse" spreadMethod="reflect" id="fill10"><stop offset="0" stop-color="#EDE5E2"/><stop offset="0.5" stop-color="#DED5D1"/><stop offset="1" stop-color="#D0C5C0"/></linearGradient><linearGradient x1="1157.5" y1="1217" x2="1157.5" y2="1224" gradientUnits="userSpaceOnUse" spreadMethod="reflect" id="fill11"><stop offset="0" stop-color="#EDE5E2"/><stop offset="0.5" stop-color="#DED5D1"/><stop offset="1" stop-color="#D0C5C0"/></linearGradient><linearGradient x1="1337.5" y1="1259" x2="1337.5" y2="1265" gradientUnits="userSpaceOnUse" spreadMethod="reflect" id="fill12"><stop offset="0" stop-color="#EDE5E2"/><stop offset="0.5" stop-color="#DED5D1"/><stop offset="1" stop-color="#D0C5C0"/></linearGradient><linearGradient x1="1743.5" y1="1204" x2="1743.5" y2="1211" gradientUnits="userSpaceOnUse" spreadMethod="reflect" id="fill13"><stop offset="0" stop-color="#EDE5E2"/><stop offset="0.5" stop-color="#DED5D1"/><stop offset="1" stop-color="#D0C5C0"/></linearGradient><linearGradient x1="1951.5" y1="1245" x2="1951.5" y2="1252" gradientUnits="userSpaceOnUse" spreadMethod="reflect" id="fill14"><stop offset="0" stop-color="#EDE5E2"/><stop offset="0.5" stop-color="#DED5D1"/><stop offset="1" stop-color="#D0C5C0"/></linearGradient><linearGradient x1="2568.5" y1="1204" x2="2568.5" y2="1211" gradientUnits="userSpaceOnUse" spreadMethod="reflect" id="fill15"><stop offset="0" stop-color="#EDE5E2"/><stop offset="0.5" stop-color="#DED5D1"/><stop offset="1" stop-color="#D0C5C0"/></linearGradient><linearGradient x1="2669.5" y1="1204" x2="2669.5" y2="1211" gradientUnits="userSpaceOnUse" spreadMethod="reflect" id="fill16"><stop offset="0" stop-color="#EDE5E2"/><stop offset="0.5" stop-color="#DED5D1"/><stop offset="1" stop-color="#D0C5C0"/></linearGradient><linearGradient x1="2925.5" y1="1259" x2="2925.5" y2="1265" gradientUnits="userSpaceOnUse" spreadMethod="reflect" id="fill17"><stop offset="0" stop-color="#EDE5E2"/><stop offset="0.5" stop-color="#DED5D1"/><stop offset="1" stop-color="#D0C5C0"/></linearGradient><linearGradient x1="3092" y1="1217" x2="3092" y2="1224" gradientUnits="userSpaceOnUse" spreadMethod="reflect" id="fill18"><stop offset="0" stop-color="#EDE5E2"/><stop offset="0.5" stop-color="#DED5D1"/><stop offset="1" stop-color="#D0C5C0"/></linearGradient><linearGradient x1="2883" y1="1301" x2="2883" y2="1308" gradientUnits="userSpaceOnUse" spreadMethod="reflect" id="fill19"><stop offset="0" stop-color="#EDE5E2"/><stop offset="0.5" stop-color="#DED5D1"/><stop offset="1" stop-color="#D0C5C0"/></linearGradient><linearGradient x1="2962.5" y1="1301" x2="2962.5" y2="1308" gradientUnits="userSpaceOnUse" spreadMethod="reflect" id="fill20"><stop offset="0" stop-color="#EDE5E2"/><stop offset="0.5" stop-color="#DED5D1"/><stop offset="1" stop-color="#D0C5C0"/></linearGradient><linearGradient x1="3105" y1="1301" x2="3105" y2="1308" gradientUnits="userSpaceOnUse" spreadMethod="reflect" id="fill21"><stop offset="0" stop-color="#EDE5E2"/><stop offset="0.5" stop-color="#DED5D1"/><stop offset="1" stop-color="#D0C5C0"/></linearGradient><linearGradient x1="3295" y1="1301" x2="3295" y2="1308" gradientUnits="userSpaceOnUse" spreadMethod="reflect" id="fill22"><stop offset="0" stop-color="#EDE5E2"/><stop offset="0.5" stop-color="#DED5D1"/><stop offset="1" stop-color="#D0C5C0"/></linearGradient><linearGradient x1="3770.5" y1="1301" x2="3770.5" y2="1308" gradientUnits="userSpaceOnUse" spreadMethod="reflect" id="fill23"><stop offset="0" stop-color="#EDE5E2"/><stop offset="0.5" stop-color="#DED5D1"/><stop offset="1" stop-color="#D0C5C0"/></linearGradient><linearGradient x1="2502.5" y1="1301" x2="2502.5" y2="1308" gradientUnits="userSpaceOnUse" spreadMethod="reflect" id="fill24"><stop offset="0" stop-color="#EDE5E2"/><stop offset="0.5" stop-color="#DED5D1"/><stop offset="1" stop-color="#D0C5C0"/></linearGradient><linearGradient x1="2582" y1="1301" x2="2582" y2="1308" gradientUnits="userSpaceOnUse" spreadMethod="reflect" id="fill25"><stop offset="0" stop-color="#EDE5E2"/><stop offset="0.5" stop-color="#DED5D1"/><stop offset="1" stop-color="#D0C5C0"/></linearGradient><linearGradient x1="2154" y1="1301" x2="2154" y2="1308" gradientUnits="userSpaceOnUse" spreadMethod="reflect" id="fill26"><stop offset="0" stop-color="#EDE5E2"/><stop offset="0.5" stop-color="#DED5D1"/><stop offset="1" stop-color="#D0C5C0"/></linearGradient><linearGradient x1="2328.5" y1="1301" x2="2328.5" y2="1308" gradientUnits="userSpaceOnUse" spreadMethod="reflect" id="fill27"><stop offset="0" stop-color="#EDE5E2"/><stop offset="0.5" stop-color="#DED5D1"/><stop offset="1" stop-color="#D0C5C0"/></linearGradient><linearGradient x1="2724.5" y1="1301" x2="2724.5" y2="1308" gradientUnits="userSpaceOnUse" spreadMethod="reflect" id="fill28"><stop offset="0" stop-color="#EDE5E2"/><stop offset="0.5" stop-color="#DED5D1"/><stop offset="1" stop-color="#D0C5C0"/></linearGradient><linearGradient x1="1726.5" y1="1301" x2="1726.5" y2="1308" gradientUnits="userSpaceOnUse" spreadMethod="reflect" id="fill29"><stop offset="0" stop-color="#EDE5E2"/><stop offset="0.5" stop-color="#DED5D1"/><stop offset="1" stop-color="#D0C5C0"/></linearGradient><linearGradient x1="1845.5" y1="1301" x2="1845.5" y2="1308" gradientUnits="userSpaceOnUse" spreadMethod="reflect" id="fill30"><stop offset="0" stop-color="#EDE5E2"/><stop offset="0.5" stop-color="#DED5D1"/><stop offset="1" stop-color="#D0C5C0"/></linearGradient><linearGradient x1="1988" y1="1301" x2="1988" y2="1308" gradientUnits="userSpaceOnUse" spreadMethod="reflect" id="fill31"><stop offset="0" stop-color="#EDE5E2"/><stop offset="0.5" stop-color="#DED5D1"/><stop offset="1" stop-color="#D0C5C0"/></linearGradient><linearGradient x1="1552" y1="1301" x2="1552" y2="1308" gradientUnits="userSpaceOnUse" spreadMethod="reflect" id="fill32"><stop offset="0" stop-color="#EDE5E2"/><stop offset="0.5" stop-color="#DED5D1"/><stop offset="1" stop-color="#D0C5C0"/></linearGradient><linearGradient x1="1631" y1="1301" x2="1631" y2="1308" gradientUnits="userSpaceOnUse" spreadMethod="reflect" id="fill33"><stop offset="0" stop-color="#EDE5E2"/><stop offset="0.5" stop-color="#DED5D1"/><stop offset="1" stop-color="#D0C5C0"/></linearGradient><linearGradient x1="1298.5" y1="1301" x2="1298.5" y2="1308" gradientUnits="userSpaceOnUse" spreadMethod="reflect" id="fill34"><stop offset="0" stop-color="#EDE5E2"/><stop offset="0.5" stop-color="#DED5D1"/><stop offset="1" stop-color="#D0C5C0"/></linearGradient><linearGradient x1="1378" y1="1301" x2="1378" y2="1308" gradientUnits="userSpaceOnUse" spreadMethod="reflect" id="fill35"><stop offset="0" stop-color="#EDE5E2"/><stop offset="0.5" stop-color="#DED5D1"/><stop offset="1" stop-color="#D0C5C0"/></linearGradient><linearGradient x1="1108.5" y1="1301" x2="1108.5" y2="1308" gradientUnits="userSpaceOnUse" spreadMethod="reflect" id="fill36"><stop offset="0" stop-color="#EDE5E2"/><stop offset="0.5" stop-color="#DED5D1"/><stop offset="1" stop-color="#D0C5C0"/></linearGradient><linearGradient x1="1188" y1="1301" x2="1188" y2="1308" gradientUnits="userSpaceOnUse" spreadMethod="reflect" id="fill37"><stop offset="0" stop-color="#EDE5E2"/><stop offset="0.5" stop-color="#DED5D1"/><stop offset="1" stop-color="#D0C5C0"/></linearGradient><linearGradient x1="2844" y1="1098" x2="2844" y2="1104" gradientUnits="userSpaceOnUse" spreadMethod="reflect" id="fill38"><stop offset="0" stop-color="#EDE5E2"/><stop offset="0.5" stop-color="#DED5D1"/><stop offset="1" stop-color="#D0C5C0"/></linearGradient><linearGradient x1="1471.5" y1="1098" x2="1471.5" y2="1104" gradientUnits="userSpaceOnUse" spreadMethod="reflect" id="fill39"><stop offset="0" stop-color="#EDE5E2"/><stop offset="0.5" stop-color="#DED5D1"/><stop offset="1" stop-color="#D0C5C0"/></linearGradient><linearGradient x1="731.5" y1="971" x2="731.5" y2="977" gradientUnits="userSpaceOnUse" spreadMethod="reflect" id="fill40"><stop offset="0" stop-color="#EDE5E2"/><stop offset="0.5" stop-color="#DED5D1"/><stop offset="1" stop-color="#D0C5C0"/></linearGradient><linearGradient x1="1006.5" y1="971" x2="1006.5" y2="977" gradientUnits="userSpaceOnUse" spreadMethod="reflect" id="fill41"><stop offset="0" stop-color="#EDE5E2"/><stop offset="0.5" stop-color="#DED5D1"/><stop offset="1" stop-color="#D0C5C0"/></linearGradient><linearGradient x1="1056.5" y1="1046" x2="1056.5" y2="1052" gradientUnits="userSpaceOnUse" spreadMethod="reflect" id="fill42"><stop offset="0" stop-color="#EDE5E2"/><stop offset="0.5" stop-color="#DED5D1"/><stop offset="1" stop-color="#D0C5C0"/></linearGradient><linearGradient x1="958" y1="1046" x2="958" y2="1052" gradientUnits="userSpaceOnUse" spreadMethod="reflect" id="fill43"><stop offset="0" stop-color="#EDE5E2"/><stop offset="0.5" stop-color="#DED5D1"/><stop offset="1" stop-color="#D0C5C0"/></linearGradient><linearGradient x1="1259.5" y1="971" x2="1259.5" y2="977" gradientUnits="userSpaceOnUse" spreadMethod="reflect" id="fill44"><stop offset="0" stop-color="#EDE5E2"/><stop offset="0.5" stop-color="#DED5D1"/><stop offset="1" stop-color="#D0C5C0"/></linearGradient><linearGradient x1="1446" y1="971" x2="1446" y2="977" gradientUnits="userSpaceOnUse" spreadMethod="reflect" id="fill45"><stop offset="0" stop-color="#EDE5E2"/><stop offset="0.5" stop-color="#DED5D1"/><stop offset="1" stop-color="#D0C5C0"/></linearGradient><linearGradient x1="1624.5" y1="971" x2="1624.5" y2="977" gradientUnits="userSpaceOnUse" spreadMethod="reflect" id="fill46"><stop offset="0" stop-color="#EDE5E2"/><stop offset="0.5" stop-color="#DED5D1"/><stop offset="1" stop-color="#D0C5C0"/></linearGradient><linearGradient x1="1754.5" y1="1008" x2="1754.5" y2="1014" gradientUnits="userSpaceOnUse" spreadMethod="reflect" id="fill47"><stop offset="0" stop-color="#EDE5E2"/><stop offset="0.5" stop-color="#DED5D1"/><stop offset="1" stop-color="#D0C5C0"/></linearGradient><linearGradient x1="2159" y1="1021" x2="2159" y2="1027" gradientUnits="userSpaceOnUse" spreadMethod="reflect" id="fill48"><stop offset="0" stop-color="#EDE5E2"/><stop offset="0.5" stop-color="#DED5D1"/><stop offset="1" stop-color="#D0C5C0"/></linearGradient><linearGradient x1="2474" y1="1008" x2="2474" y2="1014" gradientUnits="userSpaceOnUse" spreadMethod="reflect" id="fill49"><stop offset="0" stop-color="#EDE5E2"/><stop offset="0.5" stop-color="#DED5D1"/><stop offset="1" stop-color="#D0C5C0"/></linearGradient><linearGradient x1="2607.5" y1="983" x2="2607.5" y2="989" gradientUnits="userSpaceOnUse" spreadMethod="reflect" id="fill50"><stop offset="0" stop-color="#EDE5E2"/><stop offset="0.5" stop-color="#DED5D1"/><stop offset="1" stop-color="#D0C5C0"/></linearGradient><linearGradient x1="3569" y1="983" x2="3569" y2="989" gradientUnits="userSpaceOnUse" spreadMethod="reflect" id="fill51"><stop offset="0" stop-color="#EDE5E2"/><stop offset="0.5" stop-color="#DED5D1"/><stop offset="1" stop-color="#D0C5C0"/></linearGradient><linearGradient x1="3800" y1="983" x2="3800" y2="989" gradientUnits="userSpaceOnUse" spreadMethod="reflect" id="fill52"><stop offset="0" stop-color="#EDE5E2"/><stop offset="0.5" stop-color="#DED5D1"/><stop offset="1" stop-color="#D0C5C0"/></linearGradient><linearGradient x1="3342.5" y1="934" x2="3342.5" y2="940" gradientUnits="userSpaceOnUse" spreadMethod="reflect" id="fill53"><stop offset="0" stop-color="#EDE5E2"/><stop offset="0.5" stop-color="#DED5D1"/><stop offset="1" stop-color="#D0C5C0"/></linearGradient><linearGradient x1="3338" y1="983" x2="3338" y2="989" gradientUnits="userSpaceOnUse" spreadMethod="reflect" id="fill54"><stop offset="0" stop-color="#EDE5E2"/><stop offset="0.5" stop-color="#DED5D1"/><stop offset="1" stop-color="#D0C5C0"/></linearGradient><linearGradient x1="3434.5" y1="983" x2="3434.5" y2="989" gradientUnits="userSpaceOnUse" spreadMethod="reflect" id="fill55"><stop offset="0" stop-color="#EDE5E2"/><stop offset="0.5" stop-color="#DED5D1"/><stop offset="1" stop-color="#D0C5C0"/></linearGradient><linearGradient x1="2528.5" y1="1046" x2="2528.5" y2="1052" gradientUnits="userSpaceOnUse" spreadMethod="reflect" id="fill56"><stop offset="0" stop-color="#EDE5E2"/><stop offset="0.5" stop-color="#DED5D1"/><stop offset="1" stop-color="#D0C5C0"/></linearGradient><linearGradient x1="2913" y1="983" x2="2913" y2="989" gradientUnits="userSpaceOnUse" spreadMethod="reflect" id="fill57"><stop offset="0" stop-color="#EDE5E2"/><stop offset="0.5" stop-color="#DED5D1"/><stop offset="1" stop-color="#D0C5C0"/></linearGradient><linearGradient x1="2971" y1="1027" x2="2971" y2="1033" gradientUnits="userSpaceOnUse" spreadMethod="reflect" id="fill58"><stop offset="0" stop-color="#EDE5E2"/><stop offset="0.5" stop-color="#DED5D1"/><stop offset="1" stop-color="#D0C5C0"/></linearGradient><linearGradient x1="3017.5" y1="983" x2="3017.5" y2="989" gradientUnits="userSpaceOnUse" spreadMethod="reflect" id="fill59"><stop offset="0" stop-color="#EDE5E2"/><stop offset="0.5" stop-color="#DED5D1"/><stop offset="1" stop-color="#D0C5C0"/></linearGradient><linearGradient x1="3016.5" y1="1052" x2="3016.5" y2="1059" gradientUnits="userSpaceOnUse" spreadMethod="reflect" id="fill60"><stop offset="0" stop-color="#EDE5E2"/><stop offset="0.5" stop-color="#DED5D1"/><stop offset="1" stop-color="#D0C5C0"/></linearGradient><linearGradient x1="2933" y1="1052" x2="2933" y2="1059" gradientUnits="userSpaceOnUse" spreadMethod="reflect" id="fill61"><stop offset="0" stop-color="#EDE5E2"/><stop offset="0.5" stop-color="#DED5D1"/><stop offset="1" stop-color="#D0C5C0"/></linearGradient><linearGradient x1="1958.5" y1="983" x2="1958.5" y2="989" gradientUnits="userSpaceOnUse" spreadMethod="reflect" id="fill62"><stop offset="0" stop-color="#EDE5E2"/><stop offset="0.5" stop-color="#DED5D1"/><stop offset="1" stop-color="#D0C5C0"/></linearGradient><linearGradient x1="2316.5" y1="983" x2="2316.5" y2="989" gradientUnits="userSpaceOnUse" spreadMethod="reflect" id="fill63"><stop offset="0" stop-color="#EDE5E2"/><stop offset="0.5" stop-color="#DED5D1"/><stop offset="1" stop-color="#D0C5C0"/></linearGradient><linearGradient x1="2749" y1="1059" x2="2749" y2="1065" gradientUnits="userSpaceOnUse" spreadMethod="reflect" id="fill64"><stop offset="0" stop-color="#EDE5E2"/><stop offset="0.5" stop-color="#DED5D1"/><stop offset="1" stop-color="#D0C5C0"/></linearGradient><linearGradient x1="643.5" y1="1137" x2="643.5" y2="1144" gradientUnits="userSpaceOnUse" spreadMethod="reflect" id="fill65"><stop offset="0" stop-color="#EDE5E2"/><stop offset="0.5" stop-color="#DED5D1"/><stop offset="1" stop-color="#D0C5C0"/></linearGradient><linearGradient x1="774" y1="1137" x2="774" y2="1144" gradientUnits="userSpaceOnUse" spreadMethod="reflect" id="fill66"><stop offset="0" stop-color="#EDE5E2"/><stop offset="0.5" stop-color="#DED5D1"/><stop offset="1" stop-color="#D0C5C0"/></linearGradient><linearGradient x1="912.5" y1="1137" x2="912.5" y2="1144" gradientUnits="userSpaceOnUse" spreadMethod="reflect" id="fill67"><stop offset="0" stop-color="#EDE5E2"/><stop offset="0.5" stop-color="#DED5D1"/><stop offset="1" stop-color="#D0C5C0"/></linearGradient><linearGradient x1="3371" y1="1137" x2="3371" y2="1144" gradientUnits="userSpaceOnUse" spreadMethod="reflect" id="fill68"><stop offset="0" stop-color="#EDE5E2"/><stop offset="0.5" stop-color="#DED5D1"/><stop offset="1" stop-color="#D0C5C0"/></linearGradient><linearGradient x1="3471" y1="1137" x2="3471" y2="1144" gradientUnits="userSpaceOnUse" spreadMethod="reflect" id="fill69"><stop offset="0" stop-color="#EDE5E2"/><stop offset="0.5" stop-color="#DED5D1"/><stop offset="1" stop-color="#D0C5C0"/></linearGradient><linearGradient x1="3225" y1="1137" x2="3225" y2="1144" gradientUnits="userSpaceOnUse" spreadMethod="reflect" id="fill70"><stop offset="0" stop-color="#EDE5E2"/><stop offset="0.5" stop-color="#DED5D1"/><stop offset="1" stop-color="#D0C5C0"/></linearGradient><linearGradient x1="1949.5" y1="1137" x2="1949.5" y2="1144" gradientUnits="userSpaceOnUse" spreadMethod="reflect" id="fill71"><stop offset="0" stop-color="#EDE5E2"/><stop offset="0.5" stop-color="#DED5D1"/><stop offset="1" stop-color="#D0C5C0"/></linearGradient><linearGradient x1="2233.5" y1="1259" x2="2233.5" y2="1265" gradientUnits="userSpaceOnUse" spreadMethod="reflect" id="fill72"><stop offset="0" stop-color="#EDE5E2"/><stop offset="0.5" stop-color="#DED5D1"/><stop offset="1" stop-color="#D0C5C0"/></linearGradient><linearGradient x1="2618" y1="1137" x2="2618" y2="1144" gradientUnits="userSpaceOnUse" spreadMethod="reflect" id="fill73"><stop offset="0" stop-color="#EDE5E2"/><stop offset="0.5" stop-color="#DED5D1"/><stop offset="1" stop-color="#D0C5C0"/></linearGradient><linearGradient x1="2992.5" y1="1177" x2="2992.5" y2="1184" gradientUnits="userSpaceOnUse" spreadMethod="reflect" id="fill74"><stop offset="0" stop-color="#EDE5E2"/><stop offset="0.5" stop-color="#DED5D1"/><stop offset="1" stop-color="#D0C5C0"/></linearGradient><linearGradient x1="1063.5" y1="1399" x2="1063.5" y2="1549" gradientUnits="userSpaceOnUse" spreadMethod="reflect" id="fill75"><stop offset="0" stop-color="#D0C5C0"/><stop offset="0.97" stop-color="#D0C5C0"/><stop offset="0.97" stop-color="#E3DCD9"/><stop offset="1" stop-color="#E3DCD9"/></linearGradient><linearGradient x1="1246" y1="1399" x2="1246" y2="1548" gradientUnits="userSpaceOnUse" spreadMethod="reflect" id="fill76"><stop offset="0" stop-color="#D0C5C0"/><stop offset="0.97" stop-color="#D0C5C0"/><stop offset="0.97" stop-color="#E3DCD9"/><stop offset="1" stop-color="#E3DCD9"/></linearGradient><linearGradient x1="1424.5" y1="1399" x2="1424.5" y2="1548" gradientUnits="userSpaceOnUse" spreadMethod="reflect" id="fill77"><stop offset="0" stop-color="#D0C5C0"/><stop offset="0.97" stop-color="#D0C5C0"/><stop offset="0.97" stop-color="#E3DCD9"/><stop offset="1" stop-color="#E3DCD9"/></linearGradient><linearGradient x1="1605" y1="1399" x2="1605" y2="1549" gradientUnits="userSpaceOnUse" spreadMethod="reflect" id="fill78"><stop offset="0" stop-color="#D0C5C0"/><stop offset="0.97" stop-color="#D0C5C0"/><stop offset="0.97" stop-color="#E3DCD9"/><stop offset="1" stop-color="#E3DCD9"/></linearGradient><linearGradient x1="1786.5" y1="1399" x2="1786.5" y2="1548" gradientUnits="userSpaceOnUse" spreadMethod="reflect" id="fill79"><stop offset="0" stop-color="#D0C5C0"/><stop offset="0.97" stop-color="#D0C5C0"/><stop offset="0.97" stop-color="#E3DCD9"/><stop offset="1" stop-color="#E3DCD9"/></linearGradient><linearGradient x1="1966" y1="1399" x2="1966" y2="1549" gradientUnits="userSpaceOnUse" spreadMethod="reflect" id="fill80"><stop offset="0" stop-color="#D0C5C0"/><stop offset="0.97" stop-color="#D0C5C0"/><stop offset="0.97" stop-color="#E3DCD9"/><stop offset="1" stop-color="#E3DCD9"/></linearGradient><linearGradient x1="2146" y1="1399" x2="2146" y2="1548" gradientUnits="userSpaceOnUse" spreadMethod="reflect" id="fill81"><stop offset="0" stop-color="#D0C5C0"/><stop offset="0.97" stop-color="#D0C5C0"/><stop offset="0.97" stop-color="#E3DCD9"/><stop offset="1" stop-color="#E3DCD9"/></linearGradient><linearGradient x1="2376" y1="1399" x2="2376" y2="1548" gradientUnits="userSpaceOnUse" spreadMethod="reflect" id="fill82"><stop offset="0" stop-color="#D0C5C0"/><stop offset="0.97" stop-color="#D0C5C0"/><stop offset="0.97" stop-color="#E3DCD9"/><stop offset="1" stop-color="#E3DCD9"/></linearGradient><linearGradient x1="2555" y1="1399" x2="2555" y2="1548" gradientUnits="userSpaceOnUse" spreadMethod="reflect" id="fill83"><stop offset="0" stop-color="#D0C5C0"/><stop offset="0.97" stop-color="#D0C5C0"/><stop offset="0.97" stop-color="#E3DCD9"/><stop offset="1" stop-color="#E3DCD9"/></linearGradient><linearGradient x1="2707.5" y1="1399" x2="2707.5" y2="1548" gradientUnits="userSpaceOnUse" spreadMethod="reflect" id="fill84"><stop offset="0" stop-color="#D0C5C0"/><stop offset="0.97" stop-color="#D0C5C0"/><stop offset="0.97" stop-color="#E3DCD9"/><stop offset="1" stop-color="#E3DCD9"/></linearGradient><linearGradient x1="2852" y1="1399" x2="2852" y2="1548" gradientUnits="userSpaceOnUse" spreadMethod="reflect" id="fill85"><stop offset="0" stop-color="#D0C5C0"/><stop offset="0.97" stop-color="#D0C5C0"/><stop offset="0.97" stop-color="#E3DCD9"/><stop offset="1" stop-color="#E3DCD9"/></linearGradient><linearGradient x1="3010.5" y1="1399" x2="3010.5" y2="1548" gradientUnits="userSpaceOnUse" spreadMethod="reflect" id="fill86"><stop offset="0" stop-color="#D0C5C0"/><stop offset="0.97" stop-color="#D0C5C0"/><stop offset="0.97" stop-color="#E3DCD9"/><stop offset="1" stop-color="#E3DCD9"/></linearGradient><linearGradient x1="3162" y1="1399" x2="3162" y2="1548" gradientUnits="userSpaceOnUse" spreadMethod="reflect" id="fill87"><stop offset="0" stop-color="#D0C5C0"/><stop offset="0.97" stop-color="#D0C5C0"/><stop offset="0.97" stop-color="#E3DCD9"/><stop offset="1" stop-color="#E3DCD9"/></linearGradient><linearGradient x1="3343" y1="1399" x2="3343" y2="1548" gradientUnits="userSpaceOnUse" spreadMethod="reflect" id="fill88"><stop offset="0" stop-color="#D0C5C0"/><stop offset="0.97" stop-color="#D0C5C0"/><stop offset="0.97" stop-color="#E3DCD9"/><stop offset="1" stop-color="#E3DCD9"/></linearGradient></defs><g clip-path="url(#clip0)" transform="translate(-528 -886)"><path d="M3810.16 1093.18 3870.35 993.33 3837.03 886 1536.8 886 1525.95 964.434 1504.77 886 968.721 886 950.379 959.79 905.687 959.79 895.095 1000.55 835.937 886 661.043 886 528 1312.74 634.176 1458 808.553 1458 829.995 1377.5 900.52 1377.5 947.796 1458 1486.43 1458 1499.34 1364.6 1529.05 1458 3328.36 1458 3401.21 1307.32 3467.09 1307.32 3528.31 1187.61 3593.67 1458 3774.77 1458 3875 1312.48 3810.16 1093.18ZM2255.75 1194.58 2256.01 1143.49 2410.75 1143.49 2412.3 1194.58 2255.75 1194.58Z" fill-rule="evenodd"/><path d="M1226.55 1308 1084 1308 1144.94 1429 1280 1429Z" fill="#3D3938" fill-rule="evenodd"/><path d="M1274 1308 1325.08 1429 1460 1429 1416.66 1308Z" fill="#3D3938" fill-rule="evenodd"/><path d="M1702 1308 1730.67 1429 2046 1429 2034.89 1308Z" fill="#3D3938" fill-rule="evenodd"/><path d="M2416 1308 2407.22 1429 2091.78 1429 2083 1308Z" fill="#3D3938" fill-rule="evenodd"/><path d="M2463.37 1308 2606 1308 2587.4 1429 2452 1429Z" fill="#3D3938" fill-rule="evenodd"/><path d="M2653.21 1308 2632 1429 2767.29 1429 2796 1308Z" fill="#3D3938" fill-rule="evenodd"/><path d="M2844.03 1308 2813 1429 2948.22 1429 2987 1308Z" fill="#3D3938" fill-rule="evenodd"/><path d="M3034.15 1308 2993 1429 3128.35 1429 3177 1308Z" fill="#3D3938" fill-rule="evenodd"/><path d="M3224.22 1308 3173 1429 3308.54 1429 3367 1308Z" fill="#3D3938" fill-rule="evenodd"/><path d="M3700.11 1308 3624 1429 3759.39 1429 3843 1308Z" fill="#3D3938" fill-rule="evenodd"/><path d="M1512 1308 1550.52 1429 1686 1429 1654.72 1308Z" fill="#3D3938" fill-rule="evenodd"/><path d="M894 1308 1036.5 1308 1100 1429 964.732 1429Z" fill="#3D3938" fill-rule="evenodd"/><path d="M649.169 1429 561 1308 703.308 1308 784 1429Z" fill="#3D3938" fill-rule="evenodd"/><path d="M934.827 1143.45 888.583 1143.45 867.657 1224.17 774.136 1224.17 796.354 1143.45 750.368 1143.45 703.607 1307.74 561 1307.74 683.198 915 815.471 915 794.545 988.995 839.239 988.995 818.313 1065.06 908.993 1065.06 928.627 988.995 973.321 988.995 991.663 915 1123.94 915 1036.1 1307.74 893.492 1307.74 934.827 1143.45ZM1168.37 915 1300.65 915 1226.5 1307.74 1083.89 1307.74 1168.37 915ZM1741.64 915 2050.37 915 2047.53 988.995 1868.49 988.995 1862.81 1065.06 2044.43 1065.06 2041.33 1143.45 1856.87 1143.45 1850.92 1224.17 2038.22 1224.17 2034.87 1307.74 1702.12 1307.74 1741.64 915ZM2094.8 915 2403.53 915 2405.85 988.995 2226.82 988.995 2225.78 1224.43 2413.09 1224.43 2415.67 1308 2082.66 1308 2094.8 915ZM2641.21 1143.45 2594.96 1143.45 2605.81 1307.74 2463.21 1307.74 2447.7 915 2756.43 915 2771.41 1065.06 2725.94 1065.06 2729.56 1103.87 2775.55 1103.87 2796.21 1307.74 2653.61 1307.74 2641.21 1143.45ZM2584.89 988.995 2589.79 1065.06 2635.26 1065.06 2629.58 988.995 2584.89 988.995ZM3153.51 915 3462.23 915 3480.06 988.995 3301.02 988.995 3316.78 1065.06 3498.4 1065.06 3517.26 1143.45 3332.8 1143.45 3366.64 1307.74 3224.04 1307.74 3153.51 915ZM3614.66 988.995 3525.01 988.995 3506.41 915 3815.13 915 3838.13 988.995 3748.48 988.995 3842 1308 3699.39 1308 3614.66 988.995ZM1528.77 1183.55 1482.26 1183.55 1493.89 1103.87 1448.16 1103.87 1416.9 1307.74 1274.29 1307.74 1344.82 915 1477.1 915 1465.73 988.995 1510.42 988.995 1499.31 1065.06 1544.78 1065.06 1565.19 915 1697.47 915 1654.58 1307.74 1511.97 1307.74 1528.77 1183.55ZM3109.33 915 2800.61 915 2843.75 1307.74 2986.36 1307.74 2969.56 1183.55 3016.07 1183.55 3034.15 1307.74 3176.76 1307.74 3109.33 915ZM3005.22 1058.59 3027.95 1058.59 3038.8 1130.26 3008.06 1130.26 3004.18 1104.13 2958.46 1104.13 2962.07 1130.26 2931.33 1130.26 2922.29 1058.59 2945.02 1058.59 2942.44 1039.45 2889.74 1039.45 2883.53 988.995 2943.21 988.995 2949.16 1033.24 2994.37 1033.24 2987.91 988.995 3047.58 988.995 3055.59 1039.45 3002.89 1039.45 3005.22 1058.59Z" fill="url(#fill1)" fill-rule="evenodd"/><path d="M1164 1224 1147.11 1308 1131 1308 1148.41 1224Z" fill="#998F8B" fill-rule="evenodd"/><path d="M2933.62 1265 2939 1308 2923.12 1308 2918 1265Z" fill="#998F8B" fill-rule="evenodd"/><path d="M1147.09 1308 1165 1345 1149.43 1345 1131 1308Z" fill="#262423" fill-rule="evenodd"/><path d="M1345 1265 1338.02 1308 1322 1308 1329.24 1265Z" fill="#998F8B" fill-rule="evenodd"/><path d="M1607.15 1308 1618 1345 1601.85 1345 1591 1308Z" fill="#262423" fill-rule="evenodd"/><path d="M1765.75 1308 1781 1382 1765.75 1382 1750 1308Z" fill="#262423" fill-rule="evenodd"/><path d="M753 1382 745.029 1370 699 1370 707.228 1382Z" fill="#262423" fill-rule="evenodd"/><path d="M3244 1370 3198.13 1370 3193 1382 3238.62 1382Z" fill="#262423" fill-rule="evenodd"/><path d="M2689 1370 2643.05 1370 2641 1382 2686.69 1382Z" fill="#262423" fill-rule="evenodd"/><path d="M1929.44 1345 1945 1345 1940.07 1308 1924 1308Z" fill="#262423" fill-rule="evenodd"/><path d="M3653 1382 3660.53 1370 3707 1370 3699.21 1382Z" fill="#262423" fill-rule="evenodd"/><path d="M1075 1382 1068.63 1370 1023 1370 1029.37 1382Z" fill="#262423" fill-rule="evenodd"/><path d="M2869 1117 2867.43 1104 2821 1104 2822.31 1117Z" fill="#998F8B" fill-rule="evenodd"/><path d="M1018.34 1052.17 1036.22 977 976.626 977 973.517 989.572 1018.34 989.572 1003.05 1052.17 912.109 1052.17 909 1065 1091.15 1065 1094 1052.17Z" fill="#998F8B" fill-rule="evenodd"/><path d="M3741.85 915 3727 915 3748.89 989 3764 989Z" fill="#998F8B" fill-rule="evenodd"/><path d="M3407.98 1065 3393 1065 3410.02 1144 3425 1144Z" fill="#998F8B" fill-rule="evenodd"/><path d="M2601 1224.71 2599.96 1211 2537 1211 2542.22 1308 2558.42 1308 2553.46 1224.71Z" fill="#998F8B" fill-rule="evenodd"/><path d="M663.877 977 798 977 794.382 989 660 989Z" fill="#998F8B" fill-rule="evenodd"/><path d="M1294 1197 1296.59 1184 1436 1184 1433.93 1197Z" fill="#998F8B" fill-rule="evenodd"/><path d="M3670.61 1197 3667 1184 3806.14 1184 3810 1197Z" fill="#998F8B" fill-rule="evenodd"/><path d="M3024.07 1238 3022 1224 3162.67 1224 3165 1238Z" fill="#998F8B" fill-rule="evenodd"/><path d="M1622 1184 1528.81 1184 1527 1197.43 1604.92 1197.43 1591.46 1308 1607.25 1308Z" fill="#998F8B" fill-rule="evenodd"/><path d="M2545 1065 2544.22 1052.07 2513.91 1052.07 2506.92 915 2492.15 915 2497.08 1014.05 2452 1014.05 2452.52 1026.72 2497.59 1026.72 2499.41 1065Z" fill="#998F8B" fill-rule="evenodd"/><path d="M2545 1065 2544.22 1052.07 2513.91 1052.07 2506.92 915 2492.15 915 2497.08 1014.05 2452 1014.05 2452.52 1026.72 2497.59 1026.72 2499.41 1065Z" fill="#998F8B" fill-rule="evenodd"/><path d="M727.133 1224.24 731 1210.65 653.384 1210.65 673.497 1144 612.126 1144 608 1157.33 654.157 1157.33 621.151 1265 636.881 1265 715.529 1265 719.397 1251.41 641.007 1251.41 649.258 1224.24Z" fill="#998F8B" fill-rule="evenodd"/><path d="M3391 989 3379.88 939.322 3305.91 939.322 3300.74 915 3286 915 3293.5 951.741 3367.72 951.741 3376 989Z" fill="#998F8B" fill-rule="evenodd"/><path d="M1732.29 1014 1777 1014 1775.71 1027 1731 1027Z" fill="#998F8B" fill-rule="evenodd"/><path d="M1712.28 1211 1711 1224.71 1757.35 1224.71 1749.67 1308 1765.55 1308 1774 1211Z" fill="#998F8B" fill-rule="evenodd"/><path d="M1468 977 1423.09 977 1421 989 1466.17 989Z" fill="#998F8B" fill-rule="evenodd"/><path d="M1691 977 1556.81 977 1555 989 1689.45 989Z" fill="#998F8B" fill-rule="evenodd"/><path d="M2939 1308 2922.86 1308 2901 1382 2916.62 1382Z" fill="#262423" fill-rule="evenodd"/><path d="M2646 1211 2647.04 1224 2694 1224 2692.96 1211Z" fill="#998F8B" fill-rule="evenodd"/><path d="M2091.18 1027 2090.92 1039.66 2136.28 1039.66 2132.91 1183.57 2086.52 1183.57 2086 1197 2148.47 1197 2151.32 1039.66 2227 1039.66 2227 1027Z" fill="#998F8B" fill-rule="evenodd"/><path d="M3272 1224 3256.5 1144 3195 1144 3197.33 1157.29 3243.58 1157.29 3256.24 1224Z" fill="#998F8B" fill-rule="evenodd"/><path d="M2241 1308 2225 1308 2225.26 1272 2241 1272Z" fill="#998F8B" fill-rule="evenodd"/><path d="M2241 1345 2225.52 1345 2225 1308 2241 1308Z" fill="#262423" fill-rule="evenodd"/><path d="M2553 1345 2538 1345 2542.5 1308 2558 1308Z" fill="#262423" fill-rule="evenodd"/><path d="M1229.11 977 1219 1027 1234.3 1027 1241.81 989.564 1286.67 989.564 1289 977Z" fill="#998F8B" fill-rule="evenodd"/><path d="M1976.37 1224 1974.8 1251.65 1927.39 1251.65 1924 1308 1940.15 1308 1942.5 1265.48 1990.18 1265.48 1992 1224Z" fill="#998F8B" fill-rule="evenodd"/><path d="M2410.74 1376 2411 1370 2365.26 1370 2365 1376Z" fill="#262423" fill-rule="evenodd"/><path d="M1337.94 1308 1367 1382 1351.83 1382 1322 1308Z" fill="#262423" fill-rule="evenodd"/><path d="M673 1144 670.951 1150 610 1150 612.049 1144Z" fill="#6B6562" fill-rule="evenodd"/><path d="M653 1211 658.701 1217 729.186 1217 731 1211Z" fill="#6B6562" fill-rule="evenodd"/><path d="M641 1252 646.901 1259 716.948 1259 719 1252Z" fill="#6B6562" fill-rule="evenodd"/><path d="M663.81 977 798 977 796.19 983 662 983Z" fill="#6B6562" fill-rule="evenodd"/><path d="M976.551 977 975 983 1034.71 983 1036 977Z" fill="#6B6562" fill-rule="evenodd"/><path d="M1018.08 989 1024 995.245 1008.81 1059 911 1059 912.544 1052.49 1002.89 1052.49Z" fill="#6B6562" fill-rule="evenodd"/><path d="M1018 1052 1023.99 1059 1092.7 1059 1094 1052Z" fill="#6B6562" fill-rule="evenodd"/><path d="M654.28 1157 660 1163.43 629.06 1265 621 1265Z" fill="#6B6562" fill-rule="evenodd"/><path d="M1219 1027 1226.78 1027 1235.59 983.41 1287.7 983.41 1289 977 1229.11 977Z" fill="#6B6562" fill-rule="evenodd"/><path d="M1164 1224 1162.7 1230.78 1154.91 1230.78 1139.05 1308 1131 1308 1148.41 1224Z" fill="#6B6562" fill-rule="evenodd"/><path d="M1421 989 1428.31 989 1429.36 983.123 1467.22 983.123 1468 977 1423.09 977Z" fill="#6B6562" fill-rule="evenodd"/><path d="M1556.78 977 1691 977 1690.22 983 1556 983Z" fill="#6B6562" fill-rule="evenodd"/><path d="M1296.3 1184 1436 1184 1434.96 1190 1295 1190Z" fill="#6B6562" fill-rule="evenodd"/><path d="M1345 1265 1329.24 1265 1322 1308 1330.01 1308 1335.96 1272.12 1343.97 1272.12Z" fill="#6B6562" fill-rule="evenodd"/><path d="M1528.78 1184 1528 1190 1621.22 1190 1622 1184Z" fill="#6B6562" fill-rule="evenodd"/><path d="M1604.82 1197 1612 1204 1598.97 1308 1591 1308Z" fill="#6B6562" fill-rule="evenodd"/><path d="M1731.78 1014 1731 1021 1776.48 1021 1777 1014Z" fill="#6B6562" fill-rule="evenodd"/><path d="M1711.77 1211 1711 1217 1773.48 1217 1774 1211Z" fill="#6B6562" fill-rule="evenodd"/><path d="M1757.76 1224 1765 1230.78 1758.02 1308 1750 1308Z" fill="#6B6562" fill-rule="evenodd"/><path d="M1984 1224 1976.21 1224 1974.65 1251.65 1927.38 1251.65 1924 1308 1932.05 1308 1934.91 1258.7 1982.18 1258.7Z" fill="#6B6562" fill-rule="evenodd"/><path d="M2091 1033 2227 1033 2227 1027 2091.26 1027Z" fill="#6B6562" fill-rule="evenodd"/><path d="M2136.65 1040 2144 1046.43 2141.11 1190 2086 1190 2086.26 1183.31 2133.24 1183.31Z" fill="#6B6562" fill-rule="evenodd"/><path d="M2497 1014 2452 1014 2452.26 1021 2489.76 1021Z" fill="#6B6562" fill-rule="evenodd"/><path d="M2545 1065 2544.21 1052.07 2513.46 1052.07 2506.36 915 2499 915 2506.36 1058.53 2537.11 1058.53 2537.38 1065Z" fill="#6B6562" fill-rule="evenodd"/><path d="M2600 1217 2599.48 1211 2537 1211 2537.26 1217Z" fill="#6B6562" fill-rule="evenodd"/><path d="M2553.15 1224 2546 1230.78 2550.09 1308 2558 1308Z" fill="#6B6562" fill-rule="evenodd"/><path d="M2646 1211 2646.52 1217.38 2685.7 1217.38 2686.22 1224 2694 1224 2692.96 1211 2646 1211" fill="#6B6562" fill-rule="evenodd"/><path d="M2821.79 1110.63 2821 1104 2867.43 1104 2869 1117 2861.13 1117 2860.61 1110.63Z" fill="#6B6562" fill-rule="evenodd"/><path d="M3022 1224 3162.96 1224 3164 1231 3023.04 1231Z" fill="#6B6562" fill-rule="evenodd"/><path d="M2918.77 1272.12 2926.71 1272.12 2931.06 1308 2939 1308 2933.62 1265 2918 1265Z" fill="#6B6562" fill-rule="evenodd"/><path d="M3196.03 1150.65 3250.04 1150.65 3263.99 1224 3272 1224 3256.5 1144 3195 1144Z" fill="#6B6562" fill-rule="evenodd"/><path d="M3301.2 915 3294 915 3300.18 945.532 3373.76 945.532 3383.54 989 3391 989 3379.94 939.322 3306.35 939.322Z" fill="#6B6562" fill-rule="evenodd"/><path d="M3407.73 1065 3400 1065 3417.53 1144 3425 1144Z" fill="#6B6562" fill-rule="evenodd"/><path d="M3667 1184 3805.94 1184 3808 1190 3668.8 1190Z" fill="#6B6562" fill-rule="evenodd"/><path d="M3735 915 3756.62 989 3764 989 3742.38 915Z" fill="#6B6562" fill-rule="evenodd"/><path d="M2226 1265 2226 1272 2241 1272 2241 1265Z" fill="#6B6562" fill-rule="evenodd"/><path d="M1029.37 1382 1023 1370 1030.65 1370 1033.96 1376.13 1071.69 1376.13 1075 1382Z" fill="#171615" fill-rule="evenodd"/><path d="M1139.05 1308 1131 1308 1149.43 1345 1165 1345 1162.14 1338.92 1154.1 1338.92Z" fill="#171615" fill-rule="evenodd"/><path d="M1598.94 1308 1608.21 1338.92 1616.15 1338.92 1618 1345 1601.85 1345 1591 1308Z" fill="#171615" fill-rule="evenodd"/><path d="M1757.88 1308 1772.11 1376.09 1779.73 1376.09 1781 1382 1765.75 1382 1750 1308Z" fill="#171615" fill-rule="evenodd"/><path d="M1932.04 1308 1936.44 1338.92 1944.22 1338.92 1945 1345 1929.44 1345 1924 1308Z" fill="#171615" fill-rule="evenodd"/><path d="M2930.93 1308 2910.63 1376.09 2902.82 1376.09 2901 1382 2916.62 1382 2939 1308Z" fill="#171615" fill-rule="evenodd"/><path d="M3238.62 1382 3244 1370 3236.31 1370 3233.75 1376.13 3195.56 1376.13 3193 1382Z" fill="#171615" fill-rule="evenodd"/><path d="M3656.63 1376.13 3695.32 1376.13 3699.21 1370 3707 1370 3699.21 1382 3653 1382Z" fill="#171615" fill-rule="evenodd"/><path d="M699 1370 707.228 1382 753 1382 749.143 1376.13 710.828 1376.13 706.714 1370Z" fill="#171615" fill-rule="evenodd"/><path d="M2550.25 1308 2546.25 1338.92 2538.75 1338.92 2538 1345 2553 1345 2558 1308Z" fill="#171615" fill-rule="evenodd"/><path d="M2226 1339 2226.25 1345 2241 1345 2241 1339Z" fill="#171615" fill-rule="evenodd"/><path d="M2364.26 1376 2364 1382 2410.48 1382 2411 1376Z" fill="#171615" fill-rule="evenodd"/><path d="M1329.97 1308 1322 1308 1351.83 1382 1367 1382 1364.69 1376.09 1356.97 1376.09Z" fill="#171615" fill-rule="evenodd"/><path d="M2642.03 1376.13 2641 1382 2686.69 1382 2689 1370 2681.3 1370 2680.27 1376.13Z" fill="#171615" fill-rule="evenodd"/><path d="M707 1382 711.124 1388 757 1388 752.876 1382Z" fill="#6B6562" fill-rule="evenodd"/><path d="M1029 1382 1075.86 1382 1079 1388 1032.4 1388Z" fill="#6B6562" fill-rule="evenodd"/><path d="M1150 1345 1152.79 1352 1168 1352 1165.21 1345Z" fill="#6B6562" fill-rule="evenodd"/><path d="M1602 1345 1603.78 1352 1619 1352 1617.48 1345Z" fill="#6B6562" fill-rule="evenodd"/><path d="M1766 1382 1767.25 1388 1782 1388 1781 1382Z" fill="#6B6562" fill-rule="evenodd"/><path d="M1930 1345 1930.76 1352 1946 1352 1945.24 1345Z" fill="#6B6562" fill-rule="evenodd"/><path d="M2641.03 1382 2687 1382 2685.71 1388 2640 1388Z" fill="#6B6562" fill-rule="evenodd"/><path d="M2901.55 1382 2900 1388 2915.2 1388 2917 1382Z" fill="#6B6562" fill-rule="evenodd"/><path d="M3239 1382 3236.39 1388 3190 1388 3192.61 1382Z" fill="#6B6562" fill-rule="evenodd"/><path d="M3653.81 1382 3650 1388 3695.19 1388 3699 1382Z" fill="#6B6562" fill-rule="evenodd"/><path d="M2226 1345 2226 1352 2241 1352 2241 1345Z" fill="#6B6562" fill-rule="evenodd"/><path d="M2553 1345 2552.24 1352 2537 1352 2537.76 1345Z" fill="#6B6562" fill-rule="evenodd"/><path d="M2133 1177 2087 1177 2087 1184 2132.74 1184Z" fill="url(#fill2)" fill-rule="evenodd"/><path d="M1297 1184 1435.97 1184 1437 1177 1298.03 1177Z" fill="url(#fill3)" fill-rule="evenodd"/><path d="M1623 1177 1483.04 1177 1482 1184 1622.22 1184Z" fill="url(#fill4)" fill-rule="evenodd"/><path d="M3803.94 1177 3665 1177 3666.8 1184 3806 1184Z" fill="url(#fill5)" fill-rule="evenodd"/><path d="M561 1308 702.943 1308 705 1301 563.314 1301Z" fill="url(#fill6)" fill-rule="evenodd"/><path d="M641 1252 718.949 1252 721 1245 643.051 1245Z" fill="url(#fill7)" fill-rule="evenodd"/><path d="M653 1211 730.929 1211 733 1204 655.071 1204Z" fill="url(#fill8)" fill-rule="evenodd"/><path d="M774 1224 868.179 1224 870 1217 775.821 1217Z" fill="url(#fill9)" fill-rule="evenodd"/><path d="M894 1308 1036.45 1308 1038 1301 895.806 1301Z" fill="url(#fill10)" fill-rule="evenodd"/><path d="M1166 1217 1150.29 1217 1149 1224 1164.45 1224Z" fill="url(#fill11)" fill-rule="evenodd"/><path d="M1346 1259 1330.29 1259 1329 1265 1344.71 1265Z" fill="url(#fill12)" fill-rule="evenodd"/><path d="M1775 1204 1712.77 1204 1712 1211 1774.23 1211Z" fill="url(#fill13)" fill-rule="evenodd"/><path d="M1975 1245 1928.51 1245 1928 1252 1974.49 1252Z" fill="url(#fill14)" fill-rule="evenodd"/><path d="M2537.26 1211 2600 1211 2599.48 1204 2537 1204Z" fill="url(#fill15)" fill-rule="evenodd"/><path d="M2692.49 1204 2646 1204 2646.51 1211 2693 1211Z" fill="url(#fill16)" fill-rule="evenodd"/><path d="M2917 1259 2917.8 1265 2934 1265 2932.94 1259Z" fill="url(#fill17)" fill-rule="evenodd"/><path d="M3161.7 1217 3021 1217 3022.04 1224 3163 1224Z" fill="url(#fill18)" fill-rule="evenodd"/><path d="M2843 1301 2843.77 1308 2923 1308 2922.23 1301Z" fill="url(#fill19)" fill-rule="evenodd"/><path d="M2938 1301 2939.04 1308 2987 1308 2985.96 1301Z" fill="url(#fill20)" fill-rule="evenodd"/><path d="M3033 1301 3034.04 1308 3177 1308 3175.71 1301Z" fill="url(#fill21)" fill-rule="evenodd"/><path d="M3223 1301 3224.29 1308 3367 1308 3365.71 1301Z" fill="url(#fill22)" fill-rule="evenodd"/><path d="M3840.93 1301 3698 1301 3700.07 1308 3843 1308Z" fill="url(#fill23)" fill-rule="evenodd"/><path d="M2463 1301 2463.26 1308 2542 1308 2541.74 1301Z" fill="url(#fill24)" fill-rule="evenodd"/><path d="M2558 1301 2558.52 1308 2606 1308 2605.48 1301Z" fill="url(#fill25)" fill-rule="evenodd"/><path d="M2083 1308 2225 1308 2225 1301 2083.26 1301Z" fill="url(#fill26)" fill-rule="evenodd"/><path d="M2241 1301 2241 1308 2416 1308 2415.74 1301Z" fill="url(#fill27)" fill-rule="evenodd"/><path d="M2653 1301 2653.52 1308 2796 1308 2795.23 1301Z" fill="url(#fill28)" fill-rule="evenodd"/><path d="M1702 1308 1750.21 1308 1751 1301 1702.79 1301Z" fill="url(#fill29)" fill-rule="evenodd"/><path d="M1766 1308 1924.48 1308 1925 1301 1766.52 1301Z" fill="url(#fill30)" fill-rule="evenodd"/><path d="M1940 1308 2035.74 1308 2036 1301 1940.26 1301Z" fill="url(#fill31)" fill-rule="evenodd"/><path d="M1512 1308 1591.23 1308 1592 1301 1513.03 1301Z" fill="url(#fill32)" fill-rule="evenodd"/><path d="M1607 1308 1654.23 1308 1655 1301 1607.77 1301Z" fill="url(#fill33)" fill-rule="evenodd"/><path d="M1274 1308 1321.7 1308 1323 1301 1275.3 1301Z" fill="url(#fill34)" fill-rule="evenodd"/><path d="M1338 1308 1416.97 1308 1418 1301 1339.29 1301Z" fill="url(#fill35)" fill-rule="evenodd"/><path d="M1084 1308 1131.45 1308 1133 1301 1085.55 1301Z" fill="url(#fill36)" fill-rule="evenodd"/><path d="M1148 1308 1226.46 1308 1228 1301 1149.28 1301Z" fill="url(#fill37)" fill-rule="evenodd"/><path d="M2866.23 1098 2821 1098 2821.77 1104 2867 1104Z" fill="url(#fill38)" fill-rule="evenodd"/><path d="M1495 1098 1448.78 1098 1448 1104 1494.22 1104Z" fill="url(#fill39)" fill-rule="evenodd"/><path d="M799 971 666.057 971 664 977 797.457 977Z" fill="url(#fill40)" fill-rule="evenodd"/><path d="M1037 971 977.551 971 976 977 1035.45 977Z" fill="url(#fill41)" fill-rule="evenodd"/><path d="M1018 1052 1093.45 1052 1095 1046 1019.29 1046Z" fill="url(#fill42)" fill-rule="evenodd"/><path d="M1004 1046 913.804 1046 912 1052 1002.45 1052Z" fill="url(#fill43)" fill-rule="evenodd"/><path d="M1290 971 1230.3 971 1229 977 1288.96 977Z" fill="url(#fill44)" fill-rule="evenodd"/><path d="M1469 971 1423.78 971 1423 977 1467.95 977Z" fill="url(#fill45)" fill-rule="evenodd"/><path d="M1557 977 1691.48 977 1692 971 1557.78 971Z" fill="url(#fill46)" fill-rule="evenodd"/><path d="M1777 1008 1732.51 1008 1732 1014 1776.49 1014Z" fill="url(#fill47)" fill-rule="evenodd"/><path d="M2227 1021 2091.26 1021 2091 1027 2227 1027Z" fill="url(#fill48)" fill-rule="evenodd"/><path d="M2496.74 1008 2451 1008 2451.26 1014 2497 1014Z" fill="url(#fill49)" fill-rule="evenodd"/><path d="M2630 989 2629.49 983 2585 983 2585.51 989Z" fill="url(#fill50)" fill-rule="evenodd"/><path d="M3523 983 3524.82 989 3615 989 3613.44 983Z" fill="url(#fill51)" fill-rule="evenodd"/><path d="M3838 989 3836.2 983 3762 983 3764.05 989Z" fill="url(#fill52)" fill-rule="evenodd"/><path d="M3380 940 3378.45 934 3305 934 3306.29 940Z" fill="url(#fill53)" fill-rule="evenodd"/><path d="M3376 989 3374.71 983 3300 983 3301.29 989Z" fill="url(#fill54)" fill-rule="evenodd"/><path d="M3480 989 3478.45 983 3389 983 3390.55 989Z" fill="url(#fill55)" fill-rule="evenodd"/><path d="M2544 1052 2543.74 1046 2513 1046 2513.26 1052Z" fill="url(#fill56)" fill-rule="evenodd"/><path d="M2943 989 2942.23 983 2883 983 2883.77 989Z" fill="url(#fill57)" fill-rule="evenodd"/><path d="M2994 1033 2992.97 1027 2948 1027 2948.78 1033Z" fill="url(#fill58)" fill-rule="evenodd"/><path d="M3048 989 3046.96 983 2987 983 2987.78 989Z" fill="url(#fill59)" fill-rule="evenodd"/><path d="M3005.76 1059 3028 1059 3027.24 1052 3005 1052Z" fill="url(#fill60)" fill-rule="evenodd"/><path d="M2922.05 1059 2945 1059 2944.21 1052 2921 1052Z" fill="url(#fill61)" fill-rule="evenodd"/><path d="M1869 989 2047.74 989 2048 983 1869.52 983Z" fill="url(#fill62)" fill-rule="evenodd"/><path d="M2405.74 983 2227 983 2227 989 2406 989Z" fill="url(#fill63)" fill-rule="evenodd"/><path d="M2772 1065 2771.23 1059 2726 1059 2726.77 1065Z" fill="url(#fill64)" fill-rule="evenodd"/><path d="M675 1137 614.049 1137 612 1144 672.951 1144Z" fill="url(#fill65)" fill-rule="evenodd"/><path d="M798 1137 751.816 1137 750 1144 796.184 1144Z" fill="url(#fill66)" fill-rule="evenodd"/><path d="M936 1137 890.778 1137 889 1144 934.476 1144Z" fill="url(#fill67)" fill-rule="evenodd"/><path d="M3332 1137 3333.29 1144 3410 1144 3408.46 1137Z" fill="url(#fill68)" fill-rule="evenodd"/><path d="M3424 1137 3425.3 1144 3518 1144 3516.44 1137Z" fill="url(#fill69)" fill-rule="evenodd"/><path d="M3254.72 1137 3194 1137 3195.28 1144 3256 1144Z" fill="url(#fill70)" fill-rule="evenodd"/><path d="M1857 1144 2041.74 1144 2042 1137 1857.52 1137Z" fill="url(#fill71)" fill-rule="evenodd"/><path d="M2241 1259 2226 1259 2226 1265 2241 1265Z" fill="url(#fill72)" fill-rule="evenodd"/><path d="M2595 1137 2595.51 1144 2641 1144 2640.49 1137Z" fill="url(#fill73)" fill-rule="evenodd"/><path d="M2969 1177 2969.77 1184 3016 1184 3014.97 1177Z" fill="url(#fill74)" fill-rule="evenodd"/><path d="M2364.26 1382 2364 1388 2409.49 1388 2410 1382Z" fill="#6B6562" fill-rule="evenodd"/><path d="M1352 1382 1354.25 1388 1369 1388 1366.75 1382Z" fill="#6B6562" fill-rule="evenodd"/><path d="M753 1382.06 757.16 1388 766 1354.94 762.1 1349Z" fill="#3D3938" fill-rule="evenodd"/><path d="M3653 1382.11 3649.33 1388 3641 1352.89 3644.43 1347Z" fill="#3D3938" fill-rule="evenodd"/><path d="M2239 1547.93 2238.74 1493.56 2210.54 1493.56 2210.54 1480.93 2238.22 1480.93 2238.74 1436.09 2238.48 1383 2168.9 1383 2168.9 1410.06 2140.7 1410.06 2140.44 1437.63 2128.03 1437.63 2128.03 1428.1 2126.21 1383 2057.4 1383 2056.63 1410.06 2034.12 1410.06 2031.79 1383 1908.14 1383 1906.85 1410.06 1857.7 1410.06 1853.04 1383 1730.95 1383 1728.88 1410.06 1681.28 1410.06 1674.55 1383 1526.07 1383 1522.71 1410.06 1504.86 1410.06 1496.06 1383 1171.67 1383 1165.2 1417.27 1161.84 1410.06 1152.27 1410.06 1139.34 1383 994.474 1383 958 1550.77 982.316 1592 1127.96 1592 1133.39 1563.91 1147.36 1563.91 1161.58 1592 1488.82 1592 1492.44 1563.91 1510.55 1563.91 1519.6 1592 1584.01 1592 1590.22 1536.08 1622.3 1536.08 1620.75 1549.48 1632.39 1592 1697.58 1592 1700.16 1563.91 1720.6 1563.91 1726.81 1592 1849.68 1592 1851.49 1563.91 1901.68 1563.91 1905.56 1592 2030.24 1592 2031.02 1563.91 2054.3 1563.91 2056.11 1592 2125.44 1592 2126.21 1536.08 2140.18 1536.08 2140.7 1563.91 2168.38 1563.91 2168.64 1592 2238.74 1592Z" fill-rule="evenodd"/><path d="M3413.31 1383 3353.1 1383 3338.89 1410.06 3307.36 1410.06 3301.94 1383 3240.7 1383 3228.04 1410.06 3213.56 1410.06 3208.65 1383 3090.82 1383 3079.71 1410.06 3063.43 1410.06 3059.3 1383 2639.92 1383 2634.49 1410.06 2614.08 1410.06 2612.01 1383 2282.81 1383 2281 1428.1 2283.58 1592 2615.63 1592 2621.05 1563.91 2641.98 1563.91 2644.05 1592 2766.02 1592 2777.64 1549.48 2771.96 1493.56 2755.94 1493.56 2754.91 1480.93 2812.01 1480.93 2824.41 1592 2888.76 1592 2902.45 1549.74 2894.18 1480.93 2954.13 1480.93 2955.68 1493.56 2940.44 1536.08 2947.93 1592 3067.57 1592 3079.2 1563.91 3095.48 1563.91 3099.87 1592 3218.47 1592 3232.17 1563.91 3246.38 1563.91 3251.55 1592 3312.79 1592 3328.04 1563.91 3359.3 1563.91 3365.25 1592 3425.45 1592 3450 1550.77Z" fill-rule="evenodd"/><path d="M1007.31 1399 1129.3 1399 1142.48 1426.13 1152.04 1426.13 1166 1455.32 1159.02 1492.78 1146.87 1492.78 1155.66 1510.61 1148.43 1548.84 1120.51 1548.84 1115.08 1577 991.541 1577 975 1548.84 1007.31 1399Z" fill="#48494A" fill-rule="evenodd"/><path d="M1184.7 1399 1334.61 1399 1346 1428.33 1340.3 1465.12 1274.54 1465.12 1282.05 1482.36 1277.65 1509.37 1317.26 1509.37 1329.17 1537.67 1323.22 1576 1171.24 1576 1157 1547.96 1184.7 1399Z" fill="#48494A" fill-rule="evenodd"/><path d="M1362.48 1399 1484.41 1399 1493.2 1426.01 1508.7 1426.01 1518 1455.08 1506.63 1547.96 1478.73 1547.96 1475.11 1576 1351.63 1576 1340 1547.96 1362.48 1399ZM1399.42 1509.11 1459.61 1509.11 1465.56 1464.86 1405.88 1464.86 1399.42 1509.11Z" fill="#48494A" fill-rule="evenodd"/><path d="M1640.01 1519.92 1576.21 1519.92 1569.98 1576 1531.34 1576 1522 1547.96 1540.16 1399 1662.58 1399 1669.32 1426.01 1688 1426.01 1695 1455.08 1691.63 1492.39 1685.66 1492.39 1690.07 1510.14 1684.11 1576 1644.68 1576 1636.9 1547.96 1640.01 1519.92Z" fill="#48494A" fill-rule="evenodd"/><path d="M1715.51 1426.01 1743.62 1426.01 1745.94 1399 1839.57 1399 1843.95 1426.01 1865.62 1426.01 1870 1455.08 1864.33 1547.96 1836.47 1547.96 1834.67 1576 1739.75 1576 1733.31 1547.96 1713.71 1547.96 1707 1519.66 1715.51 1426.01ZM1755.49 1509.11 1822.03 1509.11 1825.12 1464.86 1758.84 1464.86 1755.49 1509.11Z" fill="#48494A" fill-rule="evenodd"/><path d="M2046 1455.08 2043.93 1426.01 2019.06 1426.01 2016.73 1399 1922.71 1399 1921.41 1426.01 1893.18 1426.01 1888 1519.66 1892.14 1547.96 1915.2 1547.96 1919.08 1576 2014.4 1576 2015.44 1547.96 2043.41 1547.96 2044.45 1509.88 2043.15 1492.13 2044.96 1492.13 2046 1455.08ZM2002.74 1509.11 1932.55 1509.11 1934.62 1464.86 2004.56 1464.86 2006.11 1481.07 2003.78 1481.07 2002.74 1509.11Z" fill="#48494A" fill-rule="evenodd"/><path d="M2155.85 1453.11 2156.11 1425.42 2184.37 1425.42 2184.37 1398.26 2222.22 1398.26 2222.48 1435.52 2222.22 1464.75 2194.48 1464.75 2194.22 1481.05 2194.22 1508.99 2222.74 1508.99 2223 1547.8 2222.74 1576 2184.37 1576 2184.11 1547.8 2156.11 1547.8 2155.59 1519.6 2110.48 1519.6 2109.44 1576 2070.81 1576 2069 1547.8 2072.63 1398 2110.74 1398 2112.04 1427.49 2111.52 1452.85 2155.85 1453.11 2155.85 1453.11Z" fill="#48494A" fill-rule="evenodd"/><path d="M2297 1427.49 2298.29 1398 2447.56 1398 2449.1 1435.26 2445.75 1464.49 2393.93 1464.49 2394.71 1491.14 2393.16 1508.99 2452.2 1508.99 2454 1547.8 2450.65 1576 2299.32 1576 2297 1427.49Z" fill="#48494A" fill-rule="evenodd"/><path d="M2472 1427.49 2475.62 1398 2597.74 1398 2599.81 1425.17 2627.76 1425.17 2635 1519.34 2629.31 1547.8 2608.61 1547.8 2603.18 1576 2479.5 1576 2472 1427.49ZM2519.87 1508.99 2587.91 1508.99 2584.81 1464.49 2517.28 1464.49 2519.87 1508.99Z" fill="#48494A" fill-rule="evenodd"/><path d="M2647 1427.49 2652.92 1398 2746.33 1398 2749.93 1435.26 2742.73 1464.49 2724.72 1464.49 2728.83 1508.99 2757.14 1508.99 2761 1547.8 2753.54 1576 2658.84 1576 2655.75 1537.45 2661.93 1508.99 2681.48 1508.99 2677.62 1464.49 2649.83 1464.49 2647 1427.49Z" fill="#48494A" fill-rule="evenodd"/><path d="M2767 1427.49 2774.49 1398 2924.09 1398 2929 1435.26 2919.44 1464.49 2876.29 1464.49 2886.37 1547.8 2877.07 1576 2838.57 1576 2826.17 1464.49 2770.88 1464.49 2767 1427.49Z" fill="#48494A" fill-rule="evenodd"/><path d="M2942 1427.49 2951.85 1398 3045.93 1398 3051.64 1435.26 3040.49 1464.49 3028.05 1464.49 3034.53 1508.99 3063.04 1508.99 3069 1547.8 3057.34 1576 2961.96 1576 2956.77 1537.45 2967.14 1508.99 2981.14 1508.99 2974.92 1464.49 2946.93 1464.49 2942 1427.49Z" fill="#48494A" fill-rule="evenodd"/><path d="M3066 1455.08 3077.69 1426.01 3090.42 1426.01 3101.32 1399 3195.61 1399 3200.55 1426.01 3228.6 1426.01 3246 1519.66 3231.97 1547.96 3222.62 1547.96 3208.86 1576 3113.27 1576 3108.86 1547.96 3080.55 1547.96 3066 1455.08ZM3129.9 1509.11 3187.04 1509.11 3179.25 1464.86 3122.62 1464.86 3129.9 1509.11Z" fill="#48494A" fill-rule="evenodd"/><path d="M3319.09 1547.96 3304.11 1576 3265.63 1576 3238 1428.33 3251.69 1399 3289.65 1399 3295.07 1426.01 3323.22 1426.01 3328.9 1453.54 3353.69 1453.54 3348.52 1428.33 3363.76 1399 3401.46 1399 3434 1547.96 3417.47 1576 3379.25 1576 3373.57 1547.96 3345.43 1547.96 3339.74 1519.92 3314.18 1519.92 3319.09 1547.96Z" fill="#48494A" fill-rule="evenodd"/><path d="M1007.56 1399 1129.52 1399 1124.09 1426.16 1152 1426.16 1144.77 1463.91 1116.6 1463.91 1112.98 1482.02 1141.15 1482.02 1133.91 1520.55 1105.49 1520.55 1100.06 1549 975 1549 1007.56 1399ZM1033.91 1453.83 1108.33 1453.83 1111.69 1436.24 1037.53 1436.24 1033.91 1453.83ZM1022.03 1509.69 1097.22 1509.69 1100.84 1491.85 1025.9 1491.85 1022.03 1509.69Z" fill="url(#fill75)" fill-rule="evenodd"/><path d="M1184.76 1399 1335 1399 1329.03 1436.12 1216.16 1436.12 1213.05 1453.65 1269.61 1453.65 1263.13 1491.55 1206.3 1491.55 1203.19 1509.33 1317.62 1509.33 1311.39 1548 1157 1548 1184.76 1399Z" fill="url(#fill76)" fill-rule="evenodd"/><path d="M1362.74 1399 1484.71 1399 1481.09 1426.02 1509 1426.02 1497.11 1519.69 1468.69 1519.69 1465.07 1548 1340 1548 1362.74 1399ZM1384.45 1509.14 1459.64 1509.14 1469.46 1435.8 1395.3 1435.8 1384.45 1509.14Z" fill="url(#fill77)" fill-rule="evenodd"/><path d="M1642.87 1491.85 1567.65 1491.85 1561.17 1548.74 1522 1548.74 1540.16 1399 1662.58 1399 1659.99 1426.16 1688 1426.16 1684.37 1463.91 1656.1 1463.91 1654.28 1482.02 1682.55 1482.02 1676.33 1549 1637.42 1549 1642.87 1491.85ZM1571.8 1453.83 1646.5 1453.83 1648.32 1436.24 1573.88 1436.24 1571.8 1453.83Z" fill="url(#fill78)" fill-rule="evenodd"/><path d="M1715.29 1426.02 1743.51 1426.02 1745.84 1399 1839.85 1399 1838.03 1426.02 1866 1426.02 1860.3 1519.69 1831.82 1519.69 1830.01 1548 1733.41 1548 1735.74 1519.69 1707 1519.69 1715.29 1426.02ZM1746.88 1509.14 1822.24 1509.14 1827.16 1435.8 1752.84 1435.8 1746.88 1509.14Z" fill="url(#fill79)" fill-rule="evenodd"/><path d="M1893.19 1426.16 1921.48 1426.16 1922.78 1399 2017 1399 2015.97 1426.16 2044 1426.16 2042.96 1463.91 2004.55 1463.91 2005.58 1436.24 1931.09 1436.24 1927.45 1509.95 2002.99 1509.95 2004.03 1482.02 2042.7 1482.02 2041.66 1520.55 2013.11 1520.55 2012.07 1549 1915.25 1549 1916.81 1520.55 1888 1520.55 1893.19 1426.16Z" fill="url(#fill80)" fill-rule="evenodd"/><path d="M2155.96 1453.56 2156.22 1426.02 2184.44 1426.02 2184.44 1399 2222.22 1399 2222.48 1436.06 2194.53 1436.06 2194.53 1463.59 2166.06 1463.59 2165.8 1481.61 2194.27 1481.61 2194.27 1509.4 2222.74 1509.4 2223 1548 2184.18 1548 2184.18 1519.69 2155.45 1519.69 2155.71 1491.39 2109.12 1491.39 2108.08 1548 2069 1548 2072.62 1399 2110.67 1399 2109.64 1453.56 2155.96 1453.56 2155.96 1453.56Z" fill="url(#fill81)" fill-rule="evenodd"/><path d="M2298 1399 2447.05 1399 2448.59 1436.12 2336.61 1436.12 2337.13 1453.65 2393.25 1453.65 2394.54 1491.55 2338.16 1491.55 2338.67 1509.33 2452.2 1509.33 2454 1548 2300.83 1548 2298 1399Z" fill="url(#fill82)" fill-rule="evenodd"/><path d="M2475 1399 2597.6 1399 2599.68 1426.02 2627.73 1426.02 2635 1519.69 2606.43 1519.69 2608.51 1548 2482.79 1548 2475 1399ZM2519.42 1509.14 2595 1509.14 2589.81 1435.8 2515.26 1435.8 2519.42 1509.14Z" fill="url(#fill83)" fill-rule="evenodd"/><path d="M2653 1399 2746.98 1399 2750.61 1436.06 2722.65 1436.06 2729.64 1509.4 2758.12 1509.4 2762 1548 2665.43 1548 2662.32 1509.4 2691.06 1509.4 2684.59 1436.06 2656.37 1436.06 2653 1399Z" fill="url(#fill84)" fill-rule="evenodd"/><path d="M2775 1399 2924.11 1399 2929 1436.06 2873.12 1436.06 2886.51 1548 2847.62 1548 2835 1436.06 2779.12 1436.06 2775 1399Z" fill="url(#fill85)" fill-rule="evenodd"/><path d="M2952 1399 3045.96 1399 3051.66 1436.06 3023.7 1436.06 3034.57 1509.4 3063.05 1509.4 3069 1548 2972.45 1548 2967.27 1509.4 2996 1509.4 2985.65 1436.06 2957.44 1436.06 2952 1399Z" fill="url(#fill86)" fill-rule="evenodd"/><path d="M3078 1426.02 3106.22 1426.02 3101.82 1399 3195.78 1399 3200.7 1426.02 3228.66 1426.02 3246 1519.69 3217.53 1519.69 3222.7 1548 3126.15 1548 3121.49 1519.69 3092.75 1519.69 3078 1426.02ZM3130.03 1509.14 3205.36 1509.14 3192.16 1435.8 3117.86 1435.8 3130.03 1509.14Z" fill="url(#fill87)" fill-rule="evenodd"/><path d="M3320.31 1463.59 3302.53 1463.59 3319.28 1548 3280.36 1548 3252 1399 3289.89 1399 3295.31 1426.02 3323.41 1426.02 3329.08 1453.56 3357.18 1453.56 3362.85 1481.35 3381.15 1481.35 3363.88 1399 3401.52 1399 3434 1548 3395.33 1548 3389.4 1519.69 3360.79 1519.69 3355.12 1491.39 3326.76 1491.39 3320.31 1463.59Z" fill="url(#fill88)" fill-rule="evenodd"/><path d="M1038.78 1432 1038 1436 1112.48 1436 1113 1432Z" fill="#E3DCD9" fill-rule="evenodd"/><path d="M1026.78 1488 1026 1491 1101.22 1491 1102 1488Z" fill="#E3DCD9" fill-rule="evenodd"/><path d="M1106 1520 1134.23 1520 1135 1516 1106.77 1516Z" fill="#E3DCD9" fill-rule="evenodd"/><path d="M1117 1463 1144.5 1463 1145 1460 1117.76 1460Z" fill="#E3DCD9" fill-rule="evenodd"/><path d="M1206 1491 1263.48 1491 1264 1488 1206.78 1488Z" fill="#E3DCD9" fill-rule="evenodd"/><path d="M1216 1436 1328.48 1436 1329 1432 1216.78 1432Z" fill="#E3DCD9" fill-rule="evenodd"/><path d="M1395.52 1432 1395 1436 1469.48 1436 1470 1432Z" fill="#E3DCD9" fill-rule="evenodd"/><path d="M1469 1520 1496.75 1520 1497 1516 1469.5 1516Z" fill="#E3DCD9" fill-rule="evenodd"/><path d="M1574.26 1432 1574 1436 1648.48 1436 1649 1432Z" fill="#E3DCD9" fill-rule="evenodd"/><path d="M1643 1488 1567.52 1488 1567 1491 1642.74 1491Z" fill="#E3DCD9" fill-rule="evenodd"/><path d="M1656 1463 1683.75 1463 1684 1460 1656.25 1460Z" fill="#E3DCD9" fill-rule="evenodd"/><path d="M1753.26 1432 1753 1436 1826.74 1436 1827 1432Z" fill="#E3DCD9" fill-rule="evenodd"/><path d="M1736 1516 1707.26 1516 1707 1520 1735.74 1520Z" fill="#E3DCD9" fill-rule="evenodd"/><path d="M1831 1520 1859.74 1520 1860 1516 1831.26 1516Z" fill="#E3DCD9" fill-rule="evenodd"/><path d="M2006 1432 1931.26 1432 1931 1436 2006 1436Z" fill="#E3DCD9" fill-rule="evenodd"/><path d="M1917 1516 1888.26 1516 1888 1520 1917 1520Z" fill="#E3DCD9" fill-rule="evenodd"/><path d="M2013 1520 2041 1520 2041 1516 2013 1516Z" fill="#E3DCD9" fill-rule="evenodd"/><path d="M2005 1463 2043 1463 2043 1460 2005 1460Z" fill="#E3DCD9" fill-rule="evenodd"/><path d="M2166 1463 2194 1463 2194 1460 2166 1460Z" fill="#E3DCD9" fill-rule="evenodd"/><path d="M2156 1488 2109 1488 2109 1491 2156 1491Z" fill="#E3DCD9" fill-rule="evenodd"/><path d="M2194 1436 2222 1436 2222 1432 2194 1432Z" fill="#E3DCD9" fill-rule="evenodd"/><path d="M2184 1516 2155 1516 2155 1520 2184 1520Z" fill="#E3DCD9" fill-rule="evenodd"/><path d="M2338 1491 2395 1491 2395 1488 2338 1488Z" fill="#E3DCD9" fill-rule="evenodd"/><path d="M2337.26 1436 2449 1436 2449 1432 2337 1432Z" fill="#E3DCD9" fill-rule="evenodd"/><path d="M2515 1432 2515.26 1436 2590 1436 2589.74 1432Z" fill="#E3DCD9" fill-rule="evenodd"/><path d="M2606.25 1520 2634 1520 2633.75 1516 2606 1516Z" fill="#E3DCD9" fill-rule="evenodd"/><path d="M2683.75 1432 2656 1432 2656.25 1436 2684 1436Z" fill="#E3DCD9" fill-rule="evenodd"/><path d="M2722.26 1436 2751 1436 2750.47 1432 2722 1432Z" fill="#E3DCD9" fill-rule="evenodd"/><path d="M2834.74 1432 2778 1432 2778.52 1436 2835 1436Z" fill="#E3DCD9" fill-rule="evenodd"/><path d="M2873.26 1436 2929 1436 2928.49 1432 2873 1432Z" fill="#E3DCD9" fill-rule="evenodd"/><path d="M2984.5 1432 2957 1432 2957.5 1436 2985 1436Z" fill="#E3DCD9" fill-rule="evenodd"/><path d="M3023.51 1436 3051 1436 3050.75 1432 3023 1432Z" fill="#E3DCD9" fill-rule="evenodd"/><path d="M3121.47 1516 3092 1516 3092.53 1520 3122 1520Z" fill="#E3DCD9" fill-rule="evenodd"/><path d="M3117 1432 3117.52 1436 3192 1436 3191.48 1432Z" fill="#E3DCD9" fill-rule="evenodd"/><path d="M3217.77 1520 3246 1520 3245.23 1516 3217 1516Z" fill="#E3DCD9" fill-rule="evenodd"/><path d="M3319.21 1460 3301 1460 3301.53 1463 3320 1463Z" fill="#E3DCD9" fill-rule="evenodd"/><path d="M3388.21 1516 3359 1516 3359.79 1520 3389 1520Z" fill="#E3DCD9" fill-rule="evenodd"/><path d="M3353.23 1488 3325 1488 3325.51 1491 3354 1491Z" fill="#E3DCD9" fill-rule="evenodd"/></g></svg>