<?xml version="1.0" encoding="utf-8"?>
<!-- Generator: Adobe Illustrator 28.2.0, SVG Export Plug-In . SVG Version: 6.00 Build 0)  -->
<svg version="1.1" id="레이어_1" xmlns="http://www.w3.org/2000/svg" xmlns:xlink="http://www.w3.org/1999/xlink" x="0px"
	 y="0px" viewBox="0 0 272.5 79.3" style="enable-background:new 0 0 272.5 79.3;" xml:space="preserve">
<style type="text/css">
	.st0{fill:#332113;}
	.st1{fill:url(#SVGID_1_);}
	.st2{fill:url(#SVGID_00000093858972624394201210000015924758527607236506_);}
	.st3{fill:url(#SVGID_00000164494419623898925060000015964162701938338208_);}
	.st4{fill:url(#SVGID_00000151506565130609335740000000809988327313598863_);}
	.st5{fill:url(#SVGID_00000152943967172417225090000009557621556190612917_);}
	.st6{fill:url(#SVGID_00000085960045643683976240000008945056001906261144_);}
	.st7{fill:url(#SVGID_00000144322499508756257770000002761832021295577506_);}
	.st8{fill:url(#SVGID_00000058585200713347194360000005027122663386931630_);}
	.st9{fill:url(#SVGID_00000136395351466889912460000008453540320101220536_);}
	.st10{fill:url(#SVGID_00000093163858636732768760000004501238231148696972_);}
	.st11{fill:url(#SVGID_00000160153265686885581490000008782581731752133280_);}
	.st12{fill:url(#SVGID_00000018203023689831997310000009135871421074049158_);}
	.st13{fill:url(#SVGID_00000178163690203095752590000005486541810472488347_);}
	.st14{fill:url(#SVGID_00000066474262646521180230000013309871037052675736_);}
	.st15{fill:url(#SVGID_00000025427355159823219980000015414557385646101141_);}
	.st16{fill:url(#SVGID_00000071538666357303686890000007411481060430259604_);}
	.st17{fill:url(#SVGID_00000089561771460477254930000007945572238910831777_);}
	.st18{fill:url(#SVGID_00000128458388668355908980000012861582445662481284_);}
	.st19{fill:url(#SVGID_00000057849419297609215060000016568662255511299227_);}
	.st20{fill:url(#SVGID_00000166652572112336378280000004515081085132063934_);}
	.st21{fill:#030303;}
	.st22{fill:#F1B865;}
	.st23{fill:#F1DEC3;}
	.st24{fill:#452E16;}
	.st25{fill:#9F8134;}
	.st26{fill:#FFF4D9;}
	.st27{fill:url(#SVGID_00000005966609374270369540000011010220898347467966_);}
	.st28{fill:url(#SVGID_00000150821748832114194230000016563714376525727127_);}
	.st29{fill:url(#SVGID_00000048502817257523271700000013939855145316752519_);}
	.st30{fill:url(#SVGID_00000096036965006819534770000007847433366986297753_);}
	.st31{fill:url(#SVGID_00000044858645758788531160000008134232770231080888_);}
	.st32{fill:url(#SVGID_00000148657256305848004420000014722700550077855670_);}
	.st33{fill:url(#SVGID_00000072271496841590618380000007659136045459399099_);}
	.st34{fill:url(#SVGID_00000000939293978324128300000016349922601090878621_);}
	.st35{fill:url(#SVGID_00000038394946033344661700000009648721936729020575_);}
	.st36{fill:#29282A;}
	.st37{opacity:0.44;fill:#030303;enable-background:new    ;}
	.st38{opacity:0.5;}
	.st39{fill:#5A5558;}
	.st40{fill:#E0DBD6;}
</style>
<g>
	<g id="Base">
		<polygon points="272.5,53.6 261.7,15.9 237.5,15.9 233.9,21.5 232.7,15.9 211.6,15.9 210.5,18.2 210.1,15.9 185.6,15.9 184.6,19 
			184.2,15.9 172.6,15.9 170.8,23.2 167.8,23.2 166.3,29.8 163.9,29.8 163.6,23.2 162,23.2 161.6,15.9 149.8,15.9 146.8,47.7 
			147.6,79.3 158,79.3 159.6,72.1 159.7,75.2 166.7,75.2 166.9,79.3 177.1,79.3 177.9,77.6 178,79.3 198.9,79.3 199.9,77.8 
			200.1,79.3 218.2,79.3 220,77.3 221.9,77.3 222.3,79.3 243,79.3 248.5,74.5 247.7,70.7 252.9,70.7 259.3,65 258.2,60.3 
			264.8,60.3 		"/>
		<polygon points="127.1,15.9 126.9,26 126.1,15.9 114.1,15.9 113.9,21.2 113,15.9 88.3,15.9 88,18.9 87,15.9 62.5,15.9 62.2,18.2 
			61.1,15.9 36.8,15.9 36.3,17.8 35,15.9 10.9,15.9 0,53.6 19.8,70.7 24.9,70.7 24.1,74.5 29.7,79.3 50.4,79.3 51.6,72.7 57.1,79.3 
			67,79.3 68.2,71.2 73.6,79.3 94.6,79.3 94.8,77.6 95.5,79.3 105.7,79.3 105.8,77.3 106.5,79.3 116.7,79.3 117.2,68.3 121.3,68.3 
			122.8,79.3 133.4,79.3 133.4,68.3 139,68.3 139.2,53.1 139.1,15.9 		"/>
	</g>
	<g id="Top">
		<path class="st0" d="M161.3,59.1l-1.8-34.7h3l2.1,34.7H161.3z M171.2,59.1l-2.5-34.7h3l2.8,34.7H171.2z"/>
		
			<linearGradient id="SVGID_1_" gradientUnits="userSpaceOnUse" x1="254.669" y1="28.845" x2="254.669" y2="64.889" gradientTransform="matrix(1 0 0 -1 0 82)">
			<stop  offset="0" style="stop-color:#866E2B"/>
			<stop  offset="0.108" style="stop-color:#735B25"/>
			<stop  offset="0.264" style="stop-color:#5F471E"/>
			<stop  offset="0.441" style="stop-color:#50391A"/>
			<stop  offset="0.654" style="stop-color:#483117"/>
			<stop  offset="1" style="stop-color:#452E16"/>
		</linearGradient>
		<polygon class="st1" points="260.9,17.1 238.2,17.1 246.7,53.2 271.2,53.2 		"/>
		
			<linearGradient id="SVGID_00000127730557189862673430000006334710064982170301_" gradientUnits="userSpaceOnUse" x1="132.819" y1="28.845" x2="132.819" y2="64.889" gradientTransform="matrix(1 0 0 -1 0 82)">
			<stop  offset="0" style="stop-color:#866E2B"/>
			<stop  offset="0.108" style="stop-color:#735B25"/>
			<stop  offset="0.264" style="stop-color:#5F471E"/>
			<stop  offset="0.441" style="stop-color:#50391A"/>
			<stop  offset="0.654" style="stop-color:#483117"/>
			<stop  offset="1" style="stop-color:#452E16"/>
		</linearGradient>
		<polygon style="fill:url(#SVGID_00000127730557189862673430000006334710064982170301_);" points="128.2,17.1 127.6,53.2 
			138.1,53.2 137.9,17.1 		"/>
		
			<linearGradient id="SVGID_00000076581383624982461690000010329439314268225978_" gradientUnits="userSpaceOnUse" x1="17.869" y1="28.845" x2="17.869" y2="64.889" gradientTransform="matrix(1 0 0 -1 0 82)">
			<stop  offset="0" style="stop-color:#866E2B"/>
			<stop  offset="0.108" style="stop-color:#735B25"/>
			<stop  offset="0.264" style="stop-color:#5F471E"/>
			<stop  offset="0.441" style="stop-color:#50391A"/>
			<stop  offset="0.654" style="stop-color:#483117"/>
			<stop  offset="1" style="stop-color:#452E16"/>
		</linearGradient>
		<polygon style="fill:url(#SVGID_00000076581383624982461690000010329439314268225978_);" points="11.8,17.1 1.4,53.2 26,53.2 
			34.4,17.1 		"/>
		
			<linearGradient id="SVGID_00000093158401728495238140000000316982634759481518_" gradientUnits="userSpaceOnUse" x1="44.869" y1="28.845" x2="44.869" y2="64.889" gradientTransform="matrix(1 0 0 -1 0 82)">
			<stop  offset="0" style="stop-color:#866E2B"/>
			<stop  offset="0.108" style="stop-color:#735B25"/>
			<stop  offset="0.264" style="stop-color:#5F471E"/>
			<stop  offset="0.441" style="stop-color:#50391A"/>
			<stop  offset="0.654" style="stop-color:#483117"/>
			<stop  offset="1" style="stop-color:#452E16"/>
		</linearGradient>
		<polygon style="fill:url(#SVGID_00000093158401728495238140000000316982634759481518_);" points="37.7,17.1 29.5,53.2 54,53.2 
			60.3,17.1 		"/>
		
			<linearGradient id="SVGID_00000133513218759432829070000018299057141867592853_" gradientUnits="userSpaceOnUse" x1="71.819" y1="28.845" x2="71.819" y2="64.889" gradientTransform="matrix(1 0 0 -1 0 82)">
			<stop  offset="0" style="stop-color:#866E2B"/>
			<stop  offset="0.108" style="stop-color:#735B25"/>
			<stop  offset="0.264" style="stop-color:#5F471E"/>
			<stop  offset="0.441" style="stop-color:#50391A"/>
			<stop  offset="0.654" style="stop-color:#483117"/>
			<stop  offset="1" style="stop-color:#452E16"/>
		</linearGradient>
		<polygon style="fill:url(#SVGID_00000133513218759432829070000018299057141867592853_);" points="63.6,17.1 57.5,53.2 82,53.2 
			86.2,17.1 		"/>
		
			<linearGradient id="SVGID_00000016782730506832722350000011421232151497579433_" gradientUnits="userSpaceOnUse" x1="98.769" y1="28.845" x2="98.769" y2="64.889" gradientTransform="matrix(1 0 0 -1 0 82)">
			<stop  offset="0" style="stop-color:#866E2B"/>
			<stop  offset="0.108" style="stop-color:#735B25"/>
			<stop  offset="0.264" style="stop-color:#5F471E"/>
			<stop  offset="0.441" style="stop-color:#50391A"/>
			<stop  offset="0.654" style="stop-color:#483117"/>
			<stop  offset="1" style="stop-color:#452E16"/>
		</linearGradient>
		<polygon style="fill:url(#SVGID_00000016782730506832722350000011421232151497579433_);" points="85.5,53.2 110.1,53.2 
			112.1,17.1 89.4,17.1 		"/>
		
			<linearGradient id="SVGID_00000147926127652604532100000008639233715913354892_" gradientUnits="userSpaceOnUse" x1="156.719" y1="28.845" x2="156.719" y2="64.889" gradientTransform="matrix(1 0 0 -1 0 82)">
			<stop  offset="0" style="stop-color:#866E2B"/>
			<stop  offset="0.108" style="stop-color:#735B25"/>
			<stop  offset="0.264" style="stop-color:#5F471E"/>
			<stop  offset="0.441" style="stop-color:#50391A"/>
			<stop  offset="0.654" style="stop-color:#483117"/>
			<stop  offset="1" style="stop-color:#452E16"/>
		</linearGradient>
		<polygon style="fill:url(#SVGID_00000147926127652604532100000008639233715913354892_);" points="150.9,17.1 152.1,53.2 
			162.6,53.2 160.6,17.1 		"/>
		
			<linearGradient id="SVGID_00000111878336601354489550000009422767955805045917_" gradientUnits="userSpaceOnUse" x1="180.269" y1="28.845" x2="180.269" y2="64.889" gradientTransform="matrix(1 0 0 -1 0 82)">
			<stop  offset="0" style="stop-color:#866E2B"/>
			<stop  offset="0.108" style="stop-color:#735B25"/>
			<stop  offset="0.264" style="stop-color:#5F471E"/>
			<stop  offset="0.441" style="stop-color:#50391A"/>
			<stop  offset="0.654" style="stop-color:#483117"/>
			<stop  offset="1" style="stop-color:#452E16"/>
		</linearGradient>
		<polygon style="fill:url(#SVGID_00000111878336601354489550000009422767955805045917_);" points="173.5,17.1 176.6,53.2 
			187.1,53.2 183.2,17.1 		"/>
		
			<linearGradient id="SVGID_00000047046301814528342380000000784360200495383438_" gradientUnits="userSpaceOnUse" x1="200.819" y1="28.845" x2="200.819" y2="64.889" gradientTransform="matrix(1 0 0 -1 0 82)">
			<stop  offset="0" style="stop-color:#866E2B"/>
			<stop  offset="0.108" style="stop-color:#735B25"/>
			<stop  offset="0.264" style="stop-color:#5F471E"/>
			<stop  offset="0.441" style="stop-color:#50391A"/>
			<stop  offset="0.654" style="stop-color:#483117"/>
			<stop  offset="1" style="stop-color:#452E16"/>
		</linearGradient>
		<polygon style="fill:url(#SVGID_00000047046301814528342380000000784360200495383438_);" points="186.5,17.1 190.6,53.2 
			215.2,53.2 209.1,17.1 		"/>
		
			<linearGradient id="SVGID_00000039114497503862282220000003390521954084878501_" gradientUnits="userSpaceOnUse" x1="225.969" y1="28.845" x2="225.969" y2="64.889" gradientTransform="matrix(1 0 0 -1 0 82)">
			<stop  offset="0" style="stop-color:#866E2B"/>
			<stop  offset="0.108" style="stop-color:#735B25"/>
			<stop  offset="0.264" style="stop-color:#5F471E"/>
			<stop  offset="0.441" style="stop-color:#50391A"/>
			<stop  offset="0.654" style="stop-color:#483117"/>
			<stop  offset="1" style="stop-color:#452E16"/>
		</linearGradient>
		<polygon style="fill:url(#SVGID_00000039114497503862282220000003390521954084878501_);" points="212.3,17.1 218.7,53.2 
			239.7,53.2 231.7,17.1 		"/>
		
			<linearGradient id="SVGID_00000153689101366345452830000014808645833109407659_" gradientUnits="userSpaceOnUse" x1="119.269" y1="28.845" x2="119.269" y2="64.889" gradientTransform="matrix(1 0 0 -1 0 82)">
			<stop  offset="0" style="stop-color:#866E2B"/>
			<stop  offset="0.108" style="stop-color:#735B25"/>
			<stop  offset="0.264" style="stop-color:#5F471E"/>
			<stop  offset="0.441" style="stop-color:#50391A"/>
			<stop  offset="0.654" style="stop-color:#483117"/>
			<stop  offset="1" style="stop-color:#452E16"/>
		</linearGradient>
		<polygon style="fill:url(#SVGID_00000153689101366345452830000014808645833109407659_);" points="113.6,53.2 124.1,53.2 125,17.1 
			115.3,17.1 		"/>
	</g>
	<g id="Front">
		
			<linearGradient id="SVGID_00000105404272564309536450000001799212670714381705_" gradientUnits="userSpaceOnUse" x1="247.169" y1="28.845" x2="247.169" y2="3.888" gradientTransform="matrix(1 0 0 -1 0 82)">
			<stop  offset="0" style="stop-color:#FFD475"/>
			<stop  offset="1" style="stop-color:#865C29"/>
		</linearGradient>
		<polygon style="fill:url(#SVGID_00000105404272564309536450000001799212670714381705_);" points="264.4,59.1 271.2,53.2 
			246.7,53.2 223.2,78.1 242.5,78.1 247.3,74 235.7,74 240.3,69.5 252.4,69.5 258.1,64.6 245.4,64.6 251,59.1 		"/>
		
			<linearGradient id="SVGID_00000068642521784608085050000012210450837059169952_" gradientUnits="userSpaceOnUse" x1="224.2" y1="28.845" x2="224.2" y2="3.888" gradientTransform="matrix(1 0 0 -1 -3.4307 81.5)">
			<stop  offset="0" style="stop-color:#FFD475"/>
			<stop  offset="1" style="stop-color:#865C29"/>
		</linearGradient>
		<path style="fill:url(#SVGID_00000068642521784608085050000012210450837059169952_);" d="M237,56.3l2.7-3.1h-21l-17.5,25h16.5
			l1.8-2h2.8l18.1-19.9L237,56.3z M215.6,74h-2.8l11.7-14.8h3.3L215.6,74z"/>
		
			<linearGradient id="SVGID_00000106129837934363728120000017242406275073454215_" gradientUnits="userSpaceOnUse" x1="200.55" y1="28.845" x2="200.55" y2="3.888" gradientTransform="matrix(1 0 0 -1 -3.4307 81.5)">
			<stop  offset="0" style="stop-color:#FFD475"/>
			<stop  offset="1" style="stop-color:#865C29"/>
		</linearGradient>
		<path style="fill:url(#SVGID_00000106129837934363728120000017242406275073454215_);" d="M190.7,53.1l-11.6,25h19.3l16.8-25H190.7
			z M192.5,74h-2.9l8.2-14.9v0.1h3.4L192.5,74z"/>
		
			<linearGradient id="SVGID_00000071541943013920297740000007877838363871059383_" gradientUnits="userSpaceOnUse" x1="167.919" y1="28.845" x2="167.919" y2="3.888" gradientTransform="matrix(1 0 0 -1 0 82)">
			<stop  offset="0" style="stop-color:#FFD475"/>
			<stop  offset="1" style="stop-color:#865C29"/>
		</linearGradient>
		<polygon style="fill:url(#SVGID_00000071541943013920297740000007877838363871059383_);" points="176.6,53.2 174.5,59.1 
			171.2,59.1 169.6,64.6 163.2,64.6 164.6,59.1 161.3,59.1 162.6,53.2 152.1,53.2 148.8,78.1 157,78.1 159,69.5 161.9,69.5 
			160.8,74 166.6,74 168,69.5 171,69.5 168.1,78.1 176.3,78.1 187.1,53.2 		"/>
		
			<linearGradient id="SVGID_00000040574506708094398780000015391325538935686587_" gradientUnits="userSpaceOnUse" x1="125.819" y1="28.845" x2="125.819" y2="3.888" gradientTransform="matrix(1 0 0 -1 0 82)">
			<stop  offset="0" style="stop-color:#FFD475"/>
			<stop  offset="1" style="stop-color:#865C29"/>
		</linearGradient>
		<polygon style="fill:url(#SVGID_00000040574506708094398780000015391325538935686587_);" points="128.4,64.6 125.2,64.6 
			124.1,53.2 113.6,53.2 116.3,67.1 122.4,67.1 123.9,78.1 132.2,78.1 131.7,67.1 137.9,67.1 138.1,53.2 127.6,53.2 		"/>
		
			<linearGradient id="SVGID_00000018206929428511904540000003939050084759168393_" gradientUnits="userSpaceOnUse" x1="103.9" y1="28.845" x2="103.9" y2="3.888" gradientTransform="matrix(1 0 0 -1 -3.4307 81.5)">
			<stop  offset="0" style="stop-color:#FFD475"/>
			<stop  offset="1" style="stop-color:#865C29"/>
		</linearGradient>
		<path style="fill:url(#SVGID_00000018206929428511904540000003939050084759168393_);" d="M110,67.1l-0.6-2.5h3.2L110,53.1H85.5
			l10.8,25h8.2l-2.9-8.6h3l2.6,8.6h8.3l-2.4-11H110z M100,64.5l-1.9-5.4h3.4l1.7,5.4H100z"/>
		
			<linearGradient id="SVGID_00000015350425264435484820000014526457086066502827_" gradientUnits="userSpaceOnUse" x1="78.95" y1="28.845" x2="78.95" y2="3.888" gradientTransform="matrix(1 0 0 -1 -3.4307 81.5)">
			<stop  offset="0" style="stop-color:#FFD475"/>
			<stop  offset="1" style="stop-color:#865C29"/>
		</linearGradient>
		<path style="fill:url(#SVGID_00000015350425264435484820000014526457086066502827_);" d="M57.5,53.1l16.8,25h19.3L82,53.1H57.5z
			 M80.2,73.9l-8.7-14.8h3.4l8.2,14.8H80.2z"/>
		
			<linearGradient id="SVGID_00000139292751584478837490000015787587586660190653_" gradientUnits="userSpaceOnUse" x1="47.719" y1="28.845" x2="47.719" y2="3.888" gradientTransform="matrix(1 0 0 -1 0 82)">
			<stop  offset="0" style="stop-color:#FFD475"/>
			<stop  offset="1" style="stop-color:#865C29"/>
		</linearGradient>
		<polygon style="fill:url(#SVGID_00000139292751584478837490000015787587586660190653_);" points="58.2,59.1 54,53.2 29.5,53.2 
			34.9,59.1 41.6,59.1 57.7,78.1 66,78.1 51.6,59.1 		"/>
		
			<linearGradient id="SVGID_00000119078069019462028750000013027677582897594270_" gradientUnits="userSpaceOnUse" x1="25.369" y1="28.845" x2="25.369" y2="3.888" gradientTransform="matrix(1 0 0 -1 0 82)">
			<stop  offset="0" style="stop-color:#FFD475"/>
			<stop  offset="1" style="stop-color:#865C29"/>
		</linearGradient>
		<polygon style="fill:url(#SVGID_00000119078069019462028750000013027677582897594270_);" points="24.1,64.6 18.3,59.1 31.6,59.1 
			26,53.2 1.4,53.2 20.3,69.5 32.3,69.5 36.9,74 25.4,74 30.1,78.1 49.4,78.1 36.7,64.6 		"/>
	</g>
	<g id="Cracks">
		<path class="st21" d="M128.1,76.8l-0.5,2.1h1.3l-0.5-2.1C128.3,76.4,128.2,76.4,128.1,76.8z"/>
		<path class="st21" d="M148.7,73l1,1.9c0.2,0.3,0.2,0.3,0.2-0.1l-0.6-4.8L148.7,73z"/>
		<path class="st21" d="M59.9,77.1l1.2,1.8h2.3l-3.3-2C59.8,76.7,59.7,76.8,59.9,77.1z"/>
		<path class="st21" d="M54.4,56.3c-0.4,0-0.4,0.1,0,0.2l2.9,0.4l-0.6-1L54.4,56.3z"/>
		<path class="st21" d="M233.1,77.1l-1.5,1.8h1.5l0.3-1.7C233.5,76.9,233.3,76.8,233.1,77.1z"/>
		<path class="st21" d="M242.4,61.7l7.6,1.1l0.5-1.5l-8.1,0.3C242,61.6,242,61.6,242.4,61.7z"/>
		<path class="st21" d="M264.1,52.3l-0.7-1.2c-0.2-0.3-0.4-0.3-0.4,0.1v1.7l-1.3,2.6l2.3-2.1C264.3,53.1,264.4,52.6,264.1,52.3
			C264.1,52.3,264.1,52.3,264.1,52.3z"/>
		<path class="st21" d="M62,61.6l0.9,1.1l5.8-0.6c0.4,0,0.4-0.1,0-0.1L62,61.6z"/>
		<path class="st21" d="M42.9,74.9c-0.4,0.1-0.4,0.2,0,0.2l4.3,0.1L46.1,74L42.9,74.9z"/>
		<path class="st21" d="M77.5,50.3l-0.6,1.9c-0.2,0.4-0.2,0.9,0,1.3l0.7,1.8l0.2-2.5l-0.1-2.5C77.7,50,77.6,49.9,77.5,50.3z"/>
		<path class="st21" d="M10.2,50c0-0.3-0.1-0.4-0.2,0l-1,2.7c-0.1,0.4,0,0.8,0.3,1.1l2.3,2.1L10,53.2L10.2,50z"/>
		<path class="st21" d="M15.6,66.6l1.1,0.9l2.3-1.1c0.4-0.2,0.4-0.2,0-0.2L15.6,66.6z"/>
		<path class="st21" d="M203.5,73.7l-0.8,1.5l5.8-0.7c0.4-0.1,0.4-0.2,0-0.2L203.5,73.7z"/>
		<path class="st21" d="M181.8,50.9v4.2l0.8-1.8l-0.6-2.4C181.9,50.5,181.8,50.5,181.8,50.9z"/>
		<path class="st21" d="M99.6,74c-0.4,0-0.4,0.1,0,0.2l4.8,1l-0.3-1.7L99.6,74z"/>
		<path class="st21" d="M160.3,62.1c-0.4,0-0.4,0.1,0,0.2l5.8,1.1l-1.5-1.8L160.3,62.1z"/>
		<path class="st21" d="M192.8,63.6l2.9,1l0.6-1.2h-3.5C192.4,63.4,192.4,63.5,192.8,63.6z"/>
		<path class="st21" d="M225,51.2c-0.1-0.4-0.3-0.3-0.3,0V54c0,0.4,0.2,0.4,0.4,0.1l0.3-0.4c0.2-0.4,0.2-0.9,0.1-1.3L225,51.2z"/>
		<path class="st21" d="M118.2,50.6l-0.3,1.7v1.3l0.3,1.5l0.6-2.1l-0.4-2.4C118.4,50.2,118.3,50.2,118.2,50.6z"/>
		<path class="st21" d="M133.8,60.8l4.9,0.8V60l-4.9,0.6C133.4,60.6,133.4,60.7,133.8,60.8z"/>
	</g>
	<g id="Highlights">
		<path class="st22" d="M158.9,62C158.5,61.9,158.5,62,158.9,62l1,0.7c0.4,0.2,0.8,0.3,1.3,0.3h0.8c0.4,0,0.4-0.1,0-0.2L158.9,62z"
			/>
		<path class="st22" d="M102.7,64.6l-2.4,0.1c-0.4,0-0.6,0.1-0.6,0.3c0,0.2,0.4,0.3,0.8,0.3h2c0.4,0,0.7-0.1,0.8-0.4
			C103.3,64.7,103.1,64.6,102.7,64.6z"/>
		<path class="st22" d="M98.7,74.2C98.3,74.1,98.3,74.2,98.7,74.2l1.1,0.7c0.4,0.2,0.9,0.3,1.3,0.2h0.7c0.4,0,0.4-0.1,0-0.2
			L98.7,74.2z"/>
		<path class="st22" d="M128.3,64.6l-2.4,0.1c-0.4,0-0.6,0.1-0.6,0.3c0,0.1,0.4,0.3,0.8,0.3h2c0.4,0,0.7-0.1,0.8-0.4
			C128.9,64.7,128.7,64.6,128.3,64.6z"/>
		<path class="st22" d="M132.9,60.7c-0.4-0.1-0.4,0-0.1,0.2l0.6,0.4c0.4,0.2,0.8,0.3,1.2,0.3h2.2c0.4,0,0.4-0.1,0-0.2L132.9,60.7z"
			/>
		<path class="st22" d="M19.7,66.1l-0.8,0.6C18.5,66.9,18.6,67,19,67c0.4-0.1,0.8-0.3,1-0.7C20.2,66,20,65.9,19.7,66.1z"/>
		<path class="st22" d="M68.5,62.1l-3.1,0.6c-0.4,0.1-0.4,0.2,0,0.2l0.2,0.1c0.4,0,0.9-0.1,1.3-0.2L68.5,62.1
			C68.9,62.1,68.9,62,68.5,62.1z"/>
		<path class="st22" d="M243,62.3l0.4,0.2c0.4,0.2,0.8,0.3,1.3,0.3h1.4c0.4,0,0.4,0,0-0.1l-3-0.6C242.7,62,242.7,62.1,243,62.3z"/>
		<path class="st22" d="M161.7,59.8h2c0.4,0,0.7-0.1,0.8-0.4c0-0.2-0.2-0.3-0.6-0.3l-2.4,0.1c-0.4,0-0.6,0.1-0.6,0.3
			C160.9,59.6,161.3,59.8,161.7,59.8z"/>
		<path class="st22" d="M36,64.6l-11.3,0.1c-0.4,0-0.5,0.1-0.3,0.3c0.3,0.2,0.7,0.3,1,0.3h9.9c0.4,0,0.9-0.1,1-0.4
			C36.5,64.7,36.3,64.6,36,64.6z"/>
		<path class="st22" d="M45.1,75.3H42c-0.4,0-0.4,0,0,0.1l2.8,0.4c0.3,0,0.6-0.1,0.8-0.2C45.7,75.5,45.5,75.3,45.1,75.3z"/>
		<path class="st22" d="M82.7,73.9L80.3,74c-0.4,0-0.6,0.1-0.6,0.3c0,0.1,0.4,0.3,0.8,0.3h2c0.4,0,0.7-0.1,0.8-0.4
			C83.3,74,83.1,73.9,82.7,73.9z"/>
		<path class="st22" d="M215.2,74.1l-2.4,0.1c-0.4,0-0.6,0.1-0.6,0.3c0,0.1,0.4,0.3,0.8,0.3h2c0.4,0,0.7-0.1,0.8-0.4
			C215.8,74.2,215.6,74.1,215.2,74.1z"/>
		<path class="st22" d="M225.4,54l-1,1.1c-0.3,0.3-0.2,0.4,0.2,0.3c0.4-0.1,0.8-0.5,0.9-0.9l0.1-0.4C225.7,53.7,225.6,53.7,225.4,54
			z"/>
		<path class="st22" d="M246.5,74.1l-10.4,0.1c-0.4,0-0.5,0.1-0.4,0.3c0.3,0.2,0.6,0.3,1,0.3h9.2c0.4,0,0.8-0.1,1-0.4
			C247.1,74.2,246.9,74.1,246.5,74.1z"/>
		<path class="st22" d="M263.7,54.3l-1.8,2c-0.3,0.3-0.2,0.3,0.1,0.1l1.1-0.8c0.3-0.4,0.6-0.8,0.8-1.2C264,54,263.9,54,263.7,54.3z"
			/>
		<path class="st22" d="M257.3,64.6L246,64.7c-0.4,0-0.5,0.1-0.3,0.3c0.3,0.2,0.7,0.3,1,0.3h9.9c0.4,0,0.9-0.1,1-0.4
			C257.8,64.7,257.6,64.6,257.3,64.6z"/>
		<path class="st22" d="M193.9,64.3l-1.6-0.9c-0.3-0.2-0.4-0.1-0.2,0.2l0.1,0.2c0.3,0.3,0.7,0.6,1.1,0.6l0.5,0.1
			C194.2,64.5,194.2,64.5,193.9,64.3z"/>
		<path class="st22" d="M174.3,59.1l-2.4,0.1c-0.4,0-0.6,0.1-0.6,0.3c0,0.1,0.4,0.3,0.8,0.3h2c0.4,0,0.7-0.1,0.8-0.4
			C174.9,59.2,174.7,59.1,174.3,59.1z"/>
		<path class="st22" d="M192.5,74.1l-2.4,0.1c-0.4,0-0.6,0.1-0.6,0.3c0,0.1,0.4,0.3,0.8,0.3h2c0.4,0,0.7-0.1,0.8-0.4
			C193.1,74.2,192.9,74.1,192.5,74.1z"/>
		<path class="st22" d="M182.5,54.1l-0.7,1.4c-0.2,0.3-0.1,0.4,0.2,0.2l0.6-0.5c0.3-0.3,0.5-0.7,0.4-1.1
			C182.9,53.7,182.7,53.7,182.5,54.1z"/>
		<path class="st22" d="M168.6,64.6l-5.2,0.1c-0.4,0-0.6,0.1-0.5,0.3c0.3,0.2,0.6,0.3,0.9,0.3h4.4c0.4,0,0.8-0.1,0.9-0.4
			C169.2,64.7,169,64.6,168.6,64.6z"/>
		<path class="st22" d="M204,75.1c-0.4,0-0.4,0.1,0,0.2l1.8,0.6c0.4,0.1,0.9,0.1,1.3-0.1l1-0.6c0.3-0.2,0.3-0.3-0.1-0.3L204,75.1z"
			/>
		<path class="st22" d="M60.1,77.1c-0.2-0.3-0.3-0.3-0.2,0.1v0.2c0.1,0.4,0.2,0.7,0.4,0.6c0.1,0,0.1-0.3-0.1-0.7L60.1,77.1z"/>
		<path id="Highlight5" class="st23" d="M55.9,57.3c0.4,0,0.4-0.1,0-0.2C55.5,57,55.1,57,54.7,57c-0.4,0-0.4,0.1,0,0.2
			C55.1,57.3,55.5,57.4,55.9,57.3z"/>
		<path id="Highlight4" class="st24" d="M203,74.4V72c0-0.4,0.1-0.4,0.2,0l0.7,2.3 M103.9,75l0.1-2.9c0-0.4,0-0.4-0.1,0l-0.5,1.7
			 M47.1,74.6l0.5-3.9c0-0.4,0-0.4-0.1,0l-1.1,3.4"/>
		<path id="Highlight3" class="st25" d="M26.2,74c-0.4,0-0.5,0.1-0.4,0.3c0.3,0.2,0.6,0.3,1,0.3h8.5c0.4,0,0.8-0.1,1-0.4
			c0.2-0.2,0-0.3-0.4-0.3L26.2,74z"/>
		<path id="Hightlight2" class="st26" d="M2.2,52.9c-0.4,0-0.6,0.1-0.5,0.3c0.3,0.2,0.6,0.3,0.9,0.3h5.2c0.4,0,0.8-0.1,0.9-0.4
			c0.1-0.2-0.1-0.3-0.5-0.3L2.2,52.9z M10.8,52.9c-0.4,0-0.5,0.1-0.2,0.3c0.3,0.2,0.7,0.3,1.1,0.3h12.6c0.4,0,0.8-0.1,1.1-0.4
			c0.2-0.2,0.1-0.3-0.2-0.3L10.8,52.9z M30,52.9c-0.4,0-0.4,0.1,0,0.3h0.1c0.4,0.1,0.9,0.2,1.3,0.3h20.5c0.5,0,0.9-0.1,1.3-0.3
			l0.2-0.1c0.3-0.2,0.3-0.3-0.1-0.3L30,52.9z M58,52.9c-0.4,0-0.5,0.1-0.1,0.3c0.4,0.1,0.8,0.2,1.2,0.3h15.7c0.4,0,0.9-0.1,1.2-0.4
			c0.3-0.2,0.2-0.3-0.1-0.3L58,52.9z M78.4,52.9c-0.4,0-0.6,0.1-0.5,0.3c0,0.1,0.4,0.3,0.8,0.3h2.4c0.4,0,0.7-0.1,0.8-0.4
			c0-0.2-0.2-0.3-0.5-0.3L78.4,52.9z M86.1,52.9c-0.4,0-0.4,0.1,0,0.3h0.1c0.4,0.1,0.9,0.2,1.3,0.3H108c0.5,0,0.9-0.1,1.3-0.3
			l0.2-0.1c0.3-0.2,0.3-0.3-0.1-0.3L86.1,52.9z"/>
		<path id="Highlight" class="st26" d="M191.3,52.9c-0.4,0-0.4,0.1,0,0.3h0.1c0.4,0.1,0.9,0.2,1.3,0.3h20.5c0.5,0,0.9-0.1,1.3-0.3
			l0.2-0.1c0.3-0.2,0.3-0.3-0.1-0.3L191.3,52.9z M247.3,52.9c-0.4,0-0.5,0.1-0.2,0.3c0.4,0.1,0.7,0.2,1.1,0.3h13.2
			c0.4,0,0.8-0.1,1.1-0.4c0.3-0.2,0.2-0.3-0.2-0.3L247.3,52.9L247.3,52.9z M264.8,52.9c-0.4,0-0.6,0.1-0.5,0.3
			c0.3,0.2,0.6,0.3,0.9,0.3h5c0.4,0,0.8-0.1,0.9-0.4c0.1-0.2-0.1-0.3-0.5-0.3L264.8,52.9z M219.2,52.9c-0.4,0-0.6,0.1-0.5,0.3
			c0.3,0.2,0.6,0.3,0.9,0.3h4.1c0.4,0,0.8-0.1,0.9-0.4c0.1-0.2-0.1-0.3-0.5-0.3L219.2,52.9z M226.1,52.9c-0.4,0-0.5,0.1-0.3,0.3
			c0.3,0.2,0.7,0.3,1.1,0.3h11.4c0.4,0,0.8-0.1,1.1-0.4c0.2-0.2,0.1-0.3-0.3-0.3L226.1,52.9z M177.2,52.9c-0.4,0-0.6,0.1-0.5,0.3
			c0.2,0.2,0.5,0.3,0.8,0.3h3.3c0.4,0,0.7-0.1,0.8-0.4c0.1-0.2-0.1-0.3-0.5-0.3L177.2,52.9L177.2,52.9z M183.3,52.9
			c-0.4,0-0.6,0.1-0.5,0.3c0.2,0.2,0.5,0.3,0.8,0.3h2.8c0.4,0,0.7-0.1,0.8-0.4c0.1-0.2-0.2-0.3-0.5-0.3L183.3,52.9L183.3,52.9z
			 M152.8,52.9c-0.4,0-0.5,0.1-0.4,0.3c0.3,0.2,0.6,0.3,1,0.3h8c0.4,0,0.8-0.1,1-0.4c0.2-0.2,0-0.3-0.4-0.3L152.8,52.9L152.8,52.9z
			 M128.2,52.9c-0.4,0-0.5,0.1-0.4,0.3c0.3,0.2,0.6,0.3,1,0.3h8c0.4,0,0.8-0.1,1-0.4c0.2-0.2,0-0.3-0.4-0.3L128.2,52.9L128.2,52.9z
			 M119.4,52.9c-0.4,0-0.6,0.1-0.5,0.3c0.2,0.2,0.5,0.3,0.8,0.3h3.3c0.4,0,0.7-0.1,0.8-0.4c0.1-0.2-0.1-0.3-0.5-0.3L119.4,52.9z
			 M114.1,52.9c-0.4,0-0.6,0.1-0.5,0.3c0,0.1,0.4,0.3,0.8,0.3h2.4c0.4,0,0.7-0.1,0.8-0.4c0-0.2-0.2-0.3-0.5-0.3L114.1,52.9z"/>
	</g>
</g>
<g>
	<path d="M167.1,7.6l0.4,6.6h4.1l-0.5-6.6H167.1z M205.1,7h-4.9l0.4,3.7h-3.8L196.3,7h-4.8l0.5,4.1h4.4l0.2,1.5h-2.2l0.8,6.2h2.6
		l-0.1-2.1h3.9l0.3,2.1h2.6l-0.9-6.2h-2.2l-0.2-1.5h4.5L205.1,7z"/>
	<path class="st21" d="M12.6,44.5L1.6,34L12.2,0.2h11.9L31,9.9l0.9-3.6h3.6l1.6-6.1h12.1L50.8,3l0.5-2.8h12.2l1.6,3.2l0.6-3.2h12.2
		l2.4,6.1h0.2l1.6,3.9l1.4-10.1h12.3l1.4,5.2l0.6-5.2h26.8l1.3,12.3l-0.3,6.9h-0.7l0.5,4.9l-0.2,7.3h-1l0.8,5.2l-0.3,7.8H98L96.4,40
		L96,44.5H83.7l-4.3-9.2l-1.3,9.2H66l-1.7-2.8l-0.5,2.8H51.7L50,42.1l-0.5,2.4H37.4l-5.6-6.7h-3.4l-1.8-1.9l-2.2,8.6H12.6z
		 M169.1,37.5l-1.5,7h-12.5l-1-32.1l1.1-12.3h26.9l0.5,5.4L184,0h26.7l0.6,3.5l1.5-3.5h26.7l0.6,2.6l1.6-2.6h26.6l2.3,7.3l-5.5,6.7
		l0.2,0.6c0.4,1.3,0.8,2.7,1.2,4c0.3,1,0.6,1.9,0.9,2.9l1.1,3.8c0,0,0.6,2.1,0.8,2.6c0.3,0.9,0.5,1.8,0.8,2.7
		c0.3,0.9,0.5,1.8,0.8,2.7l0.2,0.6l-10.3,10.5h-12.2l-5.4-22.6l-6.8,9.6h-4.8l0.5,2.4l-7.2,10.6h-12.2l-0.5-3l-1.7,3h-12.2l-0.5-3.6
		l-1.6,3.6h-12.3l-0.5-4.7l-1.6,4.7h-12.4L169.1,37.5z M125.3,33.8l1.1-33.7h26.9l0.3,7.1l-0.9,12l-13.4,0.1l-0.2,6.3h15l0.2,8.2
		l-1,10.7h-26.8L125.3,33.8z"/>
	
		<linearGradient id="SVGID_00000085212176655526870720000007261634469681997452_" gradientUnits="userSpaceOnUse" x1="29" y1="114" x2="29" y2="146.148" gradientTransform="matrix(1 0 0 -1 -3.4307 147.5)">
		<stop  offset="0" style="stop-color:#D9CDCA"/>
		<stop  offset="1" style="stop-color:#A89F9C"/>
	</linearGradient>
	<path style="fill:url(#SVGID_00000085212176655526870720000007261634469681997452_);" d="M25.1,7.3l-1.8,6.3h7.8l1.7-6.2h3.6
		l1.5-6.1h10.4L41,33.5H29.8l3.3-13.7h-4l-1.7,6.7h-7.3l1.8-6.7h-4l-4,13.7h-11L13,1.3h10.2l-1.7,5.9L25.1,7.3z"/>
	
		<linearGradient id="SVGID_00000074413636697656369910000001196783651584665001_" gradientUnits="userSpaceOnUse" x1="57.3" y1="114" x2="57.3" y2="146.148" gradientTransform="matrix(1 0 0 -1 -3.4307 147.5)">
		<stop  offset="0" style="stop-color:#D9CDCA"/>
		<stop  offset="1" style="stop-color:#A89F9C"/>
	</linearGradient>
	<path style="fill:url(#SVGID_00000074413636697656369910000001196783651584665001_);" d="M62.6,1.4l-6.2,32.1H45.2l7-32.1L62.6,1.4
		z"/>
	
		<linearGradient id="SVGID_00000173127516823514375560000000411160932416845744_" gradientUnits="userSpaceOnUse" x1="81.15" y1="114" x2="81.15" y2="146.148" gradientTransform="matrix(1 0 0 -1 -3.4307 147.5)">
		<stop  offset="0" style="stop-color:#D9CDCA"/>
		<stop  offset="1" style="stop-color:#A89F9C"/>
	</linearGradient>
	<path style="fill:url(#SVGID_00000173127516823514375560000000411160932416845744_);" d="M77.7,23.1l0.9-6.6l-4.1-0.1l-2.6,17
		l-11.2,0.1l5.9-32.2h10.3L76,7.2l3.6,0.1l-0.8,6.2l3.9,0.1l1.7-12.3h10.4l-3.6,32.1H80l1.4-10.2L77.7,23.1z"/>
	
		<linearGradient id="SVGID_00000103971998567414161650000002864010594509635999_" gradientUnits="userSpaceOnUse" x1="112.9" y1="114" x2="112.9" y2="146.148" gradientTransform="matrix(1 0 0 -1 -3.4307 147.5)">
		<stop  offset="0" style="stop-color:#D9CDCA"/>
		<stop  offset="1" style="stop-color:#A89F9C"/>
	</linearGradient>
	<path style="fill:url(#SVGID_00000103971998567414161650000002864010594509635999_);" d="M122.4,26.8l-0.2,6.6H95.5l3.3-32.2h24.7
		L123.3,7h-14.6l-0.4,6.5H123l-0.2,6.3h-15.1l-0.5,7L122.4,26.8z"/>
	
		<linearGradient id="SVGID_00000157286983169615866830000013312061074566836372_" gradientUnits="userSpaceOnUse" x1="259.65" y1="114" x2="259.65" y2="146.148" gradientTransform="matrix(1 0 0 -1 -3.4307 147.5)">
		<stop  offset="0" style="stop-color:#D9CDCA"/>
		<stop  offset="1" style="stop-color:#A89F9C"/>
	</linearGradient>
	<path style="fill:url(#SVGID_00000157286983169615866830000013312061074566836372_);" d="M267.6,1.1l1.8,5.7h-7.2V7
		c0.3,1.3,0.6,2.5,1,3.8s0.7,2.6,1.1,4c0.4,1.3,0.8,2.7,1.2,4.1s0.8,2.7,1.2,4.1c0.3,0.8,0.5,1.7,0.8,2.6s0.5,1.7,0.8,2.6
		s0.5,1.8,0.8,2.6c0.3,0.9,0.5,1.8,0.8,2.6h-11.3l-7.1-26.6h-7.2l-1.7-5.6L267.6,1.1z"/>
	
		<linearGradient id="SVGID_00000133518243111722381550000008078347194291154570_" gradientUnits="userSpaceOnUse" x1="231.85" y1="114" x2="231.85" y2="146.148" gradientTransform="matrix(1 0 0 -1 -3.4307 147.5)">
		<stop  offset="0" style="stop-color:#D9CDCA"/>
		<stop  offset="1" style="stop-color:#A89F9C"/>
	</linearGradient>
	<path style="fill:url(#SVGID_00000133518243111722381550000008078347194291154570_);" d="M241.6,13.3l1.5,6.4h-15l2.8,13.7h-11.3
		l-5.8-32.2l24.9-0.1l1.4,5.8h-14.7l1.3,6.4H241.6z"/>
	
		<linearGradient id="SVGID_00000005988549432559558730000015721724867974931097_" gradientUnits="userSpaceOnUse" x1="203.6" y1="114" x2="203.6" y2="146.148" gradientTransform="matrix(1 0 0 -1 -3.4307 147.5)">
		<stop  offset="0" style="stop-color:#D9CDCA"/>
		<stop  offset="1" style="stop-color:#A89F9C"/>
	</linearGradient>
	<path style="fill:url(#SVGID_00000005988549432559558730000015721724867974931097_);" d="M198.4,23l1.4,10.4h-11.2l-3.5-32.2h24.8
		l5.4,32.2h-11.2L202.6,23H198.4z M205.7,10.3l-0.6-4.1h-4.9l0.5,3.8h-3.9l-0.5-3.7h-4.8l0.5,4.1h4.3l0.2,1.5h-2.2l0.8,6.3h2.6
		l-0.2-2.1h3.9l0.3,2.2h2.7l-1-6.3h-2.2l-0.2-1.5L205.7,10.3"/>
	
		<linearGradient id="SVGID_00000140698006541413362560000006270221952604163503_" gradientUnits="userSpaceOnUse" x1="173.65" y1="114" x2="173.65" y2="146.148" gradientTransform="matrix(1 0 0 -1 -3.4307 147.5)">
		<stop  offset="0" style="stop-color:#D9CDCA"/>
		<stop  offset="1" style="stop-color:#A89F9C"/>
	</linearGradient>
	<path style="fill:url(#SVGID_00000140698006541413362560000006270221952604163503_);" d="M178.9,16.7h3.7l1.6,16.7H173l-1-13.6
		l-4.2-0.1l0.9,13.7h-11.2l-1.2-32.2h24.8l1.2,12h-3.7L178.9,16.7z M171.6,13.5l-0.5-6.6h-4l0.4,6.6H171.6"/>
	
		<linearGradient id="SVGID_00000129886028861991192790000001803581859859396995_" gradientUnits="userSpaceOnUse" x1="143.2" y1="114" x2="143.2" y2="146.148" gradientTransform="matrix(1 0 0 -1 -3.4307 147.5)">
		<stop  offset="0" style="stop-color:#D9CDCA"/>
		<stop  offset="1" style="stop-color:#A89F9C"/>
	</linearGradient>
	<path style="fill:url(#SVGID_00000129886028861991192790000001803581859859396995_);" d="M138,6.9h14.4l-0.1-5.7h-24.8l-1.1,32.2
		h26.8l-0.2-6.6h-15.3L138,6.9z"/>
	<path class="st36" d="M3.6,33.5c-0.4,0-0.5,0.2-0.2,0.5l9.1,8.9c0.3,0.3,0.8,0.5,1.2,0.5h8.6c0.4,0,0.5-0.2,0.2-0.5L14.4,34
		c-0.3-0.3-0.7-0.5-1.1-0.5H3.6z M30.5,33.5c-0.4,0-0.5,0.2-0.2,0.5l7.2,8.8c0.3,0.3,0.7,0.5,1.1,0.5h8.9c0.4,0,0.5-0.2,0.3-0.6
		l-6.4-8.8c-0.3-0.3-0.7-0.6-1.1-0.6L30.5,33.5z"/>
	<path class="st36" d="M20.8,26.5c-0.4,0-0.5,0.2-0.2,0.5l8,9.2c0.3,0.3,0.7,0.5,1.1,0.5h1c0.4,0,0.5-0.3,0.3-0.6l-1.4-2
		c-0.2-0.4-0.3-0.9-0.2-1.3l0.5-2c0.1-0.4,0-0.8-0.2-1.2l-1.9-2.5c-0.3-0.3-0.7-0.6-1.1-0.6L20.8,26.5z M45.9,33.5
		c-0.4,0-0.5,0.2-0.3,0.6l6.3,8.7c0.3,0.3,0.7,0.6,1.1,0.6h8.8c0.4,0,0.5-0.3,0.3-0.6l-5.3-8.6c-0.2-0.3-0.6-0.5-1-0.6L45.9,33.5
		L45.9,33.5z M61.4,33.5c-0.4,0-0.5,0.3-0.3,0.6l5.1,8.6c0.2,0.3,0.6,0.5,1,0.6h8.7c0.4,0,0.5-0.3,0.4-0.6l-4.1-8.5
		c-0.2-0.3-0.6-0.6-1-0.6L61.4,33.5z M80.7,33.4c-0.4,0-0.5,0.3-0.4,0.6l3.9,8.6c0.2,0.4,0.6,0.6,1,0.6h8.9c0.3,0,0.5-0.1,0.5-0.4
		c0-0.1,0-0.1,0-0.2L91.5,34c-0.1-0.4-0.5-0.6-0.9-0.6H80.7z M96.2,33.4c-0.3,0-0.5,0.1-0.5,0.4c0,0.1,0,0.1,0,0.2l2.9,8.3
		c0.1,0.4,0.5,0.6,0.9,0.6h23.3c0.4,0,0.6-0.3,0.6-0.7l-1.1-8.3c0-0.4-0.4-0.7-0.8-0.7L96.2,33.4z M127.1,33.4
		c-0.4,0-0.6,0.3-0.6,0.7l0.9,8.5c0,0.4,0.4,0.7,0.8,0.7h23.2c0.4,0,0.7-0.3,0.8-0.7l1-8.5c0-0.4-0.2-0.7-0.6-0.7H127.1z
		 M158.1,33.4c-0.4,0-0.7,0.3-0.8,0.7l-1,8.4c0,0.4,0.2,0.7,0.6,0.7h8.8c0.4,0,0.8-0.3,0.8-0.7l2-8.4c0.1-0.3,0-0.6-0.3-0.7
		c-0.1,0-0.2,0-0.2,0L158.1,33.4z M173.6,33.4c-0.4,0-0.8,0.3-0.8,0.7l-1.9,8.3c-0.1,0.3,0,0.6,0.3,0.7c0.1,0,0.2,0,0.2,0h8.8
		c0.4,0,0.7-0.2,0.9-0.6l2.9-8.4c0.1-0.4-0.1-0.6-0.5-0.6L173.6,33.4z M189.2,33.4c-0.4,0-0.7,0.2-0.9,0.6l-2.9,8.5
		c-0.1,0.4,0.1,0.6,0.5,0.6h8.8c0.4,0,0.8-0.3,1-0.6l3.9-8.6c0.1-0.3,0-0.6-0.4-0.6L189.2,33.4z M204.7,33.4c-0.4,0-0.8,0.3-1,0.6
		l-4.1,8.6c-0.2,0.3,0,0.6,0.4,0.6h9c0.4,0,0.8-0.3,1-0.6l4.8-8.6c0.1-0.2,0.1-0.4,0-0.5c-0.1-0.1-0.2-0.1-0.3-0.1H204.7z
		 M220.3,33.4c-0.4,0-0.8,0.3-1,0.6l-5.2,8.6c-0.1,0.2-0.1,0.4,0,0.5c0.1,0.1,0.2,0.1,0.3,0.1h8.9c0.4,0,0.9-0.2,1.1-0.6l6.1-8.7
		c0.2-0.3,0.1-0.6-0.3-0.6L220.3,33.4L220.3,33.4z M259.1,33.4c-0.4,0-0.8,0.2-1.1,0.5l-7.5,8.7c-0.2,0.3-0.1,0.5,0.2,0.5h8.6
		c0.4,0,0.9-0.2,1.2-0.5l8.8-8.8c0.3-0.3,0.2-0.5-0.2-0.5L259.1,33.4L259.1,33.4z"/>
	<path class="st37" d="M11.2,6.7c-0.1,0.2,0.2,0.4,0.5,0.4h9.2c0.4,0,0.7-0.2,0.7-0.4s-0.3-0.4-0.7-0.4h-9
		C11.6,6.3,11.2,6.5,11.2,6.7z M10.9,22.3c0.1-0.4-0.1-0.6-0.5-0.6H7c-0.4,0-0.7,0.1-0.7,0.4c0,0.2,0.3,0.4,0.7,0.4h2.5
		c0.3,0,0.5,0.1,0.5,0.4c0,0.1,0,0.1,0,0.2l-2.2,6.8c-0.2,0.3,0,0.6,0.4,0.6h7.3c0.4,0,0.7-0.1,0.7-0.4c0-0.2-0.3-0.4-0.7-0.4H9.2
		c-0.3,0-0.5-0.1-0.5-0.4c0-0.1,0-0.1,0-0.2l0.6-1.9c0.1-0.4,0.5-0.6,0.9-0.6h6c0.4,0,0.7-0.1,0.7-0.4c0-0.2-0.3-0.4-0.7-0.4h-5.8
		c-0.3,0-0.5-0.1-0.5-0.4c0-0.1,0-0.1,0-0.2L10.9,22.3z M41.4,7.3c0-0.4-0.2-0.7-0.6-0.7H37c-0.4,0-0.7,0.1-0.8,0.4
		c-0.1,0.2,0.2,0.4,0.5,0.4H40c0.4,0,0.6,0.3,0.6,0.7L40.1,12c0,0.4-0.4,0.7-0.8,0.7h-8.7c-0.4,0-0.7,0.1-0.7,0.4
		c0,0.2,0.3,0.4,0.7,0.4h15.5c0.4,0,0.7-0.1,0.7-0.4c0-0.2-0.3-0.4-0.7-0.4h-4.7c-0.4,0-0.6-0.3-0.6-0.7L41.4,7.3z M51.1,28.8
		c0-0.4,0-0.4-0.2-0.1L50.6,29c-0.2,0.4-0.4,0.8-0.5,1.3l-0.5,2.8c-0.1,0.5,0,0.9,0.3,1.3l1.3,1.9c0.3,0.4,0.6,0.7,0.9,1l0.5,0.4
		c0.3,0.2,0.4,0.1,0.2-0.2l-2.2-3.4c-0.2-0.4-0.3-0.8-0.3-1.3L51.1,28.8z M62,7.8c0-0.2-0.3-0.3-0.7-0.3l-4.5,0.1
		c-0.4,0-0.4,0.1,0,0.3L57,8c0.4,0.1,0.9,0.2,1.3,0.2h3C61.7,8.2,62,8,62,7.8z M66.4,30.5c0.1-0.4,0-0.4-0.2-0.1l-0.3,0.4
		c-0.3,0.4-0.4,0.8-0.5,1.3l-0.2,0.7c-0.1,0.4,0,0.9,0.1,1.3l0.5,1.3c0.1,0.5,0.4,0.9,0.7,1.2l0.2,0.3c0.2,0.3,0.3,0.2,0.2-0.1
		L66,34.1c-0.1-0.4-0.1-0.9,0-1.3L66.4,30.5z M62.7,23c-0.4,0-0.7,0.1-0.7,0.3s0.3,0.4,0.7,0.4l9.8,0.5c0.4,0,0.8,0.2,1,0.6l0.2,0.3
		c0.2,0.3,0.5,0.5,0.6,0.4c0.1-0.3,0.1-0.6-0.1-0.8l-0.4-0.6c-0.2-0.3-0.6-0.5-1-0.6L62.7,23z M72.1,6.7c0.4,0.2,0.8,0.4,1.2,0.4
		h2.3c0.4,0,0.7-0.1,0.7-0.4s-0.4-0.3-0.7-0.3l-3.4-0.1C71.9,6.3,71.8,6.5,72.1,6.7z M81.1,23.3c-0.4,0-0.7,0.2-0.7,0.4
		s0.3,0.3,0.7,0.3l6.3-0.3c0.3,0,0.6,0.2,0.6,0.6c0,0,0,0,0,0l-1.2,8.3c0,0.4,0,0.9,0.1,1.3l0.7,2.3c0.2,0.5,0.4,0.9,0.6,1.3
		l0.5,0.6c0.2,0.3,0.3,0.3,0.2-0.1l-1.3-3.9c-0.1-0.4-0.1-0.9-0.1-1.3l1.3-9c0-0.4-0.2-0.7-0.6-0.6L81.1,23.3z M83.6,6.5
		c0,0.2,0.2,0.4,0.6,0.5l9.7,1.2c0.4,0,0.7-0.1,0.7-0.3s-0.3-0.4-0.7-0.4l-9.5-1.2C83.9,6.3,83.6,6.3,83.6,6.5z M101.2,26.9
		c0-0.4-0.2-0.7-0.6-0.7h-4.5c-0.4,0-0.7,0.1-0.7,0.4c0,0.2,0.3,0.4,0.7,0.4h3.8c0.3,0,0.6,0.2,0.6,0.5c0,0.1,0,0.1,0,0.2l-0.2,5.1
		c0,0.4,0,0.9,0.1,1.3l1,3.7c0.1,0.4,0.3,0.9,0.5,1.3l0.3,0.5c0.2,0.3,0.3,0.3,0.2-0.1l-1.2-5.5c-0.1-0.5-0.1-0.9-0.1-1.4
		L101.2,26.9z M97.1,10.7c0,0.2,0.3,0.4,0.7,0.4h4.3c0.5,0,0.9-0.1,1.3-0.3l0.3-0.1c0.3-0.2,0.3-0.3-0.1-0.3l-5.8,0.1
		C97.4,10.3,97.1,10.4,97.1,10.7z M116,13.4c0-0.4-0.2-0.7-0.4-0.7s-0.4,0.3-0.4,0.7v5.1c0,0.4,0.1,0.4,0.3,0l0.2-0.5
		c0.2-0.4,0.3-0.9,0.3-1.3V13.4z M119.3,27.8c0,0.4-0.3,0.7-0.7,0.7c0,0,0,0,0,0h-3.8c-0.4,0-0.7,0.3-0.7,0.7c0,0,0,0,0,0v3.9
		c0,0.4,0.1,0.7,0.4,0.7c0.2,0,0.4-0.3,0.4-0.7v-3.2c0-0.4,0.3-0.7,0.7-0.7c0,0,0,0,0,0h3.8c0.4,0,0.7-0.3,0.7-0.7c0,0,0,0,0,0
		l0.1-2.3c0-0.4-0.1-0.7-0.3-0.7s-0.4,0.3-0.4,0.7L119.3,27.8z M147.4,28.6c-0.2,0.4-0.2,0.9-0.2,1.3l0.3,3v1.4l-1.2,8.8
		c0,0.4,0.1,0.7,0.3,0.6c0.3-0.1,0.5-0.4,0.5-0.7l1-8.7v-1.4l-0.4-4.1C147.7,28.3,147.5,28.3,147.4,28.6L147.4,28.6z M126.8,39.6
		c0,0.2,0.3,0.4,0.7,0.4h1.9c0.4,0,0.7-0.1,0.7-0.4c0-0.2-0.3-0.4-0.7-0.4h-1.9C127.1,39.3,126.8,39.4,126.8,39.6z M129.5,11.6
		c0.4,0.2,0.8,0.4,1.3,0.5l7.2,1.5c0.4,0.1,0.7,0.1,0.8,0c0.1-0.2-0.1-0.4-0.5-0.6l-8.7-1.7C129.1,11.3,129.1,11.4,129.5,11.6z
		 M129.3,18c0.3-0.2,0.3-0.4-0.1-0.4h-1.9c-0.4,0-0.7,0.2-0.7,0.4s0.3,0.4,0.7,0.4h0.7C128.4,18.5,128.9,18.3,129.3,18z M161.2,12.1
		c0,0.4,0.4,0.7,0.8,0.7h2.2c0.3,0,0.6,0,0.9,0.1c0.1,0,0.6,0.4,0.7,0.3s0-0.4-0.2-0.6c0,0,0-0.3-0.2-0.4c-0.2,0-0.7-0.1-1-0.1h-1.8
		c-0.4,0-0.7-0.3-0.8-0.7l-1-9.9c0-0.4-0.2-0.6-0.4-0.6s-0.3,0.4-0.3,0.7l0.9,8.2c0,0.4-0.2,0.7-0.6,0.7h-3.9
		c-0.4,0-0.7,0.1-0.7,0.4c0,0.2,0.3,0.4,0.7,0.4h4c0.4,0,0.7,0.3,0.8,0.7L161.2,12.1z M160.3,29.2c0,0.5-0.1,0.9-0.3,1.3l-1.2,2.2
		c-0.1,0.4,0,0.7,0.2,0.7s0.4-0.2,0.5-0.6l0.8-1.8c0.2-0.3,0.5-0.6,0.6-0.6s0.2-0.3,0.1-0.7l-0.4-5.4c0-0.4,0.2-0.7,0.6-0.7h7.1
		c0.4,0,0.7-0.1,0.7-0.4c0-0.2-0.3-0.4-0.7-0.4h-7.7c-0.3,0-0.6,0.2-0.6,0.5c0,0.1,0,0.1,0,0.2L160.3,29.2z M171.8,25.5
		c0,0.2,0.3,0.4,0.7,0.4h5.3c0.5,0,0.9-0.1,1.3-0.3c0.3-0.2,0.3-0.3-0.1-0.3h-6.5C172.1,25.1,171.8,25.3,171.8,25.5z M175,15.6
		c0.3,0.2,0.6,0.3,1,0.3h2.6c0.4,0,0.7-0.1,0.7-0.4c0-0.2-0.3-0.3-0.7-0.3h-3.4C174.9,15.3,174.7,15.4,175,15.6L175,15.6z
		 M156.1,40.2c0,0.2,0.3,0.4,0.6,0.4l9.7,0.7c0.4,0,0.7-0.1,0.7-0.3s-0.3-0.4-0.6-0.4l-9.7-0.7C156.5,39.9,156.1,40,156.1,40.2z
		 M202.9,25.2c-0.4,0-0.7,0.2-0.7,0.4s0.3,0.3,0.7,0.3l11.6,1.2c0.4,0,0.7-0.1,0.8-0.3s-0.2-0.4-0.5-0.4L202.9,25.2L202.9,25.2z
		 M234.8,12.3c-0.2,0-0.3,0.4-0.3,0.8l0.6,6.2c-0.2,0.2-0.2,0.6,0,0.8c0.1,0.1,0.5-0.1,0.6-0.5l-0.6-6.8
		C235.1,12.5,234.9,12.2,234.8,12.3z M228.8,3.5c-0.4,0-0.7-0.2-0.9-0.6l-0.5-1.5c0-0.3-0.2-0.5-0.5-0.6c-0.2,0-0.2,0.4-0.1,0.8
		l0.6,1.9c0.1,0.4,0.5,0.6,0.9,0.6h1.3c0.4,0,0.7,0.2,0.9,0.6l0.9,2.6c0,0.3,0.2,0.5,0.5,0.6c0.2,0,0.2-0.4,0.1-0.8l-1-3
		c-0.1-0.4-0.5-0.6-0.9-0.6L228.8,3.5z M255.7,23.8c-0.4,0-0.7,0.1-0.7,0.4c0,0.2,0.3,0.4,0.7,0.4h11c0.4,0,0.7-0.1,0.7-0.4
		c0-0.2-0.3-0.4-0.7-0.4H255.7z M263.6,7.4c0.2,0,0.3-0.4,0.1-0.7l-1.3-5.2c-0.1-0.4-0.3-0.6-0.5-0.6s-0.3,0.4-0.1,0.7l1.4,5.1
		C263.2,7.2,263.4,7.4,263.6,7.4L263.6,7.4z"/>
	<path class="st21" d="M35.9,7.2h3.9c0.4,0,0.4,0,0-0.1l-2.7-0.6c-0.4-0.1-0.6,0.1-0.6,0.5C36.6,7,36.6,7,35.9,7.2z M18.6,38.1
		c-0.3-0.3-0.7-0.5-1.1-0.4l-3.4,0.4c-0.4,0-0.4,0.1,0,0.2l4.5,0.6c0.4,0,0.5-0.1,0.2-0.4L18.6,38.1z M47.7,42.1
		c-0.2-0.3-0.7-0.6-1-0.5l-5.4,0.5c-0.4,0-0.4,0.1,0,0.1l6.2,0.6c0.4,0,0.5-0.2,0.3-0.5L47.7,42.1z M82.9,40.7
		c-0.1-0.2,0.1-0.5,0.3-0.6c0.1,0,0.1,0,0.2,0l2.5,0.1c0.4,0,0.4,0.1,0,0.2L83.7,41C83.4,41.2,83.1,41.1,82.9,40.7
		C82.9,40.8,82.9,40.7,82.9,40.7z M123.1,38.2c0-0.4-0.4-0.6-0.8-0.6l-4.3,0.6c-0.4,0-0.4,0.1,0,0.2l4.5,0.7c0.3,0,0.6-0.2,0.6-0.4
		c0-0.1,0-0.1,0-0.2L123.1,38.2z M126.5,39.9c0-0.3,0.2-0.6,0.4-0.6c0.1,0,0.1,0,0.2,0l1.6,0.2c0.4,0,0.4,0.2,0,0.4l-1.6,0.8
		c-0.3,0.2-0.6,0-0.7-0.4L126.5,39.9L126.5,39.9z M101,31.4c0-0.4-0.1-0.4-0.2,0l-0.2,1c-0.1,0.4-0.1,0.9,0,1.3l0.6,2.2
		c0.1,0.4,0.2,0.4,0.1,0l-0.1-1.9c0-0.4-0.1-1-0.1-1.4L101,31.4z M114.4,32.6c-0.1-0.3-0.3-0.2-0.3,0.2v2c0,0.4,0.1,0.4,0.1,0l0.2-1
		C114.6,33.4,114.6,33,114.4,32.6z M87.3,31.7C87.3,31.3,87.2,31.3,87.3,31.7L87,32.9c0,0.4,0,0.9,0.1,1.3l0.7,2.2
		c0.1,0.4,0.2,0.4,0.1,0l-0.4-2.1c0-0.4-0.1-1-0.1-1.4L87.3,31.7z M65.6,32.8c-0.1-0.3-0.3-0.2-0.5,0.1c-0.1,0.4,0,0.8,0.1,1.2
		l0.3,0.5c0.2,0.3,0.4,0.3,0.3-0.1V34C65.9,33.6,65.8,33.2,65.6,32.8z M50.3,31.7c-0.1-0.4-0.2-0.4-0.3,0l-0.4,1.6
		c-0.1,0.4,0,0.9,0.3,1.2l1.1,1.1c0.3,0.3,0.4,0.2,0.3-0.2l-0.4-1.1c-0.1-0.4-0.3-1-0.4-1.3L50.3,31.7z M23.1,31.3
		c-0.2-0.3-0.1-0.5,0.3-0.5l3.9,0.3c0.4,0,0.4,0.1,0,0.1l-3.1,0.4C23.8,31.7,23.3,31.6,23.1,31.3z M147.7,31c0-0.4,0.2-0.4,0.2,0
		l0.4,1.9c0.1,0.4,0.1,0.9,0,1.3l-0.7,2.6c-0.1,0.4-0.2,0.4-0.2,0l-0.1-2.6c0-0.5,0-0.9,0.1-1.4L147.7,31z M138.4,13.7
		c0,0.4-0.3,0.5-0.5,0.2l-1.7-1.2c-0.3-0.2-0.3-0.3,0.1-0.2l1.5,0.4C138.1,13,138.4,13.3,138.4,13.7L138.4,13.7z M183,37.5
		c0.1-0.2-0.1-0.5-0.3-0.6c-0.1,0-0.1,0-0.2,0l-2.6,0.1c-0.4,0-0.4,0.1,0,0.2l2.4,0.7C182.5,38,182.9,37.8,183,37.5L183,37.5z
		 M177.2,32.3c-0.1-0.3-0.3-0.3-0.3,0v1.8c0,0.4,0.2,0.4,0.3,0.1l0.1-0.1c0.2-0.4,0.2-0.9,0-1.3L177.2,32.3z M197.6,39
		c0.1-0.4-0.1-0.6-0.5-0.6l-4.3,0.4c-0.4,0-0.4,0.1,0,0.1l3.9,0.6C197,39.6,197.4,39.3,197.6,39L197.6,39z M194.7,32.7
		c-0.1-0.4-0.3-0.4-0.4,0c-0.1,0.4-0.1,0.9,0,1.3l0.2,0.9c0.1,0.4,0.2,0.4,0.3,0l0.1-0.7c0-0.4,0-0.9-0.1-1.3L194.7,32.7z
		 M235.2,20.3c-0.3-0.1-0.4-0.4-0.3-0.7c0,0,0-0.1,0.1-0.1l0.6-1.4c0.1-0.4,0.3-0.3,0.2,0v1.7C235.7,20.1,235.4,20.4,235.2,20.3z
		 M216.1,38c0.3-0.3,0.7-0.5,1.1-0.4l5.5,0.8c0.4,0,0.4,0.1,0,0.1l-6.6,0.2c-0.4,0-0.5-0.2-0.2-0.5L216.1,38z M253.7,37.8
		c0.3-0.3,0.7-0.5,1.1-0.4l5.2,1c0.4,0.1,0.4,0.1,0,0.2l-6.4,0.4c-0.4,0-0.5-0.2-0.3-0.5L253.7,37.8L253.7,37.8z M254.8,23.8
		c-0.1-0.4,0.1-0.6,0.5-0.6l4.8,0.7c0.4,0,0.4,0.1,0,0.2l-4.3,0.8c-0.4,0-0.8-0.2-0.9-0.6L254.8,23.8z"/>
	<g class="st38">
		<path class="st21" d="M251.1,7.9c-0.3-0.3-0.5-0.7-0.5-1.1V5c0-0.4,0-0.4,0.1,0l0.7,2.6C251.5,8,251.3,8.1,251.1,7.9z"/>
	</g>
	<path class="st21" d="M214.8,27.5l-2.8-1.2c-0.4-0.1-0.3-0.2,0-0.2l3,0.3"/>
	<g class="st38">
		<path class="st21" d="M136.5,34.1c0.1-0.4,0.1-0.9,0-1.3l-0.1-0.2c-0.1-0.4-0.5-0.6-0.9-0.6h-2.4c-0.4,0-0.8,0.3-1,0.6l-0.3,0.6
			c-0.2,0.3-0.1,0.6,0.2,0.8c0,0,0.1,0,0.1,0l3.5,1c0.4,0.1,0.8-0.1,0.9-0.5c0,0,0,0,0,0V34.1z"/>
	</g>
	<path class="st21" d="M134.6,32.5c-0.3-0.3-0.2-0.5,0.2-0.5h0.7c0.4,0,0.9,0.2,1.1,0.6l0.2,0.2c0.2,0.3,0.3,0.7,0.1,1.1l-1,1.6
		c-0.2,0.3-0.3,0.3-0.2-0.1l0.2-0.6c0.1-0.4,0-0.9-0.3-1.2L134.6,32.5z M83.4,6.7c0-0.4,0.4-0.6,0.8-0.5l1.9,0.5
		c0.4,0.1,0.4,0.2,0,0.3L84,7.5c-0.4,0.1-0.6-0.1-0.5-0.5L83.4,6.7L83.4,6.7z M46.5,13.2c-0.2,0.3-0.6,0.5-1,0.4l-2-0.5
		c-0.4-0.1-0.4-0.2,0-0.2l2.5-0.1C46.5,12.7,46.7,12.8,46.5,13.2z M16.8,26c0.1-0.4-0.1-0.6-0.5-0.5l-2.7,0.6
		c-0.4,0.1-0.4,0.2,0,0.2l2.3,0.4C16.3,26.7,16.6,26.4,16.8,26z"/>
	<path class="st36" d="M19,38.4c-0.2-0.3-0.4-0.8-0.3-1.2l0.8-2.6c0.1-0.4,0.2-0.4,0.2,0l-0.2,3.6C19.5,38.6,19.3,38.7,19,38.4z
		 M47.6,42.3c-0.3-0.2-0.4-0.6-0.2-0.9c0,0,0,0,0,0l0.5-1.3c0.1-0.4,0.2-0.3,0.2,0v1.8C48,42.2,47.9,42.4,47.6,42.3z M73.3,24.4
		c0-0.4,0.1-0.4,0.2,0l0.8,2c0.1,0.4,0,0.4-0.2,0.1l-0.3-0.3c-0.3-0.4-0.4-0.8-0.5-1.2V24.4z M216.3,38.6c0.3-0.3,0.4-0.7,0.3-1.1
		l-0.8-2.7c-0.1-0.4-0.2-0.4-0.2,0l0.1,3.5C215.8,38.7,216.1,38.9,216.3,38.6L216.3,38.6z M254.2,38.3c0.3-0.2,0.5-0.6,0.3-1
		l-2.2-4.8c-0.1-0.3-0.2-0.3-0.2,0l1,5.5c0.1,0.4,0.4,0.6,0.7,0.4L254.2,38.3z M255.6,24.1c-0.1-0.3-0.4-0.3-0.6,0l-2.3,4.7
		c-0.2,0.3-0.1,0.4,0.1,0l2.6-3.7C255.6,24.8,255.7,24.4,255.6,24.1L255.6,24.1z"/>
	<path class="st21" d="M231.1,8.1l0.1-2.7c0-0.4,0.1-0.4,0.2,0l0.7,3"/>
	<path class="st39" d="M13,39C12.6,38.9,12.6,38.8,13,39h1.5c0.4,0,1,0.1,1.4,0.1l1,0.1c0.4,0,0.4,0.1,0,0.2l-1.3,0.2
		c-0.4,0-0.9,0-1.3-0.1L13,39z M49.2,34.5C48.9,34.2,48.9,34.3,49.2,34.5l1.4,2.2c0.3,0.4,0.6,0.7,1,0.9l0.5,0.3
		c0.3,0.2,0.4,0.1,0.1-0.1l-0.9-1c-0.3-0.4-0.6-0.7-0.9-1L49.2,34.5z M64.5,33.4c-0.2,0-0.2,0.3,0,0.6l0.5,1.2
		c0.2,0.3,0.2,0.3,0.2,0L65,34.1C64.9,33.7,64.7,33.4,64.5,33.4z M85,40.9c-0.4,0-0.4-0.1,0-0.2l2.4-0.5c0.4,0,0.4,0,0.1,0.2
		l-0.3,0.2c-0.4,0.2-0.8,0.3-1.3,0.3H85z M100,34.5c-0.2-0.3-0.3-0.3-0.2,0.1l0.3,1.3c0.1,0.5,0.3,0.9,0.5,1.3l0.6,1.1
		c0.2,0.3,0.3,0.3,0.2,0l-0.5-2.1c-0.1-0.4-0.3-0.9-0.5-1.3L100,34.5z M148.6,35.8c-0.1-0.4-0.2-0.4-0.4,0l-0.3,0.8
		c-0.1,0.4-0.2,0.9-0.2,1.3v1.4c0,0.4,0.1,0.4,0.2,0l0.7-1.8c0.1-0.4,0.1-0.9,0.1-1.3L148.6,35.8z M132.4,32.5
		c-0.1-0.4-0.4-0.4-0.5,0l-0.5,0.9c-0.2,0.3,0,0.7,0.3,0.9l1.4,0.7c0.3,0.2,0.5,0,0.2-0.3l-0.3-0.5c-0.3-0.4-0.5-0.8-0.6-1.3
		L132.4,32.5L132.4,32.5z M159,41c-0.4-0.1-0.4-0.2,0-0.2h1.9c0.4,0,0.9,0.1,1.3,0.2l1.4,0.5c0.4,0.1,0.3,0.2,0,0.2l-2-0.2
		c-0.4,0-0.9-0.1-1.3-0.2L159,41L159,41z M177.9,34.6c0-0.3-0.2-0.2-0.4,0.1l-0.3,0.9c-0.1,0.4,0,0.4,0.2,0.1l0.1-0.1
		C177.8,35.4,178,35,177.9,34.6z M195.6,34c0-0.3-0.2-0.2-0.4,0.1l-0.3,0.9c-0.1,0.4,0,0.4,0.2,0.1l0.1-0.1
		C195.4,34.7,195.6,34.4,195.6,34z M191.9,39.3c-0.4-0.1-0.4-0.1,0-0.2l2.2-0.2c0.5,0,0.9,0.1,1.3,0.3l0.3,0.2
		c0.3,0.2,0.3,0.4-0.1,0.4h-0.7c-0.5,0-0.9,0-1.4-0.1L191.9,39.3z M218,39.4C217.6,39.4,217.6,39.4,218,39.4l1.3-0.5
		c0.4-0.1,0.9-0.2,1.3-0.1l2.6,0.2c0.4,0,0.4,0.1,0,0.1l-2.6,0.1c-0.5,0-0.9,0-1.4,0.1L218,39.4L218,39.4z"/>
	<path class="st36" d="M235.3,20.5c-0.4,0.1-0.7,0.6-0.9,0.9l-0.6,1.5c-0.1,0.4-0.1,0.4,0.1,0.1l1.7-2.3
		C235.8,20.5,235.7,20.4,235.3,20.5z"/>
	<path class="st21" d="M263.7,7.7c-0.4,0-0.7-0.3-0.7-0.7c0,0,0,0,0,0l-0.2-2.2c0-0.4,0-0.4,0.2,0l1,2.4
		C264.2,7.4,264,7.7,263.7,7.7z M155.8,11c0-0.4,0.3-0.7,0.6-0.6l2.1,0.1c0.4,0,0.4,0.1,0,0.3l-2,0.9c-0.4,0.1-0.6,0-0.7-0.4
		L155.8,11L155.8,11z M115.7,12.6c-0.3-0.1-0.5,0-0.5,0.4l0.3,2.2c0,0.4,0.1,0.4,0.2,0l0.4-1.7C116.1,13.1,116,12.8,115.7,12.6z
		 M79.8,24c-0.1-0.2,0.1-0.5,0.3-0.6c0.1,0,0.1,0,0.2,0H85c0.4,0,0.4,0,0,0.1l-4.4,0.9C80.2,24.5,79.9,24.3,79.8,24z M16.1,30.4
		c0-0.2-0.2-0.4-0.6-0.4h-2.3c-0.4,0-0.4,0.1,0,0.2l2.2,0.6C15.7,30.7,16.1,30.6,16.1,30.4z"/>
	<path class="st40" d="M4,33.1c-0.4,0-0.5,0.1-0.4,0.3s0.6,0.3,1,0.3h7.6c0.4,0,0.8-0.1,1-0.4c0.1-0.2,0-0.3-0.4-0.3L4,33.1z
		 M31,33.1c-0.4,0-0.5,0.1-0.4,0.3s0.6,0.3,1,0.3h7.5c0.4,0,0.8-0.1,1-0.4c0.1-0.2,0-0.3-0.4-0.3L31,33.1z M46.2,33
		c-0.4,0-0.6,0.1-0.6,0.3c0,0.1,0.4,0.3,0.8,0.3h1.7c0.4,0,0.7-0.1,0.8-0.4s-0.2-0.3-0.6-0.3L46.2,33z M19.1,19.4
		c-0.4,0-0.6,0.1-0.6,0.3c0,0.1,0.4,0.3,0.8,0.3H21c0.4,0,0.7-0.1,0.8-0.4c0-0.2-0.2-0.3-0.6-0.3L19.1,19.4z M30.3,19.4
		c-0.4,0-0.6,0.1-0.6,0.3c0,0.1,0.4,0.3,0.8,0.3h1.7c0.4,0,0.7-0.1,0.8-0.4c0-0.2-0.2-0.3-0.6-0.3L30.3,19.4z M7.9,21.2
		c-0.4,0-0.6,0.1-0.6,0.3c0,0.1,0.4,0.3,0.8,0.3h1.4c0.4,0,0.7-0.1,0.8-0.4c0-0.2-0.2-0.3-0.6-0.3L7.9,21.2z M21.3,25.9
		c-0.4,0-0.6,0.1-0.5,0.3s0.5,0.3,0.9,0.3H26c0.4,0,0.8-0.1,0.9-0.4c0.1-0.2-0.1-0.3-0.5-0.3L21.3,25.9z M15.2,5.9
		c-0.4,0-0.6,0.1-0.5,0.3c0.2,0.2,0.5,0.3,0.8,0.3h4.3c0.4,0,0.8-0.1,0.9-0.4c0.1-0.2-0.1-0.3-0.5-0.3L15.2,5.9z M61.8,33
		c-0.4,0-0.6,0.1-0.6,0.3c0,0.1,0.4,0.3,0.8,0.3h1.7c0.4,0,0.7-0.1,0.8-0.4c0-0.2-0.2-0.3-0.6-0.3L61.8,33z M88.5,33
		c-0.4,0-0.6,0.1-0.6,0.3c0,0.1,0.4,0.3,0.8,0.3h1.4c0.4,0,0.7-0.1,0.8-0.4s-0.2-0.3-0.6-0.3L88.5,33z M66.8,33
		c-0.4,0-0.6,0.1-0.5,0.3c0.2,0.2,0.5,0.3,0.8,0.3h3.6c0.4,0,0.8-0.1,0.8-0.4c0.1-0.2-0.1-0.3-0.5-0.3L66.8,33z M80.9,33
		c-0.4,0-0.6,0.1-0.5,0.3c0.3,0.2,0.6,0.3,0.9,0.3h4.1c0.4,0,0.8-0.1,0.9-0.4c0.1-0.2-0.1-0.3-0.5-0.3L80.9,33z M96.5,33
		c-0.4,0-0.6,0.1-0.5,0.3c0.2,0.2,0.5,0.3,0.8,0.3h2.7c0.4,0,0.7-0.1,0.8-0.4c0.1-0.2-0.2-0.3-0.5-0.3L96.5,33z M127.4,33
		c-0.4,0-0.6,0.1-0.5,0.3c0.2,0.2,0.5,0.3,0.8,0.3h2.7c0.4,0,0.7-0.1,0.8-0.4c0.1-0.2-0.2-0.3-0.5-0.3L127.4,33z M149.4,33
		c-0.4,0-0.6,0.1-0.5,0.3c0,0.1,0.4,0.3,0.8,0.3h2.2c0.4,0,0.7-0.1,0.8-0.4c0.1-0.2-0.2-0.3-0.5-0.3L149.4,33z M160.4,33
		c-0.4,0-0.6,0.1-0.5,0.3c0.3,0.2,0.6,0.3,0.9,0.3h6.3c0.4,0,0.8-0.1,0.9-0.4c0.1-0.2,0-0.3-0.5-0.3L160.4,33L160.4,33z M173.9,33
		c-0.4,0-0.6,0.1-0.6,0.3c0,0.1,0.4,0.3,0.8,0.3h1.8c0.4,0,0.7-0.1,0.8-0.4s-0.2-0.3-0.6-0.3L173.9,33z M178.8,33
		c-0.4,0-0.6,0.1-0.5,0.3c0.3,0.2,0.6,0.3,0.9,0.3h3.6c0.4,0,0.8-0.1,0.8-0.4c0.1-0.2-0.1-0.3-0.5-0.3L178.8,33z M189.5,33
		c-0.4,0-0.6,0.1-0.5,0.3c0.2,0.2,0.5,0.3,0.8,0.3h2.9c0.4,0,0.7-0.1,0.8-0.4c0.1-0.2-0.2-0.3-0.5-0.3L189.5,33z M195.9,33
		c-0.4,0-0.6,0.1-0.6,0.3c0,0.1,0.4,0.3,0.8,0.3h2.1c0.4,0,0.7-0.1,0.8-0.4c0-0.2-0.2-0.3-0.6-0.3L195.9,33z M205,33
		c-0.4,0-0.5,0.1-0.4,0.3c0.3,0.2,0.6,0.3,1,0.3h8.2c0.4,0,0.8-0.1,1-0.4c0.2-0.2,0-0.4-0.4-0.3L205,33L205,33z M220.4,33
		c-0.4,0-0.5,0.1-0.4,0.3c0.3,0.2,0.6,0.3,1,0.3h8.2c0.4,0,0.8-0.1,1-0.4c0.2-0.2,0-0.4-0.4-0.3L220.4,33L220.4,33z M259.4,33
		c-0.4,0-0.5,0.1-0.4,0.3c0.3,0.2,0.6,0.3,1,0.3h8.2c0.4,0,0.8-0.1,1-0.4c0.2-0.2,0-0.4-0.4-0.3L259.4,33L259.4,33z M245.1,6.4
		c-0.4,0-0.6,0.1-0.5,0.3c0.3,0.2,0.6,0.3,0.9,0.3h4c0.4,0,0.8-0.1,0.9-0.4c0.1-0.2-0.1-0.3-0.5-0.3L245.1,6.4L245.1,6.4z M233,6.4
		c-0.4,0-0.6,0.1-0.5,0.3c0.3,0.2,0.6,0.3,0.9,0.3h4.8c0.4,0,0.8-0.1,0.9-0.4c0.1-0.2-0.1-0.3-0.5-0.3L233,6.4L233,6.4z M226.8,6.4
		c-0.4,0-0.6,0.1-0.5,0.3c0.2,0.2,0.5,0.3,0.8,0.3h2.9c0.4,0,0.7-0.1,0.8-0.4c0.1-0.2-0.2-0.3-0.5-0.3L226.8,6.4z M228.8,19.3
		c-0.4,0-0.6,0.1-0.5,0.3c0.3,0.2,0.6,0.3,0.9,0.3h4.2c0.4,0,0.8-0.1,0.9-0.4c0.1-0.2-0.1-0.3-0.5-0.3L228.8,19.3L228.8,19.3z
		 M191.3,5.6c-0.4,0-0.6,0.1-0.5,0.3c0.2,0.2,0.5,0.3,0.8,0.3h2.9c0.4,0,0.7-0.1,0.8-0.4c0.1-0.2-0.2-0.3-0.5-0.3L191.3,5.6z
		 M200,5.6c-0.4,0-0.6,0.1-0.5,0.3c0.2,0.2,0.5,0.3,0.8,0.3h2.9c0.4,0,0.7-0.1,0.8-0.4c0.1-0.2-0.2-0.3-0.5-0.3L200,5.6z
		 M194.7,11.2c-0.4,0-0.6,0.2-0.6,0.3s0.4,0.3,0.7,0.3h0.7c0.4,0,0.7-0.1,0.7-0.4c0-0.2-0.2-0.3-0.6-0.3L194.7,11.2L194.7,11.2z
		 M197.5,9.4c-0.4,0-0.6,0.1-0.6,0.3c0,0.1,0.4,0.3,0.8,0.3h1.3c0.4,0,0.7-0.1,0.8-0.4c0-0.2-0.2-0.3-0.6-0.3L197.5,9.4z M158.6,9.7
		c-0.4,0-0.6,0.1-0.6,0.3c0,0.1,0.4,0.3,0.8,0.3h1.3c0.4,0,0.7-0.1,0.8-0.4c0-0.2-0.2-0.3-0.6-0.3L158.6,9.7z M168.4,19
		c-0.4,0-0.6,0.1-0.6,0.3c0,0.2,0.4,0.3,0.8,0.3h1.8c0.4,0,0.7-0.1,0.8-0.4c0-0.2-0.2-0.3-0.6-0.3L168.4,19z M161.5,22.4
		c-0.4,0-0.6,0.1-0.5,0.3c0.2,0.2,0.5,0.3,0.8,0.3h3.6c0.4,0,0.8-0.1,0.8-0.4c0.1-0.2-0.1-0.3-0.5-0.3L161.5,22.4L161.5,22.4z
		 M258.4,23c-0.4,0-0.6,0.1-0.5,0.3c0.2,0.2,0.5,0.3,0.8,0.3h3.6c0.4,0,0.8-0.1,0.8-0.4c0.1-0.2-0.1-0.3-0.5-0.3L258.4,23L258.4,23z
		 M97.2,25.7c-0.4,0-0.6,0.1-0.5,0.3c0,0.1,0.4,0.3,0.8,0.3h2.4c0.4,0,0.7-0.1,0.8-0.4c0-0.2-0.2-0.3-0.5-0.3L97.2,25.7z M83.6,22.9
		c-0.4,0-0.6,0.1-0.5,0.3c0,0.1,0.4,0.3,0.8,0.3h2.4c0.4,0,0.7-0.1,0.8-0.4c0-0.2-0.2-0.3-0.5-0.3L83.6,22.9z M64,22.6
		c-0.4,0-0.6,0.1-0.5,0.3c0,0.1,0.4,0.3,0.8,0.3h2.4c0.4,0,0.7-0.1,0.8-0.4c0-0.2-0.2-0.3-0.5-0.3L64,22.6z M34.5,11.9
		c-0.4,0-0.6,0.1-0.5,0.3c0.3,0.2,0.6,0.3,0.9,0.3h3.7c0.4,0,0.8-0.1,0.9-0.3s-0.1-0.3-0.5-0.3H34.5z M89.9,6.8
		c-0.4,0-0.6,0-0.6,0.2s0.4,0.4,0.8,0.4l2.4,0.3c0.4,0,0.7,0,0.8-0.2s-0.1-0.4-0.5-0.4L89.9,6.8z M174,24.6c-0.4,0-0.6,0.1-0.5,0.3
		c0,0.1,0.4,0.3,0.8,0.3h2.4c0.4,0,0.7-0.1,0.8-0.4c0-0.2-0.2-0.3-0.5-0.3L174,24.6z M198.6,22.1c-0.4,0-0.6,0.1-0.5,0.3
		c0,0.1,0.4,0.3,0.8,0.3h2.4c0.4,0,0.7-0.1,0.8-0.4c0-0.2-0.2-0.3-0.5-0.3L198.6,22.1z M139.4,6.2c-0.4,0-0.5,0.1-0.3,0.3
		c0.3,0.2,0.7,0.3,1,0.3h10.2c0.4,0,0.9-0.1,1-0.4c0.2-0.2,0-0.3-0.3-0.3L139.4,6.2L139.4,6.2z M110,6.3c-0.4,0-0.5,0.1-0.3,0.3
		c0.3,0.2,0.7,0.3,1,0.3h10.6c0.4,0,0.9-0.1,1-0.4c0.2-0.2,0.1-0.3-0.3-0.3L110,6.3z M108.5,19.1c-0.4,0-0.6,0.1-0.5,0.3
		s0.5,0.3,0.9,0.3h5.2c0.4,0,0.8-0.1,0.9-0.4c0.1-0.2-0.1-0.3-0.5-0.3L108.5,19.1z M116.4,19.1c-0.4,0-0.6,0.1-0.5,0.3
		c0.3,0.2,0.6,0.3,0.9,0.3h4.8c0.4,0,0.8-0.1,0.9-0.4c0.1-0.2-0.1-0.3-0.5-0.3L116.4,19.1z M133.2,31.3c-0.4,0-0.6,0.1-0.6,0.3
		c0,0.1,0.4,0.3,0.8,0.3h1.6c0.4,0,0.7-0.1,0.8-0.4c0-0.2-0.2-0.3-0.6-0.3L133.2,31.3z M130.9,10.6c-0.4,0-0.6,0-0.6,0.2
		s0.4,0.4,0.8,0.4l3,0.4c0.4,0,0.8,0,0.9-0.2s-0.1-0.4-0.5-0.4L130.9,10.6L130.9,10.6z M204.5,24.5c-0.4,0-0.6,0-0.6,0.2
		s0.4,0.4,0.8,0.4l3,0.4c0.4,0,0.8,0,0.9-0.2s-0.1-0.4-0.5-0.4L204.5,24.5L204.5,24.5z M202.2,11.2c-0.4,0-0.6,0.2-0.6,0.3
		s0.4,0.3,0.7,0.3h0.6c0.4,0,0.7-0.1,0.7-0.4c0-0.2-0.2-0.3-0.6-0.3L202.2,11.2L202.2,11.2z M236.6,19.3c-0.4,0-0.6,0.1-0.5,0.3
		c0.3,0.2,0.6,0.3,0.9,0.3h4.8c0.4,0,0.8-0.1,0.9-0.4c0.1-0.2-0.1-0.3-0.5-0.3L236.6,19.3L236.6,19.3z M264.9,6.4
		c-0.4,0-0.6,0.1-0.5,0.3c0.2,0.2,0.5,0.3,0.8,0.3h3c0.4,0,0.7-0.1,0.8-0.4c0.1-0.2-0.2-0.3-0.5-0.3L264.9,6.4L264.9,6.4z M138.2,33
		c-0.4,0-0.5,0.1-0.4,0.3c0.3,0.2,0.6,0.3,1,0.3h7.1c0.4,0,0.8-0.1,1-0.4c0.1-0.2,0-0.3-0.4-0.3L138.2,33L138.2,33z M102.2,33
		c-0.4,0-0.5,0.1-0.3,0.3c0.3,0.2,0.7,0.3,1,0.3h9.7c0.4,0,0.8-0.1,1-0.4c0.2-0.2,0-0.4-0.3-0.3L102.2,33z M115.6,33
		c-0.4,0-0.6,0.1-0.5,0.3c0.3,0.2,0.6,0.3,0.9,0.3h4.7c0.4,0,0.8-0.1,0.9-0.4s-0.1-0.3-0.5-0.3L115.6,33z M52,33.1
		c-0.4,0-0.6,0.1-0.5,0.3s0.5,0.3,0.8,0.3h2.9c0.4,0,0.7-0.1,0.8-0.4c0.1-0.2-0.2-0.3-0.5-0.3L52,33.1z"/>
</g>
</svg>
