<?xml version="1.0" encoding="UTF-8"?>
<svg xmlns="http://www.w3.org/2000/svg" xmlns:xlink="http://www.w3.org/1999/xlink" width="px" height="100px" viewBox="0 0 595 100" version="1.1">
<g id="surface1">
<path style=" stroke:none;fill-rule:nonzero;fill:rgb(100%,100%,100%);fill-opacity:1;" d="M 72.597656 1.578125 L 53.144531 1.578125 L 36.105469 24.582031 L 19.441406 1.578125 L 0 1.578125 L 0 79.867188 L 20.5 79.867188 L 20.5 32.539062 L 20.6875 32.539062 L 36.105469 53.617188 L 51.90625 32.53125 L 52.105469 32.53125 L 52.105469 79.863281 L 72.59375 79.863281 Z M 135.757812 21.996094 L 115.453125 21.996094 L 107.105469 49.398438 L 106.917969 49.398438 L 98.582031 21.996094 L 76.742188 21.996094 L 97.433594 74.878906 L 88.433594 99.800781 L 108.160156 99.800781 Z M 199.390625 21.613281 L 178.898438 21.613281 L 178.898438 37.410156 L 158.5 37.410156 C 159.261719 35.078125 160.453125 32.507812 162.097656 29.714844 C 163.746094 26.921875 166.453125 24.492188 170.246094 22.4375 C 174.046875 20.382812 179.546875 19.308594 186.753906 19.203125 L 202.835938 19.203125 L 198.058594 1.574219 L 187.992188 1.574219 C 180.617188 1.425781 173.738281 2.183594 167.351562 3.867188 C 160.960938 5.542969 155.039062 9.054688 149.585938 14.417969 C 144.773438 19.328125 141.117188 25.253906 138.886719 31.757812 C 136.621094 38.257812 135.476562 45.097656 135.503906 51.984375 C 135.539062 58.890625 136.632812 65.753906 138.75 72.328125 C 140.855469 78.894531 143.855469 85.136719 147.667969 90.882812 L 164.332031 79.859375 C 162.042969 76.105469 160.175781 72.113281 158.757812 67.953125 C 157.335938 63.792969 156.570312 59.4375 156.488281 55.042969 L 178.890625 55.042969 L 178.890625 79.859375 L 199.382812 79.859375 Z M 210.953125 21.996094 L 210.953125 79.871094 L 229.34375 79.871094 L 229.34375 37.605469 L 233.75 37.605469 C 237.46875 37.605469 239.753906 38.246094 240.613281 39.523438 C 241.46875 40.792969 241.863281 43.253906 241.792969 46.898438 L 241.792969 79.859375 L 260.183594 79.859375 L 260.183594 44.222656 C 260.304688 36.59375 258.816406 30.964844 255.734375 27.363281 C 252.640625 23.75 247.234375 21.960938 239.503906 21.988281 Z M 288.742188 21.996094 L 270.355469 21.996094 L 270.355469 79.871094 L 288.742188 79.871094 Z M 288.742188 1.578125 L 270.355469 1.578125 L 270.355469 17.195312 L 288.742188 17.195312 Z M 299.160156 21.996094 L 299.160156 79.871094 L 317.066406 79.871094 L 317.066406 37.605469 L 328.082031 37.605469 L 328.082031 79.859375 L 345.988281 79.859375 L 345.988281 37.609375 L 348.957031 37.609375 C 352.675781 37.609375 354.960938 38.253906 355.816406 39.53125 C 356.671875 40.796875 357.0625 43.261719 356.996094 46.90625 L 356.996094 79.863281 L 374.910156 79.863281 L 374.910156 44.222656 C 375.03125 36.59375 373.554688 30.964844 370.453125 27.363281 C 367.375 23.75 361.957031 21.960938 354.230469 21.988281 Z M 431.457031 64.242188 L 424.179688 64.242188 C 422.570312 64.269531 420.964844 64.226562 419.363281 64.113281 C 417.308594 63.957031 415.269531 63.648438 413.257812 63.191406 C 418.527344 60.421875 423.335938 56.859375 427.519531 52.621094 C 431.746094 48.339844 433.988281 43.019531 434.230469 36.652344 C 434.382812 35.554688 434.183594 33.742188 433.617188 31.230469 C 433.054688 28.714844 431.242188 26.351562 428.171875 24.164062 C 425.105469 21.964844 419.875 20.796875 412.492188 20.65625 L 408.65625 20.65625 C 399.269531 20.488281 392.507812 22.34375 388.355469 26.222656 C 384.214844 30.09375 382.140625 36.097656 382.128906 44.222656 C 382.390625 54.175781 385.6875 62.542969 392.046875 69.304688 C 398.402344 76.070312 406.300781 79.59375 415.75 79.863281 L 426.859375 79.863281 Z M 415.460938 39.238281 C 415.148438 41.8125 413.421875 44.28125 410.273438 46.632812 C 407.132812 48.976562 404.421875 50.703125 402.144531 51.789062 C 401.761719 50.675781 401.457031 49.539062 401.234375 48.382812 C 401.023438 47.234375 400.910156 46.066406 400.898438 44.898438 C 400.917969 42.023438 401.683594 39.859375 403.199219 38.425781 C 404.722656 36.988281 406.925781 36.269531 409.8125 36.269531 C 411.039062 36.210938 412.269531 36.335938 413.460938 36.640625 C 414.699219 36.949219 415.355469 37.816406 415.460938 39.238281 Z M 462.976562 1.578125 L 442.476562 1.578125 L 442.476562 79.867188 L 485.097656 79.867188 L 489.878906 62.242188 L 462.976562 62.242188 Z M 510.957031 21.996094 L 492.570312 21.996094 L 492.570312 79.871094 L 510.957031 79.871094 Z M 510.957031 1.578125 L 492.570312 1.578125 L 492.570312 17.195312 L 510.957031 17.195312 Z M 549.441406 21.996094 L 534.015625 21.996094 C 527.925781 22.292969 523.789062 24.015625 521.589844 27.132812 C 519.402344 30.273438 518.367188 32.996094 518.5 35.3125 C 518.546875 37.867188 519.101562 40.195312 520.179688 42.292969 C 521.289062 44.445312 522.621094 46.472656 524.160156 48.339844 L 531.910156 58.410156 C 532.351562 58.957031 532.878906 59.667969 533.492188 60.511719 C 534.039062 61.203125 534.386719 62.03125 534.496094 62.910156 C 534.316406 64.007812 533.433594 64.539062 531.835938 64.480469 C 530.613281 64.445312 529.390625 64.367188 528.171875 64.242188 L 518.019531 64.242188 L 522.625 79.863281 L 541.300781 79.863281 C 545.792969 79.746094 549.320312 78.296875 551.863281 75.539062 C 554.382812 72.878906 555.777344 69.34375 555.753906 65.679688 C 555.742188 63.230469 555.1875 60.8125 554.132812 58.605469 C 553.074219 56.410156 551.753906 54.347656 550.207031 52.460938 L 542.0625 42.210938 C 541.71875 41.78125 541.390625 41.339844 541.085938 40.882812 C 540.757812 40.429688 540.566406 39.894531 540.535156 39.335938 C 540.507812 38.449219 540.890625 37.859375 541.695312 37.550781 C 542.492188 37.253906 543.859375 37.113281 545.804688 37.132812 L 554.03125 37.132812 Z M 582.710938 5.222656 L 564.316406 10.6875 L 564.316406 21.996094 L 560.203125 21.996094 L 560.203125 37.136719 L 564.316406 37.136719 L 564.316406 62.148438 C 564.417969 69.003906 566.070312 73.710938 569.269531 76.261719 C 572.464844 78.800781 576.628906 80.011719 581.753906 79.871094 L 590.085938 79.871094 L 594.679688 64.25 L 587.410156 64.25 C 585.535156 64.132812 584.277344 63.59375 583.625 62.65625 C 582.949219 61.628906 582.628906 60.40625 582.710938 59.179688 L 582.710938 37.132812 L 592.390625 37.132812 L 592.390625 21.992188 L 582.710938 21.992188 Z M 582.710938 5.222656 "/>
</g>
</svg>
