<?xml version="1.0" encoding="UTF-8"?>
<svg xmlns="http://www.w3.org/2000/svg" xmlns:xlink="http://www.w3.org/1999/xlink" width="652px" height="100px" viewBox="0 0 652 100" version="1.1">
<g id="surface1">
<path style=" stroke:none;fill-rule:nonzero;fill:rgb(100%,100%,100%);fill-opacity:1;" d="M 651.945312 78.75 C 645.425781 79.726562 638.960938 79.835938 632.765625 77.226562 C 628.527344 75.433594 626.246094 71.902344 625.214844 67.554688 C 624.019531 62.5 624.398438 57.335938 624.34375 52.175781 C 624.34375 48.859375 624.34375 45.488281 624.398438 42.175781 C 624.398438 40.707031 623.910156 40.109375 622.386719 40.109375 C 620.160156 40.054688 617.226562 41.195312 615.976562 39.511719 C 614.945312 38.097656 615.707031 35.378906 615.707031 33.207031 C 615.652344 31.03125 615.707031 28.859375 615.597656 26.683594 C 615.488281 25.109375 615.976562 24.292969 617.714844 24.457031 C 619.074219 24.566406 620.433594 24.347656 621.789062 24.511719 C 624.019531 24.78125 624.671875 23.804688 624.398438 21.738281 C 624.289062 20.925781 624.398438 20.109375 624.398438 19.292969 C 624.398438 15.816406 626.027344 13.585938 629.289062 12.609375 C 632.386719 11.683594 635.535156 10.816406 638.632812 9.835938 C 640.316406 9.292969 640.914062 9.726562 640.808594 11.523438 C 640.644531 15.109375 640.753906 18.75 640.589844 22.335938 C 640.535156 24.023438 641.132812 24.566406 642.761719 24.457031 C 645.804688 24.347656 648.902344 24.402344 651.945312 24.402344 L 651.945312 39.621094 C 648.957031 40.761719 645.914062 40 642.871094 40.054688 C 641.023438 40.109375 640.535156 40.707031 640.589844 42.390625 C 640.699219 47.824219 640.589844 53.207031 640.644531 58.640625 C 640.644531 61.957031 642.003906 63.585938 645.207031 63.914062 C 647.4375 64.128906 649.71875 64.023438 651.945312 64.023438 Z M 651.945312 78.75 "/>
<path style=" stroke:none;fill-rule:nonzero;fill:rgb(100%,100%,100%);fill-opacity:1;" d="M 553.058594 0.0546875 C 556.972656 1.140625 560.066406 3.152344 561.15625 7.390625 C 562.511719 12.71875 559.523438 17.824219 554.144531 19.402344 C 549.253906 20.816406 544.039062 18.097656 542.410156 13.207031 C 540.671875 7.933594 543.277344 2.609375 548.441406 0.707031 C 548.929688 0.542969 549.582031 0.761719 549.800781 0.0546875 Z M 553.058594 0.0546875 "/>
<path style=" stroke:none;fill-rule:nonzero;fill:rgb(100%,100%,100%);fill-opacity:1;" d="M 59.113281 35.433594 C 57.8125 35.925781 57.59375 36.902344 57.105469 37.609375 C 51.617188 46.628906 46.128906 55.652344 40.585938 64.675781 C 38.847656 67.554688 37.816406 67.554688 36.078125 64.675781 C 30.96875 56.25 25.863281 47.824219 20.753906 39.402344 C 19.941406 38.042969 19.179688 36.574219 17.660156 35.324219 C 17.660156 39.183594 17.660156 42.71875 17.660156 46.25 C 17.660156 56.195312 17.605469 66.140625 17.765625 76.085938 C 17.820312 78.261719 17.113281 78.859375 15.050781 78.75 C 10.867188 78.585938 6.738281 78.640625 2.554688 78.75 C 0.761719 78.804688 0.0546875 78.371094 0.0546875 76.359375 C 0.109375 52.554688 0.109375 28.695312 0 4.835938 C 0 2.878906 0.597656 2.390625 2.5 2.445312 C 6.628906 2.609375 10.8125 2.609375 14.996094 2.445312 C 17.007812 2.390625 18.09375 3.097656 19.125 4.78125 C 24.992188 14.566406 30.96875 24.238281 36.839844 33.96875 C 37.816406 35.597656 38.359375 36.46875 39.773438 34.074219 C 45.695312 24.074219 51.835938 14.128906 57.863281 4.183594 C 58.570312 2.988281 59.441406 2.390625 60.90625 2.390625 C 65.417969 2.445312 69.980469 2.5 74.492188 2.390625 C 76.230469 2.335938 76.609375 2.988281 76.609375 4.566406 C 76.554688 28.53125 76.554688 52.5 76.609375 76.46875 C 76.609375 78.152344 76.230469 78.804688 74.382812 78.75 C 70.144531 78.585938 65.851562 78.585938 61.613281 78.75 C 59.277344 78.859375 59.007812 77.988281 59.007812 75.976562 C 59.113281 62.933594 59.113281 49.945312 59.167969 36.902344 C 59.222656 36.523438 59.167969 36.140625 59.113281 35.433594 Z M 59.113281 35.433594 "/>
<path style=" stroke:none;fill-rule:nonzero;fill:rgb(100%,100%,100%);fill-opacity:1;" d="M 346.753906 28.585938 C 348.984375 27.933594 349.90625 25.976562 351.753906 25.054688 C 357.949219 21.957031 369.683594 21.738281 374.410156 28.695312 C 375.226562 29.890625 376.09375 29.621094 377.074219 28.640625 C 383.160156 22.390625 390.601562 21.792969 398.425781 24.128906 C 406.628906 26.574219 410.542969 32.773438 411.847656 40.925781 C 412.171875 42.878906 412.171875 44.890625 412.226562 46.847656 C 412.28125 56.792969 412.28125 66.738281 412.335938 76.683594 C 412.335938 78.207031 412.117188 79.023438 410.269531 78.96875 C 406.195312 78.859375 402.121094 78.859375 398.046875 78.914062 C 396.363281 78.96875 395.765625 78.585938 395.765625 76.628906 C 395.925781 66.574219 395.980469 56.574219 395.871094 46.523438 C 395.816406 41.304688 393.046875 38.261719 388.59375 38.042969 C 383.703125 37.773438 380.441406 40.488281 379.679688 45.597656 C 379.519531 46.847656 379.464844 48.097656 379.464844 49.402344 C 379.464844 58.640625 379.464844 67.824219 379.574219 77.066406 C 379.574219 78.640625 379.03125 78.914062 377.726562 78.914062 C 373.488281 78.859375 369.195312 78.859375 364.957031 78.914062 C 363.382812 78.96875 363.054688 78.316406 363.054688 76.847656 C 363.164062 66.902344 363.21875 56.957031 363.164062 47.011719 C 363.164062 40.925781 360.121094 37.878906 354.742188 38.097656 C 350.9375 38.261719 348.058594 40.597656 347.296875 44.402344 C 346.972656 45.976562 346.863281 47.609375 346.863281 49.238281 C 346.863281 58.476562 346.863281 67.664062 346.917969 76.902344 C 346.917969 78.097656 346.917969 78.96875 345.234375 78.96875 C 340.886719 78.859375 336.539062 78.859375 332.195312 78.914062 C 330.78125 78.914062 330.347656 78.425781 330.402344 77.011719 C 330.457031 60.273438 330.457031 43.53125 330.402344 26.792969 C 330.402344 24.945312 331.054688 24.457031 332.738281 24.511719 C 336.105469 24.621094 339.421875 24.511719 342.789062 24.511719 C 345.558594 24.511719 346.917969 25.871094 346.753906 28.585938 Z M 346.753906 28.585938 "/>
<path style=" stroke:none;fill-rule:nonzero;fill:rgb(100%,100%,100%);fill-opacity:1;" d="M 302.09375 29.074219 C 302.09375 28.152344 302.148438 27.71875 302.09375 27.28125 C 301.765625 25.21875 302.527344 24.402344 304.753906 24.511719 C 308.558594 24.675781 312.363281 24.675781 316.164062 24.511719 C 318.175781 24.457031 318.609375 25.21875 318.609375 27.011719 C 318.554688 43.640625 318.554688 60.273438 318.609375 76.902344 C 318.609375 78.476562 318.175781 78.96875 316.65625 78.914062 C 312.851562 78.859375 309.046875 78.75 305.246094 78.96875 C 302.800781 79.074219 301.714844 78.371094 302.257812 75.871094 C 302.3125 75.542969 302.203125 75.21875 302.148438 74.675781 C 301.660156 74.890625 301.332031 74.945312 301.0625 75.109375 C 286.988281 85 269.929688 80.324219 262.703125 64.621094 C 256.453125 51.03125 260.964844 34.78125 273.1875 26.683594 C 280.792969 21.628906 293.5625 21.46875 300.355469 27.824219 C 300.679688 28.207031 301.222656 28.476562 302.09375 29.074219 Z M 289.109375 38.476562 C 281.339844 38.53125 276.285156 43.75 276.230469 51.738281 C 276.230469 59.621094 281.5 65 289.214844 64.945312 C 296.933594 64.945312 302.09375 59.566406 302.09375 51.628906 C 302.148438 43.75 296.878906 38.425781 289.109375 38.476562 Z M 289.109375 38.476562 "/>
<path style=" stroke:none;fill-rule:nonzero;fill:rgb(100%,100%,100%);fill-opacity:1;" d="M 462.867188 28.75 C 462.972656 24.238281 461.886719 24.511719 467.050781 24.511719 C 470.199219 24.511719 473.40625 24.621094 476.558594 24.457031 C 478.566406 24.347656 479.328125 24.835938 479.328125 27.121094 C 479.21875 43.585938 479.21875 60 479.328125 76.46875 C 479.328125 78.640625 478.675781 79.023438 476.773438 78.914062 C 473.132812 78.804688 469.546875 78.75 465.910156 78.914062 C 463.410156 79.074219 462.484375 78.207031 462.972656 75.761719 C 463.027344 75.433594 462.972656 75.054688 462.972656 74.726562 C 462.429688 74.292969 462.050781 74.726562 461.777344 75 C 454.390625 82.335938 438.46875 82.773438 428.851562 72.71875 C 415.921875 59.183594 418.421875 36.574219 434.175781 26.414062 C 441.785156 21.523438 454.0625 21.46875 461.074219 27.773438 C 461.507812 28.261719 461.886719 28.859375 462.867188 28.75 Z M 449.878906 38.476562 C 442.054688 38.476562 437.058594 43.640625 437.003906 51.738281 C 436.949219 59.621094 442.21875 65 449.933594 65 C 457.59375 64.945312 462.921875 59.511719 462.867188 51.683594 C 462.867188 43.804688 457.648438 38.476562 449.878906 38.476562 Z M 449.878906 38.476562 "/>
<path style=" stroke:none;fill-rule:nonzero;fill:rgb(100%,100%,100%);fill-opacity:1;" d="M 111.273438 57.066406 C 113.121094 51.085938 114.914062 45.164062 116.707031 39.238281 C 118.011719 35 119.316406 30.761719 120.566406 26.523438 C 120.945312 25.109375 121.597656 24.402344 123.171875 24.457031 C 127.628906 24.566406 132.03125 24.566406 136.484375 24.457031 C 138.660156 24.402344 138.605469 25.273438 138.007812 26.847656 C 133.226562 40.273438 128.390625 53.75 123.664062 67.175781 C 120.183594 77.066406 116.761719 86.957031 113.449219 96.902344 C 112.90625 98.476562 112.253906 99.023438 110.566406 99.023438 C 105.949219 98.914062 101.332031 98.859375 96.714844 99.023438 C 94.59375 99.074219 94.484375 98.316406 95.082031 96.628906 C 97.3125 90.597656 99.484375 84.566406 101.765625 78.585938 C 102.308594 77.121094 102.363281 75.871094 101.765625 74.457031 C 95.136719 58.75 88.5625 42.988281 81.878906 27.28125 C 81.066406 25.378906 80.847656 24.347656 83.511719 24.457031 C 87.855469 24.621094 92.203125 24.621094 96.550781 24.457031 C 98.453125 24.402344 99.210938 25.164062 99.808594 26.847656 C 103.070312 36.25 106.4375 45.597656 109.808594 54.890625 C 110.078125 55.652344 110.078125 56.574219 111.273438 57.066406 Z M 111.273438 57.066406 "/>
<path style=" stroke:none;fill-rule:nonzero;fill:rgb(100%,100%,100%);fill-opacity:1;" d="M 147.351562 78.695312 C 170.28125 54.347656 192.882812 30.324219 215.484375 6.304688 C 215.703125 6.46875 215.921875 6.683594 216.136719 6.847656 C 213.964844 9.945312 211.898438 13.152344 209.5625 16.140625 C 208.367188 17.71875 208.152344 18.75 209.238281 20.652344 C 216.410156 33.425781 216.789062 46.574219 210.050781 59.511719 C 203.53125 71.957031 192.664062 78.371094 178.648438 78.804688 C 168.8125 79.074219 158.925781 78.859375 149.089844 78.859375 C 148.65625 78.914062 148.222656 78.804688 147.351562 78.695312 Z M 197.828125 40.433594 C 197.828125 39.238281 197.828125 38.097656 197.828125 36.902344 C 197.828125 36.414062 197.9375 35.707031 197.285156 35.542969 C 196.6875 35.378906 196.304688 35.871094 195.925781 36.25 C 195.492188 36.792969 195.058594 37.390625 194.675781 37.988281 C 189.949219 44.890625 185.222656 51.792969 180.496094 58.75 C 179.84375 59.675781 178.320312 60.652344 179.027344 61.628906 C 179.734375 62.664062 181.363281 61.902344 182.558594 61.683594 C 192.121094 59.726562 198.207031 51.304688 197.828125 40.433594 Z M 197.828125 40.433594 "/>
<path style=" stroke:none;fill-rule:nonzero;fill:rgb(100%,100%,100%);fill-opacity:1;" d="M 491.714844 40.707031 C 491.714844 28.859375 491.769531 17.011719 491.664062 5.164062 C 491.664062 2.988281 492.3125 2.390625 494.433594 2.445312 C 498.617188 2.609375 502.746094 2.554688 506.929688 2.445312 C 508.722656 2.390625 509.210938 2.878906 509.210938 4.675781 C 509.15625 22.824219 509.210938 41.03125 509.050781 59.183594 C 509.050781 61.683594 509.699219 62.226562 512.039062 62.175781 C 519.371094 62.011719 526.707031 62.175781 534.042969 62.066406 C 535.835938 62.066406 536.597656 62.445312 536.488281 64.511719 C 536.269531 68.585938 536.324219 72.664062 536.433594 76.683594 C 536.488281 78.316406 536.160156 78.96875 534.421875 78.914062 C 520.839844 78.859375 507.257812 78.859375 493.726562 78.914062 C 491.988281 78.914062 491.664062 78.316406 491.664062 76.738281 C 491.714844 64.726562 491.714844 52.71875 491.714844 40.707031 Z M 491.714844 40.707031 "/>
<path style=" stroke:none;fill-rule:nonzero;fill:rgb(100%,100%,100%);fill-opacity:1;" d="M 589.789062 80.488281 C 581.636719 80.21875 573.8125 77.824219 568.652344 69.835938 C 567.566406 68.152344 567.347656 67.226562 569.578125 66.195312 C 573 64.566406 576.203125 62.554688 579.464844 60.542969 C 580.769531 59.726562 581.53125 59.621094 582.453125 61.140625 C 584.953125 65.273438 589.082031 66.847656 593.644531 65.652344 C 595.058594 65.273438 596.472656 64.726562 596.6875 62.988281 C 596.90625 61.140625 595.546875 60.378906 594.1875 59.945312 C 589.679688 58.425781 585.007812 57.175781 580.550781 55.433594 C 571.859375 52.121094 568 44.183594 570.773438 35.542969 C 572.945312 28.75 578.160156 25.164062 584.84375 23.804688 C 595.167969 21.683594 604.242188 23.96875 611.140625 32.5 C 612.5 34.183594 612.554688 35 610.328125 36.03125 C 607.011719 37.5 603.914062 39.347656 600.816406 41.195312 C 599.296875 42.066406 598.425781 42.175781 597.339844 40.488281 C 595.65625 37.878906 592.015625 36.847656 589.136719 37.824219 C 587.996094 38.207031 586.964844 38.695312 586.800781 40.164062 C 586.582031 41.683594 587.5625 42.226562 588.648438 42.773438 C 592.234375 44.566406 596.253906 45.109375 600.003906 46.359375 C 602.9375 47.335938 605.816406 48.53125 608.152344 50.542969 C 616.953125 57.988281 615 72.445312 604.566406 77.664062 C 600.113281 79.675781 595.4375 80.433594 589.789062 80.488281 Z M 589.789062 80.488281 "/>
<path style=" stroke:none;fill-rule:nonzero;fill:rgb(100%,100%,100%);fill-opacity:1;" d="M 136.105469 47.445312 C 139.039062 48.316406 142.027344 49.023438 144.851562 50.054688 C 146.972656 50.816406 147.242188 50.109375 147.242188 48.207031 C 147.1875 33.914062 147.242188 19.675781 147.132812 5.378906 C 147.132812 3.371094 147.570312 2.773438 149.632812 2.773438 C 159.304688 2.878906 168.976562 2.773438 178.648438 2.824219 C 188.046875 2.878906 196.035156 6.46875 203.042969 12.554688 C 204.238281 13.585938 203.96875 14.238281 202.878906 15.054688 C 199.402344 17.664062 195.980469 20.324219 192.613281 22.988281 C 191.632812 23.75 190.65625 23.96875 189.675781 23.207031 C 185.386719 19.945312 180.386719 19.511719 175.226562 19.566406 C 172.398438 19.621094 169.628906 19.726562 166.804688 19.566406 C 164.957031 19.457031 164.519531 20.109375 164.519531 21.847656 C 164.628906 28.371094 164.519531 34.835938 164.628906 41.359375 C 164.683594 43.261719 164.085938 44.566406 162.566406 45.652344 C 158.164062 48.804688 153.761719 52.175781 149.417969 55.542969 C 147.894531 56.738281 146.753906 57.066406 145.070312 55.488281 C 142.191406 52.824219 138.984375 50.488281 135.886719 48.042969 Z M 136.105469 47.445312 "/>
<path style=" stroke:none;fill-rule:nonzero;fill:rgb(100%,100%,100%);fill-opacity:1;" d="M 240.589844 33.207031 C 243.304688 27.335938 247.707031 24.78125 253.085938 23.640625 C 256.398438 22.933594 256.617188 23.097656 256.617188 26.414062 C 256.617188 30.652344 256.5625 34.890625 256.671875 39.128906 C 256.726562 41.140625 256.398438 42.066406 254.0625 41.847656 C 251.128906 41.574219 248.25 42.121094 245.75 43.75 C 241.945312 46.195312 240.207031 49.78125 240.207031 54.292969 C 240.207031 61.683594 240.152344 69.128906 240.316406 76.523438 C 240.371094 78.53125 239.773438 78.96875 237.925781 78.914062 C 233.960938 78.804688 229.992188 78.804688 225.972656 78.914062 C 224.449219 78.914062 223.800781 78.585938 223.800781 76.847656 C 223.851562 60.21875 223.851562 43.585938 223.800781 26.957031 C 223.800781 25 224.449219 24.457031 226.242188 24.511719 C 230.210938 24.621094 234.230469 24.621094 238.199219 24.511719 C 239.882812 24.457031 240.535156 25.109375 240.316406 26.738281 C 240.152344 28.585938 240.097656 30.433594 240.589844 33.207031 Z M 240.589844 33.207031 "/>
<path style=" stroke:none;fill-rule:nonzero;fill:rgb(100%,100%,100%);fill-opacity:1;" d="M 559.851562 52.175781 C 559.851562 60.378906 559.796875 68.640625 559.90625 76.847656 C 559.90625 78.476562 559.523438 79.074219 557.785156 79.023438 C 553.65625 78.914062 549.472656 78.914062 545.289062 78.96875 C 543.714844 79.023438 543.332031 78.371094 543.386719 76.902344 C 543.441406 62.066406 543.496094 47.28125 543.441406 32.445312 C 543.441406 30.976562 543.769531 30.164062 545.34375 29.78125 C 549.417969 28.695312 553.492188 27.445312 557.570312 26.140625 C 559.363281 25.542969 559.90625 25.816406 559.90625 27.824219 C 559.742188 35.871094 559.796875 44.023438 559.851562 52.175781 Z M 559.851562 52.175781 "/>
</g>
</svg>
