<?xml version="1.0" encoding="UTF-8"?>
<svg xmlns="http://www.w3.org/2000/svg" version="1.1" xmlns:cc="http://creativecommons.org/ns#" xmlns:dc="http://purl.org/dc/elements/1.1/" xmlns:inkscape="http://www.inkscape.org/namespaces/inkscape" xmlns:rdf="http://www.w3.org/1999/02/22-rdf-syntax-ns#" xmlns:sodipodi="http://sodipodi.sourceforge.net/DTD/sodipodi-0.dtd" xmlns:svg="http://www.w3.org/2000/svg" viewBox="0 0 1000 197.7">
  <defs>
    <style>
      .cls-1 {
        fill: #00a6e6;
      }

      .cls-1, .cls-2, .cls-3, .cls-4, .cls-5, .cls-6, .cls-7, .cls-8, .cls-9 {
        stroke-width: 0px;
      }

      .cls-2 {
        fill: #e73088;
      }

      .cls-3 {
        fill: #a6c613;
      }

      .cls-4 {
        fill: #c80c0f;
      }

      .cls-5 {
        fill: #f6a500;
      }

      .cls-6 {
        fill: #9c9b9b;
      }

      .cls-7 {
        fill: #fff;
      }

      .cls-8 {
        fill: #e30521;
      }

      .cls-9 {
        fill: #009881;
      }
    </style>
  </defs>
  <g id="svg4173" inkscape:version="0.48.5 r10040">
    <sodipodi:namedview id="base" bordercolor="#666666" borderopacity="1.0" fit-margin-bottom="0.5" fit-margin-left="0.5" fit-margin-right="0.5" fit-margin-top="0.5" inkscape:current-layer="layer1" inkscape:cx="548.95302" inkscape:cy="-163.5896" inkscape:document-units="px" inkscape:pageopacity="0.0" inkscape:pageshadow="2" inkscape:window-height="1044" inkscape:window-maximized="0" inkscape:window-width="1054" inkscape:window-x="872" inkscape:window-y="-19" inkscape:zoom="0.57900391" pagecolor="#ffffff" showgrid="false"/>
    <g id="layer1" inkscape:groupmode="layer" inkscape:label="Layer 1">
      <g id="g3253">
        <path id="path3255" class="cls-7" d="M937.8,130.2l-15.1,23.1-15.1-23.1h-12.5l21.3,32.7-22.3,34.3h12.7l16-24.5,16,24.5h12.5l-22.2-34.1,21.4-32.8h-12.6Z" inkscape:connector-curvature="0"/>
      </g>
      <g id="g3257">
        <g id="g3259">
          <g id="g3265">
            <path id="path3267" class="cls-7" d="M958.2,130.2v49.8s0,17.2,17.2,17.2h24.2v-10.2h-23.4s-7.1-.2-7.1-8v-48.9s-10.9,0-10.9,0" inkscape:connector-curvature="0"/>
          </g>
          <g id="g3269">
            <path id="path3271" class="cls-6" d="M480.5,186.8c0,1.1-.9,1.9-1.9,1.9h-36.5c-1.1,0-1.9-.9-1.9-1.9v-26.4c0-1.1.9-1.9,1.9-1.9h36.5c1.1,0,1.9.9,1.9,1.9v26.4ZM478.9,150.5h-37.2c-5.4,0-9.8,4.4-9.8,9.8v26.5c0,5.4,4.4,9.8,9.8,9.8h37.2c5.4,0,9.8-4.4,9.8-9.8v-26.5c0-5.4-4.4-9.8-9.8-9.8" inkscape:connector-curvature="0"/>
          </g>
          <g id="g3273">
            <path id="path3275" class="cls-7" d="M52.4,110.9v34.2h-8.5v-46.1h7.3l34.6,33.6v-33.6h8.4v46.1h-6.7l-35.1-34.2Z" inkscape:connector-curvature="0"/>
          </g>
          <g id="g3277">
            <path id="path3279" class="cls-7" d="M137.9,110.9v34.2h-8.5v-46.1h7.3l34.5,33.6v-33.6h8.4v46.1h-6.7l-35.1-34.2Z" inkscape:connector-curvature="0"/>
          </g>
          <g id="g3281">
            <path id="path3283" class="cls-7" d="M315.2,110.9v34.2h-8.5v-46.1h7.3l34.5,33.6v-33.6h8.4v46.1h-6.7l-35.1-34.2Z" inkscape:connector-curvature="0"/>
          </g>
          <g id="g3285">
            <path id="path3287" class="cls-7" d="M114.4,98.9h1.6v46.1h-8.5v-46.1h7Z" inkscape:connector-curvature="0"/>
          </g>
          <g id="g3289">
            <path id="path3291" class="cls-7" d="M237.8,98.9h1.6v7.9h-20.6v38.2h-8.9v-38.2h-20.6v-7.9h48.4Z" inkscape:connector-curvature="0"/>
          </g>
          <g id="g3293">
            <path id="path3295" class="cls-7" d="M292.4,98.9h1.6v7.9h-36.6v10.3h28.3v7.9h-28.3v12h36.6v7.9h-45v-46.1h43.4Z" inkscape:connector-curvature="0"/>
          </g>
          <g id="g3297">
            <path id="path3299" class="cls-7" d="M404.4,137.1h-26.2v-30.2h26.2c8.2,0,11.1,8.1,11.1,15.1s-2.9,15.1-11.1,15.1M418.4,105.7c-3.3-4.4-8.3-6.7-14.2-6.7h-34.2v46.1h34.2c5.9,0,10.9-2.3,14.2-6.7,3.1-4.1,4.8-9.7,4.8-16.3s-1.6-12.2-4.8-16.3" inkscape:connector-curvature="0"/>
          </g>
          <g id="g3301">
            <path id="path3303" class="cls-7" d="M480.5,135.2c0,1-.9,1.9-1.9,1.9h-36.5c-1.1,0-1.9-.9-1.9-1.9v-26.4c0-1,.9-1.9,1.9-1.9h36.5c1.1,0,1.9.9,1.9,1.9v26.4ZM478.9,98.9h-37.2c-5.4,0-9.8,4.4-9.8,9.8v26.5c0,5.4,4.4,9.8,9.8,9.8h37.2c5.4,0,9.8-4.4,9.8-9.8v-26.5c0-5.4-4.4-9.8-9.8-9.8" inkscape:connector-curvature="0"/>
          </g>
          <g id="g3305">
            <path id="path3307" class="cls-7" d="M756.2,177.3c8.9,3.5,27.5,6.3,42.1,6.3s22.6-5.5,22.6-12.4-6.1-9.8-23.8-16.2c-23.5-8.7-40.8-15.6-40.8-31s20.8-25.4,52.5-25.4,22.9,1.1,33.7,3.1v15.2c-10.6-2-19.9-5.5-34.6-5.5s-22.4,5-22.4,10.1c0,7.4,10.3,11,28.3,17.4,25.1,9,39.1,15.9,39.1,31.1s-17.5,26.8-56.9,26.8-27.4-1.1-39.8-3v-16.4Z" inkscape:connector-curvature="0"/>
          </g>
          <g id="g3309">
            <path id="path3311" class="cls-7" d="M672.2,112h-18.8v71.1h18.8c28.8,0,47-12.3,47-35.4s-18.2-35.7-47-35.7M722.6,189.7c-9.3,4.2-26.8,6.9-42.2,6.9h-58.7v-97.8h58.7c15.4,0,32.9,2.7,42.2,6.9,22.6,10.2,30,26.5,30,42s-7.3,31.8-30,42" inkscape:connector-curvature="0"/>
          </g>
          <g id="g3313">
            <path id="path3315" class="cls-4" d="M580.6,143s27.4-4.4,27.4-21.4-29.2-23.5-60.2-23.5-46.4,3.4-46.4,3.4v15.1c12.7-3.1,24.9-5.7,41.4-5.7s31.3,5.3,31.3,12.8-13.4,14.2-42.3,14.2h-13.3v13.6h12.3c30.4,0,47.7,4.6,47.7,15.7s-15.5,16-34.7,16-32.2-3.6-44.6-7v16.3c6,1,21.9,4.2,51.5,4.2s61.3-10.6,61.3-29.1c0-15.6-19.8-24.7-31.4-24.7" inkscape:connector-curvature="0"/>
          </g>
          <g id="g3317">
            <path id="path3319" class="cls-7" d="M860.9,185.6h-3.1v-1.7h8.2v1.7h-3.1v9.2h-2v-9.2Z" inkscape:connector-curvature="0"/>
          </g>
          <g id="g3321">
            <path id="path3323" class="cls-7" d="M876.4,190.3c0-1.4-.2-3.1-.1-4.6h0c-.4,1.3-.8,2.8-1.3,4.1l-1.6,4.7h-1.5l-1.4-4.6c-.4-1.4-.8-2.9-1.1-4.2h0c0,1.4-.1,3.1-.2,4.6l-.2,4.4h-1.9l.7-10.8h2.6l1.4,4.4c.4,1.3.7,2.6,1,3.8h0c.3-1.2.7-2.5,1.1-3.8l1.5-4.3h2.6l.6,10.8h-1.9l-.2-4.4Z" inkscape:connector-curvature="0"/>
          </g>
          <g id="g3325">
            <path id="path3327" class="cls-3" d="M22.5,37.6l-20.3-2.7c-.6,0-1.2.4-1.3,1-.7,5.7-.7,11.4,0,17,0,.6.6,1,1.2,1l20.3-2.6c.6,0,1-.6.9-1.2-.4-3.7-.4-7.5,0-11.2,0-.6-.3-1.1-.9-1.2" inkscape:connector-curvature="0"/>
          </g>
          <g id="g3329">
            <path id="path3331" class="cls-8" d="M32.8,13.2L16.6.7c-.5-.4-1.2-.3-1.6.2-3.4,4.6-6.3,9.5-8.5,14.7-.2.6,0,1.2.6,1.5l18.9,7.8c.6.2,1.2,0,1.4-.6,1.5-3.4,3.4-6.7,5.6-9.7.4-.5.3-1.2-.2-1.5" inkscape:connector-curvature="0"/>
          </g>
          <g id="g3333">
            <path id="path3335" class="cls-1" d="M25.8,63.8l-18.9,7.8c-.6.2-.8.9-.6,1.4,2.3,5.2,5.1,10.2,8.5,14.8.4.5,1.1.6,1.6.2l16.2-12.4c.5-.4.6-1,.2-1.5-2.2-3-4.1-6.3-5.6-9.7-.2-.5-.9-.8-1.4-.6" inkscape:connector-curvature="0"/>
          </g>
          <g id="g3337">
            <path id="path3339" class="cls-7" d="M176.9,58.9h-16.7c-1,0-1.6.2-1.9.4,0,0-.1,0-.2.2h0c-2.6,1.7-6.3,3.3-11,3.3-12.7,0-17.4-10.5-17.4-18.3s5.1-18.3,17.5-18.3,14.5,5.6,16,11.1c.2.6.3,1.3-.3,1.3h-24.2c-.7,0-1.3.6-1.3,1.3v10.4c0,.7.6,1.3,1.3,1.3h33.4c6.9,0,8.7-2.2,8.7-8.7,0-18.8-15.5-32.2-33.3-32.2s-33.7,13.7-33.7,31.7,11.1,36,33.8,36,27.3-11.2,30.7-18.1c.1-.3.5-1.3-1.2-1.3" inkscape:connector-curvature="0"/>
          </g>
          <g id="g3341">
            <path id="path3343" class="cls-7" d="M44.8,76.6c-.5,0-.9-.4-.9-.9v-37c0-14,11.7-28.1,30.8-28.1s30.8,14,30.8,28.1v37c0,.5-.4.9-.9.9h-15.1c-.5,0-.9-.4-.9-.9v-34.8c0-6.6-4.8-13.3-13.8-13.3s-13.8,6.6-13.8,13.3v34.8c0,.5-.4.9-.9.9h-15.1Z" inkscape:connector-curvature="0"/>
          </g>
          <g id="g3345">
            <path id="path3347" class="cls-7" d="M239.6,12.2c.5,0,.9.4.9.9v38.4c0,6.6,2.9,9.8,7.6,9.8s8.1-3.1,8.1-9.8V13.1c0-.5.4-.9.9-.9h15.9c.5,0,.9.4.9.9v39.6c0,15.6-10.5,25.4-23.2,25.4s-13.7-1.4-19.6-9.1c-4.9,7.7-12.8,9.1-18.5,9.1-12.7,0-23.2-9.8-23.2-25.4V13.1c0-.5.4-.9.9-.9h15.9c.5,0,.9.4.9.9v38.4c0,6.6,3.6,9.8,8.1,9.8s7.6-3.1,7.6-9.8V13.1c0-.5.4-.9.9-.9h15.9Z" inkscape:connector-curvature="0"/>
          </g>
          <g id="g3349">
            <path id="path3351" class="cls-5" d="M298.3,51.2l20.3,2.7c.6,0,1.2-.4,1.3-1,.7-5.6.7-11.4,0-17,0-.6-.6-1-1.3-1l-20.3,2.6c-.6,0-1,.6-.9,1.2.4,3.7.4,7.5,0,11.2,0,.6.3,1.2.9,1.2" inkscape:connector-curvature="0"/>
          </g>
          <g id="g3353">
            <path id="path3355" class="cls-2" d="M288,75.6l16.2,12.5c.5.4,1.2.3,1.6-.2,3.4-4.6,6.3-9.5,8.5-14.7.2-.6,0-1.2-.6-1.4l-18.9-7.9c-.6-.2-1.2,0-1.4.6-1.5,3.4-3.4,6.7-5.6,9.7-.4.5-.3,1.2.2,1.5" inkscape:connector-curvature="0"/>
          </g>
          <g id="g3357">
            <path id="path3359" class="cls-9" d="M295,25l18.9-7.8c.6-.2.8-.9.6-1.5-2.3-5.2-5.1-10.2-8.5-14.8-.4-.5-1.1-.6-1.6-.2l-16.2,12.4c-.5.4-.6,1-.2,1.5,2.2,3,4.1,6.3,5.6,9.7.2.5.9.8,1.4.6" inkscape:connector-curvature="0"/>
          </g>
        </g>
      </g>
    </g>
  </g>
</svg>