<?xml version="1.0" encoding="utf-8"?>
<!-- Generator: Adobe Illustrator 22.1.0, SVG Export Plug-In . SVG Version: 6.00 Build 0)  -->
<svg version="1.1"
	 id="svg4173" inkscape:version="0.48.5 r10040" sodipodi:docname="A.svg" xmlns:cc="http://creativecommons.org/ns#" xmlns:dc="http://purl.org/dc/elements/1.1/" xmlns:inkscape="http://www.inkscape.org/namespaces/inkscape" xmlns:rdf="http://www.w3.org/1999/02/22-rdf-syntax-ns#" xmlns:sodipodi="http://sodipodi.sourceforge.net/DTD/sodipodi-0.dtd" xmlns:svg="http://www.w3.org/2000/svg"
	 xmlns="http://www.w3.org/2000/svg" xmlns:xlink="http://www.w3.org/1999/xlink" x="0px" y="0px" viewBox="0 0 988.8 196.9"
	 style="enable-background:new 0 0 988.8 196.9;" xml:space="preserve">
<style type="text/css">
	.st0{fill:#9C9B9B;}
	.st1{fill:#1D1D1B;}
	.st2{fill:#C80C0F;}
	.st3{fill:#A6C613;}
	.st4{fill:#E30521;}
	.st5{fill:#00A6E6;}
	.st6{fill:#F6A500;}
	.st7{fill:#E73088;}
	.st8{fill:#009881;}
</style>
<g>
	<g id="g3269" transform="translate(476.2125,216.3977)">
		<path id="path3271" inkscape:connector-curvature="0" class="st0" d="M4-30c0,1.1-0.9,1.9-1.9,1.9h-36.5c-1.1,0-1.9-0.9-1.9-1.9
			v-26.4c0-1.1,0.9-1.9,1.9-1.9H2.1c1.1,0,1.9,0.9,1.9,1.9V-30z M2.4-66.2h-37.2c-5.4,0-9.8,4.4-9.8,9.8v26.5c0,5.4,4.4,9.8,9.8,9.8
			H2.4c5.4,0,9.8-4.4,9.8-9.8v-26.5C12.2-61.9,7.8-66.2,2.4-66.2"/>
	</g>
	<g id="g3273" transform="translate(445.0498,221.9251)">
		<path id="path3275" inkscape:connector-curvature="0" class="st1" d="M-392.9-111.5v34.2h-8.5v-46.1h7.3l34.6,33.6v-33.6h6.8h1.6
			v46.1h-6.7L-392.9-111.5z"/>
	</g>
	<g id="g3277" transform="translate(451.2764,221.9251)">
		<path id="path3279" inkscape:connector-curvature="0" class="st1" d="M-313.6-111.5v34.2h-8.5v-46.1h7.3l34.5,33.6v-33.6h6.8h1.6
			v46.1h-6.7L-313.6-111.5z"/>
	</g>
	<g id="g3281" transform="translate(464.1791,221.9251)">
		<path id="path3283" inkscape:connector-curvature="0" class="st1" d="M-149.3-111.5v34.2h-8.5v-46.1h7.3l34.5,33.6v-33.6h6.8h1.6
			v46.1h-6.7L-149.3-111.5z"/>
	</g>
	<g id="g3285" transform="translate(449.5655,222.7948)">
		<path id="path3287" inkscape:connector-curvature="0" class="st1" d="M-335.4-124.3h1.6v46.1h-8.5v-46.1H-335.4z"/>
	</g>
	<g id="g3289" transform="translate(458.5419,222.7948)">
		<path id="path3291" inkscape:connector-curvature="0" class="st1" d="M-221.1-124.3h1.6v7.9h-20.6v38.2h-8.9v-38.2h-20.6v-7.9
			H-221.1z"/>
	</g>
	<g id="g3293" transform="translate(462.521,222.7948)">
		<path id="path3295" inkscape:connector-curvature="0" class="st1" d="M-170.4-124.3h1.6v7.9h-36.6v10.3h28.3v7.9h-28.3v12h36.6
			v7.9h-45v-46.1L-170.4-124.3L-170.4-124.3z"/>
	</g>
	<g id="g3297" transform="translate(470.6695,220.0177)">
		<path id="path3299" inkscape:connector-curvature="0" class="st1" d="M-66.6-83.4h-26.2v-30.2h0.2h26c8.2,0,11.1,8.1,11.1,15.1
			C-55.5-91.5-58.4-83.4-66.6-83.4 M-52.6-114.8c-3.3-4.4-8.3-6.7-14.2-6.7H-101v46.1h34.2c5.9,0,10.9-2.3,14.2-6.7
			c3.1-4.1,4.8-9.7,4.8-16.3C-47.8-105-49.5-110.7-52.6-114.8"/>
	</g>
	<g id="g3301" transform="translate(476.2125,220.1554)">
		<path id="path3303" inkscape:connector-curvature="0" class="st1" d="M4-85.4c0,1-0.9,1.9-1.9,1.9h-36.5c-1.1,0-1.9-0.9-1.9-1.9
			v-26.4c0-1,0.9-1.9,1.9-1.9H2.1c1.1,0,1.9,0.9,1.9,1.9V-85.4z M2.4-121.6h-37.2c-5.4,0-9.8,4.4-9.8,9.8v26.5
			c0,5.4,4.4,9.8,9.8,9.8H2.4c5.4,0,9.8-4.4,9.8-9.8v-26.5C12.2-117.2,7.8-121.6,2.4-121.6"/>
	</g>
</g>
<g>
	<g id="g3305" transform="translate(496.277,217.0896)">
		<path id="path3307" inkscape:connector-curvature="0" class="st1" d="M259.6-40.2c8.9,3.5,27.5,6.3,42.1,6.3
			c16,0,22.6-5.5,22.6-12.4c0-6.2-6.1-9.8-23.8-16.2c-23.5-8.7-40.8-15.6-40.8-31c0-16,20.8-25.4,52.5-25.4c17,0,22.9,1.1,33.7,3.1
			l0.1,15.2c-10.6-2-20-5.5-34.6-5.5c-15.7,0-22.4,5-22.4,10.1c0,7.4,10.3,11,28.3,17.4c25.1,9,39.1,15.9,39.1,31.1
			c0,15.6-17.5,26.8-56.9,26.8c-16.2,0-27.4-1.1-39.8-3v-16.5H259.6z"/>
	</g>
	<g id="g3309" transform="translate(490.1657,221.8441)">
		<path id="path3311" inkscape:connector-curvature="0" class="st1" d="M181.8-110.3H163v71.1h18.8c28.8,0,47-12.3,47-35.4
			C228.7-97.7,210.6-110.3,181.8-110.3 M232.1-32.6c-9.3,4.2-26.8,6.9-42.2,6.9h-58.7v-97.8h58.7c15.4,0,32.9,2.7,42.2,6.9
			c22.6,10.2,30,26.5,30,42S254.8-42.8,232.1-32.6"/>
	</g>
	<g id="g32016_1_">
		<g id="g32022_1_" transform="translate(143.0724,818.4693)">
			<path id="path32024_1_" inkscape:connector-curvature="0" class="st2" d="M357.2-622.3v-14.4c0,0,0.8-17,32.7-33.2
				c19.2-9.7,39.4-16.7,39.4-25.5c0-7.5-9.3-11.9-28-11.9c-14.5,0-29.9,4.8-41.3,10v-15.8c14.2-4.4,25.7-7.3,47.6-7.3
				c16.7,0,29.9,2.8,40.1,7.2c10.5,4.6,14.8,11.4,15.1,17c0.9,17.6-26.5,25.8-44,34.7c-16.9,8.7-25.9,16-27.6,24.7h70.2v14.4
				L357.2-622.3L357.2-622.3z"/>
		</g>
	</g>
</g>
<g>
	<g id="g3317" transform="translate(503.898,216.4876)">
		<path id="path3319" inkscape:connector-curvature="0" class="st1" d="M356.7-31.3h-3.1V-33h8.2v1.7h-3.1v9.2h-2V-31.3z"/>
	</g>
	<g id="g3321" transform="translate(505.0281,216.141)">
		<path id="path3323" inkscape:connector-curvature="0" class="st1" d="M371.1-26.2c-0.1-1.4-0.2-3.1-0.1-4.6h-0.1
			c-0.4,1.3-0.8,2.8-1.3,4.1L368-22h-1.5l-1.4-4.6c-0.4-1.4-0.8-2.9-1.1-4.2l0,0c-0.1,1.4-0.1,3.1-0.2,4.6l-0.2,4.4h-1.9l0.7-10.8
			h2.6l1.4,4.4c0.4,1.3,0.7,2.6,1,3.8l0,0c0.3-1.2,0.7-2.5,1.1-3.8l1.5-4.3h2.6l0.6,10.8h-1.9L371.1-26.2z"/>
	</g>
</g>
<g>
	<g>
		<g id="g3337" transform="translate(454.114,225.7096)">
			<path id="path3339" inkscape:connector-curvature="0" class="st1" d="M-277.5-167.2h-16.7c-1,0-1.6,0.2-1.9,0.4
				c-0.1,0-0.1,0.1-0.2,0.2l0,0l0,0c-2.6,1.7-6.3,3.3-11,3.3c-12.7,0-17.4-10.5-17.4-18.3c0-8.4,5.1-18.3,17.5-18.3
				c9,0,14.5,5.6,16,11.1c0.2,0.6,0.3,1.3-0.3,1.3h-24.2c-0.7,0-1.3,0.6-1.3,1.3v10.4c0,0.7,0.6,1.3,1.3,1.3h33.4
				c6.9,0,8.7-2.2,8.7-8.7c0-18.8-15.5-32.2-33.3-32.2s-33.7,13.7-33.7,31.7c0,19.9,11.1,36,33.8,36c18.9,0,27.3-11.2,30.7-18.1
				C-276.1-166.2-275.8-167.2-277.5-167.2"/>
		</g>
		<g id="g3341" transform="translate(444.4952,224.418)">
			<path id="path3343" inkscape:connector-curvature="0" class="st1" d="M-400-148.2c-0.5,0-0.9-0.4-0.9-0.9v-37
				c0-14,11.7-28.1,30.8-28.1c19,0,30.8,14,30.8,28.1v37c0,0.5-0.4,0.9-0.9,0.9h-15.1c-0.5,0-0.9-0.4-0.9-0.9v-34.8
				c0-6.6-4.8-13.3-13.8-13.3s-13.8,6.6-13.8,13.3v34.8c0,0.5-0.4,0.9-0.9,0.9H-400z"/>
		</g>
		<g id="g3345" transform="translate(458.6766,229.1038)">
			<path id="path3347" inkscape:connector-curvature="0" class="st1" d="M-219.4-217.3c0.5,0,0.9,0.4,0.9,0.9v38.4
				c0,6.6,2.9,9.8,7.6,9.8s8.1-3.1,8.1-9.8v-38.4c0-0.5,0.4-0.9,0.9-0.9h15.9c0.5,0,0.9,0.4,0.9,0.9v39.6
				c0,15.6-10.5,25.4-23.2,25.4c-5.4,0-13.7-1.4-19.6-9.1c-4.9,7.7-12.8,9.1-18.5,9.1c-12.7,0-23.2-9.8-23.2-25.4v-39.6
				c0-0.5,0.4-0.9,0.9-0.9h15.9c0.5,0,0.9,0.4,0.9,0.9v38.4c0,6.6,3.6,9.8,8.1,9.8s7.6-3.1,7.6-9.8v-38.4c0-0.5,0.4-0.9,0.9-0.9
				H-219.4z"/>
		</g>
	</g>
	<g>
		<g id="g3325" transform="translate(442.8737,227.2606)">
			<path id="path3327" inkscape:connector-curvature="0" class="st3" d="M-420.7-190.1l-20.3-2.7c-0.6-0.1-1.2,0.4-1.3,1
				c-0.7,5.7-0.7,11.4,0,17c0.1,0.6,0.6,1,1.2,1l20.3-2.6c0.6-0.1,1-0.6,0.9-1.2c-0.4-3.7-0.4-7.5,0-11.2
				C-419.6-189.5-420.1-190-420.7-190.1"/>
		</g>
		<g id="g3329" transform="translate(443.6224,229.0345)">
			<path id="path3331" inkscape:connector-curvature="0" class="st4" d="M-411.1-216.3l-16.2-12.4c-0.5-0.4-1.2-0.3-1.6,0.2
				c-3.4,4.6-6.3,9.5-8.5,14.7c-0.2,0.6,0,1.2,0.6,1.5l18.9,7.8c0.6,0.2,1.2,0,1.4-0.6c1.5-3.4,3.4-6.7,5.6-9.7
				C-410.6-215.2-410.6-215.9-411.1-216.3"/>
		</g>
		<g id="g3333" transform="translate(443.1127,225.3501)">
			<path id="path3335" inkscape:connector-curvature="0" class="st5" d="M-417.6-161.9l-18.9,7.8c-0.6,0.2-0.8,0.9-0.6,1.4
				c2.3,5.2,5.1,10.2,8.5,14.8c0.4,0.5,1.1,0.6,1.6,0.2l16.2-12.4c0.5-0.4,0.6-1,0.2-1.5c-2.2-3-4.1-6.3-5.6-9.7
				C-416.4-161.9-417.1-162.2-417.6-161.9"/>
		</g>
		<g id="g3349" transform="translate(462.9487,226.2645)">
			<path id="path3351" inkscape:connector-curvature="0" class="st6" d="M-164.9-175.4l20.3,2.7c0.6,0.1,1.2-0.4,1.3-1
				c0.7-5.6,0.7-11.4,0-17c-0.1-0.6-0.6-1-1.3-1l-20.3,2.6c-0.6,0.1-1,0.6-0.9,1.2c0.4,3.7,0.4,7.5,0,11.2
				C-165.9-176-165.5-175.5-164.9-175.4"/>
		</g>
		<g id="g3353" transform="translate(462.2005,224.491)">
			<path id="path3355" inkscape:connector-curvature="0" class="st7" d="M-174.5-149.3l16.2,12.5c0.5,0.4,1.2,0.3,1.6-0.2
				c3.4-4.6,6.3-9.5,8.5-14.7c0.2-0.6,0-1.2-0.6-1.4l-18.9-7.9c-0.6-0.2-1.2,0-1.4,0.6c-1.5,3.4-3.4,6.7-5.6,9.7
				C-175-150.3-175-149.6-174.5-149.3"/>
		</g>
		<g id="g3357" transform="translate(462.7099,228.1749)">
			<path id="path3359" inkscape:connector-curvature="0" class="st8" d="M-168-203.6l18.9-7.8c0.6-0.2,0.8-0.9,0.6-1.5
				c-2.3-5.2-5.1-10.2-8.5-14.8c-0.4-0.5-1.1-0.6-1.6-0.2l-16.2,12.4c-0.5,0.4-0.6,1-0.2,1.5c2.2,3,4.1,6.3,5.6,9.7
				C-169.2-203.6-168.5-203.3-168-203.6"/>
		</g>
	</g>
</g>
<g id="g3253" transform="matrix(13.738299,0,0,-13.738299,1313.747,381.45905)">
	<path id="path3267" inkscape:connector-curvature="0" class="st1" d="M-26.7,18.3v-3.6c0,0,0-1.3,1.2-1.3h1.8v0.7h-1.7
		c0,0-0.5,0-0.5,0.6v3.6H-26.7"/>
	<path id="path3267_1_" inkscape:connector-curvature="0" class="st1" d="M-30.1,18.3v-3.6c0,0,0-1.3,1.2-1.3h1.8v0.7h-1.7
		c0,0-0.5,0-0.5,0.6v3.6H-30.1"/>
</g>
</svg>
