<?xml version="1.0" encoding="utf-8"?>
<!-- Generator: Adobe Illustrator 23.0.1, SVG Export Plug-In . SVG Version: 6.00 Build 0)  -->
<svg version="1.1"
	 id="svg4173" inkscape:version="0.48.5 r10040" sodipodi:docname="A.svg" xmlns:cc="http://creativecommons.org/ns#" xmlns:dc="http://purl.org/dc/elements/1.1/" xmlns:inkscape="http://www.inkscape.org/namespaces/inkscape" xmlns:rdf="http://www.w3.org/1999/02/22-rdf-syntax-ns#" xmlns:sodipodi="http://sodipodi.sourceforge.net/DTD/sodipodi-0.dtd" xmlns:svg="http://www.w3.org/2000/svg"
	 xmlns="http://www.w3.org/2000/svg" xmlns:xlink="http://www.w3.org/1999/xlink" x="0px" y="0px" viewBox="0 0 999.1732 196.8754"
	 style="enable-background:new 0 0 999.1732 196.8754;" xml:space="preserve">
<style type="text/css">
	.st0{clip-path:url(#SVGID_2_);}
	.st1{fill:#1D1D1B;}
	.st2{fill:#9C9B9B;}
	.st3{fill:#C80C0F;}
	.st4{fill:#A6C613;}
	.st5{fill:#E30521;}
	.st6{fill:#00A6E6;}
	.st7{fill:#F6A500;}
	.st8{fill:#E73088;}
	.st9{fill:#009881;}
</style>
<sodipodi:namedview  bordercolor="#666666" borderopacity="1.0" fit-margin-bottom="0.5" fit-margin-left="0.5" fit-margin-right="0.5" fit-margin-top="0.5" id="base" inkscape:current-layer="layer1" inkscape:cx="548.95302" inkscape:cy="-163.5896" inkscape:document-units="px" inkscape:pageopacity="0.0" inkscape:pageshadow="2" inkscape:window-height="1044" inkscape:window-maximized="0" inkscape:window-width="1054" inkscape:window-x="872" inkscape:window-y="-19" inkscape:zoom="0.57900391" pagecolor="#ffffff" showgrid="false">
	</sodipodi:namedview>
<g id="layer1" transform="translate(-375.91822,-251.21179)" inkscape:groupmode="layer" inkscape:label="Layer 1">
	<g id="g3257" transform="matrix(13.738299,0,0,-13.738299,-5685.9026,3410.9395)">
		<g>
			<defs>
				<polygon id="SVGID_1_" points="441.2352,215.6641 513.9642,215.6641 513.9642,229.9941 441.2352,229.9941 441.2352,215.6641 
									"/>
			</defs>
			<clipPath id="SVGID_2_">
				<use xlink:href="#SVGID_1_"  style="overflow:visible;"/>
			</clipPath>
			<g id="g3259" class="st0">
				<g id="g3265" transform="translate(510.979,220.5136)">
					<path id="path3267" inkscape:connector-curvature="0" class="st1" d="M-0.0238,0.0261v-3.625c0,0-0.005-1.251,1.25-1.251h1.759
						v0.741h-1.7c0,0-0.514,0.018-0.514,0.579l0,3.556H-0.0238"/>
				</g>
				<g id="g3265_1_" transform="translate(510.979,220.5136)">
					<path id="path3267_1_" inkscape:connector-curvature="0" class="st1" d="M-3.6178,0.0261v-3.625c0,0-0.005-1.251,1.25-1.251
						h1.759v0.741h-1.7c0,0-0.514,0.018-0.514,0.579l0,3.556H-3.6178"/>
				</g>
				<g id="g3269" transform="translate(476.2125,216.3977)">
					<path id="path3271" inkscape:connector-curvature="0" class="st2" d="M-0.0238,0.0261c0-0.077-0.063-0.14-0.14-0.14h-2.658
						c-0.077,0-0.139,0.063-0.139,0.14v1.922c0,0.077,0.062,0.139,0.139,0.139h2.658c0.077,0,0.14-0.062,0.14-0.139V0.0261z
						 M-0.1388,2.6641h-2.708c-0.392,0-0.71-0.32-0.71-0.711v-1.932c0-0.39,0.318-0.711,0.71-0.711h2.708
						c0.392,0,0.711,0.321,0.711,0.711v1.932C0.5722,2.3441,0.2532,2.6641-0.1388,2.6641"/>
				</g>
				<g id="g3273" transform="translate(445.0498,221.9251)">
					<path id="path3275" inkscape:connector-curvature="0" class="st1" d="M-0.0238,0.0261v-2.486h-0.621v3.356h0.53l2.515-2.444
						v2.444h0.497h0.117v-3.356h-0.486L-0.0238,0.0261z"/>
				</g>
				<g id="g3277" transform="translate(451.2764,221.9251)">
					<path id="path3279" inkscape:connector-curvature="0" class="st1" d="M-0.0238,0.0261v-2.486h-0.622v3.356h0.531l2.514-2.444
						v2.444h0.498h0.116v-3.356h-0.485L-0.0238,0.0261z"/>
				</g>
				<g id="g3281" transform="translate(464.1791,221.9251)">
					<path id="path3283" inkscape:connector-curvature="0" class="st1" d="M-0.0238,0.0261v-2.486h-0.621v3.356h0.531l2.514-2.444
						v2.444h0.498h0.116v-3.356h-0.485L-0.0238,0.0261z"/>
				</g>
				<g id="g3285" transform="translate(449.5655,222.7948)">
					<path id="path3287" inkscape:connector-curvature="0" class="st1" d="M-0.0238,0.0261h0.115v-3.355h-0.621v3.355H-0.0238z"/>
				</g>
				<g id="g3289" transform="translate(458.5419,222.7948)">
					<path id="path3291" inkscape:connector-curvature="0" class="st1" d="M-0.0238,0.0261h0.114v-0.578h-1.497v-2.777h-0.645v2.777
						h-1.497v0.578L-0.0238,0.0261z"/>
				</g>
				<g id="g3293" transform="translate(462.521,222.7948)">
					<path id="path3295" inkscape:connector-curvature="0" class="st1" d="M-0.0238,0.0261h0.116v-0.578h-2.662v-0.752h2.059v-0.576
						h-2.059v-0.871h2.662v-0.578h-3.277v3.355H-0.0238z"/>
				</g>
				<g id="g3297" transform="translate(470.6695,220.0177)">
					<path id="path3299" inkscape:connector-curvature="0" class="st1" d="M-0.0238,0.0261h-1.907v2.199h0.018h1.889
						c0.596,0,0.809-0.592,0.809-1.099C0.7852,0.6181,0.5722,0.0261-0.0238,0.0261 M0.9952,2.3121
						c-0.242,0.321-0.603,0.491-1.036,0.491h-2.489v-3.355h2.489c0.433,0,0.794,0.169,1.036,0.49
						c0.228,0.298,0.348,0.708,0.348,1.188C1.3432,1.6041,1.2232,2.0161,0.9952,2.3121"/>
				</g>
				<g id="g3301" transform="translate(476.2125,220.1554)">
					<path id="path3303" inkscape:connector-curvature="0" class="st1" d="M-0.0238,0.0261c0-0.075-0.063-0.138-0.14-0.138h-2.658
						c-0.077,0-0.139,0.063-0.139,0.138v1.924c0,0.075,0.062,0.137,0.139,0.137h2.658c0.077,0,0.14-0.062,0.14-0.137V0.0261z
						 M-0.1388,2.6651h-2.708c-0.392,0-0.71-0.321-0.71-0.712v-1.932c0-0.39,0.318-0.711,0.71-0.711h2.708
						c0.392,0,0.711,0.321,0.711,0.711v1.932C0.5722,2.3441,0.2532,2.6651-0.1388,2.6651"/>
				</g>
				<g id="g3305" transform="translate(496.277,217.0896)">
					<path id="path3307" inkscape:connector-curvature="0" class="st1" d="M-0.0238,0.0261c0.645-0.254,2.004-0.46,3.065-0.46
						c1.161,0,1.643,0.399,1.643,0.899c0,0.449-0.447,0.712-1.73,1.182c-1.714,0.634-2.973,1.134-2.973,2.26
						c0,1.166,1.514,1.852,3.822,1.852c1.238,0,1.664-0.079,2.451-0.223l0.006-1.107c-0.774,0.147-1.458,0.399-2.522,0.399
						c-1.14,0-1.627-0.361-1.627-0.734c0-0.542,0.75-0.801,2.062-1.268c1.827-0.655,2.844-1.159,2.844-2.262
						c0-1.134-1.273-1.953-4.144-1.953c-1.18,0-1.993,0.077-2.897,0.222L-0.0238,0.0261z"/>
				</g>
				<g id="g3309" transform="translate(490.1657,221.8441)">
					<path id="path3311" inkscape:connector-curvature="0" class="st1" d="M-0.0238,0.0261h-1.367v-5.172h1.367
						c2.098,0,3.42,0.896,3.42,2.576C3.3962-0.8919,2.0742,0.0261-0.0238,0.0261 M3.6442-5.6289c-0.676-0.305-1.954-0.5-3.072-0.5
						h-4.272v7.118h4.272c1.118,0,2.396-0.197,3.073-0.502c1.644-0.743,2.182-1.931,2.182-3.057
						C5.8272-3.6979,5.2952-4.8839,3.6442-5.6289"/>
				</g>
				<g id="g3313" transform="translate(483.4965,219.5842)">
					<path id="path3315" inkscape:connector-curvature="0" class="st3" d="M-0.0238,0.0261c0,0,1.993,0.318,1.993,1.559
						c0,1.213-2.123,1.709-4.38,1.709c-2.037,0-3.376-0.249-3.376-0.249v-1.102c0.924,0.224,1.809,0.414,3.015,0.414
						c1.293,0,2.28-0.385,2.28-0.932c0-0.656-0.976-1.032-3.078-1.032h-0.965v-0.991h0.897c2.214,0,3.473-0.333,3.473-1.146
						c0-0.725-1.125-1.165-2.527-1.165c-1.223,0-2.342,0.26-3.25,0.511v-1.188c0.436-0.075,1.593-0.307,3.746-0.307
						c2.386,0,4.461,0.768,4.461,2.119C2.2652-0.6399,0.8272,0.0261-0.0238,0.0261"/>
				</g>
				<g id="g3317" transform="translate(503.898,216.4876)">
					<path id="path3319" inkscape:connector-curvature="0" class="st1" d="M-0.0238,0.0261h-0.225v0.121h0.595v-0.121h-0.227v-0.669
						h-0.143V0.0261z"/>
				</g>
				<g id="g3321" transform="translate(505.0281,216.141)">
					<path id="path3323" inkscape:connector-curvature="0" class="st1" d="M-0.0238,0.0261c-0.005,0.102-0.011,0.225-0.009,0.332
						h-0.004c-0.026-0.096-0.059-0.203-0.094-0.302l-0.116-0.343h-0.109l-0.105,0.338c-0.032,0.101-0.06,0.209-0.08,0.307h-0.003
						c-0.004-0.103-0.008-0.229-0.014-0.337l-0.017-0.317h-0.135l0.053,0.789h0.189l0.103-0.317
						c0.028-0.092,0.053-0.186,0.073-0.274h0.003c0.021,0.086,0.048,0.183,0.078,0.275l0.11,0.316h0.187l0.045-0.789h-0.14
						L-0.0238,0.0261z"/>
				</g>
				<g id="g3325" transform="translate(442.8737,227.2606)">
					<path id="path3327" inkscape:connector-curvature="0" class="st4" d="M-0.0238,0.0261l-1.475,0.195
						c-0.044,0.006-0.085-0.026-0.091-0.07c-0.048-0.412-0.048-0.828-0.001-1.239c0.005-0.044,0.046-0.076,0.09-0.07l1.476,0.192
						c0.043,0.006,0.074,0.045,0.069,0.089c-0.029,0.27-0.029,0.543,0.001,0.814C0.0502-0.0189,0.0202,0.0201-0.0238,0.0261"/>
				</g>
				<g id="g3329" transform="translate(443.6224,229.0345)">
					<path id="path3331" inkscape:connector-curvature="0" class="st5" d="M-0.0238,0.0261l-1.181,0.906
						c-0.035,0.028-0.086,0.021-0.113-0.015c-0.247-0.332-0.456-0.692-0.62-1.072c-0.018-0.041,0.001-0.089,0.043-0.106l1.374-0.571
						c0.041-0.017,0.086,0.002,0.104,0.042c0.11,0.249,0.247,0.485,0.408,0.705C0.0172-0.0499,0.0112-0.0009-0.0238,0.0261"/>
				</g>
				<g id="g3333" transform="translate(443.1127,225.3501)">
					<path id="path3335" inkscape:connector-curvature="0" class="st6" d="M-0.0238,0.0261l-1.375-0.569
						c-0.041-0.017-0.061-0.064-0.044-0.105c0.165-0.381,0.372-0.742,0.619-1.075c0.026-0.035,0.077-0.042,0.113-0.015l1.182,0.904
						c0.035,0.027,0.041,0.076,0.016,0.112c-0.161,0.219-0.297,0.456-0.407,0.706C0.0622,0.0241,0.0162,0.0431-0.0238,0.0261"/>
				</g>
				<g id="g3337" transform="translate(454.114,225.7096)">
					<path id="path3339" inkscape:connector-curvature="0" class="st1" d="M-0.0238,0.0261h-1.219c-0.076,0-0.119-0.017-0.141-0.03
						c-0.005-0.003-0.01-0.007-0.016-0.011l-0.001-0.001l0,0c-0.188-0.125-0.457-0.239-0.802-0.239
						c-0.921,0-1.265,0.762-1.265,1.333c0,0.608,0.368,1.331,1.271,1.331c0.656,0,1.059-0.408,1.162-0.81
						c0.012-0.046,0.024-0.091-0.024-0.091h-1.76c-0.051,0-0.093-0.041-0.093-0.092v-0.757c0-0.051,0.042-0.092,0.093-0.092h2.431
						c0.503,0,0.635,0.158,0.635,0.63c0,1.368-1.126,2.345-2.425,2.345s-2.455-0.994-2.455-2.31c0-1.447,0.811-2.62,2.46-2.62
						c1.374,0,1.985,0.818,2.237,1.319C0.0742-0.0469,0.0982,0.0261-0.0238,0.0261"/>
				</g>
				<g id="g3341" transform="translate(444.4952,224.418)">
					<path id="path3343" inkscape:connector-curvature="0" class="st1" d="M-0.0238,0.0261c-0.036,0-0.066,0.03-0.066,0.066v2.692
						c0,1.022,0.854,2.044,2.241,2.044c1.386,0,2.24-1.022,2.24-2.044v-2.692c0-0.036-0.029-0.066-0.066-0.066h-1.102
						c-0.037,0-0.066,0.03-0.066,0.066v2.535c0,0.482-0.351,0.966-1.006,0.966c-0.656,0-1.007-0.484-1.007-0.966v-2.535
						c0-0.036-0.029-0.066-0.066-0.066H-0.0238z"/>
				</g>
				<g id="g3345" transform="translate(458.6766,229.1038)">
					<path id="path3347" inkscape:connector-curvature="0" class="st1" d="M-0.0238,0.0261c0.036,0,0.066-0.03,0.066-0.066v-2.792
						c0-0.482,0.211-0.71,0.55-0.71s0.589,0.228,0.589,0.71v2.792c0,0.036,0.029,0.066,0.066,0.066h1.16
						c0.036,0,0.066-0.03,0.066-0.066v-2.886c0-1.137-0.762-1.85-1.688-1.85c-0.392,0-0.994,0.101-1.428,0.66
						c-0.356-0.559-0.933-0.66-1.35-0.66c-0.926,0-1.688,0.713-1.688,1.85v2.886c0,0.036,0.03,0.066,0.066,0.066h1.16
						c0.037,0,0.066-0.03,0.066-0.066v-2.792c0-0.482,0.264-0.71,0.589-0.71s0.55,0.228,0.55,0.71v2.792
						c0,0.036,0.029,0.066,0.066,0.066H-0.0238z"/>
				</g>
				<g id="g3349" transform="translate(462.9487,226.2645)">
					<path id="path3351" inkscape:connector-curvature="0" class="st7" d="M-0.0238,0.0261l1.475-0.195
						c0.045-0.006,0.086,0.026,0.091,0.07c0.048,0.411,0.049,0.828,0.002,1.239c-0.006,0.044-0.046,0.075-0.091,0.07l-1.476-0.192
						c-0.043-0.006-0.073-0.045-0.069-0.089c0.03-0.27,0.03-0.543,0-0.814C-0.0968,0.0711-0.0668,0.0311-0.0238,0.0261"/>
				</g>
				<g id="g3353" transform="translate(462.2005,224.491)">
					<path id="path3355" inkscape:connector-curvature="0" class="st8" d="M-0.0238,0.0261l1.18-0.907
						c0.036-0.027,0.087-0.02,0.114,0.015c0.248,0.333,0.455,0.693,0.62,1.073c0.018,0.041-0.002,0.088-0.043,0.105l-1.374,0.572
						c-0.041,0.017-0.086-0.002-0.104-0.042c-0.11-0.249-0.247-0.485-0.408-0.705C-0.0648,0.1021-0.0588,0.0521-0.0238,0.0261"/>
				</g>
				<g id="g3357" transform="translate(462.7099,228.1749)">
					<path id="path3359" inkscape:connector-curvature="0" class="st9" d="M-0.0238,0.0261l1.375,0.568
						c0.042,0.018,0.061,0.065,0.044,0.106c-0.165,0.381-0.372,0.742-0.619,1.074c-0.026,0.036-0.077,0.042-0.113,0.015
						l-1.182-0.904c-0.034-0.026-0.041-0.076-0.015-0.111c0.16-0.22,0.297-0.456,0.406-0.706
						C-0.1098,0.0281-0.0638,0.0091-0.0238,0.0261"/>
				</g>
			</g>
		</g>
	</g>
</g>
</svg>
