<?xml version="1.0" encoding="UTF-8"?>
<svg xmlns="http://www.w3.org/2000/svg" version="1.1" xmlns:cc="http://creativecommons.org/ns#" xmlns:dc="http://purl.org/dc/elements/1.1/" xmlns:inkscape="http://www.inkscape.org/namespaces/inkscape" xmlns:rdf="http://www.w3.org/1999/02/22-rdf-syntax-ns#" xmlns:sodipodi="http://sodipodi.sourceforge.net/DTD/sodipodi-0.dtd" xmlns:svg="http://www.w3.org/2000/svg" viewBox="0 0 1000 224.4">
  <defs>
    <style>
      .cls-1 {
        fill: #00a6e6;
      }

      .cls-1, .cls-2, .cls-3, .cls-4, .cls-5, .cls-6, .cls-7, .cls-8, .cls-9 {
        stroke-width: 0px;
      }

      .cls-2 {
        fill: #e73088;
      }

      .cls-3 {
        fill: #a6c613;
      }

      .cls-4 {
        fill: #c80c0f;
      }

      .cls-5 {
        fill: #f6a500;
      }

      .cls-6 {
        fill: #9c9b9b;
      }

      .cls-7 {
        fill: #fff;
      }

      .cls-8 {
        fill: #e30521;
      }

      .cls-9 {
        fill: #009881;
      }
    </style>
  </defs>
  <g id="svg4173" inkscape:version="0.48.5 r10040">
    <sodipodi:namedview id="base" bordercolor="#666666" borderopacity="1.0" fit-margin-bottom="0.5" fit-margin-left="0.5" fit-margin-right="0.5" fit-margin-top="0.5" inkscape:current-layer="layer1" inkscape:cx="784.52326" inkscape:cy="-190.31045" inkscape:document-units="px" inkscape:pageopacity="0.0" inkscape:pageshadow="2" inkscape:window-height="1044" inkscape:window-maximized="0" inkscape:window-width="1054" inkscape:window-x="872" inkscape:window-y="-19" inkscape:zoom="0.57900391" pagecolor="#ffffff" showgrid="false"/>
    <g id="layer1" inkscape:groupmode="layer" inkscape:label="Layer 1">
      <g id="g3361">
        <g id="g3363">
          <g id="g3369">
            <path id="path3371" class="cls-6" d="M546.7,212.5c0,1.2-1,2.2-2.2,2.2h-41.6c-1.2,0-2.2-1-2.2-2.2v-30c0-1.2,1-2.2,2.2-2.2h41.6c1.2,0,2.2,1,2.2,2.2v30ZM544.9,171.2h-42.3c-6.1,0-11.1,5-11.1,11.1v30.2c0,6.1,5,11.1,11.1,11.1h42.3c6.1,0,11.1-5,11.1-11.1v-30.2c0-6.1-5-11.1-11.1-11.1" inkscape:connector-curvature="0"/>
          </g>
          <g id="g3373">
            <path id="path3375" class="cls-7" d="M59.6,126.1v38.9h-9.7v-52.5h8.3l39.3,38.2v-38.2h9.6v52.5h-7.6l-39.9-38.9Z" inkscape:connector-curvature="0"/>
          </g>
          <g id="g3377">
            <path id="path3379" class="cls-7" d="M156.9,126.1v38.9h-9.7v-52.5h8.3l39.3,38.2v-38.2h9.6v52.5h-7.6l-39.9-38.9Z" inkscape:connector-curvature="0"/>
          </g>
          <g id="g3381">
            <path id="path3383" class="cls-7" d="M358.6,126.1v38.9h-9.7v-52.5h8.3l39.3,38.2v-38.2h9.6v52.5h-7.6l-39.9-38.9Z" inkscape:connector-curvature="0"/>
          </g>
          <g id="g3385">
            <path id="path3387" class="cls-7" d="M130.1,112.5h1.8v52.4h-9.7v-52.4h7.9Z" inkscape:connector-curvature="0"/>
          </g>
          <g id="g3389">
            <path id="path3391" class="cls-7" d="M270.5,112.5h1.8v9h-23.4v43.4h-10.1v-43.4h-23.4v-9s55.1,0,55.1,0Z" inkscape:connector-curvature="0"/>
          </g>
          <g id="g3393">
            <path id="path3395" class="cls-7" d="M332.6,112.5h1.8v9h-41.6v11.7h32.2v9h-32.2v13.6h41.6v9h-51.2v-52.4h49.4Z" inkscape:connector-curvature="0"/>
          </g>
          <g id="g3397">
            <path id="path3399" class="cls-7" d="M460,155.9h-29.8v-34.4h29.8c9.3,0,12.7,9.3,12.7,17.2s-3.3,17.2-12.7,17.2M475.9,120.1c-3.8-5-9.4-7.7-16.2-7.7h-38.9v52.5h38.9c6.8,0,12.4-2.7,16.2-7.7,3.6-4.7,5.4-11.1,5.4-18.6s-1.9-13.9-5.4-18.5" inkscape:connector-curvature="0"/>
          </g>
          <g id="g3401">
            <path id="path3403" class="cls-7" d="M546.7,153.7c0,1.2-1,2.2-2.2,2.2h-41.6c-1.2,0-2.2-1-2.2-2.2v-30.1c0-1.2,1-2.1,2.2-2.1h41.6c1.2,0,2.2,1,2.2,2.1v30.1ZM544.9,112.5h-42.3c-6.1,0-11.1,5-11.1,11.1v30.2c0,6.1,5,11.1,11.1,11.1h42.3c6.1,0,11.1-5,11.1-11.1v-30.2c0-6.1-5-11.1-11.1-11.1" inkscape:connector-curvature="0"/>
          </g>
          <g id="g3405">
            <path id="path3407" class="cls-7" d="M860.3,201.6c10.1,4,31.3,7.2,47.9,7.2s25.7-6.2,25.7-14-7-11.1-27.1-18.5c-26.8-9.9-46.4-17.7-46.4-35.3s23.7-29,59.7-29,26,1.2,38.3,3.5v17.3c-12-2.3-22.7-6.2-39.3-6.2s-25.4,5.6-25.4,11.5c0,8.5,11.7,12.5,32.2,19.8,28.6,10.2,44.5,18.1,44.5,35.4s-19.9,30.5-64.8,30.5-31.2-1.2-45.3-3.5v-18.6Z" inkscape:connector-curvature="0"/>
          </g>
          <g id="g3409">
            <path id="path3411" class="cls-7" d="M764.8,127.3h-21.4v80.9h21.4c32.8,0,53.5-14,53.5-40.3s-20.7-40.6-53.5-40.6M822.1,215.7c-10.6,4.8-30.6,7.8-48,7.8h-66.8v-111.3h66.8c17.5,0,37.5,3.1,48,7.8,25.7,11.6,34.1,30.2,34.1,47.8s-8.3,36.2-34.1,47.8" inkscape:connector-curvature="0"/>
          </g>
          <g id="g3413">
            <path id="path3415" class="cls-4" d="M660.5,162.7s31.1-5,31.1-24.4-33.2-26.7-68.4-26.7-52.8,3.9-52.8,3.9v17.2c14.5-3.5,28.3-6.5,47.1-6.5s35.7,6,35.7,14.6-15.3,16.1-48.1,16.1h-15.1v15.5h14c34.6,0,54.3,5.2,54.3,17.9s-17.6,18.2-39.5,18.2-36.6-4.1-50.8-8v18.6c6.8,1.2,24.9,4.8,58.5,4.8s69.7-12,69.7-33.1c0-17.7-22.5-28.1-35.8-28.1" inkscape:connector-curvature="0"/>
          </g>
          <g id="g3417">
            <path id="path3419" class="cls-7" d="M979.4,211.1h-3.5v-1.9h9.3v1.9h-3.5v10.5h-2.2v-10.5Z" inkscape:connector-curvature="0"/>
          </g>
          <g id="g3421">
            <path id="path3423" class="cls-7" d="M997.1,216.5c0-1.6-.2-3.5-.1-5.2h0c-.4,1.5-.9,3.2-1.4,4.7l-1.8,5.4h-1.7l-1.6-5.3c-.5-1.6-.9-3.3-1.2-4.8h0c0,1.6-.1,3.6-.2,5.3l-.3,5h-2.1l.8-12.3h3l1.6,5c.4,1.4.8,2.9,1.1,4.3h0c.3-1.3.7-2.9,1.2-4.3l1.7-5h2.9l.7,12.3h-2.2l-.2-5Z" inkscape:connector-curvature="0"/>
          </g>
          <g id="g3425">
            <path id="path3427" class="cls-3" d="M25.5,42.7l-23.1-3c-.7,0-1.3.4-1.4,1.1-.8,6.4-.8,12.9,0,19.4,0,.7.7,1.2,1.4,1.1l23.1-3c.7,0,1.1-.7,1.1-1.4-.5-4.2-.5-8.5,0-12.7,0-.7-.4-1.3-1.1-1.4" inkscape:connector-curvature="0"/>
          </g>
          <g id="g3429">
            <path id="path3431" class="cls-8" d="M37.2,14.9L18.8.8c-.6-.4-1.4-.3-1.8.2-3.9,5.2-7.1,10.8-9.7,16.8-.3.6,0,1.4.7,1.6l21.5,8.9c.6.3,1.4,0,1.6-.7,1.7-3.9,3.8-7.6,6.4-11,.4-.5.3-1.3-.2-1.7" inkscape:connector-curvature="0"/>
          </g>
          <g id="g3433">
            <path id="path3435" class="cls-1" d="M29.3,72.5l-21.5,8.9c-.6.3-1,1-.7,1.6,2.6,6,5.8,11.6,9.7,16.8.4.6,1.2.6,1.8.2l18.5-14.1c.5-.4.6-1.2.2-1.7-2.5-3.4-4.6-7.1-6.4-11-.3-.6-1-.9-1.6-.7" inkscape:connector-curvature="0"/>
          </g>
          <g id="g3437">
            <path id="path3439" class="cls-7" d="M201.2,66.9h-19.1c-1.2,0-1.9.3-2.2.5,0,0-.2.1-.2.2,0,0,0,0,0,0h0c-2.9,2-7.1,3.7-12.5,3.7-14.4,0-19.8-11.9-19.8-20.8s5.8-20.8,19.9-20.8,16.6,6.4,18.2,12.7c.2.7.4,1.4-.4,1.4h-27.5c-.8,0-1.4.6-1.4,1.4v11.8c0,.8.6,1.4,1.4,1.4h38c7.9,0,9.9-2.5,9.9-9.8,0-21.4-17.6-36.7-37.9-36.7s-38.4,15.5-38.4,36.1,12.7,40.9,38.4,40.9,31-12.8,35-20.6c.2-.3.5-1.5-1.4-1.5" inkscape:connector-curvature="0"/>
          </g>
          <g id="g3441">
            <path id="path3443" class="cls-7" d="M50.9,87.1c-.6,0-1-.5-1-1v-42.1c0-16,13.3-31.9,35-31.9s35,16,35,31.9v42.1c0,.6-.5,1-1,1h-17.2c-.6,0-1-.5-1-1v-39.6c0-7.5-5.5-15.1-15.7-15.1-10.2,0-15.7,7.6-15.7,15.1v39.6c0,.6-.5,1-1,1h-17.2Z" inkscape:connector-curvature="0"/>
          </g>
          <g id="g3445">
            <path id="path3447" class="cls-7" d="M272.6,13.9c.6,0,1,.5,1,1v43.7c0,7.5,3.3,11.1,8.6,11.1s9.2-3.5,9.2-11.1V14.9c0-.6.5-1,1-1h18.1c.6,0,1,.5,1,1v45.1c0,17.8-11.9,28.9-26.4,28.9s-15.5-1.6-22.3-10.3c-5.6,8.7-14.6,10.3-21.1,10.3-14.5,0-26.4-11.1-26.4-28.9V14.9c0-.6.5-1,1-1h18.1c.6,0,1,.5,1,1v43.7c0,7.5,4.1,11.1,9.2,11.1s8.6-3.5,8.6-11.1V14.9c0-.6.5-1,1-1h18.1Z" inkscape:connector-curvature="0"/>
          </g>
          <g id="g3449">
            <path id="path3451" class="cls-5" d="M339.3,58.2l23.1,3c.7,0,1.3-.4,1.4-1.1.8-6.4.8-12.9,0-19.4,0-.7-.7-1.2-1.4-1.1l-23.1,3c-.7,0-1.2.7-1.1,1.4.5,4.2.5,8.5,0,12.7,0,.7.4,1.3,1.1,1.4" inkscape:connector-curvature="0"/>
          </g>
          <g id="g3453">
            <path id="path3455" class="cls-2" d="M327.6,85.9l18.4,14.2c.6.4,1.4.3,1.8-.2,3.9-5.2,7.1-10.8,9.7-16.8.3-.6,0-1.4-.7-1.7l-21.5-8.9c-.6-.3-1.4,0-1.6.6-1.7,3.9-3.9,7.6-6.4,11-.4.6-.3,1.3.2,1.7" inkscape:connector-curvature="0"/>
          </g>
          <g id="g3457">
            <path id="path3459" class="cls-9" d="M335.6,28.3l21.5-8.9c.6-.3,1-1,.7-1.6-2.6-5.9-5.8-11.6-9.7-16.8-.4-.6-1.2-.7-1.8-.2l-18.5,14.1c-.5.4-.6,1.2-.2,1.8,2.5,3.4,4.6,7.1,6.3,11,.3.6,1,.9,1.6.7" inkscape:connector-curvature="0"/>
          </g>
        </g>
      </g>
    </g>
  </g>
</svg>