<?xml version="1.0" encoding="UTF-8" standalone="no"?>
<!-- Created with Inkscape (http://www.inkscape.org/) -->

<svg
   xmlns:dc="http://purl.org/dc/elements/1.1/"
   xmlns:cc="http://creativecommons.org/ns#"
   xmlns:rdf="http://www.w3.org/1999/02/22-rdf-syntax-ns#"
   xmlns:svg="http://www.w3.org/2000/svg"
   xmlns="http://www.w3.org/2000/svg"
   xmlns:sodipodi="http://sodipodi.sourceforge.net/DTD/sodipodi-0.dtd"
   xmlns:inkscape="http://www.inkscape.org/namespaces/inkscape"
   width="1000"
   height="224.39417"
   id="svg4173"
   version="1.1"
   inkscape:version="0.48.5 r10040"
   sodipodi:docname="New document 4">
  <defs
     id="defs4175">
    <clipPath
       clipPathUnits="userSpaceOnUse"
       id="clipPath3365">
      <path
         inkscape:connector-curvature="0"
         d="m 444.528,232.454 66.191,0 0,14.81 -66.191,0 0,-14.81 z"
         id="path3367" />
    </clipPath>
  </defs>
  <sodipodi:namedview
     id="base"
     pagecolor="#ffffff"
     bordercolor="#666666"
     borderopacity="1.0"
     inkscape:pageopacity="0.0"
     inkscape:pageshadow="2"
     inkscape:zoom="0.57900391"
     inkscape:cx="784.52326"
     inkscape:cy="-190.31045"
     inkscape:document-units="px"
     inkscape:current-layer="layer1"
     showgrid="false"
     fit-margin-left="0.5"
     fit-margin-bottom="0.5"
     fit-margin-top="0.5"
     fit-margin-right="0.5"
     inkscape:window-width="1054"
     inkscape:window-height="1044"
     inkscape:window-x="872"
     inkscape:window-y="-19"
     inkscape:window-maximized="0" />
  <metadata
     id="metadata4178">
    <rdf:RDF>
      <cc:Work
         rdf:about="">
        <dc:format>image/svg+xml</dc:format>
        <dc:type
           rdf:resource="http://purl.org/dc/dcmitype/StillImage" />
        <dc:title></dc:title>
      </cc:Work>
    </rdf:RDF>
  </metadata>
  <g
     inkscape:label="Layer 1"
     inkscape:groupmode="layer"
     id="layer1"
     transform="translate(-140.34798,-197.82516)">
    <g
       id="g3361"
       transform="matrix(15.095593,0,0,-15.095593,-6569.7582,3930.7503)">
      <g
         id="g3363"
         clip-path="url(#clipPath3365)">
        <g
           id="g3369"
           transform="translate(480.7209,233.2114)">
          <path
             d="m 0,0 c 0,-0.08 -0.065,-0.144 -0.144,-0.144 l -2.753,0 c -0.08,0 -0.144,0.064 -0.144,0.144 l 0,1.99 c 0,0.08 0.064,0.144 0.144,0.144 l 2.753,0 C -0.065,2.134 0,2.07 0,1.99 L 0,0 z m -0.119,2.732 -2.804,0 c -0.406,0 -0.735,-0.332 -0.735,-0.737 l 0,-2 c 0,-0.404 0.329,-0.736 0.735,-0.736 l 2.804,0 c 0.406,0 0.736,0.332 0.736,0.736 l 0,2 c 0,0.405 -0.33,0.737 -0.736,0.737"
             style="fill:#9c9b9b;fill-opacity:1;fill-rule:nonzero;stroke:none"
             id="path3371"
             inkscape:connector-curvature="0" />
        </g>
        <g
           id="g3373"
           transform="translate(448.4527,238.9348)">
          <path
             d="m 0,0 0,-2.574 -0.643,0 0,3.475 0.549,0 2.604,-2.53 0,2.53 0.515,0 0.12,0 0,-3.475 -0.502,0 L 0,0 z"
             style="fill:#1d1d1b;fill-opacity:1;fill-rule:nonzero;stroke:none"
             id="path3375"
             inkscape:connector-curvature="0" />
        </g>
        <g
           id="g3377"
           transform="translate(454.9002,238.9348)">
          <path
             d="m 0,0 0,-2.574 -0.644,0 0,3.475 0.549,0 2.604,-2.53 0,2.53 0.515,0 0.121,0 0,-3.475 -0.503,0 L 0,0 z"
             style="fill:#1d1d1b;fill-opacity:1;fill-rule:nonzero;stroke:none"
             id="path3379"
             inkscape:connector-curvature="0" />
        </g>
        <g
           id="g3381"
           transform="translate(468.2606,238.9348)">
          <path
             d="m 0,0 0,-2.574 -0.643,0 0,3.475 0.549,0 2.604,-2.53 0,2.53 0.516,0 0.12,0 0,-3.475 -0.502,0 L 0,0 z"
             style="fill:#1d1d1b;fill-opacity:1;fill-rule:nonzero;stroke:none"
             id="path3383"
             inkscape:connector-curvature="0" />
        </g>
        <g
           id="g3385"
           transform="translate(453.1286,239.8354)">
          <path
             d="m 0,0 0.119,0 0,-3.474 -0.643,0 0,3.474 L 0,0 z"
             style="fill:#1d1d1b;fill-opacity:1;fill-rule:nonzero;stroke:none"
             id="path3387"
             inkscape:connector-curvature="0" />
        </g>
        <g
           id="g3389"
           transform="translate(462.4235,239.8354)">
          <path
             d="m 0,0 0.118,0 0,-0.599 -1.55,0 0,-2.875 -0.668,0 0,2.875 -1.55,0 L -3.65,0 0,0 z"
             style="fill:#1d1d1b;fill-opacity:1;fill-rule:nonzero;stroke:none"
             id="path3391"
             inkscape:connector-curvature="0" />
        </g>
        <g
           id="g3393"
           transform="translate(466.5437,239.8354)">
          <path
             d="m 0,0 0.12,0 0,-0.599 -2.756,0 0,-0.778 2.132,0 0,-0.597 -2.132,0 0,-0.902 2.756,0 0,-0.598 -3.393,0 0,3.474 L 0,0 z"
             style="fill:#1d1d1b;fill-opacity:1;fill-rule:nonzero;stroke:none"
             id="path3395"
             inkscape:connector-curvature="0" />
        </g>
        <g
           id="g3397"
           transform="translate(474.9813,236.9598)">
          <path
             d="m 0,0 -1.975,0 0,2.277 0.019,0 1.956,0 C 0.617,2.277 0.838,1.664 0.838,1.139 0.838,0.613 0.617,0 0,0 M 1.055,2.367 C 0.804,2.699 0.431,2.876 -0.018,2.876 l -2.577,0 0,-3.475 2.577,0 c 0.449,0 0.822,0.176 1.073,0.508 0.236,0.309 0.36,0.733 0.36,1.23 0,0.495 -0.124,0.922 -0.36,1.228"
             style="fill:#1d1d1b;fill-opacity:1;fill-rule:nonzero;stroke:none"
             id="path3399"
             inkscape:connector-curvature="0" />
        </g>
        <g
           id="g3401"
           transform="translate(480.7209,237.1024)">
          <path
             d="m 0,0 c 0,-0.078 -0.065,-0.143 -0.144,-0.143 l -2.753,0 c -0.08,0 -0.144,0.065 -0.144,0.143 l 0,1.992 c 0,0.078 0.064,0.142 0.144,0.142 l 2.753,0 C -0.065,2.134 0,2.07 0,1.992 L 0,0 z m -0.119,2.733 -2.804,0 c -0.406,0 -0.735,-0.332 -0.735,-0.738 l 0,-2 c 0,-0.404 0.329,-0.736 0.735,-0.736 l 2.804,0 c 0.406,0 0.736,0.332 0.736,0.736 l 0,2 c 0,0.406 -0.33,0.738 -0.736,0.738"
             style="fill:#1d1d1b;fill-opacity:1;fill-rule:nonzero;stroke:none"
             id="path3403"
             inkscape:connector-curvature="0" />
        </g>
        <g
           id="g3405"
           transform="translate(501.4971,233.9278)">
          <path
             d="m 0,0 c 0.668,-0.263 2.075,-0.476 3.174,-0.476 1.202,0 1.701,0.413 1.701,0.93 0,0.465 -0.463,0.738 -1.792,1.224 -1.774,0.657 -3.077,1.174 -3.077,2.34 0,1.208 1.567,1.918 3.957,1.918 1.282,0 1.723,-0.082 2.538,-0.231 L 6.507,4.559 C 5.706,4.712 4.997,4.972 3.896,4.972 2.715,4.972 2.211,4.598 2.211,4.212 2.211,3.651 2.987,3.383 4.346,2.899 6.238,2.221 7.291,1.699 7.291,0.557 7.291,-0.617 5.973,-1.465 3,-1.465 c -1.222,0 -2.064,0.08 -3,0.23 L 0,0 z"
             style="fill:#1d1d1b;fill-opacity:1;fill-rule:nonzero;stroke:none"
             id="path3407"
             inkscape:connector-curvature="0" />
        </g>
        <g
           id="g3409"
           transform="translate(495.169,238.851)">
          <path
             d="m 0,0 -1.415,0 0,-5.356 1.415,0 c 2.173,0 3.541,0.928 3.541,2.668 C 3.541,-0.951 2.173,0 0,0 M 3.799,-5.855 C 3.098,-6.171 1.775,-6.373 0.617,-6.373 l -4.423,0 0,7.37 4.423,0 c 1.158,0 2.481,-0.204 3.182,-0.52 1.703,-0.769 2.26,-1.999 2.26,-3.165 0,-1.168 -0.552,-2.396 -2.26,-3.167"
             style="fill:#1d1d1b;fill-opacity:1;fill-rule:nonzero;stroke:none"
             id="path3411"
             inkscape:connector-curvature="0" />
        </g>
        <g
           id="g3413"
           transform="translate(488.2632,236.511)">
          <path
             d="m 0,0 c 0,0 2.063,0.329 2.063,1.614 0,1.256 -2.197,1.77 -4.534,1.77 -2.11,0 -3.497,-0.258 -3.497,-0.258 l 0,-1.141 c 0.958,0.232 1.874,0.429 3.122,0.429 1.339,0 2.362,-0.399 2.362,-0.965 0,-0.68 -1.011,-1.069 -3.188,-1.069 l -1,0 0,-1.026 0.93,0 c 2.292,0 3.596,-0.345 3.596,-1.187 0,-0.75 -1.165,-1.206 -2.617,-1.206 -1.266,0 -2.425,0.269 -3.364,0.529 l 0,-1.23 c 0.451,-0.077 1.648,-0.318 3.878,-0.318 2.47,0 4.619,0.795 4.619,2.194 C 2.37,-0.689 0.881,0 0,0"
             style="fill:#c80c0f;fill-opacity:1;fill-rule:nonzero;stroke:none"
             id="path3415"
             inkscape:connector-curvature="0" />
        </g>
        <g
           id="g3417"
           transform="translate(509.3884,233.3045)">
          <path
             d="m 0,0 -0.233,0 0,0.125 0.616,0 0,-0.125 -0.235,0 0,-0.693 L 0,-0.693 0,0 z"
             style="fill:#1d1d1b;fill-opacity:1;fill-rule:nonzero;stroke:none"
             id="path3419"
             inkscape:connector-curvature="0" />
        </g>
        <g
           id="g3421"
           transform="translate(510.5586,232.9456)">
          <path
             d="m 0,0 c -0.005,0.106 -0.011,0.233 -0.009,0.343 l -0.005,0 C -0.04,0.244 -0.074,0.134 -0.11,0.031 l -0.12,-0.355 -0.114,0 -0.109,0.35 C -0.486,0.13 -0.514,0.242 -0.535,0.343 l -0.004,0 C -0.542,0.237 -0.547,0.106 -0.553,-0.005 l -0.018,-0.329 -0.14,0 0.055,0.818 0.196,0 0.107,-0.329 c 0.029,-0.095 0.055,-0.192 0.076,-0.283 l 0.003,0 c 0.022,0.088 0.049,0.189 0.081,0.284 l 0.113,0.328 0.194,0 0.047,-0.818 -0.145,0 L 0,0 z"
             style="fill:#1d1d1b;fill-opacity:1;fill-rule:nonzero;stroke:none"
             id="path3423"
             inkscape:connector-curvature="0" />
        </g>
        <g
           id="g3425"
           transform="translate(446.1995,244.4596)">
          <path
             d="m 0,0 -1.527,0.202 c -0.046,0.006 -0.089,-0.027 -0.094,-0.073 -0.05,-0.426 -0.05,-0.857 -0.002,-1.282 0.006,-0.046 0.048,-0.079 0.094,-0.073 l 1.528,0.199 C 0.044,-1.021 0.075,-0.98 0.07,-0.935 0.04,-0.656 0.04,-0.373 0.071,-0.092 0.076,-0.047 0.045,-0.006 0,0"
             style="fill:#a6c613;fill-opacity:1;fill-rule:nonzero;stroke:none"
             id="path3427"
             inkscape:connector-curvature="0" />
        </g>
        <g
           id="g3429"
           transform="translate(446.9747,246.2965)">
          <path
             d="M 0,0 -1.222,0.939 C -1.259,0.967 -1.312,0.96 -1.339,0.923 -1.596,0.578 -1.812,0.206 -1.982,-0.188 -2.001,-0.23 -1.98,-0.279 -1.938,-0.297 l 1.423,-0.592 c 0.042,-0.017 0.09,0.002 0.108,0.044 0.114,0.257 0.255,0.502 0.422,0.73 C 0.043,-0.079 0.036,-0.028 0,0"
             style="fill:#e30521;fill-opacity:1;fill-rule:nonzero;stroke:none"
             id="path3431"
             inkscape:connector-curvature="0" />
        </g>
        <g
           id="g3433"
           transform="translate(446.4469,242.4814)">
          <path
             d="m 0,0 -1.424,-0.589 c -0.043,-0.017 -0.063,-0.067 -0.045,-0.109 0.17,-0.395 0.385,-0.768 0.64,-1.113 0.028,-0.037 0.081,-0.043 0.118,-0.015 l 1.224,0.936 c 0.036,0.028 0.042,0.079 0.016,0.115 C 0.362,-0.548 0.221,-0.302 0.108,-0.044 0.09,-0.002 0.042,0.018 0,0"
             style="fill:#00a6e6;fill-opacity:1;fill-rule:nonzero;stroke:none"
             id="path3435"
             inkscape:connector-curvature="0" />
        </g>
        <g
           id="g3437"
           transform="translate(457.8384,242.8536)">
          <path
             d="m 0,0 -1.262,0 c -0.079,0 -0.124,-0.018 -0.146,-0.031 -0.005,-0.004 -0.011,-0.007 -0.016,-0.011 -0.001,0 -0.001,-10e-4 -0.001,-10e-4 l -10e-4,0 c -0.195,-0.13 -0.473,-0.248 -0.83,-0.248 -0.954,0 -1.31,0.79 -1.31,1.38 0,0.63 0.381,1.379 1.316,1.379 0.679,0 1.097,-0.422 1.203,-0.839 0.013,-0.048 0.025,-0.094 -0.025,-0.094 l -1.822,0 c -0.053,0 -0.096,-0.043 -0.096,-0.096 l 0,-0.783 c 0,-0.053 0.043,-0.096 0.096,-0.096 l 2.517,0 c 0.521,0 0.658,0.164 0.658,0.652 0,1.417 -1.167,2.429 -2.512,2.429 -1.345,0 -2.541,-1.03 -2.541,-2.393 0,-1.497 0.84,-2.712 2.547,-2.712 1.423,0 2.055,0.847 2.316,1.366 C 0.101,-0.076 0.127,0 0,0"
             style="fill:#1d1d1b;fill-opacity:1;fill-rule:nonzero;stroke:none"
             id="path3439"
             inkscape:connector-curvature="0" />
        </g>
        <g
           id="g3441"
           transform="translate(447.8785,241.5161)">
          <path
             d="m 0,0 c -0.038,0 -0.068,0.031 -0.068,0.068 l 0,2.788 c 0,1.058 0.884,2.116 2.32,2.116 1.436,0 2.32,-1.058 2.32,-2.116 l 0,-2.788 C 4.572,0.031 4.541,0 4.504,0 L 3.362,0 C 3.324,0 3.294,0.031 3.294,0.068 l 0,2.625 c 0,0.5 -0.363,1.001 -1.042,1.001 C 1.573,3.694 1.21,3.193 1.21,2.693 l 0,-2.625 C 1.21,0.031 1.179,0 1.141,0 L 0,0 z"
             style="fill:#1d1d1b;fill-opacity:1;fill-rule:nonzero;stroke:none"
             id="path3443"
             inkscape:connector-curvature="0" />
        </g>
        <g
           id="g3445"
           transform="translate(462.5629,246.3682)">
          <path
             d="m 0,0 c 0.038,0 0.068,-0.031 0.068,-0.068 l 0,-2.892 c 0,-0.499 0.219,-0.734 0.57,-0.734 0.351,0 0.609,0.235 0.609,0.734 l 0,2.892 C 1.247,-0.031 1.278,0 1.316,0 l 1.201,0 c 0.038,0 0.068,-0.031 0.068,-0.068 l 0,-2.988 c 0,-1.178 -0.789,-1.916 -1.747,-1.916 -0.406,0 -1.029,0.104 -1.479,0.683 -0.369,-0.579 -0.966,-0.683 -1.398,-0.683 -0.958,0 -1.748,0.738 -1.748,1.916 l 0,2.988 c 0,0.037 0.031,0.068 0.068,0.068 l 1.202,0 c 0.038,0 0.068,-0.031 0.068,-0.068 l 0,-2.892 c 0,-0.499 0.273,-0.734 0.61,-0.734 0.337,0 0.569,0.235 0.569,0.734 l 0,2.892 C -1.27,-0.031 -1.239,0 -1.201,0 L 0,0 z"
             style="fill:#1d1d1b;fill-opacity:1;fill-rule:nonzero;stroke:none"
             id="path3447"
             inkscape:connector-curvature="0" />
        </g>
        <g
           id="g3449"
           transform="translate(466.9865,243.4312)">
          <path
             d="m 0,0 1.528,-0.202 c 0.045,-0.006 0.088,0.027 0.093,0.073 0.05,0.426 0.051,0.857 0.002,1.282 C 1.618,1.199 1.576,1.232 1.529,1.226 L 0.002,1.027 C -0.044,1.021 -0.075,0.98 -0.07,0.935 -0.039,0.655 -0.04,0.372 -0.071,0.092 -0.076,0.047 -0.045,0.006 0,0"
             style="fill:#f6a500;fill-opacity:1;fill-rule:nonzero;stroke:none"
             id="path3451"
             inkscape:connector-curvature="0" />
        </g>
        <g
           id="g3453"
           transform="translate(466.2118,241.5948)">
          <path
             d="m 0,0 1.222,-0.939 c 0.037,-0.028 0.09,-0.021 0.118,0.016 0.256,0.344 0.471,0.717 0.642,1.11 C 2.001,0.229 1.98,0.279 1.937,0.297 L 0.515,0.888 C 0.473,0.906 0.425,0.886 0.407,0.845 0.293,0.587 0.151,0.342 -0.016,0.115 -0.043,0.078 -0.036,0.027 0,0"
             style="fill:#e73088;fill-opacity:1;fill-rule:nonzero;stroke:none"
             id="path3455"
             inkscape:connector-curvature="0" />
        </g>
        <g
           id="g3457"
           transform="translate(466.7393,245.4094)">
          <path
             d="M 0,0 1.424,0.589 C 1.467,0.607 1.487,0.656 1.469,0.698 1.299,1.092 1.084,1.466 0.829,1.81 0.801,1.847 0.748,1.854 0.712,1.826 L -0.512,0.89 C -0.548,0.862 -0.555,0.811 -0.528,0.774 -0.362,0.547 -0.221,0.302 -0.108,0.044 -0.089,0.002 -0.041,-0.018 0,0"
             style="fill:#009881;fill-opacity:1;fill-rule:nonzero;stroke:none"
             id="path3459"
             inkscape:connector-curvature="0" />
        </g>
      </g>
    </g>
  </g>
</svg>
