<?xml version="1.0" encoding="UTF-8" standalone="no"?>
<!-- Created with Inkscape (http://www.inkscape.org/) -->

<svg
   xmlns:dc="http://purl.org/dc/elements/1.1/"
   xmlns:cc="http://creativecommons.org/ns#"
   xmlns:rdf="http://www.w3.org/1999/02/22-rdf-syntax-ns#"
   xmlns:svg="http://www.w3.org/2000/svg"
   xmlns="http://www.w3.org/2000/svg"
   xmlns:sodipodi="http://sodipodi.sourceforge.net/DTD/sodipodi-0.dtd"
   xmlns:inkscape="http://www.inkscape.org/namespaces/inkscape"
   width="1000"
   height="197.72839"
   id="svg4173"
   version="1.1"
   inkscape:version="0.48.5 r10040"
   sodipodi:docname="A.svg">
  <defs
     id="defs4175">
    <clipPath
       clipPathUnits="userSpaceOnUse"
       id="clipPath3365">
      <path
         inkscape:connector-curvature="0"
         d="m 444.528,232.454 66.191,0 0,14.81 -66.191,0 0,-14.81 z"
         id="path3367" />
    </clipPath>
    <clipPath
       clipPathUnits="userSpaceOnUse"
       id="clipPath3261">
      <path
         inkscape:connector-curvature="0"
         d="m 441.259,215.638 72.729,0 0,14.33 -72.729,0 0,-14.33 z"
         id="path3263" />
    </clipPath>
  </defs>
  <sodipodi:namedview
     id="base"
     pagecolor="#ffffff"
     bordercolor="#666666"
     borderopacity="1.0"
     inkscape:pageopacity="0.0"
     inkscape:pageshadow="2"
     inkscape:zoom="0.57900391"
     inkscape:cx="548.95302"
     inkscape:cy="-163.5896"
     inkscape:document-units="px"
     inkscape:current-layer="layer1"
     showgrid="false"
     fit-margin-left="0.5"
     fit-margin-bottom="0.5"
     fit-margin-top="0.5"
     fit-margin-right="0.5"
     inkscape:window-width="1054"
     inkscape:window-height="1044"
     inkscape:window-x="872"
     inkscape:window-y="-19"
     inkscape:window-maximized="0" />
  <metadata
     id="metadata4178">
    <rdf:RDF>
      <cc:Work
         rdf:about="">
        <dc:format>image/svg+xml</dc:format>
        <dc:type
           rdf:resource="http://purl.org/dc/dcmitype/StillImage" />
        <dc:title></dc:title>
      </cc:Work>
    </rdf:RDF>
  </metadata>
  <g
     inkscape:label="Layer 1"
     inkscape:groupmode="layer"
     id="layer1"
     transform="translate(-375.91822,-251.21179)">
    <g
       id="g3253"
       transform="matrix(13.738299,0,0,-13.738299,1313.747,381.45905)">
      <path
         inkscape:connector-curvature="0"
         d="M 0,0 -1.096,-1.683 -2.192,0 l -0.91,0 1.551,-2.381 -1.624,-2.494 0.921,0 1.163,1.786 1.164,-1.786 0.911,0 L -0.635,-2.39 0.92,0 0,0 z"
         style="fill:#1d1d1b;fill-opacity:1;fill-rule:nonzero;stroke:none"
         id="path3255" />
    </g>
    <g
       transform="matrix(13.738299,0,0,-13.738299,-5685.9026,3410.9395)"
       id="g3257">
      <g
         id="g3259"
         clip-path="url(#clipPath3261)">
        <g
           id="g3265"
           transform="translate(510.979,220.5136)">
          <path
             inkscape:connector-curvature="0"
             d="m 0,0 0,-3.625 c 0,0 -0.005,-1.251 1.25,-1.251 l 1.759,0 0,0.741 -1.7,0 c 0,0 -0.514,0.018 -0.514,0.579 L 0.795,0 0,0"
             style="fill:#1d1d1b;fill-opacity:1;fill-rule:nonzero;stroke:none"
             id="path3267" />
        </g>
        <g
           id="g3269"
           transform="translate(476.2125,216.3977)">
          <path
             inkscape:connector-curvature="0"
             d="m 0,0 c 0,-0.077 -0.063,-0.14 -0.14,-0.14 l -2.658,0 c -0.077,0 -0.139,0.063 -0.139,0.14 l 0,1.922 c 0,0.077 0.062,0.139 0.139,0.139 l 2.658,0 C -0.063,2.061 0,1.999 0,1.922 L 0,0 z m -0.115,2.638 -2.708,0 c -0.392,0 -0.71,-0.32 -0.71,-0.711 l 0,-1.932 c 0,-0.39 0.318,-0.711 0.71,-0.711 l 2.708,0 c 0.392,0 0.711,0.321 0.711,0.711 l 0,1.932 c 0,0.391 -0.319,0.711 -0.711,0.711"
             style="fill:#9c9b9b;fill-opacity:1;fill-rule:nonzero;stroke:none"
             id="path3271" />
        </g>
        <g
           id="g3273"
           transform="translate(445.0498,221.9251)">
          <path
             inkscape:connector-curvature="0"
             d="m 0,0 0,-2.486 -0.621,0 0,3.356 0.53,0 2.515,-2.444 0,2.444 0.497,0 0.117,0 0,-3.356 -0.486,0 L 0,0 z"
             style="fill:#1d1d1b;fill-opacity:1;fill-rule:nonzero;stroke:none"
             id="path3275" />
        </g>
        <g
           id="g3277"
           transform="translate(451.2764,221.9251)">
          <path
             inkscape:connector-curvature="0"
             d="m 0,0 0,-2.486 -0.622,0 0,3.356 0.531,0 2.514,-2.444 0,2.444 0.498,0 0.116,0 0,-3.356 -0.485,0 L 0,0 z"
             style="fill:#1d1d1b;fill-opacity:1;fill-rule:nonzero;stroke:none"
             id="path3279" />
        </g>
        <g
           id="g3281"
           transform="translate(464.1791,221.9251)">
          <path
             inkscape:connector-curvature="0"
             d="m 0,0 0,-2.486 -0.621,0 0,3.356 0.531,0 2.514,-2.444 0,2.444 0.498,0 0.116,0 0,-3.356 -0.485,0 L 0,0 z"
             style="fill:#1d1d1b;fill-opacity:1;fill-rule:nonzero;stroke:none"
             id="path3283" />
        </g>
        <g
           id="g3285"
           transform="translate(449.5655,222.7948)">
          <path
             inkscape:connector-curvature="0"
             d="m 0,0 0.115,0 0,-3.355 -0.621,0 0,3.355 L 0,0 z"
             style="fill:#1d1d1b;fill-opacity:1;fill-rule:nonzero;stroke:none"
             id="path3287" />
        </g>
        <g
           id="g3289"
           transform="translate(458.5419,222.7948)">
          <path
             inkscape:connector-curvature="0"
             d="m 0,0 0.114,0 0,-0.578 -1.497,0 0,-2.777 -0.645,0 0,2.777 -1.497,0 0,0.578 L 0,0 z"
             style="fill:#1d1d1b;fill-opacity:1;fill-rule:nonzero;stroke:none"
             id="path3291" />
        </g>
        <g
           id="g3293"
           transform="translate(462.521,222.7948)">
          <path
             inkscape:connector-curvature="0"
             d="m 0,0 0.116,0 0,-0.578 -2.662,0 0,-0.752 2.059,0 0,-0.576 -2.059,0 0,-0.871 2.662,0 0,-0.578 -3.277,0 0,3.355 L 0,0 z"
             style="fill:#1d1d1b;fill-opacity:1;fill-rule:nonzero;stroke:none"
             id="path3295" />
        </g>
        <g
           id="g3297"
           transform="translate(470.6695,220.0177)">
          <path
             inkscape:connector-curvature="0"
             d="m 0,0 -1.907,0 0,2.199 0.018,0 1.889,0 C 0.596,2.199 0.809,1.607 0.809,1.1 0.809,0.592 0.596,0 0,0 M 1.019,2.286 C 0.777,2.607 0.416,2.777 -0.017,2.777 l -2.489,0 0,-3.355 2.489,0 c 0.433,0 0.794,0.169 1.036,0.49 0.228,0.298 0.348,0.708 0.348,1.188 0,0.478 -0.12,0.89 -0.348,1.186"
             style="fill:#1d1d1b;fill-opacity:1;fill-rule:nonzero;stroke:none"
             id="path3299" />
        </g>
        <g
           id="g3301"
           transform="translate(476.2125,220.1554)">
          <path
             inkscape:connector-curvature="0"
             d="m 0,0 c 0,-0.075 -0.063,-0.138 -0.14,-0.138 l -2.658,0 c -0.077,0 -0.139,0.063 -0.139,0.138 l 0,1.924 c 0,0.075 0.062,0.137 0.139,0.137 l 2.658,0 C -0.063,2.061 0,1.999 0,1.924 L 0,0 z m -0.115,2.639 -2.708,0 c -0.392,0 -0.71,-0.321 -0.71,-0.712 l 0,-1.932 c 0,-0.39 0.318,-0.711 0.71,-0.711 l 2.708,0 c 0.392,0 0.711,0.321 0.711,0.711 l 0,1.932 c 0,0.391 -0.319,0.712 -0.711,0.712"
             style="fill:#1d1d1b;fill-opacity:1;fill-rule:nonzero;stroke:none"
             id="path3303" />
        </g>
        <g
           id="g3305"
           transform="translate(496.277,217.0896)">
          <path
             inkscape:connector-curvature="0"
             d="m 0,0 c 0.645,-0.254 2.004,-0.46 3.065,-0.46 1.161,0 1.643,0.399 1.643,0.899 0,0.449 -0.447,0.712 -1.73,1.182 -1.714,0.634 -2.973,1.134 -2.973,2.26 0,1.166 1.514,1.852 3.822,1.852 1.238,0 1.664,-0.079 2.451,-0.223 L 6.284,4.403 C 5.51,4.55 4.826,4.802 3.762,4.802 2.622,4.802 2.135,4.441 2.135,4.068 2.135,3.526 2.885,3.267 4.197,2.8 6.024,2.145 7.041,1.641 7.041,0.538 c 0,-1.134 -1.273,-1.953 -4.144,-1.953 -1.18,0 -1.993,0.077 -2.897,0.222 L 0,0 z"
             style="fill:#1d1d1b;fill-opacity:1;fill-rule:nonzero;stroke:none"
             id="path3307" />
        </g>
        <g
           id="g3309"
           transform="translate(490.1657,221.8441)">
          <path
             inkscape:connector-curvature="0"
             d="m 0,0 -1.367,0 0,-5.172 1.367,0 c 2.098,0 3.42,0.896 3.42,2.576 C 3.42,-0.918 2.098,0 0,0 m 3.668,-5.655 c -0.676,-0.305 -1.954,-0.5 -3.072,-0.5 l -4.272,0 0,7.118 4.272,0 c 1.118,0 2.396,-0.197 3.073,-0.502 1.644,-0.743 2.182,-1.931 2.182,-3.057 0,-1.128 -0.532,-2.314 -2.183,-3.059"
             style="fill:#1d1d1b;fill-opacity:1;fill-rule:nonzero;stroke:none"
             id="path3311" />
        </g>
        <g
           id="g3313"
           transform="translate(483.4965,219.5842)">
          <path
             inkscape:connector-curvature="0"
             d="m 0,0 c 0,0 1.993,0.318 1.993,1.559 0,1.213 -2.123,1.709 -4.38,1.709 -2.037,0 -3.376,-0.249 -3.376,-0.249 l 0,-1.102 c 0.924,0.224 1.809,0.414 3.015,0.414 1.293,0 2.28,-0.385 2.28,-0.932 0,-0.656 -0.976,-1.032 -3.078,-1.032 l -0.965,0 0,-0.991 0.897,0 c 2.214,0 3.473,-0.333 3.473,-1.146 0,-0.725 -1.125,-1.165 -2.527,-1.165 -1.223,0 -2.342,0.26 -3.25,0.511 l 0,-1.188 c 0.436,-0.075 1.593,-0.307 3.746,-0.307 2.386,0 4.461,0.768 4.461,2.119 C 2.289,-0.666 0.851,0 0,0"
             style="fill:#c80c0f;fill-opacity:1;fill-rule:nonzero;stroke:none"
             id="path3315" />
        </g>
        <g
           id="g3317"
           transform="translate(503.898,216.4876)">
          <path
             inkscape:connector-curvature="0"
             d="m 0,0 -0.225,0 0,0.121 0.595,0 0,-0.121 -0.227,0 0,-0.669 L 0,-0.669 0,0 z"
             style="fill:#1d1d1b;fill-opacity:1;fill-rule:nonzero;stroke:none"
             id="path3319" />
        </g>
        <g
           id="g3321"
           transform="translate(505.0281,216.141)">
          <path
             inkscape:connector-curvature="0"
             d="m 0,0 c -0.005,0.102 -0.011,0.225 -0.009,0.332 l -0.004,0 C -0.039,0.236 -0.072,0.129 -0.107,0.03 l -0.116,-0.343 -0.109,0 -0.105,0.338 c -0.032,0.101 -0.06,0.209 -0.08,0.307 l -0.003,0 C -0.524,0.229 -0.528,0.103 -0.534,-0.005 l -0.017,-0.317 -0.135,0 0.053,0.789 0.189,0 0.103,-0.317 c 0.028,-0.092 0.053,-0.186 0.073,-0.274 l 0.003,0 c 0.021,0.086 0.048,0.183 0.078,0.275 l 0.11,0.316 0.187,0 0.045,-0.789 -0.14,0 L 0,0 z"
             style="fill:#1d1d1b;fill-opacity:1;fill-rule:nonzero;stroke:none"
             id="path3323" />
        </g>
        <g
           id="g3325"
           transform="translate(442.8737,227.2606)">
          <path
             inkscape:connector-curvature="0"
             d="m 0,0 -1.475,0.195 c -0.044,0.006 -0.085,-0.026 -0.091,-0.07 -0.048,-0.412 -0.048,-0.828 -10e-4,-1.239 0.005,-0.044 0.046,-0.076 0.09,-0.07 l 1.476,0.192 c 0.043,0.006 0.074,0.045 0.069,0.089 -0.029,0.27 -0.029,0.543 0.001,0.814 C 0.074,-0.045 0.044,-0.006 0,0"
             style="fill:#a6c613;fill-opacity:1;fill-rule:nonzero;stroke:none"
             id="path3327" />
        </g>
        <g
           id="g3329"
           transform="translate(443.6224,229.0345)">
          <path
             inkscape:connector-curvature="0"
             d="M 0,0 -1.181,0.906 C -1.216,0.934 -1.267,0.927 -1.294,0.891 -1.541,0.559 -1.75,0.199 -1.914,-0.181 -1.932,-0.222 -1.913,-0.27 -1.871,-0.287 l 1.374,-0.571 c 0.041,-0.017 0.086,0.002 0.104,0.042 0.11,0.249 0.247,0.485 0.408,0.705 C 0.041,-0.076 0.035,-0.027 0,0"
             style="fill:#e30521;fill-opacity:1;fill-rule:nonzero;stroke:none"
             id="path3331" />
        </g>
        <g
           id="g3333"
           transform="translate(443.1127,225.3501)">
          <path
             inkscape:connector-curvature="0"
             d="m 0,0 -1.375,-0.569 c -0.041,-0.017 -0.061,-0.064 -0.044,-0.105 0.165,-0.381 0.372,-0.742 0.619,-1.075 0.026,-0.035 0.077,-0.042 0.113,-0.015 L 0.495,-0.86 C 0.53,-0.833 0.536,-0.784 0.511,-0.748 0.35,-0.529 0.214,-0.292 0.104,-0.042 0.086,-0.002 0.04,0.017 0,0"
             style="fill:#00a6e6;fill-opacity:1;fill-rule:nonzero;stroke:none"
             id="path3335" />
        </g>
        <g
           id="g3337"
           transform="translate(454.114,225.7096)">
          <path
             inkscape:connector-curvature="0"
             d="M 0,0 -1.219,0 C -1.295,0 -1.338,-0.017 -1.36,-0.03 -1.365,-0.033 -1.37,-0.037 -1.376,-0.041 l -0.001,-0.001 0,0 c -0.188,-0.125 -0.457,-0.239 -0.802,-0.239 -0.921,0 -1.265,0.762 -1.265,1.333 0,0.608 0.368,1.331 1.271,1.331 0.656,0 1.059,-0.408 1.162,-0.81 0.012,-0.046 0.024,-0.091 -0.024,-0.091 l -1.76,0 c -0.051,0 -0.093,-0.041 -0.093,-0.092 l 0,-0.757 c 0,-0.051 0.042,-0.092 0.093,-0.092 l 2.431,0 c 0.503,0 0.635,0.158 0.635,0.63 0,1.368 -1.126,2.345 -2.425,2.345 -1.299,0 -2.455,-0.994 -2.455,-2.31 0,-1.447 0.811,-2.62 2.46,-2.62 1.374,0 1.985,0.818 2.237,1.319 C 0.098,-0.073 0.122,0 0,0"
             style="fill:#1d1d1b;fill-opacity:1;fill-rule:nonzero;stroke:none"
             id="path3339" />
        </g>
        <g
           id="g3341"
           transform="translate(444.4952,224.418)">
          <path
             inkscape:connector-curvature="0"
             d="m 0,0 c -0.036,0 -0.066,0.03 -0.066,0.066 l 0,2.692 c 0,1.022 0.854,2.044 2.241,2.044 1.386,0 2.24,-1.022 2.24,-2.044 l 0,-2.692 C 4.415,0.03 4.386,0 4.349,0 L 3.247,0 C 3.21,0 3.181,0.03 3.181,0.066 l 0,2.535 c 0,0.482 -0.351,0.966 -1.006,0.966 -0.656,0 -1.007,-0.484 -1.007,-0.966 l 0,-2.535 C 1.168,0.03 1.139,0 1.102,0 L 0,0 z"
             style="fill:#1d1d1b;fill-opacity:1;fill-rule:nonzero;stroke:none"
             id="path3343" />
        </g>
        <g
           id="g3345"
           transform="translate(458.6766,229.1038)">
          <path
             inkscape:connector-curvature="0"
             d="m 0,0 c 0.036,0 0.066,-0.03 0.066,-0.066 l 0,-2.792 c 0,-0.482 0.211,-0.71 0.55,-0.71 0.339,0 0.589,0.228 0.589,0.71 l 0,2.792 C 1.205,-0.03 1.234,0 1.271,0 l 1.16,0 c 0.036,0 0.066,-0.03 0.066,-0.066 l 0,-2.886 c 0,-1.137 -0.762,-1.85 -1.688,-1.85 -0.392,0 -0.994,0.101 -1.428,0.66 -0.356,-0.559 -0.933,-0.66 -1.35,-0.66 -0.926,0 -1.688,0.713 -1.688,1.85 l 0,2.886 c 0,0.036 0.03,0.066 0.066,0.066 l 1.16,0 c 0.037,0 0.066,-0.03 0.066,-0.066 l 0,-2.792 c 0,-0.482 0.264,-0.71 0.589,-0.71 0.325,0 0.55,0.228 0.55,0.71 l 0,2.792 C -1.226,-0.03 -1.197,0 -1.16,0 L 0,0 z"
             style="fill:#1d1d1b;fill-opacity:1;fill-rule:nonzero;stroke:none"
             id="path3347" />
        </g>
        <g
           id="g3349"
           transform="translate(462.9487,226.2645)">
          <path
             inkscape:connector-curvature="0"
             d="M 0,0 1.475,-0.195 C 1.52,-0.201 1.561,-0.169 1.566,-0.125 1.614,0.286 1.615,0.703 1.568,1.114 1.562,1.158 1.522,1.189 1.477,1.184 L 0.001,0.992 C -0.042,0.986 -0.072,0.947 -0.068,0.903 c 0.03,-0.27 0.03,-0.543 0,-0.814 C -0.073,0.045 -0.043,0.005 0,0"
             style="fill:#f6a500;fill-opacity:1;fill-rule:nonzero;stroke:none"
             id="path3351" />
        </g>
        <g
           id="g3353"
           transform="translate(462.2005,224.491)">
          <path
             inkscape:connector-curvature="0"
             d="m 0,0 1.18,-0.907 c 0.036,-0.027 0.087,-0.02 0.114,0.015 0.248,0.333 0.455,0.693 0.62,1.073 C 1.932,0.222 1.912,0.269 1.871,0.286 L 0.497,0.858 C 0.456,0.875 0.411,0.856 0.393,0.816 0.283,0.567 0.146,0.331 -0.015,0.111 -0.041,0.076 -0.035,0.026 0,0"
             style="fill:#e73088;fill-opacity:1;fill-rule:nonzero;stroke:none"
             id="path3355" />
        </g>
        <g
           id="g3357"
           transform="translate(462.7099,228.1749)">
          <path
             inkscape:connector-curvature="0"
             d="M 0,0 1.375,0.568 C 1.417,0.586 1.436,0.633 1.419,0.674 1.254,1.055 1.047,1.416 0.8,1.748 0.774,1.784 0.723,1.79 0.687,1.763 L -0.495,0.859 C -0.529,0.833 -0.536,0.783 -0.51,0.748 -0.35,0.528 -0.213,0.292 -0.104,0.042 -0.086,0.002 -0.04,-0.017 0,0"
             style="fill:#009881;fill-opacity:1;fill-rule:nonzero;stroke:none"
             id="path3359" />
        </g>
      </g>
    </g>
  </g>
</svg>
