<?xml version="1.0" encoding="UTF-8"?>
<svg id="_레이어_1" data-name="레이어 1" xmlns="http://www.w3.org/2000/svg" version="1.1" viewBox="0 0 250 30">
  <defs>
    <style>
      .cls-1 {
        fill: #a09d9e;
      }

      .cls-1, .cls-2, .cls-3 {
        stroke-width: 0px;
      }

      .cls-2 {
        fill: #cf181f;
      }

      .cls-3 {
        fill: #fff;
      }
    </style>
  </defs>
  <path class="cls-1" d="M130.6,27c0,.3-.3.6-.6.6h-10.9c-.3,0-.6-.3-.6-.6v-7.9c0-.3.3-.6.6-.6h10.9c.3,0,.6.3.6.6v7.9ZM130.1,16.1h-11.1c-1.6,0-2.9,1.3-2.9,2.9v7.9c0,1.6,1.3,2.9,2.9,2.9h11.1c1.6,0,2.9-1.3,2.9-2.9v-7.9c0-1.6-1.3-2.9-2.9-2.9"/>
  <path class="cls-3" d="M2.3,4.3v10.2H-.3V.7H1.9l10.4,10.1V.7h2.5v13.8h-2S2.3,4.3,2.3,4.3Z"/>
  <path class="cls-3" d="M28,4.3v10.2h-2.6V.7h2.2l10.4,10.1V.7h2.5v13.8h-2l-10.5-10.2Z"/>
  <path class="cls-3" d="M81.1,4.3v10.2h-2.6V.7h2.2l10.4,10.1V.7h2.5v13.8h-2l-10.5-10.2Z"/>
  <path class="cls-3" d="M20.9.7h.5v13.8h-2.6V.7s2.1,0,2.1,0Z"/>
  <path class="cls-3" d="M57.9.7h.5v2.4h-6.2v11.4h-2.7V3.1h-6.2V.7h14.6Z"/>
  <path class="cls-3" d="M74.2.7h.5v2.4h-10.9v3.1h8.5v2.4h-8.5v3.6h10.9v2.4h-13.5V.8h13Z"/>
  <path class="cls-3" d="M107.8,12.1h-7.8V3.1h7.9c2.5,0,3.3,2.4,3.3,4.5s-.9,4.5-3.3,4.5M112.1,2.7c-1-1.3-2.5-2-4.3-2h-10.2v13.8h10.2c1.8,0,3.3-.7,4.3-2,.9-1.2,1.4-2.9,1.4-4.9s-.5-3.7-1.4-4.9"/>
  <path class="cls-3" d="M130.6,11.6c0,.3-.3.6-.6.6h-10.9c-.3,0-.6-.3-.6-.6V3.7c0-.3.3-.6.6-.6h10.9c.3,0,.6.3.6.6v7.9ZM130.1.7h-11.1c-1.6,0-2.9,1.3-2.9,2.9v8c0,1.6,1.3,2.9,2.9,2.9h11.1c1.6,0,2.9-1.3,2.9-2.9V3.6c0-1.6-1.3-2.9-2.9-2.9"/>
  <path class="cls-3" d="M213.1,24.2c2.6,1,8.2,1.9,12.6,1.9s6.8-1.6,6.8-3.7-1.8-2.9-7.1-4.9c-7.1-2.6-12.2-4.7-12.2-9.3s6.2-7.6,15.7-7.6,6.8.3,10.1.9v4.6c-3.2-.6-6-1.6-10.4-1.6s-6.7,1.5-6.7,3c0,2.2,3.1,3.3,8.5,5.2,7.5,2.7,11.7,4.8,11.7,9.3s-5.2,8-17.1,8-8.2-.3-11.9-.9v-4.9h0Z"/>
  <path class="cls-3" d="M188,4.6h-5.6v21.3h5.6c8.6,0,14.1-3.7,14.1-10.6s-5.4-10.7-14.1-10.7M203.1,27.9c-2.8,1.3-8,2.1-12.6,2.1h-17.6V.7h17.6c4.6,0,9.9.8,12.7,2.1,6.8,3.1,9,7.9,9,12.6s-2.2,9.5-9,12.6"/>
  <path class="cls-2" d="M160.5,13.9s8.2-1.3,8.2-6.4S160,.5,150.7.5s-13.9,1-13.9,1v4.5c3.8-.9,7.4-1.7,12.4-1.7s9.4,1.6,9.4,3.8-4,4.3-12.7,4.3h-4v4.1h3.7c9.1,0,14.3,1.4,14.3,4.7s-4.6,4.8-10.4,4.8-9.6-1.1-13.4-2.1v4.9c1.8.3,6.6,1.3,15.4,1.3s18.4-3.2,18.4-8.7-5.9-7.4-9.4-7.4"/>
  <path class="cls-3" d="M244.5,25.9h-.9v-.5h2.4v.5h-.9v2.8h-.6v-2.8Z"/>
  <path class="cls-3" d="M249.1,27.4v-1.4h0c-.1.4-.2.8-.4,1.2l-.5,1.4h-.5l-.4-1.4c-.1-.4-.2-.9-.3-1.3h0c0,.4,0,.9-.1,1.4v1.3h-.7l.2-3.2h.8l.4,1.3c.1.4.2.8.3,1.1h0c.1-.4.2-.8.3-1.1l.4-1.3h.8l.2,3.2h-.6v-1.3c-.1,0,.1,0,.1,0Z"/>
</svg>