<?xml version="1.0" encoding="UTF-8"?>
<svg xmlns="http://www.w3.org/2000/svg" version="1.1" xmlns:cc="http://creativecommons.org/ns#" xmlns:dc="http://purl.org/dc/elements/1.1/" xmlns:inkscape="http://www.inkscape.org/namespaces/inkscape" xmlns:rdf="http://www.w3.org/1999/02/22-rdf-syntax-ns#" xmlns:sodipodi="http://sodipodi.sourceforge.net/DTD/sodipodi-0.dtd" xmlns:svg="http://www.w3.org/2000/svg" viewBox="0 0 1000 143.1">
  <defs>
    <style>
      .cls-1 {
        fill: #fff;
      }

      .cls-1, .cls-2 {
        stroke-width: 0px;
      }

      .cls-2 {
        fill: #929497;
      }
    </style>
  </defs>
  <g id="svg101576" inkscape:version="1.3 (0e150ed6c4, 2023-07-21)">
    <sodipodi:namedview id="namedview8668" bordercolor="#666666" borderopacity="1" gridtolerance="10" guidetolerance="10" inkscape:current-layer="svg101576" inkscape:cx="962.38675" inkscape:cy="110.72119" inkscape:deskcolor="#d1d1d1" inkscape:pagecheckerboard="0" inkscape:pageopacity="0" inkscape:pageshadow="2" inkscape:showpageshadow="2" inkscape:window-height="1017" inkscape:window-maximized="1" inkscape:window-width="1920" inkscape:window-x="-8" inkscape:window-y="-8" inkscape:zoom="1.0702558" objecttolerance="10" pagecolor="#ffffff" showgrid="false"/>
    <path id="path100608" class="cls-2" d="M635.9,128.6c0,1.5-1.2,2.9-2.8,2.9h-53.2c-1.5,0-2.8-1.4-2.8-2.9v-38.4c0-1.5,1.2-2.7,2.8-2.7h53.2c1.5,0,2.8,1.2,2.8,2.7v38.4ZM633.6,75.9h-54.1c-7.8,0-14.2,6.4-14.2,14.3v38.6c0,7.7,6.4,14.3,14.2,14.3h54.1c7.9,0,14.2-6.5,14.2-14.3v-38.6c0-7.9-6.4-14.3-14.2-14.3" inkscape:connector-curvature="0" inkscape:label="Mirror-effect"/>
    <path id="path100656" class="cls-1" d="M935.7,0c-46.2,0-76.4,13.8-76.4,37.1s25.2,32.7,59.5,45.3c25.7,9.4,34.6,14.6,34.6,23.7s-9.6,17.9-32.9,17.9-48.4-4.1-61.3-9.3v23.8c18.1,3,34.4,4.6,57.9,4.6,57.4,0,82.9-16.4,82.9-39.2s-20.3-32-56.9-45.1c-26.3-9.4-41.2-14.6-41.2-25.4s9.7-14.7,32.5-14.7,35,5,50.4,7.9V4.4c-15.9-2.9-24.4-4.4-49.2-4.4ZM663.3.3v142.5h85.5c22.4,0,47.9-3.9,61.5-10,33-14.9,43.7-38.7,43.7-61.2s-10.7-46.3-43.6-61.2c-13.5-6.1-39.1-10-61.5-10h-85.5ZM709.5,19.6h27.3c42,0,68.4,18.4,68.4,51.9s-26.5,51.6-68.4,51.6h-27.3V19.6Z" inkscape:label="DS"/>
    <path id="path100618" class="cls-1" d="M0,.8v67.1h12.4V18.2l51.1,49.7h9.7V.8h-12.3v48.9L10.6.8H0ZM92.7.8v67.1h12.4V.8h-12.4ZM124.6.8v67.1h12.4V18.2l51.1,49.7h9.7V.8h-12.3v48.9L135.2.8h-10.6ZM211.8.8v11.5h30v55.6h12.9V12.3h30V.8h-72.8ZM298.7.8v67.1h65.6v-11.5h-53.3v-17.5h41.2v-11.5h-41.2v-15h53.3V.8h-65.6ZM382.7.8v67.1h12.4V18.2l51.1,49.7h9.7V.8h-12.3v48.9L393.3.8h-10.6ZM474.9.8v67.1h49.8c8.7,0,15.9-3.5,20.7-9.9,4.6-5.9,7-14.1,7-23.7s-2.4-17.8-7-23.7c-4.9-6.5-12-9.9-20.7-9.9h-49.8ZM579.4.8c-7.8,0-14.2,6.4-14.2,14.3v38.6c0,7.9,6.4,14.3,14.2,14.3h54.1c7.9,0,14.2-6.4,14.2-14.3V15c0-7.9-6.4-14.3-14.2-14.3h-54.1ZM486.8,12.3h38.2c11.9,0,16.2,11.8,16.2,22s-4.2,22-16.2,22h-38.2V12.3ZM579.9,12.3h53.2c1.5,0,2.8,1.2,2.8,2.7v38.6c0,1.4-1.2,2.7-2.8,2.7h-53.2c-1.5,0-2.8-1.4-2.8-2.7V15c0-1.5,1.2-2.7,2.8-2.7Z" inkscape:label="Nintendo"/>
  </g>
</svg>