<?xml version="1.0" encoding="UTF-8"?>
<svg xmlns="http://www.w3.org/2000/svg" version="1.1" xmlns:cc="http://creativecommons.org/ns#" xmlns:dc="http://purl.org/dc/elements/1.1/" xmlns:inkscape="http://www.inkscape.org/namespaces/inkscape" xmlns:rdf="http://www.w3.org/1999/02/22-rdf-syntax-ns#" xmlns:sodipodi="http://sodipodi.sourceforge.net/DTD/sodipodi-0.dtd" xmlns:svg="http://www.w3.org/2000/svg" viewBox="0 0 1000 104.3">
  <defs>
    <style>
      .cls-1 {
        fill: #cf181f;
      }

      .cls-1, .cls-2, .cls-3 {
        stroke-width: 0px;
      }

      .cls-2 {
        fill: #fff;
      }

      .cls-3 {
        fill: #918f90;
      }
    </style>
  </defs>
  <g id="svg32558" inkscape:version="0.48.2 r9819">
    <sodipodi:namedview id="base" bordercolor="#666666" borderopacity="1.0" fit-margin-bottom="0.5" fit-margin-left="0.5" fit-margin-right="0.5" fit-margin-top="0.5" inkscape:current-layer="layer1" inkscape:cx="683.81258" inkscape:cy="-202.81886" inkscape:document-units="px" inkscape:pageopacity="0.0" inkscape:pageshadow="2" inkscape:window-height="1042" inkscape:window-maximized="0" inkscape:window-width="1057" inkscape:window-x="859" inkscape:window-y="-20" inkscape:zoom="0.40748409" pagecolor="#ffffff" showgrid="false"/>
    <g id="layer1" inkscape:groupmode="layer" inkscape:label="Layer 1">
      <g id="g32834">
        <path id="path32836" class="cls-2" d="M956.3,33.6v52.1s0,18,18,18h25.3v-10.6h-24.4s-7.4-.3-7.4-8.3v-51.1h-11.4Z" inkscape:connector-curvature="0"/>
      </g>
      <g id="g32838">
        <path id="path32840" class="cls-2" d="M904.5,33.6v52.1s0,18,18,18h25.3v-10.6h-24.4s-7.4-.3-7.4-8.3v-51.1h-11.4Z" inkscape:connector-curvature="0"/>
      </g>
      <g id="g32842">
        <path id="path32844" class="cls-3" d="M457.3,93.3c0,1.1-.9,2-2,2h-38.2c-1.1,0-2-.9-2-2v-27.6c0-1.1.9-2,2-2h38.2c1.1,0,2,.9,2,2v27.6ZM455.6,55.3h-38.9c-5.6,0-10.2,4.6-10.2,10.2v27.8c0,5.6,4.6,10.2,10.2,10.2h38.9c5.6,0,10.2-4.6,10.2-10.2v-27.8c0-5.6-4.6-10.2-10.2-10.2" inkscape:connector-curvature="0"/>
      </g>
      <g id="g32846">
        <path id="path32848" class="cls-2" d="M9.4,13.8v35.7H.5V1.3h7.6l36.1,35.1V1.3h8.8v48.2h-7L9.4,13.8Z" inkscape:connector-curvature="0"/>
      </g>
      <g id="g32850">
        <path id="path32852" class="cls-2" d="M98.9,13.8v35.7h-8.9V1.3h7.6l36.1,35.1V1.3h8.8v48.2h-7L98.9,13.8Z" inkscape:connector-curvature="0"/>
      </g>
      <g id="g32854">
        <path id="path32856" class="cls-2" d="M284.3,13.8v35.7h-8.9V1.3h7.6l36.1,35.1V1.3h8.8v48.2h-7l-36.7-35.7Z" inkscape:connector-curvature="0"/>
      </g>
      <g id="g32858">
        <path id="path32860" class="cls-2" d="M74.3,1.3h1.6v48.2h-8.9V1.3s7.3,0,7.3,0Z" inkscape:connector-curvature="0"/>
      </g>
      <g id="g32862">
        <path id="path32864" class="cls-2" d="M203.3,1.3h1.6v8.3h-21.5v39.9h-9.3V9.6h-21.5V1.3h50.7Z" inkscape:connector-curvature="0"/>
      </g>
      <g id="g32866">
        <path id="path32868" class="cls-2" d="M260.5,1.3h1.7v8.3h-38.2v10.8h29.6v8.3h-29.6v12.5h38.2v8.3h-47.1V1.3h45.4Z" inkscape:connector-curvature="0"/>
      </g>
      <g id="g32870">
        <path id="path32872" class="cls-2" d="M377.6,41.2h-27.4V9.6h27.4c8.6,0,11.6,8.5,11.6,15.8s-3.1,15.8-11.6,15.8M392.2,8.4c-3.5-4.6-8.7-7-14.9-7h-35.8v48.2h35.8c6.2,0,11.4-2.4,14.9-7,3.3-4.3,5-10.2,5-17.1s-1.7-12.8-5-17" inkscape:connector-curvature="0"/>
      </g>
      <g id="g32874">
        <path id="path32876" class="cls-2" d="M457.3,39.3c0,1.1-.9,2-2,2h-38.2c-1.1,0-2-.9-2-2V11.6c0-1.1.9-2,2-2h38.2c1.1,0,2,.9,2,2v27.6ZM455.6,1.3h-38.9c-5.6,0-10.2,4.6-10.2,10.2v27.8c0,5.6,4.6,10.2,10.2,10.2h38.9c5.6,0,10.2-4.6,10.2-10.2V11.6c0-5.6-4.6-10.2-10.2-10.2" inkscape:connector-curvature="0"/>
      </g>
      <g id="g32878">
        <path id="path32880" class="cls-2" d="M745.6,83.3c9.3,3.6,28.8,6.6,44,6.6s23.6-5.7,23.6-12.9-6.4-10.2-24.9-17c-24.6-9.1-42.7-16.3-42.7-32.5S767.4.9,800.6.9s23.9,1.1,35.2,3.2v15.9c-11-2.1-20.9-5.7-36.2-5.7s-23.4,5.2-23.4,10.6c0,7.8,10.7,11.5,29.6,18.2,26.3,9.4,40.9,16.7,40.9,32.5s-18.3,28.1-59.6,28.1-28.6-1.1-41.6-3.2v-17.1Z" inkscape:connector-curvature="0"/>
      </g>
      <g id="g32882">
        <path id="path32884" class="cls-2" d="M657.8,15h-19.6v74.3h19.6c30.1,0,49.1-12.9,49.1-37s-19-37.3-49.1-37.3M710.5,96.2c-9.7,4.4-28.1,7.2-44.2,7.2h-61.4V1.2h61.4c16.1,0,34.4,2.8,44.2,7.2,23.6,10.7,31.4,27.8,31.4,43.9s-7.7,33.3-31.4,43.9" inkscape:connector-curvature="0"/>
      </g>
      <g id="g32886">
        <path id="path32888" class="cls-1" d="M561.9,47.5s28.6-4.6,28.6-22.4S560.1.5,527.6.5s-48.5,3.6-48.5,3.6v15.8c13.3-3.2,26-6,43.3-6s32.8,5.6,32.8,13.4-14,14.8-44.2,14.8h-13.9v14.2h12.9c31.8,0,49.9,4.8,49.9,16.5s-16.2,16.8-36.3,16.8-33.7-3.7-46.7-7.4v17.1c6.2,1.1,22.9,4.4,53.8,4.4s64.1-11,64.1-30.4-20.7-25.9-32.9-25.9" inkscape:connector-curvature="0"/>
      </g>
      <g id="g32890">
        <path id="path32892" class="cls-2" d="M855.1,89.5h-3.2v-1.7h8.6v1.7h-3.3v9.6h-2.1v-9.6Z" inkscape:connector-curvature="0"/>
      </g>
      <g id="g32894">
        <path id="path32896" class="cls-2" d="M871.3,94.5c0-1.5-.1-3.2-.1-4.8h0c-.4,1.4-.8,2.9-1.4,4.3l-1.7,4.9h-1.6l-1.5-4.9c-.4-1.4-.8-3-1.1-4.4h0c0,1.5-.1,3.3-.2,4.8l-.2,4.6h-1.9l.8-11.3h2.7l1.5,4.6c.4,1.3.8,2.7,1,3.9h0c.3-1.2.7-2.6,1.1-4l1.6-4.5h2.7l.7,11.3h-2l-.2-4.6Z" inkscape:connector-curvature="0"/>
      </g>
    </g>
  </g>
</svg>