<?xml version="1.0" encoding="UTF-8"?>
<svg id="svg2525" xmlns="http://www.w3.org/2000/svg" version="1.1" xmlns:svg="http://www.w3.org/2000/svg" viewBox="0 0 600 97">
  <defs>
    <style>
      .cls-1 {
        fill: #939598;
      }

      .cls-1, .cls-2 {
        stroke-width: 0px;
      }

      .cls-2 {
        fill: #fff;
      }
    </style>
  </defs>
  <g id="layer1">
    <g id="g2420">
      <path id="path47" class="cls-2" d="M534,93.5h-1.8v-7.1h-2.6v-1.5h7v1.5h-2.6v7.1Z"/>
      <path id="path51" class="cls-2" d="M546.7,93.5h-1.7v-7.2h0l-1.6,7.2h-1.8l-1.6-7.2h0v7.2h-1.7v-8.6h2.6l1.6,6.8h0l1.5-6.8h2.6v8.6Z"/>
      <g id="g61">
        <path id="path63" class="cls-1" d="M337.1,87c0,.8-.7,1.4-1.5,1.4h-28c-.8,0-1.5-.6-1.5-1.4v-20.3c0-.8.7-1.5,1.5-1.5h28c.8,0,1.5.7,1.5,1.5v20.3ZM335.9,59.2h-28.5c-4.1,0-7.5,3.4-7.5,7.5v20.4c0,4.1,3.4,7.5,7.5,7.5h28.5c4.1,0,7.5-3.4,7.5-7.5v-20.4c0-4.1-3.4-7.5-7.5-7.5"/>
      </g>
      <g id="g65">
        <path id="path67" class="cls-2" d="M2,19.6h5.6l26.5,25.7v-25.7h6.5c0,.4,0,35,0,35.4h-5.1L8.5,28.7v26.2H2c0-.4,0-35,0-35.4"/>
      </g>
      <path id="path71" class="cls-2" d="M74.1,28.7v26.2h-6.6V19.6h5.6l26.5,25.8v-25.8h6.5v35.4h-5.1l-26.9-26.2Z"/>
      <path id="path75" class="cls-2" d="M210.2,28.7v26.2h-6.5V19.6h5.6l26.5,25.8v-25.8h6.5v35.4h-5.1l-26.9-26.2Z"/>
      <path id="path79" class="cls-2" d="M56.1,19.6h1.2v35.4h-6.6V19.6h5.3Z"/>
      <path id="path83" class="cls-2" d="M150.8,19.6h1.2v6.1h-15.8v29.3h-6.8v-29.3h-15.8v-6.1h37.2Z"/>
      <path id="path87" class="cls-2" d="M192.7,19.6h1.2v6.1h-28.1v8h21.7v6.1h-21.7v9.2s28.1,0,28.1,0v6.1h-34.6V19.6h33.3Z"/>
      <g id="g97">
        <path id="path99" class="cls-2" d="M278.6,48.8h-20.1v-23.2h20.1c6.3,0,8.5,6.3,8.5,11.6s-2.2,11.6-8.5,11.6M289.4,24.7c-2.6-3.4-6.3-5.2-10.9-5.2h-26.2v35.4h26.2c4.6,0,8.4-1.8,10.9-5.2,2.4-3.1,3.7-7.5,3.7-12.5s-1.3-9.4-3.7-12.5"/>
      </g>
      <g id="g101">
        <path id="path103" class="cls-2" d="M337.1,47.4c0,.8-.7,1.4-1.5,1.4h-28c-.8,0-1.5-.7-1.5-1.4v-20.3c0-.8.7-1.5,1.5-1.5h28c.8,0,1.5.7,1.5,1.5v20.3ZM335.9,19.6h-28.5c-4.1,0-7.5,3.4-7.5,7.5v20.4c0,4.1,3.4,7.5,7.5,7.5h28.5c4.1,0,7.5-3.4,7.5-7.5v-20.4c0-4.1-3.4-7.5-7.5-7.5"/>
      </g>
      <g id="g105">
        <path id="path107" class="cls-2" d="M454.8,79.6c6.8,2.7,21.1,4.8,32.3,4.8s17.3-4.2,17.3-9.5-4.7-7.5-18.2-12.5c-18.1-6.7-31.4-12-31.4-23.8s15.9-19.5,40.3-19.5,17.5.8,25.8,2.4v11.7c-8.1-1.6-15.3-4.2-26.5-4.2s-17.2,3.8-17.1,7.8c0,5.7,7.9,8.4,21.7,13.4,19.3,6.9,30,12.2,30,23.8,0,12-13.4,20.6-43.7,20.6s-21-.8-30.5-2.3v-12.6Z"/>
      </g>
      <g id="g109">
        <path id="path111" class="cls-2" d="M390.3,29.5h-14.4v54.5h14.4c22.2,0,36.1-9.5,36.1-27.2s-14-27.4-36.1-27.4M429.1,89.1c-7.1,3.2-20.6,5.3-32.4,5.3h-45.1V19.3h45.1c11.8,0,25.3,2.1,32.4,5.3,17.4,7.8,23,20.4,23,32.2s-5.6,24.4-23,32.2"/>
      </g>
      <g id="g113">
        <path id="path115" class="cls-2" d="M571.9,2c-14.4,0-26,11.7-26,26s11.7,26,26,26,26.1-11.6,26.1-26-11.7-26-26.1-26M575.8,46.7h-7.8v-23.8h7.8v23.8ZM571.9,18.5c-2.5,0-4.6-2-4.6-4.4s2-4.4,4.6-4.4,4.7,1.9,4.7,4.4-2.1,4.4-4.7,4.4"/>
      </g>
    </g>
  </g>
</svg>