<?xml version="1.0" encoding="UTF-8"?>
<svg xmlns="http://www.w3.org/2000/svg" version="1.1" xmlns:cc="http://creativecommons.org/ns#" xmlns:dc="http://purl.org/dc/elements/1.1/" xmlns:inkscape="http://www.inkscape.org/namespaces/inkscape" xmlns:rdf="http://www.w3.org/1999/02/22-rdf-syntax-ns#" xmlns:sodipodi="http://sodipodi.sourceforge.net/DTD/sodipodi-0.dtd" xmlns:svg="http://www.w3.org/2000/svg" xmlns:xlink="http://www.w3.org/1999/xlink" viewBox="0 0 1000 119.4">
  <defs>
    <style>
      .cls-1 {
        fill: #c9070a;
      }

      .cls-1, .cls-2, .cls-3, .cls-4 {
        stroke-width: 0px;
      }

      .cls-5 {
        clip-path: url(#clippath-2);
      }

      .cls-2 {
        fill: none;
      }

      .cls-6 {
        clip-path: url(#clippath-1);
      }

      .cls-7 {
        clip-path: url(#clippath);
      }

      .cls-3 {
        fill: #9c9d9d;
      }

      .cls-4 {
        fill: #fff;
      }
    </style>
    <clipPath id="clippath">
      <rect class="cls-2" x="-330.1" y="-261.9" width="4203.3" height="5896.3"/>
    </clipPath>
    <clipPath id="clippath-1">
      <rect class="cls-2" x="-330.1" y="-261.9" width="4203.3" height="5896.3"/>
    </clipPath>
    <clipPath id="clippath-2">
      <rect class="cls-2" x="-330.1" y="-261.9" width="4203.3" height="5896.3"/>
    </clipPath>
  </defs>
  <g id="svg32558" inkscape:version="0.48.2 r9819">
    <sodipodi:namedview id="base" bordercolor="#666666" borderopacity="1.0" fit-margin-bottom="0.5" fit-margin-left="0.5" fit-margin-right="0.5" fit-margin-top="0.5" inkscape:current-layer="layer1" inkscape:cx="391.83287" inkscape:cy="-333.39978" inkscape:document-units="px" inkscape:pageopacity="0.0" inkscape:pageshadow="2" inkscape:window-height="1042" inkscape:window-maximized="0" inkscape:window-width="1057" inkscape:window-x="859" inkscape:window-y="-20" inkscape:zoom="0.40748409" pagecolor="#ffffff" showgrid="false"/>
    <g id="layer1" inkscape:groupmode="layer" inkscape:label="Layer 1">
      <g id="g32014">
        <g id="g32016">
          <g id="g32022">
            <path id="path32024" class="cls-1" d="M549.1,118.6v-17.3s.9-20.5,39.5-40c23.1-11.7,47.5-20.1,47.5-30.7s-11.3-14.4-33.8-14.4-36,5.7-49.8,12.1V9.3c17.1-5.3,30.9-8.8,57.4-8.8s36.1,3.3,48.3,8.7c12.7,5.5,17.8,13.7,18.2,20.5,1.1,21.2-32,31.1-53.1,41.9-20.4,10.4-31.2,19.3-33.2,29.8h84.6v17.3h-125.6Z" inkscape:connector-curvature="0"/>
          </g>
        </g>
      </g>
      <g id="g32026">
        <g class="cls-7">
          <g id="g32028">
            <g id="g32034">
              <path id="path32036" class="cls-3" d="M524.6,63.3h-44.8c-6.5,0-11.8,5.3-11.8,11.8v31.9c0,6.5,5.3,11.8,11.8,11.8h44.8c6.5,0,11.8-5.3,11.8-11.8v-31.9c0-6.5-5.3-11.8-11.8-11.8M526.4,106.9c0,1.3-1,2.3-2.3,2.3h-44c-1.3,0-2.3-1-2.3-2.3v-31.8c0-1.3,1-2.3,2.3-2.3h44c1.3,0,2.3,1,2.3,2.3,0,0,0,31.8,0,31.8Z" inkscape:connector-curvature="0"/>
            </g>
          </g>
        </g>
      </g>
      <g id="g32038">
        <path id="path32040" class="cls-4" d="M10.8,15.5v41.1H.5V1.1h8.8l41.6,40.4V1.1h10.1v55.5h-8L10.8,15.5Z" inkscape:connector-curvature="0"/>
      </g>
      <g id="g32042">
        <path id="path32044" class="cls-4" d="M113.8,15.5v41.1h-10.3V1.1h8.8l41.6,40.4V1.1h10.2v55.5h-8L113.8,15.5Z" inkscape:connector-curvature="0"/>
      </g>
      <g id="g32046">
        <path id="path32048" class="cls-4" d="M327.3,15.5v41.1h-10.3V1.1h8.8l41.6,40.4V1.1h10.2v55.5h-8l-42.3-41.1Z" inkscape:connector-curvature="0"/>
      </g>
      <g id="g32050">
        <path id="path32052" class="cls-4" d="M85.5,1.1h1.9v55.5h-10.3V1.1h8.4Z" inkscape:connector-curvature="0"/>
      </g>
      <g id="g32054">
        <path id="path32056" class="cls-4" d="M234.1,1.1h1.9v9.5h-24.8v46h-10.7V10.6h-24.7V1.1h58.3Z" inkscape:connector-curvature="0"/>
      </g>
      <g id="g32058">
        <path id="path32060" class="cls-4" d="M299.9,1.1h1.9v9.5h-44v12.4h34.1v9.5h-34.1v14.4h44v9.6h-54.2V1.1h52.3Z" inkscape:connector-curvature="0"/>
      </g>
      <g id="g32062">
        <g class="cls-6">
          <g id="g32064">
            <g id="g32070">
              <path id="path32072" class="cls-4" d="M451.6,9.2c-4-5.3-9.9-8.1-17.1-8.1h-41.2v55.5h41.2c7.2,0,13.2-2.8,17.1-8.1,3.8-4.9,5.8-11.7,5.8-19.7,0-7.9-2-14.7-5.8-19.6M434.7,47h-31.5V10.6h31.5c9.9,0,13.4,9.8,13.4,18.2s-3.5,18.2-13.4,18.2" inkscape:connector-curvature="0"/>
            </g>
            <g id="g32074">
              <path id="path32076" class="cls-4" d="M524.6,1.1h-44.8c-6.5,0-11.8,5.3-11.8,11.8v32c0,6.5,5.3,11.8,11.8,11.8h44.8c6.5,0,11.8-5.3,11.8-11.8V12.9c0-6.4-5.3-11.8-11.8-11.8M526.4,44.7c0,1.2-1,2.3-2.3,2.3h-44c-1.3,0-2.3-1-2.3-2.3V12.9c0-1.3,1-2.3,2.3-2.3h44c1.3,0,2.3,1,2.3,2.3,0,0,0,31.8,0,31.8Z" inkscape:connector-curvature="0"/>
            </g>
            <g id="g32078">
              <path id="path32080" class="cls-4" d="M852.1,95.5c10.6,4.2,33.2,7.6,50.7,7.6s27.2-6.6,27.2-14.9-7.4-11.8-28.6-19.6c-28.4-10.5-49.2-18.7-49.2-37.4S877.3.6,915.4.6s27.6,1.3,40.6,3.7v18.3c-12.7-2.4-24-6.6-41.6-6.6s-26.9,6-26.9,12.2c0,9,12.4,13.2,34.1,21,30.3,10.8,47.1,19.2,47.1,37.4s-21.1,32.3-68.6,32.3-33-1.3-47.9-3.7v-19.7Z" inkscape:connector-curvature="0"/>
            </g>
            <g id="g32082">
              <path id="path32084" class="cls-4" d="M811.7,110.4c-11.2,5.1-32.3,8.3-50.8,8.3h-70.7V.9h70.7c18.5,0,39.7,3.2,50.9,8.3,27.2,12.3,36.1,31.9,36.1,50.6s-8.8,38.3-36.1,50.6M751,16.8h-22.6v85.6h22.6c34.7,0,56.6-14.8,56.6-42.7s-21.9-43-56.6-43" inkscape:connector-curvature="0"/>
            </g>
          </g>
        </g>
      </g>
      <g id="g32086">
        <path id="path32088" class="cls-4" d="M978.2,102.6h-3.7v-2h9.9v2h-3.8v11.1h-2.4v-11.1Z" inkscape:connector-curvature="0"/>
      </g>
      <g id="g32090">
        <g class="cls-5">
          <g id="g32092">
            <g id="g32098">
              <path id="path32100" class="cls-4" d="M996.9,108.3c0-1.7-.2-3.7-.2-5.5h0c-.4,1.6-1,3.4-1.6,5l-1.9,5.7h-1.8l-1.8-5.6c-.5-1.7-.9-3.5-1.3-5.1h0c0,1.7-.1,3.8-.2,5.6l-.3,5.3h-2.2l.9-13.1h3.1l1.7,5.3c.4,1.5.8,3.1,1.2,4.5h0c.3-1.4.8-3,1.3-4.6l1.8-5.2h3.1l.7,13.1h-2.3l-.3-5.3Z" inkscape:connector-curvature="0"/>
            </g>
          </g>
        </g>
      </g>
    </g>
  </g>
</svg>