<?xml version="1.0" encoding="UTF-8"?>
<svg id="svg8" xmlns="http://www.w3.org/2000/svg" version="1.1" xmlns:cc="http://creativecommons.org/ns#" xmlns:dc="http://purl.org/dc/elements/1.1/" xmlns:rdf="http://www.w3.org/1999/02/22-rdf-syntax-ns#" xmlns:svg="http://www.w3.org/2000/svg" viewBox="0 0 574.8 230.2">
  <defs>
    <style>
      .cls-1 {
        fill: red;
      }

      .cls-1, .cls-2 {
        stroke-width: 0px;
      }

      .cls-2 {
        fill: #fff;
      }
    </style>
  </defs>
  <g id="layer1">
    <g id="g1201">
      <path id="path867" class="cls-2" d="M76.7,152.2h-33.3v32.6h10.3v-21.8c0-1.4,1.1-2.5,2.5-2.5h17.9c1.4,0,2.5,1.1,2.5,2.5v21.8h10.3v-21.8s1.4-10.8-10.3-10.8"/>
      <path id="path869" class="cls-2" d="M364.2,152.2h-33.3v32.6h10.6v-21.8c0-1.4,1.2-2.5,2.3-2.5h17.9c1.4,0,2.5,1.1,2.5,2.5v21.8h10.3v-21.8s1.4-10.8-10.3-10.8"/>
      <path id="path871" class="cls-2" d="M520.9,152.2h-33.3v32.6h10.3v-21.8c0-1.4,1.1-2.5,2.5-2.5h17.9c1.4,0,2.5,1.1,2.5,2.5v21.8h10.3v-21.8s1.4-10.8-10.3-10.8"/>
      <path id="path873" class="cls-2" d="M91.6,160.5h11.5c1.1,0,2.5,1.1,2.5,2.5v21.8h11v-21.8c0-1.4,1.2-2.5,2.5-2.5h11.5v-8.3h-39v8.3"/>
      <path id="path875" class="cls-2" d="M535.6,152.2v8.3h11.5c1.4,0,2.5,1.1,2.5,2.5v21.8h11.5v-21.8c0-1.4.9-2.5,2.3-2.5h11.5v-8.3h-39.2"/>
      <path id="path877" class="cls-2" d="M222.6,160.5h11.5c1.4,0,2.5,1.1,2.5,2.5v21.8h11.5v-21.8c0-1.4,1.2-2.5,2.5-2.5h11.5v-8.3h-39.5v8.3"/>
      <path id="path879" class="cls-2" d="M313,152.2h11v32.6h-11v-32.6Z"/>
      <path id="path881" class="cls-2" d="M295.3,168.3h-18.6v-5.7c0-.9,1.4-2.1,2.1-2.1h14c1.6,0,2.5,1.1,2.5,2.1v5.7M295.1,152.2h-18.1c-11.7,0-10.8,10.8-10.8,10.8v21.8h10.6v-8.3h18.6v8.3h10.5v-21.8s1.4-10.8-10.8-10.8"/>
      <path id="path883" class="cls-2" d="M207.9,165.7c0,1.6-.7,2.5-2.1,2.5h-15.1c-.7,0-1.6-.9-1.6-2.5v-3.2c0-1.4.9-2.5,2.3-2.5h14.5c1.4,0,2.1.7,2.1,2.5v3.2M207.7,152.2h-29.4v32.6h10.8v-6.2c0-1.4.9-2.1,2.3-2.1h14.5c.7,0,2.1,1.1,2.1,2.1v6.2h10.3v-5s.9-4.6-3.9-7.8c3.2-2.3,4.4-5.7,4.6-7.8.2-.9.2-1.6.2-1.6,0,0,0-10.3-11.5-10.3"/>
      <path id="path885" class="cls-2" d="M0,174s-1.1,10.8,10.8,10.8h25.7v-8.3H12.7c-1.6,0-3-1.4-3-2.8s1.2-2.5,3-2.5h22.5v-5.7H12.2c-1.4,0-2.5-1.1-2.5-2.5s1.2-2.5,2.5-2.5h24.3v-8.3H0v21.8"/>
      <path id="path887" class="cls-2" d="M135.4,174s-1.6,10.8,10.3,10.8h25.7v-8.3h-23.9c-1.6,0-3-1.4-3-2.8s1.4-2.5,3-2.5h22.5v-5.7h-22.5c-1.6,0-3-1.1-3-2.5s1.4-2.5,3-2.5h23.9v-8.3h-36v21.8"/>
      <path id="path889" class="cls-2" d="M444.7,174s-1.2,10.8,10.6,10.8h25.9v-8.3h-24.1c-1.4,0-2.8-1.4-2.8-2.8s.9-2.5,2.5-2.5h22.5v-5.7h-22.5c-1.6,0-2.5-1.1-2.5-2.5s.9-2.5,2.5-2.5h24.3v-8.3h-36.5v21.8"/>
      <path id="path891" class="cls-2" d="M427.6,152.2h-46.1v32.6h9.6v-21.8c0-1.4,1.1-2.5,2.5-2.5h7.8c1.4,0,2.5,1.2,2.5,2.5v21.8h10.8v-21.8c0-1.4.9-2.5,2.5-2.5h8.3c.9,0,2.1,1.2,2.1,2.5l.4,21.8h10.3v-21.8s1.4-10.8-10.8-10.8"/>
      <path id="path893" class="cls-2" d="M280.9,205.9h11.7c.9,0,2.1,1.2,2.1,2.5v21.8h11.5l.5-21.8c0-1.4.7-2.5,2.1-2.5h11.5v-8.3h-39.2v8.3"/>
      <path id="path895" class="cls-2" d="M413.5,197.6h-46.1v32.6h9.6v-21.8c0-1.4,1.1-2.5,2.5-2.5h7.8c1.4,0,2.5,1.2,2.5,2.5v21.8h10.8v-21.8c0-1.4.9-2.5,2.5-2.5h8.3c.9,0,2.1,1.2,2.1,2.5l.5,21.8h10.3v-21.8s1.4-10.8-10.8-10.8"/>
      <path id="path897" class="cls-2" d="M233.6,197.6h-9.9v12.2c0,1.4-1.4,2.5-2.5,2.5h-14.7c-1.4,0-2.5-1.2-2.5-2.5v-12.2h-10.3v11.9s-1.1,11,10.8,11h3.4v9.6h11.5v-9.6h3.9c11.9,0,10.3-10.8,10.3-10.8v-12.2"/>
      <path id="path899" class="cls-2" d="M324.5,219.4s-1.6,10.8,10.3,10.8h25.7v-8.3h-23.9c-1.6,0-3-1.1-3-2.8s1.4-2.3,3-2.3h22.5v-5.7h-22.5c-1.6,0-3-1.4-3-2.7s1.4-2.5,3-2.5h23.9v-8.3h-36v21.8"/>
      <path id="path901" class="cls-2" d="M266.7,210.9h-15.4c-1.8,0-3-.7-3-2.3s1.1-2.8,2.5-2.8h26.2v-8.3h-28.7c-5.3,0-9.9,4.4-9.9,9.4s4.6,9.9,10.8,9.9h15.4c1.6,0,3.2.7,3.2,2.3s-1.1,2.8-2.5,2.8h-26.8v8.3h29.4c4.8,0,9.9-3.9,9.9-9.4s-5.3-9.9-11-9.9"/>
      <path id="path903" class="cls-2" d="M179.2,210.9h-14.9c-1.8,0-3.2-.7-3.2-2.3s1.4-2.8,2.8-2.8h26.2v-8.3h-28.7c-5.7,0-10.3,4.4-10.3,9.4s5.1,9.9,11.2,9.9h14.9c1.8,0,3.2.7,3.2,2.3s-1.4,2.8-2.8,2.8h-26.6v8.3h29.4c5.3,0,10.1-3.9,10.1-9.4s-5.1-9.9-11.2-9.9"/>
    </g>
    <g id="g10076">
      <path id="path1065" class="cls-1" d="M94,122.3c-40.7,0-67.8-27.6-67.8-61h0C26.2,27.8,53.4,0,94,0h383.1c40.5,0,67.8,27.8,67.8,61.2h0c0,33.4-27.2,61-67.8,61H94ZM94.1,15c-32.2,0-52,20.6-52,46.1h0c0,25.5,19.6,46.2,52,46.1h382.8c32.3.1,52-20.6,52-46.1h0c0-25.5-19.8-46.1-52-46.1H94.1Z"/>
      <g id="g1122">
        <polygon id="polygon1045" class="cls-1" points="115.6 31.2 134.5 31.2 134.5 92.3 115.6 92.3 89.2 49.7 89.2 92.3 70.2 92.3 70.2 31.2 89.3 31.2 115.6 73.8 115.6 31.2"/>
        <polygon id="polygon1047" class="cls-1" points="227.2 51.8 227.2 45.7 237.2 45.7 237.2 37.5 255.6 37.5 255.6 45.7 265.5 45.7 265.5 51.8 255.6 51.8 255.6 92.3 237.2 92.3 237.2 51.8 227.2 51.8"/>
        <polygon id="polygon1049" class="cls-1" points="163.4 51.7 163.4 92.3 145 92.3 145 51.7 163.4 51.7"/>
        <polygon id="polygon1051" class="cls-1" points="163.4 31.2 163.4 43.7 145 43.7 145 31.2 163.4 31.2"/>
        <path id="path1053" class="cls-1" d="M474.4,71.7s0,6.1,0,8.6c0,6.5-3.8,9.2-7.5,9.2s-7.5-2.7-7.5-9.2,0-8.8,0-8.8c0,0,0-6,0-8.5,0-6.5,3.8-9.1,7.5-9.1s7.5,2.7,7.5,9.1,0,7,0,8.6h0ZM467,48.9c-14.8,0-26.9,10.2-26.9,22.8s12,22.8,26.9,22.8,26.9-10.2,26.9-22.8-12-22.8-26.9-22.8h0Z"/>
        <path id="path1055" class="cls-1" d="M416,31.2h18.1v61.1h-18.2s0-2,0-2.4c-7,4.4-15,4.4-21.1,1.5-1.7-.8-12.6-6-12.6-20.1s10.1-22.4,23.4-21.3c4.4.4,7.5,2,10.4,3.6,0-9.4,0-22.5,0-22.5h0ZM416.2,71.8v-7.3c0-6.3-4.3-7.9-7.2-7.9s-7.2,1.6-7.2,7.9,0,7.2,0,7.2c0,0,0,5.1,0,7.2,0,6.3,4.3,7.9,7.2,7.9s7.2-1.6,7.2-7.9,0-7.2,0-7.2h0Z"/>
        <path id="path1057" class="cls-1" d="M206.4,49.8c6.9-.2,20.8,4.3,20.7,20.4,0,2.9,0,22.1,0,22.1h-18.3v-26.7c0-3.5-3.4-7.5-8.4-7.5s-8.7,3.9-8.7,7.5,0,26.7,0,26.7h-18.2v-40.6s18.2,0,18.2,0c0,0,0,3.3,0,4.3,3.5-3.4,8.6-6,14.6-6.1h0Z"/>
        <path id="path1059" class="cls-1" d="M355.7,49.8c6.9-.2,20.8,4.3,20.7,20.4,0,2.9,0,22.1,0,22.1h-18.3v-26.7c0-3.5-3.4-7.5-8.4-7.5s-8.7,3.9-8.7,7.5,0,26.7,0,26.7h-18.2v-40.6s18.2,0,18.2,0c0,0,0,3.3,0,4.3,3.5-3.4,8.6-6,14.6-6.1h0Z"/>
        <path id="path1061" class="cls-1" d="M282.6,65.8c0-3.6,0-5.9,1.2-8,1.4-2.5,4.1-3.7,6.5-3.7h0c2.4,0,5,1.2,6.5,3.7,1.2,2,1.2,4.4,1.2,8h-15.3ZM297.9,78.1s0,.2,0,2.5c0,7.4-4.9,9.1-7.6,9.1s-7.7-1.7-7.7-9.1,0-8.4,0-8.4c0,0,34.6,0,34.6,0,0-12.6-12.2-23-27.1-23s-27.1,10.2-27.1,22.8,12.1,22.8,27.1,22.8,22.9-7.1,26.1-16.7h-18.3Z"/>
      </g>
    </g>
  </g>
</svg>