<?xml version="1.0" encoding="UTF-8"?>
<svg xmlns="http://www.w3.org/2000/svg" version="1.1" xmlns:cc="http://creativecommons.org/ns#" xmlns:dc="http://purl.org/dc/elements/1.1/" xmlns:inkscape="http://www.inkscape.org/namespaces/inkscape" xmlns:rdf="http://www.w3.org/1999/02/22-rdf-syntax-ns#" xmlns:sodipodi="http://sodipodi.sourceforge.net/DTD/sodipodi-0.dtd" xmlns:svg="http://www.w3.org/2000/svg" xmlns:xlink="http://www.w3.org/1999/xlink" viewBox="0 0 1000 103.3">
  <defs>
    <style>
      .cls-1 {
        fill: #c9070a;
      }

      .cls-1, .cls-2, .cls-3, .cls-4 {
        stroke-width: 0px;
      }

      .cls-2 {
        fill: none;
      }

      .cls-5 {
        clip-path: url(#clippath);
      }

      .cls-3 {
        fill: #9c9d9d;
      }

      .cls-4 {
        fill: #fff;
      }
    </style>
    <clipPath id="clippath">
      <rect class="cls-2" x="-2288.8" y="-221" width="3567.9" height="5005"/>
    </clipPath>
  </defs>
  <g id="svg32558" inkscape:version="0.48.2 r9819">
    <sodipodi:namedview id="base" bordercolor="#666666" borderopacity="1.0" fit-margin-bottom="0.5" fit-margin-left="0.5" fit-margin-right="0.5" fit-margin-top="0.5" inkscape:current-layer="layer1" inkscape:cx="553.47017" inkscape:cy="-179.59356" inkscape:document-units="px" inkscape:pageopacity="0.0" inkscape:pageshadow="2" inkscape:window-height="1042" inkscape:window-maximized="0" inkscape:window-width="1057" inkscape:window-x="859" inkscape:window-y="-20" inkscape:zoom="0.40748409" pagecolor="#ffffff" showgrid="false"/>
    <g id="layer1" inkscape:groupmode="layer" inkscape:label="Layer 1">
      <g id="g31986">
        <path id="path31988" class="cls-3" d="M451.2,54.8h-38.6c-5.6,0-10.1,4.6-10.1,10.1v27.5c0,5.6,4.5,10.1,10.1,10.1h38.6c5.6,0,10.1-4.6,10.1-10.1v-27.5c0-5.6-4.5-10.1-10.1-10.1M452.8,92.3c0,1.1-.9,2-2,2h-37.8c-1.1,0-2-.9-2-2v-27.4c0-1.1.9-2,2-2h37.8c1.1,0,2,.9,2,2,0,0,0,27.4,0,27.4Z" inkscape:connector-curvature="0"/>
      </g>
      <g id="g31990">
        <path id="path31992" class="cls-1" d="M556.5,47s28.4-4.5,28.4-22.2S554.7.5,522.5.5s-48.1,3.5-48.1,3.5v15.7c13.1-3.2,25.8-5.9,42.9-5.9s32.4,5.5,32.4,13.3-13.9,14.7-43.8,14.7h-13.7v14.1h12.8c31.5,0,49.4,4.7,49.4,16.3s-16,16.6-35.9,16.6-33.3-3.7-46.3-7.3v16.9c6.2,1.1,22.7,4.4,53.3,4.4s63.5-10.9,63.5-30.2-20.5-25.6-32.6-25.6" inkscape:connector-curvature="0"/>
      </g>
      <g id="g31994">
        <path id="path31996" class="cls-4" d="M846.8,91.1h-3.2v-1.7h8.5v1.7h-3.2v9.5h-2v-9.5Z" inkscape:connector-curvature="0"/>
      </g>
      <g id="g31998">
        <g class="cls-5">
          <g id="g32000">
            <g id="g32006">
              <path id="path32008" class="cls-4" d="M862.9,96c0-1.5-.1-3.2-.1-4.7h0c-.4,1.4-.8,2.9-1.3,4.3l-1.6,4.9h-1.6l-1.5-4.8c-.5-1.4-.9-3-1.2-4.4h0c0,1.5-.1,3.3-.2,4.8l-.2,4.5h-1.9l.8-11.2h2.7l1.5,4.5c.4,1.3.8,2.6,1,3.9h0c.3-1.2.7-2.6,1.1-3.9l1.6-4.5h2.7l.7,11.2h-2l-.2-4.6Z" inkscape:connector-curvature="0"/>
            </g>
            <g id="g32010">
              <path id="path32012" class="cls-4" d="M213,49h46.6v-8.2h-37.9v-12.4h29.3v-8.2h-29.3v-10.7h37.9V1.3h-46.6v47.7ZM316.1,36.1L280.3,1.3h-7.5v47.7h8.8V13.7l36.3,35.4h6.9V1.3h-8.7v34.8ZM66.4,49h8.8V1.3h-8.8v47.7ZM43.9,36.1L8.1,1.3H.5v47.7h8.9V13.7l36.3,35.4h6.9V1.3h-8.7v34.8ZM132.4,36.1L96.7,1.3h-7.5v47.7h8.8V13.7l36.3,35.4h6.9V1.3h-8.7s0,34.8,0,34.8ZM151.2,9.5h21.3v39.5h9.2V9.5h21.3V1.3h-51.8v8.2ZM451.2,1.3h-38.6c-5.6,0-10.1,4.6-10.1,10.1v27.5c0,5.6,4.5,10.1,10.1,10.1h38.6c5.6,0,10.1-4.6,10.1-10.1V11.4c0-5.6-4.5-10.1-10.1-10.1M452.8,38.9c0,1.1-.9,2-2,2h-37.8c-1.1,0-2-.9-2-2V11.5c0-1.1.9-2,2-2h37.8c1.1,0,2,.9,2,2v27.4ZM373.7,1.3h-35.4v47.7h35.4c6.2,0,11.3-2.4,14.8-7,3.2-4.2,4.9-10.1,4.9-16.9s-1.7-12.7-4.9-16.9c-3.5-4.6-8.6-7-14.8-7M374,40.8h-27.1V9.5h27.1c8.5,0,11.5,8.4,11.5,15.6s-3,15.7-11.5,15.7M948.7,33.3h-13.1l-15.6,23.9-15.6-23.9h-12.9l22.1,33.9-23.1,35.5h13.1l16.6-25.4,16.5,25.4h13l-23-35.4,22.1-34h0ZM975.3,92.1s-7.3-.3-7.3-8.2v-50.6h-11.3v51.6s0,17.8,17.7,17.8h25v-10.5s-24.2,0-24.2,0ZM798.1,42.7c-18.7-6.6-29.3-10.3-29.3-18s6.9-10.5,23.1-10.5,24.9,3.6,35.9,5.7V4.1c-11.3-2.1-17.3-3.2-35-3.2-32.9,0-54.4,9.8-54.4,26.4s17.9,23.1,42.3,32.1c18.3,6.7,24.6,10.4,24.6,16.8s-6.9,12.8-23.4,12.8-34.5-2.9-43.6-6.6v17c12.9,2.1,24.4,3.2,41.2,3.2,40.9,0,59-11.7,59-27.8s-14.5-22.9-40.5-32.2M703.6,8.3c-9.6-4.3-27.8-7.1-43.8-7.1h-60.8v101.3h60.8c15.9,0,34.1-2.8,43.8-7.1,23.5-10.6,31.1-27.5,31.1-43.5s-7.6-32.9-31-43.5M651.4,88.4h-19.5V14.8h19.5c29.9,0,48.7,13.1,48.7,37s-18.8,36.6-48.7,36.6" inkscape:connector-curvature="0"/>
            </g>
          </g>
        </g>
      </g>
    </g>
  </g>
</svg>