<?xml version="1.0" encoding="UTF-8"?>
<svg xmlns="http://www.w3.org/2000/svg" version="1.1" xmlns:cc="http://creativecommons.org/ns#" xmlns:dc="http://purl.org/dc/elements/1.1/" xmlns:inkscape="http://www.inkscape.org/namespaces/inkscape" xmlns:rdf="http://www.w3.org/1999/02/22-rdf-syntax-ns#" xmlns:sodipodi="http://sodipodi.sourceforge.net/DTD/sodipodi-0.dtd" xmlns:svg="http://www.w3.org/2000/svg" viewBox="0 0 400 87">
  <defs>
    <style>
      .cls-1 {
        fill: #fff;
        stroke-width: 0px;
      }
    </style>
  </defs>
  <g id="svg3336" inkscape:version="0.91 r13725">
    <sodipodi:namedview id="namedview3350" bordercolor="#666666" borderopacity="1" fit-margin-bottom="0" fit-margin-left="0" fit-margin-right="0" fit-margin-top="0" gridtolerance="10" guidetolerance="10" inkscape:current-layer="svg3336" inkscape:cx="151.35" inkscape:cy="154.10001" inkscape:pageopacity="0" inkscape:pageshadow="2" inkscape:window-height="706" inkscape:window-maximized="1" inkscape:window-width="1366" inkscape:window-x="-8" inkscape:window-y="-8" inkscape:zoom="1.7488644" objecttolerance="10" pagecolor="#ffffff" showgrid="false"/>
    <path id="path3348" class="cls-1" d="M330.9,20.4h-5.3V6.3h5.3c3.8,0,7,3.1,7,7s-3.2,7.1-7,7.1M330.6,1.2h-10v24.3h10c6.9,0,12.5-5.5,12.5-12.2s-5.6-12.1-12.5-12.1M34.9,78.7h-12.3c-4,0-7.7-1.6-10.5-4.4s-4.4-6.5-4.4-10.5V22.6c0-4,1.6-7.7,4.4-10.5s6.5-4.3,10.5-4.3h12.3v70.9ZM41.1,1h-18.5C10.7,1,1,10.7,1,22.6v41.2c0,12,9.7,21.6,21.6,21.6h18.5c.3,0,.7-.3.7-.6V1.6c0-.3-.3-.6-.7-.6M300,25.5V1.2h-4.9v15.9l-11.9-15.9h-4.9v24.3h4.9V9.2l12,16.3h4.8ZM241.3,47.6h14.7v36.1h9.8v-36.1h14.4v-9.7h-38.9v9.7ZM312,46.6c5.2,0,10,2.7,12.6,7.1l7.4-6.5c-4.5-6.8-12.1-10.8-20.3-10.8-13.4,0-24.4,10.9-24.4,24.4s11,24.5,24.4,24.5,15.8-4,20.3-10.8l-7.4-6.5c-2.6,4.3-7.4,7.1-12.6,7.1-8,0-14.5-6.4-14.5-14.3s6.5-14.2,14.5-14.2M397.1,77.8l-1.5,4.3-1.5-4.3h-1.6v5.8h1.1v-4.5l1.5,4.5h1l1.6-4.5v4.5h1v-5.8h-1.6ZM386.7,79h1.9v4.7h1.2v-4.7h1.8v-1.2h-4.9v1.2ZM373.4,55.9h-21.4v-18h-9.5v45.8h9.5v-18.3h21.4v18.3h9.5v-45.8h-9.5v18ZM371.7,20.9c-4.1,0-7.5-3.4-7.5-7.6s3.4-7.5,7.5-7.5,7.6,3.3,7.6,7.5-3.4,7.6-7.6,7.6M371.7.4c-7.1,0-12.9,5.8-12.9,12.9s5.8,13,12.9,13,13-5.8,13-13-5.8-12.9-13-12.9M258.1,21h-13.9v-5.7h12.9v-4.4h-12.9v-5.3h13.9V1.2h-18.9v24.3h18.9v-4.5ZM14.1,26.3c0,4.4,3.6,8,8,8s8-3.6,8-8-3.6-8-8-8-8,3.7-8,8M117.3,55.9h-.3c-5.6-1-10.4-1.9-10.8-5.1,0-.6,0-1.6.8-2.6,1.5-1.8,5-2.7,10.3-2.7s11.9,2.3,14,3.2l3.3-7.9c-2.3-1-9.7-3.6-17.8-3.6s-20.4,4.9-20.4,13.8,5.1,11,18.3,13.2c9.2,1.6,14.3,2.5,14.2,6.5-.1,2.2-1.8,5.9-12.2,5.9s-14.4-3.1-16.4-4.3l-4.3,7.8c2.3,1.2,10,4.9,20,4.9,14.6,0,22.3-5.1,22.3-14.7s-3.5-11.3-21-14.4M102.9,9.2l12.1,16.3h4.8V1.2h-4.9v15.9l-12-15.9h-4.9v24.3h4.9V9.2ZM143.5,1.2h-5.4v24.3h5.4V1.2ZM66.9,38.9c4.7,0,8.5,3.8,8.5,8.5s-3.8,8.6-8.5,8.6-8.6-3.8-8.6-8.6c0-4.6,3.9-8.5,8.6-8.5M50.8,85.5h13c12,0,21.6-9.7,21.6-21.6V22.6c0-12-9.7-21.6-21.6-21.6h-13c-.3,0-.6.2-.6.5v83.4c0,.3.3.6.6.6M189.8,71.1l-9.7-33.2h-8.2l-9.6,33.1-8.8-33.1h-10l13,45.8h11l8.5-30.2,8.5,30.2h11.1l13-45.8h-10l-8.8,33.2ZM221.5,1.2h-20.6v5.1h7.8v19.2h5.2V6.3h7.6V1.2ZM166.7,9.2l12.1,16.3h4.8V1.2h-4.9v15.9l-12-15.9h-4.9v24.3h4.9V9.2h0ZM220,83.7h10.2v-45.8h-10.2v45.8Z" inkscape:connector-curvature="0"/>
  </g>
</svg>