<?xml version="1.0" encoding="utf-8"?>
<!-- Generator: Adobe Illustrator 28.2.0, SVG Export Plug-In . SVG Version: 6.00 Build 0)  -->
<svg version="1.1" id="레이어_1" xmlns="http://www.w3.org/2000/svg" xmlns:xlink="http://www.w3.org/1999/xlink" x="0px"
	 y="0px" viewBox="0 0 872.4 214.9" style="enable-background:new 0 0 872.4 214.9;" xml:space="preserve">
<style type="text/css">
	.st0{fill:#FFFFFF;}
</style>
<path class="st0" d="M86.5,56.7h31.5l43.6,70.6l0-70.6h31.3v101.2h-31.2l-43.8-70.6v70.6H86.5L86.5,56.7L86.5,56.7z M363,67.1h30.4
	v13.6h16.5v10h-16.5l0,67.1H363l0-67.1h-16.5v-10l16.6,0L363,67.1L363,67.1z M210.3,90.6l30.4,0v67.3h-30.4V90.6L210.3,90.6z
	 M210.3,56.7h30.5v20.7h-30.5V56.7z M755.7,123.7c0,0,0,10.2,0,14.3c0,10.7-6.3,15.2-12.4,15.2c-6.1,0-12.5-4.4-12.5-15.2
	c0-4.1,0-14.5,0-14.5s0-10,0-14c0-10.7,6.4-15.1,12.4-15.1c6.1,0,12.4,4.4,12.4,15.1C755.7,113.5,755.7,121,755.7,123.7L755.7,123.7
	L755.7,123.7z M743.5,86c-24.6,0-44.5,16.9-44.5,37.8c0,20.9,19.9,37.8,44.5,37.8c24.6,0,44.5-16.9,44.5-37.8
	C788,102.9,768,86,743.5,86z M659.1,56.7h30v101.2H659c0,0,0-3.3,0-3.9c-11.6,7.3-24.8,7.3-35,2.5c-2.7-1.3-20.8-9.9-20.8-33.4
	c0-17.8,16.8-37.2,38.7-35.2c7.2,0.6,12.3,3.3,17.2,6C659.1,78.3,659.1,56.7,659.1,56.7z M659.3,123.9v-12
	c0-10.4-7.2-13.1-11.9-13.1c-4.8,0-11.9,2.7-11.9,13.1c0,3.5,0,12,0,12s0,8.4,0,12c0,10.4,7.1,13.1,11.9,13.1
	c4.7,0,11.9-2.7,11.9-13.1C659.3,131.5,659.3,123.9,659.3,123.9L659.3,123.9z M312,87.5c11.4-0.3,34.5,7.1,34.3,33.8
	c0,4.7,0,36.6,0,36.6H316v-44.2c0-5.9-5.6-12.4-13.9-12.4c-8.3,0-14.4,6.5-14.4,12.4c0,2.9,0,44.2,0,44.2h-30.2l0-67.3l30.2,0
	c0,0,0,5.4,0,7.1C293.6,92.1,301.9,87.8,312,87.5L312,87.5z M559.2,87.5c11.4-0.3,34.5,7.1,34.3,33.8c0,4.7,0,36.6,0,36.6h-30.2
	v-44.2c0-5.9-5.6-12.4-13.9-12.4c-8.3,0-14.4,6.5-14.4,12.4c0,2.9,0,44.2,0,44.2h-30.2l0-67.3l30.2,0c0,0,0,5.4,0,7.1
	C540.8,92.1,549.2,87.8,559.2,87.5L559.2,87.5z M438.2,114c0-5.9,0.1-9.8,2-13.2c2.4-4.1,6.7-6.1,10.7-6.1h0c4,0,8.3,2,10.7,6.1
	c1.9,3.4,2,7.3,2,13.2L438.2,114L438.2,114z M463.5,134.3c0,0,0,0.3,0,4.1c0,12.3-8.1,15-12.6,15s-12.7-2.7-12.7-15
	c0-3.7,0-13.9,0-13.9s57.3,0,57.3,0c0-20.9-20.1-38.2-44.9-38.2c-24.7,0-44.8,16.9-44.8,37.8c0,20.9,20.1,37.8,44.8,37.8
	c20.5,0,37.9-11.7,43.2-27.6L463.5,134.3L463.5,134.3z M792.7,64.2c4.9,0,7.4,1.7,7.4,5c0,2.3-1.4,4-3.8,4.6l3.9,7.7h-4.7l-3.3-7.1
	h-2.1v7.1h-4.2V64.2L792.7,64.2L792.7,64.2z M792.3,57.5c-8.6,0-15.6,7-15.6,15.6s7,15.6,15.6,15.6s15.6-7,15.6-15.6
	S800.9,57.5,792.3,57.5z M804.9,73.1c0,7-5.6,12.6-12.6,12.6s-12.6-5.6-12.6-12.6c0-7,5.6-12.6,12.6-12.6
	C799.3,60.5,804.9,66.1,804.9,73.1z M790.1,71.9h2c2.4,0,3.6-0.7,3.6-2.4c0-1.8-1.2-2.6-3.8-2.6h-1.8V71.9z M114.1,214.9
	C45.7,214.9,0,166.4,0,107.6C0,48.9,45.8-0.1,114,0h644.4c68.2-0.2,114,48.9,114,107.6s-45.7,107.2-114.1,107.3H114.1L114.1,214.9z
	 M114.3,26.4c-54.1,0.1-87.4,36.3-87.4,81.1c0,44.8,33,81.3,87.4,81.1h643.8c54.4,0.2,87.4-36.3,87.4-81.1c0-44.8-33.2-81-87.4-81.1
	L114.3,26.4L114.3,26.4z"/>
</svg>
