<?xml version="1.0" encoding="UTF-8" standalone="no"?>
<!-- Created with Inkscape (http://www.inkscape.org/) -->

<svg
   xmlns:dc="http://purl.org/dc/elements/1.1/"
   xmlns:cc="http://creativecommons.org/ns#"
   xmlns:rdf="http://www.w3.org/1999/02/22-rdf-syntax-ns#"
   xmlns:svg="http://www.w3.org/2000/svg"
   xmlns="http://www.w3.org/2000/svg"
   xmlns:sodipodi="http://sodipodi.sourceforge.net/DTD/sodipodi-0.dtd"
   xmlns:inkscape="http://www.inkscape.org/namespaces/inkscape"
   width="1000"
   height="104.27177"
   id="svg32558"
   version="1.1"
   inkscape:version="0.48.2 r9819"
   sodipodi:docname="A.svg">
  <defs
     id="defs32560">
    <clipPath
       clipPathUnits="userSpaceOnUse"
       id="clipPath32094">
      <path
         inkscape:connector-curvature="0"
         d="m 15,15 612.283,0 0,858.898 L 15,873.898 15,15 z"
         id="path32096" />
    </clipPath>
    <clipPath
       clipPathUnits="userSpaceOnUse"
       id="clipPath32066">
      <path
         inkscape:connector-curvature="0"
         d="m 15,15 612.283,0 0,858.898 L 15,873.898 15,15 z"
         id="path32068" />
    </clipPath>
    <clipPath
       clipPathUnits="userSpaceOnUse"
       id="clipPath32030">
      <path
         inkscape:connector-curvature="0"
         d="m 15,15 612.283,0 0,858.898 L 15,873.898 15,15 z"
         id="path32032" />
    </clipPath>
    <clipPath
       clipPathUnits="userSpaceOnUse"
       id="clipPath32018">
      <path
         inkscape:connector-curvature="0"
         d="m 62.98,818.431 145.885,0 0,17.248 -145.885,0 0,-17.248 z"
         id="path32020" />
    </clipPath>
    <clipPath
       clipPathUnits="userSpaceOnUse"
       id="clipPath32002">
      <path
         inkscape:connector-curvature="0"
         d="m 15,15 612.283,0 0,858.898 L 15,873.898 15,15 z"
         id="path32004" />
    </clipPath>
    <clipPath
       clipPathUnits="userSpaceOnUse"
       id="clipPath32002-8">
      <path
         inkscape:connector-curvature="0"
         d="m 15,15 612.283,0 0,858.898 L 15,873.898 15,15 z"
         id="path32004-8" />
    </clipPath>
  </defs>
  <sodipodi:namedview
     id="base"
     pagecolor="#ffffff"
     bordercolor="#666666"
     borderopacity="1.0"
     inkscape:pageopacity="0.0"
     inkscape:pageshadow="2"
     inkscape:zoom="0.40748409"
     inkscape:cx="683.81258"
     inkscape:cy="-202.81886"
     inkscape:document-units="px"
     inkscape:current-layer="layer1"
     showgrid="false"
     fit-margin-left="0.5"
     fit-margin-bottom="0.5"
     fit-margin-top="0.5"
     fit-margin-right="0.5"
     inkscape:window-width="1057"
     inkscape:window-height="1042"
     inkscape:window-x="859"
     inkscape:window-y="-20"
     inkscape:window-maximized="0" />
  <metadata
     id="metadata32563">
    <rdf:RDF>
      <cc:Work
         rdf:about="">
        <dc:format>image/svg+xml</dc:format>
        <dc:type
           rdf:resource="http://purl.org/dc/dcmitype/StillImage" />
        <dc:title></dc:title>
      </cc:Work>
    </rdf:RDF>
  </metadata>
  <g
     inkscape:label="Layer 1"
     inkscape:groupmode="layer"
     id="layer1"
     transform="translate(-754.26087,-155.41267)">
    <g
       id="g32834"
       transform="matrix(6.0708816,0,0,-6.0708816,1710.5362,189.02501)">
      <path
         d="m 0,0 0,-8.579 c 0,0 -0.011,-2.957 2.957,-2.957 l 4.163,0 0,1.751 -4.022,0 c 0,0 -1.215,0.043 -1.215,1.369 L 1.883,0 0,0 z"
         style="fill:#231f20;fill-opacity:1;fill-rule:nonzero;stroke:none"
         id="path32836"
         inkscape:connector-curvature="0" />
    </g>
    <g
       id="g32838"
       transform="matrix(6.0708816,0,0,-6.0708816,1658.7577,189.02501)">
      <path
         d="m 0,0 0,-8.579 c 0,0 -0.012,-2.957 2.957,-2.957 l 4.164,0 0,1.751 -4.025,0 c 0,0 -1.213,0.043 -1.213,1.369 L 1.883,0 0,0 z"
         style="fill:#231f20;fill-opacity:1;fill-rule:nonzero;stroke:none"
         id="path32840"
         inkscape:connector-curvature="0" />
    </g>
    <g
       id="g32842"
       transform="matrix(6.0708816,0,0,-6.0708816,1211.5157,248.67579)">
      <path
         d="m 0,0 c 0,-0.181 -0.148,-0.329 -0.33,-0.329 l -6.293,0 c -0.183,0 -0.33,0.148 -0.33,0.329 l 0,4.552 c 0,0.18 0.147,0.328 0.33,0.328 l 6.293,0 C -0.148,4.88 0,4.732 0,4.552 L 0,0 z m -0.271,6.246 -6.41,0 c -0.928,0 -1.682,-0.759 -1.682,-1.683 l 0,-4.573 c 0,-0.923 0.754,-1.682 1.682,-1.682 l 6.41,0 c 0.926,0 1.681,0.759 1.681,1.682 l 0,4.573 c 0,0.924 -0.755,1.683 -1.681,1.683"
         style="fill:#918f90;fill-opacity:1;fill-rule:nonzero;stroke:none"
         id="path32844"
         inkscape:connector-curvature="0" />
    </g>
    <g
       id="g32846"
       transform="matrix(6.0708816,0,0,-6.0708816,763.69114,169.23214)">
      <path
         d="m 0,0 0,-5.884 -1.471,0 0,7.941 1.256,0 5.954,-5.784 0,5.784 1.175,0 0.277,0 0,-7.941 -1.15,0 L 0,0 z"
         style="fill:#231f20;fill-opacity:1;fill-rule:nonzero;stroke:none"
         id="path32848"
         inkscape:connector-curvature="0" />
    </g>
    <g
       id="g32850"
       transform="matrix(6.0708816,0,0,-6.0708816,853.16374,169.23214)">
      <path
         d="m 0,0 0,-5.884 -1.47,0 0,7.941 1.254,0 5.953,-5.784 0,5.784 1.178,0 0.275,0 0,-7.941 -1.148,0 L 0,0 z"
         style="fill:#231f20;fill-opacity:1;fill-rule:nonzero;stroke:none"
         id="path32852"
         inkscape:connector-curvature="0" />
    </g>
    <g
       id="g32854"
       transform="matrix(6.0708816,0,0,-6.0708816,1038.5928,169.23214)">
      <path
         d="m 0,0 0,-5.884 -1.471,0 0,7.941 1.256,0 5.953,-5.784 0,5.784 1.178,0 0.275,0 0,-7.941 -1.148,0 L 0,0 z"
         style="fill:#231f20;fill-opacity:1;fill-rule:nonzero;stroke:none"
         id="path32856"
         inkscape:connector-curvature="0" />
    </g>
    <g
       id="g32858"
       transform="matrix(6.0708816,0,0,-6.0708816,828.58886,156.7437)">
      <path
         d="m 0,0 0.271,0 0,-7.941 -1.471,0 L -1.2,0 0,0 z"
         style="fill:#231f20;fill-opacity:1;fill-rule:nonzero;stroke:none"
         id="path32860"
         inkscape:connector-curvature="0" />
    </g>
    <g
       id="g32862"
       transform="matrix(6.0708816,0,0,-6.0708816,957.583,156.7437)">
      <path
         d="m 0,0 0.27,0 0,-1.366 -3.545,0 0,-6.575 -1.528,0 0,6.575 -3.543,0 0,1.366 L 0,0 z"
         style="fill:#231f20;fill-opacity:1;fill-rule:nonzero;stroke:none"
         id="path32864"
         inkscape:connector-curvature="0" />
    </g>
    <g
       id="g32866"
       transform="matrix(6.0708816,0,0,-6.0708816,1014.7586,156.7437)">
      <path
         d="m 0,0 0.274,0 0,-1.366 -6.299,0 0,-1.782 4.873,0 0,-1.365 -4.873,0 0,-2.06 6.299,0 0,-1.368 -7.756,0 0,7.941 L 0,0 z"
         style="fill:#231f20;fill-opacity:1;fill-rule:nonzero;stroke:none"
         id="path32868"
         inkscape:connector-curvature="0" />
    </g>
    <g
       id="g32870"
       transform="matrix(6.0708816,0,0,-6.0708816,1131.8598,196.64639)">
      <path
         d="m 0,0 -4.515,0 0,5.207 0.041,0 4.474,0 C 1.412,5.207 1.916,3.803 1.916,2.605 1.916,1.402 1.412,0 0,0 M 2.412,5.412 C 1.838,6.171 0.986,6.573 -0.041,6.573 l -5.891,0 0,-7.941 5.891,0 c 1.027,0 1.879,0.402 2.453,1.16 0.537,0.707 0.824,1.677 0.824,2.813 0,1.131 -0.287,2.104 -0.824,2.807"
         style="fill:#231f20;fill-opacity:1;fill-rule:nonzero;stroke:none"
         id="path32872"
         inkscape:connector-curvature="0" />
    </g>
    <g
       id="g32874"
       transform="matrix(6.0708816,0,0,-6.0708816,1211.5157,194.66311)">
      <path
         d="m 0,0 c 0,-0.179 -0.148,-0.328 -0.33,-0.328 l -6.293,0 c -0.183,0 -0.33,0.149 -0.33,0.328 l 0,4.552 c 0,0.179 0.147,0.326 0.33,0.326 l 6.293,0 C -0.148,4.878 0,4.731 0,4.552 L 0,0 z m -0.271,6.246 -6.41,0 c -0.928,0 -1.682,-0.76 -1.682,-1.684 l 0,-4.574 c 0,-0.924 0.754,-1.683 1.682,-1.683 l 6.41,0 c 0.926,0 1.681,0.759 1.681,1.683 l 0,4.574 c 0,0.924 -0.755,1.684 -1.681,1.684"
         style="fill:#231f20;fill-opacity:1;fill-rule:nonzero;stroke:none"
         id="path32876"
         inkscape:connector-curvature="0" />
    </g>
    <g
       id="g32878"
       transform="matrix(6.0708816,0,0,-6.0708816,1499.8584,238.72737)">
      <path
         d="m 0,0 c 1.526,-0.6 4.744,-1.089 7.254,-1.089 2.75,0 3.891,0.944 3.891,2.128 0,1.062 -1.059,1.686 -4.096,2.8 -4.058,1.498 -7.035,2.68 -7.035,5.346 0,2.761 3.582,4.384 9.043,4.384 2.934,0 3.941,-0.184 5.805,-0.526 l 0.011,-2.62 c -1.828,0.349 -3.449,0.945 -5.968,0.945 -2.698,0 -3.848,-0.856 -3.848,-1.738 0,-1.283 1.769,-1.897 4.877,-3.001 4.326,-1.55 6.732,-2.745 6.732,-5.355 0,-2.686 -3.013,-4.624 -9.81,-4.624 -2.791,0 -4.715,0.184 -6.856,0.528 L 0,0 z"
         style="fill:#231f20;fill-opacity:1;fill-rule:nonzero;stroke:none"
         id="path32880"
         inkscape:connector-curvature="0" />
    </g>
    <g
       id="g32882"
       transform="matrix(6.0708816,0,0,-6.0708816,1412.037,170.40027)">
      <path
         d="m 0,0 -3.235,0 0,-12.244 3.235,0 c 4.964,0 8.095,2.122 8.095,6.098 C 8.095,-2.175 4.964,0 0,0 M 8.683,-13.384 C 7.082,-14.108 4.056,-14.57 1.408,-14.57 l -10.11,0 0,16.849 10.11,0 c 2.648,0 5.674,-0.466 7.277,-1.189 3.895,-1.757 5.166,-4.571 5.166,-7.236 0,-2.668 -1.262,-5.478 -5.168,-7.238"
         style="fill:#231f20;fill-opacity:1;fill-rule:nonzero;stroke:none"
         id="path32884"
         inkscape:connector-curvature="0" />
    </g>
    <g
       id="g32886"
       transform="matrix(6.0708816,0,0,-6.0708816,1316.1899,202.87701)">
      <path
         d="m 0,0 c 0,0 4.717,0.754 4.717,3.691 0,2.87 -5.023,4.045 -10.365,4.045 -4.824,0 -7.994,-0.59 -7.994,-0.59 l 0,-2.607 c 2.187,0.53 4.283,0.981 7.135,0.981 3.062,0 5.4,-0.915 5.4,-2.207 0,-1.555 -2.309,-2.443 -7.285,-2.443 l -2.287,0 0,-2.347 2.125,0 c 5.24,0 8.218,-0.788 8.218,-2.711 0,-1.718 -2.662,-2.76 -5.98,-2.76 -2.895,0 -5.543,0.615 -7.689,1.211 l 0,-2.811 c 1.029,-0.179 3.767,-0.727 8.865,-0.727 5.646,0 10.558,1.815 10.558,5.015 C 5.418,-1.575 2.016,0 0,0"
         style="fill:#cf181f;fill-opacity:1;fill-rule:nonzero;stroke:none"
         id="path32888"
         inkscape:connector-curvature="0" />
    </g>
    <g
       id="g32890"
       transform="matrix(6.0708816,0,0,-6.0708816,1609.3589,244.91117)">
      <path
         d="m 0,0 -0.531,0 0,0.285 1.41,0 0,-0.285 -0.537,0 0,-1.584 L 0,-1.584 0,0 z"
         style="fill:#231f20;fill-opacity:1;fill-rule:nonzero;stroke:none"
         id="path32892"
         inkscape:connector-curvature="0" />
    </g>
    <g
       id="g32894"
       transform="matrix(6.0708816,0,0,-6.0708816,1625.6045,249.89716)">
      <path
         d="m 0,0 c -0.01,0.242 -0.023,0.531 -0.021,0.784 l -0.008,0 C -0.092,0.556 -0.168,0.305 -0.252,0.07 l -0.273,-0.811 -0.26,0 -0.25,0.8 c -0.072,0.238 -0.139,0.492 -0.189,0.725 l -0.006,0 C -1.238,0.541 -1.25,0.243 -1.263,-0.01 l -0.041,-0.753 -0.319,0 0.125,1.869 0.449,0 0.243,-0.751 c 0.066,-0.218 0.127,-0.441 0.171,-0.65 l 0.01,0 c 0.049,0.205 0.113,0.434 0.184,0.653 l 0.26,0.748 0.441,0 0.111,-1.869 -0.334,0 L 0,0 z"
         style="fill:#231f20;fill-opacity:1;fill-rule:nonzero;stroke:none"
         id="path32896"
         inkscape:connector-curvature="0" />
    </g>
  </g>
</svg>
