<?xml version="1.0" encoding="UTF-8" standalone="no"?>
<!-- Created with Inkscape (http://www.inkscape.org/) -->

<svg
   xmlns:dc="http://purl.org/dc/elements/1.1/"
   xmlns:cc="http://creativecommons.org/ns#"
   xmlns:rdf="http://www.w3.org/1999/02/22-rdf-syntax-ns#"
   xmlns:svg="http://www.w3.org/2000/svg"
   xmlns="http://www.w3.org/2000/svg"
   xmlns:sodipodi="http://sodipodi.sourceforge.net/DTD/sodipodi-0.dtd"
   xmlns:inkscape="http://www.inkscape.org/namespaces/inkscape"
   width="1000"
   height="103.27402"
   id="svg32558"
   version="1.1"
   inkscape:version="0.48.2 r9819"
   sodipodi:docname="A.svg">
  <defs
     id="defs32560">
    <clipPath
       clipPathUnits="userSpaceOnUse"
       id="clipPath32094">
      <path
         inkscape:connector-curvature="0"
         d="m 15,15 612.283,0 0,858.898 L 15,873.898 15,15 z"
         id="path32096" />
    </clipPath>
    <clipPath
       clipPathUnits="userSpaceOnUse"
       id="clipPath32066">
      <path
         inkscape:connector-curvature="0"
         d="m 15,15 612.283,0 0,858.898 L 15,873.898 15,15 z"
         id="path32068" />
    </clipPath>
    <clipPath
       clipPathUnits="userSpaceOnUse"
       id="clipPath32030">
      <path
         inkscape:connector-curvature="0"
         d="m 15,15 612.283,0 0,858.898 L 15,873.898 15,15 z"
         id="path32032" />
    </clipPath>
    <clipPath
       clipPathUnits="userSpaceOnUse"
       id="clipPath32018">
      <path
         inkscape:connector-curvature="0"
         d="m 62.98,818.431 145.885,0 0,17.248 -145.885,0 0,-17.248 z"
         id="path32020" />
    </clipPath>
    <clipPath
       clipPathUnits="userSpaceOnUse"
       id="clipPath32002">
      <path
         inkscape:connector-curvature="0"
         d="m 15,15 612.283,0 0,858.898 L 15,873.898 15,15 z"
         id="path32004" />
    </clipPath>
    <clipPath
       clipPathUnits="userSpaceOnUse"
       id="clipPath32002-8">
      <path
         inkscape:connector-curvature="0"
         d="m 15,15 612.283,0 0,858.898 L 15,873.898 15,15 z"
         id="path32004-8" />
    </clipPath>
  </defs>
  <sodipodi:namedview
     id="base"
     pagecolor="#ffffff"
     bordercolor="#666666"
     borderopacity="1.0"
     inkscape:pageopacity="0.0"
     inkscape:pageshadow="2"
     inkscape:zoom="0.40748409"
     inkscape:cx="553.47017"
     inkscape:cy="-179.59356"
     inkscape:document-units="px"
     inkscape:current-layer="layer1"
     showgrid="false"
     fit-margin-left="0.5"
     fit-margin-bottom="0.5"
     fit-margin-top="0.5"
     fit-margin-right="0.5"
     inkscape:window-width="1057"
     inkscape:window-height="1042"
     inkscape:window-x="859"
     inkscape:window-y="-20"
     inkscape:window-maximized="0" />
  <metadata
     id="metadata32563">
    <rdf:RDF>
      <cc:Work
         rdf:about="">
        <dc:format>image/svg+xml</dc:format>
        <dc:type
           rdf:resource="http://purl.org/dc/dcmitype/StillImage" />
        <dc:title></dc:title>
      </cc:Work>
    </rdf:RDF>
  </metadata>
  <g
     inkscape:label="Layer 1"
     inkscape:groupmode="layer"
     id="layer1"
     transform="translate(-518.94484,-321.97256)">
    <g
       id="g31986"
       transform="matrix(5.8272475,0,0,-5.8272475,970.17075,376.7819)">
      <path
         d="m 0,0 -6.617,0 c -0.957,0 -1.732,-0.783 -1.732,-1.738 l 0,-4.717 c 0,-0.953 0.775,-1.735 1.732,-1.735 l 6.617,0 c 0.957,0 1.732,0.782 1.732,1.735 l 0,4.717 C 1.732,-0.783 0.957,0 0,0 m 0.278,-6.442 c 0,-0.188 -0.152,-0.341 -0.34,-0.341 l -6.492,0 c -0.19,0 -0.34,0.153 -0.34,0.341 l 0,4.695 c 0,0.187 0.15,0.337 0.34,0.337 l 6.492,0 c 0.188,0 0.34,-0.15 0.34,-0.337 l 0,-4.695 z"
         style="fill:#9c9d9d;fill-opacity:1;fill-rule:nonzero;stroke:none"
         id="path31988"
         inkscape:connector-curvature="0" />
    </g>
    <g
       id="g31990"
       transform="matrix(5.8272475,0,0,-5.8272475,1075.4289,368.96817)">
      <path
         d="m 0,0 c 0,0 4.869,0.778 4.869,3.806 0,2.963 -5.183,4.173 -10.694,4.173 -4.974,0 -8.246,-0.609 -8.246,-0.609 l 0,-2.689 c 2.256,0.547 4.42,1.013 7.366,1.013 3.157,0 5.566,-0.945 5.566,-2.276 0,-1.604 -2.383,-2.522 -7.514,-2.522 l -2.358,0 0,-2.42 2.189,0 c 5.404,0 8.477,-0.815 8.477,-2.8 0,-1.77 -2.744,-2.847 -6.165,-2.847 -2.988,0 -5.719,0.636 -7.939,1.25 l 0,-2.9 c 1.067,-0.183 3.89,-0.751 9.152,-0.751 5.821,0 10.889,1.874 10.889,5.176 C 5.592,-1.627 2.079,0 0,0"
         style="fill:#c9070a;fill-opacity:1;fill-rule:nonzero;stroke:none"
         id="path31992"
         inkscape:connector-curvature="0" />
    </g>
    <g
       id="g31994"
       transform="matrix(5.8272475,0,0,-5.8272475,1365.7925,413.04081)">
      <path
         inkscape:connector-curvature="0"
         d="m 0,0 -0.554,0 0,0.295 1.458,0 0,-0.295 -0.554,0 0,-1.635 -0.35,0 L 0,0 z"
         style="fill:#000000;fill-opacity:1;fill-rule:nonzero;stroke:none"
         id="path31996" />
    </g>
    <g
       transform="matrix(5.8272475,0,0,-5.8272475,-1857.2977,5193.4201)"
       id="g31998">
      <g
         id="g32000"
         clip-path="url(#clipPath32002-8)">
        <g
           id="g32006"
           transform="translate(555.8656,819.5024)">
          <path
             inkscape:connector-curvature="0"
             d="m 0,0 c -0.011,0.249 -0.025,0.548 -0.023,0.809 l -0.009,0 C -0.095,0.574 -0.176,0.316 -0.261,0.071 l -0.282,-0.835 -0.268,0 -0.255,0.823 c -0.078,0.248 -0.146,0.509 -0.199,0.75 l -0.003,0 C -1.28,0.558 -1.289,0.251 -1.305,-0.013 l -0.041,-0.772 -0.331,0 0.132,1.927 0.462,0 0.249,-0.776 c 0.068,-0.224 0.129,-0.454 0.179,-0.67 l 0.008,0 c 0.054,0.211 0.119,0.446 0.191,0.675 l 0.269,0.771 0.457,0 0.112,-1.927 -0.346,0 L 0,0 z"
             style="fill:#000000;fill-opacity:1;fill-rule:nonzero;stroke:none"
             id="path32008" />
        </g>
        <g
           id="g32010"
           transform="translate(444.3371,827.5601)">
          <path
             inkscape:connector-curvature="0"
             d="m 0,0 7.999,0 0,1.412 -6.499,0 0,2.124 5.027,0 0,1.407 -5.027,0 0,1.838 6.499,0 0,1.409 L 0,8.19 0,0 z m 17.687,2.226 -6.143,5.964 -1.292,0 0,-8.191 1.516,0 0,6.069 6.234,-6.069 1.185,0 0,8.191 -1.5,0 0,-5.964 z M -25.158,0 l 1.516,0 0,8.19 -1.516,0 0,-8.19 z m -3.872,2.226 -6.141,5.964 -1.299,0 0,-8.191 1.519,0 0,6.069 6.233,-6.069 1.184,0 0,8.191 -1.496,0 0,-5.964 z m 15.203,0 -6.142,5.964 -1.293,0 0,-8.191 1.516,0 0,6.069 6.235,-6.069 1.183,0 0,8.191 -1.499,0 0,-5.964 z m 3.217,4.555 3.658,0 0,-6.781 1.574,0 0,6.781 3.655,0 0,1.409 -8.887,0 0,-1.409 z m 51.488,1.409 -6.617,0 c -0.957,0 -1.732,-0.782 -1.732,-1.737 l 0,-4.718 c 0,-0.953 0.775,-1.736 1.732,-1.736 l 6.617,0 c 0.957,0 1.732,0.783 1.732,1.736 l 0,4.718 c 0,0.955 -0.775,1.737 -1.732,1.737 m 0.278,-6.442 c 0,-0.186 -0.152,-0.338 -0.34,-0.338 l -6.492,0 c -0.19,0 -0.34,0.152 -0.34,0.338 l 0,4.696 c 0,0.185 0.15,0.336 0.34,0.336 l 6.492,0 c 0.188,0 0.34,-0.151 0.34,-0.336 l 0,-4.696 z m -13.581,6.442 -6.076,0 0,-8.191 6.076,0 c 1.061,0 1.941,0.415 2.534,1.198 0.555,0.727 0.848,1.728 0.848,2.9 0,1.168 -0.293,2.172 -0.848,2.898 -0.593,0.782 -1.473,1.195 -2.534,1.195 m 0.042,-6.779 -4.655,0 0,5.37 4.655,0 c 1.458,0 1.978,-1.445 1.978,-2.684 0,-1.238 -0.52,-2.686 -1.978,-2.686 m 98.639,1.294 -2.247,0 -2.676,-4.107 -2.674,4.107 -2.222,0 3.787,-5.813 -3.967,-6.088 2.251,0 2.841,4.362 2.836,-4.362 2.226,0 -3.954,6.068 3.799,5.833 z m 4.563,-10.094 c 0,0 -1.254,0.043 -1.254,1.415 l 0,8.679 -1.941,0 0,-8.848 c 0,0 -0.015,-3.053 3.045,-3.053 l 4.297,0 0,1.807 -4.147,0 z m -30.414,8.487 c -3.205,1.14 -5.031,1.772 -5.031,3.096 0,0.91 1.187,1.794 3.969,1.794 2.6,0 4.273,-0.615 6.161,-0.976 l -0.015,2.703 c -1.923,0.353 -2.96,0.543 -5.986,0.543 -5.639,0 -9.331,-1.675 -9.331,-4.523 0,-2.751 3.073,-3.97 7.257,-5.516 3.134,-1.149 4.227,-1.793 4.227,-2.889 0,-1.221 -1.178,-2.196 -4.012,-2.196 -2.592,0 -5.913,0.505 -7.488,1.125 l 0,-2.913 c 2.21,-0.354 4.195,-0.544 7.076,-0.544 7.013,0 10.121,2.001 10.121,4.771 0,2.693 -2.486,3.924 -6.948,5.525 M 84.193,6.995 c -1.653,0.746 -4.777,1.226 -7.51,1.226 l -10.428,0 0,-17.382 10.428,0 c 2.733,0 5.857,0.475 7.509,1.222 4.026,1.817 5.329,4.715 5.329,7.468 0,2.75 -1.31,5.653 -5.328,7.466 m -8.962,-13.755 -3.338,0 0,12.632 3.338,0 c 5.123,0 8.354,-2.245 8.354,-6.343 0,-4.102 -3.231,-6.289 -8.354,-6.289"
             style="fill:#000000;fill-opacity:1;fill-rule:nonzero;stroke:none"
             id="path32012" />
        </g>
      </g>
    </g>
  </g>
</svg>
