<?xml version="1.0" encoding="UTF-8" standalone="no"?>
<!-- Created with Inkscape (http://www.inkscape.org/) -->

<svg
   xmlns:dc="http://purl.org/dc/elements/1.1/"
   xmlns:cc="http://creativecommons.org/ns#"
   xmlns:rdf="http://www.w3.org/1999/02/22-rdf-syntax-ns#"
   xmlns:svg="http://www.w3.org/2000/svg"
   xmlns="http://www.w3.org/2000/svg"
   xmlns:sodipodi="http://sodipodi.sourceforge.net/DTD/sodipodi-0.dtd"
   xmlns:inkscape="http://www.inkscape.org/namespaces/inkscape"
   width="1000"
   height="119.40914"
   id="svg32558"
   version="1.1"
   inkscape:version="0.48.2 r9819"
   sodipodi:docname="New document 23">
  <defs
     id="defs32560">
    <clipPath
       clipPathUnits="userSpaceOnUse"
       id="clipPath32094">
      <path
         inkscape:connector-curvature="0"
         d="m 15,15 612.283,0 0,858.898 L 15,873.898 15,15 z"
         id="path32096" />
    </clipPath>
    <clipPath
       clipPathUnits="userSpaceOnUse"
       id="clipPath32066">
      <path
         inkscape:connector-curvature="0"
         d="m 15,15 612.283,0 0,858.898 L 15,873.898 15,15 z"
         id="path32068" />
    </clipPath>
    <clipPath
       clipPathUnits="userSpaceOnUse"
       id="clipPath32030">
      <path
         inkscape:connector-curvature="0"
         d="m 15,15 612.283,0 0,858.898 L 15,873.898 15,15 z"
         id="path32032" />
    </clipPath>
    <clipPath
       clipPathUnits="userSpaceOnUse"
       id="clipPath32018">
      <path
         inkscape:connector-curvature="0"
         d="m 62.98,818.431 145.885,0 0,17.248 -145.885,0 0,-17.248 z"
         id="path32020" />
    </clipPath>
  </defs>
  <sodipodi:namedview
     id="base"
     pagecolor="#ffffff"
     bordercolor="#666666"
     borderopacity="1.0"
     inkscape:pageopacity="0.0"
     inkscape:pageshadow="2"
     inkscape:zoom="0.40748409"
     inkscape:cx="391.83287"
     inkscape:cy="-333.39978"
     inkscape:document-units="px"
     inkscape:current-layer="layer1"
     showgrid="false"
     fit-margin-left="0.5"
     fit-margin-bottom="0.5"
     fit-margin-top="0.5"
     fit-margin-right="0.5"
     inkscape:window-width="1057"
     inkscape:window-height="1042"
     inkscape:window-x="859"
     inkscape:window-y="-20"
     inkscape:window-maximized="0" />
  <metadata
     id="metadata32563">
    <rdf:RDF>
      <cc:Work
         rdf:about="">
        <dc:format>image/svg+xml</dc:format>
        <dc:type
           rdf:resource="http://purl.org/dc/dcmitype/StillImage" />
        <dc:title></dc:title>
      </cc:Work>
    </rdf:RDF>
  </metadata>
  <g
     inkscape:label="Layer 1"
     inkscape:groupmode="layer"
     id="layer1"
     transform="translate(-162.77051,-380.26099)">
    <g
       transform="matrix(6.8649746,0,0,-6.8649746,-270.33847,6117.6761)"
       id="g32014">
      <g
         id="g32016"
         clip-path="url(#clipPath32018)">
        <g
           id="g32022"
           transform="translate(143.0724,818.4693)">
          <path
             inkscape:connector-curvature="0"
             d="m 0,0 0,2.521 c 0,0 0.135,2.981 5.747,5.825 3.368,1.706 6.923,2.929 6.923,4.476 0,1.313 -1.641,2.094 -4.919,2.094 -2.547,0 -5.248,-0.837 -7.261,-1.762 l 0,2.779 c 2.497,0.779 4.508,1.278 8.36,1.278 2.931,0 5.252,-0.485 7.042,-1.266 1.848,-0.806 2.596,-1.998 2.646,-2.986 C 18.694,9.867 13.879,8.434 10.807,6.86 7.84,5.34 6.262,4.05 5.964,2.521 l 12.328,0 L 18.292,0 0,0 z"
             style="fill:#c9070a;fill-opacity:1;fill-rule:nonzero;stroke:none"
             id="path32024" />
        </g>
      </g>
    </g>
    <g
       transform="matrix(6.8649746,0,0,-6.8649746,-270.33847,6117.6761)"
       id="g32026">
      <g
         id="g32028"
         clip-path="url(#clipPath32030)">
        <g
           id="g32034"
           transform="translate(139.502,826.5349)">
          <path
             inkscape:connector-curvature="0"
             d="M 0,0 -6.525,0 C -7.472,0 -8.24,-0.772 -8.24,-1.717 l 0,-4.654 c 0,-0.941 0.768,-1.714 1.715,-1.714 l 6.525,0 c 0.943,0 1.716,0.773 1.716,1.714 l 0,4.654 C 1.716,-0.772 0.943,0 0,0 m 0.273,-6.359 c 0,-0.183 -0.146,-0.334 -0.333,-0.334 l -6.409,0 c -0.186,0 -0.333,0.151 -0.333,0.334 l 0,4.635 c 0,0.184 0.147,0.334 0.333,0.334 l 6.409,0 c 0.187,0 0.333,-0.15 0.333,-0.334 l 0,-4.635 z"
             style="fill:#9c9d9d;fill-opacity:1;fill-rule:nonzero;stroke:none"
             id="path32036" />
        </g>
      </g>
    </g>
    <g
       id="g32038"
       transform="matrix(6.8649746,0,0,-6.8649746,173.57484,395.71834)">
      <path
         inkscape:connector-curvature="0"
         d="m 0,0 0,-5.992 -1.501,0 0,8.086 1.283,0 6.062,-5.889 0,5.889 1.198,0 0.279,0 0,-8.086 -1.169,0 L 0,0 z"
         style="fill:#000000;fill-opacity:1;fill-rule:nonzero;stroke:none"
         id="path32040" />
    </g>
    <g
       id="g32042"
       transform="matrix(6.8649746,0,0,-6.8649746,276.60437,395.71834)">
      <path
         inkscape:connector-curvature="0"
         d="m 0,0 0,-5.992 -1.5,0 0,8.086 1.278,0 6.065,-5.889 0,5.889 1.199,0 0.28,0 0,-8.086 -1.171,0 L 0,0 z"
         style="fill:#000000;fill-opacity:1;fill-rule:nonzero;stroke:none"
         id="path32044" />
    </g>
    <g
       id="g32046"
       transform="matrix(6.8649746,0,0,-6.8649746,490.1058,395.71834)">
      <path
         inkscape:connector-curvature="0"
         d="m 0,0 0,-5.992 -1.496,0 0,8.086 1.28,0 6.061,-5.889 0,5.889 1.196,0 0.283,0 0,-8.086 -1.168,0 L 0,0 z"
         style="fill:#000000;fill-opacity:1;fill-rule:nonzero;stroke:none"
         id="path32048" />
    </g>
    <g
       id="g32050"
       transform="matrix(6.8649746,0,0,-6.8649746,248.3131,381.34583)">
      <path
         inkscape:connector-curvature="0"
         d="m 0,0 0.273,0 0,-8.085 -1.497,0 0,8.085 L 0,0 z"
         style="fill:#000000;fill-opacity:1;fill-rule:nonzero;stroke:none"
         id="path32052" />
    </g>
    <g
       id="g32054"
       transform="matrix(6.8649746,0,0,-6.8649746,396.82656,381.34583)">
      <path
         inkscape:connector-curvature="0"
         d="m 0,0 0.276,0 0,-1.39 -3.61,0 0,-6.695 -1.558,0 0,6.695 -3.602,0 0,1.39 L 0,0 z"
         style="fill:#000000;fill-opacity:1;fill-rule:nonzero;stroke:none"
         id="path32056" />
    </g>
    <g
       id="g32058"
       transform="matrix(6.8649746,0,0,-6.8649746,462.65617,381.34583)">
      <path
         inkscape:connector-curvature="0"
         d="m 0,0 0.28,0 0,-1.39 -6.413,0 0,-1.813 4.964,0 0,-1.391 -4.964,0 0,-2.095 6.413,0 0,-1.396 -7.899,0 0,8.085 L 0,0 z"
         style="fill:#000000;fill-opacity:1;fill-rule:nonzero;stroke:none"
         id="path32060" />
    </g>
    <g
       transform="matrix(6.8649746,0,0,-6.8649746,-270.33847,6117.6761)"
       id="g32062">
      <g
         id="g32064"
         clip-path="url(#clipPath32066)">
        <g
           id="g32070"
           transform="translate(128.8716,834.4121)">
          <path
             inkscape:connector-curvature="0"
             d="m 0,0 c -0.582,0.773 -1.447,1.182 -2.498,1.182 l -5.996,0 0,-8.085 5.996,0 c 1.051,0 1.916,0.41 2.498,1.182 0.551,0.718 0.841,1.705 0.841,2.865 C 0.841,-1.704 0.551,-0.717 0,0 m -2.455,-5.507 -4.595,0 0,5.298 0.043,0 4.552,0 c 1.437,0 1.953,-1.428 1.953,-2.647 0,-1.226 -0.516,-2.651 -1.953,-2.651"
             style="fill:#000000;fill-opacity:1;fill-rule:nonzero;stroke:none"
             id="path32072" />
        </g>
        <g
           id="g32074"
           transform="translate(139.502,835.5939)">
          <path
             inkscape:connector-curvature="0"
             d="M 0,0 -6.525,0 C -7.472,0 -8.24,-0.775 -8.24,-1.714 l 0,-4.657 c 0,-0.941 0.768,-1.714 1.715,-1.714 l 6.525,0 c 0.943,0 1.716,0.773 1.716,1.714 l 0,4.657 C 1.716,-0.775 0.943,0 0,0 m 0.273,-6.36 c 0,-0.18 -0.146,-0.332 -0.333,-0.332 l -6.409,0 c -0.186,0 -0.333,0.152 -0.333,0.332 l 0,4.635 c 0,0.183 0.147,0.332 0.333,0.332 l 6.409,0 c 0.187,0 0.333,-0.149 0.333,-0.332 l 0,-4.635 z"
             style="fill:#000000;fill-opacity:1;fill-rule:nonzero;stroke:none"
             id="path32076" />
        </g>
        <g
           id="g32078"
           transform="translate(187.2188,821.8427)">
          <path
             inkscape:connector-curvature="0"
             d="m 0,0 c 1.55,-0.609 4.83,-1.109 7.386,-1.109 2.8,0 3.957,0.96 3.957,2.168 0,1.081 -1.075,1.715 -4.168,2.85 -4.131,1.526 -7.163,2.73 -7.163,5.443 0,2.813 3.649,4.467 9.208,4.467 2.987,0 4.015,-0.188 5.91,-0.538 l 0.014,-2.667 c -1.862,0.354 -3.516,0.965 -6.078,0.965 -2.748,0 -3.918,-0.874 -3.918,-1.775 0,-1.307 1.799,-1.928 4.963,-3.054 4.407,-1.577 6.856,-2.796 6.856,-5.452 0,-2.735 -3.067,-4.71 -9.986,-4.71 -2.846,0 -4.804,0.187 -6.981,0.536 L 0,0 z"
             style="fill:#000000;fill-opacity:1;fill-rule:nonzero;stroke:none"
             id="path32080" />
        </g>
        <g
           id="g32082"
           transform="translate(181.3256,819.6775)">
          <path
             inkscape:connector-curvature="0"
             d="m 0,0 c -1.63,-0.741 -4.71,-1.208 -7.407,-1.208 l -10.293,0 0,17.155 10.293,0 c 2.697,0 5.777,-0.473 7.409,-1.211 C 3.967,12.946 5.263,10.082 5.263,7.37 5.263,4.65 3.98,1.79 0,0 m -8.838,13.627 -3.293,0 0,-12.47 3.293,0 c 5.055,0 8.242,2.16 8.242,6.213 0,4.041 -3.187,6.257 -8.242,6.257"
             style="fill:#000000;fill-opacity:1;fill-rule:nonzero;stroke:none"
             id="path32084" />
        </g>
      </g>
    </g>
    <g
       id="g32086"
       transform="matrix(6.8649746,0,0,-6.8649746,1140.9733,482.86919)">
      <path
         inkscape:connector-curvature="0"
         d="m 0,0 -0.54,0 0,0.291 1.441,0 0,-0.291 -0.551,0 0,-1.611 -0.35,0 L 0,0 z"
         style="fill:#000000;fill-opacity:1;fill-rule:nonzero;stroke:none"
         id="path32088" />
    </g>
    <g
       transform="matrix(6.8649746,0,0,-6.8649746,-270.33847,6117.6761)"
       id="g32090">
      <g
         id="g32092"
         clip-path="url(#clipPath32094)">
        <g
           id="g32098"
           transform="translate(208.3078,819.9716)">
          <path
             inkscape:connector-curvature="0"
             d="m 0,0 c -0.01,0.246 -0.023,0.541 -0.022,0.798 l -0.007,0 C -0.094,0.564 -0.172,0.309 -0.257,0.068 l -0.281,-0.825 -0.263,0 -0.256,0.812 c -0.069,0.246 -0.138,0.504 -0.187,0.743 l -0.009,0 C -1.264,0.546 -1.274,0.247 -1.287,-0.012 l -0.042,-0.766 -0.324,0 0.127,1.903 0.457,0 0.251,-0.768 c 0.065,-0.219 0.122,-0.449 0.174,-0.659 l 0.007,0 c 0.05,0.204 0.118,0.443 0.19,0.664 l 0.265,0.763 0.449,0 0.109,-1.903 -0.336,0 L 0,0 z"
             style="fill:#000000;fill-opacity:1;fill-rule:nonzero;stroke:none"
             id="path32100" />
        </g>
      </g>
    </g>
  </g>
</svg>
