<?xml version="1.0" encoding="utf-8"?>
<!-- Generator: Adobe Illustrator 28.3.0, SVG Export Plug-In . SVG Version: 6.00 Build 0)  -->
<svg version="1.1" id="레이어_1" xmlns="http://www.w3.org/2000/svg" xmlns:xlink="http://www.w3.org/1999/xlink" x="0px"
	 y="0px" viewBox="0 0 469.2 125.7" style="enable-background:new 0 0 469.2 125.7;" xml:space="preserve">
<style type="text/css">
	.st0{fill:#FFFFFF;}
	.st1{fill:#FC3E04;}
</style>
<path class="st0" d="M335.8,86.1c-5-1-8.7-3-11.9-6.3c-4.4-4.4-6.6-10-6.6-16.8c0-4.6,0.7-7.6,2.6-11.3c2.2-4.2,5.6-7.5,10.3-9.9
	c6.8-3.4,15.1-3.4,22.2,0c2.6,1.2,4.4,2.5,6.7,4.6l1.8,1.7l-1.3,1.4c-0.7,0.8-2.1,2-3,2.9l-1.6,1.5l-1.2-1.1
	c-3.6-3.3-8.2-5.3-12.6-5.3c-7.4,0-13.6,5.1-15.2,12.2c-0.8,3.9,0.1,8.8,2.2,12c4.7,7.1,15.1,8.9,22.5,3.8c0.6-0.4,1.9-1.4,2.7-2.1
	l1.5-1.3l0.9,0.8c0.5,0.5,1.8,1.8,2.8,3l2,2.2l-1.3,1.3c-3.4,3.2-7.4,5.5-11.1,6.5C345.7,86.4,338.5,86.6,335.8,86.1z M365.7,68.8
	V52.1h7.1l0.1,2.1l0.1,2.1l0.7-1.1c1.7-2.9,5.4-4.5,8.4-3.7c1.7,0.5,1.7,0.3,0.3,4.1c-1.2,3.2-1.3,3.5-1.8,3.3
	c-0.6-0.1-1.2-0.2-1.8-0.3c-1.3-0.1-1.3-0.1-2.4,1c-2,2.1-2.3,4-2.3,16.3l0,9.4h-8.3L365.7,68.8L365.7,68.8z M386.9,68.8V52.1h8.3
	v33.4h-8.3V68.8z M389.1,48.8c-2.8-1.2-4.2-4.8-2.8-7.4c0.8-1.6,3-2.9,4.8-2.9c3.1,0,5.7,3.2,5.2,6.2c-0.2,1.3-0.6,2-1.6,3
	C393.1,49.1,390.9,49.5,389.1,48.8L389.1,48.8z M403.7,72.4v-13h-4.1v-7.3h4.1V39.9h8.3v12.2h5.1l-0.1,3.6l-0.1,3.6l-2.5,0.1
	l-2.5,0.1v26.1h-8.3L403.7,72.4z M420.8,68.8V52.1h8.3v33.4h-8.3V68.8z M423,48.8c-3.6-1.5-4.4-6.2-1.6-8.8c2.3-2.1,5.1-2,7.3,0.2
	c1.3,1.3,1.8,2.7,1.6,4.4C429.7,47.9,426,50.1,423,48.8L423,48.8z M449.2,85.9c-8.2-1.5-14.1-8.6-14.1-16.8c0-3,0.5-5.2,1.8-7.8
	c3-6.2,9.4-9.9,17-9.9c3.9,0,7.5,1,10.6,2.9c1.7,1.1,5,4.3,4.6,4.6c-0.2,0.2-6.4,3.7-6.6,3.7c0,0-0.7-0.5-1.4-1
	c-0.8-0.6-1.7-1.2-2.6-1.6c-1.2-0.5-1.9-0.8-4.7-0.8c-4.1,0-5.2,0.7-7.5,3c-2.2,2.2-2.7,3.6-2.8,7c0,2.4,0,2.5,0.9,4.3
	c1.7,3.5,4.8,5.3,9.2,5.3c3.2,0,5.7-0.9,7.8-2.9l1-0.9l3.2,2.2c1.7,1.2,3.2,2.2,3.2,2.3c0,0.1-0.3,0.6-0.7,1.1
	c-1.7,2.1-5.5,4.3-8.6,5.2C457.3,86.2,451.7,86.3,449.2,85.9L449.2,85.9z M162.9,86c-8.2-1.9-14.8-8.3-17.3-16.8
	c-0.5-1.7-0.5-2.5-0.5-6.3c0-3.9,0.1-4.6,0.6-6.3c3.1-10.5,12-17.2,22.7-17.2c6.5,0,11.5,2.1,16.1,6.6c4.3,4.2,6.5,8.7,7.1,14.6
	c1,10.2-4.3,19.6-13.5,23.9c-3.2,1.5-4.6,1.8-9.2,1.9C165.6,86.4,164.5,86.4,162.9,86z M171.4,78.1c3.6-0.8,6.9-3,9.1-6.4
	c1.7-2.5,2.3-4.4,2.4-8c0.1-3.4-0.2-5.1-1.6-7.9c-1.8-3.6-6-7-9.8-7.8c-1.9-0.4-5.5-0.3-7.2,0.1c-6.5,1.7-10.9,7.7-10.9,15
	c0,4.5,1.3,7.9,4.3,10.9C161.5,77.6,166.5,79.1,171.4,78.1L171.4,78.1z M199.1,74.9V52.1l4.1,0.1l4.1,0.1l0.1,1.8l0.1,1.8l1.1-1
	c1.5-1.3,4.7-2.8,6.7-3.2c2.1-0.4,5.1-0.2,7.3,0.5c3.5,1.1,7.2,4.4,9,8c2.3,4.6,2.6,10.9,0.7,15.8c-1.1,2.9-3.6,6-6.5,7.9
	c-2.4,1.6-4.3,2.2-7.3,2.4c-3.9,0.2-6.7-0.7-9.7-3l-1.4-1.1l-0.1,7.8l-0.1,7.9h-8.2L199.1,74.9z M219.9,77.8c1.8-0.9,3.9-3.1,4.6-5
	c0.7-1.8,0.9-4.9,0.5-6.7c-1-4.2-4-6.9-8.1-7.2c-4.7-0.4-8.6,2.5-9.7,7.2c-0.4,1.6-0.2,4.8,0.3,6.4c0.9,2.6,3.3,4.9,5.8,5.7
	C215.1,78.9,218.2,78.7,219.9,77.8z M253.2,85.9c-1.8-0.3-3.8-0.8-5.7-1.8c-2-1-5-3.9-6.2-5.9c-3.1-5.2-3.1-12.6-0.2-18.1
	c1-1.9,4.1-5.2,6-6.3c1.1-0.6,2.3-1.2,3.5-1.6c1.8-0.6,2.3-0.7,5.5-0.7c2.7,0,3.9,0.1,5.1,0.4c7.5,2.1,12.3,8.4,12.5,16.6l0.1,2.5
	L260.4,71L247,71.1l0.2,1c0.6,2.5,2.5,4.9,4.9,6c1.2,0.6,1.9,0.7,3.9,0.8c3,0.1,5.1-0.4,7.2-2l1.5-1.1l3.5,1.6l3.5,1.6l-1.1,1.2
	c-2.4,2.7-5.2,4.5-8.4,5.4C260.5,86.1,254.9,86.2,253.2,85.9L253.2,85.9z M265.5,64.4c0-1.4-2.3-4-4.6-5.1c-1.5-0.7-1.8-0.8-4.1-0.8
	c-3.1,0-4.7,0.6-6.6,2.2c-1.1,1-2.7,3.2-2.7,3.8c0,0.1,4.1,0.2,9,0.2C264.4,64.8,265.5,64.7,265.5,64.4z M280.8,68.8V52.1h8.3v3.4
	l1.5-1.1c3.9-2.7,7.2-3.6,11-2.8c3,0.6,6,2.7,7.3,5.3c1.3,2.4,1.4,3.4,1.4,16.6l0,12h-8.3L302,74.6c-0.1-9.9-0.1-11-0.5-12.1
	c-1.9-5-8.8-4.6-11.2,0.7c-0.9,2.1-1.1,3.9-1.1,13.4l0,9h-8.3L280.8,68.8L280.8,68.8z"/>
<path class="st1" d="M58.3,125.6c-9.9-0.9-18.4-3.5-26.3-7.9c-16.2-9.2-27.5-24.9-31-42.9c-0.9-4.5-1-6.2-1-11.8
	c0-6,0.2-7.9,1.2-12.8C5,31.4,17.5,15.3,34.6,6.7c6.6-3.3,13.2-5.3,20.9-6.3C58.6,0,66.2-0.1,69.2,0.3c10.7,1.2,20,4.6,28.5,10.3
	c2,1.3,5.6,4.1,6.1,4.7c0.3,0.4,0.3,0.4-5.7,6.4c-3.3,3.3-6.1,6-6.2,6c-0.1,0-1-0.7-2-1.4c-6.5-4.9-14.3-7.9-22.6-8.8
	c-3.2-0.3-9.1-0.1-12.3,0.4c-11.4,2-21.7,8.3-28.6,17.4C21.6,41.8,18.6,49,17.5,57c-0.4,2.7-0.4,8.3-0.1,10.9
	c1.9,15.7,11.3,28.9,25.2,35.8c6.7,3.3,12.8,4.7,20.3,4.6c10.1,0,19.1-3.1,27.3-9.2c0.8-0.6,1.6-1.2,1.7-1.2c0.1,0,2.9,2.7,6.2,6
	l6.1,6.1l-0.9,0.8c-1.4,1.3-4.8,3.8-7.2,5.3c-7.7,4.8-16.1,7.8-25.5,9.1C68.6,125.5,60.2,125.7,58.3,125.6L58.3,125.6z"/>
<path class="st1" d="M60.1,103.2c-3.9-0.3-7.8-1.1-11.3-2.4l-0.9-0.4V83.5l7.5-7.5l7.5-7.5l7.5,7.6l7.5,7.6v16.7l-0.9,0.4
	C71.8,102.6,65.4,103.6,60.1,103.2L60.1,103.2z M25.1,77.4c-1.1-3.1-1.9-6.3-2.4-9.5c-0.3-2.2-0.3-7.9,0-10c0.5-3.4,1.2-6.3,2.2-9.1
	l0.4-0.9l8.4,0h8.4l7.5,7.5l7.5,7.5l-7.5,7.5l-7.5,7.5H25.2L25.1,77.4L25.1,77.4z M55.3,49.6l-7.5-7.5V25.3l1.3-0.5
	c4.1-1.5,8.8-2.3,13.6-2.3c4.7,0,8.2,0.5,12.6,2l2.5,0.8v16.9l-7.5,7.5c-4.1,4.1-7.5,7.4-7.5,7.4C62.8,57,59.4,53.7,55.3,49.6z
	 M76,70.3l-7.5-7.5l7.5-7.5l7.5-7.5h16.8l0.7,2.2c1.5,4.4,2,7.9,2,12.7c0,4.9-0.5,8.1-1.9,12.6l-0.8,2.5H83.5L76,70.3z"/>
<path class="st1" d="M103.8,98.2l-6-6l1.3-1.7c5.1-6.7,8.2-14.7,9.1-23.1c0.3-2.7,0.1-8.7-0.3-11.2c-1.2-7.7-4.5-15.4-9.2-21.3
	c-0.5-0.6-0.8-1.1-0.8-1.2c0-0.1,2.7-2.8,6.1-6.2l6.1-6l0.7,0.8c3,3.4,6.7,9.1,8.9,13.7c8.3,17.6,8.1,37.9-0.6,55.2
	c-1.2,2.4-2.5,4.5-4.3,7.2c-2,3-4.4,6-4.7,6C109.9,104.2,107.2,101.5,103.8,98.2L103.8,98.2z"/>
</svg>
