<?xml version="1.0" encoding="utf-8"?>
<!-- Generator: Adobe Illustrator 28.2.0, SVG Export Plug-In . SVG Version: 6.00 Build 0)  -->
<svg version="1.1" id="Layer_1" xmlns="http://www.w3.org/2000/svg" xmlns:xlink="http://www.w3.org/1999/xlink" x="0px" y="0px"
	 viewBox="0 0 5500.7 790.9" style="enable-background:new 0 0 5500.7 790.9;" xml:space="preserve">
<style type="text/css">
	.st0{fill:#FFFFFF;}
</style>
<g>
	<g id="Layer_1-2">
		<g id="Artwork_43">
			<polygon class="st0" points="919.9,0 1038.7,169.7 801.1,169.7 			"/>
			<polygon class="st0" points="2994,176.5 2898.9,403.9 2800.5,176.5 2695.2,176.5 2596.8,400.6 2505.1,176.5 2345.6,176.5 
				2542.5,621.2 2640.9,621.2 2742.8,397.2 2841.2,621.2 2946.4,621.2 3139.9,176.5 			"/>
			<polygon class="st0" points="5203.8,176.5 5203.8,332.7 4928.8,332.7 4928.8,176.5 4779.5,176.5 4779.5,621.2 4928.8,621.2 
				4928.8,448.1 5203.8,448.1 5203.8,621.2 5353.1,621.2 5353.1,176.5 			"/>
			<polygon class="st0" points="3319.8,176.5 3024.5,621.2 3187.4,621.2 3374.1,336.1 3557.4,621.2 3727.2,621.2 3435.2,176.5 			
				"/>
			<polygon class="st0" points="1252.6,176.5 1082.8,176.5 913.1,448.1 746.8,176.5 577.1,176.5 855.4,621.2 960.6,621.2 			"/>
			<polygon class="st0" points="3608.4,176.5 3608.4,291.9 3801.9,291.9 3801.9,621.2 3954.6,621.2 3954.6,291.9 4107.4,291.9 
				4185.4,176.5 			"/>
			<path class="st0" d="M512.6,183.3c-17-3.4-33.9-6.8-54.3-6.8H125.6C47.5,176.5,0,213.9,0,278.3v244.4c0,33.9,20.4,67.9,50.9,81.5
				l6.8,3.4l95-91.7v-224h285.1v210.5H227.4L108.6,617.8h353c74.7,0,125.6-40.7,125.6-101.8V285.1l-67.9-105.2L512.6,183.3z"/>
			<path class="st0" d="M4589.4,176.5h-302.1c-6.8,0-17,0-23.8,0h-3.4l-13.6,20.4l0,0L4165,322.5v196.9
				c0,61.1,50.9,101.8,125.6,101.8h302.1c71.3,0,125.6-44.1,125.6-101.8v-74.7h-152.8v61.1H4311V295.3h251.2v50.9H4715v-67.9
				C4715,217.2,4664.1,176.5,4589.4,176.5"/>
			<polygon class="st0" points="1242.4,288.5 1242.4,621.2 1714.2,621.2 1714.2,505.8 1395.1,505.8 1395.1,448.1 1612.4,448.1 
				1612.4,346.2 1395.1,346.2 1395.1,291.9 1714.2,291.9 1714.2,176.5 1320.5,176.5 			"/>
			<path class="st0" d="M2206.4,454.9c54.3-3.4,112-27.2,112-81.5V268.2c0-57.7-44.1-91.7-115.4-91.7h-420.9v444.7h152.8V291.9
				h237.6v71.3l0,0c-3.4,0-6.8,3.4-6.8,3.4h-162.9v88.3l186.7,166.3h207.1L2206.4,454.9z"/>
			<polygon class="st0" points="3374.1,790.9 3255.3,621.2 3493,621.2 			"/>
			<path class="st0" d="M5441.4,190.1h10.2h13.6c3.4,0,3.4,0,6.8,3.4s3.4,6.8,3.4,10.2c0,6.8-3.4,13.6-10.2,13.6l13.6,20.4h-13.6
				l-13.6-17v17h-10.2L5441.4,190.1L5441.4,190.1z M5451.6,196.9v13.6l0,0c3.4,0,3.4,0,6.8,0s3.4-3.4,3.4-6.8c0-3.4,0-3.4-3.4-6.8
				C5455,200.3,5455,200.3,5451.6,196.9L5451.6,196.9z"/>
			<path class="st0" d="M5455,254.6c-23.8,0-44.1-20.4-44.1-44.1s20.4-44.1,44.1-44.1c23.8,0,44.1,20.4,44.1,44.1l0,0
				C5499.1,237.6,5478.7,254.6,5455,254.6 M5488.9,213.9c0-20.4-13.6-33.9-33.9-33.9s-33.9,13.6-33.9,33.9s13.6,33.9,33.9,33.9
				S5488.9,230.8,5488.9,213.9"/>
		</g>
	</g>
</g>
</svg>
