<?xml version="1.0" encoding="utf-8"?>
<!-- Generator: Adobe Illustrator 28.2.0, SVG Export Plug-In . SVG Version: 6.00 Build 0)  -->
<svg version="1.1" id="Layer_1" xmlns="http://www.w3.org/2000/svg" xmlns:xlink="http://www.w3.org/1999/xlink" x="0px" y="0px"
	 viewBox="0 0 1997.2 215.2" style="enable-background:new 0 0 1997.2 215.2;" xml:space="preserve">
<style type="text/css">
	.st0{fill:#FFFFFF;}
	.st1{fill:#EF6623;}
</style>
<path class="st0" d="M989.4,34.1L958,108.8l-32.7-74.6h-34.4l-32.6,73.7l-30.9-73.7h-52.3l64.7,146.7h32.7l33.1-73.8l32.6,73.8h35
	l64.1-146.7L989.4,34.1L989.4,34.1z M1718,34.1v51.6h-90V34.1h-50.3v146.7h50.3v-56.7h90v56.7h49.8V34.1H1718z M1097.2,34.1
	l-98.5,146.7h54.6l61-94.4l60.6,94.4h56.2l-95.9-146.7C1135.2,34.1,1097.2,34.1,1097.2,34.1z M414.3,34.1h-55.4l-56,89.3l-55-89.3
	h-56.7l92.7,146.7h34.2C318.1,180.9,414.3,34.1,414.3,34.1z M1192.3,34.1v38.5h63.9v108.2h50.1V72.7h50.5l25.5-38.5
	C1382.3,34.1,1192.3,34.1,1192.3,34.1z M170.8,36.6c-5.6-1.7-11.4-2.5-17.2-2.4h-111C17.1,34.2,1.4,47,1.4,67.5v80.8
	c-0.1,11.8,6.6,22.6,17.2,27.8l2.2,1.1l30.6-30.9V72.7h93.5v69.5H76.1l-38.7,38.7h116.1c24.4,0,41.4-13.5,41.4-33.3v-76L172,36.8
	L170.8,36.6z M1515.5,34.1h-99.6c-2.6-0.2-5.3-0.2-7.9,0h-1.5l-4.4,6.6l-26.9,41.8v64.4c0,19.7,17,33.3,41.2,33.3h100.2
	c23.6,0,41.4-14.3,41.4-33.3v-24.7h-50.1V142H1424V72.7h82.7v17.1h50.1V67.6C1556.9,47.2,1540.6,34.1,1515.5,34.1z M411.4,70.8
	v110.1H567v-38.7H461.7v-18.5h71V90.2h-71V72.7H567V34.1H437L411.4,70.8z M728.8,125.8c17.8,0,37-9.3,37-26.9V64.2
	c0-18.6-14.4-30-37.7-30h-139v146.7h50v-109h78.5v24.4h-56.2v29.5l61.7,55.1h68.6L728.8,125.8z M1789,13.3h-2.8v4.2h-1.5V6h4.7
	c1.8-0.2,3.4,1.1,3.5,2.9c0,0.2,0,0.5,0,0.7c0.1,1.6-0.9,3.1-2.4,3.5l2.6,4.3h-1.6L1789,13.3z M1786.2,11.9h3.1c1.2,0,2.2-1,2.2-2.2
	V9.6c0.1-1.2-0.8-2.2-2-2.3h-0.1h-3.1L1786.2,11.9L1786.2,11.9z"/>
<path class="st0" d="M1788.6,22.4c-5.9,0.1-10.7-4.6-10.8-10.5v-0.1c0-6,4.8-10.8,10.8-10.8s10.8,4.8,10.8,10.8
	c0,5.9-4.8,10.6-10.6,10.6C1788.7,22.4,1788.6,22.4,1788.6,22.4z M1788.6,2.5c-5.1,0-9.3,4.2-9.3,9.3s4.2,9.3,9.3,9.3
	c5.1,0,9.3-4.2,9.3-9.3C1797.9,6.6,1793.7,2.5,1788.6,2.5L1788.6,2.5z"/>
<path class="st1" d="M1839.2,1h135.9c11.5,0,20.9,9.3,20.9,20.9v171.2c0,11.5-9.3,20.9-20.9,20.9h-135.9c-11.5,0-20.9-9.3-20.9-20.9
	V21.9C1818.4,10.3,1827.7,1,1839.2,1z"/>
<path class="st0" d="M1890.3,150.4l53.1-50.3c3.3-2.8,6.3-5.9,9-9.3c3.7-4.8,5.8-10.6,6.2-16.6v-12c0.2-1.8,0.2-3.6,0-5.4
	c-0.4-2.1-1.1-4.2-1.9-6.2l-90.4,85.1c-2.8,2.8-5.8,5.5-8.5,8.6c-4.2,4.9-6.4,11.2-6.3,17.6v18.9h91.7c3.5,0,6.9-1.1,9.8-3.1
	c6.7-4.6,10.5-12.4,9.8-20.5v-6.9L1890.3,150.4L1890.3,150.4z M1947,39c-3.5-3.1-8-4.8-12.7-4.9h-53.9c-1.8,0-3.6,0.3-5.3,0.8
	c-6.7,2.3-12.3,7.1-15.5,13.5c-3.5,6.1-5.1,13-4.7,19.9v13.5h30.4V64.6h34.5L1947,39z"/>
</svg>
