<?xml version="1.0" encoding="UTF-8"?>
<svg id="_레이어_1" data-name=" 레이어 1" xmlns="http://www.w3.org/2000/svg" version="1.1" viewBox="0 0 111.3 62.6">
  <defs>
    <style>
      .cls-1 {
        fill: #fff;
        stroke-width: 0px;
      }
    </style>
  </defs>
  <path class="cls-1" d="M12.9,61.5v-21.6h15.4c13.1,0,20.3-8.9,20.3-19.4S41.5,1,28.3,1H0v60.5h12.9ZM26.5,28.6h-13.6V12.3h13.6c5.1,0,9,3.1,9,8.2s-3.9,8.1-9,8.1ZM86.1,62.6c13.2,0,21-7.3,25.2-14.9l-11.1-5.4c-2.5,4.9-8,8.8-14.2,8.8-11.1,0-19-8.4-19-19.9s8-19.9,19-19.9,11.6,3.9,14.2,8.8l11.1-5.4C107,7.1,99.3-.1,86.1-.1s-32.3,12.6-32.3,31.3,14.1,31.3,32.3,31.3h0Z"/>
</svg>