<?xml version="1.0" encoding="UTF-8"?>
<svg xmlns="http://www.w3.org/2000/svg" version="1.1" xmlns:cc="http://creativecommons.org/ns#" xmlns:dc="http://purl.org/dc/elements/1.1/" xmlns:inkscape="http://www.inkscape.org/namespaces/inkscape" xmlns:rdf="http://www.w3.org/1999/02/22-rdf-syntax-ns#" xmlns:sodipodi="http://sodipodi.sourceforge.net/DTD/sodipodi-0.dtd" xmlns:svg="http://www.w3.org/2000/svg" viewBox="0 0 565.5 129.8">
  <defs>
    <style>
      .cls-1 {
        fill: #fff;
        stroke-width: 0px;
      }
    </style>
  </defs>
  <g id="svg7921" inkscape:version="1.2 (dc2aedaf03, 2022-05-15)">
    <sodipodi:namedview id="base" bordercolor="#666666" borderopacity="1.0" inkscape:current-layer="g8032" inkscape:cx="457.14452" inkscape:cy="72.831997" inkscape:deskcolor="#d1d1d1" inkscape:document-units="mm" inkscape:pagecheckerboard="1" inkscape:pageopacity="0.0" inkscape:pageshadow="2" inkscape:showpageshadow="2" inkscape:window-height="1017" inkscape:window-maximized="1" inkscape:window-width="1920" inkscape:window-x="-8" inkscape:window-y="-8" inkscape:zoom="2.8284272" pagecolor="#ffffff" showgrid="false" units="px"/>
    <g id="layer1" inkscape:groupmode="layer" inkscape:label="Layer 1">
      <g id="g8032">
        <g id="g247">
          <g id="g885">
            <path id="path887" class="cls-1" d="M61,0v121.1l26.6,8.7V28.2c0-4.7,2.1-7.9,5.4-6.8,4.3,1.2,5.2,5.6,5.2,10.4v40.6c16.6,8.3,29.6,0,29.6-21.8s-7.6-32.2-30.1-40.2C88.7,7.3,72.3,2.2,61,0" inkscape:connector-curvature="0"/>
          </g>
          <g id="g889">
            <path id="path891" class="cls-1" d="M92.5,112.1l42.7-15.7c4.8-1.8,5.6-4.3,1.7-5.7-3.9-1.3-11.1-.9-15.9.8l-28.5,10.4v-16.5l1.6-.6s8.2-3,19.8-4.3c11.6-1.3,25.7.2,36.8,4.5,12.5,4.1,13.9,10.1,10.8,14.2-3.2,4.2-11,7.1-11,7.1l-58,21.5v-15.9Z" inkscape:connector-curvature="0"/>
          </g>
          <g id="g893">
            <path id="path895" class="cls-1" d="M12.2,110.4c-12.9-3.7-15-11.5-9.1-16,5.4-4.1,14.6-7.3,14.6-7.3l38.1-14v15.9l-27.4,10.1c-4.8,1.8-5.6,4.3-1.6,5.7,3.9,1.3,11.1,1,15.9-.8l13.1-4.9v14.2c-.8.1-1.8.3-2.6.4-13.1,2.2-27.2,1.3-40.9-3.4" inkscape:connector-curvature="0"/>
          </g>
        </g>
        <g id="g255">
          <g id="g905">
            <path id="path907" class="cls-1" d="M433.7,24.7h-47.7c-14.7,0-21.9,9.4-21.9,21.5v37c0,7.5-3.5,12.9-10.8,12.9h-41.7c-.3,0-.5.3-.5.6v7.4c0,.3.2.6.6.6h47.2c14.7,0,21.9-9.3,21.9-21.5v-37c0-7.5,3.5-13,10.8-13h42.2c.3,0,.5-.3.5-.6v-7.4c0-.3-.2-.6-.5-.6" inkscape:connector-curvature="0"/>
          </g>
          <g id="g909">
            <path id="path911" class="cls-1" d="M293.4,24.7h-91.7c-.3,0-.5.2-.5.5v7.4c0,.3.2.6.5.6h86.2c7.3,0,10.8,5.4,10.8,13s-3.5,12.9-10.8,12.9h-68.2c-10.6,0-18.6,9.2-18.6,21.4v23.6c0,.3.3.6.5.6h15.6c.3,0,.5-.2.5-.6v-23.6c0-7.5,4.2-12.8,10.2-12.8h65.3c14.7,0,21.9-9.3,21.9-21.5s-7.2-21.5-21.9-21.5" inkscape:connector-curvature="0"/>
          </g>
          <g id="g913">
            <path id="path915" class="cls-1" d="M557.6,63.7c-.2-.2-.3-.7,0-.9,4.5-3.9,6.8-9.8,6.8-16.6,0-12.2-7.2-21.5-21.9-21.5h-91.7c-.3,0-.5.2-.5.6v7.4c0,.3.2.6.5.6h86.2c7.3,0,10.8,5.4,10.8,13s-3.5,12.9-10.8,12.9h-.1s-86.1,0-86.1,0c-.3,0-.5.3-.5.6v7.4c0,.3.2.6.5.6h86.2c9.5,0,10.7,9.6,10.7,14.5v1c0,7.5-3.5,13-10.7,13h-86.2c-.3,0-.5.3-.5.6v7.4c0,.3.2.6.5.6h91.7c14.7,0,21.9-10.1,21.9-21.5v-1c0-7.3-2.3-14.2-6.8-18.5" inkscape:connector-curvature="0"/>
          </g>
        </g>
      </g>
    </g>
  </g>
</svg>