<?xml version="1.0" encoding="UTF-8"?>
<svg xmlns="http://www.w3.org/2000/svg" version="1.1" xmlns:inkscape="http://www.inkscape.org/namespaces/inkscape" xmlns:sodipodi="http://sodipodi.sourceforge.net/DTD/sodipodi-0.dtd" xmlns:svg="http://www.w3.org/2000/svg" viewBox="0 0 2140 298.7">
  <defs>
    <style>
      .cls-1 {
        fill: #fff;
        stroke-width: 0px;
      }
    </style>
  </defs>
  <g id="Layer_1" data-name="Layer 1" inkscape:version="1.2.2 (732a01da63, 2022-12-09)">
    <sodipodi:namedview id="namedview54" bordercolor="#111111" borderopacity="1" inkscape:current-layer="g48" inkscape:cx="1110.6777" inkscape:cy="148.56198" inkscape:deskcolor="#d1d1d1" inkscape:pagecheckerboard="1" inkscape:pageopacity="0" inkscape:showpageshadow="0" inkscape:window-height="1009" inkscape:window-maximized="1" inkscape:window-width="1920" inkscape:window-x="-8" inkscape:window-y="-8" inkscape:zoom="0.56542056" pagecolor="#ffffff" showgrid="false"/>
    <g id="VR2_black">
      <g id="g50">
        <g id="g48">
          <path id="path4" class="cls-1" d="M228,71.6v91.4c38.5,18.6,68.7,0,68.7-49.1s-17.8-72.5-70-90.5c-20.6-7-58.8-18.5-85.1-23.4v272.9l61.8,19.6V63.6c0-10.8,4.8-17.9,12.5-15.5,10.1,2.9,12.1,12.8,12.1,23.5"/>
          <path id="path6" class="cls-1" d="M350.6,191.7c-25.9-9.7-58.8-13.1-85.6-10.1-26.9,2.9-46,9.7-46,9.7l-3.8,1.2v37.2l66-23.3c11.3-4.1,27.8-4.9,37-1.9,9.1,3,7.4,8.6-3.9,12.8l-99.2,35.3v35.7l134.9-48.4s18.1-6.7,25.6-16c7.4-9.5,4.1-23-25-32.2"/>
          <path id="path8" class="cls-1" d="M7.2,212.7c-13.6,10.2-8.6,27.7,21.2,36.1,32.1,10.6,64.6,12.7,95.1,7.6,2-.3,4.2-.7,6.2-1v-32.1l-30.6,11c-11.3,4.2-27.7,5-36.9,1.9-9.1-3-7.4-8.6,3.9-12.7l63.6-22.8v-35.9l-88.5,31.6c0,.1-21.4,7-34,16.3"/>
          <polygon id="polygon14" class="cls-1" points="1710.9 57.4 1733.9 57.4 1787.5 214.4 1788 214.4 1841.4 57.4 1864.4 57.4 1801.1 234 1773.7 234 1710.9 57.4"/>
          <path id="path16" class="cls-1" d="M1882.6,57.4h60.8c31.2,0,54.9,13.8,54.9,46.7s-11.4,35.6-32.6,41.1v.5c13.4,3.2,19.5,11.9,25.7,33.1,5.7,19.5,10.6,35.9,16.6,55.1h-23c-4-14.1-10.4-39.3-13.8-51.4-6.4-21.3-11.1-27.9-38.6-27.9h-28.4v79.4h-21.5V57.4h0ZM1904.1,136.5h34.1c23.7,0,38.6-9.4,38.6-31.2s-18.5-29.9-37.1-29.9h-35.6v61.1Z"/>
          <path id="path18" class="cls-1" d="M2140,234h-111.3v-19.1c18.3-16.7,33.3-30.8,44.7-42.3,11.5-11.5,20.4-21.4,26.9-29.6,6.4-8.3,10.8-15.5,13.1-21.7s3.5-12.4,3.5-18.7-.9-9.1-2.7-12.9-4.4-7-7.7-9.7c-3.3-2.6-7.1-4.7-11.4-6.1-4.3-1.4-8.8-2.1-13.6-2.1-7.3,0-14.3,1.5-21.1,4.5s-13.2,6.9-19.3,11.9l-9.2-15.4c6.4-5.8,14-10.4,22.7-13.8,8.7-3.4,17.6-5.1,26.9-5.1s15.6,1,22.6,3.1c6.9,2.1,13,5.1,18.1,9,5.1,4,9.1,9,12,15s4.3,13,4.3,20.9-1.2,16.2-3.7,23.4-6.9,14.9-13.1,23.2c-6.3,8.3-14.8,17.7-25.7,28.4-10.8,10.7-24.5,23.6-41,38.8h85v18.3Z"/>
          <path id="path24" class="cls-1" d="M551.6,58.5h-74.6c-.3,0-.6.2-.6.5v174.4c0,.3.3.5.6.5h30.2c.3,0,.5-.3.5-.5V77.9c0-.2.1-.3.2-.3h34.6c12.6,0,19.5,12.6,19.5,35.6s-6.9,35.7-19.5,35.7h-20.8c-.3,0-.5.2-.5.5v18.1c0,.3.2.6.5.6h29.8c10.5,0,20.8-4.9,28.3-13.3,8.8-9.9,13.4-24.3,13.4-41.5,0-33.2-16.2-54.8-41.6-54.8"/>
          <path id="path26" class="cls-1" d="M642.7,58.5h-30.2c-.3,0-.6.2-.6.5v174.4c0,.3.2.5.6.5h30.2c.3,0,.6-.3.6-.5V59c0-.3-.3-.5-.6-.5"/>
          <path id="path28" class="cls-1" d="M774,100.4h-53.9c-48.3,0-54.5,35.4-54.5,66.6v26.9c0,23.2,14.4,40,34.2,40h29.4c.3,0,.5-.3.5-.5v-18.1c0-.3-.3-.6-.5-.6h-21c-4.8-.1-11.3-2.1-11.3-18.8v-28.9c0-19.3,1.8-31.7,5.8-38.7,4.3-7.8,11.2-8.8,17.3-8.8h23c0,0,.2,0,.2.3v113.7c0,.3.2.5.6.5h30.2c.3,0,.6-.3.6-.5V101c0-.4-.3-.6-.6-.6"/>
          <path id="path30" class="cls-1" d="M992.1,131.5l-14.9-1.1c-11.2-1-19.5-7.2-19.5-25.4s9.6-27.2,22.4-27.2h41.2c.3,0,.5-.2.5-.5v-18.3c0-.3-.3-.5-.5-.5h-45.5c-28.1,0-48.1,16.5-48.1,49.4v1.4c0,26,16,44.7,39.8,46.6l14.8,1.1c11.3.9,18.3,11,18.3,26.3v4.3c0,9.6-2.4,27.1-23,27.1h-42.8c-.3,0-.5.3-.5.6v18.1c0,.3.3.5.5.5h53.2c16.4,0,43.8-6.6,43.8-51.2s-3.7-28.9-11.1-38.1c-6.3-7.9-15.7-12.1-28.6-13.1"/>
          <path id="path32" class="cls-1" d="M1239.2,100.4h-54c-48.2,0-54.4,35.4-54.4,66.6v26.9c0,23.2,14.4,40,34.3,40h29.3c.3,0,.5-.3.5-.5v-18.1c0-.3-.3-.6-.5-.6h-21c-4.8-.1-11.3-2.1-11.3-18.8v-28.9c0-19.3,1.8-31.7,5.7-38.7,4.4-7.8,11.2-8.8,17.3-8.8h23.1c0,0,.2,0,.2.3v113.7c0,.3.2.5.5.5h30.2c.3,0,.5-.3.5-.5V100.9c.2-.3,0-.5-.4-.5"/>
          <path id="path34" class="cls-1" d="M1118.3,100.4h-32.8c0,0-.2,0-.2-.2h0v-22c0-.3-.2-.5-.5-.5h-30.2c-.3,0-.6.3-.6.5v115.7c0,23.2,14.5,40,34.3,40h21.6c.3,0,.6-.3.6-.5v-18.1c0-.3-.2-.6-.6-.6h-13.3c-3.4,0-11.4-.2-11.4-17.3v-77.9c0,0,0-.2.2-.2h32.8c.3,0,.5-.2.5-.5v-18c0-.2-.1-.4-.4-.4"/>
          <path id="path36" class="cls-1" d="M1329.3,100.4h-32.6c0,0-.2,0-.2-.2h0v-22c0-.3-.2-.5-.5-.5h-30.3c-.3,0-.6.3-.6.5v115.7c0,23.2,14.4,40,34.3,40h21.6c.3,0,.5-.3.5-.5v-18.1c0-.3-.2-.6-.5-.6h-13.3c-3.4,0-11.3-.2-11.3-17.3v-77.9c0,0,0-.2.2-.2h32.7c.3,0,.5-.2.5-.5v-18c0-.2-.3-.4-.5-.4"/>
          <path id="path38" class="cls-1" d="M1379.2,100.4h-30.2c-.3,0-.5.2-.5.5v132.5c0,.3.3.5.5.5h30.2c.3,0,.6-.3.6-.5V100.9c0-.3-.3-.5-.6-.5"/>
          <path id="path40" class="cls-1" d="M1379.2,58.5h-30.2c-.3,0-.5.2-.5.5v25.3c0,.3.3.5.5.5h30.2c.3,0,.6-.2.6-.5v-25.3c0-.3-.3-.5-.6-.5"/>
          <path id="path42" class="cls-1" d="M1588.2,100.4h-53.9c-.3,0-.5.2-.5.5v132.5c0,.3.2.5.5.5h30.3c.3,0,.5-.3.5-.5v-113.7c0,0,0-.2.2-.2h23c6.2,0,13,1,17.4,8.2,4,6.5,5.8,17.9,5.8,35.8v69.9c0,.3.2.5.5.5h30.1c.3,0,.6-.3.6-.5v-66.4c0-31.2-6.3-66.6-54.5-66.6"/>
          <path id="path44" class="cls-1" d="M1456.8,100.4c-50.5,0-56.9,35.6-56.9,66.8s6.4,66.9,56.9,66.9,56.9-35.7,56.9-66.9c0-31.2-6.4-66.8-56.9-66.8M1476,206c-4.8,7.8-12.3,8.9-19.2,8.9s-14.4-1-19.2-8.9c-4.3-7.1-6.3-19.4-6.3-38.9h0c0-23.1,2.8-36.1,9.2-42.3,3.8-3.8,8.7-5.3,16.4-5.3s12.6,1.5,16.4,5.3c6.3,6.2,9.1,19.3,9.1,42.4,0,19.4-2.1,31.8-6.4,38.8"/>
          <path id="path46" class="cls-1" d="M916.6,100.4h-28.7c-.3,0-.6.2-.7.5l-33.3,86.3c0,.3-.3.3-.4,0l-29.4-86.3c0-.3-.4-.5-.7-.5h-31.7c-.3,0-.4.2-.4.5l44.8,131.3c0,.3,0,.7,0,1l-25.2,65c0,.3,0,.5.3.5h26.3c.3,0,.7-.2.8-.5l78.7-197.3c0-.3,0-.5-.4-.5"/>
        </g>
      </g>
    </g>
  </g>
</svg>