<?xml version="1.0" encoding="UTF-8"?>
<svg xmlns="http://www.w3.org/2000/svg" version="1.1" xmlns:cc="http://creativecommons.org/ns#" xmlns:dc="http://purl.org/dc/elements/1.1/" xmlns:inkscape="http://www.inkscape.org/namespaces/inkscape" xmlns:rdf="http://www.w3.org/1999/02/22-rdf-syntax-ns#" xmlns:sodipodi="http://sodipodi.sourceforge.net/DTD/sodipodi-0.dtd" xmlns:svg="http://www.w3.org/2000/svg" viewBox="0 0 835.2 161.8">
  <defs>
    <style>
      .cls-1 {
        fill: #fff;
        stroke-width: 0px;
      }
    </style>
  </defs>
  <g id="svg2" inkscape:version="1.1.2 (b8e25be833, 2022-02-05)">
    <g id="g128">
      <g id="g92">
        <g id="g84">
          <path id="path78" class="cls-1" d="M126.1,39.6v50.6c21.3,10.3,38,0,38-27.2s-9.8-40.1-38.7-50.1c-11.4-3.8-32.5-10.2-47-12.9v151l34.2,10.8V35.2c0-6,2.7-9.9,6.9-8.6,5.5,1.6,6.6,7.1,6.6,13Z"/>
          <path id="path80" class="cls-1" d="M193.9,106.1c-14.3-5.4-32.5-7.2-47.4-5.6s-25.5,5.4-25.5,5.4l-2.1.7v20.6l36.5-12.9c6.3-2.2,15.4-2.7,20.5-1.1,5,1.6,4.1,4.8-2.1,7.1l-54.8,19.4v19.8l74.6-26.8s10-3.7,14.2-8.9c4.1-5.2,2.3-12.6-13.9-17.7Z"/>
          <path id="path82" class="cls-1" d="M4,117.7c-7.5,5.6-4.8,15.3,11.7,19.9,17.7,5.9,35.7,7,52.6,4.2,1.1-.2,2.3-.4,3.4-.6v-17.7l-16.9,6.1c-6.2,2.3-15.3,2.8-20.4,1.1-5-1.6-4.1-4.8,2.1-7l35.2-12.6v-19.9l-49,17.5c.1,0-11.8,3.8-18.7,9Z"/>
        </g>
      </g>
      <g id="g126">
        <path id="path94" class="cls-1" d="M315,46.6h-35.6q-.1,0-.2.2v83.2c0,.1.1.2.2.2h14.6q.1-.1.2-.2V55.9q0,0,.1,0h16.5c6,0,9.3,6,9.3,17s-3.3,17-9.3,17h-10l-.2.2v8.8c0,0,.1.2.2.2h14.2c5,0,9.9-2.3,13.4-6.3,4.2-4.7,6.4-11.6,6.4-19.8.1-16-7.7-26.3-19.8-26.3Z"/>
        <path id="path96" class="cls-1" d="M358.5,46.6h-14.6c-.1,0-.2,0-.2.2v83.2c0,.1.1.2.2.2h14.6c.1,0,.2-.1.2-.2V46.8c0,0-.1-.2-.2-.2Z"/>
        <path id="path98" class="cls-1" d="M421.3,67.2v-.4c0,0-.1-.3-.3-.3h-25.7c-23,0-25.9,16.9-25.9,31.7v12.8c0,11,6.9,19,16.3,19h14.1c.1,0,.2-.1.2-.2v-8.8l-.2-.2h-10.1c-2.3,0-5.4-1-5.4-8.9v-13.6c0-9.2.9-15.1,2.7-18.4,2.1-3.7,5.3-4.2,8.3-4.2h11.1v54.3q.1.1.2.2h14.6q.1-.1.2-.2v-62.8Z"/>
        <path id="path100" class="cls-1" d="M538.6,87.7c-3-3.8-7.5-5.8-13.7-6.3l-7.1-.5c-5.3-.5-9.3-3.4-9.3-12.2s4.6-12.9,10.7-12.9h19.7c0,0,.2,0,.2-.2v-8.7c0,0,0-.3-.3-.3h-21.7c-13.4,0-22.9,7.9-22.9,23.6v.7c0,12.4,7.6,21.3,19,22.2l7.1.5c5.4.4,8.7,5.2,8.7,12.5v2.1c0,4.6-1.1,12.9-10.9,12.9h-20.4c-.1,0-.3,0-.3.3v8.7c0,.1.1.2.2.2h25.4c7.8,0,20.9-3.2,20.9-24.4s-1.8-13.9-5.3-18.2Z"/>
        <path id="path102" class="cls-1" d="M643,66.7q0,0-.2-.2h-25.8c-23,0-25.9,16.9-25.9,31.7v12.8c0,11,6.9,19,16.3,19h14.1c0,0,.2-.1.2-.2v-8.8q0,0-.2-.2h-10.1c-2.3,0-5.4-1-5.4-8.9v-13.6c0-9.2.9-15.1,2.7-18.4,2.1-3.7,5.3-4.2,8.3-4.2h11.1v54.3q0,.1.2.2h14.6q0-.1.2-.2v-63.3Z"/>
        <path id="path104" class="cls-1" d="M585.1,66.6h-15.7q0,0,0,0h0v-10.6q0,0-.2-.2h-14.6c0,0-.2,0-.2.2v55.2c0,11,6.9,19,16.3,19h10.4c0,0,.2-.1.2-.2v-8.8c0,0,0-.2-.2-.2h-6.4c-1.6,0-5.4,0-5.4-8.2v-37h15.7c0,0,.3,0,.3-.3v-8.8c.1,0,0,0,0,0Z"/>
        <path id="path106" class="cls-1" d="M685.7,66.6h-15.7s0,0,0,0h0v-10.6q0,0-.2-.2h-14.6c0,0-.2,0-.2.2v55.2c0,11,6.9,19,16.3,19h10.4c0,0,.2-.1.2-.2v-8.8c0,0,0-.2-.2-.2h-6.4c-1.6,0-5.4,0-5.4-8.2v-37h15.7c0,0,.3,0,.3-.3v-8.8c.1,0,0,0,0,0Z"/>
        <g id="g112">
          <path id="path108" class="cls-1" d="M709.5,66.6h-14.6c0,0-.2,0-.2.2v63.2c0,.1,0,.2.2.2h14.6c0,0,.2-.1.2-.2v-63.3s-.1,0-.2,0Z"/>
          <path id="path110" class="cls-1" d="M709.5,46.6h-14.6c0,0-.2,0-.2.2v12.2c0,0,0,.2.2.2h14.6c0,0,.2,0,.2-.2v-12.2c0,0-.1-.2-.2-.2Z"/>
        </g>
        <path id="path114" class="cls-1" d="M809,66.6h-25.8c0,0-.2,0-.2.2v63.2c0,.1,0,.2.2.2h14.6q0-.1.2-.2v-54.3h11.1c2.9,0,6.2.5,8.3,3.9,1.9,3.1,2.8,8.5,2.8,17.1v33.3c0,.1,0,.3.3.3h14.5c0,0,.2-.1.2-.2v-31.8c-.3-14.8-3.2-31.7-26.2-31.7Z"/>
        <path id="path116" class="cls-1" d="M746.4,66.6c-24,0-27.1,17-27.1,31.8s3.1,31.8,27.1,31.8,27.1-17,27.1-31.8-3-31.8-27.1-31.8ZM755.5,116.9c-2.3,3.7-5.9,4.2-9.1,4.2s-6.8-.5-9.1-4.2c-2.1-3.4-3-9.3-3-18.5h0c0-11,1.4-17.3,4.4-20.2,1.8-1.7,4.1-2.5,7.8-2.5s6,.7,7.8,2.5c3,3,4.4,9.2,4.4,20.2-.1,9.3-1.1,15.1-3.2,18.5Z"/>
        <path id="path118" class="cls-1" d="M489.1,66.6h-13.9c-.1,0-.2,0-.3.2l-16,41.4-14.1-41.4c-.1,0-.2,0-.3-.2h-15.3q0,0-.1,0l21.4,62.7v.4l-12,31.2q0,.1.1.1h12.7c.1-.1.2-.1.3-.2l37.6-94.2h-.1Z"/>
      </g>
    </g>
  </g>
</svg>