<?xml version="1.0" encoding="UTF-8"?>
<svg xmlns="http://www.w3.org/2000/svg" version="1.1" xmlns:inkscape="http://www.inkscape.org/namespaces/inkscape" xmlns:sodipodi="http://sodipodi.sourceforge.net/DTD/sodipodi-0.dtd" xmlns:svg="http://www.w3.org/2000/svg" viewBox="0 0 1122.5 208.7">
  <defs>
    <style>
      .cls-1 {
        fill: #fff;
        stroke-width: 0px;
      }
    </style>
  </defs>
  <g id="svg5" inkscape:version="1.2 (dc2aedaf03, 2022-05-15)">
    <path id="path5295" class="cls-1" d="M101.4,2.4v191.7l43.4,13.8V47.1c0-7.5,3.4-12.5,8.8-10.8,7.1,2,8.5,8.9,8.5,16.4v64.2c27,13.1,48.3,0,48.3-34.5s-12.5-51-49.2-63.7c-14.4-4.8-41.3-12.9-59.8-16.4"/>
    <path id="path5299" class="cls-1" d="M153,179.9l69.8-24.9c7.9-2.8,9.1-6.8,2.7-9-6.4-2.1-18.1-1.5-26,1.3l-46.5,16.4v-26.1l2.7-.9s13.4-4.8,32.3-6.9c18.9-2.1,42,.3,60.2,7.2,20.5,6.5,22.8,16,17.6,22.5-5.2,6.6-17.9,11.3-17.9,11.3l-94.8,34.1v-25.1Z"/>
    <path id="path5303" class="cls-1" d="M21.9,177.2c-21-5.9-24.5-18.2-14.9-25.3,8.9-6.6,23.9-11.5,23.9-11.5l62.2-22.1v25.2l-44.8,16c-7.9,2.8-9.1,6.9-2.7,8.9,6.4,2.1,18.1,1.5,26-1.3l21.5-7.8v22.6c-1.4.2-2.9.5-4.3.7-21.5,3.5-44.4,2-66.9-5.4"/>
    <path id="path5323" class="cls-1" d="M356.6,128.5v37.8c0,.5.4.9.9.9h24.6c.5,0,.9-.4.9-.9v-37.8c0-11,5.7-18.7,13.9-18.7h64.2c20.4,0,33.1-13.2,33.1-34.6s-12.7-34.6-33.1-34.6h-103.7c-.5,0-.9.4-.9.9v13.8c0,.5.4.9.9.9h95.6c9.3,0,14.7,6.9,14.7,19s-5.3,18.9-14.7,18.9h-68.4c-16.1,0-28.2,14.8-28.2,34.3"/>
    <path id="path5327" class="cls-1" d="M582.9,56.3h48.6c.5,0,.9-.4.9-.9v-13.8c0-.5-.4-.9-.9-.9h-56.7c-20.4,0-33.1,13.3-33.1,34.6v57.4c0,12-5.4,18.9-14.7,18.9h-50.3c-.5,0-.9.4-.9.9v13.8c0,.5.4.9.9.9h58.3c20.4,0,33.1-13.2,33.1-34.6v-57.5c0-12.1,5.4-19,14.7-19"/>
    <path id="path5331" class="cls-1" d="M818.1,166.4c0,.5.4.9.9.9h24.6c.5,0,.9-.4.9-.9V41.6c0-.5-.4-.9-.9-.9h-24.6c-.5,0-.9.4-.9.9v124.7Z"/>
    <path id="path5335" class="cls-1" d="M740.7,153.4l59.9-111.6c.3-.6,0-1.1-.6-1.1h-15.6c-.5,0-1.1.4-1.4.8l-47.9,89.4c-3.5,6.6-9.5,7.4-13,.8l-48.3-90.2c-.2-.4-.9-.8-1.4-.8h-27.4c-.7,0-.9.5-.6,1.1l59.9,111.6c3.4,6.4,7.6,10.6,12,12.6,7,3.2,14.7.8,20.8-7.1,1.2-1.6,2.4-3.4,3.5-5.5"/>
    <path id="path5339" class="cls-1" d="M986,40.7h-123.4c-.5,0-.9.4-.9.9v13.6c0,.5.4.9.9.9h46.8c.9,0,1.7.8,1.7,1.7v108.5c0,.5.4.9.9.9h24.6c.5,0,.9-.4.9-.9V57.8c0-.9.8-1.7,1.7-1.7h46.8c.5,0,.9-.4.9-.9v-13.6c0-.5-.4-.9-.9-.9"/>
    <path id="path5343" class="cls-1" d="M1066.2,125.6h-61.6c-1,0-1.5-.8-1-1.7h0s25.1-46.9,25.1-46.9c3.5-6.6,9.5-7.4,13-.8l25.6,47.8c.4.8,0,1.5-1.1,1.5M1119.3,166.2l-59.9-111.6c-3.4-6.4-7.6-10.6-12-12.6-7-3.2-14.7-.8-20.8,7.1-1.3,1.6-2.4,3.4-3.5,5.5l-59.9,111.6c-.3.6,0,1.1.6,1.1h15.6c.5,0,1.1-.4,1.4-.8l12.8-23.9h0c.4-.8,1.6-1.5,2.5-1.5h78.7c.9,0,1.9.6,2.4,1.4h0c0,.1,12.8,24,12.8,24,.2.4.8.8,1.4.8h27.4c.7,0,.9-.5.6-1.1"/>
  </g>
</svg>