<?xml version="1.0" encoding="UTF-8"?>
<svg xmlns="http://www.w3.org/2000/svg" version="1.1" xmlns:cc="http://creativecommons.org/ns#" xmlns:dc="http://purl.org/dc/elements/1.1/" xmlns:inkscape="http://www.inkscape.org/namespaces/inkscape" xmlns:rdf="http://www.w3.org/1999/02/22-rdf-syntax-ns#" xmlns:sodipodi="http://sodipodi.sourceforge.net/DTD/sodipodi-0.dtd" xmlns:svg="http://www.w3.org/2000/svg" viewBox="0 0 1000 161.8">
  <defs>
    <style>
      .cls-1 {
        fill: #fff;
        stroke-width: 0px;
      }
    </style>
  </defs>
  <g id="svg2" inkscape:version="0.92.3 (2405546, 2018-03-11)">
    <g id="g54">
      <g>
        <g>
          <path class="cls-1" d="M126.1,39.6v50.6c21.3,10.3,38,0,38-27.2s-9.8-40.1-38.7-50.1c-11.4-3.8-32.5-10.2-47-12.9v151l34.2,10.8V35.2c0-6,2.7-9.9,6.9-8.6,5.5,1.6,6.6,7.1,6.6,13Z"/>
          <path class="cls-1" d="M193.9,106.1c-14.3-5.4-32.5-7.2-47.4-5.6s-25.5,5.4-25.5,5.4l-2.1.7v20.6l36.5-12.9c6.3-2.2,15.4-2.7,20.5-1.1,5,1.6,4.1,4.8-2.1,7.1l-54.8,19.4v19.8l74.6-26.8s10-3.7,14.2-8.9c4.1-5.2,2.3-12.6-13.9-17.7Z"/>
          <path class="cls-1" d="M4,117.7c-7.5,5.6-4.8,15.3,11.7,19.9,17.7,5.9,35.7,7,52.6,4.2,1.1-.2,2.3-.4,3.4-.6v-17.7l-16.9,6.1c-6.2,2.3-15.3,2.8-20.4,1.1-5-1.6-4.1-4.8,2.1-7l35.2-12.6v-19.9l-49,17.5c.1,0-11.8,3.8-18.7,9Z"/>
        </g>
        <g>
          <path class="cls-1" d="M202.6,147.9c-1.5-1.5-3.5-2.3-5.6-2.3-4.4,0-8,3.6-8,8s.8,4.1,2.3,5.6,3.6,2.3,5.7,2.3,4.1-.8,5.6-2.3,2.3-3.5,2.3-5.6c0-2.2-.8-4.2-2.3-5.7ZM196.9,160.2c-1.8,0-3.5-.7-4.7-1.9-1.2-1.3-1.9-2.9-1.9-4.7s.7-3.5,1.9-4.7,3-1.9,4.7-1.9,3.4.7,4.7,1.9,1.9,2.9,1.9,4.7c0,3.6-2.9,6.6-6.6,6.6Z"/>
          <path class="cls-1" d="M200.6,156.9c0-.2-.1-.4-.1-.7v-1.1c0-.5-.1-.9-.3-1.2-.1-.2-.3-.3-.5-.5.3-.2.5-.5.7-.7.2-.3.3-.8.3-1.3,0-1.1-.5-1.8-1.3-2.2-.4-.2-1-.3-1.7-.3h-4.1v8.9h1.6v-3.6h2.4c.4,0,.8,0,1,.1.3.2.5.5.5,1v1.4c.1.4.1.6.2.7,0,.1.1.2.1.3h.1c0,.1.1.1.1.1h1.6v-.4h0c0-.1-.1-.2-.1-.2-.4,0-.5,0-.5-.3ZM198.7,152.5c-.3.2-.7.3-1.2.3h-2.5v-2.5h2.6c.4,0,.6.1.9.1.4.2.5.5.5,1.1.1.5,0,.8-.3,1Z"/>
        </g>
      </g>
      <g>
        <path class="cls-1" d="M315,46.6h-35.6q-.1,0-.2.2v83.2c0,.1.1.2.2.2h14.6q.1-.1.2-.2V55.9q0,0,.1,0h16.5c6,0,9.3,6,9.3,17s-3.3,17-9.3,17h-10l-.2.2v8.8c0,0,.1.2.2.2h14.2c5,0,9.9-2.3,13.4-6.3,4.2-4.7,6.4-11.6,6.4-19.8.1-16-7.7-26.3-19.8-26.3Z"/>
        <path class="cls-1" d="M358.5,46.6h-14.6c-.1,0-.2,0-.2.2v83.2c0,.1.1.2.2.2h14.6c.1,0,.2-.1.2-.2V46.8c0,0-.1-.2-.2-.2Z"/>
        <path class="cls-1" d="M421.3,67.2v-.4c0,0-.1-.3-.3-.3h-25.7c-23,0-25.9,16.9-25.9,31.7v12.8c0,11,6.9,19,16.3,19h14.1c.1,0,.2-.1.2-.2v-8.8l-.2-.2h-10.1c-2.3,0-5.4-1-5.4-8.9v-13.6c0-9.2.9-15.1,2.7-18.4,2.1-3.7,5.3-4.2,8.3-4.2h11.1v54.3q.1.1.2.2h14.6q.1-.1.2-.2v-62.8Z"/>
        <path class="cls-1" d="M538.6,87.7c-3-3.8-7.5-5.8-13.7-6.3l-7.1-.5c-5.3-.5-9.3-3.4-9.3-12.2s4.6-12.9,10.7-12.9h19.7c0,0,.2,0,.2-.2v-8.7c0,0,0-.3-.3-.3h-21.7c-13.4,0-22.9,7.9-22.9,23.6v.7c0,12.4,7.6,21.3,19,22.2l7.1.5c5.4.4,8.7,5.2,8.7,12.5v2.1c0,4.6-1.1,12.9-10.9,12.9h-20.4c-.1,0-.3,0-.3.3v8.7c0,.1.1.2.2.2h25.4c7.8,0,20.9-3.2,20.9-24.4s-1.8-13.9-5.3-18.2Z"/>
        <path class="cls-1" d="M643,66.7q0,0-.2-.2h-25.8c-23,0-25.9,16.9-25.9,31.7v12.8c0,11,6.9,19,16.3,19h14.1c0,0,.2-.1.2-.2v-8.8q0,0-.2-.2h-10.1c-2.3,0-5.4-1-5.4-8.9v-13.6c0-9.2.9-15.1,2.7-18.4,2.1-3.7,5.3-4.2,8.3-4.2h11.1v54.3q0,.1.2.2h14.6q0-.1.2-.2v-63.3Z"/>
        <path class="cls-1" d="M585.1,66.6h-15.7q0,0,0,0h0v-10.6q0,0-.2-.2h-14.6c0,0-.2,0-.2.2v55.2c0,11,6.9,19,16.3,19h10.4c0,0,.2-.1.2-.2v-8.8c0,0,0-.2-.2-.2h-6.4c-1.6,0-5.4,0-5.4-8.2v-37h15.7c0,0,.3,0,.3-.3v-8.7c.1,0,0,0,0,0Z"/>
        <path class="cls-1" d="M685.7,66.6h-15.7s0,0,0,0h0v-10.6q0,0-.2-.2h-14.6c0,0-.2,0-.2.2v55.2c0,11,6.9,19,16.3,19h10.4c0,0,.2-.1.2-.2v-8.8c0,0,0-.2-.2-.2h-6.4c-1.6,0-5.4,0-5.4-8.2v-37h15.7c0,0,.3,0,.3-.3v-8.7c.1,0,0,0,0,0Z"/>
        <g>
          <path class="cls-1" d="M709.5,66.6h-14.6c0,0-.2,0-.2.2v63.2c0,.1,0,.2.2.2h14.6c0,0,.2-.1.2-.2v-63.3s-.1,0-.2,0Z"/>
          <path class="cls-1" d="M709.5,46.6h-14.6c0,0-.2,0-.2.2v12.2c0,0,0,.2.2.2h14.6c0,0,.2,0,.2-.2v-12.2c0,0-.1-.2-.2-.2Z"/>
        </g>
        <path class="cls-1" d="M809,66.6h-25.8c0,0-.2,0-.2.2v63.2c0,.1,0,.2.2.2h14.6q0-.1.2-.2v-54.3h11.1c2.9,0,6.2.5,8.3,3.9,1.9,3.1,2.8,8.5,2.8,17.1v33.3c0,.1,0,.3.3.3h14.5c0,0,.2-.1.2-.2v-31.8c-.3-14.8-3.2-31.7-26.2-31.7Z"/>
        <path class="cls-1" d="M746.4,66.6c-24,0-27.1,17-27.1,31.8s3.1,31.8,27.1,31.8,27.1-17,27.1-31.8-3-31.8-27.1-31.8ZM755.5,116.9c-2.3,3.7-5.9,4.2-9.1,4.2s-6.8-.5-9.1-4.2c-2.1-3.4-3-9.3-3-18.5h0c0-11,1.4-17.3,4.4-20.2,1.8-1.7,4.1-2.5,7.8-2.5s6,.7,7.8,2.5c3,3,4.4,9.2,4.4,20.2-.1,9.3-1.1,15.1-3.2,18.5Z"/>
        <path class="cls-1" d="M489.1,66.6h-13.9c-.1,0-.2,0-.3.2l-16,41.4-14.1-41.4c-.1,0-.2,0-.3-.2h-15.3q0,0-.1,0l21.4,62.7v.4l-12,31.2q0,.1.1.1h12.7c.1-.1.2-.1.3-.2l37.6-94.2h-.1Z"/>
        <g>
          <path class="cls-1" d="M858.8,116.5c-1.9-1.9-4.6-2.7-7.4-2.2-3,.6-5.5,3-6.1,6-.6,2.8.2,5.5,2.1,7.5,1.5,1.5,3.6,2.3,5.7,2.3s4.1-.8,5.7-2.3c1.5-1.5,2.3-3.5,2.3-5.6s-.8-4.2-2.3-5.7ZM856.9,127.7c-2.8,1.8-6.3,1.3-8.5-.8-1.3-1.3-1.9-2.9-1.9-4.7s.7-3.5,1.9-4.7c1.3-1.3,3-1.9,4.7-1.9s3.4.7,4.7,1.9c1.5,1.4,2.1,3.4,1.9,5.6-.2,1.9-1.2,3.6-2.8,4.6Z"/>
          <path class="cls-1" d="M856.8,125.5c0-.2,0-.4,0-.7v-1.1c0-.5,0-.9-.3-1.2,0-.2-.3-.3-.5-.5.2-.2.5-.4.7-.7.2-.4.3-.8.3-1.3,0-1.1-.4-1.8-1.3-2.2-.5-.2-1-.3-1.7-.3h-4.1v8.9h1.6v-3.6h2.4c.4,0,.8,0,1,0,.3.2.5.5.5,1v1.4c0,.3,0,.6.2.7,0,0,0,.2,0,.3h0c0,0,0,0,0,0h1.6v-.4h0s0-.1,0-.1c-.2,0-.3-.2-.4-.4ZM855,121.2c-.3.2-.7.3-1.2.3h-2.5v-2.5h2.6c.4,0,.6,0,.9,0,.4.2.5.5.5,1.1s0,.8-.3,1Z"/>
        </g>
      </g>
      <g>
        <polygon class="cls-1" points="895.7 120.9 895.4 120.9 869.9 46.6 859 46.6 888.9 130.2 901.9 130.2 931.9 46.6 921 46.6 895.7 120.9"/>
        <path class="cls-1" d="M992.1,104.1c-2.9-10-5.9-14.1-12.2-15.7v-.2c10.2-2.6,15.5-10,15.5-19.5,0-15.6-11.2-22.1-26.1-22.1h-28.8v83.5h10.1v-37.5h13.5c13,0,15.4,3.2,18.3,13.2,1.7,5.8,4.7,17.7,6.5,24.4h10.9c-2.6-9.2-4.9-16.9-7.7-26.1ZM966.9,84h-16.3v-28.9h16.9c8.8,0,17.7,2.4,17.7,14.1,0,10.4-7,14.8-18.3,14.8Z"/>
      </g>
    </g>
  </g>
</svg>