<?xml version="1.0" encoding="UTF-8"?>
<svg xmlns="http://www.w3.org/2000/svg" version="1.1" xmlns:cc="http://creativecommons.org/ns#" xmlns:dc="http://purl.org/dc/elements/1.1/" xmlns:inkscape="http://www.inkscape.org/namespaces/inkscape" xmlns:rdf="http://www.w3.org/1999/02/22-rdf-syntax-ns#" xmlns:sodipodi="http://sodipodi.sourceforge.net/DTD/sodipodi-0.dtd" xmlns:svg="http://www.w3.org/2000/svg" viewBox="0 0 962.7 215.5">
  <defs>
    <style>
      .cls-1 {
        fill: #fff;
        stroke-width: 0px;
      }
    </style>
  </defs>
  <g id="Layer_1" data-name="Layer 1" inkscape:version="1.1.2 (b8e25be833, 2022-02-05)">
    <sodipodi:namedview id="namedview23" bordercolor="#666666" borderopacity="1.0" inkscape:current-layer="g20" inkscape:cx="500.36075" inkscape:cy="107.86436" inkscape:pagecheckerboard="0" inkscape:pageopacity="0.0" inkscape:pageshadow="2" inkscape:window-height="1001" inkscape:window-maximized="1" inkscape:window-width="1920" inkscape:window-x="-9" inkscape:window-y="-9" inkscape:zoom="1.386" pagecolor="#ffffff" showgrid="false"/>
    <g id="g20">
      <path id="path2" class="cls-1" d="M104.1,0v201.1l45.4,14.4V46.9c0-7.9,3.5-13.2,9.2-11.4,7.4,2.1,8.8,9.4,8.8,17.2v67.3c28.3,13.7,50.5,0,50.5-36.2s-13.1-53.4-51.5-66.7C151.6,12.1,123.5,3.6,104.1,0Z"/>
      <path id="path4" class="cls-1" d="M158.2,186.1l73-26c8.2-3.1,9.5-7.2,2.9-9.4-6.8-2.2-18.9-1.6-27.2,1.4l-48.6,17.2v-27.4l2.8-.9s14-5,33.8-7.1c19.7-2.2,43.9.3,63,7.5,21.4,6.8,23.8,16.8,18.4,23.7-5.5,6.9-18.8,11.8-18.8,11.8l-99.1,35.7v-26.3h0Z"/>
      <path id="path6" class="cls-1" d="M20.9,183.3c-22-6.1-25.6-19.1-15.6-26.6,9.2-6.8,25-12,25-12l65.1-23.2v26.5l-46.8,16.8c-8.3,3-9.5,7.2-2.8,9.4,6.8,2.3,18.9,1.7,27.2-1.4l22.5-8.1v23.6c-1.4.2-3.1.5-4.6.8-22.4,3.7-46.3,2.2-69.9-5.6Z"/>
      <path id="path10" class="cls-1" d="M758.8,41.3h-85.5c-24.8,0-36.9,15.3-36.9,35.3v60.6c0,12.3-5.8,21.2-18.2,21.2h-80.4c-.5,0-.9.4-.9.9v12.2c0,.5.4.9.9.9h89.7c24.8,0,37-15.3,37-35.2v-60.7c0-12.3,5.8-21.2,18.2-21.2h76.2c.5,0,.9-.4.9-.9v-12.2c0-.5-.5-.9-.9-.9Z"/>
      <path id="path12" class="cls-1" d="M506.1,41.3h-154.7c-.5,0-.9.4-.9.9v12.2c0,.5.4.9.9.9h145.4c12.3,0,18.2,8.9,18.2,21.2s-5.8,21.2-18.2,21.2h-115c-17.9,0-31.3,15-31.3,35v38.7c0,.5.4.9.9.9h26.2c.5,0,.9-.4.9-.9v-38.7c0-12.3,7.1-21,17.3-21h110.3c24.8,0,36.9-15.3,36.9-35.2,0-20-12.1-35.3-36.9-35.3Z"/>
      <path id="path14" class="cls-1" d="M961.8,144.4h-26.2c-.5,0-.9-.5-.9-1V55.2c0-13.6-9.4-18-22.5-9.8l-157.7,97c-6.2,3.8-8.3,8.1-6.8,11.3,1.3,2.8,4.7,4.7,11.5,4.7h146.4c.4,0,.7.3.8.7v12.4c0,.5.4,1,.9,1h26.3c.5,0,.9-.4.9-1v-12.1c0-.5.4-1,.9-1h26.2c.5,0,1-.4,1-.9v-12.1c0-.5-.4-.9-.9-.9ZM906.5,143.4c0,.5-.4,1-.9,1h-122.8c-1,0-1.5-.3-1.7-.6-.1-.6.2-1,.9-1.5l122.2-75.4c.9-.5,2.3-.4,2.3,1.2v75.3s0,0,0,0Z"/>
    </g>
  </g>
</svg>