<?xml version="1.0" encoding="UTF-8" standalone="no"?>
<!-- Generator: Adobe Illustrator 26.3.1, SVG Export Plug-In . SVG Version: 6.00 Build 0)  -->

<svg
   version="1.1"
   id="Layer_1"
   x="0px"
   y="0px"
   viewBox="0 0 2140 298.7"
   style="enable-background:new 0 0 2140 298.7;"
   xml:space="preserve"
   sodipodi:docname="PSVR2.svg"
   inkscape:version="1.2.2 (732a01da63, 2022-12-09)"
   xmlns:inkscape="http://www.inkscape.org/namespaces/inkscape"
   xmlns:sodipodi="http://sodipodi.sourceforge.net/DTD/sodipodi-0.dtd"
   xmlns="http://www.w3.org/2000/svg"
   xmlns:svg="http://www.w3.org/2000/svg"><defs
   id="defs56" /><sodipodi:namedview
   id="namedview54"
   pagecolor="#ffffff"
   bordercolor="#111111"
   borderopacity="1"
   inkscape:showpageshadow="0"
   inkscape:pageopacity="0"
   inkscape:pagecheckerboard="1"
   inkscape:deskcolor="#d1d1d1"
   showgrid="false"
   inkscape:zoom="0.56542056"
   inkscape:cx="1110.6777"
   inkscape:cy="148.56198"
   inkscape:window-width="1920"
   inkscape:window-height="1009"
   inkscape:window-x="-8"
   inkscape:window-y="-8"
   inkscape:window-maximized="1"
   inkscape:current-layer="g48" />
<style
   type="text/css"
   id="style2">
	.st0{fill:#FFFFFF;}
</style>
<g
   id="VR2_x5F_black_00000053514224632503300390000011722051375231886524_"
   style="fill:#000000">
	<g
   id="g50"
   style="fill:#000000">
		<g
   id="g48"
   style="fill:#000000">
			<path
   class="st0"
   d="M228,71.6v91.4c38.5,18.6,68.7,0,68.7-49.1c0-50.2-17.8-72.5-70-90.5C206.1,16.4,167.9,4.9,141.6,0v272.9     l61.8,19.6V63.6c0-10.8,4.8-17.9,12.5-15.5C226,51,228,60.9,228,71.6"
   id="path4"
   style="fill:#000000" />
			<path
   class="st0"
   d="M350.6,191.7c-25.9-9.7-58.8-13.1-85.6-10.1c-26.9,2.9-46,9.7-46,9.7l-3.8,1.2v37.2l66-23.3     c11.3-4.1,27.8-4.9,37-1.9c9.1,3,7.4,8.6-3.9,12.8l-99.2,35.3v35.7L350,239.9c0,0,18.1-6.7,25.6-16     C383,214.4,379.7,200.9,350.6,191.7"
   id="path6"
   style="fill:#000000" />
			<path
   class="st0"
   d="M7.2,212.7c-13.6,10.2-8.6,27.7,21.2,36.1c32.1,10.6,64.6,12.7,95.1,7.6c2-0.3,4.2-0.7,6.2-1v-32.1l-30.6,11     c-11.3,4.2-27.7,5-36.9,1.9c-9.1-3-7.4-8.6,3.9-12.7l63.6-22.8v-35.9l-88.5,31.6C41.2,196.5,19.8,203.4,7.2,212.7"
   id="path8"
   style="fill:#000000" />
			
			
			<polygon
   class="st0"
   points="1710.9,57.4 1733.9,57.4 1787.5,214.4 1788,214.4 1841.4,57.4 1864.4,57.4 1801.1,234 1773.7,234         "
   id="polygon14"
   style="fill:#000000" />
			<path
   class="st0"
   d="M1882.6,57.4h60.8c31.2,0,54.9,13.8,54.9,46.7c0,20-11.4,35.6-32.6,41.1v0.5c13.4,3.2,19.5,11.9,25.7,33.1     c5.7,19.5,10.6,35.9,16.6,55.1h-23c-4-14.1-10.4-39.3-13.8-51.4c-6.4-21.3-11.1-27.9-38.6-27.9h-28.4V234h-21.5V57.4z      M1904.1,136.5h34.1c23.7,0,38.6-9.4,38.6-31.2c0-25-18.5-29.9-37.1-29.9h-35.6V136.5z"
   id="path16"
   style="fill:#000000" />
			<path
   class="st0"
   d="M2140,234h-111.3v-19.1c18.3-16.7,33.3-30.8,44.7-42.3c11.5-11.5,20.4-21.4,26.9-29.6     c6.4-8.3,10.8-15.5,13.1-21.7c2.3-6.2,3.5-12.4,3.5-18.7c0-4.8-0.9-9.1-2.7-12.9c-1.8-3.8-4.4-7-7.7-9.7     c-3.3-2.6-7.1-4.7-11.4-6.1c-4.3-1.4-8.8-2.1-13.6-2.1c-7.3,0-14.3,1.5-21.1,4.5c-6.8,3-13.2,6.9-19.3,11.9l-9.2-15.4     c6.4-5.8,14-10.4,22.7-13.8c8.7-3.4,17.6-5.1,26.9-5.1c8.1,0,15.6,1,22.6,3.1c6.9,2.1,13,5.1,18.1,9c5.1,4,9.1,9,12,15     c2.9,6,4.3,13,4.3,20.9c0,8.4-1.2,16.2-3.7,23.4s-6.9,14.9-13.1,23.2c-6.3,8.3-14.8,17.7-25.7,28.4c-10.8,10.7-24.5,23.6-41,38.8     h85V234z"
   id="path18"
   style="fill:#000000" />
			
			
			<path
   class="st0"
   d="M551.6,58.5l-74.6,0c-0.3,0-0.6,0.2-0.6,0.5v174.4c0,0.3,0.3,0.5,0.6,0.5h30.2c0.3,0,0.5-0.3,0.5-0.5     l0-155.5c0-0.2,0.1-0.3,0.2-0.3l34.6-0.1c12.6,0,19.5,12.7,19.5,35.7c0,23-6.9,35.7-19.5,35.7l-20.8,0c-0.3,0-0.5,0.2-0.5,0.5     v18.1c0,0.3,0.2,0.6,0.5,0.6h29.8c10.5,0,20.8-4.9,28.3-13.3c8.8-9.9,13.4-24.3,13.4-41.5C593.3,80.1,577,58.5,551.6,58.5"
   id="path24"
   style="fill:#000000" />
			<path
   class="st0"
   d="M642.7,58.5h-30.2c-0.3,0-0.6,0.2-0.6,0.5v174.4c0,0.3,0.2,0.5,0.6,0.5h30.2c0.3,0,0.6-0.3,0.6-0.5V59     C643.3,58.7,643,58.5,642.7,58.5"
   id="path26"
   style="fill:#000000" />
			<path
   class="st0"
   d="M774,100.4h-53.9c-48.3,0-54.5,35.4-54.5,66.6l0,26.9c0,23.2,14.4,40,34.2,40h29.4c0.3,0,0.5-0.3,0.5-0.5     v-18.1c0-0.3-0.3-0.6-0.5-0.6l-21,0c-4.8-0.1-11.3-2.1-11.3-18.8V167c0-19.3,1.8-31.7,5.8-38.7c4.3-7.8,11.2-8.8,17.3-8.8h23     c0.1,0,0.2,0.1,0.2,0.3c0,0,0,113.7,0,113.7c0,0.3,0.2,0.5,0.6,0.5H774c0.3,0,0.6-0.3,0.6-0.5V101.8v-0.8     C774.6,100.6,774.3,100.4,774,100.4"
   id="path28"
   style="fill:#000000" />
			<path
   class="st0"
   d="M992.1,131.5l-14.9-1.1c-11.2-1-19.5-7.2-19.5-25.4c0-21.4,9.6-27.2,22.4-27.2h41.2c0.3,0,0.5-0.2,0.5-0.5     V59c0-0.3-0.3-0.5-0.5-0.5h-0.8h0l-44.7,0c-28.1,0-48.1,16.5-48.1,49.4v1.4c0,26,16,44.7,39.8,46.6l14.8,1.1     c11.3,0.9,18.3,11,18.3,26.3v4.3c0,9.6-2.4,27.1-23,27.1h-42h-0.8c-0.3,0-0.5,0.3-0.5,0.6v18.1c0,0.3,0.3,0.5,0.5,0.5H988     c16.4,0,43.8-6.6,43.8-51.2c0-16.2-3.7-28.9-11.1-38.1C1014.4,136.7,1005,132.5,992.1,131.5"
   id="path30"
   style="fill:#000000" />
			<path
   class="st0"
   d="M1239.2,100.4h-54c-48.2,0-54.4,35.4-54.4,66.6l0,26.9c0,23.2,14.4,40,34.3,40h29.3c0.3,0,0.5-0.3,0.5-0.5     v-18.1c0-0.3-0.3-0.6-0.5-0.6l-21,0c-4.8-0.1-11.3-2.1-11.3-18.8V167c0-19.3,1.8-31.7,5.7-38.7c4.4-7.8,11.2-8.8,17.3-8.8h23.1     c0.1,0,0.2,0.1,0.2,0.3l0,113.7c0,0.3,0.2,0.5,0.5,0.5h30.2c0.3,0,0.5-0.3,0.5-0.5V100.9C1239.8,100.6,1239.5,100.4,1239.2,100.4     "
   id="path32"
   style="fill:#000000" />
			<path
   class="st0"
   d="M1118.3,100.4h-32.8c-0.1,0-0.2-0.1-0.2-0.2v-0.1V78.2c0-0.3-0.2-0.5-0.5-0.5h-30.2c-0.3,0-0.6,0.3-0.6,0.5     v115.7c0,23.2,14.5,40,34.3,40h21.6c0.3,0,0.6-0.3,0.6-0.5v-18.1c0-0.3-0.2-0.6-0.6-0.6h-13.3c-3.4,0-11.4-0.2-11.4-17.3v-77.9     c0-0.1,0.1-0.2,0.2-0.2c10.1,0,32.8,0,32.8,0c0.3,0,0.5-0.2,0.5-0.5v-18C1118.8,100.6,1118.6,100.4,1118.3,100.4"
   id="path34"
   style="fill:#000000" />
			<path
   class="st0"
   d="M1329.3,100.4h-32.6c-0.1,0-0.2-0.1-0.2-0.2v-0.1V78.2c0-0.3-0.2-0.5-0.5-0.5h-30.3c-0.3,0-0.6,0.3-0.6,0.5     v115.7c0,23.2,14.4,40,34.3,40h21.6c0.3,0,0.5-0.3,0.5-0.5v-18.1c0-0.3-0.2-0.6-0.5-0.6h-13.3c-3.4,0-11.3-0.2-11.3-17.3v-77.9     c0-0.1,0.1-0.2,0.2-0.2c10,0,32.7,0,32.7,0c0.3,0,0.5-0.2,0.5-0.5v-18C1329.8,100.6,1329.5,100.4,1329.3,100.4"
   id="path36"
   style="fill:#000000" />
			<path
   class="st0"
   d="M1379.2,100.4H1349c-0.3,0-0.5,0.2-0.5,0.5v132.5c0,0.3,0.3,0.5,0.5,0.5h30.2c0.3,0,0.6-0.3,0.6-0.5V100.9     C1379.8,100.6,1379.5,100.4,1379.2,100.4"
   id="path38"
   style="fill:#000000" />
			<path
   class="st0"
   d="M1379.2,58.5H1349c-0.3,0-0.5,0.2-0.5,0.5v25.3c0,0.3,0.3,0.5,0.5,0.5h30.2c0.3,0,0.6-0.2,0.6-0.5V59     C1379.8,58.7,1379.5,58.5,1379.2,58.5"
   id="path40"
   style="fill:#000000" />
			<path
   class="st0"
   d="M1588.2,100.4h-53.9c-0.3,0-0.5,0.2-0.5,0.5l0,132.5c0,0.3,0.2,0.5,0.5,0.5h30.3c0.3,0,0.5-0.3,0.5-0.5     l0-113.7c0-0.1,0.1-0.2,0.2-0.2l23,0c6.2,0,13,1,17.4,8.2c4,6.5,5.8,17.9,5.8,35.8c0,0.8,0,69.9,0,69.9c0,0.3,0.2,0.5,0.5,0.5     h30.1c0.3,0,0.6-0.3,0.6-0.5V167C1642.6,135.8,1636.4,100.4,1588.2,100.4"
   id="path42"
   style="fill:#000000" />
			<path
   class="st0"
   d="M1456.8,100.4c-50.5,0-56.9,35.6-56.9,66.8c0,31.2,6.4,66.9,56.9,66.9c50.5,0,56.9-35.7,56.9-66.9     C1513.7,136,1507.3,100.4,1456.8,100.4 M1476,206c-4.8,7.8-12.3,8.9-19.2,8.9c-6.8,0-14.4-1-19.2-8.9c-4.3-7.1-6.3-19.4-6.3-38.9     V167c0-23,2.8-36,9.2-42.2c3.8-3.8,8.7-5.3,16.4-5.3c7.8,0,12.6,1.5,16.4,5.3c6.3,6.2,9.1,19.3,9.1,42.4     C1482.3,186.6,1480.3,199,1476,206"
   id="path44"
   style="fill:#000000" />
			<path
   class="st0"
   d="M916.6,100.4h-28.7c-0.3,0-0.6,0.2-0.7,0.5l-33.3,86.3c-0.1,0.3-0.3,0.3-0.4,0l-29.4-86.3     c-0.1-0.3-0.4-0.5-0.7-0.5h-31.7c-0.3,0-0.4,0.2-0.4,0.5l44.8,131.3c0.1,0.3,0.1,0.7,0,1l-25.2,65c-0.1,0.3,0,0.5,0.3,0.5h26.3     c0.3,0,0.7-0.2,0.8-0.5l78.7-197.3C917,100.6,916.9,100.4,916.6,100.4"
   id="path46"
   style="fill:#000000" />
		</g>
	</g>
</g>
</svg>
