<?xml version="1.0" encoding="utf-8"?>
<!-- Generator: Adobe Illustrator 23.0.3, SVG Export Plug-In . SVG Version: 6.00 Build 0)  -->
<svg version="1.1"
	 id="svg2" inkscape:version="0.92.3 (2405546, 2018-03-11)" sodipodi:docname="PlayStation VR.svg" xmlns:cc="http://creativecommons.org/ns#" xmlns:dc="http://purl.org/dc/elements/1.1/" xmlns:inkscape="http://www.inkscape.org/namespaces/inkscape" xmlns:rdf="http://www.w3.org/1999/02/22-rdf-syntax-ns#" xmlns:sodipodi="http://sodipodi.sourceforge.net/DTD/sodipodi-0.dtd" xmlns:svg="http://www.w3.org/2000/svg"
	 xmlns="http://www.w3.org/2000/svg" xmlns:xlink="http://www.w3.org/1999/xlink" x="0px" y="0px" viewBox="0 0 1000 161.8"
	 style="enable-background:new 0 0 1000 161.8;" xml:space="preserve">
<g id="g54">
	<g>
		<g>
			<path d="M126.1,39.6v50.6c21.3,10.3,38,0,38-27.2c0-27.8-9.8-40.1-38.7-50.1C114,9.1,92.9,2.7,78.4,0v151l34.2,10.8V35.2
				c0-6,2.7-9.9,6.9-8.6C125,28.2,126.1,33.7,126.1,39.6z"/>
			<path d="M193.9,106.1c-14.3-5.4-32.5-7.2-47.4-5.6c-14.9,1.6-25.5,5.4-25.5,5.4l-2.1,0.7v20.6l36.5-12.9
				c6.3-2.2,15.4-2.7,20.5-1.1c5,1.6,4.1,4.8-2.1,7.1L119,139.7v19.8l74.6-26.8c0,0,10-3.7,14.2-8.9
				C211.9,118.6,210.1,111.2,193.9,106.1z"/>
			<path d="M4,117.7c-7.5,5.6-4.8,15.3,11.7,19.9c17.7,5.9,35.7,7,52.6,4.2c1.1-0.2,2.3-0.4,3.4-0.6v-17.7l-16.9,6.1
				c-6.2,2.3-15.3,2.8-20.4,1.1c-5-1.6-4.1-4.8,2.1-7l35.2-12.6V91.2l-49,17.5C22.8,108.7,10.9,112.5,4,117.7z"/>
		</g>
		<g>
			<path d="M202.6,147.9c-1.5-1.5-3.5-2.3-5.6-2.3c-4.4,0-8,3.6-8,8c0,2.1,0.8,4.1,2.3,5.6c1.5,1.5,3.6,2.3,5.7,2.3
				c2.1,0,4.1-0.8,5.6-2.3c1.5-1.5,2.3-3.5,2.3-5.6C204.9,151.4,204.1,149.4,202.6,147.9z M196.9,160.2c-1.8,0-3.5-0.7-4.7-1.9
				c-1.2-1.3-1.9-2.9-1.9-4.7c0-1.8,0.7-3.5,1.9-4.7c1.3-1.3,3-1.9,4.7-1.9c1.8,0,3.4,0.7,4.7,1.9c1.3,1.2,1.9,2.9,1.9,4.7
				C203.5,157.2,200.6,160.2,196.9,160.2z"/>
			<path d="M200.6,156.9c0-0.2-0.1-0.4-0.1-0.7l0-1.1c0-0.5-0.1-0.9-0.3-1.2c-0.1-0.2-0.3-0.3-0.5-0.5c0.3-0.2,0.5-0.5,0.7-0.7
				c0.2-0.3,0.3-0.8,0.3-1.3c0-1.1-0.5-1.8-1.3-2.2c-0.4-0.2-1-0.3-1.7-0.3h-3.9h-0.2v0.2v8.5v0.2h0.2h1.2h0.2v-0.2v-3.4h2.4
				c0.4,0,0.8,0,1,0.1c0.3,0.2,0.5,0.5,0.5,1l0.1,1.4c0,0.4,0,0.6,0.1,0.7c0,0.1,0.1,0.2,0.1,0.3l0.1,0.1h0.1h1.4h0.2v-0.2v-0.2
				v-0.1l-0.1-0.1C200.7,157.2,200.6,157.1,200.6,156.9z M198.7,152.5c-0.3,0.2-0.7,0.3-1.2,0.3h-2.5v-2.5h2.6
				c0.4,0,0.6,0.1,0.9,0.1c0.4,0.2,0.5,0.5,0.5,1.1C199.1,152,199,152.3,198.7,152.5z"/>
		</g>
	</g>
	<g>
		<path d="M315,46.6l-35.6,0c-0.1,0.1-0.1,0.1-0.2,0.2V130c0,0.1,0.1,0.2,0.2,0.2H294c0.1-0.1,0.1-0.1,0.2-0.2l0-74.1
			c0-0.1,0-0.1,0.1-0.1l16.5,0c6,0,9.3,6,9.3,17c0,11-3.3,17-9.3,17l-10,0c-0.1,0.1-0.1,0.1-0.2,0.2v8.8c0,0.1,0.1,0.2,0.2,0.2H315
			c5,0,9.9-2.3,13.4-6.3c4.2-4.7,6.4-11.6,6.4-19.8C334.9,56.9,327.1,46.6,315,46.6z"/>
		<path d="M358.5,46.6h-14.6c-0.1,0-0.2,0.1-0.2,0.2V130c0,0.1,0.1,0.2,0.2,0.2h14.6c0.1,0,0.2-0.1,0.2-0.2V46.8
			C358.7,46.7,358.6,46.6,358.5,46.6z"/>
		<path d="M421.3,67.2v-0.4c0-0.1-0.1-0.3-0.3-0.3h-25.7c-23,0-25.9,16.9-25.9,31.7l0,12.8c0,11,6.9,19,16.3,19h14.1
			c0.1,0,0.2-0.1,0.2-0.2v-8.8c-0.1-0.1-0.1-0.1-0.2-0.2l-10.1,0c-2.3,0-5.4-1-5.4-8.9V98.3c0-9.2,0.9-15.1,2.7-18.4
			c2.1-3.7,5.3-4.2,8.3-4.2l11.1,0c0,0,0,0,0,0l0,54.3c0.1,0.1,0.1,0.1,0.2,0.2h14.6c0.1-0.1,0.1-0.1,0.2-0.2L421.3,67.2z"/>
		<path d="M538.6,87.7c-3-3.8-7.5-5.8-13.7-6.3l-7.1-0.5c-5.3-0.5-9.3-3.4-9.3-12.2c0-10.2,4.6-12.9,10.7-12.9h19.7
			c0.1,0,0.2-0.1,0.2-0.2v-8.7c0-0.1-0.1-0.3-0.3-0.3h-0.4h0l-21.3,0c-13.4,0-22.9,7.9-22.9,23.6v0.7c0,12.4,7.6,21.3,19,22.2
			l7.1,0.5c5.4,0.4,8.7,5.2,8.7,12.5v2.1c0,4.6-1.1,12.9-10.9,12.9h-20h-0.4c-0.1,0-0.3,0.1-0.3,0.3v8.7c0,0.1,0.1,0.2,0.2,0.2H523
			c7.8,0,20.9-3.2,20.9-24.4C543.9,98.1,542.1,92,538.6,87.7z"/>
		<path d="M643,66.7c-0.1-0.1-0.1-0.1-0.2-0.2H617c-23,0-25.9,16.9-25.9,31.7l0,12.8c0,11,6.9,19,16.3,19h14.1
			c0.1,0,0.2-0.1,0.2-0.2v-8.8c-0.1-0.1-0.1-0.1-0.2-0.2l-10.1,0c-2.3-0.1-5.4-1-5.4-8.9V98.3c0-9.2,0.9-15.1,2.7-18.4
			c2.1-3.7,5.3-4.2,8.3-4.2l11.1,0c0,0,0,0,0,0l0,54.3c0.1,0.1,0.1,0.1,0.2,0.2h14.6c0.1-0.1,0.1-0.1,0.2-0.2L643,66.7z"/>
		<path d="M585.1,66.6h-15.7c-0.1,0-0.1,0-0.1-0.1l0-0.1l0-10.5c-0.1-0.1-0.1-0.1-0.2-0.2h-14.6c-0.1,0-0.2,0.1-0.2,0.2v55.2
			c0,11,6.9,19,16.3,19h10.4c0.1,0,0.2-0.1,0.2-0.2v-8.8c0-0.1-0.1-0.2-0.2-0.2h-6.4c-1.6,0-5.4-0.1-5.4-8.2V75.7
			c4.7,0,15.7,0,15.7,0c0.1,0,0.3-0.1,0.3-0.3v-8.7C585.3,66.7,585.2,66.6,585.1,66.6z"/>
		<path d="M685.7,66.6H670c0,0-0.1,0-0.1-0.1l0-0.1l0-10.5c-0.1-0.1-0.1-0.1-0.2-0.2h-14.6c-0.1,0-0.2,0.1-0.2,0.2v55.2
			c0,11,6.9,19,16.3,19h10.4c0.1,0,0.2-0.1,0.2-0.2v-8.8c0-0.1-0.1-0.2-0.2-0.2h-6.4c-1.6,0-5.4-0.1-5.4-8.2V75.7
			c4.7,0,15.7,0,15.7,0c0.1,0,0.3-0.1,0.3-0.3v-8.7C685.9,66.7,685.8,66.6,685.7,66.6z"/>
		<g>
			<path d="M709.5,66.6h-14.6c-0.1,0-0.2,0.1-0.2,0.2V130c0,0.1,0.1,0.2,0.2,0.2h14.6c0.1,0,0.2-0.1,0.2-0.2V66.7
				C709.7,66.7,709.6,66.6,709.5,66.6z"/>
			<path d="M709.5,46.6h-14.6c-0.1,0-0.2,0.1-0.2,0.2V59c0,0.1,0.1,0.2,0.2,0.2h14.6c0.1,0,0.2-0.1,0.2-0.2V46.8
				C709.7,46.7,709.6,46.6,709.5,46.6z"/>
		</g>
		<path d="M809,66.6h-25.8c-0.1,0-0.2,0.1-0.2,0.2V130c0,0.1,0.1,0.2,0.2,0.2h14.6c0.1-0.1,0.1-0.1,0.2-0.2l0-54.3c0,0,0,0,0,0
			l11.1,0c2.9,0,6.2,0.5,8.3,3.9c1.9,3.1,2.8,8.5,2.8,17.1c0,0.4,0,33.3,0,33.3c0,0.1,0.1,0.3,0.3,0.3h14.5c0.1,0,0.2-0.1,0.2-0.2
			V98.3C834.9,83.5,832,66.6,809,66.6z"/>
		<path d="M746.4,66.6c-24,0-27.1,17-27.1,31.8c0,14.8,3.1,31.8,27.1,31.8c24.1,0,27.1-17,27.1-31.8
			C773.5,83.6,770.5,66.6,746.4,66.6z M755.5,116.9c-2.3,3.7-5.9,4.2-9.1,4.2c-3.2,0-6.8-0.5-9.1-4.2c-2.1-3.4-3-9.3-3-18.5v-0.1
			c0-10.9,1.4-17.2,4.4-20.1c1.8-1.7,4.1-2.5,7.8-2.5c3.7,0,6,0.7,7.8,2.5c3,3,4.4,9.2,4.4,20.2
			C758.6,107.7,757.6,113.5,755.5,116.9z"/>
		<path d="M489.1,66.6h-13.9c-0.1,0.1-0.2,0.1-0.3,0.2l-16,41.4l-14.1-41.4c-0.1-0.1-0.2-0.1-0.3-0.2l-15.3,0c0,0.1,0,0.1-0.1,0.1
			l21.4,62.7c0,0.1,0,0.3,0,0.4L438.5,161c0,0.1,0,0.1,0.1,0.1h12.7c0.1-0.1,0.2-0.1,0.3-0.2l37.6-94.2
			C489.1,66.6,489.1,66.6,489.1,66.6z"/>
		<g>
			<path d="M858.8,116.5c-1.9-1.9-4.6-2.7-7.4-2.2c-3,0.6-5.5,3-6.1,6c-0.6,2.8,0.2,5.5,2.1,7.5c1.5,1.5,3.6,2.3,5.7,2.3
				c2.1,0,4.1-0.8,5.7-2.3c1.5-1.5,2.3-3.5,2.3-5.6C861.1,120.1,860.3,118,858.8,116.5z M856.9,127.7c-2.8,1.8-6.3,1.3-8.5-0.8
				c-1.3-1.3-1.9-2.9-1.9-4.7c0-1.8,0.7-3.5,1.9-4.7c1.3-1.3,3-1.9,4.7-1.9c1.8,0,3.4,0.7,4.7,1.9c1.5,1.4,2.1,3.4,1.9,5.6
				C859.5,125,858.5,126.7,856.9,127.7z"/>
			<path d="M856.8,125.5c0-0.2-0.1-0.4-0.1-0.7l0-1.1c0-0.5-0.1-0.9-0.3-1.2c-0.1-0.2-0.3-0.3-0.5-0.5c0.2-0.2,0.5-0.4,0.7-0.7
				c0.2-0.4,0.3-0.8,0.3-1.3c0-1.1-0.4-1.8-1.3-2.2c-0.5-0.2-1-0.3-1.7-0.3h-3.9h-0.2v0.2v8.5v0.2h0.2h1.2h0.2v-0.2v-3.4h2.4
				c0.4,0,0.8,0.1,1,0.1c0.3,0.2,0.5,0.5,0.5,1l0.1,1.4c0,0.3,0,0.6,0.1,0.7c0,0.1,0.1,0.2,0.1,0.3l0,0.1h0.1h1.4h0.2v-0.2v-0.2V126
				l-0.1-0.1C857,125.9,856.9,125.7,856.8,125.5z M855,121.2c-0.3,0.2-0.7,0.3-1.2,0.3h-2.5V119h2.6c0.4,0,0.6,0.1,0.9,0.1
				c0.4,0.2,0.5,0.5,0.5,1.1C855.3,120.7,855.2,121,855,121.2z"/>
		</g>
	</g>
	<g>
		<polygon points="895.7,120.9 895.4,120.9 869.9,46.6 859,46.6 888.9,130.2 901.9,130.2 931.9,46.6 921,46.6 		"/>
		<path d="M992.1,104.1c-2.9-10-5.9-14.1-12.2-15.7v-0.2c10.2-2.6,15.5-10,15.5-19.5c0-15.6-11.2-22.1-26.1-22.1h-28.8v83.5h10.1
			V92.6h13.5c13,0,15.4,3.2,18.3,13.2c1.7,5.8,4.7,17.7,6.5,24.4h10.9C997.2,121,994.9,113.3,992.1,104.1z M966.9,84h-16.3V55.1
			h16.9c8.8,0,17.7,2.4,17.7,14.1C985.3,79.6,978.2,84,966.9,84z"/>
	</g>
</g>
</svg>
