<?xml version="1.0" encoding="UTF-8" standalone="no"?>
<!-- Created with Inkscape (http://www.inkscape.org/) -->

<svg
   width="1123.5"
   height="239.39999"
   viewBox="0 0 297.25936 63.341251"
   version="1.1"
   id="svg2041"
   xml:space="preserve"
   inkscape:version="1.2 (dc2aedaf03, 2022-05-15)"
   sodipodi:docname="PlayStation 1994 Logo (Horizontal, without Registered Trademark Symbol).svg"
   xmlns:inkscape="http://www.inkscape.org/namespaces/inkscape"
   xmlns:sodipodi="http://sodipodi.sourceforge.net/DTD/sodipodi-0.dtd"
   xmlns="http://www.w3.org/2000/svg"
   xmlns:svg="http://www.w3.org/2000/svg"><sodipodi:namedview
     id="namedview2043"
     pagecolor="#ffffff"
     bordercolor="#000000"
     borderopacity="0.25"
     inkscape:showpageshadow="2"
     inkscape:pageopacity="0.0"
     inkscape:pagecheckerboard="0"
     inkscape:deskcolor="#d1d1d1"
     inkscape:document-units="mm"
     showgrid="false"
     inkscape:zoom="1.0544998"
     inkscape:cx="593.64641"
     inkscape:cy="138.45427"
     inkscape:window-width="1920"
     inkscape:window-height="1017"
     inkscape:window-x="-8"
     inkscape:window-y="-8"
     inkscape:window-maximized="1"
     inkscape:current-layer="layer1" /><defs
     id="defs2038">
	
	
	
	
	
	
	
	
	
	
	
	
</defs><g
     inkscape:label="Lapis 1"
     inkscape:groupmode="layer"
     id="layer1"><g
       id="g2598"><polygon
         fill="#ffffff"
         points="0,0 0,896.618 896.623,896.618 896.623,0 "
         id="polygon2097"
         transform="matrix(0.06984338,0,0,0.06984338,0.29255834,0.2623526)" /><polygon
         points="8.965,8.965 8.965,887.648 887.653,887.648 887.653,8.965 "
         id="polygon2099"
         transform="matrix(0.06984338,0,0,0.06984338,0.29255834,0.2623526)"
         style="fill:#000000" /><path
         fill="#00b49d"
         d="m 29.293975,35.500643 -7.115504,-2.091669 c 0,0 -8.736988,3.124932 -9.428926,3.359606 -0.691589,0.234324 -1.650609,0.612596 -1.650609,0.612596 l 6.83187,2.193152 z"
         id="path2105"
         style="stroke-width:0.0698434" /><path
         fill="#00b49d"
         d="m 29.164974,43.180831 -6.930489,-2.224722 11.551467,-4.135077 7.339771,2.157811 c 0,0 -9.651308,3.417018 -10.237224,3.628015 -0.586265,0.210997 -1.723525,0.573973 -1.723525,0.573973 z"
         id="path2107"
         style="stroke-width:0.0698434" /><path
         fill="#00b49d"
         d="m 52.637658,42.363035 -7.033857,-2.067644 -12.022002,4.3034 6.782072,2.177228 c 0,0 10.456951,-3.758831 10.972884,-3.934487 0.516003,-0.176076 1.300903,-0.478497 1.300903,-0.478497 z"
         id="path2109"
         style="stroke-width:0.0698434" /><polygon
         fill="#fdb913"
         points="379.917,669.362 478.45,700.346 573.73,665.971 476.627,634.798 "
         id="polygon2111"
         transform="matrix(0.06984338,0,0,0.06984338,0.29255834,0.2623526)" /><path
         fill="#fdb913"
         d="m 22.234485,40.956179 6.930489,2.224722 C 21.427515,45.732768 15.634006,44.811464 12.06955,43.826463 8.5051621,42.841532 7.5202307,41.797862 7.4262215,40.531671 c -0.09366,-1.266609 1.840862,-2.392136 3.6726445,-3.150495 l 6.83187,2.193152 -1.733862,0.617346 c -0.76227,0.258001 -2.298126,1.019992 -1.020272,1.617922 1.368022,0.640114 3.939725,0.304936 5.334987,-0.222661 z"
         id="path2113"
         style="stroke-width:0.0698434" /><polygon
         fill="#3777bc"
         points="365.226,456.288 465.991,486.464 415.235,504.533 313.357,474.585 "
         id="polygon2115"
         transform="matrix(0.06984338,0,0,0.06984338,0.29255834,0.2623526)" /><path
         fill="#3777bc"
         d="m 41.125792,38.978843 -7.33984,-2.157811 c 3.352761,-1.287702 5.989908,-1.964345 9.789038,-2.081752 4.197098,-0.129559 7.41597,0.87423 8.523966,1.219605 2.333258,0.727 4.092123,1.688325 4.244452,2.978192 0.199822,1.692724 -2.275498,2.911072 -3.70582,3.425958 l -7.033857,-2.067644 c 0,0 1.723246,-0.607987 2.403171,-0.84266 0.679925,-0.234255 1.383597,-0.703253 1.242863,-1.125526 -0.140944,-0.421994 -0.984233,-0.61553 -1.195789,-0.644934 -0.422343,-0.05832 -1.164219,-0.161408 -2.43893,-0.04666 -1.04353,0.09373 -1.805801,0.387002 -1.805801,0.387002 z"
         id="path2117"
         style="stroke-width:0.0698434" /><path
         fill="#ed1c24"
         d="m 25.682932,11.431706 v 35.252888 l 7.976324,2.531473 V 19.64885 c 0,-1.384855 0.618742,-2.311467 1.616036,-1.992213 v 0 c 1.30188,0.363256 1.555342,1.638596 1.555342,3.02345 v 11.809119 c 4.972569,2.399539 8.885475,-0.0026 8.885475,-6.339684 0,-6.50172 -2.289466,-9.388696 -9.04388,-11.706029 -2.657121,-0.895113 -7.597353,-2.382428 -10.989297,-3.011787 z"
         id="path2119"
         style="stroke-width:0.0698434" /><g
         id="g2200"
         transform="matrix(0.21515429,0,0,0.21515429,81.231776,14.727088)"
         style="fill:#000000"><g
           id="g4790"
           transform="matrix(2.0247915,0,0,2.0247915,0,3.0963379e-4)"
           style="fill:#000000"><path
             d="M 0,0 V 73.572 H 11.486 V 7.05 H 22.12 c 0,0 7.716,-0.009 10.364,3.454 2.245,2.921 2.66,8.245 2.66,11.85 0,3.854 -0.254,9.783 -1.542,11.956 -1.957,3.33 -5.182,4.001 -8.122,4.001 h -6.994 v 6.518 h 10.078 c 0,0 9.102,0.395 13.017,-3.588 4.803,-4.887 6.033,-11.455 6.033,-20.232 0,-7.978 -2.907,-16.021 -8.82,-18.744 C 33.889,0 25.066,0 25.066,0 Z"
             id="path4699"
             inkscape:connector-curvature="0"
             style="fill:#000000" /><g
             id="g4701"
             style="fill:#000000">
				<rect
   x="56.623001"
   width="11.482"
   height="73.571999"
   id="rect4703"
   y="0"
   style="fill:#000000" />
			</g><polygon
             points="129.19,17.16 150.198,72.231 138.155,101.756 147.682,101.756 182.406,17.16 171.765,17.16 156.633,58.401 142.564,17.16 "
             id="polygon4705"
             style="fill:#000000" /><path
             d="m 191.05,73.127 v -6.954 c 0,0 12.157,0.469 14.677,0.469 5.603,0 8.402,-1.199 10.496,-3.454 1.25,-1.341 2.386,-7.362 2.386,-9.498 0,-2.113 -0.419,-6.748 -1.259,-8.604 -0.839,-1.869 -2.802,-3.587 -5.741,-3.845 -2.09,-0.179 -5.323,-0.588 -9.104,-0.767 -5.32,-0.253 -8.819,-3.018 -10.507,-5.016 -1.673,-1.989 -3.916,-4.97 -3.916,-14.151 0,-9.187 2.379,-14.331 4.76,-16.729 2.386,-2.397 5.864,-3.454 8.547,-3.909 3.075,-0.546 8.114,-0.574 8.114,-0.574 l 16.071,0.473 v 6.95 c 0,0 -11.725,-0.469 -14.245,-0.469 -5.603,0 -7.288,1.194 -9.382,3.454 -1.25,1.341 -2.204,5.048 -2.204,7.184 0,2.131 0.235,6.43 1.09,8.3 0.831,1.864 2.787,3.592 5.737,3.835 2.085,0.184 5.316,0.602 9.102,0.776 5.316,0.248 8.816,3.013 10.503,5.011 1.679,1.989 3.92,6.188 3.92,15.373 0,9.182 -2.386,15.736 -4.763,18.134 -2.386,2.402 -5.869,3.445 -8.552,3.899 -3.076,0.556 -8.113,0.569 -8.113,0.569 z"
             id="path4707"
             inkscape:connector-curvature="0"
             style="fill:#000000" /><path
             d="m 253.709,7.05 h -11.484 v 54.01 c 0,0 0.278,4.92 0.56,6.646 0.286,1.736 2.802,5.865 9.384,5.865 l 11.902,-0.248 v -6.936 c 0,0 -3.225,0.239 -5.184,0.239 -1.958,0 -4.342,-0.134 -4.762,-3.459 -0.416,-3.325 -0.416,-7.303 -0.416,-7.303 V 24.068 h 12.944 V 17.16 h -12.944 z"
             id="path4709"
             inkscape:connector-curvature="0"
             style="fill:#000000" /><g
             id="g4711"
             style="fill:#000000">
				<rect
   x="364.50299"
   y="17.16"
   width="11.487"
   height="56.411999"
   id="rect4713"
   style="fill:#000000" />
			</g><g
             id="g4715"
             style="fill:#000000">
				<rect
   x="364.50299"
   width="11.487"
   height="10.243"
   id="rect4717"
   y="0"
   style="fill:#000000" />
			</g><path
             d="m 412.263,16.668 c 7.822,0 13.862,1.759 17.146,4.4 3.271,2.631 7.299,8.194 7.299,24.292 0,16.095 -4.028,21.666 -7.299,24.303 -3.283,2.632 -9.323,4.387 -17.146,4.387 -7.809,0 -13.871,-1.755 -17.142,-4.387 -3.275,-2.637 -7.303,-8.208 -7.303,-24.303 0,-16.099 4.027,-21.661 7.303,-24.292 3.271,-2.64 9.333,-4.4 17.142,-4.4 z m -7.868,10.84 c -1.58,1.916 -3.514,6.021 -3.514,17.854 0,11.823 1.934,15.925 3.514,17.863 1.57,1.929 4.482,3.21 8.227,3.21 3.757,0 6.655,-1.281 8.235,-3.21 1.575,-1.938 3.514,-6.04 3.514,-17.863 0,-11.832 -1.938,-15.938 -3.514,-17.854 -1.58,-1.947 -4.479,-3.229 -8.235,-3.229 -3.745,0 -6.657,1.282 -8.227,3.229 z"
             id="path4719"
             inkscape:connector-curvature="0"
             style="fill:#000000" /><path
             d="m 460.495,25.069 11.262,-0.455 c 2.94,0 6.403,0.8 8.094,2.908 1.57,2.007 2.54,4.399 2.54,8.263 v 37.719 h 11.487 V 34.853 c 0,-7.33 -2.237,-11.579 -5.604,-14.239 -4.818,-3.812 -13.431,-3.454 -13.431,-3.454 L 449.1,17.638 v 55.866 h 11.396 V 25.069 Z"
             id="path4721"
             inkscape:connector-curvature="0"
             style="fill:#000000" /><path
             d="m 341.639,7.05 h -11.482 v 54.01 c 0,0 0.279,4.92 0.564,6.646 0.285,1.736 2.802,5.865 9.384,5.865 l 11.896,-0.248 v -6.936 c 0,0 -3.216,0.239 -5.177,0.239 -1.957,0 -4.345,-0.134 -4.763,-3.459 -0.423,-3.325 -0.423,-7.303 -0.423,-7.303 V 24.068 H 354.59 V 17.16 H 341.638 V 7.05 Z"
             id="path4723"
             inkscape:connector-curvature="0"
             style="fill:#000000" /><path
             d="m 111.675,35.785 c 0,-3.863 -0.979,-6.256 -2.556,-8.263 -1.681,-2.108 -5.138,-2.908 -8.088,-2.908 l -15.138,0.455 v -7.432 l 18.222,-0.478 c 0,0 8.617,-0.358 13.445,3.454 3.363,2.66 5.597,6.909 5.597,14.239 v 38.109 l -22.002,0.459 c 0,0 -9.974,0.051 -14.979,-1.988 -4.904,-1.989 -7.563,-7.464 -7.563,-15.038 0,-7.313 2.242,-11.565 5.607,-14.229 4.813,-3.813 13.435,-3.459 13.435,-3.459 h 7.023 v 6.518 h -3.938 c -2.941,0 -5.984,0.542 -7.67,2.655 -1.57,2.012 -2.414,3.734 -2.414,7.597 0,5.053 0.988,7.317 3.36,9.049 2.102,1.521 5.88,1.855 10.081,1.855 l 7.58,-0.474 V 35.785 Z"
             id="path4725"
             inkscape:connector-curvature="0"
             style="fill:#000000" /><path
             d="m 305.293,35.785 c 0,-3.863 -0.979,-6.256 -2.563,-8.263 -1.686,-2.108 -5.14,-2.908 -8.077,-2.908 l -15.146,0.455 v -7.432 l 18.219,-0.478 c 0,0 8.623,-0.358 13.441,3.454 3.362,2.66 5.604,6.909 5.604,14.239 V 72.961 L 294.77,73.42 c 0,0 -9.974,0.051 -14.985,-1.988 -4.896,-1.989 -7.556,-7.464 -7.556,-15.038 0,-7.313 2.232,-11.565 5.597,-14.229 4.816,-3.813 13.444,-3.459 13.444,-3.459 h 7.021 v 6.518 h -3.937 c -2.941,0 -5.982,0.542 -7.666,2.655 -1.584,2.012 -2.423,3.734 -2.423,7.597 0,5.053 0.983,7.317 3.365,9.049 2.097,1.521 5.883,1.855 10.084,1.855 l 7.578,-0.474 V 35.785 Z"
             id="path4727"
             inkscape:connector-curvature="0"
             style="fill:#000000" /></g><g
           id="g4729"
           transform="translate(0,104.279)"
           style="fill:#000000">
		
		
	</g></g></g></g></svg>
