<?xml version="1.0" encoding="UTF-8"?>
<svg xmlns="http://www.w3.org/2000/svg" version="1.1" xmlns:inkscape="http://www.inkscape.org/namespaces/inkscape" xmlns:sodipodi="http://sodipodi.sourceforge.net/DTD/sodipodi-0.dtd" xmlns:svg="http://www.w3.org/2000/svg" viewBox="0 0 1123.5 239.4">
  <defs>
    <style>
      .cls-1 {
        fill: #00b49d;
      }

      .cls-1, .cls-2, .cls-3, .cls-4, .cls-5 {
        stroke-width: 0px;
      }

      .cls-2 {
        fill: #3777bc;
      }

      .cls-3 {
        fill: #ed1c24;
      }

      .cls-4 {
        fill: #fff;
      }

      .cls-5 {
        fill: #fdb913;
      }
    </style>
  </defs>
  <g id="svg2041" inkscape:version="1.2 (dc2aedaf03, 2022-05-15)">
    <g id="layer1" inkscape:groupmode="layer" inkscape:label="Lapis 1">
      <g id="g2598">
        <polygon id="polygon2097" class="cls-4" points="1.1 1 1.1 237.7 237.8 237.7 237.8 1 1.1 1"/>
        <polygon id="polygon2099" class="cls-4" points="3.5 3.4 3.5 235.3 235.4 235.3 235.4 3.4 3.5 3.4"/>
        <path id="path2105" class="cls-1" d="M110.7,134.2l-26.9-7.9s-33,11.8-35.6,12.7c-2.6.9-6.2,2.3-6.2,2.3l25.8,8.3,42.9-15.4Z"/>
        <path id="path2107" class="cls-1" d="M110.2,163.2l-26.2-8.4,43.7-15.6,27.7,8.2s-36.5,12.9-38.7,13.7c-2.2.8-6.5,2.2-6.5,2.2h0Z"/>
        <path id="path2109" class="cls-1" d="M198.9,160.1l-26.6-7.8-45.4,16.3,25.6,8.2s39.5-14.2,41.5-14.9c2-.7,4.9-1.8,4.9-1.8h0Z"/>
        <polygon id="polygon2111" class="cls-5" points="101.4 177.7 127.4 185.9 152.6 176.8 126.9 168.6 101.4 177.7"/>
        <path id="path2113" class="cls-5" d="M84,154.8l26.2,8.4c-29.2,9.6-51.1,6.2-64.6,2.4-13.5-3.7-17.2-7.7-17.5-12.5-.4-4.8,7-9,13.9-11.9l25.8,8.3-6.6,2.3c-2.9,1-8.7,3.9-3.9,6.1,5.2,2.4,14.9,1.2,20.2-.8l6.5-2.4Z"/>
        <polygon id="polygon2115" class="cls-2" points="97.5 121.4 124.1 129.4 110.7 134.2 83.8 126.3 97.5 121.4"/>
        <path id="path2117" class="cls-2" d="M155.4,147.3l-27.7-8.2c12.7-4.9,22.6-7.4,37-7.9,15.9-.5,28,3.3,32.2,4.6,8.8,2.7,15.5,6.4,16,11.3.8,6.4-8.6,11-14,12.9l-26.6-7.8s6.5-2.3,9.1-3.2c2.6-.9,5.2-2.7,4.7-4.3-.5-1.6-3.7-2.3-4.5-2.4-1.6-.2-4.4-.6-9.2-.2-3.9.4-6.8,1.5-6.8,1.5l-10.1,3.6Z"/>
        <path id="path2119" class="cls-3" d="M97.1,43.2v133.2l30.1,9.6v-111.8c0-5.2,2.3-8.7,6.1-7.5h0c4.9,1.4,5.9,6.2,5.9,11.4v44.6c18.8,9.1,33.6,0,33.6-24s-8.7-35.5-34.2-44.2c-10-3.4-28.7-9-41.5-11.4h0Z"/>
        <g id="g2200">
          <g id="g4790">
            <path id="path4699" class="cls-4" d="M307,55.7v121.1h18.9v-109.5h17.5s12.7,0,17.1,5.7c3.7,4.8,4.4,13.6,4.4,19.5s-.4,16.1-2.5,19.7c-3.2,5.5-8.5,6.6-13.4,6.6h-11.5v10.7h16.6s15,.7,21.4-5.9c7.9-8,9.9-18.9,9.9-33.3s-4.8-26.4-14.5-30.9c-8.1-3.7-22.6-3.7-22.6-3.7h-41.3Z" inkscape:connector-curvature="0"/>
            <g id="g4701">
              <rect id="rect4703" class="cls-4" x="400.2" y="55.7" width="18.9" height="121.1"/>
            </g>
            <polygon id="polygon4705" class="cls-4" points="519.7 83.9 554.3 174.6 534.5 223.2 550.2 223.2 607.4 83.9 589.8 83.9 564.9 151.8 541.8 83.9 519.7 83.9"/>
            <path id="path4707" class="cls-4" d="M621.6,176.1v-11.4s20,.8,24.2.8c9.2,0,13.8-2,17.3-5.7,2.1-2.2,3.9-12.1,3.9-15.6s-.7-11.1-2.1-14.2c-1.4-3.1-4.6-5.9-9.5-6.3-3.4-.3-8.8-1-15-1.3-8.8-.4-14.5-5-17.3-8.3-2.8-3.3-6.4-8.2-6.4-23.3s3.9-23.6,7.8-27.5c3.9-3.9,9.7-5.7,14.1-6.4,5.1-.9,13.4-.9,13.4-.9l26.5.8v11.4s-19.3-.8-23.5-.8c-9.2,0-12,2-15.4,5.7-2.1,2.2-3.6,8.3-3.6,11.8s.4,10.6,1.8,13.7c1.4,3.1,4.6,5.9,9.4,6.3,3.4.3,8.8,1,15,1.3,8.8.4,14.5,5,17.3,8.3,2.8,3.3,6.5,10.2,6.5,25.3s-3.9,25.9-7.8,29.9c-3.9,4-9.7,5.7-14.1,6.4-5.1.9-13.4.9-13.4.9l-29-.8Z" inkscape:connector-curvature="0"/>
            <path id="path4709" class="cls-4" d="M724.8,67.3h-18.9v88.9s.5,8.1.9,10.9c.5,2.9,4.6,9.7,15.5,9.7l19.6-.4v-11.4s-5.3.4-8.5.4-7.1-.2-7.8-5.7c-.7-5.5-.7-12-.7-12v-52.4h21.3v-11.4h-21.3v-16.6Z" inkscape:connector-curvature="0"/>
            <g id="g4711">
              <rect id="rect4713" class="cls-4" x="907.2" y="83.9" width="18.9" height="92.9"/>
            </g>
            <g id="g4715">
              <rect id="rect4717" class="cls-4" x="907.2" y="55.7" width="18.9" height="16.9"/>
            </g>
            <path id="path4719" class="cls-4" d="M985.8,83.1c12.9,0,22.8,2.9,28.2,7.2,5.4,4.3,12,13.5,12,40s-6.6,35.7-12,40c-5.4,4.3-15.4,7.2-28.2,7.2s-22.8-2.9-28.2-7.2c-5.4-4.3-12-13.5-12-40s6.6-35.7,12-40c5.4-4.3,15.4-7.2,28.2-7.2ZM972.9,101c-2.6,3.2-5.8,9.9-5.8,29.4s3.2,26.2,5.8,29.4c2.6,3.2,7.4,5.3,13.5,5.3s11-2.1,13.6-5.3c2.6-3.2,5.8-9.9,5.8-29.4s-3.2-26.2-5.8-29.4c-2.6-3.2-7.4-5.3-13.6-5.3s-11,2.1-13.5,5.3Z" inkscape:connector-curvature="0"/>
            <path id="path4721" class="cls-4" d="M1065.2,96.9l18.5-.7c4.8,0,10.5,1.3,13.3,4.8,2.6,3.3,4.2,7.2,4.2,13.6v62.1h18.9v-63.6c0-12.1-3.7-19.1-9.2-23.4-7.9-6.3-22.1-5.7-22.1-5.7l-42.4.8v92h18.8v-79.7h0Z" inkscape:connector-curvature="0"/>
            <path id="path4723" class="cls-4" d="M869.5,67.3h-18.9v88.9s.5,8.1.9,10.9c.5,2.9,4.6,9.7,15.5,9.7l19.6-.4v-11.4s-5.3.4-8.5.4-7.2-.2-7.8-5.7c-.7-5.5-.7-12-.7-12v-52.4h21.3v-11.4h-21.3v-16.6h0Z" inkscape:connector-curvature="0"/>
            <path id="path4725" class="cls-4" d="M490.9,114.6c0-6.4-1.6-10.3-4.2-13.6-2.8-3.5-8.5-4.8-13.3-4.8l-24.9.7v-12.2l30-.8s14.2-.6,22.1,5.7c5.5,4.4,9.2,11.4,9.2,23.4v62.7l-36.2.8s-16.4,0-24.7-3.3c-8.1-3.3-12.5-12.3-12.5-24.8s3.7-19,9.2-23.4c7.9-6.3,22.1-5.7,22.1-5.7h11.6v10.7h-6.5c-4.8,0-9.9.9-12.6,4.4-2.6,3.3-4,6.1-4,12.5s1.6,12,5.5,14.9c3.5,2.5,9.7,3.1,16.6,3.1l12.5-.8v-49.6h0Z" inkscape:connector-curvature="0"/>
            <path id="path4727" class="cls-4" d="M809.7,114.6c0-6.4-1.6-10.3-4.2-13.6-2.8-3.5-8.5-4.8-13.3-4.8l-24.9.7v-12.2l30-.8s14.2-.6,22.1,5.7c5.5,4.4,9.2,11.4,9.2,23.4v62.7l-36.2.8s-16.4,0-24.7-3.3c-8.1-3.3-12.4-12.3-12.4-24.8s3.7-19,9.2-23.4c7.9-6.3,22.1-5.7,22.1-5.7h11.6v10.7h-6.5c-4.8,0-9.8.9-12.6,4.4-2.6,3.3-4,6.1-4,12.5s1.6,12,5.5,14.9c3.5,2.5,9.7,3.1,16.6,3.1l12.5-.8v-49.6h0Z" inkscape:connector-curvature="0"/>
          </g>
        </g>
      </g>
    </g>
  </g>
</svg>