<?xml version="1.0" encoding="UTF-8"?>
<svg xmlns="http://www.w3.org/2000/svg" version="1.1" xmlns:cc="http://creativecommons.org/ns#" xmlns:dc="http://purl.org/dc/elements/1.1/" xmlns:inkscape="http://www.inkscape.org/namespaces/inkscape" xmlns:rdf="http://www.w3.org/1999/02/22-rdf-syntax-ns#" xmlns:sodipodi="http://sodipodi.sourceforge.net/DTD/sodipodi-0.dtd" xmlns:svg="http://www.w3.org/2000/svg" viewBox="0 0 959.2 215.3">
  <defs>
    <style>
      .cls-1 {
        fill: #fff;
        stroke-width: 0px;
      }
    </style>
  </defs>
  <g id="Layer_1" data-name="Layer 1" inkscape:version="1.1.2 (b8e25be833, 2022-02-05)">
    <sodipodi:namedview id="namedview23" bordercolor="#666666" borderopacity="1.0" inkscape:current-layer="g20" inkscape:cx="500.36075" inkscape:cy="107.86436" inkscape:pagecheckerboard="0" inkscape:pageopacity="0.0" inkscape:pageshadow="2" inkscape:window-height="1001" inkscape:window-maximized="1" inkscape:window-width="1920" inkscape:window-x="-9" inkscape:window-y="-9" inkscape:zoom="1.386" pagecolor="#ffffff" showgrid="false"/>
    <g id="g20">
      <path id="path2" class="cls-1" d="M615.7,172.2c19.3,0,34.9-15.5,34.9-34.7v-59.7c0-11.5,9.4-20.9,21-20.9h67.6c.5,0,.9-.4.9-.9v-11.9c0-.5-.4-.9-.9-.9h-81.5c-19.3,0-34.9,15.5-34.9,34.7v59.7c0,11.5-9.4,20.9-21,20.9h-66.7c-.5,0-.9.4-.9.9v11.9c0,.5.4.9.9.9h80.6Z"/>
      <path id="path4" class="cls-1" d="M768,91.6v-47.6c0-.5.4-.9.9-.9h184.2c.5,0,.9.4.9.9v11.9c0,.5-.4.9-.9.9h-156.5c-.5,0-.9.4-.9.9v31c0,5.5,4.5,9.9,10,9.9h116.5c20.4,0,36.9,16.5,36.9,36.7s-16.5,36.7-36.9,36.7h-153.3c-.5,0-.9-.4-.9-.9v-11.9c0-.5.4-.9.9-.9h139.4c12.7,0,23-10.2,23.1-22.9,0-12.7-10.5-23-23.3-23h-119.1c-11.6,0-21-9.4-21-20.9Z"/>
      <path id="path6" class="cls-1" d="M494.6,98.7c11.6,0,21-9.4,21-20.9s-9.4-20.9-21-20.9h-141.3c-.5,0-.9-.4-.9-.9v-11.9c0-.5.4-.9.9-.9h155.2c19.3,0,34.9,15.5,34.9,34.7s-15.6,34.7-34.9,34.7h-107.3c-11.6,0-21,9.4-21,20.9v37.9c0,.5-.4.9-.9.9h-25.9c-.5,0-.9-.4-.9-.9v-37.9c0-19.2,15.6-34.7,34.9-34.7h107.3Z"/>
      <path id="path8" class="cls-1" d="M104.7,0v200.8l45.7,14.4V46.9c0-7.9,3.6-13.2,9.3-11.4,7.4,2.1,8.9,9.4,8.9,17.2v67.2c28.4,13.7,50.8,0,50.8-36.2s-13.1-53.4-51.7-66.6C152.4,12.1,124.2,3.6,104.7,0Z"/>
      <path id="path10" class="cls-1" d="M159.1,185.9l73.4-26c8.3-3,9.6-7.2,2.9-9.4-6.8-2.2-19-1.6-27.4,1.4l-48.8,17.1v-27.4l2.8-.9s14.1-5,34-7.1c19.8-2.2,44.2.3,63.3,7.4,21.5,6.8,23.9,16.8,18.5,23.7-5.5,6.8-18.9,11.8-18.9,11.8l-99.7,35.6v-26.3Z"/>
      <path id="path12" class="cls-1" d="M21,183.1c-22.1-6.1-25.8-19.1-15.7-26.5,9.3-6.8,25.1-12,25.1-12l65.4-23.2v26.4l-47.1,16.8c-8.3,3-9.6,7.1-2.9,9.3,6.8,2.3,19,1.7,27.3-1.4l22.6-8.1v23.6c-1.4.2-3.1.5-4.6.8-22.5,3.7-46.6,2.2-70.3-5.6Z"/>
    </g>
  </g>
</svg>