<svg xmlns="http://www.w3.org/2000/svg" width="201.2" height="34.216702" viewBox="0 0 53.234165 9.053169"><path d="M.884 7.7c.98.317 2.011.396 2.937.238.053 0 .132-.027.185-.027V6.906l-.952.344c-.344.132-.847.158-1.138.053-.291-.08-.238-.265.106-.397L3.98 6.19V5.08l-2.699.979s-.661.212-1.058.503c-.424.317-.265.873.661 1.137m5.768 1.217 4.18-1.508s.556-.211.794-.502c.238-.291.133-.715-.767-1.006-.794-.29-1.826-.397-2.646-.317a9.699 9.699 0 0 0-1.429.29l-.105.054v1.137l2.037-.714c.344-.132.846-.159 1.138-.053.29.08.238.265-.133.397L6.652 7.779zm.37-8.202c1.614.556 2.17 1.244 2.17 2.805 0 1.508-.926 2.09-2.117 1.508V2.223c0-.318-.052-.635-.37-.715-.238-.08-.397.132-.397.476V9.05L4.403 8.44V0c.794.159 1.984.503 2.62.714M46.948 3.942h-.397v.9h.45c.291 0 .53-.106.53-.45-.027-.344-.239-.45-.583-.45M50.811 4.604c-.344 0-.53.29-.53.688 0 .423.16.688.53.688.344 0 .53-.265.53-.688 0-.397-.186-.688-.53-.688" style="stroke-width:.264583"/><path d="M50.811 6.43c-.661 0-1.085-.424-1.085-1.138 0-.715.424-1.112 1.085-1.112s1.111.424 1.111 1.112c0 .688-.45 1.137-1.111 1.137M49.673 4.63c-.053 0-.106-.026-.158-.026-.291 0-.53.185-.53.74v1.032h-.582V4.233h.556v.265c.106-.212.291-.318.556-.318h.158zm-2.619.688h-.503v1.059h-.608v-2.91h1.084c.583 0 1.059.21 1.059.899 0 .688-.476.952-1.032.952m5.477-3.175h-7.303a.683.683 0 0 0-.688.688v4.18c0 .397.318.688.688.688h7.303a.683.683 0 0 0 .688-.687v-4.18a.683.683 0 0 0-.688-.689M33.005 2.143h-3.652c-1.058 0-1.56.662-1.56 1.508v2.567c0 .529-.239.9-.768.9h-3.44c-.026 0-.026.026-.026.026v.529c0 .026.026.026.026.026h3.81c1.059 0 1.588-.661 1.588-1.508V3.625c0-.53.238-.9.767-.9h3.255c.026 0 .026-.026.026-.026v-.53c.027 0 0-.026-.026-.026M22.236 2.143h-6.588c-.026 0-.026.027-.026.027v.529c0 .026.026.026.026.026h6.191c.53 0 .767.37.767.9s-.238.9-.767.9h-4.895c-.767 0-1.323.635-1.323 1.481v1.667c0 .026.027.026.027.026h1.111c.027 0 .027-.026.027-.026v-1.64c0-.53.29-.9.74-.9h4.71c1.058 0 1.561-.661 1.561-1.508s-.503-1.482-1.561-1.482M39.302 6.482c0 .027-.027.053-.027.053h-5.238c-.053 0-.053 0-.08-.026 0-.027 0-.053.027-.053l5.212-3.202c.026-.026.106-.026.106.053zm2.354.053h-1.164.053c-.026 0-.053-.026-.053-.026V2.725c0-.582-.397-.767-.952-.423l-6.72 4.127c-.265.16-.345.344-.292.477.053.105.212.185.503.185h6.244c.027 0 .027.026.027.026v.53c0 .026.026.052.026.052h1.111c.027 0 .027-.026.027-.053v-.502c0-.027.026-.053.026-.053h1.112c.026 0 .026-.027.026-.027v-.529h.027" style="stroke-width:.264583"/><path d="M10.967 8.126a.448.448 0 1 1 .101.891.448.448 0 0 1-.101-.89zm-.034.083a.37.37 0 0 0-.278.444.373.373 0 1 0 .278-.444z" style="stroke-width:.0893933"/><path d="M10.826 8.314h.242c.046 0 .096.011.128.046.033.037.035.09.027.136-.005.03-.032.049-.052.07.017.015.039.029.043.053.009.047 0 .096.014.141.01.016.02.033.02.052h-.1c-.023-.052-.006-.112-.02-.167-.006-.022-.029-.036-.05-.035-.055-.002-.11 0-.164 0-.001.067.002.135-.002.203h-.086v-.499zm.088.08v.137h.146c.024 0 .052-.005.068-.025a.087.087 0 0 0 .001-.088c-.012-.02-.039-.023-.06-.024-.052-.002-.104-.001-.156 0zM42.558 6.831a.448.448 0 1 1 .102.891.448.448 0 0 1-.102-.89zm-.033.083a.37.37 0 0 0-.28.444.373.373 0 1 0 .28-.444z" style="stroke-width:.0893933"/><path d="m42.418 7.02.242-.001c.045 0 .095.011.128.046.032.037.035.09.026.136-.005.03-.032.049-.051.07.017.015.038.029.042.053.01.047 0 .096.015.141.009.016.018.033.02.052h-.1c-.023-.052-.007-.112-.02-.167-.007-.022-.03-.036-.051-.035-.055-.002-.11 0-.164 0 0 .067.002.135-.002.203h-.085v-.499zm.087.078v.138h.146c.025 0 .053-.005.069-.025a.087.087 0 0 0 0-.088c-.012-.02-.039-.023-.06-.024-.052-.002-.104 0-.155 0z" style="stroke-width:.0893933"/></svg>