<?xml version="1.0" encoding="UTF-8"?>
<svg id="_레이어_1" data-name="레이어 1" xmlns="http://www.w3.org/2000/svg" version="1.1" viewBox="0 0 201.2 34.2">
  <defs>
    <style>
      .cls-1 {
        fill: #fff;
        stroke-width: 0px;
      }
    </style>
  </defs>
  <path class="cls-1" d="M3.3,29.1c3.7,1.2,7.6,1.5,11.1.9.2,0,.5-.1.7-.1v-3.8l-3.6,1.3c-1.3.5-3.2.6-4.3.2-1.1-.3-.9-1,.4-1.5l7.4-2.7v-4.2l-10.2,3.7s-2.5.8-4,1.9c-1.6,1.2-1,3.3,2.5,4.3M25.1,33.7l15.8-5.7s2.1-.8,3-1.9.5-2.7-2.9-3.8c-3-1.1-6.9-1.5-10-1.2-1.8.2-3.6.6-5.4,1.1l-.4.2v4.3l7.7-2.7c1.3-.5,3.2-.6,4.3-.2,1.1.3.9,1-.5,1.5l-11.6,4.1v4.3ZM26.5,2.7c6.1,2.1,8.2,4.7,8.2,10.6s-3.5,7.9-8,5.7v-10.6c0-1.2-.2-2.4-1.4-2.7-.9-.3-1.5.5-1.5,1.8v26.7l-7.2-2.3V0c3,.6,7.5,1.9,9.9,2.7M177.4,14.9h-1.5v3.4h1.7c1.1,0,2-.4,2-1.7-.1-1.3-.9-1.7-2.2-1.7M192,17.4c-1.3,0-2,1.1-2,2.6s.6,2.6,2,2.6,2-1,2-2.6-.7-2.6-2-2.6"/>
  <path class="cls-1" d="M192,24.3c-2.5,0-4.1-1.6-4.1-4.3s1.6-4.2,4.1-4.2,4.2,1.6,4.2,4.2-1.7,4.3-4.2,4.3M187.7,17.5c-.2,0-.4,0-.6,0-1.1,0-2,.7-2,2.8v3.9h-2.2v-8.1h2.1v1c.4-.8,1.1-1.2,2.1-1.2h.6v1.7ZM177.8,20.1h-1.9v4h-2.3v-11h4.1c2.2,0,4,.8,4,3.4s-1.8,3.6-3.9,3.6M198.5,8.1h-27.6c-1.4,0-2.6,1.1-2.6,2.6,0,0,0,0,0,0v15.8c0,1.5,1.2,2.6,2.6,2.6h27.6c1.4,0,2.6-1.1,2.6-2.6,0,0,0,0,0,0v-15.8c0-1.4-1.1-2.6-2.6-2.6,0,0,0,0,0,0M124.7,8.1h-13.8c-4,0-5.9,2.5-5.9,5.7v9.7c0,2-.9,3.4-2.9,3.4h-13c0,0,0,0,0,0v2c0,0,0,0,0,0h14.4c4,0,6-2.5,6-5.7v-9.7c0-2,.9-3.4,2.9-3.4h12.3c0,0,0,0,0,0v-2c.1,0,0,0,0,0M84,8.1h-24.9c0,0,0,.1,0,.1v2c0,0,0,0,0,0h23.4c2,0,2.9,1.4,2.9,3.4s-.9,3.4-2.9,3.4h-18.5c-2.9,0-5,2.4-5,5.6v6.3c0,0,.1,0,.1,0h4.2c.1,0,.1,0,.1,0v-6.2c0-2,1.1-3.4,2.8-3.4h17.8c4,0,5.9-2.5,5.9-5.7s-1.9-5.6-5.9-5.6M148.5,24.5c0,.1-.1.2-.1.2h-19.8q-.2,0-.3,0c0-.1,0-.2.1-.2l19.7-12.1c0,0,.4,0,.4.2v12ZM157.4,24.7h-4.4.2c0,0-.2,0-.2,0v-14.3c0-2.2-1.5-2.9-3.6-1.6l-25.4,15.6c-1,.6-1.3,1.3-1.1,1.8.2.4.8.7,1.9.7h23.6c.1,0,.1,0,.1,0v2c0,0,0,.2,0,.2h4.2c.1,0,.1,0,.1-.2v-1.9c0-.1,0-.2,0-.2h4.2c0,0,0-.1,0-.1v-2h.1"/>
  <path class="cls-1" d="M41.5,30.7c.9-.1,1.8.6,1.9,1.5.1.9-.6,1.8-1.5,1.9h0c-.9,0-1.8-.6-1.8-1.5,0-.9.6-1.7,1.5-1.8h0ZM41.3,31c-.8.2-1.2.9-1.1,1.7,0,0,0,0,0,0,.2.8.9,1.2,1.7,1.1.8-.2,1.2-.9,1.1-1.7-.2-.8-.9-1.2-1.7-1.1,0,0,0,0,0,0Z"/>
  <path class="cls-1" d="M40.9,31.4h.9c.2,0,.4,0,.5.2.1.1.1.3.1.5,0,.1-.1.2-.2.3,0,0,.1.1.2.2,0,.2,0,.4,0,.5,0,0,0,.1,0,.2h-.4c0-.2,0-.4,0-.6,0,0-.1-.1-.2-.1-.2,0-.4,0-.6,0,0,.3,0,.5,0,.8h-.3v-1.9ZM41.2,31.7v.5h.6c0,0,.2,0,.3,0,0-.1,0-.2,0-.3,0,0-.1,0-.2,0-.2,0-.4,0-.6,0h0ZM160.8,25.8c.9-.1,1.8.6,1.9,1.5.1.9-.6,1.8-1.5,1.9-.9,0-1.8-.6-1.8-1.5,0-.9.6-1.7,1.5-1.8h0ZM160.7,26.1c-.8.2-1.2.9-1.1,1.7,0,0,0,0,0,0,.2.8.9,1.2,1.7,1.1.8-.2,1.2-.9,1.1-1.7-.2-.8-.9-1.2-1.7-1.1,0,0,0,0,0,0Z"/>
  <path class="cls-1" d="M160.3,26.5h.9c.2,0,.4,0,.5.2.1.1.1.3,0,.5,0,.1-.1.2-.2.3,0,0,.1.1.2.2,0,.2,0,.4,0,.5,0,0,0,.1,0,.2h-.4c0-.2,0-.4,0-.6,0,0-.1-.1-.2-.1-.2,0-.4,0-.6,0,0,.3,0,.5,0,.8h-.3v-1.9h0ZM160.6,26.8v.5h.6c0,0,.2,0,.3,0,0-.1,0-.2,0-.3,0,0-.1,0-.2,0-.2,0-.4,0-.6,0h0Z"/>
</svg>