<?xml version="1.0" encoding="UTF-8"?>
<svg id="_레이어_1" data-name=" 레이어 1" xmlns="http://www.w3.org/2000/svg" version="1.1" xmlns:inkscape="http://www.inkscape.org/namespaces/inkscape" xmlns:sodipodi="http://sodipodi.sourceforge.net/DTD/sodipodi-0.dtd" xmlns:svg="http://www.w3.org/2000/svg" viewBox="0 0 1123.5 239.4">
  <defs>
    <style>
      .cls-1 {
        fill: #fff;
        stroke-width: 0px;
      }
    </style>
  </defs>
  <g id="g2200">
    <g id="g4790">
      <path id="path4699" class="cls-1" d="M307,55.7v121.1h18.9v-109.5h17.5s12.7,0,17.1,5.7c3.7,4.8,4.4,13.6,4.4,19.5s-.4,16.1-2.5,19.7c-3.2,5.5-8.5,6.6-13.4,6.6h-11.5v10.7h16.6s15,.7,21.4-5.9c7.9-8,9.9-18.9,9.9-33.3s-4.8-26.4-14.5-30.9c-8.1-3.7-22.6-3.7-22.6-3.7h-41.3Z" inkscape:connector-curvature="0"/>
      <g id="g4701">
        <rect id="rect4703" class="cls-1" x="400.2" y="55.7" width="18.9" height="121.1"/>
      </g>
      <polygon id="polygon4705" class="cls-1" points="519.7 83.9 554.3 174.6 534.5 223.2 550.2 223.2 607.4 83.9 589.8 83.9 564.9 151.8 541.8 83.9 519.7 83.9"/>
      <path id="path4707" class="cls-1" d="M621.6,176.1v-11.4s20,.8,24.2.8c9.2,0,13.8-2,17.3-5.7,2.1-2.2,3.9-12.1,3.9-15.6s-.7-11.1-2.1-14.2c-1.4-3.1-4.6-5.9-9.5-6.3-3.4-.3-8.8-1-15-1.3-8.8-.4-14.5-5-17.3-8.3s-6.4-8.2-6.4-23.3,3.9-23.6,7.8-27.5c3.9-3.9,9.7-5.7,14.1-6.4,5.1-.9,13.4-.9,13.4-.9l26.5.8v11.4s-19.3-.8-23.5-.8c-9.2,0-12,2-15.4,5.7-2.1,2.2-3.6,8.3-3.6,11.8s.4,10.6,1.8,13.7c1.4,3.1,4.6,5.9,9.4,6.3,3.4.3,8.8,1,15,1.3,8.8.4,14.5,5,17.3,8.3s6.5,10.2,6.5,25.3-3.9,25.9-7.8,29.9c-3.9,4-9.7,5.7-14.1,6.4-5.1.9-13.4.9-13.4.9l-29-.8h-.1Z" inkscape:connector-curvature="0"/>
      <path id="path4709" class="cls-1" d="M724.8,67.3h-18.9v88.9s.5,8.1.9,10.9c.5,2.9,4.6,9.7,15.5,9.7l19.6-.4v-11.4s-5.3.4-8.5.4-7.1-.2-7.8-5.7-.7-12-.7-12v-52.4h21.3v-11.4h-21.3v-16.6h0Z" inkscape:connector-curvature="0"/>
      <g id="g4711">
        <rect id="rect4713" class="cls-1" x="907.2" y="83.9" width="18.9" height="92.9"/>
      </g>
      <g id="g4715">
        <rect id="rect4717" class="cls-1" x="907.2" y="55.7" width="18.9" height="16.9"/>
      </g>
      <path id="path4719" class="cls-1" d="M985.8,83.1c12.9,0,22.8,2.9,28.2,7.2,5.4,4.3,12,13.5,12,40s-6.6,35.7-12,40-15.4,7.2-28.2,7.2-22.8-2.9-28.2-7.2-12-13.5-12-40,6.6-35.7,12-40,15.4-7.2,28.2-7.2ZM972.9,101c-2.6,3.2-5.8,9.9-5.8,29.4s3.2,26.2,5.8,29.4,7.4,5.3,13.5,5.3,11-2.1,13.6-5.3,5.8-9.9,5.8-29.4-3.2-26.2-5.8-29.4c-2.6-3.2-7.4-5.3-13.6-5.3s-11,2.1-13.5,5.3Z" inkscape:connector-curvature="0"/>
      <path id="path4721" class="cls-1" d="M1065.2,96.9l18.5-.7c4.8,0,10.5,1.3,13.3,4.8,2.6,3.3,4.2,7.2,4.2,13.6v62.1h18.9v-63.6c0-12.1-3.7-19.1-9.2-23.4-7.9-6.3-22.1-5.7-22.1-5.7l-42.4.8v92h18.8v-79.7h0v-.2h0Z" inkscape:connector-curvature="0"/>
      <path id="path4723" class="cls-1" d="M869.5,67.3h-18.9v88.9s.5,8.1.9,10.9c.5,2.9,4.6,9.7,15.5,9.7l19.6-.4v-11.4s-5.3.4-8.5.4-7.2-.2-7.8-5.7c-.7-5.5-.7-12-.7-12v-52.4h21.3v-11.4h-21.3v-16.6h0Z" inkscape:connector-curvature="0"/>
      <path id="path4725" class="cls-1" d="M490.9,114.6c0-6.4-1.6-10.3-4.2-13.6-2.8-3.5-8.5-4.8-13.3-4.8l-24.9.7v-12.2l30-.8s14.2-.6,22.1,5.7c5.5,4.4,9.2,11.4,9.2,23.4v62.7l-36.2.8s-16.4,0-24.7-3.3c-8.1-3.3-12.5-12.3-12.5-24.8s3.7-19,9.2-23.4c7.9-6.3,22.1-5.7,22.1-5.7h11.6v10.7h-6.5c-4.8,0-9.9.9-12.6,4.4-2.6,3.3-4,6.1-4,12.5s1.6,12,5.5,14.9c3.5,2.5,9.7,3.1,16.6,3.1l12.5-.8v-49.6h0Z" inkscape:connector-curvature="0"/>
      <path id="path4727" class="cls-1" d="M809.7,114.6c0-6.4-1.6-10.3-4.2-13.6-2.8-3.5-8.5-4.8-13.3-4.8l-24.9.7v-12.2l30-.8s14.2-.6,22.1,5.7c5.5,4.4,9.2,11.4,9.2,23.4v62.7l-36.2.8s-16.4,0-24.7-3.3c-8.1-3.3-12.4-12.3-12.4-24.8s3.7-19,9.2-23.4c7.9-6.3,22.1-5.7,22.1-5.7h11.6v10.7h-6.5c-4.8,0-9.8.9-12.6,4.4-2.6,3.3-4,6.1-4,12.5s1.6,12,5.5,14.9c3.5,2.5,9.7,3.1,16.6,3.1l12.5-.8v-49.6h0Z" inkscape:connector-curvature="0"/>
    </g>
  </g>
  <g>
    <path class="cls-1" d="M181.6,142.3c-1.6-.2-4.4-.6-9.2-.2-3.9.4-6.8,1.5-6.8,1.5l-10.1,3.6h0v.2s-16.7,5.9-28.2,10v11.1l45.1-16.2h0c0-.1,6.5-2.4,9.1-3.3,2.6-.9,5.2-2.7,4.7-4.3-.5-1.6-3.7-2.3-4.5-2.4Z"/>
    <path class="cls-1" d="M1.1,1v236.7h236.7V1H1.1ZM198.9,160h0q0,0,0,0s-2.9,1.1-4.9,1.8c-2,.7-40,14.4-41.5,14.9h0s-25.2,9.1-25.2,9.1h-.2c0,0,0,0,0,0l-30.1-9.6v-9.6c-22.7,4.9-40.1,2-51.5-1.2-13.5-3.7-17.2-7.7-17.5-12.5-.4-4.8,7-9,13.9-11.9h.1c.7-.2,3.8-1.4,6.1-2.2,2.6-.9,35.6-12.7,35.6-12.7l13.3-4.8V43.2h0c12.8,2.3,31.5,7.9,41.5,11.3,25.5,8.7,34.2,20.2,34.2,44.2s-14.8,33.1-33.6,24v-44.6c0-5.2-1-10-5.9-11.4-3.8-1.2-6.1,2.3-6.1,7.5v65.2l.5-.2h0c12.7-5,22.6-7.5,37-8,15.9-.5,28,3.3,32.2,4.6,8.8,2.7,15.5,6.4,16,11.3.8,6.4-8.6,11-14,12.9Z"/>
    <path class="cls-1" d="M67.7,149.6l-6.5,2.2c-2.9,1-8.7,3.9-3.9,6.1,5.2,2.4,14.9,1.2,20.2-.8l6.5-2.4h0c0,.1,13.1-4.6,13.1-4.6v-11l-29.3,10.5h-.1Z"/>
  </g>
</svg>