<?xml version="1.0" encoding="UTF-8" standalone="no"?>
<svg
   version="1.1"
   width="1000"
   height="501.49863"
   style="clip-rule:evenodd;fill-rule:evenodd;image-rendering:optimizeQuality;shape-rendering:geometricPrecision;text-rendering:geometricPrecision"
   id="svg140"
   sodipodi:docname="PoppyPlaytimeLogo.svg"
   inkscape:version="1.3.2 (091e20e, 2023-11-25, custom)"
   xmlns:inkscape="http://www.inkscape.org/namespaces/inkscape"
   xmlns:sodipodi="http://sodipodi.sourceforge.net/DTD/sodipodi-0.dtd"
   xmlns="http://www.w3.org/2000/svg"
   xmlns:svg="http://www.w3.org/2000/svg">
  <defs
     id="defs140" />
  <sodipodi:namedview
     id="namedview140"
     pagecolor="#838383"
     bordercolor="#000000"
     borderopacity="0.25"
     inkscape:showpageshadow="2"
     inkscape:pageopacity="0.0"
     inkscape:pagecheckerboard="0"
     inkscape:deskcolor="#d1d1d1"
     inkscape:zoom="0.86000001"
     inkscape:cx="500"
     inkscape:cy="250.58139"
     inkscape:window-width="1366"
     inkscape:window-height="705"
     inkscape:window-x="-8"
     inkscape:window-y="-8"
     inkscape:window-maximized="1"
     inkscape:current-layer="svg140" />
  <g
     id="g1"
     transform="matrix(0.28336639,0,0,0.28336639,-38.396146,-69.626324)">
    <path
       style="opacity:0.998"
       fill="#fefefe"
       d="m 2623.5,298.5 c 1.26,2.927 3.26,5.261 6,7 13.33,14.663 27,28.996 41,43 1,0.333 1.67,1 2,2 3.32,5.305 6.66,10.639 10,16 1.84,3.692 4.18,7.025 7,10 -0.07,1.527 0.59,2.527 2,3 0.84,0.342 1.17,1.008 1,2 -0.07,1.527 0.59,2.527 2,3 8.82,13.634 17.16,27.634 25,42 -6.56,8.773 -12.4,18.106 -17.5,28 -2.78,12.182 -3.78,24.515 -3,37 2.27,5.587 6.11,9.587 11.5,12 4.17,2.917 8.5,5.584 13,8 3.73,1.856 7.06,4.19 10,7 8.3,26.881 16.14,53.881 23.5,81 0.67,1.667 0.67,3.333 0,5 -11,15.667 -22,31.333 -33,47 -15.83,15.167 -31.67,30.333 -47.5,45.5 -23.68,16.509 -48.02,32.009 -73,46.5 -16.53,8.762 -32.86,17.762 -49,27 -0.99,-0.172 -1.66,0.162 -2,1 -0.99,-0.172 -1.66,0.162 -2,1 -0.99,-0.172 -1.66,0.162 -2,1 -0.33,0 -0.67,0 -1,0 -0.67,0 -1,0.333 -1,1 -0.33,0 -0.67,0 -1,0 -0.99,-0.172 -1.66,0.162 -2,1 -0.99,-0.172 -1.66,0.162 -2,1 -0.99,-0.172 -1.66,0.162 -2,1 -0.33,0 -0.67,0 -1,0 -0.67,0 -1,0.333 -1,1 -0.33,0 -0.67,0 -1,0 -0.67,0 -1,0.333 -1,1 -19.2,7.933 -38.2,16.433 -57,25.5 -24.31,7.326 -48.64,14.493 -73,21.5 1.2,13.351 2.54,26.684 4,40 14.01,143.4 28.68,286.74 44,430 -1.62,2.14 -3.62,3.81 -6,5 -44.25,22.62 -88.58,44.96 -133,67 -13.18,-83.39 -26.68,-166.72 -40.5,-250 -9.39,-91.36 -19.05,-182.695 -29,-274 -6.47,-124.762 -11.3,-249.428 -14.5,-374 -0.2,-5.693 -0.37,-11.36 -0.5,-17 11.77,-8.806 23.27,-17.973 34.5,-27.5 15.85,-9.761 32.18,-18.761 49,-27 6.22,-10.93 12.05,-22.097 17.5,-33.5 14.14,-15.138 28.64,-29.971 43.5,-44.5 16.5,-10.418 32.84,-21.085 49,-32 20.67,-11 41.33,-22 62,-33 10.33,-3 20.67,-6 31,-9 10.64,-1.266 21.31,-1.599 32,-1 10.58,5.193 21.25,10.193 32,15 11.33,9.333 22.67,18.667 34,28 3.23,3.062 6.23,6.229 9,9.5 z m -152,90 c 6.64,6.306 13.31,12.639 20,19 17.33,19.499 34.5,39.166 51.5,59 11.6,19.267 23.6,38.267 36,57 10.6,22.245 21.6,44.245 33,66 2.44,7.479 4.94,14.813 7.5,22 1.22,13.662 2.06,27.328 2.5,41 -3.8,11.741 -7.8,23.408 -12,35 -5.62,8.415 -11.12,16.915 -16.5,25.5 -20.66,10.441 -41.66,20.108 -63,29 -36.34,7.017 -73,9.85 -110,8.5 0.71,-35.327 1.21,-70.66 1.5,-106 3.84,-42.625 7.18,-85.292 10,-128 7.98,-33.262 15.65,-66.595 23,-100 3.68,-9.212 7.85,-18.212 12.5,-27 1.19,-0.929 2.52,-1.262 4,-1 z"
       id="path1" />
  </g>
  <g
     id="g2"
     transform="matrix(0.28336639,0,0,0.28336639,-38.396146,-69.626324)">
    <path
       style="opacity:0.997"
       fill="#fefefe"
       d="m 1135.5,563.5 c -3.23,12.382 -5.73,25.049 -7.5,38 -6.33,19 -12.67,38 -19,57 -9.08,18.489 -18.41,36.823 -28,55 -19,26 -38,52 -57,78 -56.4,60.74 -116.233,117.574 -179.5,170.5 -68.864,48.29 -141.198,91.29 -217,129 0.49,12.97 2.49,25.8 6,38.5 16.662,89.81 34.162,179.48 52.5,269 9.177,36.38 18.511,72.71 28,109 9.667,28.33 19.333,56.67 29,85 5,9.33 10,18.67 15,28 1.231,0.61 2.564,0.94 4,1 8.183,-0.65 16.35,-1.32 24.5,-2 -0.067,1.9 0.267,3.73 1,5.5 -0.259,1.26 -0.926,2.26 -2,3 -17.028,10.84 -34.028,21.68 -51,32.5 -72.78,46.23 -145.446,92.73 -218,139.5 -6.429,2.02 -12.762,4.19 -19,6.5 -5.46,0.99 -10.793,2.49 -16,4.5 -1.667,0.67 -3.333,0.67 -5,0 -2.719,-3.28 -5.053,-6.78 -7,-10.5 1.984,-5.16 4.984,-9.66 9,-13.5 8.178,-5.36 16.178,-10.86 24,-16.5 0.667,0 1,-0.33 1,-1 5.065,-2.95 9.899,-6.29 14.5,-10 1.667,-5.67 3.333,-11.33 5,-17 0.289,-17.35 -0.211,-34.69 -1.5,-52 -1.333,0 -2.667,0 -4,0 -18.042,-79.84 -36.875,-159.5 -56.5,-239 -9.333,-50 -18.667,-100 -28,-150 -5.737,-43.37 -11.737,-86.7 -18,-130 -1.4,-0.62 -2.9,-0.95 -4.5,-1 -11.646,1.58 -23.313,2.91 -35,4 -6.988,1.22 -13.988,1.22 -21,0 -0.88,-1.93 -1.88,-3.76 -3,-5.5 7.553,-9.05 15.886,-17.22 25,-24.5 10.505,-7.34 19.505,-16.17 27,-26.5 C 388.488,981.889 373.988,845.722 360,709.5 c -7.465,-57.323 -14.799,-114.656 -22,-172 -6.339,-21.016 -12.672,-42.016 -19,-63 -4.955,-6.411 -9.789,-12.911 -14.5,-19.5 -27.802,-15.272 -57.302,-19.772 -88.5,-13.5 -2.178,0.105 -4.012,-0.561 -5.5,-2 0,-2 -1,-3 -3,-3 -0.423,-0.765 -0.757,-1.598 -1,-2.5 1.471,-3.109 2.805,-6.276 4,-9.5 109.913,-58.873 219.746,-117.873 329.5,-177 4.35,1.449 8.516,3.282 12.5,5.5 -0.831,3.793 -1.664,7.627 -2.5,11.5 -14.514,25.37 -28.181,51.036 -41,77 33.405,-13.025 66.905,-25.858 100.5,-38.5 34.229,-8.807 68.563,-17.141 103,-25 34.319,-2.41 68.653,-4.577 103,-6.5 42.386,3.202 84.72,7.035 127,11.5 24.667,10.667 49.333,21.333 74,32 19.9,14.868 40.07,29.368 60.5,43.5 13.67,18.333 27.33,36.667 41,55 7.2,22.595 14.2,45.262 21,68 0.67,19.667 0.67,39.333 0,59 -1.39,7.644 -2.55,15.31 -3.5,23 z m -552,-96 c 8.693,0.503 17.36,1.336 26,2.5 19.445,7.672 39.445,15.005 60,22 15.968,9.32 31.968,18.653 48,28 15.167,16.5 30.333,33 45.5,49.5 8,15.333 16,30.667 24,46 5.202,21.142 10.869,42.142 17,63 0.667,24.333 0.667,48.667 0,73 -5.667,19.667 -11.333,39.333 -17,59 -8,18.667 -16,37.333 -24,56 -13.841,19.689 -27.175,39.689 -40,60 -10.119,11.606 -19.619,23.606 -28.5,36 -19.946,15.645 -40.28,30.811 -61,45.5 -5.139,3.49 -10.639,5.32 -16.5,5.5 -3.803,-11.08 -7.803,-22.077 -12,-33 -17.716,-98.962 -33.049,-198.296 -46,-298 -1.984,-55.828 -3.817,-111.662 -5.5,-167.5 0.077,-7.193 0.41,-14.359 1,-21.5 9.692,-8.695 19.359,-17.362 29,-26 z"
       id="path2" />
  </g>
  <g
     id="g3"
     transform="matrix(0.28336639,0,0,0.28336639,-38.396146,-69.626324)">
    <path
       style="opacity:0.706"
       fill="#974138"
       d="m 2623.5,298.5 c 2.33,1.667 4.33,3.667 6,6 0,0.333 0,0.667 0,1 -2.74,-1.739 -4.74,-4.073 -6,-7 z"
       id="path3" />
  </g>
  <g
     id="g4"
     transform="matrix(0.28336639,0,0,0.28336639,-38.396146,-69.626324)">
    <path
       style="opacity:0.996"
       fill="#fefefe"
       d="m 2158.5,570.5 c 2.12,9.202 3.12,18.535 3,28 0,1.333 0,2.667 0,4 -1.44,9.798 -2.27,19.798 -2.5,30 -1.87,9.702 -3.87,19.368 -6,29 -8,12.667 -16,25.333 -24,38 -7.38,9.05 -14.38,18.384 -21,28 -22.5,21.167 -45,42.333 -67.5,63.5 -22.41,12.597 -44.41,25.764 -66,39.5 -0.67,0 -1,0.333 -1,1 -0.99,-0.172 -1.66,0.162 -2,1 -19.65,9.159 -38.98,18.825 -58,29 -8.65,2.824 -16.99,6.491 -25,11 -0.33,1.333 -0.67,2.667 -1,4 0.59,13.492 1.26,26.825 2,40 -0.95,13.404 0.38,26.404 4,39 4.28,26.36 8.78,52.69 13.5,79 6.49,24.96 12.82,49.96 19,75 10.6,57.59 20.76,115.26 30.5,173 -1.86,4.87 -5.2,8.54 -10,11 -2.28,0.95 -4.28,2.28 -6,4 -7.17,5.67 -14.51,11.17 -22,16.5 -28.88,13.27 -57.88,26.27 -87,39 -6.9,1.6 -13.73,3.43 -20.5,5.5 -4.43,-1.64 -8.93,-2.98 -13.5,-4 -7.28,-34.37 -14.78,-68.7 -22.5,-103 -6.91,-53.63 -13.58,-107.3 -20,-161 -0.22,-93.672 -0.72,-187.338 -1.5,-281 -0.69,-73.999 -1.35,-147.999 -2,-222 -0.09,-52.706 1.08,-105.373 3.5,-158 28.58,-17.041 57.08,-34.208 85.5,-51.5 27.33,-13.333 54.67,-26.667 82,-40 26.42,-11.139 52.75,-22.472 79,-34 10.97,-1.498 21.97,-2.164 33,-2 5.12,2.06 10.12,4.393 15,7 5.53,5.198 10.7,10.698 15.5,16.5 11,18 22,36 33,54 9.8,25.745 19.8,51.412 30,77 9.2,28.606 18.2,57.272 27,86 1.5,9.301 2.66,18.634 3.5,28 z m -221,-98 c 1.33,0 2.67,0 4,0 2.66,2.766 5.5,5.433 8.5,8 13.55,31.763 26.55,63.763 39,96 5.72,21.5 12.06,42.833 19,64 2.77,12.567 4.94,25.234 6.5,38 -0.22,11.378 -1.05,22.712 -2.5,34 -4.18,13.725 -8.51,27.392 -13,41 -5,8.333 -10,16.667 -15,25 -8.21,8.512 -16.71,16.679 -25.5,24.5 -10,4.667 -20,9.333 -30,14 -11.55,3.03 -22.55,1.863 -33,-3.5 -1.01,-2.018 -2.01,-4.018 -3,-6 -0.11,-56.073 1.72,-112.073 5.5,-168 3.81,-24.031 7.81,-48.031 12,-72 7.96,-29.849 15.63,-59.849 23,-90 1.71,-1.537 3.21,-3.204 4.5,-5 z"
       id="path4" />
  </g>
  <g
     id="g5"
     transform="matrix(0.28336639,0,0,0.28336639,-38.396146,-69.626324)">
    <path
       style="opacity:0.414"
       fill="#fb1f16"
       d="m 2629.5,304.5 c 15.75,12.75 29.42,27.416 41,44 -14,-14.004 -27.67,-28.337 -41,-43 0,-0.333 0,-0.667 0,-1 z"
       id="path5" />
  </g>
  <g
     id="g6"
     transform="matrix(0.28336639,0,0,0.28336639,-38.396146,-69.626324)">
    <path
       style="opacity:0.996"
       fill="#fefefe"
       d="m 2970.5,366.5 c -4.97,5.915 -9.47,12.248 -13.5,19 -0.5,16.31 1,32.31 4.5,48 0.32,7.054 1.15,14.054 2.5,21 33.18,160.234 70.52,319.567 112,478 8.67,28.667 17.33,57.333 26,86 2.13,-0.76 3.8,-2.09 5,-4 5.78,-9.9 11.28,-19.898 16.5,-30 56.98,-99.947 113.48,-200.28 169.5,-301 22.39,-47.122 45.06,-94.122 68,-141 2.27,-17.258 3.44,-34.591 3.5,-52 0.17,-3.682 0,-7.348 -0.5,-11 -5.53,-13.588 -10.86,-27.254 -16,-41 -0.38,-1.442 -1.21,-2.442 -2.5,-3 -5.1,-9.926 -13.1,-16.426 -24,-19.5 -1.76,-0.72 -2.59,-1.887 -2.5,-3.5 7.72,-8.927 15.55,-17.761 23.5,-26.5 6.87,-3.937 13.87,-7.603 21,-11 24.76,-5.137 49.76,-6.804 75,-5 48.64,10.907 95.64,26.573 141,47 1.36,1.584 2.03,3.418 2,5.5 1.04,2.238 1.2,4.571 0.5,7 -2.45,4.568 -4.62,9.235 -6.5,14 -7.98,4.661 -15.65,9.828 -23,15.5 -10.67,5 -21.33,10 -32,15 -25.17,27.167 -50.33,54.333 -75.5,81.5 -13.84,23.678 -27.17,47.678 -40,72 -84.56,174.129 -169.9,347.795 -256,521 -5.59,35.57 -10.59,71.24 -15,107 -9.97,55.16 -18.64,110.49 -26,166 -4.36,78.62 -7.2,157.29 -8.5,236 3.67,0 7.33,0 11,0 2.56,0.3 4.89,-0.03 7,-1 10.39,0.29 20.72,-0.05 31,-1 15.01,0.06 30.01,-0.27 45,-1 0.16,3.02 0,6.02 -0.5,9 -4,5.33 -8,10.67 -12,16 -11.42,9.93 -23.25,19.26 -35.5,28 -1.53,-0.07 -2.53,0.59 -3,2 -8.94,5.48 -17.94,10.98 -27,16.5 -8.33,3 -16.67,6 -25,9 -58.24,10.21 -116.57,11.04 -175,2.5 -11.51,-2.45 -22.85,-5.61 -34,-9.5 -5.6,-4.94 -6.43,-10.77 -2.5,-17.5 6.13,-7.8 12.63,-15.3 19.5,-22.5 15.32,-11.33 31.32,-21.66 48,-31 4.15,-1.3 8.32,-2.46 12.5,-3.5 14.7,-141.32 29.2,-282.66 43.5,-424 1.72,-11.94 2.55,-23.94 2.5,-36 -11.14,-21.27 -21.47,-42.94 -31,-65 -37.47,-113.09 -74.14,-226.419 -110,-340 -21.82,-64.789 -44.82,-129.123 -69,-193 -12.8,-31.747 -27.13,-62.747 -43,-93 -3.25,-2.043 -6.42,-4.21 -9.5,-6.5 -4.99,-0.499 -9.99,-0.666 -15,-0.5 -2.11,-0.968 -4.44,-1.302 -7,-1 -1.31,-4.423 -2.31,-8.923 -3,-13.5 0.27,-3.592 0.94,-7.092 2,-10.5 0.95,-10.67 3.28,-21.003 7,-31 2.02,-2.031 3.69,-4.365 5,-7 31.61,-23.152 64.61,-44.318 99,-63.5 30.22,-12.61 60.55,-24.943 91,-37 12,-2.667 24,-5.333 36,-8 8.8,-0.654 17.47,0.012 26,2 2.1,2.021 4.1,4.021 6,6 -1.17,5.164 -2.33,10.331 -3.5,15.5 -5.65,5.997 -10.82,12.33 -15.5,19 z"
       id="path6" />
  </g>
  <g
     id="g7"
     transform="matrix(0.28336639,0,0,0.28336639,-38.396146,-69.626324)">
    <path
       style="opacity:0.806"
       fill="#f70603"
       d="m 2672.5,350.5 c 10.3,11.139 20.47,22.472 30.5,34 9.27,16.228 18.77,32.228 28.5,48 -1.31,2.635 -2.98,4.969 -5,7 -2.1,-4.527 -4.43,-8.861 -7,-13 -7.84,-14.366 -16.18,-28.366 -25,-42 0.07,-1.527 -0.59,-2.527 -2,-3 0.17,-0.992 -0.16,-1.658 -1,-2 0.07,-1.527 -0.59,-2.527 -2,-3 -1.35,-4.042 -3.68,-7.375 -7,-10 -3.34,-5.361 -6.68,-10.695 -10,-16 z"
       id="path7" />
  </g>
  <g
     id="g8"
     transform="matrix(0.28336639,0,0,0.28336639,-38.396146,-69.626324)">
    <path
       style="opacity:0.936"
       fill="#0b0606"
       d="m 2619.5,611.5 c -2.56,-7.187 -5.06,-14.521 -7.5,-22 -11.4,-21.755 -22.4,-43.755 -33,-66 -12.4,-18.733 -24.4,-37.733 -36,-57 -17,-19.834 -34.17,-39.501 -51.5,-59 -4.77,-6.302 -10.44,-12.469 -17,-18.5 -0.95,-0.483 -1.95,-0.649 -3,-0.5 -4.31,-6.312 -9.65,-11.645 -16,-16 -1.76,-0.961 -3.76,-1.295 -6,-1 0,1 0,2 0,3 -3.94,7.541 -7.6,15.207 -11,23 -1.42,2.015 -2.09,4.348 -2,7 -7.92,32.027 -15.42,64.36 -22.5,97 -0.61,8.331 -1.11,16.664 -1.5,25 -2.65,23.799 -4.65,47.799 -6,72 -0.94,10.651 -1.78,21.318 -2.5,32 -0.5,36.332 -0.67,72.665 -0.5,109 -1.11,-9.489 -1.95,-19.156 -2.5,-29 -0.67,-39.333 -0.67,-78.667 0,-118 2.79,-36.99 5.46,-73.99 8,-111 7.67,-33.333 15.33,-66.667 23,-100 3.83,-7.667 7.67,-15.333 11.5,-23 1.92,-1.141 3.92,-1.308 6,-0.5 11,9.667 22,19.333 33,29 17.17,18.5 34.33,37 51.5,55.5 12.42,19.172 25.09,38.172 38,57 9.67,18 19.33,36 29,54 6.59,16.103 12.59,32.436 18,49 0.5,2.982 0.66,5.982 0.5,9 z"
       id="path8" />
  </g>
  <g
     id="g9"
     transform="matrix(0.28336639,0,0,0.28336639,-38.396146,-69.626324)">
    <path
       style="opacity:0.965"
       fill="#fe0100"
       d="m 3123.5,984.5 c -5.22,10.102 -10.72,20.1 -16.5,30 -1.2,1.91 -2.87,3.24 -5,4 -8.67,-28.667 -17.33,-57.333 -26,-86 -41.48,-158.433 -78.82,-317.766 -112,-478 -1.35,-6.946 -2.18,-13.946 -2.5,-21 7.84,-15.665 17.67,-29.999 29.5,-43 0.27,-2.754 0.77,-5.421 1.5,-8 1.91,-2.54 2.25,-5.207 1,-8 -1.84,-0.902 -3.17,-2.236 -4,-4 9.52,-3.448 19.36,-5.782 29.5,-7 6.89,0.414 13.73,1.248 20.5,2.5 1.54,1.878 3.38,3.378 5.5,4.5 0.21,6.067 -0.45,12.067 -2,18 -11.17,13.505 -21.17,27.838 -30,43 -0.9,4.455 -1.4,8.955 -1.5,13.5 1.21,13.197 2.71,26.364 4.5,39.5 30.81,167.888 66.64,334.555 107.5,500 z"
       id="path9" />
  </g>
  <g
     id="g10"
     transform="matrix(0.28336639,0,0,0.28336639,-38.396146,-69.626324)">
    <path
       style="opacity:0.976"
       fill="#030101"
       d="m 2970.5,366.5 c 5.7,0.096 11.36,0.596 17,1.5 0.88,0.708 1.55,1.542 2,2.5 0.83,1.764 2.16,3.098 4,4 -0.33,2.667 -0.67,5.333 -1,8 -0.73,2.579 -1.23,5.246 -1.5,8 -11.83,13.001 -21.66,27.335 -29.5,43 -3.5,-15.69 -5,-31.69 -4.5,-48 4.03,-6.752 8.53,-13.085 13.5,-19 z"
       id="path10" />
  </g>
  <g
     id="g11"
     transform="matrix(0.28336639,0,0,0.28336639,-38.396146,-69.626324)">
    <path
       style="opacity:1"
       fill="#543431"
       d="m 2682.5,366.5 c 3.32,2.625 5.65,5.958 7,10 -2.82,-2.975 -5.16,-6.308 -7,-10 z"
       id="path11" />
  </g>
  <g
     id="g12"
     transform="matrix(0.28336639,0,0,0.28336639,-38.396146,-69.626324)">
    <path
       style="opacity:1"
       fill="#8f0001"
       d="m 2455.5,372.5 c -2.39,-0.241 -4.39,0.425 -6,2 1.61,-1.575 3.61,-2.241 6,-2 z"
       id="path12" />
  </g>
  <g
     id="g13"
     transform="matrix(0.28336639,0,0,0.28336639,-38.396146,-69.626324)">
    <path
       style="opacity:0.914"
       fill="#fb0000"
       d="m 2455.5,372.5 c 6.35,4.355 11.69,9.688 16,16 -1.48,-0.262 -2.81,0.071 -4,1 -4.65,8.788 -8.82,17.788 -12.5,27 -7.35,33.405 -15.02,66.738 -23,100 -2.82,42.708 -6.16,85.375 -10,128 -0.29,35.34 -0.79,70.673 -1.5,106 -5.94,-0.298 -11.27,-2.298 -16,-6 -0.95,-1.545 -1.29,-3.212 -1,-5 -0.17,-36.335 0,-72.668 0.5,-109 0.72,-10.682 1.56,-21.349 2.5,-32 2.98,-23.77 4.98,-47.77 6,-72 0.39,-8.336 0.89,-16.669 1.5,-25 7.08,-32.64 14.58,-64.973 22.5,-97 1.42,-2.015 2.09,-4.348 2,-7 3.4,-7.793 7.06,-15.459 11,-23 1.61,-1.575 3.61,-2.241 6,-2 z"
       id="path13" />
  </g>
  <g
     id="g14"
     transform="matrix(0.28336639,0,0,0.28336639,-38.396146,-69.626324)">
    <path
       style="opacity:0.997"
       fill="#fefefe"
       d="m 1642.5,1161.5 c -10.3,15.83 -20.47,31.83 -30.5,48 -11.87,11.54 -24.03,22.7 -36.5,33.5 -13.17,8.75 -26.17,17.75 -39,27 -14,8.33 -28,16.67 -42,25 -0.57,1.21 -1.24,2.37 -2,3.5 -37.64,18.32 -76.31,34.15 -116,47.5 -18,4 -36,8 -54,12 -23.34,0.58 -46.68,0.25 -70,-1 -14,-4 -28,-8 -42,-12 -13.33,-8 -26.67,-16 -40,-24 -11.83,-14.5 -23.67,-29 -35.5,-43.5 -9,-15.33 -18,-30.67 -27,-46 -4.82,-14.95 -9.49,-29.95 -14,-45 -4.75,-29.65 -9.42,-59.32 -14,-89 -0.67,-38.67 -0.67,-77.33 0,-116 5.16,-37.263 9.82,-74.596 14,-112 5.67,-29.333 11.33,-58.667 17,-88 8.28,-23.331 16.44,-46.664 24.5,-70 3.1,-6.302 5.44,-12.969 7,-20 1.43,-1.28 2.1,-2.947 2,-5 2.12,-2.588 3.46,-5.588 4,-9 2.12,-2.588 3.46,-5.588 4,-9 2.85,-5.041 5.18,-10.375 7,-16 1.79,-1.926 2.79,-4.259 3,-7 3.1,-4.937 5.43,-10.27 7,-16 3.51,-6.363 6.51,-13.03 9,-20 2.59,-5.935 5.09,-11.935 7.5,-18 15.67,-25.333 31.33,-50.667 47,-76 13.5,-15.5 27,-31 40.5,-46.5 16.33,-12.333 32.67,-24.667 49,-37 22.6,-12.133 45.6,-23.466 69,-34 17.33,-6 34.67,-12 52,-18 12.93,-2.127 25.93,-3.127 39,-3 9.05,2.511 18.05,5.178 27,8 12.78,9.116 25.28,18.616 37.5,28.5 12.61,19.606 25.61,38.939 39,58 21.01,45.68 43.34,90.68 67,135 10,30 20,60 30,90 5.13,25.306 10.13,50.64 15,76 2.67,32.374 5.5,64.707 8.5,97 -2.71,26.288 -5.21,52.622 -7.5,79 -11.01,61.04 -25.01,121.37 -42,181 -5.12,10.57 -9.95,21.24 -14.5,32 z m -274,-545 c 12.01,16.133 20.51,34.133 25.5,54 2.49,12.249 4.32,24.582 5.5,37 8.01,-0.635 16.01,-1.468 24,-2.5 5.91,-2.31 11.91,-3.976 18,-5 6.54,26.647 13.37,54.147 20.5,82.5 6.31,29.565 12.31,58.899 18,88 1.56,24.002 3.73,47.669 6.5,71 -0.05,1.6 -0.38,3.1 -1,4.5 1.53,11.263 2.86,22.596 4,34 -0.2,12.162 -0.53,24.33 -1,36.5 0.67,18.67 1.33,37.33 2,56 -2.32,34.19 -5.82,68.19 -10.5,102 -4.96,12.86 -9.46,25.86 -13.5,39 -3.1,4.01 -6.1,8.18 -9,12.5 -6.9,1.49 -13.9,2.32 -21,2.5 -11.41,-0.89 -22.74,-2.39 -34,-4.5 -18.21,-5.07 -36.21,-10.74 -54,-17 -9.33,-6 -18.67,-12 -28,-18 -10.05,-12.59 -20.21,-25.09 -30.5,-37.5 -7.59,-12.84 -14.92,-25.84 -22,-39 -7.63,-33.55 -11.13,-67.55 -10.5,-102 3.43,-35.753 7.59,-71.42 12.5,-107 16.53,-77.258 38.53,-152.924 66,-227 8.51,-16.36 17.01,-32.693 25.5,-49 2.74,-2.475 4.74,-5.475 6,-9 0.84,-0.342 1.17,-1.008 1,-2 z"
       id="path14" />
  </g>
  <g
     id="g15"
     transform="matrix(0.28336639,0,0,0.28336639,-38.396146,-69.626324)">
    <path
       style="opacity:1"
       fill="#441a18"
       d="m 2689.5,376.5 c 1.41,0.473 2.07,1.473 2,3 -1.41,-0.473 -2.07,-1.473 -2,-3 z"
       id="path15" />
  </g>
  <g
     id="g16"
     transform="matrix(0.28336639,0,0,0.28336639,-38.396146,-69.626324)">
    <path
       style="opacity:1"
       fill="#880001"
       d="m 2993.5,374.5 c 1.25,2.793 0.91,5.46 -1,8 0.33,-2.667 0.67,-5.333 1,-8 z"
       id="path16" />
  </g>
  <g
     id="g17"
     transform="matrix(0.28336639,0,0,0.28336639,-38.396146,-69.626324)">
    <path
       style="opacity:1"
       fill="#64302a"
       d="m 2692.5,381.5 c 1.41,0.473 2.07,1.473 2,3 -1.41,-0.473 -2.07,-1.473 -2,-3 z"
       id="path17" />
  </g>
  <g
     id="g18"
     transform="matrix(0.28336639,0,0,0.28336639,-38.396146,-69.626324)">
    <path
       style="opacity:0.333"
       fill="#9f0002"
       d="m 2471.5,388.5 c 1.05,-0.149 2.05,0.017 3,0.5 6.56,6.031 12.23,12.198 17,18.5 -6.69,-6.361 -13.36,-12.694 -20,-19 z"
       id="path18" />
  </g>
  <g
     id="g19"
     transform="matrix(0.28336639,0,0,0.28336639,-38.396146,-69.626324)">
    <path
       style="opacity:1"
       fill="#930002"
       d="m 2438.5,397.5 c 0.09,2.652 -0.58,4.985 -2,7 -0.09,-2.652 0.58,-4.985 2,-7 z"
       id="path19" />
  </g>
  <g
     id="g20"
     transform="matrix(0.28336639,0,0,0.28336639,-38.396146,-69.626324)">
    <path
       style="opacity:0.997"
       fill="#030101"
       d="m 862.5,729.5 c 0.331,-23.173 -0.002,-46.173 -1,-69 -0.065,-2.928 -0.732,-5.595 -2,-8 -0.398,-4.261 -1.398,-8.261 -3,-12 -0.065,-2.928 -0.732,-5.595 -2,-8 0.09,-2.652 -0.576,-4.985 -2,-7 -1.691,-9.099 -3.858,-18.099 -6.5,-27 -9.255,-16.842 -18.255,-33.842 -27,-51 -15.138,-16.138 -30.638,-31.971 -46.5,-47.5 -15.163,-8.414 -30.163,-17.081 -45,-26 -21.441,-8.038 -43.108,-15.704 -65,-23 -12.29,-1.678 -24.624,-2.845 -37,-3.5 -6.284,-1.845 -12.618,-2.179 -19,-1 -8.038,6.71 -15.705,13.71 -23,21 -9.641,8.638 -19.308,17.305 -29,26 -0.323,-6.19 0.01,-12.19 1,-18 -0.065,0.438 0.101,0.772 0.5,1 23.796,-20.127 47.296,-40.627 70.5,-61.5 18.372,0.943 36.705,2.61 55,5 20.667,7.333 41.333,14.667 62,22 14.667,8.333 29.333,16.667 44,25 15.529,15.195 30.696,30.695 45.5,46.5 9.034,17.02 18.034,34.02 27,51 5,19.333 10,38.667 15,58 0.667,22.333 0.667,44.667 0,67 -4.187,13.44 -8.354,26.774 -12.5,40 z"
       id="path20" />
  </g>
  <g
     id="g21"
     transform="matrix(0.28336639,0,0,0.28336639,-38.396146,-69.626324)">
    <path
       style="opacity:0.974"
       fill="#fd0000"
       d="m 3581.5,422.5 c 8.37,1.952 16.7,4.119 25,6.5 18.37,7.519 36.7,15.019 55,22.5 0.48,3.949 1.48,7.783 3,11.5 -2.78,6.386 -5.94,12.552 -9.5,18.5 -8.44,5.802 -16.6,11.969 -24.5,18.5 -10.7,5.016 -21.36,10.016 -32,15 -27.85,30.217 -55.35,60.717 -82.5,91.5 -10.33,18 -20.67,36 -31,54 -95.95,197.343 -190.78,389.51 -284.5,576.5 1.43,1.71 1.09,3.05 -1,4 1.43,2.27 1.1,4.27 -1,6 1.43,2.27 1.1,4.27 -1,6 0.52,0.56 0.86,1.23 1,2 -0.47,3.53 -1.47,6.86 -3,10 -2.44,22.02 -5.27,44.18 -8.5,66.5 -11.63,63.79 -21.97,127.79 -31,192 -3.23,43.96 -5.73,87.96 -7.5,132 -10.28,0.95 -20.61,1.29 -31,1 -2,0 -4,0 -6,0 0,-9.67 0,-19.33 0,-29 0.09,-21.02 0.76,-42.02 2,-63 1.28,-10.81 1.95,-21.81 2,-33 0.09,-10.34 0.42,-20.68 1,-31 1,-9.86 2,-19.86 3,-30 0,-0.67 0,-1.33 0,-2 2.17,-6.7 3.17,-13.7 3,-21 0.33,-3.33 0.67,-6.67 1,-10 2.49,-11.42 4.15,-23.08 5,-35 0.69,-5.18 1.69,-10.18 3,-15 2,-5.71 3,-11.71 3,-18 2.09,-13.95 4.09,-27.95 6,-42 1.9,-4.34 3.07,-9 3.5,-14 0.9,-5.64 1.4,-11.3 1.5,-17 0.03,-5.55 0.69,-10.88 2,-16 1.39,-4.77 2.06,-9.77 2,-15 0.57,-5.35 1.24,-10.68 2,-16 2.51,-9.02 3.84,-18.35 4,-28 0,-0.33 0,-0.67 0,-1 0.72,-0.42 1.22,-1.08 1.5,-2 0.5,-2.65 0.66,-5.31 0.5,-8 0.44,-5.31 1.94,-10.31 4.5,-15 89.8,-181.27 178.8,-362.934 267,-545 9.59,-16.171 18.92,-32.504 28,-49 3.62,-5.289 7.62,-10.289 12,-15 23.17,-25.167 46.33,-50.333 69.5,-75.5 19.15,-7.586 36.82,-17.586 53,-30 3.29,-5.418 6.46,-10.918 9.5,-16.5 0.76,-1.566 0.6,-2.899 -0.5,-4 0.09,-2.652 -0.58,-4.985 -2,-7 -8.07,-2.574 -15.74,-5.907 -23,-10 1.88,-4.765 4.05,-9.432 6.5,-14 0.7,-2.429 0.54,-4.762 -0.5,-7 z"
       id="path21" />
  </g>
  <g
     id="g22"
     transform="matrix(0.28336639,0,0,0.28336639,-38.396146,-69.626324)">
    <path
       style="opacity:1"
       fill="#060403"
       d="m 2719.5,426.5 c 2.57,4.139 4.9,8.473 7,13 -3.72,9.997 -6.05,20.33 -7,31 -2.92,3.49 -5.08,7.49 -6.5,12 -1.28,6.943 -2.12,13.943 -2.5,21 -5.39,-2.413 -9.23,-6.413 -11.5,-12 -0.78,-12.485 0.22,-24.818 3,-37 5.1,-9.894 10.94,-19.227 17.5,-28 z"
       id="path22" />
  </g>
  <g
     id="g23"
     transform="matrix(0.28336639,0,0,0.28336639,-38.396146,-69.626324)">
    <path
       style="opacity:0.826"
       fill="#040404"
       d="m 3345.5,435.5 c 1.29,0.558 2.12,1.558 2.5,3 5.14,13.746 10.47,27.412 16,41 0.5,3.652 0.67,7.318 0.5,11 -2.57,-5.859 -5.07,-11.859 -7.5,-18 -3.5,-3.5 -7,-7 -10.5,-10.5 -5.64,-1.571 -10.81,-4.071 -15.5,-7.5 -0.67,-1 -0.67,-2 0,-3 5.08,-5.217 9.92,-10.551 14.5,-16 z"
       id="path23" />
  </g>
  <g
     id="g24"
     transform="matrix(0.28336639,0,0,0.28336639,-38.396146,-69.626324)">
    <path
       style="opacity:0.979"
       fill="#fd0000"
       d="m 207.5,436.5 c 2,0 3,1 3,3 -11.101,6.054 -22.101,12.387 -33,19 -1.431,3.126 -2.764,6.293 -4,9.5 1.874,2.371 3.54,4.871 5,7.5 0.597,0.639 1.43,0.972 2.5,1 9.019,-0.628 17.852,-1.628 26.5,-3 5.584,-1.118 11.251,-1.285 17,-0.5 7.964,1.55 15.964,2.883 24,4 4.618,3.142 9.618,5.476 15,7 4.25,2.374 8.416,4.874 12.5,7.5 3.946,6.279 8.279,12.279 13,18 0.739,3.046 1.572,6.046 2.5,9 0.557,4.665 1.89,8.998 4,13 0.223,3.662 1.223,6.995 3,10 0.223,3.662 1.223,6.995 3,10 0.89,5.666 2.557,11 5,16 0.958,1.802 1.625,3.802 2,6 0.598,9.241 1.931,18.241 4,27 0.973,2.448 1.306,5.115 1,8 0.272,7.566 1.272,14.899 3,22 -0.198,5.25 0.469,10.25 2,15 1.64,7.783 2.64,15.783 3,24 -0.138,4.914 0.528,9.581 2,14 0.65,1.935 0.983,3.935 1,6 1.04,12.217 2.706,24.217 5,36 2.611,19.828 4.945,39.828 7,60 -0.124,5.569 0.543,10.902 2,16 3.396,25.565 6.063,51.232 8,77 -0.138,4.914 0.528,9.581 2,14 2.003,18.696 4.003,37.363 6,56 -0.198,5.25 0.469,10.25 2,15 1.384,6.885 2.05,13.885 2,21 -0.22,4.6 0.446,8.933 2,13 -0.247,3.44 0.086,6.77 1,10 -0.198,5.25 0.469,10.25 2,15 4.812,40.51 9.145,81.18 13,122 -9.114,7.28 -17.447,15.45 -25,24.5 1.12,1.74 2.12,3.57 3,5.5 7.012,1.22 14.012,1.22 21,0 -15.637,14.8 -31.47,29.47 -47.5,44 -0.667,1 -0.667,2 0,3 1.481,0.97 2.315,2.3 2.5,4 2.415,1.31 5.248,1.98 8.5,2 5.401,0.05 10.568,-0.61 15.5,-2 9.823,-1.65 19.823,-2.98 30,-4 2.779,-0.22 5.446,0.11 8,1 0,1.33 0,2.67 0,4 0.265,7.24 1.265,14.24 3,21 0.902,3.5 1.569,7.16 2,11 -0.302,4.29 0.364,8.29 2,12 -0.132,3.07 0.201,6.07 1,9 2.512,24.25 5.845,48.25 10,72 3.302,13.85 5.969,27.85 8,42 -0.09,2.65 0.576,4.99 2,7 2.214,12.4 4.547,24.73 7,37 -0.164,2.69 0.003,5.35 0.5,8 0.383,0.56 0.883,0.89 1.5,1 0,0.33 0,0.67 0,1 -0.375,5.41 0.625,10.41 3,15 10.251,50.67 21.917,101 35,151 -0.206,3 0.46,5.66 2,8 10.23,38.26 19.564,76.93 28,116 1.333,0 2.667,0 4,0 0,2.67 0,5.33 0,8 -0.165,8.36 0.168,16.7 1,25 -7.822,5.64 -15.822,11.14 -24,16.5 -4.016,3.84 -7.016,8.34 -9,13.5 1.947,3.72 4.281,7.22 7,10.5 1.667,0.67 3.333,0.67 5,0 5.207,-2.01 10.54,-3.51 16,-4.5 -12.688,9.68 -26.021,18.34 -40,26 -0.474,-15.05 -1.474,-30.05 -3,-45 -1,0 -2,0 -3,0 -18.801,-84.17 -38.301,-168.17 -58.5,-252 -9.57,-54.76 -19.57,-109.42 -30,-164 -5.251,-40.34 -10.585,-80.68 -16,-121 -0.839,-1.12 -2.006,-1.79 -3.5,-2 -15.106,2.28 -30.273,3.95 -45.5,5 -7.708,1.63 -12.875,-1.04 -15.5,-8 14.031,-14.53 28.864,-28.2 44.5,-41 1.961,-2.96 4.294,-5.63 7,-8 0.167,-1.5 0.333,-3 0.5,-4.5 -15.53,-145.46 -31.03,-290.96 -46.5,-436.5 -6.682,-55.462 -14.016,-110.795 -22,-166 -5.845,-20.379 -11.845,-40.712 -18,-61 -4.442,-7.44 -9.275,-14.606 -14.5,-21.5 -8.228,-4.941 -17.228,-9.274 -27,-13 -9.54,-2.257 -19.207,-3.424 -29,-3.5 -12.013,0.701 -24.013,1.201 -36,1.5 -2.12,-2.409 -4.12,-4.909 -6,-7.5 1.885,-4.5 4.052,-8.833 6.5,-13 21.997,-10.703 43.83,-22.37 65.5,-35 z"
       id="path24" />
  </g>
  <g
     id="g25"
     transform="matrix(0.28336639,0,0,0.28336639,-38.396146,-69.626324)">
    <path
       style="opacity:0.952"
       fill="#0a0605"
       d="m 2014.5,678.5 c -1.56,-12.766 -3.73,-25.433 -6.5,-38 -6.94,-21.167 -13.28,-42.5 -19,-64 -12.45,-32.237 -25.45,-64.237 -39,-96 -3,-2.567 -5.84,-5.234 -8.5,-8 -0.47,-1.193 -1.47,-1.86 -3,-2 -1.23,0.02 -2.23,0.353 -3,1 -3.16,2.662 -5.32,5.995 -6.5,10 -7,25.673 -13.83,51.339 -20.5,77 -1.42,2.015 -2.09,4.348 -2,7 -3.35,17.57 -6.85,35.237 -10.5,53 -1.35,6.946 -2.18,13.946 -2.5,21 -1.23,11.166 -2.23,22.499 -3,34 -1.74,40.643 -2.74,81.31 -3,122 -1.17,-50.165 -1.33,-100.498 -0.5,-151 0.86,-17.346 1.86,-34.679 3,-52 3.67,-21.667 7.33,-43.333 11,-65 7.51,-29.055 15.18,-58.055 23,-87 3.34,-5.416 7.51,-6.249 12.5,-2.5 6.09,5.014 10.59,11.181 13.5,18.5 22.35,48.697 41.35,98.697 57,150 2.88,16.632 5.55,33.299 8,50 0.82,7.512 0.66,14.845 -0.5,22 z"
       id="path25" />
  </g>
  <g
     id="g26"
     transform="matrix(0.28336639,0,0,0.28336639,-38.396146,-69.626324)">
    <path
       style="opacity:1"
       fill="#030101"
       d="m 376.5,1144.5 c -3.855,-40.82 -8.188,-81.49 -13,-122 -0.108,-5.21 -0.775,-10.21 -2,-15 -0.914,-3.23 -1.247,-6.56 -1,-10 0.22,-4.6 -0.446,-8.933 -2,-13 0.05,-7.115 -0.616,-14.115 -2,-21 0.198,-5.25 -0.469,-10.25 -2,-15 -1.997,-18.637 -3.997,-37.304 -6,-56 0.271,-4.934 -0.396,-9.6 -2,-14 -1.937,-25.768 -4.604,-51.435 -8,-77 -0.027,-5.551 -0.694,-10.884 -2,-16 -2.055,-20.172 -4.389,-40.172 -7,-60 -0.752,-12.26 -2.419,-24.26 -5,-36 -0.017,-2.065 -0.35,-4.065 -1,-6 0.271,-4.934 -0.396,-9.6 -2,-14 -0.36,-8.217 -1.36,-16.217 -3,-24 0.056,-5.231 -0.611,-10.231 -2,-15 -0.272,-7.566 -1.272,-14.899 -3,-22 0.306,-2.885 -0.027,-5.552 -1,-8 -0.598,-9.241 -1.931,-18.241 -4,-27 -0.375,-2.198 -1.042,-4.198 -2,-6 -0.89,-5.666 -2.557,-11 -5,-16 -0.223,-3.662 -1.223,-6.995 -3,-10 -0.223,-3.662 -1.223,-6.995 -3,-10 -0.557,-4.665 -1.89,-8.998 -4,-13 -0.928,-2.954 -1.761,-5.954 -2.5,-9 -4.721,-5.721 -9.054,-11.721 -13,-18 -4.084,-2.626 -8.25,-5.126 -12.5,-7.5 -5.382,-1.524 -10.382,-3.858 -15,-7 -8.036,-1.117 -16.036,-2.45 -24,-4 -5.749,-0.785 -11.416,-0.618 -17,0.5 -9.73,-0.121 -19.396,0.546 -29,2 -1.46,-2.629 -3.126,-5.129 -5,-7.5 1.236,-3.207 2.569,-6.374 4,-9.5 10.899,-6.613 21.899,-12.946 33,-19 1.488,1.439 3.322,2.105 5.5,2 31.198,-6.272 60.698,-1.772 88.5,13.5 4.711,6.589 9.545,13.089 14.5,19.5 6.328,20.984 12.661,41.984 19,63 7.201,57.344 14.535,114.677 22,172 13.988,136.222 28.488,272.389 43.5,408.5 -7.495,10.33 -16.495,19.16 -27,26.5 z"
       id="path26" />
  </g>
  <g
     id="g27"
     transform="matrix(0.28336639,0,0,0.28336639,-38.396146,-69.626324)">
    <path
       style="opacity:1"
       fill="#030101"
       d="m 3575.5,443.5 c 7.26,4.093 14.93,7.426 23,10 -0.09,2.652 0.58,4.985 2,7 1.1,1.101 1.26,2.434 0.5,4 -3.04,5.582 -6.21,11.082 -9.5,16.5 -16.18,12.414 -33.85,22.414 -53,30 -23.17,25.167 -46.33,50.333 -69.5,75.5 -4.38,4.711 -8.38,9.711 -12,15 -9.08,16.496 -18.41,32.829 -28,49 -88.2,182.066 -177.2,363.73 -267,545 -2.56,4.69 -4.06,9.69 -4.5,15 -1.08,3.13 -1.75,6.46 -2,10 0,0.33 0,0.67 0,1 -1.63,9.18 -2.96,18.51 -4,28 -0.76,5.32 -1.43,10.65 -2,16 -1.39,4.77 -2.06,9.77 -2,15 -1.31,5.12 -1.97,10.45 -2,16 -1.75,10.19 -3.42,20.52 -5,31 -1.91,14.05 -3.91,28.05 -6,42 -2.28,5.65 -3.28,11.65 -3,18 -1.31,4.82 -2.31,9.82 -3,15 -2.49,11.42 -4.15,23.08 -5,35 -0.33,3.33 -0.67,6.67 -1,10 -1.76,6.76 -2.76,13.76 -3,21 0,0.67 0,1.33 0,2 -2.55,9.7 -3.55,19.7 -3,30 -0.58,10.32 -0.91,20.66 -1,31 -1.66,10.79 -2.33,21.79 -2,33 -1.24,20.98 -1.91,41.98 -2,63 -0.99,9.82 -1.33,19.82 -1,30 -3.67,0 -7.33,0 -11,0 1.3,-78.71 4.14,-157.38 8.5,-236 7.36,-55.51 16.03,-110.84 26,-166 4.41,-35.76 9.41,-71.43 15,-107 86.1,-173.205 171.44,-346.871 256,-521 12.83,-24.322 26.16,-48.322 40,-72 25.17,-27.167 50.33,-54.333 75.5,-81.5 10.67,-5 21.33,-10 32,-15 7.35,-5.672 15.02,-10.839 23,-15.5 z"
       id="path27" />
  </g>
  <g
     id="g28"
     transform="matrix(0.28336639,0,0,0.28336639,-38.396146,-69.626324)">
    <path
       style="opacity:0.979"
       fill="#fd0000"
       d="m 606.5,446.5 c 6.338,0.267 12.671,0.6 19,1 12.376,0.655 24.71,1.822 37,3.5 21.892,7.296 43.559,14.962 65,23 14.837,8.919 29.837,17.586 45,26 15.862,15.529 31.362,31.362 46.5,47.5 8.745,17.158 17.745,34.158 27,51 2.642,8.901 4.809,17.901 6.5,27 -0.09,2.652 0.576,4.985 2,7 1.268,2.405 1.935,5.072 2,8 0.084,4.337 1.084,8.337 3,12 1.268,2.405 1.935,5.072 2,8 0.314,24.045 -0.02,48.045 -1,72 -0.617,0.111 -1.117,0.444 -1.5,1 -1.171,4.686 -2.338,9.352 -3.5,14 -0.333,2 -0.667,4 -1,6 -6.879,16.761 -14.046,33.428 -21.5,50 -14.246,19.491 -28.246,39.157 -42,59 -16.043,18.374 -31.709,37.041 -47,56 -16.074,15.246 -32.574,29.913 -49.5,44 8.881,-12.394 18.381,-24.394 28.5,-36 12.825,-20.311 26.159,-40.311 40,-60 8,-18.667 16,-37.333 24,-56 5.667,-19.667 11.333,-39.333 17,-59 0.667,-24.333 0.667,-48.667 0,-73 -6.131,-20.858 -11.798,-41.858 -17,-63 -8,-15.333 -16,-30.667 -24,-46 -15.167,-16.5 -30.333,-33 -45.5,-49.5 -16.032,-9.347 -32.032,-18.68 -48,-28 -20.555,-6.995 -40.555,-14.328 -60,-22 -8.64,-1.164 -17.307,-1.997 -26,-2.5 7.295,-7.29 14.962,-14.29 23,-21 z"
       id="path28" />
  </g>
  <g
     id="g29"
     transform="matrix(0.28336639,0,0,0.28336639,-38.396146,-69.626324)">
    <path
       style="opacity:1"
       fill="#880001"
       d="m 606.5,446.5 c 6.382,-1.179 12.716,-0.845 19,1 -6.329,-0.4 -12.662,-0.733 -19,-1 z"
       id="path29" />
  </g>
  <g
     id="g30"
     transform="matrix(0.28336639,0,0,0.28336639,-38.396146,-69.626324)">
    <path
       style="opacity:1"
       fill="#550302"
       d="m 3598.5,453.5 c 1.42,2.015 2.09,4.348 2,7 -1.42,-2.015 -2.09,-4.348 -2,-7 z"
       id="path30" />
  </g>
  <g
     id="g31"
     transform="matrix(0.28336639,0,0,0.28336639,-38.396146,-69.626324)">
    <path
       style="opacity:0.769"
       fill="#5e0000"
       d="m 1935.5,471.5 c 0.77,-0.647 1.77,-0.98 3,-1 1.53,0.14 2.53,0.807 3,2 -1.33,0 -2.67,0 -4,0 -0.34,-0.838 -1.01,-1.172 -2,-1 z"
       id="path31" />
  </g>
  <g
     id="g32"
     transform="matrix(0.28336639,0,0,0.28336639,-38.396146,-69.626324)">
    <path
       style="opacity:0.918"
       fill="#050404"
       d="m 2230.5,470.5 c 3.2,124.572 8.03,249.238 14.5,374 9.95,91.305 19.61,182.64 29,274 13.82,83.28 27.32,166.61 40.5,250 44.42,-22.04 88.75,-44.38 133,-67 2.01,16.8 3.34,33.46 4,50 -42.51,22.09 -85.18,43.92 -128,65.5 -0.75,0.67 -1.09,1.5 -1,2.5 -3.34,2.17 -7,3.5 -11,4 -13.27,-83.98 -26.44,-167.98 -39.5,-252 -9.6,-95 -19.27,-190.001 -29,-285 -5.32,-105.956 -9.49,-211.956 -12.5,-318 0.15,-3.851 0.48,-7.684 1,-11.5 -1.61,-25.965 -2.61,-51.965 -3,-78 0.02,-3.252 0.69,-6.085 2,-8.5 z"
       id="path32" />
  </g>
  <g
     id="g33"
     transform="matrix(0.28336639,0,0,0.28336639,-38.396146,-69.626324)">
    <path
       style="opacity:0.765"
       fill="#f30000"
       d="m 1935.5,471.5 c 0.99,-0.172 1.66,0.162 2,1 -1.29,1.796 -2.79,3.463 -4.5,5 -7.37,30.151 -15.04,60.151 -23,90 -4.19,23.969 -8.19,47.969 -12,72 -3.78,55.927 -5.61,111.927 -5.5,168 -2.19,-3.713 -3.85,-7.713 -5,-12 0.26,-40.69 1.26,-81.357 3,-122 0.77,-0.763 1.27,-1.763 1.5,-3 0.87,-10.318 1.37,-20.651 1.5,-31 0.32,-7.054 1.15,-14.054 2.5,-21 3.65,-17.763 7.15,-35.43 10.5,-53 1.42,-2.015 2.09,-4.348 2,-7 6.67,-25.661 13.5,-51.327 20.5,-77 1.18,-4.005 3.34,-7.338 6.5,-10 z"
       id="path33" />
  </g>
  <g
     id="g34"
     transform="matrix(0.28336639,0,0,0.28336639,-38.396146,-69.626324)">
    <path
       style="opacity:1"
       fill="#a10003"
       d="m 207.5,473.5 c -8.648,1.372 -17.481,2.372 -26.5,3 -1.07,-0.028 -1.903,-0.361 -2.5,-1 9.604,-1.454 19.27,-2.121 29,-2 z"
       id="path34" />
  </g>
  <g
     id="g35"
     transform="matrix(0.28336639,0,0,0.28336639,-38.396146,-69.626324)">
    <path
       style="opacity:1"
       fill="#f10a06"
       d="m 2719.5,470.5 c -1.06,3.408 -1.73,6.908 -2,10.5 0.69,4.577 1.69,9.077 3,13.5 2.56,-0.302 4.89,0.032 7,1 -2.72,4.943 -4.06,10.276 -4,16 -4.5,-2.416 -8.83,-5.083 -13,-8 0.38,-7.057 1.22,-14.057 2.5,-21 1.42,-4.51 3.58,-8.51 6.5,-12 z"
       id="path35" />
  </g>
  <g
     id="g36"
     transform="matrix(0.28336639,0,0,0.28336639,-38.396146,-69.626324)">
    <path
       style="opacity:1"
       fill="#616161"
       d="m 555.5,475.5 c -0.99,5.81 -1.323,11.81 -1,18 -1.317,-6.178 -1.317,-12.512 0,-19 0.607,0.124 0.94,0.457 1,1 z"
       id="path36" />
  </g>
  <g
     id="g37"
     transform="matrix(0.28336639,0,0,0.28336639,-38.396146,-69.626324)">
    <path
       style="opacity:1"
       fill="#850003"
       d="m 291.5,518.5 c 2.11,4.002 3.443,8.335 4,13 -2.11,-4.002 -3.443,-8.335 -4,-13 z"
       id="path37" />
  </g>
  <g
     id="g38"
     transform="matrix(0.28336639,0,0,0.28336639,-38.396146,-69.626324)">
    <path
       style="opacity:1"
       fill="#8a0003"
       d="m 295.5,531.5 c 1.777,3.005 2.777,6.338 3,10 -1.777,-3.005 -2.777,-6.338 -3,-10 z"
       id="path38" />
  </g>
  <g
     id="g39"
     transform="matrix(0.28336639,0,0,0.28336639,-38.396146,-69.626324)">
    <path
       style="opacity:1"
       fill="#9b0003"
       d="m 2412.5,526.5 c -1.02,24.23 -3.02,48.23 -6,72 1.35,-24.201 3.35,-48.201 6,-72 z"
       id="path39" />
  </g>
  <g
     id="g40"
     transform="matrix(0.28336639,0,0,0.28336639,-38.396146,-69.626324)">
    <path
       style="opacity:1"
       fill="#8d0002"
       d="m 298.5,541.5 c 1.777,3.005 2.777,6.338 3,10 -1.777,-3.005 -2.777,-6.338 -3,-10 z"
       id="path40" />
  </g>
  <g
     id="g41"
     transform="matrix(0.28336639,0,0,0.28336639,-38.396146,-69.626324)">
    <path
       style="opacity:1"
       fill="#8e0003"
       d="m 301.5,551.5 c 2.443,5 4.11,10.334 5,16 -2.443,-5 -4.11,-10.334 -5,-16 z"
       id="path41" />
  </g>
  <g
     id="g42"
     transform="matrix(0.28336639,0,0,0.28336639,-38.396146,-69.626324)">
    <path
       style="opacity:0.93"
       fill="#fc0201"
       d="m 2748.5,554.5 c 2.16,1.583 4.5,2.916 7,4 5.18,6.521 8.85,13.855 11,22 0,0.667 0.33,1 1,1 0,0.333 0,0.667 0,1 6.47,23.706 12.47,47.206 18,70.5 -0.3,1.32 -0.47,2.82 -0.5,4.5 -12,17.333 -24,34.667 -36,52 -16.5,15.833 -33,31.667 -49.5,47.5 -19.8,12.74 -39.47,25.74 -59,39 -46.39,26.363 -94.06,50.363 -143,72 -24.2,7.799 -48.53,15.132 -73,22 14.25,151.06 28.08,302.22 41.5,453.5 1.16,12.77 2.66,25.27 4.5,37.5 -26.46,13.4 -52.79,27.06 -79,41 -21.31,10.82 -42.64,21.32 -64,31.5 -2.23,-11.24 -3.89,-22.58 -5,-34 -0.09,-1 0.25,-1.83 1,-2.5 42.82,-21.58 85.49,-43.41 128,-65.5 -0.66,-16.54 -1.99,-33.2 -4,-50 2.38,-1.19 4.38,-2.86 6,-5 -15.32,-143.26 -29.99,-286.6 -44,-430 22.96,-6.93 45.96,-13.763 69,-20.5 25.33,-11.667 50.67,-23.333 76,-35 24.49,-12.745 48.83,-25.745 73,-39 21.17,-14.086 42.17,-28.419 63,-43 14.2,-14.529 28.7,-28.696 43.5,-42.5 10.84,-16.351 22.18,-32.351 34,-48 0.56,-2.366 0.4,-4.699 -0.5,-7 -6.8,-25.205 -13.46,-50.372 -20,-75.5 0.07,-0.765 0.4,-1.265 1,-1.5 z"
       id="path42" />
  </g>
  <g
     id="g43"
     transform="matrix(0.28336639,0,0,0.28336639,-38.396146,-69.626324)">
    <path
       style="opacity:1"
       fill="#910003"
       d="m 1908.5,558.5 c 0.09,2.652 -0.58,4.985 -2,7 -0.09,-2.652 0.58,-4.985 2,-7 z"
       id="path43" />
  </g>
  <g
     id="g44"
     transform="matrix(0.28336639,0,0,0.28336639,-38.396146,-69.626324)">
    <path
       style="opacity:1"
       fill="#040202"
       d="m 1498.5,1163.5 c 1.8,-7.41 3.8,-14.74 6,-22 0.72,-0.42 1.22,-1.08 1.5,-2 0.5,-4.32 0.67,-8.65 0.5,-13 0.69,-6.31 1.02,-12.64 1,-19 2.01,-15.12 3.01,-30.45 3,-46 0.12,-28.72 -0.88,-57.38 -3,-86 0.13,-11.532 -0.54,-22.866 -2,-34 -3.02,-28.508 -6.35,-56.841 -10,-85 0.06,-5.231 -0.61,-10.231 -2,-15 -6.25,-28.53 -13.25,-56.863 -21,-85 0.09,-2.652 -0.58,-4.985 -2,-7 -5.39,-22.881 -11.72,-45.547 -19,-68 -6.85,-0.461 -13.52,0.706 -20,3.5 -5.99,0.499 -11.99,0.666 -18,0.5 -2.01,-32.328 -12.68,-61.328 -32,-87 -5.1,5.436 -9.43,11.436 -13,18 0.17,0.992 -0.16,1.658 -1,2 -0.44,-1.006 -1.1,-1.006 -2,0 3.14,-6.28 6.31,-12.614 9.5,-19 9.33,-12.667 18.67,-25.333 28,-38 2.91,6.144 6.57,11.811 11,17 4.33,10 8.67,20 13,30 2.92,13.601 5.42,27.268 7.5,41 12.24,0.725 24.24,-0.608 36,-4 0.94,0.108 1.78,0.441 2.5,1 15.75,54.178 29.75,108.844 42,164 3.33,30.667 6.67,61.333 10,92 2.95,41.955 4.28,83.955 4,126 -1.6,23.34 -3.27,46.67 -5,70 -5.33,16 -10.67,32 -16,48 -3.19,5.73 -6.36,11.4 -9.5,17 z"
       id="path44" />
  </g>
  <g
     id="g45"
     transform="matrix(0.28336639,0,0,0.28336639,-38.396146,-69.626324)">
    <path
       style="opacity:0.951"
       fill="#010101"
       d="m 1135.5,563.5 c 0.17,5.011 0,10.011 -0.5,15 -3.76,18.56 -7.09,37.226 -10,56 -6.46,20.385 -13.13,40.718 -20,61 -10.84,19.686 -21.18,39.686 -31,60 -19.91,26.155 -39.58,52.488 -59,79 -57.768,62.444 -119.268,120.61 -184.5,174.5 -29.94,19.61 -59.606,39.61 -89,60 -35.866,20.43 -71.866,40.6 -108,60.5 -3.51,-12.7 -5.51,-25.53 -6,-38.5 75.802,-37.71 148.136,-80.71 217,-129 63.267,-52.926 123.1,-109.76 179.5,-170.5 19,-26 38,-52 57,-78 9.59,-18.177 18.92,-36.511 28,-55 6.33,-19 12.67,-38 19,-57 1.77,-12.951 4.27,-25.618 7.5,-38 z"
       id="path45" />
  </g>
  <g
     id="g46"
     transform="matrix(0.28336639,0,0,0.28336639,-38.396146,-69.626324)">
    <path
       style="opacity:0.914"
       fill="#fa0000"
       d="m 2158.5,570.5 c 1.97,4.742 3.47,9.742 4.5,15 2.08,14.989 4.08,29.989 6,45 0.4,13.344 0.06,26.677 -1,40 -2.41,13.381 -5.08,26.714 -8,40 -13.75,25.072 -29.09,49.072 -46,72 -21.47,20.471 -42.64,41.305 -63.5,62.5 -23.33,15 -46.67,30 -70,45 -29.55,14.935 -58.55,29.935 -87,45 -0.49,6.747 -0.49,13.58 0,20.5 -3.62,-12.596 -4.95,-25.596 -4,-39 27.82,-14.409 55.82,-28.576 84,-42.5 23,-13.667 46,-27.333 69,-41 22.47,-20.802 44.64,-41.969 66.5,-63.5 6.95,-9.951 14.28,-19.617 22,-29 8.33,-13.333 16.67,-26.667 25,-40 2.46,-11.982 4.8,-23.982 7,-36 0.77,-11.339 1.6,-22.672 2.5,-34 -0.47,-5.714 -1.14,-11.381 -2,-17 0.06,-5.231 -0.61,-10.231 -2,-15 0.12,-9.465 -0.88,-18.798 -3,-28 z"
       id="path46" />
  </g>
  <g
     id="g47"
     transform="matrix(0.28336639,0,0,0.28336639,-38.396146,-69.626324)">
    <path
       style="opacity:1"
       fill="#8f0003"
       d="m 308.5,573.5 c 2.069,8.759 3.402,17.759 4,27 -2.069,-8.759 -3.402,-17.759 -4,-27 z"
       id="path47" />
  </g>
  <g
     id="g48"
     transform="matrix(0.28336639,0,0,0.28336639,-38.396146,-69.626324)">
    <path
       style="opacity:0.936"
       fill="#fa0000"
       d="m 1470.5,749.5 c -0.09,2.652 0.58,4.985 2,7 7.75,28.137 14.75,56.47 21,85 -0.06,5.231 0.61,10.231 2,15 3.65,28.159 6.98,56.492 10,85 0.01,11.524 0.68,22.858 2,34 2.12,28.62 3.12,57.28 3,86 -1.41,15.15 -2.41,30.49 -3,46 0.02,6.36 -0.31,12.69 -1,19 -0.83,4.85 -1.49,9.85 -2,15 -2.2,7.26 -4.2,14.59 -6,22 -8.16,18.33 -18.83,35 -32,50 4.04,-13.14 8.54,-26.14 13.5,-39 4.68,-33.81 8.18,-67.81 10.5,-102 -0.67,-18.67 -1.33,-37.33 -2,-56 0.47,-12.17 0.8,-24.338 1,-36.5 -1.14,-11.404 -2.47,-22.737 -4,-34 0.62,-1.4 0.95,-2.9 1,-4.5 -2.77,-23.331 -4.94,-46.998 -6.5,-71 -5.69,-29.101 -11.69,-58.435 -18,-88 -7.13,-28.353 -13.96,-55.853 -20.5,-82.5 -6.09,1.024 -12.09,2.69 -18,5 -7.99,1.032 -15.99,1.865 -24,2.5 -1.18,-12.418 -3.01,-24.751 -5.5,-37 -4.99,-19.867 -13.49,-37.867 -25.5,-54 3.57,-6.564 7.9,-12.564 13,-18 19.32,25.672 29.99,54.672 32,87 6.01,0.166 12.01,-10e-4 18,-0.5 6.48,-2.794 13.15,-3.961 20,-3.5 7.28,22.453 13.61,45.119 19,68 z"
       id="path48" />
  </g>
  <g
     id="g49"
     transform="matrix(0.28336639,0,0,0.28336639,-38.396146,-69.626324)">
    <path
       style="opacity:0.994"
       fill="#030202"
       d="m 2727.5,495.5 c 5.01,-0.166 10.01,10e-4 15,0.5 3.08,2.29 6.25,4.457 9.5,6.5 15.87,30.253 30.2,61.253 43,93 24.18,63.877 47.18,128.211 69,193 35.86,113.581 72.53,226.91 110,340 9.53,22.06 19.86,43.73 31,65 0.05,12.06 -0.78,24.06 -2.5,36 -7.63,-14.35 -14.79,-29.01 -21.5,-44 -31.48,-93.11 -62.15,-186.439 -92,-280 -28.77,-88.643 -60.1,-176.31 -94,-263 -8.93,-20.179 -18.09,-40.179 -27.5,-60 0,-0.333 0,-0.667 0,-1 -0.67,0 -1,-0.333 -1,-1 -2.15,-8.145 -5.82,-15.479 -11,-22 -1.58,-2.555 -3.74,-4.555 -6.5,-6 -0.46,0.594 -0.63,1.261 -0.5,2 -0.6,0.235 -0.93,0.735 -1,1.5 6.54,25.128 13.2,50.295 20,75.5 0.9,2.301 1.06,4.634 0.5,7 -11.82,15.649 -23.16,31.649 -34,48 -14.8,13.804 -29.3,27.971 -43.5,42.5 -20.83,14.581 -41.83,28.914 -63,43 -24.17,13.255 -48.51,26.255 -73,39 -25.33,11.667 -50.67,23.333 -76,35 -23.04,6.737 -46.04,13.57 -69,20.5 -1.46,-13.316 -2.8,-26.649 -4,-40 24.36,-7.007 48.69,-14.174 73,-21.5 18.8,-9.067 37.8,-17.567 57,-25.5 0.67,0 1,-0.333 1,-1 0.33,0 0.67,0 1,0 0.67,0 1,-0.333 1,-1 0.33,0 0.67,0 1,0 0.99,0.172 1.66,-0.162 2,-1 0.99,0.172 1.66,-0.162 2,-1 0.99,0.172 1.66,-0.162 2,-1 0.33,0 0.67,0 1,0 0.67,0 1,-0.333 1,-1 0.33,0 0.67,0 1,0 0.99,0.172 1.66,-0.162 2,-1 0.99,0.172 1.66,-0.162 2,-1 0.99,0.172 1.66,-0.162 2,-1 15.63,-5.38 30.63,-12.213 45,-20.5 1.73,-1.972 3.07,-4.139 4,-6.5 24.98,-14.491 49.32,-29.991 73,-46.5 15.83,-15.167 31.67,-30.333 47.5,-45.5 11,-15.667 22,-31.333 33,-47 0.67,-1.667 0.67,-3.333 0,-5 -7.36,-27.119 -15.2,-54.119 -23.5,-81 -2.94,-2.81 -6.27,-5.144 -10,-7 -0.06,-5.724 1.28,-11.057 4,-16 z m 28,63 c -2.5,-1.084 -4.84,-2.417 -7,-4 -0.13,-0.739 0.04,-1.406 0.5,-2 2.76,1.445 4.92,3.445 6.5,6 z"
       id="path49" />
  </g>
  <g
     id="g50"
     transform="matrix(0.28336639,0,0,0.28336639,-38.396146,-69.626324)">
    <path
       style="opacity:0.992"
       fill="#030101"
       d="m 2161.5,602.5 c 0.15,3.887 0.81,7.554 2,11 0.86,5.619 1.53,11.286 2,17 -0.9,11.328 -1.73,22.661 -2.5,34 -2.2,12.018 -4.54,24.018 -7,36 -8.33,13.333 -16.67,26.667 -25,40 -7.72,9.383 -15.05,19.049 -22,29 -21.86,21.531 -44.03,42.698 -66.5,63.5 -23,13.667 -46,27.333 -69,41 -28.18,13.924 -56.18,28.091 -84,42.5 -0.74,-13.175 -1.41,-26.508 -2,-40 0.33,-1.333 0.67,-2.667 1,-4 8.01,-4.509 16.35,-8.176 25,-11 4.35,0.166 8.68,-10e-4 13,-0.5 10.21,-4.941 20.55,-9.608 31,-14 4.87,-4.702 9.54,-9.535 14,-14.5 0.99,0.172 1.66,-0.162 2,-1 0.67,0 1,-0.333 1,-1 21.59,-13.736 43.59,-26.903 66,-39.5 22.5,-21.167 45,-42.333 67.5,-63.5 6.62,-9.616 13.62,-18.95 21,-28 8,-12.667 16,-25.333 24,-38 2.13,-9.632 4.13,-19.298 6,-29 0.23,-10.202 1.06,-20.202 2.5,-30 z"
       id="path50" />
  </g>
  <g
     id="g51"
     transform="matrix(0.28336639,0,0,0.28336639,-38.396146,-69.626324)">
    <path
       style="opacity:1"
       fill="#490401"
       d="m 2161.5,598.5 c 1.39,4.769 2.06,9.769 2,15 -1.19,-3.446 -1.85,-7.113 -2,-11 0,-1.333 0,-2.667 0,-4 z"
       id="path51" />
  </g>
  <g
     id="g52"
     transform="matrix(0.28336639,0,0,0.28336639,-38.396146,-69.626324)">
    <path
       style="opacity:1"
       fill="#800002"
       d="m 313.5,608.5 c 1.728,7.101 2.728,14.434 3,22 -1.728,-7.101 -2.728,-14.434 -3,-22 z"
       id="path52" />
  </g>
  <g
     id="g53"
     transform="matrix(0.28336639,0,0,0.28336639,-38.396146,-69.626324)">
    <path
       style="opacity:0.185"
       fill="#db130a"
       d="m 1178.5,609.5 c -2.49,6.97 -5.49,13.637 -9,20 -2.27,3.538 -4.27,7.205 -6,11 0,-1.333 0,-2.667 0,-4 4.25,-9.519 9.25,-18.519 15,-27 z"
       id="path53" />
  </g>
  <g
     id="g54"
     transform="matrix(0.28336639,0,0,0.28336639,-38.396146,-69.626324)">
    <path
       style="opacity:0.353"
       fill="#5a1511"
       d="m 1367.5,618.5 c -1.26,3.525 -3.26,6.525 -6,9 0.54,-3.412 1.88,-6.412 4,-9 0.9,-1.006 1.56,-1.006 2,0 z"
       id="path54" />
  </g>
  <g
     id="g55"
     transform="matrix(0.28336639,0,0,0.28336639,-38.396146,-69.626324)">
    <path
       style="opacity:1"
       fill="#890002"
       d="m 852.5,625.5 c 1.424,2.015 2.09,4.348 2,7 -1.424,-2.015 -2.09,-4.348 -2,-7 z"
       id="path55" />
  </g>
  <g
     id="g56"
     transform="matrix(0.28336639,0,0,0.28336639,-38.396146,-69.626324)">
    <path
       style="opacity:0.949"
       fill="#fc0000"
       d="m 1163.5,636.5 c 0,1.333 0,2.667 0,4 -0.54,1.617 -0.87,3.284 -1,5 -1.79,1.926 -2.79,4.259 -3,7 -3.38,4.776 -5.72,10.11 -7,16 -2.12,2.588 -3.46,5.588 -4,9 -2.12,2.588 -3.46,5.588 -4,9 -1.43,1.28 -2.1,2.947 -2,5 -3.49,6.33 -6.49,12.997 -9,20 -13.63,35.974 -26.8,72.307 -39.5,109 -2.33,11.651 -4.5,23.318 -6.5,35 -0.62,0.111 -1.12,0.444 -1.5,1 -0.5,2.982 -0.66,5.982 -0.5,9 -3.97,19.204 -7.31,38.538 -10,58 -1.31,5.116 -1.97,10.449 -2,16 -0.72,0.418 -1.22,1.084 -1.5,2 -0.5,4.989 -0.67,9.989 -0.5,15 0,0.333 0,0.667 0,1 -2.13,8.399 -3.13,17.065 -3,26 -2.06,10.104 -3.39,20.44 -4,31 -1.95,40.61 -2.45,81.28 -1.5,122 0.88,5.34 1.71,10.67 2.5,16 -0.38,3.99 0.28,7.66 2,11 0,0.33 0,0.67 0,1 -0.3,4.29 0.36,8.29 2,12 0,0.67 0,1.33 0,2 0.35,6.34 0.85,12.67 1.5,19 0.76,1.81 1.59,3.48 2.5,5 0,0.67 0,1.33 0,2 -0.1,6.32 0.9,12.32 3,18 -0.2,2.45 0.13,4.78 1,7 -0.09,2.65 0.58,4.99 2,7 0.03,3.42 1.03,6.42 3,9 0,0.33 0,0.67 0,1 -0.09,2.65 0.58,4.99 2,7 0.22,3.66 1.22,7 3,10 0.22,3.66 1.22,7 3,10 9.39,15.77 18.56,31.77 27.5,48 11,13.67 22,27.33 33,41 2.2,2.54 4.7,4.71 7.5,6.5 11.33,7 22.67,14 34,21 14.74,4.13 29.4,8.47 44,13 22.33,0.87 44.66,1.21 67,1 5.98,-1.51 11.98,-2.67 18,-3.5 3.66,-0.45 7.33,-0.95 11,-1.5 3,-0.74 5.67,-1.9 8,-3.5 2.69,0.16 5.35,0 8,-0.5 2.15,-0.1 3.82,-0.93 5,-2.5 3.41,-1.4 7.08,-2.07 11,-2 4.44,-0.91 8.44,-2.58 12,-5 11.71,-5.18 23.71,-9.85 36,-14 4.05,-0.85 8.05,-2.02 12,-3.5 0.56,-0.38 0.89,-0.88 1,-1.5 16.37,-8.52 33.04,-16.52 50,-24 0.79,-2.63 2.46,-4.46 5,-5.5 28.75,-16.76 56.42,-35.1 83,-55 9.9,-10.76 20.23,-20.26 31,-28.5 -7.28,11.12 -14.78,22.12 -22.5,33 -9.41,8.62 -18.91,17.12 -28.5,25.5 -31.32,22.67 -63.98,43.33 -98,62 0.56,1.57 -0.11,2.9 -2,4 -38.53,17.57 -77.87,33.07 -118,46.5 -17.04,3.68 -34.04,7.51 -51,11.5 -24.31,1.83 -48.64,1.83 -73,0 -13.17,-4.28 -26.5,-7.94 -40,-11 -12.8,-7.48 -25.46,-15.15 -38,-23 -11.8,-14.48 -23.64,-28.98 -35.5,-43.5 -8.01,-14.03 -16.01,-28.03 -24,-42 -4.51,-15.03 -9.18,-30.03 -14,-45 -3.46,-27.08 -7.46,-54.08 -12,-81 -0.84,-40.01 -0.51,-80.01 1,-120 4.5,-35.32 8.83,-70.649 13,-106 4.8,-30.5 10.46,-60.833 17,-91 10.5,-32.828 21.5,-65.828 33,-99 14.14,-35.413 28.47,-70.747 43,-106 5.93,-10.861 12.09,-21.528 18.5,-32 z"
       id="path56" />
  </g>
  <g
     id="g57"
     transform="matrix(0.28336639,0,0,0.28336639,-38.396146,-69.626324)">
    <path
       style="opacity:1"
       fill="#870002"
       d="m 316.5,630.5 c 1.389,4.769 2.056,9.769 2,15 -1.531,-4.75 -2.198,-9.75 -2,-15 z"
       id="path57" />
  </g>
  <g
     id="g58"
     transform="matrix(0.28336639,0,0,0.28336639,-38.396146,-69.626324)">
    <path
       style="opacity:1"
       fill="#211210"
       d="m 1169.5,629.5 c -1.57,5.73 -3.9,11.063 -7,16 0.13,-1.716 0.46,-3.383 1,-5 1.73,-3.795 3.73,-7.462 6,-11 z"
       id="path58" />
  </g>
  <g
     id="g59"
     transform="matrix(0.28336639,0,0,0.28336639,-38.396146,-69.626324)">
    <path
       style="opacity:1"
       fill="#8b0002"
       d="m 856.5,640.5 c 1.602,3.739 2.602,7.739 3,12 -1.916,-3.663 -2.916,-7.663 -3,-12 z"
       id="path59" />
  </g>
  <g
     id="g60"
     transform="matrix(0.28336639,0,0,0.28336639,-38.396146,-69.626324)">
    <path
       style="opacity:1"
       fill="#221211"
       d="m 1162.5,645.5 c -0.21,2.741 -1.21,5.074 -3,7 0.21,-2.741 1.21,-5.074 3,-7 z"
       id="path60" />
  </g>
  <g
     id="g61"
     transform="matrix(0.28336639,0,0,0.28336639,-38.396146,-69.626324)">
    <path
       style="opacity:1"
       fill="#a60003"
       d="m 1893.5,639.5 c -0.13,10.349 -0.63,20.682 -1.5,31 -0.23,1.237 -0.73,2.237 -1.5,3 0.77,-11.501 1.77,-22.834 3,-34 z"
       id="path61" />
  </g>
  <g
     id="g62"
     transform="matrix(0.28336639,0,0,0.28336639,-38.396146,-69.626324)">
    <path
       style="opacity:1"
       fill="#3c1412"
       d="m 1159.5,652.5 c -1.82,5.625 -4.15,10.959 -7,16 1.28,-5.89 3.62,-11.224 7,-16 z"
       id="path62" />
  </g>
  <g
     id="g63"
     transform="matrix(0.28336639,0,0,0.28336639,-38.396146,-69.626324)">
    <path
       style="opacity:1"
       fill="#301210"
       d="m 1152.5,668.5 c -0.54,3.412 -1.88,6.412 -4,9 0.54,-3.412 1.88,-6.412 4,-9 z"
       id="path63" />
  </g>
  <g
     id="g64"
     transform="matrix(0.28336639,0,0,0.28336639,-38.396146,-69.626324)">
    <path
       style="opacity:1"
       fill="#9f0003"
       d="m 321.5,669.5 c 1.604,4.4 2.271,9.066 2,14 -1.472,-4.419 -2.138,-9.086 -2,-14 z"
       id="path64" />
  </g>
  <g
     id="g65"
     transform="matrix(0.28336639,0,0,0.28336639,-38.396146,-69.626324)">
    <path
       style="opacity:1"
       fill="#550b09"
       d="m 1148.5,677.5 c -0.54,3.412 -1.88,6.412 -4,9 0.54,-3.412 1.88,-6.412 4,-9 z"
       id="path65" />
  </g>
  <g
     id="g66"
     transform="matrix(0.28336639,0,0,0.28336639,-38.396146,-69.626324)">
    <path
       style="opacity:1"
       fill="#510c0a"
       d="m 1144.5,686.5 c 0.1,2.053 -0.57,3.72 -2,5 -0.1,-2.053 0.57,-3.72 2,-5 z"
       id="path66" />
  </g>
  <g
     id="g67"
     transform="matrix(0.28336639,0,0,0.28336639,-38.396146,-69.626324)">
    <path
       style="opacity:1"
       fill="#321009"
       d="m 1142.5,691.5 c -1.56,7.031 -3.9,13.698 -7,20 -0.44,-1.006 -1.1,-1.006 -2,0 2.51,-7.003 5.51,-13.67 9,-20 z"
       id="path67" />
  </g>
  <g
     id="g68"
     transform="matrix(0.28336639,0,0,0.28336639,-38.396146,-69.626324)">
    <path
       style="opacity:1"
       fill="#730102"
       d="m 324.5,689.5 c 2.581,11.74 4.248,23.74 5,36 -2.294,-11.783 -3.96,-23.783 -5,-36 z"
       id="path68" />
  </g>
  <g
     id="g69"
     transform="matrix(0.28336639,0,0,0.28336639,-38.396146,-69.626324)">
    <path
       style="opacity:0.997"
       fill="#040101"
       d="m 1135.5,711.5 c -8.06,23.336 -16.22,46.669 -24.5,70 -5.67,29.333 -11.33,58.667 -17,88 -4.18,37.404 -8.84,74.737 -14,112 -0.67,38.67 -0.67,77.33 0,116 4.58,29.68 9.25,59.35 14,89 4.51,15.05 9.18,30.05 14,45 9,15.33 18,30.67 27,46 11.83,14.5 23.67,29 35.5,43.5 13.33,8 26.67,16 40,24 14,4 28,8 42,12 23.32,1.25 46.66,1.58 70,1 18,-4 36,-8 54,-12 39.69,-13.35 78.36,-29.18 116,-47.5 0.76,-1.13 1.43,-2.29 2,-3.5 14,-8.33 28,-16.67 42,-25 12.83,-9.25 25.83,-18.25 39,-27 12.47,-10.8 24.63,-21.96 36.5,-33.5 10.03,-16.17 20.2,-32.17 30.5,-48 -2.42,9.01 -6.09,17.51 -11,25.5 0.33,0.33 0.67,0.67 1,1 -7.51,16.19 -16.18,31.69 -26,46.5 -3.28,3.17 -6.11,6.83 -8.5,11 -0.49,1.29 -0.66,2.63 -0.5,4 -0.53,1.73 -1.53,3.06 -3,4 -10.77,8.24 -21.1,17.74 -31,28.5 -26.58,19.9 -54.25,38.24 -83,55 -2.54,1.04 -4.21,2.87 -5,5.5 -16.96,7.48 -33.63,15.48 -50,24 -4.64,1.1 -8.98,2.77 -13,5 -12.29,4.15 -24.29,8.82 -36,14 -4.44,0.91 -8.44,2.58 -12,5 -3.92,-0.07 -7.59,0.6 -11,2 -4.59,0.38 -8.93,1.38 -13,3 -6.54,1.28 -12.87,2.95 -19,5 -6.02,0.83 -12.02,1.99 -18,3.5 -22.34,0.21 -44.67,-0.13 -67,-1 -14.6,-4.53 -29.26,-8.87 -44,-13 -11.33,-7 -22.67,-14 -34,-21 -2.8,-1.79 -5.3,-3.96 -7.5,-6.5 -11,-13.67 -22,-27.33 -33,-41 -8.94,-16.23 -18.11,-32.23 -27.5,-48 -0.22,-3.66 -1.22,-7 -3,-10 -0.22,-3.66 -1.22,-7 -3,-10 0.09,-2.65 -0.58,-4.99 -2,-7 0,-0.33 0,-0.67 0,-1 -0.43,-3.28 -1.43,-6.28 -3,-9 0.09,-2.65 -0.58,-4.99 -2,-7 -0.87,-2.22 -1.2,-4.55 -1,-7 -0.64,-6.19 -1.64,-12.19 -3,-18 0,-0.67 0,-1.33 0,-2 -0.88,-8.2 -2.22,-16.2 -4,-24 0,-0.67 0,-1.33 0,-2 -0.22,-4.21 -0.88,-8.21 -2,-12 0,-0.33 0,-0.67 0,-1 -0.15,-3.89 -0.81,-7.55 -2,-11 -0.79,-5.33 -1.62,-10.66 -2.5,-16 -0.95,-40.72 -0.45,-81.39 1.5,-122 2.06,-10.1 3.39,-20.438 4,-31 1.31,-8.489 2.31,-17.156 3,-26 0,-0.333 0,-0.667 0,-1 1.38,-5.444 2.05,-11.111 2,-17 1.58,-5.083 2.25,-10.416 2,-16 2.69,-19.462 6.03,-38.796 10,-58 1.08,-3.127 1.75,-6.46 2,-10 2,-11.682 4.17,-23.349 6.5,-35 12.7,-36.693 25.87,-73.026 39.5,-109 0.9,-1.006 1.56,-1.006 2,0 z"
       id="path69" />
  </g>
  <g
     id="g70"
     transform="matrix(0.28336639,0,0,0.28336639,-38.396146,-69.626324)">
    <path
       style="opacity:1"
       fill="#4f0703"
       d="m 861.5,660.5 c 0.998,22.827 1.331,45.827 1,69 -0.888,4.572 -2.221,8.905 -4,13 0.351,-3.403 1.018,-6.737 2,-10 0.98,-23.955 1.314,-47.955 1,-72 z"
       id="path70" />
  </g>
  <g
     id="g71"
     transform="matrix(0.28336639,0,0,0.28336639,-38.396146,-69.626324)">
    <path
       style="opacity:1"
       fill="#b40002"
       d="m 860.5,732.5 c -0.982,3.263 -1.649,6.597 -2,10 -0.813,1.761 -1.813,3.428 -3,5 1.162,-4.648 2.329,-9.314 3.5,-14 0.383,-0.556 0.883,-0.889 1.5,-1 z"
       id="path71" />
  </g>
  <g
     id="g72"
     transform="matrix(0.28336639,0,0,0.28336639,-38.396146,-69.626324)">
    <path
       style="opacity:1"
       fill="#471412"
       d="m 858.5,742.5 c -0.525,4.033 -1.858,7.7 -4,11 0.333,-2 0.667,-4 1,-6 1.187,-1.572 2.187,-3.239 3,-5 z"
       id="path72" />
  </g>
  <g
     id="g73"
     transform="matrix(0.28336639,0,0,0.28336639,-38.396146,-69.626324)">
    <path
       style="opacity:1"
       fill="#940003"
       d="m 1470.5,749.5 c 1.42,2.015 2.09,4.348 2,7 -1.42,-2.015 -2.09,-4.348 -2,-7 z"
       id="path73" />
  </g>
  <g
     id="g74"
     transform="matrix(0.28336639,0,0,0.28336639,-38.396146,-69.626324)">
    <path
       style="opacity:1"
       fill="#6f0001"
       d="m 336.5,785.5 c 1.306,5.116 1.973,10.449 2,16 -1.457,-5.098 -2.124,-10.431 -2,-16 z"
       id="path74" />
  </g>
  <g
     id="g75"
     transform="matrix(0.28336639,0,0,0.28336639,-38.396146,-69.626324)">
    <path
       style="opacity:0.952"
       fill="#020101"
       d="m 1753.5,809.5 c 0.78,93.662 1.28,187.328 1.5,281 6.42,53.7 13.09,107.37 20,161 7.72,34.3 15.22,68.63 22.5,103 4.57,1.02 9.07,2.36 13.5,4 6.77,-2.07 13.6,-3.9 20.5,-5.5 29.12,-12.73 58.12,-25.73 87,-39 7.49,-5.33 14.83,-10.83 22,-16.5 2.05,11.62 3.88,23.29 5.5,35 0.67,2.67 0.67,5.33 0,8 -13.1,9.47 -25.94,19.3 -38.5,29.5 -28.87,13.27 -57.87,26.27 -87,39 -6.81,1.91 -13.64,3.74 -20.5,5.5 -2.87,-0.9 -5.7,-1.9 -8.5,-3 -0.61,0.12 -0.94,0.46 -1,1 -1.67,-0.25 -3.17,-0.92 -4.5,-2 -6.59,-31.62 -12.92,-63.28 -19,-95 -7.59,-57.99 -13.92,-115.99 -19,-174 0.99,-87.01 2.82,-174.011 5.5,-261 -1.09,-23.652 -1.09,-47.319 0,-71 z"
       id="path75" />
  </g>
  <g
     id="g76"
     transform="matrix(0.28336639,0,0,0.28336639,-38.396146,-69.626324)">
    <path
       style="opacity:1"
       fill="#ad0002"
       d="m 1493.5,841.5 c 1.39,4.769 2.06,9.769 2,15 -1.39,-4.769 -2.06,-9.769 -2,-15 z"
       id="path76" />
  </g>
  <g
     id="g77"
     transform="matrix(0.28336639,0,0,0.28336639,-38.396146,-69.626324)">
    <path
       style="opacity:1"
       fill="#960005"
       d="m 1087.5,855.5 c -0.25,3.54 -0.92,6.873 -2,10 -0.16,-3.018 0,-6.018 0.5,-9 0.38,-0.556 0.88,-0.889 1.5,-1 z"
       id="path77" />
  </g>
  <g
     id="g78"
     transform="matrix(0.28336639,0,0,0.28336639,-38.396146,-69.626324)">
    <path
       style="opacity:1"
       fill="#930003"
       d="m 346.5,878.5 c 1.604,4.4 2.271,9.066 2,14 -1.472,-4.419 -2.138,-9.086 -2,-14 z"
       id="path78" />
  </g>
  <g
     id="g79"
     transform="matrix(0.28336639,0,0,0.28336639,-38.396146,-69.626324)">
    <path
       style="opacity:1"
       fill="#6f0002"
       d="m 1075.5,923.5 c 0.25,5.584 -0.42,10.917 -2,16 0.03,-5.551 0.69,-10.884 2,-16 z"
       id="path79" />
  </g>
  <g
     id="g80"
     transform="matrix(0.28336639,0,0,0.28336639,-38.396146,-69.626324)">
    <path
       style="opacity:1"
       fill="#ae0003"
       d="m 1073.5,939.5 c 0.05,5.889 -0.62,11.556 -2,17 -0.17,-5.011 0,-10.011 0.5,-15 0.28,-0.916 0.78,-1.582 1.5,-2 z"
       id="path80" />
  </g>
  <g
     id="g81"
     transform="matrix(0.28336639,0,0,0.28336639,-38.396146,-69.626324)">
    <path
       style="opacity:1"
       fill="#870002"
       d="m 354.5,948.5 c 1.531,4.75 2.198,9.75 2,15 -1.531,-4.75 -2.198,-9.75 -2,-15 z"
       id="path81" />
  </g>
  <g
     id="g82"
     transform="matrix(0.28336639,0,0,0.28336639,-38.396146,-69.626324)">
    <path
       style="opacity:1"
       fill="#8f0002"
       d="m 1071.5,957.5 c -0.69,8.844 -1.69,17.511 -3,26 -0.13,-8.935 0.87,-17.601 3,-26 z"
       id="path82" />
  </g>
  <g
     id="g83"
     transform="matrix(0.28336639,0,0,0.28336639,-38.396146,-69.626324)">
    <path
       style="opacity:1"
       fill="#780001"
       d="m 1505.5,941.5 c 1.46,11.134 2.13,22.468 2,34 -1.32,-11.142 -1.99,-22.476 -2,-34 z"
       id="path83" />
  </g>
  <g
     id="g84"
     transform="matrix(0.28336639,0,0,0.28336639,-38.396146,-69.626324)">
    <path
       style="opacity:1"
       fill="#6b0002"
       d="m 1068.5,983.5 c -0.61,10.562 -1.94,20.9 -4,31 0.61,-10.56 1.94,-20.896 4,-31 z"
       id="path84" />
  </g>
  <g
     id="g85"
     transform="matrix(0.28336639,0,0,0.28336639,-38.396146,-69.626324)">
    <path
       style="opacity:1"
       fill="#7c0002"
       d="m 358.5,984.5 c 1.554,4.067 2.22,8.4 2,13 -1.554,-4.067 -2.22,-8.4 -2,-13 z"
       id="path85" />
  </g>
  <g
     id="g86"
     transform="matrix(0.28336639,0,0,0.28336639,-38.396146,-69.626324)">
    <path
       style="opacity:1"
       fill="#680002"
       d="m 361.5,1007.5 c 1.225,4.79 1.892,9.79 2,15 -1.531,-4.75 -2.198,-9.75 -2,-15 z"
       id="path86" />
  </g>
  <g
     id="g87"
     transform="matrix(0.28336639,0,0,0.28336639,-38.396146,-69.626324)">
    <path
       style="opacity:1"
       fill="#600102"
       d="m 1510.5,1061.5 c 0.01,15.55 -0.99,30.88 -3,46 0.59,-15.51 1.59,-30.85 3,-46 z"
       id="path87" />
  </g>
  <g
     id="g88"
     transform="matrix(0.28336639,0,0,0.28336639,-38.396146,-69.626324)">
    <path
       style="opacity:1"
       fill="#9c0001"
       d="m 1506.5,1126.5 c 0.17,4.35 0,8.68 -0.5,13 -0.28,0.92 -0.78,1.58 -1.5,2 0.51,-5.15 1.17,-10.15 2,-15 z"
       id="path88" />
  </g>
  <g
     id="g89"
     transform="matrix(0.28336639,0,0,0.28336639,-38.396146,-69.626324)">
    <path
       style="opacity:1"
       fill="#830003"
       d="m 1065.5,1152.5 c 1.19,3.45 1.85,7.11 2,11 -1.72,-3.34 -2.38,-7.01 -2,-11 z"
       id="path89" />
  </g>
  <g
     id="g90"
     transform="matrix(0.28336639,0,0,0.28336639,-38.396146,-69.626324)">
    <path
       style="opacity:1"
       fill="#030101"
       d="m 503.5,1769.5 c -0.341,-8.18 -1.008,-16.18 -2,-24 0,-2.67 0,-5.33 0,-8 -1.333,0 -2.667,0 -4,0 -8.436,-39.07 -17.77,-77.74 -28,-116 -0.065,-2.93 -0.732,-5.59 -2,-8 -13.083,-50 -24.749,-100.33 -35,-151 -0.478,-5.23 -1.478,-10.23 -3,-15 0,-0.33 0,-0.67 0,-1 -0.176,-3.23 -0.843,-6.23 -2,-9 -2.453,-12.27 -4.786,-24.6 -7,-37 0.09,-2.65 -0.576,-4.99 -2,-7 -2.031,-14.15 -4.698,-28.15 -8,-42 -2.699,-24.22 -6.032,-48.22 -10,-72 -0.799,-2.93 -1.132,-5.93 -1,-9 -0.039,-4.23 -0.705,-8.23 -2,-12 -0.431,-3.84 -1.098,-7.5 -2,-11 0.008,-7.28 -0.992,-14.28 -3,-21 0,-1.33 0,-2.67 0,-4 -0.834,-1.25 -2.167,-1.91 -4,-2 -1.545,0.01 -2.878,0.34 -4,1 -10.177,1.02 -20.177,2.35 -30,4 -8.064,1.03 -16.064,1.03 -24,0 -0.185,-1.7 -1.019,-3.03 -2.5,-4 -0.667,-1 -0.667,-2 0,-3 16.03,-14.53 31.863,-29.2 47.5,-44 11.687,-1.09 23.354,-2.42 35,-4 1.6,0.05 3.1,0.38 4.5,1 6.263,43.3 12.263,86.63 18,130 9.333,50 18.667,100 28,150 19.625,79.5 38.458,159.16 56.5,239 1.333,0 2.667,0 4,0 1.289,17.31 1.789,34.65 1.5,52 -1.667,5.67 -3.333,11.33 -5,17 -4.601,3.71 -9.435,7.05 -14.5,10 z"
       id="path90" />
  </g>
  <g
     id="g91"
     transform="matrix(0.28336639,0,0,0.28336639,-38.396146,-69.626324)">
    <path
       style="opacity:1"
       fill="#730002"
       d="m 1067.5,1164.5 c 1.12,3.79 1.78,7.79 2,12 -1.64,-3.71 -2.3,-7.71 -2,-12 z"
       id="path91" />
  </g>
  <g
     id="g92"
     transform="matrix(0.28336639,0,0,0.28336639,-38.396146,-69.626324)">
    <path
       style="opacity:1"
       fill="#a80004"
       d="m 1069.5,1178.5 c 1.78,7.8 3.12,15.8 4,24 -0.91,-1.52 -1.74,-3.19 -2.5,-5 -0.65,-6.33 -1.15,-12.66 -1.5,-19 z"
       id="path92" />
  </g>
  <g
     id="g93"
     transform="matrix(0.28336639,0,0,0.28336639,-38.396146,-69.626324)">
    <path
       style="opacity:1"
       fill="#820002"
       d="m 1073.5,1204.5 c 1.36,5.81 2.36,11.81 3,18 -2.1,-5.68 -3.1,-11.68 -3,-18 z"
       id="path93" />
  </g>
  <g
     id="g94"
     transform="matrix(0.28336639,0,0,0.28336639,-38.396146,-69.626324)">
    <path
       style="opacity:1"
       fill="#8b0003"
       d="m 3157.5,1210.5 c 0.16,2.69 0,5.35 -0.5,8 -0.28,0.92 -0.78,1.58 -1.5,2 0.25,-3.54 0.92,-6.87 2,-10 z"
       id="path94" />
  </g>
  <g
     id="g95"
     transform="matrix(0.28336639,0,0,0.28336639,-38.396146,-69.626324)">
    <path
       style="opacity:1"
       fill="#610001"
       d="m 384.5,1221.5 c 1.122,-0.66 2.455,-0.99 4,-1 1.833,0.09 3.166,0.75 4,2 -2.554,-0.89 -5.221,-1.22 -8,-1 z"
       id="path95" />
  </g>
  <g
     id="g96"
     transform="matrix(0.28336639,0,0,0.28336639,-38.396146,-69.626324)">
    <path
       style="opacity:1"
       fill="#a20001"
       d="m 330.5,1225.5 c 7.936,1.03 15.936,1.03 24,0 -4.932,1.39 -10.099,2.05 -15.5,2 -3.252,-0.02 -6.085,-0.69 -8.5,-2 z"
       id="path96" />
  </g>
  <g
     id="g97"
     transform="matrix(0.28336639,0,0,0.28336639,-38.396146,-69.626324)">
    <path
       style="opacity:1"
       fill="#7c0003"
       d="m 1077.5,1229.5 c 1.42,2.01 2.09,4.35 2,7 -1.42,-2.01 -2.09,-4.35 -2,-7 z"
       id="path97" />
  </g>
  <g
     id="g98"
     transform="matrix(0.28336639,0,0,0.28336639,-38.396146,-69.626324)">
    <path
       style="opacity:1"
       fill="#9d0003"
       d="m 392.5,1226.5 c 2.008,6.72 3.008,13.72 3,21 -1.735,-6.76 -2.735,-13.76 -3,-21 z"
       id="path98" />
  </g>
  <g
     id="g99"
     transform="matrix(0.28336639,0,0,0.28336639,-38.396146,-69.626324)">
    <path
       style="opacity:1"
       fill="#ad0003"
       d="m 3155.5,1221.5 c -0.16,9.65 -1.49,18.98 -4,28 1.04,-9.49 2.37,-18.82 4,-28 z"
       id="path99" />
  </g>
  <g
     id="g100"
     transform="matrix(0.28336639,0,0,0.28336639,-38.396146,-69.626324)">
    <path
       style="opacity:1"
       fill="#7d0003"
       d="m 1079.5,1236.5 c 1.57,2.72 2.57,5.72 3,9 -1.97,-2.58 -2.97,-5.58 -3,-9 z"
       id="path100" />
  </g>
  <g
     id="g101"
     transform="matrix(0.28336639,0,0,0.28336639,-38.396146,-69.626324)">
    <path
       style="opacity:0.041"
       fill="#cb0002"
       d="m 1606.5,1234.5 c -1.82,5.79 -4.82,10.79 -9,15 -0.16,-1.37 0.01,-2.71 0.5,-4 2.39,-4.17 5.22,-7.83 8.5,-11 z"
       id="path101" />
  </g>
  <g
     id="g102"
     transform="matrix(0.28336639,0,0,0.28336639,-38.396146,-69.626324)">
    <path
       style="opacity:1"
       fill="#8e0003"
       d="m 1082.5,1246.5 c 1.42,2.01 2.09,4.35 2,7 -1.42,-2.01 -2.09,-4.35 -2,-7 z"
       id="path102" />
  </g>
  <g
     id="g103"
     transform="matrix(0.28336639,0,0,0.28336639,-38.396146,-69.626324)">
    <path
       style="opacity:1"
       fill="#960002"
       d="m 1084.5,1253.5 c 1.78,3 2.78,6.34 3,10 -1.78,-3 -2.78,-6.34 -3,-10 z"
       id="path103" />
  </g>
  <g
     id="g104"
     transform="matrix(0.28336639,0,0,0.28336639,-38.396146,-69.626324)">
    <path
       style="opacity:1"
       fill="#6e0102"
       d="m 397.5,1258.5 c 1.295,3.77 1.961,7.77 2,12 -1.636,-3.71 -2.302,-7.71 -2,-12 z"
       id="path104" />
  </g>
  <g
     id="g105"
     transform="matrix(0.28336639,0,0,0.28336639,-38.396146,-69.626324)">
    <path
       style="opacity:1"
       fill="#940003"
       d="m 1087.5,1263.5 c 1.78,3 2.78,6.34 3,10 -1.78,-3 -2.78,-6.34 -3,-10 z"
       id="path105" />
  </g>
  <g
     id="g106"
     transform="matrix(0.28336639,0,0,0.28336639,-38.396146,-69.626324)">
    <path
       style="opacity:1"
       fill="#770002"
       d="m 3149.5,1265.5 c 0.06,5.23 -0.61,10.23 -2,15 -0.06,-5.23 0.61,-10.23 2,-15 z"
       id="path106" />
  </g>
  <g
     id="g107"
     transform="matrix(0.28336639,0,0,0.28336639,-38.396146,-69.626324)">
    <path
       style="opacity:1"
       fill="#840002"
       d="m 400.5,1279.5 c 3.968,23.78 7.301,47.78 10,72 -4.155,-23.75 -7.488,-47.75 -10,-72 z"
       id="path107" />
  </g>
  <g
     id="g108"
     transform="matrix(0.28336639,0,0,0.28336639,-38.396146,-69.626324)">
    <path
       style="opacity:0.96"
       fill="#fc0000"
       d="m 1946.5,1293.5 c 3.91,25.44 7.58,50.78 11,76 -0.99,3.5 -2.99,6.33 -6,8.5 -10.37,7.52 -20.37,15.52 -30,24 -29.58,14.62 -59.24,28.96 -89,43 -8.72,3.43 -17.72,4.77 -27,4 -2.91,-1.04 -5.74,-2.2 -8.5,-3.5 -2.23,-11 -4.4,-22 -6.5,-33 0.06,-0.54 0.39,-0.88 1,-1 2.8,1.1 5.63,2.1 8.5,3 6.86,-1.76 13.69,-3.59 20.5,-5.5 29.13,-12.73 58.13,-25.73 87,-39 12.56,-10.2 25.4,-20.03 38.5,-29.5 0.67,-2.67 0.67,-5.33 0,-8 -1.62,-11.71 -3.45,-23.38 -5.5,-35 1.72,-1.72 3.72,-3.05 6,-4 z"
       id="path108" />
  </g>
  <g
     id="g109"
     transform="matrix(0.28336639,0,0,0.28336639,-38.396146,-69.626324)">
    <path
       style="opacity:1"
       fill="#760003"
       d="m 3145.5,1296.5 c -0.1,5.7 -0.6,11.36 -1.5,17 -0.43,5 -1.6,9.66 -3.5,14 1.58,-10.48 3.25,-20.81 5,-31 z"
       id="path109" />
  </g>
  <g
     id="g110"
     transform="matrix(0.28336639,0,0,0.28336639,-38.396146,-69.626324)">
    <path
       style="opacity:1"
       fill="#ac0003"
       d="m 1425.5,1366.5 c -0.11,0.62 -0.44,1.12 -1,1.5 -3.95,1.48 -7.95,2.65 -12,3.5 4.02,-2.23 8.36,-3.9 13,-5 z"
       id="path110" />
  </g>
  <g
     id="g111"
     transform="matrix(0.28336639,0,0,0.28336639,-38.396146,-69.626324)">
    <path
       style="opacity:1"
       fill="#af0003"
       d="m 3134.5,1369.5 c 0,6.29 -1,12.29 -3,18 -0.28,-6.35 0.72,-12.35 3,-18 z"
       id="path111" />
  </g>
  <g
     id="g112"
     transform="matrix(0.28336639,0,0,0.28336639,-38.396146,-69.626324)">
    <path
       style="opacity:1"
       fill="#a80003"
       d="m 1376.5,1385.5 c -3.56,2.42 -7.56,4.09 -12,5 3.56,-2.42 7.56,-4.09 12,-5 z"
       id="path112" />
  </g>
  <g
     id="g113"
     transform="matrix(0.28336639,0,0,0.28336639,-38.396146,-69.626324)">
    <path
       style="opacity:1"
       fill="#ab0004"
       d="m 1353.5,1392.5 c -1.18,1.57 -2.85,2.4 -5,2.5 -2.65,0.5 -5.31,0.66 -8,0.5 4.07,-1.62 8.41,-2.62 13,-3 z"
       id="path113" />
  </g>
  <g
     id="g114"
     transform="matrix(0.28336639,0,0,0.28336639,-38.396146,-69.626324)">
    <path
       style="opacity:1"
       fill="#bd0002"
       d="m 1340.5,1395.5 c -2.33,1.6 -5,2.76 -8,3.5 -3.67,0.55 -7.34,1.05 -11,1.5 6.13,-2.05 12.46,-3.72 19,-5 z"
       id="path114" />
  </g>
  <g
     id="g115"
     transform="matrix(0.28336639,0,0,0.28336639,-38.396146,-69.626324)">
    <path
       style="opacity:1"
       fill="#770002"
       d="m 418.5,1393.5 c 1.424,2.01 2.09,4.35 2,7 -1.424,-2.01 -2.09,-4.35 -2,-7 z"
       id="path115" />
  </g>
  <g
     id="g116"
     transform="matrix(0.28336639,0,0,0.28336639,-38.396146,-69.626324)">
    <path
       style="opacity:1"
       fill="#780003"
       d="m 3128.5,1402.5 c -0.85,11.92 -2.51,23.58 -5,35 0.85,-11.92 2.51,-23.58 5,-35 z"
       id="path116" />
  </g>
  <g
     id="g117"
     transform="matrix(0.28336639,0,0,0.28336639,-38.396146,-69.626324)">
    <path
       style="opacity:1"
       fill="#930004"
       d="m 427.5,1437.5 c 1.157,2.77 1.824,5.77 2,9 -0.617,-0.11 -1.117,-0.44 -1.5,-1 -0.497,-2.65 -0.664,-5.31 -0.5,-8 z"
       id="path117" />
  </g>
  <g
     id="g118"
     transform="matrix(0.28336639,0,0,0.28336639,-38.396146,-69.626324)">
    <path
       style="opacity:1"
       fill="#900003"
       d="m 429.5,1447.5 c 1.522,4.77 2.522,9.77 3,15 -2.375,-4.59 -3.375,-9.59 -3,-15 z"
       id="path118" />
  </g>
  <g
     id="g119"
     transform="matrix(0.28336639,0,0,0.28336639,-38.396146,-69.626324)">
    <path
       style="opacity:1"
       fill="#aa0003"
       d="m 3122.5,1447.5 c 0.17,7.3 -0.83,14.3 -3,21 0.24,-7.24 1.24,-14.24 3,-21 z"
       id="path119" />
  </g>
  <g
     id="g120"
     transform="matrix(0.28336639,0,0,0.28336639,-38.396146,-69.626324)">
    <path
       style="opacity:0.975"
       fill="#fe0000"
       d="m 2201.5,1462.5 c 16.95,-1.57 32.62,2.1 47,11 2.98,5.76 5.48,11.76 7.5,18 8.02,3.38 12.02,9.38 12,18 -24.38,37.59 -48.88,75.09 -73.5,112.5 -9.16,3.28 -18.16,6.94 -27,11 -9.61,-0.02 -19.11,-1.18 -28.5,-3.5 -2.48,0.83 -4.98,1 -7.5,0.5 -6.4,-3.24 -12.4,-7.07 -18,-11.5 -1.99,-6.52 -2.49,-13.19 -1.5,-20 2.06,-5.12 4.39,-10.12 7,-15 1.6,-16.45 3.93,-32.79 7,-49 7.25,-11.5 14.25,-23.17 21,-35 7.86,-7.53 15.36,-15.36 22.5,-23.5 10.81,-4.43 21.47,-8.93 32,-13.5 z"
       id="path120" />
  </g>
  <g
     id="g121"
     transform="matrix(0.28336639,0,0,0.28336639,-38.396146,-69.626324)">
    <path
       style="opacity:0.97"
       fill="#fe0000"
       d="m 2511.5,1484.5 c 2.56,-0.11 4.89,0.56 7,2 5.24,11.49 10.74,22.82 16.5,34 0.33,3.67 0.67,7.33 1,11 4.44,5.87 8.1,12.21 11,19 7.4,27.83 11.4,56.16 12,85 0.83,39.34 1.83,78.67 3,118 2.56,43 5.06,86 7.5,129 -0.22,10.44 -1.06,20.77 -2.5,31 -3.56,2.57 -6.89,2.24 -10,-1 -4.28,-6.61 -8.95,-12.95 -14,-19 -5.43,-11.19 -11.09,-22.19 -17,-33 -7.33,-50.67 -14.67,-101.33 -22,-152 -1.67,-20 -3.33,-40 -5,-60 -10.22,22.76 -21.22,45.1 -33,67 -3.51,14.19 -8.01,28.03 -13.5,41.5 -3.5,1.97 -6.83,1.63 -10,-1 -13,-9 -26,-18 -39,-27 -8.79,-13.08 -16.96,-26.58 -24.5,-40.5 -11.06,-10.73 -22.39,-21.06 -34,-31 3.04,34.4 7.04,68.74 12,103 1.32,21.32 2.48,42.66 3.5,64 -1.73,15.72 -3.9,31.39 -6.5,47 -3.72,6.22 -8.56,11.22 -14.5,15 -1,-0.5 -2,-1 -3,-1.5 -4.48,-5.32 -9.15,-10.48 -14,-15.5 -3.62,3.08 -7.62,5.42 -12,7 -2.19,-0.09 -4.19,-0.76 -6,-2 -3.52,0.56 -6.85,-0.27 -10,-2.5 -2.93,-4.02 -2.26,-7.35 2,-10 -6.97,-84.64 -10.97,-169.47 -12,-254.5 -0.94,-14.31 0.56,-28.31 4.5,-42 3.03,-2.97 6.53,-3.8 10.5,-2.5 2.27,-5.21 5.27,-9.88 9,-14 2.33,-0.67 4.67,-0.67 7,0 4.31,1.23 8.64,2.56 13,4 3.02,6.74 5.86,13.57 8.5,20.5 9,11.33 18,22.67 27,34 7.21,5.36 14.71,10.36 22.5,15 9.5,12.33 19,24.67 28.5,37 6.67,6 13.33,12 20,18 7.49,-26.29 14.82,-52.62 22,-79 11.34,-25.37 22.67,-50.7 34,-76 3.53,-9.59 6.86,-19.26 10,-29 2.88,-3.84 6.38,-6.84 10.5,-9 z"
       id="path121" />
  </g>
  <g
     id="g122"
     transform="matrix(0.28336639,0,0,0.28336639,-38.396146,-69.626324)">
    <path
       style="opacity:1"
       fill="#990002"
       d="m 3119.5,1470.5 c -1,10.14 -2,20.14 -3,30 -0.55,-10.3 0.45,-20.3 3,-30 z"
       id="path122" />
  </g>
  <g
     id="g123"
     transform="matrix(0.28336639,0,0,0.28336639,-38.396146,-69.626324)">
    <path
       style="opacity:0.97"
       fill="#fe0000"
       d="m 1724.5,1503.5 c 5.68,-0.17 11.34,0 17,0.5 0.92,0.37 1.75,0.87 2.5,1.5 1.26,8.95 2.26,17.95 3,27 1.92,2.84 3.59,5.84 5,9 6.15,-1.65 9.99,0.68 11.5,7 -12.89,30.11 -26.06,60.11 -39.5,90 -9.42,18.07 -17.58,36.73 -24.5,56 8.39,16.45 17.56,32.45 27.5,48 3.18,6.01 1.52,9.68 -5,11 -5.9,-1.78 -11.56,-4.12 -17,-7 -0.17,1.33 -0.33,2.67 -0.5,4 4.33,35.33 8.67,70.67 13,106 -1.02,8.24 -3.35,16.07 -7,23.5 -3.25,2.14 -6.08,1.64 -8.5,-1.5 -1.27,11.6 -1.94,23.26 -2,35 -3.79,4.95 -8.62,8.61 -14.5,11 -1.83,-0.75 -3.5,-1.75 -5,-3 -1.67,-4.67 -3.34,-9.34 -5,-14 -5.99,-3.82 -9.83,-9.15 -11.5,-16 -3,-4 -6,-8 -9,-12 -3.4,-9.53 -6.4,-19.2 -9,-29 -0.39,-35.67 -0.89,-71.34 -1.5,-107 -6.12,0.99 -10.12,-1.35 -12,-7 0.83,-3.12 1.49,-6.29 2,-9.5 -1.07,-6.89 -2.4,-13.73 -4,-20.5 -25.11,-20.27 -49.77,-41.1 -74,-62.5 -14.17,-14.83 -28.33,-29.67 -42.5,-44.5 -5.34,-10.68 -10.67,-21.34 -16,-32 -0.58,-9.71 3.92,-14.55 13.5,-14.5 2.92,2.05 5.76,4.21 8.5,6.5 1.09,-7.58 2.93,-14.92 5.5,-22 4.21,-2.6 8.54,-4.94 13,-7 1.29,0.6 2.63,1.1 4,1.5 15.58,15.08 29.91,31.24 43,48.5 23.3,21.97 46.3,44.3 69,67 22.06,-46.95 43.73,-94.12 65,-141.5 1.81,-0.76 3.48,-1.59 5,-2.5 z"
       id="path123" />
  </g>
  <g
     id="g124"
     transform="matrix(0.28336639,0,0,0.28336639,-38.396146,-69.626324)">
    <path
       style="opacity:0.967"
       fill="#fe0000"
       d="m 883.5,1520.5 c 3.563,0.13 6.063,1.79 7.5,5 4.052,7.49 6.052,15.49 6,24 11.533,-4.51 23.367,-8.35 35.5,-11.5 14.667,-0.67 29.333,-0.67 44,0 9.061,3.44 16.894,7.28 23.5,11.5 2.86,1.17 6.03,2.67 9.5,4.5 15.73,13.39 28.9,28.89 39.5,46.5 4.64,13.9 8.97,27.9 13,42 0.8,15.09 0.13,30.09 -2,45 -15.75,26.51 -32.25,52.51 -49.5,78 -10.19,8.03 -20.525,15.86 -31,23.5 -13.047,4.69 -25.714,10.19 -38,16.5 -2.366,31.96 -4.033,63.96 -5,96 0.676,23.01 1.176,46.01 1.5,69 -2.134,5.25 -5.634,6.25 -10.5,3 -0.692,0.53 -1.192,1.19 -1.5,2 -2.16,12.14 -4.827,24.14 -8,36 -3.571,2.02 -7.405,3.35 -11.5,4 -2.197,-0.35 -4.03,-1.35 -5.5,-3 -2.845,-11.56 -5.178,-23.22 -7,-35 -1.201,-3.21 -3.201,-5.88 -6,-8 -13.149,-118.12 -24.149,-236.45 -33,-355 -11.407,4.36 -22.907,8.53 -34.5,12.5 -5.393,1.61 -8.393,-0.39 -9,-6 0.51,-2.71 1.177,-5.37 2,-8 -1.611,-2.56 -2.944,-5.22 -4,-8 0.409,-2.32 1.243,-4.49 2.5,-6.5 12.322,-8.41 24.489,-17.74 36.5,-28 1.507,-14.99 2.84,-29.99 4,-45 2.433,-2.74 5.433,-3.58 9,-2.5 4.124,5.08 7.624,10.58 10.5,16.5 0.987,-8.21 4.82,-14.55 11.5,-19 z m 64,62 c 14.692,0.37 29.359,1.2 44,2.5 7,4.17 14,8.33 21,12.5 3.51,3 6.01,6.67 7.5,11 1.83,10.33 3.67,20.67 5.5,31 -2.51,9.05 -5.18,18.05 -8,27 -15.99,18.16 -31.824,36.49 -47.5,55 -15.667,13.33 -31.333,26.67 -47,40 -1.933,-54.34 -3.6,-108.68 -5,-163 2.374,-4.25 4.874,-8.42 7.5,-12.5 7.511,-0.95 14.844,-2.12 22,-3.5 z"
       id="path124" />
  </g>
  <g
     id="g125"
     transform="matrix(0.28336639,0,0,0.28336639,-38.396146,-69.626324)">
    <path
       style="opacity:0.963"
       fill="#fe0000"
       d="m 2812.5,1546.5 c 9.77,-0.49 19.44,0.18 29,2 2.55,1.44 5.22,2.61 8,3.5 2.69,4.6 1.69,8.27 -3,11 12.26,2.24 24.59,3.91 37,5 3.51,3.05 3.84,6.38 1,10 -10.43,6.76 -21.09,13.1 -32,19 -39.12,4.14 -78.12,8.48 -117,13 -29.79,3.8 -59.46,8.3 -89,13.5 1.19,34.6 3.19,69.1 6,103.5 4.82,2.41 9.82,4.25 15,5.5 32.5,-5.15 65.17,-8.31 98,-9.5 4.67,3.33 9.33,6.67 14,10 4,3.67 4,7.33 0,11 -7.33,3.67 -14.67,7.33 -22,11 -4,0.88 -8,1.71 -12,2.5 -1.78,3.91 -4.28,7.24 -7.5,10 -21.95,7.53 -44.45,14.36 -67.5,20.5 -3.43,1.8 -6.59,3.96 -9.5,6.5 5.44,26.19 11.77,52.19 19,78 1.44,-1.71 3.27,-2.88 5.5,-3.5 8.44,-2.72 16.77,-5.72 25,-9 49.68,-1.77 99.35,-3.44 149,-5 5.95,0.69 11.45,2.52 16.5,5.5 0.98,3.17 0.48,6 -1.5,8.5 -4.86,1.62 -9.53,3.62 -14,6 6.05,0.17 10.05,3.01 12,8.5 -1.32,3.61 -2.49,7.28 -3.5,11 -0.83,0.83 -1.67,1.67 -2.5,2.5 -7.33,1.33 -14.67,2.67 -22,4 -50.28,4.22 -100.28,10.55 -150,19 -11.71,2.84 -23.38,5.84 -35,9 -5.03,4.7 -9.7,9.7 -14,15 -4.39,3.72 -8.22,3.22 -11.5,-1.5 -4.61,-9.55 -8.94,-19.22 -13,-29 -6.95,-88.02 -14.11,-176.02 -21.5,-264 1.29,-20.99 2.46,-41.99 3.5,-63 0.93,-4.14 2.27,-8.14 4,-12 0.75,-0.63 1.58,-1.13 2.5,-1.5 58.17,-7.14 115.83,-15.47 173,-25 10.18,-0.17 20.18,-0.67 30,-1.5 z"
       id="path125" />
  </g>
  <g
     id="g126"
     transform="matrix(0.28336639,0,0,0.28336639,-38.396146,-69.626324)">
    <path
       style="opacity:0.963"
       fill="#fe0000"
       d="m 1400.5,1553.5 c 6.41,0.18 12.75,1.01 19,2.5 1.99,1.32 3.15,3.15 3.5,5.5 0.5,4.32 0.67,8.65 0.5,13 3.19,-0.48 6.02,0.19 8.5,2 -0.35,11.42 -1.35,22.76 -3,34 13.58,28.83 27.91,57.16 43,85 25.11,-2.47 50.28,-3.97 75.5,-4.5 2.2,2.76 2.54,5.76 1,9 5.35,0.91 10.69,1.91 16,3 1.85,2.58 2.35,5.41 1.5,8.5 -2.89,2.56 -6.06,4.72 -9.5,6.5 5.52,1.5 7.69,5 6.5,10.5 -0.5,0.5 -1,1 -1.5,1.5 -22.95,3.61 -45.95,6.95 -69,10 13.16,44.13 25.33,88.63 36.5,133.5 2.91,3.49 5.58,7.16 8,11 0.75,2.8 0.42,5.47 -1,8 -3.5,2.17 -7,4.33 -10.5,6.5 -0.91,2.45 -1.74,4.95 -2.5,7.5 -2.97,2.49 -6.14,2.66 -9.5,0.5 -3.87,-5.6 -9.21,-7.93 -16,-7 -1.43,-0.47 -2.6,-1.3 -3.5,-2.5 -12.31,-40.56 -24.31,-81.23 -36,-122 -3.83,-10.67 -8.33,-21 -13.5,-31 -17.26,3.16 -34.6,5.99 -52,8.5 -9.74,28.23 -18.91,56.73 -27.5,85.5 -8.76,20.62 -18.09,40.95 -28,61 -3.06,1.41 -6.22,2.58 -9.5,3.5 12.34,0.51 24.68,1.18 37,2 3.89,2.6 6.72,6.1 8.5,10.5 0.94,2.85 0.44,5.35 -1.5,7.5 -20.94,1.66 -41.94,3 -63,4 -50.69,11.97 -101.69,22.47 -153,31.5 -0.72,5.75 -1.88,11.42 -3.5,17 -2.23,2.47 -5.06,3.63 -8.5,3.5 -4.5,5.83 -9,11.67 -13.5,17.5 -3.15,3.05 -6.65,3.55 -10.5,1.5 -4.18,-4.35 -8.51,-8.52 -13,-12.5 -3.09,4.05 -7.09,5.55 -12,4.5 -4.25,-7.17 -8.25,-14.51 -12,-22 -18.67,-1.33 -37.33,-2.67 -56,-4 -4.18,-4 -3.85,-7.67 1,-11 5.82,-2.75 11.49,-5.75 17,-9 9.32,-0.94 18.65,-1.78 28,-2.5 0.62,-4.05 2.29,-7.55 5,-10.5 7.08,-2.25 14.08,-4.09 21,-5.5 4.13,-39 8.3,-78 12.5,-117 1.29,-30.01 2.79,-60.01 4.5,-90 -9.47,-48.87 -19.14,-97.71 -29,-146.5 0.49,-1.98 1.49,-3.65 3,-5 4.05,-1.1 8.22,-1.6 12.5,-1.5 4.28,-0.1 8.45,0.4 12.5,1.5 3.27,5.8 5.77,11.96 7.5,18.5 0.95,-7.31 1.62,-14.64 2,-22 1.18,-4.35 4.02,-6.68 8.5,-7 6.72,0.55 13.38,1.38 20,2.5 1.55,1.21 2.72,2.71 3.5,4.5 1.37,-3.53 3.87,-5.87 7.5,-7 4.97,1.23 9.97,2.4 15,3.5 1.43,0.47 2.6,1.3 3.5,2.5 -0.01,44 -0.68,88 -2,132 -7.24,52.22 -13.9,104.55 -20,157 -0.67,18.41 0.16,36.75 2.5,55 33.51,-6.03 67.18,-11.03 101,-15 12.69,0.46 25.36,1.3 38,2.5 2.74,1.78 3.74,4.12 3,7 7.29,1.41 14.62,1.75 22,1 -2.35,-0.11 -3.85,-1.28 -4.5,-3.5 -2.19,-8.76 -4.69,-17.43 -7.5,-26 1.83,-21.28 3.33,-42.62 4.5,-64 4.94,-15.99 9.77,-31.99 14.5,-48 -14.34,-1.37 -28.67,-2.87 -43,-4.5 -1.72,-0.74 -3.39,-1.57 -5,-2.5 -1.3,-2.47 -2.8,-4.8 -4.5,-7 -2.53,-5.13 -1.53,-9.47 3,-13 0.25,-3.39 0.75,-6.72 1.5,-10 1.17,-1.08 2.5,-1.92 4,-2.5 18,-0.77 36,-1.61 54,-2.5 15.48,-47.9 30.64,-95.9 45.5,-144 2.82,-7.64 6.65,-14.64 11.5,-21 z m 14,112 c 6.53,11.72 12.53,23.72 18,36 -9.75,0.77 -19.42,2.11 -29,4 -0.33,-0.33 -0.67,-0.67 -1,-1 4.41,-12.89 8.41,-25.89 12,-39 z"
       id="path126" />
  </g>
  <g
     id="g127"
     transform="matrix(0.28336639,0,0,0.28336639,-38.396146,-69.626324)">
    <path
       style="opacity:1"
       fill="#870002"
       d="m 3115.5,1531.5 c -0.05,11.19 -0.72,22.19 -2,33 -0.33,-11.21 0.34,-22.21 2,-33 z"
       id="path127" />
  </g>
  <g
     id="g128"
     transform="matrix(0.28336639,0,0,0.28336639,-38.396146,-69.626324)">
    <path
       style="opacity:0.965"
       fill="#fe0000"
       d="m 1845.5,1571.5 c 51.24,-1.86 102.24,0.64 153,7.5 21.67,1.24 43.34,1.41 65,0.5 5.84,-0.92 9.51,1.41 11,7 -1.22,3.26 -1.72,6.6 -1.5,10 6.77,4.37 7.61,9.37 2.5,15 -7.14,3.66 -14.64,6.33 -22.5,8 -1.27,1.04 -2.44,2.2 -3.5,3.5 -10.94,2.59 -21.94,4.92 -33,7 -23.66,0.81 -47.33,1.31 -71,1.5 0.33,79.84 1.16,159.84 2.5,240 -2,4 -4,8 -6,12 -0.33,15.33 -0.67,30.67 -1,46 -1.8,5.74 -3.8,11.41 -6,17 -2.97,3.09 -6.13,3.43 -9.5,1 -5.31,-5.29 -10.14,-10.96 -14.5,-17 -1.87,-8.36 -3.87,-16.7 -6,-25 -0.33,-7.67 -0.67,-15.33 -1,-23 -2.15,-1.48 -3.48,-3.48 -4,-6 -2.46,-13.31 -4.8,-26.64 -7,-40 -2.7,-52.69 -5.53,-105.35 -8.5,-158 1.14,-10.83 3.97,-21.16 8.5,-31 0.64,-6.03 0.47,-12.03 -0.5,-18 -22.01,0.09 -44.01,0.59 -66,1.5 -20.08,3.43 -40.25,6.26 -60.5,8.5 -7.5,-0.46 -14.5,-2.46 -21,-6 -1.7,-4.23 -0.54,-7.73 3.5,-10.5 7.11,-5.97 14.95,-10.81 23.5,-14.5 -0.55,-2.83 -0.22,-5.5 1,-8 2.64,-4.14 5.47,-8.14 8.5,-12 10.22,-4.13 20.55,-7.96 31,-11.5 11.15,-1.76 22.15,-3.6 33,-5.5 z"
       id="path128" />
  </g>
  <g
     id="g129"
     transform="matrix(0.28336639,0,0,0.28336639,-38.396146,-69.626324)">
    <path
       style="opacity:1"
       fill="#7c0002"
       d="m 467.5,1613.5 c 1.268,2.41 1.935,5.07 2,8 -1.54,-2.34 -2.206,-5 -2,-8 z"
       id="path129" />
  </g>
  <g
     id="g130"
     transform="matrix(0.28336639,0,0,0.28336639,-38.396146,-69.626324)">
    <path
       style="opacity:0.96"
       fill="#fe0000"
       d="m 2209.5,1631.5 c 6.27,0.21 10.44,3.21 12.5,9 1.03,49.33 1.53,98.66 1.5,148 0.14,37.03 -0.36,74.03 -1.5,111 -1.5,10.27 -5.84,11.94 -13,5 -0.86,-1.59 -1.53,-3.25 -2,-5 -4.39,10.44 -9.55,20.44 -15.5,30 -1,0.33 -2,0.67 -3,1 -6.67,-2.67 -13.33,-2.67 -20,0 -2.55,-2.42 -5.05,-2.42 -7.5,0 -2.14,-1.23 -3.81,-2.89 -5,-5 -1.41,-4.24 -2.41,-8.57 -3,-13 -2.39,-22.61 -3.39,-45.27 -3,-68 5.21,-27.09 9.71,-54.25 13.5,-81.5 -1.1,-2.4 -1.27,-4.9 -0.5,-7.5 4.8,-18.96 10.8,-37.62 18,-56 1.67,-16.67 3.33,-33.33 5,-50 2.13,-4.09 4.63,-7.92 7.5,-11.5 1.27,-0.31 2.43,-0.81 3.5,-1.5 1.6,1.54 3.43,2.04 5.5,1.5 1.57,-3.07 3.9,-5.24 7,-6.5 z"
       id="path130" />
  </g>
  <g
     id="g131"
     transform="matrix(0.28336639,0,0,0.28336639,-38.396146,-69.626324)">
    <path
       style="opacity:1"
       fill="#ba140f"
       d="m 3111.5,1627.5 c 0,9.67 0,19.33 0,29 2,0 4,0 6,0 -2.11,0.97 -4.44,1.3 -7,1 -0.33,-10.18 0.01,-20.18 1,-30 z"
       id="path131" />
  </g>
  <g
     id="g132"
     transform="matrix(0.28336639,0,0,0.28336639,-38.396146,-69.626324)">
    <path
       style="opacity:0.983"
       fill="#020101"
       d="m 734.5,1660.5 c 2.144,2.62 3.477,5.62 4,9 9.668,-0.54 19.334,-0.71 29,-0.5 1.067,2.1 1.567,4.26 1.5,6.5 -20.48,13.15 -40.98,26.15 -61.5,39 -3.191,0.59 -6.191,1.76 -9,3.5 -67.896,43.11 -135.896,85.94 -204,128.5 -4.665,0.56 -8.998,1.89 -13,4 -7.839,1.72 -15.506,4.06 -23,7 -1.266,-1.9 -2.933,-3.24 -5,-4 -2.244,-2.08 -3.911,-4.58 -5,-7.5 2.163,-5.19 5.163,-9.69 9,-13.5 13.979,-7.66 27.312,-16.32 40,-26 6.238,-2.31 12.571,-4.48 19,-6.5 72.554,-46.77 145.22,-93.27 218,-139.5 z"
       id="path132" />
  </g>
  <g
     id="g133"
     transform="matrix(0.28336639,0,0,0.28336639,-38.396146,-69.626324)">
    <path
       style="opacity:0.982"
       fill="#010000"
       d="m 3164.5,1755.5 c -12.68,6.33 -24.68,13.67 -36,22 -3.89,0.96 -7.56,2.3 -11,4 -5.3,2 -10.64,4 -16,6 -5.96,0.11 -11.63,1.11 -17,3 -25.42,3.17 -50.92,5.51 -76.5,7 -16.16,-0.67 -32.33,-1.17 -48.5,-1.5 -7.25,-1.53 -14.59,-2.36 -22,-2.5 -14.34,-1.58 -28.34,-4.75 -42,-9.5 -3.28,-1.56 -6.12,-3.73 -8.5,-6.5 0.14,-4.02 0.8,-8.02 2,-12 6.04,-6.37 11.71,-13.04 17,-20 3.15,-2.8 6.31,-5.47 9.5,-8 58.43,8.54 116.76,7.71 175,-2.5 8.33,-3 16.67,-6 25,-9 9.06,-5.52 18.06,-11.02 27,-16.5 1.11,-0.06 2.11,-0.39 3,-1 19.9,-1.19 39.73,-1.19 59.5,0 0.6,3.55 -0.07,6.89 -2,10 -3.72,4.05 -7.05,8.38 -10,13 -9.4,8.24 -18.9,16.24 -28.5,24 z"
       id="path133" />
  </g>
  <g
     id="g134"
     transform="matrix(0.28336639,0,0,0.28336639,-38.396146,-69.626324)">
    <path
       style="opacity:0.463"
       fill="#e33a2e"
       d="m 3145.5,1707.5 c 0,0.33 0,0.67 0,1 -0.89,0.61 -1.89,0.94 -3,1 0.47,-1.41 1.47,-2.07 3,-2 z"
       id="path134" />
  </g>
  <g
     id="g135"
     transform="matrix(0.28336639,0,0,0.28336639,-38.396146,-69.626324)">
    <path
       style="opacity:0.947"
       fill="#fc0000"
       d="m 453.5,1853.5 c 2.067,0.76 3.734,2.1 5,4 7.494,-2.94 15.161,-5.28 23,-7 4.665,-0.56 8.998,-1.89 13,-4 68.104,-42.56 136.104,-85.39 204,-128.5 2.809,-1.74 5.809,-2.91 9,-3.5 4.42,0.03 8.754,-0.13 13,-0.5 0.727,2.12 1.394,4.29 2,6.5 -90.296,60.49 -180.63,120.99 -271,181.5 -12.305,3.61 -24.472,7.45 -36.5,11.5 -1.436,-0.06 -2.769,-0.39 -4,-1 -2.515,-3.84 -5.015,-7.68 -7.5,-11.5 2.254,-4.59 4.921,-8.92 8,-13 13.12,-9.73 26.453,-19.23 40,-28.5 0.795,-2 1.461,-4 2,-6 z"
       id="path135" />
  </g>
  <g
     id="g136"
     transform="matrix(0.28336639,0,0,0.28336639,-38.396146,-69.626324)">
    <path
       style="opacity:0.97"
       fill="#fe0000"
       d="m 2937.5,1793.5 c 7.41,0.14 14.75,0.97 22,2.5 16.17,0.33 32.34,0.83 48.5,1.5 25.58,-1.49 51.08,-3.83 76.5,-7 5.89,-0.44 11.56,-1.44 17,-3 5.36,-2 10.7,-4 16,-6 4.21,-0.18 7.87,-1.51 11,-4 11.32,-8.33 23.32,-15.67 36,-22 24.66,-0.79 49.33,-1.12 74,-1 0.15,3.11 -0.35,6.11 -1.5,9 -4.5,5.83 -9,11.67 -13.5,17.5 -10,8 -20,16 -30,24 -10.5,6.42 -20.84,13.08 -31,20 -10.37,4.79 -21.03,8.79 -32,12 -14.39,1.59 -28.73,3.59 -43,6 -49.7,5.77 -98.7,3.44 -147,-7 -5,-1.67 -10,-3.33 -15,-5 -2.63,-2.13 -4.97,-4.46 -7,-7 0.67,-3 1.33,-6 2,-9 5.89,-7.05 11.55,-14.21 17,-21.5 z"
       id="path136" />
  </g>
  <g
     id="g137"
     transform="matrix(0.28336639,0,0,0.28336639,-38.396146,-69.626324)">
    <path
       style="opacity:1"
       fill="#ca0202"
       d="m 501.5,1745.5 c 0.992,7.82 1.659,15.82 2,24 0,0.67 -0.333,1 -1,1 -0.832,-8.3 -1.165,-16.64 -1,-25 z"
       id="path137" />
  </g>
  <g
     id="g138"
     transform="matrix(0.28336639,0,0,0.28336639,-38.396146,-69.626324)">
    <path
       style="opacity:1"
       fill="#a50003"
       d="m 3128.5,1777.5 c -3.13,2.49 -6.79,3.82 -11,4 3.44,-1.7 7.11,-3.04 11,-4 z"
       id="path138" />
  </g>
  <g
     id="g139"
     transform="matrix(0.28336639,0,0,0.28336639,-38.396146,-69.626324)">
    <path
       style="opacity:1"
       fill="#7f0003"
       d="m 3101.5,1787.5 c -5.44,1.56 -11.11,2.56 -17,3 5.37,-1.89 11.04,-2.89 17,-3 z"
       id="path139" />
  </g>
  <g
     id="g140"
     transform="matrix(0.28336639,0,0,0.28336639,-38.396146,-69.626324)">
    <path
       style="opacity:1"
       fill="#a90002"
       d="m 494.5,1846.5 c -4.002,2.11 -8.335,3.44 -13,4 4.002,-2.11 8.335,-3.44 13,-4 z"
       id="path140" />
  </g>
</svg>
