<?xml version="1.0" encoding="utf-8"?>
<!-- Generator: Adobe Illustrator 28.2.0, SVG Export Plug-In . SVG Version: 6.00 Build 0)  -->
<svg version="1.1"
	 id="svg101" xmlns:svg="http://www.w3.org/2000/svg" xmlns:cc="http://creativecommons.org/ns#" xmlns:rdf="http://www.w3.org/1999/02/22-rdf-syntax-ns#" xmlns:dc="http://purl.org/dc/elements/1.1/"
	 xmlns="http://www.w3.org/2000/svg" xmlns:xlink="http://www.w3.org/1999/xlink" x="0px" y="0px" viewBox="0 0 1000 302.4"
	 style="enable-background:new 0 0 1000 302.4;" xml:space="preserve">
<style type="text/css">
	.st0{fill:#FFFFFF;}
</style>
<g>
	<rect x="894.1" y="0.9" class="st0" width="2.8" height="300.7"/>
	<path id="path21" class="st0" d="M101.7,127.3c0,6.1-1.1,11.8-3.2,17.2c-2.1,5.4-5.2,10.1-9.2,14.2c-4.1,4.1-9,7.3-14.9,9.7
		c-5.9,2.4-12.4,3.5-19.5,3.5H27.7v53.9H0v-143h54.9c7.1,0,13.6,1.2,19.4,3.4c5.8,2.3,10.8,5.5,14.9,9.6c4.1,4.1,7.2,8.9,9.3,14.2
		C100.7,115.4,101.7,121.2,101.7,127.3z M74,127.3c0-3.8-0.9-7.2-2.6-10.2c-1.7-3-4.1-5.3-7.2-7c-3.1-1.6-6.7-2.5-10.7-2.5H27.7
		v39.1h25.9c4,0,7.6-0.8,10.7-2.4c3.1-1.6,5.5-3.9,7.2-6.8C73.2,134.7,74,131.3,74,127.3L74,127.3z"/>
	<path id="path23" class="st0" d="M224.9,154.3c0,7.9-0.1,14.2-0.2,18.7c-0.2,4.6-0.7,9.3-1.6,14.1c-0.9,4.8-2.3,9.2-4.2,13.1
		c-1.9,4-4.6,7.7-8,11.1c-10.4,10.4-23.2,15.6-38.3,15.6c-7.8,0-14.9-1.3-21.1-3.9c-6.2-2.6-12-6.5-17.2-11.7
		c-4.4-4.6-7.6-9.6-9.6-15.2c-2-5.5-3.2-11.3-3.6-17.3c-0.5-6-0.7-14.2-0.7-24.7c0-10.5,0.2-18.7,0.7-24.7c0.5-6,1.7-11.7,3.6-17.3
		c2-5.5,5.2-10.6,9.6-15.2c5.2-5.2,11-9.1,17.2-11.7c6.3-2.6,13.3-3.9,21.1-3.9c15.1,0,27.9,5.2,38.3,15.6c4.3,4.5,7.6,9.6,9.6,15.1
		c2.1,5.6,3.3,11.3,3.8,17.3C224.6,135.6,224.9,143.9,224.9,154.3L224.9,154.3z M197.2,154.4c0-8.9-0.2-15.9-0.6-21.2
		c-0.4-5.2-1.1-9.1-2-11.8c-0.9-2.6-2.3-5-4.2-7.2c-1.9-2.3-4.4-4.1-7.5-5.5c-3.1-1.4-6.6-2.1-10.3-2.1c-3.5,0-6.8,0.7-10,2.1
		c-3.2,1.4-5.8,3.2-7.9,5.6c-1.9,2.2-3.3,4.6-4.2,7.2c-0.9,2.6-1.6,6.5-1.9,11.8c-0.4,5.3-0.6,12.3-0.6,21.2
		c0,8.9,0.2,15.9,0.6,21.2c0.4,5.2,1,9.1,1.9,11.8c0.9,2.6,2.3,5,4.2,7.2c4.3,5,10.3,7.6,17.9,7.6c7.5,0,13.4-2.5,17.8-7.6
		c1.9-2.2,3.3-4.7,4.2-7.3c0.9-2.6,1.6-6.5,2-11.7C197,170.4,197.2,163.3,197.2,154.4L197.2,154.4z"/>
	<path id="path25" class="st0" d="M360.4,225.8h-32.2l-27.6-57h-19.8v57h-27.7v-143h55.5c9.4,0,17.6,2,24.5,5.8
		c6.9,3.9,12.2,9.2,15.9,15.9c3.7,6.7,5.5,14,5.5,22.1c0,9.5-2.4,17.4-7.2,23.8c-4.8,6.4-11.1,11-18.7,13.8L360.4,225.8z
		 M326.9,126.6c0-3.7-0.8-6.9-2.5-9.7c-1.6-2.8-4-5-7.1-6.7c-3.1-1.6-6.6-2.5-10.5-2.5h-26v37.8h26c6,0,10.9-1.7,14.5-5.2
		C325.1,136.8,326.9,132.2,326.9,126.6z"/>
	<path id="path27" class="st0" d="M474.4,107.7h-37v118.1h-27.7V107.7h-37V82.8h101.7L474.4,107.7z"/>
	<path id="path29" class="st0" d="M599.1,225.8h-28.9l-8.4-25.3h-50.3l-8.6,25.3h-28.9l51.6-143.1h21.7L599.1,225.8z M554.6,177
		l-17.4-52l-17.9,52H554.6z"/>
	<path id="path31" class="st0" d="M712.2,225.8h-91.9v-143H648v118.1h64.2L712.2,225.8L712.2,225.8L712.2,225.8L712.2,225.8z"/>
	<g id="g40" transform="matrix(0.26458333,0,0,0.26458333,-61.24131,131.79989)">
		<path id="path36" class="st0" d="M2878.4-177.4h-10.2v32.4H2858v-32.4h-10.2v-9.1h30.6L2878.4-177.4z"/>
		<path id="path38" class="st0" d="M2923-144.9h-10.2v-19.9l-5.9,10.2h-6.5l-5.9-10.2v19.9h-10.2v-41.5h10l9.3,18.3l9.3-18.3h10
			L2923-144.9z"/>
	</g>
	<g id="g48" transform="matrix(0.26458333,0,0,0.26458333,-61.24131,131.79989)">
		<g id="g46">
			<path id="path42" class="st0" d="M3094.1,351.3l0.4-80.8l211.9-205.4l0.2-0.2c21.4-17.8,37.3-33.8,47.3-47.6
				c9.4-13,14.2-26.4,14.2-40c0-19.4-6.2-34.4-18.9-46c-12.7-11.6-29.9-17.5-51.1-17.5c-20.4,0-37.1,5.7-51.1,17.3
				c-13.6,11.3-20.2,28.1-20.2,51.3v7.4H3095v-7.4c0-37,9-70,26.9-98c17.8-27.9,42.6-49.7,73.6-64.6c30.8-14.8,65.3-22.3,102.6-22.3
				c28.2,0,54.8,4.1,79.1,12.2c24.4,8.2,46,20.1,64.2,35.6c18.4,15.6,32.9,34.8,43.1,57c10.2,22.2,15.4,46.9,15.4,73.2
				c0,22.2-5.1,43.2-15.1,62.4c-9.8,18.7-23.4,37.1-40.4,54.5c-16.7,17.2-37.4,36.1-61.4,56.4L3282.2,235h229.6v116.2L3094.1,351.3
				L3094.1,351.3L3094.1,351.3z"/>
			<path id="path44" class="st0" d="M3298.1-195c27.6,0,53.2,4,76.7,11.8c23.6,7.9,44.2,19.3,61.8,34.2
				c17.6,14.9,31.3,33.1,41.1,54.5c9.8,21.4,14.7,44.8,14.7,70.1c0,21.1-4.8,40.8-14.3,58.9c-9.5,18.2-22.6,35.8-39.1,52.8
				c-16.6,17-36.9,35.7-60.9,55.9l-116.1,99.2h242.3v101.3h-402.8l0.3-70.2l209.5-203c22-18.3,38.2-34.6,48.6-49
				c10.4-14.4,15.6-29.1,15.6-44.3c0-21.4-7.1-38.6-21.3-51.5c-14.2-12.9-32.9-19.4-56.1-19.4c-22,0-40.6,6.3-55.8,19
				c-15.2,12.7-22.9,31.7-22.9,57h-117c0-35.8,8.6-67.1,25.7-94c17.1-26.9,40.7-47.5,70.6-61.9C3228.7-187.8,3261.8-195,3298.1-195
				 M3298.1-209.9c-38.4,0-74,7.7-105.8,23c-32.3,15.5-58.1,38.2-76.7,67.3c-18.6,29.2-28.1,63.5-28.1,102v14.9h14.9h117h14.9v-14.9
				c0-20.9,5.7-35.8,17.5-45.6c12.6-10.5,27.8-15.6,46.3-15.6c19.5,0,34.6,5.1,46.1,15.6c11.1,10.1,16.4,23.3,16.4,40.5
				c0,12.1-4.2,23.7-12.8,35.6c-9.6,13.3-25.1,28.9-46,46.3l-0.4,0.4l-0.4,0.4l-209.4,203l-4.5,4.4l0,6.3l-0.3,70.2l-0.1,15h15
				h402.8h14.9v-14.9V242.5v-14.9h-14.9h-202l85.4-73c24.2-20.4,45-39.6,61.9-56.9c17.5-18,31.5-36.9,41.7-56.3
				c10.6-20.2,16-42.4,16-65.8c0-27.4-5.4-53.1-16.1-76.3c-10.6-23.3-25.8-43.3-45-59.6c-18.9-16.1-41.4-28.5-66.7-37
				C3354.6-205.6,3327.2-209.9,3298.1-209.9L3298.1-209.9z"/>
		</g>
	</g>
	<g id="g1177" transform="matrix(0.70563895,0,0,0.70563895,5.9471657,-0.60526967)">
		<g id="g1165">
			<g id="g1163">
				<g id="g71" transform="matrix(0.37331822,0,0,0.37331822,-37.620101,209.6563)">
					<g>
						<path id="path65_1_" class="st0" d="M3803.4-316.3c0,64.4-52.2,116.6-116.6,116.6c-64.4,0-116.6-52.2-116.6-116.6
							c0-64.4,52.2-116.6,116.6-116.6C3751.2-432.9,3803.4-380.7,3803.4-316.3"/>
						<path class="st0" d="M3686.8-196.3c-66.1,0-120-53.8-120-120c0-66.1,53.8-120,120-120c66.1,0,120,53.8,120,120
							C3806.8-250.2,3752.9-196.3,3686.8-196.3z M3686.8-429.6c-62.5,0-113.3,50.8-113.3,113.3c0,62.5,50.8,113.3,113.3,113.3
							c62.5,0,113.3-50.8,113.3-113.3C3800.1-378.8,3749.3-429.6,3686.8-429.6z"/>
					</g>
					<g>
						<path id="path67_1_" class="st0" d="M3493.7-293l201.6,153.6c0,0,7,3.9,8.1,20.2L3735,21.4l132.9,98.1
							c0,0,21.6,70.8-51.4,63.7L3679.4,81.3c0,0-8.4-6.4-14.2-25.1l-26.1-113.3L3492,116.2l134,184.2c0,0,29.4,40.3-3.3,74.1
							l-136.2,133V369l31.6-26.2c0,0,8.7-6.5,0-16.3l-31.6-39.2v-579.8L3493.7-293"/>
						<path class="st0" d="M3483.2,515.3V367.4l32.8-27.2c0.1-0.1,2.4-1.9,2.7-4.7c0.2-2.1-0.8-4.4-3-6.9l-32.4-40.3v-584l10.3-0.7
							l0.2,3.3l2-2.6l201.4,153.5c1.6,1,8.4,6.2,9.5,22.5L3738,19.4l132.8,98l0.3,1.1c0.4,1.4,10,33.6-6.4,53.6
							c-9.6,11.8-25.9,16.6-48.6,14.4l-0.9-0.1l-0.7-0.6L3677.5,84c-0.4-0.3-9.3-7.3-15.4-26.7l-24.7-107.1l-141.1,166.2
							l132.5,182.1c0.3,0.4,30.7,43-3.5,78.4L3483.2,515.3z M3489.9,370.6v128.9l130.6-127.4c30.3-31.3,3.2-69.4,2.9-69.8
							l-133.5-183.4v167.2l30.9,38.3c3.4,3.8,5,7.9,4.5,11.9c-0.6,5.6-4.7,8.8-5.1,9.2L3489.9,370.6z M3817.8,180
							c19.8,1.7,33.9-2.3,41.9-12.1c12.6-15.4,6.9-41,5.4-46.4l-133-98.1l-0.3-1.2L3700.1-119c-0.9-13.9-6.4-17.5-6.5-17.6l-0.3-0.2
							l-200.6-152.8l-2.8,0.2v403l151-177.8l27.6,119.8c5.3,17,12.9,23.1,13,23.2L3817.8,180z"/>
					</g>
					<g>
						<path id="path69_1_" class="st0" d="M3471.5,585.3h21.1V-556h-21.1V585.3z"/>
						<path class="st0" d="M3495.9,588.7h-27.7v-1148h27.7V588.7z M3474.8,582h14.4V-552.7h-14.4V582z"/>
					</g>
				</g>
			</g>
		</g>
	</g>
</g>
</svg>
