<?xml version="1.0" encoding="utf-8"?>
<!-- Generator: Adobe Illustrator 28.2.0, SVG Export Plug-In . SVG Version: 6.00 Build 0)  -->
<svg version="1.1" id="Слой_1" xmlns="http://www.w3.org/2000/svg" xmlns:xlink="http://www.w3.org/1999/xlink" x="0px" y="0px"
	 viewBox="0 0 1037.4 453.7" style="enable-background:new 0 0 1037.4 453.7;" xml:space="preserve">
<style type="text/css">
	.st0{fill:#FFFFFF;}
	.st1{fill:#26C3FF;}
</style>
<g>
	<g>
		<rect x="0.3" y="330" class="st0" width="108.4" height="8"/>
		<rect x="390.3" y="330" class="st0" width="647" height="8"/>
		<g>
			<path class="st0" d="M44.2,410.8H10.2v13.1h31c4.6,0,7.7,0.8,9.3,2.5c1.6,1.7,2.5,4.8,2.5,9.4v6c0,4.6-0.8,7.8-2.5,9.4
				c-1.6,1.6-4.7,2.5-9.3,2.5H11.9c-4.6,0-7.8-0.8-9.4-2.5c-1.6-1.6-2.5-4.8-2.5-9.4v-3.2h8.4v7.5h36.5V432H13.7
				c-4.6,0-7.7-0.8-9.3-2.5c-1.6-1.6-2.5-4.8-2.5-9.4v-4.8c0-4.7,0.8-7.8,2.5-9.5c1.7-1.6,4.7-2.5,9.3-2.5h26.9
				c4.3,0,7.4,0.8,9.2,2.3c1.8,1.5,2.7,4.5,2.7,8.7v3.1l-8.3,0L44.2,410.8z"/>
			<path class="st0" d="M138.5,410.8v42.9h-9.1v-42.9h-22.8v-7.5h54.9v7.5H138.5z"/>
			<path class="st0" d="M226.1,453.7H217v-50.3h9.1V453.7z"/>
			<path class="st0" d="M295.4,453.7v-50.4h9.1v42.8h37.6v7.6L295.4,453.7z"/>
			<path class="st0" d="M399.5,453.7v-50.4h9.1v42.8h37.6v7.6L399.5,453.7z"/>
			<path class="st0" d="M574.5,453.7l28-50.4h8.4l28.6,50.4h-9.9l-6.3-11.8h-33.4l-6.2,11.8H574.5z M593.6,434.7h25.7l-12.9-24
				L593.6,434.7z"/>
			<path class="st0" d="M696,453.7v-50.4h9.1v42.8h37.6v7.6L696,453.7z"/>
			<path class="st0" d="M812,453.7h-9.1v-50.3h9.1V453.7z"/>
			<path class="st0" d="M896.5,453.7l-27.9-50.4h9.8l21.7,40.5l20.8-40.5h9l-26.5,50.4H896.5z"/>
			<polygon class="st0" points="997.8,410.9 997.8,423.8 1037.4,423.8 1037.4,431.3 997.8,431.3 997.8,446.4 1037.4,446.4 
				1037.4,453.7 988.7,453.7 988.7,403.4 1037.4,403.4 1037.4,410.9 			"/>
		</g>
	</g>
	<g id="g6">
		<path id="path4" class="st0" d="M602.1,258.4c-0.8,0-0.5,0.1-0.5-0.7V124.2h-50.2c-0.8,0-0.7,0.2-0.7-0.6V101c0-1-0.1-0.8,0.6-0.8
			h132.2c0.8,0,0.6-0.2,0.6,0.5v22.8c0,0.8,0.1,0.6-0.6,0.6h-51v133.6c0,0.8,0.2,0.6-0.5,0.6H602.1z"/>
	</g>
	<path id="path12" class="st0" d="M1035,232.9h-67.9V101h-32.5c-0.8,0-0.7-0.2-0.7,0.6v155.2c0,0.8-0.1,0.7,0.7,0.7h102
		c0.8,0,0.6,0.2,0.6-0.6v-22.7c0-1.6,0-1.4-0.7-1.4L1035,232.9z"/>
	<path id="path18" class="st0" d="M0,258.4V100.2h49.4c20.1,0,35.5,4.6,44.7,13.1c10,8.5,14.7,20.8,14.7,36.2c0.1,9-1.7,18-5.4,26.2
		c-3.9,8.5-10,14.7-19.3,20.1s-20.8,7.7-36.2,7.7H33.9v56.3H0V258.4z M33.9,174.3h11.6c9.3,0,16.2-1.5,21.6-5.4s8.5-10,8.5-19.3
		c0-6.9-2.3-12.3-6.2-16.2c-4.6-3.9-10.8-6.2-20.1-6.2H33.9V174.3z"/>
	<path id="path22" class="st0" d="M459.7,192.8c6.5-1.6,12.8-4.2,18.5-7.7c6.2-3.1,10.8-7.7,14.7-13.1c5.4-6.9,8.5-15.4,8.5-26.2
		c0-30.9-20.8-46.3-63.2-46.3h-50.1v158.1h34.7v-60.9h10l33.9,59.4h39.5C493.6,239,474.3,212.7,459.7,192.8z M422.7,126.5h14.7
		c10,0,17,1.5,22.4,5.4c4.6,3.9,6.9,8.5,6.9,16.2c0,8.5-2.3,14.7-7.7,18.5c-4.6,3.9-12.3,5.4-21.6,5.4h-14.7L422.7,126.5z"/>
	<path id="path24" class="st0" d="M809.1,102.6h-26.2l-60.2,155h32.4l8.5-23.1l0,0l7.7-23.1h42.4l7.7,20.8l10,24.7h37.8L809.1,102.6
		z M792.9,148.8h1.5c4.5,13.3,8.7,26.3,13.1,38.6h-26.2C785.4,174.3,789,161.3,792.9,148.8z"/>
	<path id="path47" class="st1" d="M197.5,32.7c-8.2,20.1-21,35.6-26.4,58.5c21.6-44.7,73.4-115.1,132.1-83
		c32.3,17.7,46.4,64.5,49.1,111.3c5.2,91.9-45.5,203.2-111.3,224.5c-41.6,13.5-73.2-20.6-86.8-47.2
		C112.1,214.7,154.6,80.1,197.5,32.7z M244.7,34.5c-59.6,32.2-106.7,196.1-58.5,267.9c12.3,18.3,46.3,38.2,67.9,17
		c-49.8,7.5-68.7-41.9-71.7-81.1c7.5,35.2,33.2,77.6,73.6,60.4c60-25.6,89.7-154.4,64.1-230.2c5.3,32,3.7,75.6-11.3,98.1
		C329.5,111.7,310.7-1.1,244.7,34.5L244.7,34.5z"/>
</g>
</svg>
