<?xml version="1.0" encoding="utf-8"?>
<!-- Generator: Adobe Illustrator 28.2.0, SVG Export Plug-In . SVG Version: 6.00 Build 0)  -->
<svg version="1.1" id="Calque_1" xmlns="http://www.w3.org/2000/svg" xmlns:xlink="http://www.w3.org/1999/xlink" x="0px" y="0px"
	 viewBox="0 0 147 37" style="enable-background:new 0 0 147 37;" xml:space="preserve">
<style type="text/css">
	.st0{fill:#FFFFFF;}
</style>
<g>
	<path class="st0" d="M64.2,0.4c0.2,0,0.4,0.1,0.4,0.4v7c0,0.5,0,0.9,0.1,1.2c0.1,0.3,0.2,0.6,0.4,0.7c0.2,0.2,0.4,0.3,0.7,0.4
		c0.3,0.1,0.7,0.1,1.1,0.1h4.8c0.4,0,0.8,0,1.1-0.1c0.3-0.1,0.5-0.2,0.7-0.4c0.2-0.2,0.3-0.4,0.4-0.7C74,8.7,74,8.3,74,7.8v-7
		c0-0.2,0.1-0.4,0.4-0.4h1.9c0.2,0,0.4,0.1,0.4,0.4v7.3c0,0.9-0.1,1.6-0.3,2.1c-0.2,0.6-0.4,1.1-0.8,1.5c-0.4,0.4-0.9,0.6-1.5,0.8
		c-0.6,0.2-1.4,0.2-2.2,0.2h-5c-0.9,0-1.6-0.1-2.2-0.2s-1.1-0.4-1.5-0.8c-0.4-0.4-0.7-0.9-0.8-1.5C62.1,9.6,62,9,62,8.1V0.8
		c0-0.2,0.1-0.4,0.4-0.4H64.2z"/>
	<path class="st0" d="M99,0.4c0.3,0,0.5,0,0.7,0c0.2,0,0.4,0.1,0.5,0.2c0.1,0.1,0.3,0.2,0.4,0.3c0.1,0.1,0.3,0.3,0.4,0.5l6.5,8.6
		c0,0.1,0.1,0.1,0.2,0.1h0.2c0.1,0,0.1,0,0.1-0.2V0.8c0-0.2,0.1-0.4,0.4-0.4h1.8c0.2,0,0.4,0.1,0.4,0.4v10.1c0,0.7-0.1,1.2-0.4,1.5
		c-0.2,0.2-0.6,0.4-1.2,0.4h-1.5c-0.3,0-0.5,0-0.7,0c-0.2,0-0.3-0.1-0.5-0.1c-0.1-0.1-0.3-0.2-0.4-0.3c-0.1-0.1-0.3-0.3-0.5-0.6
		L99,3.1C98.9,3,98.8,3,98.8,3h-0.2c-0.1,0-0.1,0-0.1,0.2v9.2c0,0.2-0.1,0.4-0.4,0.4h-1.8c-0.3,0-0.4-0.1-0.4-0.4V2.2
		c0-0.7,0.1-1.2,0.4-1.5c0.2-0.2,0.6-0.4,1.2-0.4L99,0.4L99,0.4z"/>
	<path class="st0" d="M126.6,0.4c0.3,0,0.4,0.1,0.4,0.4v1.7c0,0.3-0.1,0.4-0.4,0.4h-5.5v9.4c0,0.2-0.1,0.4-0.4,0.4h-1.9
		c-0.2,0-0.4-0.1-0.4-0.4V3H113c-0.3,0-0.4-0.1-0.4-0.4V0.8c0-0.2,0.1-0.4,0.4-0.4H126.6z"/>
	<path class="st0" d="M131.4,0.4c0.2,0,0.4,0.1,0.4,0.4v11.6c0,0.2-0.1,0.4-0.4,0.4h-1.9c-0.3,0-0.4-0.1-0.4-0.4V0.8
		c0-0.2,0.1-0.4,0.4-0.4H131.4z"/>
	<path class="st0" d="M146.6,0.4c0.2,0,0.4,0.1,0.4,0.4v1.7c0,0.3-0.1,0.4-0.4,0.4h-7.7c-0.4,0-0.8,0-1.1,0.1
		c-0.3,0.1-0.5,0.2-0.7,0.4c-0.2,0.2-0.3,0.4-0.4,0.7c-0.1,0.3-0.1,0.7-0.1,1.2v2.5c0,0.5,0,0.9,0.1,1.2c0.1,0.3,0.2,0.6,0.4,0.7
		c0.2,0.2,0.4,0.3,0.7,0.4c0.3,0.1,0.7,0.1,1.1,0.1h7.7c0.2,0,0.4,0.1,0.4,0.4v1.7c0,0.2-0.1,0.4-0.4,0.4h-7.8
		c-0.9,0-1.6-0.1-2.2-0.2c-0.6-0.2-1.1-0.4-1.5-0.8c-0.4-0.4-0.7-0.9-0.8-1.5c-0.2-0.6-0.3-1.3-0.3-2.1v-3c0-0.9,0.1-1.6,0.3-2.1
		c0.2-0.6,0.5-1.1,0.8-1.4c0.4-0.4,0.9-0.6,1.5-0.8c0.6-0.2,1.4-0.2,2.2-0.2h7.8V0.4z"/>
	<g>
		<path class="st0" d="M58.5,18.3c-0.4-0.4-1-0.7-1.6-0.9c-0.7-0.2-1.5-0.3-2.4-0.3h-8.1c-0.4,0-0.5,0.2-0.5,0.5v11.3
			c0,0.4,0.2,0.5,0.5,0.5h8.1c0.9,0,1.8-0.1,2.4-0.3c0.7-0.2,1.2-0.5,1.6-0.9c0.4-0.4,0.8-0.9,1-1.5c0.2-0.6,0.3-1.4,0.3-2.2v-2.4
			c0-0.9-0.1-1.6-0.3-2.2C59.3,19.2,58.9,18.7,58.5,18.3z M57.1,24.2c0,0.5,0,0.9-0.1,1.3c-0.1,0.4-0.2,0.6-0.5,0.9
			c-0.2,0.2-0.5,0.4-0.8,0.4c-0.4,0.1-0.8,0.1-1.3,0.1h-5.7c-0.2,0-0.2-0.1-0.2-0.2v-7c0-0.2,0.1-0.2,0.2-0.2h5.7
			c0.5,0,0.9,0,1.3,0.1c0.4,0.1,0.6,0.2,0.8,0.4c0.2,0.2,0.4,0.5,0.5,0.9c0.1,0.4,0.1,0.8,0.1,1.3V24.2z"/>
		<path class="st0" d="M72.9,25.2c0.9-0.2,1.6-0.5,2-1.1c0.4-0.6,0.6-1.4,0.6-2.4v-1c0-1.2-0.3-2.1-0.9-2.7
			c-0.6-0.6-1.5-0.9-2.9-0.9h-9.3c-0.4,0-0.5,0.2-0.5,0.5V29c0,0.2,0.1,0.4,0.4,0.4h1.9c0.2,0,0.4-0.1,0.4-0.4v-3.5l0,0v-2.1l0,0
			v-3.6c0-0.1,0.1-0.2,0.2-0.2h6.4c0.6,0,1,0.1,1.2,0.4c0.2,0.2,0.4,0.6,0.4,1.2v0.7c0,0.5-0.1,0.9-0.4,1.2
			c-0.2,0.2-0.7,0.4-1.2,0.4h-4.6v2.1h3.6l2.7,3.6c0,0.1,0.1,0.1,0.2,0.2c0,0,0.2,0,0.3,0h2.2c0.2,0,0.2,0,0.3-0.2
			c0-0.1,0-0.2,0-0.3L72.9,25.2z"/>
		<path class="st0" d="M90,17.1h-7.6c-0.9,0-1.6,0.1-2.2,0.2c-0.6,0.2-1.1,0.4-1.5,0.8c-0.4,0.4-0.7,0.9-0.8,1.4
			c-0.2,0.6-0.3,1.3-0.3,2.1v3c0,0.9,0.1,1.6,0.3,2.1c0.2,0.6,0.5,1.1,0.8,1.5c0.4,0.4,0.9,0.6,1.5,0.8c0.6,0.2,1.4,0.2,2.2,0.2H90
			c0.3,0,0.4-0.1,0.4-0.4v-1.7c0-0.2-0.1-0.4-0.4-0.4h-7.6c-0.4,0-0.8,0-1.1-0.1c-0.3-0.1-0.5-0.2-0.7-0.4c-0.2-0.2-0.3-0.4-0.4-0.7
			c-0.1-0.3-0.1-0.7-0.1-1.1v-0.3v-0.1v-2v-0.1v-0.2c0-0.4,0-0.9,0.1-1.1c0.1-0.3,0.2-0.6,0.4-0.7c0.2-0.2,0.4-0.3,0.7-0.4
			c0.3-0.1,0.7-0.1,1.1-0.1H90c0.3,0,0.4-0.1,0.4-0.4v-1.7C90.4,17.2,90.3,17.1,90,17.1z"/>
		<path class="st0" d="M89.9,24.3c0.2,0,0.4-0.1,0.4-0.4v-1.4c0-0.2-0.1-0.4-0.4-0.4h-7.8v2.1L89.9,24.3
			C89.9,24.3,89.9,24.3,89.9,24.3z"/>
		<path class="st0" d="M128.3,17.5c-0.2-0.3-0.6-0.4-1.2-0.4h-1.9c-0.2,0-0.5,0-0.6,0c-0.2,0-0.3,0.1-0.5,0.2
			c-0.1,0.1-0.3,0.2-0.4,0.4c-0.1,0.2-0.2,0.4-0.3,0.7l-3.6,8.5c0,0.1-0.1,0.2-0.2,0.2h-0.2c-0.1,0-0.2,0-0.2-0.2l-3.6-8.5
			c-0.1-0.3-0.2-0.5-0.3-0.7c-0.1-0.2-0.2-0.3-0.4-0.4c-0.1-0.1-0.3-0.2-0.5-0.2c-0.2,0-0.4,0-0.7,0h-1.9c-0.6,0-1,0.1-1.2,0.4
			c-0.2,0.3-0.3,0.7-0.3,1.4v10.1c0,0.2,0.1,0.4,0.4,0.4h1.8c0.2,0,0.4-0.1,0.4-0.4v-9.2c0-0.1,0-0.2,0.1-0.2h0.2
			c0.1,0,0.2,0,0.2,0.1l3.5,7.9c0.1,0.3,0.3,0.6,0.4,0.8c0.2,0.2,0.3,0.4,0.5,0.5s0.4,0.2,0.6,0.3c0.2,0,0.5,0.1,0.8,0.1h0.8
			c0.3,0,0.6,0,0.8-0.1c0.2,0,0.4-0.2,0.6-0.3s0.3-0.3,0.5-0.5c0.2-0.2,0.3-0.5,0.4-0.8l3.5-7.9c0-0.1,0.1-0.1,0.2-0.1h0.2
			c0.1,0,0.1,0,0.1,0.2v9.2c0,0.2,0.1,0.4,0.4,0.4h1.8c0.3,0,0.4-0.1,0.4-0.4V18.9C128.6,18.3,128.5,17.8,128.3,17.5z"/>
	</g>
	<g id="UBAs3Z_5_">
		<g>
			<path class="st0" d="M37.4,19.3c0,0.1,0,0.2,0,0.3c0,1.3-0.2,2.6-0.6,3.9c-0.3,0.9-0.7,1.8-1.3,2.6c-0.7,0.9-1.6,1.6-2.6,2.1
				c-0.8,0.4-1.6,0.6-2.4,0.9c-0.6,0.1-1.2,0.2-1.8,0.3c-0.2,0-0.2,0-0.3-0.1c-1.1-1.6-2.3-3.2-3.4-4.7c-0.2-0.3-0.4-0.6-0.6-0.9
				c0,0,0-0.1-0.1-0.1c0,0,0,0,0,0s0.1,0,0.1,0c0.5,0,1,0,1.6,0c0.8,0,1.5-0.1,2.2-0.3c0.5-0.2,1-0.4,1.4-0.7
				c0.4-0.3,0.7-0.8,0.9-1.3c0.2-0.4,0.3-0.9,0.4-1.3c0.1-0.7,0.2-1.5,0.2-2.2c0-2,0-4,0-6c0-0.8-0.1-1.5-0.2-2.3
				c-0.1-0.4-0.2-0.9-0.4-1.3c-0.4-0.8-1-1.3-1.8-1.5c-0.4-0.2-0.8-0.2-1.2-0.3c-0.7-0.1-1.4-0.2-2-0.2c-4.3,0-8.6,0-13,0
				c-0.2,0-0.3,0-0.5,0c0,0-0.1,0-0.1-0.1c0,0,0,0-0.1-0.1C10.3,4.1,9,2.4,7.8,0.6c0,0,0,0,0-0.1c0-0.1,0-0.1,0-0.1
				c0.2,0,0.3-0.1,0.4-0.1c0.5-0.1,1-0.1,1.5-0.2c0.4,0,0.8,0,1.2-0.1c0.1,0,0.2,0,0.3,0c5,0,10,0,15.1,0c0.1,0,0.2,0,0.2,0
				c0.6,0,1.2,0.1,1.8,0.1c0.7,0.1,1.4,0.2,2.2,0.4c0.8,0.2,1.7,0.5,2.5,0.9c1,0.5,1.8,1.2,2.5,2.1c0.6,0.8,1,1.7,1.4,2.7
				c0.4,1.3,0.6,2.6,0.6,3.9c0,0.1,0,0.2,0,0.3C37.4,13.3,37.4,16.3,37.4,19.3z"/>
			<path class="st0" d="M0,10.7c0-0.1,0-0.2,0-0.4c0-0.6,0.1-1.3,0.2-1.9c0.2-1.1,0.4-2.2,0.9-3.2c0.5-1.1,1.2-2.1,2.2-2.9
				c0.2-0.2,0.2-0.2,0.3,0C4.8,4.2,6.1,6,7.4,7.7c0,0,0,0,0,0.1c0,0,0,0.1,0,0.2C7.1,8.5,6.9,9,6.8,9.6c-0.1,0.6-0.2,1.1-0.2,1.7
				c0,0.4,0,0.9,0,1.3c0,1.8,0,3.6,0,5.4c0,0.7,0,1.4,0.2,2.1c0.1,0.5,0.2,1,0.4,1.5c0.4,0.8,1,1.3,1.8,1.7c0.4,0.2,0.8,0.2,1.2,0.3
				c0.7,0.1,1.4,0.2,2,0.2c2.1,0,4.2,0,6.3,0c0.2,0,0.2,0,0.3,0.2c2.9,4,5.7,8,8.6,12c0,0,0,0,0.1,0.1c0.2,0.2,0.2,0.5,0.1,0.7
				c0,0.2-0.2,0.2-0.3,0.3c0,0-0.1,0-0.1,0c-2,0-4.1,0-6.1,0c0,0,0,0-0.1,0c-0.2,0-0.3-0.1-0.4-0.2c-0.1-0.1-0.2-0.2-0.4-0.4
				c-1.5-2.2-3-4.4-4.5-6.6c-0.1-0.2-0.1-0.2-0.3-0.2c-1.4,0-2.8,0-4.2,0c-0.6,0-1.3,0-1.9-0.1c-0.6-0.1-1.3-0.2-1.9-0.3
				c-0.8-0.2-1.6-0.4-2.3-0.7c-0.8-0.3-1.6-0.8-2.2-1.4c-0.8-0.7-1.5-1.7-1.9-2.7c-0.4-1-0.6-2.1-0.8-3.1c-0.1-0.6-0.1-1.3-0.2-1.9
				c0-0.1,0-0.3,0-0.4C0,16.3,0,13.5,0,10.7z"/>
		</g>
	</g>
	<g id="UBAs3Z_4_">
		<g>
			<path class="st0" d="M59.9,8.4c0,0,0,0.1,0,0.1c0,0.6-0.1,1.1-0.3,1.6c-0.1,0.4-0.3,0.7-0.6,1.1c-0.3,0.4-0.7,0.7-1.1,0.9
				c-0.3,0.2-0.7,0.3-1,0.4c-0.2,0-0.5,0.1-0.8,0.1c-0.1,0-0.1,0-0.1,0c-0.5-0.6-1-1.3-1.4-2c-0.1-0.1-0.2-0.2-0.2-0.4l0,0l0,0h0
				c0.2,0,0.4,0,0.6,0c0.3,0,0.6,0,0.9-0.1c0.2-0.1,0.4-0.2,0.6-0.3c0.2-0.2,0.3-0.3,0.4-0.5C57,9.1,57,8.9,57,8.7
				c0-0.3,0.1-0.6,0.1-0.9c0-0.8,0-1.7,0-2.5c0-0.3,0-0.6-0.1-1C57,4.1,57,4,56.8,3.8c-0.2-0.3-0.4-0.5-0.7-0.6
				C56,3.1,55.8,3,55.6,3C55.4,3,55.1,3,54.8,3c-1.8,0-3.6,0-5.4,0c-0.1,0-0.1,0-0.2,0c0,0,0,0,0,0c0,0,0,0,0,0
				c-0.5-0.7-1.1-1.5-1.6-2.2c0,0,0,0,0,0c0,0,0,0,0,0c0.1,0,0.1,0,0.2,0c0.2,0,0.4,0,0.6-0.1c0.2,0,0.3,0,0.5,0c0,0,0.1,0,0.1,0
				c2.1,0,4.2,0,6.3,0c0,0,0.1,0,0.1,0c0.2,0,0.5,0,0.8,0c0.3,0,0.6,0.1,0.9,0.2c0.4,0.1,0.7,0.2,1,0.4c0.4,0.2,0.8,0.5,1,0.9
				c0.2,0.3,0.4,0.7,0.6,1.1c0.2,0.5,0.2,1.1,0.2,1.6c0,0,0,0.1,0,0.1C59.9,5.9,59.9,7.2,59.9,8.4z"/>
			<path class="st0" d="M44.3,4.8c0,0,0-0.1,0-0.2c0-0.2,0-0.5,0.1-0.8c0.1-0.5,0.2-0.9,0.4-1.3c0.2-0.5,0.5-0.9,0.9-1.2
				c0.1-0.1,0.1-0.1,0.1,0c0.5,0.7,1.1,1.5,1.6,2.2c0,0,0,0,0,0s0,0,0,0.1c-0.1,0.2-0.2,0.4-0.2,0.7s-0.1,0.5-0.1,0.7
				c0,0.2,0,0.4,0,0.5c0,0.8,0,1.5,0,2.3c0,0.3,0,0.6,0.1,0.9c0,0.2,0.1,0.4,0.2,0.6c0.2,0.3,0.4,0.6,0.8,0.7
				c0.2,0.1,0.3,0.1,0.5,0.1c0.3,0,0.6,0,0.8,0c0.9,0,1.8,0,2.6,0c0.1,0,0.1,0,0.1,0.1c1.2,1.7,2.4,3.4,3.6,5c0,0,0,0,0,0
				c0.1,0.1,0.1,0.2,0,0.3c0,0.1,0,0.1-0.1,0.1h0c-0.8,0-1.7,0-2.6,0h0c-0.1,0-0.1,0-0.2-0.1c0,0-0.1-0.1-0.2-0.2
				c-0.6-0.9-1.2-1.8-1.9-2.8c0-0.1,0-0.1-0.1-0.1c-0.6,0-1.2,0-1.8,0c-0.3,0-0.6,0-0.8,0c-0.3,0-0.5-0.1-0.8-0.1
				c-0.3-0.1-0.7-0.2-1-0.3c-0.4-0.2-0.7-0.3-1-0.6c-0.4-0.3-0.6-0.7-0.8-1.1c-0.2-0.4-0.3-0.9-0.3-1.3c0-0.2,0-0.5-0.1-0.8
				c0,0,0-0.1,0-0.2C44.3,7.1,44.3,6,44.3,4.8z"/>
		</g>
	</g>
	<g>
		<path class="st0" d="M93.9,12.3L88.1,1.7c-0.3-0.5-0.6-0.9-0.9-1.1c-0.3-0.2-0.7-0.3-1.1-0.3h-1c-0.4,0-0.7,0.1-1,0.3
			c-0.3,0.2-0.6,0.5-0.8,1.1l-5.7,10.6c0,0.1-0.1,0.2,0,0.3c0,0.1,0.1,0.1,0.3,0.1h2.3c0.2,0,0.3-0.1,0.4-0.2l1.2-2.3l0,0l2.7-5.1
			L85.5,3c0-0.1,0.1-0.1,0.2-0.1h0.1c0.1,0,0.2,0,0.2,0.1l2.7,5.1h-3.9l-1.1,2h6.1l1.2,2.3c0.1,0.2,0.2,0.2,0.4,0.2h2.2
			c0.1,0,0.2,0,0.2-0.1C94,12.5,93.9,12.4,93.9,12.3z"/>
	</g>
	<g>
		<path class="st0" d="M108.2,29l-5.7-10.6c-0.3-0.5-0.6-0.9-0.9-1.1c-0.3-0.2-0.7-0.3-1.1-0.3h-1c-0.4,0-0.7,0.1-1,0.3
			c-0.3,0.2-0.6,0.5-0.8,1.1L92,29c0,0.1-0.1,0.2,0,0.3c0,0.1,0.1,0.1,0.3,0.1h2.3c0.2,0,0.3-0.1,0.4-0.2l1.2-2.3l0,0l2.7-5.1
			l1.1-2.1c0-0.1,0.1-0.1,0.2-0.1h0.1c0.1,0,0.2,0,0.2,0.1l2.7,5.1h-3.9l-1.1,2h6.1l1.2,2.3c0.1,0.2,0.2,0.2,0.4,0.2h2.2
			c0.1,0,0.2,0,0.2-0.1C108.3,29.3,108.2,29.1,108.2,29z"/>
	</g>
</g>
</svg>
