<?xml version="1.0" encoding="utf-8"?>
<!-- Generator: Adobe Illustrator 28.2.0, SVG Export Plug-In . SVG Version: 6.00 Build 0)  -->
<svg version="1.1"
	 id="svg33" xmlns:svg="http://www.w3.org/2000/svg" xmlns:cc="http://creativecommons.org/ns#" xmlns:rdf="http://www.w3.org/1999/02/22-rdf-syntax-ns#" xmlns:inkscape="http://www.inkscape.org/namespaces/inkscape" xmlns:dc="http://purl.org/dc/elements/1.1/" xmlns:sodipodi="http://sodipodi.sourceforge.net/DTD/sodipodi-0.dtd"
	 xmlns="http://www.w3.org/2000/svg" xmlns:xlink="http://www.w3.org/1999/xlink" x="0px" y="0px" viewBox="0 0 1000.2 284.6"
	 style="enable-background:new 0 0 1000.2 284.6;" xml:space="preserve">
<style type="text/css">
	.st0{fill:#FFFFFF;}
</style>
<path id="path31" class="st0" d="M170.4,0.6L0,79.5L42.5,241l32.3-4l-8.9-101.6l10.6-4.7l18.3,103.8l55.2-6.8l-9.8-112.1l10.5-4.7
	l20.1,114.2l55.9-6.9L216,95.5l10.6-4.7l22,124.9l55.2-6.8V34L170.4,0.6z M174.4,245.6l2.8,15.9l126.7,21.1v-52.9L174.4,245.6
	L174.4,245.6z M423.6,212.5v21.8h26.9c0,4.4-1.1,8.8-3.3,12.6c-2.3,3.8-5.6,6.9-9.7,8.8c-4.8,2.2-10.1,3.3-15.4,3.1
	c-6.1,0.2-12.1-1.5-17.3-4.8c-5-3.5-8.9-8.4-11.1-14c-2.8-7.1-4.1-14.7-3.9-22.3c-0.2-7.6,1.2-15.1,4-22.1
	c2.3-5.6,6.2-10.4,11.2-13.8c5-3.3,10.9-4.9,16.9-4.8c3.1,0,6.2,0.4,9.2,1.2c2.7,0.8,5.2,2,7.5,3.6c2.2,1.6,4,3.5,5.5,5.7
	c1.5,2.4,2.7,4.9,3.5,7.7h29.8c-0.8-6.3-2.8-12.3-6-17.7c-3.1-5.4-7.3-10.1-12.2-14c-5.1-4-10.9-7.1-17.1-9.1
	c-6.7-2.2-13.7-3.3-20.8-3.2c-8.3-0.1-16.5,1.5-24.2,4.5c-7.4,2.9-14.1,7.4-19.6,13.1c-5.8,6-10.3,13.2-13.1,21.1
	c-3.3,9.1-4.9,18.7-4.7,28.4c0,13.7,2.6,25.6,7.8,35.5c4.9,9.6,12.5,17.5,21.9,22.9c19.2,10.3,42.2,10.8,61.8,1.4
	c8.4-4.3,15.4-10.8,20.1-19c4.9-8.3,7.3-18.2,7.3-29.7v-16.8L423.6,212.5z M794.6,282.9V152.7h89.1v24.1H824v28.9h48.3v24.1H824v29
	h59.9v24.1H794.6z M970.2,190.9c-0.3-4.5-2.5-8.7-6.1-11.5c-3.6-2.7-8.6-4.1-15-4.1c-3.7-0.1-7.3,0.5-10.8,1.7
	c-2.6,1-4.9,2.6-6.6,4.8c-1.5,2-2.3,4.4-2.3,6.9c-0.1,2,0.4,3.9,1.4,5.7c1,1.7,2.4,3.2,4.1,4.2c2,1.3,4.1,2.3,6.4,3.1
	c2.6,0.9,5.3,1.7,8,2.3l11.4,2.7c5.6,1.2,11.1,3,16.3,5.3c4.5,2,8.7,4.7,12.4,8.1c3.4,3.1,6.1,6.8,7.9,11c1.9,4.5,2.9,9.4,2.8,14.3
	c0.2,7.4-1.9,14.7-6.1,20.9c-4.4,6.1-10.5,10.8-17.5,13.5c-8.8,3.4-18.1,5-27.5,4.8c-9.5,0.2-19-1.4-27.9-4.8
	c-7.5-2.9-13.9-8-18.5-14.6c-4.4-6.5-6.7-14.6-6.9-24.4h28.3c0.1,7.7,4.9,14.5,12.2,17.1c4,1.5,8.2,2.3,12.5,2.2
	c3.9,0.1,7.8-0.6,11.5-1.9c2.9-1,5.5-2.8,7.5-5.2c1.7-2.2,2.7-4.9,2.7-7.7c0-2.5-0.8-5-2.4-6.9c-2-2.1-4.4-3.8-7.1-4.8
	c-3.8-1.6-7.8-2.8-11.9-3.7l-13.9-3.4c-11.1-2.6-19.9-6.8-26.3-12.5c-6.4-5.7-9.6-13.4-9.6-23.2c-0.2-7.5,2.1-14.8,6.4-20.9
	c4.6-6.2,10.7-11,17.8-14c8.2-3.5,17-5.2,25.9-5c8.8-0.2,17.6,1.5,25.7,5c6.9,3,12.8,7.9,17.1,14c4.1,6.2,6.3,13.5,6.2,20.9
	L970.2,190.9z M773.6,282.9h-29.1v-98.9l-3,0l-29.4,99H683l-28.6-99l-3.7,0v98.9h-29.1V152.7h49.5l25,87.2h3l25-87.2h49.5V282.9z
	 M575.8,282.9h31.5l-43.7-130.1h-39.9l-43.8,130.1h31.6l8.5-28.5h47.3L575.8,282.9z M526.8,231.6l14.2-47.7h5.3l14.2,47.7H526.8z
	 M487.2,1.8h29.4v130.1h-29.4V1.8z M656.3,66.8c0,14.3-2.7,26.4-8.1,36.2c-5,9.5-12.7,17.4-22.1,22.7c-19.6,10.4-43.1,10.4-62.6,0
	c-9.4-5.3-17-13.2-22.1-22.8c-5.4-10-8.1-22-8.1-36.2s2.7-26.3,8.1-36.3c5-9.5,12.7-17.4,22-22.7c19.6-10.4,43.1-10.4,62.6,0
	c9.4,5.3,17,13.2,22.1,22.7C653.5,40.5,656.2,52.6,656.3,66.8 M626.3,66.8c0.2-7.7-1.1-15.3-3.8-22.4c-2.2-5.6-6-10.4-10.9-13.8
	c-10.3-6.3-23.3-6.3-33.6,0c-4.9,3.4-8.7,8.2-11,13.8c-5.2,14.5-5.2,30.4,0,44.9c2.2,5.6,6,10.4,11,13.8c10.3,6.3,23.3,6.3,33.6,0
	c4.9-3.4,8.7-8.2,10.9-13.8C625.2,82.1,626.5,74.5,626.3,66.8 M425.4,86.5l15.1,45.4h32.3L455.9,83h-22.8l-1.4-4.2
	c4.3-0.8,11.8-2.2,18.4-6.6c9.4-6.4,15-16.9,15.1-28.3c0.2-7.7-1.7-15.3-5.6-22c-3.8-6.5-9.4-11.6-16.1-14.9
	c-7.9-3.7-16.5-5.4-25.3-5.2h-52.5v130.1h29.4V86.5L425.4,86.5z M424.8,59.6c-4,1.5-8.3,2.2-12.5,2h-17.1v-36h17.1
	c4.3-0.1,8.5,0.6,12.5,2.1c3.2,1.3,5.8,3.5,7.6,6.4c1.8,2.9,2.7,6.3,2.6,9.7c0.1,3.4-0.7,6.7-2.6,9.6
	C430.6,56.3,427.9,58.5,424.8,59.6 M659,1.8v24.2h50.5l1.4,4.2c-4.3,0.8-11.5,2.1-18,6.4v95.4h29.1V25.9h33.8V1.7L659,1.8z"/>
</svg>
