<?xml version="1.0" encoding="utf-8"?>
<!-- Generator: Adobe Illustrator 28.2.0, SVG Export Plug-In . SVG Version: 6.00 Build 0)  -->
<svg version="1.1" id="Layer_1" xmlns:svg="http://www.w3.org/2000/svg"
	 xmlns="http://www.w3.org/2000/svg" xmlns:xlink="http://www.w3.org/1999/xlink" x="0px" y="0px" viewBox="0 0 367.1 301"
	 style="enable-background:new 0 0 367.1 301;" xml:space="preserve">
<style type="text/css">
	.st0{display:none;}
	.st1{display:none;fill:#FAA41A;}
	.st2{fill:#FFFFFF;}
</style>
<path id="path11" class="st0" d="M350.3-84.7h-332c-50,0-90.6,39.4-90.6,87.9v294.9c0,49.1,39.4,87.6,89.8,87.6h332
	c50.4,0,89.8-38.5,89.8-87.6V3.2C439.3-46.1,400.2-84.7,350.3-84.7"/>
<path id="path13" class="st1" d="M429.2,298c0,43.5-35,77.6-79.7,77.6h-332c-44.7,0-79.7-34.1-79.7-77.6V3.2
	c0-43.6,35.4-77.8,80.5-77.8h332c44.2,0,78.9,34.2,78.9,77.8V298z"/>
<path id="path15" d="M367.1,195.2H303l-10.2-63.9l-37.6,63.4h-7c-4.3-7.3-6-18.1-6-24.7c0-10.9,0.8-21.6,0.8-35.4
	c0-18.4-5.4-28.2-19.8-31.7v-0.5c30.6-4.3,44.5-24.5,44.5-53.1c0-40.6-27-49.4-62.3-49.4h-95.1L70.1,190.4h50.6l14.6-69.3h33.6
	c17.9,0,25.3,8.8,25.3,25.6c0,12.8-1.3,22.9-1.3,32.7c0,3.6,0.8,12.1,3.3,15.4c0,0,36.5,38.6,36.5,38.6L201.2,301l67.2-40l50.1,38.5
	l-9.4-63.8L367.1,195.2z M184,85.5h-40.2l9.6-45.9h37.4c13.3,0,27.2,3.5,27.2,19.8C218,79.9,202.2,85.5,184,85.5z"/>
<polygon id="polygon17" class="st2" points="269.2,249.8 222.3,277.6 243.8,231.5 217.7,204.1 260.6,204.1 287.7,158.3 295,204.5 
	337.6,204.5 299.2,231.4 306.1,278.1 "/>
</svg>
