<?xml version="1.0" encoding="utf-8"?>
<!-- Generator: Adobe Illustrator 28.2.0, SVG Export Plug-In . SVG Version: 6.00 Build 0)  -->
<svg version="1.1" id="레이어_1" xmlns="http://www.w3.org/2000/svg" xmlns:xlink="http://www.w3.org/1999/xlink" x="0px"
	 y="0px" viewBox="0 0 72 28" style="enable-background:new 0 0 72 28;" xml:space="preserve">
<style type="text/css">
	.st0{fill:#FFFFFF;}
</style>
<path class="st0" d="M4.4,24.3h4.9v3.4H0V14.5h4.4L4.4,24.3z M11.8,6.9c0-3.8,3.1-6.9,6.9-6.9s6.9,3.1,6.9,6.9s-3.1,6.9-6.9,6.9
	S11.8,10.7,11.8,6.9z M16.2,6.9c0,1.4,1.1,2.5,2.5,2.5c1.4,0,2.5-1.1,2.5-2.5s-1.1-2.5-2.5-2.5C17.3,4.4,16.2,5.5,16.2,6.9z
	 M40.9,9.1l2.7,4.4h4.9l-4.4-6.6l4.4-6.6h-4.9l-2.7,4.4V0.2h-4.4v13.3h4.4V9.1z M33,13.8c0.7,0,1.8-0.1,2.5-0.3V8.3
	c-0.4,0.6-1.7,1-2.5,1c-1.4,0-2.5-1.1-2.5-2.5s1.1-2.5,2.5-2.5c0.8,0,2,0.4,2.5,1V0.3C34.9,0.1,33.7,0,33,0c-3.8,0-6.9,3.1-6.9,6.9
	S29.2,13.8,33,13.8z M4.4,13.5H0V0.2h6.9c2.4,0,4.4,1.7,4.4,4.2c0,1.9-1,3.6-2.6,3.9l3.4,5.2H7.1L4.4,9.1L4.4,13.5L4.4,13.5z
	 M4.4,6.6h1c0.8,0,1.5-0.7,1.5-1.5S6.2,3.7,5.4,3.7h-1V6.6z M49,13.5h9.3v-3.4h-4.9V8.6h3.9V5.2h-3.9V3.7h4.9V0.2H49V13.5z
	 M71.1,26.8l0.2,0.3h-0.4l-0.1-0.2c-0.1-0.2-0.1-0.3-0.2-0.3c-0.1,0-0.1-0.1-0.2-0.1h-0.1v0.6H70v-1.4h0.3c0.3,0,0.4,0,0.5,0
	c0.1,0,0.2,0,0.2,0.1c0.1,0,0.1,0.1,0.1,0.1c0,0.1,0.1,0.1,0.1,0.2c0,0.1,0,0.2-0.1,0.3c-0.1,0.1-0.2,0.1-0.3,0.1c0,0,0.1,0,0.1,0.1
	c0,0,0.1,0.1,0.1,0.1C71,26.7,71.1,26.7,71.1,26.8L71.1,26.8z M70.9,26.2c0,0,0-0.1,0-0.1c0-0.1-0.1-0.2-0.1-0.2c-0.1,0-0.2,0-0.3,0
	h-0.1v0.4h0.1C70.6,26.3,70.7,26.3,70.9,26.2C70.8,26.3,70.8,26.3,70.9,26.2z M59.3,3.7h2.5v9.8h4.4V3.7h2.5V0.2h-9.3L59.3,3.7z
	 M53.9,22.1c0,0.8-0.7,1.5-1.5,1.5c-0.8,0-1.5-0.7-1.5-1.5v-7.6h-4.4v7.6c0,3.3,2.6,5.9,5.9,5.9s5.9-2.6,5.9-5.9v-7.6h-4.4
	L53.9,22.1z M39.3,23.1h2.1c-0.2,0.5-0.7,1.2-2,1.2c-1.5,0-2.7-1.3-2.7-2.9c0-1.8,1.3-2.9,2.7-2.9c1.5-0.1,2.1,0.5,2.6,1l3-2.9
	c-1.5-1.5-3.2-2.3-5.6-2.3c-3.8,0-6.9,3.1-6.9,6.9s3.1,6.9,6.9,6.9l0,0c4,0,6.4-2.8,6.4-6.4v-1.7h-6.4L39.3,23.1z M59.3,27.8h9.3
	v-3.4h-4.9v-1.5h3.9v-3.4h-3.9v-1.5h4.9v-3.4h-9.3V27.8z M29,14.5l4.4,13.3H29l-0.5-2H25l-0.5,2h-4.4l4.4-13.3H29z M27.7,22.4
	l-0.9-3.8l-0.9,3.8H27.7z M10.3,27.8h9.3v-3.4h-4.9v-1.5h3.9v-3.4h-3.9v-1.5h4.9v-3.4h-9.3V27.8z M72,26.4c0,0.2-0.1,0.5-0.2,0.7
	c-0.4,0.6-1.2,0.9-1.8,0.5c-0.2-0.1-0.4-0.3-0.5-0.5c-0.2-0.4-0.2-0.9,0-1.4c0.1-0.2,0.3-0.4,0.5-0.5c0.4-0.2,0.9-0.2,1.3,0
	c0.2,0.1,0.4,0.3,0.5,0.5C71.9,25.9,72,26.2,72,26.4z M71.7,26.4c0-0.4-0.2-0.8-0.6-0.9c-0.3-0.2-0.7-0.2-1.1,0
	c-0.5,0.3-0.7,1-0.4,1.5c0.3,0.5,1,0.7,1.5,0.4C71.5,27.1,71.7,26.8,71.7,26.4z"/>
</svg>
