<?xml version="1.0" encoding="UTF-8"?>
<svg id="Layer_1" data-name="Layer 1" xmlns="http://www.w3.org/2000/svg" version="1.1" viewBox="0 0 1000 439.3">
  <defs>
    <style>
      .cls-1 {
        fill: #fff;
        stroke-width: 0px;
      }
    </style>
  </defs>
  <path class="cls-1" d="M50.4,5.7c6.6,0,11.9,2.5,15.5,7.3,3.7,4.8,5.5,11.7,5.5,20.4s-2.1,16.5-6.3,21.5c-4.2,5.1-10.2,7.7-17.9,7.7h0v-12.9h0c4.8,0,8.3-1.5,10.4-4.3,2.1-2.8,3.1-7,3.1-12.4s-.8-7.8-2.5-10.2c-1.7-2.3-4.1-3.5-7.2-3.5s-4.7,1-6,3c-1.4,2-2.6,5.7-3.7,10.9l-1.2,5.7c-1.4,7.3-3.8,12.8-7.3,16.5-3.4,3.6-8,5.5-13.5,5.5s-10.6-2.3-14.1-6.7C1.8,49.7,0,43.5,0,35.6s1.9-15.9,5.8-20.5c3.8-4.6,9.3-7.1,16.2-7.4h0v12.7h0c-3.8.3-6.7,1.5-8.5,3.8-1.8,2.3-2.7,6-2.7,11.1s.7,7,2.2,9c1.5,2.1,3.5,3.1,6.1,3.1s4.8-1,6.2-2.9c1.5-1.9,2.7-5.4,3.7-10.4l1.2-5.9c1.6-8,4-13.8,7.2-17.3,3.2-3.5,7.6-5.4,13.1-5.4ZM37.2,378.3c-3.2,3.5-5.5,9.4-7.2,17.3l-1.2,5.9c-1,4.9-2.3,8.4-3.7,10.4-1.5,1.9-3.5,2.9-6.2,2.9s-4.7-1-6.1-3.1c-1.5-2.1-2.2-5.1-2.2-9s.9-8.8,2.7-11.1c1.8-2.3,4.7-3.6,8.5-3.8h0v-12.7h0c-6.9.3-12.3,2.7-16.2,7.4C1.9,386.9,0,393.8,0,402.8s1.8,14.2,5.2,18.6c3.5,4.5,8.2,6.7,14.1,6.7s10.1-1.8,13.5-5.5c3.4-3.6,5.9-9.2,7.3-16.5l1.2-5.7c1.1-5.3,2.3-8.9,3.7-10.9,1.4-2,3.4-3,6-3s5.6,1.2,7.2,3.5c1.7,2.3,2.5,5.8,2.5,10.2s-1.1,9.6-3.1,12.4c-2.1,2.8-5.5,4.3-10.4,4.3h0v12.9h0c7.7,0,13.7-2.7,17.9-7.7,4.1-5.1,6.3-12.3,6.3-21.5s-1.9-15.5-5.5-20.4c-3.7-4.8-8.9-7.3-15.5-7.3-5.5,0-9.9,1.8-13.1,5.3ZM69.9,211.8v13.5h0c-1.9,1.2-4.7,1.8-8.2,1.9l-7.5.3c-4.1.2-7,1.1-8.6,2.8-1.6,1.7-2.4,4.4-2.4,8v16.7h26.7v13.1H1.5v-31c0-1.5,0-3,.2-4.5v1.4c.4-5.3,1.6-9.7,3.9-13.1-.2.2-.4.5-.6.7.5-.8,1-1.6,1.6-2.3,3.5-4.2,8.2-6.4,14.2-6.4s13.5,3.8,16.3,11.2c1.1-3.3,2.8-5.7,5.1-7.2,2.3-1.5,5.5-2.3,9.5-2.5l10.2-.6c3.2,0,5.9-.8,7.9-2.1v-.2ZM22.3,226.5c-3.2,0-5.7,1-7.4,3.1-1.7,2-2.5,5-2.5,8.8v16.6h20.5v-17.1c0-3.6-.9-6.4-2.7-8.4-1.8-1.9-4.4-2.9-7.8-2.9ZM1.5,184.3h68.4v-13.1H1.5v13.1ZM13.3,88.9H1.5v50.4h68.4v-50.4h-11.8v37.3h-17.4v-33.8h-11.3v33.8H13.3v-37.4ZM13.3,296.2H1.5v50.4h68.4v-50.4h-11.8v37.3h-17.4v-33.8h-11.3v33.8H13.3v-37.4ZM99.6,429.9h90.7l68.9-94.9-45.4-62.4-114.3,157.3ZM497,7.7h-90.7l-56.4,77.6,45.4,62.4L497,7.7ZM202.8,7.7h-90.7l306.8,422.2h90.7L202.8,7.7Z"/>
  <rect class="cls-1" x="570.3" y="7.7" width="18.6" height="422.2"/>
  <g>
    <path class="cls-1" d="M695.8,201.1c15.9,14.2,32.6,22.6,60.2,30.9l43.4-59.6c-24.6-6.3-31.5-10.5-41.6-18.9-12.2-9.3-15.5-18.9-15.5-37.1s6-29,19.7-38.6c13.8-9.7,27.8-12.8,54-12.8,71.6,0,94,32,111.5,57.3l40.8-57c-5.9-9.2-19.3-24.3-28-31.6C913.7,11,868.1,0,815.4,0s-86.2,10.4-111.9,30.2c-25.7,19.8-44,54.1-44,87.4,0,33.2,15.1,64.7,36.2,83.6Z"/>
    <path class="cls-1" d="M965.1,227.3c-18.7-17.7-45.3-28.6-87.2-38.3l-44.4,60.8,6.9,1.6c34.1,7.5,45.6,15.3,58.7,24.8,10,7.3,17.5,18.2,17.5,35.7s-4.8,34.4-20.6,45.7c-15.9,11.4-34.3,16.1-63.8,16.1-50.4,0-101.2-21.8-123.2-75.8l-44.7,61c7.3,13.8,23.3,33.4,35.4,43.4,29.6,24.1,77.5,37,130.6,37s96.3-12.4,123.9-34.1c30.6-24.1,46-50.9,46-94.9,0-35.9-10.3-59.7-34.9-83Z"/>
  </g>
</svg>