<?xml version="1.0" encoding="utf-8"?>
<!-- Generator: Adobe Illustrator 28.2.0, SVG Export Plug-In . SVG Version: 6.00 Build 0)  -->
<svg version="1.1" id="레이어_1" xmlns="http://www.w3.org/2000/svg" xmlns:xlink="http://www.w3.org/1999/xlink" x="0px"
	 y="0px" viewBox="0 0 595.3 156" style="enable-background:new 0 0 595.3 156;" xml:space="preserve">
<style type="text/css">
	.st0{fill:#FFFFFF;}
</style>
<path class="st0" d="M73.4,150.9c40.6,0,73.4-32.9,73.4-73.4S114,4,73.4,4C32.9,4,0,36.9,0,77.5v0.1C0,118.1,32.9,150.9,73.4,150.9
	L73.4,150.9z M122,43.9c5.9,6.5,10,14.4,11.9,23c2.1,9,1.6,18.7-1.4,29.2c-3.4,10.5-8.6,19.3-15.6,26.4c-7.2,7.3-15.8,13-25.4,16.8
	c-4.4,1.8-9.1,3-13.8,3.6c-5.3,0.8-10.6,0.7-15.8-0.3c-3.8-0.7-7.6-1.7-11.2-3c-2.8-1-5.5-2.1-8.2-3.4c-2.9-1.4-5.6-2.9-8.3-4.7
	c-2.3-1.4-4.4-3.2-6.1-5.3c3,2.3,6.2,4.4,9.4,6.4c3.5,2.1,7.2,3.7,11.1,4.9c7.2,2.1,14.6,2.7,22,1.8c6.7-0.9,13.2-2.9,19.3-6
	c10.7-5.6,19.9-13.8,26.7-23.8c2.6-3.8,4.7-7.9,6.3-12.2c1.8-4.6,2.8-9.5,3-14.4c0.2-5.3-0.8-10.5-2.8-15.4
	c-1.6-3.9-3.9-7.5-6.8-10.5c-3-3-6.5-5.4-10.4-7c-5.1-2-10.6-2.5-16-1.5c-5.1,1-10,2.9-14.3,5.7c-3.8,2.3-7.2,5.2-10.1,8.6
	c-1,1.3-2.2,3-3.5,5.1c-1.4,2.2-3,4.2-4.8,6.1c-1.6,1.8-3.7,3.1-6,3.9c-2.2,0.6-4.4,0-7-1.8c-2.5-1.8-3.6-4.1-3.6-6.7
	c-0.1-2.7,0.5-5.3,1.7-7.7c1-2.2,2.2-4.4,3.6-6.4c3.4-4.9,7.4-9.3,12-13.2c4.8-3.9,10.2-7.1,15.9-9.3c3.3-1.2,6.7-2.1,10.1-2.6
	l4.8-0.5c2.4,0,4.7,0.1,6.7,0.2c2,0.1,4,0.5,6,1C109.3,33.3,116.4,37.8,122,43.9L122,43.9z M11.9,90.1c-0.3-1.8-0.7-3.6-1-5.4
	c-0.7-3.5-1-7.1-0.8-10.6c0.1-3.5,0.6-6.9,1.3-10.3c0.9-4.3,2.4-8.5,4.3-12.5c3.8-7.9,9-15,15.3-21.1c6.4-6.1,14-11,22.2-14.3
	C57,14.5,61,13.4,65,12.7l6-0.8c8,0.2,15.1,1.1,21,2.9c5.8,1.8,11.3,4.3,16.3,7.5l2.9,1.8c1,0.6,1.8,1.3,2.6,2.2
	c-5.1-3.7-10.8-6.5-16.8-8.4c-3.4-1-6.9-1.6-10.4-1.8c-3.8-0.2-7.7-0.2-11.5,0.3c-11.4,1.5-20.9,5.1-28.7,10.9
	C38.8,32.9,32.3,39.9,27.3,48c-2.3,3.7-4.2,7.7-5.5,11.8c-1.5,4.5-2.3,9.2-2.3,14c-0.1,5,0.9,10,2.9,14.7c2,4.6,5,8.7,8.8,12
	c3.9,3.4,8.7,5.7,13.7,6.6c5.4,1.1,11.1,0.4,17.2-1.8c8-3.1,14.9-8.5,19.9-15.5l3.4-5.2c1.3-1.9,2.9-3.6,4.8-4.9
	c2-1.4,4.4-1.9,6.8-1.4c2,0.2,3.9,1,5.3,2.5c1.8,2.2,2.7,5,2.4,7.8c-0.3,2.6-1.2,5.2-2.5,7.5c-1.2,2.1-2.6,4.2-4.1,6.2
	c-3.7,5.2-8.2,9.7-13.3,13.4c-5.6,3.9-11.8,6.8-18.4,8.5c-2.9,0.8-5.9,1.3-8.9,1.6c-3.2,0.3-6.5,0.2-9.7-0.4
	c-8.8-1.9-16-5.4-21.6-10.6c-5.7-5.3-10-12-12.7-19.3C12.7,93.6,12.2,91.9,11.9,90.1L11.9,90.1z"/>
<path class="st0" d="M372,89.8l-0.6-0.4c0.4,0,0.7-0.2,1-0.5c0.2-0.3,0.4-0.6,0.3-1c0-0.3-0.1-0.6-0.3-0.8c-0.1-0.2-0.3-0.4-0.6-0.5
	l-1.2-0.2h-2.2v5.2h1.1v-2.2h0.8l0.3,0.3l0.6,0.8l0.8,1.1h1.3l-0.7-1L372,89.8L372,89.8z M370.4,88.6h-0.8v-1.3h1.6l0.4,0.2
	c0.1,0.1,0.2,0.3,0.2,0.4c0,0.1,0,0.3-0.1,0.4l-0.3,0.3L370.4,88.6L370.4,88.6z"/>
<path class="st0" d="M370.5,84.2c-2.7,0-4.9,2.2-4.9,4.9c0,2.7,2.2,4.9,4.9,4.9c2.7,0,4.9-2.2,4.9-4.9
	C375.5,86.5,373.3,84.2,370.5,84.2C370.5,84.2,370.5,84.2,370.5,84.2z M370.5,93.4c-2.3,0-4.2-1.9-4.2-4.2c0-2.3,1.9-4.2,4.2-4.2
	c2.3,0,4.2,1.9,4.2,4.2C374.7,91.5,372.8,93.4,370.5,93.4z M342.4,55.9c1.5-0.5,2.9-1.3,4-2.3c1.1-1.1,2-2.4,2.6-3.9
	c0.6-2.1,0.9-4.3,0.9-6.5c0-1.7-0.3-3.5-0.9-5.1c-0.6-1.5-1.5-2.8-2.6-3.9c-1.2-1.1-2.5-1.9-4-2.3c-1.6-0.6-3.4-0.8-5.1-0.8h-18.6
	v41.7h4.8V56.7h11.4l11.2,16h5.8l-11.4-16.3L342.4,55.9z M323.3,52.6V35.1h13c2.3-0.1,4.6,0.6,6.4,2c1.4,1.2,2.3,3.9,2.3,7
	s-0.8,5.2-2.3,6.5c-1.8,1.4-4.1,2.1-6.4,2L323.3,52.6L323.3,52.6z M198.6,53.8c-1.1-0.9-2.3-1.6-3.5-2.1c-1.4-0.6-2.8-1.1-4.2-1.4
	l-10-2.4l-2.3-0.8c-0.7-0.3-1.3-0.7-1.8-1.2c-0.5-0.5-1-1-1.3-1.7c-0.3-0.7-0.5-1.5-0.4-2.3c0-1.3,0.3-2.5,0.8-3.6
	c0.5-0.9,1.2-1.7,2.1-2.3c0.9-0.6,2-1.1,3.1-1.3c2.6-0.6,5.3-0.5,7.8,0.2c1.2,0.4,2.3,0.9,3.4,1.7c1,0.7,1.8,1.7,2.3,2.8
	c0.6,1.2,1,2.6,1,3.9v0.4h4.7v-0.4c0.1-3.9-1.6-7.5-4.7-9.9c-1.5-1.1-3.2-2-4.9-2.5c-1.9-0.6-3.9-0.8-6-0.8
	c-2.5-0.1-4.9,0.3-7.2,1.3c-1.7,0.7-3.2,1.8-4.4,3.1c-1,1.1-1.8,2.5-2.3,3.9c-0.4,1.2-0.6,2.4-0.6,3.6c0,1.5,0.2,2.9,0.8,4.3
	c0.5,1.1,1.2,2.1,2.1,2.9c0.9,0.8,2,1.5,3.1,1.9c1.1,0.5,2.3,0.9,3.5,1.2l9.1,2.3l2.9,0.8c0.9,0.3,1.8,0.8,2.6,1.3
	c0.8,0.5,1.4,1.2,1.9,2c0.5,0.8,0.8,1.8,0.8,2.8c0,1.3-0.3,2.5-1,3.6c-0.7,1-1.6,1.8-2.6,2.4c-1.1,0.7-2.2,1.1-3.4,1.4
	c-1.1,0.3-2.3,0.4-3.4,0.4c-1.7,0-3.5-0.1-5.2-0.5c-1.5-0.3-2.9-0.9-4.1-1.8c-1.2-0.8-2.1-1.9-2.7-3.2c-0.7-1.6-1-3.4-0.9-5.1v-0.3
	h-4.7v0.4c-0.2,2.3,0.2,4.6,1,6.7c0.8,1.8,2,3.4,3.5,4.6c1.6,1.2,3.5,2.1,5.4,2.6c2.2,0.6,4.5,0.9,6.8,0.8c2.1,0,4.2-0.2,6.3-0.7
	c1.6-0.4,3.1-1,4.4-1.8c1.1-0.7,2.1-1.5,2.9-2.5c0.6-0.8,1.2-1.7,1.6-2.7c0.4-0.8,0.6-1.6,0.8-2.5c0.1-0.6,0.2-1.3,0.2-1.9
	c0-1.5-0.2-3-0.8-4.4C200.4,55.8,199.6,54.7,198.6,53.8L198.6,53.8z M234.7,56.7c0.1,2-0.2,4-0.8,6c-0.4,1.5-1.2,2.8-2.3,3.9
	c-1,1-2.2,1.8-3.6,2.2c-1.6,0.5-3.3,0.7-4.9,0.7c-1.7,0-3.3-0.2-4.9-0.7c-1.4-0.4-2.6-1.2-3.6-2.2c-1.1-1.1-1.8-2.5-2.3-3.9
	c-0.6-1.9-0.8-3.9-0.8-6V30.9h-4.8v26.7c0,2.1,0.3,4.1,0.9,6.1c0.6,1.9,1.6,3.6,2.9,5.1c1.4,1.5,3.2,2.7,5.1,3.4
	c4.8,1.7,10.1,1.7,14.9,0c1.9-0.7,3.7-1.9,5.1-3.4c1.3-1.5,2.3-3.2,2.9-5.1c0.6-2,0.9-4,0.9-6.1V30.9h-4.9L234.7,56.7L234.7,56.7z
	 M274.2,34.1c-1.2-1.1-2.5-1.9-4-2.3c-1.6-0.6-3.4-0.8-5.1-0.8h-18.5v41.7h4.8V56.6h13.8c1.7,0,3.5-0.3,5.1-0.8
	c1.5-0.5,2.9-1.3,4-2.3c1.1-1.1,2-2.4,2.6-3.9c0.6-2.1,0.9-4.3,0.9-6.5c0-1.7-0.3-3.5-0.9-5.1C276.3,36.5,275.4,35.2,274.2,34.1
	L274.2,34.1z M270.5,50.5c-1.8,1.4-4.1,2.1-6.4,2h-12.9V35.1h13c2.3-0.1,4.6,0.6,6.4,2c1.4,1.2,2.3,3.9,2.3,7S272.1,49.2,270.5,50.5
	L270.5,50.5L270.5,50.5z M287.4,53.2h22.9V49h-22.9V35.1h24.4v-4.2h-29.1v41.7h29.4v-4.1h-24.7V53.2L287.4,53.2z M377.3,66.1
	L364,30.9h-6.5v41.7h4.8V38.9l12.8,33.8h4.3l13.4-33.9v33.9h4.8V30.9h-6.5L377.3,66.1z M418.6,30.9l-16.8,41.8h5l4-10.1H431
	l3.9,10.1h5.1l-16.4-41.8H418.6L418.6,30.9z M412.5,58.4l8.6-21.5l8.2,21.5H412.5z M471,53.8c-1.1-0.9-2.3-1.6-3.5-2.1
	c-1.4-0.6-2.8-1.1-4.2-1.4l-10-2.4l-2.3-0.8c-0.7-0.3-1.3-0.7-1.8-1.2c-0.5-0.5-1-1-1.3-1.7c-0.3-0.7-0.5-1.5-0.4-2.3
	c0-1.3,0.3-2.5,0.8-3.6c0.5-0.9,1.2-1.7,2.1-2.3c0.9-0.6,2-1.1,3.1-1.3c2.6-0.6,5.3-0.5,7.8,0.2c1.2,0.4,2.3,0.9,3.4,1.7
	c1,0.7,1.8,1.7,2.3,2.8c0.6,1.2,1,2.6,1,3.9v0.4h4.9v-0.4c0.1-3.9-1.6-7.5-4.7-9.9c-1.5-1.1-3.2-2-4.9-2.5c-1.9-0.6-3.9-0.8-6-0.8
	c-2.5-0.1-4.9,0.3-7.2,1.3c-1.7,0.7-3.2,1.8-4.4,3.1c-1,1.1-1.8,2.5-2.3,3.9c-0.4,1.2-0.6,2.4-0.6,3.6c0,1.5,0.2,2.9,0.8,4.3
	c0.5,1.1,1.2,2.1,2.1,2.9c0.9,0.8,2,1.5,3.1,1.9c1.1,0.5,2.3,0.9,3.5,1.2l9.1,2.3l2.9,0.8c0.9,0.3,1.8,0.8,2.6,1.3
	c0.8,0.5,1.4,1.2,1.9,2c0.5,0.8,0.8,1.8,0.8,2.8c0,1.3-0.3,2.5-1,3.6c-0.7,1-1.6,1.8-2.6,2.4c-1.1,0.7-2.2,1.1-3.4,1.4
	c-1.1,0.3-2.3,0.4-3.4,0.4c-1.7,0-3.5-0.1-5.2-0.5c-1.5-0.3-2.9-0.9-4.1-1.8c-1.2-0.8-2.1-1.9-2.7-3.2c-0.7-1.6-1-3.4-0.9-5.1v-0.3
	h-4.7v0.4c-0.2,2.3,0.2,4.6,1,6.7c0.8,1.8,2,3.4,3.5,4.6c1.6,1.2,3.5,2.1,5.4,2.6c2.2,0.6,4.5,0.9,6.8,0.8c2.1,0,4.2-0.3,6.2-0.8
	c1.6-0.4,3.1-1,4.4-1.8c1.1-0.7,2.1-1.5,2.9-2.5c0.6-0.8,1.2-1.7,1.6-2.7c0.4-0.8,0.6-1.6,0.8-2.5c0.1-0.6,0.1-1.3,0.2-1.9
	c0-1.5-0.2-3-0.8-4.4C472.8,55.8,472,54.7,471,53.8L471,53.8z M507.1,53.8c-1.1-0.9-2.3-1.6-3.5-2.1c-1.4-0.6-2.8-1.1-4.2-1.4
	l-10-2.4l-2.3-0.8c-0.7-0.3-1.3-0.7-1.8-1.2c-0.5-0.5-1-1-1.3-1.7c-0.3-0.7-0.5-1.5-0.4-2.3c0-1.3,0.3-2.5,0.8-3.6
	c0.5-0.9,1.2-1.7,2.1-2.3c0.9-0.6,2-1.1,3.1-1.3c2.6-0.6,5.3-0.5,7.8,0.2c1.2,0.4,2.3,0.9,3.4,1.7c1,0.7,1.8,1.7,2.3,2.8
	c0.6,1.2,1,2.6,1,3.9v0.4h4.7v-0.4c0.1-3.9-1.6-7.5-4.7-9.9c-1.5-1.1-3.2-2-4.9-2.5c-1.9-0.6-3.9-0.8-6-0.8
	c-2.5-0.1-4.9,0.3-7.2,1.3c-1.7,0.7-3.2,1.8-4.4,3.1c-1,1.1-1.8,2.5-2.3,3.9c-0.4,1.2-0.6,2.4-0.6,3.6c0,1.5,0.2,2.9,0.8,4.3
	c0.5,1.1,1.2,2.1,2.1,2.9c0.9,0.8,2,1.5,3.1,1.9c1.1,0.5,2.3,0.9,3.5,1.2l9.1,2.3l2.9,0.8c0.9,0.3,1.8,0.8,2.6,1.3
	c0.8,0.5,1.4,1.2,1.9,2c0.5,0.8,0.7,1.8,0.7,2.8c0,1.3-0.3,2.5-1,3.6c-0.7,1-1.6,1.8-2.6,2.4c-1.1,0.7-2.2,1.1-3.4,1.4
	c-1.1,0.3-2.3,0.4-3.4,0.4c-1.7,0-3.5-0.1-5.2-0.5c-1.5-0.3-2.9-0.9-4.1-1.8c-1.2-0.8-2.1-1.9-2.7-3.2c-0.7-1.6-1-3.4-0.9-5.1v-0.3
	h-4.7v0.4c-0.2,2.3,0.2,4.6,1,6.7c0.8,1.8,2,3.4,3.5,4.6c1.6,1.2,3.5,2.1,5.4,2.6c2.2,0.6,4.5,0.9,6.8,0.8c2.1,0,4.2-0.2,6.3-0.7
	c1.6-0.4,3.1-1,4.4-1.8c1.1-0.7,2.1-1.5,2.9-2.5c0.6-0.8,1.2-1.7,1.6-2.7c0.4-0.8,0.6-1.6,0.8-2.5c0.1-0.6,0.1-1.3,0.2-1.9
	c0-1.5-0.2-3-0.8-4.4C508.9,55.8,508.1,54.7,507.1,53.8L507.1,53.8z M516,30.9h4.8v41.8H516V30.9z M543.6,66.9l-13.1-36h-5
	l15.3,41.5l0.2,0.3h5.1l15.5-41.7h-5L543.6,66.9L543.6,66.9z M570.6,53.2h22.9V49h-22.9V35.1h24.4v-4.2h-29.1v41.7h29.4v-4.1h-24.7
	L570.6,53.2L570.6,53.2z M188.3,108.1h13.9c0,1.8-0.3,3.7-0.8,5.4c-0.6,1.7-1.5,3.3-2.7,4.6c-1.2,1.3-2.7,2.3-4.4,3
	c-1.9,0.7-3.9,1.1-5.9,1.1c-2.4,0.1-4.7-0.5-6.8-1.5c-1.8-0.9-3.4-2.3-4.6-3.9c-1.2-1.7-2.1-3.7-2.7-5.7c-1.2-4.2-1.2-8.7,0-12.9
	c0.5-2,1.5-3.9,2.7-5.6c1.2-1.6,2.8-3,4.6-3.9c2.1-1,4.4-1.6,6.8-1.5c3.3-0.1,6.5,1.1,9.1,3.3c1,0.9,1.9,2,2.6,3.2
	c0.6,1.1,1,2.2,1.1,3.4v0.4h4.8v-0.5c-0.3-2.1-1.1-4.2-2.2-6c-2-3.4-5.3-6-9.1-7.1c-2-0.6-4.1-0.9-6.2-0.8c-3-0.1-5.9,0.5-8.6,1.8
	c-2.4,1.1-4.5,2.7-6.2,4.8c-1.7,2.1-2.9,4.4-3.7,7c-1.6,5.4-1.6,11.1,0,16.4c0.8,2.5,2,4.8,3.7,6.9c1.7,2,3.8,3.7,6.2,4.8
	c2.7,1.2,5.7,1.8,8.6,1.8c1.5,0,3-0.2,4.4-0.5c1.4-0.3,2.8-0.8,4-1.5c1.3-0.7,2.4-1.6,3.4-2.7c0.7-0.8,1.4-1.7,1.9-2.6v6.5h4.1
	v-21.5h-18.1V108.1L188.3,108.1z M272.4,118.9L259,83.7h-6.5v41.7h4.7V91.7l12.8,33.5l0.1,0.3h4.3l13.4-33.9v33.9h4.7V83.7h-6.5
	L272.4,118.9L272.4,118.9z M303.3,106h22.8v-4.2h-22.8V87.9h24.4v-4.2h-29.1v41.7h29.3v-4.1h-24.6L303.3,106L303.3,106L303.3,106z
	 M361,106.6c-1.1-0.9-2.3-1.6-3.5-2.1c-1.4-0.6-2.8-1.1-4.2-1.4l-10-2.4l-2.3-0.8c-0.7-0.3-1.3-0.7-1.8-1.2c-0.5-0.5-1-1-1.3-1.7
	c-0.3-0.7-0.5-1.5-0.4-2.3c0-1.3,0.3-2.5,0.8-3.6c0.5-0.9,1.2-1.7,2.1-2.3c0.9-0.6,2-1.1,3.1-1.3c2.6-0.6,5.3-0.5,7.8,0.2
	c1.2,0.4,2.3,0.9,3.4,1.7c1,0.7,1.8,1.7,2.3,2.8c0.6,1.2,1,2.6,1,3.9v0.4h4.7V96c0.1-3.9-1.6-7.5-4.7-9.9c-1.5-1.1-3.2-2-4.9-2.5
	c-1.9-0.6-3.9-0.8-6-0.8c-2.5-0.1-4.9,0.3-7.2,1.3c-1.7,0.7-3.2,1.8-4.4,3.1c-1,1.1-1.8,2.5-2.3,3.9c-0.4,1.2-0.6,2.4-0.6,3.6
	c0,1.5,0.2,2.9,0.8,4.3c0.5,1.1,1.2,2.1,2.1,2.9c0.9,0.8,2,1.5,3.1,1.9c1.1,0.5,2.3,0.9,3.5,1.2l9.1,2.3l2.9,0.8
	c0.9,0.3,1.8,0.8,2.6,1.3c0.8,0.5,1.4,1.2,1.9,2c0.5,0.8,0.7,1.8,0.7,2.8c0,1.3-0.3,2.5-1,3.6c-0.7,1-1.6,1.8-2.6,2.4
	c-1.1,0.7-2.2,1.1-3.4,1.4c-1.1,0.3-2.3,0.4-3.4,0.4c-1.7,0-3.5-0.1-5.2-0.5c-1.5-0.3-2.9-0.9-4.1-1.8c-1.2-0.8-2.1-1.9-2.7-3.2
	c-0.7-1.6-1-3.4-0.9-5.1v-0.4h-4.7v0.4c-0.2,2.3,0.2,4.6,1,6.7c0.8,1.8,2,3.4,3.5,4.6c1.6,1.2,3.5,2.1,5.4,2.6
	c2.2,0.6,4.5,0.9,6.8,0.8c2.1,0,4.2-0.2,6.3-0.7c1.6-0.4,3.1-1,4.4-1.8c1.1-0.7,2.1-1.5,2.9-2.5c0.6-0.8,1.2-1.7,1.6-2.7
	c0.4-0.8,0.6-1.6,0.8-2.5c0.1-0.6,0.1-1.3,0.2-1.9c0-1.5-0.2-3-0.8-4.4C362.7,108.5,361.9,107.5,361,106.6L361,106.6z M232,83.7
	h-4.9l-16.8,41.8h5l4-10.1h20.1l3.9,10.1h5.1L232.1,84L232,83.7L232,83.7L232,83.7z M221.1,111.2l8.6-21.5l8.2,21.5H221.1z"/>
</svg>
