<?xml version="1.0" encoding="utf-8"?>
<!-- Generator: Adobe Illustrator 28.2.0, SVG Export Plug-In . SVG Version: 6.00 Build 0)  -->
<svg version="1.1"
	 id="svg4219" xmlns:sodipodi="http://sodipodi.sourceforge.net/DTD/sodipodi-0.dtd" xmlns:svg="http://www.w3.org/2000/svg" xmlns:cc="http://creativecommons.org/ns#" xmlns:rdf="http://www.w3.org/1999/02/22-rdf-syntax-ns#" xmlns:dc="http://purl.org/dc/elements/1.1/" xmlns:inkscape="http://www.inkscape.org/namespaces/inkscape" sodipodi:docname="Team Fortress Classic Steam.svg"
	 xmlns="http://www.w3.org/2000/svg" xmlns:xlink="http://www.w3.org/1999/xlink" x="0px" y="0px" viewBox="0 0 600 164"
	 style="enable-background:new 0 0 600 164;" xml:space="preserve">
<style type="text/css">
	.st0{fill:#FFFFFF;}
</style>
<g id="layer1" transform="translate(0,-221.293)" inkscape:groupmode="layer" inkscape:label="Capa 1">
	<g id="g4866">
		<path id="path878" inkscape:connector-curvature="0" class="st0" d="M37.9,280.5V294H27.6v53.8H10.3V294H0v-13.5H37.9z"/>
		<path id="path880" inkscape:connector-curvature="0" class="st0" d="M56.7,280.5h28.9V294H74.1v12.8h10.8v12.8H74.1v14.8h12.7
			v13.5H56.7V280.5z"/>
		<path id="path882" inkscape:connector-curvature="0" class="st0" d="M136.7,280.5l9.9,67.3h-17.8l-0.9-12.1h-6.2l-1,12.1h-18
			l8.8-67.3H136.7z M127.5,323.8c-0.9-7.6-1.8-17-2.6-28.2c-1.8,12.9-2.9,22.3-3.3,28.2H127.5z"/>
		<path id="path884" inkscape:connector-curvature="0" class="st0" d="M217.9,280.5v67.3h-15.2v-45.4l-6.1,45.4H186l-6.4-44.4v44.4
			h-15.2v-67.3h22.5c0.7,4,1.4,8.8,2.1,14.3l2.4,17.1l4-31.4H217.9z"/>
		<path id="path861" inkscape:connector-curvature="0" class="st0" d="M241.1,280.5h20.3v9.3h-8.3v8.8h7.4v8.8h-7.4v19.5h-12V280.5z
			"/>
		<path id="path863" inkscape:connector-curvature="0" class="st0" d="M304.7,307.8c0,4.7-0.1,8-0.3,9.9c-0.2,1.9-0.9,3.7-2.1,5.3
			c-1.1,1.6-2.7,2.8-4.6,3.7c-2,0.9-4.2,1.3-6.8,1.3c-2.5,0-4.7-0.4-6.7-1.2c-2-0.8-3.5-2-4.7-3.7c-1.2-1.6-1.9-3.4-2.1-5.3
			s-0.3-5.3-0.3-10.1v-8c0-4.7,0.1-8,0.3-9.9c0.2-2,0.9-3.7,2.1-5.3c1.2-1.6,2.7-2.8,4.7-3.7c2-0.9,4.2-1.3,6.8-1.3
			c2.5,0,4.7,0.4,6.6,1.2c2,0.8,3.6,2,4.8,3.6s1.9,3.4,2.1,5.3s0.3,5.3,0.3,10.1L304.7,307.8L304.7,307.8z M292.8,292.5
			c0-2.2-0.1-3.5-0.4-4.1c-0.2-0.6-0.7-0.9-1.5-0.9c-0.6,0-1.1,0.2-1.5,0.7c-0.3,0.5-0.5,1.9-0.5,4.3v21.7c0,2.7,0.1,4.4,0.3,5
			c0.2,0.6,0.7,0.9,1.5,0.9s1.3-0.4,1.6-1.1s0.3-2.5,0.3-5.2L292.8,292.5z"/>
		<path id="path865" inkscape:connector-curvature="0" class="st0" d="M320.8,280.5h8.5c5.7,0,9.5,0.2,11.5,0.7
			c2,0.4,3.6,1.6,4.9,3.4s1.9,4.7,1.9,8.6c0,3.6-0.4,6.1-1.3,7.3c-0.9,1.2-2.6,2-5.3,2.2c2.4,0.6,4,1.4,4.8,2.4s1.3,1.9,1.5,2.8
			c0.2,0.8,0.3,3.1,0.3,6.9v12.3h-11.1v-15.5c0-2.5-0.2-4-0.6-4.6s-1.4-0.9-3-0.9v21h-12L320.8,280.5z M332.8,288.5v10.3
			c1.3,0,2.3-0.2,2.8-0.5c0.6-0.4,0.8-1.6,0.8-3.6v-2.6c0-1.5-0.3-2.4-0.8-2.9C335.1,288.7,334.2,288.5,332.8,288.5L332.8,288.5z"/>
		<g id="g3352" transform="matrix(5.0214579,0,0,5.0214579,-64.427404,-1077.9687)">
			<path id="path867" inkscape:connector-curvature="0" class="st0" d="M90.4,270.5v1.9H89v7.4h-2.4v-7.4h-1.4v-1.9H90.4z"/>
			<path id="path869" inkscape:connector-curvature="0" class="st0" d="M93.2,270.5h1.7c1.1,0,1.9,0,2.3,0.1s0.7,0.3,1,0.7
				c0.3,0.4,0.4,0.9,0.4,1.7c0,0.7-0.1,1.2-0.3,1.5c-0.2,0.2-0.5,0.4-1,0.4c0.5,0.1,0.8,0.3,1,0.5s0.3,0.4,0.3,0.5
				c0,0.2,0.1,0.6,0.1,1.4v2.4h-2.2v-3.1c0-0.5,0-0.8-0.1-0.9s-0.3-0.2-0.6-0.2v4.2h-2.4v-9.2H93.2z M95.6,272.1v2.1
				c0.3,0,0.5,0,0.6-0.1s0.2-0.3,0.2-0.7v-0.5c0-0.3-0.1-0.5-0.2-0.6C96.1,272.2,95.9,272.1,95.6,272.1L95.6,272.1z"/>
			<path id="path871" inkscape:connector-curvature="0" class="st0" d="M101.9,270.5h4v1.9h-1.6v1.8h1.5v1.8h-1.5v2h1.8v1.9H102
				v-9.4H101.9z"/>
			<path id="path873" inkscape:connector-curvature="0" class="st0" d="M114.3,273.3h-2.2v-0.7c0-0.3,0-0.5-0.1-0.6
				s-0.2-0.1-0.3-0.1c-0.1,0-0.3,0.1-0.3,0.2c-0.1,0.1-0.1,0.3-0.1,0.5c0,0.3,0,0.5,0.1,0.7s0.3,0.3,0.7,0.6c1.1,0.6,1.7,1.2,2,1.6
				s0.4,1.1,0.4,2c0,0.7-0.1,1.1-0.2,1.5c-0.2,0.3-0.4,0.6-0.9,0.8c-0.4,0.2-0.9,0.3-1.5,0.3s-1.2-0.1-1.6-0.4
				c-0.5-0.2-0.7-0.6-0.9-0.9c-0.1-0.4-0.2-0.9-0.2-1.6v-0.6h2.2v1.1c0,0.3,0,0.6,0.1,0.7s0.2,0.1,0.3,0.1c0.2,0,0.3-0.1,0.4-0.2
				s0.1-0.3,0.1-0.6c0-0.5-0.1-0.9-0.2-1.1c-0.2-0.2-0.5-0.4-1.1-0.8s-1-0.7-1.2-0.9c-0.2-0.2-0.4-0.4-0.5-0.7
				c-0.1-0.3-0.2-0.7-0.2-1.2c0-0.7,0.1-1.2,0.3-1.6c0.2-0.3,0.5-0.6,0.9-0.8c0.4-0.2,0.9-0.3,1.5-0.3s1.1,0.1,1.6,0.3
				c0.4,0.2,0.7,0.5,0.9,0.8c0.1,0.3,0.2,0.8,0.2,1.6L114.3,273.3z"/>
			<path id="path875" inkscape:connector-curvature="0" class="st0" d="M122.7,273.3h-2.2v-0.7c0-0.3,0-0.5-0.1-0.6
				s-0.2-0.1-0.3-0.1c-0.1,0-0.3,0.1-0.3,0.2c-0.1,0.1-0.1,0.3-0.1,0.5c0,0.3,0,0.5,0.1,0.7s0.3,0.3,0.7,0.6c1.1,0.6,1.7,1.2,2,1.6
				s0.4,1.1,0.4,2c0,0.7-0.1,1.1-0.2,1.5c-0.2,0.3-0.4,0.6-0.9,0.8c-0.4,0.2-0.9,0.3-1.5,0.3s-1.2-0.1-1.6-0.4
				c-0.5-0.2-0.7-0.6-0.9-0.9c-0.1-0.4-0.2-0.9-0.2-1.6v-0.6h2.2v1.1c0,0.3,0,0.6,0.1,0.7s0.2,0.1,0.3,0.1c0.2,0,0.3-0.1,0.4-0.2
				s0.1-0.3,0.1-0.6c0-0.5-0.1-0.9-0.2-1.1c-0.2-0.2-0.5-0.4-1.1-0.8s-1-0.7-1.2-0.9c-0.2-0.2-0.4-0.4-0.5-0.7
				c-0.1-0.3-0.2-0.7-0.2-1.2c0-0.7,0.1-1.2,0.3-1.6c0.2-0.3,0.5-0.6,0.9-0.8c0.4-0.2,0.9-0.3,1.5-0.3s1.1,0.1,1.6,0.3
				c0.4,0.2,0.7,0.5,0.9,0.8c0.1,0.3,0.2,0.8,0.2,1.6L122.7,273.3z"/>
		</g>
		<path id="path846" inkscape:connector-curvature="0" class="st0" d="M242.5,344.4h-4.9v-3.3c0-1-0.1-1.5-0.2-1.8
			c-0.1-0.2-0.3-0.4-0.7-0.4s-0.7,0.1-0.8,0.4s-0.2,0.9-0.2,1.9v8.7c0,0.9,0.1,1.5,0.2,1.8c0.1,0.3,0.4,0.4,0.7,0.4
			c0.4,0,0.6-0.1,0.7-0.4c0.1-0.3,0.2-0.9,0.2-2v-2.4h4.9v0.7c0,1.9-0.1,3.3-0.4,4.1c-0.3,0.8-0.9,1.5-1.8,2.1
			c-0.9,0.6-2.1,0.9-3.5,0.9s-2.6-0.3-3.5-0.8s-1.5-1.2-1.8-2.2c-0.3-0.9-0.5-2.3-0.5-4.2v-5.5c0-1.4,0-2.4,0.1-3
			c0.1-0.7,0.4-1.3,0.8-2c0.5-0.6,1.1-1.1,1.9-1.5c0.8-0.4,1.8-0.5,2.8-0.5c1.4,0,2.6,0.3,3.6,0.8s1.6,1.3,1.8,2.1
			c0.3,0.8,0.4,2.1,0.4,3.9L242.5,344.4z"/>
		<path id="path848" inkscape:connector-curvature="0" class="st0" d="M262.9,336.2v15.1h3v3.8H258v-18.8h4.9V336.2z"/>
		<path id="path850" inkscape:connector-curvature="0" class="st0" d="M289.8,336.2l2.8,18.8h-5l-0.2-3.4h-1.8l-0.3,3.4h-5.1
			l2.5-18.8H289.8z M287.2,348.3c-0.2-2.1-0.5-4.8-0.7-7.9c-0.5,3.6-0.8,6.2-0.9,7.9H287.2z"/>
		<path id="path852" inkscape:connector-curvature="0" class="st0" d="M317.1,341.9h-4.5v-1.4c0-0.7-0.1-1.1-0.2-1.2
			c-0.1-0.2-0.3-0.3-0.6-0.3c-0.3,0-0.5,0.1-0.7,0.4c-0.1,0.2-0.2,0.6-0.2,1.1c0,0.6,0.1,1.1,0.3,1.4c0.2,0.3,0.6,0.7,1.4,1.2
			c2.2,1.3,3.6,2.4,4.1,3.2c0.6,0.8,0.8,2.2,0.8,4c0,1.3-0.2,2.3-0.5,3c-0.3,0.6-0.9,1.2-1.8,1.6s-1.9,0.6-3.1,0.6
			c-1.3,0-2.4-0.2-3.4-0.7c-0.9-0.5-1.5-1.1-1.8-1.9s-0.4-1.9-0.4-3.3v-1.2h4.5v2.3c0,0.7,0.1,1.2,0.2,1.4c0.1,0.2,0.4,0.3,0.7,0.3
			s0.6-0.1,0.7-0.4c0.2-0.3,0.2-0.6,0.2-1.1c0-1.1-0.2-1.8-0.5-2.2c-0.3-0.3-1.1-0.9-2.3-1.7c-1.2-0.8-2-1.4-2.4-1.8s-0.7-0.9-1-1.5
			s-0.4-1.5-0.4-2.5c0-1.4,0.2-2.5,0.5-3.2c0.4-0.7,1-1.2,1.8-1.6s1.8-0.6,3-0.6c1.3,0,2.4,0.2,3.2,0.6c0.9,0.4,1.5,0.9,1.8,1.6
			c0.3,0.6,0.4,1.7,0.4,3.2L317.1,341.9z"/>
		<path id="path854" inkscape:connector-curvature="0" class="st0" d="M342.5,341.9H338v-1.4c0-0.7-0.1-1.1-0.2-1.2
			c-0.1-0.2-0.3-0.3-0.6-0.3c-0.3,0-0.5,0.1-0.7,0.4c-0.1,0.2-0.2,0.6-0.2,1.1c0,0.6,0.1,1.1,0.3,1.4c0.2,0.3,0.6,0.7,1.4,1.2
			c2.2,1.3,3.6,2.4,4.1,3.2c0.6,0.8,0.8,2.2,0.8,4c0,1.3-0.2,2.3-0.5,3c-0.3,0.6-0.9,1.2-1.8,1.6s-1.9,0.6-3.1,0.6
			c-1.3,0-2.4-0.2-3.4-0.7c-0.9-0.5-1.5-1.1-1.8-1.9s-0.4-1.9-0.4-3.3v-1.2h4.5v2.3c0,0.7,0.1,1.2,0.2,1.4c0.1,0.2,0.4,0.3,0.7,0.3
			s0.6-0.1,0.7-0.4c0.2-0.3,0.2-0.6,0.2-1.1c0-1.1-0.2-1.8-0.5-2.2c-0.3-0.3-1.1-0.9-2.3-1.7c-1.2-0.8-2-1.4-2.4-1.8s-0.7-0.9-1-1.5
			s-0.4-1.5-0.4-2.5c0-1.4,0.2-2.5,0.5-3.2c0.4-0.7,1-1.2,1.8-1.6s1.8-0.6,3-0.6c1.3,0,2.4,0.2,3.2,0.6c0.9,0.4,1.5,0.9,1.8,1.6
			c0.3,0.6,0.4,1.7,0.4,3.2L342.5,341.9z"/>
		<path id="path856" inkscape:connector-curvature="0" class="st0" d="M363.3,336.2V355h-4.9v-18.8H363.3z"/>
		<path id="path858" inkscape:connector-curvature="0" class="st0" d="M390,344.4h-4.9v-3.3c0-1-0.1-1.5-0.2-1.8
			c-0.1-0.2-0.3-0.4-0.7-0.4c-0.4,0-0.7,0.1-0.8,0.4c-0.1,0.3-0.2,0.9-0.2,1.9v8.7c0,0.9,0.1,1.5,0.2,1.8s0.4,0.4,0.7,0.4
			c0.4,0,0.6-0.1,0.7-0.4s0.2-0.9,0.2-2v-2.4h4.9v0.7c0,1.9-0.1,3.3-0.4,4.1c-0.3,0.8-0.9,1.5-1.8,2.1s-2.1,0.9-3.5,0.9
			s-2.6-0.3-3.5-0.8s-1.5-1.2-1.8-2.2c-0.3-0.9-0.5-2.3-0.5-4.2v-5.5c0-1.4,0-2.4,0.1-3c0.1-0.7,0.4-1.3,0.8-2
			c0.5-0.6,1.1-1.1,1.9-1.5s1.8-0.5,2.8-0.5c1.4,0,2.6,0.3,3.6,0.8c0.9,0.6,1.6,1.3,1.8,2.1c0.3,0.8,0.4,2.1,0.4,3.9L390,344.4z"/>
		<path id="path843" inkscape:connector-curvature="0" sodipodi:nodetypes="cccc" class="st0" d="M484.8,221.4
			c-23.2,7.3-41.3,25.4-48.7,48.6h48.7V221.4z"/>
		<path id="path843-3" inkscape:connector-curvature="0" sodipodi:nodetypes="cccc" class="st0" d="M600,270
			c-7.3-23.2-25.4-41.3-48.6-48.7V270H600z"/>
		<path id="path843-3-3" inkscape:connector-curvature="0" sodipodi:nodetypes="cccc" class="st0" d="M551.3,385.2
			c23.2-7.3,41.3-25.4,48.7-48.6h-48.7V385.2z"/>
		<path id="path843-3-3-4" inkscape:connector-curvature="0" sodipodi:nodetypes="cccc" class="st0" d="M436.1,336.6
			c7.3,23.2,25.4,41.3,48.6,48.7v-48.7H436.1z"/>
	</g>
</g>
</svg>
