<?xml version="1.0" encoding="utf-8"?>
<!-- Generator: Adobe Illustrator 28.2.0, SVG Export Plug-In . SVG Version: 6.00 Build 0)  -->
<svg version="1.1"
	 id="svg523" xmlns:svg="http://www.w3.org/2000/svg" xmlns:cc="http://creativecommons.org/ns#" xmlns:rdf="http://www.w3.org/1999/02/22-rdf-syntax-ns#" xmlns:dc="http://purl.org/dc/elements/1.1/"
	 xmlns="http://www.w3.org/2000/svg" xmlns:xlink="http://www.w3.org/1999/xlink" x="0px" y="0px" viewBox="0 0 462.7 99.5"
	 style="enable-background:new 0 0 462.7 99.5;" xml:space="preserve">
<style type="text/css">
	.st0{fill:#FFFFFF;}
</style>
<g>
	<path class="st0" d="M77.9,43c-0.1-1.1-0.1-2.2-0.2-3.3h-0.2c0.1-0.1,0.1-0.2,0.2-0.3h-0.2c-0.1-1.1-0.1-2.2-0.2-3.3h-0.2
		c0.1-0.4,0.1-0.8,0.2-1.2c-0.3-2.3-0.7-4.6-1-6.9h-0.3c0,1.2-0.2,2.2-0.5,3.1v2.1h-0.2v0.9h-0.2v0.9h-0.2v0.9h0.2v0.2h-0.2v0.9
		h-0.2v2.6c-0.2,0.8-0.5,1.8-0.3,2.9c0.1,0.1,0.1,0.2,0.2,0.3h-0.2c-0.1,1-0.1,2-0.2,3h1.7v0.2c0.6-0.1,1.3-0.1,1.9-0.2
		c0.1-0.3,0.2-0.4,0.2-0.9C77.8,44.4,77.9,43.6,77.9,43z"/>
	<path class="st0" d="M229.5,24.6h-0.2c-0.1-0.4,0.2-0.5,0.2-0.5v-0.2h-0.2c0-0.2,0.3-0.6,0.2-1c0,0-0.2,0-0.2-0.3
		c0.1-0.2,0.2,0.1,0.2-0.2h-0.2c-0.1-0.4,0.2-0.5,0.2-0.5c-0.1-0.3-0.1-0.7-0.2-1h-0.2c-0.3-1-1.2-1.1-1.7-1.7
		c-0.4,0.1-0.6,0.2-1.2,0.2C226,19.8,226,21,226,22h-0.2c-0.1,0.3,0.2,0.3,0.2,0.3v0.2h-0.2v1.4h-0.2c0.1,0.9,0.1,1.9,0.2,2.8h0.2
		c0.1,2.1,0.1,4.3,0.2,6.4c0.6,0.1,0.8,0.3,1.6,0.3v-0.2h0.7v-0.2c0.6-0.3,0.8-0.3,0.9-1.2h0.2c-0.1-0.3-0.1-0.7-0.2-1h-0.2
		c0.1-0.3,0.1-0.7,0.2-1c0,0-0.2-0.1-0.2-0.3h0.2v-0.3h0.2c-0.1-0.3-0.1-0.6-0.2-0.9h0.2v-1.7c0,0,0.2-0.1,0.2-0.3h-0.2V24.6z"/>
	<path class="st0" d="M288.3,25.1c0.4-1.3-0.4-4.9-0.7-5.7c-0.8-0.2-1.5-0.3-2.3-0.5c-0.1,0.1-0.1,0.2-0.2,0.3
		c-0.3,0.3-0.5,0.9-0.3,1.6h0.2v0.2c0,0-0.2,0.1-0.2,0.3c0,0,0.2,0,0.2,0.3c-0.6,3.7-0.2,8.1-0.2,12c0.5,0.1,1,0.1,1.6,0.2
		c0.5-0.1,0.8-0.3,1.6-0.3c0.1-0.6,0-1.7,0.2-2.4h0.2c0.1-0.4-0.3-0.9-0.2-1.6h0.2v-0.2h-0.2c0.1-0.6,0.1-1.2,0.2-1.7h-0.2v-2.4
		H288.3z"/>
	<path class="st0" d="M462.2,87.9v-0.5h-0.5v-0.5h-0.5v-0.5h-0.5v-0.5h-0.5v-0.5h-0.5v-0.5h-0.5v-0.5h-0.5v-0.5h-0.5v-0.5h-0.5v-0.5
		h-0.5v-0.5H457v-0.5h-0.5V81H456v-0.5h-0.5V80h-0.5v-0.5h-0.5v-0.5h-0.5v-0.5h-0.5v-0.5h-0.2l6.7-11.6c0.6-1.1,1.2-2.3,1.7-3.6
		c0.3-0.6,0.5-1.2,0.6-1.9c0.1-0.7,0.2-1.3,0.2-2V45c0-0.5,0-1.1,0-1.6c0-0.5-0.1-1.1-0.1-1.6c-0.2-0.8-0.4-1.6-0.7-2.4
		c-0.4-0.9-0.9-1.7-1.5-2.3c-0.2-0.2-0.3-0.4-0.5-0.5c-0.2-0.2-0.3-0.4-0.5-0.5c-0.1-0.2-0.3-0.4-0.5-0.5c-0.1-0.2-0.3-0.4-0.5-0.5
		c-0.2-0.2-0.3-0.4-0.5-0.5c-0.2-0.2-0.3-0.4-0.5-0.5c-0.1-0.2-0.3-0.4-0.5-0.5c-0.2-0.2-0.3-0.4-0.5-0.5c-0.1-0.2-0.3-0.4-0.5-0.5
		c-0.2-0.2-0.3-0.4-0.5-0.5c-0.2-0.2-0.3-0.4-0.5-0.5c-0.2-0.2-0.3-0.4-0.5-0.5c-0.1-0.2-0.3-0.4-0.5-0.5c-0.2-0.2-0.3-0.4-0.5-0.5
		c-0.2-0.2-0.3-0.4-0.5-0.5c-0.2-0.2-0.3-0.4-0.5-0.5c-0.1-0.2-0.3-0.4-0.5-0.5c-0.2-0.2-0.3-0.4-0.5-0.5c-0.2-0.2-0.3-0.4-0.5-0.5
		c-0.2-0.2-0.3-0.4-0.5-0.5c-0.2-0.2-0.3-0.4-0.5-0.5c-0.2-0.2-0.3-0.4-0.5-0.5c-0.2-0.2-0.3-0.4-0.5-0.5c-0.2-0.2-0.3-0.4-0.5-0.5
		c-0.1-0.2-0.3-0.4-0.5-0.5c-0.2-0.2-0.3-0.4-0.5-0.5c-0.2-0.2-0.3-0.4-0.5-0.5c-0.1-0.2-0.3-0.4-0.5-0.5c-0.1-0.2-0.3-0.4-0.5-0.5
		c-0.1-0.2-0.3-0.4-0.5-0.5c-0.1-0.2-0.3-0.4-0.5-0.5c-0.2-0.2-0.3-0.4-0.5-0.5c-0.2-0.2-0.3-0.4-0.5-0.5c-0.2-0.2-0.3-0.4-0.5-0.5
		c-0.2-0.2-0.3-0.4-0.5-0.5c-0.2-0.2-0.3-0.4-0.5-0.5c-0.1-0.2-0.3-0.4-0.5-0.5c-0.2-0.2-0.3-0.4-0.5-0.5c-0.1-0.2-0.3-0.4-0.5-0.5
		c-0.2-0.2-0.3-0.4-0.5-0.5c-0.1-0.2-0.3-0.4-0.5-0.5c-0.2-0.2-0.3-0.4-0.5-0.5c-0.2-0.2-0.3-0.4-0.5-0.5c-0.2-0.2-0.3-0.4-0.5-0.5
		c-0.2-0.2-0.3-0.4-0.5-0.5c-0.2-0.2-0.3-0.4-0.5-0.5c-0.2-0.2-0.3-0.4-0.5-0.5c-0.1-0.2-0.3-0.4-0.5-0.5c-0.2-0.2-0.3-0.4-0.5-0.5
		c-0.1-0.2-0.3-0.4-0.5-0.5c-0.2-0.2-0.3-0.4-0.5-0.5c-0.1-0.2-0.3-0.4-0.5-0.5c-0.2-0.2-0.3-0.4-0.5-0.5c-0.2-0.2-0.3-0.4-0.5-0.5
		c-0.2-0.2-0.3-0.4-0.5-0.5c-0.1-0.2-0.3-0.4-0.5-0.5c-0.1-0.2-0.3-0.4-0.5-0.5c-0.2-0.2-0.3-0.4-0.5-0.5c-0.1-0.2-0.3-0.4-0.5-0.5
		c-0.2-0.2-0.3-0.4-0.5-0.5c-0.2-0.2-0.3-0.4-0.5-0.5c-0.2-0.2-0.3-0.4-0.5-0.5c-0.1-0.2-0.3-0.4-0.5-0.5c-0.2-0.2-0.3-0.4-0.5-0.5
		c-0.2-0.3-0.5-0.5-0.7-0.8c-0.8-0.7-1.6-1.2-2.6-1.5c-1.1-0.4-2.1-0.7-2.9-0.7C422.3,0.1,421.2,0,420,0h-6.6
		c-1.1,0-2.2,0.1-3.3,0.2c-0.3,0-0.7,0-1,0c-0.3,0-0.7,0.1-1,0.1c-1.3,0.2-2.5,0.7-3.5,1.5c-1,0.8-1.7,1.6-2.2,2.6
		c-0.3,0.6-0.5,1.2-0.6,1.8c-0.2,0.8-0.3,1.5-0.3,2.2c-0.1,0.7-0.1,1.4-0.1,2.1v10.7c-0.1-0.1-0.3-0.3-0.4-0.4
		c-0.2-0.2-0.3-0.4-0.5-0.5c-0.2-0.2-0.3-0.4-0.5-0.5c-0.2-0.2-0.3-0.4-0.5-0.5c-0.2-0.2-0.3-0.4-0.5-0.5c-0.2-0.2-0.3-0.4-0.5-0.5
		c-0.2-0.2-0.3-0.4-0.5-0.5c-0.2-0.2-0.3-0.4-0.5-0.5c-0.2-0.2-0.3-0.4-0.5-0.5c-0.2-0.2-0.3-0.4-0.5-0.5c-0.2-0.2-0.3-0.4-0.5-0.5
		c-0.2-0.2-0.3-0.4-0.5-0.5c-0.2-0.2-0.3-0.4-0.5-0.5c-0.2-0.2-0.3-0.4-0.5-0.5c-0.2-0.2-0.3-0.4-0.5-0.5c-0.2-0.2-0.3-0.4-0.5-0.5
		c-0.2-0.2-0.3-0.4-0.5-0.5c-0.2-0.2-0.3-0.4-0.5-0.5c-0.2-0.2-0.3-0.4-0.5-0.5c-0.2-0.2-0.3-0.4-0.5-0.5c-0.2-0.2-0.3-0.4-0.5-0.5
		c-0.2-0.2-0.3-0.4-0.5-0.5c-0.2-0.2-0.3-0.4-0.5-0.5c-0.2-0.2-0.3-0.4-0.5-0.5c-0.2-0.2-0.3-0.4-0.5-0.5c-0.2-0.2-0.3-0.4-0.5-0.5
		c-0.2-0.2-0.3-0.4-0.5-0.5c-0.2-0.2-0.3-0.4-0.5-0.5c-0.2-0.2-0.3-0.4-0.5-0.5c-0.2-0.2-0.3-0.4-0.5-0.5c-0.2-0.2-0.3-0.4-0.5-0.5
		c-0.2-0.2-0.3-0.4-0.5-0.5c-0.2-0.2-0.3-0.4-0.5-0.5c-0.2-0.2-0.3-0.4-0.5-0.5c-0.6-0.7-1.3-1.2-2.1-1.5c-1-0.5-2.1-0.8-3.1-0.9
		c-2.1-0.1-4.2-0.2-6.2-0.2c-1.3,0-2.5,0-3.7,0.1c-1.2,0-2.4,0.1-3.6,0.2c-0.9,0.1-1.7,0.3-2.4,0.7c-0.7,0.4-1.3,0.8-1.9,1.3
		c-0.6,0.5-1,1.1-1.3,1.7c-0.3,0.6-0.5,1.3-0.5,1.9c-0.1,0.5-0.2,1-0.2,1.5l0,0.5c0,0.5,0,1.6,0,2.5v0.5c-0.1-0.1-0.3-0.3-0.4-0.4
		c-0.2-0.2-0.3-0.4-0.5-0.5c-0.2-0.2-0.3-0.4-0.5-0.5c-0.2-0.2-0.3-0.4-0.5-0.5c-0.2-0.2-0.3-0.4-0.5-0.5c-0.2-0.2-0.3-0.4-0.5-0.5
		c-0.2-0.2-0.3-0.4-0.5-0.5c-0.2-0.2-0.3-0.4-0.5-0.5c-0.2-0.2-0.3-0.4-0.5-0.5c-0.2-0.2-0.3-0.4-0.5-0.5c-0.2-0.2-0.3-0.4-0.5-0.5
		c-0.2-0.2-0.3-0.4-0.5-0.5c-0.2-0.2-0.3-0.4-0.5-0.5c-0.2-0.2-0.3-0.4-0.5-0.5c-0.2-0.2-0.3-0.4-0.5-0.5c-0.2-0.2-0.3-0.4-0.5-0.5
		c-0.6-0.7-1.3-1.2-2.1-1.5c-1-0.5-2.1-0.8-3.1-0.9c-2.1-0.1-4.2-0.2-6.2-0.2c-1.3,0-2.5,0-3.7,0.1c-1.2,0-2.4,0.1-3.6,0.2
		c-0.9,0.1-1.7,0.3-2.4,0.7c-0.7,0.4-1.3,0.8-1.9,1.3c-0.6,0.5-1,1.1-1.3,1.7c-0.3,0.6-0.5,1.3-0.5,1.9c-0.1,0.5-0.2,1-0.2,1.5
		l0,0.1l0,0c-0.1-0.2-0.3-0.4-0.5-0.5c-0.1-0.2-0.3-0.4-0.5-0.5c-0.1-0.2-0.3-0.4-0.5-0.5c-0.1-0.2-0.3-0.4-0.5-0.5
		c-0.1-0.2-0.3-0.4-0.5-0.5c-0.1-0.2-0.3-0.4-0.5-0.5c-0.1-0.2-0.3-0.4-0.5-0.5c-0.1-0.2-0.3-0.4-0.5-0.5c-0.1-0.2-0.3-0.4-0.5-0.5
		c-0.1-0.2-0.3-0.4-0.5-0.5c-0.1-0.2-0.3-0.4-0.5-0.5c-0.1-0.2-0.3-0.4-0.5-0.5c-0.3-0.4-0.7-0.7-1.3-0.7h-15.3
		c-0.8,0-1.5,0.7-1.5,1.5v10c-0.1-0.1-0.2-0.2-0.3-0.3c-0.2-0.2-0.3-0.4-0.5-0.5c-0.2-0.2-0.3-0.4-0.5-0.5c-0.2-0.2-0.3-0.4-0.5-0.5
		c-0.2-0.2-0.3-0.4-0.5-0.5c-0.2-0.2-0.3-0.4-0.5-0.5c-0.2-0.2-0.3-0.4-0.5-0.5c-0.2-0.2-0.3-0.4-0.5-0.5c-0.2-0.2-0.3-0.4-0.5-0.5
		c-0.2-0.2-0.3-0.4-0.5-0.5c-0.2-0.2-0.3-0.4-0.5-0.5c-0.2-0.2-0.3-0.4-0.5-0.5c-0.2-0.2-0.3-0.4-0.5-0.5c-0.2-0.2-0.3-0.4-0.5-0.5
		c-0.2-0.2-0.3-0.4-0.5-0.5c-0.2-0.2-0.3-0.4-0.5-0.5c-0.2-0.2-0.3-0.4-0.5-0.5c-0.6-0.7-1.3-1.2-2-1.5c-1.1-0.5-2.1-0.8-3-0.9
		c-0.4,0-0.9-0.1-1.3-0.1h-0.4c-0.4,0-1.5-0.1-2.3-0.1h-14.4c-0.8,0-1.5,0.7-1.5,1.5v4.5c-0.1-0.2-0.3-0.4-0.5-0.5
		c-0.1-0.2-0.3-0.4-0.5-0.5c-0.1-0.2-0.3-0.4-0.5-0.5c-0.1-0.2-0.3-0.4-0.5-0.5c-0.1-0.2-0.3-0.4-0.5-0.5c-0.1-0.2-0.3-0.4-0.5-0.5
		c-0.1-0.2-0.3-0.4-0.5-0.5c-0.1-0.2-0.3-0.4-0.5-0.5c-0.1-0.2-0.3-0.4-0.5-0.5c-0.1-0.2-0.3-0.4-0.5-0.5c-0.3-0.4-0.7-0.7-1.3-0.7
		h-20.7c-0.8,0-1.5,0.7-1.5,1.5V9c0,0.5,0.3,1.3,0.1,1.2c-0.2-0.2-0.3-0.4-0.5-0.5c-0.2-0.2-0.3-0.4-0.5-0.5
		c-0.2-0.2-0.3-0.4-0.5-0.5c-0.2-0.2-0.3-0.4-0.5-0.5c-0.2-0.2-0.3-0.4-0.5-0.5c-0.2-0.2-0.3-0.4-0.5-0.5c-0.2-0.2-0.3-0.4-0.5-0.5
		c-0.2-0.2-0.3-0.4-0.5-0.5c-0.2-0.2-0.3-0.4-0.5-0.5c-0.2-0.2-0.3-0.4-0.5-0.5c-0.2-0.2-0.3-0.4-0.5-0.5c-0.2-0.2-0.3-0.4-0.5-0.5
		c-0.6-0.7-1.3-1.2-2-1.5c-1.1-0.5-2.1-0.8-3-0.9c-0.4,0-0.9-0.1-1.3-0.1h-0.4c-0.4,0-1.5-0.1-2.3-0.1H209c-0.8,0-1.5,0.7-1.5,1.5
		v9.9l-0.2-0.2l-0.1-0.1c-0.1-0.2-0.3-0.3-0.4-0.5l-0.1-0.1c-0.1-0.2-0.3-0.3-0.4-0.5l-0.1-0.1c-0.1-0.2-0.3-0.3-0.4-0.5l-0.1-0.1
		c-0.1-0.2-0.3-0.3-0.4-0.5l-0.1-0.1c-0.1-0.2-0.3-0.3-0.4-0.5l-0.1-0.1c-0.1-0.2-0.3-0.3-0.4-0.5l-0.1-0.1
		c-0.1-0.2-0.3-0.3-0.4-0.5l-0.1-0.1c-0.1-0.2-0.3-0.3-0.4-0.5l-0.1-0.1c-0.1-0.2-0.3-0.3-0.4-0.5l-0.1-0.1
		c-0.1-0.2-0.3-0.3-0.4-0.5L202,7.1c-0.1-0.2-0.3-0.3-0.4-0.5l-0.1-0.1c-0.1-0.2-0.3-0.3-0.4-0.5L201,6c-0.1-0.2-0.3-0.3-0.4-0.5
		l-0.1-0.1c-0.1-0.2-0.3-0.3-0.4-0.5L199.9,5c-0.1-0.2-0.3-0.3-0.4-0.5l-0.1-0.1c-0.1-0.2-0.3-0.3-0.4-0.5l-0.1-0.1
		c-0.1-0.2-0.3-0.3-0.4-0.5l-0.2-0.1c-0.1-0.1-0.2-0.3-0.4-0.4c-1.2-1-2.5-1.6-3.8-1.8c-1.3-0.2-2.5-0.3-3.7-0.4
		c-1.2-0.1-2.5-0.1-3.7-0.1c-1.3,0-2.5,0-3.7,0.1c-1.2,0.1-2.4,0.2-3.6,0.4c-1.1,0.2-2.1,0.7-2.9,1.3c-0.8,0.6-1.5,1.3-1.9,2.1
		c-0.2,0.5-0.4,0.9-0.6,1.4c-0.1,0.4-0.2,0.9-0.3,1.3c-0.1,0.3-0.1,0.6-0.1,0.8c-0.1-0.2-0.3-0.3-0.4-0.4c-0.1-0.2-0.3-0.4-0.5-0.5
		c-0.1-0.2-0.3-0.4-0.5-0.5c-0.1-0.2-0.3-0.4-0.5-0.5c-0.1-0.2-0.3-0.4-0.5-0.5c-0.1-0.2-0.3-0.4-0.5-0.5c-0.1-0.2-0.3-0.4-0.5-0.5
		c-0.1-0.2-0.3-0.4-0.5-0.5c-0.1-0.2-0.3-0.4-0.5-0.5c-0.1-0.2-0.3-0.4-0.5-0.5c-0.1-0.2-0.3-0.4-0.5-0.5c-0.1-0.2-0.3-0.4-0.5-0.5
		c-0.3-0.4-0.7-0.7-1.3-0.7h-16.4c-0.8,0-1.5,0.7-1.5,1.5v23.1l-0.2-0.2c-0.1-0.2-0.3-0.4-0.5-0.5c-0.1-0.2-0.3-0.4-0.5-0.5
		c-0.1-0.2-0.3-0.4-0.5-0.5c-0.1-0.2-0.3-0.4-0.5-0.5c-0.1-0.2-0.3-0.4-0.5-0.5c-0.1-0.2-0.3-0.4-0.5-0.5c-0.1-0.2-0.3-0.4-0.5-0.5
		c-0.1-0.2-0.3-0.4-0.5-0.5c-0.1-0.2-0.3-0.4-0.5-0.5c-0.1-0.2-0.3-0.4-0.5-0.5c-0.1-0.2-0.3-0.4-0.5-0.5c-0.1-0.2-0.3-0.4-0.5-0.5
		c-0.1-0.2-0.3-0.4-0.5-0.5c-0.1-0.2-0.3-0.4-0.5-0.5c-0.1-0.2-0.3-0.4-0.5-0.5c-0.1-0.2-0.3-0.4-0.5-0.5c-0.1-0.2-0.3-0.4-0.5-0.5
		c-0.1-0.2-0.3-0.4-0.5-0.5c-0.1-0.2-0.3-0.4-0.5-0.5c-0.1-0.2-0.3-0.4-0.5-0.5c-0.1-0.2-0.3-0.4-0.5-0.5c-0.1-0.2-0.3-0.4-0.5-0.5
		c-0.1-0.2-0.3-0.4-0.5-0.5c-0.1-0.2-0.3-0.4-0.5-0.5c-0.1-0.2-0.3-0.4-0.5-0.5c-0.1-0.2-0.3-0.4-0.5-0.5c-0.1-0.2-0.3-0.4-0.5-0.5
		c-0.1-0.2-0.3-0.4-0.5-0.5c-0.1-0.2-0.3-0.4-0.5-0.5c-0.1-0.2-0.3-0.4-0.5-0.5c-0.1-0.2-0.3-0.4-0.5-0.5c-0.1-0.2-0.3-0.4-0.5-0.5
		c-0.1-0.2-0.3-0.4-0.5-0.5c-0.1-0.2-0.3-0.4-0.5-0.5c-0.1-0.2-0.3-0.4-0.5-0.5c-0.1-0.2-0.3-0.4-0.5-0.5c-0.1-0.2-0.3-0.4-0.5-0.5
		c-0.1-0.2-0.3-0.4-0.5-0.5c-0.1-0.2-0.3-0.4-0.5-0.5c-0.1-0.2-0.3-0.4-0.5-0.5c-0.1-0.2-0.3-0.4-0.5-0.5c-0.1-0.2-0.3-0.4-0.5-0.5
		c-0.1-0.2-0.3-0.4-0.5-0.5c-0.1-0.2-0.3-0.4-0.5-0.5c-0.1-0.2-0.3-0.4-0.5-0.5c-0.3-0.4-0.7-0.7-1.3-0.7h-12.7
		c-0.8,0-1.6,0.7-1.7,1.5l-0.4,3.3c0,0.3-0.1,0.7-0.1,1.1c-0.1-0.1-0.2-0.2-0.3-0.3c-0.1-0.2-0.3-0.4-0.5-0.5
		c-0.1-0.2-0.3-0.4-0.5-0.5c-0.1-0.2-0.3-0.4-0.5-0.5c-0.1-0.2-0.3-0.4-0.5-0.5c-0.1-0.2-0.3-0.4-0.5-0.5c-0.1-0.2-0.3-0.4-0.5-0.5
		c-0.1-0.2-0.3-0.4-0.5-0.5c-0.1-0.2-0.3-0.4-0.5-0.5c-0.1-0.2-0.3-0.4-0.5-0.5c-0.3-0.5-0.8-0.8-1.4-0.8H89c-0.8,0-1.5,0.7-1.5,1.5
		v12.1l0,0c-0.1-0.2-0.3-0.4-0.5-0.5c-0.1-0.2-0.3-0.4-0.5-0.5c-0.1-0.2-0.3-0.4-0.5-0.5c-0.1-0.2-0.3-0.4-0.5-0.5
		c-0.1-0.2-0.3-0.4-0.5-0.5c-0.1-0.2-0.3-0.4-0.5-0.5c-0.1-0.2-0.3-0.4-0.5-0.5c-0.1-0.2-0.3-0.4-0.5-0.5c-0.1-0.2-0.3-0.4-0.5-0.5
		c-0.1-0.2-0.3-0.4-0.5-0.5c-0.1-0.2-0.3-0.4-0.5-0.5c-0.1-0.2-0.3-0.4-0.5-0.5c-0.1-0.2-0.3-0.4-0.5-0.5c-0.1-0.2-0.3-0.4-0.5-0.5
		c-0.1-0.2-0.3-0.4-0.5-0.5c-0.1-0.2-0.3-0.4-0.5-0.5c-0.1-0.2-0.3-0.4-0.5-0.5c-0.1-0.2-0.3-0.4-0.5-0.5c-0.1-0.2-0.3-0.4-0.5-0.5
		c-0.1-0.2-0.3-0.4-0.5-0.5c-0.1-0.2-0.3-0.4-0.5-0.5c-0.1-0.2-0.3-0.4-0.5-0.5c-0.1-0.2-0.3-0.4-0.5-0.5C75.2,2.3,75,2.2,74.8,2
		c-0.3-0.5-0.8-0.8-1.4-0.8H61.9c-0.8,0-1.6,0.7-1.7,1.5l-1.1,9.2c-0.1-0.2-0.3-0.4-0.5-0.5c-0.1-0.2-0.3-0.4-0.5-0.5
		c-0.1-0.2-0.3-0.4-0.5-0.5c-0.1-0.2-0.3-0.4-0.5-0.5c-0.1-0.2-0.3-0.4-0.5-0.5C56.4,9,56.2,8.9,56,8.7c-0.1-0.2-0.3-0.4-0.5-0.5
		c-0.1-0.2-0.3-0.4-0.5-0.5c-0.1-0.2-0.3-0.4-0.5-0.5c-0.1-0.2-0.3-0.4-0.5-0.5c-0.1-0.2-0.3-0.4-0.5-0.5c-0.1-0.2-0.3-0.4-0.5-0.5
		c-0.1-0.2-0.3-0.4-0.5-0.5c-0.1-0.2-0.3-0.4-0.5-0.5c-0.1-0.2-0.3-0.4-0.5-0.5c-0.1-0.2-0.3-0.4-0.5-0.5c-0.1-0.2-0.3-0.4-0.5-0.5
		c-0.1-0.2-0.3-0.4-0.5-0.5c-0.1-0.2-0.3-0.4-0.5-0.5c-0.3-0.4-0.7-0.7-1.3-0.7H32.6c-0.8,0-1.5,0.7-1.5,1.5v4.5
		c-0.1-0.2-0.3-0.4-0.5-0.5c-0.1-0.2-0.3-0.4-0.5-0.5c-0.1-0.2-0.3-0.4-0.5-0.5C29.4,5.4,29.2,5.2,29,5c-0.1-0.2-0.3-0.4-0.5-0.5
		c-0.1-0.2-0.3-0.4-0.5-0.5c-0.1-0.2-0.3-0.4-0.5-0.5c-0.1-0.2-0.3-0.4-0.5-0.5c-0.1-0.2-0.3-0.4-0.5-0.5C26.2,2.2,26,2,25.8,1.9
		c-0.3-0.4-0.7-0.7-1.3-0.7h-23c-0.8,0-1.5,0.7-1.5,1.5v7.5c0,0.5,0.3,1,0.7,1.3c0.1,0.2,0.3,0.4,0.5,0.5c0.1,0.2,0.3,0.4,0.5,0.5
		C2,12.7,2.2,12.8,2.4,13c0.1,0.2,0.3,0.4,0.5,0.5C3,13.7,3.2,13.9,3.4,14c0.1,0.2,0.3,0.4,0.5,0.5c0.1,0.2,0.3,0.4,0.5,0.5
		c0.1,0.2,0.3,0.4,0.5,0.5c0.1,0.2,0.3,0.4,0.5,0.5c0.1,0.2,0.3,0.4,0.5,0.5c0.1,0.2,0.3,0.4,0.5,0.5c0.1,0.1,0.2,0.2,0.3,0.3v45.7
		c0,0.5,0.3,1,0.7,1.3c0.1,0.2,0.3,0.4,0.5,0.5c0.1,0.2,0.3,0.4,0.5,0.5c0.1,0.2,0.3,0.4,0.5,0.5c0.1,0.2,0.3,0.4,0.5,0.5
		c0.1,0.2,0.3,0.4,0.5,0.5c0.1,0.2,0.3,0.4,0.5,0.5c0.1,0.2,0.3,0.4,0.5,0.5c0.1,0.2,0.3,0.4,0.5,0.5c0.1,0.2,0.3,0.4,0.5,0.5
		c0.1,0.2,0.3,0.4,0.5,0.5c0.1,0.2,0.3,0.4,0.5,0.5c0.1,0.2,0.3,0.4,0.5,0.5c0.1,0.2,0.3,0.4,0.5,0.5c0.1,0.2,0.3,0.4,0.5,0.5
		c0.1,0.2,0.3,0.4,0.5,0.5c0.1,0.2,0.3,0.4,0.5,0.5c0.1,0.2,0.3,0.4,0.5,0.5c0.1,0.2,0.3,0.4,0.5,0.5c0.1,0.2,0.3,0.4,0.5,0.5
		c0.1,0.2,0.3,0.4,0.5,0.5c0.1,0.2,0.3,0.4,0.5,0.5c0.1,0.2,0.3,0.4,0.5,0.5c0.1,0.2,0.3,0.4,0.5,0.5c0.1,0.2,0.3,0.4,0.5,0.5
		c0.1,0.2,0.3,0.4,0.5,0.5c0.1,0.2,0.3,0.4,0.5,0.5c0.1,0.2,0.3,0.4,0.5,0.5c0.1,0.2,0.3,0.4,0.5,0.5c0.1,0.2,0.3,0.4,0.5,0.5
		c0.1,0.2,0.3,0.4,0.5,0.5c0.1,0.2,0.3,0.4,0.5,0.5c0.1,0.2,0.3,0.4,0.5,0.5c0.1,0.2,0.3,0.4,0.5,0.5c0.1,0.2,0.3,0.4,0.5,0.5
		c0.1,0.2,0.3,0.4,0.5,0.5c0.1,0.2,0.3,0.4,0.5,0.5c0.1,0.2,0.3,0.4,0.5,0.5c0.1,0.2,0.3,0.4,0.5,0.5c0.1,0.2,0.3,0.4,0.5,0.5
		c0.1,0.2,0.3,0.4,0.5,0.5c0.1,0.2,0.3,0.4,0.5,0.5c0.1,0.2,0.3,0.4,0.5,0.5c0.1,0.2,0.3,0.4,0.5,0.5c0.1,0.2,0.3,0.4,0.5,0.5
		c0.1,0.2,0.3,0.4,0.5,0.5c0.1,0.2,0.3,0.4,0.5,0.5c0.1,0.2,0.3,0.4,0.5,0.5c0.1,0.2,0.3,0.4,0.5,0.5c0.1,0.2,0.3,0.4,0.5,0.5
		c0.1,0.2,0.3,0.4,0.5,0.5c0.1,0.2,0.3,0.4,0.5,0.5c0.1,0.2,0.3,0.4,0.5,0.5c0.1,0.2,0.3,0.4,0.5,0.5c0.1,0.2,0.3,0.4,0.5,0.5
		c0.1,0.2,0.3,0.4,0.5,0.5c0.1,0.2,0.3,0.4,0.5,0.5c0.1,0.2,0.3,0.4,0.5,0.5c0.1,0.2,0.3,0.4,0.5,0.5c0.1,0.2,0.3,0.4,0.5,0.5
		c0.1,0.2,0.3,0.4,0.5,0.5c0.1,0.2,0.3,0.4,0.5,0.5c0.1,0.2,0.3,0.4,0.5,0.5c0.1,0.2,0.3,0.4,0.5,0.5c0.1,0.2,0.3,0.4,0.5,0.5
		c0.3,0.4,0.7,0.7,1.3,0.7H52c0.8,0,1.5-0.7,1.5-1.5V79.1c0.1,0.2,0.3,0.3,0.4,0.4c0.1,0.2,0.3,0.4,0.5,0.5c0.1,0.2,0.3,0.4,0.5,0.5
		c0.1,0.2,0.3,0.4,0.5,0.5c0.1,0.2,0.3,0.4,0.5,0.5c0.1,0.2,0.3,0.4,0.5,0.5c0.1,0.2,0.3,0.4,0.5,0.5c0.1,0.2,0.3,0.4,0.5,0.5
		c0.1,0.2,0.3,0.4,0.5,0.5c0.1,0.2,0.3,0.4,0.5,0.5c0.1,0.2,0.3,0.4,0.5,0.5c0.1,0.2,0.3,0.4,0.5,0.5c0.1,0.2,0.3,0.4,0.5,0.5
		c0.1,0.2,0.3,0.4,0.5,0.5c0.1,0.2,0.3,0.4,0.5,0.5c0.1,0.2,0.3,0.4,0.5,0.5c0.1,0.2,0.3,0.4,0.5,0.5c0.1,0.2,0.3,0.4,0.5,0.5
		c0.1,0.2,0.3,0.4,0.5,0.5c0.1,0.2,0.3,0.4,0.5,0.5c0.1,0.2,0.3,0.4,0.5,0.5c0.1,0.2,0.3,0.4,0.5,0.5c0.1,0.2,0.3,0.4,0.5,0.5
		c0.3,0.4,0.7,0.7,1.3,0.7h15.3c0.8,0,1.5-0.7,1.5-1.5v-3.6c0.1,0.1,0.2,0.2,0.3,0.2c0.1,0.2,0.3,0.4,0.5,0.5
		c0.1,0.2,0.3,0.4,0.5,0.5c0.1,0.2,0.3,0.4,0.5,0.5c0.1,0.2,0.3,0.4,0.5,0.5c0.1,0.2,0.3,0.4,0.5,0.5c0.1,0.2,0.3,0.4,0.5,0.5
		c0.1,0.2,0.3,0.4,0.5,0.5c0.1,0.2,0.3,0.4,0.5,0.5c0.2,0.4,0.6,0.7,1.2,0.7h8.1c0.8,0,1.5-0.7,1.6-1.5l0.2-2.8
		c0-0.7,0.1-1.6,0.2-2.4l0.2,0.2c0.1,0.2,0.3,0.4,0.5,0.5c0.1,0.2,0.3,0.4,0.5,0.5c0.1,0.2,0.3,0.4,0.5,0.5c0.1,0.2,0.3,0.4,0.5,0.5
		c0.1,0.2,0.3,0.4,0.5,0.5c0.1,0.2,0.3,0.4,0.5,0.5c0.1,0.2,0.3,0.4,0.5,0.5c0.1,0.2,0.3,0.4,0.5,0.5c0.1,0.2,0.3,0.4,0.5,0.5
		c0.1,0.2,0.3,0.4,0.5,0.5c0.1,0.2,0.3,0.4,0.5,0.5c0.3,0.5,0.8,0.8,1.4,0.8h8c0.8,0,1.5,0,1.5-0.1c0,0-0.1-0.7-0.2-1.5l-0.7-5.7
		c0.1,0.1,0.2,0.2,0.3,0.2c0.1,0.2,0.3,0.4,0.5,0.5c0.1,0.2,0.3,0.4,0.5,0.5c0.1,0.2,0.3,0.4,0.5,0.5c0.1,0.2,0.3,0.4,0.5,0.5
		c0.1,0.2,0.3,0.4,0.5,0.5c0.1,0.2,0.3,0.4,0.5,0.5c0.1,0.2,0.3,0.4,0.5,0.5c0.1,0.2,0.3,0.4,0.5,0.5c0.1,0.2,0.3,0.4,0.5,0.5
		c0.1,0.2,0.3,0.4,0.5,0.5c0.1,0.2,0.3,0.4,0.5,0.5c0.1,0.2,0.3,0.4,0.5,0.5c0.3,0.4,0.7,0.7,1.3,0.7h7.6c0.8,0,1.5-0.7,1.5-1.5
		v-3.9c0.1,0.1,0.2,0.3,0.4,0.3c0.1,0.2,0.3,0.4,0.5,0.5c0.1,0.2,0.3,0.4,0.5,0.5c0.1,0.2,0.3,0.4,0.5,0.5c0.1,0.2,0.3,0.4,0.5,0.5
		c0.1,0.2,0.3,0.4,0.5,0.5c0.1,0.2,0.3,0.4,0.5,0.5c0.1,0.2,0.3,0.4,0.5,0.5c0.1,0.2,0.3,0.4,0.5,0.5c0.3,0.5,0.9,0.8,1.4,0.8h3.9
		c0.8,0,1.6-0.6,1.7-1.4c0.1-0.8,0.3-2.1,0.4-2.9l0-0.2l0.2,0.1c0.1,0.2,0.3,0.4,0.5,0.5c0.1,0.2,0.3,0.4,0.5,0.5
		c0.1,0.2,0.3,0.4,0.5,0.5c0.1,0.2,0.3,0.4,0.5,0.5c0.1,0.2,0.3,0.4,0.5,0.5c0.1,0.2,0.3,0.4,0.5,0.5c0.1,0.2,0.3,0.4,0.5,0.5
		c0.3,0.4,0.7,0.7,1.3,0.7h9v0c0,0,0.1-0.6,0.1-1.5V74l0.2,0.2c0.1,0.2,0.3,0.4,0.5,0.5c0.1,0.2,0.3,0.4,0.5,0.5
		c0.1,0.2,0.3,0.4,0.5,0.5c0.1,0.2,0.3,0.4,0.5,0.5c0.1,0.2,0.3,0.4,0.5,0.5c0.1,0.2,0.3,0.4,0.5,0.5c0.1,0.2,0.3,0.4,0.5,0.5
		c0.1,0.2,0.3,0.4,0.5,0.5c0.1,0.2,0.3,0.4,0.5,0.5c0.1,0.2,0.3,0.4,0.5,0.5c0.1,0.2,0.3,0.4,0.5,0.5c0.1,0.2,0.3,0.4,0.5,0.5
		c0.1,0.2,0.3,0.4,0.5,0.5c0.1,0.2,0.3,0.4,0.5,0.5c0.1,0.2,0.3,0.4,0.5,0.5c0.1,0.2,0.3,0.4,0.5,0.5c0.1,0.2,0.3,0.4,0.5,0.5
		c0.1,0.2,0.3,0.4,0.5,0.5c0.1,0.2,0.3,0.4,0.5,0.5c0.1,0.2,0.3,0.4,0.5,0.5c0.1,0.2,0.3,0.4,0.5,0.5c0.1,0.2,0.3,0.4,0.5,0.5
		c0.1,0.2,0.3,0.4,0.5,0.5c0.1,0.2,0.3,0.4,0.5,0.5c0.1,0.2,0.3,0.4,0.5,0.5c0.1,0.2,0.3,0.4,0.5,0.5c0.1,0.2,0.3,0.4,0.5,0.5
		c0.1,0.2,0.3,0.4,0.5,0.5c0.1,0.2,0.3,0.4,0.5,0.5c0.1,0.2,0.3,0.4,0.5,0.5c0.1,0.2,0.3,0.4,0.5,0.5c0.1,0.2,0.3,0.4,0.5,0.5
		c0.1,0.2,0.3,0.4,0.5,0.5c0.1,0.2,0.3,0.4,0.5,0.5c0.1,0.2,0.3,0.4,0.5,0.5c0.1,0.2,0.3,0.4,0.5,0.5c0.1,0.2,0.3,0.4,0.5,0.5
		c0.1,0.2,0.3,0.4,0.5,0.5c0.1,0.2,0.3,0.4,0.5,0.5c0.1,0.2,0.3,0.4,0.5,0.5c0.1,0.2,0.3,0.4,0.5,0.5c0.1,0.2,0.3,0.4,0.5,0.5
		c0.1,0.2,0.3,0.4,0.5,0.5c0.1,0.2,0.3,0.4,0.5,0.5c0.1,0.2,0.3,0.4,0.5,0.5c0.3,0.4,0.7,0.7,1.3,0.7h9.4c0.8,0,1.5-0.7,1.5-1.5
		V74.4l0.2,0.2c0.2,0.2,0.3,0.4,0.5,0.5c0.2,0.2,0.3,0.4,0.5,0.5c0.2,0.2,0.3,0.4,0.5,0.5c0.2,0.2,0.3,0.4,0.5,0.5
		c0.2,0.2,0.3,0.4,0.5,0.5c0.2,0.2,0.3,0.4,0.5,0.5c0.2,0.2,0.3,0.4,0.5,0.5c0.2,0.2,0.3,0.4,0.5,0.5c0.2,0.2,0.3,0.4,0.5,0.5
		c0.2,0.2,0.3,0.4,0.5,0.5c0.2,0.2,0.3,0.4,0.5,0.5c0.2,0.2,0.3,0.4,0.5,0.5c0.2,0.2,0.3,0.4,0.5,0.5c0.2,0.2,0.3,0.4,0.5,0.5
		c0.2,0.2,0.3,0.4,0.5,0.5c0.2,0.2,0.3,0.4,0.5,0.5c0.2,0.2,0.3,0.4,0.5,0.5c0.2,0.2,0.3,0.4,0.5,0.5c0.2,0.2,0.3,0.4,0.5,0.5
		c0.2,0.2,0.3,0.4,0.5,0.5c0.2,0.2,0.3,0.4,0.5,0.5c0.2,0.2,0.3,0.4,0.5,0.5c0.2,0.2,0.3,0.4,0.5,0.5c0.2,0.2,0.3,0.4,0.5,0.5
		c0.2,0.2,0.3,0.4,0.5,0.5c0.2,0.2,0.3,0.4,0.5,0.5c0.2,0.2,0.3,0.4,0.5,0.5c0.2,0.2,0.3,0.4,0.5,0.5c1,1.1,2.1,1.8,3.3,2.1
		c1,0.2,2,0.4,3.2,0.5c0.9,0,1.8,0.1,2.8,0.1h1.2h1.7c1.1,0,2.2,0,3.3-0.1c1.1,0,2.2-0.1,3.2-0.2c1.4-0.2,2.7-0.8,3.7-1.7
		c1-0.9,1.7-2,2-3.1c0.4-1.5,0.5-2.9,0.5-2.9c0-0.1,0-0.2,0-0.3l0.1,0c0.1,0.2,0.3,0.4,0.5,0.5c0.1,0.2,0.3,0.4,0.5,0.5
		c0.1,0.2,0.3,0.4,0.5,0.5c0.1,0.2,0.3,0.4,0.5,0.5c0.1,0.2,0.3,0.4,0.5,0.5c0.1,0.2,0.3,0.4,0.5,0.5c0.1,0.2,0.3,0.4,0.5,0.5
		c0.1,0.2,0.3,0.4,0.5,0.5c0.1,0.2,0.3,0.4,0.5,0.5c0.1,0.2,0.3,0.4,0.5,0.5c0.1,0.2,0.3,0.4,0.5,0.5c0.1,0.2,0.3,0.4,0.5,0.5
		c0.1,0.2,0.3,0.4,0.5,0.5c0.1,0.2,0.3,0.4,0.5,0.5c0.3,0.4,0.7,0.7,1.3,0.7h8.7c0.8,0,1.5-0.7,1.5-1.5v-3l0.1,0.1
		c0.1,0.2,0.3,0.4,0.5,0.5c0.1,0.2,0.3,0.4,0.5,0.5c0.1,0.2,0.3,0.4,0.5,0.5c0.1,0.2,0.3,0.4,0.5,0.5c0.1,0.2,0.3,0.4,0.5,0.5
		c0.1,0.2,0.3,0.4,0.5,0.5c0.1,0.2,0.3,0.4,0.5,0.5c0.3,0.4,0.7,0.7,1.3,0.7h10.3c0.1,0,0.1-0.7,0.1-1.5V81l0.2,0.1
		c0.1,0.2,0.3,0.4,0.5,0.5c0.1,0.2,0.3,0.4,0.5,0.5c0.1,0.2,0.3,0.4,0.5,0.5c0.1,0.2,0.3,0.4,0.5,0.5c0.1,0.2,0.3,0.4,0.5,0.5
		c0.1,0.2,0.3,0.4,0.5,0.5c0.1,0.2,0.3,0.4,0.5,0.5c0.1,0.2,0.3,0.4,0.5,0.5c0.1,0.2,0.3,0.4,0.5,0.5c0.1,0.2,0.3,0.4,0.5,0.5
		c0.1,0.2,0.3,0.4,0.5,0.5c0.1,0.2,0.3,0.4,0.5,0.5c0.1,0.2,0.3,0.4,0.5,0.5c0.1,0.2,0.3,0.4,0.5,0.5c0.1,0.2,0.3,0.4,0.5,0.5
		c0.1,0.2,0.3,0.4,0.5,0.5c0.1,0.2,0.3,0.4,0.5,0.5c0.1,0.2,0.3,0.4,0.5,0.5c0.1,0.2,0.3,0.4,0.5,0.5c0.3,0.4,0.7,0.7,1.3,0.7h8.7
		c0.8,0,1.5-0.7,1.5-1.5V79.9l0.2,0.2c0.1,0.2,0.3,0.4,0.5,0.5c0.1,0.2,0.3,0.4,0.5,0.5c0.1,0.2,0.3,0.4,0.5,0.5
		c0.1,0.2,0.3,0.4,0.5,0.5c0.1,0.2,0.3,0.4,0.5,0.5c0.1,0.2,0.3,0.4,0.5,0.5c0.1,0.2,0.3,0.4,0.5,0.5c0.1,0.2,0.3,0.4,0.5,0.5
		c0.1,0.2,0.3,0.4,0.5,0.5c0.1,0.2,0.3,0.4,0.5,0.5c0.1,0.2,0.3,0.4,0.5,0.5c0.1,0.2,0.3,0.4,0.5,0.5c0.1,0.2,0.3,0.4,0.5,0.5
		c0.1,0.2,0.3,0.4,0.5,0.5c0.1,0.2,0.3,0.4,0.5,0.5c0.1,0.2,0.3,0.4,0.5,0.5c0.1,0.2,0.3,0.4,0.5,0.5c0.1,0.2,0.3,0.4,0.5,0.5
		c0.1,0.2,0.3,0.4,0.5,0.5c0.1,0.2,0.3,0.4,0.5,0.5c0.1,0.2,0.3,0.4,0.5,0.5c0.3,0.4,0.7,0.7,1.3,0.7h8.7c0.8,0,1.5-0.7,1.5-1.5v-3
		l0.1,0.1c0.1,0.2,0.3,0.4,0.5,0.5c0.1,0.2,0.3,0.4,0.5,0.5c0.1,0.2,0.3,0.4,0.5,0.5c0.1,0.2,0.3,0.4,0.5,0.5
		c0.1,0.2,0.3,0.4,0.5,0.5c0.1,0.2,0.3,0.4,0.5,0.5c0.1,0.2,0.3,0.4,0.5,0.5c0.3,0.4,0.7,0.7,1.3,0.7h10.3c0.1,0,0.1-0.7,0.1-1.5
		v-5.9c0.1,0.1,0.3,0.3,0.4,0.4c0.1,0.2,0.3,0.4,0.5,0.5c0.1,0.2,0.3,0.4,0.5,0.5c0.1,0.2,0.3,0.4,0.5,0.5c0.1,0.2,0.3,0.4,0.5,0.5
		c0.1,0.2,0.3,0.4,0.5,0.5c0.1,0.2,0.3,0.4,0.5,0.5c0.1,0.2,0.3,0.4,0.5,0.5c0.1,0.2,0.3,0.4,0.5,0.5c0.1,0.2,0.3,0.4,0.5,0.5
		c0.1,0.2,0.3,0.4,0.5,0.5c0.1,0.2,0.3,0.4,0.5,0.5c0.1,0.2,0.3,0.4,0.5,0.5c0.3,0.4,0.7,0.7,1.3,0.7h15.3c0.8,0,1.5-0.7,1.5-1.5
		v-6.1c0-0.5-0.3-1-0.7-1.3c-0.1-0.2-0.3-0.4-0.5-0.5c-0.1-0.2-0.3-0.4-0.5-0.5c-0.1-0.2-0.3-0.4-0.5-0.5c-0.1-0.2-0.3-0.4-0.5-0.5
		c-0.1-0.2-0.3-0.4-0.5-0.5c-0.1-0.2-0.3-0.4-0.5-0.5c-0.1-0.2-0.3-0.4-0.5-0.5c-0.1-0.2-0.3-0.4-0.5-0.5c-0.1-0.2-0.3-0.4-0.5-0.5
		c-0.1-0.2-0.3-0.4-0.5-0.5c-0.1-0.2-0.2-0.3-0.4-0.4V75l0.1,0.1c0.2,0.2,0.3,0.4,0.5,0.5c0.2,0.2,0.3,0.4,0.5,0.5
		c0.2,0.2,0.3,0.4,0.5,0.5c0.2,0.2,0.3,0.4,0.5,0.5c0.2,0.2,0.3,0.4,0.5,0.5c0.2,0.2,0.3,0.4,0.5,0.5c0.2,0.2,0.3,0.4,0.5,0.5
		c0.2,0.2,0.3,0.4,0.5,0.5c0.2,0.2,0.3,0.4,0.5,0.5c0.2,0.2,0.3,0.4,0.5,0.5c0.2,0.2,0.3,0.4,0.5,0.5c0.2,0.2,0.3,0.4,0.5,0.5
		c0.2,0.2,0.3,0.4,0.5,0.5c0.2,0.2,0.3,0.4,0.5,0.5c0.2,0.2,0.3,0.4,0.5,0.5c0.2,0.2,0.3,0.4,0.5,0.5c0.2,0.2,0.3,0.4,0.5,0.5
		c0.2,0.2,0.3,0.4,0.5,0.5c0.2,0.2,0.3,0.4,0.5,0.5c0.2,0.2,0.3,0.4,0.5,0.5c0.2,0.2,0.3,0.4,0.5,0.5c0.2,0.2,0.3,0.4,0.5,0.5
		c0.2,0.2,0.3,0.4,0.5,0.5c0.2,0.2,0.3,0.4,0.5,0.5c0.2,0.2,0.3,0.4,0.5,0.5c0.2,0.2,0.3,0.4,0.5,0.5c0.2,0.2,0.3,0.4,0.5,0.5
		c0.3,0.3,0.6,0.6,1,0.9c0.9,0.6,1.7,1,2.6,1.2c1,0.2,1.9,0.4,2.7,0.4c0.8,0,1.6,0.1,2.5,0.1h1h7.4c0.3,0,0.7,0,1.1-0.1
		c1.1-0.1,2.1-0.4,3-0.9c0.9-0.5,1.6-1.2,2.1-2c0.4-0.5,0.7-1.1,0.9-1.7c0.2-0.6,0.3-1.2,0.4-1.7c0.1-0.7,0.2-1.4,0.2-2.2l0-0.7
		c0-0.4,0-1,0-1.6c0.2,0.2,0.3,0.3,0.5,0.5c0.2,0.2,0.3,0.4,0.5,0.5c0.2,0.2,0.3,0.4,0.5,0.5c0.2,0.2,0.3,0.4,0.5,0.5
		c0.2,0.2,0.3,0.4,0.5,0.5c0.2,0.2,0.3,0.4,0.5,0.5c0.2,0.2,0.3,0.4,0.5,0.5c0.2,0.2,0.3,0.4,0.5,0.5c0.2,0.2,0.3,0.4,0.5,0.5
		c0.2,0.2,0.3,0.4,0.5,0.5c0.2,0.2,0.3,0.4,0.5,0.5c0.2,0.2,0.3,0.4,0.5,0.5c0.2,0.2,0.3,0.4,0.5,0.5c0.2,0.2,0.3,0.4,0.5,0.5
		c0.2,0.2,0.3,0.4,0.5,0.5c0.2,0.2,0.3,0.4,0.5,0.5c0.3,0.3,0.6,0.6,1,0.9c0.9,0.6,1.7,1,2.6,1.2c1,0.2,1.9,0.4,2.7,0.4
		c0.8,0,1.6,0.1,2.5,0.1h1h7.4c0.3,0,0.7,0,1.1-0.1c1.1-0.1,2.1-0.4,3-0.9c0.9-0.5,1.6-1.2,2.1-2c0.4-0.5,0.7-1.1,0.9-1.7
		c0.2-0.6,0.3-1.2,0.4-1.7c0.1-0.5,0.1-0.9,0.2-1.4h0.2v0.6h0.5v0.6h0.5v0.5h0.5v0.6h0.5v0.6h0.5v0.6h0.5v0.6h0.5v0.6h0.5V89h0.5
		v0.6h0.5v0.6h0.5v0.6h0.5v0.6h0.5v0.6h0.5v0.6h0.5v0.6h0.5v0.6h0.5V94h0.5v0.6h0.5v0.6h0.5v0.6h0.5v0.6h0.5v0.6h0.5v0.6h0.5v0.6
		h0.5v0.6h0.5V99h0.5v0.6h29.9l0.1-1.6v-10L462.2,87.9z M34.5,19.2c-0.1,0.3-0.1,0.7-0.2,1c-0.3,0.1-0.3,0.1-0.7,0.2
		c-0.2-0.2-2.6-0.3-3.1-0.2v0.2h-1v0.2h-0.3v0.2h-0.7v0.2c-0.4,0.3-0.5,0.6-0.5,1.4c-0.4,0.4,0.1,0.8,0,1.6c0,0.2-0.2-0.1-0.2,0.2
		h0.2v0.9h-0.2c0.1,0.2,0.1,0.3,0.2,0.5v0.2h-0.2v1.2h0.2c0,0.1-0.3,0.5-0.2,0.9h0.2v0.2h-0.2c0.1,0.2,0.1,0.3,0.2,0.5h-0.2
		c-0.1,1.4-0.1,2.8-0.2,4.2h0.2v0.2c-0.2,0.4-0.3,1.4-0.2,2.1h0.2c0,0.2-0.1-0.1-0.2,0.2v0.7h-0.2v0.2h0.2c0.1,0.5-0.1,0.8-0.2,1
		h0.2c0.1,0.4-0.1,0.6-0.2,0.9c0,0.1,0.2,0,0.2,0.5h-0.2v0.2h0.2v2.1h-0.2c0.1,0.2,0.1,0.3,0.2,0.5v8.5h0.2
		c-0.1,0.1-0.1,0.2-0.2,0.3h0.2v0.2h-0.2c-0.1,0.6,0.2,1.2,0.2,1.2c-0.1,0.5-0.1,0.9-0.2,1.4h0.2V56h0.2v0.7h-0.2v0.2h0.2v1.6H28
		v0.7h-0.2v0.2H28v2.8c0,0-0.3,0.1-0.2,0.5H28v1.7h0.2c0,0.1-0.3,0.5-0.2,0.9h0.2c0.1,0.6,0.1,1.3,0.2,1.9c0,0-0.3,0.1-0.2,0.5h0.2
		v1.2h-0.2c0.1,0.6,0.1,1.3,0.2,1.9c-0.3,0.2-0.8,0.4-1.2,0.5c0.1,0.1,0.1,0.2,0.2,0.3h-0.2c-0.2,0.6-0.4,0.8-0.5,1.4
		c-2.4,0.5-6.1,0-7.7-0.3c-0.7-0.2-0.8,0.1-1.4-0.2H17v-0.2c-0.2-0.2-0.3-0.3-0.3-0.7c-0.4-0.1-0.3-0.1-0.5-0.3
		c-0.6-0.6-0.2-2.9-0.2-4.2c-0.1-1.3-0.2-2.5-0.3-3.8h0.2v-2.9H16V60h0.2c0.1-0.4-0.2-0.5-0.2-0.5c0.1-0.6,0.1-1.2,0.2-1.7H16
		c0.1-0.2,0.1-0.5,0.2-0.7c0-0.7-0.1-1.4-0.1-2.1l0.1-0.1c0.3,0.2,1.4-0.1,1.5-0.4c-0.2,0-0.3-0.2-0.4-0.3c0.3-0.4,0.7-0.7,0.9-1.1
		c0.2-0.3,0.2-0.3,0.3-0.5c0-0.2-0.3-0.5-0.3-0.8c0.2-0.8,1.9-1.2,0.9-2.3c0.2-0.4-0.1-0.8,0.4-1.2c-0.2-0.3-0.9-0.1-1.3,0
		c-0.1,0.2-0.2,0.4-0.4,0.6l-0.1,0.1c-0.3-0.2-0.6-0.3-0.9-0.6c-0.3-0.2-0.3-0.5-0.4-0.8c-0.2-0.3-0.4-0.4-0.5-0.4
		c0-0.1,0-0.3,0.1-0.4c-0.2-0.8-0.3-2.5-0.2-3.6c0-0.2,0.3-0.3,0.2-0.7h-0.2c-0.1-0.6,0.1-1.4,0.2-1.7v-1.4h-0.2
		c-0.2-0.7,0.1-1.8,0.2-2.3c-0.1-0.2-0.1-0.5-0.1-0.8c0.9-0.2,1.5-0.6,1.3-1.3c-0.1-0.4-0.4-0.4-0.7-0.5c0,0-0.6-0.4-0.7-0.4l-0.1,0
		c0-0.3,0.2-0.4,0.2-0.4v-0.2h-0.2V32h-0.2c0.1-0.2,0.1-0.3,0.2-0.5h-0.2c0,0,0.3-0.6,0.2-1h-0.2c0-0.3,0.2-0.3,0.2-0.3v-1.7h0.2
		v-2.9c0.4-1.3,0.4-3.3,0.2-4.7c-0.7-0.1-1-0.4-1.6-0.7v-0.2c-0.4-0.1-0.5,0.2-0.5,0.2c-1-0.1-2-0.1-3-0.2c-0.1-0.2-0.2-0.3-0.3-0.5
		H10C10,19.2,9.9,19.1,9.9,19c-0.2-0.1-0.3-0.1-0.5-0.2C9.2,17,9,15.1,8.8,13.3c0.3-0.9,0.5-2.1,0.9-3h0.2v-0.2h0.7V10h0.3V9.8h2.8
		c0.2,0-0.1-0.2,0.2-0.2c0.5,0.2,0.9,0.3,1.4,0.5V10H17V9.8h2.1c1.7,0,3.9-0.2,5.2,0.2c0.9-0.1,1.9-0.1,2.8-0.2V10h1.2V9.8h0.2V10
		h1.1V9.8H30V9.6c0.4-0.1,0.7,0.2,0.9,0.2V9.6h0.5V9.5c0.5,0.1,1.1,0.1,1.6,0.2V10c0.2-0.1,0.5-0.1,0.7-0.2V9.6
		c0.9-0.2,0.7,1.2,0.7,1.9h0.2c0.1,0.3-0.2,0.3-0.2,0.3v2.4c0.1,1.6,0.2,3.2,0.3,4.9L34.5,19.2z M58.1,16.8c-0.2,0.7,0,0.9-0.5,1.2
		c-0.9,0.9-4.5,0.5-5.9,1v0.5c-0.2,0.1-0.5,0.1-0.7,0.2c0,1.6,0.2,3.7-0.2,5c-0.1,0.5,0.2,0.9,0.2,1h-0.2v1.9h-0.2v0.2h0.2
		c0,0.3-0.2,0.3-0.2,0.3v0.2h0.2v0.2h-0.2c0,0,0.2,0.4,0.2,0.7h0.5v0.3h-0.2c0.1,0.2,0.1,0.3,0.2,0.5h-0.3v0.2
		c0.9,0.1,1.7,0.1,2.6,0.2v0.2c0.3-0.1,0.7-0.1,1-0.2v0.2c1,0.3,2.5-0.2,3.1,0.3h0.2v0.5c-0.6,0.7,0.1,1.4-0.2,2.6h-0.2v2.6h0.2v0.3
		h0.2v0.5h0.2c-0.1,0.6-0.1,1.2-0.2,1.7c-0.9,0.5-2.1,0.4-3.5,0.3c-0.4-0.4-2.2-0.2-3-0.2c-0.1,0.2,0,0-0.2,0.2
		c-0.1,0.3-0.1,0.7-0.2,1c0,0,0.2,0.1,0.2,0.3h-0.2v1c0.4,1.5,0.2,5.4,0.2,7.8v1.7h-0.2v0.2h0.2v1.4h-0.2c-0.4,1.4,0.3,2.5,0.3,3.6
		h4V57H56v0.2c0.5,0.2,1-0.3,1.2-0.2v0.2c0.7,0.6,0.3,2.8,0.2,3.6h0.2V61h-0.2c-0.1,0.4,0.2,0.5,0.2,0.5c-0.1,0.2-0.1,0.3-0.2,0.5
		h0.2v2.1c0,0,0.2,0.1,0.2,0.3h-0.2V65h-0.2v0.2h-0.9V65h-1v0.2h-0.9V65c-0.6-0.2-1.5,0.1-1.9,0.2h-3.1c0,0,0-0.2-0.3-0.2
		c-0.4,0-0.3,0.2-0.3,0.2h-2.6V65c-0.7-0.2-1.5,0.2-1.9,0.2V65c-1-0.2-2.9,0.3-3.3,0c-0.8-0.2-0.6-0.4-0.9-1h-0.2v-0.3h-0.2
		c0.1-0.3,0.1-0.6,0.2-0.9c0,0-0.2,0-0.2-0.3c0,0,0.2-0.1,0.2-0.3h-0.2v-0.7h-0.2c0-0.1,0.2-0.4,0.2-0.7v-2.1c0,0-0.3-0.1-0.2-0.5
		c0.1-0.2,0.1,0.1,0.2-0.2v-1.2h0.2c0.1-0.4-0.2-0.5-0.2-0.5c-0.2-0.9,0-2.7,0.2-3.3v-3.3h0.2c0.1-0.3-0.2-0.3-0.2-0.3v-1.6h-0.2
		v-0.2h0.2v-2.4h-0.2v-3.1c0,0-0.2,0-0.2-0.3h0.2v-0.2h-0.2c0-0.3,0.2-0.3,0.2-0.3v-1c-0.1-0.2-0.2,0.1-0.2-0.2h0.2
		c0-0.1-0.3-0.5-0.2-0.9c0.2-0.8,0.4-3.3,0.2-4.3h-0.2c0.1-0.3,0.1-0.6,0.2-0.9h-0.2c-0.1-0.5,0-2.4,0-3.5v-2.3
		c-0.5-1.8-0.2-4.7-0.2-6.8v-2.8c0,0-0.3-0.1-0.2-0.5h0.2v-2.1c0-0.2,0.2,0.1,0.2-0.2h-0.2c-0.1-0.6,0.1-0.8,0.2-1.2
		c0.1-1.2-0.1-2.7,0-3.5c0.4-0.2,0.3-0.3,0.9-0.3v-0.5c0.4-0.2,0.6-0.3,1.4-0.3c0.5,0.4,4.3,0.2,4.9,0c0.5-0.1,1-0.1,1.6-0.2
		c0,0,0,0.2,0.3,0.2V9.6c0.4,0.1,0.8,0.1,1.2,0.2V9.6h1.4c0.2,0.1,0.5,0.1,0.7,0.2V9.6c1.2-0.3,2.6,0.1,3.3,0.3h0.9v0.2h0.3v0.2
		c0.7,0.3,0.6-0.3,1.1,0.3h0.2v3.8c0.3,0.3,0,1,0.2,1.6h0.2v0.5h0.2v0.2H58.1z M52,29.4v0.2c-0.3-0.1-0.2,0-0.3-0.2H52z M89.4,65.7
		h-0.5v0.2h-2.3v0.2c-0.6,0.1-0.9-0.3-1.4-0.3c-1.6,0.1-3.3,0.1-4.9,0.2v-0.3c-0.8-0.3-0.2-0.1-0.5-0.7c-0.2-0.1-0.3-0.2-0.5-0.3
		v-0.3h-0.2v-2.6h-0.2v-1.4h0.2v-1.4h-0.2v-1.4h-0.2c0.1-0.5,0.1-0.9,0.2-1.4h-0.2c-0.1-0.5-0.1-0.9-0.2-1.4c-1.9,0-3.3,0.6-4.9,0.7
		v1h-0.2c0.1,0.2,0.1,0.3,0.2,0.5h-0.2v0.9h0.2v0.7h-0.2v0.9h-0.2c0.1,0.2,0.1,0.3,0.2,0.5h-0.2v2.4h-0.2v0.2h0.2
		c0.1,0.8,0,1.7-0.3,2.1v0.2c-0.3,0.2-0.7-0.1-0.9,0.2v0.5c-0.1,0.1-0.2,0.1-0.4,0.2c-0.5,0.7-0.1,0.7-1.2,0.7
		c-0.5,0.3-1.5-0.4-2.4-0.2v0.2c-0.6-0.1-1.2-0.1-1.7-0.2c-0.1,0,0-0.2-0.3-0.2v0.2c-0.3,0-0.3-0.2-0.3-0.2c-0.3,0-0.3,0.2-0.3,0.2
		c-0.5,0.1-0.5-0.2-0.5-0.2c-0.7-0.2-1.4,0-1.9-0.2v-0.2H63c-0.1-0.3-0.3-0.2-0.3-0.3v-0.3h-0.2c0.1-0.8,0.1-1.5,0.2-2.3h0.2
		c-0.1-0.2-0.1-0.3-0.2-0.5h0.2v-0.9H63v-1.7h0.2v-1.7h0.2c0.2-0.6-0.2-1.1-0.2-1.4h0.2v-0.7h0.2v-1.6c0.5-1.5,0.4-3.5,0.9-5v-1.7
		h0.2v-0.7h0.2v-0.9h0.2c-0.1-0.1-0.1-0.2-0.2-0.3h0.2v-1.2h0.2V43h0.2v-1.4h0.2c-0.1-0.5-0.1-1-0.2-1.6h0.2v-0.5h0.2
		c0.2-0.6-0.2-1.1-0.2-1.4h0.2v-1.2h0.2V36H66v-1.4h0.2v-1.2h0.2v-0.9h0.2v-2.6h0.2c0.1-1.1,0.1-2.2,0.2-3.3H67
		c0-0.2-0.1,0.1-0.2-0.2v-1.2H67v-1.4h0.2c-0.1-0.1-0.1-0.2-0.2-0.3h0.2v-0.7h0.2c0-0.2-0.1,0.1-0.2-0.2c0-0.3,0.2-0.3,0.2-0.3v-0.2
		h-0.2c0.1-0.1,0.1-0.2,0.2-0.3h-0.2v-0.2h0.2c0.1-0.6,0.1-1.3,0.2-1.9h0.2V19h0.2v-2.1h0.2v-0.3h0.2V15h0.2v-1.4h0.2v-0.7h0.2v-1
		H69c0.1-0.4,0.1-0.8,0.2-1.2c0.2-0.2,0.5-0.3,0.7-0.5c0.1-0.1,0.1-0.2,0.2-0.3h2.1c0.6-0.5,2.3,0.7,3.5,0.3V10
		c0.6-0.1,1.3-0.1,1.9-0.2V10c0.2,0-0.1-0.1,0.2-0.2c0.8-0.1,1.6,0.2,2.1,0.3h2.1v0.2c0.3,0.1,0.5,0.1,0.7,0.2
		c0.2,0.4,0.2,1.1,0.2,1.7c0.4,0.4,0.1,1.3,0.3,1.9h0.2V15h0.2v0.9h0.2v0.7h0.2v0.7H84c0.1,0.4-0.2,1-0.2,1H84v0.5h0.2v1h0.2v1.4
		h0.2V23h0.2c0.1,1,0.1,2.1,0.2,3.1H85v1h0.2V28h0.2c0,0.2,0,0-0.2,0.2v0.2h0.2v0.9h0.2v1.6h0.2v0.5h0.2c-0.1,0.3-0.1,0.6-0.2,0.9
		h0.2v1h0.2v0.9h0.2c-0.1,0.3-0.1,0.6-0.2,0.9c0.1,0.1,0.2,0.1,0.3,0.2v1.2h0.2v1.6h0.2v1.2H87v0.7h0.2V43h0.2v0.9h0.2V44h-0.2
		c0,0.4,0.2,0.3,0.2,0.3v1.2h0.2c-0.1,0.1-0.1,0.2-0.2,0.3h0.2c0.1,0.6-0.2,0.9-0.2,1.2h0.2v1.6h0.2v1.2H88c0.1,1.3,0.1,2.5,0.2,3.8
		h0.2v0.2h-0.2c0.1,0.1,0.1,0.2,0.2,0.3c0,0-0.3,0.2-0.2,0.5h0.2V56h0.2v1h0.2v1h0.2v0.5h0.2v1h0.2c0.1,0.3,0.1,0.7,0.2,1h0.2
		c-0.1,0.2-0.1,0.5-0.2,0.7h0.2v0.3h0.2c0.1,1,0.2,2,0.3,2.9C89.7,64.9,89.6,65.3,89.4,65.7z M141.4,33.7c-2.3,0.5-4.3,2-5.4,4.2
		l-3.4-0.4v0.8h0.2l0,0.2h-0.2v1.4c0,0.1-0.4,1.2-0.3,1.4h0.2v1h0.2v0.2h-0.2c0,0.2-0.1,0.5-0.1,0.7l3,0.4c0.6,2.3,2.1,4.2,4.2,5.3
		l-1.4,11.4l-0.3,0.3c-2-0.6-3.8-1.4-5.4-2.5c0,0.1,0,0.3,0,0.4h-0.2c-0.1,0.4,0.3,1.2,0.2,1.9h-0.2c-0.1,0.3,0.2,0.3,0.2,0.3
		c0.2,0.7-0.1,1.5-0.2,1.9c0.1,0.8,0.1,1.5,0.2,2.3h-0.2c-0.2,0.3-0.2,0.3-0.3,0.7c-0.5,0-0.9,0-1.2,0.2c-0.1,0.1-0.1,0.2-0.2,0.3
		H128v-0.2c-1.6,0.1-3.3,0.1-4.9,0.2c-0.1-0.5-0.3-0.6-0.5-0.9h-0.2v-0.3h-0.2v-2.3h-0.2v-1.4h-0.2V61c0,0,0.2-0.1,0.2-0.3
		c0,0-0.2,0-0.2-0.3h0.2V59h-0.2c-0.1-0.4,0.2-0.7,0.2-0.9c0,0-0.2-0.1-0.2-0.3h0.2c0.2-0.8-0.1-1.8,0.2-2.4c0-0.2-0.1,0.1-0.2-0.2
		v-2.4c0.1-0.3,0.1-0.7,0.2-1h-0.2v-2.3h0.2c-0.1-0.5-0.1-1-0.2-1.6c0-1.5,0.1-3.3-0.2-4.5c-0.1-0.4,0.2-0.5,0.2-0.5
		c-0.1-0.4-0.1-0.8-0.2-1.2h0.2v-0.9h-0.2v-3h-0.2c0.1-0.3,0.1-0.7,0.2-1h-0.2c0.1-0.1,0.1-0.2,0.2-0.3h-0.2v-0.9h-0.2v0.2h-0.2v0.9
		h-0.2v1H121v1.6h-0.2v0.2h0.2v0.2h-0.2v1.4h-0.2v0.5h-0.2v1.9h-0.2V44h-0.2v1.4H120c0.1,0.2,0.1,0.5,0.2,0.7H120v1.4h-0.2V48h-0.2
		v0.7h-0.2c0.1,0.3,0.1,0.6,0.2,0.9c-0.1,0.1-0.2,0.1-0.3,0.2v1.6h-0.2v1.2h-0.2v1h-0.2c-0.1,0.4,0.2,1.5,0.2,1.6h-0.2
		c-0.1,0.3-0.1,0.6-0.2,0.9h-0.2c0.1,0.2,0.1,0.5,0.2,0.7h-0.2v0.5c-0.1,0.2-0.2-0.1-0.2,0.2c0.1,0.2,0.2-0.1,0.2,0.2h-0.2v1.7H118
		v0.9c0,0.1-0.2,0-0.2,0.3h0.2v1.2h-0.2v0.5h-0.2V63h0.2c-0.1,0.5-0.1,0.9-0.2,1.4h-0.3v0.2c-0.2-0.1-0.5-0.2-0.7-0.3v0.5h0.2
		c0.1,0.3-0.1,0.3-0.2,0.3c-0.2,0.6-0.1,0.5-0.9,0.5v-0.2h-1.4v-0.2c-1.3-0.4-2.4,0.4-3.3-0.5c-0.4-0.4-0.1-0.3-0.3-0.9h-0.2v-0.7
		h-0.2v-0.7h-0.2c0.1-0.3,0.1-0.7,0.2-1h-0.2c-0.1-0.6-0.1-1.2-0.2-1.7h-0.2v-1.4h-0.2v-1h-0.2v-1.4h-0.2v-1.7h-0.2v-0.9H109V52
		h-0.2v-1.2c-0.7-2.2-0.9-5.1-1.6-7.3v-1c-0.3-1-0.5-2.2-0.9-3.1h-0.2v1H106c-0.2,0.4,0.2,0.5,0.2,0.7H106v1.7h-0.2V43h0.2v0.5h-0.2
		c0.1,0.6,0.1,1.3,0.2,1.9h-0.2c-0.1,0.4,0.2,0.5,0.2,0.5c-0.1,0.3-0.1,0.7-0.2,1h0.2v0.9h-0.2v0.9h0.2v0.2h-0.2
		c-0.1,0.4,0.2,0.5,0.2,0.7h-0.2v2.1c0,2.4,0.1,5.2-0.2,7.3c0.1,0.1,0.1,0.2,0.2,0.3c0.1,1.2,0.2,2.3,0.4,3.5H106
		c0.1,0.3,0.1,0.7,0.2,1c-0.2,0.1-0.4,0.2-0.5,0.3v0.5h-0.2c-0.1,0.2-0.1,0.3-0.2,0.5H103v0.2h-0.3v0.2h-0.9v0.2
		c-0.4-0.1-0.8-0.1-1.2-0.2h-2.6L97.6,65h-0.7v-0.2h-0.2c-0.1-0.2-0.1,0-0.2-0.2v-0.5c-0.2-0.1-0.3-0.2-0.5-0.3v-1.6h-0.2
		c0.1-0.3,0.1-0.6,0.2-0.9h-0.2v-1h-0.2c0.1-0.9,0.1-1.9,0.2-2.8h-0.2c0-0.2,0.2-0.3,0.2-0.7c-0.1-0.2-0.1-0.3-0.2-0.5
		c0,0,0.2-0.1,0.2-0.3h-0.2v-0.2h0.2V55h-0.2v-1.2h-0.2c-0.1-0.4,0.2-0.5,0.2-0.5v-2.4h-0.2v-1.9h0.2v-0.3h-0.2v-1.9h0.2
		c-0.1-0.9-0.1-1.9-0.2-2.8h-0.2c0.1-0.5,0.1-1,0.2-1.6h-0.2c0.1-0.7,0.1-1.4,0.2-2.1c0,0-0.3-0.1-0.2-0.5h0.2
		c-0.1-1.1-0.1-2.2-0.2-3.3v-3h0.2v-2.8h-0.2c0.1-0.7,0.1-1.4,0.2-2.1h0.2c0.1-0.4-0.2-0.5-0.2-0.5v-1.2h0.2c-0.1-1-0.1-2.1-0.2-3.1
		c0.4-1.3-0.1-3.3,0.2-4.9c0.4-1.9-0.4-6.3,0.5-8.5c0.2,0.1,0.3,0.1,0.5,0.2v-0.2c0.2-0.1,0.3-0.1,0.5-0.2h0.2v0.2h3.3
		c0.6,0.1,1.2,0.1,1.7,0.2v-0.2c0.9-0.1,1.9-0.1,2.8-0.2c0,0,0,0.1,0.3,0.2c1.9,0.2,4.3-0.2,5.1,1h0.2c0.1,0.4,0.1,0.8,0.2,1.2h0.2
		v1h0.2v1h0.2V15h0.2v1.4c0.4,1.2,0.5,2.8,0.9,4v0.9h0.2v0.5h0.2c0.1,0.7,0.1,1.4,0.2,2.1h0.2v0.9h0.2c0,0.2-0.3,0.3-0.2,0.7
		c0.2,0.9,0.2,2.3,0.5,3.1h0.2c0.2-1,0.3-2,0.5-3h0.2c0-0.1-0.3-0.5-0.2-0.9c0.3-1.1,0.6-2.5,0.7-3.8c-0.2-0.1-0.3-0.1-0.5-0.2
		c-0.1-0.4-0.2-0.9,0-1.4c0.1-0.1,0.2-0.1,0.3-0.2c0.1-0.9,0.1-1.7,0.2-2.6h0.2v-0.7h0.2V15c0.1-0.1,0.2-0.1,0.3-0.2
		c0.1-1.1,0.2-2.2,0.3-3.3c0.4-0.3,0.5-0.8,0.9-1c0.2-0.1,0.5-0.1,0.7-0.2v-0.2c0.5,0.1,1,0.1,1.6,0.2v-0.2h0.9V10
		c0.3,0,0.3,0.2,0.3,0.2c1.2,0.3,2.8,0,3.8,0.2c0.7-0.1,1.4-0.1,2.1-0.2V10h0.3V9.8h1.2c0.2,0.1-0.1,0.2,0.2,0.2
		c0.5,0,0.8-0.6,1.6-0.3v0.2c0.3,0.1,0.7,0.2,1,0.3c0.1,0.5,0.3,0.5,0.5,0.9h0.2c-0.1,0.9-0.1,1.7-0.2,2.6h0.2
		c0.1,0.4-0.2,0.5-0.2,0.7h0.2c0,0.3-0.2,0.3-0.2,0.3l0.2,0.5h-0.2v0.2h0.2v1.4h0.2c-0.1,0.3-0.1,0.6-0.2,0.9h0.2V19h-0.2
		c-0.1,0.4,0.2,0.5,0.2,0.5c0.1,0.4-0.2,0.6-0.2,0.9h0.2v1.9h-0.2c0.1,0.2,0.1,0.5,0.2,0.7c0,0-0.2,0.1-0.2,0.3h0.2
		c0.1,0.6-0.2,1.7-0.2,1.9c0.1,0.1,0.2,0.1,0.3,0.2c0,0,0,0,0,0.1c2.9-2,6.4-3.3,10.1-3.5l0.5,0.6L141.4,33.7z M174.7,43v0.3h-2.1
		v0.2c-1.5-0.1-2.9-0.1-4.4-0.2c-0.2,0.4-0.3,0.6-0.3,1.4h-0.2c0.1,0.1,0.1,0.2,0.2,0.3c-0.1,0.4-0.3,1.5-0.2,2.1
		c0,0,0.3,0.1,0.2,0.5c-0.1,0.5-0.2,2.1-0.2,3.3c0.1,0.4,0.1,0.8,0.2,1.2c-0.2,0.8,0.1,2.3-0.2,3.3h-0.2c0.1,0.2,0.1,0.3,0.2,0.5
		h-0.2v1.6c0.1,0.3,0.3,1,0.2,1.6h-0.2c0.1,0.7,0.1,1.4,0.2,2.1h-0.2c0.1,0.2,0.1,0.3,0.2,0.5c0,0.4-0.2,0.9-0.2,1.6v4.5h0.2v1h0.2
		v0.5h0.2c-0.1,0.3-0.1,0.7-0.2,1c0.1,0.1,0.3,0,0.2,0.2h-0.2c-0.2,0.3-0.1,0.2-0.5,0.3v0.9c-0.3,0.2-0.4,0.3-0.5,0.5
		c-0.3-0.1-0.7-0.1-1-0.2v0.2h-0.3v0.2h-1v0.2h-1.7v0.2l-1.6-0.2v-0.2c-0.9,0.1-1.9,0.1-2.8,0.2c-0.2-0.3-0.2-0.3-0.4-0.7
		c-0.5,0-1.2-0.1-1.2-0.2c-0.5-0.3-0.8-0.5-0.9-1.2h0.2v-0.3c0.1-0.1,0.2-0.1,0.3-0.2c0-0.2-0.1,0.1-0.2-0.2
		c-0.1-1.3-0.1-2.5-0.2-3.8c0.1-2.5,0.2-5.7,0.2-8.5c0-0.4,0-0.8-0.1-1.1c-3.2,2.8-7.3,4.5-11.7,4.8l-0.5-0.6l1.3-11
		c2.3-0.6,4.3-2.1,5.4-4.2l5.2,0.6c-0.1-0.3-0.1-0.6-0.2-1h0.2c-0.1-0.2-0.1-0.3-0.2-0.5h0.2v-2.3h-0.2c-0.1-0.3,0.2-0.3,0.2-0.3
		v-1.6c0,0,0-0.1,0-0.2l-4.5-0.6c-0.6-2.3-2.1-4.2-4.2-5.3l1.3-10.9l0.8-0.6c2.5,0.8,4.8,2,6.8,3.7c0-1.1,0-2.3,0.2-3.1
		c0.1-0.3-0.2-0.3-0.2-0.3c0-0.3,0.2-0.3,0.2-0.3c0.1-0.4-0.2-0.4-0.2-0.7h0.2c0-0.2-0.1,0.1-0.2-0.2v-1.2h0.2v-0.2H156v-0.2h0.2
		c0.2-0.7-0.2-1.4-0.2-1.9c0.1-0.3,0.1-0.6,0.2-0.9H156v-3.1h-0.2v-0.2h0.2c0.2-1.2-0.4-2,0-3c0.2-0.4,0.6-0.7,0.7-1.2
		c0.7-0.1,1.4-0.1,2.1-0.2V9.6c0.3,0.1,0.7,0.1,1.1,0.2h1V10c0.9-0.1,1.9-0.1,2.8-0.2V10h3.7v0.2c0.4,0.1,0.7-0.3,1.2-0.2v0.2
		c0.9,0.3,1.9-0.2,2.4-0.3h1.9V9.6h0.2v0.2c0.4,0.1,0.4,0.1,0.7,0.2c0.1,0.2,0.1,0.3,0.2,0.5h0.2v0.3h0.2l-0.2,5h0.2v1.2h0.2
		c0.2,0.7,0.1,1.2,0,1.7c-0.2,0.1-0.3,0.1-0.5,0.2v0.2h-0.3c-0.1,0.1-0.1,0.2-0.2,0.3c-0.2,0.1-0.5,0.1-0.7,0.2v0.2
		c-0.5-0.1-1-0.1-1.6-0.2v0.2h-3c-0.4,0.8-0.4,1.2-0.3,2.4h-0.2v0.2h0.2v2.3h-0.2c-0.1,0.3,0.3,0.6,0.2,1.2c0,0-0.2,0-0.2,0.3h0.2
		c0,0.4-0.3,0.6-0.2,1.2h0.2c-0.1,0.1-0.1,0.2-0.2,0.3c0.2,0.7,0.4,2.3,0.2,3.3h-0.2c-0.1,0.3,0.2,0.3,0.2,0.3v0.7h-0.2
		c0,0.2,0.1-0.1,0.2,0.2v0.9c0.3,0.1,0.4,0.2,0.9,0.2c0.6-0.5,1,0.1,1.6,0v-0.2c0.6-0.2,2,0.2,2.4,0.3h0.9v-0.2
		c0.1,0.1,0.2,0.1,0.3,0.2c0.2,0.4,0.3,0.6,0.3,1.2c0.2,0.1,0.3,0.1,0.5,0.2v1.4h-0.2v0.2h0.2v1c-0.1,0.1-0.1,0.2-0.2,0.3h0.2v2.4
		h0.2l0,2.4C174.9,42.9,174.8,42.9,174.7,43z M208.7,59.3h-0.2v0.2h-0.9v0.3h0.3V60H207v0.5c0.7,0.1,0.8,0.4,1.4,0.5v0.2h-0.5v0.2
		c-0.2,0-0.5-0.4-0.9-0.2v0.2c-0.3,0.2-0.6,0.8-0.7,1.2h-0.3c-0.2,0.2-0.3,0.5-0.5,0.7h-0.3c-0.2,0.2-0.3,0.5-0.5,0.7h-0.4
		c-0.1,0.1-0.1,0.2-0.2,0.3h-0.3c-0.2,0.3-0.5,0.6-0.7,0.9h-0.3v0.2h-0.7v0.2h-0.3v0.2h-1.7v0.2c-0.7,0.2-1.4-0.1-1.9-0.2h-2.3v0.2
		c-0.8-0.1-1.6-0.1-2.4-0.2c-1.9,0.1-3.8,0.1-5.8,0.2v-0.2h-0.5v-0.2h-0.3v-0.2h-0.7v-0.2c-0.3-0.1-0.7-0.2-1-0.3v-0.2h-0.3
		c-0.1-0.2-0.2-0.3-0.3-0.5h-0.3V64c-0.2-0.2-0.5-0.3-0.7-0.5v-0.3c-0.2-0.2-0.5-0.3-0.7-0.5v-0.3c-0.1-0.1-0.2-0.1-0.3-0.2v-0.3
		h-0.2v-0.3c-0.1-0.1-0.2-0.1-0.3-0.2v-0.9h-0.2V60h-0.2v-1.6c0-0.2-0.2,0.1-0.2-0.2h0.2v-1c0,0,0.2,0,0.2-0.3h-0.2
		c-0.1-0.3,0.2-0.3,0.2-0.3c-0.1-0.4-0.1-0.8-0.2-1.2h0.2v-1.2h0.2c-0.1-0.2-0.1-0.3-0.2-0.5v-2.8h0.2v-0.2h-0.2
		c-0.1-0.4,0.2-0.6,0.2-0.9h-0.2v-1.6c0,0,0.3-0.1,0.2-0.5h-0.2v-1.9c-0.1-0.5-0.1-1-0.2-1.6c0-0.8,0.3-1.4,0-2.3H181v-2.8h-0.2V39
		h0.2c0.1-1.2,0.1-2.3,0.2-3.5H181v-0.2h0.2c-0.1-0.3-0.1-0.6-0.2-0.9h0.2V31c0,0,0.2,0,0.2-0.3h-0.2v-2.1c-0.1-0.3-0.5-1.7-0.3-2.1
		h0.2v-0.3h0.2V26H181V24h0.2c0-0.3-0.2-0.3-0.2-0.3c0.1-0.5,0.1-1,0.2-1.6c-0.1-0.5-0.1-0.9-0.2-1.4h-0.2c0.1-0.3,0.1-0.7,0.2-1
		v-3.3h0.2v-0.5h0.2c0.1-0.6,0.2-1.3,0.3-1.9h0.2c0.1-0.3,0.2-0.7,0.3-1h0.3c0.1-0.7,1.4-2,1.9-2.3c0.3-0.1,0.7-0.1,1-0.2v-0.2h0.3
		v-0.2h1.9c0.1-0.1,0.1-0.2,0.2-0.3h0.9c0.1-0.2,0.2-0.3,0.3-0.5h1.4V9.1h1.4c0,0,0.1,0.3,0.5,0.2V9.1h3v0.2h0.2V9.1h1.4v0.2h2.3
		v0.2h0.5v0.2h1v0.2h0.3V10h1.2c0.1,0.2,0.2,0.3,0.3,0.5h0.3c0.1,0.1,0.1,0.2,0.2,0.3c0.4,0.3,0.7,0.3,1.4,0.3
		c0.1,0.6,0.2,0.8,0.5,1.2h0.2c0.1,0.3,0.1,0.6,0.2,0.9h0.2v0.3h0.2c0.1,0.3,0.1,0.6,0.2,0.9c0.1,0.1,0.2,0.1,0.3,0.2
		c0.1,0.5,0.1,1,0.2,1.6h0.3c0.1,0.2,0.1,0.5,0.2,0.7c0,0-0.2,0.1-0.2,0.3h0.2v0.2H207v0.2h0.2v0.1c-0.5-0.2-1.1-0.1-1.5,0.2
		c-0.5,0.1-0.8,0.5-0.7,0.9c-0.1,0-0.1,0.1-0.2,0.2c-0.1,0.5,0,0.9,0,1.3c0,0.4-0.1,0.7-0.2,1.1c0,0.6,0.4,1.5,0.6,2.1
		c0.4,0.6,1.3,0.8,2,1.1l0.1,0c0,0.8,0.1,1.5,0.2,2.1c0,0.1,0,0.3-0.1,0.5c-0.9,0.2-1.6,0.6-2.3,1.3c0.5,0.7,0.6,1.3,0.9,1.6l0-2
		c0,0.1,0.1,0.1,0.2,0.2c0.1,0.7,0.2,1.2,0.5,1.8c0.2,0,0.4,0,0.6-0.1v0.8h0.2c-0.1,0.1-0.1,0.2-0.2,0.3c0.1,0.1,0.1,0.2,0.2,0.3
		h-0.2v0.9h0.2c-0.1,0.6-0.1,1.2-0.2,1.7c0.1,0.1,0.1,0.2,0.2,0.3h-0.2v0.7H207c0.1,1.1,0.2,2.2,0.3,3.3h-0.2c0,0.3,0.2,0.3,0.2,0.3
		c-0.1,0.2-0.1,0.5-0.2,0.7h0.2v1h0.2v0.2h-0.2v1.9h-0.2c0.1,0.3,0.1,0.6,0.2,0.9c0.1,2.1-0.3,4.5,0,5.7v6.6h0.2v0.7h-0.2
		c-0.2,0.8,0,2.1,0.4,2.4v0.2h1L208.7,59.3z M240.9,65c-0.2,0.3-0.6,0.4-1,0.5v0.3c-0.3,0.1-0.6,0.1-0.9,0.2v-0.2h-0.3v-0.2
		c-1.2,0.1-2.3,0.1-3.5,0.2v-0.2h-0.5v-0.2c-1-0.3-2.9-0.2-4.2-0.2c-0.2-0.3-0.3-0.4-0.5-0.5c0.1-0.3,0.2-0.6,0-1
		c-0.1-0.1-0.2-0.1-0.4-0.2v-1.2h-0.2v-0.2c0.1-0.2,0.2,0.1,0.2-0.2c0,0-0.3-0.2-0.2-0.5h0.2c-0.1-0.8-0.1-1.5-0.2-2.3
		c-0.1-2,0-4.2-0.2-5.9c0-0.1,0.3-0.4,0.2-0.9h-0.2v-2.6h0.2c0-0.2-0.3-0.3-0.2-0.7h0.2v-2.1h0.2c-0.1-1-0.2-2-0.3-3
		c-0.1-0.1-0.2-0.1-0.3-0.2v-0.2c-0.4-0.1-0.8-0.1-1.2-0.2c-0.2,0,0.1-0.2-0.2-0.2v0.2c-0.3,0.1-0.7,0.1-1.1,0.2
		c-0.1,0.6-0.3,0.9-0.5,1.4h-0.2c-0.1,0.3,0.2,0.3,0.2,0.3v1.7h0.2c-0.1,0.3-0.1,0.7-0.2,1h0.2v5.4h-0.2v0.9c0,0.1-0.2,0-0.2,0.3
		c0,0,0.2,0.1,0.2,0.5h-0.2c0.1,0.2,0.1,0.3,0.2,0.5h-0.2v1.4h0.2c0.1,0.3-0.2,0.3-0.2,0.3v1.9h0.2c-0.1,0.2-0.1,0.3-0.2,0.5
		c0.1,0.6,0.1,1.3,0.2,1.9c-0.5,0.3-0.3,0.3-1.2,0.3v0.3c0.8,0.2,0.7,0.6,0.7,1.6c-0.2,0.2-0.4,0.6-0.5,0.9c-0.6-0.1-0.7-0.2-1.4,0
		v0.2c-0.2-0.1-0.3-0.1-0.5-0.2v0.2c-1.4-0.1-2.8-0.1-4.2-0.2c-0.8,0.1-1.6,0.1-2.4,0.2v-0.2h-0.3c-0.4-0.2-0.7-0.6-1.2-0.7v-1
		c0,0-0.2,0-0.2-0.3c0.1-0.2,0.1-0.3,0.2-0.5h-0.2v-0.2h0.2v-1.9c-0.2-0.8,0-2.2-0.2-3.3h-0.2V57h0.2v-0.5h0.2c0-0.1-0.3-0.6-0.2-1
		h0.2v-0.2h-0.2v-1h0.2c0.1-0.4-0.2-0.6-0.2-0.9h0.2v-0.2h-0.2c0.1-1,0.1-2.1,0.2-3.1h0.2v-0.2h-0.2c0.1-0.2,0.1-0.3,0.2-0.5h-0.2
		v-0.7h0.2v-2.1h-0.2v-4h-0.2c0-0.2,0,0,0.2-0.2c-0.1-0.1-0.1-0.2-0.2-0.3c0.1-0.2,0.2,0.1,0.2-0.2c0-0.2-0.2,0.1-0.2-0.2h0.2v-0.2
		h-0.2v-1.7h0.2c0.1-0.3-0.2-0.3-0.2-0.3v-1.2h0.2c0.1-0.4-0.2-0.5-0.2-0.7h0.2v-1c0,0-0.2-0.1-0.2-0.3h0.2V34h-0.2v-0.2h0.2v-1.6
		h0.2v-0.7h-0.2c-0.1-0.4,0.2-0.6,0.2-0.9h-0.2v-0.2h0.2v-5.7h0.2c-0.1-0.8-0.2-1.5-0.3-2.3h0.2c-0.1-1.2-0.1-2.4-0.2-3.6v-0.3h0.2
		c-0.1-0.2-0.1-0.3-0.2-0.5c0.2-0.7,0.4-3.2,0.2-4.2h-0.2v-1.6c0,0-0.2-0.1-0.2-0.3h0.2c0.2-0.7,0.2-1.2,0.7-1.6v-0.2h0.9
		c0.1-0.1,0.1-0.2,0.2-0.3c0.5-0.2,3.5,0.1,3.8,0.2h1.7v0.2c0.5-0.1,1-0.1,1.6-0.2c0,0,0.1-0.3,0.5-0.2V10h2.4c0,0,0.1-0.3,0.5-0.2
		V10c1.3,0.1,2.6,0.1,3.8,0.2v0.2h2.6v0.2h2.8v0.2c0.2,0.1,0.5,0.1,0.7,0.2c0.1,0.1,0.1,0.2,0.2,0.3h0.3c0.1,0.1,0.1,0.2,0.2,0.3
		h0.3c0.1,0.1,0.1,0.2,0.2,0.3h0.3c0.1,0.2,0.1,0.3,0.2,0.5h0.2c0.2,0.3,0.3,0.3,0.4,0.9h0.3c0.1,0.3,0.1,0.7,0.2,1h0.2v0.3h0.2
		c0.1,0.2-0.1-0.1-0.2,0.2c0.1,0.1,0.1,0.2,0.2,0.3H240v0.7h0.2v0.7h0.2c0,0-0.3,0.8-0.2,1.2h0.2v1.9h0.2v0.5
		c-0.1,0.3-0.1,0.6-0.2,0.9h0.2V22h0.2c-0.1,0.6-0.1,1.3-0.2,1.9c0.1,0.5,0.1,0.9,0.2,1.4h-0.2v2.3c0,0.2,0.2-0.1,0.2,0.2h-0.2
		c0.1,0.6,0.1,1.2,0.2,1.7h-0.2v1h-0.2c0.1,0.2,0.1,0.5,0.2,0.7h-0.2v1.4h-0.2c-0.1,0.3-0.1,0.7-0.2,1h-0.2V34h-0.2
		c-0.1,0.3-0.1,0.6-0.2,0.9c-0.4,0.7-1.2,1.1-1.4,2.1c-0.4,0.1-0.4,0.2-0.7,0.3v0.2c-0.5,0.2-1,0.3-1.6,0.5c0.4,0.4,0.5,0.1,0.9,0.3
		c0.4,0.5,0.8,0.9,1.2,1.4c0.1,0.1,0.2,0.1,0.3,0.2v0.3c0.3,0.2,0.6,0.5,0.9,0.7v0.7h0.2v0.3h0.2v0.5h0.2v0.3h0.2v0.9h0.2V44h0.2
		c0.1,0.3,0.1,0.7,0.2,1h0.2v1.6c0,0,0.2,0,0.2,0.3h-0.2v0.2h0.2v1.6h-0.2v0.2h0.2V51h0.2c-0.1,0.8-0.1,1.5-0.2,2.3h0.2v1.6
		c0,1.3,0.1,3.7,0,4.3v1.4h-0.2v1.2h0.2v0.2h-0.2c0.1,0.1,0.1,0.2,0.2,0.3h-0.2V64h0.2c0.1,0.3,0.1,0.7,0.2,1L240.9,65z M268.5,15.2
		h-0.2c0.1,1,0.1,2,0.2,2.9c-0.1,0-0.3,0.3-0.3,0.3c-0.3-0.1-0.6-0.1-0.9-0.2c-0.1,0.2-0.2,0.3-0.3,0.5c-0.4,0.2-0.7-0.2-0.9-0.2
		v0.2h-0.7V19h-1.6v-0.2c-0.2,0.1-0.3,0.1-0.5,0.2c-0.2,0.5-0.7,1.3-1,1.6c0.1,0.2,0.1,0.5,0.2,0.7c0,0-0.2,0.1-0.2,0.3h0.2v1.2
		h-0.2v0.9h0.2c0.1,0.3-0.2,0.3-0.2,0.3v0.9h0.2c-0.1,0.2-0.1,0.5-0.2,0.7h0.2v0.7h-0.2c0.1,0.5,0.1,1,0.2,1.6h-0.2
		c0.1,0.5,0.1,1,0.2,1.6h-0.2v0.2h0.2v0.5c-0.1,0.1-0.1,0.2-0.2,0.3h0.2v0.7h-0.2c0.1,0.7,0.1,1.4,0.2,2.1c-0.1,1.1-0.1,2.2-0.2,3.3
		c0.1,0.2,0.1,0.3,0.2,0.5h-0.2v0.2h0.2v0.2h-0.2c0.1,0.5,0.2,1,0.3,1.6h-0.2v1.7h-0.2c-0.1,0.4,0.3,0.9,0.2,1.6h-0.2
		c-0.1,0.4,0.2,0.5,0.2,0.5c-0.1,0.8-0.1,1.5-0.2,2.3v0.9h0.2v0.2c-0.1,0.2-0.1,0.3-0.2,0.5c0,0,0.2,0.1,0.2,0.3h-0.2v4.2h0.2V52
		h-0.2c-0.1,0.3,0.2,0.3,0.2,0.3c0.1,0.4-0.2,1-0.2,1h0.2c0.1,0.7,0.1,1.4,0.2,2.1h-0.2c0.1,0.3,0.1,0.7,0.2,1h-0.2v1
		c0,0,0.2,0,0.2,0.3c-0.2,1.6,0.1,4.1-0.3,6.6c-0.2,0.1-0.4,0.1-0.5,0.2c-0.1,0.2-0.1,0.5-0.2,0.7c-0.4,0.1-0.7,0.1-1,0.2v0.2
		c-0.6,0.2-1-0.2-1.4-0.2c0,0-0.1,0.2-0.3,0.2v-0.2c-0.5,0.1-1,0.1-1.6,0.2v-0.2h-0.4v-0.2h-1.6v-0.2c0,0-0.6,0.2-0.9,0.2
		c-0.9-0.1-1.7-0.1-2.6-0.2c-0.1-0.2-0.5-0.5-0.5-0.5V59c-0.5-0.6,0-1.9-0.2-2.8h-0.2V56h0.2c-0.1-0.1-0.1-0.2-0.2-0.3h0.2
		c0-0.2-0.1,0.1-0.2-0.2v-1c0-0.3,0.2-0.6,0.2-0.7h-0.2v-1.6c0.1-0.6,0.1-1.3,0.2-1.9h-0.2c0.1-0.8,0.1-1.5,0.2-2.3h-0.2v-0.2h0.2
		v-1.2h-0.2c0.1-0.2,0.1-0.5,0.2-0.7h-0.2v-1.6h0.2c0.1-0.4-0.4-1.7-0.2-2.4c0.3-0.9-0.1-2.4,0.2-3.5h0.2v-0.2H251
		c0.1-0.2,0.1-0.3,0.2-0.5H251V36c0,0,0.2,0,0.2-0.3H251v-0.2c0.1-0.7,0.4-2.3,0.2-3.3H251c0.1-1,0.2-2,0.3-3h-0.2
		c0.1-0.2,0.1-0.3,0.2-0.5v-0.3h-0.2c0.1-0.1,0.1-0.2,0.2-0.3c0.1-0.8-0.1-1.5-0.2-2.1v-2.1H251c0.1-0.1,0.1-0.2,0.2-0.3H251
		c0.1-0.2,0.1-0.3,0.2-0.5c0-0.5-0.2-0.5-0.2-0.5c0-0.1,0-0.2-0.1-0.3c0.2,0,0.4-0.1,0.6-0.2c1.4-1.1,0.7-2.7-1-2.7
		c-0.2,0-0.4,0-0.5,0l-0.1-0.1V19h-0.3v-0.2h-1.9c-0.6-0.2-1.4-0.4-2.1-0.5c-0.1-0.4-0.2-0.3-0.2-0.3v-1.6h-0.2v-1.2h-0.2
		c-0.1-0.3,0.2-0.3,0.2-0.3v-1.4h-0.2c-0.2-0.2,0-0.1-0.3-0.2v-0.9h0.3c0.1-0.6,0.3-2,0.7-2.3h0.3c0.1-0.1,0.1-0.2,0.2-0.3
		c0.2,0.1,0.5,0.1,0.7,0.2c0.1-0.1,0.1-0.2,0.2-0.3c0.6,0.1,1.2,0.1,1.7,0.2V9.6h1c0.1,0,0.1,0.2,0.3,0.2V9.6c1-0.2,2.8,0,3.5,0.2
		h2.8V10h1.9c1.4,0,3,0,3.7,0.2c0.3-0.1,0.7-0.1,1-0.2V9.8c0.8,0.1,1.6,0.1,2.4,0.2v0.2c0.3,0.1,0.3-0.2,0.4-0.2
		c0.8-0.2,1,0,1.2,0.5h0.9c0.3,0.8,0.2,2.4,0.2,3.5C268.1,14.4,268.6,14.6,268.5,15.2z M300,65.4c-0.1,0.1-0.6,0.1-0.7,0.2
		c-0.1,0.1-0.1,0.2-0.2,0.3h-0.3v0.2h-0.9v0.2c-1.1-0.1-2.1-0.1-3.1-0.2v-0.2h-4c-0.2-0.3-0.2-0.3-0.4-0.7c-1-0.1-0.6-0.4-1-0.7H289
		c-0.1-0.6-0.1-1.3-0.2-1.9c0,0,0.2,0,0.2-0.3h-0.2v-0.2h0.2v-0.7c0-0.4-0.2-0.5-0.2-0.7h0.2v-1.9h-0.2v-0.2h0.2
		c0.1-0.5-0.1-1.3-0.2-1.6v-3.5h-0.2c0.1-0.2,0.1-0.3,0.2-0.5v-0.5h-0.2c0.1-0.2,0.1-0.3,0.2-0.5h-0.2v-0.2h0.2v-0.2h-0.2V51h0.2
		v-2.6h-0.2c-0.2-0.6,0.2-0.8,0.2-1.2h-0.2c0.1-0.2,0.1-0.3,0.2-0.5c-0.1-0.7-0.1-1.4-0.2-2.1c-0.2-0.1-0.3-0.1-0.5-0.2
		c-0.4-0.4-1-0.4-1.7-0.3c-0.4,0.3-0.8,0.6-1.2,0.9v0.3c-0.1,0.1-0.2,0.1-0.3,0.2v2.1c0.2,0.2,0.1,2.2,0,2.8h-0.2v0.2h0.2
		c-0.1,0.1-0.1,0.2-0.2,0.3c0.1,0.2,0.2-0.1,0.2,0.2c0,0-0.2,0-0.2,0.3h0.2v0.2c0,0-0.2,0.1-0.2,0.3c0,0,0.2,0.1,0.2,0.3h-0.2V53
		h0.2v1.6h0.2c-0.1,0.2-0.1,0.5-0.2,0.7h0.2c0,0.3-0.2,0.3-0.2,0.3c-0.1,0.4,0.2,0.5,0.2,0.5c0,0.3-0.2,0.3-0.2,0.3v1.7h-0.2
		c0.1,0.3,0.1,0.7,0.2,1h0.2v0.2h-0.2v0.9h-0.2c0.1,0.3,0.1,0.6,0.2,0.9h-0.2v0.7h0.2c0.2,0.7,0.1,2.2-0.2,2.4
		c-0.1,0.2-0.1,0.3-0.2,0.5h-0.2v0.3c-0.2,0.2-0.5,0.2-0.9,0.2l-0.2-0.5c-0.1,0.1-0.5,0.5-0.5,0.5c-0.5,0.2-1.2-0.1-1.4-0.2h-3.7V65
		h-1v-0.2h-0.2c-0.1,0.1-0.1,0.2-0.2,0.3c-0.6,0.2-1.2-0.2-1.6-0.3c-0.1-0.2-0.1-0.3-0.2-0.5c-0.1-0.1-0.2-0.1-0.3-0.2
		c-0.1-0.8-0.1-1.5-0.2-2.3h0.2c-0.1-0.1-0.1-0.2-0.2-0.3h0.2v-0.7h-0.2c0.1-0.2,0.1-0.3,0.2-0.5v-4.7h-0.2c0-0.3,0.2-0.3,0.2-0.3
		v-1.9c-0.3-1.5,0-3.3,0-5.2v-1c0,0,0.2,0,0.2-0.3h-0.2v-2.3h-0.2c0-0.3,0.2-0.6,0.2-1l0,0c1.5,0.1,1.9-2.1,0.4-2.4
		c-0.1,0-0.3,0-0.4,0v-1.4h-0.2c0.1-0.2,0.1-0.3,0.2-0.5h-0.2v-0.5h0.2c-0.1-0.3-0.1-0.7-0.2-1c0-0.2,0.3-0.3,0.2-0.7h-0.2V35
		c0,0,0.2-0.1,0.2-0.5h-0.2v-0.2h0.2v-0.2h-0.2v-0.2h0.2V32h-0.2c0.1-0.4,0.1-0.8,0.2-1.2c-0.1-0.8-0.1-1.6-0.2-2.4h-0.2v-0.2h0.2
		v-5.6c0,0,0.2,0,0.2-0.3h-0.2c-0.1-1.2-0.1-2.4-0.2-3.6h0.2c-0.1-0.9-0.1-1.9-0.2-2.8h-0.2v-0.2h0.2v-1.2h0.2
		c0.1-0.3-0.2-0.5-0.2-0.5c0-0.3,0.2-0.3,0.2-0.3c-0.1-0.1-0.1-0.2-0.2-0.3h0.2v-0.2h-0.2c-0.1-0.4-0.1-0.8-0.2-1.2h0.2
		c0.1-0.3,0.7-1.4,0.9-1.6h0.3c0.1-0.2,0.2-0.3,0.3-0.5h0.9c0.3,0.3,1.3,0,2.1,0c1.9,0,3.4,0.3,5.1-0.2h1.7v0.2
		c0.2-0.1,0.5-0.1,0.7-0.2c0.8,0.1,1.5,0.1,2.3,0.2V10c0.5-0.1,1-0.1,1.6-0.2V10h0.2V9.8c0.3,0.1,0.7,0.1,1,0.2v0.2h1.4v0.2
		c0.3,0,0.5-0.5,0.5-0.5c0.4-0.1,1,0.6,1.2,0.7c0.5,0.1,1,0.1,1.6,0.2c0.1,0.2,0.2,0.3,0.4,0.5h0.5c0.2,0.2,0.3,0.5,0.5,0.7
		c0.2,0.1,0.5,0.1,0.7,0.2c0.1,0.2,0.1,0.3,0.2,0.5c0.2,0.2,0.5,0.3,0.7,0.5v0.5c0.2,0.2,0.5,0.3,0.7,0.5c0.1,0.4,0.1,0.8,0.2,1.2
		c0.1,0.1,0.2,0.1,0.3,0.2v0.5h0.2c0.1,0.4-0.2,0.5-0.2,0.7h0.2v0.9h-0.2V18h-0.2v1.9h0.2c0.1,0.4-0.2,0.7-0.2,0.9h0.2V24h0.2v0.2
		h-0.2c0.1,0.4,0.3,1.3,0.2,1.9h-0.2v0.2c0.1,0.1,0.1,0.2,0.2,0.3h-0.2v2.6h-0.2v0.2h0.2v0.5c0.1,0.2,0.2-0.1,0.2,0.2h-0.2
		c-0.1,1.3-0.2,2.7-0.3,4h-0.2v0.3c-0.1,0.1-0.2,0.1-0.3,0.2v0.5c-0.2,0.1-0.3,0.2-0.5,0.3v0.3c-0.1,0.1-0.2,0.1-0.3,0.2v0.3
		c-0.1,0.1-0.2,0.1-0.3,0.2c-0.7,0.7-1.5,1.5-2.6,1.7v0.3c0.8,0.6,1.6,1.3,2.4,1.9c0.4,0.6,0.4,1.2,1.2,1.4c0.2,0.6,0.3,1.3,0.5,1.9
		h0.2v1c0.6,1.9,1,4.9,0.7,6.8c0.1,0.2,0.1,0.3,0.2,0.5h-0.2c0.1,0.5,0.1,1,0.2,1.6h-0.2c-0.4,1.3,0.3,2.8,0,3.8H300v1.2h0.2v2.6
		h0.2c-0.1,0.2-0.1,0.5-0.2,0.7h0.2C300.6,63.2,300.2,64.7,300,65.4z M324.4,39.5h-1c-0.1,0.1-0.1,0.2-0.2,0.3
		c-0.5,0.2-0.9-0.1-1.2-0.2c-1.3-0.1-2.8,0-3.7,0.3c0.2,1.1,0.3,2.9,0.2,4.3c-0.1,0.2-0.1,0.5-0.2,0.7h0.2v0.5h-0.2
		c0.1,0.2,0.1,0.3,0.2,0.5h-0.2v3.1h0.2c0,0.3-0.2,0.3-0.2,0.3v3h-0.2c0.1,1.3,0.2,2.7,0.3,4c0.7,0,1.1,0.2,1.6,0.3
		c0.6,0.2,1.5-0.1,1.7-0.2h1.2v0.2c0.4-0.1,0.8-0.1,1.2-0.2c0.1,0.2,0.1,0.3,0.2,0.5c0.2,0.2,0.3,1.2,0.2,1.7c0,0-0.2,0-0.2,0.3h0.2
		V61c0.2,1,0,2.4,0,3.8h-0.2V65c-0.6,0-0.8,0-1.2,0.2v0.2c-0.6,0.2-3.6-0.1-4-0.2h-1.7c-0.1,0.2-0.1,0.3-0.2,0.5h-0.4v0.2h-0.2v-0.2
		h-1.9v-0.2h-1.4v-0.2h-2.6v-0.2c-1-0.3-1.9,0.3-2.6,0.3c-0.2-0.5-0.8-1.2-1.2-1.6c0-1.9,0-3.2-0.3-4.5c0.1-0.5,0.1-1,0.2-1.6h-0.2
		v-0.7h0.2c-0.1-0.3-0.1-0.6-0.2-0.9h0.2v-0.2h-0.2v-2.3c0,0,0.2-0.1,0.2-0.3h-0.2v-1.9c0.1-2,0.1-3.9,0.2-5.9h-0.2
		c-0.1-0.4,0.2-0.5,0.2-0.5V44c0,0,0.2,0,0.2-0.3h-0.2V43h0.2v-0.2h-0.2c0.1-0.1,0.1-0.2,0.2-0.3h-0.2v-0.2h0.2v-6.6h-0.2v-0.2h0.2
		v-1.4h-0.2c0.1-0.5,0.1-0.9,0.2-1.4h-0.2V32h0.2v-0.7h-0.2v-0.9h0.2c-0.1-0.2-0.1-0.3-0.2-0.5c-0.1-0.4,0.2-1,0.2-1h-0.2v-1
		c0-0.2,0.2,0.1,0.2-0.2h-0.2v-1c0,0,0.2,0,0.2-0.3h-0.2v-0.7h0.2c0-0.3-0.2-0.3-0.2-0.3c-0.1-0.5,0.2-0.9,0.2-1h-0.2
		c0.1-0.1,0.1-0.2,0.2-0.3c0,0-0.2-0.1-0.2-0.3h0.2v-0.2h-0.2c-0.2-1.1,0.1-2.2-0.2-2.6v-0.2h0.2v-1.7h-0.2v-0.7h0.2
		c0.1-0.4-0.2-0.6-0.2-0.9h0.2v-0.2h-0.2V15h-0.2v-0.2h0.2V14h0.2c-0.1-0.4-0.1-0.8-0.2-1.2c0.2-0.7,0.5-1.4,0.5-2.3h0.3V9.3
		c0.3-0.1,0.4-0.2,0.9-0.2c0.7,0.6,2.6-0.1,3.7,0.2v0.2h0.9v0.2h2.6v0.2c0.7-0.1,1.4-0.1,2.1-0.2v0.2h0.7V10
		c0.4-0.1,0.8-0.1,1.2-0.2V10h0.7v0.2h0.2V10c1-0.1,2.1-0.1,3.1-0.2c0.1,0.2,0.1,0.3,0.2,0.5c0.2,0.2,0.1,0,0.2,0.3h0.3
		c0.1,0.5,0.1,1,0.2,1.6h-0.2V14h-0.2v0.2h0.2v2.1h0.2v1.2h0.2c-0.1,0.4-0.1,0.8-0.2,1.2c-0.7,0.1-0.4,0.1-1,0v-0.3
		c-0.2,0.1-0.5,0.1-0.7,0.2v0.2h-0.9v-0.2c-0.7,0.1-1.4,0.1-2.1,0.2v0.2H319V19c-0.3,0.2-0.3,0.2-0.7,0.3c-0.4,2.3-0.2,4.6-0.2,7.3
		c0,1.1-0.1,2.8,0.2,3.1c0.5,0.5,0.7,0.1,1.4,0.3v0.2h1.9v0.2c0.3,0.1,0.3-0.2,0.3-0.2h1.1v0.2h0.7v-0.2c0.4-0.1,0.5,0.1,0.7,0.2
		c0,0.2-0.2,0.4,0,0.9c0.1,0.1,0.2,0.1,0.3,0.2c-0.1,1.2-0.1,2.3-0.2,3.5h-0.2c-0.2,0.6,0.4,1.3,0.5,1.7l0,2.3
		C324.8,39.1,324.4,39.5,324.4,39.5z M357.3,26v0.5h-0.2v0.2h0.2c-0.1,0.6-0.1,1.2-0.2,1.7c-0.3,0.1-0.7,0.1-1.1,0.2v0.5
		c-0.5,0.1-1.9,0.4-2.6,0.2v-0.2h-0.4v-0.2c-0.2,0.1-0.5,0.1-0.7,0.2v0.2c-0.3,0.1-1.3-0.3-1.9-0.2v0.2h-0.9v-0.2h-1.2
		c-0.5-0.1-1-0.2-1.6-0.3c-0.1-0.2-0.2-0.3-0.3-0.5c-0.1-0.1-0.2-0.1-0.3-0.2v-0.9c-0.2-0.3,0-3.2,0-4.2c-0.1-0.6-0.1-1.3-0.2-1.9
		h-0.2c-0.1-0.2-0.1-0.5-0.2-0.7h-0.2c-0.1-0.5-0.2-1-0.3-1.6h-0.3c-0.1-0.1-0.1-0.2-0.2-0.3h-0.7c-0.2,0.2-0.9,0.4-1.2,0.5
		c-0.2,0.4-0.5,0.8-0.7,1.2v6.3h0.2c0.1,0.7,0.1,1.4,0.2,2.1c0.2,0.2,0.5,0.3,0.7,0.5v0.2h0.3c0.1,0.1,0.1,0.2,0.2,0.3h0.3
		c0.3,0.3,0.6,0.7,0.9,1h0.3c0.1,0.1,0.1,0.2,0.2,0.3c0.9,0.3,1.7,0.6,2.6,0.9c0.1,0.1,0.1,0.2,0.2,0.3c0.3,0.3,0.6,0.4,1,0.5v0.3
		c0.3,0.1,0.6,0.1,0.9,0.2v0.2h0.3c0.1,0.1,0.1,0.2,0.2,0.3c0.2,0.1,0.5,0.1,0.7,0.2c0.1,0.2,0.2,0.3,0.4,0.5h0.3
		c0.1,0.1,0.1,0.2,0.2,0.3h0.3c0.1,0.1,0.1,0.2,0.2,0.3h0.3c0.1,0.1,0.1,0.2,0.2,0.3h0.4v0.2c0.3,0.2,0.3,0.3,0.9,0.3
		c0.1,0.3,0.2,0.7,0.3,1h0.3c0.1,0.1,0.1,0.2,0.2,0.3h0.2c0.1,0.2,0.1,0.5,0.2,0.7h0.2c0.1,0.3,0.2,0.7,0.3,1h0.2
		c0.1,0.5,0.1,0.9,0.2,1.4h0.2v0.5h0.2v0.9c0,0,0.2,0,0.2,0.3h-0.2v0.3h-0.2c-0.2,0.6,0.2,0.8,0.2,1.2h-0.2v2.1h0.2v1.6h0.2v0.2
		h-0.2v0.9h0.2v0.2h-0.2v1.7c0.3,1,0.4,2.3,0.3,3.6c-0.1,0.5-0.1,0.9-0.2,1.4h0.2v1.4h-0.2v0.9h0.2c0.1,0.3,0.1,0.6,0.2,0.9h-0.2
		c-0.1,0.3-0.1,0.7-0.2,1c-0.3,0.1-0.6,0.2-0.9,0.3c0.2,0.6,0.2,1.7-0.2,2.3c-0.3,0.2-0.6,0.5-0.9,0.7v0.3c-0.1,0.1-0.2,0.1-0.3,0.2
		c-0.2,0.3-0.5,0.6-0.7,0.9c-0.4,0.2-0.8,0-1.2,0.2c-0.1,0.1-0.1,0.2-0.2,0.3c-0.3,0.1-0.6,0.1-0.9,0.2v0.2h-0.3
		c-0.1,0.1-0.1,0.2-0.2,0.3h-0.7v0.2c-1.3,0.4-2.4-0.3-3.5-0.3c-1.2,0-2.1,0.3-3.1,0c-0.4,0.1-0.8,0.1-1.2,0.2v-0.2h-0.7v0.2
		c-0.6,0.2-1.4-0.1-1.7-0.2h-3.8v-0.2H336V65c-0.3-0.1-0.6-0.1-0.9-0.2c-0.2-0.3-0.5-0.6-0.7-0.9c-0.4-0.1-0.7-0.2-1-0.3
		c-0.1-0.2-0.2-0.3-0.3-0.5h-0.2v-0.3c-0.1-0.1-0.2-0.1-0.3-0.2v-0.3c0,0-0.3-0.2-0.3-0.3H332v-0.5c-0.1-0.1-0.2-0.1-0.3-0.2
		c-0.1-0.4-0.1-0.8-0.2-1.2h-0.2c0-0.2,0.3-0.3,0.2-0.7c-0.3-1.2,0.1-3-0.2-4.3h-0.2v-0.2h0.2v-1.9c-0.4-1.5-0.3-5.5,0-6.9
		c0.1-0.6-0.5-0.8,0-1.4c0.1-0.6,0.9-1.3,1.6-1.4v0.2h1.4v0.2c0.3-0.1,0.6-0.2,0.9-0.3c0.9,0.2,2.3,0.2,3.5,0.2h1.7v0.2
		c0.2,0.1,0.4,0.1,0.5,0.2v0.2c0.3-0.1,0.6-0.1,0.9-0.2c0.1,0.2,0.3,0.5,0.5,0.7c-0.1,0.3-0.1,0.7-0.2,1h0.2v1.2h0.2v0.2h-0.2V47
		h0.2v1.2h0.2v1h-0.2c0,0.2,0.1-0.1,0.2,0.2V52h0.2c0.2,0.5-0.1,1.3-0.2,1.6c-0.3,0.8,0.1,2.2,0.2,2.8c0.4,0.2,1.3,0.9,1.7,0.5
		c1-0.2,1-0.9,1.6-1.4c0.1-0.8,0.1-1.6,0.2-2.4h-0.2c-0.1-0.2-0.1-0.5-0.2-0.7h-0.2c-0.1-0.3,0.2-0.3,0.2-0.3v-4.3h-0.2
		c0-0.1,0.3-0.6,0.2-1h-0.2v-2.3h0.2c0.1-0.6-0.2-1-0.3-1.4c-0.5-0.2-0.6-0.4-1.2-0.5v-0.3c-0.5-0.1-0.7-0.3-1.1-0.5v-0.2
		c-0.2-0.1-0.5-0.1-0.7-0.2c-0.1-0.1-0.1-0.2-0.2-0.3h-0.3c-0.2-0.2-0.3-0.5-0.5-0.7h-0.3c-0.2-0.2-0.3-0.5-0.5-0.7h-0.4
		c-0.1-0.1-0.1-0.2-0.2-0.3h-0.3V39h-0.4v-0.2c-0.2-0.1-0.3-0.1-0.5-0.2v-0.3c-0.3-0.1-0.7-0.2-1-0.3c-0.1-0.1-0.1-0.2-0.2-0.3h-0.5
		v-0.2h-0.4v-0.2h-0.3c-0.1-0.2-0.2-0.3-0.3-0.5h-0.3c-0.1-0.1-0.1-0.2-0.2-0.3h-0.4c-0.2-0.2-0.3-0.5-0.5-0.7h-0.3
		c-0.1-0.2-0.2-0.3-0.4-0.5c-0.3-0.1-0.6-0.1-0.9-0.2v-0.2c-0.2-0.1-0.3-0.1-0.5-0.2c-0.5-1-1.1-2.1-1.6-3.1c-0.1-1.3-0.1-2.7-0.2-4
		c0.1-0.3,0.3-1.2,0.2-1.7c-0.3-1.1-0.2-4.3-0.2-6.3v-2.3h0.2v-0.2h-0.2l0.2-1.6h0.2v-0.3h0.2v-0.5h0.2c0.1-0.5,0.1-0.9,0.2-1.4h0.2
		c0.1-0.3,0.2-0.7,0.3-1h0.2v-0.3c0.2-0.2,0.5-0.3,0.7-0.5V11c0.1-0.1,0.2-0.1,0.3-0.2v-0.2h0.4c0.1-0.1,0.1-0.2,0.2-0.3
		c0.2-0.1,0.5-0.1,0.7-0.2c0.1-0.1,0.1-0.2,0.2-0.3c0.2-0.1,0.5-0.1,0.7-0.2c0.1-0.1,0.1-0.2,0.2-0.3c0.3-0.1,0.6-0.1,0.9-0.2
		c0.1,0.2,0.1,0.3,0.2,0.5h1.1v0.2h0.2V9.6h2.3V9.5h1.1V9.3h0.2c0.2,0-0.1,0.2,0.2,0.2c0.2,0-0.1-0.1,0.2-0.2h0.7v0.2h3.1
		c2.1,0,4.7-0.2,6.3,0.3h0.9V10h0.3c0.1,0.2,0.2,0.3,0.3,0.5h0.3c0.3,0.4,0.7,0.8,1.1,1.2c0.1,0.1,0.2,0.1,0.3,0.2
		c0.1,0.2,0.1,0.5,0.2,0.7c0.1,0.1,0.2,0.1,0.3,0.2v0.3h0.2c0.4,0.4,0.5,0.5,0.5,1.4h0.2c-0.1,0.6-0.2,1.3-0.3,1.9h0.2v0.3
		c0.1,0.1,0.2,0.1,0.3,0.2v1h0.2v5.2c-0.1,0.1-0.1,0.2-0.2,0.3h0.2v0.9h0.2c-0.1,0.5-0.1,1-0.2,1.6L357.3,26z M387.6,51.4
		c-1.8-0.2-2.1,2-0.8,1.9c0.5,0.1,1,0.4,0.5,0.8c-0.4,0.4-1,0.2-0.6,1c0.2,0.1,0.5,0.1,0.7,0.2c-0.8,0.6,0.4,1-0.5,1.5
		c-0.7,0.6-1.4,0.4-1,1.5c0.8,0.1,1.1-0.2,1.8-0.5c0.1-0.1,0.6-0.4,0.7,0c0.1,0.4-0.4,0.4-0.6,0.5c-1.1,1.2,0.6,1.9,1.7,1.4l0.1,0
		c-0.4,0.8-0.9,1.6-1.3,2.4c-0.2,0.1-0.3,0.2-0.5,0.3v0.3h-0.2c-0.1,0.2-0.2,0.3-0.3,0.5h-0.3c-0.1,0.1-0.1,0.2-0.2,0.3
		c-1.2,0.4-2.3,0.8-3.5,1.2h-2.3v-0.2h-2.4V65c-0.7,0.2-1.6-0.1-2.1-0.2c-0.5,0-0.6,0.1-0.9,0.2c-1.1,0.2-2.3-0.1-3.1-0.2h-2.1v-0.2
		h-0.7v-0.2H369v-0.2h-0.7v-0.2h-0.7V64h-0.3v-0.2h-0.3c-0.1-0.1-0.1-0.2-0.2-0.3c-0.4-0.4-1-1-1.6-1.2c-0.2-0.5-0.3-1-0.5-1.6
		c-0.1-0.1-0.2-0.1-0.3-0.2V60h-0.2v-0.5h-0.2V59h-0.2V56h0.2c0.1-0.4-0.2-0.5-0.2-0.7h0.2c0.1-0.6,0.1-1.3,0.2-1.9h-0.2v-1.2
		c0,0,0.2-0.1,0.2-0.3h-0.2v-3.5h-0.2c-0.2-0.7,0.2-1.4,0.2-1.9c0-0.4-0.2-0.3-0.2-0.3c-0.2-0.7,0.1-1.6,0.2-2.1
		c0.8-0.5,0.9-1,2.3-1c0.4-0.3,1.6,0.4,2.4,0.2c0.9-0.2,2.4-0.2,3.5-0.2h0.9v-0.2h0.2c0.1,0.2,0.2,0.3,0.3,0.5
		c0.2,0.1,1.2,0.3,1.4,0.3c0.1,0.2,0.1,0.3,0.2,0.5h0.2v0.3h0.2v1.6c0,1.2,0.2,2.3,0.2,3.3c0,1.3-0.3,2.4,0,3.3v1h0.2v1h0.2
		c0.1,0.2,0.1,0.5,0.2,0.7h0.2c0.1,0.2,0.2,0.3,0.3,0.5h0.2c0.2,0.1,0,0,0.2,0.2c0.4-0.1,0.2,0,0.3-0.2c1-0.3,0.7-0.7,1.1-1.6
		c0.4-1.1,0.6-1.4,0.3-2.8h-0.5v-0.2h0.2v-0.2h0.2v0.2h0.2v-0.7h0.2c0,0-0.2-0.6-0.2-0.9h0.2v-0.2h-0.2v-0.2h0.2
		c0.1-0.3-0.2-0.3-0.2-0.3v-1.9h-0.2v-3.1h-0.2v-0.9h-0.2V43c-0.2-0.4-0.6-0.7-0.7-1.2c-0.4-0.1-0.4-0.2-0.7-0.3v-0.2h-0.5
		c-0.1-0.1-0.1-0.2-0.2-0.3c-0.2-0.1-0.5-0.1-0.7-0.2c-0.2-0.2-0.3-0.5-0.5-0.7h-0.4c-0.1-0.1-0.1-0.2-0.2-0.3h-0.3
		c-0.1-0.2-0.2-0.3-0.3-0.5c-0.7-0.2-1.4-0.5-2.1-0.7c-0.1-0.2-0.2-0.3-0.3-0.5h-0.4c-0.1-0.2-0.2-0.3-0.3-0.5h-0.4
		c-0.1-0.1-0.1-0.2-0.2-0.3c-0.2-0.1-0.5-0.1-0.7-0.2c-0.1-0.2-0.2-0.3-0.3-0.5c-0.4-0.1-0.7-0.2-1-0.3c-0.1-0.2-0.2-0.3-0.3-0.5
		h-0.3c-0.2-0.2-0.3-0.5-0.5-0.7h-0.2v-0.3c-0.1-0.1-0.2-0.1-0.3-0.2V34c-0.2-0.2-0.5-0.3-0.7-0.5c-0.1-0.2-0.1-0.5-0.2-0.7
		c-0.2-0.1-0.3-0.2-0.5-0.3c-0.1-0.3-0.1-0.7-0.2-1h-0.2V31h-0.2c-0.3-0.9,0.2-1.2,0-2.1h-0.2v-0.2h0.2c0-0.4-0.2-0.3-0.2-0.3v-2.1
		h0.2c-0.1-0.3-0.2-0.6-0.3-0.9h0.2V23h0.2c0-0.2-0.1,0.1-0.2-0.2v-1h0.2c0-0.2-0.1,0.1-0.2-0.2v-1.7c0.1-1.2,0.1-2.3,0.2-3.5
		c0-0.3-0.2-0.9-0.2-0.9h0.2v-0.7h0.2v-0.3h0.2V14h0.2v-0.7h0.2v-0.5h0.2v-0.3h0.2v-0.3c0.6-0.6,1.3-1.2,1.9-1.7h0.5
		c0.1-0.2,0.2-0.3,0.3-0.5h1c0.8-0.2,2.6-0.4,3.7-0.2v0.2c0.2-0.1,0.4-0.1,0.5-0.2c0.7,0,1.6,0.4,2.4,0.2V9.6h0.9V9.5
		c1.9,0.1,3.8,0.2,5.8,0.3v0.3c1.2-0.1,2.5-0.5,3.5-0.7c0.4,0.7,0.8,0.5,1.4,0.9v0.2c0.4,0.3,0.5,0.6,1.1,0.7c0.1,0.5,0.4,0.7,0.7,1
		h0.2c0.1,0.2,0.1,0.5,0.2,0.7c0.1,0.1,0.2,0.1,0.3,0.2v3.3c0.1,1.1,0.1,2.2,0.2,3.3h-0.2v3.6h-0.2c-0.1,0.4,0.2,0.5,0.2,0.7h-0.2
		c-0.1,0.9-0.1,1.7-0.2,2.6h0.2v0.7h-0.2v0.3h-0.2V28h-0.2c-0.3,0.6,0.1,0.7-0.9,0.9c-0.4-0.3-2,0.1-3-0.2v-0.2
		c-0.3,0.1-0.7,0.1-1,0.2v-0.2h-1.7v-0.2h-2.1c0,0,0-0.1-0.3-0.2c-0.4-0.7-0.8-0.8-0.9-1.9c0,0,0.1-2.8,0-3.3h-0.2v-0.9h0.2V22h-0.2
		c0-0.4,0.2-0.3,0.2-0.3c-0.1-0.5-0.1-0.9-0.2-1.4h-0.2c-0.1-0.3-0.1-0.6-0.2-0.9h-0.2c-0.3-0.4-0.6-0.5-0.7-1
		c-0.3-0.1-0.6-0.1-0.9-0.2c-0.9,1-1.8,0.5-1.7,2.6h-0.2v1.4h-0.2v3.1c0,0-0.2,0-0.2,0.3h0.2c0.3,1.2-0.2,2.1,0.3,3
		c0.5,0.5,1.1,0.9,1.6,1.4c0.3,0.1,0.6,0.1,0.9,0.2c0.2,0.2,0.3,0.5,0.5,0.7h0.3c0.1,0.1,0.1,0.2,0.2,0.3h0.3
		c0.1,0.2,0.2,0.3,0.3,0.5h0.3c0.1,0.1,0.1,0.2,0.2,0.3h0.3c0.1,0.2,0.2,0.3,0.3,0.5h0.5v0.2c0.2,0.1,0.4,0.1,0.5,0.2
		c0.1,0.1,0.1,0.2,0.2,0.3h0.5c0.1,0.1,0.1,0.2,0.2,0.3h0.3v0.2h0.3V34h0.3v0.2h0.3c0.1,0.2,0.2,0.3,0.4,0.5c0.4,0.1,0.7,0.2,1,0.3
		c0.1,0.2,0.2,0.3,0.3,0.5h0.4c0.2,0.2,0.3,0.5,0.5,0.7h0.3c0.3,0.4,0.7,0.8,1,1.2c0.1,0.1,0.2,0.1,0.3,0.2c0.1,0.2,0.1,0.5,0.2,0.7
		c0.2,0.1,0.3,0.2,0.5,0.3v0.5h0.2v0.3h0.2v0.9h0.2v1h0.2v0.5h0.2v2.9h0.2v0.9h0.2c-0.1,0.3-0.1,0.6-0.2,0.9
		c0.2,0.9,0.4,2.2,0.4,3.5C389.4,50.5,388.8,51.6,387.6,51.4z M437.4,73.4L437.4,73.4h-4.3l-4.3,0.1l-4.3,0.1l-4.3,0l-4.3-0.2
		l-4.3-0.2l-4.3,0.1l0-4.9l-0.2-4.9l2-3.6l2.3-3.5l2-3.6l2-3.6l2.1-3.6l2.2-3.5l1.9-3.7l1.1-2l0.9-2.2l0.4-2.1l0.2-4.6l-0.2-4.6
		l-0.1-1.1l0-0.4l-0.1-0.4l-1.3-0.9l-1.6,0.5l-1,2l0,4.8l0.1,4.7l-4.3,0.1l-4.3,0.1l-4.4-0.1l0.2-4.1l0-4.1l0-4.1l-0.3-2.1l0.5-2.1
		l0.5-1.9l2.2-2.7l3.5-1.5l1,0l1-0.2l3.3,0.1l3.3,0l3.3-0.3l3.4,0.5l2.9,0.8l2.7,1.3l1.7,2.7l0.6,2.5l0.2,1.6v1.6l-0.1,4.6l0.2,4.6
		l0.1,4.6l-0.4,2l-0.3,2l-1.7,3.6l-2.3,3.2l-1.9,3.5l-2.1,3.4l-1.7,3.6l-2.4,3.8l-2.4,4l4.2-0.2l4,0.1l3.5-0.1l3.7,0l-0.3,5.1
		L437.4,73.4z"/>
	<path class="st0" d="M205.8,30.1l0,1.5c0.1-0.6,0.4-1,0.8-1.4C206.2,30.5,206,30.4,205.8,30.1z"/>
	<path class="st0" d="M196.2,42.1H196v-0.5h-0.2c0.1-0.3,0.1-0.7,0.2-1h-0.2c0-0.2,0.3-0.3,0.2-0.7h-0.2v-2.1c0-0.2,0.3-0.4,0.2-0.9
		h-0.2v-2.1h0.2v-1.9h-0.2v-2.3c0,0,0.3-0.1,0.2-0.5h-0.2c-0.1-0.9-0.1-1.7-0.2-2.6h0.2v-0.9h-0.2v-0.2h0.2v-0.9h0.2
		c0.2-0.6-0.2-0.8-0.2-1.2h0.2c-0.1-0.5-0.1-0.9-0.2-1.4h0.2c0.1-0.5-0.2-0.5-0.2-0.5v-1c-0.2-0.7-0.6-1.5-0.9-2.1
		c-0.5-0.1-0.9-0.1-1.4-0.2v0.2H193v0.2c-0.1,0.1-0.2,0.1-0.3,0.2v0.3c-0.1,0.1-0.2,0.1-0.3,0.2c-0.1,0.3-0.1,0.6-0.2,0.9
		c-0.1,0.1-0.2,0.1-0.3,0.2c0.1,4,0.2,8,0.3,12v0.3H192l0.2,0.5v3.8c-0.1,0.6-0.1,1.2-0.2,1.7h0.2v1.2H192v0.7h0.2
		c0.1,0.4-0.2,0.4-0.2,0.7h0.2c0,0.2-0.3,0.7-0.2,1.2h0.2V44h0.2c-0.1,0.2-0.1,0.3-0.2,0.5h0.2c-0.1,0.5-0.1,0.9-0.2,1.4
		c0.4,1.3,0.3,3,0.3,4.7v2.1c0.1,0.6,0.2,2.3,0.2,3.6c0.9,0.5,0.8,1,2.3,1c0.3-0.4,0.5-0.3,0.7-0.5c0.4-0.5,0.4-1.3,0.3-2.3
		c0.3-0.4,0-1.6,0-2.4v-7.5h-0.2c-0.2-0.5,0.1-1.3,0.2-1.6c-0.1-0.1-0.1-0.2-0.2-0.3C195.9,42.6,196.3,42.7,196.2,42.1z"/>
</g>
</svg>
