<?xml version="1.0" encoding="utf-8"?>
<!-- Generator: Adobe Illustrator 28.2.0, SVG Export Plug-In . SVG Version: 6.00 Build 0)  -->
<svg version="1.1" id="레이어_1" xmlns="http://www.w3.org/2000/svg" xmlns:xlink="http://www.w3.org/1999/xlink" x="0px"
	 y="0px" viewBox="0 0 500 139.9" style="enable-background:new 0 0 500 139.9;" xml:space="preserve">
<style type="text/css">
	.st0{fill:#FFFFFF;}
</style>
<path class="st0" d="M442.7,76.7l-1.2,3.2l-1.2-3.2H439v4.5h0.8v-3.5l1.3,3.5h0.6l1.3-3.5v3.5h0.9v-4.5H442.7z M434.4,76.7v0.7h1.4
	v3.8h0.9v-3.8h1.4v-0.7H434.4z M140.4,76.8h-14.1l3,7.2l-24.6,54.9h16.6l2.2-5.3l24-4.6l4.2,9.8h16.6L140.4,76.8z M129.5,118.9
	L129.5,118.9l6.6-16.2l6,13.9L129.5,118.9z M233.3,0.2v62.1h-15.9V30.7l-13.9,16.5h-1.2l-13.8-16.5v31.6h-16V0.2h9.3L203,26.9
	l21.6-26.7L233.3,0.2z M500,0.2l-6.5,14.6h-20.2v59.1L457,76.7v-62h-20.9L439,22v40.3h-16.3V36.7l-20.9,4v21.6h-16.2V0.2h16.2v26.3
	l20.9-4V0.2H500z M283.3,76.7v14.6h-18.5v47.6h-16.3V91.3h-15.5l-6.5-14.6H283.3z M257.2,14.7v9.8h24.5l-6.4,14.2h-18.1v23.6H241
	V0.2h42.3v14.6L257.2,14.7z M140.7,0.2h-14.1l3,7.3l-24.6,54.9h16.6l2.2-5.3l24-4.6l4.3,9.9h16.6L140.7,0.2z M129.8,42.3L129.8,42.3
	l6.6-16.2l5.9,13.9L129.8,42.3z M77,14.7v9.8h24.5L95,38.7H77v9h26.1l-6.6,14.6H60.8V21.2l2.9-6.5H43v62l-16.3-3v-59H6.5L0,0.2
	h103.1v14.6L77,14.7z M377.1,32.6v29.7l-13.8-2.4c-5.2,2.9-10.4,4.1-17.5,4.1c-18.2,0-31.2-13.2-31.2-32s12.9-32,31.2-32
	c15.6,0,25.9,8.5,29.7,21.5h-16.8c-2.8-4-7.4-6.3-12.3-6.1c-9.1,0-15.2,6.6-15.2,16.6s6.1,16.6,15.2,16.6c6.7,0,14.8-4,14.8-16
	L377.1,32.6L377.1,32.6z M227.5,116.8c-2.8,14-13.2,23.2-30.3,23.1c-18.3-0.1-31.2-13.2-31.2-32s12.9-32,31.2-32
	c15.8,0,26.2,8.7,29.9,21.9h-16.7c-2.6-4.1-7.1-6.5-12.6-6.5c-9.1,0-15.3,6.6-15.3,16.6s6.1,16.6,15.3,16.6c6.1,0,10.8-2.9,13.3-7.7
	L227.5,116.8z M117.7,76.7l-6.5,14.6H95.6v47.6H79.3V91.3H60.8V76.7L117.7,76.7z M410.9,100.6c18,4.5,26.3,7.8,26.3,19.4
	s-7.8,19.9-27.6,19.9c-20.1,0-27.8-10.3-27.8-23.1h15.7c0,6.1,4,9.6,12.1,9.6c6.2,0,10.6-2.2,10.6-5.5c0-3-5-4.4-12-6.3
	c-16.9-4.5-24.6-8.6-24.6-20c0-9.1,6.1-18.9,26.1-18.9s25.7,9.8,25.7,20.3h-15.7c0-3.9-2.4-7-10-7s-9.3,2.9-9.3,5.3
	C400.3,97.5,403.9,98.8,410.9,100.6 M376.2,116.8c-2.8,14-13.2,23.2-30.3,23.1c-18.3-0.1-31.2-13.2-31.2-32s13-32,31.2-32
	c15.8,0,26.2,8.7,29.9,21.9H359c-2.6-4.1-7-6.5-12.6-6.5c-9.1,0-15.3,6.6-15.3,16.6s6.1,16.6,15.3,16.6c6.1,0,10.8-2.9,13.3-7.7
	L376.2,116.8z M291,0.2h16.2v62.1H291V0.2z M291,76.7h16.2v62.1H291V76.7z"/>
</svg>
