<?xml version="1.0" encoding="utf-8"?>
<!-- Generator: Adobe Illustrator 28.2.0, SVG Export Plug-In . SVG Version: 6.00 Build 0)  -->
<svg version="1.1"
	 id="Layer_2" xmlns:cc="http://creativecommons.org/ns#" xmlns:svg="http://www.w3.org/2000/svg" xmlns:dc="http://purl.org/dc/elements/1.1/" xmlns:rdf="http://www.w3.org/1999/02/22-rdf-syntax-ns#"
	 xmlns="http://www.w3.org/2000/svg" xmlns:xlink="http://www.w3.org/1999/xlink" x="0px" y="0px" viewBox="0 0 908.3 212.1"
	 style="enable-background:new 0 0 908.3 212.1;" xml:space="preserve">
<style type="text/css">
	.st0{display:none;}
	.st1{display:inline;}
	.st2{fill:#FFFFFF;}
</style>
<g id="g49" transform="translate(0.0013673,0.004)" class="st0">
	<path id="path11" class="st1" d="M36.2,156.3c-2.5,0-5.1-1.6-5.2-5.1c0-1.1,0-16.8,0-40c0-2.4,2.3-2.5,3.7-2.6c0.1,0,0.2,0,0.2,0
		c0-0.1,0-0.3,0-0.5c0-0.5,0-1.3,0.5-1.9c0.5-0.6,1.2-0.6,1.6-0.6c0,0,0.1,0,0.1,0c0.1-0.6-0.1-2.3-1.1-2.9c-0.4-0.2-1-0.4-1.6-0.7
		c-1.6-0.6-3.5-1.2-3.5-2.8C31,97.4,31,95.4,31,93.4c0-0.9,0-1.7,0-2.5c0-1.1,0.6-2,1-2.8c0.2-0.3,0.4-0.7,0.4-0.8
		c0-0.1,0-0.1-0.1-0.3c-0.2-0.3-0.4-0.7-0.4-1.3c0-1.1,1.1-1.3,1.9-1.4c-0.1-0.1-0.3-0.2-0.4-0.3c-0.3-0.2-0.6-0.5-0.8-0.7l-0.1-0.1
		c-0.5-0.5-1.5-1.4-1.5-2.9c-0.2-15.5,0-28.5,0-33.3c0-1,0-1.6,0-1.7c0-2-0.3-2.1-1.7-2.2c-2.1,0-7.7,0-8.3,0
		c-2.3,0-3.8-1.7-3.8-4.3c0-0.1,0-14,0.1-15.4c0.1-3,1.8-4.8,4.8-4.9c0.8,0,6.9,0,18.2,0c9.4,0,20,0,24.8,0l2.6,0
		c2.3,0,4.9,0.5,5,4.5c0,2.6,0.1,14.2,0.1,15.8c0,2.4-1.6,4.1-3.6,4.1c-0.9,0-3,0-5,0c-1.9,0-3.6,0-4.3,0c-1.3,0-1.7,0.2-1.7,1.4
		c0,1,0,24.5,0,49.1c0,27.2,0,55.8,0,57.2c0,1.7,0,5.6-4.6,5.6l-0.1,0c-0.4,0-1,0-1.7,0c-4.6,0-14,0.1-15.6,0.1L36.2,156.3z"/>
	<path id="path13" class="st1" d="M88.3,141.7c-2.7,0-4-1.4-4.3-4.5c-0.1-0.8-0.1-8.3-0.1-22.3c0-0.6,0.4-2.3,1.6-2.3h0
		c0.1,0,0.3,0,0.4,0c0-0.3,0-0.6-0.1-0.8c-0.1-0.2-0.5-0.7-0.7-0.8c-0.1-0.1-0.1-0.1-0.2-0.1c-0.4-0.3-1.1-0.8-1.1-1.7
		c0-32.7,0.2-83.8,0.2-85.4c0-3,2.3-5.1,5.4-5.2c1.6,0,15.7,0,24.2,0c3.2,0,5.5,0,6.2,0c3.2,0,4.3,2.1,4.4,4.1
		c0,1.7,0.1,9.9,0.1,11.3c0,2.4-2,4.5-4.4,4.6l-0.3,0c-0.3,0-0.6,0-1,0l-0.1,0c-0.9,0-1.4-0.8-1.7-1.4c-0.1-0.2-0.2-0.4-0.3-0.6
		c-0.1,0-0.1,0-0.2,0c-0.2,0-0.4,0-0.5,0.1c0,0.1-0.1,0.2-0.1,0.2c-0.2,0.6-0.6,1.7-1.8,1.8c-1.4,0-2.6,0-3.2,0
		c-1,0-1.6,1.4-1.6,2.3c0,1.2,0,18.4,0,19.9c0,1.7,1.9,1.7,2.1,1.7c0.7,0,2.3,0,3.9,0.1c1.9,0,4,0.1,5.2,0.1c2.4,0,3.9,1.5,4,3.9
		c0.1,1.8,0,11.1-0.1,13c-0.1,2.7-2.6,4.7-4.7,4.8c-1.4,0-5.6,0-8.7,0c-0.7,0-0.9,0.2-1,0.3c-0.5,0.5-0.6,1.8-0.6,3.1l0,0.7
		c0.1,8.1,0,14.9-0.1,20c0,1.2-1,1.7-1.6,2c0,0-0.1,0.1-0.2,0.1c0,0.3,0,1.1,0.1,1.4c0,0,0,0.1,0,0.1c0,0,0.1,0,0.2,0.1
		c0.3,0.1,1.4,0.4,1.4,1.6c0,2.7,0,5.4,0,5.8c0,1.2,0.3,1.5,1.6,1.5c1.5,0,7.2,0,8.9,0c2.6,0,4.4,2.2,4.4,5.2c0,1.7,0,8.9-0.1,10.8
		c0,2.6-1.5,4.3-3.8,4.3c-0.8,0-7.9,0-15.2,0C97.4,141.7,89.3,141.7,88.3,141.7L88.3,141.7z"/>
	<path id="path15" class="st1" d="M138.5,142.6c-1.3,0-2.7-0.1-3.6-1.1c-0.6-0.7-0.8-1.6-0.7-2.8c0.1-0.9,13.7-112.4,13.9-113.9
		c0.4-2.2,2-5.4,5-5.5c0.4,0,1.1,0,2.2,0c4.6,0,14.8,0.1,16.4,0.1c3.4,0,5.3,1.7,6,5.5c0.3,1.5,5.8,40.7,10.2,72.3
		c2.9,20.3,5.3,37.8,5.5,39c0.4,2.4,0.4,4.2-0.6,5.4c-0.5,0.6-1.4,1-2.4,1c0,0,0,0,0,0c-2.3,0-13.8-0.1-15.9-0.2
		c-3.5-0.1-5.3-1.7-5.4-4.6c0-0.7,0-2.4,0-4.7c0-4.1,0.1-9.7-0.1-11.1c-0.2-2.4-0.6-3.5-2.7-3.5c-1,0-2.2,0-3.2,0
		c-0.9,0-1.8,0-2.4,0c-1.9,0-2.2,0.9-2.2,1.9c0,1.3-0.1,5.5-0.2,9.3c-0.1,3.1-0.1,6.1-0.1,6.8c0,4.7-2.6,5.7-4.2,5.9
		C152,142.6,143.4,142.6,138.5,142.6L138.5,142.6z M163.4,67.8c-0.5,3.3-2.8,24-2.9,25.4c-0.1,1.2,0.3,1.9,1.3,2.1
		c1.2,0.2,2.2,0.1,3.5-0.2c0.5-0.1,0.7-0.2,0.6-2.1c-0.1-0.7-0.4-4.8-0.8-9.6c-0.1-1.5,1.5-1.9,2.5-2.1c0,0,0.1,0,0.2,0
		c-0.2-0.2-0.5-0.3-0.7-0.4c-1-0.7-1.6-1.1-1.9-1.5c-0.6-0.9-0.7-1.5-0.7-2.3l0-0.3C163.9,70.3,163.6,68.4,163.4,67.8L163.4,67.8z"
		/>
	<path id="path17" class="st1" d="M546.8,142.5c-2.5,0-5.1-1.6-5.2-5.1c0-1.5,0-25.3,0-48.3c0-21.1,0-41,0-41.9c0-2-0.3-2.1-1.7-2.2
		c-2.1,0-5.3,0-6.2,0c-2.4,0-3.8-2.6-3.8-5c0-1.8,0.1-14.8,0.2-16c0.1-3,1.8-4.8,4.8-4.9c0.6,0,3.8,0,8.1,0l1.8,0
		c1.2,0,1.5,1.1,1.7,1.5c0,0,0,0.1,0,0.1c0.6,0.1,1.2,0.2,1.9,0.3c1.2,0.2,2.4,0.4,3.5,0.4c0.6,0,1.1-0.1,1.6-0.2
		c0.1-0.1,0.3-0.4,0.4-0.6c0.3-0.6,0.8-1.5,1.8-1.5c7.8,0,15.6,0,19.3,0l2.1,0c2.3,0,4.9,0.5,5,4.5c0,1.8,0,7.8,0,12.2
		c0,2.1,0,3.7,0,4.3c0,2-1.3,4.9-3.6,4.9c-0.9,0-2.6,0-4.2,0c-1.5,0-3,0-3.6,0c-1.3,0-1.7,0.2-1.7,1.4c0,0.7,0,11.3,0,24.9
		c0,0.8-0.4,1.4-0.7,1.9c-0.2,0.3-0.5,0.7-0.5,1c0,0.2,0.2,0.5,0.3,0.8c0.2,0.5,0.5,1,0.5,1.7c0,0.2,0.1,0.4,0.2,0.7
		c0.1,0.4,0.2,0.8,0.2,1.3c0,4.9,0,10,0,15c0,10.2,0,19.8,0,27.5c0,0.6-0.2,1-0.5,1.4c-0.2,0.2-0.6,0.5-1.2,0.5
		c-0.4,0-0.7-0.1-1.1-0.2c-0.1,0-0.3-0.1-0.4-0.1c-0.3,0-0.9,0.8-0.9,1.2c0,0.1,0.4,0.3,1.2,0.3c0.2,0,0.5,0,0.6-0.1
		c0.6-0.1,1.2,0,1.6,0.4c0.7,0.7,0.7,1.9,0.7,2.4l0,0.1l0,9.7c0,1.7,0,5.6-4.6,5.6h-0.1c-0.4,0-1,0-1.7,0c-4.5,0-14,0.1-15.6,0.1
		L546.8,142.5z"/>
	<path id="path19" class="st1" d="M668.4,141.7c-2.8,0-4.3-1.5-4.6-4.5c-0.2-2.9,0.1-112.5,0.1-113.5c0-2.9,2.5-5.1,5.7-5.1
		c1.6,0,15.8,0,24.2,0c3.1,0,5.5,0,6.1,0c2.6,0,4.3,1.6,4.4,4.1c0,1.6,0.1,9.8,0.1,11.3c0,2.4-2,4.5-4.4,4.6
		c-1.7,0.1-7.5,0.1-9.2,0.1c-1,0-1.6,1.4-1.6,2.3c0,1.5,0,18.4,0,19.9c0,1.7,1.9,1.7,2.1,1.7c0.7,0,2.3,0,3.9,0.1
		c1.9,0,4,0.1,5.2,0.1c2.4,0,3.9,1.5,4,3.9c0.1,1.7,0,11.1-0.1,13c-0.1,2.7-2.6,4.7-4.7,4.8c-1.5,0-6.9,0-8.7,0
		c-0.7,0-0.9,0.2-1,0.3c-0.5,0.5-0.6,1.8-0.6,3.1c0,0.8,0,5-0.1,10.4c-0.1,8.4-0.1,20-0.1,21.3c0,1.2,0.3,1.5,1.6,1.5
		c1.6,0,7.2,0,8.9,0c2.6,0,4.4,2.2,4.4,5.2c0,1.6,0,8.9-0.1,10.8c0,2.6-1.5,4.3-3.8,4.3c-0.8,0-7.9,0-15.2,0
		C677.5,141.7,669.4,141.7,668.4,141.7L668.4,141.7z"/>
	<path id="path21" class="st1" d="M360.3,156.4c-0.8,0-5,0-9.3,0c-4.6,0-9.4,0-10.3,0c-2.8,0-4.3-1.5-4.6-4.5
		c-0.1-1.3-0.1-24.8,0-52.1c0-23.9,0.1-50.9,0.1-65.5c0-1.4,0.9-1.8,1.3-1.9c0,0,0,0,0.1,0c0,0,0,0,0,0c0,0,0,0,0-0.1c0,0,0,0-0.1,0
		c-0.4-0.1-1.3-0.4-1.3-1.7c0-2.5,0-4.8,0-7l0-0.2c0-2.9,2.3-5.1,5.4-5.1c1.6,0,16.2,0,24.9,0c3.2,0,5.6,0,6.2,0
		c2.6,0,4.3,1.6,4.4,4.1c0,1.6,0.1,12.7,0.1,14.2c0,2.4-2,4.5-4.4,4.6c-1.6,0.1-5.3,0.2-7.1,0.2c-1,0-1.6,1.4-1.6,2.3
		c0,1.4,0,22.7,0,24.1c0,1,0.7,1.5,2.1,1.5c0.7,0,1.7,0,2.7,0c1.2,0,2.6-0.1,3.7-0.1c2.4,0,3.9,1.5,4,3.9c0.1,1.7,0,12.9-0.1,14.9
		c-0.1,2.7-2.4,4.5-4.5,4.6c-1.5,0-3.9,0-6.3,0c-0.6,0-0.9,0.2-1.1,0.4c-0.5,0.5-0.8,1.6-0.8,3.3c0,1.2,0,2.9-0.1,4.9
		c-0.1,4.4-0.2,10.4,0.1,15.5c0,1.1-0.4,1.6-0.8,1.9c-0.3,0.3-0.3,0.4-0.3,0.8c0,0,0,0,0,0.1c0.9,0.4,0.8,1.4,0.8,1.9
		c0,1.1-0.8,1.6-1.3,2.1c-0.5,0.4-1.1,0.8-1.5,1.7c-0.2,0.4-0.1,0.7-0.1,0.7c0,0,0.1,0,0.1,0c0.1,0,0.1,0,0.2,0
		c0.2,0,0.5-0.1,0.9-0.1c0.6,0,1.1,0.2,1.5,0.5c0.2,0.2,0.5,0.6,0.5,1.3c-0.1,12.6,0,24.4,0,24.5C364,154.8,362.6,156.4,360.3,156.4
		L360.3,156.4z"/>
	<path id="path23" class="st1" d="M273.7,141.5c-3.2,0-6.5,0-8.3,0l-1.3,0c-1.7,0-3.3-1.1-3.3-3.5V91.6c-0.8,4.4-3.1,17.3-4.8,27.1
		c-1.6,9.3-2.9,16.6-3.1,17.4l-0.1,0.6c-0.4,1.9-0.9,4.1-3.1,4.1c-0.8,0-2.5,0-4.2,0c-1.5,0-3,0-3.7,0c-1.9,0-3.2-1.2-3.7-3.3
		c-0.5-1.7-8.6-41.2-9.7-46.3c-0.1,5.2-0.2,42.2-0.2,45.9c0,2.3-1,3.5-3.2,3.5c-0.5,0-2,0-4,0.1c-3.3,0.1-7.7,0.2-10.1,0.2
		c-0.8,0-1.3,0-1.6,0c-2.8-0.3-2.8-2.6-2.8-3.7c0-0.1,0-0.7,0-1.7c-0.2-37.7-0.2-69,0-88c0-1.5,1.4-1.8,2.1-2c0.1,0,0.2,0,0.3-0.1
		c-0.5-0.3-1.4-0.8-1.3-1.9c0.1-1.1,0.8-1.5,1.4-1.7c-0.2-0.3-0.5-0.5-0.7-0.7c-1.1-1-1.6-1.6-1.6-2.3c0-8.6,0-14.1,0-14.2
		c0-1.7,0.3-3,1.1-3.8c0.6-0.6,1.4-0.9,2.3-0.9c1.2,0,16.5-0.1,22.7-0.1c1.5,0,2.4,0,2.7,0c2,0.1,4,1.7,4.5,3.7
		c0.2,0.7,1.2,6.4,2.3,13c1.3,7.2,2.9,16.1,3.1,16.9c0,0.1,0,0.1,0,0.2c0,0,0-0.1,0-0.1c0.4-2,5-29.6,5-29.9c0.3-2.2,2-3.8,4.2-3.8
		c0.1,0,0.4,0,0.9,0c2.9,0,11.9,0.1,17.9,0.1c3.1,0,5.5,0,5.9,0c2.8,0,5.8,1.5,5.9,4.3c0.1,2.4,1.3,111.9,1.3,112.7
		c0,3-1.5,4.3-2.9,4.5C283,141.4,282.4,141.5,273.7,141.5L273.7,141.5z"/>
	<path id="path25" class="st1" d="M426.3,142c-8.9,0-20.8,0-23.5-0.1c-8.7-0.2-13.1-5.2-13.1-14.9c0-1.7,1.9-1.8,3.1-1.9
		c0,0,0.1,0,0.1,0c-0.2-0.2-0.4-0.3-0.5-0.4c-1.2-1-2.6-2-2.6-3.5c0.1-31.1,0.4-84.1,0.5-88.8c0.3-9.6,8.7-15.3,16.5-15.3
		c2.5,0,7.1,0,11.7,0c5.7,0,11.5,0,13.2,0h0.1c4.8,0,9.3,1.9,12.8,5.4c3.1,3.1,4.9,7.1,4.8,10.8c0,0.6,0,2.3,0,4.4
		c0,0.8-0.6,1.4-1,1.7c0.5,0.3,0.6,0.8,0.6,1.1l0,0.1c0,0.3,0,1.3-1.1,1.7c-0.2,0.1-0.4,0.1-1.5,0.1c-0.4,0-1.1,0-1.7,0.1
		c0.1,0.2,0.1,0.4,0.1,0.6c0,0.4-0.1,0.7-0.2,0.9c0,0,0,0.1-0.1,0.1c0.3,0.3,0.9,0.8,1.2,1.1c1,0.8,1.6,1.3,1.8,1.9
		c0.1,0.3,0.1,0.6,0.1,1c0,0.1,0,0.3,0,0.5c0.4,0,1,0.1,1.4,0.5c0.5,0.5,0.4,1.1,0.4,1.6c0,1.3-0.5,1.9-0.8,2.4c0,0,0,0,0,0.1
		c0,0,0.1,0.1,0.1,0.1c0.3,0.3,0.8,0.9,0.8,1.9c0,0.9,0,1.8,0,2.7c0,0.7-0.5,1.1-0.9,1.5c-0.1,0.1-0.2,0.2-0.3,0.3
		c-0.2,0.6-0.5,1.4-0.6,2c0.5,0.1,1.7,0.5,1.7,1.9c0,13.1,0,28.1,0,40.2c0,11.9,0,21.2,0,22.5c0.1,9.7-6.2,15.6-12.3,15.8
		C435.7,142,431.9,142,426.3,142L426.3,142z M417.3,40.6c-1.5,0-2,0.4-2,2c0,0.2,0,1.3,0,3.1c0,8.3-0.1,33.5-0.1,51.7
		c0,1,0,2.1,0,3.1l0,2.3c0,12.7,0.1,15.1,0.1,15.4c0.2,1.4,0.7,1.4,1.5,1.5c0.8,0,1.7,0,2.5,0c0.4,0,0.9,0,1.3,0
		c0.6,0,1.2-0.1,1.4-1.7c0.2-2.1,0.5-72.2,0.5-75.7c0-1.6-1.5-1.7-1.7-1.7c-0.5,0-1.2,0-1.9,0C418.4,40.6,417.8,40.6,417.3,40.6
		L417.3,40.6z"/>
	<path id="path27" class="st1" d="M497.4,138.3c-0.1,0-0.1-0.1-0.2-0.1c-0.1,0-0.2,0-0.3,0c-0.1,0-1.3-0.1-1.3,0.4
		c0.2,1.3,0.9,2.5,2.9,2.6c0.1,0,0.7-0.6,0.7-0.7c-0.6-0.6-1.1,0.3-1.7-0.6C497.2,139.5,497.5,138.4,497.4,138.3L497.4,138.3z"/>
	<path id="path29" class="st1" d="M498.5,142.1L498.5,142.1c-2.2-0.1-3.6-1.3-3.9-3.4l0-0.1l0-0.1c0.1-1.2,1.5-1.2,2-1.2l0.1,0
		c0.2-0.1,0.5,0,0.7,0l0.1,0c0.1,0.1,0.3,0.1,0.3,0.2c0.6,0.3,0.6,1,0.5,1.4c0,0.1,0,0.3,0,0.4c0.6-0.1,1.1,0.1,1.5,0.5l0.1,0.1
		l0.1,0.1c0.1,0.1,0.2,0.5-0.1,1C499.9,141.2,499.3,142,498.5,142.1L498.5,142.1z"/>
	<path id="path31" class="st1" d="M516.6,141.8c-2.1,0-6.6-0.1-10.5-0.1l-3.9-0.1c-1,0-1.1-1.2-1.2-1.5c0-0.1,0-0.2,0-0.2
		c-0.2-0.2-0.5-0.6-0.8-0.8c-0.3-0.3-0.7-0.5-0.9-0.8c-0.1-0.1-0.2-0.2-0.4-0.4c-0.6-0.6-1.2-1.2-1.3-2c0,0,0,0,0,0
		c-0.1,0-0.3,0.2-0.4,0.4l0,0.1c-0.1,0.4-0.4,1.3-1.3,1.3l-0.1,0c-0.2,0-1-0.2-1-1.3c0-1.3,0-10.7,0.1-19.8c0-9,0.1-17.5,0.1-18.6
		c0-2.7-0.7-2.7-1.5-2.7l-0.1,0c-0.8,0-1.4,0-2,0c-0.5,0-0.9,0-1.4,0c-1.6,0-1.6,0.8-1.6,1.3c0,0.9,0,10.6-0.1,19.9
		c0,9.3-0.1,19-0.1,19.9c0,3.3-1.5,5.3-3.8,5.3c-0.6,0-1.7,0-3.2,0c-2.5,0-5.8,0-8.6,0c-2.6,0-4.2,0-4.9-0.1
		c-2.9-0.2-4.1-1.5-4.1-4.5c0-1.5,0.1-41.2,0.3-73.1c0.1-20.4,0.1-37.9,0.1-38.4c0-2.5,1.5-6.5,5.5-6.5c1,0,5.8,0,11.7,0.1
		c9.5,0,21.4,0.1,25.2,0.1c0.5,0,0.9,0,1.1,0l0.2,0c9,0,14,7.6,14.1,13.1c0,1.2,0,4.1,0.1,8.7c0,0.8-0.8,1.2-1.4,1.6
		c-0.1,0.1-0.3,0.1-0.4,0.2c0.1,0.1,0.3,0.2,0.5,0.3c0.6,0.4,1.4,0.9,1.4,1.8c0,8.7-0.1,19.5-0.1,21.3c-0.3,8.7-6.3,12.6-8.6,14.1
		c-0.3,0.2-0.5,0.3-0.6,0.4c-0.6,0.5-0.9,1-0.9,1.3c0,0.2,0.3,0.4,0.6,0.5c1.6,0.6,9.3,4,9.4,9.4c0,4.4,0,37.7,0,44.3
		c0,3.1-0.3,5.6-3.9,5.7C517.2,141.8,516.9,141.8,516.6,141.8L516.6,141.8z M489.4,38.9v1c-0.3,0-0.9,0-0.9,2.6c0,0,0,22.9,0,24.5
		v0.2c0,1.9,0.2,2.3,0.6,2.3l0.1,0c1.5,0,2.9,0,4.7,0c0.8,0,2.1-2.4,2.5-5.5c0.3-2.2,0.2-13.4,0.1-17.6c0-0.8,0-1.4,0-1.7
		c0-1.8-3.7-4.7-4.9-4.7l-0.3,0c-0.8,0-0.8,0-1.2,0l-0.7,0L489.4,38.9z"/>
	<path id="path33" class="st1" d="M644.9,142.1c-2,0-6.3-0.1-10.1-0.1c-3.1-0.1-6.1-0.1-7.2-0.1c-2.9,0-4.6-1.9-4.6-5.3
		c0-1.3,0-10.7,0.1-19.8c0-9,0.1-17.5,0.1-18.6c0-2.7-0.7-2.7-1.6-2.7l-0.1,0c-0.8,0-1.4,0-2,0c-0.5,0-0.9,0-1.4,0
		c-1.6,0-1.6,0.8-1.6,1.3c0,0.9,0,10.6-0.1,19.9c0,9.3-0.1,19-0.1,19.9c0,3.3-1.5,5.3-3.8,5.3c-0.6,0-1.7,0-3.2,0
		c-2.5,0-5.8,0-8.6,0c-2.6,0-4.2,0-4.9-0.1c-2.9-0.2-4.1-1.5-4.1-4.5c0-0.2,0-1.5,0-3.6c0.3-35.6,0.4-63,0.3-81.4
		c0-1.3,1.1-1.6,1.7-1.8c-0.1-0.1-0.2-0.2-0.3-0.3c-0.6-0.5-1.3-1.1-1.3-2c0-0.2,0-0.4,0-0.6c0-0.2,0-0.4,0-0.6
		c0-0.6,0.2-1.2,1.3-1.4c-0.1-0.2-0.3-0.4-0.4-0.6c-0.4-0.5-0.8-1.1-0.8-1.7l0-14.1c0-2.1,0-3.2,0-3.3c0-2.5,1.5-6.6,5.5-6.6
		c1,0,5.9,0,12,0.1c9.5,0,21.4,0.1,25,0.1c0.5,0,0.8,0,1,0l0.2,0c9,0,14,7.6,14.1,13.1c0.1,4.4,0,30.8-0.1,33.8
		c-0.3,8.7-6.3,12.6-8.6,14.1c-0.3,0.2-0.5,0.3-0.6,0.4c-0.6,0.5-0.9,1-0.9,1.3c0,0.2,0.3,0.4,0.6,0.5c1.6,0.6,9.3,4,9.4,9.4
		c0,1.5,0,6.3,0,14.3c0,0.7-0.2,1.1-0.3,1.5c-0.1,0.3-0.2,0.5-0.2,0.8c0,1.3-0.8,1.8-1.3,2.1c-0.5,0.3-0.6,0.4-0.6,0.8
		c0,0.3,0.1,0.4,0.2,0.6c0.1,0.3,0.3,0.6,0.3,1.2c0,0.5-0.2,0.8-0.4,1c-0.1,0.1-0.1,0.2-0.2,0.3c0.1,0,0.4,0.1,0.8,0.1
		c0.2,0,0.3,0,0.5,0.1l0.1,0c1,0.2,1,0.8,1,1.5l0,20.1c0,3.1-0.3,5.6-3.9,5.7C645.4,142.1,645.2,142.1,644.9,142.1L644.9,142.1z
		 M617.6,39.1v1c-0.3,0-0.9,0-0.9,2.6c0,0,0,22.9,0,24.5v0.2c0,2,0.2,2.3,0.6,2.3l0.6,0c1.3,0,2.6,0,4.2,0c0.8,0,2.1-2.4,2.5-5.5
		c0.3-2.2,0.2-13.3,0.1-17.5c0-0.9,0-1.5,0-1.8c0-1.8-3.7-4.7-4.9-4.7l-0.3,0c-0.8,0-0.8,0-1.3,0l-0.7,0L617.6,39.1z"/>
	<path id="path35" class="st1" d="M756.2,140.8c-4.4,0-10.2,0-15.5,0c-6.9,0-12.9,0-13.8,0l-0.1,0c-2.2,0-4.9-1.1-7.1-2.9
		c-2.5-2.1-3.9-4.6-3.9-7.3c0-1.4,0-10.2-0.1-18.5c0-7.4,0-14.5,0-15.5c0-3.3,1.2-5,3.6-5h18.2c3.2,0,3.8,1.9,4,3.7
		c0.1,1.3,0,10-0.1,18c0,2,0,3.6,0,4c0,1,0.3,2.8,1.2,2.8c0.6,0,1.1,0,1.5,0c0.8,0,1.6,0,2.5,0c0.6,0,1.2-1.1,1.4-2.5
		c0.2-1.6,0.3-20.1,0.3-23.3c0-1.9-0.2-2.1-1.2-2.8c-1-0.7-16-11.9-24.1-17.9c-2.5-1.8-4.2-3.1-4.6-3.4L718,70
		c-1.1-0.8-2.4-1.8-2.4-4.6l0-1.3c0-1.6,0-4.6,0-8c0-0.9,0.4-1.4,0.6-1.6c-0.2-0.2-0.6-0.5-0.6-1.2c0-0.4,0.1-0.7,0.4-1
		c0.5-0.5,1.2-0.5,1.9-0.5l0.5,0l0,0c0.3,0,0.5,0,0.6,0c0-0.3-0.2-0.5-0.3-0.7c-0.2-0.2-0.4-0.6-0.4-1c0-0.5,0.1-0.8,0.2-1.1
		c0.1-0.2,0.1-0.4,0.1-0.6c0-0.3-0.4-0.6-0.6-0.9c-0.1-0.1-0.2-0.2-0.2-0.2c-0.1-0.1-0.3-0.1-0.5-0.2c-0.7-0.3-1.6-0.6-1.6-1.5
		c0-7.2,0-15.3,0-16c0.1-5.5,3.7-11.4,10.1-11.5c0.9,0,3.4,0,6.5,0c0.6,0,1,0.3,1.4,0.6c0.4,0.3,0.7,0.5,1.1,0.5
		c0.1-1,1-1.1,1.1-1.1h0.2c0.5,0,1,0,1.5,0c0.5,0,1,0,1.6,0h0.1c0.6,0,1,0.3,1.3,0.5c0.3,0.2,0.5,0.4,0.9,0.4c0,0,0.1,0,0.1,0
		c0.2,0,0.2,0,0.3-0.2c0.1-0.2,0.5-0.8,1.2-0.8l6.9,0c5.5,0,10.7,0,12,0c5,0.1,10.6,4.1,10.6,9.2c0,2.5,0.1,10.5,0.1,17.5
		c0,5.4,0.1,10.2,0.1,11.4c0,1.6,0,5.3-3.8,5.4c-2.3,0.1-15.2,0.1-15.4,0.1c-0.1,0-0.3,0-0.4,0c-0.2,0-0.3,0-0.5,0
		c-0.9,0-3.4,0-3.7-2.9c-0.1-1.6-0.1-7.6-0.1-12.1c0-2.2,0-4,0-4.4c-0.1-2-1.5-2.2-2-2.2h-3c-1.2,0-2.2,1-2.2,2.4c0,0.9,0,4.1,0,7.1
		c0,2.7,0,5.2,0,5.9c0,1.4,0,1.8,1,3c0.9,1,15.1,11.3,21.2,15.6c2.4,1.7,4.1,3,4.7,3.4c2.1,1.5,4.5,3.9,4.5,6.7c0,0.6,0,4.2,0,9
		c-0.1,12.4-0.2,33.1-0.1,35c0.1,6.1-4.8,12.8-9.7,13C762.5,140.8,760.3,140.8,756.2,140.8L756.2,140.8z"/>
	<path id="path37" class="st1" d="M828.5,140.1c-4.4,0-10.2,0-15.5,0c-6.9,0-12.9,0-13.8,0l-0.1,0c-2.2,0-4.9-1.1-7.1-2.9
		c-2.5-2.1-3.9-4.6-3.9-7.3c0-1.4,0-10.2,0-18.5c0-7.4,0-14.5,0-15.5c0-3.3,1.2-5,3.5-5h18.2c3.2,0,3.8,1.9,4,3.7
		c0.1,1.3,0,9.6-0.1,18c0,2.1,0,3.6,0,4.1c0,1,0.3,2.8,1.2,2.8c0.6,0,1.1,0,1.5,0c0.4,0,0.8,0,1.2,0c0,0,0,0,0,0c0.4,0,0.8,0,1.3,0
		c0.6,0,1.2-1.1,1.4-2.5c0.2-1.6,0.3-20.1,0.3-23.3c0-1.9-0.2-2.1-1.2-2.8c-1-0.7-18.2-13.5-25.5-19l-3.4-2.5
		c-1.1-0.8-2.4-1.8-2.4-4.6c0-1.7-0.1-34.7-0.1-36c0.1-5.5,3.7-11.4,10.1-11.5c1.1,0,4.9,0,9.9,0c0.7,0,1,0.4,1.2,0.6
		c0.1,0.1,0.2,0.2,0.7,0.2c0.2-0.3,0.5-0.8,1.4-0.8l0.4,0c0.4,0,0.8,0,1.1,0c0.6,0,1,0.3,1.3,0.5c0.1,0.1,0.3,0.2,0.3,0.2
		c0.2-0.3,0.5-0.7,1.3-0.7h1c4.7,0,15.8,0,17.7,0.1c5,0.1,10.6,4.1,10.6,9.2c0,2.5,0.1,10.5,0.1,17.5c0,5.4,0.1,10.2,0.1,11.4
		c0,1.6,0,5.3-3.8,5.4c-2.3,0.1-15.2,0.1-15.4,0.1c-0.1,0-0.3,0-0.4,0c-0.2,0-0.3,0-0.5,0c-0.9,0-3.4,0-3.7-2.9
		c-0.1-1.6-0.1-7.6-0.1-12.1c0-2.2,0-4,0-4.4c-0.1-2-1.5-2.2-2-2.2h-3c-1.2,0-2.2,1-2.2,2.4c0,0.9,0,4.1,0,7.1c0,2.7,0,5.2,0,5.9
		c0,1.4,0,1.8,1,3c0.9,1,15.1,11.3,21.1,15.6c2.4,1.8,4.2,3,4.7,3.4c2.1,1.5,4.5,3.9,4.5,6.7c0,0.6,0,4,0,8.6c0,5-0.1,11.6-0.1,17.7
		c0,1.3-1,2-1.9,2.5c-0.4,0.3-0.9,0.6-1,0.9c-0.7,1.6-1,3.3-0.8,3.9c0.1,0.2,0.2,0.3,0.5,0.4c0.4,0.2,1.2,0.6,1.2,1.8
		c0,1.5-0.9,1.8-1.3,2.1c-0.1,0-0.2,0.1-0.2,0.1l0,0c0,0,0,0.1-0.1,0.3c0,0.6,0.2,0.8,1.5,1.1c0.8,0.2,2.3,0.6,2.2,2.1
		c-0.1,1.2,0,1.9,0,2.3c0,0.1,0,0.2,0,0.3c0.1,6.1-4.8,12.8-9.7,13C834.9,140.1,832.6,140.1,828.5,140.1L828.5,140.1z"/>
	<path id="path41" class="st1" d="M297.9,133.4c-0.3,0-0.6,0-0.9-0.1c-6.5-2.1-27.9-11.1-32.2-36.3c-0.3-1.8-0.1-3.2,0.7-4.1
		c0.9-1,2.1-1.2,2.7-1.2c0.2,0,0.3,0,0.3,0c0.8,0,15.2,0.7,16.9,1c0.2,0,0.4,0.1,0.6,0.1c1.4,0.2,3.4,0.4,4.6,3
		c1.5,3.1,5.6,8.7,10,11.5c2.2,1.4,2.4,2.2,2.2,5.1c-0.1,2.6-1.1,15.4-1.4,17.2C301.5,131.4,299.8,133.4,297.9,133.4L297.9,133.4z"
		/>
	<path id="path43" class="st1" d="M289.5,81.3c-0.4,0-0.8,0-1.3,0l-0.4,0c-2.6-0.1-16.9-1-18.6-1.3c-1.2-0.2-1.8-0.8-2.1-1.3
		c-0.5-0.9-0.6-2.1-0.2-3.3c1.5-4.5,4.6-11.2,10.9-17.6c0.4-0.4,1.2-0.4,2.2-0.2c0.4,0.1,0.9,0.2,1.3,0.2c0.1,0,0.2,0,0.2,0
		c0.1-0.2,0-0.8-0.1-1.1c-0.1-0.8-0.2-1.6,0.2-2.3c0.6-0.9,1.4-1.4,2.4-1.4c0.6,0,1.1,0.2,1.6,0.3c0.3,0.1,0.6,0.2,0.8,0.2
		c0,0,0-0.1,0-0.1c-0.1-0.9-0.3-2.2,0.7-2.9c4.9-3.5,9.3-4.7,16.4-5.9c1.9-0.3,3.4,0,4.3,1.1c1,1.2,0.8,2.8,0.8,3.2
		c-0.1,1.4-0.8,14.3-1,15.9c0,0.2-0.1,0.4-0.1,0.6c-0.2,1.4-0.4,3.4-3,4.6c-1.7,0.8-5.9,3.1-9.1,6.9c-0.3,0.3-0.6,0.5-1,0.5
		c-0.4,0-0.9-0.2-1.3-0.6c-0.2-0.3-0.4-0.6-0.6-1.1c-0.2-0.5-0.6-1.4-1-1.4c-0.1,0-0.1,0-0.2,0c-0.1,0-0.3,0.1-0.4,0.1
		c-0.5,0.2-1.7,0.6-1.9,1c0.3,0.3,1.1,0.6,1.6,0.9c1.4,0.7,2.8,1.4,2.5,2.6C292.4,80.9,291.1,81.3,289.5,81.3L289.5,81.3z"/>
	<path id="path45" class="st1" d="M352.1,86.4c-0.1,0-0.2,0-0.2,0c-0.4,0-1.7,0-3.4-0.1c-6.2-0.1-12.4-0.3-13.5-0.5
		c-0.3,0-0.6-0.1-0.9-0.1c-1.5-0.1-3.5-0.2-4.8-2.6c-1.6-3-4-6.8-8-9.7c-2.1-1.5-2.1-2.4-2-5.2c0-0.5,0.1-1.6,0.1-2.9
		c0.3-6.8,0.6-14.1,0.8-15.4c0.2-1.7,1.8-3,3.6-3c0.4,0,0.9,0.1,1.3,0.2c2.6,1,4.9,2.1,7.3,3.4c0.8,0.4,1.1,1.2,1.2,1.7
		c0,0.1,0.1,0.2,0.1,0.3c0.1,0,0.2,0,0.5,0h0.3c0.6,0,1.3,0,2,0.5c9,6.7,14.8,15.6,18.1,28c0.5,2,0.4,3.4-0.3,4.4
		C353.7,86,353,86.4,352.1,86.4L352.1,86.4z"/>
	<path id="path47" class="st1" d="M317.2,134.4c-1.2,0-2.1-0.4-2.7-1c-0.8-0.9-0.7-2-0.7-2.3c0-0.7,0.7-15.1,1-16.8
		c0-0.3,0.1-0.6,0.1-1c0-1.6,0.1-3.9,2.6-5.1c3.9-1.9,7.1-4.7,9.5-8.5c1.1-1.8,2.1-2.3,4.3-2.3c0.3,0,0.7,0,1.1,0
		c2.3,0.1,15.9,0.8,17.7,1.1c1.2,0.2,2.3,0.9,2.9,2c0.5,0.9,0.6,1.9,0.3,2.8c-0.8,2.2-1.9,4.6-3.6,7.6c-0.5,0.8-1.2,1-1.9,1.2
		c-0.3,0.1-0.7,0.2-0.9,0.4c-0.7,0.7-1.4,1.6-2,2.5l-0.1,0.1c-0.1,0.2-0.1,0.9-0.1,1.3c0,1,0,1.9-0.6,2.6
		c-4.1,4.8-8.9,8.7-14.4,11.4c-0.3,0.1-0.5,0.2-0.8,0.2c-0.6,0-1.1-0.3-1.5-0.6c-0.5-0.3-0.9-0.6-1.6-0.6c-0.7,0-1.3,0.6-1.7,1.2
		c-0.1,0.2-0.2,0.4-0.3,0.6c-0.4,0.9-0.9,1.9-1.9,2.2c-0.9,0.3-1.8,0.5-2.7,0.7C318.5,134.3,317.8,134.4,317.2,134.4z"/>
</g>
<g>
	<path class="st2" d="M620,39.2c-1.4,0-0.9,0-2.3,0c-1.5,0-1.9,1.4-1.9,3.5c0,0,0,22.9,0,24.5c0,1.6-0.1,3.4,1.6,3.5
		c1.6,0,3,0,4.8,0c1.8,0,3.1-3.7,3.5-6.4v0c0.4-2.7,0.1-17.3,0.1-19.5C625.7,42.5,621.6,39.2,620,39.2z"/>
	<path class="st2" d="M491.8,38.9c-1.4,0-0.9,0-2.3,0c-1.5,0-1.9,1.4-1.9,3.5c0,0,0,22.9,0,24.5c0,1.6-0.1,3.4,1.6,3.5
		c1.6,0,3,0,4.8,0c1.8,0,3.1-3.7,3.5-6.4h0c0.4-2.7,0.1-17.3,0.1-19.5C497.6,42.3,493.4,39,491.8,38.9z"/>
	<path class="st2" d="M420.9,39.7c-1,0-2.7-0.1-3.6-0.1c-2.3,0-2.9,1.1-2.9,3c0,1.3-0.1,32.9-0.1,54.9c0,1,0,2.1,0,3.1
		c0,0.8,0,1.5,0,2.3c0,8.6,0,14.9,0.1,15.5c0.2,2.1,1.5,2.3,2.4,2.3c1.1,0.1,2.6,0,3.8,0c1.2,0,2.1-0.6,2.4-2.5h0
		c0.2-1.9,0.5-73.9,0.5-75.9C423.6,40.4,422.1,39.7,420.9,39.7z"/>
	<path class="st2" d="M166.1,78.7c-0.6-0.8-0.5-1.3-0.6-2.2c-0.5-4.7-0.9-8.8-1.2-9.3c-0.7-1.4-1.5-0.9-1.7,0
		c-0.3,1.2-2.8,24.2-3,25.9c-0.2,2.2,1.1,2.9,2.1,3.1c1.2,0.2,2.4,0.2,3.8-0.2c1.4-0.4,1.4-1.4,1.3-3.1c-0.1-0.7-0.4-4.8-0.8-9.6
		c-0.1-1.4,3.4-0.9,3.3-2C169.3,80.8,166.5,79.4,166.1,78.7z"/>
	<path class="st2" d="M908.2,82.4c-0.9-0.9-49.8-49.8-57.9-57.8c-0.9-0.9-2.1-0.8-4.2-0.6c-1.4,0.1-2.2,0-2.7-0.3
		c0.4,0.9,0.7,1.8,0.7,2.8c0,4.5,0.2,26.1,0.2,28.8s-0.5,4.4-2.9,4.4c-2.2,0.1-13.7,0.1-15.3,0.1c-1.6,0-3.5,0.3-3.6-2.1
		c-0.2-2.3,0-15.2,0-16.5c-0.1-2.4-1.7-3.1-3-3.1s-1.8,0-3,0c-1.8,0-3.1,1.5-3.1,3.3c0,1.8-0.1,11.5-0.1,13c0,1.4,0,2.1,1.3,3.6
		c1.2,1.4,23.9,17.6,26,19.2c2.1,1.6,4.1,3.8,4.1,5.9c0,1.2-0.1,14.6-0.1,26.3c0,1.4-2.3,1.8-2.8,3c-0.5,1.1-1.3,3.4-0.8,4.6
		c0.5,1.2,1.6,0.7,1.6,1.8c0,1.7-1.6,0.7-1.6,2.5c-0.1,2.6,3.7,1.6,3.6,3.2c-0.1,1.6,0,2.3,0,2.6c0.1,5.8-4.7,11.9-8.8,12
		c-2.5,0.1-34.2,0-36.2,0c-3.8,0.1-10.2-4-10.2-9.2c0-2.7-0.1-31.9-0.1-34c0-2.2,0.4-4.1,2.6-4.1c2.1,0,15.9,0,18.2,0
		c2.3,0,2.9,1,3,2.8c0.2,1.8-0.1,20.1-0.1,21.9c0,1.8,0.6,3.7,2.2,3.7c1.6,0,2.6,0,4,0c1.3,0,2.1-1.5,2.3-3.3
		c0.2-1.8,0.3-21.2,0.3-23.4c0-2.1-0.4-2.7-1.6-3.6c-1.3-0.9-27.1-20.2-28.6-21.3c-1.2-0.9-2.3-1.5-2.3-4c0-2.5-0.1-34.7-0.1-35.9
		c0.1-5.1,3.4-10.4,9.2-10.6c1.1,0,5,0,9.9,0c0.6,0,0.3,0.8,2,0.8c0.9,0,0.5-0.8,1.3-0.8c0.5,0,1,0,1.4,0c0.7,0.1,1,0.8,2,0.8
		c0.6,0,0.4-0.8,1-0.8c8.5,0,17.1,0,18.7,0.1c3.1,0.1,6.4,1.8,8.3,4.3c0-0.3,0-0.6-0.1-0.8c-0.1-1.3,1.3-3.4,0.7-4
		c-1.5-1.5-3.1-3-4.5-4.4c-0.8-0.8-3.3,0.2-4-0.6c-1-0.9-0.2-3.6-1.1-4.4c-3.6-3.5-6.1-5.9-6.6-6.3c-1.8-1.5-2.9-1.6-4.6-1.6h-15.1
		c-0.9,0-0.2,1.4-1.2,1.4c-6.2-0.1-7.4-1.4-10-1.4h-9.3c-5.5,0-10.4,7.4-10.3,12.3c0,1.1-0.1,7.5-0.2,8.7c-0.1,1.2-0.5,1.6-1.9,0
		c-1.8-2-17.1-17.3-18.7-18.5c-1.8-1.4-4.9-2.6-7.6-2.6c-2.6,0-28.9,0-33.4,0c-4.5,0-10.2,6.3-10,13.7c0,1.9-1.3,1-2.8-1
		c-1-1.4-8.2-8.9-10.1-10.7c-1.8-1.7-3.6-1.9-5.3-1.9c-0.2,0-1,0-2.2,0c-1.9,0,0.1,1.2-1.8,1.2c-1.5,0-3.6,0-5.5,0
		c-1.7,0-0.1,1.1-2.3,1.1c-1.4,0-3.1-2.3-4.6-2.3c-8.3,0-16.7,0-17.3,0c-1.1,0-1.7,0.7-1.7,1.8c0,1.1-0.1,20-0.1,21.2
		c0,1.2-0.7,1.7-2.4-0.9c-3.1-4.5-19.5-22.3-27.4-22.3c-0.4,0-2.8-0.1-6.2,0c-1.7,0,0.6,2.5-1,2.5c-2.5-0.1-0.6-1-2.1-1
		c-1.2,0,0.4,1.2-2.1,1c-0.8-0.1-1.7-2.5-2.5-2.5c-0.5,0-1.1,0-1.6,0c-0.9,0-1.7,0.5-2.6,0.5c-1.1,0-2.2-0.5-3.3-0.5
		C590.4,0.1,581.4,0,580.6,0c-1.5,0-1.9,1-1.9,2.3c0,1.3-0.1,8.7,0,10.3c0.1,1.4-1.2,0.4-2.1-0.5c-0.9-0.9-9.9-9.6-11.1-10.7
		c-1.2-1.1-1.6-1.1-3.2-1.1c-0.2,0-1.5,0-3.5,0c-1,0-2,1-3.4,1.2c-2.6,0.5-4.7,0.1-8.1,0.1c-2.1,0-5.4-1.4-7.5-1.4
		c-10.8,0-21.6,0-22.4,0c-1.4,0-1.7,0.7-1.7,2.1c0,1.4,0.2,13.7,0.2,14.8c0,2-2.3,1.3-2.7,0.2c-1.6-4.5-13.2-17-21.9-17
		c-0.4,0-3.1,0-6.9,0c-0.6,0-1,0.5-1.6,0.5c-0.6,0-1.6-0.5-2.3-0.5c-11.9,0-29.3,0.1-30.1,0c-1.2-0.1-1.4,1.1-1.3,2.4
		c0.1,1.2,0.1,18.7,0.1,20c0,1.8-0.9,1.3-2.2,0.1c-1.1-1-22-20.2-23.2-21.3c-1.2-1.2-1.9-1.1-3.7-1.1c-1.6,0-29.7-0.1-32.6-0.2
		c-5.4,0-13.2,5.2-13.2,13.2c0,1.6-1.7,0.2-2.4-0.6c-0.7-0.8-9.9-10.1-10.8-11.1c-0.9-1-1.7-1.3-3.6-1.3c-0.4,0-4.3,0-9.3,0
		c-0.5,0-0.9,0.4-1.4,0.4c-0.5,0-1.2-0.4-1.7-0.4c-10.4,0-23.6,0-24.5,0c-1.5,0-1.7,1.2-1.7,2.4c0,0.4,0,5.6,0,12.5
		c0,1.6,2.3,2.8,3.2,4.2c1.4,2.3,1.1,3.1,1.1,4.4c0,1.9,0.9-0.4,0.9,3.4c0,1.9-5.2,0.3-5.2,1.9c-0.1,10.6,0,20.6,0,21.4
		c0,2.3-1.5,0.8-2.6-0.1c-1.3-1.2-50.5-47.9-51.5-48.8c-1-0.9-2.3-1.1-3.7-1.1s-26.3-0.1-27.4-0.1c-1.3,0-1.4,1.2-1.4,2
		c0,0.9,0,6.3,0,8c0,1.6-1.5,1.2-2.5,0.2c-0.9-0.9-8.5-8.3-9.4-9.3c-0.7-0.8-1.9-0.9-3.1-0.9c-1,0-26.6,0-27.6,0c-1,0-1.2,1-1.2,2.1
		c0,1.2,0,24.4-0.1,25.6c-0.1,1.2-1.1,0.8-2.1-0.3c-1-1.1-24.8-25.3-26.1-26.4c-1.2-1.1-2.1-1.1-4-1.1c-1.6,0-24.5-0.1-25.8-0.1
		c-1.3,0-2.8,0.9-2.8,2.6c0,0.9,0.2,16.9,0.2,18.4c0,1.6-1.7,0.7-2.5-0.3c-0.8-0.9-18.8-17.8-20.3-19.1c-1.5-1.2-2.8-1.6-4.4-1.6
		c-1.3,0-33.3-0.1-34.4-0.1c-1.1,0-1.7,1.2-1.7,2.6c0,1,0,6.8,0,8.4c0,1.5-1,0.8-1.8,0c-0.8-0.9-8-8.1-9.4-9.4
		C52,0.4,50.7,0.3,49,0.3c-0.4,0-4.5,0-10.1,0c-1.5,0-1.4,0.8-2.1,1.3c-1,0.6-1.8-1-2.3-1c-0.6,0-1,1.1-1.6,1.1
		c-1.2,0-2.5-1.4-3.7-1.4C17.1,0.2,3.8,0.1,2.9,0.1c-1.6,0-2.8,1.7-2.8,4.2l0,0c0,0-0.2,13.8-0.1,16.1c0,2.6,0.6,3.1,2,4.5
		c1.5,1.6,7.6,7.5,8.9,8.7c1.4,1.4,1.4,3.4,1.4,5.2c0,1,0,25.8,0,49.9c0,1.8,3,2.9,3.2,5.7c0.1,1-3.2-0.2-3.2,0.8c0,0.5,0,1,0,1.6
		c0,1.1,2.3,2.8,2.3,4.8c0,0.9-2.3,0.2-2.3,1.1c0,16.7,0,30.4,0,31.3c0,2.5,1.3,3.3,2.6,4.7c1.2,1.3,47.9,49.5,63.2,65.6
		c3.1,3.3,2.9-0.7,4.3,0.7c1,1.1,4.4,2.5,4.6,2.7c1.9,2.2,2.3,4.2,3.6,4.3c0.5,0,0.9,0,1.3,0c1.6,0,9.8,0.1,15.3,0.1
		c2.1,0,1.9-2.2,1.9-2.7c0.2-2.6,0.6-3.3,1.8-3.4c0.4,0,3.3-0.4,3.3-2.7c0-9.4,0.1-29.4,0.1-31.2c0-2.3,1.9-0.7,3.3,0.7
		c1.4,1.4,18.8,19.3,21.1,21.7c2.2,2.4,2.5,2.3,6.2,2.3c1.8,0,8.8,0,15.9,0c1,0,1.8-1.4,3.3-1.4c0.7,0,1.2,1.4,2,1.4h2.1
		c1.2,0,1.7-1.3,2.7-1.3c1.4,0,2.6-1.1,3.5-1c2,0.1,1.7,2,2.8,2.1c2.2,0.2,2.6,0,2.5-1.7c0-1.6-0.1-3.1-0.1-5.2
		c0-2.1,1.7-1.4,2.8-0.2c1.4,1.4,4.4,4.9,5.9,6.2c1.6,1.5,1.9,1,4,1.1c2.2,0,16.8,0,18.9,0c2.3,0,1.9-0.7,1.9-3.3v-8.2
		c0-2.1,1.6-1.2,2.8,0c1.3,1.3,8.8,8.6,10.6,10.2c1.9,1.6,2.3,1.2,4.2,1.2c0.2,0,1.9,0,1.6-0.5c-0.3-0.5-0.5-1.8,0.1-2
		c1.2-0.3,3.5-0.8,4.8-0.8c1.5,0,3.1,3.2,4.6,3.2c2.8,0,5.3,0,6,0c1.9,0,1.9-1.6,1.9-3.3v-8.1c0-2.1,2.2-1,3.4,0.2
		c1.4,1.3,8.6,8.6,10.4,10c1.9,1.4,2.4,1.3,4.1,1.3c1.7,0,13,0,15.1,0c2.2,0,1.9-1.5,1.9-3.6V187c0-1.6,1.6-0.2,2.6,0.8
		c1.1,1.1,6,5.5,7.5,7c1.5,1.5,2.6,1.9,4.5,1.9c1.9,0,8.4,0,10.1,0c1.6,0,1.8-0.3,1.8-1.9v-4.2c0-2.5,2.2-1.5,3.2-0.4
		c1.1,1.1,3.7,4.2,5.3,5.3c1.6,1.2,2.3,1.2,3.9,1.2c1.7,0,14,0,15.9,0c1.9,0,2-1.7,2-4c0-2.3,0.2-29.6,0.2-31.7s1.8-0.9,3.2,0.5
		c0.7,0.7,9.5,9.4,19.4,19.2c0.9,0.8,2.2,0.2,3,1.1c0.7,0.7,1.1,2.2,1.8,2.9c1.1,1.1,1.7-0.3,4.8,2.5c4,3.7,1.9,4.8,3.6,6.5
		c8.3,8.2,15.3,14.9,16.3,15.7c2.8,2.1,4.3,2.4,6.2,2.4c1.9,0,15.7,0.1,18.8,0.1c2.6,0,2.5-3,2.5-4.9c0-0.6,0-4.9,0-10.6
		c0-0.9-3.1-0.8-3.1-2.3c0-2.7-2-2.2-2-2.9c-0.1-3.1,1.2-2.2,1.2-3.6c0-1.5-1.3,0.1-1.2-2.3c0-1,1.1-2,1.9-2.6
		c1.3-1,3.1-1.3,3.1-2.4c0-8.7,0-16.4,0-17.5c0-2.4,1.6-0.3,2.8,0.7c1.5,1.3,31.9,29.6,33.9,31.4c2.1,1.9,2,1.6,3.4,1.6
		c0.3,0,2.1,0,4.7,0c1.2,0,2.5-2.3,4.9-2.2c0.8,0,0.7,2.2,1.6,2.2c0.6,0,1.1,0,1.7,0c1.4,0,1.5-2.8,4.2-2.8c3-0.1,4.2,2.8,6.1,2.8
		c6,0,11.2,0,12.6,0c4.5,0,9.7-8.3,9.7-14.3c0-1.8,1.5-1.4,2.7-0.4c0.9,0.8,11.1,11.2,13.5,13c2.3,1.9,2.8,1.9,4.9,1.9
		c2.1,0,17.1,0,18.7,0c1.6,0,1.9-0.5,1.9-1.7c0-1.2,0-3.6,0-5.3c0-1.6,1.2-0.9,2.4,0.2c1.2,1.2,3.9,3.8,5.3,5.1
		c1.3,1.3,1.9,1.3,3.8,1.3c0.6,0,2.4,0,4.8,0c1.2,0,1.8-1.2,3-1.8c0.9-0.4,2.4-0.5,3.3-0.5c1.1,0,2.7-0.8,3.7-0.8
		c1.8,0,3,3.1,4.1,3.1c0.7,0,1.2,0,1.5,0c2.6,0,2.6-1.9,2.6-3.7v-14.3c0-2.1,1.8-0.4,3,0.9c1.3,1.4,14.2,13.9,16.5,15.8
		c2.2,1.8,2.7,1.7,4.3,1.7c1.6,0,18.4,0,20.3,0c2,0,1.8-1.1,1.9-2.8c0-1.9,0-17.8,0-19.2c0-2,2.3-0.8,3-0.1c0.7,0.7,18.6,18.7,20,20
		c1.5,1.4,2.7,2.5,5.1,2.5c2.3,0,17.3,0,18.9,0c1.6,0,1.9-1.4,1.9-2.8v-4.5c0-1.5,1.2-1.3,2.2-0.4c0.9,0.9,4.1,5,5.3,6
		c1.2,1.1,1.8,1.2,3,1.2c1.2,0,19.1,0.1,21.4,0.1c2.4,0,2.2-0.4,2.2-2c0-2.2,0.1-7.6,0.1-9.2c0-1.7,1.9-1.7,3.6-0.2
		c1.8,1.5,10,8.8,11.6,9.9c1.6,1.2,1.2,1.4,4.2,1.4c3,0,27.8,0,30.6,0c2.8,0,2.8-0.8,2.8-3.2c0-2.3,0-8,0-11c0-3.1-1.3-4.6-3.2-6.6
		c-1.8-1.9-5.7-5-10.1-9.4c-3.3-3.3,1.5-6.2,4.8-2.9c2.5,2.4,27.4,27.7,30,30.2c0.9,0.9,3,0.4,4.2,0.7c1.9,0.5,3.7,2.3,5.8,2.3
		c0.3,0,0.7,0,1,0c0.9,0,2.6,0,4.8,0c2.1,0,4.8-2.3,7.5-2.3c1.2,0,2.5,0.5,3.7,0.5c1.1,0,2.6-0.6,3.7-0.6c1.6,0,2.6,2.3,3.9,2.3
		c0.8,0,1.6,0,2.3,0c0.8,0,1.5,0,2,0c10.6-0.1,11.4-11.5,11.5-18.1c0-0.7-1.1-0.8-1-2.1c0.1-1.3,1.2-2.1,2.3-1.2
		c0.5,0.4,0.9,1.3,1.6,2c2.3,2.1,19.1,15.6,21.4,17.5c1.6,1.4,2.1,1.5,5,1.5c1.1,0,5.7,0,11,0c1.3,0,2.7-1.3,3.6-2.3
		c1.6-1.8,4.1-2.4,5.1-0.9c0.8,1.2,1.6,3.1,2.7,3.1c5,0,9.2,0,10.2-0.1c6.3,0,9.6-10.4,10.1-12.8C908.3,82.5,908.2,170.3,908.2,82.4
		z M69.2,41.9c-1.7,0-7.8-0.1-9.3-0.1c-1.4,0-2.6,0.2-2.6,2.4c0,2.1,0,103.6,0,106.3c0,2.9-0.6,4.7-3.7,4.7
		c-2.9,0-15.4,0.1-17.3,0.1c-1.9,0.1-4.3-1-4.4-4.1c0-1.2,0-19.2,0-40c0-1.5,1.4-1.5,2.9-1.6c1.8-0.1,0.7-1.9,1.4-2.7
		c0.6-0.6,1.5,0,1.9-0.7c0.3-0.5,0.2-3.2-1.4-4.3c-1.4-0.8-4.6-1.3-4.7-2.7c-0.1-2.7,0-5.7,0-8.4c0-1.5,1.4-2.7,1.4-3.6
		c0-0.8-0.6-0.9-0.6-1.7c0-0.6,2.6-0.3,2.6-1c0-0.6-1.3-1.4-2.1-2.1c-0.5-0.4-1.3-1.1-1.3-2.3c-0.2-18.9,0-34.3,0-35.1
		c0-2.3-0.5-3.1-2.7-3.1c-1.9,0-6.9,0-8.4,0c-1.9,0-2.8-1.4-2.8-3.3c0-1.9,0-14.1,0.1-15.3c0.1-2.1,1-3.9,3.9-4v0
		c2.2-0.1,43.7,0,45.6,0c2.3,0,4,0.5,4,3.6c0,2.6,0.1,14.1,0.1,15.8C71.9,40.4,70.9,41.9,69.2,41.9z M123.4,79.7
		c-0.1,2.2-2.2,3.8-3.8,3.9c-1.5,0-6.3,0-8.6,0s-2.6,2.1-2.5,4.4c0,1.3,0.2,12-0.1,20.7c0,1-1.5,1.1-1.7,1.6c-0.2,0.4-0.1,1.7,0,2.1
		c0.3,1.2,1.6,0.5,1.6,1.5c0,2.7,0,5.4,0,5.9c0.1,1.9,0.9,2.4,2.5,2.4c1.7,0,7.3,0,8.9,0c2.2,0,3.5,1.9,3.5,4.3
		c0,1.7,0,8.9-0.1,10.8c0,2-1,3.3-2.9,3.3c-1.7,0-30.1,0.1-32,0.1c-1.9,0-3.1-0.7-3.3-3.6c-0.1-0.8-0.1-9.7-0.1-22.2
		c0-0.4,0.3-1.3,0.7-1.4c0.6,0,0.4,1.1,1.1,1c0.3-0.1,0.2-2.5,0.1-2.9c-0.1-0.3-0.7-1.1-1-1.3c-0.4-0.3-0.9-0.6-0.9-1.1
		c0-33.1,0.2-83.9,0.2-85.4c0-2.4,1.8-4.2,4.4-4.2c2.2,0,28,0,30.4,0s3.4,1.4,3.4,3.1c0,1.7,0.1,9.9,0.1,11.3c0,1.9-1.6,3.6-3.5,3.6
		c-0.3,0-0.8,0-1.4,0c-0.7,0-1.1-1.9-1.8-2c-0.6-0.1-1.5,0-1.8,0.6c-0.3,0.7-0.4,1.5-1.1,1.5c-1.3,0-2.5,0-3.2,0
		c-1.7,0-2.6,1.9-2.6,3.3c0,1.4,0,18.4,0,19.9c0,2,1.9,2.6,3.1,2.6c1.6,0,6.9,0.1,9.1,0.1c2.2,0,3,1.3,3.1,3
		C123.5,68.4,123.4,77.8,123.4,79.7z M190.4,141.6c-2.4,0-13.8-0.1-15.9-0.2c-1.9-0.1-4.4-0.5-4.5-3.7c-0.1-1.9,0.2-13.6-0.1-15.9
		c-0.2-2-0.5-4.3-3.7-4.3c-1.9,0-4.2,0-5.6,0c-1.4,0-3.1,0.5-3.1,2.9c0,2.4-0.3,14.4-0.3,16.1c0,2.7-0.9,4.7-3.3,4.9
		c-2.4,0.2-13.4,0.2-15.5,0.2c-2.1,0-3.6-0.4-3.3-2.9c0.3-2.4,13.7-112.4,13.9-113.8c0.3-1.8,1.7-4.6,4.1-4.7
		c1.9-0.1,16.9,0.1,18.5,0.1c2.7,0,4.4,1.1,5,4.7c0.4,2.4,15.2,108.2,15.7,111.3C192.9,139.5,192.8,141.6,190.4,141.6z M307.7,48.6
		c-0.1,1.3-0.8,14.3-1,15.9c-0.2,1.6-0.1,3.3-2.6,4.5c-2.8,1.3-6.5,3.7-9.4,7.1c-0.2,0.2-0.4,0.3-0.9-0.2c-0.5-0.6-1-3.3-2.8-2.7
		c-0.9,0.3-3,0.8-3,2.1c0,1.1,4.3,2.1,4.1,3.1c-0.5,2-1.6,1.8-4.2,1.7c-0.6,0-1.8-0.1-3.2-0.2c0.1,4.5,0.1,9,0.2,13.4
		c0.3,0,0.6,0.1,0.8,0.1c1.6,0.2,3.3,0.1,4.5,2.6c1.6,3.3,5.8,9.1,10.4,11.9c1.8,1.1,1.9,1.6,1.8,4.2c-0.1,2.6-1.1,15.5-1.4,17.1
		c-0.2,1.7-1.9,3.4-3.5,2.9c-3.7-1.2-8-3.2-12.3-6.1c0.1,6.2,0.1,10.2,0.1,10.6c0,2.1-0.9,3.4-2.1,3.6c-1.3,0.2-17.7,0.1-19,0.1
		c-1.3,0-2.4-0.8-2.4-2.5c0-1.8,0-46.5,0-47.9c0-1.6-0.9-2.4-1.6-0.2c-0.5,1.9-7.8,44.1-8.2,46c-0.5,2.1-0.7,4-2.3,4
		c-1.6,0-6.4,0-7.9,0c-1.4,0-2.4-0.9-2.8-2.6c-0.4-1.7-9.4-45.2-9.8-46.7c-0.3-1.4-1.6-1.6-1.7,0c-0.2,1.6-0.3,44.8-0.3,46.5
		c0,1.8-0.6,2.5-2.2,2.5c-1.6,0-13.9,0.5-15.7,0.3c-1.8-0.2-1.9-1.3-1.9-2.8c0-1-0.3-57.1,0-89.7c0-1.5,2.6-0.6,2.6-2
		c0-0.8-1.7-0.9-1.6-1.9c0.1-1.3,1.7-0.6,1.7-1.5c0-0.7-2.7-2.7-2.7-3.4c0-8.6,0-14.1,0-14.2c0-1.7,0.4-3.8,2.5-3.8
		c1.4,0,23.9-0.1,25.3-0.1c1.6,0.1,3.2,1.3,3.6,3c0.4,1.6,5.1,28.4,5.4,29.9c0.4,1.4,1.6,1.7,1.9,0c0.4-2,4.8-28.8,5-29.9
		c0.3-1.7,1.6-3,3.3-3c1.3,0,23.4,0.2,24.6,0.2c2.4,0,4.8,1.2,4.9,3.4c0,0.6,0.2,13.2,0.4,29.7c1.1,0.1,2.2,0.9,3.1,0.3
		c0.4-0.3-0.5-2.4,0.4-3c4.7-3.3,9-4.6,16-5.7C308.4,44.6,307.7,48.6,307.7,48.6z M376.2,36.5c0,1.9-1.6,3.6-3.5,3.6
		c-1.7,0.1-5.4,0.2-7,0.2s-2.6,1.9-2.6,3.3c0,1.4,0,22.7,0,24.2c0,2,1.9,2.4,3.1,2.4c1.6,0,4.3-0.1,6.5-0.1c2.1,0,3,1.3,3.1,3
		c0.1,1.7,0,12.9-0.1,14.8c-0.1,2.2-2,3.6-3.5,3.7c-1.5,0-3.9,0-6.2,0c-2.4,0-2.8,2.4-2.8,4.7c0,3.9-0.3,13,0,20.5
		c0.1,1.4-1.1,1.2-1.1,2.7c0,1.6,0.9,0.1,0.8,1.9c0,1.3-1.8,1.2-2.7,3.4c-0.4,1-0.3,2.1,0.9,2.1c0.5,0,2.1-0.6,2.1,0.8
		c-0.1,12.7,0,24.5,0,24.5c0,2-1,3.3-2.9,3.3c-1.7,0-17.7,0-19.6,0c-1.9,0-3.4-0.8-3.6-3.6c-0.1-0.8-0.1-11.9,0-27.2
		c-2.3,1.8-4.9,3.5-7.8,5c-1,0.5-1.6-1.1-3.5-1.1c-1.1,0-2,0.9-2.5,1.7c-0.4,0.7-0.9,2.2-1.7,2.4c-0.9,0.2-1.7,0.5-2.6,0.7
		c-4.6,1.1-4.2-2.1-4.2-2.1v0c0.1-1.3,0.7-15.2,1-16.7c0.2-1.6-0.4-4.2,2.2-5.4c3.3-1.6,7-4.3,9.8-8.8c1.1-1.8,1.9-2,4.5-1.8
		c0.8,0,2.6,0.1,4.8,0.2c0-4.5,0-9,0-13.5c-0.9,0-1.6-0.1-1.9-0.1c-1.6-0.2-3.7,0.3-5-2.2c-1.6-3-4.1-7-8.2-10
		c-1.7-1.2-1.7-1.7-1.6-4.4c0.1-2.6,0.7-16.5,0.9-18.2c0.2-1.7,2.1-2.6,3.6-2c2.4,1,4.8,2,7.3,3.3c0.8,0.4,0.6,1.5,1.2,1.9
		c0.6,0.4,1.9-0.1,2.7,0.5c0.4,0.3,0.8,0.6,1.2,0.9c0-8,0-15,0-20.4c0-1.5,1.4-0.6,1.4-1.9c0-1.5-1.4-0.6-1.4-1.8c0-4.3,0-6.9,0-7.2
		c0-2.4,1.9-4.2,4.5-4.2c2.2,0,28.7,0,31.1,0c2.4,0,3.4,1.4,3.4,3.1C376.1,24.1,376.2,35.1,376.2,36.5z M448.5,37.7
		c0,0.9-1.5,1.2-1.6,1.8c0,0.9,1.1,0.2,1.1,1c0,0.3,0.1,0.7-0.4,0.9c-0.2,0.1-4.1,0.1-4.1,0.3c0,0.6,0.3,1,0.3,1.3
		c0,0.4-0.3,0.8-0.3,1.2c0,0.7,2.9,2.4,3.1,3.1c0.2,0.5-0.2,2.1,0.7,2.1c1.2,0,1.2,0.4,1.1,1.1c-0.1,1.8-0.9,1.7-0.9,2.5
		c0,0.7,0.9,0.8,0.9,2c0,0.9,0,1.8,0,2.7c0,0.5-0.9,1-1.1,1.4c-0.3,0.8-0.7,2-0.7,2.8c0,0.7,1.8,0.2,1.8,1.5
		c0,26.2-0.1,60.2-0.1,62.7c0.1,9.2-5.9,14.7-11.3,14.8c-4.1,0.1-30.1,0-34.1-0.1c-5.3-0.1-12.2-2-12.2-14c0-1.4,3.8-0.6,3.8-1.5
		c0-1-3.8-2.6-3.8-4.3c0.1-20,0.3-83.6,0.5-88.8c0.3-9,8.2-14.4,15.6-14.4c5.7,0,21.8,0.1,24.9,0.1c9.7-0.1,16.8,8.1,16.8,15.3
		C448.5,33.9,448.5,35.6,448.5,37.7z M498.5,141.1c-2-0.1-2.7-1.3-2.9-2.6c0-0.4,1.2-0.3,1.3-0.4c0.1,0,0.1,0,0.3,0
		c0.1,0,0.1,0.1,0.2,0.1c0.1,0.1-0.2,1.2,0.1,1.5c0.6,0.9,1.1,0,1.7,0.6C499.3,140.6,498.7,141.1,498.5,141.1z M520.6,44.8
		c0,9-0.1,19.6-0.1,21.2c-0.3,9.2-7.4,12.7-8.8,13.8v0c-1.4,1.1-1.9,2.7-0.1,3.5c1.8,0.7,8.7,3.9,8.8,8.5c0,4.7,0,40.9,0,44.3
		c0,3.4-0.4,4.7-3,4.7c-2,0-10.4-0.1-15.2-0.2c-0.3,0-0.2-0.9-0.3-1.2c-0.4-0.7-1.4-1.3-1.9-1.9c-0.4-0.5-1.4-1.2-1.5-1.9
		c-0.2-1.4-1.9-1-2.3,0.3c-0.1,0.3-0.2,0.7-0.4,0.7c-0.1,0-0.1-0.3-0.1-0.4c0-2.5,0.2-36,0.2-38.4c0-2.9-0.8-3.7-2.6-3.7
		c-1.3,0-2.2,0-3.4,0s-2.6,0.4-2.6,2.2c0,1.8-0.2,38-0.2,39.7c0,1.8-0.5,4.3-2.9,4.3c-2.3,0-14.4,0.1-16.7,0
		c-2.3-0.1-3.2-1.1-3.2-3.6c0-2.5,0.4-110.3,0.4-111.4c0-2,1.1-5.6,4.5-5.6c2.7,0,35.7,0.2,38,0.2c8.8-0.1,13.3,7.3,13.4,12.2
		c0,1.3,0,4.6,0.1,8.6c0,0.5-1.9,1-1.9,1.5c0,0.2,0,0.3,0,0.5C518.7,43.6,520.6,44.2,520.6,44.8z M581.1,40c0,1.7-1,3.9-2.7,3.9
		c-1.7,0-6.4-0.1-7.8-0.1c-1.4,0-2.6,0.2-2.6,2.4c0,0.7,0,11.3,0,24.9c0,1-1.2,1.9-1.2,2.9c0,0.8,0.8,1.7,0.8,2.5
		c0,0.7,0.4,1.3,0.4,2c0,14.5-0.1,30.9,0,42.6c0,1.5-1.6,0.6-2.2,0.6c-0.9,0.1-1.9,1.3-1.9,2.2c0,1.2,2,1.4,3,1.2
		c1.2-0.3,1.1,1.5,1.1,2c0,5.6,0,9.2,0,9.7c0,2.9-0.6,4.7-3.7,4.7c-2.9,0-15.4,0.1-17.3,0.1c-1.9,0.1-4.3-1-4.4-4.1
		c0-2.9,0.1-88.4,0.1-90.3c0-2.3-0.5-3.1-2.7-3.1c-1.9,0-4.8,0-6.2,0c-1.9,0-2.8-2.1-2.8-4c0-1.9,0.1-14.8,0.2-16
		c0.1-2.1,1-3.9,3.9-4l0,0c0.7,0,4.6,0,9.9,0c0.9,0,0.6,1.5,1.3,1.5c2.2,0.2,5.1,1.2,7.5,0.5c0.9-0.2,1.1-2.1,1.9-2.1
		c10.2,0,20.4,0,21.4,0c2.3,0,4,0.5,4,3.6C581.2,26.2,581.1,38.4,581.1,40z M648.7,66.3c-0.3,9.2-7.4,12.7-8.8,13.8
		c-1.4,1.1-1.9,2.7-0.1,3.5c1.8,0.7,8.7,3.9,8.8,8.5c0,1.7,0,7.4,0,14.2c0,1-0.5,1.2-0.5,2.3c0.1,1.5-1.8,1-1.8,2.8
		c0,1,0.5,1.1,0.4,1.8c0,0.5-0.5,0.6-0.5,1.6c0,0.9,1.8,0.8,2,0.9c0.4,0.1,0.4,0.1,0.4,0.6c0,9.5,0,18.5,0,20.1c0,3.4-0.4,4.7-3,4.7
		c-2.5,0-15.4-0.2-18-0.2c-2.7,0-3.7-1.8-3.7-4.3c0-2.5,0.2-36,0.2-38.4c0-2.9-0.8-3.7-2.6-3.7c-1.3,0-2.2,0-3.4,0
		c-1.3,0-2.6,0.4-2.6,2.2c0,1.8-0.2,38-0.2,39.8c0,1.8-0.5,4.3-2.9,4.3c-2.3,0-14.4,0.1-16.7,0c-2.3-0.1-3.2-1.1-3.2-3.6
		c0-1.7,0.6-52.5,0.3-84.9c0-1.2,2-0.6,2-1.5c0-0.9-2-1.7-2-2.6c0-0.4,0-0.9,0-1.2c0-0.9,1.5-0.3,1.5-0.8c0-1.2-1.5-2.2-1.5-2.9
		c0-10.3,0.1-17.2,0.1-17.5c0-2,1.1-5.6,4.5-5.6c2.7,0,35.7,0.2,38,0.2c8.8-0.1,13.3,7.3,13.4,12.2C648.8,37,648.8,63.6,648.7,66.3z
		 M703.5,79.7c-0.1,2.2-2.2,3.8-3.8,3.9c-1.4,0-6.3,0-8.6,0c-2.4,0-2.6,2.1-2.6,4.4c0,2.2-0.2,29.6-0.1,31.7
		c0.1,1.9,0.9,2.4,2.6,2.4c1.7,0,7.3,0,8.9,0c2.2,0,3.5,1.9,3.5,4.3c0,1.7,0,8.9-0.1,10.8c0,2-1,3.3-2.9,3.3c-1.7,0-30.1,0.1-32,0.1
		c-1.9,0-3.4-0.8-3.6-3.6c-0.2-2.9,0.1-111.2,0.1-113.4h0c0-2.4,2.1-4.2,4.7-4.2c2.2,0,28,0,30.4,0s3.4,1.4,3.4,3.1
		c0,1.7,0.1,9.9,0.1,11.3c0,1.9-1.6,3.6-3.5,3.6c-1.7,0-7.5,0.1-9.2,0.1c-1.7,0-2.6,1.9-2.6,3.3c0,1.4,0,18.4,0,19.9
		c0,2,1.9,2.6,3.1,2.6c1.6,0,6.9,0.1,9.1,0.1s3,1.3,3.1,3C703.6,68.5,703.5,77.8,703.5,79.7z M771.9,127.8c0.1,5.8-4.7,11.9-8.8,12
		c-2.5,0.1-34.2,0-36.2,0c-3.8,0.1-10.2-4-10.2-9.2c0-2.7-0.1-31.9-0.1-34c0-2.1,0.4-4.1,2.6-4.1c2.1,0,15.9,0,18.2,0
		c2.3,0,2.9,1,3,2.8c0.2,1.8-0.1,20.1-0.1,21.9c0,1.8,0.6,3.7,2.2,3.7c1.6,0,2.6,0,4,0c1.3,0,2.1-1.5,2.3-3.3
		c0.2-1.8,0.3-21.2,0.3-23.4c0-2.1-0.4-2.7-1.6-3.6c-1.3-0.9-27.1-20.2-28.6-21.3c-1.2-0.9-2.3-1.5-2.3-4c0-0.8,0-4.5,0-9.3
		c0-1,0.7-0.9,0.7-1.7c-0.1-0.8-0.7-0.5-0.7-1.2c0-1.2,3.3,0.1,3.4-1.3c0-1.2-0.7-1.5-0.7-2c0-0.7,0.4-1.1,0.3-1.8
		c-0.1-0.8-0.8-1.3-1.2-1.7c-0.3-0.3-1.9-0.6-1.9-1.1c0-8,0-15.4,0-16c0.1-5.1,3.4-10.4,9.2-10.6c0.8,0,3.3,0,6.5,0
		c0.7,0,1.2,1.1,2.6,1.1c1.4,0,0.5-1.1,1-1.1c1.3,0,2.2,0,3.5,0c0.6,0,0.8,0.8,2,0.9c1.4,0.1,1.2-1,1.7-1c8.6,0,17.3,0,18.9,0
		c4.5,0.1,9.7,3.8,9.7,8.2c0,4.5,0.2,26.1,0.2,28.8c0,2.7-0.5,4.4-2.9,4.4c-2.2,0.1-13.7,0.1-15.3,0.1c-1.6,0-3.5,0.3-3.6-2.1
		c-0.2-2.3,0-15.2,0-16.5c-0.1-2.4-1.7-3.1-3-3.1c-1.3,0-1.8,0-3,0c-1.8,0-3.1,1.5-3.1,3.3c0,1.8-0.1,11.5-0.1,13
		c0,1.4,0,2.1,1.3,3.6c1.2,1.4,23.9,17.6,26,19.2c2.2,1.6,4.1,3.8,4.1,5.9C772,85.9,771.8,125.1,771.9,127.8z"/>
	<path class="st2" d="M843.3,23.6c-0.2-0.4-0.4-0.8-0.7-1.1C842.7,23,842.8,23.4,843.3,23.6z"/>
</g>
</svg>
