<?xml version="1.0" encoding="UTF-8"?>
<svg xmlns="http://www.w3.org/2000/svg" xmlns:xlink="http://www.w3.org/1999/xlink" width="px" height="100px" viewBox="0 0 758 100" version="1.1">
<defs>
<linearGradient id="linear0" gradientUnits="userSpaceOnUse" x1="0" y1="17.76" x2="273.42" y2="17.76" gradientTransform="matrix(2.772292,0,0,2.773511,0,0.742448)">
<stop offset="0" style="stop-color:rgb(56.470588%,80.784314%,63.137255%);stop-opacity:1;"/>
<stop offset="0.56" style="stop-color:rgb(23.529412%,74.509804%,78.823529%);stop-opacity:1;"/>
<stop offset="1" style="stop-color:rgb(0%,70.196078%,89.803922%);stop-opacity:1;"/>
</linearGradient>
</defs>
<g id="surface1">
<path style=" stroke:none;fill-rule:nonzero;fill:url(#linear0);" d="M 531.863281 98.839844 L 709.011719 98.839844 C 736.066406 98.839844 758 76.898438 758 49.832031 C 758.023438 36.820312 752.871094 24.335938 743.683594 15.125 C 734.492188 5.917969 722.019531 0.742188 709.011719 0.742188 L 531.863281 0.742188 C 518.859375 0.742188 506.386719 5.917969 497.195312 15.125 C 488.007812 24.335938 482.855469 36.820312 482.878906 49.832031 C 482.878906 76.898438 504.808594 98.839844 531.863281 98.839844 Z M 28 98.980469 L 49.625 98.980469 L 49.625 19.933594 L 77.625 19.933594 L 77.625 0.742188 L 0 0.742188 L 0 19.878906 L 28 19.878906 Z M 105.902344 98.980469 L 127.527344 98.980469 L 127.527344 23.625 L 127.800781 23.625 L 152.613281 98.925781 L 169.25 98.925781 L 194.890625 23.625 L 195.167969 23.625 L 195.167969 98.925781 L 216.792969 98.925781 L 216.792969 0.742188 L 184.21875 0.742188 L 161.484375 64.8125 L 161.207031 64.8125 L 138.613281 0.742188 L 105.902344 0.742188 Z M 247.121094 1.074219 L 279.558594 1.074219 C 287.109375 1.085938 294.632812 2.019531 301.957031 3.847656 C 308.628906 5.433594 314.917969 8.335938 320.449219 12.390625 C 325.800781 16.414062 330.105469 21.667969 333.007812 27.699219 C 336.289062 34.871094 337.871094 42.699219 337.636719 50.582031 C 337.789062 57.84375 336.25 65.039062 333.144531 71.605469 C 330.257812 77.511719 326.113281 82.71875 321.003906 86.859375 C 315.773438 91.054688 309.800781 94.226562 303.398438 96.207031 C 296.632812 98.355469 289.570312 99.433594 282.46875 99.394531 L 247.121094 99.394531 Z M 268.746094 79.289062 L 279.835938 79.289062 C 284.5 79.320312 289.152344 78.808594 293.695312 77.761719 C 297.753906 76.9375 301.589844 75.265625 304.953125 72.855469 C 308.164062 70.421875 310.714844 67.230469 312.382812 63.5625 C 314.328125 59.125 315.273438 54.316406 315.152344 49.472656 C 315.238281 45.132812 314.285156 40.835938 312.382812 36.9375 C 310.652344 33.480469 308.160156 30.464844 305.089844 28.117188 C 301.902344 25.746094 298.300781 23.988281 294.472656 22.929688 C 290.25 21.75 285.882812 21.160156 281.5 21.183594 L 268.746094 21.183594 Z M 368.964844 1.074219 L 405.558594 1.074219 C 409.851562 1.078125 414.144531 1.382812 418.394531 1.992188 C 422.425781 2.511719 426.339844 3.734375 429.953125 5.597656 C 433.332031 7.347656 436.199219 9.949219 438.273438 13.140625 C 440.570312 17.035156 441.679688 21.519531 441.460938 26.035156 C 441.648438 31.066406 440.003906 35.996094 436.828125 39.90625 C 433.589844 43.660156 429.320312 46.378906 424.546875 47.726562 L 424.546875 47.890625 C 427.617188 48.332031 430.597656 49.265625 433.363281 50.664062 C 435.921875 51.949219 438.222656 53.6875 440.15625 55.796875 C 442.074219 57.90625 443.550781 60.378906 444.507812 63.0625 C 445.542969 65.90625 446.058594 68.914062 446.035156 71.9375 C 446.199219 76.496094 445.042969 81.003906 442.707031 84.917969 C 440.53125 88.328125 437.589844 91.175781 434.113281 93.238281 C 430.460938 95.433594 426.453125 96.980469 422.277344 97.816406 C 417.964844 98.738281 413.570312 99.203125 409.164062 99.203125 L 368.964844 99.203125 Z M 390.589844 40.320312 L 406.25 40.320312 C 407.914062 40.328125 409.570312 40.144531 411.1875 39.765625 C 412.734375 39.429688 414.207031 38.820312 415.539062 37.964844 C 416.839844 37.125 417.914062 35.980469 418.671875 34.632812 C 419.484375 33.097656 419.886719 31.378906 419.835938 29.640625 C 419.925781 27.878906 419.5 26.125 418.617188 24.59375 C 417.753906 23.285156 416.585938 22.207031 415.207031 21.460938 C 413.660156 20.683594 412.007812 20.152344 410.300781 19.878906 C 408.609375 19.550781 406.890625 19.386719 405.171875 19.378906 L 390.476562 19.378906 Z M 390.589844 80.953125 L 409.996094 80.953125 C 411.699219 80.957031 413.402344 80.769531 415.066406 80.398438 C 416.722656 80.058594 418.296875 79.398438 419.695312 78.457031 C 421.097656 77.53125 422.261719 76.300781 423.105469 74.851562 C 424.019531 73.195312 424.46875 71.328125 424.410156 69.441406 C 424.484375 67.453125 423.878906 65.496094 422.691406 63.894531 C 421.527344 62.457031 420.019531 61.332031 418.3125 60.621094 C 416.535156 59.882812 414.671875 59.371094 412.765625 59.097656 C 410.882812 58.828125 408.984375 58.691406 407.082031 58.679688 L 390.726562 58.679688 Z M 390.589844 80.953125 "/>
</g>
</svg>
