<svg xmlns="http://www.w3.org/2000/svg" xml:space="preserve" width="377.953px" height="68.135px" x="0px" y="0px" viewBox="0 0 377.953 68.135"><g fill="#FFF"><path d="M51.643 39.444c0 12.676-10.276 22.95-22.952 22.95-12.676 0-22.952-10.275-22.952-22.95V12.257c0-1.189.904-2.166 2.061-2.284l41.316-4.132a2.295 2.295 0 0 1 2.527 2.284v31.32zM50.496 0c-.232 0-.46.012-.685.035L6.2 4.396a6.887 6.887 0 0 0-6.2 6.85v28.198c0 15.845 12.845 28.69 28.69 28.69 15.846 0 28.693-12.845 28.693-28.69V6.887A6.888 6.888 0 0 0 50.496 0M40.74 14.437c-.077 0-.155.004-.23.012l-24.095 2.41a2.295 2.295 0 0 0-2.07 2.284v20.301c0 7.921 6.423 14.345 14.346 14.345 7.922 0 14.345-6.424 14.345-14.345V16.732a2.296 2.296 0 0 0-2.296-2.295M220.385 3.097h-8.849c-.815 0-1.475.66-1.475 1.475v37.952L192.457 4.8a2.955 2.955 0 0 0-2.672-1.702h-9.218a2.95 2.95 0 0 0-2.951 2.95v57.516a1.48 1.48 0 0 0 1.476 1.476h8.848c.816 0 1.475-.664 1.475-1.476V25.608l17.606 37.728a2.95 2.95 0 0 0 2.672 1.703h9.218a2.952 2.952 0 0 0 2.949-2.95V4.571c0-.815-.66-1.475-1.475-1.475M271.519 3.097h-33.92c-1.222 0-2.214.991-2.214 2.212v57.516c0 1.222.992 2.214 2.214 2.214h33.92c.813 0 1.473-.662 1.473-1.476v-8.11c0-.816-.66-1.476-1.473-1.476h-22.86V14.16h22.86c.813 0 1.473-.66 1.473-1.476v-8.11c0-.814-.66-1.476-1.473-1.476M163.101 28.168h-15.485c-.813 0-1.475.66-1.475 1.475v8.11c0 .815.662 1.476 1.475 1.476h15.485c.812 0 1.475-.662 1.475-1.476v-8.11c0-.815-.663-1.475-1.475-1.475M131.625 3.097h-10.322c-.816 0-1.476.66-1.476 1.475v39.819c0 6.352-2.984 9.586-8.848 9.586s-8.85-3.234-8.85-9.586V4.572c0-.815-.661-1.475-1.474-1.475H90.332c-.813 0-1.475.66-1.475 1.475v39.819c0 14.661 7.46 22.121 22.122 22.121s22.121-7.46 22.121-22.121V4.572c0-.815-.659-1.475-1.475-1.475M376.479 3.097h-38.346c-.814 0-1.474.662-1.474 1.475v8.11c0 .817.66 1.477 1.474 1.477h12.536v49.404c0 .814.66 1.476 1.475 1.476h10.323c.816 0 1.476-.662 1.476-1.476V14.159h12.534c.815 0 1.475-.66 1.475-1.476v-8.11a1.473 1.473 0 0 0-1.473-1.476"/><path d="M253.82 28.168c-.813 0-1.473.661-1.473 1.475v8.11c0 .816.66 1.476 1.473 1.476h15.485c.815 0 1.475-.66 1.475-1.476v-8.11c0-.814-.66-1.475-1.475-1.475H253.82zM328.793 3.097h-10.882c-.859 0-1.64.498-2.004 1.278l-8.623 18.473-8.623-18.473a2.207 2.207 0 0 0-2.004-1.278h-10.882a1.473 1.473 0 0 0-1.298 2.17l15.36 28.801-15.36 28.801a1.473 1.473 0 0 0 1.298 2.17h10.882c.859 0 1.643-.498 2.004-1.279l8.623-18.475 8.623 18.475a2.21 2.21 0 0 0 2.004 1.279h10.882a1.474 1.474 0 0 0 1.3-2.17l-15.361-28.8 15.361-28.802a1.474 1.474 0 0 0-1.3-2.17"/></g></svg>