<?xml version="1.0" encoding="utf-8"?>
<!-- Generator: Adobe Illustrator 28.2.0, SVG Export Plug-In . SVG Version: 6.00 Build 0)  -->
<svg version="1.1" id="레이어_1" xmlns="http://www.w3.org/2000/svg" xmlns:xlink="http://www.w3.org/1999/xlink" x="0px"
	 y="0px" viewBox="0 0 515 74" style="enable-background:new 0 0 515 74;" xml:space="preserve">
<style type="text/css">
	.st0{fill:#FFFFFF;}
</style>
<path class="st0" d="M459.1,14.4h18.4l0.1,56.5c0,0.7,0.6,1.3,1.3,1.3l10.5,0c0.7,0,1.3-0.6,1.3-1.3c0,0,0,0,0,0l-0.1-56.5h23.1
	c0.7,0,1.1-0.8,0.6-1.3l-7.9-9.9c-0.7-0.8-1.7-1.3-2.7-1.3h-44.7c-0.7,0-1.3,0.6-1.3,1.3c0,0,0,0,0,0V13
	C457.8,13.8,458.4,14.4,459.1,14.4 M14.4,70.9L68.4,3.1c0.3-0.4,0.2-0.9-0.1-1.1c-0.1-0.1-0.3-0.2-0.5-0.2H54.3
	c-1.1,0-2.1,0.5-2.7,1.3l-38.3,48v-48c0-0.7-0.6-1.3-1.3-1.3c0,0,0,0,0,0H1.3C0.6,1.8,0,2.4,0,3.1v67.7c0,0.7,0.6,1.3,1.3,1.3h10.3
	C12.7,72.2,13.7,71.7,14.4,70.9 M52.5,70.9l18.6-23.3l18.6,23.3c0.7,0.8,1.7,1.3,2.7,1.3h10.3c0.7,0,1.3-0.6,1.3-1.3c0,0,0,0,0,0
	V3.1c0-0.7-0.6-1.3-1.3-1.3h-8.7c-2.1,0-4.1,1-5.5,2.6l-53,66.4c-0.3,0.4-0.2,0.9,0.1,1.1c0.1,0.1,0.3,0.2,0.5,0.2h13.5
	C50.8,72.2,51.8,71.7,52.5,70.9 M90.8,21.4v31.2L78.4,37L90.8,21.4z M392.6,70.8L338.6,3.1c-0.7-0.8-1.7-1.3-2.7-1.3h-10.3
	c-0.7,0-1.3,0.6-1.3,1.3v67.7c0,0.7,0.6,1.3,1.3,1.3h10.3c1.1,0,2.1-0.5,2.7-1.3l18.6-23.3l18.6,23.3c0.7,0.8,1.7,1.3,2.7,1.3H392
	C392.7,72.2,393.1,71.4,392.6,70.8 M349.9,37l-12.5,15.6V21.4L349.9,37z M201.1,0c-20.4,0-36.9,16.5-36.9,36.9s16.5,37,36.9,37
	c20.4,0,36.9-16.5,36.9-37C238,16.6,221.5,0,201.1,0 M201.1,61.4c-13.1,0-23.7-10.9-23.7-24.4s10.6-24.4,23.7-24.4
	c13.1,0,23.7,10.9,23.7,24.4C224.8,50.5,214.2,61.4,201.1,61.4 M435.4,3.1v48L397.1,3.1c-0.7-0.8-1.7-1.3-2.7-1.3H384
	c-0.7,0-1.3,0.6-1.3,1.3v32.6c0,0.8,0.3,1.6,0.8,2.2l11,13.8c0.5,0.6,1.5,0.3,1.5-0.5V22.8l38.4,48.1c0.7,0.8,1.7,1.3,2.7,1.3h10.3
	c0.7,0,1.3-0.6,1.3-1.3V3.1c0-0.7-0.6-1.3-1.3-1.3h-10.6C436,1.8,435.4,2.4,435.4,3.1 M306.5,17.8V3.1c0-0.7-0.6-1.3-1.3-1.3
	c0,0,0,0,0,0h-54c-0.7,0-1.3,0.6-1.3,1.3v67.7c0,0.7,0.6,1.3,1.3,1.3h10.6c0.7,0,1.3-0.6,1.3-1.3V14.4h30.3L272.9,40
	c-0.4,0.5-0.4,1.2,0,1.7l23.3,29.2c0.7,0.8,1.7,1.3,2.7,1.3h13.5c0.7,0,1.1-0.8,0.6-1.3l-24-30.1L305.7,20
	C306.2,19.4,306.5,18.6,306.5,17.8 M121.2,72.2h31.3c1.1,0,2.1-0.5,2.7-1.3l7.9-9.9c0.4-0.5,0-1.3-0.6-1.3h-29.4V3.1
	c0-0.7-0.6-1.3-1.3-1.3c0,0,0,0,0,0h-10.6c-0.7,0-1.3,0.6-1.3,1.3v67.7C119.9,71.6,120.5,72.2,121.2,72.2"/>
</svg>
