<?xml version="1.0" encoding="utf-8"?>
<!-- Generator: Adobe Illustrator 28.2.0, SVG Export Plug-In . SVG Version: 6.00 Build 0)  -->
<svg version="1.1"
	 id="svg2" xmlns:svg="http://www.w3.org/2000/svg" xmlns:cc="http://creativecommons.org/ns#" xmlns:rdf="http://www.w3.org/1999/02/22-rdf-syntax-ns#" xmlns:inkscape="http://www.inkscape.org/namespaces/inkscape" xmlns:dc="http://purl.org/dc/elements/1.1/" xmlns:sodipodi="http://sodipodi.sourceforge.net/DTD/sodipodi-0.dtd"
	 xmlns="http://www.w3.org/2000/svg" xmlns:xlink="http://www.w3.org/1999/xlink" x="0px" y="0px" viewBox="0 0 1000 278.6"
	 style="enable-background:new 0 0 1000 278.6;" xml:space="preserve">
<style type="text/css">
	.st0{fill:#FFFFFF;}
</style>
<path id="path4" inkscape:connector-curvature="0" class="st0" d="M0,278.6V0h1000v278.6H0z M173.8,57.1l-33.3,126.2L107.1,57.1h-31
	l50,166.7h28.6l50-166.7H173.8z M347.6,57.1h-40.5l-50,166.7h33.3l10.2-40.5h51l10.2,40.5h33.3L347.6,57.1z M581,195.2h-71.4V57.1
	h-31v166.7h16.7h14.3H581V195.2z M721.4,57.1l-33.3,126.2L654.8,57.1h-31l50,166.7h28.6l50-166.7H721.4z M892.9,150h-45.2v-26.2
	h40.5v-21.4h-40.5V78.6h45.2V57.1h-45.2h-23.8v114.3h23.8h45.2V150z M326.2,83.3l18.8,73.8h-37.6L326.2,83.3z"/>
</svg>
