<?xml version="1.0" encoding="UTF-8"?>
<svg xmlns="http://www.w3.org/2000/svg" xmlns:xlink="http://www.w3.org/1999/xlink" width="px" height="100px" viewBox="0 0 520 100" version="1.1">
<g id="surface1">
<path style=" stroke:none;fill-rule:nonzero;fill:rgb(100%,100%,100%);fill-opacity:1;" d="M 252.851562 50.484375 L 240.378906 50.484375 L 240.378906 21.152344 L 224.191406 21.152344 L 224.191406 95.589844 L 240.378906 95.589844 L 240.378906 65.964844 L 252.851562 65.964844 L 252.851562 95.589844 L 269.035156 95.589844 L 269.035156 21.15625 L 252.851562 21.15625 Z M 130.335938 36.644531 L 143.402344 36.644531 L 143.402344 95.59375 L 159.589844 95.59375 L 159.589844 36.644531 L 171.917969 36.644531 L 171.917969 21.15625 L 130.335938 21.15625 Z M 97.8125 21.15625 L 84.742188 95.59375 L 100.480469 95.59375 L 102.25 83.5625 L 117.160156 83.5625 L 118.898438 95.597656 L 134.785156 95.597656 L 121.574219 21.152344 L 97.8125 21.152344 Z M 104.242188 70.027344 L 108.800781 39.050781 L 110.730469 39.050781 L 115.207031 70.027344 Z M 104.242188 70.027344 "/>
<path style=" stroke:none;fill-rule:evenodd;fill:rgb(100%,100%,100%);fill-opacity:1;" d="M 69.9375 0 L 65.09375 71.207031 L 63.792969 71.277344 L 52.269531 20.898438 L 38.03125 20.898438 L 29.410156 73.101562 L 27.558594 73.199219 L 19.847656 20.898438 L 0 20.898438 L 18.054688 98.75 L 38.238281 97.402344 L 44.804688 49.074219 L 46.734375 48.972656 L 55.527344 96.234375 L 74.84375 94.933594 L 90.1875 0 Z M 69.9375 0 "/>
<path style=" stroke:none;fill-rule:nonzero;fill:rgb(100%,100%,100%);fill-opacity:1;" d="M 196.863281 20.402344 C 182.308594 20.402344 175.328125 28.371094 175.328125 40.707031 L 175.328125 76.042969 C 175.328125 88.375 182.308594 96.34375 196.863281 96.34375 C 211.417969 96.34375 218.398438 88.375 218.398438 76.042969 L 218.398438 63.261719 L 202.210938 63.261719 L 202.210938 77.546875 C 202.210938 81.457031 200.726562 82.808594 196.863281 82.808594 C 193.007812 82.808594 191.519531 81.457031 191.519531 77.546875 L 191.519531 39.203125 C 191.519531 35.292969 193.003906 33.9375 196.863281 33.9375 C 200.726562 33.9375 202.210938 35.292969 202.210938 39.199219 L 202.210938 47.621094 L 218.398438 47.621094 L 218.398438 40.707031 C 218.398438 28.371094 211.417969 20.402344 196.863281 20.402344 Z M 285.964844 21.15625 L 272.898438 95.59375 L 288.640625 95.59375 L 290.40625 83.5625 L 305.320312 83.5625 L 307.058594 95.597656 L 322.949219 95.597656 L 309.726562 21.152344 L 285.964844 21.152344 Z M 292.398438 70.027344 L 296.957031 39.050781 L 298.886719 39.050781 L 303.363281 70.027344 Z M 432.824219 21.15625 L 416.492188 21.15625 L 416.492188 95.59375 L 432.824219 95.59375 C 442.035156 95.59375 448.121094 91.984375 451.09375 85.367188 C 452.875 81.457031 453.324219 77.851562 453.324219 58.300781 C 453.324219 38.898438 452.875 35.292969 451.09375 31.382812 C 448.121094 24.761719 442.035156 21.15625 432.824219 21.15625 Z M 442.035156 81.15625 C 440.550781 84.765625 437.429688 86.71875 431.9375 86.71875 L 426.144531 86.71875 L 426.144531 30.035156 L 431.9375 30.035156 C 437.429688 30.035156 440.550781 31.984375 442.035156 35.597656 C 443.222656 38.152344 443.519531 40.40625 443.519531 58.457031 C 443.519531 76.351562 443.222656 78.601562 442.035156 81.160156 Z M 506.488281 21.15625 L 491.785156 21.15625 L 478.121094 95.59375 L 487.773438 95.59375 L 490.148438 80.558594 L 507.972656 80.558594 L 510.496094 95.59375 L 520 95.59375 Z M 491.636719 72.132812 L 498.914062 28.976562 L 499.210938 28.976562 L 506.488281 72.132812 Z M 471.140625 21.15625 L 461.488281 21.15625 L 461.488281 95.59375 L 471.140625 95.59375 Z M 357.980469 21.15625 L 340.457031 21.15625 L 340.457031 95.59375 L 349.960938 95.59375 L 349.960938 60.855469 L 357.980469 60.855469 C 365.40625 60.855469 370.15625 58.75 372.238281 54.089844 C 373.277344 51.382812 373.574219 49.277344 373.574219 41.007812 C 373.574219 32.734375 373.277344 30.480469 372.238281 28.074219 C 370.15625 23.261719 365.40625 21.15625 357.980469 21.15625 Z M 363.175781 48.671875 C 362.136719 51.382812 359.613281 51.984375 355.605469 51.984375 L 349.960938 51.984375 L 349.960938 29.425781 L 355.605469 29.425781 C 359.613281 29.425781 362.136719 30.179688 363.175781 32.738281 C 363.773438 34.089844 363.921875 34.839844 363.921875 40.703125 C 363.921875 46.421875 363.773438 47.472656 363.175781 48.675781 Z M 380.554688 95.59375 L 407.582031 95.59375 L 407.582031 86.722656 L 390.207031 86.722656 L 390.207031 60.558594 L 407.136719 60.558594 L 407.136719 51.6875 L 390.207031 51.6875 L 390.207031 30.03125 L 407.582031 30.03125 L 407.582031 21.15625 L 380.554688 21.15625 Z M 380.554688 95.59375 "/>
</g>
</svg>
