<?xml version="1.0" encoding="UTF-8"?>
<svg xmlns="http://www.w3.org/2000/svg" version="1.1" xmlns:cc="http://creativecommons.org/ns#" xmlns:dc="http://purl.org/dc/elements/1.1/" xmlns:inkscape="http://www.inkscape.org/namespaces/inkscape" xmlns:rdf="http://www.w3.org/1999/02/22-rdf-syntax-ns#" xmlns:sodipodi="http://sodipodi.sourceforge.net/DTD/sodipodi-0.dtd" xmlns:svg="http://www.w3.org/2000/svg" xmlns:xlink="http://www.w3.org/1999/xlink" viewBox="0 0 170.2 33.2">
  <defs>
    <style>
      .cls-1 {
        fill: #02a74d;
      }

      .cls-1, .cls-2, .cls-3, .cls-4, .cls-5, .cls-6, .cls-7, .cls-8, .cls-9 {
        stroke-width: 0px;
      }

      .cls-2 {
        fill: url(#_무제_그라디언트_3);
      }

      .cls-3 {
        fill: #177d3e;
      }

      .cls-4 {
        fill: url(#_무제_그라디언트_5);
      }

      .cls-5 {
        fill: url(#_무제_그라디언트_2);
      }

      .cls-6 {
        fill: #00a54d;
      }

      .cls-7 {
        fill: url(#_무제_그라디언트);
      }

      .cls-8 {
        fill: #fff;
      }

      .cls-9 {
        fill: url(#_무제_그라디언트_4);
      }
    </style>
    <radialGradient id="_무제_그라디언트" data-name="무제 그라디언트" cx="-507.9" cy="341.2" fx="-507.9" fy="341.2" r="14.4" gradientTransform="translate(2977.5 4068.7) rotate(90.4) scale(8 8.8) skewX(.8)" gradientUnits="userSpaceOnUse">
      <stop offset="0" stop-color="#fff"/>
      <stop offset="1" stop-color="#000"/>
    </radialGradient>
    <linearGradient id="_무제_그라디언트_2" data-name="무제 그라디언트 2" x1="8.3" y1="-225.9" x2="4.3" y2="-221.3" gradientTransform="translate(2.5 -204.4) scale(1 -1)" gradientUnits="userSpaceOnUse">
      <stop offset="0" stop-color="#97ca43"/>
      <stop offset="1" stop-color="#97ca43" stop-opacity="0"/>
    </linearGradient>
    <linearGradient id="_무제_그라디언트_3" data-name="무제 그라디언트 3" x1="8.5" y1="-214.7" x2="12.1" y2="-206.7" gradientTransform="translate(2.1 -204.3) scale(1 -1)" gradientUnits="userSpaceOnUse">
      <stop offset="0" stop-color="#97ca43"/>
      <stop offset="1" stop-color="#97ca43" stop-opacity="0"/>
    </linearGradient>
    <linearGradient id="_무제_그라디언트_4" data-name="무제 그라디언트 4" x1="-3958.5" y1="-221.1" x2="-3963.6" y2="-215.8" gradientTransform="translate(-3826.2 -202.4) rotate(-180) scale(1 1)" gradientUnits="userSpaceOnUse">
      <stop offset="0" stop-color="#97ca43"/>
      <stop offset="1" stop-color="#97ca43" stop-opacity="0"/>
    </linearGradient>
    <linearGradient id="_무제_그라디언트_5" data-name="무제 그라디언트 5" x1="-3955.2" y1="-209.6" x2="-3952.1" y2="-204.6" gradientTransform="translate(-3826.1 -202.4) rotate(-180) scale(1 1)" gradientUnits="userSpaceOnUse">
      <stop offset="0" stop-color="#97ca43"/>
      <stop offset="1" stop-color="#97ca43" stop-opacity="0"/>
    </linearGradient>
  </defs>
  <g id="svg3009" inkscape:version="0.48.4 r9939">
    <g id="g4201">
      <path id="path3017" class="cls-8" d="M124.1,5.5c-5.8,0-9.9,4.5-9.9,10.8s4.1,10.8,9.9,10.8,9.9-4.5,9.9-10.8c-.1-6.4-4.1-10.8-9.9-10.8M124.1,24.9c-4.4,0-7.5-3.6-7.5-8.6s3.1-8.6,7.5-8.6,7.5,3.6,7.5,8.6-3.1,8.6-7.5,8.6"/>
      <polygon id="polygon3015" class="cls-8" points="150.6 5.9 150.6 23 138.1 5.9 136 5.9 136 26.7 138.3 26.7 138.3 10 150.6 26.7 152.9 26.7 152.9 5.9 150.6 5.9"/>
      <polygon id="polygon3019" class="cls-8" points="157.9 24.6 157.9 17 169.3 17 169.3 14.9 157.9 14.9 157.9 8 170 8 170 5.9 155.5 5.9 155.5 26.7 170.2 26.7 170.2 24.6 157.9 24.6"/>
    </g>
    <polygon id="polygon3021" class="cls-3" points="107.4 26.6 100.7 17.6 94.1 26.6 91.4 26.6 99.4 15.7 92.1 5.8 94.8 5.8 100.7 13.9 106.7 5.8 109.4 5.8 102.1 15.7 110.1 26.6 107.4 26.6"/>
    <path id="path3023" class="cls-3" d="M70.9,16.5c-.4-.4-.9-.7-1.4-.9,1.5-.8,2.5-2.4,2.5-4.2s-.5-5.6-6.7-5.6h-8.4v9h-2.8c-.4.5-1.2,1.6-1.5,2.1h4.3v9.7h8.4c4.6,0,7.4-2.3,7.4-6.1,0-1.6-.6-3-1.8-4M59.2,8h6.1c1.7,0,4.4.4,4.4,3.3s-1.6,3.5-4.4,3.5h-6.1s0-6.8,0-6.8ZM65.3,24.4h-6.1v-7.6h6.1c2.3,0,5.1.6,5.1,3.6s-3.2,4-5.1,4"/>
    <path id="path3025" class="cls-3" d="M83.6,5.3c-5.8,0-9.9,4.5-9.9,10.9s4.1,10.8,9.9,10.8,9.9-4.5,9.9-10.8-4-10.9-9.9-10.9M83.6,24.8c-4.4,0-7.5-3.6-7.5-8.6s3.1-8.6,7.5-8.6,7.5,3.6,7.5,8.6c0,5.1-3,8.6-7.5,8.6"/>
    <polygon id="polygon3027" class="cls-3" points="55.7 26.6 47.8 15.7 55 5.8 52.3 5.8 46.4 13.9 40.5 5.8 37.7 5.8 45 15.7 37 26.6 39.8 26.6 46.4 17.6 53 26.6 55.7 26.6"/>
    <g id="g3055">
      <g id="g4049">
        <g id="g4160">
          <ellipse id="path3033" class="cls-7" cx="16.8" cy="16.7" rx="16.8" ry="16.6"/>
          <g id="g4126">
            <g id="g4010">
              <g id="g3951">
                <g id="g3917">
                  <path id="path3900" class="cls-6" d="M12.4,9.4c-1.8,2.3-9.5,11.4-8.8,17.6.5.6,1,1.2,1.6,1.7,0-4.7,5.4-9.8,9.7-13.7l-2.5-5.6Z" inkscape:connector-curvature="0" sodipodi:nodetypes="ccccc"/>
                </g>
                <g id="g3988">
                  <path id="path3990" class="cls-5" d="M12.4,9.4c-1.8,2.3-9.5,11.4-8.8,17.6.5.6,1,1.2,1.6,1.7,0-4.7,5.4-9.8,9.7-13.7l-2.5-5.6Z" inkscape:connector-curvature="0" sodipodi:nodetypes="ccccc"/>
                </g>
                <g id="g3888">
                  <g id="g3876">
                    <path id="path3089" class="cls-1" d="M7.9,2.5c-1,.6-1.9,1.3-2.7,2,2.7.5,5.2,2.9,6.7,4.8,1.3,2,2,3.8,2.9,5.7.6-.5,1.2-1,1.9-1.6V5.2c-2.1-1.2-5.2-2.8-8.8-2.7h0Z" inkscape:connector-curvature="0" sodipodi:nodetypes="cccccccc"/>
                    <path id="path4000" class="cls-2" d="M7.9,2.5c-1,.6-1.9,1.3-2.7,2,2.7.5,5.2,2.9,6.7,4.8,1.3,2,2,3.8,2.9,5.7.6-.5,1.2-1,1.9-1.6V5.2c-2.1-1.2-5.2-2.8-8.8-2.7h0Z" inkscape:connector-curvature="0" sodipodi:nodetypes="cccccccc"/>
                  </g>
                </g>
              </g>
            </g>
            <g id="g4021">
              <g id="g4023">
                <g id="g4025">
                  <path id="path4027" class="cls-6" d="M21,9.4c1.8,2.3,9.4,11.4,8.8,17.6-.5.6-1,1.2-1.6,1.7,0-4.7-5.4-9.8-9.6-13.7l2.5-5.6Z" inkscape:connector-curvature="0" sodipodi:nodetypes="ccccc"/>
                </g>
                <g id="g4029">
                  <path id="path4031" class="cls-9" d="M21,9.4c1.8,2.3,9.4,11.4,8.8,17.6-.5.6-1,1.2-1.6,1.7,0-4.7-5.4-9.8-9.6-13.7l2.5-5.6Z" inkscape:connector-curvature="0" sodipodi:nodetypes="ccccc"/>
                </g>
                <g id="g4033">
                  <g id="g4035">
                    <path id="path4037" class="cls-1" d="M25.5,2.5c1,.6,1.9,1.3,2.7,2-2.7.5-5.2,2.9-6.7,4.8-1.3,2-2,3.8-2.9,5.7-.6-.5-1.2-1-1.9-1.6V5.2c2-1.2,5.2-2.8,8.8-2.7h0Z" inkscape:connector-curvature="0" sodipodi:nodetypes="cccccccc"/>
                    <path id="path4039" class="cls-4" d="M25.5,2.5c1,.6,1.9,1.3,2.7,2-2.7.5-5.2,2.9-6.7,4.8-1.3,2-2,3.8-2.9,5.7-.6-.5-1.2-1-1.9-1.6V5.2c2-1.2,5.2-2.8,8.8-2.7h0Z" inkscape:connector-curvature="0" sodipodi:nodetypes="cccccccc"/>
                  </g>
                </g>
              </g>
            </g>
          </g>
        </g>
      </g>
    </g>
  </g>
</svg>