<svg xmlns="http://www.w3.org/2000/svg" width="840.38416" height="106.92253" viewBox="0 0 840.38416 106.92253"><path d="M837.883 116.055v80.157h4.892v-80.157zm-366.18 6.574c-6.922 0-12.494 1.594-16.552 4.736-4.077 3.144-6.139 7.419-6.139 12.693 0 5.275 1.698 9.462 5.051 12.461 3.344 2.992 8.364 5.173 14.924 6.49l5.468 1.166c5.4 1.186 9.194 2.558 11.259 4.071 2.058 1.5 3.1 3.666 3.1 6.432 0 3.423-1.27 6.074-3.774 7.878-2.511 1.8-6.158 2.72-10.834 2.72-5.662 0-9.986-1.202-12.856-3.572-2.86-2.365-4.355-5.969-4.445-10.703v-.094h-9.777v.1c.057 7.356 2.468 13.033 7.16 16.863 4.688 3.831 11.326 5.766 19.742 5.766 7.752 0 13.906-1.729 18.302-5.135 4.395-3.413 6.625-8.154 6.625-14.087 0-4.978-1.625-8.99-4.829-11.928-3.194-2.932-8.503-5.203-15.78-6.757l-5.556-1.167c-5.279-1.13-8.944-2.514-10.903-4.115-1.937-1.473-2.923-3.683-2.923-6.57 0-2.828 1.105-5.037 3.282-6.566 2.187-1.54 5.393-2.321 9.539-2.321 5.33 0 9.25.974 11.642 2.898 2.386 1.922 3.746 4.963 4.046 9.05l.01.086h9.686v-.1c-.122-6.281-2.319-11.291-6.536-14.881-4.21-3.591-10.58-5.414-18.931-5.414zm244.517 0c-6.922 0-12.493 1.594-16.555 4.736-4.07 3.144-6.133 7.419-6.133 12.693 0 5.275 1.7 9.462 5.051 12.461 3.344 2.992 8.366 5.173 14.923 6.49l5.468 1.166c5.403 1.186 9.187 2.558 11.261 4.071 2.056 1.5 3.099 3.666 3.099 6.432 0 3.423-1.27 6.074-3.773 7.878-2.51 1.8-6.16 2.72-10.839 2.72-5.656 0-9.982-1.202-12.85-3.572-2.866-2.365-4.36-5.969-4.447-10.703v-.094h-9.776v.1c.056 7.356 2.467 13.033 7.162 16.863 4.685 3.831 11.326 5.766 19.736 5.766 7.755 0 13.91-1.729 18.305-5.135 4.395-3.413 6.623-8.154 6.623-14.087-.005-4.978-1.626-8.99-4.827-11.928-3.194-2.932-8.507-5.203-15.78-6.757l-5.553-1.167c-5.28-1.13-8.952-2.514-10.902-4.115-1.94-1.473-2.923-3.683-2.923-6.57 0-2.828 1.1-5.037 3.277-6.566 2.187-1.54 5.395-2.321 9.54-2.321 5.332 0 9.25.974 11.639 2.898 2.39 1.922 3.753 4.963 4.049 9.05l.002.086h9.687v-.1c-.123-6.281-2.318-11.291-6.533-14.881-4.214-3.591-10.581-5.414-18.932-5.414zm166.823 0c-6.922 0-12.493 1.594-16.554 4.736-4.068 3.144-6.137 7.419-6.137 12.693 0 5.275 1.704 9.462 5.051 12.461 3.347 2.992 8.369 5.173 14.926 6.49l5.469 1.166c5.403 1.186 9.186 2.558 11.26 4.071 2.054 1.5 3.1 3.666 3.1 6.432 0 3.423-1.267 6.074-3.773 7.878-2.514 1.8-6.16 2.72-10.84 2.72-5.655 0-9.982-1.202-12.849-3.572-2.866-2.365-4.36-5.969-4.448-10.703v-.094h-9.779v.1c.063 7.356 2.474 13.033 7.163 16.863 4.685 3.831 11.326 5.766 19.74 5.766 7.754 0 13.912-1.729 18.304-5.135 4.398-3.413 6.626-8.154 6.626-14.087 0-4.978-1.63-8.99-4.833-11.928-3.194-2.932-8.503-5.203-15.775-6.757l-5.559-1.167c-5.28-1.13-8.943-2.514-10.899-4.115-1.94-1.473-2.923-3.683-2.923-6.57 0-2.828 1.1-5.037 3.278-6.566 2.187-1.54 5.394-2.321 9.54-2.321 5.328 0 9.25.974 11.642 2.898 2.386 1.922 3.746 4.963 4.043 9.05l.007.086h9.685v-.1c-.122-6.281-2.315-11.291-6.532-14.881-4.215-3.591-10.585-5.414-18.933-5.414zm-320.683 1.437v64.126h9.783V161.88h18.461c3.666 0 6.354.848 8.004 2.53 1.65 1.68 2.573 4.606 2.751 8.694l.265 6.824c.063 3.712.703 6.483 1.906 8.223l.028.047h10.074l-.082-.146c-1.126-1.897-1.844-4.508-2.14-7.767l-.63-9.97c-.122-3.534-.908-6.406-2.346-8.537-1.394-2.065-3.606-3.572-6.572-4.49 3.275-1.091 5.861-2.957 7.692-5.548 1.885-2.667 2.842-5.996 2.842-9.886 0-5.515-1.99-9.908-5.908-13.052-3.915-3.142-9.346-4.736-16.153-4.736zm-55.51.002v64.13h45.734v-8.812h-35.952V159.64h31.806v-8.18h-31.806v-18.582h35.952v-8.81zm114.383 0v64.13h9.782v-64.13zm19.562 0v64.13h45.731v-8.812h-35.952V159.64h31.806v-8.18h-31.806v-18.582h35.952v-8.81zm123.995 0 22.31 30.755-24.21 33.375h10.895l18.758-25.863 18.757 25.863h10.896l-24.2-33.375 22.304-30.754h-10.897l-16.857 23.243-16.861-23.243zm-192.648 8.451h17.656c4.027 0 7.16.868 9.312 2.583 2.15 1.713 3.238 4.283 3.238 7.65 0 3.493-1.06 6.213-3.154 8.103-2.096 1.891-5.013 2.85-8.679 2.85h-18.373z" style="stroke-width:.463173" transform="translate(-69.918 -101.155)"/><path d="M347.846 121.155c-4.83 0-9.23.79-13.078 2.352-3.854 1.563-7.263 3.938-10.135 7.063-2.935 3.183-5.165 6.896-6.633 11.025-1.465 4.132-2.208 8.803-2.208 13.879 0 5.107.743 9.781 2.208 13.9 1.468 4.117 3.698 7.784 6.633 10.912 2.872 3.15 6.281 5.552 10.135 7.127 3.852 1.578 8.249 2.376 13.078 2.376 4.764 0 9.135-.802 12.983-2.376 3.854-1.58 7.297-3.977 10.232-7.132 2.899-3.154 5.11-6.84 6.561-10.957 1.45-4.114 2.184-8.777 2.184-13.855 0-5.08-.734-9.744-2.182-13.874-1.451-4.13-3.66-7.842-6.563-11.025-2.937-3.125-6.378-5.505-10.232-7.063-3.848-1.562-8.219-2.352-12.983-2.352zm-152.165 1.466 22.85 31.503-24.796 34.19h11.163l19.216-26.493 19.217 26.494h11.163l-24.799-34.19 22.852-31.504h-11.165l-17.268 23.809-17.27-23.81zm64.055.002v28.06h-8.532l-6.078 8.382h14.61v29.25h30.75c7.03 0 12.508-1.678 16.272-4.992 3.768-3.315 5.68-7.921 5.68-13.688 0-3.558-.96-6.75-2.864-9.485-1.868-2.685-4.658-4.762-8.298-6.17 5.644-3.135 8.5-7.926 8.5-14.243 0-5.094-1.787-9.264-5.312-12.398-3.522-3.127-8.661-4.716-15.263-4.716zm117.694 0 22.852 31.505-24.796 34.189h11.16l19.217-26.492 19.217 26.492h11.162l-24.797-34.189 22.849-31.505H423.13l-17.27 23.81-17.265-23.81zm-29.586 7.56c6.49 0 11.783 2.28 15.724 6.77 3.883 4.5 5.854 10.732 5.854 18.522 0 7.787-1.969 13.985-5.854 18.424-3.884 4.556-9.172 6.866-15.724 6.866-6.555 0-11.842-2.31-15.726-6.866-3.946-4.498-5.945-10.703-5.945-18.43 0-7.667 2.001-13.896 5.945-18.515 3.942-4.491 9.232-6.771 15.726-6.771zm-78.088 1.096h18.804c3.632 0 6.469.832 8.433 2.462 1.958 1.63 2.948 3.928 2.948 6.827 0 3.36-.955 5.911-2.836 7.587-1.889 1.68-4.763 2.528-8.547 2.528h-18.802zm0 27.786h20.179c4.12 0 7.252.871 9.306 2.596 2.049 1.72 3.09 4.344 3.09 7.79 0 3.268-1.07 5.814-3.18 7.564-2.115 1.754-5.215 2.646-9.216 2.646h-20.179z" style="stroke-width:.335244" transform="translate(-69.918 -101.155)"/><path d="M123.286 101.155c-10.77 0-19.628 2.96-27.802 7.824a.207.207 0 0 0-.09.264c.046.098.152.116.257.092 10.336-2.237 26.037 6.703 27.526 7.6a.21.21 0 0 0 .11.042.21.21 0 0 0 .115-.042c1.487-.897 17.185-9.837 27.523-7.6.108.024.214.007.255-.092a.195.195 0 0 0-.088-.264c-8.173-4.865-17.03-7.824-27.806-7.824zm-35.72 15.058c-.898-.027-1.412.167-1.636.283a.898.898 0 0 0-.236.181c-9.744 9.686-15.776 23.105-15.776 37.942a53.259 53.259 0 0 0 10.914 32.39c.066.086.19.142.284.086.093-.054.098-.173.064-.276-4.068-12.6 16.731-43.15 27.477-55.956.04-.045.072-.095.072-.154 0-.077-.041-.134-.092-.179-12.21-12.165-18.374-14.237-21.07-14.317Zm71.447 0c-2.696.08-8.858 2.152-21.068 14.317-.05.045-.09.102-.09.179 0 .059.033.109.07.154 10.744 12.807 31.545 43.355 27.478 55.955-.035.104-.029.222.062.277.095.056.218 0 .285-.086a53.266 53.266 0 0 0 10.912-32.39c0-14.837-6.037-28.256-15.776-37.942a.883.883 0 0 0-.236-.181c-.225-.116-.738-.31-1.637-.283zm-35.722 27.82c-.062 0-.137.053-.176.085-15.964 12.16-43.295 42.246-34.958 50.744 9.387 8.228 21.68 13.216 35.134 13.216 13.457 0 25.75-4.988 35.134-13.217 8.335-8.497-18.996-38.579-34.96-50.743-.04-.035-.114-.085-.174-.085z" style="stroke-width:.327974" transform="translate(-69.918 -101.155)"/></svg>