<?xml version="1.0" encoding="UTF-8"?>
<svg id="_레이어_1" data-name="레이어 1" xmlns="http://www.w3.org/2000/svg" version="1.1" viewBox="0 0 840.4 106.9">
  <defs>
    <style>
      .cls-1 {
        fill: #fff;
        stroke-width: 0px;
      }
    </style>
  </defs>
  <path class="cls-1" d="M768,14.9v80.2h4.9V14.9h-4.9ZM401.8,21.5c-6.9,0-12.5,1.6-16.6,4.7-4.1,3.1-6.1,7.4-6.1,12.7s1.7,9.5,5.1,12.5c3.3,3,8.4,5.2,14.9,6.5l5.5,1.2c5.4,1.2,9.2,2.6,11.3,4.1,2.1,1.5,3.1,3.7,3.1,6.4s-1.3,6.1-3.8,7.9c-2.5,1.8-6.2,2.7-10.8,2.7s-10-1.2-12.9-3.6c-2.9-2.4-4.4-6-4.4-10.7h0c0,0-9.8,0-9.8,0h0c0,7.5,2.5,13.1,7.2,17,4.7,3.8,11.3,5.8,19.7,5.8s13.9-1.7,18.3-5.1c4.4-3.4,6.6-8.2,6.6-14.1s-1.6-9-4.8-11.9c-3.2-2.9-8.5-5.2-15.8-6.8l-5.6-1.2c-5.3-1.1-8.9-2.5-10.9-4.1-1.9-1.5-2.9-3.7-2.9-6.6s1.1-5,3.3-6.6c2.2-1.5,5.4-2.3,9.5-2.3s9.2,1,11.6,2.9c2.4,1.9,3.7,5,4,9.1h0c0,0,9.7,0,9.7,0h0c-.1-6.4-2.3-11.4-6.5-15-4.2-3.6-10.6-5.4-18.9-5.4h0ZM646.3,21.5c-6.9,0-12.5,1.6-16.6,4.7-4.1,3.1-6.1,7.4-6.1,12.7s1.7,9.5,5.1,12.5c3.3,3,8.4,5.2,14.9,6.5l5.5,1.2c5.4,1.2,9.2,2.6,11.3,4.1,2.1,1.5,3.1,3.7,3.1,6.4s-1.3,6.1-3.8,7.9c-2.5,1.8-6.2,2.7-10.8,2.7s-10-1.2-12.8-3.6c-2.9-2.4-4.4-6-4.4-10.7h0c0,0-9.8,0-9.8,0h0c0,7.5,2.5,13.1,7.2,17,4.7,3.8,11.3,5.8,19.7,5.8s13.9-1.7,18.3-5.1c4.4-3.4,6.6-8.2,6.6-14.1,0-5-1.6-9-4.8-11.9-3.2-2.9-8.5-5.2-15.8-6.8l-5.6-1.2c-5.3-1.1-9-2.5-10.9-4.1-1.9-1.5-2.9-3.7-2.9-6.6s1.1-5,3.3-6.6c2.2-1.5,5.4-2.3,9.5-2.3s9.2,1,11.6,2.9c2.4,1.9,3.8,5,4,9.1h0c0,0,9.7,0,9.7,0h0c-.1-6.4-2.3-11.4-6.5-15-4.2-3.6-10.6-5.4-18.9-5.4h0ZM813.1,21.5c-6.9,0-12.5,1.6-16.6,4.7-4.1,3.1-6.1,7.4-6.1,12.7s1.7,9.5,5.1,12.5c3.3,3,8.4,5.2,14.9,6.5l5.5,1.2c5.4,1.2,9.2,2.6,11.3,4.1,2.1,1.5,3.1,3.7,3.1,6.4s-1.3,6.1-3.8,7.9c-2.5,1.8-6.2,2.7-10.8,2.7s-10-1.2-12.8-3.6c-2.9-2.4-4.4-6-4.4-10.7h0c0,0-9.8,0-9.8,0h0c0,7.5,2.5,13.1,7.2,17,4.7,3.8,11.3,5.8,19.7,5.8s13.9-1.7,18.3-5.1c4.4-3.4,6.6-8.2,6.6-14.1s-1.6-9-4.8-11.9c-3.2-2.9-8.5-5.2-15.8-6.8l-5.6-1.2c-5.3-1.1-8.9-2.5-10.9-4.1-1.9-1.5-2.9-3.7-2.9-6.6s1.1-5,3.3-6.6c2.2-1.5,5.4-2.3,9.5-2.3s9.2,1,11.6,2.9c2.4,1.9,3.7,5,4,9.1h0c0,0,9.7,0,9.7,0h0c-.1-6.4-2.3-11.4-6.5-15-4.2-3.6-10.6-5.4-18.9-5.4h0ZM492.4,22.9v64.1h9.8v-26.3h18.5c3.7,0,6.4.8,8,2.5,1.7,1.7,2.6,4.6,2.8,8.7l.3,6.8c0,3.7.7,6.5,1.9,8.2h0s10.1,0,10.1,0h0c-1.1-2-1.8-4.7-2.1-7.9l-.6-10c-.1-3.5-.9-6.4-2.3-8.5-1.4-2.1-3.6-3.6-6.6-4.5,3.3-1.1,5.9-3,7.7-5.5,1.9-2.7,2.8-6,2.8-9.9,0-5.5-2-9.9-5.9-13.1-3.9-3.1-9.3-4.7-16.2-4.7h-28ZM436.9,22.9v64.1h45.7v-8.8h-36v-19.7h31.8v-8.2h-31.8v-18.6h36v-8.8h-45.7ZM551.3,22.9v64.1h9.8V22.9h-9.8ZM570.9,22.9v64.1h45.7v-8.8h-36v-19.7h31.8v-8.2h-31.8v-18.6h36v-8.8h-45.7ZM694.9,22.9l22.3,30.8-24.2,33.4h10.9l18.8-25.9,18.8,25.9h10.9l-24.2-33.4,22.3-30.8h-10.9l-16.9,23.2-16.9-23.2h-10.9ZM502.2,31.4h17.7c4,0,7.2.9,9.3,2.6,2.2,1.7,3.2,4.3,3.2,7.6s-1.1,6.2-3.2,8.1c-2.1,1.9-5,2.9-8.7,2.9h-18.4v-21.2Z"/>
  <path class="cls-1" d="M277.9,20c-4.8,0-9.2.8-13.1,2.4-3.9,1.6-7.3,3.9-10.1,7.1-2.9,3.2-5.2,6.9-6.6,11-1.5,4.1-2.2,8.8-2.2,13.9s.7,9.8,2.2,13.9c1.5,4.1,3.7,7.8,6.6,10.9,2.9,3.1,6.3,5.6,10.1,7.1,3.9,1.6,8.2,2.4,13.1,2.4s9.1-.8,13-2.4c3.9-1.6,7.3-4,10.2-7.1,2.9-3.2,5.1-6.8,6.6-11,1.5-4.1,2.2-8.8,2.2-13.9s-.7-9.7-2.2-13.9c-1.5-4.1-3.7-7.8-6.6-11-2.9-3.1-6.4-5.5-10.2-7.1-3.8-1.6-8.2-2.4-13-2.4ZM125.8,21.5l22.9,31.5-24.8,34.2h11.2l19.2-26.5,19.2,26.5h11.2l-24.8-34.2,22.9-31.5h-11.2l-17.3,23.8-17.3-23.8h-11.2ZM189.8,21.5v28.1h-8.5l-6.1,8.4h14.6v29.2h30.8c7,0,12.5-1.7,16.3-5,3.8-3.3,5.7-7.9,5.7-13.7s-1-6.8-2.9-9.5c-1.9-2.7-4.7-4.8-8.3-6.2,5.6-3.1,8.5-7.9,8.5-14.2s-1.8-9.3-5.3-12.4c-3.5-3.1-8.7-4.7-15.3-4.7h-29.5ZM307.5,21.5l22.9,31.5-24.8,34.2h11.2l19.2-26.5,19.2,26.5h11.2l-24.8-34.2,22.8-31.5h-11.2l-17.3,23.8-17.3-23.8h-11.2ZM277.9,29c6.5,0,11.8,2.3,15.7,6.8,3.9,4.5,5.9,10.7,5.9,18.5s-2,14-5.9,18.4c-3.9,4.6-9.2,6.9-15.7,6.9s-11.8-2.3-15.7-6.9c-3.9-4.5-5.9-10.7-5.9-18.4s2-13.9,5.9-18.5c3.9-4.5,9.2-6.8,15.7-6.8ZM199.8,30.1h18.8c3.6,0,6.5.8,8.4,2.5,2,1.6,2.9,3.9,2.9,6.8s-1,5.9-2.8,7.6c-1.9,1.7-4.8,2.5-8.5,2.5h-18.8v-19.4ZM199.8,57.9h20.2c4.1,0,7.3.9,9.3,2.6,2,1.7,3.1,4.3,3.1,7.8s-1.1,5.8-3.2,7.6c-2.1,1.8-5.2,2.6-9.2,2.6h-20.2v-20.6Z"/>
  <path class="cls-1" d="M53.4,0c-10.8,0-19.6,3-27.8,7.8,0,0-.1.2,0,.3,0,0,.2.1.3,0,10.3-2.2,26,6.7,27.5,7.6,0,0,0,0,.1,0,0,0,0,0,.1,0,1.5-.9,17.2-9.8,27.5-7.6.1,0,.2,0,.3,0,0,0,0-.2,0-.3,0,0,0,0,0,0C73,3,64.1,0,53.4,0ZM17.6,15.1c-.9,0-1.4.2-1.6.3,0,0-.2.1-.2.2C6,25.2,0,38.6,0,53.5c0,11.7,3.8,23.1,10.9,32.4,0,0,.2.1.3,0,0,0,0-.2,0-.3-4.1-12.6,16.7-43.2,27.5-56,0,0,0,0,0-.2s0-.1,0-.2c-12.2-12.2-18.4-14.2-21.1-14.3h0ZM89.1,15.1c-2.7,0-8.9,2.2-21.1,14.3,0,0,0,.1,0,.2s0,.1,0,.2c10.7,12.8,31.5,43.4,27.5,56,0,.1,0,.2,0,.3,0,0,.2,0,.3,0,7.1-9.3,10.9-20.7,10.9-32.4,0-14.8-6-28.3-15.8-37.9,0,0-.1-.1-.2-.2-.2-.1-.7-.3-1.6-.3h0ZM53.4,42.9c0,0-.1,0-.2,0-16,12.2-43.3,42.2-35,50.7,9.4,8.2,21.7,13.2,35.1,13.2s25.8-5,35.1-13.2c8.3-8.5-19-38.6-35-50.7,0,0-.1,0-.2,0h0Z"/>
</svg>