<?xml version="1.0" encoding="UTF-8"?>
<svg id="Layer_1" data-name="Layer 1" xmlns="http://www.w3.org/2000/svg" version="1.1" viewBox="0 0 1000 142.1">
  <defs>
    <style>
      .cls-1 {
        fill: #fff;
        stroke-width: 0px;
      }
    </style>
  </defs>
  <g id="Layer_2" data-name="Layer 2">
    <g id="TUBE">
      <path class="cls-1" d="M71,57c0,0,.2,0,.2.1,21.3,16.2,57.6,56.1,46.5,67.4-26.8,23.4-66.7,23.4-93.5,0-11.1-11.3,25.3-51.3,46.5-67.4,0,0,.1-.1.2-.1ZM108,10.4c-22.7-13.9-51.3-13.9-74,0-.1,0-.2.2-.1.4,0,.1.2.2.3.1,13.8-3,34.7,8.9,36.6,10.1,0,0,.2,0,.3,0,2-1.2,22.9-13.1,36.6-10.1.1,0,.3,0,.4-.1,0-.1,0-.3-.1-.4ZM21.3,20.4c-.1,0-.2.1-.3.2C-4.3,45.7-7.1,85.7,14.5,114.1c0,.1.2.2.4.1.1,0,.1-.2,0-.4-5.4-16.7,22.3-57.3,36.6-74.4,0,0,0-.1,0-.2,0,0,0-.2-.1-.2-21.7-21.5-29-19.3-30.2-18.6ZM90.5,39c0,0-.1.1-.1.2,0,0,0,.2,0,.2,14.3,17.1,42,57.6,36.6,74.4,0,.1,0,.3,0,.4.1,0,.3,0,.4-.1,21.6-28.4,18.8-68.3-6.5-93.4,0,0-.2-.2-.3-.2-1.2-.6-8.5-2.9-30.2,18.7h0s0,0,0,0ZM247.2,114.8h-14.5l-25-34.4-25,34.4h-14.5l32.3-44.4-29.7-41h14.5l22.5,30.9,22.5-30.9h14.5l-29.7,41,32.3,44.4ZM322.7,90.5c0,7.5-2.5,13.5-7.4,17.8-4.9,4.3-12,6.5-21.2,6.5h-40v-38h-19l7.9-10.9h11.1V29.4h38.4c8.6,0,15.3,2.1,19.9,6.1,4.6,4.1,7.1,10,6.9,16.1,0,8.2-3.7,14.4-11.1,18.5,4.3,1.5,8.1,4.3,10.8,8,2.5,3.6,3.8,7.9,3.7,12.3ZM267.1,65.9h24.5c4.9,0,8.7-1.1,11.1-3.3s3.7-5.5,3.7-9.9c.2-3.4-1.3-6.7-3.8-8.9-2.5-2.1-6.2-3.2-10.9-3.2h-24.5v25.2ZM309.5,90.3c0-4.5-1.3-7.9-4-10.1-2.7-2.2-6.8-3.4-12.1-3.4h-26.3v26.8h26.3c5.2,0,9.2-1.2,12-3.4,2.8-2.3,4.1-5.6,4.1-9.8ZM410.4,72.1c0,6.1-.9,12.2-2.8,18-1.9,5.3-4.8,10.1-8.5,14.2-3.7,4-8.3,7.2-13.3,9.3-10.9,4.1-23,4.1-33.9,0-5-2.1-9.6-5.2-13.2-9.3-3.8-4.1-6.8-8.9-8.6-14.2-2-5.8-3-11.9-2.9-18.1,0-6.1.9-12.2,2.9-18,1.9-5.3,4.8-10.2,8.6-14.3,3.7-4,8.2-7.1,13.2-9.2,10.9-4.1,23-4.1,33.9,0,5.1,2.1,9.6,5.2,13.3,9.2,3.8,4.2,6.7,9,8.5,14.3,2,5.8,2.9,11.9,2.8,18.1ZM340.5,72.1c0,10,2.6,18.1,7.7,24,5.1,5.8,11.9,8.9,20.5,8.9s15.4-3,20.5-8.9h0c5.1-5.8,7.7-13.8,7.7-24s-2.6-18.2-7.7-24.1c-5.1-5.9-12-8.8-20.5-8.8s-15.3,3-20.5,8.8c-5.2,5.8-7.7,14.1-7.7,24.1ZM451.6,70.4l29.8-41h-14.5l-22.5,30.9-22.5-30.9h-14.5l29.8,41-32.3,44.4h14.5l25-34.4,25,34.4h14.5l-32.3-44.4ZM592.5,41.1v24.7h42.4v10.9h-42.4v26.3h48v11.7h-61V29.4h61v11.7h-48ZM562.5,75.2c-4.3-3.9-11.3-6.9-21-9l-7.4-1.6c-7-1.5-11.9-3.3-14.5-5.5-2.6-2-3.9-4.9-3.9-8.8-.1-3.5,1.5-6.8,4.4-8.8,2.9-2,7.2-3.1,12.7-3.1s12.3,1.3,15.5,3.9c3.2,2.6,5,6.6,5.4,12h0c0,.1,12.9.1,12.9.1h0c-.2-8.5-3.1-15.2-8.8-20-5.7-4.8-14.1-7.2-25.3-7.2s-16.7,2.1-22.1,6.3c-5.3,4-8.4,10.3-8.2,16.9,0,7,2.3,12.6,6.7,16.6,4.5,4,11.2,6.9,19.9,8.6l7.3,1.6c7.2,1.6,12.3,3.4,15,5.5,2.7,2,4.3,5.2,4.1,8.6.2,4.1-1.7,8.1-5,10.5-3.3,2.4-8.2,3.6-14.5,3.6s-13.3-1.6-17.1-4.7-5.8-7.9-5.9-14.2v-.2h-13.1c0,10,3.3,17.5,9.6,22.6s15.1,7.7,26.3,7.7,18.6-2.3,24.4-6.9c5.8-4.5,8.8-10.9,8.8-18.7,0-6.6-2.2-12-6.4-15.9ZM718.9,104.3l-.8-13.3c-.2-4.7-1.2-8.5-3.1-11.4-2.1-2.9-5.2-5.1-8.8-6,4.1-1.3,7.7-3.9,10.3-7.4,2.6-3.9,3.9-8.5,3.8-13.1,0-7.3-2.7-13.1-7.9-17.4-5.2-4.2-12.5-6.3-21.5-6.3h-37.3v85.4h13v-35h24.6c4.9,0,8.5,1.1,10.7,3.4,2.2,2.3,3.4,6.1,3.7,11.6l.4,9.1c0,4.9.9,8.6,2.5,10.9h0c0,0,13.4,0,13.4,0v-.2c-1.8-3.2-2.8-6.7-3-10.4ZM666.5,40.7h23.6c5.4,0,9.6,1.2,12.4,3.4,2.9,2.3,4.4,5.7,4.4,10.2s-1.4,8.3-4.2,10.8c-2.8,2.5-6.7,3.8-11.6,3.8h-24.5v-28.2ZM732,114.8h13V29.4h-13v85.4ZM819.1,41.1v-11.7h-61v85.4h61v-11.7h-47.9v-26.3h42.4v-10.9h-42.4v-24.7h47.9ZM888.6,75.2c-4.3-3.9-11.3-6.9-21-9l-7.4-1.6c-7-1.5-11.9-3.3-14.5-5.5-2.6-2-3.9-4.9-3.9-8.8-.1-3.5,1.5-6.8,4.4-8.8,2.9-2,7.2-3.1,12.7-3.1s12.3,1.3,15.5,3.9c3.2,2.6,5,6.6,5.4,12h0c0,.1,12.9.1,12.9.1h0c-.2-8.5-3.1-15.2-8.8-20-5.7-4.8-14.1-7.2-25.2-7.2s-16.7,2.1-22.1,6.3c-5.3,4-8.4,10.3-8.2,16.9,0,7,2.3,12.6,6.7,16.6,4.5,4,11.2,6.9,19.9,8.6l7.3,1.6c7.2,1.6,12.3,3.4,15,5.5,2.7,2,4.3,5.2,4.1,8.6,0,4.6-1.7,8.1-5,10.5-3.3,2.4-8.2,3.6-14.5,3.6s-13.3-1.6-17.1-4.7-5.8-7.9-5.9-14.2v-.2h-13c0,10,3.3,17.5,9.6,22.6s15.1,7.7,26.3,7.7,18.6-2.3,24.4-6.9,8.8-10.9,8.8-18.7c0-6.6-2.2-12-6.4-15.9ZM967.8,70.4l29.8-41h-14.5l-22.5,30.9-22.5-30.9h-14.5l29.7,41-32.3,44.4h14.5l25-34.4,25,34.4h14.5l-32.2-44.4Z"/>
    </g>
  </g>
</svg>