<?xml version="1.0" encoding="utf-8"?>
<!-- Generator: Adobe Illustrator 16.0.0, SVG Export Plug-In . SVG Version: 6.00 Build 0)  -->
<!DOCTYPE svg PUBLIC "-//W3C//DTD SVG 1.1//EN" "http://www.w3.org/Graphics/SVG/1.1/DTD/svg11.dtd">
<svg version="1.1" id="Layer_1" xmlns="http://www.w3.org/2000/svg" xmlns:xlink="http://www.w3.org/1999/xlink" x="0px" y="0px"
	 width="1000px" height="142.066px" viewBox="-202.374 349.911 1000 142.066"
	 enable-background="new -202.374 349.911 1000 142.066" xml:space="preserve">
<g id="Layer_2">
	<g id="TUBE">
		<path d="M-131.338,406.883c0.087,0.013,0.169,0.056,0.229,0.122c21.252,16.152,57.627,56.127,46.532,67.421
			c-26.782,23.402-66.74,23.402-93.522,0c-11.085-11.294,25.279-51.27,46.532-67.421
			C-131.507,406.938-131.427,406.896-131.338,406.883z M-94.328,360.308c-22.722-13.862-51.288-13.862-74.01,0
			c-0.129,0.064-0.184,0.221-0.12,0.351c0.054,0.131,0.197,0.153,0.338,0.12c13.756-2.965,34.691,8.909,36.639,10.101
			c0.085,0.072,0.21,0.072,0.295,0c1.98-1.192,22.927-13.066,36.628-10.101c0.131,0.052,0.279,0.001,0.351-0.12
			C-94.156,360.527-94.206,360.379-94.328,360.308z M-181.065,370.3c-0.115,0.061-0.22,0.143-0.307,0.24
			c-25.31,25.106-28.081,65.087-6.479,93.446c0.087,0.121,0.246,0.168,0.384,0.108c0.11-0.085,0.143-0.238,0.077-0.36
			c-5.407-16.744,22.281-57.332,36.572-74.35c0.061-0.052,0.097-0.128,0.099-0.208c-0.001-0.09-0.046-0.176-0.12-0.23
			C-172.508,367.421-179.861,369.675-181.065,370.3z M-111.826,388.904c-0.079,0.049-0.128,0.136-0.131,0.229
			c0.008,0.079,0.043,0.151,0.099,0.207c14.303,17.062,41.991,57.65,36.573,74.383c0,0.132,0,0.296,0.087,0.361
			c0.135,0.056,0.291,0.01,0.373-0.11c21.597-28.358,18.829-68.331-6.467-93.445c-0.09-0.099-0.198-0.181-0.318-0.241
			c-1.193-0.613-8.546-2.867-30.215,18.658V388.904z M44.841,464.708H30.307L5.28,430.27l-25.018,34.438H-34.27l32.284-44.441
			l-29.746-40.95h14.534L5.28,410.264l22.489-30.947h14.532l-29.744,40.95L44.841,464.708z M120.284,440.425
			c0,7.495-2.484,13.482-7.388,17.794c-4.902,4.313-12.037,6.489-21.198,6.489h-40.03V426.68H32.638l7.913-10.942h11.118v-36.42
			h38.357c8.602,0,15.321,2.057,19.872,6.128c4.597,4.072,7.138,9.981,6.928,16.119c0,8.208-3.732,14.436-11.076,18.518
			c4.326,1.524,8.095,4.315,10.813,8.01C119.055,431.717,120.357,436.026,120.284,440.425z M64.713,415.791h24.48
			c4.925,0,8.667-1.094,11.13-3.283s3.688-5.471,3.688-9.85c0.167-3.394-1.253-6.672-3.842-8.874
			c-2.549-2.123-6.247-3.196-10.942-3.196H64.713V415.791z M107.119,440.184c0-4.485-1.345-7.89-4.016-10.123
			c-2.671-2.232-6.753-3.381-12.114-3.381H64.724v26.779h26.264c5.209,0,9.236-1.16,12.037-3.448
			C105.827,447.724,107.119,444.431,107.119,440.184z M208.006,422.008c0.074,6.12-0.888,12.21-2.845,18.012
			c-1.853,5.274-4.759,10.115-8.547,14.227c-3.711,4.023-8.257,7.186-13.318,9.27c-10.931,4.126-22.993,4.126-33.924,0
			c-5.04-2.061-9.55-5.229-13.199-9.27c-3.839-4.086-6.78-8.933-8.634-14.227c-1.988-5.813-2.963-11.924-2.877-18.068
			c-0.079-6.13,0.894-12.23,2.877-18.034c1.872-5.316,4.811-10.195,8.634-14.335c3.659-4.005,8.169-7.138,13.199-9.17
			c10.939-4.083,22.984-4.083,33.924,0c5.053,2.053,9.597,5.184,13.318,9.17c3.786,4.154,6.693,9.03,8.547,14.335
			C207.123,409.744,208.085,415.86,208.006,422.008z M138.165,422.008c0,10.045,2.605,18.11,7.749,23.954
			c5.144,5.844,11.938,8.931,20.475,8.931c8.536,0,15.42-3.01,20.464-8.931l0,0c5.068-5.767,7.66-13.82,7.66-23.954
			c0-10.134-2.56-18.222-7.66-24.076c-5.099-5.855-12.037-8.755-20.464-8.755c-8.426,0-15.32,2.966-20.475,8.755
			C140.759,403.72,138.165,412.049,138.165,422.008z M249.198,420.267l29.755-40.95h-14.534l-22.488,30.947l-22.489-30.947h-14.534
			l29.755,40.95l-32.282,44.441h14.532l25.017-34.438l25.016,34.438h14.544L249.198,420.267z M390.094,391.048v24.743h42.427v10.943
			h-42.427V453h47.954v11.708H377.05V379.35h60.998v11.698H390.094z M360.118,425.147c-4.255-3.906-11.336-6.927-21.043-8.995
			l-7.409-1.554c-7.048-1.511-11.938-3.349-14.544-5.472c-2.582-1.958-3.896-4.903-3.896-8.755
			c-0.147-3.478,1.507-6.787,4.379-8.754c2.922-2.046,7.201-3.086,12.727-3.086c7.113,0,12.333,1.303,15.529,3.862
			c3.195,2.561,5,6.567,5.395,12.038v0.11h12.924v-0.122c-0.164-8.372-3.097-15.036-8.754-19.83c-5.658-4.792-14.117-7.2-25.258-7.2
			c-9.237,0-16.655,2.123-22.083,6.302c-5.312,3.972-8.354,10.28-8.153,16.908c0,7.027,2.266,12.608,6.741,16.601
			c4.476,3.995,11.151,6.884,19.905,8.635l7.277,1.555c7.212,1.587,12.257,3.414,15.026,5.472c2.729,1.98,4.283,5.199,4.136,8.568
			c0.213,4.123-1.684,8.072-5.033,10.483c-3.349,2.408-8.22,3.622-14.457,3.622c-7.55,0-13.318-1.598-17.138-4.749
			s-5.82-7.945-5.931-14.228v-0.196h-13.067v0.131c0.088,9.851,3.285,17.346,9.555,22.456c6.27,5.11,15.111,7.662,26.329,7.662
			c10.341,0,18.603-2.311,24.413-6.852c5.812-4.541,8.833-10.855,8.833-18.746C366.522,434.405,364.355,429.056,360.118,425.147z
			 M516.512,454.169l-0.832-13.273c-0.164-4.705-1.214-8.524-3.13-11.359c-2.136-2.946-5.232-5.06-8.754-5.976
			c4.134-1.284,7.738-3.881,10.265-7.397c2.61-3.872,3.938-8.465,3.796-13.133c0-7.343-2.659-13.131-7.889-17.377
			c-5.232-4.248-12.466-6.304-21.538-6.304h-37.316v85.358h13.044v-35.02h24.635c4.881,0,8.471,1.095,10.669,3.371
			c2.2,2.276,3.438,6.14,3.667,11.578l0.36,9.084c0.087,4.946,0.931,8.634,2.54,10.942v0.056h13.438l-0.109-0.196
			C517.663,461.32,516.693,457.787,516.512,454.169z M464.136,390.567h23.551c5.373,0,9.553,1.16,12.421,3.436
			c2.868,2.275,4.377,5.712,4.377,10.188c0,4.651-1.422,8.273-4.201,10.79c-2.781,2.518-6.698,3.798-11.579,3.798h-24.514
			L464.136,390.567z M529.621,464.708h13.045V379.35h-13.045V464.708z M616.698,391.048v-11.731h-60.986v85.359h60.986v-11.699
			h-47.942v-26.264h42.415V415.77h-42.415v-24.722H616.698z M686.233,425.147c-4.267-3.906-11.348-6.927-21.043-8.995l-7.409-1.554
			c-7.036-1.511-11.929-3.349-14.532-5.472c-2.584-1.958-3.896-4.903-3.896-8.755c-0.149-3.478,1.506-6.787,4.377-8.754
			c2.91-2.046,7.2-3.086,12.728-3.086c7.113,0,12.332,1.303,15.528,3.862c3.196,2.561,5.002,6.567,5.396,12.038v0.11h12.925v-0.122
			c-0.166-8.372-3.098-15.036-8.756-19.83c-5.656-4.792-14.105-7.2-25.247-7.2c-9.234,0-16.666,2.123-22.084,6.302
			c-5.318,3.967-8.368,10.276-8.173,16.908c0,7.027,2.264,12.608,6.741,16.601c4.476,3.995,11.15,6.884,19.905,8.635l7.277,1.555
			c7.2,1.587,12.257,3.414,15.026,5.472c2.727,1.981,4.276,5.2,4.124,8.568c0,4.563-1.685,8.087-5.021,10.483
			c-3.339,2.397-8.22,3.622-14.457,3.622c-7.552,0-13.318-1.598-17.138-4.749s-5.822-7.945-5.942-14.228v-0.196h-13.034v0.131
			c0.089,9.851,3.284,17.346,9.555,22.456s15.113,7.662,26.33,7.662c10.341,0,18.604-2.311,24.415-6.852
			c5.811-4.541,8.831-10.855,8.831-18.746C692.657,434.405,690.49,429.056,686.233,425.147z M765.388,420.267l29.755-40.95h-14.544
			l-22.489,30.947l-22.478-30.947h-14.543l29.711,40.95l-32.284,44.441h14.532l25.018-34.438l25.027,34.438h14.533L765.388,420.267z
			"/>
	</g>
</g>
</svg>
