<?xml version="1.0" encoding="UTF-8"?>
<svg xmlns="http://www.w3.org/2000/svg" version="1.1" xmlns:cc="http://creativecommons.org/ns#" xmlns:dc="http://purl.org/dc/elements/1.1/" xmlns:inkscape="http://www.inkscape.org/namespaces/inkscape" xmlns:rdf="http://www.w3.org/1999/02/22-rdf-syntax-ns#" xmlns:sodipodi="http://sodipodi.sourceforge.net/DTD/sodipodi-0.dtd" xmlns:svg="http://www.w3.org/2000/svg" viewBox="0 0 1000 292">
  <defs>
    <style>
      .cls-1 {
        fill: #fff;
        stroke-width: 0px;
      }
    </style>
  </defs>
  <g id="Layer_1" data-name="Layer 1" inkscape:version="1.0.2 (e86c870879, 2021-01-15)">
    <g id="g864">
      <path id="path2" class="cls-1" d="M510.4,236.7h-30l-51.6-71.4-52,71.4h-30l66.6-91.9-61.2-84.6h30l46.5,64.1,46.5-64.1h30l-61.5,84.6,66.6,91.9ZM666.4,186.6c0,15.4-5.1,27.8-15.4,36.6-10.3,8.8-24.9,13.5-43.9,13.5h-82.4v-78.7h-39.5l16.5-22.7h23.1V60.2h79.1c17.9,0,31.5,4.4,41,12.8,9.5,8.4,14.3,19.8,14.3,33.3s-7.7,30-23.1,38.4c9.9,3.7,17.2,9.5,22.3,16.5,5.5,7,8.1,15.7,8.1,25.3h0ZM551.4,135.7h50.5c10.3,0,17.9-2.2,23.1-7,5.1-4.4,7.7-11.4,7.7-20.5s-2.6-13.9-8.1-18.3c-5.1-4.4-12.8-6.6-22.7-6.6h-50.5v52.4ZM639.3,185.8c0-9.2-2.9-16.5-8.4-20.9-5.5-4.8-13.9-7-24.9-7h-54.6v55.3h54.2c10.6,0,19-2.6,24.9-7,5.9-4.8,8.8-11.7,8.8-20.5h0ZM848,148.5c0,13.5-1.8,26.4-5.9,37.4-4,11-9.9,20.9-17.6,29.3-8.1,8.4-17.2,15-27.5,19-10.3,4.4-22,6.2-35.2,6.2s-24.9-2.2-35.2-6.2c-10.3-4.4-19.4-10.6-27.5-19s-13.9-18.3-17.9-29.3c-4-11-5.9-23.8-5.9-37.4s1.8-26.4,5.9-37.4,9.9-21.2,17.9-29.7c7.7-8.4,16.8-14.6,27.5-19,10.3-4,22.3-6.2,35.2-6.2s24.5,2.2,35.2,6.2c10.3,4,19.8,10.6,27.5,19s13.9,18.7,17.6,29.7,5.9,23.4,5.9,37.4ZM703.4,148.5c0,20.9,5.5,37.4,16.1,49.4s24.5,18.3,42.5,18.3,31.9-6.2,42.5-18.3c10.6-12.1,15.7-28.6,15.7-49.4s-5.1-37.7-15.7-49.8c-10.6-12.1-24.9-18.3-42.5-18.3s-31.9,6.2-42.5,18.3c-10.6,12.5-16.1,28.9-16.1,49.8h0ZM933,144.8l61.5-84.6h-30l-46.5,64.1-46.5-64.1h-30l61.5,84.6-66.6,91.9h30l51.6-71.4,52,71.4h30l-67-91.9Z"/>
      <path id="path4" class="cls-1" d="M145.8,117.1s.4,0,0,0c44,33.5,118.5,115.6,96,138.9-25.8,22.5-59.3,36-96,36s-70.5-13.5-96-36c-22.9-23.3,52-105.4,95.6-138.5,0-.4.4-.4.4-.4h0ZM221.8,21.5C199.6,8,175.3,0,145.8,0s-53.8,8-76,21.5c-.4,0-.4.4-.4.7s.4.4.7.4c28.4-6.2,71.3,18.2,75.3,20.7h.7c4-2.5,46.9-26.9,75.3-20.7.4,0,.7,0,.7-.4s0-.7-.4-.7h0ZM43.6,41.8c-.4,0-.4.4-.7.4C16.4,68.7,0,105.4,0,145.8s11.3,64,29.8,88.4c0,.4.4.4.7.4s.4-.4,0-.7c-11.3-34.5,45.8-117.8,75.3-152.7l.4-.4q0-.4-.4-.4c-44.7-44.4-59.6-39.6-62.2-38.5ZM185.8,80l-.4.4s0,.4.4.4c29.5,34.9,86.2,118.2,75.3,152.7v.7c.4,0,.7,0,.7-.4,18.5-24.4,29.8-55.3,29.8-88.4s-16.4-77.1-43.3-103.6q-.4-.4-.7-.4c-2.2-.7-17.1-5.5-61.8,38.5h0Z"/>
    </g>
  </g>
</svg>