<svg
   xmlns="http://www.w3.org/2000/svg"
   version="1.1"
   id="Layer_1"
   x="0px"
   y="0px"
   width="1000px"
   height="175.948px"
   viewBox="0 0 1000 175.948"
   xml:space="preserve">
<path
   d="m 909.18955,36.533937 c 0,0 77.18806,104.933213 77.18816,104.933183 h 13.62228 L 922.81189,36.533937 Z m 73.65647,0 -23.13399,31.228791 6.89646,9.264334 29.85981,-40.493125 z m -43.54929,59.102325 -33.6369,45.830858 h 13.62042 l 26.86504,-36.63362 z" /><g
   transform="matrix(5.3158217,0,0,5.3158217,0.40488783,0.66025373)">
	<polygon
   points="170.2,24.6 157.9,24.6 157.9,17 169.3,17 169.3,14.9 157.9,14.9 157.9,8 170,8 170,5.9 155.5,5.9 155.5,26.7 170.2,26.7 "
   transform="matrix(0.95385415,0,0,0.95385415,2.0745771,1.078139)" /><polygon
   points="150.6,23 138.1,5.9 136,5.9 136,26.7 138.3,26.7 138.3,10 150.6,26.7 152.9,26.7 152.9,5.9 150.6,5.9 "
   transform="matrix(0.95385415,0,0,0.95385415,2.2410097,1.078139)" />
<path
   d="m 120.5863,6.0800513 c -5.55577,0 -9.48313,4.3105107 -9.48313,10.3452247 0,6.130503 3.92736,10.345225 9.48313,10.345225 5.55576,0 9.48312,-4.310511 9.48312,-10.345225 -0.0957,-6.130504 -3.92736,-10.3452247 -9.48312,-10.3452247 m 0,18.5830897 c -4.21471,0 -7.18418,-3.448408 -7.18418,-8.237865 0,-4.885245 2.96947,-8.2378642 7.18418,-8.2378642 4.21471,0 7.18419,3.4484082 7.18419,8.2378642 0,4.885245 -2.96948,8.237865 -7.18419,8.237865" /></g>
<g
   transform="matrix(5.1220884,0,0,5.1220884,18.572414,3.4352989)"><polygon
     points="110.1,26.6 107.4,26.6 100.7,17.6 94.1,26.6 91.4,26.6 99.4,15.7 92.1,5.8 94.8,5.8 100.7,13.9 106.7,5.8 109.4,5.8 102.1,15.7 "
     transform="matrix(0.98993191,0,0,0.98993191,-0.69628719,0.67613014)" /><path
     d="m 69.772921,16.954166 c -0.4,-0.4 -0.9,-0.7 -1.4,-0.9 1.5,-0.8 2.5,-2.4 2.5,-4.2 0,-1.3 -0.5,-5.5999999 -6.7,-5.5999999 h -8.4 v 8.9999999 h -2.8 c -0.4,0.5 -1.2,1.6 -1.5,2.1 h 4.3 v 9.7 h 8.4 c 4.6,0 7.4,-2.3 7.4,-6.1 0,-1.6 -0.6,-3 -1.8,-4 m -11.7,-8.4999999 h 6.1 c 1.7,0 4.4,0.4 4.4,3.2999999 0,2.2 -1.6,3.5 -4.4,3.5 h -6.1 z m 6.1,16.3999999 h -6.1 v -7.6 h 6.1 c 2.3,0 5.1,0.6 5.1,3.6 0,3.5 -3.2,4 -5.1,4" /><path
     d="m 82.250749,5.7682391 c -5.739334,0 -9.796449,4.4529319 -9.796449,10.7859899 0,6.333058 4.057115,10.687036 9.796449,10.687036 5.739334,0 9.79645,-4.452932 9.79645,-10.687036 0,-6.333058 -3.958162,-10.7859899 -9.79645,-10.7859899 m 0,19.2960369 c -4.353978,0 -7.421552,-3.562345 -7.421552,-8.510047 0,-5.046656 3.067574,-8.5100471 7.421552,-8.5100471 4.353978,0 7.421553,3.5623461 7.421553,8.5100471 0.09896,5.046656 -2.968621,8.510047 -7.421553,8.510047" /><polygon
     points="40.5,5.8 37.7,5.8 45,15.7 37,26.6 39.8,26.6 46.4,17.6 53,26.6 55.7,26.6 47.8,15.7 55,5.8 52.3,5.8 46.4,13.9 "
     transform="translate(-0.80763898,0.45416605)" /></g>
<g
   transform="matrix(1.1240836,0,0,1.1240836,199.91135,-638.57891)">
	<path
   d="m -99.678372,630.85475 c 0,0 0.194926,0 0,0 23.586092,17.93323 63.545998,61.98659 51.460565,74.46188 -13.839773,12.08543 -31.773001,19.29771 -51.460565,19.29771 -19.687568,0 -37.815718,-7.21228 -51.460568,-19.29771 -12.28036,-12.47529 27.87448,-56.52865 51.265641,-74.26695 0,-0.19493 0.194927,-0.19493 0.194927,-0.19493 z m 40.739614,-51.26564 c -11.89051,-7.21228 -24.950577,-11.50066 -40.739614,-11.50066 -15.789038,0 -28.849098,4.28838 -40.739608,11.50066 -0.19493,0 -0.19493,0.19493 -0.19493,0.38985 0,0.19493 0.19493,0.19493 0.38985,0.19493 15.20426,-3.31375 38.20557,9.74632 40.349761,11.1108 h 0.194927 0.194926 c 2.14419,-1.36448 25.145503,-14.42455 40.349761,-11.1108 0.194927,0 0.389853,0 0.389853,-0.19493 0,-0.19492 0,-0.38985 -0.194926,-0.38985 z m -95.513922,10.91588 c -0.19493,0 -0.19493,0.19492 -0.38986,0.19492 -14.22962,14.22963 -23.00131,33.9172 -23.00131,55.55402 0,17.7383 6.04272,34.30705 15.98396,47.36711 0,0.19493 0.19493,0.19493 0.38986,0.19493 0.19492,0 0.19492,-0.19493 0,-0.38985 -6.04272,-18.51801 24.56072,-63.15615 40.34976,-81.86908 l 0.19492,-0.19493 c 0,-0.19493 0,-0.19493 -0.19492,-0.19493 -23.97595,-23.78101 -31.96793,-21.24697 -33.33241,-20.66219 z m 76.21621,20.46727 -0.194927,0.19492 c 0,0 0,0.19493 0.194927,0.19493 15.789037,18.71293 46.19755,63.35108 40.349759,81.86908 v 0.38985 c 0.194926,0 0.389853,0 0.389853,-0.19492 9.941245,-13.06007 15.983968,-29.62881 15.983968,-47.36711 0,-21.63683 -8.771692,-41.3244 -23.196242,-55.55402 -0.194927,-0.19493 -0.194927,-0.19493 -0.389853,-0.19493 -1.169558,-0.38985 -9.16154,-2.92389 -33.137485,20.6622 z" />
</g></svg>
