<?xml version="1.0" encoding="UTF-8"?>
<svg id="Layer_1" data-name="Layer 1" xmlns="http://www.w3.org/2000/svg" version="1.1" viewBox="0 0 1000 175.9">
  <defs>
    <style>
      .cls-1 {
        fill: #fff;
        stroke-width: 0px;
      }
    </style>
  </defs>
  <path class="cls-1" d="M909.2,36.5s77.2,104.9,77.2,104.9h13.6l-77.2-104.9h-13.6ZM982.8,36.5l-23.1,31.2,6.9,9.3,29.9-40.5h-13.6ZM939.3,95.6l-33.6,45.8h13.6l26.9-36.6-6.8-9.2Z"/>
  <g>
    <polygon class="cls-1" points="874.4 131.1 812.1 131.1 812.1 92.6 869.9 92.6 869.9 81.9 812.1 81.9 812.1 47 873.4 47 873.4 36.3 799.9 36.3 799.9 141.8 874.4 141.8 874.4 131.1"/>
    <polygon class="cls-1" points="775.9 123 712.6 36.3 701.9 36.3 701.9 141.8 713.6 141.8 713.6 57.1 775.9 141.8 787.6 141.8 787.6 36.3 775.9 36.3 775.9 123"/>
    <path class="cls-1" d="M641.4,33c-29.5,0-50.4,22.9-50.4,55s20.9,55,50.4,55,50.4-22.9,50.4-55c-.5-32.6-20.9-55-50.4-55M641.4,131.8c-22.4,0-38.2-18.3-38.2-43.8s15.8-43.8,38.2-43.8,38.2,18.3,38.2,43.8-15.8,43.8-38.2,43.8"/>
  </g>
  <g>
    <polygon class="cls-1" points="573.3 141.8 559.6 141.8 525.6 96.1 492.1 141.8 478.5 141.8 519 86.5 482 36.3 495.7 36.3 525.6 77.4 556 36.3 569.7 36.3 532.7 86.5 573.3 141.8"/>
    <path class="cls-1" d="M376,90.3c-2-2-4.6-3.6-7.2-4.6,7.7-4.1,12.8-12.3,12.8-21.5s-2.6-28.7-34.3-28.7h-43v46.1h-14.3c-2,2.6-6.1,8.2-7.7,10.8h22v49.7h43c23.6,0,37.9-11.8,37.9-31.2s-3.1-15.4-9.2-20.5M316,46.7h31.2c8.7,0,22.5,2,22.5,16.9s-8.2,17.9-22.5,17.9h-31.2v-34.8ZM347.3,130.7h-31.2v-38.9h31.2c11.8,0,26.1,3.1,26.1,18.4s-16.4,20.5-26.1,20.5"/>
    <path class="cls-1" d="M439.9,33c-29.4,0-50.2,22.8-50.2,55.2s20.8,54.7,50.2,54.7,50.2-22.8,50.2-54.7-20.3-55.2-50.2-55.2M439.9,131.8c-22.3,0-38-18.2-38-43.6s15.7-43.6,38-43.6,38,18.2,38,43.6c.5,25.8-15.2,43.6-38,43.6"/>
    <polygon class="cls-1" points="221.9 35.5 207.5 35.5 244.9 86.2 204 142 218.3 142 252.1 95.9 285.9 142 299.7 142 259.3 86.2 296.2 35.5 282.3 35.5 252.1 77 221.9 35.5"/>
  </g>
  <path class="cls-1" d="M87.9,70.6s.2,0,0,0c26.5,20.2,71.4,69.7,57.8,83.7-15.6,13.6-35.7,21.7-57.8,21.7s-42.5-8.1-57.8-21.7c-13.8-14,31.3-63.5,57.6-83.5,0-.2.2-.2.2-.2ZM133.7,12.9C120.3,4.8,105.6,0,87.9,0s-32.4,4.8-45.8,12.9c-.2,0-.2.2-.2.4s.2.2.4.2c17.1-3.7,42.9,11,45.4,12.5h.4c2.4-1.5,28.3-16.2,45.4-12.5.2,0,.4,0,.4-.2s0-.4-.2-.4ZM26.3,25.2c-.2,0-.2.2-.4.2C9.9,41.4,0,63.5,0,87.9s6.8,38.6,18,53.2c0,.2.2.2.4.2s.2-.2,0-.4c-6.8-20.8,27.6-71,45.4-92l.2-.2q0-.2-.2-.2C36.8,21.7,27.8,24.5,26.3,25.2h0ZM112,48.2l-.2.2s0,.2.2.2c17.7,21,51.9,71.2,45.4,92v.4c.2,0,.4,0,.4-.2,11.2-14.7,18-33.3,18-53.2s-9.9-46.5-26.1-62.4q-.2-.2-.4-.2c-1.3-.4-10.3-3.3-37.2,23.2Z"/>
</svg>