<svg xmlns="http://www.w3.org/2000/svg" xml:space="preserve" width="1000" height="252.0549" x="0px" y="0px" viewBox="0 0 1000 252.0549"><path d="M278.082 35.616c-4.794.685-25.342 4.795-32.192 6.165-7.534 2.054-77.397 56.849-82.191 69.863-.685 4.11 0 52.055 0 52.055l39.726 2.74-1.37 13.013c-5.48-.685-42.466 0-65.754 0-11.644 0-47.26 1.37-59.589.685l1.37-12.329c7.534.685 19.178-.685 26.027-2.74 6.85-2.054 12.33-4.794 12.33-11.643v-41.096c-2.74-7.535-60.96-80.822-76.028-92.466C36.3 18.493 6.849 15.068 0 13.699l1.37-12.33h133.562l-2.055 11.645c-6.165 1.37-34.247 2.055-41.781 4.11C110.274 45.205 140.41 82.191 150 95.89c5.48-7.535 56.85-43.836 58.22-54.795-7.535-1.37-31.508-4.794-35.617-4.794l-2.055-12.33h115.068l-7.534 11.645zM563.014 142.466c-21.233-1.37-58.22-.685-79.452 0l1.37-10.96c3.424 0 20.547-2.739 24.657-3.424V89.726c-10.274 0-69.178 1.37-78.082 3.424v34.247s25.342 2.74 30.822 3.425l-1.37 11.644c-22.603-1.37-68.493-1.37-90.411 0l1.37-12.329c6.85 0 25.342-2.055 29.452-2.74.685-8.219.685-21.918.685-35.616V74.658c0-6.165 0-22.603-.685-28.768-4.795 0-26.027-2.054-31.507-2.054l1.37-10.96c19.178 1.37 77.397 1.37 93.15 0l-1.37 10.275c-4.794 0-25.342 3.424-31.506 3.424v30.137h78.082v-44.52c-5.48-.685-19.863-3.425-26.027-4.11l1.37-10.274c13.013.685 65.068.685 78.767 0l-.685 10.959c-4.11 0-19.178 2.74-24.658 3.425v97.26s21.918 2.74 26.712 3.425l-2.054 9.589zM973.288 110.274h-21.233V0H1000l-4.11 16.438Zm-16.439 43.836-14.383.685 2.74-24.658 14.383.685 13.699-.685-2.74 23.973zM838.355 10.959c-56.849 1.37-92.465 23.288-93.15 61.645v1.369c1.37 38.356 36.301 60.958 93.15 62.328h4.11c56.164-1.37 91.782-23.973 93.152-63.014-1.37-36.986-36.303-60.958-93.152-62.328zm-6.164 17.123h15.069c19.178 1.37 54.11 12.328 54.795 45.205 0 32.877-35.617 45.206-54.795 45.89H832.19c-19.178-1.37-54.11-13.013-54.795-45.89.685-32.877 35.617-43.835 54.795-45.205z" style="fill:#ff0132;fill-opacity:1;stroke-width:6.84931612"/><path d="M645.89 30.137c-54.109 1.37-84.245 22.603-84.245 57.535v1.369c0 32.877 32.876 56.165 84.246 57.535h5.478c51.37-1.37 84.247-23.288 84.932-57.535v-1.37c0-34.93-33.562-56.165-84.932-57.534zm-2.74 15.754h10.96c17.808.685 52.054 10.273 52.054 41.095v2.74c0 30.137-34.246 40.411-52.055 41.096H643.15c-17.808-.685-52.054-10.274-52.054-41.095v-2.741c0-30.137 34.246-40.41 52.054-41.095zM258.904 55.479l-.685 9.59 21.918 5.478s-32.192 64.385-39.041 73.289c-5.48 1.37-19.863 4.794-25.342 5.478l-1.371 11.645c4.11-.685 60.96 0 66.44 0L282.19 150l-19.863-4.795s8.904-18.494 10.274-20.549c6.164-1.37 43.152-2.054 43.152-2.054l13.014 35.617s-15.754 2.74-21.918 2.74l-1.371 11.645h81.507l1.37-10.276c-4.795.685-19.863-3.424-25.342-4.11-6.165-9.588-28.082-65.068-38.356-89.726l18.492-2.738 2.055-9.59h-28.082c-10.274 0-54.109 0-58.219-.685zm37.672 15.753 15.752 40.413h-34.246c2.055-4.795 18.494-40.413 18.494-40.413zM642.466 164.384c-2.74.685-11.644 3.424-14.384 4.794 0 8.22-1.37 45.89-1.37 45.89-.685 17.124-8.219 28.768-28.082 36.987L591.096 250c9.589-5.48 14.383-10.959 15.068-15.068 2.055-5.48 2.74-18.494 2.74-41.781 0 0 0-17.809-.685-23.973-2.74-.685-15.069-3.425-19.178-4.11v-5.479c7.534 0 25.342.685 31.507.685 6.849 0 15.068 0 21.917-.685v4.795zM962.329 175.343c-1.37.685-5.48 1.37-9.59 2.054 0 6.165.686 50.685.686 60.96 0 1.37-1.37 2.054-3.425.684-9.589-9.589-40.41-44.52-50.685-56.85 0 8.22.685 39.727.685 45.206 4.11 1.37 13.014 3.425 14.384 3.425l.685 6.164h-33.562v-6.164c3.425-1.37 6.164-2.74 9.589-3.425.685-3.424.685-47.26.685-50.684-2.74 0-7.534-.685-10.959-.685v-7.535h24.658c8.904 10.274 30.137 33.562 41.095 45.89 0-10.273-.684-34.246-.684-38.356-2.055 0-6.165-.685-10.274-1.37l-.685-6.164c2.054 0 13.698.685 15.753.685 2.055 0 11.644-.685 13.699-.685l-2.055 6.85zM780.137 193.836c0 8.219-7.534 11.643-16.438 13.013v6.165c17.808-2.055 29.452-8.904 29.452-19.863v-.685c0-12.33-8.22-23.288-27.398-23.288h-36.986l1.37 6.85c3.425.684 8.22.684 11.644.684 0 8.22 1.37 43.15.685 53.425-2.055.685-8.904 2.055-11.644 2.74l-.685 6.164h42.466v-4.795c-2.74-.685-12.329-2.74-14.384-2.74 0-2.054-.685-51.37-.685-54.109 4.11 0 10.96 0 13.699.685 7.534 2.055 9.589 9.589 9.589 15.069M698.63 168.494l-36.985 1.37v4.794l9.587 1.37c-6.164 13.698-22.602 48.63-25.341 52.74-2.74 1.37-5.48 2.055-8.22 2.74l-.685 5.478h29.451v-4.795l-8.902-2.738s5.479-13.699 7.533-17.808h25.342l6.85 17.808s-6.165 1.37-10.96 2.055l-.683 4.795h36.987l.683-5.48c-3.425 1.37-10.959-.686-10.959-.686-4.794-9.59-17.123-39.726-23.287-54.11l9.59-2.054zm-19.862 12.328 10.273 26.028h-21.232c1.37-3.425 10.959-26.028 10.959-26.028zM851.37 168.494l-36.302 1.37v4.794l9.59 1.37c-6.164 13.698-22.604 48.63-25.344 52.74-2.74.685-5.479 2.055-8.218 2.74l-.686 5.478c8.22-.685 26.714 0 29.453 0v-4.795l-8.904-2.738s5.48-13.699 7.535-17.808h25.342l6.85 17.808s-6.165 1.37-10.96 2.055l-.685 4.793h36.986l.686-5.479c-4.11 1.37-11.645-.685-11.645-.685-7.534-15.754-19.862-45.89-23.287-54.11l8.905-1.369zm-19.862 12.328 10.273 26.028H820.55c1.37-3.425 10.959-26.028 10.959-26.028z" style="fill:#ff0132;fill-opacity:1;stroke-width:6.84931612"/></svg>